<?xml version="1.0" encoding="UTF-8"?>
<svg width="600px" height="400px" viewBox="0 0 600 400" version="1.1" xmlns="http://www.w3.org/2000/svg" xmlns:xlink="http://www.w3.org/1999/xlink">
    <!-- Generator: Sketch 59.1 (86144) - https://sketch.com -->
    <title>Incentive Structure 2</title>
    <desc>Created with Sketch.</desc>
    <g id="Incentive-Structure-2" stroke="none" stroke-width="1" fill="none" fill-rule="evenodd">
        <g id="Group" transform="translate(35.721866, 112.000000)">
            <g id="Group-22" transform="translate(57.500000, 158.316138) rotate(-271.000000) translate(-57.500000, -158.316138) translate(-13.000000, 102.316138)">
                <path d="M58.221831,111.015961 C111.74467,113.964171 144.439771,88.4591852 140.664448,57.724725 C139.695912,49.8399877 138.853201,28.4828581 132.225841,20.9061301 C113.019956,-1.05099164 77.0967863,-4.80001 42.0583791,5.64311005 C7.01997186,16.0862301 0.348864486,45.9333719 0.0983306942,60.2864432 C-0.110855445,72.2707091 4.69899197,108.067752 58.221831,111.015961 Z" id="Oval-Copy" fill="#000000"></path>
                <path d="M11.723909,53.981813 C14.4764075,72.0261159 40.2955576,85.2858101 70.5569504,83.8466083 C101.673975,82.3717471 125.704616,65.5994102 124.230889,46.3773718 C124.182915,45.7515903 124.108505,45.1310992 124.008359,44.5162837 L124.089451,44.5107348 L125.723909,61.2274615 L125.659661,61.2316621 C126.095124,79.9740031 102.41353,96.0464088 71.9299189,97.414884 C42.3391582,98.7479662 16.9947903,86.0263484 13.3110244,68.5771091 L13.181663,68.5855669 L11.723909,53.981813 Z" id="Path" stroke="#979797" stroke-width="0.5" fill="#D8D8D8"></path>
                <path d="M71.7370941,80.1582386 C42.2233967,81.6369187 17.1673042,67.8387699 15.7727451,49.3321596 C14.3781861,30.8227775 37.1732516,14.3000548 66.6869491,12.4346767 C96.2006465,10.5743153 121.256739,24.3902101 122.651298,43.2862903 C124.045857,62.1795987 101.250792,78.6845754 71.7370941,80.1582386 Z" id="Oval-Copy-18" stroke="#979797" stroke-width="0.5" fill="#D8D8D8"></path>
                <path d="M70.7334027,75.006686 C99.9472044,72.6745942 121.961374,55.9613109 120.271625,37.5429733 C120.639467,38.7741148 120.901429,40.0353749 121.051006,41.3233683 C123.213878,59.949085 101.059353,76.9425345 71.56749,79.2723296 C42.0756267,81.5971653 16.4143937,68.6869323 14.2515218,50.4434876 C14.2311293,50.2714939 14.2128986,50.0996264 14.1968153,49.9278959 C19.1479238,66.1687172 43.281102,77.1937249 70.7334027,75.006686 Z" id="Path" fill="#FFFFFF"></path>
                <path d="M69.1122911,21.509386 C43.1816672,23.4274729 23.4513844,37.9515838 25.0434711,53.9498956 C25.2776591,56.303167 25.960153,58.560206 27.0365277,60.6933921 C25.0633159,57.8276533 23.8338314,54.6906885 23.5023777,51.3608481 C21.910291,35.3664746 41.6405738,20.8346895 67.5711977,18.9031978 C89.687557,17.2558188 109.171243,25.466178 115.412417,38.0300486 C107.907611,26.9641727 89.6444641,19.9906223 69.1122911,21.509386 Z" id="Path" fill="#000000"></path>
                <path d="M90.7722199,51.665329 L55.9196814,60.1935945 C53.963063,60.6698925 52.1671423,59.4709694 51.9083801,57.5160159 C51.8480902,57.0605322 51.8763525,56.5878513 51.9916167,56.1238819 L58.6079929,29.4439872 C59.102702,27.4453938 61.0526294,26.0527142 62.9632775,26.334103 C63.4084466,26.3997098 63.8271856,26.5546875 64.1965216,26.7905478 L92.4326838,44.9275904 C94.0178595,45.9519626 94.349715,48.2031069 93.173904,49.9542899 C92.5976616,50.8121967 91.7311209,51.4295085 90.7722199,51.665329 Z" id="Path" fill="#FFFFFF"></path>
                <path d="M89.1683686,53.2612754 L55.9747607,61.3061857 C54.1112745,61.7556375 52.4023072,60.6282806 52.1576754,58.7884182 C52.1006777,58.3597487 52.1280134,57.9148447 52.2381828,57.4780937 L58.5621107,32.3662468 C59.0349533,30.4853438 60.8928777,29.174404 62.7119008,29.4388404 C63.1357219,29.5004915 63.5342968,29.6462442 63.8857589,29.8681146 L90.7554389,46.9222721 C92.2639003,47.8850703 92.5778811,50.002448 91.4567345,51.6503653 C90.9072822,52.4577018 90.0816272,53.0388915 89.1683686,53.2612754 Z" id="Path" fill="#000000"></path>
            </g>
            <g id="Curator" transform="translate(52.352846, 0.000000)" fill-rule="nonzero">
                <path d="M175.887594,153.637172 C174.311096,159.059481 170.537432,162.362726 166.03138,164.855742 C165.311405,165.279554 165.311405,165.516391 165.658979,166.239365 C169.296096,173.718412 169.544363,181.259784 165.547259,188.676505 C163.481734,192.254327 160.400024,195.131866 156.696528,196.940851 C151.569807,199.720564 145.958965,200.680375 140.236402,201.241303 C129.4616,202.250975 119.021958,200.393678 108.706449,197.50178 C96.5795923,193.991682 85.050032,188.663049 74.5076221,181.696062 C67.3101547,177.101503 61.0636638,171.154891 56.1110116,164.182628 C53.8393654,160.966638 51.4684122,157.837903 50.0905284,154.135775 C47.8685357,148.165003 47.0989069,142.057115 49.3705531,135.899367 C51.3194518,130.639104 55.1675957,127.173812 59.9839823,124.680797 C60.8189401,124.190065 61.69048,123.764983 62.5907894,123.409359 C63.422485,123.135127 63.6335123,122.74871 63.3355914,121.901085 C62.2932778,118.794224 61.8714488,115.511431 62.0942547,112.240649 C62.3365637,107.591878 64.6073539,103.286767 68.3009384,100.473616 C70.2416194,98.8108567 72.4551203,97.4991557 74.842783,96.5969771 C75.3376435,96.4084555 75.7209736,96.0051987 75.8855059,95.5000502 C80.6398256,85.0917105 85.4437988,74.7083009 90.4960393,64.4370769 C90.9429205,63.5271263 91.2904948,62.5673153 91.737376,61.6822948 C93.12096,59.572149 93.4380858,56.9322704 92.5938984,54.5522704 C90.7169819,49.4237462 91.804887,43.6740781 95.4241462,39.5941773 C96.5254342,38.3288151 97.8201948,37.2474572 99.2598767,36.3906524 C99.5384398,36.2750197 99.75534,36.0465229 99.85702,35.7615825 C99.9587001,35.476642 99.9356828,35.1618167 99.7936515,34.8948431 C97.7989735,28.8234422 98.2033709,22.2145705 100.923268,16.4340632 C102.627403,12.6690846 105.34992,9.46014733 108.780929,7.17251059 C117.892341,1.0521575 128.108542,-0.443651804 138.808865,0.104811609 C154.176614,0.890111496 168.216133,5.72656159 181.486022,13.3053288 C189.993123,18.1379514 197.562336,24.4719049 203.830084,32.0029451 C209.246126,38.1773611 212.66603,45.8585557 213.636644,54.0287372 C214.62409,61.6952813 211.647185,69.337752 205.741742,74.2969533 C204.584645,75.3838767 203.290961,76.3141807 201.893598,77.0642005 C201.136383,77.4506179 200.950182,77.8370353 201.248103,78.7220558 C202.267506,81.7513084 202.426547,85.0058028 201.707398,88.1207243 C200.565368,93.2438712 197.201345,96.4847914 192.744947,98.7534355 C191.269931,99.5304 189.701139,100.112768 188.07752,100.486081 C187.593211,100.532773 187.180714,100.859271 187.022384,101.321241 C185.201757,106.465163 183.34389,111.59662 181.448782,116.715612 C181.126285,117.302478 181.323702,118.04037 181.895663,118.385933 C184.850045,121.15318 187.717533,124.032613 190.671914,126.79986 C193.626296,129.567107 196.506197,132.047658 199.361271,134.702719 C199.9447,135.251183 200.478474,135.051741 201.061903,134.889695 C203.348339,134.195876 205.769389,134.076031 208.112695,134.540673 C213.239416,135.699925 215.94553,139.215077 217.137213,144.138783 C217.32528,144.687145 217.401276,145.267964 217.360654,145.846499 C216.988253,147.803516 218.142696,148.850582 219.421273,150.0223 C226.05504,155.893811 233.0313,161.363206 240.31297,166.401411 C244.446622,169.39303 248.518206,172.484369 252.564964,175.613104 C259.019915,180.599135 281.115709,196.990712 286.167949,203.185855 C287.572685,204.942237 288.787731,206.843431 289.792653,208.857466 C291.141983,211.438903 291.371028,214.464964 290.425735,217.221533 C288.381051,224.036005 283.354163,229.542728 276.77103,232.179626 C274.155235,233.335505 271.163659,233.267024 268.603035,231.99265 C264.072156,229.786331 235.757265,209.218953 231.201559,204.569479 C224.907981,198.162429 218.45303,191.90496 212.1098,185.535306 C207.864428,181.284714 203.420442,177.320819 198.864737,173.381855 C198.385608,172.879393 197.672035,172.67876 197.002732,172.858322 C192.099451,173.805668 187.804426,172.63395 184.514884,168.719916 C182.487452,166.216831 181.544003,163.002028 181.895663,159.79492 C182.031098,158.835898 181.568179,157.891367 180.728807,157.414091 C179.115069,156.217443 177.600638,154.95847 175.887594,153.637172 Z" id="Path" fill="#000000"></path>
                <path d="M68.9713674,132.056923 C79.6829998,131.504659 90.4078965,132.84683 100.658819,136.022459 C113.784157,139.818122 126.255891,145.610214 137.642015,153.198107 C141.833421,156.063194 145.798401,159.250125 149.501501,162.730404 C152.541173,165.615287 155.374295,168.712879 157.979665,172 C158.053949,170.322492 157.924536,168.64213 157.594294,166.99617 C157.121904,164.91958 157.258648,162.755423 155.791752,160.878987 C153.151116,157.40086 150.241412,154.13821 147.089823,151.121517 C143.945991,148.194034 140.583832,145.513306 137.03288,143.102879 C127.328759,136.643638 116.701983,131.712318 105.519467,128.479185 C96.7879201,125.778088 87.6540968,124.634995 78.5310575,125.101599 C74.1396659,125.236461 69.8023827,126.116145 65.7019286,127.703591 C62.272239,128.969706 59.2595619,131.169811 57,134.058456 C60.8952804,132.906317 64.9151332,132.234224 68.9713674,132.056923 L68.9713674,132.056923 Z" id="Path" fill="#C4C3C6"></path>
                <path d="M133.898251,7.00278953 C141.218468,6.9902405 148.510862,7.90481043 155.601733,9.72471482 C165.041689,12.2214687 174.017847,16.2252124 182.184773,21.5818688 C188.972305,25.8275021 195.002817,31.1794386 200.026823,37.4162652 C201.27508,38.9949103 202.415807,40.6558464 203.441272,42.3878182 C204.310404,43.8668553 203.937919,45.6068988 203.813757,47.1977958 C203.639964,50.3313562 202.868705,53.4026715 201.541596,56.2460223 C200.460882,58.3970758 198.92245,60.2849627 197.034523,61.7768751 C196.587541,62.1497416 196.388882,62.0503105 196.090894,61.5158685 C194.69663,58.8980379 192.982451,56.4640013 190.987844,54.26983 C187.738604,50.7381334 184.126194,47.55946 180.2106,44.7865926 C171.443131,38.4936225 161.755626,33.5966997 151.491977,30.2696577 C145.229949,28.1816017 138.774246,26.7284153 132.222067,25.9319777 C126.857306,25.2211624 121.407885,25.4991777 116.143114,26.752284 C112.225076,27.576591 108.88658,30.1241135 107.054471,33.6876004 C106.594417,34.5639776 106.335659,35.5321289 106.297084,36.5213857 C106.297084,36.9439677 106.297084,37.5281252 105.825269,37.6026985 C105.353454,37.6772717 105.341038,37.0806854 105.241709,36.7451056 C102.932299,29.3623493 103.67727,22.5388928 108.892066,16.4735981 C111.97214,13.0327091 115.949245,10.5191895 120.377032,9.21513063 C124.721441,7.69679404 129.296996,6.948142 133.898251,7.00278953 Z" id="Path" fill="#FFFFFF"></path>
                <path d="M200.623765,46.3978894 C195.486714,39.9612084 189.307714,34.4368457 182.345098,30.0557654 C173.996752,24.5247431 164.807595,20.3925315 155.137339,17.8208874 C147.866679,15.9356439 140.385955,14.9890806 132.876446,15.0041356 C128.151013,14.9364182 123.450361,15.7007861 118.988122,17.2625005 C114.454921,18.6006614 110.382506,21.1786168 107.22695,24.7076595 C106.46914,25.5977031 105.778774,26.543397 105.161634,27.5368199 C104.756389,30.9606662 105.115468,34.4320876 106.212843,37.699462 C106.31178,38.0344941 106.31178,38.6425155 106.794099,38.5556553 C107.276419,38.4687951 107.251684,37.8979996 107.264051,37.4761072 C107.302474,36.4884649 107.56021,35.5218937 108.018448,34.6469468 C109.843325,31.0892756 113.168641,28.5459107 117.071212,27.7229489 C122.315198,26.4718877 127.743106,26.1943262 133.086688,26.9039814 C139.623946,27.721691 146.062583,29.1974788 152.305259,31.3090338 C162.528389,34.630646 172.17765,39.5195769 180.910507,45.8022767 C184.811257,48.5745156 188.409429,51.7521808 191.645204,55.2824458 C193.631937,57.4730362 195.339349,59.9031004 196.728108,62.5166587 C197.02492,63.0502284 197.222795,63.1494972 197.668013,62.7772392 C199.548486,61.2877617 201.080845,59.4029559 202.157293,57.255413 C203.046757,55.3882424 203.667198,53.4037003 204,51.3613288 C202.987505,49.6323037 201.859514,47.9740329 200.623765,46.3978894 Z" id="Path" fill="#C4C3C6"></path>
                <path d="M175.697281,59.2673747 C168.824485,54.236525 161.372985,50.0141693 153.495801,46.6870169 C147.04265,43.9074349 140.325173,41.7597214 133.441249,40.2751711 C128.153702,39.0542983 122.74046,38.4337742 117.308257,38.4258342 C116.857099,38.4271562 116.419103,38.2768633 116.067257,38 C115.583267,38.0851668 115.099278,38.1460003 114.615288,38.194667 L114.689748,38.3650007 C114.573239,38.4086643 114.452722,38.4412584 114.329858,38.4623342 C110.764131,38.6361876 107.251332,39.3800433 103.930282,40.6645052 C100.914654,41.9906744 98.147225,43.6331776 96.8193556,46.8573506 C95.6503952,49.86603 95.7350856,53.2047087 97.0551455,56.152702 C97.8481109,53.9240842 99.5201904,52.1006945 101.696483,51.0913588 C105.692297,48.9541688 110.163015,47.8134849 114.714568,47.7698523 C121.090489,47.7803065 127.439998,48.573251 133.614989,50.1301903 C138.902128,51.4549152 144.059836,53.2340852 149.028203,55.4470339 C152.348588,56.8391582 155.573646,58.4403931 158.683178,60.2407099 C162.633495,62.4840386 166.404542,65.0179243 169.963863,67.820558 C174.540503,71.2507023 178.428533,75.4832892 181.430698,80.3035823 C181.553273,80.5864017 181.786779,80.8089634 182.078596,80.9211128 C182.370412,81.0332622 182.695986,81.025563 182.981948,80.8997501 C184.949101,80.2452126 186.604262,78.9080988 187.635695,77.1402428 C189.745395,74.0742369 189.311045,72.3830669 187.002786,69.7550618 C183.632665,65.8682163 179.841938,62.351703 175.697281,59.2673747 L175.697281,59.2673747 Z" id="Path" fill="#C4C3C6"></path>
                <path d="M94.6987441,112.731761 C89.1922773,112.483262 83.7092556,113.595427 78.7315359,115.970517 C75.4529168,117.54123 72.8438516,120.238566 71.3773962,123.573465 C71.0861238,124.275874 70.4031281,124.734316 69.6448108,124.736416 C68.9093968,124.84896 68.9592554,124.073659 68.7847504,123.673504 C67.014771,119.659448 66.2918217,115.482828 67.8748314,111.281199 C69.3819165,107.403327 72.4716702,104.358228 76.3632536,102.915455 C83.0816964,100.089359 90.0743614,99.6892041 97.3163192,100.176893 C102.742257,100.596044 108.119587,101.504225 113.383245,102.890445 C117.80173,104.092259 122.132948,105.596362 126.346474,107.392191 C129.96122,108.855258 133.600896,110.668461 137.15332,112.606713 C141.91191,115.135422 146.448614,118.063673 150.714852,121.360107 C153.82661,123.786645 156.743965,126.454181 159.440102,129.338201 C162.222292,132.207994 164.603941,135.442845 166.52002,138.95443 C166.985216,139.868378 167.117484,140.916669 166.893959,141.918079 C166.233333,145.94464 164.887151,149.646075 161.459374,152.209569 C161.142895,152.424656 160.814093,152.620903 160.474668,152.797297 C159.8639,153.147433 159.465031,153.084909 159.290526,152.284598 C158.044062,146.482349 154.765861,141.81804 150.864428,137.541382 C144.354321,130.495912 136.488781,124.846785 127.742514,120.934942 C121.877746,118.082686 115.710045,115.905492 109.357165,114.444926 C104.555246,113.29718 99.6350582,112.722146 94.6987441,112.731761 Z" id="Path" fill="#C4C3C6"></path>
                <path d="M68.8307877,114.764778 C70.3230512,110.983895 73.4011066,108.01137 77.2838419,106.601533 C84.0163629,103.831642 91.0605747,103.441173 98.2543981,103.917057 C103.68089,104.332021 109.058968,105.21813 114.325175,106.564926 C118.741499,107.739948 123.069732,109.211769 127.279044,110.969906 C131.019334,112.434165 134.597544,114.166872 138.163287,115.984994 C142.916362,118.457026 147.449632,121.314175 151.715602,124.526506 C154.825002,126.902347 157.742751,129.509121 160.442944,132.323687 C163.218326,135.125708 165.599824,138.277197 167.524559,141.694946 L167.674171,142 C167.748976,141.621733 167.83625,141.231264 167.898588,140.779784 C168.114884,139.80229 167.982896,138.781788 167.524559,137.887872 C165.599824,134.470123 163.218326,131.318634 160.442944,128.516613 C157.742751,125.702047 154.825002,123.095273 151.715602,120.719432 C147.45287,117.502607 142.919203,114.645208 138.163287,112.17792 C134.597544,110.347596 131.006866,108.627091 127.279044,107.15063 C123.068451,105.409086 118.740242,103.953581 114.325175,102.794459 C109.06914,101.463911 103.704218,100.586075 98.291801,100.170994 C91.0979776,99.6951099 84.0537658,100.097781 77.3212448,102.855469 C73.4385095,104.265306 70.3604541,107.237832 68.8681906,111.018715 C68.0686363,113.125697 67.8158844,115.393956 68.1326003,117.620084 C68.259415,116.646454 68.4935067,115.689113 68.8307877,114.764778 Z" id="Path" fill="#FFFFFF"></path>
                <path d="M148.647227,110 C145.995346,107.932133 143.355856,105.976379 140.592447,104.195023 C138.6593,102.94932 136.651801,101.853102 134.644303,100.731969 C134.037096,100.395629 133.764473,100.121574 134.24776,99.3492383 C135.724897,96.7427637 137.048972,94.0515934 138.213189,91.2895391 C140.41896,86.5184962 142.884962,81.8844806 145.165084,77.1508087 C146.701688,73.9742658 148.151548,70.7478947 149.539449,67.5090666 C150.49363,65.266801 151.398244,63.0245354 152.178938,60.7199846 C152.451561,59.9227346 152.82332,59.8230783 153.517271,60.2466174 C157.112801,62.3624943 160.52442,64.779418 163.715861,67.4716955 C164.521339,68.1817463 165.760536,68.7173986 165.971199,69.689047 C166.181863,70.6606955 165.178113,71.6074299 164.868314,72.6289064 C163.99271,75.0006803 162.853707,77.2655749 161.472914,79.3806173 C160.407205,81.2242579 159.713255,83.2921251 158.821033,85.247879 C155.376066,92.8715821 152.897672,100.89391 149.390745,108.492699 C149.16769,108.978523 148.91985,109.439434 148.647227,110 Z" id="Path" fill="#FFFFFF"></path>
                <path d="M146.239961,59.5728299 C140.914564,57.4371473 135.387895,55.8139617 129.73873,54.7264089 C123.836557,53.6480803 118.356856,54.0721421 112.429833,54.1327224 C108.632041,54.428559 105.183346,56.4069238 103.073336,59.5001335 C100.662765,63.6922876 98.3143213,67.9086738 95.9410267,72.112944 C93.5677321,76.3172141 91.0701813,80.7759214 88.585056,85.1498163 C87.056704,87.8880441 85.5656289,90.638388 84,93.4977763 C85.8638439,93.194875 87.5413034,92.8677416 89.2436142,92.6738847 C90.9505611,92.6011157 92.6494265,92.402655 94.3256953,92.0801982 C102.257385,91.5263312 110.229546,92.0606092 118.008939,93.667401 C121.579022,94.5866371 125.096322,95.690764 128.54587,96.9750833 C129.614473,97.3385649 130.944015,93.6189368 131.540445,92.7465811 C133.347845,90.1635227 134.392364,87.145756 134.559873,84.0230234 C134.78203,80.3818355 136.711648,77.0433255 139.791061,74.9723323 C141.598641,73.7602813 142.535322,71.6464068 142.201633,69.5322248 C141.973661,67.8786796 142.419783,66.2038998 143.444195,64.8675447 C144.450671,63.4741987 145.544126,62.1172008 146.699709,60.8086672 C147.221586,60.1180522 147.060052,59.8636151 146.239961,59.5728299 Z" id="Path" fill="#C4C3C6"></path>
                <path d="M213.707399,152 C216.372121,154.185619 218.886717,156.270169 221.451355,158.316819 C222.614825,159.251708 223.828337,160.123429 225.054359,160.982516 C225.614116,161.3814 225.956701,162.021892 225.980131,162.713324 C226.218187,166.955797 224.304811,171.02964 220.900896,173.527718 C219.925083,174.273102 219.011822,175.081655 217.960945,175.751238 C217.23534,176.206049 216.709902,176.041811 216.096891,175.220625 C214.53958,172.692863 212.587787,170.436009 210.317073,168.537431 C206.013485,165.126349 205.425495,165.050547 206.413819,164.153559 C209.145216,161.531916 211.279575,158.341956 212.669034,154.804667 C213.094388,153.94558 213.344597,153.048592 213.707399,152 Z" id="Path" fill="#C4C3C6"></path>
                <path d="M202.042636,139.392303 C204.49628,138.664935 207.154133,138.95752 209.373732,140.199336 C211.5293,141.475408 212.87521,143.707731 212.956693,146.142029 C213.282682,150.978168 211.759793,155.7621 208.674927,159.592571 C207.829592,160.822735 206.849926,161.962326 205.752653,162.99189 C204.462654,164.10164 202.58928,164.316623 201.06431,163.529912 C198.886879,162.337406 197.404747,160.242947 197.049359,157.856229 C196.879618,157.12326 197.155133,156.360939 197.76087,155.887558 C200.955384,153.092269 202.990792,149.278771 203.491067,145.15158 C203.671378,143.13135 203.162912,141.109579 202.042636,139.392303 Z" id="Path" fill="#FFFFFF"></path>
                <path d="M195.968302,143.915844 C195.438985,146.921002 194.383546,149.797489 192.855328,152.399924 C192.330396,153.231697 191.842086,153.167714 191.414815,152.399924 C188.973267,148.445805 185.542893,145.515407 182.735113,141.970776 C182.242099,141.35118 181.698863,140.777463 181.111484,140.256045 C178.669936,138.093436 178.462405,136.724211 179.89071,133.729829 C180.26915,132.962039 180.53772,132.744499 181.306808,133.345934 C185.526988,136.863503 190.113799,139.86852 194.979475,142.303485 C195.316112,142.37696 195.610472,142.58913 195.796416,142.892326 C195.982359,143.195521 196.044293,143.564315 195.968302,143.915844 Z" id="Path" fill="#C4C3C6"></path>
                <path d="M196.932819,138.080877 C196.856168,138.686959 197.303296,139.525157 196.575117,139.899122 C195.846937,140.273087 195.361484,139.512261 194.824931,139.164087 C190.676733,136.525467 186.742443,133.558826 183.059086,130.292083 C181.781578,129.183082 181.615502,125.391848 182.803584,124.282847 C183.518989,123.612289 184.081092,124.282847 184.464344,124.759976 C186.187179,126.514708 188.008502,128.16804 189.919302,129.711792 C191.746138,131.362397 193.470773,133.154852 195.412585,134.637817 C196.600509,135.335729 197.212841,136.722552 196.932819,138.080877 L196.932819,138.080877 Z" id="Path" fill="#FFFFFF"></path>
                <polygon id="Path" fill="#8B613B" points="278.475 228.445 278.555 228.555 278.445 228.475"></polygon>
                <polygon id="Path" fill="#8B613B" points="115.55 194.47 115.45 194.55 115.53 194.45"></polygon>
                <path d="M80.2050885,257.997008 L77.2152287,257.997008 C67.7908165,257.935147 58.3794029,257.280221 49.0357997,256.036043 C39.8481336,254.917332 30.7848178,252.930893 21.9651104,250.102865 C17.0518018,248.510508 12.3170169,246.404 7.83802271,243.817719 C6.75092844,243.188411 5.7063431,242.487129 4.71112763,241.718481 C1.34037711,239.239773 -0.429766803,235.109034 0.0893026326,230.93317 C0.375830867,228.419112 0.849225341,226.244451 1.33507756,224.069791 C1.48457056,223.340714 1.6465213,222.611637 1.78355654,221.88256 C2.16974677,219.921594 2.5808525,217.973199 3.02933147,216.012234 C3.60238794,213.25934 4.17544441,210.506446 4.68621213,207.740982 C5.81986732,201.744952 9.66931186,197.232218 15.7860668,194.693019 C22.9866459,191.713859 30.4239222,190.494541 37.4127196,189.501488 C43.6415943,188.621568 50.2068282,188.005623 58.067668,187.565663 C65.1935006,187.175984 72.5186572,187 82.5596031,187 C91.3672319,187 98.8543393,187.301687 105.519235,187.754218 C110.676743,188.106186 116.195526,188.659279 122.37457,189.426066 C127.190553,189.987686 131.967033,190.852532 136.676066,192.015546 C140.705161,192.891789 144.56994,194.41093 148.124738,196.515711 C151.874368,198.802719 154.622113,202.442557 155.811169,206.697647 C157.791951,213.887854 159.835022,220.952358 161.404699,226.307303 C163.074037,232.014215 161.192917,237.469722 156.259648,241.27852 C152.731177,243.951725 148.879854,246.160897 144.798519,247.852783 C139.831742,249.917304 134.701879,251.557207 129.463029,252.755197 C124.342894,254.012226 118.898858,255.005279 112.794561,255.860059 C101.994082,257.338346 91.104341,258.052406 80.2050885,257.997008 L80.2050885,257.997008 Z" id="Path" fill="#000000"></path>
                <path d="M83.1851317,193 C89.7331234,193 98.4803456,193.198479 107.215143,193.843534 C113.092183,194.265301 118.944373,194.922761 124.784138,195.70427 C129.507471,196.283984 134.185909,197.183342 138.787148,198.396135 C142.009912,199.132293 145.090505,200.389352 147.907121,202.117607 C149.781169,203.371597 151.112321,205.285351 151.634631,207.476527 C153.597786,215.105546 155.647916,222.709754 157.735321,230.301558 C158.456706,232.466457 157.668521,234.847359 155.797017,236.156674 C152.762301,238.602068 149.420703,240.641311 145.856991,242.222674 C141.131105,244.350125 136.22446,246.052215 131.195454,247.308686 C125.624911,248.720778 119.984622,249.842868 114.297411,250.670416 C102.14371,252.410772 89.8700907,253.178186 77.5938675,252.965324 C67.8859677,252.895959 58.1935599,252.179012 48.5814186,250.819275 C39.33412,249.618412 30.2307342,247.49482 21.4078745,244.480367 C16.8308396,242.90114 12.4429399,240.820991 8.32431617,238.277913 C7.54362064,237.793897 6.79263491,237.263673 6.07538545,236.690085 C5.25664885,236.037826 4.86093512,234.990645 5.04410782,233.961006 C5.40443374,230.71092 6.14993564,227.522858 6.74633716,224.322392 C7.76518975,218.839423 8.88344259,213.368859 9.85259506,207.873484 C10.3175192,204.712299 12.4698647,202.05475 15.4687094,200.939141 C22.0415511,198.036393 29.0244189,196.820712 36.0445617,195.75389 C43.0647046,194.687067 50.2587979,194.054417 57.3410659,193.63265 C65.1688359,193.173669 73.096006,193 83.1851317,193 Z M110.669302,215.775411 C111.178728,216.073128 111.688154,215.700981 112.222431,215.663767 C114.955938,215.502503 117.67702,215.155165 120.385676,214.832638 C123.094333,214.51011 125.815415,214.137963 128.524072,213.716196 C132.053102,213.160435 135.546405,212.39829 138.985949,211.433693 C141.726327,210.784557 144.321781,209.631955 146.639768,208.034748 C147.012942,207.846461 147.266236,207.48341 147.313783,207.068674 C147.36133,206.653937 147.196752,206.243136 146.875844,205.975534 C146.58054,205.664966 146.26059,205.378722 145.919116,205.119595 C144.341137,203.76746 142.303432,203.345693 140.427252,202.638613 C136.276181,201.332201 132.030966,200.34519 127.72887,199.686245 C124.299561,199.003975 120.783277,198.743472 117.291844,198.445755 C112.694582,197.999178 108.09732,197.552601 103.487633,197.205264 C98.6667211,196.895141 93.8333838,196.671853 89.0124715,196.609828 C82.924206,196.547607 76.8235155,196.473374 70.722825,196.709067 C67.6165671,196.833117 64.5103092,196.907546 61.4040513,197.006785 C59.6024217,197.006785 57.8007921,197.192859 55.9991625,197.304503 C53.5141562,197.440957 51.1409752,197.738675 48.705669,197.949558 C44.8290591,198.272086 40.9400242,198.594613 37.1006894,199.190049 C31.8893889,199.890751 26.7359913,200.968683 21.6812252,202.415325 C19.4848521,202.942319 17.3873692,203.817647 15.4687094,205.007951 C13.6546547,206.248442 13.7292049,207.612981 15.6675099,208.729423 C15.8663104,208.853472 16.0651109,208.952711 16.2763364,209.064356 C18.7802229,210.338296 21.4294937,211.304651 24.1662315,211.942294 C29.2713582,213.199056 34.4503072,214.135391 39.672671,214.745803 C43.0025794,215.179975 46.3449129,215.564527 49.6996715,215.84984 C53.8413487,216.197178 57.9581758,216.461816 62.0501529,216.643754 C66.78409,216.842233 71.505602,216.978687 76.239539,217.040711 C80.4143497,217.102736 84.5767353,217.040711 88.7515459,216.929067 C92.2926799,216.842233 95.8338139,216.755398 99.3749479,216.618944 C103.102457,216.408061 106.867242,216.246797 110.669302,215.775411 L110.669302,215.775411 Z M94.7528362,232.559251 C95.9953393,232.559251 97.2378425,232.435202 98.3685204,232.360772 C101.599029,232.174699 104.829537,232.013435 108.060045,231.765337 C112.545481,231.417999 117.006068,230.971423 121.466654,230.375987 C127.395892,229.639891 133.278318,228.567197 139.085349,227.163116 C143.079269,226.22478 146.96442,224.873624 150.677903,223.131521 C151.087154,223.017204 151.419858,222.719335 151.578107,222.32557 C151.736355,221.931805 151.70214,221.486953 151.485531,221.121926 C151.274305,220.5513 151.13763,220.390036 150.553653,220.724969 C147.809905,222.223151 144.887604,223.369339 141.856131,224.136319 C134.702345,226.015496 127.423563,227.383498 120.075051,228.229938 C114.989071,228.899803 109.89895,229.404269 104.804687,229.743337 C100.679576,230.02865 96.5544657,230.189914 92.3796551,230.375987 C88.8633712,230.524846 85.3595122,230.549656 81.8432283,230.586871 C72.9717557,230.6613 64.1127082,230.301558 55.2536606,229.755742 C52.5822788,229.582073 49.910897,229.445619 47.2519403,229.135496 C42.0707021,228.527656 36.9018889,227.895006 31.7579258,227.051472 C24.9671418,226.088509 18.3013125,224.391475 11.8778752,221.99027 C11.5175493,221.853816 11.0702482,221.556098 10.8590226,222.089509 C10.6477971,222.62292 10.5732469,223.032282 11.2814737,223.33 C12.8993596,224.088163 14.558647,224.754944 16.2514863,225.32719 C23.4844601,227.651955 30.9302537,229.25588 38.4798679,230.115484 C43.7853564,230.834969 49.0908449,231.467619 54.4211835,231.852171 C59.7515221,232.236723 65.3179362,232.534441 70.7725251,232.63368 C78.8363706,232.819754 86.825666,232.869374 94.7528362,232.559251 Z M150.727604,218.50449 L150.727604,218.231582 C149.998668,215.502503 149.26145,212.773423 148.515948,210.044343 C148.515948,209.907889 148.515948,209.647386 148.180472,209.672196 C147.434581,209.988982 146.923695,210.689716 146.850994,211.495718 C147.513662,213.90227 148.163905,216.308822 148.801724,218.715374 C148.888699,219.025497 148.801724,219.571312 149.336,219.422454 C149.870276,219.273595 150.528803,219.174355 150.727604,218.50449 Z M154.455113,231.97622 L154.219038,231.070662 C153.659911,229.061067 153.125635,227.063877 152.541658,225.066687 C152.467108,224.793779 152.541658,224.136319 152.007382,224.372012 C151.473106,224.607705 150.479103,224.607705 150.764879,225.525668 C151.38613,228.118294 152.119207,230.68611 152.802584,233.253926 C152.802584,233.464809 152.889559,233.799742 153.225035,233.601263 C153.815452,233.233723 154.238939,232.650702 154.405413,231.97622 L154.455113,231.97622 Z M14.5119819,211.297239 L14.5119819,211.297239 C14.5239532,211.19836 14.5239532,211.098401 14.5119819,210.999521 C14.5119819,210.354466 13.8783053,210.143583 13.4434292,210.044343 C13.0085531,209.945104 13.1452284,210.503325 13.0955283,210.801043 C12.8718777,212.041533 12.6482272,213.393668 12.3997265,214.696184 C12.1512259,215.998699 11.8406001,217.660957 11.5175493,219.149546 C11.3560239,219.91865 11.8530252,220.154343 12.3997265,220.315607 C12.9464279,220.476871 12.958853,219.94346 13.0955283,219.558908 C13.2604972,218.887349 13.3644603,218.202304 13.4061541,217.512098 C13.8286052,215.452883 14.151656,213.368859 14.5119819,211.297239 Z" id="Shape" fill="#000000"></path>
                <path d="M51.9529902,230.297345 L51.9529902,233.070102 C51.9529902,235.766545 50.7035962,238.475706 51.0659205,241.184868 C51.3157993,243.130885 53.0399631,244.453668 55.5512451,245.331284 C62.0231062,247.595278 73.7174344,246.972044 78.9648893,246.75582 C90.7216872,246.259776 109.125261,246.170743 119.120414,242.444056 C122.306368,241.261182 123.080993,233.795089 122.993535,229 C99.7048303,232.167048 74.829395,234.380166 51.9529902,230.297345 Z" id="Path" fill="#C4C3C6"></path>
                <path d="M35.2241893,211.945609 L35.2241893,213.939054 C35.2241893,215.894163 33.6423782,217.849273 34.0749047,219.804383 C34.39621,221.210017 36.6206319,222.155625 39.8831173,222.79455 C48.2370571,224.430197 63.3631257,223.98295 70.1352544,223.81683 C85.3354704,223.459032 109.124426,223.395139 122.038431,220.711656 C126.153611,219.855496 127.154601,214.47575 126.981591,211 C96.9518957,213.274572 64.796642,214.884662 35.2241893,211.945609 Z" id="Path" fill="#C4C3C6"></path>
                <path d="M110.417061,216.725192 C106.619648,217.20971 102.859465,217.375466 99.0992814,217.541222 C95.5624753,217.681477 92.0256691,217.770731 88.488863,217.859984 C84.3191547,217.974738 80.1618563,218.038491 75.992148,217.974738 C71.2639967,217.974738 66.5482551,217.770731 61.8201038,217.566723 C57.6834884,217.371216 53.5716928,217.099206 49.4847168,216.750693 C46.1340584,216.457432 42.7958098,216.062167 39.469971,215.6159 C34.2675609,215.003705 29.107434,214.05833 24.0197127,212.785294 C21.2800081,212.148116 18.6256111,211.171955 16.1146407,209.878185 C15.9036733,209.763431 15.7051158,209.661427 15.5065582,209.533922 C13.5706223,208.386379 13.4961632,206.983827 15.3080007,205.708779 C17.228814,204.464963 19.3324533,203.547883 21.5377434,202.992927 C26.579156,201.520108 31.7179052,200.424944 36.9135427,199.716054 C40.7481852,199.116782 44.632467,198.785269 48.504339,198.441006 C50.9863082,198.224248 53.3565888,197.918237 55.7889186,197.777981 C57.5883463,197.663227 59.387774,197.522972 61.1872016,197.47197 C64.2896632,197.369966 67.3921247,197.293463 70.4945862,197.165959 C76.5878206,196.923699 82.681055,197 88.7618796,197.063955 C93.5768999,197.063955 98.40433,197.357216 103.21935,197.675978 C107.823403,197.969239 112.415046,198.428256 117.006689,198.951025 C120.493856,199.308039 124.005842,199.575799 127.43096,200.226073 C131.727798,200.903375 135.967824,201.917881 140.113823,203.260687 C141.987709,203.949213 144.022924,204.382729 145.598975,205.810783 C145.940031,206.077129 146.25959,206.371346 146.554533,206.690566 C146.875049,206.965622 147.039425,207.387868 146.991936,207.814158 C146.944448,208.240448 146.691463,208.613612 146.318746,208.807145 C144.003592,210.448846 141.411309,211.633557 138.674281,212.300776 C135.238941,213.292244 131.749907,214.075621 128.22519,214.646864 C125.519844,215.08038 122.810361,215.462894 120.096741,215.794407 C117.391395,216.125919 114.673638,216.482933 111.943472,216.648689 C111.434668,216.610437 110.888635,217.031203 110.417061,216.725192 Z" id="Path" fill="#C4C3C6"></path>
                <path d="M102.926059,204.322373 C100.326744,204.631165 97.7521854,204.721229 95.190004,204.811294 C92.6278227,204.901358 90.3503282,204.927091 87.9243014,204.96569 C85.0774332,204.96569 82.2305651,205.042888 79.3836969,204.96569 C76.1531204,204.888492 72.922544,204.785561 69.6919675,204.618299 C66.8698547,204.47248 64.0559937,204.270908 61.2503845,204.013581 C58.9605123,203.794853 56.6830178,203.511794 54.4055233,203.190136 C50.8466552,202.746789 47.3167369,202.08082 43.834978,201.195854 C41.9667886,200.760442 40.1551382,200.095286 38.4383062,199.214439 C38.3021517,199.137241 38.1536194,199.072909 38.0174648,198.982845 C36.70543,198.210865 36.6559192,197.310222 37.9060657,196.409578 C39.2476813,195.594841 40.7060457,195.008447 42.2258786,194.672623 C45.6806796,193.712457 49.1964526,193.007341 52.7469131,192.562545 C55.3833606,192.189421 58.0321857,191.98356 60.6933886,191.777698 C62.3519987,191.649035 64.0106089,191.468906 65.6444636,191.378842 C66.8822324,191.31451 68.1200012,191.224446 69.3577699,191.198713 C71.4867322,191.198713 73.6156945,191.121515 75.7322791,191.057184 C79.9035598,190.92852 84.0624628,191.057184 88.2337436,191.057184 C91.5262085,191.057184 94.8186734,191.301644 98.1358937,191.533238 C101.453114,191.764832 104.423759,192.08649 107.555314,192.421015 C109.944208,192.678342 112.345479,192.871337 114.684862,193.360257 C117.618168,193.8337 120.514078,194.530354 123.349243,195.444603 C124.674893,195.781446 125.932274,196.360892 127.06255,197.155826 C127.29793,197.332161 127.517496,197.53025 127.718567,197.747677 C127.925034,197.933968 128.028163,198.215268 127.993334,198.497144 C127.958505,198.77902 127.790335,199.0241 127.54528,199.150107 C125.941721,200.233581 124.164192,201.009267 122.29714,201.440315 C119.936444,202.080857 117.544028,202.587679 115.130459,202.958542 C113.286183,203.241601 111.417153,203.473195 109.572877,203.679056 C107.728602,203.884918 105.859571,204.116512 103.99054,204.206576 C103.606832,204.245175 103.272634,204.541101 102.926059,204.322373 Z" id="Path" fill="#000000"></path>
                <path d="M145.543738,204.707679 C143.961607,203.315523 141.906082,202.881273 140.024966,202.153265 C139.882292,202.094527 139.736758,202.043371 139.588945,202 C136.265312,203.159991 132.879564,204.123734 129.448356,204.886488 C126.757487,205.486776 124.054161,206.023203 121.350834,206.521314 C118.647507,207.019424 115.931723,207.530307 113.203481,207.798521 C112.667799,207.862381 112.181947,208.28386 111.646265,208.002874 C107.908947,208.705338 104.084425,209.101272 100.322192,209.484434 C96.7841978,209.842052 93.2337459,210.123038 89.6832939,210.429568 C85.4974979,210.787186 81.3241596,211.106488 77.1259059,211.285297 C72.3795122,211.48965 67.6206608,211.642915 62.8742671,211.706775 C58.7258443,211.770635 54.5649637,211.706775 50.4165409,211.61737 C47.0404971,211.527966 43.6644533,211.323613 40.2884095,211.068171 C35.0018835,210.778139 29.7384424,210.146799 24.5293858,209.177905 C21.7422013,208.711183 19.0222565,207.89177 16.4318638,206.738439 C16.2200824,206.636262 16.0083011,206.546858 15.7965197,206.431909 C14.7625285,205.895482 14.2268462,205.26965 14.1894731,204.592731 C12.50768,205.869938 12.6073418,207.147145 14.5009162,208.34772 L15.1238025,208.679794 C17.6547725,210.01083 20.3370686,211.014723 23.109205,211.668459 C28.2411603,212.964697 33.445792,213.937198 38.6938205,214.580491 C42.0449489,215.027514 45.4085349,215.43622 48.772121,215.729978 C52.9080861,216.087596 57.056509,216.355809 61.2298472,216.54739 C65.9886987,216.764516 70.7350923,216.905008 75.4939438,216.968869 C79.6797398,217.045501 83.8779935,216.968869 88.0762472,216.866692 C91.6391569,216.777288 95.1896089,216.700655 98.7525186,216.54739 C102.489836,216.394125 106.314358,216.228088 110.13888,215.74275 C110.649647,216.049279 111.160414,215.666117 111.696096,215.640573 C114.449254,215.461764 117.177496,215.104146 119.918195,214.772072 C122.658895,214.439998 125.37468,214.069608 128.090464,213.635358 C131.641327,213.058861 135.156257,212.269903 138.617242,211.272524 C141.375507,210.61322 143.98755,209.425907 146.316117,207.772977 C146.690273,207.579116 146.944233,207.20532 146.991905,206.778308 C147.039577,206.351296 146.874567,205.928335 146.552814,205.652813 C146.242995,205.309219 145.905438,204.993052 145.543738,204.707679 L145.543738,204.707679 Z" id="Path" fill="#FFFFFF"></path>
                <path d="M93.9580848,231.774992 C86.0282807,232.08006 78.0487601,232.031249 70.0692394,231.884817 C64.6128382,231.787195 59.156437,231.494331 53.712465,231.116047 C48.2684929,230.737764 43.0731041,230.115427 37.7658528,229.407671 C30.2137301,228.562079 22.7654626,226.984301 15.5300857,224.697432 C13.8366839,224.134515 12.1768452,223.478603 10.5584217,222.732799 C9.84995962,222.403326 9.9493929,221.927421 10.1358303,221.51253 C10.3222677,221.097638 10.7945758,221.280679 11.1550214,221.414908 C17.5805929,223.776971 24.248637,225.44634 31.0416773,226.393606 C36.1873495,227.211186 41.35788,227.845726 46.5408397,228.443658 C49.2006799,228.748725 51.8729493,228.882955 54.5452187,229.053792 C63.4072097,229.590711 72.2692007,229.944589 81.1436209,229.871373 C84.6610731,229.871373 88.1660962,229.810359 91.6835485,229.663927 C95.8100296,229.480887 99.9365107,229.322252 104.112708,229.04159 C109.21695,228.699914 114.308763,228.203672 119.388146,227.552862 C126.7391,226.72022 134.020301,225.374518 141.176463,223.525974 C144.208943,222.771497 147.132215,221.643994 149.876875,220.170234 C150.461046,219.840761 150.597766,219.999396 150.809062,220.56072 C151.025744,220.919796 151.05997,221.357397 150.901669,221.744743 C150.743368,222.132089 150.410554,222.425103 150.001167,222.537556 C146.28645,224.25126 142.400008,225.580391 138.404761,226.50343 C132.5958,227.884622 126.711419,228.93983 120.780212,229.663927 C116.318143,230.249656 111.856075,230.688953 107.369148,231.030628 C104.137567,231.274682 100.905985,231.433317 97.6744036,231.616357 C96.3817709,231.652966 95.2010007,231.8116 93.9580848,231.774992 Z" id="Path" fill="#FFFFFF"></path>
                <path d="M150,218.035161 C149.797468,218.720412 149.101266,218.82193 148.531646,218.974208 C147.962025,219.126486 148.075949,218.568134 147.987342,218.250888 C147.329114,215.78906 146.666667,213.327233 146,210.865405 C146.074066,210.040891 146.59454,209.324062 147.35443,209 C147.658228,209 147.658228,209.241107 147.696203,209.380695 C148.455696,212.172458 149.206751,214.964221 149.949367,217.755984 L150,218.035161 Z" id="Path" fill="#FFFFFF"></path>
                <path d="M154,230.555588 C153.805578,231.142521 153.326763,231.64354 152.669214,231.948087 C152.309902,232.118163 152.283286,231.83116 152.216747,231.650454 C151.484814,229.450093 150.69965,227.249732 150.034257,225.028112 C149.794716,224.24151 150.872653,224.23088 151.365043,224.039544 C151.857434,223.848208 151.857434,224.400956 151.937281,224.634811 C152.562751,226.346202 153.134989,228.057594 153.733843,229.779616 L154,230.555588 Z" id="Path" fill="#FFFFFF"></path>
                <path d="M13.9911469,211.236457 C13.6358534,213.24236 13.3173143,215.260275 12.9007632,217.242155 C12.8596518,217.910467 12.7571406,218.573781 12.5944757,219.224036 C12.4597092,219.596389 12.5944757,220.160925 11.9083916,219.956731 C11.2223074,219.752538 10.8792654,219.572367 11.0385349,218.82766 C11.357074,217.386292 11.626607,215.944925 11.9083916,214.515568 C12.1901761,213.086212 12.3739486,212.005186 12.5944757,210.743989 C12.5944757,210.455716 12.5944757,209.915203 12.9375177,210.011294 C13.2805598,210.107385 13.9421409,210.311579 13.9911469,210.936172 C14.002951,211.031915 14.002951,211.128703 13.9911469,211.224445 L13.9911469,211.236457 Z" id="Path" fill="#FFFFFF"></path>
                <path d="M9.99188123,225.429699 C9.63700287,227.621365 9.31883606,229.826155 8.90277177,231.991574 C8.85478582,232.720973 8.75248315,233.445088 8.59684214,234.156993 C8.46223311,234.550706 8.59684214,235.167522 7.91155978,234.957542 C7.22627742,234.747562 6.87139906,234.524458 7.04271965,233.645167 C7.34864927,232.083441 7.63010453,230.50859 7.91155978,228.93374 C8.15630348,227.621365 8.37657281,226.190876 8.59684214,224.826006 C8.59684214,224.497912 8.59684214,223.907343 8.93948332,224.012333 C9.2821245,224.117323 9.94293249,224.353551 9.99188123,225.035986 C10.0027063,225.136267 10.0027063,225.237552 9.99188123,225.337832 L9.99188123,225.429699 Z" id="Path" fill="#FFFFFF"></path>
                <path d="M282.397536,209.900337 C282.360603,209.854254 282.327757,209.805048 282.299369,209.753276 C280.969903,206.747022 278.9424,204.10037 276.384794,202.032535 C276.148947,201.850375 275.869969,201.732172 275.574915,201.689391 C275.460271,201.609935 275.336724,201.544128 275.206788,201.493309 L269.513089,196.983416 C267.058909,194.985827 264.518832,192.975983 261.966484,191.039671 C258.432465,188.368049 254.83709,185.769959 251.266258,183.135103 C247.695426,180.500247 244.075509,177.76735 240.431052,175.132494 C238.087309,173.441284 235.682213,171.823605 233.289387,170.230436 L229.951701,168 C228.896404,171.357909 222.711869,178.478148 220,180.880156 C221.701458,182.077485 223.339767,183.361906 224.908361,184.728272 C227.362541,186.836156 228.417839,187.10577 230.638872,189.434247 C231.865962,190.659761 234.185163,194.091202 235.424524,195.341226 C236.19759,196.1133 237.019741,196.836354 237.878704,197.534897 L239.940216,199.458955 C243.007941,202.363424 246.627857,204.802197 249.965542,207.473819 C252.996455,209.924848 256.211431,212.106263 259.500033,214.263169 C260.727123,215.096518 262.052381,215.905358 263.340825,216.714197 C265.026029,217.956052 266.711233,219.181566 268.396437,220.390741 C270.20026,221.677531 272.764878,224.312387 275.2436,224.692296 C275.862094,225.156941 276.730295,225.088625 277.268299,224.532979 L277.489175,224.287876 C277.714755,224.156798 277.924705,224.000566 278.114991,223.822181 C278.193446,223.762255 278.263593,223.692198 278.323597,223.613843 C278.593556,223.442271 282.986539,219.177481 283.146061,218.981399 C283.588256,218.37692 283.863342,217.666842 283.94367,216.922535 C284.185594,214.47736 283.644227,212.018593 282.397536,209.900337 L282.397536,209.900337 Z" id="Path" fill="#C4C3C6"></path>
            </g>
        </g>
        <g id="value" transform="translate(319.000000, 47.000000)">
            <g id="Group-3-Copy-6">
                <g id="Group-12-Copy">
                    <g id="Group" transform="translate(59.160000, 0.000000)" font-family="Herculanum" font-size="149.6" font-weight="normal" letter-spacing="-20.1162157">
                        <text id="300" stroke="#000000" stroke-width="8" fill="#000000">
                            <tspan x="0.68" y="119.68">375</tspan>
                        </text>
                        <text id="300" fill="#FFFFFF">
                            <tspan x="0" y="119">375</tspan>
                        </text>
                        <text id="300" fill="#C4C3C6">
                            <tspan x="2.72" y="121.04">375</tspan>
                        </text>
                    </g>
                    <g id="Group-Copy-3" transform="translate(0.000000, 31.960000)">
                        <g id="Group-Copy">
                            <text id="$" stroke="#000000" stroke-width="10" font-family="Herculanum" font-size="102" font-weight="normal" letter-spacing="-13.7156001" fill="#000000">
                                <tspan x="0.68" y="81.68">$ </tspan>
                            </text>
                            <text id="$" font-family="Herculanum" font-size="102" font-weight="normal" letter-spacing="-13.7156001" fill="#FFFFFF">
                                <tspan x="0" y="81">$</tspan>
                            </text>
                            <text id="$" font-family="Herculanum" font-size="102" font-weight="normal" letter-spacing="-13.7156001" fill="#C4C3C6">
                                <tspan x="2.04" y="82.36">$ </tspan>
                            </text>
                            <path d="M19.6883721,68.7933709 C21.3652627,68.7933709 23.642472,68.4456801 26.52,67.7502985 C22.050353,66.5708705 19.4357794,65.8412898 18.6762791,65.5615565 C17.9253013,65.2849622 17.7572568,63.92 16.7579271,63.92 C14.2425911,63.92 16.7579271,67.5184553 16.7579271,68.7933709 C16.7579271,70.0682864 17.1730362,68.7933709 19.6883721,68.7933709 Z" id="Oval" fill="#000000"></path>
                            <path d="M21.7283721,70.1929578 C23.4052627,70.1929578 25.682472,69.845267 28.56,69.1498854 C24.090353,67.9704574 21.4757794,67.2408768 20.7162791,66.9611434 C19.9653013,66.6845491 19.7972568,65.3195869 18.7979271,65.3195869 C16.2825911,65.3195869 18.7979271,68.9180422 18.7979271,70.1929578 C18.7979271,71.4678734 19.2130362,70.1929578 21.7283721,70.1929578 Z" id="Oval-Copy-2" fill="#000000"></path>
                            <path d="M44.8483721,67.4333709 C46.5252627,67.4333709 48.802472,67.0856801 51.68,66.3902985 C47.210353,65.2108705 44.5957794,64.4812898 43.8362791,64.2015565 C43.0853013,63.9249622 42.9172568,62.56 41.9179271,62.56 C39.4025911,62.56 41.9179271,66.1584553 41.9179271,67.4333709 C41.9179271,68.7082864 42.3330362,67.4333709 44.8483721,67.4333709 Z" id="Oval-Copy" fill="#000000" transform="translate(46.240000, 65.280000) rotate(-180.000000) translate(-46.240000, -65.280000) "></path>
                            <path d="M46.2083721,65.3933709 C47.8852627,65.3933709 50.162472,65.0456801 53.04,64.3502985 C48.570353,63.1708705 45.9557794,62.4412898 45.1962791,62.1615565 C44.4453013,61.8849622 44.2772568,60.52 43.2779271,60.52 C40.7625911,60.52 43.2779271,64.1184553 43.2779271,65.3933709 C43.2779271,66.6682864 43.6930362,65.3933709 46.2083721,65.3933709 Z" id="Oval-Copy-3" fill="#000000" transform="translate(47.600000, 63.240000) rotate(-180.000000) translate(-47.600000, -63.240000) "></path>
                        </g>
                    </g>
                </g>
                <g id="Group-2" transform="translate(117.680000, 85.640000) scale(-1, 1) translate(-117.680000, -85.640000) translate(98.680000, 66.640000)" fill="#000000">
                    <path d="M18.8987568,15.8757444 C27.7486569,15.8757444 35.8898281,17.0136555 42.3385907,18.9205977 C35.8898281,20.8277479 27.7486569,21.9656589 18.8987568,21.9656589 C10.0488567,21.9656589 1.90768557,20.8277479 -4.54107711,18.9208056 C1.90768557,17.0136555 10.0488567,15.8757444 18.8987568,15.8757444 Z" id="Combined-Shape" transform="translate(18.898757, 18.920702) rotate(-315.000000) translate(-18.898757, -18.920702) "></path>
                    <path d="M20.4461638,11.2442857 C26.6175226,11.2442857 32.32289,12.031104 36.9524389,13.3642455 C32.32289,14.6979704 26.6175226,15.4847887 20.4461638,15.4847887 C14.2748582,15.4847887 8.56953603,14.697984 3.94000848,13.3648634 C8.56953603,12.0310905 14.2748582,11.2442857 20.4461638,11.2442857 Z" id="Combined-Shape-Copy" transform="translate(20.446164, 13.364537) rotate(-315.000000) translate(-20.446164, -13.364537) "></path>
                </g>
            </g>
        </g>
    </g>
</svg>