<?xml version="1.0" encoding="UTF-8"?>
<svg width="1310px" height="800px" viewBox="0 0 1310 800" version="1.1" xmlns="http://www.w3.org/2000/svg" xmlns:xlink="http://www.w3.org/1999/xlink">
    <!-- Generator: Sketch 59.1 (86144) - https://sketch.com -->
    <title>Rome Incentive structure</title>
    <desc>Created with Sketch.</desc>
    <g id="Rome-Incentive-structure" stroke="none" stroke-width="1" fill="none" fill-rule="evenodd">
        <rect fill="#0028FF" x="0" y="0" width="1310" height="800"></rect>
        <g id="Group" transform="translate(430.000000, 184.000000)">
            <g id="bounties-2" transform="translate(115.327378, 0.000000)">
                <g id="bounties">
                    <path d="M245.891309,196.806246 C243.580487,194.63701 241.412748,192.320608 239.401699,189.871581 C236.870752,186.177413 234.664284,182.224005 232.06844,178.529837 C223.055437,165.013591 212.12545,152.875578 199.620392,142.4955 C195.680622,139.396717 191.586976,136.498196 187.35503,133.810965 C193.00099,130.894517 193.390367,126.617059 188.588056,122.922891 C187.109359,121.960793 185.545279,121.136402 183.915537,120.460113 C184.452,120.054643 185.015765,119.686517 185.602836,119.358344 C187.84583,118.417564 189.488892,116.444021 190.005688,114.069916 C190.522483,111.695811 189.848142,109.219154 188.198679,107.433311 C187.614614,106.590781 188.198679,106.266732 188.52316,105.748252 C193.714407,99.6783728 199.521132,94.1617045 205.850418,89.2865221 C211.475535,84.4241936 218.919273,82.2058359 226.292688,83.1943858 C230.463948,83.7593206 234.709769,83.337522 238.687842,81.9629965 C245.667769,80.1859543 250.212755,73.4749856 249.265906,66.3437961 C248.889572,61.3263272 247.637697,56.4132079 245.566829,51.826365 C242.923294,45.4177845 237.063556,40.8991825 230.186454,39.9661422 C225.842304,39.4165306 221.432347,39.7248179 217.207234,40.8734817 C209.985354,42.7244655 202.312238,41.1200392 196.440484,36.5312143 C190.202629,31.9774114 184.912476,26.2540192 180.86542,19.6806246 C176.639123,13.162327 170.836107,7.81280634 163.992435,4.12623414 C155.221318,-0.889794649 144.212091,0.314377381 136.736075,7.10749232 C129.829313,13.9148632 123.328529,21.1211567 117.267246,28.6892091 C112.74882,34.3749204 105.969962,37.8071922 98.7069625,38.0866534 C94.857141,38.2103314 91.0658249,37.1220582 87.8693144,34.9757753 C83.1898893,31.8657488 77.1730128,31.5914841 72.2293552,34.2628657 C68.5695692,36.0154954 65.1282071,38.1906817 61.975772,40.7438617 C56.0086256,45.2184049 51.4941823,51.3498986 48.9965527,58.372171 C47.1999299,62.6853407 49.229912,67.6377151 53.5392795,69.4546742 C60.8725384,73.2136519 68.5951738,75.9356702 76.1880171,79.1761682 C82.158458,81.6389467 87.9991066,84.3609651 93.9046514,87.1477934 C101.757079,90.8419611 104.807196,99.0080161 110.777636,104.711293 C106.510222,105.359072 103.210048,108.787761 102.73052,113.071778 C102.08156,117.932525 105.650845,119.552774 109.22013,121.756312 C106.494494,123.182131 103.833754,124.348711 102.73052,127.329969 C102.131575,130.15497 102.821172,133.099678 104.612507,135.366404 C95.7700655,140.249578 87.3671498,145.887454 79.497718,152.216994 C62.8840198,165.683705 48.0356551,181.187381 35.3034764,198.361685 C24.2753398,212.994527 15.5237999,229.207086 9.34503787,246.450676 C2.02480116,265.520758 -1.01034528,285.96421 0.454272674,306.335079 C1.29505188,318.915925 5.63251793,331.013289 12.9792193,341.267648 C17.9292361,347.382466 24.1808117,352.319527 31.2799184,355.720269 C33.2268013,356.627609 35.2385803,357.405328 37.2503593,358.118238 C75.6544763,377.267758 119.76124,381.67258 161.201903,370.49694 C198.884962,378.98174 238.403663,371.19204 270.032657,349.044843 C271.340069,348.141432 272.463301,346.997697 273.342358,345.674725 C274.423981,344.657387 275.442572,343.575219 276.392474,342.434227 L277.949981,340.749168 C278.062358,340.488854 278.215721,340.248175 278.404253,340.036259 C284.933758,331.352689 289.374757,321.285 291.383473,310.612537 C293.524456,297.30031 292.637243,283.677523 288.787629,270.754411 C280.700817,242.997582 265.979469,217.619726 245.891309,196.806246 Z" id="Path" fill="#000000" fill-rule="nonzero"></path>
                    <path d="M10.9025442,292.076888 C11.0418056,270.345916 17.8354957,249.177736 30.3713731,231.414765 C40.312413,216.69647 52.2354809,203.415314 65.8046417,191.945499 C65.8046417,191.945499 65.8046417,191.621449 66.3887065,191.10297 C63.1007172,191.477221 59.8983951,192.397215 56.9138765,193.824988 C53.7904902,195.269093 50.7757739,196.936899 47.8933191,198.815355 C50.2061161,194.833196 52.8318414,191.040699 55.7457467,187.473612 C62.597107,178.662412 85.0366115,150.752947 97.3441445,149.062909 C100.80169,148.588128 81.3304053,178.505906 88.6913317,181.467889 C93.8051593,183.525656 121.620153,149.663133 123.302583,149.062909 C127.196349,147.83152 135.048776,158.957229 134.594504,162.197727 C133.924128,166.35365 133.641699,170.56277 133.750855,174.77086 C133.750855,179.761227 140.175568,182.353625 141.408594,178.594647 C142.845136,175.31604 144.492612,172.133703 146.340697,169.067583 C149.006018,163.844972 152.538857,159.111555 156.788969,155.068632 C159.400096,151.949528 163.497337,150.486399 167.496825,151.244844 C170.792457,152.024108 173.804433,153.707678 176.192902,156.105591 C183.393065,163.523148 189.235592,172.143696 193.455263,181.575906 C193.946459,182.733509 194.650883,183.788742 195.531938,184.686784 C195.756446,183.422048 195.756446,182.127732 195.531938,180.862996 C194.861552,174.890825 195.436032,168.844724 197.219237,163.105067 C198.127782,159.475709 199.425704,159.086849 202.15134,161.744058 C205.685067,164.95895 208.981709,168.424494 212.015547,172.113651 C212.693283,173.214376 213.657839,174.110446 214.806079,174.70605 L214.806079,175.289339 C214.721844,175.102681 214.612693,174.92827 214.481598,174.77086 C214.435368,173.947058 214.190464,173.146616 213.767741,172.437701 C210.837531,166.52103 207.245323,160.955063 203.059885,155.846351 C203.189678,155.327872 202.15134,155.003822 202.994989,154.161292 C211.760425,162.588365 219.67274,171.857799 226.617168,181.835145 C228.533234,184.262452 230.24785,186.8418 231.74396,189.547531 L231.289687,189.936391 C227.186015,187.963926 223.348378,185.481483 219.867974,182.548055 L218.180676,181.381476 L217.791299,181.057426 C217.466819,181.057426 217.791299,181.511096 217.791299,181.770336 C219.869442,184.956204 222.456297,187.780452 225.449039,190.13082 C236.454037,199.958121 246.178178,211.128219 254.392698,223.37833 C266.178749,240.648341 275.138251,259.681155 280.935201,279.762996 C284.130707,290.287436 284.466665,301.471159 281.908642,312.167976 C279.403874,322.356831 272.933933,331.127476 263.932424,336.536521 C263.883573,335.827197 203.848603,349.314101 204.422703,348.89362 C208.789369,344.433095 178.245796,331.967671 114.64977,334.851462 C98.4049202,335.588092 130.175627,346.932318 128.710591,354.29445 C127.559847,360.077196 95.2131721,361.343621 87.60973,360.775446 C82.2638475,360.37597 7.57121124,357.534948 10.9025442,292.076888 Z M111.404965,325.129968 C119.469218,325.129968 88.6913317,289.48449 85.4465268,254.919177 C82.201722,220.353865 96.7555846,192.269549 88.6913317,192.269549 C80.6270787,192.269549 68.1409011,213.872869 73.5489092,254.919177 C78.9569172,295.965486 103.340712,325.129968 111.404965,325.129968 Z" id="Shape" fill="#FEFEFE" fill-rule="nonzero"></path>
                    <path d="M126.222907,60.2516598 C131.967387,70.7520217 134.238933,82.7979207 132.712517,94.6657488 C132.742448,94.9674567 132.742448,95.2713803 132.712517,95.5730882 C132.193348,96.9340974 131.99866,98.6839663 130.376258,99.267256 C128.753855,99.8505456 127.391037,98.5543464 126.287803,97.3877671 C123.472799,94.1601288 121.114547,90.5620269 119.279025,86.6941236 C113.568169,76.32453 107.922208,65.8901264 102.73052,55.1964829 C102.562305,54.7768696 102.431994,54.3430761 102.341144,53.9002837 C103.57417,53.9002837 104.742299,55.1316729 106.040221,53.9002837 L101.23791,50.7894056 C100.627417,49.2635367 100.713799,47.5476232 101.474455,46.0905967 C102.235111,44.6335702 103.594355,43.5804055 105.196572,43.2066402 C110.749274,41.5359298 115.617693,38.1280156 119.084337,33.4851462 C122.199349,30.1150282 124.989882,26.5504804 127.975102,23.0507426 C128.883647,22.0137832 133.880647,16.2456967 134.594504,15.727217 C138.792793,12.1881993 143.852005,9.81844377 149.261022,8.85736125 C155.668766,7.88876497 162.068228,10.6565072 165.74463,15.9864569 C167.113305,17.569073 169.669084,22.4039909 170.893054,28.0843162 C172.08944,33.6366323 171.971985,40.0294641 171.779967,42.1696809 C171.575536,45.8654862 167.300238,68.8677449 165.74463,73.4728917 C163.462284,81.4990249 160.688154,89.3774851 157.43793,97.0637173 C156.383288,99.8507766 154.893912,102.453725 153.024995,104.776103 C150.558943,107.498121 148.417372,107.303691 146.535386,104.257623 C144.394199,100.371941 142.88286,96.1720597 142.057555,91.8141105 C139.453745,80.5441331 135.072677,69.7591336 129.078336,59.8628001 C126.406999,55.7796504 123.222796,52.0551568 119.603506,48.7802968 C119.279025,48.7802968 118.954545,47.8729574 118.305584,48.1970072 C122.026293,53.381804 124.665401,57.4000216 126.222907,60.2516598 Z" id="Shape" fill="#C4C3C6" fill-rule="nonzero"></path>
                    <path d="M204.4876,46.4471383 C206.602541,47.3416478 207.612183,49.7615726 206.758963,51.8911749 C206.27552,53.4931518 205.529959,55.0041924 204.552496,56.3630622 C203.579054,57.5944514 202.670509,58.8906507 201.697067,60.1868499 C202.281132,60.7701395 202.540717,60.1868499 202.994989,60.1868499 C207.991989,57.2704016 212.404923,53.7058538 217.207234,50.4005458 C217.855411,49.7366547 218.744816,49.3626655 219.673286,49.3635865 C225.402731,49.0431893 230.573765,52.7743701 232.06844,58.307361 C232.201137,58.5782513 232.43372,58.7872982 232.717401,58.8906507 C234.015323,59.4091303 234.339804,60.6405196 234.794077,61.7422889 C236.633769,65.118699 235.490564,69.3429454 232.198233,71.334163 C226.989156,69.8630016 221.427198,70.2761518 216.493377,72.5007423 C215.909312,72.5007423 215.45504,73.2136519 214.806079,73.019222 C214.637238,72.6220025 214.310748,72.3126834 213.904664,72.1652122 C213.498579,72.017741 213.049399,72.0453731 212.664508,72.2415025 L212.664508,72.2415025 C211.561274,71.2045431 211.107001,72.2415025 210.847417,73.019222 C210.587833,73.7969415 210.847417,74.5746611 210.45804,75.3523806 C208.927822,77.0922418 207.077204,78.5223672 205.006768,79.565028 C204.228015,77.7503491 204.163119,77.7503491 202.475821,79.2409782 L203.31947,79.565028 C203.699397,79.6452716 203.986255,79.9577916 204.033327,80.3427475 C202.455891,82.3603725 200.648222,84.1873923 198.646951,85.7867842 C193.390367,91.3604408 188.003991,96.8692874 182.617615,102.313324 C181.273629,104.084879 179.379293,105.361289 177.231239,105.942682 C174.765187,106.396352 174.181123,105.942682 174.765187,103.350283 C175.754335,99.8212891 177.216942,96.4421372 179.113226,93.3047396 C180.269601,90.681305 181.728833,88.2017284 183.461264,85.9164041 L184.110225,85.9164041 C185.018771,85.9164041 186.511381,86.9533635 186.770965,85.9164041 C187.03055,84.8794448 185.018771,85.3979244 184.240017,84.6850149 C186.122004,80.7316073 188.652952,77.1670595 190.729627,73.3432718 C191.119004,72.7599822 191.767965,72.2415025 191.638172,71.1397332 C189.596561,73.1193118 187.749412,75.2895445 186.122004,77.6207292 C182.552719,81.9629965 179.113226,86.4348838 175.543941,90.5827213 C174.977234,91.2889694 174.323043,91.9205141 173.597058,92.4622101 C172.364032,93.4343595 171.39059,93.3695496 171.001214,91.6196806 C171.029935,91.2529842 171.029935,90.8846077 171.001214,90.5179113 C173.244386,79.6498299 177.070665,69.1688224 182.358031,59.4091303 C186.005835,50.63573 195.039615,45.3443574 204.4876,46.4471383 Z M219.413702,57.9833112 C217.337027,57.9833112 216.363585,60.1868499 214.676287,61.1589993 C214.092222,61.1589993 213.183676,61.9367188 213.702845,62.9088682 C214.222014,63.8810176 214.935871,62.9088682 215.519936,62.9088682 C217.47778,61.7665891 219.792562,61.3967155 222.009546,61.8719088 C222.918091,61.8719088 223.76174,60.6405196 223.76174,59.4739403 C223.76174,58.307361 223.047883,57.7888813 221.879753,58.307361 C221.099318,58.7021339 220.172266,58.6777702 219.413702,58.242551 L219.413702,57.9833112 Z M195.467042,69.843534 C196.082903,71.027934 196.945961,72.0666486 197.99799,72.8896021 C198.192678,71.2045431 198.192678,71.2045431 195.467042,70.1027738 L195.467042,69.843534 Z" id="Shape" fill="#C4C3C6" fill-rule="nonzero"></path>
                    <path d="M82.4180423,43.1418303 C87.7045111,44.5290565 92.3127772,47.773572 95.3972616,52.2800347 C103.856532,64.4239326 109.995008,78.024912 113.503272,92.3974002 C113.503272,92.3974002 113.503272,92.9806898 113.503272,93.3047396 L107.013663,86.8237436 C107.532832,86.8237436 107.403039,86.2404539 107.013663,85.9164041 C102.101021,79.7079214 96.2040686,74.3442195 89.5566129,70.0379638 C87.7509401,68.9513743 74.876082,65.9847748 70.3041044,60.4892963 C69.7201562,59.7873956 70.6275095,57.995326 70.3041044,57.2487983 C69.324829,54.988302 67.8463303,48.704608 69.2225028,46.4471383 C71.3258874,42.9967514 77.0864791,43.9529462 77.8753156,43.8547398 L82.4180423,43.1418303 Z M98.9016508,68.093665 C99.5630844,67.9714816 100.214006,67.7981329 100.848534,67.5751853 C101.497495,67.5751853 101.886871,66.7326559 101.432599,66.0845563 C100.978326,65.4364566 100.524053,65.5660766 100.134677,66.0845563 C99.7453001,66.6030359 98.5771703,67.0567057 97.9931055,65.6956965 C97.4090406,64.3346873 96.1760148,64.1402574 94.9429889,63.8162076 C93.7099631,63.4921578 93.7099631,63.8162076 93.7748592,64.7235471 C95.2215583,66.2016413 96.9701654,67.3510955 98.9016508,68.093665 L98.9016508,68.093665 Z M89.7513012,64.2698774 C89.2970285,64.2698774 88.7778598,64.5939272 89.1023403,64.917977 C89.4268207,65.2420268 90.1406778,67.2511355 91.4385997,67.5103754 C92.7365217,67.7696152 92.0875607,66.8622758 92.0875607,66.3437961 C92.0875607,65.8253164 90.8545349,64.5939272 89.7513012,64.2698774 L89.7513012,64.2698774 Z M88.9725481,59.8628001 C90.27047,61.1589993 91.8279763,61.0293793 93.1258982,61.4830491 C92.0875607,60.3164698 90.8545349,59.4091303 88.9725481,59.8628001 L88.9725481,59.8628001 Z" id="Shape" fill="#C4C3C6" fill-rule="nonzero"></path>
                    <path d="M204.4876,46.4471383 C195.039615,45.3443574 186.005835,50.63573 182.358031,59.4091303 C177.200924,69.1259912 173.48467,79.5395223 171.325694,90.3234814 C171.354415,90.6901778 171.354415,91.0585544 171.325694,91.4252508 C170.608627,87.9621457 170.608627,84.3891422 171.325694,80.9260372 C172.181406,71.4575151 173.8974,62.0863036 176.452486,52.9281343 C177.235804,50.2310634 178.39355,47.6568623 179.891979,45.280559 C181.623579,41.6460627 185.896878,39.9959133 189.626393,41.5215813 C193.714848,42.7529705 197.803302,44.0491697 201.82686,45.4101789 C202.808634,45.4308364 203.751324,45.7982272 204.4876,46.4471383 L204.4876,46.4471383 Z" id="Path" fill="#FEFEFE" fill-rule="nonzero"></path>
                    <path d="M82.4180423,43.1418303 L77.8753156,43.8547398 C75.0181062,44.1670975 72.4605282,45.766446 70.9314333,48.1970072 C70.5420567,48.7802968 70.3473684,49.1691566 70.9314333,49.7524462 C72.8134201,51.3078853 71.3208099,51.761555 70.0228879,52.1504148 L70.0228879,52.1504148 C70.0228879,50.4653558 68.724966,49.3635865 68.4653816,47.7433375 L67.2972519,48.9747267 C66.024772,50.4678068 65.4975085,52.4559137 65.8631217,54.382278 C66.2287348,56.3086423 67.4479179,57.9661627 69.1792387,58.8906507 C69.5686153,58.8906507 70.0228879,59.5387503 70.4122645,58.8906507 C70.5745467,58.5639946 70.5745467,58.1803473 70.4122645,57.8536913 C69.7633036,56.622302 70.4122645,55.6501526 70.9314333,54.4835733 C71.8399786,55.9742024 73.8517576,57.0759718 72.6187318,59.3443204 C71.385706,61.612669 73.0730045,60.8349495 73.7219654,61.2238092 C78.9136531,64.1402574 84.1702369,66.8622758 89.2321325,69.9083439 C95.8795882,74.2145996 101.776541,79.5783015 106.689182,85.7867842 C106.689182,86.110834 107.078559,86.4348838 106.689182,86.6941236 C97.0890986,78.3759806 86.1081133,71.7961344 74.2411342,67.2511355 C69.9579918,65.4364566 65.7397456,63.5569678 61.2619149,61.612669 C59.6248635,60.9430775 58.4026214,59.5380464 57.9675484,57.8256228 C57.5324754,56.1131993 57.9360966,54.2961832 59.0554477,52.9281343 C62.1421523,47.9117289 67.1685091,44.3932578 72.9432123,43.2066402 C76.0438799,42.3755362 79.306266,42.3532207 82.4180423,43.1418303 Z" id="Path" fill="#FEFEFE" fill-rule="nonzero"></path>
                    <path d="M232.198233,71.398973 C235.490564,69.4077553 236.633769,65.1835089 234.794077,61.8070989 C234.339804,60.7053295 234.015323,59.4739403 232.717401,58.9554606 C232.43372,58.8521081 232.201137,58.6430613 232.06844,58.372171 C230.573765,52.8391801 225.402731,49.1079992 219.673286,49.4283964 C223.308931,47.391777 227.702831,47.2230052 231.484376,48.9747267 C238.832959,53.0585096 242.849346,61.2876446 241.543271,69.5842941 C241.177838,71.9584462 239.871507,74.0860099 237.918424,75.4879257 C235.96534,76.8898415 233.529686,77.4482587 231.159895,77.0374396 C227.822346,76.6179123 224.464425,76.3799246 221.101,76.32453 C224.65327,74.370868 228.365777,72.7230548 232.198233,71.398973 L232.198233,71.398973 Z" id="Path" fill="#FEFEFE" fill-rule="nonzero"></path>
                    <path d="M155.750631,116.701135 C158.09873,119.066402 160.638298,121.234092 163.343474,123.182131 C158.696771,125.107868 153.333984,123.60828 150.364255,119.552774 C152.11645,116.117846 152.246242,116.053036 155.10167,116.701135 L155.750631,116.701135 Z" id="Path" fill="#C4C3C6" fill-rule="nonzero"></path>
                    <path d="M165.549942,116.701135 L172.039551,121.108213 C169.373419,122.352981 166.3118,122.44696 163.574151,121.368066 C160.836503,120.289172 158.664201,118.132531 157.567722,115.404936 C157.567722,115.404936 157.567722,115.404936 157.567722,115.080886 C159.168295,114.484432 160.959279,114.701965 162.370033,115.664176 C163.30078,116.322684 164.409421,116.684208 165.549942,116.701135 Z" id="Path" fill="#C4C3C6" fill-rule="nonzero"></path>
                    <path d="M137.514828,119.876823 C139.630151,122.358244 142.075638,124.538817 144.783191,126.357819 C145.107671,126.357819 145.691736,126.811489 145.561944,127.329969 C145.432152,127.848448 144.783191,127.913258 144.328918,128.042878 C140.71836,128.959378 136.891751,127.899211 134.270023,125.25605 C133.685958,121.885932 133.685958,121.950742 136.800971,120.524923 C137.060555,120.330493 137.255244,120.071253 137.514828,119.876823 Z" id="Path" fill="#C4C3C6" fill-rule="nonzero"></path>
                    <path d="M146.535386,118.515814 C148.802941,120.619129 151.209523,122.567822 153.738852,124.348711 C154.322917,124.73757 154.906982,125.32086 153.738852,125.77453 C149.738004,126.867323 145.465078,125.554322 142.771412,122.404412 C142.771412,119.423154 143.874646,118.580624 146.535386,118.515814 Z" id="Path" fill="#C4C3C6" fill-rule="nonzero"></path>
                    <path d="M123.302583,127.200349 L129.143232,129.727937 C127.077053,132.636704 123.045909,133.331805 120.122674,131.283376 C119.084337,130.440847 118.110895,129.468697 117.072558,128.561358 C116.03422,127.654019 117.072558,126.811489 118.630064,126.746679 C120.197415,126.769272 121.760226,126.92101 123.302583,127.200349 Z" id="Path" fill="#C4C3C6" fill-rule="nonzero"></path>
                    <path d="M129.143232,123.182131 C131.437864,124.66779 133.60817,126.336707 135.632841,128.172498 C135.632841,128.172498 136.541387,128.690978 136.281802,129.209458 C136.022218,129.727937 135.567945,129.663127 135.113673,129.792747 C134.250756,130.084136 133.315849,130.084136 132.452933,129.792747 C130.474576,129.32711 128.557828,128.631035 126.742076,127.718829 C125.768635,124.024661 126.093115,123.441371 129.143232,123.246941 L129.143232,123.246941 L129.143232,123.182131 Z" id="Path" fill="#C4C3C6" fill-rule="nonzero"></path>
                    <path d="M110.323364,107.627741 C110.952429,107.56272 111.54363,107.93844 111.751078,108.53508 C113.460947,111.314924 114.442904,114.479762 114.606506,117.738095 C114.606506,119.293534 114.606506,119.423154 112.529831,118.775054 L111.815974,118.256574 L111.815974,118.256574 C111.738432,117.812171 111.560918,117.391136 111.296805,117.025185 C109.593462,114.19169 109.236895,110.749454 110.323364,107.627741 Z" id="Path" fill="#C4C3C6" fill-rule="nonzero"></path>
                    <path d="M184.175121,116.182656 C180.546488,116.824656 176.920483,115.040301 175.21946,111.775578 C174.830084,109.896089 176.517382,108.85913 179.37281,109.24799 C178.009992,111.581148 179.762187,112.229248 181.319693,112.812538 C182.877199,113.395827 184.240017,114.108737 184.175121,116.182656 Z" id="Path" fill="#C4C3C6" fill-rule="nonzero"></path>
                    <path d="M116.423597,129.922367 C117.397038,130.894517 119.343921,131.737046 118.889648,133.033245 C118.435376,134.329445 116.423597,134.070205 114.995883,134.199825 C113.136273,134.574852 111.203709,134.276161 109.544611,133.357295 C109.544611,129.727937 109.869091,129.468697 113.438376,129.792747 C114.411818,129.922367 115.385259,130.700087 116.423597,129.922367 Z" id="Path" fill="#C4C3C6" fill-rule="nonzero"></path>
                    <path d="M165.74463,113.136587 C166.201069,111.858589 167.301487,110.917868 168.63627,110.664596 C169.971052,110.411324 171.340266,110.883437 172.23424,111.905198 C174.240272,114.157505 176.530805,116.139998 179.04833,117.802905 C179.891979,118.451004 179.827083,118.515814 179.04833,118.969484 C175.98149,117.848573 173.078662,116.322796 170.417149,114.432787 C169.278123,113.07699 167.420666,112.561714 165.74463,113.136587 Z" id="Path" fill="#FEFEFE" fill-rule="nonzero"></path>
                    <path d="M115.579948,110.349759 C115.579948,108.47027 116.293805,107.951791 117.916207,108.59989 C120.259279,109.421951 122.129797,111.219047 123.042999,113.525447 C123.384913,114.341316 123.385153,115.259999 123.043665,116.076046 C122.702177,116.892092 122.047451,117.537422 121.225908,117.867715 C120.442795,118.309856 119.508801,118.400051 118.655369,118.115951 C117.801936,117.831851 117.10893,117.200042 116.748077,116.377085 C118.045999,115.793796 120.057778,116.377085 120.382259,114.303167 C120.440504,112.847505 119.692405,111.47781 118.435376,110.738619 C117.586448,110.197832 116.542867,110.055714 115.579948,110.349759 Z" id="Path" fill="#C4C3C6" fill-rule="nonzero"></path>
                    <path d="M168.275578,132.061096 C165.852707,132.400855 163.385649,131.921786 161.266799,130.700087 C159.709293,129.857557 159.709293,128.690978 161.266799,127.848448 C162.742711,126.948836 164.491416,126.604155 166.198903,126.876299 C167.23724,128.626168 168.72985,129.922367 168.275578,132.061096 Z" id="Path" fill="#C4C3C6" fill-rule="nonzero"></path>
                    <path d="M165.74463,113.136587 C167.322917,112.703469 169.010378,113.20652 170.092668,114.432787 C172.754181,116.322796 175.65701,117.848573 178.723849,118.969484 C173.533693,120.757936 167.846421,118.202061 165.74463,113.136587 L165.74463,113.136587 Z" id="Path" fill="#C4C3C6" fill-rule="nonzero"></path>
                    <path d="M183.006992,131.412996 C180.741571,129.903851 179.533245,127.239005 179.891979,124.543141 C180.605836,123.052511 181.773966,122.404412 183.331472,123.765421 C183.331472,124.80238 183.915537,125.5801 184.240017,126.552249 C185.069602,128.256127 184.548829,130.309082 183.006992,131.412996 Z" id="Path" fill="#C4C3C6" fill-rule="nonzero"></path>
                    <path d="M116.423597,129.922367 C115.385259,130.959327 114.411818,129.922367 113.438376,129.922367 C109.869091,129.598317 109.544611,129.922367 109.544611,133.486915 C107.531083,132.598901 106.605797,130.25988 107.467936,128.237308 C108.709274,126.697164 110.899028,126.309622 112.594727,127.329969 C113.991207,128.002261 115.281259,128.875712 116.423597,129.922367 L116.423597,129.922367 Z" id="Path" fill="#FEFEFE" fill-rule="nonzero"></path>
                    <path d="M175.933317,131.866666 C174.501698,131.619111 173.209598,130.858705 172.299136,129.727937 C171.325694,128.626168 170.092668,127.265159 171.39059,125.77453 C171.956262,125.154617 172.757237,124.801335 173.597058,124.801335 C174.436878,124.801335 175.237853,125.154617 175.803525,125.77453 C176.576355,127.724106 176.622415,129.886026 175.933317,131.866666 Z" id="Path" fill="#C4C3C6" fill-rule="nonzero"></path>
                    <path d="M110.323364,107.627741 C109.113494,110.835395 109.448556,114.420578 111.231909,117.349235 C111.496022,117.715186 111.673536,118.136221 111.751078,118.580624 C109.612421,118.189939 107.843612,116.69204 107.108135,114.648792 C106.372658,112.605543 106.781686,110.325802 108.181793,108.6647 C108.830754,108.016601 109.414818,107.433311 110.323364,107.627741 Z" id="Path" fill="#FEFEFE" fill-rule="nonzero"></path>
                    <path d="M145.232729,256.375251 C155.156441,231.160498 165.0476,219.31902 174.906204,220.850817 C180.41762,221.707162 188.868456,230.037677 189.735684,226.846242 C191.195351,221.474606 180.963715,202.712492 170.499218,201.144366 C153.817479,198.644574 144.104397,215.573352 144.100354,233.365026 C144.097677,245.226142 144.475135,252.896217 145.232729,256.375251 Z" id="Oval" fill="#C4C3C6" transform="translate(166.987821, 228.636601) rotate(-9.000000) translate(-166.987821, -228.636601) "></path>
                    <path d="M165.805202,235.767021 C158.466863,247.955035 153.178795,262.998913 150.106667,280.42735 C150.147536,281.131788 150.147536,281.80787 150.106667,282.449428 C149.086312,275.308634 149.086312,268.751098 150.106667,263.180212 C151.324307,246.73935 153.766093,231.418811 157.401869,217.4078 C158.516496,213.315341 160.163918,209.858261 162.296118,207.13732 C164.760109,202.362462 170.840829,204.01181 176.147767,210.894471 C181.965459,217.629962 187.783152,224.4844 193.5085,231.386744 C194.905521,232.499378 196.246928,234.205589 197.294617,236.202517 C183.850546,223.836125 170.995869,223.658346 165.805202,235.767021 Z" id="Path" fill="#000000" fill-rule="nonzero"></path>
                    <path d="M115.579948,110.349759 C116.542867,110.055714 117.586448,110.197832 118.435376,110.738619 C119.692405,111.47781 120.440504,112.847505 120.382259,114.303167 C120.057778,116.182656 118.045999,115.793796 116.748077,116.377085 C115.684338,114.558858 115.272345,112.433056 115.579948,110.349759 L115.579948,110.349759 Z" id="Path" fill="#FEFEFE" fill-rule="nonzero"></path>
                    <path d="M183.006992,131.412996 C184.548829,130.309082 185.069602,128.256127 184.240017,126.552249 C183.915537,125.5801 183.266576,124.80238 183.331472,123.765421 C184.881349,124.848258 186.278326,126.134386 187.484822,127.589209 C187.986316,128.143259 188.191905,128.903588 188.037839,129.634428 C187.883774,130.365268 187.388676,130.978279 186.706069,131.283376 C185.602836,131.996286 184.304914,133.227675 183.006992,131.412996 Z" id="Path" fill="#FEFEFE" fill-rule="nonzero"></path>
                    <path d="M123.302583,127.200349 C121.760226,126.92101 120.197415,126.769272 118.630064,126.746679 C117.267246,126.746679 116.877869,127.394779 117.072558,128.561358 C115.718009,127.809786 114.509169,126.822048 113.503272,125.64491 C116.812973,123.052511 118.500272,123.376561 123.302583,127.200349 Z" id="Path" fill="#FEFEFE" fill-rule="nonzero"></path>
                    <path d="M184.175121,116.182656 C184.175121,114.108737 182.747407,113.460637 181.125005,112.812538 C179.502602,112.164438 177.815304,111.581148 179.178122,109.24799 C181.985969,109.043872 184.555059,110.826345 185.343251,113.525447 C185.667732,114.692027 185.797524,115.858606 184.175121,116.182656 Z" id="Path" fill="#FEFEFE" fill-rule="nonzero"></path>
                    <path d="M130.246465,112.488488 C131.003938,112.404508 131.754814,112.694783 132.258244,113.266207 C133.16679,114.108737 133.101894,114.886456 131.868868,115.275316 C130.186121,115.697823 128.424823,115.697823 126.742076,115.275316 C125.379258,115.275316 125.18457,113.914307 125.18457,112.812538 C125.18457,111.710768 125.18457,110.933049 126.547388,111.062669 C126.428897,112.321297 127.309162,113.455616 128.559167,113.655067 C129.792193,114.043927 130.116673,113.460637 130.246465,112.488488 Z" id="Path" fill="#C4C3C6" fill-rule="nonzero"></path>
                    <path d="M128.818751,123.052511 C125.768635,123.052511 125.444154,123.830231 126.417596,127.524399 C125.057869,126.856301 123.810035,125.98179 122.718518,124.932 C121.225908,123.700611 121.874869,122.858082 123.302583,122.404412 C125.117311,121.569007 127.247712,121.81931 128.818751,123.052511 L128.818751,123.052511 Z" id="Path" fill="#FEFEFE" fill-rule="nonzero"></path>
                    <path d="M146.535386,118.515814 C143.874646,118.515814 143.030996,119.423154 142.511828,122.404412 C142.313351,122.312635 142.136455,122.180139 141.992659,122.015552 C141.019217,120.848973 138.942542,119.876823 140.824529,117.932525 C142.604406,116.665983 145.049081,116.915674 146.535386,118.515814 L146.535386,118.515814 Z" id="Path" fill="#FEFEFE" fill-rule="nonzero"></path>
                    <path d="M137.514828,119.876823 C137.514828,119.876823 137.060555,120.330493 136.800971,120.395303 C133.685958,121.821122 133.685958,121.756312 134.270023,125.12643 L133.880647,125.12643 C132.777413,123.830231 130.765634,122.793272 131.868868,120.589733 C132.972101,118.386194 135.243465,118.839864 137.514828,119.876823 Z" id="Path" fill="#FEFEFE" fill-rule="nonzero"></path>
                    <path d="M165.549942,116.701135 C164.409421,116.684208 163.30078,116.322684 162.370033,115.664176 C160.959279,114.701965 159.168295,114.484432 157.567722,115.080886 C158.192796,113.947365 159.326244,113.18385 160.612779,113.029671 C161.899314,112.875491 163.181464,113.349519 164.057332,114.303167 C164.741947,114.970005 165.254161,115.792909 165.549942,116.701135 Z" id="Path" fill="#FEFEFE" fill-rule="nonzero"></path>
                    <path d="M155.750631,116.701135 L154.842086,116.701135 C151.986658,116.053036 151.856865,116.117846 150.104671,119.552774 C149.261022,118.451004 147.833307,117.414045 149.520606,115.988226 C151.454856,114.526808 154.197521,114.840654 155.750631,116.701135 L155.750631,116.701135 Z" id="Path" fill="#FEFEFE" fill-rule="nonzero"></path>
                    <path d="M175.933317,131.866666 C176.68027,129.882135 176.68027,127.694251 175.933317,125.70972 C177.596156,126.892072 178.717494,128.688498 179.04833,130.700087 C179.37281,132.255526 178.399369,132.579576 175.933317,131.866666 Z" id="Path" fill="#FEFEFE" fill-rule="nonzero"></path>
                    <path d="M168.275578,132.061096 C168.794747,129.922367 167.23724,128.626168 166.198903,127.070729 C167.828669,126.864388 169.347542,127.931806 169.703292,129.533507 C170.157565,130.700087 169.89798,131.931476 168.275578,132.061096 Z" id="Path" fill="#FEFEFE" fill-rule="nonzero"></path>
                    <path d="M130.246465,112.488488 C130.246465,113.460637 129.532608,114.043927 128.559167,113.849497 C127.309162,113.650046 126.428897,112.515727 126.547388,111.257099 C127.913025,110.96287 129.330727,111.43481 130.246465,112.488488 Z" id="Path" fill="#FEFEFE" fill-rule="nonzero"></path>
                    <path d="M114.671402,92.8510699 C114.659656,93.0236974 114.659656,93.1969221 114.671402,93.3695496 L114.671402,93.3695496 L114.671402,92.7862599 L114.671402,92.8510699 Z" id="Path" fill="#BFAF9F" fill-rule="nonzero"></path>
                    <path d="M129.143232,123.182131 L128.753855,123.182131 L129.143232,123.182131 Z" id="Path" fill="#FEFEFE" fill-rule="nonzero"></path>
                    <path d="M111.815974,118.515814 L112.529831,119.034294 C112.205351,119.034294 111.751078,119.099104 111.815974,118.515814 Z" id="Path" fill="#FEFEFE" fill-rule="nonzero"></path>
                    <path d="M138.48827,143.662079 C139.591503,144.115749 139.267023,145.217518 139.591503,145.930427 C139.701327,146.182182 139.656598,146.474551 139.476509,146.682069 C139.296421,146.889588 139.012993,146.975359 138.747854,146.902577 C138.033997,146.902577 137.125452,146.319287 137.190348,145.282328 C137.255244,144.245368 137.839309,144.115749 138.48827,143.662079 Z" id="Path" fill="#FEFEFE" fill-rule="nonzero"></path>
                    <path d="M158.44193,53.92545 C158.412902,66.2460937 157.321793,78.5417243 155.180521,90.6780396 C154.95848,92.4872347 154.269123,94.2089239 153.179202,95.6763918 C152.36385,96.7789695 151.474375,96.999485 150.436653,95.6763918 C148.488978,93.5209657 146.956459,91.0295781 145.915155,88.3258739 C141.912516,79.4317472 138.502861,70.1700946 134.129609,61.4964835 C132.192329,57.5554835 129.988313,53.7490186 127.532668,50.1031807 C123.616014,43.5843451 124.300628,35.3193737 129.237495,29.5217306 C131.831798,26.6550286 134.722592,24.0088421 137.539263,21.3626557 C139.353728,19.6106931 141.604655,18.3677814 144.062081,17.7609019 C148.138449,17.4646599 151.941819,19.8108183 153.475694,23.5678111 C157.271195,33.2265499 158.963646,43.5721762 158.44193,53.92545 Z" id="Path" fill="#FEFEFE" fill-rule="nonzero"></path>
                    <path d="M262.310021,255.070401 C259.983206,251.521472 256.613058,248.651011 253.094776,246.191436 C251.991542,245.413717 251.602165,245.672956 251.667062,246.969156 C251.634792,247.422253 251.634792,247.877067 251.667062,248.330165 C252.522472,255.833902 252.171942,263.425937 250.628724,270.819221 C248.599448,281.802885 244.167624,292.203849 237.649505,301.279902 C231.339855,309.684402 223.016094,316.37023 213.443261,320.722891 C212.077942,320.917996 210.758969,321.357071 209.549495,322.01909 C206.864064,323.31884 204.060903,324.360492 201.177899,325.129968 C194.452965,327.038207 187.526127,328.14764 180.54094,328.435276 C171.633844,328.985273 162.693491,328.594244 153.868644,327.268697 C140.686465,325.449165 128.122256,320.541192 117.20235,312.945695 C108.669289,307.161806 101.639362,299.430263 96.6951835,290.391829 C95.7217421,288.51234 94.6834045,286.762471 93.7099631,284.882982 C94.0374092,298.452286 98.5722659,311.585915 106.689182,322.472759 C80.2115751,308.668238 63.1439017,288.12348 60.8725384,257.662799 L60.8725384,255.200021 C60.9376983,255.033319 60.9376983,254.848242 60.8725384,254.681541 C59.3036543,234.960966 65.9209912,215.463389 79.1732375,200.759654 C79.1732375,201.796613 76.793714,219.273699 82.872315,238.025381 C83.3134172,240.052388 84.2000717,241.956165 85.4681589,243.599038 C85.4465268,231.155525 94.3510279,197.902349 105.996957,179.307557 C113.035939,168.068574 126.558779,159.055152 128.104894,158.50356 C131.99866,157.27217 135.048776,158.957229 134.594504,162.197727 C133.924128,166.35365 133.641699,170.56277 133.750855,174.77086 C133.750855,179.761227 133.750855,184.686784 133.750855,189.677151 L136.995659,189.677151 C136.995659,185.594123 139.98088,182.548055 141.213906,178.789077 C142.650447,175.51047 144.297924,172.328133 146.146009,169.262013 C148.81133,164.039402 152.344168,159.305984 156.59428,155.263062 C159.205408,152.143958 163.302648,150.680829 167.302136,151.439274 C170.597769,152.218538 173.609745,153.902108 175.998213,156.300021 C183.198377,163.717578 189.040904,172.338125 193.260575,181.770336 C193.751771,182.927939 194.456194,183.983171 195.33725,184.881214 C195.561758,183.616478 195.561758,182.322162 195.33725,181.057426 C194.702347,175.007716 195.343443,168.892273 197.219237,163.105067 C198.127782,159.475709 199.425704,159.086849 202.15134,161.744058 C205.685067,164.95895 208.981709,168.424494 212.015547,172.113651 C212.693283,173.214376 213.657839,174.110446 214.806079,174.70605 C214.759849,173.882248 214.514944,173.081807 214.092222,172.372891 C211.162011,166.45622 207.569804,160.890253 203.384366,155.781541 C203.059885,155.327872 202.021548,155.003822 202.865197,154.161292 C197.251133,148.370035 190.661203,143.609646 183.396368,140.097531 C182.812303,140.097531 182.163342,139.125382 181.579278,139.643861 C180.995213,140.162341 181.579278,140.875251 181.903758,141.45854 C185.009899,149.230875 187.674866,157.17189 189.885978,165.243796 C190.989211,169.262013 191.119004,170.104543 190.664731,171.724792 L190.145562,170.882262 C187.250219,164.115377 183.776237,157.610307 179.762187,151.439274 C176.613093,145.877759 172.159147,141.162842 166.782968,137.699562 C164.464687,136.310899 161.714528,135.826222 159.060332,136.338553 C154.773508,137.369407 151.052505,140.017103 148.676957,143.726889 C143.636878,151.171961 140.129383,159.543526 138.358477,168.354674 C137.839309,170.687832 137.32014,173.020991 136.800971,175.548579 C136.346698,173.92833 137.125452,172.632131 137.125452,171.271122 C137.132768,163.60081 137.959463,155.953165 139.591503,148.458016 C141.14901,141.00487 136.671179,136.986653 129.273024,138.736522 C125.654669,139.732651 122.276658,141.452488 119.343921,143.791699 C110.697817,150.690169 103.432236,159.155429 97.9282094,168.743533 C95.8515343,172.113651 93.9695475,175.22453 91.4385997,179.437177 C95.0118682,164.758605 102.143348,151.182265 112.205351,139.903101 C105.272219,143.106164 98.7381839,147.108387 92.7365217,151.828134 C92.7365217,151.828134 84.7532157,160.249228 76.793714,169.586063 C70.1823828,177.341436 63.4437574,186.226207 62.624733,186.890322 C62.19792,187.143358 62.053443,187.691642 62.3002525,188.121712 C62.624733,188.705001 63.2087978,188.121712 63.7279666,188.121712 L77.8753156,185.918173 C78.3530943,185.72014 78.8901471,185.72014 79.3679258,185.918173 C79.3679258,187.603232 77.6806273,188.186522 76.6422898,189.158671 C73.5921732,192.010309 70.4771606,194.797138 67.6217324,197.843206 C62.7545252,203.092812 57.8224218,208.277609 53.3445912,213.851266 C50.554059,217.351004 47.5688386,220.721122 45.1027869,224.480099 C24.8768369,255.999343 19.332056,276.06328 18.6900757,286.892091 C16.094581,330.672444 67.9749309,352.426317 101.670551,357.534948 C114.031805,359.409052 128.044656,355.192327 130.181569,354.48888 C131.99866,353.90559 131.933764,353.192681 130.700738,351.766862 C127.353802,348.091766 124.375952,344.097627 121.809973,339.841829 C122.553292,340.159533 123.251512,340.573551 123.886648,341.073218 C124.600505,341.656508 125.249466,342.304607 125.963323,342.823087 C135.87874,349.715464 146.992201,354.704389 158.735852,357.534948 C166.284513,359.482997 174.042605,360.505881 181.838862,360.581016 C206.120273,362.186958 230.337898,356.619564 251.472373,344.572956 C252.718801,344.161279 253.899126,343.5719 254.976762,342.823087 L259.584385,339.388159 L260.947203,338.22158 C261.557642,338.064759 262.116745,337.752077 262.569606,337.31424 C262.569606,336.795761 263.218567,336.860571 263.672839,336.730951 C263.623988,336.021626 263.942388,335.336752 264.516489,334.916272 C269.970681,329.460073 287.706027,293.805154 262.310021,255.070401 Z" id="Path" fill="#C4C3C6" fill-rule="nonzero"></path>
                    <polygon id="Path" fill="#BFAF9F" fill-rule="nonzero" points="92.6067295 152.346613 92.5418334 152.346613 92.6067295 152.346613"></polygon>
                    <path d="M51.9262874,375.080824 C49.2795751,373.584036 55.6660728,326.553025 66.3783687,320.290663 C82.4468127,310.897119 80.0518716,316.411064 100.500907,309.034188 C120.949942,301.657312 130.354097,300.463471 115.155593,310.031324 C105.023257,316.409892 72.7453165,335.925925 51.9262874,375.080824 Z" id="Rectangle-Copy-40" fill="#000000" transform="translate(86.993873, 339.129546) rotate(-118.000000) translate(-86.993873, -339.129546) "></path>
                    <path d="M237.369582,359.788871 C235.883351,358.292105 239.451625,311.313363 245.462614,305.063642 C254.479097,295.689061 253.136686,301.195929 264.612876,293.838457 C276.089066,286.480985 281.367547,285.293795 272.839455,294.843006 C267.15406,301.209147 249.042175,320.686419 237.369582,359.788871 Z" id="Rectangle-Copy-41" fill="#000000" transform="translate(257.041041, 323.894706) rotate(-182.000000) translate(-257.041041, -323.894706) "></path>
                </g>
            </g>
            <g id="Group-2" transform="translate(129.107656, 276.045700) rotate(14.000000) translate(-129.107656, -276.045700) translate(23.011165, 167.992603)">
                <path d="M140.252535,13.3543153 C157.65091,22.5494746 171.280612,42.1117814 174.756813,66.6949241 C178.304262,91.7819219 169.852099,110.38935 177.69169,136.0507 C185.531281,161.71205 201.505005,170.77687 211.6807,183.244347 C148.876199,184.078119 101.401511,213.317391 92.9253002,214.092522 C88.3159442,214.491537 75.3999323,215.578783 70.9198931,214.409361 C57.7003866,212.87211 47.5095982,210.639435 40.3475281,207.711337 C32.925544,204.702716 25.4458014,199.128349 17.9083001,190.988237 C-3.90280271,165.371039 -5.91713494,116.530363 13.8796356,71.3900718 C37.5751138,17.4984271 84.5003911,-12.9281718 119.642908,5.67257108 C124.093932,8.00040903 135.173386,10.6641253 140.252535,13.3543153 Z" id="Path" fill="#000000" fill-rule="nonzero"></path>
                <path d="M72.2874844,201.633761 C83.7091225,201.023932 111.833371,182.638724 129.228202,152.915219 C145.361405,125.337407 151.379258,87.0988849 148.442903,66.3082414 C144.9818,41.8360391 140.571686,26.8613551 120.530786,13.2983117 C125.287011,13.8629679 130.579148,16.5168524 134.866449,18.7867705 C165.39114,34.7665427 171.174531,90.5094087 148.967651,140.56054 C138.048431,165.236018 122.172019,184.456917 105.167958,195.70487 C90.1624038,205.64282 84.5576508,204.59256 80.6052951,203.610058 C75.882565,202.537211 73.1136831,201.859623 72.2874844,201.633761 Z" id="Path" fill="#C4C3C6"></path>
                <path d="M129.864598,131.164659 C151.56906,81.4749086 144.68035,28.1826507 114.468275,12.1012404 C84.2561999,-3.98016988 42.1647284,23.2588481 20.4491018,72.9260128 C-1.2665248,122.593177 5.63335038,175.908022 35.8454252,191.989432 C66.0575,208.070842 108.148972,180.85441 129.864598,131.164659 Z" id="Oval" fill="#D8D8D8"></path>
                <path d="M129.864598,131.164659 C151.56906,81.4749086 144.68035,28.1826507 114.468275,12.1012404 C84.2561999,-3.98016988 42.1647284,23.2588481 20.4491018,72.9260128 C-1.2665248,122.593177 5.63335038,175.908022 35.8454252,191.989432 C66.0575,208.070842 108.148972,180.85441 129.864598,131.164659 Z" id="Oval-Copy" fill="#C4C3C6"></path>
                <path d="M100.757843,20.6727224 C76.1281916,17.838148 47.4568656,42.1296603 32.8309166,80.4246479 C16.1729655,124.027404 24.0553472,169.222491 50.4378797,181.362601 C51.8824993,182.033401 53.3754477,182.592138 54.9038183,183.033984 C51.4285597,182.646179 48.0365857,181.700762 44.8554564,180.233289 C18.4729239,168.081886 10.5905423,122.898092 27.2596582,79.2953354 C43.0020919,38.1093078 75.011707,13.0724492 100.746678,20.6727224 L100.757843,20.6727224 Z" id="Path" fill="#FFFFFF"></path>
                <path d="M43.6049936,194.564264 C71.5952639,199.375136 105.949497,172.824998 125.108374,129.199656 C146.957978,79.5099048 140.850807,26.4322163 111.453766,10.6783066 C109.849956,9.80493426 108.18577,9.05008834 106.474245,8.4196816 C110.408422,9.09943807 114.210898,10.4069052 117.739575,12.2932235 C147.136616,28.1035988 153.254952,81.1135286 131.394182,130.871038 C110.750381,177.827853 72.533111,204.999112 43.5826639,194.575558 L43.6049936,194.564264 Z" id="Path" fill="#FFFFFF"></path>
                <path d="M80.6499545,173.762328 C94.5501885,163.022566 106.987828,145.202014 114.624583,122.943264 C129.741785,78.809731 120.26283,33.8856789 93.4113741,22.61514 C88.9806698,20.7524299 84.2060219,19.8743379 79.4106565,20.0403074 C88.4876768,17.7816824 97.4307189,18.5383218 105.424749,22.9200544 C131.103896,37.0025815 137.233397,83.0107736 119.034697,125.687494 C109.611567,147.75426 95.5885192,164.603603 80.6052951,173.784914 L80.6499545,173.762328 Z" id="Path" fill="#000000" fill-rule="nonzero"></path>
                <g id="Group-5" transform="translate(21.662597, 34.769952)" fill-rule="nonzero">
                    <path d="M1.18405633,98.3348234 C5.68426676,97.2227518 10.2535341,96.0751885 14.8803489,94.9512863 C15.3177095,94.8448113 15.4443139,94.6318614 15.5363898,93.9220285 C18.5173476,72.3785978 19.1043316,49.4273318 22.0852894,27.8957317 C22.0852894,27.599968 24.5713392,28.7593618 24.6173771,28.4044454 C24.8245479,28.4044454 24.8820954,28.6528869 24.9741713,28.806684 C33.1919469,42.1278828 41.6706042,55.8868118 50.4101433,70.0834712 C50.7784469,70.6749987 50.7784469,70.6749987 51.3424119,69.8231991 C65.3379513,48.9067876 80.3923636,24.5121946 89.0359903,3.63127471 C89.1741042,3.32368043 95.1130008,4.32927713 95.2971526,4.0335134 L95.423757,4.0335134 L95.2971526,4.96812681 C91.9977656,28.7790794 88.6983786,52.5939756 85.3989916,76.4128152 C85.2378587,77.5958702 95.9992315,70.27276 96.8164053,70.0716407 C102.57115,68.6519747 97.5645221,74.4252829 103.491909,72.9582948 C101.758585,78.021538 99.7449737,82.9787446 97.4609367,87.8056344 C96.8279148,89.154317 96.1488549,90.4793386 95.5158329,91.8280212 C95.377644,92.282352 95.0129803,92.6255753 94.5605453,92.727143 C86.4578646,94.5174995 78.5316628,96.2920819 70.7819398,98.0508902 C70.2640128,98.1691957 64.7854958,94.9394557 64.9005907,94.1586395 C66.9147513,79.6898774 74.2808247,68.2852277 76.2834759,53.8164657 L76.4446087,52.6334107 C76.168381,53.0119883 75.9957386,53.2604299 75.8230963,53.5207019 C66.2855659,67.6227169 56.9705523,81.4013636 47.8780556,94.8566419 C47.4752234,95.4363388 43.4123736,91.8161907 43.1591648,91.3902909 C37.40442,81.7010708 35.6779966,75.892271 30.1649511,66.6171202 C30.0713978,66.4484698 29.9868692,66.2746967 29.9117423,66.0965761 L29.7851379,66.203051 L29.670043,67.0548506 L24.0419026,107.633635 C23.9037888,108.60374 23.9037888,108.60374 23.3052953,108.733876 L3.92331485,113.087519 C3.57803016,113.170333 3.40538782,113.087519 3.29029292,112.578805 C2.2235786,107.997578 1.5382078,103.331325 1.24160378,98.6305872 C1.21549052,98.5335589 1.19625759,98.4347117 1.18405633,98.3348234 Z" id="Path" fill="#000000"></path>
                    <path d="M1.43142315,94.9935657 C5.71848081,93.9079623 7.47974873,93.0806679 11.8935742,91.9831347 C12.3199751,91.8757673 12.4352186,91.6729623 12.5274134,90.9929689 C15.4008176,70.0841664 18.2780633,49.1753638 21.1591505,28.2665613 L21.2859183,27.3479738 C21.4818322,27.3479738 21.539454,27.5984976 21.6316488,27.7416541 L45.8327807,67.7777561 C46.1785112,68.3623118 46.1785112,68.3623118 46.7201556,67.5272322 C60.1037657,47.1990088 73.932984,26.1669326 88.2078104,4.43100362 C88.3921999,4.15662032 88.5535408,3.85837761 88.726406,3.5720646 L88.8531739,3.5720646 L88.726406,4.47872245 L79.1842454,73.8738371 C79.0229046,75.066808 78.9422341,74.9117218 79.7143655,74.7089167 L96.4361952,70.4977296 C94.7810283,75.4145425 92.8572003,80.2299827 90.674021,84.9207472 C90.0747548,86.2330152 89.417867,87.5214237 88.8186008,88.8336917 C88.6822777,89.2682559 88.3374149,89.5981356 87.9081773,89.7045604 C80.1791809,91.454251 72.6153668,93.1920118 65.216735,94.917843 C64.721188,95.0252104 64.6174689,94.917843 64.721188,94.1066228 C66.6649615,80.0534262 68.5856862,66.004206 70.4833623,51.9589625 L70.6331788,50.8375699 C70.3796431,51.2073909 70.2183023,51.4579147 70.045437,51.6965089 C60.9258359,65.3520486 52.0021487,78.7133222 43.2743753,91.7803297 C42.9055962,92.3529557 42.7442553,92.3887448 42.502244,91.971205 C37.0397028,82.5705947 31.6616734,73.3767659 26.368156,64.3897188 C26.2797935,64.2286545 26.2027648,64.0612044 26.137669,63.8886711 L26.0109012,63.9841087 L25.8956577,64.8191883 L20.4676896,104.187227 C20.3409217,105.129674 20.3409217,105.129674 19.7647043,105.2609 C13.4800929,106.700418 9.92870949,107.825956 3.92068244,109.225708 C3.58647633,109.297286 3.42513545,109.225708 3.32141631,108.72466 C2.32363819,104.298709 1.6913612,99.7929197 1.43142315,95.2560193 C1.42564229,95.1686371 1.42564229,95.0809479 1.43142315,94.9935657 Z" id="Path" fill="#C4C3C6"></path>
                    <path d="M1.67745044,97.0027315 L1.67745044,96.7406135 C5.63399634,95.6563983 9.64357904,94.5364398 13.7061986,93.4403102 C14.0986709,93.3330801 14.2047446,93.1305344 14.2896034,92.4394962 C16.9343723,71.5653754 19.5826769,50.7071406 22.2345173,29.8647918 C22.2345173,29.5788449 22.3087689,29.3048125 22.3511983,28.9712079 C21.8950818,28.1729395 21.4389652,27.3508423 20.993456,26.5883174 C20.9085971,26.4453439 20.8555603,26.2308838 20.6752352,26.1951404 L20.5585542,27.1125533 C17.9137853,47.986674 15.2654807,68.8687377 12.6136403,89.7587444 C12.5287814,90.4378682 12.4227078,90.6404139 12.0302354,90.7476439 C7.9676159,91.8437736 3.95803319,92.9637321 0.0120946577,94.0479473 C0.00677377938,94.1352177 0.00677377938,94.2227948 0.0120946577,94.3100652 C0.261693037,98.8665324 0.857879079,103.390663 1.79413142,107.832969 C1.88959767,108.285718 2.03810073,108.404862 2.34571422,108.333376 L2.99276328,108.166573 C2.33019675,104.48296 1.89075134,100.753126 1.67745044,97.0027315 L1.67745044,97.0027315 Z" id="Path" fill="#FFFFFF"></path>
                    <path d="M48.4760231,66.2803814 C48.8191813,66.8469813 48.8191813,66.8469813 49.3567959,66.032494 L88.4425155,6.79919852 C88.7056034,4.83970728 88.98013,2.88021604 89.2546566,0.897116472 L89.3804812,9.09494702e-13 L89.2546566,9.09494702e-13 C89.0830775,0.283299939 88.922937,0.578404041 88.7399193,0.849899816 C74.5560468,22.3649563 60.8297185,43.1756976 47.5609346,63.2821238 C47.286408,63.6952695 47.1605834,63.9077445 47.0461973,63.9313528 L48.4760231,66.2803814 Z" id="Path" fill="#FFFFFF"></path>
                    <path d="M77.7511569,77.6095406 C77.5584757,78.7934655 77.4399026,78.6513945 78.4477737,78.4501273 L95.9965894,74.9930667 C96.5598115,73.8091418 97.108212,72.6252169 97.6121476,71.4412921 L78.1809843,75.2298516 C78.032768,76.0467598 77.8993733,76.8281502 77.7511569,77.6095406 Z" id="Path" fill="#FFFFFF"></path>
                    <path d="M72.7818938,53.5536206 L72.9171486,52.3902809 L72.3865337,53.2937256 C71.7310682,54.4323134 71.0756028,55.5585253 70.4097331,56.6847371 C68.9115264,69.2504565 67.4063835,81.8161758 65.8943044,94.3818952 C65.8006665,95.1739563 65.8943044,95.3348437 66.3416856,95.2234601 L67.8294882,94.8274296 C69.48029,81.0653679 71.1310919,67.3074316 72.7818938,53.5536206 Z" id="Path" fill="#FFFFFF"></path>
                    <path d="M26.2719447,66.0256638 C26.1705539,65.8591979 26.0945108,65.667122 26.0057938,65.4878511 L25.8790553,65.5902916 L25.8790553,65.6927321 C31.1344789,74.5026165 36.495518,83.4661617 41.9621724,92.5833676 C42.1015848,92.8138588 42.2156494,92.9034942 42.342388,92.865079 C36.8841827,83.7478731 31.5273683,74.8014013 26.2719447,66.0256638 Z" id="Path" fill="#FFFFFF"></path>
                </g>
            </g>
        </g>
    </g>
</svg>