<?xml version="1.0" encoding="UTF-8"?>
<svg width="148px" height="298px" viewBox="0 0 148 298" version="1.1" xmlns="http://www.w3.org/2000/svg" xmlns:xlink="http://www.w3.org/1999/xlink">
    <!-- Generator: Sketch 53.2 (72643) - https://sketchapp.com -->
    <title>Group 3 Copy 2</title>
    <desc>Created with Sketch.</desc>
    <g id="Blog-Illustrations" stroke="none" stroke-width="1" fill="none" fill-rule="evenodd">
        <g id="Artboard" transform="translate(-668.000000, -84.000000)">
            <g id="Group-3-Copy-2" transform="translate(667.000000, 84.000000)">
                <g id="Group-20-Copy-8">
                    <g id="Group-20-Copy-4">
                        <g id="Group-21">
                            <g id="Group-4" transform="translate(0.342998, 0.008597)">
                                <g id="Group-5" transform="translate(0.684974, 0.016493)">
                                    <path d="M73.6246354,297.134832 C33.9869456,297.134832 0.00225777397,277.560785 0.00225777397,248.794331 C0.00225777397,220.027876 33.9869456,200.453829 73.6246354,200.453829 C113.262325,200.453829 147.247013,220.027876 147.247013,248.794331 C147.247013,277.560785 113.262325,297.134832 73.6246354,297.134832 Z" id="Oval-Copy-25" fill="#000000" fill-rule="nonzero"></path>
                                    <path d="M73.6246354,283.134832 C106.553165,283.134832 133.247013,267.760066 133.247013,248.794331 C133.247013,229.828595 106.553165,214.453829 73.6246354,214.453829 C40.6961055,214.453829 14.0022578,229.828595 14.0022578,248.794331 C14.0022578,267.760066 40.6961055,283.134832 73.6246354,283.134832 Z" id="Path" fill="#FFFFFF" fill-rule="nonzero"></path>
                                    <ellipse id="Oval-Copy-26" fill="#D8D8D8" cx="73.6246354" cy="239.568524" rx="59.6223776" ry="34.3405018"></ellipse>
                                    <path d="M130.163097,234.155517 C130.163097,244.48295 122.858475,253.565865 111.26486,259.663342 C101.281471,264.913945 88.4942106,267.758488 75.1665934,267.758488 C61.8389763,267.758488 49.0517161,264.913945 39.0683273,259.663342 C27.4747116,253.565865 20.1700899,244.48295 20.1700899,234.155517 C20.1700899,234.056706 20.1707761,233.957916 20.172148,233.859148 L20.1700899,159.806226 C20.1699705,150.923536 29.878796,143.722646 41.8552805,143.722646 L108.477906,143.722646 C120.454306,143.722646 130.163097,150.923438 130.163097,159.806066 L130.163097,233.958668 C130.163097,233.986925 130.162999,234.015166 130.162802,234.043389 C130.162999,234.080763 130.163097,234.118138 130.163097,234.155517 Z" id="Path" fill="#000000" fill-rule="nonzero"></path>
                                    <path d="M113.712971,232.291878 L113.715544,232.291878 L113.715544,139.622288 L30.4498102,139.622288 L30.4523841,232.291878 C30.4506697,232.373773 30.4498102,232.455775 30.4498102,232.537883 C30.4498102,244.629849 49.0894797,254.432323 72.0826774,254.432323 C95.075875,254.432323 113.715544,244.629849 113.715544,232.537883 C113.715544,232.455775 113.714685,232.373773 113.712971,232.291878 Z" id="Path-Copy-2" fill="#D8D8D8" fill-rule="nonzero"></path>
                                    <path d="M112.687572,236.129753 C109.447618,246.512908 92.395349,254.432323 71.8458721,254.432323 C48.9834584,254.432323 30.4498102,244.629849 30.4498102,232.537883 C30.4498102,232.455775 30.4506648,232.373773 30.4523694,232.291878 L30.4498102,139.622288 L35.4677565,139.622288 L35.4701117,224.905456 C35.4684071,224.987351 35.4675525,225.069353 35.4675525,225.151461 C35.4675525,237.243427 54.0012007,247.045902 76.8636144,247.045902 C92.1617393,247.045902 105.521674,242.656878 112.687572,236.129753 L112.687572,236.129753 Z" id="Path" fill="#FFFFFF" fill-rule="nonzero"></path>
                                    <path d="M74.6526074,197.027306 C57.2302678,197.027306 40.6168661,193.249425 27.8328711,186.376328 C13.5460217,178.695248 4.75050952,167.51521 4.75050952,154.998632 C4.75050952,142.482053 13.5460217,131.302016 27.8328711,123.620935 C40.6168661,116.747838 57.2302678,112.969958 74.6526074,112.969958 C92.074947,112.969958 108.688349,116.747838 121.472344,123.620935 C135.759193,131.302016 144.554705,142.482053 144.554705,154.998632 C144.554705,167.51521 135.759193,178.695248 121.472344,186.376328 C108.688349,193.249425 92.074947,197.027306 74.6526074,197.027306 Z" id="Path" fill="#000000" fill-rule="nonzero"></path>
                                    <path d="M76.1945655,180.625872 C109.974695,180.625872 137.358901,168.463743 137.358901,153.460997 C137.358901,138.458251 109.974695,126.296123 76.1945655,126.296123 C42.4144356,126.296123 15.0302298,138.458251 15.0302298,153.460997 C15.0302298,168.463743 42.4144356,180.625872 76.1945655,180.625872 Z" id="Path" fill="#D8D8D8" fill-rule="nonzero"></path>
                                    <path d="M58.1458795,143.252829 C78.9999518,126.745814 130.842308,174.566784 118.790401,147.133555 C106.738494,119.700326 73.2983301,126.380959 50.969634,124.952115 C28.6409378,123.523271 11.2001647,130.395123 12.014577,140.300824 C12.8289893,150.206526 37.2918072,159.759845 58.1458795,143.252829 Z" id="Oval-Copy-27" fill="#000000" transform="translate(66.285942, 140.291391) rotate(-15.000000) translate(-66.285942, -140.291391) "></path>
                                    <path d="M97.267992,187.801499 C100.106658,187.801499 102.407852,190.09624 102.407852,192.926947 L102.407852,230.855263 C102.407852,233.685969 100.106658,235.980711 97.267992,235.980711 C94.4293257,235.980711 92.1281319,233.685969 92.1281319,230.855263 L92.1281319,192.926947 C92.1281319,190.09624 94.4293257,187.801499 97.267992,187.801499 Z" id="Rectangle" fill="#000000"></path>
                                    <path d="M74.6526074,187.801499 C77.4912738,187.801499 79.7924676,190.09624 79.7924676,192.926947 L79.7924676,237.0058 C79.7924676,239.836507 77.4912738,242.131248 74.6526074,242.131248 C71.8139411,242.131248 69.5127473,239.836507 69.5127473,237.0058 L69.5127473,192.926947 C69.5127473,190.09624 71.8139411,187.801499 74.6526074,187.801499 Z" id="Rectangle-Copy-8" fill="#000000"></path>
                                    <path d="M51.0092508,187.801499 C53.8479172,187.801499 56.1491109,190.09624 56.1491109,192.926947 L56.1491109,230.855263 C56.1491109,233.685969 53.8479172,235.980711 51.0092508,235.980711 C48.1705844,235.980711 45.8693906,233.685969 45.8693906,230.855263 L45.8693906,192.926947 C45.8693906,190.09624 48.1705844,187.801499 51.0092508,187.801499 Z" id="Rectangle-Copy-9" fill="#000000"></path>
                                    <path d="M57.9833604,139.052342 C74.28067,130.109194 113.366188,157.588308 104.542274,142.071995 C95.7183595,126.555682 68.1231509,124.435691 50.9806324,123.323886 C33.8381138,122.21208 22.0999552,131.202144 22.5667511,136.755341 C23.0335471,142.308539 41.6860508,147.99549 57.9833604,139.052342 Z" id="Oval-Copy-29" fill="#F9F9F9" transform="translate(64.188112, 135.075491) rotate(-15.000000) translate(-64.188112, -135.075491) "></path>
                                    <path d="M121.142234,94.9147031 C128.896227,98.4706843 133.060964,100.74086 137.040358,104.0104 C142.438068,108.445255 145.775758,113.811736 146.813525,120.582086 C148.135318,129.206791 145.198497,139.771447 145.608942,153.626105 C145.647069,154.91308 144.391341,171.682206 107.462968,171.674705 C96.5244377,171.672483 86.2337845,173.43406 74.9508173,173.041155 C39.5787356,171.809398 18.0615201,166.378653 5.39376118,149.785488 L4.8173065,149.030405 L4.73518534,148.087096 C4.65813641,147.20205 4.56735361,146.318115 4.46285629,145.435603 C4.43957945,145.238501 4.20740953,143.333486 4.12322188,142.617209 C3.95921833,141.22185 3.8169603,139.912642 3.68552167,138.551373 C2.96944483,131.135188 2.76288944,124.113484 3.31313154,117.439718 C3.78691712,111.693276 4.81188543,106.568471 6.49615005,102.181705 C9.54560132,94.2392291 18.6527737,87.4995287 26.0060824,86.4124554 C27.4797721,86.1942534 33.8472785,85.4768666 40.4531449,83.6481796 C47.6894721,81.6449637 55.1560714,78.516145 55.4426974,78.2702744 C56.6542937,75.6730849 56.4344865,74.2207112 54.4396801,71.9250199 C54.2493701,71.7077708 53.2889906,70.6283846 53.0117429,70.3110767 C48.9493528,65.6617016 44.6066203,61.9100325 45.9081437,56.9514925 C45.8260518,55.2656874 45.4359667,53.6778083 44.4116889,50.3534146 C42.8465942,45.273747 42.2873552,42.5199328 42.7004084,39.2832886 C38.4257803,32.0813533 39.4870894,19.306834 45.3988382,13.2589676 C54.4254712,-0.586067124 84.9310328,-4.86621295 95.4623789,6.59077531 C104.714201,16.2248332 108.744098,33.2697884 106.291276,46.3590693 C105.882481,48.7162716 105.028198,50.2835758 103.064809,53.0481862 C102.854385,53.3442105 102.756128,53.48264 102.653421,53.628395 C100.989054,55.9903464 100.630292,57.0169618 101.056075,58.5290581 L101.335268,59.5205633 L100.993147,60.4922431 C100.872929,60.833682 100.780662,61.156691 100.57567,61.9310948 C99.9867563,64.1558476 96.9756055,65.1510545 96.0660454,66.3702911 C95.1476668,67.6013487 93.9217097,68.4560521 92.4236569,68.9053291 C92.1959587,70.6805194 92.2786317,72.6824088 92.5934373,76.20974 C92.6257481,76.5717751 92.6397772,76.7297089 92.6573634,76.9305674 C92.739267,77.8660173 92.7992029,78.6345512 92.8405649,79.3337579 C101.86658,85.2322434 111.325332,90.4398933 121.142234,94.9147031 Z" id="Path" fill="#000000" fill-rule="nonzero"></path>
                                    <path d="M45.6488135,24.6699987 C46.1922975,23.5039951 46.8585958,22.3951333 47.6371582,21.3609707 C50.0444658,17.8313032 53.0373782,13.9074064 56.5197786,11.1177392 C57.2004629,10.4979931 58.0064133,10.0210082 58.8869345,9.71678752 C59.6796708,9.49061175 60.5198405,9.50069183 61.3132332,9.25648668 C62.4782674,8.6899914 63.5746354,8.00019 64.5821599,7.19977742 C65.6301344,6.38154062 67.1216151,6.36429289 68.1886473,7.1580714 C68.8107343,5.97392192 70.8996402,7.02071338 72.1790298,6.53613316 C73.5790119,6.47220862 74.9815254,6.58592617 76.3507191,6.87437896 C77.8431872,6.92435134 79.376738,5.33302578 80.6464347,7.39729112 C80.8374832,7.8741726 81.1193009,8.31219871 81.4773068,8.68870627 C81.9329832,8.94907981 82.4456605,9.10227974 82.9739884,9.1359496 C86.0151667,9.74321553 87.8519277,13.1622684 90.9183266,13.5898652 C91.6139035,13.5926845 92.304088,13.7072996 92.9606231,13.9290179 C95.8809505,15.2903943 97.1313955,19.9353592 97.9310318,22.5976316 C99.5885161,28.3754096 105.211391,38.6182866 99.7901555,43.8702257 C98.9770687,44.6553122 97.8700836,45.3041985 97.6074817,46.3604359 C97.3448798,47.4166733 97.5418348,48.1633736 97.1378637,48.9982612 C96.7338927,49.8331488 95.7506591,50.1612543 95.2066318,50.7387334 C94.5150434,51.8729164 94.0924692,53.1411626 93.9693911,54.4519892 C93.1734331,57.3316066 90.4147791,59.2248878 88.408542,61.4863379 C86.7911771,63.3275762 85.6283921,65.5089595 84.1376795,67.4627466 C77.0369895,76.7741619 59.0425674,73.3736934 52.7868745,64.6078903 C50.7722321,62.2460878 50.0345463,59.101163 50.7981195,56.1293682 C50.4564904,55.6808283 50.279206,55.1350385 50.2942438,54.5781315 C50.3073873,54.2268002 50.3576519,53.8776675 50.4442541,53.5361756 L50.4560706,53.2116468 C50.3950513,52.9840068 50.3091674,52.7632915 50.1998657,52.5532194 C49.5034673,51.2710786 49.9921411,49.6856176 51.3012637,48.9798261 C52.2554118,48.506351 53.4052742,48.6009312 54.2622922,49.2233812 C56.2445753,50.69776 65.6095446,49.2633845 68.1886473,49.2233812 C70.8271375,49.1734976 76.0110357,50.6259346 78.6455992,50.7387334 C82.0896232,50.8861892 83.7433086,49.0520095 87.1647544,49.4766422 C88.9556823,47.0377317 90.5071958,44.442699 91.799101,41.7253197 C92.0944347,41.2122295 92.2262454,40.6262887 92.1779585,40.0411774 C91.9548518,38.9867284 90.7386645,38.5308255 89.8854724,37.8524091 C86.7440078,35.3824955 88.4765294,30.8915636 84.6057919,28.9568237 C82.7717174,28.0289482 80.5582359,27.7743205 78.6455992,26.9521226 C76.239758,25.8245889 74.0225518,23.6202899 71.3910386,24.0737196 C69.1352684,24.4675248 65.181214,24.818565 62.9602366,24.2568133 C62.1459439,24.0490347 61.3640929,23.4632638 60.5707001,23.707469 C59.7773074,23.9516742 59.4835768,25.349845 58.8557355,26.1772368 C57.9329577,27.4099344 55.9348123,27.3971845 54.8480707,28.5160839 C53.761329,29.6349834 53.9925881,30.9785271 53.3175881,32.0751102 C52.6685432,32.9677645 51.6738106,33.5691528 50.559444,33.7426093 C49.4450774,33.9160658 48.305721,33.6468586 47.4002942,32.9961653 C45.6477424,31.5669332 44.8055288,29.3500496 45.1844473,27.163589 C45.2313393,26.3170202 45.3873327,25.4793547 45.6488135,24.6699987 Z M71.1396958,56.1165879 C66.9831054,55.5528747 61.6146249,53.554139 57.5947566,56.3527055 C57.1750595,56.6524828 56.7798174,56.9863356 56.412965,57.35094 C56.352408,57.6415288 56.2449877,57.9203646 56.0950667,58.1761238 C58.0371178,59.1922382 57.0835848,60.1874777 59.1275175,60.9749104 C65.0848267,62.9029584 69.7646076,61.4863379 76.0950667,56.3527055 C73.7838843,56.911848 73.5100592,56.1448823 71.1396958,56.1165879 Z" id="Shape" fill="#FFFFFF" fill-rule="nonzero" transform="translate(73.595067, 39.674229) rotate(-2.000000) translate(-73.595067, -39.674229) "></path>
                                    <path d="M59.5671352,86.5162712 C57.880458,90.1766535 31.5572878,100.823179 31.5332334,102.873123 C31.5136752,104.539898 52.1366436,101.111076 57.947663,101.758784 C59.2835323,101.907682 65.3095583,103.435423 54.2437761,111.569256 C43.1779938,119.703089 30.8366335,119.119078 26.8098821,123.564933 C22.7831306,128.010788 18.858843,128.842249 14.2431788,136.749141 C14.6926126,127.639288 11.5765592,115.378591 15.754549,106.114241 C17.4776047,102.293506 21.218867,96.0079403 41.5370038,92.5749116 C50.4602108,91.067213 59.5671352,86.5162712 59.5671352,86.5162712 Z" id="Path-Copy-6" fill="#FFFFFF" fill-rule="nonzero"></path>
                                    <path d="M114.864905,163.596363 C104.055307,166.158338 93.492402,166.976416 84.844475,167.135422 C84.9068418,167.101881 84.9691566,167.068311 85.0314168,167.034714 C97.6637001,160.220377 109.10493,153.038163 117.729471,144.362665 C125.524043,136.60861 132.784285,127.846565 135.464655,118.172824 C135.47309,118.214267 124.946615,149.587664 114.864905,163.596363 Z M73.9002469,167.028836 C64.1825093,166.690436 55.9067505,165.604303 48.8353084,163.975955 C56.710824,159.955982 64.3746231,155.823868 72.1600721,151.767289 C95.976246,139.482518 122.068843,126.986364 123.320069,106.211014 C128.553006,108.17453 128.805569,111.534672 127.912577,113.760215 C123.746126,124.17774 118.326634,134.222051 109.820385,143.081447 C108.184786,144.774546 106.445662,146.425041 104.603014,148.032931 C102.63977,149.705183 100.547489,151.33158 98.4608993,152.939518 C91.3623231,158.098775 83.3100397,162.809416 74.3556592,167.044299 C74.2023829,167.039229 74.0505717,167.03407 73.9002469,167.028836 Z M32.0720989,151.765715 C33.0201052,148.995593 39.4510157,138.320702 51.3251295,128.104804 C62.9589492,118.095643 80.0479039,108.520419 80.2736569,107.89127 C83.1932735,101.889511 89.298937,96.9622712 92.2304834,91.0725869 C96.0393958,91.0599107 99.7760357,92.6324971 104.600936,95.4367007 C105.238228,95.8070908 108.443239,98.0482236 109.018712,98.3864282 C108.34629,100.937114 107.261791,103.36289 105.773517,105.645182 C97.7445596,115.805267 62.0432985,136.169403 51.3241171,145.154503 C50.5295373,145.821903 65.3028757,139.066429 67.2043105,138.829546 C67.7578557,138.728141 68.1913398,138.542086 68.4722396,138.285338 C82.49421,128.350245 107.69742,114.681162 115.435696,102.148822 C118.354092,103.237086 118.327935,105.181385 117.639337,106.409649 C116.1617,109.124941 114.504573,111.785809 112.667958,114.392253 C103.015843,128.208659 72.1599421,148.477413 46.1363745,161.357568 C42.3660909,153.232421 29.7292441,158.660887 32.0720989,151.765715 Z" id="Shape" fill="#D8D8D8"></path>
                                </g>
                            </g>
                        </g>
                    </g>
                </g>
            </g>
        </g>
    </g>
</svg>