<svg fill="none" height="14" viewBox="0 0 15 14" width="15" xmlns="http://www.w3.org/2000/svg"><path d="m11.1761 7.66827c-2.21851 0-2.52379-2.95694-2.56207-3.99948-.00907-.23181-.10882-.44631-.27103-.5847-.1471-.12571-.24382-.31484-.26699-.52358-.03426-.31945.01511-.78998.04836-.8165.27808-.21912.62063-.30561.95412-.23988l.97331.19144c.3707.07266.7103-.25025.7173-.67927.0071-.441691-.3476-.777288-.7284-.702327l-.96221.187981c-.33349.065735-.67504-.020759-.95412-.239877-.4423-.349436-1.02767-.349436-1.46997 0-.27807.219118-.62063.305612-.95412.239877l-.96218-.189134c-.38084-.074961-.73549.260636-.72844.70233.00706.42901.34558.75192.71736.67927l.97326-.19144c.33349-.06574.67504.02076.95412.23987.03426.02653.08363.48898.05038.7946-.02217.20412-.11486.39095-.25591.51896-.16927.15338-.26599.38865-.26095.63544.02418 1.12327-.12594 4.33047-2.62056 4.33047-.39192 0-.66395-.10033-.76873-.20066-.28412-.27102-.57127-.35521-.90576-.27448-.17833.04267-1.111295.3552-1.411536.3702-.69418.03459-.595443 3.69622.027203 3.72152.38588.0162 1.257383.2757 1.304733.2607.33349-.105 1.59088-.7024 1.89615-.7243.47757-.0334.97024.0335 1.44378.1361 1.23219.2676 2.45431.4013 3.67744-.0507 2.17326-.8869 3.05476-.0393 3.03066 1.0656-.0182.8372.3294 1.3124 1.0387 1.2374.662-.0703 1.3209-.2479 1.9627-.4555.5773-.1845-.668-5.43993-3.6866-5.43993z" fill="#0e0c0f"/></svg>