<?xml version="1.0" encoding="UTF-8"?>
<svg width="199px" height="264px" viewBox="0 0 199 264" version="1.1" xmlns="http://www.w3.org/2000/svg" xmlns:xlink="http://www.w3.org/1999/xlink">
    <!-- Generator: Sketch 53.1 (72631) - https://sketchapp.com -->
    <title>Helmet</title>
    <desc>Created with Sketch.</desc>
    <g id="Blog-Illustrations" stroke="none" stroke-width="1" fill="none" fill-rule="evenodd">
        <g id="Blog_illustrations-Copy" transform="translate(-994.000000, -284.000000)">
            <g id="Helmet" transform="translate(994.000000, 284.000000)">
                <path d="M151.729401,180.176187 C152.003166,181.530247 153.134515,187.133047 153.449363,188.874288 C154.117945,192.571828 154.507435,195.668249 154.62765,198.820736 C154.636226,199.054708 154.636226,199.054708 154.637788,199.126702 C155.060298,209.667649 152.878709,231.292082 148.093023,264 L141.184715,260.526316 L130.645814,253.578947 L129.581395,262.921356 C110.094482,264.650369 85.0174234,258.015385 66.8130139,236.802509 C59.529128,228.328966 56.0860738,219.117169 54.263188,207.094583 C53.9580767,205.082264 53.7718566,203.625762 53.3994673,200.436565 C40.3385507,201.049407 28.6913005,191.609756 28.6847156,191.600483 L19.0817777,178.07739 L26.1218881,171.36195 L0.104362364,176.315126 L0.00786095577,158.235802 C-0.287927083,102.820571 7.71063477,66.5646797 32.9870325,34.0857265 C60.7692436,-1.5991814 105.56507,-9.97589673 145.544976,12.3268701 C175.897209,29.2439326 196.892779,62.0592011 198.202887,95.6001734 L199,116.00761 L179.14661,110.68786 C180.203439,110.971039 166.293306,107.05869 163.31979,106.417108 C162.866765,106.319361 162.426698,106.229737 161.96726,106.142085 C160.072242,105.776831 158.731118,105.472261 155.439005,104.690079 C154.452142,104.455608 153.924237,104.331219 153.348588,104.198503 C148.627738,103.11011 146.193783,102.854952 144.938599,103.112853 C143.664947,103.376579 142.414242,103.589463 141.184715,103.752052 C156.91274,124.099643 161.075914,156.127678 151.729401,180.176187 Z" id="Path" fill="#000000" fill-rule="nonzero"></path>
                <path d="M183,96.5156069 C176.012992,94.6475209 174.009348,94.472934 166.407647,93.0109537 C161.339846,92.0363002 148.696165,91.4345591 128.476605,91.2057303 C125.522917,85.4593069 121.505342,80.2645246 116.423882,75.6213835 C112.739454,72.4798639 108.201811,70.0741168 103.737794,68.1687106 C83.719298,58.7267546 61.6883236,63.6215966 51.0951175,83.0740565 C42.4689284,98.9121762 37.95939,123.995633 35.8694345,141.78306 C35.3571905,146.006558 35.4186598,150.311278 35.1522929,155.895231 L16.0084537,158 C15.7830664,115.86654 19.9219979,77.0225364 45.6571369,44.0264535 C68.8515455,14.2995211 105.26185,7.92366258 138.311833,26.3202478 C163.760115,40.4730292 181.893553,68.2506547 183,96.5156069 Z" id="Path" fill="#FFFFFF" fill-rule="nonzero"></path>
                <path d="M165.697924,93.5780233 C160.654037,92.596877 148.070017,91.9911273 127.945866,91.7607742 C125.006115,85.9760704 121.007499,80.7466827 115.950016,76.0726109 C112.282973,72.9101637 107.766743,70.4883905 103.323789,68.5702913 C83.3997537,59.0654368 61.472736,63.9928862 50.9295156,83.5749305 C44.9987939,94.588544 41.0232007,110.043269 38.4459693,124.450234 C35.9283887,135.584482 34.2737014,147.133667 33.2481166,156.620975 C33.2307424,156.776678 33.2140808,156.93249 33.1980908,157.088471 L16.0084138,159 C15.9564115,149.16763 16.1378396,139.513211 16.7663574,130.06883 C19.7185553,104.086089 26.7544439,79.8954066 42.3131398,58.2131543 C63.7949796,28.2881932 97.5169136,21.8698613 128.126638,40.3889971 C146.892653,51.7325924 161.363857,71.7711136 167,93.8292257 C166.584463,93.7497129 166.151192,93.6661938 165.697924,93.5780233 Z" id="Path" fill="#C4C3C6" fill-rule="nonzero"></path>
                <path d="M64.3666283,149.915683 L73.6629978,173.804878 L73.6629978,148.695122 L79.0540848,154.756098 L79.0540848,143.191235 C96.0705668,134.490773 111.44408,123.163094 124.671585,108 C137.626346,120.052072 144.84364,142.17358 142.591897,161.105691 C141.813213,167.652677 138.256646,173.732976 135.660499,179 C137.13906,187.535693 138.941378,187.12543 139.126198,193.430894 C137.970965,195.404709 134.505266,200.357724 130.947149,206.130081 C125.854328,195.404709 123.02874,195.40469 126.417109,183.016784 C126.868891,181.333975 122.864456,177.623685 120.256439,176.0828 C110.235082,170.26393 100.152119,172.129213 88.3852393,176.650494 C94.4226959,183.178982 101.712822,184.517119 107.97617,187.355592 C113.643986,189.930493 118.551987,193.133912 118.654664,199.743499 C118.942162,216.449939 118.757342,233.19693 118.757342,249.883095 C104.505659,251.140133 92.4512815,242.198944 78.4665607,225.999373 C66.7202166,212.415253 70.252334,195.343866 65.6729027,181.800295 C54.5836968,177.988632 54.5836968,187.355592 45.6712609,186.40475 C36.758825,185.453908 35.375883,181.606329 34,179.680223 C43.7338585,174.206025 49.4498051,168.581122 45.6712609,156.618986 C52.0625067,154.616052 58.300823,152.397295 64.3666283,149.915683 L64.3666283,149.915683 Z" id="Path" fill="#C4C3C6" fill-rule="nonzero"></path>
                <path d="M115,117.689027 C118.216336,114.643872 121.329281,111.418749 124.333108,108 C126.456535,109.961337 128.427974,112.18751 130.231448,114.622161 C134.517186,126.979899 138.951285,143.84535 137.821417,155.081129 C135.849106,174.694429 134.618711,178.104279 134.469228,178.849509 C134.118863,180.596203 135.549749,182.875513 136.777892,184.960006 C137.192752,186.255936 137.590998,187.215103 137.933261,188.152839 C137.289918,191.704277 132.090512,201.186321 131.584126,200.997212 C131.187387,200.84905 128.989219,196.518767 127.588713,192.105956 C126.875889,189.859941 127.465034,184.931739 127.588713,184.565642 C128.156052,182.886287 129.638261,180.202837 130.172242,178.849509 C130.430489,178.195004 133.586356,157.778858 128.515416,142.87491 C125.747935,134.741036 118.942617,123.953217 115,117.689027 L115,117.689027 Z" id="Path" fill="#FFFFFF" fill-rule="nonzero"></path>
                <path d="M65,181.421839 C53.7962719,177.687274 53.7962719,186.864769 44.7917941,185.93316 C35.7873164,185.00155 34.3900922,181.231796 33,179.344649 C33.8178401,178.898616 34.6076061,178.451562 35.3661159,178 C36.4171402,179.716632 37.7862044,180.147912 40.7156245,180.905964 C47.9976315,182.790343 63.3462496,173.588145 65,181.421839 L65,181.421839 Z" id="Path" fill="#FFFFFF" fill-rule="nonzero"></path>
                <path d="M117.955855,209 C118.062848,222.640172 117.941718,236.294492 117.941718,249.908568 C109.424683,250.666932 102.829164,246.631126 95,240.648774 C107.63975,242.418738 106.505628,244.038634 110.17763,239.172269 C114.681574,233.203365 114.248378,215.535694 117.955855,209 Z" id="Path" fill="#FFFFFF" fill-rule="nonzero"></path>
                <path d="M119,105.06366 C103.226439,119.0751 68.9891764,137.906267 47.2116026,143 C46.0425549,135.702963 49.7397838,120.863402 57.7502603,111.101826 C60.0506387,108.298582 65.5617088,100.538642 75.0027521,96.1471775 C80.5793539,93.5532431 90.1837422,92.9956032 94.1220034,93.000026 C104.727639,93.0119366 113.858221,97.5030185 119,105.06366 Z" id="Path" fill="#FFFFFF" fill-rule="nonzero"></path>
                <path d="M112,110.370537 C94.6071368,123.503497 66.1748867,138.521732 47.2111427,143 C46.5637453,138.920147 47.4119608,132.499849 49.661458,125.912519 C50.7460223,124.061166 51.9479471,122.291973 53.2648424,120.660397 C55.5972426,117.770653 61.185028,109.771263 70.7574926,105.24429 C76.4117219,102.570315 86.1498053,101.995468 90.142888,102.000027 C98.8664673,102.009987 106.605763,105.058765 111.999994,110.370541 L112,110.370537 Z" id="Path" fill="#C4C3C6" fill-rule="nonzero"></path>
                <path d="M133.415385,214.978261 L141.946075,201.152174 C143.982025,198.07971 145,201.152174 145,210.369565 C145,219.586957 144.36664,233.797101 143.099921,253 L130,238.021739 L133.415385,214.978261 Z" id="Rectangle" fill="#C4C3C6"></path>
                <path d="M145,210.232299 C145,219.479369 144.36664,233.73527 143.099921,253 L130,237.97351 L131.087715,237.27998 L140.792229,248.838818 C142.058948,229.574088 142.692308,215.318188 142.692308,206.071117 C142.692308,203.333792 142.804583,202.016142 142.626176,200.291698 C144.343044,199.035996 145,201.740707 145,210.232299 Z" id="Path" fill="#FFFFFF"></path>
            </g>
        </g>
    </g>
</svg>