<?xml version="1.0" encoding="UTF-8"?>
<svg width="2326px" height="2355px" viewBox="0 0 2326 2355" version="1.1" xmlns="http://www.w3.org/2000/svg" xmlns:xlink="http://www.w3.org/1999/xlink">
    <!-- Generator: Sketch 53.2 (72643) - https://sketchapp.com -->
    <title>Blog_illustrations Copy 4</title>
    <desc>Created with Sketch.</desc>
    <g id="Blog_illustrations-Copy-4" stroke="none" stroke-width="1" fill="none" fill-rule="evenodd">
        <g id="Group-3" transform="translate(-184.000000, 435.000000)">
            <path d="M129.117389,1240.77994 L416.293553,410.293982 C571.44537,423.57316 752.993674,455.978066 853.820945,521.815788 C942.548067,579.752411 964.372122,666.367381 911.791377,749.846585 C780.933219,957.602007 590.638639,1307.37424 271.260113,1361.89486 C176.234747,1378.11649 67.6072856,1332.09059 4.17443857e-13,1312.04345 L129.117389,1240.77994 Z" id="Path-Copy-10" stroke="#000000" stroke-width="10" fill="#000000" transform="translate(470.000000, 887.793982) rotate(180.000000) translate(-470.000000, -887.793982) "></path>
            <ellipse id="Oval" fill="#000000" cx="1071.96909" cy="1157.73554" rx="384.5" ry="280"></ellipse>
            <path d="M728.419808,1357.54384 L878.580574,1189.04006 C970.100748,1062.72577 1029.69537,966.551046 1057.13097,901.332715 L1071.72076,866.65069 C1096.19813,808.46449 1153.19544,672.386173 1242.70373,458.437068 L1250.46562,439.884031 L1298.2356,450.129706 L1421.33244,52.6176379 L1440.7034,54.2036127 C1487.9509,58.0719455 1555.15652,67.2156272 1631.51981,82.7460039 C1746.68353,106.167412 1860.07062,139.69026 1965.433,185.100161 C2098.18307,242.313822 2210.4009,315.166005 2295.77421,405.696659 C2396.22502,512.215626 2456.46736,640.180851 2469.70262,790.650747 C2480.97325,918.785145 2457.72489,1029.78731 2402.51053,1124.35619 C2352.24064,1210.45637 2276.21645,1281.78264 2177.112,1340.00076 C2089.88632,1391.24079 1985.76242,1431.81791 1865.77152,1463.64581 C1764.91029,1490.39951 1655.39548,1510.40792 1533.06177,1526.0681 C1339.88615,1550.79689 1158.50465,1554.20204 991.54484,1541.08239 C926.743305,1535.9903 866.561393,1528.56624 811.298507,1519.40504 C769.210972,1512.42797 732.771444,1504.92406 702.09676,1497.44735 L662.47377,1487.78957 L763.600302,1376.61844 L728.419808,1357.54384 Z" id="Path" fill="#000000" fill-rule="nonzero"></path>
            <path d="M1431.95688,90.7753531 L1309.20419,487.29255 L1259.89601,476.713854 C1171.21213,688.7547 1114.7409,823.616642 1090.48233,881.29968 L1076.02799,915.669792 C1047.89793,982.558615 987.800972,1079.51766 895.73712,1206.54692 L766.316693,1351.81949 L801.451926,1370.87514 L707.851916,1473.80239 C799.492899,1496.14572 1099.25565,1555.85649 1522.36843,1501.67707 C1945.4812,1447.49766 2474.12015,1306.74071 2429.45346,798.781626 C2375.77305,188.316802 1521.8159,98.1346166 1431.95688,90.7753531 Z" id="Path" fill="#FFFFFF" fill-rule="nonzero"></path>
            <path d="M1332.9471,96.0071774 C1916.34131,134.782617 2380.84279,432.265852 2412.5162,788.426318 C2460.27845,1325.50221 1895.72684,1523.37747 1422.1043,1580.64808 C948.481758,1637.9187 612.934355,1574.80114 510.353583,1551.18302 L615.127244,1442.38326 L575.797686,1422.24039 L720.667883,1268.67931 C823.722005,1134.40241 890.993132,1031.91137 922.481265,961.206216 C927.387827,950.188755 932.781108,938.07839 938.661108,924.875121 C965.815587,863.900983 1029.02816,721.344506 1128.29882,497.205691 L1183.49324,508.387954 L1332.9471,96.0071774 Z" id="Path" fill="#000000" transform="translate(1462.853583, 850.007177) rotate(-1.000000) translate(-1462.853583, -850.007177) "></path>
            <path d="M1682.86307,334 C1751.81716,339.167326 1750.99709,265.55923 1813.60063,280.735538 C2177.95291,369.061564 2322.46909,587.240018 2322.46909,854.048537 C2322.46909,1009.44275 2236.51045,1155.62047 2088.17767,1261.60854 C1776.93561,1484 1184.12029,1486.60954 1148.60063,1484 C1480.54973,1455.14221 1856.46909,1281.98168 1856.46909,1025.46144 C1856.46909,821.485307 1698.18466,650.673339 1319.59639,580.893454 C1353.53668,523.839613 1381.51892,483.351707 1403.54312,459.429736 C1424.94575,436.182905 1503.92548,447.974979 1517,429 C1546.68947,385.911829 1613.90897,328.832674 1682.86307,334 Z" id="Path" fill="#D8D8D8"></path>
            <path d="M1403.54312,296.786497 C1400.26689,296.411942 1350.30453,409.063559 1347,408.735538 L1387.80666,270.735538 C1810.17955,302.392963 2202.68772,563.280122 2202.68772,844.138161 C2202.68772,848.683759 2202.60184,853.216422 2202.43108,857.735514 C2191.56998,593.915444 1837.55869,350.541396 1443.01914,302.237584 C1430.80126,300.741739 1417.64259,298.92471 1403.54312,296.786497 Z" id="Path" fill="#FFFFFF"></path>
            <path d="M1277,551.813525 L1323.58814,429.735538 C1686.94016,456.970632 2024.60063,681.413597 2024.60063,923.037645 C2024.60063,926.948252 2024.52676,930.847733 2024.37986,934.735538 C2014.89509,704.335466 1701.21064,492.061523 1355.65708,455.066544 C1348.5491,454.305563 1340.33007,453.283382 1331,452 C1330.72788,451.96935 1279.57011,552.064164 1277,551.813525 Z" id="Path" fill="#FFFFFF"></path>
            <path d="M1321.30347,432.705683 C1318.47941,432.385593 1315.64293,432.085558 1312.7945,431.805846 L1321.81526,409 C1685.77488,436.235093 2024,660.678049 2024,902.302086 C2024,906.212694 2023.926,910.112175 2023.77885,913.999979 L2023.77885,914 C2013.98509,676.490977 1680.38945,458.243914 1321.81526,431.411813 L1321.30347,432.705683 Z" id="Combined-Shape-Copy-8" fill="#000000"></path>
            <g id="Group-17" transform="translate(1666.688644, 1280.058058) rotate(1.000000) translate(-1666.688644, -1280.058058) translate(1204.688644, 1067.058058)" fill="#000000">
                <path d="M923.725608,0.934684368 C924.063643,3.49559168 926.130896,39.8858711 902.812573,88.3432373 C826.997689,245.89272 659.2,358.263609 349.101051,397.024225 C288.22307,410.369199 220.123245,419.3958 144.1378,423.66928 L0.919639686,425.934684 C2.59304309,425.811163 48.1502063,420.906764 137.591129,411.221489 C453.576662,393.450219 743.882964,209.981103 762.727603,62.2575375 C762.857273,64.832484 761.969025,101.258023 734.766268,148.197452 C686.11438,232.148204 610.792457,300.790921 500.825149,348.90191 C737.826815,276.609826 918.154409,122.341282 923.725608,0.934684368 Z" id="Path"></path>
            </g>
            <path d="M1384.48345,277.038245 C1381.15973,276.664457 1377.82143,276.314228 1374.46909,275.987872 L1385.25144,248.735538 C1813.46566,280.770479 2211.40213,544.768729 2211.40213,828.976012 C2211.40213,833.575816 2211.31507,838.162532 2211.14195,842.735514 L2211.14195,842.735538 C2199.61915,563.368489 1807.12948,306.658083 1385.25144,275.097156 L1384.48345,277.038245 Z" id="Combined-Shape-Copy-12" fill="#000000"></path>
            <g id="Group-16" transform="translate(1422.561049, 995.027542) rotate(-2.000000) translate(-1422.561049, -995.027542) translate(1065.061049, 564.027542)">
                <path d="M186.962575,152.331868 C260.682571,157.621135 273.136685,82.1131192 340.050505,104.16438 C557.225957,175.733938 714.384793,321.132521 714.384793,473.427319 C714.384793,687.9825 432.604936,861.913841 85.011866,861.913841 C60.1051099,861.913841 35.5362671,861.020803 11.3847932,859.283771 C231.711707,840.534983 401.39679,723.824359 401.39679,582.645963 C401.39679,460.343616 300.618347,340.134993 68.9759288,291.737156 C60.0604786,289.874421 57.8209363,284.732016 62.2573019,276.309941 C66.6264368,258.260585 76.0682147,241.001072 90.5826358,224.531401 C94.0343106,220.614748 122.21738,218.533673 126.974736,213.931497 C137.015279,204.218467 157.011225,183.685257 186.962575,152.331868 Z" id="Path" fill="#D8D8D8"></path>
                <g id="Group" transform="translate(341.628725, 337.818971) rotate(3.000000) translate(-341.628725, -337.818971) translate(97.128725, 154.818971)">
                    <path d="M6.3646359,18.1140172 C4.42715253,17.8896684 2.48110438,17.6792546 0.526809235,17.4829618 L6.93399839,1.12769866 C256.763074,20.0035055 488.927478,175.55803 488.927478,343.020234 C488.927478,345.730556 488.876683,348.433166 488.775679,351.127684 L488.775679,351.127699 C482.053042,186.517485 253.06641,35.2571441 6.93399839,16.6606383 L6.3646359,18.1140172 Z" id="Combined-Shape-Copy-10" fill="#000000"></path>
                    <path d="M0.714157176,71.5693596 L19.4204285,13.7882252 C262.666911,32.7718945 488.714157,189.215308 488.714157,357.634446 C488.714157,360.360256 488.664701,363.07831 488.566358,365.788225 C482.020852,200.237389 259.067648,48.1126974 19.4204285,29.4099251 L19.0697253,30.3346248 C17.182315,30.111568 2.61783617,71.764466 0.714157176,71.5693596 Z" id="Path-Copy-4" fill="#FFFFFF"></path>
                </g>
                <path d="M119.524409,0.689796697 L1.3636966,265.484965 L30.6593418,275.321222 L148.820054,10.5260537 L119.524409,0.689796697 Z" id="Rectangle" stroke="#979797" fill="#D8D8D8"></path>
            </g>
            <rect id="Rectangle-Copy-7" stroke="#979797" fill="#D8D8D8" transform="translate(1301.997885, 354.793070) rotate(19.000000) translate(-1301.997885, -354.793070) " x="1287.29789" y="142.29307" width="29.4" height="425"></rect>
            <path d="M690.91876,1455.89845 C809.250556,1478.99409 1179.96719,1576.4983 1765.60063,1422 C1342.26398,1576.4983 908.275845,1565.55503 638.600633,1502.60454 L690.91876,1455.89845 Z" id="Path-Copy" fill="#FFFFFF"></path>
            <path d="M747.218943,1310.21371 C803.540459,1344.25377 868.604,1397.88513 1037.34191,1422.91026 C1198.30051,1446.78167 1403.17879,1421.85985 1372.41957,1429.50886 C1241.75495,1462.00175 981.114035,1478.40627 680.513592,1374.43483 L747.218943,1310.21371 Z" id="Path-Copy-2" fill="#FFFFFF" transform="translate(1028.013592, 1382.213713) rotate(-5.000000) translate(-1028.013592, -1382.213713) "></path>
            <g id="Group-20-Copy-3" transform="translate(752.000000, 0.293982)">
                <g id="Group-21" transform="translate(0.000000, 0.706018)">
                    <ellipse id="Oval-Copy-25" stroke="#000000" stroke-width="42" fill="#FFFFFF" cx="139.358547" cy="596.584625" rx="130.410775" ry="99.8787479"></ellipse>
                    <ellipse id="Oval-Copy-26" fill="#D8D8D8" cx="139.358547" cy="581.352867" rx="109.410775" ry="78.8787479"></ellipse>
                    <path d="M225.174206,568.581411 C213.74868,597.887219 178.840411,617.540634 139.358547,617.540634 C91.0637544,617.540634 49.6122223,588.134134 49.6122223,547.625402 C49.6122223,547.395052 49.6136286,547.164776 49.61644,546.934582 L49.612008,102.356129 L229.104872,102.356129 L229.104872,568.581411 L225.17421,568.581411 Z" id="Combined-Shape" stroke="#000000" stroke-width="43" fill="#D8D8D8" stroke-linecap="round" stroke-linejoin="round"></path>
                    <ellipse id="Oval-Copy-21" fill="#000000" cx="139.358547" cy="158.127585" rx="100.744575" ry="72.3508515"></ellipse>
                    <ellipse id="Oval-Copy-17" stroke="#000000" stroke-width="42" fill="#D8D8D8" cx="139.358547" cy="111.344328" rx="121.744575" ry="93.3508515"></ellipse>
                    <path d="M103.959893,80.1286048 C150.705592,31.6687681 251.24236,152.25933 230.747936,79.9611505 C210.253513,7.66297123 138.785348,31.6845116 92.1032795,31.7461666 C45.4212109,31.8078215 7.54942877,53.5264068 7.51428669,80.2559845 C7.4791446,106.985562 57.2141936,128.588441 103.959893,80.1286048 Z" id="Oval-Copy-27" fill="#000000" transform="translate(120.491099, 68.405501) rotate(-15.000000) translate(-120.491099, -68.405501) "></path>
                    <rect id="Rectangle" fill="#000000" x="168.606972" y="213.070713" width="18.4156749" height="330.74675" rx="9.20783746"></rect>
                    <rect id="Rectangle-Copy-8" fill="#000000" x="130.692347" y="227.214488" width="18.4156749" height="330.74675" rx="9.20783746"></rect>
                    <rect id="Rectangle-Copy-9" fill="#000000" x="92.7777222" y="213.070713" width="18.4156749" height="330.74675" rx="9.20783746"></rect>
                </g>
                <path d="M103.918809,69.0803174 C139.752376,41.9441687 217.062322,109.599083 201.251305,69.0610442 C185.440289,28.5230057 127.810106,27.6384675 91.9732698,27.6455637 C56.136434,27.6526599 29.8777536,54.1120163 29.8795588,69.0949783 C29.881364,84.0779402 68.0852414,96.2164661 103.918809,69.0803174 Z" id="Oval-Copy-29" fill="#F9F9F9" transform="translate(116.617650, 56.421281) rotate(-15.000000) translate(-116.617650, -56.421281) "></path>
            </g>
            <g id="Group-20-Copy-2" transform="translate(529.000000, 259.293982)">
                <g id="Group-21" transform="translate(3.000000, 22.706018)">
                    <ellipse id="Oval-Copy-25" stroke="#000000" stroke-width="42" fill="#FFFFFF" cx="117.946561" cy="598.788439" rx="138.807576" ry="105.634667"></ellipse>
                    <ellipse id="Oval-Copy-26" fill="#D8D8D8" cx="117.946561" cy="582.445193" rx="117.807576" ry="84.6346667"></ellipse>
                    <path d="M209.184845,567.17289 C197.550809,598.52689 160.270233,619.704752 117.946561,619.704752 C66.7674901,619.704752 22.9626272,588.737675 22.9626272,546.256577 C22.9626272,546.012472 22.9641414,545.768448 22.9671687,545.524515 L22.9624121,70.0641264 L212.930495,70.0641264 L212.930495,567.17289 L209.184845,567.17289 Z" id="Combined-Shape" stroke="#000000" stroke-width="43" fill="#D8D8D8" stroke-linecap="round" stroke-linejoin="round"></path>
                    <ellipse id="Oval-Copy-21" fill="#000000" cx="117.946561" cy="128.33643" rx="108.476283" ry="77.6304184"></ellipse>
                    <ellipse id="Oval-Copy-17" stroke="#000000" stroke-width="42" fill="#D8D8D8" cx="117.946561" cy="78.1393172" rx="129.476283" ry="98.6304184"></ellipse>
                    <rect id="Rectangle" fill="#000000" x="149.439675" y="187.288853" width="19.828998" height="354.881913" rx="9.914499"></rect>
                    <rect id="Rectangle-Copy-8" fill="#000000" x="108.615268" y="202.464724" width="19.828998" height="354.881913" rx="9.914499"></rect>
                    <rect id="Rectangle-Copy-9" fill="#000000" x="67.7908602" y="187.288853" width="19.828998" height="354.881913" rx="9.914499"></rect>
                </g>
                <path d="M93.729322,85.2986865 C73.9170595,100.391261 51.6417215,106.738821 31.8525036,104.582632 C13.0755854,102.53674 -1.25358558,92.7153202 -1.25893473,79.3282565 C-1.26347221,67.9725343 8.71337028,52.4349861 23.3805907,39.8239552 C39.9059582,25.61527 60.0824622,16.862827 80.415192,16.8646235 C105.349626,16.8668266 129.621292,20.1986874 150.276323,27.6656838 C176.978052,37.3186204 196.186568,53.3552347 205.2148,76.6298839 C208.179053,84.2716832 209.011922,89.9229256 206.99753,94.6133769 C204.449144,100.547214 198.886219,102.428389 192.171879,101.670728 C188.098678,101.211099 183.291129,99.8154787 176.501871,97.3254476 C172.929891,96.0153871 159.324786,90.6940441 157.790026,90.1087246 C148.116983,86.4196652 140.569326,83.897824 133.317454,82.0928807 C115.702624,77.708665 102.658279,78.4967907 93.729322,85.2986865 Z" id="Oval-Copy-28" stroke="#000000" stroke-width="15" fill="#F9F9F9" transform="translate(103.411853, 60.924015) rotate(-15.000000) translate(-103.411853, -60.924015) "></path>
            </g>
            <g id="Group-20-Copy" transform="translate(343.000000, 579.293982)">
                <g id="Group-21" transform="translate(0.000000, 0.706018)">
                    <ellipse id="Oval-Copy-25" stroke="#000000" stroke-width="42" fill="#FFFFFF" cx="131.402138" cy="677.718712" rx="152.327724" ry="114.641351"></ellipse>
                    <ellipse id="Oval-Copy-26" fill="#D8D8D8" cx="131.402138" cy="659.636244" rx="131.327724" ry="93.6413507"></ellipse>
                    <path d="M231.3257,640.450692 C219.378749,675.007474 178.29088,698.572909 131.402138,698.572909 C75.5830147,698.572909 27.9848451,665.17615 27.9848451,619.596494 C27.9848451,619.330838 27.9865331,619.065276 27.9899079,618.799816 L27.9846284,95.0164099 L234.819432,95.0164099 L234.819432,640.450692 L231.3257,640.450692 Z" id="Combined-Shape" stroke="#000000" stroke-width="43" fill="#D8D8D8" stroke-linecap="round" stroke-linejoin="round"></path>
                    <ellipse id="Oval-Copy-21" fill="#000000" cx="131.402138" cy="157.201962" rx="120.925528" ry="85.8917217"></ellipse>
                    <ellipse id="Oval-Copy-17" stroke="#000000" stroke-width="42" fill="#D8D8D8" cx="131.402138" cy="101.662954" rx="141.925528" ry="106.891722"></ellipse>
                    <path d="M98.5929789,79.0021168 C143.050661,45.3960309 239.202338,129.492149 219.488097,79.1595969 C199.773856,28.8270446 128.190667,27.6220296 83.6783139,27.564047 C39.1659606,27.5060644 6.59983155,60.2901726 6.6300259,78.8823242 C6.66022026,97.4744758 54.1352973,112.608203 98.5929789,79.0021168 Z" id="Oval-Copy-27" fill="#F9F9F9" transform="translate(114.373951, 63.241125) rotate(-15.000000) translate(-114.373951, -63.241125) "></path>
                    <rect id="Rectangle" fill="#000000" x="166.50955" y="222.428007" width="22.1046665" height="392.647871" rx="11.0523332"></rect>
                    <rect id="Rectangle-Copy-8" fill="#000000" x="120.999942" y="239.218869" width="22.1046665" height="392.647871" rx="11.0523332"></rect>
                    <rect id="Rectangle-Copy-9" fill="#000000" x="75.490335" y="222.428007" width="22.1046665" height="392.647871" rx="11.0523332"></rect>
                </g>
            </g>
            <g id="Group-20" transform="translate(808.600633, 958.000000)">
                <path d="M3.20110605e-12,199.055894 C11.9464533,272.141315 115.422536,330.310201 242.601794,332.072051 C369.946427,333.836191 476.027531,278.422714 490.963599,205.572807 L486.751857,254.326706 L486.469844,256.165872 C480.374402,334.515795 376.412825,391.812282 242.795855,389.95617 C113.092465,388.154423 11.7121494,329.65279 3.24026996,254.326706 L3.19966276e-12,199.055894 Z M492.563941,182 L493,182 L492.721784,185.220543 C492.688925,184.144325 492.636243,183.070769 492.563941,182 Z" id="Combined-Shape" fill="#D8D8D8"></path>
                <path d="M242.847489,313.957263 C108.653825,311.986476 1.27979416,242.355253 3.02087805,158.431574 C4.76196194,74.5078949 114.958848,8.07194966 249.152511,10.042737 C383.346175,12.0135243 490.720206,81.6447472 488.979122,165.568426 C487.238038,249.492105 377.041152,315.92805 242.847489,313.957263 Z" id="Oval-Copy-18" fill="#D8D8D8"></path>
                <path d="M3.77316333,158.937199 C3.46672158,155.463232 3.34704343,151.960035 3.42024503,148.431574 C5.16132892,64.5078949 115.358215,-1.92805034 249.551878,0.0427369942 C383.745542,2.01352433 491.119573,71.6447472 489.378489,155.568426 C489.333328,157.74528 489.215197,159.910368 489.025571,162.062801 C482.043387,82.9092557 378.103559,18.9306654 249.551878,17.042737 C118.838996,15.1230689 10.8941564,78.1074227 3.77316333,158.937199 Z" id="Combined-Shape" fill="#F9F9F9"></path>
                <path d="M3.00066146,292.052681 C2.99774651,291.262686 3.00446239,290.471373 3.02087805,289.678788 C4.76196194,205.615333 114.958848,139.068738 249.152511,141.042808 C383.346175,143.016878 490.720206,212.764072 488.979122,296.827527 C488.858714,302.641085 488.219599,308.370866 487.089712,314 C486.783461,231.001252 380.171315,162.544632 247.242885,160.589174 C122.329623,158.751625 18.2088282,216.285113 3.00066146,292.052681 L3.00066146,292.052681 Z" id="Path" fill="#FFFFFF" transform="translate(246.000000, 227.500000) scale(1, -1) translate(-246.000000, -227.500000) "></path>
                <path d="M36.0000015,105.593132 C58.3620736,164.35392 141.682643,208 241.049925,208 C357.554435,208 452.000001,148.001015 452.000001,73.9885157 C452.000001,58.579984 447.906509,43.7788309 440.372696,30 C444.229338,40.1340911 446.27285,50.7177489 446.27285,61.6046161 C446.27285,135.617115 351.827284,195.6161 235.322773,195.6161 C143.07313,195.6161 64.6536918,157.998783 36,105.593129 Z" id="Combined-Shape" fill="#000000" transform="translate(244.000001, 119.000000) scale(-1, -1) translate(-244.000001, -119.000000) "></path>
                <path d="M336.61614,190.936771 L174.842229,255.731219 C165.760256,259.368773 156.279777,254.918044 153.666987,245.790238 C153.058223,243.663516 152.863581,241.393207 153.093739,239.103866 L166.305242,107.691407 C167.293071,97.8656443 175.712911,89.9450602 185.11148,90.0002871 C187.301288,90.0131546 189.426094,90.4677484 191.369327,91.3391285 L339.931735,157.95714 C348.272015,161.697069 351.430621,172.094815 346.986678,181.181156 C344.808787,185.634196 341.06704,189.154076 336.61614,190.936771 Z" id="Triangle-2" fill="#000000" transform="translate(251.000000, 173.500000) rotate(13.000000) translate(-251.000000, -173.500000) "></path>
                <path d="M331.70991,172.936142 L189.91498,229.441131 C181.954625,232.613316 173.64498,228.731989 171.354867,220.771946 C170.821285,218.917306 170.650681,216.937448 170.852415,214.940993 L182.432305,100.340749 C183.298139,91.7720423 190.678133,84.8647758 198.915984,84.9129372 C200.835352,84.9241585 202.697746,85.320594 204.400991,86.0804944 L334.616031,144.17575 C341.926292,147.437212 344.694811,156.504726 340.799692,164.428608 C338.89077,168.31195 335.611126,171.381515 331.70991,172.936142 Z" id="Triangle-2-Copy" fill="#F9F9F9" transform="translate(256.667312, 157.730139) rotate(13.000000) translate(-256.667312, -157.730139) "></path>
            </g>
        </g>
        <g id="Group-2-Copy" transform="translate(320.000000, 632.000000)" fill-rule="nonzero">
            <path d="M1101.52497,209.864703 C1087.88813,221.735286 1069.79924,226.657742 1051.91223,221.292089 C1022.0187,212.324786 1002.9866,176.636645 1006.38026,146.255356 C1010.04681,111.658493 1042.66374,90.7172952 1076.09207,100.347591 L1076.40687,100.43828 L1076.71961,100.535822 C1106.09228,109.696953 1126.28316,139.769757 1122.56022,170.049288 C1120.7666,185.335962 1113.05298,199.829807 1101.52497,209.864703 Z M969.235914,215.540011 L970.136408,207.568516 C972.66254,184.619558 990.264164,166.968519 1013.34113,165.108159 L1013.62251,165.085476 L1013.90426,165.068091 C1049.76448,162.85549 1086.8012,174.121962 1118.72644,196.539812 L1118.84866,196.625634 L1118.97002,196.712668 C1135.46271,208.540708 1144.9505,228.643614 1142.66917,248.554411 L1141.77212,256.496545 C1139.19648,279.300089 1117.00108,293.371255 1095.39839,286.823905 L996.597497,256.879299 C978.986034,251.541611 967.149854,234.009038 969.235914,215.540011 Z" id="Shape" fill="#000000"></path>
            <path d="M999.046363,218.907075 C998.60203,222.840994 1001.40145,226.987683 1005.29903,228.168965 L1104.09992,258.113571 C1107.99751,259.294854 1111.51733,257.0634 1111.96167,253.129481 L1112.85872,245.187347 C1113.87432,236.323325 1109.3456,226.72778 1101.48637,221.091388 C1074.96559,202.468547 1044.5994,193.23123 1015.75177,195.011149 C1007.2161,195.699256 1000.93027,202.002727 999.956292,210.850972 L999.046363,218.907075 Z" id="Path" fill="#FFFFFF"></path>
            <path d="M1092.77421,166.470532 C1094.74792,150.78963 1083.56334,134.095633 1067.7872,129.175166 C1051.96945,124.618264 1037.83249,133.716438 1036.20441,149.501021 C1034.38335,165.409887 1044.91166,187.871394 1060.532,192.557101 C1076.15234,197.242807 1090.95315,182.379398 1092.77421,166.470532 Z" id="Path" fill="#FFFFFF"></path>
            <path d="M1357.0429,119.781997 C1341.87643,130.259387 1323.09209,133.325758 1305.5878,126.046317 L1305.48718,126.00426 C1276.09605,113.655981 1260.059,74.7468556 1266.30866,43.8689698 C1273.40692,7.93021957 1310.05209,-9.27813133 1343.66975,5.0855427 L1343.91197,5.18903702 L1344.15234,5.29676866 C1373.47817,18.4403297 1390.95321,51.5540873 1383.15092,82.0947105 C1379.39572,97.2408212 1369.83452,110.945221 1357.0429,119.781997 Z M1221.56687,113.803476 L1221.57151,113.776874 L1223.06872,105.211055 C1227.18648,81.4410507 1246.80697,64.4263785 1271.02381,65.0145289 L1271.30148,65.0212726 L1271.57897,65.0331563 C1308.76139,66.6254743 1345.76863,82.0450825 1375.74429,108.007534 L1375.85126,108.100177 L1375.95734,108.193826 C1391.50805,121.921437 1398.46071,143.492173 1393.35979,163.377827 L1391.34698,171.322148 C1385.98756,192.562551 1363.59907,204.534426 1342.89309,196.512752 L1342.70619,196.440345 L1245.5236,157.289646 L1245.35014,157.21723 C1228.48201,150.174846 1218.43936,131.792352 1221.56687,113.803476 Z" id="Shape-Copy" fill="#000000"></path>
            <path d="M1251.1235,118.942137 C1250.39194,123.149917 1252.98588,127.895539 1256.90817,129.533082 L1353.7305,168.538646 C1357.44728,169.978557 1361.26141,167.934824 1362.25866,163.982539 L1364.27867,156.009752 C1366.55824,147.122739 1363.32767,137.061618 1356.10349,130.684368 C1331.20539,109.119687 1300.62801,96.304663 1270.29542,95.0056851 C1261.30024,94.7872206 1254.26545,100.882203 1252.62846,110.331786 L1251.1235,118.942137 Z" id="Path" fill="#FFFFFF"></path>
            <path d="M1354.05813,74.7713124 C1358.19323,58.8250254 1348.33542,40.0469167 1331.88261,32.6729191 C1315.21699,25.5522713 1298.97009,33.1359859 1295.72659,49.7507256 C1292.29854,66.5049558 1301.26154,91.6887373 1317.10736,98.3461427 C1332.82959,104.884486 1350.09217,91.0073543 1354.05813,74.7713124 Z" id="Path" fill="#FFFFFF"></path>
            <path d="M853.646623,483.844086 C839.161147,496.460297 820.073094,501.633388 801.262335,495.70949 L801.15658,495.67597 C769.94203,485.718833 749.579596,446.785411 752.651346,414.159297 C756.036115,376.25988 791.760448,354.431429 827.912692,366.208999 L828.1673,366.291944 L828.420387,366.379421 C859.728928,377.200926 880.844232,409.806233 876.201837,442.012844 C874.00783,458.058426 865.754871,473.298335 853.646623,483.844086 Z M712.789312,495.584269 L712.791072,495.558031 L713.432267,486.065519 C715.078205,461.153554 733.188747,441.421053 758.177404,439.583692 L758.46249,439.56273 L758.747923,439.547204 C797.991128,437.412654 838.524542,450.236849 872.772191,475.138685 L872.886761,475.22199 L873.000539,475.306373 C890.112196,487.997189 899.29314,509.470235 896.276681,530.340935 L895.021173,539.208311 C891.911868,561.321019 870.475603,576.054206 848.4767,569.710389 L848.280364,569.653771 L741.124947,537.165978 L740.942398,537.108077 C723.316877,531.51762 711.568211,513.901658 712.789312,495.584269 Z" id="Shape-Copy-2" fill="#000000"></path>
            <path d="M846.49312,437.839748 C849.09449,420.212758 836.696953,400.981606 818.620065,394.733499 C800.347411,388.780688 784.118568,398.643524 782.526138,416.899065 C780.755188,435.324174 792.912188,461.556737 810.27367,467.094881 C827.492412,472.51742 844.10093,455.761719 846.49312,437.839748 Z" id="Path" fill="#FFFFFF"></path>
            <path d="M742.722873,497.579744 C742.412225,502.239681 745.68061,507.138054 750.01248,508.512035 L856.789076,540.884976 C860.881647,542.065149 864.69341,539.44044 865.313421,535.031054 L866.572932,526.135307 C868.006434,516.216581 863.478519,505.594583 855.129609,499.402636 C826.400804,478.513611 792.62505,467.748877 760.3773,469.502924 C750.832555,470.204728 744.058386,477.578918 743.367001,488.043312 L742.722873,497.579744 Z" id="Path" fill="#FFFFFF"></path>
            <path d="M997.5042,1217.94224 C959.957397,1225.39096 928.221901,1193.40827 928.003467,1157.06971 C927.652936,1124.77044 953.575964,1095.03212 986.123902,1087.52502 L986.499764,1087.43832 L986.877731,1087.36133 C1024.57166,1079.68233 1057.65065,1105.61528 1055.93854,1143.89162 C1054.72858,1176.301 1029.59559,1211.64416 997.5042,1217.94224 Z M940.270114,1284.36825 C918.420167,1288.34685 897.308273,1273.0465 896.38311,1249.83569 L896.381864,1249.80402 L896.042001,1241.04394 C895.175814,1219.58901 907.632827,1199.30851 926.742153,1188.54595 L926.933929,1188.43794 L927.127268,1188.33275 C965.864291,1167.25828 1008.49297,1159.32756 1047.09207,1166.6857 L1047.49869,1166.76321 L1047.90302,1166.85191 C1071.79693,1172.09389 1086.96376,1193.45274 1085.9553,1217.69492 L1085.60167,1226.79993 C1084.89856,1245.32334 1071.05015,1261.54087 1052.59196,1264.67207 L940.270114,1284.36825 Z" id="Shape-Copy-3" fill="#000000"></path>
            <path d="M1025.96341,1142.66105 C1026.83279,1124.52372 1012.10572,1112.83809 992.866314,1116.75753 C973.455762,1121.23453 957.769438,1139.25279 958.002565,1156.81586 C958.069402,1174.54905 973.266769,1192.18706 991.697329,1188.50957 C1009.96917,1184.9476 1025.33949,1160.87647 1025.96341,1142.66105 Z" id="Path" fill="#FFFFFF"></path>
            <path d="M926.359307,1248.64086 C926.530484,1252.93542 930.385848,1255.70709 934.958838,1254.84186 L1047.52205,1235.10336 C1051.83006,1234.40039 1055.45187,1230.17739 1055.62326,1225.66201 L1055.9779,1216.53067 C1056.40313,1206.30758 1050.65968,1198.17015 1041.47434,1196.15502 C1009.91117,1190.13814 974.249968,1196.84846 941.464086,1214.68528 C931.77922,1220.13989 925.626837,1230.15524 926.017582,1239.83375 L926.359307,1248.64086 Z" id="Path" fill="#FFFFFF"></path>
            <path d="M1445.32078,1077.45865 C1427.55949,1088.72623 1406.37098,1087.28149 1391.32678,1073.64733 C1379.93493,1063.32318 1374.07675,1047.84737 1374.00247,1031.61372 C1373.76941,1004.67291 1390.59629,973.620436 1413.35247,958.24258 L1413.65038,958.041256 L1413.95304,957.84713 C1429.83736,947.658921 1448.28753,945.407561 1464.05572,955.210225 C1479.083,964.552287 1485.59387,981.091839 1484.9577,999.376886 C1484.15593,1027.40315 1467.63876,1063.35347 1445.32078,1077.45865 Z M1402.44379,1157.56116 C1379.35658,1171.88099 1351.13157,1156.55034 1350.28286,1129.50256 L1350.28207,1129.47731 L1350.02826,1121.16458 C1349.47865,1103.87421 1357.05248,1085.09781 1369.24876,1071.55859 L1369.36097,1071.43402 L1369.47457,1071.31071 C1398.31605,1040.00434 1430.70173,1019.75679 1461.97512,1015.34946 L1462.51613,1015.27321 L1463.05957,1015.21672 C1477.33137,1013.73303 1490.6873,1019.93389 1498.8157,1031.51305 C1504.86839,1040.13529 1507.31655,1050.48164 1506.97015,1061.32026 L1506.70612,1070.16207 C1506.29426,1084.27121 1498.59714,1098.85068 1486.23591,1106.32557 L1402.44379,1157.56116 Z" id="Shape-Copy-6" fill="#000000"></path>
            <path d="M113.4383,1308.86408 C75.1864492,1301.80397 43.5868148,1259.95618 42.0806922,1221.63608 C41.0677331,1200.40109 50.018681,1181.10356 66.5264868,1168.88738 C82.0221157,1157.42024 102.278466,1153.54393 122.969067,1157.51252 L123.327571,1157.58129 L123.684297,1157.65875 C163.308839,1166.26362 195.443933,1200.97827 194.998184,1238.82708 C194.740216,1280.88042 156.724983,1316.95571 113.4383,1308.86408 Z M192.712189,1395.38609 L37.967896,1370.18685 C18.1153207,1367.07362 2.37435257,1349.96585 1.54645749,1329.71105 L1.05931812,1318.06326 C-0.178934195,1290.42052 17.8034938,1266.90326 45.0144239,1261.35948 L45.3931973,1261.28231 L45.7738333,1261.21493 C95.7569701,1252.36643 151.373271,1261.97521 202.238071,1287.67342 L202.426591,1287.76866 L202.613752,1287.86655 C225.691499,1299.93688 241.027741,1323.12356 239.950173,1347.91008 L239.481802,1359.12101 L239.480358,1359.1551 C238.949597,1371.52102 232.580792,1382.52564 222.541907,1389.24182 C213.782404,1395.10207 203.108358,1397.15398 192.712189,1395.38609 Z" id="Shape" fill="#000000"></path>
            <path d="M1454.97256,998.425264 C1455.6246,980.81628 1444.57929,973.844079 1430.14974,983.099203 C1415.59182,992.936952 1403.82708,1014.67048 1404.00192,1031.41443 C1404.05205,1048.36878 1415.45008,1060.90382 1429.273,1052.11166 C1442.97688,1043.47548 1454.50462,1016.03878 1454.97256,998.425264 Z" id="Path" fill="#FFFFFF"></path>
            <path d="M1380.2681,1128.56167 C1380.39582,1132.63214 1383.27252,1134.18055 1386.68467,1132.0334 L1470.67415,1080.67713 C1473.88858,1078.76195 1476.59101,1073.66766 1476.7189,1069.2867 L1476.98351,1060.42486 C1477.3008,1050.49537 1473.0153,1044.3434 1466.16162,1045.05591 C1442.61064,1048.37493 1416.0019,1065.08348 1391.53859,1091.63752 C1384.31219,1099.65962 1379.72156,1111.03939 1380.01312,1120.21144 L1380.2681,1128.56167 Z" id="Path" fill="#FFFFFF"></path>
            <path d="M72.0527332,1220.33066 C72.906039,1243.78614 93.9272021,1274.78184 118.916638,1279.36849 C144.123139,1284.10389 164.907773,1261.39193 164.999183,1238.5574 C165.318019,1215.94195 143.864664,1192.74035 117.317879,1186.97545 C91.0051605,1181.92849 70.8637228,1196.97575 72.0527332,1220.33066 Z" id="Path" fill="#FFFFFF"></path>
            <path d="M209.507953,1357.86865 L209.978482,1346.6071 C210.516508,1334.23129 202.04515,1321.42478 188.709835,1314.45003 C143.566197,1291.64229 94.4634678,1283.06189 51.0034071,1290.7556 C38.355902,1293.33233 30.4476143,1303.73756 31.0331172,1316.80971 L31.5214286,1328.48586 C31.7574251,1334.25961 36.7443828,1339.65951 42.6761708,1340.55839 L197.667061,1365.79779 C203.963717,1366.90415 209.272255,1363.36005 209.507953,1357.86865 Z" id="Path" fill="#FFFFFF"></path>
            <path d="M1278.46074,815.100587 C1278.74212,812.368525 1278.89179,810.405029 1279.28645,804.633239 C1279.97885,794.507258 1280.47594,789.567687 1281.72929,783.348744 C1283.72774,773.432787 1287.20082,764.749086 1293.08741,756.990649 C1307.52407,737.963356 1330.80004,727.768868 1353.22788,730.40844 C1383.94218,734.02326 1403.01211,756.089196 1409.12135,789.996096 C1410.53924,797.865532 1410.19925,805.510759 1408.83917,816.357132 C1408.63753,817.965137 1408.42263,819.565845 1408.1325,821.652208 C1407.13522,828.823847 1407.14305,828.765631 1406.96066,830.536546 C1406.80247,832.072515 1406.61774,833.60152 1406.40672,835.122528 C1404.13579,851.491532 1389.05451,862.9414 1372.67733,860.730251 L1303.986,851.45596 C1288.33628,849.343029 1277.00396,835.459746 1278.0682,819.703936 C1278.17174,818.171093 1278.30257,816.636288 1278.46074,815.100587 Z M1389.96896,764.641751 C1377.59674,778.588602 1359.7855,783.72293 1340.29794,779.607906 C1320.22632,775.369552 1305.6399,760.637903 1297.27765,741.345736 C1290.49656,725.701403 1288.17359,707.493592 1291.50574,692.125669 C1299.15987,655.813405 1335.99085,637.533606 1370.26137,651.935761 C1370.4621,652.020118 1370.66191,652.106658 1370.86076,652.195365 C1401.26758,665.760109 1413.23756,697.548541 1405.93852,729.375126 C1402.66301,744.219463 1398.31035,755.238738 1389.96896,764.641751 Z" id="Shape" fill="#000000"></path>
            <path d="M1308.30288,818.174106 C1308.18037,819.363573 1308.07957,820.547754 1308,821.72571 L1376.69133,831 C1376.8534,829.831755 1376.99601,828.652494 1377.11852,827.463027 C1378.07763,818.150578 1381.07668,803.529449 1379.59676,795.315749 C1375.58101,773.027915 1365.64703,762.077127 1349.72133,760.202804 C1338.49653,758.881737 1325.40199,764.03293 1316.98685,775.123963 C1309.06263,785.567969 1310.0302,801.40275 1308.30288,818.174106 Z" id="Path" fill="#FFFFFF"></path>
            <path d="M1376.6716,722.7821 C1380.71411,705.323531 1375.76037,687.230958 1358.63854,679.592765 C1341.42764,672.359898 1324.50962,680.777965 1320.84269,698.39922 C1316.94482,716.135485 1326.75055,746.085676 1346.4961,750.255177 C1366.24166,754.424678 1372.77373,740.518366 1376.6716,722.7821 Z" id="Path" fill="#FFFFFF"></path>
        </g>
    </g>
</svg>