<svg fill="none" height="20" viewBox="0 0 20 20" width="20" xmlns="http://www.w3.org/2000/svg"><g fill="#fff"><path d="m19.6328 9.97263c0-.98438-.293-1.92969-.875-2.8086-.5234-.78906-1.2539-1.48828-2.1758-2.07422-1.7812-1.13672-4.1172-1.76172-6.582-1.76172-.82422 0-1.63672.07032-2.42188.20704-.48828-.45704-1.05859-.86719-1.66406-1.19532-3.23437-1.566403-5.91406-.03515-5.91406-.03515s2.49219 2.04687 2.08594 3.83984c-1.113284 1.10547-1.718752 2.44141-1.718752 3.82813v.01172.01171c0 1.38674.605468 2.72264 1.718752 3.82814.40625 1.7969-2.08594 3.8437-2.08594 3.8437s2.67969 1.5313 5.91406-.0351c.60547-.3242 1.17578-.7383 1.66406-1.1953.78907.1367 1.59766.207 2.42188.207 2.4648 0 4.8008-.625 6.582-1.7617.9219-.5899 1.6524-1.2852 2.1758-2.0742.582-.8789.875-1.8243.875-2.80863 0-.00391 0-.00781 0-.01172 0-.00781 0-.01172 0-.01562zm-9.6328 5.30857c-1.01562 0-1.98828-.1172-2.89062-.332-.91407 1.0976-2.92579 2.6289-4.87891 2.1328.63672-.6836 1.57812-1.8359 1.375-3.7344-1.17188-.9101-1.875-2.0781-1.875-3.34763 0-2.91406 3.69922-5.28125 8.26562-5.28125 4.56641 0 8.26561 2.36328 8.26561 5.28125.0039 2.91403-3.6953 5.28123-8.2617 5.28123z"/><path d="m10 9.07031c-.60547 0-1.09766.49219-1.09766 1.09769 0 .6054.49219 1.0976 1.09766 1.0976.6055 0 1.0977-.4922 1.0977-1.0976 0-.6055-.4922-1.09769-1.0977-1.09769z"/><path d="m13.8164 9.07031c-.6055 0-1.0976.49219-1.0976 1.09769 0 .6054.4921 1.0976 1.0976 1.0976s1.0977-.4922 1.0977-1.0976c0-.6055-.4922-1.09769-1.0977-1.09769z"/><path d="m6.18359 9.07031c-.60546 0-1.09765.49219-1.09765 1.09769 0 .6054.49219 1.0976 1.09765 1.0976.60547 0 1.09766-.4922 1.09766-1.0976 0-.6055-.49219-1.09769-1.09766-1.09769z"/></g></svg>