<?xml version="1.0" encoding="UTF-8"?>
<svg width="207px" height="279px" viewBox="0 0 207 279" version="1.1" xmlns="http://www.w3.org/2000/svg" xmlns:xlink="http://www.w3.org/1999/xlink">
    <!-- Generator: Sketch 53.2 (72643) - https://sketchapp.com -->
    <title>Group 3</title>
    <desc>Created with Sketch.</desc>
    <g id="Blog-Illustrations" stroke="none" stroke-width="1" fill="none" fill-rule="evenodd">
        <g id="Artboard" transform="translate(-370.000000, -98.000000)">
            <g id="Group-3" transform="translate(458.206556, 227.206826) rotate(3.000000) translate(-458.206556, -227.206826) translate(315.206556, 67.206826)">
                <g id="Group-2" transform="translate(46.000000, 68.000000)">
                    <path d="M154.826721,14.7058437 C196.144406,23.4182412 222.032788,85.4098611 212.983214,146.79014 C208.704035,175.814399 197.504945,201.701685 181.722205,219.744332 C175.04354,227.379305 167.64881,232.391927 159.892078,235.227532 C154.604903,237.160348 150.42227,237.7942 145.473649,237.988134 C131.468446,240.24261 120.383521,240.923041 112.218876,240.029425 C103.756976,239.103276 94.5035955,235.608032 84.4587333,229.543695 C54.8335622,209.882746 38.9024283,161.047031 46.4773792,109.668637 C55.5269534,48.2883581 95.0644301,4.04010327 136.382115,12.7525008 C141.606904,13.8542188 148.85349,13.4463065 154.826721,14.7058437 Z" id="Path" fill="#000000" fill-rule="nonzero" transform="translate(129.694694, 126.033330) rotate(8.000000) translate(-129.694694, -126.033330) "></path>
                    <path d="M143.76324,231.549771 C154.95894,227.768654 177.892209,201.852267 187.025139,167.759159 C195.498732,136.12735 190.958856,96.8309439 182.314863,77.1957176 C172.138886,54.0805179 163.632523,40.5705673 139.9695,32.8015236 C144.850873,32.0376773 150.791439,33.1857205 155.744889,34.2169214 C190.495638,41.4512744 211.545307,94.6799152 203.26629,150.113511 C199.186913,177.427683 188.648485,200.769723 174.849381,216.557012 C162.652756,230.510936 156.787593,231.042896 152.560361,231.220924 C147.578076,231.430751 144.645702,231.540366 143.76324,231.549771 Z" id="Path" fill="#C4C3C6" transform="translate(172.517594, 132.051469) rotate(8.000000) translate(-172.517594, -132.051469) "></path>
                    <path d="M153.357601,179.581575 C198.377751,147.143769 219.771847,96.5600168 201.142651,66.5996025 C182.513455,36.6391881 130.915465,38.647511 85.8953155,71.0853172 C40.8751655,103.523123 19.48107,154.106875 38.1102658,184.06729 C56.7394617,214.027704 108.337451,212.019381 153.357601,179.581575 Z" id="Oval" fill="#D8D8D8" transform="translate(119.626458, 125.333446) rotate(-38.000000) translate(-119.626458, -125.333446) "></path>
                    <path d="M153.357601,179.581575 C198.377751,147.143769 219.771847,96.5600168 201.142651,66.5996025 C182.513455,36.6391881 130.915465,38.647511 85.8953155,71.0853172 C40.8751655,103.523123 19.48107,154.106875 38.1102658,184.06729 C56.7394617,214.027704 108.337451,212.019381 153.357601,179.581575 Z" id="Oval-Copy" fill="#C4C3C6" transform="translate(119.626458, 125.333446) rotate(-38.000000) translate(-119.626458, -125.333446) "></path>
                    <path d="M123.069371,34.572919 C97.7742941,38.6378295 75.9338613,70.5479011 71.9090754,112.269612 C67.3234757,159.804826 87.6007632,202.075867 117.199665,206.684625 C118.834984,206.939255 120.464544,207.073595 122.084762,207.092142 C118.560146,207.658547 114.968455,207.68432 111.348543,207.120674 C81.7496416,202.511916 61.4723541,160.240875 66.0579537,112.705661 C70.3902021,67.7967356 95.3640195,34.2557737 123.069371,34.572919 L123.069371,34.572919 Z" id="Path" fill="#FFFFFF" transform="translate(94.240133, 121.050555) rotate(8.000000) translate(-94.240133, -121.050555) "></path>
                    <path d="M145.930111,196.762393 C156.808267,182.330633 164.286227,161.333819 165.751643,137.288395 C168.654703,89.6532529 146.861896,48.0921379 117.076047,44.4590461 C112.070144,43.8484573 107.157062,44.3480128 102.433214,45.8279333 C110.841963,41.0516413 119.959053,39.3290407 129.116223,41.4124451 C158.582637,48.1165314 177.305737,91.6914562 170.935436,138.739764 C167.640686,163.073372 158.278726,183.570255 145.930126,196.762372 L145.930111,196.762393 Z" id="Path" fill="#000000" transform="translate(137.306306, 118.651705) rotate(8.000000) translate(-137.306306, -118.651705) "></path>
                    <path d="M129.978836,71.6168451 L133.523667,157.968202 C133.664347,161.395153 133.178287,165.079312 131.820315,168.328023 C129.689258,173.831443 125.357118,178.167179 120.074418,180.420224 L104.329169,186.576671 L98.7861549,180.325523 L99.5358431,170.779333 L109.860188,166.371696 C114.259116,164.221824 99.119201,169.561448 98.9683242,164.543598 C102.061274,162.702558 103.758564,160.403276 106.038832,157.645732 C108.3191,154.888187 108.970121,149.863337 107.991895,142.57118 C107.5974,131.828211 106.012101,116.582353 105.214656,94.8662128 L90.6790574,98.5158715 L87.0497348,92.8168671 L90.5284995,84.3724066 L122.829022,67.5504661 L129.978836,71.6168451 Z" id="Path-Copy" fill="#000000" fill-rule="nonzero" transform="translate(110.298375, 127.063569) rotate(8.000000) translate(-110.298375, -127.063569) "></path>
                    <path d="M123.756124,65.0150544 L126.65212,151.626985 C126.788969,155.064276 126.316139,158.759553 124.995136,162.018066 C122.922091,167.538092 118.707884,171.88691 113.568996,174.146752 L98.2523805,180.321771 L93.5895494,164.476763 L103.632833,160.055829 C107.912009,157.899471 110.668082,153.370819 110.521315,148.337828 L108.683679,85.3212797 L84.973897,91.9952423 L84.8274423,77.8090992 L123.756124,65.0150544 Z" id="Path-Copy" fill="#C4C3C6" fill-rule="nonzero" transform="translate(105.751137, 122.668413) rotate(8.000000) translate(-105.751137, -122.668413) "></path>
                    <path d="M102.235755,179.90954 L101.551023,177.600148 L115.229047,171.630255 C121.058925,168.72492 124.837191,162.689123 124.67536,156.015047 L122.649128,72.4509726 L90.3866868,81.5535782 L90.3710032,78.3832903 L125.751823,66.4626253 L128.484505,152.259153 C128.592955,155.664084 128.080353,159.33234 126.710803,162.578354 C124.557975,168.075141 120.242443,172.437992 115.006948,174.742078 L102.235755,179.90954 Z" id="Path" fill="#FFFFFF" fill-rule="nonzero" transform="translate(109.434779, 123.186082) rotate(8.000000) translate(-109.434779, -123.186082) "></path>
                </g>
                <g id="Group-2-Copy" transform="translate(141.856517, 143.347975) rotate(8.000000) translate(-141.856517, -143.347975) translate(16.856517, 16.347975)">
                    <path d="M154.730539,16.0813154 C182.399322,21.9156558 204.419793,52.767307 213.231317,90.946522 C216.061419,103.209 223.200834,125.857001 223.16646,128.970283 C223.132085,132.083564 227.78081,139.292691 229.745515,148.077248 C232.240744,159.233872 234.959837,171.363856 234.376284,175.321905 C230.097105,204.346164 237.882805,202.099322 222.100065,220.141969 C219.640481,222.953736 219.426007,194.384637 217.941569,199.659476 C214.737369,211.04536 212.066511,220.775567 193.171469,231.114167 C174.276427,241.452766 159.38267,237.10913 145.377467,239.363606 C131.372263,241.618082 120.287339,242.298512 112.122694,241.404897 C103.660794,240.478747 94.4074131,236.983504 84.3625509,230.919167 C54.7373798,211.258217 38.806246,162.422503 46.3811969,111.044108 C55.4307711,49.6638299 94.9682477,5.415575 136.285933,14.1279725 C141.510722,15.2296905 148.757308,14.8217782 154.730539,16.0813154 Z" id="Path" fill="#000000" fill-rule="nonzero" transform="translate(139.481684, 127.408802) rotate(8.000000) translate(-139.481684, -127.408802) "></path>
                    <path d="M143.76324,231.549771 C154.95894,227.768654 177.892209,201.852267 187.025139,167.759159 C195.498732,136.12735 190.958856,96.8309439 182.314863,77.1957176 C172.138886,54.0805179 163.632523,40.5705673 139.9695,32.8015236 C144.850873,32.0376773 150.791439,33.1857205 155.744889,34.2169214 C190.495638,41.4512744 211.545307,94.6799152 203.26629,150.113511 C199.186913,177.427683 188.648485,200.769723 174.849381,216.557012 C162.652756,230.510936 156.787593,231.042896 152.560361,231.220924 C147.578076,231.430751 144.645702,231.540366 143.76324,231.549771 Z" id="Path" fill="#C4C3C6" transform="translate(172.517594, 132.051469) rotate(8.000000) translate(-172.517594, -132.051469) "></path>
                    <path d="M153.357601,179.581575 C198.377751,147.143769 219.771847,96.5600168 201.142651,66.5996025 C182.513455,36.6391881 130.915465,38.647511 85.8953155,71.0853172 C40.8751655,103.523123 19.48107,154.106875 38.1102658,184.06729 C56.7394617,214.027704 108.337451,212.019381 153.357601,179.581575 Z" id="Oval" fill="#D8D8D8" transform="translate(119.626458, 125.333446) rotate(-38.000000) translate(-119.626458, -125.333446) "></path>
                    <path d="M153.357601,179.581575 C198.377751,147.143769 219.771847,96.5600168 201.142651,66.5996025 C182.513455,36.6391881 130.915465,38.647511 85.8953155,71.0853172 C40.8751655,103.523123 19.48107,154.106875 38.1102658,184.06729 C56.7394617,214.027704 108.337451,212.019381 153.357601,179.581575 Z" id="Oval-Copy" fill="#C4C3C6" transform="translate(119.626458, 125.333446) rotate(-38.000000) translate(-119.626458, -125.333446) "></path>
                    <path d="M113.164598,229.075156 C142.59429,226.118197 169.509932,190.691085 176.369642,142.675464 C184.185182,87.9693486 163.006622,37.6382391 129.066003,30.2577841 C127.190807,29.8500189 125.315887,29.5818913 123.445619,29.4484422 C127.546352,29.036419 131.695897,29.2548245 135.846797,30.1574459 C169.787416,37.5379008 190.965976,87.8690103 183.150435,142.575125 C175.766697,194.258764 145.145754,231.357103 113.164604,229.075155 L113.164598,229.075156 Z" id="Path" fill="#FFFFFF" transform="translate(148.968627, 129.211629) rotate(8.000000) translate(-148.968627, -129.211629) "></path>
                    <path d="M123.069371,34.572919 C97.7742941,38.6378295 75.9338613,70.5479011 71.9090754,112.269612 C67.3234757,159.804826 87.6007632,202.075867 117.199665,206.684625 C118.834984,206.939255 120.464544,207.073595 122.084762,207.092142 C118.560146,207.658547 114.968455,207.68432 111.348543,207.120674 C81.7496416,202.511916 61.4723541,160.240875 66.0579537,112.705661 C70.3902021,67.7967356 95.3640195,34.2557737 123.069371,34.572919 L123.069371,34.572919 Z" id="Path" fill="#FFFFFF" transform="translate(94.240133, 121.050555) rotate(8.000000) translate(-94.240133, -121.050555) "></path>
                    <path d="M145.930111,196.762393 C156.808267,182.330633 164.286227,161.333819 165.751643,137.288395 C168.654703,89.6532529 146.861896,48.0921379 117.076047,44.4590461 C112.070144,43.8484573 107.157062,44.3480128 102.433214,45.8279333 C110.841963,41.0516413 119.959053,39.3290407 129.116223,41.4124451 C158.582637,48.1165314 177.305737,91.6914562 170.935436,138.739764 C167.640686,163.073372 158.278726,183.570255 145.930126,196.762372 L145.930111,196.762393 Z" id="Path" fill="#000000" transform="translate(137.306306, 118.651705) rotate(8.000000) translate(-137.306306, -118.651705) "></path>
                    <path d="M129.978836,71.6168451 L133.523667,157.968202 C133.664347,161.395153 133.178287,165.079312 131.820315,168.328023 C129.689258,173.831443 125.357118,178.167179 120.074418,180.420224 L104.329169,186.576671 L98.7861549,180.325523 L99.5358431,170.779333 L109.860188,166.371696 C114.259116,164.221824 99.119201,169.561448 98.9683242,164.543598 C102.061274,162.702558 103.758564,160.403276 106.038832,157.645732 C108.3191,154.888187 108.970121,149.863337 107.991895,142.57118 C107.5974,131.828211 106.012101,116.582353 105.214656,94.8662128 L90.6790574,98.5158715 L87.0497348,92.8168671 L90.5284995,84.3724066 L122.829022,67.5504661 L129.978836,71.6168451 Z" id="Path-Copy" fill="#000000" fill-rule="nonzero" transform="translate(110.298375, 127.063569) rotate(8.000000) translate(-110.298375, -127.063569) "></path>
                    <path d="M123.756124,65.0150544 L126.65212,151.626985 C126.788969,155.064276 126.316139,158.759553 124.995136,162.018066 C122.922091,167.538092 118.707884,171.88691 113.568996,174.146752 L98.2523805,180.321771 L93.5895494,164.476763 L103.632833,160.055829 C107.912009,157.899471 110.668082,153.370819 110.521315,148.337828 L108.683679,85.3212797 L84.973897,91.9952423 L84.8274423,77.8090992 L123.756124,65.0150544 Z" id="Path-Copy" fill="#C4C3C6" fill-rule="nonzero" transform="translate(105.751137, 122.668413) rotate(8.000000) translate(-105.751137, -122.668413) "></path>
                    <path d="M102.235755,179.90954 L101.551023,177.600148 L115.229047,171.630255 C121.058925,168.72492 124.837191,162.689123 124.67536,156.015047 L122.649128,72.4509726 L90.3866868,81.5535782 L90.3710032,78.3832903 L125.751823,66.4626253 L128.484505,152.259153 C128.592955,155.664084 128.080353,159.33234 126.710803,162.578354 C124.557975,168.075141 120.242443,172.437992 115.006948,174.742078 L102.235755,179.90954 Z" id="Path" fill="#FFFFFF" fill-rule="nonzero" transform="translate(109.434779, 123.186082) rotate(8.000000) translate(-109.434779, -123.186082) "></path>
                </g>
                <path d="M217.198073,240.510846 C199.774616,275.804291 171.306746,296.619456 145.61473,291.120333 C168.91616,292.040917 193.479058,272.757083 209.434192,241.721073 C219.703896,222.687453 214.636423,240.978467 217.198073,240.510846 Z" id="Path" fill="#FFFFFF"></path>
            </g>
        </g>
    </g>
</svg>