<svg enable-background="new 0 0 15 13" viewBox="0 0 15 13" xmlns="http://www.w3.org/2000/svg"><path d="m13.2 2.1c.6-.4 1.1-1.1 1.4-1.8-.6.4-1.3.7-2 .8-.6-.7-1.4-1-2.2-1-1.7-.1-3.1 1.4-3.1 3.2 0 .3 0 .5.1.7-2.5-.1-4.8-1.4-6.4-3.4-.2.5-.4 1.1-.4 1.7 0 1 .5 2.1 1.4 2.7-.5 0-1-.2-1.4-.4 0 1.5 1 2.9 2.5 3.2-.3.1-.6.1-.8.1s-.4 0-.6-.1c.4 1.3 1.5 2.2 2.9 2.3-1.1.9-2.4 1.4-3.8 1.4-.2 0-.5 0-.7 0 1.4 1 3 1.5 4.7 1.5 5.7 0 8.8-5 8.8-9.3 0-.1 0-.3 0-.4.6-.5 1.1-1 1.5-1.7-.7.2-1.3.4-1.9.5z" fill="#fff"/></svg>