<svg width="483" height="413" viewBox="0 0 483 413" fill="none" xmlns="http://www.w3.org/2000/svg">
<path d="M402.795 161.228C396.097 160.75 389.638 160.272 383.179 159.076C366.435 155.727 351.125 158.836 342.035 174.385C354.474 179.408 367.87 182.279 381.983 182.518C422.41 183.475 455.421 166.013 475.276 128.457V128.217C453.986 145.44 436.523 163.621 402.795 161.228Z" fill="#020202"/>
<path d="M156.886 372.213V412.161H189.179C189.179 412.161 179.611 398.526 184.634 365.515C185.83 359.056 165.976 363.123 156.886 372.213Z" fill="#020202"/>
<path d="M309.263 412.161H322.42C322.42 412.161 315.483 395.177 315.483 374.844C315.483 362.166 306.871 360.013 306.871 374.844C306.871 399.243 308.785 411.682 309.263 412.161Z" fill="#020202"/>
<path d="M95.6476 166.013H137.27C137.27 166.013 198.508 90.4221 221.712 75.591C231.759 69.1323 264.531 83.485 276.491 83.7242C318.114 10.2864 407.818 6.93743 401.12 6.69822C90.1458 4.0669 73.8794 133.48 57.1346 191.848C62.6365 173.907 76.7499 166.013 95.6476 166.013Z" fill="#020202"/>
<path d="M284.864 365.515C296.346 280.116 236.543 294.948 197.312 241.604L191.571 233.949L158.321 188.977L116.698 190.412C97.5614 191.13 81.0558 204.287 76.2716 222.706C61.4405 277.964 31.7783 412.4 31.7783 412.4L74.3579 412.161C74.3579 412.161 70.2913 402.593 78.1853 367.429C78.1853 367.189 90.1458 316.716 90.1458 316.716L125.549 277.007L107.608 351.641C107.608 351.641 246.829 297.579 246.59 313.606C245.633 346.139 245.155 402.593 245.872 411.683L289.409 411.922C289.409 412.161 280.319 398.765 284.864 365.515Z" fill="#020202"/>
<path d="M466.425 71.2847C463.076 72.2415 450.398 92.096 445.853 97.1195C442.982 100.229 446.331 113.625 444.896 114.103C443.461 114.582 430.543 106.688 420.496 115.06C418.104 116.974 414.277 126.542 411.167 126.303C408.536 126.064 405.905 117.452 403.752 115.778C372.415 93.5313 369.784 98.3155 360.454 95.9234C346.819 92.3352 318.353 75.112 316.2 76.5473C308.067 81.3315 290.605 96.1626 278.405 103.1C277.927 102.861 256.158 96.6411 247.786 94.4882C237.739 91.8568 226.975 95.2058 220.277 103.339C214.296 110.515 170.282 160.75 170.042 160.989C169.325 161.467 176.74 174.624 182.721 183.235C185.352 187.063 197.552 172.71 200.183 175.102C203.771 178.212 192.767 195.196 195.399 197.588C223.147 225.337 248.743 237.058 280.558 232.752C280.319 207.396 279.601 184.91 279.362 160.75C278.644 160.75 264.292 146.875 262.378 142.091C260.464 136.829 264.052 130.131 265.248 125.346C265.248 125.346 265.248 125.346 265.488 125.346L290.366 154.052L300.173 210.984L341.796 203.09C330.553 194 324.573 180.126 325.769 165.773L334.859 170.557L352.082 147.832C352.082 147.832 338.208 133.958 333.663 129.413C333.184 128.935 320.028 138.503 320.028 138.503L315.244 130.848C309.024 121.041 317.636 106.688 332.945 111.472C372.893 158.118 470.013 168.883 466.425 71.2847Z" fill="#020202"/>
<path d="M411.885 0C411.885 0 495.609 18.8977 481.256 99.751C481.256 99.751 488.193 24.1603 401.599 24.1603C401.599 24.1603 404.708 13.635 406.144 12.6782C406.144 12.6782 413.081 8.85081 413.081 6.21949L411.885 0Z" fill="#020202"/>
<path d="M31.7783 303.32C35.1273 287.532 37.9978 257.63 41.3467 242.56C29.3862 283.465 0.680847 319.108 0.680847 319.108L2.59454 326.523C2.83375 326.523 31.7783 303.32 31.7783 303.32Z" fill="#020202"/>
</svg>
