<svg width="325" height="88" viewBox="0 0 325 88" fill="none" xmlns="http://www.w3.org/2000/svg">
<g clip-path="url(#clip0_356_22853)">
<path fill-rule="evenodd" clip-rule="evenodd" d="M279.694 19.4102H271.694V11.4102H279.694V19.4102ZM271.694 25.8104V65.8598H279.995L279.694 25.8104H271.694ZM227.402 45.2941C227.402 51.3045 229.13 56.1937 232.584 59.9636C236.088 63.6816 240.456 65.5402 245.689 65.5402C247.161 65.5402 248.608 65.3237 250.031 64.8916C251.453 64.4586 252.596 63.9746 253.46 63.4396C254.323 62.9046 255.135 62.2807 255.897 61.5679C256.659 60.8542 257.155 60.3579 257.384 60.0772C257.612 59.7973 257.777 59.5808 257.878 59.4286H258.259V65.8094H266.259V11.4142H258.181L258.259 30.7769H257.878L256.659 29.3249C255.795 28.4079 254.348 27.4655 252.317 26.4975C250.285 25.5304 248.075 25.0464 245.689 25.0464C240.456 25.0464 236.101 26.9181 232.622 30.6625C229.142 34.406 227.402 39.2829 227.402 45.2941ZM234.675 45.2941C234.675 41.3201 235.767 38.1618 237.952 35.8192C240.136 33.4758 242.98 32.3046 246.485 32.3046C249.99 32.3046 252.834 33.4758 255.018 35.8192C257.202 38.1618 258.294 41.3201 258.294 45.2941C258.294 49.2664 257.202 52.4247 255.018 54.7673C252.834 57.1107 249.99 58.282 246.485 58.282C242.98 58.282 240.136 57.1107 237.952 54.7673C235.767 52.4247 234.675 49.2664 234.675 45.2941ZM157.702 33.0684V25.8102H162.273V17.4054H170.273V25.8102H182.082V33.0684H170.273V58.5513H182.463V65.8095H168.893C165.237 65.8095 162.273 62.8457 162.273 59.191V33.0684H157.702ZM128.762 53.0691H120L120.382 54.4437C120.585 55.3096 121.08 56.3788 121.867 57.653C122.655 58.9263 123.657 60.1997 124.877 61.473C126.096 62.7464 127.886 63.8288 130.248 64.7202C132.61 65.6116 135.289 66.0569 138.286 66.0569C143.366 66.0569 147.365 64.8989 150.286 62.5809C153.207 60.263 154.667 57.4743 154.667 54.214C154.667 51.8213 154.07 49.7964 152.876 48.1403C151.682 46.485 150.171 45.275 148.343 44.5112C146.514 43.7473 144.559 43.0724 142.477 42.4863C140.394 41.9002 138.439 41.4549 136.61 41.1496C134.781 40.8433 133.27 40.347 132.077 39.6589C130.883 38.9716 130.286 38.118 130.286 37.0999C130.286 35.8767 130.871 34.8585 132.038 34.0428C133.207 33.2288 134.908 32.8213 137.143 32.8213C138.515 32.8213 139.746 32.9991 140.838 33.3555C141.93 33.7119 142.769 34.1079 143.352 34.54C143.937 34.9729 144.444 35.4824 144.877 36.0685C145.308 36.6537 145.575 37.0488 145.676 37.253C145.778 37.4563 145.854 37.6349 145.905 37.7871H154.285L153.981 36.5648C153.778 35.6989 153.308 34.6676 152.571 33.4708C151.835 32.274 150.908 31.0763 149.79 29.8795C148.673 28.6827 146.997 27.6637 144.762 26.8233C142.527 25.9829 139.987 25.5631 137.143 25.5631C132.572 25.5631 128.89 26.708 126.096 29.0013C123.302 31.2928 121.905 33.968 121.905 37.0233C121.905 39.8754 122.744 42.1933 124.419 43.977C126.096 45.759 128.128 47.02 130.515 47.7583C132.902 48.4967 135.289 49.0959 137.676 49.5535C140.064 50.012 142.095 50.5981 143.771 51.3109C145.448 52.0245 146.286 52.9925 146.286 54.214C146.286 55.5384 145.651 56.634 144.381 57.4999C143.111 58.3658 141.079 58.7987 138.286 58.7987C136.864 58.7987 135.556 58.5955 134.362 58.188C133.168 57.7797 132.254 57.3221 131.619 56.8117C130.984 56.3031 130.426 55.717 129.943 55.0544C129.461 54.3926 129.156 53.9341 129.029 53.6798C128.902 53.4255 128.813 53.2213 128.762 53.0691ZM284.266 45.2942C284.266 51.0494 286.196 55.863 290.056 59.7341C293.917 63.6052 298.717 65.5403 304.456 65.5403C310.196 65.5403 314.996 63.6052 318.856 59.7341C322.716 55.863 324.646 51.0494 324.646 45.2942C324.646 39.5382 322.716 34.7246 318.856 30.8527C314.996 26.9816 310.196 25.0465 304.456 25.0465C298.717 25.0465 293.917 26.9816 290.056 30.8527C286.196 34.7246 284.266 39.5382 284.266 45.2942ZM292.647 45.2942C292.647 41.3202 293.739 38.1619 295.923 35.8194C298.107 33.4759 300.951 32.3047 304.455 32.3047C307.96 32.3047 310.805 33.4759 312.99 35.8194C315.174 38.1619 316.265 41.3202 316.265 45.2942C316.265 49.2665 315.174 52.4248 312.99 54.7674C310.805 57.1108 307.96 58.2821 304.455 58.2821C300.951 58.2821 298.107 57.1108 295.923 54.7674C293.739 52.4248 292.647 49.2665 292.647 45.2942ZM215.179 25.8215L215.172 45.2942C215.172 53.0178 210.392 58.2536 204.435 58.2819L204.254 58.282L204.072 58.2819C198.115 58.2536 193.335 53.0178 193.335 45.2942V25.8215H186.062V45.2942C186.062 56.8841 192.722 65.1178 203.295 65.5244C206.416 65.5244 208.345 64.6991 210.379 63.4397C211.243 62.9046 212.055 62.2807 212.817 61.5679C213.579 60.8542 214.074 60.3579 214.303 60.0772C214.531 59.7974 214.697 59.5809 214.798 59.4287H215.179L215.179 65.8598H223.48L223.179 25.8103L215.179 25.8215Z" fill="white"/>
<path d="M71 44L37 0H65.1075C68.8239 0 72.3306 1.72191 74.6029 4.66263L104 42.7059L102.47 44H71Z" fill="url(#paint0_linear_356_22853)"/>
<path d="M71 44L37 0H65.1075C68.8239 0 72.3306 1.72191 74.6029 4.66263L104 42.7059L102.47 44H71Z" fill="url(#paint1_radial_356_22853)"/>
<path d="M71 44H39.53L38.5455 46L48.8027 59.2741C51.8638 63.2356 51.8638 68.7644 48.8027 72.7259L37 88H65.1075C68.8239 88 72.3306 86.2781 74.6029 83.3374L81.8577 73.9488C85.4755 69.2671 85.4755 62.7329 81.8577 58.0512L71 44Z" fill="url(#paint2_linear_356_22853)"/>
<path d="M33.869 0C30.1659 0 26.6703 1.70967 24.3968 4.63271L4.91153 29.6852C1.72826 33.778 0 38.815 0 44C0 49.185 1.72826 54.222 4.91153 58.3148L24.3968 83.3673C26.6703 86.2903 30.1659 88 33.869 88H65.1075C65.5717 88 66.0326 87.9731 66.4883 87.9204C63.3088 87.5523 60.3853 85.9239 58.3968 83.3673L37.1222 56.0142C34.4505 52.5792 33 48.3517 33 44C33 39.6483 34.4505 35.4208 37.1222 31.9858L58.3968 4.63271C60.3853 2.07607 63.3088 0.447669 66.4883 0.0796094C66.0326 0.0268632 65.5717 0 65.1075 0H33.869Z" fill="url(#paint3_linear_356_22853)"/>
<path d="M33.869 0C30.1659 0 26.6703 1.70967 24.3968 4.63271L4.91153 29.6852C1.72826 33.778 0 38.815 0 44C0 49.185 1.72826 54.222 4.91153 58.3148L24.3968 83.3673C26.6703 86.2903 30.1659 88 33.869 88H65.1075C65.5717 88 66.0326 87.9731 66.4883 87.9204C63.3088 87.5523 60.3853 85.9239 58.3968 83.3673L37.1222 56.0142C34.4505 52.5792 33 48.3517 33 44C33 39.6483 34.4505 35.4208 37.1222 31.9858L58.3968 4.63271C60.3853 2.07607 63.3088 0.447669 66.4883 0.0796094C66.0326 0.0268632 65.5717 0 65.1075 0H33.869Z" fill="url(#paint4_radial_356_22853)" fill-opacity="0.5"/>
<path d="M71 44H39.532L38.55 46H70.018L71 44Z" fill="url(#paint5_linear_356_22853)"/>
<path d="M38.7137 45.6667H70.1817L70.018 46H38.55L38.7137 45.6667Z" fill="#2F2BAD"/>
<path d="M65.2217 0.000549316C68.8957 0.035436 72.3539 1.75207 74.6029 4.66264L104 42.7059L102.472 44L73.0204 5.88554C71.15 3.46508 68.2762 2.03545 65.2217 2.00066C62.1781 2.03533 59.3133 3.45498 57.4421 5.86102L37.1193 31.9932C34.4495 35.4262 33 39.6511 33 44C33 48.3489 34.4495 52.5738 37.1193 56.0068L57.4421 82.139C59.3133 84.5451 62.1781 85.9647 65.2217 85.9994C68.2762 85.9646 71.15 84.5349 73.0204 82.1145L80.2752 72.7259C83.3363 68.7644 83.3363 63.2356 80.2752 59.2741L70.0179 46L71 44L81.8577 58.0512C85.4755 62.7329 85.4755 69.2671 81.8577 73.9488L74.6029 83.3374C72.3539 86.2479 68.8957 87.9646 65.2217 87.9995C61.5609 87.9647 58.1134 86.2601 55.8633 83.3668L35.5405 57.2346C32.5977 53.4506 31 48.7936 31 44C31 39.2064 32.5977 34.5495 35.5405 30.7654L55.8633 4.63322C58.1134 1.73996 61.5609 0.0353127 65.2217 0.000549316Z" fill="url(#paint6_linear_356_22853)"/>
<path d="M65.3885 0.00328938C65.333 0.00199152 65.2774 0.0010776 65.2217 0.000549316C61.5609 0.0353127 58.1134 1.73996 55.8633 4.63322L35.5405 30.7654C32.5977 34.5495 31 39.2064 31 44C31 48.7936 32.5977 53.4506 35.5405 57.2346L55.8633 83.3668C58.1134 86.2601 61.5609 87.9647 65.2217 87.9995C65.2774 87.9989 65.333 87.998 65.3885 87.9967C61.7899 87.9126 58.4127 86.2161 56.1968 83.3668L35.874 57.2346C32.9312 53.4506 31.3335 48.7936 31.3335 44C31.3335 39.2064 32.9312 34.5495 35.874 30.7654L56.1968 4.63322C58.4127 1.78392 61.7898 0.0873966 65.3885 0.00328938Z" fill="url(#paint7_linear_356_22853)"/>
<path d="M102.674 43.8293L73.3539 5.88554C71.4835 3.46508 68.6097 2.03545 65.5552 2.00066C65.4996 2.00129 65.444 2.00239 65.3885 2.00395C68.3806 2.08787 71.1841 3.50917 73.0204 5.88554L102.472 44L102.674 43.8293Z" fill="url(#paint8_linear_356_22853)"/>
<path d="M65.3885 85.9961C65.444 85.9976 65.4996 85.9987 65.5552 85.9994C68.6097 85.9646 71.4835 84.5349 73.3539 82.1145L80.6087 72.7259C83.6698 68.7644 83.6698 63.2356 80.6087 59.2741L70.3514 46L71.2039 44.2639L71 44L70.0179 46L80.2752 59.2741C83.3363 63.2356 83.3363 68.7644 80.2752 72.7259L73.0204 82.1145C71.1841 84.4908 68.3806 85.9121 65.3885 85.9961Z" fill="url(#paint9_linear_356_22853)"/>
</g>
<defs>
<linearGradient id="paint0_linear_356_22853" x1="70.5" y1="0" x2="70.5" y2="44" gradientUnits="userSpaceOnUse">
<stop offset="0.0536645" stop-color="#181759"/>
<stop offset="0.1875" stop-color="#242189"/>
<stop offset="1" stop-color="#201D7F"/>
</linearGradient>
<radialGradient id="paint1_radial_356_22853" cx="0" cy="0" r="1" gradientUnits="userSpaceOnUse" gradientTransform="translate(52 -3.69958e-06) rotate(67.1955) scale(47.731 42.6059)">
<stop stop-color="#111048"/>
<stop offset="0.636996" stop-color="#111048" stop-opacity="0"/>
</radialGradient>
<linearGradient id="paint2_linear_356_22853" x1="62.5" y1="88" x2="62.5" y2="44" gradientUnits="userSpaceOnUse">
<stop stop-color="#3836A6"/>
<stop offset="0.184295" stop-color="#242291"/>
<stop offset="0.388422" stop-color="#2B29A3"/>
<stop offset="0.478039" stop-color="#3330B7"/>
<stop offset="0.598793" stop-color="#3330B7"/>
<stop offset="0.729654" stop-color="#201E8E"/>
</linearGradient>
<linearGradient id="paint3_linear_356_22853" x1="34" y1="0" x2="34" y2="88" gradientUnits="userSpaceOnUse">
<stop stop-color="#AFADF2"/>
<stop offset="0.0660341" stop-color="#504DC7"/>
<stop offset="0.29271" stop-color="#3834AC"/>
<stop offset="0.38355" stop-color="#2F2BAE"/>
<stop offset="0.480862" stop-color="#332FB6"/>
<stop offset="0.562202" stop-color="#2F2BAF"/>
<stop offset="0.653042" stop-color="#1F1C80"/>
<stop offset="0.937093" stop-color="#1A1871"/>
<stop offset="1" stop-color="#0D0C31"/>
</linearGradient>
<radialGradient id="paint4_radial_356_22853" cx="0" cy="0" r="1" gradientUnits="userSpaceOnUse" gradientTransform="translate(68 -2.11352e-06) rotate(147.095) scale(80.9938 62.5861)">
<stop stop-color="#BDBBEF"/>
<stop offset="0.697917" stop-color="#9896DF" stop-opacity="0"/>
</radialGradient>
<linearGradient id="paint5_linear_356_22853" x1="38.5" y1="45" x2="70.5" y2="45" gradientUnits="userSpaceOnUse">
<stop stop-color="white"/>
<stop offset="0.0001" stop-color="#222085"/>
<stop offset="1" stop-color="#3532A9"/>
</linearGradient>
<linearGradient id="paint6_linear_356_22853" x1="31" y1="4.75208e-07" x2="104" y2="88" gradientUnits="userSpaceOnUse">
<stop stop-color="#6159E4"/>
<stop offset="1" stop-color="#4A43D5"/>
</linearGradient>
<linearGradient id="paint7_linear_356_22853" x1="66.8368" y1="0.000549316" x2="66.8368" y2="87.9995" gradientUnits="userSpaceOnUse">
<stop stop-color="#958AFF"/>
<stop offset="0.5" stop-color="#958AFF"/>
<stop offset="1" stop-color="#958AFF"/>
</linearGradient>
<linearGradient id="paint8_linear_356_22853" x1="66.8368" y1="0.000549316" x2="66.8368" y2="87.9995" gradientUnits="userSpaceOnUse">
<stop stop-color="#958AFF"/>
<stop offset="0.5" stop-color="#958AFF"/>
<stop offset="1" stop-color="#958AFF"/>
</linearGradient>
<linearGradient id="paint9_linear_356_22853" x1="66.8368" y1="0.000549316" x2="66.8368" y2="87.9995" gradientUnits="userSpaceOnUse">
<stop stop-color="#958AFF"/>
<stop offset="0.5" stop-color="#958AFF"/>
<stop offset="1" stop-color="#958AFF"/>
</linearGradient>
<clipPath id="clip0_356_22853">
<rect width="325" height="88" fill="white"/>
</clipPath>
</defs>
</svg>
