<svg width="388" height="176" viewBox="0 0 388 176" fill="none" xmlns="http://www.w3.org/2000/svg">
<g clip-path="url(#clip0_356_22333)">
<path d="M108 132H108.131C111.834 132 115.33 130.291 117.603 127.368L126.848 115.483C130.21 111.161 130.22 105.111 126.872 100.778L117 88H148L117.603 48.6626C115.331 45.7219 111.824 44 108.108 44H108L95.4593 60.1238L117 88H86L95.8725 100.778C99.2201 105.111 99.2101 111.161 95.8483 115.483L95.5007 115.93L108 132Z" fill="black"/>
<path d="M108.125 44H77.869C74.1659 44 70.6703 45.7097 68.3968 48.6327L48.9115 73.6852C45.7283 77.778 44 82.815 44 88C44 93.185 45.7283 98.222 48.9115 102.315L68.3968 127.367C70.6703 130.29 74.1659 132 77.869 132H108.13L108.085 131.974C104.677 131.752 101.509 130.083 99.3968 127.367L79.9115 102.315C76.7283 98.222 75 93.185 75 88C75 82.815 76.7283 77.778 79.9115 73.6852L99.3968 48.6327C101.496 45.9335 104.638 44.2689 108.023 44.0298C108.059 44.0273 108.125 44.0423 108.125 44Z" fill="black"/>
<path d="M216.224 57.75H208.225V109.75H216.224V57.75Z" fill="black"/>
<path fill-rule="evenodd" clip-rule="evenodd" d="M163.775 89.2265C163.781 95.2397 165.509 100.129 168.958 103.896V103.905C170.621 105.713 172.651 107.145 174.913 108.106C177.174 109.067 179.614 109.533 182.07 109.475C184.796 109.443 187.47 108.719 189.84 107.372C190.708 106.837 191.519 106.215 192.26 105.515C192.784 105.045 193.281 104.546 193.747 104.019C193.924 103.814 194.088 103.6 194.24 103.377H194.627V116.89H170.625V124.15H195.996C199.658 124.15 202.626 121.182 202.626 117.52V69.7524H194.627V74.7243H194.24L193.035 73.246C191.765 72.0512 190.293 71.0918 188.687 70.4124C186.615 69.44 184.35 68.9496 182.061 68.978C179.607 68.9223 177.17 69.3957 174.915 70.366C172.66 71.3363 170.64 72.7807 168.993 74.6011C165.509 78.3381 163.769 83.2132 163.775 89.2265ZM171.053 89.2353C171.053 85.2695 172.144 82.1133 174.326 79.7666C176.593 77.5124 179.66 76.247 182.858 76.247C186.055 76.247 189.122 77.5124 191.389 79.7666C193.571 82.1074 194.665 85.2636 194.671 89.2353C194.677 93.2069 193.583 96.3661 191.389 98.7127C189.12 100.963 186.053 102.225 182.858 102.225C179.662 102.225 176.596 100.963 174.326 98.7127C172.144 96.3602 171.053 93.201 171.053 89.2353Z" fill="black"/>
<path fill-rule="evenodd" clip-rule="evenodd" d="M266.632 97.0463C267.616 99.5297 269.09 101.783 270.965 103.668C273.787 106.465 277.359 108.359 281.237 109.113C285.115 109.866 289.126 109.447 292.769 107.907C296.413 106.366 299.528 103.773 301.725 100.451C302.507 99.2706 303.16 98.0161 303.678 96.71H295.074C294.659 97.43 294.172 98.095 293.612 98.7051C291.37 100.955 288.342 102.218 285.186 102.218C282.031 102.218 279.002 100.955 276.761 98.7051C275.109 96.9011 274.088 94.6227 273.699 91.87L304.942 91.87C305.06 90.9974 305.121 90.1148 305.126 89.2275C305.181 86.5405 304.707 83.8692 303.729 81.3704C302.752 78.8715 301.292 76.5953 299.435 74.6751C297.578 72.7549 295.361 71.2294 292.915 70.1879C290.468 69.1464 287.841 68.61 285.186 68.61C282.532 68.61 279.905 69.1464 277.458 70.1879C275.012 71.2294 272.795 72.7549 270.938 74.6751C269.081 76.5953 267.621 78.8715 266.644 81.3704C265.666 83.8692 265.192 86.5405 265.247 89.2275C265.178 91.9022 265.649 94.5629 266.632 97.0463ZM274.101 84.61C274.629 82.7252 275.515 81.1081 276.761 79.7587C279 77.5044 282.029 76.2391 285.186 76.2391C288.344 76.2391 291.373 77.5044 293.612 79.7587C294.852 81.1058 295.735 82.7229 296.262 84.61H274.101Z" fill="black"/>
<path fill-rule="evenodd" clip-rule="evenodd" d="M227.275 103.668C225.4 101.783 223.926 99.5297 222.942 97.0463C221.959 94.5629 221.488 91.9022 221.557 89.2275C221.502 86.5405 221.976 83.8692 222.954 81.3704C223.931 78.8715 225.391 76.5953 227.248 74.6751C229.105 72.7549 231.322 71.2294 233.768 70.1879C236.215 69.1464 238.842 68.61 241.496 68.61C244.151 68.61 246.778 69.1464 249.225 70.1879C251.671 71.2294 253.888 72.7549 255.745 74.6751C257.602 76.5953 259.062 78.8715 260.039 81.3704C261.017 83.8692 261.491 86.5405 261.436 89.2275C261.431 90.1148 261.37 90.9974 261.252 91.87L230.009 91.87C230.398 94.6227 231.419 96.9011 233.071 98.7051C235.312 100.955 238.341 102.218 241.496 102.218C244.652 102.218 247.68 100.955 249.922 98.7051C250.482 98.095 250.969 97.43 251.384 96.71H259.988C259.47 98.0161 258.817 99.2706 258.035 100.451C255.838 103.773 252.723 106.366 249.079 107.907C245.436 109.447 241.425 109.866 237.547 109.113C233.669 108.359 230.097 106.465 227.275 103.668ZM233.071 79.7587C231.825 81.1081 230.939 82.7252 230.411 84.61H252.572C252.045 82.7229 251.162 81.1058 249.922 79.7587C247.683 77.5044 244.654 76.2391 241.496 76.2391C238.339 76.2391 235.31 77.5044 233.071 79.7587Z" fill="black"/>
<path d="M306 69.7468H314.386L322.94 101.752H326.75L335.304 69.7468H343.69C342.447 74.269 341.204 78.7914 339.961 83.3139C337.54 92.1266 335.118 100.939 332.69 109.75H317L306 69.7468Z" fill="black"/>
</g>
<defs>
<clipPath id="clip0_356_22333">
<rect width="300" height="88" fill="white" transform="translate(44 44)"/>
</clipPath>
</defs>
</svg>
