<svg xmlns="http://www.w3.org/2000/svg" width="1310" height="800" viewBox="0 0 1310 800">
  <g fill="none" fill-rule="evenodd">
    <rect width="1310" height="800" fill="#4038FF"/>
    <g transform="matrix(0 -1 -1 0 1310 500)">
      <path fill="#261EE4" d="M177.868875 233.145277L166.765367 233.145277 166.765367 244.268264 177.868875 244.268264 177.868875 255.418891 166.765367 255.418891 166.765367 266.569518 177.868875 266.569518 177.868875 277.692505 189 277.692505 189 288.843132 177.868875 288.843132 177.868875 277.720145 166.765367 277.720145 166.765367 288.843132 177.868875 288.843132 177.868875 300 166.737751 300 166.737751 288.849373 155.634243 288.849373 155.634243 277.726386 144.503118 277.726386 144.503118 288.849373 133.371993 288.849373 133.371993 277.726386 122.268485 277.726386 122.268485 288.849373 133.371993 288.849373 133.371993 300 122.239978 300 122.239978 288.849373 111.13736 288.849373 111.13736 300 100 300 100 288.849373 111.131125 288.849373 111.131125 277.726386 100 277.726386 100 266.574868 111.131125 266.574868 111.131125 255.424241 100 255.424241 100 244.273614 111.131125 244.273614 111.131125 233.150627 111.131125 233.122987 122.234633 233.122987 122.234633 222 133.365757 222 133.365757 233.122987 144.496882 233.122987 144.496882 222 155.628897 222 155.628897 233.122987 166.732406 233.122987 166.732406 222 177.86353 222 177.86353 233.122987 188.994655 233.122987 188.994655 244.273614 177.86353 244.273614 177.86353 233.145277 177.868875 233.145277zM111 233.972735L111 223 100 223 100 234 111 234 111 233.972735zM145 289L145 300 156 300 156 289 145 289zM178 266L178 255 189 255 189 266 178 266zM122 277L111 277 111 266 122 266 122 277zM122.263586 222L122.263586 211 133.367761 211 133.367761 222 144.499555 222 144.499555 211 155.632239 211 155.632239 222 166.764032 222 166.764032 211 177.868207 211 177.868207 222 189 222 189 211 177.868207 211 177.868207 200 166.736414 200 166.736414 211 155.632239 211 155.632239 200 144.499555 200 144.499555 211 133.367761 211 133.367761 200 122.235968 200 122.235968 211 111.131793 211 111.131793 200 100 200 100 211 111.131793 211 111.131793 222 122.263586 222zM166 244L166 255 155 255 155 244 166 244zM145 245L145 234 156 234 156 245 145 245zM134 244L145 244 145 255 134 255 134 244zM134 245L123 245 123 234 134 234 134 245zM134 266L123 266 123 255 134 255 134 266zM145 266L145 277 134 277 134 266 145 266zM156 266L145 266 145 255 156 255 156 266zM155 266L166 266 166 277 155 277 155 266zM122 255L122 244 111 244 111 255 122 255zM200 289L189 289 189 300 200 300 200 289zM189 266L200 266 200 277 189 277 189 266zM200 244L189 244 189 255 200 255 200 244zM189 223L200 223 200 234 189 234 189 223zM189 200L200 200 200 211 189 211 189 200zM477.868875 33.1452773L466.765367 33.1452773 466.765367 44.268264 477.868875 44.268264 477.868875 55.418891 466.765367 55.418891 466.765367 66.569518 477.868875 66.569518 477.868875 77.6925047 489 77.6925047 489 88.8431317 477.868875 88.8431317 477.868875 77.7201449 466.765367 77.7201449 466.765367 88.8431317 477.868875 88.8431317 477.868875 100 466.737751 100 466.737751 88.849373 455.634243 88.849373 455.634243 77.7263863 444.503118 77.7263863 444.503118 88.849373 433.371993 88.849373 433.371993 77.7263863 422.268485 77.7263863 422.268485 88.849373 433.371993 88.849373 433.371993 100 422.239978 100 422.239978 88.849373 411.13736 88.849373 411.13736 100 400 100 400 88.849373 411.131125 88.849373 411.131125 77.7263863 400 77.7263863 400 66.5748677 411.131125 66.5748677 411.131125 55.4242407 400 55.4242407 400 44.2736137 411.131125 44.2736137 411.131125 33.150627 411.131125 33.1229867 422.234633 33.1229867 422.234633 22 433.365757 22 433.365757 33.1229867 444.496882 33.1229867 444.496882 22 455.628897 22 455.628897 33.1229867 466.732406 33.1229867 466.732406 22 477.86353 22 477.86353 33.1229867 488.994655 33.1229867 488.994655 44.2736137 477.86353 44.2736137 477.86353 33.1452773 477.868875 33.1452773zM411 33.9727353L411 23 400 23 400 34 411 34 411 33.9727353zM445 89L445 100 456 100 456 89 445 89zM478 66L478 55 489 55 489 66 478 66zM422 77L411 77 411 66 422 66 422 77zM422.263586 22L422.263586 11 433.367761 11 433.367761 22 444.499555 22 444.499555 11 455.632239 11 455.632239 22 466.764032 22 466.764032 11 477.868207 11 477.868207 22 489 22 489 11 477.868207 11 477.868207 0 466.736414 0 466.736414 11 455.632239 11 455.632239 0 444.499555 0 444.499555 11 433.367761 11 433.367761 0 422.235968 0 422.235968 11 411.131793 11 411.131793 0 400 0 400 11 411.131793 11 411.131793 22 422.263586 22zM466 44L466 55 455 55 455 44 466 44zM445 45L445 34 456 34 456 45 445 45zM434 44L445 44 445 55 434 55 434 44zM434 45L423 45 423 34 434 34 434 45zM434 66L423 66 423 55 434 55 434 66zM445 66L445 77 434 77 434 66 445 66zM456 66L445 66 445 55 456 55 456 66zM455 66L466 66 466 77 455 77 455 66zM422 55L422 44 411 44 411 55 422 55zM500 89L489 89 489 100 500 100 500 89zM489 66L500 66 500 77 489 77 489 66zM500 44L489 44 489 55 500 55 500 44zM489 23L500 23 500 34 489 34 489 23zM489 0L500 0 500 11 489 11 489 0zM489 400L500 400 500 300 489 300 489 400zM477 400L466 400 466 300 477 300 477 400zM456 400L445 400 445 300 456 300 456 400zM423 400L434 400 434 300 423 300 423 400zM411 400L400 400 400 300 411 300 411 400zM389 300L400 300 400 200 389 200 389 300zM377 300L366 300 366 200 377 200 377 300zM356 300L345 300 345 200 356 200 356 300zM323 300L334 300 334 200 323 200 323 300zM311 300L300 300 300 200 311 200 311 300zM300 111L300 100 200 100 200 111 300 111zM300 123L300 134 200 134 200 123 300 123zM300 144L300 155 200 155 200 144 300 144zM300 177L300 166 200 166 200 177 300 177zM300 189L300 200 200 200 200 189 300 189zM400 389L400 400 300 400 300 389 400 389zM400 355L400 344 300 344 300 355 400 355zM400 323L400 334 300 334 300 323 400 323zM400 300L400 311 300 311 300 300 400 300zM400 377L400 366 300 366 300 377 400 377z"/>
      <path fill="#FFF" d="M488.88879,400 L500,400 C500,455.227556 455.227758,500 400,500 L400,488.888889 C449.094306,488.888889 488.88879,449.094222 488.88879,400 Z M466.857015,400 L478,400 C478,443.078286 443.078356,478 400,478 L400,466.857143 C436.92201,466.857143 466.857015,436.92208 466.857015,400 Z M455,400 L444,400 C444,424.29856 424.298823,444 400,444 L400,455 C430.376171,455 455,430.37672 455,400 Z M422.666667,400 L434,400 C434,418.77888 418.779086,434 400,434 L400,422.666667 C412.517575,422.666667 422.666667,412.51744 422.666667,400 Z M400,400 L411,400 C411,406.07728 406.077348,411 400,411 L400,400 Z"/>
      <path fill="#261EE4" d="M211.11121,400 L200,400 C200,344.772444 244.772242,300 300,300 L300,311.111111 C250.905694,311.111111 211.11121,350.905778 211.11121,400 Z M233.142985,400 L222,400 C222,356.921714 256.921644,322 300,322 L300,333.142857 C263.07799,333.142857 233.142985,363.07792 233.142985,400 Z M245,400 L256.000176,400 C256.000176,375.70056 275.700788,356 300,356 L300,345 C269.623343,345 245,369.62328 245,400 Z M277.332728,400 L266,400 C266,381.220213 281.220413,366 300,366 L300,377.333333 C287.48209,377.333333 277.332728,387.48256 277.332728,400 Z M300,400 L289,400 C289,393.92272 293.922652,389 300,389 L300,400 Z" transform="rotate(90 250 350)"/>
      <path fill="#FFF" d="M11.11121,100 L0,100 C0,44.7724444 44.772242,0 100,0 L100,11.1111111 C50.905694,11.1111111 11.11121,50.9057778 11.11121,100 Z M33.1429846,100 L22,100 C22,56.9217143 56.9216444,22 100,22 L100,33.1428571 C63.0779895,33.1428571 33.1429846,63.07792 33.1429846,100 Z M45,100 L56.0001762,100 C56.0001762,75.70056 75.7007879,56 100,56 L100,45 C69.6233425,45 45,69.62328 45,100 Z M77.3327283,100 L66,100 C66,81.2202133 81.2204132,66 100,66 L100,77.3333333 C87.4820904,77.3333333 77.3327283,87.48256 77.3327283,100 Z M100,100 L89,100 C89,93.92272 93.9226519,89 100,89 L100,100 Z"/>
      <path fill="#FFF" d="M311.11121,100 L300,100 C300,44.7724444 344.772242,0 400,0 L400,11.1111111 C350.905694,11.1111111 311.11121,50.9057778 311.11121,100 Z M333.142985,100 L322,100 C322,56.9217143 356.921644,22 400,22 L400,33.1428571 C363.07799,33.1428571 333.142985,63.07792 333.142985,100 Z M345,100 L356.000176,100 C356.000176,75.70056 375.700788,56 400,56 L400,45 C369.623343,45 345,69.62328 345,100 Z M377.332728,100 L366,100 C366,81.2202133 381.220413,66 400,66 L400,77.3333333 C387.48209,77.3333333 377.332728,87.48256 377.332728,100 Z M400,100 L389,100 C389,93.92272 393.922652,89 400,89 L400,100 Z" transform="rotate(-90 350 50)"/>
      <path fill="#261EE4" d="M111.11121,100 L100,100 C100,44.7724444 144.772242,0 200,0 L200,11.1111111 C150.905694,11.1111111 111.11121,50.9057778 111.11121,100 Z M133.142985,100 L122,100 C122,56.9217143 156.921644,22 200,22 L200,33.1428571 C163.07799,33.1428571 133.142985,63.07792 133.142985,100 Z M145,100 L156.000176,100 C156.000176,75.70056 175.700788,56 200,56 L200,45 C169.623343,45 145,69.62328 145,100 Z M177.332728,100 L166,100 C166,81.2202133 181.220413,66 200,66 L200,77.3333333 C187.48209,77.3333333 177.332728,87.48256 177.332728,100 Z M200,100 L189,100 C189,93.92272 193.922652,89 200,89 L200,100 Z" transform="rotate(-180 150 50)"/>
      <path fill="#261EE4" fill-rule="nonzero" d="M400,700 L500,700 L500,600 C444.772242,600 400,644.772444 400,700 Z"/>
      <path fill="#261EE4" d="M500,792.167111 L500,800 L492.16637,800 L400,707.833778 L400,700 L407.83274,700 L500,792.167111 Z M400,724 L400,739.631256 L460.369773,800 L476,800 L400,724 Z M400,770.721778 L400,755 L445,800 L429.27758,800 L400,770.721778 Z M400,800 L414,800 L400,786 L400,800 Z M424,700 L439.63093,700 L500,760.368744 L500,776 L424,700 Z M470.72242,700 L455,700 L500,745 L500,729.278222 L470.72242,700 Z M500,714 L486,700 L500,700 L500,714 Z"/>
      <path fill="#261EE4" d="M500,192.167111 L500,200 L492.16637,200 L400,107.833778 L400,100 L407.83274,100 L500,192.167111 Z M400,124 L400,139.631256 L460.369773,200 L476,200 L400,124 Z M400,170.721778 L400,155 L445,200 L429.27758,200 L400,170.721778 Z M400,200 L414,200 L400,186 L400,200 Z M424,100 L439.63093,100 L500,160.368744 L500,176 L424,100 Z M470.72242,100 L455,100 L500,145 L500,129.278222 L470.72242,100 Z M500,114 L486,100 L500,100 L500,114 Z" transform="rotate(90 450 150)"/>
    </g>
    <g transform="matrix(0 1 1 0 -400 300)">
      <path fill="#FFF" d="M488.88879,400 L500,400 C500,455.227556 455.227758,500 400,500 L400,488.888889 C449.094306,488.888889 488.88879,449.094222 488.88879,400 Z M466.857015,400 L478,400 C478,443.078286 443.078356,478 400,478 L400,466.857143 C436.92201,466.857143 466.857015,436.92208 466.857015,400 Z M455,400 L444,400 C444,424.29856 424.298823,444 400,444 L400,455 C430.376171,455 455,430.37672 455,400 Z M422.666667,400 L434,400 C434,418.77888 418.779086,434 400,434 L400,422.666667 C412.517575,422.666667 422.666667,412.51744 422.666667,400 Z M400,400 L411,400 C411,406.07728 406.077348,411 400,411 L400,400 Z"/>
      <path fill="#261EE4" d="M111.11121,500 L100,500 C100,444.772444 144.772242,400 200,400 L200,411.111111 C150.905694,411.111111 111.11121,450.905778 111.11121,500 Z M133.142985,500 L122,500 C122,456.921714 156.921644,422 200,422 L200,433.142857 C163.07799,433.142857 133.142985,463.07792 133.142985,500 Z M145,500 L156.000176,500 C156.000176,475.70056 175.700788,456 200,456 L200,445 C169.623343,445 145,469.62328 145,500 Z M177.332728,500 L166,500 C166,481.220213 181.220413,466 200,466 L200,477.333333 C187.48209,477.333333 177.332728,487.48256 177.332728,500 Z M200,500 L189,500 C189,493.92272 193.922652,489 200,489 L200,500 Z"/>
      <path fill="#FFF" d="M311.11121,700 L300,700 C300,644.772444 344.772242,600 400,600 L400,611.111111 C350.905694,611.111111 311.11121,650.905778 311.11121,700 Z M333.142985,700 L322,700 C322,656.921714 356.921644,622 400,622 L400,633.142857 C363.07799,633.142857 333.142985,663.07792 333.142985,700 Z M345,700 L356.000176,700 C356.000176,675.70056 375.700788,656 400,656 L400,645 C369.623343,645 345,669.62328 345,700 Z M377.332728,700 L366,700 C366,681.220213 381.220413,666 400,666 L400,677.333333 C387.48209,677.333333 377.332728,687.48256 377.332728,700 Z M400,700 L389,700 C389,693.92272 393.922652,689 400,689 L400,700 Z" transform="matrix(-1 0 0 1 700 0)"/>
      <path fill="#261EE4" fill-rule="nonzero" d="M200 600L300 600 300 500C244.772242 500 200 544.772444 200 600zM400 700L500 700 500 600C444.772242 600 400 644.772444 400 700z"/>
      <path fill="#261EE4" d="M500 792.167111L500 800 492.16637 800 400 707.833778 400 700 407.83274 700 500 792.167111zM400 724L400 739.631256 460.369773 800 476 800 400 724zM400 770.721778L400 755 445 800 429.27758 800 400 770.721778zM400 800L414 800 400 786 400 800zM424 700L439.63093 700 500 760.368744 500 776 424 700zM470.72242 700L455 700 500 745 500 729.278222 470.72242 700zM500 714L486 700 500 700 500 714zM377.868875 833.145277L366.765367 833.145277 366.765367 844.268264 377.868875 844.268264 377.868875 855.418891 366.765367 855.418891 366.765367 866.569518 377.868875 866.569518 377.868875 877.692505 389 877.692505 389 888.843132 377.868875 888.843132 377.868875 877.720145 366.765367 877.720145 366.765367 888.843132 377.868875 888.843132 377.868875 900 366.737751 900 366.737751 888.849373 355.634243 888.849373 355.634243 877.726386 344.503118 877.726386 344.503118 888.849373 333.371993 888.849373 333.371993 877.726386 322.268485 877.726386 322.268485 888.849373 333.371993 888.849373 333.371993 900 322.239978 900 322.239978 888.849373 311.13736 888.849373 311.13736 900 300 900 300 888.849373 311.131125 888.849373 311.131125 877.726386 300 877.726386 300 866.574868 311.131125 866.574868 311.131125 855.424241 300 855.424241 300 844.273614 311.131125 844.273614 311.131125 833.150627 311.131125 833.122987 322.234633 833.122987 322.234633 822 333.365757 822 333.365757 833.122987 344.496882 833.122987 344.496882 822 355.628897 822 355.628897 833.122987 366.732406 833.122987 366.732406 822 377.86353 822 377.86353 833.122987 388.994655 833.122987 388.994655 844.273614 377.86353 844.273614 377.86353 833.145277 377.868875 833.145277zM311 833.972735L311 823 300 823 300 834 311 834 311 833.972735zM345 889L345 900 356 900 356 889 345 889zM378 866L378 855 389 855 389 866 378 866zM322 877L311 877 311 866 322 866 322 877zM322.263586 822L322.263586 811 333.367761 811 333.367761 822 344.499555 822 344.499555 811 355.632239 811 355.632239 822 366.764032 822 366.764032 811 377.868207 811 377.868207 822 389 822 389 811 377.868207 811 377.868207 800 366.736414 800 366.736414 811 355.632239 811 355.632239 800 344.499555 800 344.499555 811 333.367761 811 333.367761 800 322.235968 800 322.235968 811 311.131793 811 311.131793 800 300 800 300 811 311.131793 811 311.131793 822 322.263586 822zM366 844L366 855 355 855 355 844 366 844zM345 845L345 834 356 834 356 845 345 845zM334 844L345 844 345 855 334 855 334 844zM334 845L323 845 323 834 334 834 334 845zM334 866L323 866 323 855 334 855 334 866zM345 866L345 877 334 877 334 866 345 866zM356 866L345 866 345 855 356 855 356 866zM355 866L366 866 366 877 355 877 355 866zM322 855L322 844 311 844 311 855 322 855zM400 889L389 889 389 900 400 900 400 889zM389 866L400 866 400 877 389 877 389 866zM400 844L389 844 389 855 400 855 400 844zM389 823L400 823 400 834 389 834 389 823zM389 800L400 800 400 811 389 811 389 800z"/>
    </g>
    <g transform="translate(504 200)">
      <path fill="#4038FF" d="M37.5245809,124.744711 C42.2755168,124.744711 68.9405091,121.230775 82.0304792,116.838356 C77.6671559,162.519517 44.5058983,329.431454 58.4685331,367.206261 C67.4296992,392.418581 86.9027047,401.833547 107.337755,399.710164 C137.775094,396.547455 188.936139,394.746706 233.001468,389.168358 C254.197654,386.485076 275.762037,386.485076 288.852007,378.626551 C310.803715,365.447908 302.5644,328.171987 288.852007,303.076938 C283.852434,293.927221 280.214075,296.049067 267.908055,296.049067 C267.908055,271.451518 275.960503,235.180379 280.214075,199.083644 C285.997037,150.008172 288.852007,89.6589987 288.852007,71.1571941 C288.852007,39.0466614 274.709056,0 257.436078,0 C200.712875,0 64.9185435,8.78483877 43.6332336,8.78483877 C15.9205687,8.78483877 0,35.4711002 0,66.7647747 C0,98.0584492 9.81191598,124.744711 37.5245809,124.744711 Z"/>
      <path fill="#D2DAFF" d="M69.6,20.47651 L251.958974,14.4 C265.852991,25.0097794 272.8,54.8136142 272.8,103.811504 C272.8,152.809395 265.852991,216.468071 251.958974,294.787533 C157.649785,299.543772 106.126138,302.618906 97.3880342,304.012935 C88.6499304,305.406964 80.8082313,311.802653 73.8629371,323.2 C82.3888112,258.607936 90.2305102,204.286683 97.3880342,160.23624 C101.552195,134.608228 102.666162,87.8222449 97.3880342,61.2759344 C93.869282,43.578394 84.6066039,29.9785859 69.6,20.47651 Z"/>
      <path fill="#000" d="M121.250318,90.1459214 C174.950499,88.1863187 210.750112,88.1722145 228.649158,90.1036086 C255.497726,93.0006999 256.911857,94.3262846 224.406686,97.8590641 C191.901515,101.391844 173.180725,99.9771128 145.270699,97.8902419 C126.664015,96.4989947 118.657221,93.9175545 121.250318,90.1459214 Z" transform="rotate(-6 184.786 94.34)"/>
      <path fill="#FFF" d="M108.083055 60.5170492C92.430181 40.3669412 79.6024959 27.0608297 69.6 20.5987148L251.924219 14.4C260.404833 21.0074827 266.29676 34.9125422 269.6 56.1151784 172.357286 72.4831643 118.518305 73.9504546 108.083055 60.5170492zM63.8592254 39.2C67.5397564 42.6529388 81.6 51.6931225 81.6 73.4618145 81.6 84.4067238 79.0422486 99.2394271 76.8727273 109.041391 51.2723759 113.923008 31.7695213 118.255983 29.6 114.69244 38.0719771 112.551868 44.3750074 107.593407 48.5090909 99.8170565 51.7787487 93.6667202 56.399354 80.8062762 55.6 66.873004 54.571559 48.9465923 44.0944282 43.8878324 41.9853562 41.7865188L63.8592254 39.2z"/>
      <path fill="#D2DAFF" d="M76.9908595 109.125771C51.3265341 113.948194 31.7749428 118.228627 29.6 114.708296 38.0931482 112.59368 44.4119294 107.695345 48.5563438 100.013291 50.3650063 96.6607683 54.1474436 87.9073692 63.5417068 81.7883304 69.8045489 77.7089712 75.82398 76.6095294 81.6 78.490005 81.0525848 88.6117282 78.8755899 100.734726 76.9908595 109.125771zM35.3928503 50.4C40.0642834 55.3739128 42.4 61.9653994 42.4 70.1744598 42.4 72.1210605 42.3325438 74.0127301 42.2018663 75.8430582L22.6727015 78.4C22.4708269 77.5487652 22.1761311 72.8377128 22.6727015 69.0666667 23.0909907 65.8901023 24.6302706 59.4052876 28.2823529 55.2431468 31.2432261 51.868751 34.9961803 50.4079706 35.3928503 50.4z"/>
      <path fill="#FFF" d="M270.283812,295.205524 C273.421553,294.985786 278.74988,301.333468 283.122953,312.161074 C290.090252,329.411909 281.175119,338.210883 271.05482,343.885579 C245.30563,348.744729 163.099958,362.456379 160.917823,358.909236 C128.22741,370.074431 113.961264,371.786748 118.119382,364.046187 C121.40805,357.924157 120.0978,354.630743 119.293798,340.761597 C118.259378,322.917688 107.721334,317.88221 105.6,315.790567 L270.283812,295.205524 Z"/>
      <path fill="#D2DAFF" d="M287.686121 344.983345C283.833771 362.282723 193.350597 366.299561 169.327869 370.304657 145.305142 374.309753 107.36112 381.976505 111.514398 374.354892 113.326929 371.028747 117.117456 362.344219 126.531811 356.273324 132.594465 352.36379 187.092078 331.511788 230.351732 324.237715 259.191502 319.388333 274.72163 312.642428 276.942116 304 291.605029 319.946496 287.321847 339.764289 287.686121 344.983345zM95.4745662 326.4C99.0248554 330.947577 100.8 336.974079 100.8 344.479506 100.8 346.259255 100.748733 347.988782 100.649418 349.662225L85.8072531 352C85.6538285 351.221728 85.4298596 346.91448 85.8072531 343.466667 86.1251529 340.562379 87.2950056 334.633406 90.0705882 330.82802 92.3208519 327.742858 95.173097 326.407287 95.4745662 326.4z"/>
      <path fill="#4038FF" d="M121.250318,90.1459214 C174.950499,88.1863187 210.750112,88.1722145 228.649158,90.1036086 C255.497726,93.0006999 256.911857,94.3262846 224.406686,97.8590641 C191.901515,101.391844 173.180725,99.9771128 145.270699,97.8902419 C126.664015,96.4989947 118.657221,93.9175545 121.250318,90.1459214 Z" transform="rotate(-6 184.786 94.34)"/>
      <path fill="#4038FF" d="M120.806819,156.759864 C165.855622,154.80367 195.887649,154.791838 210.902902,156.724369 C233.425781,159.623164 234.612001,160.948839 207.343434,164.479555 C180.074867,168.010271 164.370226,166.594352 140.956847,164.50571 C125.347927,163.113282 118.631252,160.531333 120.806819,156.759864 Z" transform="rotate(-6 174.107 160.957)"/>
      <path fill="#4038FF" d="M116.604311,193.082372 C172.321558,191.125567 209.465965,191.113345 228.037533,193.045704 C255.894885,195.944243 257.362243,197.269919 223.636311,200.801034 C189.91038,204.33215 170.48624,202.916417 141.527622,200.828053 C122.221876,199.43581 113.914106,196.853916 116.604311,193.082372 Z" transform="rotate(175 182.527 197.28)"/>
      <path fill="#4038FF" d="M120.769172,125.561973 C149.221327,123.612317 168.188924,123.604844 177.671961,125.539554 C191.896517,128.441619 192.645516,129.767466 175.422755,133.294225 C158.199993,136.820983 148.281478,135.402784 133.494384,133.310743 C123.636321,131.916049 119.394584,129.333126 120.769172,125.561973 Z" transform="rotate(-6 154.432 129.768)"/>
      <path fill="#4038FF" d="M72.9780188,262.971659 C77.7953131,262.348314 81.28145,262.200141 83.4364295,262.527141 C87.8019,263.189564 92.6198811,262.328678 90.1859412,263.69991 C88.955422,264.393159 83.3783257,266.741866 80.0225968,267.939733 C79.0739584,268.278361 78.1724973,268.582277 77.3117319,268.854669 C82.7894451,268.867592 88.5870131,269.16098 95.4174989,269.871073 C112.956771,271.694444 111.92474,272.461821 96.3802775,274.28417 C93.2667587,274.649182 89.2813535,274.923554 84.4240618,275.107284 C86.1410172,275.675681 87.9249482,276.373557 89.8110395,277.226287 C93.5593479,278.920955 99.3793242,282.239102 100.463123,283.216563 C102.606853,285.149961 96.2422546,283.92086 88.8246986,284.829126 C85.0897023,285.286469 79.8076277,285.044355 72.9784748,284.102782 Z" transform="scale(1 -1) rotate(5 6359.537 0)"/>
      <path fill="#4038FF" d="M228.911203,12.8999917 C234.189442,12.2210632 238.017505,12.063198 240.395392,12.4263958 C245.274447,13.1716216 250.65925,12.2031248 247.938964,13.7457611 C246.563678,14.5256668 240.330453,17.167962 236.579932,18.5155625 C235.519689,18.8965187 234.512174,19.2384237 233.550142,19.5448646 C239.672292,19.5594039 246.151927,19.8894653 253.785999,20.6883198 C273.388715,22.7396124 272.235269,23.602911 254.862046,25.6530537 C251.382231,26.0636924 246.927954,26.3723603 241.499216,26.5790573 C243.418167,27.2185033 245.411972,28.0036139 247.519956,28.9629358 C251.709242,30.8694364 258.213921,34.6023519 259.425226,35.7019964 C261.82116,37.8770688 254.707785,36.4943298 246.417575,37.5161288 C242.280287,38.0260649 236.444525,37.7630431 228.910288,36.7270635 Z" transform="rotate(173 248.55 25.002)"/>
    </g>
  </g>
</svg>
