<svg xmlns="http://www.w3.org/2000/svg" width="1310" height="800" viewBox="0 0 1310 800">
  <g fill="none" fill-rule="evenodd">
    <rect width="1310" height="800" fill="#4038FF"/>
    <g transform="translate(910)">
      <path fill="#2316E8" d="M142.213523,346.680178 L133.342349,346.680178 L133.342349,355.551289 L142.213523,355.551289 L142.213523,364.444444 L133.342349,364.444444 L133.342349,373.3376 L142.213523,373.3376 L142.213523,382.208711 L151.106762,382.208711 L151.106762,391.101867 L142.213523,391.101867 L142.213523,382.230756 L133.342349,382.230756 L133.342349,391.101867 L142.213523,391.101867 L142.213523,400 L133.320285,400 L133.320285,391.106844 L124.44911,391.106844 L124.44911,382.235733 L115.555872,382.235733 L115.555872,391.106844 L106.662633,391.106844 L106.662633,382.235733 L97.7914591,382.235733 L97.7914591,391.106844 L106.662633,391.106844 L106.662633,400 L97.7686833,400 L97.7686833,391.106844 L88.8982206,391.106844 L88.8982206,400 L80,400 L80,391.106844 L88.8932384,391.106844 L88.8932384,382.235733 L80,382.235733 L80,373.341867 L88.8932384,373.341867 L88.8932384,364.448711 L80,364.448711 L80,355.555556 L88.8932384,355.555556 L88.8932384,346.684444 L88.8932384,346.6624 L97.7644128,346.6624 L97.7644128,337.791289 L106.657651,337.791289 L106.657651,346.6624 L115.55089,346.6624 L115.55089,337.791289 L124.44484,337.791289 L124.44484,346.6624 L133.316014,346.6624 L133.316014,337.791289 L142.209253,337.791289 L142.209253,346.6624 L151.102491,346.6624 L151.102491,355.555556 L142.209253,355.555556 L142.209253,346.680178 L142.213523,346.680178 Z M88.8932384,346.658133 L88.8932384,337.786311 L80,337.786311 L80,346.680178 L88.8932384,346.680178 L88.8932384,346.658133 Z M115.55089,391.106844 L115.55089,400 L124.44484,400 L124.44484,391.106844 L115.55089,391.106844 Z M142.213523,373.341867 L142.213523,364.448711 L151.106762,364.448711 L151.106762,373.341867 L142.213523,373.341867 Z M97.7644128,382.213689 L88.8932384,382.213689 L88.8932384,373.341867 L97.7644128,373.341867 L97.7644128,382.213689 Z M97.7864769,337.786311 L97.7864769,328.893156 L106.657651,328.893156 L106.657651,337.786311 L115.55089,337.786311 L115.55089,328.893156 L124.44484,328.893156 L124.44484,337.786311 L133.338078,337.786311 L133.338078,328.893156 L142.209253,328.893156 L142.209253,337.786311 L151.102491,337.786311 L151.102491,328.893156 L142.209253,328.893156 L142.209253,320 L133.316014,320 L133.316014,328.893156 L124.44484,328.893156 L124.44484,320 L115.55089,320 L115.55089,328.893156 L106.657651,328.893156 L106.657651,320 L97.7644128,320 L97.7644128,328.893156 L88.8932384,328.893156 L88.8932384,320 L80,320 L80,328.893156 L88.8932384,328.893156 L88.8932384,337.786311 L97.7864769,337.786311 Z M133.316014,355.551289 L133.316014,364.444444 L124.44484,364.444444 L124.44484,355.551289 L133.316014,355.551289 Z M115.55089,355.551289 L115.55089,346.680178 L124.44484,346.680178 L124.44484,355.551289 L115.55089,355.551289 Z M106.657651,355.551289 L115.55089,355.551289 L115.55089,364.444444 L106.657651,364.444444 L106.657651,355.551289 Z M106.657651,355.551289 L97.7864769,355.551289 L97.7864769,346.680178 L106.657651,346.680178 L106.657651,355.551289 Z M106.657651,373.341867 L97.7864769,373.341867 L97.7864769,364.448711 L106.657651,364.448711 L106.657651,373.341867 Z M115.55089,373.341867 L115.55089,382.213689 L106.657651,382.213689 L106.657651,373.341867 L115.55089,373.341867 Z M124.44911,373.341867 L115.555872,373.341867 L115.555872,364.448711 L124.44911,364.448711 L124.44911,373.341867 Z M124.44911,373.341867 L133.320285,373.341867 L133.320285,382.213689 L124.44911,382.213689 L124.44911,373.341867 Z M97.7644128,364.448711 L97.7644128,355.555556 L88.8932384,355.555556 L88.8932384,364.448711 L97.7644128,364.448711 Z M160,391.106844 L151.106762,391.106844 L151.106762,400 L160,400 L160,391.106844 Z M151.106762,373.341867 L160,373.341867 L160,382.235733 L151.106762,382.235733 L151.106762,373.341867 Z M160,355.551289 L151.106762,355.551289 L151.106762,364.444444 L160,364.444444 L160,355.551289 Z M151.106762,337.786311 L160,337.786311 L160,346.680178 L151.106762,346.680178 L151.106762,337.786311 Z M151.106762,320 L160,320 L160,328.893156 L151.106762,328.893156 L151.106762,320 Z"/>
      <path fill="#FFF" d="M382.213523,106.680178 L373.342349,106.680178 L373.342349,115.551289 L382.213523,115.551289 L382.213523,124.444444 L373.342349,124.444444 L373.342349,133.3376 L382.213523,133.3376 L382.213523,142.208711 L391.106762,142.208711 L391.106762,151.101867 L382.213523,151.101867 L382.213523,142.230756 L373.342349,142.230756 L373.342349,151.101867 L382.213523,151.101867 L382.213523,160 L373.320285,160 L373.320285,151.106844 L364.44911,151.106844 L364.44911,142.235733 L355.555872,142.235733 L355.555872,151.106844 L346.662633,151.106844 L346.662633,142.235733 L337.791459,142.235733 L337.791459,151.106844 L346.662633,151.106844 L346.662633,160 L337.768683,160 L337.768683,151.106844 L328.898221,151.106844 L328.898221,160 L320,160 L320,151.106844 L328.893238,151.106844 L328.893238,142.235733 L320,142.235733 L320,133.341867 L328.893238,133.341867 L328.893238,124.448711 L320,124.448711 L320,115.555556 L328.893238,115.555556 L328.893238,106.684444 L328.893238,106.6624 L337.764413,106.6624 L337.764413,97.7912889 L346.657651,97.7912889 L346.657651,106.6624 L355.55089,106.6624 L355.55089,97.7912889 L364.44484,97.7912889 L364.44484,106.6624 L373.316014,106.6624 L373.316014,97.7912889 L382.209253,97.7912889 L382.209253,106.6624 L391.102491,106.6624 L391.102491,115.555556 L382.209253,115.555556 L382.209253,106.680178 L382.213523,106.680178 Z M328.893238,106.658133 L328.893238,97.7863111 L320,97.7863111 L320,106.680178 L328.893238,106.680178 L328.893238,106.658133 Z M355.55089,151.106844 L355.55089,160 L364.44484,160 L364.44484,151.106844 L355.55089,151.106844 Z M382.213523,133.341867 L382.213523,124.448711 L391.106762,124.448711 L391.106762,133.341867 L382.213523,133.341867 Z M337.764413,142.213689 L328.893238,142.213689 L328.893238,133.341867 L337.764413,133.341867 L337.764413,142.213689 Z M337.786477,97.7863111 L337.786477,88.8931556 L346.657651,88.8931556 L346.657651,97.7863111 L355.55089,97.7863111 L355.55089,88.8931556 L364.44484,88.8931556 L364.44484,97.7863111 L373.338078,97.7863111 L373.338078,88.8931556 L382.209253,88.8931556 L382.209253,97.7863111 L391.102491,97.7863111 L391.102491,88.8931556 L382.209253,88.8931556 L382.209253,80 L373.316014,80 L373.316014,88.8931556 L364.44484,88.8931556 L364.44484,80 L355.55089,80 L355.55089,88.8931556 L346.657651,88.8931556 L346.657651,80 L337.764413,80 L337.764413,88.8931556 L328.893238,88.8931556 L328.893238,80 L320,80 L320,88.8931556 L328.893238,88.8931556 L328.893238,97.7863111 L337.786477,97.7863111 Z M373.316014,115.551289 L373.316014,124.444444 L364.44484,124.444444 L364.44484,115.551289 L373.316014,115.551289 Z M355.55089,115.551289 L355.55089,106.680178 L364.44484,106.680178 L364.44484,115.551289 L355.55089,115.551289 Z M346.657651,115.551289 L355.55089,115.551289 L355.55089,124.444444 L346.657651,124.444444 L346.657651,115.551289 Z M346.657651,115.551289 L337.786477,115.551289 L337.786477,106.680178 L346.657651,106.680178 L346.657651,115.551289 Z M346.657651,133.341867 L337.786477,133.341867 L337.786477,124.448711 L346.657651,124.448711 L346.657651,133.341867 Z M355.55089,133.341867 L355.55089,142.213689 L346.657651,142.213689 L346.657651,133.341867 L355.55089,133.341867 Z M364.44911,133.341867 L355.555872,133.341867 L355.555872,124.448711 L364.44911,124.448711 L364.44911,133.341867 Z M364.44911,133.341867 L373.320285,133.341867 L373.320285,142.213689 L364.44911,142.213689 L364.44911,133.341867 Z M337.764413,124.448711 L337.764413,115.555556 L328.893238,115.555556 L328.893238,124.448711 L337.764413,124.448711 Z M400,151.106844 L391.106762,151.106844 L391.106762,160 L400,160 L400,151.106844 Z M391.106762,133.341867 L400,133.341867 L400,142.235733 L391.106762,142.235733 L391.106762,133.341867 Z M400,115.551289 L391.106762,115.551289 L391.106762,124.444444 L400,124.444444 L400,115.551289 Z M391.106762,97.7863111 L400,97.7863111 L400,106.680178 L391.106762,106.680178 L391.106762,97.7863111 Z M391.106762,80 L400,80 L400,88.8931556 L391.106762,88.8931556 L391.106762,80 Z"/>
      <path fill="#2316E8" d="M391.106762 480L400 480 400 400 391.106762 400 391.106762 480zM382.222064 480L373.333096 480 373.333096 400 382.222064 400 382.222064 480zM364.44484 480L355.555872 480 355.555872 400 364.44484 400 364.44484 480zM337.777936 480L346.666904 480 346.666904 400 337.777936 400 337.777936 480zM328.888968 480L320 480 320 400 328.888968 400 328.888968 480zM311.106762 80L320 80 320 0 311.106762 0 311.106762 80zM302.222064 80L293.333096 80 293.333096 0 302.222064 0 302.222064 80zM284.44484 80L275.555872 80 275.555872 0 284.44484 0 284.44484 80zM257.777936 80L266.666904 80 266.666904 0 257.777936 0 257.777936 80zM248.888968 80L240 80 240 0 248.888968 0 248.888968 80z"/>
      <path fill="#FFF" d="M240,248.893156 L240,240 L160,240 L160,248.893156 L240,248.893156 Z M240,257.777778 L240,266.666667 L160,266.666667 L160,257.777778 L240,257.777778 Z M240,275.555556 L240,284.444444 L160,284.444444 L160,275.555556 L240,275.555556 Z M240,302.222222 L240,293.333333 L160,293.333333 L160,302.222222 L240,302.222222 Z M240,311.111111 L240,320 L160,320 L160,311.111111 L240,311.111111 Z"/>
      <path fill="#2316E8" d="M320,471.106702 L320,480 L240,480 L240,471.106702 L320,471.106702 Z M320,444.435556 L320,435.542258 L240,435.542258 L240,444.435556 L320,444.435556 Z M320,417.76448 L320,426.657778 L240,426.657778 L240,417.76448 L320,417.76448 Z M320,400 L320,408.893369 L240,408.893369 L240,400 L320,400 Z M320,462.213333 L320,453.319964 L240,453.319964 L240,462.213333 L320,462.213333 Z"/>
      <path fill="#FFF" d="M391.111032,480 L400,480 C400,524.182044 364.182206,560 320,560 L320,551.111111 C359.275445,551.111111 391.111032,519.275378 391.111032,480 Z M373.333096,480 L382.222064,480 C382.222064,514.364444 354.364413,542.222222 320,542.222222 L320,533.333333 C349.453381,533.333333 373.333096,509.453511 373.333096,480 Z M364.44484,480 L355.555872,480 C355.555872,499.6352 339.635587,515.555556 320,515.555556 L320,524.444444 C344.546619,524.444444 364.44484,504.546844 364.44484,480 Z M337.777936,480 L346.666904,480 C346.666904,494.728533 334.728826,506.666667 320,506.666667 L320,497.777778 C329.817794,497.777778 337.777936,489.8176 337.777936,480 Z M320,480 L328.888968,480 C328.888968,484.910933 324.911032,488.888889 320,488.888889 L320,480 Z"/>
      <path fill="#2316E8" d="M8.88896797 560L0 560C0 515.817956 35.8177936 480 80 480L80 488.888889C40.7245552 488.888889 8.88896797 520.724622 8.88896797 560zM26.6669039 560L17.7779359 560C17.7779359 525.635556 45.6355872 497.777778 80 497.777778L80 506.666667C50.5466192 506.666667 26.6669039 530.546489 26.6669039 560zM35.5558719 560L44.4448399 560C44.4448399 540.364089 60.3644128 524.444444 80 524.444444L80 515.555556C55.4533808 515.555556 35.5558719 535.453156 35.5558719 560zM62.2220641 560L53.3338078 560C53.3338078 545.270756 65.2711744 533.333333 80 533.333333L80 542.222222C70.1822064 542.222222 62.2220641 550.1824 62.2220641 560zM80 560L71.111032 560C71.111032 555.089067 75.088968 551.111111 80 551.111111L80 560zM8.88896797 240L0 240C0 195.817956 35.8177936 160 80 160L80 168.888889C40.7245552 168.888889 8.88896797 200.724622 8.88896797 240zM26.6669039 240L17.7779359 240C17.7779359 205.635556 45.6355872 177.777778 80 177.777778L80 186.666667C50.5466192 186.666667 26.6669039 210.546489 26.6669039 240zM35.5558719 240L44.4448399 240C44.4448399 220.364089 60.3644128 204.444444 80 204.444444L80 195.555556C55.4533808 195.555556 35.5558719 215.453156 35.5558719 240zM62.2220641 240L53.3338078 240C53.3338078 225.270756 65.2711744 213.333333 80 213.333333L80 222.222222C70.1822064 222.222222 62.2220641 230.1824 62.2220641 240zM80 240L71.111032 240C71.111032 235.089067 75.088968 231.111111 80 231.111111L80 240z"/>
      <path fill="#2316E8" d="M248.888968,240 L240,240 C240,195.817956 275.817794,160 320,160 L320,168.888889 C280.724555,168.888889 248.888968,200.724622 248.888968,240 Z M266.666904,240 L257.777936,240 C257.777936,205.635556 285.635587,177.777778 320,177.777778 L320,186.666667 C290.546619,186.666667 266.666904,210.546489 266.666904,240 Z M275.555872,240 L284.44484,240 C284.44484,220.364089 300.364413,204.444444 320,204.444444 L320,195.555556 C295.453381,195.555556 275.555872,215.453156 275.555872,240 Z M302.222064,240 L293.333808,240 C293.333808,225.270756 305.271174,213.333333 320,213.333333 L320,222.222222 C310.182206,222.222222 302.222064,230.1824 302.222064,240 Z M320,240 L311.111032,240 C311.111032,235.089067 315.088968,231.111111 320,231.111111 L320,240 Z" transform="rotate(-90 280 200)"/>
      <path fill="#2316E8" d="M88.888968,160 L80,160 C80,115.817956 115.817794,80 160,80 L160,88.8888889 C120.724555,88.8888889 88.888968,120.724622 88.888968,160 Z M106.666904,160 L97.7779359,160 C97.7779359,125.635556 125.635587,97.7777778 160,97.7777778 L160,106.666667 C130.546619,106.666667 106.666904,130.546489 106.666904,160 Z M115.555872,160 L124.44484,160 C124.44484,140.364089 140.364413,124.444444 160,124.444444 L160,115.555556 C135.453381,115.555556 115.555872,135.453156 115.555872,160 Z M142.222064,160 L133.333808,160 C133.333808,145.270756 145.271174,133.333333 160,133.333333 L160,142.222222 C150.182206,142.222222 142.222064,150.1824 142.222064,160 Z M160,160 L151.111032,160 C151.111032,155.089067 155.088968,151.111111 160,151.111111 L160,160 Z" transform="rotate(-180 120 120)"/>
      <path fill="#2316E8" d="M168.888968,720 L160,720 C160,675.817956 195.817794,640 240,640 L240,648.888889 C200.724555,648.888889 168.888968,680.724622 168.888968,720 Z M186.666904,720 L177.777936,720 C177.777936,685.635556 205.635587,657.777778 240,657.777778 L240,666.666667 C210.546619,666.666667 186.666904,690.546489 186.666904,720 Z M195.555872,720 L204.44484,720 C204.44484,700.364089 220.364413,684.444444 240,684.444444 L240,675.555556 C215.453381,675.555556 195.555872,695.453156 195.555872,720 Z M222.222064,720 L213.333808,720 C213.333808,705.270756 225.271174,693.333333 240,693.333333 L240,702.222222 C230.182206,702.222222 222.222064,710.1824 222.222064,720 Z M240,720 L231.111032,720 C231.111032,715.089067 235.088968,711.111111 240,711.111111 L240,720 Z" transform="matrix(-1 0 0 1 400 0)"/>
      <path fill="#2316E8" fill-rule="nonzero" d="M80,640 L160,640 L160,560 C115.817794,560 80,595.817956 80,640 Z"/>
      <path fill="#FFF" fill-rule="nonzero" d="M320,720 L400,720 L400,640 C355.817794,640 320,675.817956 320,720 Z"/>
      <path fill="#2316E8" d="M400,793.733689 L400,800 L393.733096,800 L320,726.267022 L320,720 L326.266192,720 L400,793.733689 Z M320,738.844444 L320,751.422578 L368.577936,800 L381.15516,800 L320,738.844444 Z M320,776.577422 L320,764 L356,800 L343.422064,800 L320,776.577422 Z M320,800 L330.844128,800 L320,789.155556 L320,800 Z M338.844128,720 L351.422064,720 L400,768.577422 L400,781.155556 L338.844128,720 Z M376.577936,720 L364,720 L400,756 L400,743.422578 L376.577936,720 Z M400,730.844444 L389.15516,720 L400,720 L400,730.844444 Z"/>
      <path fill="#2316E8" d="M400,313.733689 L400,320 L393.733096,320 L320,246.267022 L320,240 L326.266192,240 L400,313.733689 Z M320,258.844444 L320,271.422578 L368.577936,320 L381.15516,320 L320,258.844444 Z M320,296.577422 L320,284 L356,320 L343.422064,320 L320,296.577422 Z M320,320 L330.844128,320 L320,309.155556 L320,320 Z M338.844128,240 L351.422064,240 L400,288.577422 L400,301.155556 L338.844128,240 Z M376.577936,240 L364,240 L400,276 L400,263.422578 L376.577936,240 Z M400,250.844444 L389.15516,240 L400,240 L400,250.844444 Z" transform="rotate(90 360 280)"/>
    </g>
    <g fill="#FFF" fill-rule="nonzero" transform="translate(454 358)">
      <path d="M86.870175 76.23L86.870175 69.51 97.44 69.51 97.44 26.67 104.859825 26.67 104.859825 70.070175C104.859825 73.430175 102.129825 76.23 98.7 76.23L86.870175 76.23zM114.519825 58.100175C110.949825 54.530175 109.130175 50.049825 109.130175 44.73 109.130175 39.410175 110.949825 34.929825 114.519825 31.359825 118.089825 27.789825 122.570175 25.970175 127.89 25.970175 133.209825 25.970175 137.619825 27.789825 141.260175 31.359825 144.830175 34.929825 146.649825 39.410175 146.649825 44.73 146.649825 50.049825 144.830175 54.530175 141.260175 58.100175 137.690175 61.670175 133.209825 63.489825 127.89 63.489825 122.499825 63.489825 118.089825 61.670175 114.519825 58.100175zM119.91 35.91C117.879825 38.079825 116.900175 41.019825 116.900175 44.660175 116.900175 48.3 117.879825 51.24 119.91 53.409825 121.940175 55.580175 124.599825 56.7 127.820175 56.7 131.04 56.7 133.700175 55.580175 135.729825 53.409825 137.76 51.24 138.740175 48.3 138.740175 44.660175 138.740175 41.019825 137.76 38.079825 135.729825 35.91 133.700175 33.740175 131.04 32.619825 127.820175 32.619825 124.599825 32.690175 121.940175 33.740175 119.91 35.91zM147.21 26.67L154.98 26.67 162.75 55.719825 166.599825 55.719825 175.070175 26.67 182.840175 26.67 168 76.23 160.23 76.23 164.43 62.79 161.7 62.79C158.97 62.79 156.519825 60.969825 155.82 58.310175L147.21 26.67zM182.139825 51.45L190.26 51.45C190.329825 51.590175 190.400175 51.800175 190.539825 52.010175 190.68 52.220175 190.959825 52.640175 191.379825 53.270175 191.799825 53.900175 192.36 54.459825 192.920175 54.879825 193.479825 55.370175 194.390175 55.790175 195.440175 56.139825 196.56 56.49 197.750175 56.7 199.08 56.7 201.669825 56.7 203.559825 56.28 204.75 55.509825 205.940175 54.740175 206.499825 53.690175 206.499825 52.5 206.499825 51.380175 205.730175 50.469825 204.189825 49.839825 202.65 49.209825 200.76 48.650175 198.519825 48.230175 196.280175 47.810175 194.109825 47.25 191.870175 46.550175 189.63 45.849825 187.809825 44.73 186.200175 43.05 184.659825 41.37 183.890175 39.27 183.890175 36.609825 183.890175 33.81 185.150175 31.29 187.74 29.19 190.329825 27.09 193.760175 26.04 197.960175 26.04 200.619825 26.04 202.929825 26.46 205.029825 27.230175 207.129825 27.999825 208.670175 28.98 209.720175 30.03 210.770175 31.149825 211.610175 32.270175 212.31 33.39 213.009825 34.509825 213.429825 35.420175 213.639825 36.260175L213.920175 37.38 206.150175 37.38C206.079825 37.239825 206.01 37.100175 205.940175 36.890175 205.869825 36.680175 205.59 36.33 205.17 35.769825 204.75 35.210175 204.33 34.790175 203.769825 34.370175 203.210175 33.950175 202.44 33.6 201.459825 33.249825 200.480175 32.900175 199.29 32.76 198.03 32.76 195.93 32.76 194.390175 33.110175 193.269825 33.879825 192.219825 34.65 191.660175 35.559825 191.660175 36.680175 191.660175 37.59 192.219825 38.43 193.340175 39.06 194.46 39.69 195.860175 40.179825 197.540175 40.460175 199.220175 40.74 201.039825 41.16 203.000175 41.720175 204.96 42.279825 206.709825 42.909825 208.460175 43.610175 210.140175 44.31 211.539825 45.429825 212.660175 46.970175 213.78 48.51 214.340175 50.4 214.340175 52.569825 214.340175 55.580175 213.009825 58.17 210.279825 60.339825 207.549825 62.510175 203.840175 63.560175 199.149825 63.560175 196.35 63.560175 193.899825 63.140175 191.73 62.300175 189.560175 61.460175 187.880175 60.48 186.759825 59.289825 185.64 58.100175 184.730175 56.91 183.96 55.719825 183.260175 54.530175 182.769825 53.55 182.559825 52.779825L182.139825 51.45zM215.67 33.39L215.67 26.67 219.87 26.67 219.87 18.9 227.289825 18.9 227.289825 26.67 238.280175 26.67 238.280175 33.39 227.360175 33.39 227.360175 56.07 238.629825 56.07 238.629825 62.79 226.029825 62.79C222.669825 62.79 219.87 60.06 219.87 56.630175L219.87 33.39 215.67 33.39zM250.250175 33.39L250.250175 62.79 242.829825 62.79 242.829825 32.060175C242.829825 29.120175 245.210175 26.67 248.22 26.67L250.250175 26.67 264.740175 26.67 264.740175 33.39 250.250175 33.39zM269.780175 58.100175C266.28 54.459825 264.459825 49.98 264.459825 44.73 264.459825 39.48 266.28 35.000175 269.780175 31.359825 273.350175 27.72 277.689825 25.970175 282.800175 25.970175 287.91 25.970175 292.250175 27.789825 295.820175 31.359825 299.390175 35.000175 301.14 39.410175 301.14 44.73L301.14 47.180175 271.880175 47.180175C272.37 50.120175 273.699825 52.430175 275.660175 54.18 277.689825 55.929825 280.070175 56.769825 282.800175 56.769825 285.039825 56.769825 286.929825 56.349825 288.680175 55.509825 290.360175 54.669825 291.549825 53.829825 292.11 52.989825L293.019825 51.800175 300.789825 51.800175C300.72 52.149825 300.51 52.569825 300.3 53.060175 300.09 53.55 299.46 54.530175 298.479825 55.86 297.500175 57.189825 296.450175 58.38 295.190175 59.43 294 60.410175 292.250175 61.389825 290.01 62.229825 287.769825 63.069825 285.39 63.489825 282.729825 63.489825 277.689825 63.489825 273.350175 61.670175 269.780175 58.100175zM273.21 41.16L294.350175 41.16C294 38.85 292.880175 36.819825 290.990175 35.210175 289.100175 33.530175 286.719825 32.690175 283.779825 32.690175 281.259825 32.690175 278.949825 33.459825 276.99 35.000175 275.030175 36.54 273.770175 38.570175 273.21 41.16zM308.07 58.310175C304.850175 54.81 303.24 50.259825 303.24 44.73 303.24 39.200175 304.850175 34.65 308.07 31.149825 311.289825 27.650175 315.350175 25.970175 320.180175 25.970175 322.419825 25.970175 324.45 26.390175 326.34 27.3 328.23 28.209825 329.559825 29.049825 330.33 29.889825L331.449825 31.220175 331.8 31.220175 331.8 26.600175 339.219825 26.600175 339.219825 62.720175 331.8 62.720175 331.8 57.75 331.449825 57.75C331.38 57.890175 331.17 58.100175 330.96 58.38 330.75 58.659825 330.260175 59.079825 329.559825 59.780175 328.86 60.410175 328.089825 61.040175 327.320175 61.53 326.55 62.019825 325.430175 62.439825 324.170175 62.859825 322.839825 63.279825 321.51 63.489825 320.180175 63.489825 315.42 63.489825 311.360175 61.74 308.07 58.310175zM345.66 62.79L345.66 26.67 353.079825 26.67 353.079825 31.640175 353.43 31.640175C353.499825 31.5 353.64 31.29 353.780175 31.010175 353.919825 30.729825 354.27 30.309825 354.9 29.61 355.53 28.98 356.16 28.35 356.930175 27.860175 357.63 27.369825 358.68 26.949825 359.94 26.529825 361.2 26.109825 362.600175 25.899825 363.999825 25.899825 365.679825 25.899825 367.29 26.109825 368.690175 26.600175 370.160175 27.09 371.28 27.650175 372.050175 28.280175 372.890175 28.910175 373.59 29.61 374.150175 30.24 374.709825 30.87 375.06 31.430175 375.27 31.92L375.620175 32.619825 375.969825 32.619825C376.040175 32.409825 376.179825 32.199825 376.389825 31.850175 376.53 31.569825 377.019825 31.010175 377.720175 30.24 378.42 29.469825 379.190175 28.839825 380.030175 28.209825 380.870175 27.650175 382.059825 27.09 383.529825 26.600175 385.070175 26.109825 386.61 25.83 388.359825 25.83 392.49 25.83 395.780175 27.159825 398.16 29.82 400.539825 32.480175 401.73 36.189825 401.73 41.090175L401.73 62.649825 394.310175 62.649825 394.310175 41.510175C394.310175 35.630175 391.719825 32.690175 386.540175 32.690175 384.020175 32.690175 381.849825 33.669825 380.030175 35.559825 378.21 37.520175 377.37 39.969825 377.37 42.909825L377.37 62.720175 369.950175 62.720175 369.950175 41.510175C369.950175 35.630175 367.359825 32.690175 362.180175 32.690175 359.660175 32.690175 357.489825 33.669825 355.670175 35.559825 353.85 37.520175 353.01 39.969825 353.01 42.909825L353.01 62.720175 345.66 62.720175 345.66 62.79zM97.509825 12.879825L97.509825 20.300175 104.930175 20.300175 104.930175 12.879825 97.509825 12.879825zM313.040175 35.91C311.01 38.079825 310.029825 41.019825 310.029825 44.660175 310.029825 48.3 311.01 51.24 313.040175 53.409825 315.069825 55.580175 317.73 56.7 320.949825 56.7 324.170175 56.7 326.829825 55.580175 328.86 53.409825 330.890175 51.24 331.869825 48.3 331.869825 44.660175 331.869825 41.019825 330.890175 38.079825 328.86 35.91 326.829825 33.740175 324.170175 32.619825 320.949825 32.619825 317.73 32.690175 315.069825 33.740175 313.040175 35.91zM58.940175 2.7000624e-13L66.57 2.7000624e-13 66.57 21.909825C66.57 30.66 63.279825 38.709825 57.890175 44.799825 58.59 41.859825 58.940175 38.85 58.940175 35.7L58.940175 2.7000624e-13zM20.58 62.50965C20.37 62.71965 20.229825 62.92965 20.019825 63.13965 19.95 63.21 19.880175 63.279825 19.809825 63.34965 19.599825 63.55965 19.460175 63.76965 19.250175 63.909825 19.179825 63.97965 19.040175 64.119825 18.969825 64.18965 18.759825 64.39965 18.549825 64.60965 18.27 64.81965 17.990175 65.1 17.709825 65.31 17.43 65.589825 17.150175 65.86965 16.869825 66.07965 16.520175 66.28965 16.239825 66.49965 15.96 66.70965 15.680175 66.91965 14.979825 67.33965 14.28 67.75965 13.580175 68.109825 13.44 68.17965 13.299825 68.25 13.089825 68.319825 12.879825 68.38965 12.740175 68.46 12.6 68.529825 12.39 68.59965 12.249825 68.67 12.039825 68.739825 11.690175 68.88 11.34 69.01965 10.92 69.159825 10.92 69.159825 10.92 69.159825 10.850175 69.159825 10.5 69.3 10.149825 69.369825 9.800175 69.43965L9.729825 69.43965C9.380175 69.51 9.03 69.64965 8.679825 69.72 8.259825 69.789825 7.77 69.93 7.35 69.93 7.209825 69.93 7.070175 69.999825 6.93 69.999825L6.860175 69.999825C6.440175 70.06965 6.09 70.06965 5.67 70.06965 5.46 70.06965 5.25 70.06965 5.04 70.06965 4.83 70.06965 4.62 70.06965 4.41 70.06965L4.130175 70.06965 6.440175 62.439825 20.58 62.439825 20.58 62.50965zM52.779825-7.10542736e-15L52.779825 35.7C52.779825 36.260175 52.779825 36.890175 52.71 37.449825 52.71 37.730175 52.71 38.01 52.640175 38.289825 52.640175 38.570175 52.569825 38.85 52.569825 39.129825 52.569825 39.410175 52.5 39.69 52.5 39.969825 52.5 40.179825 52.430175 40.460175 52.430175 40.670175L52.430175 40.74C52.430175 40.809825 52.430175 40.880175 52.430175 40.880175 52.359825 41.16 52.359825 41.439825 52.29 41.649825 52.220175 41.930175 52.220175 42.21 52.149825 42.42L52.149825 42.489825C52.08 42.699825 52.08 42.909825 52.010175 43.119825 52.010175 43.190175 52.010175 43.190175 52.010175 43.26 51.800175 44.1 51.590175 45.009825 51.309825 45.849825 51.24 46.059825 51.170175 46.340175 51.099825 46.550175 51.03 46.83 50.960175 47.04 50.82 47.319825 50.750175 47.600175 50.61 47.810175 50.540175 48.020175 50.469825 48.3 50.330175 48.51 50.259825 48.72 50.19 48.999825 50.049825 49.209825 49.98 49.419825 49.910175 49.629825 49.77 49.910175 49.629825 50.120175 49.56 50.330175 49.419825 50.61 49.280175 50.82 49.14 51.03 49.070175 51.309825 48.93 51.519825 48.860175 51.729825 48.72 51.87 48.650175 52.08 48.440175 52.5 48.230175 52.850175 47.949825 53.270175 47.739825 53.619825 47.529825 53.97 47.319825 54.249825 47.180175 54.530175 47.04 54.740175 46.83 54.950175 46.760175 55.089825 46.62 55.23 46.550175 55.299825 46.340175 55.580175 46.2 55.790175 45.99 56.000175 45.78 56.28 45.57 56.49 45.429825 56.769825 45.009825 57.260175 44.589825 57.75 44.169825 58.239825 44.240175 57.96 44.31 57.680175 44.379825 57.399825 44.450175 57.189825 44.450175 56.979825 44.52 56.769825 44.52 56.769825 44.52 56.769825 44.52 56.7 44.52 56.630175 44.52 56.630175 44.52 56.559825 44.589825 56.28 44.589825 56.000175 44.660175 55.719825 44.73 55.370175 44.799825 55.02 44.799825 54.740175 44.799825 54.530175 44.870175 54.320175 44.870175 54.18 44.870175 53.97 44.94 53.829825 44.94 53.619825 45.009825 53.270175 45.009825 52.92 45.080175 52.5 45.080175 52.430175 45.080175 52.430175 45.080175 52.359825 45.080175 52.29 45.080175 52.29 45.080175 52.220175 45.080175 51.939825 45.15 51.729825 45.15 51.45 45.15 51.24 45.15 51.03 45.15 50.82L45.15 51.099825C45.15 50.889825 45.15 50.679825 45.15 50.469825 45.15 50.120175 45.15 49.839825 45.15 49.490175L45.15-7.10542736e-15 52.779825-7.10542736e-15z"/>
      <path d="M38.990175,0 L38.990175,49.490175 C38.990175,50.679825 38.919825,51.800175 38.85,52.92 C38.780175,53.900175 38.64,54.81 38.43,55.790175 C38.01,58.029825 37.38,60.200175 36.54,62.229825 C36.050175,63.489825 35.420175,64.749825 34.790175,65.94 C32.829825,69.440175 30.309825,72.590175 27.369825,75.249825 C21.279825,80.709825 13.23,84 4.479825,84 L-9.23705556e-14,84 L2.31,76.370175 L4.550175,76.370175 C11.13,76.370175 17.150175,73.989825 21.770175,70.070175 C24.290175,67.970175 26.390175,65.450175 27.93,62.58 C28.35,61.880175 28.700175,61.11 29.049825,60.339825 C29.61,59.079825 30.03,57.819825 30.380175,56.49 C30.800175,55.02 31.08,53.480175 31.149825,51.939825 C31.220175,51.170175 31.220175,50.4 31.220175,49.629825 L31.220175,0 L38.990175,0 Z"/>
      <path d="M25.2,48.72 L25.2,49.490175 C25.2,50.120175 25.2,50.750175 25.130175,51.31035 C24.99,52.5 24.849825,53.690175 24.500175,54.81 C24.36,55.370175 24.219825,55.93035 24.009825,56.420175 L8.259825,56.420175 L10.569825,48.79035 L25.2,48.79035 L25.2,48.72 Z"/>
    </g>
  </g>
</svg>
