<svg xmlns="http://www.w3.org/2000/svg" width="1310" height="800" viewBox="0 0 1310 800">
  <g fill="none" fill-rule="evenodd">
    <rect width="1310" height="800" fill="#4038FF"/>
    <g transform="matrix(0 -1 -1 0 1310 800)">
      <path fill="#261EE4" d="M477.868875 233.145277L466.765367 233.145277 466.765367 244.268264 477.868875 244.268264 477.868875 255.418891 466.765367 255.418891 466.765367 266.569518 477.868875 266.569518 477.868875 277.692505 489 277.692505 489 288.843132 477.868875 288.843132 477.868875 277.720145 466.765367 277.720145 466.765367 288.843132 477.868875 288.843132 477.868875 300 466.737751 300 466.737751 288.849373 455.634243 288.849373 455.634243 277.726386 444.503118 277.726386 444.503118 288.849373 433.371993 288.849373 433.371993 277.726386 422.268485 277.726386 422.268485 288.849373 433.371993 288.849373 433.371993 300 422.239978 300 422.239978 288.849373 411.13736 288.849373 411.13736 300 400 300 400 288.849373 411.131125 288.849373 411.131125 277.726386 400 277.726386 400 266.574868 411.131125 266.574868 411.131125 255.424241 400 255.424241 400 244.273614 411.131125 244.273614 411.131125 233.150627 411.131125 233.122987 422.234633 233.122987 422.234633 222 433.365757 222 433.365757 233.122987 444.496882 233.122987 444.496882 222 455.628897 222 455.628897 233.122987 466.732406 233.122987 466.732406 222 477.86353 222 477.86353 233.122987 488.994655 233.122987 488.994655 244.273614 477.86353 244.273614 477.86353 233.145277 477.868875 233.145277zM411 233.972735L411 223 400 223 400 234 411 234 411 233.972735zM445 289L445 300 456 300 456 289 445 289zM478 266L478 255 489 255 489 266 478 266zM422 277L411 277 411 266 422 266 422 277zM422.263586 222L422.263586 211 433.367761 211 433.367761 222 444.499555 222 444.499555 211 455.632239 211 455.632239 222 466.764032 222 466.764032 211 477.868207 211 477.868207 222 489 222 489 211 477.868207 211 477.868207 200 466.736414 200 466.736414 211 455.632239 211 455.632239 200 444.499555 200 444.499555 211 433.367761 211 433.367761 200 422.235968 200 422.235968 211 411.131793 211 411.131793 200 400 200 400 211 411.131793 211 411.131793 222 422.263586 222zM466 244L466 255 455 255 455 244 466 244zM445 245L445 234 456 234 456 245 445 245zM434 244L445 244 445 255 434 255 434 244zM434 245L423 245 423 234 434 234 434 245zM434 266L423 266 423 255 434 255 434 266zM445 266L445 277 434 277 434 266 445 266zM456 266L445 266 445 255 456 255 456 266zM455 266L466 266 466 277 455 277 455 266zM422 255L422 244 411 244 411 255 422 255zM500 289L489 289 489 300 500 300 500 289zM489 266L500 266 500 277 489 277 489 266zM500 244L489 244 489 255 500 255 500 244zM489 223L500 223 500 234 489 234 489 223zM489 200L500 200 500 211 489 211 489 200zM777.868875 33.1452773L766.765367 33.1452773 766.765367 44.268264 777.868875 44.268264 777.868875 55.418891 766.765367 55.418891 766.765367 66.569518 777.868875 66.569518 777.868875 77.6925047 789 77.6925047 789 88.8431317 777.868875 88.8431317 777.868875 77.7201449 766.765367 77.7201449 766.765367 88.8431317 777.868875 88.8431317 777.868875 100 766.737751 100 766.737751 88.849373 755.634243 88.849373 755.634243 77.7263863 744.503118 77.7263863 744.503118 88.849373 733.371993 88.849373 733.371993 77.7263863 722.268485 77.7263863 722.268485 88.849373 733.371993 88.849373 733.371993 100 722.239978 100 722.239978 88.849373 711.13736 88.849373 711.13736 100 700 100 700 88.849373 711.131125 88.849373 711.131125 77.7263863 700 77.7263863 700 66.5748677 711.131125 66.5748677 711.131125 55.4242407 700 55.4242407 700 44.2736137 711.131125 44.2736137 711.131125 33.150627 711.131125 33.1229867 722.234633 33.1229867 722.234633 22 733.365757 22 733.365757 33.1229867 744.496882 33.1229867 744.496882 22 755.628897 22 755.628897 33.1229867 766.732406 33.1229867 766.732406 22 777.86353 22 777.86353 33.1229867 788.994655 33.1229867 788.994655 44.2736137 777.86353 44.2736137 777.86353 33.1452773 777.868875 33.1452773zM711 33.9727353L711 23 700 23 700 34 711 34 711 33.9727353zM745 89L745 100 756 100 756 89 745 89zM778 66L778 55 789 55 789 66 778 66zM722 77L711 77 711 66 722 66 722 77zM722.263586 22L722.263586 11 733.367761 11 733.367761 22 744.499555 22 744.499555 11 755.632239 11 755.632239 22 766.764032 22 766.764032 11 777.868207 11 777.868207 22 789 22 789 11 777.868207 11 777.868207 0 766.736414 0 766.736414 11 755.632239 11 755.632239 0 744.499555 0 744.499555 11 733.367761 11 733.367761 0 722.235968 0 722.235968 11 711.131793 11 711.131793 0 700 0 700 11 711.131793 11 711.131793 22 722.263586 22zM766 44L766 55 755 55 755 44 766 44zM745 45L745 34 756 34 756 45 745 45zM734 44L745 44 745 55 734 55 734 44zM734 45L723 45 723 34 734 34 734 45zM734 66L723 66 723 55 734 55 734 66zM745 66L745 77 734 77 734 66 745 66zM756 66L745 66 745 55 756 55 756 66zM755 66L766 66 766 77 755 77 755 66zM722 55L722 44 711 44 711 55 722 55zM800 89L789 89 789 100 800 100 800 89zM789 66L800 66 800 77 789 77 789 66zM800 44L789 44 789 55 800 55 800 44zM789 23L800 23 800 34 789 34 789 23zM789 0L800 0 800 11 789 11 789 0zM177.868875 33.1452773L166.765367 33.1452773 166.765367 44.268264 177.868875 44.268264 177.868875 55.418891 166.765367 55.418891 166.765367 66.569518 177.868875 66.569518 177.868875 77.6925047 189 77.6925047 189 88.8431317 177.868875 88.8431317 177.868875 77.7201449 166.765367 77.7201449 166.765367 88.8431317 177.868875 88.8431317 177.868875 100 166.737751 100 166.737751 88.849373 155.634243 88.849373 155.634243 77.7263863 144.503118 77.7263863 144.503118 88.849373 133.371993 88.849373 133.371993 77.7263863 122.268485 77.7263863 122.268485 88.849373 133.371993 88.849373 133.371993 100 122.239978 100 122.239978 88.849373 111.13736 88.849373 111.13736 100 100 100 100 88.849373 111.131125 88.849373 111.131125 77.7263863 100 77.7263863 100 66.5748677 111.131125 66.5748677 111.131125 55.4242407 100 55.4242407 100 44.2736137 111.131125 44.2736137 111.131125 33.150627 111.131125 33.1229867 122.234633 33.1229867 122.234633 22 133.365757 22 133.365757 33.1229867 144.496882 33.1229867 144.496882 22 155.628897 22 155.628897 33.1229867 166.732406 33.1229867 166.732406 22 177.86353 22 177.86353 33.1229867 188.994655 33.1229867 188.994655 44.2736137 177.86353 44.2736137 177.86353 33.1452773 177.868875 33.1452773zM111 33.9727353L111 23 100 23 100 34 111 34 111 33.9727353zM145 89L145 100 156 100 156 89 145 89zM178 66L178 55 189 55 189 66 178 66zM122 77L111 77 111 66 122 66 122 77zM122.263586 22L122.263586 11 133.367761 11 133.367761 22 144.499555 22 144.499555 11 155.632239 11 155.632239 22 166.764032 22 166.764032 11 177.868207 11 177.868207 22 189 22 189 11 177.868207 11 177.868207 0 166.736414 0 166.736414 11 155.632239 11 155.632239 0 144.499555 0 144.499555 11 133.367761 11 133.367761 0 122.235968 0 122.235968 11 111.131793 11 111.131793 0 100 0 100 11 111.131793 11 111.131793 22 122.263586 22zM166 44L166 55 155 55 155 44 166 44zM145 45L145 34 156 34 156 45 145 45zM134 44L145 44 145 55 134 55 134 44zM134 45L123 45 123 34 134 34 134 45zM134 66L123 66 123 55 134 55 134 66zM145 66L145 77 134 77 134 66 145 66zM156 66L145 66 145 55 156 55 156 66zM155 66L166 66 166 77 155 77 155 66zM122 55L122 44 111 44 111 55 122 55zM200 89L189 89 189 100 200 100 200 89zM189 66L200 66 200 77 189 77 189 66zM200 44L189 44 189 55 200 55 200 44zM189 23L200 23 200 34 189 34 189 23zM189 0L200 0 200 11 189 11 189 0zM789 400L800 400 800 300 789 300 789 400zM777 400L766 400 766 300 777 300 777 400zM756 400L745 400 745 300 756 300 756 400zM723 400L734 400 734 300 723 300 723 400zM711 400L700 400 700 300 711 300 711 400zM689 300L700 300 700 200 689 200 689 300zM677 300L666 300 666 200 677 200 677 300zM656 300L645 300 645 200 656 200 656 300zM623 300L634 300 634 200 623 200 623 300zM611 300L600 300 600 200 611 200 611 300zM189 300L200 300 200 200 189 200 189 300zM177 300L166 300 166 200 177 200 177 300zM156 300L145 300 145 200 156 200 156 300zM123 300L134 300 134 200 123 200 123 300zM111 300L100 300 100 200 111 200 111 300zM600 111L600 100 500 100 500 111 600 111zM600 123L600 134 500 134 500 123 600 123zM600 144L600 155 500 155 500 144 600 144zM600 177L600 166 500 166 500 177 600 177zM600 189L600 200 500 200 500 189 600 189zM100 111L100 100 0 100 0 111 100 111zM100 123L100 134 0 134 0 123 100 123zM100 144L100 155 0 155 0 144 100 144zM100 177L100 166 0 166 0 177 100 177zM100 189L100 200 0 200 0 189 100 189zM700 389L700 400 600 400 600 389 700 389zM700 355L700 344 600 344 600 355 700 355zM700 323L700 334 600 334 600 323 700 323zM700 300L700 311 600 311 600 300 700 300zM700 377L700 366 600 366 600 377 700 377z"/>
      <path fill="#FFF" d="M788.88879 400L800 400C800 455.227556 755.227758 500 700 500L700 488.888889C749.094306 488.888889 788.88879 449.094222 788.88879 400zM766.857015 400L778 400C778 443.078286 743.078356 478 700 478L700 466.857143C736.92201 466.857143 766.857015 436.92208 766.857015 400zM755 400L744 400C744 424.29856 724.298823 444 700 444L700 455C730.376171 455 755 430.37672 755 400zM722.666667 400L734 400C734 418.77888 718.779086 434 700 434L700 422.666667C712.517575 422.666667 722.666667 412.51744 722.666667 400zM700 400L711 400C711 406.07728 706.077348 411 700 411L700 400zM288.88879 200L300 200C300 255.227556 255.227758 300 200 300L200 288.888889C249.094306 288.888889 288.88879 249.094222 288.88879 200zM266.857015 200L278 200C278 243.078286 243.078356 278 200 278L200 266.857143C236.92201 266.857143 266.857015 236.92208 266.857015 200zM255 200L244 200C244 224.29856 224.298823 244 200 244L200 255C230.376171 255 255 230.37672 255 200zM222.666667 200L234 200C234 218.77888 218.779086 234 200 234L200 222.666667C212.517575 222.666667 222.666667 212.51744 222.666667 200zM200 200L211 200C211 206.07728 206.077348 211 200 211L200 200z"/>
      <path fill="#261EE4" d="M411.11121,500 L400,500 C400,444.772444 444.772242,400 500,400 L500,411.111111 C450.905694,411.111111 411.11121,450.905778 411.11121,500 Z M433.142985,500 L422,500 C422,456.921714 456.921644,422 500,422 L500,433.142857 C463.07799,433.142857 433.142985,463.07792 433.142985,500 Z M445,500 L456.000176,500 C456.000176,475.70056 475.700788,456 500,456 L500,445 C469.623343,445 445,469.62328 445,500 Z M477.332728,500 L466,500 C466,481.220213 481.220413,466 500,466 L500,477.333333 C487.48209,477.333333 477.332728,487.48256 477.332728,500 Z M500,500 L489,500 C489,493.92272 493.922652,489 500,489 L500,500 Z"/>
      <path fill="#FFF" d="M311.11121,100 L300,100 C300,44.7724444 344.772242,0 400,0 L400,11.1111111 C350.905694,11.1111111 311.11121,50.9057778 311.11121,100 Z M333.142985,100 L322,100 C322,56.9217143 356.921644,22 400,22 L400,33.1428571 C363.07799,33.1428571 333.142985,63.07792 333.142985,100 Z M345,100 L356.000176,100 C356.000176,75.70056 375.700788,56 400,56 L400,45 C369.623343,45 345,69.62328 345,100 Z M377.332728,100 L366,100 C366,81.2202133 381.220413,66 400,66 L400,77.3333333 C387.48209,77.3333333 377.332728,87.48256 377.332728,100 Z M400,100 L389,100 C389,93.92272 393.922652,89 400,89 L400,100 Z"/>
      <path fill="#FFF" d="M611.11121,100 L600,100 C600,44.7724444 644.772242,0 700,0 L700,11.1111111 C650.905694,11.1111111 611.11121,50.9057778 611.11121,100 Z M633.142985,100 L622,100 C622,56.9217143 656.921644,22 700,22 L700,33.1428571 C663.07799,33.1428571 633.142985,63.07792 633.142985,100 Z M645,100 L656.000176,100 C656.000176,75.70056 675.700788,56 700,56 L700,45 C669.623343,45 645,69.62328 645,100 Z M677.332728,100 L666,100 C666,81.2202133 681.220413,66 700,66 L700,77.3333333 C687.48209,77.3333333 677.332728,87.48256 677.332728,100 Z M700,100 L689,100 C689,93.92272 693.922652,89 700,89 L700,100 Z" transform="rotate(-90 650 50)"/>
      <path fill="#261EE4" d="M411.11121,100 L400,100 C400,44.7724444 444.772242,0 500,0 L500,11.1111111 C450.905694,11.1111111 411.11121,50.9057778 411.11121,100 Z M433.142985,100 L422,100 C422,56.9217143 456.921644,22 500,22 L500,33.1428571 C463.07799,33.1428571 433.142985,63.07792 433.142985,100 Z M445,100 L456.000176,100 C456.000176,75.70056 475.700788,56 500,56 L500,45 C469.623343,45 445,69.62328 445,100 Z M477.332728,100 L466,100 C466,81.2202133 481.220413,66 500,66 L500,77.3333333 C487.48209,77.3333333 477.332728,87.48256 477.332728,100 Z M500,100 L489,100 C489,93.92272 493.922652,89 500,89 L500,100 Z" transform="rotate(-180 450 50)"/>
      <path fill="#FFF" d="M611.11121,700 L600,700 C600,644.772444 644.772242,600 700,600 L700,611.111111 C650.905694,611.111111 611.11121,650.905778 611.11121,700 Z M633.142985,700 L622,700 C622,656.921714 656.921644,622 700,622 L700,633.142857 C663.07799,633.142857 633.142985,663.07792 633.142985,700 Z M645,700 L656.000176,700 C656.000176,675.70056 675.700788,656 700,656 L700,645 C669.623343,645 645,669.62328 645,700 Z M677.332728,700 L666,700 C666,681.220213 681.220413,666 700,666 L700,677.333333 C687.48209,677.333333 677.332728,687.48256 677.332728,700 Z M700,700 L689,700 C689,693.92272 693.922652,689 700,689 L700,700 Z" transform="matrix(-1 0 0 1 1300 0)"/>
      <path fill="#261EE4" fill-rule="nonzero" d="M500 600L600 600 600 500C544.772242 500 500 544.772444 500 600zM700 700L800 700 800 600C744.772242 600 700 644.772444 700 700z"/>
      <path fill="#261EE4" d="M800,792.167111 L800,800 L792.16637,800 L700,707.833778 L700,700 L707.83274,700 L800,792.167111 Z M700,724 L700,739.631256 L760.369773,800 L776,800 L700,724 Z M700,770.721778 L700,755 L745,800 L729.27758,800 L700,770.721778 Z M700,800 L714,800 L700,786 L700,800 Z M724,700 L739.63093,700 L800,760.368744 L800,776 L724,700 Z M770.72242,700 L755,700 L800,745 L800,729.278222 L770.72242,700 Z M800,714 L786,700 L800,700 L800,714 Z"/>
      <path fill="#261EE4" d="M800,192.167111 L800,200 L792.16637,200 L700,107.833778 L700,100 L707.83274,100 L800,192.167111 Z M700,124 L700,139.631256 L760.369773,200 L776,200 L700,124 Z M700,170.721778 L700,155 L745,200 L729.27758,200 L700,170.721778 Z M700,200 L714,200 L700,186 L700,200 Z M724,100 L739.63093,100 L800,160.368744 L800,176 L724,100 Z M770.72242,100 L755,100 L800,145 L800,129.278222 L770.72242,100 Z M800,114 L786,100 L800,100 L800,114 Z" transform="rotate(90 750 150)"/>
      <path fill="#261EE4" d="M300,192.167111 L300,200 L292.16637,200 L200,107.833778 L200,100 L207.83274,100 L300,192.167111 Z M200,124 L200,139.631256 L260.369773,200 L276,200 L200,124 Z M200,170.721778 L200,155 L245,200 L229.27758,200 L200,170.721778 Z M200,200 L214,200 L200,186 L200,200 Z M224,100 L239.63093,100 L300,160.368744 L300,176 L224,100 Z M270.72242,100 L255,100 L300,145 L300,129.278222 L270.72242,100 Z M300,114 L286,100 L300,100 L300,114 Z" transform="rotate(90 250 150)"/>
    </g>
    <text fill="#FFF" font-family="PxGrotesk-Bold, Px Grotesk" font-size="120" font-weight="bold">
      <tspan x="180" y="527">Rome</tspan> <tspan x="185.859" y="645.027" font-family="PxGroteskRegular, Px Grotesk" font-size="60" font-weight="normal">Network Announced</tspan>
    </text>
  </g>
</svg>
