<svg xmlns="http://www.w3.org/2000/svg" width="1310" height="800" viewBox="0 0 1310 800">
  <g fill="none" fill-rule="evenodd">
    <rect width="1310" height="800" fill="#000"/>
    <path fill="#FFF" fill-rule="nonzero" d="M87.4895041 76C77.641402 76 67.0017723 72.3847479 59 66.3896921L64.5397467 59.026344C71.0025637 63.8770445 79.5759317 66.7863261 87.4895041 66.7863261 97.0300423 66.7863261 104.767404 61.6281869 104.767404 55.2364971 104.767404 51.3119085 102.569978 46.6395985 86.17067 41.7907958 73.7284318 38.2191924 61.0225403 32.8428097 61.0225403 20.3222713 61.0225403 8.948935 72.2335765 0 86.5223339 0 94.5676383 0 103.537149 2.64492222 111.142021 7.22955527L106.395127 15.1204834C100.194638 11.3735261 92.941808 9.21329438 86.5223339 9.21329438 77.3775594 9.21329438 70.2112254 14.1065049 70.2112254 20.3222713 70.2112254 23.9365745 72.4094084 28.2122506 88.7646168 32.9301071 100.546681 36.4125153 114 42.0545859 114 55.2364971 113.956468 66.8736235 102.350425 76 87.4895041 76L87.4895041 76zM14.3905234 100L11.045952 91.4040428 25.5243808 85.76259C30.1450954 83.9561107 33.8416672 80.5177278 35.954048 76.0205052 37.1422859 73.4644888 37.8023339 70.5991697 37.8023339 67.7793921L37.8023339 10.2124752 0 10.2124752 0 1 46.6038575 1 47 8.75780396 47 67.823036C47 72.010956 46.0756676 76.2406224 44.2715239 80.0319519 41.1469053 86.6430589 35.689953 91.7569894 28.8689522 94.4021912L14.3905234 100zM174.734993 3.23829085L174.734993 10.7352292C168.52906 4.12554091 159.752589 0 150.000954 0 131.249572 0 116 15.26009 116 34.0237291 116 52.7885141 131.249572 68.048986 150.000954 68.048986 159.752589 68.048986 168.52906 63.878185 174.734993 57.3145207L174.734993 61.3955654C174.734993 74.2593545 164.273454 84.7283705 151.418853 84.7283705L132.489995 84.7283705 132.489995 94 151.418853 94C169.372548 94 184 79.360183 184 61.3955654L184 3.23829085 174.734993 3.23829085zM150.000954 58.7773566C136.346757 58.7773566 125.265007 47.6876856 125.265007 34.0237291 125.265007 20.3614914 136.346757 9.2714385 150.000954 9.2714385 163.653243 9.2714385 174.734993 20.3614914 174.734993 34.0237291 174.734993 47.6876856 163.609351 58.7773566 150.000954 58.7773566z" transform="translate(563 350)"/>
  </g>
</svg>
