<svg xmlns="http://www.w3.org/2000/svg" width="1310" height="800" viewBox="0 0 1310 800">
  <g fill="none" fill-rule="evenodd">
    <rect width="1310" height="800" fill="#4038FF"/>
    <g transform="translate(910)">
      <path fill="#261EE4" d="M142.213523 346.680178L133.342349 346.680178 133.342349 355.551289 142.213523 355.551289 142.213523 364.444444 133.342349 364.444444 133.342349 373.3376 142.213523 373.3376 142.213523 382.208711 151.106762 382.208711 151.106762 391.101867 142.213523 391.101867 142.213523 382.230756 133.342349 382.230756 133.342349 391.101867 142.213523 391.101867 142.213523 400 133.320285 400 133.320285 391.106844 124.44911 391.106844 124.44911 382.235733 115.555872 382.235733 115.555872 391.106844 106.662633 391.106844 106.662633 382.235733 97.7914591 382.235733 97.7914591 391.106844 106.662633 391.106844 106.662633 400 97.7686833 400 97.7686833 391.106844 88.8982206 391.106844 88.8982206 400 80 400 80 391.106844 88.8932384 391.106844 88.8932384 382.235733 80 382.235733 80 373.341867 88.8932384 373.341867 88.8932384 364.448711 80 364.448711 80 355.555556 88.8932384 355.555556 88.8932384 346.684444 88.8932384 346.6624 97.7644128 346.6624 97.7644128 337.791289 106.657651 337.791289 106.657651 346.6624 115.55089 346.6624 115.55089 337.791289 124.44484 337.791289 124.44484 346.6624 133.316014 346.6624 133.316014 337.791289 142.209253 337.791289 142.209253 346.6624 151.102491 346.6624 151.102491 355.555556 142.209253 355.555556 142.209253 346.680178 142.213523 346.680178zM88.8932384 346.658133L88.8932384 337.786311 80 337.786311 80 346.680178 88.8932384 346.680178 88.8932384 346.658133zM115.55089 391.106844L115.55089 400 124.44484 400 124.44484 391.106844 115.55089 391.106844zM142.213523 373.341867L142.213523 364.448711 151.106762 364.448711 151.106762 373.341867 142.213523 373.341867zM97.7644128 382.213689L88.8932384 382.213689 88.8932384 373.341867 97.7644128 373.341867 97.7644128 382.213689zM97.7864769 337.786311L97.7864769 328.893156 106.657651 328.893156 106.657651 337.786311 115.55089 337.786311 115.55089 328.893156 124.44484 328.893156 124.44484 337.786311 133.338078 337.786311 133.338078 328.893156 142.209253 328.893156 142.209253 337.786311 151.102491 337.786311 151.102491 328.893156 142.209253 328.893156 142.209253 320 133.316014 320 133.316014 328.893156 124.44484 328.893156 124.44484 320 115.55089 320 115.55089 328.893156 106.657651 328.893156 106.657651 320 97.7644128 320 97.7644128 328.893156 88.8932384 328.893156 88.8932384 320 80 320 80 328.893156 88.8932384 328.893156 88.8932384 337.786311 97.7864769 337.786311zM133.316014 355.551289L133.316014 364.444444 124.44484 364.444444 124.44484 355.551289 133.316014 355.551289zM115.55089 355.551289L115.55089 346.680178 124.44484 346.680178 124.44484 355.551289 115.55089 355.551289zM106.657651 355.551289L115.55089 355.551289 115.55089 364.444444 106.657651 364.444444 106.657651 355.551289zM106.657651 355.551289L97.7864769 355.551289 97.7864769 346.680178 106.657651 346.680178 106.657651 355.551289zM106.657651 373.341867L97.7864769 373.341867 97.7864769 364.448711 106.657651 364.448711 106.657651 373.341867zM115.55089 373.341867L115.55089 382.213689 106.657651 382.213689 106.657651 373.341867 115.55089 373.341867zM124.44911 373.341867L115.555872 373.341867 115.555872 364.448711 124.44911 364.448711 124.44911 373.341867zM124.44911 373.341867L133.320285 373.341867 133.320285 382.213689 124.44911 382.213689 124.44911 373.341867zM97.7644128 364.448711L97.7644128 355.555556 88.8932384 355.555556 88.8932384 364.448711 97.7644128 364.448711zM160 391.106844L151.106762 391.106844 151.106762 400 160 400 160 391.106844zM151.106762 373.341867L160 373.341867 160 382.235733 151.106762 382.235733 151.106762 373.341867zM160 355.551289L151.106762 355.551289 151.106762 364.444444 160 364.444444 160 355.551289zM151.106762 337.786311L160 337.786311 160 346.680178 151.106762 346.680178 151.106762 337.786311zM151.106762 320L160 320 160 328.893156 151.106762 328.893156 151.106762 320zM382.213523 106.680178L373.342349 106.680178 373.342349 115.551289 382.213523 115.551289 382.213523 124.444444 373.342349 124.444444 373.342349 133.3376 382.213523 133.3376 382.213523 142.208711 391.106762 142.208711 391.106762 151.101867 382.213523 151.101867 382.213523 142.230756 373.342349 142.230756 373.342349 151.101867 382.213523 151.101867 382.213523 160 373.320285 160 373.320285 151.106844 364.44911 151.106844 364.44911 142.235733 355.555872 142.235733 355.555872 151.106844 346.662633 151.106844 346.662633 142.235733 337.791459 142.235733 337.791459 151.106844 346.662633 151.106844 346.662633 160 337.768683 160 337.768683 151.106844 328.898221 151.106844 328.898221 160 320 160 320 151.106844 328.893238 151.106844 328.893238 142.235733 320 142.235733 320 133.341867 328.893238 133.341867 328.893238 124.448711 320 124.448711 320 115.555556 328.893238 115.555556 328.893238 106.684444 328.893238 106.6624 337.764413 106.6624 337.764413 97.7912889 346.657651 97.7912889 346.657651 106.6624 355.55089 106.6624 355.55089 97.7912889 364.44484 97.7912889 364.44484 106.6624 373.316014 106.6624 373.316014 97.7912889 382.209253 97.7912889 382.209253 106.6624 391.102491 106.6624 391.102491 115.555556 382.209253 115.555556 382.209253 106.680178 382.213523 106.680178zM328.893238 106.658133L328.893238 97.7863111 320 97.7863111 320 106.680178 328.893238 106.680178 328.893238 106.658133zM355.55089 151.106844L355.55089 160 364.44484 160 364.44484 151.106844 355.55089 151.106844zM382.213523 133.341867L382.213523 124.448711 391.106762 124.448711 391.106762 133.341867 382.213523 133.341867zM337.764413 142.213689L328.893238 142.213689 328.893238 133.341867 337.764413 133.341867 337.764413 142.213689zM337.786477 97.7863111L337.786477 88.8931556 346.657651 88.8931556 346.657651 97.7863111 355.55089 97.7863111 355.55089 88.8931556 364.44484 88.8931556 364.44484 97.7863111 373.338078 97.7863111 373.338078 88.8931556 382.209253 88.8931556 382.209253 97.7863111 391.102491 97.7863111 391.102491 88.8931556 382.209253 88.8931556 382.209253 80 373.316014 80 373.316014 88.8931556 364.44484 88.8931556 364.44484 80 355.55089 80 355.55089 88.8931556 346.657651 88.8931556 346.657651 80 337.764413 80 337.764413 88.8931556 328.893238 88.8931556 328.893238 80 320 80 320 88.8931556 328.893238 88.8931556 328.893238 97.7863111 337.786477 97.7863111zM373.316014 115.551289L373.316014 124.444444 364.44484 124.444444 364.44484 115.551289 373.316014 115.551289zM355.55089 115.551289L355.55089 106.680178 364.44484 106.680178 364.44484 115.551289 355.55089 115.551289zM346.657651 115.551289L355.55089 115.551289 355.55089 124.444444 346.657651 124.444444 346.657651 115.551289zM346.657651 115.551289L337.786477 115.551289 337.786477 106.680178 346.657651 106.680178 346.657651 115.551289zM346.657651 133.341867L337.786477 133.341867 337.786477 124.448711 346.657651 124.448711 346.657651 133.341867zM355.55089 133.341867L355.55089 142.213689 346.657651 142.213689 346.657651 133.341867 355.55089 133.341867zM364.44911 133.341867L355.555872 133.341867 355.555872 124.448711 364.44911 124.448711 364.44911 133.341867zM364.44911 133.341867L373.320285 133.341867 373.320285 142.213689 364.44911 142.213689 364.44911 133.341867zM337.764413 124.448711L337.764413 115.555556 328.893238 115.555556 328.893238 124.448711 337.764413 124.448711zM400 151.106844L391.106762 151.106844 391.106762 160 400 160 400 151.106844zM391.106762 133.341867L400 133.341867 400 142.235733 391.106762 142.235733 391.106762 133.341867zM400 115.551289L391.106762 115.551289 391.106762 124.444444 400 124.444444 400 115.551289zM391.106762 97.7863111L400 97.7863111 400 106.680178 391.106762 106.680178 391.106762 97.7863111zM391.106762 80L400 80 400 88.8931556 391.106762 88.8931556 391.106762 80zM391.106762 480L400 480 400 400 391.106762 400 391.106762 480zM382.222064 480L373.333096 480 373.333096 400 382.222064 400 382.222064 480zM364.44484 480L355.555872 480 355.555872 400 364.44484 400 364.44484 480zM337.777936 480L346.666904 480 346.666904 400 337.777936 400 337.777936 480zM328.888968 480L320 480 320 400 328.888968 400 328.888968 480zM311.106762 80L320 80 320 0 311.106762 0 311.106762 80zM302.222064 80L293.333096 80 293.333096 0 302.222064 0 302.222064 80zM284.44484 80L275.555872 80 275.555872 0 284.44484 0 284.44484 80zM257.777936 80L266.666904 80 266.666904 0 257.777936 0 257.777936 80zM248.888968 80L240 80 240 0 248.888968 0 248.888968 80zM240 248.893156L240 240 160 240 160 248.893156 240 248.893156zM240 257.777778L240 266.666667 160 266.666667 160 257.777778 240 257.777778zM240 275.555556L240 284.444444 160 284.444444 160 275.555556 240 275.555556zM240 302.222222L240 293.333333 160 293.333333 160 302.222222 240 302.222222zM240 311.111111L240 320 160 320 160 311.111111 240 311.111111zM320 471.106702L320 480 240 480 240 471.106702 320 471.106702zM320 444.435556L320 435.542258 240 435.542258 240 444.435556 320 444.435556zM320 417.76448L320 426.657778 240 426.657778 240 417.76448 320 417.76448zM320 400L320 408.893369 240 408.893369 240 400 320 400zM320 462.213333L320 453.319964 240 453.319964 240 462.213333 320 462.213333z"/>
      <path fill="#FFF" d="M391.111032,480 L400,480 C400,524.182044 364.182206,560 320,560 L320,551.111111 C359.275445,551.111111 391.111032,519.275378 391.111032,480 Z M373.333096,480 L382.222064,480 C382.222064,514.364444 354.364413,542.222222 320,542.222222 L320,533.333333 C349.453381,533.333333 373.333096,509.453511 373.333096,480 Z M364.44484,480 L355.555872,480 C355.555872,499.6352 339.635587,515.555556 320,515.555556 L320,524.444444 C344.546619,524.444444 364.44484,504.546844 364.44484,480 Z M337.777936,480 L346.666904,480 C346.666904,494.728533 334.728826,506.666667 320,506.666667 L320,497.777778 C329.817794,497.777778 337.777936,489.8176 337.777936,480 Z M320,480 L328.888968,480 C328.888968,484.910933 324.911032,488.888889 320,488.888889 L320,480 Z"/>
      <path fill="#261EE4" d="M8.88896797,560 L0,560 C0,515.817956 35.8177936,480 80,480 L80,488.888889 C40.7245552,488.888889 8.88896797,520.724622 8.88896797,560 Z M26.6669039,560 L17.7779359,560 C17.7779359,525.635556 45.6355872,497.777778 80,497.777778 L80,506.666667 C50.5466192,506.666667 26.6669039,530.546489 26.6669039,560 Z M35.5558719,560 L44.4448399,560 C44.4448399,540.364089 60.3644128,524.444444 80,524.444444 L80,515.555556 C55.4533808,515.555556 35.5558719,535.453156 35.5558719,560 Z M62.2220641,560 L53.3338078,560 C53.3338078,545.270756 65.2711744,533.333333 80,533.333333 L80,542.222222 C70.1822064,542.222222 62.2220641,550.1824 62.2220641,560 Z M80,560 L71.111032,560 C71.111032,555.089067 75.088968,551.111111 80,551.111111 L80,560 Z"/>
      <path fill="#FFF" d="M8.88896797,240 L0,240 C0,195.817956 35.8177936,160 80,160 L80,168.888889 C40.7245552,168.888889 8.88896797,200.724622 8.88896797,240 Z M26.6669039,240 L17.7779359,240 C17.7779359,205.635556 45.6355872,177.777778 80,177.777778 L80,186.666667 C50.5466192,186.666667 26.6669039,210.546489 26.6669039,240 Z M35.5558719,240 L44.4448399,240 C44.4448399,220.364089 60.3644128,204.444444 80,204.444444 L80,195.555556 C55.4533808,195.555556 35.5558719,215.453156 35.5558719,240 Z M62.2220641,240 L53.3338078,240 C53.3338078,225.270756 65.2711744,213.333333 80,213.333333 L80,222.222222 C70.1822064,222.222222 62.2220641,230.1824 62.2220641,240 Z M80,240 L71.111032,240 C71.111032,235.089067 75.088968,231.111111 80,231.111111 L80,240 Z"/>
      <path fill="#FFF" d="M248.888968,240 L240,240 C240,195.817956 275.817794,160 320,160 L320,168.888889 C280.724555,168.888889 248.888968,200.724622 248.888968,240 Z M266.666904,240 L257.777936,240 C257.777936,205.635556 285.635587,177.777778 320,177.777778 L320,186.666667 C290.546619,186.666667 266.666904,210.546489 266.666904,240 Z M275.555872,240 L284.44484,240 C284.44484,220.364089 300.364413,204.444444 320,204.444444 L320,195.555556 C295.453381,195.555556 275.555872,215.453156 275.555872,240 Z M302.222064,240 L293.333808,240 C293.333808,225.270756 305.271174,213.333333 320,213.333333 L320,222.222222 C310.182206,222.222222 302.222064,230.1824 302.222064,240 Z M320,240 L311.111032,240 C311.111032,235.089067 315.088968,231.111111 320,231.111111 L320,240 Z" transform="rotate(-90 280 200)"/>
      <path fill="#261EE4" d="M88.888968,160 L80,160 C80,115.817956 115.817794,80 160,80 L160,88.8888889 C120.724555,88.8888889 88.888968,120.724622 88.888968,160 Z M106.666904,160 L97.7779359,160 C97.7779359,125.635556 125.635587,97.7777778 160,97.7777778 L160,106.666667 C130.546619,106.666667 106.666904,130.546489 106.666904,160 Z M115.555872,160 L124.44484,160 C124.44484,140.364089 140.364413,124.444444 160,124.444444 L160,115.555556 C135.453381,115.555556 115.555872,135.453156 115.555872,160 Z M142.222064,160 L133.333808,160 C133.333808,145.270756 145.271174,133.333333 160,133.333333 L160,142.222222 C150.182206,142.222222 142.222064,150.1824 142.222064,160 Z M160,160 L151.111032,160 C151.111032,155.089067 155.088968,151.111111 160,151.111111 L160,160 Z" transform="rotate(-180 120 120)"/>
      <path fill="#FFF" d="M168.888968,720 L160,720 C160,675.817956 195.817794,640 240,640 L240,648.888889 C200.724555,648.888889 168.888968,680.724622 168.888968,720 Z M186.666904,720 L177.777936,720 C177.777936,685.635556 205.635587,657.777778 240,657.777778 L240,666.666667 C210.546619,666.666667 186.666904,690.546489 186.666904,720 Z M195.555872,720 L204.44484,720 C204.44484,700.364089 220.364413,684.444444 240,684.444444 L240,675.555556 C215.453381,675.555556 195.555872,695.453156 195.555872,720 Z M222.222064,720 L213.333808,720 C213.333808,705.270756 225.271174,693.333333 240,693.333333 L240,702.222222 C230.182206,702.222222 222.222064,710.1824 222.222064,720 Z M240,720 L231.111032,720 C231.111032,715.089067 235.088968,711.111111 240,711.111111 L240,720 Z" transform="matrix(-1 0 0 1 400 0)"/>
      <path fill="#261EE4" fill-rule="nonzero" d="M80 640L160 640 160 560C115.817794 560 80 595.817956 80 640zM320 720L400 720 400 640C355.817794 640 320 675.817956 320 720z"/>
      <path fill="#261EE4" d="M400,793.733689 L400,800 L393.733096,800 L320,726.267022 L320,720 L326.266192,720 L400,793.733689 Z M320,738.844444 L320,751.422578 L368.577936,800 L381.15516,800 L320,738.844444 Z M320,776.577422 L320,764 L356,800 L343.422064,800 L320,776.577422 Z M320,800 L330.844128,800 L320,789.155556 L320,800 Z M338.844128,720 L351.422064,720 L400,768.577422 L400,781.155556 L338.844128,720 Z M376.577936,720 L364,720 L400,756 L400,743.422578 L376.577936,720 Z M400,730.844444 L389.15516,720 L400,720 L400,730.844444 Z"/>
      <path fill="#261EE4" d="M400,313.733689 L400,320 L393.733096,320 L320,246.267022 L320,240 L326.266192,240 L400,313.733689 Z M320,258.844444 L320,271.422578 L368.577936,320 L381.15516,320 L320,258.844444 Z M320,296.577422 L320,284 L356,320 L343.422064,320 L320,296.577422 Z M320,320 L330.844128,320 L320,309.155556 L320,320 Z M338.844128,240 L351.422064,240 L400,288.577422 L400,301.155556 L338.844128,240 Z M376.577936,240 L364,240 L400,276 L400,263.422578 L376.577936,240 Z M400,250.844444 L389.15516,240 L400,240 L400,250.844444 Z" transform="rotate(90 360 280)"/>
    </g>
    <g fill="#FFF" fill-rule="nonzero" transform="translate(180 200)">
      <path d="M41.36675 36.3L41.36675 33.1 46.4 33.1 46.4 12.7 49.93325 12.7 49.93325 33.36675C49.93325 34.96675 48.63325 36.3 47 36.3L41.36675 36.3zM54.53325 27.66675C52.83325 25.96675 51.96675 23.83325 51.96675 21.3 51.96675 18.76675 52.83325 16.63325 54.53325 14.93325 56.23325 13.23325 58.36675 12.36675 60.9 12.36675 63.43325 12.36675 65.53325 13.23325 67.26675 14.93325 68.96675 16.63325 69.83325 18.76675 69.83325 21.3 69.83325 23.83325 68.96675 25.96675 67.26675 27.66675 65.56675 29.36675 63.43325 30.23325 60.9 30.23325 58.33325 30.23325 56.23325 29.36675 54.53325 27.66675zM57.1 17.1C56.13325 18.13325 55.66675 19.53325 55.66675 21.26675 55.66675 23 56.13325 24.4 57.1 25.43325 58.06675 26.46675 59.33325 27 60.86675 27 62.4 27 63.66675 26.46675 64.63325 25.43325 65.6 24.4 66.06675 23 66.06675 21.26675 66.06675 19.53325 65.6 18.13325 64.63325 17.1 63.66675 16.06675 62.4 15.53325 60.86675 15.53325 59.33325 15.56675 58.06675 16.06675 57.1 17.1zM70.1 12.7L73.8 12.7 77.5 26.53325 79.33325 26.53325 83.36675 12.7 87.06675 12.7 80 36.3 76.3 36.3 78.3 29.9 77 29.9C75.7 29.9 74.53325 29.03325 74.2 27.76675L70.1 12.7zM86.73325 24.5L90.6 24.5C90.63325 24.56675 90.66675 24.66675 90.73325 24.76675 90.8 24.86675 90.93325 25.06675 91.13325 25.36675 91.33325 25.66675 91.6 25.93325 91.86675 26.13325 92.13325 26.36675 92.56675 26.56675 93.06675 26.73325 93.6 26.9 94.16675 27 94.8 27 96.03325 27 96.93325 26.8 97.5 26.43325 98.06675 26.06675 98.33325 25.56675 98.33325 25 98.33325 24.46675 97.96675 24.03325 97.23325 23.73325 96.5 23.43325 95.6 23.16675 94.53325 22.96675 93.46675 22.76675 92.43325 22.5 91.36675 22.16675 90.3 21.83325 89.43325 21.3 88.66675 20.5 87.93325 19.7 87.56675 18.7 87.56675 17.43325 87.56675 16.1 88.16675 14.9 89.4 13.9 90.63325 12.9 92.26675 12.4 94.26675 12.4 95.53325 12.4 96.63325 12.6 97.63325 12.96675 98.63325 13.33325 99.36675 13.8 99.86675 14.3 100.36675 14.83325 100.76675 15.36675 101.1 15.9 101.43325 16.43325 101.63325 16.86675 101.73325 17.26675L101.86675 17.8 98.16675 17.8C98.13325 17.73325 98.1 17.66675 98.06675 17.56675 98.03325 17.46675 97.9 17.3 97.7 17.03325 97.5 16.76675 97.3 16.56675 97.03325 16.36675 96.76675 16.16675 96.4 16 95.93325 15.83325 95.46675 15.66675 94.9 15.6 94.3 15.6 93.3 15.6 92.56675 15.76675 92.03325 16.13325 91.53325 16.5 91.26675 16.93325 91.26675 17.46675 91.26675 17.9 91.53325 18.3 92.06675 18.6 92.6 18.9 93.26675 19.13325 94.06675 19.26675 94.86675 19.4 95.73325 19.6 96.66675 19.86675 97.6 20.13325 98.43325 20.43325 99.26675 20.76675 100.06675 21.1 100.73325 21.63325 101.26675 22.36675 101.8 23.1 102.06675 24 102.06675 25.03325 102.06675 26.46675 101.43325 27.7 100.13325 28.73325 98.83325 29.76675 97.06675 30.26675 94.83325 30.26675 93.5 30.26675 92.33325 30.06675 91.3 29.66675 90.26675 29.26675 89.46675 28.8 88.93325 28.23325 88.4 27.66675 87.96675 27.1 87.6 26.53325 87.26675 25.96675 87.03325 25.5 86.93325 25.13325L86.73325 24.5zM102.7 15.9L102.7 12.7 104.7 12.7 104.7 9 108.23325 9 108.23325 12.7 113.46675 12.7 113.46675 15.9 108.26675 15.9 108.26675 26.7 113.63325 26.7 113.63325 29.9 107.63325 29.9C106.03325 29.9 104.7 28.6 104.7 26.96675L104.7 15.9 102.7 15.9zM119.16675 15.9L119.16675 29.9 115.63325 29.9 115.63325 15.26675C115.63325 13.86675 116.76675 12.7 118.2 12.7L119.16675 12.7 126.06675 12.7 126.06675 15.9 119.16675 15.9zM128.46675 27.66675C126.8 25.93325 125.93325 23.8 125.93325 21.3 125.93325 18.8 126.8 16.66675 128.46675 14.93325 130.16675 13.2 132.23325 12.36675 134.66675 12.36675 137.1 12.36675 139.16675 13.23325 140.86675 14.93325 142.56675 16.66675 143.4 18.76675 143.4 21.3L143.4 22.46675 129.46675 22.46675C129.7 23.86675 130.33325 24.96675 131.26675 25.8 132.23325 26.63325 133.36675 27.03325 134.66675 27.03325 135.73325 27.03325 136.63325 26.83325 137.46675 26.43325 138.26675 26.03325 138.83325 25.63325 139.1 25.23325L139.53325 24.66675 143.23325 24.66675C143.2 24.83325 143.1 25.03325 143 25.26675 142.9 25.5 142.6 25.96675 142.13325 26.6 141.66675 27.23325 141.16675 27.8 140.56675 28.3 140 28.76675 139.16675 29.23325 138.1 29.63325 137.03325 30.03325 135.9 30.23325 134.63325 30.23325 132.23325 30.23325 130.16675 29.36675 128.46675 27.66675zM130.1 19.6L140.16675 19.6C140 18.5 139.46675 17.53325 138.56675 16.76675 137.66675 15.96675 136.53325 15.56675 135.13325 15.56675 133.93325 15.56675 132.83325 15.93325 131.9 16.66675 130.96675 17.4 130.36675 18.36675 130.1 19.6zM146.7 27.76675C145.16675 26.1 144.4 23.93325 144.4 21.3 144.4 18.66675 145.16675 16.5 146.7 14.83325 148.23325 13.16675 150.16675 12.36675 152.46675 12.36675 153.53325 12.36675 154.5 12.56675 155.4 13 156.3 13.43325 156.93325 13.83325 157.3 14.23325L157.83325 14.86675 158 14.86675 158 12.66675 161.53325 12.66675 161.53325 29.86675 158 29.86675 158 27.5 157.83325 27.5C157.8 27.56675 157.7 27.66675 157.6 27.8 157.5 27.93325 157.26675 28.13325 156.93325 28.46675 156.6 28.76675 156.23325 29.06675 155.86675 29.3 155.5 29.53325 154.96675 29.73325 154.36675 29.93325 153.73325 30.13325 153.1 30.23325 152.46675 30.23325 150.2 30.23325 148.26675 29.4 146.7 27.76675zM164.6 29.9L164.6 12.7 168.13325 12.7 168.13325 15.06675 168.3 15.06675C168.33325 15 168.4 14.9 168.46675 14.76675 168.53325 14.63325 168.7 14.43325 169 14.1 169.3 13.8 169.6 13.5 169.96675 13.26675 170.3 13.03325 170.8 12.83325 171.4 12.63325 172 12.43325 172.66675 12.33325 173.33325 12.33325 174.13325 12.33325 174.9 12.43325 175.56675 12.66675 176.26675 12.9 176.8 13.16675 177.16675 13.46675 177.56675 13.76675 177.9 14.1 178.16675 14.4 178.43325 14.7 178.6 14.96675 178.7 15.2L178.86675 15.53325 179.03325 15.53325C179.06675 15.43325 179.13325 15.33325 179.23325 15.16675 179.3 15.03325 179.53325 14.76675 179.86675 14.4 180.2 14.03325 180.56675 13.73325 180.96675 13.43325 181.36675 13.16675 181.93325 12.9 182.63325 12.66675 183.36675 12.43325 184.1 12.3 184.93325 12.3 186.9 12.3 188.46675 12.93325 189.6 14.2 190.73325 15.46675 191.3 17.23325 191.3 19.56675L191.3 29.83325 187.76675 29.83325 187.76675 19.76675C187.76675 16.96675 186.53325 15.56675 184.06675 15.56675 182.86675 15.56675 181.83325 16.03325 180.96675 16.93325 180.1 17.86675 179.7 19.03325 179.7 20.43325L179.7 29.86675 176.16675 29.86675 176.16675 19.76675C176.16675 16.96675 174.93325 15.56675 172.46675 15.56675 171.26675 15.56675 170.23325 16.03325 169.36675 16.93325 168.5 17.86675 168.1 19.03325 168.1 20.43325L168.1 29.86675 164.6 29.86675 164.6 29.9zM46.43325 6.13325L46.43325 9.66675 49.96675 9.66675 49.96675 6.13325 46.43325 6.13325zM149.06675 17.1C148.1 18.13325 147.63325 19.53325 147.63325 21.26675 147.63325 23 148.1 24.4 149.06675 25.43325 150.03325 26.46675 151.3 27 152.83325 27 154.36675 27 155.63325 26.46675 156.6 25.43325 157.56675 24.4 158.03325 23 158.03325 21.26675 158.03325 19.53325 157.56675 18.13325 156.6 17.1 155.63325 16.06675 154.36675 15.53325 152.83325 15.53325 151.3 15.56675 150.03325 16.06675 149.06675 17.1zM28.06675 2.7000624e-13L31.7 2.7000624e-13 31.7 10.43325C31.7 14.6 30.13325 18.43325 27.56675 21.33325 27.9 19.93325 28.06675 18.5 28.06675 17L28.06675 2.7000624e-13zM9.8 29.7665C9.7 29.8665 9.63325 29.9665 9.53325 30.0665 9.5 30.1 9.46675 30.13325 9.43325 30.1665 9.33325 30.2665 9.26675 30.3665 9.16675 30.43325 9.13325 30.4665 9.06675 30.53325 9.03325 30.5665 8.93325 30.6665 8.83325 30.7665 8.7 30.8665 8.56675 31 8.43325 31.1 8.3 31.23325 8.16675 31.3665 8.03325 31.4665 7.86675 31.5665 7.73325 31.6665 7.6 31.7665 7.46675 31.8665 7.13325 32.0665 6.8 32.2665 6.46675 32.43325 6.4 32.4665 6.33325 32.5 6.23325 32.53325 6.13325 32.5665 6.06675 32.6 6 32.63325 5.9 32.6665 5.83325 32.7 5.73325 32.73325 5.56675 32.8 5.4 32.8665 5.2 32.93325 5.2 32.93325 5.2 32.93325 5.16675 32.93325 5 33 4.83325 33.03325 4.66675 33.0665L4.63325 33.0665C4.46675 33.1 4.3 33.1665 4.13325 33.2 3.93325 33.23325 3.7 33.3 3.5 33.3 3.43325 33.3 3.36675 33.33325 3.3 33.33325L3.26675 33.33325C3.06675 33.3665 2.9 33.3665 2.7 33.3665 2.6 33.3665 2.5 33.3665 2.4 33.3665 2.3 33.3665 2.2 33.3665 2.1 33.3665L1.96675 33.3665 3.06675 29.73325 9.8 29.73325 9.8 29.7665zM25.13325-7.10542736e-15L25.13325 17C25.13325 17.26675 25.13325 17.56675 25.1 17.83325 25.1 17.96675 25.1 18.1 25.06675 18.23325 25.06675 18.36675 25.03325 18.5 25.03325 18.63325 25.03325 18.76675 25 18.9 25 19.03325 25 19.13325 24.96675 19.26675 24.96675 19.36675L24.96675 19.4C24.96675 19.43325 24.96675 19.46675 24.96675 19.46675 24.93325 19.6 24.93325 19.73325 24.9 19.83325 24.86675 19.96675 24.86675 20.1 24.83325 20.2L24.83325 20.23325C24.8 20.33325 24.8 20.43325 24.76675 20.53325 24.76675 20.56675 24.76675 20.56675 24.76675 20.6 24.66675 21 24.56675 21.43325 24.43325 21.83325 24.4 21.93325 24.36675 22.06675 24.33325 22.16675 24.3 22.3 24.26675 22.4 24.2 22.53325 24.16675 22.66675 24.1 22.76675 24.06675 22.86675 24.03325 23 23.96675 23.1 23.93325 23.2 23.9 23.33325 23.83325 23.43325 23.8 23.53325 23.76675 23.63325 23.7 23.76675 23.63325 23.86675 23.6 23.96675 23.53325 24.1 23.46675 24.2 23.4 24.3 23.36675 24.43325 23.3 24.53325 23.26675 24.63325 23.2 24.7 23.16675 24.8 23.06675 25 22.96675 25.16675 22.83325 25.36675 22.73325 25.53325 22.63325 25.7 22.53325 25.83325 22.46675 25.96675 22.4 26.06675 22.3 26.16675 22.26675 26.23325 22.2 26.3 22.16675 26.33325 22.06675 26.46675 22 26.56675 21.9 26.66675 21.8 26.8 21.7 26.9 21.63325 27.03325 21.43325 27.26675 21.23325 27.5 21.03325 27.73325 21.06675 27.6 21.1 27.46675 21.13325 27.33325 21.16675 27.23325 21.16675 27.13325 21.2 27.03325 21.2 27.03325 21.2 27.03325 21.2 27 21.2 26.96675 21.2 26.96675 21.2 26.93325 21.23325 26.8 21.23325 26.66675 21.26675 26.53325 21.3 26.36675 21.33325 26.2 21.33325 26.06675 21.33325 25.96675 21.36675 25.86675 21.36675 25.8 21.36675 25.7 21.4 25.63325 21.4 25.53325 21.43325 25.36675 21.43325 25.2 21.46675 25 21.46675 24.96675 21.46675 24.96675 21.46675 24.93325 21.46675 24.9 21.46675 24.9 21.46675 24.86675 21.46675 24.73325 21.5 24.63325 21.5 24.5 21.5 24.4 21.5 24.3 21.5 24.2L21.5 24.33325C21.5 24.23325 21.5 24.13325 21.5 24.03325 21.5 23.86675 21.5 23.73325 21.5 23.56675L21.5-7.10542736e-15 25.13325-7.10542736e-15z"/>
      <path d="M18.56675,0 L18.56675,23.56675 C18.56675,24.13325 18.53325,24.66675 18.5,25.2 C18.46675,25.66675 18.4,26.1 18.3,26.56675 C18.1,27.63325 17.8,28.66675 17.4,29.63325 C17.16675,30.23325 16.86675,30.83325 16.56675,31.4 C15.63325,33.06675 14.43325,34.56675 13.03325,35.83325 C10.13325,38.43325 6.3,40 2.13325,40 L-9.23705556e-14,40 L1.1,36.36675 L2.16675,36.36675 C5.3,36.36675 8.16675,35.23325 10.36675,33.36675 C11.56675,32.36675 12.56675,31.16675 13.3,29.8 C13.5,29.46675 13.66675,29.1 13.83325,28.73325 C14.1,28.13325 14.3,27.53325 14.46675,26.9 C14.66675,26.2 14.8,25.46675 14.83325,24.73325 C14.86675,24.36675 14.86675,24 14.86675,23.63325 L14.86675,0 L18.56675,0 Z"/>
      <path d="M12,23.2 L12,23.56675 C12,23.86675 12,24.16675 11.96675,24.4335 C11.9,25 11.83325,25.56675 11.66675,26.1 C11.6,26.36675 11.53325,26.6335 11.43325,26.86675 L3.93325,26.86675 L5.03325,23.2335 L12,23.2335 L12,23.2 Z"/>
    </g>
    <path fill="#FFF" d="M365.083008,528.461914 C367.79461,528.461914 370.152985,528.929032 372.158203,529.863281 C374.163421,530.797531 375.826816,532.079256 377.148438,533.708496 C378.470059,535.337736 379.46126,537.308745 380.12207,539.621582 C380.782881,541.934419 381.113281,544.446601 381.113281,547.158203 C381.113281,549.915378 380.782881,552.433257 380.12207,554.711914 C379.46126,556.990571 378.470059,558.950187 377.148438,560.59082 C375.826816,562.231454 374.157725,563.518876 372.141113,564.453125 C370.124502,565.387374 367.771823,565.854492 365.083008,565.854492 C362.371406,565.854492 360.013031,565.387374 358.007812,564.453125 C356.002594,563.518876 354.333503,562.231454 353.000488,560.59082 C351.667474,558.950187 350.676273,556.990571 350.026855,554.711914 C349.377438,552.433257 349.052734,549.915378 349.052734,547.158203 C349.052734,544.446601 349.377438,541.934419 350.026855,539.621582 C350.676273,537.308745 351.667474,535.337736 353.000488,533.708496 C354.333503,532.079256 356.002594,530.797531 358.007812,529.863281 C360.013031,528.929032 362.371406,528.461914 365.083008,528.461914 Z M247.949219,528.461914 C250.524101,528.461914 252.768545,528.906246 254.682617,529.794922 C256.596689,530.683598 258.180332,531.896965 259.433594,533.435059 C260.686855,534.973152 261.632484,536.778961 262.270508,538.852539 C262.908532,540.926117 263.227539,543.159168 263.227539,545.551758 L263.227539,548.901367 L239.199219,548.901367 L239.199219,552.695312 C239.199219,553.994147 239.444171,555.144852 239.934082,556.147461 C240.423993,557.15007 241.090491,557.998857 241.933594,558.693848 C242.776697,559.388838 243.722325,559.912921 244.770508,560.266113 C245.81869,560.619305 246.901036,560.795898 248.017578,560.795898 C250.250662,560.795898 252.187492,560.226243 253.828125,559.086914 C255.468758,557.947585 256.402994,556.13608 256.630859,553.652344 L262.954102,553.652344 C262.817382,555.566416 262.316085,557.269687 261.450195,558.762207 C260.584306,560.254728 259.462084,561.52506 258.083496,562.573242 C256.704908,563.621425 255.149748,564.430336 253.417969,565 C251.686189,565.569664 249.863291,565.854492 247.949219,565.854492 C245.374336,565.854492 243.124196,565.387374 241.19873,564.453125 C239.273265,563.518876 237.666836,562.231454 236.379395,560.59082 C235.091953,558.950187 234.134932,556.990571 233.508301,554.711914 C232.88167,552.433257 232.568359,549.915378 232.568359,547.158203 C232.568359,544.446601 232.904456,541.934419 233.57666,539.621582 C234.248864,537.308745 235.251458,535.337736 236.584473,533.708496 C237.917487,532.079256 239.529613,530.797531 241.420898,529.863281 C243.312184,528.929032 245.488269,528.461914 247.949219,528.461914 Z M819.194336,517.387695 L819.194336,565 L812.871094,565 L812.871094,559.189453 C811.754552,561.331391 810.262054,562.977696 808.393555,564.128418 C806.525056,565.27914 804.269219,565.854492 801.625977,565.854492 C799.2106,565.854492 797.10857,565.364588 795.319824,564.384766 C793.531078,563.404943 792.044277,562.071949 790.859375,560.385742 C789.674473,558.699536 788.791507,556.72283 788.210449,554.455566 C787.629392,552.188302 787.338867,549.755872 787.338867,547.158203 C787.338867,544.58332 787.629392,542.15089 788.210449,539.86084 C788.791507,537.570789 789.66308,535.588387 790.825195,533.913574 C791.98731,532.238761 793.457022,530.911463 795.234375,529.931641 C797.011728,528.951818 799.085275,528.461914 801.455078,528.461914 C804.121107,528.461914 806.411123,529.03157 808.325195,530.170898 C810.239267,531.310227 811.754552,532.962229 812.871094,535.126953 L812.871094,517.387695 L819.194336,517.387695 Z M608.203125,528.461914 C610.914727,528.461914 613.273102,528.929032 615.27832,529.863281 C617.283539,530.797531 618.946933,532.079256 620.268555,533.708496 C621.590176,535.337736 622.581377,537.308745 623.242188,539.621582 C623.902998,541.934419 624.233398,544.446601 624.233398,547.158203 C624.233398,549.915378 623.902998,552.433257 623.242188,554.711914 C622.581377,556.990571 621.590176,558.950187 620.268555,560.59082 C618.946933,562.231454 617.277842,563.518876 615.26123,564.453125 C613.244619,565.387374 610.891941,565.854492 608.203125,565.854492 C605.491523,565.854492 603.133148,565.387374 601.12793,564.453125 C599.122711,563.518876 597.45362,562.231454 596.120605,560.59082 C594.787591,558.950187 593.79639,556.990571 593.146973,554.711914 C592.497555,552.433257 592.172852,549.915378 592.172852,547.158203 C592.172852,544.446601 592.497555,541.934419 593.146973,539.621582 C593.79639,537.308745 594.787591,535.337736 596.120605,533.708496 C597.45362,532.079256 599.122711,530.797531 601.12793,529.863281 C603.133148,528.929032 605.491523,528.461914 608.203125,528.461914 Z M639.956055,529.316406 L639.956055,552.387695 C639.956055,554.962578 640.457352,557.007642 641.459961,558.522949 C642.46257,560.038256 644.296862,560.795898 646.962891,560.795898 C649.62892,560.795898 651.742342,559.804697 653.303223,557.822266 C654.864103,555.839834 655.644531,553.287776 655.644531,550.166016 L655.644531,529.316406 L661.933594,529.316406 L661.933594,565 L655.644531,565 L655.644531,559.121094 C654.664709,561.217458 653.3545,562.863764 651.713867,564.060059 C650.073234,565.256354 647.908542,565.854492 645.219727,565.854492 C643.579093,565.854492 642.046719,565.620933 640.622559,565.153809 C639.198398,564.686684 637.973638,563.940435 636.948242,562.915039 C635.922846,561.889643 635.119632,560.568042 634.538574,558.950195 C633.957517,557.332349 633.666992,555.384126 633.666992,553.105469 L633.666992,529.316406 L639.956055,529.316406 Z M764.301758,528.461914 C766.87664,528.461914 769.121084,528.906246 771.035156,529.794922 C772.949228,530.683598 774.532871,531.896965 775.786133,533.435059 C777.039394,534.973152 777.985023,536.778961 778.623047,538.852539 C779.261071,540.926117 779.580078,543.159168 779.580078,545.551758 L779.580078,548.901367 L755.551758,548.901367 L755.551758,552.695312 C755.551758,553.994147 755.79671,555.144852 756.286621,556.147461 C756.776532,557.15007 757.44303,557.998857 758.286133,558.693848 C759.129236,559.388838 760.074865,559.912921 761.123047,560.266113 C762.171229,560.619305 763.253575,560.795898 764.370117,560.795898 C766.603201,560.795898 768.540031,560.226243 770.180664,559.086914 C771.821297,557.947585 772.755533,556.13608 772.983398,553.652344 L779.306641,553.652344 C779.169921,555.566416 778.668624,557.269687 777.802734,558.762207 C776.936845,560.254728 775.814623,561.52506 774.436035,562.573242 C773.057448,563.621425 771.502287,564.430336 769.770508,565 C768.038728,565.569664 766.21583,565.854492 764.301758,565.854492 C761.726875,565.854492 759.476735,565.387374 757.55127,564.453125 C755.625804,563.518876 754.019375,562.231454 752.731934,560.59082 C751.444492,558.950187 750.487471,556.990571 749.86084,554.711914 C749.234209,552.433257 748.920898,549.915378 748.920898,547.158203 C748.920898,544.446601 749.256995,541.934419 749.929199,539.621582 C750.601403,537.308745 751.603997,535.337736 752.937012,533.708496 C754.270026,532.079256 755.882152,530.797531 757.773438,529.863281 C759.664723,528.929032 761.840808,528.461914 764.301758,528.461914 Z M726.943359,528.461914 C728.811858,528.461914 730.577791,528.706866 732.241211,529.196777 C733.904631,529.686689 735.362949,530.444331 736.616211,531.469727 C737.869472,532.495122 738.894853,533.799634 739.692383,535.383301 C740.489913,536.966968 740.979817,538.841135 741.162109,541.005859 L734.873047,541.005859 C734.736327,539.570305 734.43441,538.368332 733.967285,537.399902 C733.50016,536.431473 732.890629,535.656741 732.138672,535.075684 C731.386715,534.494626 730.532231,534.084474 729.575195,533.845215 C728.618159,533.605956 727.626958,533.486328 726.601562,533.486328 C725.530594,533.486328 724.505213,533.662921 723.525391,534.016113 C722.545568,534.369305 721.656905,534.899085 720.859375,535.605469 C720.061845,536.311852 719.429527,537.189122 718.962402,538.237305 C718.495278,539.285487 718.261719,540.50455 718.261719,541.894531 L718.261719,552.387695 C718.261719,553.640957 718.483884,554.797358 718.928223,555.856934 C719.372561,556.916509 719.982092,557.805172 720.756836,558.522949 C721.531579,559.240726 722.420242,559.798989 723.422852,560.197754 C724.425461,560.596519 725.507807,560.795898 726.669922,560.795898 C728.994152,560.795898 730.930982,560.169277 732.480469,558.916016 C734.029956,557.662754 734.918619,555.703138 735.146484,553.037109 L741.435547,553.037109 C741.207681,555.22462 740.649419,557.121574 739.760742,558.728027 C738.872066,560.334481 737.77263,561.667475 736.462402,562.727051 C735.152174,563.786626 733.671069,564.572751 732.019043,565.085449 C730.367016,565.598147 728.629566,565.854492 726.806641,565.854492 C724.186185,565.854492 721.936045,565.398768 720.056152,564.487305 C718.17626,563.575842 716.60401,562.28842 715.339355,560.625 C714.074701,558.96158 713.140465,557.013358 712.536621,554.780273 C711.932777,552.547189 711.630859,550.09767 711.630859,547.431641 C711.630859,544.583319 711.966956,541.979992 712.63916,539.621582 C713.311364,537.263172 714.302565,535.269377 715.612793,533.640137 C716.923021,532.010897 718.535147,530.740564 720.449219,529.829102 C722.363291,528.917639 724.527983,528.461914 726.943359,528.461914 Z M301.40625,529.316406 L308.481445,557.241211 L308.754883,557.241211 L315.043945,529.316406 L322.700195,529.316406 L329.262695,557.241211 L329.536133,557.241211 L336.679688,529.316406 L342.832031,529.316406 L332.407227,565 L325.776367,565 L319.042969,536.083984 L318.769531,536.083984 L311.967773,565 L305.473633,565 L295.048828,529.316406 L301.40625,529.316406 Z M195.825195,517.387695 L215.478516,556.933594 L215.786133,556.933594 L215.786133,517.387695 L222.211914,517.387695 L222.211914,565 L212.84668,565 L193.15918,525.249023 L192.885742,525.249023 L192.885742,565 L186.425781,565 L186.425781,517.387695 L195.825195,517.387695 Z M690.507812,528.461914 C692.239592,528.461914 693.811842,528.695473 695.224609,529.162598 C696.637377,529.629722 697.85644,530.375971 698.881836,531.401367 C699.907232,532.426763 700.70475,533.742668 701.274414,535.349121 C701.844078,536.955574 702.128906,538.909494 702.128906,541.210938 L702.128906,565 L695.805664,565 L695.805664,541.894531 C695.805664,539.274075 695.304367,537.217618 694.301758,535.725098 C693.299149,534.232577 691.442071,533.486328 688.730469,533.486328 C687.431634,533.486328 686.24675,533.742673 685.175781,534.255371 C684.104812,534.768069 683.170577,535.502925 682.373047,536.459961 C681.575517,537.416997 680.954592,538.550612 680.510254,539.86084 C680.065916,541.171068 679.84375,542.600904 679.84375,544.150391 L679.84375,565 L673.554688,565 L673.554688,529.316406 L679.84375,529.316406 L679.84375,535.195312 C680.823573,533.098948 682.16796,531.452643 683.876953,530.256348 C685.585946,529.060053 687.79621,528.461914 690.507812,528.461914 Z M571.118164,528.461914 C572.849944,528.461914 574.422193,528.695473 575.834961,529.162598 C577.247728,529.629722 578.466792,530.375971 579.492188,531.401367 C580.517583,532.426763 581.315101,533.742668 581.884766,535.349121 C582.45443,536.955574 582.739258,538.909494 582.739258,541.210938 L582.739258,565 L576.416016,565 L576.416016,541.894531 C576.416016,539.274075 575.914719,537.217618 574.912109,535.725098 C573.9095,534.232577 572.052422,533.486328 569.34082,533.486328 C568.041986,533.486328 566.857102,533.742673 565.786133,534.255371 C564.715164,534.768069 563.780928,535.502925 562.983398,536.459961 C562.185868,537.416997 561.564944,538.550612 561.120605,539.86084 C560.676267,541.171068 560.454102,542.600904 560.454102,544.150391 L560.454102,565 L554.165039,565 L554.165039,529.316406 L560.454102,529.316406 L560.454102,535.195312 C561.433924,533.098948 562.778312,531.452643 564.487305,530.256348 C566.196298,529.060053 568.406562,528.461914 571.118164,528.461914 Z M531.230469,528.461914 C532.962248,528.461914 534.534498,528.695473 535.947266,529.162598 C537.360033,529.629722 538.579096,530.375971 539.604492,531.401367 C540.629888,532.426763 541.427406,533.742668 541.99707,535.349121 C542.566735,536.955574 542.851562,538.909494 542.851562,541.210938 L542.851562,565 L536.52832,565 L536.52832,541.894531 C536.52832,539.274075 536.027023,537.217618 535.024414,535.725098 C534.021805,534.232577 532.164727,533.486328 529.453125,533.486328 C528.15429,533.486328 526.969406,533.742673 525.898438,534.255371 C524.827469,534.768069 523.893233,535.502925 523.095703,536.459961 C522.298173,537.416997 521.677248,538.550612 521.23291,539.86084 C520.788572,541.171068 520.566406,542.600904 520.566406,544.150391 L520.566406,565 L514.277344,565 L514.277344,529.316406 L520.566406,529.316406 L520.566406,535.195312 C521.546229,533.098948 522.890616,531.452643 524.599609,530.256348 C526.308602,529.060053 528.518867,528.461914 531.230469,528.461914 Z M490.078125,517.387695 L506.586914,565 L499.580078,565 L495.683594,553.242188 L476.987305,553.242188 L473.056641,565 L466.186523,565 L482.661133,517.387695 L490.078125,517.387695 Z M443.798828,529.316406 L429.443359,545.039062 L444.790039,565 L437.578125,565 L422.163086,545.039062 L436.176758,529.316406 L443.798828,529.316406 Z M422.094727,517.387695 L422.094727,565 L415.805664,565 L415.805664,517.387695 L422.094727,517.387695 Z M407.978516,529.316406 L407.978516,534.750977 L397.109375,534.750977 L397.109375,565 L390.820312,565 L390.820312,529.316406 L407.978516,529.316406 Z M281.616211,517.387695 L281.616211,529.316406 L289.819336,529.316406 L289.819336,534.682617 L281.616211,534.682617 L281.616211,559.599609 L289.819336,559.599609 L289.819336,565 L275.395508,565 L275.395508,534.682617 L269.379883,534.682617 L269.379883,529.316406 L275.395508,529.316406 L275.395508,517.387695 L281.616211,517.387695 Z M608.203125,533.486328 C606.949864,533.486328 605.74789,533.685708 604.597168,534.084473 C603.446446,534.483238 602.449548,535.035804 601.606445,535.742188 C600.763342,536.448571 600.085452,537.303055 599.572754,538.305664 C599.060056,539.308273 598.803711,540.413405 598.803711,541.621094 L598.803711,552.695312 C598.803711,553.903001 599.060056,555.008133 599.572754,556.010742 C600.085452,557.013351 600.763342,557.862138 601.606445,558.557129 C602.449548,559.252119 603.44075,559.798989 604.580078,560.197754 C605.719407,560.596519 606.927077,560.795898 608.203125,560.795898 C609.456386,560.795898 610.652664,560.596519 611.791992,560.197754 C612.931321,559.798989 613.922522,559.252119 614.765625,558.557129 C615.608728,557.862138 616.286619,557.013351 616.799316,556.010742 C617.312014,555.008133 617.568359,553.903001 617.568359,552.695312 L617.568359,541.621094 C617.568359,540.413405 617.312014,539.308273 616.799316,538.305664 C616.286619,537.303055 615.608728,536.448571 614.765625,535.742188 C613.922522,535.035804 612.931321,534.483238 611.791992,534.084473 C610.652664,533.685708 609.456386,533.486328 608.203125,533.486328 Z M365.083008,533.486328 C363.829746,533.486328 362.627773,533.685708 361.477051,534.084473 C360.326329,534.483238 359.329431,535.035804 358.486328,535.742188 C357.643225,536.448571 356.965335,537.303055 356.452637,538.305664 C355.939939,539.308273 355.683594,540.413405 355.683594,541.621094 L355.683594,552.695312 C355.683594,553.903001 355.939939,555.008133 356.452637,556.010742 C356.965335,557.013351 357.643225,557.862138 358.486328,558.557129 C359.329431,559.252119 360.320632,559.798989 361.459961,560.197754 C362.59929,560.596519 363.80696,560.795898 365.083008,560.795898 C366.336269,560.795898 367.532546,560.596519 368.671875,560.197754 C369.811204,559.798989 370.802405,559.252119 371.645508,558.557129 C372.488611,557.862138 373.166501,557.013351 373.679199,556.010742 C374.191897,555.008133 374.448242,553.903001 374.448242,552.695312 L374.448242,541.621094 C374.448242,540.413405 374.191897,539.308273 373.679199,538.305664 C373.166501,537.303055 372.488611,536.448571 371.645508,535.742188 C370.802405,535.035804 369.811204,534.483238 368.671875,534.084473 C367.532546,533.685708 366.336269,533.486328 365.083008,533.486328 Z M803.095703,533.486328 C801.796869,533.486328 800.594895,533.685708 799.489746,534.084473 C798.384597,534.483238 797.421879,535.035804 796.601562,535.742188 C795.781246,536.448571 795.137535,537.303055 794.67041,538.305664 C794.203285,539.308273 793.969727,540.413405 793.969727,541.621094 L793.969727,552.695312 C793.969727,553.903001 794.203285,555.008133 794.67041,556.010742 C795.137535,557.013351 795.781246,557.862138 796.601562,558.557129 C797.421879,559.252119 798.378901,559.798989 799.472656,560.197754 C800.566412,560.596519 801.774082,560.795898 803.095703,560.795898 C806.263037,560.795898 808.684074,559.793304 810.358887,557.788086 C812.0337,555.782868 812.871094,553.242203 812.871094,550.166016 L812.871094,544.150391 C812.871094,541.074203 812.0337,538.527842 810.358887,536.51123 C808.684074,534.494619 806.263037,533.486328 803.095703,533.486328 Z M486.489258,524.804688 L486.21582,524.804688 L478.730469,547.773438 L493.90625,547.773438 L486.489258,524.804688 Z M764.301758,533.486328 C763.139643,533.486328 762.03451,533.674315 760.986328,534.050293 C759.938146,534.426271 759.00391,534.978838 758.183594,535.708008 C757.363277,536.437178 756.719566,537.325841 756.252441,538.374023 C755.785317,539.422206 755.551758,540.595697 755.551758,541.894531 L755.551758,543.876953 L773.051758,543.876953 L773.051758,541.894531 C773.051758,540.595697 772.818199,539.422206 772.351074,538.374023 C771.883949,537.325841 771.245935,536.437178 770.437012,535.708008 C769.628088,534.978838 768.693853,534.426271 767.634277,534.050293 C766.574702,533.674315 765.463873,533.486328 764.301758,533.486328 Z M247.949219,533.486328 C246.787104,533.486328 245.681971,533.674315 244.633789,534.050293 C243.585607,534.426271 242.651371,534.978838 241.831055,535.708008 C241.010738,536.437178 240.367027,537.325841 239.899902,538.374023 C239.432778,539.422206 239.199219,540.595697 239.199219,541.894531 L239.199219,543.876953 L256.699219,543.876953 L256.699219,541.894531 C256.699219,540.595697 256.46566,539.422206 255.998535,538.374023 C255.53141,537.325841 254.893396,536.437178 254.084473,535.708008 C253.275549,534.978838 252.341314,534.426271 251.281738,534.050293 C250.222163,533.674315 249.111334,533.486328 247.949219,533.486328 Z M430.195312,422.802734 C433.580746,422.802734 436.542956,423.502597 439.082031,424.902344 C441.621106,426.30209 443.720695,428.19823 445.380859,430.59082 C447.041024,432.98341 448.269853,435.815413 449.067383,439.086914 C449.864913,442.358415 450.263672,445.833315 450.263672,449.511719 C450.263672,453.255227 449.864913,456.738265 449.067383,459.960938 C448.269853,463.18361 447.041024,465.999337 445.380859,468.408203 C443.720695,470.817069 441.621106,472.721347 439.082031,474.121094 C436.542956,475.52084 433.580746,476.220703 430.195312,476.220703 C426.809879,476.220703 423.880221,475.504564 421.40625,474.072266 C418.932279,472.639967 416.897794,470.65431 415.302734,468.115234 L415.302734,491.992188 L402.802734,491.992188 L402.802734,424.023438 L415.302734,424.023438 L415.302734,430.908203 C416.897794,428.369128 418.924141,426.383471 421.381836,424.951172 C423.839531,423.518873 426.777327,422.802734 430.195312,422.802734 Z M484.443359,422.802734 C488.251972,422.802734 491.637355,423.437494 494.599609,424.707031 C497.561864,425.976569 500.060211,427.791329 502.094727,430.151367 C504.129242,432.511405 505.67545,435.327132 506.733398,438.598633 C507.791346,441.870134 508.320312,445.507792 508.320312,449.511719 C508.320312,453.515645 507.791346,457.145166 506.733398,460.400391 C505.67545,463.655615 504.129242,466.471342 502.094727,468.847656 C500.060211,471.22397 497.561864,473.046869 494.599609,474.316406 C491.637355,475.585944 488.251972,476.220703 484.443359,476.220703 C480.634747,476.220703 477.249364,475.585944 474.287109,474.316406 C471.324855,473.046869 468.826508,471.22397 466.791992,468.847656 C464.757477,466.471342 463.20313,463.655615 462.128906,460.400391 C461.054682,457.145166 460.517578,453.515645 460.517578,449.511719 C460.517578,445.507792 461.054682,441.870134 462.128906,438.598633 C463.20313,435.327132 464.757477,432.511405 466.791992,430.151367 C468.826508,427.791329 471.324855,425.976569 474.287109,424.707031 C477.249364,423.437494 480.634747,422.802734 484.443359,422.802734 Z M366.132812,422.802734 C369.941425,422.802734 373.326808,423.437494 376.289062,424.707031 C379.251317,425.976569 381.749664,427.791329 383.78418,430.151367 C385.818695,432.511405 387.364904,435.327132 388.422852,438.598633 C389.4808,441.870134 390.009766,445.507792 390.009766,449.511719 C390.009766,453.515645 389.4808,457.145166 388.422852,460.400391 C387.364904,463.655615 385.818695,466.471342 383.78418,468.847656 C381.749664,471.22397 379.251317,473.046869 376.289062,474.316406 C373.326808,475.585944 369.941425,476.220703 366.132812,476.220703 C362.3242,476.220703 358.938817,475.585944 355.976562,474.316406 C353.014308,473.046869 350.515961,471.22397 348.481445,468.847656 C346.44693,466.471342 344.892583,463.655615 343.818359,460.400391 C342.744135,457.145166 342.207031,453.515645 342.207031,449.511719 C342.207031,445.507792 342.744135,441.870134 343.818359,438.598633 C344.892583,435.327132 346.44693,432.511405 348.481445,430.151367 C350.515961,427.791329 353.014308,425.976569 355.976562,424.707031 C358.938817,423.437494 362.3242,422.802734 366.132812,422.802734 Z M272.138672,422.802734 C274.807956,422.802734 277.363269,423.152666 279.804688,423.852539 C282.246106,424.552412 284.451488,425.651034 286.420898,427.148438 C288.390309,428.645841 289.985345,430.558257 291.206055,432.885742 C292.426764,435.213228 293.183592,437.988265 293.476562,441.210938 L280.976562,441.210938 C280.65104,437.955713 279.650073,435.693366 277.973633,434.423828 C276.297192,433.154291 274.189466,432.519531 271.650391,432.519531 C269.111315,432.519531 266.914072,433.333325 265.058594,434.960938 C263.203116,436.58855 262.275391,439.095035 262.275391,442.480469 L262.275391,456.494141 C262.275391,459.619156 263.154288,462.068676 264.912109,463.842773 C266.669931,465.616871 268.948554,466.503906 271.748047,466.503906 C274.54754,466.503906 276.752922,465.836595 278.364258,464.501953 C279.975594,463.167311 280.976561,460.807309 281.367188,457.421875 L293.867188,457.421875 C293.541665,460.611995 292.776699,463.370757 291.572266,465.698242 C290.367833,468.025728 288.79721,469.970695 286.860352,471.533203 C284.923493,473.095711 282.726249,474.267574 280.268555,475.048828 C277.81086,475.830082 275.182306,476.220703 272.382812,476.220703 C268.5742,476.220703 265.237645,475.569668 262.373047,474.267578 C259.508449,472.965488 257.091481,471.158866 255.12207,468.847656 C253.152659,466.536447 251.679692,463.769547 250.703125,460.546875 C249.726558,457.324203 249.238281,453.743509 249.238281,449.804688 C249.238281,445.605448 249.775385,441.837582 250.849609,438.500977 C251.923833,435.164371 253.461904,432.332368 255.463867,430.004883 C257.46583,427.677397 259.866522,425.895188 262.666016,424.658203 C265.465509,423.421218 268.623029,422.802734 272.138672,422.802734 Z M594.550781,422.802734 C600.345081,422.802734 605.097638,424.20246 608.808594,427.001953 C612.51955,429.801446 614.505207,434.033175 614.765625,439.697266 L602.265625,439.697266 C602.135416,437.288399 601.37045,435.489915 599.970703,434.301758 C598.570957,433.113601 596.764334,432.519531 594.550781,432.519531 C592.402333,432.519531 590.652676,432.983394 589.301758,433.911133 C587.95084,434.838872 587.275391,436.132804 587.275391,437.792969 C587.275391,439.453133 587.788081,440.681962 588.813477,441.479492 C589.838872,442.277022 591.181632,442.854816 592.841797,443.212891 L602.949219,445.410156 C604.804697,445.800783 606.57063,446.378577 608.24707,447.143555 C609.923511,447.908532 611.363926,448.893223 612.568359,450.097656 C613.772792,451.302089 614.724931,452.734367 615.424805,454.394531 C616.124678,456.054696 616.474609,458.024077 616.474609,460.302734 C616.474609,462.516287 616.002609,464.583324 615.058594,466.503906 C614.114579,468.424489 612.747405,470.100904 610.957031,471.533203 C609.166658,472.965502 606.953138,474.104813 604.316406,474.951172 C601.679674,475.79753 598.668637,476.220703 595.283203,476.220703 C588.479784,476.220703 583.222675,474.715184 579.511719,471.704102 C575.800763,468.693019 573.815105,464.388049 573.554688,458.789062 L586.054688,458.789062 C586.575523,463.932317 589.651665,466.503906 595.283203,466.503906 C597.692069,466.503906 599.74283,466.05632 601.435547,465.161133 C603.128264,464.265946 603.974609,462.841807 603.974609,460.888672 C603.974609,459.033194 603.274747,457.690434 601.875,456.860352 C600.475253,456.030269 598.636079,455.371096 596.357422,454.882812 L587.568359,452.978516 C579.039671,451.123038 574.775391,446.25655 574.775391,438.378906 C574.775391,436.165354 575.222977,434.114593 576.118164,432.226562 C577.013351,430.338532 578.307283,428.694668 580,427.294922 C581.692717,425.895175 583.759753,424.796553 586.201172,423.999023 C588.64259,423.201493 591.425766,422.802734 594.550781,422.802734 Z M533.613281,406.982422 L533.613281,475 L521.113281,475 L521.113281,406.982422 L533.613281,406.982422 Z M334.638672,424.023438 L334.638672,433.789062 L318.671875,433.789062 L318.671875,475 L306.171875,475 L306.171875,424.023438 L334.638672,424.023438 Z M561.494141,424.023438 L561.494141,475 L548.994141,475 L548.994141,424.023438 L561.494141,424.023438 Z M219.013672,406.982422 L242.109375,475 L228.095703,475 L223.603516,460.498047 L200.410156,460.498047 L196.015625,475 L182.001953,475 L205.195312,406.982422 L219.013672,406.982422 Z M426.777344,432.519531 C422.773417,432.519531 419.860035,433.715808 418.037109,436.108398 C416.214184,438.500989 415.302734,441.699199 415.302734,445.703125 L415.302734,453.320312 C415.302734,457.324239 416.214184,460.522449 418.037109,462.915039 C419.860035,465.307629 422.773417,466.503906 426.777344,466.503906 C430.032568,466.503906 432.596019,465.616871 434.467773,463.842773 C436.339528,462.068676 437.275391,459.68426 437.275391,456.689453 L437.275391,442.285156 C437.275391,439.29035 436.347666,436.914071 434.492188,435.15625 C432.636709,433.398429 430.065121,432.519531 426.777344,432.519531 Z M484.443359,432.519531 C481.318344,432.519531 478.722341,433.349601 476.655273,435.009766 C474.588206,436.66993 473.554688,439.029933 473.554688,442.089844 L473.554688,456.884766 C473.554688,459.944677 474.588206,462.312817 476.655273,463.989258 C478.722341,465.665698 481.318344,466.503906 484.443359,466.503906 C487.568375,466.503906 490.164378,465.690112 492.231445,464.0625 C494.298513,462.434888 495.332031,460.042333 495.332031,456.884766 L495.332031,442.089844 C495.332031,438.964828 494.298513,436.58855 492.231445,434.960938 C490.164378,433.333325 487.568375,432.519531 484.443359,432.519531 Z M366.132812,432.519531 C363.007797,432.519531 360.411794,433.349601 358.344727,435.009766 C356.277659,436.66993 355.244141,439.029933 355.244141,442.089844 L355.244141,456.884766 C355.244141,459.944677 356.277659,462.312817 358.344727,463.989258 C360.411794,465.665698 363.007797,466.503906 366.132812,466.503906 C369.257828,466.503906 371.853831,465.690112 373.920898,464.0625 C375.987966,462.434888 377.021484,460.042333 377.021484,456.884766 L377.021484,442.089844 C377.021484,438.964828 375.987966,436.58855 373.920898,434.960938 C371.853831,433.333325 369.257828,432.519531 366.132812,432.519531 Z M212.421875,422.705078 L211.982422,422.705078 L203.779297,449.511719 L220.283203,449.511719 L212.421875,422.705078 Z M561.689453,406.982422 L561.689453,418.115234 L548.798828,418.115234 L548.798828,406.982422 L561.689453,406.982422 Z"/>
  </g>
</svg>
