<svg xmlns="http://www.w3.org/2000/svg" width="1310" height="800" viewBox="0 0 1310 800">
  <g fill="none" fill-rule="evenodd">
    <rect width="1310" height="800" fill="#000"/>
    <rect width="775" height="800" x="535" fill="#4038FF"/>
    <g fill-rule="nonzero" transform="translate(133 273)">
      <path fill="#000" d="M145.660225,172.96914 C145.923039,174.269037 147.009134,179.647725 147.311388,181.319316 C147.953227,184.868955 148.327138,187.841519 148.442544,190.867907 C148.450777,191.09252 148.450777,191.09252 148.452276,191.161634 C148.857886,201.280943 146.763561,222.040399 142.169302,253.44 L135.537326,250.105263 L125.419981,243.435789 L124.398139,252.404502 C105.690703,254.064354 81.6167265,247.69477 64.1404933,227.330409 C57.1479629,219.195807 53.8426308,210.352482 52.0926605,198.8108 C51.7997536,196.878973 51.6209823,195.480732 51.2634886,192.419102 C38.7250087,193.007431 27.5436485,183.945366 27.537327,183.936464 L18.3185066,170.954294 L25.0770126,164.507472 L0.100187869,169.262521 L0.00754651754,151.90637 C-0.27641,98.7077482 7.40220938,63.9020925 31.6675512,32.7222974 C58.3384739,-1.53521414 101.342467,-9.57686086 139.723177,11.8337953 C168.861321,28.0741753 189.017068,59.5768331 190.274772,91.7761665 L191.04,111.367306 L171.980746,106.260346 C172.995301,106.532197 159.641574,102.776342 156.786998,102.160424 C156.352094,102.066587 155.92963,101.980548 155.48857,101.896402 C153.669352,101.545758 152.381873,101.253371 149.221445,100.502476 C148.274056,100.277384 147.767268,100.15797 147.214644,100.030563 C142.682628,98.9857056 140.346032,98.7407539 139.141055,98.9883389 C137.918349,99.2415158 136.717672,99.4458845 135.537326,99.6019699 C150.63623,119.135657 154.632877,149.882571 145.660225,172.96914 Z"/>
      <path fill="#FFF" d="M175.68,92.6549826 C168.972472,90.8616201 167.048974,90.6940166 159.751341,89.2905156 C154.886252,88.3548482 142.748318,87.7771767 123.337541,87.5575011 C120.502,82.0409346 116.645128,77.0539436 111.766927,72.5965282 C108.229876,69.5806693 103.873739,67.2711521 99.5882822,65.4419622 C80.3705261,56.3776844 59.2207907,61.0767327 49.0513128,79.7510942 C40.7701713,94.9556892 36.4410144,119.035808 34.4346571,136.111738 C33.9429029,140.166296 34.0019134,144.298827 33.7462012,149.659422 L15.3681156,151.68 C15.1517437,111.231878 19.125118,73.9416349 43.8308514,42.2653954 C66.0974837,13.7275403 101.051376,7.60671608 132.77936,25.2674379 C157.20971,38.854108 174.617811,65.5206285 175.68,92.6549826 Z"/>
      <path fill="#C4C3C6" d="M159.070007,89.8349024 C154.227876,88.8930019 142.147216,88.3114822 122.828031,88.0903432 C120.00587,82.5370276 116.167199,77.5168154 111.312015,73.0297065 C107.791654,69.9937572 103.456073,67.6688549 99.1908374,65.8274796 C80.0637636,56.7028193 59.0138266,61.4331708 48.892335,80.2319333 C43.1988421,90.8050022 39.3822727,105.641538 36.9081305,119.472225 C34.4912532,130.161103 32.9027533,141.24832 31.9181919,150.356136 C31.9015127,150.505611 31.8855176,150.65519 31.8701672,150.804932 L15.3680772,152.64 C15.318155,143.200925 15.492326,133.932683 16.0957031,124.866077 C18.9298131,99.9226454 25.6842661,76.6995903 40.6206142,55.8846281 C61.2431804,27.1566655 93.6162371,20.9950668 123.001572,38.7734372 C141.016947,49.6632887 154.909303,68.9002691 160.32,90.0760567 C159.921084,89.9997244 159.505144,89.919546 159.070007,89.8349024 Z"/>
      <path fill="#C4C3C6" d="M61.7919632,143.919056 L70.7164779,166.852683 L70.7164779,142.747317 L75.8919214,148.565854 L75.8919214,137.463586 C92.2277441,129.111142 106.986317,118.23657 119.684722,103.68 C132.121292,115.249989 139.049894,136.486637 136.888221,154.661463 C136.140684,160.94657 132.72638,166.783657 130.234079,171.84 C131.653498,180.034265 133.383723,179.640413 133.56115,185.693658 C132.452126,187.588521 129.125055,192.343415 125.709263,197.884878 C120.820155,187.588521 118.10759,187.588502 121.360425,175.696113 C121.794135,174.080616 117.949878,170.518738 115.446181,169.039488 C105.825679,163.453373 96.1460342,165.244044 84.8498297,169.584474 C90.6457881,175.851823 97.6443091,177.136434 103.657123,179.861368 C109.098227,182.333273 113.809908,185.408556 113.908477,191.753759 C114.184476,207.791941 114.007048,223.869053 114.007048,239.887771 C100.325433,241.094528 88.7532302,232.510986 75.3278983,216.959398 C64.0514079,203.918643 67.4422406,187.530111 63.0459866,174.528283 C52.4003489,170.869087 52.4003489,179.861368 43.8444105,178.94856 C35.288472,178.035752 33.9608477,174.342076 32.64,172.493014 C41.9845042,167.237784 47.4718129,161.837877 43.8444105,150.354227 C49.9800064,148.43141 55.9687901,146.301403 61.7919632,143.919056 L61.7919632,143.919056 Z"/>
      <path fill="#FFF" d="M110.4 112.981466C113.487683 110.058117 116.47611 106.961999 119.359784 103.68 121.398274 105.562884 123.290855 107.70001 125.02219 110.037275 129.136499 121.900703 133.393234 138.091536 132.30856 148.877884 130.415142 167.706652 129.233963 170.980108 129.090459 171.695529 128.754108 173.372355 130.127759 175.560492 131.306776 177.561606 131.705042 178.805699 132.087358 179.726499 132.415931 180.626725 131.798321 184.036106 126.806892 193.138868 126.320761 192.957324 125.939892 192.815088 123.82965 188.658016 122.485164 184.421718 121.800853 182.265543 122.366433 177.534469 122.485164 177.183016 123.02981 175.570836 124.452731 172.994724 124.965352 171.695529 125.213269 171.067204 128.242902 151.467704 123.374799 137.159914 120.718018 129.351395 114.184912 118.995088 110.4 112.981466L110.4 112.981466zM62.4 174.164965C51.644421 170.579783 51.644421 179.390178 43.0001223 178.495834 34.3558237 177.601488 33.0144885 173.982524 31.68 172.170863 32.4651265 171.742671 33.2233019 171.3135 33.9514713 170.88 34.9604546 172.527967 36.2747562 172.941996 39.0869995 173.669725 46.0777262 175.478729 60.8123996 166.644619 62.4 174.164965L62.4 174.164965zM113.237621 200.64C113.340334 213.734565 113.224049 226.842712 113.224049 239.912225 105.047696 240.640255 98.7159974 236.765881 91.2 231.022823 103.33416 232.721988 102.245403 234.277089 105.770525 229.605378 110.094311 223.87523 109.678443 206.914266 113.237621 200.64zM114.24 100.861114C99.0973814 114.312096 66.2296093 132.390016 45.3231385 137.28 44.2008527 130.274844 47.7501924 116.028866 55.4402499 106.657753 57.6486132 103.966639 62.9392404 96.5170963 72.002642 92.3012904 77.3561797 89.8111134 86.5763925 89.2757791 90.3571233 89.28 100.538533 89.2914591 109.303892 93.6028978 114.24 100.861114z"/>
      <path fill="#C4C3C6" d="M107.52 105.955716C90.8228513 118.563357 63.5278912 132.980863 45.322697 137.28 44.7011955 133.363341 45.5154824 127.199855 47.6749997 120.876018 48.7161814 119.098719 49.8700292 117.400294 51.1342487 115.833981 53.3733529 113.059827 58.7376269 105.380412 67.9271929 101.034518 73.355253 98.4675024 82.7038131 97.9156493 86.5371725 97.9200002 94.9118086 97.9295875 102.341532 100.856414 107.52 105.955719L107.52 105.955716zM128.07877 206.379131L136.268232 193.106087C138.222744 190.156522 139.2 193.106087 139.2 201.954782 139.2 210.803479 138.591974 224.445217 137.375924 242.88L124.8 228.500869 128.07877 206.379131z"/>
      <path fill="#FFF" d="M139.2,201.823007 C139.2,210.700194 138.591974,224.385859 137.375924,242.88 L124.8,228.45457 L125.844206,227.788781 L135.16054,238.885265 C136.37659,220.391124 136.984616,206.70546 136.984616,197.828272 C136.984616,195.20044 137.0924,193.935496 136.921129,192.28003 C138.569322,191.074556 139.2,193.671079 139.2,201.823007 Z"/>
    </g>
    <g fill-rule="nonzero" transform="translate(745 133)">
      <path fill="#4038FF" d="M322.510364,462.709089 C322.510364,462.709089 310.764161,462.275087 304.891059,466.88033 C304.891059,466.88033 291.114647,458.127958 264.407744,464.469208 L254.35338,424.10703 C254.35338,424.10703 244.685723,380.972061 258.075428,361.417864 C267.114688,348.132583 285.531575,330.700173 307.307973,305.624506 C316.97563,294.388679 329.446908,285.588085 340.250516,276.3776 C354.292788,264.321991 356.661364,243.176453 356.081304,225.50293 C355.259554,200.885377 340.250516,178.003832 340.250516,178.003832 C340.250516,178.003832 195.93656,161.294758 173.870132,174.555928 C173.870132,174.555928 92.8793326,229.384837 16.5290086,326.456598 C18.3473734,327.041339 20.0850101,327.851372 21.7012053,328.86772 C21.7012053,328.86772 0.529035694,356.9814 0.674050555,377.765269 C-0.0273902659,381.616439 0.263692332,385.582266 1.51997057,389.290431 C2.46848518,394.008162 3.09029667,398.785441 3.38099462,403.588383 C3.29366473,407.900446 3.4308078,412.214121 3.79187006,416.511996 C3.79187006,416.511996 1.01241856,429.556165 0.311513404,431.653841 C-0.389391755,433.751517 0.311513404,447.543133 0.311513404,447.543133 C0.311513404,447.543133 64.5772657,417.331778 73.6648636,412.075532 C73.6648636,412.075532 111.85211,415.20999 125.846044,412.774757 C125.846044,412.774757 138.559014,429.001607 139.960824,432.063731 L146.075617,465.288989 C146.075617,465.288989 133.58017,467.434888 129.157217,472.04013 C127.272024,472.04013 106.48656,469.098562 99.3324939,477.17582 C99.3324939,477.17582 95.7312916,491.883662 97.495639,494.318895 C99.2599865,496.754128 107.163296,496.103125 109.580211,493.643781 C109.580211,493.643781 122.389857,507.700621 135.368687,506.30217 C148.347517,504.90372 166.208514,496.344238 180.226617,499.502807 C194.24472,502.661377 215.41689,508.833848 228.39572,505.193054 C237.704566,502.28325 246.686858,498.420992 255.1993,493.667892 L258.993855,496.778239 C258.993855,496.778239 260.419835,495.379789 260.081467,494.367118 C260.081467,494.367118 299.839708,498.345469 310.836668,503.842826 C326.063228,511.534305 343.174982,492.245331 343.174982,492.245331 C343.174982,492.245331 344.721807,492.679332 348.008811,493.282113 C347.839627,493.306224 354.727832,461.648195 322.510364,462.709089 Z M220.033196,462.998424 C213.265836,463.167202 211.259797,465.409545 211.259797,465.409545 L192.818741,463.239536 C191.296085,460.418523 184.069511,427.072709 184.069511,427.072709 C183.827819,422.250466 188.903339,409.109852 188.903339,409.109852 C191.75501,409.011546 194.571482,408.449603 197.241694,407.446178 C200.649543,411.64153 217.422929,431.557396 217.422929,431.557396 C220.516579,439.586431 220.105703,462.998424 220.105703,462.998424 L220.033196,462.998424 Z"/>
      <path fill="#D2DAFF" d="M229.864788 464.269418C229.864788 464.269418 243.211275 465.527151 249.586073 471.84L251.52 471.186947 243.044145 431.52C243.044145 431.52 233.302881 434.083839 228.48 438.268218L229.864788 464.269418zM260.16 476.935197C260.16 476.935197 277.494535 466.115409 302.710602 473.402205L304.741427 480.762606C304.741427 480.762606 339.603909 479.413199 336.799437 486.626391 333.994966 493.839583 319.875902 496.268515 312.864723 494.133999 305.853545 491.999483 286.584891 482.946191 264.511766 485.816747 263.272202 482.754492 261.817885 479.786366 260.16 476.935197L260.16 476.935197zM157.459073 439.006145L156.275285 474.939639C148.943395 474.60511 141.619974 475.763552 134.749669 478.344627 134.749669 478.344627 136.585748 484.647478 133.445086 485.44439 130.304424 486.241302 118.08 488.124913 118.08 488.124913L118.949722 489.23576C118.949722 489.23576 133.614199 497.325626 141.755762 493.437661 148.351152 490.274161 156.879258 486.193005 175.578278 486.482791 194.277298 486.772577 204.013351 496.697756 215.827073 495.780099 227.640794 494.862443 242.619338 491.215966 245.76 487.279703 245.76 487.279703 242.353589 482.015253 228.969536 481.24249 215.585483 480.469726 212.952159 480.445577 211.116079 472.573051 211.116079 472.573051 194.204821 472.041776 184.855311 474.987936 184.855311 474.987936 175.191735 431.52 174.225377 431.52 173.25902 431.52 160.599735 434.007332 157.459073 439.006145zM83.52 399.1457C88.7943834 397.318795 148.167489 352.8 148.167489 352.8 144.731881 357.775913 107.545058 386.453516 107.545058 386.453516 107.545058 386.453516 109.35964 387.006396 114.803384 384.650649 120.247129 382.294903 154.941926 360.997035 155.740342 360.203774L142.626967 374.458442 160.095337 362.872017C164.179785 363.802758 168.366612 364.214698 172.555463 364.097966 168.875856 367.78636 165.494314 371.75693 162.442196 375.97285 169.700522 370.492134 179.087957 363.424896 179.087957 363.424896L186.007561 363.424896C184.097114 367.206191 181.77683 370.768935 179.087957 374.049792L193.217498 369.410414 189.443168 374.674786C195.709523 370.035408 209.064842 365.588336 209.064842 365.588336 206.427651 367.174859 191.427111 381.910292 191.427111 381.910292 195.128857 377.992061 227.912295 358.593212 227.912295 358.593212L230.936597 358.112448C229.097822 360.203774 221.500774 370.804631 221.500774 370.804631L234.444788 358.256677C237.761167 356.841727 241.238429 355.83273 244.8 355.251899 244.8 355.251899 239.646588 372.078657 237.541674 384.09777 235.267399 396.57361 241.46117 416.669566 241.46117 416.669566 237.309345 419.082064 232.803032 420.834018 228.10585 421.861823 222.807273 413.809018 206.137318 397.222642 206.137318 397.222642L212.645616 382.799706C205.029189 390.0047 195.800037 395.310365 185.717228 398.280324 184.289757 398.280324 182.910675 386.261211 182.910675 386.261211 178.071791 391.068856 171.345742 420.227224 171.345742 420.227224 170.305382 422.631047 162.829307 424.07334 159.684032 423.80892 156.538758 423.544499 153.732205 418.857045 153.732205 418.857045L160.627615 416.044573 150.393375 413.953247C147.248101 412.655183 138.054221 400.22742 138.054221 400.22742 138.562304 398.713012 163.482556 384.001617 163.482556 384.001617L135.41703 396.910145 83.52 399.1457z"/>
      <path fill="#FFF" d="M310.088379 472.500919L312.068216 475.7903C321.984392 474.231671 332.115526 476.223815 340.8 481.44 338.094222 474.57174 331.663686 470.08684 324.526704 470.09038 309.243326 469.136209 310.088379 472.500919 310.088379 472.500919zM192.428113 268.464027C166.159826 291.868424 93.12 335.268576 93.12 335.268576 93.12 335.268576 114.298655 346.046601 151.349241 327.611138 188.399826 309.175675 222.9659 274.057078 226.56 269.112149L208.010586 280.634313 220.240174 268.32C220.240174 268.32 215.054056 269.040135 212.014751 269.112149L179.981432 288.315756C188.544555 283.826913 206.346204 269.112149 206.346204 269.112149L192.428113 268.464027z"/>
      <path fill="#4038FF" d="M146.918254,312.993056 C146.918254,312.993056 183.707932,293.15604 190.08,288.48 C190.08,288.48 170.843567,307.521607 154.348326,314.342841 C145.567172,318.265901 136.258092,320.872859 126.72,322.08 L146.918254,312.993056 Z"/>
      <path fill="#D2DAFF" d="M9.6,429.6 C9.6,429.6 13.748743,419.480668 15.8713556,413.135053 C16.4020088,411.572686 60.9527545,364.29305 82.974861,353.044006 L86.1105389,353.044006 C63.388935,372.441396 66.3557686,370.518483 60.5185837,376.046859 C60.5185837,376.046859 99.4974711,348.092504 104.755762,346.265736 C104.755762,346.265736 93.2019949,359.053111 90.2834024,361.67308 C90.2834024,361.67308 118.625106,348.669378 122.556763,346.578209 C120.573559,349.344864 118.37157,351.949092 115.97184,354.366009 C115.97184,354.366009 154.974848,335.857967 158.4,334.56 C158.448214,334.608073 29.7648205,428.350106 9.6,429.6 Z"/>
      <path fill="#4038FF" d="M47.0975076,390.899766 C52.9067419,387.206185 58.4849706,383.148536 63.7999426,378.750275 C67.2597327,375.226922 71.5785051,376.320377 63.7999426,383.318483 C56.02138,390.31659 53.7068997,392.454901 47.0975076,393.038076 C40.4881155,393.621252 47.0975076,390.899766 47.0975076,390.899766 Z"/>
      <path fill="#FFF" d="M220.815792 472.06772C220.815792 472.06772 220.506845 474.976582 222.621945 475.41873 225.877774 476.093586 237.213761 474.092288 251.377804 482.4 251.377804 482.4 252.803714 480.375432 246.624769 475.209291 240.445824 470.043151 225.473766 470.206048 220.815792 472.06772zM103.68 489.12C103.68 489.12 105.003825 481.461407 107.112139 480.28709 109.220453 479.112772 123.880589 478.193741 126.332117 478.704314 126.332117 478.704314 128.293339 480.874248 127.484335 481.665636 126.675331 482.457024 112.995806 483.784514 110.715885 485.979977 108.87595 487.976018 106.336954 489.10914 103.68 489.12L103.68 489.12z"/>
      <path fill="#4038FF" d="M156.517053,475.90728 C160.398099,476.002528 164.253607,476.570874 168,477.6 C168,477.6 158.992842,470.447661 154.56,470.900643 L156.517053,475.90728 Z"/>
      <path fill="#D2DAFF" d="M76.8 345.38053C76.8 345.38053 72.4725802 344.221188 72.6659844 340.549936L60.7474482 348.133968 74.3099204 336.057484 71.8923674 334.753224C69.7890963 336.057484 48.7805609 352.070902 48.7805609 352.070902L66.5495753 334.56C64.9406532 334.693747 63.3233915 334.693747 61.7144694 334.56 57.2419963 337.434203 20.3743132 372.166172 14.5963616 382.407031 8.81840994 392.64789 12.9524256 406.56 12.9524256 406.56 12.9524256 406.56 46.3146568 369.750876 76.8 345.38053zM56.64 332.64C56.64 332.64 25.3376077 357.004138 13.4908561 376.8 13.4908561 376.8 10.0235142 373.73069 12.286918 365.807586 14.5503217 357.884483 35.2339794 336.327931 39.2310541 333.591724L34.1263563 343.846552 46.3583681 332.806552C49.7702677 333.328599 53.2472507 333.272276 56.64 332.64L56.64 332.64z"/>
      <path fill="#4038FF" d="M155.147033,77.986107 C155.147033,77.986107 144.03612,60.1630743 143.28571,54.4548868 C153.367419,50.3677547 164.217184,48.4946043 175.093422,48.9634659 C175.093422,48.9634659 172.987432,29.1172782 177.852995,23.9630498 C177.852995,23.9630498 200.171648,32.1038404 206.901133,36.8727059 C206.901133,36.8727059 205.763415,14.4012336 214.163168,10.8125419 C214.163168,10.8125419 233.528594,21.3377653 234.642106,29.3099596 C234.642106,29.3099596 238.127882,11.4387566 247.060185,8.47627953 C251.702402,13.6833043 256.050189,19.1430016 260.083434,24.8301163 C260.083434,24.8301163 268.652635,3.1534549 275.914669,0.48 C275.914669,0.48 289.760949,14.6661706 291.019701,21.2173394 C291.019701,21.2173394 291.649078,13.6545931 305.543771,8.47627953 C305.543771,8.47627953 320.06784,22.5901946 319.414257,30.8514111 C319.414257,30.8514111 326.676291,14.9070224 336.068523,13.0524636 C336.068523,13.0524636 348.341361,16.5688998 348.607636,32.320607 C348.607636,32.320607 359.355447,23.5536018 366.811136,20.7115506 C366.811136,20.7115506 378.575632,33.5971215 376.78433,40.9912716 C376.78433,40.9912716 388.74248,35.5961914 396.34341,37.2580688 C396.34341,37.2580688 402.564553,46.8921405 397.142234,61.9935479 C397.142234,61.9935479 417.742205,60.0908187 421.808945,64.5224917 C421.808945,64.5224917 415.90249,83.7906352 412.852435,84.9467238 C412.852435,84.9467238 428.949945,91.1125297 432,95.6646286 C432,95.6646286 418.662063,110.452929 415.612009,111.970295 L429.070979,129.552476 C429.070979,129.552476 421.131155,140.511232 414.280636,140.511232 C414.280636,140.511232 418.226341,155.444044 417.814826,165.294882 C417.814826,165.294882 402.225658,166.523226 397.0212,162.332405 C397.0212,162.332405 399.296637,174.230483 398.158919,181.070674 C398.158919,181.070674 381.456239,179.577393 378.793493,175.025294 C378.793493,175.025294 374.073171,192.727901 369.498089,196.509274 C369.498089,196.509274 356.499047,188.079462 355.361328,183.527363 C355.361328,183.527363 353.303752,194.245267 347.566744,197.28 C347.566744,197.28 331.783922,185.526433 332.534333,181.745059 C332.534333,181.745059 329.096969,195.762634 322.633759,196.509274 C322.633759,196.509274 312.708978,187.043799 312.708978,182.058167 C312.708978,182.058167 309.68313,191.162364 304.72074,191.547727 C304.72074,191.547727 296.345193,183.960896 294.432858,179.505138 C294.432858,179.505138 284.895385,195.040078 280.707612,196.557445 C280.707612,196.557445 264.706929,179.119775 262.794593,174.567676 C262.794593,174.567676 259.744539,185.743199 255.532559,188.512995 C252.686647,186.589393 250.339074,184.022511 248.68204,181.022504 C248.68204,181.022504 242.58193,193.908075 238.781465,194.678801 C238.781465,194.678801 231.156329,192.270283 228.856685,188.512995 C225.675593,192.155868 221.608264,194.92567 217.043775,196.557445 C213.592026,193.494767 210.636253,189.920162 208.28092,185.959966 C208.28092,185.959966 199.130756,194.678801 192.667546,194.678801 C192.667546,194.678801 185.792819,184.057237 186.954745,178.758497 C186.954745,178.758497 172.188608,187.501417 162.747963,187.116054 C162.747963,187.116054 158.487569,175.362487 160.012597,170.425025 C160.012597,170.425025 148.393341,169.582044 144.980185,167.7034 C144.980185,167.7034 140.308276,153.107781 147.715551,144.485287 C147.715551,144.485287 128.083851,131.888738 125.76,126.589999 C132.797042,120.045124 140.570551,114.331161 148.92589,109.561777 L127.139787,90.7271668 C135.364337,84.3900218 144.949428,80.0295714 155.147033,77.986107 L155.147033,77.986107 Z"/>
      <path fill="#D2DAFF" d="M260.16,157.078124 C260.16,157.078124 275.917174,189.378758 280.11587,192.48 C280.11587,192.48 293.387609,164.807375 295.68,155.002677 C295.68,155.002677 284.483478,139.973579 279.681522,132.96 C279.681522,132.96 267.447391,151.472032 260.16,157.078124 Z"/>
      <path fill="#FFF" d="M336.889305,154.08 C336.889305,154.08 376.721264,150.852259 386.407507,113.275579 C396.093751,75.6988977 354.111977,55.1039861 336.889305,55.2 C319.666632,55.296687 284.134302,73.5791875 286.163341,106.314258 C288.192379,139.049328 315.367003,152.923794 336.889305,154.08 Z"/>
      <path fill="#D2DAFF" d="M336.850307,148.32 C336.850307,148.32 372.199861,145.473147 380.806286,112.275946 C389.412711,79.0787455 352.142514,60.8878375 336.850307,60.96 C321.5581,61.0325928 290.02552,77.2210533 291.921851,106.123849 C293.818182,135.026644 317.741126,147.354965 336.850307,148.32 Z"/>
      <path fill="#FFF" d="M337.341182,142.56 C337.341182,142.56 367.823546,140.173014 375.226405,111.6724 C382.629265,83.1717858 350.501822,67.6086364 337.341182,67.68 C324.180543,67.7518556 296.964148,81.6202448 298.63342,106.397161 C300.302692,131.174076 320.841999,141.748425 337.341182,142.56 Z"/>
      <path fill="#4038FF" d="M333.789886,135.84 C333.789886,135.84 351.239093,133.848579 355.014511,129.525738 C355.014511,129.525738 374.762852,112.525801 368.301079,98.9015661 C368.301079,98.9015661 358.063887,79.4730669 348.57694,77.2145039 C339.089992,74.9559409 318.61561,76.0730796 313.678524,91.3001658 C308.741439,106.527252 304.239979,125.567181 333.789886,135.84 Z"/>
      <path fill="#FFF" d="M360.673011 122.818095C360.673011 122.818095 344.966704 129.662473 333.319873 124.307047 326.129105 120.768331 320.620483 114.569257 317.976019 107.04 317.976019 107.04 315.414683 121.064973 327.931402 126.252292 340.44812 131.43961 354.511306 131.271503 358.594946 126.252292 362.09866 121.953541 360.673011 122.818095 360.673011 122.818095zM221.131111 156C221.131111 156 261.396898 152.747507 271.191278 114.801759 280.985659 76.8560106 238.543343 56.0400572 221.131111 56.16 203.718879 56.2809826 167.927069 74.7117747 170.006864 107.766738 172.086658 140.821701 199.365821 154.915836 221.131111 156z"/>
      <path fill="#D2DAFF" d="M221.166792,150.24 C221.166792,150.24 256.903728,147.364472 265.594522,113.800537 C274.285316,80.2366015 236.625208,61.8477212 221.166792,61.92 C205.708376,61.9927058 173.817787,78.3518017 175.765304,107.590363 C177.712821,136.828924 201.837686,149.273436 221.166792,150.24 Z"/>
      <path fill="#FFF" d="M220.715471,145.44 C220.715471,145.44 251.540938,143.03249 259.04878,113.733095 C266.556622,84.4336999 234.046703,68.5441348 220.715471,68.64 C207.384239,68.7367356 179.807358,82.9169687 181.515874,108.340273 C183.224389,133.763577 204.039399,144.597372 220.715471,145.44 Z"/>
      <path fill="#4038FF" d="M217.039654,136.8 C217.039654,136.8 234.776599,134.825547 238.626101,130.467304 C238.626101,130.467304 258.67762,113.612218 252.123721,99.839206 C252.123721,99.839206 241.720321,80.4077006 232.072202,78.1683822 C222.424083,75.9290637 201.617282,77.0126049 196.622676,92.2544177 C191.628069,107.49623 186.974557,126.494319 217.039654,136.8 Z"/>
      <path fill="#FFF" d="M244.501131,124.666437 C244.501131,124.666437 228.445236,131.455213 216.550167,126.133002 C209.190281,122.621605 203.554965,116.453159 200.861404,108.96 C200.861404,108.96 198.242531,122.916021 211.018716,128.167269 C223.7949,133.418517 238.333317,133.134666 242.396242,128.167269 C245.969658,123.791229 244.501131,124.666437 244.501131,124.666437 Z"/>
      <path fill="#D2DAFF" d="M281.536593,60 C281.536593,60 267.832125,60.5827937 268.854483,69.7132288 C269.039063,72.7318463 270.569638,75.5091806 273.025637,77.282069 C275.481633,79.0549574 278.604672,79.6368844 281.536593,78.8679469 C281.536593,78.8679469 287.76811,78.4308516 288.839151,69.7132288 C289.228879,67.4492526 288.666843,65.1250834 287.285235,63.2873901 C285.90363,61.449697 283.824397,60.2606768 281.536593,60 Z"/>
      <path fill="#FFF" d="M185.28 260.64C185.28 260.64 89.1703621 320.052381 85.8227776 320.62526 78.3400242 321.472083 70.7713594 321.230799 63.36 319.909161 71.4378671 315.922874 122.549176 270.450562 122.549176 270.450562L127.861647 269.638983C126.867075 271.620191 106.296411 290.883265 106.296411 290.883265 109.668253 287.923387 133.95037 269.638983 133.95037 269.638983L138.996005 268.302264C136.982602 270.689262 123.495233 282.242332 123.495233 282.242332L140.669797 269.973162 144.405507 267.299724C146.507275 266.837134 148.655962 266.612885 150.809582 266.631365L138.680653 276.943196 154.22994 266.941675 185.28 260.64zM189.542529 189.086658C190.985697 190.896106 188.676628 193.405206 188.676628 193.405206 191.851598 190.847854 194.401195 189.159036 194.401195 189.159036 194.737935 191.716388 198.345855 205.251054 200.895453 204.286016 203.44505 203.320977 210.516575 195.069897 210.516575 195.069897L210.203888 203.706993 213.739651 193.453458 215.856297 192.198908C215.856297 192.198908 219.849063 206.119589 222.711347 206.119589 225.573631 206.119589 233.174317 197.747879 233.174317 197.747879L233.79969 206.89162C234.425063 204.334268 237.840561 195.238779 237.840561 195.238779 238.489987 198.423406 246.451466 202.476568 246.451466 202.476568 246.451466 202.476568 247.678159 214.53955 248.616218 211.692687 249.337802 209.497224 253.547043 201.583908 253.547043 201.583908 262.759268 217.193406 246.066621 241.44 246.066621 241.44 235.531492 241.44 238.008931 221.125938 238.008931 221.125938 237.696245 222.718252 223.312667 233.044165 216.577882 233.960951 212.007849 234.588226 213.90802 215.02207 213.90802 215.02207 212.320535 218.54446 190.745169 226.047635 184.058489 225.396234 177.371809 224.744833 187.642357 208.02554 187.642357 208.02554 187.642357 208.02554 142.952245 218.640964 157.456087 203.200347 166.499941 193.284576 187.762621 186.842944 189.542529 189.086658zM95.9316398 266.408345C96.6034098 265.930835 79.7371859 286.10563 79.7371859 286.10563L99.4824238 266.456096 101.329791 270.061296C102.838429 271.514922 104.614136 272.665969 106.56 273.451616 102.289463 278.823603 42.4299623 322.229258 42.4299623 322.229258 44.4452722 323.566286 49.6274974 326.574599 49.6274974 326.574599L48.235974 327.84C43.9755085 327.338302 39.9218872 325.732947 36.48 323.184278 36.48 323.184278 63.2548305 289.042316 95.9316398 266.408345zM169.92 242.822822C166.659327 246.792662 162.848297 250.253964 158.607809 253.09692 158.607809 253.09692 165.511394 241.188869 163.961116 242.500983 161.129235 243.395703 158.215465 243.992958 155.26502 244.283477 155.26502 244.283477 145.963347 254.384277 136.346773 256.41434 136.346773 256.41434 137.146135 255.770662 133.44 260.623007 133.44 260.623007 158.099124 261.340956 169.387092 253.443517 169.120924 249.894543 169.300014 246.325349 169.92 242.822822L169.92 242.822822z"/>
      <path fill="#D2DAFF" d="M219.950621 296.155483L225.175311 289.44C225.175311 289.44 220.269499 289.683315 216.958076 289.44 216.958076 289.44 210.482405 299.805202 216.958076 302.77364 216.958076 302.77364 225.911182 303.746899 230.4 299.805202 228.533267 297.292662 227.183062 294.44039 226.426293 291.410848 226.426293 291.410848 222.182766 296.10682 221.201603 297.323393L219.950621 296.155483zM169.187878 346.850292L174.249495 337.44C174.249495 337.44 168.208981 338.722122 164.221764 339.060796 164.221764 339.060796 158.348378 353.260902 166.824199 355.68 166.824199 355.68 180.576516 354.252732 185.28 348.422706 185.28 348.422706 177.090686 343.584509 176.159539 339.617188 176.159539 339.617188 171.909691 346.31809 170.930794 348.03565L169.187878 346.850292zM200.015705 344.004182C200.015705 344.004182 197.604534 355.341953 205.706069 357.6 205.706069 357.6 216.315222 357.100853 220.8 351.705309 218.304673 348.157129 216.233416 344.336713 214.627402 340.32L200.015705 344.004182z"/>
      <path fill="#FFF" d="M180.48028,237.771322 C180.48028,237.771322 180.311437,254.386267 188.271144,254.860979 C196.23085,255.335692 204.48,246.767128 204.48,246.767128 C202.784516,242.551171 201.461051,238.199392 200.524267,233.76 C200.524267,233.76 182.892312,237.771322 180.48028,237.771322 Z"/>
      <path fill="#D2DAFF" d="M347.23669 166.56C351.399115 175.212118 343.77607 183.84 343.77607 183.84 337.338831 182.579748 332.16 168.765442 332.16 168.765442L347.23669 166.56zM303.213522 161.76L306.169392 163.74151C306.450502 166.708235 305.88817 169.696392 304.555032 172.32 302.008437 171.595057 301.44 167.825355 301.44 167.825355L303.213522 161.76zM354.24 166.044602C354.24 166.044602 360.016632 177.333805 365.989915 178.08 365.989915 178.08 371.127431 167.055575 367.096079 161.76 363.003456 163.692101 358.686551 165.130815 354.24 166.044602z"/>
      <path fill="#FFF" d="M301.438713 478.516593C301.438713 479.72457 288.78394 477.761608 280.89275 480.857048 273.001561 483.952489 274.204486 473.709853 281.879149 473.760185 289.553812 473.810517 301.583064 473.483357 301.438713 478.516593zM211.198861 479.331949C211.3428 480.705388 197.812514 477.842116 190.495603 482.823745 183.178693 487.805374 183.68248 478.866376 191.239289 477.492936 198.796098 476.119496 210.599114 473.442452 211.198861 479.331949z"/>
      <path fill="#D2DAFF" d="M264.986723 237.514633C264.616145 237.514633 268.223102 228.056319 268.173691 226.542057 268.124281 225.027795 272.324162 227.613689 276.326401 228.871691 277.438135 229.221136 272.398277 238.586265 264.986723 237.514633zM247.37493 324.96L228.48 331.061695C228.48 331.061695 230.710141 344.078644 234.557746 348.96 234.557746 348.96 243.135211 348.792502 256.32 335.081635 256.32 335.081635 247.570986 327.352822 247.37493 324.96M202.343338 303.84L188.16 314.021189C188.16 314.021189 189.105556 317.033514 198.561115 314.021189 208.016673 311.008865 203.619838 309.350919 202.343338 303.84zM258.7008 246.24L253.44 254.623499C253.44 254.623499 255.388444 255.839233 259.236622 252.977193 263.084799 250.115152 260.064711 249.152696 258.7008 246.24z"/>
      <path fill="#FFF" d="M233.115706 410.946886C233.115706 410.946886 224.629046 414.873037 222.346085 398.518089 220.063124 382.163141 224.827564 376.839955 230.113116 369.324868 235.398667 361.809782 241.180515 362.700994 236.143111 372.383894 229.629118 384.263506 228.531387 398.246366 233.115706 410.946886zM168.830487 417.116522C168.830487 417.116522 160.741004 417.65006 162.486759 405.499963 164.232513 393.349866 166.543794 388.887555 172.690818 384.910278 178.837842 380.933001 180.067247 381.733306 176.79703 389.396841 172.594357 398.13446 169.901754 407.503405 168.830487 417.116522z"/>
      <path fill="#D2DAFF" d="M160.32 86.898157C157.29984 86.4542811 147.84 94.2960897 147.84 94.2960897 149.56224 97.7977779 157.12512 104.16 157.12512 104.16L160.32 86.898157zM273.101221 48.48C272.931112 43.6202745 271.794416 38.8463148 269.76 34.4473469 269.76 34.4473469 273.077183 25.1167347 277.139531 24.48 280.5569 29.0797379 283.249397 34.1942312 285.12 39.6391837 284.877581 41.9815487 284.797257 44.3383905 284.879624 46.6922449 280.870251 46.3402927 276.835787 46.9526537 273.101221 48.48L273.101221 48.48z"/>
      <path fill="#FFF" d="M280.752984,168.48 C280.752984,168.48 287.151526,153.916463 290.88,146.658414 L280.32,132 L280.752984,168.48 Z"/>
      <path fill="#D2DAFF" d="M313.618776 281.710525C316.063834 280.663883 327.36 269.816866 327.36 269.816866 322.68994 271.077594 318.264386 265.44 318.264386 265.44 316.381691 267.580859 311.124817 282.73338 313.618776 281.710525zM290.50409 299.971405C294.664761 296.994028 298.636616 293.798289 302.4 290.4 299.06237 290.912743 295.65591 290.912743 292.318281 290.4 291.048347 291.596426 288.871318 300.569618 290.50409 299.971405zM267.539014 323.97064C269.357628 324.754048 279.36 309.6 279.36 309.6 274.686853 313.211197 269.528824 316.113601 264.045363 318.217487 263.718948 320.742401 265.181862 323.151449 267.539014 323.97064z"/>
      <path fill="#FFF" d="M281.647043 69.2752753C281.647043 69.2752753 281.484748 72.9692687 283.385923 73.4134831 285.287098 73.8576974 286.26087 68.5972638 286.052205 66.8905454 285.727614 64.5525749 283.733699 60.4611265 278.006989 62.4484015 272.28028 64.4356764 272.025244 65.3708646 273.207682 66.9373048 274.39012 68.503745 279.699499 62.7757173 281.647043 69.2752753zM140.998505 343.508379L158.4 335.52C158.4 335.52 29.027882 429.6 10.56 429.6L140.998505 343.508379zM45.1474295 393.10878C49.6286547 391.672337 53.7668776 389.312837 57.3011676 386.179055 60.7771367 383.525118 65.8817067 380.846607 68.0693796 376.963994 68.2096571 376.701591 68.1855445 376.380566 68.0076831 376.142584 67.8298214 375.904602 67.5309357 375.793453 67.2429254 375.858187 63.0620395 376.939421 59.2700732 381.067768 55.842719 383.672559 52.4153649 386.277349 48.3803238 389.02958 44.5154351 391.56065 44.1942324 391.793234 44.0736883 392.21876 44.2244126 392.587972 44.3751367 392.957187 44.757459 393.17291 45.1474295 393.10878L45.1474295 393.10878zM13.5217175 405.6C13.5217175 405.6 71.3491525 347.51345 76.8 345.716959 75.8129596 345.307467 74.8779074 344.784911 74.0140113 344.16 74.0140113 344.16 41.9388023 370.292959 12.48 399.755415L13.5217175 405.6zM348.709455 84.96C348.709455 84.96 340.186746 85.3234436 340.835213 91.283918 340.952641 93.2467674 341.904857 95.0511983 343.429984 96.2009627 344.955109 97.3507273 346.892543 97.7247478 348.709455 97.2201628 348.709455 97.2201628 352.577097 96.9536376 353.202405 91.283918 353.447798 89.8160157 353.105498 88.3071265 352.255786 87.1111413 351.406077 85.9151561 350.12371 85.1372965 348.709455 84.96zM232.542363 86.88C232.542363 86.88 224.035025 87.2123492 224.674305 92.7198499 224.796967 94.528271 225.749173 96.1894761 227.271123 97.2502221 228.793073 98.3109682 230.725941 98.6605587 232.542363 98.2036113 232.542363 98.2036113 236.402629 97.9424798 237.041909 92.7198499 237.288378 91.3636395 236.945737 89.9692761 236.094524 88.864508 235.243311 87.7597399 233.958599 87.0420019 232.542363 86.88zM336.420248 98.4C336.420248 98.4 331.856564 98.6146516 332.176022 101.810576 332.245515 102.864773 332.760258 103.831966 333.580539 104.449642 334.40082 105.067318 335.441546 105.271401 336.420248 105.0065 336.420248 105.0065 338.496725 104.863399 338.839001 101.810576 338.969657 101.020248 338.785029 100.208469 338.328078 99.5641436 337.871128 98.9198185 337.181706 98.499139 336.420248 98.4L336.420248 98.4zM219.300248 99.36C219.300248 99.36 214.736564 99.5746516 215.056022 102.770576 215.125516 103.824773 215.640258 104.791966 216.460539 105.409642 217.280821 106.027318 218.321547 106.231401 219.300248 105.9665 219.300248 105.9665 221.376725 105.823399 221.719001 102.770576 221.849657 101.980248 221.665028 101.168469 221.208078 100.524144 220.751128 99.8798185 220.061707 99.459139 219.300248 99.36z"/>
      <path fill="#D2DAFF" d="M362.769307 47.52C359.442943 46.1245693 355.922844 45.2027858 352.32 44.7837126 352.32 44.7837126 357.795724 37.6325749 361.191151 36 361.191151 36 363.391005 45.0596407 362.769307 47.52zM248.64 166.904615C248.64 166.904615 249.227267 176.307692 253.533893 180.96 253.533893 180.96 258.843767 173.796923 258.183091 170.350769L255.320164 163.68C255.320164 163.68 249.985821 166.363077 248.64 166.904615z"/>
      <path fill="#FFF" d="M119.028415 241.44C118.730578 246.996636 127.566409 253.906193 127.566409 253.906193 129.005955 259.921856 116.372702 264.826191 111.756228 263.207519 107.139754 261.588847 108.753038 250.2823 108.753038 250.2823L119.028415 241.44zM128.64 235.830038C128.64 235.830038 131.068571 243.185104 134.687143 243.356722 138.305714 243.52834 144.96 236.908781 144.96 235.830038 143.076944 232.236019 142.108843 228.225651 142.142857 224.16 142.142857 224.16 132.331429 229.185962 128.64 235.830038z"/>
      <path fill="#D2DAFF" d="M331.2 204.234336C331.2 204.234336 337.064025 201.291204 336.824677 197.28 336.824677 197.28 350.706858 207.319877 343.550355 211.52096 338.117156 214.891321 333.59348 210.120599 331.2 204.234336zM232.32 309.502598C232.32 309.502598 233.016 319.074168 235.153714 321.12 235.153714 321.12 253.896 316.005421 260.16 312.425215 260.16 312.425215 253.896 302.098636 254.368286 298.08 254.368286 298.055682 235.128857 309.867925 232.32 309.502598zM193.458557 315.737705C193.458557 315.737705 191.488575 328.556066 195.380491 332.64 195.380491 332.64 217.002247 329.358689 222.72 325.864918 220.329225 321.715898 218.702652 317.184723 217.915165 312.48 217.915165 312.48 200.017156 313.022951 193.458557 315.737705zM262.08 291.676865C263.799883 296.81322 265.835806 301.837276 268.176 306.72 273.610786 304.148345 278.413133 300.402845 282.24 295.751047 282.24 295.751047 276.624 283.335639 276.6 279.84 276.6 279.815931 264.744 291.001852 262.08 291.676865zM180.199712 158.88C183.379092 161.20207 186.676915 163.35921 190.08 165.342799 190.08 165.342799 184.818747 172.714812 178.39656 173.28 178.347158 173.28 175.753583 164.851331 180.199712 158.88z"/>
      <path fill="#FFF" d="M154.561989 220.251935C154.561989 220.251935 154.345 234.040768 158.443684 235.68 162.414491 235.362135 166.298772 234.350413 169.92 232.690812 169.92 232.690812 166.882152 225.217843 169.92 219.36 169.92 219.36 156.346122 221.842954 154.561989 220.251935zM216.279224 247.799904C220.981816 246.292381 225.575253 244.488478 230.029474 242.4 230.029474 242.4 234.447424 253.390112 236.16 254.769823 236.16 254.769823 218.786039 259.979422 209.28 258.433194 209.28 258.433194 216.105485 251.439486 216.279224 247.799904z"/>
      <path fill="#D2DAFF" d="M285.12 268.877226C285.12 268.877226 287.98577 282.235664 295.403056 282.708529 302.820342 283.181394 306.24 268.877226 306.24 268.877226 306.24 268.877226 297.185131 263.108272 296.8239 259.68 296.8239 259.68 288.756397 269.137302 285.12 268.877226M310.398819 235.68C310.398819 235.68 304.373137 242.545672 300.48 243.71786 300.48 243.71786 303.654022 255.678961 310.101255 257.61666 316.548487 259.554358 320.64 241.206029 320.64 241.206029 320.64 241.206029 313.25048 239.340097 310.398819 235.68zM295.576029 217.44C295.576029 217.44 300.597834 224.780007 305.28 225.874788 305.28 225.874788 298.63278 236.275205 292.228159 235.65317 292.228159 235.65317 285.16852 231.199403 285.12 224.157973 285.21704 224.157973 292.883177 220.724342 295.576029 217.44zM263.842039 259.68C263.842039 259.68 270.0137 267.753772 274.56 267.493328 274.56 267.493328 267.610992 275.993281 260.944656 274.951504 256.171823 273.49971 253.415317 268.493666 254.725883 263.657694 257.889403 262.641841 260.943443 261.309259 263.842039 259.68zM245.902345 273.12C245.902345 273.12 253.673868 282.686303 256.32 283.934082 256.32 283.934082 246.99894 295.139624 238.226177 293.011061 238.226177 293.011061 232.504811 282.784168 236.795836 274.954969 239.877454 274.615575 242.924452 274.001602 245.902345 273.12zM279.440725 239.522708C279.440725 239.37706 287.275924 245.154417 289.92 245.469987 289.92 245.469987 286.20859 260.690166 277.669921 258.505452 277.669921 258.505452 269.616404 257.194623 269.761949 245.154417 273.552914 244.483549 276.98282 242.487817 279.440725 239.522708L279.440725 239.522708zM331.430439 217.44C331.430439 217.44 338.662308 226.978456 345.6 226.485513 345.6 226.485513 340.942186 237.157739 332.65618 235.506378 332.65618 235.506378 323.291522 234.96414 321.6 227.126339 321.624515 227.126339 330.474362 220.397661 331.430439 217.44zM311.640949 197.28C311.640949 197.28 319.205966 205.435741 324.48 206.452253 324.48 206.452253 318.63322 220.801629 311.736407 219.2414 304.839593 217.681172 303.36 208.887156 303.36 208.887156 306.84622 205.579971 309.657621 201.639314 311.640949 197.28zM280.908108 204C280.908108 204 289.708108 206.611079 292.8 207.229493 292.8 207.229493 284.927568 217.536385 278.410811 216.391175 271.894054 215.245965 271.68 207.229493 271.68 207.229493 274.92064 206.652978 278.039196 205.5616 280.908108 204zM220.80304 171.782069C220.80304 171.782069 234.473526 170.64 238.08 168.48 238.08 168.48 236.788492 184.742069 229.453704 188.64 223.944763 184.884507 220.686176 178.534355 220.80304 171.782069zM312.966903 164.64L325.036602 167.604706C325.036602 167.604706 327.331221 178.491106 320.975125 184.8 315.702066 179.528725 312.798955 172.220395 312.966903 164.64zM198.72 167.52C198.72 167.52 206.904 171.900845 213.12 171.487099 212.598877 176.836694 209.814414 181.69378 205.488 184.8 201.863405 179.692958 199.538582 173.75724 198.72 167.52L198.72 167.52zM325.44 255.487487C325.44 255.487487 331.511773 259.584171 334.819161 259.68 334.819161 259.68 343.211042 249.617968 343.68 246.24 343.68 246.24 332.671827 248.635722 330.203627 246.767059 330.203627 246.767059 329.043572 253.47508 325.44 255.487487zM372.48 159.17151C376.321488 157.250235 379.920867 154.897171 383.205196 152.16 383.205196 152.16 389.654646 159.615573 387.337622 166.556968 381.43826 166.664685 375.86991 163.896758 372.48 159.17151L372.48 159.17151zM172.8 151.808317C172.8 151.808317 166.433591 144.679604 164.916685 140.64 162.186798 144.938798 160.601294 149.905697 160.32 155.04 160.32 155.04 169.950055 154.232079 172.8 151.808317z"/>
      <path fill="#4038FF" d="M118.597758,406.56 C118.597758,406.56 240.580114,289.144204 255.36,251.04 C255.36,251.04 129.344571,378.535128 73.92,401.484251 L118.597758,406.56 Z"/>
      <path fill="#D2DAFF" d="M217.027409 43.8583937C221.528964 44.0132283 226.006186 44.5963285 230.4 45.6 230.4 45.6 225.93451 33.2394331 221.206344 30.24 221.206344 30.24 216.3349 37.399937 217.027409 43.8583937zM165.436025 75.36C165.436025 75.36 173.330683 61.7476923 177.6 60 177.6 60 164.529689 60.8615385 162.24 61.3046154 162.24 61.3046154 163.027081 74.2523077 165.436025 75.36zM189.12 53.28C189.12 53.28 192.190759 49.5570732 203.52 46.0917073 203.52 46.0917073 195.377835 40.9873171 191.399806 38.88 190.064309 43.5695906 189.298785 48.4048889 189.12 53.28zM374.4 53.4702572C374.4 53.4702572 385.016667 60.4821785 386.533333 63.84 387.268884 58.4315688 387.705182 52.9822842 387.84 47.52 382.95424 48.2600436 378.328055 50.3081836 374.4 53.4702572L374.4 53.4702572zM396.099669 134.88C396.099669 134.88 391.719867 144.040408 388.8 145.221619 388.8 145.221619 393.155469 153.586518 403.10735 148.717038 403.751025 143.135473 401.000929 137.705265 396.099669 134.88zM398.4 128.16C402.931165 127.931729 407.431132 127.266709 411.84 126.173793 411.84 126.173793 407.421687 116.715665 402.748916 113.76 401.713059 118.680499 400.257868 123.498884 398.4 128.16L398.4 128.16zM400.32 91.68C400.32 91.68 403.975974 101.325212 402.773674 107.04 402.773674 107.04 412.097636 103.423046 415.68 98.2628571 415.630927 98.2628571 408.196294 91.9693564 400.32 91.68zM392.64 71.273998C395.038842 74.6663587 397.102381 78.2854907 398.801311 82.08 401.829407 78.6280476 404.58403 74.9437293 407.04 71.0607217 402.261558 70.3278402 397.394823 70.3999207 392.64 71.273998L392.64 71.273998zM298.316718 56.16C298.316718 56.16 308.168395 48.9643557 314.88 45.1348094 312.558655 38.8361229 308.527087 33.337869 303.254542 29.28 303.254542 29.28 295.200616 37.2561887 298.316718 56.16zM324.48 43.68C329.253739 43.3314132 334.044914 43.3314132 338.818653 43.68 339.237779 38.0898696 337.496597 32.5573239 333.984612 28.32 329.443605 32.3537531 326.138109 37.6956236 324.48 43.68zM161.28 130.059577C161.28 130.059577 156.879321 118.314112 157.44163 114.72 153.598557 118.356307 150.06659 122.284166 146.88 126.465465 146.88 126.465465 155.24129 130.834778 161.28 129.965614M242.947733 48.8114286C249.422138 50.2790295 255.809137 52.0912707 262.08 54.24 262.08 54.24 256.704395 37.3114286 249.61837 30.24 249.61837 30.24 242.092523 40.4066667 242.947733 48.8114286z"/>
    </g>
    <path fill="#4038FF" d="M535 8.8L535 0 455 0 455 8.8 535 8.8zM535 18.4L535 27.2 455 27.2 455 18.4 535 18.4zM535 35.2L535 44 455 44 455 35.2 535 35.2zM535 61.6L535 52.8 455 52.8 455 61.6 535 61.6zM535 71.2L535 80 455 80 455 71.2 535 71.2zM535 328.8L535 320 455 320 455 328.8 535 328.8zM535 338.4L535 347.2 455 347.2 455 338.4 535 338.4zM535 355.2L535 364 455 364 455 355.2 535 355.2zM535 381.6L535 372.8 455 372.8 455 381.6 535 381.6zM535 391.2L535 400 455 400 455 391.2 535 391.2zM535 168.8L535 160 455 160 455 168.8 535 168.8zM535 178.4L535 187.2 455 187.2 455 178.4 535 178.4zM535 195.2L535 204 455 204 455 195.2 535 195.2zM535 221.6L535 212.8 455 212.8 455 221.6 535 221.6zM535 231.2L535 240 455 240 455 231.2 535 231.2zM535 488.8L535 480 455 480 455 488.8 535 488.8zM535 498.4L535 507.2 455 507.2 455 498.4 535 498.4zM535 515.2L535 524 455 524 455 515.2 535 515.2zM535 541.6L535 532.8 455 532.8 455 541.6 535 541.6zM535 551.2L535 560 455 560 455 551.2 535 551.2zM535 648.8L535 640 455 640 455 648.8 535 648.8zM535 658.4L535 667.2 455 667.2 455 658.4 535 658.4zM535 675.2L535 684 455 684 455 675.2 535 675.2zM535 701.6L535 692.8 455 692.8 455 701.6 535 701.6zM535 711.2L535 720 455 720 455 711.2 535 711.2z"/>
    <path fill="#000" d="M615,88.8 L615,80 L535,80 L535,88.8 L615,88.8 Z M615,98.4 L615,107.2 L535,107.2 L535,98.4 L615,98.4 Z M615,115.2 L615,124 L535,124 L535,115.2 L615,115.2 Z M615,141.6 L615,132.8 L535,132.8 L535,141.6 L615,141.6 Z M615,151.2 L615,160 L535,160 L535,151.2 L615,151.2 Z" transform="rotate(-90 575 120)"/>
    <path fill="#000" d="M615,408.8 L615,400 L535,400 L535,408.8 L615,408.8 Z M615,418.4 L615,427.2 L535,427.2 L535,418.4 L615,418.4 Z M615,435.2 L615,444 L535,444 L535,435.2 L615,435.2 Z M615,461.6 L615,452.8 L535,452.8 L535,461.6 L615,461.6 Z M615,471.2 L615,480 L535,480 L535,471.2 L615,471.2 Z" transform="rotate(-90 575 440)"/>
    <path fill="#000" d="M615,248.8 L615,240 L535,240 L535,248.8 L615,248.8 Z M615,258.4 L615,267.2 L535,267.2 L535,258.4 L615,258.4 Z M615,275.2 L615,284 L535,284 L535,275.2 L615,275.2 Z M615,301.6 L615,292.8 L535,292.8 L535,301.6 L615,301.6 Z M615,311.2 L615,320 L535,320 L535,311.2 L615,311.2 Z" transform="rotate(-90 575 280)"/>
    <path fill="#000" d="M615,568.8 L615,560 L535,560 L535,568.8 L615,568.8 Z M615,578.4 L615,587.2 L535,587.2 L535,578.4 L615,578.4 Z M615,595.2 L615,604 L535,604 L535,595.2 L615,595.2 Z M615,621.6 L615,612.8 L535,612.8 L535,621.6 L615,621.6 Z M615,631.2 L615,640 L535,640 L535,631.2 L615,631.2 Z" transform="rotate(-90 575 600)"/>
    <path fill="#000" d="M615,728.8 L615,720 L535,720 L535,728.8 L615,728.8 Z M615,738.4 L615,747.2 L535,747.2 L535,738.4 L615,738.4 Z M615,755.2 L615,764 L535,764 L535,755.2 L615,755.2 Z M615,781.6 L615,772.8 L535,772.8 L535,781.6 L615,781.6 Z M615,791.2 L615,800 L535,800 L535,791.2 L615,791.2 Z" transform="rotate(-90 575 760)"/>
  </g>
</svg>
