<svg xmlns="http://www.w3.org/2000/svg" width="1310" height="800" viewBox="0 0 1310 800">
  <g fill="none" fill-rule="evenodd">
    <rect width="1310" height="800" fill="#4038FF"/>
    <g transform="matrix(0 -1 -1 0 1310 1000)">
      <path fill="#FFF" d="M355.737751,466.290555 L333.530734,466.290555 L333.530734,488.536528 L355.737751,488.536528 L355.737751,510.837782 L333.530734,510.837782 L333.530734,533.139036 L355.737751,533.139036 L355.737751,555.385009 L378,555.385009 L378,577.686263 L355.737751,577.686263 L355.737751,555.44029 L333.530734,555.44029 L333.530734,577.686263 L355.737751,577.686263 L355.737751,600 L333.475502,600 L333.475502,577.698746 L311.268485,577.698746 L311.268485,555.452773 L289.006236,555.452773 L289.006236,577.698746 L266.743987,577.698746 L266.743987,555.452773 L244.53697,555.452773 L244.53697,577.698746 L266.743987,577.698746 L266.743987,600 L244.479956,600 L244.479956,577.698746 L222.274721,577.698746 L222.274721,600 L200,600 L200,577.698746 L222.262249,577.698746 L222.262249,555.452773 L200,555.452773 L200,533.149735 L222.262249,533.149735 L222.262249,510.848481 L200,510.848481 L200,488.547227 L222.262249,488.547227 L222.262249,466.301254 L222.262249,466.245973 L244.469266,466.245973 L244.469266,444 L266.731515,444 L266.731515,466.245973 L288.993764,466.245973 L288.993764,444 L311.257795,444 L311.257795,466.245973 L333.464812,466.245973 L333.464812,444 L355.727061,444 L355.727061,466.245973 L377.98931,466.245973 L377.98931,488.547227 L355.727061,488.547227 L355.727061,466.290555 L355.737751,466.290555 Z M222,467.945471 L222,446 L200,446 L200,468 L222,468 L222,467.945471 Z M290,578 L290,600 L312,600 L312,578 L290,578 Z M356,532 L356,510 L378,510 L378,532 L356,532 Z M244,554 L222,554 L222,532 L244,532 L244,554 Z M244.527172,444 L244.527172,422 L266.735523,422 L266.735523,444 L288.999109,444 L288.999109,422 L311.264477,422 L311.264477,444 L333.528063,444 L333.528063,422 L355.736414,422 L355.736414,444 L378,444 L378,422 L355.736414,422 L355.736414,400 L333.472828,400 L333.472828,422 L311.264477,422 L311.264477,400 L288.999109,400 L288.999109,422 L266.735523,422 L266.735523,400 L244.471937,400 L244.471937,422 L222.263586,422 L222.263586,400 L200,400 L200,422 L222.263586,422 L222.263586,444 L244.527172,444 Z M332,488 L332,510 L310,510 L310,488 L332,488 Z M290,490 L290,468 L312,468 L312,490 L290,490 Z M268,488 L290,488 L290,510 L268,510 L268,488 Z M268,490 L246,490 L246,468 L268,468 L268,490 Z M268,532 L246,532 L246,510 L268,510 L268,532 Z M290,532 L290,554 L268,554 L268,532 L290,532 Z M312,532 L290,532 L290,510 L312,510 L312,532 Z M310,532 L332,532 L332,554 L310,554 L310,532 Z M244,510 L244,488 L222,488 L222,510 L244,510 Z M400,578 L378,578 L378,600 L400,600 L400,578 Z M378,532 L400,532 L400,554 L378,554 L378,532 Z M400,488 L378,488 L378,510 L400,510 L400,488 Z M378,446 L400,446 L400,468 L378,468 L378,446 Z M378,400 L400,400 L400,422 L378,422 L378,400 Z"/>
      <path fill="#261EE4" d="M955.737751,66.2905545 L933.530734,66.2905545 L933.530734,88.5365279 L955.737751,88.5365279 L955.737751,110.837782 L933.530734,110.837782 L933.530734,133.139036 L955.737751,133.139036 L955.737751,155.385009 L978,155.385009 L978,177.686263 L955.737751,177.686263 L955.737751,155.44029 L933.530734,155.44029 L933.530734,177.686263 L955.737751,177.686263 L955.737751,200 L933.475502,200 L933.475502,177.698746 L911.268485,177.698746 L911.268485,155.452773 L889.006236,155.452773 L889.006236,177.698746 L866.743987,177.698746 L866.743987,155.452773 L844.53697,155.452773 L844.53697,177.698746 L866.743987,177.698746 L866.743987,200 L844.479956,200 L844.479956,177.698746 L822.274721,177.698746 L822.274721,200 L800,200 L800,177.698746 L822.262249,177.698746 L822.262249,155.452773 L800,155.452773 L800,133.149735 L822.262249,133.149735 L822.262249,110.848481 L800,110.848481 L800,88.5472274 L822.262249,88.5472274 L822.262249,66.301254 L822.262249,66.2459734 L844.469266,66.2459734 L844.469266,44 L866.731515,44 L866.731515,66.2459734 L888.993764,66.2459734 L888.993764,44 L911.257795,44 L911.257795,66.2459734 L933.464812,66.2459734 L933.464812,44 L955.727061,44 L955.727061,66.2459734 L977.98931,66.2459734 L977.98931,88.5472274 L955.727061,88.5472274 L955.727061,66.2905545 L955.737751,66.2905545 Z M822,67.9454705 L822,46 L800,46 L800,68 L822,68 L822,67.9454705 Z M890,178 L890,200 L912,200 L912,178 L890,178 Z M956,132 L956,110 L978,110 L978,132 L956,132 Z M844,154 L822,154 L822,132 L844,132 L844,154 Z M844.527172,44 L844.527172,22 L866.735523,22 L866.735523,44 L888.999109,44 L888.999109,22 L911.264477,22 L911.264477,44 L933.528063,44 L933.528063,22 L955.736414,22 L955.736414,44 L978,44 L978,22 L955.736414,22 L955.736414,0 L933.472828,0 L933.472828,22 L911.264477,22 L911.264477,0 L888.999109,0 L888.999109,22 L866.735523,22 L866.735523,0 L844.471937,0 L844.471937,22 L822.263586,22 L822.263586,0 L800,0 L800,22 L822.263586,22 L822.263586,44 L844.527172,44 Z M932,88 L932,110 L910,110 L910,88 L932,88 Z M890,90 L890,68 L912,68 L912,90 L890,90 Z M868,88 L890,88 L890,110 L868,110 L868,88 Z M868,90 L846,90 L846,68 L868,68 L868,90 Z M868,132 L846,132 L846,110 L868,110 L868,132 Z M890,132 L890,154 L868,154 L868,132 L890,132 Z M912,132 L890,132 L890,110 L912,110 L912,132 Z M910,132 L932,132 L932,154 L910,154 L910,132 Z M844,110 L844,88 L822,88 L822,110 L844,110 Z M1000,178 L978,178 L978,200 L1000,200 L1000,178 Z M978,132 L1000,132 L1000,154 L978,154 L978,132 Z M1000,88 L978,88 L978,110 L1000,110 L1000,88 Z M978,46 L1000,46 L1000,68 L978,68 L978,46 Z M978,0 L1000,0 L1000,22 L978,22 L978,0 Z"/>
      <path fill="#FFF" d="M978,800 L1000,800 L1000,600 L978,600 L978,800 Z M954,800 L932,800 L932,600 L954,600 L954,800 Z M912,800 L890,800 L890,600 L912,600 L912,800 Z M846,800 L868,800 L868,600 L846,600 L846,800 Z M822,800 L800,800 L800,600 L822,600 L822,800 Z"/>
      <path fill="#261EE4" d="M778 600L800 600 800 400 778 400 778 600zM754 600L732 600 732 400 754 400 754 600zM712 600L690 600 690 400 712 400 712 600zM646 600L668 600 668 400 646 400 646 600zM622 600L600 600 600 400 622 400 622 600zM600 222L600 200 400 200 400 222 600 222zM600 246L600 268 400 268 400 246 600 246zM600 288L600 310 400 310 400 288 600 288zM600 354L600 332 400 332 400 354 600 354zM600 378L600 400 400 400 400 378 600 378zM800 778L800 800 600 800 600 778 800 778zM800 710L800 688 600 688 600 710 800 710zM800 646L800 668 600 668 600 646 800 646zM800 600L800 622 600 622 600 600 800 600zM800 754L800 732 600 732 600 754 800 754z"/>
      <path fill="#2316E8" d="M977.77758,800 L1000,800 C1000,910.455111 910.455516,1000 800,1000 L800,977.777778 C898.188612,977.777778 977.77758,898.188444 977.77758,800 Z M933.714031,800 L956,800 C956,886.156571 886.156711,956 800,956 L800,933.714286 C873.844021,933.714286 933.714031,873.84416 933.714031,800 Z M910,800 L888,800 C888,848.59712 848.597646,888 800,888 L800,910 C860.752342,910 910,860.75344 910,800 Z M845.333333,800 L868,800 C868,837.55776 837.558171,868 800,868 L800,845.333333 C825.035151,845.333333 845.333333,825.03488 845.333333,800 Z M800,800 L822,800 C822,812.15456 812.154696,822 800,822 L800,800 Z"/>
      <path fill="#261EE4" d="M422.22242,800 L400,800 C400,689.544889 489.544484,600 600,600 L600,622.222222 C501.811388,622.222222 422.22242,701.811556 422.22242,800 Z M466.285969,800 L444,800 C444,713.843429 513.843289,644 600,644 L600,666.285714 C526.155979,666.285714 466.285969,726.15584 466.285969,800 Z M490,800 L512.000352,800 C512.000352,751.40112 551.401576,712 600,712 L600,690 C539.246685,690 490,739.24656 490,800 Z M554.665457,800 L532,800 C532,762.440427 562.440826,732 600,732 L600,754.666667 C574.964181,754.666667 554.665457,774.96512 554.665457,800 Z M600,800 L578,800 C578,787.84544 587.845304,778 600,778 L600,800 Z" transform="rotate(90 500 700)"/>
      <path fill="#FFF" d="M622.22242,200 L600,200 C600,89.5448889 689.544484,0 800,0 L800,22.2222222 C701.811388,22.2222222 622.22242,101.811556 622.22242,200 Z M666.285969,200 L644,200 C644,113.843429 713.843289,44 800,44 L800,66.2857143 C726.155979,66.2857143 666.285969,126.15584 666.285969,200 Z M690,200 L712.000352,200 C712.000352,151.40112 751.401576,112 800,112 L800,90 C739.246685,90 690,139.24656 690,200 Z M754.665457,200 L732,200 C732,162.440427 762.440826,132 800,132 L800,154.666667 C774.964181,154.666667 754.665457,174.96512 754.665457,200 Z M800,200 L778,200 C778,187.84544 787.845304,178 800,178 L800,200 Z" transform="rotate(-90 700 100)"/>
      <path fill="#261EE4" d="M222.22242,200 L200,200 C200,89.5448889 289.544484,0 400,0 L400,22.2222222 C301.811388,22.2222222 222.22242,101.811556 222.22242,200 Z M266.285969,200 L244,200 C244,113.843429 313.843289,44 400,44 L400,66.2857143 C326.155979,66.2857143 266.285969,126.15584 266.285969,200 Z M290,200 L312.000352,200 C312.000352,151.40112 351.401576,112 400,112 L400,90 C339.246685,90 290,139.24656 290,200 Z M354.665457,200 L332,200 C332,162.440427 362.440826,132 400,132 L400,154.666667 C374.964181,154.666667 354.665457,174.96512 354.665457,200 Z M400,200 L378,200 C378,187.84544 387.845304,178 400,178 L400,200 Z" transform="rotate(-180 300 100)"/>
      <path fill="#261EE4" d="M1000,384.334222 L1000,400 L984.33274,400 L800,215.667556 L800,200 L815.66548,200 L1000,384.334222 Z M800,248 L800,279.262512 L920.739546,400 L952,400 L800,248 Z M800,341.443556 L800,310 L890,400 L858.55516,400 L800,341.443556 Z M800,400 L828,400 L800,372 L800,400 Z M848,200 L879.261859,200 L1000,320.737488 L1000,352 L848,200 Z M941.44484,200 L910,200 L1000,290 L1000,258.556444 L941.44484,200 Z M1000,228 L972,200 L1000,200 L1000,228 Z" transform="rotate(90 900 300)"/>
    </g>
  </g>
</svg>
