<svg xmlns="http://www.w3.org/2000/svg" width="1310" height="800" viewBox="0 0 1310 800">
  <g fill="none" fill-rule="evenodd">
    <rect width="1310" height="800" fill="#4038FF"/>
    <g transform="matrix(0 -1 -1 0 1310 800)">
      <path fill="#261EE4" d="M477.868875 233.145277L466.765367 233.145277 466.765367 244.268264 477.868875 244.268264 477.868875 255.418891 466.765367 255.418891 466.765367 266.569518 477.868875 266.569518 477.868875 277.692505 489 277.692505 489 288.843132 477.868875 288.843132 477.868875 277.720145 466.765367 277.720145 466.765367 288.843132 477.868875 288.843132 477.868875 300 466.737751 300 466.737751 288.849373 455.634243 288.849373 455.634243 277.726386 444.503118 277.726386 444.503118 288.849373 433.371993 288.849373 433.371993 277.726386 422.268485 277.726386 422.268485 288.849373 433.371993 288.849373 433.371993 300 422.239978 300 422.239978 288.849373 411.13736 288.849373 411.13736 300 400 300 400 288.849373 411.131125 288.849373 411.131125 277.726386 400 277.726386 400 266.574868 411.131125 266.574868 411.131125 255.424241 400 255.424241 400 244.273614 411.131125 244.273614 411.131125 233.150627 411.131125 233.122987 422.234633 233.122987 422.234633 222 433.365757 222 433.365757 233.122987 444.496882 233.122987 444.496882 222 455.628897 222 455.628897 233.122987 466.732406 233.122987 466.732406 222 477.86353 222 477.86353 233.122987 488.994655 233.122987 488.994655 244.273614 477.86353 244.273614 477.86353 233.145277 477.868875 233.145277zM411 233.972735L411 223 400 223 400 234 411 234 411 233.972735zM445 289L445 300 456 300 456 289 445 289zM478 266L478 255 489 255 489 266 478 266zM422 277L411 277 411 266 422 266 422 277zM422.263586 222L422.263586 211 433.367761 211 433.367761 222 444.499555 222 444.499555 211 455.632239 211 455.632239 222 466.764032 222 466.764032 211 477.868207 211 477.868207 222 489 222 489 211 477.868207 211 477.868207 200 466.736414 200 466.736414 211 455.632239 211 455.632239 200 444.499555 200 444.499555 211 433.367761 211 433.367761 200 422.235968 200 422.235968 211 411.131793 211 411.131793 200 400 200 400 211 411.131793 211 411.131793 222 422.263586 222zM466 244L466 255 455 255 455 244 466 244zM445 245L445 234 456 234 456 245 445 245zM434 244L445 244 445 255 434 255 434 244zM434 245L423 245 423 234 434 234 434 245zM434 266L423 266 423 255 434 255 434 266zM445 266L445 277 434 277 434 266 445 266zM456 266L445 266 445 255 456 255 456 266zM455 266L466 266 466 277 455 277 455 266zM422 255L422 244 411 244 411 255 422 255zM500 289L489 289 489 300 500 300 500 289zM489 266L500 266 500 277 489 277 489 266zM500 244L489 244 489 255 500 255 500 244zM489 223L500 223 500 234 489 234 489 223zM489 200L500 200 500 211 489 211 489 200zM777.868875 33.1452773L766.765367 33.1452773 766.765367 44.268264 777.868875 44.268264 777.868875 55.418891 766.765367 55.418891 766.765367 66.569518 777.868875 66.569518 777.868875 77.6925047 789 77.6925047 789 88.8431317 777.868875 88.8431317 777.868875 77.7201449 766.765367 77.7201449 766.765367 88.8431317 777.868875 88.8431317 777.868875 100 766.737751 100 766.737751 88.849373 755.634243 88.849373 755.634243 77.7263863 744.503118 77.7263863 744.503118 88.849373 733.371993 88.849373 733.371993 77.7263863 722.268485 77.7263863 722.268485 88.849373 733.371993 88.849373 733.371993 100 722.239978 100 722.239978 88.849373 711.13736 88.849373 711.13736 100 700 100 700 88.849373 711.131125 88.849373 711.131125 77.7263863 700 77.7263863 700 66.5748677 711.131125 66.5748677 711.131125 55.4242407 700 55.4242407 700 44.2736137 711.131125 44.2736137 711.131125 33.150627 711.131125 33.1229867 722.234633 33.1229867 722.234633 22 733.365757 22 733.365757 33.1229867 744.496882 33.1229867 744.496882 22 755.628897 22 755.628897 33.1229867 766.732406 33.1229867 766.732406 22 777.86353 22 777.86353 33.1229867 788.994655 33.1229867 788.994655 44.2736137 777.86353 44.2736137 777.86353 33.1452773 777.868875 33.1452773zM711 33.9727353L711 23 700 23 700 34 711 34 711 33.9727353zM745 89L745 100 756 100 756 89 745 89zM778 66L778 55 789 55 789 66 778 66zM722 77L711 77 711 66 722 66 722 77zM722.263586 22L722.263586 11 733.367761 11 733.367761 22 744.499555 22 744.499555 11 755.632239 11 755.632239 22 766.764032 22 766.764032 11 777.868207 11 777.868207 22 789 22 789 11 777.868207 11 777.868207 0 766.736414 0 766.736414 11 755.632239 11 755.632239 0 744.499555 0 744.499555 11 733.367761 11 733.367761 0 722.235968 0 722.235968 11 711.131793 11 711.131793 0 700 0 700 11 711.131793 11 711.131793 22 722.263586 22zM766 44L766 55 755 55 755 44 766 44zM745 45L745 34 756 34 756 45 745 45zM734 44L745 44 745 55 734 55 734 44zM734 45L723 45 723 34 734 34 734 45zM734 66L723 66 723 55 734 55 734 66zM745 66L745 77 734 77 734 66 745 66zM756 66L745 66 745 55 756 55 756 66zM755 66L766 66 766 77 755 77 755 66zM722 55L722 44 711 44 711 55 722 55zM800 89L789 89 789 100 800 100 800 89zM789 66L800 66 800 77 789 77 789 66zM800 44L789 44 789 55 800 55 800 44zM789 23L800 23 800 34 789 34 789 23zM789 0L800 0 800 11 789 11 789 0zM177.868875 33.1452773L166.765367 33.1452773 166.765367 44.268264 177.868875 44.268264 177.868875 55.418891 166.765367 55.418891 166.765367 66.569518 177.868875 66.569518 177.868875 77.6925047 189 77.6925047 189 88.8431317 177.868875 88.8431317 177.868875 77.7201449 166.765367 77.7201449 166.765367 88.8431317 177.868875 88.8431317 177.868875 100 166.737751 100 166.737751 88.849373 155.634243 88.849373 155.634243 77.7263863 144.503118 77.7263863 144.503118 88.849373 133.371993 88.849373 133.371993 77.7263863 122.268485 77.7263863 122.268485 88.849373 133.371993 88.849373 133.371993 100 122.239978 100 122.239978 88.849373 111.13736 88.849373 111.13736 100 100 100 100 88.849373 111.131125 88.849373 111.131125 77.7263863 100 77.7263863 100 66.5748677 111.131125 66.5748677 111.131125 55.4242407 100 55.4242407 100 44.2736137 111.131125 44.2736137 111.131125 33.150627 111.131125 33.1229867 122.234633 33.1229867 122.234633 22 133.365757 22 133.365757 33.1229867 144.496882 33.1229867 144.496882 22 155.628897 22 155.628897 33.1229867 166.732406 33.1229867 166.732406 22 177.86353 22 177.86353 33.1229867 188.994655 33.1229867 188.994655 44.2736137 177.86353 44.2736137 177.86353 33.1452773 177.868875 33.1452773zM111 33.9727353L111 23 100 23 100 34 111 34 111 33.9727353zM145 89L145 100 156 100 156 89 145 89zM178 66L178 55 189 55 189 66 178 66zM122 77L111 77 111 66 122 66 122 77zM122.263586 22L122.263586 11 133.367761 11 133.367761 22 144.499555 22 144.499555 11 155.632239 11 155.632239 22 166.764032 22 166.764032 11 177.868207 11 177.868207 22 189 22 189 11 177.868207 11 177.868207 0 166.736414 0 166.736414 11 155.632239 11 155.632239 0 144.499555 0 144.499555 11 133.367761 11 133.367761 0 122.235968 0 122.235968 11 111.131793 11 111.131793 0 100 0 100 11 111.131793 11 111.131793 22 122.263586 22zM166 44L166 55 155 55 155 44 166 44zM145 45L145 34 156 34 156 45 145 45zM134 44L145 44 145 55 134 55 134 44zM134 45L123 45 123 34 134 34 134 45zM134 66L123 66 123 55 134 55 134 66zM145 66L145 77 134 77 134 66 145 66zM156 66L145 66 145 55 156 55 156 66zM155 66L166 66 166 77 155 77 155 66zM122 55L122 44 111 44 111 55 122 55zM200 89L189 89 189 100 200 100 200 89zM189 66L200 66 200 77 189 77 189 66zM200 44L189 44 189 55 200 55 200 44zM189 23L200 23 200 34 189 34 189 23zM189 0L200 0 200 11 189 11 189 0zM789 400L800 400 800 300 789 300 789 400zM777 400L766 400 766 300 777 300 777 400zM756 400L745 400 745 300 756 300 756 400zM723 400L734 400 734 300 723 300 723 400zM711 400L700 400 700 300 711 300 711 400zM689 300L700 300 700 200 689 200 689 300zM677 300L666 300 666 200 677 200 677 300zM656 300L645 300 645 200 656 200 656 300zM623 300L634 300 634 200 623 200 623 300zM611 300L600 300 600 200 611 200 611 300zM189 300L200 300 200 200 189 200 189 300zM177 300L166 300 166 200 177 200 177 300zM156 300L145 300 145 200 156 200 156 300zM123 300L134 300 134 200 123 200 123 300zM111 300L100 300 100 200 111 200 111 300zM600 111L600 100 500 100 500 111 600 111zM600 123L600 134 500 134 500 123 600 123zM600 144L600 155 500 155 500 144 600 144zM600 177L600 166 500 166 500 177 600 177zM600 189L600 200 500 200 500 189 600 189zM100 111L100 100 0 100 0 111 100 111zM100 123L100 134 0 134 0 123 100 123zM100 144L100 155 0 155 0 144 100 144zM100 177L100 166 0 166 0 177 100 177zM100 189L100 200 0 200 0 189 100 189zM700 389L700 400 600 400 600 389 700 389zM700 355L700 344 600 344 600 355 700 355zM700 323L700 334 600 334 600 323 700 323zM700 300L700 311 600 311 600 300 700 300zM700 377L700 366 600 366 600 377 700 377z"/>
      <path fill="#FFF" d="M788.88879 400L800 400C800 455.227556 755.227758 500 700 500L700 488.888889C749.094306 488.888889 788.88879 449.094222 788.88879 400zM766.857015 400L778 400C778 443.078286 743.078356 478 700 478L700 466.857143C736.92201 466.857143 766.857015 436.92208 766.857015 400zM755 400L744 400C744 424.29856 724.298823 444 700 444L700 455C730.376171 455 755 430.37672 755 400zM722.666667 400L734 400C734 418.77888 718.779086 434 700 434L700 422.666667C712.517575 422.666667 722.666667 412.51744 722.666667 400zM700 400L711 400C711 406.07728 706.077348 411 700 411L700 400zM288.88879 200L300 200C300 255.227556 255.227758 300 200 300L200 288.888889C249.094306 288.888889 288.88879 249.094222 288.88879 200zM266.857015 200L278 200C278 243.078286 243.078356 278 200 278L200 266.857143C236.92201 266.857143 266.857015 236.92208 266.857015 200zM255 200L244 200C244 224.29856 224.298823 244 200 244L200 255C230.376171 255 255 230.37672 255 200zM222.666667 200L234 200C234 218.77888 218.779086 234 200 234L200 222.666667C212.517575 222.666667 222.666667 212.51744 222.666667 200zM200 200L211 200C211 206.07728 206.077348 211 200 211L200 200z"/>
      <path fill="#261EE4" d="M411.11121,500 L400,500 C400,444.772444 444.772242,400 500,400 L500,411.111111 C450.905694,411.111111 411.11121,450.905778 411.11121,500 Z M433.142985,500 L422,500 C422,456.921714 456.921644,422 500,422 L500,433.142857 C463.07799,433.142857 433.142985,463.07792 433.142985,500 Z M445,500 L456.000176,500 C456.000176,475.70056 475.700788,456 500,456 L500,445 C469.623343,445 445,469.62328 445,500 Z M477.332728,500 L466,500 C466,481.220213 481.220413,466 500,466 L500,477.333333 C487.48209,477.333333 477.332728,487.48256 477.332728,500 Z M500,500 L489,500 C489,493.92272 493.922652,489 500,489 L500,500 Z"/>
      <path fill="#FFF" d="M311.11121,100 L300,100 C300,44.7724444 344.772242,0 400,0 L400,11.1111111 C350.905694,11.1111111 311.11121,50.9057778 311.11121,100 Z M333.142985,100 L322,100 C322,56.9217143 356.921644,22 400,22 L400,33.1428571 C363.07799,33.1428571 333.142985,63.07792 333.142985,100 Z M345,100 L356.000176,100 C356.000176,75.70056 375.700788,56 400,56 L400,45 C369.623343,45 345,69.62328 345,100 Z M377.332728,100 L366,100 C366,81.2202133 381.220413,66 400,66 L400,77.3333333 C387.48209,77.3333333 377.332728,87.48256 377.332728,100 Z M400,100 L389,100 C389,93.92272 393.922652,89 400,89 L400,100 Z"/>
      <path fill="#FFF" d="M611.11121,100 L600,100 C600,44.7724444 644.772242,0 700,0 L700,11.1111111 C650.905694,11.1111111 611.11121,50.9057778 611.11121,100 Z M633.142985,100 L622,100 C622,56.9217143 656.921644,22 700,22 L700,33.1428571 C663.07799,33.1428571 633.142985,63.07792 633.142985,100 Z M645,100 L656.000176,100 C656.000176,75.70056 675.700788,56 700,56 L700,45 C669.623343,45 645,69.62328 645,100 Z M677.332728,100 L666,100 C666,81.2202133 681.220413,66 700,66 L700,77.3333333 C687.48209,77.3333333 677.332728,87.48256 677.332728,100 Z M700,100 L689,100 C689,93.92272 693.922652,89 700,89 L700,100 Z" transform="rotate(-90 650 50)"/>
      <path fill="#261EE4" d="M411.11121,100 L400,100 C400,44.7724444 444.772242,0 500,0 L500,11.1111111 C450.905694,11.1111111 411.11121,50.9057778 411.11121,100 Z M433.142985,100 L422,100 C422,56.9217143 456.921644,22 500,22 L500,33.1428571 C463.07799,33.1428571 433.142985,63.07792 433.142985,100 Z M445,100 L456.000176,100 C456.000176,75.70056 475.700788,56 500,56 L500,45 C469.623343,45 445,69.62328 445,100 Z M477.332728,100 L466,100 C466,81.2202133 481.220413,66 500,66 L500,77.3333333 C487.48209,77.3333333 477.332728,87.48256 477.332728,100 Z M500,100 L489,100 C489,93.92272 493.922652,89 500,89 L500,100 Z" transform="rotate(-180 450 50)"/>
      <path fill="#FFF" d="M611.11121,700 L600,700 C600,644.772444 644.772242,600 700,600 L700,611.111111 C650.905694,611.111111 611.11121,650.905778 611.11121,700 Z M633.142985,700 L622,700 C622,656.921714 656.921644,622 700,622 L700,633.142857 C663.07799,633.142857 633.142985,663.07792 633.142985,700 Z M645,700 L656.000176,700 C656.000176,675.70056 675.700788,656 700,656 L700,645 C669.623343,645 645,669.62328 645,700 Z M677.332728,700 L666,700 C666,681.220213 681.220413,666 700,666 L700,677.333333 C687.48209,677.333333 677.332728,687.48256 677.332728,700 Z M700,700 L689,700 C689,693.92272 693.922652,689 700,689 L700,700 Z" transform="matrix(-1 0 0 1 1300 0)"/>
      <path fill="#261EE4" fill-rule="nonzero" d="M500 600L600 600 600 500C544.772242 500 500 544.772444 500 600zM700 700L800 700 800 600C744.772242 600 700 644.772444 700 700z"/>
      <path fill="#261EE4" d="M800,792.167111 L800,800 L792.16637,800 L700,707.833778 L700,700 L707.83274,700 L800,792.167111 Z M700,724 L700,739.631256 L760.369773,800 L776,800 L700,724 Z M700,770.721778 L700,755 L745,800 L729.27758,800 L700,770.721778 Z M700,800 L714,800 L700,786 L700,800 Z M724,700 L739.63093,700 L800,760.368744 L800,776 L724,700 Z M770.72242,700 L755,700 L800,745 L800,729.278222 L770.72242,700 Z M800,714 L786,700 L800,700 L800,714 Z"/>
      <path fill="#261EE4" d="M800,192.167111 L800,200 L792.16637,200 L700,107.833778 L700,100 L707.83274,100 L800,192.167111 Z M700,124 L700,139.631256 L760.369773,200 L776,200 L700,124 Z M700,170.721778 L700,155 L745,200 L729.27758,200 L700,170.721778 Z M700,200 L714,200 L700,186 L700,200 Z M724,100 L739.63093,100 L800,160.368744 L800,176 L724,100 Z M770.72242,100 L755,100 L800,145 L800,129.278222 L770.72242,100 Z M800,114 L786,100 L800,100 L800,114 Z" transform="rotate(90 750 150)"/>
      <path fill="#261EE4" d="M300,192.167111 L300,200 L292.16637,200 L200,107.833778 L200,100 L207.83274,100 L300,192.167111 Z M200,124 L200,139.631256 L260.369773,200 L276,200 L200,124 Z M200,170.721778 L200,155 L245,200 L229.27758,200 L200,170.721778 Z M200,200 L214,200 L200,186 L200,200 Z M224,100 L239.63093,100 L300,160.368744 L300,176 L224,100 Z M270.72242,100 L255,100 L300,145 L300,129.278222 L270.72242,100 Z M300,114 L286,100 L300,100 L300,114 Z" transform="rotate(90 250 150)"/>
    </g>
    <path fill="#FFF" d="M338.642578,544.014975 C340.966808,544.014975 342.988273,544.415361 344.707031,545.216147 C346.42579,546.016932 347.851557,547.115554 348.984375,548.512045 C350.117193,549.908536 350.966794,551.597973 351.533203,553.580404 C352.099612,555.562836 352.382812,557.716135 352.382812,560.040365 C352.382812,562.403658 352.099612,564.56184 351.533203,566.514975 C350.966794,568.468109 350.117193,570.14778 348.984375,571.554037 C347.851557,572.960294 346.420907,574.063799 344.692383,574.864584 C342.963859,575.665369 340.947277,576.065756 338.642578,576.065756 C336.318348,576.065756 334.296884,575.665369 332.578125,574.864584 C330.859366,574.063799 329.428717,572.960294 328.286133,571.554037 C327.143549,570.14778 326.293948,568.468109 325.737305,566.514975 C325.180661,564.56184 324.902344,562.403658 324.902344,560.040365 C324.902344,557.716135 325.180661,555.562836 325.737305,553.580404 C326.293948,551.597973 327.143549,549.908536 328.286133,548.512045 C329.428717,547.115554 330.859366,546.016932 332.578125,545.216147 C334.296884,544.415361 336.318348,544.014975 338.642578,544.014975 Z M238.242188,544.014975 C240.44923,544.014975 242.373039,544.39583 244.013672,545.157553 C245.654305,545.919275 247.011713,546.959304 248.085938,548.27767 C249.160162,549.596036 249.9707,551.143872 250.517578,552.921225 C251.064456,554.698577 251.337891,556.612621 251.337891,558.663412 L251.337891,561.534506 L230.742188,561.534506 L230.742188,564.786459 C230.742188,565.899746 230.952146,566.886064 231.37207,567.745443 C231.791994,568.604823 232.363278,569.332354 233.085938,569.928061 C233.808597,570.523767 234.619136,570.972981 235.517578,571.275717 C236.41602,571.578453 237.343745,571.729818 238.300781,571.729818 C240.214853,571.729818 241.874993,571.241542 243.28125,570.264975 C244.687507,569.288407 245.48828,567.735688 245.683594,565.606772 L251.103516,565.606772 C250.986328,567.247405 250.556644,568.707351 249.814453,569.986654 C249.072262,571.265958 248.110357,572.354814 246.928711,573.253256 C245.747064,574.151698 244.41407,574.84505 242.929688,575.333334 C241.445305,575.821618 239.882821,576.065756 238.242188,576.065756 C236.035145,576.065756 234.106454,575.665369 232.456055,574.864584 C230.805656,574.063799 229.428716,572.960294 228.325195,571.554037 C227.221674,570.14778 226.40137,568.468109 225.864258,566.514975 C225.327146,564.56184 225.058594,562.403658 225.058594,560.040365 C225.058594,557.716135 225.346677,555.562836 225.922852,553.580404 C226.499026,551.597973 227.358393,549.908536 228.500977,548.512045 C229.64356,547.115554 231.025383,546.016932 232.646484,545.216147 C234.267586,544.415361 236.132802,544.014975 238.242188,544.014975 Z M727.880859,534.522787 L727.880859,575.333334 L722.460938,575.333334 L722.460938,570.352865 C721.503901,572.188812 720.224617,573.599931 718.623047,574.586264 C717.021476,575.572597 715.087902,576.065756 712.822266,576.065756 C710.751943,576.065756 708.950203,575.645838 707.416992,574.80599 C705.883781,573.966142 704.60938,572.823576 703.59375,571.378256 C702.57812,569.932936 701.821292,568.238617 701.323242,566.295248 C700.825193,564.351879 700.576172,562.266939 700.576172,560.040365 C700.576172,557.833323 700.825193,555.748383 701.323242,553.785482 C701.821292,551.822582 702.568354,550.12338 703.564453,548.687826 C704.560552,547.252272 705.820305,546.114588 707.34375,545.27474 C708.867195,544.434892 710.644521,544.014975 712.675781,544.014975 C714.960949,544.014975 716.92382,544.503251 718.564453,545.479818 C720.205086,546.456386 721.503901,547.872387 722.460938,549.727865 L722.460938,534.522787 L727.880859,534.522787 Z M547.03125,544.014975 C549.35548,544.014975 551.376945,544.415361 553.095703,545.216147 C554.814462,546.016932 556.240229,547.115554 557.373047,548.512045 C558.505865,549.908536 559.355466,551.597973 559.921875,553.580404 C560.488284,555.562836 560.771484,557.716135 560.771484,560.040365 C560.771484,562.403658 560.488284,564.56184 559.921875,566.514975 C559.355466,568.468109 558.505865,570.14778 557.373047,571.554037 C556.240229,572.960294 554.809579,574.063799 553.081055,574.864584 C551.35253,575.665369 549.335949,576.065756 547.03125,576.065756 C544.70702,576.065756 542.685555,575.665369 540.966797,574.864584 C539.248038,574.063799 537.817389,572.960294 536.674805,571.554037 C535.532221,570.14778 534.68262,568.468109 534.125977,566.514975 C533.569333,564.56184 533.291016,562.403658 533.291016,560.040365 C533.291016,557.716135 533.569333,555.562836 534.125977,553.580404 C534.68262,551.597973 535.532221,549.908536 536.674805,548.512045 C537.817389,547.115554 539.248038,546.016932 540.966797,545.216147 C542.685555,544.415361 544.70702,544.014975 547.03125,544.014975 Z M574.248047,544.747397 L574.248047,564.522787 C574.248047,566.729829 574.67773,568.482742 575.537109,569.781576 C576.396489,571.080411 577.968739,571.729818 580.253906,571.729818 C582.539074,571.729818 584.350579,570.880217 585.688477,569.18099 C587.026374,567.481763 587.695312,565.294285 587.695312,562.61849 L587.695312,544.747397 L593.085938,544.747397 L593.085938,575.333334 L587.695312,575.333334 L587.695312,570.294272 C586.855465,572.091155 585.732429,573.502274 584.326172,574.52767 C582.919915,575.553066 581.064465,576.065756 578.759766,576.065756 C577.353509,576.065756 576.040045,575.865563 574.819336,575.46517 C573.598627,575.064777 572.548833,574.425135 571.669922,573.546225 C570.791011,572.667314 570.102542,571.534513 569.604492,570.147787 C569.106443,568.761061 568.857422,567.091156 568.857422,565.138022 L568.857422,544.747397 L574.248047,544.747397 Z M680.830078,544.014975 C683.03712,544.014975 684.960929,544.39583 686.601562,545.157553 C688.242196,545.919275 689.599604,546.959304 690.673828,548.27767 C691.748052,549.596036 692.558591,551.143872 693.105469,552.921225 C693.652346,554.698577 693.925781,556.612621 693.925781,558.663412 L693.925781,561.534506 L673.330078,561.534506 L673.330078,564.786459 C673.330078,565.899746 673.540037,566.886064 673.959961,567.745443 C674.379885,568.604823 674.951168,569.332354 675.673828,569.928061 C676.396488,570.523767 677.207027,570.972981 678.105469,571.275717 C679.003911,571.578453 679.931636,571.729818 680.888672,571.729818 C682.802744,571.729818 684.462884,571.241542 685.869141,570.264975 C687.275398,569.288407 688.076171,567.735688 688.271484,565.606772 L693.691406,565.606772 C693.574218,567.247405 693.144535,568.707351 692.402344,569.986654 C691.660153,571.265958 690.698248,572.354814 689.516602,573.253256 C688.334955,574.151698 687.001961,574.84505 685.517578,575.333334 C684.033196,575.821618 682.470711,576.065756 680.830078,576.065756 C678.623036,576.065756 676.694344,575.665369 675.043945,574.864584 C673.393546,574.063799 672.016607,572.960294 670.913086,571.554037 C669.809565,570.14778 668.98926,568.468109 668.452148,566.514975 C667.915036,564.56184 667.646484,562.403658 667.646484,560.040365 C667.646484,557.716135 667.934567,555.562836 668.510742,553.580404 C669.086917,551.597973 669.946283,549.908536 671.088867,548.512045 C672.231451,547.115554 673.613273,546.016932 675.234375,545.216147 C676.855477,544.415361 678.720693,544.014975 680.830078,544.014975 Z M648.808594,544.014975 C650.410164,544.014975 651.923821,544.224933 653.349609,544.644857 C654.775398,545.064781 656.025385,545.714189 657.099609,546.5931 C658.173833,547.47201 659.052731,548.590163 659.736328,549.947592 C660.419925,551.30502 660.839843,552.91145 660.996094,554.766928 L655.605469,554.766928 C655.488281,553.536453 655.229494,552.50619 654.829102,551.676107 C654.428709,550.846025 653.906253,550.181969 653.261719,549.68392 C652.617184,549.185871 651.88477,548.834312 651.064453,548.629232 C650.244137,548.424153 649.394536,548.321615 648.515625,548.321615 C647.597652,548.321615 646.718754,548.472981 645.878906,548.775717 C645.039058,549.078453 644.277347,549.53255 643.59375,550.138022 C642.910153,550.743493 642.368166,551.495439 641.967773,552.393881 C641.567381,553.292323 641.367188,554.337234 641.367188,555.528647 L641.367188,564.522787 C641.367188,565.597011 641.557615,566.588212 641.938477,567.49642 C642.319338,568.404628 642.841794,569.166339 643.505859,569.781576 C644.169925,570.396814 644.931636,570.875324 645.791016,571.217123 C646.650395,571.558922 647.57812,571.729818 648.574219,571.729818 C650.566416,571.729818 652.226556,571.192714 653.554688,570.11849 C654.882819,569.044266 655.64453,567.364595 655.839844,565.079428 L661.230469,565.079428 C661.035155,566.954437 660.556644,568.580397 659.794922,569.957357 C659.033199,571.334317 658.090826,572.476884 656.967773,573.385092 C655.844721,574.293299 654.575202,574.967121 653.15918,575.406576 C651.743157,575.846032 650.253914,576.065756 648.691406,576.065756 C646.445301,576.065756 644.51661,575.675135 642.905273,574.893881 C641.293937,574.112627 639.946294,573.009122 638.862305,571.583334 C637.778315,570.157546 636.977542,568.48764 636.459961,566.573568 C635.94238,564.659496 635.683594,562.559908 635.683594,560.27474 C635.683594,557.833322 635.971677,555.601899 636.547852,553.580404 C637.124026,551.55891 637.973627,549.849943 639.09668,548.453451 C640.219732,547.05696 641.601554,545.968104 643.242188,545.18685 C644.882821,544.405596 646.738271,544.014975 648.808594,544.014975 Z M406.113281,544.747397 L393.808594,558.223959 L406.962891,575.333334 L400.78125,575.333334 L387.568359,558.223959 L399.580078,544.747397 L406.113281,544.747397 Z M617.578125,544.014975 C619.062507,544.014975 620.41015,544.215168 621.621094,544.615561 C622.832037,545.015953 623.876949,545.655595 624.755859,546.534506 C625.63477,547.413417 626.318357,548.541335 626.806641,549.918295 C627.294924,551.295255 627.539062,552.970043 627.539062,554.942709 L627.539062,575.333334 L622.119141,575.333334 L622.119141,555.528647 C622.119141,553.282542 621.689457,551.519864 620.830078,550.240561 C619.970699,548.961257 618.378918,548.321615 616.054688,548.321615 C614.941401,548.321615 613.925786,548.54134 613.007812,548.980795 C612.089839,549.42025 611.289066,550.050127 610.605469,550.870443 C609.921872,551.69076 609.38965,552.66243 609.008789,553.785482 C608.627928,554.908535 608.4375,556.134109 608.4375,557.46224 L608.4375,575.333334 L603.046875,575.333334 L603.046875,544.747397 L608.4375,544.747397 L608.437344,549.784573 L608.609636,549.432226 C609.432381,547.80314 610.527337,546.510097 611.894531,545.553061 C613.359382,544.527665 615.253895,544.014975 617.578125,544.014975 Z M445.78125,534.522787 L459.931641,575.333334 L453.925781,575.333334 L450.585938,565.255209 L434.560547,565.255209 L431.191406,575.333334 L425.302734,575.333334 L439.423828,534.522787 L445.78125,534.522787 Z M387.509766,534.522787 L387.509766,575.333334 L382.119141,575.333334 L382.119141,534.522787 L387.509766,534.522787 Z M375.410156,544.747397 L375.410156,549.4056 L366.09375,549.4056 L366.09375,575.333334 L360.703125,575.333334 L360.703125,544.747397 L375.410156,544.747397 Z M284.0625,544.747397 L290.126953,568.682943 L290.361328,568.682943 L295.751953,544.747397 L302.314453,544.747397 L307.939453,568.682943 L308.173828,568.682943 L314.296875,544.747397 L319.570312,544.747397 L310.634766,575.333334 L304.951172,575.333334 L299.179688,550.548178 L298.945312,550.548178 L293.115234,575.333334 L287.548828,575.333334 L278.613281,544.747397 L284.0625,544.747397 Z M267.099609,534.522787 L267.099609,544.747397 L274.130859,544.747397 L274.130859,549.347006 L267.099609,549.347006 L267.099609,570.704428 L274.130859,570.704428 L274.130859,575.333334 L261.767578,575.333334 L261.767578,549.347006 L256.611328,549.347006 L256.611328,544.747397 L261.767578,544.747397 L261.767578,534.522787 L267.099609,534.522787 Z M193.564453,534.522787 L210.410156,568.419272 L210.673828,568.419272 L210.673828,534.522787 L216.181641,534.522787 L216.181641,575.333334 L208.154297,575.333334 L191.279297,541.261068 L191.044922,541.261068 L191.044922,575.333334 L185.507812,575.333334 L185.507812,534.522787 L193.564453,534.522787 Z M515.244141,544.014975 C516.728523,544.014975 518.076166,544.215168 519.287109,544.615561 C520.498053,545.015953 521.542964,545.655595 522.421875,546.534506 C523.300786,547.413417 523.984373,548.541335 524.472656,549.918295 C524.96094,551.295255 525.205078,552.970043 525.205078,554.942709 L525.205078,575.333334 L519.785156,575.333334 L519.785156,555.528647 C519.785156,553.282542 519.355473,551.519864 518.496094,550.240561 C517.636714,548.961257 516.044933,548.321615 513.720703,548.321615 C512.607416,548.321615 511.591801,548.54134 510.673828,548.980795 C509.755855,549.42025 508.955082,550.050127 508.271484,550.870443 C507.587887,551.69076 507.055666,552.66243 506.674805,553.785482 C506.293943,554.908535 506.103516,556.134109 506.103516,557.46224 L506.103516,575.333334 L500.712891,575.333334 L500.712891,544.747397 L506.103516,544.747397 L506.103344,549.784573 L506.275652,549.432226 C507.098397,547.80314 508.193353,546.510097 509.560547,545.553061 C511.025398,544.527665 512.91991,544.014975 515.244141,544.014975 Z M481.054688,544.014975 C482.53907,544.014975 483.886713,544.215168 485.097656,544.615561 C486.3086,545.015953 487.353511,545.655595 488.232422,546.534506 C489.111333,547.413417 489.794919,548.541335 490.283203,549.918295 C490.771487,551.295255 491.015625,552.970043 491.015625,554.942709 L491.015625,575.333334 L485.595703,575.333334 L485.595703,555.528647 C485.595703,553.282542 485.16602,551.519864 484.306641,550.240561 C483.447261,548.961257 481.85548,548.321615 479.53125,548.321615 C478.417963,548.321615 477.402348,548.54134 476.484375,548.980795 C475.566402,549.42025 474.765628,550.050127 474.082031,550.870443 C473.398434,551.69076 472.866213,552.66243 472.485352,553.785482 C472.10449,554.908535 471.914062,556.134109 471.914062,557.46224 L471.914062,575.333334 L466.523438,575.333334 L466.523438,544.747397 L471.914062,544.747397 L471.913344,549.784573 L472.086199,549.432226 C472.908944,547.80314 474.003899,546.510097 475.371094,545.553061 C476.835945,544.527665 478.730457,544.014975 481.054688,544.014975 Z M714.082031,548.321615 C712.968744,548.321615 711.938481,548.492512 710.991211,548.834311 C710.043941,549.176109 709.218754,549.649737 708.515625,550.255209 C707.812496,550.860681 707.260744,551.593095 706.860352,552.452475 C706.459959,553.311854 706.259766,554.25911 706.259766,555.294272 L706.259766,564.786459 C706.259766,565.82162 706.459959,566.768877 706.860352,567.628256 C707.260744,568.487635 707.812496,569.215167 708.515625,569.810873 C709.218754,570.406579 710.039058,570.875324 710.976562,571.217123 C711.914067,571.558922 712.949213,571.729818 714.082031,571.729818 C716.796889,571.729818 718.872063,570.870452 720.307617,569.151693 C721.743171,567.432935 722.460938,565.255222 722.460938,562.61849 L722.460938,557.46224 C722.460938,554.825508 721.743171,552.642913 720.307617,550.914389 C718.872063,549.185864 716.796889,548.321615 714.082031,548.321615 Z M338.642578,548.321615 C337.568354,548.321615 336.538091,548.492512 335.551758,548.834311 C334.565425,549.176109 333.710941,549.649737 332.988281,550.255209 C332.265621,550.860681 331.684573,551.593095 331.245117,552.452475 C330.805662,553.311854 330.585938,554.25911 330.585938,555.294272 L330.585938,564.786459 C330.585938,565.82162 330.805662,566.768877 331.245117,567.628256 C331.684573,568.487635 332.265621,569.215167 332.988281,569.810873 C333.710941,570.406579 334.560542,570.875324 335.537109,571.217123 C336.513677,571.558922 337.548823,571.729818 338.642578,571.729818 C339.716802,571.729818 340.742183,571.558922 341.71875,571.217123 C342.695317,570.875324 343.544918,570.406579 344.267578,569.810873 C344.990238,569.215167 345.571287,568.487635 346.010742,567.628256 C346.450198,566.768877 346.669922,565.82162 346.669922,564.786459 L346.669922,555.294272 C346.669922,554.25911 346.450198,553.311854 346.010742,552.452475 C345.571287,551.593095 344.990238,550.860681 344.267578,550.255209 C343.544918,549.649737 342.695317,549.176109 341.71875,548.834311 C340.742183,548.492512 339.716802,548.321615 338.642578,548.321615 Z M547.03125,548.321615 C545.957026,548.321615 544.926763,548.492512 543.94043,548.834311 C542.954097,549.176109 542.099613,549.649737 541.376953,550.255209 C540.654293,550.860681 540.073244,551.593095 539.633789,552.452475 C539.194334,553.311854 538.974609,554.25911 538.974609,555.294272 L538.974609,564.786459 C538.974609,565.82162 539.194334,566.768877 539.633789,567.628256 C540.073244,568.487635 540.654293,569.215167 541.376953,569.810873 C542.099613,570.406579 542.949214,570.875324 543.925781,571.217123 C544.902349,571.558922 545.937495,571.729818 547.03125,571.729818 C548.105474,571.729818 549.130854,571.558922 550.107422,571.217123 C551.083989,570.875324 551.93359,570.406579 552.65625,569.810873 C553.37891,569.215167 553.959959,568.487635 554.399414,567.628256 C554.838869,566.768877 555.058594,565.82162 555.058594,564.786459 L555.058594,555.294272 C555.058594,554.25911 554.838869,553.311854 554.399414,552.452475 C553.959959,551.593095 553.37891,550.860681 552.65625,550.255209 C551.93359,549.649737 551.083989,549.176109 550.107422,548.834311 C549.130854,548.492512 548.105474,548.321615 547.03125,548.321615 Z M442.705078,540.880209 L442.470703,540.880209 L436.054688,560.567709 L449.0625,560.567709 L442.705078,540.880209 Z M680.830078,548.321615 C679.833979,548.321615 678.886723,548.482746 677.988281,548.805014 C677.089839,549.127281 676.289066,549.600909 675.585938,550.225912 C674.882809,550.850915 674.331057,551.612626 673.930664,552.511068 C673.530271,553.40951 673.330078,554.41536 673.330078,555.528647 L673.330078,557.227865 L688.330078,557.227865 L688.330078,555.528647 C688.330078,554.41536 688.129885,553.40951 687.729492,552.511068 C687.3291,551.612626 686.78223,550.850915 686.088867,550.225912 C685.395504,549.600909 684.594731,549.127281 683.686523,548.805014 C682.778316,548.482746 681.826177,548.321615 680.830078,548.321615 Z M238.242188,548.321615 C237.246089,548.321615 236.298833,548.482746 235.400391,548.805014 C234.501949,549.127281 233.701175,549.600909 232.998047,550.225912 C232.294918,550.850915 231.743166,551.612626 231.342773,552.511068 C230.942381,553.40951 230.742188,554.41536 230.742188,555.528647 L230.742188,557.227865 L245.742188,557.227865 L245.742188,555.528647 C245.742188,554.41536 245.541994,553.40951 245.141602,552.511068 C244.741209,551.612626 244.194339,550.850915 243.500977,550.225912 C242.807614,549.600909 242.00684,549.127281 241.098633,548.805014 C240.190425,548.482746 239.238286,548.321615 238.242188,548.321615 Z M480.234375,432.029948 C484.296895,432.029948 487.851547,432.869784 490.898438,434.54948 C493.945328,436.229175 496.464834,438.504543 498.457031,441.375651 C500.449229,444.246759 501.923823,447.645163 502.880859,451.570964 C503.837895,455.496765 504.316406,459.666645 504.316406,464.08073 C504.316406,468.572939 503.837895,472.752585 502.880859,476.619792 C501.923823,480.486999 500.449229,483.865871 498.457031,486.756511 C496.464834,489.64715 493.945328,491.932284 490.898438,493.61198 C487.851547,495.291675 484.296895,496.131511 480.234375,496.131511 C476.171855,496.131511 472.656265,495.272144 469.6875,493.553386 C466.718735,491.834627 464.277353,489.451838 462.363281,486.404948 L462.363281,515.057292 L447.363281,515.057292 L447.363281,433.494792 L462.363281,433.494792 L462.363281,441.756511 C464.277353,438.709621 466.70897,436.326832 469.658203,434.608073 C472.607437,432.889315 476.132792,432.029948 480.234375,432.029948 Z M545.332031,432.029948 C549.902367,432.029948 553.964826,432.791659 557.519531,434.315105 C561.074237,435.83855 564.072253,438.016262 566.513672,440.848308 C568.95509,443.680353 570.810541,447.059225 572.080078,450.985026 C573.349616,454.910827 573.984375,459.276018 573.984375,464.08073 C573.984375,468.885441 573.349616,473.240866 572.080078,477.147136 C570.810541,481.053405 568.95509,484.432278 566.513672,487.283855 C564.072253,490.135431 561.074237,492.322909 557.519531,493.846355 C553.964826,495.3698 549.902367,496.131511 545.332031,496.131511 C540.761696,496.131511 536.699237,495.3698 533.144531,493.846355 C529.589826,492.322909 526.591809,490.135431 524.150391,487.283855 C521.708972,484.432278 519.843756,481.053405 518.554688,477.147136 C517.265619,473.240866 516.621094,468.885441 516.621094,464.08073 C516.621094,459.276018 517.265619,454.910827 518.554688,450.985026 C519.843756,447.059225 521.708972,443.680353 524.150391,440.848308 C526.591809,438.016262 529.589826,435.83855 533.144531,434.315105 C536.699237,432.791659 540.761696,432.029948 545.332031,432.029948 Z M403.359375,432.029948 C407.92971,432.029948 411.99217,432.791659 415.546875,434.315105 C419.10158,435.83855 422.099597,438.016262 424.541016,440.848308 C426.982434,443.680353 428.837884,447.059225 430.107422,450.985026 C431.376959,454.910827 432.011719,459.276018 432.011719,464.08073 C432.011719,468.885441 431.376959,473.240866 430.107422,477.147136 C428.837884,481.053405 426.982434,484.432278 424.541016,487.283855 C422.099597,490.135431 419.10158,492.322909 415.546875,493.846355 C411.99217,495.3698 407.92971,496.131511 403.359375,496.131511 C398.78904,496.131511 394.72658,495.3698 391.171875,493.846355 C387.61717,492.322909 384.619153,490.135431 382.177734,487.283855 C379.736316,484.432278 377.8711,481.053405 376.582031,477.147136 C375.292962,473.240866 374.648438,468.885441 374.648438,464.08073 C374.648438,459.276018 375.292962,454.910827 376.582031,450.985026 C377.8711,447.059225 379.736316,443.680353 382.177734,440.848308 C384.619153,438.016262 387.61717,435.83855 391.171875,434.315105 C394.72658,432.791659 398.78904,432.029948 403.359375,432.029948 Z M290.566406,432.029948 C293.769547,432.029948 296.835923,432.449866 299.765625,433.289714 C302.695327,434.129562 305.341785,435.447908 307.705078,437.244792 C310.068371,439.041676 311.982415,441.336575 313.447266,444.129558 C314.912117,446.92254 315.820311,450.252585 316.171875,454.119792 L301.171875,454.119792 C300.781248,450.213522 299.580088,447.498706 297.568359,445.975261 C295.556631,444.451816 293.027359,443.690105 289.980469,443.690105 C286.933579,443.690105 284.296886,444.666657 282.070312,446.619792 C279.843739,448.572927 278.730469,451.580709 278.730469,455.64323 L278.730469,472.459636 C278.730469,476.209654 279.785146,479.149078 281.894531,481.277995 C284.003917,483.406912 286.738264,484.471355 290.097656,484.471355 C293.457048,484.471355 296.103506,483.670581 298.037109,482.069011 C299.970713,480.46744 301.171873,477.635437 301.640625,473.572917 L316.640625,473.572917 C316.249998,477.401061 315.332038,480.711575 313.886719,483.504558 C312.441399,486.29754 310.556652,488.631501 308.232422,490.506511 C305.908192,492.38152 303.271499,493.787756 300.322266,494.725261 C297.373032,495.662765 294.218767,496.131511 290.859375,496.131511 C286.28904,496.131511 282.285173,495.350269 278.847656,493.787761 C275.410139,492.225253 272.509777,490.057306 270.146484,487.283855 C267.783191,484.510403 266.015631,481.190124 264.84375,477.322917 C263.671869,473.45571 263.085938,469.158878 263.085938,464.432292 C263.085938,459.393204 263.730462,454.871765 265.019531,450.867839 C266.3086,446.863913 268.154285,443.465509 270.556641,440.672526 C272.958996,437.879544 275.839827,435.740893 279.199219,434.256511 C282.558611,432.772128 286.347635,432.029948 290.566406,432.029948 Z M677.460938,432.029948 C684.414097,432.029948 690.117165,433.709619 694.570312,437.069011 C699.02346,440.428403 701.406248,445.506477 701.71875,452.303386 L686.71875,452.303386 C686.562499,449.412746 685.64454,447.254565 683.964844,445.828776 C682.285148,444.402988 680.117201,443.690105 677.460938,443.690105 C674.8828,443.690105 672.783211,444.24674 671.162109,445.360026 C669.541008,446.473313 668.730469,448.026032 668.730469,450.01823 C668.730469,452.010427 669.345697,453.485022 670.576172,454.442058 C671.806647,455.399094 673.417959,456.092446 675.410156,456.522136 L687.539062,459.158855 C689.765636,459.627607 691.884756,460.320959 693.896484,461.238933 C695.908213,462.156906 697.636712,463.338535 699.082031,464.783855 C700.527351,466.229174 701.669918,467.947907 702.509766,469.940105 C703.349614,471.932302 703.769531,474.29556 703.769531,477.029948 C703.769531,479.686212 703.203131,482.166655 702.070312,484.471355 C700.937494,486.776054 699.296886,488.787752 697.148438,490.506511 C694.999989,492.225269 692.343766,493.592443 689.179688,494.608073 C686.015609,495.623703 682.402364,496.131511 678.339844,496.131511 C670.17574,496.131511 663.86721,494.324888 659.414062,490.711589 C654.960915,487.09829 652.578127,481.932326 652.265625,475.213542 L667.265625,475.213542 C667.890628,481.385448 671.581997,484.471355 678.339844,484.471355 C681.230483,484.471355 683.691396,483.93425 685.722656,482.860026 C687.753916,481.785802 688.769531,480.076835 688.769531,477.733073 C688.769531,475.5065 687.929696,473.895188 686.25,472.899089 C684.570304,471.90299 682.363295,471.111982 679.628906,470.526042 L669.082031,468.240886 C658.847605,466.014312 653.730469,460.174527 653.730469,450.721355 C653.730469,448.065091 654.267573,445.604178 655.341797,443.338542 C656.416021,441.072906 657.96874,439.100269 660,437.420573 C662.03126,435.740877 664.511704,434.422531 667.441406,433.465495 C670.371108,432.508459 673.710919,432.029948 677.460938,432.029948 Z M604.335938,413.045573 L604.335938,494.666667 L589.335938,494.666667 L589.335938,413.045573 L604.335938,413.045573 Z M365.566406,433.494792 L365.566406,445.213542 L346.40625,445.213542 L346.40625,494.666667 L331.40625,494.666667 L331.40625,433.494792 L365.566406,433.494792 Z M637.792969,433.494792 L637.792969,494.666667 L622.792969,494.666667 L622.792969,433.494792 L637.792969,433.494792 Z M226.816406,413.045573 L254.53125,494.666667 L237.714844,494.666667 L232.324219,477.264323 L204.492188,477.264323 L199.21875,494.666667 L182.402344,494.666667 L210.234375,413.045573 L226.816406,413.045573 Z M476.132812,443.690105 C471.328101,443.690105 467.832042,445.125637 465.644531,447.996745 C463.45702,450.867853 462.363281,454.705705 462.363281,459.510417 L462.363281,468.651042 C462.363281,473.455754 463.45702,477.293606 465.644531,480.164714 C467.832042,483.035822 471.328101,484.471355 476.132812,484.471355 C480.039082,484.471355 483.115223,483.406912 485.361328,481.277995 C487.607433,479.149078 488.730469,476.287779 488.730469,472.694011 L488.730469,455.408855 C488.730469,451.815087 487.617199,448.963553 485.390625,446.854167 C483.164051,444.744781 480.078145,443.690105 476.132812,443.690105 Z M545.332031,443.690105 C541.582013,443.690105 538.466809,444.686188 535.986328,446.678386 C533.505847,448.670583 532.265625,451.502586 532.265625,455.17448 L532.265625,472.928386 C532.265625,476.600279 533.505847,479.442048 535.986328,481.453776 C538.466809,483.465505 541.582013,484.471355 545.332031,484.471355 C549.08205,484.471355 552.197253,483.494802 554.677734,481.541667 C557.158216,479.588532 558.398438,476.717467 558.398438,472.928386 L558.398438,455.17448 C558.398438,451.424461 557.158216,448.572927 554.677734,446.619792 C552.197253,444.666657 549.08205,443.690105 545.332031,443.690105 Z M403.359375,443.690105 C399.609356,443.690105 396.494153,444.686188 394.013672,446.678386 C391.533191,448.670583 390.292969,451.502586 390.292969,455.17448 L390.292969,472.928386 C390.292969,476.600279 391.533191,479.442048 394.013672,481.453776 C396.494153,483.465505 399.609356,484.471355 403.359375,484.471355 C407.109394,484.471355 410.224597,483.494802 412.705078,481.541667 C415.185559,479.588532 416.425781,476.717467 416.425781,472.928386 L416.425781,455.17448 C416.425781,451.424461 415.185559,448.572927 412.705078,446.619792 C410.224597,444.666657 407.109394,443.690105 403.359375,443.690105 Z M218.90625,431.912761 L218.378906,431.912761 L208.535156,464.08073 L228.339844,464.08073 L218.90625,431.912761 Z M638.027344,413.045573 L638.027344,426.404948 L622.558594,426.404948 L622.558594,413.045573 L638.027344,413.045573 Z"/>
  </g>
</svg>
