<svg xmlns="http://www.w3.org/2000/svg" width="1310" height="800" viewBox="0 0 1310 800">
  <g fill="none" fill-rule="evenodd">
    <rect width="1310" height="800" fill="#4038FF"/>
    <g transform="translate(910)">
      <path fill="#261EE4" d="M142.213523 346.680178L133.342349 346.680178 133.342349 355.551289 142.213523 355.551289 142.213523 364.444444 133.342349 364.444444 133.342349 373.3376 142.213523 373.3376 142.213523 382.208711 151.106762 382.208711 151.106762 391.101867 142.213523 391.101867 142.213523 382.230756 133.342349 382.230756 133.342349 391.101867 142.213523 391.101867 142.213523 400 133.320285 400 133.320285 391.106844 124.44911 391.106844 124.44911 382.235733 115.555872 382.235733 115.555872 391.106844 106.662633 391.106844 106.662633 382.235733 97.7914591 382.235733 97.7914591 391.106844 106.662633 391.106844 106.662633 400 97.7686833 400 97.7686833 391.106844 88.8982206 391.106844 88.8982206 400 80 400 80 391.106844 88.8932384 391.106844 88.8932384 382.235733 80 382.235733 80 373.341867 88.8932384 373.341867 88.8932384 364.448711 80 364.448711 80 355.555556 88.8932384 355.555556 88.8932384 346.684444 88.8932384 346.6624 97.7644128 346.6624 97.7644128 337.791289 106.657651 337.791289 106.657651 346.6624 115.55089 346.6624 115.55089 337.791289 124.44484 337.791289 124.44484 346.6624 133.316014 346.6624 133.316014 337.791289 142.209253 337.791289 142.209253 346.6624 151.102491 346.6624 151.102491 355.555556 142.209253 355.555556 142.209253 346.680178 142.213523 346.680178zM88.8932384 346.658133L88.8932384 337.786311 80 337.786311 80 346.680178 88.8932384 346.680178 88.8932384 346.658133zM115.55089 391.106844L115.55089 400 124.44484 400 124.44484 391.106844 115.55089 391.106844zM142.213523 373.341867L142.213523 364.448711 151.106762 364.448711 151.106762 373.341867 142.213523 373.341867zM97.7644128 382.213689L88.8932384 382.213689 88.8932384 373.341867 97.7644128 373.341867 97.7644128 382.213689zM97.7864769 337.786311L97.7864769 328.893156 106.657651 328.893156 106.657651 337.786311 115.55089 337.786311 115.55089 328.893156 124.44484 328.893156 124.44484 337.786311 133.338078 337.786311 133.338078 328.893156 142.209253 328.893156 142.209253 337.786311 151.102491 337.786311 151.102491 328.893156 142.209253 328.893156 142.209253 320 133.316014 320 133.316014 328.893156 124.44484 328.893156 124.44484 320 115.55089 320 115.55089 328.893156 106.657651 328.893156 106.657651 320 97.7644128 320 97.7644128 328.893156 88.8932384 328.893156 88.8932384 320 80 320 80 328.893156 88.8932384 328.893156 88.8932384 337.786311 97.7864769 337.786311zM133.316014 355.551289L133.316014 364.444444 124.44484 364.444444 124.44484 355.551289 133.316014 355.551289zM115.55089 355.551289L115.55089 346.680178 124.44484 346.680178 124.44484 355.551289 115.55089 355.551289zM106.657651 355.551289L115.55089 355.551289 115.55089 364.444444 106.657651 364.444444 106.657651 355.551289zM106.657651 355.551289L97.7864769 355.551289 97.7864769 346.680178 106.657651 346.680178 106.657651 355.551289zM106.657651 373.341867L97.7864769 373.341867 97.7864769 364.448711 106.657651 364.448711 106.657651 373.341867zM115.55089 373.341867L115.55089 382.213689 106.657651 382.213689 106.657651 373.341867 115.55089 373.341867zM124.44911 373.341867L115.555872 373.341867 115.555872 364.448711 124.44911 364.448711 124.44911 373.341867zM124.44911 373.341867L133.320285 373.341867 133.320285 382.213689 124.44911 382.213689 124.44911 373.341867zM97.7644128 364.448711L97.7644128 355.555556 88.8932384 355.555556 88.8932384 364.448711 97.7644128 364.448711zM160 391.106844L151.106762 391.106844 151.106762 400 160 400 160 391.106844zM151.106762 373.341867L160 373.341867 160 382.235733 151.106762 382.235733 151.106762 373.341867zM160 355.551289L151.106762 355.551289 151.106762 364.444444 160 364.444444 160 355.551289zM151.106762 337.786311L160 337.786311 160 346.680178 151.106762 346.680178 151.106762 337.786311zM151.106762 320L160 320 160 328.893156 151.106762 328.893156 151.106762 320zM382.213523 106.680178L373.342349 106.680178 373.342349 115.551289 382.213523 115.551289 382.213523 124.444444 373.342349 124.444444 373.342349 133.3376 382.213523 133.3376 382.213523 142.208711 391.106762 142.208711 391.106762 151.101867 382.213523 151.101867 382.213523 142.230756 373.342349 142.230756 373.342349 151.101867 382.213523 151.101867 382.213523 160 373.320285 160 373.320285 151.106844 364.44911 151.106844 364.44911 142.235733 355.555872 142.235733 355.555872 151.106844 346.662633 151.106844 346.662633 142.235733 337.791459 142.235733 337.791459 151.106844 346.662633 151.106844 346.662633 160 337.768683 160 337.768683 151.106844 328.898221 151.106844 328.898221 160 320 160 320 151.106844 328.893238 151.106844 328.893238 142.235733 320 142.235733 320 133.341867 328.893238 133.341867 328.893238 124.448711 320 124.448711 320 115.555556 328.893238 115.555556 328.893238 106.684444 328.893238 106.6624 337.764413 106.6624 337.764413 97.7912889 346.657651 97.7912889 346.657651 106.6624 355.55089 106.6624 355.55089 97.7912889 364.44484 97.7912889 364.44484 106.6624 373.316014 106.6624 373.316014 97.7912889 382.209253 97.7912889 382.209253 106.6624 391.102491 106.6624 391.102491 115.555556 382.209253 115.555556 382.209253 106.680178 382.213523 106.680178zM328.893238 106.658133L328.893238 97.7863111 320 97.7863111 320 106.680178 328.893238 106.680178 328.893238 106.658133zM355.55089 151.106844L355.55089 160 364.44484 160 364.44484 151.106844 355.55089 151.106844zM382.213523 133.341867L382.213523 124.448711 391.106762 124.448711 391.106762 133.341867 382.213523 133.341867zM337.764413 142.213689L328.893238 142.213689 328.893238 133.341867 337.764413 133.341867 337.764413 142.213689zM337.786477 97.7863111L337.786477 88.8931556 346.657651 88.8931556 346.657651 97.7863111 355.55089 97.7863111 355.55089 88.8931556 364.44484 88.8931556 364.44484 97.7863111 373.338078 97.7863111 373.338078 88.8931556 382.209253 88.8931556 382.209253 97.7863111 391.102491 97.7863111 391.102491 88.8931556 382.209253 88.8931556 382.209253 80 373.316014 80 373.316014 88.8931556 364.44484 88.8931556 364.44484 80 355.55089 80 355.55089 88.8931556 346.657651 88.8931556 346.657651 80 337.764413 80 337.764413 88.8931556 328.893238 88.8931556 328.893238 80 320 80 320 88.8931556 328.893238 88.8931556 328.893238 97.7863111 337.786477 97.7863111zM373.316014 115.551289L373.316014 124.444444 364.44484 124.444444 364.44484 115.551289 373.316014 115.551289zM355.55089 115.551289L355.55089 106.680178 364.44484 106.680178 364.44484 115.551289 355.55089 115.551289zM346.657651 115.551289L355.55089 115.551289 355.55089 124.444444 346.657651 124.444444 346.657651 115.551289zM346.657651 115.551289L337.786477 115.551289 337.786477 106.680178 346.657651 106.680178 346.657651 115.551289zM346.657651 133.341867L337.786477 133.341867 337.786477 124.448711 346.657651 124.448711 346.657651 133.341867zM355.55089 133.341867L355.55089 142.213689 346.657651 142.213689 346.657651 133.341867 355.55089 133.341867zM364.44911 133.341867L355.555872 133.341867 355.555872 124.448711 364.44911 124.448711 364.44911 133.341867zM364.44911 133.341867L373.320285 133.341867 373.320285 142.213689 364.44911 142.213689 364.44911 133.341867zM337.764413 124.448711L337.764413 115.555556 328.893238 115.555556 328.893238 124.448711 337.764413 124.448711zM400 151.106844L391.106762 151.106844 391.106762 160 400 160 400 151.106844zM391.106762 133.341867L400 133.341867 400 142.235733 391.106762 142.235733 391.106762 133.341867zM400 115.551289L391.106762 115.551289 391.106762 124.444444 400 124.444444 400 115.551289zM391.106762 97.7863111L400 97.7863111 400 106.680178 391.106762 106.680178 391.106762 97.7863111zM391.106762 80L400 80 400 88.8931556 391.106762 88.8931556 391.106762 80zM391.106762 480L400 480 400 400 391.106762 400 391.106762 480zM382.222064 480L373.333096 480 373.333096 400 382.222064 400 382.222064 480zM364.44484 480L355.555872 480 355.555872 400 364.44484 400 364.44484 480zM337.777936 480L346.666904 480 346.666904 400 337.777936 400 337.777936 480zM328.888968 480L320 480 320 400 328.888968 400 328.888968 480zM311.106762 80L320 80 320 0 311.106762 0 311.106762 80zM302.222064 80L293.333096 80 293.333096 0 302.222064 0 302.222064 80zM284.44484 80L275.555872 80 275.555872 0 284.44484 0 284.44484 80zM257.777936 80L266.666904 80 266.666904 0 257.777936 0 257.777936 80zM248.888968 80L240 80 240 0 248.888968 0 248.888968 80zM240 248.893156L240 240 160 240 160 248.893156 240 248.893156zM240 257.777778L240 266.666667 160 266.666667 160 257.777778 240 257.777778zM240 275.555556L240 284.444444 160 284.444444 160 275.555556 240 275.555556zM240 302.222222L240 293.333333 160 293.333333 160 302.222222 240 302.222222zM240 311.111111L240 320 160 320 160 311.111111 240 311.111111zM320 471.106702L320 480 240 480 240 471.106702 320 471.106702zM320 444.435556L320 435.542258 240 435.542258 240 444.435556 320 444.435556zM320 417.76448L320 426.657778 240 426.657778 240 417.76448 320 417.76448zM320 400L320 408.893369 240 408.893369 240 400 320 400zM320 462.213333L320 453.319964 240 453.319964 240 462.213333 320 462.213333z"/>
      <path fill="#FFF" d="M391.111032,480 L400,480 C400,524.182044 364.182206,560 320,560 L320,551.111111 C359.275445,551.111111 391.111032,519.275378 391.111032,480 Z M373.333096,480 L382.222064,480 C382.222064,514.364444 354.364413,542.222222 320,542.222222 L320,533.333333 C349.453381,533.333333 373.333096,509.453511 373.333096,480 Z M364.44484,480 L355.555872,480 C355.555872,499.6352 339.635587,515.555556 320,515.555556 L320,524.444444 C344.546619,524.444444 364.44484,504.546844 364.44484,480 Z M337.777936,480 L346.666904,480 C346.666904,494.728533 334.728826,506.666667 320,506.666667 L320,497.777778 C329.817794,497.777778 337.777936,489.8176 337.777936,480 Z M320,480 L328.888968,480 C328.888968,484.910933 324.911032,488.888889 320,488.888889 L320,480 Z"/>
      <path fill="#261EE4" d="M8.88896797,560 L0,560 C0,515.817956 35.8177936,480 80,480 L80,488.888889 C40.7245552,488.888889 8.88896797,520.724622 8.88896797,560 Z M26.6669039,560 L17.7779359,560 C17.7779359,525.635556 45.6355872,497.777778 80,497.777778 L80,506.666667 C50.5466192,506.666667 26.6669039,530.546489 26.6669039,560 Z M35.5558719,560 L44.4448399,560 C44.4448399,540.364089 60.3644128,524.444444 80,524.444444 L80,515.555556 C55.4533808,515.555556 35.5558719,535.453156 35.5558719,560 Z M62.2220641,560 L53.3338078,560 C53.3338078,545.270756 65.2711744,533.333333 80,533.333333 L80,542.222222 C70.1822064,542.222222 62.2220641,550.1824 62.2220641,560 Z M80,560 L71.111032,560 C71.111032,555.089067 75.088968,551.111111 80,551.111111 L80,560 Z"/>
      <path fill="#FFF" d="M8.88896797,240 L0,240 C0,195.817956 35.8177936,160 80,160 L80,168.888889 C40.7245552,168.888889 8.88896797,200.724622 8.88896797,240 Z M26.6669039,240 L17.7779359,240 C17.7779359,205.635556 45.6355872,177.777778 80,177.777778 L80,186.666667 C50.5466192,186.666667 26.6669039,210.546489 26.6669039,240 Z M35.5558719,240 L44.4448399,240 C44.4448399,220.364089 60.3644128,204.444444 80,204.444444 L80,195.555556 C55.4533808,195.555556 35.5558719,215.453156 35.5558719,240 Z M62.2220641,240 L53.3338078,240 C53.3338078,225.270756 65.2711744,213.333333 80,213.333333 L80,222.222222 C70.1822064,222.222222 62.2220641,230.1824 62.2220641,240 Z M80,240 L71.111032,240 C71.111032,235.089067 75.088968,231.111111 80,231.111111 L80,240 Z"/>
      <path fill="#FFF" d="M248.888968,240 L240,240 C240,195.817956 275.817794,160 320,160 L320,168.888889 C280.724555,168.888889 248.888968,200.724622 248.888968,240 Z M266.666904,240 L257.777936,240 C257.777936,205.635556 285.635587,177.777778 320,177.777778 L320,186.666667 C290.546619,186.666667 266.666904,210.546489 266.666904,240 Z M275.555872,240 L284.44484,240 C284.44484,220.364089 300.364413,204.444444 320,204.444444 L320,195.555556 C295.453381,195.555556 275.555872,215.453156 275.555872,240 Z M302.222064,240 L293.333808,240 C293.333808,225.270756 305.271174,213.333333 320,213.333333 L320,222.222222 C310.182206,222.222222 302.222064,230.1824 302.222064,240 Z M320,240 L311.111032,240 C311.111032,235.089067 315.088968,231.111111 320,231.111111 L320,240 Z" transform="rotate(-90 280 200)"/>
      <path fill="#261EE4" d="M88.888968,160 L80,160 C80,115.817956 115.817794,80 160,80 L160,88.8888889 C120.724555,88.8888889 88.888968,120.724622 88.888968,160 Z M106.666904,160 L97.7779359,160 C97.7779359,125.635556 125.635587,97.7777778 160,97.7777778 L160,106.666667 C130.546619,106.666667 106.666904,130.546489 106.666904,160 Z M115.555872,160 L124.44484,160 C124.44484,140.364089 140.364413,124.444444 160,124.444444 L160,115.555556 C135.453381,115.555556 115.555872,135.453156 115.555872,160 Z M142.222064,160 L133.333808,160 C133.333808,145.270756 145.271174,133.333333 160,133.333333 L160,142.222222 C150.182206,142.222222 142.222064,150.1824 142.222064,160 Z M160,160 L151.111032,160 C151.111032,155.089067 155.088968,151.111111 160,151.111111 L160,160 Z" transform="rotate(-180 120 120)"/>
      <path fill="#FFF" d="M168.888968,720 L160,720 C160,675.817956 195.817794,640 240,640 L240,648.888889 C200.724555,648.888889 168.888968,680.724622 168.888968,720 Z M186.666904,720 L177.777936,720 C177.777936,685.635556 205.635587,657.777778 240,657.777778 L240,666.666667 C210.546619,666.666667 186.666904,690.546489 186.666904,720 Z M195.555872,720 L204.44484,720 C204.44484,700.364089 220.364413,684.444444 240,684.444444 L240,675.555556 C215.453381,675.555556 195.555872,695.453156 195.555872,720 Z M222.222064,720 L213.333808,720 C213.333808,705.270756 225.271174,693.333333 240,693.333333 L240,702.222222 C230.182206,702.222222 222.222064,710.1824 222.222064,720 Z M240,720 L231.111032,720 C231.111032,715.089067 235.088968,711.111111 240,711.111111 L240,720 Z" transform="matrix(-1 0 0 1 400 0)"/>
      <path fill="#261EE4" fill-rule="nonzero" d="M80 640L160 640 160 560C115.817794 560 80 595.817956 80 640zM320 720L400 720 400 640C355.817794 640 320 675.817956 320 720z"/>
      <path fill="#261EE4" d="M400,793.733689 L400,800 L393.733096,800 L320,726.267022 L320,720 L326.266192,720 L400,793.733689 Z M320,738.844444 L320,751.422578 L368.577936,800 L381.15516,800 L320,738.844444 Z M320,776.577422 L320,764 L356,800 L343.422064,800 L320,776.577422 Z M320,800 L330.844128,800 L320,789.155556 L320,800 Z M338.844128,720 L351.422064,720 L400,768.577422 L400,781.155556 L338.844128,720 Z M376.577936,720 L364,720 L400,756 L400,743.422578 L376.577936,720 Z M400,730.844444 L389.15516,720 L400,720 L400,730.844444 Z"/>
      <path fill="#261EE4" d="M400,313.733689 L400,320 L393.733096,320 L320,246.267022 L320,240 L326.266192,240 L400,313.733689 Z M320,258.844444 L320,271.422578 L368.577936,320 L381.15516,320 L320,258.844444 Z M320,296.577422 L320,284 L356,320 L343.422064,320 L320,296.577422 Z M320,320 L330.844128,320 L320,309.155556 L320,320 Z M338.844128,240 L351.422064,240 L400,288.577422 L400,301.155556 L338.844128,240 Z M376.577936,240 L364,240 L400,276 L400,263.422578 L376.577936,240 Z M400,250.844444 L389.15516,240 L400,240 L400,250.844444 Z" transform="rotate(90 360 280)"/>
    </g>
    <g fill="#FFF" fill-rule="nonzero" transform="translate(180 200)">
      <path d="M41.36675 36.3L41.36675 33.1 46.4 33.1 46.4 12.7 49.93325 12.7 49.93325 33.36675C49.93325 34.96675 48.63325 36.3 47 36.3L41.36675 36.3zM54.53325 27.66675C52.83325 25.96675 51.96675 23.83325 51.96675 21.3 51.96675 18.76675 52.83325 16.63325 54.53325 14.93325 56.23325 13.23325 58.36675 12.36675 60.9 12.36675 63.43325 12.36675 65.53325 13.23325 67.26675 14.93325 68.96675 16.63325 69.83325 18.76675 69.83325 21.3 69.83325 23.83325 68.96675 25.96675 67.26675 27.66675 65.56675 29.36675 63.43325 30.23325 60.9 30.23325 58.33325 30.23325 56.23325 29.36675 54.53325 27.66675zM57.1 17.1C56.13325 18.13325 55.66675 19.53325 55.66675 21.26675 55.66675 23 56.13325 24.4 57.1 25.43325 58.06675 26.46675 59.33325 27 60.86675 27 62.4 27 63.66675 26.46675 64.63325 25.43325 65.6 24.4 66.06675 23 66.06675 21.26675 66.06675 19.53325 65.6 18.13325 64.63325 17.1 63.66675 16.06675 62.4 15.53325 60.86675 15.53325 59.33325 15.56675 58.06675 16.06675 57.1 17.1zM70.1 12.7L73.8 12.7 77.5 26.53325 79.33325 26.53325 83.36675 12.7 87.06675 12.7 80 36.3 76.3 36.3 78.3 29.9 77 29.9C75.7 29.9 74.53325 29.03325 74.2 27.76675L70.1 12.7zM86.73325 24.5L90.6 24.5C90.63325 24.56675 90.66675 24.66675 90.73325 24.76675 90.8 24.86675 90.93325 25.06675 91.13325 25.36675 91.33325 25.66675 91.6 25.93325 91.86675 26.13325 92.13325 26.36675 92.56675 26.56675 93.06675 26.73325 93.6 26.9 94.16675 27 94.8 27 96.03325 27 96.93325 26.8 97.5 26.43325 98.06675 26.06675 98.33325 25.56675 98.33325 25 98.33325 24.46675 97.96675 24.03325 97.23325 23.73325 96.5 23.43325 95.6 23.16675 94.53325 22.96675 93.46675 22.76675 92.43325 22.5 91.36675 22.16675 90.3 21.83325 89.43325 21.3 88.66675 20.5 87.93325 19.7 87.56675 18.7 87.56675 17.43325 87.56675 16.1 88.16675 14.9 89.4 13.9 90.63325 12.9 92.26675 12.4 94.26675 12.4 95.53325 12.4 96.63325 12.6 97.63325 12.96675 98.63325 13.33325 99.36675 13.8 99.86675 14.3 100.36675 14.83325 100.76675 15.36675 101.1 15.9 101.43325 16.43325 101.63325 16.86675 101.73325 17.26675L101.86675 17.8 98.16675 17.8C98.13325 17.73325 98.1 17.66675 98.06675 17.56675 98.03325 17.46675 97.9 17.3 97.7 17.03325 97.5 16.76675 97.3 16.56675 97.03325 16.36675 96.76675 16.16675 96.4 16 95.93325 15.83325 95.46675 15.66675 94.9 15.6 94.3 15.6 93.3 15.6 92.56675 15.76675 92.03325 16.13325 91.53325 16.5 91.26675 16.93325 91.26675 17.46675 91.26675 17.9 91.53325 18.3 92.06675 18.6 92.6 18.9 93.26675 19.13325 94.06675 19.26675 94.86675 19.4 95.73325 19.6 96.66675 19.86675 97.6 20.13325 98.43325 20.43325 99.26675 20.76675 100.06675 21.1 100.73325 21.63325 101.26675 22.36675 101.8 23.1 102.06675 24 102.06675 25.03325 102.06675 26.46675 101.43325 27.7 100.13325 28.73325 98.83325 29.76675 97.06675 30.26675 94.83325 30.26675 93.5 30.26675 92.33325 30.06675 91.3 29.66675 90.26675 29.26675 89.46675 28.8 88.93325 28.23325 88.4 27.66675 87.96675 27.1 87.6 26.53325 87.26675 25.96675 87.03325 25.5 86.93325 25.13325L86.73325 24.5zM102.7 15.9L102.7 12.7 104.7 12.7 104.7 9 108.23325 9 108.23325 12.7 113.46675 12.7 113.46675 15.9 108.26675 15.9 108.26675 26.7 113.63325 26.7 113.63325 29.9 107.63325 29.9C106.03325 29.9 104.7 28.6 104.7 26.96675L104.7 15.9 102.7 15.9zM119.16675 15.9L119.16675 29.9 115.63325 29.9 115.63325 15.26675C115.63325 13.86675 116.76675 12.7 118.2 12.7L119.16675 12.7 126.06675 12.7 126.06675 15.9 119.16675 15.9zM128.46675 27.66675C126.8 25.93325 125.93325 23.8 125.93325 21.3 125.93325 18.8 126.8 16.66675 128.46675 14.93325 130.16675 13.2 132.23325 12.36675 134.66675 12.36675 137.1 12.36675 139.16675 13.23325 140.86675 14.93325 142.56675 16.66675 143.4 18.76675 143.4 21.3L143.4 22.46675 129.46675 22.46675C129.7 23.86675 130.33325 24.96675 131.26675 25.8 132.23325 26.63325 133.36675 27.03325 134.66675 27.03325 135.73325 27.03325 136.63325 26.83325 137.46675 26.43325 138.26675 26.03325 138.83325 25.63325 139.1 25.23325L139.53325 24.66675 143.23325 24.66675C143.2 24.83325 143.1 25.03325 143 25.26675 142.9 25.5 142.6 25.96675 142.13325 26.6 141.66675 27.23325 141.16675 27.8 140.56675 28.3 140 28.76675 139.16675 29.23325 138.1 29.63325 137.03325 30.03325 135.9 30.23325 134.63325 30.23325 132.23325 30.23325 130.16675 29.36675 128.46675 27.66675zM130.1 19.6L140.16675 19.6C140 18.5 139.46675 17.53325 138.56675 16.76675 137.66675 15.96675 136.53325 15.56675 135.13325 15.56675 133.93325 15.56675 132.83325 15.93325 131.9 16.66675 130.96675 17.4 130.36675 18.36675 130.1 19.6zM146.7 27.76675C145.16675 26.1 144.4 23.93325 144.4 21.3 144.4 18.66675 145.16675 16.5 146.7 14.83325 148.23325 13.16675 150.16675 12.36675 152.46675 12.36675 153.53325 12.36675 154.5 12.56675 155.4 13 156.3 13.43325 156.93325 13.83325 157.3 14.23325L157.83325 14.86675 158 14.86675 158 12.66675 161.53325 12.66675 161.53325 29.86675 158 29.86675 158 27.5 157.83325 27.5C157.8 27.56675 157.7 27.66675 157.6 27.8 157.5 27.93325 157.26675 28.13325 156.93325 28.46675 156.6 28.76675 156.23325 29.06675 155.86675 29.3 155.5 29.53325 154.96675 29.73325 154.36675 29.93325 153.73325 30.13325 153.1 30.23325 152.46675 30.23325 150.2 30.23325 148.26675 29.4 146.7 27.76675zM164.6 29.9L164.6 12.7 168.13325 12.7 168.13325 15.06675 168.3 15.06675C168.33325 15 168.4 14.9 168.46675 14.76675 168.53325 14.63325 168.7 14.43325 169 14.1 169.3 13.8 169.6 13.5 169.96675 13.26675 170.3 13.03325 170.8 12.83325 171.4 12.63325 172 12.43325 172.66675 12.33325 173.33325 12.33325 174.13325 12.33325 174.9 12.43325 175.56675 12.66675 176.26675 12.9 176.8 13.16675 177.16675 13.46675 177.56675 13.76675 177.9 14.1 178.16675 14.4 178.43325 14.7 178.6 14.96675 178.7 15.2L178.86675 15.53325 179.03325 15.53325C179.06675 15.43325 179.13325 15.33325 179.23325 15.16675 179.3 15.03325 179.53325 14.76675 179.86675 14.4 180.2 14.03325 180.56675 13.73325 180.96675 13.43325 181.36675 13.16675 181.93325 12.9 182.63325 12.66675 183.36675 12.43325 184.1 12.3 184.93325 12.3 186.9 12.3 188.46675 12.93325 189.6 14.2 190.73325 15.46675 191.3 17.23325 191.3 19.56675L191.3 29.83325 187.76675 29.83325 187.76675 19.76675C187.76675 16.96675 186.53325 15.56675 184.06675 15.56675 182.86675 15.56675 181.83325 16.03325 180.96675 16.93325 180.1 17.86675 179.7 19.03325 179.7 20.43325L179.7 29.86675 176.16675 29.86675 176.16675 19.76675C176.16675 16.96675 174.93325 15.56675 172.46675 15.56675 171.26675 15.56675 170.23325 16.03325 169.36675 16.93325 168.5 17.86675 168.1 19.03325 168.1 20.43325L168.1 29.86675 164.6 29.86675 164.6 29.9zM46.43325 6.13325L46.43325 9.66675 49.96675 9.66675 49.96675 6.13325 46.43325 6.13325zM149.06675 17.1C148.1 18.13325 147.63325 19.53325 147.63325 21.26675 147.63325 23 148.1 24.4 149.06675 25.43325 150.03325 26.46675 151.3 27 152.83325 27 154.36675 27 155.63325 26.46675 156.6 25.43325 157.56675 24.4 158.03325 23 158.03325 21.26675 158.03325 19.53325 157.56675 18.13325 156.6 17.1 155.63325 16.06675 154.36675 15.53325 152.83325 15.53325 151.3 15.56675 150.03325 16.06675 149.06675 17.1zM28.06675 2.7000624e-13L31.7 2.7000624e-13 31.7 10.43325C31.7 14.6 30.13325 18.43325 27.56675 21.33325 27.9 19.93325 28.06675 18.5 28.06675 17L28.06675 2.7000624e-13zM9.8 29.7665C9.7 29.8665 9.63325 29.9665 9.53325 30.0665 9.5 30.1 9.46675 30.13325 9.43325 30.1665 9.33325 30.2665 9.26675 30.3665 9.16675 30.43325 9.13325 30.4665 9.06675 30.53325 9.03325 30.5665 8.93325 30.6665 8.83325 30.7665 8.7 30.8665 8.56675 31 8.43325 31.1 8.3 31.23325 8.16675 31.3665 8.03325 31.4665 7.86675 31.5665 7.73325 31.6665 7.6 31.7665 7.46675 31.8665 7.13325 32.0665 6.8 32.2665 6.46675 32.43325 6.4 32.4665 6.33325 32.5 6.23325 32.53325 6.13325 32.5665 6.06675 32.6 6 32.63325 5.9 32.6665 5.83325 32.7 5.73325 32.73325 5.56675 32.8 5.4 32.8665 5.2 32.93325 5.2 32.93325 5.2 32.93325 5.16675 32.93325 5 33 4.83325 33.03325 4.66675 33.0665L4.63325 33.0665C4.46675 33.1 4.3 33.1665 4.13325 33.2 3.93325 33.23325 3.7 33.3 3.5 33.3 3.43325 33.3 3.36675 33.33325 3.3 33.33325L3.26675 33.33325C3.06675 33.3665 2.9 33.3665 2.7 33.3665 2.6 33.3665 2.5 33.3665 2.4 33.3665 2.3 33.3665 2.2 33.3665 2.1 33.3665L1.96675 33.3665 3.06675 29.73325 9.8 29.73325 9.8 29.7665zM25.13325-7.10542736e-15L25.13325 17C25.13325 17.26675 25.13325 17.56675 25.1 17.83325 25.1 17.96675 25.1 18.1 25.06675 18.23325 25.06675 18.36675 25.03325 18.5 25.03325 18.63325 25.03325 18.76675 25 18.9 25 19.03325 25 19.13325 24.96675 19.26675 24.96675 19.36675L24.96675 19.4C24.96675 19.43325 24.96675 19.46675 24.96675 19.46675 24.93325 19.6 24.93325 19.73325 24.9 19.83325 24.86675 19.96675 24.86675 20.1 24.83325 20.2L24.83325 20.23325C24.8 20.33325 24.8 20.43325 24.76675 20.53325 24.76675 20.56675 24.76675 20.56675 24.76675 20.6 24.66675 21 24.56675 21.43325 24.43325 21.83325 24.4 21.93325 24.36675 22.06675 24.33325 22.16675 24.3 22.3 24.26675 22.4 24.2 22.53325 24.16675 22.66675 24.1 22.76675 24.06675 22.86675 24.03325 23 23.96675 23.1 23.93325 23.2 23.9 23.33325 23.83325 23.43325 23.8 23.53325 23.76675 23.63325 23.7 23.76675 23.63325 23.86675 23.6 23.96675 23.53325 24.1 23.46675 24.2 23.4 24.3 23.36675 24.43325 23.3 24.53325 23.26675 24.63325 23.2 24.7 23.16675 24.8 23.06675 25 22.96675 25.16675 22.83325 25.36675 22.73325 25.53325 22.63325 25.7 22.53325 25.83325 22.46675 25.96675 22.4 26.06675 22.3 26.16675 22.26675 26.23325 22.2 26.3 22.16675 26.33325 22.06675 26.46675 22 26.56675 21.9 26.66675 21.8 26.8 21.7 26.9 21.63325 27.03325 21.43325 27.26675 21.23325 27.5 21.03325 27.73325 21.06675 27.6 21.1 27.46675 21.13325 27.33325 21.16675 27.23325 21.16675 27.13325 21.2 27.03325 21.2 27.03325 21.2 27.03325 21.2 27 21.2 26.96675 21.2 26.96675 21.2 26.93325 21.23325 26.8 21.23325 26.66675 21.26675 26.53325 21.3 26.36675 21.33325 26.2 21.33325 26.06675 21.33325 25.96675 21.36675 25.86675 21.36675 25.8 21.36675 25.7 21.4 25.63325 21.4 25.53325 21.43325 25.36675 21.43325 25.2 21.46675 25 21.46675 24.96675 21.46675 24.96675 21.46675 24.93325 21.46675 24.9 21.46675 24.9 21.46675 24.86675 21.46675 24.73325 21.5 24.63325 21.5 24.5 21.5 24.4 21.5 24.3 21.5 24.2L21.5 24.33325C21.5 24.23325 21.5 24.13325 21.5 24.03325 21.5 23.86675 21.5 23.73325 21.5 23.56675L21.5-7.10542736e-15 25.13325-7.10542736e-15z"/>
      <path d="M18.56675,0 L18.56675,23.56675 C18.56675,24.13325 18.53325,24.66675 18.5,25.2 C18.46675,25.66675 18.4,26.1 18.3,26.56675 C18.1,27.63325 17.8,28.66675 17.4,29.63325 C17.16675,30.23325 16.86675,30.83325 16.56675,31.4 C15.63325,33.06675 14.43325,34.56675 13.03325,35.83325 C10.13325,38.43325 6.3,40 2.13325,40 L-9.23705556e-14,40 L1.1,36.36675 L2.16675,36.36675 C5.3,36.36675 8.16675,35.23325 10.36675,33.36675 C11.56675,32.36675 12.56675,31.16675 13.3,29.8 C13.5,29.46675 13.66675,29.1 13.83325,28.73325 C14.1,28.13325 14.3,27.53325 14.46675,26.9 C14.66675,26.2 14.8,25.46675 14.83325,24.73325 C14.86675,24.36675 14.86675,24 14.86675,23.63325 L14.86675,0 L18.56675,0 Z"/>
      <path d="M12,23.2 L12,23.56675 C12,23.86675 12,24.16675 11.96675,24.4335 C11.9,25 11.83325,25.56675 11.66675,26.1 C11.6,26.36675 11.53325,26.6335 11.43325,26.86675 L3.93325,26.86675 L5.03325,23.2335 L12,23.2335 L12,23.2 Z"/>
    </g>
    <path fill="#FFF" d="M603.486328,528.461914 C606.152357,528.461914 608.442373,529.03157 610.356445,530.170898 C612.270517,531.310227 613.785802,532.962229 614.902344,535.126953 L614.902344,529.316406 L621.225586,529.316406 L621.225586,564.316406 C621.225586,566.800143 620.781254,568.936352 619.892578,570.725098 C619.003902,572.513844 617.836107,574.000645 616.38916,575.185547 C614.942213,576.370449 613.295908,577.242022 611.450195,577.800293 C609.604483,578.358564 607.724619,578.637695 605.810547,578.637695 C603.942048,578.637695 602.159025,578.455405 600.461426,578.09082 C598.763826,577.726235 597.225756,577.111007 595.847168,576.245117 C594.46858,575.379227 593.323572,574.234219 592.412109,572.810059 C591.500646,571.385898 590.908204,569.602875 590.634766,567.460938 L596.923828,567.460938 C597.151694,569.511729 598.023267,571.0498 599.538574,572.075195 C601.053881,573.100591 603.053373,573.613281 605.537109,573.613281 C606.744798,573.613281 607.918289,573.436688 609.057617,573.083496 C610.196946,572.730304 611.19954,572.172042 612.06543,571.408691 C612.931319,570.645341 613.620603,569.65414 614.133301,568.435059 C614.645999,567.215977 614.902344,565.740569 614.902344,564.008789 L614.902344,559.189453 C613.785802,561.331391 612.293304,562.977696 610.424805,564.128418 C608.556306,565.27914 606.300469,565.854492 603.657227,565.854492 C601.24185,565.854492 599.13982,565.364588 597.351074,564.384766 C595.562328,563.404943 594.075527,562.071949 592.890625,560.385742 C591.705723,558.699536 590.822757,556.72283 590.241699,554.455566 C589.660642,552.188302 589.370117,549.755872 589.370117,547.158203 C589.370117,544.58332 589.660642,542.15089 590.241699,539.86084 C590.822757,537.570789 591.69433,535.588387 592.856445,533.913574 C594.01856,532.238761 595.488272,530.911463 597.265625,529.931641 C599.042978,528.951818 601.116525,528.461914 603.486328,528.461914 Z M521.796875,517.387695 L521.796875,565 L515.473633,565 L515.473633,559.189453 C514.357091,561.331391 512.864593,562.977696 510.996094,564.128418 C509.127595,565.27914 506.871758,565.854492 504.228516,565.854492 C501.813139,565.854492 499.711109,565.364588 497.922363,564.384766 C496.133617,563.404943 494.646816,562.071949 493.461914,560.385742 C492.277012,558.699536 491.394046,556.72283 490.812988,554.455566 C490.231931,552.188302 489.941406,549.755872 489.941406,547.158203 C489.941406,544.58332 490.231931,542.15089 490.812988,539.86084 C491.394046,537.570789 492.265619,535.588387 493.427734,533.913574 C494.58985,532.238761 496.059561,530.911463 497.836914,529.931641 C499.614267,528.951818 501.687814,528.461914 504.057617,528.461914 C506.723646,528.461914 509.013662,529.03157 510.927734,530.170898 C512.841806,531.310227 514.357091,532.962229 515.473633,535.126953 L515.473633,517.387695 L521.796875,517.387695 Z M425.991211,528.461914 C427.905283,528.461914 429.688306,528.706866 431.340332,529.196777 C432.992359,529.686689 434.427891,530.421545 435.646973,531.401367 C436.866054,532.38119 437.811683,533.640129 438.483887,535.178223 C439.156091,536.716316 439.492188,538.533518 439.492188,540.629883 L439.492188,559.599609 L444.824219,559.599609 L444.824219,565 L434.160156,565 L434.023438,558.40332 L433.75,558.40332 C432.770177,560.93263 431.323252,562.806797 429.40918,564.025879 C427.495108,565.244961 425.205091,565.854492 422.539062,565.854492 C420.76171,565.854492 419.155281,565.581057 417.719727,565.03418 C416.284173,564.487302 415.042323,563.678391 413.994141,562.607422 C413.059891,561.673172 412.336428,560.556647 411.82373,559.257812 C411.311033,557.958978 411.054688,556.603197 411.054688,555.19043 C411.054688,552.387681 411.94335,549.983734 413.720703,547.978516 C415.498056,545.973297 418.164045,544.8112 421.71875,544.492188 L433.339844,543.432617 L433.339844,540.561523 C433.339844,539.171543 433.16325,538.020838 432.810059,537.109375 C432.456867,536.197912 431.95557,535.474449 431.306152,534.938965 C430.656735,534.40348 429.876307,534.027508 428.964844,533.811035 C428.053381,533.594563 427.039394,533.486328 425.922852,533.486328 C423.689767,533.486328 421.906745,533.987625 420.57373,534.990234 C419.240716,535.992844 418.574219,537.644845 418.574219,539.946289 L412.250977,539.946289 C412.250977,538.260083 412.615556,536.716316 413.344727,535.314941 C414.073897,533.913567 415.053705,532.7002 416.28418,531.674805 C417.514655,530.649409 418.96158,529.857587 420.625,529.299316 C422.28842,528.741045 424.077139,528.461914 425.991211,528.461914 Z M247.949219,528.461914 C250.524101,528.461914 252.768545,528.906246 254.682617,529.794922 C256.596689,530.683598 258.180332,531.896965 259.433594,533.435059 C260.686855,534.973152 261.632484,536.778961 262.270508,538.852539 C262.908532,540.926117 263.227539,543.159168 263.227539,545.551758 L263.227539,548.901367 L239.199219,548.901367 L239.199219,552.695312 C239.199219,553.994147 239.444171,555.144852 239.934082,556.147461 C240.423993,557.15007 241.090491,557.998857 241.933594,558.693848 C242.776697,559.388838 243.722325,559.912921 244.770508,560.266113 C245.81869,560.619305 246.901036,560.795898 248.017578,560.795898 C250.250662,560.795898 252.187492,560.226243 253.828125,559.086914 C255.468758,557.947585 256.402994,556.13608 256.630859,553.652344 L262.954102,553.652344 C262.817382,555.566416 262.316085,557.269687 261.450195,558.762207 C260.584306,560.254728 259.462084,561.52506 258.083496,562.573242 C256.704908,563.621425 255.149748,564.430336 253.417969,565 C251.686189,565.569664 249.863291,565.854492 247.949219,565.854492 C245.374336,565.854492 243.124196,565.387374 241.19873,564.453125 C239.273265,563.518876 237.666836,562.231454 236.379395,560.59082 C235.091953,558.950187 234.134932,556.990571 233.508301,554.711914 C232.88167,552.433257 232.568359,549.915378 232.568359,547.158203 C232.568359,544.446601 232.904456,541.934419 233.57666,539.621582 C234.248864,537.308745 235.251458,535.337736 236.584473,533.708496 C237.917487,532.079256 239.529613,530.797531 241.420898,529.863281 C243.312184,528.929032 245.488269,528.461914 247.949219,528.461914 Z M195.825195,517.387695 L215.478516,556.933594 L215.786133,556.933594 L215.786133,517.387695 L222.211914,517.387695 L222.211914,565 L212.84668,565 L193.15918,525.249023 L192.885742,525.249023 L192.885742,565 L186.425781,565 L186.425781,517.387695 L195.825195,517.387695 Z M568.24707,528.461914 C569.97885,528.461914 571.5511,528.695473 572.963867,529.162598 C574.376635,529.629722 575.595698,530.375971 576.621094,531.401367 C577.64649,532.426763 578.444008,533.742668 579.013672,535.349121 C579.583336,536.955574 579.868164,538.909494 579.868164,541.210938 L579.868164,565 L573.544922,565 L573.544922,541.894531 C573.544922,539.274075 573.043625,537.217618 572.041016,535.725098 C571.038406,534.232577 569.181329,533.486328 566.469727,533.486328 C565.170892,533.486328 563.986008,533.742673 562.915039,534.255371 C561.84407,534.768069 560.909835,535.502925 560.112305,536.459961 C559.314775,537.416997 558.69385,538.550612 558.249512,539.86084 C557.805174,541.171068 557.583008,542.600904 557.583008,544.150391 L557.583008,565 L551.293945,565 L551.293945,529.316406 L557.583008,529.316406 L557.583008,535.195312 C558.56283,533.098948 559.907218,531.452643 561.616211,530.256348 C563.325204,529.060053 565.535468,528.461914 568.24707,528.461914 Z M539.672852,529.316406 L539.672852,565 L533.383789,565 L533.383789,529.316406 L539.672852,529.316406 Z M468.818359,528.461914 C470.550139,528.461914 472.122389,528.695473 473.535156,529.162598 C474.947924,529.629722 476.166987,530.375971 477.192383,531.401367 C478.217779,532.426763 479.015297,533.742668 479.584961,535.349121 C480.154625,536.955574 480.439453,538.909494 480.439453,541.210938 L480.439453,565 L474.116211,565 L474.116211,541.894531 C474.116211,539.274075 473.614914,537.217618 472.612305,535.725098 C471.609696,534.232577 469.752618,533.486328 467.041016,533.486328 C465.742181,533.486328 464.557297,533.742673 463.486328,534.255371 C462.415359,534.768069 461.481124,535.502925 460.683594,536.459961 C459.886064,537.416997 459.265139,538.550612 458.820801,539.86084 C458.376463,541.171068 458.154297,542.600904 458.154297,544.150391 L458.154297,565 L451.865234,565 L451.865234,529.316406 L458.154297,529.316406 L458.154297,535.195312 C459.134119,533.098948 460.478507,531.452643 462.1875,530.256348 C463.896493,529.060053 466.106757,528.461914 468.818359,528.461914 Z M275.668945,529.316406 L282.744141,557.241211 L283.017578,557.241211 L289.306641,529.316406 L296.962891,529.316406 L303.525391,557.241211 L303.798828,557.241211 L310.942383,529.316406 L317.094727,529.316406 L306.669922,565 L300.039062,565 L293.305664,536.083984 L293.032227,536.083984 L286.230469,565 L279.736328,565 L269.311523,529.316406 L275.668945,529.316406 Z M405.483398,529.316406 L405.483398,534.750977 L394.614258,534.750977 L394.614258,565 L388.325195,565 L388.325195,529.316406 L405.483398,529.316406 Z M362.143555,517.387695 C364.513358,517.387695 366.564119,517.552895 368.295898,517.883301 C370.027678,518.213706 371.577142,518.86881 372.944336,519.848633 C375.678725,521.785491 377.045898,524.781881 377.045898,528.837891 C377.045898,531.617852 376.402187,533.999014 375.114746,535.981445 C373.827305,537.963877 372.067068,539.376623 369.833984,540.219727 C372.363294,540.92611 374.374179,542.202139 375.866699,544.047852 C377.35922,545.893564 378.105469,548.251939 378.105469,551.123047 C378.105469,555.748721 376.897799,559.189442 374.482422,561.445312 C373.138014,562.653001 371.468923,563.54736 369.475098,564.128418 C367.481273,564.709476 365.151381,565 362.485352,565 L343.583984,565 L343.583984,517.387695 L362.143555,517.387695 Z M433.339844,548.286133 L420.65918,549.448242 C419.360345,549.539388 418.545737,549.881182 418.215332,550.473633 C417.884927,551.066084 417.719727,551.874995 417.719727,552.900391 L417.719727,556.044922 C417.719727,557.685555 418.289382,558.887529 419.428711,559.650879 C420.56804,560.414229 422.140289,560.795898 424.145508,560.795898 C426.993829,560.795898 429.238273,559.781911 430.878906,557.753906 C432.519539,555.725901 433.339844,553.105485 433.339844,549.892578 L433.339844,548.286133 Z M505.698242,533.486328 C504.399408,533.486328 503.197434,533.685708 502.092285,534.084473 C500.987136,534.483238 500.024418,535.035804 499.204102,535.742188 C498.383785,536.448571 497.740074,537.303055 497.272949,538.305664 C496.805824,539.308273 496.572266,540.413405 496.572266,541.621094 L496.572266,552.695312 C496.572266,553.903001 496.805824,555.008133 497.272949,556.010742 C497.740074,557.013351 498.383785,557.862138 499.204102,558.557129 C500.024418,559.252119 500.98144,559.798989 502.075195,560.197754 C503.168951,560.596519 504.376621,560.795898 505.698242,560.795898 C508.865576,560.795898 511.286613,559.793304 512.961426,557.788086 C514.636239,555.782868 515.473633,553.242203 515.473633,550.166016 L515.473633,544.150391 C515.473633,541.074203 514.636239,538.527842 512.961426,536.51123 C511.286613,534.494619 508.865576,533.486328 505.698242,533.486328 Z M605.126953,533.486328 C603.828119,533.486328 602.626145,533.685708 601.520996,534.084473 C600.415847,534.483238 599.453129,535.035804 598.632812,535.742188 C597.812496,536.448571 597.168785,537.303055 596.70166,538.305664 C596.234535,539.308273 596.000977,540.413405 596.000977,541.621094 L596.000977,552.695312 C596.000977,553.903001 596.234535,555.008133 596.70166,556.010742 C597.168785,557.013351 597.812496,557.862138 598.632812,558.557129 C599.453129,559.252119 600.410151,559.798989 601.503906,560.197754 C602.597662,560.596519 603.805332,560.795898 605.126953,560.795898 C608.294287,560.795898 610.715324,559.793304 612.390137,557.788086 C614.06495,555.782868 614.902344,553.242203 614.902344,550.166016 L614.902344,544.150391 C614.902344,541.074203 614.06495,538.527842 612.390137,536.51123 C610.715324,534.494619 608.294287,533.486328 605.126953,533.486328 Z M365.664062,543.364258 L350.249023,543.364258 L350.249023,559.052734 L365.219727,559.052734 C366.997079,559.052734 368.421219,558.631189 369.492188,557.788086 C370.563156,556.944983 371.098633,555.634775 371.098633,553.857422 L371.098633,548.115234 C371.098633,546.520174 370.608729,545.329594 369.628906,544.543457 C368.649084,543.75732 367.327482,543.364258 365.664062,543.364258 Z M247.949219,533.486328 C246.787104,533.486328 245.681971,533.674315 244.633789,534.050293 C243.585607,534.426271 242.651371,534.978838 241.831055,535.708008 C241.010738,536.437178 240.367027,537.325841 239.899902,538.374023 C239.432778,539.422206 239.199219,540.595697 239.199219,541.894531 L239.199219,543.876953 L256.699219,543.876953 L256.699219,541.894531 C256.699219,540.595697 256.46566,539.422206 255.998535,538.374023 C255.53141,537.325841 254.893396,536.437178 254.084473,535.708008 C253.275549,534.978838 252.341314,534.426271 251.281738,534.050293 C250.222163,533.674315 249.111334,533.486328 247.949219,533.486328 Z M364.87793,523.334961 L350.249023,523.334961 L350.249023,537.416992 L364.87793,537.416992 C366.655282,537.416992 367.965491,536.949874 368.808594,536.015625 C369.651697,535.081376 370.073242,533.873705 370.073242,532.392578 L370.073242,528.120117 C370.073242,524.952784 368.341489,523.357748 364.87793,523.334961 Z M539.80957,517.387695 L539.80957,523.984375 L533.24707,523.984375 L533.24707,517.387695 L539.80957,517.387695 Z M705.488281,422.802734 C708.873715,422.802734 711.803373,423.518873 714.277344,424.951172 C716.751314,426.383471 718.785799,428.369128 720.380859,430.908203 L720.380859,424.023438 L732.880859,424.023438 L732.880859,474.21875 C732.880859,477.669288 732.2461,480.66405 730.976562,483.203125 C729.707025,485.7422 728.006196,487.841789 725.874023,489.501953 C723.741851,491.162118 721.292332,492.407222 718.525391,493.237305 C715.75845,494.067387 712.877619,494.482422 709.882812,494.482422 C706.888006,494.482422 704.088555,494.205732 701.484375,493.652344 C698.880195,493.098956 696.577158,492.187506 694.575195,490.917969 C692.573232,489.648431 690.945644,487.996429 689.692383,485.961914 C688.439121,483.927399 687.600914,481.445327 687.177734,478.515625 L699.677734,478.515625 C700.068361,480.501312 700.971673,482.047521 702.387695,483.154297 C703.803718,484.261073 705.976548,484.814453 708.90625,484.814453 C710.371101,484.814453 711.803378,484.659832 713.203125,484.350586 C714.602872,484.04134 715.8317,483.471684 716.889648,482.641602 C717.947596,481.811519 718.793942,480.66407 719.428711,479.199219 C720.06348,477.734368 720.380859,475.862642 720.380859,473.583984 L720.380859,468.115234 C718.785799,470.65431 716.792004,472.639967 714.399414,474.072266 C712.006824,475.504564 709.10158,476.220703 705.683594,476.220703 C702.29816,476.220703 699.33595,475.52084 696.796875,474.121094 C694.2578,472.721347 692.141936,470.817069 690.449219,468.408203 C688.756502,465.999337 687.486983,463.175472 686.640625,459.936523 C685.794267,456.697575 685.371094,453.222675 685.371094,449.511719 C685.371094,445.833315 685.777991,442.358415 686.591797,439.086914 C687.405603,435.815413 688.64257,432.98341 690.302734,430.59082 C691.962899,428.19823 694.062487,426.30209 696.601562,424.902344 C699.140638,423.502597 702.102848,422.802734 705.488281,422.802734 Z M440.351562,424.023438 L440.351562,456.494141 C440.351562,459.488947 440.937494,461.824536 442.109375,463.500977 C443.281256,465.177417 445.364568,466.015625 448.359375,466.015625 C451.744809,466.015625 454.414053,464.860038 456.367188,462.548828 C458.320322,460.237619 459.296875,457.226581 459.296875,453.515625 L459.296875,424.023438 L471.796875,424.023438 L471.796875,475 L459.296875,475 L459.296875,467.578125 C457.766919,470.377618 455.781262,472.517896 453.339844,473.999023 C450.898425,475.480151 447.871112,476.220703 444.257812,476.220703 C438.789035,476.220703 434.687514,474.568701 431.953125,471.264648 C429.218736,467.960595 427.851562,463.346384 427.851562,457.421875 L427.851562,424.023438 L440.351562,424.023438 Z M391.71875,422.802734 C395.527363,422.802734 398.912746,423.437494 401.875,424.707031 C404.837254,425.976569 407.335602,427.791329 409.370117,430.151367 C411.404633,432.511405 412.950841,435.327132 414.008789,438.598633 C415.066737,441.870134 415.595703,445.507792 415.595703,449.511719 C415.595703,453.515645 415.066737,457.145166 414.008789,460.400391 C412.950841,463.655615 411.404633,466.471342 409.370117,468.847656 C407.335602,471.22397 404.837254,473.046869 401.875,474.316406 C398.912746,475.585944 395.527363,476.220703 391.71875,476.220703 C387.910137,476.220703 384.524754,475.585944 381.5625,474.316406 C378.600246,473.046869 376.101898,471.22397 374.067383,468.847656 C372.032867,466.471342 370.478521,463.655615 369.404297,460.400391 C368.330073,457.145166 367.792969,453.515645 367.792969,449.511719 C367.792969,445.507792 368.330073,441.870134 369.404297,438.598633 C370.478521,435.327132 372.032867,432.511405 374.067383,430.151367 C376.101898,427.791329 378.600246,425.976569 381.5625,424.707031 C384.524754,423.437494 387.910137,422.802734 391.71875,422.802734 Z M566.71875,422.802734 C569.388034,422.802734 571.943347,423.152666 574.384766,423.852539 C576.826184,424.552412 579.031566,425.651034 581.000977,427.148438 C582.970387,428.645841 584.565424,430.558257 585.786133,432.885742 C587.006842,435.213228 587.76367,437.988265 588.056641,441.210938 L575.556641,441.210938 C575.231118,437.955713 574.230152,435.693366 572.553711,434.423828 C570.87727,433.154291 568.769544,432.519531 566.230469,432.519531 C563.691394,432.519531 561.49415,433.333325 559.638672,434.960938 C557.783194,436.58855 556.855469,439.095035 556.855469,442.480469 L556.855469,456.494141 C556.855469,459.619156 557.734366,462.068676 559.492188,463.842773 C561.250009,465.616871 563.528632,466.503906 566.328125,466.503906 C569.127618,466.503906 571.333,465.836595 572.944336,464.501953 C574.555672,463.167311 575.556639,460.807309 575.947266,457.421875 L588.447266,457.421875 C588.121743,460.611995 587.356777,463.370757 586.152344,465.698242 C584.947911,468.025728 583.377288,469.970695 581.44043,471.533203 C579.503571,473.095711 577.306327,474.267574 574.848633,475.048828 C572.390938,475.830082 569.762384,476.220703 566.962891,476.220703 C563.154278,476.220703 559.817723,475.569668 556.953125,474.267578 C554.088527,472.965488 551.671559,471.158866 549.702148,468.847656 C547.732738,466.536447 546.259771,463.769547 545.283203,460.546875 C544.306636,457.324203 543.818359,453.743509 543.818359,449.804688 C543.818359,445.605448 544.355463,441.837582 545.429688,438.500977 C546.503912,435.164371 548.041982,432.332368 550.043945,430.004883 C552.045908,427.677397 554.446601,425.895188 557.246094,424.658203 C560.045587,423.421218 563.203107,422.802734 566.71875,422.802734 Z M219.013672,406.982422 L242.109375,475 L228.095703,475 L223.603516,460.498047 L200.410156,460.498047 L196.015625,475 L182.001953,475 L205.195312,406.982422 L219.013672,406.982422 Z M514.765625,422.802734 C520.49482,422.802734 524.710273,424.471012 527.412109,427.807617 C530.113946,431.144222 531.464844,435.742158 531.464844,441.601562 L531.464844,475 L518.964844,475 L518.964844,442.480469 C518.964844,439.485662 518.330084,437.158211 517.060547,435.498047 C515.791009,433.837882 513.658869,433.007812 510.664062,433.007812 C507.213524,433.007812 504.519866,434.155262 502.583008,436.450195 C500.646149,438.745129 499.677734,441.764304 499.677734,445.507812 L499.677734,475 L487.177734,475 L487.177734,424.023438 L499.677734,424.023438 L499.677734,431.396484 C501.20769,428.662096 503.201485,426.546231 505.65918,425.048828 C508.116874,423.551425 511.152326,422.802734 514.765625,422.802734 Z M338.740234,422.802734 C344.46943,422.802734 348.684882,424.471012 351.386719,427.807617 C354.088555,431.144222 355.439453,435.742158 355.439453,441.601562 L355.439453,475 L342.939453,475 L342.939453,442.480469 C342.939453,439.485662 342.304694,437.158211 341.035156,435.498047 C339.765619,433.837882 337.633479,433.007812 334.638672,433.007812 C331.188134,433.007812 328.494476,434.155262 326.557617,436.450195 C324.620759,438.745129 323.652344,441.764304 323.652344,445.507812 L323.652344,475 L311.152344,475 L311.152344,424.023438 L323.652344,424.023438 L323.652344,431.396484 C325.182299,428.662096 327.176094,426.546231 329.633789,425.048828 C332.091484,423.551425 335.126935,422.802734 338.740234,422.802734 Z M656.220703,422.802734 C661.949898,422.802734 666.165351,424.471012 668.867188,427.807617 C671.569024,431.144222 672.919922,435.742158 672.919922,441.601562 L672.919922,475 L660.419922,475 L660.419922,442.480469 C660.419922,439.485662 659.785163,437.158211 658.515625,435.498047 C657.246087,433.837882 655.113947,433.007812 652.119141,433.007812 C648.668603,433.007812 645.974945,434.155262 644.038086,436.450195 C642.101227,438.745129 641.132812,441.764304 641.132812,445.507812 L641.132812,475 L628.632812,475 L628.632812,424.023438 L641.132812,424.023438 L641.132812,431.396484 C642.662768,428.662096 644.656563,426.546231 647.114258,425.048828 C649.571952,423.551425 652.607404,422.802734 656.220703,422.802734 Z M279.462891,422.802734 C285.192086,422.802734 289.407539,424.471012 292.109375,427.807617 C294.811211,431.144222 296.162109,435.742158 296.162109,441.601562 L296.162109,475 L283.662109,475 L283.662109,442.480469 C283.662109,439.485662 283.02735,437.158211 281.757812,435.498047 C280.488275,433.837882 278.356135,433.007812 275.361328,433.007812 C271.91079,433.007812 269.217132,434.155262 267.280273,436.450195 C265.343415,438.745129 264.375,441.764304 264.375,445.507812 L264.375,475 L251.875,475 L251.875,424.023438 L264.375,424.023438 L264.375,431.396484 C265.904956,428.662096 267.898751,426.546231 270.356445,425.048828 C272.81414,423.551425 275.849591,422.802734 279.462891,422.802734 Z M613.251953,424.023438 L613.251953,475 L600.751953,475 L600.751953,424.023438 L613.251953,424.023438 Z M391.71875,432.519531 C388.593734,432.519531 385.997732,433.349601 383.930664,435.009766 C381.863596,436.66993 380.830078,439.029933 380.830078,442.089844 L380.830078,456.884766 C380.830078,459.944677 381.863596,462.312817 383.930664,463.989258 C385.997732,465.665698 388.593734,466.503906 391.71875,466.503906 C394.843766,466.503906 397.439768,465.690112 399.506836,464.0625 C401.573904,462.434888 402.607422,460.042333 402.607422,456.884766 L402.607422,442.089844 C402.607422,438.964828 401.573904,436.58855 399.506836,434.960938 C397.439768,433.333325 394.843766,432.519531 391.71875,432.519531 Z M708.90625,432.519531 C705.651025,432.519531 703.087574,433.43098 701.21582,435.253906 C699.344066,437.076832 698.408203,439.420559 698.408203,442.285156 L698.408203,456.689453 C698.408203,459.554051 699.352204,461.905915 701.240234,463.745117 C703.128265,465.584319 705.683578,466.503906 708.90625,466.503906 C712.910176,466.503906 715.823559,465.299491 717.646484,462.890625 C719.46941,460.481759 720.380859,457.291687 720.380859,453.320312 L720.380859,445.703125 C720.380859,441.699199 719.46941,438.500989 717.646484,436.108398 C715.823559,433.715808 712.910176,432.519531 708.90625,432.519531 Z M212.421875,422.705078 L211.982422,422.705078 L203.779297,449.511719 L220.283203,449.511719 L212.421875,422.705078 Z M613.447266,406.982422 L613.447266,418.115234 L600.556641,418.115234 L600.556641,406.982422 L613.447266,406.982422 Z"/>
  </g>
</svg>
