<svg xmlns="http://www.w3.org/2000/svg" width="1310" height="800" viewBox="0 0 1310 800">
  <g fill="none" fill-rule="evenodd">
    <rect width="1310" height="800" fill="#000"/>
    <g transform="rotate(-90 240 240)">
      <path fill="#4038FF" d="M248.888889,231.111111 L248.888889,240 L240,240 L240,231.111111 L248.888889,231.111111 Z M266.666667,231.111111 L266.666667,240 L257.777778,240 L257.777778,231.111111 L266.666667,231.111111 Z M284.444444,231.111111 L284.444444,240 L275.555556,240 L275.555556,231.111111 L284.444444,231.111111 Z M302.222222,231.111111 L302.222222,240 L293.333333,240 L293.333333,231.111111 L302.222222,231.111111 Z M320,231.111111 L320,240 L311.111111,240 L311.111111,231.111111 L320,231.111111 Z M257.777778,222.222222 L257.777778,231.111111 L248.888889,231.111111 L248.888889,222.222222 L257.777778,222.222222 Z M275.555556,222.222222 L275.555556,231.111111 L266.666667,231.111111 L266.666667,222.222222 L275.555556,222.222222 Z M293.333333,222.222222 L293.333333,231.111111 L284.444444,231.111111 L284.444444,222.222222 L293.333333,222.222222 Z M311.111111,222.222222 L311.111111,231.111111 L302.222222,231.111111 L302.222222,222.222222 L311.111111,222.222222 Z M248.888889,213.333333 L248.888889,222.222222 L240,222.222222 L240,213.333333 L248.888889,213.333333 Z M266.666667,213.333333 L266.666667,222.222222 L257.777778,222.222222 L257.777778,213.333333 L266.666667,213.333333 Z M284.444444,213.333333 L284.444444,222.222222 L275.555556,222.222222 L275.555556,213.333333 L284.444444,213.333333 Z M302.222222,213.333333 L302.222222,222.222222 L293.333333,222.222222 L293.333333,213.333333 L302.222222,213.333333 Z M320,213.333333 L320,222.222222 L311.111111,222.222222 L311.111111,213.333333 L320,213.333333 Z M257.777778,204.444444 L257.777778,213.333333 L248.888889,213.333333 L248.888889,204.444444 L257.777778,204.444444 Z M275.555556,204.444444 L275.555556,213.333333 L266.666667,213.333333 L266.666667,204.444444 L275.555556,204.444444 Z M293.333333,204.444444 L293.333333,213.333333 L284.444444,213.333333 L284.444444,204.444444 L293.333333,204.444444 Z M311.111111,204.444444 L311.111111,213.333333 L302.222222,213.333333 L302.222222,204.444444 L311.111111,204.444444 Z M284.444444,195.555556 L284.444444,204.444444 L275.555556,204.444444 L275.555556,195.555556 L284.444444,195.555556 Z M302.222222,195.555556 L302.222222,204.444444 L293.333333,204.444444 L293.333333,195.555556 L302.222222,195.555556 Z M320,195.555556 L320,204.444444 L311.111111,204.444444 L311.111111,195.555556 L320,195.555556 Z M248.888889,195.555556 L248.888889,204.444444 L240,204.444444 L240,195.555556 L248.888889,195.555556 Z M266.666667,195.555556 L266.666667,204.444444 L257.777778,204.444444 L257.777778,195.555556 L266.666667,195.555556 Z M257.777778,186.666667 L257.777778,195.555556 L248.888889,195.555556 L248.888889,186.666667 L257.777778,186.666667 Z M275.555556,186.666667 L275.555556,195.555556 L266.666667,195.555556 L266.666667,186.666667 L275.555556,186.666667 Z M293.333333,186.666667 L293.333333,195.555556 L284.444444,195.555556 L284.444444,186.666667 L293.333333,186.666667 Z M311.111111,186.666667 L311.111111,195.555556 L302.222222,195.555556 L302.222222,186.666667 L311.111111,186.666667 Z M248.888889,177.777778 L248.888889,186.666667 L240,186.666667 L240,177.777778 L248.888889,177.777778 Z M266.666667,177.777778 L266.666667,186.666667 L257.777778,186.666667 L257.777778,177.777778 L266.666667,177.777778 Z M284.444444,177.777778 L284.444444,186.666667 L275.555556,186.666667 L275.555556,177.777778 L284.444444,177.777778 Z M302.222222,177.777778 L302.222222,186.666667 L293.333333,186.666667 L293.333333,177.777778 L302.222222,177.777778 Z M320,177.777778 L320,186.666667 L311.111111,186.666667 L311.111111,177.777778 L320,177.777778 Z M257.777778,168.888889 L257.777778,177.777778 L248.888889,177.777778 L248.888889,168.888889 L257.777778,168.888889 Z M275.555556,168.888889 L275.555556,177.777778 L266.666667,177.777778 L266.666667,168.888889 L275.555556,168.888889 Z M293.333333,168.888889 L293.333333,177.777778 L284.444444,177.777778 L284.444444,168.888889 L293.333333,168.888889 Z M311.111111,168.888889 L311.111111,177.777778 L302.222222,177.777778 L302.222222,168.888889 L311.111111,168.888889 Z M248.888889,160 L248.888889,168.888889 L240,168.888889 L240,160 L248.888889,160 Z M266.666667,160 L266.666667,168.888889 L257.777778,168.888889 L257.777778,160 L266.666667,160 Z M284.444444,160 L284.444444,168.888889 L275.555556,168.888889 L275.555556,160 L284.444444,160 Z M302.222222,160 L302.222222,168.888889 L293.333333,168.888889 L293.333333,160 L302.222222,160 Z M320,160 L320,168.888889 L311.111111,168.888889 L311.111111,160 L320,160 Z"/>
      <path fill="#FFF" d="M328.888889,631.111111 L328.888889,640 L320,640 L320,631.111111 L328.888889,631.111111 Z M346.666667,631.111111 L346.666667,640 L337.777778,640 L337.777778,631.111111 L346.666667,631.111111 Z M364.444444,631.111111 L364.444444,640 L355.555556,640 L355.555556,631.111111 L364.444444,631.111111 Z M382.222222,631.111111 L382.222222,640 L373.333333,640 L373.333333,631.111111 L382.222222,631.111111 Z M400,631.111111 L400,640 L391.111111,640 L391.111111,631.111111 L400,631.111111 Z M337.777778,622.222222 L337.777778,631.111111 L328.888889,631.111111 L328.888889,622.222222 L337.777778,622.222222 Z M355.555556,622.222222 L355.555556,631.111111 L346.666667,631.111111 L346.666667,622.222222 L355.555556,622.222222 Z M373.333333,622.222222 L373.333333,631.111111 L364.444444,631.111111 L364.444444,622.222222 L373.333333,622.222222 Z M391.111111,622.222222 L391.111111,631.111111 L382.222222,631.111111 L382.222222,622.222222 L391.111111,622.222222 Z M328.888889,613.333333 L328.888889,622.222222 L320,622.222222 L320,613.333333 L328.888889,613.333333 Z M346.666667,613.333333 L346.666667,622.222222 L337.777778,622.222222 L337.777778,613.333333 L346.666667,613.333333 Z M364.444444,613.333333 L364.444444,622.222222 L355.555556,622.222222 L355.555556,613.333333 L364.444444,613.333333 Z M382.222222,613.333333 L382.222222,622.222222 L373.333333,622.222222 L373.333333,613.333333 L382.222222,613.333333 Z M400,613.333333 L400,622.222222 L391.111111,622.222222 L391.111111,613.333333 L400,613.333333 Z M337.777778,604.444444 L337.777778,613.333333 L328.888889,613.333333 L328.888889,604.444444 L337.777778,604.444444 Z M355.555556,604.444444 L355.555556,613.333333 L346.666667,613.333333 L346.666667,604.444444 L355.555556,604.444444 Z M373.333333,604.444444 L373.333333,613.333333 L364.444444,613.333333 L364.444444,604.444444 L373.333333,604.444444 Z M391.111111,604.444444 L391.111111,613.333333 L382.222222,613.333333 L382.222222,604.444444 L391.111111,604.444444 Z M364.444444,595.555556 L364.444444,604.444444 L355.555556,604.444444 L355.555556,595.555556 L364.444444,595.555556 Z M382.222222,595.555556 L382.222222,604.444444 L373.333333,604.444444 L373.333333,595.555556 L382.222222,595.555556 Z M400,595.555556 L400,604.444444 L391.111111,604.444444 L391.111111,595.555556 L400,595.555556 Z M328.888889,595.555556 L328.888889,604.444444 L320,604.444444 L320,595.555556 L328.888889,595.555556 Z M346.666667,595.555556 L346.666667,604.444444 L337.777778,604.444444 L337.777778,595.555556 L346.666667,595.555556 Z M337.777778,586.666667 L337.777778,595.555556 L328.888889,595.555556 L328.888889,586.666667 L337.777778,586.666667 Z M355.555556,586.666667 L355.555556,595.555556 L346.666667,595.555556 L346.666667,586.666667 L355.555556,586.666667 Z M373.333333,586.666667 L373.333333,595.555556 L364.444444,595.555556 L364.444444,586.666667 L373.333333,586.666667 Z M391.111111,586.666667 L391.111111,595.555556 L382.222222,595.555556 L382.222222,586.666667 L391.111111,586.666667 Z M328.888889,577.777778 L328.888889,586.666667 L320,586.666667 L320,577.777778 L328.888889,577.777778 Z M346.666667,577.777778 L346.666667,586.666667 L337.777778,586.666667 L337.777778,577.777778 L346.666667,577.777778 Z M364.444444,577.777778 L364.444444,586.666667 L355.555556,586.666667 L355.555556,577.777778 L364.444444,577.777778 Z M382.222222,577.777778 L382.222222,586.666667 L373.333333,586.666667 L373.333333,577.777778 L382.222222,577.777778 Z M400,577.777778 L400,586.666667 L391.111111,586.666667 L391.111111,577.777778 L400,577.777778 Z M337.777778,568.888889 L337.777778,577.777778 L328.888889,577.777778 L328.888889,568.888889 L337.777778,568.888889 Z M355.555556,568.888889 L355.555556,577.777778 L346.666667,577.777778 L346.666667,568.888889 L355.555556,568.888889 Z M373.333333,568.888889 L373.333333,577.777778 L364.444444,577.777778 L364.444444,568.888889 L373.333333,568.888889 Z M391.111111,568.888889 L391.111111,577.777778 L382.222222,577.777778 L382.222222,568.888889 L391.111111,568.888889 Z M328.888889,560 L328.888889,568.888889 L320,568.888889 L320,560 L328.888889,560 Z M346.666667,560 L346.666667,568.888889 L337.777778,568.888889 L337.777778,560 L346.666667,560 Z M364.444444,560 L364.444444,568.888889 L355.555556,568.888889 L355.555556,560 L364.444444,560 Z M382.222222,560 L382.222222,568.888889 L373.333333,568.888889 L373.333333,560 L382.222222,560 Z M400,560 L400,568.888889 L391.111111,568.888889 L391.111111,560 L400,560 Z"/>
      <path fill="#4038FF" d="M240,88.8 L240,80 L160,80 L160,88.8 L240,88.8 Z M240,98.4 L240,107.2 L160,107.2 L160,98.4 L240,98.4 Z M240,115.2 L240,124 L160,124 L160,115.2 L240,115.2 Z M240,141.6 L240,132.8 L160,132.8 L160,141.6 L240,141.6 Z M240,151.2 L240,160 L160,160 L160,151.2 L240,151.2 Z"/>
      <path fill="#4038FF" d="M480,488.8 L480,480 L400,480 L400,488.8 L480,488.8 Z M480,498.4 L480,507.2 L400,507.2 L400,498.4 L480,498.4 Z M480,515.2 L480,524 L400,524 L400,515.2 L480,515.2 Z M480,541.6 L480,532.8 L400,532.8 L400,541.6 L480,541.6 Z M480,551.2 L480,560 L400,560 L400,551.2 L480,551.2 Z" transform="rotate(-90 440 520)"/>
      <path fill="#FFF" d="M320,311.2 L320,320 L240,320 L240,311.2 L320,311.2 Z M320,284 L320,275.2 L240,275.2 L240,284 L320,284 Z M320,258.4 L320,267.2 L240,267.2 L240,258.4 L320,258.4 Z M320,240 L320,248.8 L240,248.8 L240,240 L320,240 Z M320,301.6 L320,292.8 L240,292.8 L240,301.6 L320,301.6 Z"/>
      <path fill="#4038FF" d="M231.111032,320 L240,320 C240,364.182044 204.182206,400 160,400 L160,391.111111 C199.275445,391.111111 231.111032,359.275378 231.111032,320 Z M213.485612,320 L222.4,320 C222.4,354.462629 194.462684,382.4 160,382.4 L160,373.485714 C189.537608,373.485714 213.485612,349.537664 213.485612,320 Z M204,320 L195.2,320 C195.2,339.438848 179.439058,355.2 160,355.2 L160,364 C184.300937,364 204,344.301376 204,320 Z M178.133333,320 L187.2,320 C187.2,335.023104 175.023268,347.2 160,347.2 L160,338.133333 C170.01406,338.133333 178.133333,330.013952 178.133333,320 Z M160,320 L168.8,320 C168.8,324.861824 164.861878,328.8 160,328.8 L160,320 Z" transform="rotate(-90 200 360)"/>
      <path fill="#4038FF" fill-rule="nonzero" d="M400,720 L480,720 L480,640 C435.817794,640 400,675.817956 400,720 Z" transform="rotate(-90 440 680)"/>
      <path fill="#4038FF" d="M248.888968,400 L240,400 C240,355.817956 275.817794,320 320,320 L320,328.888889 C280.724555,328.888889 248.888968,360.724622 248.888968,400 Z M266.514388,400 L257.6,400 C257.6,365.537371 285.537316,337.6 320,337.6 L320,346.514286 C290.462392,346.514286 266.514388,370.462336 266.514388,400 Z M276,400 L284.800141,400 C284.800141,380.560448 300.56063,364.8 320,364.8 L320,356 C295.698674,356 276,375.698624 276,400 Z M301.866183,400 L292.8,400 C292.8,384.976171 304.976331,372.8 320,372.8 L320,381.866667 C309.985672,381.866667 301.866183,389.986048 301.866183,400 Z M320,400 L311.2,400 C311.2,395.138176 315.138122,391.2 320,391.2 L320,400 Z"/>
      <path fill="#1F252E" d="M8.88896797,80 L-2.84217094e-14,80 C-2.84217094e-14,35.8179556 35.8177936,0 80,0 L80,8.88888889 C40.7245552,8.88888889 8.88896797,40.7246222 8.88896797,80 Z M26.5143877,80 L17.6,80 C17.6,45.5373714 45.5373155,17.6 80,17.6 L80,26.5142857 C50.4623916,26.5142857 26.5143877,50.462336 26.5143877,80 Z M36,80 L44.8001409,80 C44.8001409,60.560448 60.5606303,44.8 80,44.8 L80,36 C55.698674,36 36,55.698624 36,80 Z M61.8661827,80 L52.8,80 C52.8,64.9761707 64.9763305,52.8 80,52.8 L80,61.8666667 C69.9856723,61.8666667 61.8661827,69.986048 61.8661827,80 Z M80,80 L71.2,80 C71.2,75.138176 75.1381215,71.2 80,71.2 L80,80 Z"/>
      <path fill="#1F252E" d="M248.888968,80 L240,80 C240,35.8179556 275.817794,0 320,0 L320,8.88888889 C280.724555,8.88888889 248.888968,40.7246222 248.888968,80 Z M266.514388,80 L257.6,80 C257.6,45.5373714 285.537316,17.6 320,17.6 L320,26.5142857 C290.462392,26.5142857 266.514388,50.462336 266.514388,80 Z M276,80 L284.800141,80 C284.800141,60.560448 300.56063,44.8 320,44.8 L320,36 C295.698674,36 276,55.698624 276,80 Z M301.866183,80 L292.8,80 C292.8,64.9761707 304.976331,52.8 320,52.8 L320,61.8666667 C309.985672,61.8666667 301.866183,69.986048 301.866183,80 Z M320,80 L311.2,80 C311.2,75.138176 315.138122,71.2 320,71.2 L320,80 Z" transform="rotate(-90 280 40)"/>
      <path fill="#1F252E" d="M248.888968,560 L240,560 C240,515.817956 275.817794,480 320,480 L320,488.888889 C280.724555,488.888889 248.888968,520.724622 248.888968,560 Z M266.514388,560 L257.6,560 C257.6,525.537371 285.537316,497.6 320,497.6 L320,506.514286 C290.462392,506.514286 266.514388,530.462336 266.514388,560 Z M276,560 L284.800141,560 C284.800141,540.560448 300.56063,524.8 320,524.8 L320,516 C295.698674,516 276,535.698624 276,560 Z M301.866183,560 L292.8,560 C292.8,544.976171 304.976331,532.8 320,532.8 L320,541.866667 C309.985672,541.866667 301.866183,549.986048 301.866183,560 Z M320,560 L311.2,560 C311.2,555.138176 315.138122,551.2 320,551.2 L320,560 Z" transform="matrix(-1 0 0 1 560 0)"/>
      <path fill="#1F252E" d="M400,153.733689 L400,160 L393.733096,160 L320,86.2670222 L320,80 L326.266192,80 L400,153.733689 Z M320,99.2 L320,111.705005 L368.295818,160 L380.8,160 L320,99.2 Z M320,136.577422 L320,124 L356,160 L343.422064,160 L320,136.577422 Z M320,160 L331.2,160 L320,148.8 L320,160 Z M339.2,80 L351.704744,80 L400,128.294995 L400,140.8 L339.2,80 Z M376.577936,80 L364,80 L400,116 L400,103.422578 L376.577936,80 Z M400,91.2 L388.8,80 L400,80 L400,91.2 Z" transform="rotate(90 360 120)"/>
      <path fill="#4038FF" d="M480,233.733689 L480,240 L473.733096,240 L400,166.267022 L400,160 L406.266192,160 L480,233.733689 Z M400,179.2 L400,191.705005 L448.295818,240 L460.8,240 L400,179.2 Z M400,216.577422 L400,204 L436,240 L423.422064,240 L400,216.577422 Z M400,240 L411.2,240 L400,228.8 L400,240 Z M419.2,160 L431.704744,160 L480,208.294995 L480,220.8 L419.2,160 Z M456.577936,160 L444,160 L480,196 L480,183.422578 L456.577936,160 Z M480,171.2 L468.8,160 L480,160 L480,171.2 Z" transform="rotate(90 440 200)"/>
    </g>
    <g transform="rotate(90 735 1055)">
      <path fill="#FFF" d="M328.888889,631.111111 L328.888889,640 L320,640 L320,631.111111 L328.888889,631.111111 Z M346.666667,631.111111 L346.666667,640 L337.777778,640 L337.777778,631.111111 L346.666667,631.111111 Z M364.444444,631.111111 L364.444444,640 L355.555556,640 L355.555556,631.111111 L364.444444,631.111111 Z M382.222222,631.111111 L382.222222,640 L373.333333,640 L373.333333,631.111111 L382.222222,631.111111 Z M400,631.111111 L400,640 L391.111111,640 L391.111111,631.111111 L400,631.111111 Z M337.777778,622.222222 L337.777778,631.111111 L328.888889,631.111111 L328.888889,622.222222 L337.777778,622.222222 Z M355.555556,622.222222 L355.555556,631.111111 L346.666667,631.111111 L346.666667,622.222222 L355.555556,622.222222 Z M373.333333,622.222222 L373.333333,631.111111 L364.444444,631.111111 L364.444444,622.222222 L373.333333,622.222222 Z M391.111111,622.222222 L391.111111,631.111111 L382.222222,631.111111 L382.222222,622.222222 L391.111111,622.222222 Z M328.888889,613.333333 L328.888889,622.222222 L320,622.222222 L320,613.333333 L328.888889,613.333333 Z M346.666667,613.333333 L346.666667,622.222222 L337.777778,622.222222 L337.777778,613.333333 L346.666667,613.333333 Z M364.444444,613.333333 L364.444444,622.222222 L355.555556,622.222222 L355.555556,613.333333 L364.444444,613.333333 Z M382.222222,613.333333 L382.222222,622.222222 L373.333333,622.222222 L373.333333,613.333333 L382.222222,613.333333 Z M400,613.333333 L400,622.222222 L391.111111,622.222222 L391.111111,613.333333 L400,613.333333 Z M337.777778,604.444444 L337.777778,613.333333 L328.888889,613.333333 L328.888889,604.444444 L337.777778,604.444444 Z M355.555556,604.444444 L355.555556,613.333333 L346.666667,613.333333 L346.666667,604.444444 L355.555556,604.444444 Z M373.333333,604.444444 L373.333333,613.333333 L364.444444,613.333333 L364.444444,604.444444 L373.333333,604.444444 Z M391.111111,604.444444 L391.111111,613.333333 L382.222222,613.333333 L382.222222,604.444444 L391.111111,604.444444 Z M364.444444,595.555556 L364.444444,604.444444 L355.555556,604.444444 L355.555556,595.555556 L364.444444,595.555556 Z M382.222222,595.555556 L382.222222,604.444444 L373.333333,604.444444 L373.333333,595.555556 L382.222222,595.555556 Z M400,595.555556 L400,604.444444 L391.111111,604.444444 L391.111111,595.555556 L400,595.555556 Z M328.888889,595.555556 L328.888889,604.444444 L320,604.444444 L320,595.555556 L328.888889,595.555556 Z M346.666667,595.555556 L346.666667,604.444444 L337.777778,604.444444 L337.777778,595.555556 L346.666667,595.555556 Z M337.777778,586.666667 L337.777778,595.555556 L328.888889,595.555556 L328.888889,586.666667 L337.777778,586.666667 Z M355.555556,586.666667 L355.555556,595.555556 L346.666667,595.555556 L346.666667,586.666667 L355.555556,586.666667 Z M373.333333,586.666667 L373.333333,595.555556 L364.444444,595.555556 L364.444444,586.666667 L373.333333,586.666667 Z M391.111111,586.666667 L391.111111,595.555556 L382.222222,595.555556 L382.222222,586.666667 L391.111111,586.666667 Z M328.888889,577.777778 L328.888889,586.666667 L320,586.666667 L320,577.777778 L328.888889,577.777778 Z M346.666667,577.777778 L346.666667,586.666667 L337.777778,586.666667 L337.777778,577.777778 L346.666667,577.777778 Z M364.444444,577.777778 L364.444444,586.666667 L355.555556,586.666667 L355.555556,577.777778 L364.444444,577.777778 Z M382.222222,577.777778 L382.222222,586.666667 L373.333333,586.666667 L373.333333,577.777778 L382.222222,577.777778 Z M400,577.777778 L400,586.666667 L391.111111,586.666667 L391.111111,577.777778 L400,577.777778 Z M337.777778,568.888889 L337.777778,577.777778 L328.888889,577.777778 L328.888889,568.888889 L337.777778,568.888889 Z M355.555556,568.888889 L355.555556,577.777778 L346.666667,577.777778 L346.666667,568.888889 L355.555556,568.888889 Z M373.333333,568.888889 L373.333333,577.777778 L364.444444,577.777778 L364.444444,568.888889 L373.333333,568.888889 Z M391.111111,568.888889 L391.111111,577.777778 L382.222222,577.777778 L382.222222,568.888889 L391.111111,568.888889 Z M328.888889,560 L328.888889,568.888889 L320,568.888889 L320,560 L328.888889,560 Z M346.666667,560 L346.666667,568.888889 L337.777778,568.888889 L337.777778,560 L346.666667,560 Z M364.444444,560 L364.444444,568.888889 L355.555556,568.888889 L355.555556,560 L364.444444,560 Z M382.222222,560 L382.222222,568.888889 L373.333333,568.888889 L373.333333,560 L382.222222,560 Z M400,560 L400,568.888889 L391.111111,568.888889 L391.111111,560 L400,560 Z"/>
      <path fill="#4038FF" d="M480,488.8 L480,480 L400,480 L400,488.8 L480,488.8 Z M480,498.4 L480,507.2 L400,507.2 L400,498.4 L480,498.4 Z M480,515.2 L480,524 L400,524 L400,515.2 L480,515.2 Z M480,541.6 L480,532.8 L400,532.8 L400,541.6 L480,541.6 Z M480,551.2 L480,560 L400,560 L400,551.2 L480,551.2 Z" transform="rotate(-90 440 520)"/>
      <path fill="#4038FF" fill-rule="nonzero" d="M400,720 L480,720 L480,640 C435.817794,640 400,675.817956 400,720 Z" transform="rotate(-90 440 680)"/>
      <path fill="#1F252E" d="M248.888968,560 L240,560 C240,515.817956 275.817794,480 320,480 L320,488.888889 C280.724555,488.888889 248.888968,520.724622 248.888968,560 Z M266.514388,560 L257.6,560 C257.6,525.537371 285.537316,497.6 320,497.6 L320,506.514286 C290.462392,506.514286 266.514388,530.462336 266.514388,560 Z M276,560 L284.800141,560 C284.800141,540.560448 300.56063,524.8 320,524.8 L320,516 C295.698674,516 276,535.698624 276,560 Z M301.866183,560 L292.8,560 C292.8,544.976171 304.976331,532.8 320,532.8 L320,541.866667 C309.985672,541.866667 301.866183,549.986048 301.866183,560 Z M320,560 L311.2,560 C311.2,555.138176 315.138122,551.2 320,551.2 L320,560 Z" transform="matrix(-1 0 0 1 560 0)"/>
    </g>
    <g transform="translate(688 84)">
      <g transform="translate(127.8)">
        <path fill="#000" fill-rule="nonzero" d="M272.000095,216.515803 C269.443909,214.119403 267.045999,211.560428 264.821417,208.854938 C262.021733,204.773917 259.580982,200.406509 256.709511,196.325488 C246.739505,181.39382 234.64897,167.984713 220.816123,156.517633 C216.458028,153.094346 211.929717,149.892291 207.248423,146.923653 C213.493872,143.701794 213.924593,138.976402 208.612371,134.895381 C206.976666,133.832531 205.246512,132.92181 203.443724,132.1747 C204.037149,131.726769 204.660773,131.320093 205.31018,130.957553 C207.791336,129.918254 209.608858,127.738043 210.180528,125.115321 C210.752197,122.4926 210.006253,119.756587 208.181651,117.783731 C207.53557,116.852971 208.181651,116.494987 208.540585,115.922212 C214.28304,109.216695 220.706323,103.122321 227.707654,97.7366094 C233.930047,92.3650978 242.164163,89.9144336 250.320488,91.0065044 C254.934654,91.6305992 259.631297,91.1646299 264.031763,89.6461641 C271.752819,87.6830299 276.780393,80.2692884 275.733007,72.3913205 C275.316714,66.848422 273.931914,61.4208007 271.641161,56.3536235 C268.716935,49.2739363 262.23501,44.2821462 254.627695,43.2513979 C249.822283,42.644231 244.944075,42.9848021 240.27034,44.2537539 C232.281638,46.2985729 223.793789,44.526131 217.298571,39.4567642 C210.39838,34.4260869 204.546518,28.1033409 200.069745,20.8415803 C195.394699,13.6406863 188.975517,7.73096366 181.405183,3.65833351 C171.702747,-1.88297397 159.524558,-0.55270101 151.254737,6.95178914 C143.614615,14.4720281 136.423575,22.4329648 129.718704,30.793544 C124.720511,37.0746631 117.221873,40.8663625 109.187686,41.1750889 C104.92909,41.3117185 100.735211,40.1094813 97.1992949,37.7384395 C92.0230074,34.302731 85.3672579,33.9997453 79.8986818,36.9508741 C75.850299,38.8870391 72.0435325,41.2900111 68.5563712,44.1105602 C61.955632,49.0536776 56.9618443,55.8272616 54.199016,63.5849065 C52.2116274,68.3497515 54.4571534,73.8207387 59.2240903,75.8279698 C67.335996,79.9805878 75.8786224,82.987656 84.2776752,86.567499 C90.8820586,89.2881798 97.3428684,92.295248 103.875465,95.373913 C112.561665,99.4549341 115.935643,108.476139 122.540027,114.776662 C117.819497,115.492278 114.168911,119.280018 113.638467,124.012658 C112.920599,129.382422 116.868872,131.172344 120.817144,133.606637 C117.8021,135.181768 114.858842,136.470511 113.638467,139.763967 C112.975925,142.884803 113.738743,146.13788 115.720283,148.641978 C105.938949,154.036518 96.6438103,160.264793 87.9388007,167.257162 C69.5610569,182.134107 53.13609,199.261329 39.0520062,218.234127 C26.8529,234.39932 17.1721199,252.309659 10.3372958,271.358998 C2.23979494,292.4261 -1.11762393,315.010391 0.502507433,337.514498 C1.43256074,351.412811 6.23057975,364.777011 14.3573552,376.105207 C19.8329658,382.860369 26.7483349,388.314438 34.6012261,392.071307 C36.7548294,393.073663 38.9802194,393.932825 41.2056095,394.720391 C83.687483,415.875249 132.477511,420.741344 178.318352,408.395391 C220.002605,417.76872 263.717409,409.163281 298.704775,384.69683 C300.151009,383.698814 301.393506,382.435306 302.365901,380.973793 C303.562372,379.849919 304.689116,378.654426 305.739879,377.39395 L307.462762,375.532432 C307.587071,375.244857 307.756718,374.978974 307.96527,374.744866 C315.188078,365.151953 320.100624,354.029975 322.322625,342.239891 C324.690938,327.533607 323.709521,312.484242 319.451154,298.207821 C310.505682,267.544296 294.22122,239.50887 272.000095,216.515803 Z"/>
        <path fill="#FEFEFE" fill-rule="nonzero" d="M12.0601784,321.763189 C12.2142266,297.756549 19.729272,274.371637 33.5962112,254.748527 C44.5927927,238.488931 57.7818542,223.816972 72.791791,211.146038 C72.791791,211.146038 72.791791,210.788054 73.437872,210.215279 C69.8007633,210.628722 66.258418,211.645057 62.9570027,213.222347 C59.5019746,214.817679 56.1671552,216.660137 52.9786408,218.735305 C55.537011,214.336134 58.4415364,210.146487 61.6648407,206.205854 C69.2436797,196.471945 94.065815,165.6398 107.680164,163.772781 C111.504832,163.248281 89.9660832,196.29905 98.108594,199.571212 C103.765409,201.844468 134.533804,164.435861 136.394875,163.772781 C140.702081,162.412441 149.388281,174.703235 148.885774,178.283079 C148.144217,182.874209 147.8318,187.524109 147.952546,192.17287 C147.952546,197.685828 155.059436,200.549702 156.423385,196.397084 C158.012459,192.775141 159.834865,189.259549 161.87918,185.872346 C164.827506,180.102823 168.735461,174.873722 173.436851,170.407424 C176.325229,166.961687 180.857515,165.345339 185.281669,166.183209 C188.927233,167.044077 192.259021,168.903951 194.901097,171.552974 C202.865775,179.747297 209.328663,189.270589 213.99638,199.69054 C214.539731,200.969368 215.31895,202.135104 216.293556,203.127189 C216.541902,201.73001 216.541902,200.300154 216.293556,198.902975 C215.551988,192.305398 216.187467,185.626149 218.160013,179.285435 C219.165027,175.27601 220.600763,174.846429 223.615808,177.7819 C227.524746,181.333457 231.171427,185.161913 234.527398,189.237398 C235.277096,190.453391 236.344068,191.443298 237.614229,192.101273 L237.614229,192.745645 C237.52105,192.539439 237.400309,192.346764 237.255295,192.17287 C237.204156,191.262799 236.933248,190.378536 236.465641,189.595383 C233.2243,183.059118 229.250671,176.910282 224.620822,171.266586 C224.764396,170.693811 223.615808,170.335827 224.549036,169.405068 C234.245188,178.714624 242.997633,188.954753 250.679422,199.976928 C252.798936,202.658422 254.69561,205.507879 256.350577,208.496954 L255.84807,208.926535 C251.308669,206.747514 247.063551,204.005109 243.213597,200.764493 L241.347141,199.47575 L240.916421,199.117765 C240.557487,199.117765 240.916421,199.618943 240.916421,199.905331 C243.215221,203.424823 246.076748,206.544827 249.38726,209.141326 C261.560771,219.997742 272.317424,232.337573 281.404162,245.870516 C294.441659,264.949043 304.352483,285.974974 310.764954,308.159785 C314.299759,319.786345 314.671389,332.141228 311.841755,343.958216 C309.07103,355.214048 301.91411,364.903156 291.956818,370.878636 C291.90278,370.095031 225.493286,384.994284 226.128345,384.529771 C230.958664,379.602139 197.171968,365.831336 126.823304,369.017117 C108.853573,369.830887 143.997699,382.363081 142.377106,390.496176 C141.104176,396.884491 105.322925,398.283536 96.9121478,397.655862 C90.9986384,397.214553 8.37512388,394.076019 12.0601784,321.763189 Z M123.233966,358.277588 C132.154483,358.277588 98.108594,318.899314 94.5192552,280.714322 C90.9299164,242.529329 107.029111,211.504022 98.108594,211.504022 C89.1880771,211.504022 75.3761149,235.369643 81.3583463,280.714322 C87.3405776,326.059001 114.313449,358.277588 123.233966,358.277588 Z"/>
        <path fill="#C4C3C6" fill-rule="nonzero" d="M139.62528 65.6612155C145.97971 77.2611756 148.492449 90.5685215 146.803957 103.679149 146.837066 104.012452 146.837066 104.348202 146.803957 104.681505 146.229663 106.185039 146.014303 108.118154 144.219633 108.762526 142.424964 109.406898 140.917442 107.974961 139.697066 106.686217 136.583164 103.12058 133.974513 99.1456852 131.944094 94.872735 125.626858 83.4172371 119.381409 71.8901424 113.638467 60.0766603 113.452389 59.6131051 113.308242 59.1338847 113.207746 58.6447231 114.571695 58.6447231 115.863857 60.0050635 117.299592 58.6447231L111.987371 55.2080737C111.312056 53.5224158 111.407609 51.6268118 112.249032 50.0172054 113.090454 48.4075991 114.594024 47.2441469 116.366364 46.831241 122.508653 44.9855736 127.894002 41.2207826 131.728734 36.0917117 135.174499 32.3686749 138.261331 28.4308476 141.563522 24.564617 142.568537 23.4190673 148.096119 17.0469466 148.885774 16.4741717 153.529838 12.5645479 159.126239 9.94663151 165.109585 8.88490439 172.197705 7.81487669 179.276663 10.872457 183.343426 16.7605592 184.857428 18.5089068 187.68458 23.8501376 189.03851 30.1253066 190.36193 36.2590615 190.232003 43.3213508 190.019596 45.6856912 189.793459 49.7685213 185.064209 75.1795773 183.343426 80.2669752 180.81874 89.1336053 177.750053 97.8370981 174.154719 106.328233 172.988095 109.407153 171.340576 112.282683 169.273218 114.848259 166.545321 117.855327 164.176357 117.640537 162.09454 114.275484 159.726002 109.982894 158.054189 105.343201 157.141253 100.528887 154.260971 88.0787173 149.41472 76.1643123 142.783898 65.2316343 139.828918 60.7208972 136.306615 56.6063744 132.303028 52.988571 131.944094 52.988571 131.585161 51.986215 130.867293 52.3441993 134.983068 58.0719482 137.902397 62.5109536 139.62528 65.6612155zM226.200132 50.411084C228.539638 51.3992667 229.656484 54.072606 228.712669 56.4252204 228.177893 58.1949563 227.353169 59.8642332 226.271918 61.3654038 225.195117 62.7257442 224.190102 64.1576814 223.1133 65.5896186 223.759381 66.2339904 224.046528 65.5896186 224.549036 65.5896186 230.076617 62.3677599 234.958118 58.4299325 240.27034 54.7784926 240.98734 54.0450787 241.971182 53.6319254 242.998237 53.6329428 249.336036 53.2789936 255.056131 57.4009038 256.709511 63.5133097 256.856298 63.8125676 257.113577 64.0435058 257.427379 64.1576814 258.863115 64.7304563 259.222049 66.0907967 259.724556 67.3079433 261.759588 71.0379311 260.494996 75.7045408 256.853085 77.9042788 251.090908 76.2790573 244.93838 76.7354726 239.480685 79.1930223 238.834604 79.1930223 238.332097 79.9805878 237.614229 79.7657972 237.42746 79.3269809 237.066304 78.9852698 236.617101 78.8223555 236.167898 78.6594411 235.671024 78.6899668 235.245265 78.9066349L235.245265 78.9066349C234.02489 77.7610851 233.522383 78.9066349 233.235236 79.7657972 232.948088 80.6249595 233.235236 81.4841219 232.804515 82.3432842 231.111818 84.2653438 229.064701 85.8452319 226.774426 86.9970802 225.912984 84.9923681 225.841198 84.9923681 223.974741 86.6390959L224.90797 86.9970802C225.328238 87.0857269 225.645554 87.430974 225.697624 87.8562425 223.952695 90.0851532 221.953088 92.1034987 219.739322 93.8703789 213.924593 100.027709 207.96629 106.113442 202.007988 112.127579 200.521298 114.08465 198.42582 115.494726 196.049686 116.137003 193.321788 116.638181 192.675707 116.137003 193.321788 113.273128 194.415963 109.374578 196.03387 105.641561 198.131502 102.175615 199.410661 99.2774541 201.024834 96.5382161 202.941216 94.0135726L203.659084 94.0135726C204.664099 94.0135726 206.315195 95.1591224 206.602342 94.0135726 206.889489 92.8680228 204.664099 93.4407977 203.802657 92.6532323 205.884474 88.2858237 208.684158 84.3479963 210.981335 80.1237815 211.412056 79.4794098 212.129923 78.9066349 211.98635 77.6894882 209.72796 79.8763684 207.68468 82.2738679 205.884474 84.8491744 201.936201 89.6461641 198.131502 94.5863475 194.183229 99.1685467 193.556349 99.9487531 192.832697 100.646433 192.029626 101.244856 190.665677 102.318809 189.588876 102.247212 189.158155 100.314096 189.189926 99.9089996 189.189926 99.5020467 189.158155 99.0969498 191.639507 87.0907626 195.872061 75.5121836 201.720841 64.7304563 205.755969 55.0383052 215.748959 49.1928199 226.200132 50.411084zM242.71109 63.1553254C240.413913 63.1553254 239.337112 65.5896186 237.470655 66.6635716 236.824574 66.6635716 235.81956 67.5227339 236.393854 68.5966868 236.968148 69.6706397 237.757802 68.5966868 238.403883 68.5966868 240.569611 67.3347883 243.130178 66.9261815 245.582561 67.451137 246.587576 67.451137 247.520804 66.0907967 247.520804 64.8020532 247.520804 63.5133097 246.731149 62.9405348 245.438988 63.5133097 244.575685 63.9494232 243.550199 63.9225082 242.71109 63.4417128L242.71109 63.1553254zM216.22177 76.257551C216.903023 77.5659814 217.85772 78.7134703 219.021454 79.6226035 219.236814 77.7610851 219.236814 77.7610851 216.22177 76.5439384L216.22177 76.257551zM91.1692057 46.7596441C97.0169927 48.2921407 102.114565 51.8764219 105.526561 56.8548015 114.884039 70.2704088 121.674299 85.2956832 125.555071 101.173259 125.555071 101.173259 125.555071 101.817631 125.555071 102.175615L118.376394 95.0159287C118.950688 95.0159287 118.807114 94.3715569 118.376394 94.0135726 112.942127 87.1549374 106.419035 81.2295485 99.065751 76.4723416 97.0683515 75.2719644 82.8264385 71.9947025 77.7690075 65.9237373 77.1230556 65.1483336 78.1267518 63.1685984 77.7690075 62.3438943 76.6857525 59.8466787 75.0502665 52.9049561 76.5725612 50.411084 78.8992836 46.5993726 85.2715361 47.6557001 86.1441313 47.5472096L91.1692057 46.7596441zM109.403047 74.3244357C110.134712 74.1894573 110.854748 73.9979554 111.55665 73.7516608 112.274518 73.7516608 112.705238 72.8209016 112.202731 72.104933 111.700224 71.3889644 111.197716 71.5321581 110.766996 72.104933 110.336275 72.6777079 109.044113 73.178886 108.398032 71.6753519 107.751951 70.1718178 106.388002 69.9570272 105.024053 69.5990429 103.660105 69.2410586 103.660105 69.5990429 103.731891 70.6013989 105.332201 72.2342793 107.266476 73.5041043 109.403047 74.3244357L109.403047 74.3244357zM99.2811114 70.1002209C98.7786039 70.1002209 98.2043097 70.4582052 98.5632436 70.8161895 98.9221775 71.1741738 99.711832 73.3936765 101.147568 73.680064 102.583303 73.9664514 101.865435 72.9640954 101.865435 72.3913205 101.865435 71.8185456 100.501487 70.4582052 99.2811114 70.1002209L99.2811114 70.1002209zM98.4196701 65.2316343C99.8554056 66.6635716 101.578288 66.5203778 103.014024 67.0215559 101.865435 65.7328124 100.501487 64.7304563 98.4196701 65.2316343L98.4196701 65.2316343z"/>
        <path fill="#FEFEFE" fill-rule="nonzero" d="M226.200132 50.411084C215.748959 49.1928199 205.755969 55.0383052 201.720841 64.7304563 196.016151 75.4648671 191.905305 86.9689035 189.517089 98.8821592 189.54886 99.2872561 189.54886 99.694209 189.517089 100.099306 188.723884 96.2735443 188.723884 92.3263758 189.517089 88.5006143 190.46366 78.0405483 192.361859 67.6879833 195.188244 57.5707702 196.054735 54.5912619 197.335411 51.7474904 198.992943 49.1223405 200.908405 45.1072397 205.635444 43.2842866 209.76096 44.9697226 214.283527 46.3300629 218.806094 47.7620001 223.256874 49.2655342 224.342893 49.288355 225.385678 49.6942189 226.200132 50.411084L226.200132 50.411084zM91.1692057 46.7596441L86.1441313 47.5472096C82.9835429 47.8922773 80.1544008 49.6591096 78.4629463 52.3441993 78.0322256 52.988571 77.8168653 53.4181522 78.4629463 54.062524 80.5447628 55.7808486 78.8936669 56.2820267 77.4579314 56.7116078L77.4579314 56.7116078C77.4579314 54.8500894 76.0221959 53.6329428 75.7350488 51.8430212L74.4428868 53.2033616C73.0352948 54.8527971 72.4520464 57.0490986 72.8564804 59.1771918 73.2609144 61.305285 74.6095506 63.1363811 76.5247033 64.1576814 76.955424 64.1576814 77.4579314 64.87365 77.8886521 64.1576814 78.0681654 63.796818 78.0681654 63.3729951 77.8886521 63.0121316 77.1707843 61.6517913 77.8886521 60.5778383 78.4629463 59.2890948 79.4679612 60.9358227 81.6933512 62.1529693 80.3294025 64.6588594 78.9654537 67.1647496 80.8319099 66.3055873 81.5497777 66.7351684 87.2927198 69.9570272 93.1074486 72.9640954 98.7068172 76.3291479 106.060101 81.0863547 112.583193 87.0117437 118.01746 93.8703789 118.01746 94.2283632 118.448181 94.5863475 118.01746 94.872735 107.398038 85.6835157 95.251089 78.4146278 82.1240719 73.3936765 77.3861446 71.3889644 72.7200042 69.3126554 67.7667167 67.1647496 65.9558428 66.4250384 64.6038228 64.8728724 64.1225536 62.9811238 63.6412845 61.0893753 64.0877623 59.0820812 65.3259663 57.5707702 68.7404178 52.0290466 74.3004741 48.1421212 80.6883364 46.831241 84.1182335 45.9131036 87.7270203 45.8884513 91.1692057 46.7596441zM256.853085 77.9758757C260.494996 75.7761376 261.759588 71.109528 259.724556 67.3795402 259.222049 66.1623935 258.863115 64.8020532 257.427379 64.2292783 257.113577 64.1151027 256.856298 63.8841644 256.709511 63.5849065 255.056131 57.4725007 249.336036 53.3505904 242.998237 53.7045396 247.019916 51.4546454 251.880361 51.2681997 256.06343 53.2033616 264.192288 57.7147984 268.635136 66.8056886 267.190381 75.9711636 266.786146 78.5939369 265.341109 80.9442992 263.180647 82.4930236 261.020184 84.041748 258.325913 84.6586427 255.704497 84.2048026 252.012566 83.7413425 248.2981 83.4784326 244.577546 83.4172371 248.506997 81.2589876 252.613699 79.4386153 256.853085 77.9758757L256.853085 77.9758757z"/>
        <path fill="#C4C3C6" fill-rule="nonzero" d="M172.288263 128.022082C174.885683 130.635039 177.694903 133.029729 180.687315 135.181768 175.547225 137.309168 169.615016 135.652543 166.32996 131.172344 168.268203 127.37771 168.411777 127.306113 171.570395 128.022082L172.288263 128.022082zM183.128066 128.022082L190.306743 132.890668C187.357521 134.265789 183.970819 134.369609 180.942486 133.177734 177.914153 131.985858 175.511196 129.603373 174.298292 126.590145 174.298292 126.590145 174.298292 126.590145 174.298292 126.23216 176.068815 125.573246 178.049965 125.813559 179.610514 126.876532 180.640088 127.603999 181.866444 128.003382 183.128066 128.022082zM152.116179 131.530328C154.456107 134.271603 157.161256 136.680525 160.156298 138.690014 160.515231 138.690014 161.161312 139.191192 161.017739 139.763967 160.874165 140.336742 160.156298 140.408339 159.65379 140.551533 155.659862 141.564008 151.426943 140.392821 148.52684 137.472868 147.880759 133.749831 147.880759 133.821428 151.326524 132.246297 151.613671 132.031506 151.829031 131.745119 152.116179 131.530328zM162.09454 130.026794C164.602865 132.350368 167.264978 134.503128 170.062873 136.470511 170.708954 136.900093 171.355035 137.544464 170.062873 138.045642 165.637214 139.252873 160.910587 137.802374 157.930907 134.322606 157.930907 131.02915 159.151283 130.098391 162.09454 130.026794zM136.394875 139.620773L142.855684 142.413051C140.570119 145.626424 136.110947 146.394316 132.877323 144.131376 131.728734 143.200616 130.651933 142.126664 129.503344 141.124307 128.354756 140.121951 129.503344 139.191192 131.226227 139.119595 132.96 139.144554 134.68875 139.312183 136.394875 139.620773zM142.855684 135.181768C145.393961 136.823005 147.79471 138.666691 150.034362 140.694726 150.034362 140.694726 151.039377 141.267501 150.75223 141.840276 150.465083 142.413051 149.962575 142.341454 149.460068 142.484648 148.505527 142.806551 147.471351 142.806551 146.51681 142.484648 144.328392 141.970249 142.208122 141.201281 140.199574 140.193548 139.122772 136.112527 139.481706 135.468155 142.855684 135.253365L142.855684 135.253365 142.855684 135.181768zM122.037519 117.998521C122.733379 117.926692 123.387353 118.341756 123.616828 119.000877 125.508252 122.071826 126.594474 125.568086 126.775447 129.167632 126.775447 130.885956 126.775447 131.02915 124.47827 130.313181L123.688615 129.740406 123.688615 129.740406C123.60284 129.249466 123.406478 128.784339 123.114321 128.380066 121.230116 125.249847 120.835689 121.44714 122.037519 117.998521zM203.730871 127.449307C199.716949 128.158538 195.705933 126.187324 193.824296 122.58072 193.393575 120.504411 195.260031 119.358862 198.418649 119.788443 196.911127 122.36593 198.84937 123.081898 200.572252 123.72627 202.295135 124.370642 203.802657 125.158207 203.730871 127.449307zM128.785476 142.627842C129.862278 143.701794 132.015881 144.632554 131.513374 146.064491 131.010866 147.496428 128.785476 147.210041 127.206167 147.353234 125.149104 147.767534 123.011339 147.437565 121.176078 146.422475 121.176078 142.413051 121.535012 142.126664 125.483285 142.484648 126.560086 142.627842 127.636888 143.487004 128.785476 142.627842z"/>
        <path fill="#FEFEFE" fill-rule="nonzero" d="M183.343426,124.084254 C183.848329,122.672424 185.065591,121.63319 186.542101,121.353396 C188.01861,121.073601 189.533208,121.595154 190.522104,122.723914 C192.741137,125.212083 195.274879,127.402182 198.059715,129.239228 C198.992943,129.955197 198.921157,130.026794 198.059715,130.527972 C194.667238,129.289679 191.456187,127.604123 188.512074,125.516192 C187.252106,124.018416 185.197424,123.449181 183.343426,124.084254 Z"/>
        <path fill="#C4C3C6" fill-rule="nonzero" d="M127.852248 121.005589C127.852248 118.92928 128.641903 118.356506 130.436572 119.072474 133.028432 119.980621 135.097562 121.965909 136.107728 124.513836 136.485946 125.415142 136.486211 126.43003 136.108465 127.331533 135.730718 128.233036 135.006473 128.945944 134.097698 129.310825 133.231434 129.799267 132.198268 129.898908 131.254218 129.585057 130.310168 129.271207 129.543579 128.573234 129.14441 127.664097 130.580146 127.019726 132.805536 127.664097 133.16447 125.372998 133.2289 123.764899 132.401367 122.25177 131.010866 121.435171 130.0718 120.837753 128.91741 120.680752 127.852248 121.005589zM186.14311 144.990538C183.462979 145.365876 180.733969 144.836639 178.390139 143.487004 176.667256 142.556245 176.667256 141.267501 178.390139 140.336742 180.022762 139.342922 181.957146 138.962146 183.845934 139.262789 184.994522 141.195904 186.645618 142.627842 186.14311 144.990538zM183.343426 124.084254C185.089297 123.60578 186.955932 124.161511 188.15314 125.516192 191.097253 127.604123 194.308304 129.289679 197.700781 130.527972 191.959533 132.503711 185.668386 129.680184 183.343426 124.084254L183.343426 124.084254zM202.438709 144.274569C199.932746 142.607387 198.596119 139.663477 198.992943 136.685302 199.782598 135.038574 201.07476 134.322606 202.797643 135.82614 202.797643 136.971689 203.443724 137.830852 203.802657 138.904805 204.720328 140.787113 204.144259 143.055053 202.438709 144.274569z"/>
        <path fill="#FEFEFE" fill-rule="nonzero" d="M128.785476,142.627842 C127.636888,143.773391 126.560086,142.627842 125.483285,142.627842 C121.535012,142.269857 121.176078,142.627842 121.176078,146.565669 C118.948754,145.584662 117.925221,143.000698 118.878901,140.766323 C120.252045,139.064895 122.674308,138.636769 124.550057,139.763967 C126.094815,140.506662 127.521845,141.471581 128.785476,142.627842 L128.785476,142.627842 Z"/>
        <path fill="#C4C3C6" fill-rule="nonzero" d="M194.61395,144.775747 C193.030322,144.502268 191.601026,143.662233 190.593891,142.413051 C189.517089,141.195904 188.15314,139.69237 189.588876,138.045642 C190.21461,137.360812 191.100633,136.970534 192.029626,136.970534 C192.958619,136.970534 193.844642,137.360812 194.470376,138.045642 C195.325266,140.199378 195.376216,142.587695 194.61395,144.775747 Z"/>
        <path fill="#FEFEFE" fill-rule="nonzero" d="M122.037519,117.998521 C120.699186,121.542081 121.069824,125.502704 123.042534,128.73805 C123.334691,129.142324 123.531053,129.60745 123.616828,130.098391 C121.251088,129.666793 119.294467,128.012035 118.480897,125.754817 C117.667327,123.497599 118.119785,120.979123 119.668556,119.144071 C120.386424,118.428102 121.032505,117.783731 122.037519,117.998521 Z"/>
        <path fill="#C4C3C6" d="M160.660221,282.318956 C171.631592,254.465052 182.569971,241.385342 193.475357,243.079827 C199.571972,244.027123 208.921697,253.232214 209.880257,249.706654 C211.493648,243.772637 200.171747,223.042775 188.596147,221.308018 C170.14317,218.542595 159.402475,237.242569 159.402475,256.898022 C159.402475,270.001658 159.821724,278.475303 160.660221,282.318956 Z" transform="rotate(-9 184.718 251.677)"/>
        <path fill="#000" fill-rule="nonzero" d="M183.41043,259.55655 C175.292904,273.020894 169.443348,289.640168 166.045021,308.893711 C166.090229,309.671918 166.090229,310.418799 166.045021,311.127541 C164.916325,303.238963 164.916325,295.994721 166.045021,289.840452 C167.39195,271.677903 170.093005,254.752997 174.114829,239.274752 C175.347808,234.75373 177.170153,230.934625 179.52875,227.928747 C182.254369,222.653866 188.98074,224.475933 194.85117,232.079346 C201.286586,239.520179 207.722002,247.092414 214.055269,254.717571 C215.600627,255.94672 217.084464,257.831605 218.243397,260.037652 C203.371832,246.376251 189.152242,246.179855 183.41043,259.55655 Z"/>
        <path fill="#FEFEFE" fill-rule="nonzero" d="M127.852248 121.005589C128.91741 120.680752 130.0718 120.837753 131.010866 121.435171 132.401367 122.25177 133.2289 123.764899 133.16447 125.372998 132.805536 127.449307 130.580146 127.019726 129.14441 127.664097 127.967723 125.655465 127.511985 123.307049 127.852248 121.005589L127.852248 121.005589zM202.438709 144.274569C204.144259 143.055053 204.720328 140.787113 203.802657 138.904805 203.443724 137.830852 202.725856 136.971689 202.797643 135.82614 204.512085 137.022371 206.057393 138.443183 207.391996 140.050355 207.946738 140.662425 208.174157 141.502375 208.003733 142.309749 207.833308 143.117123 207.285641 143.794329 206.530555 144.131376 205.31018 144.918941 203.874444 146.279281 202.438709 144.274569zM136.394875 139.620773C134.68875 139.312183 132.96 139.144554 131.226227 139.119595 129.718704 139.119595 129.287984 139.835564 129.503344 141.124307 128.004969 140.294031 126.667774 139.202857 125.555071 137.902449 129.216197 135.038574 131.082653 135.396559 136.394875 139.620773zM203.730871 127.449307C203.730871 125.158207 202.151562 124.442239 200.356892 123.72627 198.562223 123.010302 196.695767 122.36593 198.203289 119.788443 201.309274 119.56295 204.15115 121.532083 205.023033 124.513836 205.381966 125.802579 205.52554 127.091323 203.730871 127.449307z"/>
        <path fill="#C4C3C6" fill-rule="nonzero" d="M144.07606,123.368286 C144.913961,123.275511 145.744565,123.596185 146.30145,124.227448 C147.306465,125.158207 147.234678,126.01737 145.870729,126.446951 C144.009308,126.913702 142.060995,126.913702 140.199574,126.446951 C138.692051,126.446951 138.476691,124.943417 138.476691,123.72627 C138.476691,122.509123 138.476691,121.649961 139.984213,121.793155 C139.853141,123.183587 140.826873,124.436691 142.209603,124.657029 C143.573552,125.08661 143.932486,124.442239 144.07606,123.368286 Z"/>
        <path fill="#FEFEFE" fill-rule="nonzero" d="M142.496751 135.038574C139.122772 135.038574 138.763838 135.897737 139.84064 139.978758 138.336537 139.240697 136.956207 138.274607 135.748794 137.114883 134.097698 135.754543 134.815566 134.823784 136.394875 134.322606 138.402291 133.399718 140.758898 133.676232 142.496751 135.038574L142.496751 135.038574zM162.09454 130.026794C159.151283 130.026794 158.218055 131.02915 157.64376 134.322606 157.424209 134.221218 157.228531 134.074847 157.069466 133.893024 155.992664 132.604281 153.695488 131.530328 155.777304 129.382422 157.746169 127.983248 160.45042 128.259087 162.09454 130.026794L162.09454 130.026794zM152.116179 131.530328C152.116179 131.530328 151.613671 132.031506 151.326524 132.103103 147.880759 133.678234 147.880759 133.606637 148.52684 137.329674L148.096119 137.329674C146.875744 135.897737 144.650354 134.752187 145.870729 132.317893 147.091104 129.8836 149.603641 130.384778 152.116179 131.530328zM183.128066 128.022082C181.866444 128.003382 180.640088 127.603999 179.610514 126.876532 178.049965 125.813559 176.068815 125.573246 174.298292 126.23216 174.989737 124.979936 176.243535 124.136466 177.666674 123.966141 179.089813 123.795816 180.508103 124.319484 181.47697 125.372998 182.234278 126.109668 182.80088 127.018746 183.128066 128.022082zM172.288263 128.022082L171.283248 128.022082C168.12463 127.306113 167.981056 127.37771 166.042813 131.172344 165.109585 129.955197 163.530276 128.809647 165.396732 127.234516 167.536361 125.620058 170.570243 125.966771 172.288263 128.022082L172.288263 128.022082zM194.61395 144.775747C195.440214 142.583396 195.440214 140.166397 194.61395 137.974046 196.453349 139.280213 197.693751 141.264761 198.059715 143.487004 198.418649 145.205329 197.341848 145.563313 194.61395 144.775747zM186.14311 144.990538C186.717405 142.627842 184.994522 141.195904 183.845934 139.47758 185.648749 139.249631 187.328896 140.428829 187.72242 142.19826 188.224927 143.487004 187.93778 144.847344 186.14311 144.990538zM144.07606 123.368286C144.07606 124.442239 143.286405 125.08661 142.209603 124.87182 140.826873 124.651482 139.853141 123.398377 139.984213 122.007945 141.494854 121.682905 143.063089 122.204267 144.07606 123.368286z"/>
        <path fill="#BFAF9F" fill-rule="nonzero" d="M126.847233,101.674437 C126.83424,101.865142 126.83424,102.056507 126.847233,102.247212 L126.847233,102.247212 L126.847233,101.60284 L126.847233,101.674437 Z"/>
        <path fill="#FEFEFE" fill-rule="nonzero" d="M142.855684 135.181768L142.424964 135.181768 142.855684 135.181768zM123.688615 130.026794L124.47827 130.599569C124.119336 130.599569 123.616828 130.671166 123.688615 130.026794zM153.19298 157.806376C154.413355 158.307554 154.054422 159.524701 154.413355 160.312266 154.534841 160.590385 154.485362 160.91337 154.286152 161.14262 154.086941 161.37187 153.773419 161.466623 153.480127 161.386219 152.690473 161.386219 151.685458 160.741847 151.757245 159.596298 151.829031 158.450748 152.475112 158.307554 153.19298 157.806376zM175.265324 58.6725248C175.233214 72.2833867 174.026251 85.8666161 171.657618 99.2738467 171.412 101.272501 170.649447 103.174485 169.443799 104.795626 168.541872 106.013666 167.557952 106.257274 166.410046 104.795626 164.255566 102.414484 162.560324 99.6621983 161.408453 96.6753621 156.980814 86.8498422 153.209122 76.6183091 148.371516 67.0363971 146.228536 62.6826956 143.790497 58.4776175 141.07411 54.4499874 136.741585 47.2484991 137.498892 38.1180196 142.959957 31.7132471 145.829723 28.546344 149.027462 25.6230488 152.143208 22.6997536 154.150333 20.7643255 156.640264 19.3912561 159.35862 18.7208241 163.867817 18.3935596 168.07503 20.9854078 169.771772 25.135833 173.97028 35.8060353 175.842437 47.2350559 175.265324 58.6725248z"/>
        <path fill="#C4C3C6" fill-rule="nonzero" d="M290.162149,280.881381 C287.588272,276.960808 283.860281,273.789752 279.968427,271.072611 C278.748052,270.213449 278.317331,270.499836 278.389118,271.931773 C278.353422,272.432319 278.353422,272.934762 278.389118,273.435307 C279.335356,281.724836 278.947606,290.111909 277.240529,298.279418 C274.995785,310.413292 270.093388,321.903445 262.883174,331.929943 C255.903564,341.214562 246.695985,348.60053 236.106707,353.409002 C234.596418,353.624539 233.137396,354.109593 231.7995,354.840939 C228.82893,356.276799 225.728128,357.427533 222.539006,358.277588 C215.100017,360.385658 207.437687,361.611271 199.710811,361.929028 C189.857958,362.536621 179.968316,362.104644 170.206446,360.640285 C155.62458,358.630211 141.726301,353.208275 129.646918,344.817378 C120.207815,338.4278 112.431449,329.88661 106.962296,319.90167 C105.885495,317.825361 104.736906,315.892246 103.660105,313.815937 C104.022319,328.806219 109.038688,343.315202 118.01746,355.342117 C88.7284553,340.091985 69.8485332,317.39578 67.335996,283.745255 L67.335996,281.024575 C67.4080746,280.840417 67.4080746,280.635958 67.335996,280.4518 C65.6005275,258.666085 72.9204945,237.126721 87.5798669,220.883211 C87.5798669,222.028761 84.9476851,241.336048 91.6717131,262.051406 C92.1596516,264.290681 93.1404513,266.393822 94.5431841,268.208736 C94.5192552,254.462139 104.369238,217.726689 117.251734,197.18465 C125.038117,184.76872 139.996814,174.811412 141.707096,174.202057 C146.014303,172.841717 149.388281,174.703235 148.885774,178.283079 C148.144217,182.874209 147.8318,187.524109 147.952546,192.17287 C147.952546,197.685828 147.952546,203.127189 147.952546,208.640148 L151.541884,208.640148 C151.541884,204.129546 154.844076,200.764493 156.208025,196.611875 C157.797099,192.989931 159.619505,189.47434 161.66382,186.087136 C164.612145,180.317613 168.520101,175.088512 173.221491,170.622214 C176.109868,167.176478 180.642155,165.56013 185.066309,166.398 C188.711873,167.258868 192.043661,169.118741 194.685737,171.767764 C202.650415,179.962088 209.113303,189.485379 213.781019,199.905331 C214.324371,201.184159 215.10359,202.349895 216.078196,203.34198 C216.326542,201.944801 216.326542,200.514944 216.078196,199.117765 C215.375879,192.43453 216.085047,185.678677 218.160013,179.285435 C219.165027,175.27601 220.600763,174.846429 223.615808,177.7819 C227.524746,181.333457 231.171427,185.161913 234.527398,189.237398 C235.277096,190.453391 236.344068,191.443298 237.614229,192.101273 C237.56309,191.191202 237.292182,190.306939 236.824574,189.523786 C233.583234,182.987521 229.609605,176.838685 224.979756,171.194989 C224.620822,170.693811 223.472234,170.335827 224.405462,169.405068 C218.195296,163.007349 210.905646,157.748452 202.869429,153.868549 C202.223348,153.868549 201.505481,152.794596 200.8594,153.367371 C200.213319,153.940146 200.8594,154.727711 201.218333,155.372083 C204.654285,163.958337 207.602219,172.730935 210.048107,181.648131 C211.268482,186.087136 211.412056,187.017896 210.909548,188.807817 L210.335254,187.877058 C207.132483,180.401545 203.289633,173.215263 198.84937,166.398 C195.365904,160.254082 190.439038,155.04542 184.492015,151.219465 C181.927578,149.685381 178.885408,149.149948 175.949388,149.715931 C171.207388,150.854735 167.091288,153.779698 164.463504,157.877973 C158.888269,166.102693 155.008348,175.350929 153.049407,185.08478 C152.475112,187.662267 151.900818,190.239754 151.326524,193.032032 C150.824017,191.24211 151.685458,189.810173 151.685458,188.306639 C151.693551,179.833092 152.608025,171.384585 154.413355,163.104544 C156.136238,154.870905 151.18295,150.431899 142.999258,152.365015 C138.996705,153.465459 135.260017,155.365397 132.015881,157.94957 C122.451732,165.570448 114.41469,174.92219 108.326245,185.514362 C106.029068,189.237398 103.947252,192.674048 101.147568,197.327844 C105.100246,181.112131 112.988948,166.114077 124.119336,153.653758 C116.450043,157.192246 109.222223,161.613582 102.583303,166.827581 C102.583303,166.827581 93.7523282,176.130532 84.9476851,186.445121 C77.6343615,195.012637 70.1802275,204.827821 69.2742389,205.561483 C68.802107,205.841016 68.6422893,206.446717 68.9153051,206.921823 C69.2742389,207.566195 69.9203199,206.921823 70.4946141,206.921823 L86.1441313,204.48753 C86.6726406,204.268759 87.2667179,204.268759 87.7952272,204.48753 C87.7952272,206.349048 85.928771,206.99342 84.7801826,208.067373 C81.4062041,211.217635 77.9604389,214.2963 74.8018207,217.661352 C69.4178125,223.460698 63.9620175,229.188447 59.00873,235.345777 C55.9218986,239.212008 52.6197069,242.935044 49.8918094,247.087662 C27.5182642,281.907603 21.3847374,304.072635 20.6745915,316.03544 C17.8035066,364.400473 75.192522,388.432412 112.465949,394.076019 C126.139724,396.146379 141.640462,391.488079 144.004273,390.710966 C146.014303,390.066595 145.942516,389.279029 144.578567,387.703898 C140.876252,383.643946 137.582214,379.231541 134.743779,374.530076 C135.566024,374.88105 136.338381,375.338424 137.040956,375.890416 C137.83061,376.534788 138.548478,377.250756 139.338132,377.823531 C150.30637,385.437678 162.599861,390.949044 175.590454,394.076019 C183.940634,396.228068 192.522482,397.358068 201.146547,397.441071 C228.006162,399.215188 254.795219,393.064776 278.173757,379.756647 C279.552532,379.301859 280.858183,378.65076 282.050243,377.823531 L287.147104,374.028898 L288.654627,372.740154 C289.329882,372.566911 289.94835,372.221485 290.449296,371.737798 C290.449296,371.165023 291.167164,371.23662 291.669671,371.093426 C291.615633,370.309822 291.967841,369.553228 292.602899,369.088714 C298.636219,363.061142 318.254707,323.672438 290.162149,280.881381 Z"/>
        <polygon fill="#BFAF9F" fill-rule="nonzero" points="102.44 167.4 102.368 167.4 102.44 167.4"/>
        <path fill="#000" d="M57.4569115,413.52031 C54.5330895,411.866677 61.618903,359.853175 73.4602287,352.921405 C91.2222174,342.52375 88.5723699,348.622842 111.173875,340.452685 C133.775379,332.282529 144.168087,330.956617 127.367313,341.546506 C116.166796,348.606432 80.486509,370.207936 57.4569115,413.52031 Z" transform="rotate(-118 96.23 373.742)"/>
        <path fill="#000" d="M262.575542,396.565056 C260.931429,394.91147 264.876184,343.01321 271.525092,336.109314 C281.498454,325.753468 280.013788,331.836958 292.708127,323.709582 C305.402465,315.582207 311.241347,314.270962 301.808242,324.819749 C295.519506,331.852274 275.48552,353.368319 262.575542,396.565056 Z" transform="rotate(178 284.334 356.913)"/>
      </g>
      <g transform="rotate(14 -622.597 315.56)">
        <path fill="#000" fill-rule="nonzero" d="M155.167195,14.7652135 C174.415739,24.9318515 189.494843,46.5609377 193.340709,73.7413166 C197.265399,101.478783 187.91442,122.052106 196.587685,150.424607 C205.260949,178.797107 222.933343,188.819635 234.191136,202.604315 C164.707912,203.526175 112.184696,235.854609 102.807113,236.711633 C97.7075909,237.152805 83.4180715,238.35492 78.4616184,237.061947 C63.8363302,235.362283 52.5618384,232.893724 44.6381432,229.656269 C36.4268946,226.329784 28.1517452,220.16648 19.812695,211.166355 C-4.31783246,182.842672 -6.54637173,128.841925 15.3556164,78.9325118 C41.5709064,19.3471553 93.4862864,-14.2940475 132.36591,6.27188448 C137.290263,8.84566109 149.547921,11.7908019 155.167195,14.7652135 Z"/>
        <path fill="#C4C3C6" d="M79.9746413,222.936591 C92.610873,222.262333 123.725895,201.934707 142.970518,169.070881 C160.81935,138.579443 167.477149,96.3009784 164.228538,73.3137804 C160.399377,46.2560629 155.520285,29.6992869 133.348207,14.703293 C138.610215,15.3276058 144.465126,18.2618761 149.208345,20.7716136 C182.979076,38.4396664 189.377481,100.071828 164.809089,155.410916 C152.728703,182.693386 135.16397,203.944995 116.351672,216.381306 C99.7504057,227.369212 93.5496351,226.20799 89.1769801,225.121685 C83.952028,223.935491 80.8886991,223.186316 79.9746413,222.936591 Z"/>
        <path fill="#D8D8D8" d="M143.67459,145.022351 C167.687136,90.0828227 160.06587,31.1601789 126.640999,13.3797498 C93.2161275,-4.40067923 46.6485873,25.7161711 22.6236892,80.6307267 C-1.40120891,135.545282 6.2324091,194.492899 39.6572802,212.273328 C73.0821512,230.053757 119.649692,199.961879 143.67459,145.022351 Z"/>
        <path fill="#C4C3C6" d="M143.67459,145.022351 C167.687136,90.0828227 160.06587,31.1601789 126.640999,13.3797498 C93.2161275,-4.40067923 46.6485873,25.7161711 22.6236892,80.6307267 C-1.40120891,135.545282 6.2324091,194.492899 39.6572802,212.273328 C73.0821512,230.053757 119.649692,199.961879 143.67459,145.022351 Z"/>
        <path fill="#FFF" d="M111.47258,22.8568184 C84.2237749,19.7227681 52.5034982,46.5807055 36.3222043,88.9216009 C17.8928224,137.131037 26.613428,187.101035 55.8015176,200.52376 C57.3997602,201.265431 59.051471,201.8832 60.7423707,202.371726 C56.897548,201.942949 53.1448665,200.897649 49.6254513,199.275135 C20.4373617,185.839923 11.716756,135.882411 30.1584901,87.6729753 C47.5749972,42.1355983 82.9885617,14.4535679 111.460228,22.8568184 L111.47258,22.8568184 Z"/>
        <path fill="#FFF" d="M48.2420124,215.120194 C79.2088091,220.439339 117.216321,191.084151 138.412581,142.849742 C162.585705,87.9102141 155.829088,29.2248092 123.305923,11.8064815 C121.531561,10.8408364 119.690403,10.0062402 117.796872,9.30923027 C122.149415,10.0608038 126.356252,11.5064063 130.260173,13.5920162 C162.783339,31.0727751 169.552308,89.6832625 145.366832,144.697708 C122.527738,196.615562 80.2463882,226.657495 48.2173081,215.13268 L48.2420124,215.120194 Z"/>
        <path fill="#000" fill-rule="nonzero" d="M89.2263887,192.12051 C104.604794,180.24608 118.36507,160.542767 126.813928,135.932356 C143.538716,87.1360662 133.051755,37.4657384 103.344876,25.0044545 C98.4430044,22.9449471 93.1606135,21.9740837 87.855302,22.1575881 C97.8975858,19.6603368 107.791644,20.496916 116.635771,25.3415834 C145.045676,40.9119451 151.826997,91.7809536 131.693021,138.966516 C121.267821,163.364661 105.753542,181.994156 89.1769801,192.145482 L89.2263887,192.12051 Z"/>
        <g fill-rule="nonzero" transform="translate(23.966 38.443)">
          <path fill="#000" d="M1.30997061,108.724006 C6.28874,107.494443 11.3439099,106.225638 16.462747,104.982995 C16.9466172,104.865271 17.0866849,104.629822 17.1885523,103.844995 C20.4865095,80.0254767 21.1359142,54.6493841 24.4338714,30.8429466 C24.4338714,30.5159351 27.1842913,31.7978202 27.235225,31.4054064 C27.4644267,31.4054064 27.5280938,31.6800961 27.6299612,31.8501421 C36.7216271,46.5787402 46.1019172,61.7913153 55.7708317,77.4878675 C56.1783013,78.1418905 56.1783013,78.1418905 56.8022391,77.2000973 C72.2860846,54.0738438 88.9414052,27.101935 98.5042078,4.0149229 C98.6570089,3.67483094 105.227457,4.78667005 105.431191,4.45965855 L105.571259,4.45965855 L105.431191,5.4930149 C101.780943,31.819621 98.130694,58.1505872 94.4804453,84.4859136 C94.3021774,85.7939596 106.20793,77.6971548 107.112003,77.474787 C113.478716,75.9051318 107.939676,82.2883963 114.49739,80.6664193 C112.579742,86.2645998 110.352,91.7455407 107.825075,97.0823967 C107.124737,98.5735692 106.373465,100.038581 105.673126,101.529753 C105.520242,102.032084 105.1168,102.41157 104.616252,102.523868 C95.6519205,104.503378 86.8828348,106.465447 78.3089949,108.410075 C77.7359907,108.54088 71.6748802,104.969914 71.8022144,104.106604 C74.0305639,88.1092011 82.1799563,75.4996375 84.3955723,59.5022348 L84.5738403,58.1941888 C84.2682381,58.6127635 84.0772367,58.8874532 83.8862353,59.1752233 C73.33447,74.7671318 63.0288842,90.0015077 52.9694781,104.878351 C52.5238082,105.519294 48.0289089,101.516673 47.7487736,101.045776 C41.3820608,90.3328793 39.472047,83.9103734 33.3727361,73.6552926 C33.2692342,73.4688242 33.1757167,73.2766917 33.0926008,73.0797524 L32.9525331,73.1974765 L32.8251988,74.1392697 L26.5985538,119.005248 C26.4457526,120.077846 26.4457526,120.077846 25.7836145,120.221731 L4.34052589,125.03534 C3.95852313,125.126903 3.76752174,125.03534 3.64018749,124.47288 C2.4600372,119.407641 1.70178306,114.248394 1.37363774,109.051018 C1.34474756,108.943738 1.32346937,108.834448 1.30997061,108.724006 Z"/>
          <path fill="#C4C3C6" d="M1.58364278,105.029741 C6.32659243,103.829442 8.27515615,102.914743 13.1583543,101.701255 C13.6300993,101.582544 13.757598,101.358312 13.8595969,100.606477 C17.0385631,77.488636 20.2217793,54.3707954 23.4092455,31.2529548 L23.549494,30.2373174 C23.7662417,30.2373174 23.829991,30.5143094 23.9319899,30.6725906 L50.7067057,74.9385509 C51.0892016,75.5848656 51.0892016,75.5848656 51.6884453,74.6615589 C66.4952881,52.1856363 81.7951257,28.931498 97.587958,4.89914405 C97.7919558,4.59577186 97.9704539,4.26601947 98.1617019,3.94945718 L98.3019504,3.94945718 L98.1617019,4.95190443 L87.604814,81.6786897 C87.4263159,82.9976992 87.3370668,82.826228 88.1913078,82.6019964 L106.691361,77.9458927 C104.860182,83.3821723 102.731771,88.7063691 100.316429,93.8927181 C99.6534361,95.3436286 98.9266938,96.7681589 98.2637008,98.2190694 C98.1128809,98.6995458 97.7313449,99.0642777 97.2564615,99.1819464 C88.7055523,101.116494 80.3373911,103.037851 72.151978,104.946018 C71.6037339,105.064729 71.4889851,104.946018 71.6037339,104.049092 C73.754211,88.5111591 75.8791885,72.9776234 77.9786662,57.4484843 L78.1444144,56.2086154 C77.8639174,56.6175083 77.6854193,56.8945003 77.4941713,57.1583022 C67.4047784,72.2565648 57.5321332,87.0294717 47.8762357,101.477023 C47.4682401,102.110148 47.289742,102.149718 47.0219948,101.688064 C40.978559,91.2942693 35.0286221,81.1291024 29.1721843,71.1925638 C29.0744252,71.0144829 28.9892052,70.8293415 28.917187,70.6385798 L28.7769385,70.7441006 L28.6494399,71.6674072 L22.6442536,115.194722 C22.5040051,116.23674 22.5040051,116.23674 21.8665119,116.381831 C14.9135857,117.973436 10.984543,119.217887 4.33761355,120.765525 C3.96786747,120.844665 3.78936937,120.765525 3.67462058,120.211541 C2.57073727,115.317983 1.87122303,110.336152 1.58364278,105.319923 C1.57724718,105.223309 1.57724718,105.126355 1.58364278,105.029741 Z"/>
          <path fill="#FFF" d="M1.85583297 107.251177L1.85583297 106.961366C6.23312375 105.762603 10.6690914 104.524319 15.1637358 103.312382 15.5979442 103.193823 15.7152979 102.969878 15.8091808 102.205831 18.7351982 79.1263365 21.6651274 56.0644061 24.5989684 33.0200401 24.5989684 32.7038826 24.681116 32.4008984 24.7280574 32.032048 24.2234368 31.1494418 23.7188161 30.2404891 23.2259309 29.3974025 23.1320479 29.2393238 23.0733711 29.0022057 22.8738699 28.962686L22.7447809 29.9770245C19.8187635 53.0565192 16.8888343 76.144796 13.9549933 99.241855 13.8611104 99.9927289 13.7437567 100.216674 13.3095483 100.335233 8.81490384 101.54717 4.37893624 102.785453.0133808213 103.984217.00749411299 104.080708.00749411299 104.177537.0133808213 104.274028.289521858 109.311891.949107195 114.314 1.98492198 119.225641 2.09054025 119.726224 2.25483535 119.857956 2.59516091 119.778917L3.31101811 119.594492C2.57799328 115.5217 2.0918166 111.397805 1.85583297 107.251177L1.85583297 107.251177zM53.6310344 73.282977C54.0106845 73.9094388 54.0106845 73.9094388 54.6054698 73.0089L97.847622 7.51754137C98.1386871 5.35102771 98.4424072 3.18451405 98.7461274.991897819L98.8853324 9.09494702e-13 98.7461274 9.09494702e-13C98.5563023.31323089 98.3791322.639513068 98.1766521.939692671 82.4844459 24.7278386 67.2984398 47.7372578 52.618634 69.9679501 52.3149139 70.4247452 52.1757088 70.6596683 52.0491588 70.6857709L53.6310344 73.282977zM86.0193287 85.8090744C85.8061575 87.1180822 85.6749751 86.9610013 86.7900248 86.7384699L106.205007 82.9161671C106.828123 81.6071592 107.434841 80.2981514 107.992366 78.9891436L86.4948646 83.1779686C86.3308867 84.081184 86.1833066 84.9451292 86.0193287 85.8090744zM80.5216269 59.2116198L80.6712649 57.925372 80.0842236 58.9242666C79.359055 60.1831475 78.6338864 61.4283449 77.8972072 62.6735423 76.2396789 76.5668438 74.5744769 90.4601453 72.9016012 104.353447 72.7980057 105.22919 72.9016012 105.407075 73.3965576 105.283924L75.0425752 104.846052C76.8689258 89.6300137 78.6952763 74.4185362 80.5216269 59.2116198zM29.0657417 73.0013482C28.9535689 72.817295 28.8694392 72.604926 28.771288 72.4067149L28.6310719 72.5199784 28.6310719 72.6332419C34.445365 82.3739003 40.3765047 92.2844539 46.4244912 102.364903 46.5787289 102.619746 46.7049234 102.718851 46.8451395 102.676377 40.8065007 92.5959285 34.8800348 82.7042521 29.0657417 73.0013482z"/>
        </g>
      </g>
    </g>
    <path fill="#FFF" d="M464.179688,533.643881 C466.132822,533.643881 467.958976,533.873371 469.658203,534.332357 C471.35743,534.791344 472.856439,535.50911 474.155273,536.485678 C475.454108,537.462245 476.513668,538.712233 477.333984,540.235678 C478.154301,541.759123 478.662108,543.55598 478.857422,545.626303 L473.173828,545.626303 C473.05664,544.259108 472.724612,543.126307 472.177734,542.227865 C471.630857,541.329423 470.94727,540.611657 470.126953,540.074545 C469.306637,539.537433 468.388677,539.16146 467.373047,538.946615 C466.357417,538.73177 465.292974,538.62435 464.179688,538.62435 C461.582018,538.62435 459.531258,539.141923 458.027344,540.177084 C456.52343,541.212245 455.771484,542.628247 455.771484,544.425131 C455.771484,546.339203 456.289057,547.760087 457.324219,548.687826 C458.35938,549.615565 460.01952,550.40169 462.304688,551.046225 L468.837891,552.833334 C470.595712,553.321618 472.167962,553.883136 473.554688,554.517904 C474.941413,555.152673 476.103511,555.938798 477.041016,556.876303 C477.97852,557.813807 478.686521,558.902664 479.165039,560.142904 C479.643557,561.383145 479.882812,562.843091 479.882812,564.522787 C479.882812,566.319671 479.47266,567.940749 478.652344,569.386068 C477.832027,570.831388 476.733405,572.061845 475.356445,573.077475 C473.979485,574.093105 472.368173,574.874347 470.522461,575.421225 C468.676749,575.968102 466.738291,576.241537 464.707031,576.241537 C462.675771,576.241537 460.737314,575.992516 458.891602,575.494467 C457.045889,574.996417 455.405281,574.224941 453.969727,573.180014 C452.534173,572.135087 451.352544,570.811858 450.424805,569.210287 C449.497066,567.608717 448.955079,565.684908 448.798828,563.438803 L454.511719,563.438803 C454.82422,566.192723 455.903311,568.18489 457.749023,569.415365 C459.594736,570.64584 461.874986,571.261068 464.589844,571.261068 C465.957038,571.261068 467.216791,571.119468 468.369141,570.836264 C469.52149,570.553059 470.527339,570.133141 471.386719,569.576498 C472.246098,569.019855 472.929685,568.331385 473.4375,567.511068 C473.945315,566.690752 474.199219,565.73373 474.199219,564.639975 C474.199219,562.882153 473.70606,561.505214 472.719727,560.509115 C471.733394,559.513017 470.166026,558.712243 468.017578,558.106772 L460.019531,555.880209 C456.660139,554.962236 454.179696,553.575531 452.578125,551.720053 C450.976554,549.864575 450.175781,547.432958 450.175781,544.425131 C450.175781,542.901686 450.507809,541.480802 451.171875,540.162436 C451.835941,538.84407 452.78808,537.706386 454.02832,536.74935 C455.268561,535.792314 456.738273,535.035485 458.4375,534.478842 C460.136727,533.922198 462.050771,533.643881 464.179688,533.643881 Z M576.914062,544.014975 C578.515633,544.014975 580.02929,544.224933 581.455078,544.644857 C582.880867,545.064781 584.130854,545.714189 585.205078,546.5931 C586.279302,547.47201 587.1582,548.590163 587.841797,549.947592 C588.525394,551.30502 588.945312,552.91145 589.101562,554.766928 L583.710938,554.766928 C583.593749,553.536453 583.334963,552.50619 582.93457,551.676107 C582.534178,550.846025 582.011722,550.181969 581.367188,549.68392 C580.722653,549.185871 579.990238,548.834312 579.169922,548.629232 C578.349605,548.424153 577.500004,548.321615 576.621094,548.321615 C575.70312,548.321615 574.824223,548.472981 573.984375,548.775717 C573.144527,549.078453 572.382816,549.53255 571.699219,550.138022 C571.015622,550.743493 570.473635,551.495439 570.073242,552.393881 C569.67285,553.292323 569.472656,554.337234 569.472656,555.528647 L569.472656,564.522787 C569.472656,565.597011 569.663084,566.588212 570.043945,567.49642 C570.424807,568.404628 570.947262,569.166339 571.611328,569.781576 C572.275394,570.396814 573.037105,570.875324 573.896484,571.217123 C574.755864,571.558922 575.683589,571.729818 576.679688,571.729818 C578.671885,571.729818 580.332025,571.192714 581.660156,570.11849 C582.988288,569.044266 583.749999,567.364595 583.945312,565.079428 L589.335938,565.079428 C589.140624,566.954437 588.662113,568.580397 587.900391,569.957357 C587.138668,571.334317 586.196295,572.476884 585.073242,573.385092 C583.95019,574.293299 582.680671,574.967121 581.264648,575.406576 C579.848626,575.846032 578.359383,576.065756 576.796875,576.065756 C574.55077,576.065756 572.622078,575.675135 571.010742,574.893881 C569.399406,574.112627 568.051763,573.009122 566.967773,571.583334 C565.883784,570.157546 565.08301,568.48764 564.56543,566.573568 C564.047849,564.659496 563.789062,562.559908 563.789062,560.27474 C563.789062,557.833322 564.077146,555.601899 564.65332,553.580404 C565.229495,551.55891 566.079096,549.849943 567.202148,548.453451 C568.325201,547.05696 569.707023,545.968104 571.347656,545.18685 C572.988289,544.405596 574.84374,544.014975 576.914062,544.014975 Z M536.542969,544.747397 L536.542969,564.522787 C536.542969,566.729829 536.972652,568.482742 537.832031,569.781576 C538.691411,571.080411 540.26366,571.729818 542.548828,571.729818 C544.833996,571.729818 546.645501,570.880217 547.983398,569.18099 C549.321296,567.481763 549.990234,565.294285 549.990234,562.61849 L549.990234,544.747397 L555.380859,544.747397 L555.380859,575.333334 L549.990234,575.333334 L549.990234,570.294272 C549.150386,572.091155 548.027351,573.502274 546.621094,574.52767 C545.214837,575.553066 543.359387,576.065756 541.054688,576.065756 C539.64843,576.065756 538.334967,575.865563 537.114258,575.46517 C535.893549,575.064777 534.843754,574.425135 533.964844,573.546225 C533.085933,572.667314 532.397463,571.534513 531.899414,570.147787 C531.401365,568.761061 531.152344,567.091156 531.152344,565.138022 L531.152344,544.747397 L536.542969,544.747397 Z M247.470703,544.014975 C249.072274,544.014975 250.58593,544.224933 252.011719,544.644857 C253.437507,545.064781 254.687495,545.714189 255.761719,546.5931 C256.835943,547.47201 257.71484,548.590163 258.398438,549.947592 C259.082035,551.30502 259.501952,552.91145 259.658203,554.766928 L254.267578,554.766928 C254.15039,553.536453 253.891604,552.50619 253.491211,551.676107 C253.090818,550.846025 252.568363,550.181969 251.923828,549.68392 C251.279294,549.185871 250.546879,548.834312 249.726562,548.629232 C248.906246,548.424153 248.056645,548.321615 247.177734,548.321615 C246.259761,548.321615 245.380864,548.472981 244.541016,548.775717 C243.701168,549.078453 242.939457,549.53255 242.255859,550.138022 C241.572262,550.743493 241.030275,551.495439 240.629883,552.393881 C240.22949,553.292323 240.029297,554.337234 240.029297,555.528647 L240.029297,564.522787 C240.029297,565.597011 240.219725,566.588212 240.600586,567.49642 C240.981447,568.404628 241.503903,569.166339 242.167969,569.781576 C242.832035,570.396814 243.593746,570.875324 244.453125,571.217123 C245.312504,571.558922 246.240229,571.729818 247.236328,571.729818 C249.228526,571.729818 250.888665,571.192714 252.216797,570.11849 C253.544929,569.044266 254.30664,567.364595 254.501953,565.079428 L259.892578,565.079428 C259.697265,566.954437 259.218754,568.580397 258.457031,569.957357 C257.695309,571.334317 256.752935,572.476884 255.629883,573.385092 C254.50683,574.293299 253.237312,574.967121 251.821289,575.406576 C250.405266,575.846032 248.916023,576.065756 247.353516,576.065756 C245.107411,576.065756 243.178719,575.675135 241.567383,574.893881 C239.956047,574.112627 238.608404,573.009122 237.524414,571.583334 C236.440424,570.157546 235.639651,568.48764 235.12207,566.573568 C234.60449,564.659496 234.345703,562.559908 234.345703,560.27474 C234.345703,557.833322 234.633786,555.601899 235.209961,553.580404 C235.786136,551.55891 236.635737,549.849943 237.758789,548.453451 C238.881842,547.05696 240.263664,545.968104 241.904297,545.18685 C243.54493,544.405596 245.40038,544.014975 247.470703,544.014975 Z M414.433594,544.014975 C416.640636,544.014975 418.564445,544.39583 420.205078,545.157553 C421.845711,545.919275 423.20312,546.959304 424.277344,548.27767 C425.351568,549.596036 426.162107,551.143872 426.708984,552.921225 C427.255862,554.698577 427.529297,556.612621 427.529297,558.663412 L427.529297,561.534506 L406.933594,561.534506 L406.933594,564.786459 C406.933594,565.899746 407.143553,566.886064 407.563477,567.745443 C407.983401,568.604823 408.554684,569.332354 409.277344,569.928061 C410.000004,570.523767 410.810542,570.972981 411.708984,571.275717 C412.607426,571.578453 413.535151,571.729818 414.492188,571.729818 C416.40626,571.729818 418.066399,571.241542 419.472656,570.264975 C420.878913,569.288407 421.679687,567.735688 421.875,565.606772 L427.294922,565.606772 C427.177734,567.247405 426.748051,568.707351 426.005859,569.986654 C425.263668,571.265958 424.301764,572.354814 423.120117,573.253256 C421.938471,574.151698 420.605476,574.84505 419.121094,575.333334 C417.636711,575.821618 416.074227,576.065756 414.433594,576.065756 C412.226551,576.065756 410.29786,575.665369 408.647461,574.864584 C406.997062,574.063799 405.620123,572.960294 404.516602,571.554037 C403.41308,570.14778 402.592776,568.468109 402.055664,566.514975 C401.518552,564.56184 401.25,562.403658 401.25,560.040365 C401.25,557.716135 401.538083,555.562836 402.114258,553.580404 C402.690433,551.597973 403.549799,549.908536 404.692383,548.512045 C405.834967,547.115554 407.216789,546.016932 408.837891,545.216147 C410.458992,544.415361 412.324208,544.014975 414.433594,544.014975 Z M624.580078,544.747397 L624.580078,564.522787 C624.580078,566.729829 625.009761,568.482742 625.869141,569.781576 C626.72852,571.080411 628.30077,571.729818 630.585938,571.729818 C632.871105,571.729818 634.68261,570.880217 636.020508,569.18099 C637.358405,567.481763 638.027344,565.294285 638.027344,562.61849 L638.027344,544.747397 L643.417969,544.747397 L643.417969,575.333334 L638.027344,575.333334 L638.027344,570.294272 C637.187496,572.091155 636.06446,573.502274 634.658203,574.52767 C633.251946,575.553066 631.396496,576.065756 629.091797,576.065756 C627.68554,576.065756 626.372076,575.865563 625.151367,575.46517 C623.930658,575.064777 622.880864,574.425135 622.001953,573.546225 C621.123042,572.667314 620.434573,571.534513 619.936523,570.147787 C619.438474,568.761061 619.189453,567.091156 619.189453,565.138022 L619.189453,544.747397 L624.580078,544.747397 Z M686.367188,544.014975 C688.57423,544.014975 690.498039,544.39583 692.138672,545.157553 C693.779305,545.919275 695.136713,546.959304 696.210938,548.27767 C697.285162,549.596036 698.0957,551.143872 698.642578,552.921225 C699.189456,554.698577 699.462891,556.612621 699.462891,558.663412 L699.462891,561.534506 L678.867188,561.534506 L678.867188,564.786459 C678.867188,565.899746 679.077146,566.886064 679.49707,567.745443 C679.916994,568.604823 680.488278,569.332354 681.210938,569.928061 C681.933597,570.523767 682.744136,570.972981 683.642578,571.275717 C684.54102,571.578453 685.468745,571.729818 686.425781,571.729818 C688.339853,571.729818 689.999993,571.241542 691.40625,570.264975 C692.812507,569.288407 693.61328,567.735688 693.808594,565.606772 L699.228516,565.606772 C699.111328,567.247405 698.681644,568.707351 697.939453,569.986654 C697.197262,571.265958 696.235357,572.354814 695.053711,573.253256 C693.872064,574.151698 692.53907,574.84505 691.054688,575.333334 C689.570305,575.821618 688.007821,576.065756 686.367188,576.065756 C684.160145,576.065756 682.231454,575.665369 680.581055,574.864584 C678.930656,574.063799 677.553716,572.960294 676.450195,571.554037 C675.346674,570.14778 674.52637,568.468109 673.989258,566.514975 C673.452146,564.56184 673.183594,562.403658 673.183594,560.040365 C673.183594,557.716135 673.471677,555.562836 674.047852,553.580404 C674.624026,551.597973 675.483393,549.908536 676.625977,548.512045 C677.76856,547.115554 679.150383,546.016932 680.771484,545.216147 C682.392586,544.415361 684.257802,544.014975 686.367188,544.014975 Z M279.492188,544.014975 C281.69923,544.014975 283.623039,544.39583 285.263672,545.157553 C286.904305,545.919275 288.261713,546.959304 289.335938,548.27767 C290.410162,549.596036 291.2207,551.143872 291.767578,552.921225 C292.314456,554.698577 292.587891,556.612621 292.587891,558.663412 L292.587891,561.534506 L271.992188,561.534506 L271.992188,564.786459 C271.992188,565.899746 272.202146,566.886064 272.62207,567.745443 C273.041994,568.604823 273.613278,569.332354 274.335938,569.928061 C275.058597,570.523767 275.869136,570.972981 276.767578,571.275717 C277.66602,571.578453 278.593745,571.729818 279.550781,571.729818 C281.464853,571.729818 283.124993,571.241542 284.53125,570.264975 C285.937507,569.288407 286.73828,567.735688 286.933594,565.606772 L292.353516,565.606772 C292.236328,567.247405 291.806644,568.707351 291.064453,569.986654 C290.322262,571.265958 289.360357,572.354814 288.178711,573.253256 C286.997064,574.151698 285.66407,574.84505 284.179688,575.333334 C282.695305,575.821618 281.132821,576.065756 279.492188,576.065756 C277.285145,576.065756 275.356454,575.665369 273.706055,574.864584 C272.055656,574.063799 270.678716,572.960294 269.575195,571.554037 C268.471674,570.14778 267.65137,568.468109 267.114258,566.514975 C266.577146,564.56184 266.308594,562.403658 266.308594,560.040365 C266.308594,557.716135 266.596677,555.562836 267.172852,553.580404 C267.749026,551.597973 268.608393,549.908536 269.750977,548.512045 C270.89356,547.115554 272.275383,546.016932 273.896484,545.216147 C275.517586,544.415361 277.382802,544.014975 279.492188,544.014975 Z M342.539062,534.522787 L342.539062,544.747397 L349.570312,544.747397 L349.570312,549.347006 L342.539062,549.347006 L342.539062,570.704428 L349.570312,570.704428 L349.570312,575.333334 L337.207031,575.333334 L337.207031,549.347006 L332.050781,549.347006 L332.050781,544.747397 L337.207031,544.747397 L337.207031,534.522787 L342.539062,534.522787 Z M315.322266,544.014975 C316.806648,544.014975 318.154291,544.215168 319.365234,544.615561 C320.576178,545.015953 321.621089,545.655595 322.5,546.534506 C323.378911,547.413417 324.062498,548.541335 324.550781,549.918295 C325.039065,551.295255 325.283203,552.970043 325.283203,554.942709 L325.283203,575.333334 L319.863281,575.333334 L319.863281,555.528647 C319.863281,553.282542 319.433598,551.519864 318.574219,550.240561 C317.714839,548.961257 316.123058,548.321615 313.798828,548.321615 C312.685541,548.321615 311.669926,548.54134 310.751953,548.980795 C309.83398,549.42025 309.033207,550.050127 308.349609,550.870443 C307.666012,551.69076 307.133791,552.66243 306.75293,553.785482 C306.372068,554.908535 306.181641,556.134109 306.181641,557.46224 L306.181641,575.333334 L300.791016,575.333334 L300.791016,544.747397 L306.181641,544.747397 L306.180813,549.784573 L306.353777,549.432226 C307.176522,547.80314 308.271478,546.510097 309.638672,545.553061 C311.103523,544.527665 312.998035,544.014975 315.322266,544.014975 Z M216.240234,544.014975 C217.724617,544.014975 219.07226,544.215168 220.283203,544.615561 C221.494147,545.015953 222.539058,545.655595 223.417969,546.534506 C224.296879,547.413417 224.980466,548.541335 225.46875,549.918295 C225.957034,551.295255 226.201172,552.970043 226.201172,554.942709 L226.201172,575.333334 L220.78125,575.333334 L220.78125,555.528647 C220.78125,553.282542 220.351567,551.519864 219.492188,550.240561 C218.632808,548.961257 217.041027,548.321615 214.716797,548.321615 C213.60351,548.321615 212.587895,548.54134 211.669922,548.980795 C210.751949,549.42025 209.951175,550.050127 209.267578,550.870443 C208.583981,551.69076 208.05176,552.66243 207.670898,553.785482 C207.290037,554.908535 207.099609,556.134109 207.099609,557.46224 L207.099609,575.333334 L201.708984,575.333334 L201.708984,544.747397 L207.099609,544.747397 L207.098813,549.784573 L207.271745,549.432226 C208.094491,547.80314 209.189446,546.510097 210.556641,545.553061 C212.021492,544.527665 213.916004,544.014975 216.240234,544.014975 Z M604.921875,534.522787 L604.921875,544.747397 L611.953125,544.747397 L611.953125,549.347006 L604.921875,549.347006 L604.921875,570.704428 L611.953125,570.704428 L611.953125,575.333334 L599.589844,575.333334 L599.589844,549.347006 L594.433594,549.347006 L594.433594,544.747397 L599.589844,544.747397 L599.589844,534.522787 L604.921875,534.522787 Z M191.220703,534.522787 L191.220703,575.333334 L185.507812,575.333334 L185.507812,534.522787 L191.220703,534.522787 Z M524.677734,544.747397 L524.677734,549.4056 L515.361328,549.4056 L515.361328,575.333334 L509.970703,575.333334 L509.970703,544.747397 L524.677734,544.747397 Z M495.46875,534.522787 L495.46875,544.747397 L502.5,544.747397 L502.5,549.347006 L495.46875,549.347006 L495.46875,570.704428 L502.5,570.704428 L502.5,575.333334 L490.136719,575.333334 L490.136719,549.347006 L484.980469,549.347006 L484.980469,544.747397 L490.136719,544.747397 L490.136719,534.522787 L495.46875,534.522787 Z M668.085938,544.747397 L668.085938,549.4056 L658.769531,549.4056 L658.769531,575.333334 L653.378906,575.333334 L653.378906,544.747397 L668.085938,544.747397 Z M362.431641,544.747397 L362.431641,575.333334 L357.041016,575.333334 L357.041016,544.747397 L362.431641,544.747397 Z M374.912109,544.747397 L382.587891,568.917318 L382.822266,568.917318 L390.644531,544.747397 L396.210938,544.747397 L385.224609,575.333334 L380.068359,575.333334 L369.082031,544.747397 L374.912109,544.747397 Z M414.433594,548.321615 C413.437495,548.321615 412.490239,548.482746 411.591797,548.805014 C410.693355,549.127281 409.892582,549.600909 409.189453,550.225912 C408.486325,550.850915 407.934572,551.612626 407.53418,552.511068 C407.133787,553.40951 406.933594,554.41536 406.933594,555.528647 L406.933594,557.227865 L421.933594,557.227865 L421.933594,555.528647 C421.933594,554.41536 421.7334,553.40951 421.333008,552.511068 C420.932615,551.612626 420.385746,550.850915 419.692383,550.225912 C418.99902,549.600909 418.198247,549.127281 417.290039,548.805014 C416.381831,548.482746 415.429692,548.321615 414.433594,548.321615 Z M279.492188,548.321615 C278.496089,548.321615 277.548833,548.482746 276.650391,548.805014 C275.751949,549.127281 274.951175,549.600909 274.248047,550.225912 C273.544918,550.850915 272.993166,551.612626 272.592773,552.511068 C272.192381,553.40951 271.992188,554.41536 271.992188,555.528647 L271.992188,557.227865 L286.992188,557.227865 L286.992188,555.528647 C286.992188,554.41536 286.791994,553.40951 286.391602,552.511068 C285.991209,551.612626 285.444339,550.850915 284.750977,550.225912 C284.057614,549.600909 283.25684,549.127281 282.348633,548.805014 C281.440425,548.482746 280.488286,548.321615 279.492188,548.321615 Z M686.367188,548.321615 C685.371089,548.321615 684.423833,548.482746 683.525391,548.805014 C682.626949,549.127281 681.826175,549.600909 681.123047,550.225912 C680.419918,550.850915 679.868166,551.612626 679.467773,552.511068 C679.067381,553.40951 678.867188,554.41536 678.867188,555.528647 L678.867188,557.227865 L693.867188,557.227865 L693.867188,555.528647 C693.867188,554.41536 693.666994,553.40951 693.266602,552.511068 C692.866209,551.612626 692.319339,550.850915 691.625977,550.225912 C690.932614,549.600909 690.13184,549.127281 689.223633,548.805014 C688.315425,548.482746 687.363286,548.321615 686.367188,548.321615 Z M362.548828,534.522787 L362.548828,540.177084 L356.923828,540.177084 L356.923828,534.522787 L362.548828,534.522787 Z M463.769531,432.029948 C467.910177,432.029948 471.669905,432.772128 475.048828,434.256511 C478.427751,435.740893 481.318347,437.781888 483.720703,440.379558 C486.123059,442.977227 487.958978,446.072899 489.228516,449.666667 C490.498053,453.260435 491.132812,457.147115 491.132812,461.326823 L491.132812,468.885417 L451.816406,468.885417 L451.816406,472.928386 C451.816406,476.600279 453.017566,479.442048 455.419922,481.453776 C457.822278,483.465505 460.664046,484.471355 463.945312,484.471355 C467.226579,484.471355 469.902333,483.611988 471.972656,481.89323 C474.042979,480.174471 475.273436,477.75262 475.664062,474.627605 L490.664062,474.627605 C489.687495,481.424513 486.826196,486.707664 482.080078,490.477214 C477.333961,494.246764 471.230506,496.131511 463.769531,496.131511 C459.433572,496.131511 455.556658,495.350269 452.138672,493.787761 C448.720686,492.225253 445.83009,490.037775 443.466797,487.225261 C441.103504,484.412747 439.296881,481.033874 438.046875,477.088542 C436.796869,473.14321 436.171875,468.768254 436.171875,463.963542 C436.171875,459.15883 436.835931,454.79364 438.164062,450.867839 C439.492194,446.942038 441.35741,443.582697 443.759766,440.789714 C446.162121,437.996731 449.062483,435.83855 452.460938,434.315105 C455.859392,432.791659 459.628886,432.029948 463.769531,432.029948 Z M290.859375,432.029948 C295.42971,432.029948 299.49217,432.791659 303.046875,434.315105 C306.60158,435.83855 309.599597,438.016262 312.041016,440.848308 C314.482434,443.680353 316.337884,447.059225 317.607422,450.985026 C318.876959,454.910827 319.511719,459.276018 319.511719,464.08073 C319.511719,468.885441 318.876959,473.240866 317.607422,477.147136 C316.337884,481.053405 314.482434,484.432278 312.041016,487.283855 C309.599597,490.135431 306.60158,492.322909 303.046875,493.846355 C299.49217,495.3698 295.42971,496.131511 290.859375,496.131511 C286.28904,496.131511 282.22658,495.3698 278.671875,493.846355 C275.11717,492.322909 272.119153,490.135431 269.677734,487.283855 C267.236316,484.432278 265.3711,481.053405 264.082031,477.147136 C262.792962,473.240866 262.148438,468.885441 262.148438,464.08073 C262.148438,459.276018 262.792962,454.910827 264.082031,450.985026 C265.3711,447.059225 267.236316,443.680353 269.677734,440.848308 C272.119153,438.016262 275.11717,435.83855 278.671875,434.315105 C282.22658,432.791659 286.28904,432.029948 290.859375,432.029948 Z M402.539062,432.029948 C408.789094,432.029948 413.486312,434.031881 416.630859,438.035808 C419.775406,442.039734 421.347656,447.557257 421.347656,454.588542 L421.347656,494.666667 L406.347656,494.666667 L406.347656,455.64323 C406.347656,448.065067 403.476591,444.276042 397.734375,444.276042 L397.617188,444.276042 L397.617188,444.276042 C394.02342,444.276042 391.123058,445.652981 388.916016,448.406901 C386.708973,451.160821 385.605469,454.783832 385.605469,459.276042 L385.605469,494.666667 L370.605469,494.666667 L370.605469,455.64323 C370.605469,448.065067 367.714873,444.276042 361.933594,444.276042 L361.816406,444.276042 L361.816406,444.276042 C358.222638,444.276042 355.332042,445.652981 353.144531,448.406901 C350.95702,451.160821 349.863281,454.783832 349.863281,459.276042 L349.863281,494.666667 L334.863281,494.666667 L334.863281,433.494792 L349.863281,433.494792 L349.863281,442.342448 C351.621103,439.061182 353.857408,436.522145 356.572266,434.725261 C359.287123,432.928377 362.675761,432.029948 366.738281,432.029948 C371.152366,432.029948 374.775376,433.016267 377.607422,434.988933 C380.439467,436.961599 382.539056,439.783836 383.90625,443.45573 C387.890645,435.838504 394.10152,432.029948 402.539062,432.029948 Z M223.300781,413.045573 C232.011762,413.045573 238.45701,415.1061 242.636719,419.227214 C246.816427,423.348328 248.90625,429.686155 248.90625,438.240886 C248.90625,444.725293 247.363297,449.930319 244.277344,453.85612 C241.191391,457.781921 236.894559,460.506503 231.386719,462.029948 L250.078125,494.666667 L232.792969,494.666667 L215.625,463.319011 L205.664062,463.319011 L205.664062,494.666667 L190.078125,494.666667 L190.078125,413.045573 L223.300781,413.045573 Z M290.859375,443.690105 C287.109356,443.690105 283.994153,444.686188 281.513672,446.678386 C279.033191,448.670583 277.792969,451.502586 277.792969,455.17448 L277.792969,472.928386 C277.792969,476.600279 279.033191,479.442048 281.513672,481.453776 C283.994153,483.465505 287.109356,484.471355 290.859375,484.471355 C294.609394,484.471355 297.724597,483.494802 300.205078,481.541667 C302.685559,479.588532 303.925781,476.717467 303.925781,472.928386 L303.925781,455.17448 C303.925781,451.424461 302.685559,448.572927 300.205078,446.619792 C297.724597,444.666657 294.609394,443.690105 290.859375,443.690105 Z M463.769531,443.690105 C460.332014,443.690105 457.48048,444.744781 455.214844,446.854167 C452.949207,448.963553 451.816406,451.6979 451.816406,455.057292 L451.816406,457.225261 L475.78125,457.225261 L475.78125,455.057292 C475.78125,451.6979 474.648449,448.963553 472.382812,446.854167 C470.117176,444.744781 467.246111,443.690105 463.769531,443.690105 Z M225.351562,426.287761 L205.664062,426.287761 L205.664062,450.48698 L225.351562,450.48698 C230.234399,450.48698 232.675781,447.772163 232.675781,442.342448 L232.675781,433.963542 C232.675781,431.229153 232.138677,429.266282 231.064453,428.07487 C229.990229,426.883458 228.085951,426.287761 225.351562,426.287761 Z"/>
  </g>
</svg>
