<svg xmlns="http://www.w3.org/2000/svg" width="1310" height="800" viewBox="0 0 1310 800">
  <g fill="none" fill-rule="evenodd">
    <rect width="1310" height="800" fill="#4038FF"/>
    <g transform="matrix(0 -1 -1 0 1310 500)">
      <path fill="#261EE4" d="M177.868875 233.145277L166.765367 233.145277 166.765367 244.268264 177.868875 244.268264 177.868875 255.418891 166.765367 255.418891 166.765367 266.569518 177.868875 266.569518 177.868875 277.692505 189 277.692505 189 288.843132 177.868875 288.843132 177.868875 277.720145 166.765367 277.720145 166.765367 288.843132 177.868875 288.843132 177.868875 300 166.737751 300 166.737751 288.849373 155.634243 288.849373 155.634243 277.726386 144.503118 277.726386 144.503118 288.849373 133.371993 288.849373 133.371993 277.726386 122.268485 277.726386 122.268485 288.849373 133.371993 288.849373 133.371993 300 122.239978 300 122.239978 288.849373 111.13736 288.849373 111.13736 300 100 300 100 288.849373 111.131125 288.849373 111.131125 277.726386 100 277.726386 100 266.574868 111.131125 266.574868 111.131125 255.424241 100 255.424241 100 244.273614 111.131125 244.273614 111.131125 233.150627 111.131125 233.122987 122.234633 233.122987 122.234633 222 133.365757 222 133.365757 233.122987 144.496882 233.122987 144.496882 222 155.628897 222 155.628897 233.122987 166.732406 233.122987 166.732406 222 177.86353 222 177.86353 233.122987 188.994655 233.122987 188.994655 244.273614 177.86353 244.273614 177.86353 233.145277 177.868875 233.145277zM111 233.972735L111 223 100 223 100 234 111 234 111 233.972735zM145 289L145 300 156 300 156 289 145 289zM178 266L178 255 189 255 189 266 178 266zM122 277L111 277 111 266 122 266 122 277zM122.263586 222L122.263586 211 133.367761 211 133.367761 222 144.499555 222 144.499555 211 155.632239 211 155.632239 222 166.764032 222 166.764032 211 177.868207 211 177.868207 222 189 222 189 211 177.868207 211 177.868207 200 166.736414 200 166.736414 211 155.632239 211 155.632239 200 144.499555 200 144.499555 211 133.367761 211 133.367761 200 122.235968 200 122.235968 211 111.131793 211 111.131793 200 100 200 100 211 111.131793 211 111.131793 222 122.263586 222zM166 244L166 255 155 255 155 244 166 244zM145 245L145 234 156 234 156 245 145 245zM134 244L145 244 145 255 134 255 134 244zM134 245L123 245 123 234 134 234 134 245zM134 266L123 266 123 255 134 255 134 266zM145 266L145 277 134 277 134 266 145 266zM156 266L145 266 145 255 156 255 156 266zM155 266L166 266 166 277 155 277 155 266zM122 255L122 244 111 244 111 255 122 255zM200 289L189 289 189 300 200 300 200 289zM189 266L200 266 200 277 189 277 189 266zM200 244L189 244 189 255 200 255 200 244zM189 223L200 223 200 234 189 234 189 223zM189 200L200 200 200 211 189 211 189 200zM477.868875 33.1452773L466.765367 33.1452773 466.765367 44.268264 477.868875 44.268264 477.868875 55.418891 466.765367 55.418891 466.765367 66.569518 477.868875 66.569518 477.868875 77.6925047 489 77.6925047 489 88.8431317 477.868875 88.8431317 477.868875 77.7201449 466.765367 77.7201449 466.765367 88.8431317 477.868875 88.8431317 477.868875 100 466.737751 100 466.737751 88.849373 455.634243 88.849373 455.634243 77.7263863 444.503118 77.7263863 444.503118 88.849373 433.371993 88.849373 433.371993 77.7263863 422.268485 77.7263863 422.268485 88.849373 433.371993 88.849373 433.371993 100 422.239978 100 422.239978 88.849373 411.13736 88.849373 411.13736 100 400 100 400 88.849373 411.131125 88.849373 411.131125 77.7263863 400 77.7263863 400 66.5748677 411.131125 66.5748677 411.131125 55.4242407 400 55.4242407 400 44.2736137 411.131125 44.2736137 411.131125 33.150627 411.131125 33.1229867 422.234633 33.1229867 422.234633 22 433.365757 22 433.365757 33.1229867 444.496882 33.1229867 444.496882 22 455.628897 22 455.628897 33.1229867 466.732406 33.1229867 466.732406 22 477.86353 22 477.86353 33.1229867 488.994655 33.1229867 488.994655 44.2736137 477.86353 44.2736137 477.86353 33.1452773 477.868875 33.1452773zM411 33.9727353L411 23 400 23 400 34 411 34 411 33.9727353zM445 89L445 100 456 100 456 89 445 89zM478 66L478 55 489 55 489 66 478 66zM422 77L411 77 411 66 422 66 422 77zM422.263586 22L422.263586 11 433.367761 11 433.367761 22 444.499555 22 444.499555 11 455.632239 11 455.632239 22 466.764032 22 466.764032 11 477.868207 11 477.868207 22 489 22 489 11 477.868207 11 477.868207 0 466.736414 0 466.736414 11 455.632239 11 455.632239 0 444.499555 0 444.499555 11 433.367761 11 433.367761 0 422.235968 0 422.235968 11 411.131793 11 411.131793 0 400 0 400 11 411.131793 11 411.131793 22 422.263586 22zM466 44L466 55 455 55 455 44 466 44zM445 45L445 34 456 34 456 45 445 45zM434 44L445 44 445 55 434 55 434 44zM434 45L423 45 423 34 434 34 434 45zM434 66L423 66 423 55 434 55 434 66zM445 66L445 77 434 77 434 66 445 66zM456 66L445 66 445 55 456 55 456 66zM455 66L466 66 466 77 455 77 455 66zM422 55L422 44 411 44 411 55 422 55zM500 89L489 89 489 100 500 100 500 89zM489 66L500 66 500 77 489 77 489 66zM500 44L489 44 489 55 500 55 500 44zM489 23L500 23 500 34 489 34 489 23zM489 0L500 0 500 11 489 11 489 0zM489 400L500 400 500 300 489 300 489 400zM477 400L466 400 466 300 477 300 477 400zM456 400L445 400 445 300 456 300 456 400zM423 400L434 400 434 300 423 300 423 400zM411 400L400 400 400 300 411 300 411 400zM389 300L400 300 400 200 389 200 389 300zM377 300L366 300 366 200 377 200 377 300zM356 300L345 300 345 200 356 200 356 300zM323 300L334 300 334 200 323 200 323 300zM311 300L300 300 300 200 311 200 311 300zM300 111L300 100 200 100 200 111 300 111zM300 123L300 134 200 134 200 123 300 123zM300 144L300 155 200 155 200 144 300 144zM300 177L300 166 200 166 200 177 300 177zM300 189L300 200 200 200 200 189 300 189zM400 389L400 400 300 400 300 389 400 389zM400 355L400 344 300 344 300 355 400 355zM400 323L400 334 300 334 300 323 400 323zM400 300L400 311 300 311 300 300 400 300zM400 377L400 366 300 366 300 377 400 377z"/>
      <path fill="#FFF" d="M488.88879,400 L500,400 C500,455.227556 455.227758,500 400,500 L400,488.888889 C449.094306,488.888889 488.88879,449.094222 488.88879,400 Z M466.857015,400 L478,400 C478,443.078286 443.078356,478 400,478 L400,466.857143 C436.92201,466.857143 466.857015,436.92208 466.857015,400 Z M455,400 L444,400 C444,424.29856 424.298823,444 400,444 L400,455 C430.376171,455 455,430.37672 455,400 Z M422.666667,400 L434,400 C434,418.77888 418.779086,434 400,434 L400,422.666667 C412.517575,422.666667 422.666667,412.51744 422.666667,400 Z M400,400 L411,400 C411,406.07728 406.077348,411 400,411 L400,400 Z"/>
      <path fill="#261EE4" d="M211.11121,400 L200,400 C200,344.772444 244.772242,300 300,300 L300,311.111111 C250.905694,311.111111 211.11121,350.905778 211.11121,400 Z M233.142985,400 L222,400 C222,356.921714 256.921644,322 300,322 L300,333.142857 C263.07799,333.142857 233.142985,363.07792 233.142985,400 Z M245,400 L256.000176,400 C256.000176,375.70056 275.700788,356 300,356 L300,345 C269.623343,345 245,369.62328 245,400 Z M277.332728,400 L266,400 C266,381.220213 281.220413,366 300,366 L300,377.333333 C287.48209,377.333333 277.332728,387.48256 277.332728,400 Z M300,400 L289,400 C289,393.92272 293.922652,389 300,389 L300,400 Z" transform="rotate(90 250 350)"/>
      <path fill="#FFF" d="M11.11121,100 L0,100 C0,44.7724444 44.772242,0 100,0 L100,11.1111111 C50.905694,11.1111111 11.11121,50.9057778 11.11121,100 Z M33.1429846,100 L22,100 C22,56.9217143 56.9216444,22 100,22 L100,33.1428571 C63.0779895,33.1428571 33.1429846,63.07792 33.1429846,100 Z M45,100 L56.0001762,100 C56.0001762,75.70056 75.7007879,56 100,56 L100,45 C69.6233425,45 45,69.62328 45,100 Z M77.3327283,100 L66,100 C66,81.2202133 81.2204132,66 100,66 L100,77.3333333 C87.4820904,77.3333333 77.3327283,87.48256 77.3327283,100 Z M100,100 L89,100 C89,93.92272 93.9226519,89 100,89 L100,100 Z"/>
      <path fill="#FFF" d="M311.11121,100 L300,100 C300,44.7724444 344.772242,0 400,0 L400,11.1111111 C350.905694,11.1111111 311.11121,50.9057778 311.11121,100 Z M333.142985,100 L322,100 C322,56.9217143 356.921644,22 400,22 L400,33.1428571 C363.07799,33.1428571 333.142985,63.07792 333.142985,100 Z M345,100 L356.000176,100 C356.000176,75.70056 375.700788,56 400,56 L400,45 C369.623343,45 345,69.62328 345,100 Z M377.332728,100 L366,100 C366,81.2202133 381.220413,66 400,66 L400,77.3333333 C387.48209,77.3333333 377.332728,87.48256 377.332728,100 Z M400,100 L389,100 C389,93.92272 393.922652,89 400,89 L400,100 Z" transform="rotate(-90 350 50)"/>
      <path fill="#261EE4" d="M111.11121,100 L100,100 C100,44.7724444 144.772242,0 200,0 L200,11.1111111 C150.905694,11.1111111 111.11121,50.9057778 111.11121,100 Z M133.142985,100 L122,100 C122,56.9217143 156.921644,22 200,22 L200,33.1428571 C163.07799,33.1428571 133.142985,63.07792 133.142985,100 Z M145,100 L156.000176,100 C156.000176,75.70056 175.700788,56 200,56 L200,45 C169.623343,45 145,69.62328 145,100 Z M177.332728,100 L166,100 C166,81.2202133 181.220413,66 200,66 L200,77.3333333 C187.48209,77.3333333 177.332728,87.48256 177.332728,100 Z M200,100 L189,100 C189,93.92272 193.922652,89 200,89 L200,100 Z" transform="rotate(-180 150 50)"/>
      <path fill="#261EE4" fill-rule="nonzero" d="M400,700 L500,700 L500,600 C444.772242,600 400,644.772444 400,700 Z"/>
      <path fill="#261EE4" d="M500,792.167111 L500,800 L492.16637,800 L400,707.833778 L400,700 L407.83274,700 L500,792.167111 Z M400,724 L400,739.631256 L460.369773,800 L476,800 L400,724 Z M400,770.721778 L400,755 L445,800 L429.27758,800 L400,770.721778 Z M400,800 L414,800 L400,786 L400,800 Z M424,700 L439.63093,700 L500,760.368744 L500,776 L424,700 Z M470.72242,700 L455,700 L500,745 L500,729.278222 L470.72242,700 Z M500,714 L486,700 L500,700 L500,714 Z"/>
      <path fill="#261EE4" d="M500,192.167111 L500,200 L492.16637,200 L400,107.833778 L400,100 L407.83274,100 L500,192.167111 Z M400,124 L400,139.631256 L460.369773,200 L476,200 L400,124 Z M400,170.721778 L400,155 L445,200 L429.27758,200 L400,170.721778 Z M400,200 L414,200 L400,186 L400,200 Z M424,100 L439.63093,100 L500,160.368744 L500,176 L424,100 Z M470.72242,100 L455,100 L500,145 L500,129.278222 L470.72242,100 Z M500,114 L486,100 L500,100 L500,114 Z" transform="rotate(90 450 150)"/>
    </g>
    <g transform="matrix(0 1 1 0 -400 300)">
      <path fill="#FFF" d="M488.88879,400 L500,400 C500,455.227556 455.227758,500 400,500 L400,488.888889 C449.094306,488.888889 488.88879,449.094222 488.88879,400 Z M466.857015,400 L478,400 C478,443.078286 443.078356,478 400,478 L400,466.857143 C436.92201,466.857143 466.857015,436.92208 466.857015,400 Z M455,400 L444,400 C444,424.29856 424.298823,444 400,444 L400,455 C430.376171,455 455,430.37672 455,400 Z M422.666667,400 L434,400 C434,418.77888 418.779086,434 400,434 L400,422.666667 C412.517575,422.666667 422.666667,412.51744 422.666667,400 Z M400,400 L411,400 C411,406.07728 406.077348,411 400,411 L400,400 Z"/>
      <path fill="#261EE4" d="M111.11121,500 L100,500 C100,444.772444 144.772242,400 200,400 L200,411.111111 C150.905694,411.111111 111.11121,450.905778 111.11121,500 Z M133.142985,500 L122,500 C122,456.921714 156.921644,422 200,422 L200,433.142857 C163.07799,433.142857 133.142985,463.07792 133.142985,500 Z M145,500 L156.000176,500 C156.000176,475.70056 175.700788,456 200,456 L200,445 C169.623343,445 145,469.62328 145,500 Z M177.332728,500 L166,500 C166,481.220213 181.220413,466 200,466 L200,477.333333 C187.48209,477.333333 177.332728,487.48256 177.332728,500 Z M200,500 L189,500 C189,493.92272 193.922652,489 200,489 L200,500 Z"/>
      <path fill="#FFF" d="M311.11121,700 L300,700 C300,644.772444 344.772242,600 400,600 L400,611.111111 C350.905694,611.111111 311.11121,650.905778 311.11121,700 Z M333.142985,700 L322,700 C322,656.921714 356.921644,622 400,622 L400,633.142857 C363.07799,633.142857 333.142985,663.07792 333.142985,700 Z M345,700 L356.000176,700 C356.000176,675.70056 375.700788,656 400,656 L400,645 C369.623343,645 345,669.62328 345,700 Z M377.332728,700 L366,700 C366,681.220213 381.220413,666 400,666 L400,677.333333 C387.48209,677.333333 377.332728,687.48256 377.332728,700 Z M400,700 L389,700 C389,693.92272 393.922652,689 400,689 L400,700 Z" transform="matrix(-1 0 0 1 700 0)"/>
      <path fill="#261EE4" fill-rule="nonzero" d="M200 600L300 600 300 500C244.772242 500 200 544.772444 200 600zM400 700L500 700 500 600C444.772242 600 400 644.772444 400 700z"/>
      <path fill="#261EE4" d="M500 792.167111L500 800 492.16637 800 400 707.833778 400 700 407.83274 700 500 792.167111zM400 724L400 739.631256 460.369773 800 476 800 400 724zM400 770.721778L400 755 445 800 429.27758 800 400 770.721778zM400 800L414 800 400 786 400 800zM424 700L439.63093 700 500 760.368744 500 776 424 700zM470.72242 700L455 700 500 745 500 729.278222 470.72242 700zM500 714L486 700 500 700 500 714zM377.868875 833.145277L366.765367 833.145277 366.765367 844.268264 377.868875 844.268264 377.868875 855.418891 366.765367 855.418891 366.765367 866.569518 377.868875 866.569518 377.868875 877.692505 389 877.692505 389 888.843132 377.868875 888.843132 377.868875 877.720145 366.765367 877.720145 366.765367 888.843132 377.868875 888.843132 377.868875 900 366.737751 900 366.737751 888.849373 355.634243 888.849373 355.634243 877.726386 344.503118 877.726386 344.503118 888.849373 333.371993 888.849373 333.371993 877.726386 322.268485 877.726386 322.268485 888.849373 333.371993 888.849373 333.371993 900 322.239978 900 322.239978 888.849373 311.13736 888.849373 311.13736 900 300 900 300 888.849373 311.131125 888.849373 311.131125 877.726386 300 877.726386 300 866.574868 311.131125 866.574868 311.131125 855.424241 300 855.424241 300 844.273614 311.131125 844.273614 311.131125 833.150627 311.131125 833.122987 322.234633 833.122987 322.234633 822 333.365757 822 333.365757 833.122987 344.496882 833.122987 344.496882 822 355.628897 822 355.628897 833.122987 366.732406 833.122987 366.732406 822 377.86353 822 377.86353 833.122987 388.994655 833.122987 388.994655 844.273614 377.86353 844.273614 377.86353 833.145277 377.868875 833.145277zM311 833.972735L311 823 300 823 300 834 311 834 311 833.972735zM345 889L345 900 356 900 356 889 345 889zM378 866L378 855 389 855 389 866 378 866zM322 877L311 877 311 866 322 866 322 877zM322.263586 822L322.263586 811 333.367761 811 333.367761 822 344.499555 822 344.499555 811 355.632239 811 355.632239 822 366.764032 822 366.764032 811 377.868207 811 377.868207 822 389 822 389 811 377.868207 811 377.868207 800 366.736414 800 366.736414 811 355.632239 811 355.632239 800 344.499555 800 344.499555 811 333.367761 811 333.367761 800 322.235968 800 322.235968 811 311.131793 811 311.131793 800 300 800 300 811 311.131793 811 311.131793 822 322.263586 822zM366 844L366 855 355 855 355 844 366 844zM345 845L345 834 356 834 356 845 345 845zM334 844L345 844 345 855 334 855 334 844zM334 845L323 845 323 834 334 834 334 845zM334 866L323 866 323 855 334 855 334 866zM345 866L345 877 334 877 334 866 345 866zM356 866L345 866 345 855 356 855 356 866zM355 866L366 866 366 877 355 877 355 866zM322 855L322 844 311 844 311 855 322 855zM400 889L389 889 389 900 400 900 400 889zM389 866L400 866 400 877 389 877 389 866zM400 844L389 844 389 855 400 855 400 844zM389 823L400 823 400 834 389 834 389 823zM389 800L400 800 400 811 389 811 389 800z"/>
    </g>
    <g fill-rule="nonzero" transform="translate(448 195)">
      <path fill="#D2DAFF" d="M18.8137488,7.3467598 C18.8137488,-7.22748366 72.956065,4.2977567 73.2887752,4.78559781 C74.0806859,5.88956777 74.3188417,20.9104456 74.3744449,34.0011377 L14.322142,34.0002279 C14.5509934,30.6149415 17.3312039,27.9580047 20.7495515,27.9580047 C20.6890176,26.951858 18.8137488,7.98701425 18.8137488,7.3467598 Z"/>
      <path fill="#4B4B4B" d="M419.48,398.508889 L419.52,398.508889 C419.52,398.508889 419.52,398.468889 419.48,398.508889 Z"/>
      <path fill="#787878" d="M44.4799 194.54C44.4799 194.54 44.4799 194.5 44.5201 194.5L44.5201 194.46C44.5201 194.5 44.4799 194.54 44.4799 194.54zM44.4799 193.52C44.4799 193.52 44.5201 193.52 44.4799 193.52 44.5201 193.48 44.5201 193.48 44.5201 193.48L44.4799 193.52z"/>
      <path fill="#4B4B4B" d="M424.7066,385.6205 C424.5856,385.6605 424.4646,385.6605 424.3446,385.6605 C424.3446,385.6605 424.2646,385.4195 424.3046,385.4195 C424.4246,385.3795 424.5456,385.3395 424.6656,385.3395 C424.7066,385.4195 424.7066,385.5405 424.7066,385.6205 Z"/>
      <path fill="#A0A0A0" d="M391.4195 375.509111C391.4595 375.509111 391.5395 375.509111 391.5805 375.509111 391.5395 375.509111 391.4995 375.509111 391.4195 375.509111 391.4595 375.468111 391.4195 375.509111 391.4195 375.509111zM385.6005 378.5605C385.5195 378.5205 385.4395 378.4795 385.3995 378.4395 385.4395 378.4395 385.4795 378.4395 385.5195 378.4795 385.5595 378.4795 385.5595 378.5605 385.6005 378.5605zM391.3995 379.721C391.3595 379.561 391.2785 379.4 391.2385 379.279 391.3995 379.32 391.6005 379.32 391.7615 379.36 391.6405 379.48 391.5205 379.601 391.3995 379.721z"/>
      <path fill="#4B4B4B" d="M388.4795,419.5205 L388.5205,419.4795 L388.4795,419.5205 Z"/>
      <path fill="#A0A0A0" d="M385.490889,378.508889 C385.490889,378.508889 385.531889,378.468889 385.490889,378.508889 C385.531889,378.468889 385.490889,378.508889 385.490889,378.508889 Z"/>
      <path fill="#787878" d="M392.5805 381.511111C392.5405 381.511111 392.4605 381.511111 392.4195 381.471111 392.4605 381.511111 392.5405 381.511111 392.5805 381.511111 392.5805 381.551111 392.5805 381.511111 392.5805 381.511111zM392.4595 384.5805C392.4195 384.5405 392.4195 384.5005 392.3795 384.4605 392.4595 384.4605 392.5405 384.4195 392.6205 384.4195 392.5805 384.4605 392.5005 384.5405 392.4595 384.5805z"/>
      <path fill="#D2DAFF" d="M32.40573,103.492716 C28.4337587,96.9019985 22.0636248,92.1668652 14.5692618,90.499857 C13.595017,90.2726234 13.0329491,90.159478 13.0329491,90.159478 C12.2085953,89.7050108 11.2343505,90.2726234 11.1968544,91.2202157 L7,97.7732177 C8.23662399,98.3031151 20.5273121,100.386875 14.7941449,106.447695 L14.7941449,106.48541 C14.7941449,106.523125 14.7941449,106.56084 14.7566489,106.598556 L14.7566489,106.636271 C14.7566489,106.674929 14.7566489,106.712644 14.7566489,106.750359 L14.7566489,106.788074 C14.7566489,106.825789 14.7566489,106.863504 14.7566489,106.902162 L14.7566489,106.939877 C14.7566489,106.977593 14.7566489,106.977593 14.7941449,107.015308 C14.7941449,107.015308 14.7941449,107.053023 14.8315477,107.053023 C14.8315477,107.091681 14.8690438,107.091681 14.8690438,107.129396 L14.9065399,107.167111 L14.9440359,107.204826 C14.9440359,107.204826 14.9814387,107.204826 14.9814387,107.242541 C15.0189348,107.242541 15.0189348,107.280256 15.0564308,107.280256 C15.0939269,107.280256 15.0939269,107.280256 15.1313297,107.318914 C15.1688258,107.318914 15.1688258,107.318914 15.2063218,107.356629 C15.2438179,107.356629 15.2812207,107.356629 15.3187168,107.356629 C15.3562128,107.356629 15.3937089,107.356629 15.4311117,107.356629 C15.4686078,107.356629 15.5061038,107.356629 15.5435066,107.356629 C15.5810027,107.356629 15.6184987,107.356629 15.6559948,107.356629 C15.6933976,107.356629 15.7683897,107.356629 15.8432886,107.318914 C15.8807847,107.318914 15.9182807,107.318914 15.9182807,107.318914 C16.0306756,107.318914 16.1056678,107.280256 16.2180627,107.242541 C16.3304576,107.204826 16.4428525,107.204826 16.5178447,107.204826 C16.5552475,107.204826 16.6302396,107.204826 16.6677357,107.204826 C16.9300216,107.204826 17.2298036,107.242541 17.4920895,107.280256 C17.5669883,107.280256 17.6794765,107.318914 17.7543754,107.318914 C18.1665523,107.394345 18.5412331,107.546148 18.6537213,108.000615 C18.7661163,108.492797 18.3539394,108.795461 18.0541574,109.099068 C18.0166613,109.136783 17.9791652,109.174498 17.9042664,109.212213 C17.8667703,109.249928 17.7918715,109.288586 17.7543754,109.326302 C15.0189348,111.825871 14.5692618,112.242623 15.3562128,114.666762 C15.4311117,114.856281 15.7683897,115.879304 15.9182807,116.258341 C16.4428525,117.734887 15.1313297,120.500349 15.0939269,120.575779 C14.9440359,120.84167 24.1620053,128 24.1620053,128 C24.2369042,128 24.4617873,128 24.4992834,128 C24.5366862,128 24.6116783,128 24.6491744,128 C24.6865772,128 24.6865772,128 24.7240732,127.962285 C24.7615693,127.962285 24.7990654,127.92457 24.8364682,127.92457 C24.8739642,127.92457 24.8739642,127.886855 24.9114603,127.886855 C24.9489564,127.886855 24.9863592,127.84914 25.0238552,127.84914 C25.0613513,127.84914 25.1737462,127.772766 25.2112423,127.735051 C25.2486451,127.697336 25.2486451,127.697336 25.2861411,127.659621 C25.2861411,127.659621 27.1597319,126.409365 30.0450635,124.477408 C36.3777013,120.159027 37.8766112,111.447777 33.492463,105.121066 C33.1176889,104.628884 32.743008,104.061271 32.40573,103.492716 Z"/>
      <path fill="#A0A0A0" d="M213.511228,384.4395 C213.552228,384.4795 213.592228,384.5205 213.552228,384.5605 L213.431228,384.5605 C213.471228,384.5205 213.511228,384.4795 213.511228,384.4395 Z"/>
      <path fill="#D2DAFF" d="M307.915523 22C234.394099 22 167.659932 51.1872997 118.720729 98.6257668 103.488818 113.40884 83.129017 121.742329 61.902133 121.742329 61.902133 122.760783 61.9774948 123.740752 62.0529505 124.721659 64.3151193 150.590394 61.1857733 176.572708 52.3254557 200.970551 41.7686055 230.007288 36 261.343761 36 294L50.8551023 294C86.8613515 294 119.021989 271.525486 131.427128 237.737215 150.240369 186.489729 199.066012 152.400145 253.660637 152.400145L253.773257 152.400145C325.711426 152.400145 384 94.0629045 384 22.1508439L384 22 307.915523 22zM331.509193 341.03697C331.509193 341.03697 333.73008 375.009161 333.73008 376.745543 333.73008 388.673769 322.02216 399.582529 313.589346 406L355 406C352.402405 392.863447 344.948843 360.36361 341.259546 344.245705 339.828619 338.054679 337.419378 332.128619 334.144271 326.693031L332.525928 324.013291C324.921496 311.405733 322.210514 296.457631 324.883076 282L284 306.988672 331.509193 341.03697z"/>
      <path fill="#FFF" d="M344,406 C342.723239,395.835426 339.982782,376.925801 339.569658,377 C339.156533,377.074637 331.008068,400.880039 325,406 L344,406 Z"/>
      <path fill="#D2DAFF" d="M237.916956,406 C238.595953,404.414496 236.482891,395.541503 236.671657,394.409001 C236.860424,393.275558 244.066438,373.340693 247.461425,363.938572 C248.556461,360.956472 247.952595,357.633212 245.914663,355.179299 C241.840678,350.309068 234.10593,351.177477 231.201173,356.803336 C224.560521,369.715745 214.637579,388.707015 213.204453,390.217331 C213.090817,390.331051 212.97812,390.406238 212.864485,390.481425 C212.864485,390.481425 200.338249,399.996327 194,405.962407 L237.916956,405.962407 L237.916956,406 Z"/>
      <path fill="#FFF" d="M212.937011,390.029476 C212.825879,390.144824 212.71382,390.221088 212.602687,390.298305 C212.602687,390.298305 200.250288,399.948494 194,406 L226.591515,406 C229.754167,398.455636 213.532497,389.417462 212.937011,390.029476 Z"/>
      <path fill="#D2DAFF" d="M105.321602,363.09336 C105.512404,365.95862 107.839044,380.43696 106.656264,384.659301 C105.665235,388.24158 95.4065659,398.91146 89,406 L127.897889,406 C128.355433,400.079901 127.783028,392.5024 128.888918,391.93648 C129.880896,391.44658 134.037712,389.7873 134,388.46776 C133.961771,387.3744 123.130697,372.40616 122.406411,367.88162 C121.910896,364.86526 112.910948,318 112.910948,318 L112.834058,318.113559 C102.347566,329.990359 99.2966395,346.5794 104.788117,361.39654 C105.09283,362.301261 105.321602,362.942261 105.321602,363.09336 Z"/>
      <path fill="#FFF" d="M106.490873,384.784703 C105.509127,388.345932 95.3465538,398.953114 89,406 L123,406 C117.975606,393.780608 107.624959,380.624493 106.490873,384.784703 Z"/>
      <path fill="#D2DAFF" d="M0,406 L35.7091941,406 C36.9535179,402.494187 38.2733065,399.025909 38.6127103,399.10098 C41.3652969,399.968049 44.985259,395.029319 43.7786676,394.653026 C43.0998601,394.426875 52.7907935,360.045318 59.5782108,336.069533 C63.6128536,321.81919 74.3219043,310.433742 88.2738749,305.49595 L88.9900393,305.232263 C105.694596,299.312919 119.156234,286.684108 126.132031,270.360868 L126.169576,270.284859 C126.169576,270.284859 261.99301,269.87103 261.540597,270.284859 C260.333536,271.416553 231.411947,316.994004 231.411947,316.994004 C248.230077,317.03154 264.368648,310.20759 276.020633,298.107092 C287.860341,285.817039 302.86788,270.435939 312.634184,261.01172 C320.213512,253.697932 324.512376,243.67033 324.512376,233.114416 C324.512376,226.215396 322.92893,219.392385 319.912216,213.171818 L311.352973,195.566742 L317.084165,196.886114 C327.039131,199.148565 335.975699,204.689739 342.386449,212.606909 C348.984923,220.749292 352.605166,230.890439 352.605166,241.370344 L352.605166,248.835212 L352.454049,248.872747 C352.529138,248.872747 352.566683,248.872747 352.642711,248.872747 L352.642711,323.063491 L352.680256,323.063491 C352.151815,348.170032 355.508307,373.428591 362.747856,397.856679 C368.177752,395.972398 373.607648,394.087179 379,392.164424 C369.837226,369.734162 364.181123,345.794974 362.409015,321.215807 C361.504189,321.253342 360.56088,321.253342 359.656053,321.291816 L359.656053,237.412228 C359.656053,152.590499 209.542184,138.038934 137.670444,222.520967 C137.670444,222.520967 35.4075228,293.620664 35.4828937,293.96036 C35.4828937,294.035431 37.8585319,310.057448 40.5357477,326.117002 C43.9295032,346.209741 37.5568606,366.680651 23.3033125,381.232217 C14.0272476,390.732445 4.63798554,400.684038 0,406 Z"/>
      <path fill="#FFF" d="M151.399995 160.387288L238.157246 108.911912C270.719358 89.5897412 293.482817 58.0025148 302 22 230.808021 23.5094947 166.324531 52.4172248 118.686846 98.6087584 103.461173 113.403103 83.1097123 121.742946 61.8915231 121.742946 61.8915231 122.762177 61.9668541 123.742893 62.0422788 124.724548 64.303521 150.613007 61.1754568 176.614192 52.3187686 201.031576 41.8792859 229.750397 36.1507557 260.696494 36 293L36.4899796 292.849699C62.1176098 285.452057 82.0167098 265.337986 89.629546 239.713494 99.35315 206.881115 121.174737 178.350172 151.399995 160.387288zM314.725377 175.455525L286.091994 167.642794C237.561841 160.323786 176.284085 177.23784 137.626993 222.861509 137.626993 222.861509 137.05924 223.278767 136 224L145.380632 224C171.707225 224 197.35308 215.845533 218.875901 200.676033 240.398722 185.50559 266.043635 177.352066 292.370229 177.352066L319 177.352066C317.59992 176.669538 316.163119 176.02477 314.725377 175.455525zM0 405.53853C1.21641193 404.075718 16.4603103 394.587508 17.5626984 394.100215 20.2997435 392.787698 34.4412538 404.787987 36 405.53853 36.0758162 405.726166 10.3779667 406.475776 0 405.53853z"/>
      <path fill="#D2DAFF" d="M53.8839107,56 C49.9334732,56 47.6384866,60.4965402 50.0087678,63.6814923 L50.3849598,64.168651 L9,64.168651 C9,69.5269293 13.3642767,73.8735817 18.7442812,73.8735817 L52.1909062,73.8735817 C58.3233883,73.8735817 59.0005714,83.0164566 52.9057365,83.6909983 C52.2661071,83.7656157 51.5889241,83.728307 50.8740937,83.6163809 L28.3757143,79.2318601 C28.3757143,92.9090503 39.5120089,104 53.2442812,104 L53.921558,104 C67.239991,104 78,93.2457615 78,80.0187943 C78,66.7541453 67.2023437,56 53.8839107,56 Z"/>
      <path fill="#4038FF" d="M151,160 L221.098271,134.272956 C271.822261,115.654811 310.497493,73.8674401 325,22 L301.885866,22 C284.134255,63.8625513 253.428539,98.9924795 214.262557,122.312441 L151,160 Z"/>
    </g>
  </g>
</svg>
