<svg xmlns="http://www.w3.org/2000/svg" width="1310" height="800" viewBox="0 0 1310 800">
  <g fill="none" fill-rule="evenodd">
    <rect width="1310" height="800" fill="#000"/>
    <g fill="#4038FF" transform="rotate(-90 410 202)">
      <path d="M47,377 L47,424 L0,424 L0,377 L47,377 Z M141,377 L141,424 L94,424 L94,377 L141,377 Z M236,377 L236,424 L189,424 L189,377 L236,377 Z M330,377 L330,424 L283,424 L283,377 L330,377 Z M424,377 L424,424 L377,424 L377,377 L424,377 Z M94,330 L94,377 L47,377 L47,330 L94,330 Z M188,330 L188,377 L141,377 L141,330 L188,330 Z M283,330 L283,377 L236,377 L236,330 L283,330 Z M377,330 L377,377 L330,377 L330,330 L377,330 Z M47,283 L47,330 L0,330 L0,283 L47,283 Z M141,283 L141,330 L94,330 L94,283 L141,283 Z M236,283 L236,330 L189,330 L189,283 L236,283 Z M330,283 L330,330 L283,330 L283,283 L330,283 Z M424,283 L424,330 L377,330 L377,283 L424,283 Z M94,236 L94,283 L47,283 L47,236 L94,236 Z M188,236 L188,283 L141,283 L141,236 L188,236 Z M283,236 L283,283 L236,283 L236,236 L283,236 Z M377,236 L377,283 L330,283 L330,236 L377,236 Z M236,188 L236,235 L189,235 L189,188 L236,188 Z M330,188 L330,235 L283,235 L283,188 L330,188 Z M424,188 L424,235 L377,235 L377,188 L424,188 Z M47,188 L47,235 L0,235 L0,188 L47,188 Z M141,188 L141,235 L94,235 L94,188 L141,188 Z M94,141 L94,188 L47,188 L47,141 L94,141 Z M188,141 L188,188 L141,188 L141,141 L188,141 Z M283,141 L283,188 L236,188 L236,141 L283,141 Z M377,141 L377,188 L330,188 L330,141 L377,141 Z M47,94 L47,141 L0,141 L0,94 L47,94 Z M141,94 L141,141 L94,141 L94,94 L141,94 Z M236,94 L236,141 L189,141 L189,94 L236,94 Z M330,94 L330,141 L283,141 L283,94 L330,94 Z M424,94 L424,141 L377,141 L377,94 L424,94 Z M94,47 L94,94 L47,94 L47,47 L94,47 Z M188,47 L188,94 L141,94 L141,47 L188,47 Z M283,47 L283,94 L236,94 L236,47 L283,47 Z M377,47 L377,94 L330,94 L330,47 L377,47 Z M47,0 L47,47 L0,47 L0,0 L47,0 Z M141,0 L141,47 L94,47 L94,0 L141,0 Z M236,0 L236,47 L189,47 L189,0 L236,0 Z M330,0 L330,47 L283,47 L283,0 L330,0 Z M424,0 L424,47 L377,47 L377,0 L424,0 Z"/>
      <path d="M47,753 L47,800 L1.13686838e-13,800 L1.13686838e-13,753 L47,753 Z M141,753 L141,800 L94,800 L94,753 L141,753 Z M236,753 L236,800 L189,800 L189,753 L236,753 Z M330,753 L330,800 L283,800 L283,753 L330,753 Z M424,753 L424,800 L377,800 L377,753 L424,753 Z M94,706 L94,753 L47,753 L47,706 L94,706 Z M188,706 L188,753 L141,753 L141,706 L188,706 Z M283,706 L283,753 L236,753 L236,706 L283,706 Z M377,706 L377,753 L330,753 L330,706 L377,706 Z M47,659 L47,706 L1.13686838e-13,706 L1.13686838e-13,659 L47,659 Z M141,659 L141,706 L94,706 L94,659 L141,659 Z M236,659 L236,706 L189,706 L189,659 L236,659 Z M330,659 L330,706 L283,706 L283,659 L330,659 Z M424,659 L424,706 L377,706 L377,659 L424,659 Z M94,612 L94,659 L47,659 L47,612 L94,612 Z M188,612 L188,659 L141,659 L141,612 L188,612 Z M283,612 L283,659 L236,659 L236,612 L283,612 Z M377,612 L377,659 L330,659 L330,612 L377,612 Z M236,564 L236,611 L189,611 L189,564 L236,564 Z M330,564 L330,611 L283,611 L283,564 L330,564 Z M424,564 L424,611 L377,611 L377,564 L424,564 Z M47,564 L47,611 L1.13686838e-13,611 L1.13686838e-13,564 L47,564 Z M141,564 L141,611 L94,611 L94,564 L141,564 Z M94,517 L94,564 L47,564 L47,517 L94,517 Z M188,517 L188,564 L141,564 L141,517 L188,517 Z M283,517 L283,564 L236,564 L236,517 L283,517 Z M377,517 L377,564 L330,564 L330,517 L377,517 Z M47,470 L47,517 L1.13686838e-13,517 L1.13686838e-13,470 L47,470 Z M141,470 L141,517 L94,517 L94,470 L141,470 Z M236,470 L236,517 L189,517 L189,470 L236,470 Z M330,470 L330,517 L283,517 L283,470 L330,470 Z M424,470 L424,517 L377,517 L377,470 L424,470 Z M94,423 L94,470 L47,470 L47,423 L94,423 Z M188,423 L188,470 L141,470 L141,423 L188,423 Z M283,423 L283,470 L236,470 L236,423 L283,423 Z M377,423 L377,470 L330,470 L330,423 L377,423 Z M47,376 L47,423 L1.13686838e-13,423 L1.13686838e-13,376 L47,376 Z M141,376 L141,423 L94,423 L94,376 L141,376 Z M236,376 L236,423 L189,423 L189,376 L236,376 Z M330,376 L330,423 L283,423 L283,376 L330,376 Z M424,376 L424,423 L377,423 L377,376 L424,376 Z"/>
      <path d="M47,847 L47,894 L1.13686838e-13,894 L1.13686838e-13,847 L47,847 Z M141,847 L141,894 L94,894 L94,847 L141,847 Z M236,847 L236,894 L189,894 L189,847 L236,847 Z M330,847 L330,894 L283,894 L283,847 L330,847 Z M424,847 L424,894 L377,894 L377,847 L424,847 Z M94,800 L94,847 L47,847 L47,800 L94,800 Z M188,800 L188,847 L141,847 L141,800 L188,800 Z M283,800 L283,847 L236,847 L236,800 L283,800 Z M377,800 L377,847 L330,847 L330,800 L377,800 Z M236,752 L236,799 L189,799 L189,752 L236,752 Z M330,752 L330,799 L283,799 L283,752 L330,752 Z M424,752 L424,799 L377,799 L377,752 L424,752 Z M47,752 L47,799 L1.13686838e-13,799 L1.13686838e-13,752 L47,752 Z M141,752 L141,799 L94,799 L94,752 L141,752 Z M94,705 L94,752 L47,752 L47,705 L94,705 Z M188,705 L188,752 L141,752 L141,705 L188,705 Z M283,705 L283,752 L236,752 L236,705 L283,705 Z M377,705 L377,752 L330,752 L330,705 L377,705 Z M47,658 L47,705 L1.13686838e-13,705 L1.13686838e-13,658 L47,658 Z M141,658 L141,705 L94,705 L94,658 L141,658 Z M236,658 L236,705 L189,705 L189,658 L236,658 Z M330,658 L330,705 L283,705 L283,658 L330,658 Z M424,658 L424,705 L377,705 L377,658 L424,658 Z M94,611 L94,658 L47,658 L47,611 L94,611 Z M188,611 L188,658 L141,658 L141,611 L188,611 Z M283,611 L283,658 L236,658 L236,611 L283,611 Z M377,611 L377,658 L330,658 L330,611 L377,611 Z M47,564 L47,611 L1.13686838e-13,611 L1.13686838e-13,564 L47,564 Z M141,564 L141,611 L94,611 L94,564 L141,564 Z M236,564 L236,611 L189,611 L189,564 L236,564 Z M330,564 L330,611 L283,611 L283,564 L330,564 Z M424,564 L424,611 L377,611 L377,564 L424,564 Z"/>
    </g>
    <g fill-rule="nonzero" transform="translate(422 103.5)">
      <path fill="#010101" d="M375.791221,540.413168 C375.791221,540.413168 362.104466,539.905699 355.261089,545.290509 C355.261089,545.290509 339.208722,535.056551 308.089661,542.471237 L296.374249,495.276619 C296.374249,495.276619 285.109431,444.839839 300.711205,421.975541 C311.24381,406.441351 332.703289,386.058013 358.077293,356.737582 C369.342112,343.599773 383.873728,333.309429 396.462163,322.53981 C412.824312,308.443448 415.584193,283.718431 414.908303,263.053165 C413.950794,234.268396 396.462163,207.513502 396.462163,207.513502 C396.462163,207.513502 228.306583,187.975946 202.594634,203.481943 C202.594634,203.481943 108.223616,267.592194 19.2597107,381.096094 C21.3784814,381.779818 23.4031873,382.726972 25.2863887,383.915366 C25.2863887,383.915366 0.616435908,416.78808 0.785408188,441.090207 C-0.03191532,445.593295 0.307256058,450.230451 1.77107982,454.566328 C2.87629534,460.082669 3.60083422,465.668637 3.93955741,471.284613 C3.83780005,476.326613 3.99760006,481.3705 4.4183122,486.395912 C4.4183122,486.395912 1.17967684,501.648175 0.362977489,504.100942 C-0.453721862,506.553708 0.362977489,522.679946 0.362977489,522.679946 C0.362977489,522.679946 75.2458594,487.354464 85.8347889,481.208451 C85.8347889,481.208451 130.330822,484.873505 146.636647,482.02604 C146.636647,482.02604 161.449884,500.999742 163.083283,504.580218 L170.20828,543.429789 C170.20828,543.429789 155.648502,545.938941 150.494848,551.323751 C148.298208,551.323751 124.078848,547.884239 115.742882,557.328801 C115.742882,557.328801 111.546737,574.526362 113.602567,577.373827 C115.658396,580.221292 124.867385,579.460088 127.68359,576.584431 C127.68359,576.584431 142.609475,593.020788 157.732494,591.38561 C172.855513,589.750432 193.667265,579.742016 210.001252,583.435262 C226.335239,587.128509 251.005192,594.345846 266.128211,590.088745 C276.97494,586.686374 287.441167,582.17032 297.359921,576.612623 L301.781362,580.249485 C301.781362,580.249485 303.442923,578.614307 303.048654,577.430212 C303.048654,577.430212 349.375221,582.082012 362.188952,588.509952 C379.931042,597.503431 399.869771,574.949253 399.869771,574.949253 C399.869771,574.949253 401.672142,575.456722 405.50218,576.16154 C405.305046,576.189733 413.331229,539.172688 375.791221,540.413168 Z M256.384143,540.751481 C248.49877,540.94883 246.16132,543.570753 246.16132,543.570753 L224.673679,541.033408 C222.89947,537.734859 214.479018,498.744324 214.479018,498.744324 C214.197397,493.10578 220.111427,477.740746 220.111427,477.740746 C223.434212,477.625799 226.715984,476.968731 229.827333,475.795448 C233.798182,480.700982 253.342642,503.988171 253.342642,503.988171 C256.947384,513.376347 256.468629,540.751481 256.468629,540.751481 L256.384143,540.751481 Z"/>
      <path fill="#C4C3C6" d="M268.622798 541.675165C268.622798 541.675165 284.263213 543.141272 291.733679 550.5L294 549.738752 284.067358 503.5C284.067358 503.5 272.651813 506.488602 267 511.366227L268.622798 541.675165zM303 557.564397C303 557.564397 323.313908 544.941311 352.863987 553.442573L355.243859 562.029706C355.243859 562.029706 396.09833 560.455399 392.81184 568.870789 389.52535 577.28618 372.979573 580.119934 364.763348 577.629665 356.547123 575.139397 333.966669 564.577223 308.099726 567.926205 306.647112 564.353574 304.942834 560.890761 303 557.564397L303 557.564397zM183.954588 513.22918L182.573131 555.129243C174.016963 554.739167 165.470677 556.089962 157.453169 559.099612 157.453169 559.099612 159.595837 566.449018 155.930747 567.378253 152.265657 568.307489 138 570.503863 138 570.503863L139.014948 571.799161C139.014948 571.799161 156.128098 581.232306 165.629139 576.698765 173.325828 573.009982 183.277956 568.251171 205.099338 568.589075 226.920719 568.926979 238.282497 580.500182 252.068874 579.430153 265.85525 578.360125 283.33491 574.108169 287 569.51831 287 569.51831 283.024787 563.379726 267.405865 562.478649 251.786944 561.577573 248.713907 561.549414 246.571239 552.369696 246.571239 552.369696 226.83614 551.750206 215.925449 555.18556 215.925449 555.18556 204.64825 504.5 203.52053 504.5 202.39281 504.5 187.619678 507.40034 183.954588 513.22918zM97 466.64827C103.148215 464.513794 172.357936 412.5 172.357936 412.5 168.353135 418.313637 125.0054 451.819283 125.0054 451.819283 125.0054 451.819283 127.120612 452.465243 133.466247 449.712893 139.811881 446.960543 180.254725 422.077054 181.185418 421.150242L165.89949 437.804767 186.261926 424.2677C191.023062 425.355136 195.90354 425.83643 200.786378 425.700045 196.497154 430.009402 192.555376 434.64844 188.9976 439.574135 197.458446 433.170709 208.40114 424.913659 208.40114 424.913659L216.467147 424.913659C214.240187 429.331557 211.535491 433.49411 208.40114 437.327319L224.871587 431.906875 220.471947 438.057534C227.776477 432.63709 243.344434 427.441328 243.344434 427.441328 240.270327 429.294951 222.784578 446.51118 222.784578 446.51118 227.09961 441.933292 265.314431 419.268534 265.314431 419.268534L268.839784 418.70683C266.696369 421.150242 257.840684 433.535816 257.840684 433.535816L272.929193 418.875341C276.795011 417.222176 280.848367 416.043308 285 415.364691 285 415.364691 278.992799 435.024332 276.539154 449.066933 273.888089 463.643153 281.108011 487.122382 281.108011 487.122382 276.268334 489.941038 271.01544 491.987944 265.540054 493.188786 259.363636 483.780243 239.931893 464.401453 239.931893 464.401453L247.518452 447.550332C238.640176 455.96833 227.881987 462.167234 216.128713 465.637202 214.464746 465.637202 212.857186 451.594601 212.857186 451.594601 207.216621 457.211642 199.376237 491.278992 199.376237 491.278992 198.163516 494.087512 189.448845 495.772624 185.782478 495.463687 182.116111 495.15475 178.844584 489.678135 178.844584 489.678135L186.882388 486.392167 174.952595 483.948754C171.286229 482.432153 160.569157 467.912104 160.569157 467.912104 161.161416 466.142736 190.210321 448.954592 190.210321 448.954592L157.495049 464.036346 97 466.64827z"/>
      <path fill="#FFF" d="M362.009819 552.412496L364.32994 556.124471C375.95046 554.365601 387.822882 556.61368 398 562.5 394.829166 554.749359 387.293382 549.688274 378.929731 549.69227 361.019523 548.615514 362.009819 552.412496 362.009819 552.412496zM225.097614 313.668525C194.388286 341.053806 109 391.835948 109 391.835948 109 391.835948 133.759219 404.447221 177.073753 382.876046 220.388286 361.30487 260.798265 320.212905 265 314.426886L243.314534 327.908871 257.611714 313.5C257.611714 313.5 251.548807 314.342624 247.995662 314.426886L210.546638 336.896861C220.557484 331.644504 241.368764 314.426886 241.368764 314.426886L225.097614 313.668525z"/>
      <path fill="#010101" d="M171.590133,365.952654 C171.590133,365.952654 214.557875,342.927547 222,337.5 C222,337.5 199.533207,359.601865 180.267932,367.519369 C170.012164,372.072921 159.139816,375.098854 148,376.5 L171.590133,365.952654 Z"/>
      <path fill="#C4C3C6" d="M11,501.5 C11,501.5 15.8513527,489.681335 18.3334401,482.270106 C18.9539619,480.445372 71.049592,425.2261 96.8012488,412.088012 L100.467969,412.088012 C73.8983514,434.742792 77.3676326,432.496965 70.5418923,438.953718 C70.5418923,438.953718 116.122043,406.305008 122.27085,404.171472 C122.27085,404.171472 108.760397,419.106222 105.347527,422.166161 C105.347527,422.166161 138.489035,406.978756 143.086538,404.536419 C140.767469,407.767675 138.192562,410.80923 135.386426,413.632018 C135.386426,413.632018 180.994782,392.015933 185,390.5 C185.056379,390.556146 34.5798304,500.040212 11,501.5 Z"/>
      <path fill="#010101" d="M55.4270922,456.915169 C62.2045322,452.615043 68.7124656,447.891066 74.9132663,442.770541 C78.9496881,438.668598 83.988256,439.941615 74.9132663,448.088921 C65.8382767,456.236226 63.1380497,458.725681 55.4270922,459.404623 C47.7161347,460.083565 55.4270922,456.915169 55.4270922,456.915169 Z"/>
      <path fill="#FFF" d="M258.018506 550.943409C258.018506 550.943409 257.656459 554.478486 260.135092 555.015817 263.950516 555.835955 277.234876 553.403822 293.833364 563.5 293.833364 563.5 295.504353 561.039587 288.263402 554.761292 281.02245 548.482996 263.477069 548.680961 258.018506 550.943409zM121 571.5C121 571.5 122.544463 562.797054 125.004162 561.462602 127.463862 560.12815 144.567354 559.083797 147.42747 559.663993 147.42747 559.663993 149.715563 562.129828 148.771724 563.029132 147.827886 563.928437 131.86844 565.436947 129.208532 567.931792 127.061942 570.200021 124.09978 571.487659 121 571.5L121 571.5z"/>
      <path fill="#010101" d="M182.329825,555.484857 C186.950118,555.598247 191.540008,556.27485 196,557.5 C196,557.5 185.277193,548.985311 180,549.524575 L182.329825,555.484857 Z"/>
      <path fill="#C4C3C6" d="M90 403.123952C90 403.123952 84.9619499 401.771385 85.1871142 397.488259L71.3113673 406.336297 87.1010103 392.247065 84.2864572 390.725428C81.837796 392.247065 57.3793294 410.929386 57.3793294 410.929386L78.0662948 390.5C76.1931624 390.656038 74.310321 390.656038 72.4371886 390.5 67.2302653 393.853237 24.3083303 434.373868 17.5815484 446.321536 10.8547665 458.269205 15.6676523 474.5 15.6676523 474.5 15.6676523 474.5 54.5084853 431.556021 90 403.123952zM66 388.5C66 388.5 29.2307892 417.189655 15.3150571 440.5 15.3150571 440.5 11.2421599 436.885776 13.9008566 427.556034 16.5595534 418.226293 40.8555166 392.842672 45.550662 389.62069L39.5544522 401.696121 53.9227284 388.696121C57.9305006 389.31085 62.0147227 389.244527 66 388.5L66 388.5z"/>
      <path fill="#010101" d="M181.258003,91.0813242 C181.258003,91.0813242 168.30543,70.2515604 167.430638,63.5804063 C179.183413,58.8037784 191.831553,56.614629 204.510552,57.1625872 C204.510552,57.1625872 202.05549,33.9683637 207.727531,27.9446212 C207.727531,27.9446212 233.745554,37.4587566 241.590467,43.0321258 C241.590467,43.0321258 240.264169,16.7697344 250.056201,12.5756333 C250.056201,12.5756333 272.631491,24.8764533 273.929571,34.1935504 C273.929571,34.1935504 277.993123,13.3074899 288.405976,9.84524538 C293.817651,15.930691 298.886095,22.3114348 303.587859,28.9579611 C303.587859,28.9579611 313.577425,3.62446457 322.043159,0.5 C322.043159,0.5 338.184491,17.0793661 339.651885,24.7357117 C339.651885,24.7357117 340.385582,15.8971362 356.583353,9.84524538 C356.583353,9.84524538 373.514821,26.3401664 372.752905,35.9950434 C372.752905,35.9950434 381.218639,17.3608493 392.167655,15.193428 C392.167655,15.193428 406.474745,19.3030841 406.785155,37.7120915 C406.785155,37.7120915 419.314442,27.4660996 428.005928,24.1445967 C428.005928,24.1445967 441.720417,39.203953 439.632203,47.8454901 C439.632203,47.8454901 453.572445,41.5402643 462.433246,43.4824991 C462.433246,43.4824991 469.685558,54.7418309 463.364477,72.3908334 C463.364477,72.3908334 487.378942,70.1671154 492.119753,75.346408 C492.119753,75.346408 485.23429,97.8650716 481.678682,99.2161914 C481.678682,99.2161914 500.444392,106.422164 504,111.742198 C504,111.742198 488.451269,129.025272 484.89566,130.798617 L500.585487,151.346898 C500.585487,151.346898 491.329618,164.154387 483.343609,164.154387 C483.343609,164.154387 487.943325,181.606352 487.4636,193.119018 C487.4636,193.119018 469.290491,194.554583 463.223382,189.656774 C463.223382,189.656774 465.875978,203.562049 464.54968,211.556174 C464.54968,211.556174 445.078492,209.810978 441.974389,204.490944 C441.974389,204.490944 436.471662,225.179966 431.13825,229.599253 C431.13825,229.599253 415.984586,219.747338 414.658288,214.427304 C414.658288,214.427304 412.259663,226.95331 405.571734,230.5 C405.571734,230.5 387.172872,216.763615 388.047664,212.344327 C388.047664,212.344327 384.04055,228.726655 376.506047,229.599253 C376.506047,229.599253 364.936211,218.53696 364.936211,212.710256 C364.936211,212.710256 361.408822,223.350324 355.623903,223.800698 C355.623903,223.800698 345.86009,214.933974 343.63078,209.726533 C343.63078,209.726533 332.51245,227.882205 327.630543,229.65555 C327.630543,229.65555 308.977709,209.27616 306.748399,203.956125 C306.748399,203.956125 303.192791,217.01695 298.282666,220.254008 C294.965038,218.005897 292.228348,215.005983 290.296657,211.499878 C290.296657,211.499878 283.18544,226.559234 278.755039,227.45998 C278.755039,227.45998 269.866018,224.645147 267.185203,220.254008 C263.476838,224.511431 258.735339,227.748496 253.414275,229.65555 C249.390391,226.076202 245.944692,221.898564 243.198957,217.270285 C243.198957,217.270285 232.532132,227.45998 224.997629,227.45998 C224.997629,227.45998 216.9834,215.046567 218.337918,208.853935 C218.337918,208.853935 201.124259,219.071778 190.118805,218.621405 C190.118805,218.621405 185.152241,204.88502 186.930045,199.114613 C186.930045,199.114613 173.384871,198.129421 169.405976,195.933851 C169.405976,195.933851 163.959687,178.875964 172.594736,168.798862 C172.594736,168.798862 149.709035,154.077286 147,147.884653 C155.203448,140.235663 164.265435,133.557759 174.005691,127.983784 L148.608489,105.97179 C158.196279,98.5655743 169.37012,93.4695194 181.258003,91.0813242 L181.258003,91.0813242 Z"/>
      <path fill="#C4C3C6" d="M304,182.864729 C304,182.864729 322.188179,220.852705 327.034647,224.5 C327.034647,224.5 342.35394,191.95491 345,180.423848 C345,180.423848 332.076087,162.748497 326.533288,154.5 C326.533288,154.5 312.411685,176.271543 304,182.864729 Z"/>
      <path fill="#FFF" d="M393.417328,180.5 C393.417328,180.5 439.997547,176.713411 451.324817,132.630735 C462.652087,88.5480596 413.557835,64.3873623 393.417328,64.5 C373.27682,64.6134273 331.724666,86.0613446 334.09746,124.464137 C336.470255,162.86693 368.248755,179.14361 393.417328,180.5 Z"/>
      <path fill="#C4C3C6" d="M393.372365,173.5 C393.372365,173.5 434.503827,170.176065 444.517952,131.415597 C454.532077,92.6551287 411.165824,71.4157444 393.372365,71.5 C375.578906,71.584758 338.888737,90.4861199 341.095239,124.232516 C343.301741,157.978911 371.137613,172.373242 393.372365,173.5 Z"/>
      <path fill="#FFF" d="M393.384357,166.5 C393.384357,166.5 429.056876,163.694781 437.720201,130.20047 C446.383527,96.7061585 408.785825,78.4161326 393.384357,78.5 C377.982889,78.5844457 346.132426,94.8827664 348.085921,124.000937 C350.039416,153.119107 374.075899,165.546226 393.384357,166.5 Z"/>
      <path fill="#010101" d="M389.486259,158.5 C389.486259,158.5 409.714675,156.191397 414.091419,151.180039 C414.091419,151.180039 436.985161,131.472451 429.494194,115.678227 C429.494194,115.678227 417.626482,93.1552691 406.628509,90.5369753 C395.630535,87.9186815 371.895112,89.2137516 366.171677,106.86612 C360.448241,124.518488 355.229815,146.590986 389.486259,158.5 Z"/>
      <path fill="#FFF" d="M420.667837 143.989955C420.667837 143.989955 402.489241 152.010711 389.009112 145.734821 380.686464 141.587887 374.310744 134.323348 371.250022 125.5 371.250022 125.5 368.285513 141.935515 382.772456 148.014404 397.259398 154.093294 413.536234 153.896292 418.262669 148.014404 422.317894 142.976806 420.667837 143.989955 420.667837 143.989955zM257.826065 182.5C257.826065 182.5 304.865535 178.688485 316.307568 134.220811 327.749601 89.7531374 278.167457 65.3594421 257.826065 65.5 237.484672 65.6417765 195.67181 87.2403609 198.101476 125.976646 200.531143 164.71293 232.399324 181.229495 257.826065 182.5z"/>
      <path fill="#C4C3C6" d="M257.86842,175.5 C257.86842,175.5 299.404771,172.14652 309.505914,133.003796 C319.607056,93.8610729 275.835439,72.4157075 257.86842,72.5 C239.901402,72.5847905 202.835585,91.6629934 205.099147,125.761406 C207.362708,159.859819 235.402574,174.37278 257.86842,175.5 Z"/>
      <path fill="#FFF" d="M257.901211,169.5 C257.901211,169.5 293.926909,166.678699 302.701318,132.343471 C311.475727,98.0082421 273.481412,79.3876579 257.901211,79.5 C242.321011,79.613362 210.091933,96.2308227 212.088673,126.023757 C214.085414,155.816692 238.4119,168.512545 257.901211,169.5 Z"/>
      <path fill="#010101" d="M252.86997,160.5 C252.86997,160.5 273.398841,158.177895 277.854283,153.052272 C277.854283,153.052272 301.06206,133.229424 293.476529,117.031324 C293.476529,117.031324 281.435556,94.1784113 270.268752,91.5448043 C259.101948,88.9111972 235.020003,90.1855232 229.239208,108.111042 C223.458413,126.036561 218.072404,148.379744 252.86997,160.5 Z"/>
      <path fill="#FFF" d="M284.654839,145.905981 C284.654839,145.905981 266.112025,153.861578 252.374514,147.624611 C243.874645,143.509694 237.366468,136.281046 234.255698,127.5 C234.255698,127.5 231.231184,143.854712 245.986289,150.008518 C260.741393,156.162325 277.531684,155.829687 282.223921,150.008518 C286.350828,144.880346 284.654839,145.905981 284.654839,145.905981 Z"/>
      <path fill="#C4C3C6" d="M328.530835,70.5 C328.530835,70.5 312.895778,71.1677845 314.062159,81.6297413 C314.27274,85.0885738 316.018932,88.2709361 318.820915,90.3023707 C321.622895,92.3338053 325.185886,93.0005967 328.530835,92.1195225 C328.530835,92.1195225 335.640204,91.6186841 336.862127,81.6297413 C337.306757,79.035602 336.665545,76.3724914 335.089306,74.2668011 C333.51307,72.1611111 331.140929,70.7986922 328.530835,70.5 Z"/>
      <path fill="#FFF" d="M216 304.5C216 304.5 104.061281 374.246677 100.162356 374.919204 91.4472066 375.913325 82.6319966 375.630071 74 374.078545 83.408277 369.398877 142.937525 316.017029 142.937525 316.017029L149.12495 315.064282C147.966574 317.390105 124.007959 340.003833 124.007959 340.003833 127.935137 336.529109 156.216474 315.064282 156.216474 315.064282L162.093116 313.495052C159.74811 316.297248 144.039395 329.859881 144.039395 329.859881L164.042579 315.456589 168.393554 312.318129C170.841479 311.775074 173.344051 311.511819 175.852368 311.533514L161.725826 323.639004 179.836053 311.897799 216 304.5zM220.909207 221.024485C222.596874 223.149215 219.896607 226.095507 219.896607 226.095507 223.609475 223.092556 226.59102 221.109474 226.59102 221.109474 226.98481 224.112426 231.203978 240.005405 234.185523 238.872215 237.167069 237.739026 245.436639 228.050258 245.436639 228.050258L245.070978 238.192302 249.205763 226.152166 251.681008 224.67902C251.681008 224.67902 256.350221 241.025275 259.697428 241.025275 263.044635 241.025275 271.933016 231.194858 271.933016 231.194858L272.664339 241.931826C273.395661 238.928875 277.389807 228.248566 277.389807 228.248566 278.149258 231.988091 287.459556 236.747486 287.459556 236.747486 287.459556 236.747486 288.894073 250.912351 289.991057 247.569443 290.834891 244.991437 295.757254 235.699286 295.757254 235.699286 306.530197 254.028621 287.009512 282.5 287.009512 282.5 274.68954 282.5 277.586702 258.646367 277.586702 258.646367 277.221041 260.516129 260.400623 272.641254 252.524842 273.717784 247.180562 274.454357 249.402657 251.478945 249.402657 251.478945 247.546223 255.615086 222.315597 264.425632 214.496071 263.660729 206.676546 262.895827 218.687112 243.263324 218.687112 243.263324 218.687112 243.263324 166.42568 255.728405 183.386737 237.597377 193.962785 225.953858 218.827751 218.38982 220.909207 221.024485zM111.563848 310.509779C112.34988 309.950197 92.6148579 333.592535 92.6148579 333.592535L115.71859 310.565737 117.880178 314.790581C119.645422 316.494049 121.723161 317.842933 124 318.763613 119.003081 325.05891 48.9619993 375.924912 48.9619993 375.924912 51.3200959 377.491741 57.3837727 381.017108 57.3837727 381.017108L55.7555632 382.5C50.7704294 381.912072 46.0273223 380.030797 42 377.044076 42 377.044076 73.3289969 337.033965 111.563848 310.509779zM198 283.986802C194.245936 288.557341 189.858236 292.542392 184.976096 295.815533 184.976096 295.815533 192.924303 282.105606 191.139442 283.616263 187.879053 284.646369 184.524384 285.333997 181.12749 285.668477 181.12749 285.668477 170.418327 297.297688 159.346614 299.634931 159.346614 299.634931 160.266932 298.893854 156 304.480436 156 304.480436 184.390438 305.307022 197.386454 296.214575 197.080012 292.128586 197.2862 288.019316 198 283.986802L198 283.986802z"/>
      <path fill="#C4C3C6" d="M256.834669 345.494623L262.917335 337.5C262.917335 337.5 257.205912 337.78966 253.350701 337.5 253.350701 337.5 245.811623 349.839526 253.350701 353.373381 253.350701 353.373381 263.774048 354.532022 269 349.839526 266.82672 346.848408 265.25479 343.452845 264.373747 339.846248 264.373747 339.846248 259.433367 345.436691 258.291082 346.884992L256.834669 345.494623zM197.142045 405.334218L203.073627 394.5C203.073627 394.5 195.994899 395.976127 191.322379 396.366048 191.322379 396.366048 184.439506 412.714854 194.372108 415.5 194.372108 415.5 210.488105 413.856764 216 407.144562 216 407.144562 206.403148 401.574271 205.31196 397.006631 205.31196 397.006631 200.33167 404.721485 199.184524 406.698939L197.142045 405.334218zM233.397379 401.764099C233.397379 401.764099 230.543246 414.88652 240.133131 417.5 240.133131 417.5 252.691314 416.922283 258 410.677442 255.046251 406.570751 252.59448 402.148974 250.693421 397.5L233.397379 401.764099z"/>
      <path fill="#FFF" d="M211.000326,277.248251 C211.000326,277.248251 210.803344,296.915562 220.089668,297.477485 C229.375992,298.039408 239,287.896695 239,287.896695 C237.021936,282.906216 235.477893,277.754962 234.384978,272.5 C234.384978,272.5 213.814364,277.248251 211.000326,277.248251 Z"/>
      <path fill="#C4C3C6" d="M404.552519 194.5C409.39848 204.514025 400.52361 214.5 400.52361 214.5 393.029276 213.041374 387 197.052595 387 197.052595L404.552519 194.5zM353.216902 189.5L356.91174 191.751716C357.263128 195.122994 356.560213 198.518627 354.89379 201.5 351.710546 200.676201 351 196.392449 351 196.392449L353.216902 189.5zM413 193.488201C413 193.488201 419.819635 206.631268 426.871428 207.5 426.871428 207.5 432.93655 194.665192 428.177316 188.5 423.345746 190.749383 418.249401 192.424355 413 193.488201z"/>
      <path fill="#FFF" d="M350.99851 559.074133C350.99851 560.489731 336.351782 558.189384 327.218461 561.816854 318.08514 565.444323 319.477415 553.441233 328.360126 553.500217 337.242838 553.5592 351.165583 553.175809 350.99851 559.074133zM245.998681 559.726792C246.165278 561.316422 230.505224 558.002449 222.036578 563.768223 213.567932 569.533997 214.151019 559.187935 222.897326 557.598305 231.643632 556.008676 245.30453 552.910246 245.998681 559.726792z"/>
      <path fill="#C4C3C6" d="M309.030156 277.396256C308.61197 277.396256 312.68232 265.901777 312.626562 264.061528 312.570803 262.221279 317.310252 265.363858 321.826668 266.89268 323.081228 267.317353 317.39389 278.698586 309.030156 277.396256zM288.71831 379.5L267 386.618644C267 386.618644 269.56338 401.805085 273.985915 407.5 273.985915 407.5 283.845071 407.304586 299 391.308574 299 391.308574 288.943662 382.291625 288.71831 379.5M236.512465 354.5L220 366.872973C220 366.872973 221.100831 370.533784 232.109141 366.872973 243.11745 363.212162 237.998586 361.197297 236.512465 354.5zM302.165 287.5L296 297.203124C296 297.203124 298.283333 298.610224 302.792916 295.297677 307.302499 291.98513 303.763333 290.871176 302.165 287.5z"/>
      <path fill="#FFF" d="M272.220491 480.01698C272.220491 480.01698 262.340188 484.607505 259.682329 465.48501 257.02447 446.362516 262.571307 440.138552 268.724829 431.35178 274.87835 422.565008 281.609668 423.607029 275.745044 434.928447 268.16135 448.818301 266.883355 465.167307 272.220491 480.01698zM196.672749 487.495975C196.672749 487.495975 187.254845 488.113495 189.28728 474.050883 191.319715 459.988271 194.010545 454.823559 201.167007 450.220229 208.323468 445.616899 209.754761 446.543179 205.947523 455.41301 201.054705 465.525996 197.919935 476.369681 196.672749 487.495975z"/>
      <path fill="#C4C3C6" d="M187 101.521015C183.612 101.00727 173 110.083437 173 110.083437 174.932 114.136317 183.416 121.5 183.416 121.5L187 101.521015zM318.915493 56.5C318.716146 50.8303203 317.384082 45.2607006 315 40.1285714 315 40.1285714 318.887324 29.2428571 323.647887 28.5 327.652617 33.8663609 330.807887 39.8332697 333 46.1857143 332.715915 48.9184734 332.621786 51.6681223 332.71831 54.4142857 328.019825 54.0036749 323.291938 54.718096 318.915493 56.5L318.915493 56.5z"/>
      <path fill="#FFF" d="M327.492027,197.5 C327.492027,197.5 334.763098,180.33355 339,171.778283 L327,154.5 L327.492027,197.5 Z"/>
      <path fill="#C4C3C6" d="M365.777722 328.442401C368.664248 327.223884 382 314.595617 382 314.595617 376.486735 316.063376 371.262122 309.5 371.262122 309.5 369.039497 311.992421 362.833465 329.633224 365.777722 328.442401zM339.655229 350.467235C344.322648 347.055658 348.778255 343.393873 353 339.5 349.255864 340.087518 345.434515 340.087518 341.690379 339.5 340.265774 340.870904 337.823594 351.152688 339.655229 350.467235zM312.147282 378.465338C314.27847 379.390195 326 361.5 326 361.5 320.523656 365.763219 314.47909 369.189668 308.053159 371.673423 307.670642 374.654224 309.384995 377.498239 312.147282 378.465338z"/>
      <path fill="#FFF" d="M328.722671 81.4387026C328.722671 81.4387026 328.529462 85.9279307 330.792765 86.4677745 333.056069 87.0076184 334.215322 80.6147304 333.96691 78.5405934 333.580493 75.6993098 331.206784 70.7270635 324.389273 73.1421546 317.571761 75.5572456 317.268147 76.693759 318.675812 78.597419 320.083476 80.501079 326.404165 73.5399343 328.722671 81.4387026zM163.754754 400.840153L184 391.5C184 391.5 33.4859017 501.5 12 501.5L163.754754 400.840153zM53.152001 458.487014C58.3800971 456.824464 63.2080238 454.093561 67.3313622 450.466499 71.3866595 447.394812 77.3419912 444.294684 79.8942762 439.80092 80.0579333 439.497212 80.029802 439.125655 79.8222969 438.850213 79.6147916 438.57477 79.2660917 438.446126 78.9300796 438.52105 74.0523794 439.772478 69.6284187 444.550658 65.6298389 447.565461 61.631259 450.580265 56.9237111 453.765718 52.4146742 456.695197 52.0399378 456.964391 51.899303 457.456899 52.075148 457.884227 52.2509928 458.311559 52.6970355 458.561238 53.152001 458.487014L53.152001 458.487014zM16.2146893 473.5C16.2146893 473.5 83.6440678 405.429825 90 403.324561 88.8490667 402.844688 87.758754 402.232317 86.7514124 401.5 86.7514124 401.5 49.3502825 432.124561 15 466.650877L16.2146893 473.5zM406.506556 98.5C406.506556 98.5 396.262916 98.9368312 397.042324 106.100863 397.183463 108.460057 398.327953 110.628844 400.161039 112.010772 401.994121 113.392701 404.322768 113.842245 406.506556 113.235773 406.506556 113.235773 411.155165 112.91543 411.906736 106.100863 412.201681 104.336557 411.790262 102.522989 410.768974 101.085506 409.747689 99.6480241 408.206383 98.7130967 406.506556 98.5zM270.864831 101.5C270.864831 101.5 261.321342 101.903897 262.038483 108.59704 262.176085 110.794774 263.244265 112.813599 264.951581 114.102701 266.658897 115.391802 268.827178 115.816651 270.864831 115.261333 270.864831 115.261333 275.195257 114.943986 275.912398 108.59704 276.188886 106.948867 275.804512 105.254329 274.849626 103.911728 273.89474 102.569128 272.453557 101.696877 270.864831 101.5zM392.071724 114.5C392.071724 114.5 386.638766 114.755538 387.019073 118.560209 387.101804 119.815207 387.714593 120.966626 388.691118 121.701954 389.667643 122.437283 390.906602 122.680239 392.071724 122.364881 392.071724 122.364881 394.54372 122.194523 394.951192 118.560209 395.106734 117.619343 394.886939 116.652939 394.34295 115.885885 393.798962 115.118832 392.978221 114.618023 392.071724 114.5L392.071724 114.5zM256.071724 115.5C256.071724 115.5 250.638766 115.755538 251.019073 119.560209 251.101805 120.815207 251.714593 121.966626 252.691118 122.701954 253.667644 123.437283 254.906603 123.680239 256.071724 123.364881 256.071724 123.364881 258.54372 123.194523 258.951192 119.560209 259.106735 118.619343 258.886938 117.652939 258.34295 116.885885 257.798961 116.118832 256.978223 115.618023 256.071724 115.5z"/>
      <path fill="#C4C3C6" d="M422.874212 55.5C419.094254 53.8041641 415.094141 52.6839411 411 52.1746507 411 52.1746507 417.222413 43.4840319 421.080853 41.5 421.080853 41.5 423.580687 52.50998 422.874212 55.5zM290 195.232194C290 195.232194 290.67291 206.115385 295.607586 211.5 295.607586 211.5 301.691816 203.209402 300.934792 199.220798L297.654354 191.5C297.654354 191.5 291.542086 194.605413 290 195.232194z"/>
      <path fill="#FFF" d="M139.086726 281.5C138.745454 288.043141 148.869844 296.179394 148.869844 296.179394 150.519323 303.263055 136.043721 309.038088 130.754011 307.132042 125.464302 305.225997 127.312856 291.912128 127.312856 291.912128L139.086726 281.5zM150 274.871918C150 274.871918 152.827381 283.299598 157.040179 283.496244 161.252976 283.69289 169 276.107978 169 274.871918 166.807716 270.753772 165.680638 266.158559 165.720238 261.5 165.720238 261.5 154.297619 267.258914 150 274.871918z"/>
      <path fill="#C4C3C6" d="M386 238.649612C386 238.649612 392.922807 235.200629 392.640244 230.5 392.640244 230.5 409.02893 242.265481 400.58028 247.188625 394.166087 251.138267 388.825636 245.547577 386 238.649612zM271 361.885857C271 361.885857 271.8 373.102541 274.257143 375.5 274.257143 375.5 295.8 369.506352 303 365.310799 303 365.310799 295.8 353.209339 296.342857 348.5 296.342857 348.471503 274.228571 362.313975 271 361.885857zM225.586341 368.37822C225.586341 368.37822 223.269493 383.638173 227.846679 388.5 227.846679 388.5 253.275492 384.593677 260 380.434426 257.188268 375.495117 255.275296 370.100861 254.349153 364.5 254.349153 364.5 233.299747 365.14637 225.586341 368.37822zM306 340.151146C308.04748 346.074771 310.471197 351.868882 313.257143 357.5 319.727126 354.534177 325.444206 350.214591 330 344.849794 330 344.849794 323.314286 330.531429 323.285714 326.5 323.285714 326.472242 309.171429 339.372672 306 340.151146zM209.916344 185.5C213.482956 188.241332 217.182437 190.787956 221 193.129693 221 193.129693 215.097953 201.832765 207.893576 202.5 207.838158 202.5 204.928698 192.549488 209.916344 185.5z"/>
      <path fill="#FFF" d="M180.002331 257.538405C180.002331 257.538405 179.748047 273.591581 184.551192 275.5 189.204482 275.129937 193.756374 273.952074 198 272.019941 198 272.019941 194.440022 263.319793 198 256.5 198 256.5 182.093112 259.390694 180.002331 257.538405zM252.072022 289.786653C257.495398 288.031571 262.792889 285.931439 267.929825 283.5 267.929825 283.5 273.024931 296.294861 275 297.901142 275 297.901142 254.963066 303.966239 244 302.166096 244 302.166096 251.871653 294.023912 252.072022 289.786653z"/>
      <path fill="#C4C3C6" d="M332 314.277999C332 314.277999 335.392246 329.932419 344.172178 330.486558 352.952109 331.040696 357 314.277999 357 314.277999 357 314.277999 346.281642 307.517506 345.854048 303.5 345.854048 303.5 336.304447 314.582775 332 314.277999M362.316113 275.5C362.316113 275.5 355.441574 283.584578 351 284.964871 351 284.964871 354.621156 299.049502 361.97663 301.331212 369.332103 303.612922 374 282.007099 374 282.007099 374 282.007099 365.569496 279.809897 362.316113 275.5zM344.929001 254.5C344.929001 254.5 350.658243 262.950666 356 264.211104 356 264.211104 348.416366 276.185268 341.109507 275.46911 341.109507 275.46911 333.055355 270.341418 333 262.234508 333.11071 262.234508 341.856799 258.281315 344.929001 254.5zM307.240522 303.5C307.240522 303.5 314.587738 312.961451 320 312.656243 320 312.656243 311.727372 322.617126 303.791257 321.396294 298.109313 319.694972 294.827758 313.828514 296.387956 308.16136 300.154052 306.970907 303.789813 305.409288 307.240522 303.5zM286.668495 319.5C286.668495 319.5 295.867741 330.413938 299 331.837495 299 331.837495 287.966548 344.621595 277.582123 342.193174 277.582123 342.193174 270.809672 330.525589 275.88901 321.593466 279.53676 321.206262 283.143527 320.505796 286.668495 319.5zM326.044477 279.503103C326.044477 279.336215 334.983445 285.956103 338 286.317693 338 286.317693 333.765752 303.757482 324.024215 301.254163 324.024215 301.254163 314.836175 299.752172 315.002224 285.956103 319.327234 285.1874 323.240321 282.900624 326.044477 279.503103L326.044477 279.503103zM386.468846 254.5C386.468846 254.5 394.906027 265.481775 403 264.914242 403 264.914242 397.565884 277.201344 387.898876 275.300107 387.898876 275.300107 376.973442 274.67582 375 265.652035 375.028601 265.652035 385.353422 257.905202 386.468846 254.5zM363.80226 230.5C363.80226 230.5 372.757062 240.10368 379 241.300661 379 241.300661 372.079096 258.19757 363.915254 256.360344 355.751412 254.523119 354 244.167846 354 244.167846 358.126681 240.273517 361.454571 235.63325 363.80226 230.5zM327.923423 237.5C327.923423 237.5 338.34009 240.638317 342 241.381602 342 241.381602 332.681306 253.769694 324.967342 252.393239 317.253378 251.016784 317 241.381602 317 241.381602 320.835985 240.688675 324.527458 239.376923 327.923423 237.5zM258.003519 200.267241C258.003519 200.267241 273.82584 198.964286 278 196.5 278 196.5 276.5052 215.052956 268.015861 219.5 261.639772 215.215459 257.86826 207.970742 258.003519 200.267241zM365.008297 192.5L379.515146 196.029412C379.515146 196.029412 382.273103 208.989412 374.633564 216.5 368.295753 210.224672 364.806436 201.52428 365.008297 192.5zM232 195.5C232 195.5 241.661667 200.570423 249 200.091549 248.384785 206.28321 245.097572 211.904838 239.99 215.5 235.710964 209.589072 232.966382 202.719028 232 195.5L232 195.5zM380 298.508913C380 298.508913 386.990528 303.385918 390.798376 303.5 390.798376 303.5 400.460081 291.52139 401 287.5 401 287.5 388.326116 290.35205 385.484438 288.127451 385.484438 288.127451 384.14885 296.113191 380 298.508913zM435 185.777477C439.501744 183.509306 443.719766 180.731383 447.56859 177.5 447.56859 177.5 455.126539 186.301718 452.411276 194.49642 445.497961 194.623586 438.97255 191.355895 435 185.777477L435 185.777477zM202 177.684818C202 177.684818 194.348066 169.268977 192.524862 164.5 189.243748 169.57497 187.338093 175.43867 187 181.5 187 181.5 198.574586 180.546205 202 177.684818z"/>
      <path fill="#010101" d="M138.202848,474.5 C138.202848,474.5 280.730733,337.092111 298,292.5 C298,292.5 150.75975,441.703403 86,468.560015 L138.202848,474.5 Z"/>
      <path fill="#C4C3C6" d="M253.080249 51.4590551C258.439243 51.6405019 263.769269 52.3238225 269 53.5 269 53.5 263.68394 39.0149606 258.055171 35.5 258.055171 35.5 252.255833 43.8905512 253.080249 51.4590551zM192.745342 87.5C192.745342 87.5 201.996894 71.5480769 207 69.5 207 69.5 191.68323 70.5096154 189 71.0288462 189 71.0288462 189.92236 86.2019231 192.745342 87.5zM220 62.5C220 62.5 223.625202 58.104878 237 54.0138211 237 54.0138211 227.387722 47.9878049 222.691438 45.5 221.114809 51.0363223 220.211066 56.7446605 220 62.5zM437 62.4273828C437 62.4273828 449.638889 70.5907716 451.444444 74.5 452.3201 68.2034195 452.839503 61.859277 453 55.5 447.183619 56.3615704 441.676256 58.7460471 437 62.4273828L437 62.4273828zM461.617664 157.5C461.617664 157.5 456.447066 168.234854 453 169.619085 453 169.619085 458.141873 179.421701 469.890622 173.715279 470.650516 167.174382 467.403874 160.810857 461.617664 157.5zM465 149.5C470.394244 149.230513 475.751347 148.44542 481 147.155172 481 147.155172 475.740103 135.989327 470.177281 132.5 468.944118 138.308922 467.211748 143.997294 465 149.5L465 149.5zM467 106.5C467 106.5 471.284345 117.802983 469.875399 124.5 469.875399 124.5 480.801917 120.261381 485 114.214286 484.942492 114.214286 476.230032 106.839089 467 106.5zM458 83.367706C460.831966 87.4903665 463.268088 91.8886171 465.27377 96.5 468.848606 92.3049189 472.100591 87.8274489 475 83.1085159 469.358784 82.2178613 463.613333 82.3054592 458 83.367706L458 83.367706zM347.829535 65.5C347.829535 65.5 359.231939 57.2014519 367 52.7849365 364.313258 45.5208263 359.647092 39.179834 353.544609 34.5 353.544609 34.5 344.222935 43.6987296 347.829535 65.5zM379 50.5C384.635664 50.0914999 390.291912 50.0914999 395.927577 50.5 396.422377 43.949066 394.366816 37.4656139 390.220723 32.5 384.859812 37.2270544 380.95749 43.4870589 379 50.5zM188 152.476067C188 152.476067 182.804754 138.71185 183.468591 134.5 178.931629 138.761298 174.761947 143.364257 171 148.264217 171 148.264217 180.870968 153.384506 188 152.365954M283.07761 57.1666667C290.4962 58.8788678 297.814636 60.9931492 305 63.5 305 63.5 298.840452 43.75 290.721049 35.5 290.721049 35.5 282.097682 47.3611111 283.07761 57.1666667z"/>
    </g>
  </g>
</svg>
