<svg xmlns="http://www.w3.org/2000/svg" width="1310" height="800" viewBox="0 0 1310 800">
  <g fill="none" fill-rule="evenodd">
    <rect width="1310" height="800" fill="#4038FF"/>
    <g transform="translate(810)">
      <path fill="#261EE4" d="M177.868875 233.145277L166.765367 233.145277 166.765367 244.268264 177.868875 244.268264 177.868875 255.418891 166.765367 255.418891 166.765367 266.569518 177.868875 266.569518 177.868875 277.692505 189 277.692505 189 288.843132 177.868875 288.843132 177.868875 277.720145 166.765367 277.720145 166.765367 288.843132 177.868875 288.843132 177.868875 300 166.737751 300 166.737751 288.849373 155.634243 288.849373 155.634243 277.726386 144.503118 277.726386 144.503118 288.849373 133.371993 288.849373 133.371993 277.726386 122.268485 277.726386 122.268485 288.849373 133.371993 288.849373 133.371993 300 122.239978 300 122.239978 288.849373 111.13736 288.849373 111.13736 300 100 300 100 288.849373 111.131125 288.849373 111.131125 277.726386 100 277.726386 100 266.574868 111.131125 266.574868 111.131125 255.424241 100 255.424241 100 244.273614 111.131125 244.273614 111.131125 233.150627 111.131125 233.122987 122.234633 233.122987 122.234633 222 133.365757 222 133.365757 233.122987 144.496882 233.122987 144.496882 222 155.628897 222 155.628897 233.122987 166.732406 233.122987 166.732406 222 177.86353 222 177.86353 233.122987 188.994655 233.122987 188.994655 244.273614 177.86353 244.273614 177.86353 233.145277 177.868875 233.145277zM111 233.972735L111 223 100 223 100 234 111 234 111 233.972735zM145 289L145 300 156 300 156 289 145 289zM178 266L178 255 189 255 189 266 178 266zM122 277L111 277 111 266 122 266 122 277zM122.263586 222L122.263586 211 133.367761 211 133.367761 222 144.499555 222 144.499555 211 155.632239 211 155.632239 222 166.764032 222 166.764032 211 177.868207 211 177.868207 222 189 222 189 211 177.868207 211 177.868207 200 166.736414 200 166.736414 211 155.632239 211 155.632239 200 144.499555 200 144.499555 211 133.367761 211 133.367761 200 122.235968 200 122.235968 211 111.131793 211 111.131793 200 100 200 100 211 111.131793 211 111.131793 222 122.263586 222zM166 244L166 255 155 255 155 244 166 244zM145 245L145 234 156 234 156 245 145 245zM134 244L145 244 145 255 134 255 134 244zM134 245L123 245 123 234 134 234 134 245zM134 266L123 266 123 255 134 255 134 266zM145 266L145 277 134 277 134 266 145 266zM156 266L145 266 145 255 156 255 156 266zM155 266L166 266 166 277 155 277 155 266zM122 255L122 244 111 244 111 255 122 255zM200 289L189 289 189 300 200 300 200 289zM189 266L200 266 200 277 189 277 189 266zM200 244L189 244 189 255 200 255 200 244zM189 223L200 223 200 234 189 234 189 223zM189 200L200 200 200 211 189 211 189 200zM477.868875 33.1452773L466.765367 33.1452773 466.765367 44.268264 477.868875 44.268264 477.868875 55.418891 466.765367 55.418891 466.765367 66.569518 477.868875 66.569518 477.868875 77.6925047 489 77.6925047 489 88.8431317 477.868875 88.8431317 477.868875 77.7201449 466.765367 77.7201449 466.765367 88.8431317 477.868875 88.8431317 477.868875 100 466.737751 100 466.737751 88.849373 455.634243 88.849373 455.634243 77.7263863 444.503118 77.7263863 444.503118 88.849373 433.371993 88.849373 433.371993 77.7263863 422.268485 77.7263863 422.268485 88.849373 433.371993 88.849373 433.371993 100 422.239978 100 422.239978 88.849373 411.13736 88.849373 411.13736 100 400 100 400 88.849373 411.131125 88.849373 411.131125 77.7263863 400 77.7263863 400 66.5748677 411.131125 66.5748677 411.131125 55.4242407 400 55.4242407 400 44.2736137 411.131125 44.2736137 411.131125 33.150627 411.131125 33.1229867 422.234633 33.1229867 422.234633 22 433.365757 22 433.365757 33.1229867 444.496882 33.1229867 444.496882 22 455.628897 22 455.628897 33.1229867 466.732406 33.1229867 466.732406 22 477.86353 22 477.86353 33.1229867 488.994655 33.1229867 488.994655 44.2736137 477.86353 44.2736137 477.86353 33.1452773 477.868875 33.1452773zM411 33.9727353L411 23 400 23 400 34 411 34 411 33.9727353zM445 89L445 100 456 100 456 89 445 89zM478 66L478 55 489 55 489 66 478 66zM422 77L411 77 411 66 422 66 422 77zM422.263586 22L422.263586 11 433.367761 11 433.367761 22 444.499555 22 444.499555 11 455.632239 11 455.632239 22 466.764032 22 466.764032 11 477.868207 11 477.868207 22 489 22 489 11 477.868207 11 477.868207 0 466.736414 0 466.736414 11 455.632239 11 455.632239 0 444.499555 0 444.499555 11 433.367761 11 433.367761 0 422.235968 0 422.235968 11 411.131793 11 411.131793 0 400 0 400 11 411.131793 11 411.131793 22 422.263586 22zM466 44L466 55 455 55 455 44 466 44zM445 45L445 34 456 34 456 45 445 45zM434 44L445 44 445 55 434 55 434 44zM434 45L423 45 423 34 434 34 434 45zM434 66L423 66 423 55 434 55 434 66zM445 66L445 77 434 77 434 66 445 66zM456 66L445 66 445 55 456 55 456 66zM455 66L466 66 466 77 455 77 455 66zM422 55L422 44 411 44 411 55 422 55zM500 89L489 89 489 100 500 100 500 89zM489 66L500 66 500 77 489 77 489 66zM500 44L489 44 489 55 500 55 500 44zM489 23L500 23 500 34 489 34 489 23zM489 0L500 0 500 11 489 11 489 0zM489 400L500 400 500 300 489 300 489 400zM477 400L466 400 466 300 477 300 477 400zM456 400L445 400 445 300 456 300 456 400zM423 400L434 400 434 300 423 300 423 400zM411 400L400 400 400 300 411 300 411 400zM389 300L400 300 400 200 389 200 389 300zM377 300L366 300 366 200 377 200 377 300zM356 300L345 300 345 200 356 200 356 300zM323 300L334 300 334 200 323 200 323 300zM311 300L300 300 300 200 311 200 311 300zM300 111L300 100 200 100 200 111 300 111zM300 123L300 134 200 134 200 123 300 123zM300 144L300 155 200 155 200 144 300 144zM300 177L300 166 200 166 200 177 300 177zM300 189L300 200 200 200 200 189 300 189zM400 389L400 400 300 400 300 389 400 389zM400 355L400 344 300 344 300 355 400 355zM400 323L400 334 300 334 300 323 400 323zM400 300L400 311 300 311 300 300 400 300zM400 377L400 366 300 366 300 377 400 377z"/>
      <path fill="#FFF" d="M488.88879,400 L500,400 C500,455.227556 455.227758,500 400,500 L400,488.888889 C449.094306,488.888889 488.88879,449.094222 488.88879,400 Z M466.857015,400 L478,400 C478,443.078286 443.078356,478 400,478 L400,466.857143 C436.92201,466.857143 466.857015,436.92208 466.857015,400 Z M455,400 L444,400 C444,424.29856 424.298823,444 400,444 L400,455 C430.376171,455 455,430.37672 455,400 Z M422.666667,400 L434,400 C434,418.77888 418.779086,434 400,434 L400,422.666667 C412.517575,422.666667 422.666667,412.51744 422.666667,400 Z M400,400 L411,400 C411,406.07728 406.077348,411 400,411 L400,400 Z"/>
      <path fill="#261EE4" d="M111.11121,500 L100,500 C100,444.772444 144.772242,400 200,400 L200,411.111111 C150.905694,411.111111 111.11121,450.905778 111.11121,500 Z M133.142985,500 L122,500 C122,456.921714 156.921644,422 200,422 L200,433.142857 C163.07799,433.142857 133.142985,463.07792 133.142985,500 Z M145,500 L156.000176,500 C156.000176,475.70056 175.700788,456 200,456 L200,445 C169.623343,445 145,469.62328 145,500 Z M177.332728,500 L166,500 C166,481.220213 181.220413,466 200,466 L200,477.333333 C187.48209,477.333333 177.332728,487.48256 177.332728,500 Z M200,500 L189,500 C189,493.92272 193.922652,489 200,489 L200,500 Z"/>
      <path fill="#FFF" d="M11.11121,100 L0,100 C0,44.7724444 44.772242,0 100,0 L100,11.1111111 C50.905694,11.1111111 11.11121,50.9057778 11.11121,100 Z M33.1429846,100 L22,100 C22,56.9217143 56.9216444,22 100,22 L100,33.1428571 C63.0779895,33.1428571 33.1429846,63.07792 33.1429846,100 Z M45,100 L56.0001762,100 C56.0001762,75.70056 75.7007879,56 100,56 L100,45 C69.6233425,45 45,69.62328 45,100 Z M77.3327283,100 L66,100 C66,81.2202133 81.2204132,66 100,66 L100,77.3333333 C87.4820904,77.3333333 77.3327283,87.48256 77.3327283,100 Z M100,100 L89,100 C89,93.92272 93.9226519,89 100,89 L100,100 Z"/>
      <path fill="#FFF" d="M311.11121,100 L300,100 C300,44.7724444 344.772242,0 400,0 L400,11.1111111 C350.905694,11.1111111 311.11121,50.9057778 311.11121,100 Z M333.142985,100 L322,100 C322,56.9217143 356.921644,22 400,22 L400,33.1428571 C363.07799,33.1428571 333.142985,63.07792 333.142985,100 Z M345,100 L356.000176,100 C356.000176,75.70056 375.700788,56 400,56 L400,45 C369.623343,45 345,69.62328 345,100 Z M377.332728,100 L366,100 C366,81.2202133 381.220413,66 400,66 L400,77.3333333 C387.48209,77.3333333 377.332728,87.48256 377.332728,100 Z M400,100 L389,100 C389,93.92272 393.922652,89 400,89 L400,100 Z" transform="rotate(-90 350 50)"/>
      <path fill="#261EE4" d="M111.11121,100 L100,100 C100,44.7724444 144.772242,0 200,0 L200,11.1111111 C150.905694,11.1111111 111.11121,50.9057778 111.11121,100 Z M133.142985,100 L122,100 C122,56.9217143 156.921644,22 200,22 L200,33.1428571 C163.07799,33.1428571 133.142985,63.07792 133.142985,100 Z M145,100 L156.000176,100 C156.000176,75.70056 175.700788,56 200,56 L200,45 C169.623343,45 145,69.62328 145,100 Z M177.332728,100 L166,100 C166,81.2202133 181.220413,66 200,66 L200,77.3333333 C187.48209,77.3333333 177.332728,87.48256 177.332728,100 Z M200,100 L189,100 C189,93.92272 193.922652,89 200,89 L200,100 Z" transform="rotate(-180 150 50)"/>
      <path fill="#FFF" d="M311.11121,700 L300,700 C300,644.772444 344.772242,600 400,600 L400,611.111111 C350.905694,611.111111 311.11121,650.905778 311.11121,700 Z M333.142985,700 L322,700 C322,656.921714 356.921644,622 400,622 L400,633.142857 C363.07799,633.142857 333.142985,663.07792 333.142985,700 Z M345,700 L356.000176,700 C356.000176,675.70056 375.700788,656 400,656 L400,645 C369.623343,645 345,669.62328 345,700 Z M377.332728,700 L366,700 C366,681.220213 381.220413,666 400,666 L400,677.333333 C387.48209,677.333333 377.332728,687.48256 377.332728,700 Z M400,700 L389,700 C389,693.92272 393.922652,689 400,689 L400,700 Z" transform="matrix(-1 0 0 1 700 0)"/>
      <path fill="#261EE4" fill-rule="nonzero" d="M200 600L300 600 300 500C244.772242 500 200 544.772444 200 600zM400 700L500 700 500 600C444.772242 600 400 644.772444 400 700z"/>
      <path fill="#261EE4" d="M500,792.167111 L500,800 L492.16637,800 L400,707.833778 L400,700 L407.83274,700 L500,792.167111 Z M400,724 L400,739.631256 L460.369773,800 L476,800 L400,724 Z M400,770.721778 L400,755 L445,800 L429.27758,800 L400,770.721778 Z M400,800 L414,800 L400,786 L400,800 Z M424,700 L439.63093,700 L500,760.368744 L500,776 L424,700 Z M470.72242,700 L455,700 L500,745 L500,729.278222 L470.72242,700 Z M500,714 L486,700 L500,700 L500,714 Z"/>
      <path fill="#261EE4" d="M500,192.167111 L500,200 L492.16637,200 L400,107.833778 L400,100 L407.83274,100 L500,192.167111 Z M400,124 L400,139.631256 L460.369773,200 L476,200 L400,124 Z M400,170.721778 L400,155 L445,200 L429.27758,200 L400,170.721778 Z M400,200 L414,200 L400,186 L400,200 Z M424,100 L439.63093,100 L500,160.368744 L500,176 L424,100 Z M470.72242,100 L455,100 L500,145 L500,129.278222 L470.72242,100 Z M500,114 L486,100 L500,100 L500,114 Z" transform="rotate(90 450 150)"/>
    </g>
    <g fill="#FFF" fill-rule="nonzero" transform="translate(180 200)">
      <path d="M41.36675 36.3L41.36675 33.1 46.4 33.1 46.4 12.7 49.93325 12.7 49.93325 33.36675C49.93325 34.96675 48.63325 36.3 47 36.3L41.36675 36.3zM54.53325 27.66675C52.83325 25.96675 51.96675 23.83325 51.96675 21.3 51.96675 18.76675 52.83325 16.63325 54.53325 14.93325 56.23325 13.23325 58.36675 12.36675 60.9 12.36675 63.43325 12.36675 65.53325 13.23325 67.26675 14.93325 68.96675 16.63325 69.83325 18.76675 69.83325 21.3 69.83325 23.83325 68.96675 25.96675 67.26675 27.66675 65.56675 29.36675 63.43325 30.23325 60.9 30.23325 58.33325 30.23325 56.23325 29.36675 54.53325 27.66675zM57.1 17.1C56.13325 18.13325 55.66675 19.53325 55.66675 21.26675 55.66675 23 56.13325 24.4 57.1 25.43325 58.06675 26.46675 59.33325 27 60.86675 27 62.4 27 63.66675 26.46675 64.63325 25.43325 65.6 24.4 66.06675 23 66.06675 21.26675 66.06675 19.53325 65.6 18.13325 64.63325 17.1 63.66675 16.06675 62.4 15.53325 60.86675 15.53325 59.33325 15.56675 58.06675 16.06675 57.1 17.1zM70.1 12.7L73.8 12.7 77.5 26.53325 79.33325 26.53325 83.36675 12.7 87.06675 12.7 80 36.3 76.3 36.3 78.3 29.9 77 29.9C75.7 29.9 74.53325 29.03325 74.2 27.76675L70.1 12.7zM86.73325 24.5L90.6 24.5C90.63325 24.56675 90.66675 24.66675 90.73325 24.76675 90.8 24.86675 90.93325 25.06675 91.13325 25.36675 91.33325 25.66675 91.6 25.93325 91.86675 26.13325 92.13325 26.36675 92.56675 26.56675 93.06675 26.73325 93.6 26.9 94.16675 27 94.8 27 96.03325 27 96.93325 26.8 97.5 26.43325 98.06675 26.06675 98.33325 25.56675 98.33325 25 98.33325 24.46675 97.96675 24.03325 97.23325 23.73325 96.5 23.43325 95.6 23.16675 94.53325 22.96675 93.46675 22.76675 92.43325 22.5 91.36675 22.16675 90.3 21.83325 89.43325 21.3 88.66675 20.5 87.93325 19.7 87.56675 18.7 87.56675 17.43325 87.56675 16.1 88.16675 14.9 89.4 13.9 90.63325 12.9 92.26675 12.4 94.26675 12.4 95.53325 12.4 96.63325 12.6 97.63325 12.96675 98.63325 13.33325 99.36675 13.8 99.86675 14.3 100.36675 14.83325 100.76675 15.36675 101.1 15.9 101.43325 16.43325 101.63325 16.86675 101.73325 17.26675L101.86675 17.8 98.16675 17.8C98.13325 17.73325 98.1 17.66675 98.06675 17.56675 98.03325 17.46675 97.9 17.3 97.7 17.03325 97.5 16.76675 97.3 16.56675 97.03325 16.36675 96.76675 16.16675 96.4 16 95.93325 15.83325 95.46675 15.66675 94.9 15.6 94.3 15.6 93.3 15.6 92.56675 15.76675 92.03325 16.13325 91.53325 16.5 91.26675 16.93325 91.26675 17.46675 91.26675 17.9 91.53325 18.3 92.06675 18.6 92.6 18.9 93.26675 19.13325 94.06675 19.26675 94.86675 19.4 95.73325 19.6 96.66675 19.86675 97.6 20.13325 98.43325 20.43325 99.26675 20.76675 100.06675 21.1 100.73325 21.63325 101.26675 22.36675 101.8 23.1 102.06675 24 102.06675 25.03325 102.06675 26.46675 101.43325 27.7 100.13325 28.73325 98.83325 29.76675 97.06675 30.26675 94.83325 30.26675 93.5 30.26675 92.33325 30.06675 91.3 29.66675 90.26675 29.26675 89.46675 28.8 88.93325 28.23325 88.4 27.66675 87.96675 27.1 87.6 26.53325 87.26675 25.96675 87.03325 25.5 86.93325 25.13325L86.73325 24.5zM102.7 15.9L102.7 12.7 104.7 12.7 104.7 9 108.23325 9 108.23325 12.7 113.46675 12.7 113.46675 15.9 108.26675 15.9 108.26675 26.7 113.63325 26.7 113.63325 29.9 107.63325 29.9C106.03325 29.9 104.7 28.6 104.7 26.96675L104.7 15.9 102.7 15.9zM119.16675 15.9L119.16675 29.9 115.63325 29.9 115.63325 15.26675C115.63325 13.86675 116.76675 12.7 118.2 12.7L119.16675 12.7 126.06675 12.7 126.06675 15.9 119.16675 15.9zM128.46675 27.66675C126.8 25.93325 125.93325 23.8 125.93325 21.3 125.93325 18.8 126.8 16.66675 128.46675 14.93325 130.16675 13.2 132.23325 12.36675 134.66675 12.36675 137.1 12.36675 139.16675 13.23325 140.86675 14.93325 142.56675 16.66675 143.4 18.76675 143.4 21.3L143.4 22.46675 129.46675 22.46675C129.7 23.86675 130.33325 24.96675 131.26675 25.8 132.23325 26.63325 133.36675 27.03325 134.66675 27.03325 135.73325 27.03325 136.63325 26.83325 137.46675 26.43325 138.26675 26.03325 138.83325 25.63325 139.1 25.23325L139.53325 24.66675 143.23325 24.66675C143.2 24.83325 143.1 25.03325 143 25.26675 142.9 25.5 142.6 25.96675 142.13325 26.6 141.66675 27.23325 141.16675 27.8 140.56675 28.3 140 28.76675 139.16675 29.23325 138.1 29.63325 137.03325 30.03325 135.9 30.23325 134.63325 30.23325 132.23325 30.23325 130.16675 29.36675 128.46675 27.66675zM130.1 19.6L140.16675 19.6C140 18.5 139.46675 17.53325 138.56675 16.76675 137.66675 15.96675 136.53325 15.56675 135.13325 15.56675 133.93325 15.56675 132.83325 15.93325 131.9 16.66675 130.96675 17.4 130.36675 18.36675 130.1 19.6zM146.7 27.76675C145.16675 26.1 144.4 23.93325 144.4 21.3 144.4 18.66675 145.16675 16.5 146.7 14.83325 148.23325 13.16675 150.16675 12.36675 152.46675 12.36675 153.53325 12.36675 154.5 12.56675 155.4 13 156.3 13.43325 156.93325 13.83325 157.3 14.23325L157.83325 14.86675 158 14.86675 158 12.66675 161.53325 12.66675 161.53325 29.86675 158 29.86675 158 27.5 157.83325 27.5C157.8 27.56675 157.7 27.66675 157.6 27.8 157.5 27.93325 157.26675 28.13325 156.93325 28.46675 156.6 28.76675 156.23325 29.06675 155.86675 29.3 155.5 29.53325 154.96675 29.73325 154.36675 29.93325 153.73325 30.13325 153.1 30.23325 152.46675 30.23325 150.2 30.23325 148.26675 29.4 146.7 27.76675zM164.6 29.9L164.6 12.7 168.13325 12.7 168.13325 15.06675 168.3 15.06675C168.33325 15 168.4 14.9 168.46675 14.76675 168.53325 14.63325 168.7 14.43325 169 14.1 169.3 13.8 169.6 13.5 169.96675 13.26675 170.3 13.03325 170.8 12.83325 171.4 12.63325 172 12.43325 172.66675 12.33325 173.33325 12.33325 174.13325 12.33325 174.9 12.43325 175.56675 12.66675 176.26675 12.9 176.8 13.16675 177.16675 13.46675 177.56675 13.76675 177.9 14.1 178.16675 14.4 178.43325 14.7 178.6 14.96675 178.7 15.2L178.86675 15.53325 179.03325 15.53325C179.06675 15.43325 179.13325 15.33325 179.23325 15.16675 179.3 15.03325 179.53325 14.76675 179.86675 14.4 180.2 14.03325 180.56675 13.73325 180.96675 13.43325 181.36675 13.16675 181.93325 12.9 182.63325 12.66675 183.36675 12.43325 184.1 12.3 184.93325 12.3 186.9 12.3 188.46675 12.93325 189.6 14.2 190.73325 15.46675 191.3 17.23325 191.3 19.56675L191.3 29.83325 187.76675 29.83325 187.76675 19.76675C187.76675 16.96675 186.53325 15.56675 184.06675 15.56675 182.86675 15.56675 181.83325 16.03325 180.96675 16.93325 180.1 17.86675 179.7 19.03325 179.7 20.43325L179.7 29.86675 176.16675 29.86675 176.16675 19.76675C176.16675 16.96675 174.93325 15.56675 172.46675 15.56675 171.26675 15.56675 170.23325 16.03325 169.36675 16.93325 168.5 17.86675 168.1 19.03325 168.1 20.43325L168.1 29.86675 164.6 29.86675 164.6 29.9zM46.43325 6.13325L46.43325 9.66675 49.96675 9.66675 49.96675 6.13325 46.43325 6.13325zM149.06675 17.1C148.1 18.13325 147.63325 19.53325 147.63325 21.26675 147.63325 23 148.1 24.4 149.06675 25.43325 150.03325 26.46675 151.3 27 152.83325 27 154.36675 27 155.63325 26.46675 156.6 25.43325 157.56675 24.4 158.03325 23 158.03325 21.26675 158.03325 19.53325 157.56675 18.13325 156.6 17.1 155.63325 16.06675 154.36675 15.53325 152.83325 15.53325 151.3 15.56675 150.03325 16.06675 149.06675 17.1zM28.06675 2.7000624e-13L31.7 2.7000624e-13 31.7 10.43325C31.7 14.6 30.13325 18.43325 27.56675 21.33325 27.9 19.93325 28.06675 18.5 28.06675 17L28.06675 2.7000624e-13zM9.8 29.7665C9.7 29.8665 9.63325 29.9665 9.53325 30.0665 9.5 30.1 9.46675 30.13325 9.43325 30.1665 9.33325 30.2665 9.26675 30.3665 9.16675 30.43325 9.13325 30.4665 9.06675 30.53325 9.03325 30.5665 8.93325 30.6665 8.83325 30.7665 8.7 30.8665 8.56675 31 8.43325 31.1 8.3 31.23325 8.16675 31.3665 8.03325 31.4665 7.86675 31.5665 7.73325 31.6665 7.6 31.7665 7.46675 31.8665 7.13325 32.0665 6.8 32.2665 6.46675 32.43325 6.4 32.4665 6.33325 32.5 6.23325 32.53325 6.13325 32.5665 6.06675 32.6 6 32.63325 5.9 32.6665 5.83325 32.7 5.73325 32.73325 5.56675 32.8 5.4 32.8665 5.2 32.93325 5.2 32.93325 5.2 32.93325 5.16675 32.93325 5 33 4.83325 33.03325 4.66675 33.0665L4.63325 33.0665C4.46675 33.1 4.3 33.1665 4.13325 33.2 3.93325 33.23325 3.7 33.3 3.5 33.3 3.43325 33.3 3.36675 33.33325 3.3 33.33325L3.26675 33.33325C3.06675 33.3665 2.9 33.3665 2.7 33.3665 2.6 33.3665 2.5 33.3665 2.4 33.3665 2.3 33.3665 2.2 33.3665 2.1 33.3665L1.96675 33.3665 3.06675 29.73325 9.8 29.73325 9.8 29.7665zM25.13325-7.10542736e-15L25.13325 17C25.13325 17.26675 25.13325 17.56675 25.1 17.83325 25.1 17.96675 25.1 18.1 25.06675 18.23325 25.06675 18.36675 25.03325 18.5 25.03325 18.63325 25.03325 18.76675 25 18.9 25 19.03325 25 19.13325 24.96675 19.26675 24.96675 19.36675L24.96675 19.4C24.96675 19.43325 24.96675 19.46675 24.96675 19.46675 24.93325 19.6 24.93325 19.73325 24.9 19.83325 24.86675 19.96675 24.86675 20.1 24.83325 20.2L24.83325 20.23325C24.8 20.33325 24.8 20.43325 24.76675 20.53325 24.76675 20.56675 24.76675 20.56675 24.76675 20.6 24.66675 21 24.56675 21.43325 24.43325 21.83325 24.4 21.93325 24.36675 22.06675 24.33325 22.16675 24.3 22.3 24.26675 22.4 24.2 22.53325 24.16675 22.66675 24.1 22.76675 24.06675 22.86675 24.03325 23 23.96675 23.1 23.93325 23.2 23.9 23.33325 23.83325 23.43325 23.8 23.53325 23.76675 23.63325 23.7 23.76675 23.63325 23.86675 23.6 23.96675 23.53325 24.1 23.46675 24.2 23.4 24.3 23.36675 24.43325 23.3 24.53325 23.26675 24.63325 23.2 24.7 23.16675 24.8 23.06675 25 22.96675 25.16675 22.83325 25.36675 22.73325 25.53325 22.63325 25.7 22.53325 25.83325 22.46675 25.96675 22.4 26.06675 22.3 26.16675 22.26675 26.23325 22.2 26.3 22.16675 26.33325 22.06675 26.46675 22 26.56675 21.9 26.66675 21.8 26.8 21.7 26.9 21.63325 27.03325 21.43325 27.26675 21.23325 27.5 21.03325 27.73325 21.06675 27.6 21.1 27.46675 21.13325 27.33325 21.16675 27.23325 21.16675 27.13325 21.2 27.03325 21.2 27.03325 21.2 27.03325 21.2 27 21.2 26.96675 21.2 26.96675 21.2 26.93325 21.23325 26.8 21.23325 26.66675 21.26675 26.53325 21.3 26.36675 21.33325 26.2 21.33325 26.06675 21.33325 25.96675 21.36675 25.86675 21.36675 25.8 21.36675 25.7 21.4 25.63325 21.4 25.53325 21.43325 25.36675 21.43325 25.2 21.46675 25 21.46675 24.96675 21.46675 24.96675 21.46675 24.93325 21.46675 24.9 21.46675 24.9 21.46675 24.86675 21.46675 24.73325 21.5 24.63325 21.5 24.5 21.5 24.4 21.5 24.3 21.5 24.2L21.5 24.33325C21.5 24.23325 21.5 24.13325 21.5 24.03325 21.5 23.86675 21.5 23.73325 21.5 23.56675L21.5-7.10542736e-15 25.13325-7.10542736e-15z"/>
      <path d="M18.56675,0 L18.56675,23.56675 C18.56675,24.13325 18.53325,24.66675 18.5,25.2 C18.46675,25.66675 18.4,26.1 18.3,26.56675 C18.1,27.63325 17.8,28.66675 17.4,29.63325 C17.16675,30.23325 16.86675,30.83325 16.56675,31.4 C15.63325,33.06675 14.43325,34.56675 13.03325,35.83325 C10.13325,38.43325 6.3,40 2.13325,40 L-9.23705556e-14,40 L1.1,36.36675 L2.16675,36.36675 C5.3,36.36675 8.16675,35.23325 10.36675,33.36675 C11.56675,32.36675 12.56675,31.16675 13.3,29.8 C13.5,29.46675 13.66675,29.1 13.83325,28.73325 C14.1,28.13325 14.3,27.53325 14.46675,26.9 C14.66675,26.2 14.8,25.46675 14.83325,24.73325 C14.86675,24.36675 14.86675,24 14.86675,23.63325 L14.86675,0 L18.56675,0 Z"/>
      <path d="M12,23.2 L12,23.56675 C12,23.86675 12,24.16675 11.96675,24.4335 C11.9,25 11.83325,25.56675 11.66675,26.1 C11.6,26.36675 11.53325,26.6335 11.43325,26.86675 L3.93325,26.86675 L5.03325,23.2335 L12,23.2335 L12,23.2 Z"/>
    </g>
    <path fill="#FFF" d="M365.083008,528.461914 C367.79461,528.461914 370.152985,528.929032 372.158203,529.863281 C374.163421,530.797531 375.826816,532.079256 377.148438,533.708496 C378.470059,535.337736 379.46126,537.308745 380.12207,539.621582 C380.782881,541.934419 381.113281,544.446601 381.113281,547.158203 C381.113281,549.915378 380.782881,552.433257 380.12207,554.711914 C379.46126,556.990571 378.470059,558.950187 377.148438,560.59082 C375.826816,562.231454 374.157725,563.518876 372.141113,564.453125 C370.124502,565.387374 367.771823,565.854492 365.083008,565.854492 C362.371406,565.854492 360.013031,565.387374 358.007812,564.453125 C356.002594,563.518876 354.333503,562.231454 353.000488,560.59082 C351.667474,558.950187 350.676273,556.990571 350.026855,554.711914 C349.377438,552.433257 349.052734,549.915378 349.052734,547.158203 C349.052734,544.446601 349.377438,541.934419 350.026855,539.621582 C350.676273,537.308745 351.667474,535.337736 353.000488,533.708496 C354.333503,532.079256 356.002594,530.797531 358.007812,529.863281 C360.013031,528.929032 362.371406,528.461914 365.083008,528.461914 Z M819.194336,517.387695 L819.194336,565 L812.871094,565 L812.871094,559.189453 C811.754552,561.331391 810.262054,562.977696 808.393555,564.128418 C806.525056,565.27914 804.269219,565.854492 801.625977,565.854492 C799.2106,565.854492 797.10857,565.364588 795.319824,564.384766 C793.531078,563.404943 792.044277,562.071949 790.859375,560.385742 C789.674473,558.699536 788.791507,556.72283 788.210449,554.455566 C787.629392,552.188302 787.338867,549.755872 787.338867,547.158203 C787.338867,544.58332 787.629392,542.15089 788.210449,539.86084 C788.791507,537.570789 789.66308,535.588387 790.825195,533.913574 C791.98731,532.238761 793.457022,530.911463 795.234375,529.931641 C797.011728,528.951818 799.085275,528.461914 801.455078,528.461914 C804.121107,528.461914 806.411123,529.03157 808.325195,530.170898 C810.239267,531.310227 811.754552,532.962229 812.871094,535.126953 L812.871094,517.387695 L819.194336,517.387695 Z M247.949219,528.461914 C250.524101,528.461914 252.768545,528.906246 254.682617,529.794922 C256.596689,530.683598 258.180332,531.896965 259.433594,533.435059 C260.686855,534.973152 261.632484,536.778961 262.270508,538.852539 C262.908532,540.926117 263.227539,543.159168 263.227539,545.551758 L263.227539,548.901367 L239.199219,548.901367 L239.199219,552.695312 C239.199219,553.994147 239.444171,555.144852 239.934082,556.147461 C240.423993,557.15007 241.090491,557.998857 241.933594,558.693848 C242.776697,559.388838 243.722325,559.912921 244.770508,560.266113 C245.81869,560.619305 246.901036,560.795898 248.017578,560.795898 C250.250662,560.795898 252.187492,560.226243 253.828125,559.086914 C255.468758,557.947585 256.402994,556.13608 256.630859,553.652344 L262.954102,553.652344 C262.817382,555.566416 262.316085,557.269687 261.450195,558.762207 C260.584306,560.254728 259.462084,561.52506 258.083496,562.573242 C256.704908,563.621425 255.149748,564.430336 253.417969,565 C251.686189,565.569664 249.863291,565.854492 247.949219,565.854492 C245.374336,565.854492 243.124196,565.387374 241.19873,564.453125 C239.273265,563.518876 237.666836,562.231454 236.379395,560.59082 C235.091953,558.950187 234.134932,556.990571 233.508301,554.711914 C232.88167,552.433257 232.568359,549.915378 232.568359,547.158203 C232.568359,544.446601 232.904456,541.934419 233.57666,539.621582 C234.248864,537.308745 235.251458,535.337736 236.584473,533.708496 C237.917487,532.079256 239.529613,530.797531 241.420898,529.863281 C243.312184,528.929032 245.488269,528.461914 247.949219,528.461914 Z M608.203125,528.461914 C610.914727,528.461914 613.273102,528.929032 615.27832,529.863281 C617.283539,530.797531 618.946933,532.079256 620.268555,533.708496 C621.590176,535.337736 622.581377,537.308745 623.242188,539.621582 C623.902998,541.934419 624.233398,544.446601 624.233398,547.158203 C624.233398,549.915378 623.902998,552.433257 623.242188,554.711914 C622.581377,556.990571 621.590176,558.950187 620.268555,560.59082 C618.946933,562.231454 617.277842,563.518876 615.26123,564.453125 C613.244619,565.387374 610.891941,565.854492 608.203125,565.854492 C605.491523,565.854492 603.133148,565.387374 601.12793,564.453125 C599.122711,563.518876 597.45362,562.231454 596.120605,560.59082 C594.787591,558.950187 593.79639,556.990571 593.146973,554.711914 C592.497555,552.433257 592.172852,549.915378 592.172852,547.158203 C592.172852,544.446601 592.497555,541.934419 593.146973,539.621582 C593.79639,537.308745 594.787591,535.337736 596.120605,533.708496 C597.45362,532.079256 599.122711,530.797531 601.12793,529.863281 C603.133148,528.929032 605.491523,528.461914 608.203125,528.461914 Z M764.301758,528.461914 C766.87664,528.461914 769.121084,528.906246 771.035156,529.794922 C772.949228,530.683598 774.532871,531.896965 775.786133,533.435059 C777.039394,534.973152 777.985023,536.778961 778.623047,538.852539 C779.261071,540.926117 779.580078,543.159168 779.580078,545.551758 L779.580078,548.901367 L755.551758,548.901367 L755.551758,552.695312 C755.551758,553.994147 755.79671,555.144852 756.286621,556.147461 C756.776532,557.15007 757.44303,557.998857 758.286133,558.693848 C759.129236,559.388838 760.074865,559.912921 761.123047,560.266113 C762.171229,560.619305 763.253575,560.795898 764.370117,560.795898 C766.603201,560.795898 768.540031,560.226243 770.180664,559.086914 C771.821297,557.947585 772.755533,556.13608 772.983398,553.652344 L779.306641,553.652344 C779.169921,555.566416 778.668624,557.269687 777.802734,558.762207 C776.936845,560.254728 775.814623,561.52506 774.436035,562.573242 C773.057448,563.621425 771.502287,564.430336 769.770508,565 C768.038728,565.569664 766.21583,565.854492 764.301758,565.854492 C761.726875,565.854492 759.476735,565.387374 757.55127,564.453125 C755.625804,563.518876 754.019375,562.231454 752.731934,560.59082 C751.444492,558.950187 750.487471,556.990571 749.86084,554.711914 C749.234209,552.433257 748.920898,549.915378 748.920898,547.158203 C748.920898,544.446601 749.256995,541.934419 749.929199,539.621582 C750.601403,537.308745 751.603997,535.337736 752.937012,533.708496 C754.270026,532.079256 755.882152,530.797531 757.773438,529.863281 C759.664723,528.929032 761.840808,528.461914 764.301758,528.461914 Z M639.956055,529.316406 L639.956055,552.387695 C639.956055,554.962578 640.457352,557.007642 641.459961,558.522949 C642.46257,560.038256 644.296862,560.795898 646.962891,560.795898 C649.62892,560.795898 651.742342,559.804697 653.303223,557.822266 C654.864103,555.839834 655.644531,553.287776 655.644531,550.166016 L655.644531,529.316406 L661.933594,529.316406 L661.933594,565 L655.644531,565 L655.644531,559.121094 C654.664709,561.217458 653.3545,562.863764 651.713867,564.060059 C650.073234,565.256354 647.908542,565.854492 645.219727,565.854492 C643.579093,565.854492 642.046719,565.620933 640.622559,565.153809 C639.198398,564.686684 637.973638,563.940435 636.948242,562.915039 C635.922846,561.889643 635.119632,560.568042 634.538574,558.950195 C633.957517,557.332349 633.666992,555.384126 633.666992,553.105469 L633.666992,529.316406 L639.956055,529.316406 Z M726.943359,528.461914 C728.811858,528.461914 730.577791,528.706866 732.241211,529.196777 C733.904631,529.686689 735.362949,530.444331 736.616211,531.469727 C737.869472,532.495122 738.894853,533.799634 739.692383,535.383301 C740.489913,536.966968 740.979817,538.841135 741.162109,541.005859 L734.873047,541.005859 C734.736327,539.570305 734.43441,538.368332 733.967285,537.399902 C733.50016,536.431473 732.890629,535.656741 732.138672,535.075684 C731.386715,534.494626 730.532231,534.084474 729.575195,533.845215 C728.618159,533.605956 727.626958,533.486328 726.601562,533.486328 C725.530594,533.486328 724.505213,533.662921 723.525391,534.016113 C722.545568,534.369305 721.656905,534.899085 720.859375,535.605469 C720.061845,536.311852 719.429527,537.189122 718.962402,538.237305 C718.495278,539.285487 718.261719,540.50455 718.261719,541.894531 L718.261719,552.387695 C718.261719,553.640957 718.483884,554.797358 718.928223,555.856934 C719.372561,556.916509 719.982092,557.805172 720.756836,558.522949 C721.531579,559.240726 722.420242,559.798989 723.422852,560.197754 C724.425461,560.596519 725.507807,560.795898 726.669922,560.795898 C728.994152,560.795898 730.930982,560.169277 732.480469,558.916016 C734.029956,557.662754 734.918619,555.703138 735.146484,553.037109 L741.435547,553.037109 C741.207681,555.22462 740.649419,557.121574 739.760742,558.728027 C738.872066,560.334481 737.77263,561.667475 736.462402,562.727051 C735.152174,563.786626 733.671069,564.572751 732.019043,565.085449 C730.367016,565.598147 728.629566,565.854492 726.806641,565.854492 C724.186185,565.854492 721.936045,565.398768 720.056152,564.487305 C718.17626,563.575842 716.60401,562.28842 715.339355,560.625 C714.074701,558.96158 713.140465,557.013358 712.536621,554.780273 C711.932777,552.547189 711.630859,550.09767 711.630859,547.431641 C711.630859,544.583319 711.966956,541.979992 712.63916,539.621582 C713.311364,537.263172 714.302565,535.269377 715.612793,533.640137 C716.923021,532.010897 718.535147,530.740564 720.449219,529.829102 C722.363291,528.917639 724.527983,528.461914 726.943359,528.461914 Z M195.825195,517.387695 L215.478516,556.933594 L215.786133,556.933594 L215.786133,517.387695 L222.211914,517.387695 L222.211914,565 L212.84668,565 L193.15918,525.249023 L192.885742,525.249023 L192.885742,565 L186.425781,565 L186.425781,517.387695 L195.825195,517.387695 Z M407.978516,529.316406 L407.978516,534.750977 L397.109375,534.750977 L397.109375,565 L390.820312,565 L390.820312,529.316406 L407.978516,529.316406 Z M301.40625,529.316406 L308.481445,557.241211 L308.754883,557.241211 L315.043945,529.316406 L322.700195,529.316406 L329.262695,557.241211 L329.536133,557.241211 L336.679688,529.316406 L342.832031,529.316406 L332.407227,565 L325.776367,565 L319.042969,536.083984 L318.769531,536.083984 L311.967773,565 L305.473633,565 L295.048828,529.316406 L301.40625,529.316406 Z M422.094727,517.387695 L422.094727,565 L415.805664,565 L415.805664,517.387695 L422.094727,517.387695 Z M281.616211,517.387695 L281.616211,529.316406 L289.819336,529.316406 L289.819336,534.682617 L281.616211,534.682617 L281.616211,559.599609 L289.819336,559.599609 L289.819336,565 L275.395508,565 L275.395508,534.682617 L269.379883,534.682617 L269.379883,529.316406 L275.395508,529.316406 L275.395508,517.387695 L281.616211,517.387695 Z M443.798828,529.316406 L429.443359,545.039062 L444.790039,565 L437.578125,565 L422.163086,545.039062 L436.176758,529.316406 L443.798828,529.316406 Z M690.507812,528.461914 C692.239592,528.461914 693.811842,528.695473 695.224609,529.162598 C696.637377,529.629722 697.85644,530.375971 698.881836,531.401367 C699.907232,532.426763 700.70475,533.742668 701.274414,535.349121 C701.844078,536.955574 702.128906,538.909494 702.128906,541.210938 L702.128906,565 L695.805664,565 L695.805664,541.894531 C695.805664,539.274075 695.304367,537.217618 694.301758,535.725098 C693.299149,534.232577 691.442071,533.486328 688.730469,533.486328 C687.431634,533.486328 686.24675,533.742673 685.175781,534.255371 C684.104812,534.768069 683.170577,535.502925 682.373047,536.459961 C681.575517,537.416997 680.954592,538.550612 680.510254,539.86084 C680.065916,541.171068 679.84375,542.600904 679.84375,544.150391 L679.84375,565 L673.554688,565 L673.554688,529.316406 L679.84375,529.316406 L679.84375,535.195312 C680.823573,533.098948 682.16796,531.452643 683.876953,530.256348 C685.585946,529.060053 687.79621,528.461914 690.507812,528.461914 Z M490.078125,517.387695 L506.586914,565 L499.580078,565 L495.683594,553.242188 L476.987305,553.242188 L473.056641,565 L466.186523,565 L482.661133,517.387695 L490.078125,517.387695 Z M571.118164,528.461914 C572.849944,528.461914 574.422193,528.695473 575.834961,529.162598 C577.247728,529.629722 578.466792,530.375971 579.492188,531.401367 C580.517583,532.426763 581.315101,533.742668 581.884766,535.349121 C582.45443,536.955574 582.739258,538.909494 582.739258,541.210938 L582.739258,565 L576.416016,565 L576.416016,541.894531 C576.416016,539.274075 575.914719,537.217618 574.912109,535.725098 C573.9095,534.232577 572.052422,533.486328 569.34082,533.486328 C568.041986,533.486328 566.857102,533.742673 565.786133,534.255371 C564.715164,534.768069 563.780928,535.502925 562.983398,536.459961 C562.185868,537.416997 561.564944,538.550612 561.120605,539.86084 C560.676267,541.171068 560.454102,542.600904 560.454102,544.150391 L560.454102,565 L554.165039,565 L554.165039,529.316406 L560.454102,529.316406 L560.454102,535.195312 C561.433924,533.098948 562.778312,531.452643 564.487305,530.256348 C566.196298,529.060053 568.406562,528.461914 571.118164,528.461914 Z M531.230469,528.461914 C532.962248,528.461914 534.534498,528.695473 535.947266,529.162598 C537.360033,529.629722 538.579096,530.375971 539.604492,531.401367 C540.629888,532.426763 541.427406,533.742668 541.99707,535.349121 C542.566735,536.955574 542.851562,538.909494 542.851562,541.210938 L542.851562,565 L536.52832,565 L536.52832,541.894531 C536.52832,539.274075 536.027023,537.217618 535.024414,535.725098 C534.021805,534.232577 532.164727,533.486328 529.453125,533.486328 C528.15429,533.486328 526.969406,533.742673 525.898438,534.255371 C524.827469,534.768069 523.893233,535.502925 523.095703,536.459961 C522.298173,537.416997 521.677248,538.550612 521.23291,539.86084 C520.788572,541.171068 520.566406,542.600904 520.566406,544.150391 L520.566406,565 L514.277344,565 L514.277344,529.316406 L520.566406,529.316406 L520.566406,535.195312 C521.546229,533.098948 522.890616,531.452643 524.599609,530.256348 C526.308602,529.060053 528.518867,528.461914 531.230469,528.461914 Z M365.083008,533.486328 C363.829746,533.486328 362.627773,533.685708 361.477051,534.084473 C360.326329,534.483238 359.329431,535.035804 358.486328,535.742188 C357.643225,536.448571 356.965335,537.303055 356.452637,538.305664 C355.939939,539.308273 355.683594,540.413405 355.683594,541.621094 L355.683594,552.695312 C355.683594,553.903001 355.939939,555.008133 356.452637,556.010742 C356.965335,557.013351 357.643225,557.862138 358.486328,558.557129 C359.329431,559.252119 360.320632,559.798989 361.459961,560.197754 C362.59929,560.596519 363.80696,560.795898 365.083008,560.795898 C366.336269,560.795898 367.532546,560.596519 368.671875,560.197754 C369.811204,559.798989 370.802405,559.252119 371.645508,558.557129 C372.488611,557.862138 373.166501,557.013351 373.679199,556.010742 C374.191897,555.008133 374.448242,553.903001 374.448242,552.695312 L374.448242,541.621094 C374.448242,540.413405 374.191897,539.308273 373.679199,538.305664 C373.166501,537.303055 372.488611,536.448571 371.645508,535.742188 C370.802405,535.035804 369.811204,534.483238 368.671875,534.084473 C367.532546,533.685708 366.336269,533.486328 365.083008,533.486328 Z M803.095703,533.486328 C801.796869,533.486328 800.594895,533.685708 799.489746,534.084473 C798.384597,534.483238 797.421879,535.035804 796.601562,535.742188 C795.781246,536.448571 795.137535,537.303055 794.67041,538.305664 C794.203285,539.308273 793.969727,540.413405 793.969727,541.621094 L793.969727,552.695312 C793.969727,553.903001 794.203285,555.008133 794.67041,556.010742 C795.137535,557.013351 795.781246,557.862138 796.601562,558.557129 C797.421879,559.252119 798.378901,559.798989 799.472656,560.197754 C800.566412,560.596519 801.774082,560.795898 803.095703,560.795898 C806.263037,560.795898 808.684074,559.793304 810.358887,557.788086 C812.0337,555.782868 812.871094,553.242203 812.871094,550.166016 L812.871094,544.150391 C812.871094,541.074203 812.0337,538.527842 810.358887,536.51123 C808.684074,534.494619 806.263037,533.486328 803.095703,533.486328 Z M608.203125,533.486328 C606.949864,533.486328 605.74789,533.685708 604.597168,534.084473 C603.446446,534.483238 602.449548,535.035804 601.606445,535.742188 C600.763342,536.448571 600.085452,537.303055 599.572754,538.305664 C599.060056,539.308273 598.803711,540.413405 598.803711,541.621094 L598.803711,552.695312 C598.803711,553.903001 599.060056,555.008133 599.572754,556.010742 C600.085452,557.013351 600.763342,557.862138 601.606445,558.557129 C602.449548,559.252119 603.44075,559.798989 604.580078,560.197754 C605.719407,560.596519 606.927077,560.795898 608.203125,560.795898 C609.456386,560.795898 610.652664,560.596519 611.791992,560.197754 C612.931321,559.798989 613.922522,559.252119 614.765625,558.557129 C615.608728,557.862138 616.286619,557.013351 616.799316,556.010742 C617.312014,555.008133 617.568359,553.903001 617.568359,552.695312 L617.568359,541.621094 C617.568359,540.413405 617.312014,539.308273 616.799316,538.305664 C616.286619,537.303055 615.608728,536.448571 614.765625,535.742188 C613.922522,535.035804 612.931321,534.483238 611.791992,534.084473 C610.652664,533.685708 609.456386,533.486328 608.203125,533.486328 Z M486.489258,524.804688 L486.21582,524.804688 L478.730469,547.773438 L493.90625,547.773438 L486.489258,524.804688 Z M247.949219,533.486328 C246.787104,533.486328 245.681971,533.674315 244.633789,534.050293 C243.585607,534.426271 242.651371,534.978838 241.831055,535.708008 C241.010738,536.437178 240.367027,537.325841 239.899902,538.374023 C239.432778,539.422206 239.199219,540.595697 239.199219,541.894531 L239.199219,543.876953 L256.699219,543.876953 L256.699219,541.894531 C256.699219,540.595697 256.46566,539.422206 255.998535,538.374023 C255.53141,537.325841 254.893396,536.437178 254.084473,535.708008 C253.275549,534.978838 252.341314,534.426271 251.281738,534.050293 C250.222163,533.674315 249.111334,533.486328 247.949219,533.486328 Z M764.301758,533.486328 C763.139643,533.486328 762.03451,533.674315 760.986328,534.050293 C759.938146,534.426271 759.00391,534.978838 758.183594,535.708008 C757.363277,536.437178 756.719566,537.325841 756.252441,538.374023 C755.785317,539.422206 755.551758,540.595697 755.551758,541.894531 L755.551758,543.876953 L773.051758,543.876953 L773.051758,541.894531 C773.051758,540.595697 772.818199,539.422206 772.351074,538.374023 C771.883949,537.325841 771.245935,536.437178 770.437012,535.708008 C769.628088,534.978838 768.693853,534.426271 767.634277,534.050293 C766.574702,533.674315 765.463873,533.486328 764.301758,533.486328 Z M416.474609,422.802734 C419.925147,422.802734 423.058254,423.421218 425.874023,424.658203 C428.689793,425.895188 431.098623,427.596018 433.100586,429.760742 C435.102549,431.925467 436.632482,434.505193 437.69043,437.5 C438.748378,440.494807 439.277344,443.733707 439.277344,447.216797 L439.277344,453.515625 L406.513672,453.515625 L406.513672,456.884766 C406.513672,459.944677 407.514638,462.312817 409.516602,463.989258 C411.518565,465.665698 413.886705,466.503906 416.621094,466.503906 C419.355482,466.503906 421.585278,465.787768 423.310547,464.355469 C425.035816,462.92317 426.061196,460.904961 426.386719,458.300781 L438.886719,458.300781 C438.072913,463.964872 435.688496,468.367497 431.733398,471.508789 C427.778301,474.650081 422.692088,476.220703 416.474609,476.220703 C412.86131,476.220703 409.630548,475.569668 406.782227,474.267578 C403.933905,472.965488 401.525075,471.14259 399.555664,468.798828 C397.586253,466.455066 396.080734,463.639339 395.039062,460.351562 C393.997391,457.063786 393.476562,453.417989 393.476562,449.414062 C393.476562,445.410136 394.029942,441.772477 395.136719,438.500977 C396.243495,435.229476 397.797842,432.430025 399.799805,430.102539 C401.801768,427.775053 404.218736,425.976569 407.050781,424.707031 C409.882827,423.437494 413.024071,422.802734 416.474609,422.802734 Z M272.382812,422.802734 C276.191425,422.802734 279.576808,423.437494 282.539062,424.707031 C285.501317,425.976569 287.999664,427.791329 290.03418,430.151367 C292.068695,432.511405 293.614904,435.327132 294.672852,438.598633 C295.7308,441.870134 296.259766,445.507792 296.259766,449.511719 C296.259766,453.515645 295.7308,457.145166 294.672852,460.400391 C293.614904,463.655615 292.068695,466.471342 290.03418,468.847656 C287.999664,471.22397 285.501317,473.046869 282.539062,474.316406 C279.576808,475.585944 276.191425,476.220703 272.382812,476.220703 C268.5742,476.220703 265.188817,475.585944 262.226562,474.316406 C259.264308,473.046869 256.765961,471.22397 254.731445,468.847656 C252.69693,466.471342 251.142583,463.655615 250.068359,460.400391 C248.994135,457.145166 248.457031,453.515645 248.457031,449.511719 C248.457031,445.507792 248.994135,441.870134 250.068359,438.598633 C251.142583,435.327132 252.69693,432.511405 254.731445,430.151367 C256.765961,427.791329 259.264308,425.976569 262.226562,424.707031 C265.188817,423.437494 268.5742,422.802734 272.382812,422.802734 Z M365.449219,422.802734 C370.657578,422.802734 374.571927,424.471012 377.192383,427.807617 C379.812839,431.144222 381.123047,435.742158 381.123047,441.601562 L381.123047,475 L368.623047,475 L368.623047,442.480469 C368.623047,436.165333 366.230493,433.007812 361.445312,433.007812 L361.347656,433.007812 L361.347656,433.007812 C358.35285,433.007812 355.935882,434.155262 354.09668,436.450195 C352.257478,438.745129 351.337891,441.764304 351.337891,445.507812 L351.337891,475 L338.837891,475 L338.837891,442.480469 C338.837891,436.165333 336.429061,433.007812 331.611328,433.007812 L331.513672,433.007812 L331.513672,433.007812 C328.518865,433.007812 326.110035,434.155262 324.287109,436.450195 C322.464184,438.745129 321.552734,441.764304 321.552734,445.507812 L321.552734,475 L309.052734,475 L309.052734,424.023438 L321.552734,424.023438 L321.552734,431.396484 C323.017585,428.662096 324.881174,426.546231 327.143555,425.048828 C329.405936,423.551425 332.229801,422.802734 335.615234,422.802734 C339.293638,422.802734 342.312814,423.624666 344.672852,425.268555 C347.032889,426.912443 348.782546,429.264308 349.921875,432.324219 C353.242204,425.976531 358.417934,422.802734 365.449219,422.802734 Z M216.083984,406.982422 C223.343135,406.982422 228.714175,408.699527 232.197266,412.133789 C235.680356,415.568051 237.421875,420.849574 237.421875,427.978516 C237.421875,433.382188 236.136081,437.71971 233.564453,440.991211 C230.992826,444.262712 227.412132,446.533197 222.822266,447.802734 L238.398438,475 L223.994141,475 L209.6875,448.876953 L201.386719,448.876953 L201.386719,475 L188.398438,475 L188.398438,406.982422 L216.083984,406.982422 Z M272.382812,432.519531 C269.257797,432.519531 266.661794,433.349601 264.594727,435.009766 C262.527659,436.66993 261.494141,439.029933 261.494141,442.089844 L261.494141,456.884766 C261.494141,459.944677 262.527659,462.312817 264.594727,463.989258 C266.661794,465.665698 269.257797,466.503906 272.382812,466.503906 C275.507828,466.503906 278.103831,465.690112 280.170898,464.0625 C282.237966,462.434888 283.271484,460.042333 283.271484,456.884766 L283.271484,442.089844 C283.271484,438.964828 282.237966,436.58855 280.170898,434.960938 C278.103831,433.333325 275.507828,432.519531 272.382812,432.519531 Z M416.474609,432.519531 C413.610012,432.519531 411.233733,433.398429 409.345703,435.15625 C407.457673,436.914071 406.513672,439.192694 406.513672,441.992188 L406.513672,443.798828 L426.484375,443.798828 L426.484375,441.992188 C426.484375,439.192694 425.540374,436.914071 423.652344,435.15625 C421.764313,433.398429 419.371759,432.519531 416.474609,432.519531 Z M217.792969,418.017578 L201.386719,418.017578 L201.386719,438.183594 L217.792969,438.183594 C221.862,438.183594 223.896484,435.921247 223.896484,431.396484 L223.896484,424.414062 C223.896484,422.135405 223.448898,420.499679 222.553711,419.506836 C221.658524,418.513992 220.071626,418.017578 217.792969,418.017578 Z"/>
  </g>
</svg>
