<svg xmlns="http://www.w3.org/2000/svg" width="1310" height="801" viewBox="0 0 1310 801">
  <g fill="none" fill-rule="evenodd" transform="translate(0 1)">
    <rect width="1310" height="800" fill="#4038FF"/>
    <g transform="translate(990)">
      <path fill="#261EE4" d="M142.213523 346.680178L133.342349 346.680178 133.342349 355.551289 142.213523 355.551289 142.213523 364.444444 133.342349 364.444444 133.342349 373.3376 142.213523 373.3376 142.213523 382.208711 151.106762 382.208711 151.106762 391.101867 142.213523 391.101867 142.213523 382.230756 133.342349 382.230756 133.342349 391.101867 142.213523 391.101867 142.213523 400 133.320285 400 133.320285 391.106844 124.44911 391.106844 124.44911 382.235733 115.555872 382.235733 115.555872 391.106844 106.662633 391.106844 106.662633 382.235733 97.7914591 382.235733 97.7914591 391.106844 106.662633 391.106844 106.662633 400 97.7686833 400 97.7686833 391.106844 88.8982206 391.106844 88.8982206 400 80 400 80 391.106844 88.8932384 391.106844 88.8932384 382.235733 80 382.235733 80 373.341867 88.8932384 373.341867 88.8932384 364.448711 80 364.448711 80 355.555556 88.8932384 355.555556 88.8932384 346.684444 88.8932384 346.6624 97.7644128 346.6624 97.7644128 337.791289 106.657651 337.791289 106.657651 346.6624 115.55089 346.6624 115.55089 337.791289 124.44484 337.791289 124.44484 346.6624 133.316014 346.6624 133.316014 337.791289 142.209253 337.791289 142.209253 346.6624 151.102491 346.6624 151.102491 355.555556 142.209253 355.555556 142.209253 346.680178 142.213523 346.680178zM88.8932384 346.658133L88.8932384 337.786311 80 337.786311 80 346.680178 88.8932384 346.680178 88.8932384 346.658133zM115.55089 391.106844L115.55089 400 124.44484 400 124.44484 391.106844 115.55089 391.106844zM142.213523 373.341867L142.213523 364.448711 151.106762 364.448711 151.106762 373.341867 142.213523 373.341867zM97.7644128 382.213689L88.8932384 382.213689 88.8932384 373.341867 97.7644128 373.341867 97.7644128 382.213689zM97.7864769 337.786311L97.7864769 328.893156 106.657651 328.893156 106.657651 337.786311 115.55089 337.786311 115.55089 328.893156 124.44484 328.893156 124.44484 337.786311 133.338078 337.786311 133.338078 328.893156 142.209253 328.893156 142.209253 337.786311 151.102491 337.786311 151.102491 328.893156 142.209253 328.893156 142.209253 320 133.316014 320 133.316014 328.893156 124.44484 328.893156 124.44484 320 115.55089 320 115.55089 328.893156 106.657651 328.893156 106.657651 320 97.7644128 320 97.7644128 328.893156 88.8932384 328.893156 88.8932384 320 80 320 80 328.893156 88.8932384 328.893156 88.8932384 337.786311 97.7864769 337.786311zM133.316014 355.551289L133.316014 364.444444 124.44484 364.444444 124.44484 355.551289 133.316014 355.551289zM115.55089 355.551289L115.55089 346.680178 124.44484 346.680178 124.44484 355.551289 115.55089 355.551289zM106.657651 355.551289L115.55089 355.551289 115.55089 364.444444 106.657651 364.444444 106.657651 355.551289zM106.657651 355.551289L97.7864769 355.551289 97.7864769 346.680178 106.657651 346.680178 106.657651 355.551289zM106.657651 373.341867L97.7864769 373.341867 97.7864769 364.448711 106.657651 364.448711 106.657651 373.341867zM115.55089 373.341867L115.55089 382.213689 106.657651 382.213689 106.657651 373.341867 115.55089 373.341867zM124.44911 373.341867L115.555872 373.341867 115.555872 364.448711 124.44911 364.448711 124.44911 373.341867zM124.44911 373.341867L133.320285 373.341867 133.320285 382.213689 124.44911 382.213689 124.44911 373.341867zM97.7644128 364.448711L97.7644128 355.555556 88.8932384 355.555556 88.8932384 364.448711 97.7644128 364.448711zM160 391.106844L151.106762 391.106844 151.106762 400 160 400 160 391.106844zM151.106762 373.341867L160 373.341867 160 382.235733 151.106762 382.235733 151.106762 373.341867zM160 355.551289L151.106762 355.551289 151.106762 364.444444 160 364.444444 160 355.551289zM151.106762 337.786311L160 337.786311 160 346.680178 151.106762 346.680178 151.106762 337.786311zM151.106762 320L160 320 160 328.893156 151.106762 328.893156 151.106762 320zM311.106762 80L320 80 320 0 311.106762 0 311.106762 80zM302.222064 80L293.333096 80 293.333096 0 302.222064 0 302.222064 80zM284.44484 80L275.555872 80 275.555872 0 284.44484 0 284.44484 80zM257.777936 80L266.666904 80 266.666904 0 257.777936 0 257.777936 80zM248.888968 80L240 80 240 0 248.888968 0 248.888968 80zM240 248.893156L240 240 160 240 160 248.893156 240 248.893156zM240 257.777778L240 266.666667 160 266.666667 160 257.777778 240 257.777778zM240 275.555556L240 284.444444 160 284.444444 160 275.555556 240 275.555556zM240 302.222222L240 293.333333 160 293.333333 160 302.222222 240 302.222222zM240 311.111111L240 320 160 320 160 311.111111 240 311.111111zM320 471.106702L320 480 240 480 240 471.106702 320 471.106702zM320 444.435556L320 435.542258 240 435.542258 240 444.435556 320 444.435556zM320 417.76448L320 426.657778 240 426.657778 240 417.76448 320 417.76448zM320 400L320 408.893369 240 408.893369 240 400 320 400zM320 462.213333L320 453.319964 240 453.319964 240 462.213333 320 462.213333zM88.888968 560L80 560C80 515.817956 115.817794 480 160 480L160 488.888889C120.724555 488.888889 88.888968 520.724622 88.888968 560zM106.666904 560L97.7779359 560C97.7779359 525.635556 125.635587 497.777778 160 497.777778L160 506.666667C130.546619 506.666667 106.666904 530.546489 106.666904 560zM115.555872 560L124.44484 560C124.44484 540.364089 140.364413 524.444444 160 524.444444L160 515.555556C135.453381 515.555556 115.555872 535.453156 115.555872 560zM142.222064 560L133.333808 560C133.333808 545.270756 145.271174 533.333333 160 533.333333L160 542.222222C150.182206 542.222222 142.222064 550.1824 142.222064 560zM160 560L151.111032 560C151.111032 555.089067 155.088968 551.111111 160 551.111111L160 560z"/>
      <path fill="#FFF" d="M8.88896797,240 L0,240 C0,195.817956 35.8177936,160 80,160 L80,168.888889 C40.7245552,168.888889 8.88896797,200.724622 8.88896797,240 Z M26.6669039,240 L17.7779359,240 C17.7779359,205.635556 45.6355872,177.777778 80,177.777778 L80,186.666667 C50.5466192,186.666667 26.6669039,210.546489 26.6669039,240 Z M35.5558719,240 L44.4448399,240 C44.4448399,220.364089 60.3644128,204.444444 80,204.444444 L80,195.555556 C55.4533808,195.555556 35.5558719,215.453156 35.5558719,240 Z M62.2220641,240 L53.3338078,240 C53.3338078,225.270756 65.2711744,213.333333 80,213.333333 L80,222.222222 C70.1822064,222.222222 62.2220641,230.1824 62.2220641,240 Z M80,240 L71.111032,240 C71.111032,235.089067 75.088968,231.111111 80,231.111111 L80,240 Z"/>
      <path fill="#FFF" d="M248.888968,240 L240,240 C240,195.817956 275.817794,160 320,160 L320,168.888889 C280.724555,168.888889 248.888968,200.724622 248.888968,240 Z M266.666904,240 L257.777936,240 C257.777936,205.635556 285.635587,177.777778 320,177.777778 L320,186.666667 C290.546619,186.666667 266.666904,210.546489 266.666904,240 Z M275.555872,240 L284.44484,240 C284.44484,220.364089 300.364413,204.444444 320,204.444444 L320,195.555556 C295.453381,195.555556 275.555872,215.453156 275.555872,240 Z M302.222064,240 L293.333808,240 C293.333808,225.270756 305.271174,213.333333 320,213.333333 L320,222.222222 C310.182206,222.222222 302.222064,230.1824 302.222064,240 Z M320,240 L311.111032,240 C311.111032,235.089067 315.088968,231.111111 320,231.111111 L320,240 Z" transform="rotate(-90 280 200)"/>
      <path fill="#261EE4" d="M88.888968,160 L80,160 C80,115.817956 115.817794,80 160,80 L160,88.8888889 C120.724555,88.8888889 88.888968,120.724622 88.888968,160 Z M106.666904,160 L97.7779359,160 C97.7779359,125.635556 125.635587,97.7777778 160,97.7777778 L160,106.666667 C130.546619,106.666667 106.666904,130.546489 106.666904,160 Z M115.555872,160 L124.44484,160 C124.44484,140.364089 140.364413,124.444444 160,124.444444 L160,115.555556 C135.453381,115.555556 115.555872,135.453156 115.555872,160 Z M142.222064,160 L133.333808,160 C133.333808,145.270756 145.271174,133.333333 160,133.333333 L160,142.222222 C150.182206,142.222222 142.222064,150.1824 142.222064,160 Z M160,160 L151.111032,160 C151.111032,155.089067 155.088968,151.111111 160,151.111111 L160,160 Z" transform="rotate(-180 120 120)"/>
      <path fill="#FFF" d="M248.888968,720 L240,720 C240,675.817956 275.817794,640 320,640 L320,648.888889 C280.724555,648.888889 248.888968,680.724622 248.888968,720 Z M266.666904,720 L257.777936,720 C257.777936,685.635556 285.635587,657.777778 320,657.777778 L320,666.666667 C290.546619,666.666667 266.666904,690.546489 266.666904,720 Z M275.555872,720 L284.44484,720 C284.44484,700.364089 300.364413,684.444444 320,684.444444 L320,675.555556 C295.453381,675.555556 275.555872,695.453156 275.555872,720 Z M302.222064,720 L293.333808,720 C293.333808,705.270756 305.271174,693.333333 320,693.333333 L320,702.222222 C310.182206,702.222222 302.222064,710.1824 302.222064,720 Z M320,720 L311.111032,720 C311.111032,715.089067 315.088968,711.111111 320,711.111111 L320,720 Z" transform="matrix(-1 0 0 1 560 0)"/>
      <path fill="#261EE4" fill-rule="nonzero" d="M160,640 L240,640 L240,560 C195.817794,560 160,595.817956 160,640 Z"/>
    </g>
    <g transform="translate(-320)">
      <path fill="#261EE4" d="M382.213523 106.680178L373.342349 106.680178 373.342349 115.551289 382.213523 115.551289 382.213523 124.444444 373.342349 124.444444 373.342349 133.3376 382.213523 133.3376 382.213523 142.208711 391.106762 142.208711 391.106762 151.101867 382.213523 151.101867 382.213523 142.230756 373.342349 142.230756 373.342349 151.101867 382.213523 151.101867 382.213523 160 373.320285 160 373.320285 151.106844 364.44911 151.106844 364.44911 142.235733 355.555872 142.235733 355.555872 151.106844 346.662633 151.106844 346.662633 142.235733 337.791459 142.235733 337.791459 151.106844 346.662633 151.106844 346.662633 160 337.768683 160 337.768683 151.106844 328.898221 151.106844 328.898221 160 320 160 320 151.106844 328.893238 151.106844 328.893238 142.235733 320 142.235733 320 133.341867 328.893238 133.341867 328.893238 124.448711 320 124.448711 320 115.555556 328.893238 115.555556 328.893238 106.684444 328.893238 106.6624 337.764413 106.6624 337.764413 97.7912889 346.657651 97.7912889 346.657651 106.6624 355.55089 106.6624 355.55089 97.7912889 364.44484 97.7912889 364.44484 106.6624 373.316014 106.6624 373.316014 97.7912889 382.209253 97.7912889 382.209253 106.6624 391.102491 106.6624 391.102491 115.555556 382.209253 115.555556 382.209253 106.680178 382.213523 106.680178zM328.893238 106.658133L328.893238 97.7863111 320 97.7863111 320 106.680178 328.893238 106.680178 328.893238 106.658133zM355.55089 151.106844L355.55089 160 364.44484 160 364.44484 151.106844 355.55089 151.106844zM382.213523 133.341867L382.213523 124.448711 391.106762 124.448711 391.106762 133.341867 382.213523 133.341867zM337.764413 142.213689L328.893238 142.213689 328.893238 133.341867 337.764413 133.341867 337.764413 142.213689zM337.786477 97.7863111L337.786477 88.8931556 346.657651 88.8931556 346.657651 97.7863111 355.55089 97.7863111 355.55089 88.8931556 364.44484 88.8931556 364.44484 97.7863111 373.338078 97.7863111 373.338078 88.8931556 382.209253 88.8931556 382.209253 97.7863111 391.102491 97.7863111 391.102491 88.8931556 382.209253 88.8931556 382.209253 80 373.316014 80 373.316014 88.8931556 364.44484 88.8931556 364.44484 80 355.55089 80 355.55089 88.8931556 346.657651 88.8931556 346.657651 80 337.764413 80 337.764413 88.8931556 328.893238 88.8931556 328.893238 80 320 80 320 88.8931556 328.893238 88.8931556 328.893238 97.7863111 337.786477 97.7863111zM373.316014 115.551289L373.316014 124.444444 364.44484 124.444444 364.44484 115.551289 373.316014 115.551289zM355.55089 115.551289L355.55089 106.680178 364.44484 106.680178 364.44484 115.551289 355.55089 115.551289zM346.657651 115.551289L355.55089 115.551289 355.55089 124.444444 346.657651 124.444444 346.657651 115.551289zM346.657651 115.551289L337.786477 115.551289 337.786477 106.680178 346.657651 106.680178 346.657651 115.551289zM346.657651 133.341867L337.786477 133.341867 337.786477 124.448711 346.657651 124.448711 346.657651 133.341867zM355.55089 133.341867L355.55089 142.213689 346.657651 142.213689 346.657651 133.341867 355.55089 133.341867zM364.44911 133.341867L355.555872 133.341867 355.555872 124.448711 364.44911 124.448711 364.44911 133.341867zM364.44911 133.341867L373.320285 133.341867 373.320285 142.213689 364.44911 142.213689 364.44911 133.341867zM337.764413 124.448711L337.764413 115.555556 328.893238 115.555556 328.893238 124.448711 337.764413 124.448711zM400 151.106844L391.106762 151.106844 391.106762 160 400 160 400 151.106844zM391.106762 133.341867L400 133.341867 400 142.235733 391.106762 142.235733 391.106762 133.341867zM400 115.551289L391.106762 115.551289 391.106762 124.444444 400 124.444444 400 115.551289zM391.106762 97.7863111L400 97.7863111 400 106.680178 391.106762 106.680178 391.106762 97.7863111zM391.106762 80L400 80 400 88.8931556 391.106762 88.8931556 391.106762 80zM391.106762 480L400 480 400 400 391.106762 400 391.106762 480zM382.222064 480L373.333096 480 373.333096 400 382.222064 400 382.222064 480zM364.44484 480L355.555872 480 355.555872 400 364.44484 400 364.44484 480zM337.777936 480L346.666904 480 346.666904 400 337.777936 400 337.777936 480zM328.888968 480L320 480 320 400 328.888968 400 328.888968 480z"/>
      <path fill="#FFF" d="M391.111032,480 L400,480 C400,524.182044 364.182206,560 320,560 L320,551.111111 C359.275445,551.111111 391.111032,519.275378 391.111032,480 Z M373.333096,480 L382.222064,480 C382.222064,514.364444 354.364413,542.222222 320,542.222222 L320,533.333333 C349.453381,533.333333 373.333096,509.453511 373.333096,480 Z M364.44484,480 L355.555872,480 C355.555872,499.6352 339.635587,515.555556 320,515.555556 L320,524.444444 C344.546619,524.444444 364.44484,504.546844 364.44484,480 Z M337.777936,480 L346.666904,480 C346.666904,494.728533 334.728826,506.666667 320,506.666667 L320,497.777778 C329.817794,497.777778 337.777936,489.8176 337.777936,480 Z M320,480 L328.888968,480 C328.888968,484.910933 324.911032,488.888889 320,488.888889 L320,480 Z"/>
      <path fill="#261EE4" fill-rule="nonzero" d="M320,720 L400,720 L400,640 C355.817794,640 320,675.817956 320,720 Z"/>
      <path fill="#261EE4" d="M400,793.733689 L400,800 L393.733096,800 L320,726.267022 L320,720 L326.266192,720 L400,793.733689 Z M320,738.844444 L320,751.422578 L368.577936,800 L381.15516,800 L320,738.844444 Z M320,776.577422 L320,764 L356,800 L343.422064,800 L320,776.577422 Z M320,800 L330.844128,800 L320,789.155556 L320,800 Z M338.844128,720 L351.422064,720 L400,768.577422 L400,781.155556 L338.844128,720 Z M376.577936,720 L364,720 L400,756 L400,743.422578 L376.577936,720 Z M400,730.844444 L389.15516,720 L400,720 L400,730.844444 Z"/>
      <path fill="#261EE4" d="M400,313.733689 L400,320 L393.733096,320 L320,246.267022 L320,240 L326.266192,240 L400,313.733689 Z M320,258.844444 L320,271.422578 L368.577936,320 L381.15516,320 L320,258.844444 Z M320,296.577422 L320,284 L356,320 L343.422064,320 L320,296.577422 Z M320,320 L330.844128,320 L320,309.155556 L320,320 Z M338.844128,240 L351.422064,240 L400,288.577422 L400,301.155556 L338.844128,240 Z M376.577936,240 L364,240 L400,276 L400,263.422578 L376.577936,240 Z M400,250.844444 L389.15516,240 L400,240 L400,250.844444 Z" transform="rotate(90 360 280)"/>
    </g>
    <path fill="#FFF" d="M974.892578,438.681641 C977.177746,438.681641 979.140617,439.169917 980.78125,440.146484 C982.421883,441.123052 983.720698,442.539053 984.677734,444.394531 L984.677734,439.414062 L990.097656,439.414062 L990.097656,469.414062 C990.097656,471.542979 989.716801,473.374016 988.955078,474.907227 C988.193356,476.440437 987.192389,477.714839 985.952148,478.730469 C984.711908,479.746099 983.300789,480.493162 981.71875,480.97168 C980.136711,481.450198 978.525399,481.689453 976.884766,481.689453 C975.283195,481.689453 973.75489,481.533205 972.299805,481.220703 C970.844719,480.908202 969.526373,480.380863 968.344727,479.638672 C967.16308,478.896481 966.181645,477.915045 965.400391,476.694336 C964.619137,475.473627 964.111329,473.945322 963.876953,472.109375 L969.267578,472.109375 C969.462892,473.867196 970.209954,475.185542 971.508789,476.064453 C972.807624,476.943364 974.521474,477.382812 976.650391,477.382812 C977.685552,477.382812 978.691401,477.231447 979.667969,476.928711 C980.644536,476.625975 981.503903,476.147464 982.246094,475.493164 C982.988285,474.838864 983.579099,473.989263 984.018555,472.944336 C984.45801,471.899409 984.677734,470.634773 984.677734,469.150391 L984.677734,465.019531 C983.720698,466.855478 982.441414,468.266597 980.839844,469.25293 C979.238273,470.239263 977.304699,470.732422 975.039062,470.732422 C972.96874,470.732422 971.167,470.312504 969.633789,469.472656 C968.100578,468.632808 966.826177,467.490242 965.810547,466.044922 C964.794917,464.599602 964.038088,462.905283 963.540039,460.961914 C963.04199,459.018545 962.792969,456.933605 962.792969,454.707031 C962.792969,452.499989 963.04199,450.415049 963.540039,448.452148 C964.038088,446.489248 964.785151,444.790046 965.78125,443.354492 C966.777349,441.918938 968.037102,440.781254 969.560547,439.941406 C971.083992,439.101558 972.861318,438.681641 974.892578,438.681641 Z M516.953125,439.414062 L524.921875,463.349609 L525.185547,463.349609 L533.388672,439.414062 L538.984375,439.414062 L523.984375,480.195312 L513.525391,480.195312 L513.525391,475.566406 L520.556641,475.566406 L522.490234,470 L511.123047,439.414062 L516.953125,439.414062 Z M492.255859,438.681641 C494.58009,438.681641 496.601554,439.082027 498.320312,439.882812 C500.039071,440.683598 501.464838,441.78222 502.597656,443.178711 C503.730474,444.575202 504.580075,446.264639 505.146484,448.24707 C505.712893,450.229502 505.996094,452.382801 505.996094,454.707031 C505.996094,457.070324 505.712893,459.228506 505.146484,461.181641 C504.580075,463.134775 503.730474,464.814446 502.597656,466.220703 C501.464838,467.62696 500.034188,468.730465 498.305664,469.53125 C496.57714,470.332035 494.560558,470.732422 492.255859,470.732422 C489.931629,470.732422 487.910165,470.332035 486.191406,469.53125 C484.472648,468.730465 483.041998,467.62696 481.899414,466.220703 C480.75683,464.814446 479.907229,463.134775 479.350586,461.181641 C478.793943,459.228506 478.515625,457.070324 478.515625,454.707031 C478.515625,452.382801 478.793943,450.229502 479.350586,448.24707 C479.907229,446.264639 480.75683,444.575202 481.899414,443.178711 C483.041998,441.78222 484.472648,440.683598 486.191406,439.882812 C487.910165,439.082027 489.931629,438.681641 492.255859,438.681641 Z M555.595703,438.681641 C557.041023,438.681641 558.452142,438.872068 559.829102,439.25293 C561.206062,439.633791 562.436518,440.224605 563.520508,441.025391 C564.604498,441.826176 565.47363,442.846673 566.12793,444.086914 C566.78223,445.327155 567.128906,446.806632 567.167969,448.525391 L561.777344,448.525391 C561.699218,446.49413 561.069342,445.063481 559.887695,444.233398 C558.706049,443.403316 557.29493,442.988281 555.654297,442.988281 C553.974601,442.988281 552.553717,443.388668 551.391602,444.189453 C550.229486,444.990238 549.648438,446.03515 549.648438,447.324219 C549.648438,448.515631 549.990231,449.443356 550.673828,450.107422 C551.357425,450.771488 552.46093,451.259764 553.984375,451.572266 L559.140625,452.65625 C562.187515,453.300784 564.448235,454.340813 565.922852,455.776367 C567.397468,457.211921 568.134766,459.169909 568.134766,461.650391 C568.134766,462.93946 567.846683,464.135737 567.270508,465.239258 C566.694333,466.342779 565.864263,467.290035 564.780273,468.081055 C563.696284,468.872074 562.412117,469.511716 560.927734,470 C559.443352,470.488284 557.802743,470.732422 556.005859,470.732422 C554.287101,470.732422 552.680672,470.512698 551.186523,470.073242 C549.692375,469.633787 548.383795,468.979497 547.260742,468.110352 C546.13769,467.241207 545.253909,466.157233 544.609375,464.858398 C543.964841,463.559564 543.623047,462.05079 543.583984,460.332031 L549.003906,460.332031 C549.082032,462.363291 549.809563,463.881831 551.186523,464.887695 C552.563483,465.89356 554.189444,466.396484 556.064453,466.396484 C557.861337,466.396484 559.423821,465.996098 560.751953,465.195312 C562.080085,464.394527 562.744141,463.232429 562.744141,461.708984 C562.744141,460.478509 562.343754,459.492191 561.542969,458.75 C560.742183,458.007809 559.316417,457.441408 557.265625,457.050781 L552.226562,456.025391 C549.707019,455.498044 547.768561,454.526374 546.411133,453.110352 C545.053704,451.694329 544.375,449.785168 544.375,447.382812 C544.375,446.1914 544.643552,445.063482 545.180664,443.999023 C545.717776,442.934565 546.489253,442.011723 547.495117,441.230469 C548.500982,440.449215 549.68261,439.829104 551.040039,439.370117 C552.397468,438.911131 553.916007,438.681641 555.595703,438.681641 Z M631.152344,438.681641 C633.359386,438.681641 635.283195,439.062496 636.923828,439.824219 C638.564461,440.585941 639.92187,441.62597 640.996094,442.944336 C642.070318,444.262702 642.880857,445.810538 643.427734,447.587891 C643.974612,449.365243 644.248047,451.279287 644.248047,453.330078 L644.248047,456.201172 L623.652344,456.201172 L623.652344,459.453125 C623.652344,460.566412 623.862303,461.55273 624.282227,462.412109 C624.702151,463.271489 625.273434,463.99902 625.996094,464.594727 C626.718754,465.190433 627.529292,465.639647 628.427734,465.942383 C629.326176,466.245119 630.253901,466.396484 631.210938,466.396484 C633.12501,466.396484 634.785149,465.908208 636.191406,464.931641 C637.597663,463.955073 638.398437,462.402354 638.59375,460.273438 L644.013672,460.273438 C643.896484,461.914071 643.466801,463.374017 642.724609,464.65332 C641.982418,465.932624 641.020514,467.02148 639.838867,467.919922 C638.657221,468.818364 637.324226,469.511716 635.839844,470 C634.355461,470.488284 632.792977,470.732422 631.152344,470.732422 C628.945301,470.732422 627.01661,470.332035 625.366211,469.53125 C623.715812,468.730465 622.338873,467.62696 621.235352,466.220703 C620.13183,464.814446 619.311526,463.134775 618.774414,461.181641 C618.237302,459.228506 617.96875,457.070324 617.96875,454.707031 C617.96875,452.382801 618.256833,450.229502 618.833008,448.24707 C619.409183,446.264639 620.268549,444.575202 621.411133,443.178711 C622.553717,441.78222 623.935539,440.683598 625.556641,439.882812 C627.177742,439.082027 629.042958,438.681641 631.152344,438.681641 Z M373.193359,438.681641 C375.400402,438.681641 377.324211,439.062496 378.964844,439.824219 C380.605477,440.585941 381.962885,441.62597 383.037109,442.944336 C384.111333,444.262702 384.921872,445.810538 385.46875,447.587891 C386.015628,449.365243 386.289062,451.279287 386.289062,453.330078 L386.289062,456.201172 L365.693359,456.201172 L365.693359,459.453125 C365.693359,460.566412 365.903318,461.55273 366.323242,462.412109 C366.743166,463.271489 367.31445,463.99902 368.037109,464.594727 C368.759769,465.190433 369.570308,465.639647 370.46875,465.942383 C371.367192,466.245119 372.294917,466.396484 373.251953,466.396484 C375.166025,466.396484 376.826165,465.908208 378.232422,464.931641 C379.638679,463.955073 380.439452,462.402354 380.634766,460.273438 L386.054688,460.273438 C385.937499,461.914071 385.507816,463.374017 384.765625,464.65332 C384.023434,465.932624 383.061529,467.02148 381.879883,467.919922 C380.698236,468.818364 379.365242,469.511716 377.880859,470 C376.396477,470.488284 374.833993,470.732422 373.193359,470.732422 C370.986317,470.732422 369.057625,470.332035 367.407227,469.53125 C365.756828,468.730465 364.379888,467.62696 363.276367,466.220703 C362.172846,464.814446 361.352542,463.134775 360.81543,461.181641 C360.278318,459.228506 360.009766,457.070324 360.009766,454.707031 C360.009766,452.382801 360.297849,450.229502 360.874023,448.24707 C361.450198,446.264639 362.309565,444.575202 363.452148,443.178711 C364.594732,441.78222 365.976554,440.683598 367.597656,439.882812 C369.218758,439.082027 371.083974,438.681641 373.193359,438.681641 Z M663.320312,438.681641 C664.960946,438.681641 666.489251,438.891599 667.905273,439.311523 C669.321296,439.731447 670.551753,440.361324 671.59668,441.201172 C672.641607,442.04102 673.452146,443.120111 674.02832,444.438477 C674.604495,445.756843 674.892578,447.314444 674.892578,449.111328 L674.892578,465.371094 L679.462891,465.371094 L679.462891,470 L670.322266,470 L670.205078,464.345703 L669.970703,464.345703 C669.130855,466.513683 667.890633,468.120112 666.25,469.165039 C664.609367,470.209966 662.646496,470.732422 660.361328,470.732422 C658.837883,470.732422 657.460944,470.498049 656.230469,470.029297 C654.999994,469.560545 653.935551,468.867192 653.037109,467.949219 C652.236324,467.148433 651.616213,466.191412 651.176758,465.078125 C650.737302,463.964838 650.517578,462.80274 650.517578,461.591797 C650.517578,459.189441 651.279289,457.128915 652.802734,455.410156 C654.326179,453.691398 656.611313,452.695314 659.658203,452.421875 L669.619141,451.513672 L669.619141,449.052734 C669.619141,447.861322 669.467775,446.875004 669.165039,446.09375 C668.862303,445.312496 668.43262,444.692385 667.875977,444.233398 C667.319333,443.774412 666.650395,443.452149 665.869141,443.266602 C665.087887,443.081054 664.218755,442.988281 663.261719,442.988281 C661.347647,442.988281 659.819342,443.417964 658.676758,444.277344 C657.534174,445.136723 656.962891,446.552725 656.962891,448.525391 L651.542969,448.525391 C651.542969,447.080071 651.855466,445.756842 652.480469,444.555664 C653.105472,443.354486 653.945307,442.314458 655,441.435547 C656.054693,440.556636 657.294915,439.877932 658.720703,439.399414 C660.146492,438.920896 661.679679,438.681641 663.320312,438.681641 Z M904.873047,429.189453 L904.873047,470 L899.453125,470 L899.453125,465.019531 C898.496089,466.855478 897.216805,468.266597 895.615234,469.25293 C894.013664,470.239263 892.080089,470.732422 889.814453,470.732422 C887.74413,470.732422 885.94239,470.312504 884.40918,469.472656 C882.875969,468.632808 881.601568,467.490242 880.585938,466.044922 C879.570307,464.599602 878.813479,462.905283 878.31543,460.961914 C877.81738,459.018545 877.568359,456.933605 877.568359,454.707031 C877.568359,452.499989 877.81738,450.415049 878.31543,448.452148 C878.813479,446.489248 879.560542,444.790046 880.556641,443.354492 C881.552739,441.918938 882.812492,440.781254 884.335938,439.941406 C885.859383,439.101558 887.636709,438.681641 889.667969,438.681641 C891.953136,438.681641 893.916007,439.169917 895.556641,440.146484 C897.197274,441.123052 898.496089,442.539053 899.453125,444.394531 L899.453125,429.189453 L904.873047,429.189453 Z M822.753906,438.681641 C824.394539,438.681641 825.922844,438.891599 827.338867,439.311523 C828.75489,439.731447 829.985346,440.361324 831.030273,441.201172 C832.075201,442.04102 832.885739,443.120111 833.461914,444.438477 C834.038089,445.756843 834.326172,447.314444 834.326172,449.111328 L834.326172,465.371094 L838.896484,465.371094 L838.896484,470 L829.755859,470 L829.638672,464.345703 L829.404297,464.345703 C828.564449,466.513683 827.324227,468.120112 825.683594,469.165039 C824.042961,470.209966 822.08009,470.732422 819.794922,470.732422 C818.271477,470.732422 816.894537,470.498049 815.664062,470.029297 C814.433588,469.560545 813.369145,468.867192 812.470703,467.949219 C811.669918,467.148433 811.049807,466.191412 810.610352,465.078125 C810.170896,463.964838 809.951172,462.80274 809.951172,461.591797 C809.951172,459.189441 810.712883,457.128915 812.236328,455.410156 C813.759773,453.691398 816.044907,452.695314 819.091797,452.421875 L829.052734,451.513672 L829.052734,449.052734 C829.052734,447.861322 828.901369,446.875004 828.598633,446.09375 C828.295897,445.312496 827.866214,444.692385 827.30957,444.233398 C826.752927,443.774412 826.083988,443.452149 825.302734,443.266602 C824.52148,443.081054 823.652349,442.988281 822.695312,442.988281 C820.78124,442.988281 819.252935,443.417964 818.110352,444.277344 C816.967768,445.136723 816.396484,446.552725 816.396484,448.525391 L810.976562,448.525391 C810.976562,447.080071 811.289059,445.756842 811.914062,444.555664 C812.539066,443.354486 813.378901,442.314458 814.433594,441.435547 C815.488287,440.556636 816.728508,439.877932 818.154297,439.399414 C819.580085,438.920896 821.113273,438.681641 822.753906,438.681641 Z M859.462891,438.681641 C860.947273,438.681641 862.294916,438.881834 863.505859,439.282227 C864.716803,439.682619 865.761714,440.322261 866.640625,441.201172 C867.519536,442.080083 868.203123,443.208001 868.691406,444.584961 C869.17969,445.961921 869.423828,447.636709 869.423828,449.609375 L869.423828,470 L864.003906,470 L864.003906,450.195312 C864.003906,447.949208 863.574223,446.18653 862.714844,444.907227 C861.855464,443.627923 860.263683,442.988281 857.939453,442.988281 C856.826166,442.988281 855.810551,443.208006 854.892578,443.647461 C853.974605,444.086916 853.173832,444.716793 852.490234,445.537109 C851.806637,446.357426 851.274416,447.329096 850.893555,448.452148 C850.512693,449.575201 850.322266,450.800775 850.322266,452.128906 L850.322266,470 L844.931641,470 L844.931641,439.414062 L850.322266,439.414062 L850.321984,444.451422 L850.494402,444.098892 C851.317147,442.469806 852.412103,441.176763 853.779297,440.219727 C855.244148,439.194331 857.13866,438.681641 859.462891,438.681641 Z M717.167969,438.681641 C718.4961,438.681641 719.741205,438.881834 720.90332,439.282227 C722.065435,439.682619 723.076168,440.322261 723.935547,441.201172 C724.794926,442.080083 725.463865,443.208001 725.942383,444.584961 C726.420901,445.961921 726.660156,447.636709 726.660156,449.609375 L726.660156,470 L721.269531,470 L721.269531,450.195312 C721.269531,447.949208 720.839848,446.18653 719.980469,444.907227 C719.121089,443.627923 717.685557,442.988281 715.673828,442.988281 C714.716792,442.988281 713.828129,443.208006 713.007812,443.647461 C712.187496,444.086916 711.455081,444.716793 710.810547,445.537109 C710.166012,446.357426 709.667971,447.329096 709.316406,448.452148 C708.964842,449.575201 708.789062,450.800775 708.789062,452.128906 L708.789062,470 L703.369141,470 L703.369141,450.195312 C703.369141,447.949208 702.939457,446.18653 702.080078,444.907227 C701.220699,443.627923 699.794932,442.988281 697.802734,442.988281 C696.845698,442.988281 695.957035,443.208006 695.136719,443.647461 C694.316402,444.086916 693.583988,444.716793 692.939453,445.537109 C692.294919,446.357426 691.791994,447.329096 691.430664,448.452148 C691.069334,449.575201 690.888672,450.800775 690.888672,452.128906 L690.888672,470 L685.498047,470 L685.498047,439.414062 L690.888672,439.414062 L690.887984,444.451422 L691.030339,444.121157 C691.714542,442.59051 692.721999,441.319341 694.052734,440.307617 C695.478523,439.223627 697.265614,438.681641 699.414062,438.681641 C701.445323,438.681641 703.24218,439.189448 704.804688,440.205078 C706.367195,441.220708 707.490231,442.812489 708.173828,444.980469 C708.818363,443.183585 709.912102,441.684576 711.455078,440.483398 C712.998055,439.282221 714.902332,438.681641 717.167969,438.681641 Z M944.6875,438.681641 C946.171882,438.681641 947.519525,438.881834 948.730469,439.282227 C949.941412,439.682619 950.986324,440.322261 951.865234,441.201172 C952.744145,442.080083 953.427732,443.208001 953.916016,444.584961 C954.404299,445.961921 954.648438,447.636709 954.648438,449.609375 L954.648438,470 L949.228516,470 L949.228516,450.195312 C949.228516,447.949208 948.798832,446.18653 947.939453,444.907227 C947.080074,443.627923 945.488293,442.988281 943.164062,442.988281 C942.050776,442.988281 941.035161,443.208006 940.117188,443.647461 C939.199214,444.086916 938.398441,444.716793 937.714844,445.537109 C937.031247,446.357426 936.499025,447.329096 936.118164,448.452148 C935.737303,449.575201 935.546875,450.800775 935.546875,452.128906 L935.546875,470 L930.15625,470 L930.15625,439.414062 L935.546875,439.414062 L935.545984,444.451422 L935.719011,444.098892 C936.541756,442.469806 937.636712,441.176763 939.003906,440.219727 C940.468757,439.194331 942.36327,438.681641 944.6875,438.681641 Z M920.195312,439.414062 L920.195312,470 L914.804688,470 L914.804688,439.414062 L920.195312,439.414062 Z M805.175781,439.414062 L805.175781,444.072266 L795.859375,444.072266 L795.859375,470 L790.46875,470 L790.46875,439.414062 L805.175781,439.414062 Z M768.027344,429.189453 C770.058604,429.189453 771.816399,429.331053 773.300781,429.614258 C774.785164,429.897462 776.113275,430.45898 777.285156,431.298828 C779.628918,432.958993 780.800781,435.527326 780.800781,439.003906 C780.800781,441.386731 780.249029,443.427726 779.145508,445.126953 C778.041987,446.82618 776.533213,448.037106 774.619141,448.759766 C776.78712,449.365237 778.510736,450.458976 779.790039,452.041016 C781.069342,453.623055 781.708984,455.644519 781.708984,458.105469 C781.708984,462.070332 780.673838,465.019522 778.603516,466.953125 C777.451166,467.988286 776.020516,468.75488 774.311523,469.25293 C772.602531,469.750979 770.60548,470 768.320312,470 L752.119141,470 L752.119141,429.189453 L768.027344,429.189453 Z M612.871094,439.414062 L612.871094,444.072266 L603.554688,444.072266 L603.554688,470 L598.164062,470 L598.164062,439.414062 L612.871094,439.414062 Z M583.662109,429.189453 L583.662109,439.414062 L590.693359,439.414062 L590.693359,444.013672 L583.662109,444.013672 L583.662109,465.371094 L590.693359,465.371094 L590.693359,470 L578.330078,470 L578.330078,444.013672 L573.173828,444.013672 L573.173828,439.414062 L578.330078,439.414062 L578.330078,429.189453 L583.662109,429.189453 Z M469.638672,429.189453 L469.638672,470 L450.800781,470 L450.800781,464.902344 L463.925781,464.902344 L463.925781,429.189453 L469.638672,429.189453 Z M396.953125,439.414062 L403.017578,463.349609 L403.251953,463.349609 L408.642578,439.414062 L415.205078,439.414062 L420.830078,463.349609 L421.064453,463.349609 L427.1875,439.414062 L432.460938,439.414062 L423.525391,470 L417.841797,470 L412.070312,445.214844 L411.835938,445.214844 L406.005859,470 L400.439453,470 L391.503906,439.414062 L396.953125,439.414062 Z M328.515625,429.189453 L345.361328,463.085938 L345.625,463.085938 L345.625,429.189453 L351.132812,429.189453 L351.132812,470 L343.105469,470 L326.230469,435.927734 L325.996094,435.927734 L325.996094,470 L320.458984,470 L320.458984,429.189453 L328.515625,429.189453 Z M891.074219,442.988281 C889.960932,442.988281 888.930669,443.159178 887.983398,443.500977 C887.036128,443.842775 886.210941,444.316403 885.507812,444.921875 C884.804684,445.527347 884.252932,446.259761 883.852539,447.119141 C883.452146,447.97852 883.251953,448.925776 883.251953,449.960938 L883.251953,459.453125 C883.251953,460.488286 883.452146,461.435543 883.852539,462.294922 C884.252932,463.154301 884.804684,463.881833 885.507812,464.477539 C886.210941,465.073245 887.031245,465.54199 887.96875,465.883789 C888.906255,466.225588 889.941401,466.396484 891.074219,466.396484 C893.789076,466.396484 895.864251,465.537118 897.299805,463.818359 C898.735359,462.099601 899.453125,459.921888 899.453125,457.285156 L899.453125,452.128906 C899.453125,449.492174 898.735359,447.309579 897.299805,445.581055 C895.864251,443.85253 893.789076,442.988281 891.074219,442.988281 Z M976.298828,442.988281 C975.185541,442.988281 974.155278,443.159178 973.208008,443.500977 C972.260737,443.842775 971.43555,444.316403 970.732422,444.921875 C970.029293,445.527347 969.477541,446.259761 969.077148,447.119141 C968.676756,447.97852 968.476562,448.925776 968.476562,449.960938 L968.476562,459.453125 C968.476562,460.488286 968.676756,461.435543 969.077148,462.294922 C969.477541,463.154301 970.029293,463.881833 970.732422,464.477539 C971.43555,465.073245 972.255855,465.54199 973.193359,465.883789 C974.130864,466.225588 975.16601,466.396484 976.298828,466.396484 C979.013685,466.396484 981.08886,465.537118 982.524414,463.818359 C983.959968,462.099601 984.677734,459.921888 984.677734,457.285156 L984.677734,452.128906 C984.677734,449.492174 983.959968,447.309579 982.524414,445.581055 C981.08886,443.85253 979.013685,442.988281 976.298828,442.988281 Z M829.052734,455.673828 L818.183594,456.669922 C817.070307,456.748047 816.372072,457.041013 816.088867,457.548828 C815.805663,458.056643 815.664062,458.749996 815.664062,459.628906 L815.664062,462.324219 C815.664062,463.730476 816.152339,464.760739 817.128906,465.415039 C818.105474,466.069339 819.453116,466.396484 821.171875,466.396484 C823.613293,466.396484 825.537102,465.527352 826.943359,463.789062 C828.349616,462.050773 829.052734,459.804701 829.052734,457.050781 L829.052734,455.673828 Z M492.255859,442.988281 C491.181635,442.988281 490.151372,443.159178 489.165039,443.500977 C488.178706,443.842775 487.324222,444.316403 486.601562,444.921875 C485.878903,445.527347 485.297854,446.259761 484.858398,447.119141 C484.418943,447.97852 484.199219,448.925776 484.199219,449.960938 L484.199219,459.453125 C484.199219,460.488286 484.418943,461.435543 484.858398,462.294922 C485.297854,463.154301 485.878903,463.881833 486.601562,464.477539 C487.324222,465.073245 488.173823,465.54199 489.150391,465.883789 C490.126958,466.225588 491.162104,466.396484 492.255859,466.396484 C493.330083,466.396484 494.355464,466.225588 495.332031,465.883789 C496.308599,465.54199 497.1582,465.073245 497.880859,464.477539 C498.603519,463.881833 499.184568,463.154301 499.624023,462.294922 C500.063479,461.435543 500.283203,460.488286 500.283203,459.453125 L500.283203,449.960938 C500.283203,448.925776 500.063479,447.97852 499.624023,447.119141 C499.184568,446.259761 498.603519,445.527347 497.880859,444.921875 C497.1582,444.316403 496.308599,443.842775 495.332031,443.500977 C494.355464,443.159178 493.330083,442.988281 492.255859,442.988281 Z M669.619141,455.673828 L658.75,456.669922 C657.636713,456.748047 656.938478,457.041013 656.655273,457.548828 C656.372069,458.056643 656.230469,458.749996 656.230469,459.628906 L656.230469,462.324219 C656.230469,463.730476 656.718745,464.760739 657.695312,465.415039 C658.67188,466.069339 660.019523,466.396484 661.738281,466.396484 C664.1797,466.396484 666.103509,465.527352 667.509766,463.789062 C668.916023,462.050773 669.619141,459.804701 669.619141,457.050781 L669.619141,455.673828 Z M771.044922,451.455078 L757.832031,451.455078 L757.832031,464.902344 L770.664062,464.902344 C772.187508,464.902344 773.408199,464.541019 774.326172,463.818359 C775.244145,463.0957 775.703125,461.972664 775.703125,460.449219 L775.703125,455.527344 C775.703125,454.160149 775.283207,453.139652 774.443359,452.46582 C773.603511,451.791989 772.47071,451.455078 771.044922,451.455078 Z M373.193359,442.988281 C372.197261,442.988281 371.250004,443.149412 370.351562,443.47168 C369.453121,443.793947 368.652347,444.267575 367.949219,444.892578 C367.24609,445.517581 366.694338,446.279292 366.293945,447.177734 C365.893553,448.076176 365.693359,449.082026 365.693359,450.195312 L365.693359,451.894531 L380.693359,451.894531 L380.693359,450.195312 C380.693359,449.082026 380.493166,448.076176 380.092773,447.177734 C379.692381,446.279292 379.145511,445.517581 378.452148,444.892578 C377.758786,444.267575 376.958012,443.793947 376.049805,443.47168 C375.141597,443.149412 374.189458,442.988281 373.193359,442.988281 Z M631.152344,442.988281 C630.156245,442.988281 629.208989,443.149412 628.310547,443.47168 C627.412105,443.793947 626.611332,444.267575 625.908203,444.892578 C625.205075,445.517581 624.653322,446.279292 624.25293,447.177734 C623.852537,448.076176 623.652344,449.082026 623.652344,450.195312 L623.652344,451.894531 L638.652344,451.894531 L638.652344,450.195312 C638.652344,449.082026 638.45215,448.076176 638.051758,447.177734 C637.651365,446.279292 637.104496,445.517581 636.411133,444.892578 C635.71777,444.267575 634.916997,443.793947 634.008789,443.47168 C633.100581,443.149412 632.148442,442.988281 631.152344,442.988281 Z M770.371094,434.287109 L757.832031,434.287109 L757.832031,446.357422 L770.371094,446.357422 C771.894539,446.357422 773.017575,445.957035 773.740234,445.15625 C774.462894,444.355465 774.824219,443.320319 774.824219,442.050781 L774.824219,438.388672 C774.824219,435.673815 773.339859,434.306641 770.371094,434.287109 Z M920.3125,429.189453 L920.3125,434.84375 L914.6875,434.84375 L914.6875,429.189453 L920.3125,429.189453 Z M849.40918,337.802734 C852.794613,337.802734 855.724271,338.518873 858.198242,339.951172 C860.672213,341.383471 862.706698,343.369128 864.301758,345.908203 L864.301758,339.023438 L876.801758,339.023438 L876.801758,389.21875 C876.801758,392.669288 876.166999,395.66405 874.897461,398.203125 C873.627923,400.7422 871.927094,402.841789 869.794922,404.501953 C867.66275,406.162118 865.21323,407.407222 862.446289,408.237305 C859.679348,409.067387 856.798518,409.482422 853.803711,409.482422 C850.808904,409.482422 848.009453,409.205732 845.405273,408.652344 C842.801094,408.098956 840.498057,407.187506 838.496094,405.917969 C836.494131,404.648431 834.866543,402.996429 833.613281,400.961914 C832.36002,398.927399 831.521812,396.445327 831.098633,393.515625 L843.598633,393.515625 C843.98926,395.501312 844.892571,397.047521 846.308594,398.154297 C847.724616,399.261073 849.897446,399.814453 852.827148,399.814453 C854.292,399.814453 855.724277,399.659832 857.124023,399.350586 C858.52377,399.04134 859.752599,398.471684 860.810547,397.641602 C861.868495,396.811519 862.714841,395.66407 863.349609,394.199219 C863.984378,392.734368 864.301758,390.862642 864.301758,388.583984 L864.301758,383.115234 C862.706698,385.65431 860.712903,387.639967 858.320312,389.072266 C855.927722,390.504564 853.022478,391.220703 849.604492,391.220703 C846.219059,391.220703 843.256849,390.52084 840.717773,389.121094 C838.178698,387.721347 836.062834,385.817069 834.370117,383.408203 C832.6774,380.999337 831.407882,378.175472 830.561523,374.936523 C829.715165,371.697575 829.291992,368.222675 829.291992,364.511719 C829.291992,360.833315 829.698889,357.358415 830.512695,354.086914 C831.326501,350.815413 832.563468,347.98341 834.223633,345.59082 C835.883797,343.19823 837.983386,341.30209 840.522461,339.902344 C843.061536,338.502597 846.023746,337.802734 849.40918,337.802734 Z M710.786133,337.802734 C716.580433,337.802734 721.332989,339.20246 725.043945,342.001953 C728.754901,344.801446 730.740559,349.033175 731.000977,354.697266 L718.500977,354.697266 C718.370768,352.288399 717.605801,350.489915 716.206055,349.301758 C714.806308,348.113601 712.999686,347.519531 710.786133,347.519531 C708.637685,347.519531 706.888028,347.983394 705.537109,348.911133 C704.186191,349.838872 703.510742,351.132804 703.510742,352.792969 C703.510742,354.453133 704.023432,355.681962 705.048828,356.479492 C706.074224,357.277022 707.416984,357.854816 709.077148,358.212891 L719.18457,360.410156 C721.040048,360.800783 722.805981,361.378577 724.482422,362.143555 C726.158863,362.908532 727.599278,363.893223 728.803711,365.097656 C730.008144,366.302089 730.960283,367.734367 731.660156,369.394531 C732.36003,371.054696 732.709961,373.024077 732.709961,375.302734 C732.709961,377.516287 732.23796,379.583324 731.293945,381.503906 C730.34993,383.424489 728.982756,385.100904 727.192383,386.533203 C725.402009,387.965502 723.18849,389.104813 720.551758,389.951172 C717.915026,390.79753 714.903988,391.220703 711.518555,391.220703 C704.715135,391.220703 699.458026,389.715184 695.74707,386.704102 C692.036114,383.693019 690.050457,379.388049 689.790039,373.789062 L702.290039,373.789062 C702.810875,378.932317 705.887016,381.503906 711.518555,381.503906 C713.927421,381.503906 715.978182,381.05632 717.670898,380.161133 C719.363615,379.265946 720.209961,377.841807 720.209961,375.888672 C720.209961,374.033194 719.510098,372.690434 718.110352,371.860352 C716.710605,371.030269 714.871431,370.371096 712.592773,369.882812 L703.803711,367.978516 C695.275022,366.123038 691.010742,361.25655 691.010742,353.378906 C691.010742,351.165354 691.458329,349.114593 692.353516,347.226562 C693.248702,345.338532 694.542635,343.694668 696.235352,342.294922 C697.928068,340.895175 699.995105,339.796553 702.436523,338.999023 C704.877942,338.201493 707.661117,337.802734 710.786133,337.802734 Z M600.532227,337.802734 C603.982765,337.802734 607.115871,338.421218 609.931641,339.658203 C612.74741,340.895188 615.15624,342.596018 617.158203,344.760742 C619.160166,346.925467 620.690099,349.505193 621.748047,352.5 C622.805995,355.494807 623.334961,358.733707 623.334961,362.216797 L623.334961,368.515625 L590.571289,368.515625 L590.571289,371.884766 C590.571289,374.944677 591.572256,377.312817 593.574219,378.989258 C595.576182,380.665698 597.944322,381.503906 600.678711,381.503906 C603.4131,381.503906 605.642895,380.787768 607.368164,379.355469 C609.093433,377.92317 610.118813,375.904961 610.444336,373.300781 L622.944336,373.300781 C622.13053,378.964872 619.746114,383.367497 615.791016,386.508789 C611.835918,389.650081 606.749706,391.220703 600.532227,391.220703 C596.918927,391.220703 593.688165,390.569668 590.839844,389.267578 C587.991522,387.965488 585.582692,386.14259 583.613281,383.798828 C581.64387,381.455066 580.138352,378.639339 579.09668,375.351562 C578.055008,372.063786 577.53418,368.417989 577.53418,364.414062 C577.53418,360.410136 578.08756,356.772477 579.194336,353.500977 C580.301112,350.229476 581.855459,347.430025 583.857422,345.102539 C585.859385,342.775053 588.276353,340.976569 591.108398,339.707031 C593.940444,338.437494 597.081688,337.802734 600.532227,337.802734 Z M656.000977,337.802734 C662.120799,337.802734 666.954735,339.283839 670.50293,342.246094 C674.051125,345.208348 675.825195,349.554008 675.825195,355.283203 L675.825195,380.283203 L684.418945,380.283203 L684.418945,390 L664.741211,390 L664.643555,382.089844 L664.204102,382.089844 C662.73925,384.889337 660.794283,387.110994 658.369141,388.754883 C655.943998,390.398771 652.762064,391.220703 648.823242,391.220703 C646.47948,391.220703 644.339202,390.830082 642.402344,390.048828 C640.465485,389.267574 638.764656,388.17709 637.299805,386.777344 C635.834954,385.377597 634.70378,383.733733 633.90625,381.845703 C633.10872,379.957673 632.709961,377.841809 632.709961,375.498047 C632.709961,371.363912 634.142238,367.799494 637.006836,364.804688 C639.871434,361.809881 644.005507,360.068362 649.40918,359.580078 L663.520508,358.408203 L663.520508,355.087891 C663.520508,352.418606 662.804369,350.489915 661.37207,349.301758 C659.939771,348.113601 657.986666,347.519531 655.512695,347.519531 C652.97362,347.519531 650.906583,348.129877 649.311523,349.350586 C647.716463,350.571295 646.918945,352.353504 646.918945,354.697266 L634.418945,354.697266 C634.48405,351.897772 635.086257,349.448253 636.225586,347.348633 C637.364915,345.249013 638.878571,343.499356 640.766602,342.099609 C642.654632,340.699863 644.900703,339.633793 647.504883,338.901367 C650.109062,338.168942 652.941065,337.802734 656.000977,337.802734 Z M516.987305,337.802734 C520.437843,337.802734 523.570949,338.421218 526.386719,339.658203 C529.202488,340.895188 531.611318,342.596018 533.613281,344.760742 C535.615244,346.925467 537.145177,349.505193 538.203125,352.5 C539.261073,355.494807 539.790039,358.733707 539.790039,362.216797 L539.790039,368.515625 L507.026367,368.515625 L507.026367,371.884766 C507.026367,374.944677 508.027334,377.312817 510.029297,378.989258 C512.03126,380.665698 514.3994,381.503906 517.133789,381.503906 C519.868178,381.503906 522.097973,380.787768 523.823242,379.355469 C525.548511,377.92317 526.573892,375.904961 526.899414,373.300781 L539.399414,373.300781 C538.585608,378.964872 536.201192,383.367497 532.246094,386.508789 C528.290996,389.650081 523.204784,391.220703 516.987305,391.220703 C513.374005,391.220703 510.143243,390.569668 507.294922,389.267578 C504.4466,387.965488 502.03777,386.14259 500.068359,383.798828 C498.098948,381.455066 496.59343,378.639339 495.551758,375.351562 C494.510086,372.063786 493.989258,368.417989 493.989258,364.414062 C493.989258,360.410136 494.542638,356.772477 495.649414,353.500977 C496.75619,350.229476 498.310537,347.430025 500.3125,345.102539 C502.314463,342.775053 504.731431,340.976569 507.563477,339.707031 C510.395522,338.437494 513.536767,337.802734 516.987305,337.802734 Z M564.790039,321.982422 L564.790039,390 L552.290039,390 L552.290039,321.982422 L564.790039,321.982422 Z M461.616211,321.982422 C468.875362,321.982422 474.246402,323.699527 477.729492,327.133789 C481.212583,330.568051 482.954102,335.849574 482.954102,342.978516 C482.954102,348.382188 481.668307,352.71971 479.09668,355.991211 C476.525052,359.262712 472.944359,361.533197 468.354492,362.802734 L483.930664,390 L469.526367,390 L455.219727,363.876953 L446.918945,363.876953 L446.918945,390 L433.930664,390 L433.930664,321.982422 L461.616211,321.982422 Z M757.172852,339.023438 L757.172852,390 L744.672852,390 L744.672852,339.023438 L757.172852,339.023438 Z M800.141602,337.802734 C805.870797,337.802734 810.08625,339.471012 812.788086,342.807617 C815.489922,346.144222 816.84082,350.742158 816.84082,356.601562 L816.84082,390 L804.34082,390 L804.34082,357.480469 C804.34082,354.485662 803.706061,352.158211 802.436523,350.498047 C801.166986,348.837882 799.034846,348.007812 796.040039,348.007812 C792.589501,348.007812 789.895843,349.155262 787.958984,351.450195 C786.022126,353.745129 785.053711,356.764304 785.053711,360.507812 L785.053711,390 L772.553711,390 L772.553711,339.023438 L785.053711,339.023438 L785.053711,346.396484 C786.583667,343.662096 788.577462,341.546231 791.035156,340.048828 C793.492851,338.551425 796.528302,337.802734 800.141602,337.802734 Z M852.827148,347.519531 C849.571924,347.519531 847.008473,348.43098 845.136719,350.253906 C843.264965,352.076832 842.329102,354.420559 842.329102,357.285156 L842.329102,371.689453 C842.329102,374.554051 843.273103,376.905915 845.161133,378.745117 C847.049163,380.584319 849.604476,381.503906 852.827148,381.503906 C856.831075,381.503906 859.744457,380.299491 861.567383,377.890625 C863.390309,375.481759 864.301758,372.291687 864.301758,368.320312 L864.301758,360.703125 C864.301758,356.699199 863.390309,353.500989 861.567383,351.108398 C859.744457,348.715808 856.831075,347.519531 852.827148,347.519531 Z M663.520508,367.880859 L648.530273,369.199219 C646.674795,369.394532 645.730794,370.501292 645.698242,372.519531 L645.698242,376.914062 C645.698242,378.444018 646.398105,379.591468 647.797852,380.356445 C649.197598,381.121423 651.004221,381.503906 653.217773,381.503906 C656.407894,381.503906 658.922517,380.372733 660.761719,378.110352 C662.600921,375.84797 663.520508,373.105485 663.520508,369.882812 L663.520508,367.880859 Z M516.987305,347.519531 C514.122707,347.519531 511.746429,348.398429 509.858398,350.15625 C507.970368,351.914071 507.026367,354.192694 507.026367,356.992188 L507.026367,358.798828 L526.99707,358.798828 L526.99707,356.992188 C526.99707,354.192694 526.053069,351.914071 524.165039,350.15625 C522.277009,348.398429 519.884455,347.519531 516.987305,347.519531 Z M600.532227,347.519531 C597.667629,347.519531 595.291351,348.398429 593.40332,350.15625 C591.51529,351.914071 590.571289,354.192694 590.571289,356.992188 L590.571289,358.798828 L610.541992,358.798828 L610.541992,356.992188 C610.541992,354.192694 609.597991,351.914071 607.709961,350.15625 C605.821931,348.398429 603.429376,347.519531 600.532227,347.519531 Z M463.325195,333.017578 L446.918945,333.017578 L446.918945,353.183594 L463.325195,353.183594 C467.394226,353.183594 469.428711,350.921247 469.428711,346.396484 L469.428711,339.414062 C469.428711,337.135405 468.981124,335.499679 468.085938,334.506836 C467.190751,333.513992 465.603853,333.017578 463.325195,333.017578 Z M757.368164,321.982422 L757.368164,333.115234 L744.477539,333.115234 L744.477539,321.982422 L757.368164,321.982422 Z"/>
  </g>
</svg>
