<svg xmlns="http://www.w3.org/2000/svg" viewBox="0 0 550 487.36"><defs><style>.cls-1{fill:#6b3eff;}.cls-2{fill:#562ed9;}</style></defs><title>Staked-logo-vertical (2)</title><g id="Layer_2" data-name="Layer 2"><g id="Staked-logo-vertical"><path class="cls-1" d="M380.06,0h-104c-1.11,0-2.38.06-3.79.15h-.1C258.6,1,232,5.6,210.36,27.46a96,96,0,0,0-23.13,38.76H168a89.77,89.77,0,0,0-65.17,27.62A94,94,0,0,0,76.57,159.6V298.26l77.15-44.54a5.59,5.59,0,0,1,2.8-.75H274.08c1.11,0,2.38-.06,3.8-.15H278c13.6-.83,40.17-5.45,61.86-27.31a95.94,95.94,0,0,0,22.93-38.18c1.41,0,25.37,0,33.45.12l.09.05L473.43,232V93.37A93.47,93.47,0,0,0,380.06,0ZM297.34,209.34c-3.54,7-11.91,11.72-21.68,12.36h-.26c-.61,0-1.22.06-1.84.06h-117a36.93,36.93,0,0,0-18.41,4.93l-30.34,17.53V159.6c0-34.87,26.45-62.18,60.22-62.18h15.19a87.51,87.51,0,0,0,34,63.59c15.34,11.77,31,15.39,41.36,17.79A134.54,134.54,0,0,0,280.66,182c6.89.51,8,.71,10.61,2.57a20.54,20.54,0,0,1,7.69,11A22.14,22.14,0,0,1,297.34,209.34Zm31.74-21.88a51.56,51.56,0,0,0-19.42-28.13c-9.93-7.24-18.46-7.87-26.7-8.48a104.27,104.27,0,0,1-17.43-2.45c-9.11-2.1-19.43-4.49-29.39-12.14a57.27,57.27,0,0,1-17.19-22,56.32,56.32,0,0,1-4.76-21.13,63,63,0,0,1,6.9-27.66,51.52,51.52,0,0,0,19.42,28.13c9.93,7.24,18.46,7.87,26.71,8.48a104.55,104.55,0,0,1,17.43,2.45c9.1,2.11,19.43,4.49,29.38,12.14a57.35,57.35,0,0,1,17.2,22A56.32,56.32,0,0,1,336,159.8,63.18,63.18,0,0,1,329.08,187.46ZM442.23,178l-30.36-17.53a36.23,36.23,0,0,0-5.19-2.47l-.87-.31a25.15,25.15,0,0,0-8-1.42c-4.08-.05-8.16-.09-12.14-.11v0c-8.39,0-12,0-18.62,0A87.55,87.55,0,0,0,333,92c-15.33-11.77-31-15.39-41.36-17.79A135.7,135.7,0,0,0,269.52,71c-6.9-.51-8.06-.71-10.62-2.58a20.56,20.56,0,0,1-7.69-11c0-.07-1.72-7.2,1.62-13.79,3.55-7,11.94-11.73,21.73-12.36h.14c.64,0,1.27-.06,1.91-.06H380.06a62.24,62.24,0,0,1,62.17,62.17Z"/><path class="cls-2" d="M385.65,156.14h0c-8.39,0-12,0-18.62,0,.06,1,.13,2.07.15,3.08,0,.14,0,.28,0,.42a92.78,92.78,0,0,1-4.47,27.8l0-.07h10C379.66,180,385.65,165.79,385.65,156.14Z"/><path class="cls-2" d="M168,66.22c0,9,1.44,20.86,5.63,31.2h9.51c-.06-1.15-.12-2.57-.15-3.63v-.42a93.4,93.4,0,0,1,4.28-27.27l0,.12Z"/><path class="cls-2" d="M329.58,186.66a1.42,1.42,0,0,0-.05-.16c-.15.32-.29.65-.45,1a50.55,50.55,0,0,0-13.35-22.93c-1.48,8.89-5.88,19-12.1,25.28a39.3,39.3,0,0,1-5.21,4.1c.2.54.39,1.07.54,1.64a22.14,22.14,0,0,1-1.62,13.79c-3.49,6.91-11.7,11.59-21.31,12.32,9.19-.55,27.06-3.61,41.45-18.12A67.94,67.94,0,0,0,329.58,186.66Z"/><path class="cls-2" d="M275.17,31.25l.11,0-.27,0Z"/><path class="cls-2" d="M221.09,65.51h0c.29,1.08.62,2.13,1,3.16a50.93,50.93,0,0,0,12,19.39c1.51-8.87,6.18-18.89,12.39-25.15,1-1,3.13-2.81,5.1-4.42-.12-.36-.26-.7-.36-1.08,0-.07-1.72-7.2,1.62-13.79,3.46-6.83,11.51-11.47,21-12.29-9.64.78-27.51,4.09-41.16,17.86A62.7,62.7,0,0,0,221.09,65.51Z"/><path d="M248.27,386H227v6.43c-8-5.26-17.36-8-28.28-8-14.82,0-27.1,5.07-36.46,15C153.5,409,149,421.25,149,435.88s4.48,26.91,13.26,36.46c9.36,10,21.64,15,36.46,15,10.73,0,20.28-2.73,28.28-8v6.44h21.25Zm-28.86,72c-5.07,6-11.7,9-20.67,9-8.77,0-15.6-2.92-20.67-9-4.87-5.85-7.41-13.06-7.41-22.23s2.34-16.38,7.41-22.23c5.07-6,11.7-9,20.67-9,8.78,0,15.6,2.93,20.67,9,4.88,5.85,7.41,13.07,7.41,22.23S224.48,452.06,219.41,457.91Z"/><path d="M105.3,485.54V405.39H86.58V385.5H105.3V352.55h21.64V385.5H148.2v19.89H126.94v80.15Z"/><path d="M397.9,486.9c-15,0-27.29-5.07-36.85-15-9.16-9.75-13.84-21.84-13.84-36.47s4.48-26.91,13.26-36.46c9.36-9.95,21.64-15,36.46-15S424,389,433.39,399c8.78,9.55,13.26,21.84,13.26,36.46v9.36H370.22A28.26,28.26,0,0,0,378.41,459c5.26,5.07,11.69,7.41,19.69,7.41,10.92,0,18.52-4.29,23.2-13.46l1.17-2.14h23.21l-1.95,5.26a49.13,49.13,0,0,1-16.58,22C419.55,484.17,409.6,486.9,397.9,486.9Zm25.55-62.79a28.08,28.08,0,0,0-7.8-12.87c-5.07-4.68-11.12-6.82-18.72-6.82a27,27,0,0,0-18.72,6.82,29.1,29.1,0,0,0-7.8,12.87Z"/><path d="M528.36,352.55V392c-8-5.19-17.25-7.88-28.08-7.88-14.82,0-27.11,5.07-36.47,15-8.77,9.56-13.26,21.84-13.26,36.47s4.49,26.91,13.26,36.46c9.36,9.95,21.65,15,36.47,15,10.64,0,20.12-2.7,28.08-7.88v6.32H550v-133ZM521,457.65c-5.07,6.05-11.7,9-20.67,9-8.78,0-15.6-2.92-20.67-9-4.88-5.85-7.41-13.06-7.41-22.23s2.34-16.38,7.41-22.23c5.07-6,11.7-9,20.67-9,8.77,0,15.6,2.93,20.67,9,4.87,5.85,7.41,13.07,7.41,22.23S526,451.8,521,457.65Z"/><polygon points="353.04 485.8 353.06 485.8 322.96 452.98 303.44 431.68 343.65 390.28 316.45 390.28 313.41 390.28 285.15 419.23 285.15 352.81 265.11 352.81 263.51 352.81 263.51 485.8 265.11 485.8 285.15 485.8 285.15 443.75 323.68 485.8 353.04 485.8"/><path d="M44.07,486.9c-13.26,0-24-3.51-31.79-10.14a32.39,32.39,0,0,1-12.08-24l-.2-4.1H22l.39,3.51c.78,7,4.49,11.31,11.7,13.85a31.3,31.3,0,0,0,8.19,1.36,53.87,53.87,0,0,0,8.19-.58,41,41,0,0,0,7-1.76c5.66-2.14,6.24-5.65,6.24-8.38,0-2.54-.78-4.29-2.73-5.46a37.5,37.5,0,0,0-10.14-4.49c-4.48-1.17-9.36-2.34-14.43-3.51a96.66,96.66,0,0,1-15.6-4.48,34.78,34.78,0,0,1-12.67-8.58c-3.71-3.9-5.66-9.36-5.66-16,0-9.56,3.51-17.16,10.73-22.62,6.82-5.07,16.57-7.8,29.44-7.8,12.29,0,22,3.12,29.25,9,6.24,5.26,9.75,12.09,10.73,20.67l.58,4.29H61.42L61,414.17c-.58-4.68-3.31-10.92-19.3-10.92-17.36,0-17.36,6.82-17.36,9.36a5.29,5.29,0,0,0,2.73,5.07A36.82,36.82,0,0,0,37.44,422c4.48,1.17,9.36,2.34,14.62,3.31A86.05,86.05,0,0,1,67.66,430a35.2,35.2,0,0,1,12.68,8.78c3.7,4.09,5.46,9.55,5.46,16.18,0,10.34-3.9,18.33-11.9,23.79C66.3,484.37,56.35,486.9,44.07,486.9Z"/></g></g></svg>