<svg width="300" height="88" viewBox="0 0 300 88" fill="none" xmlns="http://www.w3.org/2000/svg">
<g clip-path="url(#clip0_356_21948)">
<path d="M71 44L37 0H65.1075C68.8239 0 72.3306 1.72191 74.6029 4.66263L104 42.7059L102.47 44H71Z" fill="url(#paint0_linear_356_21948)"/>
<path d="M71 44L37 0H65.1075C68.8239 0 72.3306 1.72191 74.6029 4.66263L104 42.7059L102.47 44H71Z" fill="url(#paint1_radial_356_21948)"/>
<path d="M71 44H39.53L38.5455 46L48.8027 59.2741C51.8638 63.2356 51.8638 68.7644 48.8027 72.7259L37 88H65.1075C68.8239 88 72.3306 86.2781 74.6029 83.3374L81.8577 73.9488C85.4755 69.2671 85.4755 62.7329 81.8577 58.0512L71 44Z" fill="url(#paint2_linear_356_21948)"/>
<path d="M71 44H39.53L38.5455 46L48.8027 59.2741C51.8638 63.2356 51.8638 68.7644 48.8027 72.7259L37 88H65.1075C68.8239 88 72.3306 86.2781 74.6029 83.3374L81.8577 73.9488C85.4755 69.2671 85.4755 62.7329 81.8577 58.0512L71 44Z" fill="url(#paint3_radial_356_21948)"/>
<path d="M71 44H39.53L38.5455 46L48.8027 59.2741C51.8638 63.2356 51.8638 68.7644 48.8027 72.7259L37 88H65.1075C68.8239 88 72.3306 86.2781 74.6029 83.3374L81.8577 73.9488C85.4755 69.2671 85.4755 62.7329 81.8577 58.0512L71 44Z" fill="url(#paint4_radial_356_21948)"/>
<path d="M33.869 0C30.1659 0 26.6703 1.70967 24.3968 4.63271L4.91153 29.6852C1.72826 33.778 0 38.815 0 44C0 49.185 1.72826 54.222 4.91153 58.3148L24.3968 83.3673C26.6703 86.2903 30.1659 88 33.869 88H65.1075C65.5717 88 66.0326 87.9731 66.4883 87.9204C63.3088 87.5523 60.3853 85.9239 58.3968 83.3673L37.1222 56.0142C34.4505 52.5792 33 48.3517 33 44C33 39.6483 34.4505 35.4208 37.1222 31.9858L58.3968 4.63271C60.3853 2.07607 63.3088 0.447669 66.4883 0.0796094C66.0326 0.0268632 65.5717 0 65.1075 0H33.869Z" fill="url(#paint5_linear_356_21948)"/>
<path d="M33.869 0C30.1659 0 26.6703 1.70967 24.3968 4.63271L4.91153 29.6852C1.72826 33.778 0 38.815 0 44C0 49.185 1.72826 54.222 4.91153 58.3148L24.3968 83.3673C26.6703 86.2903 30.1659 88 33.869 88H65.1075C65.5717 88 66.0326 87.9731 66.4883 87.9204C63.3088 87.5523 60.3853 85.9239 58.3968 83.3673L37.1222 56.0142C34.4505 52.5792 33 48.3517 33 44C33 39.6483 34.4505 35.4208 37.1222 31.9858L58.3968 4.63271C60.3853 2.07607 63.3088 0.447669 66.4883 0.0796094C66.0326 0.0268632 65.5717 0 65.1075 0H33.869Z" fill="url(#paint6_radial_356_21948)" fill-opacity="0.5"/>
<path d="M71 44H39.532L38.55 46H70.018L71 44Z" fill="url(#paint7_linear_356_21948)"/>
<path d="M38.7137 45.6667H70.1817L70.018 46H38.55L38.7137 45.6667Z" fill="#2825A2"/>
<path d="M65.2217 0.000549316C68.8957 0.035436 72.3539 1.75207 74.6029 4.66264L104 42.7059L102.472 44L73.0204 5.88554C71.15 3.46508 68.2762 2.03545 65.2217 2.00066C62.1781 2.03533 59.3133 3.45498 57.4421 5.86102L37.1193 31.9932C34.4495 35.4262 33 39.6511 33 44C33 48.3489 34.4495 52.5738 37.1193 56.0068L57.4421 82.139C59.3133 84.5451 62.1781 85.9647 65.2217 85.9994C68.2762 85.9646 71.15 84.5349 73.0204 82.1145L80.2752 72.7259C83.3363 68.7644 83.3363 63.2356 80.2752 59.2741L70.0179 46L71 44L81.8577 58.0512C85.4755 62.7329 85.4755 69.2671 81.8577 73.9488L74.6029 83.3374C72.3539 86.2479 68.8957 87.9646 65.2217 87.9995C61.5609 87.9647 58.1134 86.2601 55.8633 83.3668L35.5405 57.2346C32.5977 53.4506 31 48.7936 31 44C31 39.2064 32.5977 34.5495 35.5405 30.7654L55.8633 4.63322C58.1134 1.73996 61.5609 0.0353127 65.2217 0.000549316Z" fill="url(#paint8_linear_356_21948)"/>
<path d="M65.3885 0.00328938C65.333 0.00199152 65.2774 0.0010776 65.2217 0.000549316C61.5609 0.0353127 58.1134 1.73996 55.8633 4.63322L35.5405 30.7654C32.5977 34.5495 31 39.2064 31 44C31 48.7936 32.5977 53.4506 35.5405 57.2346L55.8633 83.3668C58.1134 86.2601 61.5609 87.9647 65.2217 87.9995C65.2774 87.9989 65.333 87.998 65.3885 87.9967C61.7899 87.9126 58.4127 86.2161 56.1968 83.3668L35.874 57.2346C32.9312 53.4506 31.3335 48.7936 31.3335 44C31.3335 39.2064 32.9312 34.5495 35.874 30.7654L56.1968 4.63322C58.4127 1.78392 61.7898 0.0873966 65.3885 0.00328938Z" fill="url(#paint9_linear_356_21948)"/>
<path d="M102.674 43.8293L73.3539 5.88554C71.4835 3.46508 68.6097 2.03545 65.5552 2.00066C65.4996 2.00129 65.444 2.00239 65.3885 2.00395C68.3806 2.08787 71.1841 3.50917 73.0204 5.88554L102.472 44L102.674 43.8293Z" fill="url(#paint10_linear_356_21948)"/>
<path d="M65.3885 85.9961C65.444 85.9976 65.4996 85.9987 65.5552 85.9994C68.6097 85.9646 71.4835 84.5349 73.3539 82.1145L80.6087 72.7259C83.6698 68.7644 83.6698 63.2356 80.6087 59.2741L70.3514 46L71.2039 44.2639L71 44L70.0179 46L80.2752 59.2741C83.3363 63.2356 83.3363 68.7644 80.2752 72.7259L73.0204 82.1145C71.1841 84.4908 68.3806 85.9121 65.3885 85.9961Z" fill="url(#paint11_linear_356_21948)"/>
<path d="M172.224 13.75H164.225V65.75H172.224V13.75Z" fill="white"/>
<path fill-rule="evenodd" clip-rule="evenodd" d="M119.775 45.2265C119.781 51.2397 121.509 56.1294 124.958 59.8958V59.9046C126.621 61.7129 128.651 63.1453 130.913 64.1059C133.174 65.0665 135.614 65.5332 138.07 65.4749C140.796 65.4425 143.47 64.7189 145.84 63.3717C146.708 62.8369 147.519 62.2147 148.26 61.5149C148.784 61.0454 149.281 60.5459 149.747 60.019C149.924 59.8143 150.088 59.5998 150.24 59.3766H150.627V72.89H126.625V80.15H151.996C155.658 80.15 158.626 77.1816 158.626 73.52V25.7524H150.627V30.7243H150.24L149.035 29.246C147.765 28.0512 146.293 27.0918 144.687 26.4124C142.615 25.44 140.35 24.9496 138.061 24.978C135.607 24.9223 133.17 25.3957 130.915 26.366C128.66 27.3363 126.64 28.7807 124.993 30.6011C121.509 34.3381 119.769 39.2132 119.775 45.2265ZM127.053 45.2353C127.053 41.2695 128.144 38.1133 130.326 35.7666C132.593 33.5124 135.66 32.247 138.858 32.247C142.055 32.247 145.122 33.5124 147.389 35.7666C149.571 38.1074 150.665 41.2636 150.671 45.2353C150.677 49.2069 149.583 52.3661 147.389 54.7127C145.12 56.9627 142.053 58.2251 138.858 58.2251C135.662 58.2251 132.596 56.9627 130.326 54.7127C128.144 52.3602 127.053 49.201 127.053 45.2353Z" fill="white"/>
<path fill-rule="evenodd" clip-rule="evenodd" d="M222.632 53.0463C223.616 55.5297 225.09 57.7832 226.965 59.6683C229.787 62.4654 233.359 64.3589 237.237 65.1126C241.115 65.8664 245.126 65.4469 248.769 63.9066C252.413 62.3663 255.528 59.7734 257.725 56.4515C258.507 55.2706 259.16 54.0161 259.678 52.71H251.074C250.659 53.43 250.172 54.095 249.612 54.7051C247.37 56.9552 244.342 58.2176 241.186 58.2176C238.031 58.2176 235.002 56.9552 232.761 54.7051C231.109 52.9011 230.088 50.6227 229.699 47.87L260.942 47.87C261.06 46.9974 261.121 46.1148 261.126 45.2275C261.181 42.5405 260.707 39.8692 259.729 37.3704C258.752 34.8715 257.292 32.5953 255.435 30.6751C253.578 28.7549 251.361 27.2294 248.915 26.1879C246.468 25.1464 243.841 24.61 241.186 24.61C238.532 24.61 235.905 25.1464 233.458 26.1879C231.012 27.2294 228.795 28.7549 226.938 30.6751C225.081 32.5953 223.621 34.8715 222.644 37.3704C221.666 39.8692 221.192 42.5405 221.247 45.2275C221.178 47.9022 221.649 50.5629 222.632 53.0463ZM230.101 40.61C230.629 38.7252 231.515 37.1081 232.761 35.7587C235 33.5044 238.029 32.2391 241.186 32.2391C244.344 32.2391 247.373 33.5044 249.612 35.7587C250.852 37.1058 251.735 38.7229 252.262 40.61H230.101Z" fill="white"/>
<path fill-rule="evenodd" clip-rule="evenodd" d="M183.275 59.6683C181.4 57.7832 179.926 55.5297 178.942 53.0463C177.959 50.5629 177.488 47.9022 177.557 45.2275C177.502 42.5405 177.976 39.8692 178.954 37.3704C179.931 34.8715 181.391 32.5953 183.248 30.6751C185.105 28.7549 187.322 27.2294 189.768 26.1879C192.215 25.1464 194.842 24.61 197.496 24.61C200.151 24.61 202.778 25.1464 205.225 26.1879C207.671 27.2294 209.888 28.7549 211.745 30.6751C213.602 32.5953 215.062 34.8715 216.039 37.3704C217.017 39.8692 217.491 42.5405 217.436 45.2275C217.431 46.1148 217.37 46.9974 217.252 47.87L186.009 47.87C186.398 50.6227 187.419 52.9011 189.071 54.7051C191.312 56.9552 194.341 58.2176 197.496 58.2176C200.652 58.2176 203.68 56.9552 205.922 54.7051C206.482 54.095 206.969 53.43 207.384 52.71H215.988C215.47 54.0161 214.817 55.2706 214.035 56.4515C211.838 59.7734 208.723 62.3663 205.079 63.9066C201.436 65.4469 197.425 65.8664 193.547 65.1126C189.669 64.3589 186.097 62.4654 183.275 59.6683ZM189.071 35.7587C187.825 37.1081 186.939 38.7252 186.411 40.61H208.572C208.045 38.7229 207.162 37.1058 205.922 35.7587C203.683 33.5044 200.654 32.2391 197.496 32.2391C194.339 32.2391 191.31 33.5044 189.071 35.7587Z" fill="white"/>
<path d="M262 25.7468H270.386L278.94 57.7524H282.75L291.304 25.7468H299.69C298.447 30.269 297.204 34.7914 295.961 39.3139C293.54 48.1266 291.118 56.9392 288.69 65.75H273L262 25.7468Z" fill="white"/>
</g>
<defs>
<linearGradient id="paint0_linear_356_21948" x1="71" y1="1.07366e-06" x2="104" y2="44" gradientUnits="userSpaceOnUse">
<stop stop-color="#1C1974"/>
<stop offset="1" stop-color="#07072A"/>
</linearGradient>
<radialGradient id="paint1_radial_356_21948" cx="0" cy="0" r="1" gradientUnits="userSpaceOnUse" gradientTransform="translate(71 1.01328e-06) rotate(90) scale(17 42.4068)">
<stop offset="0.223958" stop-color="#04041F"/>
<stop offset="0.401042" stop-color="#04041F" stop-opacity="0.92"/>
<stop offset="1" stop-color="#111048" stop-opacity="0"/>
<stop offset="1" stop-color="#04041F" stop-opacity="0"/>
</radialGradient>
<linearGradient id="paint2_linear_356_21948" x1="62.5" y1="88" x2="62.5" y2="44" gradientUnits="userSpaceOnUse">
<stop offset="0.184295" stop-color="#201E81"/>
<stop offset="0.68007" stop-color="#0A0939"/>
<stop offset="0.93513" stop-color="#100F53"/>
</linearGradient>
<radialGradient id="paint3_radial_356_21948" cx="0" cy="0" r="1" gradientUnits="userSpaceOnUse" gradientTransform="translate(51 66) rotate(90) scale(10 94.8599)">
<stop stop-color="#6863E8"/>
<stop offset="0.21875" stop-color="#544FD7"/>
<stop offset="1" stop-color="#232191" stop-opacity="0"/>
</radialGradient>
<radialGradient id="paint4_radial_356_21948" cx="0" cy="0" r="1" gradientUnits="userSpaceOnUse" gradientTransform="translate(77.5 53.5) rotate(90) scale(8.5 27.2)">
<stop stop-color="#0A0993"/>
<stop offset="1" stop-color="#0B0A7D" stop-opacity="0"/>
</radialGradient>
<linearGradient id="paint5_linear_356_21948" x1="33.2441" y1="0" x2="33.2441" y2="88" gradientUnits="userSpaceOnUse">
<stop offset="0.00233483" stop-color="#8986D8"/>
<stop offset="0.0618216" stop-color="#514DC8"/>
<stop offset="0.18767" stop-color="#4541BC"/>
<stop offset="0.335199" stop-color="#3936AE"/>
<stop offset="0.41907" stop-color="#18167B"/>
<stop offset="0.55688" stop-color="#151373"/>
<stop offset="0.648064" stop-color="#090835"/>
<stop offset="0.893955" stop-color="#05051F"/>
<stop offset="1" stop-color="#010105"/>
</linearGradient>
<radialGradient id="paint6_radial_356_21948" cx="0" cy="0" r="1" gradientUnits="userSpaceOnUse" gradientTransform="translate(68 -2.11352e-06) rotate(147.095) scale(80.9938 62.5861)">
<stop stop-color="#BDBBEF"/>
<stop offset="0.697917" stop-color="#9896DF" stop-opacity="0"/>
</radialGradient>
<linearGradient id="paint7_linear_356_21948" x1="38.5" y1="45" x2="70.5" y2="45" gradientUnits="userSpaceOnUse">
<stop offset="0.0001" stop-color="#232188"/>
<stop offset="0.463542" stop-color="#12115A"/>
<stop offset="1" stop-color="#3734AC"/>
</linearGradient>
<linearGradient id="paint8_linear_356_21948" x1="31" y1="44" x2="104" y2="44" gradientUnits="userSpaceOnUse">
<stop stop-color="#A49CF9"/>
<stop offset="1" stop-color="#5149DA"/>
</linearGradient>
<linearGradient id="paint9_linear_356_21948" x1="66.8368" y1="0.000549316" x2="66.8368" y2="87.9995" gradientUnits="userSpaceOnUse">
<stop stop-color="#534BDA"/>
<stop offset="1" stop-color="#0E0C66"/>
</linearGradient>
<linearGradient id="paint10_linear_356_21948" x1="66.8368" y1="0.000549316" x2="66.8368" y2="87.9995" gradientUnits="userSpaceOnUse">
<stop stop-color="#534BDA"/>
<stop offset="1" stop-color="#0E0C66"/>
</linearGradient>
<linearGradient id="paint11_linear_356_21948" x1="66.8368" y1="0.000549316" x2="66.8368" y2="87.9995" gradientUnits="userSpaceOnUse">
<stop stop-color="#534BDA"/>
<stop offset="1" stop-color="#0E0C66"/>
</linearGradient>
<clipPath id="clip0_356_21948">
<rect width="300" height="88" fill="white"/>
</clipPath>
</defs>
</svg>
