<svg width="1800" height="144" viewBox="0 0 1800 144" fill="none" xmlns="http://www.w3.org/2000/svg">
<g clip-path="url(#clip0)">
<rect width="1800" height="144" fill="black"/>
<path d="M1038.79 30.7063C1038.79 30.7947 1031.1 23.1529 1028.72 12.7724C1029.38 11.9331 1031.37 10.0779 1032.03 9.23861C1030.75 8.53186 1028.72 8.75272 1027.83 8.48768C1027.53 6.14655 1027.88 1.50846 1028.5 -2.59956L1000.36 1.42012C1000.36 1.42012 1003.98 -5.38241 1009.06 -11.2573H967.365V155.272L1048.33 155.184V10.0779C1045.46 17.0571 1042.23 23.948 1038.79 30.7063Z" fill="#00DAB0"/>
<path d="M997.105 -15L798.062 -12.2001C798.062 -11.9086 798.062 -11.9572 798.014 -12.1515C796.458 -11.1801 790.091 -8.21725 787.515 -7.19726C788.244 -6.90584 799.278 -8.70296 799.375 -8.12011C799.569 -7.10012 799.91 -6.12871 799.812 -5.06015C799.764 -4.52587 794.563 -2.24304 792.764 -1.41733C794.66 -1.51447 798.549 -1.90304 798.743 -1.41733C799.715 1.49692 794.611 17.8653 788.973 22.9166C788.292 23.4995 757.767 22.4795 756.26 22.2852C756.406 22.7224 780.807 29.668 780.904 30.1051C781.001 30.5423 762.676 42.7336 762.093 43.3164C761.51 43.8993 739.199 35.6422 739.15 35.7393C745.129 39.965 749.601 42.1993 756.163 46.1821C755.239 46.5706 742.456 50.8934 736.04 52.8848V65.5133C738.81 58.8591 742.018 53.9048 742.115 53.8077C742.261 53.9534 748.872 78.3845 744.011 87.3216C737.303 98.7357 745.324 104.953 744.546 110.781C744.449 113.453 743.72 116.027 741.629 118.067C734.727 124.235 734.63 130.792 738.859 135.65C738.859 135.698 738.907 135.747 738.907 135.795C743.865 135.018 752.274 134.435 760.683 136.718L762.628 146.238L769.287 139.827C773.321 142.012 779.3 146.529 783.432 150.075L781.536 159.401L790.139 156.049L808.464 170.912L997.105 174.895V-15Z" fill="#00DAB0"/>
<path d="M1054.06 62.9918C1048.87 57.511 1037.21 51.9581 1028.42 48.3523C1020.86 45.2514 1013.88 40.9244 1007.83 35.4437C992.282 21.6696 971.547 3.785 962.476 -0.325585C957.796 -2.48905 947.645 2.05422 938.933 5.87634C935.045 2.99172 931.373 0.467686 931.086 0.323455C929.79 -0.253469 906.535 -3.28232 905.311 -3.49867C880.688 -8.54675 874.496 2.4148 869.673 16.1889C869.529 16.6937 864.345 25.2754 856.929 37.9677C854.05 40.2033 853.402 61.6216 853.618 63.4966C853.546 64.2898 846.85 74.1697 844.834 87.0783C843.826 93.4245 838.138 97.9678 831.803 97.3187C826.619 96.8139 812.076 90.9726 810.348 90.3235C809.268 89.8908 808.116 90.3956 807.612 91.5495C807.18 92.5591 807.324 93.8572 808.044 94.7947C808.116 94.8668 808.188 94.9389 808.26 95.0831C817.547 110.66 833.027 116.718 848.866 115.564C849.514 122.559 847.21 129.915 844.114 136.261C839.938 144.771 827.555 143.545 825.107 134.386C825.107 134.314 825.107 134.314 825.035 134.242C823.451 128.112 816.251 119.314 815.316 118.665C814.884 118.376 806.172 118.304 805.452 118.376C796.812 119.314 806.532 114.338 806.316 112.679C806.748 113.328 807.684 114.843 811.788 114.41C815.028 114.049 813.948 109.867 813.588 108.857C812.94 107.126 804.516 106.694 803.364 106.405C802.14 106.189 796.668 111.886 795.949 112.463C793.357 114.554 799.836 120.251 801.06 120.9L801.204 120.973C807.252 124.362 811.644 130.131 813.3 136.838C818.051 156.525 831.731 162.8 844.402 162.8C876.152 162.8 881.408 136.117 888.968 120.756C896.743 124.506 903.943 124.146 910.351 119.53C917.406 141.958 910.135 200.444 910.063 202.175C909.991 203.833 914.022 226.91 914.31 228.208C914.526 229.074 914.526 230.083 914.31 230.877C914.022 231.886 911.359 236.502 911.215 236.934C924.246 236.934 959.308 236.862 959.812 236.79C959.884 236.141 951.172 216.309 951.1 214.939C951.028 213.064 954.412 154.362 954.412 154.362C954.988 154.795 975.003 172.319 975.867 172.607C976.083 174.266 960.172 214.795 960.316 215.949C960.46 217.102 973.851 222.295 973.851 236.934H1027.13C1027.27 235.276 1060.32 116.862 1060.82 115.564C1067.73 98.4726 1062.41 71.7899 1054.06 62.9918Z" fill="black"/>
<path d="M992.858 99.0498C992.858 99.0498 963.268 122.127 970.467 136.333C970.467 136.333 1000.49 169.362 989.114 188.329L975.003 211.478L985.371 222.439C988.97 226.261 990.554 229.362 989.69 234.194L1002.87 229.218V227.632C1002.87 221.141 998.978 215.084 992.426 211.55L1008.63 171.165C1008.63 171.165 983.211 127.247 995.738 103.305L992.858 99.0498Z" fill="#C3C2C6"/>
<path d="M1003.95 50.5883C998.69 47.1268 977.739 28.3047 965.86 17.5595C961.18 13.3046 954.7 11.8623 948.725 13.7373C948.869 13.8816 955.348 23.2566 955.276 25.9248C955.492 25.9248 951.316 29.2422 951.316 29.2422C946.277 25.8527 940.229 23.545 932.885 22.7518C932.813 22.7518 930.941 32.1989 928.926 35.8047L924.534 35.8768C920.79 32.4874 917.91 18.6412 917.262 17.0546C916.974 16.3335 901.999 9.19407 891.992 15.2518C881.336 21.67 879.248 34.0739 879.176 37.3191V37.3912C872.481 47.3431 876.656 43.8095 874.208 51.0931C874.208 51.0931 860.529 111.021 862.401 119.242C862.905 121.622 860.529 134.098 858.873 135.901L843.97 145.348C863.553 145.348 870.249 138.209 870.249 125.228C870.249 108.641 878.312 99.8432 882.776 96.2374C885.44 94.0739 888.032 91.7662 890.408 89.3143L900.199 79.2903L903.871 55.9249C904.663 50.9489 908.911 47.3431 913.878 47.3431C919.494 47.3431 924.03 51.8864 924.03 57.5114V59.8912H913.014L913.518 80.5883C924.894 83.2566 924.678 89.1701 924.678 89.1701L925.614 55.4201L938.069 36.1652C938.213 36.1652 938.285 36.0931 938.285 36.0931C939.437 39.1941 942.533 43.1604 941.669 46.7662C940.949 49.9393 932.741 60.3239 932.309 60.4681C934.469 76.3335 936.053 91.0451 938.285 107.632C961.036 108.353 979.611 91.6941 990.77 76.8383C992.138 74.9633 983.499 64.8672 985.515 62.5595C987.027 60.8287 996.314 69.0499 997.682 66.3095C1000.85 60.0354 1004.45 50.9489 1003.95 50.5883Z" fill="#C3C2C6"/>
<path d="M900.271 12.8721C882.992 12.8721 879.464 34.2182 878.456 37.3192C877.592 40.0596 867.585 49.5788 868.521 52.9683C869.097 55.2038 870.753 57.7279 870.753 59.2423C870.825 60.9731 866.361 62.9202 864.129 64.3625C862.545 67.5356 857.577 77.6317 859.233 82.3913C859.953 84.4827 862.761 85.2038 862.833 86.8625C862.977 88.5212 859.881 89.7471 858.657 92.1269C857.145 95.1558 859.017 111.67 859.881 119.242C861.177 130.42 843.898 145.276 843.898 145.276C845.554 145.276 847.066 145.204 848.506 145.132C858.585 142.103 865.713 132.8 865.713 121.983V100.06C865.713 92.5596 869.169 85.4923 875.144 80.8769L880.688 76.55C886.016 72.4394 889.112 66.1654 889.112 59.4586V42.1509C889.112 30.2519 898.759 20.5884 910.639 20.5884L900.271 12.8721Z" fill="white"/>
<path d="M917.046 93.3527C916.974 93.2084 916.902 93.1363 916.758 92.9921C910.711 85.9248 905.527 85.6363 901.423 92.2709C900.415 93.9296 899.119 95.2998 897.823 96.7421L897.391 97.2469C891.128 104.026 884.072 99.771 875.936 94.8671C874.856 94.2181 873.776 93.569 872.625 92.92C871.905 92.4873 871.401 92.9921 871.329 94.0738C871.257 95.0113 871.617 96.2373 872.193 97.1027C872.265 97.1748 872.337 97.319 872.409 97.3911C886.592 115.132 899.551 119.603 909.919 110.228C913.302 107.127 915.966 102.728 917.838 97.1027C917.982 96.5979 917.982 95.8767 917.766 95.0835C917.622 94.3623 917.334 93.7854 917.046 93.3527Z" fill="white"/>
<path d="M990.842 76.766C991.562 75.7564 959.452 100.708 947.069 94.867C938.285 90.7564 937.205 73.0881 940.229 66.4535C941.525 63.641 945.413 60.7564 946.133 57.7276C947.141 53.5449 942.317 44.0977 942.029 45.3958C941.309 48.5689 932.813 60.2516 932.381 60.3958C934.541 76.2612 936.125 90.9728 938.357 107.559C961.108 108.28 979.683 91.6218 990.842 76.766Z" fill="white"/>
<path d="M614.282 70.5195C610.201 70.5195 606.866 73.8058 606.866 77.8827C606.866 81.9596 610.176 85.2459 614.282 85.2459C618.389 85.2459 621.699 81.9596 621.699 77.8827C621.699 73.8058 618.364 70.5195 614.282 70.5195ZM614.282 81.8361C612.067 81.8361 610.275 80.0571 610.275 77.858C610.275 75.6589 612.067 73.8799 614.282 73.8799C616.497 73.8799 618.289 75.6589 618.289 77.858C618.289 80.0571 616.497 81.8361 614.282 81.8361Z" fill="#FDFEFE"/>
<path d="M687.224 85.2459C685.085 85.2459 683.319 84.5281 681.977 83.0926C680.708 81.7314 680.087 79.9741 680.087 77.8703C680.087 75.7666 680.733 74.0341 681.977 72.6728C683.319 71.2373 685.085 70.5195 687.224 70.5195C689.362 70.5195 691.128 71.2373 692.471 72.6728C693.739 74.0341 694.361 75.7913 694.361 77.8951C694.361 79.9988 693.714 81.7314 692.471 83.0926C691.128 84.5034 689.362 85.2459 687.224 85.2459ZM687.224 73.4153C685.955 73.4153 684.986 73.8361 684.264 74.7023C683.543 75.5438 683.195 76.5833 683.195 77.8703C683.195 79.1821 683.543 80.1968 684.264 81.0384C684.986 81.9046 685.955 82.3254 687.224 82.3254C688.492 82.3254 689.462 81.9046 690.183 81.0384C690.904 80.1968 691.252 79.1573 691.252 77.8703C691.252 76.5833 690.904 75.5438 690.183 74.7023C689.462 73.8361 688.492 73.4153 687.224 73.4153Z" fill="#FDFEFE"/>
<path d="M623.731 90.2246L626.414 84.2758L620.774 70.749H624.203L628.079 80.5732L632.03 70.749H635.434L627.135 90.2246H623.731Z" fill="#FDFEFE"/>
<path d="M641.227 85.2456C639.339 85.2456 637.8 84.751 636.657 83.7865C635.59 82.9209 634.994 81.7585 634.919 80.3488L634.894 79.7552H638.073L638.123 80.2499C638.222 81.2391 638.768 81.8821 639.811 82.2284C640.209 82.352 640.606 82.4015 641.003 82.4015C641.426 82.4015 641.823 82.3768 642.195 82.3273C642.543 82.2778 642.891 82.2036 643.214 82.08C644.008 81.7585 644.132 81.2886 644.132 80.8929C644.132 80.5219 644.008 80.2993 643.735 80.1015C643.363 79.8542 642.866 79.6316 642.27 79.4585C641.624 79.2853 640.929 79.1122 640.184 78.9638C639.389 78.8154 638.644 78.5929 637.949 78.3208C637.229 78.024 636.608 77.6283 636.111 77.109C635.59 76.5402 635.316 75.7735 635.316 74.8337C635.316 73.4487 635.838 72.3853 636.856 71.5939C637.825 70.8519 639.24 70.481 641.078 70.481C642.816 70.481 644.232 70.9261 645.275 71.767C646.169 72.5089 646.69 73.4982 646.814 74.71L646.889 75.3283H643.76L643.685 74.8337C643.611 74.1659 643.214 73.2756 640.929 73.2756C638.445 73.2756 638.445 74.2401 638.445 74.6111C638.445 74.9326 638.57 75.1799 638.843 75.3283C639.215 75.5756 639.712 75.7735 640.308 75.9219C640.954 76.095 641.649 76.2434 642.394 76.3918C643.189 76.5402 643.959 76.7627 644.629 77.0595C645.349 77.3563 645.97 77.7767 646.467 78.3208C646.988 78.8896 647.261 79.681 647.261 80.6456C647.261 82.1047 646.69 83.2671 645.573 84.0338C644.43 84.8746 642.99 85.2456 641.227 85.2456Z" fill="#FDFEFE"/>
<path d="M650.027 85.0159V73.5915H647.339V70.7231H650.027V66H653.163V70.7231H656.2V73.5915H653.163V85.0159H650.027Z" fill="#FDFEFE"/>
<path d="M657.24 85.0105V70.7174H660.355V72.3989C660.878 71.8301 661.526 71.3603 662.323 70.9894C662.971 70.6679 663.769 70.5195 664.691 70.5195H665.388V73.6106H664.591C663.32 73.6106 662.323 74.1052 661.526 75.1191C660.754 76.1082 660.38 77.2704 660.38 78.68V85.0352H657.24V85.0105Z" fill="#FDFEFE"/>
<path d="M672.511 85.2459C670.37 85.2459 668.577 84.5281 667.207 83.0926C665.887 81.7066 665.215 79.9493 665.215 77.8703C665.215 75.7913 665.863 74.0341 667.108 72.6728C668.452 71.2373 670.22 70.5195 672.362 70.5195C674.503 70.5195 676.271 71.2373 677.616 72.6728C678.886 74.0341 679.509 75.7913 679.509 77.8951V79.2563H668.502C668.701 80.0731 669.1 80.7413 669.672 81.2859C670.42 82.0036 671.341 82.3501 672.511 82.3501C674.08 82.3501 675.176 81.7314 675.848 80.4443L675.998 80.1473H679.334L679.036 80.9146C678.537 82.2016 677.741 83.2659 676.645 84.0579C675.599 84.8251 674.205 85.2459 672.511 85.2459ZM676.197 76.2616C675.998 75.5191 675.624 74.9003 675.076 74.4053C674.354 73.7371 673.458 73.4153 672.387 73.4153C671.291 73.4153 670.42 73.7371 669.697 74.4053C669.15 74.9003 668.801 75.5191 668.577 76.2616H676.197Z" fill="#FDFEFE"/>
<path d="M714.285 85.0161V76.57C714.285 75.6069 714.037 74.866 713.49 74.2486C712.967 73.7053 712.345 73.4337 711.549 73.4337C710.679 73.4337 709.982 73.7053 709.435 74.2486C708.838 74.8166 708.54 75.5822 708.54 76.5947V85.0161H705.431V76.57C705.431 75.6069 705.182 74.866 704.635 74.2486C704.113 73.7053 703.491 73.4337 702.695 73.4337C701.824 73.4337 701.128 73.7053 700.581 74.2486C699.984 74.8166 699.685 75.5822 699.685 76.5947V85.0161H696.576V70.7418H699.685V71.7296C700.606 70.9394 701.75 70.5195 703.143 70.5195C704.137 70.5195 705.058 70.7912 705.903 71.3098C706.475 71.6802 706.973 72.1248 707.396 72.6928C708.042 71.8778 708.913 71.2604 709.982 70.8406C710.555 70.6183 711.201 70.5195 711.923 70.5195C712.644 70.5195 713.34 70.6677 714.012 70.9394C714.659 71.211 715.255 71.6309 715.778 72.1495C716.872 73.3102 717.419 74.7672 717.419 76.496V85.0161H714.285Z" fill="#FDFEFE"/>
<path d="M656.18 70.7686H647.3V73.507H656.18V70.7686Z" fill="#FDFEFE"/>
<path d="M605.55 70.749H597.581V73.5157H602.462V84.879C602.462 85.793 601.889 86.6082 601.042 86.9293L599.075 87.6951L599.922 90.6842L602.885 89.5478C603.882 89.1526 604.703 88.4115 605.177 87.4234C605.451 86.8552 605.575 86.2624 605.575 85.6201V70.749H605.55Z" fill="#FDFEFE"/>
<path d="M694.342 70.7686H691.279V84.997H694.342V70.7686Z" fill="#FDFEFE"/>
<path d="M649.296 101V92H650.646V101H649.296ZM649.296 89.966V88.4H650.646V89.966H649.296ZM656.06 93.026C654.752 93.026 654.098 93.482 654.098 94.394C654.098 94.814 654.248 95.114 654.548 95.294C654.848 95.462 655.532 95.642 656.6 95.834C657.668 96.014 658.424 96.272 658.868 96.608C659.312 96.944 659.534 97.574 659.534 98.498C659.534 99.422 659.234 100.1 658.634 100.532C658.046 100.964 657.182 101.18 656.042 101.18C655.298 101.18 654.422 101.096 653.414 100.928L652.874 100.838L652.946 99.668C654.314 99.872 655.346 99.974 656.042 99.974C656.738 99.974 657.266 99.866 657.626 99.65C657.998 99.422 658.184 99.05 658.184 98.534C658.184 98.006 658.028 97.652 657.716 97.472C657.404 97.28 656.72 97.1 655.664 96.932C654.608 96.764 653.858 96.518 653.414 96.194C652.97 95.87 652.748 95.27 652.748 94.394C652.748 93.518 653.054 92.87 653.666 92.45C654.29 92.03 655.064 91.82 655.988 91.82C656.72 91.82 657.638 91.904 658.742 92.072L659.246 92.162L659.21 93.314C657.878 93.122 656.828 93.026 656.06 93.026ZM668.922 91.82C669.318 91.82 669.99 91.892 670.938 92.036L671.37 92.09L671.316 93.188C670.356 93.08 669.648 93.026 669.192 93.026C668.172 93.026 667.476 93.272 667.104 93.764C666.744 94.244 666.564 95.144 666.564 96.464C666.564 97.772 666.732 98.684 667.068 99.2C667.416 99.716 668.13 99.974 669.21 99.974L671.334 99.812L671.388 100.928C670.272 101.096 669.438 101.18 668.886 101.18C667.482 101.18 666.51 100.82 665.97 100.1C665.442 99.38 665.178 98.168 665.178 96.464C665.178 94.748 665.466 93.548 666.042 92.864C666.618 92.168 667.578 91.82 668.922 91.82ZM672.894 96.482C672.894 94.838 673.188 93.65 673.776 92.918C674.364 92.186 675.354 91.82 676.746 91.82C678.15 91.82 679.14 92.186 679.716 92.918C680.304 93.65 680.598 94.838 680.598 96.482C680.598 98.126 680.322 99.32 679.77 100.064C679.218 100.808 678.21 101.18 676.746 101.18C675.282 101.18 674.274 100.808 673.722 100.064C673.17 99.32 672.894 98.126 672.894 96.482ZM674.28 96.464C674.28 97.772 674.436 98.69 674.748 99.218C675.072 99.746 675.738 100.01 676.746 100.01C677.766 100.01 678.432 99.752 678.744 99.236C679.056 98.708 679.212 97.784 679.212 96.464C679.212 95.144 679.038 94.238 678.69 93.746C678.342 93.242 677.694 92.99 676.746 92.99C675.81 92.99 675.162 93.242 674.802 93.746C674.454 94.238 674.28 95.144 674.28 96.464ZM684.15 101H682.8V92H684.132V92.63C685.032 92.09 685.908 91.82 686.76 91.82C687.876 91.82 688.656 92.126 689.1 92.738C689.496 92.498 690.006 92.288 690.63 92.108C691.266 91.916 691.824 91.82 692.304 91.82C693.504 91.82 694.308 92.144 694.716 92.792C695.136 93.428 695.346 94.58 695.346 96.248V101H693.996V96.284C693.996 95.036 693.876 94.184 693.636 93.728C693.396 93.26 692.886 93.026 692.106 93.026C691.71 93.026 691.302 93.086 690.882 93.206C690.462 93.314 690.138 93.422 689.91 93.53L689.568 93.692C689.724 94.088 689.802 94.964 689.802 96.32V101H688.452V96.356C688.452 95.06 688.332 94.184 688.092 93.728C687.864 93.26 687.354 93.026 686.562 93.026C686.178 93.026 685.782 93.086 685.374 93.206C684.978 93.314 684.672 93.422 684.456 93.53L684.15 93.692V101ZM697.847 101V92H699.197V101H697.847ZM697.847 89.966V88.4H699.197V89.966H697.847ZM703.134 101H701.784V92H703.116V92.63C704.088 92.09 705.018 91.82 705.906 91.82C707.106 91.82 707.91 92.144 708.318 92.792C708.738 93.44 708.948 94.592 708.948 96.248V101H707.616V96.284C707.616 95.036 707.49 94.184 707.238 93.728C706.998 93.26 706.476 93.026 705.672 93.026C705.288 93.026 704.88 93.086 704.448 93.206C704.028 93.314 703.704 93.422 703.476 93.53L703.134 93.692V101ZM714.926 105.23C713.486 105.23 712.478 105.032 711.902 104.636C711.338 104.252 711.056 103.544 711.056 102.512C711.056 102.02 711.164 101.618 711.38 101.306C711.596 101.006 711.962 100.664 712.478 100.28C712.142 100.052 711.974 99.638 711.974 99.038C711.974 98.834 712.124 98.456 712.424 97.904L712.586 97.616C711.638 97.184 711.164 96.278 711.164 94.898C711.164 92.846 712.286 91.82 714.53 91.82C715.106 91.82 715.64 91.88 716.132 92L716.402 92.054L719.066 91.982V93.134L717.356 93.098C717.752 93.494 717.95 94.094 717.95 94.898C717.95 96.026 717.668 96.818 717.104 97.274C716.552 97.718 715.676 97.94 714.476 97.94C714.152 97.94 713.858 97.916 713.594 97.868C713.378 98.396 713.27 98.738 713.27 98.894C713.27 99.266 713.384 99.5 713.612 99.596C713.84 99.68 714.53 99.722 715.682 99.722C716.834 99.722 717.662 99.902 718.166 100.262C718.67 100.622 718.922 101.324 718.922 102.368C718.922 104.276 717.59 105.23 714.926 105.23ZM712.388 102.404C712.388 103.04 712.562 103.478 712.91 103.718C713.27 103.97 713.924 104.096 714.872 104.096C715.832 104.096 716.516 103.964 716.924 103.7C717.344 103.436 717.554 102.992 717.554 102.368C717.554 101.756 717.404 101.36 717.104 101.18C716.804 101 716.216 100.91 715.34 100.91L713.396 100.82C713 101.108 712.73 101.36 712.586 101.576C712.454 101.792 712.388 102.068 712.388 102.404ZM712.514 94.898C712.514 95.606 712.67 96.11 712.982 96.41C713.306 96.71 713.834 96.86 714.566 96.86C715.298 96.86 715.82 96.71 716.132 96.41C716.444 96.11 716.6 95.606 716.6 94.898C716.6 94.178 716.444 93.668 716.132 93.368C715.82 93.068 715.298 92.918 714.566 92.918C713.834 92.918 713.306 93.074 712.982 93.386C712.67 93.686 712.514 94.19 712.514 94.898Z" fill="#00DAB0"/>
<path d="M604.65 57.718V62.326C604.686 62.77 605.034 63.034 605.694 63.118L605.64 64.18C604.692 64.18 603.978 63.94 603.498 63.46C602.418 63.94 601.338 64.18 600.258 64.18C599.43 64.18 598.8 63.946 598.368 63.478C597.936 63.01 597.72 62.338 597.72 61.462C597.72 60.586 597.942 59.944 598.386 59.536C598.83 59.116 599.526 58.858 600.474 58.762L603.3 58.492V57.718C603.3 57.106 603.168 56.668 602.904 56.404C602.64 56.14 602.28 56.008 601.824 56.008C600.864 56.008 599.868 56.068 598.836 56.188L598.278 56.242L598.224 55.216C599.544 54.952 600.714 54.82 601.734 54.82C602.754 54.82 603.492 55.054 603.948 55.522C604.416 55.99 604.65 56.722 604.65 57.718ZM599.106 61.39C599.106 62.494 599.562 63.046 600.474 63.046C601.29 63.046 602.094 62.908 602.886 62.632L603.3 62.488V59.518L600.636 59.77C600.096 59.818 599.706 59.974 599.466 60.238C599.226 60.502 599.106 60.886 599.106 61.39ZM612.619 64H611.269V55H612.601V55.63C613.573 55.09 614.503 54.82 615.391 54.82C616.591 54.82 617.395 55.144 617.803 55.792C618.223 56.44 618.433 57.592 618.433 59.248V64H617.101V59.284C617.101 58.036 616.975 57.184 616.723 56.728C616.483 56.26 615.961 56.026 615.157 56.026C614.773 56.026 614.365 56.086 613.933 56.206C613.513 56.314 613.189 56.422 612.961 56.53L612.619 56.692V64ZM627.057 62.884L627.579 62.83L627.615 63.892C626.247 64.084 625.077 64.18 624.105 64.18C622.809 64.18 621.891 63.808 621.351 63.064C620.811 62.308 620.541 61.138 620.541 59.554C620.541 56.398 621.795 54.82 624.303 54.82C625.515 54.82 626.421 55.162 627.021 55.846C627.621 56.518 627.921 57.58 627.921 59.032L627.849 60.058H621.909C621.909 61.054 622.089 61.792 622.449 62.272C622.809 62.752 623.433 62.992 624.321 62.992C625.221 62.992 626.133 62.956 627.057 62.884ZM626.571 58.978C626.571 57.874 626.391 57.094 626.031 56.638C625.683 56.182 625.107 55.954 624.303 55.954C623.511 55.954 622.911 56.194 622.503 56.674C622.107 57.154 621.903 57.922 621.891 58.978H626.571ZM629.199 55H630.549L632.367 62.83H632.655L634.797 55.18H636.201L638.343 62.83H638.649L640.449 55H641.799L639.657 64H637.407L635.499 56.962L633.591 64H631.341L629.199 55Z" fill="#00DAB0"/>
</g>
<defs>
<clipPath id="clip0">
<rect width="1800" height="144" fill="white"/>
</clipPath>
</defs>
</svg>
