<svg xmlns="http://www.w3.org/2000/svg" viewBox="0 0 882 300"><title>illustrations</title><g id="Layer_4" data-name="Layer 4"><rect width="882" height="209" rx="6"/><text transform="translate(60 100.61)" font-size="48" fill="#fff" font-family="TitilliumWeb-Regular, Titillium Web">Design</text><text transform="translate(60 144.92)" font-size="18" fill="#c4c3c6" font-family="TitilliumWeb-Regular, Titillium Web">Our <tspan x="31.63" y="0" letter-spacing="-0.01em">s</tspan><tspan x="39.85" y="0" letter-spacing="-0.01em">y</tspan><tspan x="48.42" y="0">stems </tspan><tspan x="99.58" y="0" letter-spacing="-0.01em">f</tspan><tspan x="105.37" y="0">or building, writing and </tspan><tspan x="281.73" y="0" letter-spacing="-0.01em">c</tspan><tspan x="289.47" y="0">ommunicating</tspan></text></g><g id="Layer_1" data-name="Layer 1"><g id="Creator"><g id="Group-25"><g id="Group-18"><path d="M590.7,70.61c-11.9,0-23,8.91-29.11,21.44a46,46,0,0,0,.7,42c6.6,12.45,9.24,23.62,8.21,29.87a18.78,18.78,0,0,0-1.7,7.51,14.2,14.2,0,0,0,4,10c1.56,18.08,10.08,37.52,22.36,51.26a17,17,0,0,0-1.27,7,16.58,16.58,0,0,0,6.34,12.36,29.12,29.12,0,0,0,10,5.12c6.62,2,15.1,2.9,24.21,2.56s17.52-1.84,24-4.39a29.28,29.28,0,0,0,9.68-5.86,16.52,16.52,0,0,0,3.82-19.7c12.17-15.67,19.62-37.51,19-56.63-.65-20.22-10.61-38.69-30.23-48.52a1.06,1.06,0,0,1,0-.19,4.91,4.91,0,0,1-.1-1.2,32.13,32.13,0,0,1,4.76-6.75,68.91,68.91,0,0,1,6.12-5.91c1.63-1.43,2.14-1.89,2.85-2.61a16.92,16.92,0,0,0,1.83-2.15,11.06,11.06,0,0,0,2.22-7.2,14.05,14.05,0,0,0-4.12-9.47,19.92,19.92,0,0,0-6-4.12,48,48,0,0,0-12.27-3.38,147.83,147.83,0,0,0-27.25-1.36,90.84,90.84,0,0,0-13.61,1.49C610.62,75,602.2,70.58,590.7,70.61Z"/><path id="Shape" d="M667.2,99.25c-5.09,2.27-15.26,3.73-27.16,4-17.14.34-30.79-2-30.85-6.22,0-1.17,1-2.23,2.87-3.17a36.17,36.17,0,0,0-4.46,1.56c.24-6.07-3.26-13.72-17.07-13.69-14.39,0-30.61,24.75-18.65,47.27,8.53,16.08,11,30,9,38.43q-2.4,4.74,0,6.73a2.73,2.73,0,0,0,2.53.6c0,.87,0,1.72,0,2.56.62,19.14,11.14,41.74,26.07,54.18-3.07,2.58-4.82,5.38-4.74,7.85.21,6.53,13.3,10.13,29.27,9.53s28.79-5.15,28.57-11.68q-.08-2.34-7.78-2.95-5.4-.35-16,.09c-10.61.43-15.24-.44-20.79-2.63,12.48,1.59,27.19-8,39.76-19.52,22.2-20.41,22.09-37.6,22.06-38.46-.44-13.48-6.47-30.54-24.89-39.45-6-2.93-6.14-11.87-4.77-14.78,5.54-11.76,17-18.53,17-20.21Zm-72,6.8a11.41,11.41,0,0,0,5.71-1c1.21,2.67,3.94,7.45,8.47,15.53,1.56,2.78,2.06,11.66-3.82,15a43,43,0,0,0-17.8,18.76Q586,142.19,578,125.56c-4.84-10.08-1.75-20.13.54-24.4s7.61-10.66,13.87-11.63c4.07-.64,7.69,3,7,6.36-.7,3.6-6.76,5.68-8.2,3a2.52,2.52,0,0,1-.34-1.72,3.47,3.47,0,0,0,1.89,1.31q3.57-1.09,3.85-2.55A2.93,2.93,0,0,0,593,92.56c-3,.59-5.31,2.82-7.71,5.25A11.19,11.19,0,0,0,595.25,106.05Z" fill="#c4c3c6" fill-rule="evenodd"/><g id="Group-28"><path d="M620.52,162.76c.13-6.45-6-8.27-12.53-6.61-3.36.91-6.23,2.48-6.64,5.67a4.13,4.13,0,0,0,2.23,4.87,9.29,9.29,0,0,0,8.42.18,3.59,3.59,0,0,0,1.8-1.29,22,22,0,0,1-6.19-1.35c-2.58-1.24-2.76-3.47-.32-5.15a8.25,8.25,0,0,1,8.28-.24,5.06,5.06,0,0,1,2.54,3.16,5,5,0,0,1-.59,4,11.71,11.71,0,0,1-10,5.07,9.27,9.27,0,0,1-9.06-5.42c-1.13-2.39-2.4-7.64,4.6-11.08,4.22-2.46,14.1-2.2,17.83.27,3.29,2.25,4.72,5.09,3.61,8.77a14.36,14.36,0,0,1-4,5.52,15.27,15.27,0,0,1-1.93,1.46,1,1,0,0,0-.24-.15A15.86,15.86,0,0,0,620.52,162.76Z"/><path id="Path-Copy-25" d="M630,166.78c-.14,6.18,5.79,7.91,12,6.31,3.22-.88,6-2.39,6.37-5.45a3.93,3.93,0,0,0-2.12-4.65,8.92,8.92,0,0,0-8.08-.16,3.47,3.47,0,0,0-1.73,1.24,21.24,21.24,0,0,1,5.94,1.28c2.47,1.18,2.64,3.32.3,4.94a8,8,0,0,1-7.94.24,4.83,4.83,0,0,1-1.86-6.85,11.25,11.25,0,0,1,9.63-4.87,8.85,8.85,0,0,1,8.68,5.18c1.08,2.28,2.28,7.31-4.43,10.62-4,2.36-13.52,2.13-17.09-.23-3.15-2.15-4.51-4.87-3.45-8.39a13.64,13.64,0,0,1,3.89-5.3,15.84,15.84,0,0,1,1.85-1.41,1.14,1.14,0,0,0,.23.15A15.39,15.39,0,0,0,630,166.78Z"/><path id="Path-Copy-26" d="M677,170.86c1.06-6.34-4.77-9.4-11.38-9.08-3.44.21-6.49,1.18-7.35,4.24a4.35,4.35,0,0,0,1.5,5.26,9.47,9.47,0,0,0,8.26,1.9,3.42,3.42,0,0,0,2-.9,23.9,23.9,0,0,1-5.91-2.6c-2.36-1.75-2.22-4,.43-5.16a8.33,8.33,0,0,1,8.18,1.46,5.49,5.49,0,0,1,2,3.63,4.89,4.89,0,0,1-1.15,3.83A11,11,0,0,1,663,176.39a10,10,0,0,1-8.14-7.2c-.77-2.58-1.26-8,6.12-10,4.5-1.57,14.18.71,17.5,3.91,2.92,2.89,3.92,6,2.3,9.39a13,13,0,0,1-4.77,4.63,13.83,13.83,0,0,1-2.11,1,1,1,0,0,0-.21-.2A15,15,0,0,0,677,170.86Z"/></g><path d="M645.68,91.61c-1.94-.07-3.94-.1-6-.08a107.55,107.55,0,0,0-19.81,1.75A25.76,25.76,0,0,0,614.24,95c-1,.49-1.42.89-1.41,1.12s.43.63,1.48,1.1A25.83,25.83,0,0,0,620,98.84c5.23,1,8.56.79,16.14.74s4.14-3.4,9.31-4.46C647.94,94.61,654.47,92.39,645.68,91.61Z" fill="#fff" fill-rule="evenodd"/><path d="M657.13,132.17c-6.12-3.08-3.48-8-2.16-10.95,1.52-3.37,7.82-16,9.93-18.54-26.16,19.11-42.81,16.76-42.27,23S640,127.42,658,136C657.27,135.6,657.85,132.54,657.13,132.17Z" fill-rule="evenodd"/><path d="M609.84,233.5c-10.08,9.31,11.92,14,24.48,13.2,15.67-.95,28.35-5.69,28.29-12,0-1.52,2,2.71-17.94,5.18S614.75,241.24,609.84,233.5Z" fill="#fff" fill-rule="evenodd"/><path id="Path-Copy-11" d="M634.28,139.08c-23.24-7.6-45.42,14.17-44.74,33.81.84,24.49,8.79,33.83,16.49,48.81.38.75,7.24,4.07,6.53,1-1-4.46-10.07-18.07-11.9-36.4C597.58,155.47,621.62,148.46,634.28,139.08Z" fill="#fff" fill-rule="evenodd"/><path d="M613.09,91.18c-2.22.94-3.1-1.22-5.1-.2.39.44-.24,2.83-.38,3.79-.83,5.38-3.61,6.92-6,8.8s-5,2.52-8.47,2.65c1.52.35,2.65,1.78,4.72,1.38,11.05-2.11,21.65-13.12,20.15-18.37C616.42,89.81,614.76,90.46,613.09,91.18Z"/></g></g></g></g></svg>