<?xml version="1.0" encoding="utf-8"?>
<!-- Generator: Adobe Illustrator 23.0.2, SVG Export Plug-In . SVG Version: 6.00 Build 0)  -->
<svg version="1.1" xmlns="http://www.w3.org/2000/svg" xmlns:xlink="http://www.w3.org/1999/xlink" x="0px" y="0px"
	 viewBox="0 0 882 300" style="enable-background:new 0 0 882 300;" xml:space="preserve">
<style type="text/css">
	.st0{fill:#C4C3C6;}
	.st1{fill:#FFFFFF;}
	.st2{fill-rule:evenodd;clip-rule:evenodd;}
	.st3{fill-rule:evenodd;clip-rule:evenodd;fill:#C4C3C6;}
	.st4{fill-rule:evenodd;clip-rule:evenodd;fill:#FFFFFF;}
	.st5{fill:#010101;}
	.st6{fill:none;}
	.st7{fill-rule:evenodd;clip-rule:evenodd;fill:#B1B2B7;}
	.st8{fill-rule:evenodd;clip-rule:evenodd;fill:#FDFDFD;}
	.st9{fill-rule:evenodd;clip-rule:evenodd;fill:#F9F9F9;}
</style>
<g id="Layer_4">
	<path d="M876,209H6c-3.3,0-6-2.7-6-6V6c0-3.3,2.7-6,6-6h870c3.3,0,6,2.7,6,6v197C882,206.3,879.3,209,876,209z"/>
	<g>
		<path class="st1" d="M75.9,100.6H64.1V67.4h11.9c5.4,0,9,2.1,10.8,6.4c1,2.5,1.5,5.7,1.5,9.7c0,8.4-2.1,13.6-6.2,15.8
			C80.3,100.2,78.3,100.6,75.9,100.6z M84.4,83.5c0-6.4-1.4-10.3-4.3-11.9c-1.2-0.6-2.6-1-4.2-1h-8.2v26.7h8.2
			C81.6,97.3,84.4,92.7,84.4,83.5z"/>
		<path class="st1" d="M110.7,97.6l1.4-0.1l0.1,2.8c-3.6,0.5-6.8,0.8-9.4,0.8c-3.5,0-5.9-1-7.3-3c-1.4-2-2.2-5.1-2.2-9.3
			c0-8.4,3.3-12.6,10-12.6c3.2,0,5.6,0.9,7.2,2.7c1.6,1.8,2.4,4.6,2.4,8.5l-0.2,2.7H97c0,2.7,0.5,4.6,1.4,5.9c1,1.3,2.6,1.9,5,1.9
			S108.3,97.8,110.7,97.6z M109.4,87.2c0-2.9-0.5-5-1.4-6.2c-0.9-1.2-2.5-1.8-4.6-1.8s-3.7,0.6-4.8,1.9c-1.1,1.3-1.6,3.3-1.7,6.1
			H109.4z"/>
		<path class="st1" d="M126.2,79.3c-3.5,0-5.2,1.2-5.2,3.6c0,1.1,0.4,1.9,1.2,2.4c0.8,0.5,2.6,0.9,5.5,1.4c2.8,0.5,4.9,1.2,6,2.1
			c1.2,0.9,1.8,2.6,1.8,5c0,2.5-0.8,4.3-2.4,5.4s-3.9,1.7-6.9,1.7c-2,0-4.3-0.2-7-0.7l-1.4-0.2l0.2-3.1c3.6,0.5,6.4,0.8,8.3,0.8
			s3.3-0.3,4.2-0.9c1-0.6,1.5-1.6,1.5-3c0-1.4-0.4-2.3-1.2-2.8c-0.8-0.5-2.7-1-5.5-1.4c-2.8-0.4-4.8-1.1-6-2
			c-1.2-0.9-1.8-2.5-1.8-4.8c0-2.3,0.8-4.1,2.5-5.2c1.6-1.1,3.7-1.7,6.2-1.7c2,0,4.4,0.2,7.3,0.7l1.3,0.2l-0.1,3.1
			C131,79.6,128.2,79.3,126.2,79.3z"/>
		<path class="st1" d="M141,71.2V67h3.6v4.2H141z M141,100.6v-24h3.6v24H141z"/>
		<path class="st1" d="M160.8,111.9c-3.8,0-6.5-0.5-8-1.6c-1.5-1-2.3-2.9-2.3-5.7c0-1.3,0.3-2.4,0.9-3.2c0.6-0.8,1.6-1.7,2.9-2.8
			c-0.9-0.6-1.3-1.7-1.3-3.3c0-0.5,0.4-1.6,1.2-3l0.4-0.8c-2.5-1.2-3.8-3.6-3.8-7.2c0-5.5,3-8.2,9-8.2c1.5,0,3,0.2,4.3,0.5l0.7,0.1
			l7.1-0.2v3.1l-4.6-0.1c1.1,1.1,1.6,2.7,1.6,4.8c0,3-0.7,5.1-2.2,6.3c-1.5,1.2-3.8,1.8-7,1.8c-0.9,0-1.6-0.1-2.4-0.2
			c-0.6,1.4-0.9,2.3-0.9,2.7c0,1,0.3,1.6,0.9,1.8c0.6,0.2,2.4,0.4,5.5,0.4s5.3,0.5,6.6,1.4s2,2.8,2,5.6
			C171.4,109.3,167.9,111.9,160.8,111.9z M154,104.4c0,1.7,0.5,2.9,1.4,3.5c0.9,0.7,2.7,1,5.2,1s4.4-0.4,5.5-1.1
			c1.1-0.7,1.7-1.9,1.7-3.5c0-1.6-0.4-2.7-1.2-3.2c-0.8-0.5-2.4-0.7-4.7-0.7l-5.2-0.2c-1.1,0.8-1.8,1.4-2.1,2S154,103.5,154,104.4z
			 M154.3,84.3c0,1.9,0.4,3.2,1.3,4c0.8,0.8,2.2,1.2,4.2,1.2s3.3-0.4,4.2-1.2c0.8-0.8,1.2-2.2,1.2-4.1c0-1.9-0.4-3.3-1.2-4.1
			c-0.8-0.8-2.2-1.2-4.2-1.2s-3.4,0.4-4.2,1.2C154.7,81.1,154.3,82.4,154.3,84.3z"/>
		<path class="st1" d="M179.8,100.6h-3.6v-24h3.6v1.7c2.6-1.4,5.1-2.2,7.4-2.2c3.2,0,5.4,0.9,6.5,2.6c1.1,1.7,1.7,4.8,1.7,9.2v12.7
			h-3.6V88c0-3.3-0.3-5.6-1-6.8c-0.7-1.2-2.1-1.8-4.2-1.8c-1,0-2.1,0.2-3.2,0.5c-1.1,0.3-2,0.6-2.6,0.9l-0.9,0.4V100.6z"/>
	</g>
	<g>
		<path class="st0" d="M70.9,138.8c0,2.2-0.4,3.8-1.1,4.8c-0.7,1-2,1.5-3.9,1.5c-1.9,0-3.2-0.5-3.9-1.5c-0.7-1-1.1-2.6-1.1-4.8
			c0-2.2,0.4-3.8,1.1-4.9c0.7-1.1,2-1.6,3.8-1.6s3.1,0.5,3.8,1.6C70.5,134.9,70.9,136.6,70.9,138.8z M62.4,138.8
			c0,1.8,0.2,3.1,0.7,3.9c0.5,0.8,1.4,1.2,2.8,1.2c1.4,0,2.3-0.4,2.8-1.2c0.5-0.8,0.7-2.1,0.7-3.9s-0.2-3.2-0.7-4
			c-0.5-0.8-1.4-1.3-2.8-1.3c-1.4,0-2.3,0.4-2.8,1.3C62.7,135.6,62.4,136.9,62.4,138.8z"/>
		<path class="st0" d="M78.8,135.9h1.4v9h-1.4v-0.6c-0.9,0.5-1.8,0.8-2.7,0.8c-1.2,0-2-0.3-2.4-1c-0.4-0.6-0.6-1.8-0.6-3.5v-4.7h1.4
			v4.7c0,1.3,0.1,2.2,0.3,2.6c0.2,0.4,0.7,0.7,1.5,0.7c0.4,0,0.8-0.1,1.2-0.2c0.4-0.1,0.7-0.2,0.9-0.3l0.3-0.2V135.9z"/>
		<path class="st0" d="M82.7,144.9v-9h1.3v1.2c1-0.7,2.1-1.2,3.3-1.4v1.4c-0.5,0.1-1,0.2-1.6,0.5c-0.5,0.2-1,0.4-1.3,0.5l-0.5,0.2
			v6.6H82.7z"/>
		<path class="st0" d="M95.7,137c-1.3,0-2,0.5-2,1.4c0,0.4,0.1,0.7,0.4,0.9s1,0.4,2.1,0.5c1.1,0.2,1.8,0.4,2.3,0.8
			c0.4,0.3,0.7,1,0.7,1.9s-0.3,1.6-0.9,2c-0.6,0.4-1.5,0.6-2.6,0.6c-0.7,0-1.6-0.1-2.6-0.3l-0.5-0.1l0.1-1.2
			c1.4,0.2,2.4,0.3,3.1,0.3c0.7,0,1.2-0.1,1.6-0.3c0.4-0.2,0.5-0.6,0.5-1.1c0-0.5-0.2-0.9-0.5-1.1c-0.3-0.2-1-0.4-2.1-0.5
			c-1.1-0.2-1.8-0.4-2.2-0.7c-0.4-0.3-0.7-0.9-0.7-1.8c0-0.9,0.3-1.5,0.9-1.9s1.4-0.6,2.3-0.6c0.7,0,1.6,0.1,2.8,0.3l0.5,0.1l0,1.2
			C97.6,137,96.5,137,95.7,137z"/>
		<path class="st0" d="M100.3,135.9h1.3l2.2,7.8h0.6l2.3-7.8h1.4l-3.7,13H103l1.2-4h-1.3L100.3,135.9z"/>
		<path class="st0" d="M112.5,137c-1.3,0-2,0.5-2,1.4c0,0.4,0.1,0.7,0.4,0.9s1,0.4,2.1,0.5c1.1,0.2,1.8,0.4,2.3,0.8
			c0.4,0.3,0.7,1,0.7,1.9s-0.3,1.6-0.9,2c-0.6,0.4-1.5,0.6-2.6,0.6c-0.7,0-1.6-0.1-2.6-0.3l-0.5-0.1l0.1-1.2
			c1.4,0.2,2.4,0.3,3.1,0.3c0.7,0,1.2-0.1,1.6-0.3c0.4-0.2,0.5-0.6,0.5-1.1c0-0.5-0.2-0.9-0.5-1.1c-0.3-0.2-1-0.4-2.1-0.5
			c-1.1-0.2-1.8-0.4-2.2-0.7c-0.4-0.3-0.7-0.9-0.7-1.8c0-0.9,0.3-1.5,0.9-1.9s1.4-0.6,2.3-0.6c0.7,0,1.6,0.1,2.8,0.3l0.5,0.1l0,1.2
			C114.4,137,113.3,137,112.5,137z"/>
		<path class="st0" d="M122.7,137.1h-2.9v4.3c0,1,0.1,1.7,0.2,2s0.5,0.5,1.1,0.5l1.6-0.1l0.1,1.1c-0.8,0.1-1.4,0.2-1.8,0.2
			c-0.9,0-1.6-0.2-1.9-0.7c-0.4-0.5-0.5-1.3-0.5-2.6v-4.7h-1.3v-1.2h1.3v-2.8h1.3v2.8h2.9V137.1z"/>
		<path class="st0" d="M130.5,143.8l0.5-0.1l0,1.1c-1.4,0.2-2.5,0.3-3.5,0.3c-1.3,0-2.2-0.4-2.8-1.1c-0.5-0.7-0.8-1.9-0.8-3.5
			c0-3.2,1.3-4.7,3.8-4.7c1.2,0,2.1,0.3,2.7,1s0.9,1.7,0.9,3.2l-0.1,1h-5.9c0,1,0.2,1.7,0.5,2.2c0.4,0.5,1,0.7,1.9,0.7
			S129.6,143.9,130.5,143.8z M130,139.9c0-1.1-0.2-1.9-0.5-2.3s-0.9-0.7-1.7-0.7s-1.4,0.2-1.8,0.7c-0.4,0.5-0.6,1.2-0.6,2.3H130z"/>
		<path class="st0" d="M134.8,144.9h-1.4v-9h1.3v0.6c0.9-0.5,1.8-0.8,2.6-0.8c1.1,0,1.9,0.3,2.3,0.9c0.4-0.2,0.9-0.5,1.5-0.6
			c0.6-0.2,1.2-0.3,1.7-0.3c1.2,0,2,0.3,2.4,1c0.4,0.6,0.6,1.8,0.6,3.5v4.8h-1.3v-4.7c0-1.2-0.1-2.1-0.4-2.6s-0.8-0.7-1.5-0.7
			c-0.4,0-0.8,0.1-1.2,0.2s-0.7,0.2-1,0.3l-0.3,0.2c0.2,0.4,0.2,1.3,0.2,2.6v4.7h-1.3v-4.6c0-1.3-0.1-2.2-0.4-2.6
			c-0.2-0.5-0.7-0.7-1.5-0.7c-0.4,0-0.8,0.1-1.2,0.2s-0.7,0.2-0.9,0.3l-0.3,0.2V144.9z"/>
		<path class="st0" d="M151.4,137c-1.3,0-2,0.5-2,1.4c0,0.4,0.1,0.7,0.4,0.9s1,0.4,2.1,0.5c1.1,0.2,1.8,0.4,2.3,0.8
			c0.4,0.3,0.7,1,0.7,1.9s-0.3,1.6-0.9,2c-0.6,0.4-1.5,0.6-2.6,0.6c-0.7,0-1.6-0.1-2.6-0.3l-0.5-0.1l0.1-1.2
			c1.4,0.2,2.4,0.3,3.1,0.3c0.7,0,1.2-0.1,1.6-0.3c0.4-0.2,0.5-0.6,0.5-1.1c0-0.5-0.2-0.9-0.5-1.1c-0.3-0.2-1-0.4-2.1-0.5
			c-1.1-0.2-1.8-0.4-2.2-0.7c-0.4-0.3-0.7-0.9-0.7-1.8c0-0.9,0.3-1.5,0.9-1.9s1.4-0.6,2.3-0.6c0.7,0,1.6,0.1,2.8,0.3l0.5,0.1l0,1.2
			C153.2,137,152.1,137,151.4,137z"/>
		<path class="st0" d="M162.6,137.1v7.8h-1.4v-7.8h-1.1v-1.2h1.1v-0.8c0-1.3,0.2-2.1,0.5-2.6c0.4-0.5,1-0.7,1.9-0.7l1.8,0.1l0,1.1
			c-0.7,0-1.2,0-1.7,0s-0.8,0.1-0.9,0.4c-0.2,0.3-0.3,0.8-0.3,1.7v0.8h2.6v1.2H162.6z"/>
		<path class="st0" d="M166.3,140.4c0-1.6,0.3-2.8,0.9-3.6c0.6-0.7,1.6-1.1,3-1.1c1.4,0,2.4,0.4,3,1.1c0.6,0.7,0.9,1.9,0.9,3.6
			c0,1.6-0.3,2.8-0.8,3.6s-1.6,1.1-3,1.1c-1.5,0-2.5-0.4-3-1.1C166.5,143.2,166.3,142,166.3,140.4z M167.7,140.4
			c0,1.3,0.2,2.2,0.5,2.8c0.3,0.5,1,0.8,2,0.8c1,0,1.7-0.3,2-0.8c0.3-0.5,0.5-1.4,0.5-2.8c0-1.3-0.2-2.2-0.5-2.7s-1-0.7-1.9-0.7
			c-0.9,0-1.6,0.2-1.9,0.7S167.7,139.1,167.7,140.4z"/>
		<path class="st0" d="M176.2,144.9v-9h1.3v1.2c1-0.7,2.1-1.2,3.3-1.4v1.4c-0.5,0.1-1,0.2-1.6,0.5c-0.5,0.2-1,0.4-1.3,0.5l-0.5,0.2
			v6.6H176.2z"/>
		<path class="st0" d="M190.3,135.7c1.2,0,2.1,0.3,2.5,1c0.5,0.7,0.7,1.9,0.7,3.6c0,1.7-0.3,2.9-0.9,3.6c-0.6,0.7-1.7,1.1-3.3,1.1
			c-0.5,0-1.3,0-2.5-0.1l-0.5-0.1V132h1.3v4.4C188.6,136,189.5,135.7,190.3,135.7z M189.3,143.9c1.2,0,2-0.3,2.3-0.8
			c0.4-0.5,0.6-1.4,0.6-2.7c0-1.3-0.2-2.2-0.5-2.7s-0.8-0.8-1.6-0.8c-0.7,0-1.4,0.1-2.1,0.4l-0.4,0.1v6.3
			C188.5,143.9,189,143.9,189.3,143.9z"/>
		<path class="st0" d="M201.4,135.9h1.4v9h-1.4v-0.6c-0.9,0.5-1.8,0.8-2.7,0.8c-1.2,0-2-0.3-2.4-1c-0.4-0.6-0.6-1.8-0.6-3.5v-4.7
			h1.4v4.7c0,1.3,0.1,2.2,0.3,2.6c0.2,0.4,0.7,0.7,1.5,0.7c0.4,0,0.8-0.1,1.2-0.2c0.4-0.1,0.7-0.2,0.9-0.3l0.3-0.2V135.9z"/>
		<path class="st0" d="M205.4,133.9v-1.6h1.4v1.6H205.4z M205.4,144.9v-9h1.4v9H205.4z"/>
		<path class="st0" d="M209.4,144.9V132h1.4v12.9H209.4z"/>
		<path class="st0" d="M220.4,132v12.9h-1.3v-0.6c-0.9,0.5-1.8,0.8-2.7,0.8c-0.5,0-0.9-0.1-1.3-0.2c-0.4-0.1-0.7-0.3-1-0.6
			c-0.6-0.6-1-1.8-1-3.6s0.3-3,0.9-3.8c0.6-0.8,1.5-1.2,2.9-1.2c0.7,0,1.4,0.1,2.2,0.2v-4H220.4z M215.7,143.8
			c0.2,0.1,0.5,0.1,0.8,0.1c0.3,0,0.7-0.1,1.2-0.2c0.4-0.1,0.8-0.2,1-0.3l0.4-0.2v-6.1c-0.8-0.1-1.5-0.2-2.1-0.2
			c-0.9,0-1.5,0.3-1.9,0.9c-0.4,0.6-0.5,1.5-0.5,2.7c0,1.4,0.2,2.3,0.6,2.8C215.3,143.5,215.5,143.7,215.7,143.8z"/>
		<path class="st0" d="M223,133.9v-1.6h1.4v1.6H223z M223,144.9v-9h1.4v9H223z"/>
		<path class="st0" d="M228.3,144.9h-1.4v-9h1.3v0.6c1-0.5,1.9-0.8,2.8-0.8c1.2,0,2,0.3,2.4,1s0.6,1.8,0.6,3.5v4.8h-1.3v-4.7
			c0-1.2-0.1-2.1-0.4-2.6s-0.8-0.7-1.6-0.7c-0.4,0-0.8,0.1-1.2,0.2c-0.4,0.1-0.8,0.2-1,0.3l-0.3,0.2V144.9z"/>
		<path class="st0" d="M240.1,149.2c-1.4,0-2.4-0.2-3-0.6c-0.6-0.4-0.9-1.1-0.9-2.1c0-0.5,0.1-0.9,0.3-1.2c0.2-0.3,0.6-0.7,1.1-1
			c-0.3-0.2-0.5-0.6-0.5-1.2c0-0.2,0.1-0.6,0.5-1.1l0.2-0.3c-0.9-0.4-1.4-1.3-1.4-2.7c0-2.1,1.1-3.1,3.4-3.1c0.6,0,1.1,0.1,1.6,0.2
			l0.3,0.1l2.7-0.1v1.2l-1.7,0c0.4,0.4,0.6,1,0.6,1.8c0,1.1-0.3,1.9-0.8,2.4c-0.6,0.5-1.4,0.7-2.6,0.7c-0.3,0-0.6,0-0.9-0.1
			c-0.2,0.5-0.3,0.9-0.3,1c0,0.4,0.1,0.6,0.3,0.7c0.2,0.1,0.9,0.1,2.1,0.1c1.2,0,2,0.2,2.5,0.5c0.5,0.4,0.8,1.1,0.8,2.1
			C244.1,148.2,242.8,149.2,240.1,149.2z M237.5,146.3c0,0.6,0.2,1.1,0.5,1.3c0.4,0.2,1,0.4,2,0.4s1.6-0.1,2.1-0.4
			c0.4-0.3,0.6-0.7,0.6-1.3s-0.1-1-0.4-1.2c-0.3-0.2-0.9-0.3-1.8-0.3l-1.9-0.1c-0.4,0.3-0.7,0.5-0.8,0.8
			C237.6,145.7,237.5,146,237.5,146.3z M237.7,138.8c0,0.7,0.2,1.2,0.5,1.5s0.8,0.5,1.6,0.5c0.7,0,1.3-0.2,1.6-0.5
			c0.3-0.3,0.5-0.8,0.5-1.5c0-0.7-0.2-1.2-0.5-1.5c-0.3-0.3-0.8-0.5-1.6-0.5c-0.7,0-1.3,0.2-1.6,0.5S237.7,138.1,237.7,138.8z"/>
		<path class="st0" d="M245.2,147.1l0.8-4.1h1.5l-1.2,4.1H245.2z"/>
		<path class="st0" d="M253.1,135.9h1.4l1.8,7.8h0.3l2.1-7.7h1.4l2.1,7.7h0.3l1.8-7.8h1.4l-2.1,9h-2.2l-1.9-7l-1.9,7h-2.2
			L253.1,135.9z"/>
		<path class="st0" d="M267.6,144.9v-9h1.3v1.2c1-0.7,2.1-1.2,3.3-1.4v1.4c-0.5,0.1-1,0.2-1.6,0.5c-0.5,0.2-1,0.4-1.3,0.5l-0.5,0.2
			v6.6H267.6z"/>
		<path class="st0" d="M273.8,133.9v-1.6h1.4v1.6H273.8z M273.8,144.9v-9h1.4v9H273.8z"/>
		<path class="st0" d="M282.4,137.1h-2.9v4.3c0,1,0.1,1.7,0.2,2s0.5,0.5,1.1,0.5l1.6-0.1l0.1,1.1c-0.8,0.1-1.4,0.2-1.8,0.2
			c-0.9,0-1.6-0.2-1.9-0.7c-0.4-0.5-0.5-1.3-0.5-2.6v-4.7h-1.3v-1.2h1.3v-2.8h1.3v2.8h2.9V137.1z"/>
		<path class="st0" d="M284,133.9v-1.6h1.4v1.6H284z M284,144.9v-9h1.4v9H284z"/>
		<path class="st0" d="M289.3,144.9H288v-9h1.3v0.6c1-0.5,1.9-0.8,2.8-0.8c1.2,0,2,0.3,2.4,1s0.6,1.8,0.6,3.5v4.8h-1.3v-4.7
			c0-1.2-0.1-2.1-0.4-2.6s-0.8-0.7-1.6-0.7c-0.4,0-0.8,0.1-1.2,0.2c-0.4,0.1-0.8,0.2-1,0.3l-0.3,0.2V144.9z"/>
		<path class="st0" d="M301.1,149.2c-1.4,0-2.4-0.2-3-0.6c-0.6-0.4-0.9-1.1-0.9-2.1c0-0.5,0.1-0.9,0.3-1.2c0.2-0.3,0.6-0.7,1.1-1
			c-0.3-0.2-0.5-0.6-0.5-1.2c0-0.2,0.1-0.6,0.5-1.1l0.2-0.3c-0.9-0.4-1.4-1.3-1.4-2.7c0-2.1,1.1-3.1,3.4-3.1c0.6,0,1.1,0.1,1.6,0.2
			l0.3,0.1l2.7-0.1v1.2l-1.7,0c0.4,0.4,0.6,1,0.6,1.8c0,1.1-0.3,1.9-0.8,2.4c-0.6,0.5-1.4,0.7-2.6,0.7c-0.3,0-0.6,0-0.9-0.1
			c-0.2,0.5-0.3,0.9-0.3,1c0,0.4,0.1,0.6,0.3,0.7c0.2,0.1,0.9,0.1,2.1,0.1c1.2,0,2,0.2,2.5,0.5c0.5,0.4,0.8,1.1,0.8,2.1
			C305.1,148.2,303.8,149.2,301.1,149.2z M298.6,146.3c0,0.6,0.2,1.1,0.5,1.3c0.4,0.2,1,0.4,2,0.4s1.6-0.1,2.1-0.4
			c0.4-0.3,0.6-0.7,0.6-1.3s-0.1-1-0.4-1.2c-0.3-0.2-0.9-0.3-1.8-0.3l-1.9-0.1c-0.4,0.3-0.7,0.5-0.8,0.8
			C298.7,145.7,298.6,146,298.6,146.3z M298.7,138.8c0,0.7,0.2,1.2,0.5,1.5s0.8,0.5,1.6,0.5c0.7,0,1.3-0.2,1.6-0.5
			c0.3-0.3,0.5-0.8,0.5-1.5c0-0.7-0.2-1.2-0.5-1.5c-0.3-0.3-0.8-0.5-1.6-0.5c-0.7,0-1.3,0.2-1.6,0.5S298.7,138.1,298.7,138.8z"/>
		<path class="st0" d="M317.2,138.6v4.6c0,0.4,0.4,0.7,1,0.8l-0.1,1.1c-0.9,0-1.7-0.2-2.1-0.7c-1.1,0.5-2.2,0.7-3.2,0.7
			c-0.8,0-1.5-0.2-1.9-0.7c-0.4-0.5-0.6-1.1-0.6-2s0.2-1.5,0.7-1.9c0.4-0.4,1.1-0.7,2.1-0.8l2.8-0.3v-0.8c0-0.6-0.1-1-0.4-1.3
			c-0.3-0.3-0.6-0.4-1.1-0.4c-1,0-2,0.1-3,0.2l-0.6,0.1l-0.1-1c1.3-0.3,2.5-0.4,3.5-0.4s1.8,0.2,2.2,0.7
			C317,136.9,317.2,137.6,317.2,138.6z M311.7,142.3c0,1.1,0.5,1.7,1.4,1.7c0.8,0,1.6-0.1,2.4-0.4l0.4-0.1v-3l-2.7,0.3
			c-0.5,0-0.9,0.2-1.2,0.5S311.7,141.8,311.7,142.3z"/>
		<path class="st0" d="M321.2,144.9h-1.4v-9h1.3v0.6c1-0.5,1.9-0.8,2.8-0.8c1.2,0,2,0.3,2.4,1s0.6,1.8,0.6,3.5v4.8h-1.3v-4.7
			c0-1.2-0.1-2.1-0.4-2.6s-0.8-0.7-1.6-0.7c-0.4,0-0.8,0.1-1.2,0.2c-0.4,0.1-0.8,0.2-1,0.3l-0.3,0.2V144.9z"/>
		<path class="st0" d="M336.5,132v12.9h-1.3v-0.6c-0.9,0.5-1.8,0.8-2.7,0.8c-0.5,0-0.9-0.1-1.3-0.2c-0.4-0.1-0.7-0.3-1-0.6
			c-0.6-0.6-1-1.8-1-3.6s0.3-3,0.9-3.8c0.6-0.8,1.5-1.2,2.9-1.2c0.7,0,1.4,0.1,2.2,0.2v-4H336.5z M331.8,143.8
			c0.2,0.1,0.5,0.1,0.8,0.1c0.3,0,0.7-0.1,1.2-0.2c0.4-0.1,0.8-0.2,1-0.3l0.4-0.2v-6.1c-0.8-0.1-1.5-0.2-2.1-0.2
			c-0.9,0-1.5,0.3-1.9,0.9c-0.4,0.6-0.5,1.5-0.5,2.7c0,1.4,0.2,2.3,0.6,2.8C331.4,143.5,331.6,143.7,331.8,143.8z"/>
		<path class="st0" d="M346.4,135.7c0.4,0,1.1,0.1,2,0.2l0.4,0.1l-0.1,1.1c-1-0.1-1.7-0.2-2.1-0.2c-1,0-1.7,0.2-2.1,0.7
			c-0.4,0.5-0.5,1.4-0.5,2.7c0,1.3,0.2,2.2,0.5,2.7c0.3,0.5,1.1,0.8,2.1,0.8l2.1-0.2l0.1,1.1c-1.1,0.2-2,0.3-2.5,0.3
			c-1.4,0-2.4-0.4-2.9-1.1c-0.5-0.7-0.8-1.9-0.8-3.6s0.3-2.9,0.9-3.6C344.1,136.1,345.1,135.7,346.4,135.7z"/>
		<path class="st0" d="M350.4,140.4c0-1.6,0.3-2.8,0.9-3.6c0.6-0.7,1.6-1.1,3-1.1c1.4,0,2.4,0.4,3,1.1c0.6,0.7,0.9,1.9,0.9,3.6
			c0,1.6-0.3,2.8-0.8,3.6s-1.6,1.1-3,1.1c-1.5,0-2.5-0.4-3-1.1C350.6,143.2,350.4,142,350.4,140.4z M351.8,140.4
			c0,1.3,0.2,2.2,0.5,2.8c0.3,0.5,1,0.8,2,0.8c1,0,1.7-0.3,2-0.8c0.3-0.5,0.5-1.4,0.5-2.8c0-1.3-0.2-2.2-0.5-2.7s-1-0.7-1.9-0.7
			c-0.9,0-1.6,0.2-1.9,0.7S351.8,139.1,351.8,140.4z"/>
		<path class="st0" d="M361.6,144.9h-1.4v-9h1.3v0.6c0.9-0.5,1.8-0.8,2.6-0.8c1.1,0,1.9,0.3,2.3,0.9c0.4-0.2,0.9-0.5,1.5-0.6
			c0.6-0.2,1.2-0.3,1.7-0.3c1.2,0,2,0.3,2.4,1c0.4,0.6,0.6,1.8,0.6,3.5v4.8h-1.3v-4.7c0-1.2-0.1-2.1-0.4-2.6s-0.8-0.7-1.5-0.7
			c-0.4,0-0.8,0.1-1.2,0.2s-0.7,0.2-1,0.3l-0.3,0.2c0.2,0.4,0.2,1.3,0.2,2.6v4.7h-1.3v-4.6c0-1.3-0.1-2.2-0.4-2.6
			c-0.2-0.5-0.7-0.7-1.5-0.7c-0.4,0-0.8,0.1-1.2,0.2s-0.7,0.2-0.9,0.3l-0.3,0.2V144.9z"/>
		<path class="st0" d="M376.7,144.9h-1.4v-9h1.3v0.6c0.9-0.5,1.8-0.8,2.6-0.8c1.1,0,1.9,0.3,2.3,0.9c0.4-0.2,0.9-0.5,1.5-0.6
			c0.6-0.2,1.2-0.3,1.7-0.3c1.2,0,2,0.3,2.4,1s0.6,1.8,0.6,3.5v4.8h-1.3v-4.7c0-1.2-0.1-2.1-0.4-2.6s-0.8-0.7-1.5-0.7
			c-0.4,0-0.8,0.1-1.2,0.2s-0.7,0.2-1,0.3l-0.3,0.2c0.2,0.4,0.2,1.3,0.2,2.6v4.7H381v-4.6c0-1.3-0.1-2.2-0.4-2.6
			c-0.2-0.5-0.7-0.7-1.5-0.7c-0.4,0-0.8,0.1-1.2,0.2s-0.7,0.2-0.9,0.3l-0.3,0.2V144.9z"/>
		<path class="st0" d="M396,135.9h1.3v9H396v-0.6c-0.9,0.5-1.8,0.8-2.7,0.8c-1.2,0-2-0.3-2.4-1c-0.4-0.6-0.6-1.8-0.6-3.5v-4.7h1.3
			v4.7c0,1.3,0.1,2.2,0.3,2.6c0.2,0.4,0.7,0.7,1.5,0.7c0.4,0,0.8-0.1,1.2-0.2c0.4-0.1,0.7-0.2,0.9-0.3l0.3-0.2V135.9z"/>
		<path class="st0" d="M401.3,144.9h-1.4v-9h1.3v0.6c1-0.5,1.9-0.8,2.8-0.8c1.2,0,2,0.3,2.4,1s0.6,1.8,0.6,3.5v4.8h-1.3v-4.7
			c0-1.2-0.1-2.1-0.4-2.6s-0.8-0.7-1.6-0.7c-0.4,0-0.8,0.1-1.2,0.2s-0.8,0.2-1,0.3l-0.3,0.2V144.9z"/>
		<path class="st0" d="M409.6,133.9v-1.6h1.4v1.6H409.6z M409.6,144.9v-9h1.4v9H409.6z"/>
		<path class="st0" d="M416.9,135.7c0.4,0,1.1,0.1,2,0.2l0.4,0.1l-0.1,1.1c-1-0.1-1.7-0.2-2.1-0.2c-1,0-1.7,0.2-2.1,0.7
			s-0.5,1.4-0.5,2.7c0,1.3,0.2,2.2,0.5,2.7c0.3,0.5,1.1,0.8,2.1,0.8l2.1-0.2l0.1,1.1c-1.1,0.2-2,0.3-2.5,0.3c-1.4,0-2.4-0.4-2.9-1.1
			c-0.5-0.7-0.8-1.9-0.8-3.6s0.3-2.9,0.9-3.6C414.6,136.1,415.6,135.7,416.9,135.7z"/>
		<path class="st0" d="M427.7,138.6v4.6c0,0.4,0.4,0.7,1,0.8l-0.1,1.1c-0.9,0-1.7-0.2-2.1-0.7c-1.1,0.5-2.2,0.7-3.2,0.7
			c-0.8,0-1.5-0.2-1.9-0.7c-0.4-0.5-0.6-1.1-0.6-2s0.2-1.5,0.7-1.9c0.4-0.4,1.1-0.7,2.1-0.8l2.8-0.3v-0.8c0-0.6-0.1-1-0.4-1.3
			c-0.3-0.3-0.6-0.4-1.1-0.4c-1,0-2,0.1-3,0.2l-0.6,0.1l-0.1-1c1.3-0.3,2.5-0.4,3.5-0.4c1,0,1.8,0.2,2.2,0.7
			C427.5,136.9,427.7,137.6,427.7,138.6z M422.2,142.3c0,1.1,0.5,1.7,1.4,1.7c0.8,0,1.6-0.1,2.4-0.4l0.4-0.1v-3l-2.7,0.3
			c-0.5,0-0.9,0.2-1.2,0.5S422.2,141.8,422.2,142.3z"/>
		<path class="st0" d="M435.1,137.1h-2.9v4.3c0,1,0.1,1.7,0.2,2c0.1,0.3,0.5,0.5,1.1,0.5l1.6-0.1l0.1,1.1c-0.8,0.1-1.4,0.2-1.8,0.2
			c-0.9,0-1.6-0.2-1.9-0.7c-0.4-0.5-0.5-1.3-0.5-2.6v-4.7h-1.3v-1.2h1.3v-2.8h1.3v2.8h2.9V137.1z"/>
		<path class="st0" d="M436.7,133.9v-1.6h1.4v1.6H436.7z M436.7,144.9v-9h1.4v9H436.7z"/>
		<path class="st0" d="M442,144.9h-1.4v-9h1.3v0.6c1-0.5,1.9-0.8,2.8-0.8c1.2,0,2,0.3,2.4,1s0.6,1.8,0.6,3.5v4.8h-1.3v-4.7
			c0-1.2-0.1-2.1-0.4-2.6s-0.8-0.7-1.6-0.7c-0.4,0-0.8,0.1-1.2,0.2s-0.8,0.2-1,0.3l-0.3,0.2V144.9z"/>
		<path class="st0" d="M453.8,149.2c-1.4,0-2.4-0.2-3-0.6c-0.6-0.4-0.9-1.1-0.9-2.1c0-0.5,0.1-0.9,0.3-1.2c0.2-0.3,0.6-0.7,1.1-1
			c-0.3-0.2-0.5-0.6-0.5-1.2c0-0.2,0.1-0.6,0.4-1.1l0.2-0.3c-0.9-0.4-1.4-1.3-1.4-2.7c0-2.1,1.1-3.1,3.4-3.1c0.6,0,1.1,0.1,1.6,0.2
			l0.3,0.1l2.7-0.1v1.2l-1.7,0c0.4,0.4,0.6,1,0.6,1.8c0,1.1-0.3,1.9-0.8,2.4c-0.6,0.5-1.4,0.7-2.6,0.7c-0.3,0-0.6,0-0.9-0.1
			c-0.2,0.5-0.3,0.9-0.3,1c0,0.4,0.1,0.6,0.3,0.7c0.2,0.1,0.9,0.1,2.1,0.1c1.2,0,2,0.2,2.5,0.5c0.5,0.4,0.8,1.1,0.8,2.1
			C457.8,148.2,456.5,149.2,453.8,149.2z M451.3,146.3c0,0.6,0.2,1.1,0.5,1.3c0.4,0.2,1,0.4,2,0.4c1,0,1.6-0.1,2.1-0.4
			c0.4-0.3,0.6-0.7,0.6-1.3s-0.2-1-0.5-1.2c-0.3-0.2-0.9-0.3-1.8-0.3l-1.9-0.1c-0.4,0.3-0.7,0.5-0.8,0.8
			C451.3,145.7,451.3,146,451.3,146.3z M451.4,138.8c0,0.7,0.2,1.2,0.5,1.5c0.3,0.3,0.8,0.5,1.6,0.5c0.7,0,1.3-0.2,1.6-0.5
			c0.3-0.3,0.5-0.8,0.5-1.5c0-0.7-0.2-1.2-0.5-1.5c-0.3-0.3-0.8-0.5-1.6-0.5c-0.7,0-1.3,0.2-1.6,0.5
			C451.5,137.6,451.4,138.1,451.4,138.8z"/>
	</g>
</g>
<g id="Layer_2">
</g>
<g id="Layer_3">
</g>
<g id="Layer_1">
	<g id="Creator">
		
			<g id="Group-25" transform="translate(199.503493, 125.965144) rotate(-40.000000) translate(-199.503493, -125.965144) translate(6.003493, -44.034856)">
			
				<g id="Group-18" transform="translate(101.901474, 121.251469) scale(-1, 1) translate(-101.901474, -121.251469) translate(0.901474, 0.751469)">
				<path d="M-325.8,378.3c9.1-7.6,23.4-8,36.1-2.3c13.2,5.9,23.2,17.6,26.4,32.6c2.9,13.8,8.1,24,12.9,28.2
					c2.4,1.2,4.5,2.7,6.1,4.7c2.4,2.9,3.7,6.5,3.4,10.2c10.4,14.9,16.4,35.2,15.8,53.6c2.1,1.1,4,2.6,5.5,4.6
					c3.1,3.9,4,8.7,3.1,13.5c-0.6,3.5-2.2,6.9-4.4,10.4c-3.8,5.8-9.7,11.9-16.9,17.5c-7.2,5.6-14.6,9.8-21.2,12.1
					c-3.9,1.3-7.6,2-11.2,1.7c-4.9-0.3-9.4-2.3-12.5-6.2c-1.5-1.9-2.5-4.1-3.1-6.4c-19.4-4.2-39.1-16.1-51-31.2
					c-12.5-15.9-16.7-36.5-8-56.6c0-0.1-0.1-0.1-0.1-0.2c-0.2-0.3-0.4-0.7-0.7-1c-2.4-1-5-1.7-8-2.1c-2.6-0.4-4.7-0.5-8.5-0.6
					c-2.2-0.1-2.9-0.1-3.9-0.2c-1-0.1-1.8-0.2-2.8-0.5c-2.4-0.6-4.4-1.7-6.3-4.1c-2.3-2.9-3.2-6.4-2.9-9.9c0.2-2.4,0.9-4.7,2-7
					c1.6-3.3,4-6.8,7.2-10.5c5.2-6,12.6-12.8,20-18.6c3.8-2.9,7.6-5.5,11.4-7.6C-338.3,394.4-334.7,385.7-325.8,378.3z"/>
				<path id="Shape" class="st3" d="M-366.1,449.4c5.4-1.5,14.1-7,23.4-14.4c13.4-10.8,22.3-21.3,19.6-24.6
					c-0.7-0.9-2.2-1.1-4.2-0.6c1.5-0.7,3-1.2,4.4-1.7c-4.1-4.5-6.3-12.6,4.3-21.5c11-9.2,39.3-0.7,44.7,24.2
					c3.8,17.8,10.8,30.1,17.8,35.2c3.3,1.4,4.7,3.1,4.3,5.1c-0.2,1-0.7,1.7-1.6,2.1c0.6,0.7,1.1,1.3,1.6,2
					c11.8,15.1,18.3,39.1,14.9,58.3c4,0,7.2,1,8.7,3c4,5.1-3.7,16.3-16.3,26.1c-12.6,9.8-25.4,14.6-29.4,9.4c-1-1.2,0.4-3.6,4.1-7.3
					c2.6-2.5,6.7-5.9,12.3-10.2c8.4-6.5,11.4-10.1,14.2-15.4c-8.5,9.2-26,11.4-43,10.6c-30.1-1.4-41.1-14.6-41.6-15.3
					c-8.3-10.6-14.7-27.6-6.3-46.2c2.8-6.1-2.9-13-5.8-14.4C-351.8,448.5-364.9,450.7-366.1,449.4L-366.1,449.4z M-306.6,408.4
					c-1.4,1.4-3.2,2.4-5,2.9c0.8,2.8,1.8,8.2,3.5,17.3c0.6,3.1,5.9,10.3,12.6,9.1c9.9-1.8,18.5-0.3,25.7,2.9
					c-4.3-7-7.9-16.5-11-28.4c-2.8-10.8-11.6-16.6-16.1-18.3s-12.7-3.3-18.1,0c-3.5,2.1-4,7.2-1.3,9.4c2.8,2.3,8.8,0,8.2-3
					c-0.1-0.4-0.4-1.3-0.8-1.5c0.1,0.5-0.1,1.2-0.6,2.2c-2.3,1-3.8,1.1-4.6,0.5c-1.5-1.2-1.5-3.7,0.6-4.9c2.7-1.5,5.9-1.3,9.3-0.9
					C-302.3,399.8-303.1,404.9-306.6,408.4z"/>
				
					<g id="Group-28" transform="translate(95.266729, 137.880207) rotate(1.000000) translate(-95.266729, -137.880207) translate(55.766729, 96.880207)">
					<path d="M-339.4,377.8c-4.3-4.8-0.9-10.2,5.1-13.2c3.1-1.5,6.3-2.2,8.7-0.1c1.7,1.1,2.3,3.3,1.5,5.1c-1.1,2.8-3.4,4.9-6.2,5.7
						c-0.7,0.3-1.5,0.4-2.2,0.2c1.5-1.5,2.8-3.2,3.8-5.1c1.1-2.6-0.2-4.4-3.1-4.1c-2.9,0.5-5.4,2.5-6.4,5.3c-0.5,1.3-0.5,2.8,0.1,4
						c0.6,1.3,1.7,2.2,3.1,2.6c3.9,1,8,0,10.9-2.8c3.1-2.3,4.4-6.3,3.3-10c-0.7-2.5-3.2-7.3-10.7-5.3c-4.8,0.9-12.1,7.6-13.3,11.9
						c-1,3.9-0.2,6.9,3,9c2.1,1,4.4,1.6,6.7,1.5c0.8,0,1.6-0.1,2.4-0.2c0-0.1,0-0.2,0.1-0.3C-335.2,381.3-337.6,379.8-339.4,377.8z"
						/>
					<path id="Path-Copy-25" d="M-344,387.1c4.2,4.6,0.8,9.8-4.9,12.6c-3,1.5-6.1,2.1-8.4,0.1c-1.6-1.1-2.2-3.1-1.4-4.9
						c1-2.7,3.2-4.7,6-5.4c0.7-0.3,1.4-0.4,2.1-0.2c-1.4,1.4-2.7,3.1-3.6,4.9c-1.1,2.5,0.2,4.2,3,3.9c2.8-0.5,5.1-2.4,6.1-5
						c0.5-1.3,0.4-2.7-0.1-3.9c-0.6-1.2-1.7-2.1-2.9-2.5c-3.7-1-7.7,0-10.5,2.6c-3,2.2-4.2,6.1-3.1,9.6c0.7,2.4,3.1,7,10.3,5.1
						c4.6-0.9,11.6-7.3,12.7-11.4c1-3.7,0.2-6.6-2.9-8.6c-2-1-4.2-1.5-6.4-1.5c-0.8,0-1.6,0.1-2.3,0.2c0,0.1,0,0.2-0.1,0.3
						C-348,383.8-345.7,385.2-344,387.1z"/>
					<path id="Path-Copy-26" d="M-376.7,421c-5-4.1-2.6-10.2,2.6-14.3c2.7-2.1,5.7-3.4,8.3-1.6c1.8,0.8,2.8,2.9,2.3,4.9
						c-0.5,3-2.4,5.6-5,6.9c-0.6,0.4-1.3,0.6-2.1,0.6c1.2-1.8,2.1-3.8,2.8-5.8c0.6-2.9-0.9-4.5-3.7-3.6c-2.7,1-4.7,3.5-5.2,6.5
						c-0.3,1.4,0,2.9,0.8,4.1c0.8,1.2,2,2,3.4,2.1c3.9,0.3,7.6-1.4,9.9-4.7c2.5-2.9,3.1-7.2,1.4-10.8c-1.1-2.5-4.3-6.9-11.2-3.5
						c-4.4,1.8-10.2,9.8-10.6,14.4c-0.3,4.1,1,7.1,4.4,8.6c2.2,0.7,4.4,0.8,6.6,0.4c0.8-0.1,1.5-0.3,2.3-0.6c0-0.1,0-0.2,0-0.3
						C-372.2,423.8-374.6,422.7-376.7,421z"/>
				</g>
				<path class="st4" d="M-354.5,429.7c1.4-1.3,3-2.6,4.5-3.9c5.8-4.8,11.7-8.9,16.3-11.4c2.2-1.2,4.1-2,5.4-2.3
					c1.1-0.3,1.7-0.2,1.8,0c0.1,0.2,0.1,0.8-0.4,1.8c-0.6,1.3-1.8,3-3.3,4.9c-3.4,4.1-6,6.1-11.9,10.9c-5.8,4.8-5.4,0.1-10,2.6
					C-354.3,433.5-360.7,436-354.5,429.7z"/>
				<path class="st2" d="M-337.2,468.2c2.7-6.3-2.5-8.4-5.4-9.8c-3.3-1.6-16.3-7.2-19.5-7.8c32.3-2.2,43.6-14.7,47.1-9.6
					c3.5,5-12.1,12.5-20.4,30.6C-335.1,470.9-337.5,468.9-337.2,468.2z"/>
				<path class="st4" d="M-235.8,515.4c13.7,0.6-0.2,18.4-10.3,25.9c-12.6,9.3-25.4,13.9-29.4,9c-1-1.2,0.2,3.3,17.1-7.6
					S-234.6,524.5-235.8,515.4z"/>
				<path id="Path-Copy-11" class="st4" d="M-315.2,458.8c12.9-20.8,43.9-18.3,56-2.9c15.1,19.3,15,31.6,18.7,48
					c0.2,0.8-2.9,7.8-4.4,5c-2.1-4.1-3.9-20.3-14.3-35.5C-276.6,447.7-299.5,457.8-315.2,458.8z"/>
				<path d="M-329.8,408.4c2.3-0.7,1.6-2.9,3.8-3.4c0,0.6,2,2,2.7,2.7c4.1,3.6,7.2,3,10.2,2.9s5.5-1.3,8.2-3.4
					c-0.9,1.3-0.9,3.1-2.7,4.1c-9.8,5.5-25,3.9-27.2-1.1C-333.2,409.5-331.5,409-329.8,408.4z"/>
			</g>
		</g>
	</g>
</g>
</svg>
