<?xml version="1.0" encoding="UTF-8"?>
<svg width="882px" height="300px" viewBox="0 0 882 300" version="1.1" xmlns="http://www.w3.org/2000/svg" xmlns:xlink="http://www.w3.org/1999/xlink">
    <!-- Generator: Sketch 61 (89581) - https://sketch.com -->
    <title>Group</title>
    <desc>Created with Sketch.</desc>
    <g id="Github-Covers" stroke="none" stroke-width="1" fill="none" fill-rule="evenodd">
        <g id="Design">
            <g id="Group">
                <rect id="Rectangle" fill="#FFFFFF" fill-rule="nonzero" x="0" y="0" width="882" height="300"></rect>
                <rect id="Rectangle" fill="#000000" fill-rule="nonzero" x="0" y="0" width="882" height="210"></rect>
                <rect id="Rectangle" fill="#1F242C" fill-rule="nonzero" x="620" y="105" width="52.5" height="52.5"></rect>
                <polygon id="Path" fill="#1F242C" fill-rule="nonzero" points="625.837 157.5 620 157.5 620 163.337 625.837 163.337"></polygon>
                <polygon id="Path" fill="#1F242C" fill-rule="nonzero" points="631.673 163.337 625.837 163.337 625.837 169.174 631.673 169.174"></polygon>
                <polygon id="Path" fill="#1F242C" fill-rule="nonzero" points="637.494 157.5 631.658 157.5 631.658 163.337 637.494 163.337"></polygon>
                <polygon id="Path" fill="#1F242C" fill-rule="nonzero" points="625.837 169.158 620 169.158 620 174.995 625.837 174.995"></polygon>
                <polygon id="Path" fill="#1F242C" fill-rule="nonzero" points="637.494 169.158 631.658 169.158 631.658 174.995 637.494 174.995"></polygon>
                <polygon id="Path" fill="#1F242C" fill-rule="nonzero" points="643.332 163.337 637.495 163.337 637.495 169.174 643.332 169.174"></polygon>
                <polygon id="Path" fill="#1F242C" fill-rule="nonzero" points="631.673 174.995 625.837 174.995 625.837 180.832 631.673 180.832"></polygon>
                <polygon id="Path" fill="#1F242C" fill-rule="nonzero" points="625.837 180.832 620 180.832 620 186.669 625.837 186.669"></polygon>
                <polygon id="Path" fill="#1F242C" fill-rule="nonzero" points="637.494 180.832 631.658 180.832 631.658 186.669 637.494 186.669"></polygon>
                <polygon id="Path" fill="#1F242C" fill-rule="nonzero" points="643.332 174.995 637.495 174.995 637.495 180.832 643.332 180.832"></polygon>
                <polygon id="Path" fill="#1F242C" fill-rule="nonzero" points="631.673 186.668 625.837 186.668 625.837 192.505 631.673 192.505"></polygon>
                <polygon id="Path" fill="#1F242C" fill-rule="nonzero" points="625.837 192.489 620 192.489 620 198.326 625.837 198.326"></polygon>
                <polygon id="Path" fill="#1F242C" fill-rule="nonzero" points="637.494 192.489 631.658 192.489 631.658 198.326 637.494 198.326"></polygon>
                <polygon id="Path" fill="#1F242C" fill-rule="nonzero" points="643.332 186.668 637.495 186.668 637.495 192.505 643.332 192.505"></polygon>
                <polygon id="Path" fill="#1F242C" fill-rule="nonzero" points="631.673 198.326 625.837 198.326 625.837 204.163 631.673 204.163"></polygon>
                <polygon id="Path" fill="#1F242C" fill-rule="nonzero" points="625.837 204.164 620 204.164 620 210.001 625.837 210.001"></polygon>
                <polygon id="Path" fill="#1F242C" fill-rule="nonzero" points="637.494 204.164 631.658 204.164 631.658 210.001 637.494 210.001"></polygon>
                <polygon id="Path" fill="#1F242C" fill-rule="nonzero" points="643.332 198.326 637.495 198.326 637.495 204.163 643.332 204.163"></polygon>
                <polygon id="Path" fill="#1F242C" fill-rule="nonzero" points="649.168 157.5 643.331 157.5 643.331 163.337 649.168 163.337"></polygon>
                <polygon id="Path" fill="#1F242C" fill-rule="nonzero" points="655.006 163.337 649.169 163.337 649.169 169.174 655.006 169.174"></polygon>
                <polygon id="Path" fill="#1F242C" fill-rule="nonzero" points="660.826 157.5 654.99 157.5 654.99 163.337 660.826 163.337"></polygon>
                <polygon id="Path" fill="#1F242C" fill-rule="nonzero" points="649.168 169.158 643.331 169.158 643.331 174.995 649.168 174.995"></polygon>
                <polygon id="Path" fill="#1F242C" fill-rule="nonzero" points="660.826 169.158 654.99 169.158 654.99 174.995 660.826 174.995"></polygon>
                <polygon id="Path" fill="#1F242C" fill-rule="nonzero" points="666.663 163.337 660.826 163.337 660.826 169.174 666.663 169.174"></polygon>
                <polygon id="Path" fill="#1F242C" fill-rule="nonzero" points="655.006 174.995 649.169 174.995 649.169 180.832 655.006 180.832"></polygon>
                <polygon id="Path" fill="#1F242C" fill-rule="nonzero" points="649.168 180.832 643.331 180.832 643.331 186.669 649.168 186.669"></polygon>
                <polygon id="Path" fill="#1F242C" fill-rule="nonzero" points="660.826 180.832 654.99 180.832 654.99 186.669 660.826 186.669"></polygon>
                <polygon id="Path" fill="#1F242C" fill-rule="nonzero" points="666.663 174.995 660.826 174.995 660.826 180.832 666.663 180.832"></polygon>
                <polygon id="Path" fill="#1F242C" fill-rule="nonzero" points="655.006 186.668 649.169 186.668 649.169 192.505 655.006 192.505"></polygon>
                <polygon id="Path" fill="#1F242C" fill-rule="nonzero" points="649.168 192.489 643.331 192.489 643.331 198.326 649.168 198.326"></polygon>
                <polygon id="Path" fill="#1F242C" fill-rule="nonzero" points="660.826 192.489 654.99 192.489 654.99 198.326 660.826 198.326"></polygon>
                <polygon id="Path" fill="#1F242C" fill-rule="nonzero" points="666.663 186.668 660.826 186.668 660.826 192.505 666.663 192.505"></polygon>
                <polygon id="Path" fill="#1F242C" fill-rule="nonzero" points="655.006 198.326 649.169 198.326 649.169 204.163 655.006 204.163"></polygon>
                <polygon id="Path" fill="#1F242C" fill-rule="nonzero" points="649.168 204.164 643.331 204.164 643.331 210.001 649.168 210.001"></polygon>
                <polygon id="Path" fill="#1F242C" fill-rule="nonzero" points="660.826 204.164 654.99 204.164 654.99 210.001 660.826 210.001"></polygon>
                <polygon id="Path" fill="#1F242C" fill-rule="nonzero" points="672.5 157.5 666.663 157.5 666.663 163.337 672.5 163.337"></polygon>
                <polygon id="Path" fill="#1F242C" fill-rule="nonzero" points="672.5 169.158 666.663 169.158 666.663 174.995 672.5 174.995"></polygon>
                <polygon id="Path" fill="#1F242C" fill-rule="nonzero" points="672.5 180.832 666.663 180.832 666.663 186.669 672.5 186.669"></polygon>
                <polygon id="Path" fill="#1F242C" fill-rule="nonzero" points="672.5 192.489 666.663 192.489 666.663 198.326 672.5 198.326"></polygon>
                <polygon id="Path" fill="#1F242C" fill-rule="nonzero" points="672.5 204.164 666.663 204.164 666.663 210.001 672.5 210.001"></polygon>
                <polygon id="Path" fill="#1F242C" fill-rule="nonzero" points="666.663 198.326 660.826 198.326 660.826 204.163 666.663 204.163"></polygon>
                <rect id="Rectangle" fill="#1F242C" fill-rule="nonzero" x="631.667" y="52.5" width="5.83333" height="52.5"></rect>
                <rect id="Rectangle" fill="#1F242C" fill-rule="nonzero" x="643.333" y="52.5" width="5.83333" height="52.5"></rect>
                <rect id="Rectangle" fill="#1F242C" fill-rule="nonzero" x="655" y="52.5" width="5.83333" height="52.5"></rect>
                <rect id="Rectangle" fill="#1F242C" fill-rule="nonzero" x="666.667" y="52.5" width="5.83333" height="52.5"></rect>
                <rect id="Rectangle" fill="#1F242C" fill-rule="nonzero" x="620" y="52.5" width="5.83668" height="52.5"></rect>
                <rect id="Rectangle" fill="#1F242C" fill-rule="nonzero" transform="translate(552.916335, 131.250000) rotate(-180.000000) translate(-552.916335, -131.250000) " x="549.99967" y="105" width="5.83333" height="52.5"></rect>
                <rect id="Rectangle" fill="#1F242C" fill-rule="nonzero" transform="translate(541.250335, 131.250000) rotate(-180.000000) translate(-541.250335, -131.250000) " x="538.33367" y="105" width="5.83333" height="52.5"></rect>
                <rect id="Rectangle" fill="#1F242C" fill-rule="nonzero" transform="translate(529.583335, 131.250000) rotate(-180.000000) translate(-529.583335, -131.250000) " x="526.66667" y="105" width="5.83333" height="52.5"></rect>
                <rect id="Rectangle" fill="#1F242C" fill-rule="nonzero" transform="translate(517.916335, 131.250000) rotate(-180.000000) translate(-517.916335, -131.250000) " x="514.99967" y="105" width="5.83333" height="52.5"></rect>
                <rect id="Rectangle" fill="#1F242C" fill-rule="nonzero" transform="translate(564.581660, 131.250000) rotate(-180.000000) translate(-564.581660, -131.250000) " x="561.66332" y="105" width="5.83668" height="52.5"></rect>
                <rect id="Rectangle" fill="#1F242C" fill-rule="nonzero" transform="translate(867.588335, 27.234400) rotate(-180.000000) translate(-867.588335, -27.234400) " x="864.67167" y="0.9844" width="5.83333" height="52.5"></rect>
                <rect id="Rectangle" fill="#1F242C" fill-rule="nonzero" transform="translate(855.921335, 27.234400) rotate(-180.000000) translate(-855.921335, -27.234400) " x="853.00467" y="0.9844" width="5.83333" height="52.5"></rect>
                <rect id="Rectangle" fill="#1F242C" fill-rule="nonzero" transform="translate(844.255335, 27.234400) rotate(-180.000000) translate(-844.255335, -27.234400) " x="841.33867" y="0.9844" width="5.83333" height="52.5"></rect>
                <rect id="Rectangle" fill="#1F242C" fill-rule="nonzero" transform="translate(832.588335, 27.234400) rotate(-180.000000) translate(-832.588335, -27.234400) " x="829.67167" y="0.9844" width="5.83333" height="52.5"></rect>
                <rect id="Rectangle" fill="#1F242C" fill-rule="nonzero" transform="translate(879.253660, 27.234400) rotate(-180.000000) translate(-879.253660, -27.234400) " x="876.33532" y="0.9844" width="5.83668" height="52.5"></rect>
                <path d="M567.5,163.333 L567.5,157.5 C596.495,157.5 620,181.005 620,210 L614.167,210 C614.167,184.227 593.273,163.333 567.5,163.333 Z M567.5,175 L567.5,169.166 C590.052,169.166 608.333,187.448 608.333,210 L602.5,210 C602.5,190.67 586.83,175 567.5,175 Z M567.5,180.834 L567.5,186.667 C580.387,186.667 590.833,197.114 590.833,210 L596.667,210 C596.667,193.892 583.608,180.834 567.5,180.834 Z M567.5,198.333 L567.5,192.5 C577.165,192.5 585,200.335 585,210 L579.167,210 C579.167,203.557 573.943,198.333 567.5,198.333 Z M567.5,210 L567.5,204.166 C570.722,204.166 573.333,206.778 573.333,210 L567.5,210 Z" id="Shape" fill="#1F242C"></path>
                <path d="M777,110.833 L777,105 C805.995,105 829.5,128.505 829.5,157.5 L823.667,157.5 C823.667,131.727 802.773,110.833 777,110.833 Z M777,122.5 L777,116.667 C799.552,116.667 817.833,134.949 817.833,157.5 L812,157.5 C812,138.17 796.33,122.5 777,122.5 Z M777,128.333 L777,134.167 C789.887,134.167 800.333,144.613 800.333,157.5 L806.167,157.5 C806.167,141.392 793.108,128.333 777,128.333 Z M777,145.833 L777,140 C786.665,140 794.5,147.835 794.5,157.5 L788.667,157.5 C788.667,151.056 783.443,145.833 777,145.833 Z M777,157.5 L777,151.667 C780.222,151.667 782.833,154.279 782.833,157.5 L777,157.5 Z" id="Shape" fill="#1F242C"></path>
                <path d="M729.112,52.5 L725,52.5 L725,48.3875 L773.387,0 L777.5,0 L777.5,4.1125 L729.112,52.5 Z M765.133,0 L756.879,0 L725,31.8791 L725,40.1333 L765.133,0 Z M748.625,0 L740.371,0 L725,15.3708 L725,23.625 L748.625,0 Z M725,0 L725,7.11666 L732.117,0 L725,0 Z M777.5,20.6208 L777.5,12.3667 L737.367,52.5 L745.621,52.5 L777.5,20.6208 Z M777.5,37.1291 L777.5,28.875 L753.875,52.5 L762.129,52.5 L777.5,37.1291 Z M777.5,45.3833 L770.383,52.5 L777.5,52.5 L777.5,45.3833 Z" id="Shape" fill="#1F242C" fill-rule="nonzero"></path>
                <path d="M672.5,105 L725,105 L725,52.5 C696.005,52.5 672.5,76.0051 672.5,105 Z" id="Path" fill="#1F242C" fill-rule="nonzero"></path>
                <path d="M777.5,157.5 L777.5,105 L725,105 C725,133.995 748.505,157.5 777.5,157.5 Z" id="Path" fill="#1F242C" fill-rule="nonzero"></path>
                <path d="M64.4062,101 L64.4062,68.3516 L74.9766,68.3516 C79.8984,68.3516 83.4609,69.7031 85.6641,72.4062 C87.8828,75.1094 88.9922,79.2031 88.9922,84.6875 C88.9922,90.1562 87.8828,94.2422 85.6641,96.9453 C83.4609,99.6484 79.8984,101 74.9766,101 L64.4062,101 Z M68.9766,96.9219 L74.9766,96.9219 C78.0547,96.9219 80.3203,96.2812 81.7734,95 C83.2266,93.7188 83.9531,91.875 83.9531,89.4688 L83.9531,79.8828 C83.9531,77.4766 83.2266,75.6328 81.7734,74.3516 C80.3203,73.0703 78.0547,72.4297 74.9766,72.4297 L68.9766,72.4297 L68.9766,96.9219 Z M94.7109,88.7656 C94.7109,86.9062 94.9375,85.1875 95.3906,83.6094 C95.8594,82.0156 96.5469,80.6641 97.4531,79.5547 C98.375,78.4297 99.4844,77.5469 100.781,76.9062 C102.078,76.2656 103.57,75.9453 105.258,75.9453 C107.023,75.9453 108.562,76.25 109.875,76.8594 C111.188,77.4688 112.273,78.3047 113.133,79.3672 C113.992,80.4141 114.641,81.6484 115.078,83.0703 C115.516,84.4922 115.734,86.0234 115.734,87.6641 L115.734,89.9609 L99.2578,89.9609 L99.2578,92.5625 C99.2578,93.4531 99.4219,94.2422 99.75,94.9297 C100.094,95.6172 100.555,96.2031 101.133,96.6875 C101.711,97.1562 102.359,97.5156 103.078,97.7656 C103.797,98 104.539,98.1172 105.305,98.1172 C106.836,98.1172 108.164,97.7266 109.289,96.9453 C110.414,96.1641 111.055,94.9219 111.211,93.2188 L115.547,93.2188 C115.453,94.5312 115.109,95.7031 114.516,96.7344 C113.922,97.75 113.148,98.6172 112.195,99.3359 C111.258,100.055 110.195,100.609 109.008,101 C107.82,101.391 106.57,101.586 105.258,101.586 C103.492,101.586 101.945,101.266 100.617,100.625 C99.3047,99.9844 98.2031,99.1016 97.3125,97.9766 C96.4375,96.8516 95.7812,95.5078 95.3438,93.9453 C94.9219,92.3828 94.7109,90.6562 94.7109,88.7656 Z M99.2578,86.5156 L111.258,86.5156 L111.258,85.1562 C111.258,84.2656 111.094,83.4609 110.766,82.7422 C110.453,82.0234 110.016,81.4141 109.453,80.9141 C108.906,80.4141 108.266,80.0391 107.531,79.7891 C106.812,79.5234 106.055,79.3906 105.258,79.3906 C104.461,79.3906 103.703,79.5234 102.984,79.7891 C102.266,80.0391 101.625,80.4141 101.062,80.9141 C100.5,81.4141 100.055,82.0234 99.7266,82.7422 C99.4141,83.4609 99.2578,84.2656 99.2578,85.1562 L99.2578,86.5156 Z M120.703,93.2656 L125.039,93.2656 C125.102,94.8906 125.68,96.1094 126.773,96.9219 C127.883,97.7188 129.188,98.1172 130.688,98.1172 C132.125,98.1172 133.375,97.7969 134.438,97.1562 C135.5,96.5156 136.031,95.5859 136.031,94.3672 C136.031,93.3828 135.711,92.5938 135.07,92 C134.43,91.4062 133.289,90.9531 131.648,90.6406 L127.617,89.8203 C125.602,89.3984 124.047,88.625 122.953,87.5 C121.875,86.3594 121.336,84.8281 121.336,82.9062 C121.336,81.9531 121.547,81.0547 121.969,80.2109 C122.406,79.3516 123.023,78.6094 123.82,77.9844 C124.633,77.3594 125.578,76.8672 126.656,76.5078 C127.75,76.1328 128.969,75.9453 130.312,75.9453 C131.469,75.9453 132.594,76.1016 133.688,76.4141 C134.797,76.7109 135.781,77.1797 136.641,77.8203 C137.516,78.4609 138.211,79.2812 138.727,80.2812 C139.258,81.2656 139.539,82.4453 139.57,83.8203 L135.258,83.8203 C135.195,82.1953 134.688,81.0547 133.734,80.3984 C132.797,79.7266 131.672,79.3906 130.359,79.3906 C129.016,79.3906 127.875,79.7109 126.938,80.3516 C126.016,80.9922 125.555,81.8281 125.555,82.8594 C125.555,83.8125 125.828,84.5547 126.375,85.0859 C126.922,85.6172 127.805,86.0078 129.023,86.2578 L133.148,87.125 C135.586,87.6406 137.391,88.4766 138.562,89.6328 C139.75,90.7734 140.344,92.3359 140.344,94.3203 C140.344,95.3516 140.109,96.3125 139.641,97.2031 C139.188,98.0781 138.523,98.8359 137.648,99.4766 C136.789,100.102 135.766,100.609 134.578,101 C133.391,101.391 132.078,101.586 130.641,101.586 C129.266,101.586 127.977,101.406 126.773,101.047 C125.586,100.703 124.539,100.188 123.633,99.5 C122.742,98.7969 122.039,97.9297 121.523,96.8984 C121.008,95.8516 120.734,94.6406 120.703,93.2656 Z M146.625,72.875 L146.625,68.3516 L151.125,68.3516 L151.125,72.875 L146.625,72.875 Z M146.719,101 L146.719,76.5312 L151.031,76.5312 L151.031,101 L146.719,101 Z M157.758,88.7656 C157.758,87 157.953,85.3359 158.344,83.7734 C158.75,82.1953 159.352,80.8359 160.148,79.6953 C160.945,78.5391 161.953,77.625 163.172,76.9531 C164.391,76.2812 165.812,75.9453 167.438,75.9453 C169.266,75.9453 170.836,76.3359 172.148,77.1172 C173.461,77.8984 174.5,79.0312 175.266,80.5156 L175.266,76.5312 L179.602,76.5312 L179.602,100.531 C179.602,102.234 179.297,103.695 178.688,104.914 C178.078,106.148 177.273,107.172 176.273,107.984 C175.289,108.797 174.164,109.391 172.898,109.766 C171.633,110.156 170.344,110.352 169.031,110.352 C167.75,110.352 166.523,110.227 165.352,109.977 C164.195,109.727 163.141,109.305 162.188,108.711 C161.25,108.117 160.469,107.328 159.844,106.344 C159.219,105.375 158.812,104.156 158.625,102.688 L162.938,102.688 C163.094,104.094 163.688,105.148 164.719,105.852 C165.766,106.555 167.141,106.906 168.844,106.906 C169.672,106.906 170.477,106.781 171.258,106.531 C172.039,106.297 172.727,105.914 173.32,105.383 C173.914,104.867 174.383,104.188 174.727,103.344 C175.086,102.516 175.266,101.508 175.266,100.32 L175.266,97.0156 C174.5,98.4844 173.477,99.6172 172.195,100.414 C170.914,101.195 169.367,101.586 167.555,101.586 C165.898,101.586 164.453,101.25 163.219,100.578 C162,99.9062 160.984,98.9922 160.172,97.8359 C159.359,96.6797 158.75,95.3281 158.344,93.7812 C157.953,92.2188 157.758,90.5469 157.758,88.7656 Z M162.305,92.5625 C162.305,93.3906 162.461,94.1484 162.773,94.8359 C163.102,95.5234 163.547,96.1094 164.109,96.5938 C164.672,97.0625 165.328,97.4375 166.078,97.7188 C166.828,97.9844 167.656,98.1172 168.562,98.1172 C170.734,98.1172 172.391,97.4297 173.531,96.0547 C174.688,94.6797 175.266,92.9375 175.266,90.8281 L175.266,86.7031 C175.266,84.5938 174.688,82.8516 173.531,81.4766 C172.391,80.0859 170.734,79.3906 168.562,79.3906 C167.672,79.3906 166.844,79.5312 166.078,79.8125 C165.328,80.0781 164.672,80.4531 164.109,80.9375 C163.547,81.4219 163.102,82.0078 162.773,82.6953 C162.461,83.3828 162.305,84.1406 162.305,84.9688 L162.305,92.5625 Z M187.547,101 L187.547,76.5312 L191.859,76.5312 L191.859,80.5625 C192.531,79.125 193.453,78 194.625,77.1875 C195.797,76.3594 197.312,75.9453 199.172,75.9453 C200.359,75.9453 201.438,76.1094 202.406,76.4375 C203.375,76.75 204.211,77.2578 204.914,77.9609 C205.617,78.6641 206.164,79.5703 206.555,80.6797 C206.945,81.7734 207.141,83.1094 207.141,84.6875 L207.141,101 L202.805,101 L202.805,85.1562 C202.805,83.3594 202.461,81.9531 201.773,80.9375 C201.086,79.9062 199.812,79.3906 197.953,79.3906 C197.062,79.3906 196.25,79.5703 195.516,79.9297 C194.781,80.2734 194.141,80.7734 193.594,81.4297 C193.047,82.0859 192.617,82.8672 192.305,83.7734 C192.008,84.6641 191.859,85.6406 191.859,86.7031 L191.859,101 L187.547,101 Z" id="Shape" fill="#FFFFFF" fill-rule="nonzero"></path>
                <path d="M71.2273,139.182 C71.2273,135.5 69.0682,133.205 66.0909,133.205 C63.1136,133.205 60.9545,135.5 60.9545,139.182 C60.9545,142.864 63.1136,145.159 66.0909,145.159 C69.0682,145.159 71.2273,142.864 71.2273,139.182 Z M69.8636,139.182 C69.8636,142.205 68.2045,143.841 66.0909,143.841 C63.9773,143.841 62.3182,142.205 62.3182,139.182 C62.3182,136.159 63.9773,134.523 66.0909,134.523 C68.2045,134.523 69.8636,136.159 69.8636,139.182 Z M78.9148,141.432 C78.9148,143.068 77.6648,143.818 76.6648,143.818 C75.5511,143.818 74.7557,143 74.7557,141.727 L74.7557,136.273 L73.4148,136.273 L73.4148,141.818 C73.4148,144.045 74.5966,145.114 76.233,145.114 C77.5511,145.114 78.4148,144.409 78.8239,143.523 L78.9148,143.523 L78.9148,145 L80.2557,145 L80.2557,136.273 L78.9148,136.273 L78.9148,141.432 Z M82.7116,145 L84.0526,145 L84.0526,139.477 C84.0526,138.295 84.9844,137.432 86.2571,137.432 C86.6151,137.432 86.9844,137.5 87.0753,137.523 L87.0753,136.159 C86.9219,136.148 86.5696,136.136 86.3707,136.136 C85.3253,136.136 84.4162,136.727 84.098,137.591 L84.0071,137.591 L84.0071,136.273 L82.7116,136.273 L82.7116,145 Z M99.3466,138.227 C98.9261,136.989 97.983,136.159 96.2557,136.159 C94.4148,136.159 93.0511,137.205 93.0511,138.682 C93.0511,139.886 93.767,140.693 95.3693,141.068 L96.8239,141.409 C97.7045,141.614 98.1193,142.034 98.1193,142.636 C98.1193,143.386 97.3239,144 96.0739,144 C94.9773,144 94.2898,143.528 94.0511,142.591 L92.7784,142.909 C93.0909,144.392 94.3125,145.182 96.0966,145.182 C98.125,145.182 99.5057,144.074 99.5057,142.568 C99.5057,141.352 98.7443,140.585 97.1875,140.205 L95.892,139.886 C94.858,139.631 94.392,139.284 94.392,138.614 C94.392,137.864 95.1875,137.318 96.2557,137.318 C97.4261,137.318 97.9091,137.966 98.142,138.568 L99.3466,138.227 Z M102.388,148.25 C103.598,148.25 104.456,147.608 104.956,146.273 L108.672,136.295 L107.206,136.273 L104.797,143.227 L104.706,143.227 L102.297,136.273 L100.842,136.273 L104.07,145.045 L103.82,145.727 C103.342,147.034 102.729,147.159 101.751,146.909 L101.411,148.091 C101.547,148.159 101.933,148.25 102.388,148.25 Z M116.628,138.227 C116.207,136.989 115.264,136.159 113.537,136.159 C111.696,136.159 110.332,137.205 110.332,138.682 C110.332,139.886 111.048,140.693 112.651,141.068 L114.105,141.409 C114.986,141.614 115.401,142.034 115.401,142.636 C115.401,143.386 114.605,144 113.355,144 C112.259,144 111.571,143.528 111.332,142.591 L110.06,142.909 C110.372,144.392 111.594,145.182 113.378,145.182 C115.406,145.182 116.787,144.074 116.787,142.568 C116.787,141.352 116.026,140.585 114.469,140.205 L113.173,139.886 C112.139,139.631 111.673,139.284 111.673,138.614 C111.673,137.864 112.469,137.318 113.537,137.318 C114.707,137.318 115.19,137.966 115.423,138.568 L116.628,138.227 Z M122.601,136.273 L120.737,136.273 L120.737,134.182 L119.396,134.182 L119.396,136.273 L118.078,136.273 L118.078,137.409 L119.396,137.409 L119.396,142.864 C119.396,144.386 120.624,145.114 121.76,145.114 C122.26,145.114 122.578,145.023 122.76,144.955 L122.487,143.75 C122.374,143.773 122.192,143.818 121.896,143.818 C121.305,143.818 120.737,143.636 120.737,142.5 L120.737,137.409 L122.601,137.409 L122.601,136.273 Z M128.183,145.182 C129.956,145.182 131.251,144.295 131.661,142.977 L130.365,142.614 C130.024,143.523 129.234,143.977 128.183,143.977 C126.609,143.977 125.524,142.96 125.462,141.091 L131.797,141.091 L131.797,140.523 C131.797,137.273 129.865,136.159 128.047,136.159 C125.683,136.159 124.115,138.023 124.115,140.705 C124.115,143.386 125.661,145.182 128.183,145.182 Z M125.462,139.932 C125.553,138.574 126.513,137.364 128.047,137.364 C129.501,137.364 130.433,138.455 130.433,139.932 L125.462,139.932 Z M133.837,145 L135.178,145 L135.178,139.545 C135.178,138.267 136.109,137.364 137.155,137.364 C138.172,137.364 138.882,138.028 138.882,139.023 L138.882,145 L140.246,145 L140.246,139.318 C140.246,138.193 140.95,137.364 142.178,137.364 C143.132,137.364 143.95,137.869 143.95,139.159 L143.95,145 L145.291,145 L145.291,139.159 C145.291,137.108 144.189,136.159 142.632,136.159 C141.382,136.159 140.467,136.733 140.018,137.636 L139.928,137.636 C139.496,136.705 138.734,136.159 137.587,136.159 C136.45,136.159 135.609,136.705 135.246,137.636 L135.132,137.636 L135.132,136.273 L133.837,136.273 L133.837,145 Z M153.925,138.227 C153.504,136.989 152.561,136.159 150.834,136.159 C148.993,136.159 147.629,137.205 147.629,138.682 C147.629,139.886 148.345,140.693 149.947,141.068 L151.402,141.409 C152.283,141.614 152.697,142.034 152.697,142.636 C152.697,143.386 151.902,144 150.652,144 C149.555,144 148.868,143.528 148.629,142.591 L147.357,142.909 C147.669,144.392 148.891,145.182 150.675,145.182 C152.703,145.182 154.084,144.074 154.084,142.568 C154.084,141.352 153.322,140.585 151.766,140.205 L150.47,139.886 C149.436,139.631 148.97,139.284 148.97,138.614 C148.97,137.864 149.766,137.318 150.834,137.318 C152.004,137.318 152.487,137.966 152.72,138.568 L153.925,138.227 Z M164.489,136.273 L162.534,136.273 L162.534,135.386 C162.534,134.523 162.898,134.068 163.784,134.068 C164.17,134.068 164.398,134.159 164.534,134.205 L164.92,133.045 C164.716,132.955 164.307,132.818 163.648,132.818 C162.398,132.818 161.193,133.568 161.193,135.068 L161.193,136.273 L159.784,136.273 L159.784,137.409 L161.193,137.409 L161.193,145 L162.534,145 L162.534,137.409 L164.489,137.409 L164.489,136.273 Z M169.554,145.182 C171.918,145.182 173.509,143.386 173.509,140.682 C173.509,137.955 171.918,136.159 169.554,136.159 C167.19,136.159 165.599,137.955 165.599,140.682 C165.599,143.386 167.19,145.182 169.554,145.182 Z M169.554,143.977 C167.759,143.977 166.94,142.432 166.94,140.682 C166.94,138.932 167.759,137.364 169.554,137.364 C171.349,137.364 172.168,138.932 172.168,140.682 C172.168,142.432 171.349,143.977 169.554,143.977 Z M175.555,145 L176.896,145 L176.896,139.477 C176.896,138.295 177.828,137.432 179.101,137.432 C179.459,137.432 179.828,137.5 179.919,137.523 L179.919,136.159 C179.766,136.148 179.413,136.136 179.214,136.136 C178.169,136.136 177.26,136.727 176.942,137.591 L176.851,137.591 L176.851,136.273 L175.555,136.273 L175.555,145 Z M186.19,145 L187.486,145 L187.486,143.659 L187.645,143.659 C187.94,144.136 188.509,145.182 190.19,145.182 C192.372,145.182 193.895,143.432 193.895,140.659 C193.895,137.909 192.372,136.159 190.168,136.159 C188.463,136.159 187.94,137.205 187.645,137.659 L187.531,137.659 L187.531,133.364 L186.19,133.364 L186.19,145 Z M187.509,140.636 C187.509,138.682 188.372,137.364 190.009,137.364 C191.713,137.364 192.554,138.795 192.554,140.636 C192.554,142.5 191.69,143.977 190.009,143.977 C188.395,143.977 187.509,142.614 187.509,140.636 Z M201.446,141.432 C201.446,143.068 200.196,143.818 199.196,143.818 C198.082,143.818 197.287,143 197.287,141.727 L197.287,136.273 L195.946,136.273 L195.946,141.818 C195.946,144.045 197.128,145.114 198.764,145.114 C200.082,145.114 200.946,144.409 201.355,143.523 L201.446,143.523 L201.446,145 L202.787,145 L202.787,136.273 L201.446,136.273 L201.446,141.432 Z M205.243,145 L206.584,145 L206.584,136.273 L205.243,136.273 L205.243,145 Z M205.925,134.818 C206.447,134.818 206.879,134.409 206.879,133.909 C206.879,133.409 206.447,133 205.925,133 C205.402,133 204.97,133.409 204.97,133.909 C204.97,134.409 205.402,134.818 205.925,134.818 Z M210.381,133.364 L209.04,133.364 L209.04,145 L210.381,145 L210.381,133.364 Z M216.132,145.182 C217.814,145.182 218.382,144.136 218.678,143.659 L218.837,143.659 L218.837,145 L220.132,145 L220.132,133.364 L218.791,133.364 L218.791,137.659 L218.678,137.659 C218.382,137.205 217.859,136.159 216.155,136.159 C213.95,136.159 212.428,137.909 212.428,140.659 C212.428,143.432 213.95,145.182 216.132,145.182 Z M216.314,143.977 C214.632,143.977 213.768,142.5 213.768,140.636 C213.768,138.795 214.609,137.364 216.314,137.364 C217.95,137.364 218.814,138.682 218.814,140.636 C218.814,142.614 217.928,143.977 216.314,143.977 Z M222.774,145 L224.115,145 L224.115,136.273 L222.774,136.273 L222.774,145 Z M223.456,134.818 C223.979,134.818 224.411,134.409 224.411,133.909 C224.411,133.409 223.979,133 223.456,133 C222.933,133 222.501,133.409 222.501,133.909 C222.501,134.409 222.933,134.818 223.456,134.818 Z M227.912,139.75 C227.912,138.227 228.855,137.364 230.139,137.364 C231.384,137.364 232.139,138.176 232.139,139.545 L232.139,145 L233.48,145 L233.48,139.455 C233.48,137.227 232.293,136.159 230.526,136.159 C229.207,136.159 228.389,136.75 227.98,137.636 L227.866,137.636 L227.866,136.273 L226.571,136.273 L226.571,145 L227.912,145 L227.912,139.75 Z M239.453,148.455 C241.544,148.455 243.226,147.5 243.226,145.25 L243.226,136.273 L241.93,136.273 L241.93,137.659 L241.794,137.659 C241.499,137.205 240.953,136.159 239.249,136.159 C237.044,136.159 235.521,137.909 235.521,140.591 C235.521,143.318 237.112,144.864 239.226,144.864 C240.93,144.864 241.476,143.864 241.771,143.386 L241.885,143.386 L241.885,145.159 C241.885,146.614 240.862,147.273 239.453,147.273 C237.868,147.273 237.311,146.438 236.953,145.955 L235.885,146.705 C236.43,147.619 237.504,148.455 239.453,148.455 Z M239.408,143.659 C237.726,143.659 236.862,142.386 236.862,140.568 C236.862,138.795 237.703,137.364 239.408,137.364 C241.044,137.364 241.908,138.682 241.908,140.568 C241.908,142.5 241.021,143.659 239.408,143.659 Z M247.68,143.409 L246.226,143.409 L246.158,144.045 C245.993,145.585 245.669,147.119 245.521,147.841 L246.544,147.841 C246.817,147.068 247.396,145.318 247.589,144.023 L247.68,143.409 Z M256.642,145 L257.96,145 L259.869,138.295 L260.006,138.295 L261.915,145 L263.233,145 L265.892,136.273 L264.483,136.273 L262.597,142.932 L262.506,142.932 L260.665,136.273 L259.233,136.273 L257.369,142.955 L257.278,142.955 L255.392,136.273 L253.983,136.273 L256.642,145 Z M267.665,145 L269.006,145 L269.006,139.477 C269.006,138.295 269.938,137.432 271.21,137.432 C271.568,137.432 271.938,137.5 272.028,137.523 L272.028,136.159 C271.875,136.148 271.523,136.136 271.324,136.136 C270.278,136.136 269.369,136.727 269.051,137.591 L268.96,137.591 L268.96,136.273 L267.665,136.273 L267.665,145 Z M273.618,145 L274.959,145 L274.959,136.273 L273.618,136.273 L273.618,145 Z M274.3,134.818 C274.822,134.818 275.254,134.409 275.254,133.909 C275.254,133.409 274.822,133 274.3,133 C273.777,133 273.345,133.409 273.345,133.909 C273.345,134.409 273.777,134.818 274.3,134.818 Z M281.21,136.273 L279.347,136.273 L279.347,134.182 L278.006,134.182 L278.006,136.273 L276.688,136.273 L276.688,137.409 L278.006,137.409 L278.006,142.864 C278.006,144.386 279.233,145.114 280.369,145.114 C280.869,145.114 281.188,145.023 281.369,144.955 L281.097,143.75 C280.983,143.773 280.801,143.818 280.506,143.818 C279.915,143.818 279.347,143.636 279.347,142.5 L279.347,137.409 L281.21,137.409 L281.21,136.273 Z M283.227,145 L284.568,145 L284.568,136.273 L283.227,136.273 L283.227,145 Z M283.909,134.818 C284.432,134.818 284.864,134.409 284.864,133.909 C284.864,133.409 284.432,133 283.909,133 C283.386,133 282.955,133.409 282.955,133.909 C282.955,134.409 283.386,134.818 283.909,134.818 Z M288.365,139.75 C288.365,138.227 289.308,137.364 290.592,137.364 C291.837,137.364 292.592,138.176 292.592,139.545 L292.592,145 L293.933,145 L293.933,139.455 C293.933,137.227 292.746,136.159 290.979,136.159 C289.661,136.159 288.842,136.75 288.433,137.636 L288.32,137.636 L288.32,136.273 L287.024,136.273 L287.024,145 L288.365,145 L288.365,139.75 Z M299.906,148.455 C301.997,148.455 303.679,147.5 303.679,145.25 L303.679,136.273 L302.384,136.273 L302.384,137.659 L302.247,137.659 C301.952,137.205 301.406,136.159 299.702,136.159 C297.497,136.159 295.974,137.909 295.974,140.591 C295.974,143.318 297.565,144.864 299.679,144.864 C301.384,144.864 301.929,143.864 302.224,143.386 L302.338,143.386 L302.338,145.159 C302.338,146.614 301.315,147.273 299.906,147.273 C298.321,147.273 297.764,146.438 297.406,145.955 L296.338,146.705 C296.884,147.619 297.957,148.455 299.906,148.455 Z M299.861,143.659 C298.179,143.659 297.315,142.386 297.315,140.568 C297.315,138.795 298.156,137.364 299.861,137.364 C301.497,137.364 302.361,138.682 302.361,140.568 C302.361,142.5 301.474,143.659 299.861,143.659 Z M313.202,145.205 C314.724,145.205 315.52,144.386 315.793,143.818 L315.861,143.818 L315.861,145 L317.202,145 L317.202,139.25 C317.202,136.477 315.088,136.159 313.974,136.159 C312.656,136.159 311.156,136.614 310.474,138.205 L311.747,138.659 C312.043,138.023 312.741,137.341 314.02,137.341 C315.253,137.341 315.861,137.994 315.861,139.114 L315.861,139.159 C315.861,139.807 315.202,139.75 313.611,139.955 C311.991,140.165 310.224,140.523 310.224,142.523 C310.224,144.227 311.543,145.205 313.202,145.205 Z M313.406,144 C312.338,144 311.565,143.523 311.565,142.591 C311.565,141.568 312.497,141.25 313.543,141.114 C314.111,141.045 315.634,140.886 315.861,140.614 L315.861,141.841 C315.861,142.932 314.997,144 313.406,144 Z M320.99,139.75 C320.99,138.227 321.933,137.364 323.217,137.364 C324.462,137.364 325.217,138.176 325.217,139.545 L325.217,145 L326.558,145 L326.558,139.455 C326.558,137.227 325.371,136.159 323.604,136.159 C322.286,136.159 321.467,136.75 321.058,137.636 L320.945,137.636 L320.945,136.273 L319.649,136.273 L319.649,145 L320.99,145 L320.99,139.75 Z M332.304,145.182 C333.986,145.182 334.554,144.136 334.849,143.659 L335.009,143.659 L335.009,145 L336.304,145 L336.304,133.364 L334.963,133.364 L334.963,137.659 L334.849,137.659 C334.554,137.205 334.031,136.159 332.327,136.159 C330.122,136.159 328.599,137.909 328.599,140.659 C328.599,143.432 330.122,145.182 332.304,145.182 Z M332.486,143.977 C330.804,143.977 329.94,142.5 329.94,140.636 C329.94,138.795 330.781,137.364 332.486,137.364 C334.122,137.364 334.986,138.682 334.986,140.636 C334.986,142.614 334.099,143.977 332.486,143.977 Z M346.991,145.182 C348.923,145.182 350.196,144 350.423,142.455 L349.082,142.455 C348.832,143.409 348.037,143.977 346.991,143.977 C345.401,143.977 344.378,142.659 344.378,140.636 C344.378,138.659 345.423,137.364 346.991,137.364 C348.173,137.364 348.878,138.091 349.082,138.886 L350.423,138.886 C350.196,137.25 348.81,136.159 346.969,136.159 C344.605,136.159 343.037,138.023 343.037,140.682 C343.037,143.295 344.537,145.182 346.991,145.182 Z M355.929,145.182 C358.293,145.182 359.884,143.386 359.884,140.682 C359.884,137.955 358.293,136.159 355.929,136.159 C353.565,136.159 351.974,137.955 351.974,140.682 C351.974,143.386 353.565,145.182 355.929,145.182 Z M355.929,143.977 C354.134,143.977 353.315,142.432 353.315,140.682 C353.315,138.932 354.134,137.364 355.929,137.364 C357.724,137.364 358.543,138.932 358.543,140.682 C358.543,142.432 357.724,143.977 355.929,143.977 Z M361.93,145 L363.271,145 L363.271,139.545 C363.271,138.267 364.203,137.364 365.249,137.364 C366.266,137.364 366.976,138.028 366.976,139.023 L366.976,145 L368.339,145 L368.339,139.318 C368.339,138.193 369.044,137.364 370.271,137.364 C371.226,137.364 372.044,137.869 372.044,139.159 L372.044,145 L373.385,145 L373.385,139.159 C373.385,137.108 372.283,136.159 370.726,136.159 C369.476,136.159 368.561,136.733 368.112,137.636 L368.021,137.636 C367.589,136.705 366.828,136.159 365.68,136.159 C364.544,136.159 363.703,136.705 363.339,137.636 L363.226,137.636 L363.226,136.273 L361.93,136.273 L361.93,145 Z M375.837,145 L377.178,145 L377.178,139.545 C377.178,138.267 378.109,137.364 379.155,137.364 C380.172,137.364 380.882,138.028 380.882,139.023 L380.882,145 L382.246,145 L382.246,139.318 C382.246,138.193 382.95,137.364 384.178,137.364 C385.132,137.364 385.95,137.869 385.95,139.159 L385.95,145 L387.291,145 L387.291,139.159 C387.291,137.108 386.189,136.159 384.632,136.159 C383.382,136.159 382.467,136.733 382.018,137.636 L381.928,137.636 C381.496,136.705 380.734,136.159 379.587,136.159 C378.45,136.159 377.609,136.705 377.246,137.636 L377.132,137.636 L377.132,136.273 L375.837,136.273 L375.837,145 Z M395.243,141.432 C395.243,143.068 393.993,143.818 392.993,143.818 C391.879,143.818 391.084,143 391.084,141.727 L391.084,136.273 L389.743,136.273 L389.743,141.818 C389.743,144.045 390.925,145.114 392.561,145.114 C393.879,145.114 394.743,144.409 395.152,143.523 L395.243,143.523 L395.243,145 L396.584,145 L396.584,136.273 L395.243,136.273 L395.243,141.432 Z M400.381,139.75 C400.381,138.227 401.324,137.364 402.608,137.364 C403.852,137.364 404.608,138.176 404.608,139.545 L404.608,145 L405.949,145 L405.949,139.455 C405.949,137.227 404.761,136.159 402.994,136.159 C401.676,136.159 400.858,136.75 400.449,137.636 L400.335,137.636 L400.335,136.273 L399.04,136.273 L399.04,145 L400.381,145 L400.381,139.75 Z M408.399,145 L409.74,145 L409.74,136.273 L408.399,136.273 L408.399,145 Z M409.081,134.818 C409.604,134.818 410.036,134.409 410.036,133.909 C410.036,133.409 409.604,133 409.081,133 C408.558,133 408.126,133.409 408.126,133.909 C408.126,134.409 408.558,134.818 409.081,134.818 Z M415.741,145.182 C417.673,145.182 418.946,144 419.173,142.455 L417.832,142.455 C417.582,143.409 416.787,143.977 415.741,143.977 C414.151,143.977 413.128,142.659 413.128,140.636 C413.128,138.659 414.173,137.364 415.741,137.364 C416.923,137.364 417.628,138.091 417.832,138.886 L419.173,138.886 C418.946,137.25 417.56,136.159 415.719,136.159 C413.355,136.159 411.787,138.023 411.787,140.682 C411.787,143.295 413.287,145.182 415.741,145.182 Z M423.702,145.205 C425.224,145.205 426.02,144.386 426.293,143.818 L426.361,143.818 L426.361,145 L427.702,145 L427.702,139.25 C427.702,136.477 425.588,136.159 424.474,136.159 C423.156,136.159 421.656,136.614 420.974,138.205 L422.247,138.659 C422.543,138.023 423.241,137.341 424.52,137.341 C425.753,137.341 426.361,137.994 426.361,139.114 L426.361,139.159 C426.361,139.807 425.702,139.75 424.111,139.955 C422.491,140.165 420.724,140.523 420.724,142.523 C420.724,144.227 422.043,145.205 423.702,145.205 Z M423.906,144 C422.838,144 422.065,143.523 422.065,142.591 C422.065,141.568 422.997,141.25 424.043,141.114 C424.611,141.045 426.134,140.886 426.361,140.614 L426.361,141.841 C426.361,142.932 425.497,144 423.906,144 Z M433.945,136.273 L432.081,136.273 L432.081,134.182 L430.74,134.182 L430.74,136.273 L429.422,136.273 L429.422,137.409 L430.74,137.409 L430.74,142.864 C430.74,144.386 431.967,145.114 433.104,145.114 C433.604,145.114 433.922,145.023 434.104,144.955 L433.831,143.75 C433.717,143.773 433.536,143.818 433.24,143.818 C432.649,143.818 432.081,143.636 432.081,142.5 L432.081,137.409 L433.945,137.409 L433.945,136.273 Z M435.962,145 L437.303,145 L437.303,136.273 L435.962,136.273 L435.962,145 Z M436.643,134.818 C437.166,134.818 437.598,134.409 437.598,133.909 C437.598,133.409 437.166,133 436.643,133 C436.121,133 435.689,133.409 435.689,133.909 C435.689,134.409 436.121,134.818 436.643,134.818 Z M441.099,139.75 C441.099,138.227 442.043,137.364 443.327,137.364 C444.571,137.364 445.327,138.176 445.327,139.545 L445.327,145 L446.668,145 L446.668,139.455 C446.668,137.227 445.48,136.159 443.713,136.159 C442.395,136.159 441.577,136.75 441.168,137.636 L441.054,137.636 L441.054,136.273 L439.759,136.273 L439.759,145 L441.099,145 L441.099,139.75 Z M452.641,148.455 C454.732,148.455 456.413,147.5 456.413,145.25 L456.413,136.273 L455.118,136.273 L455.118,137.659 L454.982,137.659 C454.686,137.205 454.141,136.159 452.436,136.159 C450.232,136.159 448.709,137.909 448.709,140.591 C448.709,143.318 450.3,144.864 452.413,144.864 C454.118,144.864 454.663,143.864 454.959,143.386 L455.072,143.386 L455.072,145.159 C455.072,146.614 454.05,147.273 452.641,147.273 C451.055,147.273 450.499,146.438 450.141,145.955 L449.072,146.705 C449.618,147.619 450.692,148.455 452.641,148.455 Z M452.595,143.659 C450.913,143.659 450.05,142.386 450.05,140.568 C450.05,138.795 450.891,137.364 452.595,137.364 C454.232,137.364 455.095,138.682 455.095,140.568 C455.095,142.5 454.209,143.659 452.595,143.659 Z" id="Shape" fill="#C4C3C6" fill-rule="nonzero"></path>
                <path d="M590.658,70.6445372 C578.802,70.6724 567.591,79.5578 561.526,92.0877 C555.206,105.092 555.067,120.483 562.257,134.03 C568.906,146.466 571.479,157.622 570.502,163.925 C569.435,166.387 568.79,168.886 568.85,171.446 C568.876,175.21 570.194,178.804 572.802,181.445 C574.412,199.544 582.865,218.952 595.152,232.661 C594.25,234.854 593.759,237.224 593.895,239.72 C594.027,244.701 596.423,248.956 600.198,252.055 C602.908,254.35 606.319,255.926 610.254,257.193 C616.893,259.194 625.334,260.074 634.449,259.736 C643.564,259.398 651.932,257.859 658.467,255.378 C662.29,253.867 665.574,252.025 668.139,249.481 C671.7,246.102 673.861,241.677 673.729,236.697 C673.657,234.277 673.009,231.949 671.99,229.801 C684.152,214.114 691.594,192.335 691.003,173.119 C690.359,152.904 680.335,134.423 660.75,124.618 C660.686,124.542 660.762,124.477 660.698,124.401 C660.658,124.042 660.555,123.607 660.592,123.185 C661.787,120.876 663.329,118.669 665.37,116.434 C667.105,114.456 668.649,113.03 671.496,110.51 C673.117,109.02 673.653,108.57 674.355,107.85 C675.057,107.131 675.605,106.54 676.178,105.668 C677.631,103.665 678.456,101.537 678.369,98.4772 C678.267,94.7772 676.706,91.5176 674.227,89.0293 C672.531,87.3193 670.516,86.0074 668.195,84.9525 C664.848,83.453 660.76,82.3146 655.93,81.5371 C648.09,80.2834 638.051,79.8309 628.654,80.1445 C623.879,80.3655 619.296,80.8164 615.036,81.6503 C610.583,74.9434 602.233,70.5929 590.658,70.6445372 Z" id="Path" fill="#000000" fill-rule="nonzero"></path>
                <path d="M667.232,99.2067 C662.131,101.529 651.931,102.908 640.051,103.217 C622.844,103.557 609.276,101.234 609.224,96.9708 C609.181,95.8314 610.202,94.714 612.055,93.8115 C610.456,94.2394 608.986,94.8206 607.592,95.3375 C607.84,89.2549 604.319,81.6358 590.478,81.6315 C576.138,81.6546 559.922,106.357 571.791,128.902 C580.322,144.981 582.866,158.902 580.782,167.309 C579.154,170.502 579.174,172.705 580.766,173.98 C581.562,174.617 582.395,174.832 583.342,174.56 C583.332,175.482 583.335,176.263 583.401,177.12 C584.068,196.273 594.516,218.836 609.462,231.358 C606.398,233.929 604.589,236.752 604.726,239.249 C604.94,245.727 618.037,249.357 633.989,248.765 C649.94,248.173 662.831,243.622 662.553,237.068 C662.548,235.506 659.932,234.567 654.72,234.111 C651.121,233.867 645.795,233.898 638.741,234.204 C628.128,234.624 623.516,233.795 617.964,231.534 C630.389,233.118 645.209,223.555 657.718,212.015 C679.876,191.594 679.817,174.412 679.75,173.554 C679.295,160.099 673.27,142.962 654.88,134.113 C648.814,131.24 648.745,122.291 650.067,119.354 C655.699,107.709 667.149,100.974 667.232,99.2067 Z M595.298,106.045 C597.271,106.217 599.292,105.826 600.993,105.052 C602.18,107.711 604.885,112.491 609.432,120.555 C610.965,123.315 611.533,132.237 605.629,135.625 C596.888,140.61 591.264,147.287 587.806,154.366 C586.6,146.24 583.251,136.648 577.977,125.54 C573.18,115.467 576.193,105.367 578.547,101.172 C580.902,96.9773 586.155,90.4808 592.413,89.5377 C596.444,88.8966 600.105,92.482 599.451,95.9029 C598.784,99.4646 592.709,101.559 591.241,98.8756 C591.06,98.5049 590.712,97.6226 590.889,97.2123 C591.134,97.6596 591.737,98.0673 592.763,98.5119 C595.168,97.7995 596.381,96.912 596.608,95.9381 C596.986,94.0547 595.379,92.1396 592.999,92.5702 C589.967,93.1566 587.644,95.3668 585.296,97.8587 C586.476,102.221 590.367,105.613 595.298,106.045 Z" id="Shape" fill="#D3D8E0"></path>
                <path d="M620.484,162.734 C620.58,156.291 614.471,154.446 607.975,156.118 C604.651,157.02 601.777,158.591 601.343,161.75 C600.782,163.696 601.772,165.75 603.557,166.583 C606.224,167.975 609.338,168.051 611.976,166.818 C612.701,166.585 613.37,166.136 613.767,165.525 C611.651,165.377 609.555,164.947 607.554,164.169 C605.018,162.929 604.818,160.717 607.203,159.041 C609.72,157.516 612.919,157.385 615.511,158.842 C616.741,159.496 617.725,160.628 618.059,161.927 C618.459,163.302 618.22,164.703 617.426,165.923 C615.138,169.236 611.388,171.171 607.362,170.961 C603.514,171.259 599.908,169.093 598.311,165.579 C597.199,163.233 595.937,157.97 602.909,154.559 C607.122,152.089 617.027,152.356 620.754,154.814 C624.067,157.102 625.432,159.891 624.395,163.575 C623.466,165.707 622.123,167.669 620.322,169.103 C619.718,169.627 619.049,170.077 618.38,170.526 C618.314,170.451 618.248,170.375 618.107,170.365 C619.61,168.131 620.437,165.425 620.484,162.734 Z" id="Path" fill="#000000" fill-rule="nonzero"></path>
                <path d="M630.057,166.735 C629.905,172.962 635.882,174.656 642.021,173.03 C645.269,172.194 648.003,170.613 648.426,167.594 C648.912,165.714 648.053,163.811 646.268,162.978 C643.742,161.596 640.77,161.53 638.197,162.839 C637.472,163.072 636.878,163.455 636.481,164.065 C638.456,164.204 640.553,164.634 642.413,165.402 C644.883,166.567 645.017,168.703 642.707,170.313 C640.266,171.773 637.284,171.848 634.823,170.542 C633.593,169.889 632.75,168.766 632.34,167.533 C632.006,166.233 632.245,164.833 632.889,163.743 C635.025,160.561 638.7,158.692 642.519,158.817 C646.226,158.509 649.691,160.665 651.157,164.028 C652.203,166.299 653.409,171.345 646.729,174.635 C642.667,176.974 633.185,176.736 629.665,174.363 C626.483,172.227 625.184,169.513 626.212,165.97 C627.065,163.903 628.397,162.083 630.058,160.639 C630.662,160.114 631.331,159.665 631.925,159.281 C631.99,159.357 632.056,159.432 632.197,159.442 C630.911,161.62 630.093,164.186 630.057,166.735 Z" id="Path" fill="#000000" fill-rule="nonzero"></path>
                <path d="M676.976,170.867 C678.06,164.492 672.247,161.463 665.632,161.78 C662.217,161.967 659.1,162.954 658.319,166.018 C657.485,167.802 658.108,170.043 659.797,171.225 C662.143,173.161 665.283,173.877 668.098,173.152 C668.813,173.06 669.473,172.752 670.076,172.227 C667.99,171.656 665.998,170.737 664.158,169.687 C661.803,167.892 661.885,165.7 664.589,164.542 C667.282,163.526 670.432,164.1 672.777,166.036 C673.922,166.896 674.68,168.225 674.864,169.656 C675.047,171.086 674.666,172.477 673.675,173.471 C670.929,176.256 667.021,177.401 663.12,176.419 C659.331,175.87 656.057,173.019 654.978,169.187 C654.168,166.578 653.697,161.158 661.135,159.197 C665.636,157.669 675.262,159.902 678.582,163.111 C681.498,166.008 682.485,169.125 680.903,172.488 C679.702,174.46 678.107,175.978 676.185,177.12 C675.515,177.569 674.856,177.878 674.055,178.176 C673.989,178.101 673.924,178.025 673.858,177.95 C675.417,175.932 676.507,173.527 676.976,170.867 Z" id="Path" fill="#000000" fill-rule="nonzero"></path>
                <path d="M645.683,91.5715 C643.775,91.4755 641.714,91.5081 639.729,91.4764 C632.201,91.5276 625.046,92.1792 619.915,93.2209 C617.458,93.7158 615.488,94.3243 614.3,94.9301 C613.264,95.4074 612.869,95.8696 612.921,96.0871 C612.973,96.3046 613.358,96.7642 614.384,97.2089 C615.68,97.8191 617.692,98.35 620.062,98.8413 C625.302,99.7966 628.579,99.6574 636.184,99.542 C643.713,99.4909 640.385,96.1475 645.516,95.1058 C647.973,94.611 654.482,92.4122 645.683,91.5715 Z" id="Path" fill="#FFFFFF"></path>
                <path d="M657.178,132.185 C651.06,129.094 653.694,124.143 655.015,121.206 C656.515,117.86 662.874,105.213 664.939,102.697 C638.782,121.774 622.091,119.462 622.688,125.618 C623.221,131.698 639.992,127.416 657.984,135.946 C657.305,135.603 657.858,132.528 657.178,132.185 Z" id="Path" fill="#000000"></path>
                <path d="M609.841,233.52 C599.731,242.786 621.821,247.487 634.379,246.74 C650.009,245.765 662.771,241.061 662.686,234.736 C662.68,233.174 664.654,237.393 644.701,239.906 C624.749,242.419 614.771,241.263 609.841,233.52 Z" id="Path" fill="#FFFFFF"></path>
                <path d="M634.283,139.125 C611.031,131.484 588.89,153.325 589.52,172.9 C590.359,197.391 598.342,206.749 606.049,221.69 C606.41,222.432 613.284,225.801 612.633,222.692 C611.607,218.202 602.572,204.635 600.769,186.306 C597.578,155.434 621.613,148.451 634.283,139.125 Z" id="Path" fill="#FFFFFF"></path>
                <path d="M613.07,91.132 C610.859,92.0741 609.981,89.9389 607.974,90.97 C608.36,91.4296 607.728,93.7877 607.641,94.7739 C606.814,100.167 604.054,101.7 601.692,103.552 C599.329,105.404 596.643,106.091 593.225,106.218 C594.75,106.635 595.907,108.014 597.928,107.623 C608.971,105.537 619.586,94.5413 618.058,89.2969 C616.382,89.7891 614.758,90.4988 613.07,91.132 Z" id="Path" fill="#000000" fill-rule="nonzero"></path>
            </g>
        </g>
    </g>
</svg>