<svg width="386" height="504" viewBox="0 0 386 504" fill="none" xmlns="http://www.w3.org/2000/svg">
<g clip-path="url(#clip0)">
<rect width="386" height="504" fill="white"/>
<rect x="232" width="154" height="154" fill="#C6F1FE"/>
<rect y="1" width="153" height="153" fill="#C6F1FE"/>
<rect x="232" y="351" width="154" height="154" fill="#C6F1FE"/>
<rect y="351" width="153" height="153" fill="#C6F1FE"/>
<path d="M232 154.004H153V181.311H201.19V293.659C201.19 302.632 195.66 310.434 187.365 313.945L168.01 321.356L176.305 351.004L205.535 339.691C215.41 335.79 223.705 328.378 228.05 319.016C230.815 313.554 232 307.313 232 301.461V154.004Z" fill="black"/>
<line x1="153.5" y1="2.45936e-08" x2="153.5" y2="504" stroke="#36BCEB"/>
<line x1="70.5" y1="2.45936e-08" x2="70.5" y2="504" stroke="#36BCEB"/>
<line x1="232.5" y1="2.45936e-08" x2="232.5" y2="504" stroke="#36BCEB"/>
<line x1="315.5" y1="2.45936e-08" x2="315.5" y2="504" stroke="#36BCEB"/>
<line x1="11" y1="350.5" x2="373" y2="350.5" stroke="#36BCEB"/>
<line x1="11" y1="433.5" x2="373" y2="433.5" stroke="#36BCEB"/>
<line x1="11" y1="153.5" x2="373" y2="153.5" stroke="#36BCEB"/>
<line x1="11" y1="70.5" x2="373" y2="70.5" stroke="#36BCEB"/>
</g>
<defs>
<clipPath id="clip0">
<rect width="386" height="504" fill="white"/>
</clipPath>
</defs>
</svg>
