<svg width="325" height="88" viewBox="0 0 325 88" fill="none" xmlns="http://www.w3.org/2000/svg">
<g clip-path="url(#clip0_356_22920)">
<path fill-rule="evenodd" clip-rule="evenodd" d="M279.694 19.4102H271.694V11.4102H279.694V19.4102ZM271.694 25.8104V65.8598H279.995L279.694 25.8104H271.694ZM227.402 45.2941C227.402 51.3045 229.13 56.1937 232.584 59.9636C236.088 63.6816 240.456 65.5402 245.689 65.5402C247.161 65.5402 248.608 65.3237 250.031 64.8916C251.453 64.4586 252.596 63.9746 253.46 63.4396C254.323 62.9046 255.135 62.2807 255.897 61.5679C256.659 60.8542 257.155 60.3579 257.384 60.0772C257.612 59.7973 257.777 59.5808 257.878 59.4286H258.259V65.8094H266.259V11.4142H258.181L258.259 30.7769H257.878L256.659 29.3249C255.795 28.4079 254.348 27.4655 252.317 26.4975C250.285 25.5304 248.075 25.0464 245.689 25.0464C240.456 25.0464 236.101 26.9181 232.622 30.6625C229.142 34.406 227.402 39.2829 227.402 45.2941ZM234.675 45.2941C234.675 41.3201 235.767 38.1618 237.952 35.8192C240.136 33.4758 242.98 32.3046 246.485 32.3046C249.99 32.3046 252.834 33.4758 255.018 35.8192C257.202 38.1618 258.294 41.3201 258.294 45.2941C258.294 49.2664 257.202 52.4247 255.018 54.7673C252.834 57.1107 249.99 58.282 246.485 58.282C242.98 58.282 240.136 57.1107 237.952 54.7673C235.767 52.4247 234.675 49.2664 234.675 45.2941ZM157.702 33.0684V25.8102H162.273V17.4054H170.273V25.8102H182.082V33.0684H170.273V58.5513H182.463V65.8095H168.893C165.237 65.8095 162.273 62.8457 162.273 59.191V33.0684H157.702ZM128.762 53.0691H120L120.382 54.4437C120.585 55.3096 121.08 56.3788 121.867 57.653C122.655 58.9263 123.657 60.1997 124.877 61.473C126.096 62.7464 127.886 63.8288 130.248 64.7202C132.61 65.6116 135.289 66.0569 138.286 66.0569C143.366 66.0569 147.365 64.8989 150.286 62.5809C153.207 60.263 154.667 57.4743 154.667 54.214C154.667 51.8213 154.07 49.7964 152.876 48.1403C151.682 46.485 150.171 45.275 148.343 44.5112C146.514 43.7473 144.559 43.0724 142.477 42.4863C140.394 41.9002 138.439 41.4549 136.61 41.1496C134.781 40.8433 133.27 40.347 132.077 39.6589C130.883 38.9716 130.286 38.118 130.286 37.0999C130.286 35.8767 130.871 34.8585 132.038 34.0428C133.207 33.2288 134.908 32.8213 137.143 32.8213C138.515 32.8213 139.746 32.9991 140.838 33.3555C141.93 33.7119 142.769 34.1079 143.352 34.54C143.937 34.9729 144.444 35.4824 144.877 36.0685C145.308 36.6537 145.575 37.0488 145.676 37.253C145.778 37.4563 145.854 37.6349 145.905 37.7871H154.285L153.981 36.5648C153.778 35.6989 153.308 34.6676 152.571 33.4708C151.835 32.274 150.908 31.0763 149.79 29.8795C148.673 28.6827 146.997 27.6637 144.762 26.8233C142.527 25.9829 139.987 25.5631 137.143 25.5631C132.572 25.5631 128.89 26.708 126.096 29.0013C123.302 31.2928 121.905 33.968 121.905 37.0233C121.905 39.8754 122.744 42.1933 124.419 43.977C126.096 45.759 128.128 47.02 130.515 47.7583C132.902 48.4967 135.289 49.0959 137.676 49.5535C140.064 50.012 142.095 50.5981 143.771 51.3109C145.448 52.0245 146.286 52.9925 146.286 54.214C146.286 55.5384 145.651 56.634 144.381 57.4999C143.111 58.3658 141.079 58.7987 138.286 58.7987C136.864 58.7987 135.556 58.5955 134.362 58.188C133.168 57.7797 132.254 57.3221 131.619 56.8117C130.984 56.3031 130.426 55.717 129.943 55.0544C129.461 54.3926 129.156 53.9341 129.029 53.6798C128.902 53.4255 128.813 53.2213 128.762 53.0691ZM284.266 45.2942C284.266 51.0494 286.196 55.863 290.056 59.7341C293.917 63.6052 298.717 65.5403 304.456 65.5403C310.196 65.5403 314.996 63.6052 318.856 59.7341C322.716 55.863 324.646 51.0494 324.646 45.2942C324.646 39.5382 322.716 34.7246 318.856 30.8527C314.996 26.9816 310.196 25.0465 304.456 25.0465C298.717 25.0465 293.917 26.9816 290.056 30.8527C286.196 34.7246 284.266 39.5382 284.266 45.2942ZM292.647 45.2942C292.647 41.3202 293.739 38.1619 295.923 35.8194C298.107 33.4759 300.951 32.3047 304.455 32.3047C307.96 32.3047 310.805 33.4759 312.99 35.8194C315.174 38.1619 316.265 41.3202 316.265 45.2942C316.265 49.2665 315.174 52.4248 312.99 54.7674C310.805 57.1108 307.96 58.2821 304.455 58.2821C300.951 58.2821 298.107 57.1108 295.923 54.7674C293.739 52.4248 292.647 49.2665 292.647 45.2942ZM215.179 25.8215L215.172 45.2942C215.172 53.0178 210.392 58.2536 204.435 58.2819L204.254 58.282L204.072 58.2819C198.115 58.2536 193.335 53.0178 193.335 45.2942V25.8215H186.062V45.2942C186.062 56.8841 192.722 65.1178 203.295 65.5244C206.416 65.5244 208.345 64.6991 210.379 63.4397C211.243 62.9046 212.055 62.2807 212.817 61.5679C213.579 60.8542 214.074 60.3579 214.303 60.0772C214.531 59.7974 214.697 59.5809 214.798 59.4287H215.179L215.179 65.8598H223.48L223.179 25.8103L215.179 25.8215Z" fill="black"/>
<path d="M64 88H64.1314C67.8343 88 71.3297 86.2906 73.6032 83.3678L82.8483 71.4828C86.2101 67.1609 86.2201 61.1114 82.8725 56.7784L73 44H104L73.6029 4.66263C71.3306 1.72192 67.8239 0 64.1075 0H64L51.4593 16.1238L73 44H42L51.8725 56.7784C55.2201 61.1114 55.2101 67.1609 51.8483 71.4828L51.5007 71.9295L64 88Z" fill="black"/>
<path d="M64.125 0H33.869C30.1659 0 26.6703 1.70967 24.3968 4.63271L4.91153 29.6852C1.72826 33.778 0 38.815 0 44C0 49.185 1.72826 54.222 4.91153 58.3148L24.3968 83.3673C26.6703 86.2903 30.1659 88 33.869 88H64.13L64.0851 87.9744C60.6765 87.7515 57.5091 86.0831 55.3968 83.3673L35.9115 58.3148C32.7283 54.222 31 49.185 31 44C31 38.815 32.7283 33.778 35.9115 29.6852L55.3968 4.63271C57.4962 1.93348 60.6378 0.268921 64.0225 0.0298457C64.0588 0.027286 64.125 0.0423311 64.125 0Z" fill="black"/>
</g>
<defs>
<clipPath id="clip0_356_22920">
<rect width="325" height="88" fill="white"/>
</clipPath>
</defs>
</svg>
