<svg width="388" height="176" viewBox="0 0 388 176" fill="none" xmlns="http://www.w3.org/2000/svg">
<g clip-path="url(#clip0_356_21950)">
<path d="M115 88L81 44H109.108C112.824 44 116.331 45.7219 118.603 48.6626L148 86.7059L146.47 88H115Z" fill="url(#paint0_linear_356_21950)"/>
<path d="M115 88L81 44H109.108C112.824 44 116.331 45.7219 118.603 48.6626L148 86.7059L146.47 88H115Z" fill="url(#paint1_radial_356_21950)"/>
<path d="M115 88H83.53L82.5455 90L92.8027 103.274C95.8638 107.236 95.8638 112.764 92.8027 116.726L81 132H109.108C112.824 132 116.331 130.278 118.603 127.337L125.858 117.949C129.475 113.267 129.475 106.733 125.858 102.051L115 88Z" fill="url(#paint2_linear_356_21950)"/>
<path d="M115 88H83.53L82.5455 90L92.8027 103.274C95.8638 107.236 95.8638 112.764 92.8027 116.726L81 132H109.108C112.824 132 116.331 130.278 118.603 127.337L125.858 117.949C129.475 113.267 129.475 106.733 125.858 102.051L115 88Z" fill="url(#paint3_radial_356_21950)"/>
<path d="M115 88H83.53L82.5455 90L92.8027 103.274C95.8638 107.236 95.8638 112.764 92.8027 116.726L81 132H109.108C112.824 132 116.331 130.278 118.603 127.337L125.858 117.949C129.475 113.267 129.475 106.733 125.858 102.051L115 88Z" fill="url(#paint4_radial_356_21950)"/>
<path d="M77.869 44C74.1659 44 70.6703 45.7097 68.3968 48.6327L48.9115 73.6852C45.7283 77.778 44 82.815 44 88C44 93.185 45.7283 98.222 48.9115 102.315L68.3968 127.367C70.6703 130.29 74.1659 132 77.869 132H109.108C109.572 132 110.033 131.973 110.488 131.92C107.309 131.552 104.385 129.924 102.397 127.367L81.1222 100.014C78.4505 96.5792 77 92.3517 77 88C77 83.6483 78.4505 79.4208 81.1222 75.9858L102.397 48.6327C104.385 46.0761 107.309 44.4477 110.488 44.0796C110.033 44.0269 109.572 44 109.108 44H77.869Z" fill="url(#paint5_linear_356_21950)"/>
<path d="M77.869 44C74.1659 44 70.6703 45.7097 68.3968 48.6327L48.9115 73.6852C45.7283 77.778 44 82.815 44 88C44 93.185 45.7283 98.222 48.9115 102.315L68.3968 127.367C70.6703 130.29 74.1659 132 77.869 132H109.108C109.572 132 110.033 131.973 110.488 131.92C107.309 131.552 104.385 129.924 102.397 127.367L81.1222 100.014C78.4505 96.5792 77 92.3517 77 88C77 83.6483 78.4505 79.4208 81.1222 75.9858L102.397 48.6327C104.385 46.0761 107.309 44.4477 110.488 44.0796C110.033 44.0269 109.572 44 109.108 44H77.869Z" fill="url(#paint6_radial_356_21950)" fill-opacity="0.5"/>
<path d="M115 88H83.532L82.55 90H114.018L115 88Z" fill="url(#paint7_linear_356_21950)"/>
<path d="M82.7137 89.6667H114.182L114.018 90H82.55L82.7137 89.6667Z" fill="#2825A2"/>
<path d="M109.222 44.0005C112.896 44.0354 116.354 45.7521 118.603 48.6626L148 86.7059L146.472 88L117.02 49.8855C115.15 47.4651 112.276 46.0355 109.222 46.0007C106.178 46.0353 103.313 47.455 101.442 49.861L81.1193 75.9932C78.4495 79.4262 77 83.6511 77 88C77 92.3489 78.4495 96.5738 81.1193 100.007L101.442 126.139C103.313 128.545 106.178 129.965 109.222 129.999C112.276 129.965 115.15 128.535 117.02 126.114L124.275 116.726C127.336 112.764 127.336 107.236 124.275 103.274L114.018 90L115 88L125.858 102.051C129.475 106.733 129.475 113.267 125.858 117.949L118.603 127.337C116.354 130.248 112.896 131.965 109.222 131.999C105.561 131.965 102.113 130.26 99.8633 127.367L79.5405 101.235C76.5977 97.4506 75 92.7936 75 88C75 83.2064 76.5977 78.5495 79.5405 74.7654L99.8633 48.6332C102.113 45.74 105.561 44.0353 109.222 44.0005Z" fill="url(#paint8_linear_356_21950)"/>
<path d="M109.388 44.0033C109.333 44.002 109.277 44.0011 109.222 44.0005C105.561 44.0353 102.113 45.74 99.8633 48.6332L79.5405 74.7654C76.5977 78.5495 75 83.2064 75 88C75 92.7936 76.5977 97.4506 79.5405 101.235L99.8633 127.367C102.113 130.26 105.561 131.965 109.222 131.999C109.277 131.999 109.333 131.998 109.389 131.997C105.79 131.913 102.413 130.216 100.197 127.367L79.874 101.235C76.9312 97.4506 75.3335 92.7936 75.3335 88C75.3335 83.2064 76.9312 78.5495 79.874 74.7654L100.197 48.6332C102.413 45.7839 105.79 44.0874 109.388 44.0033Z" fill="url(#paint9_linear_356_21950)"/>
<path d="M146.674 87.8293L117.354 49.8855C115.484 47.4651 112.61 46.0355 109.555 46.0007C109.5 46.0013 109.444 46.0024 109.388 46.0039C112.381 46.0879 115.184 47.5092 117.02 49.8855L146.472 88L146.674 87.8293Z" fill="url(#paint10_linear_356_21950)"/>
<path d="M109.388 129.996C109.444 129.998 109.5 129.999 109.555 129.999C112.61 129.965 115.484 128.535 117.354 126.114L124.609 116.726C127.67 112.764 127.67 107.236 124.609 103.274L114.351 90L115.204 88.2639L115 88L114.018 90L124.275 103.274C127.336 107.236 127.336 112.764 124.275 116.726L117.02 126.114C115.184 128.491 112.381 129.912 109.388 129.996Z" fill="url(#paint11_linear_356_21950)"/>
<path d="M216.224 57.75H208.225V109.75H216.224V57.75Z" fill="white"/>
<path fill-rule="evenodd" clip-rule="evenodd" d="M163.775 89.2265C163.781 95.2397 165.509 100.129 168.958 103.896V103.905C170.621 105.713 172.651 107.145 174.913 108.106C177.174 109.067 179.614 109.533 182.07 109.475C184.796 109.443 187.47 108.719 189.84 107.372C190.708 106.837 191.519 106.215 192.26 105.515C192.784 105.045 193.281 104.546 193.747 104.019C193.924 103.814 194.088 103.6 194.24 103.377H194.627V116.89H170.625V124.15H195.996C199.658 124.15 202.626 121.182 202.626 117.52V69.7524H194.627V74.7243H194.24L193.035 73.246C191.765 72.0512 190.293 71.0918 188.687 70.4124C186.615 69.44 184.35 68.9496 182.061 68.978C179.607 68.9223 177.17 69.3957 174.915 70.366C172.66 71.3363 170.64 72.7807 168.993 74.6011C165.509 78.3381 163.769 83.2132 163.775 89.2265ZM171.053 89.2353C171.053 85.2695 172.144 82.1133 174.326 79.7666C176.593 77.5124 179.66 76.247 182.858 76.247C186.055 76.247 189.122 77.5124 191.389 79.7666C193.571 82.1074 194.665 85.2636 194.671 89.2353C194.677 93.2069 193.583 96.3661 191.389 98.7127C189.12 100.963 186.053 102.225 182.858 102.225C179.662 102.225 176.596 100.963 174.326 98.7127C172.144 96.3602 171.053 93.201 171.053 89.2353Z" fill="white"/>
<path fill-rule="evenodd" clip-rule="evenodd" d="M266.632 97.0463C267.616 99.5297 269.09 101.783 270.965 103.668C273.787 106.465 277.359 108.359 281.237 109.113C285.115 109.866 289.126 109.447 292.769 107.907C296.413 106.366 299.528 103.773 301.725 100.451C302.507 99.2706 303.16 98.0161 303.678 96.71H295.074C294.659 97.43 294.172 98.095 293.612 98.7051C291.37 100.955 288.342 102.218 285.186 102.218C282.031 102.218 279.002 100.955 276.761 98.7051C275.109 96.9011 274.088 94.6227 273.699 91.87L304.942 91.87C305.06 90.9974 305.121 90.1148 305.126 89.2275C305.181 86.5405 304.707 83.8692 303.729 81.3704C302.752 78.8715 301.292 76.5953 299.435 74.6751C297.578 72.7549 295.361 71.2294 292.915 70.1879C290.468 69.1464 287.841 68.61 285.186 68.61C282.532 68.61 279.905 69.1464 277.458 70.1879C275.012 71.2294 272.795 72.7549 270.938 74.6751C269.081 76.5953 267.621 78.8715 266.644 81.3704C265.666 83.8692 265.192 86.5405 265.247 89.2275C265.178 91.9022 265.649 94.5629 266.632 97.0463ZM274.101 84.61C274.629 82.7252 275.515 81.1081 276.761 79.7587C279 77.5044 282.029 76.2391 285.186 76.2391C288.344 76.2391 291.373 77.5044 293.612 79.7587C294.852 81.1058 295.735 82.7229 296.262 84.61H274.101Z" fill="white"/>
<path fill-rule="evenodd" clip-rule="evenodd" d="M227.275 103.668C225.4 101.783 223.926 99.5297 222.942 97.0463C221.959 94.5629 221.488 91.9022 221.557 89.2275C221.502 86.5405 221.976 83.8692 222.954 81.3704C223.931 78.8715 225.391 76.5953 227.248 74.6751C229.105 72.7549 231.322 71.2294 233.768 70.1879C236.215 69.1464 238.842 68.61 241.496 68.61C244.151 68.61 246.778 69.1464 249.225 70.1879C251.671 71.2294 253.888 72.7549 255.745 74.6751C257.602 76.5953 259.062 78.8715 260.039 81.3704C261.017 83.8692 261.491 86.5405 261.436 89.2275C261.431 90.1148 261.37 90.9974 261.252 91.87L230.009 91.87C230.398 94.6227 231.419 96.9011 233.071 98.7051C235.312 100.955 238.341 102.218 241.496 102.218C244.652 102.218 247.68 100.955 249.922 98.7051C250.482 98.095 250.969 97.43 251.384 96.71H259.988C259.47 98.0161 258.817 99.2706 258.035 100.451C255.838 103.773 252.723 106.366 249.079 107.907C245.436 109.447 241.425 109.866 237.547 109.113C233.669 108.359 230.097 106.465 227.275 103.668ZM233.071 79.7587C231.825 81.1081 230.939 82.7252 230.411 84.61H252.572C252.045 82.7229 251.162 81.1058 249.922 79.7587C247.683 77.5044 244.654 76.2391 241.496 76.2391C238.339 76.2391 235.31 77.5044 233.071 79.7587Z" fill="white"/>
<path d="M306 69.7468H314.386L322.94 101.752H326.75L335.304 69.7468H343.69C342.447 74.269 341.204 78.7914 339.961 83.3139C337.54 92.1266 335.118 100.939 332.69 109.75H317L306 69.7468Z" fill="white"/>
</g>
<defs>
<linearGradient id="paint0_linear_356_21950" x1="115" y1="44" x2="148" y2="88" gradientUnits="userSpaceOnUse">
<stop stop-color="#1C1974"/>
<stop offset="1" stop-color="#07072A"/>
</linearGradient>
<radialGradient id="paint1_radial_356_21950" cx="0" cy="0" r="1" gradientUnits="userSpaceOnUse" gradientTransform="translate(115 44) rotate(90) scale(17 42.4068)">
<stop offset="0.223958" stop-color="#04041F"/>
<stop offset="0.401042" stop-color="#04041F" stop-opacity="0.92"/>
<stop offset="1" stop-color="#111048" stop-opacity="0"/>
<stop offset="1" stop-color="#04041F" stop-opacity="0"/>
</radialGradient>
<linearGradient id="paint2_linear_356_21950" x1="106.5" y1="132" x2="106.5" y2="88" gradientUnits="userSpaceOnUse">
<stop offset="0.184295" stop-color="#201E81"/>
<stop offset="0.68007" stop-color="#0A0939"/>
<stop offset="0.93513" stop-color="#100F53"/>
</linearGradient>
<radialGradient id="paint3_radial_356_21950" cx="0" cy="0" r="1" gradientUnits="userSpaceOnUse" gradientTransform="translate(95 110) rotate(90) scale(10 94.8599)">
<stop stop-color="#6863E8"/>
<stop offset="0.21875" stop-color="#544FD7"/>
<stop offset="1" stop-color="#232191" stop-opacity="0"/>
</radialGradient>
<radialGradient id="paint4_radial_356_21950" cx="0" cy="0" r="1" gradientUnits="userSpaceOnUse" gradientTransform="translate(121.5 97.5) rotate(90) scale(8.5 27.2)">
<stop stop-color="#0A0993"/>
<stop offset="1" stop-color="#0B0A7D" stop-opacity="0"/>
</radialGradient>
<linearGradient id="paint5_linear_356_21950" x1="77.2441" y1="44" x2="77.2441" y2="132" gradientUnits="userSpaceOnUse">
<stop offset="0.00233483" stop-color="#8986D8"/>
<stop offset="0.0618216" stop-color="#514DC8"/>
<stop offset="0.18767" stop-color="#4541BC"/>
<stop offset="0.335199" stop-color="#3936AE"/>
<stop offset="0.41907" stop-color="#18167B"/>
<stop offset="0.55688" stop-color="#151373"/>
<stop offset="0.648064" stop-color="#090835"/>
<stop offset="0.893955" stop-color="#05051F"/>
<stop offset="1" stop-color="#010105"/>
</linearGradient>
<radialGradient id="paint6_radial_356_21950" cx="0" cy="0" r="1" gradientUnits="userSpaceOnUse" gradientTransform="translate(112 44) rotate(147.095) scale(80.9938 62.5861)">
<stop stop-color="#BDBBEF"/>
<stop offset="0.697917" stop-color="#9896DF" stop-opacity="0"/>
</radialGradient>
<linearGradient id="paint7_linear_356_21950" x1="82.5" y1="89" x2="114.5" y2="89" gradientUnits="userSpaceOnUse">
<stop offset="0.0001" stop-color="#232188"/>
<stop offset="0.463542" stop-color="#12115A"/>
<stop offset="1" stop-color="#3734AC"/>
</linearGradient>
<linearGradient id="paint8_linear_356_21950" x1="75" y1="88" x2="148" y2="88" gradientUnits="userSpaceOnUse">
<stop stop-color="#A49CF9"/>
<stop offset="1" stop-color="#5149DA"/>
</linearGradient>
<linearGradient id="paint9_linear_356_21950" x1="110.837" y1="44.0005" x2="110.837" y2="131.999" gradientUnits="userSpaceOnUse">
<stop stop-color="#534BDA"/>
<stop offset="1" stop-color="#0E0C66"/>
</linearGradient>
<linearGradient id="paint10_linear_356_21950" x1="110.837" y1="44.0005" x2="110.837" y2="131.999" gradientUnits="userSpaceOnUse">
<stop stop-color="#534BDA"/>
<stop offset="1" stop-color="#0E0C66"/>
</linearGradient>
<linearGradient id="paint11_linear_356_21950" x1="110.837" y1="44.0005" x2="110.837" y2="131.999" gradientUnits="userSpaceOnUse">
<stop stop-color="#534BDA"/>
<stop offset="1" stop-color="#0E0C66"/>
</linearGradient>
<clipPath id="clip0_356_21950">
<rect width="300" height="88" fill="white" transform="translate(44 44)"/>
</clipPath>
</defs>
</svg>
