<svg xmlns="http://www.w3.org/2000/svg" viewBox="0 0 252.9 200"><defs><style>.cls-1{fill:#4038ff;}.cls-2{fill:#fff;}</style></defs><title>Logo-vertical-basic-white</title><g id="Layer_2" data-name="Layer 2"><g id="Layer_9" data-name="Layer 9"><path class="cls-1" d="M132.18,0h11.91V55.92A53.43,53.43,0,0,1,130.6,91.44a63.59,63.59,0,0,0,1.58-14.09Z"/><path class="cls-1" d="M94,97.62h0a32,32,0,0,1-24.47,11.89l3.57-11.9Z"/><path class="cls-1" d="M101.22,76.2v1.19A31.91,31.91,0,0,1,99.39,88.1H76l3.56-11.9Z"/><path class="cls-1" d="M153.61,0h11.9V34.53A53.39,53.39,0,0,1,152,70,62.91,62.91,0,0,0,153.61,56Z"/><path class="cls-1" d="M122.66,0V77.39A53.64,53.64,0,0,1,69.08,131H63.13l3.56-11.9h2.39a41.7,41.7,0,0,0,41.67-41.66V0Z"/><path id="joystream-copy" class="cls-2" d="M0,200v-5.4H8.93V159.52h6v35.56A4.92,4.92,0,0,1,10,200Zm22.59-15.23A15.07,15.07,0,0,1,33.3,159a15.07,15.07,0,1,1,0,30.13A14.51,14.51,0,0,1,22.59,184.77ZM27,167a11.4,11.4,0,0,0,0,14.1,8.27,8.27,0,0,0,6.34,2.61,8.28,8.28,0,0,0,6.35-2.61,11.4,11.4,0,0,0,0-14.1,8.28,8.28,0,0,0-6.35-2.61A8.27,8.27,0,0,0,27,167Zm21.93-7.45h6.24l6.37,23.81h2.84l7-23.81h6.23L65.41,200H59.17l3.37-10.71H60.47A4.51,4.51,0,0,1,56.13,186ZM77,179.81h6.52c0,.11.11.26.2.45a9.46,9.46,0,0,0,.68,1,6.76,6.76,0,0,0,1.25,1.31,6.65,6.65,0,0,0,2,1,8.81,8.81,0,0,0,2.92.46,8.21,8.21,0,0,0,4.54-1,2.87,2.87,0,0,0,1.41-2.44c0-.91-.62-1.63-1.87-2.16a22.62,22.62,0,0,0-4.53-1.31,48.89,48.89,0,0,1-5.33-1.34A10.26,10.26,0,0,1,80.24,173a7.28,7.28,0,0,1-1.87-5.17,7.54,7.54,0,0,1,3.12-6,12.53,12.53,0,0,1,8.22-2.56,15.9,15.9,0,0,1,5.67.94,9.68,9.68,0,0,1,3.74,2.27,17.21,17.21,0,0,1,2.07,2.67,8.05,8.05,0,0,1,1,2.31l.22.91H96.23a4,4,0,0,0-.17-.4,8.71,8.71,0,0,0-.6-.88A5.31,5.31,0,0,0,94.33,166a6.54,6.54,0,0,0-1.87-.88,8.69,8.69,0,0,0-2.75-.4,6.6,6.6,0,0,0-3.8.91,2.69,2.69,0,0,0-1.3,2.27,2.21,2.21,0,0,0,1.33,1.91,10.18,10.18,0,0,0,3.37,1.11,41.07,41.07,0,0,1,4.37,1A38.37,38.37,0,0,1,98,173.44a7.86,7.86,0,0,1,3.38,2.7,7.58,7.58,0,0,1,1.33,4.52,7.73,7.73,0,0,1-3.26,6.22q-3.26,2.6-8.93,2.59a16.93,16.93,0,0,1-6-1,10.76,10.76,0,0,1-4-2.42,18.4,18.4,0,0,1-2.24-2.84,8.74,8.74,0,0,1-1.1-2.39Zm26.93-14.89v-5.4h3.4v-6.25h6v6.25H122v5.4h-8.78v19h9.07v5.41h-10.1a4.93,4.93,0,0,1-4.93-4.93V164.92Zm27.78,0-.06,24.37h-6l.07-25.46a4.31,4.31,0,0,1,4.31-4.31h13.26v5.4Zm15.66,19.85a15.63,15.63,0,0,1,0-21.47,14.78,14.78,0,0,1,20.92,0A14.68,14.68,0,0,1,172.54,174v2H149a9.12,9.12,0,0,0,3.06,5.6,8.55,8.55,0,0,0,5.72,2.07,10.66,10.66,0,0,0,4.71-1,7.39,7.39,0,0,0,2.78-2l.73-1h6.24a9,9,0,0,1-.4,1,17,17,0,0,1-1.44,2.24,15.61,15.61,0,0,1-2.64,2.85,14.86,14.86,0,0,1-4.14,2.24,16.17,16.17,0,0,1-5.84,1A14.23,14.23,0,0,1,147.32,184.77Zm2.77-13.59h17a8.1,8.1,0,0,0-2.69-4.81,8.36,8.36,0,0,0-5.81-2,8.77,8.77,0,0,0-5.47,1.84A8,8,0,0,0,150.09,171.18Zm28,13.76A15.55,15.55,0,0,1,174.24,174a15.37,15.37,0,0,1,3.89-10.89,12.73,12.73,0,0,1,9.72-4.17,11.3,11.3,0,0,1,4.93,1.08,11.07,11.07,0,0,1,3.23,2.1l.91,1.08h.28v-3.7h6v29.77h-6v-4.75h-.28c-.08.11-.2.27-.37.48a14.82,14.82,0,0,1-1.1,1.11,12,12,0,0,1-1.82,1.39,10.71,10.71,0,0,1-2.55,1.08,11.15,11.15,0,0,1-3.23.49A12.88,12.88,0,0,1,178.1,184.94Zm29.73,4.35V159.52h5.95v4h.29c.07-.11.17-.27.28-.48a7.08,7.08,0,0,1,.91-1.11,9.62,9.62,0,0,1,1.61-1.39,9.29,9.29,0,0,1,2.41-1.08,11,11,0,0,1,3.29-.48,12,12,0,0,1,3.77.56,8.72,8.72,0,0,1,2.72,1.37,13.51,13.51,0,0,1,1.67,1.56,4.72,4.72,0,0,1,.91,1.34l.28.57h.29c.07-.16.18-.35.31-.6a7.67,7.67,0,0,1,1-1.28,11.51,11.51,0,0,1,1.87-1.62,11.25,11.25,0,0,1,2.83-1.31,12.23,12.23,0,0,1,3.86-.59,10.13,10.13,0,0,1,7.88,3.18q2.9,3.18,2.89,9v18.11h-6V171.46q0-7.11-6.24-7.1a6.8,6.8,0,0,0-5.21,2.33,8.34,8.34,0,0,0-2.16,5.91v16.69h-6V171.46q0-7.11-6.24-7.1a6.8,6.8,0,0,0-5.21,2.33,8.34,8.34,0,0,0-2.16,5.91v16.69ZM8.93,148.81v5.95h6v-5.95ZM182.09,167a11.4,11.4,0,0,0,0,14.1,9,9,0,0,0,12.7,0,11.4,11.4,0,0,0,0-14.1,9,9,0,0,0-12.7,0Z"/></g></g></svg>