<?xml version="1.0" encoding="UTF-8"?>
<svg width="1310px" height="800px" viewBox="0 0 1310 800" version="1.1" xmlns="http://www.w3.org/2000/svg" xmlns:xlink="http://www.w3.org/1999/xlink">
    <!-- Generator: Sketch 61 (89581) - https://sketch.com -->
    <title>Introducing Jsgenesis</title>
    <desc>Created with Sketch.</desc>
    <g id="Introducing-Jsgenesis" stroke="none" stroke-width="1" fill="none" fill-rule="evenodd">
        <rect fill="#000000" x="0" y="0" width="1310" height="800"></rect>
        <g id="Group" transform="translate(425.000000, 275.000000)" fill="#FFFFFF" fill-rule="nonzero">
            <path d="M218.72376,190 C194.103505,190 167.504431,180.96187 147.5,165.97423 L161.349367,147.56586 C177.506409,159.692611 198.939829,166.965815 218.72376,166.965815 C242.575106,166.965815 261.918511,154.070467 261.918511,138.091243 C261.918511,128.279771 256.424946,116.598996 215.426675,104.47699 C184.32108,95.5479811 152.556351,82.1070242 152.556351,50.8056783 C152.556351,22.3723375 180.583941,0 216.305835,0 C236.419096,0 258.842871,6.61230554 277.855054,18.0738882 L265.987818,37.8012086 C250.486596,28.4338153 232.35452,23.0332359 216.305835,23.0332359 C193.443899,23.0332359 175.528064,35.2662621 175.528064,50.8056783 C175.528064,59.8414363 181.023521,70.5306265 221.911542,82.3252678 C251.366702,91.0312882 285,105.136465 285,138.091243 C284.89117,167.184059 255.876062,190 218.72376,190 L218.72376,190 Z" id="Path"></path>
            <path d="M35.9763085,250 L27.61488,228.510107 L63.8109519,214.406475 C75.3627386,209.890277 84.6041679,201.29432 89.88512,190.051263 C92.8557148,183.661222 94.5058347,176.497924 94.5058347,169.44848 L94.5058347,25.5311881 L0,25.5311881 L0,2.5 L116.509644,2.5 L117.5,21.8945099 L117.5,169.55759 C117.5,180.02739 115.189169,190.601556 110.67881,200.07988 C102.867263,216.607647 89.2248826,229.392473 72.1723804,236.005478 L35.9763085,250 Z" id="Path"></path>
            <path d="M436.837482,8.09572713 L436.837482,26.8380731 C421.32265,10.3138523 399.381472,0 375.002385,0 C328.12393,0 290,38.1502249 290,85.0593228 C290,131.971285 328.12393,170.122465 375.002385,170.122465 C399.381472,170.122465 421.32265,159.695463 436.837482,143.286302 L436.837482,153.488914 C436.837482,185.648386 410.683636,211.820926 378.547133,211.820926 L331.224988,211.820926 L331.224988,235 L378.547133,235 C423.43137,235 460,198.400458 460,153.488914 L460,8.09572713 L436.837482,8.09572713 Z M375.002385,146.943391 C340.866893,146.943391 313.162518,119.219214 313.162518,85.0593228 C313.162518,50.9037284 340.866893,23.1785962 375.002385,23.1785962 C409.133107,23.1785962 436.837482,50.9037284 436.837482,85.0593228 C436.837482,119.219214 409.023377,146.943391 375.002385,146.943391 Z" id="Shape"></path>
        </g>
    </g>
</svg>