<?xml version="1.0" encoding="UTF-8"?>
<svg width="1310px" height="800px" viewBox="0 0 1310 800" version="1.1" xmlns="http://www.w3.org/2000/svg" xmlns:xlink="http://www.w3.org/1999/xlink">
    <!-- Generator: Sketch 61 (89581) - https://sketch.com -->
    <title>The Acropolis Incentive Structure</title>
    <desc>Created with Sketch.</desc>
    <g id="The-Acropolis-Incentive-Structure" stroke="none" stroke-width="1" fill="none" fill-rule="evenodd">
        <rect fill="#000000" x="0" y="0" width="1310" height="800"></rect>
        <g id="Group" transform="translate(230.000000, -80.000000)">
            <g id="Group-Copy-2" transform="translate(360.000000, 240.000000) rotate(-270.000000) translate(-360.000000, -240.000000) translate(120.000000, -120.000000)">
                <g id="Group-2" transform="translate(-0.000000, 0.000000)">
                    <path d="M328.888889,631.111111 L328.888889,640 L320,640 L320,631.111111 L328.888889,631.111111 Z M346.666667,631.111111 L346.666667,640 L337.777778,640 L337.777778,631.111111 L346.666667,631.111111 Z M364.444444,631.111111 L364.444444,640 L355.555556,640 L355.555556,631.111111 L364.444444,631.111111 Z M382.222222,631.111111 L382.222222,640 L373.333333,640 L373.333333,631.111111 L382.222222,631.111111 Z M400,631.111111 L400,640 L391.111111,640 L391.111111,631.111111 L400,631.111111 Z M337.777778,622.222222 L337.777778,631.111111 L328.888889,631.111111 L328.888889,622.222222 L337.777778,622.222222 Z M355.555556,622.222222 L355.555556,631.111111 L346.666667,631.111111 L346.666667,622.222222 L355.555556,622.222222 Z M373.333333,622.222222 L373.333333,631.111111 L364.444444,631.111111 L364.444444,622.222222 L373.333333,622.222222 Z M391.111111,622.222222 L391.111111,631.111111 L382.222222,631.111111 L382.222222,622.222222 L391.111111,622.222222 Z M328.888889,613.333333 L328.888889,622.222222 L320,622.222222 L320,613.333333 L328.888889,613.333333 Z M346.666667,613.333333 L346.666667,622.222222 L337.777778,622.222222 L337.777778,613.333333 L346.666667,613.333333 Z M364.444444,613.333333 L364.444444,622.222222 L355.555556,622.222222 L355.555556,613.333333 L364.444444,613.333333 Z M382.222222,613.333333 L382.222222,622.222222 L373.333333,622.222222 L373.333333,613.333333 L382.222222,613.333333 Z M400,613.333333 L400,622.222222 L391.111111,622.222222 L391.111111,613.333333 L400,613.333333 Z M337.777778,604.444444 L337.777778,613.333333 L328.888889,613.333333 L328.888889,604.444444 L337.777778,604.444444 Z M355.555556,604.444444 L355.555556,613.333333 L346.666667,613.333333 L346.666667,604.444444 L355.555556,604.444444 Z M373.333333,604.444444 L373.333333,613.333333 L364.444444,613.333333 L364.444444,604.444444 L373.333333,604.444444 Z M391.111111,604.444444 L391.111111,613.333333 L382.222222,613.333333 L382.222222,604.444444 L391.111111,604.444444 Z M364.444444,595.555556 L364.444444,604.444444 L355.555556,604.444444 L355.555556,595.555556 L364.444444,595.555556 Z M382.222222,595.555556 L382.222222,604.444444 L373.333333,604.444444 L373.333333,595.555556 L382.222222,595.555556 Z M400,595.555556 L400,604.444444 L391.111111,604.444444 L391.111111,595.555556 L400,595.555556 Z M328.888889,595.555556 L328.888889,604.444444 L320,604.444444 L320,595.555556 L328.888889,595.555556 Z M346.666667,595.555556 L346.666667,604.444444 L337.777778,604.444444 L337.777778,595.555556 L346.666667,595.555556 Z M337.777778,586.666667 L337.777778,595.555556 L328.888889,595.555556 L328.888889,586.666667 L337.777778,586.666667 Z M355.555556,586.666667 L355.555556,595.555556 L346.666667,595.555556 L346.666667,586.666667 L355.555556,586.666667 Z M373.333333,586.666667 L373.333333,595.555556 L364.444444,595.555556 L364.444444,586.666667 L373.333333,586.666667 Z M391.111111,586.666667 L391.111111,595.555556 L382.222222,595.555556 L382.222222,586.666667 L391.111111,586.666667 Z M328.888889,577.777778 L328.888889,586.666667 L320,586.666667 L320,577.777778 L328.888889,577.777778 Z M346.666667,577.777778 L346.666667,586.666667 L337.777778,586.666667 L337.777778,577.777778 L346.666667,577.777778 Z M364.444444,577.777778 L364.444444,586.666667 L355.555556,586.666667 L355.555556,577.777778 L364.444444,577.777778 Z M382.222222,577.777778 L382.222222,586.666667 L373.333333,586.666667 L373.333333,577.777778 L382.222222,577.777778 Z M400,577.777778 L400,586.666667 L391.111111,586.666667 L391.111111,577.777778 L400,577.777778 Z M337.777778,568.888889 L337.777778,577.777778 L328.888889,577.777778 L328.888889,568.888889 L337.777778,568.888889 Z M355.555556,568.888889 L355.555556,577.777778 L346.666667,577.777778 L346.666667,568.888889 L355.555556,568.888889 Z M373.333333,568.888889 L373.333333,577.777778 L364.444444,577.777778 L364.444444,568.888889 L373.333333,568.888889 Z M391.111111,568.888889 L391.111111,577.777778 L382.222222,577.777778 L382.222222,568.888889 L391.111111,568.888889 Z M328.888889,560 L328.888889,568.888889 L320,568.888889 L320,560 L328.888889,560 Z M346.666667,560 L346.666667,568.888889 L337.777778,568.888889 L337.777778,560 L346.666667,560 Z M364.444444,560 L364.444444,568.888889 L355.555556,568.888889 L355.555556,560 L364.444444,560 Z M382.222222,560 L382.222222,568.888889 L373.333333,568.888889 L373.333333,560 L382.222222,560 Z M400,560 L400,568.888889 L391.111111,568.888889 L391.111111,560 L400,560 Z" id="Shape-Copy-5" fill="#FFFFFF"></path>
                    <path d="M480,488.8 L480,480 L400,480 L400,488.8 L480,488.8 Z M480,498.4 L480,507.2 L400,507.2 L400,498.4 L480,498.4 Z M480,515.2 L480,524 L400,524 L400,515.2 L480,515.2 Z M480,541.6 L480,532.8 L400,532.8 L400,541.6 L480,541.6 Z M480,551.2 L480,560 L400,560 L400,551.2 L480,551.2 Z" id="Shape-Copy-6" fill="#4038FF" transform="translate(440.000000, 520.000000) rotate(-90.000000) translate(-440.000000, -520.000000) "></path>
                    <path d="M231.111032,320 L240,320 C240,364.182044 204.182206,400 160,400 L160,391.111111 C199.275445,391.111111 231.111032,359.275378 231.111032,320 Z M213.485612,320 L222.4,320 C222.4,354.462629 194.462684,382.4 160,382.4 L160,373.485714 C189.537608,373.485714 213.485612,349.537664 213.485612,320 Z M204,320 L195.2,320 C195.2,339.438848 179.439058,355.2 160,355.2 L160,364 C184.300937,364 204,344.301376 204,320 Z M178.133333,320 L187.2,320 C187.2,335.023104 175.023268,347.2 160,347.2 L160,338.133333 C170.01406,338.133333 178.133333,330.013952 178.133333,320 Z M160,320 L168.8,320 C168.8,324.861824 164.861878,328.8 160,328.8 L160,320 Z" id="Shape" fill="#4038FF" transform="translate(200.000000, 360.000000) rotate(-90.000000) translate(-200.000000, -360.000000) "></path>
                    <path d="M400,720 L480,720 L480,640 C435.817794,640 400,675.817956 400,720 Z" id="Path-Copy-4" fill="#4038FF" fill-rule="nonzero" transform="translate(440.000000, 680.000000) rotate(-90.000000) translate(-440.000000, -680.000000) "></path>
                    <path d="M248.888968,80 L240,80 C240,35.8179556 275.817794,0 320,0 L320,8.88888889 C280.724555,8.88888889 248.888968,40.7246222 248.888968,80 Z M266.514388,80 L257.6,80 C257.6,45.5373714 285.537316,17.6 320,17.6 L320,26.5142857 C290.462392,26.5142857 266.514388,50.462336 266.514388,80 Z M276,80 L284.800141,80 C284.800141,60.560448 300.56063,44.8 320,44.8 L320,36 C295.698674,36 276,55.698624 276,80 Z M301.866183,80 L292.8,80 C292.8,64.9761707 304.976331,52.8 320,52.8 L320,61.8666667 C309.985672,61.8666667 301.866183,69.986048 301.866183,80 Z M320,80 L311.2,80 C311.2,75.138176 315.138122,71.2 320,71.2 L320,80 Z" id="Shape-Copy-7" fill="#1F252E" transform="translate(280.000000, 40.000000) rotate(-90.000000) translate(-280.000000, -40.000000) "></path>
                    <path d="M248.888968,560 L240,560 C240,515.817956 275.817794,480 320,480 L320,488.888889 C280.724555,488.888889 248.888968,520.724622 248.888968,560 Z M266.514388,560 L257.6,560 C257.6,525.537371 285.537316,497.6 320,497.6 L320,506.514286 C290.462392,506.514286 266.514388,530.462336 266.514388,560 Z M276,560 L284.800141,560 C284.800141,540.560448 300.56063,524.8 320,524.8 L320,516 C295.698674,516 276,535.698624 276,560 Z M301.866183,560 L292.8,560 C292.8,544.976171 304.976331,532.8 320,532.8 L320,541.866667 C309.985672,541.866667 301.866183,549.986048 301.866183,560 Z M320,560 L311.2,560 C311.2,555.138176 315.138122,551.2 320,551.2 L320,560 Z" id="Shape-Copy-2" fill="#1F252E" transform="translate(280.000000, 520.000000) scale(-1, 1) translate(-280.000000, -520.000000) "></path>
                    <path d="M400,153.733689 L400,160 L393.733096,160 L320,86.2670222 L320,80 L326.266192,80 L400,153.733689 Z M320,99.2 L320,111.705005 L368.295818,160 L380.8,160 L320,99.2 Z M320,136.577422 L320,124 L356,160 L343.422064,160 L320,136.577422 Z M320,160 L331.2,160 L320,148.8 L320,160 Z M339.2,80 L351.704744,80 L400,128.294995 L400,140.8 L339.2,80 Z M376.577936,80 L364,80 L400,116 L400,103.422578 L376.577936,80 Z M400,91.2 L388.8,80 L400,80 L400,91.2 Z" id="Shape-Copy" fill="#1F252E" transform="translate(360.000000, 120.000000) rotate(-270.000000) translate(-360.000000, -120.000000) "></path>
                </g>
            </g>
            <g id="Group-Copy-3" transform="translate(440.000000, 560.000000) scale(-1, -1) rotate(-90.000000) translate(-440.000000, -560.000000) translate(200.000000, 200.000000)">
                <g id="Group-2" transform="translate(-0.000000, 0.000000)">
                    <path d="M248.888889,231.111111 L248.888889,240 L240,240 L240,231.111111 L248.888889,231.111111 Z M266.666667,231.111111 L266.666667,240 L257.777778,240 L257.777778,231.111111 L266.666667,231.111111 Z M284.444444,231.111111 L284.444444,240 L275.555556,240 L275.555556,231.111111 L284.444444,231.111111 Z M302.222222,231.111111 L302.222222,240 L293.333333,240 L293.333333,231.111111 L302.222222,231.111111 Z M320,231.111111 L320,240 L311.111111,240 L311.111111,231.111111 L320,231.111111 Z M257.777778,222.222222 L257.777778,231.111111 L248.888889,231.111111 L248.888889,222.222222 L257.777778,222.222222 Z M275.555556,222.222222 L275.555556,231.111111 L266.666667,231.111111 L266.666667,222.222222 L275.555556,222.222222 Z M293.333333,222.222222 L293.333333,231.111111 L284.444444,231.111111 L284.444444,222.222222 L293.333333,222.222222 Z M311.111111,222.222222 L311.111111,231.111111 L302.222222,231.111111 L302.222222,222.222222 L311.111111,222.222222 Z M248.888889,213.333333 L248.888889,222.222222 L240,222.222222 L240,213.333333 L248.888889,213.333333 Z M266.666667,213.333333 L266.666667,222.222222 L257.777778,222.222222 L257.777778,213.333333 L266.666667,213.333333 Z M284.444444,213.333333 L284.444444,222.222222 L275.555556,222.222222 L275.555556,213.333333 L284.444444,213.333333 Z M302.222222,213.333333 L302.222222,222.222222 L293.333333,222.222222 L293.333333,213.333333 L302.222222,213.333333 Z M320,213.333333 L320,222.222222 L311.111111,222.222222 L311.111111,213.333333 L320,213.333333 Z M257.777778,204.444444 L257.777778,213.333333 L248.888889,213.333333 L248.888889,204.444444 L257.777778,204.444444 Z M275.555556,204.444444 L275.555556,213.333333 L266.666667,213.333333 L266.666667,204.444444 L275.555556,204.444444 Z M293.333333,204.444444 L293.333333,213.333333 L284.444444,213.333333 L284.444444,204.444444 L293.333333,204.444444 Z M311.111111,204.444444 L311.111111,213.333333 L302.222222,213.333333 L302.222222,204.444444 L311.111111,204.444444 Z M284.444444,195.555556 L284.444444,204.444444 L275.555556,204.444444 L275.555556,195.555556 L284.444444,195.555556 Z M302.222222,195.555556 L302.222222,204.444444 L293.333333,204.444444 L293.333333,195.555556 L302.222222,195.555556 Z M320,195.555556 L320,204.444444 L311.111111,204.444444 L311.111111,195.555556 L320,195.555556 Z M248.888889,195.555556 L248.888889,204.444444 L240,204.444444 L240,195.555556 L248.888889,195.555556 Z M266.666667,195.555556 L266.666667,204.444444 L257.777778,204.444444 L257.777778,195.555556 L266.666667,195.555556 Z M257.777778,186.666667 L257.777778,195.555556 L248.888889,195.555556 L248.888889,186.666667 L257.777778,186.666667 Z M275.555556,186.666667 L275.555556,195.555556 L266.666667,195.555556 L266.666667,186.666667 L275.555556,186.666667 Z M293.333333,186.666667 L293.333333,195.555556 L284.444444,195.555556 L284.444444,186.666667 L293.333333,186.666667 Z M311.111111,186.666667 L311.111111,195.555556 L302.222222,195.555556 L302.222222,186.666667 L311.111111,186.666667 Z M248.888889,177.777778 L248.888889,186.666667 L240,186.666667 L240,177.777778 L248.888889,177.777778 Z M266.666667,177.777778 L266.666667,186.666667 L257.777778,186.666667 L257.777778,177.777778 L266.666667,177.777778 Z M284.444444,177.777778 L284.444444,186.666667 L275.555556,186.666667 L275.555556,177.777778 L284.444444,177.777778 Z M302.222222,177.777778 L302.222222,186.666667 L293.333333,186.666667 L293.333333,177.777778 L302.222222,177.777778 Z M320,177.777778 L320,186.666667 L311.111111,186.666667 L311.111111,177.777778 L320,177.777778 Z M257.777778,168.888889 L257.777778,177.777778 L248.888889,177.777778 L248.888889,168.888889 L257.777778,168.888889 Z M275.555556,168.888889 L275.555556,177.777778 L266.666667,177.777778 L266.666667,168.888889 L275.555556,168.888889 Z M293.333333,168.888889 L293.333333,177.777778 L284.444444,177.777778 L284.444444,168.888889 L293.333333,168.888889 Z M311.111111,168.888889 L311.111111,177.777778 L302.222222,177.777778 L302.222222,168.888889 L311.111111,168.888889 Z M248.888889,160 L248.888889,168.888889 L240,168.888889 L240,160 L248.888889,160 Z M266.666667,160 L266.666667,168.888889 L257.777778,168.888889 L257.777778,160 L266.666667,160 Z M284.444444,160 L284.444444,168.888889 L275.555556,168.888889 L275.555556,160 L284.444444,160 Z M302.222222,160 L302.222222,168.888889 L293.333333,168.888889 L293.333333,160 L302.222222,160 Z M320,160 L320,168.888889 L311.111111,168.888889 L311.111111,160 L320,160 Z" id="Shape-Copy-4" fill="#FFFFFF" transform="translate(280.000000, 200.000000) scale(-1, -1) translate(-280.000000, -200.000000) "></path>
                    <path d="M328.888889,631.111111 L328.888889,640 L320,640 L320,631.111111 L328.888889,631.111111 Z M346.666667,631.111111 L346.666667,640 L337.777778,640 L337.777778,631.111111 L346.666667,631.111111 Z M364.444444,631.111111 L364.444444,640 L355.555556,640 L355.555556,631.111111 L364.444444,631.111111 Z M382.222222,631.111111 L382.222222,640 L373.333333,640 L373.333333,631.111111 L382.222222,631.111111 Z M400,631.111111 L400,640 L391.111111,640 L391.111111,631.111111 L400,631.111111 Z M337.777778,622.222222 L337.777778,631.111111 L328.888889,631.111111 L328.888889,622.222222 L337.777778,622.222222 Z M355.555556,622.222222 L355.555556,631.111111 L346.666667,631.111111 L346.666667,622.222222 L355.555556,622.222222 Z M373.333333,622.222222 L373.333333,631.111111 L364.444444,631.111111 L364.444444,622.222222 L373.333333,622.222222 Z M391.111111,622.222222 L391.111111,631.111111 L382.222222,631.111111 L382.222222,622.222222 L391.111111,622.222222 Z M328.888889,613.333333 L328.888889,622.222222 L320,622.222222 L320,613.333333 L328.888889,613.333333 Z M346.666667,613.333333 L346.666667,622.222222 L337.777778,622.222222 L337.777778,613.333333 L346.666667,613.333333 Z M364.444444,613.333333 L364.444444,622.222222 L355.555556,622.222222 L355.555556,613.333333 L364.444444,613.333333 Z M382.222222,613.333333 L382.222222,622.222222 L373.333333,622.222222 L373.333333,613.333333 L382.222222,613.333333 Z M400,613.333333 L400,622.222222 L391.111111,622.222222 L391.111111,613.333333 L400,613.333333 Z M337.777778,604.444444 L337.777778,613.333333 L328.888889,613.333333 L328.888889,604.444444 L337.777778,604.444444 Z M355.555556,604.444444 L355.555556,613.333333 L346.666667,613.333333 L346.666667,604.444444 L355.555556,604.444444 Z M373.333333,604.444444 L373.333333,613.333333 L364.444444,613.333333 L364.444444,604.444444 L373.333333,604.444444 Z M391.111111,604.444444 L391.111111,613.333333 L382.222222,613.333333 L382.222222,604.444444 L391.111111,604.444444 Z M364.444444,595.555556 L364.444444,604.444444 L355.555556,604.444444 L355.555556,595.555556 L364.444444,595.555556 Z M382.222222,595.555556 L382.222222,604.444444 L373.333333,604.444444 L373.333333,595.555556 L382.222222,595.555556 Z M400,595.555556 L400,604.444444 L391.111111,604.444444 L391.111111,595.555556 L400,595.555556 Z M328.888889,595.555556 L328.888889,604.444444 L320,604.444444 L320,595.555556 L328.888889,595.555556 Z M346.666667,595.555556 L346.666667,604.444444 L337.777778,604.444444 L337.777778,595.555556 L346.666667,595.555556 Z M337.777778,586.666667 L337.777778,595.555556 L328.888889,595.555556 L328.888889,586.666667 L337.777778,586.666667 Z M355.555556,586.666667 L355.555556,595.555556 L346.666667,595.555556 L346.666667,586.666667 L355.555556,586.666667 Z M373.333333,586.666667 L373.333333,595.555556 L364.444444,595.555556 L364.444444,586.666667 L373.333333,586.666667 Z M391.111111,586.666667 L391.111111,595.555556 L382.222222,595.555556 L382.222222,586.666667 L391.111111,586.666667 Z M328.888889,577.777778 L328.888889,586.666667 L320,586.666667 L320,577.777778 L328.888889,577.777778 Z M346.666667,577.777778 L346.666667,586.666667 L337.777778,586.666667 L337.777778,577.777778 L346.666667,577.777778 Z M364.444444,577.777778 L364.444444,586.666667 L355.555556,586.666667 L355.555556,577.777778 L364.444444,577.777778 Z M382.222222,577.777778 L382.222222,586.666667 L373.333333,586.666667 L373.333333,577.777778 L382.222222,577.777778 Z M400,577.777778 L400,586.666667 L391.111111,586.666667 L391.111111,577.777778 L400,577.777778 Z M337.777778,568.888889 L337.777778,577.777778 L328.888889,577.777778 L328.888889,568.888889 L337.777778,568.888889 Z M355.555556,568.888889 L355.555556,577.777778 L346.666667,577.777778 L346.666667,568.888889 L355.555556,568.888889 Z M373.333333,568.888889 L373.333333,577.777778 L364.444444,577.777778 L364.444444,568.888889 L373.333333,568.888889 Z M391.111111,568.888889 L391.111111,577.777778 L382.222222,577.777778 L382.222222,568.888889 L391.111111,568.888889 Z M328.888889,560 L328.888889,568.888889 L320,568.888889 L320,560 L328.888889,560 Z M346.666667,560 L346.666667,568.888889 L337.777778,568.888889 L337.777778,560 L346.666667,560 Z M364.444444,560 L364.444444,568.888889 L355.555556,568.888889 L355.555556,560 L364.444444,560 Z M382.222222,560 L382.222222,568.888889 L373.333333,568.888889 L373.333333,560 L382.222222,560 Z M400,560 L400,568.888889 L391.111111,568.888889 L391.111111,560 L400,560 Z" id="Shape-Copy-5" fill="#FFFFFF" transform="translate(360.000000, 600.000000) scale(-1, -1) translate(-360.000000, -600.000000) "></path>
                    <path d="M240,88.8 L240,80 L160,80 L160,88.8 L240,88.8 Z M240,98.4 L240,107.2 L160,107.2 L160,98.4 L240,98.4 Z M240,115.2 L240,124 L160,124 L160,115.2 L240,115.2 Z M240,141.6 L240,132.8 L160,132.8 L160,141.6 L240,141.6 Z M240,151.2 L240,160 L160,160 L160,151.2 L240,151.2 Z" id="Shape" fill="#4038FF" transform="translate(200.000000, 120.000000) scale(-1, -1) translate(-200.000000, -120.000000) "></path>
                    <path d="M480,488.8 L480,480 L400,480 L400,488.8 L480,488.8 Z M480,498.4 L480,507.2 L400,507.2 L400,498.4 L480,498.4 Z M480,515.2 L480,524 L400,524 L400,515.2 L480,515.2 Z M480,541.6 L480,532.8 L400,532.8 L400,541.6 L480,541.6 Z M480,551.2 L480,560 L400,560 L400,551.2 L480,551.2 Z" id="Shape-Copy-6" fill="#4038FF" transform="translate(440.000000, 520.000000) scale(-1, -1) rotate(-90.000000) translate(-440.000000, -520.000000) "></path>
                    <path d="M400,720 L480,720 L480,640 C435.817794,640 400,675.817956 400,720 Z" id="Path-Copy-4" fill="#1F252E" fill-rule="nonzero" transform="translate(440.000000, 680.000000) scale(-1, -1) rotate(-90.000000) translate(-440.000000, -680.000000) "></path>
                    <path d="M248.888968,400 L240,400 C240,355.817956 275.817794,320 320,320 L320,328.888889 C280.724555,328.888889 248.888968,360.724622 248.888968,400 Z M266.514388,400 L257.6,400 C257.6,365.537371 285.537316,337.6 320,337.6 L320,346.514286 C290.462392,346.514286 266.514388,370.462336 266.514388,400 Z M276,400 L284.800141,400 C284.800141,380.560448 300.56063,364.8 320,364.8 L320,356 C295.698674,356 276,375.698624 276,400 Z M301.866183,400 L292.8,400 C292.8,384.976171 304.976331,372.8 320,372.8 L320,381.866667 C309.985672,381.866667 301.866183,389.986048 301.866183,400 Z M320,400 L311.2,400 C311.2,395.138176 315.138122,391.2 320,391.2 L320,400 Z" id="Shape" fill="#4038FF" transform="translate(280.000000, 360.000000) scale(-1, -1) translate(-280.000000, -360.000000) "></path>
                    <path d="M8.88896797,80 L-2.84217094e-14,80 C-2.84217094e-14,35.8179556 35.8177936,0 80,0 L80,8.88888889 C40.7245552,8.88888889 8.88896797,40.7246222 8.88896797,80 Z M26.5143877,80 L17.6,80 C17.6,45.5373714 45.5373155,17.6 80,17.6 L80,26.5142857 C50.4623916,26.5142857 26.5143877,50.462336 26.5143877,80 Z M36,80 L44.8001409,80 C44.8001409,60.560448 60.5606303,44.8 80,44.8 L80,36 C55.698674,36 36,55.698624 36,80 Z M61.8661827,80 L52.8,80 C52.8,64.9761707 64.9763305,52.8 80,52.8 L80,61.8666667 C69.9856723,61.8666667 61.8661827,69.986048 61.8661827,80 Z M80,80 L71.2,80 C71.2,75.138176 75.1381215,71.2 80,71.2 L80,80 Z" id="Shape-Copy-3" fill="#1F252E" transform="translate(40.000000, 40.000000) scale(-1, -1) translate(-40.000000, -40.000000) "></path>
                    <path d="M248.888968,80 L240,80 C240,35.8179556 275.817794,0 320,0 L320,8.88888889 C280.724555,8.88888889 248.888968,40.7246222 248.888968,80 Z M266.514388,80 L257.6,80 C257.6,45.5373714 285.537316,17.6 320,17.6 L320,26.5142857 C290.462392,26.5142857 266.514388,50.462336 266.514388,80 Z M276,80 L284.800141,80 C284.800141,60.560448 300.56063,44.8 320,44.8 L320,36 C295.698674,36 276,55.698624 276,80 Z M301.866183,80 L292.8,80 C292.8,64.9761707 304.976331,52.8 320,52.8 L320,61.8666667 C309.985672,61.8666667 301.866183,69.986048 301.866183,80 Z M320,80 L311.2,80 C311.2,75.138176 315.138122,71.2 320,71.2 L320,80 Z" id="Shape-Copy-7" fill="#1F252E" transform="translate(280.000000, 40.000000) scale(-1, -1) rotate(-90.000000) translate(-280.000000, -40.000000) "></path>
                    <path d="M248.888968,560 L240,560 C240,515.817956 275.817794,480 320,480 L320,488.888889 C280.724555,488.888889 248.888968,520.724622 248.888968,560 Z M266.514388,560 L257.6,560 C257.6,525.537371 285.537316,497.6 320,497.6 L320,506.514286 C290.462392,506.514286 266.514388,530.462336 266.514388,560 Z M276,560 L284.800141,560 C284.800141,540.560448 300.56063,524.8 320,524.8 L320,516 C295.698674,516 276,535.698624 276,560 Z M301.866183,560 L292.8,560 C292.8,544.976171 304.976331,532.8 320,532.8 L320,541.866667 C309.985672,541.866667 301.866183,549.986048 301.866183,560 Z M320,560 L311.2,560 C311.2,555.138176 315.138122,551.2 320,551.2 L320,560 Z" id="Shape-Copy-2" fill="#1F252E" transform="translate(280.000000, 520.000000) scale(-1, -1) translate(-280.000000, -520.000000) "></path>
                    <path d="M400,153.733689 L400,160 L393.733096,160 L320,86.2670222 L320,80 L326.266192,80 L400,153.733689 Z M320,99.2 L320,111.705005 L368.295818,160 L380.8,160 L320,99.2 Z M320,136.577422 L320,124 L356,160 L343.422064,160 L320,136.577422 Z M320,160 L331.2,160 L320,148.8 L320,160 Z M339.2,80 L351.704744,80 L400,128.294995 L400,140.8 L339.2,80 Z M376.577936,80 L364,80 L400,116 L400,103.422578 L376.577936,80 Z M400,91.2 L388.8,80 L400,80 L400,91.2 Z" id="Shape-Copy" fill="#1F252E" transform="translate(360.000000, 120.000000) scale(-1, -1) rotate(-270.000000) translate(-360.000000, -120.000000) "></path>
                    <path d="M480,233.733689 L480,240 L473.733096,240 L400,166.267022 L400,160 L406.266192,160 L480,233.733689 Z M400,179.2 L400,191.705005 L448.295818,240 L460.8,240 L400,179.2 Z M400,216.577422 L400,204 L436,240 L423.422064,240 L400,216.577422 Z M400,240 L411.2,240 L400,228.8 L400,240 Z M419.2,160 L431.704744,160 L480,208.294995 L480,220.8 L419.2,160 Z M456.577936,160 L444,160 L480,196 L480,183.422578 L456.577936,160 Z M480,171.2 L468.8,160 L480,160 L480,171.2 Z" id="Shape-Copy-8" fill="#4038FF" transform="translate(440.000000, 200.000000) scale(-1, -1) rotate(-270.000000) translate(-440.000000, -200.000000) "></path>
                </g>
            </g>
        </g>
        <g id="Monere_1" transform="translate(485.000000, 195.000000)">
            <g id="Group-2" transform="translate(78.877756, 0.000000)">
                <path d="M178.513065,15.6674445 C224.673616,39.9433751 234.813011,122.843095 203.698011,193.317901 C188.979536,226.690132 167.093803,253.950337 142.378141,270.220376 C133.140285,276.56553 122.450304,280.42728 111.320025,281.440103 C105.267388,281.961475 99.1709424,281.447293 93.2881147,279.91927 C75.9293202,277.910623 62.5475952,274.993303 53.1429397,271.167309 C43.3969863,267.236101 33.5751888,259.952365 23.6775474,249.316102 C-4.96304147,215.843439 -7.60810082,152.025863 18.3874287,93.0433863 C49.5024279,22.6259707 111.120934,-17.1308872 157.267265,7.17373834 C163.111993,10.2154034 171.843533,12.1523127 178.513065,15.6674445 Z" id="Path" stroke="#000000" stroke-width="9" fill="#000000" fill-rule="nonzero"></path>
                <path d="M95.8905118,264.56747 C110.438338,263.792706 146.260405,240.435014 168.416333,202.672456 C188.965315,167.635918 196.630299,119.055361 192.890242,92.6416569 C188.48181,61.550675 182.864614,42.5259209 157.338369,25.2946014 C163.396408,26.0119752 170.137043,29.3836322 175.597811,32.2674751 C214.477339,52.5691546 221.843687,123.388299 193.558617,186.976316 C179.650725,218.325553 159.428819,242.744958 137.770618,257.035045 C118.657931,269.660824 111.519115,268.326509 106.48497,267.078278 C100.469593,265.715268 96.9428472,264.854419 95.8905118,264.56747 Z" id="Path" fill="#C4C3C6"></path>
                <path d="M169.226915,175.039215 C196.872052,111.910318 188.09785,44.2045756 149.616502,23.7737689 C111.135155,3.34296207 57.5229305,37.9490758 29.8635733,101.049278 C2.20421612,164.149481 10.9926391,231.883918 49.4739864,252.314725 C87.9553337,272.745532 141.567558,238.168113 169.226915,175.039215 Z" id="Oval" fill="#D8D8D8"></path>
                <path d="M169.226915,175.039215 C196.872052,111.910318 188.09785,44.2045756 149.616502,23.7737689 C111.135155,3.34296207 57.5229305,37.9490758 29.8635733,101.049278 C2.20421612,164.149481 10.9926391,231.883918 49.4739864,252.314725 C87.9553337,272.745532 141.567558,238.168113 169.226915,175.039215 Z" id="Oval-Copy" fill="#C4C3C6"></path>
                <path d="M132.153422,34.6635037 C100.78245,31.062287 64.2635656,61.9237093 45.6343842,110.576003 C24.4170264,165.97161 34.4568753,223.390212 68.0605056,238.813749 C69.9005285,239.665974 71.8021082,240.375829 73.7488053,240.937176 C69.3223423,240.444485 65.0019594,239.24337 60.950131,237.379002 C27.3465007,221.941117 17.3066518,164.536863 38.5382303,109.141255 C58.5894867,56.8160076 99.3603746,25.0076519 132.139201,34.6635037 L132.153422,34.6635037 Z" id="Path" fill="#FFFFFF"></path>
                <path d="M59.3574071,255.58595 C95.0088253,261.697975 138.766071,227.967057 163.168876,172.542755 C190.998882,109.413857 183.220133,41.9807168 145.7769,21.9659868 C143.734115,20.8564011 141.614429,19.8973987 139.434446,19.0964915 C144.445437,19.9600956 149.288679,21.6211819 153.783182,24.017676 C191.226414,44.1041433 199.019385,111.451199 171.175158,174.666181 C144.880993,234.322989 96.2033683,268.843018 59.3289656,255.600297 L59.3574071,255.58595 Z" id="Path" fill="#FFFFFF"></path>
                <path d="M106.541853,229.157898 C124.246686,215.513447 140.0886,192.873129 149.815593,164.594252 C169.070487,108.524314 156.997071,51.4500514 122.796169,37.1312696 C117.152748,34.7647689 111.071243,33.6491871 104.96335,33.860045 C116.524819,30.9905496 127.915639,31.9518306 138.097695,37.5186515 C170.805419,55.4099549 178.61261,113.861575 155.432789,168.080689 C143.430476,196.115659 125.569215,217.522094 106.48497,229.186592 L106.541853,229.157898 Z" id="Path" fill="#000000" fill-rule="nonzero"></path>
                <path d="M38.6437391,181.619749 C44.1209376,180.279732 49.6821852,178.896949 55.3134737,177.542676 C55.8457845,177.414377 55.9998745,177.157778 56.1119399,176.302448 C59.7400587,150.343186 60.4544758,122.68752 64.0825945,96.7425134 C64.0825945,96.386126 67.1083615,97.7831648 67.1643942,97.3554999 C67.4165415,97.3554999 67.4865824,97.6548653 67.5986478,97.8401868 C77.6004886,113.891878 87.9198481,130.471022 98.5567263,147.577619 C99.0049881,148.290394 99.0049881,148.290394 99.6913889,147.263998 C116.725336,122.060278 135.048036,92.665441 145.568179,67.504487 C145.736278,67.1338441 152.964499,68.3455614 153.18863,67.9891739 L153.34272,67.9891739 L153.18863,69.1153583 C149.172951,97.806924 145.157273,126.503241 141.141594,155.204311 C140.94548,156.629861 154.043129,147.805707 155.037709,147.563364 C162.0418,145.852704 155.948241,152.809387 163.162454,151.041705 C161.052829,157.142779 158.602065,163.116081 155.822167,168.932355 C155.051718,170.557482 154.225235,172.154098 153.454785,173.779225 C153.286595,174.326681 152.842764,174.740256 152.292106,174.862643 C142.430347,177.019975 132.78338,179.158299 123.351205,181.277617 C122.720837,181.420172 116.052944,177.528421 116.193025,176.587558 C118.644457,159.153084 127.609692,145.410784 130.047116,127.97631 L130.24323,126.55076 C129.907034,127.006936 129.696911,127.306301 129.486788,127.619922 C117.878676,144.612476 106.541389,161.215379 95.4749266,177.428632 C94.9846403,178.127152 90.0397527,173.764969 89.7315727,173.251771 C82.7274826,161.576518 80.6262555,154.577069 73.9163371,143.400758 C73.8024736,143.197539 73.6995939,142.988147 73.6081572,142.773517 L73.4540672,142.901816 L73.3139854,143.928212 L66.4639852,192.82457 C66.295887,193.993521 66.295887,193.993521 65.5674617,194.150331 L41.977686,199.396355 C41.5574406,199.496143 41.3473179,199.396355 41.2072361,198.783368 C39.9089399,193.263111 39.0747762,187.640401 38.71378,181.976136 C38.6819976,181.85922 38.6585892,181.740111 38.6437391,181.619749 Z" id="Path" fill="#000000" fill-rule="nonzero"></path>
                <path d="M35.7865168,177.948002 C41.0042874,176.639879 46.3062157,175.288631 51.6782752,173.966132 C52.197247,173.836758 52.3375097,173.592383 52.4497198,172.773009 C55.9469352,147.578457 59.4488261,122.383905 62.9553924,97.1893532 L63.1096813,96.0824796 C63.3481278,96.0824796 63.4182592,96.3843543 63.5304693,96.556854 L92.9856261,144.799294 C93.406414,145.503668 93.406414,145.503668 94.0656485,144.497419 C110.354818,120.00245 127.186336,94.6593564 144.560203,68.4681391 C144.784623,68.1375145 144.980991,67.77814 145.191385,67.4331404 L145.345674,67.4331404 L145.191385,68.525639 L133.577637,152.14491 C133.38127,153.582408 133.283086,153.395533 134.222846,153.151158 L154.574956,148.07679 C152.560456,154.001419 150.218968,159.803896 147.561824,165.456143 C146.832458,167.037391 146.032961,168.589889 145.303595,170.171137 C145.137676,170.694776 144.717944,171.092272 144.19552,171.220511 C134.788572,173.328842 125.582666,175.422797 116.577804,177.502378 C115.974675,177.631753 115.848438,177.502378 115.974675,176.524879 C118.340438,159.59115 120.678149,142.662213 122.987807,125.738068 L123.170149,124.386819 C122.861571,124.832444 122.665203,125.134318 122.454809,125.421818 C111.355358,141.876381 100.494353,157.976361 89.8717952,173.721758 C89.4229547,174.411757 89.226587,174.454882 88.9320355,173.951757 C82.2835858,162.624272 75.7379954,151.545952 69.2952642,140.716799 C69.1877184,140.522721 69.0939669,140.320948 69.0147389,140.11305 L68.86045,140.22805 L68.7201874,141.234298 L62.1138165,188.671739 C61.9595276,189.807363 61.9595276,189.807363 61.2582143,189.965487 C53.6092244,191.700069 46.1285496,193.410691 38.8161901,195.097356 C38.4094284,195.183606 38.2130607,195.097356 38.0868243,194.493607 C36.8724302,189.160454 36.102887,183.731097 35.7865168,178.264252 C35.7794809,178.158959 35.7794809,178.053296 35.7865168,177.948002 Z" id="Path" fill="#C4C3C6" fill-rule="nonzero"></path>
                <path d="M39.2442482,180.014613 L39.2442482,179.698768 C44.0597536,178.392318 48.9398099,177.042797 53.8844172,175.72199 C54.3620947,175.592781 54.4911967,175.348719 54.5944783,174.516036 C57.813422,149.363275 61.0366691,124.229656 64.2642196,99.1151785 C64.2642196,98.7706202 64.354591,98.4404184 64.4062318,98.0384336 C63.8510931,97.0765415 63.2959545,96.0859362 62.753726,95.1671138 C62.6504444,94.9948347 62.5858933,94.7364159 62.3664199,94.6933461 L62.2244077,95.7988042 C59.005464,120.951565 55.7822169,146.113898 52.5546664,171.285801 C52.4513848,172.104127 52.3222828,172.348189 51.8446053,172.477399 C46.899998,173.798206 42.0199416,175.147726 37.2173465,176.454177 C37.2108705,176.559335 37.2108705,176.664863 37.2173465,176.770022 C37.5211323,182.260444 38.2467493,187.711901 39.3862604,193.064762 C39.5024523,193.610312 39.6831951,193.753878 40.0575909,193.667739 L40.8451133,193.466746 C40.0387047,189.02809 39.5038564,184.533739 39.2442482,180.014613 L39.2442482,180.014613 Z" id="Path" fill="#FFFFFF" fill-rule="nonzero"></path>
                <path d="M96.202712,142.994997 C96.6203692,143.677735 96.6203692,143.677735 97.274699,142.696299 L144.845862,71.3217511 C145.166066,68.9606162 145.500192,66.5994812 145.834318,64.2098989 L145.987459,63.1288974 L145.834318,63.1288974 C145.625489,63.4702663 145.430582,63.8258589 145.207832,64.1530041 C127.944665,90.0780759 111.238374,115.154467 95.0889592,139.382176 C94.7548334,139.880006 94.6016924,140.136033 94.4624733,140.16448 L96.202712,142.994997 Z" id="Path" fill="#FFFFFF" fill-rule="nonzero"></path>
                <path d="M69.1781656,142.688069 C69.054763,142.487482 68.9622111,142.256036 68.8542338,142.040019 L68.6999806,142.163457 L68.6999806,142.286895 C75.0963478,152.902572 81.6212594,163.703406 88.2747153,174.689397 C88.4443938,174.967133 88.5832217,175.075141 88.7374749,175.028852 C82.0943026,164.042861 75.5745328,153.2626 69.1781656,142.688069 Z" id="Path" fill="#FFFFFF" fill-rule="nonzero"></path>
                <path d="M125.785346,127.659588 L125.949964,126.257795 L125.304154,127.346422 C124.506388,128.71839 123.708622,130.075445 122.898193,131.432501 C121.074728,146.573859 119.242822,161.715217 117.402473,176.856575 C117.288506,177.810988 117.402473,178.004853 117.94698,177.870638 L119.757782,177.393432 C121.76697,160.810513 123.776158,144.232565 125.785346,127.659588 Z" id="Path" fill="#FFFFFF" fill-rule="nonzero"></path>
                <path d="M131.833428,156.646333 C131.598916,158.072931 131.454601,157.901739 132.681279,157.659218 L154.039913,153.493552 C154.72541,152.066954 155.392867,150.640355 156.006206,149.213757 L132.35657,153.778871 C132.176176,154.763224 132.013822,155.704778 131.833428,156.646333 Z" id="Path" fill="#FFFFFF" fill-rule="nonzero"></path>
            </g>
            <path d="M334.011707,242.820711 C327.799926,236.990174 319.723143,234.388857 310.031003,235.106462 L308.797457,235.226063 C300.896895,236.138018 295.434052,239.950293 291.043219,243.015062 L290.02995,243.702767 C287.282132,245.305194 284.359493,246.574625 281.321709,247.485141 C279.721037,248.038295 278.07631,248.621348 276.416899,249.279153 C270.542874,251.581467 264.859756,254.167834 259.308803,256.6645 C249.748828,260.985078 240.600035,265.111304 231.407187,267.69767 C228.25967,263.795831 224.171166,260.792593 219.541658,258.981765 C211.39145,255.632943 202.257342,254.616337 191.640043,255.842245 C185.798753,256.615187 180.000308,257.693014 174.267616,259.071465 L168.892884,260.237573 C165.339099,260.985078 161.667834,261.732582 158.187474,262.151185 C155.640575,262.496869 153.062262,262.532001 150.507188,262.255836 C148.43564,261.945543 146.3959,261.445169 144.412887,260.760826 L143.987021,260.626275 C132.591414,257.068152 123.692267,254.093083 118.919622,252.493423 L115.439263,251.327316 C107.741859,248.93574 99.6357666,248.222571 91.6494641,249.234302 C74.9525501,251.162865 60.0472134,259.206016 50.531294,265.679408 C45.1418767,269.102979 33.349773,277.624534 29.3701215,285.548085 C28.6064983,286.714192 26.7121255,289.50986 25.6988563,290.945069 C21.6457795,294.518142 13.6717916,303.278898 0,318.991449 L52.9543291,407.361464 C53.9802803,409.046535 55.8078858,410.050366 57.7545791,409.998051 C59.7012725,409.945735 61.4743111,408.845141 62.4115082,407.107313 L62.4115082,407.017612 C74.0420763,385.713726 84.835596,373.469598 94.5717912,370.76363 C95.8828298,370.435392 97.2116663,370.185794 98.5514427,370.016125 C100.019949,369.776924 101.694046,369.567623 103.294717,369.388221 C116.18334,368.127061 129.14355,367.797333 142.077963,368.401515 C144.706589,368.491216 147.37927,368.655667 150.213486,368.850018 C157.40934,369.508639 164.648728,369.508639 171.844581,368.850018 C178.386228,368.19286 184.740179,366.24821 190.553348,363.124131 C195.108194,360.531071 199.520304,357.686304 203.769903,354.602577 C207.470538,352.03116 210.980268,349.579345 214.548738,347.605932 C222.038119,343.449805 229.718405,339.831882 237.868614,335.989708 L240.58535,334.718949 C266.817362,322.099756 291.76524,306.881906 315.067978,289.285609 C325.347521,282.333814 337.903248,274.784016 340.590614,261.34388 C342.073805,254.152884 339.224903,247.709393 334.011707,242.820711 Z" id="Path" stroke="#000000" stroke-width="9" fill="#000000" fill-rule="nonzero"></path>
            <path d="M316.989631,250.09619 C312.985853,246.30322 307.928449,245.362215 302.716513,245.753094 C297.209561,246.15845 293.613185,248.995939 289.24415,252.050584 C284.875114,255.105228 279.002906,256.654266 273.903357,258.695521 C256.876762,265.485229 240.355908,275.184811 222.317833,278.673765 C221.165869,278.905397 220.407258,278.861966 219.943663,277.414267 C218.491432,273.033079 215.174118,269.577215 210.938674,268.033179 C197.367972,262.40163 182.7015,266.990835 169.074605,269.871756 C162.190916,271.319455 154.731245,272.897447 147.678976,271.970919 C144.904308,271.558677 142.172171,270.88509 139.516887,269.958618 C124.878511,265.325982 114.482736,261.692258 112.136662,260.982885 C81.5674633,251.095103 45.168201,283.016861 43.5245446,288.489163 C43.4262062,288.807656 38.6216722,295.973765 38.3266569,296.19092 C35.8541482,298.130837 28.3804286,306.411674 18.8977956,317.3418 L33.5080745,341.952679 C44.3576776,360.447003 67.378939,366.917679 85.8381602,356.661299 C88.0129425,355.417753 90.3238049,354.445765 92.7218493,353.765901 C94.4278848,353.314874 96.1590522,352.971613 97.9056887,352.738035 C112.361436,350.580964 126.985763,350.609918 141.553897,351.073182 C155.180792,351.493014 169.552249,354.373935 182.111469,347.424981 C190.062833,343.081884 197.058909,336.914687 205.038369,332.426821 C213.369037,327.750754 222.00877,323.740628 230.606357,319.60021 C241.845033,314.258201 253.083709,308.800377 263.367098,301.706653 C270.180545,297.016109 276.628736,291.775439 283.3017,286.853263 C290.648984,281.395439 330.040544,262.430584 316.989631,250.09619 Z" id="Path" fill="#C4C3C6" fill-rule="nonzero"></path>
            <path d="M316.610888,252.443773 C312.612197,248.751392 307.561218,247.835343 302.355904,248.215856 C296.85595,248.610462 293.264143,251.372701 288.900659,254.346336 C284.537174,257.319971 278.672427,258.827928 273.579357,260.81505 C256.574396,267.424694 240.074533,276.867043 222.059376,280.263469 C220.908875,280.488958 220.151229,280.446679 219.688222,279.037373 C218.237836,274.772375 214.924737,271.408161 210.694674,269.905072 C197.141215,264.422872 182.493378,268.890372 168.883797,271.69489 C162.008854,273.104196 154.55866,274.640339 147.515351,273.738384 C144.744209,273.337074 142.015544,272.68135 139.363633,271.779449 C124.743857,267.26967 114.36129,263.732313 112.018197,263.041753 C81.4878378,253.416194 45.1348229,284.491387 43.4932549,289.818563 C43.3950414,290.12861 38.5966118,297.104674 38.3019714,297.316069 C35.8326041,299.204539 28.3683803,307.265768 18.8977956,317.906027 L33.9104262,342.625251 C44.5455421,341.455527 52.3745588,341.018642 49.2317277,335.677373 C37.7126906,315.947092 56.2469757,297.626117 56.5556466,297.442907 C77.334811,285.731576 80.4916726,265.254363 111.022032,274.894014 C117.50238,276.042716 123.900166,277.619869 130.173659,279.615189 C132.713178,280.4044 147.964327,281.09496 151.219402,280.72854 C156.957875,280.08026 164.7448,277.487137 171.633774,276.063738 C185.229324,273.245127 201.981736,266.76232 217.204825,277.895836 C220.922906,280.601703 219.084911,282.61701 220.572144,287.112696 C221.03515,288.522001 221.792797,288.522001 222.943297,288.352885 C240.958454,284.942365 257.458317,275.514109 274.463278,268.890372 C279.556348,266.903251 285.322882,265.465759 289.78458,262.421658 C294.246277,259.377558 297.739871,256.685784 303.239825,256.291178 C308.445139,255.910665 313.496118,256.826714 317.480779,260.519095 C317.831541,260.843236 318.140212,261.153283 318.420822,261.449237 C320.469274,257.841414 319.908054,255.501967 316.610888,252.443773 Z" id="Path" fill="#FFFFFF" fill-rule="nonzero"></path>
            <path d="M221.572114,276.982074 C226.471975,273.653416 234.089288,272.25338 236.553298,275.267744 C239.29891,278.596402 234.948172,286.368033 234.413129,287.353773 C227.781421,299.239796 216.109051,298.025479 197.17137,309.397203 C177.346645,321.311799 176.882003,327.140522 167.603243,327.011947 C157.66272,326.883372 154.804468,320.14034 133.501337,314.354475 C126.461306,312.440139 121.547365,311.768693 121.603206,310.911528 C121.744486,309.054337 147.933398,316.625963 174.474312,304.911372 C186.217083,299.754095 191.046543,294.139663 202.113471,291.068155 C207.492054,289.568116 214.123762,286.182313 217.348096,281.067895 C218.423627,279.39106 219.869986,277.992022 221.572114,276.982074 L221.572114,276.982074 Z" id="Path" fill="#000000" fill-rule="nonzero"></path>
        </g>
    </g>
</svg>