<svg xmlns="http://www.w3.org/2000/svg" width="1500" height="500" viewBox="0 0 1500 500">
  <g fill="none" fill-rule="evenodd">
    <rect width="1500" height="500" fill="#FFF" fill-rule="nonzero"/>
    <rect width="1500" height="500" fill="#000" fill-rule="nonzero"/>
    <rect width="100" height="100" x="1400" y="300" fill="#1F242C" fill-rule="nonzero"/>
    <rect width="100" height="100" x="1300" y="100" fill="#1F242C" fill-rule="nonzero"/>
    <polygon fill="#FFF" fill-rule="nonzero" points="1411.12 400 1400 400 1400 411.118 1411.12 411.118"/>
    <polygon fill="#FFF" fill-rule="nonzero" points="1422.24 411.117 1411.12 411.117 1411.12 422.235 1422.24 422.235"/>
    <polygon fill="#FFF" fill-rule="nonzero" points="1433.32 400 1422.21 400 1422.21 411.117 1433.32 411.117"/>
    <polygon fill="#FFF" fill-rule="nonzero" points="1411.12 422.206 1400 422.206 1400 433.324 1411.12 433.324"/>
    <polygon fill="#FFF" fill-rule="nonzero" points="1433.32 422.206 1422.21 422.206 1422.21 433.324 1433.32 433.324"/>
    <polygon fill="#FFF" fill-rule="nonzero" points="1444.44 411.117 1433.32 411.117 1433.32 422.235 1444.44 422.235"/>
    <polygon fill="#FFF" fill-rule="nonzero" points="1422.24 433.324 1411.12 433.324 1411.12 444.441 1422.24 444.441"/>
    <polygon fill="#FFF" fill-rule="nonzero" points="1411.12 444.441 1400 444.441 1400 455.559 1411.12 455.559"/>
    <polygon fill="#FFF" fill-rule="nonzero" points="1433.32 444.441 1422.21 444.441 1422.21 455.559 1433.32 455.559"/>
    <polygon fill="#FFF" fill-rule="nonzero" points="1444.44 433.324 1433.32 433.324 1433.32 444.441 1444.44 444.441"/>
    <polygon fill="#FFF" fill-rule="nonzero" points="1422.24 455.559 1411.12 455.559 1411.12 466.676 1422.24 466.676"/>
    <polygon fill="#FFF" fill-rule="nonzero" points="1411.12 466.647 1400 466.647 1400 477.765 1411.12 477.765"/>
    <polygon fill="#FFF" fill-rule="nonzero" points="1433.32 466.647 1422.21 466.647 1422.21 477.765 1433.32 477.765"/>
    <polygon fill="#FFF" fill-rule="nonzero" points="1444.44 455.559 1433.32 455.559 1433.32 466.676 1444.44 466.676"/>
    <polygon fill="#FFF" fill-rule="nonzero" points="1422.24 477.765 1411.12 477.765 1411.12 488.882 1422.24 488.882"/>
    <polygon fill="#FFF" fill-rule="nonzero" points="1411.12 488.882 1400 488.882 1400 500 1411.12 500"/>
    <polygon fill="#FFF" fill-rule="nonzero" points="1433.32 488.882 1422.21 488.882 1422.21 500 1433.32 500"/>
    <polygon fill="#FFF" fill-rule="nonzero" points="1444.44 477.765 1433.32 477.765 1433.32 488.882 1444.44 488.882"/>
    <polygon fill="#FFF" fill-rule="nonzero" points="1455.56 400 1444.44 400 1444.44 411.117 1455.56 411.117"/>
    <polygon fill="#FFF" fill-rule="nonzero" points="1466.68 411.117 1455.56 411.117 1455.56 422.235 1466.68 422.235"/>
    <polygon fill="#FFF" fill-rule="nonzero" points="1477.76 400 1466.65 400 1466.65 411.117 1477.76 411.117"/>
    <polygon fill="#FFF" fill-rule="nonzero" points="1455.56 422.206 1444.44 422.206 1444.44 433.324 1455.56 433.324"/>
    <polygon fill="#FFF" fill-rule="nonzero" points="1477.76 422.206 1466.65 422.206 1466.65 433.324 1477.76 433.324"/>
    <polygon fill="#FFF" fill-rule="nonzero" points="1488.88 411.117 1477.76 411.117 1477.76 422.235 1488.88 422.235"/>
    <polygon fill="#FFF" fill-rule="nonzero" points="1466.68 433.324 1455.56 433.324 1455.56 444.441 1466.68 444.441"/>
    <polygon fill="#FFF" fill-rule="nonzero" points="1455.56 444.441 1444.44 444.441 1444.44 455.559 1455.56 455.559"/>
    <polygon fill="#FFF" fill-rule="nonzero" points="1477.76 444.441 1466.65 444.441 1466.65 455.559 1477.76 455.559"/>
    <polygon fill="#FFF" fill-rule="nonzero" points="1488.88 433.324 1477.76 433.324 1477.76 444.441 1488.88 444.441"/>
    <polygon fill="#FFF" fill-rule="nonzero" points="1466.68 455.559 1455.56 455.559 1455.56 466.676 1466.68 466.676"/>
    <polygon fill="#FFF" fill-rule="nonzero" points="1455.56 466.647 1444.44 466.647 1444.44 477.765 1455.56 477.765"/>
    <polygon fill="#FFF" fill-rule="nonzero" points="1477.76 466.647 1466.65 466.647 1466.65 477.765 1477.76 477.765"/>
    <polygon fill="#FFF" fill-rule="nonzero" points="1488.88 455.559 1477.76 455.559 1477.76 466.676 1488.88 466.676"/>
    <polygon fill="#FFF" fill-rule="nonzero" points="1466.68 477.765 1455.56 477.765 1455.56 488.882 1466.68 488.882"/>
    <polygon fill="#FFF" fill-rule="nonzero" points="1455.56 488.882 1444.44 488.882 1444.44 500 1455.56 500"/>
    <polygon fill="#FFF" fill-rule="nonzero" points="1477.76 488.882 1466.65 488.882 1466.65 500 1477.76 500"/>
    <polygon fill="#FFF" fill-rule="nonzero" points="1500 400 1488.88 400 1488.88 411.117 1500 411.117"/>
    <polygon fill="#FFF" fill-rule="nonzero" points="1500 422.206 1488.88 422.206 1488.88 433.324 1500 433.324"/>
    <polygon fill="#FFF" fill-rule="nonzero" points="1500 444.441 1488.88 444.441 1488.88 455.559 1500 455.559"/>
    <polygon fill="#FFF" fill-rule="nonzero" points="1500 466.647 1488.88 466.647 1488.88 477.765 1500 477.765"/>
    <polygon fill="#FFF" fill-rule="nonzero" points="1500 488.882 1488.88 488.882 1488.88 500 1500 500"/>
    <polygon fill="#FFF" fill-rule="nonzero" points="1488.88 477.765 1477.76 477.765 1477.76 488.882 1488.88 488.882"/>
    <polygon fill="#1F242C" fill-rule="nonzero" points="1311.12 200 1300 200 1300 211.118 1311.12 211.118"/>
    <polygon fill="#1F242C" fill-rule="nonzero" points="1322.24 211.118 1311.12 211.118 1311.12 222.235 1322.24 222.235"/>
    <polygon fill="#1F242C" fill-rule="nonzero" points="1333.32 200 1322.21 200 1322.21 211.117 1333.32 211.117"/>
    <polygon fill="#1F242C" fill-rule="nonzero" points="1311.12 222.206 1300 222.206 1300 233.324 1311.12 233.324"/>
    <polygon fill="#1F242C" fill-rule="nonzero" points="1333.32 222.206 1322.21 222.206 1322.21 233.324 1333.32 233.324"/>
    <polygon fill="#1F242C" fill-rule="nonzero" points="1344.44 211.118 1333.32 211.118 1333.32 222.235 1344.44 222.235"/>
    <polygon fill="#1F242C" fill-rule="nonzero" points="1322.24 233.324 1311.12 233.324 1311.12 244.441 1322.24 244.441"/>
    <polygon fill="#1F242C" fill-rule="nonzero" points="1311.12 244.441 1300 244.441 1300 255.559 1311.12 255.559"/>
    <polygon fill="#1F242C" fill-rule="nonzero" points="1333.32 244.441 1322.21 244.441 1322.21 255.559 1333.32 255.559"/>
    <polygon fill="#1F242C" fill-rule="nonzero" points="1344.44 233.324 1333.32 233.324 1333.32 244.441 1344.44 244.441"/>
    <polygon fill="#1F242C" fill-rule="nonzero" points="1322.24 255.559 1311.12 255.559 1311.12 266.676 1322.24 266.676"/>
    <polygon fill="#1F242C" fill-rule="nonzero" points="1311.12 266.647 1300 266.647 1300 277.765 1311.12 277.765"/>
    <polygon fill="#1F242C" fill-rule="nonzero" points="1333.32 266.647 1322.21 266.647 1322.21 277.765 1333.32 277.765"/>
    <polygon fill="#1F242C" fill-rule="nonzero" points="1344.44 255.559 1333.32 255.559 1333.32 266.676 1344.44 266.676"/>
    <polygon fill="#1F242C" fill-rule="nonzero" points="1322.24 277.765 1311.12 277.765 1311.12 288.882 1322.24 288.882"/>
    <polygon fill="#1F242C" fill-rule="nonzero" points="1311.12 288.882 1300 288.882 1300 300 1311.12 300"/>
    <polygon fill="#1F242C" fill-rule="nonzero" points="1333.32 288.882 1322.21 288.882 1322.21 300 1333.32 300"/>
    <polygon fill="#1F242C" fill-rule="nonzero" points="1344.44 277.765 1333.32 277.765 1333.32 288.882 1344.44 288.882"/>
    <polygon fill="#1F242C" fill-rule="nonzero" points="1355.56 200 1344.44 200 1344.44 211.117 1355.56 211.117"/>
    <polygon fill="#1F242C" fill-rule="nonzero" points="1366.68 211.118 1355.56 211.118 1355.56 222.235 1366.68 222.235"/>
    <polygon fill="#1F242C" fill-rule="nonzero" points="1377.77 200 1366.65 200 1366.65 211.117 1377.77 211.117"/>
    <polygon fill="#1F242C" fill-rule="nonzero" points="1355.56 222.206 1344.44 222.206 1344.44 233.324 1355.56 233.324"/>
    <polygon fill="#1F242C" fill-rule="nonzero" points="1377.77 222.206 1366.65 222.206 1366.65 233.324 1377.77 233.324"/>
    <polygon fill="#1F242C" fill-rule="nonzero" points="1388.88 211.118 1377.77 211.118 1377.77 222.235 1388.88 222.235"/>
    <polygon fill="#1F242C" fill-rule="nonzero" points="1366.68 233.324 1355.56 233.324 1355.56 244.441 1366.68 244.441"/>
    <polygon fill="#1F242C" fill-rule="nonzero" points="1355.56 244.441 1344.44 244.441 1344.44 255.559 1355.56 255.559"/>
    <polygon fill="#1F242C" fill-rule="nonzero" points="1377.77 244.441 1366.65 244.441 1366.65 255.559 1377.77 255.559"/>
    <polygon fill="#1F242C" fill-rule="nonzero" points="1388.88 233.324 1377.77 233.324 1377.77 244.441 1388.88 244.441"/>
    <polygon fill="#1F242C" fill-rule="nonzero" points="1366.68 255.559 1355.56 255.559 1355.56 266.676 1366.68 266.676"/>
    <polygon fill="#1F242C" fill-rule="nonzero" points="1355.56 266.647 1344.44 266.647 1344.44 277.765 1355.56 277.765"/>
    <polygon fill="#1F242C" fill-rule="nonzero" points="1377.77 266.647 1366.65 266.647 1366.65 277.765 1377.77 277.765"/>
    <polygon fill="#1F242C" fill-rule="nonzero" points="1388.88 255.559 1377.77 255.559 1377.77 266.676 1388.88 266.676"/>
    <polygon fill="#1F242C" fill-rule="nonzero" points="1366.68 277.765 1355.56 277.765 1355.56 288.882 1366.68 288.882"/>
    <polygon fill="#1F242C" fill-rule="nonzero" points="1355.56 288.882 1344.44 288.882 1344.44 300 1355.56 300"/>
    <polygon fill="#1F242C" fill-rule="nonzero" points="1377.77 288.882 1366.65 288.882 1366.65 300 1377.77 300"/>
    <polygon fill="#1F242C" fill-rule="nonzero" points="1400 200 1388.88 200 1388.88 211.117 1400 211.117"/>
    <polygon fill="#1F242C" fill-rule="nonzero" points="1400 222.206 1388.88 222.206 1388.88 233.324 1400 233.324"/>
    <polygon fill="#1F242C" fill-rule="nonzero" points="1400 244.441 1388.88 244.441 1388.88 255.559 1400 255.559"/>
    <polygon fill="#1F242C" fill-rule="nonzero" points="1400 266.647 1388.88 266.647 1388.88 277.765 1400 277.765"/>
    <polygon fill="#1F242C" fill-rule="nonzero" points="1400 288.882 1388.88 288.882 1388.88 300 1400 300"/>
    <polygon fill="#1F242C" fill-rule="nonzero" points="1388.88 277.765 1377.77 277.765 1377.77 288.882 1388.88 288.882"/>
    <rect width="11.111" height="100" x="1422.22" y="200" fill="#4038FF" fill-rule="nonzero"/>
    <rect width="11.111" height="100" x="1444.44" y="200" fill="#4038FF" fill-rule="nonzero"/>
    <rect width="11.111" height="100" x="1466.67" y="200" fill="#4038FF" fill-rule="nonzero"/>
    <rect width="11.111" height="100" x="1488.89" y="200" fill="#4038FF" fill-rule="nonzero"/>
    <rect width="11.117" height="100" x="1400" y="200" fill="#4038FF" fill-rule="nonzero"/>
    <rect width="11.111" height="100" x="1444.444" y="-22.222" fill="#1F242C" fill-rule="nonzero" transform="rotate(90 1450 27.778)"/>
    <rect width="11.111" height="100" x="1444.444" fill="#1F242C" fill-rule="nonzero" transform="rotate(90 1450 50)"/>
    <rect width="11.111" height="100" x="1444.444" y="22.222" fill="#1F242C" fill-rule="nonzero" transform="rotate(90 1450 72.222)"/>
    <rect width="11.111" height="100" x="1444.444" y="44.444" fill="#1F242C" fill-rule="nonzero" transform="rotate(90 1450 94.444)"/>
    <rect width="11.117" height="100" x="1444.441" y="-44.441" fill="#1F242C" fill-rule="nonzero" transform="rotate(90 1450 5.559)"/>
    <path fill="#1F242C" d="M1300 411.111L1300 400C1355.23 400 1400 444.772 1400 500L1388.89 500C1388.89 450.908 1349.09 411.111 1300 411.111zM1300 433.333L1300 422.222C1342.96 422.222 1377.78 457.044 1377.78 500L1366.67 500C1366.67 463.181 1336.82 433.333 1300 433.333zM1300 444.444L1300 455.555C1324.55 455.555 1344.44 475.454 1344.44 500L1355.56 500C1355.56 469.317 1330.68 444.444 1300 444.444zM1300 477.778L1300 466.667C1318.41 466.667 1333.33 481.59 1333.33 500L1322.22 500C1322.22 487.727 1312.27 477.778 1300 477.778zM1300 500L1300 488.889C1306.14 488.889 1311.11 493.863 1311.11 500L1300 500zM1300 188.889L1300 200C1244.77 200 1200 155.228 1200 100L1211.11 100C1211.11 149.092 1250.91 188.889 1300 188.889zM1300 166.667L1300 177.778C1257.04 177.778 1222.22 142.955 1222.22 100L1233.33 100C1233.33 136.819 1263.18 166.667 1300 166.667zM1300 155.556L1300 144.444C1275.45 144.444 1255.56 124.546 1255.56 100L1244.44 100C1244.44 130.682 1269.32 155.556 1300 155.556zM1300 122.222L1300 133.333C1281.59 133.333 1266.67 118.409 1266.67 100L1277.78 100C1277.78 112.273 1287.73 122.222 1300 122.222zM1300 100L1300 111.111C1293.86 111.111 1288.89 106.136 1288.89 100L1300 100z"/>
    <path fill="#4038FF" fill-rule="nonzero" d="M1200 .0000152588L1200 100 1300 100C1300 44.7715 1255.23.0000152588 1200 .0000152588zM1200 500L1300 500 1300 400C1244.77 400 1200 444.771 1200 500z"/>
    <path fill="#1F242C" fill-rule="nonzero" d="M1207.83,400 L1200,400 L1200,392.167 L1292.17,300 L1300,300 L1300,307.833 L1207.83,400 Z M1276.44,300 L1260.72,300 L1200,360.722 L1200,376.444 L1276.44,300 Z M1245,300 L1229.28,300 L1200,329.278 L1200,345 L1245,300 Z M1200,300 L1200,313.556 L1213.56,300 L1200,300 Z M1300,339.278 L1300,323.556 L1223.56,400 L1239.28,400 L1300,339.278 Z M1300,370.722 L1300,355 L1255,400 L1270.72,400 L1300,370.722 Z M1300,386.444 L1286.44,400 L1300,400 L1300,386.444 Z"/>
    <rect width="100" height="100" x="100" y="100" fill="#1F242C" fill-rule="nonzero"/>
    <rect width="100" height="100" y="400" fill="#1F242C" fill-rule="nonzero"/>
    <polygon fill="#1F242C" fill-rule="nonzero" points="11.118 201 0 201 0 212.118 11.118 212.118"/>
    <polygon fill="#1F242C" fill-rule="nonzero" points="22.235 212.118 11.118 212.118 11.118 223.235 22.235 223.235"/>
    <polygon fill="#1F242C" fill-rule="nonzero" points="33.324 201 22.206 201 22.206 212.117 33.324 212.117"/>
    <polygon fill="#1F242C" fill-rule="nonzero" points="11.118 223.206 0 223.206 0 234.324 11.118 234.324"/>
    <polygon fill="#1F242C" fill-rule="nonzero" points="33.324 223.206 22.206 223.206 22.206 234.324 33.324 234.324"/>
    <polygon fill="#1F242C" fill-rule="nonzero" points="44.441 212.118 33.324 212.118 33.324 223.235 44.441 223.235"/>
    <polygon fill="#1F242C" fill-rule="nonzero" points="22.235 234.324 11.118 234.324 11.118 245.441 22.235 245.441"/>
    <polygon fill="#1F242C" fill-rule="nonzero" points="11.118 245.441 0 245.441 0 256.559 11.118 256.559"/>
    <polygon fill="#1F242C" fill-rule="nonzero" points="33.324 245.441 22.206 245.441 22.206 256.559 33.324 256.559"/>
    <polygon fill="#1F242C" fill-rule="nonzero" points="44.441 234.324 33.324 234.324 33.324 245.441 44.441 245.441"/>
    <polygon fill="#1F242C" fill-rule="nonzero" points="22.235 256.559 11.118 256.559 11.118 267.676 22.235 267.676"/>
    <polygon fill="#1F242C" fill-rule="nonzero" points="11.118 267.647 0 267.647 0 278.765 11.118 278.765"/>
    <polygon fill="#1F242C" fill-rule="nonzero" points="33.324 267.647 22.206 267.647 22.206 278.765 33.324 278.765"/>
    <polygon fill="#1F242C" fill-rule="nonzero" points="44.441 256.559 33.324 256.559 33.324 267.676 44.441 267.676"/>
    <polygon fill="#1F242C" fill-rule="nonzero" points="22.235 278.765 11.118 278.765 11.118 289.882 22.235 289.882"/>
    <polygon fill="#1F242C" fill-rule="nonzero" points="11.118 289.882 0 289.882 0 301 11.118 301"/>
    <polygon fill="#1F242C" fill-rule="nonzero" points="33.324 289.882 22.206 289.882 22.206 301 33.324 301"/>
    <polygon fill="#1F242C" fill-rule="nonzero" points="44.441 278.765 33.324 278.765 33.324 289.882 44.441 289.882"/>
    <polygon fill="#1F242C" fill-rule="nonzero" points="55.559 201 44.441 201 44.441 212.117 55.559 212.117"/>
    <polygon fill="#1F242C" fill-rule="nonzero" points="66.676 212.118 55.559 212.118 55.559 223.235 66.676 223.235"/>
    <polygon fill="#1F242C" fill-rule="nonzero" points="77.765 201 66.647 201 66.647 212.117 77.765 212.117"/>
    <polygon fill="#1F242C" fill-rule="nonzero" points="55.559 223.206 44.441 223.206 44.441 234.324 55.559 234.324"/>
    <polygon fill="#1F242C" fill-rule="nonzero" points="77.765 223.206 66.647 223.206 66.647 234.324 77.765 234.324"/>
    <polygon fill="#1F242C" fill-rule="nonzero" points="88.883 212.118 77.765 212.118 77.765 223.235 88.883 223.235"/>
    <polygon fill="#1F242C" fill-rule="nonzero" points="66.676 234.324 55.559 234.324 55.559 245.441 66.676 245.441"/>
    <polygon fill="#1F242C" fill-rule="nonzero" points="55.559 245.441 44.441 245.441 44.441 256.559 55.559 256.559"/>
    <polygon fill="#1F242C" fill-rule="nonzero" points="77.765 245.441 66.647 245.441 66.647 256.559 77.765 256.559"/>
    <polygon fill="#1F242C" fill-rule="nonzero" points="88.883 234.324 77.765 234.324 77.765 245.441 88.883 245.441"/>
    <polygon fill="#1F242C" fill-rule="nonzero" points="66.676 256.559 55.559 256.559 55.559 267.676 66.676 267.676"/>
    <polygon fill="#1F242C" fill-rule="nonzero" points="55.559 267.647 44.441 267.647 44.441 278.765 55.559 278.765"/>
    <polygon fill="#1F242C" fill-rule="nonzero" points="77.765 267.647 66.647 267.647 66.647 278.765 77.765 278.765"/>
    <polygon fill="#1F242C" fill-rule="nonzero" points="88.883 256.559 77.765 256.559 77.765 267.676 88.883 267.676"/>
    <polygon fill="#1F242C" fill-rule="nonzero" points="66.676 278.765 55.559 278.765 55.559 289.882 66.676 289.882"/>
    <polygon fill="#1F242C" fill-rule="nonzero" points="55.559 289.882 44.441 289.882 44.441 301 55.559 301"/>
    <polygon fill="#1F242C" fill-rule="nonzero" points="77.765 289.882 66.647 289.882 66.647 301 77.765 301"/>
    <polygon fill="#1F242C" fill-rule="nonzero" points="100 201 88.883 201 88.883 212.117 100 212.117"/>
    <polygon fill="#1F242C" fill-rule="nonzero" points="100 223.206 88.883 223.206 88.883 234.324 100 234.324"/>
    <polygon fill="#1F242C" fill-rule="nonzero" points="100 245.441 88.883 245.441 88.883 256.559 100 256.559"/>
    <polygon fill="#1F242C" fill-rule="nonzero" points="100 267.647 88.883 267.647 88.883 278.765 100 278.765"/>
    <polygon fill="#1F242C" fill-rule="nonzero" points="100 289.882 88.883 289.882 88.883 301 100 301"/>
    <polygon fill="#1F242C" fill-rule="nonzero" points="88.883 278.765 77.765 278.765 77.765 289.882 88.883 289.882"/>
    <rect width="11.111" height="100" x="244.444" y="-22.222" fill="#1F242C" fill-rule="nonzero" transform="rotate(90 250 27.778)"/>
    <rect width="11.111" height="100" x="244.444" fill="#1F242C" fill-rule="nonzero" transform="rotate(90 250 50)"/>
    <rect width="11.111" height="100" x="244.444" y="22.222" fill="#1F242C" fill-rule="nonzero" transform="rotate(90 250 72.222)"/>
    <rect width="11.111" height="100" x="244.444" y="44.444" fill="#1F242C" fill-rule="nonzero" transform="rotate(90 250 94.444)"/>
    <rect width="11.117" height="100" x="244.441" y="-44.441" fill="#1F242C" fill-rule="nonzero" transform="rotate(90 250 5.559)"/>
    <path fill="#4038FF" d="M300,411.111 L300,400 C355.229,400 400,444.772 400,500 L388.889,500 C388.889,450.908 349.092,411.111 300,411.111 Z M300,433.333 L300,422.222 C342.956,422.222 377.778,457.044 377.778,500 L366.667,500 C366.667,463.181 336.819,433.333 300,433.333 Z M300,444.444 L300,455.555 C324.546,455.555 344.445,475.454 344.445,500 L355.556,500 C355.556,469.317 330.683,444.444 300,444.444 Z M300,477.778 L300,466.667 C318.41,466.667 333.333,481.59 333.333,500 L322.222,500 C322.222,487.727 312.273,477.778 300,477.778 Z M300,500 L300,488.889 C306.137,488.889 311.111,493.863 311.111,500 L300,500 Z"/>
    <path fill="#1F242C" d="M300,188.889 L300,200 C244.772,200 200,155.228 200,100 L211.111,100 C211.111,149.092 250.908,188.889 300,188.889 Z M300,166.667 L300,177.778 C257.045,177.778 222.222,142.955 222.222,100 L233.333,100 C233.333,136.819 263.181,166.667 300,166.667 Z M300,155.556 L300,144.444 C275.454,144.444 255.556,124.546 255.556,100 L244.445,100 C244.445,130.682 269.318,155.556 300,155.556 Z M300,122.222 L300,133.333 C281.591,133.333 266.667,118.409 266.667,100 L277.778,100 C277.778,112.273 287.727,122.222 300,122.222 Z M300,100 L300,111.111 C293.864,111.111 288.889,106.136 288.889,100 L300,100 Z"/>
    <path fill="#4038FF" fill-rule="nonzero" d="M0,1.52588e-05 L0,100 L100,100 C100,44.7715 55.2285,1.52588e-05 0,1.52588e-05 Z"/>
    <path fill="#FFF" fill-rule="nonzero" d="M107.833,400 L100,400 L100,392.167 L192.167,300 L200,300 L200,307.833 L107.833,400 Z M176.444,300 L160.722,300 L100,360.722 L100,376.444 L176.444,300 Z M145,300 L129.278,300 L100,329.278 L100,345 L145,300 Z M100,300 L100,313.556 L113.556,300 L100,300 Z M200,339.278 L200,323.556 L123.556,400 L139.278,400 L200,339.278 Z M200,370.722 L200,355 L155,400 L170.722,400 L200,370.722 Z M200,386.444 L186.444,400 L200,400 L200,386.444 Z"/>
    <g fill-rule="nonzero" transform="translate(645 100)">
      <path fill="#FFF" d="M45.503,39.93 L45.503,36.41 L51.04,36.41 L51.04,13.97 L54.927,13.97 L54.927,36.703 C54.927,38.463 53.497,39.93 51.7,39.93 L45.503,39.93 Z M59.987,30.433 C58.117,28.563 57.163,26.217 57.163,23.43 C57.163,20.643 58.117,18.297 59.987,16.427 C61.857,14.557 64.203,13.603 66.99,13.603 C69.777,13.603 72.087,14.557 73.993,16.427 C75.863,18.297 76.817,20.643 76.817,23.43 C76.817,26.217 75.863,28.563 73.993,30.433 C72.123,32.303 69.777,33.257 66.99,33.257 C64.167,33.257 61.857,32.303 59.987,30.433 Z M62.81,18.81 C61.747,19.947 61.233,21.487 61.233,23.393 C61.233,25.3 61.747,26.84 62.81,27.977 C63.873,29.113 65.267,29.7 66.953,29.7 C68.64,29.7 70.033,29.113 71.097,27.977 C72.16,26.84 72.673,25.3 72.673,23.393 C72.673,21.487 72.16,19.947 71.097,18.81 C70.033,17.673 68.64,17.087 66.953,17.087 C65.267,17.123 63.873,17.673 62.81,18.81 Z M77.11,13.97 L81.18,13.97 L85.25,29.187 L87.267,29.187 L91.703,13.97 L95.773,13.97 L88,39.93 L83.93,39.93 L86.13,32.89 L84.7,32.89 C83.27,32.89 81.987,31.937 81.62,30.543 L77.11,13.97 Z M95.407,26.95 L99.66,26.95 C99.697,27.023 99.733,27.133 99.807,27.243 C99.88,27.353 100.027,27.573 100.247,27.903 C100.467,28.233 100.76,28.527 101.053,28.747 C101.347,29.003 101.823,29.223 102.373,29.407 C102.96,29.59 103.583,29.7 104.28,29.7 C105.637,29.7 106.627,29.48 107.25,29.077 C107.873,28.673 108.167,28.123 108.167,27.5 C108.167,26.913 107.763,26.437 106.957,26.107 C106.15,25.777 105.16,25.483 103.987,25.263 C102.813,25.043 101.677,24.75 100.503,24.383 C99.33,24.017 98.377,23.43 97.533,22.55 C96.727,21.67 96.323,20.57 96.323,19.177 C96.323,17.71 96.983,16.39 98.34,15.29 C99.697,14.19 101.493,13.64 103.693,13.64 C105.087,13.64 106.297,13.86 107.397,14.263 C108.497,14.667 109.303,15.18 109.853,15.73 C110.403,16.317 110.843,16.903 111.21,17.49 C111.577,18.077 111.797,18.553 111.907,18.993 L112.053,19.58 L107.983,19.58 C107.947,19.507 107.91,19.433 107.873,19.323 C107.837,19.213 107.69,19.03 107.47,18.737 C107.25,18.443 107.03,18.223 106.737,18.003 C106.443,17.783 106.04,17.6 105.527,17.417 C105.013,17.233 104.39,17.16 103.73,17.16 C102.63,17.16 101.823,17.343 101.237,17.747 C100.687,18.15 100.393,18.627 100.393,19.213 C100.393,19.69 100.687,20.13 101.273,20.46 C101.86,20.79 102.593,21.047 103.473,21.193 C104.353,21.34 105.307,21.56 106.333,21.853 C107.36,22.147 108.277,22.477 109.193,22.843 C110.073,23.21 110.807,23.797 111.393,24.603 C111.98,25.41 112.273,26.4 112.273,27.537 C112.273,29.113 111.577,30.47 110.147,31.607 C108.717,32.743 106.773,33.293 104.317,33.293 C102.85,33.293 101.567,33.073 100.43,32.633 C99.293,32.193 98.413,31.68 97.827,31.057 C97.24,30.433 96.763,29.81 96.36,29.187 C95.993,28.563 95.737,28.05 95.627,27.647 L95.407,26.95 Z M112.97,17.49 L112.97,13.97 L115.17,13.97 L115.17,9.9 L119.057,9.9 L119.057,13.97 L124.813,13.97 L124.813,17.49 L119.093,17.49 L119.093,29.37 L124.997,29.37 L124.997,32.89 L118.397,32.89 C116.637,32.89 115.17,31.46 115.17,29.663 L115.17,17.49 L112.97,17.49 Z M131.083,17.49 L131.083,32.89 L127.197,32.89 L127.197,16.793 C127.197,15.253 128.443,13.97 130.02,13.97 L131.083,13.97 L138.673,13.97 L138.673,17.49 L131.083,17.49 Z M141.313,30.433 C139.48,28.527 138.527,26.18 138.527,23.43 C138.527,20.68 139.48,18.333 141.313,16.427 C143.183,14.52 145.457,13.603 148.133,13.603 C150.81,13.603 153.083,14.557 154.953,16.427 C156.823,18.333 157.74,20.643 157.74,23.43 L157.74,24.713 L142.413,24.713 C142.67,26.253 143.367,27.463 144.393,28.38 C145.457,29.297 146.703,29.737 148.133,29.737 C149.307,29.737 150.297,29.517 151.213,29.077 C152.093,28.637 152.717,28.197 153.01,27.757 L153.487,27.133 L157.557,27.133 C157.52,27.317 157.41,27.537 157.3,27.793 C157.19,28.05 156.86,28.563 156.347,29.26 C155.833,29.957 155.283,30.58 154.623,31.13 C154,31.643 153.083,32.157 151.91,32.597 C150.737,33.037 149.49,33.257 148.097,33.257 C145.457,33.257 143.183,32.303 141.313,30.433 Z M143.11,21.56 L154.183,21.56 C154,20.35 153.413,19.287 152.423,18.443 C151.433,17.563 150.187,17.123 148.647,17.123 C147.327,17.123 146.117,17.527 145.09,18.333 C144.063,19.14 143.403,20.203 143.11,21.56 Z M161.37,30.543 C159.683,28.71 158.84,26.327 158.84,23.43 C158.84,20.533 159.683,18.15 161.37,16.317 C163.057,14.483 165.183,13.603 167.713,13.603 C168.887,13.603 169.95,13.823 170.94,14.3 C171.93,14.777 172.627,15.217 173.03,15.657 L173.617,16.353 L173.8,16.353 L173.8,13.933 L177.687,13.933 L177.687,32.853 L173.8,32.853 L173.8,30.25 L173.617,30.25 C173.58,30.323 173.47,30.433 173.36,30.58 C173.25,30.727 172.993,30.947 172.627,31.313 C172.26,31.643 171.857,31.973 171.453,32.23 C171.05,32.487 170.463,32.707 169.803,32.927 C169.107,33.147 168.41,33.257 167.713,33.257 C165.22,33.257 163.093,32.34 161.37,30.543 Z M181.06,32.89 L181.06,13.97 L184.947,13.97 L184.947,16.573 L185.13,16.573 C185.167,16.5 185.24,16.39 185.313,16.243 C185.387,16.097 185.57,15.877 185.9,15.51 C186.23,15.18 186.56,14.85 186.963,14.593 C187.33,14.337 187.88,14.117 188.54,13.897 C189.2,13.677 189.933,13.567 190.667,13.567 C191.547,13.567 192.39,13.677 193.123,13.933 C193.893,14.19 194.48,14.483 194.883,14.813 C195.323,15.143 195.69,15.51 195.983,15.84 C196.277,16.17 196.46,16.463 196.57,16.72 L196.753,17.087 L196.937,17.087 C196.973,16.977 197.047,16.867 197.157,16.683 C197.23,16.537 197.487,16.243 197.853,15.84 C198.22,15.437 198.623,15.107 199.063,14.777 C199.503,14.483 200.127,14.19 200.897,13.933 C201.703,13.677 202.51,13.53 203.427,13.53 C205.59,13.53 207.313,14.227 208.56,15.62 C209.807,17.013 210.43,18.957 210.43,21.523 L210.43,32.817 L206.543,32.817 L206.543,21.743 C206.543,18.663 205.187,17.123 202.473,17.123 C201.153,17.123 200.017,17.637 199.063,18.627 C198.11,19.653 197.67,20.937 197.67,22.477 L197.67,32.853 L193.783,32.853 L193.783,21.743 C193.783,18.663 192.427,17.123 189.713,17.123 C188.393,17.123 187.257,17.637 186.303,18.627 C185.35,19.653 184.91,20.937 184.91,22.477 L184.91,32.853 L181.06,32.853 L181.06,32.89 Z M51.077,6.747 L51.077,10.633 L54.963,10.633 L54.963,6.747 L51.077,6.747 Z M163.973,18.81 C162.91,19.947 162.397,21.487 162.397,23.393 C162.397,25.3 162.91,26.84 163.973,27.977 C165.037,29.113 166.43,29.7 168.117,29.7 C169.803,29.7 171.197,29.113 172.26,27.977 C173.323,26.84 173.837,25.3 173.837,23.393 C173.837,21.487 173.323,19.947 172.26,18.81 C171.197,17.673 169.803,17.087 168.117,17.087 C166.43,17.123 165.037,17.673 163.973,18.81 Z"/>
      <path fill="#4038FF" d="M30.873-7.10542736e-15L34.87-7.10542736e-15 34.87 11.477C34.87 16.06 33.147 20.277 30.323 23.467 30.69 21.927 30.873 20.35 30.873 18.7L30.873-7.10542736e-15zM10.78 32.743C10.67 32.853 10.597 32.963 10.487 33.073 10.45 33.11 10.413 33.147 10.377 33.183 10.267 33.293 10.193 33.403 10.083 33.477 10.047 33.513 9.973 33.587 9.937 33.623 9.827 33.733 9.717 33.843 9.57 33.953 9.423 34.1 9.277 34.21 9.13 34.357 8.983 34.503 8.837 34.613 8.653 34.723 8.507 34.833 8.36 34.943 8.213 35.053 7.847 35.273 7.48 35.493 7.113 35.677 7.04 35.713 6.967 35.75 6.857 35.787 6.747 35.823 6.673 35.86 6.6 35.897 6.49 35.933 6.417 35.97 6.307 36.007 6.123 36.08 5.94 36.153 5.72 36.227 5.72 36.227 5.72 36.227 5.683 36.227 5.5 36.3 5.317 36.337 5.133 36.373L5.097 36.373C4.913 36.41 4.73 36.483 4.547 36.52 4.327 36.557 4.07 36.63 3.85 36.63 3.777 36.63 3.703 36.667 3.63 36.667L3.593 36.667C3.373 36.703 3.19 36.703 2.97 36.703 2.86 36.703 2.75 36.703 2.64 36.703 2.53 36.703 2.42 36.703 2.31 36.703L2.163 36.703 3.373 32.707 10.78 32.707 10.78 32.743zM27.647-1.77635684e-15L27.647 18.7C27.647 18.993 27.647 19.323 27.61 19.617 27.61 19.763 27.61 19.91 27.573 20.057 27.573 20.203 27.537 20.35 27.537 20.497 27.537 20.643 27.5 20.79 27.5 20.937 27.5 21.047 27.463 21.193 27.463 21.303L27.463 21.34C27.463 21.377 27.463 21.413 27.463 21.413 27.427 21.56 27.427 21.707 27.39 21.817 27.353 21.963 27.353 22.11 27.317 22.22L27.317 22.257C27.28 22.367 27.28 22.477 27.243 22.587 27.243 22.623 27.243 22.623 27.243 22.66 27.133 23.1 27.023 23.577 26.877 24.017 26.84 24.127 26.803 24.273 26.767 24.383 26.73 24.53 26.693 24.64 26.62 24.787 26.583 24.933 26.51 25.043 26.473 25.153 26.437 25.3 26.363 25.41 26.327 25.52 26.29 25.667 26.217 25.777 26.18 25.887 26.143 25.997 26.07 26.143 25.997 26.253 25.96 26.363 25.887 26.51 25.813 26.62 25.74 26.73 25.703 26.877 25.63 26.987 25.593 27.097 25.52 27.17 25.483 27.28 25.373 27.5 25.263 27.683 25.117 27.903 25.007 28.087 24.897 28.27 24.787 28.417 24.713 28.563 24.64 28.673 24.53 28.783 24.493 28.857 24.42 28.93 24.383 28.967 24.273 29.113 24.2 29.223 24.09 29.333 23.98 29.48 23.87 29.59 23.797 29.737 23.577 29.993 23.357 30.25 23.137 30.507 23.173 30.36 23.21 30.213 23.247 30.067 23.283 29.957 23.283 29.847 23.32 29.737 23.32 29.737 23.32 29.737 23.32 29.7 23.32 29.663 23.32 29.663 23.32 29.627 23.357 29.48 23.357 29.333 23.393 29.187 23.43 29.003 23.467 28.82 23.467 28.673 23.467 28.563 23.503 28.453 23.503 28.38 23.503 28.27 23.54 28.197 23.54 28.087 23.577 27.903 23.577 27.72 23.613 27.5 23.613 27.463 23.613 27.463 23.613 27.427 23.613 27.39 23.613 27.39 23.613 27.353 23.613 27.207 23.65 27.097 23.65 26.95 23.65 26.84 23.65 26.73 23.65 26.62L23.65 26.767C23.65 26.657 23.65 26.547 23.65 26.437 23.65 26.253 23.65 26.107 23.65 25.923L23.65-1.77635684e-15 27.647-1.77635684e-15z"/>
      <path fill="#4038FF" d="M20.423,0 L20.423,25.923 C20.423,26.547 20.387,27.133 20.35,27.72 C20.313,28.233 20.24,28.71 20.13,29.223 C19.91,30.397 19.58,31.533 19.14,32.597 C18.883,33.257 18.553,33.917 18.223,34.54 C17.197,36.373 15.877,38.023 14.337,39.417 C11.147,42.277 6.93,44 2.347,44 L3.4283687e-13,44 L1.21,40.003 L2.383,40.003 C5.83,40.003 8.983,38.757 11.403,36.703 C12.723,35.603 13.823,34.283 14.63,32.78 C14.85,32.413 15.033,32.01 15.217,31.607 C15.51,30.947 15.73,30.287 15.913,29.59 C16.133,28.82 16.28,28.013 16.317,27.207 C16.353,26.803 16.353,26.4 16.353,25.997 L16.353,0 L20.423,0 Z"/>
      <path fill="#4038FF" d="M13.2,25.52 L13.2,25.923 C13.2,26.253 13.2,26.583 13.163,26.877 C13.09,27.5 13.017,28.123 12.833,28.71 C12.76,29.003 12.687,29.297 12.577,29.553 L4.327,29.553 L5.537,25.557 L13.2,25.557 L13.2,25.52 Z"/>
    </g>
    <path fill="#FFF" d="M734.265625,309.505859 C736.56772,309.505859 738.582023,309.981766 740.308594,310.933594 C742.035165,311.885421 743.468419,313.174797 744.608398,314.801758 C745.748378,316.428719 746.600583,318.354481 747.165039,320.579102 C747.729495,322.803722 748.011719,325.166654 748.011719,327.667969 C748.011719,330.213554 747.729495,332.58202 747.165039,334.773438 C746.600583,336.964855 745.748378,338.879549 744.608398,340.517578 C743.468419,342.155607 742.040699,343.450516 740.325195,344.402344 C738.609692,345.354171 736.589855,345.830078 734.265625,345.830078 C731.631497,345.830078 729.395843,345.271164 727.558594,344.15332 C725.721345,343.035476 724.260422,341.436208 723.175781,339.355469 L723.175781,356.554688 L717.066406,356.554688 L717.066406,310.335938 L723.175781,310.335938 L723.175781,315.980469 C724.260422,313.899729 725.721345,312.300461 727.558594,311.182617 C729.395843,310.064773 731.631497,309.505859 734.265625,309.505859 Z M874.947266,309.505859 C877.581393,309.505859 879.872386,309.959631 881.820312,310.867188 C883.768239,311.774744 885.384108,313.019849 886.667969,314.602539 C887.951829,316.185229 888.91471,318.099924 889.556641,320.34668 C890.198571,322.593436 890.519531,325.033841 890.519531,327.667969 C890.519531,330.346368 890.198571,332.792307 889.556641,335.005859 C888.91471,337.219412 887.951829,339.123039 886.667969,340.716797 C885.384108,342.310555 883.762705,343.561193 881.803711,344.46875 C879.844717,345.376307 877.559258,345.830078 874.947266,345.830078 C872.313138,345.830078 870.022145,345.376307 868.074219,344.46875 C866.126292,343.561193 864.504889,342.310555 863.209961,340.716797 C861.915033,339.123039 860.952152,337.219412 860.321289,335.005859 C859.690427,332.792307 859.375,330.346368 859.375,327.667969 C859.375,325.033841 859.690427,322.593436 860.321289,320.34668 C860.952152,318.099924 861.915033,316.185229 863.209961,314.602539 C864.504889,313.019849 866.126292,311.774744 868.074219,310.867188 C870.022145,309.959631 872.313138,309.505859 874.947266,309.505859 Z M787.490234,309.505859 C789.349619,309.505859 791.081698,309.743813 792.686523,310.219727 C794.291349,310.69564 795.685866,311.4095 796.870117,312.361328 C798.054368,313.313156 798.972979,314.536125 799.625977,316.030273 C800.278975,317.524422 800.605469,319.289703 800.605469,321.326172 L800.605469,339.753906 L805.785156,339.753906 L805.785156,345 L795.425781,345 L795.292969,338.591797 L795.027344,338.591797 C794.075516,341.04884 792.669931,342.86946 790.810547,344.053711 C788.951163,345.237962 786.726575,345.830078 784.136719,345.830078 C782.410148,345.830078 780.849616,345.564456 779.455078,345.033203 C778.06054,344.50195 776.854172,343.716151 775.835938,342.675781 C774.928381,341.768225 774.225588,340.6836 773.727539,339.421875 C773.22949,338.16015 772.980469,336.843106 772.980469,335.470703 C772.980469,332.748033 773.843741,330.41277 775.570312,328.464844 C777.296884,326.516917 779.886701,325.388022 783.339844,325.078125 L794.628906,324.048828 L794.628906,321.259766 C794.628906,319.909498 794.457358,318.791671 794.114258,317.90625 C793.771157,317.020829 793.284183,316.318036 792.65332,315.797852 C792.022458,315.277667 791.264327,314.912436 790.378906,314.702148 C789.493485,314.491861 788.508469,314.386719 787.423828,314.386719 C785.254546,314.386719 783.522467,314.873693 782.227539,315.847656 C780.932611,316.821619 780.285156,318.426421 780.285156,320.662109 L774.142578,320.662109 C774.142578,319.02408 774.496741,317.524421 775.205078,316.163086 C775.913415,314.801751 776.865228,313.623052 778.060547,312.626953 C779.255865,311.630854 780.66145,310.861656 782.277344,310.319336 C783.893237,309.777016 785.63085,309.505859 787.490234,309.505859 Z M612.542969,298.748047 L612.542969,345 L606.400391,345 L606.400391,339.355469 C605.31575,341.436208 603.865894,343.035476 602.050781,344.15332 C600.235668,345.271164 598.044284,345.830078 595.476562,345.830078 C593.130197,345.830078 591.088225,345.354171 589.350586,344.402344 C587.612947,343.450516 586.168626,342.155607 585.017578,340.517578 C583.866531,338.879549 583.008792,336.959321 582.444336,334.756836 C581.87988,332.554351 581.597656,330.191419 581.597656,327.667969 C581.597656,325.166654 581.87988,322.803722 582.444336,320.579102 C583.008792,318.354481 583.855463,316.428719 584.984375,314.801758 C586.113287,313.174797 587.541007,311.885421 589.267578,310.933594 C590.994149,309.981766 593.008452,309.505859 595.310547,309.505859 C597.900404,309.505859 600.124991,310.059239 601.984375,311.166016 C603.843759,312.272792 605.31575,313.877594 606.400391,315.980469 L606.400391,298.748047 L612.542969,298.748047 Z M674.798828,309.505859 C677.432956,309.505859 679.723949,309.959631 681.671875,310.867188 C683.619801,311.774744 685.235671,313.019849 686.519531,314.602539 C687.803392,316.185229 688.766273,318.099924 689.408203,320.34668 C690.050133,322.593436 690.371094,325.033841 690.371094,327.667969 C690.371094,330.346368 690.050133,332.792307 689.408203,335.005859 C688.766273,337.219412 687.803392,339.123039 686.519531,340.716797 C685.235671,342.310555 683.614268,343.561193 681.655273,344.46875 C679.696279,345.376307 677.41082,345.830078 674.798828,345.830078 C672.1647,345.830078 669.873708,345.376307 667.925781,344.46875 C665.977855,343.561193 664.356452,342.310555 663.061523,340.716797 C661.766595,339.123039 660.803714,337.219412 660.172852,335.005859 C659.541989,332.792307 659.226562,330.346368 659.226562,327.667969 C659.226562,325.033841 659.541989,322.593436 660.172852,320.34668 C660.803714,318.099924 661.766595,316.185229 663.061523,314.602539 C664.356452,313.019849 665.977855,311.774744 667.925781,310.867188 C669.873708,309.959631 672.1647,309.505859 674.798828,309.505859 Z M636.914062,309.505859 C639.415377,309.505859 641.595694,309.937496 643.455078,310.800781 C645.314462,311.664067 646.852858,312.842766 648.070312,314.336914 C649.287767,315.831062 650.206377,317.585276 650.826172,319.599609 C651.445967,321.613942 651.755859,323.783192 651.755859,326.107422 L651.755859,329.361328 L628.414062,329.361328 L628.414062,333.046875 C628.414062,334.3086 628.652016,335.426427 629.12793,336.400391 C629.603844,337.374354 630.251298,338.19889 631.070312,338.874023 C631.889327,339.549157 632.807938,340.058267 633.826172,340.401367 C634.844406,340.744468 635.895828,340.916016 636.980469,340.916016 C639.14975,340.916016 641.031242,340.362636 642.625,339.255859 C644.218758,338.149083 645.126301,336.389335 645.347656,333.976562 L651.490234,333.976562 C651.357421,335.835947 650.870447,337.490553 650.029297,338.94043 C649.188147,340.390307 648.097988,341.624344 646.758789,342.642578 C645.41959,343.660812 643.908863,344.446612 642.226562,345 C640.544262,345.553388 638.773447,345.830078 636.914062,345.830078 C634.412748,345.830078 632.226897,345.376307 630.356445,344.46875 C628.485993,343.561193 626.925462,342.310555 625.674805,340.716797 C624.424147,339.123039 623.494469,337.219412 622.885742,335.005859 C622.277015,332.792307 621.972656,330.346368 621.972656,327.667969 C621.972656,325.033841 622.29915,322.593436 622.952148,320.34668 C623.605146,318.099924 624.579095,316.185229 625.874023,314.602539 C627.168952,313.019849 628.735017,311.774744 630.572266,310.867188 C632.409514,309.959631 634.523426,309.505859 636.914062,309.505859 Z M854.162109,298.748047 L854.162109,303.994141 L846.193359,303.994141 L846.193359,310.335938 L853.464844,310.335938 L853.464844,315.548828 L846.193359,315.548828 L846.193359,345 L840.150391,345 L840.150391,315.548828 L834.306641,315.548828 L834.306641,310.335938 L840.150391,310.335938 L840.150391,298.748047 L854.162109,298.748047 Z M763.75,298.748047 L763.75,345 L757.640625,345 L757.640625,298.748047 L763.75,298.748047 Z M916.617188,310.335938 L916.617188,315.615234 L906.058594,315.615234 L906.058594,345 L899.949219,345 L899.949219,310.335938 L916.617188,310.335938 Z M572.068359,310.335938 L572.068359,345 L565.958984,345 L565.958984,310.335938 L572.068359,310.335938 Z M821.191406,298.748047 L821.191406,310.335938 L829.160156,310.335938 L829.160156,315.548828 L821.191406,315.548828 L821.191406,339.753906 L829.160156,339.753906 L829.160156,345 L815.148438,345 L815.148438,315.548828 L809.304688,315.548828 L809.304688,310.335938 L815.148438,310.335938 L815.148438,298.748047 L821.191406,298.748047 Z M534.283203,310.335938 L542.982422,337.728516 L543.248047,337.728516 L552.113281,310.335938 L558.421875,310.335938 L545.970703,345 L540.126953,345 L527.675781,310.335938 L534.283203,310.335938 Z M960.113281,309.505859 C961.618497,309.505859 963.029616,309.732745 964.34668,310.186523 C965.663744,310.640302 966.80924,311.365229 967.783203,312.361328 C968.757166,313.357427 969.515297,314.635734 970.057617,316.196289 C970.599938,317.756844 970.871094,319.654937 970.871094,321.890625 L970.871094,345 L964.761719,345 L964.761719,322.554688 C964.761719,320.009102 964.274744,318.0114 963.300781,316.561523 C962.326818,315.111646 960.699881,314.386719 958.419922,314.386719 C957.335281,314.386719 956.32813,314.63574 955.398438,315.133789 C954.468745,315.631838 953.638676,316.345698 952.908203,317.275391 C952.177731,318.205083 951.613283,319.306309 951.214844,320.579102 C950.816404,321.851894 950.617188,323.240878 950.617188,324.746094 L950.617188,345 L944.474609,345 L944.474609,322.554688 C944.474609,320.009102 943.987635,318.0114 943.013672,316.561523 C942.039709,315.111646 940.423839,314.386719 938.166016,314.386719 C937.081375,314.386719 936.074223,314.63574 935.144531,315.133789 C934.214839,315.631838 933.384769,316.345698 932.654297,317.275391 C931.923824,318.205083 931.353843,319.306309 930.944336,320.579102 C930.534829,321.851894 930.330078,323.240878 930.330078,324.746094 L930.330078,345 L924.220703,345 L924.220703,310.335938 L930.330078,310.335938 L930.330078,316.046875 C931.104822,314.14322 932.300122,312.577155 933.916016,311.348633 C935.531909,310.120111 937.557279,309.505859 939.992188,309.505859 C942.294282,309.505859 944.33072,310.081374 946.101562,311.232422 C947.872405,312.383469 949.145178,314.187488 949.919922,316.644531 C950.650394,314.608063 951.889965,312.909186 953.638672,311.547852 C955.387379,310.186517 957.54556,309.505859 960.113281,309.505859 Z M794.628906,328.763672 L782.310547,329.892578 C781.048822,329.98112 780.257489,330.313148 779.936523,330.888672 C779.615558,331.464196 779.455078,332.249995 779.455078,333.246094 L779.455078,336.300781 C779.455078,337.894539 780.008458,339.062171 781.115234,339.803711 C782.222011,340.545251 783.749339,340.916016 785.697266,340.916016 C788.464207,340.916016 790.644523,339.930999 792.238281,337.960938 C793.832039,335.990876 794.628906,333.445328 794.628906,330.324219 L794.628906,328.763672 Z M596.904297,314.386719 C595.642572,314.386719 594.47494,314.580402 593.401367,314.967773 C592.327794,315.355145 591.392582,315.891924 590.595703,316.578125 C589.798824,317.264326 589.173505,318.094396 588.719727,319.068359 C588.265948,320.042323 588.039062,321.11588 588.039062,322.289062 L588.039062,333.046875 C588.039062,334.220058 588.265948,335.293615 588.719727,336.267578 C589.173505,337.241541 589.798824,338.066077 590.595703,338.741211 C591.392582,339.416345 592.32226,339.947589 593.384766,340.334961 C594.447271,340.722333 595.620436,340.916016 596.904297,340.916016 C599.981135,340.916016 602.333,339.942067 603.959961,337.994141 C605.586922,336.046214 606.400391,333.57814 606.400391,330.589844 L606.400391,324.746094 C606.400391,321.757798 605.586922,319.284189 603.959961,317.325195 C602.333,315.366201 599.981135,314.386719 596.904297,314.386719 Z M874.947266,314.386719 C873.729812,314.386719 872.56218,314.580402 871.444336,314.967773 C870.326492,315.355145 869.358077,315.891924 868.539062,316.578125 C867.720048,317.264326 867.061526,318.094396 866.563477,319.068359 C866.065427,320.042323 865.816406,321.11588 865.816406,322.289062 L865.816406,333.046875 C865.816406,334.220058 866.065427,335.293615 866.563477,336.267578 C867.061526,337.241541 867.720048,338.066077 868.539062,338.741211 C869.358077,339.416345 870.320958,339.947589 871.427734,340.334961 C872.534511,340.722333 873.707676,340.916016 874.947266,340.916016 C876.16472,340.916016 877.326817,340.722333 878.433594,340.334961 C879.54037,339.947589 880.503251,339.416345 881.322266,338.741211 C882.14128,338.066077 882.799802,337.241541 883.297852,336.267578 C883.795901,335.293615 884.044922,334.220058 884.044922,333.046875 L884.044922,322.289062 C884.044922,321.11588 883.795901,320.042323 883.297852,319.068359 C882.799802,318.094396 882.14128,317.264326 881.322266,316.578125 C880.503251,315.891924 879.54037,315.355145 878.433594,314.967773 C877.326817,314.580402 876.16472,314.386719 874.947266,314.386719 Z M732.705078,314.386719 C729.62824,314.386719 727.270842,315.366201 725.632812,317.325195 C723.994783,319.284189 723.175781,321.757798 723.175781,324.746094 L723.175781,330.589844 C723.175781,333.57814 723.994783,336.046214 725.632812,337.994141 C727.270842,339.942067 729.62824,340.916016 732.705078,340.916016 C735.294935,340.916016 737.41438,340.191088 739.063477,338.741211 C740.712573,337.291334 741.537109,335.393241 741.537109,333.046875 L741.537109,322.289062 C741.537109,319.942697 740.712573,318.03907 739.063477,316.578125 C737.41438,315.11718 735.294935,314.386719 732.705078,314.386719 Z M674.798828,314.386719 C673.581374,314.386719 672.413743,314.580402 671.295898,314.967773 C670.178054,315.355145 669.20964,315.891924 668.390625,316.578125 C667.57161,317.264326 666.913088,318.094396 666.415039,319.068359 C665.91699,320.042323 665.667969,321.11588 665.667969,322.289062 L665.667969,333.046875 C665.667969,334.220058 665.91699,335.293615 666.415039,336.267578 C666.913088,337.241541 667.57161,338.066077 668.390625,338.741211 C669.20964,339.416345 670.172521,339.947589 671.279297,340.334961 C672.386073,340.722333 673.559239,340.916016 674.798828,340.916016 C676.016282,340.916016 677.17838,340.722333 678.285156,340.334961 C679.391933,339.947589 680.354814,339.416345 681.173828,338.741211 C681.992843,338.066077 682.651365,337.241541 683.149414,336.267578 C683.647463,335.293615 683.896484,334.220058 683.896484,333.046875 L683.896484,322.289062 C683.896484,321.11588 683.647463,320.042323 683.149414,319.068359 C682.651365,318.094396 681.992843,317.264326 681.173828,316.578125 C680.354814,315.891924 679.391933,315.355145 678.285156,314.967773 C677.17838,314.580402 676.016282,314.386719 674.798828,314.386719 Z M636.914062,314.386719 C635.785151,314.386719 634.711594,314.569334 633.693359,314.93457 C632.675125,315.299807 631.767582,315.836585 630.970703,316.544922 C630.173824,317.253259 629.548505,318.116531 629.094727,319.134766 C628.640948,320.153 628.414062,321.292962 628.414062,322.554688 L628.414062,324.480469 L645.414062,324.480469 L645.414062,322.554688 C645.414062,321.292962 645.187177,320.153 644.733398,319.134766 C644.27962,318.116531 643.659835,317.253259 642.874023,316.544922 C642.088212,315.836585 641.180669,315.299807 640.151367,314.93457 C639.122065,314.569334 638.042974,314.386719 636.914062,314.386719 Z M572.201172,298.748047 L572.201172,305.15625 L565.826172,305.15625 L565.826172,298.748047 L572.201172,298.748047 Z M734.813477,229.505859 C737.403333,229.505859 739.62792,230.059239 741.487305,231.166016 C743.346689,232.272792 744.818679,233.877594 745.90332,235.980469 L745.90332,230.335938 L752.045898,230.335938 L752.045898,264.335938 C752.045898,266.74871 751.614262,268.823885 750.750977,270.561523 C749.887691,272.299162 748.753262,273.743484 747.347656,274.894531 C745.94205,276.045579 744.342782,276.89225 742.549805,277.43457 C740.756827,277.976891 738.930673,278.248047 737.071289,278.248047 C735.256176,278.248047 733.524097,278.070965 731.875,277.716797 C730.225903,277.362628 728.731778,276.764978 727.392578,275.923828 C726.053379,275.082678 724.941085,273.970385 724.055664,272.586914 C723.170243,271.203444 722.594728,269.471365 722.329102,267.390625 L728.438477,267.390625 C728.659832,269.382822 729.506503,270.876948 730.978516,271.873047 C732.450528,272.869146 734.392892,273.367188 736.805664,273.367188 C737.978847,273.367188 739.11881,273.19564 740.225586,272.852539 C741.332362,272.509438 742.306311,271.967126 743.147461,271.225586 C743.988611,270.484046 744.658201,269.521165 745.15625,268.336914 C745.654299,267.152663 745.90332,265.719409 745.90332,264.037109 L745.90332,259.355469 C744.818679,261.436208 743.368824,263.035476 741.553711,264.15332 C739.738598,265.271164 737.547213,265.830078 734.979492,265.830078 C732.633126,265.830078 730.591155,265.354171 728.853516,264.402344 C727.115877,263.450516 725.671555,262.155607 724.520508,260.517578 C723.36946,258.879549 722.511722,256.959321 721.947266,254.756836 C721.38281,252.554351 721.100586,250.191419 721.100586,247.667969 C721.100586,245.166654 721.38281,242.803722 721.947266,240.579102 C722.511722,238.354481 723.358393,236.428719 724.487305,234.801758 C725.616217,233.174797 727.043937,231.885421 728.770508,230.933594 C730.497079,229.981766 732.511382,229.505859 734.813477,229.505859 Z M949.969727,229.505859 C952.471041,229.505859 954.651358,229.937496 956.510742,230.800781 C958.370126,231.664067 959.908523,232.842766 961.125977,234.336914 C962.343431,235.831062 963.262041,237.585276 963.881836,239.599609 C964.501631,241.613942 964.811523,243.783192 964.811523,246.107422 L964.811523,249.361328 L941.469727,249.361328 L941.469727,253.046875 C941.469727,254.3086 941.70768,255.426427 942.183594,256.400391 C942.659508,257.374354 943.306962,258.19889 944.125977,258.874023 C944.944991,259.549157 945.863602,260.058267 946.881836,260.401367 C947.90007,260.744468 948.951492,260.916016 950.036133,260.916016 C952.205414,260.916016 954.086906,260.362636 955.680664,259.255859 C957.274422,258.149083 958.181965,256.389335 958.40332,253.976562 L964.545898,253.976562 C964.413085,255.835947 963.926111,257.490553 963.084961,258.94043 C962.243811,260.390307 961.153653,261.624344 959.814453,262.642578 C958.475254,263.660812 956.964527,264.446612 955.282227,265 C953.599926,265.553388 951.829111,265.830078 949.969727,265.830078 C947.468412,265.830078 945.282561,265.376307 943.412109,264.46875 C941.541657,263.561193 939.981126,262.310555 938.730469,260.716797 C937.479811,259.123039 936.550133,257.219412 935.941406,255.005859 C935.332679,252.792307 935.02832,250.346368 935.02832,247.667969 C935.02832,245.033841 935.354814,242.593436 936.007812,240.34668 C936.660811,238.099924 937.634759,236.185229 938.929688,234.602539 C940.224616,233.019849 941.790681,231.774744 943.62793,230.867188 C945.465178,229.959631 947.57909,229.505859 949.969727,229.505859 Z M849.696289,229.505859 C852.197604,229.505859 854.37792,229.937496 856.237305,230.800781 C858.096689,231.664067 859.635085,232.842766 860.852539,234.336914 C862.069993,235.831062 862.988604,237.585276 863.608398,239.599609 C864.228193,241.613942 864.538086,243.783192 864.538086,246.107422 L864.538086,249.361328 L841.196289,249.361328 L841.196289,253.046875 C841.196289,254.3086 841.434242,255.426427 841.910156,256.400391 C842.38607,257.374354 843.033525,258.19889 843.852539,258.874023 C844.671554,259.549157 845.590164,260.058267 846.608398,260.401367 C847.626633,260.744468 848.678054,260.916016 849.762695,260.916016 C851.931977,260.916016 853.813469,260.362636 855.407227,259.255859 C857.000985,258.149083 857.908528,256.389335 858.129883,253.976562 L864.272461,253.976562 C864.139648,255.835947 863.652673,257.490553 862.811523,258.94043 C861.970373,260.390307 860.880215,261.624344 859.541016,262.642578 C858.201816,263.660812 856.691089,264.446612 855.008789,265 C853.326489,265.553388 851.555673,265.830078 849.696289,265.830078 C847.194974,265.830078 845.009124,265.376307 843.138672,264.46875 C841.26822,263.561193 839.707689,262.310555 838.457031,260.716797 C837.206374,259.123039 836.276696,257.219412 835.667969,255.005859 C835.059242,252.792307 834.754883,250.346368 834.754883,247.667969 C834.754883,245.033841 835.081377,242.593436 835.734375,240.34668 C836.387373,238.099924 837.361322,236.185229 838.65625,234.602539 C839.951178,233.019849 841.517243,231.774744 843.354492,230.867188 C845.191741,229.959631 847.305652,229.505859 849.696289,229.505859 Z M777.047852,229.505859 C779.681979,229.505859 781.972972,229.959631 783.920898,230.867188 C785.868825,231.774744 787.484694,233.019849 788.768555,234.602539 C790.052415,236.185229 791.015296,238.099924 791.657227,240.34668 C792.299157,242.593436 792.620117,245.033841 792.620117,247.667969 C792.620117,250.346368 792.299157,252.792307 791.657227,255.005859 C791.015296,257.219412 790.052415,259.123039 788.768555,260.716797 C787.484694,262.310555 785.863291,263.561193 783.904297,264.46875 C781.945303,265.376307 779.659844,265.830078 777.047852,265.830078 C774.413724,265.830078 772.122731,265.376307 770.174805,264.46875 C768.226878,263.561193 766.605475,262.310555 765.310547,260.716797 C764.015619,259.123039 763.052738,257.219412 762.421875,255.005859 C761.791012,252.792307 761.475586,250.346368 761.475586,247.667969 C761.475586,245.033841 761.791012,242.593436 762.421875,240.34668 C763.052738,238.099924 764.015619,236.185229 765.310547,234.602539 C766.605475,233.019849 768.226878,231.774744 770.174805,230.867188 C772.122731,229.959631 774.413724,229.505859 777.047852,229.505859 Z M1003.29395,218.748047 L1003.29395,265 L997.151367,265 L997.151367,259.355469 C996.066726,261.436208 994.616871,263.035476 992.801758,264.15332 C990.986645,265.271164 988.79526,265.830078 986.227539,265.830078 C983.881173,265.830078 981.839201,265.354171 980.101562,264.402344 C978.363924,263.450516 976.919602,262.155607 975.768555,260.517578 C974.617507,258.879549 973.759768,256.959321 973.195312,254.756836 C972.630857,252.554351 972.348633,250.191419 972.348633,247.667969 C972.348633,245.166654 972.630857,242.803722 973.195312,240.579102 C973.759768,238.354481 974.60644,236.428719 975.735352,234.801758 C976.864263,233.174797 978.291984,231.885421 980.018555,230.933594 C981.745126,229.981766 983.759429,229.505859 986.061523,229.505859 C988.65138,229.505859 990.875967,230.059239 992.735352,231.166016 C994.594736,232.272792 996.066726,233.877594 997.151367,235.980469 L997.151367,218.748047 L1003.29395,218.748047 Z M564.74707,230.335938 L564.74707,252.748047 C564.74707,255.249361 565.234045,257.235995 566.208008,258.708008 C567.181971,260.18002 568.963854,260.916016 571.553711,260.916016 C574.143568,260.916016 576.196607,259.953135 577.712891,258.027344 C579.229174,256.101553 579.987305,253.622411 579.987305,250.589844 L579.987305,230.335938 L586.09668,230.335938 L586.09668,265 L579.987305,265 L579.987305,259.289062 C579.035477,261.325531 577.762703,262.924799 576.168945,264.086914 C574.575187,265.249029 572.472344,265.830078 569.860352,265.830078 C568.266594,265.830078 566.778002,265.603192 565.394531,265.149414 C564.011061,264.695636 562.821294,263.970708 561.825195,262.974609 C560.829097,261.978511 560.048831,260.694669 559.484375,259.123047 C558.919919,257.551424 558.637695,255.658865 558.637695,253.445312 L558.637695,230.335938 L564.74707,230.335938 Z M645.098633,229.505859 C647.599947,229.505859 649.780264,229.937496 651.639648,230.800781 C653.499033,231.664067 655.037429,232.842766 656.254883,234.336914 C657.472337,235.831062 658.390947,237.585276 659.010742,239.599609 C659.630537,241.613942 659.94043,243.783192 659.94043,246.107422 L659.94043,249.361328 L636.598633,249.361328 L636.598633,253.046875 C636.598633,254.3086 636.836586,255.426427 637.3125,256.400391 C637.788414,257.374354 638.435868,258.19889 639.254883,258.874023 C640.073897,259.549157 640.992508,260.058267 642.010742,260.401367 C643.028976,260.744468 644.080398,260.916016 645.165039,260.916016 C647.334321,260.916016 649.215812,260.362636 650.80957,259.255859 C652.403328,258.149083 653.310871,256.389335 653.532227,253.976562 L659.674805,253.976562 C659.541992,255.835947 659.055017,257.490553 658.213867,258.94043 C657.372717,260.390307 656.282559,261.624344 654.943359,262.642578 C653.60416,263.660812 652.093433,264.446612 650.411133,265 C648.728833,265.553388 646.958017,265.830078 645.098633,265.830078 C642.597318,265.830078 640.411468,265.376307 638.541016,264.46875 C636.670564,263.561193 635.110032,262.310555 633.859375,260.716797 C632.608718,259.123039 631.67904,257.219412 631.070312,255.005859 C630.461585,252.792307 630.157227,250.346368 630.157227,247.667969 C630.157227,245.033841 630.483721,242.593436 631.136719,240.34668 C631.789717,238.099924 632.763665,236.185229 634.058594,234.602539 C635.353522,233.019849 636.919587,231.774744 638.756836,230.867188 C640.594085,229.959631 642.707996,229.505859 645.098633,229.505859 Z M608.741211,229.505859 C610.37924,229.505859 611.978508,229.721678 613.539062,230.15332 C615.099617,230.584963 616.494134,231.254553 617.722656,232.162109 C618.951178,233.069666 619.936194,234.22623 620.677734,235.631836 C621.419275,237.037442 621.812174,238.714183 621.856445,240.662109 L615.74707,240.662109 C615.658528,238.360015 614.944668,236.738611 613.605469,235.797852 C612.266269,234.857092 610.667001,234.386719 608.807617,234.386719 C606.903962,234.386719 605.293626,234.84049 603.976562,235.748047 C602.659499,236.655603 602.000977,237.839836 602.000977,239.300781 C602.000977,240.651048 602.388342,241.70247 603.163086,242.455078 C603.937829,243.207686 605.188468,243.761066 606.915039,244.115234 L612.758789,245.34375 C616.211931,246.074222 618.77408,247.252922 620.445312,248.879883 C622.116545,250.506844 622.952148,252.725897 622.952148,255.537109 C622.952148,256.998054 622.625654,258.353835 621.972656,259.604492 C621.319658,260.855149 620.378912,261.928706 619.150391,262.825195 C617.921869,263.721684 616.46648,264.446612 614.78418,265 C613.10188,265.553388 611.242523,265.830078 609.206055,265.830078 C607.258128,265.830078 605.437508,265.581057 603.744141,265.083008 C602.050773,264.584958 600.567715,263.843429 599.294922,262.858398 C598.022129,261.873367 597.020511,260.644864 596.290039,259.172852 C595.559567,257.700839 595.172201,255.990895 595.12793,254.042969 L601.270508,254.042969 C601.35905,256.345064 602.183586,258.066075 603.744141,259.206055 C605.304695,260.346034 607.14745,260.916016 609.272461,260.916016 C611.308929,260.916016 613.079745,260.462244 614.584961,259.554688 C616.090177,258.647131 616.842773,257.330087 616.842773,255.603516 C616.842773,254.208977 616.389002,253.09115 615.481445,252.25 C614.573889,251.40885 612.958019,250.766929 610.633789,250.324219 L604.922852,249.162109 C602.067369,248.56445 599.87045,247.463224 598.332031,245.858398 C596.793612,244.253573 596.024414,242.089857 596.024414,239.367188 C596.024414,238.01692 596.328773,236.738613 596.9375,235.532227 C597.546227,234.32584 598.420567,233.279952 599.560547,232.394531 C600.700527,231.50911 602.039706,230.806318 603.578125,230.286133 C605.116544,229.765948 606.837556,229.505859 608.741211,229.505859 Z M518.129883,218.748047 L534.166992,265 L527.360352,265 L523.575195,253.578125 L505.413086,253.578125 L501.594727,265 L494.920898,265 L510.924805,218.748047 L518.129883,218.748047 Z M914.575195,229.505859 C916.257495,229.505859 917.784824,229.732745 919.157227,230.186523 C920.529629,230.640302 921.713862,231.365229 922.709961,232.361328 C923.70606,233.357427 924.480792,234.635734 925.03418,236.196289 C925.587568,237.756844 925.864258,239.654937 925.864258,241.890625 L925.864258,265 L919.72168,265 L919.72168,242.554688 C919.72168,240.009102 919.234705,238.0114 918.260742,236.561523 C917.286779,235.111646 915.482761,234.386719 912.848633,234.386719 C911.586908,234.386719 910.435878,234.63574 909.395508,235.133789 C908.355138,235.631838 907.447595,236.345698 906.672852,237.275391 C905.898108,238.205083 905.294924,239.306309 904.863281,240.579102 C904.431638,241.851894 904.21582,243.240878 904.21582,244.746094 L904.21582,265 L898.106445,265 L898.106445,230.335938 L904.21582,230.335938 L904.21582,236.046875 C905.167648,234.010406 906.473625,232.411139 908.133789,231.249023 C909.793954,230.086908 911.941068,229.505859 914.575195,229.505859 Z M890.50293,230.335938 L890.50293,235.615234 L879.944336,235.615234 L879.944336,265 L873.834961,265 L873.834961,230.335938 L890.50293,230.335938 Z M804.905273,230.335938 L813.604492,257.728516 L813.870117,257.728516 L822.735352,230.335938 L829.043945,230.335938 L816.592773,265 L810.749023,265 L798.297852,230.335938 L804.905273,230.335938 Z M685.905273,230.335938 L685.905273,235.615234 L675.34668,235.615234 L675.34668,265 L669.237305,265 L669.237305,230.335938 L685.905273,230.335938 Z M736.407227,234.386719 C735.145502,234.386719 733.97787,234.580402 732.904297,234.967773 C731.830724,235.355145 730.895512,235.891924 730.098633,236.578125 C729.301754,237.264326 728.676435,238.094396 728.222656,239.068359 C727.768878,240.042323 727.541992,241.11588 727.541992,242.289062 L727.541992,253.046875 C727.541992,254.220058 727.768878,255.293615 728.222656,256.267578 C728.676435,257.241541 729.301754,258.066077 730.098633,258.741211 C730.895512,259.416345 731.82519,259.947589 732.887695,260.334961 C733.950201,260.722333 735.123366,260.916016 736.407227,260.916016 C739.484065,260.916016 741.835929,259.942067 743.462891,257.994141 C745.089852,256.046214 745.90332,253.57814 745.90332,250.589844 L745.90332,244.746094 C745.90332,241.757798 745.089852,239.284189 743.462891,237.325195 C741.835929,235.366201 739.484065,234.386719 736.407227,234.386719 Z M777.047852,234.386719 C775.830398,234.386719 774.662766,234.580402 773.544922,234.967773 C772.427078,235.355145 771.458663,235.891924 770.639648,236.578125 C769.820634,237.264326 769.162112,238.094396 768.664062,239.068359 C768.166013,240.042323 767.916992,241.11588 767.916992,242.289062 L767.916992,253.046875 C767.916992,254.220058 768.166013,255.293615 768.664062,256.267578 C769.162112,257.241541 769.820634,258.066077 770.639648,258.741211 C771.458663,259.416345 772.421544,259.947589 773.52832,260.334961 C774.635097,260.722333 775.808262,260.916016 777.047852,260.916016 C778.265306,260.916016 779.427403,260.722333 780.53418,260.334961 C781.640956,259.947589 782.603837,259.416345 783.422852,258.741211 C784.241866,258.066077 784.900388,257.241541 785.398438,256.267578 C785.896487,255.293615 786.145508,254.220058 786.145508,253.046875 L786.145508,242.289062 C786.145508,241.11588 785.896487,240.042323 785.398438,239.068359 C784.900388,238.094396 784.241866,237.264326 783.422852,236.578125 C782.603837,235.891924 781.640956,235.355145 780.53418,234.967773 C779.427403,234.580402 778.265306,234.386719 777.047852,234.386719 Z M987.655273,234.386719 C986.393548,234.386719 985.225917,234.580402 984.152344,234.967773 C983.078771,235.355145 982.143559,235.891924 981.34668,236.578125 C980.549801,237.264326 979.924481,238.094396 979.470703,239.068359 C979.016925,240.042323 978.790039,241.11588 978.790039,242.289062 L978.790039,253.046875 C978.790039,254.220058 979.016925,255.293615 979.470703,256.267578 C979.924481,257.241541 980.549801,258.066077 981.34668,258.741211 C982.143559,259.416345 983.073237,259.947589 984.135742,260.334961 C985.198247,260.722333 986.371413,260.916016 987.655273,260.916016 C990.732112,260.916016 993.083976,259.942067 994.710938,257.994141 C996.337899,256.046214 997.151367,253.57814 997.151367,250.589844 L997.151367,244.746094 C997.151367,241.757798 996.337899,239.284189 994.710938,237.325195 C993.083976,235.366201 990.732112,234.386719 987.655273,234.386719 Z M712.069336,243.783203 L712.069336,249.361328 L693.043945,249.361328 L693.043945,243.783203 L712.069336,243.783203 Z M514.643555,225.953125 L514.37793,225.953125 L507.106445,248.265625 L521.848633,248.265625 L514.643555,225.953125 Z M645.098633,234.386719 C643.969721,234.386719 642.896164,234.569334 641.87793,234.93457 C640.859695,235.299807 639.952152,235.836585 639.155273,236.544922 C638.358394,237.253259 637.733075,238.116531 637.279297,239.134766 C636.825519,240.153 636.598633,241.292962 636.598633,242.554688 L636.598633,244.480469 L653.598633,244.480469 L653.598633,242.554688 C653.598633,241.292962 653.371747,240.153 652.917969,239.134766 C652.46419,238.116531 651.844405,237.253259 651.058594,236.544922 C650.272783,235.836585 649.36524,235.299807 648.335938,234.93457 C647.306635,234.569334 646.227545,234.386719 645.098633,234.386719 Z M949.969727,234.386719 C948.840815,234.386719 947.767258,234.569334 946.749023,234.93457 C945.730789,235.299807 944.823246,235.836585 944.026367,236.544922 C943.229488,237.253259 942.604169,238.116531 942.150391,239.134766 C941.696612,240.153 941.469727,241.292962 941.469727,242.554688 L941.469727,244.480469 L958.469727,244.480469 L958.469727,242.554688 C958.469727,241.292962 958.242841,240.153 957.789062,239.134766 C957.335284,238.116531 956.715499,237.253259 955.929688,236.544922 C955.143876,235.836585 954.236333,235.299807 953.207031,234.93457 C952.177729,234.569334 951.098638,234.386719 949.969727,234.386719 Z M849.696289,234.386719 C848.567377,234.386719 847.49382,234.569334 846.475586,234.93457 C845.457352,235.299807 844.549809,235.836585 843.75293,236.544922 C842.956051,237.253259 842.330731,238.116531 841.876953,239.134766 C841.423175,240.153 841.196289,241.292962 841.196289,242.554688 L841.196289,244.480469 L858.196289,244.480469 L858.196289,242.554688 C858.196289,241.292962 857.969403,240.153 857.515625,239.134766 C857.061847,238.116531 856.442061,237.253259 855.65625,236.544922 C854.870439,235.836585 853.962896,235.299807 852.933594,234.93457 C851.904292,234.569334 850.825201,234.386719 849.696289,234.386719 Z"/>
  </g>
</svg>
