<?xml version="1.0" encoding="UTF-8"?>
<svg width="24px" height="24px" viewBox="0 0 24 24" version="1.1" xmlns="http://www.w3.org/2000/svg" xmlns:xlink="http://www.w3.org/1999/xlink">
    <!-- Generator: Sketch 59.1 (86144) - https://sketch.com -->
    <title>icons/system/fill/bell</title>
    <desc>Created with Sketch.</desc>
    <g id="icons/system/fill/bell" stroke="none" stroke-width="1" fill="none" fill-rule="evenodd">
        <path d="M14.5547002,20 C14.5547002,21.6568542 13.2115544,23 11.5547002,23 C9.95701931,23 8.65103932,21.75108 8.55979289,20.1762728 L8.5547002,20 L14.5547002,20 Z M11.5547002,1 C15.3401519,1 18.4237989,4.00478338 18.5506412,7.75935025 L18.5585986,8.42957123 C18.6078266,11.1161269 19.1204119,13.1571441 19.9325958,14.6461479 C20.2188521,15.1709511 20.5191666,15.5813809 20.8119029,15.8903804 L20.8865568,15.9673696 L20.8865568,15.9673696 L20.9519961,16.0316475 L21.0527894,16.1233303 L21.1094004,16.1679497 L20.5547002,18 L2.5547002,18 L2,16.1679497 L2.05661094,16.1233303 C2.10962156,16.0781763 2.19208714,16.0016469 2.29749751,15.8903804 C2.59023382,15.5813809 2.8905483,15.1709511 3.17680462,14.6461479 C4.03173501,13.0787755 4.5547002,10.8997539 4.5547002,8 C4.5547002,4.13400675 7.68870695,1 11.5547002,1 Z" id="Shape" fill="#4038FF" fill-rule="nonzero"></path>
    </g>
</svg>