<svg width="882" height="300" viewBox="0 0 882 300" fill="none" xmlns="http://www.w3.org/2000/svg">
<g clip-path="url(#clip0)">
<rect width="882" height="300" fill="white"/>
<rect width="882" height="210" fill="black"/>
<rect x="620" y="105" width="52.5" height="52.5" fill="#1F242C"/>
<path d="M625.837 157.5H620V163.337H625.837V157.5Z" fill="#1F242C"/>
<path d="M631.673 163.337H625.837V169.174H631.673V163.337Z" fill="#1F242C"/>
<path d="M637.494 157.5H631.658V163.337H637.494V157.5Z" fill="#1F242C"/>
<path d="M625.837 169.158H620V174.995H625.837V169.158Z" fill="#1F242C"/>
<path d="M637.494 169.158H631.658V174.995H637.494V169.158Z" fill="#1F242C"/>
<path d="M643.332 163.337H637.495V169.174H643.332V163.337Z" fill="#1F242C"/>
<path d="M631.673 174.995H625.837V180.832H631.673V174.995Z" fill="#1F242C"/>
<path d="M625.837 180.832H620V186.669H625.837V180.832Z" fill="#1F242C"/>
<path d="M637.494 180.832H631.658V186.669H637.494V180.832Z" fill="#1F242C"/>
<path d="M643.332 174.995H637.495V180.832H643.332V174.995Z" fill="#1F242C"/>
<path d="M631.673 186.668H625.837V192.505H631.673V186.668Z" fill="#1F242C"/>
<path d="M625.837 192.489H620V198.326H625.837V192.489Z" fill="#1F242C"/>
<path d="M637.494 192.489H631.658V198.326H637.494V192.489Z" fill="#1F242C"/>
<path d="M643.332 186.668H637.495V192.505H643.332V186.668Z" fill="#1F242C"/>
<path d="M631.673 198.326H625.837V204.163H631.673V198.326Z" fill="#1F242C"/>
<path d="M625.837 204.164H620V210.001H625.837V204.164Z" fill="#1F242C"/>
<path d="M637.494 204.164H631.658V210.001H637.494V204.164Z" fill="#1F242C"/>
<path d="M643.332 198.326H637.495V204.163H643.332V198.326Z" fill="#1F242C"/>
<path d="M649.168 157.5H643.331V163.337H649.168V157.5Z" fill="#1F242C"/>
<path d="M655.006 163.337H649.169V169.174H655.006V163.337Z" fill="#1F242C"/>
<path d="M660.826 157.5H654.99V163.337H660.826V157.5Z" fill="#1F242C"/>
<path d="M649.168 169.158H643.331V174.995H649.168V169.158Z" fill="#1F242C"/>
<path d="M660.826 169.158H654.99V174.995H660.826V169.158Z" fill="#1F242C"/>
<path d="M666.663 163.337H660.826V169.174H666.663V163.337Z" fill="#1F242C"/>
<path d="M655.006 174.995H649.169V180.832H655.006V174.995Z" fill="#1F242C"/>
<path d="M649.168 180.832H643.331V186.669H649.168V180.832Z" fill="#1F242C"/>
<path d="M660.826 180.832H654.99V186.669H660.826V180.832Z" fill="#1F242C"/>
<path d="M666.663 174.995H660.826V180.832H666.663V174.995Z" fill="#1F242C"/>
<path d="M655.006 186.668H649.169V192.505H655.006V186.668Z" fill="#1F242C"/>
<path d="M649.168 192.489H643.331V198.326H649.168V192.489Z" fill="#1F242C"/>
<path d="M660.826 192.489H654.99V198.326H660.826V192.489Z" fill="#1F242C"/>
<path d="M666.663 186.668H660.826V192.505H666.663V186.668Z" fill="#1F242C"/>
<path d="M655.006 198.326H649.169V204.163H655.006V198.326Z" fill="#1F242C"/>
<path d="M649.168 204.164H643.331V210.001H649.168V204.164Z" fill="#1F242C"/>
<path d="M660.826 204.164H654.99V210.001H660.826V204.164Z" fill="#1F242C"/>
<path d="M672.5 157.5H666.663V163.337H672.5V157.5Z" fill="#1F242C"/>
<path d="M672.5 169.158H666.663V174.995H672.5V169.158Z" fill="#1F242C"/>
<path d="M672.5 180.832H666.663V186.669H672.5V180.832Z" fill="#1F242C"/>
<path d="M672.5 192.489H666.663V198.326H672.5V192.489Z" fill="#1F242C"/>
<path d="M672.5 204.164H666.663V210.001H672.5V204.164Z" fill="#1F242C"/>
<path d="M666.663 198.326H660.826V204.163H666.663V198.326Z" fill="#1F242C"/>
<rect x="631.667" y="52.5" width="5.83333" height="52.5" fill="#1F242C"/>
<rect x="643.333" y="52.5" width="5.83333" height="52.5" fill="#1F242C"/>
<rect x="655" y="52.5" width="5.83333" height="52.5" fill="#1F242C"/>
<rect x="666.667" y="52.5" width="5.83333" height="52.5" fill="#1F242C"/>
<rect x="620" y="52.5" width="5.83668" height="52.5" fill="#1F242C"/>
<rect x="555.833" y="157.5" width="5.83333" height="52.5" transform="rotate(-180 555.833 157.5)" fill="#1F242C"/>
<rect x="544.167" y="157.5" width="5.83333" height="52.5" transform="rotate(-180 544.167 157.5)" fill="#1F242C"/>
<rect x="532.5" y="157.5" width="5.83333" height="52.5" transform="rotate(-180 532.5 157.5)" fill="#1F242C"/>
<rect x="520.833" y="157.5" width="5.83333" height="52.5" transform="rotate(-180 520.833 157.5)" fill="#1F242C"/>
<rect x="567.5" y="157.5" width="5.83668" height="52.5" transform="rotate(-180 567.5 157.5)" fill="#1F242C"/>
<rect x="870.505" y="53.4844" width="5.83333" height="52.5" transform="rotate(-180 870.505 53.4844)" fill="#1F242C"/>
<rect x="858.838" y="53.4844" width="5.83333" height="52.5" transform="rotate(-180 858.838 53.4844)" fill="#1F242C"/>
<rect x="847.172" y="53.4844" width="5.83333" height="52.5" transform="rotate(-180 847.172 53.4844)" fill="#1F242C"/>
<rect x="835.505" y="53.4844" width="5.83333" height="52.5" transform="rotate(-180 835.505 53.4844)" fill="#1F242C"/>
<rect x="882.172" y="53.4844" width="5.83668" height="52.5" transform="rotate(-180 882.172 53.4844)" fill="#1F242C"/>
<path fill-rule="evenodd" clip-rule="evenodd" d="M567.5 163.333V157.5C596.495 157.5 620 181.005 620 210H614.167C614.167 184.227 593.273 163.333 567.5 163.333ZM567.5 175V169.166C590.052 169.166 608.333 187.448 608.333 210H602.5C602.5 190.67 586.83 175 567.5 175ZM567.5 180.834V186.667C580.387 186.667 590.833 197.114 590.833 210L596.667 210C596.667 193.892 583.608 180.834 567.5 180.834ZM567.5 198.333V192.5C577.165 192.5 585 200.335 585 210H579.167C579.167 203.557 573.943 198.333 567.5 198.333ZM567.5 210V204.166C570.722 204.166 573.333 206.778 573.333 210H567.5Z" fill="#1F242C"/>
<path fill-rule="evenodd" clip-rule="evenodd" d="M777 110.833V105C805.995 105 829.5 128.505 829.5 157.5L823.667 157.5C823.667 131.727 802.773 110.833 777 110.833ZM777 122.5V116.667C799.552 116.667 817.833 134.949 817.833 157.5H812C812 138.17 796.33 122.5 777 122.5ZM777 128.333V134.167C789.887 134.167 800.333 144.613 800.333 157.5L806.167 157.5C806.167 141.392 793.108 128.333 777 128.333ZM777 145.833V140C786.665 140 794.5 147.835 794.5 157.5H788.667C788.667 151.056 783.443 145.833 777 145.833ZM777 157.5V151.667C780.222 151.667 782.833 154.279 782.833 157.5H777Z" fill="#1F242C"/>
<path d="M729.112 52.5H725V48.3875L773.387 0H777.5V4.1125L729.112 52.5ZM765.133 0H756.879L725 31.8791V40.1333L765.133 0ZM748.625 0H740.371L725 15.3708V23.625L748.625 0ZM725 0V7.11666L732.117 0H725ZM777.5 20.6208V12.3667L737.367 52.5H745.621L777.5 20.6208ZM777.5 37.1291V28.875L753.875 52.5H762.129L777.5 37.1291ZM777.5 45.3833L770.383 52.5H777.5V45.3833Z" fill="#1F242C"/>
<path d="M672.5 105L725 105L725 52.5C696.005 52.5 672.5 76.0051 672.5 105Z" fill="#1F242C"/>
<path d="M777.5 157.5L777.5 105L725 105C725 133.995 748.505 157.5 777.5 157.5Z" fill="#1F242C"/>
<path d="M61.6875 68.3516H66.5859L74.6953 95.6328H74.8828L82.9922 68.3516H87.8906L77.3203 101H72.2344L61.6875 68.3516ZM92.0156 94.2734C92.0156 92.3516 92.625 90.7031 93.8438 89.3281C95.0625 87.9531 96.8906 87.1562 99.3281 86.9375L107.297 86.2109V84.2422C107.297 83.2891 107.172 82.5 106.922 81.875C106.688 81.25 106.344 80.7578 105.891 80.3984C105.453 80.0234 104.922 79.7656 104.297 79.625C103.672 79.4688 102.977 79.3906 102.211 79.3906C100.68 79.3906 99.4531 79.7344 98.5312 80.4219C97.625 81.1094 97.1719 82.2422 97.1719 83.8203H92.8359C92.8359 82.6641 93.0859 81.6094 93.5859 80.6562C94.0859 79.6875 94.7578 78.8516 95.6016 78.1484C96.4453 77.4453 97.4375 76.9062 98.5781 76.5312C99.7188 76.1406 100.945 75.9453 102.258 75.9453C103.57 75.9453 104.789 76.1172 105.914 76.4609C107.055 76.7891 108.039 77.2891 108.867 77.9609C109.711 78.6328 110.359 79.5 110.812 80.5625C111.281 81.6094 111.516 82.8516 111.516 84.2891V97.2969H115.172V101H107.859L107.766 96.4766H107.578C106.906 98.2109 105.914 99.5 104.602 100.344C103.289 101.172 101.719 101.586 99.8906 101.586C98.6719 101.586 97.5703 101.398 96.5859 101.023C95.6016 100.648 94.75 100.094 94.0312 99.3594C93.3906 98.7188 92.8906 97.9531 92.5312 97.0625C92.1875 96.1719 92.0156 95.2422 92.0156 94.2734ZM96.5859 94.8594C96.5859 95.9844 96.9766 96.8125 97.7578 97.3438C98.5391 97.8594 99.6172 98.1172 100.992 98.1172C102.945 98.1172 104.484 97.4219 105.609 96.0312C106.734 94.6406 107.297 92.8438 107.297 90.6406V89.5391L98.6016 90.3359C97.7109 90.3984 97.1484 90.6328 96.9141 91.0391C96.6953 91.4453 96.5859 92 96.5859 92.7031V94.8594ZM120.094 101V68.3516H124.406V101H120.094ZM132.375 72.875V68.3516H136.875V72.875H132.375ZM132.469 101V76.5312H136.781V101H132.469ZM143.508 88.7656C143.508 87 143.703 85.3359 144.094 83.7734C144.5 82.1953 145.102 80.8359 145.898 79.6953C146.695 78.5391 147.703 77.625 148.922 76.9531C150.141 76.2812 151.562 75.9453 153.188 75.9453C155.016 75.9453 156.586 76.3359 157.898 77.1172C159.211 77.8984 160.25 79.0312 161.016 80.5156V68.3516H165.352V101H161.016V97.0156C160.25 98.4844 159.227 99.6172 157.945 100.414C156.664 101.195 155.117 101.586 153.305 101.586C151.648 101.586 150.203 101.25 148.969 100.578C147.75 99.9062 146.734 98.9922 145.922 97.8359C145.109 96.6797 144.5 95.3281 144.094 93.7812C143.703 92.2188 143.508 90.5469 143.508 88.7656ZM148.055 92.5625C148.055 93.3906 148.211 94.1484 148.523 94.8359C148.852 95.5234 149.297 96.1094 149.859 96.5938C150.422 97.0625 151.078 97.4375 151.828 97.7188C152.578 97.9844 153.406 98.1172 154.312 98.1172C156.484 98.1172 158.141 97.4297 159.281 96.0547C160.438 94.6797 161.016 92.9375 161.016 90.8281V86.7031C161.016 84.5938 160.438 82.8516 159.281 81.4766C158.141 80.0859 156.484 79.3906 154.312 79.3906C153.422 79.3906 152.594 79.5312 151.828 79.8125C151.078 80.0781 150.422 80.4531 149.859 80.9375C149.297 81.4219 148.852 82.0078 148.523 82.6953C148.211 83.3828 148.055 84.1406 148.055 84.9688V92.5625ZM171.75 94.2734C171.75 92.3516 172.359 90.7031 173.578 89.3281C174.797 87.9531 176.625 87.1562 179.062 86.9375L187.031 86.2109V84.2422C187.031 83.2891 186.906 82.5 186.656 81.875C186.422 81.25 186.078 80.7578 185.625 80.3984C185.188 80.0234 184.656 79.7656 184.031 79.625C183.406 79.4688 182.711 79.3906 181.945 79.3906C180.414 79.3906 179.188 79.7344 178.266 80.4219C177.359 81.1094 176.906 82.2422 176.906 83.8203H172.57C172.57 82.6641 172.82 81.6094 173.32 80.6562C173.82 79.6875 174.492 78.8516 175.336 78.1484C176.18 77.4453 177.172 76.9062 178.312 76.5312C179.453 76.1406 180.68 75.9453 181.992 75.9453C183.305 75.9453 184.523 76.1172 185.648 76.4609C186.789 76.7891 187.773 77.2891 188.602 77.9609C189.445 78.6328 190.094 79.5 190.547 80.5625C191.016 81.6094 191.25 82.8516 191.25 84.2891V97.2969H194.906V101H187.594L187.5 96.4766H187.312C186.641 98.2109 185.648 99.5 184.336 100.344C183.023 101.172 181.453 101.586 179.625 101.586C178.406 101.586 177.305 101.398 176.32 101.023C175.336 100.648 174.484 100.094 173.766 99.3594C173.125 98.7188 172.625 97.9531 172.266 97.0625C171.922 96.1719 171.75 95.2422 171.75 94.2734ZM176.32 94.8594C176.32 95.9844 176.711 96.8125 177.492 97.3438C178.273 97.8594 179.352 98.1172 180.727 98.1172C182.68 98.1172 184.219 97.4219 185.344 96.0312C186.469 94.6406 187.031 92.8438 187.031 90.6406V89.5391L178.336 90.3359C177.445 90.3984 176.883 90.6328 176.648 91.0391C176.43 91.4453 176.32 92 176.32 92.7031V94.8594ZM197.391 80.2109V76.5312H201.516V68.3516H205.781V76.5312H211.406V80.2109H205.781V97.2969H211.406V101H201.516V80.2109H197.391ZM216.117 88.7656C216.117 86.9062 216.336 85.1875 216.773 83.6094C217.227 82.0156 217.906 80.6641 218.812 79.5547C219.734 78.4297 220.883 77.5469 222.258 76.9062C223.633 76.2656 225.25 75.9453 227.109 75.9453C228.969 75.9453 230.586 76.2656 231.961 76.9062C233.336 77.5469 234.477 78.4297 235.383 79.5547C236.289 80.6641 236.969 82.0156 237.422 83.6094C237.875 85.1875 238.102 86.9062 238.102 88.7656C238.102 90.6562 237.875 92.3828 237.422 93.9453C236.969 95.5078 236.289 96.8516 235.383 97.9766C234.477 99.1016 233.328 99.9844 231.938 100.625C230.562 101.266 228.953 101.586 227.109 101.586C225.25 101.586 223.633 101.266 222.258 100.625C220.883 99.9844 219.734 99.1016 218.812 97.9766C217.906 96.8516 217.227 95.5078 216.773 93.9453C216.336 92.3828 216.117 90.6562 216.117 88.7656ZM220.664 92.5625C220.664 93.3906 220.836 94.1484 221.18 94.8359C221.539 95.5234 222.008 96.1094 222.586 96.5938C223.164 97.0625 223.844 97.4375 224.625 97.7188C225.406 97.9844 226.234 98.1172 227.109 98.1172C227.969 98.1172 228.789 97.9844 229.57 97.7188C230.352 97.4375 231.031 97.0625 231.609 96.5938C232.188 96.1094 232.648 95.5234 232.992 94.8359C233.352 94.1484 233.531 93.3906 233.531 92.5625V84.9688C233.531 84.1406 233.352 83.3828 232.992 82.6953C232.648 82.0078 232.188 81.4219 231.609 80.9375C231.031 80.4531 230.352 80.0781 229.57 79.8125C228.789 79.5312 227.969 79.3906 227.109 79.3906C226.25 79.3906 225.422 79.5312 224.625 79.8125C223.844 80.0781 223.164 80.4531 222.586 80.9375C222.008 81.4219 221.539 82.0078 221.18 82.6953C220.836 83.3828 220.664 84.1406 220.664 84.9688V92.5625ZM244.781 101V76.5312H256.547V80.2578H249.094V101H244.781ZM274.547 101V68.3516H280.992L294.469 95.4688H294.68V68.3516H299.086V101H292.664L279.164 73.7422H278.977V101H274.547ZM306.211 88.7656C306.211 86.9062 306.43 85.1875 306.867 83.6094C307.32 82.0156 308 80.6641 308.906 79.5547C309.828 78.4297 310.977 77.5469 312.352 76.9062C313.727 76.2656 315.344 75.9453 317.203 75.9453C319.062 75.9453 320.68 76.2656 322.055 76.9062C323.43 77.5469 324.57 78.4297 325.477 79.5547C326.383 80.6641 327.062 82.0156 327.516 83.6094C327.969 85.1875 328.195 86.9062 328.195 88.7656C328.195 90.6562 327.969 92.3828 327.516 93.9453C327.062 95.5078 326.383 96.8516 325.477 97.9766C324.57 99.1016 323.422 99.9844 322.031 100.625C320.656 101.266 319.047 101.586 317.203 101.586C315.344 101.586 313.727 101.266 312.352 100.625C310.977 99.9844 309.828 99.1016 308.906 97.9766C308 96.8516 307.32 95.5078 306.867 93.9453C306.43 92.3828 306.211 90.6562 306.211 88.7656ZM310.758 92.5625C310.758 93.3906 310.93 94.1484 311.273 94.8359C311.633 95.5234 312.102 96.1094 312.68 96.5938C313.258 97.0625 313.938 97.4375 314.719 97.7188C315.5 97.9844 316.328 98.1172 317.203 98.1172C318.062 98.1172 318.883 97.9844 319.664 97.7188C320.445 97.4375 321.125 97.0625 321.703 96.5938C322.281 96.1094 322.742 95.5234 323.086 94.8359C323.445 94.1484 323.625 93.3906 323.625 92.5625V84.9688C323.625 84.1406 323.445 83.3828 323.086 82.6953C322.742 82.0078 322.281 81.4219 321.703 80.9375C321.125 80.4531 320.445 80.0781 319.664 79.8125C318.883 79.5312 318.062 79.3906 317.203 79.3906C316.344 79.3906 315.516 79.5312 314.719 79.8125C313.938 80.0781 313.258 80.4531 312.68 80.9375C312.102 81.4219 311.633 82.0078 311.273 82.6953C310.93 83.3828 310.758 84.1406 310.758 84.9688V92.5625ZM333.633 88.7656C333.633 87 333.828 85.3359 334.219 83.7734C334.625 82.1953 335.227 80.8359 336.023 79.6953C336.82 78.5391 337.828 77.625 339.047 76.9531C340.266 76.2812 341.688 75.9453 343.312 75.9453C345.141 75.9453 346.711 76.3359 348.023 77.1172C349.336 77.8984 350.375 79.0312 351.141 80.5156V68.3516H355.477V101H351.141V97.0156C350.375 98.4844 349.352 99.6172 348.07 100.414C346.789 101.195 345.242 101.586 343.43 101.586C341.773 101.586 340.328 101.25 339.094 100.578C337.875 99.9062 336.859 98.9922 336.047 97.8359C335.234 96.6797 334.625 95.3281 334.219 93.7812C333.828 92.2188 333.633 90.5469 333.633 88.7656ZM338.18 92.5625C338.18 93.3906 338.336 94.1484 338.648 94.8359C338.977 95.5234 339.422 96.1094 339.984 96.5938C340.547 97.0625 341.203 97.4375 341.953 97.7188C342.703 97.9844 343.531 98.1172 344.438 98.1172C346.609 98.1172 348.266 97.4297 349.406 96.0547C350.562 94.6797 351.141 92.9375 351.141 90.8281V86.7031C351.141 84.5938 350.562 82.8516 349.406 81.4766C348.266 80.0859 346.609 79.3906 344.438 79.3906C343.547 79.3906 342.719 79.5312 341.953 79.8125C341.203 80.0781 340.547 80.4531 339.984 80.9375C339.422 81.4219 338.977 82.0078 338.648 82.6953C338.336 83.3828 338.18 84.1406 338.18 84.9688V92.5625ZM362.133 88.7656C362.133 86.9062 362.359 85.1875 362.812 83.6094C363.281 82.0156 363.969 80.6641 364.875 79.5547C365.797 78.4297 366.906 77.5469 368.203 76.9062C369.5 76.2656 370.992 75.9453 372.68 75.9453C374.445 75.9453 375.984 76.25 377.297 76.8594C378.609 77.4688 379.695 78.3047 380.555 79.3672C381.414 80.4141 382.062 81.6484 382.5 83.0703C382.938 84.4922 383.156 86.0234 383.156 87.6641V89.9609H366.68V92.5625C366.68 93.4531 366.844 94.2422 367.172 94.9297C367.516 95.6172 367.977 96.2031 368.555 96.6875C369.133 97.1562 369.781 97.5156 370.5 97.7656C371.219 98 371.961 98.1172 372.727 98.1172C374.258 98.1172 375.586 97.7266 376.711 96.9453C377.836 96.1641 378.477 94.9219 378.633 93.2188H382.969C382.875 94.5312 382.531 95.7031 381.938 96.7344C381.344 97.75 380.57 98.6172 379.617 99.3359C378.68 100.055 377.617 100.609 376.43 101C375.242 101.391 373.992 101.586 372.68 101.586C370.914 101.586 369.367 101.266 368.039 100.625C366.727 99.9844 365.625 99.1016 364.734 97.9766C363.859 96.8516 363.203 95.5078 362.766 93.9453C362.344 92.3828 362.133 90.6562 362.133 88.7656ZM366.68 86.5156H378.68V85.1562C378.68 84.2656 378.516 83.4609 378.188 82.7422C377.875 82.0234 377.438 81.4141 376.875 80.9141C376.328 80.4141 375.688 80.0391 374.953 79.7891C374.234 79.5234 373.477 79.3906 372.68 79.3906C371.883 79.3906 371.125 79.5234 370.406 79.7891C369.688 80.0391 369.047 80.4141 368.484 80.9141C367.922 81.4141 367.477 82.0234 367.148 82.7422C366.836 83.4609 366.68 84.2656 366.68 85.1562V86.5156Z" fill="white"/>
<path d="M60.7727 134.614H64.4318V145H65.8409V134.614H69.5V133.364H60.7727V134.614ZM72.8338 139.75C72.8338 138.227 73.8054 137.364 75.1293 137.364C76.3906 137.364 77.152 138.159 77.152 139.545V145H78.4929V139.455C78.4929 137.21 77.2997 136.159 75.5156 136.159C74.1406 136.159 73.3565 136.733 72.9474 137.636H72.8338V133.364H71.4929V145H72.8338V139.75ZM84.6051 145.182C86.3778 145.182 87.6733 144.295 88.0824 142.977L86.7869 142.614C86.446 143.523 85.6562 143.977 84.6051 143.977C83.0312 143.977 81.946 142.96 81.8835 141.091H88.2188V140.523C88.2188 137.273 86.2869 136.159 84.4688 136.159C82.1051 136.159 80.5369 138.023 80.5369 140.705C80.5369 143.386 82.0824 145.182 84.6051 145.182ZM81.8835 139.932C81.9744 138.574 82.9347 137.364 84.4688 137.364C85.9233 137.364 86.8551 138.455 86.8551 139.932H81.8835ZM101.895 136.273H100.44L98.0312 143.227H97.9403L95.5312 136.273H94.0767L97.304 145H98.6676L101.895 136.273ZM105.967 145.205C107.49 145.205 108.286 144.386 108.558 143.818H108.626V145H109.967V139.25C109.967 136.477 107.854 136.159 106.74 136.159C105.422 136.159 103.922 136.614 103.24 138.205L104.513 138.659C104.808 138.023 105.507 137.341 106.786 137.341C108.018 137.341 108.626 137.994 108.626 139.114V139.159C108.626 139.807 107.967 139.75 106.376 139.955C104.757 140.165 102.99 140.523 102.99 142.523C102.99 144.227 104.308 145.205 105.967 145.205ZM106.172 144C105.104 144 104.331 143.523 104.331 142.591C104.331 141.568 105.263 141.25 106.308 141.114C106.876 141.045 108.399 140.886 108.626 140.614V141.841C108.626 142.932 107.763 144 106.172 144ZM113.756 133.364H112.415V145H113.756V133.364ZM116.212 145H117.553V136.273H116.212V145ZM116.893 134.818C117.416 134.818 117.848 134.409 117.848 133.909C117.848 133.409 117.416 133 116.893 133C116.371 133 115.939 133.409 115.939 133.909C115.939 134.409 116.371 134.818 116.893 134.818ZM123.304 145.182C124.986 145.182 125.554 144.136 125.849 143.659H126.009V145H127.304V133.364H125.963V137.659H125.849C125.554 137.205 125.031 136.159 123.327 136.159C121.122 136.159 119.599 137.909 119.599 140.659C119.599 143.432 121.122 145.182 123.304 145.182ZM123.486 143.977C121.804 143.977 120.94 142.5 120.94 140.636C120.94 138.795 121.781 137.364 123.486 137.364C125.122 137.364 125.986 138.682 125.986 140.636C125.986 142.614 125.099 143.977 123.486 143.977ZM132.514 145.205C134.037 145.205 134.832 144.386 135.105 143.818H135.173V145H136.514V139.25C136.514 136.477 134.401 136.159 133.287 136.159C131.969 136.159 130.469 136.614 129.787 138.205L131.06 138.659C131.355 138.023 132.054 137.341 133.332 137.341C134.565 137.341 135.173 137.994 135.173 139.114V139.159C135.173 139.807 134.514 139.75 132.923 139.955C131.304 140.165 129.537 140.523 129.537 142.523C129.537 144.227 130.855 145.205 132.514 145.205ZM132.719 144C131.651 144 130.878 143.523 130.878 142.591C130.878 141.568 131.81 141.25 132.855 141.114C133.423 141.045 134.946 140.886 135.173 140.614V141.841C135.173 142.932 134.31 144 132.719 144ZM142.757 136.273H140.893V134.182H139.553V136.273H138.234V137.409H139.553V142.864C139.553 144.386 140.78 145.114 141.916 145.114C142.416 145.114 142.734 145.023 142.916 144.955L142.643 143.75C142.53 143.773 142.348 143.818 142.053 143.818C141.462 143.818 140.893 143.636 140.893 142.5V137.409H142.757V136.273ZM148.226 145.182C150.589 145.182 152.18 143.386 152.18 140.682C152.18 137.955 150.589 136.159 148.226 136.159C145.862 136.159 144.271 137.955 144.271 140.682C144.271 143.386 145.862 145.182 148.226 145.182ZM148.226 143.977C146.43 143.977 145.612 142.432 145.612 140.682C145.612 138.932 146.43 137.364 148.226 137.364C150.021 137.364 150.839 138.932 150.839 140.682C150.839 142.432 150.021 143.977 148.226 143.977ZM154.227 145H155.568V139.477C155.568 138.295 156.5 137.432 157.773 137.432C158.131 137.432 158.5 137.5 158.591 137.523V136.159C158.438 136.148 158.085 136.136 157.886 136.136C156.841 136.136 155.932 136.727 155.614 137.591H155.523V136.273H154.227V145ZM166.021 139.75C166.021 138.227 166.964 137.364 168.249 137.364C169.493 137.364 170.249 138.176 170.249 139.545V145H171.589V139.455C171.589 137.227 170.402 136.159 168.635 136.159C167.317 136.159 166.499 136.75 166.089 137.636H165.976V136.273H164.68V145H166.021V139.75ZM177.585 145.182C179.949 145.182 181.54 143.386 181.54 140.682C181.54 137.955 179.949 136.159 177.585 136.159C175.222 136.159 173.631 137.955 173.631 140.682C173.631 143.386 175.222 145.182 177.585 145.182ZM177.585 143.977C175.79 143.977 174.972 142.432 174.972 140.682C174.972 138.932 175.79 137.364 177.585 137.364C179.381 137.364 180.199 138.932 180.199 140.682C180.199 142.432 179.381 143.977 177.585 143.977ZM186.882 145.182C188.564 145.182 189.132 144.136 189.428 143.659H189.587V145H190.882V133.364H189.541V137.659H189.428C189.132 137.205 188.609 136.159 186.905 136.159C184.7 136.159 183.178 137.909 183.178 140.659C183.178 143.432 184.7 145.182 186.882 145.182ZM187.064 143.977C185.382 143.977 184.518 142.5 184.518 140.636C184.518 138.795 185.359 137.364 187.064 137.364C188.7 137.364 189.564 138.682 189.564 140.636C189.564 142.614 188.678 143.977 187.064 143.977ZM197.183 145.182C198.956 145.182 200.251 144.295 200.661 142.977L199.365 142.614C199.024 143.523 198.234 143.977 197.183 143.977C195.609 143.977 194.524 142.96 194.462 141.091H200.797V140.523C200.797 137.273 198.865 136.159 197.047 136.159C194.683 136.159 193.115 138.023 193.115 140.705C193.115 143.386 194.661 145.182 197.183 145.182ZM194.462 139.932C194.553 138.574 195.513 137.364 197.047 137.364C198.501 137.364 199.433 138.455 199.433 139.932H194.462ZM211.223 136.273H209.268V135.386C209.268 134.523 209.632 134.068 210.518 134.068C210.905 134.068 211.132 134.159 211.268 134.205L211.655 133.045C211.45 132.955 211.041 132.818 210.382 132.818C209.132 132.818 207.928 133.568 207.928 135.068V136.273H206.518V137.409H207.928V145H209.268V137.409H211.223V136.273ZM216.288 145.182C218.652 145.182 220.243 143.386 220.243 140.682C220.243 137.955 218.652 136.159 216.288 136.159C213.925 136.159 212.334 137.955 212.334 140.682C212.334 143.386 213.925 145.182 216.288 145.182ZM216.288 143.977C214.493 143.977 213.675 142.432 213.675 140.682C213.675 138.932 214.493 137.364 216.288 137.364C218.084 137.364 218.902 138.932 218.902 140.682C218.902 142.432 218.084 143.977 216.288 143.977ZM222.29 145H223.631V139.477C223.631 138.295 224.562 137.432 225.835 137.432C226.193 137.432 226.562 137.5 226.653 137.523V136.159C226.5 136.148 226.148 136.136 225.949 136.136C224.903 136.136 223.994 136.727 223.676 137.591H223.585V136.273H222.29V145ZM236.538 136.273H234.675V134.182H233.334V136.273H232.016V137.409H233.334V142.864C233.334 144.386 234.561 145.114 235.697 145.114C236.197 145.114 236.516 145.023 236.697 144.955L236.425 143.75C236.311 143.773 236.129 143.818 235.834 143.818C235.243 143.818 234.675 143.636 234.675 142.5V137.409H236.538V136.273ZM240.084 139.75C240.084 138.227 241.055 137.364 242.379 137.364C243.641 137.364 244.402 138.159 244.402 139.545V145H245.743V139.455C245.743 137.21 244.55 136.159 242.766 136.159C241.391 136.159 240.607 136.733 240.197 137.636H240.084V133.364H238.743V145H240.084V139.75ZM251.855 145.182C253.628 145.182 254.923 144.295 255.332 142.977L254.037 142.614C253.696 143.523 252.906 143.977 251.855 143.977C250.281 143.977 249.196 142.96 249.134 141.091H255.469V140.523C255.469 137.273 253.537 136.159 251.719 136.159C249.355 136.159 247.787 138.023 247.787 140.705C247.787 143.386 249.332 145.182 251.855 145.182ZM249.134 139.932C249.224 138.574 250.185 137.364 251.719 137.364C253.173 137.364 254.105 138.455 254.105 139.932H249.134ZM266.645 133.364V141.682C266.645 143.131 265.952 143.909 264.736 143.909C263.628 143.909 262.827 143.261 262.827 142.273H261.44C261.44 144.062 262.827 145.159 264.736 145.159C266.759 145.159 268.054 143.915 268.054 141.682V133.364H266.645ZM274.241 145.182C276.605 145.182 278.196 143.386 278.196 140.682C278.196 137.955 276.605 136.159 274.241 136.159C271.878 136.159 270.287 137.955 270.287 140.682C270.287 143.386 271.878 145.182 274.241 145.182ZM274.241 143.977C272.446 143.977 271.628 142.432 271.628 140.682C271.628 138.932 272.446 137.364 274.241 137.364C276.037 137.364 276.855 138.932 276.855 140.682C276.855 142.432 276.037 143.977 274.241 143.977ZM280.794 148.25C282.004 148.25 282.862 147.608 283.362 146.273L287.078 136.295L285.612 136.273L283.203 143.227H283.112L280.703 136.273H279.249L282.476 145.045L282.226 145.727C281.749 147.034 281.135 147.159 280.158 146.909L279.817 148.091C279.953 148.159 280.339 148.25 280.794 148.25ZM295.034 138.227C294.614 136.989 293.67 136.159 291.943 136.159C290.102 136.159 288.739 137.205 288.739 138.682C288.739 139.886 289.455 140.693 291.057 141.068L292.511 141.409C293.392 141.614 293.807 142.034 293.807 142.636C293.807 143.386 293.011 144 291.761 144C290.665 144 289.977 143.528 289.739 142.591L288.466 142.909C288.778 144.392 290 145.182 291.784 145.182C293.812 145.182 295.193 144.074 295.193 142.568C295.193 141.352 294.432 140.585 292.875 140.205L291.58 139.886C290.545 139.631 290.08 139.284 290.08 138.614C290.08 137.864 290.875 137.318 291.943 137.318C293.114 137.318 293.597 137.966 293.83 138.568L295.034 138.227ZM301.007 136.273H299.143V134.182H297.803V136.273H296.484V137.409H297.803V142.864C297.803 144.386 299.03 145.114 300.166 145.114C300.666 145.114 300.984 145.023 301.166 144.955L300.893 143.75C300.78 143.773 300.598 143.818 300.303 143.818C299.712 143.818 299.143 143.636 299.143 142.5V137.409H301.007V136.273ZM303.024 145H304.365V139.477C304.365 138.295 305.297 137.432 306.57 137.432C306.928 137.432 307.297 137.5 307.388 137.523V136.159C307.234 136.148 306.882 136.136 306.683 136.136C305.638 136.136 304.729 136.727 304.411 137.591H304.32V136.273H303.024V145ZM312.371 145.182C314.143 145.182 315.439 144.295 315.848 142.977L314.553 142.614C314.212 143.523 313.422 143.977 312.371 143.977C310.797 143.977 309.712 142.96 309.649 141.091H315.984V140.523C315.984 137.273 314.053 136.159 312.234 136.159C309.871 136.159 308.303 138.023 308.303 140.705C308.303 143.386 309.848 145.182 312.371 145.182ZM309.649 139.932C309.74 138.574 310.7 137.364 312.234 137.364C313.689 137.364 314.621 138.455 314.621 139.932H309.649ZM320.592 145.205C322.115 145.205 322.911 144.386 323.183 143.818H323.251V145H324.592V139.25C324.592 136.477 322.479 136.159 321.365 136.159C320.047 136.159 318.547 136.614 317.865 138.205L319.138 138.659C319.433 138.023 320.132 137.341 321.411 137.341C322.643 137.341 323.251 137.994 323.251 139.114V139.159C323.251 139.807 322.592 139.75 321.001 139.955C319.382 140.165 317.615 140.523 317.615 142.523C317.615 144.227 318.933 145.205 320.592 145.205ZM320.797 144C319.729 144 318.956 143.523 318.956 142.591C318.956 141.568 319.888 141.25 320.933 141.114C321.501 141.045 323.024 140.886 323.251 140.614V141.841C323.251 142.932 322.388 144 320.797 144ZM327.04 145H328.381V139.545C328.381 138.267 329.312 137.364 330.358 137.364C331.375 137.364 332.085 138.028 332.085 139.023V145H333.449V139.318C333.449 138.193 334.153 137.364 335.381 137.364C336.335 137.364 337.153 137.869 337.153 139.159V145H338.494V139.159C338.494 137.108 337.392 136.159 335.835 136.159C334.585 136.159 333.67 136.733 333.222 137.636H333.131C332.699 136.705 331.938 136.159 330.79 136.159C329.653 136.159 328.812 136.705 328.449 137.636H328.335V136.273H327.04V145ZM345.446 148.273H346.787V143.659H346.901C347.196 144.136 347.764 145.182 349.446 145.182C351.628 145.182 353.151 143.432 353.151 140.659C353.151 137.909 351.628 136.159 349.423 136.159C347.719 136.159 347.196 137.205 346.901 137.659H346.741V136.273H345.446V148.273ZM346.764 140.636C346.764 138.682 347.628 137.364 349.264 137.364C350.969 137.364 351.81 138.795 351.81 140.636C351.81 142.5 350.946 143.977 349.264 143.977C347.651 143.977 346.764 142.614 346.764 140.636ZM355.196 145H356.537V139.477C356.537 138.295 357.469 137.432 358.741 137.432C359.099 137.432 359.469 137.5 359.56 137.523V136.159C359.406 136.148 359.054 136.136 358.855 136.136C357.81 136.136 356.901 136.727 356.582 137.591H356.491V136.273H355.196V145ZM364.429 145.182C366.793 145.182 368.384 143.386 368.384 140.682C368.384 137.955 366.793 136.159 364.429 136.159C362.065 136.159 360.474 137.955 360.474 140.682C360.474 143.386 362.065 145.182 364.429 145.182ZM364.429 143.977C362.634 143.977 361.815 142.432 361.815 140.682C361.815 138.932 362.634 137.364 364.429 137.364C366.224 137.364 367.043 138.932 367.043 140.682C367.043 142.432 366.224 143.977 364.429 143.977ZM374.226 136.273H372.362V134.182H371.021V136.273H369.703V137.409H371.021V142.864C371.021 144.386 372.249 145.114 373.385 145.114C373.885 145.114 374.203 145.023 374.385 144.955L374.112 143.75C373.999 143.773 373.817 143.818 373.521 143.818C372.93 143.818 372.362 143.636 372.362 142.5V137.409H374.226V136.273ZM379.695 145.182C382.058 145.182 383.649 143.386 383.649 140.682C383.649 137.955 382.058 136.159 379.695 136.159C377.331 136.159 375.74 137.955 375.74 140.682C375.74 143.386 377.331 145.182 379.695 145.182ZM379.695 143.977C377.899 143.977 377.081 142.432 377.081 140.682C377.081 138.932 377.899 137.364 379.695 137.364C381.49 137.364 382.308 138.932 382.308 140.682C382.308 142.432 381.49 143.977 379.695 143.977ZM389.241 145.182C391.173 145.182 392.446 144 392.673 142.455H391.332C391.082 143.409 390.287 143.977 389.241 143.977C387.651 143.977 386.628 142.659 386.628 140.636C386.628 138.659 387.673 137.364 389.241 137.364C390.423 137.364 391.128 138.091 391.332 138.886H392.673C392.446 137.25 391.06 136.159 389.219 136.159C386.855 136.159 385.287 138.023 385.287 140.682C385.287 143.295 386.787 145.182 389.241 145.182ZM398.179 145.182C400.543 145.182 402.134 143.386 402.134 140.682C402.134 137.955 400.543 136.159 398.179 136.159C395.815 136.159 394.224 137.955 394.224 140.682C394.224 143.386 395.815 145.182 398.179 145.182ZM398.179 143.977C396.384 143.977 395.565 142.432 395.565 140.682C395.565 138.932 396.384 137.364 398.179 137.364C399.974 137.364 400.793 138.932 400.793 140.682C400.793 142.432 399.974 143.977 398.179 143.977ZM405.521 133.364H404.18V145H405.521V133.364Z" fill="#C4C3C6"/>
<path fill-rule="evenodd" clip-rule="evenodd" d="M636.873 237.6C632.073 234.9 623.073 229.7 623.073 224.2L629.473 168.3C629.473 162.8 632.473 157.6 637.373 154.9L686.273 126.7C691.073 123.9 697.073 123.9 701.873 126.6L750.473 154.3C755.273 157 758.273 162.2 758.173 167.7L757.873 223.6C757.873 229.1 754.873 234.3 749.973 237L701.073 265.2C696.273 268 690.273 268 685.473 265.3L636.873 237.6Z" fill="black"/>
<path fill-rule="evenodd" clip-rule="evenodd" d="M674.273 219.8C673.073 218.5 671.573 218.8 669.873 219.5C668.373 218.6 666.973 217.6 666.673 215.1C666.673 214.7 664.273 214.4 663.973 214.3C661.573 213.2 662.973 210.5 660.073 210.4C658.273 210.3 658.273 211.3 657.273 210C657.073 209.8 656.673 209.3 655.873 208.4L655.073 201.9L647.873 194.5C642.273 192.7 639.273 191.8 639.073 191.8C639.473 192.1 641.673 193.9 645.673 197L652.473 203.6C653.473 207.4 654.273 209.6 654.773 210.4C653.573 209.2 645.473 204.3 643.973 203.6C642.373 202.9 639.473 202.6 637.873 202C638.873 203.2 647.173 210.1 648.573 210.5C650.173 211 652.373 209.9 653.273 211.6C653.673 212.4 653.673 214 654.673 213.2C655.173 212.8 656.073 214.3 656.373 214.4C658.073 214.6 657.873 216.1 659.273 216.9C662.073 218.5 661.973 219.7 662.473 223.5C662.573 224.6 664.973 224.6 665.173 225.7C665.173 225.9 665.373 226 665.573 226C668.273 226.1 671.873 232.8 673.273 235.2C673.173 233.3 671.973 227.3 670.973 226.6C669.573 225.7 668.273 225.5 667.173 224C666.873 223.6 664.973 222.4 665.173 221.8C665.673 220.1 665.273 220.2 665.173 218.6C666.073 218.8 666.573 219.5 667.173 220C667.873 220.5 668.673 220.6 669.673 220C671.273 219.7 672.673 219.6 674.273 219.8ZM658.873 179.1C659.073 179.2 659.373 179.4 659.573 179.5C659.673 179.5 659.773 179.4 659.873 179.4C659.973 179.5 660.173 179.5 660.273 179.6C660.173 179.8 660.073 180 660.273 180.1C660.373 180.2 660.573 180 660.673 179.8C660.773 179.9 660.973 179.9 661.073 180C660.973 180.3 661.073 180.3 661.273 180.1C661.573 180.3 661.873 180.4 662.173 180.6C662.373 181.1 662.573 181.7 663.373 181C664.073 181.1 664.473 181.7 665.173 181.7C665.073 182.6 665.273 182.8 666.073 182.2C666.373 182.4 666.773 182.6 667.073 182.7C667.073 182.9 667.273 183 667.473 182.7C667.573 182.6 667.573 182.4 667.673 182.3C668.073 182.5 668.573 182.7 668.773 183.1C666.373 186.2 663.873 189.3 661.573 192.5C658.673 196.7 657.073 202.8 656.673 207.3C656.673 207.7 656.673 208.1 656.673 208.4C656.673 209.2 656.673 209.9 657.673 208.9C657.873 208.7 658.173 208.5 658.273 208.6C659.273 209.2 660.273 208 661.273 207.1C662.873 205.7 664.473 205.2 666.073 204.8C667.973 204.3 669.873 203.6 671.673 203.5C673.473 203.4 675.273 200.6 676.973 199C678.273 197.7 676.573 196.4 677.973 195.3C678.073 195.2 678.273 195.2 678.373 195.1L678.273 195C678.573 195.2 678.773 195.5 679.173 195.6C682.473 196.8 685.673 198 688.573 199.9C691.473 201.8 691.173 206.1 691.173 210.7C689.573 209.3 688.273 208.1 686.873 207C686.873 207.6 687.073 207.9 687.373 208.2C688.673 209.8 689.773 211.8 691.373 213.1L691.473 213.7C691.073 214.3 691.073 214.6 691.473 214.7C691.473 218.8 692.373 223 690.973 227.1C690.673 228.1 690.073 228.2 689.773 227.7C689.273 227.2 689.073 226.4 688.873 225.5C688.873 225.1 688.773 224.7 688.473 224.7C686.873 224.8 684.073 223.1 684.173 221.6C684.173 220.5 684.373 219.2 683.373 218.9C683.073 220.4 682.873 221.8 682.573 223.4C681.473 222.6 680.873 221.2 679.473 221C679.873 223 683.673 224.5 685.373 224.7C687.273 225 688.173 226.2 688.173 228.7C688.173 229.7 688.573 230.2 689.373 230.3C690.173 230.4 690.473 231.3 690.373 232.3C690.173 236.4 690.773 248.6 689.773 252.9C689.573 253.6 689.373 253.9 688.773 254.1C686.173 255.1 683.673 255.7 681.273 255.3C678.973 254.9 675.673 245.9 673.573 245C671.773 244.2 669.973 243.6 668.373 242.4C668.073 241.8 667.773 241.1 666.773 241.9C666.273 242.3 666.173 241.9 665.873 241.7C666.373 240.4 665.973 240.4 665.173 240.9C665.073 240.8 664.873 240.8 664.773 240.7C664.373 239.6 662.473 239.2 661.573 240.1C661.373 240.2 661.173 240.3 661.073 240.1C661.073 239.9 661.073 239.9 660.873 240.1H660.773V240C660.573 240.1 660.473 239.8 660.173 240C656.273 240 655.873 237 652.073 236.5C646.473 235.8 641.473 234 637.473 230.2C637.273 230 636.873 230 637.073 229.4C637.573 228.1 637.173 227.3 636.973 226.4C636.573 224.3 635.873 222.5 635.873 220.2C635.773 218.2 635.773 216.2 637.173 213.9C637.373 213.9 637.373 213.8 637.273 213.6C637.373 213.4 637.473 213.2 637.573 213C638.073 212.7 638.273 212.4 637.973 212C637.973 211.9 638.073 211.8 638.073 211.7V211.3C638.673 208.7 635.273 209.1 635.073 206.8C634.673 202.5 632.873 199.1 633.073 194.3C633.173 191.5 632.773 188.8 633.873 185.8C635.673 180.7 634.173 178.5 634.973 173.5C634.973 173.2 634.873 172.7 635.173 172.6C635.573 172.5 635.973 172 636.373 172.5C637.273 173.8 638.873 174 640.273 174.5C643.373 175.5 648.973 174.4 651.973 175.6C652.073 176.1 652.173 176.5 652.773 175.8C652.873 175.9 653.073 175.9 653.173 176C653.073 176.4 653.273 176.4 653.473 176.2C654.173 176.2 654.473 176.7 654.973 177L655.273 176.9C655.973 177.3 656.773 177.7 657.473 178.1C657.873 178.8 658.173 179.4 658.873 179.1Z" fill="#D3D8E0"/>
<path fill-rule="evenodd" clip-rule="evenodd" d="M646.773 166.4C643.373 164.5 643.073 161.6 645.973 159.9L688.873 135.1C691.773 133.4 696.973 133.6 700.273 135.4L742.273 159C745.673 160.9 745.973 163.8 743.073 165.5L700.173 190.3C697.273 192 692.073 191.8 688.773 190L646.773 166.4Z" fill="white"/>
<path fill-rule="evenodd" clip-rule="evenodd" d="M695.773 250.9L696.273 202.8C696.273 198.9 698.673 194.4 701.673 192.8L744.473 168.1C747.373 166.4 749.773 168.2 749.673 172L749.173 220.1C749.173 224 746.773 228.5 743.773 230.1L700.973 254.8C698.073 256.5 695.773 254.8 695.773 250.9Z" fill="#D3D8E0"/>
<path fill-rule="evenodd" clip-rule="evenodd" d="M595.509 160.158C594.82 154.827 594.789 139.674 595.492 136.845C596.254 134.207 599.612 131.507 600.547 130.803C603.713 128.162 607.716 126.206 611.065 123.823C613.995 121.777 617.138 120.084 620.785 119.701C620.504 120.832 625.028 123.318 626.423 124.46C628.875 126.325 630.018 128.694 629.211 131.869C628.929 133.001 628.744 134.103 628.653 135.176C628.622 136.441 628.622 136.441 630.064 135.686C631.268 136.887 632.567 138.058 633.675 139.288C636.228 142.167 678.015 172.474 678.613 175.115C679.161 177.248 677.828 182.465 679.494 184.152C680.448 185.22 679.827 191.056 679.339 192.879C679.302 193.099 679.514 193.453 679.764 193.585C681.005 194.565 680.173 194.924 679.342 195.283C678.988 195.496 678.51 195.642 678.128 195.759C673.243 197.566 666.017 200.611 661.265 198.405C657.606 196.7 654.118 194.525 650.497 192.599C643.129 188.682 632.587 180.193 625.743 175.593C622.042 173.065 618.445 170.191 614.383 168.191C613.163 167.623 612.326 166.938 611.688 165.878C611.263 165.171 610.647 164.523 610.317 163.788C609.988 163.052 609.547 162.977 608.84 163.403C607.427 164.253 605.918 165.132 604.38 165.916C603.225 166.583 601.929 167.816 600.855 167.726C599.562 167.599 598.94 165.907 597.986 164.839C597.59 164.228 595.706 161.144 595.509 160.158Z" fill="black"/>
<path fill-rule="evenodd" clip-rule="evenodd" d="M598.784 158.216C598.736 152.584 599.07 146.836 599.462 141.278C599.666 138.183 601.273 135.914 603.754 134.11C606.779 132.035 609.929 130.026 613.109 128.113C614.713 127.204 616.172 125.817 618.113 125.328C618.069 129.629 618.179 134.092 617.061 138.303C615.84 142.859 613.986 147.399 610.613 150.731C607.269 154.158 603.008 156.297 598.784 158.216Z" fill="white"/>
<path fill-rule="evenodd" clip-rule="evenodd" d="M621.166 124.708C622.59 125.946 623.735 126.955 624.88 127.964C625.284 128.259 625.592 128.583 625.481 129.245C624.236 134.749 624.027 140.564 622.216 145.928C621.225 148.845 621.321 148.816 618.67 147.326C617.421 146.662 617.15 146.118 617.66 144.707C620.031 138.44 621.682 131.87 621.166 124.708Z" fill="#D3D8E0"/>
<path fill-rule="evenodd" clip-rule="evenodd" d="M599.499 161.239C604.844 157.514 610.826 154.849 615.312 150.026C615.54 149.747 615.732 149.689 616.136 149.984C618.367 151.811 618.439 152.73 616.487 154.895C616.097 155.329 615.61 155.791 615.22 156.224C611.98 159.306 607.793 161.004 604.186 163.571C603.833 163.784 603.546 163.871 603.142 163.577C601.96 162.788 600.711 162.124 599.499 161.239Z" fill="#D3D8E0"/>
<path fill-rule="evenodd" clip-rule="evenodd" d="M616.547 162.615C620.178 159.1 623.551 155.768 626.895 152.34C627.771 151.445 628.212 151.519 628.917 152.454C629.225 152.778 629.533 153.102 629.937 153.397C640.814 163.665 651.559 174.184 663.579 183.057C665.723 184.598 667.867 186.138 670.011 187.678C670.444 188.069 670.877 188.459 670.898 188.871C670.824 189.312 670.192 189.296 669.714 189.442C667.036 190.261 664.337 190.668 661.542 191.104C661.351 191.163 661.131 191.125 660.881 190.993C659.258 190.13 657.501 189.516 656.04 188.499C650.379 184.688 644.812 180.847 639.151 177.036C635.854 174.802 632.652 172.54 629.355 170.306C625.404 167.645 621.499 164.447 616.547 162.615Z" fill="white"/>
<path fill-rule="evenodd" clip-rule="evenodd" d="M672.149 188.175L665.263 182.752C661.599 180.003 658.185 177.386 654.8 174.866C646.107 168.322 638.29 160.882 629.987 153.905C628.438 152.6 627.647 151.379 628.172 149.336C628.942 146.381 629.271 143.353 629.858 140.141C633.006 143.257 636.067 146.085 639.061 149.039C645.975 155.918 652.697 162.856 661.371 167.629C661.746 167.828 669.982 174.93 670.128 175.408C671.024 180.049 671.07 183.277 672.149 188.175Z" fill="#D3D8E0"/>
<path fill-rule="evenodd" clip-rule="evenodd" d="M671.273 230.699C665.273 229.999 659.273 229.999 653.373 230.199C646.573 230.399 641.973 226.499 636.573 223.099C642.973 219.799 664.973 224.499 671.273 230.699Z" fill="white"/>
<path fill-rule="evenodd" clip-rule="evenodd" d="M587.973 228.247C586.073 232.547 585.273 237.147 584.173 241.647C583.973 242.647 584.473 243.447 584.773 244.347C585.073 245.047 585.973 245.847 585.073 246.647C584.173 247.347 583.273 248.547 581.873 248.147C581.473 248.047 581.173 247.947 580.773 248.147C573.173 251.447 565.473 250.147 557.873 248.147C548.373 245.647 539.173 242.147 530.373 237.747C525.473 235.247 522.073 231.547 519.373 226.947C518.073 224.847 516.073 223.347 515.173 220.947C515.173 220.847 514.873 220.647 514.973 220.547C515.373 218.747 514.373 217.547 513.673 216.047C512.673 214.147 513.673 212.947 515.373 211.647C521.073 207.247 525.573 201.847 528.573 195.247C529.073 194.047 527.973 192.447 526.573 192.347C523.873 192.047 521.273 191.847 518.373 191.647C519.373 190.147 518.873 188.947 517.973 187.547C516.673 185.447 516.073 183.247 516.973 180.647C518.273 177.047 519.373 173.447 521.973 170.447C523.173 169.047 527.873 168.747 529.073 170.147C532.173 173.747 532.473 173.847 537.173 176.147C538.373 176.747 538.873 176.547 539.473 175.347C544.473 165.947 547.473 155.847 549.673 145.547C549.973 144.247 550.473 143.747 551.673 143.347C553.573 142.747 556.373 142.547 561.073 142.947C566.773 143.447 574.373 144.747 575.973 145.347C581.673 147.447 587.273 149.747 592.073 153.547C599.173 159.047 609.973 169.847 614.673 177.647C615.273 178.747 613.873 182.147 611.373 186.647C611.673 186.547 611.873 186.547 612.273 186.547C611.573 187.147 610.973 187.647 610.473 188.247C609.973 189.147 609.373 190.147 608.773 191.147C607.573 194.247 607.973 197.347 603.873 200.547C609.173 201.547 612.073 206.047 617.073 206.947C619.173 207.347 620.773 206.647 622.773 207.047C626.973 207.847 631.573 209.947 635.573 211.147C636.873 211.547 638.173 211.847 639.073 212.847C639.873 213.747 640.973 212.747 642.073 213.147C647.673 215.147 653.273 217.047 658.973 218.947C663.273 220.447 667.573 221.947 671.273 224.747C672.173 225.447 670.773 225.647 671.473 226.647C673.273 229.147 679.273 237.847 673.373 238.147C674.273 244.147 673.273 247.247 673.173 253.347C673.173 255.847 672.673 256.447 670.673 258.347C669.173 259.847 668.273 260.247 668.273 262.047C666.673 262.047 665.473 261.247 664.173 260.647C650.273 255.347 638.273 246.847 626.373 238.347C623.473 236.247 597.173 228.447 588.373 224.047C588.573 225.547 588.573 226.847 587.973 228.247Z" fill="black"/>
<path fill-rule="evenodd" clip-rule="evenodd" d="M596.373 218.048C596.673 217.148 596.073 217.548 595.673 217.548C593.373 216.548 591.173 215.448 588.673 215.148C588.873 212.648 589.373 210.248 590.173 207.848C590.773 205.948 592.173 204.948 594.073 205.048C600.973 205.248 607.873 206.048 613.473 210.648C622.873 218.348 634.073 223.348 644.373 229.648C646.473 230.948 654.873 232.748 657.973 236.648C660.873 240.248 658.773 246.048 658.873 246.848C659.073 248.648 659.373 250.548 659.673 252.648C655.573 249.948 651.573 247.348 647.773 244.748C640.473 239.848 632.773 235.548 624.873 231.648C623.773 231.148 623.273 229.748 621.873 229.748C621.673 229.648 621.573 229.548 621.373 229.348L621.473 229.448C620.973 228.748 620.373 228.448 619.473 228.548C619.473 227.848 618.973 227.748 618.373 227.648L618.473 227.748C617.473 226.948 616.373 226.248 615.373 225.548C614.073 224.748 612.773 223.948 611.473 223.248C608.173 221.548 604.673 220.248 601.073 219.148C599.473 218.748 598.273 217.148 596.373 218.048Z" fill="#D3D8E0"/>
<path fill-rule="evenodd" clip-rule="evenodd" d="M568.273 153.648C569.773 150.748 569.773 150.748 572.573 152.048C579.873 155.448 584.973 155.448 591.073 160.848C592.273 161.848 592.673 162.448 591.173 163.848C582.373 172.348 575.773 182.548 569.773 193.148C565.173 201.348 560.373 209.548 555.773 217.748C555.073 219.048 554.373 219.448 552.773 218.848C545.473 216.448 537.973 215.348 530.373 214.548C528.573 214.348 526.773 214.448 524.973 214.248C522.773 214.048 523.473 213.248 524.173 212.148C526.273 208.648 528.173 205.048 530.473 201.748C539.173 188.848 544.273 178.848 548.773 164.148C550.073 159.748 554.773 154.948 553.273 150.448C552.773 148.848 553.473 147.548 555.473 147.548C559.873 147.448 562.273 148.348 566.473 149.648C567.973 150.048 566.973 150.848 566.673 151.448C563.573 158.548 560.473 165.548 557.373 172.648C557.073 173.348 556.873 174.148 556.573 174.848C556.073 175.548 555.373 176.248 556.173 177.448C556.573 176.648 556.873 175.948 557.073 175.248C560.873 168.048 564.573 160.848 568.273 153.648Z" fill="#D3D8E0"/>
<path fill-rule="evenodd" clip-rule="evenodd" d="M591.173 166.147C592.873 166.147 594.573 165.847 596.373 165.747C598.573 165.747 597.973 166.547 597.373 167.647C595.773 171.247 594.373 174.847 592.573 178.347C585.773 191.647 582.073 201.647 579.573 216.247C578.773 220.547 574.873 225.647 576.873 229.847C577.573 231.347 577.073 232.547 575.173 232.847C570.973 233.447 562.473 225.847 564.673 218.747C564.873 218.047 558.373 218.947 558.473 218.247C558.873 217.447 571.873 205.647 570.973 204.547C570.773 205.347 570.573 206.047 570.373 206.747C567.573 213.947 583.773 166.347 591.173 166.147Z" fill="#D3D8E0"/>
<path fill-rule="evenodd" clip-rule="evenodd" d="M530.473 214.547C528.673 214.347 526.873 214.447 525.073 214.247C522.873 214.047 523.573 213.247 524.273 212.147C526.373 208.647 528.273 205.047 530.573 201.747C539.273 188.847 544.373 178.847 548.873 164.147C550.173 159.747 554.873 154.947 553.373 150.447C552.873 148.847 553.573 147.547 555.573 147.547C559.873 147.447 538.073 215.247 530.473 214.547Z" fill="white"/>
<path fill-rule="evenodd" clip-rule="evenodd" d="M525.173 181.147C525.173 181.047 525.073 180.947 525.073 180.947C521.073 177.147 521.073 176.647 525.273 172.247C525.373 174.247 526.873 174.647 528.173 175.247C529.273 175.747 530.473 176.247 531.573 176.847C535.273 178.547 535.273 178.547 533.673 182.347C530.373 190.147 530.073 190.247 521.873 188.647C521.173 188.547 520.773 188.347 520.673 187.547C520.573 186.647 520.273 185.847 520.273 184.947C520.273 180.347 520.973 179.947 524.873 181.647C525.173 181.747 525.373 181.947 525.573 181.547C525.573 181.547 525.273 181.247 525.173 181.147Z" fill="#D3D8E0"/>
<path fill-rule="evenodd" clip-rule="evenodd" d="M665.973 230.348C666.073 234.148 666.673 237.748 667.373 241.448C668.073 245.548 666.273 248.848 664.773 252.448C662.173 248.848 662.973 234.848 665.973 230.348Z" fill="#D3D8E0"/>
<path fill-rule="evenodd" clip-rule="evenodd" d="M708.173 183.5C708.973 183.2 709.273 183.9 709.273 185.4C708.773 185.1 708.473 184.3 708.173 183.5Z" fill="#FDFDFD"/>
<path fill-rule="evenodd" clip-rule="evenodd" d="M639.973 239.8C639.773 239.7 639.573 239.7 639.373 239.6L639.473 239.5C639.673 239.5 639.873 239.5 639.973 239.8C639.973 239.7 639.973 239.8 639.973 239.8Z" fill="#B1B2B7"/>
</g>
<defs>
<clipPath id="clip0">
<rect width="882" height="300" fill="white"/>
</clipPath>
</defs>
</svg>
