<svg width="882" height="300" viewBox="0 0 882 300" fill="none" xmlns="http://www.w3.org/2000/svg">
<g clip-path="url(#clip0)">
<rect width="882" height="300" fill="white"/>
<rect width="882" height="210" fill="#E9ECF0"/>
<path d="M64.4062 101V68.3516H71.625L79.9688 93.5703H80.1562L88.4531 68.3516H95.5781V101H91.2891V73.2031H91.1016L81.8438 101H78.1875L68.8828 73.2031H68.6953V101H64.4062ZM102.68 88.7656C102.68 86.9062 102.906 85.1875 103.359 83.6094C103.828 82.0156 104.516 80.6641 105.422 79.5547C106.344 78.4297 107.453 77.5469 108.75 76.9062C110.047 76.2656 111.539 75.9453 113.227 75.9453C114.992 75.9453 116.531 76.25 117.844 76.8594C119.156 77.4688 120.242 78.3047 121.102 79.3672C121.961 80.4141 122.609 81.6484 123.047 83.0703C123.484 84.4922 123.703 86.0234 123.703 87.6641V89.9609H107.227V92.5625C107.227 93.4531 107.391 94.2422 107.719 94.9297C108.062 95.6172 108.523 96.2031 109.102 96.6875C109.68 97.1562 110.328 97.5156 111.047 97.7656C111.766 98 112.508 98.1172 113.273 98.1172C114.805 98.1172 116.133 97.7266 117.258 96.9453C118.383 96.1641 119.023 94.9219 119.18 93.2188H123.516C123.422 94.5312 123.078 95.7031 122.484 96.7344C121.891 97.75 121.117 98.6172 120.164 99.3359C119.227 100.055 118.164 100.609 116.977 101C115.789 101.391 114.539 101.586 113.227 101.586C111.461 101.586 109.914 101.266 108.586 100.625C107.273 99.9844 106.172 99.1016 105.281 97.9766C104.406 96.8516 103.75 95.5078 103.312 93.9453C102.891 92.3828 102.68 90.6562 102.68 88.7656ZM107.227 86.5156H119.227V85.1562C119.227 84.2656 119.062 83.4609 118.734 82.7422C118.422 82.0234 117.984 81.4141 117.422 80.9141C116.875 80.4141 116.234 80.0391 115.5 79.7891C114.781 79.5234 114.023 79.3906 113.227 79.3906C112.43 79.3906 111.672 79.5234 110.953 79.7891C110.234 80.0391 109.594 80.4141 109.031 80.9141C108.469 81.4141 108.023 82.0234 107.695 82.7422C107.383 83.4609 107.227 84.2656 107.227 85.1562V86.5156ZM128.977 88.7656C128.977 86.9062 129.203 85.1875 129.656 83.6094C130.125 82.0156 130.812 80.6641 131.719 79.5547C132.641 78.4297 133.75 77.5469 135.047 76.9062C136.344 76.2656 137.836 75.9453 139.523 75.9453C141.289 75.9453 142.828 76.25 144.141 76.8594C145.453 77.4688 146.539 78.3047 147.398 79.3672C148.258 80.4141 148.906 81.6484 149.344 83.0703C149.781 84.4922 150 86.0234 150 87.6641V89.9609H133.523V92.5625C133.523 93.4531 133.688 94.2422 134.016 94.9297C134.359 95.6172 134.82 96.2031 135.398 96.6875C135.977 97.1562 136.625 97.5156 137.344 97.7656C138.062 98 138.805 98.1172 139.57 98.1172C141.102 98.1172 142.43 97.7266 143.555 96.9453C144.68 96.1641 145.32 94.9219 145.477 93.2188H149.812C149.719 94.5312 149.375 95.7031 148.781 96.7344C148.188 97.75 147.414 98.6172 146.461 99.3359C145.523 100.055 144.461 100.609 143.273 101C142.086 101.391 140.836 101.586 139.523 101.586C137.758 101.586 136.211 101.266 134.883 100.625C133.57 99.9844 132.469 99.1016 131.578 97.9766C130.703 96.8516 130.047 95.5078 129.609 93.9453C129.188 92.3828 128.977 90.6562 128.977 88.7656ZM133.523 86.5156H145.523V85.1562C145.523 84.2656 145.359 83.4609 145.031 82.7422C144.719 82.0234 144.281 81.4141 143.719 80.9141C143.172 80.4141 142.531 80.0391 141.797 79.7891C141.078 79.5234 140.32 79.3906 139.523 79.3906C138.727 79.3906 137.969 79.5234 137.25 79.7891C136.531 80.0391 135.891 80.4141 135.328 80.9141C134.766 81.4141 134.32 82.0234 133.992 82.7422C133.68 83.4609 133.523 84.2656 133.523 85.1562V86.5156ZM154.219 80.2109V76.5312H158.344V68.3516H162.609V76.5312H168.234V80.2109H162.609V97.2969H168.234V101H158.344V80.2109H154.219ZM174.141 72.875V68.3516H178.641V72.875H174.141ZM174.234 101V76.5312H178.547V101H174.234ZM186.516 101V76.5312H190.828V80.5625C191.5 79.125 192.422 78 193.594 77.1875C194.766 76.3594 196.281 75.9453 198.141 75.9453C199.328 75.9453 200.406 76.1094 201.375 76.4375C202.344 76.75 203.18 77.2578 203.883 77.9609C204.586 78.6641 205.133 79.5703 205.523 80.6797C205.914 81.7734 206.109 83.1094 206.109 84.6875V101H201.773V85.1562C201.773 83.3594 201.43 81.9531 200.742 80.9375C200.055 79.9062 198.781 79.3906 196.922 79.3906C196.031 79.3906 195.219 79.5703 194.484 79.9297C193.75 80.2734 193.109 80.7734 192.562 81.4297C192.016 82.0859 191.586 82.8672 191.273 83.7734C190.977 84.6641 190.828 85.6406 190.828 86.7031V101H186.516ZM212.648 88.7656C212.648 87 212.844 85.3359 213.234 83.7734C213.641 82.1953 214.242 80.8359 215.039 79.6953C215.836 78.5391 216.844 77.625 218.062 76.9531C219.281 76.2812 220.703 75.9453 222.328 75.9453C224.156 75.9453 225.727 76.3359 227.039 77.1172C228.352 77.8984 229.391 79.0312 230.156 80.5156V76.5312H234.492V100.531C234.492 102.234 234.188 103.695 233.578 104.914C232.969 106.148 232.164 107.172 231.164 107.984C230.18 108.797 229.055 109.391 227.789 109.766C226.523 110.156 225.234 110.352 223.922 110.352C222.641 110.352 221.414 110.227 220.242 109.977C219.086 109.727 218.031 109.305 217.078 108.711C216.141 108.117 215.359 107.328 214.734 106.344C214.109 105.375 213.703 104.156 213.516 102.688H217.828C217.984 104.094 218.578 105.148 219.609 105.852C220.656 106.555 222.031 106.906 223.734 106.906C224.562 106.906 225.367 106.781 226.148 106.531C226.93 106.297 227.617 105.914 228.211 105.383C228.805 104.867 229.273 104.188 229.617 103.344C229.977 102.516 230.156 101.508 230.156 100.32V97.0156C229.391 98.4844 228.367 99.6172 227.086 100.414C225.805 101.195 224.258 101.586 222.445 101.586C220.789 101.586 219.344 101.25 218.109 100.578C216.891 99.9062 215.875 98.9922 215.062 97.8359C214.25 96.6797 213.641 95.3281 213.234 93.7812C212.844 92.2188 212.648 90.5469 212.648 88.7656ZM217.195 92.5625C217.195 93.3906 217.352 94.1484 217.664 94.8359C217.992 95.5234 218.438 96.1094 219 96.5938C219.562 97.0625 220.219 97.4375 220.969 97.7188C221.719 97.9844 222.547 98.1172 223.453 98.1172C225.625 98.1172 227.281 97.4297 228.422 96.0547C229.578 94.6797 230.156 92.9375 230.156 90.8281V86.7031C230.156 84.5938 229.578 82.8516 228.422 81.4766C227.281 80.0859 225.625 79.3906 223.453 79.3906C222.562 79.3906 221.734 79.5312 220.969 79.8125C220.219 80.0781 219.562 80.4531 219 80.9375C218.438 81.4219 217.992 82.0078 217.664 82.6953C217.352 83.3828 217.195 84.1406 217.195 84.9688V92.5625ZM240.844 93.2656H245.18C245.242 94.8906 245.82 96.1094 246.914 96.9219C248.023 97.7188 249.328 98.1172 250.828 98.1172C252.266 98.1172 253.516 97.7969 254.578 97.1562C255.641 96.5156 256.172 95.5859 256.172 94.3672C256.172 93.3828 255.852 92.5938 255.211 92C254.57 91.4062 253.43 90.9531 251.789 90.6406L247.758 89.8203C245.742 89.3984 244.188 88.625 243.094 87.5C242.016 86.3594 241.477 84.8281 241.477 82.9062C241.477 81.9531 241.688 81.0547 242.109 80.2109C242.547 79.3516 243.164 78.6094 243.961 77.9844C244.773 77.3594 245.719 76.8672 246.797 76.5078C247.891 76.1328 249.109 75.9453 250.453 75.9453C251.609 75.9453 252.734 76.1016 253.828 76.4141C254.938 76.7109 255.922 77.1797 256.781 77.8203C257.656 78.4609 258.352 79.2812 258.867 80.2812C259.398 81.2656 259.68 82.4453 259.711 83.8203H255.398C255.336 82.1953 254.828 81.0547 253.875 80.3984C252.938 79.7266 251.812 79.3906 250.5 79.3906C249.156 79.3906 248.016 79.7109 247.078 80.3516C246.156 80.9922 245.695 81.8281 245.695 82.8594C245.695 83.8125 245.969 84.5547 246.516 85.0859C247.062 85.6172 247.945 86.0078 249.164 86.2578L253.289 87.125C255.727 87.6406 257.531 88.4766 258.703 89.6328C259.891 90.7734 260.484 92.3359 260.484 94.3203C260.484 95.3516 260.25 96.3125 259.781 97.2031C259.328 98.0781 258.664 98.8359 257.789 99.4766C256.93 100.102 255.906 100.609 254.719 101C253.531 101.391 252.219 101.586 250.781 101.586C249.406 101.586 248.117 101.406 246.914 101.047C245.727 100.703 244.68 100.188 243.773 99.5C242.883 98.7969 242.18 97.9297 241.664 96.8984C241.148 95.8516 240.875 94.6406 240.844 93.2656Z" fill="black"/>
<path d="M61.4091 145H68.2273V143.75H62.8182V133.364H61.4091V145ZM73.8864 145.182C75.6591 145.182 76.9545 144.295 77.3636 142.977L76.0682 142.614C75.7273 143.523 74.9375 143.977 73.8864 143.977C72.3125 143.977 71.2273 142.96 71.1648 141.091H77.5V140.523C77.5 137.273 75.5682 136.159 73.75 136.159C71.3864 136.159 69.8182 138.023 69.8182 140.705C69.8182 143.386 71.3636 145.182 73.8864 145.182ZM71.1648 139.932C71.2557 138.574 72.2159 137.364 73.75 137.364C75.2045 137.364 76.1364 138.455 76.1364 139.932H71.1648ZM82.108 145.205C83.6307 145.205 84.4261 144.386 84.6989 143.818H84.767V145H86.108V139.25C86.108 136.477 83.9943 136.159 82.8807 136.159C81.5625 136.159 80.0625 136.614 79.3807 138.205L80.6534 138.659C80.9489 138.023 81.6477 137.341 82.9261 137.341C84.1591 137.341 84.767 137.994 84.767 139.114V139.159C84.767 139.807 84.108 139.75 82.517 139.955C80.8977 140.165 79.1307 140.523 79.1307 142.523C79.1307 144.227 80.4489 145.205 82.108 145.205ZM82.3125 144C81.2443 144 80.4716 143.523 80.4716 142.591C80.4716 141.568 81.4034 141.25 82.4489 141.114C83.017 141.045 84.5398 140.886 84.767 140.614V141.841C84.767 142.932 83.9034 144 82.3125 144ZM88.5554 145H89.8963V139.477C89.8963 138.295 90.8281 137.432 92.1009 137.432C92.4588 137.432 92.8281 137.5 92.919 137.523V136.159C92.7656 136.148 92.4134 136.136 92.2145 136.136C91.169 136.136 90.2599 136.727 89.9418 137.591H89.8509V136.273H88.5554V145ZM95.8494 139.75C95.8494 138.227 96.7926 137.364 98.0767 137.364C99.321 137.364 100.077 138.176 100.077 139.545V145H101.418V139.455C101.418 137.227 100.23 136.159 98.4631 136.159C97.1449 136.159 96.3267 136.75 95.9176 137.636H95.804V136.273H94.5085V145H95.8494V139.75ZM109.709 139.75C109.709 138.227 110.68 137.364 112.004 137.364C113.266 137.364 114.027 138.159 114.027 139.545V145H115.368V139.455C115.368 137.21 114.175 136.159 112.391 136.159C111.016 136.159 110.232 136.733 109.822 137.636H109.709V133.364H108.368V145H109.709V139.75ZM121.366 145.182C123.73 145.182 125.321 143.386 125.321 140.682C125.321 137.955 123.73 136.159 121.366 136.159C119.003 136.159 117.412 137.955 117.412 140.682C117.412 143.386 119.003 145.182 121.366 145.182ZM121.366 143.977C119.571 143.977 118.753 142.432 118.753 140.682C118.753 138.932 119.571 137.364 121.366 137.364C123.162 137.364 123.98 138.932 123.98 140.682C123.98 142.432 123.162 143.977 121.366 143.977ZM129.048 145H130.366L132.276 138.295H132.412L134.321 145H135.639L138.298 136.273H136.889L135.003 142.932H134.912L133.071 136.273H131.639L129.776 142.955H129.685L127.798 136.273H126.389L129.048 145ZM146.548 145H147.866L149.776 138.295H149.912L151.821 145H153.139L155.798 136.273H154.389L152.503 142.932H152.412L150.571 136.273H149.139L147.276 142.955H147.185L145.298 136.273H143.889L146.548 145ZM160.933 145.182C162.706 145.182 164.001 144.295 164.411 142.977L163.115 142.614C162.774 143.523 161.984 143.977 160.933 143.977C159.359 143.977 158.274 142.96 158.212 141.091H164.547V140.523C164.547 137.273 162.615 136.159 160.797 136.159C158.433 136.159 156.865 138.023 156.865 140.705C156.865 143.386 158.411 145.182 160.933 145.182ZM158.212 139.932C158.303 138.574 159.263 137.364 160.797 137.364C162.251 137.364 163.183 138.455 163.183 139.932H158.212ZM174.632 145.182C176.564 145.182 177.837 144 178.064 142.455H176.723C176.473 143.409 175.678 143.977 174.632 143.977C173.041 143.977 172.018 142.659 172.018 140.636C172.018 138.659 173.064 137.364 174.632 137.364C175.814 137.364 176.518 138.091 176.723 138.886H178.064C177.837 137.25 176.45 136.159 174.609 136.159C172.246 136.159 170.678 138.023 170.678 140.682C170.678 143.295 172.178 145.182 174.632 145.182ZM183.57 145.182C185.933 145.182 187.524 143.386 187.524 140.682C187.524 137.955 185.933 136.159 183.57 136.159C181.206 136.159 179.615 137.955 179.615 140.682C179.615 143.386 181.206 145.182 183.57 145.182ZM183.57 143.977C181.774 143.977 180.956 142.432 180.956 140.682C180.956 138.932 181.774 137.364 183.57 137.364C185.365 137.364 186.183 138.932 186.183 140.682C186.183 142.432 185.365 143.977 183.57 143.977ZM190.912 139.75C190.912 138.227 191.855 137.364 193.139 137.364C194.384 137.364 195.139 138.176 195.139 139.545V145H196.48V139.455C196.48 137.227 195.293 136.159 193.526 136.159C192.207 136.159 191.389 136.75 190.98 137.636H190.866V136.273H189.571V145H190.912V139.75ZM202.226 145.182C203.908 145.182 204.476 144.136 204.771 143.659H204.93V145H206.226V133.364H204.885V137.659H204.771C204.476 137.205 203.953 136.159 202.249 136.159C200.044 136.159 198.521 137.909 198.521 140.659C198.521 143.432 200.044 145.182 202.226 145.182ZM202.408 143.977C200.726 143.977 199.862 142.5 199.862 140.636C199.862 138.795 200.703 137.364 202.408 137.364C204.044 137.364 204.908 138.682 204.908 140.636C204.908 142.614 204.021 143.977 202.408 143.977ZM214.368 141.432C214.368 143.068 213.118 143.818 212.118 143.818C211.004 143.818 210.209 143 210.209 141.727V136.273H208.868V141.818C208.868 144.045 210.05 145.114 211.686 145.114C213.004 145.114 213.868 144.409 214.277 143.523H214.368V145H215.709V136.273H214.368V141.432ZM221.71 145.182C223.642 145.182 224.915 144 225.142 142.455H223.801C223.551 143.409 222.756 143.977 221.71 143.977C220.119 143.977 219.097 142.659 219.097 140.636C219.097 138.659 220.142 137.364 221.71 137.364C222.892 137.364 223.597 138.091 223.801 138.886H225.142C224.915 137.25 223.528 136.159 221.688 136.159C219.324 136.159 217.756 138.023 217.756 140.682C217.756 143.295 219.256 145.182 221.71 145.182ZM230.898 136.273H229.034V134.182H227.693V136.273H226.375V137.409H227.693V142.864C227.693 144.386 228.92 145.114 230.057 145.114C230.557 145.114 230.875 145.023 231.057 144.955L230.784 143.75C230.67 143.773 230.489 143.818 230.193 143.818C229.602 143.818 229.034 143.636 229.034 142.5V137.409H230.898V136.273ZM237.415 145H238.756V139.545C238.756 138.267 239.688 137.364 240.733 137.364C241.75 137.364 242.46 138.028 242.46 139.023V145H243.824V139.318C243.824 138.193 244.528 137.364 245.756 137.364C246.71 137.364 247.528 137.869 247.528 139.159V145H248.869V139.159C248.869 137.108 247.767 136.159 246.21 136.159C244.96 136.159 244.045 136.733 243.597 137.636H243.506C243.074 136.705 242.312 136.159 241.165 136.159C240.028 136.159 239.188 136.705 238.824 137.636H238.71V136.273H237.415V145ZM254.98 145.182C256.753 145.182 258.048 144.295 258.457 142.977L257.162 142.614C256.821 143.523 256.031 143.977 254.98 143.977C253.406 143.977 252.321 142.96 252.259 141.091H258.594V140.523C258.594 137.273 256.662 136.159 254.844 136.159C252.48 136.159 250.912 138.023 250.912 140.705C250.912 143.386 252.457 145.182 254.98 145.182ZM252.259 139.932C252.349 138.574 253.31 137.364 254.844 137.364C256.298 137.364 257.23 138.455 257.23 139.932H252.259ZM264.293 145.182C266.065 145.182 267.361 144.295 267.77 142.977L266.474 142.614C266.134 143.523 265.344 143.977 264.293 143.977C262.719 143.977 261.634 142.96 261.571 141.091H267.906V140.523C267.906 137.273 265.974 136.159 264.156 136.159C261.793 136.159 260.224 138.023 260.224 140.705C260.224 143.386 261.77 145.182 264.293 145.182ZM261.571 139.932C261.662 138.574 262.622 137.364 264.156 137.364C265.611 137.364 266.543 138.455 266.543 139.932H261.571ZM273.741 136.273H271.878V134.182H270.537V136.273H269.219V137.409H270.537V142.864C270.537 144.386 271.764 145.114 272.901 145.114C273.401 145.114 273.719 145.023 273.901 144.955L273.628 143.75C273.514 143.773 273.332 143.818 273.037 143.818C272.446 143.818 271.878 143.636 271.878 142.5V137.409H273.741V136.273ZM275.759 145H277.099V136.273H275.759V145ZM276.44 134.818C276.963 134.818 277.395 134.409 277.395 133.909C277.395 133.409 276.963 133 276.44 133C275.918 133 275.486 133.409 275.486 133.909C275.486 134.409 275.918 134.818 276.44 134.818ZM280.896 139.75C280.896 138.227 281.839 137.364 283.124 137.364C284.368 137.364 285.124 138.176 285.124 139.545V145H286.464V139.455C286.464 137.227 285.277 136.159 283.51 136.159C282.192 136.159 281.374 136.75 280.964 137.636H280.851V136.273H279.555V145H280.896V139.75ZM292.438 148.455C294.528 148.455 296.21 147.5 296.21 145.25V136.273H294.915V137.659H294.778C294.483 137.205 293.938 136.159 292.233 136.159C290.028 136.159 288.506 137.909 288.506 140.591C288.506 143.318 290.097 144.864 292.21 144.864C293.915 144.864 294.46 143.864 294.756 143.386H294.869V145.159C294.869 146.614 293.847 147.273 292.438 147.273C290.852 147.273 290.295 146.438 289.938 145.955L288.869 146.705C289.415 147.619 290.489 148.455 292.438 148.455ZM292.392 143.659C290.71 143.659 289.847 142.386 289.847 140.568C289.847 138.795 290.688 137.364 292.392 137.364C294.028 137.364 294.892 138.682 294.892 140.568C294.892 142.5 294.006 143.659 292.392 143.659ZM304.847 138.227C304.426 136.989 303.483 136.159 301.756 136.159C299.915 136.159 298.551 137.205 298.551 138.682C298.551 139.886 299.267 140.693 300.869 141.068L302.324 141.409C303.205 141.614 303.619 142.034 303.619 142.636C303.619 143.386 302.824 144 301.574 144C300.477 144 299.79 143.528 299.551 142.591L298.278 142.909C298.591 144.392 299.812 145.182 301.597 145.182C303.625 145.182 305.006 144.074 305.006 142.568C305.006 141.352 304.244 140.585 302.688 140.205L301.392 139.886C300.358 139.631 299.892 139.284 299.892 138.614C299.892 137.864 300.688 137.318 301.756 137.318C302.926 137.318 303.409 137.966 303.642 138.568L304.847 138.227Z" fill="black"/>
<rect x="620" y="105" width="52.5" height="52.5" fill="#D8DDE5"/>
<path d="M625.837 157.5H620V163.337H625.837V157.5Z" fill="#D8DDE5"/>
<path d="M631.673 163.337H625.837V169.174H631.673V163.337Z" fill="#D8DDE5"/>
<path d="M637.494 157.5H631.658V163.337H637.494V157.5Z" fill="#D8DDE5"/>
<path d="M625.837 169.158H620V174.995H625.837V169.158Z" fill="#D8DDE5"/>
<path d="M637.494 169.158H631.658V174.995H637.494V169.158Z" fill="#D8DDE5"/>
<path d="M643.332 163.337H637.495V169.174H643.332V163.337Z" fill="#D8DDE5"/>
<path d="M631.673 174.995H625.837V180.832H631.673V174.995Z" fill="#D8DDE5"/>
<path d="M625.837 180.832H620V186.669H625.837V180.832Z" fill="#D8DDE5"/>
<path d="M637.494 180.832H631.658V186.669H637.494V180.832Z" fill="#D8DDE5"/>
<path d="M643.332 174.995H637.495V180.832H643.332V174.995Z" fill="#D8DDE5"/>
<path d="M631.673 186.668H625.837V192.505H631.673V186.668Z" fill="#D8DDE5"/>
<path d="M625.837 192.489H620V198.326H625.837V192.489Z" fill="#D8DDE5"/>
<path d="M637.494 192.489H631.658V198.326H637.494V192.489Z" fill="#D8DDE5"/>
<path d="M643.332 186.668H637.495V192.505H643.332V186.668Z" fill="#D8DDE5"/>
<path d="M631.673 198.326H625.837V204.163H631.673V198.326Z" fill="#D8DDE5"/>
<path d="M625.837 204.164H620V210.001H625.837V204.164Z" fill="#D8DDE5"/>
<path d="M637.494 204.164H631.658V210.001H637.494V204.164Z" fill="#D8DDE5"/>
<path d="M643.332 198.326H637.495V204.163H643.332V198.326Z" fill="#D8DDE5"/>
<path d="M649.168 157.5H643.331V163.337H649.168V157.5Z" fill="#D8DDE5"/>
<path d="M655.006 163.337H649.169V169.174H655.006V163.337Z" fill="#D8DDE5"/>
<path d="M660.826 157.5H654.99V163.337H660.826V157.5Z" fill="#D8DDE5"/>
<path d="M649.168 169.158H643.331V174.995H649.168V169.158Z" fill="#D8DDE5"/>
<path d="M660.826 169.158H654.99V174.995H660.826V169.158Z" fill="#D8DDE5"/>
<path d="M666.663 163.337H660.826V169.174H666.663V163.337Z" fill="#D8DDE5"/>
<path d="M655.006 174.995H649.169V180.832H655.006V174.995Z" fill="#D8DDE5"/>
<path d="M649.168 180.832H643.331V186.669H649.168V180.832Z" fill="#D8DDE5"/>
<path d="M660.826 180.832H654.99V186.669H660.826V180.832Z" fill="#D8DDE5"/>
<path d="M666.663 174.995H660.826V180.832H666.663V174.995Z" fill="#D8DDE5"/>
<path d="M655.006 186.668H649.169V192.505H655.006V186.668Z" fill="#D8DDE5"/>
<path d="M649.168 192.489H643.331V198.326H649.168V192.489Z" fill="#D8DDE5"/>
<path d="M660.826 192.489H654.99V198.326H660.826V192.489Z" fill="#D8DDE5"/>
<path d="M666.663 186.668H660.826V192.505H666.663V186.668Z" fill="#D8DDE5"/>
<path d="M655.006 198.326H649.169V204.163H655.006V198.326Z" fill="#D8DDE5"/>
<path d="M649.168 204.164H643.331V210.001H649.168V204.164Z" fill="#D8DDE5"/>
<path d="M660.826 204.164H654.99V210.001H660.826V204.164Z" fill="#D8DDE5"/>
<path d="M672.5 157.5H666.663V163.337H672.5V157.5Z" fill="#D8DDE5"/>
<path d="M672.5 169.158H666.663V174.995H672.5V169.158Z" fill="#D8DDE5"/>
<path d="M672.5 180.832H666.663V186.669H672.5V180.832Z" fill="#D8DDE5"/>
<path d="M672.5 192.489H666.663V198.326H672.5V192.489Z" fill="#D8DDE5"/>
<path d="M672.5 204.164H666.663V210.001H672.5V204.164Z" fill="#D8DDE5"/>
<path d="M666.663 198.326H660.826V204.163H666.663V198.326Z" fill="#D8DDE5"/>
<rect x="631.667" y="52.5" width="5.83333" height="52.5" fill="#D8DDE5"/>
<rect x="643.333" y="52.5" width="5.83333" height="52.5" fill="#D8DDE5"/>
<rect x="655" y="52.5" width="5.83333" height="52.5" fill="#D8DDE5"/>
<rect x="666.667" y="52.5" width="5.83333" height="52.5" fill="#D8DDE5"/>
<rect x="620" y="52.5" width="5.83668" height="52.5" fill="#D8DDE5"/>
<rect x="555.833" y="157.5" width="5.83333" height="52.5" transform="rotate(-180 555.833 157.5)" fill="#D8DDE5"/>
<rect x="544.167" y="157.5" width="5.83333" height="52.5" transform="rotate(-180 544.167 157.5)" fill="#D8DDE5"/>
<rect x="532.5" y="157.5" width="5.83333" height="52.5" transform="rotate(-180 532.5 157.5)" fill="#D8DDE5"/>
<rect x="520.833" y="157.5" width="5.83333" height="52.5" transform="rotate(-180 520.833 157.5)" fill="#D8DDE5"/>
<rect x="567.5" y="157.5" width="5.83668" height="52.5" transform="rotate(-180 567.5 157.5)" fill="#D8DDE5"/>
<rect x="870.505" y="53.4844" width="5.83333" height="52.5" transform="rotate(-180 870.505 53.4844)" fill="#D8DDE5"/>
<rect x="858.838" y="53.4844" width="5.83333" height="52.5" transform="rotate(-180 858.838 53.4844)" fill="#D8DDE5"/>
<rect x="847.172" y="53.4844" width="5.83333" height="52.5" transform="rotate(-180 847.172 53.4844)" fill="#D8DDE5"/>
<rect x="835.505" y="53.4844" width="5.83333" height="52.5" transform="rotate(-180 835.505 53.4844)" fill="#D8DDE5"/>
<rect x="882.172" y="53.4844" width="5.83668" height="52.5" transform="rotate(-180 882.172 53.4844)" fill="#D8DDE5"/>
<path fill-rule="evenodd" clip-rule="evenodd" d="M567.5 163.333V157.5C596.495 157.5 620 181.005 620 210H614.167C614.167 184.227 593.273 163.333 567.5 163.333ZM567.5 175V169.166C590.052 169.166 608.333 187.448 608.333 210H602.5C602.5 190.67 586.83 175 567.5 175ZM567.5 180.834V186.667C580.387 186.667 590.833 197.114 590.833 210L596.667 210C596.667 193.892 583.608 180.834 567.5 180.834ZM567.5 198.333V192.5C577.165 192.5 585 200.335 585 210H579.167C579.167 203.557 573.943 198.333 567.5 198.333ZM567.5 210V204.166C570.722 204.166 573.333 206.778 573.333 210H567.5Z" fill="#D8DDE5"/>
<path fill-rule="evenodd" clip-rule="evenodd" d="M777 110.833V105C805.995 105 829.5 128.505 829.5 157.5L823.667 157.5C823.667 131.727 802.773 110.833 777 110.833ZM777 122.5V116.667C799.552 116.667 817.833 134.949 817.833 157.5H812C812 138.17 796.33 122.5 777 122.5ZM777 128.333V134.167C789.887 134.167 800.333 144.613 800.333 157.5L806.167 157.5C806.167 141.392 793.108 128.333 777 128.333ZM777 145.833V140C786.665 140 794.5 147.835 794.5 157.5H788.667C788.667 151.056 783.443 145.833 777 145.833ZM777 157.5V151.667C780.222 151.667 782.833 154.279 782.833 157.5H777Z" fill="#D8DDE5"/>
<path d="M729.112 52.5H725V48.3875L773.387 0H777.5V4.1125L729.112 52.5ZM765.133 0H756.879L725 31.8791V40.1333L765.133 0ZM748.625 0H740.371L725 15.3708V23.625L748.625 0ZM725 0V7.11666L732.116 0H725ZM777.5 20.6208V12.3667L737.366 52.5H745.621L777.5 20.6208ZM777.5 37.1291V28.875L753.875 52.5H762.129L777.5 37.1291ZM777.5 45.3833L770.383 52.5H777.5V45.3833Z" fill="#D8DDE5"/>
<path d="M672.5 105L725 105L725 52.5C696.005 52.5 672.5 76.0051 672.5 105Z" fill="#D8DDE5"/>
<path d="M777.5 157.5L777.5 105L725 105C725 133.995 748.505 157.5 777.5 157.5Z" fill="#D8DDE5"/>
<path d="M619.7 91.2002C630 91.9002 641.5 91.9002 651.6 94.0002C654.6 94.6002 657 98.3002 659.6 99.9002C663.8 102.4 667 106.2 670.2 109.8C687.3 128.9 708.6 143.5 728.9 159.1C737.2 165.5 745.7 172.6 748.7 182.6C751.7 192.6 746.2 205.7 735.8 206.7C738.4 212.7 736.9 220.2 732 224.6C727.1 229 719.5 229.8 713.8 226.6C718 232.5 712.3 241.3 705.2 243C698.1 244.6 690.9 241.5 684.3 238.5C684.7 245.3 677 250.3 670.2 249.7C663.4 249.1 657.6 244.8 652.2 240.6C643.3 233.7 634.5 226.9 625.6 220C608.9 207.1 591.6 193.4 582.3 174.4C580.4 170.6 578.9 166.6 576.2 163.3C573.8 160.5 570.7 158.4 567.7 156.4C557.6 149.9 547 144.1 536 139C541 128.8 546.1 118.6 551.5 108.6C555.3 101.5 568.8 78.2002 568.8 78.2002C577.4 80.2002 584.2 85.5002 591.6 87.7002C601.1 90.4002 610 90.5002 619.7 91.2002Z" fill="black"/>
<path d="M700.8 236.001C697.4 237.601 692.7 234.701 686.5 231.301C682.4 229.101 651.3 209.701 651.3 209.701C652.6 212.301 678.7 230.301 677.4 232.701C675.9 235.501 671.9 238.901 670.8 239.001C668.8 239.301 662.5 234.701 662.5 234.701C641.3 219.901 629.3 209.901 613.2 189.701C604.5 178.801 596.5 168.401 586.7 158.401C576.9 148.401 565.4 140.301 553.5 134.601C559 124.601 570.1 105.901 574.9 95.3005C575.8 93.3005 605.1 102.701 621.6 102.901C627.1 103.001 637.8 103.801 643 105.601C646.2 106.701 648.4 111.601 651 113.901C674.4 133.901 700.6 151.901 723.9 171.901C723.9 171.901 733.5 179.801 735.1 182.001C737.8 185.501 742.4 189.001 739.8 193.901C737.6 197.901 736.3 202.501 731.6 202.101C730.6 202.001 682.5 174.501 678.8 172.801C678.8 172.801 726.1 203.901 727.3 206.001C728.5 208.201 729.4 210.901 728.5 212.401C726.7 215.501 725.9 218.601 722.4 220.801C718.9 223.001 710.2 219.701 707.2 217.701C704.2 215.701 663.2 191.601 663.2 191.601C663.2 191.601 705.6 222.501 706.2 225.201C706.7 227.901 703.9 234.601 700.8 236.001Z" fill="#D3D8E0"/>
<path d="M667.7 186.101C657.9 194.601 657.5 177.901 664.6 172.701C667.5 170.601 673.2 169.901 674.5 174.701C675.5 178.101 670.1 184.001 667.7 186.101Z" fill="white"/>
<path d="M683.8 166.3C671.6 176.4 671 156.6 680 150.4C683.7 147.9 690.8 147.1 692.4 152.7C693.4 156.9 686.7 163.9 683.8 166.3Z" fill="white"/>
<path d="M658.9 193.5C659.6 195.6 658.3 197.7 657 199.4C655.6 201.4 654.1 203.5 651.9 204.8C649.7 206 646.7 206 645 204.2C644.4 203.5 644 202.5 644.3 201.5C644.4 201.1 644.7 200.7 644.9 200.4C647.1 197.7 656 184.6 658.9 193.5Z" fill="white"/>
<path d="M702.8 216.2C702.8 216.2 710.3 209.6 711.6 207.2L704.8 217.2L710.7 212.2C710.7 212.2 708.7 216.5 707.2 219C707.2 219 702.5 219.5 702.8 216.2Z" fill="black"/>
<path d="M684.3 232.601C684.3 232.601 690.7 226.501 692.4 224.101C692.4 224.101 687.2 233.101 686.4 234.101L684.3 232.601Z" fill="black"/>
<path d="M660.2 239.101C660.2 239.101 666.6 233.001 668.3 230.601C668.3 230.601 663.1 239.601 662.3 240.601L660.2 239.101Z" fill="black"/>
<path d="M718.6 196.001C718.6 196.001 726 189.101 727.9 186.301C727.9 186.301 721.9 196.501 721 197.701L718.6 196.001Z" fill="black"/>
<path d="M713.5 167.901C717.7 171.001 722.2 173.601 725.9 177.301C730.4 181.801 735.3 187.601 740.2 191.701C740.9 189.901 740 189.301 739.5 187.601C739 185.901 736.9 183.401 735.7 182.101C730.8 176.901 726.5 172.801 720.8 168.401C717.5 165.801 714.2 163.301 710.9 160.701C709.7 159.801 703 153.401 701.8 154.001C697.7 156.001 713.5 166.901 713.5 167.901Z" fill="white"/>
<path d="M571.1 103C571.1 103 620.4 118.2 629 117.3L642.5 99.0002C642.5 99.0002 633.9 106.4 602.4 100.5C602.4 100.5 581.9 95.2002 574.9 95.3002C574.9 95.3002 572.1 101.2 571.1 103Z" fill="white"/>
<path d="M588.4 164.5C592.8 160.9 607.3 160.5 609.6 168.2C610.8 172.3 611.1 178.3 609.6 182.4C615.1 180.9 621 182.7 625.5 186.2C630 189.7 629.6 197.3 626.3 201.9C635.2 198.8 645.8 207.5 644.5 216.8C648.8 213.7 655.5 215.1 658.8 219.4C662.1 223.6 662.1 229.8 659.6 234.6C657.1 239.3 652.4 242.6 647.3 244.3C645.8 244.8 639.4 243.1 637.5 241.4C635.1 239.2 633.4 236.6 635.2 231.4C631.4 236.3 623.7 237.7 618.4 234.5C613.1 231.2 610.9 223.7 613.6 218.1C608.5 220.8 602.8 223.8 598 221.1C596.8 220.4 592 215.8 591.2 214.6C588.8 211 591.1 205.3 592.1 201.1C590.9 203.7 585.6 205.5 582.7 204.2C569.1 198.1 570.7 190.5 576.8 179.6C580.5 172.9 584.4 167.7 588.4 164.5Z" fill="black"/>
<path d="M604.3 175.501C604.5 176.201 604.6 176.901 604.4 177.601C604.2 178.401 603.7 179.201 603.1 179.801C599.6 184.301 595.8 188.701 591.9 192.901C590.7 194.201 589.4 195.501 587.7 195.901C586.7 196.201 586.1 195.601 585.1 195.501C582.5 195.301 581 193.701 579.6 191.501C577.9 188.901 580 184.101 581.6 181.501C585.3 175.901 600 159.001 604.3 175.501Z" fill="#D3D8E0"/>
<path d="M613.2 189.701C615.4 189.301 617.8 189.801 619.5 191.301C621.2 192.701 622 194.801 621.5 196.901C620.7 200.601 616.3 204.601 613.5 207.201C611.5 209.001 609.1 212.201 606.4 212.401C603.7 212.601 601.2 211.801 599.5 209.701C599.1 209.201 598.1 207.701 597.8 207.201C596.9 205.201 600.3 199.701 601.7 198.001C604.6 194.701 608.7 190.501 613.2 189.701Z" fill="#D3D8E0"/>
<path d="M630.4 209.9C632.3 209.4 634.4 209.7 636 210.9C637.6 212.1 638.6 214.3 638.3 216.3C637.9 219.8 635.5 221.9 633.2 224.5C631.6 226.3 629.4 228.5 627.1 228.9C624.8 229.3 622.9 228.7 621.2 226.9C620.8 226.5 620.4 224.8 620.1 224.3C619.2 222.5 620.2 220.3 621.3 218.6C623.5 215.4 626.5 211 630.4 209.9Z" fill="#D3D8E0"/>
<path d="M648.4 223.7C650 223.4 651.7 223.8 652.9 224.9C654.1 226 654.8 227.8 654.4 229.5C653.8 232.3 653.2 232.1 651.2 234C649.8 235.4 648.5 237.3 646.6 237.5C644.7 237.7 643.1 236 641.9 234.4C641.6 234 641.3 233.7 641.2 233.3C640.6 231.7 641.5 230 642.6 228.7C644.7 226.1 645.2 224.3 648.4 223.7Z" fill="#D3D8E0"/>
<path d="M602.7 170.5C604.2 171.4 604.5 174.8 604.4 175.1C604.3 175.5 604 175.9 603.7 176.2C601.7 178.5 600.3 180.5 598.1 182.6C597.4 183.2 595.8 184 594.9 184.3C594.3 184.4 593.7 184.4 593.1 184.3C591.6 184.2 589.9 184 589 182.9C588 181.6 588.4 177.7 589.3 176.4C591.4 173.5 595.3 166.1 602.7 170.5Z" fill="white"/>
<path d="M637 209.4C638.1 210.1 638.9 212.4 638.8 212.7C638.7 213 638.7 214.1 638.4 214.4C636.9 216.2 635.9 217.8 634.1 219.4C633.6 219.9 631.7 220.1 630.9 220.3C630.5 220.4 630 220.4 629.6 220.3C628.5 220.2 627.1 220.1 626.5 219.2C625.8 218.2 626 215.1 626.7 214.1C628.4 211.8 631.3 206 637 209.4Z" fill="white"/>
<path d="M620.1 191.3C621.5 192.1 621.9 194.9 621.8 195.2C621.7 195.6 621.4 195.9 621.1 196.2C619.1 198.1 618.6 199.2 616.4 201C615.7 201.5 613.4 202.9 612.5 203.1C611.9 203.2 611.4 203.2 610.8 203.1C609.3 203 608.1 201.9 607.3 201C606.3 199.9 606.8 196.7 607.8 195.6C609.7 193.1 611.9 186.3 620.1 191.3Z" fill="white"/>
<path d="M588.4 180.1C588.4 180.1 592.5 184.7 596.7 181.7L604.5 174.2L604.7 175.1L598.1 182.5C598.1 182.5 594.6 185.5 590.7 183.8C587.8 182.7 588.4 180.1 588.4 180.1Z" fill="black"/>
<path d="M606.8 198.9C606.8 198.9 610.9 203.5 615.1 200.5L622.9 193L623.1 193.9L616.5 201.3C616.5 201.3 613 204.3 609.1 202.6C606.2 201.4 606.8 198.9 606.8 198.9Z" fill="black"/>
<path d="M626.2 216.6C626.2 216.6 630.3 221.2 634.5 218.2L642.3 210.7L642.5 211.6L635.9 219C635.9 219 632.4 222 628.5 220.3C625.6 219.2 626.2 216.6 626.2 216.6Z" fill="black"/>
<path d="M619.8 147.4C619.8 148.4 619.9 149.5 620.6 150.2C621.1 150.8 622 151 622.7 151.3C627 152.5 635.9 152.4 638.8 149C639.9 147.7 640.3 145.7 641.1 144.2C644.8 136.5 645.7 133.2 647.7 126.1C648.4 123.7 649.5 124.2 650.9 122.2C652.3 120.2 654.8 117.2 656.4 115.4C658.6 112.9 658.3 112 660.1 109.4C660.5 108.8 661.4 108.5 662.2 108.5C663.2 108.5 664.1 109.2 664.9 110C671.4 116.1 678.1 122.1 684.8 128C687.1 130.1 689.5 132.1 691.8 134.2C707.3 148 722.8 161.8 738.3 175.6C738.9 176.2 739.7 176.8 740.5 176.6C741.2 176.5 741.7 175.8 742.1 175.2C746.5 168.3 749.4 159.8 756.2 155.2C758.8 153.4 761.9 152.3 764.8 151.1C769.7 149 774.3 146.3 778.6 143.2C779.2 142.8 779.8 142.3 780.2 141.7C780.7 140.9 780.8 139.8 780.7 138.8C780.2 130.6 774.1 125.9 770.5 118.5C768.4 114.2 765.7 108.4 763 104.5C761.6 102.5 761 100.2 759.7 98.2004C758.1 95.7004 756.9 93.3004 755.4 90.8004C751.5 84.7004 747.5 78.3004 744.1 71.9004C734.9 75.8004 727.7 78.8004 718.5 82.8004C715.4 84.1004 712.3 85.4004 708.9 85.6004C705.7 85.7004 702.6 84.8004 699.6 83.9004C687 80.4004 674 78.0004 661.1 75.7004C658.9 75.3004 656.7 74.9004 654.6 75.4004C652.1 76.0004 650.1 77.6004 648.1 79.3004C639.7 86.3004 629.1 92.3004 620.7 99.3004C615.5 103.7 618.4 114.1 618.7 120.3C619 129.3 619.4 138.4 619.8 147.4Z" fill="black"/>
<path d="M637.4 135.9C638.4 130.7 639.5 125.6 641.9 120.7C644.4 115.6 645.4 114.7 647.8 109.2C649.6 110 652.1 107.7 653.6 108.3C659.9 110.9 663.2 115.2 670.5 118.9C677.4 122.4 684.3 126.1 690.2 131.1C694 134.2 697.4 137.9 701.3 140.8C706.3 144.6 712 147.3 716.9 151.2C723.1 156.1 726.1 160.4 732.1 165.8C733.7 159.5 738.1 156.9 743.8 153.6C746.5 152 752.7 147.7 755.5 146.2C758.4 144.7 760.1 143.4 762.7 141.4C763.8 140.6 769.8 139.5 769.8 138.1C769.8 135.2 765.7 131 763.2 127.2C754.8 114.7 747.7 101.6 739.9 88.5005C739.3 87.5005 738.6 86.5005 737.5 86.2005C736.6 85.9005 735.6 86.3005 734.7 86.6005C729.3 88.7005 720.7 91.5005 715.3 93.6005C713.2 94.4005 710.9 95.3005 708.6 95.3005C706.6 95.3005 704.6 94.6005 702.7 93.9005C689.1 89.2005 675 85.9005 660.7 84.0005C659 83.8005 657.3 83.6005 655.6 84.0005C654.2 84.3005 653 85.1005 651.8 85.8005C643.9 90.7005 636.3 96.0005 629 101.8C627.7 102.8 626.4 104 625.8 105.5C625.2 107 625.5 108.7 625.8 110.3C627.3 119.5 625.3 127.2 626 136.5C626.4 141.8 626.1 143.4 628.8 143C632.1 142.6 636.9 138.4 637.4 135.9Z" fill="#D3D8E0"/>
<path d="M672.6 122.801C672.6 122.801 689.4 126.201 704.1 123.901C704.1 123.901 692.8 129.201 676.9 126.401L672.6 122.801Z" fill="black"/>
<path d="M645.2 229.401C645.2 229.401 647.8 232.501 650.1 232.401C650.1 232.401 655.3 229.701 655 227.601C654.7 225.501 651.1 222.101 647.2 223.901C647.2 224.001 645.1 226.801 645.2 229.401Z" fill="white"/>
<path d="M645 229.101C645 229.101 649.1 233.201 652.3 230.901L658.1 225.301L658.3 226.001L653.3 231.601C653.3 231.601 650.1 233.901 646.7 232.001C644.7 230.701 645 229.101 645 229.101Z" fill="black"/>
<path d="M626 124.6C626 123.8 626.9 123.5 627.2 124.2C627.8 125.2 628.6 128.6 628.9 131.6C628.9 131.6 629.1 140.5 627.5 142.8C627.3 143.1 626.8 142.9 626.6 142.6C626.1 141.8 625.3 139.4 625.4 133.4L626 124.6Z" fill="white"/>
<path d="M743.6 94.3006C742.6 92.8006 740.5 90.0006 739.8 88.6006C738.7 86.6006 738.4 86.1006 736.1 86.1006C727.9 88.2006 719.7 92.5006 711.7 94.9006C712.8 95.4006 717.5 96.3006 718.4 97.0006C722.9 100.301 720.6 98.5006 725.1 101.801C731.2 100.201 739.1 99.7006 745 97.7006C745.3 97.6006 745.4 97.7006 745.5 97.5006L743.6 94.3006Z" fill="white"/>
<path d="M646.9 111.901C646.9 111.901 647.8 106.301 647.7 102.801C647.7 102.801 649.1 108.201 649 109.301C649 109.301 651.5 107.601 651.3 105.601V111.901H646.9Z" fill="black"/>
<path d="M636.3 102.4C637.7 102 639 101.2 640.3 100.4C644.4 97.8002 648.6 95.2002 652.7 92.6002C655 91.2002 657.3 89.7002 659.9 89.1002C663.6 88.2002 667.5 89.2002 671.2 90.0002C677.3 91.3002 683.5 92.2002 689.8 93.1002C693.4 93.6002 697.2 94.1002 700.8 93.3002C687.6 89.2002 674.4 85.1002 660.6 84.1002C658.9 84.0002 657.2 83.9002 655.6 84.3002C654.3 84.7002 653 85.4002 651.8 86.1002C647.6 88.6002 643.5 91.2002 639.4 93.9002C635.6 96.4002 630.9 98.9002 627.6 102.2C628.4 103.6 634.8 102.8 636.3 102.4Z" fill="white"/>
<path d="M626 124.6C626 124.6 627.6 123.7 628.2 127.1C628.2 127.1 629.1 132.2 629 135C629 135 630.5 127.8 628.1 122.7C628.1 122.7 625.2 119.8 623.1 122.7L626 124.6Z" fill="black"/>
</g>
<defs>
<clipPath id="clip0">
<rect width="882" height="300" fill="white"/>
</clipPath>
</defs>
</svg>
