<svg width="882" height="300" viewBox="0 0 882 300" fill="none" xmlns="http://www.w3.org/2000/svg">
<g clip-path="url(#clip0)">
<rect width="882" height="300" fill="white"/>
<rect width="882" height="210" fill="#E9ECF0"/>
<path d="M61.6406 68.3516H68.6016L73.6406 94.2734H73.8281L78.7266 68.3516H87.2109L92.1094 94.2734H92.2969L97.4297 68.3516H104.25L96.375 101H87.8906L83.0391 75.4062H82.8516L77.9531 101H69.5625L61.6406 68.3516ZM108.375 88.7188C108.375 86.7969 108.641 85.0547 109.172 83.4922C109.703 81.9141 110.445 80.5703 111.398 79.4609C112.367 78.3359 113.531 77.4688 114.891 76.8594C116.25 76.25 117.758 75.9453 119.414 75.9453C121.07 75.9453 122.57 76.2422 123.914 76.8359C125.273 77.4297 126.43 78.25 127.383 79.2969C128.352 80.3281 129.086 81.5625 129.586 83C130.102 84.4375 130.359 85.9922 130.359 87.6641V90.6875H114.633V92.3047C114.633 93.7734 115.109 94.9141 116.062 95.7266C117.031 96.5234 118.172 96.9219 119.484 96.9219C120.797 96.9219 121.867 96.5781 122.695 95.8906C123.523 95.2031 124.016 94.2344 124.172 92.9844H130.172C129.781 95.7031 128.633 97.8203 126.727 99.3359C124.836 100.836 122.398 101.586 119.414 101.586C117.68 101.586 116.125 101.273 114.75 100.648C113.391 100.023 112.234 99.1484 111.281 98.0234C110.344 96.8984 109.625 95.5469 109.125 93.9688C108.625 92.3906 108.375 90.6406 108.375 88.7188ZM114.633 86.0234H124.219V85.1562C124.219 83.8125 123.766 82.7188 122.859 81.875C121.953 81.0312 120.805 80.6094 119.414 80.6094C118.039 80.6094 116.898 81.0312 115.992 81.875C115.086 82.7188 114.633 83.8125 114.633 85.1562V86.0234ZM136.359 101V68.3516H142.359V79.8359C143.125 78.6172 144.094 77.6641 145.266 76.9766C146.453 76.2891 147.867 75.9453 149.508 75.9453C151.133 75.9453 152.555 76.2812 153.773 76.9531C154.992 77.625 156 78.5391 156.797 79.6953C157.594 80.8359 158.18 82.1953 158.555 83.7734C158.945 85.3359 159.141 87 159.141 88.7656C159.141 90.5625 158.945 92.2344 158.555 93.7812C158.18 95.3281 157.594 96.6797 156.797 97.8359C156 98.9922 154.992 99.9062 153.773 100.578C152.555 101.25 151.133 101.586 149.508 101.586C147.883 101.586 146.477 101.242 145.289 100.555C144.102 99.8672 143.125 98.9141 142.359 97.6953V101H136.359ZM142.359 90.5938C142.359 92.5156 142.797 94.0547 143.672 95.2109C144.547 96.3516 145.945 96.9219 147.867 96.9219C149.43 96.9219 150.656 96.5 151.547 95.6562C152.453 94.7969 152.906 93.6484 152.906 92.2109V85.2969C152.906 83.8594 152.461 82.7188 151.57 81.875C150.68 81.0312 149.445 80.6094 147.867 80.6094C145.945 80.6094 144.547 81.1875 143.672 82.3438C142.797 83.4844 142.359 85.0156 142.359 86.9375V90.5938ZM163.734 93.2188H169.734C169.984 95.6875 171.461 96.9219 174.164 96.9219C175.32 96.9219 176.305 96.7109 177.117 96.2891C177.93 95.8516 178.336 95.1641 178.336 94.2266C178.336 93.3359 178 92.6953 177.328 92.3047C176.656 91.8984 175.773 91.5781 174.68 91.3438L170.461 90.4297C166.367 89.5391 164.32 87.2031 164.32 83.4219C164.32 82.3594 164.531 81.375 164.953 80.4688C165.391 79.5625 166.016 78.7734 166.828 78.1016C167.641 77.4297 168.633 76.9062 169.805 76.5312C170.977 76.1406 172.312 75.9453 173.812 75.9453C176.594 75.9453 178.875 76.6172 180.656 77.9609C182.438 79.3047 183.391 81.3359 183.516 84.0547H177.516C177.453 82.8984 177.086 82.0391 176.414 81.4766C175.742 80.8984 174.875 80.6094 173.812 80.6094C172.781 80.6094 171.938 80.8359 171.281 81.2891C170.641 81.7266 170.32 82.3438 170.32 83.1406C170.32 83.9375 170.562 84.5312 171.047 84.9219C171.547 85.2969 172.195 85.5703 172.992 85.7422L177.844 86.7969C178.734 86.9844 179.578 87.2656 180.375 87.6406C181.188 88 181.883 88.4688 182.461 89.0469C183.039 89.625 183.492 90.3125 183.82 91.1094C184.164 91.9062 184.336 92.8516 184.336 93.9453C184.336 95.0078 184.109 96 183.656 96.9219C183.203 97.8438 182.547 98.6484 181.688 99.3359C180.828 100.023 179.766 100.57 178.5 100.977C177.234 101.383 175.789 101.586 174.164 101.586C170.898 101.586 168.375 100.867 166.594 99.4297C164.812 97.9766 163.859 95.9062 163.734 93.2188ZM189.984 73.6953V68.3516H196.172V73.6953H189.984ZM190.078 101V76.5312H196.078V101H190.078ZM201.164 81.1719V76.5312H206.016V68.3516H212.016V76.5312H218.109V81.1719H212.016V96.3359H218.109V101H206.016V81.1719H201.164ZM222.562 88.7188C222.562 86.7969 222.828 85.0547 223.359 83.4922C223.891 81.9141 224.633 80.5703 225.586 79.4609C226.555 78.3359 227.719 77.4688 229.078 76.8594C230.438 76.25 231.945 75.9453 233.602 75.9453C235.258 75.9453 236.758 76.2422 238.102 76.8359C239.461 77.4297 240.617 78.25 241.57 79.2969C242.539 80.3281 243.273 81.5625 243.773 83C244.289 84.4375 244.547 85.9922 244.547 87.6641V90.6875H228.82V92.3047C228.82 93.7734 229.297 94.9141 230.25 95.7266C231.219 96.5234 232.359 96.9219 233.672 96.9219C234.984 96.9219 236.055 96.5781 236.883 95.8906C237.711 95.2031 238.203 94.2344 238.359 92.9844H244.359C243.969 95.7031 242.82 97.8203 240.914 99.3359C239.023 100.836 236.586 101.586 233.602 101.586C231.867 101.586 230.312 101.273 228.938 100.648C227.578 100.023 226.422 99.1484 225.469 98.0234C224.531 96.8984 223.812 95.5469 223.312 93.9688C222.812 92.3906 222.562 90.6406 222.562 88.7188ZM228.82 86.0234H238.406V85.1562C238.406 83.8125 237.953 82.7188 237.047 81.875C236.141 81.0312 234.992 80.6094 233.602 80.6094C232.227 80.6094 231.086 81.0312 230.18 81.875C229.273 82.7188 228.82 83.8125 228.82 85.1562V86.0234Z" fill="black"/>
<path d="M61.0114 145H68.875V142.972H63.4716V140.193H68.4489V138.165H63.4716V135.392H68.8523V133.364H61.0114V145ZM72.7855 136.273H70.2855L72.7855 140.636L70.1946 145H72.6946L74.3878 141.983L76.1094 145H78.581L75.9844 140.636L78.5128 136.273H76.0298L74.3878 139.324L72.7855 136.273ZM79.9503 148.273H82.3707V143.602H82.4446C82.7798 144.33 83.5128 145.142 84.9219 145.142C86.9105 145.142 88.4616 143.568 88.4616 140.648C88.4616 137.648 86.8423 136.159 84.9276 136.159C83.4673 136.159 82.7685 137.028 82.4446 137.739H82.3366V136.273H79.9503V148.273ZM82.3196 140.636C82.3196 139.08 82.9787 138.085 84.1548 138.085C85.3537 138.085 85.9901 139.125 85.9901 140.636C85.9901 142.159 85.3423 143.216 84.1548 143.216C82.9901 143.216 82.3196 142.193 82.3196 140.636ZM92.4957 133.364H90.0753V145H92.4957V133.364ZM98.3778 145.17C101.026 145.17 102.673 143.358 102.673 140.67C102.673 137.966 101.026 136.159 98.3778 136.159C95.7301 136.159 94.0824 137.966 94.0824 140.67C94.0824 143.358 95.7301 145.17 98.3778 145.17ZM98.3892 143.295C97.1676 143.295 96.5426 142.176 96.5426 140.653C96.5426 139.131 97.1676 138.006 98.3892 138.006C99.5881 138.006 100.213 139.131 100.213 140.653C100.213 142.176 99.5881 143.295 98.3892 143.295ZM104.247 145H106.668V140.062C106.668 138.989 107.452 138.25 108.52 138.25C108.855 138.25 109.315 138.307 109.543 138.381V136.233C109.327 136.182 109.026 136.148 108.781 136.148C107.804 136.148 107.003 136.716 106.685 137.795H106.594V136.273H104.247V145ZM114.365 145.17C116.524 145.17 117.979 144.119 118.32 142.5L116.081 142.352C115.837 143.017 115.212 143.364 114.405 143.364C113.195 143.364 112.428 142.562 112.428 141.261V141.256H118.371V140.591C118.371 137.625 116.575 136.159 114.268 136.159C111.7 136.159 110.036 137.983 110.036 140.676C110.036 143.443 111.678 145.17 114.365 145.17ZM112.428 139.756C112.479 138.761 113.234 137.966 114.308 137.966C115.359 137.966 116.087 138.716 116.092 139.756H112.428ZM128.358 133.364V141.477C128.352 142.597 127.852 143.188 126.943 143.188C126.085 143.188 125.528 142.653 125.511 141.727H123.062C123.051 144.051 124.71 145.159 126.818 145.159C129.176 145.159 130.784 143.733 130.79 141.477V133.364H128.358ZM136.722 145.17C139.369 145.17 141.017 143.358 141.017 140.67C141.017 137.966 139.369 136.159 136.722 136.159C134.074 136.159 132.426 137.966 132.426 140.67C132.426 143.358 134.074 145.17 136.722 145.17ZM136.733 143.295C135.511 143.295 134.886 142.176 134.886 140.653C134.886 139.131 135.511 138.006 136.733 138.006C137.932 138.006 138.557 139.131 138.557 140.653C138.557 142.176 137.932 143.295 136.733 143.295ZM143.788 148.256C145.589 148.256 146.55 147.341 147.038 145.943L150.43 136.284L147.868 136.273L146.044 142.682H145.953L144.146 136.273H141.601L144.732 145.25L144.589 145.619C144.249 146.409 143.663 146.466 142.811 146.199L142.266 148.011C142.612 148.153 143.175 148.256 143.788 148.256ZM158.93 138.761C158.714 137.153 157.419 136.159 155.214 136.159C152.982 136.159 151.51 137.193 151.516 138.875C151.51 140.182 152.334 141.028 154.038 141.369L155.55 141.67C156.311 141.824 156.658 142.102 156.669 142.54C156.658 143.057 156.095 143.426 155.249 143.426C154.385 143.426 153.811 143.057 153.663 142.347L151.283 142.472C151.51 144.142 152.93 145.17 155.243 145.17C157.504 145.17 159.124 144.017 159.129 142.295C159.124 141.034 158.3 140.278 156.607 139.932L155.027 139.614C154.214 139.438 153.913 139.159 153.919 138.739C153.913 138.216 154.504 137.875 155.254 137.875C156.095 137.875 156.595 138.335 156.714 138.898L158.93 138.761ZM165.295 136.273H163.653V134.182H161.233V136.273H160.04V138.091H161.233V142.636C161.222 144.347 162.386 145.193 164.142 145.119C164.767 145.097 165.21 144.972 165.455 144.892L165.074 143.091C164.955 143.114 164.699 143.17 164.472 143.17C163.989 143.17 163.653 142.989 163.653 142.318V138.091H165.295V136.273ZM166.872 145H169.293V140.062C169.293 138.989 170.077 138.25 171.145 138.25C171.48 138.25 171.94 138.307 172.168 138.381V136.233C171.952 136.182 171.651 136.148 171.406 136.148C170.429 136.148 169.628 136.716 169.31 137.795H169.219V136.273H166.872V145ZM176.99 145.17C179.149 145.17 180.604 144.119 180.945 142.5L178.706 142.352C178.462 143.017 177.837 143.364 177.03 143.364C175.82 143.364 175.053 142.562 175.053 141.261V141.256H180.996V140.591C180.996 137.625 179.2 136.159 176.893 136.159C174.325 136.159 172.661 137.983 172.661 140.676C172.661 143.443 174.303 145.17 176.99 145.17ZM175.053 139.756C175.104 138.761 175.859 137.966 176.933 137.966C177.984 137.966 178.712 138.716 178.717 139.756H175.053ZM185.064 145.165C186.354 145.165 187.189 144.602 187.615 143.79H187.683V145H189.979V139.114C189.979 137.034 188.217 136.159 186.274 136.159C184.183 136.159 182.808 137.159 182.473 138.75L184.712 138.932C184.876 138.352 185.393 137.926 186.263 137.926C187.087 137.926 187.558 138.341 187.558 139.057V139.091C187.558 139.653 186.962 139.727 185.445 139.875C183.717 140.034 182.166 140.614 182.166 142.562C182.166 144.29 183.399 145.165 185.064 145.165ZM185.757 143.494C185.013 143.494 184.479 143.148 184.479 142.483C184.479 141.801 185.041 141.466 185.893 141.347C186.422 141.273 187.286 141.148 187.575 140.955V141.881C187.575 142.795 186.82 143.494 185.757 143.494ZM191.857 145H194.277V139.761C194.277 138.795 194.891 138.153 195.697 138.153C196.493 138.153 197.027 138.699 197.027 139.557V145H199.374V139.67C199.374 138.767 199.891 138.153 200.771 138.153C201.544 138.153 202.124 138.636 202.124 139.608V145H204.538V139.131C204.538 137.239 203.413 136.159 201.788 136.159C200.51 136.159 199.516 136.812 199.158 137.812H199.067C198.788 136.801 197.896 136.159 196.697 136.159C195.521 136.159 194.629 136.784 194.266 137.812H194.163V136.273H191.857V145ZM211.875 145H214.432L215.932 139.511H216.04L217.54 145H220.102L222.472 136.273H220.028L218.699 142.102H218.625L217.193 136.273H214.79L213.381 142.136H213.301L211.949 136.273H209.5L211.875 145ZM227.521 145.17C229.68 145.17 231.135 144.119 231.476 142.5L229.237 142.352C228.993 143.017 228.368 143.364 227.561 143.364C226.351 143.364 225.584 142.562 225.584 141.261V141.256H231.527V140.591C231.527 137.625 229.732 136.159 227.425 136.159C224.857 136.159 223.192 137.983 223.192 140.676C223.192 143.443 224.834 145.17 227.521 145.17ZM225.584 139.756C225.635 138.761 226.391 137.966 227.464 137.966C228.516 137.966 229.243 138.716 229.249 139.756H225.584ZM233.152 145H235.538V143.602H235.646C235.982 144.33 236.714 145.142 238.124 145.142C240.112 145.142 241.663 143.568 241.663 140.648C241.663 137.648 240.044 136.159 238.129 136.159C236.669 136.159 235.97 137.028 235.646 137.739H235.572V133.364H233.152V145ZM235.521 140.636C235.521 139.08 236.18 138.085 237.357 138.085C238.555 138.085 239.192 139.125 239.192 140.636C239.192 142.159 238.544 143.216 237.357 143.216C236.192 143.216 235.521 142.193 235.521 140.636ZM250.54 138.761C250.324 137.153 249.028 136.159 246.824 136.159C244.591 136.159 243.119 137.193 243.125 138.875C243.119 140.182 243.943 141.028 245.648 141.369L247.159 141.67C247.92 141.824 248.267 142.102 248.278 142.54C248.267 143.057 247.705 143.426 246.858 143.426C245.994 143.426 245.42 143.057 245.273 142.347L242.892 142.472C243.119 144.142 244.54 145.17 246.852 145.17C249.114 145.17 250.733 144.017 250.739 142.295C250.733 141.034 249.909 140.278 248.216 139.932L246.636 139.614C245.824 139.438 245.523 139.159 245.528 138.739C245.523 138.216 246.114 137.875 246.864 137.875C247.705 137.875 248.205 138.335 248.324 138.898L250.54 138.761ZM252.263 145H254.683V136.273H252.263V145ZM253.479 135.148C254.2 135.148 254.791 134.597 254.791 133.92C254.791 133.25 254.2 132.699 253.479 132.699C252.763 132.699 252.172 133.25 252.172 133.92C252.172 134.597 252.763 135.148 253.479 135.148ZM261.264 136.273H259.622V134.182H257.202V136.273H256.009V138.091H257.202V142.636C257.19 144.347 258.355 145.193 260.111 145.119C260.736 145.097 261.179 144.972 261.423 144.892L261.043 143.091C260.923 143.114 260.668 143.17 260.44 143.17C259.957 143.17 259.622 142.989 259.622 142.318V138.091H261.264V136.273ZM266.724 145.17C268.884 145.17 270.338 144.119 270.679 142.5L268.44 142.352C268.196 143.017 267.571 143.364 266.764 143.364C265.554 143.364 264.787 142.562 264.787 141.261V141.256H270.73V140.591C270.73 137.625 268.935 136.159 266.628 136.159C264.06 136.159 262.395 137.983 262.395 140.676C262.395 143.443 264.037 145.17 266.724 145.17ZM264.787 139.756C264.838 138.761 265.594 137.966 266.668 137.966C267.719 137.966 268.446 138.716 268.452 139.756H264.787ZM279.956 145.17C282.28 145.17 283.74 143.807 283.854 141.801H281.57C281.428 142.733 280.814 143.256 279.984 143.256C278.854 143.256 278.121 142.307 278.121 140.636C278.121 138.989 278.859 138.045 279.984 138.045C280.871 138.045 281.439 138.631 281.57 139.5H283.854C283.751 137.483 282.223 136.159 279.945 136.159C277.297 136.159 275.661 137.994 275.661 140.67C275.661 143.324 277.268 145.17 279.956 145.17ZM289.347 145.17C291.994 145.17 293.642 143.358 293.642 140.67C293.642 137.966 291.994 136.159 289.347 136.159C286.699 136.159 285.051 137.966 285.051 140.67C285.051 143.358 286.699 145.17 289.347 145.17ZM289.358 143.295C288.136 143.295 287.511 142.176 287.511 140.653C287.511 139.131 288.136 138.006 289.358 138.006C290.557 138.006 291.182 139.131 291.182 140.653C291.182 142.176 290.557 143.295 289.358 143.295ZM297.636 139.955C297.642 138.83 298.312 138.17 299.29 138.17C300.261 138.17 300.847 138.807 300.841 139.875V145H303.261V139.443C303.261 137.409 302.068 136.159 300.25 136.159C298.955 136.159 298.017 136.795 297.625 137.812H297.523V136.273H295.216V145H297.636V139.955ZM309.811 136.273H308.169V134.182H305.749V136.273H304.555V138.091H305.749V142.636C305.737 144.347 306.902 145.193 308.658 145.119C309.283 145.097 309.726 144.972 309.97 144.892L309.589 143.091C309.47 143.114 309.214 143.17 308.987 143.17C308.504 143.17 308.169 142.989 308.169 142.318V138.091H309.811V136.273ZM315.271 145.17C317.43 145.17 318.885 144.119 319.226 142.5L316.987 142.352C316.743 143.017 316.118 143.364 315.311 143.364C314.101 143.364 313.334 142.562 313.334 141.261V141.256H319.277V140.591C319.277 137.625 317.482 136.159 315.175 136.159C312.607 136.159 310.942 137.983 310.942 140.676C310.942 143.443 312.584 145.17 315.271 145.17ZM313.334 139.756C313.385 138.761 314.141 137.966 315.214 137.966C316.266 137.966 316.993 138.716 316.999 139.756H313.334ZM323.277 139.955C323.283 138.83 323.953 138.17 324.93 138.17C325.902 138.17 326.487 138.807 326.482 139.875V145H328.902V139.443C328.902 137.409 327.709 136.159 325.891 136.159C324.595 136.159 323.658 136.795 323.266 137.812H323.163V136.273H320.857V145H323.277V139.955ZM335.452 136.273H333.81V134.182H331.389V136.273H330.196V138.091H331.389V142.636C331.378 144.347 332.543 145.193 334.298 145.119C334.923 145.097 335.366 144.972 335.611 144.892L335.23 143.091C335.111 143.114 334.855 143.17 334.628 143.17C334.145 143.17 333.81 142.989 333.81 142.318V138.091H335.452V136.273Z" fill="black"/>
<rect x="620" y="105" width="52.5" height="52.5" fill="#D3D8E0"/>
<path d="M625.837 157.5H620V163.337H625.837V157.5Z" fill="#D3D8E0"/>
<path d="M631.674 163.337H625.837V169.174H631.674V163.337Z" fill="#D3D8E0"/>
<path d="M637.494 157.5H631.658V163.337H637.494V157.5Z" fill="#D3D8E0"/>
<path d="M625.837 169.158H620V174.995H625.837V169.158Z" fill="#D3D8E0"/>
<path d="M637.494 169.158H631.658V174.995H637.494V169.158Z" fill="#D3D8E0"/>
<path d="M643.332 163.337H637.496V169.174H643.332V163.337Z" fill="#D3D8E0"/>
<path d="M631.674 174.995H625.837V180.832H631.674V174.995Z" fill="#D3D8E0"/>
<path d="M625.837 180.832H620V186.669H625.837V180.832Z" fill="#D3D8E0"/>
<path d="M637.494 180.832H631.658V186.669H637.494V180.832Z" fill="#D3D8E0"/>
<path d="M643.332 174.995H637.496V180.832H643.332V174.995Z" fill="#D3D8E0"/>
<path d="M631.674 186.668H625.837V192.505H631.674V186.668Z" fill="#D3D8E0"/>
<path d="M625.837 192.489H620V198.326H625.837V192.489Z" fill="#D3D8E0"/>
<path d="M637.494 192.489H631.658V198.326H637.494V192.489Z" fill="#D3D8E0"/>
<path d="M643.332 186.668H637.496V192.505H643.332V186.668Z" fill="#D3D8E0"/>
<path d="M631.674 198.326H625.837V204.163H631.674V198.326Z" fill="#D3D8E0"/>
<path d="M625.837 204.164H620V210.001H625.837V204.164Z" fill="#D3D8E0"/>
<path d="M637.494 204.164H631.658V210.001H637.494V204.164Z" fill="#D3D8E0"/>
<path d="M643.332 198.326H637.496V204.163H643.332V198.326Z" fill="#D3D8E0"/>
<path d="M649.168 157.5H643.331V163.337H649.168V157.5Z" fill="#D3D8E0"/>
<path d="M655.006 163.337H649.169V169.174H655.006V163.337Z" fill="#D3D8E0"/>
<path d="M660.826 157.5H654.99V163.337H660.826V157.5Z" fill="#D3D8E0"/>
<path d="M649.168 169.158H643.331V174.995H649.168V169.158Z" fill="#D3D8E0"/>
<path d="M660.826 169.158H654.99V174.995H660.826V169.158Z" fill="#D3D8E0"/>
<path d="M666.663 163.337H660.827V169.174H666.663V163.337Z" fill="#D3D8E0"/>
<path d="M655.006 174.995H649.169V180.832H655.006V174.995Z" fill="#D3D8E0"/>
<path d="M649.168 180.832H643.331V186.669H649.168V180.832Z" fill="#D3D8E0"/>
<path d="M660.826 180.832H654.99V186.669H660.826V180.832Z" fill="#D3D8E0"/>
<path d="M666.663 174.995H660.827V180.832H666.663V174.995Z" fill="#D3D8E0"/>
<path d="M655.006 186.668H649.169V192.505H655.006V186.668Z" fill="#D3D8E0"/>
<path d="M649.168 192.489H643.331V198.326H649.168V192.489Z" fill="#D3D8E0"/>
<path d="M660.826 192.489H654.99V198.326H660.826V192.489Z" fill="#D3D8E0"/>
<path d="M666.663 186.668H660.827V192.505H666.663V186.668Z" fill="#D3D8E0"/>
<path d="M655.006 198.326H649.169V204.163H655.006V198.326Z" fill="#D3D8E0"/>
<path d="M649.168 204.164H643.331V210.001H649.168V204.164Z" fill="#D3D8E0"/>
<path d="M660.826 204.164H654.99V210.001H660.826V204.164Z" fill="#D3D8E0"/>
<path d="M672.5 157.5H666.663V163.337H672.5V157.5Z" fill="#D3D8E0"/>
<path d="M672.5 169.158H666.663V174.995H672.5V169.158Z" fill="#D3D8E0"/>
<path d="M672.5 180.832H666.663V186.669H672.5V180.832Z" fill="#D3D8E0"/>
<path d="M672.5 192.489H666.663V198.326H672.5V192.489Z" fill="#D3D8E0"/>
<path d="M672.5 204.164H666.663V210.001H672.5V204.164Z" fill="#D3D8E0"/>
<path d="M666.663 198.326H660.827V204.163H666.663V198.326Z" fill="#D3D8E0"/>
<rect x="631.667" y="52.5" width="5.83333" height="52.5" fill="#D3D8E0"/>
<rect x="643.333" y="52.5" width="5.83333" height="52.5" fill="#D3D8E0"/>
<rect x="655" y="52.5" width="5.83333" height="52.5" fill="#D3D8E0"/>
<rect x="666.667" y="52.5" width="5.83333" height="52.5" fill="#D3D8E0"/>
<rect x="620" y="52.5" width="5.83668" height="52.5" fill="#D3D8E0"/>
<rect x="555.833" y="157.5" width="5.83333" height="52.5" transform="rotate(-180 555.833 157.5)" fill="#D3D8E0"/>
<rect x="544.167" y="157.5" width="5.83333" height="52.5" transform="rotate(-180 544.167 157.5)" fill="#D3D8E0"/>
<rect x="532.5" y="157.5" width="5.83333" height="52.5" transform="rotate(-180 532.5 157.5)" fill="#D3D8E0"/>
<rect x="520.833" y="157.5" width="5.83333" height="52.5" transform="rotate(-180 520.833 157.5)" fill="#D3D8E0"/>
<rect x="567.5" y="157.5" width="5.83668" height="52.5" transform="rotate(-180 567.5 157.5)" fill="#D3D8E0"/>
<rect x="870.505" y="53.4844" width="5.83333" height="52.5" transform="rotate(-180 870.505 53.4844)" fill="#D3D8E0"/>
<rect x="858.838" y="53.4844" width="5.83333" height="52.5" transform="rotate(-180 858.838 53.4844)" fill="#D3D8E0"/>
<rect x="847.172" y="53.4844" width="5.83333" height="52.5" transform="rotate(-180 847.172 53.4844)" fill="#D3D8E0"/>
<rect x="835.505" y="53.4844" width="5.83333" height="52.5" transform="rotate(-180 835.505 53.4844)" fill="#D3D8E0"/>
<rect x="882.172" y="53.4844" width="5.83668" height="52.5" transform="rotate(-180 882.172 53.4844)" fill="#D3D8E0"/>
<path fill-rule="evenodd" clip-rule="evenodd" d="M567.5 163.333V157.5C596.495 157.5 620 181.005 620 210H614.167C614.167 184.227 593.273 163.333 567.5 163.333ZM567.5 175V169.166C590.052 169.166 608.333 187.448 608.333 210H602.5C602.5 190.67 586.83 175 567.5 175ZM567.5 180.834V186.667C580.387 186.667 590.833 197.114 590.833 210L596.667 210C596.667 193.892 583.608 180.834 567.5 180.834ZM567.5 198.333V192.5C577.165 192.5 585 200.335 585 210H579.167C579.167 203.557 573.943 198.333 567.5 198.333ZM567.5 210V204.166C570.722 204.166 573.333 206.778 573.333 210H567.5Z" fill="#D3D8E0"/>
<path fill-rule="evenodd" clip-rule="evenodd" d="M777 110.833V105C805.995 105 829.5 128.505 829.5 157.5L823.667 157.5C823.667 131.727 802.773 110.833 777 110.833ZM777 122.5V116.667C799.552 116.667 817.833 134.949 817.833 157.5H812C812 138.17 796.33 122.5 777 122.5ZM777 128.333V134.167C789.887 134.167 800.333 144.613 800.333 157.5L806.167 157.5C806.167 141.392 793.108 128.333 777 128.333ZM777 145.833V140C786.665 140 794.5 147.835 794.5 157.5H788.667C788.667 151.056 783.443 145.833 777 145.833ZM777 157.5V151.667C780.222 151.667 782.833 154.279 782.833 157.5H777Z" fill="#D3D8E0"/>
<path d="M729.112 52.5H725V48.3875L773.387 0H777.5V4.1125L729.112 52.5ZM765.133 0H756.879L725 31.8791V40.1333L765.133 0ZM748.625 0H740.371L725 15.3708V23.625L748.625 0ZM725 0V7.11666L732.117 0H725ZM777.5 20.6208V12.3667L737.367 52.5H745.621L777.5 20.6208ZM777.5 37.1291V28.875L753.875 52.5H762.129L777.5 37.1291ZM777.5 45.3833L770.383 52.5H777.5V45.3833Z" fill="#D3D8E0"/>
<path d="M672.5 105L725 105L725 52.5C696.005 52.5 672.5 76.0051 672.5 105Z" fill="#D3D8E0"/>
<path d="M777.5 157.5L777.5 105L725 105C725 133.995 748.505 157.5 777.5 157.5Z" fill="#D3D8E0"/>
<path d="M633.062 281.289L647.736 283.26L659.484 278.929V192.262L643.374 188.24L633.062 192.62V281.289Z" fill="black"/>
<path d="M636.641 277.795V227.692L642.5 273.942L646.259 225.91L646.46 222.087C646.741 219.067 647.341 217.309 648.259 216.811C649.176 216.313 650.818 216.313 653.183 216.811V275.824L646.148 278.87L636.641 277.795Z" fill="#C4C3C6"/>
<path fill-rule="evenodd" clip-rule="evenodd" d="M642.912 192.202C641.043 207.778 640.054 228.229 639.947 253.554C639.84 278.88 638.738 287.036 636.641 278.023L645.153 278.899L642.912 192.202Z" fill="white"/>
<path d="M633.062 281.289L647.736 283.26L659.484 278.929V192.262L643.374 188.24L633.062 192.62V281.289Z" fill="black"/>
<path d="M636.641 277.795V227.692L642.5 273.942L646.259 225.91L646.46 222.087C646.741 219.067 647.341 217.309 648.259 216.811C649.176 216.313 650.818 216.313 653.183 216.811V275.824L646.148 278.87L636.641 277.795Z" fill="#D3D8E0"/>
<path fill-rule="evenodd" clip-rule="evenodd" d="M642.912 192.202L636.641 277.994L645.153 278.87L642.912 192.202Z" fill="white"/>
<path d="M654.881 64.481L640.208 62.5L628.459 66.8403V176.265L644.57 180.276L654.881 175.906V64.481Z" fill="black"/>
<path d="M651.304 67.975V140.835L645.414 71.8176L641.655 142.637L641.454 146.459C641.173 149.479 640.573 151.238 639.655 151.736C638.738 152.233 637.096 152.233 634.731 151.736V69.966L641.766 66.9795L651.304 67.975Z" fill="#C4C3C6"/>
<path fill-rule="evenodd" clip-rule="evenodd" d="M645.032 176.325C646.902 160.735 647.907 140.285 648.047 114.973C648.188 89.6606 649.29 73.9286 651.354 67.7764L642.841 66.9004L645.032 176.325Z" fill="white"/>
<path d="M654.881 64.481L640.208 62.5L628.459 66.8403V176.265L644.57 180.276L654.881 175.906V64.481Z" fill="black"/>
<path d="M651.304 67.975V140.835L645.414 71.8176L641.655 142.637L641.454 146.459C641.173 149.479 640.573 151.238 639.655 151.736C638.738 152.233 637.096 152.233 634.731 151.736V69.966L641.766 66.9795L651.304 67.975Z" fill="#D3D8E0"/>
<path fill-rule="evenodd" clip-rule="evenodd" d="M645.032 176.325C646.902 160.735 647.907 140.285 648.047 114.973C648.188 89.6606 649.29 73.9286 651.354 67.7764L642.841 66.9004L645.032 176.325Z" fill="white"/>
<path fill-rule="evenodd" clip-rule="evenodd" d="M554.059 101.822V227.144L736.72 183.343V83.9033L554.059 101.822Z" fill="#D8D8D8" stroke="#979797"/>
<path d="M542.3 92.7036L730.619 74.4463L742.77 79.7921L741.835 189.067L554.762 233.765L542.3 228.439V92.7036Z" fill="black"/>
<path d="M546.893 96.7545V185.473L553.998 101.443L555.335 229.214L737.865 185.652L738.75 82.7081L730.318 79.0049L546.893 96.7545Z" fill="#D3D8E0"/>
<path fill-rule="evenodd" clip-rule="evenodd" d="M554.36 100.12L737.604 82.4199V184.478L554.36 228.648V100.12Z" fill="#D3D8E0"/>
<path fill-rule="evenodd" clip-rule="evenodd" d="M561.827 109.617L729.564 91.5186V178.286L561.827 216.692V109.617Z" fill="black"/>
<path fill-rule="evenodd" clip-rule="evenodd" d="M600.802 126.4C627.877 126.4 623.374 110.88 655.856 107.088C677.518 104.566 702.087 100.325 729.564 94.3652V177.25L565.274 214.989L566.169 165.025C566.169 148.878 573.717 126.4 600.802 126.4Z" fill="#D3D8E0"/>
<path fill-rule="evenodd" clip-rule="evenodd" d="M659.484 110.861L716.921 104.609L719.222 107.456V170.61L666.369 182.397L664.077 179.709L659.484 110.861Z" fill="black"/>
<path fill-rule="evenodd" clip-rule="evenodd" d="M664.077 114.524L716.921 104.609V167.763L664.077 179.55V114.524Z" fill="#D3D8E0"/>
<path d="M681.695 123.385L673.836 125.047C673.836 125.873 673.836 126.71 673.916 127.546L678.137 126.799L678.208 137.819C678.182 138.282 678.008 138.724 677.712 139.082C677.416 139.44 677.012 139.695 676.56 139.81L674.248 140.497L675.253 143.305L678.791 142.359C679.912 142.071 680.874 141.356 681.464 140.368C681.77 139.817 681.922 139.195 681.906 138.566L681.695 123.385Z" fill="black"/>
<path fill-rule="evenodd" clip-rule="evenodd" d="M690.197 130.87C697.855 128.215 702.984 126.666 705.584 126.221C709.483 125.584 709.704 125.763 705.112 127.804C701.492 129.43 697.674 130.585 693.755 131.238C691.082 131.796 689.896 131.686 690.197 130.87Z" fill="black"/>
<path fill-rule="evenodd" clip-rule="evenodd" d="M711.916 132.781C702.315 135.721 695.899 137.45 692.67 137.968C687.816 138.764 687.534 138.605 693.313 136.425C697.897 134.679 702.649 133.398 707.494 132.602C710.844 131.945 712.318 132.005 711.916 132.781Z" fill="black"/>
<path fill-rule="evenodd" clip-rule="evenodd" d="M711.634 139.7C694.609 144.637 683.219 147.71 677.464 148.918C668.851 150.73 668.358 150.63 678.609 147.236C686.85 144.506 695.238 142.236 703.735 140.436C709.731 139.069 712.365 138.824 711.634 139.7Z" fill="black"/>
<path fill-rule="evenodd" clip-rule="evenodd" d="M711.634 146.618C694.609 151.556 683.219 154.629 677.464 155.837C668.851 157.648 668.358 157.549 678.609 154.154C686.85 151.424 695.238 149.154 703.735 147.355C709.731 146.021 712.365 145.776 711.634 146.618Z" fill="black"/>
<path fill-rule="evenodd" clip-rule="evenodd" d="M690.167 124.43C694.944 122.552 698.147 121.556 699.775 121.444C702.227 121.244 702.378 121.444 699.534 123.036C697.375 124.266 694.977 125.026 692.499 125.266C690.74 125.485 690.006 125.217 690.167 124.43Z" fill="black"/>
<path fill-rule="evenodd" clip-rule="evenodd" d="M671.001 164.588C678.874 162.139 684.157 160.749 686.851 160.417C690.871 159.919 691.142 160.118 686.449 162.039C682.713 163.58 678.785 164.614 674.77 165.116C671.986 165.534 670.73 165.404 671.001 164.588Z" fill="black"/>
<path fill-rule="evenodd" clip-rule="evenodd" d="M726.458 95.2915L729.564 91.5186V178.196L561.827 216.692L565.375 212.998L726.478 175.966L726.458 95.2915Z" fill="white"/>
<path fill-rule="evenodd" clip-rule="evenodd" d="M554.059 228.647C551.962 205.041 550.776 180.153 550.501 153.985C550.226 127.817 550.226 109.377 550.501 98.6658L729.604 79.0049L737.644 82.519L553.627 100.826L554.059 228.647Z" fill="white"/>
<path fill-rule="evenodd" clip-rule="evenodd" d="M550.34 99.4825L544.008 94.8535L544.26 138.705C545.338 123.919 546.213 113.489 546.883 107.417C547.553 101.344 548.702 101.381 550.33 107.526L550.34 99.4825Z" fill="black"/>
<path fill-rule="evenodd" clip-rule="evenodd" d="M583.204 140.297C583.204 129.198 581.777 126.36 578.521 117.849C583.174 117.222 612.902 111.418 625.314 109.746C629.103 109.248 632.198 116.903 632.198 123.553C632.198 127.376 635.213 140.984 633.977 151.307C633.061 158.083 632.511 164.902 632.329 171.735C635.022 171.377 635.816 170.829 636.912 172.571C638.65 175.339 638.62 182.715 637.706 188.778C637.042 193.228 635.897 196.971 634.64 197.648C629.756 200.266 612.088 200.863 602.641 200.863C598.403 200.998 594.17 200.471 590.098 199.3C584.953 197.608 583.013 194.721 581.767 191.575C578.681 184.169 582.199 149.884 583.204 140.297Z" fill="black"/>
<path fill-rule="evenodd" clip-rule="evenodd" d="M584.259 119.402L624.269 112.832C627.311 114.611 628.835 120.55 628.842 130.651C628.848 140.752 627.324 154.072 624.269 170.61C603.572 174.347 592.266 176.484 590.35 177.021C588.44 177.569 586.712 179.112 585.194 181.67C584.524 167.899 584.976 156.375 586.551 147.097C587.465 141.691 587.707 132.015 586.551 126.699C586.113 124.178 585.342 121.725 584.259 119.402Z" fill="#D3D8E0"/>
<path fill-rule="evenodd" clip-rule="evenodd" d="M595.344 133.319C606.942 130.406 614.701 128.707 618.621 128.222C624.5 127.496 624.842 127.685 617.877 129.895C612.293 131.68 606.553 132.946 600.731 133.678C596.661 134.275 594.872 134.165 595.344 133.319Z" fill="black"/>
<path fill-rule="evenodd" clip-rule="evenodd" d="M588.862 126.241C585.455 122.538 586.43 120.467 584.259 119.422L623.937 112.832C625.786 113.947 627.073 116.655 627.786 120.935C604.095 126.948 591.12 128.717 588.862 126.241Z" fill="white"/>
<path fill-rule="evenodd" clip-rule="evenodd" d="M627.515 172.87C628.198 172.78 629.254 173.995 630.037 176.135C631.284 179.53 629.223 181.451 626.942 182.745C621.304 184.099 603.324 188.061 602.902 187.374C595.666 190.115 592.557 190.669 593.576 189.037C594.38 187.743 594.148 187.046 594.179 184.288C594.27 183.315 594.075 182.336 593.616 181.47C593.158 180.605 592.456 179.889 591.596 179.41L627.515 172.87Z" fill="white"/>
<path fill-rule="evenodd" clip-rule="evenodd" d="M631.203 182.765C630.098 186.409 610.239 188.559 604.922 189.734C599.606 190.909 591.184 193.059 592.249 191.416C593.098 189.824 594.321 188.458 595.817 187.434C597.193 186.538 609.445 181.412 619.012 179.271C625.404 177.844 628.905 176.222 629.515 174.403C632.449 177.479 631.203 181.68 631.203 182.765Z" fill="#D3D8E0"/>
<path fill-rule="evenodd" clip-rule="evenodd" d="M590.088 182.188C590.493 182.669 590.791 183.228 590.964 183.83C591.137 184.432 591.181 185.063 591.093 185.683C591.093 186.031 591.023 186.37 590.973 186.678L587.455 187.325C587.43 186.761 587.474 186.196 587.586 185.643C587.777 184.71 588.19 183.837 588.792 183.094C589.145 182.694 589.589 182.384 590.088 182.188Z" fill="#C4C3C6"/>
<path fill-rule="evenodd" clip-rule="evenodd" d="M595.344 133.319C606.942 130.406 614.701 128.707 618.621 128.222C624.5 127.496 624.842 127.685 617.877 129.895C612.293 131.68 606.553 132.946 600.731 133.678C596.661 134.275 594.872 134.165 595.344 133.319Z" fill="black"/>
<path fill-rule="evenodd" clip-rule="evenodd" d="M595.324 147.614C604.945 144.681 611.384 143.022 614.64 142.637C619.535 142.02 619.816 142.249 614.057 144.538C609.489 146.359 604.708 147.603 599.826 148.242C596.45 148.789 594.942 148.61 595.324 147.614Z" fill="black"/>
<path fill-rule="evenodd" clip-rule="evenodd" d="M622.982 150.342C610.922 153.256 602.882 154.951 598.862 155.429C592.771 156.126 592.42 155.937 599.666 153.707C605.475 151.922 611.435 150.666 617.475 149.954C621.662 149.35 623.498 149.48 622.982 150.342Z" fill="black"/>
<path fill-rule="evenodd" clip-rule="evenodd" d="M595.264 140.238C601.368 138.294 605.461 137.278 607.545 137.192C610.671 137.053 610.872 137.302 607.234 138.984C604.395 140.31 601.323 141.074 598.188 141.234C596.058 141.453 595.083 141.124 595.264 140.238Z" fill="black"/>
<path fill-rule="evenodd" clip-rule="evenodd" d="M587.616 169.117C589.244 168.968 590.631 168.46 590.169 168.908C589.48 169.493 588.747 170.025 587.978 170.501C587.586 170.74 587.214 170.949 586.852 171.128C587.857 170.949 588.772 170.83 589.455 170.76C592.852 170.431 593.083 170.531 589.325 171.636C587.867 172.064 586.621 172.373 585.435 172.631H586.038C586.782 172.711 588.048 172.91 588.309 172.99C588.862 173.139 587.807 173.189 586.872 173.497C586.134 173.703 585.376 173.83 584.611 173.876L584.209 169.894C585.315 169.519 586.456 169.259 587.616 169.117Z" fill="black"/>
<path fill-rule="evenodd" clip-rule="evenodd" d="M627.786 116.475C626.977 116.795 626.134 117.026 625.274 117.162C624.178 117.271 623.023 117.749 623.575 117.301C623.857 117.072 625.163 116.236 625.947 115.768L626.59 115.41C625.244 115.728 623.806 116.007 622.108 116.246C617.736 116.873 617.967 116.644 621.736 115.33C622.49 115.061 623.465 114.773 624.651 114.444C624.186 114.422 623.723 114.372 623.264 114.295C622.311 114.139 621.374 113.906 620.46 113.598C619.877 113.299 621.465 113.19 623.274 112.602C624.532 112.208 625.829 111.951 627.143 111.836L627.786 116.475Z" fill="black"/>
<path d="M630.761 130.86L629.283 140.228C622.456 138.058 617.357 136.465 613.987 135.45C608.721 133.867 606.751 132.384 606.63 130.472C606.617 130.081 606.65 129.69 606.731 129.307V129.238C606.822 128.633 607.04 128.055 607.373 127.54C607.706 127.025 608.144 126.586 608.661 126.251L608.831 126.132L630.761 130.86Z" fill="black"/>
<path d="M636.882 147.884L628.148 145.376L629.153 136.048L639.796 138.975C641.304 136.645 643.123 135.341 644.68 135.759C647.183 136.426 648.037 141.334 646.58 146.709C645.123 152.085 641.897 155.928 639.394 155.261C637.474 154.763 636.54 151.727 636.882 147.884Z" fill="black"/>
<path d="M642.097 107.009L646.891 115.202L646.439 115.461C632.067 123.703 622.439 128.807 617.555 130.771C612.45 132.822 609.977 132.911 608.651 131.468C608.387 131.166 608.164 130.831 607.987 130.473V130.413C607.685 129.889 607.496 129.309 607.432 128.709C607.368 128.11 607.43 127.503 607.615 126.929L607.676 126.72L642.097 107.009Z" fill="black"/>
<path fill-rule="evenodd" clip-rule="evenodd" d="M642.5 108.79L645.324 113.608C635.375 119.402 627.552 123.41 621.857 125.634C616.162 127.857 612.015 128.521 609.415 127.625L642.5 108.79Z" fill="#D3D8E0"/>
<path fill-rule="evenodd" clip-rule="evenodd" d="M641.716 109.636L642.841 111.557C634.801 116.163 629.217 119.149 626.088 120.516C622.959 121.884 620.764 122.461 619.505 122.249L641.716 109.636Z" fill="white"/>
<path fill-rule="evenodd" clip-rule="evenodd" d="M626.118 119.512L626.57 120.278C622.409 122.654 619.542 124.21 617.967 124.947C616.954 125.515 615.837 125.877 614.681 126.012L626.118 119.512Z" fill="white"/>
<path fill-rule="evenodd" clip-rule="evenodd" d="M642.047 111.469L642.499 112.235C638.339 114.605 635.474 116.158 633.907 116.894C632.894 117.464 631.777 117.826 630.62 117.959L642.047 111.469Z" fill="black"/>
<path d="M641.736 112.892C638.932 108.303 639.113 103.047 642.279 101.165C645.445 99.2838 650.229 101.593 653.023 106.143C655.816 110.692 655.646 115.988 652.48 117.87C649.314 119.751 644.51 117.491 641.736 112.892Z" fill="black"/>
<path fill-rule="evenodd" clip-rule="evenodd" d="M643.072 103.017C641.444 104.281 641.896 107.994 644.167 111.618C646.328 115.042 649.384 117.143 651.353 116.685L651.112 116.844C649.213 117.919 645.755 115.749 643.374 111.996C640.992 108.243 640.62 104.321 642.519 103.236C642.693 103.138 642.879 103.064 643.072 103.017Z" fill="#D3D8E0"/>
<path d="M652.304 115.286C654.098 114.218 653.851 110.549 651.752 107.09C649.654 103.631 646.499 101.692 644.705 102.759C642.912 103.827 643.159 107.497 645.257 110.956C647.355 114.415 650.51 116.353 652.304 115.286Z" fill="#D3D8E0"/>
<path fill-rule="evenodd" clip-rule="evenodd" d="M643.776 105.177C643.722 104.74 643.787 104.296 643.963 103.892C644.14 103.488 644.422 103.138 644.781 102.878C646.298 102.001 649.012 103.694 650.811 106.65C650.871 106.75 650.921 106.85 650.982 106.939C651.039 107.377 650.975 107.821 650.799 108.226C650.622 108.631 650.338 108.981 649.977 109.239C648.459 110.115 645.735 108.422 643.947 105.466L643.776 105.177Z" fill="white"/>
<path fill-rule="evenodd" clip-rule="evenodd" d="M649.313 103.733L649.977 104.052C649.192 105.754 648.32 107.415 647.364 109.029C647.047 109.634 646.571 110.143 645.987 110.503L649.313 103.733Z" fill="black"/>
<path fill-rule="evenodd" clip-rule="evenodd" d="M653.947 110.234L653.524 110.831C651.954 109.79 650.438 108.67 648.982 107.476C648.425 107.072 647.991 106.525 647.726 105.894L653.947 110.234Z" fill="black"/>
<path fill-rule="evenodd" clip-rule="evenodd" d="M647.615 108.352C648.299 108.949 648.54 109.348 648.349 109.487C647.344 108.821 646.378 108.1 645.455 107.327C645.094 107.061 644.824 106.693 644.681 106.271C645.713 106.886 646.695 107.582 647.615 108.352Z" fill="black"/>
<path fill-rule="evenodd" clip-rule="evenodd" d="M652.479 113.768C653.565 114.674 653.977 115.221 653.715 115.4C651.444 113.841 649.933 112.729 649.183 112.065C648.629 111.668 648.186 111.137 647.896 110.522C649.492 111.506 651.023 112.59 652.479 113.768Z" fill="black"/>
<path fill-rule="evenodd" clip-rule="evenodd" d="M651.746 106.541L652.409 106.87C651.623 108.643 650.73 110.368 649.736 112.036C649.477 112.511 649.062 112.883 648.56 113.091L651.746 106.541Z" fill="black"/>
<path fill-rule="evenodd" clip-rule="evenodd" d="M666.369 117.372V183.124L664.077 179.55V114.524L716.921 104.609L719.222 107.456L666.369 117.372Z" fill="white"/>
</g>
<defs>
<clipPath id="clip0">
<rect width="882" height="300" fill="white"/>
</clipPath>
</defs>
</svg>
