<svg width="882" height="300" viewBox="0 0 882 300" fill="none" xmlns="http://www.w3.org/2000/svg">
<g clip-path="url(#clip0)">
<rect width="882" height="300" fill="white"/>
<rect width="882" height="210" fill="#E9ECF0"/>
<rect x="620" y="105" width="52.5" height="52.5" fill="#D3D8E0"/>
<path d="M625.837 157.5H620V163.337H625.837V157.5Z" fill="#D3D8E0"/>
<path d="M631.674 163.337H625.837V169.174H631.674V163.337Z" fill="#D3D8E0"/>
<path d="M637.494 157.5H631.658V163.337H637.494V157.5Z" fill="#D3D8E0"/>
<path d="M625.837 169.158H620V174.995H625.837V169.158Z" fill="#D3D8E0"/>
<path d="M637.494 169.158H631.658V174.995H637.494V169.158Z" fill="#D3D8E0"/>
<path d="M643.332 163.337H637.496V169.174H643.332V163.337Z" fill="#D3D8E0"/>
<path d="M631.674 174.995H625.837V180.832H631.674V174.995Z" fill="#D3D8E0"/>
<path d="M625.837 180.832H620V186.669H625.837V180.832Z" fill="#D3D8E0"/>
<path d="M637.494 180.832H631.658V186.669H637.494V180.832Z" fill="#D3D8E0"/>
<path d="M643.332 174.995H637.496V180.832H643.332V174.995Z" fill="#D3D8E0"/>
<path d="M631.674 186.668H625.837V192.505H631.674V186.668Z" fill="#D3D8E0"/>
<path d="M625.837 192.489H620V198.326H625.837V192.489Z" fill="#D3D8E0"/>
<path d="M637.494 192.489H631.658V198.326H637.494V192.489Z" fill="#D3D8E0"/>
<path d="M643.332 186.668H637.496V192.505H643.332V186.668Z" fill="#D3D8E0"/>
<path d="M631.674 198.326H625.837V204.163H631.674V198.326Z" fill="#D3D8E0"/>
<path d="M625.837 204.164H620V210.001H625.837V204.164Z" fill="#D3D8E0"/>
<path d="M637.494 204.164H631.658V210.001H637.494V204.164Z" fill="#D3D8E0"/>
<path d="M643.332 198.326H637.496V204.163H643.332V198.326Z" fill="#D3D8E0"/>
<path d="M649.168 157.5H643.331V163.337H649.168V157.5Z" fill="#D3D8E0"/>
<path d="M655.006 163.337H649.169V169.174H655.006V163.337Z" fill="#D3D8E0"/>
<path d="M660.826 157.5H654.99V163.337H660.826V157.5Z" fill="#D3D8E0"/>
<path d="M649.168 169.158H643.331V174.995H649.168V169.158Z" fill="#D3D8E0"/>
<path d="M660.826 169.158H654.99V174.995H660.826V169.158Z" fill="#D3D8E0"/>
<path d="M666.663 163.337H660.827V169.174H666.663V163.337Z" fill="#D3D8E0"/>
<path d="M655.006 174.995H649.169V180.832H655.006V174.995Z" fill="#D3D8E0"/>
<path d="M649.168 180.832H643.331V186.669H649.168V180.832Z" fill="#D3D8E0"/>
<path d="M660.826 180.832H654.99V186.669H660.826V180.832Z" fill="#D3D8E0"/>
<path d="M666.663 174.995H660.827V180.832H666.663V174.995Z" fill="#D3D8E0"/>
<path d="M655.006 186.668H649.169V192.505H655.006V186.668Z" fill="#D3D8E0"/>
<path d="M649.168 192.489H643.331V198.326H649.168V192.489Z" fill="#D3D8E0"/>
<path d="M660.826 192.489H654.99V198.326H660.826V192.489Z" fill="#D3D8E0"/>
<path d="M666.663 186.668H660.827V192.505H666.663V186.668Z" fill="#D3D8E0"/>
<path d="M655.006 198.326H649.169V204.163H655.006V198.326Z" fill="#D3D8E0"/>
<path d="M649.168 204.164H643.331V210.001H649.168V204.164Z" fill="#D3D8E0"/>
<path d="M660.826 204.164H654.99V210.001H660.826V204.164Z" fill="#D3D8E0"/>
<path d="M672.5 157.5H666.663V163.337H672.5V157.5Z" fill="#D3D8E0"/>
<path d="M672.5 169.158H666.663V174.995H672.5V169.158Z" fill="#D3D8E0"/>
<path d="M672.5 180.832H666.663V186.669H672.5V180.832Z" fill="#D3D8E0"/>
<path d="M672.5 192.489H666.663V198.326H672.5V192.489Z" fill="#D3D8E0"/>
<path d="M672.5 204.164H666.663V210.001H672.5V204.164Z" fill="#D3D8E0"/>
<path d="M666.663 198.326H660.827V204.163H666.663V198.326Z" fill="#D3D8E0"/>
<rect x="631.667" y="52.5" width="5.83333" height="52.5" fill="#D3D8E0"/>
<rect x="643.333" y="52.5" width="5.83333" height="52.5" fill="#D3D8E0"/>
<rect x="655" y="52.5" width="5.83333" height="52.5" fill="#D3D8E0"/>
<rect x="666.667" y="52.5" width="5.83333" height="52.5" fill="#D3D8E0"/>
<rect x="620" y="52.5" width="5.83668" height="52.5" fill="#D3D8E0"/>
<rect x="555.833" y="157.5" width="5.83333" height="52.5" transform="rotate(-180 555.833 157.5)" fill="#D3D8E0"/>
<rect x="544.167" y="157.5" width="5.83333" height="52.5" transform="rotate(-180 544.167 157.5)" fill="#D3D8E0"/>
<rect x="532.5" y="157.5" width="5.83333" height="52.5" transform="rotate(-180 532.5 157.5)" fill="#D3D8E0"/>
<rect x="520.833" y="157.5" width="5.83333" height="52.5" transform="rotate(-180 520.833 157.5)" fill="#D3D8E0"/>
<rect x="567.5" y="157.5" width="5.83668" height="52.5" transform="rotate(-180 567.5 157.5)" fill="#D3D8E0"/>
<rect x="870.505" y="53.4844" width="5.83333" height="52.5" transform="rotate(-180 870.505 53.4844)" fill="#D3D8E0"/>
<rect x="858.838" y="53.4844" width="5.83333" height="52.5" transform="rotate(-180 858.838 53.4844)" fill="#D3D8E0"/>
<rect x="847.172" y="53.4844" width="5.83333" height="52.5" transform="rotate(-180 847.172 53.4844)" fill="#D3D8E0"/>
<rect x="835.505" y="53.4844" width="5.83333" height="52.5" transform="rotate(-180 835.505 53.4844)" fill="#D3D8E0"/>
<rect x="882.172" y="53.4844" width="5.83668" height="52.5" transform="rotate(-180 882.172 53.4844)" fill="#D3D8E0"/>
<path fill-rule="evenodd" clip-rule="evenodd" d="M567.5 163.333V157.5C596.495 157.5 620 181.005 620 210H614.167C614.167 184.227 593.273 163.333 567.5 163.333ZM567.5 175V169.166C590.052 169.166 608.333 187.448 608.333 210H602.5C602.5 190.67 586.83 175 567.5 175ZM567.5 180.834V186.667C580.387 186.667 590.833 197.114 590.833 210L596.667 210C596.667 193.892 583.608 180.834 567.5 180.834ZM567.5 198.333V192.5C577.165 192.5 585 200.335 585 210H579.167C579.167 203.557 573.943 198.333 567.5 198.333ZM567.5 210V204.166C570.722 204.166 573.333 206.778 573.333 210H567.5Z" fill="#D3D8E0"/>
<path fill-rule="evenodd" clip-rule="evenodd" d="M777 110.833V105C805.995 105 829.5 128.505 829.5 157.5L823.667 157.5C823.667 131.727 802.773 110.833 777 110.833ZM777 122.5V116.667C799.552 116.667 817.833 134.949 817.833 157.5H812C812 138.17 796.33 122.5 777 122.5ZM777 128.333V134.167C789.887 134.167 800.333 144.613 800.333 157.5L806.167 157.5C806.167 141.392 793.108 128.333 777 128.333ZM777 145.833V140C786.665 140 794.5 147.835 794.5 157.5H788.667C788.667 151.056 783.443 145.833 777 145.833ZM777 157.5V151.667C780.222 151.667 782.833 154.279 782.833 157.5H777Z" fill="#D3D8E0"/>
<path d="M729.112 52.5H725V48.3875L773.387 0H777.5V4.1125L729.112 52.5ZM765.133 0H756.879L725 31.8791V40.1333L765.133 0ZM748.625 0H740.371L725 15.3708V23.625L748.625 0ZM725 0V7.11666L732.117 0H725ZM777.5 20.6208V12.3667L737.367 52.5H745.621L777.5 20.6208ZM777.5 37.1291V28.875L753.875 52.5H762.129L777.5 37.1291ZM777.5 45.3833L770.383 52.5H777.5V45.3833Z" fill="#D3D8E0"/>
<path d="M672.5 105L725 105L725 52.5C696.005 52.5 672.5 76.0051 672.5 105Z" fill="#D3D8E0"/>
<path d="M777.5 157.5L777.5 105L725 105C725 133.995 748.505 157.5 777.5 157.5Z" fill="#D3D8E0"/>
<path d="M64.4062 101V68.3516H77.1328C78.7578 68.3516 80.1641 68.4688 81.3516 68.7031C82.5391 68.9219 83.6016 69.3672 84.5391 70.0391C86.4141 71.3672 87.3516 73.4219 87.3516 76.2031C87.3516 78.1094 86.9062 79.7422 86.0156 81.1016C85.1406 82.4609 83.9375 83.4297 82.4062 84.0078C84.1406 84.4922 85.5156 85.3672 86.5312 86.6328C87.5625 87.8984 88.0781 89.5156 88.0781 91.4844C88.0781 94.6562 87.25 97.0156 85.5938 98.5625C84.6719 99.3906 83.5234 100.008 82.1484 100.414C80.7891 100.805 79.1953 101 77.3672 101H64.4062ZM68.9766 96.9219H79.2422C80.4609 96.9219 81.4375 96.6328 82.1719 96.0547C82.9062 95.4766 83.2734 94.5781 83.2734 93.3594V89.4219C83.2734 88.3281 82.9375 87.5156 82.2656 86.9844C81.5938 86.4375 80.6875 86.1641 79.5469 86.1641H68.9766V96.9219ZM68.9766 82.0859H79.0078C80.2266 82.0859 81.125 81.7656 81.7031 81.125C82.2812 80.4844 82.5703 79.6562 82.5703 78.6406V75.7109C82.5703 73.5391 81.3828 72.4453 79.0078 72.4297H68.9766V82.0859ZM95.2031 101V68.3516H99.5156V101H95.2031ZM106.289 88.7656C106.289 86.9062 106.508 85.1875 106.945 83.6094C107.398 82.0156 108.078 80.6641 108.984 79.5547C109.906 78.4297 111.055 77.5469 112.43 76.9062C113.805 76.2656 115.422 75.9453 117.281 75.9453C119.141 75.9453 120.758 76.2656 122.133 76.9062C123.508 77.5469 124.648 78.4297 125.555 79.5547C126.461 80.6641 127.141 82.0156 127.594 83.6094C128.047 85.1875 128.273 86.9062 128.273 88.7656C128.273 90.6562 128.047 92.3828 127.594 93.9453C127.141 95.5078 126.461 96.8516 125.555 97.9766C124.648 99.1016 123.5 99.9844 122.109 100.625C120.734 101.266 119.125 101.586 117.281 101.586C115.422 101.586 113.805 101.266 112.43 100.625C111.055 99.9844 109.906 99.1016 108.984 97.9766C108.078 96.8516 107.398 95.5078 106.945 93.9453C106.508 92.3828 106.289 90.6562 106.289 88.7656ZM110.836 92.5625C110.836 93.3906 111.008 94.1484 111.352 94.8359C111.711 95.5234 112.18 96.1094 112.758 96.5938C113.336 97.0625 114.016 97.4375 114.797 97.7188C115.578 97.9844 116.406 98.1172 117.281 98.1172C118.141 98.1172 118.961 97.9844 119.742 97.7188C120.523 97.4375 121.203 97.0625 121.781 96.5938C122.359 96.1094 122.82 95.5234 123.164 94.8359C123.523 94.1484 123.703 93.3906 123.703 92.5625V84.9688C123.703 84.1406 123.523 83.3828 123.164 82.6953C122.82 82.0078 122.359 81.4219 121.781 80.9375C121.203 80.4531 120.523 80.0781 119.742 79.8125C118.961 79.5312 118.141 79.3906 117.281 79.3906C116.422 79.3906 115.594 79.5312 114.797 79.8125C114.016 80.0781 113.336 80.4531 112.758 80.9375C112.18 81.4219 111.711 82.0078 111.352 82.6953C111.008 83.3828 110.836 84.1406 110.836 84.9688V92.5625ZM133.711 88.7656C133.711 87 133.906 85.3359 134.297 83.7734C134.703 82.1953 135.305 80.8359 136.102 79.6953C136.898 78.5391 137.906 77.625 139.125 76.9531C140.344 76.2812 141.766 75.9453 143.391 75.9453C145.219 75.9453 146.789 76.3359 148.102 77.1172C149.414 77.8984 150.453 79.0312 151.219 80.5156V76.5312H155.555V100.531C155.555 102.234 155.25 103.695 154.641 104.914C154.031 106.148 153.227 107.172 152.227 107.984C151.242 108.797 150.117 109.391 148.852 109.766C147.586 110.156 146.297 110.352 144.984 110.352C143.703 110.352 142.477 110.227 141.305 109.977C140.148 109.727 139.094 109.305 138.141 108.711C137.203 108.117 136.422 107.328 135.797 106.344C135.172 105.375 134.766 104.156 134.578 102.688H138.891C139.047 104.094 139.641 105.148 140.672 105.852C141.719 106.555 143.094 106.906 144.797 106.906C145.625 106.906 146.43 106.781 147.211 106.531C147.992 106.297 148.68 105.914 149.273 105.383C149.867 104.867 150.336 104.188 150.68 103.344C151.039 102.516 151.219 101.508 151.219 100.32V97.0156C150.453 98.4844 149.43 99.6172 148.148 100.414C146.867 101.195 145.32 101.586 143.508 101.586C141.852 101.586 140.406 101.25 139.172 100.578C137.953 99.9062 136.938 98.9922 136.125 97.8359C135.312 96.6797 134.703 95.3281 134.297 93.7812C133.906 92.2188 133.711 90.5469 133.711 88.7656ZM138.258 92.5625C138.258 93.3906 138.414 94.1484 138.727 94.8359C139.055 95.5234 139.5 96.1094 140.062 96.5938C140.625 97.0625 141.281 97.4375 142.031 97.7188C142.781 97.9844 143.609 98.1172 144.516 98.1172C146.688 98.1172 148.344 97.4297 149.484 96.0547C150.641 94.6797 151.219 92.9375 151.219 90.8281V86.7031C151.219 84.5938 150.641 82.8516 149.484 81.4766C148.344 80.0859 146.688 79.3906 144.516 79.3906C143.625 79.3906 142.797 79.5312 142.031 79.8125C141.281 80.0781 140.625 80.4531 140.062 80.9375C139.5 81.4219 139.055 82.0078 138.727 82.6953C138.414 83.3828 138.258 84.1406 138.258 84.9688V92.5625Z" fill="black"/>
<path d="M65 145C68.5455 145 70.5455 142.795 70.5455 139.159C70.5455 135.545 68.5455 133.364 65.1591 133.364H61.4091V145H65ZM62.8182 143.75V134.614H65.0682C67.7955 134.614 69.1818 136.341 69.1818 139.159C69.1818 142 67.7955 143.75 64.9091 143.75H62.8182ZM72.7273 145H74.0682V136.273H72.7273V145ZM73.4091 134.818C73.9318 134.818 74.3636 134.409 74.3636 133.909C74.3636 133.409 73.9318 133 73.4091 133C72.8864 133 72.4545 133.409 72.4545 133.909C72.4545 134.409 72.8864 134.818 73.4091 134.818ZM82.706 138.227C82.2855 136.989 81.3423 136.159 79.6151 136.159C77.7741 136.159 76.4105 137.205 76.4105 138.682C76.4105 139.886 77.1264 140.693 78.7287 141.068L80.1832 141.409C81.0639 141.614 81.4787 142.034 81.4787 142.636C81.4787 143.386 80.6832 144 79.4332 144C78.3366 144 77.6491 143.528 77.4105 142.591L76.1378 142.909C76.4503 144.392 77.6719 145.182 79.456 145.182C81.4844 145.182 82.8651 144.074 82.8651 142.568C82.8651 141.352 82.1037 140.585 80.5469 140.205L79.2514 139.886C78.2173 139.631 77.7514 139.284 77.7514 138.614C77.7514 137.864 78.5469 137.318 79.6151 137.318C80.7855 137.318 81.2685 137.966 81.5014 138.568L82.706 138.227ZM88.429 145.182C90.3608 145.182 91.6335 144 91.8608 142.455H90.5199C90.2699 143.409 89.4744 143.977 88.429 143.977C86.8381 143.977 85.8153 142.659 85.8153 140.636C85.8153 138.659 86.8608 137.364 88.429 137.364C89.6108 137.364 90.3153 138.091 90.5199 138.886H91.8608C91.6335 137.25 90.2472 136.159 88.4062 136.159C86.0426 136.159 84.4744 138.023 84.4744 140.682C84.4744 143.295 85.9744 145.182 88.429 145.182ZM99.321 141.432C99.321 143.068 98.071 143.818 97.071 143.818C95.9574 143.818 95.1619 143 95.1619 141.727V136.273H93.821V141.818C93.821 144.045 95.0028 145.114 96.6392 145.114C97.9574 145.114 98.821 144.409 99.2301 143.523H99.321V145H100.662V136.273H99.321V141.432ZM109.3 138.227C108.879 136.989 107.936 136.159 106.209 136.159C104.368 136.159 103.004 137.205 103.004 138.682C103.004 139.886 103.72 140.693 105.322 141.068L106.777 141.409C107.658 141.614 108.072 142.034 108.072 142.636C108.072 143.386 107.277 144 106.027 144C104.93 144 104.243 143.528 104.004 142.591L102.732 142.909C103.044 144.392 104.266 145.182 106.05 145.182C108.078 145.182 109.459 144.074 109.459 142.568C109.459 141.352 108.697 140.585 107.141 140.205L105.845 139.886C104.811 139.631 104.345 139.284 104.345 138.614C104.345 137.864 105.141 137.318 106.209 137.318C107.379 137.318 107.862 137.966 108.095 138.568L109.3 138.227ZM117.659 138.227C117.239 136.989 116.295 136.159 114.568 136.159C112.727 136.159 111.364 137.205 111.364 138.682C111.364 139.886 112.08 140.693 113.682 141.068L115.136 141.409C116.017 141.614 116.432 142.034 116.432 142.636C116.432 143.386 115.636 144 114.386 144C113.29 144 112.602 143.528 112.364 142.591L111.091 142.909C111.403 144.392 112.625 145.182 114.409 145.182C116.438 145.182 117.818 144.074 117.818 142.568C117.818 141.352 117.057 140.585 115.5 140.205L114.205 139.886C113.17 139.631 112.705 139.284 112.705 138.614C112.705 137.864 113.5 137.318 114.568 137.318C115.739 137.318 116.222 137.966 116.455 138.568L117.659 138.227ZM126.905 145.205C128.428 145.205 129.223 144.386 129.496 143.818H129.564V145H130.905V139.25C130.905 136.477 128.791 136.159 127.678 136.159C126.359 136.159 124.859 136.614 124.178 138.205L125.45 138.659C125.746 138.023 126.445 137.341 127.723 137.341C128.956 137.341 129.564 137.994 129.564 139.114V139.159C129.564 139.807 128.905 139.75 127.314 139.955C125.695 140.165 123.928 140.523 123.928 142.523C123.928 144.227 125.246 145.205 126.905 145.205ZM127.109 144C126.041 144 125.268 143.523 125.268 142.591C125.268 141.568 126.2 141.25 127.246 141.114C127.814 141.045 129.337 140.886 129.564 140.614V141.841C129.564 142.932 128.7 144 127.109 144ZM134.693 139.75C134.693 138.227 135.636 137.364 136.92 137.364C138.165 137.364 138.92 138.176 138.92 139.545V145H140.261V139.455C140.261 137.227 139.074 136.159 137.307 136.159C135.989 136.159 135.17 136.75 134.761 137.636H134.648V136.273H133.352V145H134.693V139.75ZM146.007 145.182C147.689 145.182 148.257 144.136 148.553 143.659H148.712V145H150.007V133.364H148.666V137.659H148.553C148.257 137.205 147.734 136.159 146.03 136.159C143.825 136.159 142.303 137.909 142.303 140.659C142.303 143.432 143.825 145.182 146.007 145.182ZM146.189 143.977C144.507 143.977 143.643 142.5 143.643 140.636C143.643 138.795 144.484 137.364 146.189 137.364C147.825 137.364 148.689 138.682 148.689 140.636C148.689 142.614 147.803 143.977 146.189 143.977ZM160.695 145.182C162.626 145.182 163.899 144 164.126 142.455H162.786C162.536 143.409 161.74 143.977 160.695 143.977C159.104 143.977 158.081 142.659 158.081 140.636C158.081 138.659 159.126 137.364 160.695 137.364C161.876 137.364 162.581 138.091 162.786 138.886H164.126C163.899 137.25 162.513 136.159 160.672 136.159C158.308 136.159 156.74 138.023 156.74 140.682C156.74 143.295 158.24 145.182 160.695 145.182ZM169.632 145.182C171.996 145.182 173.587 143.386 173.587 140.682C173.587 137.955 171.996 136.159 169.632 136.159C167.268 136.159 165.678 137.955 165.678 140.682C165.678 143.386 167.268 145.182 169.632 145.182ZM169.632 143.977C167.837 143.977 167.018 142.432 167.018 140.682C167.018 138.932 167.837 137.364 169.632 137.364C171.428 137.364 172.246 138.932 172.246 140.682C172.246 142.432 171.428 143.977 169.632 143.977ZM175.634 145H176.974V139.545C176.974 138.267 177.906 137.364 178.952 137.364C179.969 137.364 180.679 138.028 180.679 139.023V145H182.043V139.318C182.043 138.193 182.747 137.364 183.974 137.364C184.929 137.364 185.747 137.869 185.747 139.159V145H187.088V139.159C187.088 137.108 185.986 136.159 184.429 136.159C183.179 136.159 182.264 136.733 181.815 137.636H181.724C181.293 136.705 180.531 136.159 179.384 136.159C178.247 136.159 177.406 136.705 177.043 137.636H176.929V136.273H175.634V145ZM189.54 145H190.881V139.545C190.881 138.267 191.812 137.364 192.858 137.364C193.875 137.364 194.585 138.028 194.585 139.023V145H195.949V139.318C195.949 138.193 196.653 137.364 197.881 137.364C198.835 137.364 199.653 137.869 199.653 139.159V145H200.994V139.159C200.994 137.108 199.892 136.159 198.335 136.159C197.085 136.159 196.17 136.733 195.722 137.636H195.631C195.199 136.705 194.438 136.159 193.29 136.159C192.153 136.159 191.312 136.705 190.949 137.636H190.835V136.273H189.54V145ZM207.105 145.182C208.878 145.182 210.173 144.295 210.582 142.977L209.287 142.614C208.946 143.523 208.156 143.977 207.105 143.977C205.531 143.977 204.446 142.96 204.384 141.091H210.719V140.523C210.719 137.273 208.787 136.159 206.969 136.159C204.605 136.159 203.037 138.023 203.037 140.705C203.037 143.386 204.582 145.182 207.105 145.182ZM204.384 139.932C204.474 138.574 205.435 137.364 206.969 137.364C208.423 137.364 209.355 138.455 209.355 139.932H204.384ZM214.099 139.75C214.099 138.227 215.043 137.364 216.327 137.364C217.571 137.364 218.327 138.176 218.327 139.545V145H219.668V139.455C219.668 137.227 218.48 136.159 216.713 136.159C215.395 136.159 214.577 136.75 214.168 137.636H214.054V136.273H212.759V145H214.099V139.75ZM225.913 136.273H224.05V134.182H222.709V136.273H221.391V137.409H222.709V142.864C222.709 144.386 223.936 145.114 225.072 145.114C225.572 145.114 225.891 145.023 226.072 144.955L225.8 143.75C225.686 143.773 225.504 143.818 225.209 143.818C224.618 143.818 224.05 143.636 224.05 142.5V137.409H225.913V136.273ZM235.976 145.182C238.339 145.182 239.93 143.386 239.93 140.682C239.93 137.955 238.339 136.159 235.976 136.159C233.612 136.159 232.021 137.955 232.021 140.682C232.021 143.386 233.612 145.182 235.976 145.182ZM235.976 143.977C234.18 143.977 233.362 142.432 233.362 140.682C233.362 138.932 234.18 137.364 235.976 137.364C237.771 137.364 238.589 138.932 238.589 140.682C238.589 142.432 237.771 143.977 235.976 143.977ZM243.318 139.75C243.318 138.227 244.261 137.364 245.545 137.364C246.79 137.364 247.545 138.176 247.545 139.545V145H248.886V139.455C248.886 137.227 247.699 136.159 245.932 136.159C244.614 136.159 243.795 136.75 243.386 137.636H243.273V136.273H241.977V145H243.318V139.75ZM259.632 136.273H257.768V134.182H256.428V136.273H255.109V137.409H256.428V142.864C256.428 144.386 257.655 145.114 258.791 145.114C259.291 145.114 259.609 145.023 259.791 144.955L259.518 143.75C259.405 143.773 259.223 143.818 258.928 143.818C258.337 143.818 257.768 143.636 257.768 142.5V137.409H259.632V136.273ZM265.214 145.182C266.987 145.182 268.283 144.295 268.692 142.977L267.396 142.614C267.055 143.523 266.266 143.977 265.214 143.977C263.641 143.977 262.555 142.96 262.493 141.091H268.828V140.523C268.828 137.273 266.896 136.159 265.078 136.159C262.714 136.159 261.146 138.023 261.146 140.705C261.146 143.386 262.692 145.182 265.214 145.182ZM262.493 139.932C262.584 138.574 263.544 137.364 265.078 137.364C266.533 137.364 267.464 138.455 267.464 139.932H262.493ZM277.05 138.227C276.629 136.989 275.686 136.159 273.959 136.159C272.118 136.159 270.754 137.205 270.754 138.682C270.754 139.886 271.47 140.693 273.072 141.068L274.527 141.409C275.408 141.614 275.822 142.034 275.822 142.636C275.822 143.386 275.027 144 273.777 144C272.68 144 271.993 143.528 271.754 142.591L270.482 142.909C270.794 144.392 272.016 145.182 273.8 145.182C275.828 145.182 277.209 144.074 277.209 142.568C277.209 141.352 276.447 140.585 274.891 140.205L273.595 139.886C272.561 139.631 272.095 139.284 272.095 138.614C272.095 137.864 272.891 137.318 273.959 137.318C275.129 137.318 275.612 137.966 275.845 138.568L277.05 138.227ZM283.023 136.273H281.159V134.182H279.818V136.273H278.5V137.409H279.818V142.864C279.818 144.386 281.045 145.114 282.182 145.114C282.682 145.114 283 145.023 283.182 144.955L282.909 143.75C282.795 143.773 282.614 143.818 282.318 143.818C281.727 143.818 281.159 143.636 281.159 142.5V137.409H283.023V136.273ZM286.381 139.75C286.381 138.227 287.324 137.364 288.608 137.364C289.852 137.364 290.608 138.176 290.608 139.545V145H291.949V139.455C291.949 137.227 290.761 136.159 288.994 136.159C287.676 136.159 286.858 136.75 286.449 137.636H286.335V136.273H285.04V145H286.381V139.75ZM298.058 145.182C299.831 145.182 301.126 144.295 301.536 142.977L300.24 142.614C299.899 143.523 299.109 143.977 298.058 143.977C296.484 143.977 295.399 142.96 295.337 141.091H301.672V140.523C301.672 137.273 299.74 136.159 297.922 136.159C295.558 136.159 293.99 138.023 293.99 140.705C293.99 143.386 295.536 145.182 298.058 145.182ZM295.337 139.932C295.428 138.574 296.388 137.364 297.922 137.364C299.376 137.364 300.308 138.455 300.308 139.932H295.337ZM307.507 136.273H305.643V134.182H304.303V136.273H302.984V137.409H304.303V142.864C304.303 144.386 305.53 145.114 306.666 145.114C307.166 145.114 307.484 145.023 307.666 144.955L307.393 143.75C307.28 143.773 307.098 143.818 306.803 143.818C306.212 143.818 305.643 143.636 305.643 142.5V137.409H307.507V136.273ZM317.57 145.182C319.501 145.182 320.774 144 321.001 142.455H319.661C319.411 143.409 318.615 143.977 317.57 143.977C315.979 143.977 314.956 142.659 314.956 140.636C314.956 138.659 316.001 137.364 317.57 137.364C318.751 137.364 319.456 138.091 319.661 138.886H321.001C320.774 137.25 319.388 136.159 317.547 136.159C315.183 136.159 313.615 138.023 313.615 140.682C313.615 143.295 315.115 145.182 317.57 145.182ZM324.303 139.75C324.303 138.227 325.274 137.364 326.598 137.364C327.859 137.364 328.621 138.159 328.621 139.545V145H329.962V139.455C329.962 137.21 328.768 136.159 326.984 136.159C325.609 136.159 324.825 136.733 324.416 137.636H324.303V133.364H322.962V145H324.303V139.75ZM334.983 145.205C336.506 145.205 337.301 144.386 337.574 143.818H337.642V145H338.983V139.25C338.983 136.477 336.869 136.159 335.756 136.159C334.438 136.159 332.938 136.614 332.256 138.205L333.528 138.659C333.824 138.023 334.523 137.341 335.801 137.341C337.034 137.341 337.642 137.994 337.642 139.114V139.159C337.642 139.807 336.983 139.75 335.392 139.955C333.773 140.165 332.006 140.523 332.006 142.523C332.006 144.227 333.324 145.205 334.983 145.205ZM335.188 144C334.119 144 333.347 143.523 333.347 142.591C333.347 141.568 334.278 141.25 335.324 141.114C335.892 141.045 337.415 140.886 337.642 140.614V141.841C337.642 142.932 336.778 144 335.188 144ZM342.771 139.75C342.771 138.227 343.714 137.364 344.999 137.364C346.243 137.364 346.999 138.176 346.999 139.545V145H348.339V139.455C348.339 137.227 347.152 136.159 345.385 136.159C344.067 136.159 343.249 136.75 342.839 137.636H342.726V136.273H341.43V145H342.771V139.75ZM354.312 148.455C356.403 148.455 358.085 147.5 358.085 145.25V136.273H356.79V137.659H356.653C356.358 137.205 355.812 136.159 354.108 136.159C351.903 136.159 350.381 137.909 350.381 140.591C350.381 143.318 351.972 144.864 354.085 144.864C355.79 144.864 356.335 143.864 356.631 143.386H356.744V145.159C356.744 146.614 355.722 147.273 354.312 147.273C352.727 147.273 352.17 146.438 351.812 145.955L350.744 146.705C351.29 147.619 352.364 148.455 354.312 148.455ZM354.267 143.659C352.585 143.659 351.722 142.386 351.722 140.568C351.722 138.795 352.562 137.364 354.267 137.364C355.903 137.364 356.767 138.682 356.767 140.568C356.767 142.5 355.881 143.659 354.267 143.659ZM364.199 145.182C365.972 145.182 367.267 144.295 367.676 142.977L366.381 142.614C366.04 143.523 365.25 143.977 364.199 143.977C362.625 143.977 361.54 142.96 361.477 141.091H367.812V140.523C367.812 137.273 365.881 136.159 364.062 136.159C361.699 136.159 360.131 138.023 360.131 140.705C360.131 143.386 361.676 145.182 364.199 145.182ZM361.477 139.932C361.568 138.574 362.528 137.364 364.062 137.364C365.517 137.364 366.449 138.455 366.449 139.932H361.477ZM376.034 138.227C375.614 136.989 374.67 136.159 372.943 136.159C371.102 136.159 369.739 137.205 369.739 138.682C369.739 139.886 370.455 140.693 372.057 141.068L373.511 141.409C374.392 141.614 374.807 142.034 374.807 142.636C374.807 143.386 374.011 144 372.761 144C371.665 144 370.977 143.528 370.739 142.591L369.466 142.909C369.778 144.392 371 145.182 372.784 145.182C374.812 145.182 376.193 144.074 376.193 142.568C376.193 141.352 375.432 140.585 373.875 140.205L372.58 139.886C371.545 139.631 371.08 139.284 371.08 138.614C371.08 137.864 371.875 137.318 372.943 137.318C374.114 137.318 374.597 137.966 374.83 138.568L376.034 138.227Z" fill="black"/>
<path d="M767.37 135.72C766.69 130.22 767.19 127.95 762.18 125.72L753 126C749.59 124.45 745.23 119.68 741.84 120.85C740.46 121.33 736.56 119.7 735.36 119.33C733.04 113.1 715.97 115.63 712.89 112.78C710.843 110.88 707.436 110.077 702.67 110.37L694.21 106.85C693.286 106.46 692.324 106.165 691.34 105.97C690.673 105.85 685.466 108.83 675.72 114.91C675.481 115.683 675.284 116.467 675.13 117.26L658.13 219.75C657.589 223.317 658.27 226.962 660.062 230.094C661.853 233.225 664.651 235.659 668 237L744.75 264.06C746.86 264.89 750.65 266.22 754.88 264.06C760.88 261 767.28 258.7 769.51 248.3C771.74 237.9 775.51 206.02 780.51 171.7C780.88 169.314 780.702 166.874 779.99 164.567C779.278 162.259 778.05 160.143 776.4 158.38L769.24 150.67L767.37 135.72Z" fill="black"/>
<path d="M747.72 157.241C747.884 158.538 748.45 159.752 749.34 160.711L757.34 169.291C757.978 169.975 758.452 170.794 758.727 171.688C759.003 172.582 759.072 173.526 758.93 174.451L748.35 238.281C747.857 241.201 745.69 244.591 741.85 248.451C741.85 248.731 730.66 251.111 727.7 249.941L670.76 228.531C668.11 227.481 673.39 223.531 673.85 220.721C671.317 209.007 670.567 200.037 671.6 193.811C672.83 186.401 675.28 186.091 677.09 175.161C677.75 171.211 677.51 158.161 678.24 153.761C679.24 147.714 680.907 137.651 683.24 123.571C683.292 123.262 683.369 122.957 683.47 122.661C683.708 121.965 684.088 121.327 684.586 120.787C685.084 120.247 685.689 119.816 686.362 119.522C687.036 119.229 687.763 119.079 688.498 119.082C689.233 119.085 689.959 119.241 690.63 119.541L699.63 123.291C700.228 123.537 700.864 123.682 701.51 123.721L713.84 124.401C714.74 124.462 715.615 124.726 716.4 125.173C717.184 125.62 717.858 126.238 718.37 126.981C721.703 131.721 724.567 134.514 726.96 135.361C730.119 136.506 733.581 136.506 736.74 135.361C738.086 134.911 739.553 134.994 740.84 135.591L742.18 136.201C743.143 136.644 743.977 137.326 744.603 138.182C745.23 139.037 745.628 140.039 745.76 141.091L747.72 157.241Z" fill="#D3D8E0"/>
<path d="M694.92 119L700.46 123.85L714.36 127.12C715.54 127.19 717.74 126.72 720.95 125.73L727.28 136.83C731.336 136.197 735.345 135.291 739.28 134.12C740.626 133.67 742.093 133.753 743.38 134.35L744.72 134.96C745.683 135.404 746.517 136.085 747.143 136.941C747.77 137.797 748.168 138.798 748.3 139.85L750.3 155.99C750.468 157.288 751.038 158.502 751.93 159.46L759.93 168.04C760.571 168.722 761.049 169.541 761.326 170.435C761.603 171.329 761.673 172.275 761.53 173.2C758.863 191.2 756.887 206.976 755.6 220.53C754.313 234.083 753.823 244.676 754.13 252.31C755.76 252.12 756.91 249.95 757.6 245.81C757.6 245.53 757.75 245.28 757.79 245L769.94 171.77C770.08 170.845 770.009 169.9 769.732 169.006C769.454 168.113 768.979 167.293 768.34 166.61L760.34 158.03C759.444 157.074 758.873 155.86 758.71 154.56L756.71 138.42C756.576 137.368 756.177 136.368 755.551 135.513C754.925 134.657 754.092 133.975 753.13 133.53L751.78 132.92C750.496 132.322 749.032 132.24 747.69 132.69C744.531 133.835 741.069 133.835 737.91 132.69C735.53 131.85 732.667 129.056 729.32 124.31C728.807 123.565 728.132 122.947 727.345 122.5C726.559 122.053 725.682 121.79 724.78 121.73L712.49 121C711.844 120.961 711.209 120.815 710.61 120.57L701.61 116.82C700.421 116.3 699.083 116.234 697.85 116.636C696.617 117.038 695.574 117.879 694.92 119Z" fill="#D3D8E0"/>
<path d="M739.39 155.711L758 179.361L759.08 172.841C759.217 171.94 759.144 171.02 758.867 170.153C758.589 169.285 758.114 168.494 757.48 167.841L749.54 159.511C748.66 158.588 748.09 157.413 747.91 156.151L745.91 140.551C745.764 139.523 745.36 138.55 744.736 137.721C744.111 136.892 743.287 136.235 742.34 135.811L741 135.211C738.895 134.56 736.726 134.145 734.53 133.971L727.24 134.891L716.68 129.001L714.68 123.801C708.08 123.971 704.56 124.051 704.14 124.021C702.734 123.791 701.347 123.456 699.99 123.021L691.06 119.341C689.898 118.818 688.586 118.733 687.367 119.101C686.147 119.468 685.1 120.263 684.42 121.341L691.66 124.341C693.207 124.651 694.774 124.852 696.35 124.941L706.03 129.871L710.27 128.031L718.83 136.181L729.39 138.671L734.54 139.261L738.23 142.951L739.39 155.711Z" fill="white"/>
<path fill-rule="evenodd" clip-rule="evenodd" d="M743.92 168.59L692.23 151.46C691.984 151.371 691.723 151.335 691.462 151.353C691.201 151.372 690.947 151.444 690.716 151.567C690.486 151.689 690.283 151.859 690.122 152.064C689.96 152.27 689.844 152.507 689.78 152.76C689.657 153.298 689.739 153.862 690.008 154.342C690.278 154.823 690.717 155.186 691.24 155.36L742.93 172.5C743.176 172.588 743.437 172.623 743.697 172.604C743.957 172.585 744.211 172.512 744.441 172.39C744.672 172.268 744.874 172.099 745.036 171.894C745.197 171.689 745.315 171.453 745.38 171.2C745.505 170.662 745.425 170.096 745.155 169.613C744.885 169.13 744.445 168.765 743.92 168.59Z" fill="black"/>
<path fill-rule="evenodd" clip-rule="evenodd" d="M739.9 192.791L688.22 175.661C687.974 175.572 687.712 175.535 687.452 175.552C687.191 175.57 686.936 175.641 686.705 175.763C686.473 175.884 686.27 176.053 686.107 176.257C685.944 176.462 685.826 176.698 685.76 176.951C685.634 177.489 685.714 178.056 685.984 178.538C686.254 179.021 686.695 179.386 687.22 179.561L738.91 196.691C739.155 196.78 739.416 196.817 739.676 196.799C739.936 196.781 740.189 196.71 740.42 196.588C740.651 196.467 740.854 196.298 741.015 196.094C741.177 195.889 741.294 195.653 741.36 195.401C741.488 194.862 741.409 194.295 741.138 193.811C740.868 193.328 740.426 192.964 739.9 192.791Z" fill="black"/>
<path fill-rule="evenodd" clip-rule="evenodd" d="M741.91 180.69L690.22 163.56C689.975 163.471 689.714 163.434 689.454 163.452C689.193 163.469 688.94 163.541 688.709 163.663C688.479 163.784 688.276 163.952 688.114 164.157C687.952 164.361 687.835 164.597 687.77 164.85C687.644 165.386 687.723 165.95 687.991 166.431C688.259 166.912 688.698 167.275 689.22 167.45L740.91 184.58C741.155 184.669 741.416 184.706 741.676 184.688C741.936 184.671 742.19 184.599 742.42 184.477C742.651 184.356 742.854 184.187 743.016 183.983C743.177 183.778 743.295 183.542 743.36 183.29C743.481 182.754 743.4 182.192 743.132 181.713C742.865 181.233 742.429 180.869 741.91 180.69Z" fill="black"/>
<path fill-rule="evenodd" clip-rule="evenodd" d="M722.53 201.56L687.35 189.85C687.102 189.763 686.839 189.728 686.577 189.747C686.315 189.767 686.06 189.841 685.828 189.964C685.595 190.087 685.391 190.257 685.228 190.463C685.065 190.669 684.947 190.906 684.88 191.16C684.756 191.703 684.838 192.272 685.11 192.758C685.381 193.244 685.823 193.611 686.35 193.79L721.52 205.49C721.767 205.58 722.03 205.616 722.292 205.598C722.554 205.58 722.809 205.507 723.042 205.385C723.274 205.263 723.478 205.093 723.642 204.888C723.805 204.682 723.923 204.445 723.99 204.19C724.119 203.649 724.04 203.079 723.77 202.592C723.5 202.106 723.058 201.738 722.53 201.56Z" fill="black"/>
<path fill-rule="evenodd" clip-rule="evenodd" d="M717.15 203.36C717.091 202.388 717.169 201.412 717.38 200.46C717.528 200.215 717.612 199.936 717.625 199.649C717.637 199.363 717.577 199.078 717.45 198.82C717.152 198.316 716.939 197.765 716.82 197.19C717.6 197.57 717.54 197.83 718.41 197.87C718.71 197.87 719.28 199.41 719.46 199.67C720.02 200.622 720.419 201.659 720.64 202.74C720.92 203.55 723.9 205.63 724.84 206.13C723.69 204.69 720.45 200.85 720.51 199.03C720.513 198.967 720.501 198.904 720.477 198.845C720.453 198.786 720.416 198.734 720.37 198.69C719.84 198.36 719.9 196.76 719.37 196.44C717.48 195.3 716.87 195.07 716.16 192.87C715.81 191.78 715.09 191.55 715.03 190.39C715.03 190.2 714.3 189.24 714.5 189.01C714.9 188.53 714.1 188.18 713.73 187.76C712.92 186.84 713.54 185.63 713.33 184.44C712.199 181.39 710.89 178.408 709.41 175.51C709.69 176.68 709.75 178.71 710.03 179.88C710.31 181.05 712.51 187.44 713.03 188.5C712.033 187.382 710.916 186.376 709.7 185.5L706.62 179.5C705.2 176.167 704.41 174.327 704.25 173.98C704.25 174.14 704.61 176.28 705.31 180.39L708.79 186.76L712.02 188.7L712.78 189.96C713.4 190.96 712.92 190.7 712.9 191.91C712.9 193.85 714.26 193.49 714.73 195.32C714.79 195.54 714.85 197.15 715.06 197.32C716.112 198.046 716.852 199.143 717.13 200.39C716.884 200.848 716.758 201.359 716.761 201.878C716.765 202.397 716.898 202.907 717.15 203.36Z" fill="black"/>
<path fill-rule="evenodd" clip-rule="evenodd" d="M756.12 163.82C756.528 163.259 757.037 162.777 757.62 162.4C758.21 162.22 758.42 161.95 758.41 161.58C758.4 161.21 758.2 160.88 758.41 160.58C759.1 161.02 758.92 161.14 759.85 161.43C760.17 161.54 760.13 162.51 760.22 162.7C760.57 163.46 760.22 163.95 760.22 164.7C760.17 165.21 762.52 167.22 763.33 167.78C762.69 166.67 760.82 163.66 761.67 162.78C761.685 162.767 761.696 162.751 761.705 162.733C761.713 162.714 761.717 162.695 761.717 162.675C761.717 162.655 761.713 162.635 761.705 162.617C761.696 162.599 761.685 162.583 761.67 162.57C761.23 162.23 761.98 161.42 761.53 161.08C759.97 159.89 759.39 159.58 759.53 158.22C759.62 157.54 758.93 157.22 759.37 156.58C759.44 156.48 759.07 155.75 759.37 155.7C760.01 155.58 759.3 155.14 759.07 154.8C758.58 154.07 759.78 153.64 760.07 152.96C760.36 152.28 759.85 147.76 759.65 147.11C759.45 147.81 758.65 148.87 758.45 149.57C758.137 151.352 758 153.161 758.04 154.97C757.38 154.008 756.601 153.134 755.72 152.37L754.93 148.32C754.82 146.13 754.75 144.93 754.72 144.71C754.65 144.8 754.12 146.01 753.12 148.36L754.12 152.75L756.8 154.75L757.09 155.64C757.35 156.34 756.92 156.07 756.38 156.64C755.51 157.64 757.19 157.89 756.91 158.99C756.91 159.12 756.25 159.99 756.43 160.1C756.793 160.335 757.077 160.676 757.243 161.075C757.409 161.475 757.449 161.916 757.36 162.34C756.55 162.65 755.93 163.08 756.12 163.82Z" fill="black"/>
<path fill-rule="evenodd" clip-rule="evenodd" d="M669 137.17C670.321 137.472 671.586 137.978 672.75 138.67C673.61 139.29 675 139.67 675.2 140.58C675.4 141.49 674.54 142.46 674.14 143.41C673.65 144.6 673.14 145.8 672.62 146.97C672.36 147.53 672.42 147.8 673.03 148.02C673.64 148.24 674.14 148.59 674.71 148.85C675.546 149.24 676.243 149.875 676.71 150.67C678.57 153.55 681.06 155.94 683.32 158.5C687.48 163.22 694.85 170.37 698.48 175.5C700.29 178.01 702.25 180.41 703.87 183.03C705.96 186.42 703.21 196.64 703.11 196.96C702.9 197.61 690.41 197.76 688.73 197.55C686.73 197.3 659.05 169.55 656.66 167.97C655.57 167.24 654.59 166.36 653.58 165.57C654.01 164.4 654.07 164.36 653.09 164.57C652.247 164.728 651.421 164.962 650.62 165.27C649.619 165.674 648.516 165.754 647.467 165.499C646.418 165.245 645.475 164.668 644.77 163.85C643.77 162.85 641.46 159.74 640.66 160.07C640.675 157.347 641.436 154.68 642.86 152.36C644.38 149.58 645.49 146.44 647.21 143.79C647.69 143.05 649.37 140.22 651.33 139.42C653.29 138.62 664.9 137.16 669 137.17Z" fill="black"/>
<path fill-rule="evenodd" clip-rule="evenodd" d="M668 139.51C667.11 142.959 665.584 146.211 663.5 149.1C661.159 151.84 658.133 153.91 654.73 155.1C651.65 156.33 648.35 156.65 645.08 157.1C645.24 155.61 646.14 154.43 646.7 153.1C647.8 150.51 649.01 147.95 650.33 145.47C650.801 144.478 651.5 143.61 652.368 142.938C653.237 142.266 654.251 141.807 655.33 141.6C659.45 140.73 663.67 140 668 139.51Z" fill="#D3D8E0"/>
<path fill-rule="evenodd" clip-rule="evenodd" d="M644 160.43C649.369 159.882 654.569 158.241 659.28 155.61C659.441 155.478 659.631 155.384 659.834 155.337C660.037 155.29 660.248 155.29 660.451 155.337C660.654 155.385 660.843 155.478 661.004 155.61C661.165 155.742 661.294 155.91 661.38 156.1C662.73 157.92 662.76 157.84 660.55 158.9C656.48 160.9 652.05 161.64 647.84 163.14C647.37 163.3 647.11 163.06 646.84 162.81C645.98 162.06 645.1 161.33 644.03 160.43" fill="#D3D8E0"/>
<path fill-rule="evenodd" clip-rule="evenodd" d="M669.27 140.19C669.99 141.08 670.65 141.91 671.34 142.71C671.444 142.812 671.512 142.946 671.532 143.091C671.552 143.236 671.523 143.383 671.45 143.51C670.06 146.38 669.24 149.57 667.45 152.21C667.2 152.57 666.93 152.92 666.65 153.21C665.29 154.81 664.7 154.8 663.13 153.3C662.86 153.04 662.9 152.87 663.06 152.68C665.97 149.04 667.22 144.4 669.28 140.14" fill="#D3D8E0"/>
<path fill-rule="evenodd" clip-rule="evenodd" d="M672.71 152.57C674.55 156.19 677.35 158.88 679.85 161.8C681.85 164.1 683.85 166.37 685.85 168.66C689.3 172.66 692.78 176.56 696.18 180.56C697.043 181.675 697.837 182.84 698.56 184.05C698.652 184.197 698.697 184.368 698.69 184.54C698.681 186.677 698.538 188.811 698.26 190.93C698.2 191.26 698.26 191.79 697.91 191.85C697.56 191.91 697.2 191.61 696.91 191.29C695.55 189.77 694.16 188.29 692.77 186.79C684.85 178.33 675.88 171.08 667.09 163.62C666.832 163.372 666.554 163.144 666.26 162.94C665.54 162.51 665.45 162.11 666.01 161.4C668.23 158.54 670.39 155.63 672.7 152.57" fill="white"/>
<path fill-rule="evenodd" clip-rule="evenodd" d="M698.05 192C694.21 191.65 691.78 192 688.14 191.65C685.786 189.823 683.53 187.873 681.38 185.81C676.99 179.7 671.03 175.28 665.18 170.74C662.65 168.74 660.18 166.74 657.54 164.64C659.92 163.9 662.22 163.33 664.42 162.48C665.99 161.87 666.95 162.35 668.1 163.4C674.17 169 680.56 174.23 686.33 180.15L693.33 187.34L698.05 192Z" fill="#D3D8E0"/>
<path fill-rule="evenodd" clip-rule="evenodd" d="M583 120.73C579.19 119.03 575 118.37 571 117.43C570.16 117.352 569.316 117.541 568.59 117.97C567.93 118.24 567.2 118.97 566.59 118.22C565.98 117.47 564.86 116.66 565.29 115.37C565.363 115.214 565.4 115.043 565.4 114.87C565.4 114.698 565.363 114.527 565.29 114.37C562.38 107.66 563.55 100.91 565.29 94.2504C567.542 85.8652 570.693 77.748 574.69 70.0404C576.912 65.9425 580.261 62.5662 584.34 60.3104C586.18 59.2004 587.56 57.3804 589.7 56.6504C589.83 56.6504 589.96 56.4204 590.05 56.4404C591.63 56.8104 592.78 55.9304 594.05 55.2804C595.73 54.4404 596.85 55.2804 598 56.7304C601.858 61.7503 606.898 65.7386 612.67 68.3404C612.958 68.4222 613.261 68.44 613.557 68.3927C613.853 68.3454 614.135 68.2341 614.384 68.0665C614.632 67.8989 614.841 67.6791 614.996 67.4224C615.151 67.1658 615.248 66.8784 615.28 66.5804C615.52 64.2404 615.69 61.8804 615.91 59.3404C617.26 60.2404 618.34 59.7504 619.54 58.9804C620.42 58.3441 621.442 57.9322 622.517 57.7806C623.592 57.629 624.689 57.7422 625.71 58.1104C628.91 59.2804 632.17 60.2504 634.85 62.4904C636.15 63.5704 636.4 67.6904 635.15 68.7604C631.92 71.5304 631.78 71.7604 629.73 75.8504C629.18 76.9404 629.41 77.3104 630.46 77.8504C638.88 82.2304 647.89 84.8504 657.11 86.7804C657.58 86.8273 658.023 87.0175 658.381 87.3252C658.739 87.6329 658.993 88.0432 659.11 88.5004C659.69 90.1404 659.82 92.6704 659.42 96.7904C659.044 101.24 658.336 105.656 657.3 110C655.39 115 653.3 119.92 649.92 124.16C644.92 130.38 635.31 139.94 628.27 144.06C627.27 144.63 624.27 143.38 620.17 141.21C620.226 141.468 620.266 141.728 620.29 141.99C619.828 141.422 619.312 140.9 618.75 140.43C617.93 139.96 617.07 139.43 616.19 138.95C613.38 137.95 610.64 138.26 607.75 134.7C606.83 139.41 602.85 141.92 601.96 146.29C601.59 148.1 602.26 149.5 601.89 151.29C601.14 154.95 599.3 159.01 598.21 162.59C597.998 163.754 597.464 164.834 596.67 165.71C595.89 166.43 596.76 167.41 596.41 168.34C594.58 173.26 592.89 178.23 591.16 183.18C589.83 186.99 588.49 190.79 585.96 194.05C585.32 194.87 585.17 193.63 584.27 194.24C581.99 195.79 574.27 201.1 573.98 195.92C568.6 196.73 565.78 195.82 560.32 195.79C558.04 195.79 557.54 195.33 555.86 193.64C554.54 192.31 554.18 191.58 552.54 191.53C552.54 190.14 553.3 189.06 553.76 187.89C558.55 175.66 566.14 165.11 573.76 154.59C575.63 152.04 582.76 128.94 586.64 121.16C585.41 121.361 584.149 121.212 583 120.73Z" fill="black"/>
<path fill-rule="evenodd" clip-rule="evenodd" d="M581.19 190.001C577.925 190.177 574.678 190.608 571.48 191.291C567.84 192.011 565 190.121 561.77 188.591C564.92 186.021 577.24 186.921 581.19 190.001Z" fill="white"/>
<path fill-rule="evenodd" clip-rule="evenodd" d="M592.18 128.73V128.78C592.95 128.97 592.64 128.46 592.61 128.13C593.649 126.209 594.39 124.143 594.81 122C597.045 122.165 599.249 122.616 601.37 123.34C602.13 123.514 602.804 123.952 603.271 124.577C603.738 125.201 603.968 125.972 603.92 126.75C603.71 132.84 603 138.85 598.86 143.75C591.86 152.05 587.38 161.86 581.66 170.92C580.5 172.76 578.87 180.11 575.31 182.92C572.04 185.5 566.81 183.61 566.06 183.68C564.41 183.84 562.76 184.11 560.81 184.36C563.29 180.73 565.62 177.29 567.99 173.87C572.419 167.452 576.382 160.724 579.85 153.74C580.34 152.74 581.6 152.33 581.59 151.08L581.92 150.63L581.86 150.69C582.149 150.507 582.378 150.245 582.52 149.934C582.662 149.623 582.711 149.278 582.66 148.94C583.28 148.94 583.43 148.49 583.46 147.94L583.41 148.02C584.12 147.13 584.78 146.21 585.41 145.28C586.15 144.16 586.83 143.01 587.41 141.84C588.942 138.911 590.175 135.836 591.09 132.66C591.55 131.41 593 130.37 592.18 128.73Z" fill="#D3D8E0"/>
<path fill-rule="evenodd" clip-rule="evenodd" d="M650.37 103.14C652.93 104.43 652.98 104.44 651.8 106.93C648.8 113.35 648.73 117.85 643.91 123.15C642.99 124.15 642.48 124.53 641.24 123.27C633.62 115.51 624.53 109.76 615.05 104.53C607.69 100.47 600.37 96.3302 593.05 92.2802C592.796 92.1994 592.564 92.0627 592.37 91.8801C592.176 91.6974 592.025 91.4736 591.929 91.225C591.833 90.9764 591.794 90.7094 591.815 90.4438C591.836 90.1782 591.916 89.9206 592.05 89.6902C594.055 83.2902 595.337 76.6856 595.87 70.0002C596.03 68.4402 595.94 66.8602 596.12 65.2602C596.34 63.2602 597 63.9402 598 64.5302C601.1 66.3802 604.32 68.0702 607.34 70.0502C618.91 77.6702 627.79 82.0502 640.95 86.0502C644.88 87.2202 649.17 91.3302 653.24 89.9802C654.7 89.5002 655.8 90.1402 655.84 91.8802C655.93 95.7302 655.07 97.8802 653.97 101.52C653.57 102.84 652.86 101.92 652.38 101.71C646.05 99.0202 639.73 96.2902 633.38 93.5802C632.74 93.3102 632.08 93.1202 631.38 92.8902C630.73 92.4302 630.09 91.8902 629.03 92.5102L630.96 93.3402L650.37 103.14Z" fill="#D3D8E0"/>
<path fill-rule="evenodd" clip-rule="evenodd" d="M638.91 123.42C638.91 124.93 639.21 126.42 639.23 127.99C639.23 129.9 638.55 129.36 637.54 128.91C634.37 127.49 631.11 126.25 628.02 124.69C616.12 118.69 607.18 115.51 594.21 113.25C590.35 112.58 585.79 109.13 582.08 110.9C580.75 111.53 579.64 111.04 579.39 109.38C578.85 105.7 585.7 98.22 592.02 100.08C592.65 100.27 591.85 94.51 592.49 94.65C593.17 95.02 603.76 106.42 604.7 105.65L602.77 105.08C596.26 102.73 638.77 116.94 638.91 123.42Z" fill="#D3D8E0"/>
<path fill-rule="evenodd" clip-rule="evenodd" d="M595.21 70.0002C595.37 68.4202 595.28 66.8102 595.45 65.1902C595.68 63.1902 596.34 63.8402 597.33 64.4402C600.44 66.3302 603.65 68.0502 606.67 70.0702C618.25 77.8202 627.12 82.3302 640.28 86.3502C644.2 87.5502 648.49 91.7302 652.56 90.3502C654.02 89.8602 655.11 90.5102 655.16 92.2702C655.25 96.1902 594.52 76.7602 595.21 70.0002Z" fill="white"/>
<path fill-rule="evenodd" clip-rule="evenodd" d="M625.34 65.6309C625.403 65.6018 625.463 65.5684 625.52 65.5309C628.94 61.8909 629.38 61.8909 633.36 65.7009C631.53 65.7709 631.23 67.1609 630.68 68.3409C630.21 69.3409 629.73 70.4009 629.25 71.4309C627.67 74.7709 627.67 74.7709 624.25 73.3309C617.25 70.3309 617.09 70.0609 618.54 62.6309C618.66 61.9809 618.83 61.6309 619.54 61.5009C620.307 61.324 621.086 61.2004 621.87 61.1309C626.01 61.1309 626.41 61.7209 624.87 65.3309C624.74 65.5709 624.58 65.8309 624.92 66.0009C624.92 66.0009 625.17 65.7609 625.3 65.6309" fill="#D3D8E0"/>
<path fill-rule="evenodd" clip-rule="evenodd" d="M569.29 109.451C571.806 102.122 573.782 94.6184 575.2 87.0006C576.95 78.4006 583.26 73.7406 589.2 67.8906C591.59 76.8906 578.98 103.281 569.32 109.431" fill="white"/>
<path fill-rule="evenodd" clip-rule="evenodd" d="M599.83 145.32C599.83 145.1 599.94 144.88 599.99 144.66C599.99 144.66 600.09 144.73 600.1 144.78C600.1 145.05 600.1 145.29 599.91 145.41L599.83 145.32Z" fill="#B1B2B7"/>
</g>
<defs>
<clipPath id="clip0">
<rect width="882" height="300" fill="white"/>
</clipPath>
</defs>
</svg>
