<svg width="882" height="300" viewBox="0 0 882 300" fill="none" xmlns="http://www.w3.org/2000/svg">
<rect width="882" height="300" fill="white"/>
<rect width="882" height="210" fill="#E9ECF0"/>
<path d="M60.9609 72.4297V68.3516H85.0078V72.4297H75.2578V101H70.7109V72.4297H60.9609ZM88.6641 88.7656C88.6641 86.9062 88.8906 85.1875 89.3438 83.6094C89.8125 82.0156 90.5 80.6641 91.4062 79.5547C92.3281 78.4297 93.4375 77.5469 94.7344 76.9062C96.0312 76.2656 97.5234 75.9453 99.2109 75.9453C100.977 75.9453 102.516 76.25 103.828 76.8594C105.141 77.4688 106.227 78.3047 107.086 79.3672C107.945 80.4141 108.594 81.6484 109.031 83.0703C109.469 84.4922 109.688 86.0234 109.688 87.6641V89.9609H93.2109V92.5625C93.2109 93.4531 93.375 94.2422 93.7031 94.9297C94.0469 95.6172 94.5078 96.2031 95.0859 96.6875C95.6641 97.1562 96.3125 97.5156 97.0312 97.7656C97.75 98 98.4922 98.1172 99.2578 98.1172C100.789 98.1172 102.117 97.7266 103.242 96.9453C104.367 96.1641 105.008 94.9219 105.164 93.2188H109.5C109.406 94.5312 109.062 95.7031 108.469 96.7344C107.875 97.75 107.102 98.6172 106.148 99.3359C105.211 100.055 104.148 100.609 102.961 101C101.773 101.391 100.523 101.586 99.2109 101.586C97.4453 101.586 95.8984 101.266 94.5703 100.625C93.2578 99.9844 92.1562 99.1016 91.2656 97.9766C90.3906 96.8516 89.7344 95.5078 89.2969 93.9453C88.875 92.3828 88.6641 90.6562 88.6641 88.7656ZM93.2109 86.5156H105.211V85.1562C105.211 84.2656 105.047 83.4609 104.719 82.7422C104.406 82.0234 103.969 81.4141 103.406 80.9141C102.859 80.4141 102.219 80.0391 101.484 79.7891C100.766 79.5234 100.008 79.3906 99.2109 79.3906C98.4141 79.3906 97.6562 79.5234 96.9375 79.7891C96.2188 80.0391 95.5781 80.4141 95.0156 80.9141C94.4531 81.4141 94.0078 82.0234 93.6797 82.7422C93.3672 83.4609 93.2109 84.2656 93.2109 85.1562V86.5156ZM114.656 93.2656H118.992C119.055 94.8906 119.633 96.1094 120.727 96.9219C121.836 97.7188 123.141 98.1172 124.641 98.1172C126.078 98.1172 127.328 97.7969 128.391 97.1562C129.453 96.5156 129.984 95.5859 129.984 94.3672C129.984 93.3828 129.664 92.5938 129.023 92C128.383 91.4062 127.242 90.9531 125.602 90.6406L121.57 89.8203C119.555 89.3984 118 88.625 116.906 87.5C115.828 86.3594 115.289 84.8281 115.289 82.9062C115.289 81.9531 115.5 81.0547 115.922 80.2109C116.359 79.3516 116.977 78.6094 117.773 77.9844C118.586 77.3594 119.531 76.8672 120.609 76.5078C121.703 76.1328 122.922 75.9453 124.266 75.9453C125.422 75.9453 126.547 76.1016 127.641 76.4141C128.75 76.7109 129.734 77.1797 130.594 77.8203C131.469 78.4609 132.164 79.2812 132.68 80.2812C133.211 81.2656 133.492 82.4453 133.523 83.8203H129.211C129.148 82.1953 128.641 81.0547 127.688 80.3984C126.75 79.7266 125.625 79.3906 124.312 79.3906C122.969 79.3906 121.828 79.7109 120.891 80.3516C119.969 80.9922 119.508 81.8281 119.508 82.8594C119.508 83.8125 119.781 84.5547 120.328 85.0859C120.875 85.6172 121.758 86.0078 122.977 86.2578L127.102 87.125C129.539 87.6406 131.344 88.4766 132.516 89.6328C133.703 90.7734 134.297 92.3359 134.297 94.3203C134.297 95.3516 134.062 96.3125 133.594 97.2031C133.141 98.0781 132.477 98.8359 131.602 99.4766C130.742 100.102 129.719 100.609 128.531 101C127.344 101.391 126.031 101.586 124.594 101.586C123.219 101.586 121.93 101.406 120.727 101.047C119.539 100.703 118.492 100.188 117.586 99.5C116.695 98.7969 115.992 97.9297 115.477 96.8984C114.961 95.8516 114.688 94.6406 114.656 93.2656ZM138.328 80.2109V76.5312H142.453V68.3516H146.719V76.5312H152.344V80.2109H146.719V97.2969H152.344V101H142.453V80.2109H138.328ZM158.344 101V76.5312H162.656V80.5625C163.328 79.125 164.25 78 165.422 77.1875C166.594 76.3594 168.109 75.9453 169.969 75.9453C171.156 75.9453 172.234 76.1094 173.203 76.4375C174.172 76.75 175.008 77.2578 175.711 77.9609C176.414 78.6641 176.961 79.5703 177.352 80.6797C177.742 81.7734 177.938 83.1094 177.938 84.6875V101H173.602V85.1562C173.602 83.3594 173.258 81.9531 172.57 80.9375C171.883 79.9062 170.609 79.3906 168.75 79.3906C167.859 79.3906 167.047 79.5703 166.312 79.9297C165.578 80.2734 164.938 80.7734 164.391 81.4297C163.844 82.0859 163.414 82.8672 163.102 83.7734C162.805 84.6641 162.656 85.6406 162.656 86.7031V101H158.344ZM184.43 88.7656C184.43 86.9062 184.656 85.1875 185.109 83.6094C185.578 82.0156 186.266 80.6641 187.172 79.5547C188.094 78.4297 189.203 77.5469 190.5 76.9062C191.797 76.2656 193.289 75.9453 194.977 75.9453C196.742 75.9453 198.281 76.25 199.594 76.8594C200.906 77.4688 201.992 78.3047 202.852 79.3672C203.711 80.4141 204.359 81.6484 204.797 83.0703C205.234 84.4922 205.453 86.0234 205.453 87.6641V89.9609H188.977V92.5625C188.977 93.4531 189.141 94.2422 189.469 94.9297C189.812 95.6172 190.273 96.2031 190.852 96.6875C191.43 97.1562 192.078 97.5156 192.797 97.7656C193.516 98 194.258 98.1172 195.023 98.1172C196.555 98.1172 197.883 97.7266 199.008 96.9453C200.133 96.1641 200.773 94.9219 200.93 93.2188H205.266C205.172 94.5312 204.828 95.7031 204.234 96.7344C203.641 97.75 202.867 98.6172 201.914 99.3359C200.977 100.055 199.914 100.609 198.727 101C197.539 101.391 196.289 101.586 194.977 101.586C193.211 101.586 191.664 101.266 190.336 100.625C189.023 99.9844 187.922 99.1016 187.031 97.9766C186.156 96.8516 185.5 95.5078 185.062 93.9453C184.641 92.3828 184.43 90.6562 184.43 88.7656ZM188.977 86.5156H200.977V85.1562C200.977 84.2656 200.812 83.4609 200.484 82.7422C200.172 82.0234 199.734 81.4141 199.172 80.9141C198.625 80.4141 197.984 80.0391 197.25 79.7891C196.531 79.5234 195.773 79.3906 194.977 79.3906C194.18 79.3906 193.422 79.5234 192.703 79.7891C191.984 80.0391 191.344 80.4141 190.781 80.9141C190.219 81.4141 189.773 82.0234 189.445 82.7422C189.133 83.4609 188.977 84.2656 188.977 85.1562V86.5156ZM209.672 80.2109V76.5312H213.797V68.3516H218.062V76.5312H223.688V80.2109H218.062V97.2969H223.688V101H213.797V80.2109H209.672ZM242.297 101V68.3516H254.648C256.602 68.3516 258.188 68.5391 259.406 68.9141C260.641 69.2734 261.695 69.9062 262.57 70.8125C263.398 71.6719 263.984 72.75 264.328 74.0469C264.688 75.3438 264.867 76.7578 264.867 78.2891C264.867 79.7891 264.648 81.2109 264.211 82.5547C263.789 83.8828 263.109 85.0078 262.172 85.9297C260.375 87.6953 257.883 88.5781 254.695 88.5781H246.867V101H242.297ZM246.867 84.4766H256.43C257.523 84.4766 258.398 84.125 259.055 83.4219C259.727 82.7188 260.062 81.8281 260.062 80.75V75.9922C260.062 74.8984 259.742 74.0312 259.102 73.3906C258.461 72.75 257.57 72.4297 256.43 72.4297H246.867V84.4766ZM270.891 101V68.3516H275.203V101H270.891ZM281.719 94.2734C281.719 92.3516 282.328 90.7031 283.547 89.3281C284.766 87.9531 286.594 87.1562 289.031 86.9375L297 86.2109V84.2422C297 83.2891 296.875 82.5 296.625 81.875C296.391 81.25 296.047 80.7578 295.594 80.3984C295.156 80.0234 294.625 79.7656 294 79.625C293.375 79.4688 292.68 79.3906 291.914 79.3906C290.383 79.3906 289.156 79.7344 288.234 80.4219C287.328 81.1094 286.875 82.2422 286.875 83.8203H282.539C282.539 82.6641 282.789 81.6094 283.289 80.6562C283.789 79.6875 284.461 78.8516 285.305 78.1484C286.148 77.4453 287.141 76.9062 288.281 76.5312C289.422 76.1406 290.648 75.9453 291.961 75.9453C293.273 75.9453 294.492 76.1172 295.617 76.4609C296.758 76.7891 297.742 77.2891 298.57 77.9609C299.414 78.6328 300.062 79.5 300.516 80.5625C300.984 81.6094 301.219 82.8516 301.219 84.2891V97.2969H304.875V101H297.562L297.469 96.4766H297.281C296.609 98.2109 295.617 99.5 294.305 100.344C292.992 101.172 291.422 101.586 289.594 101.586C288.375 101.586 287.273 101.398 286.289 101.023C285.305 100.648 284.453 100.094 283.734 99.3594C283.094 98.7188 282.594 97.9531 282.234 97.0625C281.891 96.1719 281.719 95.2422 281.719 94.2734ZM286.289 94.8594C286.289 95.9844 286.68 96.8125 287.461 97.3438C288.242 97.8594 289.32 98.1172 290.695 98.1172C292.648 98.1172 294.188 97.4219 295.312 96.0312C296.438 94.6406 297 92.8438 297 90.6406V89.5391L288.305 90.3359C287.414 90.3984 286.852 90.6328 286.617 91.0391C286.398 91.4453 286.289 92 286.289 92.7031V94.8594ZM309.703 101V76.5312H314.016V80.5625C314.688 79.125 315.609 78 316.781 77.1875C317.953 76.3594 319.469 75.9453 321.328 75.9453C322.516 75.9453 323.594 76.1094 324.562 76.4375C325.531 76.75 326.367 77.2578 327.07 77.9609C327.773 78.6641 328.32 79.5703 328.711 80.6797C329.102 81.7734 329.297 83.1094 329.297 84.6875V101H324.961V85.1562C324.961 83.3594 324.617 81.9531 323.93 80.9375C323.242 79.9062 321.969 79.3906 320.109 79.3906C319.219 79.3906 318.406 79.5703 317.672 79.9297C316.938 80.2734 316.297 80.7734 315.75 81.4297C315.203 82.0859 314.773 82.8672 314.461 83.7734C314.164 84.6641 314.016 85.6406 314.016 86.7031V101H309.703ZM337.078 101V76.5312H341.391V80.5625C342.062 79.125 342.984 78 344.156 77.1875C345.328 76.3594 346.844 75.9453 348.703 75.9453C349.891 75.9453 350.969 76.1094 351.938 76.4375C352.906 76.75 353.742 77.2578 354.445 77.9609C355.148 78.6641 355.695 79.5703 356.086 80.6797C356.477 81.7734 356.672 83.1094 356.672 84.6875V101H352.336V85.1562C352.336 83.3594 351.992 81.9531 351.305 80.9375C350.617 79.9062 349.344 79.3906 347.484 79.3906C346.594 79.3906 345.781 79.5703 345.047 79.9297C344.312 80.2734 343.672 80.7734 343.125 81.4297C342.578 82.0859 342.148 82.8672 341.836 83.7734C341.539 84.6641 341.391 85.6406 341.391 86.7031V101H337.078ZM364.359 72.875V68.3516H368.859V72.875H364.359ZM364.453 101V76.5312H368.766V101H364.453ZM376.734 101V76.5312H381.047V80.5625C381.719 79.125 382.641 78 383.812 77.1875C384.984 76.3594 386.5 75.9453 388.359 75.9453C389.547 75.9453 390.625 76.1094 391.594 76.4375C392.562 76.75 393.398 77.2578 394.102 77.9609C394.805 78.6641 395.352 79.5703 395.742 80.6797C396.133 81.7734 396.328 83.1094 396.328 84.6875V101H391.992V85.1562C391.992 83.3594 391.648 81.9531 390.961 80.9375C390.273 79.9062 389 79.3906 387.141 79.3906C386.25 79.3906 385.438 79.5703 384.703 79.9297C383.969 80.2734 383.328 80.7734 382.781 81.4297C382.234 82.0859 381.805 82.8672 381.492 83.7734C381.195 84.6641 381.047 85.6406 381.047 86.7031V101H376.734ZM402.867 88.7656C402.867 87 403.062 85.3359 403.453 83.7734C403.859 82.1953 404.461 80.8359 405.258 79.6953C406.055 78.5391 407.062 77.625 408.281 76.9531C409.5 76.2812 410.922 75.9453 412.547 75.9453C414.375 75.9453 415.945 76.3359 417.258 77.1172C418.57 77.8984 419.609 79.0312 420.375 80.5156V76.5312H424.711V100.531C424.711 102.234 424.406 103.695 423.797 104.914C423.188 106.148 422.383 107.172 421.383 107.984C420.398 108.797 419.273 109.391 418.008 109.766C416.742 110.156 415.453 110.352 414.141 110.352C412.859 110.352 411.633 110.227 410.461 109.977C409.305 109.727 408.25 109.305 407.297 108.711C406.359 108.117 405.578 107.328 404.953 106.344C404.328 105.375 403.922 104.156 403.734 102.688H408.047C408.203 104.094 408.797 105.148 409.828 105.852C410.875 106.555 412.25 106.906 413.953 106.906C414.781 106.906 415.586 106.781 416.367 106.531C417.148 106.297 417.836 105.914 418.43 105.383C419.023 104.867 419.492 104.188 419.836 103.344C420.195 102.516 420.375 101.508 420.375 100.32V97.0156C419.609 98.4844 418.586 99.6172 417.305 100.414C416.023 101.195 414.477 101.586 412.664 101.586C411.008 101.586 409.562 101.25 408.328 100.578C407.109 99.9062 406.094 98.9922 405.281 97.8359C404.469 96.6797 403.859 95.3281 403.453 93.7812C403.062 92.2188 402.867 90.5469 402.867 88.7656ZM407.414 92.5625C407.414 93.3906 407.57 94.1484 407.883 94.8359C408.211 95.5234 408.656 96.1094 409.219 96.5938C409.781 97.0625 410.438 97.4375 411.188 97.7188C411.938 97.9844 412.766 98.1172 413.672 98.1172C415.844 98.1172 417.5 97.4297 418.641 96.0547C419.797 94.6797 420.375 92.9375 420.375 90.8281V86.7031C420.375 84.5938 419.797 82.8516 418.641 81.4766C417.5 80.0859 415.844 79.3906 413.672 79.3906C412.781 79.3906 411.953 79.5312 411.188 79.8125C410.438 80.0781 409.781 80.4531 409.219 80.9375C408.656 81.4219 408.211 82.0078 407.883 82.6953C407.57 83.3828 407.414 84.1406 407.414 84.9688V92.5625Z" fill="black"/>
<path d="M61.4091 145H62.8182V139.795H67.8636V138.545H62.8182V134.614H68.3864V133.364H61.4091V145ZM70.6179 145H71.9588V136.273H70.6179V145ZM71.2997 134.818C71.8224 134.818 72.2543 134.409 72.2543 133.909C72.2543 133.409 71.8224 133 71.2997 133C70.777 133 70.3452 133.409 70.3452 133.909C70.3452 134.409 70.777 134.818 71.2997 134.818ZM75.7557 139.75C75.7557 138.227 76.6989 137.364 77.983 137.364C79.2273 137.364 79.983 138.176 79.983 139.545V145H81.3239V139.455C81.3239 137.227 80.1364 136.159 78.3693 136.159C77.0511 136.159 76.233 136.75 75.8239 137.636H75.7102V136.273H74.4148V145H75.7557V139.75ZM87.0696 145.182C88.7514 145.182 89.3196 144.136 89.6151 143.659H89.7741V145H91.0696V133.364H89.7287V137.659H89.6151C89.3196 137.205 88.7969 136.159 87.0923 136.159C84.8878 136.159 83.3651 137.909 83.3651 140.659C83.3651 143.432 84.8878 145.182 87.0696 145.182ZM87.2514 143.977C85.5696 143.977 84.706 142.5 84.706 140.636C84.706 138.795 85.5469 137.364 87.2514 137.364C88.8878 137.364 89.7514 138.682 89.7514 140.636C89.7514 142.614 88.8651 143.977 87.2514 143.977ZM101.757 145.182C104.121 145.182 105.712 143.386 105.712 140.682C105.712 137.955 104.121 136.159 101.757 136.159C99.3935 136.159 97.8026 137.955 97.8026 140.682C97.8026 143.386 99.3935 145.182 101.757 145.182ZM101.757 143.977C99.9616 143.977 99.1435 142.432 99.1435 140.682C99.1435 138.932 99.9616 137.364 101.757 137.364C103.553 137.364 104.371 138.932 104.371 140.682C104.371 142.432 103.553 143.977 101.757 143.977ZM113.259 141.432C113.259 143.068 112.009 143.818 111.009 143.818C109.895 143.818 109.099 143 109.099 141.727V136.273H107.759V141.818C107.759 144.045 108.94 145.114 110.577 145.114C111.895 145.114 112.759 144.409 113.168 143.523H113.259V145H114.599V136.273H113.259V141.432ZM120.851 136.273H118.987V134.182H117.646V136.273H116.328V137.409H117.646V142.864C117.646 144.386 118.874 145.114 120.01 145.114C120.51 145.114 120.828 145.023 121.01 144.955L120.737 143.75C120.624 143.773 120.442 143.818 120.146 143.818C119.555 143.818 118.987 143.636 118.987 142.5V137.409H120.851V136.273ZM127.368 145H128.709V139.545C128.709 138.267 129.641 137.364 130.686 137.364C131.703 137.364 132.413 138.028 132.413 139.023V145H133.777V139.318C133.777 138.193 134.482 137.364 135.709 137.364C136.663 137.364 137.482 137.869 137.482 139.159V145H138.822V139.159C138.822 137.108 137.72 136.159 136.163 136.159C134.913 136.159 133.999 136.733 133.55 137.636H133.459C133.027 136.705 132.266 136.159 131.118 136.159C129.982 136.159 129.141 136.705 128.777 137.636H128.663V136.273H127.368V145ZM144.82 145.182C147.183 145.182 148.774 143.386 148.774 140.682C148.774 137.955 147.183 136.159 144.82 136.159C142.456 136.159 140.865 137.955 140.865 140.682C140.865 143.386 142.456 145.182 144.82 145.182ZM144.82 143.977C143.024 143.977 142.206 142.432 142.206 140.682C142.206 138.932 143.024 137.364 144.82 137.364C146.615 137.364 147.433 138.932 147.433 140.682C147.433 142.432 146.615 143.977 144.82 143.977ZM150.821 145H152.162V139.477C152.162 138.295 153.094 137.432 154.366 137.432C154.724 137.432 155.094 137.5 155.185 137.523V136.159C155.031 136.148 154.679 136.136 154.48 136.136C153.435 136.136 152.526 136.727 152.207 137.591H152.116V136.273H150.821V145ZM160.168 145.182C161.94 145.182 163.236 144.295 163.645 142.977L162.349 142.614C162.009 143.523 161.219 143.977 160.168 143.977C158.594 143.977 157.509 142.96 157.446 141.091H163.781V140.523C163.781 137.273 161.849 136.159 160.031 136.159C157.668 136.159 156.099 138.023 156.099 140.705C156.099 143.386 157.645 145.182 160.168 145.182ZM157.446 139.932C157.537 138.574 158.497 137.364 160.031 137.364C161.486 137.364 162.418 138.455 162.418 139.932H157.446ZM172.889 145.205C174.412 145.205 175.207 144.386 175.48 143.818H175.548V145H176.889V139.25C176.889 136.477 174.776 136.159 173.662 136.159C172.344 136.159 170.844 136.614 170.162 138.205L171.435 138.659C171.73 138.023 172.429 137.341 173.707 137.341C174.94 137.341 175.548 137.994 175.548 139.114V139.159C175.548 139.807 174.889 139.75 173.298 139.955C171.679 140.165 169.912 140.523 169.912 142.523C169.912 144.227 171.23 145.205 172.889 145.205ZM173.094 144C172.026 144 171.253 143.523 171.253 142.591C171.253 141.568 172.185 141.25 173.23 141.114C173.798 141.045 175.321 140.886 175.548 140.614V141.841C175.548 142.932 174.685 144 173.094 144ZM179.518 145H180.814V143.659H180.973C181.268 144.136 181.837 145.182 183.518 145.182C185.7 145.182 187.223 143.432 187.223 140.659C187.223 137.909 185.7 136.159 183.496 136.159C181.791 136.159 181.268 137.205 180.973 137.659H180.859V133.364H179.518V145ZM180.837 140.636C180.837 138.682 181.7 137.364 183.337 137.364C185.041 137.364 185.882 138.795 185.882 140.636C185.882 142.5 185.018 143.977 183.337 143.977C181.723 143.977 180.837 142.614 180.837 140.636ZM192.82 145.182C195.183 145.182 196.774 143.386 196.774 140.682C196.774 137.955 195.183 136.159 192.82 136.159C190.456 136.159 188.865 137.955 188.865 140.682C188.865 143.386 190.456 145.182 192.82 145.182ZM192.82 143.977C191.024 143.977 190.206 142.432 190.206 140.682C190.206 138.932 191.024 137.364 192.82 137.364C194.615 137.364 195.433 138.932 195.433 140.682C195.433 142.432 194.615 143.977 192.82 143.977ZM204.321 141.432C204.321 143.068 203.071 143.818 202.071 143.818C200.957 143.818 200.162 143 200.162 141.727V136.273H198.821V141.818C198.821 144.045 200.003 145.114 201.639 145.114C202.957 145.114 203.821 144.409 204.23 143.523H204.321V145H205.662V136.273H204.321V141.432ZM211.913 136.273H210.05V134.182H208.709V136.273H207.391V137.409H208.709V142.864C208.709 144.386 209.936 145.114 211.072 145.114C211.572 145.114 211.891 145.023 212.072 144.955L211.8 143.75C211.686 143.773 211.504 143.818 211.209 143.818C210.618 143.818 210.05 143.636 210.05 142.5V137.409H211.913V136.273ZM223.93 141.432C223.93 143.068 222.68 143.818 221.68 143.818C220.567 143.818 219.771 143 219.771 141.727V136.273H218.43V141.818C218.43 144.045 219.612 145.114 221.249 145.114C222.567 145.114 223.43 144.409 223.839 143.523H223.93V145H225.271V136.273H223.93V141.432ZM227.727 148.273H229.068V143.659H229.182C229.477 144.136 230.045 145.182 231.727 145.182C233.909 145.182 235.432 143.432 235.432 140.659C235.432 137.909 233.909 136.159 231.705 136.159C230 136.159 229.477 137.205 229.182 137.659H229.023V136.273H227.727V148.273ZM229.045 140.636C229.045 138.682 229.909 137.364 231.545 137.364C233.25 137.364 234.091 138.795 234.091 140.636C234.091 142.5 233.227 143.977 231.545 143.977C229.932 143.977 229.045 142.614 229.045 140.636ZM241.023 145.182C242.955 145.182 244.227 144 244.455 142.455H243.114C242.864 143.409 242.068 143.977 241.023 143.977C239.432 143.977 238.409 142.659 238.409 140.636C238.409 138.659 239.455 137.364 241.023 137.364C242.205 137.364 242.909 138.091 243.114 138.886H244.455C244.227 137.25 242.841 136.159 241 136.159C238.636 136.159 237.068 138.023 237.068 140.682C237.068 143.295 238.568 145.182 241.023 145.182ZM249.96 145.182C252.324 145.182 253.915 143.386 253.915 140.682C253.915 137.955 252.324 136.159 249.96 136.159C247.597 136.159 246.006 137.955 246.006 140.682C246.006 143.386 247.597 145.182 249.96 145.182ZM249.96 143.977C248.165 143.977 247.347 142.432 247.347 140.682C247.347 138.932 248.165 137.364 249.96 137.364C251.756 137.364 252.574 138.932 252.574 140.682C252.574 142.432 251.756 143.977 249.96 143.977ZM255.962 145H257.303V139.545C257.303 138.267 258.234 137.364 259.28 137.364C260.297 137.364 261.007 138.028 261.007 139.023V145H262.371V139.318C262.371 138.193 263.075 137.364 264.303 137.364C265.257 137.364 266.075 137.869 266.075 139.159V145H267.416V139.159C267.416 137.108 266.314 136.159 264.757 136.159C263.507 136.159 262.592 136.733 262.143 137.636H262.053C261.621 136.705 260.859 136.159 259.712 136.159C258.575 136.159 257.734 136.705 257.371 137.636H257.257V136.273H255.962V145ZM269.868 145H271.209V136.273H269.868V145ZM270.55 134.818C271.072 134.818 271.504 134.409 271.504 133.909C271.504 133.409 271.072 133 270.55 133C270.027 133 269.595 133.409 269.595 133.909C269.595 134.409 270.027 134.818 270.55 134.818ZM275.006 139.75C275.006 138.227 275.949 137.364 277.233 137.364C278.477 137.364 279.233 138.176 279.233 139.545V145H280.574V139.455C280.574 137.227 279.386 136.159 277.619 136.159C276.301 136.159 275.483 136.75 275.074 137.636H274.96V136.273H273.665V145H275.006V139.75ZM286.547 148.455C288.638 148.455 290.32 147.5 290.32 145.25V136.273H289.024V137.659H288.888C288.592 137.205 288.047 136.159 286.342 136.159C284.138 136.159 282.615 137.909 282.615 140.591C282.615 143.318 284.206 144.864 286.32 144.864C288.024 144.864 288.57 143.864 288.865 143.386H288.979V145.159C288.979 146.614 287.956 147.273 286.547 147.273C284.962 147.273 284.405 146.438 284.047 145.955L282.979 146.705C283.524 147.619 284.598 148.455 286.547 148.455ZM286.501 143.659C284.82 143.659 283.956 142.386 283.956 140.568C283.956 138.795 284.797 137.364 286.501 137.364C288.138 137.364 289.001 138.682 289.001 140.568C289.001 142.5 288.115 143.659 286.501 143.659ZM299.842 145.205C301.365 145.205 302.161 144.386 302.433 143.818H302.501V145H303.842V139.25C303.842 136.477 301.729 136.159 300.615 136.159C299.297 136.159 297.797 136.614 297.115 138.205L298.388 138.659C298.683 138.023 299.382 137.341 300.661 137.341C301.893 137.341 302.501 137.994 302.501 139.114V139.159C302.501 139.807 301.842 139.75 300.251 139.955C298.632 140.165 296.865 140.523 296.865 142.523C296.865 144.227 298.183 145.205 299.842 145.205ZM300.047 144C298.979 144 298.206 143.523 298.206 142.591C298.206 141.568 299.138 141.25 300.183 141.114C300.751 141.045 302.274 140.886 302.501 140.614V141.841C302.501 142.932 301.638 144 300.047 144ZM307.631 139.75C307.631 138.227 308.574 137.364 309.858 137.364C311.102 137.364 311.858 138.176 311.858 139.545V145H313.199V139.455C313.199 137.227 312.011 136.159 310.244 136.159C308.926 136.159 308.108 136.75 307.699 137.636H307.585V136.273H306.29V145H307.631V139.75ZM318.945 145.182C320.626 145.182 321.195 144.136 321.49 143.659H321.649V145H322.945V133.364H321.604V137.659H321.49C321.195 137.205 320.672 136.159 318.967 136.159C316.763 136.159 315.24 137.909 315.24 140.659C315.24 143.432 316.763 145.182 318.945 145.182ZM319.126 143.977C317.445 143.977 316.581 142.5 316.581 140.636C316.581 138.795 317.422 137.364 319.126 137.364C320.763 137.364 321.626 138.682 321.626 140.636C321.626 142.614 320.74 143.977 319.126 143.977ZM330.087 145H331.428V139.477C331.428 138.295 332.359 137.432 333.632 137.432C333.99 137.432 334.359 137.5 334.45 137.523V136.159C334.297 136.148 333.945 136.136 333.746 136.136C332.7 136.136 331.791 136.727 331.473 137.591H331.382V136.273H330.087V145ZM339.433 145.182C341.206 145.182 342.501 144.295 342.911 142.977L341.615 142.614C341.274 143.523 340.484 143.977 339.433 143.977C337.859 143.977 336.774 142.96 336.712 141.091H343.047V140.523C343.047 137.273 341.115 136.159 339.297 136.159C336.933 136.159 335.365 138.023 335.365 140.705C335.365 143.386 336.911 145.182 339.433 145.182ZM336.712 139.932C336.803 138.574 337.763 137.364 339.297 137.364C340.751 137.364 341.683 138.455 341.683 139.932H336.712ZM346.428 133.364H345.087V145H346.428V133.364ZM352.543 145.182C354.315 145.182 355.611 144.295 356.02 142.977L354.724 142.614C354.384 143.523 353.594 143.977 352.543 143.977C350.969 143.977 349.884 142.96 349.821 141.091H356.156V140.523C356.156 137.273 354.224 136.159 352.406 136.159C350.043 136.159 348.474 138.023 348.474 140.705C348.474 143.386 350.02 145.182 352.543 145.182ZM349.821 139.932C349.912 138.574 350.872 137.364 352.406 137.364C353.861 137.364 354.793 138.455 354.793 139.932H349.821ZM360.764 145.205C362.287 145.205 363.082 144.386 363.355 143.818H363.423V145H364.764V139.25C364.764 136.477 362.651 136.159 361.537 136.159C360.219 136.159 358.719 136.614 358.037 138.205L359.31 138.659C359.605 138.023 360.304 137.341 361.582 137.341C362.815 137.341 363.423 137.994 363.423 139.114V139.159C363.423 139.807 362.764 139.75 361.173 139.955C359.554 140.165 357.787 140.523 357.787 142.523C357.787 144.227 359.105 145.205 360.764 145.205ZM360.969 144C359.901 144 359.128 143.523 359.128 142.591C359.128 141.568 360.06 141.25 361.105 141.114C361.673 141.045 363.196 140.886 363.423 140.614V141.841C363.423 142.932 362.56 144 360.969 144ZM373.393 138.227C372.973 136.989 372.03 136.159 370.303 136.159C368.462 136.159 367.098 137.205 367.098 138.682C367.098 139.886 367.814 140.693 369.416 141.068L370.871 141.409C371.751 141.614 372.166 142.034 372.166 142.636C372.166 143.386 371.371 144 370.121 144C369.024 144 368.337 143.528 368.098 142.591L366.825 142.909C367.138 144.392 368.359 145.182 370.143 145.182C372.172 145.182 373.553 144.074 373.553 142.568C373.553 141.352 372.791 140.585 371.234 140.205L369.939 139.886C368.905 139.631 368.439 139.284 368.439 138.614C368.439 137.864 369.234 137.318 370.303 137.318C371.473 137.318 371.956 137.966 372.189 138.568L373.393 138.227ZM379.23 145.182C381.003 145.182 382.298 144.295 382.707 142.977L381.412 142.614C381.071 143.523 380.281 143.977 379.23 143.977C377.656 143.977 376.571 142.96 376.509 141.091H382.844V140.523C382.844 137.273 380.912 136.159 379.094 136.159C376.73 136.159 375.162 138.023 375.162 140.705C375.162 143.386 376.707 145.182 379.23 145.182ZM376.509 139.932C376.599 138.574 377.56 137.364 379.094 137.364C380.548 137.364 381.48 138.455 381.48 139.932H376.509ZM388.179 145.182C389.861 145.182 390.429 144.136 390.724 143.659H390.884V145H392.179V133.364H390.838V137.659H390.724C390.429 137.205 389.906 136.159 388.202 136.159C385.997 136.159 384.474 137.909 384.474 140.659C384.474 143.432 385.997 145.182 388.179 145.182ZM388.361 143.977C386.679 143.977 385.815 142.5 385.815 140.636C385.815 138.795 386.656 137.364 388.361 137.364C389.997 137.364 390.861 138.682 390.861 140.636C390.861 142.614 389.974 143.977 388.361 143.977ZM403.116 136.273H401.253V134.182H399.912V136.273H398.594V137.409H399.912V142.864C399.912 144.386 401.139 145.114 402.276 145.114C402.776 145.114 403.094 145.023 403.276 144.955L403.003 143.75C402.889 143.773 402.707 143.818 402.412 143.818C401.821 143.818 401.253 143.636 401.253 142.5V137.409H403.116V136.273ZM408.699 145.182C410.472 145.182 411.767 144.295 412.176 142.977L410.881 142.614C410.54 143.523 409.75 143.977 408.699 143.977C407.125 143.977 406.04 142.96 405.977 141.091H412.312V140.523C412.312 137.273 410.381 136.159 408.562 136.159C406.199 136.159 404.631 138.023 404.631 140.705C404.631 143.386 406.176 145.182 408.699 145.182ZM405.977 139.932C406.068 138.574 407.028 137.364 408.562 137.364C410.017 137.364 410.949 138.455 410.949 139.932H405.977ZM420.534 138.227C420.114 136.989 419.17 136.159 417.443 136.159C415.602 136.159 414.239 137.205 414.239 138.682C414.239 139.886 414.955 140.693 416.557 141.068L418.011 141.409C418.892 141.614 419.307 142.034 419.307 142.636C419.307 143.386 418.511 144 417.261 144C416.165 144 415.477 143.528 415.239 142.591L413.966 142.909C414.278 144.392 415.5 145.182 417.284 145.182C419.312 145.182 420.693 144.074 420.693 142.568C420.693 141.352 419.932 140.585 418.375 140.205L417.08 139.886C416.045 139.631 415.58 139.284 415.58 138.614C415.58 137.864 416.375 137.318 417.443 137.318C418.614 137.318 419.097 137.966 419.33 138.568L420.534 138.227ZM426.507 136.273H424.643V134.182H423.303V136.273H421.984V137.409H423.303V142.864C423.303 144.386 424.53 145.114 425.666 145.114C426.166 145.114 426.484 145.023 426.666 144.955L426.393 143.75C426.28 143.773 426.098 143.818 425.803 143.818C425.212 143.818 424.643 143.636 424.643 142.5V137.409H426.507V136.273ZM429.865 139.75C429.865 138.227 430.808 137.364 432.092 137.364C433.337 137.364 434.092 138.176 434.092 139.545V145H435.433V139.455C435.433 137.227 434.246 136.159 432.479 136.159C431.161 136.159 430.342 136.75 429.933 137.636H429.82V136.273H428.524V145H429.865V139.75ZM441.543 145.182C443.315 145.182 444.611 144.295 445.02 142.977L443.724 142.614C443.384 143.523 442.594 143.977 441.543 143.977C439.969 143.977 438.884 142.96 438.821 141.091H445.156V140.523C445.156 137.273 443.224 136.159 441.406 136.159C439.043 136.159 437.474 138.023 437.474 140.705C437.474 143.386 439.02 145.182 441.543 145.182ZM438.821 139.932C438.912 138.574 439.872 137.364 441.406 137.364C442.861 137.364 443.793 138.455 443.793 139.932H438.821ZM450.991 136.273H449.128V134.182H447.787V136.273H446.469V137.409H447.787V142.864C447.787 144.386 449.014 145.114 450.151 145.114C450.651 145.114 450.969 145.023 451.151 144.955L450.878 143.75C450.764 143.773 450.582 143.818 450.287 143.818C449.696 143.818 449.128 143.636 449.128 142.5V137.409H450.991V136.273ZM459.034 138.227C458.614 136.989 457.67 136.159 455.943 136.159C454.102 136.159 452.739 137.205 452.739 138.682C452.739 139.886 453.455 140.693 455.057 141.068L456.511 141.409C457.392 141.614 457.807 142.034 457.807 142.636C457.807 143.386 457.011 144 455.761 144C454.665 144 453.977 143.528 453.739 142.591L452.466 142.909C452.778 144.392 454 145.182 455.784 145.182C457.812 145.182 459.193 144.074 459.193 142.568C459.193 141.352 458.432 140.585 456.875 140.205L455.58 139.886C454.545 139.631 454.08 139.284 454.08 138.614C454.08 137.864 454.875 137.318 455.943 137.318C457.114 137.318 457.597 137.966 457.83 138.568L459.034 138.227Z" fill="black"/>
<path d="M715.47 155C717.507 159.975 719.178 165.092 720.47 170.31C724.24 185.31 728.69 196.4 732.47 211.42C734.4 219.32 736.47 227.21 738.18 235.11C739.05 239.06 739.82 242.91 740.69 246.86C740.853 247.33 740.92 247.828 740.888 248.324C740.855 248.821 740.723 249.305 740.5 249.75C739.94 250.381 739.194 250.818 738.37 251C714.58 258.51 688.94 257.16 663.99 255.72C655.29 255.23 645.81 254.37 639.52 248.4C638.26 247.15 637.01 245.61 636.91 243.87C636.841 242.828 636.973 241.782 637.3 240.79C638.94 233.86 640.49 227.02 642.13 220.09C645.32 206.32 648.61 192.65 652.58 179.09C655.96 167.73 659.93 156.56 664.18 145.58C665.54 142.11 666.99 138.45 667.09 134.7C667.28 128.15 665.54 121.51 667.38 115.15C668.15 112.45 667.38 111.78 665.15 109.95C664.15 109.18 661.28 108.03 660.7 107.35C659.35 105.91 659.15 99.2599 660.9 98.1999C663.409 96.6858 666.096 95.4899 668.9 94.64C675.869 93.2406 682.977 92.66 690.08 92.91C695.877 93.0836 701.629 93.9874 707.2 95.6C709.467 96.4371 711.564 97.6771 713.39 99.26C715.04 100.61 714.94 106.26 713.01 107.26C711.65 107.93 709.14 108.03 708.37 109.37C707.901 110.399 707.669 111.52 707.69 112.65C707.88 120.83 707.88 126.8 708.27 134.99C708.7 142.38 712.56 148.35 715.47 155Z" fill="black"/>
<path d="M722 207.72C723.36 212.66 724.71 218.72 725.78 223.72C726.826 229.288 727.534 234.915 727.9 240.57C728.075 241.428 727.94 242.321 727.52 243.09C727.253 243.44 726.918 243.732 726.534 243.948C726.151 244.165 725.728 244.302 725.29 244.35C720.94 245.51 716.59 247.16 712.14 247.16C706.92 247.25 700.44 247.74 695.22 247.84C680.91 248.03 673.08 247.55 659.15 244.06C658.625 244.008 658.117 243.844 657.661 243.578C657.205 243.312 656.812 242.95 656.509 242.518C656.206 242.086 656 241.593 655.905 241.074C655.81 240.555 655.829 240.021 655.96 239.51C655.67 213.56 670.47 205.63 673.96 179.87C674.54 175.51 703.84 147.13 704.9 149.87C707.51 157.04 709.73 162.75 710.99 169.63C713.64 183.12 718 193.19 722 207.72Z" fill="#D3D8E0"/>
<path d="M695.93 235.12C696.317 235.769 696.836 236.328 697.455 236.761C698.074 237.194 698.778 237.49 699.52 237.63C700.967 237.877 702.442 237.914 703.9 237.74C706.863 237.614 709.817 237.334 712.75 236.9C713.62 232.71 710.75 231.66 707.5 231.9C706.33 232 695.34 234.07 695.93 235.12Z" fill="white"/>
<path d="M694.15 216.94C693.86 215.2 694.15 212.29 693.67 210.64C692.79 207.73 690.15 182.42 689.76 179.41C689.56 177.57 686.24 157.41 688.98 156.33C689.879 155.971 690.843 155.804 691.81 155.84L698.81 156.04C700.81 160.11 709.16 204.92 709.26 209.48C709.36 212.39 710.14 215.1 710.43 218.01C710.764 219.964 710.894 221.948 710.82 223.93C710.72 225.09 710.72 226.16 709.55 226.35C706.04 227.03 699.49 228.68 697.44 227.35C694 225.19 694.64 220.44 694.15 216.94Z" fill="white"/>
<path d="M687.24 134.93C686.781 134.86 686.352 134.662 686 134.36C685.781 134.059 685.618 133.72 685.52 133.36C684.57 131.08 685.43 128.6 685.14 126.03C684.613 121.557 684.952 117.025 686.14 112.68C686.33 112.11 685.85 111.44 686.23 111.16C686.532 110.977 686.877 110.877 687.23 110.87C690.734 110.662 694.251 110.887 697.7 111.54C697.84 111.533 697.98 111.555 698.111 111.604C698.242 111.654 698.361 111.731 698.46 111.83C699.03 112.3 698.94 113.35 698.75 114.21C697.51 120.59 697.51 127.84 697.51 134.32C697.51 137.65 695.79 136.8 693.7 136.41C691 136.07 689.9 135.5 687.24 134.93Z" fill="#D3D8E0"/>
<path d="M690.53 136.35C693.083 137.705 696.022 138.146 698.86 137.6C699.11 137.59 699.354 137.524 699.575 137.409C699.797 137.293 699.989 137.129 700.14 136.93C700.397 136.594 700.566 136.198 700.63 135.78C701.623 131.042 701.986 126.193 701.71 121.36C701.577 119.827 701.543 118.287 701.61 116.75C701.756 115.829 701.853 114.901 701.9 113.97C701.933 113.515 701.842 113.059 701.636 112.652C701.43 112.245 701.117 111.902 700.73 111.66C700.395 111.497 700.021 111.431 699.65 111.47C697.49 111.37 693.65 110.32 691.65 111.18C689.65 112.04 690.14 115.6 690 118C689.9 121.08 689.81 124.15 689.9 127.23C690 128.28 689.75 135.87 690.53 136.35Z" fill="white"/>
<path d="M666.9 99.9996C674.96 96.9996 683.9 97.7196 692.39 98.6596C693.05 98.7596 693.81 98.9696 693.9 99.6596C692.96 100.18 691.63 99.8696 690.97 100.8C690.68 101.22 690.68 101.74 690.4 102.26C689.83 103.6 688.22 103.81 686.8 103.81C683.156 103.865 679.514 103.658 675.9 103.19C672.78 102.8 669.18 102.91 666.9 99.9996Z" fill="white"/>
<path d="M663.94 101.73C663.875 102.241 663.958 102.759 664.18 103.224C664.401 103.688 664.752 104.079 665.19 104.35C665.758 104.651 666.38 104.835 667.02 104.89C680.135 107.359 693.583 107.481 706.74 105.25C707.961 105.168 709.131 104.734 710.11 104C710.98 103.19 711.27 101.65 710.3 100.93C709.89 100.708 709.441 100.57 708.977 100.524C708.514 100.477 708.046 100.524 707.6 100.66C699.888 101.852 692.076 102.278 684.28 101.93C680.333 101.75 676.38 101.387 672.42 100.84C670 100.55 664.52 98.29 663.94 101.73Z" fill="#D3D8E0"/>
<path d="M694.05 104.08C694.103 104.46 694.2 104.832 694.34 105.19C694.44 105.6 695.02 105.7 695.41 105.8C695.805 105.866 696.211 105.831 696.59 105.7C698.59 105.3 700.29 105.09 702.34 104.79C702.741 104.737 703.134 104.637 703.51 104.49C703.71 104.39 703.9 104.39 703.9 103.88V102.07C703.929 101.817 703.861 101.564 703.71 101.36C703.61 101.16 703.32 101.16 703.12 101.16C700.993 100.777 698.818 100.743 696.68 101.06C695.9 101.16 694.54 101.16 694.24 101.87C694.057 102.205 693.946 102.574 693.913 102.955C693.881 103.335 693.927 103.718 694.05 104.08Z" fill="white"/>
<path d="M561.18 162.671C567.125 162.202 573.01 161.15 578.75 159.531C577 177.691 563.93 244.001 569.45 259.001C573.01 269.001 580.67 272.751 588.74 271.911C600.74 270.651 620.96 269.911 638.36 267.721C646.72 266.661 655.24 266.661 660.36 263.531C669.02 258.291 665.77 243.481 660.36 233.531C658.36 229.891 656.95 230.741 652.06 230.741C652.06 220.971 655.24 206.551 656.92 192.211C659.21 172.711 660.34 148.731 660.34 141.381C660.34 128.631 654.75 113.101 647.93 113.101C625.54 113.101 571.93 116.601 563.52 116.601C552.58 116.601 546.29 127.211 546.29 139.601C546.29 151.991 550.25 162.671 561.18 162.671Z" fill="black"/>
<path fill-rule="evenodd" clip-rule="evenodd" d="M574 121.341L646 119.001C651.48 123.214 654.22 135.061 654.22 154.541C654.22 174.021 651.48 199.314 646 230.421C608.76 232.314 588.427 233.534 585 234.081C581.573 234.628 578.48 237.171 575.72 241.711C579.053 216.038 582.147 194.448 585 176.941C586.64 166.741 587.08 148.151 585 137.591C584.415 134.26 583.132 131.091 581.237 128.29C579.341 125.49 576.875 123.122 574 121.341Z" fill="#D3D8E0"/>
<path d="M597.31 156.83C605.47 158.3 614.06 157.97 622.23 157.64C629.53 157.32 637.23 157.48 643.92 155.19C644.78 154.86 644.35 154.04 643.71 153.87C636.19 152.4 628.03 153.55 620.29 154.04C612.56 154.37 604.61 154.53 597.09 156.17C597.031 156.218 596.987 156.282 596.965 156.355C596.943 156.428 596.945 156.505 596.969 156.578C596.993 156.65 597.038 156.713 597.099 156.758C597.161 156.803 597.234 156.828 597.31 156.83Z" fill="black"/>
<path d="M613.79 174.741C619.1 176.211 624.68 175.881 629.99 175.561C634.74 175.231 639.76 175.391 644.09 173.101C644.195 173.021 644.278 172.915 644.331 172.793C644.383 172.671 644.403 172.538 644.389 172.407C644.375 172.275 644.327 172.149 644.25 172.041C644.173 171.933 644.07 171.847 643.95 171.791C639.07 170.311 633.76 171.461 628.73 171.951C623.73 172.281 618.54 172.441 613.65 174.081C613.51 174.241 613.51 174.741 613.79 174.741Z" fill="black"/>
<path d="M608.83 174.601C606.67 172.721 604.07 172.601 601.61 172.481C599.39 172.421 597.13 171.861 594.77 173.771C594.634 173.955 594.547 174.172 594.519 174.4C594.491 174.627 594.522 174.859 594.61 175.071C596.61 176.921 599.18 176.211 601.55 176.141C603.9 176.221 606.27 176.471 608.78 175.251C608.87 175.101 608.95 174.621 608.83 174.601Z" fill="black"/>
<path d="M624.06 191.581C618.87 193.421 613.27 193.491 607.96 193.531C603.2 193.531 598.2 194.051 593.72 192.071C593.606 192.002 593.512 191.905 593.446 191.79C593.381 191.674 593.347 191.544 593.347 191.411C593.347 191.278 593.381 191.147 593.446 191.031C593.512 190.916 593.606 190.819 593.72 190.751C598.49 188.941 603.86 189.751 608.91 189.851C613.91 189.851 619.11 189.621 624.1 190.911C624.25 191.071 624.29 191.561 624.01 191.581H624.06Z" fill="black"/>
<path fill-rule="evenodd" clip-rule="evenodd" d="M589.21 137.271C583.03 129.271 577.97 123.978 574.03 121.391L646.03 118.921C649.363 121.548 651.697 127.084 653.03 135.531C614.563 142.038 593.29 142.618 589.21 137.271Z" fill="white"/>
<path fill-rule="evenodd" clip-rule="evenodd" d="M571.72 128.62C573.18 129.98 578.72 133.56 578.72 142.18C578.548 146.926 577.922 151.644 576.85 156.27C566.69 158.19 558.97 159.85 558.1 158.5C559.704 158.128 561.207 157.409 562.503 156.393C563.799 155.377 564.856 154.089 565.6 152.62C567.633 148.577 568.6 144.082 568.41 139.56C568.408 137.588 567.912 135.647 566.969 133.915C566.026 132.182 564.665 130.713 563.01 129.64L571.72 128.62Z" fill="white"/>
<path fill-rule="evenodd" clip-rule="evenodd" d="M576.92 156.29C566.75 158.2 559 159.87 558.13 158.5C559.731 158.138 561.233 157.43 562.532 156.427C563.831 155.423 564.895 154.148 565.65 152.69C566.94 149.804 568.994 147.325 571.59 145.52C572.595 144.771 573.759 144.264 574.993 144.038C576.226 143.813 577.495 143.875 578.7 144.22C578.412 148.283 577.817 152.318 576.92 156.29Z" fill="#D3D8E0"/>
<path fill-rule="evenodd" clip-rule="evenodd" d="M560.42 133.14C562.324 135.356 563.302 138.221 563.15 141.14C563.164 141.901 563.137 142.662 563.07 143.42L555.45 144.42C555.31 143.174 555.31 141.916 555.45 140.67C555.691 138.657 556.449 136.742 557.65 135.11C558.378 134.215 559.335 133.534 560.42 133.14Z" fill="#D3D8E0"/>
<path fill-rule="evenodd" clip-rule="evenodd" d="M652.74 235C653.93 235 655.89 237.66 657.32 242.08C659.58 249.08 655.84 252.36 651.7 254.33C641.45 255.52 608.7 258.71 607.99 257.24C594.83 260.76 589.163 261.043 590.99 258.09C592.46 255.76 591.99 254.41 592.1 248.88C592.225 246.908 591.857 244.935 591.029 243.141C590.202 241.346 588.941 239.786 587.36 238.6L652.74 235Z" fill="white"/>
<path fill-rule="evenodd" clip-rule="evenodd" d="M658.75 255C656.75 261.78 620.95 260.86 611.3 261.79C601.65 262.72 586.53 264.71 588.38 261.79C589.865 258.986 592.089 256.642 594.81 255.01C597.3 253.62 619.39 246.84 636.65 245.14C648.177 244.013 654.51 241.757 655.65 238.37C661 245.15 658.75 252.93 658.75 255Z" fill="#D3D8E0"/>
<path fill-rule="evenodd" clip-rule="evenodd" d="M584 243.21C585.379 245.375 585.963 247.952 585.65 250.5C585.623 251.17 585.557 251.838 585.45 252.5L579.45 253.01C579.408 251.882 579.482 250.753 579.67 249.64C579.967 247.876 580.677 246.208 581.74 244.77C582.333 244.031 583.124 243.477 584.02 243.17L584 243.21Z" fill="#D3D8E0"/>
<path d="M574.85 218.36L575.57 226.72C576.949 226.822 578.336 226.759 579.7 226.53C581.4 226.11 583.26 226.29 582.32 225.83C580.96 225.317 579.575 224.873 578.17 224.5L577.08 224.23C579.469 224.017 581.845 223.683 584.2 223.23C591.03 221.89 590.6 221.63 584.42 221.45C583.24 221.45 581.61 221.45 579.68 221.53C580.381 221.235 581.066 220.901 581.73 220.53C583.139 219.736 584.477 218.823 585.73 217.8C586.51 216.95 584.05 217.67 581.1 217.56C578.992 217.569 576.893 217.838 574.85 218.36Z" fill="black"/>
<path d="M651.62 117.461L652.81 126.861C651.357 127.295 649.855 127.547 648.34 127.611C646.34 127.611 644.34 128.201 645.34 127.461C646.707 126.591 648.119 125.793 649.57 125.071C649.96 124.871 650.34 124.691 650.75 124.521C648.094 124.835 645.424 125.011 642.75 125.051C634.97 125.191 635.37 124.791 642.08 123.131C643.43 122.811 645.16 122.471 647.28 122.131C646.5 121.961 645.68 121.751 644.8 121.471C643.076 120.928 641.403 120.235 639.8 119.401C638.8 118.661 641.6 118.861 644.8 118.051C647.043 117.589 649.332 117.391 651.62 117.461Z" fill="black"/>
<path d="M753.06 90.6204C750.37 89.4404 746.24 89.3503 743.89 91.2103C703.4 122.09 697.26 126.72 656.69 157.52C637.59 172.08 640.28 170.9 623.53 191.02C624.46 191.94 625.89 191.36 626.99 190.93C632.79 189.17 632.88 189.93 638.43 187.4C643.15 185.21 646.76 183.11 651.31 180.58C655.422 178.401 659.387 175.956 663.18 173.26C705.18 144.73 690.53 156.85 732.86 125.97C741.11 119.91 754.24 111.83 759.8 102.74C763.08 97.7703 758.11 92.8104 753.06 90.6204Z" fill="black"/>
<path d="M639 179.74C650.11 168.97 645.82 171.58 657.18 163.58C702.96 131.58 693.03 135.98 737.13 101.81C739.695 99.7066 742.6 98.0562 745.72 96.9305C750.85 95.3305 755.23 97.3505 752.72 102.93C750.95 107.05 743.29 110.84 739.72 113.36C726.627 123.12 713.387 132.764 700 142.29C673.24 161.48 688.55 149.36 661.12 167.54C645.84 177.81 654.17 171.33 639 179.74Z" fill="white"/>
<path d="M740.94 93.6505C743.64 99.7105 748.1 104.65 746.83 111.83C746.789 112.272 746.916 112.713 747.186 113.066C747.456 113.418 747.849 113.655 748.287 113.729C748.724 113.804 749.173 113.711 749.545 113.468C749.917 113.225 750.183 112.851 750.29 112.42C751.8 106.02 748.01 95.5005 741.36 93.4205C741.03 93.2605 740.77 93.5105 740.94 93.6805V93.6505Z" fill="black"/>
<path d="M740.61 103.071C740.77 104.761 741.36 106.361 741.53 108.071C741.57 109.897 741.486 111.725 741.28 113.541C741.2 114.801 742.96 115.731 743.55 114.301C745.07 110.931 744.31 104.961 741.03 102.851C740.86 102.851 740.52 103.021 740.61 103.101V103.071Z" fill="black"/>
<path d="M738 107.7C737.66 110.06 737.58 112.5 737.16 114.94C737.112 115.139 737.107 115.346 737.145 115.547C737.183 115.748 737.263 115.939 737.38 116.107C737.497 116.275 737.649 116.417 737.824 116.522C738 116.627 738.196 116.694 738.399 116.718C738.602 116.742 738.808 116.723 739.004 116.662C739.199 116.601 739.379 116.499 739.532 116.363C739.686 116.227 739.808 116.06 739.892 115.874C739.976 115.687 740.02 115.485 740.02 115.28C740.411 112.631 739.809 109.932 738.33 107.7C738.25 107.62 738 107.53 738 107.7Z" fill="black"/>
<path d="M718 124.2C718.08 125.29 718.5 126.39 718.5 127.56C718.5 128.73 718 129.92 717.91 131.02C717.912 131.284 717.992 131.54 718.14 131.758C718.289 131.976 718.498 132.144 718.742 132.243C718.986 132.342 719.254 132.365 719.512 132.312C719.77 132.258 720.006 132.128 720.19 131.94C721.78 129.84 721.45 125.29 719.26 123.61C718.75 123.44 717.91 123.61 718 124.2Z" fill="black"/>
<path d="M712.83 126.641C712.41 128.071 712.92 129.751 712.92 131.271C712.92 132.111 713 132.871 713 133.711C713 134.551 712.83 135.221 713.34 135.901C713.403 136.017 713.492 136.117 713.601 136.191C713.71 136.266 713.835 136.314 713.966 136.33C714.097 136.347 714.23 136.332 714.355 136.287C714.479 136.242 714.59 136.168 714.68 136.071C715.86 134.891 715.36 132.361 715.1 130.931C714.85 129.331 714.43 127.401 713.1 126.551C713.02 126.471 712.85 126.641 712.85 126.641H712.83Z" fill="black"/>
<path d="M701.72 126.64C703.32 129.58 705.72 132.36 706.44 135.73C706.77 137.58 706.02 138.67 705.85 140.36C705.83 140.87 705.978 141.372 706.27 141.79C706.452 142.013 706.683 142.189 706.945 142.305C707.207 142.422 707.494 142.475 707.78 142.46C710.98 142.13 710.48 136.4 709.78 134.38C708.69 130.59 705.57 127.98 701.95 126.38C701.79 126.22 701.62 126.38 701.7 126.64H701.72Z" fill="black"/>
<path d="M701.47 136.65C700.96 137.49 701.47 138.65 701.47 139.52C701.47 140.39 701.72 141.96 701.22 142.8C701.131 142.951 701.083 143.122 701.08 143.297C701.078 143.472 701.121 143.644 701.206 143.797C701.291 143.95 701.415 144.077 701.565 144.167C701.714 144.258 701.885 144.307 702.06 144.31C703.83 144.4 703.74 141.62 703.66 140.36C703.57 139.26 702.9 136.91 701.66 136.65H701.47Z" fill="black"/>
<path d="M695.58 141.37C695.24 143.72 695.75 145.91 694.82 148.18C694.06 149.95 696.67 151.38 697.43 149.61C698.52 147.01 698.86 142.61 696 141.11C695.66 141.11 695.58 141.2 695.58 141.37Z" fill="black"/>
<path d="M681 158.281C681.17 156.431 680.75 153.491 679.06 152.471C678.73 152.311 678.22 152.471 678.22 152.811C677.97 154.411 678.47 156.091 678.22 157.691C678.091 158.577 677.806 159.433 677.38 160.221L681 158.281Z" fill="black"/>
</svg>
