<svg width="882" height="300" viewBox="0 0 882 300" fill="none" xmlns="http://www.w3.org/2000/svg">
<g clip-path="url(#clip0)">
<rect width="882" height="300" fill="white"/>
<rect width="882" height="210" fill="black"/>
<path d="M64.4062 101V68.3516H68.9766V82.1797H84.375V68.3516H88.9453V101H84.375V86.2578H68.9766V101H64.4062ZM96.0703 88.7656C96.0703 86.9062 96.2891 85.1875 96.7266 83.6094C97.1797 82.0156 97.8594 80.6641 98.7656 79.5547C99.6875 78.4297 100.836 77.5469 102.211 76.9062C103.586 76.2656 105.203 75.9453 107.062 75.9453C108.922 75.9453 110.539 76.2656 111.914 76.9062C113.289 77.5469 114.43 78.4297 115.336 79.5547C116.242 80.6641 116.922 82.0156 117.375 83.6094C117.828 85.1875 118.055 86.9062 118.055 88.7656C118.055 90.6562 117.828 92.3828 117.375 93.9453C116.922 95.5078 116.242 96.8516 115.336 97.9766C114.43 99.1016 113.281 99.9844 111.891 100.625C110.516 101.266 108.906 101.586 107.062 101.586C105.203 101.586 103.586 101.266 102.211 100.625C100.836 99.9844 99.6875 99.1016 98.7656 97.9766C97.8594 96.8516 97.1797 95.5078 96.7266 93.9453C96.2891 92.3828 96.0703 90.6562 96.0703 88.7656ZM100.617 92.5625C100.617 93.3906 100.789 94.1484 101.133 94.8359C101.492 95.5234 101.961 96.1094 102.539 96.5938C103.117 97.0625 103.797 97.4375 104.578 97.7188C105.359 97.9844 106.188 98.1172 107.062 98.1172C107.922 98.1172 108.742 97.9844 109.523 97.7188C110.305 97.4375 110.984 97.0625 111.562 96.5938C112.141 96.1094 112.602 95.5234 112.945 94.8359C113.305 94.1484 113.484 93.3906 113.484 92.5625V84.9688C113.484 84.1406 113.305 83.3828 112.945 82.6953C112.602 82.0078 112.141 81.4219 111.562 80.9375C110.984 80.4531 110.305 80.0781 109.523 79.8125C108.742 79.5312 107.922 79.3906 107.062 79.3906C106.203 79.3906 105.375 79.5312 104.578 79.8125C103.797 80.0781 103.117 80.4531 102.539 80.9375C101.961 81.4219 101.492 82.0078 101.133 82.6953C100.789 83.3828 100.617 84.1406 100.617 84.9688V92.5625ZM122.344 76.5312H126.703L131.555 95.6797H131.742L136.055 76.5312H141.305L145.805 95.6797H145.992L150.891 76.5312H155.109L147.961 101H143.414L138.797 81.1719H138.609L133.945 101H129.492L122.344 76.5312ZM170.484 76.5312H174.844L179.695 95.6797H179.883L184.195 76.5312H189.445L193.945 95.6797H194.133L199.031 76.5312H203.25L196.102 101H191.555L186.938 81.1719H186.75L182.086 101H177.633L170.484 76.5312ZM207.539 88.7656C207.539 86.9062 207.766 85.1875 208.219 83.6094C208.688 82.0156 209.375 80.6641 210.281 79.5547C211.203 78.4297 212.312 77.5469 213.609 76.9062C214.906 76.2656 216.398 75.9453 218.086 75.9453C219.852 75.9453 221.391 76.25 222.703 76.8594C224.016 77.4688 225.102 78.3047 225.961 79.3672C226.82 80.4141 227.469 81.6484 227.906 83.0703C228.344 84.4922 228.562 86.0234 228.562 87.6641V89.9609H212.086V92.5625C212.086 93.4531 212.25 94.2422 212.578 94.9297C212.922 95.6172 213.383 96.2031 213.961 96.6875C214.539 97.1562 215.188 97.5156 215.906 97.7656C216.625 98 217.367 98.1172 218.133 98.1172C219.664 98.1172 220.992 97.7266 222.117 96.9453C223.242 96.1641 223.883 94.9219 224.039 93.2188H228.375C228.281 94.5312 227.938 95.7031 227.344 96.7344C226.75 97.75 225.977 98.6172 225.023 99.3359C224.086 100.055 223.023 100.609 221.836 101C220.648 101.391 219.398 101.586 218.086 101.586C216.32 101.586 214.773 101.266 213.445 100.625C212.133 99.9844 211.031 99.1016 210.141 97.9766C209.266 96.8516 208.609 95.5078 208.172 93.9453C207.75 92.3828 207.539 90.6562 207.539 88.7656ZM212.086 86.5156H224.086V85.1562C224.086 84.2656 223.922 83.4609 223.594 82.7422C223.281 82.0234 222.844 81.4141 222.281 80.9141C221.734 80.4141 221.094 80.0391 220.359 79.7891C219.641 79.5234 218.883 79.3906 218.086 79.3906C217.289 79.3906 216.531 79.5234 215.812 79.7891C215.094 80.0391 214.453 80.4141 213.891 80.9141C213.328 81.4141 212.883 82.0234 212.555 82.7422C212.242 83.4609 212.086 84.2656 212.086 85.1562V86.5156ZM244.922 76.5312H249.281L254.133 95.6797H254.32L258.633 76.5312H263.883L268.383 95.6797H268.57L273.469 76.5312H277.688L270.539 101H265.992L261.375 81.1719H261.188L256.523 101H252.07L244.922 76.5312ZM281.977 88.7656C281.977 86.9062 282.195 85.1875 282.633 83.6094C283.086 82.0156 283.766 80.6641 284.672 79.5547C285.594 78.4297 286.742 77.5469 288.117 76.9062C289.492 76.2656 291.109 75.9453 292.969 75.9453C294.828 75.9453 296.445 76.2656 297.82 76.9062C299.195 77.5469 300.336 78.4297 301.242 79.5547C302.148 80.6641 302.828 82.0156 303.281 83.6094C303.734 85.1875 303.961 86.9062 303.961 88.7656C303.961 90.6562 303.734 92.3828 303.281 93.9453C302.828 95.5078 302.148 96.8516 301.242 97.9766C300.336 99.1016 299.188 99.9844 297.797 100.625C296.422 101.266 294.812 101.586 292.969 101.586C291.109 101.586 289.492 101.266 288.117 100.625C286.742 99.9844 285.594 99.1016 284.672 97.9766C283.766 96.8516 283.086 95.5078 282.633 93.9453C282.195 92.3828 281.977 90.6562 281.977 88.7656ZM286.523 92.5625C286.523 93.3906 286.695 94.1484 287.039 94.8359C287.398 95.5234 287.867 96.1094 288.445 96.5938C289.023 97.0625 289.703 97.4375 290.484 97.7188C291.266 97.9844 292.094 98.1172 292.969 98.1172C293.828 98.1172 294.648 97.9844 295.43 97.7188C296.211 97.4375 296.891 97.0625 297.469 96.5938C298.047 96.1094 298.508 95.5234 298.852 94.8359C299.211 94.1484 299.391 93.3906 299.391 92.5625V84.9688C299.391 84.1406 299.211 83.3828 298.852 82.6953C298.508 82.0078 298.047 81.4219 297.469 80.9375C296.891 80.4531 296.211 80.0781 295.43 79.8125C294.648 79.5312 293.828 79.3906 292.969 79.3906C292.109 79.3906 291.281 79.5312 290.484 79.8125C289.703 80.0781 289.023 80.4531 288.445 80.9375C287.867 81.4219 287.398 82.0078 287.039 82.6953C286.695 83.3828 286.523 84.1406 286.523 84.9688V92.5625ZM310.641 101V76.5312H322.406V80.2578H314.953V101H310.641ZM327.797 101V68.3516H332.109V101H327.797ZM332.156 87.3125L341.766 76.5312H346.992L337.148 87.3125L347.672 101H342.727L332.156 87.3125Z" fill="white"/>
<path d="M67.7727 136.273H69.1364C69.0739 134.517 67.4545 133.205 65.2045 133.205C62.9773 133.205 61.2273 134.5 61.2273 136.455C61.2273 138.023 62.3636 138.955 64.1818 139.477L65.6136 139.886C66.8409 140.227 67.9318 140.659 67.9318 141.818C67.9318 143.091 66.7045 143.932 65.0909 143.932C63.7045 143.932 62.4773 143.318 62.3636 142H60.9091C61.0455 143.909 62.5909 145.205 65.0909 145.205C67.7727 145.205 69.2955 143.727 69.2955 141.841C69.2955 139.659 67.2273 138.955 66.0227 138.636L64.8409 138.318C63.9773 138.091 62.5909 137.636 62.5909 136.386C62.5909 135.273 63.6136 134.455 65.1591 134.455C66.5682 134.455 67.6364 135.125 67.7727 136.273ZM72.7713 139.75C72.7713 138.227 73.7429 137.364 75.0668 137.364C76.3281 137.364 77.0895 138.159 77.0895 139.545V145H78.4304V139.455C78.4304 137.21 77.2372 136.159 75.4531 136.159C74.0781 136.159 73.294 136.733 72.8849 137.636H72.7713V133.364H71.4304V145H72.7713V139.75ZM84.429 145.182C86.7926 145.182 88.3835 143.386 88.3835 140.682C88.3835 137.955 86.7926 136.159 84.429 136.159C82.0653 136.159 80.4744 137.955 80.4744 140.682C80.4744 143.386 82.0653 145.182 84.429 145.182ZM84.429 143.977C82.6335 143.977 81.8153 142.432 81.8153 140.682C81.8153 138.932 82.6335 137.364 84.429 137.364C86.2244 137.364 87.0426 138.932 87.0426 140.682C87.0426 142.432 86.2244 143.977 84.429 143.977ZM90.4304 145H91.7713V139.477C91.7713 138.295 92.7031 137.432 93.9759 137.432C94.3338 137.432 94.7031 137.5 94.794 137.523V136.159C94.6406 136.148 94.2884 136.136 94.0895 136.136C93.044 136.136 92.1349 136.727 91.8168 137.591H91.7259V136.273H90.4304V145ZM100.726 136.273H98.8622V134.182H97.5213V136.273H96.2031V137.409H97.5213V142.864C97.5213 144.386 98.7486 145.114 99.8849 145.114C100.385 145.114 100.703 145.023 100.885 144.955L100.612 143.75C100.499 143.773 100.317 143.818 100.021 143.818C99.4304 143.818 98.8622 143.636 98.8622 142.5V137.409H100.726V136.273ZM113.425 138.227C113.004 136.989 112.061 136.159 110.334 136.159C108.493 136.159 107.129 137.205 107.129 138.682C107.129 139.886 107.845 140.693 109.447 141.068L110.902 141.409C111.783 141.614 112.197 142.034 112.197 142.636C112.197 143.386 111.402 144 110.152 144C109.055 144 108.368 143.528 108.129 142.591L106.857 142.909C107.169 144.392 108.391 145.182 110.175 145.182C112.203 145.182 113.584 144.074 113.584 142.568C113.584 141.352 112.822 140.585 111.266 140.205L109.97 139.886C108.936 139.631 108.47 139.284 108.47 138.614C108.47 137.864 109.266 137.318 110.334 137.318C111.504 137.318 111.987 137.966 112.22 138.568L113.425 138.227ZM121.102 141.432C121.102 143.068 119.852 143.818 118.852 143.818C117.739 143.818 116.943 143 116.943 141.727V136.273H115.602V141.818C115.602 144.045 116.784 145.114 118.42 145.114C119.739 145.114 120.602 144.409 121.011 143.523H121.102V145H122.443V136.273H121.102V141.432ZM125.081 145H126.376V143.659H126.536C126.831 144.136 127.399 145.182 129.081 145.182C131.263 145.182 132.786 143.432 132.786 140.659C132.786 137.909 131.263 136.159 129.058 136.159C127.354 136.159 126.831 137.205 126.536 137.659H126.422V133.364H125.081V145ZM126.399 140.636C126.399 138.682 127.263 137.364 128.899 137.364C130.604 137.364 131.445 138.795 131.445 140.636C131.445 142.5 130.581 143.977 128.899 143.977C127.286 143.977 126.399 142.614 126.399 140.636ZM138.632 136.273H136.768V134.182H135.428V136.273H134.109V137.409H135.428V142.864C135.428 144.386 136.655 145.114 137.791 145.114C138.291 145.114 138.609 145.023 138.791 144.955L138.518 143.75C138.405 143.773 138.223 143.818 137.928 143.818C137.337 143.818 136.768 143.636 136.768 142.5V137.409H138.632V136.273ZM140.649 145H141.99V136.273H140.649V145ZM141.331 134.818C141.854 134.818 142.286 134.409 142.286 133.909C142.286 133.409 141.854 133 141.331 133C140.808 133 140.376 133.409 140.376 133.909C140.376 134.409 140.808 134.818 141.331 134.818ZM148.241 136.273H146.378V134.182H145.037V136.273H143.719V137.409H145.037V142.864C145.037 144.386 146.264 145.114 147.401 145.114C147.901 145.114 148.219 145.023 148.401 144.955L148.128 143.75C148.014 143.773 147.832 143.818 147.537 143.818C146.946 143.818 146.378 143.636 146.378 142.5V137.409H148.241V136.273ZM151.787 133.364H150.446V145H151.787V133.364ZM157.902 145.182C159.675 145.182 160.97 144.295 161.379 142.977L160.084 142.614C159.743 143.523 158.953 143.977 157.902 143.977C156.328 143.977 155.243 142.96 155.18 141.091H161.516V140.523C161.516 137.273 159.584 136.159 157.766 136.159C155.402 136.159 153.834 138.023 153.834 140.705C153.834 143.386 155.379 145.182 157.902 145.182ZM155.18 139.932C155.271 138.574 156.232 137.364 157.766 137.364C159.22 137.364 160.152 138.455 160.152 139.932H155.18ZM171.851 136.273H169.987V134.182H168.646V136.273H167.328V137.409H168.646V142.864C168.646 144.386 169.874 145.114 171.01 145.114C171.51 145.114 171.828 145.023 172.01 144.955L171.737 143.75C171.624 143.773 171.442 143.818 171.146 143.818C170.555 143.818 169.987 143.636 169.987 142.5V137.409H171.851V136.273ZM177.32 145.182C179.683 145.182 181.274 143.386 181.274 140.682C181.274 137.955 179.683 136.159 177.32 136.159C174.956 136.159 173.365 137.955 173.365 140.682C173.365 143.386 174.956 145.182 177.32 145.182ZM177.32 143.977C175.524 143.977 174.706 142.432 174.706 140.682C174.706 138.932 175.524 137.364 177.32 137.364C179.115 137.364 179.933 138.932 179.933 140.682C179.933 142.432 179.115 143.977 177.32 143.977ZM191.616 136.273H189.753V134.182H188.412V136.273H187.094V137.409H188.412V142.864C188.412 144.386 189.639 145.114 190.776 145.114C191.276 145.114 191.594 145.023 191.776 144.955L191.503 143.75C191.389 143.773 191.207 143.818 190.912 143.818C190.321 143.818 189.753 143.636 189.753 142.5V137.409H191.616V136.273ZM195.162 139.75C195.162 138.227 196.134 137.364 197.457 137.364C198.719 137.364 199.48 138.159 199.48 139.545V145H200.821V139.455C200.821 137.21 199.628 136.159 197.844 136.159C196.469 136.159 195.685 136.733 195.276 137.636H195.162V133.364H193.821V145H195.162V139.75ZM206.933 145.182C208.706 145.182 210.001 144.295 210.411 142.977L209.115 142.614C208.774 143.523 207.984 143.977 206.933 143.977C205.359 143.977 204.274 142.96 204.212 141.091H210.547V140.523C210.547 137.273 208.615 136.159 206.797 136.159C204.433 136.159 202.865 138.023 202.865 140.705C202.865 143.386 204.411 145.182 206.933 145.182ZM204.212 139.932C204.303 138.574 205.263 137.364 206.797 137.364C208.251 137.364 209.183 138.455 209.183 139.932H204.212ZM220.609 148.455C222.7 148.455 224.382 147.5 224.382 145.25V136.273H223.087V137.659H222.95C222.655 137.205 222.109 136.159 220.405 136.159C218.2 136.159 216.678 137.909 216.678 140.591C216.678 143.318 218.268 144.864 220.382 144.864C222.087 144.864 222.632 143.864 222.928 143.386H223.041V145.159C223.041 146.614 222.018 147.273 220.609 147.273C219.024 147.273 218.467 146.438 218.109 145.955L217.041 146.705C217.587 147.619 218.661 148.455 220.609 148.455ZM220.564 143.659C218.882 143.659 218.018 142.386 218.018 140.568C218.018 138.795 218.859 137.364 220.564 137.364C222.2 137.364 223.064 138.682 223.064 140.568C223.064 142.5 222.178 143.659 220.564 143.659ZM226.837 145H228.178V136.273H226.837V145ZM227.518 134.818C228.041 134.818 228.473 134.409 228.473 133.909C228.473 133.409 228.041 133 227.518 133C226.996 133 226.564 133.409 226.564 133.909C226.564 134.409 226.996 134.818 227.518 134.818ZM234.429 136.273H232.565V134.182H231.224V136.273H229.906V137.409H231.224V142.864C231.224 144.386 232.452 145.114 233.588 145.114C234.088 145.114 234.406 145.023 234.588 144.955L234.315 143.75C234.202 143.773 234.02 143.818 233.724 143.818C233.134 143.818 232.565 143.636 232.565 142.5V137.409H234.429V136.273ZM237.974 139.75C237.974 138.227 238.946 137.364 240.27 137.364C241.531 137.364 242.293 138.159 242.293 139.545V145H243.634V139.455C243.634 137.21 242.44 136.159 240.656 136.159C239.281 136.159 238.497 136.733 238.088 137.636H237.974V133.364H236.634V145H237.974V139.75ZM251.587 141.432C251.587 143.068 250.337 143.818 249.337 143.818C248.223 143.818 247.428 143 247.428 141.727V136.273H246.087V141.818C246.087 144.045 247.268 145.114 248.905 145.114C250.223 145.114 251.087 144.409 251.496 143.523H251.587V145H252.928V136.273H251.587V141.432ZM255.565 145H256.861V143.659H257.02C257.315 144.136 257.884 145.182 259.565 145.182C261.747 145.182 263.27 143.432 263.27 140.659C263.27 137.909 261.747 136.159 259.543 136.159C257.838 136.159 257.315 137.205 257.02 137.659H256.906V133.364H255.565V145ZM256.884 140.636C256.884 138.682 257.747 137.364 259.384 137.364C261.088 137.364 261.929 138.795 261.929 140.636C261.929 142.5 261.065 143.977 259.384 143.977C257.77 143.977 256.884 142.614 256.884 140.636ZM269.821 145H271.162V139.477C271.162 138.295 272.094 137.432 273.366 137.432C273.724 137.432 274.094 137.5 274.185 137.523V136.159C274.031 136.148 273.679 136.136 273.48 136.136C272.435 136.136 271.526 136.727 271.207 137.591H271.116V136.273H269.821V145ZM279.168 145.182C280.94 145.182 282.236 144.295 282.645 142.977L281.349 142.614C281.009 143.523 280.219 143.977 279.168 143.977C277.594 143.977 276.509 142.96 276.446 141.091H282.781V140.523C282.781 137.273 280.849 136.159 279.031 136.159C276.668 136.159 275.099 138.023 275.099 140.705C275.099 143.386 276.645 145.182 279.168 145.182ZM276.446 139.932C276.537 138.574 277.497 137.364 279.031 137.364C280.486 137.364 281.418 138.455 281.418 139.932H276.446ZM284.821 148.273H286.162V143.659H286.276C286.571 144.136 287.139 145.182 288.821 145.182C291.003 145.182 292.526 143.432 292.526 140.659C292.526 137.909 291.003 136.159 288.798 136.159C287.094 136.159 286.571 137.205 286.276 137.659H286.116V136.273H284.821V148.273ZM286.139 140.636C286.139 138.682 287.003 137.364 288.639 137.364C290.344 137.364 291.185 138.795 291.185 140.636C291.185 142.5 290.321 143.977 288.639 143.977C287.026 143.977 286.139 142.614 286.139 140.636ZM298.116 145.182C300.48 145.182 302.071 143.386 302.071 140.682C302.071 137.955 300.48 136.159 298.116 136.159C295.753 136.159 294.162 137.955 294.162 140.682C294.162 143.386 295.753 145.182 298.116 145.182ZM298.116 143.977C296.321 143.977 295.503 142.432 295.503 140.682C295.503 138.932 296.321 137.364 298.116 137.364C299.912 137.364 300.73 138.932 300.73 140.682C300.73 142.432 299.912 143.977 298.116 143.977ZM312.163 145.182C314.095 145.182 315.368 144 315.595 142.455H314.254C314.004 143.409 313.209 143.977 312.163 143.977C310.572 143.977 309.55 142.659 309.55 140.636C309.55 138.659 310.595 137.364 312.163 137.364C313.345 137.364 314.05 138.091 314.254 138.886H315.595C315.368 137.25 313.982 136.159 312.141 136.159C309.777 136.159 308.209 138.023 308.209 140.682C308.209 143.295 309.709 145.182 312.163 145.182ZM321.101 145.182C323.464 145.182 325.055 143.386 325.055 140.682C325.055 137.955 323.464 136.159 321.101 136.159C318.737 136.159 317.146 137.955 317.146 140.682C317.146 143.386 318.737 145.182 321.101 145.182ZM321.101 143.977C319.305 143.977 318.487 142.432 318.487 140.682C318.487 138.932 319.305 137.364 321.101 137.364C322.896 137.364 323.714 138.932 323.714 140.682C323.714 142.432 322.896 143.977 321.101 143.977ZM333.926 136.273H332.472L330.062 143.227H329.972L327.562 136.273H326.108L329.335 145H330.699L333.926 136.273ZM339.043 145.182C340.815 145.182 342.111 144.295 342.52 142.977L341.224 142.614C340.884 143.523 340.094 143.977 339.043 143.977C337.469 143.977 336.384 142.96 336.321 141.091H342.656V140.523C342.656 137.273 340.724 136.159 338.906 136.159C336.543 136.159 334.974 138.023 334.974 140.705C334.974 143.386 336.52 145.182 339.043 145.182ZM336.321 139.932C336.412 138.574 337.372 137.364 338.906 137.364C340.361 137.364 341.293 138.455 341.293 139.932H336.321ZM344.696 145H346.037V139.477C346.037 138.295 346.969 137.432 348.241 137.432C348.599 137.432 348.969 137.5 349.06 137.523V136.159C348.906 136.148 348.554 136.136 348.355 136.136C347.31 136.136 346.401 136.727 346.082 137.591H345.991V136.273H344.696V145Z" fill="#C4C3C6"/>
<rect x="620" y="105" width="52.5" height="52.5" fill="#1F242C"/>
<path d="M625.837 157.5H620V163.337H625.837V157.5Z" fill="#1F242C"/>
<path d="M631.674 163.337H625.837V169.174H631.674V163.337Z" fill="#1F242C"/>
<path d="M637.494 157.5H631.658V163.337H637.494V157.5Z" fill="#1F242C"/>
<path d="M625.837 169.158H620V174.995H625.837V169.158Z" fill="#1F242C"/>
<path d="M637.494 169.158H631.658V174.995H637.494V169.158Z" fill="#1F242C"/>
<path d="M643.332 163.337H637.496V169.174H643.332V163.337Z" fill="#1F242C"/>
<path d="M631.674 174.995H625.837V180.832H631.674V174.995Z" fill="#1F242C"/>
<path d="M625.837 180.832H620V186.669H625.837V180.832Z" fill="#1F242C"/>
<path d="M637.494 180.832H631.658V186.669H637.494V180.832Z" fill="#1F242C"/>
<path d="M643.332 174.995H637.496V180.832H643.332V174.995Z" fill="#1F242C"/>
<path d="M631.674 186.668H625.837V192.505H631.674V186.668Z" fill="#1F242C"/>
<path d="M625.837 192.489H620V198.326H625.837V192.489Z" fill="#1F242C"/>
<path d="M637.494 192.489H631.658V198.326H637.494V192.489Z" fill="#1F242C"/>
<path d="M643.332 186.668H637.496V192.505H643.332V186.668Z" fill="#1F242C"/>
<path d="M631.674 198.326H625.837V204.163H631.674V198.326Z" fill="#1F242C"/>
<path d="M625.837 204.164H620V210.001H625.837V204.164Z" fill="#1F242C"/>
<path d="M637.494 204.164H631.658V210.001H637.494V204.164Z" fill="#1F242C"/>
<path d="M643.332 198.326H637.496V204.163H643.332V198.326Z" fill="#1F242C"/>
<path d="M649.168 157.5H643.331V163.337H649.168V157.5Z" fill="#1F242C"/>
<path d="M655.006 163.337H649.169V169.174H655.006V163.337Z" fill="#1F242C"/>
<path d="M660.826 157.5H654.99V163.337H660.826V157.5Z" fill="#1F242C"/>
<path d="M649.168 169.158H643.331V174.995H649.168V169.158Z" fill="#1F242C"/>
<path d="M660.826 169.158H654.99V174.995H660.826V169.158Z" fill="#1F242C"/>
<path d="M666.663 163.337H660.827V169.174H666.663V163.337Z" fill="#1F242C"/>
<path d="M655.006 174.995H649.169V180.832H655.006V174.995Z" fill="#1F242C"/>
<path d="M649.168 180.832H643.331V186.669H649.168V180.832Z" fill="#1F242C"/>
<path d="M660.826 180.832H654.99V186.669H660.826V180.832Z" fill="#1F242C"/>
<path d="M666.663 174.995H660.827V180.832H666.663V174.995Z" fill="#1F242C"/>
<path d="M655.006 186.668H649.169V192.505H655.006V186.668Z" fill="#1F242C"/>
<path d="M649.168 192.489H643.331V198.326H649.168V192.489Z" fill="#1F242C"/>
<path d="M660.826 192.489H654.99V198.326H660.826V192.489Z" fill="#1F242C"/>
<path d="M666.663 186.668H660.827V192.505H666.663V186.668Z" fill="#1F242C"/>
<path d="M655.006 198.326H649.169V204.163H655.006V198.326Z" fill="#1F242C"/>
<path d="M649.168 204.164H643.331V210.001H649.168V204.164Z" fill="#1F242C"/>
<path d="M660.826 204.164H654.99V210.001H660.826V204.164Z" fill="#1F242C"/>
<path d="M672.5 157.5H666.663V163.337H672.5V157.5Z" fill="#1F242C"/>
<path d="M672.5 169.158H666.663V174.995H672.5V169.158Z" fill="#1F242C"/>
<path d="M672.5 180.832H666.663V186.669H672.5V180.832Z" fill="#1F242C"/>
<path d="M672.5 192.489H666.663V198.326H672.5V192.489Z" fill="#1F242C"/>
<path d="M672.5 204.164H666.663V210.001H672.5V204.164Z" fill="#1F242C"/>
<path d="M666.663 198.326H660.827V204.163H666.663V198.326Z" fill="#1F242C"/>
<rect x="631.667" y="52.5" width="5.83333" height="52.5" fill="#1F242C"/>
<rect x="643.333" y="52.5" width="5.83333" height="52.5" fill="#1F242C"/>
<rect x="655" y="52.5" width="5.83333" height="52.5" fill="#1F242C"/>
<rect x="666.667" y="52.5" width="5.83333" height="52.5" fill="#1F242C"/>
<rect x="620" y="52.5" width="5.83668" height="52.5" fill="#1F242C"/>
<rect x="555.833" y="157.5" width="5.83333" height="52.5" transform="rotate(-180 555.833 157.5)" fill="#1F242C"/>
<rect x="544.167" y="157.5" width="5.83333" height="52.5" transform="rotate(-180 544.167 157.5)" fill="#1F242C"/>
<rect x="532.5" y="157.5" width="5.83333" height="52.5" transform="rotate(-180 532.5 157.5)" fill="#1F242C"/>
<rect x="520.833" y="157.5" width="5.83333" height="52.5" transform="rotate(-180 520.833 157.5)" fill="#1F242C"/>
<rect x="567.5" y="157.5" width="5.83668" height="52.5" transform="rotate(-180 567.5 157.5)" fill="#1F242C"/>
<rect x="870.505" y="53.4844" width="5.83333" height="52.5" transform="rotate(-180 870.505 53.4844)" fill="#1F242C"/>
<rect x="858.838" y="53.4844" width="5.83333" height="52.5" transform="rotate(-180 858.838 53.4844)" fill="#1F242C"/>
<rect x="847.172" y="53.4844" width="5.83333" height="52.5" transform="rotate(-180 847.172 53.4844)" fill="#1F242C"/>
<rect x="835.505" y="53.4844" width="5.83333" height="52.5" transform="rotate(-180 835.505 53.4844)" fill="#1F242C"/>
<rect x="882.172" y="53.4844" width="5.83668" height="52.5" transform="rotate(-180 882.172 53.4844)" fill="#1F242C"/>
<path fill-rule="evenodd" clip-rule="evenodd" d="M567.5 163.333V157.5C596.495 157.5 620 181.005 620 210H614.167C614.167 184.227 593.273 163.333 567.5 163.333ZM567.5 175V169.166C590.052 169.166 608.333 187.448 608.333 210H602.5C602.5 190.67 586.83 175 567.5 175ZM567.5 180.834V186.667C580.387 186.667 590.833 197.114 590.833 210L596.667 210C596.667 193.892 583.608 180.834 567.5 180.834ZM567.5 198.333V192.5C577.165 192.5 585 200.335 585 210H579.167C579.167 203.557 573.943 198.333 567.5 198.333ZM567.5 210V204.166C570.722 204.166 573.333 206.778 573.333 210H567.5Z" fill="#1F242C"/>
<path fill-rule="evenodd" clip-rule="evenodd" d="M777 110.833V105C805.995 105 829.5 128.505 829.5 157.5L823.667 157.5C823.667 131.727 802.773 110.833 777 110.833ZM777 122.5V116.667C799.552 116.667 817.833 134.949 817.833 157.5H812C812 138.17 796.33 122.5 777 122.5ZM777 128.333V134.167C789.887 134.167 800.333 144.613 800.333 157.5L806.167 157.5C806.167 141.392 793.108 128.333 777 128.333ZM777 145.833V140C786.665 140 794.5 147.835 794.5 157.5H788.667C788.667 151.056 783.443 145.833 777 145.833ZM777 157.5V151.667C780.222 151.667 782.833 154.279 782.833 157.5H777Z" fill="#1F242C"/>
<path d="M729.112 52.5H725V48.3875L773.387 0H777.5V4.1125L729.112 52.5ZM765.133 0H756.879L725 31.8791V40.1333L765.133 0ZM748.625 0H740.371L725 15.3708V23.625L748.625 0ZM725 0V7.11666L732.117 0H725ZM777.5 20.6208V12.3667L737.367 52.5H745.621L777.5 20.6208ZM777.5 37.1291V28.875L753.875 52.5H762.129L777.5 37.1291ZM777.5 45.3833L770.383 52.5H777.5V45.3833Z" fill="#1F242C"/>
<path d="M672.5 105L725 105L725 52.5C696.005 52.5 672.5 76.0051 672.5 105Z" fill="#1F242C"/>
<path d="M777.5 157.5L777.5 105L725 105C725 133.995 748.505 157.5 777.5 157.5Z" fill="#1F242C"/>
<path fill-rule="evenodd" clip-rule="evenodd" d="M571.17 238.29C560.42 228.43 513.93 193.48 509.17 181.59C505.93 173.73 503.51 162.41 508.79 158.59C511.49 156.59 518.68 154.9 527.73 150C533.87 146.69 541.33 136.83 543.31 135.46C546.13 133.46 581.04 99.6097 588.15 92.4597C595.26 85.3097 598.92 77.9997 601.28 77.5097C609.28 75.9497 624.28 93.6797 626.34 102.51C627.1 105.74 625.79 106.01 622.88 108.63C628.11 114.43 639.03 124.29 647.71 131.91C659.51 142.26 672.4 150.14 676.92 153.96C680 156.56 682.92 151.33 688.35 150.37C698.53 148.58 717.12 173.63 713.19 181.14C704.99 196.86 626.54 260.61 621.51 265.14C618.3 268.03 609.63 269.99 601.73 266.01C593.53 261.88 579.85 246.4 571.17 238.29Z" fill="black"/>
<path fill-rule="evenodd" clip-rule="evenodd" d="M598 240.53C598.751 240.106 599.596 239.879 600.457 239.869C601.319 239.858 602.169 240.065 602.93 240.47C606.15 242.36 609.52 247.24 609.61 247.38L606.24 252.85C604.647 251.506 603.132 250.074 601.7 248.56C599.88 246.76 598.45 242.85 598 240.53Z" fill="#D3D8E0"/>
<path fill-rule="evenodd" clip-rule="evenodd" d="M587.6 245.41C582.22 241.64 571.5 229.9 565.07 224.73C554.01 215.84 542.86 206.85 527.52 194.32C530.641 194.729 533.81 194.081 536.52 192.48C538.88 190.95 598.11 151.01 634.11 135.67C647.41 146.04 644.99 136.59 655.71 147.12L672.51 159.55C663.72 166.15 633.61 199.14 628.69 204.05C617.63 215.05 612.56 216.61 598.69 225.05C589.863 230.49 586.167 237.277 587.6 245.41Z" fill="#D3D8E0"/>
<path fill-rule="evenodd" clip-rule="evenodd" d="M604.67 101.099C606.164 99.3717 607.867 97.8365 609.74 96.5295C612 94.9995 603.55 102.289 604.67 101.099Z" fill="black"/>
<path fill-rule="evenodd" clip-rule="evenodd" d="M530.38 183.46L525.76 187.06C526.085 185.695 526.096 184.274 525.793 182.904C525.49 181.534 524.88 180.25 524.01 179.15C521.943 176.394 519.298 174.124 516.26 172.5C514.12 171.64 512.63 171.63 511.79 172.5C511.58 171.34 513.09 171.13 518.79 167.31C520.91 168.98 525.22 169.5 527.12 171.83C530.92 176.44 530.48 182 530.38 183.46Z" fill="white"/>
<path fill-rule="evenodd" clip-rule="evenodd" d="M579 235.379C581.15 229.759 598 212.099 610.42 217.249C611.2 217.579 598.04 226.559 596.09 228.169C594.35 229.609 592.09 230.669 591.99 234.669C591.9 238.159 593.34 244.919 595.25 247.209C597.65 250.079 601.8 257.599 611.41 258.529C613.17 256.639 612.76 257.239 616.8 253.379C620.66 257.379 617.04 260.679 617.12 261.189C612.34 263.776 606.864 262.469 600.69 257.269C591.47 249.449 578.86 238.699 579 235.379Z" fill="#D3D8E0"/>
<path fill-rule="evenodd" clip-rule="evenodd" d="M686.41 157C694.79 157.11 704.76 169 706.82 180.69C702.259 183.585 697.914 186.807 693.82 190.33C670.47 209.66 619.36 244.83 616.99 245.47C609.18 236.88 604.89 230.39 596.57 233.85C595.67 234.23 600.64 230.71 603.57 228.94C610.64 224.68 619.91 221.08 624.51 217.43C630.16 212.94 672.96 174.43 675.21 171.71C677.46 168.99 684.36 158 686.41 157Z" fill="#D3D8E0"/>
<path fill-rule="evenodd" clip-rule="evenodd" d="M620.71 249.999C619.42 248.529 612.53 238.579 610.52 236.889C623.89 233.799 625.36 232.109 635.58 225.719C640.19 222.829 697.22 165.109 697.03 165.239C696.84 165.369 698.76 164.929 700.3 167.709C702.28 171.269 630.49 247.739 620.71 249.999Z" fill="white"/>
<path fill-rule="evenodd" clip-rule="evenodd" d="M518.13 167.08C520.32 165.56 524.41 169.16 526.27 171.31C525.841 172.076 525.234 172.727 524.499 173.208C523.764 173.689 522.924 173.984 522.05 174.07C520.015 174.276 517.967 173.854 516.18 172.86C514.09 171.93 513.74 171.61 511.83 172.76C511.62 171.56 512.65 170.89 518.13 167.08Z" fill="#D3D8E0"/>
<path fill-rule="evenodd" clip-rule="evenodd" d="M522.91 186C522.261 186.211 521.576 186.287 520.897 186.224C520.217 186.16 519.558 185.958 518.96 185.63C516.7 184.13 514.84 180.69 514.79 180.63L518.43 177.37C519.461 178.362 520.43 179.418 521.33 180.53C522.47 181.82 522.94 184.47 522.91 186Z" fill="#D3D8E0"/>
<path fill-rule="evenodd" clip-rule="evenodd" d="M532.72 172.19C525.21 164.97 518.08 160.61 510.21 163.57C509.35 163.89 509 162.22 511.8 160.67C518.53 156.91 533.02 151.54 537.42 148.28C538.34 147.6 548.85 136.48 555.6 133.21C561.17 130.5 563.44 136.86 563.3 138.21C562.61 145 534.26 171.83 532.72 172.19Z" fill="#D3D8E0"/>
<path fill-rule="evenodd" clip-rule="evenodd" d="M570.33 155.26L535.66 183.57C535.966 182.019 535.879 180.416 535.408 178.907C534.936 177.398 534.095 176.031 532.96 174.93C529.96 171.68 528.96 168.65 526.88 168.04C524.19 167.28 536.01 163.88 545.77 158.89C550.18 156.64 564.82 148.43 566.22 146.82C567.62 145.21 568.09 143.63 569.22 146.28C570.79 149.67 571.07 154.59 570.33 155.26Z" fill="white"/>
<path fill-rule="evenodd" clip-rule="evenodd" d="M616.9 93.3697C617.33 93.2897 619.81 94.9897 618.8 95.3697C617.652 95.9254 616.444 96.3482 615.2 96.6297C616.03 95.8397 615.95 94.9297 616.31 94.1397C616.234 94.191 616.154 94.2346 616.07 94.2697C612.07 95.9497 612.71 95.9697 608.24 97.2697C610.73 95.0797 610.01 92.0297 612.46 90.1497C613.23 89.9597 616.74 92.2597 616.63 93.5697C616.715 93.4964 616.805 93.4295 616.9 93.3697Z" fill="black"/>
<path fill-rule="evenodd" clip-rule="evenodd" d="M706.89 174.909C707.55 174.909 710.25 177.449 708.6 177.729C706.677 178.169 704.72 178.447 702.75 178.559C704.36 177.749 704.75 176.629 705.63 175.739C705.5 175.788 705.366 175.825 705.23 175.849C698.89 177.379 698.89 177.379 694.91 178.609C698.017 175.145 700.702 171.325 702.91 167.229C704.12 167.149 707.24 173.599 706.4 175.229C706.555 175.11 706.719 175.003 706.89 174.909Z" fill="black"/>
<path fill-rule="evenodd" clip-rule="evenodd" d="M521.81 165.53C521.38 165.61 518.81 164.01 519.81 163.58C520.939 162.989 522.129 162.522 523.36 162.19C522.56 163.02 522.67 163.92 522.36 164.72C522.43 164.666 522.508 164.623 522.59 164.59C526.49 162.77 525.89 162.77 530.31 161.26C527.9 163.53 528.73 166.56 526.31 168.52C525.55 168.74 521.97 166.52 522.03 165.25C521.964 165.349 521.891 165.443 521.81 165.53Z" fill="black"/>
<path fill-rule="evenodd" clip-rule="evenodd" d="M544.86 187.43L593.17 250.72C584.39 243.493 578.447 238.07 575.34 234.45C572.57 231.21 529.96 196.07 530.13 196.21C530.3 196.35 528.58 194.56 530.75 194.6C533.09 194.64 537.793 192.25 544.86 187.43Z" fill="white"/>
<path d="M741 164.92C738.74 163.92 735.26 163.84 733.27 165.4C699.02 191.35 693.87 196.3 659.55 222.17C643.38 234.4 645.66 233.41 631.44 250.33C632.22 251.11 633.44 250.61 634.35 250.26C639.25 248.78 639.88 250.19 644.58 248.07C648.58 246.24 651.92 245.49 655.76 243.37C659.223 241.539 662.563 239.484 665.76 237.22C701.28 213.22 688.88 223.44 724.7 197.5C731.7 192.41 742.77 185.63 747.5 177.98C750.3 173.81 745.22 166.77 741 164.92Z" fill="black"/>
<path d="M645.19 241.771C654.33 232.971 650.81 235.101 660.14 228.571C697.73 202.471 689.59 206.041 725.83 178.141C727.921 176.422 730.288 175.07 732.83 174.141C737.03 172.831 740.59 174.481 738.49 179.021C737.02 182.381 730.74 185.481 727.84 187.541C717.053 195.541 706.177 203.417 695.21 211.171C673.21 226.841 685.82 216.941 663.3 231.781C650.76 240.191 657.61 234.901 645.19 241.771Z" fill="white"/>
<path d="M728.93 171.64C731.13 176.64 734.8 180.77 733.72 186.69C733.685 187.054 733.789 187.418 734.011 187.708C734.233 187.999 734.557 188.195 734.918 188.257C735.278 188.319 735.649 188.242 735.955 188.042C736.261 187.843 736.481 187.535 736.57 187.18C737.85 181.9 734.77 173.18 729.28 171.43C729 171.29 728.79 171.5 728.93 171.64Z" fill="black"/>
<path d="M728.64 179.22C728.77 180.58 729.24 181.89 729.38 183.22C729.405 184.707 729.332 186.194 729.16 187.67C729.09 188.67 730.52 189.45 731.01 188.29C732.24 185.56 731.64 180.71 729.01 178.98C728.87 178.98 728.6 179.12 728.67 179.19L728.64 179.22Z" fill="black"/>
<path d="M726.52 183.11C726.2 185.01 726.09 186.98 725.7 188.94C725.67 189.097 725.674 189.259 725.71 189.415C725.747 189.571 725.815 189.718 725.911 189.846C726.006 189.975 726.128 190.082 726.267 190.161C726.406 190.24 726.56 190.29 726.72 190.306C726.879 190.323 727.04 190.306 727.193 190.258C727.345 190.209 727.486 190.129 727.607 190.023C727.727 189.918 727.824 189.788 727.892 189.643C727.959 189.498 727.996 189.34 728 189.18C728.375 187.076 727.943 184.909 726.79 183.11C726.72 183.04 726.52 182.98 726.52 183.11Z" fill="black"/>
<path d="M710.16 196.441C710.16 197.321 710.52 198.191 710.49 199.141C710.46 200.091 710.04 201.041 709.95 201.921C709.919 202.143 709.964 202.369 710.078 202.563C710.191 202.756 710.366 202.906 710.575 202.988C710.784 203.07 711.015 203.08 711.229 203.015C711.444 202.95 711.631 202.815 711.76 202.631C713.09 200.921 712.91 197.271 711.19 195.951C710.78 195.821 710.1 195.951 710.19 196.441H710.16Z" fill="black"/>
<path d="M705.71 198.41C705.35 199.59 705.71 200.97 705.71 202.21C705.71 202.9 705.71 203.52 705.71 204.21C705.71 204.9 705.55 205.46 705.95 206.01C706.004 206.104 706.08 206.185 706.171 206.244C706.262 206.304 706.366 206.341 706.474 206.353C706.582 206.364 706.692 206.35 706.794 206.312C706.896 206.273 706.987 206.211 707.06 206.13C708.06 205.13 707.66 203.13 707.48 201.92C707.3 200.71 706.97 199.02 705.88 198.34C705.81 198.27 705.67 198.41 705.67 198.41H705.71Z" fill="black"/>
<path d="M696.73 198.421C698.02 200.831 699.99 203.111 700.51 205.871C700.77 207.381 700.14 208.281 699.99 209.661C699.974 210.079 700.089 210.492 700.32 210.841C700.468 211.024 700.658 211.169 700.874 211.265C701.089 211.361 701.325 211.404 701.56 211.391C704.19 211.101 703.82 206.391 703.29 204.751C702.43 201.651 699.89 199.521 696.94 198.211C696.8 198.071 696.66 198.211 696.73 198.421Z" fill="black"/>
<path d="M696.37 206.601C695.99 207.271 696.45 208.271 696.48 208.961C696.705 209.847 696.678 210.779 696.4 211.651C696.01 212.191 696.6 212.911 697.15 212.941C698.61 213.091 698.44 210.801 698.32 209.751C698.21 208.851 697.56 206.871 696.51 206.611L696.37 206.601Z" fill="black"/>
<path d="M691.62 210.6C691.37 212.6 691.82 214.37 691.08 216.24C690.48 217.69 692.66 218.93 693.26 217.48C694.14 215.33 694.36 211.71 691.97 210.4C691.69 210.4 691.62 210.46 691.62 210.6Z" fill="black"/>
<path d="M679.53 224.15C679.65 222.64 679.28 220.23 677.9 219.38C677.62 219.24 677.21 219.38 677.21 219.65C677.02 220.95 677.45 222.33 677.21 223.65C677.111 224.368 676.884 225.062 676.54 225.7L679.53 224.15Z" fill="black"/>
<path fill-rule="evenodd" clip-rule="evenodd" d="M642.18 72.5398C644.788 72.4995 647.393 72.7139 649.96 73.1798C672.28 75.8298 688.27 76.4598 700.17 76.3498C707.17 76.2898 722.17 74.6898 726.82 73.0998C731.47 71.5098 741.49 67.6698 742.36 67.4598C747.87 73.9998 755 77.8198 758.83 89.6498C760.77 95.6498 769.83 111.27 769.83 117.58C765.3 119.58 728 126.82 721.76 130.49C714.91 134.49 707.01 143.23 708.66 144.75C714.76 150.4 705.54 171.12 689.29 158.29C689.85 159.58 685.12 176.29 675.72 171.1C676.11 175.54 667.96 179.76 661.6 178.42C661.37 181 659.18 182.36 656.96 183.98C654.46 185.81 648.06 184.29 641.96 183.04C637.442 184.102 632.758 184.255 628.18 183.49C624.5 182.256 622.553 180.79 622.34 179.09C616.02 180.64 606.94 176.83 607.17 172.37C597.96 177.93 590.96 164.69 591.47 163.37C583.6 164.87 577.47 149.67 579.59 140.83C573.952 136.628 568.017 132.841 561.83 129.5C555.47 126.04 534.83 115.95 530.23 114.09C529.992 107.65 530.744 101.212 532.46 94.9998C535.339 84.7812 540.149 75.2087 546.63 66.7998C547.51 66.9798 548.39 67.1898 549.27 67.4598C554.02 68.8798 571.84 78.5198 578.79 78.3398C590.68 78.0298 606.64 76.8498 628.85 73.4198C631.401 72.8682 634 72.5635 636.61 72.5098C637.666 72.5365 638.719 72.6435 639.76 72.8298C640.559 72.6804 641.368 72.5835 642.18 72.5398Z" fill="black"/>
<path fill-rule="evenodd" clip-rule="evenodd" d="M540.21 92.5898C543.35 81.6498 544.94 78.7398 549.78 72.5898C550.59 72.7598 551.39 72.9598 552.2 73.1998C556.55 74.4998 574 83.9998 580.39 83.7898C591.28 83.5098 610.12 81.4898 630.45 78.3498C632.788 77.8494 635.169 77.5715 637.56 77.5198C639.594 77.5998 641.61 77.9358 643.56 78.5198C648.065 79.7062 652.482 81.2031 656.78 82.9998C655.86 83.5698 662.87 98.1198 673.34 113.5C682.98 127.66 697.94 138.5 703.53 143.7C709.12 148.9 701.64 161.81 686.76 150.06C687.27 151.25 680.31 161.36 671.76 156.58C672.12 160.64 664.66 164.5 658.83 163.28C658.62 165.64 656.47 167.35 654.59 168.37C652.71 169.39 650.52 169.14 648.23 168.68C645.94 168.22 651.37 155.4 647.93 154.36C634.77 150.36 606.78 155.48 598.93 150.21C596.87 147.98 605.55 129.21 602.53 124.65C600.41 121.48 580.53 133.91 578.53 130.76C576.1 126.76 578.22 127.65 567.78 117.37C557.34 107.09 554.48 101.36 540.21 92.5898Z" fill="#D3D8E0"/>
<path fill-rule="evenodd" clip-rule="evenodd" d="M615.85 99.4701C618.52 99.0701 620.27 97.9201 621.08 96.0401C623.03 91.5301 629.7 85.3501 627.87 83.6701C622.87 81.9401 584.87 87.2101 579.3 87.4601C573.73 87.7101 553.72 75.3301 550.76 78.7401C547.8 82.1501 559.21 92.9401 571.44 94.2901C578.98 95.1235 593.783 96.8501 615.85 99.4701Z" fill="white"/>
<path fill-rule="evenodd" clip-rule="evenodd" d="M649.75 96.2897C649.147 95.8837 648.445 95.6496 647.719 95.6126C646.993 95.5756 646.271 95.7371 645.63 96.0797C642.85 97.7197 636.89 98.4197 637.22 100.08C638.32 101.67 648.72 105.98 663.14 116.36C674.62 124.64 690.66 139.46 692.02 140.36C695.1 142.36 699.02 147.65 701.95 146.99C704.88 146.33 703.46 144.82 697.43 139.33C693.723 135.916 677.83 121.57 649.75 96.2897Z" fill="white"/>
<path fill-rule="evenodd" clip-rule="evenodd" d="M679 114.27C678.69 116.01 679.81 119.96 679.24 121.58C674.12 116.02 671.36 115.58 664.87 110.99C658.38 106.4 659.71 107.69 650.14 107.37C640.57 107.05 631.95 115.08 624.83 116.91C618.45 118.56 609.38 117.34 607.5 111.45C605.62 105.56 611.55 100.52 617.5 94.92C623.45 89.32 622.5 76.86 633.5 75.57C637.16 75.14 644.08 75.43 647.95 75.1C652.84 74.69 665.77 76.24 668.01 75.25C680 83.77 681.47 100.45 679 114.27Z" fill="black"/>
<path fill-rule="evenodd" clip-rule="evenodd" d="M719.53 79.2396C743.19 72.7196 751.59 88.9696 752.84 95.8696C753.84 101.27 732.15 105.59 726.76 109.4C723.42 111.76 724.62 118.59 722.57 121.74C720.06 125.6 705.47 136.3 705.13 140.18C699.99 139.73 680.79 115.96 675.49 111.13C670.081 106.13 664.174 101.7 657.86 97.9096C655.31 96.4096 647.22 98.4696 642.8 101C635.93 104.94 632 109.11 625.44 111.43C619.55 113.51 609.84 113.16 610.18 109.3C610.52 105.44 616.02 101.77 621.18 95.9996C626.34 90.2296 626.71 79.5596 637 77.4296C640.42 76.7196 643.59 77.0696 647.21 76.4296C651.8 75.6396 658.89 77.5096 678.32 79.2396C692.032 80.4035 705.818 80.4035 719.53 79.2396Z" fill="#D3D8E0"/>
<path fill-rule="evenodd" clip-rule="evenodd" d="M705.94 142.85C705.31 141.64 710.01 136.93 710.52 134.95C711.03 132.97 697.61 131.81 701.19 125.47C704.77 119.13 705 121.96 710.19 114.11C702.19 120.22 687.49 118.94 671.53 108.72C675.81 114.74 702.37 142.15 705.94 142.85Z" fill="black"/>
<path fill-rule="evenodd" clip-rule="evenodd" d="M658.89 106.669C658.48 106.229 659.52 103.429 659.42 102.469C659.32 101.509 654.2 102.999 654.59 99.6395C654.98 96.2795 655.48 97.5095 656.26 93.2295C654.19 97.1495 648.61 98.7695 641.26 96.5995C643.67 98.6495 657.47 106.899 658.89 106.669Z" fill="black"/>
<path fill-rule="evenodd" clip-rule="evenodd" d="M691.16 95.1203C698.96 96.3269 704.807 95.6003 708.7 92.9403C717.073 85.2403 720.607 80.9669 719.3 80.1203C712.293 81.3203 696.34 81.2269 671.44 79.8403C654.193 76.8203 644.677 76.2069 642.89 78.0003C641.103 79.7936 643.567 81.8669 650.28 84.2203C660.4 85.4003 667.263 86.5036 670.87 87.5303C680.82 90.3203 686.11 94.3303 691.16 95.1203Z" fill="white"/>
<path fill-rule="evenodd" clip-rule="evenodd" d="M658.87 126.06C658.01 127.06 664.5 133.74 667.57 136.41C677.75 144.73 683.35 151.01 684.37 155.25C684.623 152.33 688.07 152.373 694.71 155.38C688.083 149.64 683.75 145.883 681.71 144.11L664.34 129.38C661.26 126.71 659.72 125.08 658.87 126.06Z" fill="black"/>
<path fill-rule="evenodd" clip-rule="evenodd" d="M648 134C647.14 135 653.63 141.68 656.7 144.35C664.74 151.283 669.266 156.867 670.28 161.1C670.533 158.18 673.983 158.223 680.63 161.23C673.963 155.49 669.63 151.73 667.63 149.95L653.5 137.35C650.43 134.68 648.89 133 648 134Z" fill="black"/>
<path fill-rule="evenodd" clip-rule="evenodd" d="M609.47 108.6C611.3 110.21 616.33 110.48 617.47 109.42L620.42 104.54C621.18 103.873 621.513 100.957 621.42 95.79C619.02 98.1 617.42 99.6 616.68 100.31L609.75 105.64C608.58 106.7 607.64 107 609.47 108.6Z" fill="black"/>
<path fill-rule="evenodd" clip-rule="evenodd" d="M639.77 145.83C639.01 146.7 640.93 150.83 643.25 152.83L652.18 159.63C653.09 160.42 656.78 168.63 657.07 167.87C657.95 165.7 660.07 165.28 663.39 166.61C659.343 162.563 656.547 159.863 655 158.51L642.35 147C640 145 640.52 145 639.77 145.83Z" fill="black"/>
<path d="M646.48 149.499C647.199 150.147 647.783 150.929 648.199 151.802C648.615 152.675 648.855 153.622 648.905 154.587C648.955 155.553 648.815 156.52 648.491 157.431C648.168 158.343 647.668 159.181 647.02 159.899L637.69 170.269C634.97 173.269 629.83 173.539 626.69 172.109C623.55 170.679 620.81 166.819 623.53 163.799L636.05 150.049C636.697 149.327 637.481 148.739 638.357 148.32C639.232 147.901 640.181 147.659 641.151 147.608C642.12 147.557 643.089 147.698 644.004 148.022C644.918 148.347 645.76 148.849 646.48 149.499Z" fill="black"/>
<path d="M637.54 152.21L625 166C624.68 166.319 624.477 166.736 624.424 167.185C624.372 167.633 624.472 168.086 624.71 168.47C625.331 169.606 626.302 170.512 627.48 171.05C630.18 172.29 634.2 171.77 636.06 169.71L645.39 159.34C645.884 158.828 646.27 158.221 646.524 157.557C646.779 156.892 646.897 156.183 646.871 155.472C646.846 154.76 646.677 154.061 646.376 153.417C646.074 152.772 645.646 152.195 645.117 151.719C644.587 151.243 643.968 150.879 643.294 150.648C642.621 150.417 641.908 150.324 641.198 150.375C640.489 150.425 639.796 150.618 639.162 150.942C638.529 151.266 637.967 151.714 637.51 152.26L637.54 152.21Z" fill="#D3D8E0"/>
<path d="M638.42 138.37C640.073 139.864 641.26 142.947 641.98 147.62C640.937 148.413 639.957 149.286 639.05 150.23L626.05 164.62C624.587 166.302 622.515 167.335 620.291 167.49C618.068 167.646 615.873 166.912 614.19 165.45C610.74 162.35 608.08 158.78 611.19 155.34L626.57 139C627.306 138.181 628.197 137.514 629.191 137.039C630.186 136.564 631.264 136.289 632.364 136.231C633.465 136.172 634.566 136.331 635.605 136.698C636.644 137.065 637.6 137.633 638.42 138.37Z" fill="black"/>
<path d="M611.61 160.199C612.027 161.625 612.872 162.889 614.03 163.819C615.306 164.913 616.963 165.457 618.638 165.332C620.314 165.206 621.872 164.421 622.97 163.149L636.97 149.309C637.526 148.692 637.955 147.97 638.233 147.187C638.51 146.403 638.63 145.572 638.587 144.742C638.543 143.912 638.336 143.098 637.978 142.348C637.62 141.598 637.118 140.926 636.5 140.369C635.882 139.813 635.161 139.384 634.377 139.107C633.593 138.83 632.763 138.709 631.933 138.753C631.103 138.797 630.289 139.003 629.539 139.361C628.789 139.719 628.116 140.222 627.56 140.839L612.17 157.199C611.763 157.57 611.488 158.064 611.387 158.605C611.286 159.147 611.364 159.707 611.61 160.199Z" fill="#D3D8E0"/>
<path d="M626.64 128.69L626.77 128.81C627.916 129.888 628.814 131.202 629.403 132.661C629.992 134.12 630.257 135.689 630.18 137.26L627.26 140.55L610.58 158.32C607.46 161.65 601.97 161.51 598.64 159.68C595.31 157.85 592.55 153.46 595.64 150.08L599.95 145.27L614.95 129.19C616.452 127.606 618.512 126.667 620.694 126.574C622.875 126.481 625.008 127.24 626.64 128.69Z" fill="black"/>
<path d="M615.85 131.07L600.85 147.16L598.73 149.53L596.57 151.93C596.165 152.347 595.9 152.881 595.812 153.456C595.724 154.032 595.818 154.62 596.08 155.14C596.59 156.38 596.96 156.14 598.29 156.88C601.29 158.52 605.57 158.22 607.73 155.88L625.2 139.6L625.28 139.51C625.821 138.909 626.239 138.207 626.51 137.445C626.781 136.682 626.898 135.874 626.857 135.066C626.815 134.259 626.614 133.467 626.266 132.736C625.919 132.006 625.431 131.351 624.83 130.81L624.7 130.7C623.469 129.591 621.854 129.01 620.199 129.079C618.545 129.148 616.983 129.863 615.85 131.07Z" fill="#D3D8E0"/>
<path d="M608.05 125.639C610.26 127.639 610.58 130.089 612.5 131.819C614.42 133.549 609.78 136.269 608.67 137.499L598 149.769C594.9 153.219 590.37 155.379 586.81 153.199C583.25 151.019 580.13 144.139 583.24 140.699L596.24 126.269C597.728 124.628 599.803 123.642 602.015 123.524C604.227 123.406 606.396 124.166 608.05 125.639Z" fill="black"/>
<path d="M607.11 136.139C607.666 135.522 608.095 134.8 608.372 134.017C608.65 133.233 608.77 132.402 608.726 131.572C608.683 130.742 608.476 129.929 608.118 129.178C607.76 128.428 607.258 127.756 606.64 127.199C606.022 126.643 605.3 126.214 604.517 125.937C603.733 125.66 602.902 125.539 602.072 125.583C601.242 125.627 600.429 125.833 599.678 126.191C598.928 126.549 598.256 127.052 597.7 127.669L584.7 142.099C584.21 142.649 582.99 144.759 583.7 146.629C584.21 148.019 585.98 148.869 586.55 149.219C588.79 150.589 592.45 149.309 595.33 146.119L607.11 136.139Z" fill="#D3D8E0"/>
<path d="M586.49 145.3C585.8 144.59 584.96 144.06 584.27 143.3C583.596 142.471 582.978 141.6 582.42 140.69C582 140.08 580.85 140.29 581.1 141.16C581.61 143.25 584.1 145.73 586.38 145.52C586.46 145.46 586.56 145.26 586.49 145.25V145.3Z" fill="black"/>
<path d="M614.06 160.66C613.52 160.1 612.86 159.66 612.33 159.14C611.8 158.506 611.313 157.838 610.87 157.14C610.55 156.66 609.65 156.82 609.87 157.5C610.27 159.13 612.23 161.06 614.01 160.89C614.07 160.89 614.14 160.69 614.09 160.69L614.06 160.66Z" fill="black"/>
<path d="M614.18 158.459C613.65 157.909 612.98 157.459 612.45 156.939C611.916 156.311 611.431 155.642 611 154.939C610.67 154.469 609.77 154.629 610 155.299C610.41 156.929 612.36 158.859 614.14 158.699C614.2 158.699 614.28 158.499 614.22 158.489L614.18 158.459Z" fill="black"/>
<path fill-rule="evenodd" clip-rule="evenodd" d="M605.15 126.89C603.86 125.81 600.5 125.89 599.8 126.7L598.07 130.43C597.37 131.26 597.75 133.83 599.07 135.22C600.39 136.61 603.75 136.53 604.45 135.69L607.85 132.02C608.51 131.19 606.44 128 605.15 126.89Z" fill="black"/>
<path fill-rule="evenodd" clip-rule="evenodd" d="M623.91 129.83C622.62 128.75 619.27 128.83 618.57 129.64L616.83 133.37C616.13 134.2 616.52 136.78 617.83 138.16C619.14 139.54 622.51 139.47 623.21 138.63L626.21 135.9C626.82 134.14 625.21 130.92 623.91 129.83Z" fill="black"/>
<path fill-rule="evenodd" clip-rule="evenodd" d="M635.53 139.41C634.23 138.32 630.88 138.41 630.18 139.21L628.44 142.94C627.74 143.78 628.13 146.35 629.44 147.73C630.75 149.11 634.12 149.04 634.82 148.21L637.55 145.45C638.21 144.61 636.82 140.49 635.53 139.41Z" fill="black"/>
<path fill-rule="evenodd" clip-rule="evenodd" d="M635.32 140.84C633.7 139.63 631.89 138.76 631.32 139.44L629.73 142.83C629.362 143.343 629.198 143.975 629.268 144.602C629.338 145.23 629.638 145.81 630.11 146.23C630.96 147.16 631.49 136.88 636.99 144.05C637.51 144.72 637 142 635.32 140.84Z" fill="white"/>
<path fill-rule="evenodd" clip-rule="evenodd" d="M623 129.87C621.91 128.97 619.09 129.03 618.49 129.74L617 132.9C616.4 133.61 616.71 135.79 617.78 136.9C618.85 138.01 617.54 133.59 623 129.87Z" fill="white"/>
<path fill-rule="evenodd" clip-rule="evenodd" d="M604.32 126.69C603.24 125.78 600.48 125.76 599.92 126.43L598.56 129.43C598 130.1 598.37 132.21 599.44 133.36C600.51 134.51 599.13 130.12 604.32 126.69Z" fill="white"/>
<path fill-rule="evenodd" clip-rule="evenodd" d="M613.35 108.41C612.02 107.71 609.87 106.63 610.35 105.76L612.88 103.06C615.04 100.64 616.65 99.6303 617.69 100.06C619.25 100.6 615 102.16 613.35 108.41Z" fill="white"/>
<path fill-rule="evenodd" clip-rule="evenodd" d="M683.48 150.51C684.26 152.35 684.48 153.58 684.2 154.2C683.939 154.768 683.514 155.245 682.979 155.568C682.444 155.891 681.824 156.045 681.2 156.01C680.34 155.52 678.52 150.86 672.59 144.01C667.86 138.55 659.59 131.06 659.09 130.41C657.92 128.94 658.57 126.19 658.92 126.06C659.27 125.93 658.15 126.81 661.2 129.63C663.066 131.364 670.493 138.323 683.48 150.51Z" fill="white"/>
<path fill-rule="evenodd" clip-rule="evenodd" d="M669.87 156.55C670.52 158.12 670.72 159.16 670.47 159.69C670.245 160.173 669.882 160.577 669.426 160.852C668.969 161.126 668.442 161.258 667.91 161.23C667.19 160.81 665.64 156.86 660.61 151.04C656.61 146.4 650.87 140.65 650.42 140.09C649.42 138.84 647.59 136.2 647.76 134.93C647.93 133.66 648.05 135.13 650.65 137.52C652.25 138.993 658.657 145.337 669.87 156.55Z" fill="white"/>
<path fill-rule="evenodd" clip-rule="evenodd" d="M644.91 150.78C643.75 149.78 640.75 149.88 640.12 150.63L638.55 154C637.92 154.75 638.26 157.06 639.39 158.29C640.52 159.52 643.58 159.45 644.21 158.7L647.27 155.39C647.9 154.62 646.06 151.75 644.91 150.78Z" fill="black"/>
<path fill-rule="evenodd" clip-rule="evenodd" d="M645.3 151.79C643.68 150.58 641.87 149.71 641.3 150.39L639.71 153.78C639.342 154.294 639.178 154.925 639.248 155.553C639.318 156.18 639.618 156.76 640.09 157.18C640.94 158.11 641.47 147.83 646.97 155C647.49 155.67 646.92 153 645.3 151.79Z" fill="white"/>
<path d="M579.48 199.55L569.76 206.86C570.58 207.66 571.4 208.46 572.21 209.27L577.56 205.5L587.87 216.45C588.69 217.34 588.45 218.57 587.35 219.62L584.67 222L588.67 224.14L592.85 220.66C593.479 220.202 593.989 219.6 594.337 218.904C594.685 218.207 594.861 217.438 594.85 216.66C594.769 215.857 594.416 215.105 593.85 214.53L579.48 199.55Z" fill="black"/>
<path fill-rule="evenodd" clip-rule="evenodd" d="M605.63 202.92C618.09 191.22 626.8 183.7 631.63 180.41C638.96 175.47 639.63 175.5 632.57 183.29C625.51 191.08 620.63 194.61 613.35 199.91C608.543 203.424 605.97 204.427 605.63 202.92Z" fill="black"/>
<path fill-rule="evenodd" clip-rule="evenodd" d="M621.68 173C604.97 187.24 608.23 184.4 602.11 188.43C592.96 194.43 592.19 194.43 601.52 185.43C610.85 176.43 609.97 176.83 619.41 170.21C625.73 165.76 621.58 171.37 621.68 173Z" fill="black"/>
<path fill-rule="evenodd" clip-rule="evenodd" d="M605.32 168.93C597.69 174.58 591.56 179.19 586.48 183.03C576.3 190.72 570.35 195.27 565.06 198.63C556.58 204 555.7 203.96 551.83 198.54C547.96 193.12 552.08 192.64 555.7 189.75C568.8 179.34 579.93 170.6 592.39 162.37C600.77 156.83 603 169.73 605.32 168.93Z" fill="black"/>
<path fill-rule="evenodd" clip-rule="evenodd" d="M597.37 170.721L561.13 200.861C567.85 197.101 572.257 194.351 574.35 192.611C576.22 191.051 605.17 172.741 605.06 172.811C604.95 172.881 606.06 172.021 604.87 171.881C603.68 171.741 601.05 171.331 597.37 170.721Z" fill="white"/>
</g>
<defs>
<clipPath id="clip0">
<rect width="882" height="300" fill="white"/>
</clipPath>
</defs>
</svg>
