<svg width="882" height="300" viewBox="0 0 882 300" fill="none" xmlns="http://www.w3.org/2000/svg">
<g clip-path="url(#clip0)">
<rect width="882" height="300" fill="white"/>
<rect width="882" height="210" fill="black"/>
<rect x="620" y="105" width="52.5" height="52.5" fill="#1F242C"/>
<path d="M625.837 157.5H620V163.337H625.837V157.5Z" fill="#1F242C"/>
<path d="M631.674 163.337H625.837V169.174H631.674V163.337Z" fill="#1F242C"/>
<path d="M637.494 157.5H631.658V163.337H637.494V157.5Z" fill="#1F242C"/>
<path d="M625.837 169.158H620V174.995H625.837V169.158Z" fill="#1F242C"/>
<path d="M637.494 169.158H631.658V174.995H637.494V169.158Z" fill="#1F242C"/>
<path d="M643.332 163.337H637.496V169.174H643.332V163.337Z" fill="#1F242C"/>
<path d="M631.674 174.995H625.837V180.832H631.674V174.995Z" fill="#1F242C"/>
<path d="M625.837 180.832H620V186.669H625.837V180.832Z" fill="#1F242C"/>
<path d="M637.494 180.832H631.658V186.669H637.494V180.832Z" fill="#1F242C"/>
<path d="M643.332 174.995H637.496V180.832H643.332V174.995Z" fill="#1F242C"/>
<path d="M631.674 186.668H625.837V192.505H631.674V186.668Z" fill="#1F242C"/>
<path d="M625.837 192.489H620V198.326H625.837V192.489Z" fill="#1F242C"/>
<path d="M637.494 192.489H631.658V198.326H637.494V192.489Z" fill="#1F242C"/>
<path d="M643.332 186.668H637.496V192.505H643.332V186.668Z" fill="#1F242C"/>
<path d="M631.674 198.326H625.837V204.163H631.674V198.326Z" fill="#1F242C"/>
<path d="M625.837 204.164H620V210.001H625.837V204.164Z" fill="#1F242C"/>
<path d="M637.494 204.164H631.658V210.001H637.494V204.164Z" fill="#1F242C"/>
<path d="M643.332 198.326H637.496V204.163H643.332V198.326Z" fill="#1F242C"/>
<path d="M649.168 157.5H643.331V163.337H649.168V157.5Z" fill="#1F242C"/>
<path d="M655.006 163.337H649.169V169.174H655.006V163.337Z" fill="#1F242C"/>
<path d="M660.826 157.5H654.99V163.337H660.826V157.5Z" fill="#1F242C"/>
<path d="M649.168 169.158H643.331V174.995H649.168V169.158Z" fill="#1F242C"/>
<path d="M660.826 169.158H654.99V174.995H660.826V169.158Z" fill="#1F242C"/>
<path d="M666.663 163.337H660.826V169.174H666.663V163.337Z" fill="#1F242C"/>
<path d="M655.006 174.995H649.169V180.832H655.006V174.995Z" fill="#1F242C"/>
<path d="M649.168 180.832H643.331V186.669H649.168V180.832Z" fill="#1F242C"/>
<path d="M660.826 180.832H654.99V186.669H660.826V180.832Z" fill="#1F242C"/>
<path d="M666.663 174.995H660.826V180.832H666.663V174.995Z" fill="#1F242C"/>
<path d="M655.006 186.668H649.169V192.505H655.006V186.668Z" fill="#1F242C"/>
<path d="M649.168 192.489H643.331V198.326H649.168V192.489Z" fill="#1F242C"/>
<path d="M660.826 192.489H654.99V198.326H660.826V192.489Z" fill="#1F242C"/>
<path d="M666.663 186.668H660.826V192.505H666.663V186.668Z" fill="#1F242C"/>
<path d="M655.006 198.326H649.169V204.163H655.006V198.326Z" fill="#1F242C"/>
<path d="M649.168 204.164H643.331V210.001H649.168V204.164Z" fill="#1F242C"/>
<path d="M660.826 204.164H654.99V210.001H660.826V204.164Z" fill="#1F242C"/>
<path d="M672.5 157.5H666.663V163.337H672.5V157.5Z" fill="#1F242C"/>
<path d="M672.5 169.158H666.663V174.995H672.5V169.158Z" fill="#1F242C"/>
<path d="M672.5 180.832H666.663V186.669H672.5V180.832Z" fill="#1F242C"/>
<path d="M672.5 192.489H666.663V198.326H672.5V192.489Z" fill="#1F242C"/>
<path d="M672.5 204.164H666.663V210.001H672.5V204.164Z" fill="#1F242C"/>
<path d="M666.663 198.326H660.826V204.163H666.663V198.326Z" fill="#1F242C"/>
<rect x="631.667" y="52.5" width="5.83333" height="52.5" fill="#1F242C"/>
<rect x="643.333" y="52.5" width="5.83333" height="52.5" fill="#1F242C"/>
<rect x="655" y="52.5" width="5.83333" height="52.5" fill="#1F242C"/>
<rect x="666.667" y="52.5" width="5.83333" height="52.5" fill="#1F242C"/>
<rect x="620" y="52.5" width="5.83668" height="52.5" fill="#1F242C"/>
<rect x="555.833" y="157.5" width="5.83333" height="52.5" transform="rotate(-180 555.833 157.5)" fill="#1F242C"/>
<rect x="544.167" y="157.5" width="5.83333" height="52.5" transform="rotate(-180 544.167 157.5)" fill="#1F242C"/>
<rect x="532.5" y="157.5" width="5.83333" height="52.5" transform="rotate(-180 532.5 157.5)" fill="#1F242C"/>
<rect x="520.833" y="157.5" width="5.83333" height="52.5" transform="rotate(-180 520.833 157.5)" fill="#1F242C"/>
<rect x="567.5" y="157.5" width="5.83668" height="52.5" transform="rotate(-180 567.5 157.5)" fill="#1F242C"/>
<rect x="870.505" y="53.4844" width="5.83333" height="52.5" transform="rotate(-180 870.505 53.4844)" fill="#1F242C"/>
<rect x="858.838" y="53.4844" width="5.83333" height="52.5" transform="rotate(-180 858.838 53.4844)" fill="#1F242C"/>
<rect x="847.172" y="53.4844" width="5.83333" height="52.5" transform="rotate(-180 847.172 53.4844)" fill="#1F242C"/>
<rect x="835.505" y="53.4844" width="5.83333" height="52.5" transform="rotate(-180 835.505 53.4844)" fill="#1F242C"/>
<rect x="882.172" y="53.4844" width="5.83668" height="52.5" transform="rotate(-180 882.172 53.4844)" fill="#1F242C"/>
<path fill-rule="evenodd" clip-rule="evenodd" d="M567.5 163.333V157.5C596.495 157.5 620 181.005 620 210H614.167C614.167 184.227 593.273 163.333 567.5 163.333ZM567.5 175V169.166C590.052 169.166 608.333 187.448 608.333 210H602.5C602.5 190.67 586.83 175 567.5 175ZM567.5 180.834V186.667C580.387 186.667 590.833 197.114 590.833 210L596.667 210C596.667 193.892 583.608 180.834 567.5 180.834ZM567.5 198.333V192.5C577.165 192.5 585 200.335 585 210H579.167C579.167 203.557 573.943 198.333 567.5 198.333ZM567.5 210V204.166C570.722 204.166 573.333 206.778 573.333 210H567.5Z" fill="#1F242C"/>
<path fill-rule="evenodd" clip-rule="evenodd" d="M777 110.833V105C805.995 105 829.5 128.505 829.5 157.5L823.667 157.5C823.667 131.727 802.773 110.833 777 110.833ZM777 122.5V116.667C799.552 116.667 817.833 134.949 817.833 157.5H812C812 138.17 796.33 122.5 777 122.5ZM777 128.333V134.167C789.887 134.167 800.333 144.613 800.333 157.5L806.167 157.5C806.167 141.392 793.108 128.333 777 128.333ZM777 145.833V140C786.665 140 794.5 147.835 794.5 157.5H788.667C788.667 151.056 783.443 145.833 777 145.833ZM777 157.5V151.667C780.222 151.667 782.833 154.279 782.833 157.5H777Z" fill="#1F242C"/>
<path d="M729.112 52.5H725V48.3875L773.387 0H777.5V4.1125L729.112 52.5ZM765.133 0H756.879L725 31.8791V40.1333L765.133 0ZM748.625 0H740.371L725 15.3708V23.625L748.625 0ZM725 0V7.11666L732.116 0H725ZM777.5 20.6208V12.3667L737.366 52.5H745.621L777.5 20.6208ZM777.5 37.1291V28.875L753.875 52.5H762.129L777.5 37.1291ZM777.5 45.3833L770.383 52.5H777.5V45.3833Z" fill="#1F242C"/>
<path d="M672.5 105L725 105L725 52.5C696.005 52.5 672.5 76.0051 672.5 105Z" fill="#1F242C"/>
<path d="M777.5 157.5L777.5 105L725 105C725 133.995 748.505 157.5 777.5 157.5Z" fill="#1F242C"/>
<path d="M62.9297 84.9688C62.9297 82.3125 63.2031 79.9141 63.75 77.7734C64.2969 75.6328 65.125 73.8125 66.2344 72.3125C67.3594 70.7969 68.7656 69.6406 70.4531 68.8438C72.1562 68.0469 74.1406 67.6484 76.4062 67.6484C77.9688 67.6484 79.4297 67.8828 80.7891 68.3516C82.1641 68.8047 83.3594 69.4688 84.375 70.3438C85.4062 71.2031 86.2344 72.25 86.8594 73.4844C87.4844 74.7031 87.8438 76.0859 87.9375 77.6328H83.3672C83.1484 75.7109 82.3984 74.2344 81.1172 73.2031C79.8359 72.1562 78.125 71.6328 75.9844 71.6328C74.8281 71.6328 73.7578 71.8359 72.7734 72.2422C71.8047 72.6328 70.9609 73.1797 70.2422 73.8828C69.5234 74.5859 68.9609 75.4297 68.5547 76.4141C68.1641 77.3828 67.9688 78.4609 67.9688 79.6484V89.7266C67.9688 90.8828 68.1797 91.9453 68.6016 92.9141C69.0391 93.8828 69.6328 94.7344 70.3828 95.4688C71.1484 96.1875 72.0312 96.75 73.0312 97.1562C74.0469 97.5469 75.125 97.7422 76.2656 97.7422C78.4375 97.7422 80.1953 97.2578 81.5391 96.2891C82.8984 95.3047 83.6875 93.7031 83.9062 91.4844H88.4531C88.3594 93.0156 87.9844 94.4219 87.3281 95.7031C86.6719 96.9688 85.8047 98.0391 84.7266 98.9141C83.6641 99.7891 82.4062 100.477 80.9531 100.977C79.5156 101.477 77.9688 101.727 76.3125 101.727C74.1406 101.727 72.2188 101.336 70.5469 100.555C68.8906 99.7578 67.5 98.625 66.375 97.1562C65.2656 95.6875 64.4141 93.9297 63.8203 91.8828C63.2266 89.8359 62.9297 87.5312 62.9297 84.9688ZM93.4922 88.7656C93.4922 86.9062 93.7109 85.1875 94.1484 83.6094C94.6016 82.0156 95.2812 80.6641 96.1875 79.5547C97.1094 78.4297 98.2578 77.5469 99.6328 76.9062C101.008 76.2656 102.625 75.9453 104.484 75.9453C106.344 75.9453 107.961 76.2656 109.336 76.9062C110.711 77.5469 111.852 78.4297 112.758 79.5547C113.664 80.6641 114.344 82.0156 114.797 83.6094C115.25 85.1875 115.477 86.9062 115.477 88.7656C115.477 90.6562 115.25 92.3828 114.797 93.9453C114.344 95.5078 113.664 96.8516 112.758 97.9766C111.852 99.1016 110.703 99.9844 109.312 100.625C107.938 101.266 106.328 101.586 104.484 101.586C102.625 101.586 101.008 101.266 99.6328 100.625C98.2578 99.9844 97.1094 99.1016 96.1875 97.9766C95.2812 96.8516 94.6016 95.5078 94.1484 93.9453C93.7109 92.3828 93.4922 90.6562 93.4922 88.7656ZM98.0391 92.5625C98.0391 93.3906 98.2109 94.1484 98.5547 94.8359C98.9141 95.5234 99.3828 96.1094 99.9609 96.5938C100.539 97.0625 101.219 97.4375 102 97.7188C102.781 97.9844 103.609 98.1172 104.484 98.1172C105.344 98.1172 106.164 97.9844 106.945 97.7188C107.727 97.4375 108.406 97.0625 108.984 96.5938C109.562 96.1094 110.023 95.5234 110.367 94.8359C110.727 94.1484 110.906 93.3906 110.906 92.5625V84.9688C110.906 84.1406 110.727 83.3828 110.367 82.6953C110.023 82.0078 109.562 81.4219 108.984 80.9375C108.406 80.4531 107.727 80.0781 106.945 79.8125C106.164 79.5312 105.344 79.3906 104.484 79.3906C103.625 79.3906 102.797 79.5312 102 79.8125C101.219 80.0781 100.539 80.4531 99.9609 80.9375C99.3828 81.4219 98.9141 82.0078 98.5547 82.6953C98.2109 83.3828 98.0391 84.1406 98.0391 84.9688V92.5625ZM122.156 101V76.5312H126.469V80.5625C127.016 79.2188 127.859 78.1172 129 77.2578C130.141 76.3828 131.57 75.9453 133.289 75.9453C134.914 75.9453 136.352 76.3516 137.602 77.1641C138.852 77.9766 139.75 79.25 140.297 80.9844C140.812 79.5469 141.688 78.3516 142.922 77.3984C144.156 76.4297 145.68 75.9453 147.492 75.9453C148.555 75.9453 149.547 76.1094 150.469 76.4375C151.406 76.75 152.219 77.2578 152.906 77.9609C153.594 78.6641 154.125 79.5703 154.5 80.6797C154.891 81.7734 155.086 83.1094 155.086 84.6875V101H150.773V85.1562C150.773 83.3594 150.43 81.9531 149.742 80.9375C149.055 79.9062 147.906 79.3906 146.297 79.3906C145.531 79.3906 144.82 79.5703 144.164 79.9297C143.508 80.2734 142.922 80.7734 142.406 81.4297C141.891 82.0859 141.492 82.8672 141.211 83.7734C140.93 84.6641 140.789 85.6406 140.789 86.7031V101H136.453V85.1562C136.453 83.3594 136.109 81.9531 135.422 80.9375C134.734 79.9062 133.594 79.3906 132 79.3906C131.234 79.3906 130.523 79.5703 129.867 79.9297C129.211 80.2734 128.625 80.7734 128.109 81.4297C127.594 82.0859 127.188 82.8672 126.891 83.7734C126.609 84.6641 126.469 85.6406 126.469 86.7031V101H122.156ZM162.844 101V76.5312H167.156V80.5625C167.703 79.2188 168.547 78.1172 169.688 77.2578C170.828 76.3828 172.258 75.9453 173.977 75.9453C175.602 75.9453 177.039 76.3516 178.289 77.1641C179.539 77.9766 180.438 79.25 180.984 80.9844C181.5 79.5469 182.375 78.3516 183.609 77.3984C184.844 76.4297 186.367 75.9453 188.18 75.9453C189.242 75.9453 190.234 76.1094 191.156 76.4375C192.094 76.75 192.906 77.2578 193.594 77.9609C194.281 78.6641 194.812 79.5703 195.188 80.6797C195.578 81.7734 195.773 83.1094 195.773 84.6875V101H191.461V85.1562C191.461 83.3594 191.117 81.9531 190.43 80.9375C189.742 79.9062 188.594 79.3906 186.984 79.3906C186.219 79.3906 185.508 79.5703 184.852 79.9297C184.195 80.2734 183.609 80.7734 183.094 81.4297C182.578 82.0859 182.18 82.8672 181.898 83.7734C181.617 84.6641 181.477 85.6406 181.477 86.7031V101H177.141V85.1562C177.141 83.3594 176.797 81.9531 176.109 80.9375C175.422 79.9062 174.281 79.3906 172.688 79.3906C171.922 79.3906 171.211 79.5703 170.555 79.9297C169.898 80.2734 169.312 80.7734 168.797 81.4297C168.281 82.0859 167.875 82.8672 167.578 83.7734C167.297 84.6641 167.156 85.6406 167.156 86.7031V101H162.844ZM203.344 92.8438V76.5312H207.656V92.3516C207.656 94.1172 208 95.5234 208.688 96.5703C209.375 97.6016 210.633 98.1172 212.461 98.1172C214.289 98.1172 215.734 97.4375 216.797 96.0781C217.875 94.7188 218.414 92.9688 218.414 90.8281V76.5312H222.727V101H218.414V96.9688C217.742 98.4062 216.844 99.5391 215.719 100.367C214.594 101.18 213.109 101.586 211.266 101.586C210.141 101.586 209.086 101.422 208.102 101.094C207.133 100.781 206.297 100.273 205.594 99.5703C204.891 98.8672 204.336 97.9609 203.93 96.8516C203.539 95.7422 203.344 94.4062 203.344 92.8438ZM230.719 101V76.5312H235.031V80.5625C235.703 79.125 236.625 78 237.797 77.1875C238.969 76.3594 240.484 75.9453 242.344 75.9453C243.531 75.9453 244.609 76.1094 245.578 76.4375C246.547 76.75 247.383 77.2578 248.086 77.9609C248.789 78.6641 249.336 79.5703 249.727 80.6797C250.117 81.7734 250.312 83.1094 250.312 84.6875V101H245.977V85.1562C245.977 83.3594 245.633 81.9531 244.945 80.9375C244.258 79.9062 242.984 79.3906 241.125 79.3906C240.234 79.3906 239.422 79.5703 238.688 79.9297C237.953 80.2734 237.312 80.7734 236.766 81.4297C236.219 82.0859 235.789 82.8672 235.477 83.7734C235.18 84.6641 235.031 85.6406 235.031 86.7031V101H230.719ZM258 72.875V68.3516H262.5V72.875H258ZM258.094 101V76.5312H262.406V101H258.094ZM269.133 88.9531C269.133 87 269.359 85.2188 269.812 83.6094C270.281 81.9844 270.961 80.6172 271.852 79.5078C272.758 78.3828 273.867 77.5078 275.18 76.8828C276.492 76.2578 277.977 75.9453 279.633 75.9453C280.914 75.9453 282.125 76.1172 283.266 76.4609C284.406 76.7891 285.406 77.3047 286.266 78.0078C287.125 78.7109 287.828 79.6094 288.375 80.7031C288.922 81.7812 289.258 83.0625 289.383 84.5469H285.07C284.977 83.5625 284.766 82.7422 284.438 82.0859C284.125 81.4141 283.711 80.8828 283.195 80.4922C282.68 80.0859 282.094 79.8047 281.438 79.6484C280.781 79.4766 280.102 79.3906 279.398 79.3906C278.664 79.3906 277.961 79.5156 277.289 79.7656C276.617 80 276.008 80.3594 275.461 80.8438C274.914 81.3281 274.477 81.9297 274.148 82.6484C273.836 83.3672 273.68 84.2031 273.68 85.1562V92.3516C273.68 93.2109 273.828 94.0078 274.125 94.7422C274.438 95.4609 274.859 96.0703 275.391 96.5703C275.922 97.0547 276.531 97.4375 277.219 97.7188C277.906 97.9844 278.648 98.1172 279.445 98.1172C281.039 98.1172 282.367 97.6875 283.43 96.8281C284.492 95.9688 285.102 94.625 285.258 92.7969H289.57C289.414 94.2969 289.031 95.6016 288.422 96.7109C287.812 97.8047 287.055 98.7188 286.148 99.4531C285.258 100.172 284.242 100.703 283.102 101.047C281.977 101.406 280.789 101.586 279.539 101.586C277.742 101.586 276.195 101.273 274.898 100.648C273.617 100.023 272.539 99.1406 271.664 98C270.805 96.8594 270.164 95.5234 269.742 93.9922C269.336 92.4609 269.133 90.7812 269.133 88.9531ZM294.469 94.2734C294.469 92.3516 295.078 90.7031 296.297 89.3281C297.516 87.9531 299.344 87.1562 301.781 86.9375L309.75 86.2109V84.2422C309.75 83.2891 309.625 82.5 309.375 81.875C309.141 81.25 308.797 80.7578 308.344 80.3984C307.906 80.0234 307.375 79.7656 306.75 79.625C306.125 79.4688 305.43 79.3906 304.664 79.3906C303.133 79.3906 301.906 79.7344 300.984 80.4219C300.078 81.1094 299.625 82.2422 299.625 83.8203H295.289C295.289 82.6641 295.539 81.6094 296.039 80.6562C296.539 79.6875 297.211 78.8516 298.055 78.1484C298.898 77.4453 299.891 76.9062 301.031 76.5312C302.172 76.1406 303.398 75.9453 304.711 75.9453C306.023 75.9453 307.242 76.1172 308.367 76.4609C309.508 76.7891 310.492 77.2891 311.32 77.9609C312.164 78.6328 312.812 79.5 313.266 80.5625C313.734 81.6094 313.969 82.8516 313.969 84.2891V97.2969H317.625V101H310.312L310.219 96.4766H310.031C309.359 98.2109 308.367 99.5 307.055 100.344C305.742 101.172 304.172 101.586 302.344 101.586C301.125 101.586 300.023 101.398 299.039 101.023C298.055 100.648 297.203 100.094 296.484 99.3594C295.844 98.7188 295.344 97.9531 294.984 97.0625C294.641 96.1719 294.469 95.2422 294.469 94.2734ZM299.039 94.8594C299.039 95.9844 299.43 96.8125 300.211 97.3438C300.992 97.8594 302.07 98.1172 303.445 98.1172C305.398 98.1172 306.938 97.4219 308.062 96.0312C309.188 94.6406 309.75 92.8438 309.75 90.6406V89.5391L301.055 90.3359C300.164 90.3984 299.602 90.6328 299.367 91.0391C299.148 91.4453 299.039 92 299.039 92.7031V94.8594ZM320.109 80.2109V76.5312H324.234V68.3516H328.5V76.5312H334.125V80.2109H328.5V97.2969H334.125V101H324.234V80.2109H320.109ZM340.031 72.875V68.3516H344.531V72.875H340.031ZM340.125 101V76.5312H344.438V101H340.125ZM351.117 88.7656C351.117 86.9062 351.336 85.1875 351.773 83.6094C352.227 82.0156 352.906 80.6641 353.812 79.5547C354.734 78.4297 355.883 77.5469 357.258 76.9062C358.633 76.2656 360.25 75.9453 362.109 75.9453C363.969 75.9453 365.586 76.2656 366.961 76.9062C368.336 77.5469 369.477 78.4297 370.383 79.5547C371.289 80.6641 371.969 82.0156 372.422 83.6094C372.875 85.1875 373.102 86.9062 373.102 88.7656C373.102 90.6562 372.875 92.3828 372.422 93.9453C371.969 95.5078 371.289 96.8516 370.383 97.9766C369.477 99.1016 368.328 99.9844 366.938 100.625C365.562 101.266 363.953 101.586 362.109 101.586C360.25 101.586 358.633 101.266 357.258 100.625C355.883 99.9844 354.734 99.1016 353.812 97.9766C352.906 96.8516 352.227 95.5078 351.773 93.9453C351.336 92.3828 351.117 90.6562 351.117 88.7656ZM355.664 92.5625C355.664 93.3906 355.836 94.1484 356.18 94.8359C356.539 95.5234 357.008 96.1094 357.586 96.5938C358.164 97.0625 358.844 97.4375 359.625 97.7188C360.406 97.9844 361.234 98.1172 362.109 98.1172C362.969 98.1172 363.789 97.9844 364.57 97.7188C365.352 97.4375 366.031 97.0625 366.609 96.5938C367.188 96.1094 367.648 95.5234 367.992 94.8359C368.352 94.1484 368.531 93.3906 368.531 92.5625V84.9688C368.531 84.1406 368.352 83.3828 367.992 82.6953C367.648 82.0078 367.188 81.4219 366.609 80.9375C366.031 80.4531 365.352 80.0781 364.57 79.8125C363.789 79.5312 362.969 79.3906 362.109 79.3906C361.25 79.3906 360.422 79.5312 359.625 79.8125C358.844 80.0781 358.164 80.4531 357.586 80.9375C357.008 81.4219 356.539 82.0078 356.18 82.6953C355.836 83.3828 355.664 84.1406 355.664 84.9688V92.5625ZM379.781 101V76.5312H384.094V80.5625C384.766 79.125 385.688 78 386.859 77.1875C388.031 76.3594 389.547 75.9453 391.406 75.9453C392.594 75.9453 393.672 76.1094 394.641 76.4375C395.609 76.75 396.445 77.2578 397.148 77.9609C397.852 78.6641 398.398 79.5703 398.789 80.6797C399.18 81.7734 399.375 83.1094 399.375 84.6875V101H395.039V85.1562C395.039 83.3594 394.695 81.9531 394.008 80.9375C393.32 79.9062 392.047 79.3906 390.188 79.3906C389.297 79.3906 388.484 79.5703 387.75 79.9297C387.016 80.2734 386.375 80.7734 385.828 81.4297C385.281 82.0859 384.852 82.8672 384.539 83.7734C384.242 84.6641 384.094 85.6406 384.094 86.7031V101H379.781ZM405.562 93.2656H409.898C409.961 94.8906 410.539 96.1094 411.633 96.9219C412.742 97.7188 414.047 98.1172 415.547 98.1172C416.984 98.1172 418.234 97.7969 419.297 97.1562C420.359 96.5156 420.891 95.5859 420.891 94.3672C420.891 93.3828 420.57 92.5938 419.93 92C419.289 91.4062 418.148 90.9531 416.508 90.6406L412.477 89.8203C410.461 89.3984 408.906 88.625 407.812 87.5C406.734 86.3594 406.195 84.8281 406.195 82.9062C406.195 81.9531 406.406 81.0547 406.828 80.2109C407.266 79.3516 407.883 78.6094 408.68 77.9844C409.492 77.3594 410.438 76.8672 411.516 76.5078C412.609 76.1328 413.828 75.9453 415.172 75.9453C416.328 75.9453 417.453 76.1016 418.547 76.4141C419.656 76.7109 420.641 77.1797 421.5 77.8203C422.375 78.4609 423.07 79.2812 423.586 80.2812C424.117 81.2656 424.398 82.4453 424.43 83.8203H420.117C420.055 82.1953 419.547 81.0547 418.594 80.3984C417.656 79.7266 416.531 79.3906 415.219 79.3906C413.875 79.3906 412.734 79.7109 411.797 80.3516C410.875 80.9922 410.414 81.8281 410.414 82.8594C410.414 83.8125 410.688 84.5547 411.234 85.0859C411.781 85.6172 412.664 86.0078 413.883 86.2578L418.008 87.125C420.445 87.6406 422.25 88.4766 423.422 89.6328C424.609 90.7734 425.203 92.3359 425.203 94.3203C425.203 95.3516 424.969 96.3125 424.5 97.2031C424.047 98.0781 423.383 98.8359 422.508 99.4766C421.648 100.102 420.625 100.609 419.438 101C418.25 101.391 416.938 101.586 415.5 101.586C414.125 101.586 412.836 101.406 411.633 101.047C410.445 100.703 409.398 100.188 408.492 99.5C407.602 98.7969 406.898 97.9297 406.383 96.8984C405.867 95.8516 405.594 94.6406 405.562 93.2656Z" fill="white"/>
<path d="M61.4091 145H68.2273V143.75H62.8182V133.364H61.4091V145ZM73.8864 145.182C75.6591 145.182 76.9545 144.295 77.3636 142.977L76.0682 142.614C75.7273 143.523 74.9375 143.977 73.8864 143.977C72.3125 143.977 71.2273 142.96 71.1648 141.091H77.5V140.523C77.5 137.273 75.5682 136.159 73.75 136.159C71.3864 136.159 69.8182 138.023 69.8182 140.705C69.8182 143.386 71.3636 145.182 73.8864 145.182ZM71.1648 139.932C71.2557 138.574 72.2159 137.364 73.75 137.364C75.2045 137.364 76.1364 138.455 76.1364 139.932H71.1648ZM82.108 145.205C83.6307 145.205 84.4261 144.386 84.6989 143.818H84.767V145H86.108V139.25C86.108 136.477 83.9943 136.159 82.8807 136.159C81.5625 136.159 80.0625 136.614 79.3807 138.205L80.6534 138.659C80.9489 138.023 81.6477 137.341 82.9261 137.341C84.1591 137.341 84.767 137.994 84.767 139.114V139.159C84.767 139.807 84.108 139.75 82.517 139.955C80.8977 140.165 79.1307 140.523 79.1307 142.523C79.1307 144.227 80.4489 145.205 82.108 145.205ZM82.3125 144C81.2443 144 80.4716 143.523 80.4716 142.591C80.4716 141.568 81.4034 141.25 82.4489 141.114C83.017 141.045 84.5398 140.886 84.767 140.614V141.841C84.767 142.932 83.9034 144 82.3125 144ZM88.5554 145H89.8963V139.477C89.8963 138.295 90.8281 137.432 92.1009 137.432C92.4588 137.432 92.8281 137.5 92.919 137.523V136.159C92.7656 136.148 92.4134 136.136 92.2145 136.136C91.169 136.136 90.2599 136.727 89.9418 137.591H89.8509V136.273H88.5554V145ZM95.8494 139.75C95.8494 138.227 96.7926 137.364 98.0767 137.364C99.321 137.364 100.077 138.176 100.077 139.545V145H101.418V139.455C101.418 137.227 100.23 136.159 98.4631 136.159C97.1449 136.159 96.3267 136.75 95.9176 137.636H95.804V136.273H94.5085V145H95.8494V139.75ZM109.709 139.75C109.709 138.227 110.68 137.364 112.004 137.364C113.266 137.364 114.027 138.159 114.027 139.545V145H115.368V139.455C115.368 137.21 114.175 136.159 112.391 136.159C111.016 136.159 110.232 136.733 109.822 137.636H109.709V133.364H108.368V145H109.709V139.75ZM121.366 145.182C123.73 145.182 125.321 143.386 125.321 140.682C125.321 137.955 123.73 136.159 121.366 136.159C119.003 136.159 117.412 137.955 117.412 140.682C117.412 143.386 119.003 145.182 121.366 145.182ZM121.366 143.977C119.571 143.977 118.753 142.432 118.753 140.682C118.753 138.932 119.571 137.364 121.366 137.364C123.162 137.364 123.98 138.932 123.98 140.682C123.98 142.432 123.162 143.977 121.366 143.977ZM129.048 145H130.366L132.276 138.295H132.412L134.321 145H135.639L138.298 136.273H136.889L135.003 142.932H134.912L133.071 136.273H131.639L129.776 142.955H129.685L127.798 136.273H126.389L129.048 145ZM148.366 136.273H146.503V134.182H145.162V136.273H143.844V137.409H145.162V142.864C145.162 144.386 146.389 145.114 147.526 145.114C148.026 145.114 148.344 145.023 148.526 144.955L148.253 143.75C148.139 143.773 147.957 143.818 147.662 143.818C147.071 143.818 146.503 143.636 146.503 142.5V137.409H148.366V136.273ZM153.835 145.182C156.199 145.182 157.79 143.386 157.79 140.682C157.79 137.955 156.199 136.159 153.835 136.159C151.472 136.159 149.881 137.955 149.881 140.682C149.881 143.386 151.472 145.182 153.835 145.182ZM153.835 143.977C152.04 143.977 151.222 142.432 151.222 140.682C151.222 138.932 152.04 137.364 153.835 137.364C155.631 137.364 156.449 138.932 156.449 140.682C156.449 142.432 155.631 143.977 153.835 143.977ZM164.337 145H165.678V136.273H164.337V145ZM165.018 134.818C165.541 134.818 165.973 134.409 165.973 133.909C165.973 133.409 165.541 133 165.018 133C164.496 133 164.064 133.409 164.064 133.909C164.064 134.409 164.496 134.818 165.018 134.818ZM169.474 139.75C169.474 138.227 170.418 137.364 171.702 137.364C172.946 137.364 173.702 138.176 173.702 139.545V145H175.043V139.455C175.043 137.227 173.855 136.159 172.088 136.159C170.77 136.159 169.952 136.75 169.543 137.636H169.429V136.273H168.134V145H169.474V139.75ZM181.288 136.273H179.425V134.182H178.084V136.273H176.766V137.409H178.084V142.864C178.084 144.386 179.311 145.114 180.447 145.114C180.947 145.114 181.266 145.023 181.447 144.955L181.175 143.75C181.061 143.773 180.879 143.818 180.584 143.818C179.993 143.818 179.425 143.636 179.425 142.5V137.409H181.288V136.273ZM186.871 145.182C188.643 145.182 189.939 144.295 190.348 142.977L189.053 142.614C188.712 143.523 187.922 143.977 186.871 143.977C185.297 143.977 184.212 142.96 184.149 141.091H190.484V140.523C190.484 137.273 188.553 136.159 186.734 136.159C184.371 136.159 182.803 138.023 182.803 140.705C182.803 143.386 184.348 145.182 186.871 145.182ZM184.149 139.932C184.24 138.574 185.2 137.364 186.734 137.364C188.189 137.364 189.121 138.455 189.121 139.932H184.149ZM192.524 145H193.865V139.477C193.865 138.295 194.797 137.432 196.07 137.432C196.428 137.432 196.797 137.5 196.888 137.523V136.159C196.734 136.148 196.382 136.136 196.183 136.136C195.138 136.136 194.229 136.727 193.911 137.591H193.82V136.273H192.524V145ZM201.045 145.205C202.568 145.205 203.364 144.386 203.636 143.818H203.705V145H205.045V139.25C205.045 136.477 202.932 136.159 201.818 136.159C200.5 136.159 199 136.614 198.318 138.205L199.591 138.659C199.886 138.023 200.585 137.341 201.864 137.341C203.097 137.341 203.705 137.994 203.705 139.114V139.159C203.705 139.807 203.045 139.75 201.455 139.955C199.835 140.165 198.068 140.523 198.068 142.523C198.068 144.227 199.386 145.205 201.045 145.205ZM201.25 144C200.182 144 199.409 143.523 199.409 142.591C199.409 141.568 200.341 141.25 201.386 141.114C201.955 141.045 203.477 140.886 203.705 140.614V141.841C203.705 142.932 202.841 144 201.25 144ZM211.038 145.182C212.97 145.182 214.243 144 214.47 142.455H213.129C212.879 143.409 212.084 143.977 211.038 143.977C209.447 143.977 208.425 142.659 208.425 140.636C208.425 138.659 209.47 137.364 211.038 137.364C212.22 137.364 212.925 138.091 213.129 138.886H214.47C214.243 137.25 212.857 136.159 211.016 136.159C208.652 136.159 207.084 138.023 207.084 140.682C207.084 143.295 208.584 145.182 211.038 145.182ZM220.226 136.273H218.362V134.182H217.021V136.273H215.703V137.409H217.021V142.864C217.021 144.386 218.249 145.114 219.385 145.114C219.885 145.114 220.203 145.023 220.385 144.955L220.112 143.75C219.999 143.773 219.817 143.818 219.521 143.818C218.93 143.818 218.362 143.636 218.362 142.5V137.409H220.226V136.273ZM228.72 145H230.038L231.947 138.295H232.084L233.993 145H235.311L237.97 136.273H236.561L234.675 142.932H234.584L232.743 136.273H231.311L229.447 142.955H229.357L227.47 136.273H226.061L228.72 145ZM239.743 145H241.084V136.273H239.743V145ZM240.425 134.818C240.947 134.818 241.379 134.409 241.379 133.909C241.379 133.409 240.947 133 240.425 133C239.902 133 239.47 133.409 239.47 133.909C239.47 134.409 239.902 134.818 240.425 134.818ZM247.335 136.273H245.472V134.182H244.131V136.273H242.812V137.409H244.131V142.864C244.131 144.386 245.358 145.114 246.494 145.114C246.994 145.114 247.312 145.023 247.494 144.955L247.222 143.75C247.108 143.773 246.926 143.818 246.631 143.818C246.04 143.818 245.472 143.636 245.472 142.5V137.409H247.335V136.273ZM250.881 139.75C250.881 138.227 251.852 137.364 253.176 137.364C254.438 137.364 255.199 138.159 255.199 139.545V145H256.54V139.455C256.54 137.21 255.347 136.159 253.562 136.159C252.188 136.159 251.403 136.733 250.994 137.636H250.881V133.364H249.54V145H250.881V139.75ZM270.629 136.273H269.175L266.766 143.227H266.675L264.266 136.273H262.811L266.038 145H267.402L270.629 136.273ZM274.702 145.205C276.224 145.205 277.02 144.386 277.293 143.818H277.361V145H278.702V139.25C278.702 136.477 276.588 136.159 275.474 136.159C274.156 136.159 272.656 136.614 271.974 138.205L273.247 138.659C273.543 138.023 274.241 137.341 275.52 137.341C276.753 137.341 277.361 137.994 277.361 139.114V139.159C277.361 139.807 276.702 139.75 275.111 139.955C273.491 140.165 271.724 140.523 271.724 142.523C271.724 144.227 273.043 145.205 274.702 145.205ZM274.906 144C273.838 144 273.065 143.523 273.065 142.591C273.065 141.568 273.997 141.25 275.043 141.114C275.611 141.045 277.134 140.886 277.361 140.614V141.841C277.361 142.932 276.497 144 274.906 144ZM281.149 145H282.49V139.477C282.49 138.295 283.422 137.432 284.695 137.432C285.053 137.432 285.422 137.5 285.513 137.523V136.159C285.359 136.148 285.007 136.136 284.808 136.136C283.763 136.136 282.854 136.727 282.536 137.591H282.445V136.273H281.149V145ZM287.102 145H288.443V136.273H287.102V145ZM287.784 134.818C288.307 134.818 288.739 134.409 288.739 133.909C288.739 133.409 288.307 133 287.784 133C287.261 133 286.83 133.409 286.83 133.909C286.83 134.409 287.261 134.818 287.784 134.818ZM294.445 145.182C296.808 145.182 298.399 143.386 298.399 140.682C298.399 137.955 296.808 136.159 294.445 136.159C292.081 136.159 290.49 137.955 290.49 140.682C290.49 143.386 292.081 145.182 294.445 145.182ZM294.445 143.977C292.649 143.977 291.831 142.432 291.831 140.682C291.831 138.932 292.649 137.364 294.445 137.364C296.24 137.364 297.058 138.932 297.058 140.682C297.058 142.432 296.24 143.977 294.445 143.977ZM305.946 141.432C305.946 143.068 304.696 143.818 303.696 143.818C302.582 143.818 301.787 143 301.787 141.727V136.273H300.446V141.818C300.446 144.045 301.628 145.114 303.264 145.114C304.582 145.114 305.446 144.409 305.855 143.523H305.946V145H307.287V136.273H305.946V141.432ZM315.925 138.227C315.504 136.989 314.561 136.159 312.834 136.159C310.993 136.159 309.629 137.205 309.629 138.682C309.629 139.886 310.345 140.693 311.947 141.068L313.402 141.409C314.283 141.614 314.697 142.034 314.697 142.636C314.697 143.386 313.902 144 312.652 144C311.555 144 310.868 143.528 310.629 142.591L309.357 142.909C309.669 144.392 310.891 145.182 312.675 145.182C314.703 145.182 316.084 144.074 316.084 142.568C316.084 141.352 315.322 140.585 313.766 140.205L312.47 139.886C311.436 139.631 310.97 139.284 310.97 138.614C310.97 137.864 311.766 137.318 312.834 137.318C314.004 137.318 314.487 137.966 314.72 138.568L315.925 138.227ZM322.602 145H323.943V139.477C323.943 138.295 324.875 137.432 326.148 137.432C326.506 137.432 326.875 137.5 326.966 137.523V136.159C326.812 136.148 326.46 136.136 326.261 136.136C325.216 136.136 324.307 136.727 323.989 137.591H323.898V136.273H322.602V145ZM331.835 145.182C334.199 145.182 335.79 143.386 335.79 140.682C335.79 137.955 334.199 136.159 331.835 136.159C329.472 136.159 327.881 137.955 327.881 140.682C327.881 143.386 329.472 145.182 331.835 145.182ZM331.835 143.977C330.04 143.977 329.222 142.432 329.222 140.682C329.222 138.932 330.04 137.364 331.835 137.364C333.631 137.364 334.449 138.932 334.449 140.682C334.449 142.432 333.631 143.977 331.835 143.977ZM339.178 133.364H337.837V145H339.178V133.364ZM345.293 145.182C347.065 145.182 348.361 144.295 348.77 142.977L347.474 142.614C347.134 143.523 346.344 143.977 345.293 143.977C343.719 143.977 342.634 142.96 342.571 141.091H348.906V140.523C348.906 137.273 346.974 136.159 345.156 136.159C342.793 136.159 341.224 138.023 341.224 140.705C341.224 143.386 342.77 145.182 345.293 145.182ZM342.571 139.932C342.662 138.574 343.622 137.364 345.156 137.364C346.611 137.364 347.543 138.455 347.543 139.932H342.571ZM357.128 138.227C356.707 136.989 355.764 136.159 354.037 136.159C352.196 136.159 350.832 137.205 350.832 138.682C350.832 139.886 351.548 140.693 353.151 141.068L354.605 141.409C355.486 141.614 355.901 142.034 355.901 142.636C355.901 143.386 355.105 144 353.855 144C352.759 144 352.071 143.528 351.832 142.591L350.56 142.909C350.872 144.392 352.094 145.182 353.878 145.182C355.906 145.182 357.287 144.074 357.287 142.568C357.287 141.352 356.526 140.585 354.969 140.205L353.673 139.886C352.639 139.631 352.173 139.284 352.173 138.614C352.173 137.864 352.969 137.318 354.037 137.318C355.207 137.318 355.69 137.966 355.923 138.568L357.128 138.227ZM367.351 145.182C369.714 145.182 371.305 143.386 371.305 140.682C371.305 137.955 369.714 136.159 367.351 136.159C364.987 136.159 363.396 137.955 363.396 140.682C363.396 143.386 364.987 145.182 367.351 145.182ZM367.351 143.977C365.555 143.977 364.737 142.432 364.737 140.682C364.737 138.932 365.555 137.364 367.351 137.364C369.146 137.364 369.964 138.932 369.964 140.682C369.964 142.432 369.146 143.977 367.351 143.977ZM374.693 139.75C374.693 138.227 375.636 137.364 376.92 137.364C378.165 137.364 378.92 138.176 378.92 139.545V145H380.261V139.455C380.261 137.227 379.074 136.159 377.307 136.159C375.989 136.159 375.17 136.75 374.761 137.636H374.648V136.273H373.352V145H374.693V139.75ZM391.007 136.273H389.143V134.182H387.803V136.273H386.484V137.409H387.803V142.864C387.803 144.386 389.03 145.114 390.166 145.114C390.666 145.114 390.984 145.023 391.166 144.955L390.893 143.75C390.78 143.773 390.598 143.818 390.303 143.818C389.712 143.818 389.143 143.636 389.143 142.5V137.409H391.007V136.273ZM394.553 139.75C394.553 138.227 395.524 137.364 396.848 137.364C398.109 137.364 398.871 138.159 398.871 139.545V145H400.212V139.455C400.212 137.21 399.018 136.159 397.234 136.159C395.859 136.159 395.075 136.733 394.666 137.636H394.553V133.364H393.212V145H394.553V139.75ZM406.324 145.182C408.097 145.182 409.392 144.295 409.801 142.977L408.506 142.614C408.165 143.523 407.375 143.977 406.324 143.977C404.75 143.977 403.665 142.96 403.602 141.091H409.938V140.523C409.938 137.273 408.006 136.159 406.188 136.159C403.824 136.159 402.256 138.023 402.256 140.705C402.256 143.386 403.801 145.182 406.324 145.182ZM403.602 139.932C403.693 138.574 404.653 137.364 406.188 137.364C407.642 137.364 408.574 138.455 408.574 139.932H403.602ZM420.273 136.273H418.409V134.182H417.068V136.273H415.75V137.409H417.068V142.864C417.068 144.386 418.295 145.114 419.432 145.114C419.932 145.114 420.25 145.023 420.432 144.955L420.159 143.75C420.045 143.773 419.864 143.818 419.568 143.818C418.977 143.818 418.409 143.636 418.409 142.5V137.409H420.273V136.273ZM425.855 145.182C427.628 145.182 428.923 144.295 429.332 142.977L428.037 142.614C427.696 143.523 426.906 143.977 425.855 143.977C424.281 143.977 423.196 142.96 423.134 141.091H429.469V140.523C429.469 137.273 427.537 136.159 425.719 136.159C423.355 136.159 421.787 138.023 421.787 140.705C421.787 143.386 423.332 145.182 425.855 145.182ZM423.134 139.932C423.224 138.574 424.185 137.364 425.719 137.364C427.173 137.364 428.105 138.455 428.105 139.932H423.134ZM437.69 138.227C437.27 136.989 436.327 136.159 434.599 136.159C432.759 136.159 431.395 137.205 431.395 138.682C431.395 139.886 432.111 140.693 433.713 141.068L435.168 141.409C436.048 141.614 436.463 142.034 436.463 142.636C436.463 143.386 435.668 144 434.418 144C433.321 144 432.634 143.528 432.395 142.591L431.122 142.909C431.435 144.392 432.656 145.182 434.44 145.182C436.469 145.182 437.849 144.074 437.849 142.568C437.849 141.352 437.088 140.585 435.531 140.205L434.236 139.886C433.202 139.631 432.736 139.284 432.736 138.614C432.736 137.864 433.531 137.318 434.599 137.318C435.77 137.318 436.253 137.966 436.486 138.568L437.69 138.227ZM443.663 136.273H441.8V134.182H440.459V136.273H439.141V137.409H440.459V142.864C440.459 144.386 441.686 145.114 442.822 145.114C443.322 145.114 443.641 145.023 443.822 144.955L443.55 143.75C443.436 143.773 443.254 143.818 442.959 143.818C442.368 143.818 441.8 143.636 441.8 142.5V137.409H443.663V136.273ZM447.021 139.75C447.021 138.227 447.964 137.364 449.249 137.364C450.493 137.364 451.249 138.176 451.249 139.545V145H452.589V139.455C452.589 137.227 451.402 136.159 449.635 136.159C448.317 136.159 447.499 136.75 447.089 137.636H446.976V136.273H445.68V145H447.021V139.75ZM458.699 145.182C460.472 145.182 461.767 144.295 462.176 142.977L460.881 142.614C460.54 143.523 459.75 143.977 458.699 143.977C457.125 143.977 456.04 142.96 455.977 141.091H462.312V140.523C462.312 137.273 460.381 136.159 458.562 136.159C456.199 136.159 454.631 138.023 454.631 140.705C454.631 143.386 456.176 145.182 458.699 145.182ZM455.977 139.932C456.068 138.574 457.028 137.364 458.562 137.364C460.017 137.364 460.949 138.455 460.949 139.932H455.977ZM468.148 136.273H466.284V134.182H464.943V136.273H463.625V137.409H464.943V142.864C464.943 144.386 466.17 145.114 467.307 145.114C467.807 145.114 468.125 145.023 468.307 144.955L468.034 143.75C467.92 143.773 467.739 143.818 467.443 143.818C466.852 143.818 466.284 143.636 466.284 142.5V137.409H468.148V136.273Z" fill="#C4C3C6"/>
<path d="M631.36 244.51C631.54 236.51 634.72 229.01 636.72 221.31C639.202 211.857 639.971 202.035 638.99 192.31C638.17 184.19 633.99 175.12 640.4 168.12C648.56 159.23 655.52 147.71 669.55 145.9C674.91 145.2 680.05 143.67 685.3 142.52L687.92 141.04C691.07 138.04 696.03 141.04 699.06 137.67C700.85 134.27 700.98 131.53 698.06 128.08C695.49 125.08 691.98 121.56 693.58 116.57C693.58 110.66 689.73 105.33 691.05 99.2304C689.174 96.464 688.345 93.1196 688.711 89.7971C689.078 86.4746 690.616 83.3914 693.05 81.1004C700.29 70.0404 721.61 66.3804 729.95 75.7704C733.777 79.863 736.566 84.8148 738.082 90.2093C739.597 95.6038 739.796 101.283 738.66 106.77C737.75 111.5 732.25 113.88 733.66 119.21C732.66 121.79 732.66 125.21 728.66 125.21L728.3 125.59C727.09 130.1 728.12 134.59 728.12 139.15C736.907 145.161 746.16 150.461 755.79 155C765.62 159.69 775.84 164.94 777.44 176.72C779.67 193.1 778.67 211.1 779.53 227.72L780.05 237.72C780.67 250.24 631.17 252.92 631.36 244.51Z" fill="black"/>
<path d="M669.65 182.58C668.883 175.567 668.27 168.534 667.81 161.48C667.62 158.26 668.32 153.98 671.59 153.61C673.886 180.917 678.629 207.962 685.76 234.42H678.85C674.711 217.348 671.638 200.034 669.65 182.58ZM679.7 168.13C679.112 162.042 678.968 155.919 679.27 149.81C685.2 146.87 694.27 142.37 698.46 145.45C699.07 160.62 703.17 175.72 703.72 191.05C703.683 194.182 704.019 197.308 704.72 200.36C705.102 201.672 705.577 202.955 706.14 204.2C706.43 214.3 707.32 224.36 707.64 234.42C703.353 235.754 700.393 236.42 698.76 236.42C695.969 236.265 693.231 235.587 690.69 234.42C686 212.49 682.83 190.39 679.7 168.13Z" fill="#D3D8E0"/>
<path d="M713.42 234.42C713.27 231.42 712.96 228.42 712.52 225.42C711.963 222.707 711.718 219.939 711.79 217.17C711.784 216.68 711.943 216.201 712.24 215.81C713.09 214.88 714.69 215.62 715.75 216.38C724.445 222.731 733.869 228.019 743.82 232.13C745.23 232.632 746.533 233.395 747.66 234.38C739.074 235.5 730.436 236.167 721.78 236.38C719.927 236.407 717.14 235.754 713.42 234.42Z" fill="#D3D8E0"/>
<path d="M663.77 240.42H660.48C656.96 217.74 655.87 194.73 655.79 171.77C655.693 168.559 656.308 165.366 657.59 162.42V163C657.59 188.77 659.04 214.64 663.7 240C663.7 240.13 663.7 240.27 663.77 240.41V240.42ZM685.9 240.42H681.71C676.678 220.692 672.986 200.646 670.66 180.42C669.893 173.46 669.283 166.477 668.83 159.47C668.61 156.98 669.02 153.84 670.66 152.42C671.08 158.79 671.66 165.16 672.32 171.49C674.991 194.794 679.533 217.844 685.9 240.42ZM648.38 240.42H646C645.94 239.42 645.89 238.35 645.83 237.31C644.53 215.57 643.63 193.53 647.83 172.16C647.806 171.904 647.858 171.646 647.98 171.42V174.36C645.82 192.26 646.52 210.44 647.62 228.44C647.85 232.44 648.08 236.44 648.34 240.44L648.38 240.42Z" fill="white"/>
<path d="M691.8 161.26C695.98 187.96 698.88 203.45 697.8 230.42C696.96 248.57 696.4 235.69 694.8 232.3C694.425 231.655 694.091 230.987 693.8 230.3C693.819 230.135 693.772 229.97 693.67 229.84C687.95 205.99 682.99 193.47 679.47 169.21C678.882 163.259 678.738 157.272 679.04 151.3L680.78 150.46C680.65 153.68 691.34 158 691.8 161.26Z" fill="white"/>
<path d="M734 105.001C734.29 103.491 734.53 102.261 734.57 101.941C734.879 98.4604 734.812 94.9568 734.37 91.4908C733.63 86.0708 731.55 80.4908 726.37 78.0108C726.035 77.8531 725.67 77.7713 725.3 77.7713C724.93 77.7713 724.565 77.8531 724.23 78.0108C719.23 70.7908 703.84 73.8808 697.68 79.7108C696.657 80.5428 695.834 81.5938 695.272 82.7863C694.709 83.9788 694.422 85.2823 694.43 86.6008C694.074 86.9279 693.83 87.3579 693.73 87.8308C693.66 88.1322 693.63 88.4415 693.64 88.7508C693.64 88.9308 693.53 89.1308 693.64 89.0408C693.549 89.2255 693.439 89.3999 693.31 89.5608C692.924 90.0175 692.728 90.6046 692.761 91.2016C692.795 91.7985 693.056 92.36 693.49 92.7708C693.814 93.059 694.216 93.2444 694.645 93.3032C695.074 93.3619 695.511 93.2915 695.9 93.1008C698.24 91.9808 702.78 94.6308 704.9 95.4408C709.29 97.0608 715.9 94.9808 720.6 95.1508C721.484 95.1334 722.364 95.2862 723.19 95.6008C725.42 96.6808 725.57 99.7908 726.01 102.301C726.767 106.416 729.117 110.067 732.55 112.461C732.55 112.461 733.39 108.071 734 105.001Z" fill="white"/>
<path d="M700 111.42C699.33 110.58 700.72 108.84 701.22 107.9C701.44 107.48 701.96 105.65 703.22 105.42C703.94 105.29 703.83 107.65 703.81 107.81C703.881 108.12 703.877 108.442 703.799 108.75C703.721 109.057 703.57 109.342 703.36 109.58C702.397 110.423 701.265 111.05 700.04 111.42H700Z" fill="#C4C3C6"/>
<path d="M770.18 234.42H765.26C765.26 215.77 766.53 190.11 751.62 175.99C752.759 180.519 753.27 185.183 753.14 189.85C753.02 196.33 752.42 202.91 751.67 209.43C751.615 210.339 751.288 211.21 750.73 211.93C750.348 212.333 749.879 212.644 749.36 212.839C748.84 213.035 748.283 213.111 747.73 213.06C745.525 212.99 743.378 212.335 741.51 211.16C739.7 209.99 738.51 207.45 737.1 205.7C734.045 201.894 731.194 197.929 728.56 193.82C723.98 186.56 710.01 166.56 720.69 159.37C722.068 158.602 723.189 157.444 723.91 156.04C725.58 151.89 719.04 148.25 717.78 142.97C717.582 142.318 717.582 141.622 717.78 140.97C718.07 140.34 718.522 139.798 719.09 139.4L723.87 135.4C722.64 144.22 727.76 150.53 736.08 153.05C744.69 155.68 753.67 158.65 759.7 164.97C764.7 170.18 767.17 177.15 768.35 184.07C770 193.78 769.35 203.63 769.11 213.4C769.014 220.414 769.348 227.427 770.11 234.4L770.18 234.42Z" fill="white"/>
<path fill-rule="evenodd" clip-rule="evenodd" d="M603.56 235.43C617.3 220.3 667.76 234.9 653.03 221.91C638.3 208.92 608.87 216.6 590.65 221.57C572.43 226.54 563.46 240.11 565.94 245.72C568.42 251.33 589.83 250.57 603.56 235.43Z" fill="#F9F9F9"/>
<path d="M666.84 174.461C675.34 177.651 679.93 179.741 684.4 182.911C690.47 187.201 694.4 192.641 696.02 199.721C698.07 208.721 697.78 234.421 697.78 249.421C697.78 250.781 632.63 261.091 620.62 261.501C583 262.801 559.71 256.631 545 240.001L544.33 239.241L544.17 238.241C544.02 237.311 543.86 236.381 543.68 235.461C543.68 235.251 543.25 233.251 543.11 232.461C542.83 231.001 542.58 229.621 542.34 228.191C541.01 220.832 540.341 213.369 540.34 205.891C540.308 200.352 541.062 194.837 542.58 189.511C545.22 180.881 554.39 173.091 562.12 171.391C567.253 170.407 572.311 169.071 577.26 167.391C582.59 165.511 587.774 163.241 592.77 160.601C593.87 157.761 593.52 156.241 591.23 153.961C591.02 153.741 589.91 152.671 589.6 152.361C584.94 147.741 580.04 144.091 581.05 138.751C580.658 136.422 579.97 134.154 579 132.001C577 126.741 576.16 123.861 576.36 120.411C571.28 113.111 571.45 99.5107 577.28 92.6807C585.83 77.3707 617.91 70.6007 629.95 81.9507C640.49 91.4607 646.05 109.191 644.42 123.221C644.16 125.751 643.37 127.471 641.49 130.531L641.1 131.181C639.51 133.801 639.2 134.911 639.77 136.481L640.14 137.481L639.85 138.531C639.75 138.901 639.67 139.251 639.51 140.081C639.05 142.481 635.93 143.761 635.06 145.081C634.196 146.458 632.903 147.512 631.38 148.081C631.347 150.672 631.589 153.26 632.1 155.801C632.16 156.181 632.19 156.341 632.23 156.551C632.38 157.551 632.5 158.351 632.6 159.081C643.647 164.987 655.087 170.126 666.84 174.461Z" fill="black"/>
<path d="M634.25 118.421C632.65 116.271 630.51 115.011 628.25 115.171C623.89 115.471 620.73 120.941 621.18 127.391C621.47 131.451 623.18 134.941 625.4 136.881C624.88 139.671 623.24 136.541 621.49 139.091C620.05 141.211 619.6 144.571 618.31 146.791C615.71 151.271 609.55 148.421 604.73 147.731C598.14 146.791 594.31 148.311 590.07 143.341C589.07 142.341 586.83 137.891 585.02 131.971C583.44 126.781 583.33 124.861 582.38 121.161C581.9 119.271 582.31 115.161 582.12 115.031C581.165 114.375 580.396 113.484 579.888 112.443C579.38 111.402 579.149 110.247 579.22 109.091C579.529 106.882 580.149 104.727 581.06 102.691C583.113 98.4086 585.763 94.4391 588.93 90.9007C589.555 90.1777 590.321 89.5891 591.18 89.1707C591.96 88.8507 592.81 88.7707 593.59 88.4307C594.709 87.7029 595.746 86.8545 596.68 85.9007C597.155 85.4345 597.771 85.1392 598.431 85.0614C599.092 84.9835 599.76 85.1275 600.33 85.4707C600.83 84.1507 603.07 85.0407 604.33 84.3907C605.747 84.1741 607.186 84.1472 608.61 84.3107C610.13 84.2007 611.51 82.3107 613.03 84.4007C613.278 84.8878 613.617 85.3225 614.03 85.6807C614.52 85.9109 615.059 86.0206 615.6 86.0007C618.76 86.3207 621 89.7407 624.16 89.8707C624.866 89.7921 625.58 89.8395 626.27 90.0107C629.39 91.1407 631.18 95.9207 632.27 98.6507C634 103.001 635 111.831 634.25 118.421Z" fill="#D3D8E0"/>
<path d="M582.54 118C582.25 116.49 582.01 115.26 581.97 114.94C581.661 111.46 581.728 107.956 582.17 104.49C582.91 99.0703 584.99 93.4903 590.17 91.0103C590.503 90.8521 590.867 90.77 591.235 90.77C591.603 90.77 591.967 90.8521 592.3 91.0103C597.36 83.7903 610.69 83.8803 616.85 89.7103C617.876 90.5405 618.701 91.5908 619.266 92.7836C619.83 93.9763 620.119 95.2808 620.11 96.6003C620.463 96.9299 620.707 97.3588 620.81 97.8303C620.875 98.1325 620.906 98.4412 620.9 98.7503C620.9 98.9303 621.01 99.1303 620.9 99.0403C620.991 99.2251 621.102 99.3994 621.23 99.5603C621.616 100.017 621.812 100.604 621.779 101.201C621.745 101.798 621.484 102.36 621.05 102.77C620.727 103.059 620.325 103.244 619.895 103.303C619.466 103.362 619.029 103.291 618.64 103.1C616.3 101.98 611.76 104.63 609.64 105.44C605.246 107.063 600.621 107.978 595.94 108.15C595.053 108.134 594.17 108.287 593.34 108.6C591.12 109.68 590.97 112.79 590.53 115.3C589.769 119.401 587.423 123.037 584 125.42C584 125.42 583.16 121.07 582.54 118Z" fill="white"/>
<path d="M716.4 95.1907C716.93 95.3407 720.56 92.9107 720.8 93.4107C726.8 95.4107 733.98 93.2007 734.8 99.4107C735.2 101.411 735.39 108.411 734.14 109.891C734.178 110.234 734.115 110.582 733.96 110.891C733.858 111.09 733.73 111.275 733.58 111.441C733.5 111.541 733.47 111.711 733.45 111.601C733.415 111.748 733.395 111.899 733.39 112.051C733.407 112.433 733.289 112.809 733.057 113.113C732.826 113.418 732.495 113.632 732.123 113.718C731.75 113.805 731.359 113.759 731.017 113.588C730.675 113.416 730.404 113.131 730.25 112.781C729.44 111.031 726.14 104.941 724.54 104.371C721.25 103.191 712.29 94.0607 716.4 95.1907Z" fill="#D3D8E0"/>
<path d="M597 169.591C595.5 173.591 568.57 186.741 568.69 188.901C568.8 190.661 590.26 185.541 596.43 185.801C597.85 185.861 604.31 187.031 593.26 196.431C582.21 205.831 569.17 206.111 565.26 211.101C561.35 216.091 557.26 217.251 553.01 225.931C552.8 216.281 548.61 203.561 552.32 193.481C553.85 189.321 557.32 182.411 578.46 177.301C587.76 175.061 597 169.591 597 169.591Z" fill="white"/>
<path fill-rule="evenodd" clip-rule="evenodd" d="M661.77 246.761C651.507 249.851 640.944 251.842 630.26 252.701L630.45 252.581C643.31 244.451 654.89 236.021 663.37 226.211C671.04 217.441 678.07 207.641 680.18 197.211C680.2 197.261 671.4 231.211 661.77 246.761Z" fill="#D3D8E0"/>
<path fill-rule="evenodd" clip-rule="evenodd" d="M618.93 253.161C609.976 253.546 601.006 253.08 592.14 251.771C600.19 246.931 608 241.991 615.94 237.131C640.26 222.381 666.94 207.231 666.74 185.131C672.43 186.831 672.95 190.371 672.17 192.791C668.54 204.131 663.54 215.161 655.17 225.161C653.57 227.074 651.853 228.951 650.02 230.791C648.02 232.701 646.02 234.581 643.88 236.431C636.253 242.745 628.054 248.336 619.39 253.131L618.93 253.161Z" fill="#D3D8E0"/>
<path fill-rule="evenodd" clip-rule="evenodd" d="M573.18 241.11C573.98 238.05 580.01 226.11 591.88 214.18C603.51 202.53 620.99 190.951 621.18 190.25C623.83 183.57 629.96 177.8 632.63 171.25C636.69 170.95 640.79 172.37 646.14 175.04C646.85 175.39 650.43 177.57 651.07 177.9C650.539 180.724 649.559 183.445 648.17 185.961C640.39 197.511 603.91 222.091 593.17 232.571C592.37 233.351 607.6 224.971 609.6 224.571C610.092 224.472 610.546 224.236 610.91 223.89C625.09 212.14 650.91 195.551 658.18 181.471C661.38 182.471 661.5 184.52 660.86 185.9C659.473 188.989 657.907 191.994 656.17 194.9C646.94 210.51 615.62 234.63 588.88 250.44C584.25 241.93 571.21 248.71 573.18 241.11Z" fill="#D3D8E0"/>
</g>
<defs>
<clipPath id="clip0">
<rect width="882" height="300" fill="white"/>
</clipPath>
</defs>
</svg>
