<svg width="882" height="300" viewBox="0 0 882 300" fill="none" xmlns="http://www.w3.org/2000/svg">
<g clip-path="url(#clip0)">
<rect width="882" height="300" fill="white"/>
<rect width="882" height="210" fill="black"/>
<rect x="620" y="105" width="52.5" height="52.5" fill="#1F242C"/>
<path d="M625.837 157.5H620V163.337H625.837V157.5Z" fill="#1F242C"/>
<path d="M631.674 163.337H625.837V169.174H631.674V163.337Z" fill="#1F242C"/>
<path d="M637.494 157.5H631.658V163.337H637.494V157.5Z" fill="#1F242C"/>
<path d="M625.837 169.158H620V174.995H625.837V169.158Z" fill="#1F242C"/>
<path d="M637.494 169.158H631.658V174.995H637.494V169.158Z" fill="#1F242C"/>
<path d="M643.332 163.337H637.496V169.174H643.332V163.337Z" fill="#1F242C"/>
<path d="M631.674 174.995H625.837V180.832H631.674V174.995Z" fill="#1F242C"/>
<path d="M625.837 180.832H620V186.669H625.837V180.832Z" fill="#1F242C"/>
<path d="M637.494 180.832H631.658V186.669H637.494V180.832Z" fill="#1F242C"/>
<path d="M643.332 174.995H637.496V180.832H643.332V174.995Z" fill="#1F242C"/>
<path d="M631.674 186.668H625.837V192.505H631.674V186.668Z" fill="#1F242C"/>
<path d="M625.837 192.489H620V198.326H625.837V192.489Z" fill="#1F242C"/>
<path d="M637.494 192.489H631.658V198.326H637.494V192.489Z" fill="#1F242C"/>
<path d="M643.332 186.668H637.496V192.505H643.332V186.668Z" fill="#1F242C"/>
<path d="M631.674 198.326H625.837V204.163H631.674V198.326Z" fill="#1F242C"/>
<path d="M625.837 204.164H620V210.001H625.837V204.164Z" fill="#1F242C"/>
<path d="M637.494 204.164H631.658V210.001H637.494V204.164Z" fill="#1F242C"/>
<path d="M643.332 198.326H637.496V204.163H643.332V198.326Z" fill="#1F242C"/>
<path d="M649.168 157.5H643.331V163.337H649.168V157.5Z" fill="#1F242C"/>
<path d="M655.006 163.337H649.169V169.174H655.006V163.337Z" fill="#1F242C"/>
<path d="M660.826 157.5H654.99V163.337H660.826V157.5Z" fill="#1F242C"/>
<path d="M649.168 169.158H643.331V174.995H649.168V169.158Z" fill="#1F242C"/>
<path d="M660.826 169.158H654.99V174.995H660.826V169.158Z" fill="#1F242C"/>
<path d="M666.663 163.337H660.826V169.174H666.663V163.337Z" fill="#1F242C"/>
<path d="M655.006 174.995H649.169V180.832H655.006V174.995Z" fill="#1F242C"/>
<path d="M649.168 180.832H643.331V186.669H649.168V180.832Z" fill="#1F242C"/>
<path d="M660.826 180.832H654.99V186.669H660.826V180.832Z" fill="#1F242C"/>
<path d="M666.663 174.995H660.826V180.832H666.663V174.995Z" fill="#1F242C"/>
<path d="M655.006 186.668H649.169V192.505H655.006V186.668Z" fill="#1F242C"/>
<path d="M649.168 192.489H643.331V198.326H649.168V192.489Z" fill="#1F242C"/>
<path d="M660.826 192.489H654.99V198.326H660.826V192.489Z" fill="#1F242C"/>
<path d="M666.663 186.668H660.826V192.505H666.663V186.668Z" fill="#1F242C"/>
<path d="M655.006 198.326H649.169V204.163H655.006V198.326Z" fill="#1F242C"/>
<path d="M649.168 204.164H643.331V210.001H649.168V204.164Z" fill="#1F242C"/>
<path d="M660.826 204.164H654.99V210.001H660.826V204.164Z" fill="#1F242C"/>
<path d="M672.5 157.5H666.663V163.337H672.5V157.5Z" fill="#1F242C"/>
<path d="M672.5 169.158H666.663V174.995H672.5V169.158Z" fill="#1F242C"/>
<path d="M672.5 180.832H666.663V186.669H672.5V180.832Z" fill="#1F242C"/>
<path d="M672.5 192.489H666.663V198.326H672.5V192.489Z" fill="#1F242C"/>
<path d="M672.5 204.164H666.663V210.001H672.5V204.164Z" fill="#1F242C"/>
<path d="M666.663 198.326H660.826V204.163H666.663V198.326Z" fill="#1F242C"/>
<rect x="631.667" y="52.5" width="5.83333" height="52.5" fill="#1F242C"/>
<rect x="643.333" y="52.5" width="5.83333" height="52.5" fill="#1F242C"/>
<rect x="655" y="52.5" width="5.83333" height="52.5" fill="#1F242C"/>
<rect x="666.667" y="52.5" width="5.83333" height="52.5" fill="#1F242C"/>
<rect x="620" y="52.5" width="5.83668" height="52.5" fill="#1F242C"/>
<rect x="555.833" y="157.5" width="5.83333" height="52.5" transform="rotate(-180 555.833 157.5)" fill="#1F242C"/>
<rect x="544.167" y="157.5" width="5.83333" height="52.5" transform="rotate(-180 544.167 157.5)" fill="#1F242C"/>
<rect x="532.5" y="157.5" width="5.83333" height="52.5" transform="rotate(-180 532.5 157.5)" fill="#1F242C"/>
<rect x="520.833" y="157.5" width="5.83333" height="52.5" transform="rotate(-180 520.833 157.5)" fill="#1F242C"/>
<rect x="567.5" y="157.5" width="5.83668" height="52.5" transform="rotate(-180 567.5 157.5)" fill="#1F242C"/>
<rect x="870.505" y="53.4844" width="5.83333" height="52.5" transform="rotate(-180 870.505 53.4844)" fill="#1F242C"/>
<rect x="858.838" y="53.4844" width="5.83333" height="52.5" transform="rotate(-180 858.838 53.4844)" fill="#1F242C"/>
<rect x="847.172" y="53.4844" width="5.83333" height="52.5" transform="rotate(-180 847.172 53.4844)" fill="#1F242C"/>
<rect x="835.505" y="53.4844" width="5.83333" height="52.5" transform="rotate(-180 835.505 53.4844)" fill="#1F242C"/>
<rect x="882.172" y="53.4844" width="5.83668" height="52.5" transform="rotate(-180 882.172 53.4844)" fill="#1F242C"/>
<path fill-rule="evenodd" clip-rule="evenodd" d="M567.5 163.333V157.5C596.495 157.5 620 181.005 620 210H614.167C614.167 184.227 593.273 163.333 567.5 163.333ZM567.5 175V169.166C590.052 169.166 608.333 187.448 608.333 210H602.5C602.5 190.67 586.83 175 567.5 175ZM567.5 180.834V186.667C580.387 186.667 590.833 197.114 590.833 210L596.667 210C596.667 193.892 583.608 180.834 567.5 180.834ZM567.5 198.333V192.5C577.165 192.5 585 200.335 585 210H579.167C579.167 203.557 573.943 198.333 567.5 198.333ZM567.5 210V204.166C570.722 204.166 573.333 206.778 573.333 210H567.5Z" fill="#1F242C"/>
<path fill-rule="evenodd" clip-rule="evenodd" d="M777 110.833V105C805.995 105 829.5 128.505 829.5 157.5L823.667 157.5C823.667 131.727 802.773 110.833 777 110.833ZM777 122.5V116.667C799.552 116.667 817.833 134.949 817.833 157.5H812C812 138.17 796.33 122.5 777 122.5ZM777 128.333V134.167C789.887 134.167 800.333 144.613 800.333 157.5L806.167 157.5C806.167 141.392 793.108 128.333 777 128.333ZM777 145.833V140C786.665 140 794.5 147.835 794.5 157.5H788.667C788.667 151.056 783.443 145.833 777 145.833ZM777 157.5V151.667C780.222 151.667 782.833 154.279 782.833 157.5H777Z" fill="#1F242C"/>
<path d="M729.112 52.5H725V48.3875L773.387 0H777.5V4.1125L729.112 52.5ZM765.133 0H756.879L725 31.8791V40.1333L765.133 0ZM748.625 0H740.371L725 15.3708V23.625L748.625 0ZM725 0V7.11666L732.116 0H725ZM777.5 20.6208V12.3667L737.366 52.5H745.621L777.5 20.6208ZM777.5 37.1291V28.875L753.875 52.5H762.129L777.5 37.1291ZM777.5 45.3833L770.383 52.5H777.5V45.3833Z" fill="#1F242C"/>
<path d="M672.5 105L725 105L725 52.5C696.005 52.5 672.5 76.0051 672.5 105Z" fill="#1F242C"/>
<path d="M777.5 157.5L777.5 105L725 105C725 133.995 748.505 157.5 777.5 157.5Z" fill="#1F242C"/>
<path d="M64.4062 101V68.3516H68.9766V96.9219H83.7656V101H64.4062ZM88.5 72.875V68.3516H93V72.875H88.5ZM88.5938 101V76.5312H92.9062V101H88.5938ZM98.2266 76.5312H102.891L109.031 95.8672H109.219L115.477 76.5312H119.93L111.141 101H107.016L98.2266 76.5312ZM123.961 88.7656C123.961 86.9062 124.188 85.1875 124.641 83.6094C125.109 82.0156 125.797 80.6641 126.703 79.5547C127.625 78.4297 128.734 77.5469 130.031 76.9062C131.328 76.2656 132.82 75.9453 134.508 75.9453C136.273 75.9453 137.812 76.25 139.125 76.8594C140.438 77.4688 141.523 78.3047 142.383 79.3672C143.242 80.4141 143.891 81.6484 144.328 83.0703C144.766 84.4922 144.984 86.0234 144.984 87.6641V89.9609H128.508V92.5625C128.508 93.4531 128.672 94.2422 129 94.9297C129.344 95.6172 129.805 96.2031 130.383 96.6875C130.961 97.1562 131.609 97.5156 132.328 97.7656C133.047 98 133.789 98.1172 134.555 98.1172C136.086 98.1172 137.414 97.7266 138.539 96.9453C139.664 96.1641 140.305 94.9219 140.461 93.2188H144.797C144.703 94.5312 144.359 95.7031 143.766 96.7344C143.172 97.75 142.398 98.6172 141.445 99.3359C140.508 100.055 139.445 100.609 138.258 101C137.07 101.391 135.82 101.586 134.508 101.586C132.742 101.586 131.195 101.266 129.867 100.625C128.555 99.9844 127.453 99.1016 126.562 97.9766C125.688 96.8516 125.031 95.5078 124.594 93.9453C124.172 92.3828 123.961 90.6562 123.961 88.7656ZM128.508 86.5156H140.508V85.1562C140.508 84.2656 140.344 83.4609 140.016 82.7422C139.703 82.0234 139.266 81.4141 138.703 80.9141C138.156 80.4141 137.516 80.0391 136.781 79.7891C136.062 79.5234 135.305 79.3906 134.508 79.3906C133.711 79.3906 132.953 79.5234 132.234 79.7891C131.516 80.0391 130.875 80.4141 130.312 80.9141C129.75 81.4141 129.305 82.0234 128.977 82.7422C128.664 83.4609 128.508 84.2656 128.508 85.1562V86.5156ZM162.68 84.6875C162.68 82.125 162.953 79.7969 163.5 77.7031C164.047 75.6094 164.883 73.8203 166.008 72.3359C167.148 70.8359 168.594 69.6797 170.344 68.8672C172.109 68.0547 174.227 67.6484 176.695 67.6484C179.164 67.6484 181.273 68.0547 183.023 68.8672C184.789 69.6797 186.234 70.8359 187.359 72.3359C188.5 73.8203 189.344 75.6094 189.891 77.7031C190.438 79.7969 190.711 82.125 190.711 84.6875C190.711 87.25 190.438 89.5781 189.891 91.6719C189.344 93.7656 188.5 95.5547 187.359 97.0391C186.234 98.5234 184.789 99.6797 183.023 100.508C181.273 101.32 179.164 101.727 176.695 101.727C174.227 101.727 172.109 101.32 170.344 100.508C168.594 99.6797 167.148 98.5234 166.008 97.0391C164.883 95.5547 164.047 93.7656 163.5 91.6719C162.953 89.5781 162.68 87.25 162.68 84.6875ZM167.719 89.7266C167.719 90.9766 167.945 92.0938 168.398 93.0781C168.867 94.0469 169.508 94.8828 170.32 95.5859C171.148 96.2891 172.102 96.8281 173.18 97.2031C174.273 97.5625 175.445 97.7422 176.695 97.7422C177.945 97.7422 179.109 97.5625 180.188 97.2031C181.281 96.8281 182.234 96.2891 183.047 95.5859C183.875 94.8828 184.516 94.0469 184.969 93.0781C185.438 92.0938 185.672 90.9766 185.672 89.7266V79.6484C185.672 78.3984 185.438 77.2891 184.969 76.3203C184.516 75.3359 183.875 74.4922 183.047 73.7891C182.234 73.0859 181.281 72.5547 180.188 72.1953C179.109 71.8203 177.945 71.6328 176.695 71.6328C175.445 71.6328 174.273 71.8203 173.18 72.1953C172.102 72.5547 171.148 73.0859 170.32 73.7891C169.508 74.4922 168.867 75.3359 168.398 76.3203C167.945 77.2891 167.719 78.3984 167.719 79.6484V89.7266ZM198.047 101V68.3516H202.617V101H198.047ZM202.711 83.5859L216.258 68.3516H221.812L208.031 83.5859L223.008 101H217.453L202.711 83.5859ZM228.234 101V68.3516H240.539C242.242 68.3516 243.742 68.5469 245.039 68.9375C246.352 69.3281 247.438 69.9219 248.297 70.7188C249.156 71.5156 249.781 72.5 250.172 73.6719C250.562 74.8281 250.758 76.1797 250.758 77.7266C250.758 79.1641 250.57 80.4688 250.195 81.6406C249.836 82.7969 249.242 83.7969 248.414 84.6406C247.773 85.2812 247.023 85.8125 246.164 86.2344C245.32 86.6406 244.258 86.9219 242.977 87.0781L251.039 101H245.812L238.172 87.2188H232.805V101H228.234ZM232.805 83.3281H242.203C243.422 83.3281 244.352 82.9609 244.992 82.2266C245.633 81.4922 245.953 80.6172 245.953 79.6016V75.9922C245.953 74.8672 245.617 73.9922 244.945 73.3672C244.273 72.7422 243.359 72.4297 242.203 72.4297H232.805V83.3281Z" fill="white"/>
<path d="M61.4091 145H68.2273V143.75H62.8182V133.364H61.4091V145ZM73.8864 145.182C75.6591 145.182 76.9545 144.295 77.3636 142.977L76.0682 142.614C75.7273 143.523 74.9375 143.977 73.8864 143.977C72.3125 143.977 71.2273 142.96 71.1648 141.091H77.5V140.523C77.5 137.273 75.5682 136.159 73.75 136.159C71.3864 136.159 69.8182 138.023 69.8182 140.705C69.8182 143.386 71.3636 145.182 73.8864 145.182ZM71.1648 139.932C71.2557 138.574 72.2159 137.364 73.75 137.364C75.2045 137.364 76.1364 138.455 76.1364 139.932H71.1648ZM82.108 145.205C83.6307 145.205 84.4261 144.386 84.6989 143.818H84.767V145H86.108V139.25C86.108 136.477 83.9943 136.159 82.8807 136.159C81.5625 136.159 80.0625 136.614 79.3807 138.205L80.6534 138.659C80.9489 138.023 81.6477 137.341 82.9261 137.341C84.1591 137.341 84.767 137.994 84.767 139.114V139.159C84.767 139.807 84.108 139.75 82.517 139.955C80.8977 140.165 79.1307 140.523 79.1307 142.523C79.1307 144.227 80.4489 145.205 82.108 145.205ZM82.3125 144C81.2443 144 80.4716 143.523 80.4716 142.591C80.4716 141.568 81.4034 141.25 82.4489 141.114C83.017 141.045 84.5398 140.886 84.767 140.614V141.841C84.767 142.932 83.9034 144 82.3125 144ZM88.5554 145H89.8963V139.477C89.8963 138.295 90.8281 137.432 92.1009 137.432C92.4588 137.432 92.8281 137.5 92.919 137.523V136.159C92.7656 136.148 92.4134 136.136 92.2145 136.136C91.169 136.136 90.2599 136.727 89.9418 137.591H89.8509V136.273H88.5554V145ZM95.8494 139.75C95.8494 138.227 96.7926 137.364 98.0767 137.364C99.321 137.364 100.077 138.176 100.077 139.545V145H101.418V139.455C101.418 137.227 100.23 136.159 98.4631 136.159C97.1449 136.159 96.3267 136.75 95.9176 137.636H95.804V136.273H94.5085V145H95.8494V139.75ZM109.709 139.75C109.709 138.227 110.68 137.364 112.004 137.364C113.266 137.364 114.027 138.159 114.027 139.545V145H115.368V139.455C115.368 137.21 114.175 136.159 112.391 136.159C111.016 136.159 110.232 136.733 109.822 137.636H109.709V133.364H108.368V145H109.709V139.75ZM121.366 145.182C123.73 145.182 125.321 143.386 125.321 140.682C125.321 137.955 123.73 136.159 121.366 136.159C119.003 136.159 117.412 137.955 117.412 140.682C117.412 143.386 119.003 145.182 121.366 145.182ZM121.366 143.977C119.571 143.977 118.753 142.432 118.753 140.682C118.753 138.932 119.571 137.364 121.366 137.364C123.162 137.364 123.98 138.932 123.98 140.682C123.98 142.432 123.162 143.977 121.366 143.977ZM129.048 145H130.366L132.276 138.295H132.412L134.321 145H135.639L138.298 136.273H136.889L135.003 142.932H134.912L133.071 136.273H131.639L129.776 142.955H129.685L127.798 136.273H126.389L129.048 145ZM146.548 145H147.866L149.776 138.295H149.912L151.821 145H153.139L155.798 136.273H154.389L152.503 142.932H152.412L150.571 136.273H149.139L147.276 142.955H147.185L145.298 136.273H143.889L146.548 145ZM160.933 145.182C162.706 145.182 164.001 144.295 164.411 142.977L163.115 142.614C162.774 143.523 161.984 143.977 160.933 143.977C159.359 143.977 158.274 142.96 158.212 141.091H164.547V140.523C164.547 137.273 162.615 136.159 160.797 136.159C158.433 136.159 156.865 138.023 156.865 140.705C156.865 143.386 158.411 145.182 160.933 145.182ZM158.212 139.932C158.303 138.574 159.263 137.364 160.797 137.364C162.251 137.364 163.183 138.455 163.183 139.932H158.212ZM176.587 141.432C176.587 143.068 175.337 143.818 174.337 143.818C173.223 143.818 172.428 143 172.428 141.727V136.273H171.087V141.818C171.087 144.045 172.268 145.114 173.905 145.114C175.223 145.114 176.087 144.409 176.496 143.523H176.587V145H177.928V136.273H176.587V141.432ZM186.565 138.227C186.145 136.989 185.202 136.159 183.474 136.159C181.634 136.159 180.27 137.205 180.27 138.682C180.27 139.886 180.986 140.693 182.588 141.068L184.043 141.409C184.923 141.614 185.338 142.034 185.338 142.636C185.338 143.386 184.543 144 183.293 144C182.196 144 181.509 143.528 181.27 142.591L179.997 142.909C180.31 144.392 181.531 145.182 183.315 145.182C185.344 145.182 186.724 144.074 186.724 142.568C186.724 141.352 185.963 140.585 184.406 140.205L183.111 139.886C182.077 139.631 181.611 139.284 181.611 138.614C181.611 137.864 182.406 137.318 183.474 137.318C184.645 137.318 185.128 137.966 185.361 138.568L186.565 138.227ZM192.402 145.182C194.175 145.182 195.47 144.295 195.879 142.977L194.584 142.614C194.243 143.523 193.453 143.977 192.402 143.977C190.828 143.977 189.743 142.96 189.68 141.091H196.016V140.523C196.016 137.273 194.084 136.159 192.266 136.159C189.902 136.159 188.334 138.023 188.334 140.705C188.334 143.386 189.879 145.182 192.402 145.182ZM189.68 139.932C189.771 138.574 190.732 137.364 192.266 137.364C193.72 137.364 194.652 138.455 194.652 139.932H189.68ZM212.555 139.182C212.555 135.5 210.396 133.205 207.419 133.205C204.442 133.205 202.283 135.5 202.283 139.182C202.283 142.864 204.442 145.159 207.419 145.159C210.396 145.159 212.555 142.864 212.555 139.182ZM211.192 139.182C211.192 142.205 209.533 143.841 207.419 143.841C205.305 143.841 203.646 142.205 203.646 139.182C203.646 136.159 205.305 134.523 207.419 134.523C209.533 134.523 211.192 136.159 211.192 139.182ZM214.925 145H216.22V143.659H216.379C216.675 144.136 217.243 145.182 218.925 145.182C221.107 145.182 222.629 143.432 222.629 140.659C222.629 137.909 221.107 136.159 218.902 136.159C217.197 136.159 216.675 137.205 216.379 137.659H216.266V133.364H214.925V145ZM216.243 140.636C216.243 138.682 217.107 137.364 218.743 137.364C220.447 137.364 221.288 138.795 221.288 140.636C221.288 142.5 220.425 143.977 218.743 143.977C217.129 143.977 216.243 142.614 216.243 140.636ZM224.68 136.273V145.636C224.68 146.523 224.317 147.023 223.499 147.023H223.249V148.273H223.521C225.203 148.273 226.021 147.25 226.021 145.636V136.273H224.68ZM225.339 134.818C225.862 134.818 226.294 134.409 226.294 133.909C226.294 133.409 225.862 133 225.339 133C224.817 133 224.385 133.409 224.385 133.909C224.385 134.409 224.817 134.818 225.339 134.818ZM232.136 145.182C233.909 145.182 235.205 144.295 235.614 142.977L234.318 142.614C233.977 143.523 233.188 143.977 232.136 143.977C230.562 143.977 229.477 142.96 229.415 141.091H235.75V140.523C235.75 137.273 233.818 136.159 232 136.159C229.636 136.159 228.068 138.023 228.068 140.705C228.068 143.386 229.614 145.182 232.136 145.182ZM229.415 139.932C229.506 138.574 230.466 137.364 232 137.364C233.455 137.364 234.386 138.455 234.386 139.932H229.415ZM241.335 145.182C243.267 145.182 244.54 144 244.767 142.455H243.426C243.176 143.409 242.381 143.977 241.335 143.977C239.744 143.977 238.722 142.659 238.722 140.636C238.722 138.659 239.767 137.364 241.335 137.364C242.517 137.364 243.222 138.091 243.426 138.886H244.767C244.54 137.25 243.153 136.159 241.312 136.159C238.949 136.159 237.381 138.023 237.381 140.682C237.381 143.295 238.881 145.182 241.335 145.182ZM250.523 136.273H248.659V134.182H247.318V136.273H246V137.409H247.318V142.864C247.318 144.386 248.545 145.114 249.682 145.114C250.182 145.114 250.5 145.023 250.682 144.955L250.409 143.75C250.295 143.773 250.114 143.818 249.818 143.818C249.227 143.818 248.659 143.636 248.659 142.5V137.409H250.523V136.273ZM252.54 145H253.881V136.273H252.54V145ZM253.222 134.818C253.744 134.818 254.176 134.409 254.176 133.909C254.176 133.409 253.744 133 253.222 133C252.699 133 252.267 133.409 252.267 133.909C252.267 134.409 252.699 134.818 253.222 134.818ZM263.473 136.273H262.018L259.609 143.227H259.518L257.109 136.273H255.655L258.882 145H260.246L263.473 136.273ZM268.589 145.182C270.362 145.182 271.658 144.295 272.067 142.977L270.771 142.614C270.43 143.523 269.641 143.977 268.589 143.977C267.016 143.977 265.93 142.96 265.868 141.091H272.203V140.523C272.203 137.273 270.271 136.159 268.453 136.159C266.089 136.159 264.521 138.023 264.521 140.705C264.521 143.386 266.067 145.182 268.589 145.182ZM265.868 139.932C265.959 138.574 266.919 137.364 268.453 137.364C269.908 137.364 270.839 138.455 270.839 139.932H265.868ZM280.425 138.227C280.004 136.989 279.061 136.159 277.334 136.159C275.493 136.159 274.129 137.205 274.129 138.682C274.129 139.886 274.845 140.693 276.447 141.068L277.902 141.409C278.783 141.614 279.197 142.034 279.197 142.636C279.197 143.386 278.402 144 277.152 144C276.055 144 275.368 143.528 275.129 142.591L273.857 142.909C274.169 144.392 275.391 145.182 277.175 145.182C279.203 145.182 280.584 144.074 280.584 142.568C280.584 141.352 279.822 140.585 278.266 140.205L276.97 139.886C275.936 139.631 275.47 139.284 275.47 138.614C275.47 137.864 276.266 137.318 277.334 137.318C278.504 137.318 278.987 137.966 279.22 138.568L280.425 138.227ZM289.67 145.205C291.193 145.205 291.989 144.386 292.261 143.818H292.33V145H293.67V139.25C293.67 136.477 291.557 136.159 290.443 136.159C289.125 136.159 287.625 136.614 286.943 138.205L288.216 138.659C288.511 138.023 289.21 137.341 290.489 137.341C291.722 137.341 292.33 137.994 292.33 139.114V139.159C292.33 139.807 291.67 139.75 290.08 139.955C288.46 140.165 286.693 140.523 286.693 142.523C286.693 144.227 288.011 145.205 289.67 145.205ZM289.875 144C288.807 144 288.034 143.523 288.034 142.591C288.034 141.568 288.966 141.25 290.011 141.114C290.58 141.045 292.102 140.886 292.33 140.614V141.841C292.33 142.932 291.466 144 289.875 144ZM297.459 139.75C297.459 138.227 298.402 137.364 299.686 137.364C300.93 137.364 301.686 138.176 301.686 139.545V145H303.027V139.455C303.027 137.227 301.839 136.159 300.072 136.159C298.754 136.159 297.936 136.75 297.527 137.636H297.413V136.273H296.118V145H297.459V139.75ZM308.773 145.182C310.455 145.182 311.023 144.136 311.318 143.659H311.477V145H312.773V133.364H311.432V137.659H311.318C311.023 137.205 310.5 136.159 308.795 136.159C306.591 136.159 305.068 137.909 305.068 140.659C305.068 143.432 306.591 145.182 308.773 145.182ZM308.955 143.977C307.273 143.977 306.409 142.5 306.409 140.636C306.409 138.795 307.25 137.364 308.955 137.364C310.591 137.364 311.455 138.682 311.455 140.636C311.455 142.614 310.568 143.977 308.955 143.977ZM320.097 145H321.506V141.227L322.96 139.591L327.006 145H328.71L323.824 138.614L328.71 133.364H326.869L321.642 139.136H321.506V133.364H320.097V145ZM333.371 145.182C335.143 145.182 336.439 144.295 336.848 142.977L335.553 142.614C335.212 143.523 334.422 143.977 333.371 143.977C331.797 143.977 330.712 142.96 330.649 141.091H336.984V140.523C336.984 137.273 335.053 136.159 333.234 136.159C330.871 136.159 329.303 138.023 329.303 140.705C329.303 143.386 330.848 145.182 333.371 145.182ZM330.649 139.932C330.74 138.574 331.7 137.364 333.234 137.364C334.689 137.364 335.621 138.455 335.621 139.932H330.649ZM339.888 148.25C341.098 148.25 341.956 147.608 342.456 146.273L346.172 136.295L344.706 136.273L342.297 143.227H342.206L339.797 136.273H338.342L341.57 145.045L341.32 145.727C340.842 147.034 340.229 147.159 339.251 146.909L338.911 148.091C339.047 148.159 339.433 148.25 339.888 148.25ZM352.628 145H354.037V140.455H356.582C356.685 140.455 356.781 140.455 356.878 140.449L359.332 145H360.969L358.338 140.193C359.821 139.688 360.514 138.477 360.514 136.932C360.514 134.875 359.287 133.364 356.56 133.364H352.628V145ZM354.037 139.182V134.614H356.514C358.401 134.614 359.128 135.534 359.128 136.932C359.128 138.33 358.401 139.182 356.537 139.182H354.037ZM366.246 145.182C368.018 145.182 369.314 144.295 369.723 142.977L368.428 142.614C368.087 143.523 367.297 143.977 366.246 143.977C364.672 143.977 363.587 142.96 363.524 141.091H369.859V140.523C369.859 137.273 367.928 136.159 366.109 136.159C363.746 136.159 362.178 138.023 362.178 140.705C362.178 143.386 363.723 145.182 366.246 145.182ZM363.524 139.932C363.615 138.574 364.575 137.364 366.109 137.364C367.564 137.364 368.496 138.455 368.496 139.932H363.524ZM378.081 138.227C377.661 136.989 376.717 136.159 374.99 136.159C373.149 136.159 371.786 137.205 371.786 138.682C371.786 139.886 372.501 140.693 374.104 141.068L375.558 141.409C376.439 141.614 376.854 142.034 376.854 142.636C376.854 143.386 376.058 144 374.808 144C373.712 144 373.024 143.528 372.786 142.591L371.513 142.909C371.825 144.392 373.047 145.182 374.831 145.182C376.859 145.182 378.24 144.074 378.24 142.568C378.24 141.352 377.479 140.585 375.922 140.205L374.626 139.886C373.592 139.631 373.126 139.284 373.126 138.614C373.126 137.864 373.922 137.318 374.99 137.318C376.161 137.318 376.643 137.966 376.876 138.568L378.081 138.227ZM385.759 141.432C385.759 143.068 384.509 143.818 383.509 143.818C382.395 143.818 381.599 143 381.599 141.727V136.273H380.259V141.818C380.259 144.045 381.44 145.114 383.077 145.114C384.395 145.114 385.259 144.409 385.668 143.523H385.759V145H387.099V136.273H385.759V141.432ZM390.896 133.364H389.555V145H390.896V133.364ZM397.148 136.273H395.284V134.182H393.943V136.273H392.625V137.409H393.943V142.864C393.943 144.386 395.17 145.114 396.307 145.114C396.807 145.114 397.125 145.023 397.307 144.955L397.034 143.75C396.92 143.773 396.739 143.818 396.443 143.818C395.852 143.818 395.284 143.636 395.284 142.5V137.409H397.148V136.273ZM405.19 138.227C404.77 136.989 403.827 136.159 402.099 136.159C400.259 136.159 398.895 137.205 398.895 138.682C398.895 139.886 399.611 140.693 401.213 141.068L402.668 141.409C403.548 141.614 403.963 142.034 403.963 142.636C403.963 143.386 403.168 144 401.918 144C400.821 144 400.134 143.528 399.895 142.591L398.622 142.909C398.935 144.392 400.156 145.182 401.94 145.182C403.969 145.182 405.349 144.074 405.349 142.568C405.349 141.352 404.588 140.585 403.031 140.205L401.736 139.886C400.702 139.631 400.236 139.284 400.236 138.614C400.236 137.864 401.031 137.318 402.099 137.318C403.27 137.318 403.753 137.966 403.986 138.568L405.19 138.227Z" fill="#C4C3C6"/>
<path fill-rule="evenodd" clip-rule="evenodd" d="M635.7 107.87C640.92 107.457 646.087 106.54 651.13 105.13C649.62 120.96 638.13 178.8 642.96 191.89C646.07 200.63 652.82 203.89 659.9 203.16C670.45 202.06 688.18 201.44 703.46 199.51C710.8 198.58 718.28 198.58 722.81 195.85C730.42 191.28 727.57 178.37 722.81 169.67C721.08 166.5 719.81 167.23 715.55 167.23C715.55 158.71 718.35 146.14 719.82 133.63C721.82 116.63 722.82 95.7099 722.82 89.2899C722.82 78.1699 717.92 64.6299 711.94 64.6299C692.27 64.6299 645.21 67.6799 637.83 67.6799C628.22 67.6799 622.71 76.9299 622.71 87.7699C622.71 98.6099 626.1 107.87 635.7 107.87Z" fill="black"/>
<path fill-rule="evenodd" clip-rule="evenodd" d="M646.93 71.81L710.14 69.71C714.96 73.3833 717.37 83.7166 717.37 100.71C717.37 117.703 714.96 139.773 710.14 166.92C677.473 168.567 659.613 169.633 656.56 170.12C653.507 170.607 650.79 172.823 648.41 176.77C651.363 154.377 654.08 135.543 656.56 120.27C658 111.38 658.39 95.16 656.56 85.96C656.045 83.0551 654.921 80.2923 653.261 77.8534C651.601 75.4145 649.443 73.3548 646.93 71.81Z" fill="#D3D8E0"/>
<path fill-rule="evenodd" clip-rule="evenodd" d="M660.26 85.71C654.84 78.7233 650.397 74.1066 646.93 71.86L710.11 69.71C713.05 72.0033 715.093 76.83 716.24 84.19C682.54 89.87 663.88 90.3766 660.26 85.71Z" fill="white"/>
<path fill-rule="evenodd" clip-rule="evenodd" d="M716.08 171C717.17 171 718.85 173.32 720.08 177.17C722.08 183.31 718.78 186.17 715.15 187.86C706.15 188.92 677.44 191.68 676.77 190.4C665.223 193.48 660.26 193.73 661.88 191.15C663.16 189.15 662.79 187.94 662.88 183.15C662.999 181.425 662.684 179.698 661.964 178.126C661.245 176.554 660.143 175.187 658.76 174.15L716.08 171Z" fill="white"/>
<path fill-rule="evenodd" clip-rule="evenodd" d="M721.36 188.4C719.6 194.32 688.17 193.52 679.75 194.33C671.33 195.14 658 196.88 659.63 194.33C660.931 191.879 662.882 189.834 665.27 188.42C667.46 187.21 686.84 181.29 702 179.81C712.107 178.83 717.65 176.863 718.63 173.91C723.32 179.8 721.36 186.58 721.36 188.4Z" fill="#D3D8E0"/>
<path fill-rule="evenodd" clip-rule="evenodd" d="M655.74 178.11C656.937 179.998 657.446 182.241 657.18 184.46C657.18 185.08 657.08 185.67 657 186.25L651.71 186.68C651.677 185.699 651.744 184.718 651.91 183.75C652.169 182.21 652.789 180.754 653.72 179.5C654.245 178.852 654.947 178.369 655.74 178.11Z" fill="#C4C3C6"/>
<path fill-rule="evenodd" clip-rule="evenodd" d="M647.7 156.43L648.34 163.73C649.549 163.828 650.765 163.774 651.96 163.57C653.45 163.21 655.14 163.36 654.26 162.96C653.81 162.76 651.82 162.11 650.62 161.8L649.62 161.57C651.707 161.376 653.783 161.075 655.84 160.67C661.84 159.51 661.46 159.28 656.04 159.12C654.95 159.12 653.57 159.12 651.88 159.19C652.496 158.928 653.097 158.631 653.68 158.3C654.911 157.602 656.082 156.803 657.18 155.91C657.86 155.18 655.7 155.79 653.11 155.71C651.284 155.729 649.467 155.971 647.7 156.43Z" fill="black"/>
<path fill-rule="evenodd" clip-rule="evenodd" d="M715.11 68.4403L716.11 76.6303C714.833 77.0148 713.513 77.2333 712.18 77.2803C710.47 77.2803 708.66 77.7903 709.53 77.1503C710.728 76.3695 711.967 75.6518 713.24 75.0003L714.24 74.5103C711.917 74.791 709.58 74.9446 707.24 74.9703C700.41 75.1003 700.77 74.7503 706.66 73.3103C707.84 73.0203 709.36 72.7303 711.21 72.4303C710.53 72.2903 709.81 72.1003 709.04 71.8603C707.531 71.3826 706.066 70.777 704.66 70.0503C703.75 69.4003 706.25 69.5803 709.06 68.8703C711.052 68.4819 713.083 68.3375 715.11 68.4403Z" fill="black"/>
<path d="M664 130.169C663.69 132.289 664.57 134.639 665.31 136.609C665.388 136.842 665.537 137.045 665.736 137.189C665.935 137.332 666.174 137.409 666.42 137.409C666.665 137.409 666.905 137.332 667.104 137.189C667.303 137.045 667.452 136.842 667.53 136.609C668.43 134.395 669.725 132.362 671.35 130.609C672.61 129.269 674.69 128.339 675.35 126.609C675.385 126.475 675.389 126.335 675.361 126.199C675.334 126.063 675.277 125.935 675.193 125.824C675.109 125.713 675.002 125.623 674.878 125.56C674.755 125.497 674.619 125.462 674.48 125.459C672.35 125.389 670.24 128.069 669 129.569C667.439 131.486 666.193 133.64 665.31 135.949H667.53C666.75 134.029 666.28 131.679 665.15 129.949C664.88 129.549 664.09 129.519 664 130.099V130.169Z" fill="black"/>
<path d="M664.4 114.049C662.51 115.119 664.4 118.889 665.21 120.149C665.29 120.267 665.393 120.366 665.514 120.441C665.635 120.515 665.771 120.563 665.912 120.581C666.053 120.599 666.196 120.587 666.332 120.545C666.468 120.504 666.593 120.433 666.7 120.339C668.28 119.009 669.87 117.679 671.43 116.339C672.79 115.159 674.66 114.029 675.43 112.339C675.72 111.729 675.24 110.849 674.43 111.099C672.7 111.679 671.43 113.279 670.12 114.479C668.49 115.959 666.9 117.479 665.3 118.959L666.78 119.149C665.98 118.022 665.453 116.725 665.24 115.359C665.1 114.649 665.14 114.439 664.55 114.009C664.519 113.987 664.483 113.975 664.445 113.975C664.407 113.975 664.371 113.987 664.34 114.009L664.4 114.049Z" fill="black"/>
<path d="M664.78 103C664.51 105.14 665.96 109.5 668.68 107.12C670.04 105.94 670.91 103.98 671.98 102.53C673.25 100.78 674.88 99.2099 675.98 97.3699C676.78 96.0799 675.03 94.9399 673.98 95.8299C672.178 97.6116 670.627 99.6301 669.37 101.83C668.81 102.69 668.19 104.44 667.37 105.08L667.12 105.49C666.87 105.005 666.653 104.504 666.47 103.99C666.303 103.537 666.092 103.102 665.84 102.69C665.769 102.58 665.664 102.495 665.541 102.448C665.418 102.401 665.284 102.394 665.157 102.428C665.03 102.463 664.917 102.537 664.835 102.64C664.753 102.742 664.706 102.869 664.7 103H664.78Z" fill="black"/>
<path d="M681.15 100.659C685.57 101.659 690.73 100.819 695.23 100.749C697.64 100.749 700.06 100.749 702.47 100.689C704.837 100.856 707.215 100.793 709.57 100.499C709.823 100.421 710.045 100.264 710.202 100.051C710.36 99.8376 710.445 99.5795 710.445 99.3144C710.445 99.0494 710.36 98.7912 710.202 98.578C710.045 98.3647 709.823 98.2075 709.57 98.1294C707.373 97.7676 705.14 97.6702 702.92 97.8394C700.35 97.8394 697.8 97.9394 695.23 98.0794C690.79 98.3294 685.31 98.1894 681.15 99.9394C680.85 100.069 680.75 100.569 681.15 100.659Z" fill="black"/>
<path d="M662.41 146.78C662.13 148.92 663.59 153.27 666.31 150.9C667.67 149.71 668.54 147.76 669.6 146.3C670.88 144.55 672.5 142.98 673.6 141.15C674.41 139.86 672.66 138.71 671.6 139.61C669.8 141.393 668.249 143.411 666.99 145.61C666.43 146.47 665.81 148.23 664.99 148.86L664.74 149.27C664.488 148.784 664.267 148.283 664.08 147.77C663.912 147.322 663.705 146.89 663.46 146.48C663.388 146.369 663.284 146.284 663.161 146.237C663.038 146.19 662.903 146.184 662.777 146.218C662.65 146.253 662.537 146.326 662.455 146.429C662.373 146.532 662.325 146.658 662.32 146.79L662.41 146.78Z" fill="black"/>
<path d="M678.78 144.479C683.2 145.479 688.36 144.629 692.86 144.569C695.267 144.529 697.677 144.509 700.09 144.509C702.461 144.668 704.842 144.601 707.2 144.309C707.455 144.234 707.679 144.079 707.838 143.866C707.997 143.653 708.083 143.395 708.083 143.129C708.083 142.863 707.997 142.605 707.838 142.392C707.679 142.18 707.455 142.024 707.2 141.949C705 141.579 702.764 141.478 700.54 141.649C697.98 141.649 695.42 141.729 692.86 141.889C688.41 142.139 682.94 142.009 678.78 143.759C678.47 143.889 678.38 144.389 678.78 144.479Z" fill="black"/>
<path d="M679.71 114.569C684.677 114.503 689.64 114.403 694.6 114.269C697.02 114.199 699.43 114.189 701.84 114.209C704.07 114.209 706.84 114.799 708.9 113.989C709.66 113.699 710.03 112.519 709.15 112.089C707.22 111.089 704.86 111.419 702.75 111.389C700.03 111.389 697.32 111.389 694.6 111.389C689.536 111.534 684.492 112.095 679.52 113.069C678.7 113.229 678.9 114.529 679.71 114.519V114.569Z" fill="black"/>
<path d="M661.72 157.85C659.83 158.92 661.72 162.69 662.53 163.95C662.61 164.068 662.713 164.167 662.834 164.242C662.955 164.316 663.091 164.364 663.232 164.382C663.373 164.4 663.516 164.388 663.652 164.346C663.788 164.304 663.913 164.234 664.02 164.14C665.6 162.81 667.19 161.48 668.75 160.14C670.11 158.96 671.99 157.83 672.75 156.19C673.05 155.58 672.56 154.7 671.75 154.95C670.03 155.53 668.75 157.13 667.44 158.34C665.81 159.81 664.22 161.34 662.62 162.81L664.11 163C663.309 161.872 662.779 160.576 662.56 159.21C662.42 158.5 662.46 158.29 661.87 157.86C661.839 157.838 661.803 157.826 661.765 157.826C661.727 157.826 661.691 157.838 661.66 157.86L661.72 157.85Z" fill="black"/>
<path d="M677 158.369C681.973 158.303 686.94 158.203 691.9 158.069C694.31 157.999 696.72 157.989 699.13 158.009C701.37 158.009 704.13 158.599 706.19 157.789C706.95 157.499 707.32 156.319 706.44 155.889C704.51 154.939 702.15 155.219 700.04 155.189C697.32 155.189 694.61 155.189 691.9 155.239C686.832 155.381 681.784 155.947 676.81 156.929C675.99 157.079 676.19 158.379 677 158.369Z" fill="black"/>
<path d="M679.2 131.829C681.431 132.213 683.7 132.337 685.96 132.199C688.2 132.199 690.63 132.409 692.81 131.869C693.041 131.798 693.243 131.655 693.387 131.461C693.53 131.266 693.608 131.031 693.608 130.789C693.608 130.548 693.53 130.312 693.387 130.118C693.243 129.924 693.041 129.78 692.81 129.709C690.6 129.259 688.2 129.579 685.96 129.649C683.689 129.596 681.42 129.811 679.2 130.289C679.038 130.342 678.896 130.445 678.796 130.584C678.695 130.722 678.641 130.888 678.641 131.059C678.641 131.23 678.695 131.397 678.796 131.535C678.896 131.673 679.038 131.776 679.2 131.829Z" fill="black"/>
<path fill-rule="evenodd" clip-rule="evenodd" d="M582.19 124.699C584.04 124.699 594.39 123.329 599.47 121.629C597.78 139.359 584.91 204.149 590.33 218.809C593.8 228.599 601.33 232.249 609.33 231.429C621.14 230.199 641 229.499 658.11 227.339C666.34 226.289 674.71 226.289 679.79 223.239C688.31 218.129 685.12 203.659 679.79 193.919C677.85 190.369 676.44 191.189 671.66 191.189C671.66 181.639 674.79 167.559 676.44 153.549C678.68 134.499 679.79 111.079 679.79 103.899C679.79 91.4293 674.3 76.2793 667.6 76.2793C645.6 76.2793 592.86 79.6893 584.6 79.6893C573.84 79.6893 567.66 90.0393 567.66 102.189C567.66 114.339 571.44 124.699 582.19 124.699Z" fill="black"/>
<path fill-rule="evenodd" clip-rule="evenodd" d="M594.77 84.319L665.57 81.999C670.957 86.119 673.653 97.6924 673.66 116.719C673.667 135.746 670.97 160.466 665.57 190.879C628.95 192.732 608.95 193.926 605.57 194.459C602.19 194.992 599.143 197.479 596.43 201.919C599.763 176.832 602.81 155.736 605.57 138.629C607.18 128.629 607.62 110.509 605.57 100.199C604.994 96.9392 603.734 93.8384 601.873 91.1011C600.011 88.3639 597.59 86.0524 594.77 84.319Z" fill="#D3D8E0"/>
<path fill-rule="evenodd" clip-rule="evenodd" d="M609.7 99.879C603.627 92.0457 598.65 86.8757 594.77 84.369L665.54 81.999C668.833 84.559 671.12 89.9624 672.4 98.209C634.653 104.556 613.753 105.112 609.7 99.879Z" fill="white"/>
<path fill-rule="evenodd" clip-rule="evenodd" d="M592.55 91.4189C593.99 92.7589 599.47 96.2589 599.47 104.669C599.301 109.304 598.684 113.912 597.63 118.429C587.63 120.319 580.05 121.999 579.2 120.619C580.773 120.254 582.247 119.55 583.519 118.557C584.792 117.564 585.833 116.305 586.57 114.869C588.573 110.931 589.524 106.543 589.33 102.129C588.93 95.1889 584.85 93.2389 584.03 92.4189L592.55 91.4189Z" fill="white"/>
<path fill-rule="evenodd" clip-rule="evenodd" d="M597.67 118.469C587.67 120.329 580.05 121.989 579.2 120.629C580.771 120.272 582.245 119.579 583.521 118.596C584.797 117.614 585.844 116.366 586.59 114.939C587.863 112.117 589.883 109.697 592.43 107.939C593.42 107.202 594.567 106.703 595.781 106.483C596.996 106.263 598.244 106.326 599.43 106.669C599.145 110.641 598.557 114.586 597.67 118.469Z" fill="#D3D8E0"/>
<path fill-rule="evenodd" clip-rule="evenodd" d="M581.44 95.8193C583.307 97.9642 584.271 100.749 584.13 103.589C584.13 104.359 584.13 105.099 584.06 105.819L576.57 106.819C576.427 105.604 576.427 104.375 576.57 103.159C576.799 101.192 577.54 99.3197 578.72 97.7293C579.441 96.8628 580.38 96.2037 581.44 95.8193Z" fill="#D3D8E0"/>
<path fill-rule="evenodd" clip-rule="evenodd" d="M672.22 195.369C673.44 195.369 675.32 197.979 676.72 202.289C678.95 209.169 675.26 212.339 671.2 214.289C661.11 215.479 628.97 218.569 628.2 217.139C615.26 220.579 609.7 220.856 611.52 217.969C612.95 215.689 612.52 214.379 612.6 208.969C612.69 202.019 608.75 199.789 607.99 198.969L672.22 195.369Z" fill="white"/>
<path fill-rule="evenodd" clip-rule="evenodd" d="M678.13 214.899C676.13 221.519 640.96 220.629 631.53 221.539C622.1 222.449 607.17 224.389 608.99 221.539C610.449 218.794 612.636 216.504 615.31 214.919C617.77 213.559 639.47 206.919 656.45 205.279C667.783 204.166 673.993 201.962 675.08 198.669C680.33 205.269 678.13 212.859 678.13 214.899Z" fill="#D3D8E0"/>
<path fill-rule="evenodd" clip-rule="evenodd" d="M604.63 203.369C605.975 205.485 606.547 208 606.25 210.489C606.25 211.179 606.14 211.839 606.05 212.489L600.12 212.979C600.086 211.874 600.163 210.769 600.35 209.679C600.631 207.96 601.317 206.332 602.35 204.929C602.944 204.2 603.736 203.659 604.63 203.369Z" fill="#D3D8E0"/>
<path fill-rule="evenodd" clip-rule="evenodd" d="M595.63 179.099L596.35 187.269C597.706 187.371 599.069 187.308 600.41 187.079C602.07 186.679 603.97 186.849 602.98 186.399C602.48 186.179 600.24 185.459 598.9 185.109L597.82 184.839C600.169 184.624 602.505 184.29 604.82 183.839C611.54 182.539 611.12 182.279 605.05 182.099C603.83 182.099 602.28 182.099 600.39 182.189C601.074 181.891 601.741 181.558 602.39 181.189C603.767 180.413 605.075 179.52 606.3 178.519C607.07 177.699 604.65 178.389 601.75 178.289C599.684 178.308 597.629 178.58 595.63 179.099Z" fill="black"/>
<path fill-rule="evenodd" clip-rule="evenodd" d="M671.13 80.529L672.26 89.709C670.827 90.1404 669.345 90.3857 667.85 90.439C665.94 90.379 663.91 91.009 664.85 90.289C666.193 89.4268 667.578 88.6324 669 87.909L670.12 87.369C667.511 87.6826 664.887 87.8561 662.26 87.889C654.61 88.029 655.02 87.639 661.61 86.029C662.943 85.709 664.647 85.3756 666.72 85.029C665.9 84.861 665.088 84.6507 664.29 84.399C662.598 83.8753 660.956 83.2062 659.38 82.399C658.38 81.679 661.16 81.869 664.31 81.089C666.552 80.6264 668.842 80.4383 671.13 80.529Z" fill="black"/>
<path d="M613.93 146.67C613.57 149.05 614.56 151.67 615.39 153.89C615.473 154.153 615.638 154.384 615.861 154.547C616.084 154.711 616.353 154.799 616.63 154.799C616.907 154.799 617.176 154.711 617.399 154.547C617.622 154.384 617.787 154.153 617.87 153.89C618.884 151.43 620.334 149.173 622.15 147.23C623.57 145.73 625.89 144.69 626.64 142.75C626.687 142.597 626.696 142.435 626.667 142.278C626.638 142.12 626.572 141.972 626.474 141.846C626.376 141.72 626.249 141.619 626.104 141.551C625.959 141.484 625.8 141.453 625.64 141.46C623.26 141.38 620.89 144.39 619.5 146.07C617.752 148.211 616.358 150.618 615.37 153.2H617.85C616.99 151.06 616.46 148.43 615.19 146.51C614.89 146.06 614 146.03 613.91 146.67H613.93Z" fill="black"/>
<path d="M614.34 131.619C612.22 132.829 614.34 137.049 615.24 138.459C615.325 138.597 615.439 138.713 615.575 138.801C615.711 138.888 615.864 138.944 616.025 138.964C616.185 138.984 616.348 138.968 616.501 138.917C616.654 138.866 616.794 138.781 616.91 138.669C618.68 137.179 620.46 135.669 622.21 134.179C623.73 132.859 625.83 131.589 626.71 129.749C627.03 129.069 626.48 128.079 625.64 128.369C623.71 129.019 622.29 130.799 620.81 132.149C618.99 133.809 617.2 135.489 615.41 137.149L617.07 137.359C616.175 136.094 615.583 134.64 615.34 133.109C615.18 132.319 615.23 132.109 614.57 131.599C614.536 131.577 614.496 131.565 614.455 131.565C614.414 131.565 614.374 131.577 614.34 131.599V131.619Z" fill="black"/>
<path d="M614.76 119.21C614.46 121.6 616.09 126.48 619.14 123.82C620.66 122.49 621.63 120.3 622.82 118.67C624.25 116.67 626.07 114.95 627.35 112.9C628.25 111.46 626.29 110.17 625.12 111.17C623.05 112.93 621.43 115.63 619.95 117.89C619.32 118.89 618.63 120.82 617.76 121.53L617.47 121.99C617.192 121.445 616.948 120.884 616.74 120.31C616.553 119.805 616.319 119.319 616.04 118.86C615.962 118.731 615.845 118.632 615.705 118.576C615.566 118.521 615.412 118.512 615.268 118.552C615.123 118.591 614.995 118.677 614.904 118.796C614.812 118.914 614.762 119.06 614.76 119.21Z" fill="black"/>
<path d="M633.1 116.63C638.05 117.74 643.83 116.8 648.87 116.73C651.57 116.69 654.27 116.666 656.97 116.66C659.6 116.66 662.34 116.96 664.97 116.44C665.253 116.353 665.5 116.179 665.676 115.941C665.852 115.703 665.947 115.415 665.947 115.12C665.947 114.824 665.852 114.536 665.676 114.298C665.5 114.061 665.253 113.886 664.97 113.8C662.509 113.386 660.008 113.272 657.52 113.46C654.647 113.46 651.777 113.553 648.91 113.74C643.91 114.02 637.8 113.86 633.14 115.82C632.8 115.97 632.69 116.53 633.14 116.63H633.1Z" fill="black"/>
<path d="M631.49 132.2C637.05 132.13 642.6 132.01 648.17 131.87C650.87 131.79 653.57 131.77 656.27 131.81C658.77 131.81 661.83 132.46 664.18 131.56C665.03 131.23 665.44 129.91 664.46 129.43C662.3 128.36 659.66 128.67 657.29 128.64C654.25 128.593 651.21 128.613 648.17 128.7C642.494 128.863 636.842 129.495 631.27 130.59C630.35 130.77 630.57 132.21 631.49 132.2Z" fill="black"/>
<path d="M630.92 148.529C633.418 148.964 635.959 149.105 638.49 148.949C641 148.949 643.71 149.189 646.15 148.579C646.408 148.5 646.634 148.341 646.794 148.124C646.955 147.907 647.042 147.644 647.042 147.374C647.042 147.104 646.955 146.841 646.794 146.624C646.634 146.408 646.408 146.248 646.15 146.169C643.68 145.659 641 146.019 638.49 146.089C635.947 146.032 633.406 146.274 630.92 146.809C630.736 146.866 630.575 146.98 630.461 147.135C630.347 147.289 630.285 147.477 630.285 147.669C630.285 147.861 630.347 148.049 630.461 148.203C630.575 148.358 630.736 148.472 630.92 148.529Z" fill="black"/>
<path d="M690.52 109.62L686.65 110.62L686.19 110.76C686.1 110.76 685.96 110.7 685.95 110.66C685.94 110.62 686.05 110.56 686.13 110.56L686.49 110.36C688.69 109.2 690.9 108.06 693.08 106.88C694.787 106.143 696.424 105.252 697.97 104.22C700.13 102.49 702.17 100.62 704.27 98.8095C706.37 96.9995 703.75 99.3695 706.08 97.3695C703.53 97.1395 701.17 97.5495 698.81 97.4395C701.736 96.5515 704.757 96.0176 707.81 95.8495C708.022 95.835 708.219 95.7381 708.36 95.5795C711.65 92.7295 711.51 92.0395 714.98 89.4295C716.3 88.4295 717.59 87.4295 719.06 86.2895C717.084 86.2139 715.105 86.3818 713.17 86.7895C713.086 86.8427 712.991 86.8766 712.893 86.8887C712.794 86.9008 712.694 86.8908 712.6 86.8595L712.16 87.0195L711.88 87.0895C711.79 87.0895 711.63 87.0895 711.63 87.0895C711.63 87.0895 711.74 86.9795 711.82 86.9895C711.828 86.9622 711.841 86.9368 711.859 86.9148C711.877 86.8929 711.9 86.8748 711.925 86.8617C711.95 86.8486 711.978 86.8408 712.006 86.8387C712.035 86.8366 712.063 86.8403 712.09 86.8495C712.18 86.6895 712.33 86.6795 712.49 86.6795L713.09 86.5195C714.6 85.8747 716.211 85.499 717.85 85.4095C719.669 85.4634 721.437 84.8071 722.78 83.5795C724.21 82.0795 725.58 80.7395 727.15 79.3695C726.943 79.2124 726.69 79.1281 726.43 79.1295L720.3 80.0295C720.135 80.0903 719.957 80.1093 719.782 80.0849C719.608 80.0605 719.442 79.9934 719.3 79.8895C722.411 78.6888 725.624 77.7717 728.9 77.1495C729.524 76.8394 730.092 76.427 730.58 75.9295C731.75 74.5295 731.86 74.0495 732.93 72.5795C734.74 70.0995 736.38 67.5195 736.79 64.3795C736.894 63.9757 736.911 63.5542 736.838 63.1434C736.766 62.7327 736.606 62.3422 736.371 61.9982C736.135 61.6543 735.828 61.3649 735.471 61.1495C735.113 60.9341 734.714 60.7977 734.3 60.7495C733.348 60.517 732.368 60.4227 731.39 60.4695C727.717 60.7669 724.088 61.4713 720.57 62.5695C718.18 63.1995 716.02 64.1195 714.5 66.1895C714.381 66.4047 714.212 66.5874 714.006 66.7217C713.8 66.856 713.565 66.9376 713.32 66.9595C714 65.9595 714.86 65.3495 715.46 64.3195C715.17 64.3895 715 64.4095 714.83 64.4695C708.72 66.4695 711.07 65.7695 705.83 69.4695C703.74 70.9195 700.9 73.6595 699.83 75.9895C699.13 77.5695 696.83 80.0795 696.02 81.5895C696.02 81.5895 688.54 89.8895 688.52 89.8795L696.9 74.8995C695.65 75.8995 694.52 76.7295 693.41 77.6095C688.824 81.1678 684.453 84.9944 680.32 89.0695C676.43 92.7495 677.4 90.7795 674.79 95.5995C673.747 97.5224 672.546 99.3553 671.2 101.08L672.82 96.2895C669.2 98.7495 668.43 102.94 666.36 106.29L667.2 102.49C665.381 104.312 663.737 106.3 662.29 108.43C659.955 111.546 658.383 115.166 657.7 119C657.7 119.08 657.7 119.22 657.62 119.24C657.54 119.26 657.47 119.18 657.48 119.08C655.56 117.27 655.42 115.08 656.11 112.68C655.482 113.687 655.159 114.855 655.181 116.042C655.202 117.229 655.566 118.385 656.23 119.37C656.887 120.328 657.362 121.399 657.63 122.53C657.795 123.067 657.818 123.638 657.699 124.188C657.58 124.738 657.322 125.248 656.95 125.67C655.037 127.896 653.17 130.16 651.35 132.46C648.69 135.8 645.98 139.11 643.62 142.68C643.094 143.32 642.714 144.069 642.509 144.872C642.303 145.676 642.276 146.515 642.43 147.33C642.59 147.18 642.69 147.13 642.74 147.04C647.18 140.61 651.82 134.35 656.74 128.32C660.4 123.9 663.26 119.58 667.01 114.83C671.398 109.2 676.325 104.012 681.72 99.3395C689.605 92.3271 698.125 86.0634 707.17 80.6295C708.155 80.3642 709.157 80.1703 710.17 80.0495C709.04 80.9095 707.9 81.7495 706.77 82.6195C703.94 84.7895 675.53 108.62 667.15 118.17C664.92 120.72 662.7 123.27 660.59 125.94C662.47 126.34 663.2 128.3 664.87 128.89C664.34 127.89 663.39 127.23 662.98 126.13C665.64 127.58 678.08 125.25 677.24 124.91C676.4 124.57 666.53 126.91 664.4 125.36C670.09 123.66 674.92 120.51 679.79 117.12C678.53 116.75 677.34 117.12 676.13 116.52C677.83 116.29 679.34 116.07 680.86 115.9C681.417 115.832 681.946 115.614 682.39 115.27C686.97 111.91 686.39 113.85 690.77 110.27C690.93 110.13 691.28 110.02 691.12 109.71C690.96 109.4 690.75 109.56 690.52 109.62ZM696.12 114.72C695.813 115.035 695.478 115.323 695.12 115.58L694.91 115.73C693.271 117.16 691.41 118.315 689.4 119.15L689.17 119.24C688.795 119.383 688.428 119.547 688.07 119.73L683.8 122.73C683.995 123.281 684.113 123.856 684.15 124.44C684.24 125.583 684.043 126.731 683.577 127.779C683.111 128.827 682.39 129.741 681.48 130.44C680.825 130.964 680.079 131.364 679.28 131.62C678.624 131.843 677.957 132.03 677.28 132.18C676.52 132.35 675.64 132.52 674.69 132.68L679.29 141.33L662.61 135.39C661.912 135.153 661.241 134.841 660.61 134.46C656.49 139.55 652.44 145.01 648.35 150.96L648.08 151.32C647.56 151.97 646.52 152.88 647.08 152.38L638.61 160.27L635.78 149C635.252 146.925 635.325 144.744 635.99 142.71C636.437 141.346 637.077 140.053 637.89 138.87C639.75 136.06 641.34 133.97 644.89 129.47L645.12 129.19L645.94 128.19C647.42 126.34 648.86 124.57 650.28 122.88C649.025 120.888 648.335 118.594 648.282 116.241C648.229 113.888 648.816 111.565 649.98 109.52L653.04 110.74C654.046 108.587 655.237 106.526 656.6 104.58C658.293 102.107 660.211 99.7976 662.33 97.6795L663.69 96.3295C663.84 96.0795 663.99 95.8395 664.16 95.5795C665.394 93.6029 667.021 91.901 668.94 90.5795L670.13 89.7695L670.31 89.4695C670.858 88.5175 671.53 87.643 672.31 86.8695C672.55 86.6395 674.5 85.0295 675.51 84.0595C679.792 79.8585 684.312 75.9086 689.05 72.2295L689.43 71.9195L692.61 69.4495L719.54 48.5195L714.54 57.3095C715.872 56.6811 717.262 56.1821 718.69 55.8195L719.37 55.6395H719.54C724.86 54.2195 727.47 53.6395 730.99 53.5395C732.674 53.4449 734.362 53.5999 736 53.9995C738.475 54.5082 740.655 55.9587 742.081 58.0447C743.506 60.1307 744.065 62.689 743.64 65.1795C743.1 69.3195 741.49 72.4595 738.51 76.5495C738.24 76.9195 738.15 77.0595 737.75 77.6895L738.75 78.2795L736.26 80.4595L737.75 80.5495L727.75 88.2395C726.875 89.1546 725.863 89.9273 724.75 90.5295L723.24 91.6895L722.59 92.1895L715.08 98.6595C714.37 99.3695 713.79 99.9095 712.83 100.74L712.41 101.08C712.181 101.259 711.941 101.423 711.69 101.57L710.59 102.57C709.91 103.16 709.59 103.44 709.28 103.66L708.96 103.89L708.8 103.99L706.91 105.64C704.68 107.64 703.66 108.47 702.31 109.55C700.905 110.644 699.361 111.548 697.72 112.24C697.363 113.167 696.818 114.012 696.12 114.72ZM661.85 113.87C660.544 112.816 658.895 112.286 657.22 112.38L661.62 114.13L661.85 113.87Z" fill="black"/>
<path fill-rule="evenodd" clip-rule="evenodd" d="M690.52 109.62C690.75 109.56 691.02 109.39 691.18 109.62C691.34 109.85 690.99 110.04 690.83 110.18C686.44 113.79 687.03 111.85 682.45 115.18C682.006 115.524 681.477 115.742 680.92 115.81C679.4 115.98 677.92 116.2 676.19 116.43C677.4 117 678.59 116.66 679.85 117.03C674.98 120.42 670.15 123.57 664.46 125.27C666.59 126.82 676.46 124.48 677.3 124.82C678.14 125.16 665.7 127.49 663.04 126.04C663.45 127.14 664.4 127.8 664.93 128.8C663.26 128.21 662.53 126.25 660.65 125.85C662.76 123.18 664.98 120.63 667.21 118.08C675.59 108.54 704 84.6995 706.83 82.5295C707.96 81.6595 709.1 80.8195 710.23 79.9595C709.217 80.0803 708.215 80.2742 707.23 80.5395C698.185 85.9734 689.665 92.2371 681.78 99.2495C676.385 103.922 671.458 109.11 667.07 114.74C663.32 119.49 660.46 123.81 656.8 128.23C651.8 134.23 647.19 140.52 642.8 146.95C642.8 147.04 642.65 147.09 642.49 147.24C642.336 146.425 642.363 145.586 642.569 144.782C642.774 143.979 643.154 143.23 643.68 142.59C646.04 139.02 648.75 135.71 651.41 132.37C653.237 130.07 655.103 127.806 657.01 125.58C657.382 125.158 657.64 124.648 657.759 124.098C657.878 123.548 657.854 122.977 657.69 122.44C657.422 121.309 656.947 120.238 656.29 119.28C655.626 118.295 655.262 117.139 655.241 115.952C655.219 114.765 655.542 113.597 656.17 112.59C655.48 114.98 655.62 117.18 657.54 118.99C657.54 119.09 657.54 119.19 657.68 119.15C657.82 119.11 657.68 118.99 657.76 118.91C658.45 115.093 660.022 111.491 662.35 108.39C663.797 106.26 665.441 104.272 667.26 102.45L666.42 106.25C668.49 102.86 669.26 98.6695 672.88 96.2495L671.26 101.04C672.606 99.3153 673.807 97.4824 674.85 95.5595C677.46 90.7395 676.49 92.7095 680.38 89.0295C684.513 84.9545 688.884 81.1278 693.47 77.5695C694.58 76.6895 695.71 75.8295 696.96 74.8595L688.59 89.7195C688.59 89.7195 696.07 81.4195 696.09 81.4295C696.95 79.9195 699.2 77.4295 699.9 75.8295C700.9 73.4995 703.77 70.7595 705.9 69.3095C711.18 65.6395 708.83 66.3095 714.9 64.3095C715.07 64.2495 715.24 64.2295 715.53 64.1595C714.93 65.1595 714.07 65.8495 713.39 66.7995C713.635 66.7776 713.87 66.696 714.076 66.5617C714.282 66.4274 714.451 66.2447 714.57 66.0295C716.09 63.9595 718.25 63.0295 720.64 62.4095C724.158 61.3113 727.787 60.607 731.46 60.3095C732.438 60.2627 733.418 60.357 734.37 60.5895C734.784 60.6377 735.183 60.7741 735.541 60.9895C735.898 61.2049 736.205 61.4943 736.441 61.8383C736.676 62.1822 736.836 62.5727 736.908 62.9834C736.981 63.3942 736.964 63.8157 736.86 64.2195C736.45 67.3595 734.86 69.9395 733 72.4195C731.93 73.8895 731.82 74.4195 730.65 75.7695C730.162 76.267 729.594 76.6794 728.97 76.9895C725.694 77.6117 722.481 78.5288 719.37 79.7295C719.512 79.8334 719.678 79.9005 719.852 79.9249C720.027 79.9493 720.205 79.9303 720.37 79.8695L726.5 78.9695C726.76 78.9681 727.013 79.0524 727.22 79.2095C725.65 80.5795 724.28 81.9195 722.85 83.4195C721.507 84.6471 719.739 85.3034 717.92 85.2495C716.281 85.339 714.67 85.7147 713.16 86.3595L712.56 86.5195C712.4 86.5195 712.25 86.5195 712.16 86.6895C712.133 86.6803 712.105 86.6766 712.076 86.6787C712.048 86.6808 712.02 86.6886 711.995 86.7017C711.97 86.7148 711.947 86.7329 711.929 86.7548C711.911 86.7768 711.898 86.8022 711.89 86.8295C711.81 86.8295 711.69 86.7695 711.7 86.9295C711.71 87.0895 711.86 86.9295 711.95 86.9295L712.23 86.8595L712.67 86.6995C712.764 86.7308 712.864 86.7408 712.963 86.7287C713.061 86.7166 713.156 86.6827 713.24 86.6295C715.175 86.2218 717.154 86.0539 719.13 86.1295C717.66 87.2695 716.37 88.2795 715.05 89.2695C711.58 91.8795 711.72 92.5695 708.43 95.4195C708.289 95.5781 708.092 95.675 707.88 95.6895C704.827 95.8577 701.806 96.3915 698.88 97.2795C701.24 97.3895 703.6 96.9795 706.15 97.2095C703.82 99.2095 706.54 96.7495 704.34 98.6495C702.14 100.55 700.2 102.33 698.04 104.06C696.494 105.092 694.857 105.983 693.15 106.72C690.97 107.9 688.76 109.04 686.56 110.2L686.2 110.4C686.12 110.4 686 110.4 686.02 110.5C686.04 110.6 686.17 110.56 686.26 110.6L686.72 110.46L690.52 109.62Z" fill="#D3D8E0"/>
<path fill-rule="evenodd" clip-rule="evenodd" d="M660.94 126.08C661.94 124.68 663.05 123.24 664.2 121.77C665.2 120.58 666.2 119.41 667.26 118.24C672.275 112.895 677.559 107.809 683.09 103C682.86 104.37 661.6 126.28 660.94 126.08ZM686.46 95.4L691.34 86.74C693.47 84.37 696.07 81.48 696.08 81.49C696.94 79.97 699.19 77.49 699.89 75.87C700.89 73.54 703.76 70.8 705.89 69.35C711.17 65.67 708.82 66.35 714.89 64.35C715.094 64.2897 715.301 64.2396 715.51 64.2C714.844 65.1173 714.129 65.9985 713.37 66.84C713.616 66.8216 713.853 66.7414 714.059 66.6068C714.265 66.4721 714.434 66.2875 714.55 66.07C716.07 64 718.23 63.07 720.62 62.44C724.131 61.3385 727.753 60.6308 731.42 60.33C732.398 60.2839 733.377 60.3748 734.33 60.6C734.744 60.6511 735.142 60.7897 735.499 61.0065C735.855 61.2234 736.161 61.5137 736.396 61.858C736.632 62.2022 736.792 62.5927 736.865 63.0034C736.938 63.4141 736.922 63.8356 736.82 64.24C736.444 66.5352 735.555 68.716 734.22 70.62C734.31 70.2221 734.315 69.8098 734.235 69.4099C734.155 69.0099 733.992 68.6312 733.756 68.2984C733.52 67.9655 733.217 67.6859 732.866 67.4778C732.516 67.2696 732.125 67.1375 731.72 67.09C730.767 66.8648 729.788 66.7739 728.81 66.82C725.139 67.1233 721.513 67.8344 718 68.94C715.61 69.58 713.45 70.5 711.93 72.57C711.814 72.7875 711.645 72.9721 711.439 73.1068C711.233 73.2414 710.996 73.3216 710.75 73.34C711.509 72.4985 712.224 71.6173 712.89 70.7C712.6 70.77 712.43 70.8 712.27 70.85C706.16 72.85 708.51 72.16 703.27 75.85C701.18 77.3 698.34 80.04 697.27 82.38C696.58 83.96 694.32 86.47 693.46 87.99C693.46 87.99 689.83 91.99 687.62 94.46L686.46 95.4ZM655 130.58C653.72 132.19 643.65 145.58 642.45 147.28C642.08 145.53 651.65 132.28 652.51 131.02C654.85 127.44 657.89 126.53 655 130.58ZM656.31 119.45C655.645 118.464 655.28 117.307 655.259 116.118C655.238 114.929 655.561 113.759 656.19 112.75C655.52 115.06 655.63 117.2 657.36 118.97C657.15 119.38 656.95 119.79 656.77 120.21C656.61 120 656.46 119.69 656.3 119.45H656.31ZM662.36 108.54C663.816 106.415 665.463 104.427 667.28 102.6C667 103.86 666.71 105.13 666.43 106.4C668.5 103 669.27 98.81 672.9 96.34C672.37 97.89 671.9 99.42 671.27 101.13C672.624 99.4114 673.825 97.5778 674.86 95.65C677.48 90.82 676.51 92.8 680.39 89.11C684.523 85.0285 688.894 81.1952 693.48 77.63C694.58 76.74 695.71 75.88 696.96 74.91L692.5 82.83C691.94 83.27 691.4 83.69 690.87 84.12C686.283 87.6874 681.908 91.5206 677.77 95.6C673.89 99.29 674.86 97.31 672.24 102.14C671.203 104.07 670.002 105.906 668.65 107.63C669.24 105.91 669.75 104.38 670.28 102.83C666.65 105.3 665.88 109.49 663.81 112.89C664.09 111.62 664.38 110.35 664.66 109.09C662.843 110.917 661.196 112.905 659.74 115.03C659.12 115.93 658.53 116.85 658 117.78C658.837 114.447 660.314 111.309 662.35 108.54H662.36Z" fill="white"/>
</g>
<defs>
<clipPath id="clip0">
<rect width="882" height="300" fill="white"/>
</clipPath>
</defs>
</svg>
