<svg width="882" height="300" viewBox="0 0 882 300" fill="none" xmlns="http://www.w3.org/2000/svg">
<g clip-path="url(#clip0)">
<rect width="882" height="300" fill="white"/>
<rect width="882" height="210" fill="#E9ECF0"/>
<path d="M64.4062 101V68.3516H76.7109C78.4141 68.3516 79.9141 68.5469 81.2109 68.9375C82.5234 69.3281 83.6094 69.9219 84.4688 70.7188C85.3281 71.5156 85.9531 72.5 86.3438 73.6719C86.7344 74.8281 86.9297 76.1797 86.9297 77.7266C86.9297 79.1641 86.7422 80.4688 86.3672 81.6406C86.0078 82.7969 85.4141 83.7969 84.5859 84.6406C83.9453 85.2812 83.1953 85.8125 82.3359 86.2344C81.4922 86.6406 80.4297 86.9219 79.1484 87.0781L87.2109 101H81.9844L74.3438 87.2188H68.9766V101H64.4062ZM68.9766 83.3281H78.375C79.5938 83.3281 80.5234 82.9609 81.1641 82.2266C81.8047 81.4922 82.125 80.6172 82.125 79.6016V75.9922C82.125 74.8672 81.7891 73.9922 81.1172 73.3672C80.4453 72.7422 79.5312 72.4297 78.375 72.4297H68.9766V83.3281ZM92.6016 88.7656C92.6016 86.9062 92.8281 85.1875 93.2812 83.6094C93.75 82.0156 94.4375 80.6641 95.3438 79.5547C96.2656 78.4297 97.375 77.5469 98.6719 76.9062C99.9688 76.2656 101.461 75.9453 103.148 75.9453C104.914 75.9453 106.453 76.25 107.766 76.8594C109.078 77.4688 110.164 78.3047 111.023 79.3672C111.883 80.4141 112.531 81.6484 112.969 83.0703C113.406 84.4922 113.625 86.0234 113.625 87.6641V89.9609H97.1484V92.5625C97.1484 93.4531 97.3125 94.2422 97.6406 94.9297C97.9844 95.6172 98.4453 96.2031 99.0234 96.6875C99.6016 97.1562 100.25 97.5156 100.969 97.7656C101.688 98 102.43 98.1172 103.195 98.1172C104.727 98.1172 106.055 97.7266 107.18 96.9453C108.305 96.1641 108.945 94.9219 109.102 93.2188H113.438C113.344 94.5312 113 95.7031 112.406 96.7344C111.812 97.75 111.039 98.6172 110.086 99.3359C109.148 100.055 108.086 100.609 106.898 101C105.711 101.391 104.461 101.586 103.148 101.586C101.383 101.586 99.8359 101.266 98.5078 100.625C97.1953 99.9844 96.0938 99.1016 95.2031 97.9766C94.3281 96.8516 93.6719 95.5078 93.2344 93.9453C92.8125 92.3828 92.6016 90.6562 92.6016 88.7656ZM97.1484 86.5156H109.148V85.1562C109.148 84.2656 108.984 83.4609 108.656 82.7422C108.344 82.0234 107.906 81.4141 107.344 80.9141C106.797 80.4141 106.156 80.0391 105.422 79.7891C104.703 79.5234 103.945 79.3906 103.148 79.3906C102.352 79.3906 101.594 79.5234 100.875 79.7891C100.156 80.0391 99.5156 80.4141 98.9531 80.9141C98.3906 81.4141 97.9453 82.0234 97.6172 82.7422C97.3047 83.4609 97.1484 84.2656 97.1484 85.1562V86.5156ZM120.281 101V68.3516H124.594V101H120.281ZM131.367 88.7656C131.367 86.9062 131.594 85.1875 132.047 83.6094C132.516 82.0156 133.203 80.6641 134.109 79.5547C135.031 78.4297 136.141 77.5469 137.438 76.9062C138.734 76.2656 140.227 75.9453 141.914 75.9453C143.68 75.9453 145.219 76.25 146.531 76.8594C147.844 77.4688 148.93 78.3047 149.789 79.3672C150.648 80.4141 151.297 81.6484 151.734 83.0703C152.172 84.4922 152.391 86.0234 152.391 87.6641V89.9609H135.914V92.5625C135.914 93.4531 136.078 94.2422 136.406 94.9297C136.75 95.6172 137.211 96.2031 137.789 96.6875C138.367 97.1562 139.016 97.5156 139.734 97.7656C140.453 98 141.195 98.1172 141.961 98.1172C143.492 98.1172 144.82 97.7266 145.945 96.9453C147.07 96.1641 147.711 94.9219 147.867 93.2188H152.203C152.109 94.5312 151.766 95.7031 151.172 96.7344C150.578 97.75 149.805 98.6172 148.852 99.3359C147.914 100.055 146.852 100.609 145.664 101C144.477 101.391 143.227 101.586 141.914 101.586C140.148 101.586 138.602 101.266 137.273 100.625C135.961 99.9844 134.859 99.1016 133.969 97.9766C133.094 96.8516 132.438 95.5078 132 93.9453C131.578 92.3828 131.367 90.6562 131.367 88.7656ZM135.914 86.5156H147.914V85.1562C147.914 84.2656 147.75 83.4609 147.422 82.7422C147.109 82.0234 146.672 81.4141 146.109 80.9141C145.562 80.4141 144.922 80.0391 144.188 79.7891C143.469 79.5234 142.711 79.3906 141.914 79.3906C141.117 79.3906 140.359 79.5234 139.641 79.7891C138.922 80.0391 138.281 80.4141 137.719 80.9141C137.156 81.4141 136.711 82.0234 136.383 82.7422C136.07 83.4609 135.914 84.2656 135.914 85.1562V86.5156ZM157.406 94.2734C157.406 92.3516 158.016 90.7031 159.234 89.3281C160.453 87.9531 162.281 87.1562 164.719 86.9375L172.688 86.2109V84.2422C172.688 83.2891 172.562 82.5 172.312 81.875C172.078 81.25 171.734 80.7578 171.281 80.3984C170.844 80.0234 170.312 79.7656 169.688 79.625C169.062 79.4688 168.367 79.3906 167.602 79.3906C166.07 79.3906 164.844 79.7344 163.922 80.4219C163.016 81.1094 162.562 82.2422 162.562 83.8203H158.227C158.227 82.6641 158.477 81.6094 158.977 80.6562C159.477 79.6875 160.148 78.8516 160.992 78.1484C161.836 77.4453 162.828 76.9062 163.969 76.5312C165.109 76.1406 166.336 75.9453 167.648 75.9453C168.961 75.9453 170.18 76.1172 171.305 76.4609C172.445 76.7891 173.43 77.2891 174.258 77.9609C175.102 78.6328 175.75 79.5 176.203 80.5625C176.672 81.6094 176.906 82.8516 176.906 84.2891V97.2969H180.562V101H173.25L173.156 96.4766H172.969C172.297 98.2109 171.305 99.5 169.992 100.344C168.68 101.172 167.109 101.586 165.281 101.586C164.062 101.586 162.961 101.398 161.977 101.023C160.992 100.648 160.141 100.094 159.422 99.3594C158.781 98.7188 158.281 97.9531 157.922 97.0625C157.578 96.1719 157.406 95.2422 157.406 94.2734ZM161.977 94.8594C161.977 95.9844 162.367 96.8125 163.148 97.3438C163.93 97.8594 165.008 98.1172 166.383 98.1172C168.336 98.1172 169.875 97.4219 171 96.0312C172.125 94.6406 172.688 92.8438 172.688 90.6406V89.5391L163.992 90.3359C163.102 90.3984 162.539 90.6328 162.305 91.0391C162.086 91.4453 161.977 92 161.977 92.7031V94.8594ZM183.797 93.2656H188.133C188.195 94.8906 188.773 96.1094 189.867 96.9219C190.977 97.7188 192.281 98.1172 193.781 98.1172C195.219 98.1172 196.469 97.7969 197.531 97.1562C198.594 96.5156 199.125 95.5859 199.125 94.3672C199.125 93.3828 198.805 92.5938 198.164 92C197.523 91.4062 196.383 90.9531 194.742 90.6406L190.711 89.8203C188.695 89.3984 187.141 88.625 186.047 87.5C184.969 86.3594 184.43 84.8281 184.43 82.9062C184.43 81.9531 184.641 81.0547 185.062 80.2109C185.5 79.3516 186.117 78.6094 186.914 77.9844C187.727 77.3594 188.672 76.8672 189.75 76.5078C190.844 76.1328 192.062 75.9453 193.406 75.9453C194.562 75.9453 195.688 76.1016 196.781 76.4141C197.891 76.7109 198.875 77.1797 199.734 77.8203C200.609 78.4609 201.305 79.2812 201.82 80.2812C202.352 81.2656 202.633 82.4453 202.664 83.8203H198.352C198.289 82.1953 197.781 81.0547 196.828 80.3984C195.891 79.7266 194.766 79.3906 193.453 79.3906C192.109 79.3906 190.969 79.7109 190.031 80.3516C189.109 80.9922 188.648 81.8281 188.648 82.8594C188.648 83.8125 188.922 84.5547 189.469 85.0859C190.016 85.6172 190.898 86.0078 192.117 86.2578L196.242 87.125C198.68 87.6406 200.484 88.4766 201.656 89.6328C202.844 90.7734 203.438 92.3359 203.438 94.3203C203.438 95.3516 203.203 96.3125 202.734 97.2031C202.281 98.0781 201.617 98.8359 200.742 99.4766C199.883 100.102 198.859 100.609 197.672 101C196.484 101.391 195.172 101.586 193.734 101.586C192.359 101.586 191.07 101.406 189.867 101.047C188.68 100.703 187.633 100.188 186.727 99.5C185.836 98.7969 185.133 97.9297 184.617 96.8984C184.102 95.8516 183.828 94.6406 183.797 93.2656ZM208.523 88.7656C208.523 86.9062 208.75 85.1875 209.203 83.6094C209.672 82.0156 210.359 80.6641 211.266 79.5547C212.188 78.4297 213.297 77.5469 214.594 76.9062C215.891 76.2656 217.383 75.9453 219.07 75.9453C220.836 75.9453 222.375 76.25 223.688 76.8594C225 77.4688 226.086 78.3047 226.945 79.3672C227.805 80.4141 228.453 81.6484 228.891 83.0703C229.328 84.4922 229.547 86.0234 229.547 87.6641V89.9609H213.07V92.5625C213.07 93.4531 213.234 94.2422 213.562 94.9297C213.906 95.6172 214.367 96.2031 214.945 96.6875C215.523 97.1562 216.172 97.5156 216.891 97.7656C217.609 98 218.352 98.1172 219.117 98.1172C220.648 98.1172 221.977 97.7266 223.102 96.9453C224.227 96.1641 224.867 94.9219 225.023 93.2188H229.359C229.266 94.5312 228.922 95.7031 228.328 96.7344C227.734 97.75 226.961 98.6172 226.008 99.3359C225.07 100.055 224.008 100.609 222.82 101C221.633 101.391 220.383 101.586 219.07 101.586C217.305 101.586 215.758 101.266 214.43 100.625C213.117 99.9844 212.016 99.1016 211.125 97.9766C210.25 96.8516 209.594 95.5078 209.156 93.9453C208.734 92.3828 208.523 90.6562 208.523 88.7656ZM213.07 86.5156H225.07V85.1562C225.07 84.2656 224.906 83.4609 224.578 82.7422C224.266 82.0234 223.828 81.4141 223.266 80.9141C222.719 80.4141 222.078 80.0391 221.344 79.7891C220.625 79.5234 219.867 79.3906 219.07 79.3906C218.273 79.3906 217.516 79.5234 216.797 79.7891C216.078 80.0391 215.438 80.4141 214.875 80.9141C214.312 81.4141 213.867 82.0234 213.539 82.7422C213.227 83.4609 213.07 84.2656 213.07 85.1562V86.5156Z" fill="black"/>
<path d="M61.4091 145H68.2273V143.75H62.8182V133.364H61.4091V145ZM73.8864 145.182C75.6591 145.182 76.9545 144.295 77.3636 142.977L76.0682 142.614C75.7273 143.523 74.9375 143.977 73.8864 143.977C72.3125 143.977 71.2273 142.96 71.1648 141.091H77.5V140.523C77.5 137.273 75.5682 136.159 73.75 136.159C71.3864 136.159 69.8182 138.023 69.8182 140.705C69.8182 143.386 71.3636 145.182 73.8864 145.182ZM71.1648 139.932C71.2557 138.574 72.2159 137.364 73.75 137.364C75.2045 137.364 76.1364 138.455 76.1364 139.932H71.1648ZM82.108 145.205C83.6307 145.205 84.4261 144.386 84.6989 143.818H84.767V145H86.108V139.25C86.108 136.477 83.9943 136.159 82.8807 136.159C81.5625 136.159 80.0625 136.614 79.3807 138.205L80.6534 138.659C80.9489 138.023 81.6477 137.341 82.9261 137.341C84.1591 137.341 84.767 137.994 84.767 139.114V139.159C84.767 139.807 84.108 139.75 82.517 139.955C80.8977 140.165 79.1307 140.523 79.1307 142.523C79.1307 144.227 80.4489 145.205 82.108 145.205ZM82.3125 144C81.2443 144 80.4716 143.523 80.4716 142.591C80.4716 141.568 81.4034 141.25 82.4489 141.114C83.017 141.045 84.5398 140.886 84.767 140.614V141.841C84.767 142.932 83.9034 144 82.3125 144ZM88.5554 145H89.8963V139.477C89.8963 138.295 90.8281 137.432 92.1009 137.432C92.4588 137.432 92.8281 137.5 92.919 137.523V136.159C92.7656 136.148 92.4134 136.136 92.2145 136.136C91.169 136.136 90.2599 136.727 89.9418 137.591H89.8509V136.273H88.5554V145ZM95.8494 139.75C95.8494 138.227 96.7926 137.364 98.0767 137.364C99.321 137.364 100.077 138.176 100.077 139.545V145H101.418V139.455C101.418 137.227 100.23 136.159 98.4631 136.159C97.1449 136.159 96.3267 136.75 95.9176 137.636H95.804V136.273H94.5085V145H95.8494V139.75ZM110.936 145.205C112.459 145.205 113.254 144.386 113.527 143.818H113.595V145H114.936V139.25C114.936 136.477 112.822 136.159 111.709 136.159C110.391 136.159 108.891 136.614 108.209 138.205L109.482 138.659C109.777 138.023 110.476 137.341 111.754 137.341C112.987 137.341 113.595 137.994 113.595 139.114V139.159C113.595 139.807 112.936 139.75 111.345 139.955C109.726 140.165 107.959 140.523 107.959 142.523C107.959 144.227 109.277 145.205 110.936 145.205ZM111.141 144C110.072 144 109.3 143.523 109.3 142.591C109.3 141.568 110.232 141.25 111.277 141.114C111.845 141.045 113.368 140.886 113.595 140.614V141.841C113.595 142.932 112.732 144 111.141 144ZM117.565 145H118.861V143.659H119.02C119.315 144.136 119.884 145.182 121.565 145.182C123.747 145.182 125.27 143.432 125.27 140.659C125.27 137.909 123.747 136.159 121.543 136.159C119.838 136.159 119.315 137.205 119.02 137.659H118.906V133.364H117.565V145ZM118.884 140.636C118.884 138.682 119.747 137.364 121.384 137.364C123.088 137.364 123.929 138.795 123.929 140.636C123.929 142.5 123.065 143.977 121.384 143.977C119.77 143.977 118.884 142.614 118.884 140.636ZM130.866 145.182C133.23 145.182 134.821 143.386 134.821 140.682C134.821 137.955 133.23 136.159 130.866 136.159C128.503 136.159 126.912 137.955 126.912 140.682C126.912 143.386 128.503 145.182 130.866 145.182ZM130.866 143.977C129.071 143.977 128.253 142.432 128.253 140.682C128.253 138.932 129.071 137.364 130.866 137.364C132.662 137.364 133.48 138.932 133.48 140.682C133.48 142.432 132.662 143.977 130.866 143.977ZM142.368 141.432C142.368 143.068 141.118 143.818 140.118 143.818C139.004 143.818 138.209 143 138.209 141.727V136.273H136.868V141.818C136.868 144.045 138.05 145.114 139.686 145.114C141.004 145.114 141.868 144.409 142.277 143.523H142.368V145H143.709V136.273H142.368V141.432ZM149.96 136.273H148.097V134.182H146.756V136.273H145.438V137.409H146.756V142.864C146.756 144.386 147.983 145.114 149.119 145.114C149.619 145.114 149.938 145.023 150.119 144.955L149.847 143.75C149.733 143.773 149.551 143.818 149.256 143.818C148.665 143.818 148.097 143.636 148.097 142.5V137.409H149.96V136.273ZM156.477 148.273H157.818V143.659H157.932C158.227 144.136 158.795 145.182 160.477 145.182C162.659 145.182 164.182 143.432 164.182 140.659C164.182 137.909 162.659 136.159 160.455 136.159C158.75 136.159 158.227 137.205 157.932 137.659H157.773V136.273H156.477V148.273ZM157.795 140.636C157.795 138.682 158.659 137.364 160.295 137.364C162 137.364 162.841 138.795 162.841 140.636C162.841 142.5 161.977 143.977 160.295 143.977C158.682 143.977 157.795 142.614 157.795 140.636ZM167.568 133.364H166.227V145H167.568V133.364ZM172.592 145.205C174.115 145.205 174.911 144.386 175.183 143.818H175.251V145H176.592V139.25C176.592 136.477 174.479 136.159 173.365 136.159C172.047 136.159 170.547 136.614 169.865 138.205L171.138 138.659C171.433 138.023 172.132 137.341 173.411 137.341C174.643 137.341 175.251 137.994 175.251 139.114V139.159C175.251 139.807 174.592 139.75 173.001 139.955C171.382 140.165 169.615 140.523 169.615 142.523C169.615 144.227 170.933 145.205 172.592 145.205ZM172.797 144C171.729 144 170.956 143.523 170.956 142.591C170.956 141.568 171.888 141.25 172.933 141.114C173.501 141.045 175.024 140.886 175.251 140.614V141.841C175.251 142.932 174.388 144 172.797 144ZM180.381 139.75C180.381 138.227 181.324 137.364 182.608 137.364C183.852 137.364 184.608 138.176 184.608 139.545V145H185.949V139.455C185.949 137.227 184.761 136.159 182.994 136.159C181.676 136.159 180.858 136.75 180.449 137.636H180.335V136.273H179.04V145H180.381V139.75ZM194.581 138.227C194.161 136.989 193.217 136.159 191.49 136.159C189.649 136.159 188.286 137.205 188.286 138.682C188.286 139.886 189.001 140.693 190.604 141.068L192.058 141.409C192.939 141.614 193.354 142.034 193.354 142.636C193.354 143.386 192.558 144 191.308 144C190.212 144 189.524 143.528 189.286 142.591L188.013 142.909C188.325 144.392 189.547 145.182 191.331 145.182C193.359 145.182 194.74 144.074 194.74 142.568C194.74 141.352 193.979 140.585 192.422 140.205L191.126 139.886C190.092 139.631 189.626 139.284 189.626 138.614C189.626 137.864 190.422 137.318 191.49 137.318C192.661 137.318 193.143 137.966 193.376 138.568L194.581 138.227ZM203.827 145.205C205.349 145.205 206.145 144.386 206.418 143.818H206.486V145H207.827V139.25C207.827 136.477 205.713 136.159 204.599 136.159C203.281 136.159 201.781 136.614 201.099 138.205L202.372 138.659C202.668 138.023 203.366 137.341 204.645 137.341C205.878 137.341 206.486 137.994 206.486 139.114V139.159C206.486 139.807 205.827 139.75 204.236 139.955C202.616 140.165 200.849 140.523 200.849 142.523C200.849 144.227 202.168 145.205 203.827 145.205ZM204.031 144C202.963 144 202.19 143.523 202.19 142.591C202.19 141.568 203.122 141.25 204.168 141.114C204.736 141.045 206.259 140.886 206.486 140.614V141.841C206.486 142.932 205.622 144 204.031 144ZM211.615 139.75C211.615 138.227 212.558 137.364 213.842 137.364C215.087 137.364 215.842 138.176 215.842 139.545V145H217.183V139.455C217.183 137.227 215.996 136.159 214.229 136.159C212.911 136.159 212.092 136.75 211.683 137.636H211.57V136.273H210.274V145H211.615V139.75ZM222.929 145.182C224.611 145.182 225.179 144.136 225.474 143.659H225.634V145H226.929V133.364H225.588V137.659H225.474C225.179 137.205 224.656 136.159 222.952 136.159C220.747 136.159 219.224 137.909 219.224 140.659C219.224 143.432 220.747 145.182 222.929 145.182ZM223.111 143.977C221.429 143.977 220.565 142.5 220.565 140.636C220.565 138.795 221.406 137.364 223.111 137.364C224.747 137.364 225.611 138.682 225.611 140.636C225.611 142.614 224.724 143.977 223.111 143.977ZM240.253 138.227C239.832 136.989 238.889 136.159 237.162 136.159C235.321 136.159 233.957 137.205 233.957 138.682C233.957 139.886 234.673 140.693 236.276 141.068L237.73 141.409C238.611 141.614 239.026 142.034 239.026 142.636C239.026 143.386 238.23 144 236.98 144C235.884 144 235.196 143.528 234.957 142.591L233.685 142.909C233.997 144.392 235.219 145.182 237.003 145.182C239.031 145.182 240.412 144.074 240.412 142.568C240.412 141.352 239.651 140.585 238.094 140.205L236.798 139.886C235.764 139.631 235.298 139.284 235.298 138.614C235.298 137.864 236.094 137.318 237.162 137.318C238.332 137.318 238.815 137.966 239.048 138.568L240.253 138.227ZM242.43 148.273H243.771V143.659H243.885C244.18 144.136 244.749 145.182 246.43 145.182C248.612 145.182 250.135 143.432 250.135 140.659C250.135 137.909 248.612 136.159 246.408 136.159C244.703 136.159 244.18 137.205 243.885 137.659H243.726V136.273H242.43V148.273ZM243.749 140.636C243.749 138.682 244.612 137.364 246.249 137.364C247.953 137.364 248.794 138.795 248.794 140.636C248.794 142.5 247.93 143.977 246.249 143.977C244.635 143.977 243.749 142.614 243.749 140.636ZM255.839 145.182C257.612 145.182 258.908 144.295 259.317 142.977L258.021 142.614C257.68 143.523 256.891 143.977 255.839 143.977C254.266 143.977 253.18 142.96 253.118 141.091H259.453V140.523C259.453 137.273 257.521 136.159 255.703 136.159C253.339 136.159 251.771 138.023 251.771 140.705C251.771 143.386 253.317 145.182 255.839 145.182ZM253.118 139.932C253.209 138.574 254.169 137.364 255.703 137.364C257.158 137.364 258.089 138.455 258.089 139.932H253.118ZM265.038 145.182C266.97 145.182 268.243 144 268.47 142.455H267.129C266.879 143.409 266.084 143.977 265.038 143.977C263.447 143.977 262.425 142.659 262.425 140.636C262.425 138.659 263.47 137.364 265.038 137.364C266.22 137.364 266.925 138.091 267.129 138.886H268.47C268.243 137.25 266.857 136.159 265.016 136.159C262.652 136.159 261.084 138.023 261.084 140.682C261.084 143.295 262.584 145.182 265.038 145.182ZM276.612 138.227C276.192 136.989 275.249 136.159 273.521 136.159C271.68 136.159 270.317 137.205 270.317 138.682C270.317 139.886 271.033 140.693 272.635 141.068L274.089 141.409C274.97 141.614 275.385 142.034 275.385 142.636C275.385 143.386 274.589 144 273.339 144C272.243 144 271.555 143.528 271.317 142.591L270.044 142.909C270.357 144.392 271.578 145.182 273.362 145.182C275.391 145.182 276.771 144.074 276.771 142.568C276.771 141.352 276.01 140.585 274.453 140.205L273.158 139.886C272.124 139.631 271.658 139.284 271.658 138.614C271.658 137.864 272.453 137.318 273.521 137.318C274.692 137.318 275.175 137.966 275.408 138.568L276.612 138.227ZM287.176 136.273H285.222V135.386C285.222 134.523 285.585 134.068 286.472 134.068C286.858 134.068 287.085 134.159 287.222 134.205L287.608 133.045C287.403 132.955 286.994 132.818 286.335 132.818C285.085 132.818 283.881 133.568 283.881 135.068V136.273H282.472V137.409H283.881V145H285.222V137.409H287.176V136.273ZM292.241 145.182C294.605 145.182 296.196 143.386 296.196 140.682C296.196 137.955 294.605 136.159 292.241 136.159C289.878 136.159 288.287 137.955 288.287 140.682C288.287 143.386 289.878 145.182 292.241 145.182ZM292.241 143.977C290.446 143.977 289.628 142.432 289.628 140.682C289.628 138.932 290.446 137.364 292.241 137.364C294.037 137.364 294.855 138.932 294.855 140.682C294.855 142.432 294.037 143.977 292.241 143.977ZM298.243 145H299.584V139.477C299.584 138.295 300.516 137.432 301.788 137.432C302.146 137.432 302.516 137.5 302.607 137.523V136.159C302.453 136.148 302.101 136.136 301.902 136.136C300.857 136.136 299.947 136.727 299.629 137.591H299.538V136.273H298.243V145ZM312.241 145.182C314.605 145.182 316.196 143.386 316.196 140.682C316.196 137.955 314.605 136.159 312.241 136.159C309.878 136.159 308.287 137.955 308.287 140.682C308.287 143.386 309.878 145.182 312.241 145.182ZM312.241 143.977C310.446 143.977 309.628 142.432 309.628 140.682C309.628 138.932 310.446 137.364 312.241 137.364C314.037 137.364 314.855 138.932 314.855 140.682C314.855 142.432 314.037 143.977 312.241 143.977ZM323.743 141.432C323.743 143.068 322.493 143.818 321.493 143.818C320.379 143.818 319.584 143 319.584 141.727V136.273H318.243V141.818C318.243 144.045 319.425 145.114 321.061 145.114C322.379 145.114 323.243 144.409 323.652 143.523H323.743V145H325.084V136.273H323.743V141.432ZM327.54 145H328.881V139.477C328.881 138.295 329.812 137.432 331.085 137.432C331.443 137.432 331.812 137.5 331.903 137.523V136.159C331.75 136.148 331.398 136.136 331.199 136.136C330.153 136.136 329.244 136.727 328.926 137.591H328.835V136.273H327.54V145ZM341.788 136.273H339.925V134.182H338.584V136.273H337.266V137.409H338.584V142.864C338.584 144.386 339.811 145.114 340.947 145.114C341.447 145.114 341.766 145.023 341.947 144.955L341.675 143.75C341.561 143.773 341.379 143.818 341.084 143.818C340.493 143.818 339.925 143.636 339.925 142.5V137.409H341.788V136.273ZM347.371 145.182C349.143 145.182 350.439 144.295 350.848 142.977L349.553 142.614C349.212 143.523 348.422 143.977 347.371 143.977C345.797 143.977 344.712 142.96 344.649 141.091H350.984V140.523C350.984 137.273 349.053 136.159 347.234 136.159C344.871 136.159 343.303 138.023 343.303 140.705C343.303 143.386 344.848 145.182 347.371 145.182ZM344.649 139.932C344.74 138.574 345.7 137.364 347.234 137.364C348.689 137.364 349.621 138.455 349.621 139.932H344.649ZM359.206 138.227C358.786 136.989 357.842 136.159 356.115 136.159C354.274 136.159 352.911 137.205 352.911 138.682C352.911 139.886 353.626 140.693 355.229 141.068L356.683 141.409C357.564 141.614 357.979 142.034 357.979 142.636C357.979 143.386 357.183 144 355.933 144C354.837 144 354.149 143.528 353.911 142.591L352.638 142.909C352.95 144.392 354.172 145.182 355.956 145.182C357.984 145.182 359.365 144.074 359.365 142.568C359.365 141.352 358.604 140.585 357.047 140.205L355.751 139.886C354.717 139.631 354.251 139.284 354.251 138.614C354.251 137.864 355.047 137.318 356.115 137.318C357.286 137.318 357.768 137.966 358.001 138.568L359.206 138.227ZM365.179 136.273H363.315V134.182H361.974V136.273H360.656V137.409H361.974V142.864C361.974 144.386 363.202 145.114 364.338 145.114C364.838 145.114 365.156 145.023 365.338 144.955L365.065 143.75C364.952 143.773 364.77 143.818 364.474 143.818C363.884 143.818 363.315 143.636 363.315 142.5V137.409H365.179V136.273ZM368.537 139.75C368.537 138.227 369.48 137.364 370.764 137.364C372.009 137.364 372.764 138.176 372.764 139.545V145H374.105V139.455C374.105 137.227 372.918 136.159 371.151 136.159C369.832 136.159 369.014 136.75 368.605 137.636H368.491V136.273H367.196V145H368.537V139.75ZM380.214 145.182C381.987 145.182 383.283 144.295 383.692 142.977L382.396 142.614C382.055 143.523 381.266 143.977 380.214 143.977C378.641 143.977 377.555 142.96 377.493 141.091H383.828V140.523C383.828 137.273 381.896 136.159 380.078 136.159C377.714 136.159 376.146 138.023 376.146 140.705C376.146 143.386 377.692 145.182 380.214 145.182ZM377.493 139.932C377.584 138.574 378.544 137.364 380.078 137.364C381.533 137.364 382.464 138.455 382.464 139.932H377.493ZM389.663 136.273H387.8V134.182H386.459V136.273H385.141V137.409H386.459V142.864C386.459 144.386 387.686 145.114 388.822 145.114C389.322 145.114 389.641 145.023 389.822 144.955L389.55 143.75C389.436 143.773 389.254 143.818 388.959 143.818C388.368 143.818 387.8 143.636 387.8 142.5V137.409H389.663V136.273ZM397.706 138.227C397.286 136.989 396.342 136.159 394.615 136.159C392.774 136.159 391.411 137.205 391.411 138.682C391.411 139.886 392.126 140.693 393.729 141.068L395.183 141.409C396.064 141.614 396.479 142.034 396.479 142.636C396.479 143.386 395.683 144 394.433 144C393.337 144 392.649 143.528 392.411 142.591L391.138 142.909C391.45 144.392 392.672 145.182 394.456 145.182C396.484 145.182 397.865 144.074 397.865 142.568C397.865 141.352 397.104 140.585 395.547 140.205L394.251 139.886C393.217 139.631 392.751 139.284 392.751 138.614C392.751 137.864 393.547 137.318 394.615 137.318C395.786 137.318 396.268 137.966 396.501 138.568L397.706 138.227Z" fill="black"/>
<rect x="620" y="105" width="52.5" height="52.5" fill="#D8DDE5"/>
<path d="M625.837 157.5H620V163.337H625.837V157.5Z" fill="#D8DDE5"/>
<path d="M631.673 163.337H625.837V169.174H631.673V163.337Z" fill="#D8DDE5"/>
<path d="M637.494 157.5H631.658V163.337H637.494V157.5Z" fill="#D8DDE5"/>
<path d="M625.837 169.158H620V174.995H625.837V169.158Z" fill="#D8DDE5"/>
<path d="M637.494 169.158H631.658V174.995H637.494V169.158Z" fill="#D8DDE5"/>
<path d="M643.332 163.337H637.495V169.174H643.332V163.337Z" fill="#D8DDE5"/>
<path d="M631.673 174.995H625.837V180.832H631.673V174.995Z" fill="#D8DDE5"/>
<path d="M625.837 180.832H620V186.669H625.837V180.832Z" fill="#D8DDE5"/>
<path d="M637.494 180.832H631.658V186.669H637.494V180.832Z" fill="#D8DDE5"/>
<path d="M643.332 174.995H637.495V180.832H643.332V174.995Z" fill="#D8DDE5"/>
<path d="M631.673 186.668H625.837V192.505H631.673V186.668Z" fill="#D8DDE5"/>
<path d="M625.837 192.489H620V198.326H625.837V192.489Z" fill="#D8DDE5"/>
<path d="M637.494 192.489H631.658V198.326H637.494V192.489Z" fill="#D8DDE5"/>
<path d="M643.332 186.668H637.495V192.505H643.332V186.668Z" fill="#D8DDE5"/>
<path d="M631.673 198.326H625.837V204.163H631.673V198.326Z" fill="#D8DDE5"/>
<path d="M625.837 204.164H620V210.001H625.837V204.164Z" fill="#D8DDE5"/>
<path d="M637.494 204.164H631.658V210.001H637.494V204.164Z" fill="#D8DDE5"/>
<path d="M643.332 198.326H637.495V204.163H643.332V198.326Z" fill="#D8DDE5"/>
<path d="M649.168 157.5H643.331V163.337H649.168V157.5Z" fill="#D8DDE5"/>
<path d="M655.006 163.337H649.169V169.174H655.006V163.337Z" fill="#D8DDE5"/>
<path d="M660.826 157.5H654.99V163.337H660.826V157.5Z" fill="#D8DDE5"/>
<path d="M649.168 169.158H643.331V174.995H649.168V169.158Z" fill="#D8DDE5"/>
<path d="M660.826 169.158H654.99V174.995H660.826V169.158Z" fill="#D8DDE5"/>
<path d="M666.663 163.337H660.826V169.174H666.663V163.337Z" fill="#D8DDE5"/>
<path d="M655.006 174.995H649.169V180.832H655.006V174.995Z" fill="#D8DDE5"/>
<path d="M649.168 180.832H643.331V186.669H649.168V180.832Z" fill="#D8DDE5"/>
<path d="M660.826 180.832H654.99V186.669H660.826V180.832Z" fill="#D8DDE5"/>
<path d="M666.663 174.995H660.826V180.832H666.663V174.995Z" fill="#D8DDE5"/>
<path d="M655.006 186.668H649.169V192.505H655.006V186.668Z" fill="#D8DDE5"/>
<path d="M649.168 192.489H643.331V198.326H649.168V192.489Z" fill="#D8DDE5"/>
<path d="M660.826 192.489H654.99V198.326H660.826V192.489Z" fill="#D8DDE5"/>
<path d="M666.663 186.668H660.826V192.505H666.663V186.668Z" fill="#D8DDE5"/>
<path d="M655.006 198.326H649.169V204.163H655.006V198.326Z" fill="#D8DDE5"/>
<path d="M649.168 204.164H643.331V210.001H649.168V204.164Z" fill="#D8DDE5"/>
<path d="M660.826 204.164H654.99V210.001H660.826V204.164Z" fill="#D8DDE5"/>
<path d="M672.5 157.5H666.663V163.337H672.5V157.5Z" fill="#D8DDE5"/>
<path d="M672.5 169.158H666.663V174.995H672.5V169.158Z" fill="#D8DDE5"/>
<path d="M672.5 180.832H666.663V186.669H672.5V180.832Z" fill="#D8DDE5"/>
<path d="M672.5 192.489H666.663V198.326H672.5V192.489Z" fill="#D8DDE5"/>
<path d="M672.5 204.164H666.663V210.001H672.5V204.164Z" fill="#D8DDE5"/>
<path d="M666.663 198.326H660.826V204.163H666.663V198.326Z" fill="#D8DDE5"/>
<rect x="631.667" y="52.5" width="5.83333" height="52.5" fill="#D8DDE5"/>
<rect x="643.333" y="52.5" width="5.83333" height="52.5" fill="#D8DDE5"/>
<rect x="655" y="52.5" width="5.83333" height="52.5" fill="#D8DDE5"/>
<rect x="666.667" y="52.5" width="5.83333" height="52.5" fill="#D8DDE5"/>
<rect x="620" y="52.5" width="5.83668" height="52.5" fill="#D8DDE5"/>
<rect x="555.833" y="157.5" width="5.83333" height="52.5" transform="rotate(-180 555.833 157.5)" fill="#D8DDE5"/>
<rect x="544.167" y="157.5" width="5.83333" height="52.5" transform="rotate(-180 544.167 157.5)" fill="#D8DDE5"/>
<rect x="532.5" y="157.5" width="5.83333" height="52.5" transform="rotate(-180 532.5 157.5)" fill="#D8DDE5"/>
<rect x="520.833" y="157.5" width="5.83333" height="52.5" transform="rotate(-180 520.833 157.5)" fill="#D8DDE5"/>
<rect x="567.5" y="157.5" width="5.83668" height="52.5" transform="rotate(-180 567.5 157.5)" fill="#D8DDE5"/>
<rect x="870.505" y="53.4844" width="5.83333" height="52.5" transform="rotate(-180 870.505 53.4844)" fill="#D8DDE5"/>
<rect x="858.838" y="53.4844" width="5.83333" height="52.5" transform="rotate(-180 858.838 53.4844)" fill="#D8DDE5"/>
<rect x="847.172" y="53.4844" width="5.83333" height="52.5" transform="rotate(-180 847.172 53.4844)" fill="#D8DDE5"/>
<rect x="835.505" y="53.4844" width="5.83333" height="52.5" transform="rotate(-180 835.505 53.4844)" fill="#D8DDE5"/>
<rect x="882.172" y="53.4844" width="5.83668" height="52.5" transform="rotate(-180 882.172 53.4844)" fill="#D8DDE5"/>
<path fill-rule="evenodd" clip-rule="evenodd" d="M567.5 163.333V157.5C596.495 157.5 620 181.005 620 210H614.167C614.167 184.227 593.273 163.333 567.5 163.333ZM567.5 175V169.166C590.052 169.166 608.333 187.448 608.333 210H602.5C602.5 190.67 586.83 175 567.5 175ZM567.5 180.834V186.667C580.387 186.667 590.833 197.114 590.833 210L596.667 210C596.667 193.892 583.608 180.834 567.5 180.834ZM567.5 198.333V192.5C577.165 192.5 585 200.335 585 210H579.167C579.167 203.557 573.943 198.333 567.5 198.333ZM567.5 210V204.166C570.722 204.166 573.333 206.778 573.333 210H567.5Z" fill="#D8DDE5"/>
<path fill-rule="evenodd" clip-rule="evenodd" d="M777 110.833V105C805.995 105 829.5 128.505 829.5 157.5L823.667 157.5C823.667 131.727 802.773 110.833 777 110.833ZM777 122.5V116.667C799.552 116.667 817.833 134.949 817.833 157.5H812C812 138.17 796.33 122.5 777 122.5ZM777 128.333V134.167C789.887 134.167 800.333 144.613 800.333 157.5L806.167 157.5C806.167 141.392 793.108 128.333 777 128.333ZM777 145.833V140C786.665 140 794.5 147.835 794.5 157.5H788.667C788.667 151.056 783.443 145.833 777 145.833ZM777 157.5V151.667C780.222 151.667 782.833 154.279 782.833 157.5H777Z" fill="#D8DDE5"/>
<path d="M729.112 52.5H725V48.3875L773.387 0H777.5V4.1125L729.112 52.5ZM765.133 0H756.879L725 31.8791V40.1333L765.133 0ZM748.625 0H740.371L725 15.3708V23.625L748.625 0ZM725 0V7.11666L732.116 0H725ZM777.5 20.6208V12.3667L737.366 52.5H745.621L777.5 20.6208ZM777.5 37.1291V28.875L753.875 52.5H762.129L777.5 37.1291ZM777.5 45.3833L770.383 52.5H777.5V45.3833Z" fill="#D8DDE5"/>
<path d="M672.5 105L725 105L725 52.5C696.005 52.5 672.5 76.0051 672.5 105Z" fill="#D8DDE5"/>
<path d="M777.5 157.5L777.5 105L725 105C725 133.995 748.505 157.5 777.5 157.5Z" fill="#D8DDE5"/>
<path d="M727.4 129.201C726.5 129.401 724.8 130.201 723.9 130.401C723.9 131.201 723.9 130.801 723.9 131.501C725.1 133.101 725.1 133.101 726.1 134.701C728.8 139.201 732.5 142.501 735.2 147.001C736 148.301 738 150.801 738.4 152.301C738.7 153.501 738.7 154.701 738.8 156.001C739.1 173.201 739.4 190.401 739.7 207.601C739.7 208.601 739.7 209.601 739.4 210.601C738.6 212.701 734.1 213.601 732 214.201C718.6 218.301 704.1 219.001 690.4 216.201C687.7 215.701 683.9 215.001 682.2 212.801C680.1 210.201 679.9 206.401 679.6 203.101C678.8 194.301 679.3 190.201 678.8 181.901C678.6 178.001 678.2 177.301 678.2 172.501C678.2 169.701 678.3 167.601 678.3 164.701C678.4 161.701 678.4 158.301 678.5 155.301C678.6 151.001 682.4 147.401 685 144.101C687.3 141.201 689.6 138.401 691.9 135.501C693.3 133.701 693.3 133.701 695.3 131.601C695.2 130.801 695.5 130.801 695.5 130.001C694 129.901 694.3 129.301 692.8 129.201C692.3 124.501 692.1 120.001 692.5 114.801C692.6 113.801 692.5 111.101 693.3 110.301C693.8 109.801 697.4 107.801 698.1 107.501C704.4 105.301 718.9 105.701 724.9 109.401C727.4 110.901 727.5 115.301 728 118.001C727.9 119.101 728.3 128.901 727.4 129.201Z" fill="black"/>
<path d="M701.5 125.701C701.5 126.001 701.5 126.301 701.6 126.601C701.8 126.901 702.2 127.101 702.6 127.201C704.4 127.801 706.3 127.701 708.2 127.601C708.4 123.301 708.3 119.001 708 114.701C704.9 114.201 702.7 112.901 702.2 116.401C701.7 119.401 701.5 122.601 701.5 125.701Z" fill="#D3D8E0"/>
<path d="M711.2 123.801C711.1 125.201 710.8 126.701 711.6 127.901C713.4 127.901 715.2 127.801 716.9 127.601C717.1 126.301 716.9 125.001 716.7 123.701C716.2 120.801 715.6 117.901 715 115.001C712.1 114.801 711 114.401 711.2 117.301C711.3 119.501 711.4 121.601 711.2 123.801Z" fill="#D3D8E0"/>
<path d="M720 124.2C720 125.3 720.1 126.7 721.2 127C722.1 127.2 723.1 126.6 723.9 126.6C723.7 122.9 723.2 119.8 722 116C721.7 114.9 721.1 114.4 720 114.9C718.7 115.4 719.4 115.8 719.3 116.9C719.2 119.3 720.1 121.8 720 124.2Z" fill="#D3D8E0"/>
<path d="M698.6 120.3C698.8 122.7 698.5 124.8 698.7 126.9C698.1 126.7 697.5 126.5 696.8 126.4C696.7 124.9 696.7 123.4 696.6 121.8C696.6 120.9 696.5 120.1 696.6 119.2C696.7 117.6 696.1 113.5 697.5 113.7C698 113.7 698.9 114 699 114.8C699.2 116.5 698.5 119.2 698.6 120.3Z" fill="#D3D8E0"/>
<path d="M701.5 129.2C700.5 129.1 700.5 129.2 700.3 130.1C700.2 130.6 700 131 700.5 131.3C701 131.6 701.8 131.9 702.3 131.9C707.1 132.3 712 132.3 716.8 132.2C717.6 132.2 718.9 131.7 719.8 131.5C720.5 131.3 720.5 129.5 719.5 129.6C717.7 129.7 715.8 130.1 714 130.1C710.1 130.3 705.3 129.8 701.5 129.2Z" fill="#D3D8E0"/>
<path d="M714.7 135.2C716.1 135 717.8 135.3 719.1 135.9C720.5 136.6 724 140.7 725.3 143.6C727.2 148 727.9 149 730 153.1C730.4 153.9 731.4 154.3 731.6 155.1C731.8 155.8 731.4 156.6 731.5 157.3C732.1 164.8 732.9 171.4 732.9 178.4C732.9 182.2 732.5 186.3 732.4 190.1C732.3 195.9 732.4 198.3 732 203.9C732 204.4 731.4 205.1 731.2 205.6C730.9 206.3 730 206.5 729.3 206.7C716.3 209.6 702.7 210.2 689.4 208.4C688.6 208.3 687.7 208.1 687.2 207.5C686.8 207 686.7 206.2 686.7 205.6C686.2 197.3 685.7 189.1 685.2 180.8C685.1 178.8 685 176.7 685.1 174.6C685.3 170.5 685.6 167.8 685.1 163.7C684.8 161 684.8 156.8 685.6 154.2C686.1 152.5 687.4 151.1 688.6 149.7C690.6 147.3 690.9 147.1 692.5 144.4C693.5 142.7 699.5 138.8 701.4 137.8C703.1 136.9 708.2 135.6 710.1 135.6C713.8 135.6 711.2 135.7 714.7 135.2Z" fill="#D3D8E0"/>
<path d="M694.9 158.2C694.1 158.1 693.2 157.9 692.6 158.4C691.9 159 691.9 160 692 160.9C693.2 177.4 689.8 183.5 692.9 199.8C705.2 201 717.8 200.6 730 198.5C730.6 198.4 731.3 198.3 731.6 197.8C731.9 197.4 732 196.9 732 196.4C732.8 186.8 732.2 187 732.6 177.4C732.8 171.9 733.9 167.4 733.3 161.9C732.6 156.2 732.5 152.6 726.5 154.8C716.1 158.4 705.8 160.3 694.9 158.2Z" fill="white"/>
<path d="M715.5 112.901C716.1 112.801 716.6 112.801 717.1 112.501C717.6 112.201 717.9 111.601 717.8 111.101C714.6 110.401 711.3 110.001 708 109.901C706.8 109.901 699.4 109.501 698.9 110.801C698 113.101 713.6 113.101 715.5 112.901Z" fill="#D3D8E0"/>
<path d="M717.4 112.9C717.8 112.8 718.6 112.9 718.9 112.6C719.3 112.3 719.5 111.6 719.1 111C716.7 110.3 714.2 109.9 711.8 109.8C710.9 109.8 705.3 109.4 705 110.7C704.3 113.1 716 113.1 717.4 112.9Z" fill="white"/>
<path d="M717.7 137.5C718.1 137.5 718.5 137.4 718.9 137.7C719.1 137.8 719.2 138 719.3 138.2C720.5 140.3 721.2 142.7 722 145C722.6 146.9 723.3 148.8 723.9 150.7C724 151 724.1 151.4 723.9 151.7C723.8 151.9 723.5 152 723.3 152.1C720.6 153.3 716.2 154 713.2 154.3C712.4 152.4 712.7 150.7 712.4 148.6C711.9 145.4 711 142.1 710.9 139.2C710.8 137.9 715.5 137.7 717.7 137.5Z" fill="white"/>
<path d="M704.4 169.401C708.2 170.301 712.2 170.101 716 169.901C719.4 169.701 723 169.801 726.1 168.401C726.5 168.201 726.3 167.701 726 167.601C722.5 166.701 718.7 167.401 715.1 167.701C711.5 167.901 707.8 168.001 704.3 169.001C704.2 169.101 704.2 169.401 704.4 169.401Z" fill="black"/>
<path d="M705 186.701C711.2 188.501 720.3 186.601 726.3 185.001C727.5 184.701 727.3 182.7 726 182.8C721.9 183.2 717.9 183.9 713.8 184.3C710.8 184.7 707.3 184.601 704.7 185.601C704.6 185.601 704.7 186.201 704.8 186.201L705 186.701Z" fill="black"/>
<path d="M726.7 193.401C726.9 197.301 726.7 201.301 726 205.201C723.4 205.801 720.9 206.401 718.3 207.001C717.1 203.201 716.7 199.101 717.2 195.101C718.2 194.801 726.6 192.101 726.7 193.401Z" fill="white"/>
<path d="M510.4 249.901C511.3 252.201 513.7 254.701 516.2 255.001C558.6 260.701 565 261.601 607.4 267.401C627.4 270.101 625.1 269.201 647 267.201C647 266.101 645.8 265.601 644.9 265.201C640.4 262.801 640.8 262.301 636 260.501C631.9 259.001 628.5 258.101 624.3 256.901C618.5 255.301 618.8 255.301 612.9 254.201C571 246.201 586.9 247.701 543.4 240.901C534.9 239.601 522.3 236.601 513.6 238.701C508.7 239.701 508.7 245.601 510.4 249.901Z" fill="black"/>
<path d="M631.1 264.701C618.1 264.501 622.2 265.501 610.7 263.501C564.5 255.301 573 258.601 526.5 252.701C524 252.401 520.7 251.701 518.5 250.501C514.5 248.401 513.1 244.601 517.9 242.801C521.4 241.401 528.2 243.701 531.8 244.301C545.4 246.301 559 248.401 572.6 250.701C599.9 255.201 583.6 253.301 610.7 258.801C625.9 261.801 617.1 260.701 631.1 264.701Z" fill="white"/>
<path d="M668.4 141.201C670.3 145.401 672.5 152.701 673.6 157.101C677.5 172.701 682.1 184.201 686 199.801C688 208.001 690.1 216.201 691.9 224.401C692.8 228.501 693.6 232.501 694.5 236.601C694.7 237.601 694.9 238.801 694.3 239.601C693.8 240.301 693 240.601 692.1 240.901C667.5 248.701 641 247.301 615.2 245.801C606.2 245.301 596.4 244.401 589.9 238.201C588.6 236.901 587.3 235.301 587.2 233.501C587.1 232.401 587.3 231.301 587.6 230.301C589.3 223.101 590.9 216.001 592.6 208.801C595.9 194.501 599.3 180.301 603.4 166.201C606.9 154.401 611 142.801 615.4 131.401C616.8 127.801 618.3 124.001 618.4 120.101C618.6 113.301 616.8 106.401 618.7 99.8008C619.5 97.0008 618.7 96.3008 616.4 94.4008C615.4 93.6008 612.4 92.4008 611.8 91.7008C610.4 90.2008 610.2 83.3008 612 82.2008C613.7 81.1008 618.3 78.9008 620.3 78.5008C628 76.9008 635.4 76.5008 642.2 76.7008C648.2 76.9008 654.7 77.9008 659.9 79.5008C662 80.1008 664.6 81.9008 666.3 83.3008C668 84.7008 667.9 90.6008 665.9 91.6008C664.5 92.3008 661.9 92.4008 661.1 93.8008C660.7 94.4008 660.3 96.5008 660.4 97.2008C660.6 105.701 660.6 111.901 661 120.401C661.4 128.101 665.4 134.301 668.4 141.201Z" fill="black"/>
<path d="M675.2 195.601C676.6 200.701 678 207.001 679.1 212.101C680.3 217.601 680.8 223.901 681.3 229.501C681.4 230.401 681.4 231.401 680.9 232.101C680.4 232.901 679.5 233.201 678.6 233.401C674.1 234.601 669.6 236.301 665 236.301C659.6 236.401 652.9 236.901 647.5 237.001C632.7 237.201 624.6 236.701 610.2 233.101C609.4 232.901 608.7 232.701 608.1 232.201C607.1 231.301 606.9 229.801 606.9 228.401C606.6 201.601 616.7 175.801 620.3 149.201C620.9 144.701 621.8 134.801 624.1 130.801C625.7 128.201 633.6 128.301 641.3 129.101C644.7 129.501 649.8 129.401 652.9 130.801C655.7 132.101 656.4 133.001 657.5 135.801C660.2 143.201 662.5 149.101 663.8 156.201C666.6 170.201 671.1 180.601 675.2 195.601Z" fill="#D3D8E0"/>
<path d="M648.9 224.601C649.7 225.901 651.1 226.701 652.6 227.001C654.1 227.301 655.6 227.201 657.1 227.101C660.1 226.901 663.2 226.801 666.2 226.301C667.1 222.301 664.1 221.301 660.8 221.501C659.6 221.601 648.3 223.601 648.9 224.601Z" fill="white"/>
<path d="M646.8 204.9C646.5 203.1 646.8 200.1 646.3 198.4C645.4 195.4 642.7 169.3 642.3 166.2C642.1 164.3 638.7 143.5 641.5 142.4C642.4 142 643.4 141.9 644.4 141.9L651.6 142.1C653.7 146.3 662.2 192.5 662.3 197.2C662.4 200.2 663.2 203 663.5 206C663.7 208 664.1 209.8 663.9 212.1C663.8 213.3 663.8 214.4 662.6 214.6C659 215.3 652.3 217 650.2 215.6C646.6 213.4 647.3 208.5 646.8 204.9Z" fill="white"/>
<path d="M639.8 121.101C639.4 121.001 638.9 120.901 638.5 120.501C638.3 120.201 638.1 119.901 638 119.501C637 117.101 637.9 114.501 637.6 111.801C637.1 107.301 637.3 102.101 638.6 97.8007C638.8 97.2007 638.3 96.5007 638.7 96.2007C639 96.0007 639.4 95.9007 639.8 95.9007C644.1 95.7007 646.6 95.9007 650.8 96.6007C651.1 96.6007 651.4 96.7007 651.6 96.9007C652.2 97.4007 652.1 98.5007 651.9 99.4007C650.6 106.101 650.6 113.701 650.6 120.501C650.6 124.001 648.8 123.101 646.6 122.701C643.7 122.301 642.6 121.701 639.8 121.101Z" fill="#D3D8E0"/>
<path d="M642.8 122.1C645.5 123.5 648.5 124 651.3 123.4C651.8 123.3 652.3 123.2 652.6 122.7C652.9 122.4 653 121.9 653.1 121.5C654.1 116.6 654.5 111.5 654.2 106.5C654.1 104.9 654 103.3 654.1 101.7C654.2 100.7 654.4 99.8004 654.4 98.8004C654.4 97.8004 654 96.8004 653.2 96.4004C652.9 96.2004 652.5 96.2004 652.1 96.2004C649.9 96.1004 646 95.0004 643.9 95.9004C641.9 96.7004 642.4 100.5 642.3 103C642.2 106.2 642.1 109.4 642.2 112.6C642.3 113.7 642 121.6 642.8 122.1Z" fill="white"/>
<path d="M617.7 84.4005C626.2 81.5005 635.6 82.2005 644.6 83.1005C645.3 83.2005 646.1 83.4005 646.2 84.1005C645.2 84.6005 643.8 84.3005 643.1 85.2005C642.8 85.6005 642.8 86.1005 642.5 86.6005C641.9 87.9005 640.2 88.1005 638.7 88.1005C634.8 88.1005 631 88.0005 627.2 87.5005C623.9 87.1005 620.1 87.2005 617.7 84.4005Z" fill="white"/>
<path d="M615.4 86.1004C615.2 87.2004 615.8 88.4004 616.7 89.0004C617.3 89.4004 618 89.5004 618.6 89.6004C632.2 92.2004 646.2 92.6004 659.8 90.0004C661 89.8004 662.4 89.5004 663.3 88.6004C664.2 87.7004 664.5 86.0004 663.5 85.2004C662.7 84.6004 661.6 84.7004 660.7 84.9004C652.7 86.2004 644.6 86.7004 636.5 86.3004C632.4 86.1004 628.3 85.7004 624.2 85.1004C621.7 84.8004 616 82.3004 615.4 86.1004Z" fill="#D3D8E0"/>
<path d="M647 88.6006C647.1 89.0006 647.1 89.3006 647.3 89.7006C647.4 90.1006 648 90.2006 648.4 90.3006C648.8 90.4006 649.2 90.3006 649.6 90.2006C651.7 89.8006 653.4 89.6006 655.5 89.3006C655.9 89.2006 656.3 89.2006 656.7 89.0006C656.9 88.9006 657.1 88.9006 657.1 88.4006C657.1 87.8006 657.1 87.2006 657.1 86.6006C657.1 86.4006 657.1 86.1006 656.9 85.9006C656.8 85.7006 656.5 85.7006 656.3 85.7006C654.1 85.3006 651.9 85.3006 649.7 85.6006C648.9 85.7006 647.5 85.7006 647.2 86.4006C646.9 87.0006 646.7 87.6006 647 88.6006Z" fill="white"/>
<path d="M519.4 255.301C521.4 250.101 521.7 244.501 526.7 241.001C528.2 239.901 526.6 237.601 525 238.601C520.3 241.501 516.3 250.001 519 255.201C519.1 255.501 519.4 255.501 519.4 255.301Z" fill="black"/>
<path d="M525.2 249.9C526.1 248.8 526.7 247.5 527.6 246.4C528.6 245.2 529.8 244.4 531 243.3C531.8 242.6 531.3 241 530.1 241.5C527.2 242.6 524.1 246.6 524.8 249.8C524.9 249.9 525.2 250 525.2 249.9Z" fill="black"/>
<path d="M529.5 248.701C531.1 247.501 532.6 246.101 534.3 244.901C535.7 243.801 534.2 241.901 532.8 243.001C531.1 244.301 529.6 246.401 529.3 248.501C529.3 248.601 529.4 248.801 529.5 248.701Z" fill="black"/>
<path d="M551.2 250.801C551.8 250.101 552.2 249.201 552.9 248.501C553.6 247.801 554.6 247.401 555.3 246.801C556 246.201 555.5 244.801 554.5 244.901C552.3 245.201 549.8 248.101 550.1 250.401C550.3 250.801 550.9 251.201 551.2 250.801Z" fill="black"/>
<path d="M555.7 252.401C556.8 251.801 557.5 250.501 558.4 249.601C558.9 249.101 559.3 248.601 559.8 248.101C560.3 247.601 560.8 247.301 560.9 246.601C561 246.101 560.7 245.701 560.2 245.701C558.8 245.701 557.6 247.501 556.9 248.501C556.1 249.601 555.2 251.001 555.5 252.301C555.5 252.401 555.7 252.401 555.7 252.401Z" fill="black"/>
<path d="M562.3 259.001C563.1 256.301 563.3 253.201 564.9 250.801C565.8 249.501 566.9 249.301 568 248.401C568.3 248.101 568.5 247.801 568.6 247.301C568.7 246.801 568.4 246.301 568.1 246.001C566 244.301 562.9 248.001 562.1 249.601C560.5 252.501 560.8 255.901 562 259.001C562 259.201 562.2 259.201 562.3 259.001Z" fill="black"/>
<path d="M568.4 253.201C569.2 253.001 569.6 252.001 570.1 251.501C570.6 250.901 571.4 249.901 572.2 249.701C572.9 249.601 573 248.701 572.6 248.301C571.6 247.201 570 248.901 569.3 249.701C568.7 250.401 567.7 252.201 568.3 253.101C568.4 253.201 568.4 253.201 568.4 253.201Z" fill="black"/>
<path d="M574.7 253.901C576.3 252.701 577.3 251.101 579.2 250.301C580.7 249.701 580 247.301 578.5 247.901C576.3 248.801 573.5 251.201 574.3 253.801C574.5 254.001 574.6 254.001 574.7 253.901Z" fill="black"/>
<path d="M593.4 252.501C592.2 253.501 590.7 255.501 591.1 257.101C591.2 257.401 591.6 257.601 591.8 257.401C592.9 256.601 593.6 255.301 594.7 254.501C595.3 254.101 595.9 253.701 596.7 253.501L593.4 252.501Z" fill="black"/>
<path d="M704.7 177.501C708.3 178.701 712.5 178.501 716.3 178.201C719.7 177.901 723.6 177.601 726.4 175.801C727 175.401 726.8 174.501 726 174.501C722.6 174.301 718.9 175.601 715.5 176.001C711.9 176.301 708.3 176.001 704.8 176.401C704.2 176.401 704 177.201 704.7 177.501Z" fill="black"/>
<path d="M712.2 114.901C712.3 114.901 712.5 114.901 712.6 115.001C712.8 115.101 712.8 115.301 712.9 115.501C713 116.101 713.1 116.701 713.1 117.401C713.3 120.601 713.5 123.901 713.7 127.101C713.7 127.301 713.7 127.601 713.6 127.801C713.4 128.101 713 128.101 712.7 128.001C712 127.901 711.2 127.901 710.5 127.801C710.5 126.501 710.4 125.301 710.3 124.101C710.2 122.501 710.3 121.001 710.3 119.401C710.3 118.301 710.1 116.201 710.1 115.501C710.2 114.301 711 114.901 712.2 114.901Z" fill="white"/>
<path d="M719.8 115.001C719.8 115.001 719.9 116.001 720 116.501C720.7 119.601 721.1 122.801 721.4 126.001C721.4 126.401 721.5 126.701 721.3 127.001C721 127.501 719.6 127.701 719.6 127.401C719.6 126.801 719.2 126.701 719.1 126.101C719 125.601 718.7 124.501 718.6 123.901C718.6 123.301 718.4 122.701 718.4 122.101C718.4 121.401 718.3 120.601 718.2 119.901C717.9 118.301 717.5 116.701 717.9 115.001C718.2 115.001 719.5 114.801 719.8 115.001Z" fill="white"/>
<path d="M703.8 114.401C704.5 116.901 704.5 119.601 704.5 122.201C704.5 123.801 704.5 125.401 704.6 127.001C704.6 127.301 704.6 127.601 704.3 127.801C704.1 127.901 703.9 127.901 703.7 127.801C702.9 127.701 702.2 127.601 701.4 127.401C701.2 127.401 701 127.301 700.9 127.201C700.7 127.001 700.7 126.701 700.7 126.501C700.5 123.801 700.5 121.101 700.6 118.301C700.6 117.401 700.4 115.201 701 114.401C701.6 113.801 703 114.301 703.8 114.401Z" fill="white"/>
</g>
<defs>
<clipPath id="clip0">
<rect width="882" height="300" fill="white"/>
</clipPath>
</defs>
</svg>
