<svg width="882" height="300" viewBox="0 0 882 300" fill="none" xmlns="http://www.w3.org/2000/svg">
<g clip-path="url(#clip0)">
<rect width="882" height="300" fill="white"/>
<rect width="882" height="210" fill="black"/>
<rect x="620" y="105" width="52.5" height="52.5" fill="#1F242C"/>
<path d="M625.837 157.5H620V163.337H625.837V157.5Z" fill="#1F242C"/>
<path d="M631.674 163.337H625.837V169.174H631.674V163.337Z" fill="#1F242C"/>
<path d="M637.494 157.5H631.658V163.337H637.494V157.5Z" fill="#1F242C"/>
<path d="M625.837 169.158H620V174.995H625.837V169.158Z" fill="#1F242C"/>
<path d="M637.494 169.158H631.658V174.995H637.494V169.158Z" fill="#1F242C"/>
<path d="M643.332 163.337H637.496V169.174H643.332V163.337Z" fill="#1F242C"/>
<path d="M631.674 174.995H625.837V180.832H631.674V174.995Z" fill="#1F242C"/>
<path d="M625.837 180.832H620V186.669H625.837V180.832Z" fill="#1F242C"/>
<path d="M637.494 180.832H631.658V186.669H637.494V180.832Z" fill="#1F242C"/>
<path d="M643.332 174.995H637.496V180.832H643.332V174.995Z" fill="#1F242C"/>
<path d="M631.674 186.668H625.837V192.505H631.674V186.668Z" fill="#1F242C"/>
<path d="M625.837 192.489H620V198.326H625.837V192.489Z" fill="#1F242C"/>
<path d="M637.494 192.489H631.658V198.326H637.494V192.489Z" fill="#1F242C"/>
<path d="M643.332 186.668H637.496V192.505H643.332V186.668Z" fill="#1F242C"/>
<path d="M631.674 198.326H625.837V204.163H631.674V198.326Z" fill="#1F242C"/>
<path d="M625.837 204.164H620V210.001H625.837V204.164Z" fill="#1F242C"/>
<path d="M637.494 204.164H631.658V210.001H637.494V204.164Z" fill="#1F242C"/>
<path d="M643.332 198.326H637.496V204.163H643.332V198.326Z" fill="#1F242C"/>
<path d="M649.168 157.5H643.331V163.337H649.168V157.5Z" fill="#1F242C"/>
<path d="M655.006 163.337H649.169V169.174H655.006V163.337Z" fill="#1F242C"/>
<path d="M660.826 157.5H654.99V163.337H660.826V157.5Z" fill="#1F242C"/>
<path d="M649.168 169.158H643.331V174.995H649.168V169.158Z" fill="#1F242C"/>
<path d="M660.826 169.158H654.99V174.995H660.826V169.158Z" fill="#1F242C"/>
<path d="M666.663 163.337H660.826V169.174H666.663V163.337Z" fill="#1F242C"/>
<path d="M655.006 174.995H649.169V180.832H655.006V174.995Z" fill="#1F242C"/>
<path d="M649.168 180.832H643.331V186.669H649.168V180.832Z" fill="#1F242C"/>
<path d="M660.826 180.832H654.99V186.669H660.826V180.832Z" fill="#1F242C"/>
<path d="M666.663 174.995H660.826V180.832H666.663V174.995Z" fill="#1F242C"/>
<path d="M655.006 186.668H649.169V192.505H655.006V186.668Z" fill="#1F242C"/>
<path d="M649.168 192.489H643.331V198.326H649.168V192.489Z" fill="#1F242C"/>
<path d="M660.826 192.489H654.99V198.326H660.826V192.489Z" fill="#1F242C"/>
<path d="M666.663 186.668H660.826V192.505H666.663V186.668Z" fill="#1F242C"/>
<path d="M655.006 198.326H649.169V204.163H655.006V198.326Z" fill="#1F242C"/>
<path d="M649.168 204.164H643.331V210.001H649.168V204.164Z" fill="#1F242C"/>
<path d="M660.826 204.164H654.99V210.001H660.826V204.164Z" fill="#1F242C"/>
<path d="M672.5 157.5H666.663V163.337H672.5V157.5Z" fill="#1F242C"/>
<path d="M672.5 169.158H666.663V174.995H672.5V169.158Z" fill="#1F242C"/>
<path d="M672.5 180.832H666.663V186.669H672.5V180.832Z" fill="#1F242C"/>
<path d="M672.5 192.489H666.663V198.326H672.5V192.489Z" fill="#1F242C"/>
<path d="M672.5 204.164H666.663V210.001H672.5V204.164Z" fill="#1F242C"/>
<path d="M666.663 198.326H660.826V204.163H666.663V198.326Z" fill="#1F242C"/>
<rect x="631.667" y="52.5" width="5.83333" height="52.5" fill="#1F242C"/>
<rect x="643.333" y="52.5" width="5.83333" height="52.5" fill="#1F242C"/>
<rect x="655" y="52.5" width="5.83333" height="52.5" fill="#1F242C"/>
<rect x="666.667" y="52.5" width="5.83333" height="52.5" fill="#1F242C"/>
<rect x="620" y="52.5" width="5.83668" height="52.5" fill="#1F242C"/>
<rect x="555.833" y="157.5" width="5.83333" height="52.5" transform="rotate(-180 555.833 157.5)" fill="#1F242C"/>
<rect x="544.167" y="157.5" width="5.83333" height="52.5" transform="rotate(-180 544.167 157.5)" fill="#1F242C"/>
<rect x="532.5" y="157.5" width="5.83333" height="52.5" transform="rotate(-180 532.5 157.5)" fill="#1F242C"/>
<rect x="520.833" y="157.5" width="5.83333" height="52.5" transform="rotate(-180 520.833 157.5)" fill="#1F242C"/>
<rect x="567.5" y="157.5" width="5.83668" height="52.5" transform="rotate(-180 567.5 157.5)" fill="#1F242C"/>
<rect x="870.505" y="53.4844" width="5.83333" height="52.5" transform="rotate(-180 870.505 53.4844)" fill="#1F242C"/>
<rect x="858.838" y="53.4844" width="5.83333" height="52.5" transform="rotate(-180 858.838 53.4844)" fill="#1F242C"/>
<rect x="847.172" y="53.4844" width="5.83333" height="52.5" transform="rotate(-180 847.172 53.4844)" fill="#1F242C"/>
<rect x="835.505" y="53.4844" width="5.83333" height="52.5" transform="rotate(-180 835.505 53.4844)" fill="#1F242C"/>
<rect x="882.172" y="53.4844" width="5.83668" height="52.5" transform="rotate(-180 882.172 53.4844)" fill="#1F242C"/>
<path fill-rule="evenodd" clip-rule="evenodd" d="M567.5 163.333V157.5C596.495 157.5 620 181.005 620 210H614.167C614.167 184.227 593.273 163.333 567.5 163.333ZM567.5 175V169.166C590.052 169.166 608.333 187.448 608.333 210H602.5C602.5 190.67 586.83 175 567.5 175ZM567.5 180.834V186.667C580.387 186.667 590.833 197.114 590.833 210L596.667 210C596.667 193.892 583.608 180.834 567.5 180.834ZM567.5 198.333V192.5C577.165 192.5 585 200.335 585 210H579.167C579.167 203.557 573.943 198.333 567.5 198.333ZM567.5 210V204.166C570.722 204.166 573.333 206.778 573.333 210H567.5Z" fill="#1F242C"/>
<path fill-rule="evenodd" clip-rule="evenodd" d="M777 110.833V105C805.995 105 829.5 128.505 829.5 157.5L823.667 157.5C823.667 131.727 802.773 110.833 777 110.833ZM777 122.5V116.667C799.552 116.667 817.833 134.949 817.833 157.5H812C812 138.17 796.33 122.5 777 122.5ZM777 128.333V134.167C789.887 134.167 800.333 144.613 800.333 157.5L806.167 157.5C806.167 141.392 793.108 128.333 777 128.333ZM777 145.833V140C786.665 140 794.5 147.835 794.5 157.5H788.667C788.667 151.056 783.443 145.833 777 145.833ZM777 157.5V151.667C780.222 151.667 782.833 154.279 782.833 157.5H777Z" fill="#1F242C"/>
<path d="M729.112 52.5H725V48.3875L773.387 0H777.5V4.1125L729.112 52.5ZM765.133 0H756.879L725 31.8791V40.1333L765.133 0ZM748.625 0H740.371L725 15.3708V23.625L748.625 0ZM725 0V7.11666L732.116 0H725ZM777.5 20.6208V12.3667L737.366 52.5H745.621L777.5 20.6208ZM777.5 37.1291V28.875L753.875 52.5H762.129L777.5 37.1291ZM777.5 45.3833L770.383 52.5H777.5V45.3833Z" fill="#1F242C"/>
<path d="M672.5 105L725 105L725 52.5C696.005 52.5 672.5 76.0051 672.5 105Z" fill="#1F242C"/>
<path d="M777.5 157.5L777.5 105L725 105C725 133.995 748.505 157.5 777.5 157.5Z" fill="#1F242C"/>
<path d="M62.0156 68.3516H66.8672L73.2422 95.8672H73.4297L79.8281 68.3516H84.9141L91.2891 95.8672H91.4766L97.875 68.3516H102.727L94.2656 101H88.5703L82.4531 74.75H82.2656L76.1719 101H70.4531L62.0156 68.3516ZM108.703 101V68.3516H113.016V80.5625C113.688 79.125 114.609 78 115.781 77.1875C116.953 76.3594 118.469 75.9453 120.328 75.9453C121.516 75.9453 122.594 76.1094 123.562 76.4375C124.531 76.75 125.367 77.2578 126.07 77.9609C126.773 78.6641 127.32 79.5703 127.711 80.6797C128.102 81.7734 128.297 83.1094 128.297 84.6875V101H123.961V85.1562C123.961 83.3594 123.617 81.9531 122.93 80.9375C122.242 79.9062 120.969 79.3906 119.109 79.3906C118.219 79.3906 117.406 79.5703 116.672 79.9297C115.938 80.2734 115.297 80.7734 114.75 81.4297C114.203 82.0859 113.773 82.8672 113.461 83.7734C113.164 84.6641 113.016 85.6406 113.016 86.7031V101H108.703ZM135.984 72.875V68.3516H140.484V72.875H135.984ZM136.078 101V76.5312H140.391V101H136.078ZM146.016 80.2109V76.5312H150.141V68.3516H154.406V76.5312H160.031V80.2109H154.406V97.2969H160.031V101H150.141V80.2109H146.016ZM164.742 88.7656C164.742 86.9062 164.969 85.1875 165.422 83.6094C165.891 82.0156 166.578 80.6641 167.484 79.5547C168.406 78.4297 169.516 77.5469 170.812 76.9062C172.109 76.2656 173.602 75.9453 175.289 75.9453C177.055 75.9453 178.594 76.25 179.906 76.8594C181.219 77.4688 182.305 78.3047 183.164 79.3672C184.023 80.4141 184.672 81.6484 185.109 83.0703C185.547 84.4922 185.766 86.0234 185.766 87.6641V89.9609H169.289V92.5625C169.289 93.4531 169.453 94.2422 169.781 94.9297C170.125 95.6172 170.586 96.2031 171.164 96.6875C171.742 97.1562 172.391 97.5156 173.109 97.7656C173.828 98 174.57 98.1172 175.336 98.1172C176.867 98.1172 178.195 97.7266 179.32 96.9453C180.445 96.1641 181.086 94.9219 181.242 93.2188H185.578C185.484 94.5312 185.141 95.7031 184.547 96.7344C183.953 97.75 183.18 98.6172 182.227 99.3359C181.289 100.055 180.227 100.609 179.039 101C177.852 101.391 176.602 101.586 175.289 101.586C173.523 101.586 171.977 101.266 170.648 100.625C169.336 99.9844 168.234 99.1016 167.344 97.9766C166.469 96.8516 165.812 95.5078 165.375 93.9453C164.953 92.3828 164.742 90.6562 164.742 88.7656ZM169.289 86.5156H181.289V85.1562C181.289 84.2656 181.125 83.4609 180.797 82.7422C180.484 82.0234 180.047 81.4141 179.484 80.9141C178.938 80.4141 178.297 80.0391 177.562 79.7891C176.844 79.5234 176.086 79.3906 175.289 79.3906C174.492 79.3906 173.734 79.5234 173.016 79.7891C172.297 80.0391 171.656 80.4141 171.094 80.9141C170.531 81.4141 170.086 82.0234 169.758 82.7422C169.445 83.4609 169.289 84.2656 169.289 85.1562V86.5156ZM192.328 109.156V76.5312H196.641V80.5156C197.406 79.0469 198.438 77.9219 199.734 77.1406C201.031 76.3438 202.609 75.9453 204.469 75.9453C206.094 75.9453 207.516 76.2812 208.734 76.9531C209.953 77.625 210.961 78.5391 211.758 79.6953C212.57 80.8359 213.172 82.1953 213.562 83.7734C213.969 85.3359 214.172 87 214.172 88.7656C214.172 90.5625 213.969 92.2344 213.562 93.7812C213.172 95.3281 212.57 96.6797 211.758 97.8359C210.961 98.9922 209.953 99.9062 208.734 100.578C207.531 101.25 206.109 101.586 204.469 101.586C202.609 101.586 201.031 101.195 199.734 100.414C198.438 99.6172 197.406 98.4844 196.641 97.0156V109.156H192.328ZM196.641 90.8281C196.641 92.9375 197.219 94.6797 198.375 96.0547C199.531 97.4297 201.195 98.1172 203.367 98.1172C205.195 98.1172 206.688 97.6094 207.844 96.5938C209.016 95.5625 209.602 94.2188 209.602 92.5625V84.9688C209.602 83.3125 209.016 81.9688 207.844 80.9375C206.688 79.9062 205.195 79.3906 203.367 79.3906C201.195 79.3906 199.531 80.0859 198.375 81.4766C197.219 82.8516 196.641 84.5938 196.641 86.7031V90.8281ZM219.328 94.2734C219.328 92.3516 219.938 90.7031 221.156 89.3281C222.375 87.9531 224.203 87.1562 226.641 86.9375L234.609 86.2109V84.2422C234.609 83.2891 234.484 82.5 234.234 81.875C234 81.25 233.656 80.7578 233.203 80.3984C232.766 80.0234 232.234 79.7656 231.609 79.625C230.984 79.4688 230.289 79.3906 229.523 79.3906C227.992 79.3906 226.766 79.7344 225.844 80.4219C224.938 81.1094 224.484 82.2422 224.484 83.8203H220.148C220.148 82.6641 220.398 81.6094 220.898 80.6562C221.398 79.6875 222.07 78.8516 222.914 78.1484C223.758 77.4453 224.75 76.9062 225.891 76.5312C227.031 76.1406 228.258 75.9453 229.57 75.9453C230.883 75.9453 232.102 76.1172 233.227 76.4609C234.367 76.7891 235.352 77.2891 236.18 77.9609C237.023 78.6328 237.672 79.5 238.125 80.5625C238.594 81.6094 238.828 82.8516 238.828 84.2891V97.2969H242.484V101H235.172L235.078 96.4766H234.891C234.219 98.2109 233.227 99.5 231.914 100.344C230.602 101.172 229.031 101.586 227.203 101.586C225.984 101.586 224.883 101.398 223.898 101.023C222.914 100.648 222.062 100.094 221.344 99.3594C220.703 98.7188 220.203 97.9531 219.844 97.0625C219.5 96.1719 219.328 95.2422 219.328 94.2734ZM223.898 94.8594C223.898 95.9844 224.289 96.8125 225.07 97.3438C225.852 97.8594 226.93 98.1172 228.305 98.1172C230.258 98.1172 231.797 97.4219 232.922 96.0312C234.047 94.6406 234.609 92.8438 234.609 90.6406V89.5391L225.914 90.3359C225.023 90.3984 224.461 90.6328 224.227 91.0391C224.008 91.4453 223.898 92 223.898 92.7031V94.8594ZM247.312 109.156V76.5312H251.625V80.5156C252.391 79.0469 253.422 77.9219 254.719 77.1406C256.016 76.3438 257.594 75.9453 259.453 75.9453C261.078 75.9453 262.5 76.2812 263.719 76.9531C264.938 77.625 265.945 78.5391 266.742 79.6953C267.555 80.8359 268.156 82.1953 268.547 83.7734C268.953 85.3359 269.156 87 269.156 88.7656C269.156 90.5625 268.953 92.2344 268.547 93.7812C268.156 95.3281 267.555 96.6797 266.742 97.8359C265.945 98.9922 264.938 99.9062 263.719 100.578C262.516 101.25 261.094 101.586 259.453 101.586C257.594 101.586 256.016 101.195 254.719 100.414C253.422 99.6172 252.391 98.4844 251.625 97.0156V109.156H247.312ZM251.625 90.8281C251.625 92.9375 252.203 94.6797 253.359 96.0547C254.516 97.4297 256.18 98.1172 258.352 98.1172C260.18 98.1172 261.672 97.6094 262.828 96.5938C264 95.5625 264.586 94.2188 264.586 92.5625V84.9688C264.586 83.3125 264 81.9688 262.828 80.9375C261.672 79.9062 260.18 79.3906 258.352 79.3906C256.18 79.3906 254.516 80.0859 253.359 81.4766C252.203 82.8516 251.625 84.5938 251.625 86.7031V90.8281ZM274.57 88.7656C274.57 86.9062 274.797 85.1875 275.25 83.6094C275.719 82.0156 276.406 80.6641 277.312 79.5547C278.234 78.4297 279.344 77.5469 280.641 76.9062C281.938 76.2656 283.43 75.9453 285.117 75.9453C286.883 75.9453 288.422 76.25 289.734 76.8594C291.047 77.4688 292.133 78.3047 292.992 79.3672C293.852 80.4141 294.5 81.6484 294.938 83.0703C295.375 84.4922 295.594 86.0234 295.594 87.6641V89.9609H279.117V92.5625C279.117 93.4531 279.281 94.2422 279.609 94.9297C279.953 95.6172 280.414 96.2031 280.992 96.6875C281.57 97.1562 282.219 97.5156 282.938 97.7656C283.656 98 284.398 98.1172 285.164 98.1172C286.695 98.1172 288.023 97.7266 289.148 96.9453C290.273 96.1641 290.914 94.9219 291.07 93.2188H295.406C295.312 94.5312 294.969 95.7031 294.375 96.7344C293.781 97.75 293.008 98.6172 292.055 99.3359C291.117 100.055 290.055 100.609 288.867 101C287.68 101.391 286.43 101.586 285.117 101.586C283.352 101.586 281.805 101.266 280.477 100.625C279.164 99.9844 278.062 99.1016 277.172 97.9766C276.297 96.8516 275.641 95.5078 275.203 93.9453C274.781 92.3828 274.57 90.6562 274.57 88.7656ZM279.117 86.5156H291.117V85.1562C291.117 84.2656 290.953 83.4609 290.625 82.7422C290.312 82.0234 289.875 81.4141 289.312 80.9141C288.766 80.4141 288.125 80.0391 287.391 79.7891C286.672 79.5234 285.914 79.3906 285.117 79.3906C284.32 79.3906 283.562 79.5234 282.844 79.7891C282.125 80.0391 281.484 80.4141 280.922 80.9141C280.359 81.4141 279.914 82.0234 279.586 82.7422C279.273 83.4609 279.117 84.2656 279.117 85.1562V86.5156ZM302.156 101V76.5312H313.922V80.2578H306.469V101H302.156Z" fill="white"/>
<path d="M61.8864 145L63.0568 141.705H67.7614L68.9318 145H70.4091L66.1364 133.364H64.6818L60.4091 145H61.8864ZM63.5 140.455L65.3636 135.205H65.4545L67.3182 140.455H63.5ZM77.8807 133.364H76.5398V145H77.8807V133.364ZM80.3366 145H81.6776V136.273H80.3366V145ZM81.0185 134.818C81.5412 134.818 81.973 134.409 81.973 133.909C81.973 133.409 81.5412 133 81.0185 133C80.4957 133 80.0639 133.409 80.0639 133.909C80.0639 134.409 80.4957 134.818 81.0185 134.818ZM91.2699 136.273H89.8153L87.4062 143.227H87.3153L84.9062 136.273H83.4517L86.679 145H88.0426L91.2699 136.273ZM93.0398 145H94.3807V136.273H93.0398V145ZM93.7216 134.818C94.2443 134.818 94.6761 134.409 94.6761 133.909C94.6761 133.409 94.2443 133 93.7216 133C93.1989 133 92.767 133.409 92.767 133.909C92.767 134.409 93.1989 134.818 93.7216 134.818ZM98.1776 139.75C98.1776 138.227 99.1207 137.364 100.405 137.364C101.649 137.364 102.405 138.176 102.405 139.545V145H103.746V139.455C103.746 137.227 102.558 136.159 100.791 136.159C99.473 136.159 98.6548 136.75 98.2457 137.636H98.1321V136.273H96.8366V145H98.1776V139.75ZM109.719 148.455C111.81 148.455 113.491 147.5 113.491 145.25V136.273H112.196V137.659H112.06C111.764 137.205 111.219 136.159 109.514 136.159C107.31 136.159 105.787 137.909 105.787 140.591C105.787 143.318 107.378 144.864 109.491 144.864C111.196 144.864 111.741 143.864 112.037 143.386H112.151V145.159C112.151 146.614 111.128 147.273 109.719 147.273C108.134 147.273 107.577 146.438 107.219 145.955L106.151 146.705C106.696 147.619 107.77 148.455 109.719 148.455ZM109.673 143.659C107.991 143.659 107.128 142.386 107.128 140.568C107.128 138.795 107.969 137.364 109.673 137.364C111.31 137.364 112.173 138.682 112.173 140.568C112.173 142.5 111.287 143.659 109.673 143.659ZM120.446 148.273H121.787V143.659H121.901C122.196 144.136 122.764 145.182 124.446 145.182C126.628 145.182 128.151 143.432 128.151 140.659C128.151 137.909 126.628 136.159 124.423 136.159C122.719 136.159 122.196 137.205 121.901 137.659H121.741V136.273H120.446V148.273ZM121.764 140.636C121.764 138.682 122.628 137.364 124.264 137.364C125.969 137.364 126.81 138.795 126.81 140.636C126.81 142.5 125.946 143.977 124.264 143.977C122.651 143.977 121.764 142.614 121.764 140.636ZM132.764 145.205C134.287 145.205 135.082 144.386 135.355 143.818H135.423V145H136.764V139.25C136.764 136.477 134.651 136.159 133.537 136.159C132.219 136.159 130.719 136.614 130.037 138.205L131.31 138.659C131.605 138.023 132.304 137.341 133.582 137.341C134.815 137.341 135.423 137.994 135.423 139.114V139.159C135.423 139.807 134.764 139.75 133.173 139.955C131.554 140.165 129.787 140.523 129.787 142.523C129.787 144.227 131.105 145.205 132.764 145.205ZM132.969 144C131.901 144 131.128 143.523 131.128 142.591C131.128 141.568 132.06 141.25 133.105 141.114C133.673 141.045 135.196 140.886 135.423 140.614V141.841C135.423 142.932 134.56 144 132.969 144ZM139.212 148.273H140.553V143.659H140.666C140.962 144.136 141.53 145.182 143.212 145.182C145.393 145.182 146.916 143.432 146.916 140.659C146.916 137.909 145.393 136.159 143.189 136.159C141.484 136.159 140.962 137.205 140.666 137.659H140.507V136.273H139.212V148.273ZM140.53 140.636C140.53 138.682 141.393 137.364 143.03 137.364C144.734 137.364 145.575 138.795 145.575 140.636C145.575 142.5 144.712 143.977 143.03 143.977C141.416 143.977 140.53 142.614 140.53 140.636ZM152.621 145.182C154.393 145.182 155.689 144.295 156.098 142.977L154.803 142.614C154.462 143.523 153.672 143.977 152.621 143.977C151.047 143.977 149.962 142.96 149.899 141.091H156.234V140.523C156.234 137.273 154.303 136.159 152.484 136.159C150.121 136.159 148.553 138.023 148.553 140.705C148.553 143.386 150.098 145.182 152.621 145.182ZM149.899 139.932C149.99 138.574 150.95 137.364 152.484 137.364C153.939 137.364 154.871 138.455 154.871 139.932H149.899ZM158.274 145H159.615V139.477C159.615 138.295 160.547 137.432 161.82 137.432C162.178 137.432 162.547 137.5 162.638 137.523V136.159C162.484 136.148 162.132 136.136 161.933 136.136C160.888 136.136 159.979 136.727 159.661 137.591H159.57V136.273H158.274V145ZM170.705 145H172.023L173.932 138.295H174.068L175.977 145H177.295L179.955 136.273H178.545L176.659 142.932H176.568L174.727 136.273H173.295L171.432 142.955H171.341L169.455 136.273H168.045L170.705 145ZM181.727 145H183.068V136.273H181.727V145ZM182.409 134.818C182.932 134.818 183.364 134.409 183.364 133.909C183.364 133.409 182.932 133 182.409 133C181.886 133 181.455 133.409 181.455 133.909C181.455 134.409 181.886 134.818 182.409 134.818ZM189.32 136.273H187.456V134.182H186.115V136.273H184.797V137.409H186.115V142.864C186.115 144.386 187.342 145.114 188.479 145.114C188.979 145.114 189.297 145.023 189.479 144.955L189.206 143.75C189.092 143.773 188.911 143.818 188.615 143.818C188.024 143.818 187.456 143.636 187.456 142.5V137.409H189.32V136.273ZM192.865 139.75C192.865 138.227 193.837 137.364 195.161 137.364C196.422 137.364 197.183 138.159 197.183 139.545V145H198.524V139.455C198.524 137.21 197.331 136.159 195.547 136.159C194.172 136.159 193.388 136.733 192.979 137.636H192.865V133.364H191.524V145H192.865V139.75ZM209.023 145.182C211.386 145.182 212.977 143.386 212.977 140.682C212.977 137.955 211.386 136.159 209.023 136.159C206.659 136.159 205.068 137.955 205.068 140.682C205.068 143.386 206.659 145.182 209.023 145.182ZM209.023 143.977C207.227 143.977 206.409 142.432 206.409 140.682C206.409 138.932 207.227 137.364 209.023 137.364C210.818 137.364 211.636 138.932 211.636 140.682C211.636 142.432 210.818 143.977 209.023 143.977ZM220.524 141.432C220.524 143.068 219.274 143.818 218.274 143.818C217.161 143.818 216.365 143 216.365 141.727V136.273H215.024V141.818C215.024 144.045 216.206 145.114 217.842 145.114C219.161 145.114 220.024 144.409 220.433 143.523H220.524V145H221.865V136.273H220.524V141.432ZM224.321 145H225.662V139.477C225.662 138.295 226.594 137.432 227.866 137.432C228.224 137.432 228.594 137.5 228.685 137.523V136.159C228.531 136.148 228.179 136.136 227.98 136.136C226.935 136.136 226.026 136.727 225.707 137.591H225.616V136.273H224.321V145ZM236.115 133.364H234.774V145H236.115V133.364ZM242.116 145.182C244.48 145.182 246.071 143.386 246.071 140.682C246.071 137.955 244.48 136.159 242.116 136.159C239.753 136.159 238.162 137.955 238.162 140.682C238.162 143.386 239.753 145.182 242.116 145.182ZM242.116 143.977C240.321 143.977 239.503 142.432 239.503 140.682C239.503 138.932 240.321 137.364 242.116 137.364C243.912 137.364 244.73 138.932 244.73 140.682C244.73 142.432 243.912 143.977 242.116 143.977ZM249.459 139.75C249.459 138.227 250.402 137.364 251.686 137.364C252.93 137.364 253.686 138.176 253.686 139.545V145H255.027V139.455C255.027 137.227 253.839 136.159 252.072 136.159C250.754 136.159 249.936 136.75 249.527 137.636H249.413V136.273H248.118V145H249.459V139.75ZM261 148.455C263.091 148.455 264.773 147.5 264.773 145.25V136.273H263.477V137.659H263.341C263.045 137.205 262.5 136.159 260.795 136.159C258.591 136.159 257.068 137.909 257.068 140.591C257.068 143.318 258.659 144.864 260.773 144.864C262.477 144.864 263.023 143.864 263.318 143.386H263.432V145.159C263.432 146.614 262.409 147.273 261 147.273C259.415 147.273 258.858 146.438 258.5 145.955L257.432 146.705C257.977 147.619 259.051 148.455 261 148.455ZM260.955 143.659C259.273 143.659 258.409 142.386 258.409 140.568C258.409 138.795 259.25 137.364 260.955 137.364C262.591 137.364 263.455 138.682 263.455 140.568C263.455 142.5 262.568 143.659 260.955 143.659ZM275.523 136.273H273.659V134.182H272.318V136.273H271V137.409H272.318V142.864C272.318 144.386 273.545 145.114 274.682 145.114C275.182 145.114 275.5 145.023 275.682 144.955L275.409 143.75C275.295 143.773 275.114 143.818 274.818 143.818C274.227 143.818 273.659 143.636 273.659 142.5V137.409H275.523V136.273ZM281.105 145.182C282.878 145.182 284.173 144.295 284.582 142.977L283.287 142.614C282.946 143.523 282.156 143.977 281.105 143.977C279.531 143.977 278.446 142.96 278.384 141.091H284.719V140.523C284.719 137.273 282.787 136.159 280.969 136.159C278.605 136.159 277.037 138.023 277.037 140.705C277.037 143.386 278.582 145.182 281.105 145.182ZM278.384 139.932C278.474 138.574 279.435 137.364 280.969 137.364C282.423 137.364 283.355 138.455 283.355 139.932H278.384ZM286.759 145H288.099V139.477C288.099 138.295 289.031 137.432 290.304 137.432C290.662 137.432 291.031 137.5 291.122 137.523V136.159C290.969 136.148 290.616 136.136 290.418 136.136C289.372 136.136 288.463 136.727 288.145 137.591H288.054V136.273H286.759V145ZM292.712 145H294.053V139.545C294.053 138.267 294.984 137.364 296.03 137.364C297.047 137.364 297.757 138.028 297.757 139.023V145H299.121V139.318C299.121 138.193 299.825 137.364 301.053 137.364C302.007 137.364 302.825 137.869 302.825 139.159V145H304.166V139.159C304.166 137.108 303.064 136.159 301.507 136.159C300.257 136.159 299.342 136.733 298.893 137.636H298.803C298.371 136.705 297.609 136.159 296.462 136.159C295.325 136.159 294.484 136.705 294.121 137.636H294.007V136.273H292.712V145ZM318.254 136.273H316.8L314.391 143.227H314.3L311.891 136.273H310.436L313.663 145H315.027L318.254 136.273ZM320.024 145H321.365V136.273H320.024V145ZM320.706 134.818C321.229 134.818 321.661 134.409 321.661 133.909C321.661 133.409 321.229 133 320.706 133C320.183 133 319.751 133.409 319.751 133.909C319.751 134.409 320.183 134.818 320.706 134.818ZM330.003 138.227C329.582 136.989 328.639 136.159 326.912 136.159C325.071 136.159 323.707 137.205 323.707 138.682C323.707 139.886 324.423 140.693 326.026 141.068L327.48 141.409C328.361 141.614 328.776 142.034 328.776 142.636C328.776 143.386 327.98 144 326.73 144C325.634 144 324.946 143.528 324.707 142.591L323.435 142.909C323.747 144.392 324.969 145.182 326.753 145.182C328.781 145.182 330.162 144.074 330.162 142.568C330.162 141.352 329.401 140.585 327.844 140.205L326.548 139.886C325.514 139.631 325.048 139.284 325.048 138.614C325.048 137.864 325.844 137.318 326.912 137.318C328.082 137.318 328.565 137.966 328.798 138.568L330.003 138.227ZM332.18 145H333.521V136.273H332.18V145ZM332.862 134.818C333.385 134.818 333.817 134.409 333.817 133.909C333.817 133.409 333.385 133 332.862 133C332.339 133 331.908 133.409 331.908 133.909C331.908 134.409 332.339 134.818 332.862 134.818ZM339.523 145.182C341.886 145.182 343.477 143.386 343.477 140.682C343.477 137.955 341.886 136.159 339.523 136.159C337.159 136.159 335.568 137.955 335.568 140.682C335.568 143.386 337.159 145.182 339.523 145.182ZM339.523 143.977C337.727 143.977 336.909 142.432 336.909 140.682C336.909 138.932 337.727 137.364 339.523 137.364C341.318 137.364 342.136 138.932 342.136 140.682C342.136 142.432 341.318 143.977 339.523 143.977ZM346.865 139.75C346.865 138.227 347.808 137.364 349.092 137.364C350.337 137.364 351.092 138.176 351.092 139.545V145H352.433V139.455C352.433 137.227 351.246 136.159 349.479 136.159C348.161 136.159 347.342 136.75 346.933 137.636H346.82V136.273H345.524V145H346.865V139.75ZM363.27 136.273H361.315V135.386C361.315 134.523 361.679 134.068 362.565 134.068C362.952 134.068 363.179 134.159 363.315 134.205L363.702 133.045C363.497 132.955 363.088 132.818 362.429 132.818C361.179 132.818 359.974 133.568 359.974 135.068V136.273H358.565V137.409H359.974V145H361.315V137.409H363.27V136.273ZM368.335 145.182C370.699 145.182 372.29 143.386 372.29 140.682C372.29 137.955 370.699 136.159 368.335 136.159C365.972 136.159 364.381 137.955 364.381 140.682C364.381 143.386 365.972 145.182 368.335 145.182ZM368.335 143.977C366.54 143.977 365.722 142.432 365.722 140.682C365.722 138.932 366.54 137.364 368.335 137.364C370.131 137.364 370.949 138.932 370.949 140.682C370.949 142.432 370.131 143.977 368.335 143.977ZM374.337 145H375.678V139.477C375.678 138.295 376.609 137.432 377.882 137.432C378.24 137.432 378.609 137.5 378.7 137.523V136.159C378.547 136.148 378.195 136.136 377.996 136.136C376.95 136.136 376.041 136.727 375.723 137.591H375.632V136.273H374.337V145ZM389.426 133.364V141.682C389.426 143.131 388.733 143.909 387.517 143.909C386.409 143.909 385.608 143.261 385.608 142.273H384.222C384.222 144.062 385.608 145.159 387.517 145.159C389.54 145.159 390.835 143.915 390.835 141.682V133.364H389.426ZM397.023 145.182C399.386 145.182 400.977 143.386 400.977 140.682C400.977 137.955 399.386 136.159 397.023 136.159C394.659 136.159 393.068 137.955 393.068 140.682C393.068 143.386 394.659 145.182 397.023 145.182ZM397.023 143.977C395.227 143.977 394.409 142.432 394.409 140.682C394.409 138.932 395.227 137.364 397.023 137.364C398.818 137.364 399.636 138.932 399.636 140.682C399.636 142.432 398.818 143.977 397.023 143.977ZM403.575 148.25C404.786 148.25 405.643 147.608 406.143 146.273L409.859 136.295L408.393 136.273L405.984 143.227H405.893L403.484 136.273H402.03L405.257 145.045L405.007 145.727C404.53 147.034 403.916 147.159 402.939 146.909L402.598 148.091C402.734 148.159 403.121 148.25 403.575 148.25ZM417.815 138.227C417.395 136.989 416.452 136.159 414.724 136.159C412.884 136.159 411.52 137.205 411.52 138.682C411.52 139.886 412.236 140.693 413.838 141.068L415.293 141.409C416.173 141.614 416.588 142.034 416.588 142.636C416.588 143.386 415.793 144 414.543 144C413.446 144 412.759 143.528 412.52 142.591L411.247 142.909C411.56 144.392 412.781 145.182 414.565 145.182C416.594 145.182 417.974 144.074 417.974 142.568C417.974 141.352 417.213 140.585 415.656 140.205L414.361 139.886C413.327 139.631 412.861 139.284 412.861 138.614C412.861 137.864 413.656 137.318 414.724 137.318C415.895 137.318 416.378 137.966 416.611 138.568L417.815 138.227ZM423.788 136.273H421.925V134.182H420.584V136.273H419.266V137.409H420.584V142.864C420.584 144.386 421.811 145.114 422.947 145.114C423.447 145.114 423.766 145.023 423.947 144.955L423.675 143.75C423.561 143.773 423.379 143.818 423.084 143.818C422.493 143.818 421.925 143.636 421.925 142.5V137.409H423.788V136.273ZM425.805 145H427.146V139.477C427.146 138.295 428.078 137.432 429.351 137.432C429.709 137.432 430.078 137.5 430.169 137.523V136.159C430.016 136.148 429.663 136.136 429.464 136.136C428.419 136.136 427.51 136.727 427.192 137.591H427.101V136.273H425.805V145ZM435.152 145.182C436.925 145.182 438.22 144.295 438.629 142.977L437.334 142.614C436.993 143.523 436.203 143.977 435.152 143.977C433.578 143.977 432.493 142.96 432.43 141.091H438.766V140.523C438.766 137.273 436.834 136.159 435.016 136.159C432.652 136.159 431.084 138.023 431.084 140.705C431.084 143.386 432.629 145.182 435.152 145.182ZM432.43 139.932C432.521 138.574 433.482 137.364 435.016 137.364C436.47 137.364 437.402 138.455 437.402 139.932H432.43ZM443.374 145.205C444.896 145.205 445.692 144.386 445.964 143.818H446.033V145H447.374V139.25C447.374 136.477 445.26 136.159 444.146 136.159C442.828 136.159 441.328 136.614 440.646 138.205L441.919 138.659C442.214 138.023 442.913 137.341 444.192 137.341C445.425 137.341 446.033 137.994 446.033 139.114V139.159C446.033 139.807 445.374 139.75 443.783 139.955C442.163 140.165 440.396 140.523 440.396 142.523C440.396 144.227 441.714 145.205 443.374 145.205ZM443.578 144C442.51 144 441.737 143.523 441.737 142.591C441.737 141.568 442.669 141.25 443.714 141.114C444.283 141.045 445.805 140.886 446.033 140.614V141.841C446.033 142.932 445.169 144 443.578 144ZM449.821 145H451.162V139.545C451.162 138.267 452.094 137.364 453.139 137.364C454.156 137.364 454.866 138.028 454.866 139.023V145H456.23V139.318C456.23 138.193 456.935 137.364 458.162 137.364C459.116 137.364 459.935 137.869 459.935 139.159V145H461.276V139.159C461.276 137.108 460.173 136.159 458.616 136.159C457.366 136.159 456.452 136.733 456.003 137.636H455.912C455.48 136.705 454.719 136.159 453.571 136.159C452.435 136.159 451.594 136.705 451.23 137.636H451.116V136.273H449.821V145Z" fill="#C4C3C6"/>
<path d="M659.86 91C675.31 90.09 691.8 88 705.97 88C711.48 88 715.97 103.24 715.97 115.76C715.97 122.98 715.06 146.51 713.21 165.65C711.85 179.73 709.28 193.88 709.28 203.47C713.28 203.47 714.39 202.64 715.99 206.21C720.36 216 722.99 230.53 715.99 235.68C711.81 238.75 704.93 238.75 698.18 239.79C684.12 241.96 680.95 242.66 671.24 243.9C669.843 244.086 668.424 244.045 667.04 243.78C663.22 244.78 658.64 245 654.11 245.7C639.81 247.91 623.22 248.62 613.35 249.89C606.72 250.73 600.43 246.99 597.5 236.97C592.97 221.97 603.73 155.61 605.14 137.45C600.47 139.061 595.627 140.115 590.71 140.59C581.71 140.59 578.52 129.98 578.52 117.59C578.52 105.2 583.69 94.59 592.67 94.59C599.34 94.51 640.39 91.27 659.86 91Z" fill="black"/>
<path fill-rule="evenodd" clip-rule="evenodd" d="M610.09 212.37C607.27 212.92 604.73 215.46 602.5 220C605.24 194.313 607.77 172.7 610.09 155.16C611.43 144.95 611.79 126.34 610.09 115.78C609.09 109.02 605.86 103.1 601.09 99.51L703.78 94C708.193 98.14 710.397 109.78 710.39 128.92C710.383 148.06 708.18 172.917 703.78 203.49C673.84 205.35 612.92 211.82 610.09 212.37Z" fill="white"/>
<path d="M638.14 114L621 115.39V121.69L631.48 120.85V146.51C631.482 147.515 631.202 148.501 630.672 149.355C630.141 150.208 629.382 150.896 628.48 151.34L624.23 153.4L626 160L632.33 156.88C634.516 155.768 636.259 153.945 637.27 151.71C637.854 150.416 638.147 149.01 638.13 147.59L638.14 114Z" fill="black"/>
<path d="M653.94 117.59C662.02 118.82 670.46 118.15 678.48 117.5C685.65 116.88 693.27 116.75 699.74 114.1C700.58 113.72 700.13 112.88 699.49 112.74C692.04 111.48 684.05 112.99 676.49 113.8C668.89 114.44 661.08 114.91 653.73 116.91C653.53 117.09 653.54 117.61 653.97 117.59H653.94Z" fill="black"/>
<path d="M670.25 135.31C675.51 136.65 680.99 136.09 686.19 135.55C690.85 135.03 695.79 135.01 699.97 132.44C700.51 132.08 700.2 131.23 699.79 131.07C694.94 129.72 689.79 131.12 684.84 131.82C679.91 132.36 674.84 132.73 670.09 134.63C669.96 134.8 669.98 135.32 670.25 135.31Z" fill="black"/>
<path d="M665.82 134.76C663.67 132.95 661.15 132.92 658.76 132.91C656.62 132.91 654.41 132.44 652.19 134.46C652.063 134.651 651.986 134.871 651.965 135.1C651.944 135.328 651.98 135.558 652.07 135.77C654.07 137.56 656.54 136.77 658.83 136.59C661.1 136.59 663.41 136.75 665.83 135.43C665.92 135.27 665.98 134.78 665.83 134.76H665.82Z" fill="black"/>
<path d="M681.28 151.22C676.28 153.22 670.77 153.53 665.56 153.77C660.89 153.96 656 154.66 651.56 152.86C650.98 152.6 651.17 151.76 651.56 151.55C656.19 149.55 661.48 150.13 666.43 150.08C671.37 149.86 676.43 149.47 681.37 150.56C681.52 150.71 681.57 151.19 681.29 151.22H681.28Z" fill="black"/>
<path fill-rule="evenodd" clip-rule="evenodd" d="M599.78 107C600.99 108.35 605.63 111.89 605.63 120.4C605.493 125.072 604.972 129.724 604.07 134.31C595.62 136.21 589.2 137.85 588.48 136.52C589.889 136.081 591.181 135.331 592.261 134.325C593.341 133.319 594.182 132.084 594.72 130.71C596.423 126.633 597.221 122.235 597.06 117.82C597.099 115.953 596.715 114.101 595.935 112.403C595.156 110.706 594.002 109.207 592.56 108.02L599.78 107Z" fill="white"/>
<path fill-rule="evenodd" clip-rule="evenodd" d="M604.15 134.31C595.66 136.21 589.2 137.87 588.48 136.5C589.891 136.071 591.188 135.329 592.273 134.33C593.359 133.331 594.205 132.101 594.75 130.73C595.771 127.963 597.494 125.509 599.75 123.61C600.53 122.88 601.493 122.374 602.537 122.147C603.581 121.92 604.667 121.98 605.68 122.32C605.427 126.345 604.916 130.35 604.15 134.31Z" fill="#D3D8E0"/>
<path fill-rule="evenodd" clip-rule="evenodd" d="M589.87 111C591.437 113.279 592.213 116.008 592.08 118.77C592.08 119.54 592.08 120.28 592.01 121L585.85 122C585.74 120.782 585.74 119.558 585.85 118.34C586.029 116.416 586.637 114.557 587.63 112.9C588.185 112.07 588.961 111.412 589.87 111Z" fill="#D3D8E0"/>
<path fill-rule="evenodd" clip-rule="evenodd" d="M707.9 209C708.9 209 710.48 211.65 711.64 216C713.49 223 710.43 226.21 707.05 228.17C698.68 229.36 629.4 236.57 628.78 235.11C618.033 238.61 613.413 238.89 614.92 235.95C616.12 233.64 615.77 232.3 615.83 226.81C615.965 224.937 615.692 223.058 615.031 221.3C614.37 219.543 613.336 217.95 612 216.63L707.9 209Z" fill="white"/>
<path fill-rule="evenodd" clip-rule="evenodd" d="M713.62 228.61C711.98 235.39 639.73 238.54 631.81 239.47C623.89 240.4 611.47 242.39 612.99 239.47C614.115 236.78 615.938 234.439 618.27 232.69C620.27 231.31 681.27 220.46 695.47 218.77C704.93 217.63 710.127 215.373 711.06 212C715.46 218.76 713.62 226.52 713.62 228.61Z" fill="#D3D8E0"/>
<path fill-rule="evenodd" clip-rule="evenodd" d="M609.57 221C610.764 223.279 611.255 225.862 610.98 228.42C610.96 229.113 610.903 229.804 610.81 230.49L605.64 231C605.607 229.857 605.673 228.712 605.84 227.58C606.072 225.808 606.675 224.104 607.61 222.58C608.101 221.851 608.797 221.284 609.61 220.95L609.57 221Z" fill="#D3D8E0"/>
<path fill-rule="evenodd" clip-rule="evenodd" d="M616.19 170.89L701.75 162C702.65 161.9 703.28 162.77 703.15 164L699.92 190.84C699.887 191.375 699.687 191.886 699.348 192.3C699.009 192.715 698.548 193.012 698.03 193.15L612.47 202C611.56 202.1 610.94 201.22 611.07 200.05L614.3 173.21C614.33 172.673 614.529 172.16 614.869 171.744C615.208 171.327 615.671 171.028 616.19 170.89Z" fill="black"/>
<path d="M625.06 180.14C631.44 181.14 638.11 180.6 644.44 180.08C650.1 179.59 656.11 179.49 661.23 177.37C661.88 177.07 661.53 176.37 661.02 176.28C655.15 175.28 648.84 176.48 642.84 177.12C636.84 177.76 630.67 178 624.84 179.6C624.68 179.74 624.69 180.16 625.02 180.14H625.06Z" fill="white"/>
<path d="M640.56 188.93C644.68 190 648.98 189.56 653.05 189.13C656.7 188.72 660.58 188.7 663.85 186.65C663.93 186.577 663.991 186.487 664.028 186.385C664.066 186.284 664.078 186.175 664.064 186.068C664.051 185.961 664.011 185.859 663.949 185.771C663.888 185.682 663.806 185.61 663.71 185.56C659.9 184.47 655.85 185.56 651.99 186.15C648.13 186.74 644.15 186.87 640.43 188.38C640.33 188.52 640.34 188.94 640.56 188.93Z" fill="white"/>
<path d="M634.56 188.79C632.92 187.43 630.99 187.41 629.16 187.4C627.52 187.4 625.84 187.06 624.16 188.57C624.058 188.714 623.996 188.882 623.98 189.058C623.965 189.233 623.995 189.41 624.07 189.57C625.57 190.9 627.48 190.3 629.23 190.17C630.98 190.04 632.73 190.29 634.56 189.3C634.62 189.18 634.67 188.82 634.56 188.8V188.79Z" fill="white"/>
<path d="M652.75 178.77C659.13 179.77 670.07 177.61 676.4 177.09C682.06 176.59 688.07 176.5 693.19 174.38C693.84 174.08 693.49 173.38 692.98 173.29C687.11 172.29 680.8 173.48 674.8 174.13C668.8 174.63 658.54 175.13 652.8 176.77C654.213 176.994 655.64 177.121 657.07 177.15L652.75 178.77Z" fill="white"/>
<path d="M670.06 185.92C674.19 187 678.48 186.56 682.55 186.13C686.2 185.71 690.08 185.7 693.35 183.65C693.43 183.577 693.491 183.487 693.529 183.385C693.566 183.284 693.578 183.175 693.564 183.068C693.551 182.961 693.511 182.859 693.45 182.771C693.388 182.682 693.306 182.61 693.21 182.56C689.41 181.47 685.35 182.56 681.49 183.15C677.63 183.74 673.66 183.86 669.94 185.38C669.83 185.52 669.85 185.93 670.06 185.92Z" fill="white"/>
<path d="M664.88 186.79C663.24 185.43 661.32 185.41 659.49 185.4C657.85 185.4 656.16 185.06 654.49 186.57C654.388 186.714 654.326 186.882 654.31 187.058C654.295 187.233 654.326 187.41 654.4 187.57C655.9 188.9 657.81 188.3 659.57 188.17C661.33 188.04 663.07 188.29 664.89 187.3C664.96 187.18 665.01 186.82 664.89 186.8L664.88 186.79Z" fill="white"/>
<path d="M700 222C699.94 222 694.17 219.08 691.58 215.69C690.12 213.79 689.13 212.84 687.91 212.32H687.81C687.215 212.035 686.663 211.668 686.17 211.23C682.57 208.23 680.23 204.23 678.91 199.08C678.66 198.08 678.5 197.35 678.22 195.73C678.09 194.97 678.03 194.73 677.96 194.29C677.945 194.114 677.945 193.937 677.96 193.76V188.63C677.958 188.415 677.981 188.2 678.03 187.99L678.45 186.28C678.85 184.63 679.03 183.9 679.21 182.99C679.36 182.32 679.49 181.76 679.75 180.65V180.56C680.19 178.76 680.36 177.96 680.52 176.99C680.785 174.729 680.718 172.442 680.32 170.2C680.32 169.9 680.32 169.77 680.26 169.6C679.72 164.967 680.809 160.289 683.34 156.37C684.421 154.529 685.988 153.02 687.87 152.01C689.79 151.01 690.73 150.57 691.92 150.08C692.69 149.82 693.378 149.363 693.917 148.754C694.455 148.145 694.825 147.406 694.99 146.61C695.452 144.158 696.714 141.928 698.58 140.27C700.71 138.506 703.207 137.242 705.89 136.57C706.095 136.503 706.306 136.456 706.52 136.43H706.61C706.951 136.223 707.341 136.113 707.74 136.11H710.81C711.041 136.112 711.27 136.149 711.49 136.22C711.927 136.357 712.376 136.458 712.83 136.52H712.9C713.487 136.61 714.069 136.737 714.64 136.9C717.076 137.658 719.572 138.209 722.1 138.55C725.2 138.907 728.138 140.127 730.58 142.07C731.337 142.69 732.131 143.261 732.96 143.78C734.569 144.767 736.071 145.92 737.44 147.22C739.054 148.785 740.838 150.164 742.76 151.33C744.809 152.532 746.585 154.148 747.974 156.075C749.364 158.002 750.336 160.197 750.83 162.52L750.95 163.03C751.503 165.539 752.225 168.008 753.11 170.42C754.38 173.44 755.059 176.675 755.11 179.95V180.05C755.103 180.181 755.138 180.311 755.21 180.42C755.493 180.862 755.642 181.376 755.64 181.9V187.63C755.643 188.027 755.557 188.42 755.39 188.78C755.016 192.614 753.281 196.186 750.5 198.85C750.194 199.14 749.979 199.513 749.881 199.923C749.783 200.334 749.807 200.764 749.95 201.16C750.633 204.427 750.088 207.83 748.42 210.72C746.57 213.99 744.2 215.62 739.66 217.58C738.31 218.16 736.97 218.68 735.66 219.15C735.86 219.83 736.08 220.62 736.39 221.68L736.61 222.47C737 223.82 737.26 224.74 737.54 225.67C740.273 234.89 743.003 244.11 745.73 253.33C745.912 253.902 745.895 254.518 745.683 255.079C745.47 255.64 745.075 256.113 744.56 256.42C744.146 256.695 743.651 256.82 743.156 256.774C742.661 256.729 742.197 256.516 741.84 256.17L733.58 248.51C733 251.15 732.66 252.74 732.31 254.45C732.21 254.97 732.11 255.45 731.91 256.23V256.31C731.603 257.434 731.392 258.581 731.28 259.74C731.232 260.362 730.948 260.942 730.488 261.361C730.027 261.781 729.423 262.01 728.8 262H728.62C728.106 261.983 727.612 261.8 727.21 261.48C726.808 261.159 726.521 260.717 726.39 260.22C725.7 257.88 724.97 255.43 724.11 252.53C724.27 253.06 720.58 240.61 719.55 237.13C718.7 234.25 717.91 231.61 717.17 229.13L707.89 260.27C707.764 260.789 707.463 261.247 707.036 261.568C706.61 261.888 706.085 262.051 705.553 262.027C705.02 262.003 704.512 261.795 704.115 261.438C703.719 261.081 703.459 260.598 703.38 260.07C702.38 255.62 701.6 251.91 700.85 248.45C700.26 249.02 699.56 249.66 698.56 250.57C696.94 252.04 696.23 252.71 695.41 253.57C695.076 253.923 694.696 254.229 694.28 254.48L693.98 254.69C693.774 255.082 693.484 255.424 693.13 255.69C692.787 255.949 692.381 256.113 691.954 256.164C691.527 256.215 691.094 256.151 690.7 255.98C690.035 255.696 689.498 255.177 689.192 254.522C688.886 253.867 688.832 253.123 689.04 252.43C689.04 252.31 689.04 252.22 689.12 252.1C689.38 251.19 689.65 250.27 690 249.1C690.107 248.554 693.44 239.52 700 222Z" fill="black"/>
<path d="M720 209C720.27 208.52 720.8 208.79 721.15 208.2C719.581 208.661 717.94 208.831 716.31 208.7C712.477 208.634 708.73 207.554 705.45 205.57C701.252 203.149 697.856 199.55 695.68 195.22C692.255 188.694 691.419 181.116 693.34 174C694.767 168.131 698.149 162.922 702.93 159.23C705.018 157.805 707.227 156.564 709.53 155.52C711.968 154.359 714.667 153.855 717.36 154.06C722.719 154.152 727.876 156.124 731.93 159.63C734.609 161.841 736.825 164.56 738.45 167.63C740.833 171.955 742.056 176.823 742 181.76C741.84 189.98 739 196.81 733.52 202.3C730.065 205.81 725.601 208.152 720.75 209C720.607 209.015 720.463 209.015 720.32 209C720.213 209.01 720.106 209.01 720 209ZM706.3 201.84C706.473 202.154 706.754 202.395 707.09 202.52C709.675 203.928 712.539 204.747 715.478 204.92C718.417 205.093 721.357 204.615 724.09 203.52C726.661 202.581 728.97 201.038 730.82 199.02C731.825 198.242 732.691 197.299 733.38 196.23C736.15 192.369 737.773 187.803 738.059 183.059C738.346 178.315 737.285 173.587 735 169.42C734.459 168.121 733.607 166.974 732.52 166.08C732.501 165.897 732.445 165.719 732.353 165.559C732.262 165.399 732.138 165.26 731.99 165.15C726.26 159.09 719.47 156.92 711.68 158.77C708.203 159.572 705.042 161.389 702.6 163.99C702.324 164.112 702.083 164.301 701.9 164.54C700.661 165.804 699.595 167.227 698.73 168.77C694.16 177 694.11 185.36 698.39 193.77C698.635 194.429 699.075 194.997 699.65 195.4C699.715 195.858 699.921 196.285 700.24 196.62C700.8 197.3 701.43 197.92 701.98 198.62C703.173 199.978 704.642 201.066 706.29 201.81L706.3 201.84Z" fill="#D3D8E0"/>
<path d="M739.28 246.06C738.308 245.307 737.42 244.452 736.63 243.51C734.57 241.4 732.56 239.22 730.39 236.93C729.64 241.4 728.93 245.7 728.22 250H728.06C727.82 249.26 727.58 248.52 727.36 247.77C726.02 243.17 722.79 232.23 721.46 227.61C721.36 227.25 721.04 226.85 721.38 226.48C721.72 226.11 721.93 226.59 722.21 226.65C722.379 226.679 722.551 226.679 722.72 226.65C724.26 226.48 726.18 226.85 727.72 226.65C729.26 226.45 729.26 223.86 730.72 223.96C730.905 223.947 731.091 223.976 731.263 224.043C731.436 224.111 731.592 224.215 731.72 224.35C732.14 224.9 732.16 224.35 732.3 224C732.92 225.16 735.95 234.5 736.3 235.65C736.93 237.88 737.72 240.05 738.3 242.29C738.61 243.53 738.95 244.75 739.3 245.98L739.28 246.06Z" fill="#D3D8E0"/>
<path d="M712.39 230.6C712.85 230.1 712.65 229.45 712.86 228.86C713.19 229.12 713.1 229.45 713.04 229.72C712.17 233.53 708.49 246.31 707.28 250.01C707.03 250.79 706.88 251.61 706.67 252.41C706.61 252.65 706.67 252.94 706.24 253C706.06 250.83 705.44 248.77 705.09 246.64C704.74 244.51 704.24 242.44 703.81 240.34C703.69 239.73 703.63 239.34 703.02 240.03C700.19 243.12 697.31 246.11 694.44 249.14C694.342 249.2 694.238 249.25 694.13 249.29C695.72 243.78 700 229.34 701.77 224C702.2 224.16 702.14 224.38 702.1 224.55C702.01 224.94 702.1 225.1 702.48 224.99C702.896 224.893 703.332 224.915 703.736 225.053C704.141 225.191 704.499 225.439 704.77 225.77C705.32 226.35 706.2 226.08 706.77 226.67C707.77 227.78 709.26 228.13 710.24 229.29C710.413 229.495 710.655 229.63 710.92 229.67C711.223 229.697 711.515 229.795 711.772 229.957C712.029 230.118 712.244 230.339 712.4 230.6H712.39Z" fill="#D3D8E0"/>
<path d="M695.71 211.92C695.328 210.418 694.823 208.949 694.2 207.53C694.128 207.127 694.145 206.713 694.251 206.317C694.356 205.922 694.547 205.554 694.81 205.24C695.127 205.049 695.502 204.976 695.868 205.034C696.234 205.093 696.568 205.279 696.81 205.56C698.314 207.12 699.698 208.792 700.95 210.56C701.658 211.538 702.484 212.425 703.41 213.2C704.048 213.912 704.774 214.54 705.57 215.07C706.02 215.3 705.9 215.66 705.47 215.88C705.342 215.958 705.199 216.007 705.05 216.023C704.901 216.038 704.751 216.02 704.61 215.97C704.188 215.831 703.74 215.789 703.3 215.85C702.088 215.958 700.873 215.689 699.82 215.08C699.321 214.83 698.767 214.712 698.21 214.74C697.33 214.74 697 213.9 696.48 213.33C696.158 212.895 695.886 212.426 695.67 211.93L695.71 211.92Z" fill="#D3D8E0"/>
<path d="M695.5 209.251C695.431 208.434 695.28 207.627 695.05 206.841C694.95 206.531 695.47 205.981 695.83 206.001C696.104 206.017 696.372 206.094 696.612 206.228C696.853 206.361 697.06 206.546 697.22 206.771C698.051 207.878 698.806 209.041 699.48 210.251C699.865 210.934 700.314 211.581 700.82 212.181C701.204 212.715 701.636 213.214 702.11 213.671C702.39 213.911 702.25 214.031 701.92 214.001C701.694 213.979 701.477 213.899 701.29 213.771C701.008 213.581 700.702 213.43 700.38 213.321C699.505 213.004 698.698 212.526 698 211.911C697.675 211.637 697.307 211.421 696.91 211.271C696.29 211.011 696.16 210.511 695.91 210.111C695.748 209.836 695.617 209.544 695.52 209.241L695.5 209.251Z" fill="white"/>
<path d="M736.51 214.131C735.83 214.261 735.15 214.421 734.51 214.501C733.708 214.62 732.933 214.877 732.22 215.261C731.084 215.788 729.898 216.2 728.68 216.491C726.14 217.151 723.57 216.811 721.03 217.111C718.34 217.411 715.66 217.811 712.97 217.991C711.937 218.07 710.906 217.814 710.03 217.261C709.4 216.871 709.35 216.501 709.89 215.941C710.282 215.58 710.745 215.305 711.25 215.132C711.754 214.96 712.289 214.895 712.82 214.941C714.793 214.809 716.75 214.504 718.67 214.031C719.999 213.896 721.337 213.869 722.67 213.951C723.967 213.877 725.211 213.413 726.24 212.621C727.24 211.941 728.36 211.441 729.37 210.751C730.448 210.179 731.389 209.381 732.13 208.411C732.63 207.631 733.54 207.721 734.26 207.411C734.706 207.232 735.099 206.941 735.4 206.566C735.701 206.191 735.901 205.745 735.98 205.271C736.523 203.774 737.192 202.325 737.98 200.941C738.598 199.952 739.114 198.904 739.52 197.811C739.652 197.082 739.846 196.366 740.1 195.671C740.37 194.836 740.931 194.127 741.68 193.671C743.325 192.577 744.508 190.914 745 189.001C745.22 188.321 744.9 187.731 745 187.101C745.162 184.858 744.949 182.604 744.37 180.431C743.92 178.621 743.86 176.721 743.17 174.971C742.972 174.201 742.822 173.419 742.72 172.631C742.17 170.311 741.72 167.991 741.27 165.631C741.064 164.977 740.723 164.374 740.27 163.861C739.735 162.879 739.084 161.966 738.33 161.141C735.89 158.721 733.83 155.821 730.81 154.141C728.27 152.721 725.89 150.961 723.1 150.141C722.298 149.972 721.478 149.911 720.66 149.961C718.59 149.961 716.52 149.781 714.45 149.811C712.62 149.811 710.77 149.721 708.93 149.681C707.234 149.613 705.579 150.213 704.32 151.351C703.827 151.726 703.281 152.026 702.7 152.241C701.187 153.043 699.793 154.053 698.56 155.241C696.56 156.951 694.8 158.941 692.71 160.531C692.12 160.971 691.96 161.881 691.71 162.621C691.176 163.845 690.465 164.983 689.6 166.001C688.43 167.671 687.41 169.331 687.45 171.571C687.623 172.94 687.525 174.33 687.16 175.661C686.93 176.271 687.43 176.961 687.26 177.561C686.95 178.681 686.78 179.821 686.36 180.921C686.044 181.534 685.857 182.204 685.809 182.892C685.76 183.58 685.853 184.27 686.08 184.921C686.723 186.364 687.154 187.894 687.36 189.461C687.47 190.461 688.23 191.231 688.26 192.241C688.26 194.001 688.99 195.661 688.73 197.471C688.52 198.911 687.49 199.741 686.88 200.891C686.67 201.271 686.3 201.131 686.06 200.821C684.37 198.691 682.52 196.581 682.62 193.501C682.603 192.014 682.676 190.528 682.84 189.051C682.84 188.831 682.95 188.531 682.84 188.391C681.92 187.031 682.78 185.781 683.04 184.511C683.271 183.722 683.458 182.921 683.6 182.111C683.72 180.981 684.23 180.001 684.41 178.891C684.897 176.313 684.863 173.665 684.31 171.101C683.703 168.347 683.915 165.476 684.92 162.841C685.291 161.682 685.777 160.563 686.37 159.501C686.94 158.561 687.85 158.061 688.45 157.211C689.45 155.861 690.76 155.891 692.06 155.891C693.71 155.891 694.87 154.891 695.91 153.681C696.95 152.471 698.15 151.681 699.07 150.501C699.978 149.481 700.59 148.233 700.84 146.891C700.994 146.311 701.348 145.804 701.84 145.461C703.386 143.756 705.179 142.293 707.16 141.121C707.312 141.031 707.483 140.979 707.66 140.971C709.544 140.984 711.39 141.498 713.01 142.461C714.01 143.021 715.07 143.671 716.14 144.161C716.668 144.368 717.131 144.713 717.48 145.161C718.157 145.99 718.998 146.671 719.95 147.161C720.045 147.23 720.155 147.277 720.27 147.3C720.386 147.322 720.505 147.319 720.62 147.291C721.631 147.092 722.679 147.211 723.62 147.631C724.189 147.756 724.768 147.836 725.35 147.871C726.86 148.263 728.307 148.866 729.65 149.661C731.628 150.66 733.492 151.871 735.21 153.271C736.06 153.981 737.21 154.271 737.98 155.031C739.937 156.821 741.777 158.735 743.49 160.761C744.75 162.351 745.37 164.411 746.2 166.291C747.2 168.541 748.47 170.611 749.54 172.801C750.364 174.548 750.856 176.433 750.99 178.361C751.321 181.392 751.007 184.459 750.07 187.361C749.65 188.571 749.17 189.811 748.82 191.021C748.3 192.665 747.418 194.172 746.24 195.431C745.553 196.06 745.023 196.841 744.69 197.711C744.572 198.069 744.508 198.443 744.5 198.821C744.5 200.471 744.5 202.111 744.5 203.761C744.568 205.045 744.342 206.327 743.84 207.511C743.337 208.695 742.571 209.748 741.6 210.591C740.463 211.684 739.243 212.687 737.95 213.591C737.54 213.888 737.062 214.078 736.56 214.141L736.51 214.131Z" fill="#D3D8E0"/>
<path d="M750 176.171C749.871 174.303 749.386 172.476 748.57 170.791C747.51 168.671 746.25 166.671 745.27 164.501C744.44 162.671 743.82 160.681 742.58 159.141C740.885 157.175 739.061 155.324 737.12 153.601C736.33 152.831 735.23 152.601 734.39 151.881C732.683 150.528 730.835 149.361 728.88 148.401C727.549 147.629 726.114 147.05 724.62 146.681C724.045 146.649 723.473 146.572 722.91 146.451C721.968 146.034 720.92 145.919 719.91 146.121C719.798 146.145 719.682 146.146 719.57 146.121C719.458 146.097 719.352 146.049 719.26 145.981C718.327 145.527 717.497 144.887 716.82 144.101C716.479 143.654 716.023 143.308 715.5 143.101C714.43 142.621 713.43 142.001 712.4 141.451C710.789 140.518 708.962 140.022 707.1 140.011C706.929 140.022 706.761 140.07 706.61 140.151C704.658 141.286 702.885 142.705 701.35 144.361C700.851 144.674 700.492 145.169 700.35 145.741C700.107 147.048 699.496 148.258 698.59 149.231C697.67 150.401 696.47 151.231 695.47 152.301C695.018 152.903 694.446 153.405 693.79 153.775C693.134 154.145 692.409 154.375 691.66 154.451C690.36 154.451 689.03 154.451 688.06 155.741C687.47 156.561 686.57 157.051 686 157.961C685.411 158.989 684.928 160.075 684.56 161.201C683.577 163.751 683.378 166.537 683.99 169.201C684.541 171.673 684.579 174.233 684.1 176.721C683.781 177.747 683.514 178.788 683.3 179.841C683.3 180.001 683.3 180.161 683.22 180.321L684.5 178.091C684.741 177.634 685.026 177.202 685.35 176.801C685.702 174.642 685.638 172.435 685.16 170.301C684.572 167.778 684.757 165.137 685.69 162.721C686.038 161.657 686.494 160.632 687.05 159.661C687.59 158.801 688.44 158.341 689.05 157.551C689.94 156.331 691.2 156.351 692.43 156.341C693.138 156.289 693.826 156.082 694.446 155.737C695.066 155.392 695.603 154.915 696.02 154.341C697.02 153.281 698.11 152.541 699.02 151.431C699.878 150.508 700.454 149.36 700.68 148.121C700.815 147.591 701.143 147.131 701.6 146.831C703.055 145.253 704.741 143.904 706.6 142.831C706.747 142.759 706.907 142.715 707.07 142.701C708.825 142.711 710.548 143.176 712.07 144.051C713.07 144.581 713.99 145.171 715 145.621C715.494 145.821 715.925 146.149 716.25 146.571C716.894 147.308 717.675 147.912 718.55 148.351C718.64 148.416 718.743 148.461 718.852 148.481C718.96 148.502 719.073 148.499 719.18 148.471C720.092 148.291 721.037 148.392 721.89 148.761C722.079 148.782 722.267 148.819 722.45 148.871H722.58C722.915 148.885 723.249 148.918 723.58 148.971C724.982 149.327 726.328 149.876 727.58 150.601C729.421 151.515 731.161 152.621 732.77 153.901C733.57 154.561 734.59 154.801 735.36 155.521C737.191 157.155 738.911 158.909 740.51 160.771C741.575 162.34 742.432 164.041 743.06 165.831C743.99 167.891 745.18 169.781 746.19 171.781C746.955 173.381 747.413 175.111 747.54 176.881C747.6 177.581 747.63 178.291 747.64 178.991C747.69 179.141 747.75 179.281 747.81 179.421C747.99 179.751 748.19 180.111 748.27 180.281L749.61 182.961C750.091 180.731 750.223 178.441 750 176.171Z" fill="white"/>
<path d="M730.22 160.31C732.042 161.25 733.582 162.658 734.68 164.39C736.226 165.089 737.518 166.249 738.38 167.71C736.58 162.78 732.96 159.46 729.03 156.8C726.993 155.322 724.831 154.024 722.57 152.92C720.355 152.011 717.925 151.757 715.57 152.19C713.029 152.427 710.549 153.103 708.24 154.19C705.948 155.381 703.775 156.787 701.75 158.39C700.258 159.713 698.935 161.214 697.81 162.86V162.94C697.52 163.33 697.25 163.71 696.96 164.09C695.576 165.923 694.361 167.878 693.33 169.93C694.045 169.098 694.918 168.418 695.9 167.93C696.4 167.12 696.9 166.33 697.49 165.56L698.66 163.95C699.53 163.407 700.246 162.649 700.74 161.75C702.476 160.197 704.37 158.83 706.39 157.67C710.112 155.936 714.174 155.054 718.28 155.09C720.579 155.072 722.838 155.688 724.81 156.87C726.55 158.06 728.38 159.19 730.22 160.31ZM721.69 154.16C721.597 154.091 721.5 154.027 721.4 153.97L721.74 154.1L722.21 154.3C722.041 154.239 721.867 154.193 721.69 154.16Z" fill="white"/>
<path d="M728.9 198.691C730.639 197.734 732.087 196.324 733.09 194.611C734.565 193.892 735.784 192.736 736.58 191.301C734.89 196.231 731.48 199.551 727.79 202.201C725.883 203.673 723.849 204.972 721.71 206.081C719.638 206.998 717.333 207.253 715.11 206.811C712.708 206.564 710.371 205.886 708.21 204.811C706.048 203.604 704.009 202.191 702.12 200.591C700.704 199.259 699.458 197.758 698.41 196.121V196.041L697.62 194.901C696.314 193.054 695.173 191.097 694.21 189.051C694.873 189.874 695.696 190.555 696.63 191.051C697.1 191.861 697.63 192.641 698.13 193.411C698.49 193.941 698.86 194.491 699.23 195.021C700.072 195.577 700.76 196.338 701.23 197.231C702.856 198.773 704.639 200.14 706.55 201.311C710.022 203.034 713.854 203.908 717.73 203.861C719.903 203.88 722.035 203.261 723.86 202.081C725.46 201.001 727.18 199.811 728.9 198.691ZM720.9 204.851L720.63 205.031L720.95 204.911L721.39 204.711L720.9 204.851Z" fill="white"/>
<path d="M738.18 208.24C738.418 207.202 738.777 206.195 739.25 205.24C739.44 204.87 738.78 204.06 738.25 204.01C737.861 203.971 737.468 204.013 737.096 204.133C736.724 204.254 736.382 204.45 736.09 204.71C734.711 205.951 733.421 207.288 732.23 208.71C731.533 209.521 730.752 210.255 729.9 210.9C729.247 211.514 728.537 212.063 727.78 212.54C727.32 212.79 727.51 212.97 728.01 213C728.332 213.021 728.655 212.962 728.95 212.83C729.4 212.634 729.874 212.496 730.36 212.42C731.66 212.202 732.909 211.751 734.05 211.09C734.584 210.808 735.157 210.606 735.75 210.49C736.75 210.29 736.96 209.67 737.45 209.22C737.729 208.92 737.968 208.584 738.16 208.22L738.18 208.24Z" fill="white"/>
<path d="M725.13 169.64L722 168L707.28 169.65L706.82 170.18C706.82 171.11 706.89 172.05 706.92 172.98L707.2 173.29L713.77 173.55C713.89 179.19 714.44 183.23 714.49 186.02C714.86 187.97 714.49 189.21 713.49 189.72C712.484 190.303 711.384 190.705 710.24 190.91C710.24 192.23 717.11 192.09 715.11 192.28L710.44 192.55L709.99 194.94L712.3 197L719.45 196.72C721.85 196.58 723.84 195.84 724.86 194.59C725.47 193.901 725.786 193 725.74 192.08L725.13 169.64Z" fill="black"/>
<path d="M722.67 168L706.78 168.06C706.84 169.27 706.89 170.49 706.94 171.71L715.48 171.9L715.62 187.9C715.62 189.2 714.3 190.1 712.3 190.3L707.61 190.6L709.61 194.97L716.75 194.66C719.15 194.51 721.15 193.75 722.17 192.53C722.779 191.848 723.095 190.953 723.05 190.04L722.67 168Z" fill="#D3D8E0"/>
<path d="M723.62 167L707.68 167.13C707.68 167.42 707.68 167.71 707.68 168.01L722.07 168.34V190.61C722.07 192.39 720.24 193.68 717.5 193.93L711.07 194.37L711.38 195L717.38 194.73C719.85 194.56 721.9 193.78 722.96 192.51C723.591 191.801 723.927 190.878 723.9 189.93L723.62 167Z" fill="white"/>
</g>
<defs>
<clipPath id="clip0">
<rect width="882" height="300" fill="white"/>
</clipPath>
</defs>
</svg>
