<svg width="882" height="300" viewBox="0 0 882 300" fill="none" xmlns="http://www.w3.org/2000/svg">
<g clip-path="url(#clip0)">
<rect width="882" height="300" fill="white"/>
<rect width="882" height="210" fill="black"/>
<path d="M64.4062 101V68.3516H68.9766V96.9219H83.7656V101H64.4062ZM87.0469 94.2734C87.0469 92.3516 87.6562 90.7031 88.875 89.3281C90.0938 87.9531 91.9219 87.1562 94.3594 86.9375L102.328 86.2109V84.2422C102.328 83.2891 102.203 82.5 101.953 81.875C101.719 81.25 101.375 80.7578 100.922 80.3984C100.484 80.0234 99.9531 79.7656 99.3281 79.625C98.7031 79.4688 98.0078 79.3906 97.2422 79.3906C95.7109 79.3906 94.4844 79.7344 93.5625 80.4219C92.6562 81.1094 92.2031 82.2422 92.2031 83.8203H87.8672C87.8672 82.6641 88.1172 81.6094 88.6172 80.6562C89.1172 79.6875 89.7891 78.8516 90.6328 78.1484C91.4766 77.4453 92.4688 76.9062 93.6094 76.5312C94.75 76.1406 95.9766 75.9453 97.2891 75.9453C98.6016 75.9453 99.8203 76.1172 100.945 76.4609C102.086 76.7891 103.07 77.2891 103.898 77.9609C104.742 78.6328 105.391 79.5 105.844 80.5625C106.312 81.6094 106.547 82.8516 106.547 84.2891V97.2969H110.203V101H102.891L102.797 96.4766H102.609C101.938 98.2109 100.945 99.5 99.6328 100.344C98.3203 101.172 96.75 101.586 94.9219 101.586C93.7031 101.586 92.6016 101.398 91.6172 101.023C90.6328 100.648 89.7812 100.094 89.0625 99.3594C88.4219 98.7188 87.9219 97.9531 87.5625 97.0625C87.2188 96.1719 87.0469 95.2422 87.0469 94.2734ZM91.6172 94.8594C91.6172 95.9844 92.0078 96.8125 92.7891 97.3438C93.5703 97.8594 94.6484 98.1172 96.0234 98.1172C97.9766 98.1172 99.5156 97.4219 100.641 96.0312C101.766 94.6406 102.328 92.8438 102.328 90.6406V89.5391L93.6328 90.3359C92.7422 90.3984 92.1797 90.6328 91.9453 91.0391C91.7266 91.4453 91.6172 92 91.6172 92.7031V94.8594ZM115.031 101V76.5312H119.344V80.5625C120.016 79.125 120.938 78 122.109 77.1875C123.281 76.3594 124.797 75.9453 126.656 75.9453C127.844 75.9453 128.922 76.1094 129.891 76.4375C130.859 76.75 131.695 77.2578 132.398 77.9609C133.102 78.6641 133.648 79.5703 134.039 80.6797C134.43 81.7734 134.625 83.1094 134.625 84.6875V101H130.289V85.1562C130.289 83.3594 129.945 81.9531 129.258 80.9375C128.57 79.9062 127.297 79.3906 125.438 79.3906C124.547 79.3906 123.734 79.5703 123 79.9297C122.266 80.2734 121.625 80.7734 121.078 81.4297C120.531 82.0859 120.102 82.8672 119.789 83.7734C119.492 84.6641 119.344 85.6406 119.344 86.7031V101H115.031ZM141.164 88.7656C141.164 87 141.359 85.3359 141.75 83.7734C142.156 82.1953 142.758 80.8359 143.555 79.6953C144.352 78.5391 145.359 77.625 146.578 76.9531C147.797 76.2812 149.219 75.9453 150.844 75.9453C152.672 75.9453 154.242 76.3359 155.555 77.1172C156.867 77.8984 157.906 79.0312 158.672 80.5156V68.3516H163.008V101H158.672V97.0156C157.906 98.4844 156.883 99.6172 155.602 100.414C154.32 101.195 152.773 101.586 150.961 101.586C149.305 101.586 147.859 101.25 146.625 100.578C145.406 99.9062 144.391 98.9922 143.578 97.8359C142.766 96.6797 142.156 95.3281 141.75 93.7812C141.359 92.2188 141.164 90.5469 141.164 88.7656ZM145.711 92.5625C145.711 93.3906 145.867 94.1484 146.18 94.8359C146.508 95.5234 146.953 96.1094 147.516 96.5938C148.078 97.0625 148.734 97.4375 149.484 97.7188C150.234 97.9844 151.062 98.1172 151.969 98.1172C154.141 98.1172 155.797 97.4297 156.938 96.0547C158.094 94.6797 158.672 92.9375 158.672 90.8281V86.7031C158.672 84.5938 158.094 82.8516 156.938 81.4766C155.797 80.0859 154.141 79.3906 151.969 79.3906C151.078 79.3906 150.25 79.5312 149.484 79.8125C148.734 80.0781 148.078 80.4531 147.516 80.9375C146.953 81.4219 146.508 82.0078 146.18 82.6953C145.867 83.3828 145.711 84.1406 145.711 84.9688V92.5625ZM170.859 72.875V68.3516H175.359V72.875H170.859ZM170.953 101V76.5312H175.266V101H170.953ZM183.234 101V76.5312H187.547V80.5625C188.219 79.125 189.141 78 190.312 77.1875C191.484 76.3594 193 75.9453 194.859 75.9453C196.047 75.9453 197.125 76.1094 198.094 76.4375C199.062 76.75 199.898 77.2578 200.602 77.9609C201.305 78.6641 201.852 79.5703 202.242 80.6797C202.633 81.7734 202.828 83.1094 202.828 84.6875V101H198.492V85.1562C198.492 83.3594 198.148 81.9531 197.461 80.9375C196.773 79.9062 195.5 79.3906 193.641 79.3906C192.75 79.3906 191.938 79.5703 191.203 79.9297C190.469 80.2734 189.828 80.7734 189.281 81.4297C188.734 82.0859 188.305 82.8672 187.992 83.7734C187.695 84.6641 187.547 85.6406 187.547 86.7031V101H183.234ZM209.367 88.7656C209.367 87 209.562 85.3359 209.953 83.7734C210.359 82.1953 210.961 80.8359 211.758 79.6953C212.555 78.5391 213.562 77.625 214.781 76.9531C216 76.2812 217.422 75.9453 219.047 75.9453C220.875 75.9453 222.445 76.3359 223.758 77.1172C225.07 77.8984 226.109 79.0312 226.875 80.5156V76.5312H231.211V100.531C231.211 102.234 230.906 103.695 230.297 104.914C229.688 106.148 228.883 107.172 227.883 107.984C226.898 108.797 225.773 109.391 224.508 109.766C223.242 110.156 221.953 110.352 220.641 110.352C219.359 110.352 218.133 110.227 216.961 109.977C215.805 109.727 214.75 109.305 213.797 108.711C212.859 108.117 212.078 107.328 211.453 106.344C210.828 105.375 210.422 104.156 210.234 102.688H214.547C214.703 104.094 215.297 105.148 216.328 105.852C217.375 106.555 218.75 106.906 220.453 106.906C221.281 106.906 222.086 106.781 222.867 106.531C223.648 106.297 224.336 105.914 224.93 105.383C225.523 104.867 225.992 104.188 226.336 103.344C226.695 102.516 226.875 101.508 226.875 100.32V97.0156C226.109 98.4844 225.086 99.6172 223.805 100.414C222.523 101.195 220.977 101.586 219.164 101.586C217.508 101.586 216.062 101.25 214.828 100.578C213.609 99.9062 212.594 98.9922 211.781 97.8359C210.969 96.6797 210.359 95.3281 209.953 93.7812C209.562 92.2188 209.367 90.5469 209.367 88.7656ZM213.914 92.5625C213.914 93.3906 214.07 94.1484 214.383 94.8359C214.711 95.5234 215.156 96.1094 215.719 96.5938C216.281 97.0625 216.938 97.4375 217.688 97.7188C218.438 97.9844 219.266 98.1172 220.172 98.1172C222.344 98.1172 224 97.4297 225.141 96.0547C226.297 94.6797 226.875 92.9375 226.875 90.8281V86.7031C226.875 84.5938 226.297 82.8516 225.141 81.4766C224 80.0859 222.344 79.3906 220.172 79.3906C219.281 79.3906 218.453 79.5312 217.688 79.8125C216.938 80.0781 216.281 80.4531 215.719 80.9375C215.156 81.4219 214.711 82.0078 214.383 82.6953C214.07 83.3828 213.914 84.1406 213.914 84.9688V92.5625ZM251.766 101V68.3516H264.07C265.773 68.3516 267.273 68.5469 268.57 68.9375C269.883 69.3281 270.969 69.9219 271.828 70.7188C272.688 71.5156 273.312 72.5 273.703 73.6719C274.094 74.8281 274.289 76.1797 274.289 77.7266C274.289 79.1641 274.102 80.4688 273.727 81.6406C273.367 82.7969 272.773 83.7969 271.945 84.6406C271.305 85.2812 270.555 85.8125 269.695 86.2344C268.852 86.6406 267.789 86.9219 266.508 87.0781L274.57 101H269.344L261.703 87.2188H256.336V101H251.766ZM256.336 83.3281H265.734C266.953 83.3281 267.883 82.9609 268.523 82.2266C269.164 81.4922 269.484 80.6172 269.484 79.6016V75.9922C269.484 74.8672 269.148 73.9922 268.477 73.3672C267.805 72.7422 266.891 72.4297 265.734 72.4297H256.336V83.3281ZM279.961 88.7656C279.961 86.9062 280.188 85.1875 280.641 83.6094C281.109 82.0156 281.797 80.6641 282.703 79.5547C283.625 78.4297 284.734 77.5469 286.031 76.9062C287.328 76.2656 288.82 75.9453 290.508 75.9453C292.273 75.9453 293.812 76.25 295.125 76.8594C296.438 77.4688 297.523 78.3047 298.383 79.3672C299.242 80.4141 299.891 81.6484 300.328 83.0703C300.766 84.4922 300.984 86.0234 300.984 87.6641V89.9609H284.508V92.5625C284.508 93.4531 284.672 94.2422 285 94.9297C285.344 95.6172 285.805 96.2031 286.383 96.6875C286.961 97.1562 287.609 97.5156 288.328 97.7656C289.047 98 289.789 98.1172 290.555 98.1172C292.086 98.1172 293.414 97.7266 294.539 96.9453C295.664 96.1641 296.305 94.9219 296.461 93.2188H300.797C300.703 94.5312 300.359 95.7031 299.766 96.7344C299.172 97.75 298.398 98.6172 297.445 99.3359C296.508 100.055 295.445 100.609 294.258 101C293.07 101.391 291.82 101.586 290.508 101.586C288.742 101.586 287.195 101.266 285.867 100.625C284.555 99.9844 283.453 99.1016 282.562 97.9766C281.688 96.8516 281.031 95.5078 280.594 93.9453C280.172 92.3828 279.961 90.6562 279.961 88.7656ZM284.508 86.5156H296.508V85.1562C296.508 84.2656 296.344 83.4609 296.016 82.7422C295.703 82.0234 295.266 81.4141 294.703 80.9141C294.156 80.4141 293.516 80.0391 292.781 79.7891C292.062 79.5234 291.305 79.3906 290.508 79.3906C289.711 79.3906 288.953 79.5234 288.234 79.7891C287.516 80.0391 286.875 80.4141 286.312 80.9141C285.75 81.4141 285.305 82.0234 284.977 82.7422C284.664 83.4609 284.508 84.2656 284.508 85.1562V86.5156ZM307.547 109.156V76.5312H311.859V80.5156C312.625 79.0469 313.656 77.9219 314.953 77.1406C316.25 76.3438 317.828 75.9453 319.688 75.9453C321.312 75.9453 322.734 76.2812 323.953 76.9531C325.172 77.625 326.18 78.5391 326.977 79.6953C327.789 80.8359 328.391 82.1953 328.781 83.7734C329.188 85.3359 329.391 87 329.391 88.7656C329.391 90.5625 329.188 92.2344 328.781 93.7812C328.391 95.3281 327.789 96.6797 326.977 97.8359C326.18 98.9922 325.172 99.9062 323.953 100.578C322.75 101.25 321.328 101.586 319.688 101.586C317.828 101.586 316.25 101.195 314.953 100.414C313.656 99.6172 312.625 98.4844 311.859 97.0156V109.156H307.547ZM311.859 90.8281C311.859 92.9375 312.438 94.6797 313.594 96.0547C314.75 97.4297 316.414 98.1172 318.586 98.1172C320.414 98.1172 321.906 97.6094 323.062 96.5938C324.234 95.5625 324.82 94.2188 324.82 92.5625V84.9688C324.82 83.3125 324.234 81.9688 323.062 80.9375C321.906 79.9062 320.414 79.3906 318.586 79.3906C316.414 79.3906 314.75 80.0859 313.594 81.4766C312.438 82.8516 311.859 84.5938 311.859 86.7031V90.8281ZM334.805 88.7656C334.805 86.9062 335.023 85.1875 335.461 83.6094C335.914 82.0156 336.594 80.6641 337.5 79.5547C338.422 78.4297 339.57 77.5469 340.945 76.9062C342.32 76.2656 343.938 75.9453 345.797 75.9453C347.656 75.9453 349.273 76.2656 350.648 76.9062C352.023 77.5469 353.164 78.4297 354.07 79.5547C354.977 80.6641 355.656 82.0156 356.109 83.6094C356.562 85.1875 356.789 86.9062 356.789 88.7656C356.789 90.6562 356.562 92.3828 356.109 93.9453C355.656 95.5078 354.977 96.8516 354.07 97.9766C353.164 99.1016 352.016 99.9844 350.625 100.625C349.25 101.266 347.641 101.586 345.797 101.586C343.938 101.586 342.32 101.266 340.945 100.625C339.57 99.9844 338.422 99.1016 337.5 97.9766C336.594 96.8516 335.914 95.5078 335.461 93.9453C335.023 92.3828 334.805 90.6562 334.805 88.7656ZM339.352 92.5625C339.352 93.3906 339.523 94.1484 339.867 94.8359C340.227 95.5234 340.695 96.1094 341.273 96.5938C341.852 97.0625 342.531 97.4375 343.312 97.7188C344.094 97.9844 344.922 98.1172 345.797 98.1172C346.656 98.1172 347.477 97.9844 348.258 97.7188C349.039 97.4375 349.719 97.0625 350.297 96.5938C350.875 96.1094 351.336 95.5234 351.68 94.8359C352.039 94.1484 352.219 93.3906 352.219 92.5625V84.9688C352.219 84.1406 352.039 83.3828 351.68 82.6953C351.336 82.0078 350.875 81.4219 350.297 80.9375C349.719 80.4531 349.039 80.0781 348.258 79.8125C347.477 79.5312 346.656 79.3906 345.797 79.3906C344.938 79.3906 344.109 79.5312 343.312 79.8125C342.531 80.0781 341.852 80.4531 341.273 80.9375C340.695 81.4219 340.227 82.0078 339.867 82.6953C339.523 83.3828 339.352 84.1406 339.352 84.9688V92.5625ZM361.875 93.2656H366.211C366.273 94.8906 366.852 96.1094 367.945 96.9219C369.055 97.7188 370.359 98.1172 371.859 98.1172C373.297 98.1172 374.547 97.7969 375.609 97.1562C376.672 96.5156 377.203 95.5859 377.203 94.3672C377.203 93.3828 376.883 92.5938 376.242 92C375.602 91.4062 374.461 90.9531 372.82 90.6406L368.789 89.8203C366.773 89.3984 365.219 88.625 364.125 87.5C363.047 86.3594 362.508 84.8281 362.508 82.9062C362.508 81.9531 362.719 81.0547 363.141 80.2109C363.578 79.3516 364.195 78.6094 364.992 77.9844C365.805 77.3594 366.75 76.8672 367.828 76.5078C368.922 76.1328 370.141 75.9453 371.484 75.9453C372.641 75.9453 373.766 76.1016 374.859 76.4141C375.969 76.7109 376.953 77.1797 377.812 77.8203C378.688 78.4609 379.383 79.2812 379.898 80.2812C380.43 81.2656 380.711 82.4453 380.742 83.8203H376.43C376.367 82.1953 375.859 81.0547 374.906 80.3984C373.969 79.7266 372.844 79.3906 371.531 79.3906C370.188 79.3906 369.047 79.7109 368.109 80.3516C367.188 80.9922 366.727 81.8281 366.727 82.8594C366.727 83.8125 367 84.5547 367.547 85.0859C368.094 85.6172 368.977 86.0078 370.195 86.2578L374.32 87.125C376.758 87.6406 378.562 88.4766 379.734 89.6328C380.922 90.7734 381.516 92.3359 381.516 94.3203C381.516 95.3516 381.281 96.3125 380.812 97.2031C380.359 98.0781 379.695 98.8359 378.82 99.4766C377.961 100.102 376.938 100.609 375.75 101C374.562 101.391 373.25 101.586 371.812 101.586C370.438 101.586 369.148 101.406 367.945 101.047C366.758 100.703 365.711 100.188 364.805 99.5C363.914 98.7969 363.211 97.9297 362.695 96.8984C362.18 95.8516 361.906 94.6406 361.875 93.2656ZM387.797 72.875V68.3516H392.297V72.875H387.797ZM387.891 101V76.5312H392.203V101H387.891ZM397.828 80.2109V76.5312H401.953V68.3516H406.219V76.5312H411.844V80.2109H406.219V97.2969H411.844V101H401.953V80.2109H397.828ZM416.555 88.7656C416.555 86.9062 416.773 85.1875 417.211 83.6094C417.664 82.0156 418.344 80.6641 419.25 79.5547C420.172 78.4297 421.32 77.5469 422.695 76.9062C424.07 76.2656 425.688 75.9453 427.547 75.9453C429.406 75.9453 431.023 76.2656 432.398 76.9062C433.773 77.5469 434.914 78.4297 435.82 79.5547C436.727 80.6641 437.406 82.0156 437.859 83.6094C438.312 85.1875 438.539 86.9062 438.539 88.7656C438.539 90.6562 438.312 92.3828 437.859 93.9453C437.406 95.5078 436.727 96.8516 435.82 97.9766C434.914 99.1016 433.766 99.9844 432.375 100.625C431 101.266 429.391 101.586 427.547 101.586C425.688 101.586 424.07 101.266 422.695 100.625C421.32 99.9844 420.172 99.1016 419.25 97.9766C418.344 96.8516 417.664 95.5078 417.211 93.9453C416.773 92.3828 416.555 90.6562 416.555 88.7656ZM421.102 92.5625C421.102 93.3906 421.273 94.1484 421.617 94.8359C421.977 95.5234 422.445 96.1094 423.023 96.5938C423.602 97.0625 424.281 97.4375 425.062 97.7188C425.844 97.9844 426.672 98.1172 427.547 98.1172C428.406 98.1172 429.227 97.9844 430.008 97.7188C430.789 97.4375 431.469 97.0625 432.047 96.5938C432.625 96.1094 433.086 95.5234 433.43 94.8359C433.789 94.1484 433.969 93.3906 433.969 92.5625V84.9688C433.969 84.1406 433.789 83.3828 433.43 82.6953C433.086 82.0078 432.625 81.4219 432.047 80.9375C431.469 80.4531 430.789 80.0781 430.008 79.8125C429.227 79.5312 428.406 79.3906 427.547 79.3906C426.688 79.3906 425.859 79.5312 425.062 79.8125C424.281 80.0781 423.602 80.4531 423.023 80.9375C422.445 81.4219 421.977 82.0078 421.617 82.6953C421.273 83.3828 421.102 84.1406 421.102 84.9688V92.5625ZM445.219 101V76.5312H456.984V80.2578H449.531V101H445.219ZM459.82 76.5312H464.484L470.859 95.6797H471.07L477.633 76.5312H482.109L470.109 109.156H461.742V105.453H467.367L468.914 101L459.82 76.5312Z" fill="white"/>
<path d="M67.7727 136.273H69.1364C69.0739 134.517 67.4545 133.205 65.2045 133.205C62.9773 133.205 61.2273 134.5 61.2273 136.455C61.2273 138.023 62.3636 138.955 64.1818 139.477L65.6136 139.886C66.8409 140.227 67.9318 140.659 67.9318 141.818C67.9318 143.091 66.7045 143.932 65.0909 143.932C63.7045 143.932 62.4773 143.318 62.3636 142H60.9091C61.0455 143.909 62.5909 145.205 65.0909 145.205C67.7727 145.205 69.2955 143.727 69.2955 141.841C69.2955 139.659 67.2273 138.955 66.0227 138.636L64.8409 138.318C63.9773 138.091 62.5909 137.636 62.5909 136.386C62.5909 135.273 63.6136 134.455 65.1591 134.455C66.5682 134.455 67.6364 135.125 67.7727 136.273ZM75.2259 136.273H73.3622V134.182H72.0213V136.273H70.7031V137.409H72.0213V142.864C72.0213 144.386 73.2486 145.114 74.3849 145.114C74.8849 145.114 75.2031 145.023 75.3849 144.955L75.1122 143.75C74.9986 143.773 74.8168 143.818 74.5213 143.818C73.9304 143.818 73.3622 143.636 73.3622 142.5V137.409H75.2259V136.273ZM79.8111 145.205C81.3338 145.205 82.1293 144.386 82.402 143.818H82.4702V145H83.8111V139.25C83.8111 136.477 81.6974 136.159 80.5838 136.159C79.2656 136.159 77.7656 136.614 77.0838 138.205L78.3565 138.659C78.652 138.023 79.3509 137.341 80.6293 137.341C81.8622 137.341 82.4702 137.994 82.4702 139.114V139.159C82.4702 139.807 81.8111 139.75 80.2202 139.955C78.6009 140.165 76.8338 140.523 76.8338 142.523C76.8338 144.227 78.152 145.205 79.8111 145.205ZM80.0156 144C78.9474 144 78.1747 143.523 78.1747 142.591C78.1747 141.568 79.1065 141.25 80.152 141.114C80.7202 141.045 82.2429 140.886 82.4702 140.614V141.841C82.4702 142.932 81.6065 144 80.0156 144ZM86.2585 145H87.5994V139.477C87.5994 138.295 88.5312 137.432 89.804 137.432C90.1619 137.432 90.5312 137.5 90.6222 137.523V136.159C90.4688 136.148 90.1165 136.136 89.9176 136.136C88.8722 136.136 87.9631 136.727 87.6449 137.591H87.554V136.273H86.2585V145ZM96.554 136.273H94.6903V134.182H93.3494V136.273H92.0312V137.409H93.3494V142.864C93.3494 144.386 94.5767 145.114 95.7131 145.114C96.2131 145.114 96.5312 145.023 96.7131 144.955L96.4403 143.75C96.3267 143.773 96.1449 143.818 95.8494 143.818C95.2585 143.818 94.6903 143.636 94.6903 142.5V137.409H96.554V136.273ZM104.412 139.75C104.412 138.227 105.384 137.364 106.707 137.364C107.969 137.364 108.73 138.159 108.73 139.545V145H110.071V139.455C110.071 137.21 108.878 136.159 107.094 136.159C105.719 136.159 104.935 136.733 104.526 137.636H104.412V133.364H103.071V145H104.412V139.75ZM116.183 145.182C117.956 145.182 119.251 144.295 119.661 142.977L118.365 142.614C118.024 143.523 117.234 143.977 116.183 143.977C114.609 143.977 113.524 142.96 113.462 141.091H119.797V140.523C119.797 137.273 117.865 136.159 116.047 136.159C113.683 136.159 112.115 138.023 112.115 140.705C112.115 143.386 113.661 145.182 116.183 145.182ZM113.462 139.932C113.553 138.574 114.513 137.364 116.047 137.364C117.501 137.364 118.433 138.455 118.433 139.932H113.462ZM121.837 145H123.178V139.477C123.178 138.295 124.109 137.432 125.382 137.432C125.74 137.432 126.109 137.5 126.2 137.523V136.159C126.047 136.148 125.695 136.136 125.496 136.136C124.45 136.136 123.541 136.727 123.223 137.591H123.132V136.273H121.837V145ZM131.183 145.182C132.956 145.182 134.251 144.295 134.661 142.977L133.365 142.614C133.024 143.523 132.234 143.977 131.183 143.977C129.609 143.977 128.524 142.96 128.462 141.091H134.797V140.523C134.797 137.273 132.865 136.159 131.047 136.159C128.683 136.159 127.115 138.023 127.115 140.705C127.115 143.386 128.661 145.182 131.183 145.182ZM128.462 139.932C128.553 138.574 129.513 137.364 131.047 137.364C132.501 137.364 133.433 138.455 133.433 139.932H128.462ZM145.132 136.273H143.268V134.182H141.928V136.273H140.609V137.409H141.928V142.864C141.928 144.386 143.155 145.114 144.291 145.114C144.791 145.114 145.109 145.023 145.291 144.955L145.018 143.75C144.905 143.773 144.723 143.818 144.428 143.818C143.837 143.818 143.268 143.636 143.268 142.5V137.409H145.132V136.273ZM150.601 145.182C152.964 145.182 154.555 143.386 154.555 140.682C154.555 137.955 152.964 136.159 150.601 136.159C148.237 136.159 146.646 137.955 146.646 140.682C146.646 143.386 148.237 145.182 150.601 145.182ZM150.601 143.977C148.805 143.977 147.987 142.432 147.987 140.682C147.987 138.932 148.805 137.364 150.601 137.364C152.396 137.364 153.214 138.932 153.214 140.682C153.214 142.432 152.396 143.977 150.601 143.977ZM162.443 133.364H161.102V145H162.443V133.364ZM168.558 145.182C170.331 145.182 171.626 144.295 172.036 142.977L170.74 142.614C170.399 143.523 169.609 143.977 168.558 143.977C166.984 143.977 165.899 142.96 165.837 141.091H172.172V140.523C172.172 137.273 170.24 136.159 168.422 136.159C166.058 136.159 164.49 138.023 164.49 140.705C164.49 143.386 166.036 145.182 168.558 145.182ZM165.837 139.932C165.928 138.574 166.888 137.364 168.422 137.364C169.876 137.364 170.808 138.455 170.808 139.932H165.837ZM176.78 145.205C178.303 145.205 179.098 144.386 179.371 143.818H179.439V145H180.78V139.25C180.78 136.477 178.666 136.159 177.553 136.159C176.234 136.159 174.734 136.614 174.053 138.205L175.325 138.659C175.621 138.023 176.32 137.341 177.598 137.341C178.831 137.341 179.439 137.994 179.439 139.114V139.159C179.439 139.807 178.78 139.75 177.189 139.955C175.57 140.165 173.803 140.523 173.803 142.523C173.803 144.227 175.121 145.205 176.78 145.205ZM176.984 144C175.916 144 175.143 143.523 175.143 142.591C175.143 141.568 176.075 141.25 177.121 141.114C177.689 141.045 179.212 140.886 179.439 140.614V141.841C179.439 142.932 178.575 144 176.984 144ZM183.227 145H184.568V139.477C184.568 138.295 185.5 137.432 186.773 137.432C187.131 137.432 187.5 137.5 187.591 137.523V136.159C187.438 136.148 187.085 136.136 186.886 136.136C185.841 136.136 184.932 136.727 184.614 137.591H184.523V136.273H183.227V145ZM190.521 139.75C190.521 138.227 191.464 137.364 192.749 137.364C193.993 137.364 194.749 138.176 194.749 139.545V145H196.089V139.455C196.089 137.227 194.902 136.159 193.135 136.159C191.817 136.159 190.999 136.75 190.589 137.636H190.476V136.273H189.18V145H190.521V139.75ZM205.608 145.205C207.131 145.205 207.926 144.386 208.199 143.818H208.267V145H209.608V139.25C209.608 136.477 207.494 136.159 206.381 136.159C205.062 136.159 203.562 136.614 202.881 138.205L204.153 138.659C204.449 138.023 205.148 137.341 206.426 137.341C207.659 137.341 208.267 137.994 208.267 139.114V139.159C208.267 139.807 207.608 139.75 206.017 139.955C204.398 140.165 202.631 140.523 202.631 142.523C202.631 144.227 203.949 145.205 205.608 145.205ZM205.812 144C204.744 144 203.972 143.523 203.972 142.591C203.972 141.568 204.903 141.25 205.949 141.114C206.517 141.045 208.04 140.886 208.267 140.614V141.841C208.267 142.932 207.403 144 205.812 144ZM212.237 145H213.533V143.659H213.692C213.987 144.136 214.555 145.182 216.237 145.182C218.419 145.182 219.942 143.432 219.942 140.659C219.942 137.909 218.419 136.159 216.214 136.159C214.51 136.159 213.987 137.205 213.692 137.659H213.578V133.364H212.237V145ZM213.555 140.636C213.555 138.682 214.419 137.364 216.055 137.364C217.76 137.364 218.601 138.795 218.601 140.636C218.601 142.5 217.737 143.977 216.055 143.977C214.442 143.977 213.555 142.614 213.555 140.636ZM225.538 145.182C227.902 145.182 229.493 143.386 229.493 140.682C229.493 137.955 227.902 136.159 225.538 136.159C223.175 136.159 221.584 137.955 221.584 140.682C221.584 143.386 223.175 145.182 225.538 145.182ZM225.538 143.977C223.743 143.977 222.925 142.432 222.925 140.682C222.925 138.932 223.743 137.364 225.538 137.364C227.334 137.364 228.152 138.932 228.152 140.682C228.152 142.432 227.334 143.977 225.538 143.977ZM237.04 141.432C237.04 143.068 235.79 143.818 234.79 143.818C233.676 143.818 232.881 143 232.881 141.727V136.273H231.54V141.818C231.54 144.045 232.722 145.114 234.358 145.114C235.676 145.114 236.54 144.409 236.949 143.523H237.04V145H238.381V136.273H237.04V141.432ZM244.632 136.273H242.768V134.182H241.428V136.273H240.109V137.409H241.428V142.864C241.428 144.386 242.655 145.114 243.791 145.114C244.291 145.114 244.609 145.023 244.791 144.955L244.518 143.75C244.405 143.773 244.223 143.818 243.928 143.818C243.337 143.818 242.768 143.636 242.768 142.5V137.409H244.632V136.273ZM254.945 136.273H253.081V134.182H251.74V136.273H250.422V137.409H251.74V142.864C251.74 144.386 252.967 145.114 254.104 145.114C254.604 145.114 254.922 145.023 255.104 144.955L254.831 143.75C254.717 143.773 254.536 143.818 254.24 143.818C253.649 143.818 253.081 143.636 253.081 142.5V137.409H254.945V136.273ZM258.49 139.75C258.49 138.227 259.462 137.364 260.786 137.364C262.047 137.364 262.808 138.159 262.808 139.545V145H264.149V139.455C264.149 137.21 262.956 136.159 261.172 136.159C259.797 136.159 259.013 136.733 258.604 137.636H258.49V133.364H257.149V145H258.49V139.75ZM270.261 145.182C272.034 145.182 273.33 144.295 273.739 142.977L272.443 142.614C272.102 143.523 271.312 143.977 270.261 143.977C268.688 143.977 267.602 142.96 267.54 141.091H273.875V140.523C273.875 137.273 271.943 136.159 270.125 136.159C267.761 136.159 266.193 138.023 266.193 140.705C266.193 143.386 267.739 145.182 270.261 145.182ZM267.54 139.932C267.631 138.574 268.591 137.364 270.125 137.364C271.58 137.364 272.511 138.455 272.511 139.932H267.54ZM285.051 133.364V141.682C285.051 143.131 284.358 143.909 283.142 143.909C282.034 143.909 281.233 143.261 281.233 142.273H279.847C279.847 144.062 281.233 145.159 283.142 145.159C285.165 145.159 286.46 143.915 286.46 141.682V133.364H285.051ZM292.648 145.182C295.011 145.182 296.602 143.386 296.602 140.682C296.602 137.955 295.011 136.159 292.648 136.159C290.284 136.159 288.693 137.955 288.693 140.682C288.693 143.386 290.284 145.182 292.648 145.182ZM292.648 143.977C290.852 143.977 290.034 142.432 290.034 140.682C290.034 138.932 290.852 137.364 292.648 137.364C294.443 137.364 295.261 138.932 295.261 140.682C295.261 142.432 294.443 143.977 292.648 143.977ZM299.2 148.25C300.411 148.25 301.268 147.608 301.768 146.273L305.484 136.295L304.018 136.273L301.609 143.227H301.518L299.109 136.273H297.655L300.882 145.045L300.632 145.727C300.155 147.034 299.541 147.159 298.564 146.909L298.223 148.091C298.359 148.159 298.746 148.25 299.2 148.25ZM313.44 138.227C313.02 136.989 312.077 136.159 310.349 136.159C308.509 136.159 307.145 137.205 307.145 138.682C307.145 139.886 307.861 140.693 309.463 141.068L310.918 141.409C311.798 141.614 312.213 142.034 312.213 142.636C312.213 143.386 311.418 144 310.168 144C309.071 144 308.384 143.528 308.145 142.591L306.872 142.909C307.185 144.392 308.406 145.182 310.19 145.182C312.219 145.182 313.599 144.074 313.599 142.568C313.599 141.352 312.838 140.585 311.281 140.205L309.986 139.886C308.952 139.631 308.486 139.284 308.486 138.614C308.486 137.864 309.281 137.318 310.349 137.318C311.52 137.318 312.003 137.966 312.236 138.568L313.44 138.227ZM319.413 136.273H317.55V134.182H316.209V136.273H314.891V137.409H316.209V142.864C316.209 144.386 317.436 145.114 318.572 145.114C319.072 145.114 319.391 145.023 319.572 144.955L319.3 143.75C319.186 143.773 319.004 143.818 318.709 143.818C318.118 143.818 317.55 143.636 317.55 142.5V137.409H319.413V136.273ZM321.43 145H322.771V139.477C322.771 138.295 323.703 137.432 324.976 137.432C325.334 137.432 325.703 137.5 325.794 137.523V136.159C325.641 136.148 325.288 136.136 325.089 136.136C324.044 136.136 323.135 136.727 322.817 137.591H322.726V136.273H321.43V145ZM330.777 145.182C332.55 145.182 333.845 144.295 334.254 142.977L332.959 142.614C332.618 143.523 331.828 143.977 330.777 143.977C329.203 143.977 328.118 142.96 328.055 141.091H334.391V140.523C334.391 137.273 332.459 136.159 330.641 136.159C328.277 136.159 326.709 138.023 326.709 140.705C326.709 143.386 328.254 145.182 330.777 145.182ZM328.055 139.932C328.146 138.574 329.107 137.364 330.641 137.364C332.095 137.364 333.027 138.455 333.027 139.932H328.055ZM338.999 145.205C340.521 145.205 341.317 144.386 341.589 143.818H341.658V145H342.999V139.25C342.999 136.477 340.885 136.159 339.771 136.159C338.453 136.159 336.953 136.614 336.271 138.205L337.544 138.659C337.839 138.023 338.538 137.341 339.817 137.341C341.05 137.341 341.658 137.994 341.658 139.114V139.159C341.658 139.807 340.999 139.75 339.408 139.955C337.788 140.165 336.021 140.523 336.021 142.523C336.021 144.227 337.339 145.205 338.999 145.205ZM339.203 144C338.135 144 337.362 143.523 337.362 142.591C337.362 141.568 338.294 141.25 339.339 141.114C339.908 141.045 341.43 140.886 341.658 140.614V141.841C341.658 142.932 340.794 144 339.203 144ZM345.446 145H346.787V139.545C346.787 138.267 347.719 137.364 348.764 137.364C349.781 137.364 350.491 138.028 350.491 139.023V145H351.855V139.318C351.855 138.193 352.56 137.364 353.787 137.364C354.741 137.364 355.56 137.869 355.56 139.159V145H356.901V139.159C356.901 137.108 355.798 136.159 354.241 136.159C352.991 136.159 352.077 136.733 351.628 137.636H351.537C351.105 136.705 350.344 136.159 349.196 136.159C348.06 136.159 347.219 136.705 346.855 137.636H346.741V136.273H345.446V145ZM363.852 148.273H365.193V143.659H365.307C365.602 144.136 366.17 145.182 367.852 145.182C370.034 145.182 371.557 143.432 371.557 140.659C371.557 137.909 370.034 136.159 367.83 136.159C366.125 136.159 365.602 137.205 365.307 137.659H365.148V136.273H363.852V148.273ZM365.17 140.636C365.17 138.682 366.034 137.364 367.67 137.364C369.375 137.364 370.216 138.795 370.216 140.636C370.216 142.5 369.352 143.977 367.67 143.977C366.057 143.977 365.17 142.614 365.17 140.636ZM373.602 145H374.943V139.477C374.943 138.295 375.875 137.432 377.148 137.432C377.506 137.432 377.875 137.5 377.966 137.523V136.159C377.812 136.148 377.46 136.136 377.261 136.136C376.216 136.136 375.307 136.727 374.989 137.591H374.898V136.273H373.602V145ZM382.835 145.182C385.199 145.182 386.79 143.386 386.79 140.682C386.79 137.955 385.199 136.159 382.835 136.159C380.472 136.159 378.881 137.955 378.881 140.682C378.881 143.386 380.472 145.182 382.835 145.182ZM382.835 143.977C381.04 143.977 380.222 142.432 380.222 140.682C380.222 138.932 381.04 137.364 382.835 137.364C384.631 137.364 385.449 138.932 385.449 140.682C385.449 142.432 384.631 143.977 382.835 143.977ZM388.837 136.273V145.636C388.837 146.523 388.473 147.023 387.655 147.023H387.405V148.273H387.678C389.359 148.273 390.178 147.25 390.178 145.636V136.273H388.837ZM389.496 134.818C390.018 134.818 390.45 134.409 390.45 133.909C390.45 133.409 390.018 133 389.496 133C388.973 133 388.541 133.409 388.541 133.909C388.541 134.409 388.973 134.818 389.496 134.818ZM396.293 145.182C398.065 145.182 399.361 144.295 399.77 142.977L398.474 142.614C398.134 143.523 397.344 143.977 396.293 143.977C394.719 143.977 393.634 142.96 393.571 141.091H399.906V140.523C399.906 137.273 397.974 136.159 396.156 136.159C393.793 136.159 392.224 138.023 392.224 140.705C392.224 143.386 393.77 145.182 396.293 145.182ZM393.571 139.932C393.662 138.574 394.622 137.364 396.156 137.364C397.611 137.364 398.543 138.455 398.543 139.932H393.571ZM405.491 145.182C407.423 145.182 408.696 144 408.923 142.455H407.582C407.332 143.409 406.537 143.977 405.491 143.977C403.901 143.977 402.878 142.659 402.878 140.636C402.878 138.659 403.923 137.364 405.491 137.364C406.673 137.364 407.378 138.091 407.582 138.886H408.923C408.696 137.25 407.31 136.159 405.469 136.159C403.105 136.159 401.537 138.023 401.537 140.682C401.537 143.295 403.037 145.182 405.491 145.182ZM414.679 136.273H412.815V134.182H411.474V136.273H410.156V137.409H411.474V142.864C411.474 144.386 412.702 145.114 413.838 145.114C414.338 145.114 414.656 145.023 414.838 144.955L414.565 143.75C414.452 143.773 414.27 143.818 413.974 143.818C413.384 143.818 412.815 143.636 412.815 142.5V137.409H414.679V136.273ZM424.741 145.182C427.105 145.182 428.696 143.386 428.696 140.682C428.696 137.955 427.105 136.159 424.741 136.159C422.378 136.159 420.787 137.955 420.787 140.682C420.787 143.386 422.378 145.182 424.741 145.182ZM424.741 143.977C422.946 143.977 422.128 142.432 422.128 140.682C422.128 138.932 422.946 137.364 424.741 137.364C426.537 137.364 427.355 138.932 427.355 140.682C427.355 142.432 426.537 143.977 424.741 143.977ZM432.084 139.75C432.084 138.227 433.027 137.364 434.311 137.364C435.555 137.364 436.311 138.176 436.311 139.545V145H437.652V139.455C437.652 137.227 436.464 136.159 434.697 136.159C433.379 136.159 432.561 136.75 432.152 137.636H432.038V136.273H430.743V145H432.084V139.75ZM452.739 137H454.193C453.761 134.75 451.875 133.205 449.42 133.205C446.438 133.205 444.33 135.5 444.33 139.182C444.33 142.864 446.42 145.159 449.511 145.159C452.284 145.159 454.261 143.312 454.261 140.432V139.182H449.83V140.432H452.898C452.858 142.523 451.483 143.841 449.511 143.841C447.352 143.841 445.693 142.205 445.693 139.182C445.693 136.159 447.352 134.523 449.42 134.523C451.102 134.523 452.244 135.472 452.739 137ZM457.04 145H458.381V136.273H457.04V145ZM457.722 134.818C458.244 134.818 458.676 134.409 458.676 133.909C458.676 133.409 458.244 133 457.722 133C457.199 133 456.767 133.409 456.767 133.909C456.767 134.409 457.199 134.818 457.722 134.818ZM464.632 136.273H462.768V134.182H461.428V136.273H460.109V137.409H461.428V142.864C461.428 144.386 462.655 145.114 463.791 145.114C464.291 145.114 464.609 145.023 464.791 144.955L464.518 143.75C464.405 143.773 464.223 143.818 463.928 143.818C463.337 143.818 462.768 143.636 462.768 142.5V137.409H464.632V136.273ZM468.178 139.75C468.178 138.227 469.149 137.364 470.473 137.364C471.734 137.364 472.496 138.159 472.496 139.545V145H473.837V139.455C473.837 137.21 472.643 136.159 470.859 136.159C469.484 136.159 468.7 136.733 468.291 137.636H468.178V133.364H466.837V145H468.178V139.75ZM481.79 141.432C481.79 143.068 480.54 143.818 479.54 143.818C478.426 143.818 477.631 143 477.631 141.727V136.273H476.29V141.818C476.29 144.045 477.472 145.114 479.108 145.114C480.426 145.114 481.29 144.409 481.699 143.523H481.79V145H483.131V136.273H481.79V141.432ZM485.768 145H487.064V143.659H487.223C487.518 144.136 488.087 145.182 489.768 145.182C491.95 145.182 493.473 143.432 493.473 140.659C493.473 137.909 491.95 136.159 489.746 136.159C488.041 136.159 487.518 137.205 487.223 137.659H487.109V133.364H485.768V145ZM487.087 140.636C487.087 138.682 487.95 137.364 489.587 137.364C491.291 137.364 492.132 138.795 492.132 140.636C492.132 142.5 491.268 143.977 489.587 143.977C487.973 143.977 487.087 142.614 487.087 140.636Z" fill="#C4C3C6"/>
<rect x="620" y="105" width="52.5" height="52.5" fill="#1F242C"/>
<path d="M625.837 157.5H620V163.337H625.837V157.5Z" fill="#1F242C"/>
<path d="M631.673 163.337H625.837V169.174H631.673V163.337Z" fill="#1F242C"/>
<path d="M637.494 157.5H631.658V163.337H637.494V157.5Z" fill="#1F242C"/>
<path d="M625.837 169.158H620V174.995H625.837V169.158Z" fill="#1F242C"/>
<path d="M637.494 169.158H631.658V174.995H637.494V169.158Z" fill="#1F242C"/>
<path d="M643.332 163.337H637.495V169.174H643.332V163.337Z" fill="#1F242C"/>
<path d="M631.673 174.995H625.837V180.832H631.673V174.995Z" fill="#1F242C"/>
<path d="M625.837 180.832H620V186.669H625.837V180.832Z" fill="#1F242C"/>
<path d="M637.494 180.832H631.658V186.669H637.494V180.832Z" fill="#1F242C"/>
<path d="M643.332 174.995H637.495V180.832H643.332V174.995Z" fill="#1F242C"/>
<path d="M631.673 186.668H625.837V192.505H631.673V186.668Z" fill="#1F242C"/>
<path d="M625.837 192.489H620V198.326H625.837V192.489Z" fill="#1F242C"/>
<path d="M637.494 192.489H631.658V198.326H637.494V192.489Z" fill="#1F242C"/>
<path d="M643.332 186.668H637.495V192.505H643.332V186.668Z" fill="#1F242C"/>
<path d="M631.673 198.326H625.837V204.163H631.673V198.326Z" fill="#1F242C"/>
<path d="M625.837 204.164H620V210.001H625.837V204.164Z" fill="#1F242C"/>
<path d="M637.494 204.164H631.658V210.001H637.494V204.164Z" fill="#1F242C"/>
<path d="M643.332 198.326H637.495V204.163H643.332V198.326Z" fill="#1F242C"/>
<path d="M649.168 157.5H643.331V163.337H649.168V157.5Z" fill="#1F242C"/>
<path d="M655.006 163.337H649.169V169.174H655.006V163.337Z" fill="#1F242C"/>
<path d="M660.826 157.5H654.99V163.337H660.826V157.5Z" fill="#1F242C"/>
<path d="M649.168 169.158H643.331V174.995H649.168V169.158Z" fill="#1F242C"/>
<path d="M660.826 169.158H654.99V174.995H660.826V169.158Z" fill="#1F242C"/>
<path d="M666.663 163.337H660.826V169.174H666.663V163.337Z" fill="#1F242C"/>
<path d="M655.006 174.995H649.169V180.832H655.006V174.995Z" fill="#1F242C"/>
<path d="M649.168 180.832H643.331V186.669H649.168V180.832Z" fill="#1F242C"/>
<path d="M660.826 180.832H654.99V186.669H660.826V180.832Z" fill="#1F242C"/>
<path d="M666.663 174.995H660.826V180.832H666.663V174.995Z" fill="#1F242C"/>
<path d="M655.006 186.668H649.169V192.505H655.006V186.668Z" fill="#1F242C"/>
<path d="M649.168 192.489H643.331V198.326H649.168V192.489Z" fill="#1F242C"/>
<path d="M660.826 192.489H654.99V198.326H660.826V192.489Z" fill="#1F242C"/>
<path d="M666.663 186.668H660.826V192.505H666.663V186.668Z" fill="#1F242C"/>
<path d="M655.006 198.326H649.169V204.163H655.006V198.326Z" fill="#1F242C"/>
<path d="M649.168 204.164H643.331V210.001H649.168V204.164Z" fill="#1F242C"/>
<path d="M660.826 204.164H654.99V210.001H660.826V204.164Z" fill="#1F242C"/>
<path d="M672.5 157.5H666.663V163.337H672.5V157.5Z" fill="#1F242C"/>
<path d="M672.5 169.158H666.663V174.995H672.5V169.158Z" fill="#1F242C"/>
<path d="M672.5 180.832H666.663V186.669H672.5V180.832Z" fill="#1F242C"/>
<path d="M672.5 192.489H666.663V198.326H672.5V192.489Z" fill="#1F242C"/>
<path d="M672.5 204.164H666.663V210.001H672.5V204.164Z" fill="#1F242C"/>
<path d="M666.663 198.326H660.826V204.163H666.663V198.326Z" fill="#1F242C"/>
<rect x="631.667" y="52.4995" width="5.83333" height="52.5" fill="#1F242C"/>
<rect x="643.333" y="52.4995" width="5.83333" height="52.5" fill="#1F242C"/>
<rect x="655" y="52.4995" width="5.83333" height="52.5" fill="#1F242C"/>
<rect x="666.667" y="52.4995" width="5.83333" height="52.5" fill="#1F242C"/>
<rect x="620" y="52.4995" width="5.83668" height="52.5" fill="#1F242C"/>
<rect x="555.833" y="157.5" width="5.83333" height="52.5" transform="rotate(-180 555.833 157.5)" fill="#1F242C"/>
<rect x="544.167" y="157.5" width="5.83333" height="52.5" transform="rotate(-180 544.167 157.5)" fill="#1F242C"/>
<rect x="532.5" y="157.5" width="5.83333" height="52.5" transform="rotate(-180 532.5 157.5)" fill="#1F242C"/>
<rect x="520.833" y="157.5" width="5.83333" height="52.5" transform="rotate(-180 520.833 157.5)" fill="#1F242C"/>
<rect x="567.5" y="157.5" width="5.83668" height="52.5" transform="rotate(-180 567.5 157.5)" fill="#1F242C"/>
<rect x="870.505" y="53.4849" width="5.83333" height="52.5" transform="rotate(-180 870.505 53.4849)" fill="#1F242C"/>
<rect x="858.838" y="53.4844" width="5.83333" height="52.5" transform="rotate(-180 858.838 53.4844)" fill="#1F242C"/>
<rect x="847.172" y="53.4844" width="5.83333" height="52.5" transform="rotate(-180 847.172 53.4844)" fill="#1F242C"/>
<rect x="835.505" y="53.4844" width="5.83333" height="52.5" transform="rotate(-180 835.505 53.4844)" fill="#1F242C"/>
<rect x="882.172" y="53.4849" width="5.83668" height="52.5" transform="rotate(-180 882.172 53.4849)" fill="#1F242C"/>
<path fill-rule="evenodd" clip-rule="evenodd" d="M567.5 163.333V157.5C596.495 157.5 620 181.005 620 210H614.167C614.167 184.227 593.273 163.333 567.5 163.333ZM567.5 175V169.166C590.052 169.166 608.333 187.448 608.333 210H602.5C602.5 190.67 586.83 175 567.5 175ZM567.5 180.834V186.667C580.387 186.667 590.833 197.114 590.833 210L596.667 210C596.667 193.892 583.608 180.834 567.5 180.834ZM567.5 198.333V192.5C577.165 192.5 585 200.335 585 210H579.167C579.167 203.557 573.943 198.333 567.5 198.333ZM567.5 210V204.166C570.722 204.166 573.333 206.778 573.333 210H567.5Z" fill="#1F242C"/>
<path fill-rule="evenodd" clip-rule="evenodd" d="M777 110.833V105C805.995 105 829.5 128.505 829.5 157.5L823.667 157.5C823.667 131.727 802.773 110.833 777 110.833ZM777 122.5V116.667C799.552 116.667 817.833 134.949 817.833 157.5H812C812 138.17 796.33 122.5 777 122.5ZM777 128.333V134.167C789.887 134.167 800.333 144.613 800.333 157.5L806.167 157.5C806.167 141.392 793.108 128.333 777 128.333ZM777 145.833V140C786.665 140 794.5 147.835 794.5 157.5H788.667C788.667 151.056 783.443 145.833 777 145.833ZM777 157.5V151.667C780.222 151.667 782.833 154.279 782.833 157.5H777Z" fill="#1F242C"/>
<path d="M729.112 52.5H725V48.3875L773.387 0H777.5V4.1125L729.112 52.5ZM765.133 0H756.879L725 31.8791V40.1333L765.133 0ZM748.625 0H740.371L725 15.3708V23.625L748.625 0ZM725 0V7.11666L732.116 0H725ZM777.5 20.6208V12.3667L737.366 52.5H745.621L777.5 20.6208ZM777.5 37.1291V28.875L753.875 52.5H762.129L777.5 37.1291ZM777.5 45.3833L770.383 52.5H777.5V45.3833Z" fill="#1F242C"/>
<path d="M672.5 105L725 105L725 52.5C696.005 52.5 672.5 76.0051 672.5 105Z" fill="#1F242C"/>
<path d="M777.5 157.5L777.5 105L725 105C725 133.995 748.505 157.5 777.5 157.5Z" fill="#1F242C"/>
<path fill-rule="evenodd" clip-rule="evenodd" d="M734.164 216.079C734.569 212.991 734.884 210.293 735.282 208.127C740.806 211.763 752.61 216.643 754.829 217.258C767.578 220.715 775.457 209.705 779.296 195.299C783.135 180.893 779.118 166.727 766.369 163.27C756.521 160.586 695.038 139.721 668.836 132.748C660.913 130.611 649.489 146.755 645.56 161.55C644.765 164.548 647.425 172.141 653.061 181.961L734.164 216.079Z" fill="black"/>
<path fill-rule="evenodd" clip-rule="evenodd" d="M668.546 179.788C680.965 186.453 700.572 194.879 727.247 205.143C729.512 196.224 732.406 187.244 735.472 181.076C739.288 173.439 745.187 168.335 753.267 165.787L670.139 140.438C664.937 142.521 660.372 146.291 656.031 157.091C654.329 160.906 660.684 175.613 668.546 179.788Z" fill="#D3D8E0"/>
<path fill-rule="evenodd" clip-rule="evenodd" d="M729.985 179.502C739.722 172 747.256 167.376 752.705 165.555L669.599 140.109C664.81 142.184 660.402 147.94 656.256 157.451C698.918 177.153 723.501 184.471 729.985 179.502Z" fill="white"/>
<path fill-rule="evenodd" clip-rule="evenodd" d="M752.031 174.452C749.917 175.606 742.294 177.952 739.565 187.995C738.2 193.017 737.578 200.16 737.397 204.942C748.655 210.414 757.176 214.845 758.631 213.436C755.003 211.367 752.62 208.354 751.721 204.246C750.934 200.986 750.38 194.495 752.547 188.221C755.238 180.119 760.703 179.123 761.999 178.396L752.031 174.452Z" fill="white"/>
<path fill-rule="evenodd" clip-rule="evenodd" d="M737.322 204.822C748.602 210.197 757.124 214.628 758.556 213.316C754.928 211.247 752.545 208.234 751.623 204.224C751.204 202.485 750.492 198.01 746.902 194C744.526 191.399 741.858 190.064 738.95 190.214C737.968 194.914 737.443 200.745 737.322 204.822Z" fill="#C4C3C6"/>
<path fill-rule="evenodd" clip-rule="evenodd" d="M763.76 183.215C761.002 184.939 759.113 187.787 758.138 191.564C757.936 192.441 757.711 193.416 757.531 194.195L766.135 197.824C766.322 197.456 767.035 195.26 767.342 193.484C767.582 192 767.62 188.725 766.533 186.318C765.552 184.347 763.955 183.26 763.76 183.215Z" fill="#D3D8E0"/>
<path fill-rule="evenodd" clip-rule="evenodd" d="M663.251 136.487L658.955 147.092C661.136 148.314 662.8 149.109 663.969 149.379C666.308 149.919 668.444 151.336 667.5 150.091C667.028 149.469 664.779 147.205 663.325 145.946C662.905 145.541 662.561 145.256 662.216 144.972C664.929 146.111 667.882 147.101 671.345 148.105C680.392 150.707 680.017 150.108 672.739 146.067C671.293 145.22 669.337 144.358 667.013 143.308C668.032 143.338 668.954 143.346 670.094 143.301C672.275 143.189 675.88 142.687 676.555 142.432C678.001 141.945 674.569 141.255 671.113 139.328C669.42 138.219 666.856 137.319 663.251 136.487Z" fill="black"/>
<path fill-rule="evenodd" clip-rule="evenodd" d="M709.99 232.77C710.395 229.682 710.711 226.983 711.108 224.817C716.632 228.453 728.436 233.334 730.655 233.948C743.404 237.405 751.283 226.395 755.122 211.989C758.961 197.584 754.944 183.417 742.195 179.961C732.347 177.277 670.865 156.411 644.662 149.438C636.739 147.301 625.315 163.445 621.386 178.24C620.591 181.239 623.251 188.832 628.887 198.651L709.99 232.77Z" fill="black"/>
<path fill-rule="evenodd" clip-rule="evenodd" d="M644.372 196.479C656.791 203.143 676.398 211.57 703.073 221.833C705.338 212.914 708.232 203.935 711.298 197.767C715.114 190.129 721.013 185.025 729.093 182.478L645.965 157.128C640.763 159.212 636.198 162.981 631.857 173.782C630.155 177.597 636.51 192.303 644.372 196.479Z" fill="#D3D8E0"/>
<path fill-rule="evenodd" clip-rule="evenodd" d="M705.811 196.193C715.549 188.691 723.082 184.067 728.531 182.246L645.425 156.799C640.636 158.875 636.228 164.631 632.082 174.142C674.744 193.844 699.328 201.161 705.811 196.193Z" fill="white"/>
<path fill-rule="evenodd" clip-rule="evenodd" d="M727.857 191.143C725.743 192.297 718.12 194.642 715.391 204.686C714.026 209.707 713.404 216.85 713.223 221.632C724.481 227.105 733.002 231.535 734.457 230.126C730.829 228.057 728.446 225.044 727.547 220.937C726.76 217.676 726.206 211.185 728.373 204.912C731.064 196.809 736.529 195.813 737.825 195.086L727.857 191.143Z" fill="white"/>
<path fill-rule="evenodd" clip-rule="evenodd" d="M713.148 221.513C724.428 226.888 732.95 231.318 734.382 230.007C730.754 227.938 728.371 224.924 727.449 220.914C727.03 219.175 726.318 214.701 722.728 210.69C720.353 208.089 717.684 206.755 714.776 206.904C713.794 211.604 713.269 217.435 713.148 221.513Z" fill="#D3D8E0"/>
<path fill-rule="evenodd" clip-rule="evenodd" d="M739.586 199.906C736.828 201.629 734.939 204.477 733.964 208.255C733.762 209.132 733.537 210.106 733.357 210.886L741.961 214.514C742.148 214.147 742.861 211.951 743.168 210.174C743.408 208.69 743.446 205.415 742.359 203.009C741.378 201.037 739.781 199.951 739.586 199.906Z" fill="#D3D8E0"/>
<path fill-rule="evenodd" clip-rule="evenodd" d="M639.1 153.081L634.804 163.686C636.985 164.908 638.649 165.703 639.818 165.973C642.157 166.513 644.293 167.929 643.348 166.685C642.876 166.063 640.628 163.799 639.174 162.54C638.754 162.135 638.409 161.85 638.065 161.565C640.778 162.705 643.731 163.694 647.194 164.699C656.24 167.301 655.865 166.701 648.588 162.661C647.141 161.813 645.185 160.951 642.862 159.902C643.881 159.932 644.803 159.939 645.942 159.895C648.123 159.782 651.729 159.281 652.403 159.026C653.85 158.539 650.417 157.849 646.962 155.922C645.246 154.91 642.682 154.01 639.1 153.081Z" fill="black"/>
<path fill-rule="evenodd" clip-rule="evenodd" d="M642.433 250.22C642.838 247.132 643.154 244.434 643.551 242.268C649.075 245.903 660.879 250.784 663.098 251.399C675.847 254.855 683.726 243.845 687.565 229.44C691.404 215.034 687.388 200.868 674.638 197.411C664.79 194.727 603.308 173.861 577.105 166.888C569.182 164.751 557.758 180.895 553.829 195.691C553.034 198.689 555.694 206.282 561.33 216.101L642.433 250.22Z" fill="black"/>
<path fill-rule="evenodd" clip-rule="evenodd" d="M576.793 214.026C589.212 220.691 608.819 229.118 635.494 239.381C637.758 230.462 640.652 221.483 643.718 215.314C647.534 207.677 653.434 202.573 661.514 200.026L578.386 174.676C573.184 176.759 568.619 180.529 564.278 191.329C562.576 195.144 568.931 209.851 576.793 214.026Z" fill="#D3D8E0"/>
<path fill-rule="evenodd" clip-rule="evenodd" d="M638.232 213.739C647.969 206.238 655.502 201.614 660.952 199.793L577.846 174.346C573.056 176.422 568.648 182.178 564.503 191.689C607.164 211.39 631.748 218.708 638.232 213.739Z" fill="white"/>
<path fill-rule="evenodd" clip-rule="evenodd" d="M660.3 208.593C658.186 209.747 650.563 212.092 647.834 222.136C646.469 227.158 645.847 234.3 645.666 239.082C656.924 244.555 665.446 248.986 666.9 247.577C663.272 245.508 660.889 242.494 659.99 238.387C659.203 235.126 658.649 228.635 660.816 222.362C663.507 214.26 668.972 213.263 670.268 212.536L660.3 208.593Z" fill="white"/>
<path fill-rule="evenodd" clip-rule="evenodd" d="M645.569 239.061C656.849 244.436 665.371 248.866 666.802 247.555C663.175 245.486 660.792 242.472 659.87 238.462C659.45 236.723 658.739 232.249 655.149 228.238C652.773 225.637 650.105 224.303 647.197 224.452C646.214 229.152 645.689 234.983 645.569 239.061Z" fill="#D3D8E0"/>
<path fill-rule="evenodd" clip-rule="evenodd" d="M672.029 217.356C669.271 219.079 667.382 221.927 666.407 225.705C666.205 226.582 665.98 227.556 665.8 228.336L674.404 231.964C674.591 231.597 675.304 229.401 675.611 227.625C675.851 226.141 675.889 222.865 674.802 220.459C673.798 218.585 672.224 217.401 672.029 217.356Z" fill="#D3D8E0"/>
<path fill-rule="evenodd" clip-rule="evenodd" d="M571.618 170.65L567.322 181.255C569.503 182.477 571.167 183.272 572.336 183.542C574.675 184.082 576.811 185.499 575.866 184.254C575.394 183.632 573.146 181.368 571.692 180.109C571.272 179.704 570.927 179.419 570.583 179.135C573.296 180.274 576.249 181.264 579.712 182.269C588.758 184.87 588.383 184.271 581.106 180.23C579.659 179.383 577.703 178.521 575.38 177.471C576.399 177.501 577.321 177.509 578.46 177.464C580.641 177.352 584.247 176.85 584.921 176.595C586.368 176.108 582.935 175.418 579.48 173.491C577.666 172.457 575.103 171.557 571.618 170.65Z" fill="black"/>
<path fill-rule="evenodd" clip-rule="evenodd" d="M661.58 207.738C661.986 204.65 662.301 201.952 662.698 199.786C668.222 203.422 680.026 208.302 682.245 208.917C694.994 212.374 702.873 201.364 706.712 186.958C710.551 172.553 706.535 158.386 693.785 154.929C684.012 152.365 622.432 131.477 596.349 124.429C588.427 122.292 577.002 138.436 573.073 153.232C572.279 156.23 574.939 163.823 580.574 173.642L661.58 207.738Z" fill="black"/>
<path fill-rule="evenodd" clip-rule="evenodd" d="M595.962 171.448C608.382 178.112 627.988 186.539 654.663 196.803C656.928 187.883 659.822 178.904 662.888 172.736C666.704 165.099 672.603 159.995 680.683 157.447L597.555 132.098C592.353 134.181 587.788 137.951 583.447 148.751C581.843 152.588 588.1 167.272 595.962 171.448Z" fill="#D3D8E0"/>
<path fill-rule="evenodd" clip-rule="evenodd" d="M657.402 171.161C667.139 163.659 674.672 159.035 680.121 157.215L597.113 131.79C592.323 133.866 587.915 139.622 583.77 149.133C626.334 168.812 650.918 176.13 657.402 171.161Z" fill="white"/>
<path fill-rule="evenodd" clip-rule="evenodd" d="M679.447 166.111C677.333 167.266 669.71 169.611 666.981 179.654C665.616 184.676 664.994 191.819 664.813 196.601C676.071 202.074 684.593 206.504 686.047 205.095C682.419 203.026 680.036 200.013 679.137 195.905C678.35 192.645 677.796 186.154 679.963 179.88C682.655 171.778 688.119 170.782 689.416 170.055L679.447 166.111Z" fill="white"/>
<path fill-rule="evenodd" clip-rule="evenodd" d="M664.738 196.481C676.018 201.857 684.54 206.287 685.972 204.976C682.344 202.907 679.961 199.893 679.04 195.883C678.62 194.144 677.908 189.669 674.318 185.659C671.943 183.058 669.274 181.724 666.366 181.873C665.384 186.573 664.859 192.404 664.738 196.481Z" fill="#D3D8E0"/>
<path fill-rule="evenodd" clip-rule="evenodd" d="M691.274 174.897C688.515 176.62 686.626 179.468 685.652 183.246C685.449 184.123 685.224 185.097 685.044 185.877L693.649 189.505C693.836 189.138 694.548 186.942 694.856 185.166C695.096 183.682 695.133 180.406 694.047 178C692.968 176.006 691.469 174.942 691.274 174.897Z" fill="#D3D8E0"/>
<path fill-rule="evenodd" clip-rule="evenodd" d="M590.787 128.072L586.491 138.677C588.672 139.899 590.336 140.694 591.506 140.964C593.844 141.504 595.98 142.921 595.036 141.676C594.564 141.054 592.315 138.79 590.861 137.531C590.442 137.126 590.097 136.841 589.752 136.557C592.465 137.696 595.418 138.686 598.881 139.69C607.928 142.292 607.553 141.692 600.275 137.652C598.829 136.805 596.873 135.943 594.549 134.893C595.569 134.923 596.491 134.931 597.63 134.886C599.811 134.774 603.416 134.272 604.091 134.017C605.538 133.53 602.105 132.84 598.65 130.913C596.933 129.901 594.273 128.979 590.787 128.072Z" fill="black"/>
<path fill-rule="evenodd" clip-rule="evenodd" d="M696.654 172.731C697.059 169.643 697.375 166.944 697.772 164.778C703.296 168.414 715.1 173.295 717.319 173.909C730.068 177.366 737.947 166.356 741.786 151.95C745.625 137.545 741.608 123.378 728.859 119.922C719.011 117.237 657.529 96.3722 631.326 89.3991C623.403 87.2622 611.979 103.406 608.05 118.201C607.255 121.199 609.915 128.792 615.551 138.612L696.654 172.731Z" fill="black"/>
<path fill-rule="evenodd" clip-rule="evenodd" d="M631.036 136.44C643.455 143.104 663.062 151.531 689.737 161.794C692.002 152.875 694.896 143.896 697.962 137.727C701.778 130.09 707.677 124.986 715.757 122.439L632.629 97.0892C627.427 99.1725 622.862 102.942 618.521 113.743C616.819 117.557 623.174 132.264 631.036 136.44Z" fill="#D3D8E0"/>
<path fill-rule="evenodd" clip-rule="evenodd" d="M692.378 136.131C702.115 128.629 709.648 124.005 715.098 122.184L632.089 96.7595C627.3 98.8352 622.892 104.591 618.746 114.102C661.408 133.804 685.894 141.099 692.378 136.131Z" fill="white"/>
<path fill-rule="evenodd" clip-rule="evenodd" d="M714.521 131.104C712.407 132.258 704.784 134.603 702.055 144.647C700.69 149.668 700.068 156.811 699.887 161.593C711.145 167.066 719.666 171.496 721.121 170.087C717.493 168.018 715.11 165.005 714.211 160.897C713.424 157.637 712.87 151.146 715.037 144.873C717.728 136.77 723.193 135.774 724.489 135.047L714.521 131.104Z" fill="white"/>
<path fill-rule="evenodd" clip-rule="evenodd" d="M699.812 161.474C711.092 166.849 719.614 171.279 721.046 169.968C717.418 167.899 715.035 164.885 714.113 160.875C713.694 159.136 712.982 154.662 709.392 150.651C707.017 148.05 704.348 146.716 701.44 146.865C700.458 151.565 699.933 157.396 699.812 161.474Z" fill="#D3D8E0"/>
<path fill-rule="evenodd" clip-rule="evenodd" d="M726.25 139.866C723.492 141.59 721.603 144.438 720.628 148.216C720.426 149.093 720.201 150.067 720.021 150.847L728.625 154.475C728.812 154.108 729.525 151.912 729.832 150.135C730.072 148.651 730.11 145.376 729.023 142.97C728.042 140.998 726.445 139.911 726.25 139.866Z" fill="#D3D8E0"/>
<path fill-rule="evenodd" clip-rule="evenodd" d="M625.764 93.0411L621.468 103.647C623.649 104.869 625.313 105.663 626.482 105.933C628.821 106.473 630.957 107.89 630.012 106.646C629.54 106.023 627.292 103.76 625.838 102.5C625.418 102.095 625.073 101.811 624.729 101.526C627.442 102.665 630.395 103.655 633.858 104.66C642.904 107.261 642.529 106.662 635.252 102.621C633.805 101.774 631.849 100.912 629.526 99.8622C630.545 99.8923 631.467 99.8999 632.606 99.855C634.787 99.7428 638.393 99.241 639.067 98.9862C640.514 98.4991 637.081 97.8092 633.626 95.8826C631.91 94.8706 629.249 93.9484 625.764 93.0411Z" fill="black"/>
</g>
<defs>
<clipPath id="clip0">
<rect width="882" height="300" fill="white"/>
</clipPath>
</defs>
</svg>
