<svg xmlns="http://www.w3.org/2000/svg" xmlns:xlink="http://www.w3.org/1999/xlink" viewBox="0 0 838.31 557.14"><defs><style>.cls-1,.cls-2,.cls-4,.cls-6,.cls-7{fill:none;}.cls-2,.cls-3,.cls-4,.cls-5,.cls-6,.cls-7{stroke:#4038ff;}.cls-2,.cls-7{stroke-linecap:square;}.cls-2,.cls-3,.cls-4,.cls-5,.cls-7{stroke-miterlimit:10;}.cls-2{stroke-width:2px;}.cls-3,.cls-4,.cls-5,.cls-6,.cls-7{stroke-width:12px;}.cls-3{fill:url(#lines);}.cls-5{fill:url(#lines-3);}.cls-6{stroke-linejoin:round;}</style><pattern id="lines" data-name="lines" width="16" height="16" patternTransform="translate(220 12)" patternUnits="userSpaceOnUse" viewBox="0 0 16 16"><rect class="cls-1" width="16" height="16"/><line class="cls-2" x1="1.98" y1="78.02" x2="67.98" y2="12.02"/><line class="cls-2" x1="-14.02" y1="78.02" x2="51.98" y2="12.02"/><line class="cls-2" x1="-30.02" y1="78.02" x2="35.98" y2="12.02"/><line class="cls-2" x1="-46.02" y1="78.02" x2="19.98" y2="12.02"/><line class="cls-2" x1="-62.02" y1="78.02" x2="3.98" y2="12.02"/><line class="cls-2" x1="1.98" y1="62.02" x2="67.98" y2="-3.98"/><line class="cls-2" x1="-14.02" y1="62.02" x2="51.98" y2="-3.98"/><line class="cls-2" x1="-30.02" y1="62.02" x2="35.98" y2="-3.98"/><line class="cls-2" x1="-46.02" y1="62.02" x2="19.98" y2="-3.98"/><line class="cls-2" x1="-62.02" y1="62.02" x2="3.98" y2="-3.98"/><line class="cls-2" x1="1.98" y1="46.02" x2="67.98" y2="-19.98"/><line class="cls-2" x1="-14.02" y1="46.02" x2="51.98" y2="-19.98"/><line class="cls-2" x1="-30.02" y1="46.02" x2="35.98" y2="-19.98"/><line class="cls-2" x1="-46.02" y1="46.02" x2="19.98" y2="-19.98"/><line class="cls-2" x1="-62.02" y1="46.02" x2="3.98" y2="-19.98"/><line class="cls-2" x1="1.98" y1="30.02" x2="67.98" y2="-35.98"/><line class="cls-2" x1="-14.02" y1="30.02" x2="51.98" y2="-35.98"/><line class="cls-2" x1="-30.02" y1="30.02" x2="35.98" y2="-35.98"/><line class="cls-2" x1="-46.02" y1="30.02" x2="19.98" y2="-35.98"/><line class="cls-2" x1="-62.02" y1="30.02" x2="3.98" y2="-35.98"/><line class="cls-2" x1="1.98" y1="14.02" x2="67.98" y2="-51.98"/><line class="cls-2" x1="-14.02" y1="14.02" x2="51.98" y2="-51.98"/><line class="cls-2" x1="-30.02" y1="14.02" x2="35.98" y2="-51.98"/><line class="cls-2" x1="-46.02" y1="14.02" x2="19.98" y2="-51.98"/><line class="cls-2" x1="-62.02" y1="14.02" x2="3.98" y2="-51.98"/></pattern><pattern id="lines-3" data-name="lines" width="16" height="16" patternTransform="translate(224)" patternUnits="userSpaceOnUse" viewBox="0 0 16 16"><rect class="cls-1" width="16" height="16"/><line class="cls-2" x1="1.98" y1="78.02" x2="67.98" y2="12.02"/><line class="cls-2" x1="-14.02" y1="78.02" x2="51.98" y2="12.02"/><line class="cls-2" x1="-30.02" y1="78.02" x2="35.98" y2="12.02"/><line class="cls-2" x1="-46.02" y1="78.02" x2="19.98" y2="12.02"/><line class="cls-2" x1="-62.02" y1="78.02" x2="3.98" y2="12.02"/><line class="cls-2" x1="1.98" y1="62.02" x2="67.98" y2="-3.98"/><line class="cls-2" x1="-14.02" y1="62.02" x2="51.98" y2="-3.98"/><line class="cls-2" x1="-30.02" y1="62.02" x2="35.98" y2="-3.98"/><line class="cls-2" x1="-46.02" y1="62.02" x2="19.98" y2="-3.98"/><line class="cls-2" x1="-62.02" y1="62.02" x2="3.98" y2="-3.98"/><line class="cls-2" x1="1.98" y1="46.02" x2="67.98" y2="-19.98"/><line class="cls-2" x1="-14.02" y1="46.02" x2="51.98" y2="-19.98"/><line class="cls-2" x1="-30.02" y1="46.02" x2="35.98" y2="-19.98"/><line class="cls-2" x1="-46.02" y1="46.02" x2="19.98" y2="-19.98"/><line class="cls-2" x1="-62.02" y1="46.02" x2="3.98" y2="-19.98"/><line class="cls-2" x1="1.98" y1="30.02" x2="67.98" y2="-35.98"/><line class="cls-2" x1="-14.02" y1="30.02" x2="51.98" y2="-35.98"/><line class="cls-2" x1="-30.02" y1="30.02" x2="35.98" y2="-35.98"/><line class="cls-2" x1="-46.02" y1="30.02" x2="19.98" y2="-35.98"/><line class="cls-2" x1="-62.02" y1="30.02" x2="3.98" y2="-35.98"/><line class="cls-2" x1="1.98" y1="14.02" x2="67.98" y2="-51.98"/><line class="cls-2" x1="-14.02" y1="14.02" x2="51.98" y2="-51.98"/><line class="cls-2" x1="-30.02" y1="14.02" x2="35.98" y2="-51.98"/><line class="cls-2" x1="-46.02" y1="14.02" x2="19.98" y2="-51.98"/><line class="cls-2" x1="-62.02" y1="14.02" x2="3.98" y2="-51.98"/></pattern></defs><title>Break (2)</title><g id="Layer_2" data-name="Layer 2"><g id="Break"><path class="cls-3" d="M405.69,518.31v6.2c0,4.36-4.67,7.9-10.43,7.9H249.35c-5.76,0-10.43-3.54-10.43-7.9v-6.2H6.16c0,34.91,37.33,32.81,83.38,32.81H555.07c46,0,83.38,2.1,83.38-32.81Z"/><path class="cls-4" d="M594.36,330.83V47.69A41.7,41.7,0,0,0,552.66,6H84.14A41.69,41.69,0,0,0,42.45,47.69V330.83Z"/><path class="cls-5" d="M75.77,46v255.6H561V46ZM285.94,223.7h0A14.73,14.73,0,0,1,271.21,209V145.66a14.74,14.74,0,0,1,14.73-14.73h0a14.74,14.74,0,0,1,14.73,14.73V209A14.73,14.73,0,0,1,285.94,223.7Zm57.43,0h0A14.72,14.72,0,0,1,328.64,209V145.66a14.73,14.73,0,0,1,14.73-14.73h0a14.73,14.73,0,0,1,14.72,14.73V209A14.72,14.72,0,0,1,343.37,223.7Z"/><polyline class="cls-6" points="233.34 518.31 6 518.31 42 331.31 594 331.31 638 518.31 409.69 518.31"/><path class="cls-4" d="M239,526.51V513.37c.6-3.41,5-6.06,10.35-6.06H395.26c5.76,0,10.43,3.07,10.43,6.86v5.39l.31,7"/><path class="cls-4" d="M122.53,387.59H86.24c-6.68,0-11.53-2.57-10.83-5.71l2.48-11.25c.68-3.06,6.53-5.53,13.07-5.53H126.5c6.55,0,11.44,2.47,10.93,5.53l-1.86,11.25C135.05,385,129.21,387.59,122.53,387.59Z"/><path class="cls-4" d="M207.19,387.59H170.91c-6.68,0-11.73-2.57-11.28-5.71l1.62-11.25c.44-3.06,6.09-5.53,12.64-5.53h35.54c6.54,0,11.62,2.47,11.35,5.53l-1,11.25C219.51,385,213.87,387.59,207.19,387.59Z"/><path class="cls-4" d="M291.85,387.59H255.57c-6.68,0-11.93-2.57-11.72-5.71l.75-11.25c.2-3.06,5.67-5.53,12.21-5.53h35.54c6.54,0,11.82,2.47,11.78,5.53L304,381.88C304,385,298.53,387.59,291.85,387.59Z"/><path class="cls-4" d="M376.52,387.59H340.23c-6.68,0-12.12-2.57-12.16-5.71L328,370.63c0-3.06,5.24-5.53,11.78-5.53h35.54c6.55,0,12,2.47,12.22,5.53l.74,11.25C388.44,385,383.19,387.59,376.52,387.59Z"/><path class="cls-4" d="M461.18,387.59H424.89c-6.68,0-12.32-2.57-12.6-5.71l-1-11.25c-.27-3.06,4.82-5.53,11.36-5.53H458.2c6.54,0,12.2,2.47,12.64,5.53l1.61,11.25C472.9,385,467.86,387.59,461.18,387.59Z"/><path class="cls-4" d="M545.84,387.59H509.56c-6.68,0-12.52-2.57-13-5.71l-1.87-11.25c-.51-3.06,4.39-5.53,10.93-5.53h35.54c6.54,0,12.39,2.47,13.07,5.53l2.48,11.25C557.37,385,552.52,387.59,545.84,387.59Z"/><path class="cls-4" d="M115.15,429.3H77.49c-6.94,0-11.95-2.77-11.2-6.16L69,411c.73-3.3,6.82-6,13.61-6h36.86c6.79,0,11.85,2.66,11.3,6l-2,12.1C128.17,426.53,122.09,429.3,115.15,429.3Z"/><path class="cls-4" d="M203,429.3H165.37c-6.93,0-12.15-2.77-11.67-6.16l1.74-12.1c.48-3.3,6.36-6,13.15-6h36.86c6.79,0,12.05,2.66,11.76,6l-1.07,12.1C215.84,426.53,210,429.3,203,429.3Z"/><path class="cls-4" d="M290.93,429.3H253.26c-6.93,0-12.37-2.77-12.14-6.16l.8-12.1c.22-3.3,5.9-6,12.68-6h36.87c6.78,0,12.25,2.66,12.22,6l-.14,12.1C303.52,426.53,297.86,429.3,290.93,429.3Z"/><path class="cls-4" d="M378.82,429.3H341.15c-6.93,0-12.58-2.77-12.62-6.16L328.4,411c0-3.3,5.43-6,12.22-6h36.86c6.79,0,12.47,2.66,12.68,6l.81,12.1C391.19,426.53,385.75,429.3,378.82,429.3Z"/><path class="cls-4" d="M554.6,429.3H429c-6.93,0-12.8-2.77-13.1-6.16L414.87,411c-.29-3.3,5-6,11.76-6H549.51c6.79,0,12.88,2.66,13.61,6l2.67,12.1C566.54,426.53,561.53,429.3,554.6,429.3Z"/><path class="cls-4" d="M107.19,474.31H68c-7.21,0-12.39-3-11.58-6.65l2.89-13.07c.79-3.56,7.13-6.43,14.18-6.43h38.3c7.05,0,12.29,2.87,11.7,6.43l-2.17,13.07C120.74,471.32,114.4,474.31,107.19,474.31Z"/><path class="cls-4" d="M472.68,474.31H159.41c-7.21,0-12.63-3-12.1-6.65l1.88-13.07c.51-3.56,6.63-6.43,13.68-6.43H469.21c7.05,0,13.18,2.87,13.69,6.43l1.88,13.07C485.3,471.32,479.89,474.31,472.68,474.31Z"/><path class="cls-4" d="M564.05,474.31H524.89c-7.21,0-13.55-3-14.15-6.65l-2.17-13.07c-.59-3.56,4.65-6.43,11.7-6.43h38.29c7.05,0,13.4,2.87,14.18,6.43l2.89,13.07C576.44,471.32,571.26,474.31,564.05,474.31Z"/><ellipse class="cls-5" cx="751.97" cy="349" rx="70.36" ry="18.57"/><path class="cls-4" d="M819.75,395.22,822.33,349c0,10.26-31.5,18.57-70.36,18.57s-70.35-8.31-70.35-18.57l5,120.46A16.54,16.54,0,0,0,691.28,481c3.33,6.82,29.1,12.12,60.41,12.12s57.09-5.3,60.41-12.12a16.51,16.51,0,0,0,4.68-11.53l.27-10.83"/><path class="cls-7" d="M733.73,298.48c-2.41-25.61,14.54-21.88,15.71-38.87.85-12.48-7.44-17.42-7-30.43"/><path class="cls-7" d="M775.78,270.49c2.37,25.19-14.3,21.52-15.45,38.24-.84,12.28,7.31,17.13,6.84,29.93"/><path class="cls-7" d="M800.69,387.69c-4.35-.18-8.07,4.51-8.32,10.48s3.06,11,7.4,11.15c5.53.24,10.32,9.05,10,16.78s-5.11,14-11.37,15.87c-4.34-.18-8.07,4.51-8.32,10.48s3.06,11,7.41,11.15c18.33.78,33.9-15.59,34.79-36.55S819,388.47,800.69,387.69Z"/></g></g></svg>