<svg xmlns="http://www.w3.org/2000/svg" xmlns:xlink="http://www.w3.org/1999/xlink" viewBox="0 0 622.49 457.41"><defs><style>.cls-1,.cls-2,.cls-4,.cls-5,.cls-6,.cls-7{fill:none;}.cls-2,.cls-4,.cls-5,.cls-6,.cls-7{stroke:#4038ff;}.cls-2,.cls-5,.cls-7{stroke-linecap:square;}.cls-2,.cls-4,.cls-6,.cls-7{stroke-miterlimit:10;}.cls-2{stroke-width:2px;}.cls-3,.cls-8{fill:url(#lines);}.cls-4,.cls-5,.cls-6,.cls-7{stroke-width:12px;}.cls-6,.cls-8{fill-rule:evenodd;}</style><pattern id="lines" data-name="lines" width="16" height="16" patternUnits="userSpaceOnUse" viewBox="0 0 16 16"><rect class="cls-1" width="16" height="16"/><line class="cls-2" x1="1.98" y1="78.02" x2="67.98" y2="12.02"/><line class="cls-2" x1="-14.02" y1="78.02" x2="51.98" y2="12.02"/><line class="cls-2" x1="-30.02" y1="78.02" x2="35.98" y2="12.02"/><line class="cls-2" x1="-46.02" y1="78.02" x2="19.98" y2="12.02"/><line class="cls-2" x1="-62.02" y1="78.02" x2="3.98" y2="12.02"/><line class="cls-2" x1="1.98" y1="62.02" x2="67.98" y2="-3.98"/><line class="cls-2" x1="-14.02" y1="62.02" x2="51.98" y2="-3.98"/><line class="cls-2" x1="-30.02" y1="62.02" x2="35.98" y2="-3.98"/><line class="cls-2" x1="-46.02" y1="62.02" x2="19.98" y2="-3.98"/><line class="cls-2" x1="-62.02" y1="62.02" x2="3.98" y2="-3.98"/><line class="cls-2" x1="1.98" y1="46.02" x2="67.98" y2="-19.98"/><line class="cls-2" x1="-14.02" y1="46.02" x2="51.98" y2="-19.98"/><line class="cls-2" x1="-30.02" y1="46.02" x2="35.98" y2="-19.98"/><line class="cls-2" x1="-46.02" y1="46.02" x2="19.98" y2="-19.98"/><line class="cls-2" x1="-62.02" y1="46.02" x2="3.98" y2="-19.98"/><line class="cls-2" x1="1.98" y1="30.02" x2="67.98" y2="-35.98"/><line class="cls-2" x1="-14.02" y1="30.02" x2="51.98" y2="-35.98"/><line class="cls-2" x1="-30.02" y1="30.02" x2="35.98" y2="-35.98"/><line class="cls-2" x1="-46.02" y1="30.02" x2="19.98" y2="-35.98"/><line class="cls-2" x1="-62.02" y1="30.02" x2="3.98" y2="-35.98"/><line class="cls-2" x1="1.98" y1="14.02" x2="67.98" y2="-51.98"/><line class="cls-2" x1="-14.02" y1="14.02" x2="51.98" y2="-51.98"/><line class="cls-2" x1="-30.02" y1="14.02" x2="35.98" y2="-51.98"/><line class="cls-2" x1="-46.02" y1="14.02" x2="19.98" y2="-51.98"/><line class="cls-2" x1="-62.02" y1="14.02" x2="3.98" y2="-51.98"/></pattern></defs><title>Communication-moderator</title><g id="Layer_2" data-name="Layer 2"><g id="Communication-moderator"><path class="cls-3" d="M324.84,217.51l8.55-1.85,90.39-2.08q17.94,1.18,22.81-12.81V199l-31.84-55.71c-9.42-16.49-10.34-36.73-1.65-53.61a49.52,49.52,0,0,1,19.56-20.56,31.3,31.3,0,0,1,13.24-4.25C441.87,33.19,420.26,9,394.19,9H188.55c-28.94,0-52.39,29.81-52.39,66.58v30.85H264a52.4,52.4,0,0,1,52.39,52.39v57.69Z"/><path class="cls-4" d="M316.43,214.56V158.82A52.4,52.4,0,0,0,264,106.43H58.39A52.4,52.4,0,0,0,6,158.82V366.5L88.67,326H295"/><line class="cls-5" x1="65.55" y1="167.95" x2="260.27" y2="167.95"/><line class="cls-5" x1="147.38" y1="220.41" x2="260.27" y2="220.41"/><line class="cls-5" x1="65.55" y1="220.41" x2="100.83" y2="220.41"/><line class="cls-5" x1="147.38" y1="270.6" x2="213.71" y2="270.6"/><line class="cls-5" x1="65.55" y1="270.6" x2="100.83" y2="270.6"/><path class="cls-4" d="M316.43,222.83v-64A52.4,52.4,0,0,0,264,106.43"/><path class="cls-4" d="M446.59,58.39A52.4,52.4,0,0,0,394.19,6H188.55a52.39,52.39,0,0,0-52.39,52.39v48H264a52.4,52.4,0,0,1,52.39,52.39v56.69"/><path id="Path-8" class="cls-4" d="M333.39,215.66l90.39-2.08q18.64,1.23,23.18-13.93l-32.21-56.37c-9.42-16.49-10.34-36.73-1.65-53.61a49.52,49.52,0,0,1,19.56-20.56c10.36-6,19.58-4.71,29.4-2.74l16.75,45.09L549.24,202q14.35,28.11,7.78,63.17T530.4,320.85q18.48,30.78,13.58,70a64.73,64.73,0,0,1-16.72,36.26A74.31,74.31,0,0,1,472.83,451l-124.19.31"/><path id="Rectangle-Copy-21" class="cls-6" d="M390,215.66a29.74,29.74,0,0,1,0,59.48H326.81a29.74,29.74,0,0,1,0-59.48Z"/><path id="Rectangle-Copy-23" class="cls-6" d="M398.78,334.57a29.28,29.28,0,0,1,0,58.55H319.72a29.28,29.28,0,0,1,0-58.55Z"/><path id="Rectangle-Copy-22" class="cls-6" d="M401.85,274.85a29.69,29.69,0,0,1,0,59.37H316.66a29.69,29.69,0,0,1,0-59.37Z"/><path id="Rectangle-Copy-24" class="cls-6" d="M394.85,392.9a29.26,29.26,0,0,1,0,58.51H337.61a29.26,29.26,0,0,1,0-58.51Z"/><path id="Line-2" class="cls-4" d="M528.1,421.85l93.9,7.78"/><path id="Line-2-Copy-3" class="cls-4" d="M559.1,230l60.54-.29"/><path id="Line-2-Copy-3-2" data-name="Line-2-Copy-3" class="cls-4" d="M533,318.92l48.39-.19"/><path class="cls-7" d="M547,297.05c-6.88,17-27.6,28.95-54.89,27.83"/><path class="cls-8" d="M435,334.37a29.74,29.74,0,0,0-5.46-58.48,29.81,29.81,0,0,0-13.34-56.23h-11.5a29.85,29.85,0,0,1-10.61,55.19h7.79a29.69,29.69,0,0,1,0,59.37H381.38c.18,0,.35.11.54.15l-.47.2h17.33a29.28,29.28,0,0,1,0,58.55h-.46a29.35,29.35,0,0,1,9.27,55.29H410a29.3,29.3,0,0,0,8.25-57.29H425a29.34,29.34,0,0,0,10-56.75Z"/></g></g></svg>