<svg xmlns="http://www.w3.org/2000/svg" xmlns:xlink="http://www.w3.org/1999/xlink" viewBox="0 0 549.58 578.01"><defs><style>.cls-1,.cls-2,.cls-4,.cls-5{fill:none;}.cls-2,.cls-3,.cls-4,.cls-5{stroke:#4038ff;stroke-miterlimit:10;}.cls-2,.cls-3,.cls-4{stroke-linecap:square;}.cls-2{stroke-width:2px;}.cls-3,.cls-4,.cls-5{stroke-width:12px;}.cls-3{fill:url(#lines);}</style><pattern id="lines" data-name="lines" width="16" height="16" patternTransform="translate(0 672)" patternUnits="userSpaceOnUse" viewBox="0 0 16 16"><rect class="cls-1" width="16" height="16"/><line class="cls-2" x1="1.98" y1="78.02" x2="67.98" y2="12.02"/><line class="cls-2" x1="-14.02" y1="78.02" x2="51.98" y2="12.02"/><line class="cls-2" x1="-30.02" y1="78.02" x2="35.98" y2="12.02"/><line class="cls-2" x1="-46.02" y1="78.02" x2="19.98" y2="12.02"/><line class="cls-2" x1="-62.02" y1="78.02" x2="3.98" y2="12.02"/><line class="cls-2" x1="1.98" y1="62.02" x2="67.98" y2="-3.98"/><line class="cls-2" x1="-14.02" y1="62.02" x2="51.98" y2="-3.98"/><line class="cls-2" x1="-30.02" y1="62.02" x2="35.98" y2="-3.98"/><line class="cls-2" x1="-46.02" y1="62.02" x2="19.98" y2="-3.98"/><line class="cls-2" x1="-62.02" y1="62.02" x2="3.98" y2="-3.98"/><line class="cls-2" x1="1.98" y1="46.02" x2="67.98" y2="-19.98"/><line class="cls-2" x1="-14.02" y1="46.02" x2="51.98" y2="-19.98"/><line class="cls-2" x1="-30.02" y1="46.02" x2="35.98" y2="-19.98"/><line class="cls-2" x1="-46.02" y1="46.02" x2="19.98" y2="-19.98"/><line class="cls-2" x1="-62.02" y1="46.02" x2="3.98" y2="-19.98"/><line class="cls-2" x1="1.98" y1="30.02" x2="67.98" y2="-35.98"/><line class="cls-2" x1="-14.02" y1="30.02" x2="51.98" y2="-35.98"/><line class="cls-2" x1="-30.02" y1="30.02" x2="35.98" y2="-35.98"/><line class="cls-2" x1="-46.02" y1="30.02" x2="19.98" y2="-35.98"/><line class="cls-2" x1="-62.02" y1="30.02" x2="3.98" y2="-35.98"/><line class="cls-2" x1="1.98" y1="14.02" x2="67.98" y2="-51.98"/><line class="cls-2" x1="-14.02" y1="14.02" x2="51.98" y2="-51.98"/><line class="cls-2" x1="-30.02" y1="14.02" x2="35.98" y2="-51.98"/><line class="cls-2" x1="-46.02" y1="14.02" x2="19.98" y2="-51.98"/><line class="cls-2" x1="-62.02" y1="14.02" x2="3.98" y2="-51.98"/></pattern></defs><title>Council-members</title><g id="Layer_2" data-name="Layer 2"><g id="Council-members"><path class="cls-3" d="M322,531l0-94.76a39.21,39.21,0,1,0-78.42,0L243.3,531"/><path class="cls-3" d="M438.66,531l0-94.76a39.21,39.21,0,0,0-78.42,0L359.94,531"/><path class="cls-3" d="M155.42,399.4v75.05L130.17,482l-3.44,56h78.65l0-101.76a39.22,39.22,0,0,0-50-37.71C155.41,398.8,155.42,399.1,155.42,399.4Z"/><path class="cls-4" d="M116.16,365h365a25.07,25.07,0,0,0,25-25h0a25.07,25.07,0,0,0-25-25H137.87"/><polygon class="cls-3" points="376.38 43 445.38 42.79 425.81 82.03 445.38 118.65 339.16 118.65 328.16 92.49 389.38 92 376.38 43"/><polyline class="cls-5" points="285.38 16.46 366.92 16.46 388.92 92.32 285.38 92.32"/><line class="cls-4" x1="284.98" y1="6" x2="284.98" y2="162.95"/><polyline class="cls-4" points="121.66 365 481.66 365 481.66 538 127.66 538"/><path class="cls-4" d="M141.24,315H475.32c-22.18-85.7-94.69-149-192.66-149A199,199,0,0,0,104.17,276.92"/><path class="cls-4" d="M428.39,309.91C411.94,251.29,358.17,208,285.53,208"/><polyline class="cls-4" points="60.16 572 507.16 572 507.16 538 130.17 538"/><path class="cls-4" d="M92.29,369.1h0a45,45,0,0,1-45-45h0a45,45,0,0,1,45-45h0a45,45,0,0,1,45,45h0A45,45,0,0,1,92.29,369.1Z"/><path class="cls-4" d="M123.85,572H60.72L54.41,482l-25.25-7.5V399.4c0-16.58,11.3-30,25.25-30h75.76c13.94,0,25.25,13.44,25.25,30v75.05L130.17,482Z"/><line class="cls-4" x1="6" y1="571.94" x2="543.58" y2="571.94"/><path class="cls-5" d="M124.28,401.83l-28.2.22v23.18l14.21,10,14-10.21Z"/></g></g></svg>