<svg xmlns="http://www.w3.org/2000/svg" xmlns:xlink="http://www.w3.org/1999/xlink" viewBox="0 0 794.35 647.91"><defs><style>.cls-1,.cls-2,.cls-3,.cls-4,.cls-5{fill:none;}.cls-2,.cls-3,.cls-4,.cls-5,.cls-6,.cls-7{stroke:#4038ff;}.cls-2{stroke-linecap:square;stroke-width:2px;}.cls-2,.cls-4,.cls-5,.cls-6,.cls-7{stroke-miterlimit:10;}.cls-3{stroke-linejoin:round;}.cls-3,.cls-4,.cls-5,.cls-6,.cls-7{stroke-width:12px;}.cls-5{fill-rule:evenodd;}.cls-6{fill:url(#lines);}.cls-7{fill:url(#lines-3);}</style><pattern id="lines" data-name="lines" width="16" height="16" patternTransform="translate(564)" patternUnits="userSpaceOnUse" viewBox="0 0 16 16"><rect class="cls-1" width="16" height="16"/><line class="cls-2" x1="1.98" y1="78.02" x2="67.98" y2="12.02"/><line class="cls-2" x1="-14.02" y1="78.02" x2="51.98" y2="12.02"/><line class="cls-2" x1="-30.02" y1="78.02" x2="35.98" y2="12.02"/><line class="cls-2" x1="-46.02" y1="78.02" x2="19.98" y2="12.02"/><line class="cls-2" x1="-62.02" y1="78.02" x2="3.98" y2="12.02"/><line class="cls-2" x1="1.98" y1="62.02" x2="67.98" y2="-3.98"/><line class="cls-2" x1="-14.02" y1="62.02" x2="51.98" y2="-3.98"/><line class="cls-2" x1="-30.02" y1="62.02" x2="35.98" y2="-3.98"/><line class="cls-2" x1="-46.02" y1="62.02" x2="19.98" y2="-3.98"/><line class="cls-2" x1="-62.02" y1="62.02" x2="3.98" y2="-3.98"/><line class="cls-2" x1="1.98" y1="46.02" x2="67.98" y2="-19.98"/><line class="cls-2" x1="-14.02" y1="46.02" x2="51.98" y2="-19.98"/><line class="cls-2" x1="-30.02" y1="46.02" x2="35.98" y2="-19.98"/><line class="cls-2" x1="-46.02" y1="46.02" x2="19.98" y2="-19.98"/><line class="cls-2" x1="-62.02" y1="46.02" x2="3.98" y2="-19.98"/><line class="cls-2" x1="1.98" y1="30.02" x2="67.98" y2="-35.98"/><line class="cls-2" x1="-14.02" y1="30.02" x2="51.98" y2="-35.98"/><line class="cls-2" x1="-30.02" y1="30.02" x2="35.98" y2="-35.98"/><line class="cls-2" x1="-46.02" y1="30.02" x2="19.98" y2="-35.98"/><line class="cls-2" x1="-62.02" y1="30.02" x2="3.98" y2="-35.98"/><line class="cls-2" x1="1.98" y1="14.02" x2="67.98" y2="-51.98"/><line class="cls-2" x1="-14.02" y1="14.02" x2="51.98" y2="-51.98"/><line class="cls-2" x1="-30.02" y1="14.02" x2="35.98" y2="-51.98"/><line class="cls-2" x1="-46.02" y1="14.02" x2="19.98" y2="-51.98"/><line class="cls-2" x1="-62.02" y1="14.02" x2="3.98" y2="-51.98"/></pattern><pattern id="lines-3" data-name="lines" width="16" height="16" patternTransform="translate(560 12)" patternUnits="userSpaceOnUse" viewBox="0 0 16 16"><rect class="cls-1" width="16" height="16"/><line class="cls-2" x1="1.98" y1="78.02" x2="67.98" y2="12.02"/><line class="cls-2" x1="-14.02" y1="78.02" x2="51.98" y2="12.02"/><line class="cls-2" x1="-30.02" y1="78.02" x2="35.98" y2="12.02"/><line class="cls-2" x1="-46.02" y1="78.02" x2="19.98" y2="12.02"/><line class="cls-2" x1="-62.02" y1="78.02" x2="3.98" y2="12.02"/><line class="cls-2" x1="1.98" y1="62.02" x2="67.98" y2="-3.98"/><line class="cls-2" x1="-14.02" y1="62.02" x2="51.98" y2="-3.98"/><line class="cls-2" x1="-30.02" y1="62.02" x2="35.98" y2="-3.98"/><line class="cls-2" x1="-46.02" y1="62.02" x2="19.98" y2="-3.98"/><line class="cls-2" x1="-62.02" y1="62.02" x2="3.98" y2="-3.98"/><line class="cls-2" x1="1.98" y1="46.02" x2="67.98" y2="-19.98"/><line class="cls-2" x1="-14.02" y1="46.02" x2="51.98" y2="-19.98"/><line class="cls-2" x1="-30.02" y1="46.02" x2="35.98" y2="-19.98"/><line class="cls-2" x1="-46.02" y1="46.02" x2="19.98" y2="-19.98"/><line class="cls-2" x1="-62.02" y1="46.02" x2="3.98" y2="-19.98"/><line class="cls-2" x1="1.98" y1="30.02" x2="67.98" y2="-35.98"/><line class="cls-2" x1="-14.02" y1="30.02" x2="51.98" y2="-35.98"/><line class="cls-2" x1="-30.02" y1="30.02" x2="35.98" y2="-35.98"/><line class="cls-2" x1="-46.02" y1="30.02" x2="19.98" y2="-35.98"/><line class="cls-2" x1="-62.02" y1="30.02" x2="3.98" y2="-35.98"/><line class="cls-2" x1="1.98" y1="14.02" x2="67.98" y2="-51.98"/><line class="cls-2" x1="-14.02" y1="14.02" x2="51.98" y2="-51.98"/><line class="cls-2" x1="-30.02" y1="14.02" x2="35.98" y2="-51.98"/><line class="cls-2" x1="-46.02" y1="14.02" x2="19.98" y2="-51.98"/><line class="cls-2" x1="-62.02" y1="14.02" x2="3.98" y2="-51.98"/></pattern></defs><title>Live-Coding</title><g id="Layer_2" data-name="Layer 2"><g id="Live-Coding"><polyline class="cls-3" points="626.68 404.1 655.2 518.31 426.89 518.31"/><polyline class="cls-3" points="41.2 404.31 59.2 331.31 545.2 331.31"/><path class="cls-4" d="M256.2,526.51V513.37c.6-3.41,5-6.06,10.35-6.06H412.46c5.76,0,10.42,3.07,10.42,6.86v5.39l.32,7"/><path class="cls-4" d="M224.39,387.59H188.1c-6.68,0-11.72-2.57-11.27-5.71l1.62-11.25c.44-3.06,6.09-5.53,12.64-5.53h35.53c6.55,0,11.63,2.47,11.36,5.53l-1,11.25C236.71,385,231.07,387.59,224.39,387.59Z"/><path class="cls-4" d="M309.05,387.59H272.77c-6.68,0-11.93-2.57-11.72-5.71l.75-11.25c.2-3.06,5.67-5.53,12.21-5.53h35.54c6.54,0,11.82,2.47,11.78,5.53l-.12,11.25C321.17,385,315.73,387.59,309.05,387.59Z"/><path class="cls-4" d="M393.71,387.59H357.43c-6.68,0-12.12-2.57-12.16-5.71l-.12-11.25c0-3.06,5.24-5.53,11.78-5.53h35.54c6.54,0,12,2.47,12.21,5.53l.75,11.25C405.64,385,400.39,387.59,393.71,387.59Z"/><path class="cls-4" d="M478.38,387.59H442.09c-6.68,0-12.32-2.57-12.6-5.71l-1-11.25c-.27-3.06,4.81-5.53,11.36-5.53H475.4c6.54,0,12.2,2.47,12.64,5.53l1.61,11.25C490.1,385,485.06,387.59,478.38,387.59Z"/><path class="cls-4" d="M220.24,429.3H182.57c-6.93,0-12.16-2.77-11.67-6.16l1.74-12.1c.47-3.3,6.36-6,13.14-6h36.87c6.79,0,12,2.66,11.76,6l-1.07,12.1C233,426.53,227.17,429.3,220.24,429.3Z"/><path class="cls-4" d="M308.13,429.3H270.46c-6.93,0-12.37-2.77-12.14-6.16l.8-12.1c.22-3.3,5.89-6,12.68-6h36.86c6.79,0,12.26,2.66,12.23,6l-.14,12.1C320.72,426.53,315.06,429.3,308.13,429.3Z"/><path class="cls-4" d="M396,429.3H358.35c-6.93,0-12.58-2.77-12.62-6.16l-.14-12.1c0-3.3,5.44-6,12.23-6h36.86c6.79,0,12.47,2.66,12.68,6l.81,12.1C408.39,426.53,403,429.3,396,429.3Z"/><path class="cls-4" d="M489.88,474.31H176.6c-7.2,0-12.62-3-12.09-6.65l1.87-13.07c.52-3.56,6.64-6.43,13.69-6.43H486.41c7,0,13.18,2.87,13.69,6.43L502,467.66C502.5,471.32,497.09,474.31,489.88,474.31Z"/><path id="Path-8" class="cls-4" d="M162.2,469.31c-1.66,26.29-8,47.25-2.54,49.58a5.53,5.53,0,0,0,4,0l17.94-5.31a33.53,33.53,0,0,1,32.53,3.64,31.16,31.16,0,0,1,10.84,14c2.49,6.25.25,7.84-1.41,13.13a3.26,3.26,0,0,1-2.37,2.23l-26.45,6a3.13,3.13,0,0,0-.72.27l-37.12,19.74c-10.68,5.12-29.73,5.92-37,5.51"/><path id="Path-8-2" data-name="Path-8" class="cls-4" d="M35.45,576.67C12.64,563.51,7.39,533.43,9,520.55c3-23.52,9.25-65,12.23-88.57"/><path id="Rectangle-Copy-21" class="cls-5" d="M126.1,464.28l5.12-39.34a18.07,18.07,0,0,1,20.48-15.67,18.66,18.66,0,0,1,15.74,20.87l-5.22,42.6"/><path id="Rectangle-Copy-23" class="cls-5" d="M53.55,459.44l6.83-52.54c1.38-10.6,10.47-18,20.32-16.64S97.41,401.42,96,412L89.2,464.56"/><path id="Rectangle-Copy-22" class="cls-5" d="M88,473.91l9.41-70.75c1.55-11.89,10.89-20.39,20.88-19s16.82,12.26,15.28,24.16l-10.34,74.38"/><path id="Rectangle-Copy-24" class="cls-5" d="M15.72,472.67l6.87-53.17c1.19-9.21,10.13-15.53,20-14.12s16.84,10,15.65,19.23l-6.9,51.7"/><path class="cls-4" d="M143.7,365.1H108.16c-6.54,0-12.39,2.47-13.07,5.53l-2.48,11.25c-.7,3.14,4.15,5.71,10.83,5.71H106a16.35,16.35,0,0,1,12.28-3.39,16,16,0,0,1,7.69,3.39h13.76c6.68,0,12.52-2.57,13-5.71l1.86-11.25C155.14,367.57,150.24,365.1,143.7,365.1Z"/><path id="Line-2" class="cls-4" d="M26.26,569.38l-20.46,77"/><path id="Line-2-Copy-3" class="cls-4" d="M125.31,579.36l-9.74,66.81"/><path id="Rectangle-Copy-21-2" data-name="Rectangle-Copy-21" class="cls-5" d="M545.82,392l.43,47.86a20.69,20.69,0,0,0,20.62,20.36A20,20,0,0,0,587.07,440l-.43-34.86"/><path class="cls-5" d="M545.83,342.76l0-40.14c0-20.29,4.11-36.73,25.22-36.72h0c3.46,0,15.11-10.73,23.36-10.62,15.48.22,16.15,6,23.07,8.57,9,3.33,21.42-8.35,29.31-8.33,4.28,0,12.32,3.23,15.62,5.48,11.16,7.61,37.76,8.12,56,41.51,1.94,3.55,20.59,56.35,29.26,65.74"/><path id="Path-8-3" data-name="Path-8" class="cls-4" d="M567.87,319c3.94,8.6,4.26,23.11-2.38,27.85l-28.13-4.49c-14.68-2.43-31.92,0-42,10.54-5.26,5.47-6.48,7.68-7.83,15-1.65,8.88,1.77,15.08,5.86,21.53l37.72.26L593,404.58c14.81,3.24,40.85.11,50.11-7.25"/><path id="Line-2-2" data-name="Line-2" class="cls-4" d="M642.82,391.85l36.64,108.06"/><path id="Line-2-Copy-3-2" data-name="Line-2-Copy-3" class="cls-4" d="M736.83,347.38,788.93,457"/><path class="cls-6" d="M571.09,265.9c1.36,0,4-1.65,7.14-3.64V46H93v255.6h452.9C546,281.8,550.33,265.89,571.09,265.9ZM385.88,182.57a10.4,10.4,0,0,1-3.76,3.75L319.59,222.8a10.4,10.4,0,0,1-15.64-9v-73a10.43,10.43,0,0,1,10.45-10.4,10.31,10.31,0,0,1,5.19,1.4l62.53,36.47A10.42,10.42,0,0,1,385.88,182.57Z"/><path class="cls-4" d="M545.87,302.62c0-20.29,4.11-36.73,25.22-36.72,3.46,0,15.11-10.73,23.36-10.62,10,.14,13.79.59,17.1,3V47.69A41.69,41.69,0,0,0,569.86,6H101.34A41.69,41.69,0,0,0,59.65,47.69V330.83h486.2Z"/><path class="cls-4" d="M545.94,405.08H443.83c-6.78,0-12.05,2.66-11.76,6l1.07,12.1c.3,3.39,6.17,6.16,13.1,6.16h99.91Z"/><path class="cls-4" d="M592.83,467.66l-2.89-13.07c-.42-1.91-2.45-3.62-5.32-4.79a20.08,20.08,0,0,1-17.75,10.41,20.74,20.74,0,0,1-18.73-12H537.47c-7.05,0-12.29,2.87-11.7,6.43l2.16,13.07c.61,3.66,7,6.65,14.16,6.65h39.16C588.46,474.31,593.64,471.32,592.83,467.66Z"/><path class="cls-7" d="M423.3,518.31a.42.42,0,0,0-.42.42v5.78c0,4.36-4.66,7.9-10.42,7.9H266.55c-5.76,0-10.43-3.54-10.43-7.9v-5.78a.42.42,0,0,0-.42-.42h-39a.41.41,0,0,0-.26.73,31.22,31.22,0,0,1,8.51,12.1c2.49,6.25.25,7.84-1.41,13.13a3.26,3.26,0,0,1-2.37,2.23l-16.65,3.79a.42.42,0,0,0,.09.83H572.27c45.86,0,83.07,2.08,83.38-32.38a.43.43,0,0,0-.43-.43Z"/></g></g></svg>