<svg width="192" height="176" viewBox="0 0 192 176" fill="none" xmlns="http://www.w3.org/2000/svg">
<path d="M108 132H108.131C111.834 132 115.33 130.291 117.603 127.368L126.848 115.483C130.21 111.161 130.22 105.111 126.872 100.778L117 88H148L117.603 48.6626C115.331 45.7219 111.824 44 108.108 44H108L95.4593 60.1238L117 88H86L95.8725 100.778C99.2201 105.111 99.2101 111.161 95.8483 115.483L95.5007 115.93L108 132Z" fill="black"/>
<path d="M108.125 44H77.869C74.1659 44 70.6703 45.7097 68.3968 48.6327L48.9115 73.6852C45.7283 77.778 44 82.815 44 88C44 93.185 45.7283 98.222 48.9115 102.315L68.3968 127.367C70.6703 130.29 74.1659 132 77.869 132H108.13L108.085 131.974C104.677 131.752 101.509 130.083 99.3968 127.367L79.9115 102.315C76.7283 98.222 75 93.185 75 88C75 82.815 76.7283 77.778 79.9115 73.6852L99.3968 48.6327C101.496 45.9335 104.638 44.2689 108.023 44.0298C108.059 44.0273 108.125 44.0423 108.125 44Z" fill="black"/>
</svg>
