<?xml version="1.0" encoding="UTF-8"?>
<svg width="1310px" height="800px" viewBox="0 0 1310 800" version="1.1" xmlns="http://www.w3.org/2000/svg" xmlns:xlink="http://www.w3.org/1999/xlink">
    <!-- Generator: Sketch 59.1 (86144) - https://sketch.com -->
    <title>athens-incentive-02</title>
    <desc>Created with Sketch.</desc>
    <g id="athens-incentive-02" stroke="none" stroke-width="1" fill="none" fill-rule="evenodd">
        <rect fill="#000000" x="0" y="0" width="1310" height="800"></rect>
        <g id="Group-Copy-2" transform="translate(360.000000, 240.000000) rotate(-90.000000) translate(-360.000000, -240.000000) translate(120.000000, -120.000000)">
            <g id="Group-2" transform="translate(-0.000000, 0.000000)">
                <path d="M248.888889,231.111111 L248.888889,240 L240,240 L240,231.111111 L248.888889,231.111111 Z M266.666667,231.111111 L266.666667,240 L257.777778,240 L257.777778,231.111111 L266.666667,231.111111 Z M284.444444,231.111111 L284.444444,240 L275.555556,240 L275.555556,231.111111 L284.444444,231.111111 Z M302.222222,231.111111 L302.222222,240 L293.333333,240 L293.333333,231.111111 L302.222222,231.111111 Z M320,231.111111 L320,240 L311.111111,240 L311.111111,231.111111 L320,231.111111 Z M257.777778,222.222222 L257.777778,231.111111 L248.888889,231.111111 L248.888889,222.222222 L257.777778,222.222222 Z M275.555556,222.222222 L275.555556,231.111111 L266.666667,231.111111 L266.666667,222.222222 L275.555556,222.222222 Z M293.333333,222.222222 L293.333333,231.111111 L284.444444,231.111111 L284.444444,222.222222 L293.333333,222.222222 Z M311.111111,222.222222 L311.111111,231.111111 L302.222222,231.111111 L302.222222,222.222222 L311.111111,222.222222 Z M248.888889,213.333333 L248.888889,222.222222 L240,222.222222 L240,213.333333 L248.888889,213.333333 Z M266.666667,213.333333 L266.666667,222.222222 L257.777778,222.222222 L257.777778,213.333333 L266.666667,213.333333 Z M284.444444,213.333333 L284.444444,222.222222 L275.555556,222.222222 L275.555556,213.333333 L284.444444,213.333333 Z M302.222222,213.333333 L302.222222,222.222222 L293.333333,222.222222 L293.333333,213.333333 L302.222222,213.333333 Z M320,213.333333 L320,222.222222 L311.111111,222.222222 L311.111111,213.333333 L320,213.333333 Z M257.777778,204.444444 L257.777778,213.333333 L248.888889,213.333333 L248.888889,204.444444 L257.777778,204.444444 Z M275.555556,204.444444 L275.555556,213.333333 L266.666667,213.333333 L266.666667,204.444444 L275.555556,204.444444 Z M293.333333,204.444444 L293.333333,213.333333 L284.444444,213.333333 L284.444444,204.444444 L293.333333,204.444444 Z M311.111111,204.444444 L311.111111,213.333333 L302.222222,213.333333 L302.222222,204.444444 L311.111111,204.444444 Z M284.444444,195.555556 L284.444444,204.444444 L275.555556,204.444444 L275.555556,195.555556 L284.444444,195.555556 Z M302.222222,195.555556 L302.222222,204.444444 L293.333333,204.444444 L293.333333,195.555556 L302.222222,195.555556 Z M320,195.555556 L320,204.444444 L311.111111,204.444444 L311.111111,195.555556 L320,195.555556 Z M248.888889,195.555556 L248.888889,204.444444 L240,204.444444 L240,195.555556 L248.888889,195.555556 Z M266.666667,195.555556 L266.666667,204.444444 L257.777778,204.444444 L257.777778,195.555556 L266.666667,195.555556 Z M257.777778,186.666667 L257.777778,195.555556 L248.888889,195.555556 L248.888889,186.666667 L257.777778,186.666667 Z M275.555556,186.666667 L275.555556,195.555556 L266.666667,195.555556 L266.666667,186.666667 L275.555556,186.666667 Z M293.333333,186.666667 L293.333333,195.555556 L284.444444,195.555556 L284.444444,186.666667 L293.333333,186.666667 Z M311.111111,186.666667 L311.111111,195.555556 L302.222222,195.555556 L302.222222,186.666667 L311.111111,186.666667 Z M248.888889,177.777778 L248.888889,186.666667 L240,186.666667 L240,177.777778 L248.888889,177.777778 Z M266.666667,177.777778 L266.666667,186.666667 L257.777778,186.666667 L257.777778,177.777778 L266.666667,177.777778 Z M284.444444,177.777778 L284.444444,186.666667 L275.555556,186.666667 L275.555556,177.777778 L284.444444,177.777778 Z M302.222222,177.777778 L302.222222,186.666667 L293.333333,186.666667 L293.333333,177.777778 L302.222222,177.777778 Z M320,177.777778 L320,186.666667 L311.111111,186.666667 L311.111111,177.777778 L320,177.777778 Z M257.777778,168.888889 L257.777778,177.777778 L248.888889,177.777778 L248.888889,168.888889 L257.777778,168.888889 Z M275.555556,168.888889 L275.555556,177.777778 L266.666667,177.777778 L266.666667,168.888889 L275.555556,168.888889 Z M293.333333,168.888889 L293.333333,177.777778 L284.444444,177.777778 L284.444444,168.888889 L293.333333,168.888889 Z M311.111111,168.888889 L311.111111,177.777778 L302.222222,177.777778 L302.222222,168.888889 L311.111111,168.888889 Z M248.888889,160 L248.888889,168.888889 L240,168.888889 L240,160 L248.888889,160 Z M266.666667,160 L266.666667,168.888889 L257.777778,168.888889 L257.777778,160 L266.666667,160 Z M284.444444,160 L284.444444,168.888889 L275.555556,168.888889 L275.555556,160 L284.444444,160 Z M302.222222,160 L302.222222,168.888889 L293.333333,168.888889 L293.333333,160 L302.222222,160 Z M320,160 L320,168.888889 L311.111111,168.888889 L311.111111,160 L320,160 Z" id="Shape-Copy-4" fill="#4038FF"></path>
                <path d="M328.888889,631.111111 L328.888889,640 L320,640 L320,631.111111 L328.888889,631.111111 Z M346.666667,631.111111 L346.666667,640 L337.777778,640 L337.777778,631.111111 L346.666667,631.111111 Z M364.444444,631.111111 L364.444444,640 L355.555556,640 L355.555556,631.111111 L364.444444,631.111111 Z M382.222222,631.111111 L382.222222,640 L373.333333,640 L373.333333,631.111111 L382.222222,631.111111 Z M400,631.111111 L400,640 L391.111111,640 L391.111111,631.111111 L400,631.111111 Z M337.777778,622.222222 L337.777778,631.111111 L328.888889,631.111111 L328.888889,622.222222 L337.777778,622.222222 Z M355.555556,622.222222 L355.555556,631.111111 L346.666667,631.111111 L346.666667,622.222222 L355.555556,622.222222 Z M373.333333,622.222222 L373.333333,631.111111 L364.444444,631.111111 L364.444444,622.222222 L373.333333,622.222222 Z M391.111111,622.222222 L391.111111,631.111111 L382.222222,631.111111 L382.222222,622.222222 L391.111111,622.222222 Z M328.888889,613.333333 L328.888889,622.222222 L320,622.222222 L320,613.333333 L328.888889,613.333333 Z M346.666667,613.333333 L346.666667,622.222222 L337.777778,622.222222 L337.777778,613.333333 L346.666667,613.333333 Z M364.444444,613.333333 L364.444444,622.222222 L355.555556,622.222222 L355.555556,613.333333 L364.444444,613.333333 Z M382.222222,613.333333 L382.222222,622.222222 L373.333333,622.222222 L373.333333,613.333333 L382.222222,613.333333 Z M400,613.333333 L400,622.222222 L391.111111,622.222222 L391.111111,613.333333 L400,613.333333 Z M337.777778,604.444444 L337.777778,613.333333 L328.888889,613.333333 L328.888889,604.444444 L337.777778,604.444444 Z M355.555556,604.444444 L355.555556,613.333333 L346.666667,613.333333 L346.666667,604.444444 L355.555556,604.444444 Z M373.333333,604.444444 L373.333333,613.333333 L364.444444,613.333333 L364.444444,604.444444 L373.333333,604.444444 Z M391.111111,604.444444 L391.111111,613.333333 L382.222222,613.333333 L382.222222,604.444444 L391.111111,604.444444 Z M364.444444,595.555556 L364.444444,604.444444 L355.555556,604.444444 L355.555556,595.555556 L364.444444,595.555556 Z M382.222222,595.555556 L382.222222,604.444444 L373.333333,604.444444 L373.333333,595.555556 L382.222222,595.555556 Z M400,595.555556 L400,604.444444 L391.111111,604.444444 L391.111111,595.555556 L400,595.555556 Z M328.888889,595.555556 L328.888889,604.444444 L320,604.444444 L320,595.555556 L328.888889,595.555556 Z M346.666667,595.555556 L346.666667,604.444444 L337.777778,604.444444 L337.777778,595.555556 L346.666667,595.555556 Z M337.777778,586.666667 L337.777778,595.555556 L328.888889,595.555556 L328.888889,586.666667 L337.777778,586.666667 Z M355.555556,586.666667 L355.555556,595.555556 L346.666667,595.555556 L346.666667,586.666667 L355.555556,586.666667 Z M373.333333,586.666667 L373.333333,595.555556 L364.444444,595.555556 L364.444444,586.666667 L373.333333,586.666667 Z M391.111111,586.666667 L391.111111,595.555556 L382.222222,595.555556 L382.222222,586.666667 L391.111111,586.666667 Z M328.888889,577.777778 L328.888889,586.666667 L320,586.666667 L320,577.777778 L328.888889,577.777778 Z M346.666667,577.777778 L346.666667,586.666667 L337.777778,586.666667 L337.777778,577.777778 L346.666667,577.777778 Z M364.444444,577.777778 L364.444444,586.666667 L355.555556,586.666667 L355.555556,577.777778 L364.444444,577.777778 Z M382.222222,577.777778 L382.222222,586.666667 L373.333333,586.666667 L373.333333,577.777778 L382.222222,577.777778 Z M400,577.777778 L400,586.666667 L391.111111,586.666667 L391.111111,577.777778 L400,577.777778 Z M337.777778,568.888889 L337.777778,577.777778 L328.888889,577.777778 L328.888889,568.888889 L337.777778,568.888889 Z M355.555556,568.888889 L355.555556,577.777778 L346.666667,577.777778 L346.666667,568.888889 L355.555556,568.888889 Z M373.333333,568.888889 L373.333333,577.777778 L364.444444,577.777778 L364.444444,568.888889 L373.333333,568.888889 Z M391.111111,568.888889 L391.111111,577.777778 L382.222222,577.777778 L382.222222,568.888889 L391.111111,568.888889 Z M328.888889,560 L328.888889,568.888889 L320,568.888889 L320,560 L328.888889,560 Z M346.666667,560 L346.666667,568.888889 L337.777778,568.888889 L337.777778,560 L346.666667,560 Z M364.444444,560 L364.444444,568.888889 L355.555556,568.888889 L355.555556,560 L364.444444,560 Z M382.222222,560 L382.222222,568.888889 L373.333333,568.888889 L373.333333,560 L382.222222,560 Z M400,560 L400,568.888889 L391.111111,568.888889 L391.111111,560 L400,560 Z" id="Shape-Copy-5" fill="#FFFFFF"></path>
                <path d="M240,88.8 L240,80 L160,80 L160,88.8 L240,88.8 Z M240,98.4 L240,107.2 L160,107.2 L160,98.4 L240,98.4 Z M240,115.2 L240,124 L160,124 L160,115.2 L240,115.2 Z M240,141.6 L240,132.8 L160,132.8 L160,141.6 L240,141.6 Z M240,151.2 L240,160 L160,160 L160,151.2 L240,151.2 Z" id="Shape" fill="#4038FF"></path>
                <path d="M480,488.8 L480,480 L400,480 L400,488.8 L480,488.8 Z M480,498.4 L480,507.2 L400,507.2 L400,498.4 L480,498.4 Z M480,515.2 L480,524 L400,524 L400,515.2 L480,515.2 Z M480,541.6 L480,532.8 L400,532.8 L400,541.6 L480,541.6 Z M480,551.2 L480,560 L400,560 L400,551.2 L480,551.2 Z" id="Shape-Copy-6" fill="#4038FF" transform="translate(440.000000, 520.000000) rotate(-90.000000) translate(-440.000000, -520.000000) "></path>
                <path d="M320,311.2 L320,320 L240,320 L240,311.2 L320,311.2 Z M320,284 L320,275.2 L240,275.2 L240,284 L320,284 Z M320,258.4 L320,267.2 L240,267.2 L240,258.4 L320,258.4 Z M320,240 L320,248.8 L240,248.8 L240,240 L320,240 Z M320,301.6 L320,292.8 L240,292.8 L240,301.6 L320,301.6 Z" id="Shape" fill="#FFFFFF"></path>
                <path d="M231.111032,320 L240,320 C240,364.182044 204.182206,400 160,400 L160,391.111111 C199.275445,391.111111 231.111032,359.275378 231.111032,320 Z M213.485612,320 L222.4,320 C222.4,354.462629 194.462684,382.4 160,382.4 L160,373.485714 C189.537608,373.485714 213.485612,349.537664 213.485612,320 Z M204,320 L195.2,320 C195.2,339.438848 179.439058,355.2 160,355.2 L160,364 C184.300937,364 204,344.301376 204,320 Z M178.133333,320 L187.2,320 C187.2,335.023104 175.023268,347.2 160,347.2 L160,338.133333 C170.01406,338.133333 178.133333,330.013952 178.133333,320 Z M160,320 L168.8,320 C168.8,324.861824 164.861878,328.8 160,328.8 L160,320 Z" id="Shape" fill="#4038FF" transform="translate(200.000000, 360.000000) rotate(-90.000000) translate(-200.000000, -360.000000) "></path>
                <path d="M400,720 L480,720 L480,640 C435.817794,640 400,675.817956 400,720 Z" id="Path-Copy-4" fill="#4038FF" fill-rule="nonzero" transform="translate(440.000000, 680.000000) rotate(-90.000000) translate(-440.000000, -680.000000) "></path>
                <path d="M248.888968,400 L240,400 C240,355.817956 275.817794,320 320,320 L320,328.888889 C280.724555,328.888889 248.888968,360.724622 248.888968,400 Z M266.514388,400 L257.6,400 C257.6,365.537371 285.537316,337.6 320,337.6 L320,346.514286 C290.462392,346.514286 266.514388,370.462336 266.514388,400 Z M276,400 L284.800141,400 C284.800141,380.560448 300.56063,364.8 320,364.8 L320,356 C295.698674,356 276,375.698624 276,400 Z M301.866183,400 L292.8,400 C292.8,384.976171 304.976331,372.8 320,372.8 L320,381.866667 C309.985672,381.866667 301.866183,389.986048 301.866183,400 Z M320,400 L311.2,400 C311.2,395.138176 315.138122,391.2 320,391.2 L320,400 Z" id="Shape" fill="#4038FF"></path>
                <path d="M8.88896797,80 L-2.84217094e-14,80 C-2.84217094e-14,35.8179556 35.8177936,0 80,0 L80,8.88888889 C40.7245552,8.88888889 8.88896797,40.7246222 8.88896797,80 Z M26.5143877,80 L17.6,80 C17.6,45.5373714 45.5373155,17.6 80,17.6 L80,26.5142857 C50.4623916,26.5142857 26.5143877,50.462336 26.5143877,80 Z M36,80 L44.8001409,80 C44.8001409,60.560448 60.5606303,44.8 80,44.8 L80,36 C55.698674,36 36,55.698624 36,80 Z M61.8661827,80 L52.8,80 C52.8,64.9761707 64.9763305,52.8 80,52.8 L80,61.8666667 C69.9856723,61.8666667 61.8661827,69.986048 61.8661827,80 Z M80,80 L71.2,80 C71.2,75.138176 75.1381215,71.2 80,71.2 L80,80 Z" id="Shape-Copy-3" fill="#1F252E"></path>
                <path d="M248.888968,80 L240,80 C240,35.8179556 275.817794,0 320,0 L320,8.88888889 C280.724555,8.88888889 248.888968,40.7246222 248.888968,80 Z M266.514388,80 L257.6,80 C257.6,45.5373714 285.537316,17.6 320,17.6 L320,26.5142857 C290.462392,26.5142857 266.514388,50.462336 266.514388,80 Z M276,80 L284.800141,80 C284.800141,60.560448 300.56063,44.8 320,44.8 L320,36 C295.698674,36 276,55.698624 276,80 Z M301.866183,80 L292.8,80 C292.8,64.9761707 304.976331,52.8 320,52.8 L320,61.8666667 C309.985672,61.8666667 301.866183,69.986048 301.866183,80 Z M320,80 L311.2,80 C311.2,75.138176 315.138122,71.2 320,71.2 L320,80 Z" id="Shape-Copy-7" fill="#1F252E" transform="translate(280.000000, 40.000000) rotate(-90.000000) translate(-280.000000, -40.000000) "></path>
                <path d="M248.888968,560 L240,560 C240,515.817956 275.817794,480 320,480 L320,488.888889 C280.724555,488.888889 248.888968,520.724622 248.888968,560 Z M266.514388,560 L257.6,560 C257.6,525.537371 285.537316,497.6 320,497.6 L320,506.514286 C290.462392,506.514286 266.514388,530.462336 266.514388,560 Z M276,560 L284.800141,560 C284.800141,540.560448 300.56063,524.8 320,524.8 L320,516 C295.698674,516 276,535.698624 276,560 Z M301.866183,560 L292.8,560 C292.8,544.976171 304.976331,532.8 320,532.8 L320,541.866667 C309.985672,541.866667 301.866183,549.986048 301.866183,560 Z M320,560 L311.2,560 C311.2,555.138176 315.138122,551.2 320,551.2 L320,560 Z" id="Shape-Copy-2" fill="#1F252E" transform="translate(280.000000, 520.000000) scale(-1, 1) translate(-280.000000, -520.000000) "></path>
                <path d="M400,153.733689 L400,160 L393.733096,160 L320,86.2670222 L320,80 L326.266192,80 L400,153.733689 Z M320,99.2 L320,111.705005 L368.295818,160 L380.8,160 L320,99.2 Z M320,136.577422 L320,124 L356,160 L343.422064,160 L320,136.577422 Z M320,160 L331.2,160 L320,148.8 L320,160 Z M339.2,80 L351.704744,80 L400,128.294995 L400,140.8 L339.2,80 Z M376.577936,80 L364,80 L400,116 L400,103.422578 L376.577936,80 Z M400,91.2 L388.8,80 L400,80 L400,91.2 Z" id="Shape-Copy" fill="#1F252E" transform="translate(360.000000, 120.000000) rotate(-270.000000) translate(-360.000000, -120.000000) "></path>
                <path d="M480,233.733689 L480,240 L473.733096,240 L400,166.267022 L400,160 L406.266192,160 L480,233.733689 Z M400,179.2 L400,191.705005 L448.295818,240 L460.8,240 L400,179.2 Z M400,216.577422 L400,204 L436,240 L423.422064,240 L400,216.577422 Z M400,240 L411.2,240 L400,228.8 L400,240 Z M419.2,160 L431.704744,160 L480,208.294995 L480,220.8 L419.2,160 Z M456.577936,160 L444,160 L480,196 L480,183.422578 L456.577936,160 Z M480,171.2 L468.8,160 L480,160 L480,171.2 Z" id="Shape-Copy-8" fill="#4038FF" transform="translate(440.000000, 200.000000) rotate(-270.000000) translate(-440.000000, -200.000000) "></path>
            </g>
        </g>
        <g id="Group-Copy-3" transform="translate(1430.000000, 560.000000) scale(-1, -1) rotate(-90.000000) translate(-1430.000000, -560.000000) translate(1190.000000, 200.000000)">
            <g id="Group-2" transform="translate(-0.000000, 0.000000)">
                <path d="M328.888889,631.111111 L328.888889,640 L320,640 L320,631.111111 L328.888889,631.111111 Z M346.666667,631.111111 L346.666667,640 L337.777778,640 L337.777778,631.111111 L346.666667,631.111111 Z M364.444444,631.111111 L364.444444,640 L355.555556,640 L355.555556,631.111111 L364.444444,631.111111 Z M382.222222,631.111111 L382.222222,640 L373.333333,640 L373.333333,631.111111 L382.222222,631.111111 Z M400,631.111111 L400,640 L391.111111,640 L391.111111,631.111111 L400,631.111111 Z M337.777778,622.222222 L337.777778,631.111111 L328.888889,631.111111 L328.888889,622.222222 L337.777778,622.222222 Z M355.555556,622.222222 L355.555556,631.111111 L346.666667,631.111111 L346.666667,622.222222 L355.555556,622.222222 Z M373.333333,622.222222 L373.333333,631.111111 L364.444444,631.111111 L364.444444,622.222222 L373.333333,622.222222 Z M391.111111,622.222222 L391.111111,631.111111 L382.222222,631.111111 L382.222222,622.222222 L391.111111,622.222222 Z M328.888889,613.333333 L328.888889,622.222222 L320,622.222222 L320,613.333333 L328.888889,613.333333 Z M346.666667,613.333333 L346.666667,622.222222 L337.777778,622.222222 L337.777778,613.333333 L346.666667,613.333333 Z M364.444444,613.333333 L364.444444,622.222222 L355.555556,622.222222 L355.555556,613.333333 L364.444444,613.333333 Z M382.222222,613.333333 L382.222222,622.222222 L373.333333,622.222222 L373.333333,613.333333 L382.222222,613.333333 Z M400,613.333333 L400,622.222222 L391.111111,622.222222 L391.111111,613.333333 L400,613.333333 Z M337.777778,604.444444 L337.777778,613.333333 L328.888889,613.333333 L328.888889,604.444444 L337.777778,604.444444 Z M355.555556,604.444444 L355.555556,613.333333 L346.666667,613.333333 L346.666667,604.444444 L355.555556,604.444444 Z M373.333333,604.444444 L373.333333,613.333333 L364.444444,613.333333 L364.444444,604.444444 L373.333333,604.444444 Z M391.111111,604.444444 L391.111111,613.333333 L382.222222,613.333333 L382.222222,604.444444 L391.111111,604.444444 Z M364.444444,595.555556 L364.444444,604.444444 L355.555556,604.444444 L355.555556,595.555556 L364.444444,595.555556 Z M382.222222,595.555556 L382.222222,604.444444 L373.333333,604.444444 L373.333333,595.555556 L382.222222,595.555556 Z M400,595.555556 L400,604.444444 L391.111111,604.444444 L391.111111,595.555556 L400,595.555556 Z M328.888889,595.555556 L328.888889,604.444444 L320,604.444444 L320,595.555556 L328.888889,595.555556 Z M346.666667,595.555556 L346.666667,604.444444 L337.777778,604.444444 L337.777778,595.555556 L346.666667,595.555556 Z M337.777778,586.666667 L337.777778,595.555556 L328.888889,595.555556 L328.888889,586.666667 L337.777778,586.666667 Z M355.555556,586.666667 L355.555556,595.555556 L346.666667,595.555556 L346.666667,586.666667 L355.555556,586.666667 Z M373.333333,586.666667 L373.333333,595.555556 L364.444444,595.555556 L364.444444,586.666667 L373.333333,586.666667 Z M391.111111,586.666667 L391.111111,595.555556 L382.222222,595.555556 L382.222222,586.666667 L391.111111,586.666667 Z M328.888889,577.777778 L328.888889,586.666667 L320,586.666667 L320,577.777778 L328.888889,577.777778 Z M346.666667,577.777778 L346.666667,586.666667 L337.777778,586.666667 L337.777778,577.777778 L346.666667,577.777778 Z M364.444444,577.777778 L364.444444,586.666667 L355.555556,586.666667 L355.555556,577.777778 L364.444444,577.777778 Z M382.222222,577.777778 L382.222222,586.666667 L373.333333,586.666667 L373.333333,577.777778 L382.222222,577.777778 Z M400,577.777778 L400,586.666667 L391.111111,586.666667 L391.111111,577.777778 L400,577.777778 Z M337.777778,568.888889 L337.777778,577.777778 L328.888889,577.777778 L328.888889,568.888889 L337.777778,568.888889 Z M355.555556,568.888889 L355.555556,577.777778 L346.666667,577.777778 L346.666667,568.888889 L355.555556,568.888889 Z M373.333333,568.888889 L373.333333,577.777778 L364.444444,577.777778 L364.444444,568.888889 L373.333333,568.888889 Z M391.111111,568.888889 L391.111111,577.777778 L382.222222,577.777778 L382.222222,568.888889 L391.111111,568.888889 Z M328.888889,560 L328.888889,568.888889 L320,568.888889 L320,560 L328.888889,560 Z M346.666667,560 L346.666667,568.888889 L337.777778,568.888889 L337.777778,560 L346.666667,560 Z M364.444444,560 L364.444444,568.888889 L355.555556,568.888889 L355.555556,560 L364.444444,560 Z M382.222222,560 L382.222222,568.888889 L373.333333,568.888889 L373.333333,560 L382.222222,560 Z M400,560 L400,568.888889 L391.111111,568.888889 L391.111111,560 L400,560 Z" id="Shape-Copy-5" fill="#FFFFFF"></path>
                <path d="M480,488.8 L480,480 L400,480 L400,488.8 L480,488.8 Z M480,498.4 L480,507.2 L400,507.2 L400,498.4 L480,498.4 Z M480,515.2 L480,524 L400,524 L400,515.2 L480,515.2 Z M480,541.6 L480,532.8 L400,532.8 L400,541.6 L480,541.6 Z M480,551.2 L480,560 L400,560 L400,551.2 L480,551.2 Z" id="Shape-Copy-6" fill="#4038FF" transform="translate(440.000000, 520.000000) rotate(-90.000000) translate(-440.000000, -520.000000) "></path>
                <path d="M400,720 L480,720 L480,640 C435.817794,640 400,675.817956 400,720 Z" id="Path-Copy-4" fill="#4038FF" fill-rule="nonzero" transform="translate(440.000000, 680.000000) rotate(-90.000000) translate(-440.000000, -680.000000) "></path>
                <path d="M248.888968,560 L240,560 C240,515.817956 275.817794,480 320,480 L320,488.888889 C280.724555,488.888889 248.888968,520.724622 248.888968,560 Z M266.514388,560 L257.6,560 C257.6,525.537371 285.537316,497.6 320,497.6 L320,506.514286 C290.462392,506.514286 266.514388,530.462336 266.514388,560 Z M276,560 L284.800141,560 C284.800141,540.560448 300.56063,524.8 320,524.8 L320,516 C295.698674,516 276,535.698624 276,560 Z M301.866183,560 L292.8,560 C292.8,544.976171 304.976331,532.8 320,532.8 L320,541.866667 C309.985672,541.866667 301.866183,549.986048 301.866183,560 Z M320,560 L311.2,560 C311.2,555.138176 315.138122,551.2 320,551.2 L320,560 Z" id="Shape-Copy-2" fill="#1F252E" transform="translate(280.000000, 520.000000) scale(-1, 1) translate(-280.000000, -520.000000) "></path>
            </g>
        </g>
        <g id="Group" transform="translate(680.000000, 100.000000)">
            <g id="bounties-2" transform="translate(142.000000, 0.000000)">
                <g id="bounties">
                    <path d="M302.222327,240.573114 C299.382121,237.910448 296.717777,235.067142 294.246019,232.061043 C291.135259,227.526575 288.423314,222.673899 285.23279,218.139431 C274.155006,201.548689 260.721078,186.649681 245.351248,173.908481 C240.50892,170.104828 235.477464,166.54699 230.276025,163.248504 C237.215414,159.668661 237.693992,154.418224 231.791524,149.883756 C229.974073,148.702812 228.05168,147.6909 226.048582,146.860778 C226.707943,146.363076 227.400859,145.911214 228.122422,145.508392 C230.879262,144.353616 232.898731,141.931159 233.533919,139.017024 C234.169108,136.102889 233.340281,133.062875 231.312945,130.870812 C230.595077,129.836635 231.312945,129.438875 231.711761,128.802458 C238.092266,121.351883 245.229248,114.580357 253.008504,108.596233 C259.922275,102.627886 269.071293,99.9049262 278.133876,101.118338 C283.260727,101.811777 288.479218,101.294033 293.368625,99.606849 C301.947577,97.4255888 307.53377,89.1880982 306.370008,80.4348005 C305.907459,74.2760245 304.368794,68.2453342 301.823512,62.6151372 C298.574372,54.7488181 291.372233,49.2023847 282.919661,48.0571088 C277.580314,47.3824788 272.160083,47.7608912 266.967044,49.1708377 C258.090709,51.4428587 248.659766,49.4734789 241.442857,43.8408491 C233.775978,38.2512076 227.273909,31.2259344 222.299717,23.1573114 C217.105221,15.1563181 209.972797,8.58995962 201.561315,4.06481501 C190.78083,-2.0921933 177.249509,-0.614112233 168.060819,7.72421015 C159.571794,16.0800312 151.58175,24.9255165 144.131894,34.2150489 C138.578346,41.1940701 130.246526,45.4070694 121.319652,45.7500988 C116.587878,45.9019095 111.928013,44.5660904 107.999217,41.9315995 C102.247786,38.1141455 94.8525088,37.7774948 88.7763131,41.0565267 C84.27811,43.2078213 80.0483694,45.8777901 76.1737458,49.0117336 C68.8395911,54.5040863 63.2909382,62.0302906 60.2211289,70.6498961 C58.0129193,75.9441683 60.5079482,82.023043 65.8045448,84.2532998 C74.8177733,88.8673198 84.3095804,92.2085066 93.6418613,96.18611 C100.980065,99.2090886 108.158743,102.550276 115.417183,105.971014 C125.068517,110.505482 128.817382,120.529043 136.155585,127.529625 C130.910552,128.324753 126.854345,132.533354 126.264963,137.791842 C125.467332,143.758247 129.854302,145.747049 134.241271,148.451819 C130.891222,150.201964 127.620935,151.633902 126.264963,155.293297 C125.528805,158.760892 126.376381,162.375423 128.578092,165.157753 C117.709943,171.151686 107.382011,178.071992 97.7097786,185.841291 C77.2900632,202.37123 59.0401,221.401477 43.391118,242.482364 C29.8365556,260.443689 19.0801332,280.344066 11.4858842,301.509998 C2.48866104,324.917889 -1.24180437,350.011546 0.558341592,375.016109 C1.59173415,390.458679 6.92286639,405.30779 15.9526169,417.894674 C22.0366286,425.40041 29.7203721,431.460487 38.4458068,435.634785 C40.8386993,436.748514 43.3113549,437.703139 45.7840105,438.578212 C92.9860922,462.08361 147.197234,467.490383 198.131502,453.772657 C244.447339,464.187466 293.019343,454.625868 331.894195,427.440922 C333.501121,426.332015 334.881673,424.928118 335.962112,423.304215 C337.291524,422.055466 338.543462,420.72714 339.710977,419.326611 L341.625291,417.258258 C341.763413,416.93873 341.951909,416.643305 342.183633,416.383185 C350.208976,405.724392 355.66736,393.366639 358.13625,380.266546 C360.767709,363.92623 359.677246,347.204713 354.945726,331.342024 C345.006314,297.27144 326.912466,266.120967 302.222327,240.573114 Z" id="Path" fill="#000000" fill-rule="nonzero"></path>
                    <path d="M13.4001982,357.514654 C13.5713628,330.84061 21.9214133,304.857374 37.3291236,283.053918 C49.5475474,264.987701 64.2020602,248.685525 80.8797678,234.606709 C80.8797678,234.606709 80.8797678,234.208948 81.5976355,233.572532 C77.5564036,234.031913 73.6204644,235.161174 69.9522252,236.913719 C66.1133051,238.686309 62.4079502,240.733486 58.8651564,243.039228 C61.70779,238.15126 64.9350404,233.496097 68.5164896,229.117616 C76.9374219,218.302161 104.517572,184.044223 119.644627,181.969757 C123.894258,181.386979 99.9623146,218.110056 109.009549,221.745791 C115.294899,224.271632 149.482004,182.706512 151.549861,181.969757 C156.335646,180.458268 165.986979,194.114706 165.428637,198.092309 C164.604686,203.193566 164.257555,208.360121 164.391717,213.525411 C164.391717,219.65092 172.288263,222.833003 173.803761,218.218983 C175.569399,214.194601 177.594295,210.288388 179.865756,206.524829 C183.141673,200.114248 187.483846,194.304135 192.707612,189.341582 C195.916921,185.512986 200.952794,183.717044 205.868521,184.64801 C209.919148,185.60453 213.621134,187.671056 216.556775,190.614415 C225.406417,199.719219 232.587404,210.300654 237.773755,221.878378 C238.377479,223.299298 239.243278,224.59456 240.326174,225.696877 C240.602114,224.144456 240.602114,222.555726 240.326174,221.003305 C239.502209,213.672664 240.208296,206.251277 242.400014,199.206038 C243.516697,194.751123 245.111959,194.27381 248.462008,197.535445 C252.805274,201.481618 256.857141,205.735458 260.585997,210.263776 C261.418995,211.614878 262.60452,212.714775 264.01581,213.445859 L264.01581,214.161827 C263.912278,213.93271 263.778121,213.718627 263.616995,213.525411 C263.560173,212.514221 263.259164,211.531706 262.739601,210.661536 C259.138111,203.39902 254.722968,196.56698 249.578692,190.296207 C249.738218,189.65979 248.462008,189.26203 249.498929,188.227853 C260.272431,198.571804 269.99737,209.949725 278.532691,222.196586 C280.887706,225.176025 282.995122,228.342088 284.833975,231.663282 L284.275633,232.140595 C279.231854,229.71946 274.515056,226.672344 270.237331,223.071659 L268.16349,221.639722 L267.684912,221.241961 C267.286096,221.241961 267.684912,221.798826 267.684912,222.117034 C270.239134,226.027581 273.418609,229.494252 277.096956,232.379251 C290.623079,244.441936 302.574915,258.152858 312.671292,273.189462 C327.157399,294.387826 338.169425,317.749971 345.294393,342.399761 C349.221955,355.318161 349.634877,369.045808 346.490839,382.175795 C343.412256,394.682275 335.460122,405.447951 324.396465,412.087373 C324.336422,411.216701 250.548096,427.771427 251.253716,427.255301 C256.620738,421.780154 219.079964,406.479262 140.914783,410.019019 C120.948415,410.923208 159.997444,424.847867 158.196784,433.88464 C156.782418,440.982768 117.025472,442.537262 107.680164,441.839847 C101.109598,441.349503 9.3056932,437.862243 13.4001982,357.514654 Z M136.926629,398.086209 C146.838314,398.086209 109.009549,354.332572 105.021395,311.904802 C101.03324,269.477032 118.921234,235.004469 109.009549,235.004469 C99.0978635,235.004469 83.7512388,261.521825 90.3981625,311.904802 C97.0450862,362.287778 127.014943,398.086209 136.926629,398.086209 Z" id="Shape" fill="#FEFEFE" fill-rule="nonzero"></path>
                    <path d="M155.139199,72.9569061 C162.199677,85.8457507 164.99161,100.631691 163.115508,115.199054 C163.152296,115.569391 163.152296,115.942447 163.115508,116.312783 C162.477403,117.983377 162.238114,120.131283 160.244037,120.847251 C158.24996,121.56322 156.574935,119.972178 155.218963,118.540241 C151.759071,114.578423 148.86057,110.161872 146.604549,105.41415 C139.585398,92.685819 132.64601,79.8779361 126.264963,66.7518448 C126.05821,66.2367834 125.898047,65.7043164 125.786384,65.1608034 C127.301883,65.1608034 128.737618,66.6722927 130.33288,65.1608034 L124.430412,61.3423042 C123.680062,59.4693509 123.786232,57.3631242 124.721146,55.5746727 C125.65606,53.7862212 127.326693,52.4934966 129.29596,52.0347122 C136.120725,49.9839707 142.104446,45.8008696 146.36526,40.1019019 C150.193888,35.9651944 153.623701,31.5898306 157.292803,27.2940189 C158.409486,26.0211858 164.551243,18.9410518 165.428637,18.3046352 C170.588709,13.9606088 176.806932,11.0518128 183.455095,9.87211599 C191.330783,8.68319632 199.196292,12.0805078 203.714918,18.6228435 C205.397142,20.565452 208.538422,26.5001529 210.042789,33.4725629 C211.513255,40.2878461 211.368892,48.1348342 211.132885,50.7618791 C210.881621,55.298357 205.626899,83.5328637 203.714918,89.185528 C200.909711,99.0373392 197.500058,108.707887 193.505243,118.142481 C192.208994,121.563503 190.378418,124.758536 188.081353,127.609177 C185.050356,130.950364 182.418174,130.711708 180.105045,126.97276 C177.473336,122.203215 175.615766,117.048001 174.601392,111.698763 C171.401078,97.8652414 166.016355,84.6270136 158.648775,72.4795937 C155.365465,67.4676635 151.451795,62.8959716 147.003365,58.87619 C146.604549,58.87619 146.205734,57.7624611 145.408103,58.1602214 C149.981187,64.5243869 153.224885,69.4566151 155.139199,72.9569061 Z" id="Shape" fill="#C4C3C6" fill-rule="nonzero"></path>
                    <path d="M251.333479,56.0123156 C253.932931,57.1102963 255.173871,60.0806734 254.125187,62.6946893 C253.530992,64.6610626 252.614632,66.5158146 251.413243,68.183782 C250.216796,69.6952713 249.100113,71.2863127 247.903667,72.877354 C248.621535,73.5933227 248.940587,72.877354 249.498929,72.877354 C255.640686,69.297511 261.064576,64.9221472 266.967044,60.8649917 C267.763711,60.0500875 268.856869,59.5910282 269.998041,59.5921587 C277.04004,59.1988818 283.395702,63.778782 285.23279,70.5703441 C285.395887,70.9028529 285.681752,71.1594509 286.030421,71.2863127 C287.625683,71.9227292 288.024498,73.4342185 288.58284,74.7866037 C290.843986,78.9310346 289.438885,84.1161564 285.392317,86.5603098 C278.989898,84.7545081 272.153755,85.2616363 266.08965,87.992247 C265.371782,87.992247 264.813441,88.8673198 264.01581,88.6286636 C263.808289,88.1410899 263.407005,87.7614109 262.90789,87.580395 C262.408776,87.399379 261.856694,87.4332964 261.383628,87.6740387 L261.383628,87.6740387 C260.027656,86.4012057 259.469314,87.6740387 259.150262,88.6286636 C258.831209,89.5832884 259.150262,90.5379132 258.671683,91.492538 C256.790909,93.6281598 254.516334,95.383591 251.971584,96.6634225 C251.014427,94.4359645 250.934664,94.4359645 248.860824,96.2656621 L249.897744,96.6634225 C250.364709,96.7619188 250.717282,97.1455267 250.775138,97.6180473 C248.836328,100.094615 246.614542,102.337221 244.154802,104.300421 C237.693992,111.141899 231.073656,117.903825 224.45332,124.586198 C222.801442,126.760723 220.473133,128.327474 217.832984,129.041114 C214.801987,129.597979 214.084119,129.041114 214.801987,125.859032 C216.017737,121.527308 217.815411,117.379512 220.146113,113.528461 C221.567401,110.308282 223.360927,107.264685 225.49024,104.459525 L226.287871,104.459525 C227.404554,104.459525 229.239105,105.732358 229.558157,104.459525 C229.87721,103.186692 227.404554,103.823109 226.447397,102.948036 C228.760527,98.0953597 231.871287,93.7199959 234.423706,89.0264239 C234.902284,88.3104553 235.699915,87.6740387 235.540389,86.3216536 C233.031067,88.7515205 230.760755,91.4154088 228.760527,94.2768604 C224.373557,99.606849 220.146113,105.095942 215.759144,110.187274 C215.06261,111.05417 214.258552,111.82937 213.366251,112.494284 C211.850753,113.687565 210.654306,113.608013 210.175728,111.460107 C210.211029,111.01 210.211029,110.55783 210.175728,110.107722 C212.932786,96.767514 217.635624,83.9024262 224.134268,71.9227292 C228.617744,61.1536724 239.721065,54.6586888 251.333479,56.0123156 Z M269.678989,70.1725837 C267.12657,70.1725837 265.930124,72.877354 263.856284,74.0706351 C263.138416,74.0706351 262.021733,75.0252599 262.659837,76.2185409 C263.297942,77.4118219 264.175336,76.2185409 264.893204,76.2185409 C267.299568,74.8164314 270.144642,74.3624239 272.869512,74.9457078 C273.986195,74.9457078 275.023116,73.4342185 275.023116,72.0022813 C275.023116,70.5703441 274.145722,69.9339275 272.709986,70.5703441 C271.750761,71.0549147 270.611332,71.0250091 269.678989,70.490792 L269.678989,70.1725837 Z M240.246411,84.7306122 C241.003359,86.1844238 242.064133,87.4594114 243.357171,88.4695594 C243.59646,86.4012057 243.59646,86.4012057 240.246411,85.0488205 L240.246411,84.7306122 Z" id="Shape" fill="#C4C3C6" fill-rule="nonzero"></path>
                    <path d="M101.299117,51.9551601 C107.796659,53.6579341 113.460628,57.6404688 117.251734,63.1720017 C127.648932,78.078232 135.193666,94.7729813 139.505635,112.414732 C139.505635,112.414732 139.505635,113.130701 139.505635,113.528461 L131.529326,105.573254 C132.167431,105.573254 132.007905,104.857285 131.529326,104.459525 C125.491252,96.8388193 118.243372,90.2550538 110.073057,84.9692684 C107.853724,83.635516 92.0293761,79.9941139 86.4100083,73.248597 C85.692284,72.3870373 86.807502,70.1873315 86.4100083,69.2709936 C85.2063916,66.4963097 83.389185,58.7832845 85.0806235,56.0123156 C87.6658707,51.7770807 94.7461512,52.9507779 95.7157015,52.8302328 L101.299117,51.9551601 Z M121.558941,82.5827064 C122.371902,82.4327303 123.171943,82.2199505 123.951833,81.9462898 C124.749464,81.9462898 125.228043,80.9121129 124.669701,80.1165923 C124.11136,79.3210716 123.553018,79.4801757 123.074439,80.1165923 C122.595861,80.7530088 121.160125,81.3098733 120.442258,79.6392798 C119.72439,77.9686864 118.208891,77.7300302 116.693393,77.3322699 C115.177894,76.9345095 115.177894,77.3322699 115.257657,78.4459988 C117.035779,80.2603103 119.184973,81.671227 121.558941,82.5827064 L121.558941,82.5827064 Z M110.312346,77.8891343 C109.754004,77.8891343 109.1159,78.2868947 109.514715,78.684655 C109.913531,79.0824154 110.790924,81.5485295 112.386186,81.8667378 C113.981448,82.184946 113.183817,81.0712171 113.183817,80.4348005 C113.183817,79.798384 111.668318,78.2868947 110.312346,77.8891343 L110.312346,77.8891343 Z M109.355189,72.4795937 C110.950451,74.0706351 112.864765,73.9115309 114.460026,74.4683954 C113.183817,73.0364582 111.668318,71.9227292 109.355189,72.4795937 L109.355189,72.4795937 Z" id="Shape" fill="#C4C3C6" fill-rule="nonzero"></path>
                    <path d="M251.333479,56.0123156 C239.721065,54.6586888 228.617744,61.1536724 224.134268,71.9227292 C217.795723,83.8498523 213.228116,96.632115 210.574543,109.869066 C210.609844,110.319173 210.609844,110.771343 210.574543,111.221451 C209.693204,106.970605 209.693204,102.584862 210.574543,98.3340159 C211.626289,86.7117203 213.735399,75.2088703 216.875827,63.9675224 C217.838595,60.6569576 219.261567,57.4972116 221.10327,54.5803784 C223.231561,50.1191552 228.483827,48.0936517 233.067733,49.9663584 C238.092807,51.4778477 243.117882,53.0688891 248.063193,54.7394825 C249.269881,54.7648389 250.428531,55.2157988 251.333479,56.0123156 L251.333479,56.0123156 Z" id="Path" fill="#FEFEFE" fill-rule="nonzero"></path>
                    <path d="M101.299117,51.9551601 L95.7157015,52.8302328 C92.2039365,53.2136415 89.0604453,55.1767885 87.1810514,58.1602214 C86.7024729,58.87619 86.4631837,59.3535024 87.1810514,60.0694711 C89.4941809,61.9787207 87.6596299,62.5355852 86.0643683,63.0128976 L86.0643683,63.0128976 C86.0643683,60.9445438 84.4691066,59.5921587 84.1500542,57.6033569 L82.7143187,59.1148462 C81.1503275,60.9475523 80.5022738,63.3878873 80.9516449,65.7524354 C81.401016,68.1169834 82.8995007,70.1515345 85.0274482,71.2863127 C85.5060267,71.2863127 86.0643683,72.0818334 86.5429468,71.2863127 C86.742406,70.8853533 86.742406,70.414439 86.5429468,70.0134796 C85.7453159,68.5019903 86.5429468,67.3087093 87.1810514,65.876772 C88.2977346,67.7064696 90.7703902,69.0588548 89.2548916,71.8431772 C87.739393,74.6274995 89.8132332,73.6728747 90.6108641,74.1501871 C96.9919108,77.7300302 103.452721,81.0712171 109.674241,84.8101643 C117.844557,90.0959497 125.092437,96.6797152 131.130511,104.300421 C131.130511,104.698181 131.60909,105.095942 131.130511,105.41415 C119.331153,95.2039064 105.834543,87.1273642 91.2489687,81.5485295 C85.9846052,79.3210716 80.8000047,77.0140616 75.2963518,74.6274995 C73.2842698,73.8055983 71.7820253,72.0809694 71.2472818,69.9790265 C70.7125383,67.8770836 71.2086248,65.6467569 72.584407,63.9675224 C76.378242,57.8100518 82.5560824,53.4912458 89.6537071,52.0347122 C93.4647039,51.0145596 97.474467,50.9871681 101.299117,51.9551601 Z" id="Path" fill="#FEFEFE" fill-rule="nonzero"></path>
                    <path d="M285.392317,86.6398619 C289.438885,84.1957085 290.843986,79.0105867 288.58284,74.8661558 C288.024498,73.5137706 287.625683,72.0022813 286.030421,71.3658648 C285.681752,71.239003 285.395887,70.9824049 285.23279,70.6498961 C283.395702,63.8583341 277.04004,59.2784338 269.998041,59.6717107 C274.466573,57.1718282 279.867068,56.9646664 284.514923,59.1148462 C293.546986,64.1275537 298.483484,74.2285429 296.878201,84.4124039 C296.429051,87.3265965 294.823455,89.9381102 292.422941,91.6589151 C290.022427,93.3797201 287.028792,94.0651586 284.116107,93.5608918 C280.013962,93.0459361 275.886778,92.753814 271.752829,92.685819 C276.118885,90.287764 280.681888,88.2651281 285.392317,86.6398619 L285.392317,86.6398619 Z" id="Path" fill="#FEFEFE" fill-rule="nonzero"></path>
                    <path d="M191.431403,142.246758 C194.317426,145.150043 197.438781,147.81081 200.763684,150.201964 C195.052472,152.565742 188.461129,150.725048 184.811067,145.747049 C186.96467,141.530789 187.124196,141.451237 190.633772,142.246758 L191.431403,142.246758 Z" id="Path" fill="#C4C3C6" fill-rule="nonzero"></path>
                    <path d="M203.475629,142.246758 L211.451937,147.656298 C208.175023,149.18421 204.412021,149.299566 201.047206,147.97526 C197.682392,146.650953 195.01244,144.003748 193.664769,140.655716 C193.664769,140.655716 193.664769,140.655716 193.664769,140.257956 C195.632017,139.525828 197.833295,139.792843 199.567238,140.973924 C200.711208,141.782221 202.073827,142.22598 203.475629,142.246758 Z" id="Path" fill="#C4C3C6" fill-rule="nonzero"></path>
                    <path d="M169.017976,146.144809 C171.617896,149.19067 174.623617,151.86725 177.951442,154.100016 C178.350257,154.100016 179.068125,154.65688 178.908599,155.293297 C178.749073,155.929713 177.951442,156.009265 177.3931,156.16837 C172.955402,157.293342 168.252159,155.992023 165.029822,152.747631 C164.311954,148.610923 164.311954,148.690475 168.140582,146.94033 C168.459635,146.701673 168.698924,146.383465 169.017976,146.144809 Z" id="Path" fill="#C4C3C6" fill-rule="nonzero"></path>
                    <path d="M180.105045,144.474215 C182.892072,147.055965 185.849976,149.44792 188.958747,151.633902 C189.676615,152.111214 190.394483,152.827183 188.958747,153.384047 C184.041349,154.725415 178.789541,153.113749 175.478786,149.24734 C175.478786,145.587944 176.834758,144.553768 180.105045,144.474215 Z" id="Path" fill="#C4C3C6" fill-rule="nonzero"></path>
                    <path d="M151.549861,155.134193 L158.728538,158.236723 C156.189021,161.807138 151.234386,162.660351 147.64147,160.145973 C146.36526,159.111796 145.168814,157.918515 143.892605,156.804786 C142.616395,155.691057 143.892605,154.65688 145.806919,154.577328 C147.733333,154.60506 149.654167,154.791314 151.549861,155.134193 Z" id="Path" fill="#C4C3C6" fill-rule="nonzero"></path>
                    <path d="M158.728538,150.201964 C161.548845,152.025561 164.216345,154.074101 166.704847,156.327474 C166.704847,156.327474 167.82153,156.96389 167.502478,157.600307 C167.183425,158.236723 166.625084,158.157171 166.066742,158.316275 C165.006141,158.673945 163.857057,158.673945 162.796456,158.316275 C160.36488,157.744721 158.009025,156.890312 155.777304,155.770609 C154.580858,151.236141 154.979673,150.520173 158.728538,150.281516 L158.728538,150.281516 L158.728538,150.201964 Z" id="Path" fill="#C4C3C6" fill-rule="nonzero"></path>
                    <path d="M135.597244,131.109468 C136.370421,131.029657 137.097059,131.49084 137.352032,132.223197 C139.453613,135.635362 140.660526,139.520096 140.861607,143.519591 C140.861607,145.42884 140.861607,145.587944 138.309189,144.792424 L137.431795,144.156007 L137.431795,144.156007 C137.336489,143.610517 137.118309,143.09371 136.79369,142.644518 C134.700129,139.166497 134.261877,134.941267 135.597244,131.109468 Z" id="Path" fill="#C4C3C6" fill-rule="nonzero"></path>
                    <path d="M226.367634,141.610341 C221.907721,142.398376 217.451037,140.208138 215.360328,136.2008 C214.88175,133.89379 216.95559,132.620957 220.465166,133.09827 C218.790141,135.962144 220.943744,136.757665 222.858058,137.473633 C224.772372,138.189602 226.447397,139.064675 226.367634,141.610341 Z" id="Path" fill="#C4C3C6" fill-rule="nonzero"></path>
                    <path d="M143.094974,158.475379 C144.29142,159.668661 146.684313,160.702837 146.125971,162.293879 C145.567629,163.88492 143.094974,163.566712 141.340186,163.725816 C139.05456,164.186149 136.679266,163.819517 134.640087,162.691639 C134.640087,158.236723 135.038902,157.918515 139.425872,158.316275 C140.622318,158.475379 141.818764,159.430004 143.094974,158.475379 Z" id="Path" fill="#C4C3C6" fill-rule="nonzero"></path>
                    <path d="M203.714918,137.871394 C204.275922,136.302693 205.628434,135.147989 207.269001,134.837106 C208.909567,134.526223 210.592453,135.105727 211.691226,136.359905 C214.156819,139.124536 216.972088,141.55798 220.06635,143.599143 C221.10327,144.394663 221.023507,144.474215 220.06635,145.03108 C216.296931,143.655199 212.729097,141.782359 209.45786,139.462435 C208.057896,137.79824 205.774915,137.165756 203.714918,137.871394 Z" id="Path" fill="#FEFEFE" fill-rule="nonzero"></path>
                    <path d="M142.058054,134.450655 C142.058054,132.143645 142.935448,131.507228 144.929525,132.302749 C147.809369,133.311801 150.108402,135.517677 151.230808,138.348706 C151.651051,139.350158 151.651346,140.477811 151.231627,141.479481 C150.811909,142.481151 150.007192,143.273271 148.997442,143.678695 C148.034926,144.221408 146.886965,144.33212 145.83802,143.983397 C144.789076,143.634674 143.93731,142.859149 143.493789,141.848997 C145.089051,141.133029 147.561706,141.848997 147.960522,139.303331 C148.032111,137.516555 147.11263,135.8353 145.567629,134.927967 C144.524222,134.26417 143.241567,134.089725 142.058054,134.450655 Z" id="Path" fill="#C4C3C6" fill-rule="nonzero"></path>
                    <path d="M206.825678,161.100598 C203.847755,161.51764 200.815521,160.929599 198.211265,159.430004 C196.296951,158.395827 196.296951,156.96389 198.211265,155.929713 C200.025291,154.825469 202.174607,154.402384 204.27326,154.736432 C205.549469,156.884338 207.38402,158.475379 206.825678,161.100598 Z" id="Path" fill="#C4C3C6" fill-rule="nonzero"></path>
                    <path d="M203.714918,137.871394 C205.654774,137.339756 207.728813,137.957234 209.059045,139.462435 C212.330281,141.782359 215.898116,143.655199 219.667535,145.03108 C213.28837,147.226345 206.298207,144.089093 203.714918,137.871394 L203.714918,137.871394 Z" id="Path" fill="#C4C3C6" fill-rule="nonzero"></path>
                    <path d="M224.931898,160.305077 C222.147495,158.452652 220.662354,155.181642 221.10327,151.872558 C221.980664,150.04286 223.4164,149.24734 225.330714,150.917933 C225.330714,152.190766 226.048582,153.145391 226.447397,154.338672 C227.467031,156.430125 226.826954,158.950058 224.931898,160.305077 Z" id="Path" fill="#C4C3C6" fill-rule="nonzero"></path>
                    <path d="M143.094974,158.475379 C141.818764,159.748213 140.622318,158.475379 139.425872,158.475379 C135.038902,158.077619 134.640087,158.475379 134.640087,162.850743 C132.165282,161.760736 131.028023,158.889665 132.087668,156.407026 C133.613383,154.516551 136.304786,154.040855 138.388952,155.293297 C140.10535,156.118513 141.690939,157.190645 143.094974,158.475379 L143.094974,158.475379 Z" id="Path" fill="#FEFEFE" fill-rule="nonzero"></path>
                    <path d="M216.237722,160.861942 C214.478135,160.558076 212.890029,159.624703 211.77099,158.236723 C210.574543,156.884338 209.059045,155.213745 210.654306,153.384047 C211.349567,152.623124 212.334037,152.189483 213.366251,152.189483 C214.398466,152.189483 215.382935,152.623124 216.078196,153.384047 C217.028073,155.777087 217.084685,158.430772 216.237722,160.861942 Z" id="Path" fill="#C4C3C6" fill-rule="nonzero"></path>
                    <path d="M135.597244,131.109468 C134.110206,135.046756 134.522027,139.447449 136.713927,143.042278 C137.038546,143.491471 137.256726,144.008278 137.352032,144.553768 C134.723431,144.074214 132.549408,142.235594 131.645441,139.727574 C130.741474,137.219555 131.244206,134.421248 132.965062,132.382301 C133.762693,131.58678 134.480561,130.870812 135.597244,131.109468 Z" id="Path" fill="#FEFEFE" fill-rule="nonzero"></path>
                    <path d="M178.511357,313.687729 C190.701769,282.738946 202.855523,268.205936 214.972619,270.088697 C221.746636,271.141247 232.135219,281.369127 233.200285,277.451837 C234.992942,270.858485 222.413052,247.825306 209.551275,245.897798 C189.047967,242.825106 177.113861,263.602854 177.113861,285.442247 C177.113861,300.001842 177.579693,309.417003 178.511357,313.687729 Z" id="Oval" fill="#C4C3C6" transform="translate(205.242713, 279.641120) rotate(-9.000000) translate(-205.242713, -279.641120) "></path>
                    <path d="M203.789367,288.396167 C194.769894,303.356549 188.270387,321.822409 184.494468,343.215234 C184.544699,344.079909 184.544699,344.909776 184.494468,345.697268 C183.240361,336.932181 183.240361,328.883024 184.494468,322.044947 C185.991056,301.864336 188.992228,283.058885 193.460921,265.860835 C194.830898,260.837478 196.855726,256.594028 199.476389,253.254163 C202.504854,247.393184 209.9786,249.417703 216.5013,257.86594 C223.651762,266.133532 230.802225,274.547126 237.839188,283.019523 C239.556252,284.385245 241.20496,286.479561 242.492663,288.930725 C225.968702,273.75139 210.169158,273.533172 203.789367,288.396167 Z" id="Path" fill="#000000" fill-rule="nonzero"></path>
                    <path d="M142.058054,134.450655 C143.241567,134.089725 144.524222,134.26417 145.567629,134.927967 C147.11263,135.8353 148.032111,137.516555 147.960522,139.303331 C147.561706,141.610341 145.089051,141.133029 143.493789,141.848997 C142.186358,139.617183 141.679983,137.007832 142.058054,134.450655 L142.058054,134.450655 Z" id="Path" fill="#FEFEFE" fill-rule="nonzero"></path>
                    <path d="M224.931898,160.305077 C226.826954,158.950058 227.467031,156.430125 226.447397,154.338672 C226.048582,153.145391 225.250951,152.190766 225.330714,150.917933 C227.23565,152.247079 228.952659,153.825759 230.435551,155.611505 C231.051932,156.291583 231.304619,157.224862 231.115259,158.121943 C230.925898,159.019025 230.317379,159.771477 229.478394,160.145973 C228.122422,161.021046 226.52716,162.532535 224.931898,160.305077 Z" id="Path" fill="#FEFEFE" fill-rule="nonzero"></path>
                    <path d="M151.549861,155.134193 C149.654167,154.791314 147.733333,154.60506 145.806919,154.577328 C144.131894,154.577328 143.653315,155.372849 143.892605,156.804786 C142.227743,155.882256 140.741971,154.669841 139.505635,153.224943 C143.573552,150.04286 145.647392,150.440621 151.549861,155.134193 Z" id="Path" fill="#FEFEFE" fill-rule="nonzero"></path>
                    <path d="M226.367634,141.610341 C226.367634,139.064675 224.612846,138.269154 222.618769,137.473633 C220.624692,136.678113 218.550852,135.962144 220.225876,133.09827 C223.676971,132.847722 226.834611,135.035648 227.80337,138.348706 C228.202185,139.780643 228.361711,141.212581 226.367634,141.610341 Z" id="Path" fill="#FEFEFE" fill-rule="nonzero"></path>
                    <path d="M160.084511,137.075873 C161.015512,136.97279 161.938405,137.329094 162.557166,138.030498 C163.67385,139.064675 163.594086,140.0193 162.078588,140.496612 C160.010342,141.015225 157.84555,141.015225 155.777304,140.496612 C154.102279,140.496612 153.86299,138.826019 153.86299,137.473633 C153.86299,136.121248 153.86299,135.166623 155.538015,135.325728 C155.392379,136.870652 156.474303,138.26299 158.010671,138.50781 C159.526169,138.985123 159.924985,138.269154 160.084511,137.075873 Z" id="Path" fill="#C4C3C6" fill-rule="nonzero"></path>
                    <path d="M158.329723,150.04286 C154.580858,150.04286 154.182042,150.997485 155.378489,155.531953 C153.707264,154.711885 152.173564,153.638452 150.831993,152.34987 C148.997442,150.838381 149.795073,149.804204 151.549861,149.24734 C153.780324,148.221909 156.398775,148.529147 158.329723,150.04286 L158.329723,150.04286 Z" id="Path" fill="#FEFEFE" fill-rule="nonzero"></path>
                    <path d="M180.105045,144.474215 C176.834758,144.474215 175.797838,145.587944 175.159734,149.24734 C174.915788,149.134686 174.698368,148.972052 174.521629,148.770027 C173.325183,147.33809 170.772764,146.144809 173.085894,143.758247 C175.273521,142.203609 178.278245,142.510097 180.105045,144.474215 L180.105045,144.474215 Z" id="Path" fill="#FEFEFE" fill-rule="nonzero"></path>
                    <path d="M169.017976,146.144809 C169.017976,146.144809 168.459635,146.701673 168.140582,146.781225 C164.311954,148.531371 164.311954,148.451819 165.029822,152.588526 L164.551243,152.588526 C163.195271,150.997485 160.722615,149.724652 162.078588,147.019882 C163.43456,144.315111 166.226268,144.871976 169.017976,146.144809 Z" id="Path" fill="#FEFEFE" fill-rule="nonzero"></path>
                    <path d="M203.475629,142.246758 C202.073827,142.22598 200.711208,141.782221 199.567238,140.973924 C197.833295,139.792843 195.632017,139.525828 193.664769,140.257956 C194.433041,138.866596 195.82615,137.929407 197.407416,137.740157 C198.988682,137.550907 200.564559,138.13276 201.641078,139.303331 C202.482531,140.121853 203.112088,141.13194 203.475629,142.246758 Z" id="Path" fill="#FEFEFE" fill-rule="nonzero"></path>
                    <path d="M191.431403,142.246758 L190.31472,142.246758 C186.805144,141.451237 186.645618,141.530789 184.492015,145.747049 C183.455095,144.394663 181.700307,143.12183 183.774147,141.371685 C186.151512,139.577843 189.522493,139.963079 191.431403,142.246758 L191.431403,142.246758 Z" id="Path" fill="#FEFEFE" fill-rule="nonzero"></path>
                    <path d="M216.237722,160.861942 C217.155793,158.425995 217.155793,155.740441 216.237722,153.304495 C218.281499,154.755792 219.659724,156.960846 220.06635,159.430004 C220.465166,161.339254 219.268719,161.737014 216.237722,160.861942 Z" id="Path" fill="#FEFEFE" fill-rule="nonzero"></path>
                    <path d="M206.825678,161.100598 C207.463783,158.475379 205.549469,156.884338 204.27326,154.975088 C206.276388,154.721812 208.143218,156.032032 208.580466,157.998067 C209.138808,159.430004 208.819755,160.941494 206.825678,161.100598 Z" id="Path" fill="#FEFEFE" fill-rule="nonzero"></path>
                    <path d="M160.084511,137.075873 C160.084511,138.269154 159.207117,138.985123 158.010671,138.746467 C156.474303,138.501647 155.392379,137.109308 155.538015,135.564384 C157.216505,135.203228 158.958987,135.782518 160.084511,137.075873 Z" id="Path" fill="#FEFEFE" fill-rule="nonzero"></path>
                    <path d="M140.94137,112.971596 C140.926933,113.183491 140.926933,113.396118 140.94137,113.608013 L140.94137,113.608013 L140.94137,112.892044 L140.94137,112.971596 Z" id="Path" fill="#BFAF9F" fill-rule="nonzero"></path>
                    <path d="M158.728538,150.201964 L158.24996,150.201964 L158.728538,150.201964 Z" id="Path" fill="#FEFEFE" fill-rule="nonzero"></path>
                    <path d="M137.431795,144.474215 L138.309189,145.110632 C137.910373,145.110632 137.352032,145.190184 137.431795,144.474215 Z" id="Path" fill="#FEFEFE" fill-rule="nonzero"></path>
                    <path d="M170.214422,175.340418 C171.570395,175.897282 171.171579,177.249668 171.570395,178.12474 C171.705378,178.433761 171.650402,178.792634 171.429057,179.047356 C171.207713,179.302078 170.859355,179.407359 170.533475,179.318021 C169.656081,179.318021 168.539398,178.602053 168.619161,177.32922 C168.698924,176.056387 169.416792,175.897282 170.214422,175.340418 Z" id="Path" fill="#FEFEFE" fill-rule="nonzero"></path>
                    <path d="M194.739249,65.1916943 C194.703571,80.3148741 193.362501,95.4073513 190.730687,110.304274 C190.457778,112.525001 189.610497,114.638317 188.270887,116.439585 C187.268747,117.792962 186.175502,118.063638 184.900051,116.439585 C182.506184,113.793871 180.622582,110.735776 179.342726,107.417069 C174.423127,96.4998247 170.232357,85.1314546 164.85724,74.4848857 C162.476151,69.6474395 159.767219,64.9751306 156.749012,60.499986 C151.935095,52.4983324 152.776547,42.3533551 158.844396,35.2369412 C162.033025,31.71816 165.586069,28.4700542 169.048009,25.2219485 C171.278148,23.0714727 174.044738,21.5458401 177.065134,20.8009157 C182.075353,20.4372885 186.750034,23.3171198 188.635302,27.9287033 C193.300312,39.7844837 195.380485,52.4833954 194.739249,65.1916943 Z" id="Path" fill="#FEFEFE" fill-rule="nonzero"></path>
                    <path d="M322.402388,312.090423 C319.542525,307.734231 315.400313,304.210836 311.07603,301.19179 C309.720057,300.237165 309.241479,300.555373 309.321242,302.146415 C309.28158,302.702577 309.28158,303.260846 309.321242,303.817008 C310.372618,313.027596 309.941785,322.346565 308.045033,331.421576 C305.550872,344.903657 300.103764,357.670495 292.092416,368.811048 C284.337293,379.127291 274.10665,387.333922 262.340785,392.676668 C260.662687,392.916154 259.041551,393.455103 257.555,394.26771 C254.254367,395.86311 250.809031,397.141704 247.265562,398.086209 C239.000019,400.428509 230.486319,401.790301 221.900901,402.143365 C210.953287,402.818468 199.964796,402.338493 189.118274,400.711427 C172.9162,398.478012 157.473668,392.453639 144.052131,383.13042 C133.564239,376.030888 124.923832,366.540677 118.846996,355.4463 C117.65055,353.13929 116.37434,350.991385 115.177894,348.684375 C115.580355,365.340243 121.154097,381.461335 131.130511,394.824574 C98.5871725,377.879984 77.6094813,352.661978 74.8177733,315.272506 L74.8177733,312.249527 C74.8978607,312.044907 74.8978607,311.817731 74.8177733,311.613111 C72.889475,287.406762 81.0227717,263.474135 97.3109632,245.42579 C97.3109632,246.698623 94.3863167,268.151164 101.857459,291.168229 C102.399613,293.656312 103.48939,295.993135 105.047982,298.009707 C105.021395,282.73571 115.96582,241.918544 130.279705,219.094055 C138.931241,205.298578 155.552016,194.234902 157.452329,193.557842 C162.238114,192.046352 165.986979,194.114706 165.428637,198.092309 C164.604686,203.193566 164.257555,208.360121 164.391717,213.525411 C164.391717,219.65092 164.391717,225.696877 164.391717,231.822386 L168.379872,231.822386 C168.379872,226.810606 172.048973,223.071659 173.564472,218.457639 C175.33011,214.433257 177.355005,210.527044 179.626466,206.763485 C182.902384,200.352904 187.244557,194.542791 192.468323,189.580238 C195.677632,185.751642 200.713505,183.9557 205.629232,184.886666 C209.679858,185.843186 213.381845,187.909712 216.317485,190.853071 C225.167128,199.957875 232.348114,210.53931 237.534466,222.117034 C238.13819,223.537954 239.003989,224.833217 240.086885,225.935533 C240.362825,224.383112 240.362825,222.794383 240.086885,221.241961 C239.306533,213.816144 240.094497,206.309641 242.400014,199.206038 C243.516697,194.751123 245.111959,194.27381 248.462008,197.535445 C252.805274,201.481618 256.857141,205.735458 260.585997,210.263776 C261.418995,211.614878 262.60452,212.714775 264.01581,213.445859 C263.958989,212.434669 263.65798,211.452154 263.138416,210.581984 C259.536926,203.319468 255.121783,196.487428 249.977507,190.216655 C249.578692,189.65979 248.302482,189.26203 249.339402,188.227853 C242.439217,181.119277 234.339607,175.276058 225.410477,170.965054 C224.692609,170.965054 223.894978,169.771773 223.177111,170.40819 C222.459243,171.044606 223.177111,171.919679 223.575926,172.635648 C227.39365,182.17593 230.669132,191.923261 233.386785,201.831257 C234.742758,206.763485 234.902284,207.797662 234.343942,209.786464 L233.705838,208.752287 C230.147203,200.446161 225.87737,192.461404 220.943744,184.886666 C217.073227,178.060091 211.598931,172.272689 204.991127,168.021628 C202.141754,166.31709 198.761564,165.722164 195.49932,166.351034 C190.230431,167.616373 185.656987,170.866331 182.737227,175.41997 C176.542521,184.558548 172.231497,194.834366 170.054896,205.649756 C169.416792,208.51363 168.778687,211.377505 168.140582,214.480036 C167.582241,212.491234 168.539398,210.900192 168.539398,209.229599 C168.54839,199.814546 169.564473,190.427316 171.570395,181.227271 C173.484709,172.078783 167.981056,167.146555 158.888064,169.294461 C154.440783,170.517176 150.288908,172.628219 146.684313,175.499522 C136.05748,183.967164 127.127434,194.357989 120.362495,206.127068 C117.810076,210.263776 115.496946,214.082275 112.386186,219.25316 C116.778051,201.235701 125.543276,184.571196 137.910373,170.726398 C129.388937,174.658051 121.358025,179.570646 113.981448,185.363979 C113.981448,185.363979 104.169254,195.700591 94.3863167,207.161245 C86.2604016,216.680708 77.9780306,227.586468 76.9713766,228.401647 C76.4467855,228.71224 76.2692103,229.385241 76.5725612,229.913137 C76.9713766,230.629105 77.6892444,229.913137 78.327349,229.913137 L95.7157015,227.208366 C96.3029341,226.965287 96.9630199,226.965287 97.5502524,227.208366 C97.5502524,229.27672 95.4764122,229.992689 94.2002029,231.18597 C90.4513379,234.686261 86.6227098,238.107 83.1131341,241.845947 C77.1309028,248.289665 71.0689084,254.65383 65.5652555,261.495308 C62.1354429,265.79112 58.466341,269.927827 55.4353438,274.541847 C30.5758491,313.23067 23.7608193,337.858484 22.9717684,351.150489 C19.781674,404.889414 83.5472466,431.591568 124.962166,437.862243 C140.155249,440.162643 157.378291,434.986754 160.004748,434.123296 C162.238114,433.407327 162.158351,432.532255 160.642852,430.782109 C156.529169,426.271051 152.869127,421.368379 149.71531,416.144529 C150.628916,416.5345 151.48709,417.042693 152.267728,417.656018 C153.145122,418.371986 153.942753,419.167507 154.820147,419.803924 C167.007078,428.264087 180.666512,434.387826 195.100505,437.862243 C204.378482,440.253409 213.913869,441.508964 223.496163,441.60119 C253.34018,443.572431 283.105799,436.73864 309.081953,421.95183 C310.613924,421.44651 312.064648,420.723066 313.389159,419.803924 L319.052338,415.587664 L320.727363,414.155727 C321.477647,413.963235 322.164834,413.579428 322.72144,413.041998 C322.72144,412.405581 323.519071,412.485133 324.077413,412.326029 C324.01737,411.455357 324.408712,410.614697 325.114333,410.098571 C331.818021,403.401269 353.616342,359.636043 322.402388,312.090423 Z" id="Path" fill="#C4C3C6" fill-rule="nonzero"></path>
                    <polygon id="Path" fill="#BFAF9F" fill-rule="nonzero" points="113.821922 186.000395 113.742159 186.000395 113.821922 186.000395"></polygon>
                    <path d="M63.8410128,459.467011 C60.5923217,457.629641 68.4654477,399.836861 81.6224764,392.134894 C101.358019,380.581944 98.4137443,387.358713 123.526527,378.280761 C148.639311,369.202809 160.186764,367.729575 141.519236,379.496118 C129.074218,387.34048 89.4294545,411.342152 63.8410128,459.467011 Z" id="Rectangle-Copy-40" fill="#000000" transform="translate(106.923002, 415.269233) rotate(-118.000000) translate(-106.923002, -415.269233) "></path>
                    <path d="M291.750602,440.62784 C289.92381,438.790522 294.306871,381.125789 301.694547,373.454793 C312.77606,361.948298 311.126431,368.707731 325.231252,359.677314 C339.336073,350.646896 345.823719,349.189957 335.342491,360.910832 C328.355006,368.724749 306.095023,392.631465 291.750602,440.62784 Z" id="Rectangle-Copy-41" fill="#000000" transform="translate(315.926425, 396.569976) rotate(-182.000000) translate(-315.926425, -396.569976) "></path>
                </g>
            </g>
            <g id="Group-2" transform="translate(158.843425, 337.905447) rotate(14.000000) translate(-158.843425, -337.905447) translate(28.343425, 205.405447)">
                <path d="M172.407995,16.4057928 C193.795265,27.7020573 210.549826,51.7343752 214.82301,81.9347962 C219.183776,112.754204 208.7938,135.613452 218.430761,167.138452 C228.067722,198.663453 247.703714,209.799594 260.212373,225.115906 C183.008791,226.140195 124.649662,262.060677 114.230125,263.012926 C108.56399,263.503116 92.6867461,264.8388 87.179576,263.402164 C70.9292557,261.513648 58.4020427,258.770805 49.5979369,255.173633 C40.4743273,251.477538 31.2797168,244.629422 22.0141055,234.629284 C-4.79759162,203.158525 -7.27374637,143.157695 17.061796,87.7027909 C46.189896,21.4968392 103.873652,-15.882275 147.073233,6.96876054 C152.544736,9.82851232 166.164357,13.100891 172.407995,16.4057928 Z" id="Path" fill="#000000" fill-rule="nonzero"></path>
                <path d="M88.8607125,247.707323 C102.90097,246.958147 137.473217,224.371897 158.856131,187.856534 C178.688166,153.977158 186.085721,107.001087 182.476154,81.459756 C178.22153,51.3956254 172.800317,32.9992077 148.164674,16.3369922 C154.01135,17.0306732 160.516807,20.2909734 165.78705,23.0795707 C203.310084,42.7107404 210.419423,111.19092 183.12121,172.678796 C169.698559,202.992651 150.182189,226.60555 129.279636,240.423673 C110.833784,252.632457 103.944039,251.342211 99.0855335,250.135206 C93.2800311,248.817212 89.8763323,247.984795 88.8607125,247.707323 Z" id="Path" fill="#C4C3C6"></path>
                <path d="M159.638433,161.135945 C186.31904,100.092025 177.850966,34.622421 140.712221,14.8663887 C103.573475,-4.88964359 51.8317636,28.5735235 25.1374324,89.5896963 C-1.55689878,150.605869 6.924899,216.103221 44.0636446,235.859253 C81.2023903,255.615285 132.944102,222.179865 159.638433,161.135945 Z" id="Oval" fill="#D8D8D8"></path>
                <path d="M159.638433,161.135945 C186.31904,100.092025 177.850966,34.622421 140.712221,14.8663887 C103.573475,-4.88964359 51.8317636,28.5735235 25.1374324,89.5896963 C-1.55689878,150.605869 6.924899,216.103221 44.0636446,235.859253 C81.2023903,255.615285 132.944102,222.179865 159.638433,161.135945 Z" id="Oval-Copy" fill="#C4C3C6"></path>
                <path d="M123.858422,25.3964649 C93.5819722,21.9141868 58.3372202,51.7563395 40.3580048,98.8017788 C19.8809137,152.367819 29.5704756,207.890039 62.0016862,222.804178 C63.7775113,223.628257 65.6127455,224.314666 67.491523,224.857474 C63.2194978,224.381055 59.0498516,223.21961 55.1393903,221.416816 C22.7081797,206.488803 13.0186178,150.980457 33.5094335,97.414417 C52.861108,46.8173314 92.209513,16.0595199 123.844697,25.3964649 L123.858422,25.3964649 Z" id="Path" fill="#FFFFFF"></path>
                <path d="M53.602236,239.022438 C88.0097878,244.932599 130.240357,212.315723 153.791757,158.721936 C180.650783,97.6780157 173.143431,32.4720102 137.006581,13.1183128 C135.035068,12.0453738 132.989337,11.1180446 130.885413,10.3435892 C135.721572,11.1786708 140.395835,12.7848959 144.733526,15.1022402 C180.870377,34.5253057 188.391453,99.6480695 161.518702,160.775231 C136.141932,218.461736 89.1626536,251.841661 53.5747868,239.036311 L53.602236,239.022438 Z" id="Path" fill="#FFFFFF"></path>
                <path d="M99.1404319,213.467233 C116.227549,200.273422 131.516744,178.380853 140.904365,151.035951 C159.487462,96.8178514 147.835284,41.6285982 114.82764,27.7827273 C109.381116,25.4943857 103.511793,24.4156485 97.6170022,24.6195423 C108.775095,21.8448187 119.768493,22.7743511 129.595301,28.1573149 C161.161863,45.4577168 168.696664,101.978837 146.325579,154.40724 C134.742023,181.51629 117.503936,202.215729 99.0855335,213.49498 L99.1404319,213.467233 Z" id="Path" fill="#000000" fill-rule="nonzero"></path>
                <g id="Group-5" transform="translate(26.629143, 42.714929)" fill-rule="nonzero">
                    <path d="M1.4555229,120.804451 C6.98748889,119.43827 12.6043444,118.028487 18.2919411,116.647772 C18.8295747,116.516967 18.9852054,116.255358 19.0983914,115.383327 C22.7627883,88.9171964 23.4843491,60.7215379 27.148746,34.2699407 C27.148746,33.9065946 30.2047681,35.3309114 30.2613611,34.894896 C30.5160297,34.894896 30.5867709,35.2001068 30.6999569,35.3890467 C40.8018078,51.7541557 51.2243525,68.657017 61.9675908,86.0976305 C62.4203348,86.8243227 62.4203348,86.8243227 63.1135991,85.7778859 C80.3178718,60.0820487 98.8237836,30.1132611 109.44912,4.46102545 C109.618899,4.08314549 116.919396,5.31852228 117.145768,4.95517616 L117.301399,4.95517616 L117.145768,6.10334989 C113.089936,35.3551344 109.034104,64.6117636 104.978273,93.8732374 C104.780197,95.3266218 118.008811,86.330172 119.013337,86.0830967 C126.087463,84.3390353 119.932973,91.4315515 127.219323,89.6293547 C125.088603,95.8495553 122.613334,101.93949 119.805639,107.86933 C119.027485,109.526188 118.192739,111.153979 117.414585,112.810837 C117.244714,113.368983 116.796444,113.790633 116.24028,113.915409 C106.279912,116.114864 96.5364831,118.294941 87.0099943,120.455639 C86.3733231,120.600978 79.6387558,116.633238 79.7802383,115.674004 C82.2561821,97.8991123 91.3110625,83.8884861 93.7728581,66.1135942 L93.9709336,64.6602097 C93.6313756,65.1252928 93.4191519,65.4305035 93.2069281,65.7502481 C81.4827444,83.0745908 70.0320936,100.001675 58.8549756,116.531501 C58.3597869,117.243659 53.3654544,112.796303 53.0541929,112.273085 C45.9800676,100.369866 43.85783,93.2337482 37.0808179,81.839214 C36.9658158,81.6320268 36.8619075,81.4185463 36.7695564,81.1997249 L36.6139257,81.3305295 L36.4724432,82.3769663 L29.5539486,132.228053 C29.3841696,133.419828 29.3841696,133.419828 28.6484606,133.579701 L4.82280655,138.928156 C4.39835903,139.029893 4.18613527,138.928156 4.04465277,138.3032 C2.73337467,132.675157 1.89087007,126.94266 1.52626416,121.167798 C1.49416396,121.048598 1.47052153,120.927164 1.4555229,120.804451 Z" id="Path" fill="#000000"></path>
                    <path d="M1.75960309,116.699712 C7.02954715,115.366047 9.19461795,114.349715 14.6203937,113.001394 C15.1445548,112.869493 15.2862199,112.620347 15.3995521,111.784974 C18.9317368,86.0984845 22.4686437,60.4119949 26.0102728,34.7255053 L26.1661044,33.5970194 C26.4069352,33.5970194 26.4777678,33.9047882 26.5910999,34.0806562 L56.3407841,83.2650566 C56.7657796,83.983184 56.7657796,83.983184 57.4316059,82.9572877 C73.8836534,57.9840403 90.883473,32.1461089 108.431064,5.44349339 C108.657729,5.10641317 108.85606,4.74002163 109.068558,4.38828575 L109.224389,4.38828575 L109.068558,5.50211604 L97.3386822,90.7540997 C97.140351,92.2196658 97.0411854,92.0291422 97.990342,91.779996 L118.545957,86.6065474 C116.511313,92.6468581 114.146412,98.5626323 111.462699,104.325242 C110.72604,105.937365 109.918549,107.520177 109.18189,109.132299 C109.014312,109.666162 108.590383,110.07142 108.062735,110.202163 C98.5617248,112.35166 89.2637679,114.486501 80.1688645,116.606687 C79.5597043,116.738588 79.4322056,116.606687 79.5597043,115.610102 C81.9491234,98.3457324 84.3102094,81.0862482 86.6429624,63.8316493 L86.8271271,62.4540171 C86.5154638,62.9083426 86.3171325,63.2161115 86.1046348,63.5092247 C74.8941983,80.285072 63.9245925,96.6994131 53.1958175,112.752248 C52.742489,113.45572 52.5441577,113.499686 52.2466609,112.986738 C45.5317322,101.438077 38.9206913,90.1434471 32.4135381,79.1028487 C32.3049169,78.904981 32.210228,78.6992684 32.1302078,78.4873109 L31.9743761,78.6045562 L31.832711,79.6304525 L25.1602818,127.994136 C25.0044501,129.151933 25.0044501,129.151933 24.2961243,129.313145 C16.5706508,131.081595 12.2050478,132.464319 4.81957061,134.183917 C4.40874163,134.27185 4.21041041,134.183917 4.08291176,133.568379 C2.85637475,128.131093 2.07913669,122.595724 1.75960309,117.022137 C1.75249687,116.914788 1.75249687,116.807061 1.75960309,116.699712 Z" id="Path" fill="#C4C3C6"></path>
                    <path d="M2.06203664,119.167975 L2.06203664,118.845963 C6.92569306,117.514003 11.8545459,116.138132 16.8485953,114.791536 C17.3310492,114.659804 17.4614421,114.410976 17.5657564,113.562035 C20.8168869,87.9181517 24.0723638,62.2937846 27.3321872,36.6889334 C27.3321872,36.3376473 27.4234622,36.0009982 27.4756194,35.5911644 C26.9149298,34.6104908 26.3542402,33.6005434 25.8065898,32.6637805 C25.7022755,32.4881375 25.637079,32.224673 25.415411,32.1807622 L25.2719788,33.307805 C22.0208483,58.951688 18.7653714,84.6053289 15.5055481,110.268728 C15.4012337,111.103032 15.2708408,111.35186 14.788387,111.483592 C9.7943376,112.830189 4.86548471,114.206059 0.0148675792,115.538019 C0.00832679221,115.645231 0.00832679221,115.752819 0.0148675792,115.860031 C0.321690953,121.457657 1.05456355,127.015556 2.20546886,132.472935 C2.3228225,133.029138 2.50537261,133.175507 2.88351212,133.087685 L3.67890901,132.882768 C2.86443698,128.357445 2.32424067,123.775339 2.06203664,119.167975 L2.06203664,119.167975 Z" id="Path" fill="#FFFFFF"></path>
                    <path d="M59.5900382,81.42553 C60.0118717,82.1215987 60.0118717,82.1215987 60.6727442,81.121 L108.71958,8.35282374 C109.042986,5.94558634 109.380452,3.53834895 109.717919,1.10210869 L109.872592,9.09494702e-13 L109.717919,9.09494702e-13 C109.507003,0.348034322 109.310147,0.710570075 109.085169,1.04410297 C91.6493843,27.4753762 74.7760443,53.0413975 58.4651489,77.7421668 C58.1276821,78.2497168 57.9730098,78.5107426 57.8323986,78.5397454 L59.5900382,81.42553 Z" id="Path" fill="#FFFFFF"></path>
                    <path d="M95.5770319,95.343416 C95.3401749,96.7978691 95.1944168,96.6233347 96.4333609,96.3760777 L118.005564,92.1290745 C118.697915,90.6746214 119.372046,89.2201682 119.991518,87.7657151 L96.1054051,92.4199652 C95.9232075,93.4235378 95.7592296,94.3834769 95.5770319,95.343416 Z" id="Path" fill="#FFFFFF"></path>
                    <path d="M89.4684743,65.7906887 L89.6347388,64.3615244 L88.9824707,65.4714073 C88.1767278,66.8701639 87.3709849,68.2537165 86.5524524,69.6372692 C84.7107544,85.0742709 82.8605299,100.511273 81.0017791,115.948274 C80.886673,116.921322 81.0017791,117.118973 81.5517306,116.982138 L83.3806391,116.495614 C85.4099175,99.5889041 87.4391959,82.6872624 89.4684743,65.7906887 Z" id="Path" fill="#FFFFFF"></path>
                    <path d="M32.2952686,81.1126091 C32.1706321,80.9081056 32.0771547,80.67214 31.9680978,80.4519055 L31.8123021,80.5777538 L31.8123021,80.7036021 C38.2726277,91.5265559 44.862783,102.538282 51.582768,113.738781 C51.7541432,114.02194 51.8943593,114.132057 52.050155,114.084864 C45.3405563,102.884365 38.7555942,91.8936134 32.2952686,81.1126091 Z" id="Path" fill="#FFFFFF"></path>
                </g>
            </g>
        </g>
        <text id="Athens-Incentive-Str" font-family="PxGrotesk-Bold, Px Grotesk" font-size="120" font-weight="bold" line-spacing="80.666667" fill="#FFFFFF">
            <tspan x="120" y="627">Athens</tspan>
            <tspan x="524.648438" y="664.360677" font-family="PxGroteskRegular, Px Grotesk" font-size="96" font-weight="normal"></tspan>
            <tspan x="125.859375" y="745.027344" font-family="PxGroteskRegular, Px Grotesk" font-size="60" font-weight="normal">Incentive Structure</tspan>
        </text>
    </g>
</svg>