<?xml version="1.0" encoding="UTF-8"?>
<svg width="1310px" height="800px" viewBox="0 0 1310 800" version="1.1" xmlns="http://www.w3.org/2000/svg" xmlns:xlink="http://www.w3.org/1999/xlink">
    <!-- Generator: Sketch 59.1 (86144) - https://sketch.com -->
    <title>Introducing Jsgenesis </title>
    <desc>Created with Sketch.</desc>
    <g id="Introducing-Jsgenesis-" stroke="none" stroke-width="1" fill="none" fill-rule="evenodd">
        <rect fill="#000000" x="0" y="0" width="1310" height="800"></rect>
        <g id="Group" transform="translate(563.000000, 350.000000)" fill="#FFFFFF" fill-rule="nonzero">
            <path d="M87.4895041,76 C77.641402,76 67.0017723,72.3847479 59,66.3896921 L64.5397467,59.026344 C71.0025637,63.8770445 79.5759317,66.7863261 87.4895041,66.7863261 C97.0300423,66.7863261 104.767404,61.6281869 104.767404,55.2364971 C104.767404,51.3119085 102.569978,46.6395985 86.17067,41.7907958 C73.7284318,38.2191924 61.0225403,32.8428097 61.0225403,20.3222713 C61.0225403,8.948935 72.2335765,0 86.5223339,0 C94.5676383,0 103.537149,2.64492222 111.142021,7.22955527 L106.395127,15.1204834 C100.194638,11.3735261 92.941808,9.21329438 86.5223339,9.21329438 C77.3775594,9.21329438 70.2112254,14.1065049 70.2112254,20.3222713 C70.2112254,23.9365745 72.4094084,28.2122506 88.7646168,32.9301071 C100.546681,36.4125153 114,42.0545859 114,55.2364971 C113.956468,66.8736235 102.350425,76 87.4895041,76 L87.4895041,76 Z" id="Path"></path>
            <path d="M14.3905234,100 L11.045952,91.4040428 L25.5243808,85.76259 C30.1450954,83.9561107 33.8416672,80.5177278 35.954048,76.0205052 C37.1422859,73.4644888 37.8023339,70.5991697 37.8023339,67.7793921 L37.8023339,10.2124752 L0,10.2124752 L0,1 L46.6038575,1 L47,8.75780396 L47,67.823036 C47,72.010956 46.0756676,76.2406224 44.2715239,80.0319519 C41.1469053,86.6430589 35.689953,91.7569894 28.8689522,94.4021912 L14.3905234,100 Z" id="Path"></path>
            <path d="M174.734993,3.23829085 L174.734993,10.7352292 C168.52906,4.12554091 159.752589,0 150.000954,0 C131.249572,0 116,15.26009 116,34.0237291 C116,52.7885141 131.249572,68.048986 150.000954,68.048986 C159.752589,68.048986 168.52906,63.878185 174.734993,57.3145207 L174.734993,61.3955654 C174.734993,74.2593545 164.273454,84.7283705 151.418853,84.7283705 L132.489995,84.7283705 L132.489995,94 L151.418853,94 C169.372548,94 184,79.360183 184,61.3955654 L184,3.23829085 L174.734993,3.23829085 Z M150.000954,58.7773566 C136.346757,58.7773566 125.265007,47.6876856 125.265007,34.0237291 C125.265007,20.3614914 136.346757,9.2714385 150.000954,9.2714385 C163.653243,9.2714385 174.734993,20.3614914 174.734993,34.0237291 C174.734993,47.6876856 163.609351,58.7773566 150.000954,58.7773566 Z" id="Shape"></path>
        </g>
    </g>
</svg>