<svg width="413" height="176" viewBox="0 0 413 176" fill="none" xmlns="http://www.w3.org/2000/svg">
<g clip-path="url(#clip0_356_22946)">
<path fill-rule="evenodd" clip-rule="evenodd" d="M323.694 63.4102H315.694V55.4102H323.694V63.4102ZM315.694 69.8104V109.86H323.995L323.694 69.8104H315.694ZM271.402 89.2941C271.402 95.3045 273.13 100.194 276.584 103.964C280.088 107.682 284.456 109.54 289.689 109.54C291.161 109.54 292.608 109.324 294.031 108.892C295.453 108.459 296.596 107.975 297.46 107.44C298.323 106.905 299.135 106.281 299.897 105.568C300.659 104.854 301.155 104.358 301.384 104.077C301.612 103.797 301.777 103.581 301.878 103.429H302.259V109.809H310.259V55.4142H302.181L302.259 74.7769H301.878L300.659 73.3249C299.795 72.4079 298.348 71.4655 296.317 70.4975C294.285 69.5304 292.075 69.0464 289.689 69.0464C284.456 69.0464 280.101 70.9181 276.622 74.6625C273.142 78.406 271.402 83.2829 271.402 89.2941ZM278.675 89.2941C278.675 85.3201 279.767 82.1618 281.952 79.8192C284.136 77.4758 286.98 76.3046 290.485 76.3046C293.99 76.3046 296.834 77.4758 299.018 79.8192C301.202 82.1618 302.294 85.3201 302.294 89.2941C302.294 93.2664 301.202 96.4247 299.018 98.7673C296.834 101.111 293.99 102.282 290.485 102.282C286.98 102.282 284.136 101.111 281.952 98.7673C279.767 96.4247 278.675 93.2664 278.675 89.2941ZM201.702 77.0684V69.8102H206.273V61.4054H214.273V69.8102H226.082V77.0684H214.273V102.551H226.463V109.809H212.893C209.237 109.809 206.273 106.846 206.273 103.191V77.0684H201.702ZM172.762 97.0691H164L164.382 98.4437C164.585 99.3096 165.08 100.379 165.867 101.653C166.655 102.926 167.657 104.2 168.877 105.473C170.096 106.746 171.886 107.829 174.248 108.72C176.61 109.612 179.289 110.057 182.286 110.057C187.366 110.057 191.365 108.899 194.286 106.581C197.207 104.263 198.667 101.474 198.667 98.214C198.667 95.8213 198.07 93.7964 196.876 92.1403C195.682 90.485 194.171 89.275 192.343 88.5112C190.514 87.7473 188.559 87.0724 186.477 86.4863C184.394 85.9002 182.439 85.4549 180.61 85.1496C178.781 84.8433 177.27 84.347 176.077 83.6589C174.883 82.9716 174.286 82.118 174.286 81.0999C174.286 79.8767 174.871 78.8585 176.038 78.0428C177.207 77.2288 178.908 76.8213 181.143 76.8213C182.515 76.8213 183.746 76.9991 184.838 77.3555C185.93 77.7119 186.769 78.1079 187.352 78.54C187.937 78.9729 188.444 79.4824 188.877 80.0685C189.308 80.6537 189.575 81.0488 189.676 81.253C189.778 81.4563 189.854 81.6349 189.905 81.7871H198.285L197.981 80.5648C197.778 79.6989 197.308 78.6676 196.571 77.4708C195.835 76.274 194.908 75.0763 193.79 73.8795C192.673 72.6827 190.997 71.6637 188.762 70.8233C186.527 69.9829 183.987 69.5631 181.143 69.5631C176.572 69.5631 172.89 70.708 170.096 73.0013C167.302 75.2928 165.905 77.968 165.905 81.0233C165.905 83.8754 166.744 86.1933 168.419 87.977C170.096 89.759 172.128 91.02 174.515 91.7583C176.902 92.4967 179.289 93.0959 181.676 93.5535C184.064 94.012 186.095 94.5981 187.771 95.3109C189.448 96.0245 190.286 96.9925 190.286 98.214C190.286 99.5384 189.651 100.634 188.381 101.5C187.111 102.366 185.079 102.799 182.286 102.799C180.864 102.799 179.556 102.595 178.362 102.188C177.168 101.78 176.254 101.322 175.619 100.812C174.984 100.303 174.426 99.717 173.943 99.0544C173.461 98.3926 173.156 97.9341 173.029 97.6798C172.902 97.4255 172.813 97.2213 172.762 97.0691ZM328.266 89.2942C328.266 95.0494 330.196 99.863 334.056 103.734C337.917 107.605 342.717 109.54 348.456 109.54C354.196 109.54 358.996 107.605 362.856 103.734C366.716 99.863 368.646 95.0494 368.646 89.2942C368.646 83.5382 366.716 78.7246 362.856 74.8527C358.996 70.9816 354.196 69.0465 348.456 69.0465C342.717 69.0465 337.917 70.9816 334.056 74.8527C330.196 78.7246 328.266 83.5382 328.266 89.2942ZM336.647 89.2942C336.647 85.3202 337.739 82.1619 339.923 79.8194C342.107 77.4759 344.951 76.3047 348.455 76.3047C351.96 76.3047 354.805 77.4759 356.99 79.8194C359.174 82.1619 360.265 85.3202 360.265 89.2942C360.265 93.2665 359.174 96.4248 356.99 98.7674C354.805 101.111 351.96 102.282 348.455 102.282C344.951 102.282 342.107 101.111 339.923 98.7674C337.739 96.4248 336.647 93.2665 336.647 89.2942ZM259.179 69.8215L259.172 89.2942C259.172 97.0178 254.392 102.254 248.435 102.282L248.254 102.282L248.072 102.282C242.115 102.254 237.335 97.0178 237.335 89.2942V69.8215H230.062V89.2942C230.062 100.884 236.722 109.118 247.295 109.524C250.416 109.524 252.345 108.699 254.379 107.44C255.243 106.905 256.055 106.281 256.817 105.568C257.579 104.854 258.074 104.358 258.303 104.077C258.531 103.797 258.697 103.581 258.798 103.429H259.179L259.179 109.86H267.48L267.179 69.8103L259.179 69.8215Z" fill="black"/>
<path d="M108 132H108.131C111.834 132 115.33 130.291 117.603 127.368L126.848 115.483C130.21 111.161 130.22 105.111 126.872 100.778L117 88H148L117.603 48.6626C115.331 45.7219 111.824 44 108.108 44H108L95.4593 60.1238L117 88H86L95.8725 100.778C99.2201 105.111 99.2101 111.161 95.8483 115.483L95.5007 115.93L108 132Z" fill="black"/>
<path d="M108.125 44H77.869C74.1659 44 70.6703 45.7097 68.3968 48.6327L48.9115 73.6852C45.7283 77.778 44 82.815 44 88C44 93.185 45.7283 98.222 48.9115 102.315L68.3968 127.367C70.6703 130.29 74.1659 132 77.869 132H108.13L108.085 131.974C104.677 131.752 101.509 130.083 99.3968 127.367L79.9115 102.315C76.7283 98.222 75 93.185 75 88C75 82.815 76.7283 77.778 79.9115 73.6852L99.3968 48.6327C101.496 45.9335 104.638 44.2689 108.023 44.0298C108.059 44.0273 108.125 44.0423 108.125 44Z" fill="black"/>
</g>
<defs>
<clipPath id="clip0_356_22946">
<rect width="325" height="88" fill="white" transform="translate(44 44)"/>
</clipPath>
</defs>
</svg>
