<svg width="252" height="184" viewBox="0 0 252 184" fill="none" xmlns="http://www.w3.org/2000/svg">
<path d="M131 8C123.82 8 118 13.8203 118 21V88H110V21C110 9.40202 119.402 0 131 0C152.539 0 170 17.4609 170 39C170 60.2057 153.075 77.4585 131.997 77.9875L130.222 70H131C148.121 70 162 56.1208 162 39C162 21.8792 148.121 8 131 8Z" fill="black"/>
<path d="M128.889 64H131C144.807 64 156 52.8071 156 39C156 25.1929 144.807 14 131 14C127.134 14 124 17.134 124 21V22H131C140.389 22 148 29.6112 148 39C148 48.3888 140.389 56 131 56H127.111L128.889 64Z" fill="black"/>
<path d="M125.778 50H131C137.075 50 142 45.0751 142 39C142 32.9249 137.075 28 131 28H124V36H131C132.657 36 134 37.3431 134 39C134 40.6569 132.657 42 131 42H124L125.778 50Z" fill="black"/>
<path d="M104.123 18.4105C104.041 19.2627 104 20.1265 104 21V88H96V35C96 28.2549 99.18 22.2526 104.123 18.4105Z" fill="black"/>
<path d="M82 49C82 42.2549 85.18 36.2526 90.1226 32.4105C90.0415 33.2627 90 34.1265 90 35V88H82V49Z" fill="black"/>
<path d="M43.2021 172L43.2022 131.997H51.2102V172H43.2021Z" fill="black"/>
<path d="M43.2022 117.6V125.617H51.2102V117.6H43.2022Z" fill="black"/>
<path fill-rule="evenodd" clip-rule="evenodd" d="M33.6682 166.146C37.1177 162.379 38.8454 157.49 38.8512 151.476C38.8571 145.463 37.1177 140.588 33.6329 136.851C31.9861 135.031 29.9666 133.586 27.7117 132.616C25.4568 131.646 23.0194 131.172 20.5652 131.228C18.2765 131.2 16.011 131.69 13.9389 132.662C12.3334 133.342 10.8614 134.301 9.59179 135.496L8.38621 136.974H7.99901V132.002H0L0 184H7.99901V165.627H8.38621C8.53822 165.85 8.70274 166.064 8.879 166.269C9.34541 166.796 9.84196 167.295 10.3662 167.765C11.1075 168.465 11.9183 169.087 12.7861 169.622C15.1566 170.969 17.8301 171.693 20.5564 171.725C23.0125 171.783 25.4527 171.317 27.7139 170.356C29.9751 169.395 32.0051 167.963 33.6682 166.155V166.146ZM28.3002 142.017C30.4826 144.363 31.5738 147.519 31.5738 151.485C31.5738 155.451 30.4826 158.61 28.3002 160.963C26.0309 163.213 22.9645 164.475 19.7688 164.475C16.5731 164.475 13.5067 163.213 11.2374 160.963C9.04326 158.616 7.94917 155.457 7.95503 151.485C7.9609 147.514 9.05499 144.357 11.2374 142.017C13.5045 139.762 16.5717 138.497 19.7688 138.497C22.9659 138.497 26.0331 139.762 28.3002 142.017Z" fill="black"/>
<path fill-rule="evenodd" clip-rule="evenodd" d="M57.4198 159.299C58.4156 161.782 59.9087 164.036 61.8073 165.921C64.6645 168.718 68.2823 170.611 72.2089 171.365C76.1356 172.119 80.1973 171.699 83.8871 170.159C87.5769 168.619 90.7313 166.026 92.9566 162.704C95.1819 159.382 96.3796 155.478 96.4001 151.48C96.4562 148.793 95.9754 146.122 94.9859 143.623C93.9964 141.124 92.518 138.848 90.6375 136.928C88.757 135.007 86.5121 133.482 84.0344 132.44C81.5568 131.399 78.8961 130.862 76.2085 130.862C73.5208 130.862 70.8602 131.399 68.3826 132.44C65.9049 133.482 63.66 135.007 61.7795 136.928C59.899 138.848 58.4206 141.124 57.4311 143.623C56.4416 146.122 55.9608 148.793 56.0169 151.48C55.9466 154.155 56.4241 156.815 57.4198 159.299ZM64.3945 151.48C64.3886 147.514 65.4828 144.358 67.6769 142.011C69.9441 139.757 73.0113 138.491 76.2085 138.491C79.4057 138.491 82.4729 139.757 84.7401 142.011C86.9225 144.352 88.0137 147.508 88.0137 151.48C88.0137 155.452 86.9225 158.611 84.7401 160.958C82.4707 163.208 79.4043 164.47 76.2085 164.47C73.0127 164.47 69.9463 163.208 67.6769 160.958C65.4945 158.605 64.4004 155.446 64.3945 151.48Z" fill="black"/>
<path fill-rule="evenodd" clip-rule="evenodd" d="M145.725 165.918C143.85 164.033 142.375 161.78 141.392 159.296C140.409 156.813 139.937 154.152 140.007 151.478C139.951 148.79 140.426 146.119 141.403 143.62C142.38 141.122 143.84 138.845 145.697 136.925C147.554 135.005 149.771 133.479 152.218 132.438C154.665 131.396 157.292 130.86 159.946 130.86C162.6 130.86 165.228 131.396 167.674 132.438C170.121 133.479 172.338 135.005 174.195 136.925C176.052 138.845 177.512 141.122 178.489 143.62C179.466 146.119 179.941 148.79 179.886 151.478C179.881 152.365 179.819 153.247 179.702 154.12L148.459 154.12C148.848 156.873 149.868 159.151 151.521 160.955C153.762 163.205 156.79 164.468 159.946 164.468C163.102 164.468 166.13 163.205 168.371 160.955C168.932 160.345 169.419 159.68 169.834 158.96H178.437C177.919 160.266 177.266 161.521 176.485 162.702C174.288 166.023 171.173 168.616 167.529 170.157C163.885 171.697 159.874 172.116 155.997 171.363C152.119 170.609 148.546 168.715 145.725 165.918ZM151.521 142.009C150.275 143.358 149.388 144.975 148.861 146.86H171.021C170.495 144.973 169.611 143.356 168.371 142.009C166.132 139.754 163.103 138.489 159.946 138.489C156.789 138.489 153.76 139.754 151.521 142.009Z" fill="black"/>
<path fill-rule="evenodd" clip-rule="evenodd" d="M185.082 159.296C186.065 161.78 187.54 164.033 189.415 165.918C192.236 168.715 195.809 170.609 199.687 171.363C203.564 172.116 207.575 171.697 211.219 170.157C214.863 168.616 217.978 166.023 220.175 162.702C220.956 161.521 221.609 160.266 222.127 158.96H213.524C213.109 159.68 212.622 160.345 212.061 160.955C209.82 163.205 206.792 164.468 203.636 164.468C200.48 164.468 197.452 163.205 195.211 160.955C193.558 159.151 192.538 156.873 192.149 154.12L223.392 154.12C223.509 153.247 223.571 152.365 223.576 151.478C223.631 148.79 223.156 146.119 222.179 143.62C221.202 141.122 219.742 138.845 217.885 136.925C216.028 135.005 213.811 133.479 211.364 132.438C208.918 131.396 206.29 130.86 203.636 130.86C200.982 130.86 198.355 131.396 195.908 132.438C193.461 133.479 191.244 135.005 189.387 136.925C187.53 138.845 186.07 141.122 185.093 143.62C184.116 146.119 183.641 148.79 183.697 151.478C183.627 154.152 184.099 156.813 185.082 159.296ZM192.551 146.86C193.078 144.975 193.965 143.358 195.211 142.009C197.45 139.754 200.479 138.489 203.636 138.489C206.793 138.489 209.822 139.754 212.061 142.009C213.301 143.356 214.185 144.973 214.711 146.86H192.551Z" fill="black"/>
<path d="M236.191 139.257L236.103 172.002H228.104L228.183 137.787C228.186 136.251 228.798 134.778 229.885 133.692C230.972 132.607 232.446 131.997 233.983 131.997H251.803V139.257H236.191Z" fill="black"/>
<path d="M101.204 131.997V172.002H109.116V149.544C109.021 146.629 110.058 143.79 112.011 141.624C112.889 140.625 113.973 139.828 115.188 139.287C116.403 138.746 117.721 138.475 119.051 138.491C124.636 138.491 127.428 141.677 127.428 148.048V172.002H135.428L135.428 147.617C135.41 142.44 134.147 138.427 131.638 135.576L131.638 135.574C131.043 134.95 130.403 134.369 129.725 133.836C128.622 133.013 127.383 132.39 126.064 131.997C124.427 131.473 122.715 131.214 120.996 131.231C119.504 131.224 118.021 131.443 116.596 131.882C115.453 132.21 114.362 132.699 113.357 133.334C112.568 133.876 111.842 134.505 111.192 135.209C110.736 135.662 110.326 136.161 109.969 136.696C109.82 136.978 109.688 137.198 109.591 137.347H109.204V131.997H101.204Z" fill="black"/>
</svg>
