<svg width="85" height="85" viewBox="0 0 85 85" fill="none" xmlns="http://www.w3.org/2000/svg">
<path d="M79.8455 3.59687H53.8317C46.2477 3.59687 38.8846 6.19605 32.9867 10.9673L20.3811 21.0916L18.0985 13.8316C18.0985 13.8316 18.1869 2.52186 17.8408 2.04326C17.7598 1.92545 4.57985 -0.857807 4.57985 2.66176C4.57985 2.81638 5.03636 7.39623 5.05109 7.63922C4.18224 7.63922 3.48275 8.33871 3.48275 9.20756L3.3134 15.7607C3.3134 15.7607 3.3134 15.7534 3.30603 15.7534C3.15877 18.2421 3.2324 22.1887 3.2324 22.3139C3.23977 22.9545 3.34285 23.5583 3.79936 24.0516C4.19697 24.4786 3.74046 27.7258 3.96135 27.8804C4.12334 27.9908 4.77866 28.0129 4.77129 28.1749C4.7492 28.5504 5.61805 34.8164 5.61805 34.8164L4.80811 51.9946C4.65348 55.227 5.12472 58.4594 6.17765 61.5224C7.27475 64.6959 7.73862 68.0609 7.53246 71.4184C7.48828 72.1327 7.4441 72.8248 7.39992 73.4212C7.29684 74.7686 6.6857 76.0351 5.68432 76.9408L1.73033 80.5266C0.633227 81.528 0 82.9417 0 84.4217C0 84.429 0 84.4364 0 84.4438C1.5168 84.4364 76.4732 84.4364 79.632 84.4364C79.632 84.4364 79.551 84.1861 79.4037 83.7516C75.5749 72.3388 73.5059 60.4106 73.2703 48.3793C73.2703 43.6816 71.216 39.5951 68.0498 36.7971C66.025 35.0152 66.1649 31.8197 68.3149 30.185C73.3513 26.371 79.8382 19.1036 79.8382 6.99126V3.59687H79.8455ZM71.3117 67.4424C71.3264 67.4497 71.3338 67.4571 71.3485 67.4718C71.3411 67.4792 71.3338 67.4792 71.3264 67.4865C71.319 67.4792 71.3043 67.4792 71.3043 67.4718C71.3043 67.4571 71.3117 67.4497 71.3117 67.4424ZM66.8202 47.1496C67.0116 47.0318 69.5151 51.9136 69.5224 52.5983C69.5372 53.4451 70.0747 67.3393 69.9127 68.0756C69.7065 67.8252 67.6964 63.0613 67.1294 61.7507C66.9601 61.3604 66.6214 47.2748 66.8202 47.1496ZM21.3898 76.6536C21.3088 77.4488 18.879 80.4014 18.3562 80.4751C17.9439 80.534 14.3875 76.8819 14.4464 75.9026C14.5569 75.424 17.5684 68.8855 18.128 69.3199C18.2163 69.4009 21.4561 75.9615 21.3898 76.6536ZM43.781 73.7084C43.2141 75.3577 38.7152 82.0213 38.3986 82.0213C36.1381 82.0139 34.6213 82.0139 32.3608 82.0287C32.0295 82.0287 27.7736 73.4727 27.538 72.0369C27.5159 71.8897 27.0079 65.2481 27.4644 64.9242C28.3406 64.2983 42.7281 63.1349 43.1036 63.1644C43.4718 63.1938 43.9725 73.1561 43.781 73.7084ZM65.5096 73.1488C65.6936 73.7157 66.3637 77.7949 66.106 78.5606C65.8924 79.2012 60.7014 82.0139 60.6646 82.0139C58.4336 82.0139 56.2026 82.0139 53.9716 82.0139C53.677 82.0139 50.7981 76.2707 50.8202 76.1382C50.9674 75.2546 54.5312 66.6324 54.8036 66.4483C55.4295 66.0213 65.2224 72.2799 65.5096 73.1488Z" fill="black"/>
<path d="M83.9551 80.7233H83.959C83.959 80.7233 83.959 80.7194 83.9551 80.7233Z" fill="#4B4B4B"/>
<path d="M10.8174 40.792C10.8174 40.792 10.8174 40.7843 10.825 40.7843V40.7767C10.825 40.7844 10.8174 40.792 10.8174 40.792Z" fill="#787878"/>
<path d="M10.8906 40.6371C10.8906 40.6371 10.8945 40.6371 10.8906 40.6371C10.8945 40.6332 10.8945 40.6332 10.8945 40.6332L10.8906 40.6371Z" fill="#787878"/>
<path d="M84.9998 78.1872C84.9771 78.1948 84.9543 78.1948 84.9316 78.1948C84.9316 78.1948 84.9164 78.1493 84.924 78.1493C84.9467 78.1417 84.9695 78.1341 84.9922 78.1341C84.9998 78.1493 84.9998 78.172 84.9998 78.1872Z" fill="#4B4B4B"/>
<path d="M78.5693 76.0873C78.5775 76.0873 78.5938 76.0873 78.602 76.0873C78.5938 76.0873 78.5856 76.0873 78.5693 76.0873C78.5775 76.0791 78.5693 76.0873 78.5693 76.0873Z" fill="#A0A0A0"/>
<path d="M77.2537 76.7419C77.2394 76.7347 77.225 76.7275 77.2178 76.7203C77.225 76.7203 77.2322 76.7203 77.2394 76.7275C77.2466 76.7275 77.2465 76.7419 77.2537 76.7419Z" fill="#A0A0A0"/>
<path d="M78.5362 76.9355C78.5286 76.9052 78.5134 76.8748 78.5059 76.8521C78.5362 76.8597 78.5741 76.8597 78.6044 76.8673C78.5817 76.89 78.5589 76.9128 78.5362 76.9355Z" fill="#A0A0A0"/>
<path d="M77.917 84.6978L77.9209 84.6939L77.917 84.6978Z" fill="#4B4B4B"/>
<path d="M77.2451 76.7493C77.2451 76.7493 77.2533 76.7412 77.2451 76.7493C77.2533 76.7412 77.2451 76.7493 77.2451 76.7493Z" fill="#A0A0A0"/>
<path d="M78.7309 77.258C78.7227 77.258 78.7064 77.258 78.6982 77.2498C78.7064 77.258 78.7227 77.258 78.7309 77.258C78.7309 77.2661 78.7309 77.258 78.7309 77.258Z" fill="#787878"/>
<path d="M78.645 77.8543C78.6375 77.8467 78.6375 77.8391 78.6299 77.8316C78.645 77.8316 78.6602 77.824 78.6754 77.824C78.6678 77.8316 78.6526 77.8467 78.645 77.8543Z" fill="#787878"/>
<path d="M8.40136 23.0869C7.62088 21.8057 6.36915 20.8853 4.89653 20.5613C4.70509 20.5172 4.59464 20.4951 4.59464 20.4951C4.43265 20.4067 4.24121 20.5172 4.23385 20.7012L3.40918 21.9751C3.65216 22.0781 6.06726 22.4831 4.94071 23.6612V23.6686C4.94071 23.6759 4.94071 23.6833 4.93334 23.6907V23.698C4.93334 23.7054 4.93334 23.7128 4.93334 23.7201V23.7275C4.93334 23.7348 4.93334 23.7422 4.93334 23.7496V23.7569C4.93334 23.7643 4.93334 23.7643 4.94071 23.7717C4.94071 23.7717 4.94071 23.779 4.94807 23.779C4.94807 23.7864 4.95543 23.7864 4.95543 23.7937L4.9628 23.8011L4.97016 23.8085C4.97016 23.8085 4.97752 23.8085 4.97752 23.8158C4.98488 23.8158 4.98488 23.8232 4.99225 23.8232C4.99961 23.8232 4.99961 23.8232 5.00697 23.8306C5.01434 23.8306 5.01434 23.8306 5.0217 23.8379C5.02906 23.8379 5.03643 23.8379 5.04379 23.8379C5.05115 23.8379 5.05852 23.8379 5.06588 23.8379C5.07324 23.8379 5.0806 23.8379 5.08797 23.8379C5.09533 23.8379 5.10269 23.8379 5.11006 23.8379C5.11742 23.8379 5.13215 23.8379 5.14687 23.8306C5.15424 23.8306 5.1616 23.8306 5.1616 23.8306C5.18369 23.8306 5.19841 23.8232 5.2205 23.8158C5.24259 23.8085 5.26468 23.8085 5.27941 23.8085C5.28677 23.8085 5.3015 23.8085 5.30886 23.8085C5.3604 23.8085 5.41931 23.8158 5.47085 23.8232C5.48558 23.8232 5.50766 23.8306 5.52239 23.8306C5.60338 23.8453 5.67702 23.8747 5.69911 23.9631C5.72119 24.0588 5.6402 24.1177 5.5813 24.1766C5.57393 24.184 5.56657 24.1914 5.55184 24.1987C5.54448 24.2061 5.52975 24.2134 5.52239 24.2208C4.98488 24.7068 4.89653 24.7878 5.05115 25.259C5.06588 25.2958 5.13215 25.4946 5.1616 25.5683C5.26468 25.8554 5.00697 26.3929 4.99961 26.4076C4.97016 26.4592 6.78148 27.8508 6.78148 27.8508C6.79621 27.8508 6.84039 27.8508 6.84775 27.8508C6.85511 27.8508 6.86984 27.8508 6.8772 27.8508C6.88457 27.8508 6.88457 27.8508 6.89193 27.8435C6.89929 27.8435 6.90665 27.8361 6.91402 27.8361C6.92138 27.8361 6.92138 27.8287 6.92874 27.8287C6.93611 27.8287 6.94347 27.8214 6.95083 27.8214C6.9582 27.8214 6.98029 27.8066 6.98765 27.7993C6.99501 27.7919 6.99501 27.7919 7.00237 27.7845C7.00237 27.7845 7.37053 27.5416 7.93749 27.166C9.18185 26.3267 9.47638 24.6331 8.61489 23.4035C8.54126 23.3078 8.46763 23.1973 8.40136 23.0869Z" fill="#C4C3C6"/>
<path d="M43.8129 77.9865C43.8208 77.9945 43.8288 78.0025 43.8208 78.0105H43.7969C43.8049 78.0025 43.8129 77.9945 43.8129 77.9865Z" fill="#A0A0A0"/>
<path d="M62.1301 7.08708C47.772 7.08708 34.7393 12.7861 25.182 22.0489C22.2073 24.9352 18.2312 26.5625 14.0858 26.5625C14.0858 26.7613 14.1005 26.9527 14.1152 27.1442C14.557 32.1953 13.9459 37.2684 12.2156 42.0324C10.1539 47.702 9.02734 53.8207 9.02734 60.1972H11.9284C18.9602 60.1972 25.2409 55.8087 27.6634 49.2114C31.3376 39.2049 40.8728 32.5487 51.5345 32.5487H51.5566C65.6054 32.5487 76.9888 21.158 76.9888 7.11653V7.08708H62.1301Z" fill="#C4C3C6"/>
<path d="M66.8782 69.4158C66.8782 69.4158 67.3126 76.0425 67.3126 76.3813C67.3126 78.708 65.0227 80.8359 63.3733 82.0877H71.4728C70.9647 79.5253 69.5068 73.1857 68.7852 70.0416C68.5054 68.8341 68.0342 67.6781 67.3936 66.6178L67.077 66.095C65.5896 63.6357 65.0595 60.7199 65.5823 57.8999L57.5859 62.7742L66.8782 69.4158Z" fill="#C4C3C6"/>
<path d="M69.2208 82.0802C68.9705 80.0774 68.433 76.3517 68.352 76.3664C68.271 76.3812 66.6732 81.0715 65.4951 82.0802H69.2208Z" fill="white"/>
<path d="M48.5541 82.08C48.6866 81.7708 48.2743 80.0405 48.3111 79.8196C48.3479 79.5987 49.7542 75.711 50.4169 73.8776C50.6304 73.2959 50.5126 72.6479 50.115 72.1693C49.3198 71.2195 47.8104 71.3888 47.2434 72.4859C45.9475 75.0041 44.011 78.7078 43.7312 79.0023C43.7091 79.0244 43.687 79.0391 43.665 79.0538C43.665 79.0538 41.2204 80.9093 39.9834 82.0727H48.5541V82.08Z" fill="#C4C3C6"/>
<path d="M43.7234 79.0102C43.7013 79.0323 43.6792 79.047 43.6571 79.0618C43.6571 79.0618 41.2126 80.9173 39.9756 82.0806H46.4257C47.0515 80.6301 43.8412 78.8924 43.7234 79.0102Z" fill="white"/>
<path d="M22.7305 73.7009C22.7673 74.2605 23.2165 77.0879 22.9882 77.9126C22.7968 78.6121 20.8161 80.6958 19.5791 82.0801H27.0895C27.1778 80.9241 27.0674 79.4441 27.2809 79.3337C27.4723 79.2379 28.2749 78.914 28.2676 78.6562C28.2602 78.4427 26.1691 75.5196 26.0292 74.636C25.9335 74.0469 24.1958 64.8946 24.1958 64.8946L24.181 64.9167C22.1562 67.2361 21.5671 70.4758 22.6274 73.3695C22.6863 73.5463 22.7305 73.6714 22.7305 73.7009Z" fill="#C4C3C6"/>
<path d="M22.9921 77.9121C22.8007 78.6116 20.82 80.6954 19.583 82.0796H26.2098C25.2305 79.6793 23.213 77.0948 22.9921 77.9121Z" fill="white"/>
<path d="M2.09082 82.0801H9.06368C9.30666 81.3953 9.56437 80.7179 9.63064 80.7327C10.1681 80.902 10.875 79.9374 10.6394 79.8638C10.5069 79.8196 12.3992 73.1045 13.7245 68.4215C14.5124 65.6383 16.6035 63.4146 19.3279 62.4501L19.4677 62.3985C22.7296 61.2425 25.3582 58.7759 26.7204 55.5877L26.7278 55.5729C26.7278 55.5729 53.2497 55.4919 53.1613 55.5729C52.9257 55.7938 47.2782 64.6958 47.2782 64.6958C50.5621 64.7032 53.7136 63.3705 55.9888 61.0069C58.3008 58.6065 61.2313 55.6024 63.1383 53.7616C64.6183 52.3332 65.4577 50.3746 65.4577 48.3129C65.4577 46.9655 65.1485 45.6327 64.5594 44.4178L62.888 40.9793L64.0072 41.237C65.951 41.6788 67.6961 42.7611 68.9478 44.3074C70.2364 45.8978 70.9432 47.8785 70.9432 49.9254V51.3833L70.9138 51.3907C70.9285 51.3907 70.9359 51.3907 70.9506 51.3907V65.8813H70.9579C70.8549 70.7851 71.5102 75.7184 72.9239 80.4897C73.9842 80.1215 75.0445 79.7534 76.0974 79.3778C74.3082 74.9968 73.2037 70.3212 72.8576 65.5205C72.6809 65.5278 72.4968 65.5278 72.3201 65.5352V49.1523C72.3201 32.5853 43.0076 29.7432 28.9735 46.2439C28.9735 46.2439 9.00478 60.1307 9.0195 60.197C9.0195 60.2117 9.48338 63.341 10.0062 66.4777C10.6688 70.4022 9.42447 74.4004 6.64122 77.2425C4.8299 79.098 2.99648 81.0419 2.09082 82.0801Z" fill="#C4C3C6"/>
<path d="M31.5732 34.102L48.523 24.0587C54.8848 20.2888 59.3321 14.1259 60.9961 7.1015C47.0872 7.39603 34.489 13.0362 25.182 22.0486C22.2073 24.9349 18.2312 26.5622 14.0858 26.5622C14.0858 26.761 14.1005 26.9524 14.1152 27.1439C14.557 32.195 13.9459 37.2681 12.2156 42.0321C10.176 47.6354 9.0568 53.6731 9.02734 59.9759L9.12306 59.9465C14.13 58.5033 18.0177 54.5788 19.505 49.5792C21.4047 43.1733 25.668 37.6068 31.5732 34.102Z" fill="white"/>
<path d="M63.4508 37.0402L57.877 35.5234C48.4301 34.1023 36.5019 37.3863 28.9768 46.2441C28.9768 46.2441 28.8663 46.3251 28.6602 46.465H30.4862C35.6109 46.465 40.6031 44.8819 44.7927 41.9367C48.9823 38.9914 53.9745 37.4083 59.0992 37.4083H64.2829C64.0104 37.2758 63.7306 37.1506 63.4508 37.0402Z" fill="white"/>
<path d="M2.09082 82.0805C2.32644 81.7933 5.27904 79.9305 5.49257 79.8347C6.02272 79.577 8.76179 81.9332 9.06368 82.0805C9.07841 82.1173 4.10095 82.2646 2.09082 82.0805Z" fill="white"/>
<path d="M12.7383 13.8316C11.9652 13.8316 11.516 14.7152 11.9799 15.3411L12.0535 15.4368H3.9541C3.9541 16.4897 4.80822 17.3439 5.86115 17.3439H12.4069C13.6071 17.3439 13.7397 19.1404 12.5468 19.273C12.4217 19.2877 12.2891 19.2803 12.1492 19.2583L7.7461 18.3968C7.7461 21.0843 9.92558 23.2638 12.6131 23.2638H12.7456C15.3522 23.2638 17.458 21.1506 17.458 18.5514C17.458 15.9449 15.3448 13.8316 12.7383 13.8316Z" fill="#C4C3C6"/>
<path d="M31.5732 34.1023L45.2392 29.0659C55.1278 25.4212 62.6676 17.2408 65.4951 7.08708H60.9888C57.5282 15.2822 51.542 22.1594 43.9064 26.7245L31.5732 34.1023Z" fill="black"/>
</svg>
