<svg width="747" height="655" viewBox="0 0 747 655" fill="none" xmlns="http://www.w3.org/2000/svg">
<rect width="747" height="655" fill="black"/>
<path d="M514.357 232.032C509.371 231.676 504.563 231.32 499.754 230.43C487.288 227.937 475.891 230.252 469.124 241.827C478.384 245.567 488.357 247.704 498.864 247.882C528.96 248.594 553.535 235.594 568.316 207.635V207.457C552.467 220.279 539.467 233.813 514.357 232.032Z" fill="#FDFEFE"/>
<path d="M331.287 389.096V418.836H355.328C355.328 418.836 348.205 408.685 351.945 384.11C352.835 379.302 338.054 382.329 331.287 389.096Z" fill="#FDFEFE"/>
<path d="M444.726 418.836H454.521C454.521 418.836 449.356 406.192 449.356 391.055C449.356 381.616 442.945 380.014 442.945 391.055C442.945 409.219 444.37 418.48 444.726 418.836Z" fill="#FDFEFE"/>
<path d="M285.699 235.601H316.685C316.685 235.601 362.274 179.327 379.548 168.286C387.028 163.478 411.425 174.163 420.329 174.341C451.316 119.669 518.097 117.176 513.111 116.998C281.603 115.039 269.493 211.382 257.027 254.834C261.123 241.478 271.63 235.601 285.699 235.601Z" fill="#FDFEFE"/>
<path d="M426.562 384.109C435.11 320.533 390.589 331.574 361.384 291.862L357.11 286.163L332.356 252.684L301.37 253.752C287.123 254.286 274.835 264.081 271.274 277.793C260.233 318.93 238.15 419.013 238.15 419.013L269.849 418.835C269.849 418.835 266.822 411.712 272.698 385.533C272.698 385.355 281.603 347.78 281.603 347.78L307.959 318.218L294.603 373.78C294.603 373.78 398.247 333.533 398.069 345.465C397.357 369.684 397 411.712 397.535 418.479L429.946 418.657C429.946 418.835 423.179 408.862 426.562 384.109Z" fill="#FDFEFE"/>
<path d="M561.727 165.07C559.234 165.783 549.795 180.564 546.412 184.303C544.275 186.618 546.768 196.591 545.699 196.947C544.631 197.303 535.014 191.427 527.535 197.659C525.754 199.084 522.905 206.207 520.59 206.029C518.631 205.851 516.672 199.44 515.069 198.194C491.74 181.632 489.781 185.194 482.836 183.413C472.685 180.742 451.493 167.92 449.891 168.988C443.836 172.55 430.836 183.591 421.753 188.755C421.397 188.577 405.192 183.947 398.959 182.344C391.479 180.385 383.466 182.879 378.479 188.933C374.027 194.276 341.26 231.673 341.082 231.851C340.548 232.208 346.068 242.002 350.52 248.413C352.479 251.262 361.561 240.577 363.52 242.358C366.192 244.673 358 257.317 359.959 259.098C380.616 279.756 399.671 288.482 423.356 285.276C423.178 266.4 422.644 249.66 422.466 231.673C421.932 231.673 411.247 221.345 409.822 217.783C408.397 213.865 411.069 208.879 411.959 205.317C411.959 205.317 411.959 205.317 412.137 205.317L430.658 226.687L437.959 269.071L468.945 263.194C460.576 256.427 456.123 246.098 457.014 235.413L463.781 238.975L476.603 222.057C476.603 222.057 466.274 211.728 462.891 208.344C462.534 207.988 452.74 215.112 452.74 215.112L449.178 209.413C444.548 202.112 450.959 191.427 462.356 194.988C492.096 229.714 564.398 237.728 561.727 165.07Z" fill="#FDFEFE"/>
<path d="M521.124 112C521.124 112 583.453 126.069 572.768 186.261C572.768 186.261 577.933 129.986 513.467 129.986C513.467 129.986 515.782 122.151 516.85 121.438C516.85 121.438 522.015 118.589 522.015 116.63L521.124 112Z" fill="#FDFEFE"/>
<path d="M238.151 337.803C240.644 326.05 242.781 303.79 245.274 292.57C236.37 323.023 215 349.557 215 349.557L216.425 355.077C216.603 355.077 238.151 337.803 238.151 337.803Z" fill="#FDFEFE"/>
<path d="M220.5 477.199C205.9 477.199 194.1 488.999 194.1 503.599C194.1 518.199 205.9 529.999 220.5 529.999C235.1 529.999 246.9 518.199 246.9 503.599C246.9 488.999 235.1 477.199 220.5 477.199ZM220.5 517.799C212.6 517.799 206.3 511.399 206.3 503.599C206.3 495.799 212.7 489.399 220.5 489.399C228.3 489.399 234.7 495.799 234.7 503.599C234.7 511.399 228.4 517.799 220.5 517.799Z" fill="white"/>
<path d="M254.2 547.996L263.7 526.596L243.6 477.996H255.9L269.7 513.296L283.8 477.996H296L266.3 547.996H254.2Z" fill="white"/>
<path d="M316.6 529.998C309.8 529.998 304.3 528.198 300.3 524.798C296.5 521.698 294.4 517.498 294.1 512.498L294 510.398H305.3L305.5 512.198C305.9 515.798 307.8 517.998 311.5 519.298C312.9 519.698 314.4 519.998 315.7 519.998C317.2 519.998 318.6 519.898 319.9 519.698C321.1 519.498 322.4 519.198 323.5 518.798C326.4 517.698 326.7 515.898 326.7 514.498C326.7 513.198 326.3 512.298 325.3 511.698C323.9 510.798 322.2 509.998 320.1 509.398C317.8 508.798 315.3 508.198 312.7 507.598C309.9 506.998 307.2 506.298 304.7 505.298C302.1 504.198 299.9 502.798 298.2 500.898C296.3 498.898 295.3 496.098 295.3 492.698C295.3 487.798 297.1 483.898 300.8 481.098C304.3 478.498 309.3 477.098 315.9 477.098C322.2 477.098 327.2 478.698 330.9 481.698C334.1 484.398 335.9 487.898 336.4 492.298L336.7 494.498H325.5L325.3 492.698C325 490.298 323.6 487.098 315.4 487.098C306.5 487.098 306.5 490.598 306.5 491.898C306.5 493.098 306.9 493.898 307.9 494.498C309.3 495.398 311 496.098 313.2 496.698C315.5 497.298 318 497.898 320.7 498.398C323.6 498.998 326.3 499.798 328.7 500.798C331.3 501.898 333.5 503.398 335.2 505.298C337.1 507.398 338 510.198 338 513.598C338 518.898 336 522.998 331.9 525.798C328 528.698 322.9 529.998 316.6 529.998Z" fill="white"/>
<path d="M348 529.298V488.298H338.4V477.998H348V461.098H359.1V477.998H370V488.298H359.1V529.298H348Z" fill="white"/>
<path d="M373.7 529.297V477.997H384.8V483.997C386.6 481.897 389 480.297 391.8 478.997C394.1 477.897 397 477.297 400.2 477.297H402.7V488.397H399.8C395.3 488.397 391.7 490.197 388.9 493.797C386.1 497.397 384.8 501.497 384.8 506.497V529.297H373.7Z" fill="white"/>
<path d="M428.1 529.999C420.4 529.999 414.1 527.399 409.2 522.299C404.5 517.299 402.1 511.099 402.1 503.599C402.1 496.099 404.4 489.799 408.9 484.899C413.7 479.799 420 477.199 427.6 477.199C435.2 477.199 441.5 479.799 446.3 484.899C450.8 489.799 453.1 496.099 453.1 503.599V508.399H413.9C414.6 511.299 416 513.699 418.1 515.699C420.8 518.299 424.1 519.499 428.2 519.499C433.8 519.499 437.7 517.299 440.1 512.599L440.7 511.499H452.6L451.6 514.199C449.8 518.799 447 522.599 443.1 525.499C439.2 528.599 434.1 529.999 428.1 529.999ZM441.2 497.899C440.4 495.199 439.1 493.099 437.2 491.299C434.6 488.899 431.5 487.799 427.6 487.799C423.7 487.799 420.6 488.999 418 491.299C416.1 493.099 414.8 495.299 414 497.899H441.2Z" fill="white"/>
<path d="M577.2 529.297V498.897C577.2 495.497 576.3 492.797 574.4 490.597C572.6 488.597 570.3 487.697 567.5 487.697C564.4 487.697 561.9 488.697 559.9 490.597C557.8 492.597 556.7 495.397 556.7 498.997V529.297H545.6V498.897C545.6 495.497 544.7 492.797 542.8 490.597C541 488.597 538.7 487.697 535.9 487.697C532.8 487.697 530.3 488.697 528.3 490.597C526.2 492.597 525.1 495.397 525.1 498.997V529.297H514V477.997H525.1V481.597C528.3 478.697 532.5 477.297 537.5 477.297C541 477.297 544.3 478.197 547.3 480.097C549.4 481.397 551.1 483.097 552.6 485.097C554.9 482.097 558 479.897 561.8 478.497C563.8 477.697 566.2 477.297 568.7 477.297C571.3 477.297 573.8 477.797 576.1 478.797C578.4 479.797 580.6 481.297 582.4 483.197C586.3 487.397 588.3 492.597 588.3 498.797V529.397H577.2V529.297Z" fill="white"/>
<path d="M189.4 477.996H161V487.896H178.4V528.696C178.4 531.996 176.4 534.896 173.4 535.996L166.4 538.696L169.4 549.396L179.9 545.296C183.5 543.896 186.4 541.196 188 537.696C189 535.696 189.4 533.496 189.4 531.296V477.996Z" fill="white"/>
<path d="M506 478.097H495.1V481.397C491 478.697 486.2 477.297 480.6 477.297C473 477.297 466.7 479.897 461.9 484.997C457.4 489.897 455.1 496.197 455.1 503.697C455.1 511.197 457.4 517.497 461.9 522.397C466.7 527.497 473 530.097 480.6 530.097C486.1 530.097 491 528.697 495.1 525.997V529.297H506V478.097ZM491.2 514.997C488.6 518.097 485.2 519.597 480.6 519.597C476.1 519.597 472.6 518.097 470 514.997C467.5 511.997 466.2 508.297 466.2 503.597C466.2 498.897 467.4 495.197 470 492.197C472.6 489.097 476 487.597 480.6 487.597C485.1 487.597 488.6 489.097 491.2 492.197C493.7 495.197 495 498.897 495 503.597C495 508.297 493.8 511.997 491.2 514.997Z" fill="white"/>
</svg>
