<svg width="413" height="176" viewBox="0 0 413 176" fill="none" xmlns="http://www.w3.org/2000/svg">
<g clip-path="url(#clip0_356_22927)">
<path fill-rule="evenodd" clip-rule="evenodd" d="M323.694 63.4102H315.694V55.4102H323.694V63.4102ZM315.694 69.8104V109.86H323.995L323.694 69.8104H315.694ZM271.402 89.2941C271.402 95.3045 273.13 100.194 276.584 103.964C280.088 107.682 284.456 109.54 289.689 109.54C291.161 109.54 292.608 109.324 294.031 108.892C295.453 108.459 296.596 107.975 297.46 107.44C298.323 106.905 299.135 106.281 299.897 105.568C300.659 104.854 301.155 104.358 301.384 104.077C301.612 103.797 301.777 103.581 301.878 103.429H302.259V109.809H310.259V55.4142H302.181L302.259 74.7769H301.878L300.659 73.3249C299.795 72.4079 298.348 71.4655 296.317 70.4975C294.285 69.5304 292.075 69.0464 289.689 69.0464C284.456 69.0464 280.101 70.9181 276.622 74.6625C273.142 78.406 271.402 83.2829 271.402 89.2941ZM278.675 89.2941C278.675 85.3201 279.767 82.1618 281.952 79.8192C284.136 77.4758 286.98 76.3046 290.485 76.3046C293.99 76.3046 296.834 77.4758 299.018 79.8192C301.202 82.1618 302.294 85.3201 302.294 89.2941C302.294 93.2664 301.202 96.4247 299.018 98.7673C296.834 101.111 293.99 102.282 290.485 102.282C286.98 102.282 284.136 101.111 281.952 98.7673C279.767 96.4247 278.675 93.2664 278.675 89.2941ZM201.702 77.0684V69.8102H206.273V61.4054H214.273V69.8102H226.082V77.0684H214.273V102.551H226.463V109.809H212.893C209.237 109.809 206.273 106.846 206.273 103.191V77.0684H201.702ZM172.762 97.0691H164L164.382 98.4436C164.585 99.3096 165.08 100.379 165.867 101.653C166.655 102.926 167.657 104.2 168.877 105.473C170.096 106.746 171.886 107.829 174.248 108.72C176.61 109.612 179.289 110.057 182.286 110.057C187.366 110.057 191.365 108.899 194.286 106.581C197.207 104.263 198.667 101.474 198.667 98.214C198.667 95.8213 198.07 93.7964 196.876 92.1403C195.682 90.485 194.171 89.275 192.343 88.5112C190.514 87.7473 188.559 87.0724 186.477 86.4863C184.394 85.9002 182.439 85.4549 180.61 85.1496C178.781 84.8433 177.27 84.347 176.077 83.6589C174.883 82.9716 174.286 82.118 174.286 81.0999C174.286 79.8767 174.871 78.8585 176.038 78.0428C177.207 77.2288 178.908 76.8213 181.143 76.8213C182.515 76.8213 183.746 76.9991 184.838 77.3555C185.93 77.7119 186.769 78.1079 187.352 78.54C187.937 78.9729 188.444 79.4824 188.877 80.0685C189.308 80.6537 189.575 81.0488 189.676 81.253C189.778 81.4563 189.854 81.6349 189.905 81.7871H198.285L197.981 80.5648C197.778 79.6989 197.308 78.6676 196.571 77.4708C195.835 76.274 194.908 75.0763 193.79 73.8795C192.673 72.6827 190.997 71.6637 188.762 70.8233C186.527 69.9829 183.987 69.5631 181.143 69.5631C176.572 69.5631 172.89 70.708 170.096 73.0013C167.302 75.2928 165.905 77.968 165.905 81.0233C165.905 83.8754 166.744 86.1933 168.419 87.977C170.096 89.759 172.128 91.02 174.515 91.7583C176.902 92.4966 179.289 93.0959 181.676 93.5535C184.064 94.012 186.095 94.5981 187.771 95.3109C189.448 96.0245 190.286 96.9925 190.286 98.214C190.286 99.5384 189.651 100.634 188.381 101.5C187.111 102.366 185.079 102.799 182.286 102.799C180.864 102.799 179.556 102.595 178.362 102.188C177.168 101.78 176.254 101.322 175.619 100.812C174.984 100.303 174.426 99.717 173.943 99.0544C173.461 98.3926 173.156 97.9341 173.029 97.6798C172.902 97.4255 172.813 97.2213 172.762 97.0691ZM328.266 89.2942C328.266 95.0494 330.196 99.863 334.056 103.734C337.917 107.605 342.717 109.54 348.456 109.54C354.196 109.54 358.996 107.605 362.856 103.734C366.716 99.863 368.646 95.0494 368.646 89.2942C368.646 83.5382 366.716 78.7246 362.856 74.8527C358.996 70.9816 354.196 69.0465 348.456 69.0465C342.717 69.0465 337.917 70.9816 334.056 74.8527C330.196 78.7246 328.266 83.5382 328.266 89.2942ZM336.647 89.2942C336.647 85.3202 337.739 82.1619 339.923 79.8194C342.107 77.4759 344.951 76.3047 348.455 76.3047C351.96 76.3047 354.805 77.4759 356.99 79.8194C359.174 82.1619 360.265 85.3202 360.265 89.2942C360.265 93.2665 359.174 96.4248 356.99 98.7674C354.805 101.111 351.96 102.282 348.455 102.282C344.951 102.282 342.107 101.111 339.923 98.7674C337.739 96.4248 336.647 93.2665 336.647 89.2942ZM259.179 69.8215L259.172 89.2942C259.172 97.0178 254.392 102.254 248.435 102.282L248.254 102.282L248.072 102.282C242.115 102.254 237.335 97.0178 237.335 89.2942V69.8215H230.062V89.2942C230.062 100.884 236.722 109.118 247.295 109.524C250.416 109.524 252.345 108.699 254.379 107.44C255.243 106.905 256.055 106.281 256.817 105.568C257.579 104.854 258.074 104.358 258.303 104.077C258.531 103.797 258.697 103.581 258.798 103.429H259.179L259.179 109.86H267.48L267.179 69.8103L259.179 69.8215Z" fill="white"/>
<path d="M115 88L81 44H109.108C112.824 44 116.331 45.7219 118.603 48.6626L148 86.7059L146.47 88H115Z" fill="url(#paint0_linear_356_22927)"/>
<path d="M115 88L81 44H109.108C112.824 44 116.331 45.7219 118.603 48.6626L148 86.7059L146.47 88H115Z" fill="url(#paint1_radial_356_22927)"/>
<path d="M115 88H83.53L82.5455 90L92.8027 103.274C95.8638 107.236 95.8638 112.764 92.8027 116.726L81 132H109.108C112.824 132 116.331 130.278 118.603 127.337L125.858 117.949C129.475 113.267 129.475 106.733 125.858 102.051L115 88Z" fill="url(#paint2_linear_356_22927)"/>
<path d="M115 88H83.53L82.5455 90L92.8027 103.274C95.8638 107.236 95.8638 112.764 92.8027 116.726L81 132H109.108C112.824 132 116.331 130.278 118.603 127.337L125.858 117.949C129.475 113.267 129.475 106.733 125.858 102.051L115 88Z" fill="url(#paint3_radial_356_22927)"/>
<path d="M115 88H83.53L82.5455 90L92.8027 103.274C95.8638 107.236 95.8638 112.764 92.8027 116.726L81 132H109.108C112.824 132 116.331 130.278 118.603 127.337L125.858 117.949C129.475 113.267 129.475 106.733 125.858 102.051L115 88Z" fill="url(#paint4_radial_356_22927)"/>
<path d="M77.869 44C74.1659 44 70.6703 45.7097 68.3968 48.6327L48.9115 73.6852C45.7283 77.778 44 82.815 44 88C44 93.185 45.7283 98.222 48.9115 102.315L68.3968 127.367C70.6703 130.29 74.1659 132 77.869 132H109.108C109.572 132 110.033 131.973 110.488 131.92C107.309 131.552 104.385 129.924 102.397 127.367L81.1222 100.014C78.4505 96.5792 77 92.3517 77 88C77 83.6483 78.4505 79.4208 81.1222 75.9858L102.397 48.6327C104.385 46.0761 107.309 44.4477 110.488 44.0796C110.033 44.0269 109.572 44 109.108 44H77.869Z" fill="url(#paint5_linear_356_22927)"/>
<path d="M77.869 44C74.1659 44 70.6703 45.7097 68.3968 48.6327L48.9115 73.6852C45.7283 77.778 44 82.815 44 88C44 93.185 45.7283 98.222 48.9115 102.315L68.3968 127.367C70.6703 130.29 74.1659 132 77.869 132H109.108C109.572 132 110.033 131.973 110.488 131.92C107.309 131.552 104.385 129.924 102.397 127.367L81.1222 100.014C78.4505 96.5792 77 92.3517 77 88C77 83.6483 78.4505 79.4208 81.1222 75.9858L102.397 48.6327C104.385 46.0761 107.309 44.4477 110.488 44.0796C110.033 44.0269 109.572 44 109.108 44H77.869Z" fill="url(#paint6_radial_356_22927)" fill-opacity="0.5"/>
<path d="M115 88H83.532L82.55 90H114.018L115 88Z" fill="url(#paint7_linear_356_22927)"/>
<path d="M82.7137 89.6667H114.182L114.018 90H82.55L82.7137 89.6667Z" fill="#2825A2"/>
<path d="M109.222 44.0005C112.896 44.0354 116.354 45.7521 118.603 48.6626L148 86.7059L146.472 88L117.02 49.8855C115.15 47.4651 112.276 46.0355 109.222 46.0007C106.178 46.0353 103.313 47.455 101.442 49.861L81.1193 75.9932C78.4495 79.4262 77 83.6511 77 88C77 92.3489 78.4495 96.5738 81.1193 100.007L101.442 126.139C103.313 128.545 106.178 129.965 109.222 129.999C112.276 129.965 115.15 128.535 117.02 126.114L124.275 116.726C127.336 112.764 127.336 107.236 124.275 103.274L114.018 90L115 88L125.858 102.051C129.475 106.733 129.475 113.267 125.858 117.949L118.603 127.337C116.354 130.248 112.896 131.965 109.222 131.999C105.561 131.965 102.113 130.26 99.8633 127.367L79.5405 101.235C76.5977 97.4506 75 92.7936 75 88C75 83.2064 76.5977 78.5495 79.5405 74.7654L99.8633 48.6332C102.113 45.74 105.561 44.0353 109.222 44.0005Z" fill="url(#paint8_linear_356_22927)"/>
<path d="M109.388 44.0033C109.333 44.002 109.277 44.0011 109.222 44.0005C105.561 44.0353 102.113 45.74 99.8633 48.6332L79.5405 74.7654C76.5977 78.5495 75 83.2064 75 88C75 92.7936 76.5977 97.4506 79.5405 101.235L99.8633 127.367C102.113 130.26 105.561 131.965 109.222 131.999C109.277 131.999 109.333 131.998 109.389 131.997C105.79 131.913 102.413 130.216 100.197 127.367L79.874 101.235C76.9312 97.4506 75.3335 92.7936 75.3335 88C75.3335 83.2064 76.9312 78.5495 79.874 74.7654L100.197 48.6332C102.413 45.7839 105.79 44.0874 109.388 44.0033Z" fill="url(#paint9_linear_356_22927)"/>
<path d="M146.674 87.8293L117.354 49.8855C115.484 47.4651 112.61 46.0355 109.555 46.0007C109.5 46.0013 109.444 46.0024 109.388 46.0039C112.381 46.0879 115.184 47.5092 117.02 49.8855L146.472 88L146.674 87.8293Z" fill="url(#paint10_linear_356_22927)"/>
<path d="M109.388 129.996C109.444 129.998 109.5 129.999 109.555 129.999C112.61 129.965 115.484 128.535 117.354 126.114L124.609 116.726C127.67 112.764 127.67 107.236 124.609 103.274L114.351 90L115.204 88.2639L115 88L114.018 90L124.275 103.274C127.336 107.236 127.336 112.764 124.275 116.726L117.02 126.114C115.184 128.491 112.381 129.912 109.388 129.996Z" fill="url(#paint11_linear_356_22927)"/>
</g>
<defs>
<linearGradient id="paint0_linear_356_22927" x1="115" y1="44" x2="148" y2="88" gradientUnits="userSpaceOnUse">
<stop stop-color="#1C1974"/>
<stop offset="1" stop-color="#07072A"/>
</linearGradient>
<radialGradient id="paint1_radial_356_22927" cx="0" cy="0" r="1" gradientUnits="userSpaceOnUse" gradientTransform="translate(115 44) rotate(90) scale(17 42.4068)">
<stop offset="0.223958" stop-color="#04041F"/>
<stop offset="0.401042" stop-color="#04041F" stop-opacity="0.92"/>
<stop offset="1" stop-color="#111048" stop-opacity="0"/>
<stop offset="1" stop-color="#04041F" stop-opacity="0"/>
</radialGradient>
<linearGradient id="paint2_linear_356_22927" x1="106.5" y1="132" x2="106.5" y2="88" gradientUnits="userSpaceOnUse">
<stop offset="0.184295" stop-color="#201E81"/>
<stop offset="0.68007" stop-color="#0A0939"/>
<stop offset="0.93513" stop-color="#100F53"/>
</linearGradient>
<radialGradient id="paint3_radial_356_22927" cx="0" cy="0" r="1" gradientUnits="userSpaceOnUse" gradientTransform="translate(95 110) rotate(90) scale(10 94.8599)">
<stop stop-color="#6863E8"/>
<stop offset="0.21875" stop-color="#544FD7"/>
<stop offset="1" stop-color="#232191" stop-opacity="0"/>
</radialGradient>
<radialGradient id="paint4_radial_356_22927" cx="0" cy="0" r="1" gradientUnits="userSpaceOnUse" gradientTransform="translate(121.5 97.5) rotate(90) scale(8.5 27.2)">
<stop stop-color="#0A0993"/>
<stop offset="1" stop-color="#0B0A7D" stop-opacity="0"/>
</radialGradient>
<linearGradient id="paint5_linear_356_22927" x1="77.2441" y1="44" x2="77.2441" y2="132" gradientUnits="userSpaceOnUse">
<stop offset="0.00233483" stop-color="#8986D8"/>
<stop offset="0.0618216" stop-color="#514DC8"/>
<stop offset="0.18767" stop-color="#4541BC"/>
<stop offset="0.335199" stop-color="#3936AE"/>
<stop offset="0.41907" stop-color="#18167B"/>
<stop offset="0.55688" stop-color="#151373"/>
<stop offset="0.648064" stop-color="#090835"/>
<stop offset="0.893955" stop-color="#05051F"/>
<stop offset="1" stop-color="#010105"/>
</linearGradient>
<radialGradient id="paint6_radial_356_22927" cx="0" cy="0" r="1" gradientUnits="userSpaceOnUse" gradientTransform="translate(112 44) rotate(147.095) scale(80.9938 62.5861)">
<stop stop-color="#BDBBEF"/>
<stop offset="0.697917" stop-color="#9896DF" stop-opacity="0"/>
</radialGradient>
<linearGradient id="paint7_linear_356_22927" x1="82.5" y1="89" x2="114.5" y2="89" gradientUnits="userSpaceOnUse">
<stop offset="0.0001" stop-color="#232188"/>
<stop offset="0.463542" stop-color="#12115A"/>
<stop offset="1" stop-color="#3734AC"/>
</linearGradient>
<linearGradient id="paint8_linear_356_22927" x1="75" y1="88" x2="148" y2="88" gradientUnits="userSpaceOnUse">
<stop stop-color="#A49CF9"/>
<stop offset="1" stop-color="#5149DA"/>
</linearGradient>
<linearGradient id="paint9_linear_356_22927" x1="110.837" y1="44.0005" x2="110.837" y2="131.999" gradientUnits="userSpaceOnUse">
<stop stop-color="#534BDA"/>
<stop offset="1" stop-color="#0E0C66"/>
</linearGradient>
<linearGradient id="paint10_linear_356_22927" x1="110.837" y1="44.0005" x2="110.837" y2="131.999" gradientUnits="userSpaceOnUse">
<stop stop-color="#534BDA"/>
<stop offset="1" stop-color="#0E0C66"/>
</linearGradient>
<linearGradient id="paint11_linear_356_22927" x1="110.837" y1="44.0005" x2="110.837" y2="131.999" gradientUnits="userSpaceOnUse">
<stop stop-color="#534BDA"/>
<stop offset="1" stop-color="#0E0C66"/>
</linearGradient>
<clipPath id="clip0_356_22927">
<rect width="325" height="88" fill="white" transform="translate(44 44)"/>
</clipPath>
</defs>
</svg>
