<svg width="747" height="610" viewBox="0 0 747 610" fill="none" xmlns="http://www.w3.org/2000/svg">
<path d="M534.795 260.228C528.097 259.75 521.638 259.272 515.179 258.076C498.435 254.727 483.125 257.836 474.035 273.385C486.474 278.408 499.87 281.279 513.983 281.518C554.41 282.475 587.421 265.013 607.276 227.457V227.217C585.986 244.44 568.523 262.621 534.795 260.228Z" fill="#020202"/>
<path d="M288.886 471.213V511.161H321.179C321.179 511.161 311.611 497.526 316.634 464.515C317.83 458.056 297.976 462.123 288.886 471.213Z" fill="#020202"/>
<path d="M441.263 511.161H454.42C454.42 511.161 447.483 494.177 447.483 473.844C447.483 461.166 438.871 459.013 438.871 473.844C438.871 498.243 440.785 510.682 441.263 511.161Z" fill="#020202"/>
<path d="M227.648 265.013H269.27C269.27 265.013 330.508 189.422 353.712 174.591C363.759 168.132 396.531 182.485 408.491 182.724C450.114 109.286 539.818 105.937 533.12 105.698C222.146 103.067 205.879 232.48 189.135 290.848C194.636 272.907 208.75 265.013 227.648 265.013Z" fill="#020202"/>
<path d="M416.864 464.515C428.346 379.116 368.543 393.948 329.312 340.604L323.571 332.949L290.321 287.977L248.698 289.412C229.561 290.13 213.056 303.287 208.272 321.706C193.441 376.964 163.778 511.4 163.778 511.4L206.358 511.161C206.358 511.161 202.291 501.593 210.185 466.429C210.185 466.189 222.146 415.716 222.146 415.716L257.549 376.007L239.608 450.641C239.608 450.641 378.829 396.579 378.59 412.606C377.633 445.139 377.155 501.593 377.872 510.683L421.409 510.922C421.409 511.161 412.319 497.765 416.864 464.515Z" fill="#020202"/>
<path d="M598.425 170.285C595.076 171.242 582.398 191.096 577.853 196.119C574.982 199.229 578.331 212.625 576.896 213.103C575.461 213.582 562.543 205.688 552.496 214.06C550.104 215.974 546.277 225.542 543.167 225.303C540.536 225.064 537.905 216.452 535.752 214.778C504.415 192.531 501.784 197.316 492.454 194.923C478.819 191.335 450.353 174.112 448.2 175.547C440.067 180.332 422.605 195.163 410.405 202.1C409.927 201.861 388.158 195.641 379.786 193.488C369.739 190.857 358.975 194.206 352.277 202.339C346.296 209.515 302.282 259.75 302.042 259.989C301.325 260.467 308.74 273.624 314.721 282.235C317.352 286.063 329.552 271.71 332.183 274.102C335.771 277.212 324.767 294.196 327.399 296.588C355.147 324.337 380.743 336.058 412.558 331.752C412.319 306.396 411.601 283.91 411.362 259.75C410.644 259.75 396.292 245.875 394.378 241.091C392.464 235.829 396.052 229.131 397.248 224.346C397.248 224.346 397.248 224.346 397.488 224.346L422.366 253.052L432.173 309.984L473.796 302.09C462.553 293 456.573 279.126 457.769 264.773L466.859 269.557L484.082 246.832C484.082 246.832 470.208 232.958 465.663 228.413C465.184 227.935 452.028 237.503 452.028 237.503L447.244 229.848C441.024 220.041 449.636 205.688 464.945 210.472C504.893 257.118 602.013 267.883 598.425 170.285Z" fill="#020202"/>
<path d="M543.885 99C543.885 99 627.609 117.898 613.256 198.751C613.256 198.751 620.193 123.16 533.599 123.16C533.599 123.16 536.708 112.635 538.144 111.678C538.144 111.678 545.081 107.851 545.081 105.219L543.885 99Z" fill="#020202"/>
<path d="M163.778 402.32C167.127 386.532 169.998 356.63 173.347 341.56C161.386 382.465 132.681 418.108 132.681 418.108L134.595 425.523C134.834 425.523 163.778 402.32 163.778 402.32Z" fill="#020202"/>
</svg>
