<svg width="364" height="88" viewBox="0 0 364 88" fill="none" xmlns="http://www.w3.org/2000/svg">
<g clip-path="url(#clip0_138_9497)">
<path d="M49 8C41.8203 8 36 13.8203 36 21V88H28V21C28 9.40202 37.402 0 49 0C70.5391 0 88 17.4609 88 39C88 60.2057 71.0755 77.4585 49.9972 77.9875L48.2222 70H49C66.1208 70 80 56.1208 80 39C80 21.8792 66.1208 8 49 8Z" fill="black"/>
<path d="M46.8889 64H49C62.8071 64 74 52.8071 74 39C74 25.1929 62.8071 14 49 14C45.134 14 42 17.134 42 21V22H49C58.3888 22 66 29.6112 66 39C66 48.3888 58.3888 56 49 56H45.1111L46.8889 64Z" fill="black"/>
<path d="M43.7778 50H49C55.0751 50 60 45.0751 60 39C60 32.9249 55.0751 28 49 28H42V36H49C50.6569 36 52 37.3431 52 39C52 40.6569 50.6569 42 49 42H42L43.7778 50Z" fill="black"/>
<path d="M22.1226 18.4105C22.0415 19.2627 22 20.1265 22 21V88H14V35C14 28.2549 17.18 22.2526 22.1226 18.4105Z" fill="black"/>
<path d="M0 49C0 42.2549 3.18001 36.2526 8.12257 32.4105C8.04148 33.2627 8 34.1265 8 35V88H0V49Z" fill="black"/>
<path d="M155.202 65.75L155.202 25.7468H163.21V65.75H155.202Z" fill="black"/>
<path d="M155.202 11.35V19.3668H163.21V11.35L155.202 11.35Z" fill="black"/>
<path fill-rule="evenodd" clip-rule="evenodd" d="M145.668 59.8958C149.118 56.1294 150.845 51.2397 150.851 45.2265C150.857 39.2132 149.118 34.3381 145.633 30.6011C143.986 28.7807 141.967 27.3363 139.712 26.366C137.457 25.3957 135.019 24.9223 132.565 24.978C130.276 24.9496 128.011 25.44 125.939 26.4124C124.333 27.0918 122.861 28.0512 121.592 29.246L120.386 30.7243H119.999V25.7524H112L112 77.75H119.999V59.3766H120.386C120.538 59.5998 120.703 59.8143 120.879 60.019C121.345 60.5459 121.842 61.0454 122.366 61.5149C123.107 62.2147 123.918 62.8369 124.786 63.3717C127.157 64.7189 129.83 65.4425 132.556 65.4749C135.012 65.5332 137.453 65.0665 139.714 64.1059C141.975 63.1453 144.005 61.7129 145.668 59.9046V59.8958ZM140.3 35.7666C142.483 38.1133 143.574 41.2695 143.574 45.2353C143.574 49.201 142.483 52.3602 140.3 54.7127C138.031 56.9627 134.965 58.2251 131.769 58.2251C128.573 58.2251 125.507 56.9627 123.237 54.7127C121.043 52.3661 119.949 49.2069 119.955 45.2353C119.961 41.2636 121.055 38.1074 123.237 35.7666C125.504 33.5124 128.572 32.247 131.769 32.247C134.966 32.247 138.033 33.5124 140.3 35.7666Z" fill="black"/>
<path fill-rule="evenodd" clip-rule="evenodd" d="M169.42 53.0487C170.416 55.5321 171.909 57.7856 173.807 59.6708C176.665 62.4678 180.282 64.3613 184.209 65.1151C188.136 65.8688 192.197 65.4494 195.887 63.909C199.577 62.3687 202.731 59.7758 204.957 56.4539C207.182 53.132 208.38 49.2283 208.4 45.23C208.456 42.5429 207.975 39.8717 206.986 37.3728C205.996 34.8739 204.518 32.5977 202.637 30.6775C200.757 28.7573 198.512 27.2318 196.034 26.1903C193.557 25.1489 190.896 24.6124 188.208 24.6124C185.521 24.6124 182.86 25.1489 180.383 26.1903C177.905 27.2318 175.66 28.7573 173.779 30.6775C171.899 32.5977 170.421 34.8739 169.431 37.3728C168.442 39.8717 167.961 42.5429 168.017 45.23C167.947 47.9046 168.424 50.5654 169.42 53.0487ZM176.395 45.23C176.389 41.2641 177.483 38.1078 179.677 35.7612C181.944 33.5069 185.011 32.2415 188.208 32.2415C191.406 32.2415 194.473 33.5069 196.74 35.7612C198.923 38.102 200.014 41.2582 200.014 45.23C200.014 49.2017 198.923 52.3609 196.74 54.7076C194.471 56.9576 191.404 58.2201 188.208 58.2201C185.013 58.2201 181.946 56.9576 179.677 54.7076C177.494 52.355 176.4 49.1958 176.395 45.23Z" fill="black"/>
<path fill-rule="evenodd" clip-rule="evenodd" d="M257.725 59.6684C255.85 57.7832 254.375 55.5297 253.392 53.0463C252.409 50.563 251.937 47.9022 252.007 45.2276C251.951 42.5405 252.426 39.8693 253.403 37.3704C254.38 34.8715 255.84 32.5953 257.697 30.6751C259.554 28.7549 261.771 27.2294 264.218 26.1879C266.665 25.1465 269.292 24.61 271.946 24.61C274.6 24.61 277.228 25.1465 279.674 26.1879C282.121 27.2294 284.338 28.7549 286.195 30.6751C288.052 32.5953 289.512 34.8715 290.489 37.3704C291.466 39.8693 291.941 42.5405 291.886 45.2276C291.881 46.1148 291.819 46.9974 291.702 47.87L260.459 47.87C260.848 50.6227 261.868 52.9011 263.521 54.7052C265.762 56.9552 268.79 58.2176 271.946 58.2176C275.102 58.2176 278.13 56.9552 280.371 54.7052C280.932 54.095 281.419 53.43 281.834 52.71H290.437C289.919 54.0161 289.266 55.2706 288.485 56.4515C286.288 59.7734 283.173 62.3663 279.529 63.9066C275.885 65.4469 271.874 65.8664 267.997 65.1127C264.119 64.3589 260.546 62.4654 257.725 59.6684ZM263.521 35.7588C262.275 37.1081 261.388 38.7252 260.861 40.61H283.021C282.495 38.7229 281.611 37.1058 280.371 35.7588C278.132 33.5045 275.103 32.2391 271.946 32.2391C268.789 32.2391 265.76 33.5045 263.521 35.7588Z" fill="black"/>
<path fill-rule="evenodd" clip-rule="evenodd" d="M297.082 53.0463C298.065 55.5297 299.54 57.7832 301.415 59.6684C304.236 62.4654 307.809 64.3589 311.687 65.1127C315.564 65.8664 319.575 65.4469 323.219 63.9066C326.863 62.3663 329.978 59.7734 332.175 56.4515C332.956 55.2706 333.609 54.0161 334.127 52.71H325.524C325.109 53.43 324.622 54.095 324.061 54.7052C321.82 56.9552 318.792 58.2176 315.636 58.2176C312.48 58.2176 309.452 56.9552 307.211 54.7052C305.558 52.9011 304.538 50.6227 304.149 47.87L335.392 47.87C335.509 46.9974 335.571 46.1148 335.576 45.2276C335.631 42.5405 335.156 39.8692 334.179 37.3704C333.202 34.8715 331.742 32.5953 329.885 30.6751C328.028 28.7549 325.811 27.2294 323.364 26.1879C320.918 25.1465 318.29 24.61 315.636 24.61C312.982 24.61 310.355 25.1465 307.908 26.1879C305.461 27.2294 303.244 28.7549 301.387 30.6751C299.53 32.5953 298.07 34.8715 297.093 37.3704C296.116 39.8692 295.641 42.5405 295.697 45.2276C295.627 47.9022 296.099 50.563 297.082 53.0463ZM304.551 40.61C305.078 38.7252 305.965 37.1081 307.211 35.7588C309.45 33.5044 312.479 32.2391 315.636 32.2391C318.793 32.2391 321.822 33.5044 324.061 35.7588C325.301 37.1058 326.185 38.7229 326.711 40.61H304.551Z" fill="black"/>
<path d="M348.191 33.0068L348.103 65.7516H340.104L340.183 31.5372C340.186 30.0007 340.798 28.5279 341.885 27.4423C342.972 26.3566 344.446 25.7468 345.983 25.7468H363.803V33.0068H348.191Z" fill="black"/>
<path d="M213.204 25.7467V65.7515H221.116V43.2939C221.021 40.3789 222.058 37.5404 224.011 35.3739C224.889 34.375 225.973 33.5778 227.188 33.037C228.403 32.4963 229.721 32.2248 231.051 32.2411C236.636 32.2411 239.428 35.4267 239.428 41.7979V65.7515H247.428L247.428 41.3667C247.41 36.1904 246.147 32.1767 243.638 29.3257L243.638 29.3237C243.043 28.6998 242.403 28.1191 241.725 27.5859C240.622 26.7627 239.383 26.1401 238.064 25.7467C236.427 25.2227 234.715 24.9642 232.996 24.9811C231.504 24.9737 230.021 25.1933 228.596 25.6323C227.453 25.9599 226.362 26.4488 225.357 27.0843C224.568 27.6264 223.842 28.2551 223.192 28.9587C222.736 29.4123 222.326 29.9106 221.969 30.4459C221.82 30.7275 221.688 30.9475 221.591 31.0971H221.204V25.7467H213.204Z" fill="black"/>
</g>
<defs>
<clipPath id="clip0_138_9497">
<rect width="364" height="88" fill="white"/>
</clipPath>
</defs>
</svg>
