<svg xmlns="http://www.w3.org/2000/svg" xmlns:xlink="http://www.w3.org/1999/xlink" viewBox="0 0 2173.45 2171.26"><defs><style>.cls-1{fill:none;}.cls-2{fill:#fff;}.cls-3{clip-path:url(#clip-path);}.cls-4{fill:#6b3eff;}.cls-5{fill:#562ed9;}</style><clipPath id="clip-path"><rect class="cls-1" x="149.45" y="147.26" width="2024" height="2024"/></clipPath></defs><title>iTunes-cover-light</title><g id="Layer_2" data-name="Layer 2"><g id="Layer_18" data-name="Layer 18"><rect class="cls-2" x="149.45" y="147.26" width="2024" height="2024"/><g class="cls-3"><path class="cls-4" d="M1423,0H935.55C930.36.1,924.4.3,917.79.7l-.49,0c-63.8,3.91-188.37,25.55-290,128C577.44,179,540.07,242.62,518.87,310.51H428.66c-116.46,0-225,46-305.59,129.46C43.71,522.18,0,631.68,0,748.31v650.18l361.74-208.86a26.34,26.34,0,0,1,13.13-3.51h551.2c5.22-.08,11.2-.29,17.84-.69l.35,0c63.79-3.89,188.39-25.51,290.06-128,49.2-49.61,86.17-112.17,107.52-179,6.62,0,118.94.12,156.85.59l.4.21L1860.81,1088V437.8C1860.81,196.4,1664.41,0,1423,0ZM1035.17,981.55c-16.61,32.82-55.87,54.93-101.66,57.93l-1.24.07q-4.28.26-8.62.29H374.87A172.8,172.8,0,0,0,288.58,1063l-142.29,82.15V748.31c0-163.46,124-291.52,282.37-291.52h71.2A410.42,410.42,0,0,0,659.12,754.93C731,810.13,804.45,827.12,853,838.34c45.54,10.53,79.27,13,103.91,14.85,32.33,2.38,37.76,3.3,49.74,12,8.42,6.14,28.8,23.49,36.07,51.67C1042.84,917.24,1050.8,950.64,1035.17,981.55ZM1184,879c-18.67-70.46-65-112.85-91.08-131.9-46.54-33.95-86.53-36.91-125.2-39.77-22.09-1.63-47.14-3.48-81.72-11.48-42.69-9.86-91.08-21-137.77-56.9-46.44-35.68-70.46-79.81-80.64-103a264.41,264.41,0,0,1-22.32-99.12c.17-43.55,11.89-88.87,32.37-129.67,18.68,70.5,65,112.87,91.07,131.88,46.56,34,86.55,36.93,125.23,39.79,22.1,1.62,47.13,3.47,81.7,11.46,42.7,9.89,91.1,21.08,137.77,56.92,46.45,35.67,70.46,79.82,80.64,103a264.26,264.26,0,0,1,22.32,99.1C1216.2,792.83,1204.47,838.15,1184,879Zm530.53-44.35-142.36-82.2a174.09,174.09,0,0,0-24.36-11.61l-4-1.43a118.36,118.36,0,0,0-37.63-6.66c-19.11-.25-38.25-.41-56.92-.52v-.07c-39.35-.27-56.35-.27-87.31-.21A410.13,410.13,0,0,0,1202.5,431.2C1130.63,376,1057.2,359,1008.58,347.78c-45.53-10.53-79.25-13-103.88-14.84-32.33-2.39-37.77-3.31-49.78-12.07-8.41-6.14-28.77-23.46-36-51.64-.08-.33-8.06-33.74,7.58-64.66,16.65-32.88,56-55,101.89-57.94l.68,0c3-.17,5.94-.28,8.94-.29H1423c160.74,0,291.51,130.77,291.51,291.51Z"/><path class="cls-5" d="M1449.21,732.12h0c-39.33-.27-56.34-.27-87.29-.21.29,4.71.59,9.73.72,14.45,0,.66,0,1.3,0,1.95,0,43.4-7.55,88.23-20.94,130.39,0-.13.09-.25.13-.37,2.64,0,22.14,0,47,.07C1421.13,843.8,1449.21,777.34,1449.21,732.12Z"/><path class="cls-5" d="M428.69,310.51c.14,42.39,6.75,97.79,26.4,146.28h44.63c-.32-5.4-.59-12.08-.72-17l0-1.95c0-42.38,7.31-86.61,20.1-127.87-.06.19-.14.38-.2.58Z"/><path class="cls-5" d="M1186.33,875.2c-.07-.25-.17-.48-.23-.73-.72,1.49-1.36,3-2.11,4.49-12.92-48.77-39.08-84.07-62.62-107.51-6.91,41.69-27.57,89.14-56.72,118.53-6.89,7-16.54,13.68-24.41,19.24.91,2.49,1.81,5,2.51,7.68.09.34,8,33.74-7.58,64.65-16.4,32.41-54.9,54.34-100,57.77,43.1-2.61,126.91-17,194.35-85A319.18,319.18,0,0,0,1186.33,875.2Z"/><path class="cls-5" d="M931.22,146.51c.17,0,.33,0,.51-.07l-1.28.1Z"/><path class="cls-5" d="M677.63,307.16h0l0,.07c1.36,5,2.91,9.94,4.51,14.8a238.22,238.22,0,0,0,56.39,90.91c7.05-41.6,29-88.56,58.09-117.9,4.55-4.59,14.65-13.2,23.9-20.73-.56-1.69-1.21-3.3-1.67-5.08-.08-.33-8.06-33.74,7.58-64.66,16.21-32,54-53.78,98.28-57.62-45.21,3.64-129,19.15-193,83.72C710,252.57,691.72,278.8,677.63,307.16Z"/></g><path d="M1111.16,1626.27h-39.51v12c-14.86-9.79-32.26-14.87-52.56-14.87-27.55,0-50.38,9.43-67.78,27.92-16.31,17.76-24.65,40.59-24.65,67.78s8.34,50,24.65,67.79c17.4,18.48,40.23,27.91,67.78,27.91,19.94,0,37.7-5.08,52.56-14.87v12h39.51ZM1057.52,1760c-9.43,11.24-21.75,16.68-38.43,16.68-16.31,0-29-5.44-38.42-16.68-9.06-10.87-13.77-24.29-13.77-41.32s4.35-30.45,13.77-41.33c9.42-11.23,21.75-16.67,38.42-16.67,16.32,0,29,5.44,38.43,16.67,9.06,10.88,13.77,24.29,13.77,41.33S1066.94,1749.16,1057.52,1760Z"/><path d="M845.38,1811.39v-149H810.59v-37h34.79v-61.26h40.24v61.26h39.51v37H885.62v149Z"/><path d="M1389.33,1813.92c-27.91,0-50.75-9.42-68.51-27.91-17-18.12-25.74-40.6-25.74-67.78s8.34-50,24.65-67.79c17.4-18.48,40.24-27.91,67.78-27.91s50.39,9.43,67.79,27.91c16.31,17.76,24.65,40.6,24.65,67.79v17.4h-142.1a52.73,52.73,0,0,0,15.23,26.46c9.79,9.42,21.75,13.77,36.61,13.77,20.3,0,34.44-8,43.14-25l2.17-4h43.14l-3.63,9.79c-6.52,16.67-16.67,30.45-30.81,41C1429.56,1808.85,1411.08,1813.92,1389.33,1813.92Zm47.48-116.72a52.06,52.06,0,0,0-14.5-23.92c-9.42-8.7-20.66-12.69-34.8-12.69s-25.37,4.35-34.79,12.69a54,54,0,0,0-14.5,23.92Z"/><path d="M1631.83,1564.17v73.37c-14.78-9.64-32.06-14.65-52.2-14.65-27.55,0-50.38,9.43-67.78,27.91-16.31,17.77-24.65,40.6-24.65,67.79s8.34,50,24.65,67.78c17.4,18.49,40.23,27.92,67.78,27.92,19.78,0,37.41-5,52.2-14.65v11.75h40.23V1564.17Zm-13.78,195.38c-9.42,11.24-21.74,16.67-38.42,16.67-16.31,0-29-5.43-38.42-16.67-9.06-10.87-13.78-24.29-13.78-41.32s4.35-30.45,13.78-41.33c9.42-11.23,21.75-16.67,38.42-16.67,16.31,0,29,5.44,38.42,16.67,9.07,10.88,13.78,24.29,13.78,41.33S1627.48,1748.68,1618.05,1759.55Z"/><polygon points="1305.92 1811.87 1305.95 1811.87 1250.02 1750.86 1213.73 1711.26 1288.47 1634.31 1237.9 1634.31 1232.25 1634.31 1179.72 1688.13 1179.72 1564.65 1142.47 1564.65 1139.49 1564.65 1139.49 1811.87 1142.47 1811.87 1179.72 1811.87 1179.72 1733.71 1251.34 1811.87 1305.92 1811.87"/><path d="M731.56,1813.92c-24.64,0-44.58-6.52-59.08-18.85-13.78-11.23-21.39-26.46-22.48-44.58l-.36-7.61h41l.73,6.52c1.45,13,8.34,21,21.75,25.74a58.07,58.07,0,0,0,15.22,2.53,101.07,101.07,0,0,0,15.23-1.08,76.91,76.91,0,0,0,13.05-3.27c10.51-4,11.6-10.51,11.6-15.58,0-4.71-1.45-8-5.08-10.15a70.32,70.32,0,0,0-18.85-8.34c-8.34-2.17-17.4-4.35-26.82-6.52a180.38,180.38,0,0,1-29-8.34c-9.43-4-17.4-9.06-23.56-16-6.89-7.25-10.52-17.4-10.52-29.72,0-17.77,6.53-31.9,19.94-42,12.69-9.43,30.81-14.5,54.74-14.5,22.83,0,41,5.8,54.37,16.67,11.6,9.79,18.12,22.48,19.94,38.43l1.08,8H763.83l-.73-6.52c-1.09-8.7-6.16-20.3-35.89-20.3-32.26,0-32.26,12.68-32.26,17.4,0,4.35,1.45,7.25,5.08,9.42,5.07,3.26,11.23,5.8,19.21,8,8.34,2.17,17.4,4.35,27.19,6.16a159.11,159.11,0,0,1,29,8.7A65.22,65.22,0,0,1,799,1724.39c6.88,7.61,10.15,17.76,10.15,30.09,0,19.21-7.25,34.07-22.12,44.22C772.89,1809.21,754.4,1813.92,731.56,1813.92Z"/></g></g></svg>