<svg xmlns="http://www.w3.org/2000/svg" xmlns:xlink="http://www.w3.org/1999/xlink" viewBox="0 0 2173.64 2171.44"><defs><style>.cls-1{fill:none;}.cls-2{fill:#6b3eff;}.cls-3{clip-path:url(#clip-path);}.cls-4{fill:#fff;}.cls-5,.cls-6{fill:#562ed9;}.cls-5{opacity:0.2;}</style><clipPath id="clip-path"><rect class="cls-1" x="149.64" y="147.44" width="2024" height="2024"/></clipPath></defs><title>iTunes-cover-dark</title><g id="Layer_2" data-name="Layer 2"><g id="Layer_29" data-name="Layer 29"><rect class="cls-2" x="149.64" y="147.44" width="2024" height="2024"/><g class="cls-3"><path class="cls-4" d="M1424.14,0H936.3C931.1.1,925.14.3,918.52.7l-.49,0C854.18,4.64,729.51,26.3,627.8,128.86c-49.9,50.32-87.3,114-108.51,181.9H429c-116.56,0-225.17,46-305.83,129.56C43.74,522.59,0,632.18,0,748.91V1399.6l362-209a26.28,26.28,0,0,1,13.14-3.51H926.81c5.22-.09,11.2-.3,17.85-.7l.35,0c63.84-3.9,188.54-25.54,290.29-128.14,49.24-49.65,86.25-112.26,107.61-179.17,6.63,0,119,.12,157,.59l.39.21,362,209V438.15C1862.29,196.56,1665.73,0,1424.14,0ZM1036,982.33c-16.62,32.85-55.91,55-101.74,58l-1.24.07c-2.85.16-5.72.27-8.62.29H375.17a172.84,172.84,0,0,0-86.36,23.14L146.4,1146V748.91c0-163.6,124.14-291.75,282.6-291.75h71.26A410.64,410.64,0,0,0,659.65,755.53c72,55.25,145.45,72.24,194.06,83.48,45.58,10.54,79.34,13,104,14.86,32.36,2.38,37.8,3.3,49.78,12,8.43,6.15,28.83,23.51,36.1,51.71C1043.67,918,1051.64,951.4,1036,982.33Zm149-102.67c-18.69-70.52-65-112.94-91.16-132-46.58-34-86.6-36.94-125.3-39.8-22.11-1.64-47.18-3.49-81.78-11.49-42.73-9.88-91.16-21.07-137.88-57-46.48-35.71-70.52-79.88-80.71-103a264.74,264.74,0,0,1-22.34-99.19c.17-43.59,11.9-88.94,32.4-129.78,18.7,70.56,65.06,113,91.15,132,46.59,34,86.61,37,125.32,39.82,22.12,1.63,47.17,3.48,81.77,11.47,42.73,9.9,91.17,21.1,137.88,57,46.48,35.7,70.51,79.88,80.7,103.05a264.49,264.49,0,0,1,22.34,99.17C1217.16,793.46,1205.43,838.82,1184.94,879.66Zm531-44.39L1573.41,753A173.68,173.68,0,0,0,1549,741.39l-4-1.43a118.54,118.54,0,0,0-37.66-6.66c-19.12-.25-38.28-.42-57-.53,0,0,0,0,0-.07-39.38-.27-56.4-.26-87.39-.21a410.52,410.52,0,0,0-159.52-300.95c-71.93-55.23-145.42-72.24-194.08-83.49-45.56-10.53-79.31-13-104-14.85-32.37-2.38-37.81-3.3-49.83-12.08-8.42-6.14-28.79-23.47-36.07-51.67-.08-.33-8.07-33.77,7.58-64.72,16.66-32.9,56-55,102-58l.68,0q4.44-.27,9-.3h485.43c160.87,0,291.75,130.88,291.75,291.75Z"/><path class="cls-5" d="M1450.36,732.7h0c-39.37-.27-56.39-.26-87.36-.21.29,4.72.59,9.74.71,14.47q0,1,0,1.95c0,43.43-7.56,88.29-21,130.49,0-.13.09-.25.13-.37,2.64,0,22.15,0,47,.07C1422.27,844.47,1450.36,778,1450.36,732.7Z"/><path class="cls-5" d="M429,310.76c.14,42.42,6.76,97.87,26.42,146.4h44.66c-.31-5.41-.58-12.09-.71-17.06l0-2c0-42.42,7.31-86.68,20.12-128-.06.19-.14.38-.2.58Z"/><path class="cls-5" d="M1187.27,875.9c-.07-.25-.16-.48-.23-.73-.72,1.49-1.36,3-2.1,4.49-12.94-48.81-39.12-84.14-62.67-107.59-6.92,41.71-27.59,89.2-56.77,118.62-6.9,7-16.56,13.69-24.44,19.25.92,2.5,1.82,5,2.52,7.69.09.34,8.06,33.77-7.59,64.7-16.41,32.43-54.94,54.38-100,57.82,43.13-2.61,127-17,194.5-85A319.39,319.39,0,0,0,1187.27,875.9Z"/><path class="cls-6" d="M932,146.63c.18,0,.33-.06.51-.07l-1.28.09Z"/><path class="cls-5" d="M678.17,307.4h0l0,.07c1.36,5,2.91,9.95,4.51,14.82a238.32,238.32,0,0,0,56.44,91c7.06-41.64,29-88.63,58.13-118,4.55-4.59,14.67-13.2,23.92-20.74-.56-1.69-1.2-3.3-1.66-5.08-.08-.33-8.07-33.77,7.58-64.72,16.22-32,54-53.82,98.36-57.66-45.25,3.64-129.09,19.17-193.16,83.78C710.57,252.77,692.27,279,678.17,307.4Z"/></g><path class="cls-4" d="M1111.35,1626.45h-39.51v12c-14.87-9.78-32.27-14.86-52.56-14.86-27.55,0-50.39,9.43-67.79,27.91-16.31,17.76-24.65,40.6-24.65,67.79s8.34,50,24.65,67.78c17.4,18.49,40.24,27.91,67.79,27.91,19.93,0,37.69-5.07,52.56-14.86v12h39.51Zm-53.65,133.76c-9.43,11.23-21.75,16.67-38.42,16.67-16.32,0-29-5.44-38.43-16.67-9.06-10.88-13.77-24.29-13.77-41.33s4.35-30.44,13.77-41.32c9.43-11.24,21.75-16.67,38.43-16.67,16.31,0,29,5.43,38.42,16.67,9.06,10.88,13.77,24.29,13.77,41.32S1067.12,1749.33,1057.7,1760.21Z"/><path class="cls-4" d="M845.57,1811.56v-149h-34.8v-37h34.8v-61.26H885.8v61.26h39.51v37H885.8v149Z"/><path class="cls-4" d="M1389.51,1814.1c-27.91,0-50.75-9.43-68.51-27.91-17-18.13-25.74-40.6-25.74-67.79s8.34-50,24.65-67.78c17.4-18.49,40.24-27.91,67.79-27.91s50.38,9.42,67.78,27.91c16.31,17.76,24.65,40.6,24.65,67.78v17.4H1338a52.64,52.64,0,0,0,15.22,26.46c9.79,9.43,21.75,13.78,36.61,13.78,20.3,0,34.44-8,43.14-25l2.17-4h43.14l-3.63,9.79c-6.52,16.67-16.67,30.45-30.81,41C1429.74,1809,1411.26,1814.1,1389.51,1814.1ZM1437,1697.38a52,52,0,0,0-14.5-23.92c-9.42-8.7-20.66-12.69-34.79-12.69s-25.38,4.35-34.8,12.69a53.92,53.92,0,0,0-14.5,23.92Z"/><path class="cls-4" d="M1632,1564.35v73.36c-14.78-9.63-32.06-14.64-52.2-14.64-27.55,0-50.38,9.42-67.78,27.91-16.31,17.76-24.65,40.6-24.65,67.79s8.34,50,24.65,67.78c17.4,18.49,40.23,27.91,67.78,27.91,19.78,0,37.41-5,52.2-14.64v11.74h40.24V1564.35Zm-13.77,195.38c-9.43,11.23-21.75,16.67-38.43,16.67-16.31,0-29-5.44-38.42-16.67-9.06-10.88-13.78-24.29-13.78-41.33s4.36-30.45,13.78-41.32c9.42-11.24,21.75-16.67,38.42-16.67,16.32,0,29,5.43,38.43,16.67,9.06,10.87,13.77,24.29,13.77,41.32S1627.66,1748.85,1618.24,1759.73Z"/><polygon class="cls-4" points="1306.1 1812.04 1306.13 1812.04 1250.2 1751.04 1213.91 1711.44 1288.65 1634.49 1238.08 1634.49 1232.43 1634.49 1179.91 1688.31 1179.91 1564.83 1142.65 1564.83 1139.67 1564.83 1139.67 1812.04 1142.65 1812.04 1179.91 1812.04 1179.91 1733.89 1251.53 1812.04 1306.1 1812.04"/><path class="cls-4" d="M731.75,1814.1c-24.65,0-44.59-6.53-59.09-18.85-13.77-11.24-21.39-26.46-22.47-44.59l-.37-7.61h41l.73,6.53c1.45,13.05,8.34,21,21.75,25.73a58.1,58.1,0,0,0,15.22,2.54,99.64,99.64,0,0,0,15.23-1.09,76,76,0,0,0,13-3.26c10.51-4,11.6-10.51,11.6-15.59,0-4.71-1.45-8-5.08-10.15a70,70,0,0,0-18.85-8.33c-8.33-2.18-17.4-4.35-26.82-6.53a179.35,179.35,0,0,1-29-8.33c-9.42-4-17.4-9.07-23.56-16-6.89-7.25-10.51-17.4-10.51-29.73,0-17.76,6.52-31.9,19.93-42.05,12.69-9.42,30.81-14.5,54.74-14.5,22.83,0,41,5.8,54.37,16.68,11.6,9.79,18.13,22.47,19.94,38.42l1.09,8H764l-.73-6.53c-1.09-8.7-6.16-20.3-35.88-20.3-32.27,0-32.27,12.69-32.27,17.4,0,4.35,1.45,7.25,5.08,9.43,5.07,3.26,11.24,5.8,19.21,8,8.34,2.18,17.4,4.35,27.19,6.16a161.06,161.06,0,0,1,29,8.7,65.32,65.32,0,0,1,23.56,16.32c6.89,7.61,10.15,17.76,10.15,30.08,0,19.21-7.25,34.08-22.11,44.23C773.07,1809.39,754.58,1814.1,731.75,1814.1Z"/></g></g></svg>