<?xml version="1.0" encoding="UTF-8"?>
<svg width="400px" height="150px" viewBox="0 0 400 150" version="1.1" xmlns="http://www.w3.org/2000/svg" xmlns:xlink="http://www.w3.org/1999/xlink">
    <!-- Generator: Sketch 59.1 (86144) - https://sketch.com -->
    <title>Logotype-white</title>
    <desc>Created with Sketch.</desc>
    <g id="Logotype-white" stroke="none" stroke-width="1" fill="none" fill-rule="evenodd">
        <path d="M50,105.3335 L50,98.9335 L60.0665,98.9335 L60.0665,58.1335 L67.133,58.1335 L67.133,99.467 C67.133,102.667 64.533,105.3335 61.2665,105.3335 L50,105.3335 Z M76.333,88.067 C72.933,84.667 71.2,80.4 71.2,75.3335 C71.2,70.267 72.933,66 76.333,62.6 C79.733,59.2 84,57.467 89.0665,57.467 C94.133,57.467 98.333,59.2 101.8,62.6 C105.2,66 106.933,70.267 106.933,75.3335 C106.933,80.4 105.2,84.667 101.8,88.067 C98.4,91.467 94.133,93.2 89.0665,93.2 C83.933,93.2 79.733,91.467 76.333,88.067 Z M81.4665,66.9335 C79.533,69 78.6,71.8 78.6,75.267 C78.6,78.7335 79.533,81.5335 81.4665,83.6 C83.4,85.667 85.933,86.7335 89,86.7335 C92.0665,86.7335 94.6,85.667 96.533,83.6 C98.4665,81.5335 99.4,78.7335 99.4,75.267 C99.4,71.8 98.4665,69 96.533,66.9335 C94.6,64.867 92.0665,63.8 89,63.8 C85.933,63.867 83.4,64.867 81.4665,66.9335 Z M107.4665,58.1335 L114.8665,58.1335 L122.2665,85.8 L125.933,85.8 L134,58.1335 L141.4,58.1335 L127.2665,105.3335 L119.8665,105.3335 L123.8665,92.5335 L121.2665,92.5335 C118.6665,92.5335 116.333,90.8 115.6665,88.267 L107.4665,58.1335 Z M140.733,81.7335 L148.4665,81.7335 C148.533,81.867 148.6,82.067 148.733,82.267 C148.8665,82.467 149.133,82.867 149.533,83.467 C149.933,84.067 150.4665,84.6 151,85 C151.533,85.467 152.4,85.867 153.4,86.2 C154.4665,86.5335 155.6,86.7335 156.8665,86.7335 C159.333,86.7335 161.133,86.3335 162.2665,85.6 C163.4,84.867 163.933,83.867 163.933,82.7335 C163.933,81.667 163.2,80.8 161.733,80.2 C160.2665,79.6 158.4665,79.067 156.333,78.667 C154.2,78.267 152.133,77.7335 150,77.067 C147.8665,76.4 146.133,75.3335 144.6,73.7335 C143.133,72.1335 142.4,70.1335 142.4,67.6 C142.4,64.9335 143.6,62.5335 146.0665,60.5335 C148.533,58.5335 151.8,57.5335 155.8,57.5335 C158.333,57.5335 160.533,57.9335 162.533,58.667 C164.533,59.4 166,60.3335 167,61.3335 C168,62.4 168.8,63.467 169.4665,64.5335 C170.133,65.6 170.533,66.467 170.733,67.267 L171,68.3335 L163.6,68.3335 C163.533,68.2 163.4665,68.067 163.4,67.867 C163.333,67.667 163.0665,67.3335 162.6665,66.8 C162.2665,66.267 161.8665,65.867 161.333,65.467 C160.8,65.067 160.0665,64.7335 159.133,64.4 C158.2,64.067 157.0665,63.9335 155.8665,63.9335 C153.8665,63.9335 152.4,64.267 151.333,65 C150.333,65.7335 149.8,66.6 149.8,67.667 C149.8,68.5335 150.333,69.3335 151.4,69.9335 C152.4665,70.5335 153.8,71 155.4,71.267 C157,71.5335 158.733,71.9335 160.6,72.467 C162.4665,73 164.133,73.6 165.8,74.267 C167.4,74.9335 168.733,76 169.8,77.467 C170.8665,78.9335 171.4,80.7335 171.4,82.8 C171.4,85.667 170.133,88.1335 167.533,90.2 C164.933,92.267 161.4,93.267 156.933,93.267 C154.2665,93.267 151.933,92.867 149.8665,92.067 C147.8,91.267 146.2,90.3335 145.133,89.2 C144.0665,88.067 143.2,86.9335 142.4665,85.8 C141.8,84.667 141.333,83.7335 141.133,83 L140.733,81.7335 Z M172.6665,64.5335 L172.6665,58.1335 L176.6665,58.1335 L176.6665,50.7335 L183.733,50.7335 L183.733,58.1335 L194.2,58.1335 L194.2,64.5335 L183.8,64.5335 L183.8,86.1335 L194.533,86.1335 L194.533,92.5335 L182.533,92.5335 C179.333,92.5335 176.6665,89.9335 176.6665,86.667 L176.6665,64.5335 L172.6665,64.5335 Z M205.6,64.5335 L205.6,92.5335 L198.533,92.5335 L198.533,63.267 C198.533,60.467 200.8,58.1335 203.6665,58.1335 L205.6,58.1335 L219.4,58.1335 L219.4,64.5335 L205.6,64.5335 Z M224.2,88.067 C220.8665,84.6 219.133,80.3335 219.133,75.3335 C219.133,70.3335 220.8665,66.067 224.2,62.6 C227.6,59.1335 231.733,57.467 236.6,57.467 C241.4665,57.467 245.6,59.2 249,62.6 C252.4,66.067 254.0665,70.267 254.0665,75.3335 L254.0665,77.667 L226.2,77.667 C226.6665,80.467 227.933,82.667 229.8,84.3335 C231.733,86 234,86.8 236.6,86.8 C238.733,86.8 240.533,86.4 242.2,85.6 C243.8,84.8 244.933,84 245.4665,83.2 L246.333,82.067 L253.733,82.067 C253.6665,82.4 253.4665,82.8 253.2665,83.267 C253.0665,83.7335 252.4665,84.667 251.533,85.9335 C250.6,87.2 249.6,88.3335 248.4,89.3335 C247.2665,90.267 245.6,91.2 243.4665,92 C241.333,92.8 239.0665,93.2 236.533,93.2 C231.733,93.2 227.6,91.467 224.2,88.067 Z M227.4665,71.9335 L247.6,71.9335 C247.2665,69.7335 246.2,67.8 244.4,66.267 C242.6,64.667 240.333,63.867 237.533,63.867 C235.133,63.867 232.933,64.6 231.0665,66.067 C229.2,67.5335 228,69.467 227.4665,71.9335 Z M260.6665,88.267 C257.6,84.9335 256.0665,80.6 256.0665,75.3335 C256.0665,70.067 257.6,65.7335 260.6665,62.4 C263.733,59.067 267.6,57.467 272.2,57.467 C274.333,57.467 276.2665,57.867 278.0665,58.7335 C279.8665,59.6 281.133,60.4 281.8665,61.2 L282.933,62.467 L283.2665,62.467 L283.2665,58.067 L290.333,58.067 L290.333,92.467 L283.2665,92.467 L283.2665,87.7335 L282.933,87.7335 C282.8665,87.867 282.6665,88.067 282.4665,88.3335 C282.2665,88.6 281.8,89 281.133,89.667 C280.4665,90.267 279.733,90.867 279,91.3335 C278.2665,91.8 277.2,92.2 276,92.6 C274.733,93 273.4665,93.2 272.2,93.2 C267.6665,93.2 263.8,91.5335 260.6665,88.267 Z M296.4665,92.5335 L296.4665,58.1335 L303.533,58.1335 L303.533,62.867 L303.8665,62.867 C303.933,62.7335 304.0665,62.5335 304.2,62.267 C304.333,62 304.6665,61.6 305.2665,60.9335 C305.8665,60.3335 306.4665,59.7335 307.2,59.267 C307.8665,58.8 308.8665,58.4 310.0665,58 C311.2665,57.6 312.6,57.4 313.933,57.4 C315.533,57.4 317.0665,57.6 318.4,58.067 C319.8,58.5335 320.8665,59.067 321.6,59.667 C322.4,60.267 323.0665,60.9335 323.6,61.5335 C324.133,62.1335 324.4665,62.667 324.6665,63.1335 L325,63.8 L325.333,63.8 C325.4,63.6 325.533,63.4 325.733,63.067 C325.8665,62.8 326.333,62.267 327,61.5335 C327.6665,60.8 328.4,60.2 329.2,59.6 C330,59.067 331.133,58.5335 332.533,58.067 C334,57.6 335.4665,57.3335 337.133,57.3335 C341.0665,57.3335 344.2,58.6 346.4665,61.1335 C348.733,63.667 349.8665,67.2 349.8665,71.867 L349.8665,92.4 L342.8,92.4 L342.8,72.267 C342.8,66.667 340.333,63.867 335.4,63.867 C333,63.867 330.933,64.8 329.2,66.6 C327.4665,68.467 326.6665,70.8 326.6665,73.6 L326.6665,92.467 L319.6,92.467 L319.6,72.267 C319.6,66.667 317.133,63.867 312.2,63.867 C309.8,63.867 307.733,64.8 306,66.6 C304.2665,68.467 303.4665,70.8 303.4665,73.6 L303.4665,92.467 L296.4665,92.467 L296.4665,92.5335 Z M60.133,45 L60.133,52.067 L67.2,52.067 L67.2,45 L60.133,45 Z M265.4,66.9335 C263.4665,69 262.533,71.8 262.533,75.267 C262.533,78.7335 263.4665,81.5335 265.4,83.6 C267.333,85.667 269.8665,86.7335 272.933,86.7335 C276,86.7335 278.533,85.667 280.4665,83.6 C282.4,81.5335 283.333,78.7335 283.333,75.267 C283.333,71.8 282.4,69 280.4665,66.9335 C278.533,64.867 276,63.8 272.933,63.8 C269.8665,63.867 267.333,64.867 265.4,66.9335 Z" id="Logotype" fill="#FFFFFF" fill-rule="nonzero"></path>
    </g>
</svg>