<?xml version="1.0" encoding="UTF-8"?>
<svg width="1200px" height="490px" viewBox="0 0 1200 490" version="1.1" xmlns="http://www.w3.org/2000/svg" xmlns:xlink="http://www.w3.org/1999/xlink">
    <!-- Generator: Sketch 61 (89581) - https://sketch.com -->
    <title>reddit cover thin</title>
    <desc>Created with Sketch.</desc>
    <g id="reddit-cover-thin" stroke="none" stroke-width="1" fill="none" fill-rule="evenodd">
        <g id="reddit_cover_photo-1">
            <rect id="Rectangle" fill="#FFFFFF" fill-rule="nonzero" x="0" y="0" width="1200" height="490"></rect>
            <rect id="Rectangle" fill="#4038FF" fill-rule="nonzero" x="0" y="0" width="1200" height="490"></rect>
            <rect id="Rectangle" fill="#261EE4" fill-rule="nonzero" x="1102" y="294" width="98" height="98"></rect>
            <rect id="Rectangle" fill="#261EE4" fill-rule="nonzero" x="1004" y="98" width="98" height="98"></rect>
            <polygon id="Path" fill="#FFFFFF" fill-rule="nonzero" points="1112.9 392 1102 392 1102 402.896 1112.9 402.896"></polygon>
            <polygon id="Path" fill="#FFFFFF" fill-rule="nonzero" points="1123.79 402.896 1112.9 402.896 1112.9 413.791 1123.79 413.791"></polygon>
            <polygon id="Path" fill="#FFFFFF" fill-rule="nonzero" points="1134.66 392 1123.76 392 1123.76 402.895 1134.66 402.895"></polygon>
            <polygon id="Path" fill="#FFFFFF" fill-rule="nonzero" points="1112.9 413.762 1102 413.762 1102 424.657 1112.9 424.657"></polygon>
            <polygon id="Path" fill="#FFFFFF" fill-rule="nonzero" points="1134.66 413.762 1123.76 413.762 1123.76 424.657 1134.66 424.657"></polygon>
            <polygon id="Path" fill="#FFFFFF" fill-rule="nonzero" points="1145.55 402.896 1134.66 402.896 1134.66 413.791 1145.55 413.791"></polygon>
            <polygon id="Path" fill="#FFFFFF" fill-rule="nonzero" points="1123.79 424.657 1112.9 424.657 1112.9 435.552 1123.79 435.552"></polygon>
            <polygon id="Path" fill="#FFFFFF" fill-rule="nonzero" points="1112.9 435.553 1102 435.553 1102 446.448 1112.9 446.448"></polygon>
            <polygon id="Path" fill="#FFFFFF" fill-rule="nonzero" points="1134.66 435.553 1123.76 435.553 1123.76 446.448 1134.66 446.448"></polygon>
            <polygon id="Path" fill="#FFFFFF" fill-rule="nonzero" points="1145.55 424.657 1134.66 424.657 1134.66 435.552 1145.55 435.552"></polygon>
            <polygon id="Path" fill="#FFFFFF" fill-rule="nonzero" points="1123.79 446.447 1112.9 446.447 1112.9 457.342 1123.79 457.342"></polygon>
            <polygon id="Path" fill="#FFFFFF" fill-rule="nonzero" points="1112.9 457.314 1102 457.314 1102 468.21 1112.9 468.21"></polygon>
            <polygon id="Path" fill="#FFFFFF" fill-rule="nonzero" points="1134.66 457.314 1123.76 457.314 1123.76 468.21 1134.66 468.21"></polygon>
            <polygon id="Path" fill="#FFFFFF" fill-rule="nonzero" points="1145.55 446.447 1134.66 446.447 1134.66 457.342 1145.55 457.342"></polygon>
            <polygon id="Path" fill="#FFFFFF" fill-rule="nonzero" points="1123.79 468.209 1112.9 468.209 1112.9 479.105 1123.79 479.105"></polygon>
            <polygon id="Path" fill="#FFFFFF" fill-rule="nonzero" points="1112.9 479.104 1102 479.104 1102 490 1112.9 490"></polygon>
            <polygon id="Path" fill="#FFFFFF" fill-rule="nonzero" points="1134.66 479.104 1123.76 479.104 1123.76 490 1134.66 490"></polygon>
            <polygon id="Path" fill="#FFFFFF" fill-rule="nonzero" points="1145.55 468.209 1134.66 468.209 1134.66 479.105 1145.55 479.105"></polygon>
            <polygon id="Path" fill="#FFFFFF" fill-rule="nonzero" points="1156.45 392 1145.55 392 1145.55 402.895 1156.45 402.895"></polygon>
            <polygon id="Path" fill="#FFFFFF" fill-rule="nonzero" points="1167.34 402.896 1156.45 402.896 1156.45 413.791 1167.34 413.791"></polygon>
            <polygon id="Path" fill="#FFFFFF" fill-rule="nonzero" points="1178.21 392 1167.31 392 1167.31 402.895 1178.21 402.895"></polygon>
            <polygon id="Path" fill="#FFFFFF" fill-rule="nonzero" points="1156.45 413.762 1145.55 413.762 1145.55 424.657 1156.45 424.657"></polygon>
            <polygon id="Path" fill="#FFFFFF" fill-rule="nonzero" points="1178.21 413.762 1167.31 413.762 1167.31 424.657 1178.21 424.657"></polygon>
            <polygon id="Path" fill="#FFFFFF" fill-rule="nonzero" points="1189.1 402.896 1178.21 402.896 1178.21 413.791 1189.1 413.791"></polygon>
            <polygon id="Path" fill="#FFFFFF" fill-rule="nonzero" points="1167.34 424.657 1156.45 424.657 1156.45 435.552 1167.34 435.552"></polygon>
            <polygon id="Path" fill="#FFFFFF" fill-rule="nonzero" points="1156.45 435.553 1145.55 435.553 1145.55 446.448 1156.45 446.448"></polygon>
            <polygon id="Path" fill="#FFFFFF" fill-rule="nonzero" points="1178.21 435.553 1167.31 435.553 1167.31 446.448 1178.21 446.448"></polygon>
            <polygon id="Path" fill="#FFFFFF" fill-rule="nonzero" points="1189.1 424.657 1178.21 424.657 1178.21 435.552 1189.1 435.552"></polygon>
            <polygon id="Path" fill="#FFFFFF" fill-rule="nonzero" points="1167.34 446.447 1156.45 446.447 1156.45 457.342 1167.34 457.342"></polygon>
            <polygon id="Path" fill="#FFFFFF" fill-rule="nonzero" points="1156.45 457.314 1145.55 457.314 1145.55 468.21 1156.45 468.21"></polygon>
            <polygon id="Path" fill="#FFFFFF" fill-rule="nonzero" points="1178.21 457.314 1167.31 457.314 1167.31 468.21 1178.21 468.21"></polygon>
            <polygon id="Path" fill="#FFFFFF" fill-rule="nonzero" points="1189.1 446.447 1178.21 446.447 1178.21 457.342 1189.1 457.342"></polygon>
            <polygon id="Path" fill="#FFFFFF" fill-rule="nonzero" points="1167.34 468.209 1156.45 468.209 1156.45 479.105 1167.34 479.105"></polygon>
            <polygon id="Path" fill="#FFFFFF" fill-rule="nonzero" points="1156.45 479.104 1145.55 479.104 1145.55 490 1156.45 490"></polygon>
            <polygon id="Path" fill="#FFFFFF" fill-rule="nonzero" points="1178.21 479.104 1167.31 479.104 1167.31 490 1178.21 490"></polygon>
            <polygon id="Path" fill="#FFFFFF" fill-rule="nonzero" points="1200 392 1189.1 392 1189.1 402.895 1200 402.895"></polygon>
            <polygon id="Path" fill="#FFFFFF" fill-rule="nonzero" points="1200 413.762 1189.1 413.762 1189.1 424.657 1200 424.657"></polygon>
            <polygon id="Path" fill="#FFFFFF" fill-rule="nonzero" points="1200 435.553 1189.1 435.553 1189.1 446.448 1200 446.448"></polygon>
            <polygon id="Path" fill="#FFFFFF" fill-rule="nonzero" points="1200 457.314 1189.1 457.314 1189.1 468.21 1200 468.21"></polygon>
            <polygon id="Path" fill="#FFFFFF" fill-rule="nonzero" points="1200 479.104 1189.1 479.104 1189.1 490 1200 490"></polygon>
            <polygon id="Path" fill="#FFFFFF" fill-rule="nonzero" points="1189.1 468.209 1178.21 468.209 1178.21 479.105 1189.1 479.105"></polygon>
            <polygon id="Path" fill="#000000" fill-rule="nonzero" points="1014.9 196 1004 196 1004 206.896 1014.9 206.896"></polygon>
            <polygon id="Path" fill="#000000" fill-rule="nonzero" points="1025.79 206.896 1014.9 206.896 1014.9 217.791 1025.79 217.791"></polygon>
            <polygon id="Path" fill="#000000" fill-rule="nonzero" points="1036.66 196 1025.76 196 1025.76 206.895 1036.66 206.895"></polygon>
            <polygon id="Path" fill="#000000" fill-rule="nonzero" points="1014.9 217.762 1004 217.762 1004 228.657 1014.9 228.657"></polygon>
            <polygon id="Path" fill="#000000" fill-rule="nonzero" points="1036.66 217.762 1025.76 217.762 1025.76 228.657 1036.66 228.657"></polygon>
            <polygon id="Path" fill="#000000" fill-rule="nonzero" points="1047.55 206.896 1036.66 206.896 1036.66 217.791 1047.55 217.791"></polygon>
            <polygon id="Path" fill="#000000" fill-rule="nonzero" points="1025.79 228.657 1014.9 228.657 1014.9 239.552 1025.79 239.552"></polygon>
            <polygon id="Path" fill="#000000" fill-rule="nonzero" points="1014.9 239.553 1004 239.553 1004 250.448 1014.9 250.448"></polygon>
            <polygon id="Path" fill="#000000" fill-rule="nonzero" points="1036.66 239.553 1025.76 239.553 1025.76 250.448 1036.66 250.448"></polygon>
            <polygon id="Path" fill="#000000" fill-rule="nonzero" points="1047.55 228.657 1036.66 228.657 1036.66 239.552 1047.55 239.552"></polygon>
            <polygon id="Path" fill="#000000" fill-rule="nonzero" points="1025.79 250.447 1014.9 250.447 1014.9 261.342 1025.79 261.342"></polygon>
            <polygon id="Path" fill="#000000" fill-rule="nonzero" points="1014.9 261.314 1004 261.314 1004 272.21 1014.9 272.21"></polygon>
            <polygon id="Path" fill="#000000" fill-rule="nonzero" points="1036.66 261.314 1025.76 261.314 1025.76 272.21 1036.66 272.21"></polygon>
            <polygon id="Path" fill="#000000" fill-rule="nonzero" points="1047.55 250.447 1036.66 250.447 1036.66 261.342 1047.55 261.342"></polygon>
            <polygon id="Path" fill="#000000" fill-rule="nonzero" points="1025.79 272.21 1014.9 272.21 1014.9 283.105 1025.79 283.105"></polygon>
            <polygon id="Path" fill="#000000" fill-rule="nonzero" points="1014.9 283.104 1004 283.104 1004 294 1014.9 294"></polygon>
            <polygon id="Path" fill="#000000" fill-rule="nonzero" points="1036.66 283.104 1025.76 283.104 1025.76 294 1036.66 294"></polygon>
            <polygon id="Path" fill="#000000" fill-rule="nonzero" points="1047.55 272.21 1036.66 272.21 1036.66 283.105 1047.55 283.105"></polygon>
            <polygon id="Path" fill="#000000" fill-rule="nonzero" points="1058.45 196 1047.55 196 1047.55 206.895 1058.45 206.895"></polygon>
            <polygon id="Path" fill="#000000" fill-rule="nonzero" points="1069.34 206.896 1058.45 206.896 1058.45 217.791 1069.34 217.791"></polygon>
            <polygon id="Path" fill="#000000" fill-rule="nonzero" points="1080.21 196 1069.31 196 1069.31 206.895 1080.21 206.895"></polygon>
            <polygon id="Path" fill="#000000" fill-rule="nonzero" points="1058.45 217.762 1047.55 217.762 1047.55 228.657 1058.45 228.657"></polygon>
            <polygon id="Path" fill="#000000" fill-rule="nonzero" points="1080.21 217.762 1069.31 217.762 1069.31 228.657 1080.21 228.657"></polygon>
            <polygon id="Path" fill="#000000" fill-rule="nonzero" points="1091.1 206.896 1080.21 206.896 1080.21 217.791 1091.1 217.791"></polygon>
            <polygon id="Path" fill="#000000" fill-rule="nonzero" points="1069.34 228.657 1058.45 228.657 1058.45 239.552 1069.34 239.552"></polygon>
            <polygon id="Path" fill="#000000" fill-rule="nonzero" points="1058.45 239.553 1047.55 239.553 1047.55 250.448 1058.45 250.448"></polygon>
            <polygon id="Path" fill="#000000" fill-rule="nonzero" points="1080.21 239.553 1069.31 239.553 1069.31 250.448 1080.21 250.448"></polygon>
            <polygon id="Path" fill="#000000" fill-rule="nonzero" points="1091.1 228.657 1080.21 228.657 1080.21 239.552 1091.1 239.552"></polygon>
            <polygon id="Path" fill="#000000" fill-rule="nonzero" points="1069.34 250.447 1058.45 250.447 1058.45 261.342 1069.34 261.342"></polygon>
            <polygon id="Path" fill="#000000" fill-rule="nonzero" points="1058.45 261.314 1047.55 261.314 1047.55 272.21 1058.45 272.21"></polygon>
            <polygon id="Path" fill="#000000" fill-rule="nonzero" points="1080.21 261.314 1069.31 261.314 1069.31 272.21 1080.21 272.21"></polygon>
            <polygon id="Path" fill="#000000" fill-rule="nonzero" points="1091.1 250.447 1080.21 250.447 1080.21 261.342 1091.1 261.342"></polygon>
            <polygon id="Path" fill="#000000" fill-rule="nonzero" points="1069.34 272.21 1058.45 272.21 1058.45 283.105 1069.34 283.105"></polygon>
            <polygon id="Path" fill="#000000" fill-rule="nonzero" points="1058.45 283.104 1047.55 283.104 1047.55 294 1058.45 294"></polygon>
            <polygon id="Path" fill="#000000" fill-rule="nonzero" points="1080.21 283.104 1069.31 283.104 1069.31 294 1080.21 294"></polygon>
            <polygon id="Path" fill="#000000" fill-rule="nonzero" points="1102 196 1091.11 196 1091.11 206.895 1102 206.895"></polygon>
            <polygon id="Path" fill="#000000" fill-rule="nonzero" points="1102 217.762 1091.11 217.762 1091.11 228.657 1102 228.657"></polygon>
            <polygon id="Path" fill="#000000" fill-rule="nonzero" points="1102 239.553 1091.11 239.553 1091.11 250.448 1102 250.448"></polygon>
            <polygon id="Path" fill="#000000" fill-rule="nonzero" points="1102 261.314 1091.11 261.314 1091.11 272.21 1102 272.21"></polygon>
            <polygon id="Path" fill="#000000" fill-rule="nonzero" points="1102 283.104 1091.11 283.104 1091.11 294 1102 294"></polygon>
            <polygon id="Path" fill="#000000" fill-rule="nonzero" points="1091.1 272.21 1080.21 272.21 1080.21 283.105 1091.1 283.105"></polygon>
            <rect id="Rectangle" fill="#4038FF" fill-rule="nonzero" x="1123.78" y="196" width="10.8889" height="98"></rect>
            <rect id="Rectangle" fill="#4038FF" fill-rule="nonzero" x="1145.56" y="196" width="10.8889" height="98"></rect>
            <rect id="Rectangle" fill="#4038FF" fill-rule="nonzero" x="1167.33" y="196" width="10.8889" height="98"></rect>
            <rect id="Rectangle" fill="#4038FF" fill-rule="nonzero" x="1189.11" y="196" width="10.8889" height="98"></rect>
            <rect id="Rectangle" fill="#4038FF" fill-rule="nonzero" x="1102" y="196" width="10.8951" height="98"></rect>
            <rect id="Rectangle" fill="#000000" fill-rule="nonzero" transform="translate(1151.000000, 27.222250) rotate(90.000000) translate(-1151.000000, -27.222250) " x="1145.55555" y="-21.77775" width="10.8889" height="98"></rect>
            <rect id="Rectangle" fill="#000000" fill-rule="nonzero" transform="translate(1151.000000, 49.000150) rotate(90.000000) translate(-1151.000000, -49.000150) " x="1145.55555" y="0.00015" width="10.8889" height="98"></rect>
            <rect id="Rectangle" fill="#000000" fill-rule="nonzero" transform="translate(1151.000000, 70.777450) rotate(90.000000) translate(-1151.000000, -70.777450) " x="1145.55555" y="21.77745" width="10.8889" height="98"></rect>
            <rect id="Rectangle" fill="#000000" fill-rule="nonzero" transform="translate(1151.000000, 92.555250) rotate(90.000000) translate(-1151.000000, -92.555250) " x="1145.55555" y="43.55525" width="10.8889" height="98"></rect>
            <rect id="Rectangle" fill="#000000" fill-rule="nonzero" transform="translate(1151.000000, 5.447550) rotate(90.000000) translate(-1151.000000, -5.447550) " x="1145.55245" y="-43.55245" width="10.8951" height="98"></rect>
            <path d="M1004,402.889 L1004,392 C1058.12,392 1102,435.876 1102,490 L1091.11,490 C1091.11,441.89 1052.11,402.889 1004,402.889 Z M1004,424.667 L1004,413.778 C1046.1,413.778 1080.22,447.904 1080.22,490 L1069.33,490 C1069.33,453.917 1040.08,424.667 1004,424.667 Z M1004,435.555 L1004,446.444 C1028.06,446.444 1047.56,465.945 1047.56,490 L1058.44,490 C1058.44,459.931 1034.07,435.555 1004,435.555 Z M1004,468.222 L1004,457.333 C1022.04,457.333 1036.67,471.958 1036.67,490 L1025.78,490 C1025.78,477.972 1016.03,468.222 1004,468.222 Z M1004,490 L1004,479.111 C1010.01,479.111 1014.89,483.986 1014.89,490 L1004,490 Z" id="Shape" fill="#261EE4"></path>
            <path d="M1004,185.111 L1004,196 C949.876,196 906,152.124 906,98 L916.889,98 C916.889,146.11 955.89,185.111 1004,185.111 Z M1004,163.333 L1004,174.222 C961.904,174.222 927.778,140.096 927.778,98 L938.667,98 C938.667,134.083 967.917,163.333 1004,163.333 Z M1004,152.445 L1004,141.556 C979.945,141.556 960.444,122.055 960.444,98.0001 L949.556,98.0001 C949.556,128.069 973.931,152.445 1004,152.445 Z M1004,119.778 L1004,130.667 C985.959,130.667 971.333,116.041 971.333,98.0001 L982.222,98.0001 C982.222,110.028 991.972,119.778 1004,119.778 Z M1004,98.0002 L1004,108.889 C997.986,108.889 993.111,104.014 993.111,98.0002 L1004,98.0002 Z" id="Shape" fill="#261EE4"></path>
            <path d="M906,0 L906,98 L1004,98 C1004,43.8761 960.124,0 906,0 Z" id="Path" fill="#FFFFFF" fill-rule="nonzero"></path>
            <path d="M906,490 L1004,490 L1004,392 C949.876,392 906,435.876 906,490 Z" id="Path" fill="#4038FF" fill-rule="nonzero"></path>
            <path d="M913.677,392 L906,392 L906,384.323 L996.323,294 L1004,294 L1004,301.677 L913.677,392 Z M980.916,294 L965.508,294 L906,353.508 L906,368.916 L980.916,294 Z M950.1,294 L934.692,294 L906,322.692 L906,338.1 L950.1,294 Z M906,294 L906,307.284 L919.284,294 L906,294 Z M1004,332.492 L1004,317.084 L929.084,392 L944.492,392 L1004,332.492 Z M1004,363.308 L1004,347.9 L959.9,392 L975.308,392 L1004,363.308 Z M1004,378.716 L990.716,392 L1004,392 L1004,378.716 Z" id="Shape" fill="#261EE4" fill-rule="nonzero"></path>
            <path d="M710,399.677 L710,392 L717.677,392 L808,482.323 L808,490 L800.323,490 L710,399.677 Z M808,466.916 L808,451.508 L748.492,392 L733.084,392 L808,466.916 Z M808,436.1 L808,420.692 L779.308,392 L763.9,392 L808,436.1 Z M808,392 L794.716,392 L808,405.284 L808,392 Z M769.508,490 L784.916,490 L710,415.084 L710,430.492 L769.508,490 Z M738.692,490 L754.1,490 L710,445.9 L710,461.308 L738.692,490 Z M723.284,490 L710,476.716 L710,490 L723.284,490 Z" id="Shape" fill="#FFFFFF" fill-rule="nonzero"></path>
        </g>
        <path d="M139.273438,268.65625 C141.981771,268.65625 144.351562,269.216146 146.382812,270.335938 C148.414062,271.455729 150.100261,272.972656 151.441406,274.886719 C152.782552,276.800781 153.785156,279.066406 154.449219,281.683594 C155.113281,284.300781 155.445312,287.080729 155.445312,290.023438 C155.445312,293.018229 155.113281,295.804688 154.449219,298.382812 C153.785156,300.960938 152.782552,303.213542 151.441406,305.140625 C150.100261,307.067708 148.420573,308.591146 146.402344,309.710938 C144.384114,310.830729 142.007812,311.390625 139.273438,311.390625 C136.174479,311.390625 133.544271,310.733073 131.382812,309.417969 C129.221354,308.102864 127.502604,306.221354 126.226562,303.773438 L126.226562,303.773438 L126.226562,324.007812 L119.039062,324.007812 L119.039062,269.632812 L126.226562,269.632812 L126.226562,276.273438 C127.502604,273.825521 129.221354,271.944011 131.382812,270.628906 C133.544271,269.313802 136.174479,268.65625 139.273438,268.65625 Z M576.304688,254.828125 C580.419271,254.828125 583.941406,255.505208 586.871094,256.859375 C589.800781,258.213542 592.209636,260.134114 594.097656,262.621094 C595.985677,265.108073 597.385417,268.096354 598.296875,271.585938 C599.208333,275.075521 599.664062,278.955729 599.664062,283.226562 C599.664062,287.497396 599.208333,291.377604 598.296875,294.867188 C597.385417,298.356771 595.985677,301.338542 594.097656,303.8125 C592.209636,306.286458 589.800781,308.207031 586.871094,309.574219 C583.941406,310.941406 580.419271,311.625 576.304688,311.625 C572.190104,311.625 568.667969,310.941406 565.738281,309.574219 C562.808594,308.207031 560.399739,306.286458 558.511719,303.8125 C556.623698,301.338542 555.223958,298.356771 554.3125,294.867188 C553.401042,291.377604 552.945312,287.497396 552.945312,283.226562 C552.945312,278.955729 553.401042,275.075521 554.3125,271.585938 C555.223958,268.096354 556.623698,265.108073 558.511719,262.621094 C560.399739,260.134114 562.808594,258.213542 565.738281,256.859375 C568.667969,255.505208 572.190104,254.828125 576.304688,254.828125 Z M304.78125,268.65625 C307.880208,268.65625 310.575521,269.190104 312.867188,270.257812 C315.158854,271.325521 317.059896,272.790364 318.570312,274.652344 C320.080729,276.514323 321.213542,278.766927 321.96875,281.410156 C322.723958,284.053386 323.101562,286.924479 323.101562,290.023438 C323.101562,293.174479 322.723958,296.052083 321.96875,298.65625 C321.213542,301.260417 320.080729,303.5 318.570312,305.375 C317.059896,307.25 315.152344,308.721354 312.847656,309.789062 C310.542969,310.856771 307.854167,311.390625 304.78125,311.390625 C301.682292,311.390625 298.986979,310.856771 296.695312,309.789062 C294.403646,308.721354 292.496094,307.25 290.972656,305.375 C289.449219,303.5 288.316406,301.260417 287.574219,298.65625 C286.832031,296.052083 286.460938,293.174479 286.460938,290.023438 C286.460938,286.924479 286.832031,284.053386 287.574219,281.410156 C288.316406,278.766927 289.449219,276.514323 290.972656,274.652344 C292.496094,272.790364 294.403646,271.325521 296.695312,270.257812 C298.986979,269.190104 301.682292,268.65625 304.78125,268.65625 Z M201.890625,268.65625 C204.078125,268.65625 206.115886,268.936198 208.003906,269.496094 C209.891927,270.055989 211.532552,270.895833 212.925781,272.015625 C214.319011,273.135417 215.399739,274.574219 216.167969,276.332031 C216.936198,278.089844 217.320312,280.166667 217.320312,282.5625 L217.320312,282.5625 L217.320312,304.242188 L223.414062,304.242188 L223.414062,310.414062 L211.226562,310.414062 L211.070312,302.875 L210.757812,302.875 C209.638021,305.765625 207.984375,307.907552 205.796875,309.300781 C203.609375,310.694011 200.992188,311.390625 197.945312,311.390625 C195.914062,311.390625 194.078125,311.078125 192.4375,310.453125 C190.796875,309.828125 189.377604,308.903646 188.179688,307.679688 C187.111979,306.611979 186.285156,305.335938 185.699219,303.851562 C185.113281,302.367188 184.820312,300.817708 184.820312,299.203125 C184.820312,296 185.835938,293.252604 187.867188,290.960938 C189.898438,288.669271 192.945312,287.341146 197.007812,286.976562 L197.007812,286.976562 L210.289062,285.765625 L210.289062,282.484375 C210.289062,280.895833 210.087239,279.580729 209.683594,278.539062 C209.279948,277.497396 208.707031,276.670573 207.964844,276.058594 C207.222656,275.446614 206.330729,275.016927 205.289062,274.769531 C204.247396,274.522136 203.088542,274.398438 201.8125,274.398438 C199.260417,274.398438 197.222656,274.971354 195.699219,276.117188 C194.175781,277.263021 193.414062,279.151042 193.414062,281.78125 L193.414062,281.78125 L186.1875,281.78125 C186.1875,279.854167 186.604167,278.089844 187.4375,276.488281 C188.270833,274.886719 189.390625,273.5 190.796875,272.328125 C192.203125,271.15625 193.856771,270.251302 195.757812,269.613281 C197.658854,268.975261 199.703125,268.65625 201.890625,268.65625 Z M173.960938,256 L173.960938,310.414062 L166.773438,310.414062 L166.773438,256 L173.960938,256 Z M241.539062,256 L241.539062,269.632812 L250.914062,269.632812 L250.914062,275.765625 L241.539062,275.765625 L241.539062,304.242188 L250.914062,304.242188 L250.914062,310.414062 L234.429688,310.414062 L234.429688,275.765625 L227.554688,275.765625 L227.554688,269.632812 L234.429688,269.632812 L234.429688,256 L241.539062,256 Z M527.046875,256 L545.914062,310.414062 L537.90625,310.414062 L533.453125,296.976562 L512.085938,296.976562 L507.59375,310.414062 L499.742188,310.414062 L518.570312,256 L527.046875,256 Z M469.195312,256 C477.398438,256 483.342448,258.252604 487.027344,262.757812 C490.712239,267.263021 492.554688,274.085938 492.554688,283.226562 C492.554688,292.341146 490.712239,299.151042 487.027344,303.65625 C483.342448,308.161458 477.398438,310.414062 469.195312,310.414062 L469.195312,310.414062 L451.578125,310.414062 L451.578125,256 Z M404.976562,268.65625 C406.747396,268.65625 408.407552,268.923177 409.957031,269.457031 C411.506511,269.990886 412.854167,270.84375 414,272.015625 C415.145833,273.1875 416.037761,274.691406 416.675781,276.527344 C417.313802,278.363281 417.632812,280.596354 417.632812,283.226562 L417.632812,283.226562 L417.632812,310.414062 L410.445312,310.414062 L410.445312,284.007812 C410.445312,281.013021 409.872396,278.662761 408.726562,276.957031 C407.580729,275.251302 405.666667,274.398438 402.984375,274.398438 C401.708333,274.398438 400.523438,274.691406 399.429688,275.277344 C398.335938,275.863281 397.359375,276.703125 396.5,277.796875 C395.640625,278.890625 394.976562,280.186198 394.507812,281.683594 C394.039062,283.180989 393.804688,284.815104 393.804688,286.585938 L393.804688,286.585938 L393.804688,310.414062 L386.578125,310.414062 L386.578125,284.007812 C386.578125,281.013021 386.005208,278.662761 384.859375,276.957031 C383.713542,275.251302 381.8125,274.398438 379.15625,274.398438 C377.880208,274.398438 376.695312,274.691406 375.601562,275.277344 C374.507812,275.863281 373.53125,276.703125 372.671875,277.796875 C371.8125,278.890625 371.141927,280.186198 370.660156,281.683594 C370.178386,283.180989 369.9375,284.815104 369.9375,286.585938 L369.9375,286.585938 L369.9375,310.414062 L362.75,310.414062 L362.75,269.632812 L369.9375,269.632812 L369.9375,276.351562 C370.848958,274.111979 372.255208,272.269531 374.15625,270.824219 C376.057292,269.378906 378.440104,268.65625 381.304688,268.65625 C384.013021,268.65625 386.408854,269.333333 388.492188,270.6875 C390.575521,272.041667 392.072917,274.164062 392.984375,277.054688 C393.84375,274.658854 395.302083,272.660156 397.359375,271.058594 C399.416667,269.457031 401.955729,268.65625 404.976562,268.65625 Z M280.328125,256 L280.328125,262.171875 L270.953125,262.171875 L270.953125,269.632812 L279.507812,269.632812 L279.507812,275.765625 L270.953125,275.765625 L270.953125,310.414062 L263.84375,310.414062 L263.84375,275.765625 L256.96875,275.765625 L256.96875,269.632812 L263.84375,269.632812 L263.84375,256 L280.328125,256 Z M353.804688,269.632812 L353.804688,275.84375 L341.382812,275.84375 L341.382812,310.414062 L334.195312,310.414062 L334.195312,269.632812 L353.804688,269.632812 Z M210.289062,291.3125 L195.796875,292.640625 C194.3125,292.744792 193.381511,293.135417 193.003906,293.8125 C192.626302,294.489583 192.4375,295.414062 192.4375,296.585938 L192.4375,296.585938 L192.4375,300.179688 C192.4375,302.054688 193.088542,303.428386 194.390625,304.300781 C195.692708,305.173177 197.489583,305.609375 199.78125,305.609375 C203.036458,305.609375 205.601562,304.450521 207.476562,302.132812 C209.351562,299.815104 210.289062,296.820312 210.289062,293.148438 L210.289062,293.148438 L210.289062,291.3125 Z M137.4375,274.398438 C133.817708,274.398438 131.044271,275.550781 129.117188,277.855469 C127.190104,280.160156 126.226562,283.070312 126.226562,286.585938 L126.226562,286.585938 L126.226562,293.460938 C126.226562,296.976562 127.190104,299.880208 129.117188,302.171875 C131.044271,304.463542 133.817708,305.609375 137.4375,305.609375 C140.484375,305.609375 142.977864,304.756511 144.917969,303.050781 C146.858073,301.345052 147.828125,299.111979 147.828125,296.351562 L147.828125,296.351562 L147.828125,283.695312 C147.828125,280.934896 146.858073,278.695312 144.917969,276.976562 C142.977864,275.257812 140.484375,274.398438 137.4375,274.398438 Z M304.78125,274.398438 C303.348958,274.398438 301.975261,274.626302 300.660156,275.082031 C299.345052,275.537761 298.205729,276.169271 297.242188,276.976562 C296.278646,277.783854 295.503906,278.760417 294.917969,279.90625 C294.332031,281.052083 294.039062,282.315104 294.039062,283.695312 L294.039062,283.695312 L294.039062,296.351562 C294.039062,297.731771 294.332031,298.994792 294.917969,300.140625 C295.503906,301.286458 296.278646,302.256511 297.242188,303.050781 C298.205729,303.845052 299.338542,304.470052 300.640625,304.925781 C301.942708,305.381511 303.322917,305.609375 304.78125,305.609375 C306.213542,305.609375 307.580729,305.381511 308.882812,304.925781 C310.184896,304.470052 311.317708,303.845052 312.28125,303.050781 C313.244792,302.256511 314.019531,301.286458 314.605469,300.140625 C315.191406,298.994792 315.484375,297.731771 315.484375,296.351562 L315.484375,296.351562 L315.484375,283.695312 C315.484375,282.315104 315.191406,281.052083 314.605469,279.90625 C314.019531,278.760417 313.244792,277.783854 312.28125,276.976562 C311.317708,276.169271 310.184896,275.537761 308.882812,275.082031 C307.580729,274.626302 306.213542,274.398438 304.78125,274.398438 Z M576.304688,261.46875 C574.221354,261.46875 572.274739,261.774739 570.464844,262.386719 C568.654948,262.998698 567.066406,263.890625 565.699219,265.0625 C564.332031,266.234375 563.264323,267.634114 562.496094,269.261719 C561.727864,270.889323 561.34375,272.744792 561.34375,274.828125 L561.34375,274.828125 L561.34375,291.625 C561.34375,293.708333 561.727864,295.563802 562.496094,297.191406 C563.264323,298.819011 564.332031,300.21875 565.699219,301.390625 C567.066406,302.5625 568.654948,303.454427 570.464844,304.066406 C572.274739,304.678386 574.221354,304.984375 576.304688,304.984375 C578.388021,304.984375 580.334636,304.678386 582.144531,304.066406 C583.954427,303.454427 585.542969,302.5625 586.910156,301.390625 C588.277344,300.21875 589.345052,298.819011 590.113281,297.191406 C590.881511,295.563802 591.265625,293.708333 591.265625,291.625 L591.265625,291.625 L591.265625,274.828125 C591.265625,272.744792 590.881511,270.889323 590.113281,269.261719 C589.345052,267.634114 588.277344,266.234375 586.910156,265.0625 C585.542969,263.890625 583.954427,262.998698 582.144531,262.386719 C580.334636,261.774739 578.388021,261.46875 576.304688,261.46875 Z M469.195312,262.796875 L459.195312,262.796875 L459.195312,303.617188 L469.195312,303.617188 C474.325521,303.617188 478.101562,302.549479 480.523438,300.414062 C482.945312,298.278646 484.15625,295.205729 484.15625,291.195312 L484.15625,291.195312 L484.15625,275.21875 C484.15625,271.208333 482.945312,268.135417 480.523438,266 C478.101562,263.864583 474.325521,262.796875 469.195312,262.796875 L469.195312,262.796875 Z M522.945312,264.476562 L522.632812,264.476562 L514.078125,290.726562 L531.421875,290.726562 L522.945312,264.476562 Z M440.679688,178.65625 C443.778646,178.65625 446.473958,179.190104 448.765625,180.257812 C451.057292,181.325521 452.958333,182.790364 454.46875,184.652344 C455.979167,186.514323 457.111979,188.766927 457.867188,191.410156 C458.622396,194.053386 459,196.924479 459,200.023438 C459,203.174479 458.622396,206.052083 457.867188,208.65625 C457.111979,211.260417 455.979167,213.5 454.46875,215.375 C452.958333,217.25 451.050781,218.721354 448.746094,219.789062 C446.441406,220.856771 443.752604,221.390625 440.679688,221.390625 C437.580729,221.390625 434.885417,220.856771 432.59375,219.789062 C430.302083,218.721354 428.394531,217.25 426.871094,215.375 C425.347656,213.5 424.214844,211.260417 423.472656,208.65625 C422.730469,206.052083 422.359375,203.174479 422.359375,200.023438 C422.359375,196.924479 422.730469,194.053386 423.472656,191.410156 C424.214844,188.766927 425.347656,186.514323 426.871094,184.652344 C428.394531,182.790364 430.302083,181.325521 432.59375,180.257812 C434.885417,179.190104 437.580729,178.65625 440.679688,178.65625 Z M396.109375,178.65625 C399.052083,178.65625 401.617188,179.164062 403.804688,180.179688 C405.992188,181.195312 407.802083,182.582031 409.234375,184.339844 C410.666667,186.097656 411.747396,188.161458 412.476562,190.53125 C413.205729,192.901042 413.570312,195.453125 413.570312,198.1875 L413.570312,198.1875 L413.570312,202.015625 L386.109375,202.015625 L386.109375,206.351562 C386.109375,207.835938 386.389323,209.151042 386.949219,210.296875 C387.509114,211.442708 388.270833,212.412761 389.234375,213.207031 C390.197917,214.001302 391.278646,214.600261 392.476562,215.003906 C393.674479,215.407552 394.911458,215.609375 396.1875,215.609375 C398.739583,215.609375 400.953125,214.958333 402.828125,213.65625 C404.703125,212.354167 405.770833,210.283854 406.03125,207.445312 L406.03125,207.445312 L413.257812,207.445312 C413.101562,209.632812 412.528646,211.579427 411.539062,213.285156 C410.549479,214.990886 409.266927,216.442708 407.691406,217.640625 C406.115886,218.838542 404.338542,219.763021 402.359375,220.414062 C400.380208,221.065104 398.296875,221.390625 396.109375,221.390625 C393.166667,221.390625 390.595052,220.856771 388.394531,219.789062 C386.194011,218.721354 384.358073,217.25 382.886719,215.375 C381.415364,213.5 380.321614,211.260417 379.605469,208.65625 C378.889323,206.052083 378.53125,203.174479 378.53125,200.023438 C378.53125,196.924479 378.915364,194.053386 379.683594,191.410156 C380.451823,188.766927 381.597656,186.514323 383.121094,184.652344 C384.644531,182.790364 386.486979,181.325521 388.648438,180.257812 C390.809896,179.190104 393.296875,178.65625 396.109375,178.65625 Z M367.4375,166 L367.4375,220.414062 L360.210938,220.414062 L360.210938,213.773438 C358.934896,216.221354 357.229167,218.102864 355.09375,219.417969 C352.958333,220.733073 350.380208,221.390625 347.359375,221.390625 C344.598958,221.390625 342.196614,220.830729 340.152344,219.710938 C338.108073,218.591146 336.408854,217.067708 335.054688,215.140625 C333.700521,213.213542 332.691406,210.954427 332.027344,208.363281 C331.363281,205.772136 331.03125,202.992188 331.03125,200.023438 C331.03125,197.080729 331.363281,194.300781 332.027344,191.683594 C332.691406,189.066406 333.6875,186.800781 335.015625,184.886719 C336.34375,182.972656 338.023438,181.455729 340.054688,180.335938 C342.085938,179.216146 344.455729,178.65625 347.164062,178.65625 C350.210938,178.65625 352.828125,179.307292 355.015625,180.609375 C357.203125,181.911458 358.934896,183.799479 360.210938,186.273438 L360.210938,186.273438 L360.210938,166 L367.4375,166 Z M223.296875,178.65625 C226.239583,178.65625 228.804688,179.164062 230.992188,180.179688 C233.179688,181.195312 234.989583,182.582031 236.421875,184.339844 C237.854167,186.097656 238.934896,188.161458 239.664062,190.53125 C240.393229,192.901042 240.757812,195.453125 240.757812,198.1875 L240.757812,198.1875 L240.757812,202.015625 L213.296875,202.015625 L213.296875,206.351562 C213.296875,207.835938 213.576823,209.151042 214.136719,210.296875 C214.696614,211.442708 215.458333,212.412761 216.421875,213.207031 C217.385417,214.001302 218.466146,214.600261 219.664062,215.003906 C220.861979,215.407552 222.098958,215.609375 223.375,215.609375 C225.927083,215.609375 228.140625,214.958333 230.015625,213.65625 C231.890625,212.354167 232.958333,210.283854 233.21875,207.445312 L233.21875,207.445312 L240.445312,207.445312 C240.289062,209.632812 239.716146,211.579427 238.726562,213.285156 C237.736979,214.990886 236.454427,216.442708 234.878906,217.640625 C233.303386,218.838542 231.526042,219.763021 229.546875,220.414062 C227.567708,221.065104 225.484375,221.390625 223.296875,221.390625 C220.354167,221.390625 217.782552,220.856771 215.582031,219.789062 C213.381511,218.721354 211.545573,217.25 210.074219,215.375 C208.602864,213.5 207.509114,211.260417 206.792969,208.65625 C206.076823,206.052083 205.71875,203.174479 205.71875,200.023438 C205.71875,196.924479 206.102864,194.053386 206.871094,191.410156 C207.639323,188.766927 208.785156,186.514323 210.308594,184.652344 C211.832031,182.790364 213.674479,181.325521 215.835938,180.257812 C217.997396,179.190104 220.484375,178.65625 223.296875,178.65625 Z M319.820312,179.632812 L319.820312,220.414062 L312.632812,220.414062 L312.632812,179.632812 L319.820312,179.632812 Z M275.367188,179.632812 L285.601562,211.859375 L285.914062,211.859375 L296.34375,179.632812 L303.765625,179.632812 L289.117188,220.414062 L282.242188,220.414062 L267.59375,179.632812 L275.367188,179.632812 Z M169.46875,166 L169.46875,186.351562 C170.588542,183.955729 172.125,182.074219 174.078125,180.707031 C176.03125,179.339844 178.557292,178.65625 181.65625,178.65625 C183.635417,178.65625 185.432292,178.923177 187.046875,179.457031 C188.661458,179.990886 190.054688,180.84375 191.226562,182.015625 C192.398438,183.1875 193.309896,184.691406 193.960938,186.527344 C194.611979,188.363281 194.9375,190.596354 194.9375,193.226562 L194.9375,193.226562 L194.9375,220.414062 L187.710938,220.414062 L187.710938,194.007812 C187.710938,191.013021 187.138021,188.662761 185.992188,186.957031 C184.846354,185.251302 182.723958,184.398438 179.625,184.398438 C178.140625,184.398438 176.786458,184.691406 175.5625,185.277344 C174.338542,185.863281 173.270833,186.703125 172.359375,187.796875 C171.447917,188.890625 170.738281,190.186198 170.230469,191.683594 C169.722656,193.180989 169.46875,194.815104 169.46875,196.585938 L169.46875,196.585938 L169.46875,220.414062 L162.28125,220.414062 L162.28125,166 L169.46875,166 Z M154.078125,166 L154.078125,172.796875 L137.828125,172.796875 L137.828125,220.414062 L130.25,220.414062 L130.25,172.796875 L114,172.796875 L114,166 L154.078125,166 Z M440.679688,184.398438 C439.247396,184.398438 437.873698,184.626302 436.558594,185.082031 C435.243489,185.537761 434.104167,186.169271 433.140625,186.976562 C432.177083,187.783854 431.402344,188.760417 430.816406,189.90625 C430.230469,191.052083 429.9375,192.315104 429.9375,193.695312 L429.9375,193.695312 L429.9375,206.351562 C429.9375,207.731771 430.230469,208.994792 430.816406,210.140625 C431.402344,211.286458 432.177083,212.256511 433.140625,213.050781 C434.104167,213.845052 435.236979,214.470052 436.539062,214.925781 C437.841146,215.381511 439.221354,215.609375 440.679688,215.609375 C442.111979,215.609375 443.479167,215.381511 444.78125,214.925781 C446.083333,214.470052 447.216146,213.845052 448.179688,213.050781 C449.143229,212.256511 449.917969,211.286458 450.503906,210.140625 C451.089844,208.994792 451.382812,207.731771 451.382812,206.351562 L451.382812,206.351562 L451.382812,193.695312 C451.382812,192.315104 451.089844,191.052083 450.503906,189.90625 C449.917969,188.760417 449.143229,187.783854 448.179688,186.976562 C447.216146,186.169271 446.083333,185.537761 444.78125,185.082031 C443.479167,184.626302 442.111979,184.398438 440.679688,184.398438 Z M349.039062,184.398438 C347.554688,184.398438 346.180989,184.626302 344.917969,185.082031 C343.654948,185.537761 342.554688,186.169271 341.617188,186.976562 C340.679688,187.783854 339.944011,188.760417 339.410156,189.90625 C338.876302,191.052083 338.609375,192.315104 338.609375,193.695312 L338.609375,193.695312 L338.609375,206.351562 C338.609375,207.731771 338.876302,208.994792 339.410156,210.140625 C339.944011,211.286458 340.679688,212.256511 341.617188,213.050781 C342.554688,213.845052 343.648438,214.470052 344.898438,214.925781 C346.148438,215.381511 347.528646,215.609375 349.039062,215.609375 C352.658854,215.609375 355.425781,214.463542 357.339844,212.171875 C359.253906,209.880208 360.210938,206.976562 360.210938,203.460938 L360.210938,203.460938 L360.210938,196.585938 C360.210938,193.070312 359.253906,190.160156 357.339844,187.855469 C355.425781,185.550781 352.658854,184.398438 349.039062,184.398438 Z M396.109375,184.398438 C394.78125,184.398438 393.518229,184.613281 392.320312,185.042969 C391.122396,185.472656 390.054688,186.104167 389.117188,186.9375 C388.179688,187.770833 387.444011,188.786458 386.910156,189.984375 C386.376302,191.182292 386.109375,192.523438 386.109375,194.007812 L386.109375,194.007812 L386.109375,196.273438 L406.109375,196.273438 L406.109375,194.007812 C406.109375,192.523438 405.842448,191.182292 405.308594,189.984375 C404.774739,188.786458 404.045573,187.770833 403.121094,186.9375 C402.196614,186.104167 401.128906,185.472656 399.917969,185.042969 C398.707031,184.613281 397.4375,184.398438 396.109375,184.398438 Z M223.296875,184.398438 C221.96875,184.398438 220.705729,184.613281 219.507812,185.042969 C218.309896,185.472656 217.242188,186.104167 216.304688,186.9375 C215.367188,187.770833 214.631511,188.786458 214.097656,189.984375 C213.563802,191.182292 213.296875,192.523438 213.296875,194.007812 L213.296875,194.007812 L213.296875,196.273438 L233.296875,196.273438 L233.296875,194.007812 C233.296875,192.523438 233.029948,191.182292 232.496094,189.984375 C231.962239,188.786458 231.233073,187.770833 230.308594,186.9375 C229.384114,186.104167 228.316406,185.472656 227.105469,185.042969 C225.894531,184.613281 224.625,184.398438 223.296875,184.398438 Z M319.976562,166 L319.976562,173.539062 L312.476562,173.539062 L312.476562,166 L319.976562,166 Z" id="Combined-Shape" fill="#FFFFFF"></path>
    </g>
</svg>