<?xml version="1.0" encoding="UTF-8"?>
<svg width="1800px" height="144px" viewBox="0 0 1800 144" version="1.1" xmlns="http://www.w3.org/2000/svg" xmlns:xlink="http://www.w3.org/1999/xlink">
    <!-- Generator: Sketch 61 (89581) - https://sketch.com -->
    <title>reddit cover wide</title>
    <desc>Created with Sketch.</desc>
    <g id="reddit-cover-wide" stroke="none" stroke-width="1" fill="none" fill-rule="evenodd">
        <g id="reddit_cover_photo">
            <rect id="Rectangle" fill="#FFFFFF" fill-rule="nonzero" x="0" y="0" width="1800" height="144"></rect>
            <rect id="Rectangle" fill="#4038FF" fill-rule="nonzero" x="0" y="0" width="1800" height="144"></rect>
            <rect id="Rectangle" fill="#261EE4" fill-rule="nonzero" x="1406.47" y="47.8667" width="47.8667" height="47.8667"></rect>
            <rect id="Rectangle" fill="#261EE4" fill-rule="nonzero" x="384" y="0" width="47.8667" height="47.8667"></rect>
            <polygon id="Path" fill="#FFFFFF" fill-rule="nonzero" points="1411.79 95.7334 1406.47 95.7334 1406.47 101.055 1411.79 101.055"></polygon>
            <polygon id="Path" fill="#FFFFFF" fill-rule="nonzero" points="1417.11 101.055 1411.79 101.055 1411.79 106.376 1417.11 106.376"></polygon>
            <polygon id="Path" fill="#FFFFFF" fill-rule="nonzero" points="1422.42 95.7329 1417.1 95.7329 1417.1 101.054 1422.42 101.054"></polygon>
            <polygon id="Path" fill="#FFFFFF" fill-rule="nonzero" points="1411.79 106.362 1406.47 106.362 1406.47 111.683 1411.79 111.683"></polygon>
            <polygon id="Path" fill="#FFFFFF" fill-rule="nonzero" points="1422.42 106.362 1417.1 106.362 1417.1 111.683 1422.42 111.683"></polygon>
            <polygon id="Path" fill="#FFFFFF" fill-rule="nonzero" points="1427.74 101.055 1422.42 101.055 1422.42 106.376 1427.74 106.376"></polygon>
            <polygon id="Path" fill="#FFFFFF" fill-rule="nonzero" points="1417.11 111.684 1411.79 111.684 1411.79 117.006 1417.11 117.006"></polygon>
            <polygon id="Path" fill="#FFFFFF" fill-rule="nonzero" points="1411.79 117.005 1406.47 117.005 1406.47 122.327 1411.79 122.327"></polygon>
            <polygon id="Path" fill="#FFFFFF" fill-rule="nonzero" points="1422.42 117.005 1417.1 117.005 1417.1 122.327 1422.42 122.327"></polygon>
            <polygon id="Path" fill="#FFFFFF" fill-rule="nonzero" points="1427.74 111.684 1422.42 111.684 1422.42 117.006 1427.74 117.006"></polygon>
            <polygon id="Path" fill="#FFFFFF" fill-rule="nonzero" points="1417.11 122.327 1411.79 122.327 1411.79 127.648 1417.11 127.648"></polygon>
            <polygon id="Path" fill="#FFFFFF" fill-rule="nonzero" points="1411.79 127.635 1406.47 127.635 1406.47 132.956 1411.79 132.956"></polygon>
            <polygon id="Path" fill="#FFFFFF" fill-rule="nonzero" points="1422.42 127.635 1417.1 127.635 1417.1 132.956 1422.42 132.956"></polygon>
            <polygon id="Path" fill="#FFFFFF" fill-rule="nonzero" points="1427.74 122.327 1422.42 122.327 1422.42 127.648 1427.74 127.648"></polygon>
            <polygon id="Path" fill="#FFFFFF" fill-rule="nonzero" points="1417.11 132.956 1411.79 132.956 1411.79 138.278 1417.11 138.278"></polygon>
            <polygon id="Path" fill="#FFFFFF" fill-rule="nonzero" points="1411.79 138.278 1406.47 138.278 1406.47 143.599 1411.79 143.599"></polygon>
            <polygon id="Path" fill="#FFFFFF" fill-rule="nonzero" points="1422.42 138.278 1417.1 138.278 1417.1 143.599 1422.42 143.599"></polygon>
            <polygon id="Path" fill="#FFFFFF" fill-rule="nonzero" points="1427.74 132.956 1422.42 132.956 1422.42 138.278 1427.74 138.278"></polygon>
            <polygon id="Path" fill="#FFFFFF" fill-rule="nonzero" points="1433.06 95.7329 1427.74 95.7329 1427.74 101.054 1433.06 101.054"></polygon>
            <polygon id="Path" fill="#FFFFFF" fill-rule="nonzero" points="1438.38 101.055 1433.06 101.055 1433.06 106.376 1438.38 106.376"></polygon>
            <polygon id="Path" fill="#FFFFFF" fill-rule="nonzero" points="1443.69 95.7329 1438.37 95.7329 1438.37 101.054 1443.69 101.054"></polygon>
            <polygon id="Path" fill="#FFFFFF" fill-rule="nonzero" points="1433.06 106.362 1427.74 106.362 1427.74 111.683 1433.06 111.683"></polygon>
            <polygon id="Path" fill="#FFFFFF" fill-rule="nonzero" points="1443.69 106.362 1438.37 106.362 1438.37 111.683 1443.69 111.683"></polygon>
            <polygon id="Path" fill="#FFFFFF" fill-rule="nonzero" points="1449.01 101.055 1443.69 101.055 1443.69 106.376 1449.01 106.376"></polygon>
            <polygon id="Path" fill="#FFFFFF" fill-rule="nonzero" points="1438.38 111.684 1433.06 111.684 1433.06 117.006 1438.38 117.006"></polygon>
            <polygon id="Path" fill="#FFFFFF" fill-rule="nonzero" points="1433.06 117.005 1427.74 117.005 1427.74 122.327 1433.06 122.327"></polygon>
            <polygon id="Path" fill="#FFFFFF" fill-rule="nonzero" points="1443.69 117.005 1438.37 117.005 1438.37 122.327 1443.69 122.327"></polygon>
            <polygon id="Path" fill="#FFFFFF" fill-rule="nonzero" points="1449.01 111.684 1443.69 111.684 1443.69 117.006 1449.01 117.006"></polygon>
            <polygon id="Path" fill="#FFFFFF" fill-rule="nonzero" points="1438.38 122.327 1433.06 122.327 1433.06 127.648 1438.38 127.648"></polygon>
            <polygon id="Path" fill="#FFFFFF" fill-rule="nonzero" points="1433.06 127.635 1427.74 127.635 1427.74 132.956 1433.06 132.956"></polygon>
            <polygon id="Path" fill="#FFFFFF" fill-rule="nonzero" points="1443.69 127.635 1438.37 127.635 1438.37 132.956 1443.69 132.956"></polygon>
            <polygon id="Path" fill="#FFFFFF" fill-rule="nonzero" points="1449.01 122.327 1443.69 122.327 1443.69 127.648 1449.01 127.648"></polygon>
            <polygon id="Path" fill="#FFFFFF" fill-rule="nonzero" points="1438.38 132.956 1433.06 132.956 1433.06 138.278 1438.38 138.278"></polygon>
            <polygon id="Path" fill="#FFFFFF" fill-rule="nonzero" points="1433.06 138.278 1427.74 138.278 1427.74 143.599 1433.06 143.599"></polygon>
            <polygon id="Path" fill="#FFFFFF" fill-rule="nonzero" points="1443.69 138.278 1438.37 138.278 1438.37 143.599 1443.69 143.599"></polygon>
            <polygon id="Path" fill="#FFFFFF" fill-rule="nonzero" points="1454.33 95.7329 1449.01 95.7329 1449.01 101.054 1454.33 101.054"></polygon>
            <polygon id="Path" fill="#FFFFFF" fill-rule="nonzero" points="1454.33 106.362 1449.01 106.362 1449.01 111.683 1454.33 111.683"></polygon>
            <polygon id="Path" fill="#FFFFFF" fill-rule="nonzero" points="1454.33 117.005 1449.01 117.005 1449.01 122.327 1454.33 122.327"></polygon>
            <polygon id="Path" fill="#FFFFFF" fill-rule="nonzero" points="1454.33 127.635 1449.01 127.635 1449.01 132.956 1454.33 132.956"></polygon>
            <polygon id="Path" fill="#FFFFFF" fill-rule="nonzero" points="1454.33 138.278 1449.01 138.278 1449.01 143.599 1454.33 143.599"></polygon>
            <polygon id="Path" fill="#FFFFFF" fill-rule="nonzero" points="1449.01 132.956 1443.69 132.956 1443.69 138.278 1449.01 138.278"></polygon>
            <polygon id="Path" fill="#000000" fill-rule="nonzero" points="1363.92 0 1358.6 0 1358.6 5.32158 1363.92 5.32158"></polygon>
            <polygon id="Path" fill="#000000" fill-rule="nonzero" points="1369.24 5.32178 1363.92 5.32178 1363.92 10.6434 1369.24 10.6434"></polygon>
            <polygon id="Path" fill="#000000" fill-rule="nonzero" points="1374.55 0 1369.23 0 1369.23 5.32158 1374.55 5.32158"></polygon>
            <polygon id="Path" fill="#000000" fill-rule="nonzero" points="1363.92 10.6289 1358.6 10.6289 1358.6 15.9505 1363.92 15.9505"></polygon>
            <polygon id="Path" fill="#000000" fill-rule="nonzero" points="1374.55 10.6289 1369.23 10.6289 1369.23 15.9505 1374.55 15.9505"></polygon>
            <polygon id="Path" fill="#000000" fill-rule="nonzero" points="1379.87 5.32178 1374.55 5.32178 1374.55 10.6434 1379.87 10.6434"></polygon>
            <polygon id="Path" fill="#000000" fill-rule="nonzero" points="1369.24 15.9512 1363.92 15.9512 1363.92 21.2728 1369.24 21.2728"></polygon>
            <polygon id="Path" fill="#000000" fill-rule="nonzero" points="1363.92 21.2725 1358.6 21.2725 1358.6 26.594 1363.92 26.594"></polygon>
            <polygon id="Path" fill="#000000" fill-rule="nonzero" points="1374.55 21.2725 1369.23 21.2725 1369.23 26.594 1374.55 26.594"></polygon>
            <polygon id="Path" fill="#000000" fill-rule="nonzero" points="1379.87 15.9512 1374.55 15.9512 1374.55 21.2728 1379.87 21.2728"></polygon>
            <polygon id="Path" fill="#000000" fill-rule="nonzero" points="1369.24 26.5938 1363.92 26.5938 1363.92 31.9153 1369.24 31.9153"></polygon>
            <polygon id="Path" fill="#000000" fill-rule="nonzero" points="1363.92 31.9019 1358.6 31.9019 1358.6 37.2234 1363.92 37.2234"></polygon>
            <polygon id="Path" fill="#000000" fill-rule="nonzero" points="1374.55 31.9019 1369.23 31.9019 1369.23 37.2234 1374.55 37.2234"></polygon>
            <polygon id="Path" fill="#000000" fill-rule="nonzero" points="1379.87 26.5938 1374.55 26.5938 1374.55 31.9153 1379.87 31.9153"></polygon>
            <polygon id="Path" fill="#000000" fill-rule="nonzero" points="1369.24 37.2236 1363.92 37.2236 1363.92 42.5452 1369.24 42.5452"></polygon>
            <polygon id="Path" fill="#000000" fill-rule="nonzero" points="1363.92 42.5449 1358.6 42.5449 1358.6 47.8665 1363.92 47.8665"></polygon>
            <polygon id="Path" fill="#000000" fill-rule="nonzero" points="1374.55 42.5449 1369.23 42.5449 1369.23 47.8665 1374.55 47.8665"></polygon>
            <polygon id="Path" fill="#000000" fill-rule="nonzero" points="1379.87 37.2236 1374.55 37.2236 1374.55 42.5452 1379.87 42.5452"></polygon>
            <polygon id="Path" fill="#000000" fill-rule="nonzero" points="1385.19 0 1379.87 0 1379.87 5.32158 1385.19 5.32158"></polygon>
            <polygon id="Path" fill="#000000" fill-rule="nonzero" points="1390.52 5.32178 1385.19 5.32178 1385.19 10.6434 1390.52 10.6434"></polygon>
            <polygon id="Path" fill="#000000" fill-rule="nonzero" points="1395.82 0 1390.5 0 1390.5 5.32158 1395.82 5.32158"></polygon>
            <polygon id="Path" fill="#000000" fill-rule="nonzero" points="1385.19 10.6289 1379.87 10.6289 1379.87 15.9505 1385.19 15.9505"></polygon>
            <polygon id="Path" fill="#000000" fill-rule="nonzero" points="1395.82 10.6289 1390.5 10.6289 1390.5 15.9505 1395.82 15.9505"></polygon>
            <polygon id="Path" fill="#000000" fill-rule="nonzero" points="1401.15 5.32178 1395.82 5.32178 1395.82 10.6434 1401.15 10.6434"></polygon>
            <polygon id="Path" fill="#000000" fill-rule="nonzero" points="1390.52 15.9512 1385.19 15.9512 1385.19 21.2728 1390.52 21.2728"></polygon>
            <polygon id="Path" fill="#000000" fill-rule="nonzero" points="1385.19 21.2725 1379.87 21.2725 1379.87 26.594 1385.19 26.594"></polygon>
            <polygon id="Path" fill="#000000" fill-rule="nonzero" points="1395.82 21.2725 1390.5 21.2725 1390.5 26.594 1395.82 26.594"></polygon>
            <polygon id="Path" fill="#000000" fill-rule="nonzero" points="1401.15 15.9512 1395.82 15.9512 1395.82 21.2728 1401.15 21.2728"></polygon>
            <polygon id="Path" fill="#000000" fill-rule="nonzero" points="1390.52 26.5938 1385.19 26.5938 1385.19 31.9153 1390.52 31.9153"></polygon>
            <polygon id="Path" fill="#000000" fill-rule="nonzero" points="1385.19 31.9019 1379.87 31.9019 1379.87 37.2234 1385.19 37.2234"></polygon>
            <polygon id="Path" fill="#000000" fill-rule="nonzero" points="1395.82 31.9019 1390.5 31.9019 1390.5 37.2234 1395.82 37.2234"></polygon>
            <polygon id="Path" fill="#000000" fill-rule="nonzero" points="1401.15 26.5938 1395.82 26.5938 1395.82 31.9153 1401.15 31.9153"></polygon>
            <polygon id="Path" fill="#000000" fill-rule="nonzero" points="1390.52 37.2236 1385.19 37.2236 1385.19 42.5452 1390.52 42.5452"></polygon>
            <polygon id="Path" fill="#000000" fill-rule="nonzero" points="1385.19 42.5449 1379.87 42.5449 1379.87 47.8665 1385.19 47.8665"></polygon>
            <polygon id="Path" fill="#000000" fill-rule="nonzero" points="1395.82 42.5449 1390.5 42.5449 1390.5 47.8665 1395.82 47.8665"></polygon>
            <polygon id="Path" fill="#000000" fill-rule="nonzero" points="1406.47 0 1401.15 0 1401.15 5.32158 1406.47 5.32158"></polygon>
            <polygon id="Path" fill="#000000" fill-rule="nonzero" points="1406.47 10.6289 1401.15 10.6289 1401.15 15.9505 1406.47 15.9505"></polygon>
            <polygon id="Path" fill="#000000" fill-rule="nonzero" points="1406.47 21.2725 1401.15 21.2725 1401.15 26.594 1406.47 26.594"></polygon>
            <polygon id="Path" fill="#000000" fill-rule="nonzero" points="1406.47 31.9019 1401.15 31.9019 1401.15 37.2234 1406.47 37.2234"></polygon>
            <polygon id="Path" fill="#000000" fill-rule="nonzero" points="1406.47 42.5449 1401.15 42.5449 1401.15 47.8665 1406.47 47.8665"></polygon>
            <polygon id="Path" fill="#000000" fill-rule="nonzero" points="1401.15 37.2236 1395.82 37.2236 1395.82 42.5452 1401.15 42.5452"></polygon>
            <polygon id="Path" fill="#FFFFFF" fill-rule="nonzero" points="341.322 48 336 48 336 53.3216 341.322 53.3216"></polygon>
            <polygon id="Path" fill="#FFFFFF" fill-rule="nonzero" points="346.643 53.3218 341.322 53.3218 341.322 58.6434 346.643 58.6434"></polygon>
            <polygon id="Path" fill="#FFFFFF" fill-rule="nonzero" points="351.951 48 346.629 48 346.629 53.3216 351.951 53.3216"></polygon>
            <polygon id="Path" fill="#FFFFFF" fill-rule="nonzero" points="341.322 58.6289 336 58.6289 336 63.9505 341.322 63.9505"></polygon>
            <polygon id="Path" fill="#FFFFFF" fill-rule="nonzero" points="351.951 58.6289 346.629 58.6289 346.629 63.9505 351.951 63.9505"></polygon>
            <polygon id="Path" fill="#FFFFFF" fill-rule="nonzero" points="357.273 53.3218 351.951 53.3218 351.951 58.6434 357.273 58.6434"></polygon>
            <polygon id="Path" fill="#FFFFFF" fill-rule="nonzero" points="346.643 63.9512 341.322 63.9512 341.322 69.2728 346.643 69.2728"></polygon>
            <polygon id="Path" fill="#FFFFFF" fill-rule="nonzero" points="341.322 69.2725 336 69.2725 336 74.594 341.322 74.594"></polygon>
            <polygon id="Path" fill="#FFFFFF" fill-rule="nonzero" points="351.951 69.2725 346.629 69.2725 346.629 74.594 351.951 74.594"></polygon>
            <polygon id="Path" fill="#FFFFFF" fill-rule="nonzero" points="357.273 63.9512 351.951 63.9512 351.951 69.2728 357.273 69.2728"></polygon>
            <polygon id="Path" fill="#FFFFFF" fill-rule="nonzero" points="346.643 74.5938 341.322 74.5938 341.322 79.9153 346.643 79.9153"></polygon>
            <polygon id="Path" fill="#FFFFFF" fill-rule="nonzero" points="341.322 79.9019 336 79.9019 336 85.2234 341.322 85.2234"></polygon>
            <polygon id="Path" fill="#FFFFFF" fill-rule="nonzero" points="351.951 79.9019 346.629 79.9019 346.629 85.2234 351.951 85.2234"></polygon>
            <polygon id="Path" fill="#FFFFFF" fill-rule="nonzero" points="357.273 74.5938 351.951 74.5938 351.951 79.9153 357.273 79.9153"></polygon>
            <polygon id="Path" fill="#FFFFFF" fill-rule="nonzero" points="346.643 85.2236 341.322 85.2236 341.322 90.5452 346.643 90.5452"></polygon>
            <polygon id="Path" fill="#FFFFFF" fill-rule="nonzero" points="341.322 90.5449 336 90.5449 336 95.8665 341.322 95.8665"></polygon>
            <polygon id="Path" fill="#FFFFFF" fill-rule="nonzero" points="351.951 90.5449 346.629 90.5449 346.629 95.8665 351.951 95.8665"></polygon>
            <polygon id="Path" fill="#FFFFFF" fill-rule="nonzero" points="357.273 85.2236 351.951 85.2236 351.951 90.5452 357.273 90.5452"></polygon>
            <polygon id="Path" fill="#FFFFFF" fill-rule="nonzero" points="362.594 48 357.273 48 357.273 53.3216 362.594 53.3216"></polygon>
            <polygon id="Path" fill="#FFFFFF" fill-rule="nonzero" points="367.916 53.3218 362.594 53.3218 362.594 58.6434 367.916 58.6434"></polygon>
            <polygon id="Path" fill="#FFFFFF" fill-rule="nonzero" points="373.224 48 367.902 48 367.902 53.3216 373.224 53.3216"></polygon>
            <polygon id="Path" fill="#FFFFFF" fill-rule="nonzero" points="362.594 58.6289 357.273 58.6289 357.273 63.9505 362.594 63.9505"></polygon>
            <polygon id="Path" fill="#FFFFFF" fill-rule="nonzero" points="373.224 58.6289 367.902 58.6289 367.902 63.9505 373.224 63.9505"></polygon>
            <polygon id="Path" fill="#FFFFFF" fill-rule="nonzero" points="378.545 53.3218 373.224 53.3218 373.224 58.6434 378.545 58.6434"></polygon>
            <polygon id="Path" fill="#FFFFFF" fill-rule="nonzero" points="367.916 63.9512 362.594 63.9512 362.594 69.2728 367.916 69.2728"></polygon>
            <polygon id="Path" fill="#FFFFFF" fill-rule="nonzero" points="362.594 69.2725 357.273 69.2725 357.273 74.594 362.594 74.594"></polygon>
            <polygon id="Path" fill="#FFFFFF" fill-rule="nonzero" points="373.224 69.2725 367.902 69.2725 367.902 74.594 373.224 74.594"></polygon>
            <polygon id="Path" fill="#FFFFFF" fill-rule="nonzero" points="378.545 63.9512 373.224 63.9512 373.224 69.2728 378.545 69.2728"></polygon>
            <polygon id="Path" fill="#FFFFFF" fill-rule="nonzero" points="367.916 74.5938 362.594 74.5938 362.594 79.9153 367.916 79.9153"></polygon>
            <polygon id="Path" fill="#FFFFFF" fill-rule="nonzero" points="362.594 79.9019 357.273 79.9019 357.273 85.2234 362.594 85.2234"></polygon>
            <polygon id="Path" fill="#FFFFFF" fill-rule="nonzero" points="373.224 79.9019 367.902 79.9019 367.902 85.2234 373.224 85.2234"></polygon>
            <polygon id="Path" fill="#FFFFFF" fill-rule="nonzero" points="378.545 74.5938 373.224 74.5938 373.224 79.9153 378.545 79.9153"></polygon>
            <polygon id="Path" fill="#FFFFFF" fill-rule="nonzero" points="367.916 85.2236 362.594 85.2236 362.594 90.5452 367.916 90.5452"></polygon>
            <polygon id="Path" fill="#FFFFFF" fill-rule="nonzero" points="362.594 90.5449 357.273 90.5449 357.273 95.8665 362.594 95.8665"></polygon>
            <polygon id="Path" fill="#FFFFFF" fill-rule="nonzero" points="373.224 90.5449 367.902 90.5449 367.902 95.8665 373.224 95.8665"></polygon>
            <polygon id="Path" fill="#FFFFFF" fill-rule="nonzero" points="383.867 48 378.545 48 378.545 53.3216 383.867 53.3216"></polygon>
            <polygon id="Path" fill="#FFFFFF" fill-rule="nonzero" points="383.867 58.6289 378.545 58.6289 378.545 63.9505 383.867 63.9505"></polygon>
            <polygon id="Path" fill="#FFFFFF" fill-rule="nonzero" points="383.867 69.2725 378.545 69.2725 378.545 74.594 383.867 74.594"></polygon>
            <polygon id="Path" fill="#FFFFFF" fill-rule="nonzero" points="383.867 79.9019 378.545 79.9019 378.545 85.2234 383.867 85.2234"></polygon>
            <polygon id="Path" fill="#FFFFFF" fill-rule="nonzero" points="383.867 90.5449 378.545 90.5449 378.545 95.8665 383.867 95.8665"></polygon>
            <polygon id="Path" fill="#FFFFFF" fill-rule="nonzero" points="378.545 85.2236 373.224 85.2236 373.224 90.5452 378.545 90.5452"></polygon>
            <rect id="Rectangle" fill="#4038FF" fill-rule="nonzero" x="1417.1" y="0" width="5.31852" height="47.8667"></rect>
            <rect id="Rectangle" fill="#4038FF" fill-rule="nonzero" x="1427.74" y="0" width="5.31852" height="47.8667"></rect>
            <rect id="Rectangle" fill="#4038FF" fill-rule="nonzero" x="1438.38" y="0" width="5.31852" height="47.8667"></rect>
            <rect id="Rectangle" fill="#4038FF" fill-rule="nonzero" x="1449.01" y="0" width="5.31852" height="47.8667"></rect>
            <rect id="Rectangle" fill="#4038FF" fill-rule="nonzero" x="1406.47" y="0" width="5.32158" height="47.8667"></rect>
            <path d="M1358.6,101.052 L1358.6,95.7334 C1385.04,95.7334 1406.47,117.164 1406.47,143.6 L1401.15,143.6 C1401.15,120.101 1382.1,101.052 1358.6,101.052 Z M1358.6,111.689 L1358.6,106.371 C1379.16,106.371 1395.83,123.039 1395.83,143.6 L1390.51,143.6 C1390.51,125.976 1376.22,111.689 1358.6,111.689 Z M1358.6,117.007 L1358.6,122.326 C1370.35,122.326 1379.87,131.85 1379.87,143.6 L1385.19,143.6 C1385.19,128.913 1373.29,117.007 1358.6,117.007 Z M1358.6,132.963 L1358.6,127.644 C1367.41,127.644 1374.56,134.788 1374.56,143.6 L1369.24,143.6 C1369.24,137.725 1364.47,132.963 1358.6,132.963 Z M1358.6,143.6 L1358.6,138.281 C1361.54,138.281 1363.92,140.663 1363.92,143.6 L1358.6,143.6 Z" id="Shape" fill="#261EE4"></path>
            <path d="M1603.32,143.6 L1598,143.6 C1598,117.164 1619.43,95.7334 1645.87,95.7334 L1645.87,101.052 C1622.37,101.052 1603.32,120.101 1603.32,143.6 Z M1613.96,143.6 L1608.64,143.6 C1608.64,123.039 1625.31,106.37 1645.87,106.37 L1645.87,111.689 C1628.24,111.689 1613.96,125.976 1613.96,143.6 Z M1619.27,143.6 L1624.59,143.6 C1624.59,131.851 1634.12,122.326 1645.87,122.326 L1645.87,117.007 C1631.18,117.007 1619.27,128.913 1619.27,143.6 Z M1635.23,143.6 L1629.91,143.6 C1629.91,134.788 1637.05,127.644 1645.87,127.644 L1645.87,132.963 C1639.99,132.963 1635.23,137.725 1635.23,143.6 Z M1645.87,143.6 L1640.55,143.6 C1640.55,140.663 1642.93,138.281 1645.87,138.281 L1645.87,143.6 Z" id="Shape" fill="#261EE4"></path>
            <path d="M1310.73,143.6 L1358.6,143.6 L1358.6,95.7334 C1332.16,95.7334 1310.73,117.164 1310.73,143.6 Z" id="Path" fill="#4038FF" fill-rule="nonzero"></path>
            <path d="M1314.48,95.7334 L1310.73,95.7334 L1310.73,91.9838 L1354.85,47.8667 L1358.6,47.8667 L1358.6,51.6163 L1314.48,95.7334 Z M1347.32,47.8667 L1339.8,47.8667 L1310.73,76.9324 L1310.73,84.4581 L1347.32,47.8667 Z M1332.27,47.8667 L1324.75,47.8667 L1310.73,61.881 L1310.73,69.4067 L1332.27,47.8667 Z M1310.73,47.8667 L1310.73,54.3553 L1317.22,47.8667 L1310.73,47.8667 Z M1358.6,66.6677 L1358.6,59.142 L1322.01,95.7334 L1329.53,95.7334 L1358.6,66.6677 Z M1358.6,81.7191 L1358.6,74.1934 L1337.06,95.7334 L1344.59,95.7334 L1358.6,81.7191 Z M1358.6,89.2448 L1352.11,95.7334 L1358.6,95.7334 L1358.6,89.2448 Z" id="Shape" fill="#261EE4" fill-rule="nonzero"></path>
            <path d="M435.75,95.7334 L432,95.7334 L432,91.9838 L476.117,47.8667 L479.867,47.8667 L479.867,51.6163 L435.75,95.7334 Z M468.591,47.8667 L461.066,47.8667 L432,76.9324 L432,84.4581 L468.591,47.8667 Z M453.54,47.8667 L446.014,47.8667 L432,61.881 L432,69.4067 L453.54,47.8667 Z M432,47.8667 L432,54.3553 L438.489,47.8667 L432,47.8667 Z M479.867,66.6677 L479.867,59.142 L443.275,95.7334 L450.801,95.7334 L479.867,66.6677 Z M479.867,81.7191 L479.867,74.1934 L458.327,95.7334 L465.852,95.7334 L479.867,81.7191 Z M479.867,89.2448 L473.378,95.7334 L479.867,95.7334 L479.867,89.2448 Z" id="Shape" fill="#261EE4" fill-rule="nonzero"></path>
            <path d="M1215,99.483 L1215,95.7334 L1218.75,95.7334 L1262.87,139.851 L1262.87,143.6 L1259.12,143.6 L1215,99.483 Z M1262.87,132.325 L1262.87,124.799 L1233.8,95.7334 L1226.28,95.7334 L1262.87,132.325 Z M1262.87,117.273 L1262.87,109.748 L1248.85,95.7334 L1241.33,95.7334 L1262.87,117.273 Z M1262.87,95.7334 L1256.38,95.7334 L1262.87,102.222 L1262.87,95.7334 Z M1244.07,143.6 L1251.59,143.6 L1215,107.009 L1215,114.534 L1244.07,143.6 Z M1229.01,143.6 L1236.54,143.6 L1215,122.06 L1215,129.586 L1229.01,143.6 Z M1221.49,143.6 L1215,137.111 L1215,143.6 L1221.49,143.6 Z" id="Shape" fill="#FFFFFF" fill-rule="nonzero"></path>
        </g>
        <text id="The-video-platform-D" font-family="px_grotesk_regularregular" font-size="31" font-weight="normal" line-spacing="31" fill="#FFFFFF">
            <tspan x="732" y="85">The video platform DAO</tspan>
        </text>
    </g>
</svg>