<svg width="200" height="200" viewBox="0 0 200 200" fill="none" xmlns="http://www.w3.org/2000/svg">
<rect width="200" height="200" fill="white"/>
<path d="M52.5358 91.1709C48.006 91.1709 44.3048 94.8672 44.3048 99.4528C44.3048 104.038 47.9783 107.735 52.5358 107.735C57.0932 107.735 60.7668 104.038 60.7668 99.4528C60.7668 94.8672 57.0656 91.1709 52.5358 91.1709ZM52.5358 103.899C50.0775 103.899 48.0888 101.898 48.0888 99.425C48.0888 96.9516 50.0775 94.9506 52.5358 94.9506C54.994 94.9506 56.9827 96.9516 56.9827 99.425C56.9827 101.898 54.994 103.899 52.5358 103.899Z" fill="black"/>
<path d="M133.488 107.735C131.115 107.735 129.155 106.927 127.665 105.313C126.257 103.782 125.567 101.805 125.567 99.4389C125.567 97.0726 126.285 95.1239 127.665 93.5928C129.155 91.9782 131.115 91.1709 133.488 91.1709C135.862 91.1709 137.821 91.9782 139.312 93.5928C140.719 95.1239 141.409 97.1005 141.409 99.4667C141.409 101.833 140.692 103.782 139.312 105.313C137.821 106.9 135.862 107.735 133.488 107.735ZM133.488 94.428C132.081 94.428 131.004 94.9012 130.204 95.8756C129.403 96.8221 129.017 97.9913 129.017 99.4389C129.017 100.914 129.403 102.056 130.204 103.002C131.004 103.977 132.081 104.45 133.488 104.45C134.896 104.45 135.972 103.977 136.772 103.002C137.573 102.056 137.959 100.886 137.959 99.4389C137.959 97.9913 137.573 96.8221 136.772 95.8756C135.972 94.9012 134.896 94.428 133.488 94.428Z" fill="black"/>
<path d="M63.022 113.335L66.0002 106.644L59.7405 91.4294H63.546L67.8477 102.479L72.2323 91.4294H76.0101L66.7999 113.335H63.022Z" fill="black"/>
<path d="M82.4396 107.735C80.345 107.735 78.6362 107.178 77.3684 106.094C76.1832 105.12 75.5218 103.813 75.4391 102.227L75.4115 101.559H78.9394L78.9945 102.116C79.1047 103.228 79.7111 103.952 80.8686 104.341C81.3096 104.48 81.7506 104.536 82.1916 104.536C82.6601 104.536 83.1011 104.508 83.5145 104.452C83.9004 104.397 84.2862 104.313 84.6445 104.174C85.5265 103.813 85.6643 103.284 85.6643 102.839C85.6643 102.422 85.5265 102.171 85.2233 101.949C84.8099 101.671 84.2587 101.42 83.5972 101.226C82.8806 101.031 82.1089 100.836 81.2821 100.669C80.4001 100.502 79.5733 100.252 78.8016 99.946C78.0023 99.6122 77.3132 99.1671 76.762 98.583C76.1832 97.9432 75.8801 97.0808 75.8801 96.0238C75.8801 94.466 76.4589 93.2699 77.5889 92.3797C78.6637 91.5452 80.2347 91.1279 82.2743 91.1279C84.2035 91.1279 85.7745 91.6286 86.9321 92.5744C87.9243 93.4089 88.5031 94.5216 88.6409 95.8847L88.7236 96.5801H85.2509L85.1682 96.0238C85.0855 95.2727 84.6445 94.2713 82.1089 94.2713C79.3528 94.2713 79.3528 95.3561 79.3528 95.7734C79.3528 96.135 79.4906 96.4132 79.7937 96.5801C80.2072 96.8583 80.7584 97.0808 81.4199 97.2477C82.1364 97.4424 82.9082 97.6093 83.735 97.7762C84.6169 97.9432 85.4713 98.1935 86.2155 98.5273C87.0148 98.8611 87.7038 99.334 88.255 99.946C88.8338 100.586 89.137 101.476 89.137 102.561C89.137 104.202 88.5031 105.509 87.2628 106.372C85.995 107.318 84.3965 107.735 82.4396 107.735Z" fill="black"/>
<path d="M92.2059 107.476V94.6264H89.2225V91.4H92.2059V86.0876H95.6867V91.4H99.0569V94.6264H95.6867V107.476H92.2059Z" fill="black"/>
<path d="M100.211 107.47V91.3934H103.668V93.2848C104.249 92.645 104.968 92.1166 105.853 91.6994C106.572 91.3378 107.457 91.1709 108.48 91.1709H109.255V94.6477H108.37C106.959 94.6477 105.853 95.2039 104.968 96.3443C104.111 97.4569 103.696 98.7641 103.696 100.35V107.498H100.211V107.47Z" fill="black"/>
<path d="M117.16 107.735C114.783 107.735 112.793 106.927 111.273 105.313C109.809 103.754 109.062 101.777 109.062 99.4389C109.062 97.1005 109.781 95.1239 111.163 93.5928C112.655 91.9782 114.617 91.1709 116.994 91.1709C119.371 91.1709 121.333 91.9782 122.825 93.5928C124.235 95.1239 124.926 97.1005 124.926 99.4667V100.998H112.71C112.931 101.916 113.374 102.668 114.009 103.281C114.838 104.088 115.861 104.478 117.16 104.478C118.901 104.478 120.117 103.782 120.863 102.334L121.029 102H124.732L124.401 102.863C123.848 104.311 122.964 105.508 121.748 106.398C120.587 107.261 119.039 107.735 117.16 107.735ZM121.25 97.6294C121.029 96.7942 120.614 96.0983 120.006 95.5415C119.205 94.7899 118.21 94.428 117.022 94.428C115.806 94.428 114.838 94.7899 114.037 95.5415C113.429 96.0983 113.042 96.7942 112.793 97.6294H121.25Z" fill="black"/>
<path d="M163.522 107.476V97.9764C163.522 96.893 163.246 96.0597 162.639 95.3653C162.059 94.7542 161.369 94.4486 160.485 94.4486C159.519 94.4486 158.746 94.7542 158.139 95.3653C157.477 96.0042 157.145 96.8653 157.145 98.0041V107.476H153.695V97.9764C153.695 96.893 153.419 96.0597 152.811 95.3653C152.232 94.7542 151.542 94.4486 150.658 94.4486C149.692 94.4486 148.919 94.7542 148.312 95.3653C147.649 96.0042 147.318 96.8653 147.318 98.0041V107.476H143.868V91.4209H147.318V92.532C148.34 91.6431 149.609 91.1709 151.155 91.1709C152.259 91.1709 153.281 91.4764 154.219 92.0598C154.854 92.4764 155.406 92.9764 155.876 93.6153C156.593 92.6987 157.559 92.0042 158.746 91.532C159.381 91.282 160.099 91.1709 160.899 91.1709C161.7 91.1709 162.473 91.3376 163.218 91.6431C163.936 91.9487 164.598 92.4209 165.178 93.0042C166.393 94.3097 167 95.9486 167 97.893V107.476H163.522Z" fill="black"/>
<path d="M99.0355 91.4509H89.1797V94.5311H99.0355V91.4509Z" fill="black"/>
<path d="M42.8447 91.4294H34V94.5414H39.4174V107.322C39.4174 108.351 38.7817 109.267 37.8419 109.629L35.6584 110.49L36.5981 113.852L39.8873 112.574C40.9929 112.129 41.905 111.296 42.4301 110.184C42.7342 109.545 42.8724 108.878 42.8724 108.156V91.4294H42.8447Z" fill="black"/>
<path d="M141.388 91.4509H137.988V107.455H141.388V91.4509Z" fill="black"/>
</svg>
