<?xml version="1.0" encoding="UTF-8"?>
<svg width="1310px" height="800px" viewBox="0 0 1310 800" version="1.1" xmlns="http://www.w3.org/2000/svg" xmlns:xlink="http://www.w3.org/1999/xlink">
    <!-- Generator: Sketch 58 (84663) - https://sketch.com -->
    <title>Blog-template-16</title>
    <desc>Created with Sketch.</desc>
    <g id="Blog-template-16" stroke="none" stroke-width="1" fill="none" fill-rule="evenodd">
        <rect fill="#4038FF" x="0" y="0" width="1310" height="800"></rect>
        <g id="Group" transform="translate(910.000000, 250.000000) scale(1, -1) rotate(-270.000000) translate(-910.000000, -250.000000) translate(660.000000, -150.000000)">
            <g id="Group-2">
                <path d="M177.868875,233.145277 L166.765367,233.145277 L166.765367,244.268264 L177.868875,244.268264 L177.868875,255.418891 L166.765367,255.418891 L166.765367,266.569518 L177.868875,266.569518 L177.868875,277.692505 L189,277.692505 L189,288.843132 L177.868875,288.843132 L177.868875,277.720145 L166.765367,277.720145 L166.765367,288.843132 L177.868875,288.843132 L177.868875,300 L166.737751,300 L166.737751,288.849373 L155.634243,288.849373 L155.634243,277.726386 L144.503118,277.726386 L144.503118,288.849373 L133.371993,288.849373 L133.371993,277.726386 L122.268485,277.726386 L122.268485,288.849373 L133.371993,288.849373 L133.371993,300 L122.239978,300 L122.239978,288.849373 L111.13736,288.849373 L111.13736,300 L100,300 L100,288.849373 L111.131125,288.849373 L111.131125,277.726386 L100,277.726386 L100,266.574868 L111.131125,266.574868 L111.131125,255.424241 L100,255.424241 L100,244.273614 L111.131125,244.273614 L111.131125,233.150627 L111.131125,233.122987 L122.234633,233.122987 L122.234633,222 L133.365757,222 L133.365757,233.122987 L144.496882,233.122987 L144.496882,222 L155.628897,222 L155.628897,233.122987 L166.732406,233.122987 L166.732406,222 L177.86353,222 L177.86353,233.122987 L188.994655,233.122987 L188.994655,244.273614 L177.86353,244.273614 L177.86353,233.145277 L177.868875,233.145277 Z M111,233.972735 L111,223 L100,223 L100,234 L111,234 L111,233.972735 Z M145,289 L145,300 L156,300 L156,289 L145,289 Z M178,266 L178,255 L189,255 L189,266 L178,266 Z M122,277 L111,277 L111,266 L122,266 L122,277 Z M122.263586,222 L122.263586,211 L133.367761,211 L133.367761,222 L144.499555,222 L144.499555,211 L155.632239,211 L155.632239,222 L166.764032,222 L166.764032,211 L177.868207,211 L177.868207,222 L189,222 L189,211 L177.868207,211 L177.868207,200 L166.736414,200 L166.736414,211 L155.632239,211 L155.632239,200 L144.499555,200 L144.499555,211 L133.367761,211 L133.367761,200 L122.235968,200 L122.235968,211 L111.131793,211 L111.131793,200 L100,200 L100,211 L111.131793,211 L111.131793,222 L122.263586,222 Z M166,244 L166,255 L155,255 L155,244 L166,244 Z M145,245 L145,234 L156,234 L156,245 L145,245 Z M134,244 L145,244 L145,255 L134,255 L134,244 Z M134,245 L123,245 L123,234 L134,234 L134,245 Z M134,266 L123,266 L123,255 L134,255 L134,266 Z M145,266 L145,277 L134,277 L134,266 L145,266 Z M156,266 L145,266 L145,255 L156,255 L156,266 Z M155,266 L166,266 L166,277 L155,277 L155,266 Z M122,255 L122,244 L111,244 L111,255 L122,255 Z M200,289 L189,289 L189,300 L200,300 L200,289 Z M189,266 L200,266 L200,277 L189,277 L189,266 Z M200,244 L189,244 L189,255 L200,255 L200,244 Z M189,223 L200,223 L200,234 L189,234 L189,223 Z M189,200 L200,200 L200,211 L189,211 L189,200 Z" id="Shape" fill="#261EE4"></path>
                <path d="M477.868875,33.1452773 L466.765367,33.1452773 L466.765367,44.268264 L477.868875,44.268264 L477.868875,55.418891 L466.765367,55.418891 L466.765367,66.569518 L477.868875,66.569518 L477.868875,77.6925047 L489,77.6925047 L489,88.8431317 L477.868875,88.8431317 L477.868875,77.7201449 L466.765367,77.7201449 L466.765367,88.8431317 L477.868875,88.8431317 L477.868875,100 L466.737751,100 L466.737751,88.849373 L455.634243,88.849373 L455.634243,77.7263863 L444.503118,77.7263863 L444.503118,88.849373 L433.371993,88.849373 L433.371993,77.7263863 L422.268485,77.7263863 L422.268485,88.849373 L433.371993,88.849373 L433.371993,100 L422.239978,100 L422.239978,88.849373 L411.13736,88.849373 L411.13736,100 L400,100 L400,88.849373 L411.131125,88.849373 L411.131125,77.7263863 L400,77.7263863 L400,66.5748677 L411.131125,66.5748677 L411.131125,55.4242407 L400,55.4242407 L400,44.2736137 L411.131125,44.2736137 L411.131125,33.150627 L411.131125,33.1229867 L422.234633,33.1229867 L422.234633,22 L433.365757,22 L433.365757,33.1229867 L444.496882,33.1229867 L444.496882,22 L455.628897,22 L455.628897,33.1229867 L466.732406,33.1229867 L466.732406,22 L477.86353,22 L477.86353,33.1229867 L488.994655,33.1229867 L488.994655,44.2736137 L477.86353,44.2736137 L477.86353,33.1452773 L477.868875,33.1452773 Z M411,33.9727353 L411,23 L400,23 L400,34 L411,34 L411,33.9727353 Z M445,89 L445,100 L456,100 L456,89 L445,89 Z M478,66 L478,55 L489,55 L489,66 L478,66 Z M422,77 L411,77 L411,66 L422,66 L422,77 Z M422.263586,22 L422.263586,11 L433.367761,11 L433.367761,22 L444.499555,22 L444.499555,11 L455.632239,11 L455.632239,22 L466.764032,22 L466.764032,11 L477.868207,11 L477.868207,22 L489,22 L489,11 L477.868207,11 L477.868207,0 L466.736414,0 L466.736414,11 L455.632239,11 L455.632239,0 L444.499555,0 L444.499555,11 L433.367761,11 L433.367761,0 L422.235968,0 L422.235968,11 L411.131793,11 L411.131793,0 L400,0 L400,11 L411.131793,11 L411.131793,22 L422.263586,22 Z M466,44 L466,55 L455,55 L455,44 L466,44 Z M445,45 L445,34 L456,34 L456,45 L445,45 Z M434,44 L445,44 L445,55 L434,55 L434,44 Z M434,45 L423,45 L423,34 L434,34 L434,45 Z M434,66 L423,66 L423,55 L434,55 L434,66 Z M445,66 L445,77 L434,77 L434,66 L445,66 Z M456,66 L445,66 L445,55 L456,55 L456,66 Z M455,66 L466,66 L466,77 L455,77 L455,66 Z M422,55 L422,44 L411,44 L411,55 L422,55 Z M500,89 L489,89 L489,100 L500,100 L500,89 Z M489,66 L500,66 L500,77 L489,77 L489,66 Z M500,44 L489,44 L489,55 L500,55 L500,44 Z M489,23 L500,23 L500,34 L489,34 L489,23 Z M489,0 L500,0 L500,11 L489,11 L489,0 Z" id="Shape-Copy-5" fill="#261EE4"></path>
                <path d="M489,400 L500,400 L500,300 L489,300 L489,400 Z M477,400 L466,400 L466,300 L477,300 L477,400 Z M456,400 L445,400 L445,300 L456,300 L456,400 Z M423,400 L434,400 L434,300 L423,300 L423,400 Z M411,400 L400,400 L400,300 L411,300 L411,400 Z" id="Shape" fill="#261EE4"></path>
                <path d="M389,300 L400,300 L400,200 L389,200 L389,300 Z M377,300 L366,300 L366,200 L377,200 L377,300 Z M356,300 L345,300 L345,200 L356,200 L356,300 Z M323,300 L334,300 L334,200 L323,200 L323,300 Z M311,300 L300,300 L300,200 L311,200 L311,300 Z" id="Shape-Copy-6" fill="#261EE4"></path>
                <path d="M300,111 L300,100 L200,100 L200,111 L300,111 Z M300,123 L300,134 L200,134 L200,123 L300,123 Z M300,144 L300,155 L200,155 L200,144 L300,144 Z M300,177 L300,166 L200,166 L200,177 L300,177 Z M300,189 L300,200 L200,200 L200,189 L300,189 Z" id="Shape" fill="#261EE4"></path>
                <path d="M400,389 L400,400 L300,400 L300,389 L400,389 Z M400,355 L400,344 L300,344 L300,355 L400,355 Z M400,323 L400,334 L300,334 L300,323 L400,323 Z M400,300 L400,311 L300,311 L300,300 L400,300 Z M400,377 L400,366 L300,366 L300,377 L400,377 Z" id="Shape" fill="#261EE4"></path>
                <path d="M488.88879,400 L500,400 C500,455.227556 455.227758,500 400,500 L400,488.888889 C449.094306,488.888889 488.88879,449.094222 488.88879,400 Z M466.857015,400 L478,400 C478,443.078286 443.078356,478 400,478 L400,466.857143 C436.92201,466.857143 466.857015,436.92208 466.857015,400 Z M455,400 L444,400 C444,424.29856 424.298823,444 400,444 L400,455 C430.376171,455 455,430.37672 455,400 Z M422.666667,400 L434,400 C434,418.77888 418.779086,434 400,434 L400,422.666667 C412.517575,422.666667 422.666667,412.51744 422.666667,400 Z M400,400 L411,400 C411,406.07728 406.077348,411 400,411 L400,400 Z" id="Shape" fill="#FFFFFF"></path>
                <path d="M211.11121,400 L200,400 C200,344.772444 244.772242,300 300,300 L300,311.111111 C250.905694,311.111111 211.11121,350.905778 211.11121,400 Z M233.142985,400 L222,400 C222,356.921714 256.921644,322 300,322 L300,333.142857 C263.07799,333.142857 233.142985,363.07792 233.142985,400 Z M245,400 L256.000176,400 C256.000176,375.70056 275.700788,356 300,356 L300,345 C269.623343,345 245,369.62328 245,400 Z M277.332728,400 L266,400 C266,381.220213 281.220413,366 300,366 L300,377.333333 C287.48209,377.333333 277.332728,387.48256 277.332728,400 Z M300,400 L289,400 C289,393.92272 293.922652,389 300,389 L300,400 Z" id="Shape" fill="#261EE4" transform="translate(250.000000, 350.000000) rotate(-270.000000) translate(-250.000000, -350.000000) "></path>
                <path d="M11.11121,100 L0,100 C0,44.7724444 44.772242,0 100,0 L100,11.1111111 C50.905694,11.1111111 11.11121,50.9057778 11.11121,100 Z M33.1429846,100 L22,100 C22,56.9217143 56.9216444,22 100,22 L100,33.1428571 C63.0779895,33.1428571 33.1429846,63.07792 33.1429846,100 Z M45,100 L56.0001762,100 C56.0001762,75.70056 75.7007879,56 100,56 L100,45 C69.6233425,45 45,69.62328 45,100 Z M77.3327283,100 L66,100 C66,81.2202133 81.2204132,66 100,66 L100,77.3333333 C87.4820904,77.3333333 77.3327283,87.48256 77.3327283,100 Z M100,100 L89,100 C89,93.92272 93.9226519,89 100,89 L100,100 Z" id="Shape-Copy-3" fill="#FFFFFF"></path>
                <path d="M311.11121,100 L300,100 C300,44.7724444 344.772242,0 400,0 L400,11.1111111 C350.905694,11.1111111 311.11121,50.9057778 311.11121,100 Z M333.142985,100 L322,100 C322,56.9217143 356.921644,22 400,22 L400,33.1428571 C363.07799,33.1428571 333.142985,63.07792 333.142985,100 Z M345,100 L356.000176,100 C356.000176,75.70056 375.700788,56 400,56 L400,45 C369.623343,45 345,69.62328 345,100 Z M377.332728,100 L366,100 C366,81.2202133 381.220413,66 400,66 L400,77.3333333 C387.48209,77.3333333 377.332728,87.48256 377.332728,100 Z M400,100 L389,100 C389,93.92272 393.922652,89 400,89 L400,100 Z" id="Shape-Copy-7" fill="#FFFFFF" transform="translate(350.000000, 50.000000) rotate(-90.000000) translate(-350.000000, -50.000000) "></path>
                <path d="M111.11121,100 L100,100 C100,44.7724444 144.772242,0 200,0 L200,11.1111111 C150.905694,11.1111111 111.11121,50.9057778 111.11121,100 Z M133.142985,100 L122,100 C122,56.9217143 156.921644,22 200,22 L200,33.1428571 C163.07799,33.1428571 133.142985,63.07792 133.142985,100 Z M145,100 L156.000176,100 C156.000176,75.70056 175.700788,56 200,56 L200,45 C169.623343,45 145,69.62328 145,100 Z M177.332728,100 L166,100 C166,81.2202133 181.220413,66 200,66 L200,77.3333333 C187.48209,77.3333333 177.332728,87.48256 177.332728,100 Z M200,100 L189,100 C189,93.92272 193.922652,89 200,89 L200,100 Z" id="Shape-Copy-4" fill="#261EE4" transform="translate(150.000000, 50.000000) rotate(-180.000000) translate(-150.000000, -50.000000) "></path>
                <path d="M400,700 L500,700 L500,600 C444.772242,600 400,644.772444 400,700 Z" id="Path" fill="#261EE4" fill-rule="nonzero"></path>
                <path d="M500,792.167111 L500,800 L492.16637,800 L400,707.833778 L400,700 L407.83274,700 L500,792.167111 Z M400,724 L400,739.631256 L460.369773,800 L476,800 L400,724 Z M400,770.721778 L400,755 L445,800 L429.27758,800 L400,770.721778 Z M400,800 L414,800 L400,786 L400,800 Z M424,700 L439.63093,700 L500,760.368744 L500,776 L424,700 Z M470.72242,700 L455,700 L500,745 L500,729.278222 L470.72242,700 Z M500,714 L486,700 L500,700 L500,714 Z" id="Shape" fill="#261EE4"></path>
                <path d="M500,192.167111 L500,200 L492.16637,200 L400,107.833778 L400,100 L407.83274,100 L500,192.167111 Z M400,124 L400,139.631256 L460.369773,200 L476,200 L400,124 Z M400,170.721778 L400,155 L445,200 L429.27758,200 L400,170.721778 Z M400,200 L414,200 L400,186 L400,200 Z M424,100 L439.63093,100 L500,160.368744 L500,176 L424,100 Z M470.72242,100 L455,100 L500,145 L500,129.278222 L470.72242,100 Z M500,114 L486,100 L500,100 L500,114 Z" id="Shape-Copy" fill="#261EE4" transform="translate(450.000000, 150.000000) rotate(-270.000000) translate(-450.000000, -150.000000) "></path>
            </g>
        </g>
        <g id="Group-Copy" transform="translate(50.000000, 550.000000) scale(1, -1) rotate(-90.000000) translate(-50.000000, -550.000000) translate(-200.000000, 100.000000)">
            <g id="Group-2">
                <path d="M489,400 L500,400 L500,300 L489,300 L489,400 Z M477,400 L466,400 L466,300 L477,300 L477,400 Z M456,400 L445,400 L445,300 L456,300 L456,400 Z M423,400 L434,400 L434,300 L423,300 L423,400 Z M411,400 L400,400 L400,300 L411,300 L411,400 Z" id="Shape" fill="#261EE4"></path>
                <path d="M488.88879,400 L500,400 C500,455.227556 455.227758,500 400,500 L400,488.888889 C449.094306,488.888889 488.88879,449.094222 488.88879,400 Z M466.857015,400 L478,400 C478,443.078286 443.078356,478 400,478 L400,466.857143 C436.92201,466.857143 466.857015,436.92208 466.857015,400 Z M455,400 L444,400 C444,424.29856 424.298823,444 400,444 L400,455 C430.376171,455 455,430.37672 455,400 Z M422.666667,400 L434,400 C434,418.77888 418.779086,434 400,434 L400,422.666667 C412.517575,422.666667 422.666667,412.51744 422.666667,400 Z M400,400 L411,400 C411,406.07728 406.077348,411 400,411 L400,400 Z" id="Shape" fill="#FFFFFF"></path>
                <path d="M111.11121,500 L100,500 C100,444.772444 144.772242,400 200,400 L200,411.111111 C150.905694,411.111111 111.11121,450.905778 111.11121,500 Z M133.142985,500 L122,500 C122,456.921714 156.921644,422 200,422 L200,433.142857 C163.07799,433.142857 133.142985,463.07792 133.142985,500 Z M145,500 L156.000176,500 C156.000176,475.70056 175.700788,456 200,456 L200,445 C169.623343,445 145,469.62328 145,500 Z M177.332728,500 L166,500 C166,481.220213 181.220413,466 200,466 L200,477.333333 C187.48209,477.333333 177.332728,487.48256 177.332728,500 Z M200,500 L189,500 C189,493.92272 193.922652,489 200,489 L200,500 Z" id="Shape" fill="#261EE4"></path>
                <path d="M311.11121,700 L300,700 C300,644.772444 344.772242,600 400,600 L400,611.111111 C350.905694,611.111111 311.11121,650.905778 311.11121,700 Z M333.142985,700 L322,700 C322,656.921714 356.921644,622 400,622 L400,633.142857 C363.07799,633.142857 333.142985,663.07792 333.142985,700 Z M345,700 L356.000176,700 C356.000176,675.70056 375.700788,656 400,656 L400,645 C369.623343,645 345,669.62328 345,700 Z M377.332728,700 L366,700 C366,681.220213 381.220413,666 400,666 L400,677.333333 C387.48209,677.333333 377.332728,687.48256 377.332728,700 Z M400,700 L389,700 C389,693.92272 393.922652,689 400,689 L400,700 Z" id="Shape-Copy-2" fill="#FFFFFF" transform="translate(350.000000, 650.000000) scale(-1, 1) translate(-350.000000, -650.000000) "></path>
                <path d="M200,600 L300,600 L300,500 C244.772242,500 200,544.772444 200,600 Z" id="Path" fill="#261EE4" fill-rule="nonzero"></path>
                <path d="M400,700 L500,700 L500,600 C444.772242,600 400,644.772444 400,700 Z" id="Path" fill="#261EE4" fill-rule="nonzero"></path>
                <path d="M500,792.167111 L500,800 L492.16637,800 L400,707.833778 L400,700 L407.83274,700 L500,792.167111 Z M400,724 L400,739.631256 L460.369773,800 L476,800 L400,724 Z M400,770.721778 L400,755 L445,800 L429.27758,800 L400,770.721778 Z M400,800 L414,800 L400,786 L400,800 Z M424,700 L439.63093,700 L500,760.368744 L500,776 L424,700 Z M470.72242,700 L455,700 L500,745 L500,729.278222 L470.72242,700 Z M500,714 L486,700 L500,700 L500,714 Z" id="Shape" fill="#261EE4"></path>
                <path d="M377.868875,833.145277 L366.765367,833.145277 L366.765367,844.268264 L377.868875,844.268264 L377.868875,855.418891 L366.765367,855.418891 L366.765367,866.569518 L377.868875,866.569518 L377.868875,877.692505 L389,877.692505 L389,888.843132 L377.868875,888.843132 L377.868875,877.720145 L366.765367,877.720145 L366.765367,888.843132 L377.868875,888.843132 L377.868875,900 L366.737751,900 L366.737751,888.849373 L355.634243,888.849373 L355.634243,877.726386 L344.503118,877.726386 L344.503118,888.849373 L333.371993,888.849373 L333.371993,877.726386 L322.268485,877.726386 L322.268485,888.849373 L333.371993,888.849373 L333.371993,900 L322.239978,900 L322.239978,888.849373 L311.13736,888.849373 L311.13736,900 L300,900 L300,888.849373 L311.131125,888.849373 L311.131125,877.726386 L300,877.726386 L300,866.574868 L311.131125,866.574868 L311.131125,855.424241 L300,855.424241 L300,844.273614 L311.131125,844.273614 L311.131125,833.150627 L311.131125,833.122987 L322.234633,833.122987 L322.234633,822 L333.365757,822 L333.365757,833.122987 L344.496882,833.122987 L344.496882,822 L355.628897,822 L355.628897,833.122987 L366.732406,833.122987 L366.732406,822 L377.86353,822 L377.86353,833.122987 L388.994655,833.122987 L388.994655,844.273614 L377.86353,844.273614 L377.86353,833.145277 L377.868875,833.145277 Z M311,833.972735 L311,823 L300,823 L300,834 L311,834 L311,833.972735 Z M345,889 L345,900 L356,900 L356,889 L345,889 Z M378,866 L378,855 L389,855 L389,866 L378,866 Z M322,877 L311,877 L311,866 L322,866 L322,877 Z M322.263586,822 L322.263586,811 L333.367761,811 L333.367761,822 L344.499555,822 L344.499555,811 L355.632239,811 L355.632239,822 L366.764032,822 L366.764032,811 L377.868207,811 L377.868207,822 L389,822 L389,811 L377.868207,811 L377.868207,800 L366.736414,800 L366.736414,811 L355.632239,811 L355.632239,800 L344.499555,800 L344.499555,811 L333.367761,811 L333.367761,800 L322.235968,800 L322.235968,811 L311.131793,811 L311.131793,800 L300,800 L300,811 L311.131793,811 L311.131793,822 L322.263586,822 Z M366,844 L366,855 L355,855 L355,844 L366,844 Z M345,845 L345,834 L356,834 L356,845 L345,845 Z M334,844 L345,844 L345,855 L334,855 L334,844 Z M334,845 L323,845 L323,834 L334,834 L334,845 Z M334,866 L323,866 L323,855 L334,855 L334,866 Z M345,866 L345,877 L334,877 L334,866 L345,866 Z M356,866 L345,866 L345,855 L356,855 L356,866 Z M355,866 L366,866 L366,877 L355,877 L355,866 Z M322,855 L322,844 L311,844 L311,855 L322,855 Z M400,889 L389,889 L389,900 L400,900 L400,889 Z M389,866 L400,866 L400,877 L389,877 L389,866 Z M400,844 L389,844 L389,855 L400,855 L400,844 Z M389,823 L400,823 L400,834 L389,834 L389,823 Z M389,800 L400,800 L400,811 L389,811 L389,800 Z" id="Shape" fill="#261EE4"></path>
            </g>
        </g>
        <g id="Group" transform="translate(423.000000, 171.000000)" fill-rule="nonzero">
            <path d="M435.644,14.7822 L293.71,14.7822 C252.331,14.7822 212.157,28.9635 179.978,54.996 L111.201,110.235 L98.747,70.6236 C98.747,70.6236 99.2291,8.9168 97.3409,6.30551 C96.899,5.66273 24.9881,-9.52294 24.9881,9.6801 C24.9881,10.5237 27.4788,35.5118 27.5592,36.8375 C22.8187,36.8375 19.0022,40.654 19.0022,45.3945 L18.0782,81.1491 C18.0782,81.1491 18.0782,81.109 18.038,81.109 C17.2345,94.6877 17.6363,116.221 17.6363,116.904 C17.6764,120.399 18.2389,123.693 20.7296,126.385 C22.899,128.715 20.4082,146.431 21.6135,147.275 C22.4973,147.878 26.0727,147.998 26.0326,148.882 C25.912,150.931 30.6525,185.119 30.6525,185.119 L26.2334,278.844 C25.3898,296.48 27.9609,314.117 33.7057,330.829 C39.6916,348.144 42.2226,366.503 41.0977,384.822 C40.8567,388.719 40.6156,392.495 40.3746,395.749 C39.8122,403.101 36.4777,410.011 31.0141,414.953 L9.44082,434.517 C3.45494,439.981 0,447.694 0,455.769 C0,455.809 0,455.849 0,455.89 C8.27579,455.849 417.244,455.849 434.479,455.849 C434.479,455.849 434.037,454.483 433.233,452.113 C412.343,389.844 401.054,324.763 399.769,259.119 C399.769,233.488 388.56,211.191 371.285,195.925 C360.238,186.203 361.001,168.768 372.732,159.849 C400.211,139.039 435.604,99.388 435.604,33.3022 L435.604,14.7822 L435.644,14.7822 Z M389.082,363.128 C389.163,363.169 389.203,363.209 389.283,363.289 C389.243,363.329 389.203,363.329 389.163,363.369 C389.123,363.329 389.042,363.329 389.042,363.289 C389.042,363.209 389.082,363.169 389.082,363.128 Z M364.576,252.41 C365.621,251.767 379.28,278.402 379.32,282.138 C379.401,286.758 382.333,362.566 381.449,366.583 C380.325,365.217 369.357,339.225 366.264,332.074 C365.34,329.945 363.492,253.093 364.576,252.41 Z M116.705,413.386 C116.263,417.725 103.005,433.834 100.153,434.236 C97.9033,434.557 78.4994,414.631 78.8208,409.288 C79.4234,406.677 95.8545,371.003 98.9077,373.373 C99.3898,373.815 117.066,409.609 116.705,413.386 Z M238.873,397.316 C235.78,406.315 211.233,442.672 209.506,442.672 C197.173,442.632 188.897,442.632 176.563,442.713 C174.756,442.713 151.535,396.031 150.25,388.197 C150.129,387.393 147.357,351.157 149.848,349.389 C154.629,345.974 233.128,339.627 235.177,339.788 C237.186,339.948 239.917,394.303 238.873,397.316 Z M357.426,394.263 C358.43,397.356 362.086,419.613 360.68,423.791 C359.515,427.286 331.192,442.632 330.991,442.632 C318.819,442.632 306.646,442.632 294.473,442.632 C292.866,442.632 277.158,411.297 277.278305,410.574 C278.082,405.753 297.527,358.709 299.013,357.705 C302.428,355.375 355.859,389.523 357.426,394.263 Z" id="Shape" fill="#000000"></path>
            <path d="M458.061,435.602 L458.101,435.602 C458.101,435.602 458.101,435.562 458.061,435.602 Z" id="Path" fill="#4B4B4B"></path>
            <path d="M59.0151,217.699 C59.0151,217.699 59.0151,217.659 59.0553,217.659 L59.0553,217.619 C59.0553,217.659 59.0151,217.699 59.0151,217.699 Z" id="Path" fill="#787878"></path>
            <path d="M59.417,216.896 C59.417,216.896 59.4572,216.896 59.417,216.896 C59.4572,216.856 59.4572,216.856 59.4572,216.856 L59.417,216.896 Z" id="Path" fill="#787878"></path>
            <path d="M463.766,421.742 C463.645,421.782 463.524,421.782 463.404,421.782 C463.404,421.782 463.324,421.541 463.364,421.541 C463.484,421.501 463.605,421.461 463.725,421.461 C463.766,421.541 463.766,421.662 463.766,421.742 Z" id="Path" fill="#4B4B4B"></path>
            <path d="M428.694,410.293 C428.734,410.293 428.814,410.293 428.855,410.293 C428.814,410.293 428.774,410.293 428.694,410.293 C428.734,410.252 428.694,410.293 428.694,410.293 Z" id="Path" fill="#A0A0A0"></path>
            <path d="M421.503,413.868 C421.422,413.828 421.342,413.787 421.302,413.747 C421.342,413.747 421.382,413.747 421.422,413.787 C421.462,413.787 421.462,413.868 421.503,413.868 Z" id="Path" fill="#A0A0A0"></path>
            <path d="M428.493,414.912 C428.453,414.752 428.372,414.591 428.332,414.47 C428.493,414.511 428.694,414.511 428.855,414.551 C428.734,414.671 428.614,414.792 428.493,414.912 Z" id="Path" fill="#A0A0A0"></path>
            <path d="M425.118,457.296 L425.159,457.255 L425.118,457.296 Z" id="Path" fill="#4B4B4B"></path>
            <path d="M421.462,413.908 C421.462,413.908 421.503,413.868 421.462,413.908 C421.503,413.868 421.462,413.908 421.462,413.908 Z" id="Path" fill="#A0A0A0"></path>
            <path d="M429.537,416.68 C429.497,416.68 429.417,416.68 429.376,416.64 C429.417,416.68 429.497,416.68 429.537,416.68 C429.537,416.72 429.537,416.68 429.537,416.68 Z" id="Path" fill="#787878"></path>
            <path d="M429.095,419.934 C429.055,419.894 429.055,419.854 429.015,419.814 C429.095,419.814 429.176,419.773 429.256,419.773 C429.216,419.814 429.136,419.894 429.095,419.934 Z" id="Path" fill="#787878"></path>
            <path d="M45.8381,121.122 C41.5797,114.132 34.7502,109.11 26.7154,107.342 C25.6709,107.101 25.0683,106.981 25.0683,106.981 C24.1845,106.499 23.14,107.101 23.0998,108.106 L18.6003,115.056 C19.9261,115.618 33.1031,117.828 26.9565,124.256 L26.9565,124.296 C26.9565,124.336 26.9565,124.376 26.9163,124.416 L26.9163,124.456 C26.9163,124.497 26.9163,124.537 26.9163,124.577 L26.9163,124.617 C26.9163,124.657 26.9163,124.697 26.9163,124.738 L26.9163,124.778 C26.9163,124.818 26.9163,124.818 26.9565,124.858 C26.9565,124.858 26.9565,124.898 26.9966,124.898 C26.9966,124.939 27.0368,124.939 27.0368,124.979 L27.077,125.019 L27.1172,125.059 C27.1172,125.059 27.1573,125.059 27.1573,125.099 C27.1975,125.099 27.1975,125.139 27.2377,125.139 C27.2779,125.139 27.2779,125.139 27.318,125.18 C27.3582,125.18 27.3582,125.18 27.3984,125.22 C27.4386,125.22 27.4787,125.22 27.5189,125.22 C27.5591,125.22 27.5993,125.22 27.6394,125.22 C27.6796,125.22 27.7198,125.22 27.7599,125.22 C27.8001,125.22 27.8403,125.22 27.8805,125.22 C27.9206,125.22 28.001,125.22 28.0813,125.18 C28.1215,125.18 28.1617,125.18 28.1617,125.18 C28.2822,125.18 28.3626,125.139 28.4831,125.099 C28.6036,125.059 28.7241,125.059 28.8045,125.059 C28.8446,125.059 28.925,125.059 28.9652,125.059 C29.2464,125.059 29.5678,125.099 29.849,125.139 C29.9293,125.139 30.0499,125.18 30.1302,125.18 C30.5721,125.26 30.9738,125.421 31.0944,125.903 C31.2149,126.425 30.773,126.746 30.4516,127.068 C30.4114,127.108 30.3712,127.148 30.2909,127.188 C30.2507,127.228 30.1704,127.269 30.1302,127.309 C27.1975,129.96 26.7154,130.402 27.5591,132.973 C27.6394,133.174 28.001,134.259 28.1617,134.661 C28.7241,136.227 27.318,139.16 27.2779,139.24 C27.1172,139.522 36.9999,147.114 36.9999,147.114 C37.0802,147.114 37.3213,147.114 37.3615,147.114 C37.4016,147.114 37.482,147.114 37.5222,147.114 C37.5623,147.114 37.5623,147.114 37.6025,147.074 C37.6427,147.074 37.6829,147.034 37.723,147.034 C37.7632,147.034 37.7632,146.994 37.8034,146.994 C37.8436,146.994 37.8837,146.954 37.9239,146.954 C37.9641,146.954 38.0846,146.873 38.1248,146.833 C38.1649,146.793 38.1649,146.793 38.2051,146.753 C38.2051,146.753 40.2138,145.427 43.3072,143.378 C50.0965,138.798 51.7035,129.559 47.0032,122.849 C46.6014,122.327 46.1997,121.725 45.8381,121.122 Z" id="Path" fill="#C4C3C6"></path>
            <path d="M239.033,420.657 C239.074,420.697 239.114,420.738 239.074,420.778 L238.953,420.778 C238.993,420.738 239.033,420.697 239.033,420.657 Z" id="Path" fill="#A0A0A0"></path>
            <path d="M338.986,33.8245 C260.647,33.8245 189.54,64.9189 137.394,115.457 C121.164,131.206 99.4701,140.084 76.8523,140.084 C76.8523,141.169 76.9326,142.213 77.013,143.258 C79.4234,170.817 76.089,198.497 66.6481,224.489 C55.3995,255.423 49.2529,288.807 49.2529,323.597 L65.0814,323.597 C103.447,323.597 137.715,299.654 150.933,263.658 C170.979,209.062 223.004,172.745 281.176,172.745 L281.296,172.745 C357.948,172.745 420.056,110.596 420.056,33.9852 L420.056,33.8245 L338.986,33.8245 Z" id="Path" fill="#C4C3C6"></path>
            <path d="M364.898,373.895 C364.898,373.895 367.268,410.051 367.268,411.899 C367.268,424.594 354.774,436.204 345.775,443.034 L389.966,443.034 C387.194,429.053 379.24,394.464 375.303,377.31 C373.776,370.721 371.205,364.414 367.71,358.629 L365.983,355.777 C357.868,342.359 354.975,326.45 357.827,311.063 L314.199,337.658 L364.898,373.895 Z" id="Path" fill="#C4C3C6"></path>
            <path d="M377.673,442.994 C376.307,432.067 373.375,411.739 372.933,411.818765 C372.491,411.899 363.773,437.49 357.345,442.994 L377.673,442.994 Z" id="Path" fill="#FFFFFF"></path>
            <path d="M264.906,442.994 C265.629,441.307 263.379,431.866 263.58,430.661 C263.781,429.455 271.454,408.244 275.069,398.24 C276.235,395.067 275.592,391.531 273.422,388.92 C269.084,383.738 260.848,384.662 257.755,390.648 C250.684,404.387 240.118,424.594 238.592,426.201 C238.471,426.322 238.351,426.402 238.23,426.482 C238.23,426.482 224.892,436.606 218.143,442.954 L264.906,442.954 L264.906,442.994 Z" id="Path" fill="#C4C3C6"></path>
            <path d="M238.551,426.241 C238.431,426.362 238.31,426.442 238.19,426.523 C238.19,426.523 224.852,436.646 218.103,442.994 L253.295,442.994 C256.71,435.08 239.194,425.599 238.551,426.241 Z" id="Path" fill="#FFFFFF"></path>
            <path d="M124.016,397.276 C124.217,400.329 126.668,415.756 125.422,420.255 C124.378,424.072 113.571,435.441 106.822,442.994 L147.799,442.994 C148.281,436.686 147.678,428.612 148.843,428.009 C149.888,427.487 154.267,425.719 154.227272,424.313 C154.187,423.148 142.777,407.199 142.014,402.378 C141.492,399.164 132.011,349.228 132.011,349.228 L131.93,349.349 C120.883,362.004 117.669,379.68 123.454,395.468 C123.775,396.432 124.016,397.115 124.016,397.276 Z" id="Path" fill="#C4C3C6"></path>
            <path d="M125.462,420.255 C124.418,424.072 113.611,435.441 106.862,442.994 L143.018,442.994 C137.675,429.897 126.668,415.796 125.462,420.255 Z" id="Path" fill="#FFFFFF"></path>
            <path d="M11.4092,442.994 L49.4537,442.994 C50.7794,439.258 52.1855,435.562 52.5471,435.642 C55.4797,436.566 59.3364,431.303 58.0509,430.902 C57.3277,430.661 67.6524,394.022 74.8837,368.472 C79.1822,353.286 90.5916,341.153 105.456,335.891 L106.219,335.61 C124.016,329.302 138.358,315.844 145.79,298.449 L145.83,298.368 C145.83,298.368 290.536,297.927 290.054,298.368 C288.768,299.574 257.955,348.144 257.955,348.144 C275.873,348.184 293.067,340.912 305.481,328.017 C318.095,314.92 334.084,298.529 344.489,288.486 C352.564,280.692 357.144,270.006 357.144,258.757 C357.144,251.405 355.457,244.134 352.243,237.505 L343.124,218.744 L349.23,220.15 C359.836,222.561 369.357,228.466 376.187,236.903 C383.217,245.58 387.074,256.387 387.074,267.555 L387.074,275.51 L386.913,275.55 C386.993,275.55 387.033,275.55 387.114,275.55 L387.114,354.612 L387.154,354.612 C386.591,381.367 390.167,408.284 397.88,434.316 C403.665,432.308 409.45,430.299 415.195,428.25 C405.433,404.347 399.407,378.836 397.519,352.643 C396.555,352.683 395.55,352.683 394.586,352.724 L394.586,263.337 C394.586,172.946 234.655,157.439 158.083,247.468 C158.083,247.468 49.1323,323.236 49.2126,323.598 C49.2126,323.678 51.7436,340.752 54.5959,357.866 C58.2116,379.278 51.4222,401.093 36.2365,416.6 C26.3538,426.724 16.3505,437.329 11.4092,442.994 Z" id="Path" fill="#C4C3C6"></path>
            <path d="M172.265,181.222 L264.745,126.425 C299.455,105.856 323.72,72.2305 332.799,33.9048 C256.911,35.5117 188.174,66.2848 137.394,115.457 C121.164,131.206 99.4701,140.084 76.8523,140.084 C76.8523,141.169 76.9326,142.213 77.013,143.258 C79.4234,170.817 76.089,198.496 66.6481,224.489 C55.52,255.061 49.4136,288.004 49.2529,322.392 L49.7752,322.232 C77.0933,314.357 98.305,292.945 106.42,265.667 C116.785,230.716 140.046,200.344 172.265,181.222 Z" id="Path" fill="#FFFFFF"></path>
            <path d="M346.177,197.251 L315.766,188.975 C264.223,181.222 199.141,199.139 158.084,247.468 C158.084,247.468 157.481,247.91 156.356,248.674 L166.319,248.674 C194.28,248.674 221.518,240.036 244.377,223.967 C267.236,207.897 294.473,199.26 322.434,199.26 L350.717,199.26 C349.23,198.537 347.704,197.854 346.177,197.251 Z" id="Path" fill="#FFFFFF"></path>
            <path d="M11.4092,442.994 C12.6947,441.427 28.8044,431.263 29.9694,430.741 C32.8619,429.335 47.8066,442.19 49.4538777,442.994 C49.534,443.195 22.3766,443.998 11.4092,442.994 Z" id="Path" fill="#FFFFFF"></path>
            <path d="M69.5005,70.6235 C65.2822,70.6235 62.8316,75.4444 65.3626,78.8591 L65.7643,79.3814 L21.5732,79.3814 C21.5732,85.1262 26.2334,89.7864 31.9782,89.7864 L67.6927,89.7864 C74.241,89.7864 74.9641,99.5888 68.456,100.312 C67.773,100.392 67.0499,100.352 66.2866,100.232 L42.2627,95.5312 C42.2627,110.195 54.1541,122.086 68.8175,122.086 L69.5407,122.086 C83.7622,122.086 95.2518,110.556 95.2518,96.3749 C95.2518,82.1534 83.722,70.6235 69.5005,70.6235 Z" id="Path" fill="#C4C3C6"></path>
            <path d="M172.265,181.222 L246.827,153.743 C300.781,133.857 341.919,89.224 357.345,33.8245 L332.759,33.8245 C313.877,78.5378 281.216,116.06 239.556,140.968 L172.265,181.222 Z" id="Path" fill="#000000"></path>
        </g>
    </g>
</svg>