<?xml version="1.0" encoding="UTF-8"?>
<svg width="1310px" height="800px" viewBox="0 0 1310 800" version="1.1" xmlns="http://www.w3.org/2000/svg" xmlns:xlink="http://www.w3.org/1999/xlink">
    <!-- Generator: Sketch 58 (84663) - https://sketch.com -->
    <title>Blog-template-08</title>
    <desc>Created with Sketch.</desc>
    <g id="Blog-template-08" stroke="none" stroke-width="1" fill="none" fill-rule="evenodd">
        <rect fill="#000000" x="0" y="0" width="1310" height="800"></rect>
        <g id="Group-4" transform="translate(0.000000, -255.000000)" fill="#4038FF">
            <path d="M1237.22157,0 L1310,0 C1310,361.740489 1016.74181,655 655,655 L655,582.222222 C976.567705,582.222222 1237.22157,321.567156 1237.22157,0 Z M1092.14202,0 L1165,0 C1165,281.665714 936.666171,510 655,510 L655,437.142857 C896.413145,437.142857 1092.14202,241.4136 1092.14202,0 Z M1015,0 L943,0 C943,159.04512 814.046841,288 655,288 L655,360 C853.825847,360 1015,198.82944 1015,0 Z M803,0 L877,0 C877,122.61504 777.616382,222 655,222 L655,148 C736.732405,148 803,81.73152 803,0 Z M655,0 L727,0 C727,39.77856 694.779006,72 655,72 L655,0 Z" id="Shape" transform="translate(982.500000, 327.500000) rotate(-90.000000) translate(-982.500000, -327.500000) "></path>
            <path d="M582.221575,0 L655,0 C655,361.740489 361.741815,655 0,655 L0,582.222222 C321.567705,582.222222 582.221575,321.567156 582.221575,0 Z M437.142024,0 L510,0 C510,281.665714 281.666171,510 0,510 L0,437.142857 C241.413145,437.142857 437.142024,241.4136 437.142024,0 Z M360,0 L288,0 C288,159.04512 159.046841,288 0,288 L0,360 C198.825847,360 360,198.82944 360,0 Z M148,0 L222,0 C222,122.61504 122.616382,222 0,222 L0,148 C81.7324045,148 148,81.73152 148,0 Z M0,0 L72,0 C72,39.77856 39.7790055,72 0,72 L0,0 Z" id="Shape-Copy" transform="translate(327.500000, 327.500000) scale(-1, 1) rotate(-90.000000) translate(-327.500000, -327.500000) "></path>
            <path d="M727.778425,1310 L655,1310 C655,948.259511 948.258185,655 1310,655 L1310,727.777778 C988.432295,727.777778 727.778425,988.432844 727.778425,1310 Z M872.857976,1310 L800,1310 C800,1028.33429 1028.33383,800 1310,800 L1310,872.857143 C1068.58685,872.857143 872.857976,1068.5864 872.857976,1310 Z M950,1310 L1022.00115,1310 C1022.00115,1150.94912 1150.95061,1022 1310,1022 L1310,950 C1111.17097,950 950,1111.17056 950,1310 Z M1161.99605,1310 L1088,1310 C1088,1187.37904 1187.38034,1088 1310,1088 L1310,1162 C1228.26541,1162 1161.99605,1228.26848 1161.99605,1310 Z M1310,1310 L1238,1310 C1238,1270.22144 1270.22099,1238 1310,1238 L1310,1310 Z" id="Shape" transform="translate(982.500000, 982.500000) rotate(-180.000000) translate(-982.500000, -982.500000) "></path>
            <path d="M72.7784253,1310 L0,1310 C0,948.259511 293.258185,655 655,655 L655,727.777778 C333.432295,727.777778 72.7784253,988.432844 72.7784253,1310 Z M217.857976,1310 L145,1310 C145,1028.33429 373.333829,800 655,800 L655,872.857143 C413.586855,872.857143 217.857976,1068.5864 217.857976,1310 Z M295,1310 L367.001153,1310 C367.001153,1150.94912 495.950612,1022 655,1022 L655,950 C456.170969,950 295,1111.17056 295,1310 Z M506.99605,1310 L433,1310 C433,1187.37904 532.380345,1088 655,1088 L655,1162 C573.265414,1162 506.99605,1228.26848 506.99605,1310 Z M655,1310 L583,1310 C583,1270.22144 615.220994,1238 655,1238 L655,1310 Z" id="Shape-Copy-2" transform="translate(327.500000, 982.500000) scale(-1, 1) rotate(-180.000000) translate(-327.500000, -982.500000) "></path>
        </g>
        <g id="Group-2" transform="translate(200.281961, 32.156591)">
            <g id="Group-3" transform="translate(436.500000, 383.637413) scale(-1, -1) rotate(-210.000000) translate(-436.500000, -383.637413) translate(65.000000, 155.637413)">
                <g id="Group" transform="translate(0.000000, -0.000000)">
                    <path d="M628.109384,203.885505 C640.809201,204.047779 667.991573,222.366969 674.863074,228.966597 C685.236602,238.929064 696.294099,250.90257 696.174802,266.954661 C696.09527,277.677787 688.809889,287.27434 683.925344,295.574947 C681.185492,300.230184 678.591447,304.637663 676.954429,309.242189 C677.421012,309.375485 677.904827,309.491395 678.197767,309.56239 C694.484445,313.464212 707.490457,328.793313 709.827351,346.839056 C710.647849,353.177886 707.547455,355.845266 706.176866,356.697205 C705.066079,357.391216 703.822741,357.743293 702.48529,357.743293 C701.130607,357.743293 699.946917,357.378176 698.967357,357.020304 C683.392484,351.333468 670.36924,343.705139 659.156657,333.696308 C647.021512,322.868862 639.114779,311.022857 635.656494,298.490085 C632.158444,285.813874 633.738465,272.224872 639.462065,262.117517 C635.041453,261.201828 630.293436,261.001883 625.3678,260.793245 C616.443066,260.416537 607.213463,260.02679 598.722175,255.264336 C591.169356,251.029273 585.660491,244.092058 580.220552,236.753504 C568.345209,220.739085 555.006491,201.810976 547.00432,179.782275 C545.298374,175.083572 543.836324,169.980633 544.695262,164.503884 C545.684101,158.196929 549.506904,153.435925 552.299776,149.958624 C559.513262,140.974148 568.391602,131.788278 579.544537,131.788278 C580.418055,131.788278 581.302177,131.846233 582.170394,131.962143 C586.153585,132.486636 589.745747,134.229633 592.915068,135.76689 C595.961115,137.244742 598.838821,138.641458 601.363939,138.641458 C601.676762,138.641458 601.985608,138.621174 602.28385,138.577708 C604.458312,138.274972 606.653849,136.752179 609.010305,134.759652 C615.860078,145.222552 622.226438,168.264502 628.109384,203.885505 Z" id="Path" stroke="#000000" stroke-width="5.49376223" fill="#000000"></path>
                    <path d="M517.485571,215.92417 C523.11099,210.95998 568.077899,225.536747 560.909449,224.844073 C558.426634,224.604074 555.494038,223.882485 553.85802,225.571737 C552.678103,226.792309 552.755264,228.770791 552.973334,230.536626 C554.664288,244.157314 562.857563,259.23581 576.47339,262.767849 C591.575905,266.68364 604.917568,254.424346 610.48736,240.888999 C612.992908,234.802171 614.675143,228.121734 619.024792,223.25148 C625.828125,215.635732 637.371809,214.251168 647.983758,213.302996 C660.999341,212.140286 675.876369,211.569112 686.168296,220.637257 C697.290368,230.434713 697.825346,246.854018 705.25359,259.500781 C705.891166,260.58379 706.645018,261.701084 707.777571,262.259719 C710.05382,263.379646 712.41928,261.753585 714.327892,260.393883 C726.064388,252.032192 743.828438,252.257039 756.888601,260.932574 C758.120139,261.750739 759.467994,262.969744 759.249685,264.33577 C759.088795,265.346534 758.122956,265.947981 757.237475,266.435041 C744.292621,273.574296 730.517167,278.61773 715.349488,280.534226 C702.525755,282.154567 688.780266,281.529818 676.579647,275.694235 C664.381218,269.860552 654.124164,257.993994 653.178902,245.053866 C638.121628,251.569636 630.825217,269.34085 615.301722,274.883761 C607.911955,277.523882 599.539725,277.027966 591.426132,276.391773 C570.170542,274.72695 548.594739,272.252828 528.244964,264.426157 C524.388879,262.943341 520.419862,261.148552 517.733407,257.964496 C514.773713,254.453838 513.856147,249.851935 513.064137,245.492291 C511.151216,234.968841 509.863941,222.64903 517.485571,215.92417 Z" id="Fill-4" fill="#000000" transform="translate(635.435375, 246.983423) scale(-1, -1) rotate(-131.000000) translate(-635.435375, -246.983423) "></path>
                    <path d="M669.126747,243.881791 C669.720243,244.260142 670.381502,244.483362 670.658133,245.196963 L670.576126,245.101232 C681.669027,255.276714 684.456454,269.263381 690.195295,281.851992 C692.075,285.973747 693.316605,289.8766 697.383442,292.917228 C699.554574,294.542167 708.546602,298.375153 708.268321,299.818897 C708.211126,300.116481 698.988522,302.542997 695.566408,303.086633 C672.904633,306.686682 663.067913,298.32509 663.067913,298.32509 C650.687229,290.668975 649.553436,280.048979 650.046874,277.91581 C652.376444,267.844905 672.416686,254.1831 672.700668,252.746058 C672.91264,251.674411 663.389334,247.847207 654.226828,249.671331 C651.067123,250.060861 650.257521,252.770806 649.659356,254.855827 C646.648918,265.349835 644.280971,266.554412 636.657693,273.069154 C631.804531,277.214769 606.877221,263.38772 607.601017,254.579415 C608.227797,246.933769 609.210771,247.401303 615.648292,245.377935 C619.786136,244.078109 630.673904,240.161146 641.744579,239.582218 C653.706704,238.956672 665.853701,241.794088 669.126747,243.881791 Z" id="Fill-10" fill="#C4C3C6" transform="translate(657.930105, 271.740398) scale(-1, -1) rotate(-131.000000) translate(-657.930105, -271.740398) "></path>
                    <path d="M674.497416,268.491787 C667.232687,276.836268 662.87578,278.185733 659.528911,275.280742 C656.182042,272.375751 659.358094,263.256253 666.622823,254.911772 C673.887551,246.567291 688.038361,262.753611 691.38523,265.658601 C692.870318,266.947617 700.667202,288.952162 693.613671,277.710123 C686.56014,266.468083 678.538606,263.849957 674.497416,268.491787 Z" id="Oval" fill="#000000" transform="translate(677.360208, 266.721997) scale(-1, -1) rotate(-131.000000) translate(-677.360208, -266.721997) "></path>
                    <path d="M673.385287,252.202611 C661.9592,262.202145 659.821673,268.494117 652.873527,274.568407 C648.450169,278.433745 642.689147,244.01554 647.316232,242.375605 C650.290365,241.322044 662.164029,237.293987 671.938876,237.940871 C681.713723,238.587754 683.814832,242.025738 689.607689,246.168917 C681.554777,246.582007 676.071949,249.85138 673.385287,252.202611 Z" id="Path" fill="#FFFFFF" transform="translate(667.607689, 256.370961) scale(-1, -1) rotate(-131.000000) translate(-667.607689, -256.370961) "></path>
                    <path d="M702.804776,338.987122 C693.074491,344.925164 678.92256,339.140688 670.427233,335.221722 C667.425821,333.837137 667.851055,331.747573 670.913789,330.519792 C682.278563,325.97063 696.422729,324.634962 708.237064,331.696035 C709.537883,332.474375 704.636995,337.86976 702.804776,338.987122 Z" id="Fill-14" fill="#C4C3C6" transform="translate(688.418770, 334.144314) scale(-1, -1) rotate(-131.000000) translate(-688.418770, -334.144314) "></path>
                    <path d="M589.462119,175.855497 L589.687635,177.804916 C589.597222,177.50723 589.573181,177.267153 589.515954,176.998272 C589.498009,176.617347 589.480064,176.236422 589.462119,175.855497 Z" id="Fill-16" fill="#D796A0" transform="translate(589.574877, 176.830206) scale(-1, -1) rotate(-131.000000) translate(-589.574877, -176.830206) "></path>
                    <path d="M589.898592,157.977875 C593.969317,160.651851 598.007299,165.04407 603.147653,165.126824 C603.782367,165.137605 605.015299,165.090664 605.292859,165.64198 C605.837448,166.730208 602.278088,169.396351 599.293984,170.929127 C595.746132,172.749464 592.837719,174.204135 589.859823,172.980257 C587.196357,171.885493 585.133674,169.060471 584.015127,164.662917 C583.869591,164.094669 584.06966,162.341032 583.052676,160.618305 C582.452689,159.60475 582.00601,159.490618 581.824286,159.469673 C581.205289,159.398879 580.668316,160.079707 580.207909,160.919936 C578.093642,164.76848 578.237311,170.217345 578.237311,170.217345 C578.338035,174.0857 578.937622,177.063027 579.139373,178.015021 C579.8796,181.535303 580.856868,184.387998 582.722255,189.067271 C586.327663,198.117082 588.057383,202.713672 590.18105,204.788443 C593.109967,207.649832 596.953861,209.793726 601.920995,211.095751 C614.451497,214.383721 627.134988,216.294565 639.702004,219.182824 C641.597813,219.62005 644.486402,218.768974 644.767445,221.67791 C644.814989,222.175816 642.306472,224.828924 637.473151,224.679786 C617.921638,224.076504 566.65556,216.237706 554.368135,210.818645 C549.271754,208.569686 545.291948,205.625643 543.753236,200.133868 C542.2151,194.442672 542.288707,188.708903 541.642343,182.993819 C540.595914,173.760839 543.639664,167.208199 552.045985,163.391601 C554.07607,162.468778 554.928599,161.926812 557.137925,160.884238 C565.651819,156.873407 565.685429,155.034913 569.443783,153.816416 C576.148636,151.642782 584.829882,154.648117 589.898592,157.977875 Z" id="Fill-18" fill="#C4C3C6" transform="translate(593.105794, 188.882427) scale(-1, -1) rotate(-131.000000) translate(-593.105794, -188.882427) "></path>
                    <path d="M592.656515,136.895723 C585.671359,139.604967 591.545283,164.478931 593.405556,169.160842 C595.923567,175.502174 575.836002,190.167992 570.70102,187.902528 C565.610713,185.655444 561.63654,182.711841 560.103271,177.216482 C558.570724,171.521529 558.648566,165.782761 558.007044,160.063232 C556.968436,150.823073 560.014478,144.262505 568.416422,140.436323 C570.44545,139.511186 571.297652,138.968114 573.505856,137.922987 C582.015427,133.902325 582.050386,132.062221 585.806417,130.839859 C585.841306,130.828506 585.876248,130.817293 585.911243,130.80622 C589.886259,132.161822 591.029601,131.990721 594.395755,134.894956 L592.656515,136.895723 Z" id="Path" fill="#FFFFFF" transform="translate(576.103635, 159.472143) scale(-1, -1) rotate(-131.000000) translate(-576.103635, -159.472143) "></path>
                    <path d="M430.16746,279.594097 C444.292555,329.848268 482.537483,306.778219 488.799809,312.801879 C498.253697,321.894894 508.33092,332.82344 508.222199,347.47462 C508.149718,357.261911 501.510204,366.020946 497.058686,373.597137 C494.561729,377.846098 492.197652,381.868924 490.70576,386.071601 C491.130979,386.193264 491.571903,386.299058 491.838873,386.363857 C506.681696,389.925156 518.534694,403.916445 520.664416,420.387287 C521.412174,426.17291 518.586638,428.6075 517.337555,429.385088 C516.325243,430.018531 515.192129,430.339881 513.973247,430.339881 C512.73866,430.339881 511.659907,430.006629 510.767187,429.679989 C496.573066,424.489459 484.704364,417.526875 474.485805,408.391542 C463.42647,398.509037 456.220689,387.696865 453.06899,376.257862 C449.88105,364.687939 455.320389,352.354695 460.536578,343.129437 C456.507864,342.293662 452.180771,342.111167 447.691804,341.920738 C444.441657,341.783343 443.484853,359.758576 439.734687,361.773585 C434.100015,364.80116 421.593835,351.983845 416.947619,349.374007 C410.064376,345.50855 400.310049,332.691655 395.352375,325.993557 C384.52981,311.376759 373.569723,287.911489 366.276964,267.805292 C364.722255,263.516658 363.38982,258.859066 364.17261,253.860288 C365.073786,248.103759 368.557688,243.75826 371.102966,240.584433 C377.676958,232.384056 391.767297,224.104576 401.931496,224.104576 C402.727575,224.104576 403.533318,224.157474 404.324565,224.263268 C407.954636,224.741987 411.228344,226.332868 414.116696,227.735964 C416.892704,229.084841 423.514685,230.429471 425.815945,230.429471 C426.101035,230.429471 426.382502,230.410957 426.654304,230.371284 C428.635994,230.094969 430.636891,228.705074 432.784442,226.88644 C439.026966,236.436214 438.154638,254.005433 430.16746,279.594097 Z" id="Path" stroke="#000000" stroke-width="5.49376223" fill="#000000" transform="translate(442.365008, 327.222229) rotate(-61.000000) translate(-442.365008, -327.222229) "></path>
                    <path d="M341.729383,290.661609 C346.856094,286.130658 387.836576,299.43527 381.303626,298.803049 C379.040919,298.583995 376.368305,297.925381 374.877324,299.467207 C373.80201,300.581256 373.87233,302.387071 374.071068,303.998797 C375.612115,316.43077 383.079036,330.193325 395.487786,333.417113 C409.251425,336.991162 421.410317,325.80177 426.486333,313.44769 C428.769758,307.892076 430.302858,301.794659 434.266901,297.349445 C440.467101,290.398345 450.987408,289.134615 460.658582,288.269192 C472.520301,287.207955 486.078444,286.68663 495.457966,294.963372 C505.594039,303.905778 506.08159,318.892126 512.851301,330.435171 C513.432355,331.423663 514.119376,332.443448 515.151525,332.953329 C517.225979,333.975517 519.381735,332.491366 521.121144,331.250329 C531.81717,323.618386 548.006393,323.82361 559.90874,331.742008 C561.031099,332.488769 562.259464,333.601388 562.060508,334.848197 C561.913882,335.770749 561.033666,336.319706 560.226686,336.76426 C548.429425,343.280452 535.8752,347.883732 522.052172,349.63297 C510.365295,351.111899 497.838379,350.541674 486.719375,345.215378 C475.602367,339.890817 466.254626,329.059885 465.393163,317.249078 C451.670754,323.196199 445.021188,339.41647 430.87389,344.475636 C424.139243,346.885347 416.509233,346.43271 409.11493,345.85204 C389.7437,344.332511 370.080646,342.074312 351.534929,334.930696 C348.020696,333.577289 344.403542,331.939137 341.955248,329.032962 C339.257939,325.828688 338.421716,321.628406 337.699921,317.64924 C335.956584,308.0442 334.78343,296.799572 341.729383,290.661609 Z" id="Fill-4" fill="#000000" transform="translate(449.222644, 319.010237) scale(-1, -1) rotate(-192.000000) translate(-449.222644, -319.010237) "></path>
                    <path d="M489.098679,286.590291 C489.639559,286.935622 490.242197,287.139361 490.494303,287.790684 L490.419567,287.703307 C500.529054,296.990747 503.069369,309.756761 508.299447,321.246729 C510.012512,325.008767 511.144045,328.571008 514.850348,331.346272 C516.829003,332.829397 525.023866,336.327868 524.770255,337.645613 C524.71813,337.917226 516.313133,340.131973 513.194398,340.628165 C492.541646,343.914027 483.576975,336.282174 483.576975,336.282174 C472.29387,329.294229 471.26059,319.601069 471.710284,317.654068 C473.833331,308.462079 492.096956,295.992576 492.355763,294.680949 C492.548943,293.702828 483.869901,290.209634 475.519674,291.874562 C472.640085,292.230097 471.902256,294.703537 471.35712,296.606592 C468.613565,306.18476 464.476035,308.427281 457.52858,314.373463 C453.105662,318.157279 432.367727,304.393884 433.027357,296.354304 C433.598572,289.375914 434.494403,289.802646 440.361221,287.955862 C444.132235,286.769476 454.054775,283.194357 464.144007,282.665953 C475.04566,282.095 486.115796,284.684787 489.098679,286.590291 Z" id="Fill-10" fill="#C4C3C6" transform="translate(478.893990, 312.017601) scale(-1, -1) rotate(-192.000000) translate(-478.893990, -312.017601) "></path>
                    <path d="M480.865207,295.903891 C474.244515,303.520126 470.273858,304.75182 467.223697,302.100355 C464.173536,299.448891 467.068024,291.125276 473.688716,283.50904 C480.309408,275.892805 493.205713,290.666501 496.255874,293.317965 C497.609305,294.494485 504.714977,314.578633 498.286759,304.317717 C491.858541,294.056801 484.548135,291.667166 480.865207,295.903891 Z" id="Oval" fill="#000000" transform="translate(483.474205, 294.288555) scale(-1, -1) rotate(-192.000000) translate(-483.474205, -294.288555) "></path>
                    <path d="M475.343989,295.12336 C463.919039,304.912001 461.781726,311.071274 454.834271,317.017456 C450.411353,320.801272 444.650905,287.108956 449.277529,285.503608 C452.251366,284.472266 464.123849,280.529163 473.897723,281.162403 C483.671597,281.795644 485.772497,285.16112 491.564777,289.216918 C483.512666,289.621295 478.030384,292.821717 475.343989,295.12336 Z" id="Path" fill="#FFFFFF" transform="translate(469.566966, 299.203798) scale(-1, -1) rotate(-192.000000) translate(-469.566966, -299.203798) "></path>
                    <path d="M555.222305,319.73177 C546.354634,325.151583 533.457306,319.871934 525.715112,316.294987 C522.979782,315.031239 523.367318,313.124037 526.158533,312.003408 C536.515792,307.851263 549.406042,306.632163 560.173007,313.076997 C561.358505,313.787408 556.892094,318.711923 555.222305,319.73177 Z" id="Fill-14" fill="#C4C3C6" transform="translate(542.111654, 315.311608) scale(-1, -1) rotate(-192.000000) translate(-542.111654, -315.311608) "></path>
                    <path d="M373.031965,324.528379 L373.04588,324.57889 C373.04227,324.570949 373.040655,324.564744 373.038042,324.557671 C373.036017,324.547907 373.033991,324.538143 373.031965,324.528379 Z" id="Fill-16" fill="#D796A0" transform="translate(373.038923, 324.553634) scale(-1, -1) rotate(-192.000000) translate(-373.038923, -324.553634) "></path>
                    <path d="M386.125385,296.482006 C389.835231,298.922617 393.515235,302.931515 398.199884,303.007046 C398.778329,303.016887 395.218044,308.176056 395.470998,308.679257 C395.967308,309.672513 392.723493,312.105974 390.003938,313.504981 C386.770612,315.166452 388.803951,311.292156 386.090053,310.175089 C383.66271,309.175868 381.782889,306.597393 380.763504,302.583626 C380.63087,302.064971 380.813203,300.464378 379.886376,298.891999 C379.33958,297.966899 378.9325,297.862728 378.766886,297.843611 C378.202765,297.778995 377.713396,298.400405 377.293805,299.167305 C375.366974,302.679976 375.497905,307.653304 375.497905,307.653304 C375.5897,311.184057 376.136132,313.901545 376.319998,314.770455 C376.994602,317.983513 377.870477,328.187092 385.079883,330.641571 C392.289288,333.096051 401.306971,335.284623 402.397259,336.814778 C413.097343,351.831708 401.817249,361.047632 402.072755,363.702697 C402.116706,364.157149 399.830575,366.578713 395.425739,366.442592 C377.607517,365.891959 357.582469,357.831935 346.384355,352.885811 C341.73978,350.833124 338.112794,348.146016 336.710493,343.133523 C335.308716,337.939014 335.375798,332.705646 334.786736,327.489333 C333.833075,319.06214 343.967426,304.906774 351.628506,301.423261 C353.478619,300.580976 354.255569,300.086308 356.269032,299.134723 C364.028149,295.473928 364.058779,293.795884 367.483946,292.683729 C373.594397,290.699794 381.506029,293.442845 386.125385,296.482006 Z" id="Fill-18" fill="#C4C3C6" transform="translate(370.869825, 329.229399) scale(-1, -1) rotate(-192.000000) translate(-370.869825, -329.229399) "></path>
                    <path d="M404.269894,341.48766 C386.722531,335.900073 376.432611,332.885215 373.400134,332.443086 C371.713374,332.196784 365.484154,334.788288 354.712473,340.217598 C362.654822,331.92269 368.642225,324.246181 372.674681,317.188071 C376.183239,311.046952 376.992985,312.488914 378.632965,316.268492 C379.820276,319.00483 380.690535,322.912164 386.944184,326.314568 C401.835709,334.416556 415.800805,333.183824 415.051377,336.706184 C415.044415,336.738901 414.240543,343.024161 414.233311,343.056835 C414.22608,343.089509 417.793652,357.275464 413.961816,358.610815 L404.269894,341.48766 Z" id="Path" fill="#FFFFFF" transform="translate(385.224478, 335.808134) scale(-1, -1) rotate(-192.000000) translate(-385.224478, -335.808134) "></path>
                    <path d="M517.598547,418.015702 C494.965398,419.640959 476.063397,406.468453 475.379747,388.594088 C474.696098,370.719722 492.489682,354.912156 515.122831,353.2869 C537.755981,351.661644 556.657981,364.834149 557.341631,382.708515 C558.025281,400.58288 540.231696,416.390446 517.598547,418.015702 Z" id="Oval" fill="#000000" transform="translate(516.360689, 385.651301) scale(1, -1) rotate(151.000000) translate(-516.360689, -385.651301) "></path>
                    <path d="M522.130531,407.504528 C501.432034,408.861607 484.082349,396.351532 483.378924,379.562495 C482.6755,362.773457 498.884709,348.063123 519.583206,346.706045 C540.281703,345.348966 557.631389,357.85904 558.334813,374.648078 C559.038238,391.437115 542.829029,406.147449 522.130531,407.504528 Z" id="Oval-Copy" fill="#C4C3C6" transform="translate(520.856869, 377.105286) scale(1, -1) rotate(151.000000) translate(-520.856869, -377.105286) "></path>
                    <path d="M562.039819,307.866096 C529.599506,343.138893 514.451917,391.793867 475.575597,381.467601 C436.699277,371.141335 413.078231,349.823044 374.503377,375.68777 C359.196623,365.475497 356.897968,356.555348 366.734271,334.764777 C379.245553,307.048269 363.168664,264.693373 358.800135,214.253598 C356.035698,182.334938 383.564453,160.874799 382.610642,156.384054 C375.549953,123.140831 404.624712,92.5715728 448.759573,63.9329327 C471.459311,49.2033154 503.215637,55.8639268 525.293345,51.1675921 C590.296509,37.3402233 656.678784,73.3919534 637.542878,120.100431 C602.677493,205.202702 639.614719,147.837628 610.511208,217.657689 C600.095711,242.644731 594.480133,272.593298 562.039819,307.866096 Z" id="Oval" fill="#000000" transform="translate(499.746353, 215.527548) scale(1, -1) rotate(151.000000) translate(-499.746353, -215.527548) "></path>
                    <path d="M560.962745,64.6646419 C581.222789,62.3950219 650.150651,82.1333128 624.639394,132.343652 C599.128136,182.553992 626.228295,153.928529 600.278922,216.165674 C590.99222,238.438959 586.691686,235.020276 553.038768,280.891 C519.38585,326.761724 532.867773,370.097707 486.366073,364.388017 C466.51515,361.95063 444.072689,354.898826 423.086858,354.603286 C402.101027,354.307747 383.974851,366.263785 381.245296,362.907622 C371.93928,351.465278 400.250772,318.387705 395.299852,304.18762 C384.178673,272.290175 382.088217,237.199494 380.237669,215.82682 C377.774202,187.375307 402.317902,168.245219 401.467702,164.242299 C396.658645,141.600238 414.377363,114.429152 440.559201,91.4806642 C449.150733,83.9501512 470.954927,80.1742099 488.809086,73.6758272 C548.527928,71.0951462 540.702701,66.9342618 560.962745,64.6646419 Z" id="Path" fill="#C4C3C6" transform="translate(504.791458, 214.693178) scale(1, -1) rotate(151.000000) translate(-504.791458, -214.693178) "></path>
                    <path d="M477.89341,313.187298 C479.232188,313.590506 476.488271,328.161125 479.52996,326.611307 C484.570254,324.043149 488.480952,325.867848 491.22765,326.206268 C492.713595,326.389351 496.411229,316.925951 497.977752,317.02918 C512.637466,317.995208 526.800318,314.138639 535.550994,299.927357 C541.580373,290.135519 562.177338,248.90564 568.609879,246.730084 C556.989518,243.5503 553.737318,238.802618 513.380851,245.081452 C492.309672,248.359798 507.180693,256.498776 501.494172,262.248481 C489.300772,274.577366 476.115357,285.98395 470.272851,289.682419 C467.986364,291.129829 469.652722,239.674848 463.429912,257.737977 C457.207102,275.801106 450.463511,304.926075 477.89341,313.187298 Z" id="Path-Copy-69" fill="#FFFFFF" transform="translate(513.239272, 284.363198) rotate(-164.000000) translate(-513.239272, -284.363198) "></path>
                    <path d="M478.115705,327.257435 C504.007336,331.968102 515.447119,332.287594 529.118033,316.828757 C537.137499,307.760482 556.237364,269.915843 562.801742,268.906667 C531.810383,263.389615 513.145784,281.876683 490.794277,279.903346 C468.44277,277.930009 465.671928,266.250515 456.561814,258.774478 C461.955904,268.814983 453.401012,292.955575 455.919953,305.335995 C458.438895,317.716414 465.837479,325.023561 478.115705,327.257435 Z" id="Path-Copy-10" fill="#000000" transform="translate(509.122700, 294.440669) rotate(-164.000000) translate(-509.122700, -294.440669) "></path>
                    <path d="M470.849832,291.147686 C460.687573,285.813825 447.741411,292.066715 435.615564,302.204209 C438.867222,296.5096 459.004528,269.210639 475.48268,247.478556 C475.076119,252.490385 474.070819,259.888686 476.342406,267.46752 C481.814623,285.724814 481.012091,296.481548 470.849832,291.147686 Z" id="Path-Copy-70" fill="#000000" transform="translate(457.657741, 274.841383) rotate(-162.000000) translate(-457.657741, -274.841383) "></path>
                    <path d="M453.184491,313.654487 L434.644388,292.107688 C426.5269,274.410767 423.934941,255.635678 426.868512,235.782421 C431.292585,205.84202 442.741092,190.662569 444.622838,199.261414 C447.644902,213.071069 450.498786,251.202093 453.184491,313.654487 Z" id="Path-Copy-94" fill="#000000" transform="translate(439.442451, 255.263739) rotate(-162.000000) translate(-439.442451, -255.263739) "></path>
                    <path d="M460.451549,122.270612 C457.448522,125.862038 432.394571,128.251906 424.081246,125.503834 C435.313382,120.35387 442.78743,118.546797 453.572193,107.589331 C464.356955,96.6318655 465.877176,92.046945 471.165182,77.665914 C475.463009,85.247631 474.846328,105.055381 460.451549,122.270612 Z" id="Path-Copy-90" fill="#000000" transform="translate(448.788966, 102.181062) scale(1, -1) rotate(151.000000) translate(-448.788966, -102.181062) "></path>
                    <path d="M552.914582,269.051451 C542.856259,269.808334 547.078033,254.079635 550.172466,247.736353 C555.885283,252.621928 562.972906,268.294567 552.914582,269.051451 Z" id="Path-Copy-79" fill="#000000" transform="translate(552.286110, 258.407094) scale(1, -1) rotate(151.000000) translate(-552.286110, -258.407094) "></path>
                    <path d="M518.093369,258.946405 C511.326466,251.467021 507.248844,238.0355 498.771938,229.741318 C505.758157,224.560115 510.785816,232.912781 518.093369,258.946405 Z" id="Path-Copy-92" fill="#000000" transform="translate(508.432654, 243.613975) scale(1, -1) rotate(151.000000) translate(-508.432654, -243.613975) "></path>
                    <path d="M563.468863,303.801093 C572.44694,304.428901 573.891423,283.771822 591.8304,280.980995 C585.991523,286.164713 577.294858,296.202145 572.184306,308.184733 C566.672143,321.108973 565.010602,336.141514 566.415951,345.365009 C566.440725,343.345649 556.499449,333.641261 555.513729,331.551298 C553.833355,327.988502 551.024489,313.287061 552.639664,315.309984 C553.703374,316.642224 559.21654,319.389848 560.357543,319.623868 C560.471129,315.610821 554.490787,303.173284 563.468863,303.801093 Z" id="Path" fill="#000000" transform="translate(571.993191, 313.173002) scale(1, -1) rotate(151.000000) translate(-571.993191, -313.173002) "></path>
                    <path d="M531.080333,236.777994 C535.223107,224.24024 552.443018,239.233157 556.199659,246.928849 C546.817267,249.031923 526.937559,249.315748 531.080333,236.777994 Z" id="Path-Copy-81" fill="#000000" transform="translate(543.359839, 239.994721) scale(1, -1) rotate(151.000000) translate(-543.359839, -239.994721) "></path>
                    <path d="M557.096465,249.701263 C558.354117,239.833293 572.110442,248.545939 576.198795,254.727634 C570.290946,257.100219 555.838813,259.569233 557.096465,249.701263 Z" id="Path-Copy-86" fill="#000000" transform="translate(566.609058, 251.049827) scale(1, -1) rotate(162.000000) translate(-566.609058, -251.049827) "></path>
                    <path d="M574.233946,218.57064 C585.07552,204.6649 570.557947,213.265824 558.099976,206.993117 C576.293547,203.697009 582.567946,200.854342 588.500901,196.367594 C594.433855,191.880846 604.60897,172.758457 607.036648,163.788934 C608.507955,181.839841 603.873717,190.22345 593.91852,207.467999 C585.515768,222.023382 573.590914,226.802738 568.534164,235.88121 C561.411134,258.94979 576.398438,259.594587 585.471336,259.325892 C572.061878,261.307669 564.124433,258.434492 561.593623,255.945498 C559.680482,254.063968 554.893229,250.056489 558.029445,241.711675 C560.935792,233.978497 571.606003,221.941321 574.233946,218.57064 Z" id="Path" fill="#000000" transform="translate(582.147473, 211.887825) scale(1, -1) rotate(162.000000) translate(-582.147473, -211.887825) "></path>
                    <path d="M478.507737,188.052309 C451.352886,187.255049 430.100716,150.788547 459.881551,154.638566 C491.583742,158.736975 500.204965,142.655472 512.944471,152.677334 C519.843856,158.104913 529.58242,171.017692 517.821043,179.609191 C506.059665,188.200689 491.076934,188.421337 478.507737,188.052309 Z" id="Path-Copy-74" fill="#FFFFFF" transform="translate(484.372956, 168.741803) scale(1, -1) rotate(151.000000) translate(-484.372956, -168.741803) "></path>
                    <path d="M525.279878,83.5884996 C509.9656,89.3936769 490.735425,100.026745 476.548615,106.051081 C419.97516,130.074625 457.718288,93.4648602 481.36061,82.7281832 C497.12252,75.5702343 582.062967,47.1290097 617.076184,74.8176087 C626.120351,81.9697735 631.23906,84.1521352 639.809711,103.964857 C630.038294,101.21996 622.400918,95.9099052 609.804019,95.0396975 C578.088112,92.8487276 581.259772,100.718699 553.439248,97.8703412 C534.892232,95.9714358 525.505775,91.210822 525.279878,83.5884996 Z" id="Path" fill="#FFFFFF" transform="translate(543.384596, 88.503676) scale(1, -1) rotate(156.000000) translate(-543.384596, -88.503676) "></path>
                    <path d="M594.969124,215.979737 C601.862652,212.959783 611.897692,214.170251 619.280073,218.967541 C623.610636,221.781669 627.251652,227.967001 596.980008,236.836354 C595.07952,237.393182 588.118446,240.718475 584.13038,240.165268 C575.634779,239.102534 583.434303,221.032973 594.969124,215.979737 Z" id="Path-Copy-84" fill="#FFFFFF" transform="translate(601.347941, 227.279719) scale(1, -1) rotate(151.000000) translate(-601.347941, -227.279719) "></path>
                    <path d="M574.387528,207.615841 C575.809857,210.417401 577.448176,213.26797 569.533359,217.296675 C561.618542,221.32538 558.653649,221.956846 551.708419,219.159688 C549.708256,217.641605 551.995045,212.548426 558.98741,208.206119 C572.931859,199.546519 585.554843,163.39503 589.627878,164.165147 C593.6249,164.920892 596.586343,180.249125 578.371713,199.361577 C578.069726,199.678449 572.965199,204.81428 574.387528,207.615841 Z" id="Path" fill="#FFFFFF" transform="translate(571.826104, 192.513172) scale(1, -1) rotate(151.000000) translate(-571.826104, -192.513172) "></path>
                    <path d="M500.445512,336.787475 C513.99662,338.068931 529.65283,345.405101 544.48547,359.490836 C559.318109,373.57657 526.272026,369.2665 499.929554,364.269452 C473.587082,359.272404 472.399904,373.003434 466.553518,368.834474 C453.99893,360.12598 477.77068,334.643235 500.445512,336.787475 Z" id="Path-Copy-76" fill="#FFFFFF" transform="translate(505.621061, 353.147137) scale(1, -1) rotate(151.000000) translate(-505.621061, -353.147137) "></path>
                    <path d="M518.72369,332.916212 C527.838986,331.034093 539.30033,338.251662 546.410523,350.679258 C528.462731,339.922635 500.54285,344.264729 491.739009,353.12342 C502.181397,339.923308 513.276137,334.041018 518.72369,332.916212 Z" id="Path-Copy-83" fill="#000000" transform="translate(519.074766, 342.871608) scale(1, -1) rotate(151.000000) translate(-519.074766, -342.871608) "></path>
                    <path d="M544.849904,157.621428 C530.724572,157.240024 519.883043,157.513307 512.325319,158.441279 C499.455578,160.021485 493.978223,165.99501 484.105611,169.246004 C477.523869,171.413333 475.608514,167.59841 478.359547,157.801234 C489.335604,133.259325 500.688476,120.98837 512.418162,120.98837 C523.260984,120.98837 539.974017,133.171367 547.429935,155.102808 C547.799134,156.1888 546.939123,157.02834 544.849904,157.621428 Z" id="Path" fill="#FFFFFF" transform="translate(512.328131, 145.411640) rotate(-168.000000) translate(-512.328131, -145.411640) "></path>
                    <path d="M479.142391,162.034038 C480.20419,145.854222 494.815942,133.034038 512.68528,133.034038 C530.175514,133.034038 544.544916,145.316023 546.142391,161.008883 C536.610838,157.498141 525.638338,155.498631 513.961407,155.498631 C501.191495,155.498631 489.264059,157.889975 479.142391,162.034038 L479.142391,162.034038 Z" id="Path" fill="#000000" transform="translate(512.642391, 147.534038) rotate(-168.000000) translate(-512.642391, -147.534038) "></path>
                    <path d="M595.263073,180.675911 C584.55469,179.932365 574.36834,181.70396 565.533167,185.396306 C568.347305,168.659942 581.211755,156.408886 595.703537,157.415135 C609.851857,158.397535 621.918141,172.847886 624.290168,178.388612 C626.662194,183.929338 622.099761,196.102786 611.493603,194.298542 C604.177191,194.163762 595.91712,194.876567 587.301639,196.539488 C577.769707,198.379298 565.214019,212.18915 561.5307,203.526135 C557.847381,194.86312 571.020458,189.496471 584.311902,186.931017 C591.296415,185.582898 602.028773,181.145692 595.263073,180.675911 Z" id="Path" fill="#FFFFFF" transform="translate(592.903237, 181.857364) scale(1, -1) rotate(-36.000000) translate(-592.903237, -181.857364) "></path>
                    <path d="M596.791838,167.405171 C607.698162,168.168406 620.90373,182.743257 618.078393,190.340028 C616.035686,195.832463 600.290668,193.690628 594.955886,193.317295 C582.242387,192.427593 570.161216,194.150517 559.654924,197.888888 C566.564799,176.317387 578.943771,166.156148 596.791838,167.405171 Z" id="Path-Copy-73" fill="#000000" transform="translate(589.060188, 182.595758) scale(1, -1) rotate(-36.000000) translate(-589.060188, -182.595758) "></path>
                    <path d="M524.180041,162.34838 C532.560351,165.106241 542.841692,167.039754 555.024064,168.148918 C549.035635,169.4698 544.897473,170.157357 542.609576,170.21159 C516.735043,170.824918 504.376685,174.29304 502.566608,184.773977 C501.435486,194.115123 524.741231,210.298187 516.122218,217.934641 C507.503206,225.571095 486.558491,226.478651 484.813123,226.693122 C490.962584,220.19819 493.974166,212.728328 490.872765,205.332393 C487.771364,197.936458 485.48681,193.458409 475.319476,191.838127 C475.875215,192.530779 485.456163,187.626077 490.779495,178.761896 C496.791349,168.751219 495.903248,157.507177 502.609576,154.21159 C509.315904,150.916002 511.609576,158.21159 524.180041,162.34838 Z" id="Path" fill="#000000" transform="translate(515.171770, 190.036946) scale(1, -1) rotate(151.000000) translate(-515.171770, -190.036946) "></path>
                    <path d="M538.37178,222.6141 C535.767058,207.841983 524.253799,206.506659 520.658758,203.766515 C530.322074,205.755801 539.020101,206.573755 543.876249,213.5201 C549.029246,220.891065 551.288444,232.521663 535.067656,238.428105 C536.516327,235.126385 539.934614,231.477369 538.37178,222.6141 Z" id="Path" fill="#FFFFFF" transform="translate(534.170847, 221.097310) scale(1, -1) rotate(151.000000) translate(-534.170847, -221.097310) "></path>
                    <path d="M522.996437,122.868234 C510.969718,111.282554 513.96031,103.254288 518.84956,101.540977 C523.738811,99.8276653 523.760228,112.732628 531.746843,119.842045 C539.857272,126.995298 544.694088,128.109508 551.865787,131.286197 C546.460809,133.875774 535.653455,134.63186 522.996437,122.868234 Z" id="Path-Copy-70" fill="#000000" transform="translate(533.218910, 117.129632) scale(1, -1) rotate(151.000000) translate(-533.218910, -117.129632) "></path>
                    <path d="M608.247402,163.148624 C594.448679,170.484223 584.924476,165.363872 580.010977,160.537602 C588.031101,159.798731 592.898072,160.502499 602.496539,155.859698 C612.073071,151.145152 616.394483,137.200226 621.491242,138.879469 C626.588001,140.558712 621.944853,155.481773 608.247402,163.148624 Z" id="Path-Copy-93" fill="#000000" transform="translate(601.757485, 152.781541) scale(1, -1) rotate(151.000000) translate(-601.757485, -152.781541) "></path>
                    <path d="M331.499805,366.542095 C317.305683,361.351565 305.436982,354.388981 295.218422,345.253648 C284.159088,335.371142 276.953306,324.55897 273.801607,313.119968 C270.613668,301.550044 272.053616,289.146991 277.269805,279.921733 C273.24109,279.085958 268.913997,278.903463 264.425031,278.713034 C256.291497,278.369202 247.880121,278.013469 240.141607,273.666648 C233.258364,269.801191 228.237873,263.469405 223.280199,256.771307 C212.457634,242.154509 200.301426,224.878309 193.008668,204.772112 C191.453959,200.483478 190.121523,195.825886 190.904314,190.827108 C191.80549,185.070579 195.289391,180.72508 197.834669,177.551253 C204.408661,169.350876 212.499915,160.966682 222.664114,160.966682 C223.460192,160.966682 224.265935,161.019579 225.057182,161.125373 C228.687253,161.604092 231.960961,163.194973 234.849314,164.598069 C237.625322,165.946946 240.247912,167.221767 242.549172,167.221767 C242.834262,167.221767 243.115729,167.203253 243.387531,167.16358 C245.872408,166.817104 248.387486,164.719733 251.18403,162.221666 L253.159126,160.454902 C270.231936,145.175568 249.187817,157.141029 271.046764,151.051248 C273.363728,150.40458 247.402351,150.905892 247.804618,150.600411 C247.739386,150.404692 274.563282,149.076863 274.370001,148.649718 C272.809251,145.212728 270.54544,141.929139 268.147539,138.453798 C263.984736,132.419558 301.723517,101.101802 297.192311,89.5436636 C297.127079,89.665327 297.060638,89.7869903 296.996613,89.9060089 C296.771924,90.3252186 296.547234,90.7417834 296.315296,91.1490913 C290.70288,101.063335 281.453144,106.10972 272.50662,110.98948 C269.046878,112.876585 265.77921,114.659218 262.736232,116.698402 C260.459133,118.225806 258.273842,119.931739 255.958086,121.736853 C252.097285,124.748022 248.103603,127.863662 243.540948,130.191136 C236.464424,133.804009 228.636517,135.416049 218.159443,135.416049 C213.665645,135.416049 209.09695,135.123792 204.678048,134.843438 C200.355787,134.568373 195.886148,134.282728 191.590464,134.282728 C188.017169,134.282728 184.886006,134.47977 182.016982,134.880466 C180.513009,135.090732 179.011452,135.367119 177.422919,135.660698 C174.015121,136.288851 170.491355,136.936841 166.78518,136.936841 L166.431233,136.935519 C151.263455,136.76757 111.611514,143.64338 100.520771,133.038829 C87.8137107,120.88836 88.6808848,130.175226 78.536014,115.415606 C71.523514,105.211751 69.7613922,103.75896 72.0686919,88.9398309 C72.7475937,84.5731733 74.8374516,82.712517 76.5492023,81.921705 C76.1885535,80.1497874 120.267739,67.2130429 125.982836,86.1290542 L143.84289,99.6242893 C144.609977,102.160706 161.755025,98.701478 163.086252,100.339966 C166.61485,104.681498 177.84089,107.02484 186.612253,107.02484 C187.618526,107.02484 188.560774,106.99178 189.410005,106.929626 C189.769992,106.903177 190.192796,106.774901 190.311181,106.732584 C190.817337,106.538187 191.180948,106.187743 191.318661,106.055501 C191.672608,105.716959 228.466187,72.5332711 258.702686,56.6442977 C270.258513,50.5730304 284.075059,42.7658374 307.517696,51.8820512 C330.960332,60.998265 344.589456,72.0570958 347.976717,91.3605785 C349.365929,99.2898573 344.326458,109.196267 341.44173,115.45003 C329.652757,141.007275 309.492272,176.760441 280.393719,201.95534 C275.457789,206.228106 269.426194,210.818253 262.114107,212.45013 C260.474837,212.817765 258.787247,213.002905 257.100864,213.002905 C250.239365,213.002905 244.18361,210.027441 240.48589,204.838234 C240.24912,204.506304 240.014766,204.157183 239.777996,203.805417 C239.625787,203.579282 239.440961,203.304217 239.258552,203.045021 C239.200567,203.105853 239.140167,203.173297 239.074934,203.24603 C232.290748,210.797095 227.095095,223.16312 231.722983,232.469046 C236.034372,241.138884 246.202195,242.073841 250.373455,242.073841 C254.072382,242.073841 257.906607,241.437753 261.462989,240.236989 C262.767641,239.79662 264.066252,239.304677 265.367279,238.814056 C269.928726,237.092255 269.871105,230.334574 275.134406,230.334574 L275.420704,230.335897 C286.994651,230.484009 303.2701,243.640324 309.532426,249.663984 C318.986315,258.757 329.063537,269.685545 328.954816,284.336726 C328.882336,294.124016 322.242821,302.883052 317.791303,310.459242 C315.294346,314.708204 312.93027,318.73103 311.438377,322.933706 C311.863597,323.05537 312.30452,323.161164 312.571491,323.225963 C327.414314,326.787262 339.267311,340.778551 341.397033,357.249393 C342.144792,363.035016 339.319255,365.469606 338.070173,366.247193 C337.05786,366.880636 335.924746,367.201986 334.705864,367.201986 C333.471277,367.201986 332.392524,366.868735 331.499805,366.542095 Z" id="Fill-1" stroke="#000000" stroke-width="5.49376223" fill="#000000" transform="translate(209.663491, 207.458636) scale(-1, 1) rotate(303.000000) translate(-209.663491, -207.458636) "></path>
                    <path d="M154.086963,91.2376121 C154.086963,91.2376121 153.091563,91.617149 151.966905,91.7004619 C143.762099,92.3074564 127.462415,90.4322534 121.707454,83.350651 C119.743229,80.93193 118.767157,77.7673596 117.838197,74.6953592 C116.375297,69.8552724 114.912396,65.0125408 113.450704,60.1711316 C108.569134,44.0163501 79.7290951,78.8861338 92.1981777,90.807823 C102.231912,100.402039 114.786763,110.985431 128.712706,111.138832 C133.729573,111.195697 138.658255,109.824339 143.63405,109.127419 C163.719638,106.313292 185.379263,114.259763 203.730148,104.891682 C210.464805,101.453369 216.107422,95.9295869 222.444644,91.6806255 C233.582499,84.2141965 247.560387,80.0088752 254.440006,67.8557611 C255.562247,65.8760863 256.515367,63.6583744 258.26215,62.3280118 C260.007725,60.9976491 262.898494,61.1007985 263.808126,63.2074264 C264.215225,64.1489952 264.134289,65.2413208 264.125832,66.2820717 C264.04248,78.4735362 274.671763,87.1050243 279.628229,98.0229906 C280.200826,99.2832646 280.710606,100.65859 280.570477,102.059041 C280.21653,105.597859 276.323113,107.027403 273.171414,107.905496 C251.525077,113.935768 233.774573,130.349745 216.471033,145.812897 C213.419599,148.539743 210.139851,151.356515 206.233145,151.904 C199.456207,152.854826 193.49226,146.766367 186.709282,145.869761 C177.519948,144.65445 169.803178,152.91698 163.697893,160.534166 C161.16832,163.68948 158.546937,167.076218 157.898236,171.214095 C157.311143,174.968469 158.44788,178.773094 159.731995,182.313234 C166.507725,200.996498 177.703565,217.317906 189.265432,232.934459 C193.678294,238.895965 198.342422,244.951363 204.579379,248.453152 C217.679043,255.811142 234.283145,250.188178 247.774205,256.642949 C239.425645,265.04169 237.384108,279.20225 240.659024,291.085589 C243.93394,302.971573 251.721982,312.799858 260.505426,320.649791 C270.894314,329.934559 282.604767,336.38933 295.262299,341.017829 C296.127234,341.335211 297.119011,341.63937 297.911465,341.144782 C298.982971,340.476955 299.016795,338.819953 298.844049,337.482978 C297.011498,323.305227 286.545296,310.952426 273.768171,307.887038 C271.690393,307.388482 269.155988,306.735203 268.566478,304.498977 C268.27414,303.385493 268.593055,302.197952 268.957874,301.110916 C273.22819,288.428831 284.218668,278.228943 284.317725,264.712406 C284.410742,252.203558 275.122351,242.313119 266.539437,234.0572 C259.541433,227.326041 251.685742,220.215346 242.371982,220.096327 C236.416491,220.020949 230.808907,222.864169 225.117971,224.785657 C212.464063,229.059745 196.04237,227.224214 189.70998,214.491877 C184.002131,203.011879 189.490122,188.347474 197.861634,179.028323 C198.947635,177.820946 200.264366,176.583153 201.810619,176.663821 C203.952422,176.77755 205.208752,179.226687 206.5279,181.078086 C210.336756,186.423341 217.313016,188.117371 223.380852,186.761882 C229.44748,185.406393 234.769973,181.505231 239.627383,177.299909 C264.809566,155.495715 284.985755,123.723058 299.35987,92.5587177 C301.97038,86.900048 304.475794,80.6542201 303.383752,74.4242614 C300.660897,58.902923 285.566808,49.7980057 273.736763,43.503248 C264.046104,38.3471009 259.967861,34.0201162 254.46779,32.8973748 C250.228882,32.0325068 241.546911,31.1755734 223.025697,40.9073217 C194.546853,55.8705954 158.991485,87.3642202 156.765122,89.4986192 C156.518688,89.7353338 155.580064,90.6663232 154.086963,91.2376121 Z" id="Fill-4" fill="#000000" transform="translate(196.371784, 186.905240) scale(-1, 1) rotate(303.000000) translate(-196.371784, -186.905240) "></path>
                    <path d="M245.859758,65.8480535 C259.271088,57.6066817 263.495171,54.211512 267.160274,52.4249117 C276.852141,47.702521 306.146717,57.2649622 309.09547,60.0883462 C311.652828,62.5401278 311.352033,64.5039336 308.37308,66.0987818 C307.406672,66.616292 305.230782,69.8689565 301.845411,75.8567752 C287.792028,83.3157086 277.690364,86.9596275 271.540419,86.7885321 C256.513336,86.3704688 242.388666,67.9806944 245.859758,65.8480535 Z" id="Fill-6" fill="#C4C3C6" transform="translate(278.078523, 68.965037) scale(-1, 1) rotate(308.000000) translate(-278.078523, -68.965037) "></path>
                    <path d="M274.885664,67.2121853 C272.093276,63.0179073 268.837574,59.7035 265.427982,57.0744391 C252.047985,46.7574211 236.298148,46.9944076 236.877259,46.0300886 C246.038961,37.3054435 257.443831,34.6485492 271.091867,38.0594056 C291.563922,43.1756902 308.247114,55.2712839 307.553707,63.6932311 C307.462031,64.8067079 301.406309,56.7716041 274.885664,67.2121853 Z" id="Path-Copy-2" fill="#FFFFFF" transform="translate(272.218159, 51.916793) scale(-1, 1) rotate(308.000000) translate(-272.218159, -51.916793) "></path>
                    <path d="M335.770037,210.179784 C335.186978,209.314869 353.878949,218.281791 361.515205,225.916643 C365.018776,229.419122 367.564774,233.738941 369.187956,238.367046 C371.643584,245.371052 374.370322,252.354125 374.993353,260.031795 C375.605087,267.561981 369.847483,272.591621 363.25917,269.983554 C358.444366,268.077696 354.828702,264.0262 350.417087,261.401006 C349.103248,259.956626 347.789409,258.514149 346.475569,257.070721 C328.947273,235.736096 328.659194,232.232124 325.135851,223.74068 C323.550973,219.92104 324.545909,215.713473 324.730314,215.049539 C324.976225,214.16369 324.81547,213.053288 325.711349,212.5861 C326.763637,212.038035 327.329317,213.098008 327.755968,213.794508 C330.367136,218.045819 338.642672,231.389682 339.511613,230.43818 C341.790846,233.138543 351.768248,245.951405 353.860659,248.814474 C354.799984,249.729819 344.031846,229.599907 342.987378,228.535176 C341.743333,226.661863 337.968764,218.199181 336.313517,213.505922 C335.34313,210.754503 336.241799,210.879583 335.770037,210.179784 Z" id="Fill-8" fill="#C4C3C6" transform="translate(349.645422, 240.400643) scale(-1, 1) rotate(267.000000) translate(-349.645422, -240.400643) "></path>
                    <path d="M363.883965,228.578173 C367.348649,232.123004 369.866388,236.495058 371.471555,241.179127 C373.420802,246.869204 375.542792,252.54563 376.622914,258.58295 C372.718467,257.182242 364.546396,241.141073 355.873343,232.191377 C350.205372,226.342616 340.108494,219.568029 339.546705,218.709271 C338.803697,216.778851 337.144935,211.596473 339.135603,211.793748 C344.227356,212.298339 358.454977,223.022889 363.883965,228.578173 Z" id="Path" fill="#FFFFFF" transform="translate(357.406870, 235.185609) scale(-1, 1) rotate(267.000000) translate(-357.406870, -235.185609) "></path>
                    <path d="M354.991306,250.363545 C349.618444,247.101076 344.082543,244.563291 339.041848,239.858797 C336.729197,237.700666 334.819162,234.83809 333.359116,231.646272 C331.58585,227.768865 329.721602,223.921055 328.370501,219.69399 C330.645279,220.256708 337.081261,230.881465 342.880171,236.338633 C346.669845,239.904975 352.955148,243.631826 353.366417,244.186399 C355.662833,248.833277 354.793135,247.866749 355.26373,248.103157 C356.475934,248.711251 356.94663,249.957661 356.965138,251.503541 C356.388697,250.858843 355.636456,250.755252 354.991306,250.363545 Z" id="Path-Copy-66" fill="#FFFFFF" transform="translate(342.667819, 235.598766) scale(-1, 1) rotate(267.000000) translate(-342.667819, -235.598766) "></path>
                    <path d="M84.6637537,196.499107 C82.9483791,200.260092 81.0022744,203.451111 81.3393093,208.06903 C81.5180948,210.535358 84.2540786,219.015303 83.0931807,219.688419 C82.8539947,219.827274 75.6683296,214.936947 73.2477749,212.908739 C57.2184782,199.477629 57.0969579,187.70496 57.0969579,187.70496 C54.9684437,174.604987 58.4236155,167.395409 60.2382286,160.561144 C63.4676535,160.820533 72.756103,161.761922 79.1547518,162.045207 C81.1683047,162.513089 101.356465,166.064836 92.2128593,181.421306 C92.0637138,181.671793 86.8686073,191.666723 84.6637537,196.499107 Z" id="Path" fill="#C4C3C6" transform="translate(75.501423, 190.126230) scale(-1, 1) rotate(303.000000) translate(-75.501423, -190.126230) "></path>
                    <path d="M123.493802,180.874094 C117.274397,182.708742 112.983795,181.409989 105.61426,180.316431 C99.8568829,179.46082 96.63894,154.780102 103.139244,150.003492 C108.780652,145.856358 109.046312,146.812411 114.289077,150.028556 C117.658461,152.096237 126.86641,157.239384 133.884333,164.50716 C137.448014,168.197715 140.509265,172.374331 142.807112,176.128482 C142.215564,175.946311 141.56551,175.849061 140.851472,175.849061 C132.759473,175.849061 125.896024,177.955614 123.493802,180.874094 Z" id="Path" fill="#C4C3C6" transform="translate(121.174791, 164.517852) scale(-1, 1) rotate(303.000000) translate(-121.174791, -164.517852) "></path>
                    <path d="M109.062712,169.398393 C108.677597,169.345229 95.4098619,168.659509 95.0642642,168.512812 C88.6207302,165.777694 91.5148539,138.258157 96.018225,140.672374 C98.9830467,142.262366 113.031165,151.099962 119.477408,159.002324 C125.92365,166.904685 124.6618,170.751995 125.464688,177.884039 C122.246594,174.759129 118.898964,172.710031 115.897212,171.396171 C113.237147,170.231867 110.848699,169.644944 109.062712,169.398393 Z" id="Path" fill="#FFFFFF" transform="translate(108.389419, 159.203288) scale(-1, 1) rotate(303.000000) translate(-108.389419, -159.203288) "></path>
                    <path d="M58.7624581,180.533548 C74.7855074,188.517833 81.8015939,195.718947 79.8107176,202.136893 C76.8244032,211.76381 81.986977,218.330962 81.5021748,218.701817 C81.42031,218.7645 75.5728324,215.476918 71.4448088,212.238353 C54.6859975,199.090536 58.9649203,180.00623 58.7624581,180.533548 Z" id="Path" fill="#FFFFFF" transform="translate(69.975187, 199.612775) scale(-1, 1) rotate(303.000000) translate(-69.975187, -199.612775) "></path>
                    <path d="M199.153507,52.0354533 L218.826167,44.3591188 C226.549767,41.17733 233.141404,39.7384891 238.601077,40.0425962 C237.243686,48.8820513 223.859536,79.6223811 208.63874,103.021 C197.78747,119.702435 183.623434,133.198338 183.022447,129.88744 C182.074146,124.663153 191.317667,100.575508 188.21333,71.0397145 C187.985242,68.8696028 191.631968,62.5348491 199.153507,52.0354533 Z" id="Fill-12" fill="#C4C3C6" transform="translate(210.777442, 85.196642) scale(-1, 1) rotate(303.000000) translate(-210.777442, -85.196642) "></path>
                    <path d="M37.2634751,200.955687 C27.3553744,197.818888 22.8785679,184.62139 20.4987876,176.431593 C19.6580124,173.53812 21.3516429,172.57936 24.0285938,173.950718 C33.9572307,179.043388 43.3340625,187.971982 45.5338493,200.326105 C45.7754514,201.686884 39.1286431,201.546813 37.2634751,200.955687 Z" id="Fill-14" fill="#C4C3C6" transform="translate(32.911092, 187.359784) scale(-1, 1) rotate(303.000000) translate(-32.911092, -187.359784) "></path>
                    <path d="M202.056423,185.965709 C202.050383,185.973643 202.044343,185.981578 202.038303,185.989512 C202.034679,185.996124 202.031055,186.001414 202.027431,186.009349 L202.056423,185.965709 Z" id="Fill-16" fill="#D796A0" transform="translate(202.041927, 185.987529) scale(-1, 1) rotate(303.000000) translate(-202.041927, -185.987529) "></path>
                    <path d="M218.657689,173.024284 C217.920803,167.544142 214.800512,159.773554 209.294401,156.463517 C206.207934,154.60815 204.921403,155.685929 197.068128,152.231747 C195.029007,151.336463 194.145951,151.074622 192.296487,150.230913 C184.641326,146.734413 178.307728,148.564654 172.573303,154.813126 C169.02296,158.679906 165.029278,162.062677 162.02858,166.528517 C159.165596,170.875338 159.517127,175.375561 161.01506,180.227549 C164.628796,191.923822 189.880961,231.878666 201.155199,245.687496 C203.942299,249.101172 207.269713,249.237847 207.583858,248.906529 C209.420034,246.971817 207.106694,245.494665 206.274375,243.92891 C200.750144,233.555784 194.482986,223.687826 189.255925,213.100467 C187.18298,208.904402 186.361533,204.976791 186.58139,201.248866 C186.740848,198.545823 188.872986,194.603665 192.951229,186.704802 C195.059207,182.619822 196.439963,180.239451 198.422308,177.622366 C198.957456,176.913545 200.649879,174.718314 203.254349,172.332654 C203.254349,172.332654 206.921868,168.971042 210.83703,168.12072 C211.691093,167.934258 212.481132,167.895908 212.802463,168.364047 C212.896688,168.50158 213.085137,168.877149 212.745686,169.896741 C212.167049,171.6278 210.839446,172.540275 210.535027,172.980643 C208.174575,176.383251 207.461849,179.493602 208.300208,181.981089 C209.237624,184.762155 211.9786,185.891509 215.353781,187.241708 C218.193813,188.376351 222.158503,189.227995 222.582514,188.201791 C222.796332,187.680754 222.02683,186.860849 221.654762,186.417835 C218.638361,182.832733 219.249614,177.425324 218.657689,173.024284 Z" id="Fill-18" fill="#C4C3C6" transform="translate(191.248170, 198.751719) scale(-1, 1) rotate(303.000000) translate(-191.248170, -198.751719) "></path>
                    <path d="M243.690014,183.521509 C237.650179,180.332129 224.053806,199.27295 221.945828,203.35793 C219.089757,208.889655 196.992256,203.834392 195.480255,198.940623 C193.982322,194.088635 193.630791,189.588412 196.493775,185.241591 C199.494473,180.775751 203.488155,177.39298 207.038497,173.5262 C212.772923,167.277728 219.106521,165.447487 226.761682,168.943987 C228.611146,169.787696 229.494202,170.049537 231.533323,170.944821 C239.386598,174.399003 240.673129,173.321224 243.759596,175.176591 C243.788264,175.193825 243.816868,175.21118 243.845408,175.228656 C245.289674,178.77856 246.09096,179.463688 246.106035,183.521509 L243.690014,183.521509 Z" id="Path" fill="#FFFFFF" transform="translate(220.224084, 186.479756) scale(-1, 1) rotate(303.000000) translate(-220.224084, -186.479756) "></path>
                    <path d="M311.040174,176.083352 C312.40321,177.8651 317.542185,189.886913 315.957063,192.802284 C313.518746,197.286859 303.226414,192.497568 301.584428,191.383903 C299.7555,192.525159 302.711501,194.945202 300.683252,195.840486 C298.834996,196.659069 297.622154,195.033805 296.700442,193.686251 C294.799034,190.899895 292.938698,188.040805 291.403317,185.00451 C289.976656,182.182449 288.993336,179.091934 287.361314,174.980505 C291.892788,176.513471 308.04901,172.173331 311.040174,176.083352 Z" id="Fill-22" fill="#C4C3C6" transform="translate(301.809380, 185.230670) scale(-1, 1) rotate(303.000000) translate(-301.809380, -185.230670) "></path>
                    <path d="M297.173604,182.670027 C296.820655,181.733643 296.443329,180.742386 296.022967,179.683399 C300.23309,181.107654 314.477672,177.462255 318.875687,180.073836 C319.660705,182.794122 320.048105,185.269086 319.437395,186.392309 C316.999078,190.876884 306.706747,186.087593 305.06476,184.973928 C303.235833,186.115184 306.191834,188.535227 304.163584,189.430511 C302.315329,190.249094 301.102486,188.62383 300.180774,187.276276 C299.151327,185.767706 298.133919,184.237817 297.173604,182.670027 L297.173604,182.670027 Z" id="Path" fill="#FFFFFF" transform="translate(307.880373, 184.377130) scale(-1, 1) rotate(303.000000) translate(-307.880373, -184.377130) "></path>
                    <path d="M308.327721,211.526398 C306.853948,208.941051 302.932747,207.40968 305.075757,202.966321 C307.815525,203.894666 306.408193,207.843436 309.649284,208.585318 C310.066048,206.148083 308.088535,201.067315 313.742023,202.741509 C315.18922,203.168653 315.821009,200.652072 315.197676,198.640659 C314.510318,196.421625 314.081474,194.106053 314.173283,191.515417 C316.164805,195.740994 316.557033,191.744206 318.540421,195.975086 C320.080844,199.261051 323.222033,210.769421 324.714381,214.081329 C325.096112,214.929006 323.854278,215.255646 323.047327,215.293996 C318.577689,211.991893 313.10057,213.412181 308.327721,211.526398 Z" id="Fill-24" fill="#C4C3C6" transform="translate(314.617234, 203.404706) scale(-1, 1) rotate(303.000000) translate(-314.617234, -203.404706) "></path>
                    <path d="M109.839745,309.09919 C86.0867263,310.749451 66.2494708,297.374291 65.5319945,279.224936 C64.8145182,261.07558 83.4885147,245.02482 107.241533,243.37456 C130.994552,241.7243 150.831807,255.09946 151.549284,273.248815 C152.26676,291.398171 133.592763,307.44893 109.839745,309.09919 Z" id="Oval" fill="#000000" transform="translate(108.540639, 276.236875) scale(-1, -1) rotate(-136.000000) translate(-108.540639, -276.236875) "></path>
                    <path d="M111.587663,299.339621 C89.8906525,297.638255 73.572243,282.918933 75.1394759,266.463095 C76.7067087,250.007257 95.5661045,238.046395 117.263116,239.747761 C138.960127,241.449127 155.278536,256.16845 153.711303,272.624288 C152.14407,289.080125 133.284674,301.040988 111.587663,299.339621 Z" id="Oval-Copy" fill="#C4C3C6" transform="translate(114.425390, 269.543691) scale(-1, -1) rotate(-136.000000) translate(-114.425390, -269.543691) "></path>
                    <path d="M344.345894,328.964906 C310.30046,366.041939 330.268987,380.91752 279.572099,399.281017 C228.87521,417.644514 194.466479,373.929506 153.982974,401.117236 C148.030802,397.139774 147.024392,399.172614 144.774083,394.8108 C140.951106,387.40066 142.402925,378.343046 148.900983,363.924829 C162.031313,334.790596 145.158953,290.26921 140.574273,237.249395 C137.673054,203.698067 166.563909,181.140222 165.562904,176.419772 C158.152858,141.476128 185.686251,105.459137 232.004869,75.3556052 C247.886803,65.0335716 271.906622,61.9030879 304.064325,65.9641543 C339.126188,72.1890022 363.629014,78.6997101 377.572802,85.4962781 C399.809944,96.3352449 413.845406,114.507422 419.679188,140.012809 C430.081949,158.295062 425.102153,191.899995 404.7398,240.827608 C393.808953,267.09276 378.391327,291.887873 344.345894,328.964906 Z" id="Oval" fill="#000000" transform="translate(282.662457, 234.092543) scale(-1, -1) rotate(-136.000000) translate(-282.662457, -234.092543) "></path>
                    <path d="M335.088337,83.4664909 C396.288512,95.8650457 417.964089,119.657204 400.115067,154.842966 C373.341534,207.62161 423.244297,162.932238 396.01097,228.352868 C386.26477,251.765452 380.709532,232.243683 337.209303,282.924736 C293.709075,333.605789 307.513166,384.452872 258.5735,388.477905 C245.106965,389.585457 214.809841,386.357039 190.459465,380.048236 C166.109088,373.739433 155.040411,391.939323 152.1758,388.41149 C142.409331,376.38386 172.121651,341.614339 166.925764,326.687907 C155.254319,293.158879 153.060429,256.273279 151.118317,233.807373 C148.532959,203.90054 174.291061,183.791931 173.398794,179.584258 C168.351789,155.784035 186.947214,127.223123 214.424507,103.1008 C223.441141,95.1850947 246.324189,91.2160106 265.061757,84.3852298 C306.844211,82.576773 330.186404,82.2705267 335.088337,83.4664909 Z" id="Path" fill="#C4C3C6" transform="translate(278.175400, 235.811054) scale(-1, -1) rotate(-136.000000) translate(-278.175400, -235.811054) "></path>
                    <path d="M198.935989,303.803111 C182.546858,305.045295 161.877876,298.250771 159.212931,295.911923 C179.132804,290.737492 220.481939,251.958142 233.260415,247.664295 C202.692214,271.112659 215.325121,302.560926 198.935989,303.803111 Z" id="Path-Copy-77" fill="#000000" transform="translate(196.236673, 275.808881) scale(-1, -1) rotate(-136.000000) translate(-196.236673, -275.808881) "></path>
                    <path d="M161.392782,293.996581 C131.588633,286.885965 129.324454,249.173111 136.987876,242.239499 C144.651298,235.305887 142.08896,267.761174 144.573359,266.515357 C153.882132,261.847414 160.02238,251.849978 163.35218,251.922984 C230.545674,253.396208 224.972427,226.471624 259.423502,233.142098 C252.434179,235.014646 213.498119,269.623472 206.946855,278.051522 C193.249443,295.672924 176.776579,297.666817 161.392782,293.996581 Z" id="Path-Copy-69" fill="#FFFFFF" transform="translate(196.334777, 263.806804) scale(-1, -1) rotate(-136.000000) translate(-196.334777, -263.806804) "></path>
                    <path d="M163.709537,252.609901 C153.639197,249.534187 160.780279,254.3714 163.039516,249.38152 C163.880246,247.524636 158.122647,242.433804 153.386618,237.140991 C150.797278,234.24724 144.138823,228.597044 148.621703,229.134742 C155.732991,229.987704 167.858272,224.402284 178.972195,225.689438 C183.486378,226.212246 185.746455,230.06579 186.788694,229.769678 C194.509251,227.576184 198.248123,227.179756 201.824001,228.015662 C258.781837,241.330267 253.570869,230.673299 280.12039,239.485498 C273.286969,238.780564 240.230752,246.898946 230.250623,248.228927 C213.237334,250.496168 176.231338,256.434348 163.709537,252.609901 Z" id="Path-Copy-71" fill="#FFFFFF" transform="translate(213.614680, 239.679491) scale(-1, -1) rotate(-136.000000) translate(-213.614680, -239.679491) "></path>
                    <path d="M167.68536,281.157019 C146.594529,273.723383 145.341692,266.309314 143.071283,252.064153 C141.737577,243.696127 137.991997,228.317946 131.998406,220.675185 C142.121022,226.365892 143.587342,230.410999 154.851358,233.165988 C166.115374,235.920977 169.190462,234.781286 175.725499,233.690953 C173.737448,232.497568 173.050461,229.388961 173.485573,225.829244 C176.89079,232.886499 195.58991,236.241919 198.850004,236.54311 C242.895694,240.612364 235.57845,228.709762 270.0142,232.909302 C262.720254,233.67748 221.482542,261.818012 212.57179,268.720718 C197.381485,280.487875 182.237765,286.286134 167.68536,281.157019 Z" id="Path-Copy-10" fill="#000000" transform="translate(201.006303, 251.853841) scale(-1, -1) rotate(-136.000000) translate(-201.006303, -251.853841) "></path>
                    <path d="M265.389052,276.090709 C269.7187,283.793228 262.757147,290.444321 256.868084,294.212556 C258.163658,289.159379 259.939787,285.98407 257.79091,280.437441 C255.642032,274.890812 253.623491,273.757666 247.48655,269.997177 C253.372521,269.167349 261.059403,268.388189 265.389052,276.090709 Z" id="Path-Copy-70" fill="#000000" transform="translate(257.112738, 281.851865) scale(-1, -1) rotate(-136.000000) translate(-257.112738, -281.851865) "></path>
                    <path d="M352.654758,252.796635 C368.524405,250.367189 372.023193,256.921986 396.757665,214.346691 C403.900625,202.051557 404.569027,222.421979 400.785577,248.454711 C396.575308,277.424261 382.607252,323.175774 372.853452,336.040726 C366.225561,344.782703 288.588768,399.199148 336.988125,335.692094 C385.387483,272.18504 357.738144,265.482881 352.654758,252.796635 Z" id="Path" fill="#000000" transform="translate(362.125612, 288.367594) scale(-1, -1) rotate(-136.000000) translate(-362.125612, -288.367594) "></path>
                    <path d="M213.829023,199.895652 C222.778315,203.737689 212.49522,215.197071 207.154114,219.198087 C204.322377,212.507224 204.879731,196.053615 213.829023,199.895652 Z" id="Path-Copy-79" fill="#000000" transform="translate(211.495653, 209.259818) scale(-1, -1) rotate(-136.000000) translate(-211.495653, -209.259818) "></path>
                    <path d="M220.440098,205.743216 C225.040754,192.035601 244.073283,208.397473 248.219385,216.802707 C237.835503,219.113762 215.839442,219.450832 220.440098,205.743216 Z" id="Path-Copy-81" fill="#000000" transform="translate(234.017631, 209.244768) scale(-1, -1) rotate(-136.000000) translate(-234.017631, -209.244768) "></path>
                    <path d="M205.02612,187.694392 C206.345999,177.321667 220.782976,186.479973 225.073618,192.977867 C218.873453,195.471811 203.70624,198.067118 205.02612,187.694392 Z" id="Path-Copy-86" fill="#000000" transform="translate(215.009388, 189.111937) scale(-1, -1) rotate(-125.000000) translate(-215.009388, -189.111937) "></path>
                    <path d="M201.119695,183.033282 C196.675401,178.65546 195.055727,171.372638 206.369717,164.731228 C203.358691,182.646565 216.160359,186.883758 226.178857,186.586586 C212.105911,188.669733 203.775727,185.64959 201.119695,183.033282 Z" id="Path-Copy-83" fill="#000000" transform="translate(211.966876, 176.006221) scale(-1, -1) rotate(-125.000000) translate(-211.966876, -176.006221) "></path>
                    <path d="M214.692928,176.782903 C214.485822,176.818662 214.273297,176.840425 214.055916,176.847365 C210.968023,176.945945 208.069649,174.016256 207.582215,170.303722 C207.106782,166.682589 209.100642,163.654172 212.064498,163.415771 C211.844479,165.08745 211.842587,166.938884 212.097621,168.881346 C212.490263,171.871908 213.430387,174.609788 214.692928,176.782903 L214.692928,176.782903 Z" id="Path" fill="#FFFFFF" transform="translate(211.102545, 170.132776) scale(-1, -1) rotate(-125.000000) translate(-211.102545, -170.132776) "></path>
                    <path d="M306.743731,215.412019 C319.934842,215.024115 335.658906,215.256049 348.002227,224.28701 C360.345548,233.317971 350.125127,246.891251 342.884367,252.596456 C329.51452,263.130944 320.466726,246.226858 287.195937,250.534904 C255.941571,254.581855 278.245281,216.250059 306.743731,215.412019 Z" id="Path-Copy-74" fill="#FFFFFF" transform="translate(312.899157, 235.710274) scale(-1, -1) rotate(-136.000000) translate(-312.899157, -235.710274) "></path>
                    <path d="M410.590085,96.106642 C394.633419,107.516702 366.616404,139.014692 363.709897,142.280712 C360.838353,134.378642 361.582831,125.158351 365.943331,114.619839 C366.922127,112.296535 367.585503,110.701609 367.933461,109.835061 C369.035562,107.090411 369.507027,105.661537 369.347857,105.548439 C360.982401,99.6044119 302.47179,154.242116 290.906037,150.923577 C278.853863,147.46547 287.092895,129.79544 302.411405,116.08149 C328.043601,93.1341752 416.517693,79.1542354 410.590085,96.106642 Z" id="Path-Copy-89" fill="#000000" transform="translate(348.001289, 119.836466) scale(-1, -1) rotate(-136.000000) translate(-348.001289, -119.836466) "></path>
                    <path d="M365.278531,126.493859 C362.406986,118.591789 353.708668,115.91586 347.117716,118.470579 C339.496623,121.424591 331.682876,124.932103 323.886909,129.126764 C276.954232,154.379134 309.117912,115.357057 328.731306,104.071189 C344.039854,95.2623999 367.28981,90.3585975 386.710308,89.1224511 C387.247478,92.8664604 370.115207,109.070088 365.278531,126.493859 Z" id="Path" fill="#FFFFFF" transform="translate(343.170990, 113.298922) scale(-1, -1) rotate(-136.000000) translate(-343.170990, -113.298922) "></path>
                    <path d="M464.026979,172.226488 C460.718946,188.657429 402.128368,161.350093 361.426583,188.932621 C320.724797,216.51515 352.153424,173.186651 365.241117,161.542118 C395.602967,134.528223 471.99539,157.91039 464.026979,172.226488 Z" id="Path-Copy-88" fill="#FFFFFF" transform="translate(402.946663, 173.543141) scale(-1, -1) rotate(-136.000000) translate(-402.946663, -173.543141) "></path>
                    <path d="M223.063476,136.490807 C230.29809,133.31638 240.829655,134.588765 248.577311,139.631441 C253.122146,142.589514 256.943316,149.091231 225.173857,158.414259 C223.179335,158.99957 215.873832,162.494954 211.68844,161.91345 C202.772484,160.796357 210.957922,141.802521 223.063476,136.490807 Z" id="Path-Copy-84" fill="#FFFFFF" transform="translate(229.757912, 148.368794) scale(-1, -1) rotate(-136.000000) translate(-229.757912, -148.368794) "></path>
                    <path d="M278.388211,187.418805 C280.314503,190.309696 284.400524,195.37707 278.838974,198.388574 C273.277423,201.400079 264.76561,203.096527 255.841099,200.412867 C246.916588,197.729207 250.231562,193.421998 258.899877,188.603846 C265.369987,185.007533 275.273818,171.955058 288.61137,149.446421 C294.165932,133.998169 297.899187,124.80693 299.811135,121.872707 C303.429043,116.320387 305.306736,157.855426 283.071568,178.601455 C282.702923,178.945411 276.461919,184.527913 278.388211,187.418805 Z" id="Path" fill="#FFFFFF" transform="translate(276.290988, 161.559622) scale(-1, -1) rotate(-136.000000) translate(-276.290988, -161.559622) "></path>
                    <path d="M122.6412,256.035948 C135.009048,257.20122 149.271969,264.149902 162.752667,277.559928 C176.233365,290.969954 146.078115,286.994471 122.047043,282.331661 C98.01597,277.668852 96.8704795,290.811347 91.5507783,286.848907 C80.1261077,278.573344 101.946295,254.08612 122.6412,256.035948 Z" id="Path-Copy-76" fill="#FFFFFF" transform="translate(127.246282, 271.765126) scale(-1, -1) rotate(-136.000000) translate(-127.246282, -271.765126) "></path>
                    <path d="M237.996892,336.772184 C230.854079,343.782222 212.262165,344.5875 202.670253,340.227374 C206.868285,338.741647 219.56268,333.947541 226.780718,326.639813 C233.822327,319.510707 235.390669,309.939116 239.387777,302.675793 C238.330792,305.132705 241.572372,314.602551 242.201103,318.482199 C243.272911,325.095898 242.265636,332.582791 237.996892,336.772184 Z" id="Path-Copy-80" fill="#000000" transform="translate(222.633729, 322.794957) scale(-1, -1) rotate(-136.000000) translate(-222.633729, -322.794957) "></path>
                    <path d="M121.431322,206.936022 C123.216224,218.565215 132.714768,230.877201 139.165519,234.188357 C132.462978,236.219323 119.647845,242.435354 112.135884,260.985419 C113.339586,259.20635 110.460178,250.848516 110.640351,248.008386 C110.947495,243.166769 120.909178,203.534094 121.431322,206.936022 Z" id="Path-Copy-78" fill="#000000" transform="translate(124.898860, 233.857332) scale(-1, -1) rotate(-136.000000) translate(-124.898860, -233.857332) "></path>
                    <path d="M310.555572,221.777842 C311.169283,202.337085 326.308964,186.775705 344.895596,186.775705 C363.353087,186.775705 378.411359,202.121592 379.220728,221.373177 C369.252126,217.005956 357.681814,214.506856 345.341822,214.506856 C332.625581,214.506856 320.726671,217.160675 310.555572,221.777842 L310.555572,221.777842 Z" id="Path" fill="#FFFFFF" transform="translate(344.888150, 204.276773) scale(-1, -1) rotate(-136.000000) translate(-344.888150, -204.276773) "></path>
                    <path d="M300.240428,219.842993 C301.582861,211.940077 317.238553,205.704202 336.35412,205.704202 C354.781652,205.704202 369.993893,211.499254 372.267733,218.996326 C362.249385,217.377596 350.802455,216.459738 338.645551,216.459738 C324.506668,216.459738 311.328128,217.701274 300.240428,219.842993 L300.240428,219.842993 Z" id="Path" fill="#FFFFFF" transform="translate(336.254080, 212.773597) scale(-1, -1) rotate(-136.000000) translate(-336.254080, -212.773597) "></path>
                    <path d="M236.060514,152.512935 C236.283836,145.286333 246.840412,138.822701 260.248249,137.885134 C273.339421,136.96971 284.472057,141.649431 286.132617,148.503169 C278.940429,147.481942 270.715323,147.188577 262.024395,147.796306 C252.408992,148.46868 243.511739,150.153958 236.060514,152.512935 L236.060514,152.512935 Z" id="Path" fill="#FFFFFF" transform="translate(261.096566, 145.141896) scale(-1, -1) rotate(-136.000000) translate(-261.096566, -145.141896) "></path>
                    <path d="M251.235945,150.984818 C254.031251,134.227305 266.802492,121.959579 281.187634,122.965486 C295.231842,123.947553 305.991908,137.244307 306.899699,153.67834 C299.246646,149.573992 290.349456,146.926684 280.747831,146.255273 C270.118247,145.51198 260.00658,147.286902 251.235945,150.984818 Z" id="Path" fill="#FFFFFF" transform="translate(279.067822, 138.293083) scale(-1, -1) rotate(-136.000000) translate(-279.067822, -138.293083) "></path>
                    <path d="M280.410731,126.078006 C291.318718,126.842563 304.540954,141.232927 301.723555,148.723099 C299.686586,154.138464 283.938052,152.008896 278.602456,151.634916 C265.887019,150.743672 253.806763,152.430118 243.303673,156.106229 C250.190923,134.836224 262.559943,124.826817 280.410731,126.078006 Z" id="Path-Copy-73" fill="#000000" transform="translate(272.705934, 141.039984) scale(-1, -1) rotate(-136.000000) translate(-272.705934, -141.039984) "></path>
                    <path d="M306.587709,220.452452 C307.701552,204.989499 323.029498,192.737324 341.774701,192.737324 C360.122218,192.737324 375.195936,204.475145 376.871711,219.472718 C366.872969,216.117523 355.362653,214.206603 343.113377,214.206603 C329.717549,214.206603 317.205489,216.491996 306.587709,220.452452 L306.587709,220.452452 Z" id="Path" fill="#000000" transform="translate(341.729710, 206.594888) scale(-1, -1) rotate(-136.000000) translate(-341.729710, -206.594888) "></path>
                    <path d="M227.305521,155.192373 C246.708535,155.440389 253.741648,153.765667 260.752233,150.326036 C267.762817,146.886404 274.784666,144.329228 279.081801,135.561047 C282.68847,141.783324 277.819631,147.069583 264.110593,162.866466 C250.401554,178.663348 234.347297,179.309732 229.061037,192.422953 C228.771458,191.080348 227.654708,182.54847 241.608294,170.374479 C255.561879,158.200488 238.883579,164.163475 227.305521,155.192373 Z" id="Path-Copy-82" fill="#000000" transform="translate(253.767460, 163.992000) scale(-1, -1) rotate(-136.000000) translate(-253.767460, -163.992000) "></path>
                    <path d="M304.679494,192.932198 C319.803455,195.621908 330.593508,197.654322 337.049654,199.029439 C302.499244,198.201454 284.148241,204.026602 281.996646,216.504884 C281.205253,223.050853 286.349072,228.006312 297.428102,231.371258 C311.657724,241.84441 310.493875,247.861748 293.936556,249.423273 C269.100578,251.76556 265.196461,260.34279 263.364734,260.568231 C269.818464,253.741078 269.885324,245.079551 266.630469,237.305307 C263.375613,229.531064 258.939227,227.014722 248.268822,225.311562 C248.852058,226.039643 264.03959,219.502871 269.626316,210.18528 C275.935632,199.662547 284.500501,180.316457 285.757021,180.813992 C286.823626,181.236327 281.993552,188.897633 304.679494,192.932198 Z" id="Path" fill="#000000" transform="translate(292.659238, 220.686405) scale(-1, -1) rotate(-136.000000) translate(-292.659238, -220.686405) "></path>
                    <path d="M259.880546,217.311499 C257.275823,202.539383 245.762565,201.204059 242.167524,198.463915 C251.83084,200.453201 260.528867,201.271155 265.385015,208.2175 C270.538011,215.588465 272.797209,227.219063 256.576422,233.125505 C258.025093,229.823785 261.443379,226.174769 259.880546,217.311499 Z" id="Path" fill="#FFFFFF" transform="translate(255.679613, 215.794710) scale(-1, -1) rotate(-136.000000) translate(-255.679613, -215.794710) "></path>
                    <path d="M366.522752,182.832336 C383.387423,181.328137 388.726982,190.696207 390.075723,197.942663 C382.576814,194.806325 378.693868,191.876488 367.384686,191.993754 C356.075504,192.11102 352.40362,193.709606 340.702286,198.454619 C344.360842,192.283987 349.65808,184.336536 366.522752,182.832336 Z" id="Path-Copy-70" fill="#000000" transform="translate(365.389005, 190.563141) scale(-1, -1) rotate(-136.000000) translate(-365.389005, -190.563141) "></path>
                    <path d="M305.233231,121.309982 C318.42809,125.163509 318.705848,135.417521 316.842709,142.48603 C312.483039,137.280609 310.742911,133.386894 302.247792,129.984735 C293.752673,126.582575 290.376256,126.910009 279.754862,127.63294 C284.932569,123.105693 292.038372,117.456454 305.233231,121.309982 Z" id="Path-Copy-93" fill="#000000" transform="translate(298.713656, 131.257843) scale(-1, -1) rotate(-136.000000) translate(-298.713656, -131.257843) "></path>
                    <path d="M347.489728,301.239853 C336.001903,309.674031 315.952754,321.238715 298.548453,326.184127 C314.548453,311.184127 314.156723,307.162968 337.442653,291.614396 C360.728583,276.065825 351.498076,255.956788 364.548453,253.184127 C370.548453,274.184127 366.712105,287.127089 347.489728,301.239853 Z" id="Path-Copy-91" fill="#FFFFFF" transform="translate(332.850890, 289.684127) scale(-1, -1) rotate(-156.000000) translate(-332.850890, -289.684127) "></path>
                </g>
            </g>
            <g id="Group-35-Copy" transform="translate(550.850811, 425.981446) rotate(-46.000000) translate(-550.850811, -425.981446) translate(420.350811, 297.981446)">
                <g id="Group-3" transform="translate(130.071078, 127.764129) scale(-1, -1) rotate(131.000000) translate(-130.071078, -127.764129) translate(51.071078, 24.264129)"></g>
            </g>
            <g id="Group-99" transform="translate(535.796074, 304.500000) scale(-1, 1) rotate(-3.000000) translate(-535.796074, -304.500000) translate(393.796074, 133.000000)">
                <g id="Group-93" transform="translate(0.000000, -0.000000)">
                    <g id="Group-94" transform="translate(0.430097, 0.702086)">
                        <g id="Group-22" transform="translate(3.256524, 268.480737)"></g>
                        <g id="Group-28" transform="translate(28.237769, 68.946734)">
                            <g id="Group-29" transform="translate(86.220431, 151.019487) scale(1, -1) rotate(-11.000000) translate(-86.220431, -151.019487) translate(10.220431, 92.019487)">
                                <g id="Group-32" transform="translate(58.531363, 51.521382) rotate(-2.000000) translate(-58.531363, -51.521382) translate(2.531363, 6.521382)"></g>
                            </g>
                        </g>
                        <g id="Group-24" transform="translate(70.955989, 124.669611) rotate(6.000000) translate(-70.955989, -124.669611) translate(40.455989, 72.669611)">
                            <g id="Group-25" transform="translate(30.347340, 52.034200) rotate(5.000000) translate(-30.347340, -52.034200) translate(4.847340, 3.034200)"></g>
                        </g>
                        <g id="Group-33" transform="translate(164.594181, 35.301895) rotate(5.000000) translate(-164.594181, -35.301895) translate(67.594181, 9.301895)"></g>
                        <g id="Group-30" transform="translate(164.309720, 100.532242) scale(1, -1) rotate(-17.000000) translate(-164.309720, -100.532242) translate(128.809720, 75.532242)"></g>
                        <g id="Group-31" transform="translate(76.291540, 93.192268) rotate(-187.000000) translate(-76.291540, -93.192268) translate(43.791540, 68.192268)"></g>
                    </g>
                </g>
            </g>
            <g id="Group-3" transform="translate(291.289059, 457.064529) scale(1, -1) rotate(157.000000) translate(-291.289059, -457.064529) translate(152.289059, 297.064529)"></g>
            <g id="Group-5" transform="translate(261.496892, 299.387976) scale(1, -1) rotate(162.000000) translate(-261.496892, -299.387976) translate(218.496892, 279.387976)"></g>
            <g id="Group-8" transform="translate(425.312778, 406.367696) scale(1, -1) rotate(121.000000) translate(-425.312778, -406.367696) translate(399.312778, 375.367696)"></g>
            <g id="Group-94" transform="translate(364.750060, 445.796304) rotate(10.000000) translate(-364.750060, -445.796304) translate(221.750060, 267.796304)">
                <g id="Group-22" transform="translate(4.188488, 282.645992)"></g>
                <g id="Group-28" transform="translate(26.910992, 76.161401)"></g>
                <g id="Group-24" transform="translate(56.163589, 178.488975) rotate(6.000000) translate(-56.163589, -178.488975) translate(35.663589, 164.488975)">
                    <g id="Group-25" transform="translate(20.705482, 14.205210) rotate(5.000000) translate(-20.705482, -14.205210) translate(1.705482, 2.205210)"></g>
                </g>
                <g id="Group-20" transform="translate(92.395078, 248.665401) rotate(3.000000) translate(-92.395078, -248.665401) translate(22.079973, 207.670516)"></g>
            </g>
            <g id="Group-91" transform="translate(306.198865, 363.259019) rotate(14.000000) translate(-306.198865, -363.259019) translate(276.301753, 342.684294)"></g>
        </g>
    </g>
</svg>