<?xml version="1.0" encoding="UTF-8"?>
<svg width="1310px" height="800px" viewBox="0 0 1310 800" version="1.1" xmlns="http://www.w3.org/2000/svg" xmlns:xlink="http://www.w3.org/1999/xlink">
    <!-- Generator: Sketch 58 (84663) - https://sketch.com -->
    <title>Blog-template-15</title>
    <desc>Created with Sketch.</desc>
    <g id="Blog-template-15" stroke="none" stroke-width="1" fill="none" fill-rule="evenodd">
        <rect fill="#4038FF" x="0" y="0" width="1310" height="800"></rect>
        <g id="Group" transform="translate(910.000000, 250.000000) scale(1, -1) rotate(-270.000000) translate(-910.000000, -250.000000) translate(660.000000, -150.000000)">
            <g id="Group-2">
                <path d="M177.868875,233.145277 L166.765367,233.145277 L166.765367,244.268264 L177.868875,244.268264 L177.868875,255.418891 L166.765367,255.418891 L166.765367,266.569518 L177.868875,266.569518 L177.868875,277.692505 L189,277.692505 L189,288.843132 L177.868875,288.843132 L177.868875,277.720145 L166.765367,277.720145 L166.765367,288.843132 L177.868875,288.843132 L177.868875,300 L166.737751,300 L166.737751,288.849373 L155.634243,288.849373 L155.634243,277.726386 L144.503118,277.726386 L144.503118,288.849373 L133.371993,288.849373 L133.371993,277.726386 L122.268485,277.726386 L122.268485,288.849373 L133.371993,288.849373 L133.371993,300 L122.239978,300 L122.239978,288.849373 L111.13736,288.849373 L111.13736,300 L100,300 L100,288.849373 L111.131125,288.849373 L111.131125,277.726386 L100,277.726386 L100,266.574868 L111.131125,266.574868 L111.131125,255.424241 L100,255.424241 L100,244.273614 L111.131125,244.273614 L111.131125,233.150627 L111.131125,233.122987 L122.234633,233.122987 L122.234633,222 L133.365757,222 L133.365757,233.122987 L144.496882,233.122987 L144.496882,222 L155.628897,222 L155.628897,233.122987 L166.732406,233.122987 L166.732406,222 L177.86353,222 L177.86353,233.122987 L188.994655,233.122987 L188.994655,244.273614 L177.86353,244.273614 L177.86353,233.145277 L177.868875,233.145277 Z M111,233.972735 L111,223 L100,223 L100,234 L111,234 L111,233.972735 Z M145,289 L145,300 L156,300 L156,289 L145,289 Z M178,266 L178,255 L189,255 L189,266 L178,266 Z M122,277 L111,277 L111,266 L122,266 L122,277 Z M122.263586,222 L122.263586,211 L133.367761,211 L133.367761,222 L144.499555,222 L144.499555,211 L155.632239,211 L155.632239,222 L166.764032,222 L166.764032,211 L177.868207,211 L177.868207,222 L189,222 L189,211 L177.868207,211 L177.868207,200 L166.736414,200 L166.736414,211 L155.632239,211 L155.632239,200 L144.499555,200 L144.499555,211 L133.367761,211 L133.367761,200 L122.235968,200 L122.235968,211 L111.131793,211 L111.131793,200 L100,200 L100,211 L111.131793,211 L111.131793,222 L122.263586,222 Z M166,244 L166,255 L155,255 L155,244 L166,244 Z M145,245 L145,234 L156,234 L156,245 L145,245 Z M134,244 L145,244 L145,255 L134,255 L134,244 Z M134,245 L123,245 L123,234 L134,234 L134,245 Z M134,266 L123,266 L123,255 L134,255 L134,266 Z M145,266 L145,277 L134,277 L134,266 L145,266 Z M156,266 L145,266 L145,255 L156,255 L156,266 Z M155,266 L166,266 L166,277 L155,277 L155,266 Z M122,255 L122,244 L111,244 L111,255 L122,255 Z M200,289 L189,289 L189,300 L200,300 L200,289 Z M189,266 L200,266 L200,277 L189,277 L189,266 Z M200,244 L189,244 L189,255 L200,255 L200,244 Z M189,223 L200,223 L200,234 L189,234 L189,223 Z M189,200 L200,200 L200,211 L189,211 L189,200 Z" id="Shape" fill="#261EE4"></path>
                <path d="M477.868875,33.1452773 L466.765367,33.1452773 L466.765367,44.268264 L477.868875,44.268264 L477.868875,55.418891 L466.765367,55.418891 L466.765367,66.569518 L477.868875,66.569518 L477.868875,77.6925047 L489,77.6925047 L489,88.8431317 L477.868875,88.8431317 L477.868875,77.7201449 L466.765367,77.7201449 L466.765367,88.8431317 L477.868875,88.8431317 L477.868875,100 L466.737751,100 L466.737751,88.849373 L455.634243,88.849373 L455.634243,77.7263863 L444.503118,77.7263863 L444.503118,88.849373 L433.371993,88.849373 L433.371993,77.7263863 L422.268485,77.7263863 L422.268485,88.849373 L433.371993,88.849373 L433.371993,100 L422.239978,100 L422.239978,88.849373 L411.13736,88.849373 L411.13736,100 L400,100 L400,88.849373 L411.131125,88.849373 L411.131125,77.7263863 L400,77.7263863 L400,66.5748677 L411.131125,66.5748677 L411.131125,55.4242407 L400,55.4242407 L400,44.2736137 L411.131125,44.2736137 L411.131125,33.150627 L411.131125,33.1229867 L422.234633,33.1229867 L422.234633,22 L433.365757,22 L433.365757,33.1229867 L444.496882,33.1229867 L444.496882,22 L455.628897,22 L455.628897,33.1229867 L466.732406,33.1229867 L466.732406,22 L477.86353,22 L477.86353,33.1229867 L488.994655,33.1229867 L488.994655,44.2736137 L477.86353,44.2736137 L477.86353,33.1452773 L477.868875,33.1452773 Z M411,33.9727353 L411,23 L400,23 L400,34 L411,34 L411,33.9727353 Z M445,89 L445,100 L456,100 L456,89 L445,89 Z M478,66 L478,55 L489,55 L489,66 L478,66 Z M422,77 L411,77 L411,66 L422,66 L422,77 Z M422.263586,22 L422.263586,11 L433.367761,11 L433.367761,22 L444.499555,22 L444.499555,11 L455.632239,11 L455.632239,22 L466.764032,22 L466.764032,11 L477.868207,11 L477.868207,22 L489,22 L489,11 L477.868207,11 L477.868207,0 L466.736414,0 L466.736414,11 L455.632239,11 L455.632239,0 L444.499555,0 L444.499555,11 L433.367761,11 L433.367761,0 L422.235968,0 L422.235968,11 L411.131793,11 L411.131793,0 L400,0 L400,11 L411.131793,11 L411.131793,22 L422.263586,22 Z M466,44 L466,55 L455,55 L455,44 L466,44 Z M445,45 L445,34 L456,34 L456,45 L445,45 Z M434,44 L445,44 L445,55 L434,55 L434,44 Z M434,45 L423,45 L423,34 L434,34 L434,45 Z M434,66 L423,66 L423,55 L434,55 L434,66 Z M445,66 L445,77 L434,77 L434,66 L445,66 Z M456,66 L445,66 L445,55 L456,55 L456,66 Z M455,66 L466,66 L466,77 L455,77 L455,66 Z M422,55 L422,44 L411,44 L411,55 L422,55 Z M500,89 L489,89 L489,100 L500,100 L500,89 Z M489,66 L500,66 L500,77 L489,77 L489,66 Z M500,44 L489,44 L489,55 L500,55 L500,44 Z M489,23 L500,23 L500,34 L489,34 L489,23 Z M489,0 L500,0 L500,11 L489,11 L489,0 Z" id="Shape-Copy-5" fill="#261EE4"></path>
                <path d="M489,400 L500,400 L500,300 L489,300 L489,400 Z M477,400 L466,400 L466,300 L477,300 L477,400 Z M456,400 L445,400 L445,300 L456,300 L456,400 Z M423,400 L434,400 L434,300 L423,300 L423,400 Z M411,400 L400,400 L400,300 L411,300 L411,400 Z" id="Shape" fill="#261EE4"></path>
                <path d="M389,300 L400,300 L400,200 L389,200 L389,300 Z M377,300 L366,300 L366,200 L377,200 L377,300 Z M356,300 L345,300 L345,200 L356,200 L356,300 Z M323,300 L334,300 L334,200 L323,200 L323,300 Z M311,300 L300,300 L300,200 L311,200 L311,300 Z" id="Shape-Copy-6" fill="#261EE4"></path>
                <path d="M300,111 L300,100 L200,100 L200,111 L300,111 Z M300,123 L300,134 L200,134 L200,123 L300,123 Z M300,144 L300,155 L200,155 L200,144 L300,144 Z M300,177 L300,166 L200,166 L200,177 L300,177 Z M300,189 L300,200 L200,200 L200,189 L300,189 Z" id="Shape" fill="#261EE4"></path>
                <path d="M400,389 L400,400 L300,400 L300,389 L400,389 Z M400,355 L400,344 L300,344 L300,355 L400,355 Z M400,323 L400,334 L300,334 L300,323 L400,323 Z M400,300 L400,311 L300,311 L300,300 L400,300 Z M400,377 L400,366 L300,366 L300,377 L400,377 Z" id="Shape" fill="#261EE4"></path>
                <path d="M488.88879,400 L500,400 C500,455.227556 455.227758,500 400,500 L400,488.888889 C449.094306,488.888889 488.88879,449.094222 488.88879,400 Z M466.857015,400 L478,400 C478,443.078286 443.078356,478 400,478 L400,466.857143 C436.92201,466.857143 466.857015,436.92208 466.857015,400 Z M455,400 L444,400 C444,424.29856 424.298823,444 400,444 L400,455 C430.376171,455 455,430.37672 455,400 Z M422.666667,400 L434,400 C434,418.77888 418.779086,434 400,434 L400,422.666667 C412.517575,422.666667 422.666667,412.51744 422.666667,400 Z M400,400 L411,400 C411,406.07728 406.077348,411 400,411 L400,400 Z" id="Shape" fill="#FFFFFF"></path>
                <path d="M211.11121,400 L200,400 C200,344.772444 244.772242,300 300,300 L300,311.111111 C250.905694,311.111111 211.11121,350.905778 211.11121,400 Z M233.142985,400 L222,400 C222,356.921714 256.921644,322 300,322 L300,333.142857 C263.07799,333.142857 233.142985,363.07792 233.142985,400 Z M245,400 L256.000176,400 C256.000176,375.70056 275.700788,356 300,356 L300,345 C269.623343,345 245,369.62328 245,400 Z M277.332728,400 L266,400 C266,381.220213 281.220413,366 300,366 L300,377.333333 C287.48209,377.333333 277.332728,387.48256 277.332728,400 Z M300,400 L289,400 C289,393.92272 293.922652,389 300,389 L300,400 Z" id="Shape" fill="#261EE4" transform="translate(250.000000, 350.000000) rotate(-270.000000) translate(-250.000000, -350.000000) "></path>
                <path d="M11.11121,100 L0,100 C0,44.7724444 44.772242,0 100,0 L100,11.1111111 C50.905694,11.1111111 11.11121,50.9057778 11.11121,100 Z M33.1429846,100 L22,100 C22,56.9217143 56.9216444,22 100,22 L100,33.1428571 C63.0779895,33.1428571 33.1429846,63.07792 33.1429846,100 Z M45,100 L56.0001762,100 C56.0001762,75.70056 75.7007879,56 100,56 L100,45 C69.6233425,45 45,69.62328 45,100 Z M77.3327283,100 L66,100 C66,81.2202133 81.2204132,66 100,66 L100,77.3333333 C87.4820904,77.3333333 77.3327283,87.48256 77.3327283,100 Z M100,100 L89,100 C89,93.92272 93.9226519,89 100,89 L100,100 Z" id="Shape-Copy-3" fill="#FFFFFF"></path>
                <path d="M311.11121,100 L300,100 C300,44.7724444 344.772242,0 400,0 L400,11.1111111 C350.905694,11.1111111 311.11121,50.9057778 311.11121,100 Z M333.142985,100 L322,100 C322,56.9217143 356.921644,22 400,22 L400,33.1428571 C363.07799,33.1428571 333.142985,63.07792 333.142985,100 Z M345,100 L356.000176,100 C356.000176,75.70056 375.700788,56 400,56 L400,45 C369.623343,45 345,69.62328 345,100 Z M377.332728,100 L366,100 C366,81.2202133 381.220413,66 400,66 L400,77.3333333 C387.48209,77.3333333 377.332728,87.48256 377.332728,100 Z M400,100 L389,100 C389,93.92272 393.922652,89 400,89 L400,100 Z" id="Shape-Copy-7" fill="#FFFFFF" transform="translate(350.000000, 50.000000) rotate(-90.000000) translate(-350.000000, -50.000000) "></path>
                <path d="M111.11121,100 L100,100 C100,44.7724444 144.772242,0 200,0 L200,11.1111111 C150.905694,11.1111111 111.11121,50.9057778 111.11121,100 Z M133.142985,100 L122,100 C122,56.9217143 156.921644,22 200,22 L200,33.1428571 C163.07799,33.1428571 133.142985,63.07792 133.142985,100 Z M145,100 L156.000176,100 C156.000176,75.70056 175.700788,56 200,56 L200,45 C169.623343,45 145,69.62328 145,100 Z M177.332728,100 L166,100 C166,81.2202133 181.220413,66 200,66 L200,77.3333333 C187.48209,77.3333333 177.332728,87.48256 177.332728,100 Z M200,100 L189,100 C189,93.92272 193.922652,89 200,89 L200,100 Z" id="Shape-Copy-4" fill="#261EE4" transform="translate(150.000000, 50.000000) rotate(-180.000000) translate(-150.000000, -50.000000) "></path>
                <path d="M400,700 L500,700 L500,600 C444.772242,600 400,644.772444 400,700 Z" id="Path" fill="#261EE4" fill-rule="nonzero"></path>
                <path d="M500,792.167111 L500,800 L492.16637,800 L400,707.833778 L400,700 L407.83274,700 L500,792.167111 Z M400,724 L400,739.631256 L460.369773,800 L476,800 L400,724 Z M400,770.721778 L400,755 L445,800 L429.27758,800 L400,770.721778 Z M400,800 L414,800 L400,786 L400,800 Z M424,700 L439.63093,700 L500,760.368744 L500,776 L424,700 Z M470.72242,700 L455,700 L500,745 L500,729.278222 L470.72242,700 Z M500,714 L486,700 L500,700 L500,714 Z" id="Shape" fill="#261EE4"></path>
                <path d="M500,192.167111 L500,200 L492.16637,200 L400,107.833778 L400,100 L407.83274,100 L500,192.167111 Z M400,124 L400,139.631256 L460.369773,200 L476,200 L400,124 Z M400,170.721778 L400,155 L445,200 L429.27758,200 L400,170.721778 Z M400,200 L414,200 L400,186 L400,200 Z M424,100 L439.63093,100 L500,160.368744 L500,176 L424,100 Z M470.72242,100 L455,100 L500,145 L500,129.278222 L470.72242,100 Z M500,114 L486,100 L500,100 L500,114 Z" id="Shape-Copy" fill="#261EE4" transform="translate(450.000000, 150.000000) rotate(-270.000000) translate(-450.000000, -150.000000) "></path>
            </g>
        </g>
        <g id="Group-Copy" transform="translate(50.000000, 550.000000) scale(1, -1) rotate(-90.000000) translate(-50.000000, -550.000000) translate(-200.000000, 100.000000)">
            <g id="Group-2">
                <path d="M488.88879,400 L500,400 C500,455.227556 455.227758,500 400,500 L400,488.888889 C449.094306,488.888889 488.88879,449.094222 488.88879,400 Z M466.857015,400 L478,400 C478,443.078286 443.078356,478 400,478 L400,466.857143 C436.92201,466.857143 466.857015,436.92208 466.857015,400 Z M455,400 L444,400 C444,424.29856 424.298823,444 400,444 L400,455 C430.376171,455 455,430.37672 455,400 Z M422.666667,400 L434,400 C434,418.77888 418.779086,434 400,434 L400,422.666667 C412.517575,422.666667 422.666667,412.51744 422.666667,400 Z M400,400 L411,400 C411,406.07728 406.077348,411 400,411 L400,400 Z" id="Shape" fill="#FFFFFF"></path>
                <path d="M111.11121,500 L100,500 C100,444.772444 144.772242,400 200,400 L200,411.111111 C150.905694,411.111111 111.11121,450.905778 111.11121,500 Z M133.142985,500 L122,500 C122,456.921714 156.921644,422 200,422 L200,433.142857 C163.07799,433.142857 133.142985,463.07792 133.142985,500 Z M145,500 L156.000176,500 C156.000176,475.70056 175.700788,456 200,456 L200,445 C169.623343,445 145,469.62328 145,500 Z M177.332728,500 L166,500 C166,481.220213 181.220413,466 200,466 L200,477.333333 C187.48209,477.333333 177.332728,487.48256 177.332728,500 Z M200,500 L189,500 C189,493.92272 193.922652,489 200,489 L200,500 Z" id="Shape" fill="#261EE4"></path>
                <path d="M311.11121,700 L300,700 C300,644.772444 344.772242,600 400,600 L400,611.111111 C350.905694,611.111111 311.11121,650.905778 311.11121,700 Z M333.142985,700 L322,700 C322,656.921714 356.921644,622 400,622 L400,633.142857 C363.07799,633.142857 333.142985,663.07792 333.142985,700 Z M345,700 L356.000176,700 C356.000176,675.70056 375.700788,656 400,656 L400,645 C369.623343,645 345,669.62328 345,700 Z M377.332728,700 L366,700 C366,681.220213 381.220413,666 400,666 L400,677.333333 C387.48209,677.333333 377.332728,687.48256 377.332728,700 Z M400,700 L389,700 C389,693.92272 393.922652,689 400,689 L400,700 Z" id="Shape-Copy-2" fill="#FFFFFF" transform="translate(350.000000, 650.000000) scale(-1, 1) translate(-350.000000, -650.000000) "></path>
                <path d="M200,600 L300,600 L300,500 C244.772242,500 200,544.772444 200,600 Z" id="Path" fill="#261EE4" fill-rule="nonzero"></path>
                <path d="M400,700 L500,700 L500,600 C444.772242,600 400,644.772444 400,700 Z" id="Path" fill="#261EE4" fill-rule="nonzero"></path>
                <path d="M500,792.167111 L500,800 L492.16637,800 L400,707.833778 L400,700 L407.83274,700 L500,792.167111 Z M400,724 L400,739.631256 L460.369773,800 L476,800 L400,724 Z M400,770.721778 L400,755 L445,800 L429.27758,800 L400,770.721778 Z M400,800 L414,800 L400,786 L400,800 Z M424,700 L439.63093,700 L500,760.368744 L500,776 L424,700 Z M470.72242,700 L455,700 L500,745 L500,729.278222 L470.72242,700 Z M500,714 L486,700 L500,700 L500,714 Z" id="Shape" fill="#261EE4"></path>
                <path d="M377.868875,833.145277 L366.765367,833.145277 L366.765367,844.268264 L377.868875,844.268264 L377.868875,855.418891 L366.765367,855.418891 L366.765367,866.569518 L377.868875,866.569518 L377.868875,877.692505 L389,877.692505 L389,888.843132 L377.868875,888.843132 L377.868875,877.720145 L366.765367,877.720145 L366.765367,888.843132 L377.868875,888.843132 L377.868875,900 L366.737751,900 L366.737751,888.849373 L355.634243,888.849373 L355.634243,877.726386 L344.503118,877.726386 L344.503118,888.849373 L333.371993,888.849373 L333.371993,877.726386 L322.268485,877.726386 L322.268485,888.849373 L333.371993,888.849373 L333.371993,900 L322.239978,900 L322.239978,888.849373 L311.13736,888.849373 L311.13736,900 L300,900 L300,888.849373 L311.131125,888.849373 L311.131125,877.726386 L300,877.726386 L300,866.574868 L311.131125,866.574868 L311.131125,855.424241 L300,855.424241 L300,844.273614 L311.131125,844.273614 L311.131125,833.150627 L311.131125,833.122987 L322.234633,833.122987 L322.234633,822 L333.365757,822 L333.365757,833.122987 L344.496882,833.122987 L344.496882,822 L355.628897,822 L355.628897,833.122987 L366.732406,833.122987 L366.732406,822 L377.86353,822 L377.86353,833.122987 L388.994655,833.122987 L388.994655,844.273614 L377.86353,844.273614 L377.86353,833.145277 L377.868875,833.145277 Z M311,833.972735 L311,823 L300,823 L300,834 L311,834 L311,833.972735 Z M345,889 L345,900 L356,900 L356,889 L345,889 Z M378,866 L378,855 L389,855 L389,866 L378,866 Z M322,877 L311,877 L311,866 L322,866 L322,877 Z M322.263586,822 L322.263586,811 L333.367761,811 L333.367761,822 L344.499555,822 L344.499555,811 L355.632239,811 L355.632239,822 L366.764032,822 L366.764032,811 L377.868207,811 L377.868207,822 L389,822 L389,811 L377.868207,811 L377.868207,800 L366.736414,800 L366.736414,811 L355.632239,811 L355.632239,800 L344.499555,800 L344.499555,811 L333.367761,811 L333.367761,800 L322.235968,800 L322.235968,811 L311.131793,811 L311.131793,800 L300,800 L300,811 L311.131793,811 L311.131793,822 L322.263586,822 Z M366,844 L366,855 L355,855 L355,844 L366,844 Z M345,845 L345,834 L356,834 L356,845 L345,845 Z M334,844 L345,844 L345,855 L334,855 L334,844 Z M334,845 L323,845 L323,834 L334,834 L334,845 Z M334,866 L323,866 L323,855 L334,855 L334,866 Z M345,866 L345,877 L334,877 L334,866 L345,866 Z M356,866 L345,866 L345,855 L356,855 L356,866 Z M355,866 L366,866 L366,877 L355,877 L355,866 Z M322,855 L322,844 L311,844 L311,855 L322,855 Z M400,889 L389,889 L389,900 L400,900 L400,889 Z M389,866 L400,866 L400,877 L389,877 L389,866 Z M400,844 L389,844 L389,855 L400,855 L400,844 Z M389,823 L400,823 L400,834 L389,834 L389,823 Z M389,800 L400,800 L400,811 L389,811 L389,800 Z" id="Shape" fill="#261EE4"></path>
            </g>
        </g>
        <g id="Group-19" transform="translate(504.000000, 200.000000)">
            <path d="M37.5245809,124.744711 C42.2755168,124.744711 68.9405091,121.230775 82.0304792,116.838356 C77.6671559,162.519517 44.5058983,329.431454 58.4685331,367.206261 C67.4296992,392.418581 86.9027047,401.833547 107.337755,399.710164 C137.775094,396.547455 188.936139,394.746706 233.001468,389.168358 C254.197654,386.485076 275.762037,386.485076 288.852007,378.626551 C310.803715,365.447908 302.5644,328.171987 288.852007,303.076938 C283.852434,293.927221 280.214075,296.049067 267.908055,296.049067 C267.908055,271.451518 275.960503,235.180379 280.214075,199.083644 C285.997037,150.008172 288.852007,89.6589987 288.852007,71.1571941 C288.852007,39.0466614 274.709056,0 257.436078,0 C200.712875,0 64.9185435,8.78483877 43.6332336,8.78483877 C15.9205687,8.78483877 0,35.4711002 0,66.7647747 C0,98.0584492 9.81191598,124.744711 37.5245809,124.744711 Z" id="Oval" fill="#4038FF"></path>
            <path d="M69.6,20.47651 L251.958974,14.4 C265.852991,25.0097794 272.8,54.8136142 272.8,103.811504 C272.8,152.809395 265.852991,216.468071 251.958974,294.787533 C157.649785,299.543772 106.126138,302.618906 97.3880342,304.012935 C88.6499304,305.406964 80.8082313,311.802653 73.8629371,323.2 C82.3888112,258.607936 90.2305102,204.286683 97.3880342,160.23624 C101.552195,134.608228 102.666162,87.8222449 97.3880342,61.2759344 C93.869282,43.578394 84.6066039,29.9785859 69.6,20.47651 Z" id="Rectangle" fill="#D2DAFF"></path>
            <path d="M121.250318,90.1459214 C174.950499,88.1863187 210.750112,88.1722145 228.649158,90.1036086 C255.497726,93.0006999 256.911857,94.3262846 224.406686,97.8590641 C191.901515,101.391844 173.180725,99.9771128 145.270699,97.8902419 C126.664015,96.4989947 118.657221,93.9175545 121.250318,90.1459214 Z" id="Rectangle" fill="#000000" transform="translate(184.786386, 94.339294) rotate(-6.000000) translate(-184.786386, -94.339294) "></path>
            <path d="M108.083055,60.5170492 C92.430181,40.3669412 79.6024959,27.0608297 69.6,20.5987148 L251.924219,14.4 C260.404833,21.0074827 266.29676,34.9125422 269.6,56.1151784 C172.357286,72.4831643 118.518305,73.9504546 108.083055,60.5170492 Z" id="Path" fill="#FFFFFF"></path>
            <path d="M63.8592254,39.2 C67.5397564,42.6529388 81.6,51.6931225 81.6,73.4618145 C81.6,84.4067238 79.0422486,99.2394271 76.8727273,109.041391 C51.2723759,113.923008 31.7695213,118.255983 29.6,114.69244 C38.0719771,112.551868 44.3750074,107.593407 48.5090909,99.8170565 C51.7787487,93.6667202 56.399354,80.8062762 55.6,66.873004 C54.571559,48.9465923 44.0944282,43.8878324 41.9853562,41.7865188 L63.8592254,39.2 Z" id="Path" fill="#FFFFFF"></path>
            <path d="M76.9908595,109.125771 C51.3265341,113.948194 31.7749428,118.228627 29.6,114.708296 C38.0931482,112.59368 44.4119294,107.695345 48.5563438,100.013291 C50.3650063,96.6607683 54.1474436,87.9073692 63.5417068,81.7883304 C69.8045489,77.7089712 75.82398,76.6095294 81.6,78.490005 C81.0525848,88.6117282 78.8755899,100.734726 76.9908595,109.125771 Z" id="Path" fill="#D2DAFF"></path>
            <path d="M35.3928503,50.4 C40.0642834,55.3739128 42.4,61.9653994 42.4,70.1744598 C42.4,72.1210605 42.3325438,74.0127301 42.2018663,75.8430582 L22.6727015,78.4 C22.4708269,77.5487652 22.1761311,72.8377128 22.6727015,69.0666667 C23.0909907,65.8901023 24.6302706,59.4052876 28.2823529,55.2431468 C31.2432261,51.868751 34.9961803,50.4079706 35.3928503,50.4 Z" id="Path" fill="#D2DAFF"></path>
            <path d="M270.283812,295.205524 C273.421553,294.985786 278.74988,301.333468 283.122953,312.161074 C290.090252,329.411909 281.175119,338.210883 271.05482,343.885579 C245.30563,348.744729 163.099958,362.456379 160.917823,358.909236 C128.22741,370.074431 113.961264,371.786748 118.119382,364.046187 C121.40805,357.924157 120.0978,354.630743 119.293798,340.761597 C118.259378,322.917688 107.721334,317.88221 105.6,315.790567 L270.283812,295.205524 Z" id="Path-Copy-6" fill="#FFFFFF"></path>
            <path d="M287.686121,344.983345 C283.833771,362.282723 193.350597,366.299561 169.327869,370.304657 C145.305142,374.309753 107.36112,381.976505 111.514398,374.354892 C113.326929,371.028747 117.117456,362.344219 126.531811,356.273324 C132.594465,352.36379 187.092078,331.511788 230.351732,324.237715 C259.191502,319.388333 274.72163,312.642428 276.942116,304 C291.605029,319.946496 287.321847,339.764289 287.686121,344.983345 Z" id="Path-Copy-5" fill="#D2DAFF"></path>
            <path d="M95.4745662,326.4 C99.0248554,330.947577 100.8,336.974079 100.8,344.479506 C100.8,346.259255 100.748733,347.988782 100.649418,349.662225 L85.8072531,352 C85.6538285,351.221728 85.4298596,346.91448 85.8072531,343.466667 C86.1251529,340.562379 87.2950056,334.633406 90.0705882,330.82802 C92.3208519,327.742858 95.173097,326.407287 95.4745662,326.4 Z" id="Path-Copy-2" fill="#D2DAFF"></path>
            <path d="M121.250318,90.1459214 C174.950499,88.1863187 210.750112,88.1722145 228.649158,90.1036086 C255.497726,93.0006999 256.911857,94.3262846 224.406686,97.8590641 C191.901515,101.391844 173.180725,99.9771128 145.270699,97.8902419 C126.664015,96.4989947 118.657221,93.9175545 121.250318,90.1459214 Z" id="Rectangle-Copy" fill="#4038FF" transform="translate(184.786386, 94.339294) rotate(-6.000000) translate(-184.786386, -94.339294) "></path>
            <path d="M120.806819,156.759864 C165.855622,154.80367 195.887649,154.791838 210.902902,156.724369 C233.425781,159.623164 234.612001,160.948839 207.343434,164.479555 C180.074867,168.010271 164.370226,166.594352 140.956847,164.50571 C125.347927,163.113282 118.631252,160.531333 120.806819,156.759864 Z" id="Rectangle-Copy-4" fill="#4038FF" transform="translate(174.106596, 160.957480) rotate(-6.000000) translate(-174.106596, -160.957480) "></path>
            <path d="M116.604311,193.082372 C172.321558,191.125567 209.465965,191.113345 228.037533,193.045704 C255.894885,195.944243 257.362243,197.269919 223.636311,200.801034 C189.91038,204.33215 170.48624,202.916417 141.527622,200.828053 C122.221876,199.43581 113.914106,196.853916 116.604311,193.082372 Z" id="Rectangle-Copy-5" fill="#4038FF" transform="translate(182.527273, 197.279311) rotate(-185.000000) translate(-182.527273, -197.279311) "></path>
            <path d="M120.769172,125.561973 C149.221327,123.612317 168.188924,123.604844 177.671961,125.539554 C191.896517,128.441619 192.645516,129.767466 175.422755,133.294225 C158.199993,136.820983 148.281478,135.402784 133.494384,133.310743 C123.636321,131.916049 119.394584,129.333126 120.769172,125.561973 Z" id="Rectangle-Copy-2" fill="#4038FF" transform="translate(154.431835, 129.767726) rotate(-6.000000) translate(-154.431835, -129.767726) "></path>
            <path d="M72.9780188,262.971659 C77.7953131,262.348314 81.28145,262.200141 83.4364295,262.527141 C87.8019,263.189564 92.6198811,262.328678 90.1859412,263.69991 C88.955422,264.393159 83.3783257,266.741866 80.0225968,267.939733 C79.0739584,268.278361 78.1724973,268.582277 77.3117319,268.854669 C82.7894451,268.867592 88.5870131,269.16098 95.4174989,269.871073 C112.956771,271.694444 111.92474,272.461821 96.3802775,274.28417 C93.2667587,274.649182 89.2813535,274.923554 84.4240618,275.107284 C86.1410172,275.675681 87.9249482,276.373557 89.8110395,277.226287 C93.5593479,278.920955 99.3793242,282.239102 100.463123,283.216563 C102.606853,285.149961 96.2422546,283.92086 88.8246986,284.829126 C85.0897023,285.286469 79.8076277,285.044355 72.9784748,284.102782 Z" id="Combined-Shape" fill="#4038FF" transform="translate(90.641685, 273.705885) scale(1, -1) rotate(5.000000) translate(-90.641685, -273.705885) "></path>
            <path d="M228.911203,12.8999917 C234.189442,12.2210632 238.017505,12.063198 240.395392,12.4263958 C245.274447,13.1716216 250.65925,12.2031248 247.938964,13.7457611 C246.563678,14.5256668 240.330453,17.167962 236.579932,18.5155625 C235.519689,18.8965187 234.512174,19.2384237 233.550142,19.5448646 C239.672292,19.5594039 246.151927,19.8894653 253.785999,20.6883198 C273.388715,22.7396124 272.235269,23.602911 254.862046,25.6530537 C251.382231,26.0636924 246.927954,26.3723603 241.499216,26.5790573 C243.418167,27.2185033 245.411972,28.0036139 247.519956,28.9629358 C251.709242,30.8694364 258.213921,34.6023519 259.425226,35.7019964 C261.82116,37.8770688 254.707785,36.4943298 246.417575,37.5161288 C242.280287,38.0260649 236.444525,37.7630431 228.910288,36.7270635 Z" id="Combined-Shape-Copy" fill="#4038FF" transform="translate(248.550034, 25.002483) scale(-1, -1) rotate(-7.000000) translate(-248.550034, -25.002483) "></path>
        </g>
    </g>
</svg>