<?xml version="1.0" encoding="UTF-8"?>
<svg width="1310px" height="800px" viewBox="0 0 1310 800" version="1.1" xmlns="http://www.w3.org/2000/svg" xmlns:xlink="http://www.w3.org/1999/xlink">
    <!-- Generator: Sketch 58 (84663) - https://sketch.com -->
    <title>Blog-template-06</title>
    <desc>Created with Sketch.</desc>
    <g id="Blog-template-06" stroke="none" stroke-width="1" fill="none" fill-rule="evenodd">
        <rect fill="#4038FF" x="0" y="0" width="1310" height="800"></rect>
        <g id="Group-29" transform="translate(120.000000, 180.000000)" fill="#FFFFFF" fill-rule="nonzero">
            <path d="M49.0272593,43.0222222 L49.0272593,39.2296296 L54.9925926,39.2296296 L54.9925926,15.0518519 L59.1801481,15.0518519 L59.1801481,39.5457778 C59.1801481,41.4420741 57.6394074,43.0222222 55.7037037,43.0222222 L49.0272593,43.0222222 Z M64.632,32.7902222 C62.6171852,30.7754074 61.5902222,28.2468148 61.5902222,25.2444444 C61.5902222,22.2420741 62.6171852,19.7134815 64.632,17.6986667 C66.6468148,15.6838519 69.1754074,14.6568889 72.1777778,14.6568889 C75.1801481,14.6568889 77.669037,15.6838519 79.7235556,17.6986667 C81.7383704,19.7134815 82.7653333,22.2420741 82.7653333,25.2444444 C82.7653333,28.2468148 81.7383704,30.7754074 79.7235556,32.7902222 C77.7087407,34.805037 75.1801481,35.832 72.1777778,35.832 C69.1357037,35.832 66.6468148,34.805037 64.632,32.7902222 Z M67.6740741,20.2666667 C66.5282963,21.4912593 65.9754074,23.1505185 65.9754074,25.205037 C65.9754074,27.2592593 66.5282963,28.9185185 67.6740741,30.1431111 C68.8198519,31.368 70.3208889,32 72.1383704,32 C73.9555556,32 75.4568889,31.368 76.6023704,30.1431111 C77.7481481,28.9185185 78.3013333,27.2592593 78.3013333,25.205037 C78.3013333,23.1505185 77.7481481,21.4912593 76.6023704,20.2666667 C75.4568889,19.0420741 73.9555556,18.4097778 72.1383704,18.4097778 C70.3208889,18.4494815 68.8198519,19.0420741 67.6740741,20.2666667 Z M83.0814815,15.0518519 L87.4666667,15.0518519 L91.8518519,31.4468148 L94.0245926,31.4468148 L98.805037,15.0518519 L103.190222,15.0518519 L94.8148148,43.0222222 L90.4296296,43.0222222 L92.8,35.437037 L91.2592593,35.437037 C89.7185185,35.437037 88.3357037,34.4097778 87.9407407,32.9087407 L83.0814815,15.0518519 Z M102.794963,29.037037 L107.377778,29.037037 C107.417185,29.1161481 107.456889,29.2346667 107.535704,29.3531852 C107.614815,29.4717037 107.772741,29.7087407 108.009778,30.0642963 C108.246815,30.4198519 108.562963,30.7357037 108.879111,30.9727407 C109.194963,31.2494815 109.708741,31.4865185 110.301333,31.6838519 C110.933333,31.8814815 111.605037,32 112.355556,32 C113.817185,32 114.883852,31.762963 115.555556,31.3282963 C116.227259,30.8939259 116.543111,30.3013333 116.543111,29.6296296 C116.543111,28.9976296 116.108741,28.4838519 115.239407,28.1282963 C114.37037,27.7727407 113.303704,27.4568889 112.039407,27.2198519 C110.775407,26.9828148 109.550519,26.6666667 108.286519,26.2717037 C107.022222,25.8764444 105.994963,25.2444444 105.086519,24.2962963 C104.217185,23.3481481 103.782815,22.162963 103.782815,20.6616296 C103.782815,19.0814815 104.493926,17.6592593 105.955556,16.4740741 C107.417185,15.2888889 109.353185,14.6962963 111.723556,14.6962963 C113.224593,14.6962963 114.528296,14.9333333 115.713481,15.368 C116.898667,15.8023704 117.768,16.3555556 118.360593,16.9481481 C118.953185,17.5801481 119.427259,18.2124444 119.822222,18.8444444 C120.217185,19.4764444 120.454222,19.9902222 120.572741,20.4642963 L120.730963,21.0962963 L116.345778,21.0962963 C116.306074,21.0171852 116.266667,20.9383704 116.227259,20.8198519 C116.187556,20.7013333 116.02963,20.5037037 115.792593,20.1875556 C115.555556,19.8717037 115.318519,19.6346667 115.00237,19.3976296 C114.686519,19.1605926 114.251852,18.962963 113.698667,18.7653333 C113.145778,18.568 112.474074,18.4888889 111.762963,18.4888889 C110.577778,18.4888889 109.708741,18.6865185 109.076444,19.1208889 C108.483852,19.5555556 108.168,20.069037 108.168,20.7013333 C108.168,21.2148148 108.483852,21.6888889 109.116148,22.0444444 C109.748148,22.4 110.53837,22.6764444 111.486519,22.8346667 C112.434667,22.9925926 113.46163,23.2296296 114.568,23.5457778 C115.674074,23.8616296 116.66163,24.2171852 117.649481,24.6124444 C118.59763,25.0074074 119.387556,25.6394074 120.019852,26.5087407 C120.651852,27.3777778 120.968,28.4444444 120.968,29.669037 C120.968,31.368 120.217185,32.8296296 118.676444,34.0542222 C117.135704,35.2791111 115.042074,35.8717037 112.394963,35.8717037 C110.814815,35.8717037 109.432,35.6346667 108.207407,35.1605926 C106.982815,34.6865185 106.034667,34.1333333 105.40237,33.4616296 C104.77037,32.7902222 104.256889,32.1185185 103.822222,31.4468148 C103.427259,30.7754074 103.150519,30.2222222 103.032,29.7875556 L102.794963,29.037037 Z M121.718519,18.8444444 L121.718519,15.0518519 L124.088889,15.0518519 L124.088889,10.6666667 L128.276444,10.6666667 L128.276444,15.0518519 L134.479111,15.0518519 L134.479111,18.8444444 L128.316148,18.8444444 L128.316148,31.6444444 L134.676444,31.6444444 L134.676444,35.437037 L127.565333,35.437037 C125.669037,35.437037 124.088889,33.8962963 124.088889,31.9605926 L124.088889,18.8444444 L121.718519,18.8444444 Z M141.234667,18.8444444 L141.234667,35.437037 L137.046815,35.437037 L137.046815,18.0939259 C137.046815,16.4346667 138.390222,15.0518519 140.088889,15.0518519 L141.234667,15.0518519 L149.412444,15.0518519 L149.412444,18.8444444 L141.234667,18.8444444 Z M152.256889,32.7902222 C150.281481,30.7357037 149.254222,28.2074074 149.254222,25.2444444 C149.254222,22.2814815 150.281481,19.7531852 152.256889,17.6986667 C154.271704,15.6444444 156.720889,14.6568889 159.605037,14.6568889 C162.488889,14.6568889 164.93837,15.6838519 166.953185,17.6986667 C168.968,19.7531852 169.955556,22.2420741 169.955556,25.2444444 L169.955556,26.6272593 L153.442074,26.6272593 C153.718519,28.2865185 154.469037,29.5902222 155.575407,30.5777778 C156.720889,31.5653333 158.064296,32.0394074 159.605037,32.0394074 C160.869037,32.0394074 161.935704,31.8023704 162.923556,31.3282963 C163.871704,30.8542222 164.543111,30.3801481 164.859259,29.9060741 L165.372741,29.2346667 L169.757926,29.2346667 C169.718519,29.432 169.6,29.669037 169.481481,29.9457778 C169.362963,30.2222222 169.007407,30.7754074 168.454222,31.5259259 C167.901333,32.2764444 167.308741,32.9481481 166.59763,33.5407407 C165.925926,34.0939259 164.93837,34.6468148 163.674074,35.1208889 C162.409778,35.594963 161.066667,35.832 159.565333,35.832 C156.720889,35.832 154.271704,34.805037 152.256889,32.7902222 Z M154.192593,23.2296296 L166.123556,23.2296296 C165.925926,21.9259259 165.293926,20.7801481 164.227259,19.8717037 C163.160593,18.9235556 161.817185,18.4494815 160.157926,18.4494815 C158.735704,18.4494815 157.432,18.8838519 156.325926,19.7531852 C155.219852,20.6222222 154.508741,21.768 154.192593,23.2296296 Z M173.866667,32.9087407 C172.049481,30.9333333 171.140741,28.3653333 171.140741,25.2444444 C171.140741,22.1235556 172.049481,19.5555556 173.866667,17.5801481 C175.683852,15.605037 177.975407,14.6568889 180.701333,14.6568889 C181.965333,14.6568889 183.111111,14.8939259 184.177778,15.4074074 C185.244444,15.9208889 185.994963,16.394963 186.42963,16.869037 L187.06163,17.6198519 L187.259259,17.6198519 L187.259259,15.0124444 L191.446815,15.0124444 L191.446815,35.3976296 L187.259259,35.3976296 L187.259259,32.5925926 L187.06163,32.5925926 C187.022222,32.6717037 186.903704,32.7902222 186.785185,32.9481481 C186.666667,33.1060741 186.390222,33.3431111 185.994963,33.7383704 C185.6,34.0939259 185.165333,34.4494815 184.730963,34.7259259 C184.296296,35.0023704 183.664296,35.2394074 182.953185,35.4764444 C182.20237,35.7134815 181.451852,35.832 180.701333,35.832 C178.014815,35.832 175.723556,34.8444444 173.866667,32.9087407 Z M195.081481,35.437037 L195.081481,15.0518519 L199.269037,15.0518519 L199.269037,17.8568889 L199.466667,17.8568889 C199.506074,17.7777778 199.585185,17.6592593 199.664296,17.5013333 C199.743111,17.3431111 199.940741,17.1060741 200.296296,16.7111111 C200.651852,16.3555556 201.007407,16 201.442074,15.7235556 C201.837037,15.4468148 202.42963,15.2097778 203.140741,14.9727407 C203.851852,14.7357037 204.642074,14.6171852 205.432,14.6171852 C206.380148,14.6171852 207.288889,14.7357037 208.079111,15.0124444 C208.908741,15.2888889 209.540741,15.605037 209.975407,15.9605926 C210.449481,16.3161481 210.844444,16.7111111 211.160593,17.0666667 C211.476444,17.4222222 211.674074,17.7383704 211.792593,18.0148148 L211.990222,18.4097778 L212.187556,18.4097778 C212.227259,18.2912593 212.306074,18.1727407 212.424593,17.9754074 C212.503704,17.8171852 212.780148,17.5013333 213.175407,17.0666667 C213.57037,16.632 214.005037,16.2764444 214.479111,15.9208889 C214.953185,15.605037 215.624593,15.2888889 216.454222,15.0124444 C217.323556,14.7357037 218.192593,14.5777778 219.180148,14.5777778 C221.511111,14.5777778 223.368,15.3282963 224.711111,16.8296296 C226.054222,18.330963 226.725926,20.4245926 226.725926,23.1902222 L226.725926,35.3579259 L222.53837,35.3579259 L222.53837,23.4272593 C222.53837,20.1087407 221.076444,18.4494815 218.153185,18.4494815 C216.730963,18.4494815 215.506074,19.0023704 214.479111,20.069037 C213.451852,21.1754074 212.977778,22.5579259 212.977778,24.2171852 L212.977778,35.3976296 L208.790222,35.3976296 L208.790222,23.4272593 C208.790222,20.1087407 207.328296,18.4494815 204.405037,18.4494815 C202.982815,18.4494815 201.757926,19.0023704 200.730963,20.069037 C199.703704,21.1754074 199.22963,22.5579259 199.22963,24.2171852 L199.22963,35.3976296 L195.081481,35.3976296 L195.081481,35.437037 Z M55.032,7.26903704 L55.032,11.4568889 L59.2198519,11.4568889 L59.2198519,7.26903704 L55.032,7.26903704 Z M176.671704,20.2666667 C175.525926,21.4912593 174.972741,23.1505185 174.972741,25.205037 C174.972741,27.2592593 175.525926,28.9185185 176.671704,30.1431111 C177.817185,31.368 179.318519,32 181.135704,32 C182.953185,32 184.454222,31.368 185.6,30.1431111 C186.745778,28.9185185 187.298667,27.2592593 187.298667,25.205037 C187.298667,23.1505185 186.745778,21.4912593 185.6,20.2666667 C184.454222,19.0420741 182.953185,18.4097778 181.135704,18.4097778 C179.318519,18.4494815 177.817185,19.0420741 176.671704,20.2666667 Z" id="Shape"></path>
            <g id="Group">
                <path d="M33.2642963,2.7000624e-13 L37.5703704,2.7000624e-13 L37.5703704,12.3653333 C37.5703704,17.3037037 35.7134815,21.8468148 32.6717037,25.2838519 C33.0666667,23.6245926 33.2642963,21.9259259 33.2642963,20.1481481 L33.2642963,2.7000624e-13 Z" id="Path"></path>
                <path d="M11.6148148,35.2788148 C11.4962963,35.3973333 11.4171852,35.5158519 11.2986667,35.6343704 C11.2592593,35.6740741 11.2198519,35.7134815 11.1801481,35.7528889 C11.0616296,35.8714074 10.9828148,35.9899259 10.8642963,36.069037 C10.8245926,36.1084444 10.7457778,36.1875556 10.7060741,36.226963 C10.5875556,36.3454815 10.469037,36.464 10.3111111,36.5825185 C10.1531852,36.7407407 9.99496296,36.8592593 9.83703704,37.0171852 C9.67911111,37.1751111 9.52088889,37.2936296 9.32355556,37.4121481 C9.16533333,37.5306667 9.00740741,37.6491852 8.84948148,37.7677037 C8.45422222,38.0047407 8.05925926,38.2417778 7.6642963,38.4394074 C7.58518519,38.4788148 7.50607407,38.5185185 7.38755556,38.5579259 C7.26903704,38.5973333 7.19022222,38.637037 7.11111111,38.6764444 C6.99259259,38.7158519 6.91348148,38.7555556 6.79496296,38.794963 C6.59762963,38.8740741 6.4,38.9528889 6.16296296,39.032 C6.16296296,39.032 6.16296296,39.032 6.12355556,39.032 C5.92592593,39.1111111 5.7282963,39.1505185 5.53096296,39.1899259 L5.49125926,39.1899259 C5.29392593,39.2296296 5.0962963,39.3084444 4.89866667,39.3481481 C4.66162963,39.3875556 4.38518519,39.4666667 4.14814815,39.4666667 C4.06903704,39.4666667 3.99022222,39.5060741 3.91111111,39.5060741 L3.8717037,39.5060741 C3.63466667,39.5454815 3.43703704,39.5454815 3.2,39.5454815 C3.08148148,39.5454815 2.96296296,39.5454815 2.84444444,39.5454815 C2.72592593,39.5454815 2.60740741,39.5454815 2.48888889,39.5454815 L2.33096296,39.5454815 L3.63466667,35.2394074 L11.6148148,35.2394074 L11.6148148,35.2788148 Z" id="Path"></path>
                <path d="M29.7875556,-7.10542736e-15 L29.7875556,20.1481481 C29.7875556,20.4642963 29.7875556,20.8198519 29.7481481,21.1357037 C29.7481481,21.2939259 29.7481481,21.4518519 29.7087407,21.6097778 C29.7087407,21.768 29.669037,21.9259259 29.669037,22.0838519 C29.669037,22.2420741 29.6296296,22.4 29.6296296,22.5579259 C29.6296296,22.6764444 29.5902222,22.8346667 29.5902222,22.9531852 L29.5902222,22.9925926 C29.5902222,23.032 29.5902222,23.0717037 29.5902222,23.0717037 C29.5505185,23.2296296 29.5505185,23.3875556 29.5111111,23.5060741 C29.4717037,23.6642963 29.4717037,23.8222222 29.432,23.9407407 L29.432,23.9801481 C29.3925926,24.0986667 29.3925926,24.2171852 29.3531852,24.3357037 C29.3531852,24.3754074 29.3531852,24.3754074 29.3531852,24.4148148 C29.2346667,24.8888889 29.1161481,25.4023704 28.9579259,25.8764444 C28.9185185,25.994963 28.8791111,26.1531852 28.8394074,26.2717037 C28.8,26.4296296 28.7605926,26.5481481 28.6814815,26.7060741 C28.6420741,26.8642963 28.562963,26.9828148 28.5235556,27.1013333 C28.4838519,27.2592593 28.405037,27.3777778 28.3653333,27.4962963 C28.3259259,27.6542222 28.2468148,27.7727407 28.2074074,27.8912593 C28.168,28.0097778 28.0888889,28.168 28.0097778,28.2865185 C27.9703704,28.405037 27.8912593,28.562963 27.8124444,28.6814815 C27.7333333,28.8 27.6939259,28.9579259 27.6148148,29.0764444 C27.5754074,29.194963 27.4962963,29.2740741 27.4568889,29.3925926 C27.3383704,29.6296296 27.2198519,29.8272593 27.0616296,30.0642963 C26.9431111,30.2616296 26.8245926,30.4592593 26.7060741,30.6171852 C26.6272593,30.7754074 26.5481481,30.8939259 26.4296296,31.0124444 C26.3902222,31.0912593 26.3111111,31.1703704 26.2717037,31.2097778 C26.1531852,31.368 26.0740741,31.4865185 25.9555556,31.605037 C25.837037,31.762963 25.7185185,31.8814815 25.6394074,32.0394074 C25.4023704,32.3161481 25.1653333,32.5925926 24.9282963,32.869037 C24.968,32.7111111 25.0074074,32.5531852 25.0468148,32.394963 C25.0865185,32.2764444 25.0865185,32.1579259 25.1259259,32.0394074 C25.1259259,32.0394074 25.1259259,32.0394074 25.1259259,32 C25.1259259,31.9605926 25.1259259,31.9605926 25.1259259,31.9208889 C25.1653333,31.762963 25.1653333,31.605037 25.205037,31.4468148 C25.2444444,31.2494815 25.2838519,31.0518519 25.2838519,30.8939259 C25.2838519,30.7754074 25.3235556,30.6568889 25.3235556,30.5777778 C25.3235556,30.4592593 25.362963,30.3801481 25.362963,30.2616296 C25.4023704,30.0642963 25.4023704,29.8666667 25.4420741,29.6296296 C25.4420741,29.5902222 25.4420741,29.5902222 25.4420741,29.5505185 C25.4420741,29.5111111 25.4420741,29.5111111 25.4420741,29.4717037 C25.4420741,29.3134815 25.4814815,29.194963 25.4814815,29.037037 C25.4814815,28.9185185 25.4814815,28.8 25.4814815,28.6814815 L25.4814815,28.8394074 C25.4814815,28.7208889 25.4814815,28.6023704 25.4814815,28.4838519 C25.4814815,28.2865185 25.4814815,28.1282963 25.4814815,27.930963 L25.4814815,-7.10542736e-15 L29.7875556,-7.10542736e-15 Z" id="Path"></path>
                <path d="M22.005037,0 L22.005037,27.930963 C22.005037,28.6023704 21.9653333,29.2346667 21.9259259,29.8666667 C21.8865185,30.4198519 21.8074074,30.9333333 21.6888889,31.4865185 C21.4518519,32.7505185 21.0962963,33.9754074 20.6222222,35.1208889 C20.3457778,35.832 19.9902222,36.5431111 19.6346667,37.2148148 C18.5282963,39.1902222 17.1060741,40.968 15.4468148,42.469037 C12.0097778,45.5505185 7.46666667,47.4074074 2.5282963,47.4074074 L-9.23705556e-14,47.4074074 L1.3037037,43.1013333 L2.568,43.1013333 C6.28148148,43.1013333 9.67911111,41.7579259 12.2865185,39.5457778 C13.7087407,38.3605926 14.8939259,36.9383704 15.762963,35.3185185 C16,34.9235556 16.1976296,34.4888889 16.394963,34.0542222 C16.7111111,33.3431111 16.9481481,32.632 17.1457778,31.8814815 C17.3828148,31.0518519 17.5407407,30.1828148 17.5801481,29.3134815 C17.6198519,28.8791111 17.6198519,28.4444444 17.6198519,28.0097778 L17.6198519,0 L22.005037,0 Z" id="Path"></path>
                <path d="M14.2222222,27.4962963 L14.2222222,27.930963 C14.2222222,28.2865185 14.2222222,28.6420741 14.1828148,28.9582222 C14.1037037,29.6296296 14.0245926,30.3013333 13.8272593,30.9333333 C13.7481481,31.2494815 13.669037,31.5656296 13.5505185,31.8420741 L4.66162963,31.8420741 L5.96533333,27.536 L14.2222222,27.536 L14.2222222,27.4962963 Z" id="Path"></path>
            </g>
        </g>
        <text id="Rome-Network-Announc" font-family="PxGrotesk-Bold, Px Grotesk" font-size="120" font-weight="bold" line-spacing="106.666667" fill="#FFFFFF">
            <tspan x="120" y="515">Rome</tspan>
            <tspan x="442.734375" y="539.360677" font-family="PxGroteskRegular, Px Grotesk" font-size="96" font-weight="normal"></tspan>
            <tspan x="124.023437" y="646.027344" font-family="PxGroteskRegular, Px Grotesk" font-size="80" font-weight="normal">Network Announced</tspan>
        </text>
        <g id="Group" transform="translate(810.000000, 0.000000)">
            <g id="Group-2">
                <path d="M177.868875,233.145277 L166.765367,233.145277 L166.765367,244.268264 L177.868875,244.268264 L177.868875,255.418891 L166.765367,255.418891 L166.765367,266.569518 L177.868875,266.569518 L177.868875,277.692505 L189,277.692505 L189,288.843132 L177.868875,288.843132 L177.868875,277.720145 L166.765367,277.720145 L166.765367,288.843132 L177.868875,288.843132 L177.868875,300 L166.737751,300 L166.737751,288.849373 L155.634243,288.849373 L155.634243,277.726386 L144.503118,277.726386 L144.503118,288.849373 L133.371993,288.849373 L133.371993,277.726386 L122.268485,277.726386 L122.268485,288.849373 L133.371993,288.849373 L133.371993,300 L122.239978,300 L122.239978,288.849373 L111.13736,288.849373 L111.13736,300 L100,300 L100,288.849373 L111.131125,288.849373 L111.131125,277.726386 L100,277.726386 L100,266.574868 L111.131125,266.574868 L111.131125,255.424241 L100,255.424241 L100,244.273614 L111.131125,244.273614 L111.131125,233.150627 L111.131125,233.122987 L122.234633,233.122987 L122.234633,222 L133.365757,222 L133.365757,233.122987 L144.496882,233.122987 L144.496882,222 L155.628897,222 L155.628897,233.122987 L166.732406,233.122987 L166.732406,222 L177.86353,222 L177.86353,233.122987 L188.994655,233.122987 L188.994655,244.273614 L177.86353,244.273614 L177.86353,233.145277 L177.868875,233.145277 Z M111,233.972735 L111,223 L100,223 L100,234 L111,234 L111,233.972735 Z M145,289 L145,300 L156,300 L156,289 L145,289 Z M178,266 L178,255 L189,255 L189,266 L178,266 Z M122,277 L111,277 L111,266 L122,266 L122,277 Z M122.263586,222 L122.263586,211 L133.367761,211 L133.367761,222 L144.499555,222 L144.499555,211 L155.632239,211 L155.632239,222 L166.764032,222 L166.764032,211 L177.868207,211 L177.868207,222 L189,222 L189,211 L177.868207,211 L177.868207,200 L166.736414,200 L166.736414,211 L155.632239,211 L155.632239,200 L144.499555,200 L144.499555,211 L133.367761,211 L133.367761,200 L122.235968,200 L122.235968,211 L111.131793,211 L111.131793,200 L100,200 L100,211 L111.131793,211 L111.131793,222 L122.263586,222 Z M166,244 L166,255 L155,255 L155,244 L166,244 Z M145,245 L145,234 L156,234 L156,245 L145,245 Z M134,244 L145,244 L145,255 L134,255 L134,244 Z M134,245 L123,245 L123,234 L134,234 L134,245 Z M134,266 L123,266 L123,255 L134,255 L134,266 Z M145,266 L145,277 L134,277 L134,266 L145,266 Z M156,266 L145,266 L145,255 L156,255 L156,266 Z M155,266 L166,266 L166,277 L155,277 L155,266 Z M122,255 L122,244 L111,244 L111,255 L122,255 Z M200,289 L189,289 L189,300 L200,300 L200,289 Z M189,266 L200,266 L200,277 L189,277 L189,266 Z M200,244 L189,244 L189,255 L200,255 L200,244 Z M189,223 L200,223 L200,234 L189,234 L189,223 Z M189,200 L200,200 L200,211 L189,211 L189,200 Z" id="Shape" fill="#261EE4"></path>
                <path d="M477.868875,33.1452773 L466.765367,33.1452773 L466.765367,44.268264 L477.868875,44.268264 L477.868875,55.418891 L466.765367,55.418891 L466.765367,66.569518 L477.868875,66.569518 L477.868875,77.6925047 L489,77.6925047 L489,88.8431317 L477.868875,88.8431317 L477.868875,77.7201449 L466.765367,77.7201449 L466.765367,88.8431317 L477.868875,88.8431317 L477.868875,100 L466.737751,100 L466.737751,88.849373 L455.634243,88.849373 L455.634243,77.7263863 L444.503118,77.7263863 L444.503118,88.849373 L433.371993,88.849373 L433.371993,77.7263863 L422.268485,77.7263863 L422.268485,88.849373 L433.371993,88.849373 L433.371993,100 L422.239978,100 L422.239978,88.849373 L411.13736,88.849373 L411.13736,100 L400,100 L400,88.849373 L411.131125,88.849373 L411.131125,77.7263863 L400,77.7263863 L400,66.5748677 L411.131125,66.5748677 L411.131125,55.4242407 L400,55.4242407 L400,44.2736137 L411.131125,44.2736137 L411.131125,33.150627 L411.131125,33.1229867 L422.234633,33.1229867 L422.234633,22 L433.365757,22 L433.365757,33.1229867 L444.496882,33.1229867 L444.496882,22 L455.628897,22 L455.628897,33.1229867 L466.732406,33.1229867 L466.732406,22 L477.86353,22 L477.86353,33.1229867 L488.994655,33.1229867 L488.994655,44.2736137 L477.86353,44.2736137 L477.86353,33.1452773 L477.868875,33.1452773 Z M411,33.9727353 L411,23 L400,23 L400,34 L411,34 L411,33.9727353 Z M445,89 L445,100 L456,100 L456,89 L445,89 Z M478,66 L478,55 L489,55 L489,66 L478,66 Z M422,77 L411,77 L411,66 L422,66 L422,77 Z M422.263586,22 L422.263586,11 L433.367761,11 L433.367761,22 L444.499555,22 L444.499555,11 L455.632239,11 L455.632239,22 L466.764032,22 L466.764032,11 L477.868207,11 L477.868207,22 L489,22 L489,11 L477.868207,11 L477.868207,0 L466.736414,0 L466.736414,11 L455.632239,11 L455.632239,0 L444.499555,0 L444.499555,11 L433.367761,11 L433.367761,0 L422.235968,0 L422.235968,11 L411.131793,11 L411.131793,0 L400,0 L400,11 L411.131793,11 L411.131793,22 L422.263586,22 Z M466,44 L466,55 L455,55 L455,44 L466,44 Z M445,45 L445,34 L456,34 L456,45 L445,45 Z M434,44 L445,44 L445,55 L434,55 L434,44 Z M434,45 L423,45 L423,34 L434,34 L434,45 Z M434,66 L423,66 L423,55 L434,55 L434,66 Z M445,66 L445,77 L434,77 L434,66 L445,66 Z M456,66 L445,66 L445,55 L456,55 L456,66 Z M455,66 L466,66 L466,77 L455,77 L455,66 Z M422,55 L422,44 L411,44 L411,55 L422,55 Z M500,89 L489,89 L489,100 L500,100 L500,89 Z M489,66 L500,66 L500,77 L489,77 L489,66 Z M500,44 L489,44 L489,55 L500,55 L500,44 Z M489,23 L500,23 L500,34 L489,34 L489,23 Z M489,0 L500,0 L500,11 L489,11 L489,0 Z" id="Shape-Copy-5" fill="#261EE4"></path>
                <path d="M489,400 L500,400 L500,300 L489,300 L489,400 Z M477,400 L466,400 L466,300 L477,300 L477,400 Z M456,400 L445,400 L445,300 L456,300 L456,400 Z M423,400 L434,400 L434,300 L423,300 L423,400 Z M411,400 L400,400 L400,300 L411,300 L411,400 Z" id="Shape" fill="#261EE4"></path>
                <path d="M389,300 L400,300 L400,200 L389,200 L389,300 Z M377,300 L366,300 L366,200 L377,200 L377,300 Z M356,300 L345,300 L345,200 L356,200 L356,300 Z M323,300 L334,300 L334,200 L323,200 L323,300 Z M311,300 L300,300 L300,200 L311,200 L311,300 Z" id="Shape-Copy-6" fill="#261EE4"></path>
                <path d="M300,111 L300,100 L200,100 L200,111 L300,111 Z M300,123 L300,134 L200,134 L200,123 L300,123 Z M300,144 L300,155 L200,155 L200,144 L300,144 Z M300,177 L300,166 L200,166 L200,177 L300,177 Z M300,189 L300,200 L200,200 L200,189 L300,189 Z" id="Shape" fill="#261EE4"></path>
                <path d="M400,389 L400,400 L300,400 L300,389 L400,389 Z M400,355 L400,344 L300,344 L300,355 L400,355 Z M400,323 L400,334 L300,334 L300,323 L400,323 Z M400,300 L400,311 L300,311 L300,300 L400,300 Z M400,377 L400,366 L300,366 L300,377 L400,377 Z" id="Shape" fill="#261EE4"></path>
                <path d="M488.88879,400 L500,400 C500,455.227556 455.227758,500 400,500 L400,488.888889 C449.094306,488.888889 488.88879,449.094222 488.88879,400 Z M466.857015,400 L478,400 C478,443.078286 443.078356,478 400,478 L400,466.857143 C436.92201,466.857143 466.857015,436.92208 466.857015,400 Z M455,400 L444,400 C444,424.29856 424.298823,444 400,444 L400,455 C430.376171,455 455,430.37672 455,400 Z M422.666667,400 L434,400 C434,418.77888 418.779086,434 400,434 L400,422.666667 C412.517575,422.666667 422.666667,412.51744 422.666667,400 Z M400,400 L411,400 C411,406.07728 406.077348,411 400,411 L400,400 Z" id="Shape" fill="#FFFFFF"></path>
                <path d="M111.11121,500 L100,500 C100,444.772444 144.772242,400 200,400 L200,411.111111 C150.905694,411.111111 111.11121,450.905778 111.11121,500 Z M133.142985,500 L122,500 C122,456.921714 156.921644,422 200,422 L200,433.142857 C163.07799,433.142857 133.142985,463.07792 133.142985,500 Z M145,500 L156.000176,500 C156.000176,475.70056 175.700788,456 200,456 L200,445 C169.623343,445 145,469.62328 145,500 Z M177.332728,500 L166,500 C166,481.220213 181.220413,466 200,466 L200,477.333333 C187.48209,477.333333 177.332728,487.48256 177.332728,500 Z M200,500 L189,500 C189,493.92272 193.922652,489 200,489 L200,500 Z" id="Shape" fill="#261EE4"></path>
                <path d="M11.11121,100 L0,100 C0,44.7724444 44.772242,0 100,0 L100,11.1111111 C50.905694,11.1111111 11.11121,50.9057778 11.11121,100 Z M33.1429846,100 L22,100 C22,56.9217143 56.9216444,22 100,22 L100,33.1428571 C63.0779895,33.1428571 33.1429846,63.07792 33.1429846,100 Z M45,100 L56.0001762,100 C56.0001762,75.70056 75.7007879,56 100,56 L100,45 C69.6233425,45 45,69.62328 45,100 Z M77.3327283,100 L66,100 C66,81.2202133 81.2204132,66 100,66 L100,77.3333333 C87.4820904,77.3333333 77.3327283,87.48256 77.3327283,100 Z M100,100 L89,100 C89,93.92272 93.9226519,89 100,89 L100,100 Z" id="Shape-Copy-3" fill="#FFFFFF"></path>
                <path d="M311.11121,100 L300,100 C300,44.7724444 344.772242,0 400,0 L400,11.1111111 C350.905694,11.1111111 311.11121,50.9057778 311.11121,100 Z M333.142985,100 L322,100 C322,56.9217143 356.921644,22 400,22 L400,33.1428571 C363.07799,33.1428571 333.142985,63.07792 333.142985,100 Z M345,100 L356.000176,100 C356.000176,75.70056 375.700788,56 400,56 L400,45 C369.623343,45 345,69.62328 345,100 Z M377.332728,100 L366,100 C366,81.2202133 381.220413,66 400,66 L400,77.3333333 C387.48209,77.3333333 377.332728,87.48256 377.332728,100 Z M400,100 L389,100 C389,93.92272 393.922652,89 400,89 L400,100 Z" id="Shape-Copy-7" fill="#FFFFFF" transform="translate(350.000000, 50.000000) rotate(-90.000000) translate(-350.000000, -50.000000) "></path>
                <path d="M111.11121,100 L100,100 C100,44.7724444 144.772242,0 200,0 L200,11.1111111 C150.905694,11.1111111 111.11121,50.9057778 111.11121,100 Z M133.142985,100 L122,100 C122,56.9217143 156.921644,22 200,22 L200,33.1428571 C163.07799,33.1428571 133.142985,63.07792 133.142985,100 Z M145,100 L156.000176,100 C156.000176,75.70056 175.700788,56 200,56 L200,45 C169.623343,45 145,69.62328 145,100 Z M177.332728,100 L166,100 C166,81.2202133 181.220413,66 200,66 L200,77.3333333 C187.48209,77.3333333 177.332728,87.48256 177.332728,100 Z M200,100 L189,100 C189,93.92272 193.922652,89 200,89 L200,100 Z" id="Shape-Copy-4" fill="#261EE4" transform="translate(150.000000, 50.000000) rotate(-180.000000) translate(-150.000000, -50.000000) "></path>
                <path d="M311.11121,700 L300,700 C300,644.772444 344.772242,600 400,600 L400,611.111111 C350.905694,611.111111 311.11121,650.905778 311.11121,700 Z M333.142985,700 L322,700 C322,656.921714 356.921644,622 400,622 L400,633.142857 C363.07799,633.142857 333.142985,663.07792 333.142985,700 Z M345,700 L356.000176,700 C356.000176,675.70056 375.700788,656 400,656 L400,645 C369.623343,645 345,669.62328 345,700 Z M377.332728,700 L366,700 C366,681.220213 381.220413,666 400,666 L400,677.333333 C387.48209,677.333333 377.332728,687.48256 377.332728,700 Z M400,700 L389,700 C389,693.92272 393.922652,689 400,689 L400,700 Z" id="Shape-Copy-2" fill="#FFFFFF" transform="translate(350.000000, 650.000000) scale(-1, 1) translate(-350.000000, -650.000000) "></path>
                <path d="M200,600 L300,600 L300,500 C244.772242,500 200,544.772444 200,600 Z" id="Path" fill="#261EE4" fill-rule="nonzero"></path>
                <path d="M400,700 L500,700 L500,600 C444.772242,600 400,644.772444 400,700 Z" id="Path" fill="#261EE4" fill-rule="nonzero"></path>
                <path d="M500,792.167111 L500,800 L492.16637,800 L400,707.833778 L400,700 L407.83274,700 L500,792.167111 Z M400,724 L400,739.631256 L460.369773,800 L476,800 L400,724 Z M400,770.721778 L400,755 L445,800 L429.27758,800 L400,770.721778 Z M400,800 L414,800 L400,786 L400,800 Z M424,700 L439.63093,700 L500,760.368744 L500,776 L424,700 Z M470.72242,700 L455,700 L500,745 L500,729.278222 L470.72242,700 Z M500,714 L486,700 L500,700 L500,714 Z" id="Shape" fill="#261EE4"></path>
                <path d="M500,192.167111 L500,200 L492.16637,200 L400,107.833778 L400,100 L407.83274,100 L500,192.167111 Z M400,124 L400,139.631256 L460.369773,200 L476,200 L400,124 Z M400,170.721778 L400,155 L445,200 L429.27758,200 L400,170.721778 Z M400,200 L414,200 L400,186 L400,200 Z M424,100 L439.63093,100 L500,160.368744 L500,176 L424,100 Z M470.72242,100 L455,100 L500,145 L500,129.278222 L470.72242,100 Z M500,114 L486,100 L500,100 L500,114 Z" id="Shape-Copy" fill="#261EE4" transform="translate(450.000000, 150.000000) rotate(-270.000000) translate(-450.000000, -150.000000) "></path>
            </g>
        </g>
    </g>
</svg>