<svg width="340" height="272" viewBox="0 0 340 272" fill="none" xmlns="http://www.w3.org/2000/svg">
<path d="M175 52C167.82 52 162 57.8203 162 65V132H154V65C154 53.402 163.402 44 175 44C196.539 44 214 61.4609 214 83C214 104.206 197.075 121.458 175.997 121.987L174.222 114H175C192.121 114 206 100.121 206 83C206 65.8792 192.121 52 175 52Z" fill="black"/>
<path d="M172.889 108H175C188.807 108 200 96.8071 200 83C200 69.1929 188.807 58 175 58C171.134 58 168 61.134 168 65V66H175C184.389 66 192 73.6112 192 83C192 92.3888 184.389 100 175 100H171.111L172.889 108Z" fill="black"/>
<path d="M169.778 94H175C181.075 94 186 89.0751 186 83C186 76.9249 181.075 72 175 72H168V80H175C176.657 80 178 81.3431 178 83C178 84.6569 176.657 86 175 86H168L169.778 94Z" fill="black"/>
<path d="M148.123 62.4105C148.041 63.2627 148 64.1265 148 65V132H140V79C140 72.2549 143.18 66.2526 148.123 62.4105Z" fill="black"/>
<path d="M126 93C126 86.2549 129.18 80.2526 134.123 76.4105C134.041 77.2627 134 78.1265 134 79V132H126V93Z" fill="black"/>
<path d="M87.2021 216L87.2022 175.997H95.2102V216H87.2021Z" fill="black"/>
<path d="M87.2022 161.6V169.617H95.2102V161.6H87.2022Z" fill="black"/>
<path fill-rule="evenodd" clip-rule="evenodd" d="M77.6682 210.146C81.1177 206.379 82.8454 201.49 82.8512 195.476C82.8571 189.463 81.1177 184.588 77.6329 180.851C75.9861 179.031 73.9666 177.586 71.7117 176.616C69.4568 175.646 67.0194 175.172 64.5652 175.228C62.2765 175.2 60.011 175.69 57.9389 176.662C56.3334 177.342 54.8614 178.301 53.5918 179.496L52.3862 180.974H51.999V176.002H44L44 228H51.999V209.627H52.3862C52.5382 209.85 52.7027 210.064 52.879 210.269C53.3454 210.796 53.842 211.295 54.3662 211.765C55.1075 212.465 55.9183 213.087 56.7861 213.622C59.1566 214.969 61.8301 215.693 64.5564 215.725C67.0125 215.783 69.4527 215.317 71.7139 214.356C73.9751 213.395 76.0051 211.963 77.6682 210.155V210.146ZM72.3002 186.017C74.4826 188.363 75.5738 191.519 75.5738 195.485C75.5738 199.451 74.4826 202.61 72.3002 204.963C70.0309 207.213 66.9645 208.475 63.7688 208.475C60.5731 208.475 57.5067 207.213 55.2374 204.963C53.0433 202.616 51.9492 199.457 51.955 195.485C51.9609 191.514 53.055 188.357 55.2374 186.017C57.5045 183.762 60.5717 182.497 63.7688 182.497C66.9659 182.497 70.0331 183.762 72.3002 186.017Z" fill="black"/>
<path fill-rule="evenodd" clip-rule="evenodd" d="M101.42 203.299C102.416 205.782 103.909 208.036 105.807 209.921C108.665 212.718 112.282 214.611 116.209 215.365C120.136 216.119 124.197 215.699 127.887 214.159C131.577 212.619 134.731 210.026 136.957 206.704C139.182 203.382 140.38 199.478 140.4 195.48C140.456 192.793 139.975 190.122 138.986 187.623C137.996 185.124 136.518 182.848 134.637 180.928C132.757 179.007 130.512 177.482 128.034 176.44C125.557 175.399 122.896 174.862 120.208 174.862C117.521 174.862 114.86 175.399 112.383 176.44C109.905 177.482 107.66 179.007 105.779 180.928C103.899 182.848 102.421 185.124 101.431 187.623C100.442 190.122 99.9608 192.793 100.017 195.48C99.9466 198.155 100.424 200.815 101.42 203.299ZM108.395 195.48C108.389 191.514 109.483 188.358 111.677 186.011C113.944 183.757 117.011 182.491 120.208 182.491C123.406 182.491 126.473 183.757 128.74 186.011C130.923 188.352 132.014 191.508 132.014 195.48C132.014 199.452 130.923 202.611 128.74 204.958C126.471 207.208 123.404 208.47 120.208 208.47C117.013 208.47 113.946 207.208 111.677 204.958C109.494 202.605 108.4 199.446 108.395 195.48Z" fill="black"/>
<path fill-rule="evenodd" clip-rule="evenodd" d="M189.725 209.918C187.85 208.033 186.375 205.78 185.392 203.296C184.409 200.813 183.937 198.152 184.007 195.478C183.951 192.79 184.426 190.119 185.403 187.62C186.38 185.122 187.84 182.845 189.697 180.925C191.554 179.005 193.771 177.479 196.218 176.438C198.665 175.396 201.292 174.86 203.946 174.86C206.6 174.86 209.228 175.396 211.674 176.438C214.121 177.479 216.338 179.005 218.195 180.925C220.052 182.845 221.512 185.122 222.489 187.62C223.466 190.119 223.941 192.79 223.886 195.478C223.881 196.365 223.819 197.247 223.702 198.12L192.459 198.12C192.848 200.873 193.868 203.151 195.521 204.955C197.762 207.205 200.79 208.468 203.946 208.468C207.102 208.468 210.13 207.205 212.371 204.955C212.932 204.345 213.419 203.68 213.834 202.96H222.437C221.919 204.266 221.266 205.521 220.485 206.702C218.288 210.023 215.173 212.616 211.529 214.157C207.885 215.697 203.874 216.116 199.997 215.363C196.119 214.609 192.546 212.715 189.725 209.918ZM195.521 186.009C194.275 187.358 193.388 188.975 192.861 190.86H215.021C214.495 188.973 213.611 187.356 212.371 186.009C210.132 183.754 207.103 182.489 203.946 182.489C200.789 182.489 197.76 183.754 195.521 186.009Z" fill="black"/>
<path fill-rule="evenodd" clip-rule="evenodd" d="M229.082 203.296C230.065 205.78 231.54 208.033 233.415 209.918C236.236 212.715 239.809 214.609 243.687 215.363C247.564 216.116 251.575 215.697 255.219 214.157C258.863 212.616 261.978 210.023 264.175 206.702C264.956 205.521 265.609 204.266 266.127 202.96H257.524C257.109 203.68 256.622 204.345 256.061 204.955C253.82 207.205 250.792 208.468 247.636 208.468C244.48 208.468 241.452 207.205 239.211 204.955C237.558 203.151 236.538 200.873 236.149 198.12L267.392 198.12C267.509 197.247 267.571 196.365 267.576 195.478C267.631 192.79 267.156 190.119 266.179 187.62C265.202 185.122 263.742 182.845 261.885 180.925C260.028 179.005 257.811 177.479 255.364 176.438C252.918 175.396 250.29 174.86 247.636 174.86C244.982 174.86 242.355 175.396 239.908 176.438C237.461 177.479 235.244 179.005 233.387 180.925C231.53 182.845 230.07 185.122 229.093 187.62C228.116 190.119 227.641 192.79 227.697 195.478C227.627 198.152 228.099 200.813 229.082 203.296ZM236.551 190.86C237.078 188.975 237.965 187.358 239.211 186.009C241.45 183.754 244.479 182.489 247.636 182.489C250.793 182.489 253.822 183.754 256.061 186.009C257.301 187.356 258.185 188.973 258.711 190.86H236.551Z" fill="black"/>
<path d="M280.191 183.257L280.103 216.002H272.104L272.183 181.787C272.186 180.251 272.798 178.778 273.885 177.692C274.972 176.607 276.446 175.997 277.983 175.997H295.803V183.257H280.191Z" fill="black"/>
<path d="M145.204 175.997V216.002H153.116V193.544C153.021 190.629 154.058 187.79 156.011 185.624C156.889 184.625 157.973 183.828 159.188 183.287C160.403 182.746 161.721 182.475 163.051 182.491C168.636 182.491 171.428 185.677 171.428 192.048V216.002H179.428L179.428 191.617C179.41 186.44 178.147 182.427 175.638 179.576L175.638 179.574C175.043 178.95 174.403 178.369 173.725 177.836C172.622 177.013 171.383 176.39 170.064 175.997C168.427 175.473 166.715 175.214 164.996 175.231C163.504 175.224 162.021 175.443 160.596 175.882C159.453 176.21 158.362 176.699 157.357 177.334C156.568 177.876 155.842 178.505 155.192 179.209C154.736 179.662 154.326 180.161 153.969 180.696C153.82 180.978 153.688 181.198 153.591 181.347H153.204V175.997H145.204Z" fill="black"/>
</svg>
