<?xml version="1.0" encoding="UTF-8"?>
<svg width="660px" height="600px" viewBox="0 0 660 600" version="1.1" xmlns="http://www.w3.org/2000/svg" xmlns:xlink="http://www.w3.org/1999/xlink">
    <!-- Generator: Sketch 59.1 (86144) - https://sketch.com -->
    <title>Group 6</title>
    <desc>Created with Sketch.</desc>
    <g id="Joystream---Website" stroke="none" stroke-width="1" fill="none" fill-rule="evenodd">
        <g id="Testnet-Page" transform="translate(-780.000000, -90.000000)">
            <g id="Group-11" transform="translate(0.000000, 90.000000)">
                <g id="Group-6" transform="translate(780.000000, 0.000000)">
                    <g id="Group-Copy-11" transform="translate(330.000000, 300.000000) scale(1, -1) rotate(-180.000000) translate(-330.000000, -300.000000) ">
                        <path d="M286.660142,379.610133 L280.006762,379.610133 L280.006762,386.263467 L286.660142,386.263467 L286.660142,392.933333 L280.006762,392.933333 L280.006762,399.6032 L286.660142,399.6032 L286.660142,406.256533 L293.330071,406.256533 L293.330071,412.9264 L286.660142,412.9264 L286.660142,406.273067 L280.006762,406.273067 L280.006762,412.9264 L286.660142,412.9264 L286.660142,419.6 L279.990214,419.6 L279.990214,412.930133 L273.336833,412.930133 L273.336833,406.2768 L266.666904,406.2768 L266.666904,412.930133 L259.996975,412.930133 L259.996975,406.2768 L253.343594,406.2768 L253.343594,412.930133 L259.996975,412.930133 L259.996975,419.6 L253.326512,419.6 L253.326512,412.930133 L246.673665,412.930133 L246.673665,419.6 L240,419.6 L240,412.930133 L246.669929,412.930133 L246.669929,406.2768 L240,406.2768 L240,399.6064 L246.669929,399.6064 L246.669929,392.936533 L240,392.936533 L240,386.266667 L246.669929,386.266667 L246.669929,379.613333 L246.669929,379.5968 L253.32331,379.5968 L253.32331,372.943467 L259.993238,372.943467 L259.993238,379.5968 L266.663167,379.5968 L266.663167,372.943467 L273.33363,372.943467 L273.33363,379.5968 L279.987011,379.5968 L279.987011,372.943467 L286.65694,372.943467 L286.65694,379.5968 L293.326868,379.5968 L293.326868,386.266667 L286.65694,386.266667 L286.65694,379.610133 L286.660142,379.610133 Z M246.669929,379.5936 L246.669929,372.939733 L240,372.939733 L240,379.610133 L246.669929,379.610133 L246.669929,379.5936 Z M266.663167,412.930133 L266.663167,419.6 L273.33363,419.6 L273.33363,412.930133 L266.663167,412.930133 Z M286.660142,399.6064 L286.660142,392.936533 L293.330071,392.936533 L293.330071,399.6064 L286.660142,399.6064 Z M253.32331,406.260267 L246.669929,406.260267 L246.669929,399.6064 L253.32331,399.6064 L253.32331,406.260267 Z M253.339858,372.939733 L253.339858,366.269867 L259.993238,366.269867 L259.993238,372.939733 L266.663167,372.939733 L266.663167,366.269867 L273.33363,366.269867 L273.33363,372.939733 L280.003559,372.939733 L280.003559,366.269867 L286.65694,366.269867 L286.65694,372.939733 L293.326868,372.939733 L293.326868,366.269867 L286.65694,366.269867 L286.65694,359.6 L279.987011,359.6 L279.987011,366.269867 L273.33363,366.269867 L273.33363,359.6 L266.663167,359.6 L266.663167,366.269867 L259.993238,366.269867 L259.993238,359.6 L253.32331,359.6 L253.32331,366.269867 L246.669929,366.269867 L246.669929,359.6 L240,359.6 L240,366.269867 L246.669929,366.269867 L246.669929,372.939733 L253.339858,372.939733 Z M279.987011,386.263467 L279.987011,392.933333 L273.33363,392.933333 L273.33363,386.263467 L279.987011,386.263467 Z M266.663167,386.263467 L266.663167,379.610133 L273.33363,379.610133 L273.33363,386.263467 L266.663167,386.263467 Z M259.993238,386.263467 L266.663167,386.263467 L266.663167,392.933333 L259.993238,392.933333 L259.993238,386.263467 Z M259.993238,386.263467 L253.339858,386.263467 L253.339858,379.610133 L259.993238,379.610133 L259.993238,386.263467 Z M259.993238,399.6064 L253.339858,399.6064 L253.339858,392.936533 L259.993238,392.936533 L259.993238,399.6064 Z M266.663167,399.6064 L266.663167,406.260267 L259.993238,406.260267 L259.993238,399.6064 L266.663167,399.6064 Z M273.336833,399.6064 L266.666904,399.6064 L266.666904,392.936533 L273.336833,392.936533 L273.336833,399.6064 Z M273.336833,399.6064 L279.990214,399.6064 L279.990214,406.260267 L273.336833,406.260267 L273.336833,399.6064 Z M253.32331,392.936533 L253.32331,386.266667 L246.669929,386.266667 L246.669929,392.936533 L253.32331,392.936533 Z M300,412.930133 L293.330071,412.930133 L293.330071,419.6 L300,419.6 L300,412.930133 Z M293.330071,399.6064 L300,399.6064 L300,406.2768 L293.330071,406.2768 L293.330071,399.6064 Z M300,386.263467 L293.330071,386.263467 L293.330071,392.933333 L300,392.933333 L300,386.263467 Z M293.330071,372.939733 L300,372.939733 L300,379.610133 L293.330071,379.610133 L293.330071,372.939733 Z M293.330071,359.6 L300,359.6 L300,366.269867 L293.330071,366.269867 L293.330071,359.6 Z" id="Shape" fill="#4038FF"></path>
                        <path d="M586.660142,379.610133 L580.006762,379.610133 L580.006762,386.263467 L586.660142,386.263467 L586.660142,392.933333 L580.006762,392.933333 L580.006762,399.6032 L586.660142,399.6032 L586.660142,406.256533 L593.330071,406.256533 L593.330071,412.9264 L586.660142,412.9264 L586.660142,406.273067 L580.006762,406.273067 L580.006762,412.9264 L586.660142,412.9264 L586.660142,419.6 L579.990214,419.6 L579.990214,412.930133 L573.336833,412.930133 L573.336833,406.2768 L566.666904,406.2768 L566.666904,412.930133 L559.996975,412.930133 L559.996975,406.2768 L553.343594,406.2768 L553.343594,412.930133 L559.996975,412.930133 L559.996975,419.6 L553.326512,419.6 L553.326512,412.930133 L546.673665,412.930133 L546.673665,419.6 L540,419.6 L540,412.930133 L546.669929,412.930133 L546.669929,406.2768 L540,406.2768 L540,399.6064 L546.669929,399.6064 L546.669929,392.936533 L540,392.936533 L540,386.266667 L546.669929,386.266667 L546.669929,379.613333 L546.669929,379.5968 L553.32331,379.5968 L553.32331,372.943467 L559.993238,372.943467 L559.993238,379.5968 L566.663167,379.5968 L566.663167,372.943467 L573.33363,372.943467 L573.33363,379.5968 L579.987011,379.5968 L579.987011,372.943467 L586.65694,372.943467 L586.65694,379.5968 L593.326868,379.5968 L593.326868,386.266667 L586.65694,386.266667 L586.65694,379.610133 L586.660142,379.610133 Z M546.669929,379.5936 L546.669929,372.939733 L540,372.939733 L540,379.610133 L546.669929,379.610133 L546.669929,379.5936 Z M566.663167,412.930133 L566.663167,419.6 L573.33363,419.6 L573.33363,412.930133 L566.663167,412.930133 Z M586.660142,399.6064 L586.660142,392.936533 L593.330071,392.936533 L593.330071,399.6064 L586.660142,399.6064 Z M553.32331,406.260267 L546.669929,406.260267 L546.669929,399.6064 L553.32331,399.6064 L553.32331,406.260267 Z M553.339858,372.939733 L553.339858,366.269867 L559.993238,366.269867 L559.993238,372.939733 L566.663167,372.939733 L566.663167,366.269867 L573.33363,366.269867 L573.33363,372.939733 L580.003559,372.939733 L580.003559,366.269867 L586.65694,366.269867 L586.65694,372.939733 L593.326868,372.939733 L593.326868,366.269867 L586.65694,366.269867 L586.65694,359.6 L579.987011,359.6 L579.987011,366.269867 L573.33363,366.269867 L573.33363,359.6 L566.663167,359.6 L566.663167,366.269867 L559.993238,366.269867 L559.993238,359.6 L553.32331,359.6 L553.32331,366.269867 L546.669929,366.269867 L546.669929,359.6 L540,359.6 L540,366.269867 L546.669929,366.269867 L546.669929,372.939733 L553.339858,372.939733 Z M579.987011,386.263467 L579.987011,392.933333 L573.33363,392.933333 L573.33363,386.263467 L579.987011,386.263467 Z M566.663167,386.263467 L566.663167,379.610133 L573.33363,379.610133 L573.33363,386.263467 L566.663167,386.263467 Z M559.993238,386.263467 L566.663167,386.263467 L566.663167,392.933333 L559.993238,392.933333 L559.993238,386.263467 Z M559.993238,386.263467 L553.339858,386.263467 L553.339858,379.610133 L559.993238,379.610133 L559.993238,386.263467 Z M559.993238,399.6064 L553.339858,399.6064 L553.339858,392.936533 L559.993238,392.936533 L559.993238,399.6064 Z M566.663167,399.6064 L566.663167,406.260267 L559.993238,406.260267 L559.993238,399.6064 L566.663167,399.6064 Z M573.336833,399.6064 L566.666904,399.6064 L566.666904,392.936533 L573.336833,392.936533 L573.336833,399.6064 Z M573.336833,399.6064 L579.990214,399.6064 L579.990214,406.260267 L573.336833,406.260267 L573.336833,399.6064 Z M553.32331,392.936533 L553.32331,386.266667 L546.669929,386.266667 L546.669929,392.936533 L553.32331,392.936533 Z M600,412.930133 L593.330071,412.930133 L593.330071,419.6 L600,419.6 L600,412.930133 Z M593.330071,399.6064 L600,399.6064 L600,406.2768 L593.330071,406.2768 L593.330071,399.6064 Z M600,386.263467 L593.330071,386.263467 L593.330071,392.933333 L600,392.933333 L600,386.263467 Z M593.330071,372.939733 L600,372.939733 L600,379.610133 L593.330071,379.610133 L593.330071,372.939733 Z M593.330071,359.6 L600,359.6 L600,366.269867 L593.330071,366.269867 L593.330071,359.6 Z" id="Shape-Copy-10" fill="#4038FF"></path>
                        <path d="M166.660142,20.0101333 L160.006762,20.0101333 L160.006762,26.6634667 L166.660142,26.6634667 L166.660142,33.3333333 L160.006762,33.3333333 L160.006762,40.0032 L166.660142,40.0032 L166.660142,46.6565333 L173.330071,46.6565333 L173.330071,53.3264 L166.660142,53.3264 L166.660142,46.6730667 L160.006762,46.6730667 L160.006762,53.3264 L166.660142,53.3264 L166.660142,60 L159.990214,60 L159.990214,53.3301333 L153.336833,53.3301333 L153.336833,46.6768 L146.666904,46.6768 L146.666904,53.3301333 L139.996975,53.3301333 L139.996975,46.6768 L133.343594,46.6768 L133.343594,53.3301333 L139.996975,53.3301333 L139.996975,60 L133.326512,60 L133.326512,53.3301333 L126.673665,53.3301333 L126.673665,60 L120,60 L120,53.3301333 L126.669929,53.3301333 L126.669929,46.6768 L120,46.6768 L120,40.0064 L126.669929,40.0064 L126.669929,33.3365333 L120,33.3365333 L120,26.6666667 L126.669929,26.6666667 L126.669929,20.0133333 L126.669929,19.9968 L133.32331,19.9968 L133.32331,13.3434667 L139.993238,13.3434667 L139.993238,19.9968 L146.663167,19.9968 L146.663167,13.3434667 L153.33363,13.3434667 L153.33363,19.9968 L159.987011,19.9968 L159.987011,13.3434667 L166.65694,13.3434667 L166.65694,19.9968 L173.326868,19.9968 L173.326868,26.6666667 L166.65694,26.6666667 L166.65694,20.0101333 L166.660142,20.0101333 Z M126.669929,19.9936 L126.669929,13.3397333 L120,13.3397333 L120,20.0101333 L126.669929,20.0101333 L126.669929,19.9936 Z M146.663167,53.3301333 L146.663167,60 L153.33363,60 L153.33363,53.3301333 L146.663167,53.3301333 Z M166.660142,40.0064 L166.660142,33.3365333 L173.330071,33.3365333 L173.330071,40.0064 L166.660142,40.0064 Z M133.32331,46.6602667 L126.669929,46.6602667 L126.669929,40.0064 L133.32331,40.0064 L133.32331,46.6602667 Z M133.339858,13.3397333 L133.339858,6.66986667 L139.993238,6.66986667 L139.993238,13.3397333 L146.663167,13.3397333 L146.663167,6.66986667 L153.33363,6.66986667 L153.33363,13.3397333 L160.003559,13.3397333 L160.003559,6.66986667 L166.65694,6.66986667 L166.65694,13.3397333 L173.326868,13.3397333 L173.326868,6.66986667 L166.65694,6.66986667 L166.65694,0 L159.987011,0 L159.987011,6.66986667 L153.33363,6.66986667 L153.33363,0 L146.663167,0 L146.663167,6.66986667 L139.993238,6.66986667 L139.993238,0 L133.32331,0 L133.32331,6.66986667 L126.669929,6.66986667 L126.669929,0 L120,0 L120,6.66986667 L126.669929,6.66986667 L126.669929,13.3397333 L133.339858,13.3397333 Z M159.987011,26.6634667 L159.987011,33.3333333 L153.33363,33.3333333 L153.33363,26.6634667 L159.987011,26.6634667 Z M146.663167,26.6634667 L146.663167,20.0101333 L153.33363,20.0101333 L153.33363,26.6634667 L146.663167,26.6634667 Z M139.993238,26.6634667 L146.663167,26.6634667 L146.663167,33.3333333 L139.993238,33.3333333 L139.993238,26.6634667 Z M139.993238,26.6634667 L133.339858,26.6634667 L133.339858,20.0101333 L139.993238,20.0101333 L139.993238,26.6634667 Z M139.993238,40.0064 L133.339858,40.0064 L133.339858,33.3365333 L139.993238,33.3365333 L139.993238,40.0064 Z M146.663167,40.0064 L146.663167,46.6602667 L139.993238,46.6602667 L139.993238,40.0064 L146.663167,40.0064 Z M153.336833,40.0064 L146.666904,40.0064 L146.666904,33.3365333 L153.336833,33.3365333 L153.336833,40.0064 Z M153.336833,40.0064 L159.990214,40.0064 L159.990214,46.6602667 L153.336833,46.6602667 L153.336833,40.0064 Z M133.32331,33.3365333 L133.32331,26.6666667 L126.669929,26.6666667 L126.669929,33.3365333 L133.32331,33.3365333 Z M180,53.3301333 L173.330071,53.3301333 L173.330071,60 L180,60 L180,53.3301333 Z M173.330071,40.0064 L180,40.0064 L180,46.6768 L173.330071,46.6768 L173.330071,40.0064 Z M180,26.6634667 L173.330071,26.6634667 L173.330071,33.3333333 L180,33.3333333 L180,26.6634667 Z M173.330071,13.3397333 L180,13.3397333 L180,20.0101333 L173.330071,20.0101333 L173.330071,13.3397333 Z M173.330071,0 L180,0 L180,6.66986667 L173.330071,6.66986667 L173.330071,0 Z" id="Shape-Copy-5" fill="#1F242C"></path>
                        <path d="M353.330071,359.6 L360,359.6 L360,299.6 L353.330071,299.6 L353.330071,359.6 Z M346.666548,359.6 L339.999822,359.6 L339.999822,299.6 L346.666548,299.6 L346.666548,359.6 Z M333.33363,359.6 L326.666904,359.6 L326.666904,299.6 L333.33363,299.6 L333.33363,359.6 Z M313.333452,359.6 L320.000178,359.6 L320.000178,299.6 L313.333452,299.6 L313.333452,359.6 Z M306.666726,359.6 L300,359.6 L300,299.6 L306.666726,299.6 L306.666726,359.6 Z" id="Shape" fill="#4038FF"></path>
                        <path d="M361,485.669867 L361,479 L301,479 L301,485.669867 L361,485.669867 Z M361,492.333333 L361,499 L301,499 L301,492.333333 L361,492.333333 Z M361,505.666667 L361,512.333333 L301,512.333333 L301,505.666667 L361,505.666667 Z M361,525.666667 L361,519 L301,519 L301,525.666667 L361,525.666667 Z M361,532.333333 L361,539 L301,539 L301,532.333333 L361,532.333333 Z" id="Shape" fill="#1F242C"></path>
                        <path d="M300,126.269867 L300,119.6 L240,119.6 L240,126.269867 L300,126.269867 Z M300,132.933333 L300,139.6 L240,139.6 L240,132.933333 L300,132.933333 Z M300,146.266667 L300,152.933333 L240,152.933333 L240,146.266667 L300,146.266667 Z M300,166.266667 L300,159.6 L240,159.6 L240,166.266667 L300,166.266667 Z M300,172.933333 L300,179.6 L240,179.6 L240,172.933333 L300,172.933333 Z" id="Shape-Copy-12" fill="#1F242C"></path>
                        <path d="M540,306.269867 L540,299.6 L480,299.6 L480,306.269867 L540,306.269867 Z M540,312.933333 L540,319.6 L480,319.6 L480,312.933333 L540,312.933333 Z M540,326.266667 L540,332.933333 L480,332.933333 L480,326.266667 L540,326.266667 Z M540,346.266667 L540,339.6 L480,339.6 L480,346.266667 L540,346.266667 Z M540,352.933333 L540,359.6 L480,359.6 L480,352.933333 L540,352.933333 Z" id="Shape-Copy-7" fill="#1F242C"></path>
                        <path d="M300,292.930027 L300,299.6 L240,299.6 L240,292.930027 L300,292.930027 Z M300,272.926667 L300,266.256693 L240,266.256693 L240,272.926667 L300,272.926667 Z M300,252.92336 L300,259.593333 L240,259.593333 L240,252.92336 L300,252.92336 Z M300,239.6 L300,246.270027 L240,246.270027 L240,239.6 L300,239.6 Z M300,286.26 L300,279.589973 L240,279.589973 L240,286.26 L300,286.26 Z" id="Shape" fill="#1F242C"></path>
                        <path d="M186.666726,479.6 L180,479.6 C180,446.463467 206.863345,419.6 240,419.6 L240,426.266667 C210.543416,426.266667 186.666726,450.143467 186.666726,479.6 Z M200.000178,479.6 L193.333452,479.6 C193.333452,453.826667 214.22669,432.933333 240,432.933333 L240,439.6 C217.909964,439.6 200.000178,457.509867 200.000178,479.6 Z M206.666904,479.6 L213.33363,479.6 C213.33363,464.873067 225.27331,452.933333 240,452.933333 L240,446.266667 C221.590036,446.266667 206.666904,461.189867 206.666904,479.6 Z M226.666548,479.6 L220.000356,479.6 C220.000356,468.553067 228.953381,459.6 240,459.6 L240,466.266667 C232.636655,466.266667 226.666548,472.2368 226.666548,479.6 Z M240,479.6 L233.333274,479.6 C233.333274,475.9168 236.316726,472.933333 240,472.933333 L240,479.6 Z" id="Shape" fill="#FFFFFF" transform="translate(210.000000, 449.600000) rotate(-360.000000) translate(-210.000000, -449.600000) "></path>
                        <path d="M606.666726,239.6 L600,239.6 C600,206.463467 626.863345,179.6 660,179.6 L660,186.266667 C630.543416,186.266667 606.666726,210.143467 606.666726,239.6 Z M620.000178,239.6 L613.333452,239.6 C613.333452,213.826667 634.22669,192.933333 660,192.933333 L660,199.6 C637.909964,199.6 620.000178,217.509867 620.000178,239.6 Z M626.666904,239.6 L633.33363,239.6 C633.33363,224.873067 645.27331,212.933333 660,212.933333 L660,206.266667 C641.590036,206.266667 626.666904,221.189867 626.666904,239.6 Z M646.666548,239.6 L640.000356,239.6 C640.000356,228.553067 648.953381,219.6 660,219.6 L660,226.266667 C652.636655,226.266667 646.666548,232.2368 646.666548,239.6 Z M660,239.6 L653.333274,239.6 C653.333274,235.9168 656.316726,232.933333 660,232.933333 L660,239.6 Z" id="Shape-Copy-11" fill="#1F242C" transform="translate(630.000000, 209.600000) rotate(-270.000000) translate(-630.000000, -209.600000) "></path>
                        <path d="M420,238 L420,298 L480,298 C480,264.863467 453.136655,238 420,238 Z" id="Path" fill="#4038FF" fill-rule="nonzero" transform="translate(450.000000, 268.000000) rotate(-270.000000) translate(-450.000000, -268.000000) "></path>
                        <path d="M60,359.6 L120,359.6 L120,299.6 C86.8633452,299.6 60,326.463467 60,359.6 Z" id="Path" fill="#1F242C" fill-rule="nonzero"></path>
                        <path d="M420.6,599.6 L480.6,599.6 L480.6,539.6 C447.463345,539.6 420.6,566.463467 420.6,599.6 Z" id="Path-Copy-2" fill="#1F242C" fill-rule="nonzero" transform="translate(450.600000, 569.600000) rotate(-180.000000) translate(-450.600000, -569.600000) "></path>
                        <path d="M186.669929,600 L180,600 L180,540 L186.669929,540 L186.669929,600 Z M206.67331,600 L213.343238,600 L213.343238,540 L206.67331,540 L206.67331,600 Z M226.67669,600 L220.006762,600 L220.006762,540 L226.67669,540 L226.67669,600 Z M240,600 L233.330071,600 L233.330071,540 L240,540 L240,600 Z M193.339858,600 L200.009786,600 L200.009786,540 L193.339858,540 L193.339858,600 Z" id="Shape" fill="#4038FF"></path>
                        <path d="M6.66992883,479.6 L0,479.6 L0,419.6 L6.66992883,419.6 L6.66992883,479.6 Z M26.6733096,479.6 L33.3432384,479.6 L33.3432384,419.6 L26.6733096,419.6 L26.6733096,479.6 Z M46.6766904,479.6 L40.0067616,479.6 L40.0067616,419.6 L46.6766904,419.6 L46.6766904,479.6 Z M60,479.6 L53.3300712,479.6 L53.3300712,419.6 L60,419.6 L60,479.6 Z M13.3398577,479.6 L20.0097865,479.6 L20.0097865,419.6 L13.3398577,419.6 L13.3398577,479.6 Z" id="Shape-Copy" fill="#1F242C"></path>
                        <path d="M487.269929,119.6 L480.6,119.6 L480.6,59.6 L487.269929,59.6 L487.269929,119.6 Z M507.27331,119.6 L513.943238,119.6 L513.943238,59.6 L507.27331,59.6 L507.27331,119.6 Z M527.27669,119.6 L520.606762,119.6 L520.606762,59.6 L527.27669,59.6 L527.27669,119.6 Z M540.6,119.6 L533.930071,119.6 L533.930071,59.6 L540.6,59.6 L540.6,119.6 Z M493.939858,119.6 L500.609786,119.6 L500.609786,59.6 L493.939858,59.6 L493.939858,119.6 Z" id="Shape-Copy-9" fill="#1F242C"></path>
                    </g>
                    <g id="Group-5-Copy" transform="translate(128.000000, 122.000000)" fill-rule="nonzero">
                        <g id="Group-3">
                            <g id="Group-52">
                                <path d="M278.716808,389.270361 C278.716808,389.270361 268.905041,388.905342 263.999158,392.778602 C263.999158,392.778602 252.491531,385.41738 230.182884,390.750717 L221.784335,356.803925 C221.784335,356.803925 213.708807,320.525064 224.893413,304.078918 C232.444032,292.905272 247.827913,278.243665 266.01804,257.153662 C274.093568,247.703718 284.511,240.301939 293.535402,232.555418 C305.265107,222.415994 307.243611,204.631444 306.75908,189.767048 C306.07266,169.062343 293.535402,149.817716 293.535402,149.817716 C293.535402,149.817716 172.987956,135.764473 154.555563,146.91784 C154.555563,146.91784 77.5833933,195.105017 13.8069099,276.747662 C15.3258152,277.239461 16.7772871,277.920743 18.1273174,278.775547 C18.1273174,278.775547 0.441910845,302.420684 0.563043766,319.901052 C-0.0228794684,323.140095 0.220265858,326.475573 1.26965248,329.594342 C2.06195987,333.56221 2.58136762,337.580162 2.82419164,341.619699 C2.75124379,345.246378 2.86580129,348.874415 3.16740159,352.489162 C3.16740159,352.489162 0.845687251,371.752317 0.260211462,373.516577 C-0.325264327,375.280836 0.260211462,386.880338 0.260211462,386.880338 C0.260211462,386.880338 63.2617178,359.397866 70.8527142,354.977077 C70.8527142,354.977077 102.75105,349.321029 114.440377,347.272866 C114.440377,347.272866 125.059697,360.920531 126.230648,363.495945 L131.33842,391.440198 C131.33842,391.440198 120.9008,393.245016 117.206246,397.118276 C115.631518,397.118276 98.2691322,394.644256 92.2932414,401.437671 C92.2932414,401.437671 89.2851071,413.807768 90.758891,415.855932 C92.2326749,417.904096 98.8344192,417.356567 100.853301,415.288124 C100.853301,415.288124 111.553376,427.110693 122.394772,425.93452 C133.236169,424.758347 148.155707,417.559355 159.865223,420.215885 C171.574739,422.872414 189.260145,428.063799 200.101542,425.001693 C207.87735,422.554389 215.380383,419.306019 222.490944,415.308403 L225.660588,417.924375 C225.660588,417.924375 226.851729,416.748201 226.569085,415.89649 C226.569085,415.89649 259.779695,419.2425 268.965608,423.866077 C281.684565,430.33503 295.978249,414.111951 295.978249,414.111951 C295.978249,414.111951 297.270334,414.47697 300.016014,414.983942 C299.874692,415.00422 305.628506,388.378092 278.716808,389.270361 Z M193.11621,389.513708 C187.46334,389.65566 185.787668,391.541592 185.787668,391.541592 L170.383598,389.716496 C169.111703,387.343871 163.075245,359.298223 163.075245,359.298223 C162.873357,355.242453 167.113009,344.190481 167.113009,344.190481 C169.495049,344.107801 171.847688,343.635175 174.078152,342.79124 C176.924776,346.31976 190.935817,363.070089 190.935817,363.070089 C193.519986,369.822946 193.176776,389.513708 193.176776,389.513708 L193.11621,389.513708 Z" id="Shape" fill="#010101"></path>
                                <path d="M202.061007,392.06804 C202.061007,392.06804 212.633849,393.151697 217.683846,398.590826 L219.215868,398.028157 L212.501452,363.851258 C212.501452,363.851258 204.784602,366.060253 200.964004,369.665499 L202.061007,392.06804 Z" id="Path" fill="#C4C3C6"></path>
                                <path d="M226.516614,401.836779 C226.516614,401.836779 240.935318,392.769625 261.909808,398.876076 L263.599029,405.044208 C263.599029,405.044208 292.597316,403.913384 290.264583,409.958153 C287.93185,416.002923 276.187744,418.038406 270.355911,416.249648 C264.524078,414.460889 248.496592,406.874087 230.136372,409.279659 C229.105315,406.71344 227.895628,404.226103 226.516614,401.836779 L226.516614,401.836779 Z" id="Path" fill="#C4C3C6"></path>
                                <path d="M141.09202,370.235425 L140.093606,400.879427 C133.909851,400.594141 127.733238,401.582058 121.938786,403.783193 C121.938786,403.783193 123.487346,409.15825 120.838494,409.837855 C118.189643,410.517459 107.879498,412.123798 107.879498,412.123798 L108.613026,413.071126 C108.613026,413.071126 120.981125,419.970145 127.847763,416.654497 C133.410351,413.956672 140.603001,410.476271 156.373855,410.7234 C172.144708,410.970529 180.356148,419.434699 190.319904,418.652124 C200.28366,417.869548 212.916644,414.759841 215.565495,411.403005 C215.565495,411.403005 212.69251,406.913494 201.404328,406.254483 C190.116146,405.595473 187.895186,405.574879 186.346627,398.861206 C186.346627,398.861206 172.083581,398.408136 164.198154,400.920615 C164.198154,400.920615 156.047842,363.851258 155.232811,363.851258 C154.41778,363.851258 143.740871,365.972449 141.09202,370.235425 Z" id="Path" fill="#C4C3C6"></path>
                                <path d="M78.676516,335.563798 C83.0338542,334.012133 132.08389,296.200522 132.08389,296.200522 C129.245624,300.426766 98.5243912,324.783814 98.5243912,324.783814 C98.5243912,324.783814 100.023475,325.253396 104.520728,323.252566 C109.017981,321.251735 137.680471,303.162595 138.340068,302.488846 L127.506686,314.595912 L141.937871,304.755093 C145.312164,305.545608 148.771037,305.895486 152.231582,305.796341 C149.19174,308.929044 146.398139,312.301409 143.876686,315.88216 C149.873023,311.227167 157.628286,305.224675 157.628286,305.224675 L163.344793,305.224675 C161.766512,308.436282 159.849651,311.462263 157.628286,314.248829 L169.301155,310.308418 L166.18306,314.779661 C171.359897,310.839251 182.393157,307.062173 182.393157,307.062173 C180.214488,308.409671 167.822058,320.925069 167.822058,320.925069 C170.88019,317.597157 197.963645,301.120931 197.963645,301.120931 L200.462119,300.712599 C198.943047,302.488846 192.666881,311.492583 192.666881,311.492583 L203.360349,300.835098 C206.100116,299.633325 208.972794,298.776341 211.915123,298.283019 C211.915123,298.283019 207.657723,312.574665 205.918786,322.782983 C204.039933,333.379218 209.156808,350.447526 209.156808,350.447526 C205.726851,352.496558 202.004041,353.984565 198.123548,354.85752 C193.746222,348.017946 179.974635,333.930467 179.974635,333.930467 L185.35135,321.680485 C179.059174,327.799977 171.434674,332.306292 163.10494,334.828799 C161.92566,334.828799 160.786356,324.62048 160.786356,324.62048 C156.788798,328.703808 151.232193,353.469188 151.232193,353.469188 C150.372718,355.510852 144.196491,356.73585 141.598078,356.511267 C138.999666,356.286684 136.681082,352.30544 136.681082,352.30544 L142.377602,349.916694 L133.922767,348.140446 C131.324354,347.037948 123.728994,336.482547 123.728994,336.482547 C124.148738,335.196298 144.736161,322.701317 144.736161,322.701317 L121.550325,333.665051 L78.676516,335.563798 Z" id="Path" fill="#C4C3C6"></path>
                                <path d="M268.50287,398.810582 L270.14968,401.420955 C278.397863,400.184065 286.824845,401.764982 294.04851,405.904419 C291.797869,400.453936 286.44901,396.894828 280.512534,396.897637 C267.799963,396.14043 268.50287,398.810582 268.50287,398.810582 Z" id="Path" fill="#FFFFFF"></path>
                                <path d="M172.019029,225.016993 C149.742649,245.167598 87.802448,282.534054 87.802448,282.534054 C87.802448,282.534054 105.762652,291.813666 137.18278,275.941189 C168.602908,260.068712 197.916088,229.832471 200.964004,225.575009 L185.233484,235.495307 L195.604581,224.892989 C195.604581,224.892989 191.206582,225.513007 188.629149,225.575009 L161.46383,242.108839 C168.725643,238.244057 183.822033,225.575009 183.822033,225.575009 L172.019029,225.016993 Z" id="Path" fill="#FFFFFF"></path>
                                <path d="M133.87888,262.691254 C133.87888,262.691254 164.612664,245.419842 169.935836,241.348573 C169.935836,241.348573 153.865883,257.92745 140.085899,263.866466 C132.750198,267.282141 124.973471,269.551929 117.00543,270.602946 L133.87888,262.691254 Z" id="Path" fill="#010101"></path>
                                <path d="M18.4453651,362.02286 C18.4453651,362.02286 21.9057927,353.457041 23.676244,348.085601 C24.1188569,346.763087 61.2782165,306.741788 79.6466492,297.21969 L82.2620887,297.21969 C63.3102118,313.639206 65.7848199,312.011497 60.9160787,316.69116 C60.9160787,316.69116 93.4280035,293.028339 97.8138943,291.482015 C97.8138943,291.482015 88.1770057,302.306281 85.7426351,304.524035 C85.7426351,304.524035 109.382184,293.516651 112.661543,291.746518 C111.007371,294.088437 109.170713,296.292867 107.16912,298.33874 C107.16912,298.33874 139.701164,282.672039 142.55804,281.573336 C142.598266,281.614028 35.2646529,360.964849 18.4453651,362.02286 Z" id="Path" fill="#C4C3C6"></path>
                                <path d="M50.105701,329.198894 C54.9653798,326.302243 59.6318122,323.120073 64.0780188,319.670784 C66.9722846,316.907632 70.5851268,317.765162 64.0780188,323.253353 C57.5709108,328.741545 55.6347468,330.418492 50.105701,330.875841 C44.5766552,331.333191 50.105701,329.198894 50.105701,329.198894 Z" id="Path" fill="#010101"></path>
                                <path d="M195.501581,397.704973 C195.501581,397.704973 195.244601,400.013375 197.003922,400.364253 C199.71209,400.899802 209.141258,399.311621 220.922777,405.904419 C220.922777,405.904419 222.108836,404.297771 216.969247,400.198048 C211.829659,396.098325 199.37604,396.227595 195.501581,397.704973 Z" id="Path" fill="#FFFFFF"></path>
                                <path d="M96.9283799,411.389614 C96.9283799,411.389614 98.0358175,406.085463 99.7995144,405.27216 C101.563211,404.458857 113.827057,403.822359 115.877867,404.175969 C115.877867,404.175969 117.518515,405.678811 116.841748,406.226907 C116.164981,406.775003 104.721459,407.694389 102.814206,409.214912 C101.27502,410.597321 99.1510386,411.382092 96.9283799,411.389614 L96.9283799,411.389614 Z" id="Path" fill="#FFFFFF"></path>
                                <path d="M138.94289,400.865941 C142.632282,400.943687 146.297397,401.407599 149.858785,402.247622 C149.858785,402.247622 141.29642,396.409531 137.082481,396.779277 L138.94289,400.865941 Z" id="Path" fill="#010101"></path>
                                <path d="M75.0261432,290.641112 C75.0261432,290.641112 71.3963878,289.669564 71.5586115,286.592997 L61.5615756,292.948537 L72.937513,282.828251 L70.9097167,281.73526 C69.1455339,282.828251 51.5239837,296.24775 51.5239837,296.24775 L66.4282868,281.573336 C65.0787543,281.685417 63.7222266,281.685417 62.3726941,281.573336 C58.6212709,283.981964 27.6973768,313.087905 22.8509436,321.669908 C18.0045104,330.25191 21.4720421,341.910479 21.4720421,341.910479 C21.4720421,341.910479 49.4556315,311.063848 75.0261432,290.641112 Z" id="Path" fill="#C4C3C6"></path>
                                <path d="M56.7742793,279.744937 C56.7742793,279.744937 30.1832618,300.929138 20.1195844,318.141301 C20.1195844,318.141301 17.1741178,315.472588 19.0968529,308.583586 C21.019588,301.694583 38.5901142,282.95153 41.9855826,280.572445 L37.6492013,289.488842 L48.0401528,279.889751 C50.9385218,280.343662 53.8921784,280.294689 56.7742793,279.744937 L56.7742793,279.744937 Z" id="Path" fill="#C4C3C6"></path>
                                <path d="M139.700731,65.5274136 C139.700731,65.5274136 130.429805,50.4589593 129.803664,45.6329813 C138.215824,42.1775222 147.268848,40.5938701 156.343961,40.9902684 C156.343961,40.9902684 154.586726,24.2113408 158.646543,19.8537067 C158.646543,19.8537067 177.269187,26.7363251 182.884257,30.7681547 C182.884257,30.7681547 181.934947,11.7696846 188.943685,8.73563096 C188.943685,8.73563096 205.102161,17.6341641 206.031273,24.374243 C206.031273,24.374243 208.939799,9.26506314 216.392896,6.76044168 C220.266353,11.1627124 223.894139,15.7786048 227.259471,20.5867667 C227.259471,20.5867667 234.409596,2.26026815 240.469025,0 C240.469025,0 252.022335,11.9936751 253.072636,17.5323502 C253.072636,17.5323502 253.597786,11.1384385 265.191493,6.76044168 C265.191493,6.76044168 277.310349,18.6930285 276.765001,25.6774607 C276.765001,25.6774607 282.824429,12.1973029 290.66129,10.6293691 C290.66129,10.6293691 300.901724,13.6023345 301.123903,26.91959 C301.123903,26.91959 310.091857,19.5075395 316.31287,17.104732 C316.31287,17.104732 326.129144,27.9988172 324.634485,34.2501895 C324.634485,34.2501895 334.612344,29.6889276 340.954545,31.0939592 C340.954545,31.0939592 346.145456,39.2390696 341.621083,52.0065302 C341.621083,52.0065302 358.809661,50.3978709 362.202941,54.1446217 C362.202941,54.1446217 357.274606,70.4348426 354.729646,71.4122559 C354.729646,71.4122559 368.161379,76.6251266 370.706339,80.4736913 C370.706339,80.4736913 359.577189,92.9764358 357.032229,94.2592907 L368.262369,109.124117 C368.262369,109.124117 361.637394,118.38918 355.921333,118.38918 C355.921333,118.38918 359.213623,131.014102 358.870255,139.342477 C358.870255,139.342477 345.862682,140.380979 341.520092,136.837856 C341.520092,136.837856 343.418713,146.897067 342.469402,152.680095 C342.469402,152.680095 328.532717,151.417603 326.310927,147.569039 C326.310927,147.569039 322.372298,162.535679 318.554858,165.732635 C318.554858,165.732635 307.708482,158.605663 306.759171,154.757099 C306.759171,154.757099 305.042333,163.818534 300.255385,166.384244 C300.255385,166.384244 287.086227,156.447209 287.712368,153.250253 C287.712368,153.250253 284.844239,165.101389 279.451347,165.732635 C279.451347,165.732635 271.170129,157.730064 271.170129,153.514969 C271.170129,153.514969 268.645367,161.212099 264.504757,161.537903 C264.504757,161.537903 257.516217,155.123629 255.920567,151.356515 C255.920567,151.356515 247.962518,164.490506 244.468247,165.77336 C244.468247,165.77336 231.117307,151.030711 229.521657,147.182146 C229.521657,147.182146 226.976698,156.630474 223.462229,158.972193 C221.087606,157.345888 219.128795,155.175721 217.746168,152.63937 C217.746168,152.63937 212.656248,163.533455 209.485148,164.185064 C209.485148,164.185064 203.122748,162.148786 201.203929,158.972193 C198.549632,162.052054 195.15586,164.393779 191.347259,165.77336 C188.467126,163.184025 186.000834,160.161881 184.035548,156.813739 C184.035548,156.813739 176.400669,164.185064 171.007777,164.185064 C171.007777,164.185064 165.271518,155.20508 166.241027,150.725269 C166.241027,150.725269 153.920189,158.116957 146.042932,157.791152 C146.042932,157.791152 142.488068,147.854117 143.760548,143.679748 C143.760548,143.679748 134.065462,142.967051 131.217531,141.378755 C131.217531,141.378755 127.319299,129.038912 133.499916,121.749038 C133.499916,121.749038 117.119261,111.099307 115.180244,106.619496 C121.051939,101.086142 127.538141,96.2552809 134.50982,92.2230131 L116.331535,76.2993222 C123.194085,70.9415931 131.191867,67.2550573 139.700731,65.5274136 L139.700731,65.5274136 Z" id="Path" fill="#010101"></path>
                                <path d="M228.3418,132.277104 C228.3418,132.277104 241.296656,160.059964 244.748639,162.727447 C244.748639,162.727447 255.660079,138.925292 257.544782,130.491943 C257.544782,130.491943 248.339495,117.56491 244.391537,111.532295 C244.391537,111.532295 234.333173,127.455116 228.3418,132.277104 Z" id="Path" fill="#C4C3C6"></path>
                                <path d="M291.251134,129.816278 C291.251134,129.816278 324.829507,127.130479 332.995018,95.8629707 C341.160529,64.5954622 305.769861,47.4584623 291.251134,47.5383554 C276.732408,47.6188085 246.778626,62.831654 248.489107,90.0704644 C250.199588,117.309275 273.107817,128.854201 291.251134,129.816278 Z" id="Path" fill="#FFFFFF"></path>
                                <path d="M291.219766,124.331083 C291.219766,124.331083 320.533823,121.947759 327.670808,94.1557692 C334.807793,66.3637798 303.901019,51.1347391 291.219766,51.1951519 C278.538514,51.2559251 252.38973,64.8085594 253.962286,89.0053642 C255.534842,113.202169 275.373241,123.523177 291.219766,124.331083 Z" id="Path" fill="#C4C3C6"></path>
                                <path d="M292.139824,120.674287 C292.139824,120.674287 317.897228,118.634321 324.152598,94.2771282 C330.407968,69.9199356 303.260481,56.6193581 292.139824,56.6803468 C281.019166,56.741756 258.021484,68.5939578 259.432008,89.7688036 C260.842533,110.943649 278.198117,119.980698 292.139824,120.674287 Z" id="Path" fill="#FFFFFF"></path>
                                <path d="M288.126679,115.189092 C288.126679,115.189092 302.573882,113.476204 305.699768,109.757983 C305.699768,109.757983 322.050555,95.135766 316.700482,83.4171036 C316.700482,83.4171036 308.224522,66.7059987 300.369732,64.7633328 C292.514942,62.8206669 275.563023,63.7815554 271.475326,76.8788839 C267.387629,89.9762123 263.660612,106.353095 288.126679,115.189092 Z" id="Path" fill="#010101"></path>
                                <path d="M310.232684,103.941026 C310.232684,103.941026 296.960953,109.372558 287.119455,105.122622 C281.043302,102.314383 276.388549,97.3949493 274.153995,91.4199142 C274.153995,91.4199142 271.989682,102.549791 282.56623,106.666321 C293.142779,110.782851 305.026082,110.649445 308.476732,106.666321 C311.437349,103.254937 310.232684,103.941026 310.232684,103.941026 Z" id="Path" fill="#FFFFFF"></path>
                                <path d="M194.451512,131.644676 C194.451512,131.644676 228.078367,128.904741 236.257872,96.9388221 C244.437378,64.9729038 208.992855,47.4373142 194.451512,47.5383554 C179.910169,47.6402725 150.019631,63.1665757 151.756514,91.0124424 C153.493396,118.858309 176.274833,130.731364 194.451512,131.644676 Z" id="Path" fill="#FFFFFF"></path>
                                <path d="M193.568102,126.159482 C193.568102,126.159482 223.606654,123.778317 230.911669,95.9847297 C238.216685,68.1911421 206.561617,52.9636977 193.568102,53.0235502 C180.574587,53.0837564 153.769068,66.630379 155.406046,90.8422157 C157.043024,115.054052 177.321093,125.35909 193.568102,126.159482 Z" id="Path" fill="#C4C3C6"></path>
                                <path d="M193.592704,122.502685 C193.592704,122.502685 219.322378,120.4393 225.589091,95.3279112 C231.855803,70.216522 204.720135,56.5981844 193.592704,56.6803468 C182.465272,56.7632551 159.447156,68.9165898 160.873234,90.70593 C162.299313,112.49527 179.673371,121.7805 193.592704,122.502685 Z" id="Path" fill="#FFFFFF"></path>
                                <path d="M189.556307,117.01749 C189.556307,117.01749 204.008642,115.319197 207.145276,111.570525 C207.145276,111.570525 223.483561,97.0729001 218.143344,85.2262693 C218.143344,85.2262693 209.666494,68.5125786 201.805058,66.5864655 C193.943623,64.6603525 176.989922,65.5923427 172.92024,78.702338 C168.850558,91.8123333 165.058805,108.153228 189.556307,117.01749 Z" id="Path" fill="#010101"></path>
                                <path d="M213.493256,105.130584 C213.493256,105.130584 200.221064,111.056732 190.388312,106.410798 C184.304451,103.345583 179.646162,97.9609415 177.419599,91.4199142 C177.419599,91.4199142 175.254775,103.602588 185.81588,108.186577 C196.376984,112.770566 208.394792,112.522783 211.753304,108.186577 C214.707177,104.366586 213.493256,105.130584 213.493256,105.130584 Z" id="Path" fill="#FFFFFF"></path>
                                <path d="M246.020517,51.1951519 C246.020517,51.1951519 234.853906,51.6946421 235.68694,59.5199882 C235.837338,62.1071296 237.084475,64.4874765 239.085659,66.0069513 C241.086844,67.526426 243.631542,68.0251734 246.020517,67.3661464 C246.020517,67.3661464 251.098052,66.9915288 251.970753,59.5199882 C252.288311,57.5796209 251.830354,55.5876646 250.7046,54.0126481 C249.578846,52.4376316 247.884654,51.4185681 246.020517,51.1951519 Z" id="Path" fill="#C4C3C6"></path>
                                <path d="M164.460276,219.407794 C164.460276,219.407794 83.8877028,269.699227 81.081288,270.184158 C74.808195,270.900978 68.463079,270.696735 62.2498385,269.577994 C69.0218392,266.203679 111.870505,227.712245 111.870505,227.712245 L116.324163,227.025259 C115.490373,228.702313 98.2451578,245.008134 98.2451578,245.008134 C101.071909,242.502654 121.428584,227.025259 121.428584,227.025259 L125.658542,225.893752 C123.970626,227.9143 112.663622,237.693751 112.663622,237.693751 L127.06175,227.308136 L130.193546,225.045122 C131.955542,224.653547 133.756873,224.463726 135.562339,224.479369 L125.39417,233.208135 L138.429763,224.74204 L164.460276,219.407794 Z" id="Path" fill="#FFFFFF"></path>
                                <path d="M166.57278,157.628933 C167.789372,159.195406 165.842825,161.367581 165.842825,161.367581 C168.519327,159.153633 170.66864,157.691592 170.66864,157.691592 C170.952511,159.90554 173.993991,171.622756 176.143304,170.787304 C178.292616,169.951851 184.253917,162.808736 184.253917,162.808736 L183.990322,170.286032 L186.970973,161.409354 L188.755308,160.323266 C188.755308,160.323266 192.121212,172.374663 194.53412,172.374663 C196.947028,172.374663 203.354412,165.127116 203.354412,165.127116 L203.881602,173.043024 C204.408792,170.829076 207.28806,162.95494 207.28806,162.95494 C207.835526,165.711932 214.547059,169.220831 214.547059,169.220831 C214.547059,169.220831 215.581162,179.663982 216.371947,177.199398 C216.980243,175.298745 220.528636,168.448038 220.528636,168.448038 C228.294549,181.961475 214.222634,202.952209 214.222634,202.952209 C205.341513,202.952209 207.429995,185.365943 207.429995,185.365943 C207.166401,186.744439 195.041033,195.683776 189.363604,196.477456 C185.511062,197.0205 187.112909,180.081708 187.112909,180.081708 C185.774657,183.131108 167.586607,189.626748 161.94973,189.062818 C156.312854,188.498888 164.970934,174.02468 164.970934,174.02468 C164.970934,174.02468 127.297134,183.214654 139.523884,169.84742 C147.147861,161.26315 165.072316,155.686507 166.57278,157.628933 Z" id="Path" fill="#FFFFFF"></path>
                                <path d="M89.6188865,223.071544 C90.1962477,222.673657 75.7003562,239.484394 75.7003562,239.484394 L92.6706531,223.111333 L94.2583965,226.115382 C95.5550144,227.326623 97.0811688,228.285738 98.7535663,228.940381 C95.0831983,233.416613 43.6361865,269.584567 43.6361865,269.584567 C45.3682703,270.698651 49.8221999,273.205341 49.8221999,273.205341 L48.6262373,274.259742 C44.9645259,273.841701 41.4805893,272.50403 38.5224154,270.380342 C38.5224154,270.380342 61.5343854,241.931401 89.6188865,223.071544 Z" id="Path" fill="#FFFFFF"></path>
                                <path d="M151.683972,205.119681 C149.073737,208.303211 146.022929,211.078929 142.628332,213.358779 C142.628332,213.358779 148.154793,203.809366 146.913763,204.861589 C144.646785,205.579091 142.314253,206.058047 139.952362,206.291023 C139.952362,206.291023 132.506183,214.391148 124.80792,216.019115 C124.80792,216.019115 125.447826,215.50293 122.480989,219.394167 C122.480989,219.394167 142.22112,219.969911 151.257368,213.636725 C151.044296,210.7907 151.18766,207.92846 151.683972,205.119681 L151.683972,205.119681 Z" id="Path" fill="#FFFFFF"></path>
                                <path d="M192.783585,248.65848 L196.873794,243.176972 C196.873794,243.176972 193.033222,243.375577 190.440835,243.176972 C190.440835,243.176972 185.37128,251.63756 190.440835,254.060545 C190.440835,254.060545 197.44988,254.854967 200.964004,251.63756 C199.50261,249.586701 198.445586,247.258536 197.85314,244.785675 C197.85314,244.785675 194.531045,248.618758 193.762931,249.611785 L192.783585,248.65848 Z" id="Path" fill="#C4C3C6"></path>
                                <path d="M149.887208,292.776519 L153.896927,285.230132 C153.896927,285.230132 149.111743,286.258303 145.953143,286.529895 C145.953143,286.529895 141.300355,297.917373 148.014744,299.857318 C148.014744,299.857318 158.909077,298.712751 162.63509,294.037483 C162.63509,294.037483 156.147666,290.157593 155.410029,286.976083 C155.410029,286.976083 152.043378,292.349731 151.267913,293.727092 L149.887208,292.776519 Z" id="Path" fill="#C4C3C6"></path>
                                <path d="M175.701511,288.348721 C175.701511,288.348721 173.617781,297.945925 180.619112,299.857318 C180.619112,299.857318 189.787522,299.4348 193.663259,294.867577 C191.506802,291.864111 189.716826,288.630202 188.328911,285.230132 L175.701511,288.348721 Z" id="Path" fill="#C4C3C6"></path>
                                <path d="M160.810138,199.111294 C160.810138,199.111294 160.668894,213.495165 167.327536,213.906132 C173.986179,214.3171 180.886954,206.899132 180.886954,206.899132 C179.468608,203.249299 178.361471,199.481881 177.57781,195.638616 C177.57781,195.638616 162.827908,199.111294 160.810138,199.111294 Z" id="Path" fill="#FFFFFF"></path>
                                <path d="M298.55073,140.786668 C301.809333,148.110518 295.841542,155.413854 295.841542,155.413854 C290.802074,154.347075 286.747765,142.653532 286.747765,142.653532 L298.55073,140.786668 Z" id="Path" fill="#C4C3C6"></path>
                                <path d="M262.543908,137.129871 L264.791831,138.845302 C265.005614,141.413652 264.577964,144.000555 263.564119,146.271863 C261.627448,145.644266 261.195155,142.380763 261.195155,142.380763 L262.543908,137.129871 Z" id="Path" fill="#C4C3C6"></path>
                                <path d="M304.999629,140.490025 C304.999629,140.490025 310.124907,149.343464 315.424663,149.928659 C315.424663,149.928659 319.98289,141.28287 316.4061,137.129871 C312.774947,138.645101 308.944803,139.773397 304.999629,140.490025 Z" id="Path" fill="#C4C3C6"></path>
                                <path d="M261.194068,403.120486 C261.194068,404.270831 250.500864,402.40152 243.832859,405.349279 C237.164853,408.297039 238.181318,398.543071 244.666359,398.591002 C251.151401,398.638933 261.316043,398.327381 261.194068,403.120486 Z" id="Path" fill="#FFFFFF"></path>
                                <path d="M184.536364,401.68213 C184.657992,402.84472 173.224985,400.421015 167.042242,404.637868 C160.859499,408.85472 161.285196,401.288031 167.670652,400.125441 C174.056108,398.962851 184.029582,396.696785 184.536364,401.68213 Z" id="Path" fill="#FFFFFF"></path>
                                <path d="M230.188156,199.227668 C229.894591,199.227668 232.751956,191.72178 232.712814,190.520099 C232.673672,189.318417 236.00074,191.370519 239.17124,192.368839 C240.051935,192.646151 236.059453,200.078089 230.188156,199.227668 Z" id="Path" fill="#C4C3C6"></path>
                                <path d="M215.242553,274.259742 L199.138818,279.37306 C199.138818,279.37306 201.039518,290.28147 204.318748,294.372124 C204.318748,294.372124 211.629134,294.231758 222.866241,282.741833 C222.866241,282.741833 215.409648,276.264965 215.242553,274.259742" id="Path" fill="#C4C3C6"></path>
                                <path d="M179.214243,255.97576 L168.110649,264.055303 C168.110649,264.055303 168.850889,266.445811 176.253285,264.055303 C183.65568,261.664796 180.213566,260.349091 179.214243,255.97576 Z" id="Path" fill="#C4C3C6"></path>
                                <path d="M226.042065,206.609006 L221.041055,213.705476 C221.041055,213.705476 222.893281,214.734572 226.551427,212.31191 C230.209573,209.889248 227.338623,209.074547 226.042065,206.609006 Z" id="Path" fill="#C4C3C6"></path>
                                <path d="M204.378394,345.214014 C204.378394,345.214014 197.734512,348.571337 195.947269,334.585923 C194.160025,320.600509 197.889924,316.048555 202.02778,309.622267 C206.165637,303.19598 210.692024,303.958072 206.748434,312.238096 C201.648877,322.39657 200.789506,334.353567 204.378394,345.214014 Z" id="Path" fill="#FFFFFF"></path>
                                <path d="M149.542667,351.049527 C149.542667,351.049527 143.209719,351.501156 144.576404,341.216333 C145.943089,330.931511 147.752502,327.154251 152.564773,323.787563 C157.377043,320.420874 158.339497,321.098318 155.779369,327.585351 C152.489257,334.981578 150.381321,342.912208 149.542667,351.049527 Z" id="Path" fill="#FFFFFF"></path>
                                <path d="M142.55804,73.1493797 C140.349564,72.8206138 133.432108,78.628811 133.432108,78.628811 C134.691486,81.2224084 140.221801,85.9347193 140.221801,85.9347193 L142.55804,73.1493797 Z" id="Path" fill="#C4C3C6"></path>
                                <path d="M238.421742,40.2247622 C238.280247,36.1522351 237.334754,32.1515811 235.642546,28.4651761 C235.642546,28.4651761 238.401748,20.6459749 241.78077,20.1123811 C244.623306,23.9670345 246.8629,28.2530611 248.41885,32.8160178 C248.217208,34.7789567 248.150396,36.7540277 248.218908,38.7265951 C244.883949,38.4316536 241.528119,38.9448217 238.421742,40.2247622 L238.421742,40.2247622 Z" id="Path" fill="#C4C3C6"></path>
                                <path d="M243.317475,142.615066 C243.317475,142.615066 248.847083,130.20621 252.069223,124.021991 L242.943291,111.532295 L243.317475,142.615066 Z" id="Path" fill="#FFFFFF"></path>
                                <path d="M270.905582,235.824578 C273.074943,235.003761 283.097392,226.497102 283.097392,226.497102 C278.953912,227.485814 275.027368,223.064591 275.027368,223.064591 C273.35696,224.743536 268.692833,236.626741 270.905582,235.824578 Z" id="Path" fill="#C4C3C6"></path>
                                <path d="M252.496336,250.468781 C255.538805,248.200517 258.443202,245.765898 261.195155,243.176972 C258.754532,243.567597 256.263576,243.567597 253.822953,243.176972 C252.894321,244.088448 251.30238,250.924519 252.496336,250.468781 Z" id="Path" fill="#C4C3C6"></path>
                                <path d="M233.110706,272.405249 C234.623411,273.101545 242.943291,259.632556 242.943291,259.632556 C239.056213,262.842207 234.765812,265.421876 230.204719,267.29182 C229.93321,269.535976 231.150049,271.677148 233.110706,272.405249 Z" id="Path" fill="#C4C3C6"></path>
                                <path d="M248.066327,57.894493 C248.066327,57.894493 247.912046,60.8259562 249.719337,61.1784739 C251.526628,61.5309917 252.452313,57.3564397 252.253952,56.0020295 C251.94539,54.146673 250.049939,50.8997993 244.606026,52.4768523 C239.162113,54.0539052 238.919672,54.7960478 240.043719,56.0391366 C241.167765,57.2822254 246.214956,52.7366022 248.066327,57.894493 Z" id="Path" fill="#FFFFFF"></path>
                                <path d="M126.339015,288.249094 L140.732853,281.573336 C140.732853,281.573336 33.7212775,360.194462 18.4453651,360.194462 L126.339015,288.249094 Z" id="Path" fill="#FFFFFF"></path>
                                <path d="M48.4743753,329.103381 C52.2231163,328.039449 55.6849209,326.291837 58.6415091,323.970737 C61.5493094,322.005044 65.8195056,320.021149 67.6495897,317.145413 C67.766938,316.951059 67.7467668,316.713283 67.5979778,316.537018 C67.4491889,316.360752 67.1991579,316.278427 66.9582246,316.326374 C63.4607305,317.127212 60.2885848,320.184957 57.4214531,322.114249 C54.5543213,324.043541 51.1788329,326.082037 47.9456843,327.956727 C47.6769844,328.128994 47.5761438,328.444169 47.7022312,328.717634 C47.8283186,328.9911 48.1481481,329.15088 48.4743753,329.103381 L48.4743753,329.103381 Z" id="Path" fill="#FFFFFF"></path>
                                <path d="M21.1573652,341.910479 C21.1573652,341.910479 70.3858388,293.509604 75.0261432,292.01267 C74.1858761,291.671459 73.3898665,291.236036 72.6544321,290.715327 C72.6544321,290.715327 45.3488187,312.490731 20.2705514,337.040453 L21.1573652,341.910479 Z" id="Path" fill="#FFFFFF"></path>
                                <path d="M300.989005,71.307533 C300.989005,71.307533 293.510384,71.6270136 294.07941,76.8664949 C294.182453,78.5919134 295.018016,80.178076 296.356304,81.1887623 C297.694592,82.1994486 299.394676,82.5282268 300.989005,82.0846776 C300.989005,82.0846776 304.382836,81.8503918 304.931539,76.8664949 C305.14687,75.5761537 304.846504,74.2497831 304.100889,73.1984672 C303.355273,72.1471512 302.230006,71.4633834 300.989005,71.307533 Z" id="Path" fill="#FFFFFF"></path>
                                <path d="M202.422717,73.1359313 C202.422717,73.1359313 194.957584,73.3996755 195.518547,77.770294 C195.626183,79.2054129 196.461737,80.5237047 197.797239,81.365487 C199.13274,82.2072693 200.828819,82.4846958 202.422717,82.1220735 C202.422717,82.1220735 205.810076,81.9148459 206.371039,77.770294 C206.587314,76.6940385 206.286649,75.5875056 205.539715,74.7107885 C204.792781,73.8340714 203.665455,73.264492 202.422717,73.1359313 Z" id="Path" fill="#FFFFFF"></path>
                                <path d="M290.21908,82.2779227 C290.21908,82.2779227 286.50052,82.453132 286.760819,85.0618027 C286.817444,85.9222907 287.236864,86.7117607 287.905242,87.2159381 C288.57362,87.7201156 289.421619,87.8866984 290.21908,87.6704734 C290.21908,87.6704734 291.911025,87.5536673 292.189917,85.0618027 C292.296378,84.4166982 292.145939,83.754084 291.773609,83.2281541 C291.401279,82.7022241 290.839529,82.358845 290.21908,82.2779227 L290.21908,82.2779227 Z" id="Path" fill="#FFFFFF"></path>
                                <path d="M193.484202,82.2779227 C193.484202,82.2779227 189.765641,82.453132 190.025941,85.0618027 C190.082566,85.9222907 190.501986,86.7117607 191.170363,87.2159381 C191.838741,87.7201156 192.68674,87.8866984 193.484202,87.6704734 C193.484202,87.6704734 195.176146,87.5536673 195.455038,85.0618027 C195.561499,84.4166982 195.41106,83.754084 195.03873,83.2281541 C194.6664,82.7022241 194.10465,82.358845 193.484202,82.2779227 Z" id="Path" fill="#FFFFFF"></path>
                                <path d="M314.0299,38.3963639 C311.155262,37.2889842 308.113201,36.5574793 304.999629,36.2249129 C304.999629,36.2249129 309.731739,30.5499442 312.66606,29.2543725 C312.66606,29.2543725 314.56717,36.4438827 314.0299,38.3963639 Z" id="Path" fill="#C4C3C6"></path>
                                <path d="M217.390682,139.518249 C217.390682,139.518249 217.837295,146.482832 221.11246,149.928659 C221.11246,149.928659 225.150589,144.623179 224.648149,142.070714 L222.470908,137.129871 C222.470908,137.129871 218.414171,139.117147 217.390682,139.518249 Z" id="Path" fill="#C4C3C6"></path>
                                <path d="M109.603514,202.952209 C109.348698,207.553543 116.908247,213.275201 116.908247,213.275201 C118.139859,218.256645 107.331402,222.317822 103.38175,220.977433 C99.4320973,219.637045 100.812352,210.274331 100.812352,210.274331 L109.603514,202.952209 Z" id="Path" fill="#FFFFFF"></path>
                                <path d="M118.830617,198.326966 C118.830617,198.326966 120.731852,204.630711 123.564694,204.777798 C126.397535,204.924886 131.606921,199.251515 131.606921,198.326966 C130.132749,195.24667 129.374859,191.809537 129.401488,188.325023 C129.401488,188.325023 121.720495,192.632582 118.830617,198.326966 Z" id="Path" fill="#FFFFFF"></path>
                                <path d="M284.922578,172.178975 C284.922578,172.178975 290.125396,169.726597 289.913036,166.384244 C289.913036,166.384244 302.229909,174.750016 295.880349,178.250587 C291.059779,181.058955 287.046177,177.08373 284.922578,172.178975 Z" id="Path" fill="#C4C3C6"></path>
                                <path d="M204.614377,259.555261 C204.614377,259.555261 205.207563,267.151025 207.02949,268.774548 C207.02949,268.774548 223.00313,264.715742 228.3418,261.874578 C228.3418,261.874578 223.00313,253.679656 223.405649,250.490565 C223.405649,250.471267 207.008305,259.845175 204.614377,259.555261 Z" id="Path" fill="#C4C3C6"></path>
                                <path d="M170.333331,266.243907 C170.333331,266.243907 168.762679,277.869437 171.865675,281.573336 C171.865675,281.573336 189.104537,278.597371 193.663259,275.428718 C191.757112,271.665791 190.460257,267.556271 189.8324,263.289353 C189.8324,263.289353 175.562453,263.781779 170.333331,266.243907 Z" id="Path" fill="#C4C3C6"></path>
                                <path d="M228.3418,244.501965 C229.898897,249.043889 231.74212,253.486512 233.860816,257.804158 C238.781202,255.530121 243.129009,252.218087 246.593664,248.104642 C246.593664,248.104642 241.509216,237.126069 241.487488,234.03498 C241.487488,234.013697 230.753654,243.905071 228.3418,244.501965 Z" id="Path" fill="#C4C3C6"></path>
                                <path d="M159.440761,133.473075 C162.230647,135.536941 165.124465,137.454217 168.110649,139.217241 C168.110649,139.217241 163.493934,145.769521 157.858507,146.271863 C157.815157,146.271863 155.539312,138.780422 159.440761,133.473075 Z" id="Path" fill="#C4C3C6"></path>
                                <path d="M138.909321,185.367717 C138.909321,185.367717 138.728832,196.181464 142.138079,197.467015 C145.44096,197.217732 148.671868,196.4243 151.683972,195.122776 C151.683972,195.122776 149.157118,189.262179 151.683972,184.668227 C151.683972,184.668227 140.393347,186.615457 138.909321,185.367717 Z" id="Path" fill="#FFFFFF"></path>
                                <path d="M190.240402,209.015425 C194.072146,207.833167 197.814949,206.418475 201.444316,204.780608 C201.444316,204.780608 205.04413,213.399487 206.439563,214.481511 C206.439563,214.481511 192.282993,218.567084 184.537327,217.354471 C184.537327,217.354471 190.098837,211.86973 190.240402,209.015425 Z" id="Path" fill="#FFFFFF"></path>
                                <path d="M246.593664,225.607959 C246.593664,225.607959 249.070257,237.268984 255.480261,237.681764 C261.890266,238.094543 264.845528,225.607959 264.845528,225.607959 C264.845528,225.607959 257.020328,220.572048 256.708152,217.579396 C256.708152,217.579396 249.736231,225.834988 246.593664,225.607959" id="Path" fill="#C4C3C6"></path>
                                <path d="M269.277161,199.295413 C269.277161,199.295413 264.367343,204.980731 261.195155,205.951395 C261.195155,205.951395 263.781397,215.856132 269.034701,217.460699 C274.288005,219.065266 277.621833,203.871401 277.621833,203.871401 C277.621833,203.871401 271.600738,202.326262 269.277161,199.295413 Z" id="Path" fill="#C4C3C6"></path>
                                <path d="M256.938583,184.668227 C256.938583,184.668227 261.030427,190.554392 264.845528,191.432328 C264.845528,191.432328 259.429271,199.772725 254.210687,199.273897 C254.210687,199.273897 248.458385,195.702292 248.41885,190.055564 C248.49792,190.055564 254.744406,187.302036 256.938583,184.668227 Z" id="Path" fill="#C4C3C6"></path>
                                <path d="M229.589408,217.579396 C229.589408,217.579396 235.176924,224.306902 239.292919,224.089886 C239.292919,224.089886 233.001631,231.172509 226.966261,230.304444 C222.645175,229.09473 220.149572,224.923422 221.336092,220.893827 C224.200188,220.047363 226.965164,218.936983 229.589408,217.579396 Z" id="Path" fill="#C4C3C6"></path>
                                <path d="M213.863323,230.378184 C213.863323,230.378184 220.579459,238.186672 222.866241,239.20517 C222.866241,239.20517 214.810999,248.351685 207.229594,246.614247 C207.229594,246.614247 202.2852,238.266554 205.993495,231.875975 C208.656624,231.598945 211.289833,231.097791 213.863323,230.378184 Z" id="Path" fill="#C4C3C6"></path>
                                <path d="M243.530549,201.126132 C243.530549,201.001303 249.914789,205.952854 252.069223,206.223317 C252.069223,206.223317 249.045109,219.26795 242.087671,217.395514 C242.087671,217.395514 235.525541,216.272053 235.644134,205.952854 C238.73307,205.377879 241.52781,203.667414 243.530549,201.126132 L243.530549,201.126132 Z" id="Path" fill="#C4C3C6"></path>
                                <path d="M285.845425,184.668227 C285.845425,184.668227 291.8952,192.317392 297.698883,191.922086 C297.698883,191.922086 293.802418,200.480455 286.870811,199.156181 C286.870811,199.156181 279.036865,198.721344 277.621833,192.435984 C277.64234,192.435984 285.045625,187.040061 285.845425,184.668227 Z" id="Path" fill="#C4C3C6"></path>
                                <path d="M268.351536,166.384244 C268.351536,166.384244 274.889209,173.137841 279.447019,173.979593 C279.447019,173.979593 274.394243,185.862009 268.43403,184.570017 C262.473817,183.278024 261.195155,175.995885 261.195155,175.995885 C264.207939,173.257275 266.637548,169.9941 268.351536,166.384244 Z" id="Path" fill="#C4C3C6"></path>
                                <path d="M243.617459,171.869439 C243.617459,171.869439 251.222403,174.164676 253.89441,174.708284 C253.89441,174.708284 247.091068,183.768431 241.4593,182.761748 C235.827531,181.755065 235.642546,174.708284 235.642546,174.708284 C238.443101,174.201506 241.138152,173.242144 243.617459,171.869439 Z" id="Path" fill="#C4C3C6"></path>
                                <path d="M195.491014,143.481979 C195.491014,143.481979 207.042488,142.549766 210.089936,140.786668 C210.089936,140.786668 208.99862,154.060569 202.800771,157.242252 C198.14575,154.176834 195.392265,148.993527 195.491014,143.481979 Z" id="Path" fill="#C4C3C6"></path>
                                <path d="M270.327144,138.95827 L280.918226,141.647091 C280.918226,141.647091 282.93174,151.520441 277.354307,157.242252 C272.727233,152.461503 270.179772,145.83326 270.327144,138.95827 Z" id="Path" fill="#C4C3C6"></path>
                                <path d="M175.411395,140.786668 C175.411395,140.786668 182.672595,144.494969 188.1877,144.14474 C187.725337,148.673069 185.25484,152.784499 181.416258,155.413854 C178.20036,151.090841 176.137676,146.066371 175.411395,140.786668 L175.411395,140.786668 Z" id="Path" fill="#C4C3C6"></path>
                                <path d="M281.272206,214.15726 C281.272206,214.15726 286.132783,217.501175 288.780415,217.579396 C288.780415,217.579396 295.498286,209.36627 295.873697,206.609006 C295.873697,206.609006 287.06143,208.564512 285.085585,207.039217 C285.085585,207.039217 284.156939,212.514635 281.272206,214.15726 Z" id="Path" fill="#C4C3C6"></path>
                                <path d="M321.426306,134.219743 C324.62162,132.512105 327.615549,130.42069 330.347425,127.98788 C330.347425,127.98788 335.712017,134.614428 333.784737,140.783973 C328.877703,140.879712 324.246001,138.419566 321.426306,134.219743 L321.426306,134.219743 Z" id="Path" fill="#C4C3C6"></path>
                                <path d="M153.509158,128.772341 C153.509158,128.772341 147.922676,122.436307 146.591601,118.845888 C144.196143,122.666681 142.804873,127.081283 142.55804,131.644676 C142.55804,131.644676 151.00835,130.926593 153.509158,128.772341 Z" id="Path" fill="#C4C3C6"></path>
                                <path d="M106.853575,341.910479 C106.853575,341.910479 208.700822,243.900695 221.041055,212.094201 C221.041055,212.094201 115.826457,318.517445 69.550584,337.673629 L106.853575,341.910479 Z" id="Path" fill="#010101"></path>
                                <path d="M190.067812,36.9451628 C193.735748,37.0741795 197.383857,37.5600502 200.964004,38.3963639 C200.964004,38.3963639 197.325454,28.0968668 193.472872,25.597576 C193.472872,25.597576 189.503545,31.5636252 190.067812,36.9451628 Z" id="Path" fill="#C4C3C6"></path>
                                <path d="M147.04165,62.1655416 C147.04165,62.1655416 153.608353,50.823026 157.159531,49.3667536 C157.159531,49.3667536 146.287768,50.0846344 144.383226,50.4538302 C144.383226,50.4538302 145.037913,61.2425521 147.04165,62.1655416 Z" id="Path" fill="#C4C3C6"></path>
                                <path d="M166.285463,45.7099571 C166.285463,45.7099571 169.009974,42.4010021 179.061768,39.3209686 C179.061768,39.3209686 171.837686,34.7841625 168.308206,32.9111691 C167.123295,37.0792995 166.444089,41.3769352 166.285463,45.7099571 Z" id="Path" fill="#C4C3C6"></path>
                                <path d="M321.426306,44.8911887 C321.426306,44.8911887 331.5187,50.3902141 332.96047,53.0235502 C333.659697,48.782045 334.074451,44.5085011 334.202611,40.2247622 C329.55812,40.8051337 325.160384,42.4113657 321.426306,44.8911887 L321.426306,44.8911887 Z" id="Path" fill="#C4C3C6"></path>
                                <path d="M340.679194,113.360694 C340.679194,113.360694 336.793244,120.993644 334.202611,121.977893 C334.202611,121.977893 338.066972,128.947983 346.896713,124.890467 C347.467809,120.239603 345.027806,115.714858 340.679194,113.360694 Z" id="Path" fill="#C4C3C6"></path>
                                <path d="M341.503356,107.875499 C345.810765,107.67261 350.088512,107.081538 354.279661,106.110149 C354.279661,106.110149 350.079533,97.7037198 345.637514,95.0767107 C344.65281,99.4500733 343.26948,103.732677 341.503356,107.875499 L341.503356,107.875499 Z" id="Path" fill="#C4C3C6"></path>
                                <path d="M343.328543,76.7927279 C343.328543,76.7927279 346.369548,84.8296434 345.369486,89.5915159 C345.369486,89.5915159 353.12507,86.5776726 356.104848,82.2779227 C356.064029,82.2779227 349.879971,77.0338354 343.328543,76.7927279 Z" id="Path" fill="#C4C3C6"></path>
                                <path d="M337.852984,60.9037548 C339.981341,63.5958496 341.812202,66.4679045 343.319567,69.4791348 C346.006225,66.7397493 348.450246,63.8159642 350.629288,60.7345039 C346.389647,60.152907 342.07167,60.2101083 337.852984,60.9037548 L337.852984,60.9037548 Z" id="Path" fill="#C4C3C6"></path>
                                <path d="M259.975591,47.5383554 C259.975591,47.5383554 268.300196,41.6649162 273.97146,38.539052 C272.009938,33.397754 268.603289,28.9098085 264.148021,25.597576 C264.148021,25.597576 257.342505,32.1081339 259.975591,47.5383554 Z" id="Path" fill="#C4C3C6"></path>
                                <path d="M281.272206,36.5679657 C285.507673,36.2775042 289.758613,36.2775042 293.994081,36.5679657 C294.365948,31.9099648 292.821095,27.2999466 289.70511,23.7691777 C285.676132,27.1303204 282.743353,31.5814575 281.272206,36.5679657 Z" id="Path" fill="#C4C3C6"></path>
                                <path d="M144.383226,109.68688 C144.383226,109.68688 140.478753,99.899919 140.977658,96.905109 C137.567916,99.9350783 134.434203,103.207984 131.606921,106.69207 C131.606921,106.69207 139.025421,110.332819 144.383226,109.608584" id="Path" fill="#C4C3C6"></path>
                                <path d="M211.973072,39.3323297 C217.512289,40.5622027 222.976725,42.0808896 228.3418,43.8815588 C228.3418,43.8815588 223.742668,29.6951471 217.680176,23.7691777 C217.680176,23.7691777 211.241392,32.2890058 211.973072,39.3323297 Z" id="Path" fill="#C4C3C6"></path>
                            </g>
                        </g>
                    </g>
                </g>
            </g>
        </g>
    </g>
</svg>