<?xml version="1.0" encoding="UTF-8"?>
<svg width="564px" height="379px" viewBox="0 0 564 379" version="1.1" xmlns="http://www.w3.org/2000/svg" xmlns:xlink="http://www.w3.org/1999/xlink">
    <!-- Generator: Sketch 59.1 (86144) - https://sketch.com -->
    <title>Group 41 Copy</title>
    <desc>Created with Sketch.</desc>
    <g id="Joystream---Website" stroke="none" stroke-width="1" fill="none" fill-rule="evenodd">
        <g id="Main-Page" transform="translate(-749.000000, -213.000000)">
            <g id="Group-4" transform="translate(720.000000, 89.000000)">
                <g id="Group-41-Copy" transform="translate(26.000000, 124.000000)">
                    <g id="Group-25" transform="translate(281.655916, 89.257854) scale(-1, 1) rotate(1.000000) translate(-281.655916, -89.257854) translate(244.155916, 0.757854)">
                        <path d="M25.010689,2.56262742 C26.7368931,0.820279009 31.6547027,-0.516011393 35.7708546,0.366906133 C39.8519373,1.24230128 44.0257069,3.38721465 46.1465779,6.76031545 C48.127122,8.86822238 48.3293397,11.2869467 46.7413359,13.6604612 C47.1874044,15.9831147 47.4112276,17.9066054 47.3339091,20.1670954 C47.9108243,22.0828606 46.47151,23.3543863 45.4128408,24.4846313 C44.2114297,25.7505057 44.2590103,26.7903311 44.8894538,28.1014153 C46.0551794,29.4068483 47.1297963,28.34388 48.3193122,29.5306373 L49.3482435,30.1240159 C51.394211,30.6213237 54.3539657,30.3434369 56.4534613,30.6655567 C62.0085008,31.5358454 62.8335469,37.8276124 65.9619739,41.3031158 C68.4302195,44.0326575 65.7559486,48.3511702 65.3217753,51.4141342 C64.7934284,55.0779767 64.956564,58.8019689 65.8035293,62.4114181 C66.5112913,65.3557063 67.6829645,68.2547847 67.6532266,71.2725389 C67.6532266,74.465481 66.2793357,77.5680036 66.4637106,80.7496433 C66.8086703,86.7625467 74.7130038,93.9113463 70.6686495,99.87904 C70.1333674,100.675863 69.3720771,101.359661 69.0806457,102.263857 C68.8765053,103.154395 68.911274,104.079408 69.1817546,104.95384 C70.3712705,110.203828 71.7927421,115.465119 72.1555445,120.828131 C72.5242944,126.332424 70.6767819,131.91376 71.7295035,137.361541 C71.7770842,137.627149 71.83656,137.898408 71.8900882,138.164015 C72.8654913,142.741508 74.5486563,147.234231 74.8757732,151.941702 C75.1672046,155.931467 63.6784173,166.934276 47.8913859,172.921902 C32.1043546,178.909528 14.3587938,175.023767 13.7474993,175.126129 C2.91687946,176.939449 9.1832722,134.967084 2.91360436,101.202596 C-1.73713516,76.1566371 -0.344469341,51.3653672 5.13829407,41.3754547 C6.2028116,37.4095354 10.1017796,35.6519979 13.8618266,34.077228 C17.7430595,32.475155 19.5786927,30.6184216 23.148156,28.4588345 C23.2016842,26.7408621 25.5589316,28.6215472 25.1366534,26.9261797 L24.9939115,26.7848991 C23.388065,26.7170844 23.429698,25.4455588 23.0787908,24.4565944 C23.7092343,22.4786656 20.5747353,17.8694759 20.2773563,16.0667351 C19.504482,11.8240345 21.8198698,5.62004777 25.010689,2.56262742 Z" id="Path" fill="#000000"></path>
                        <path d="M36.062166,69.8136476 C35.9788446,76.2109454 37.585758,81.8442166 39.9961282,87.7169588 C45.2751365,74.5061397 49.4114508,60.9190089 51.4825837,46.8358311 C51.8793524,44.1750417 52.2007351,41.5142524 52.4467318,38.853463 C52.5657624,37.6447044 52.3455557,36.0026173 51.0957341,35.8315665 C49.6076337,48.3465565 46.7347499,60.6744899 42.525529,72.6074764 C42.4480418,72.8950779 42.303576,73.162134 42.1029703,73.3886081 C41.4006896,74.0728111 40.7460212,73.3886081 40.9721793,72.6245815 C44.0253149,62.3330284 45.9179019,51.8305128 47.7985858,41.23677 C48.0999457,38.9374789 48.2292255,36.6204796 48.1854353,34.3035132 C45.9476595,33.1232631 42.525529,31.3215286 40.8710033,32.4333584 C40.4424931,38.1350499 38.6808398,43.8367413 38.2701841,49.6296599 C38.2455243,50.8153326 38.0757369,51.9941388 37.764304,53.1419018 C37.6041826,53.6327439 37.4052213,54.1111727 37.1691508,54.5730264 C36.8596712,59.6703385 36.1335844,64.7220371 36.062166,69.8136476 Z" id="Path" fill="#C4C3C6" fill-rule="nonzero"></path>
                        <path d="M20.6257194,72.1308545 C24.4264122,70.1794816 26.8176562,66.4514855 29.7931589,63.4283136 C30.9014433,62.3040898 32.7445685,62.4264147 31.2387473,64.057413 C30.1906957,65.1874618 29.0643415,66.2650857 27.9560571,67.3368845 C25.8057444,69.4280573 23.6072454,71.4609802 21.4388629,73.534678 C21.1860519,73.7417478 20.9808738,73.9977142 20.8365344,74.2861022 C20.7007794,74.6880924 20.6697448,75.1162769 20.7461851,75.5326509 C21.0763721,78.8497818 21.108617,82.1883488 20.8425577,85.5108655 C20.6979989,87.2583637 20.4811606,89.1281867 21.1557685,90.75336 C20.9810932,90.3223104 23.661455,87.2001137 24.0108055,86.6758643 C25.6732321,84.2643168 27.2874724,81.8236443 28.8294334,79.324722 C30.4978832,76.5869748 33.1661984,73.8841777 33.6119215,70.6280061 C33.8408063,68.9096329 33.4492928,67.1330097 33.5095257,65.4321115 C33.5623483,63.6309252 33.7515847,61.8359037 34.0757144,60.0614672 C34.3286757,58.9990597 34.4599705,57.9129567 34.4672279,56.8227706 C34.4777661,56.6323019 34.4226894,56.4438312 34.3106225,56.2868711 C33.9913884,55.9024215 33.3589435,56.1761962 32.9433369,56.4616209 C29.5121307,58.8353684 25.7918969,60.7917365 21.8665161,62.2866148 C21.1075822,62.5778645 20.2643224,62.9273642 19.9872513,63.6613134 C19.8777874,64.0201814 19.8490344,64.3975538 19.9029253,64.7680622 C20.0514996,67.2495096 20.292431,69.7037737 20.6257194,72.1308545 Z" id="Path" fill="#C4C3C6" fill-rule="nonzero"></path>
                        <path d="M59.3929397,43.8874795 C59.762643,53.1698116 57.967793,62.9822403 55.8151656,71.9938847 C53.5850198,81.4566752 50.1265048,90.3837297 46.1790274,99.3051448 C40.9554772,111.113895 34.0265214,122.279763 26.2508257,132.757632 C25.2371231,134.122349 23.323014,136.287851 21.3075345,135.300968 C21.5877935,135.436312 28.9878229,124.298642 29.6556741,123.266645 C32.434412,119.138657 35.1177425,114.948638 37.5804437,110.640192 C42.4666716,102.168076 46.4860676,93.2739445 49.5838758,84.0789622 C50.1801714,82.2010664 50.7764671,80.3062525 51.3190962,78.4057994 C51.8239599,76.5899361 52.2850952,74.764674 52.7025022,72.930013 C54.8670555,63.3431573 55.7376472,53.5476465 56.0954246,43.757775 C56.172943,41.6655847 55.6899435,38.9135932 53.5015384,38.5977909 C55.4335364,56.3278346 47.0973228,73.431913 39.5899601,89.7803217 C34.086151,101.865399 28.8566379,114.114017 22.2377558,125.702834 C21.4208307,127.129584 20.550239,128.590169 19.1906849,129.58833 C21.3373493,125.31936 23.4780508,121.056029 25.666456,116.803976 C27.9045524,112.461694 30.0710934,108.089336 32.1660789,103.686902 C34.4638049,98.8521189 36.6283583,93.9647022 38.6597389,89.0246519 C38.348772,89.0645624 38.0322219,89.0195591 37.7474065,88.8949474 C37.4075179,89.1656351 36.2566673,89.1769137 36.1016304,88.8329148 C34.3380765,85.01649 33.0802876,81.0084746 32.3568935,76.9000991 C30.4407967,80.0957177 28.4531445,83.2518609 26.3939367,86.3685289 C25.3285551,87.9776169 24.2413093,89.5697868 23.1321993,91.1450388 C22.4106816,92.1713963 20.5263872,93.9647022 20.281906,95.1602395 C17.9802046,105.491486 15.8812438,115.896044 15.1299113,126.509258 C14.6648007,133.101631 15.0702817,139.665807 15.2014668,146.246902 C15.257121,148.848511 15.4300468,151.440722 15.720244,154.023534 C18.4333894,151.057248 21.0869051,148.012011 23.59731,144.916021 C32.8577819,133.597892 41.2996102,121.314479 49.45733,98.6386839 C48.638042,102.999827 42.5509348,121.884787 36.7288246,131.721889 C30.68605,141.931829 23.4504265,150.106741 20.3892028,153.673894 C19.440415,154.677114 18.6382015,155.79616 18.0040201,157.001097 C16.3880588,160.503119 16.7697244,162.674261 18.1412045,166.277791 C29.3157855,157.869554 37.818962,146.540147 43.8117336,134.302807 C49.8045052,122.065468 53.4419088,108.869443 55.8449804,95.5888284 C58.9317362,78.5193136 60.1208675,61.1911294 59.3929397,43.8874795 Z" id="Path" fill="#C4C3C6" fill-rule="nonzero"></path>
                        <path d="M54.2375804,46.0483035 C53.8997426,55.0572699 53.0776707,64.0766153 51.0337521,72.8935703 C50.6583768,74.5818866 50.2229414,76.2615537 49.727446,77.9325717 C49.22632,79.6814321 48.6745183,81.425103 48.0889328,83.1532054 C45.1637715,91.6147349 41.3683843,99.7994113 36.7544753,107.595735 C34.4290252,111.560511 31.8952419,115.416307 29.2713685,119.215018 C27.8074048,121.332333 26.0731708,122.780203 25.4143871,125.323056 C24.6542521,128.27069 23.7927658,130.844681 21.9853337,133.423861 C23.9222703,130.657859 29.490963,122.821719 29.8344314,122.328717 C32.4583049,118.530005 34.9920882,114.674209 37.3175383,110.709433 C41.9314472,102.913109 45.7268345,94.728433 48.6519958,86.2669035 C49.2150587,84.538801 49.7781217,82.7951301 50.290509,81.0462697 C50.7672356,79.3752518 51.202671,77.6955846 51.5968151,76.0072684 C53.6407336,67.1851238 54.4628056,58.170968 54.8006434,49.1620016 C54.8780103,48.0404589 54.6857465,46.9170058 54.2375804,45.8718606 L54.2375804,46.0483035 Z" id="Path" fill="#FFFFFF" fill-rule="nonzero"></path>
                        <path d="M42.5470578,39.7749863 C40.5253056,49.8857108 39.5467449,60.1424138 39.6238216,70.4146431 C39.7112688,77.342504 40.1110276,72.4621486 40.8106055,71.1663301 C40.9756141,70.9184541 41.123714,70.6618101 41.2540879,70.3978143 C41.2540879,70.3417183 41.2915653,70.2856222 41.3165502,70.2295262 C43.9087361,61.2148926 45.688912,52.0992862 47.4128718,42.8995357 C47.729154,40.6373801 47.8648353,38.3578025 47.8188768,36.0782573 L47.1380376,35.741681 C47.1005602,37.0094515 42.7781683,38.5128254 42.5470578,39.7749863 Z" id="Path" fill="#FFFFFF" fill-rule="nonzero"></path>
                        <path d="M59.7993747,47.0399766 C59.7993747,46.9465882 59.7993747,46.8531998 59.7534978,46.7653049 C59.7534978,47.1278715 59.7534978,47.4904382 59.7534978,47.8639917 C60.3269598,54.4945664 59.8280478,61.2075426 59.220178,67.8545976 C57.6202189,85.3786517 55.3951862,103.012575 49.5917502,119.70712 C43.7883142,136.401666 34.1082748,152.261209 19.6971735,163.198636 C18.8914089,164.407828 18.233902,164.375121 18.9392603,167.149305 C33.3503617,156.211878 44.3388378,139.70322 50.1652123,123.003181 C55.9915867,106.303141 58.193681,88.6747121 59.7936401,71.1341777 C60.5276715,63.1137642 61.1412759,54.983482 59.7993747,47.0399766 Z" id="Path" fill="#FFFFFF" fill-rule="nonzero"></path>
                        <path d="M43.3697019,12.4845191 C43.2124618,12.1135112 43.0160254,11.7591173 42.783503,11.4269489 C42.0683404,10.2958579 41.4997275,9.0460023 40.4387076,8.13547402 C40.2321672,7.93416826 39.9846827,7.77627526 39.711821,7.67172669 C39.4656175,7.59255032 39.201828,7.58689486 38.9556245,7.50206303 C38.5964699,7.31235975 38.2602741,7.08474522 37.9532244,6.82340841 C37.6336839,6.55606297 37.1658028,6.5350134 36.8218606,6.77250931 C36.6401596,6.39499178 36.3209558,6.09508555 35.9249764,5.92984649 C35.4863441,5.895133 35.0448874,5.91604788 34.6118909,5.9920565 C34.1429318,5.9920565 33.6798347,5.47741007 33.2577716,6.11082105 C33.1923646,6.25822296 33.0989151,6.39249937 32.9822581,6.50670292 C32.8362758,6.58349732 32.6736293,6.62611648 32.507437,6.63112293 C31.5460709,6.78947568 30.9305621,7.84139035 29.963334,7.94318854 C29.7450057,7.93677511 29.5270922,7.96544362 29.3185152,8.02802037 C28.3864591,8.42390223 27.9409479,9.86604331 27.6595725,10.6917398 C27.0733736,12.4845191 25.1916753,15.6346076 26.8330321,17.3368996 C27.0792356,17.5913951 27.4192309,17.8063024 27.4895748,18.1399743 C27.5599187,18.4736461 27.4895748,18.7055198 27.6068146,18.9713262 C27.7240543,19.2371326 28.0288777,19.3502417 28.1930134,19.5368717 C28.3970974,19.8994639 28.5152235,20.3012359 28.5388708,20.7132064 C28.7557643,21.6237347 29.5998907,22.2458347 30.2036755,22.9753885 C30.6902206,23.5692113 31.0302159,24.2648322 31.475727,24.8925878 C33.5977669,27.8843236 39.2838958,27.007728 41.3473158,24.3270422 C42.0065687,23.6082281 42.2740172,22.6306677 42.0683404,21.6916001 C42.1806809,21.5546572 42.2425557,21.3855221 42.2442001,21.2108864 C42.2440899,21.1006771 42.2323047,20.9907673 42.2090281,20.88287 C42.2090281,20.82066 42.2090281,20.7414837 42.2090281,20.7810718 C42.2307794,20.7103928 42.2602548,20.642144 42.296958,20.5774755 C42.530163,20.1830886 42.3949174,19.6812404 41.9921346,19.4463844 C41.6981004,19.2880364 41.336153,19.3056059 41.0600784,19.4916281 C40.4211216,19.9327536 37.2673718,19.1579562 36.4584173,19.118368 C34.5492183,19.0184488 32.6349833,19.0543639 30.7312545,19.2258217 C30.197069,18.4429286 29.739804,17.6136343 29.3654111,16.7487323 C29.2785883,16.584884 29.2439172,16.3999272 29.2657573,16.2171195 C29.3478252,15.8891031 29.7347164,15.7590276 30.0102299,15.5554312 C31.0243539,14.8145666 30.5319469,13.3893919 31.7688265,12.8238464 C32.3550253,12.5523845 33.052602,12.49583 33.6622488,12.2583009 C34.4301693,11.9302845 35.1511939,11.2629407 35.9718723,11.4326044 C36.6753109,11.5796462 37.2380618,12.3261663 37.9415005,12.173469 C38.199428,12.1169145 38.4514935,11.9415954 38.697697,12.0264272 C38.9439005,12.111259 39.0201064,12.5523845 39.20769,12.8181909 C39.4832035,13.2140728 40.1104362,13.2310391 40.4387076,13.5929883 C40.766979,13.9549374 40.6790491,14.3734411 40.8783567,14.7240793 C41.0718491,15.0105548 41.3771584,15.2094035 41.7249031,15.275437 C42.0726477,15.3414705 42.4332934,15.2690804 42.7248831,15.0747175 C43.2912264,14.6453265 43.5808746,13.9596161 43.4869417,13.2706273 C43.4818991,13.0049071 43.442515,12.7408317 43.3697019,12.4845191 L43.3697019,12.4845191 Z M35.0796932,21.3429993 C36.435992,21.2174738 38.2038172,20.6892207 39.4731738,21.5312875 C39.6056057,21.6213914 39.7296686,21.7210966 39.8441273,21.8294105 C39.8601045,21.9136783 39.8914415,21.9949757 39.9368657,22.070001 C39.2936437,22.3455422 38.6337751,22.5882585 37.960379,22.7970028 C36.0023242,23.2996603 33.9099359,22.591095 32.8018068,21.0501064 C33.5449011,21.2317365 34.3099531,21.3301076 35.0796932,21.3429993 Z" id="Shape" fill="#FFFFFF" fill-rule="nonzero"></path>
                        <path d="M8.67904287,91.125134 C8.50058709,93.6773573 11.1095797,97.4905791 12.2373584,99.7263934 C12.7585525,100.726996 14.5136826,105.254685 15.9676448,105.251004 C16.8040639,105.248884 15.1467342,99.1476161 15.0228353,98.6861062 C14.6202085,97.1685871 14.3899931,95.478426 13.3922999,94.3459625 C12.2465411,93.033841 10.374497,91.4495958 8.67904287,91.125134 Z" id="Path" fill="#FFFFFF" fill-rule="nonzero" transform="translate(12.436396, 98.188069) rotate(30.000000) translate(-12.436396, -98.188069) "></path>
                        <path d="M65.6964983,91.9189561 C65.3576641,90.857774 65.1621828,89.6762517 64.3281293,88.8831001 C63.3849499,87.9491924 62.1897903,87.2178159 60.8420465,86.7497958 C60.77037,86.6568057 60.6986935,86.5638155 60.6270171,86.4817653 C60.5517914,86.5312496 60.483967,86.5881861 60.4250197,86.6513356 L60.4250197,86.6513356 C60.4217388,86.6676301 60.4217388,86.6842713 60.4250197,86.7005657 C59.6887069,87.5320074 59.7734155,89.6106115 59.6756748,90.6991437 C59.6105144,91.2461448 59.0240706,93.4013291 59.851608,94.1452506 C60.3272791,94.5719114 61.526231,92.0283564 61.6239716,91.836906 C61.7933887,91.4758853 62.0149342,91.1312746 62.145255,90.7429038 C62.6144101,91.4540052 63.0835652,92.1158765 63.4093673,92.6464676 C63.8459422,93.346629 65.3185678,96.5137653 66.5305518,96.5137653 C67.1951881,96.5082953 65.800755,92.2416868 65.6964983,91.9189561 Z" id="Path" fill="#FFFFFF" fill-rule="nonzero"></path>
                        <path d="M33.2045872,31.8740853 C33.2871471,31.6269943 33.3011809,31.3621119 33.245193,31.1076669 C33.1408352,30.8593033 32.9751669,30.6415374 32.7637243,30.474791 L31.0234759,28.8432486 C31.388928,32.326969 29.3586383,34.730736 26.1565812,35.6248909 C22.8385077,36.553883 19.3870151,37.6106115 16.997074,40.0143786 C14.9957883,42.0000992 11.7952788,43.7966293 11.215196,46.5023188 C10.9152668,48.0079726 8.7634843,55.8756531 8.66305019,62.6192634 C8.51096431,72.8310122 10.5261186,82.9523538 10.7147773,84.1937589 C10.9874162,85.9820686 12.3587632,87.8284876 13.7625635,84.2750929 C14.8705217,81.4881166 14.1778716,80.9480927 14.0560542,78.1553102 C13.893631,74.5612721 13.8356227,70.9614277 13.9400376,67.3673896 C14.1604691,60.0341582 13.9690418,49.8268576 19.8742846,44.4154786 C19.3828278,46.181477 19.1292166,48.0052636 19.120177,49.83847 C19.085372,52.3815858 19.2303927,54.9653451 19.4392225,57.537492 C19.4484071,57.8939816 19.5635215,58.2396447 19.7698697,58.5303523 C20.0469231,58.8544263 20.4579663,59.0322814 20.8836287,59.0122669 C21.725778,59.0089209 22.5514303,58.7782463 23.2735698,58.3445538 C24.0044741,57.914895 24.480142,56.9336471 25.0138181,56.265934 C26.2256176,54.8030462 27.360258,53.2778088 28.4131033,51.6964542 C30.2461649,48.9152841 35.8207606,41.2452931 31.8355918,38.2841308 C31.3390071,37.9516422 30.9499663,37.4815363 30.716032,36.9312861 C30.1359492,35.2823251 32.6593093,33.9352866 33.2045872,31.8740853 Z" id="Path" fill="#FFFFFF" fill-rule="nonzero"></path>
                    </g>
                    <g id="Group-24-Copy" transform="translate(418.029364, 51.304272) rotate(3.000000) translate(-418.029364, -51.304272) translate(386.029364, 5.304272)" fill-rule="nonzero">
                        <path d="M0.211705991,75.0607699 C0.28629108,71.726473 -0.204150347,68.6665497 0.631202659,65.4438922 C1.66949898,61.4862671 1.99029033,57.3752704 1.5784333,53.3049676 C1.23534189,49.9036871 -0.517407724,46.1079473 2.16765551,43.1755522 C5.57619411,39.4542387 8.48501262,34.6314164 14.3474007,33.8722685 C16.5849534,33.582006 16.8673078,32.1241754 19.0601094,31.6404047 L20.1565103,31.0226666 C21.4692078,29.7499774 23.5426733,31.0226666 24.8106199,29.6085675 C25.5564708,28.1870258 27.4267363,26.9451106 26.2109994,25.5012409 C25.1369741,24.2359943 23.6676478,22.7697968 24.3389136,20.6784186 C24.3389136,18.2074665 22.7278757,15.9746784 23.2798054,13.4218573 C21.6640158,11.0258216 22.0204393,7.81539812 24.1226169,5.83037777 C27.1507715,1.20106377 38.7356751,-1.3892586 42.2187988,2.54044845 C45.4618141,6.01746032 47.8223333,12.6247617 46.8628595,17.2772173 C46.4824756,19.2569561 44.1852548,20.2542681 44.774477,22.4870562 C44.3717175,23.5662372 44.3717175,24.9803363 42.678636,24.9877789 L42.5294658,25.1440741 C42.0222872,27.0345013 42.4548807,28.9323712 42.4548807,30.8227985 C46.12309,33.3450015 49.9386818,34.6588781 53.960471,36.5704344 C58.0701094,38.5352879 62.3363766,40.7308629 63.0076424,45.6653246 C63.939956,52.519984 63.6175598,61.8863958 63.9755682,68.8601373 L61.5601285,90.8551265 C61.8211764,96.0649654 0.129662392,78.5811324 0.211705991,75.0607699 Z" id="Path" fill="#000000"></path>
                        <path d="M17.1602555,49.214612 C16.8646862,46.3771109 16.6301074,43.529909 16.4565191,40.6730062 C16.3861455,39.370666 16.6535653,37.6390627 17.8991786,37.4862742 C18.7723935,48.5361071 20.5798432,59.4810315 23.2985425,70.1960264 L20.6637804,70.1960264 C19.1057582,63.3015481 17.9062105,56.3124976 17.1602555,49.214612 Z M20.9885812,43.3649944 C20.7658062,40.900726 20.7117184,38.423264 20.8267218,35.9511134 C23.0857155,34.7579078 26.5340235,32.9389969 28.1385424,34.1831319 C28.3707754,40.3237753 29.9330701,46.4353161 30.144191,52.6414402 C30.1313853,53.9089697 30.261277,55.1737351 30.5312459,56.4102237 C30.6768901,56.9415298 30.8579489,57.4617702 31.0731229,57.9672115 C31.1839732,62.0547395 31.5244663,66.1258938 31.6461571,70.1960264 C30.0096125,70.7357366 28.8809283,71.0055916 28.2601046,71.0055916 C27.4453555,71.0055916 26.4206805,70.7357366 25.1860796,70.1960264 C23.3948507,61.3209817 22.1828646,52.3773043 20.9885812,43.3649944 Z" id="Shape" fill="#D8D8D8"></path>
                        <path d="M28.8844194,78.1796019 C28.8237527,77.0342729 36.6434957,72.7800825 36.6750745,71.7225977 C36.6725938,71.5365138 36.7364652,71.3543599 36.857464,71.2024443 C37.2060634,70.8440745 37.8563305,71.126645 38.2871642,71.4163035 C41.8032329,73.8290486 45.6398491,75.845828 49.7106077,77.4212216 C50.252057,77.6379425 50.8710416,77.8891616 51.2757312,78.2769551 C46.5892615,78.7939067 43.0746049,79.0541799 40.7317614,79.0577746 C39.975052,79.0589326 36.025938,78.7662084 28.8844194,78.1796019 Z" id="Path" fill="#D8D8D8" transform="translate(40.079900, 75.046008) scale(1, -1) rotate(-56.000000) translate(-40.079900, -75.046008) "></path>
                        <path d="M14.4595445,72.2402917 L13.2431277,72.2402917 C11.9409133,63.2333965 11.537493,54.0899628 11.5079172,44.9688347 C11.4734896,43.693945 11.700188,42.4262823 12.1724231,41.2530189 L12.1724231,41.4852574 C12.1724231,51.7248632 12.7106729,61.9996567 14.4317433,72.0773993 C14.4409752,72.1317023 14.4502423,72.1859998 14.4595445,72.2402917 L14.4595445,72.2402917 Z M22.6380941,72.2402917 L21.0891068,72.2402917 C19.2295581,64.4018214 17.8649443,56.4394613 17.0054303,48.4052037 C16.7219967,45.6399292 16.4970495,42.8652008 16.3305885,40.0810184 C16.2496075,39.0954462 16.3980727,37.8475275 17.0054303,37.2802917 C17.1606439,39.8115814 17.3630965,42.3428712 17.6195364,44.85998 C18.5775027,54.1639083 20.3239711,63.2803945 22.6380941,72.2402917 L22.6380941,72.2402917 Z M8.76901798,72.2402917 L7.90173566,72.2402917 C7.87984562,71.829269 7.85828108,71.4183083 7.83701233,71.0074209 C7.35802445,62.3680159 7.02539399,53.6158618 8.58210457,45.1244401 C8.58210457,45.0257845 8.58210457,44.927129 8.63532545,44.8284735 L8.63532545,45.9982461 C7.83701233,53.1084905 8.09646409,60.3314841 8.50227326,67.4840094 C8.58653603,69.0687454 8.67487114,70.6543738 8.76901798,72.2402917 L8.76901798,72.2402917 Z" id="Shape" fill="#FFFFFF"></path>
                        <path d="M26.0267415,41.110645 C27.8432401,51.7690843 29.1002555,57.9519177 28.6232611,68.7173957 C28.2579002,75.9635738 28.0143263,70.8218037 27.2998429,69.4679679 C27.1303593,69.2044865 26.9785517,68.9328033 26.8451716,68.6542635 C26.8451716,68.5911312 26.8451716,68.5350137 26.7883377,68.4718814 C24.3038838,58.9529428 22.1457973,53.9545482 20.6194008,44.2672569 C20.3623814,41.8913728 20.2999793,39.5027682 20.4326608,37.1192846 L21.1877399,36.7825793 C21.1796208,38.0873122 25.8237632,39.7918827 26.0267415,41.110645 Z" id="Path" fill="#FFFFFF"></path>
                        <path d="M42.9902816,17.8851551 C43.1020889,17.2592254 43.1929323,16.7525204 43.2069082,16.6183927 C43.3246489,15.1814003 43.2988818,13.7351354 43.1300407,12.3039489 C42.8505225,10.0684857 42.0608836,7.7436041 40.0902803,6.73764569 C39.8338513,6.60754871 39.5361065,6.60754871 39.2796775,6.73764569 C37.3579899,3.75702821 31.5317225,5.03312826 29.1907575,7.43997688 C28.3993535,8.14328028 27.9454182,9.18795278 27.9538895,10.2864666 C27.8192403,10.422749 27.7266309,10.5994653 27.6883472,10.7931716 C27.6629205,10.9179745 27.6511951,11.0455079 27.6534074,11.1732003 C27.6534074,11.2477157 27.6114797,11.3296827 27.6534074,11.292425 C27.6191692,11.3692337 27.576979,11.4417162 27.5276242,11.5085198 C27.2251103,11.9031672 27.2554406,12.4788616 27.5975038,12.8348945 C27.8474255,13.0768166 28.2110754,13.1300986 28.5129259,12.9690223 C29.4003962,12.5070266 31.1264211,13.6024035 31.9370238,13.937723 C33.6046523,14.6066118 36.1226084,13.7452018 37.9030503,13.8166122 C38.2397128,13.8098881 38.5743797,13.8731628 38.888352,14.0029008 C39.7338946,14.4499934 39.7897982,15.731659 39.9575091,16.7674235 C40.2384951,18.4596957 41.1319579,19.9664104 42.4452211,20.9626426 C42.4452211,20.9626426 42.7526911,19.1668206 42.9902816,17.8851551 Z" id="Path" fill="#FFFFFF"></path>
                        <path d="M28.4538958,20.5329213 C28.2011382,20.1087742 28.7277166,19.2301837 28.9172848,18.7530182 C29.0015374,18.5409446 29.2016372,17.6093357 29.6650262,17.4957249 C29.9388469,17.4275584 29.8967207,18.6242592 29.8861891,18.7075738 C29.941609,19.0109626 29.8834391,19.3194916 29.717684,19.6013124 C29.4127893,19.9837369 28.97796,20.3042739 28.4538958,20.5329213 L28.4538958,20.5329213 Z" id="Path" fill="#C4C3C6"></path>
                        <path d="M56.6357683,69.8337818 L54.747644,69.8337818 C54.7563604,62.3922591 55.2351251,52.1479217 49.5038623,46.5095855 C49.9410136,48.3194386 50.1382387,50.1798541 50.0903708,52.0420945 C50.0414951,54.6286306 49.8110811,57.2574534 49.5248091,59.8580851 C49.5026514,60.2201948 49.3764882,60.5679513 49.1617324,60.8588701 C48.8696434,61.1798224 48.4468976,61.3463449 48.0166444,61.3099282 C47.1669321,61.2799584 46.341377,61.0168097 45.6287169,60.5487677 C44.9304925,60.0836141 44.4626821,59.0687335 43.9320316,58.371003 C42.7568402,56.848879 41.6614543,55.2656569 40.6503769,53.6278455 C38.8908514,50.731207 33.5215057,42.7460697 37.6270652,39.8776224 C38.1594125,39.5654216 38.5891596,39.1022318 38.8629224,38.5455915 C39.5052889,36.8893627 36.991681,35.4375195 36.5099062,33.3302326 C36.43678,33.074688 36.43678,32.8034734 36.5099062,32.5479288 C36.617939,32.296643 36.7917315,32.0797997 37.0126277,31.9206762 L38.8489579,30.3137818 C38.3741653,33.837673 40.3431582,36.3537312 43.5410259,37.3615641 C46.8506096,38.4116836 50.2998382,39.5957111 52.6179432,42.1188171 C54.5380603,44.1979129 55.4876455,46.9817869 55.9414913,49.7445175 C56.5768755,53.6207978 56.3464615,57.5534603 56.2347456,61.4508839 C56.1527699,64.3107616 56.3903552,67.0567945 56.6357683,69.8337818 L56.6357683,69.8337818 Z" id="Path" fill="#FFFFFF"></path>
                    </g>
                    <g id="Group-37" transform="translate(301.357568, 205.568064) scale(-1, 1) rotate(-1.000000) translate(-301.357568, -205.568064) translate(35.857568, 58.568064)">
                        <path d="M232.467687,18.3558497 L241.466924,25.3539739 L279.667786,101.272234 L287.960193,105.217557 L353.548988,92.6803297 L512.6245,167.668001 L508.798551,169.121451 L530.472373,181.22382 C530.433856,218.507316 530.236181,244.347802 529.879346,258.745278 C388.92099,293.532985 242.214377,305.94477 126.702988,276.791629 C56.2808684,259.018264 19.9544709,232.140125 6.50094691,195.641454 C-2.11295967,172.272399 2.58338423,140.578098 0.751203254,122.635657 C-3.67853726,79.1989596 50.9921136,31.3846957 231.159996,0.457544625 C231.107037,7.30616792 231.542934,13.2722696 232.467687,18.3558497 Z" id="Path-Copy-13" fill="#000000"></path>
                        <g id="Group-39" transform="translate(87.501895, 40.377110)">
                            <path d="M3.96475788,101.371853 L5.78509195,101.563605 C9.14404139,109.014309 14.7449548,116.672554 21.5106898,123.06128 L21.6130359,123.157365 L21.4500671,123.019249 C13.4761855,116.222552 7.60807474,108.96368 3.96475788,101.371853 Z M1.7990853,76.0461554 L4.26214678,77.7709344 C2.19845542,83.3589969 1.8344218,89.1076577 3.40449523,94.9840248 C3.55153816,95.5339147 3.71355495,96.087593 3.89006474,96.6444003 L1.92703015,96.4374575 C1.57366448,95.4193594 1.259347,94.3959652 0.984349749,93.3675703 C-0.591346367,87.4701589 -0.243368713,81.6834308 1.7990853,76.0461554 Z M26.1509373,48.5231559 L28.2338954,50.920706 C18.526547,57.6423989 11.2213563,64.7629857 6.90545864,72.2000949 L4.40435026,70.4487529 C8.75988124,62.7952997 16.2109304,55.4525667 26.1509373,48.5231559 Z M62.2873793,29.3061541 L63.8842715,32.0728771 C52.3499554,36.9161728 42.0633229,42.089944 33.3586561,47.5472929 L31.2604505,45.1344906 C40.0984552,39.5481782 50.5533338,34.2530246 62.2873793,29.3061541 Z M105.287972,14.2972616 L105.83596,17.4093534 C92.8865505,21.203741 80.7059424,25.3311355 69.5663844,29.7533419 L67.9643943,26.9794313 C79.4092543,22.4180028 91.9449696,18.1746239 105.287972,14.2972616 Z M151.161343,3.04 L151.852811,5.96784462 C137.953756,8.87822875 124.49113,12.1421361 111.713354,15.7247146 L111.166121,12.627206 C123.901489,9.08983194 137.311326,5.88088619 151.161343,3.04 Z" id="Combined-Shape" fill="#C4C3C6"></path>
                            <path d="M15.7629472,109.46179 L17.4874607,109.645499 C20.7935403,116.503091 25.9720523,123.465322 32.1508293,129.330272 L32.2501054,129.423962 L32.0920339,129.289289 C24.8048131,123.045097 19.3295923,116.400802 15.7629472,109.46179 Z M12.4833429,84.5972522 L14.8739035,86.2451303 C13.3060039,91.3424925 13.15218,96.5857195 14.5811282,101.952658 C14.8469387,102.950188 15.1629991,103.960501 15.5263054,104.97946 L13.6645903,104.781803 C13.1053268,103.324602 12.6281706,101.855862 12.2339689,100.376509 C10.8022637,94.9992152 10.9400698,89.7305261 12.4833429,84.5972522 Z M35.5238236,56.8819917 L37.6110671,59.1746244 C27.922616,66.0588512 20.8352885,73.3878619 16.9652456,81.0807416 L14.5390602,79.4080885 C18.4274387,71.5097201 25.6330576,63.9665854 35.5238236,56.8819917 Z M69.7649597,38.3087473 L71.2858295,41.0201025 C60.2058535,45.7401466 50.3869671,50.7849372 42.1325746,56.1146311 L40.0297715,53.8059447 C48.4338039,48.3290806 58.4487157,43.1464843 69.7649597,38.3087473 Z M110.180753,24.0260256 L110.710985,27.0630175 C98.3491306,30.728605 86.7817336,34.7055282 76.2455882,38.9626912 L74.719511,36.2461641 C85.5432701,31.8571737 97.4457212,27.7703863 110.180753,24.0260256 Z M154.808981,12.9851748 L155.481069,15.8400843 C141.804006,18.7213102 128.639177,21.9400883 116.214171,25.4665315 L115.684976,22.4434797 C128.070352,18.9614299 141.183161,15.7969802 154.808981,12.9851748 Z" id="Combined-Shape" fill="#C4C3C6"></path>
                            <path d="M24.3287518,112.399694 L26.1588061,112.594808 C29.1406517,120.702667 35.0793622,129.320839 42.4584815,136.351816 L42.556749,136.444907 L42.4002877,136.311095 C33.7311983,128.854376 27.6520302,120.82331 24.3287518,112.399694 Z M23.8034609,89.5124372 L26.1916373,91.142081 C23.9970758,96.6771448 23.4725894,102.39272 24.8421464,108.259267 L22.8679532,108.050101 C22.8246925,107.894453 22.7823541,107.738685 22.7409388,107.582799 C21.0999815,101.401208 21.537946,95.3639996 23.8034609,89.5124372 Z M45.8712834,64.2948814 L47.9427876,66.5696031 C39.0946231,72.8694062 32.4297407,79.5445567 28.4250022,86.5321583 L25.9984905,84.8760233 C30.0298265,77.6807455 36.8183,70.7934103 45.8712834,64.2948814 Z M78.0584994,46.5988654 L79.5484824,49.2973957 C69.1726315,53.8175202 59.9539101,58.6315039 52.1556588,63.7046132 L50.0700011,61.4143369 C58.0221495,56.1926176 67.4416431,51.2393548 78.0584994,46.5988654 Z M115.191602,33.0541672 L115.720844,36.081629 C104.400813,39.5781876 93.8015853,43.3450275 84.1180932,47.356438 L82.6253016,44.6525498 C92.5886905,40.5111399 103.511928,36.6338826 115.191602,33.0541672 Z M158.926184,21.7737561 L159.68622,24.6101927 C146.135011,27.5833278 133.128701,30.8953497 120.899666,34.5156089 L120.370475,31.5008523 C132.535129,27.9303882 145.459518,24.6761243 158.926184,21.7737561 Z" id="Combined-Shape" fill="#C4C3C6"></path>
                            <path d="M47.9400608,124.257491 L49.5805082,124.403886 C52.4393591,131.514783 57.7025595,138.966241 64.1658272,145.099653 L64.2562283,145.184946 L64.1122979,145.062343 C56.5182484,138.556418 51.0835527,131.573524 47.9400608,124.257491 Z M45.9991796,105.223108 L48.1910472,106.646618 C46.9809868,111.044589 46.9272521,115.560164 48.1593046,120.17634 L48.2722389,120.584726 L46.5136872,120.427174 C46.3367472,119.86699 46.1729713,119.305053 46.0224162,118.741424 C44.7946192,114.141192 44.8281637,109.628337 45.9991796,105.223108 Z M63.8825907,81.6211198 L65.8117481,83.667817 C58.2972662,89.5084639 52.8339225,95.6817572 49.854037,102.130917 L47.6226041,100.67991 C50.610066,94.032047 56.1796799,87.6546584 63.8825907,81.6211198 Z M91.5996245,65.2453865 L92.9875,67.7024896 C84.0577271,71.8487427 76.1888882,76.2468102 69.6073921,80.8669562 L67.6641615,78.806815 C74.3868561,74.043899 82.4431108,69.51071 91.5996245,65.2453865 Z M123.58673,52.8132705 L124.119106,55.5894072 C114.422122,58.7834168 105.378497,62.2014304 97.1478288,65.8224872 L95.7558824,63.3608209 C104.235667,59.6169394 113.5683,56.0919865 123.58673,52.8132705 Z M168.21609,40.7896847 L168.914702,43.3999801 C154.689428,46.5865387 141.148889,50.180245 128.617431,54.1385005 L128.088565,51.3709265 C140.578477,47.453274 154.056011,43.9095695 168.21609,40.7896847 Z" id="Combined-Shape" fill="#C4C3C6"></path>
                            <path d="M74.2920618,139.218959 C77.0295538,144.088435 80.8225305,148.913349 85.2207811,153.075401 L85.3037801,153.15349 L85.171635,153.041242 C80.0424157,148.659293 75.9861366,144.041075 73.0509945,139.239015 L74.2920618,139.218959 Z M67.746467,121.733527 L69.7400244,122.71745 C69.5898512,125.195061 69.842754,127.709583 70.5247834,130.257605 C71.0269728,132.132221 71.7426541,134.06103 72.6430233,136.004475 L71.2688267,136.026953 C70.1085359,133.703083 69.2048168,131.340164 68.5628716,128.943857 C67.9120826,126.512547 67.6472413,124.107915 67.746467,121.733527 Z M80.7241243,98.5215299 L82.6819785,100.203634 C76.184156,106.031257 71.9165288,112.192281 70.3588117,118.623903 L68.2891439,117.602135 C69.7604257,110.95309 74.0732169,104.565544 80.7241243,98.5215299 Z M104.559145,82.8099634 L106.129298,84.9017033 C98.1801205,88.9109309 91.310733,93.157023 85.7467707,97.6104406 L83.7673935,95.9109062 C89.423006,91.3190848 96.4310053,86.9394883 104.559145,82.8099634 Z M132.59375,71.0250188 L133.342774,73.489449 C124.838364,76.4947228 116.961862,79.6967098 109.856154,83.0767041 L108.278057,80.9751921 C115.616681,77.4576987 123.772483,74.1327333 132.59375,71.0250188 Z M176.926379,58.440102 L177.569547,60.8429615 C163.186321,64.1671647 149.616589,67.9476129 137.269846,72.1306977 L136.522275,69.6701347 C148.907159,65.4883862 162.506385,61.7236632 176.926379,58.440102 Z" id="Combined-Shape" fill="#C4C3C6"></path>
                            <path d="M36.8479556,120.475238 L38.5322667,120.656971 C41.6504506,127.485275 46.7985522,134.488902 53.0073273,140.340696 L53.102157,140.429556 L52.9511441,140.301826 C45.6302128,134.073972 40.2267322,127.426363 36.8479556,120.475238 Z M33.9292988,99.0808827 L36.2079844,100.636669 C35.0209457,105.105493 34.9898094,109.689972 36.2403008,114.373731 C36.4254619,115.066686 36.6363972,115.766144 36.8719801,116.470563 L35.0668409,116.275488 C34.6583283,115.150225 34.3016817,114.017856 33.9973338,112.878852 C32.7443512,108.185762 32.7624353,103.579833 33.9292988,99.0808827 Z M53.5003223,73.7096172 L55.4776183,75.8804285 C47.198754,82.1452972 41.2046116,88.7808183 37.9952193,95.7218733 L35.6846832,94.1440157 C38.9135461,87.0062523 45.024074,80.1669148 53.5003223,73.7096172 Z M84.076664,56.2066277 L85.4991984,58.7834089 C75.5996364,63.2223854 66.8789191,67.9453157 59.6019408,72.9177027 L57.6124443,70.7333886 C65.0354604,65.6191961 73.9472743,60.762291 84.076664,56.2066277 Z M119.015831,43.1173622 L119.513965,46.020239 C108.931755,49.3746257 99.0490555,52.9755803 90.0454935,56.7997098 L88.6194313,54.2182557 C97.8923502,50.2669724 108.087088,46.5565289 119.015831,43.1173622 Z M163.968061,31.357384 L164.695661,34.0723218 C150.530265,37.1846151 136.996628,40.6761323 124.381761,44.509496 L123.883495,41.6180402 C136.437581,37.8331343 149.88869,34.3983972 163.968061,31.357384 Z" id="Combined-Shape" fill="#C4C3C6"></path>
                            <path d="M59.3025304,131.750234 L60.8072147,131.831647 C62.4030187,135.285109 64.5541663,138.782766 67.114973,142.124594 C69.1903833,144.832985 65.8294938,139.949709 68.3655061,142.346915 C68.5773128,144.059989 67.9506042,144.071284 66.4853803,142.3808 C63.504018,138.941091 61.1037322,135.391045 59.3025304,131.750234 Z M56.1207572,113.093719 L58.2523217,114.355413 C57.4681723,118.088606 57.5529564,121.906794 58.5905744,125.799011 C58.80928,126.618724 59.0668176,127.448266 59.3610168,128.284657 L57.745811,128.195935 C57.2679785,126.945124 56.8593733,125.684649 56.5206925,124.415268 C55.4966968,120.57415 55.3893737,116.796073 56.1207572,113.093719 Z M71.9347559,90.1897173 L73.8663397,92.0993489 C66.9155982,97.8000485 61.9976334,103.817487 59.5338978,110.096568 L57.3525862,108.802486 C59.7972213,102.318621 64.8046568,96.0904994 71.9347559,90.1897173 Z M98.1156334,74.083501 L99.5200038,76.4193119 C90.9629938,80.5185892 83.4827807,84.8635554 77.3071255,89.424436 L75.3614018,87.4996977 C81.6700066,82.7918668 89.3332605,78.3070298 98.1156334,74.083501 Z M128.062042,62.0733985 L128.668497,64.7266314 C119.522574,67.8335944 111.017193,71.1495608 103.302514,74.6549006 L101.896332,72.3127927 C109.841576,68.6875245 118.61585,65.2658738 128.062042,62.0733985 Z M172.255885,49.8567423 L172.933614,52.3836234 C158.726244,55.628341 145.255337,59.291801 132.871294,63.3281967 L132.267855,60.6814326 C144.639308,56.6715836 158.079337,53.045348 172.255885,49.8567423 Z" id="Combined-Shape" fill="#C4C3C6"></path>
                            <polyline id="Line" stroke="#FFFFFF" stroke-width="2.28" stroke-linecap="square" transform="translate(168.542395, 34.677405) rotate(-2.000000) translate(-168.542395, -34.677405) " points="151.930652 1.09900971 151.518963 7.17824849 155.045441 11.2208269 154.766317 15.0240001 159.011169 19.8785519 158.732855 23.6684855 163.668791 29.3466307 163.403717 33.1373741 168.287448 39.5604283 168.022373 43.3511717 171.495027 48.1651384 171.176937 52.7140305 175.40774 57.5810121 175.19568 60.6136068 185.565828 68.2557998"></polyline>
                        </g>
                        <g id="Group-39-Copy" transform="translate(19.128654, 3.110813)">
                            <path d="M70.8315509,137.13809 L72.6567577,137.330747 C76.0454431,144.762861 81.6398362,152.387003 88.3851564,158.756717 L88.4881138,158.85338 L88.3241714,158.714433 C80.3731485,151.936937 74.5034067,144.702623 70.8315509,137.13809 Z M68.4812466,111.666679 L70.9566582,113.404406 C68.9487124,118.95992 68.6110468,124.672589 70.1707929,130.510547 C70.3352341,131.125526 70.5182912,131.745215 70.7192994,132.368703 L68.750362,132.161148 C68.3679657,131.074792 68.029799,129.982413 67.7361891,128.884367 C66.1704459,123.023963 66.4928712,117.272203 68.4812466,111.666679 Z M92.8958368,83.8799985 L94.9886643,86.2930245 C85.2248664,93.076827 77.8931849,100.263521 73.5888017,107.769603 L71.0761205,106.0053 C75.42032,98.2822229 82.8984445,90.8724638 92.8958368,83.8799985 Z M129.24118,64.5068673 L130.844358,67.291328 C119.23821,72.1732794 108.892079,77.3883287 100.143551,82.8891124 L98.0362486,80.460438 C106.918956,74.8300504 117.434266,69.4929657 129.24118,64.5068673 Z M172.490065,49.3886358 L173.039315,52.5204592 C160.013279,56.34249 147.7626,60.4996777 136.561545,64.9535428 L134.953249,62.1619034 C146.461064,57.5680307 159.068547,53.2941689 172.490065,49.3886358 Z M218.81036,38.0133796 L219.505959,40.9588383 C205.46119,43.8998568 191.859402,47.1997211 178.953876,50.8228958 L178.404677,47.7059385 C191.267227,44.1284359 204.815408,40.8841143 218.81036,38.0133796 Z" id="Combined-Shape" fill="#FFFFFF"></path>
                            <path d="M7.823099,131.142233 L10.1935003,131.39116 C14.5277168,141.171551 21.8612505,151.253209 30.743572,159.645816 L30.8762386,159.770444 L30.6649894,159.5913 C20.1990686,150.664892 12.5317162,141.12387 7.823099,131.142233 Z M5.35273661,98.22848 L8.5507146,100.460093 C5.7301816,107.846681 5.19678591,115.451021 7.27332252,123.227798 C7.43322862,123.826165 7.60679579,124.427991 7.793656,125.03277 L5.23825408,124.76378 C4.82869669,123.558491 4.46125495,122.347519 4.13619628,121.131152 C2.05310344,113.329821 2.56367168,105.677815 5.35273661,98.22848 Z M37.1409425,62.6990924 L39.848493,65.8055023 C27.2394647,74.4869606 17.7176426,83.6837789 12.0372184,93.2900828 L8.78827682,91.0227648 C14.5199165,81.1352158 24.2305879,71.650021 37.1409425,62.6990924 Z M84.0694217,37.8419272 L86.1441753,41.4293341 C71.1769354,47.6947157 57.8185168,54.3883422 46.5006534,61.449606 L43.7733581,58.3227033 C55.2645372,51.0935053 68.8419923,44.2419638 84.0694217,37.8419272 Z M139.903677,18.4083054 L140.619633,22.441876 C123.807349,27.3548752 107.988125,32.7005756 93.5151232,38.4293995 L91.4329631,34.8329198 C106.301731,28.9239205 122.581242,23.4282966 139.903677,18.4083054 Z M198.803909,3.97044443 L199.700228,7.76804848 C181.89087,11.4995572 164.634287,15.679114 148.241504,20.2630563 L147.531196,16.247154 C163.869052,11.7215623 181.057728,7.61277684 198.803909,3.97044443 Z" id="Combined-Shape-Copy" fill="#C4C3C6" transform="translate(101.280228, 81.870444) rotate(2.000000) translate(-101.280228, -81.870444) "></path>
                            <path d="M82.4998192,144.879215 L84.2370207,145.063869 C87.5629369,151.974343 92.7853735,158.993725 99.01971,164.904381 L99.1196174,164.998554 L98.9605407,164.863186 C91.6080226,158.570529 86.0884669,151.87362 82.4998192,144.879215 Z M79.2454904,119.879702 L81.6503707,121.540299 C80.056208,126.681727 79.8949625,131.970934 81.3382817,137.385407 C81.5998451,138.365832 81.9097579,139.358542 82.265194,140.359649 L80.3891738,140.159394 C79.8378707,138.717559 79.3666074,137.264506 78.9761966,135.80112 C77.5297378,130.374868 77.6751814,125.05864 79.2454904,119.879702 Z M102.487181,92.0298225 L104.584124,94.3372422 C94.8251099,101.252436 87.6804312,108.614586 83.7695067,116.342445 L81.3293885,114.656755 C85.2598978,106.722793 92.5242798,99.1459101 102.487181,92.0298225 Z M136.944613,73.382328 L138.471692,76.1092624 C127.328915,80.8468961 117.451711,85.9102845 109.144361,91.2595163 L107.031883,88.9360295 C115.489981,83.4393154 125.564363,78.2378572 136.944613,73.382328 Z M177.546944,59.0560865 L178.078614,62.1093291 C165.666735,65.7854016 154.050704,69.772982 143.467185,74.0410284 L141.936645,71.3082496 C152.80884,66.908376 164.76092,62.8109391 177.546944,59.0560865 Z M222.457855,47.9585543 L223.134217,50.8282047 C209.37178,53.7239707 196.124715,56.9589529 183.621978,60.5031204 L183.089973,57.4643152 C195.552663,53.9648306 208.74719,50.7845065 222.457855,47.9585543 Z" id="Combined-Shape" fill="#FFFFFF"></path>
                            <path d="M91.8076836,149.459886 L93.6394819,149.657484 C96.6246927,157.912648 102.570477,166.687494 109.95845,173.846244 L110.056832,173.941023 L109.900189,173.804784 C101.221065,166.212877 95.134844,158.036214 91.8076836,149.459886 Z M91.2813929,126.158228 L93.6725755,127.816826 C91.4755237,133.452244 90.9504723,139.271444 92.3216458,145.244351 L90.3450481,145.030977 C90.3017624,144.872594 90.2593988,144.71409 90.2179585,144.555466 C88.5751696,138.262064 89.0135237,132.11565 91.2813929,126.158228 Z M113.375322,100.482397 L115.449279,102.798345 C106.590278,109.212771 99.9173522,116.009397 95.9080013,123.124175 L93.4796044,121.436325 C97.5156841,114.110725 104.31198,107.098641 113.375322,100.482397 Z M145.598805,82.4660019 L147.091835,85.2128902 C136.703811,89.8150245 127.474279,94.7163523 119.666893,99.8815094 L117.578821,97.5496877 C125.539952,92.2334472 134.970037,87.1905132 145.598805,82.4660019 Z M182.776326,68.6751349 L183.305874,71.7576003 C171.972876,75.3175139 161.361497,79.1526008 151.666884,83.2366854 L150.170648,80.4844799 C160.146031,76.2677303 171.082483,72.3199487 182.776326,68.6751349 Z M226.685555,57.1630406 L227.445688,60.0506061 C213.834485,63.0846991 200.771402,66.4660041 188.491199,70.1630327 L187.961412,67.0935946 C200.177426,63.4472799 213.158711,60.1248698 226.685555,57.1630406 Z" id="Combined-Shape" fill="#FFFFFF"></path>
                            <path d="M114.820061,159.977491 L116.460508,160.123886 C119.319359,167.234783 124.582559,174.686241 131.045827,180.819653 L131.136228,180.904946 L130.992298,180.782343 C123.398248,174.276418 117.963553,167.293524 114.820061,159.977491 Z M112.87918,140.943108 L115.071047,142.366618 C113.860987,146.764589 113.807252,151.280164 115.039305,155.89634 L115.152239,156.304726 L113.393687,156.147174 C113.216747,155.58699 113.052971,155.025053 112.902416,154.461424 C111.674619,149.861192 111.708164,145.348337 112.87918,140.943108 Z M130.762591,117.34112 L132.691748,119.387817 C125.177266,125.228464 119.713923,131.401757 116.734037,137.850917 L114.502604,136.39991 C117.490066,129.752047 123.05968,123.374658 130.762591,117.34112 Z M158.479625,100.965386 L159.8675,103.42249 C150.937727,107.568743 143.068888,111.96681 136.487392,116.586956 L134.544161,114.526815 C141.266856,109.763899 149.323111,105.23071 158.479625,100.965386 Z M190.46673,88.5332705 L190.999106,91.3094072 C181.302122,94.5034168 172.258497,97.9214304 164.027829,101.542487 L162.635882,99.0808209 C171.115667,95.3369394 180.4483,91.8119865 190.46673,88.5332705 Z M235.09609,76.5096847 L235.794702,79.1199801 C221.569428,82.3065387 208.028889,85.900245 195.497431,89.8585005 L194.968565,87.0909265 C207.458477,83.173274 220.936011,79.6295695 235.09609,76.5096847 Z" id="Combined-Shape" fill="#FFFFFF"></path>
                            <path d="M141.94521,174.192338 C144.682702,179.061815 148.475679,183.886729 152.873929,188.048781 L152.956928,188.12687 L152.824783,188.014621 C147.695564,183.632672 143.639285,179.014455 140.704143,174.212394 L141.94521,174.192338 Z M135.399615,156.706907 L137.393172,157.690829 C137.242999,160.168441 137.495902,162.682963 138.177931,165.230985 C138.680121,167.1056 139.395802,169.034409 140.296171,170.977855 L138.921975,171.000332 C137.761684,168.676462 136.857965,166.313544 136.21602,163.917236 C135.565231,161.485927 135.300389,159.081295 135.399615,156.706907 Z M148.377272,133.494909 L150.335127,135.177014 C143.837304,141.004637 139.569677,147.16566 138.01196,153.597283 L135.942292,152.575515 C137.413574,145.926469 141.726365,139.538923 148.377272,133.494909 Z M172.212293,117.783343 L173.782446,119.875083 C165.833269,123.884311 158.963881,128.130403 153.399919,132.58382 L151.420542,130.884286 C157.076154,126.292464 164.084153,121.912868 172.212293,117.783343 Z M200.246898,105.998398 L200.995922,108.462829 C192.491512,111.468102 184.61501,114.670089 177.509302,118.050084 L175.931205,115.948572 C183.269829,112.431078 191.425631,109.106113 200.246898,105.998398 Z M244.579527,93.4134815 L245.222695,95.8163411 C230.839469,99.1405442 217.269737,102.920992 204.922994,107.104077 L204.175423,104.643514 C216.560307,100.461766 230.159533,96.6970428 244.579527,93.4134815 Z" id="Combined-Shape" fill="#FFFFFF"></path>
                            <path d="M103.727956,156.195238 L105.412267,156.376971 C108.530451,163.205275 113.678552,170.208902 119.887327,176.060696 L119.982157,176.149556 L119.831144,176.021826 C112.510213,169.793972 107.106732,163.146363 103.727956,156.195238 Z M100.809299,134.800883 L103.087984,136.356669 C101.900946,140.825493 101.869809,145.409972 103.120301,150.093731 C103.305462,150.786686 103.516397,151.486144 103.75198,152.190563 L101.946841,151.995488 C101.538328,150.870225 101.181682,149.737856 100.877334,148.598852 C99.6243512,143.905762 99.6424353,139.299833 100.809299,134.800883 Z M120.380322,109.429617 L122.357618,111.600429 C114.078754,117.865297 108.084612,124.500818 104.875219,131.441873 L102.564683,129.864016 C105.793546,122.726252 111.904074,115.886915 120.380322,109.429617 Z M150.956664,91.9266277 L152.379198,94.5034089 C142.479636,98.9423854 133.758919,103.665316 126.481941,108.637703 L124.492444,106.453389 C131.91546,101.339196 140.827274,96.482291 150.956664,91.9266277 Z M185.895831,78.8373622 L186.393965,81.740239 C175.811755,85.0946257 165.929056,88.6955803 156.925494,92.5197098 L155.499431,89.9382557 C164.77235,85.9869724 174.967088,82.2765289 185.895831,78.8373622 Z M230.848061,67.077384 L231.575661,69.7923218 C217.410265,72.9046151 203.876628,76.3961323 191.261761,80.229496 L190.763495,77.3380402 C203.317581,73.5531343 216.76869,70.1183972 230.848061,67.077384 Z" id="Combined-Shape" fill="#FFFFFF"></path>
                            <path d="M126.955436,166.723124 L128.460519,166.805364 C131.349658,173.057583 136.058987,179.454635 141.724031,184.809608 L141.811555,184.891863 L141.672183,184.773628 C135.02151,179.099128 130.084456,173.048088 126.955436,166.723124 Z M123.773905,148.067099 L125.90547,149.328793 C125.12132,153.061985 125.206104,156.880174 126.243722,160.77239 C126.462408,161.592029 126.719919,162.421494 127.014085,163.257809 L125.398955,163.169303 C124.921124,161.918496 124.51252,160.658025 124.173841,159.388647 C123.149845,155.547529 123.042522,151.769452 123.773905,148.067099 Z M139.587904,125.163097 L141.519488,127.072728 C134.568746,132.773428 129.650782,138.790866 127.187046,145.069948 L125.005734,143.775865 C127.450369,137.292001 132.457805,131.063879 139.587904,125.163097 Z M165.768782,109.056881 L167.173152,111.392692 C158.616142,115.491969 151.135929,119.836935 144.960274,124.397816 L143.01455,122.473077 C149.323155,117.765246 156.986409,113.280409 165.768782,109.056881 Z M195.71519,97.046778 L196.321645,99.700011 C187.175722,102.806974 178.670342,106.12294 170.955662,109.62828 L169.54948,107.286172 C177.494724,103.660904 186.268998,100.239253 195.71519,97.046778 Z M239.909033,84.8301219 L240.586763,87.357003 C226.379392,90.6017205 212.908485,94.2651805 200.524442,98.3015763 L199.921003,95.6548122 C212.292456,91.6449632 225.732485,88.0187276 239.909033,84.8301219 Z" id="Combined-Shape" fill="#FFFFFF"></path>
                        </g>
                        <g id="Group-38" transform="translate(225.309724, 149.725701) rotate(3.000000) translate(-225.309724, -149.725701) translate(174.309724, 105.225701)">
                            <path d="M101.16709,3.07932848 L101.574032,17.0127558 C47.022261,29.702957 10.0412192,47.8382113 7.05144512,70.2753305 C9.57758656,73.4827843 12.7130113,79.9636465 23.5587187,85.6686121 C21.6393811,88.7774899 18.0948749,88.9012668 12.9252003,86.0399428 C4.80416843,79.1125523 2.58148405,77.009642 0.922101652,68.9684454 C-6.4008046,33.482394 38.9002587,17.3585613 101.16709,3.07932848 Z" id="Path" fill="#C4C3C6"></path>
                            <path d="M98.9703351,-3.77958273e-05 L99.5602914,2.10266126 C40.6199294,15.5128931 -2.9361494,37.2451393 4.01810687,62.7945499 C5.82947211,69.4438767 10.7841173,76.8700945 17.1685558,82.7718129 L17.2429268,82.8401632 L17.1244945,82.7419199 C9.32236628,76.2325502 4.29686884,69.1254288 2.25908295,61.6449362 C-4.76784353,35.8285408 39.1485349,13.4175375 98.9703351,-3.77958273e-05 Z" id="Combined-Shape" fill="#FFFFFF"></path>
                        </g>
                    </g>
                    <g id="Group" transform="translate(110.150000, 149.720000)">
                        <ellipse id="Oval" fill="#000000" cx="98.42" cy="51.3" rx="98.42" ry="51.3"></ellipse>
                        <g id="Group-40" transform="translate(18.240000, 9.120000)">
                            <path d="M158.686886,36.0282228 L158.797402,36.0282228 L157.591658,52.3986622 L157.502428,52.3986622 C155.620657,70.6686806 120.786598,82.4660048 78.5086789,82.0331875 C37.4690605,81.6130472 5.5414399,70.4883187 1.46827011,54.8859349 L1.28860794,54.8859349 L1.13686838e-13,37.7392365 C1.29023845,55.8675865 36.4153383,70.6619684 78.4307123,71.0917433 C121.587323,71.5331919 158.235213,56.6519148 158.747565,37.8534899 C158.7642,37.2415943 158.743666,36.6330906 158.686886,36.0282228 Z" id="Combined-Shape" fill="#C4C3C6"></path>
                            <path d="M77.6086338,67.1469226 C34.5702047,66.7115578 0.0845357083,51.3293877 0.582736254,32.789884 C1.0809368,14.2503804 36.3743485,-0.425923848 79.4127775,0.00944099055 C122.451207,0.444805829 156.936876,15.826976 156.438675,34.3664796 C155.940475,52.9059832 120.647063,67.5822875 77.6086338,67.1469226 Z" id="Oval-Copy-18" fill="#C4C3C6"></path>
                            <path d="M1.03060956,35.0840393 C1.64628841,53.2131206 36.2176013,67.564525 78.247798,67.1387982 C120.277995,66.7130713 153.851095,51.6714273 153.235416,33.542346 C153.192838,32.288597 152.987861,31.0529154 152.62925,29.8389392 C152.602776,47.7384065 119.267232,62.501726 77.6333134,62.9234389 C38.5097899,63.3197239 5.84915877,50.9120813 1.02208382,34.5720868 C1.02208382,34.7424568 1.02208382,34.9131108 1.03060956,35.0840393 Z" id="Path" fill="#FFFFFF"></path>
                            <path d="M13.0350192,11.4337809 C13.5598602,26.5413486 43.0304876,38.5008523 78.8595078,38.1460799 C114.688528,37.7913075 143.30822,25.2566042 142.783379,10.1490364 C142.747083,9.10424564 142.572348,8.07451095 142.266647,7.06286415 C142.244079,21.9790869 113.826894,34.2818531 78.3356848,34.6332805 C44.9844844,34.963518 17.1426349,24.6238159 13.0277514,11.0071538 C13.0277514,11.1491287 13.0277514,11.2913405 13.0350192,11.4337809 Z" id="Path-Copy-18" fill="#FFFFFF" transform="translate(77.909117, 22.608319) scale(-1, -1) translate(-77.909117, -22.608319) "></path>
                            <path d="M79.2392259,3.73696981 C111.225889,3.73696981 138.080599,13.4923665 145.327184,26.6266663 C136.059656,14.9131376 110.787504,6.50542781 81.0923679,6.50542781 C43.5856829,6.50542781 13.2259579,19.9183815 13.2820243,36.4640983 C13.2902761,38.8992969 13.9569335,41.2666337 15.2075884,43.5333334 C12.7706991,40.451846 11.4405594,37.14169 11.4288047,33.6956403 C11.3728159,17.1499235 41.7325409,3.73696981 79.2392259,3.73696981 Z" id="Combined-Shape" fill="#000000"></path>
                            <path d="M108.95877,40.8952593 L58.011371,44.5802384 C55.1511887,44.7871128 52.6112661,43.3729594 52.3382953,41.4216383 C52.2746948,40.9669927 52.3403094,40.5073172 52.5315394,40.0678307 L63.5084958,14.8404847 C64.3292473,12.9542259 67.2267154,11.8635265 69.9801876,12.4042827 C70.6217103,12.5303455 71.2203113,12.739989 71.7431347,13.0217685 L111.713577,34.5641353 C113.957514,35.7735219 114.321928,38.0066059 112.52752,39.551868 C111.648114,40.3091712 110.36049,40.7938742 108.95877,40.8952593 Z" id="Triangle-2" fill="#FFFFFF"></path>
                            <path d="M106.720643,42.2438454 L58.8830671,45.8445728 C56.1974699,46.0467173 53.8167552,44.6904544 53.5655921,42.8152749 C53.5070726,42.3783697 53.5698697,41.9364807 53.7505382,41.5138508 L64.1212475,17.2541062 C64.8966696,15.4401953 67.6195768,14.3885269 70.2030458,14.9050845 C70.8049598,15.0255065 71.366362,15.226311 71.8564379,15.4965361 L109.323304,36.1555533 C111.426691,37.3153487 111.762963,39.4612365 110.07439,40.9485278 C109.246852,41.6774206 108.036802,42.1447783 106.720643,42.2438454 Z" id="Triangle-2-Copy" fill="#000000"></path>
                            <path d="M72.7393005,20.8690678 C73.2738283,20.9846729 73.7723797,21.1774453 74.20759,21.4368614 L107.039035,41.0068641 L58.9680351,44.2918641 L67.3383794,23.1241286 C68.0269905,21.3827742 70.4450594,20.3731725 72.7393005,20.8690678 Z" id="Combined-Shape" fill="#FFFFFF"></path>
                        </g>
                    </g>
                    <path d="M95.9006078,228.498323 C128.358588,231.816028 162.167054,233.130063 197.326004,232.440429 C232.484954,231.750796 263.367779,229.167857 289.974479,224.691614 L267.194071,260.617563 L95.2455213,263.228386 L95.9006078,228.498323 Z" id="Rectangle" fill="#000000" transform="translate(192.610000, 243.960000) rotate(9.000000) translate(-192.610000, -243.960000) "></path>
                    <path d="M275.910033,84.2606136 L286.550033,91.8606136 C163.689038,115.633913 111.852327,157.454614 114.917251,189.562266 C118.223388,224.15178 177.474337,258.477189 272.237251,265.562266 C353.557251,271.642266 447.037251,253.402266 533.677251,232.882266 C537.334064,235.578133 539.619096,238.059723 538.997251,238.202266 C273.757251,299.002266 173.437251,253.402266 130.877251,232.882266 C88.3172505,212.362266 83.6599704,194.397932 82.2372505,192.602266 C79.0637896,159.424955 125.430033,115.420614 275.910033,84.2606136 Z" id="Path-Copy-16" fill="#C4C3C6" transform="translate(310.592757, 176.456154) scale(-1, 1) translate(-310.592757, -176.456154) "></path>
                    <path d="M261.308294,67.0659691 L261.308358,69.5833743 C117.08133,98.0217509 62.82903,142.055064 66.5885496,178.92255 C70.7890494,220.060892 151.553091,258.247135 273.311253,263.282266 C343.570399,266.187731 433.489215,255.190657 543.067701,230.291045 L553.171335,235.002094 C439.234724,260.85714 345.71498,272.272417 272.612102,269.247923 C145.688071,263.996681 61.4969167,224.183851 57.1175987,181.294392 C53.1875253,142.754541 110.055086,96.7045979 261.308294,67.0659691 Z" id="Combined-Shape" fill="#FFFFFF" transform="translate(305.049759, 168.394508) scale(-1, 1) translate(-305.049759, -168.394508) "></path>
                    <path d="M349.965561,277.838453 C405.174968,281.090679 440.739762,280.340614 516.039244,271.452363 C466.754849,285.245025 437.549399,295.384824 396.976765,299.983293 C424.812833,298.77271 433.259231,301.772634 481.023984,296.114757 C436.686522,307.994944 401.181549,315.895177 393.146756,315.892624 C409.711073,318.594879 405.199712,318.309544 437.338883,318.319756 C332.088968,336.786677 216.892328,320.071902 201.625244,285.76 C199.153062,280.200906 202.830305,265.631874 206.136896,259.292393 C207.652188,256.387239 224.483096,261.932047 221.816092,256.937764 C221.264289,255.89108 294.756154,274.586227 349.965561,277.838453 Z" id="Path-Copy-17" fill="#C4C3C6" transform="translate(358.427622, 291.419614) scale(-1, 1) translate(-358.427622, -291.419614) "></path>
                    <path d="M555.676823,279.580614 C512.610156,282.113947 475.116823,280.340614 443.196823,274.260614 C463.46349,282.36728 481.70349,288.700614 497.916823,293.260614 C472.076823,295.540614 436.356823,291.740614 418.876823,288.700614 C431.036823,294.020614 434.076823,297.060614 455.356823,303.140614 C434.836823,303.140614 412.796823,300.100614 405.196823,298.580614 C415.076823,306.940614 417.356823,306.180614 425.716823,311.500614 C377.836823,298.580614 353.220113,274.724388 350.59762,242.025903 C349.978864,234.300912 348.623741,217.35 346.797866,201.881822 C346.680696,200.864716 363.396823,260.580614 555.676823,279.580614 Z" id="Path" fill="#FFFFFF" transform="translate(451.236152, 256.684800) scale(-1, 1) translate(-451.236152, -256.684800) "></path>
                    <path d="M257.129091,89.8762192 C258.050331,90.4972321 259.018664,91.0880585 260.035507,91.6476592 L250.419261,93.4035414 C137.948156,114.803183 95.1248009,149.970165 97.5414849,180.109902 C100.257753,213.932354 163.268921,246.383552 259.015846,252.18872 C319.223005,255.8391 398.039137,246.259903 495.464241,223.451128 L503.312759,227.109219 L502.363787,227.330904 C401.967643,250.623784 320.64199,260.385033 258.386828,256.61465 C158.496316,250.564944 92.7568599,216.770237 89.9214088,181.550633 C87.4141984,150.358876 131.525773,113.998635 247.255317,91.6864862 C247.758553,91.5894643 256.623144,89.9727081 257.129091,89.8762192 Z" id="Combined-Shape" fill="#FFFFFF" transform="translate(296.566759, 173.639395) scale(-1, 1) translate(-296.566759, -173.639395) "></path>
                    <g id="Group-45" transform="translate(0.000000, 174.683132)">
                        <g id="statue">
                            <g id="Group-25-Copy" transform="translate(72.602389, 102.276993) scale(-1, 1) rotate(1.000000) translate(-72.602389, -102.276993) translate(2.102389, 1.276993)">
                                <path d="M75.621398,4.23818128 C80.0942539,-0.351678256 97.9999194,-1.51244128 103.54264,7.44965727 C106.119563,10.2379596 106.214517,23.0886618 106.113917,26.0787983 C106.864552,28.612939 103.903412,32.5711051 102.525958,34.0661733 C100.96278,35.7406498 101.024688,37.1161126 101.844969,38.8503917 C102.856134,40.0015943 103.662145,40.9131083 104.263003,41.5849339 C106.925048,42.2427639 107.786587,43.1342614 110.51828,43.5603558 C117.746043,44.7115584 121.150985,50.5797013 125.221439,55.1770362 C128.432919,58.787626 126.119106,63.2728307 125.554195,67.3244657 C124.866753,72.1709323 125.079012,77.0969637 126.181014,81.8714798 C127.101896,85.7661326 128.626381,89.6009827 128.587689,93.5928149 C128.587689,97.8163827 126.800094,101.920345 127.039988,106.128962 C127.488821,114.082725 137.773294,123.539032 132.511111,131.432992 C131.814645,132.487015 130.824117,133.391532 130.44493,134.587586 C130.179319,135.765575 130.224557,136.989165 130.576485,138.145849 C132.124186,145.090441 128.921366,143.684527 129.346984,149.911487 C129.53017,152.461112 145.416072,192.882939 139.54235,197.968791 C134.94953,201.945555 126.756089,201.91863 113.002844,200.95795 C107.936871,200.604086 90.4175089,184.153899 84.8881013,186.285983 C80.0642219,188.146023 65.4770803,196.108558 59.7470631,196.831598 C41.0778151,199.187368 25.7562448,186.799007 22.7489911,181.050878 C18.8187427,173.538517 28.9900583,175.888307 33.8547541,164.432364 C38.7194498,152.976421 32.1148467,131.322913 27.7968635,107.681784 C26.9586997,103.092803 55.9438502,97.6682504 55.403394,93.3028237 C54.8332434,88.697547 55.7400676,89.8482494 55.1963476,86.6919137 C54.9233563,85.1071789 47.9999857,90.8067655 44.3654306,93.2659405 C41.0415859,95.5148859 38.0937156,98.2717859 32.4794031,91.6491341 C28.2367755,86.6445239 16.8087241,79.9899614 10.2286551,71.0583271 C6.86444611,66.4918272 2.33649232,60.2139309 0.855378604,56.6277155 C-0.489805293,53.3706264 11.0746851,47.7362759 11.6226292,46.4062442 C12.7349537,43.7062851 19.1968109,47.7800635 20.8049066,49.8945227 C22.4130023,52.0089819 21.0056648,59.1004053 21.8918502,59.9090782 C24.2064603,62.0212346 30.3492007,65.5625684 40.3200713,70.5330795 C49.1577044,62.092722 53.8538203,57.3588752 54.4084188,56.3315392 C55.793482,51.0854909 60.8665007,48.7606511 65.7587667,46.6775731 C70.8087099,44.558379 72.2852249,42.1182413 76.9295189,39.2615774 C76.9991655,36.9890737 74.2468133,35.8814857 73.6973794,33.6388833 L73.5116553,33.4519998 C71.422259,33.3622957 71.4764285,31.6803439 71.0198567,30.3721592 C71.8401382,27.7557897 69.0310609,26.4625557 68.6441357,24.0779218 C67.6385347,18.4657519 71.4697647,8.28248325 75.621398,4.23818128 Z" id="Path" fill="#000000"></path>
                                <path d="M102.612985,30.0128186 C97.6617449,30.4265643 93.3518153,30.1437471 89.6831964,29.164367 C92.0118785,30.4724499 94.1078283,31.4941475 95.971046,32.2294599 C93.0001944,32.6005313 88.8944109,31.9900052 86.8853644,31.5004681 C88.2825093,32.3590122 88.631554,32.850002 91.0770137,33.8304525 C88.7180638,33.8325169 86.1848062,33.3434385 85.3113357,33.0985553 C86.4459457,34.4486244 86.7081586,34.3255711 87.6684609,35.1844975 C82.1660692,33.1013078 79.3395368,29.2483697 79.0426769,23.9642176 C78.9726367,22.7158409 78.8192477,19.9765333 78.611464,17.4768983 C78.5982063,17.3125351 80.5114344,26.9615646 102.612985,30.0128186 Z" id="Path-Copy-22" fill="#FFFFFF" transform="translate(90.612225, 26.329661) scale(-1, 1) rotate(64.000000) translate(-90.612225, -26.329661) "></path>
                                <path d="M105.514687,50.6077188 C105.407669,53.8686073 105.047383,57.1162987 104.436589,60.3259254 C100.90215,75.0762796 97.35703,89.6974623 92.1291814,103.933235 C91.7418086,104.990112 88.835658,112.562021 89.9138775,111.653805 C90.2241613,111.350745 94.268933,104.426475 94.4035634,104.028051 C101.444402,87.5729715 106.558856,70.4603575 109.660678,52.9787856 C111.476993,53.3149129 111.677974,55.640455 111.414526,57.3308002 C110.858053,61.0529115 110.191263,64.7692543 109.414155,68.4798283 C105.354177,88.0692795 98.3245914,106.807832 89.6558092,124.932514 C87.857694,129.162241 85.9836317,133.362079 84.0361378,137.532382 C63.5570218,139.602807 52.0757432,138.067156 49.5923021,132.925429 C48.6924373,131.062345 60.5841711,154.720053 60.2616827,153.864703 C59.2101074,151.075561 47.4448252,155.653582 43.7047741,158.29734 C39.1337521,161.528493 36.0301641,161.154822 36.1315279,159.692707 C36.2497328,157.993435 32.3725259,117.14423 32.8263802,115.52887 C33.2158619,114.142626 37.4163382,110.171659 40.3112415,109.081168 C43.6928924,107.807322 46.0032871,109.560269 49.1945705,110.189921 C52.8656651,110.914242 67.1278505,112.050655 71.0139065,117.036849 C74.8999624,122.023042 86.780928,92.9807195 90.7378439,86.370083 C90.4919269,86.6877796 88.4318525,86.0962761 88.2060632,86.4141775 C85.797859,89.7629177 69.6292247,115.690624 69.8549938,113.348848 C70.2705199,108.89643 67.7325721,106.992766 67.2168926,102.547566 C67.0975096,101.989595 67.1459789,101.415796 67.3579984,100.877099 C67.5834247,100.490638 67.903868,100.147624 68.2987031,99.8701354 C71.6852402,97.0912275 77.6064009,91.796699 80.9647169,88.9943733 C82.6956136,87.5580838 89.9381453,79.9079321 91.5749716,78.3935834 C93.9267334,76.2079255 91.0481769,76.0440011 89.3172802,77.5505439 C84.6701987,81.6018171 75.4521871,92.8036629 69.5163401,95.4186465 C68.9958168,92.1661793 68.6195349,88.8772845 68.3874944,85.551962 C68.3033287,85.0554534 68.3482345,84.5497466 68.519193,84.068837 C68.9519172,83.0852909 70.2689039,82.6169356 71.4541919,82.2266396 C77.5847742,80.2233924 93.9009849,55.4021626 94.9491017,47.4186626 C97.4523827,45.9820932 102.32716,48.7771082 105.514687,50.6077188 Z M119.510241,58.3085083 L119.508148,58.2461116 C120.456515,81.1885049 118.907278,104.163428 114.885755,126.795388 C113.71658,133.371118 113.3662,138.952934 111.986419,142.856097 C110.606638,146.75926 101.001581,134.693036 102.292648,131.722741 C107.435545,119.894103 111.941407,108.057988 114.846912,95.511556 C117.557939,83.9615612 119.833399,71.4194329 119.547001,59.4791058 L119.510241,58.3085083 Z M111.832645,51.2326713 C114.683768,51.6513841 115.313035,55.3001676 115.212042,58.0741403 C114.745918,71.0542389 113.611684,84.0418145 110.791636,96.7527405 C110.247825,99.1852628 109.647043,101.605323 108.989291,104.012922 C108.282337,106.532677 107.505464,109.044954 106.728591,111.5348 C103.505762,121.270034 99.5173121,130.750913 94.7995654,139.895634 C93.8426948,139.765373 89.3344643,141.453655 89.348721,135.292413 C89.3559116,132.272809 92.674415,121.404162 93.7082037,119.094062 C103.489032,97.4181949 114.349713,74.7404074 111.832645,51.2326713 Z" id="Shape" fill="#C4C3C6" fill-rule="nonzero"></path>
                                <path d="M112.781985,61.6827743 C113.352562,63.0598147 113.597341,64.5400306 113.498842,66.0177292 C113.068728,77.8875744 112.022118,89.7642569 109.419929,101.387953 C108.918129,103.61241 108.36376,105.82547 107.756822,108.027135 C107.104482,110.331362 106.387626,112.628751 105.670769,114.905628 C101.946637,126.054193 100.736275,130.357838 94.8621354,140.629955 C93.1531632,143.645331 91.635438,140.955933 94.1452789,136.527474 C100.019418,126.255357 101.229781,121.951712 104.953913,110.803147 C105.699444,108.52627 106.401963,106.228881 107.039965,103.924654 C107.670799,101.722989 108.225168,99.5099286 108.703072,97.2854722 C111.305261,85.6686134 112.351871,73.7850933 112.781985,61.9152482 L112.781985,61.6827743 Z" id="Path" fill="#FFFFFF" fill-rule="nonzero"></path>
                                <path d="M97.2909338,54.4766969 C94.7159307,67.9219847 93.4690349,81.5612898 93.5661053,95.2211376 C93.6767233,104.433694 94.1861727,97.9438314 95.0769625,96.2206026 C95.287066,95.8909647 95.4756435,95.5496688 95.6416542,95.1985984 C95.64166,95.1240027 95.6893795,95.0494033 95.7211944,94.9748052 C99.0223231,82.9870265 101.289665,70.8650554 103.485444,58.6311965 C103.888347,55.6229851 104.061322,52.5916238 104.003046,49.5603235 L103.136281,49.1128165 C103.088437,50.7986823 97.5852986,52.7982717 97.2909338,54.4766969 Z" id="Path" fill="#FFFFFF" fill-rule="nonzero" transform="translate(98.787455, 74.581214) rotate(2.000000) translate(-98.787455, -74.581214) "></path>
                                <path d="M56.9411944,107.422311 C55.668738,114.118647 56.9891133,128.709716 57.051778,137.537024 C57.121334,143.490402 57.4273946,139.296659 57.9653613,138.183322 C58.0922697,137.970361 58.2061624,137.749862 58.306411,137.523039 C58.3063928,137.474834 58.3352167,137.426639 58.3544266,137.378441 C60.3464126,129.63261 61.71345,121.799772 63.0371965,113.89461 C63.2798674,111.950753 63.4191268,109.418584 63.3830148,107.459677 C59.2067674,106.711732 57.0594939,106.699277 56.9411944,107.422311 Z" id="Path-Copy-23" fill="#FFFFFF" fill-rule="nonzero" transform="translate(59.889311, 123.773296) rotate(-80.000000) translate(-59.889311, -123.773296) "></path>
                                <path d="M64.2550745,97.5798642 C62.0832484,106.93305 61.0357312,116.422136 61.1258459,125.926434 C61.2248406,132.336409 61.6522954,127.821249 62.4053149,126.622872 C62.5829683,126.39366 62.7423939,126.156323 62.8827118,125.912169 C62.8826733,125.860267 62.9230228,125.808395 62.9499096,125.756512 C65.7372234,117.417926 67.6493949,108.985265 69.5009266,100.474707 C69.8402192,98.3819324 69.9848729,96.272894 69.9337802,94.1637401 L69.199834,93.8517824 C69.1603164,95.0247392 64.5032673,96.4122527 64.2550745,97.5798642 Z" id="Path-Copy-25" fill="#000000" fill-rule="nonzero" transform="translate(65.532138, 111.568991) rotate(-69.000000) translate(-65.532138, -111.568991) "></path>
                                <path d="M43.0263737,144.413552 C54.8484541,158.145681 71.2420208,153.232062 71.2838249,159.02915 C71.3403336,163.837264 71.5845967,160.450329 72.0148446,159.551242 C72.1163488,159.379268 72.2074386,159.201202 72.2876114,159.018028 C72.2875898,158.979096 72.3106439,158.940177 72.3260061,158.901253 C73.9186071,152.645791 75.0111957,146.319973 76.0691384,139.935738 C76.1543066,135.136074 73.4606104,138.69957 66.7964385,140.230836 C60.1322666,141.762103 41.9693425,143.18574 43.0263737,144.413552 Z" id="Path-Copy-26" fill="#000000" fill-rule="nonzero" transform="translate(59.526602, 149.532682) rotate(-75.000000) translate(-59.526602, -149.532682) "></path>
                                <g id="Group-44" transform="translate(80.396628, 155.956765) rotate(-20.000000) translate(-80.396628, -155.956765) translate(64.396628, 139.456765)" fill-rule="nonzero">
                                    <path d="M4.173288,21.8515444 C13.0278025,25.2594643 15.6153729,20.4531139 18.9432555,21.1310659 C22.2711381,21.809018 27.7752082,26.7083679 27.7928896,26.6633 C29.6246899,19.4198512 26.6171059,16.0208328 27.8327144,8.62796557 C27.9282082,3.06962736 24.8260591,7.19497007 17.1473558,8.96467771 C9.46865256,10.7343853 2.1386493,21.068454 4.173288,21.8515444 Z" id="Path-Copy-27" fill="#C4C3C6" transform="translate(16.115130, 16.244421) rotate(-56.000000) translate(-16.115130, -16.244421) "></path>
                                    <path d="M9.2723915,1.62177101 C8.35178478,6.13117056 9.30613289,15.956952 9.35107575,21.9013609 C9.40112657,25.9104329 9.62266893,23.0863163 10.0118074,22.3365778 C10.1036044,22.1931669 10.1859881,22.0446789 10.2585039,21.8919331 C10.2584927,21.8594711 10.2793421,21.8270163 10.2932379,21.7945591 C11.7342978,16.5784121 12.7233602,11.3036788 13.6811152,5.98024172 C13.8567134,4.67122454 13.9575434,2.96603142 13.9315093,1.64688202 C10.9110234,1.14324093 9.35798414,1.13487059 9.2723915,1.62177101 Z" id="Path-Copy-28" fill="#FFFFFF" transform="translate(11.404453, 12.632703) scale(-1, 1) rotate(-9.000000) translate(-11.404453, -12.632703) "></path>
                                </g>
                                <path d="M118.782561,60.1814639 C118.841332,60.2985012 118.841332,60.4228534 118.841332,60.5472055 C120.560367,71.1244523 119.774312,81.9504033 118.833985,92.6300577 C117.529385,107.496519 115.912272,122.410397 112.984274,137.022721 C112.474246,136.822412 111.960228,136.630343 111.442241,136.445819 C114.879599,120.624545 116.681162,104.408803 118.099355,88.2631031 C118.878063,79.4121567 119.517192,70.4734322 118.782561,61.6444303 L118.782561,60.1814639 Z" id="Path" fill="#FFFFFF" fill-rule="nonzero"></path>
                                <path d="M93.4227566,158.91786 C92.5191141,159.771366 94.1905558,167.017481 94.3633896,168.108207 C94.5635805,169.506481 109.95105,179.128407 111.450106,178.398338 C112.269361,177.984388 94.8084736,157.609027 93.4227566,158.91786 Z" id="Path-Copy-24" fill="#FFFFFF" fill-rule="nonzero"></path>
                                <path d="M31.1451573,180.932851 C39.0645022,184.433247 44.7851187,186.523737 48.3070068,187.20432 C53.589839,188.225195 52.9850511,188.765001 60.6825678,185.327421 C61.9875245,184.74465 62.2870177,188.592518 57.6630955,190.325681 C54.5804807,191.481123 51.4798252,191.538617 48.361129,190.498164 C40.918709,188.642721 35.384926,186.684752 31.7597799,184.624259 C26.887303,181.854795 25.2886926,181.458281 26.4129908,176.078327 C26.4129908,176.078327 27.9903796,177.696502 31.1451573,180.932851 Z" id="Path" fill="#FFFFFF" fill-rule="nonzero"></path>
                                <path d="M48.8077316,167.651167 C49.6433953,168.150718 51.0246124,169.40928 50.2696561,174.106405 C49.5433038,178.625564 49.5073709,182.887225 50.6427721,183.092007 C54.4162237,183.77259 53.3875497,185.299742 58.8857758,183.008023 C59.8178878,182.619508 60.0318115,185.184754 56.7290099,186.340196 C54.5271422,187.11049 52.3123883,187.14882 50.0847481,186.455184 C44.7687339,185.218222 40.8160317,183.91291 38.2266417,182.539247 C35.9064145,181.308375 35.7600758,180.488062 37.7876255,180.078309 C40.1993565,181.073242 43.6930181,177.673161 43.6612877,177.359474 C43.4751327,175.640325 42.7482823,174.129814 44.2692834,171.55535 C44.5022729,171.146869 44.8992175,170.38287 45.2065836,169.486816 C47.0502398,167.930016 48.2506225,167.318133 48.8077316,167.651167 Z" id="Path" fill="#FFFFFF" fill-rule="nonzero"></path>
                                <path d="M83.7234098,47.3247225 C84.0354228,48.056435 83.3094347,50.2238932 83.9717609,50.6660303 C89.2870311,54.6037285 81.8518424,64.803139 79.4069729,68.501487 C78.0027269,70.6043429 76.4893857,72.6325749 74.8731326,74.5778958 C74.1613351,75.4658082 73.526907,76.7706533 72.5520539,77.3420056 C71.5888911,77.9187217 70.4876667,78.2254685 69.3644392,78.2299179 C68.7967066,78.2565329 68.2484724,78.0200244 67.8789489,77.5890768 C67.6037293,77.2024993 67.450194,76.7428431 67.437944,76.2687898 C67.1594145,72.848397 67.7851477,68.7008448 67.8315693,65.3190569 C67.838196,63.9791924 65.6545052,65.2692889 64.487561,67.6346589 C63.5313547,69.5728678 63.7365924,72.2821881 62.3500887,74.4436079 C60.1535593,77.8677763 58.8090562,74.8280222 56.7308081,75.6703374 C53.1715864,77.112892 42.4968056,83.2688231 42.4143756,86.0028849 C42.3642953,87.7215409 44.7928549,93.0301819 37.9187365,89.7299123 C36.4171334,89.0089915 27.6804614,82.436593 26.833154,81.7141616 C21.560517,77.9976068 15.9843405,68.7959999 14.7242942,67.3312997 C10.8715484,63.4652381 7.13964388,60.6257292 5.67164683,58.0886296 C4.35624572,55.8152574 5.46518414,54.0647214 7.2065731,54.6925771 C8.13435079,55.5885216 7.94728123,53.1357744 8.08660101,52.8529383 C8.56409029,51.8660796 9.20191035,52.652154 10.281205,53.0087894 C10.9042778,53.2146736 9.87849002,50.9973829 10.7903511,50.9814663 C11.3014092,50.9725458 12.0897589,51.152187 12.6140733,50.9496331 C13.0252729,50.790778 11.7319865,49.2481018 12.5822401,49.1259109 C13.4324938,49.0037201 14.3510561,49.3269071 15.33374,49.9900223 C17.1115593,51.1896948 17.6890281,52.7232396 18.1329897,53.5897169 C18.428964,54.1673684 18.4607972,55.9910906 18.2284892,59.0608835 C17.0020634,58.4741982 21.7721441,63.3794417 22.8832943,64.4524671 C26.5944051,68.0362451 30.8563701,70.1519636 42.2392931,75.9724129 C51.5460539,66.2482363 56.2023532,62.9292164 56.4690429,61.594423 C57.2427358,57.9964477 61.5114565,55.6074555 64.1806969,52.9668814 C67.3683116,49.7703969 71.9717843,48.3651791 76.3973076,47.1298228 C79.0759573,46.3840591 83.3827224,46.3591653 83.7234098,47.3247225 Z M99.6938685,19.2502661 C99.823385,26.65381 100.89806,20.7031351 96.0287746,26.8949103 C94.3068284,29.0845341 92.297392,30.7503032 89.8318998,34.5836489 C88.4997208,30.8164448 87.9090751,30.5810247 85.9016514,27.0712879 C87.4993427,32.7515114 85.5970013,31.0913908 87.847224,34.9566135 C86.0343248,32.5381394 85.0182525,32.2084634 82.4029452,27.6287526 C83.9133397,32.6754428 85.3461037,36.523136 85.9181007,37.1789724 C84.3656636,36.1506361 84.7261151,36.4847975 82.4381274,33.8614518 C83.3172668,35.7884146 84.3735455,37.6070355 85.5489259,39.2784628 C78.1915512,31.4336765 74.4819936,25.7466482 74.4202531,22.2173778 C74.2677107,13.497604 78.7077983,6.98108117 87.4469478,6.82887695 C96.1860973,6.67667274 99.5413261,10.5304923 99.6938685,19.2502661 Z" id="Shape" fill="#FFFFFF" fill-rule="nonzero"></path>
                            </g>
                        </g>
                        <path d="M26.0758775,163.287583 C28.06469,164.517872 28.2439453,166.956013 28.240708,172.784582 C28.2391101,175.6614 27.1512398,177.535597 27.1491884,181.229015 C27.147137,184.922432 29.3185659,185.738033 29.3169693,188.614316 C29.313731,194.442885 25.9105431,199.169759 21.7157355,199.172085 C17.5209279,199.17441 14.1229888,194.451306 14.1262238,188.622737 C14.1271722,186.919547 15.5463698,173.164552 17.3936949,166.458462 C18.6660618,161.839564 24.0870651,162.057293 26.0758775,163.287583 Z" id="Path" fill="#FFFFFF" transform="translate(21.721597, 180.851522) rotate(15.000000) translate(-21.721597, -180.851522) "></path>
                        <g id="Group-42-Copy" transform="translate(21.899558, 182.121949) rotate(-135.000000) translate(-21.899558, -182.121949) translate(6.399558, 174.621949)" fill="#000000">
                            <g id="Group-43" transform="translate(-0.000000, 0.000000)">
                                <path d="M12.0272271,5.03519232 C16.3912441,5.02436125 20.432583,5.23412442 23.7392167,5.59982418 C20.3224225,6.02636242 16.0457578,6.28548375 11.4054316,6.29700059 C7.04134832,6.30783182 2.99995295,6.09806212 -0.306708599,5.73235207 C3.1103063,5.30582624 7.38693893,5.04670906 12.0272271,5.03519232 Z" id="Path" transform="translate(11.716254, 5.666096) rotate(-25.000000) translate(-11.716254, -5.666096) "></path>
                                <path d="M18.8829731,7.80869721 C22.778411,7.79925712 26.3858189,7.98162807 29.3374099,8.29959155 C26.2874902,8.67048927 22.4700265,8.89582035 18.3279476,8.90585815 C14.4324506,8.91529839 10.8249923,8.73292176 7.87337637,8.41494933 C10.923493,8.0440624 14.7409282,7.81873493 18.8829731,7.80869721 Z" id="Path-Copy-19" transform="translate(18.605393, 8.357278) rotate(-25.000000) translate(-18.605393, -8.357278) "></path>
                                <path d="M23.8834366,10.676602 C26.4583871,10.6703619 28.8429422,10.7919919 30.7939895,11.004008 C28.777936,11.2512314 26.2545248,11.4013999 23.5165404,11.408035 C20.9415509,11.4142752 18.5569624,11.2926414 16.6058987,11.0806193 C18.6220825,10.8334031 21.1454747,10.6832371 23.8834366,10.676602 Z" id="Path-Copy-20" transform="translate(23.699944, 11.042318) rotate(-25.000000) translate(-23.699944, -11.042318) "></path>
                            </g>
                        </g>
                    </g>
                </g>
            </g>
        </g>
    </g>
</svg>