<?xml version="1.0" encoding="UTF-8"?>
<svg width="720px" height="601px" viewBox="0 0 720 601" version="1.1" xmlns="http://www.w3.org/2000/svg" xmlns:xlink="http://www.w3.org/1999/xlink">
    <!-- Generator: Sketch 59.1 (86144) - https://sketch.com -->
    <title>Group</title>
    <desc>Created with Sketch.</desc>
    <g id="Joystream---Website" stroke="none" stroke-width="1" fill="none" fill-rule="evenodd">
        <g id="Full_roles_List" transform="translate(-720.000000, -89.000000)">
            <g id="Group" transform="translate(703.000000, 89.000000)">
                <g id="Group-Copy-11" transform="translate(377.000000, 300.500000) scale(1, -1) translate(-377.000000, -300.500000) translate(17.000000, 0.000000)">
                    <path d="M286.660142,320.610133 L280.006762,320.610133 L280.006762,327.263467 L286.660142,327.263467 L286.660142,333.933333 L280.006762,333.933333 L280.006762,340.6032 L286.660142,340.6032 L286.660142,347.256533 L293.330071,347.256533 L293.330071,353.9264 L286.660142,353.9264 L286.660142,347.273067 L280.006762,347.273067 L280.006762,353.9264 L286.660142,353.9264 L286.660142,360.6 L279.990214,360.6 L279.990214,353.930133 L273.336833,353.930133 L273.336833,347.2768 L266.666904,347.2768 L266.666904,353.930133 L259.996975,353.930133 L259.996975,347.2768 L253.343594,347.2768 L253.343594,353.930133 L259.996975,353.930133 L259.996975,360.6 L253.326512,360.6 L253.326512,353.930133 L246.673665,353.930133 L246.673665,360.6 L240,360.6 L240,353.930133 L246.669929,353.930133 L246.669929,347.2768 L240,347.2768 L240,340.6064 L246.669929,340.6064 L246.669929,333.936533 L240,333.936533 L240,327.266667 L246.669929,327.266667 L246.669929,320.613333 L246.669929,320.5968 L253.32331,320.5968 L253.32331,313.943467 L259.993238,313.943467 L259.993238,320.5968 L266.663167,320.5968 L266.663167,313.943467 L273.33363,313.943467 L273.33363,320.5968 L279.987011,320.5968 L279.987011,313.943467 L286.65694,313.943467 L286.65694,320.5968 L293.326868,320.5968 L293.326868,327.266667 L286.65694,327.266667 L286.65694,320.610133 L286.660142,320.610133 Z M246.669929,320.5936 L246.669929,313.939733 L240,313.939733 L240,320.610133 L246.669929,320.610133 L246.669929,320.5936 Z M266.663167,353.930133 L266.663167,360.6 L273.33363,360.6 L273.33363,353.930133 L266.663167,353.930133 Z M286.660142,340.6064 L286.660142,333.936533 L293.330071,333.936533 L293.330071,340.6064 L286.660142,340.6064 Z M253.32331,347.260267 L246.669929,347.260267 L246.669929,340.6064 L253.32331,340.6064 L253.32331,347.260267 Z M253.339858,313.939733 L253.339858,307.269867 L259.993238,307.269867 L259.993238,313.939733 L266.663167,313.939733 L266.663167,307.269867 L273.33363,307.269867 L273.33363,313.939733 L280.003559,313.939733 L280.003559,307.269867 L286.65694,307.269867 L286.65694,313.939733 L293.326868,313.939733 L293.326868,307.269867 L286.65694,307.269867 L286.65694,300.6 L279.987011,300.6 L279.987011,307.269867 L273.33363,307.269867 L273.33363,300.6 L266.663167,300.6 L266.663167,307.269867 L259.993238,307.269867 L259.993238,300.6 L253.32331,300.6 L253.32331,307.269867 L246.669929,307.269867 L246.669929,300.6 L240,300.6 L240,307.269867 L246.669929,307.269867 L246.669929,313.939733 L253.339858,313.939733 Z M279.987011,327.263467 L279.987011,333.933333 L273.33363,333.933333 L273.33363,327.263467 L279.987011,327.263467 Z M266.663167,327.263467 L266.663167,320.610133 L273.33363,320.610133 L273.33363,327.263467 L266.663167,327.263467 Z M259.993238,327.263467 L266.663167,327.263467 L266.663167,333.933333 L259.993238,333.933333 L259.993238,327.263467 Z M259.993238,327.263467 L253.339858,327.263467 L253.339858,320.610133 L259.993238,320.610133 L259.993238,327.263467 Z M259.993238,340.6064 L253.339858,340.6064 L253.339858,333.936533 L259.993238,333.936533 L259.993238,340.6064 Z M266.663167,340.6064 L266.663167,347.260267 L259.993238,347.260267 L259.993238,340.6064 L266.663167,340.6064 Z M273.336833,340.6064 L266.666904,340.6064 L266.666904,333.936533 L273.336833,333.936533 L273.336833,340.6064 Z M273.336833,340.6064 L279.990214,340.6064 L279.990214,347.260267 L273.336833,347.260267 L273.336833,340.6064 Z M253.32331,333.936533 L253.32331,327.266667 L246.669929,327.266667 L246.669929,333.936533 L253.32331,333.936533 Z M300,353.930133 L293.330071,353.930133 L293.330071,360.6 L300,360.6 L300,353.930133 Z M293.330071,340.6064 L300,340.6064 L300,347.2768 L293.330071,347.2768 L293.330071,340.6064 Z M300,327.263467 L293.330071,327.263467 L293.330071,333.933333 L300,333.933333 L300,327.263467 Z M293.330071,313.939733 L300,313.939733 L300,320.610133 L293.330071,320.610133 L293.330071,313.939733 Z M293.330071,300.6 L300,300.6 L300,307.269867 L293.330071,307.269867 L293.330071,300.6 Z" id="Shape" fill="#4038FF"></path>
                    <path d="M586.660142,320.610133 L580.006762,320.610133 L580.006762,327.263467 L586.660142,327.263467 L586.660142,333.933333 L580.006762,333.933333 L580.006762,340.6032 L586.660142,340.6032 L586.660142,347.256533 L593.330071,347.256533 L593.330071,353.9264 L586.660142,353.9264 L586.660142,347.273067 L580.006762,347.273067 L580.006762,353.9264 L586.660142,353.9264 L586.660142,360.6 L579.990214,360.6 L579.990214,353.930133 L573.336833,353.930133 L573.336833,347.2768 L566.666904,347.2768 L566.666904,353.930133 L559.996975,353.930133 L559.996975,347.2768 L553.343594,347.2768 L553.343594,353.930133 L559.996975,353.930133 L559.996975,360.6 L553.326512,360.6 L553.326512,353.930133 L546.673665,353.930133 L546.673665,360.6 L540,360.6 L540,353.930133 L546.669929,353.930133 L546.669929,347.2768 L540,347.2768 L540,340.6064 L546.669929,340.6064 L546.669929,333.936533 L540,333.936533 L540,327.266667 L546.669929,327.266667 L546.669929,320.613333 L546.669929,320.5968 L553.32331,320.5968 L553.32331,313.943467 L559.993238,313.943467 L559.993238,320.5968 L566.663167,320.5968 L566.663167,313.943467 L573.33363,313.943467 L573.33363,320.5968 L579.987011,320.5968 L579.987011,313.943467 L586.65694,313.943467 L586.65694,320.5968 L593.326868,320.5968 L593.326868,327.266667 L586.65694,327.266667 L586.65694,320.610133 L586.660142,320.610133 Z M546.669929,320.5936 L546.669929,313.939733 L540,313.939733 L540,320.610133 L546.669929,320.610133 L546.669929,320.5936 Z M566.663167,353.930133 L566.663167,360.6 L573.33363,360.6 L573.33363,353.930133 L566.663167,353.930133 Z M586.660142,340.6064 L586.660142,333.936533 L593.330071,333.936533 L593.330071,340.6064 L586.660142,340.6064 Z M553.32331,347.260267 L546.669929,347.260267 L546.669929,340.6064 L553.32331,340.6064 L553.32331,347.260267 Z M553.339858,313.939733 L553.339858,307.269867 L559.993238,307.269867 L559.993238,313.939733 L566.663167,313.939733 L566.663167,307.269867 L573.33363,307.269867 L573.33363,313.939733 L580.003559,313.939733 L580.003559,307.269867 L586.65694,307.269867 L586.65694,313.939733 L593.326868,313.939733 L593.326868,307.269867 L586.65694,307.269867 L586.65694,300.6 L579.987011,300.6 L579.987011,307.269867 L573.33363,307.269867 L573.33363,300.6 L566.663167,300.6 L566.663167,307.269867 L559.993238,307.269867 L559.993238,300.6 L553.32331,300.6 L553.32331,307.269867 L546.669929,307.269867 L546.669929,300.6 L540,300.6 L540,307.269867 L546.669929,307.269867 L546.669929,313.939733 L553.339858,313.939733 Z M579.987011,327.263467 L579.987011,333.933333 L573.33363,333.933333 L573.33363,327.263467 L579.987011,327.263467 Z M566.663167,327.263467 L566.663167,320.610133 L573.33363,320.610133 L573.33363,327.263467 L566.663167,327.263467 Z M559.993238,327.263467 L566.663167,327.263467 L566.663167,333.933333 L559.993238,333.933333 L559.993238,327.263467 Z M559.993238,327.263467 L553.339858,327.263467 L553.339858,320.610133 L559.993238,320.610133 L559.993238,327.263467 Z M559.993238,340.6064 L553.339858,340.6064 L553.339858,333.936533 L559.993238,333.936533 L559.993238,340.6064 Z M566.663167,340.6064 L566.663167,347.260267 L559.993238,347.260267 L559.993238,340.6064 L566.663167,340.6064 Z M573.336833,340.6064 L566.666904,340.6064 L566.666904,333.936533 L573.336833,333.936533 L573.336833,340.6064 Z M573.336833,340.6064 L579.990214,340.6064 L579.990214,347.260267 L573.336833,347.260267 L573.336833,340.6064 Z M553.32331,333.936533 L553.32331,327.266667 L546.669929,327.266667 L546.669929,333.936533 L553.32331,333.936533 Z M600,353.930133 L593.330071,353.930133 L593.330071,360.6 L600,360.6 L600,353.930133 Z M593.330071,340.6064 L600,340.6064 L600,347.2768 L593.330071,347.2768 L593.330071,340.6064 Z M600,327.263467 L593.330071,327.263467 L593.330071,333.933333 L600,333.933333 L600,327.263467 Z M593.330071,313.939733 L600,313.939733 L600,320.610133 L593.330071,320.610133 L593.330071,313.939733 Z M593.330071,300.6 L600,300.6 L600,307.269867 L593.330071,307.269867 L593.330071,300.6 Z" id="Shape-Copy-10" fill="#4038FF"></path>
                    <path d="M166.660142,560.610133 L160.006762,560.610133 L160.006762,567.263467 L166.660142,567.263467 L166.660142,573.933333 L160.006762,573.933333 L160.006762,580.6032 L166.660142,580.6032 L166.660142,587.256533 L173.330071,587.256533 L173.330071,593.9264 L166.660142,593.9264 L166.660142,587.273067 L160.006762,587.273067 L160.006762,593.9264 L166.660142,593.9264 L166.660142,600.6 L159.990214,600.6 L159.990214,593.930133 L153.336833,593.930133 L153.336833,587.2768 L146.666904,587.2768 L146.666904,593.930133 L139.996975,593.930133 L139.996975,587.2768 L133.343594,587.2768 L133.343594,593.930133 L139.996975,593.930133 L139.996975,600.6 L133.326512,600.6 L133.326512,593.930133 L126.673665,593.930133 L126.673665,600.6 L120,600.6 L120,593.930133 L126.669929,593.930133 L126.669929,587.2768 L120,587.2768 L120,580.6064 L126.669929,580.6064 L126.669929,573.936533 L120,573.936533 L120,567.266667 L126.669929,567.266667 L126.669929,560.613333 L126.669929,560.5968 L133.32331,560.5968 L133.32331,553.943467 L139.993238,553.943467 L139.993238,560.5968 L146.663167,560.5968 L146.663167,553.943467 L153.33363,553.943467 L153.33363,560.5968 L159.987011,560.5968 L159.987011,553.943467 L166.65694,553.943467 L166.65694,560.5968 L173.326868,560.5968 L173.326868,567.266667 L166.65694,567.266667 L166.65694,560.610133 L166.660142,560.610133 Z M126.669929,560.5936 L126.669929,553.939733 L120,553.939733 L120,560.610133 L126.669929,560.610133 L126.669929,560.5936 Z M146.663167,593.930133 L146.663167,600.6 L153.33363,600.6 L153.33363,593.930133 L146.663167,593.930133 Z M166.660142,580.6064 L166.660142,573.936533 L173.330071,573.936533 L173.330071,580.6064 L166.660142,580.6064 Z M133.32331,587.260267 L126.669929,587.260267 L126.669929,580.6064 L133.32331,580.6064 L133.32331,587.260267 Z M133.339858,553.939733 L133.339858,547.269867 L139.993238,547.269867 L139.993238,553.939733 L146.663167,553.939733 L146.663167,547.269867 L153.33363,547.269867 L153.33363,553.939733 L160.003559,553.939733 L160.003559,547.269867 L166.65694,547.269867 L166.65694,553.939733 L173.326868,553.939733 L173.326868,547.269867 L166.65694,547.269867 L166.65694,540.6 L159.987011,540.6 L159.987011,547.269867 L153.33363,547.269867 L153.33363,540.6 L146.663167,540.6 L146.663167,547.269867 L139.993238,547.269867 L139.993238,540.6 L133.32331,540.6 L133.32331,547.269867 L126.669929,547.269867 L126.669929,540.6 L120,540.6 L120,547.269867 L126.669929,547.269867 L126.669929,553.939733 L133.339858,553.939733 Z M159.987011,567.263467 L159.987011,573.933333 L153.33363,573.933333 L153.33363,567.263467 L159.987011,567.263467 Z M146.663167,567.263467 L146.663167,560.610133 L153.33363,560.610133 L153.33363,567.263467 L146.663167,567.263467 Z M139.993238,567.263467 L146.663167,567.263467 L146.663167,573.933333 L139.993238,573.933333 L139.993238,567.263467 Z M139.993238,567.263467 L133.339858,567.263467 L133.339858,560.610133 L139.993238,560.610133 L139.993238,567.263467 Z M139.993238,580.6064 L133.339858,580.6064 L133.339858,573.936533 L139.993238,573.936533 L139.993238,580.6064 Z M146.663167,580.6064 L146.663167,587.260267 L139.993238,587.260267 L139.993238,580.6064 L146.663167,580.6064 Z M153.336833,580.6064 L146.666904,580.6064 L146.666904,573.936533 L153.336833,573.936533 L153.336833,580.6064 Z M153.336833,580.6064 L159.990214,580.6064 L159.990214,587.260267 L153.336833,587.260267 L153.336833,580.6064 Z M133.32331,573.936533 L133.32331,567.266667 L126.669929,567.266667 L126.669929,573.936533 L133.32331,573.936533 Z M180,593.930133 L173.330071,593.930133 L173.330071,600.6 L180,600.6 L180,593.930133 Z M173.330071,580.6064 L180,580.6064 L180,587.2768 L173.330071,587.2768 L173.330071,580.6064 Z M180,567.263467 L173.330071,567.263467 L173.330071,573.933333 L180,573.933333 L180,567.263467 Z M173.330071,553.939733 L180,553.939733 L180,560.610133 L173.330071,560.610133 L173.330071,553.939733 Z M173.330071,540.6 L180,540.6 L180,547.269867 L173.330071,547.269867 L173.330071,540.6 Z" id="Shape-Copy-5" fill="#1F242C"></path>
                    <path d="M353.330071,300.6 L360,300.6 L360,240.6 L353.330071,240.6 L353.330071,300.6 Z M346.666548,300.6 L339.999822,300.6 L339.999822,240.6 L346.666548,240.6 L346.666548,300.6 Z M333.33363,300.6 L326.666904,300.6 L326.666904,240.6 L333.33363,240.6 L333.33363,300.6 Z M313.333452,300.6 L320.000178,300.6 L320.000178,240.6 L313.333452,240.6 L313.333452,300.6 Z M306.666726,300.6 L300,300.6 L300,240.6 L306.666726,240.6 L306.666726,300.6 Z" id="Shape" fill="#4038FF"></path>
                    <path d="M364.699429,180.6 L360,180.6 L360,175.9 L415.299429,120.6 L420,120.6 L420,125.3 L364.699429,180.6 Z M405.866286,120.6 L396.433143,120.6 L360,157.033257 L360,166.466629 L405.866286,120.6 Z M387,120.6 L377.566857,120.6 L360,138.166629 L360,147.6 L387,120.6 Z M360,120.6 L360,128.733326 L368.132571,120.6 L360,120.6 Z M420,144.166629 L420,134.733371 L374.132571,180.6 L383.566857,180.6 L420,144.166629 Z M420,163.033257 L420,153.6 L393,180.6 L402.433143,180.6 L420,163.033257 Z M420,172.466629 L411.866286,180.6 L420,180.6 L420,172.466629 Z" id="Shape" fill="#F2F5F9" fill-rule="nonzero"></path>
                    <path d="M360.6,427.269867 L360.6,420.6 L300.6,420.6 L300.6,427.269867 L360.6,427.269867 Z M360.6,433.933333 L360.6,440.6 L300.6,440.6 L300.6,433.933333 L360.6,433.933333 Z M360.6,447.266667 L360.6,453.933333 L300.6,453.933333 L300.6,447.266667 L360.6,447.266667 Z M360.6,467.266667 L360.6,460.6 L300.6,460.6 L300.6,467.266667 L360.6,467.266667 Z M360.6,473.933333 L360.6,480.6 L300.6,480.6 L300.6,473.933333 L360.6,473.933333 Z" id="Shape" fill="#1F242C"></path>
                    <path d="M300,67.2698667 L300,60.6 L240,60.6 L240,67.2698667 L300,67.2698667 Z M300,73.9333333 L300,80.6 L240,80.6 L240,73.9333333 L300,73.9333333 Z M300,87.2666667 L300,93.9333333 L240,93.9333333 L240,87.2666667 L300,87.2666667 Z M300,107.266667 L300,100.6 L240,100.6 L240,107.266667 L300,107.266667 Z M300,113.933333 L300,120.6 L240,120.6 L240,113.933333 L300,113.933333 Z" id="Shape-Copy-12" fill="#4038FF"></path>
                    <path d="M540,247.269867 L540,240.6 L480,240.6 L480,247.269867 L540,247.269867 Z M540,253.933333 L540,260.6 L480,260.6 L480,253.933333 L540,253.933333 Z M540,267.266667 L540,273.933333 L480,273.933333 L480,267.266667 L540,267.266667 Z M540,287.266667 L540,280.6 L480,280.6 L480,287.266667 L540,287.266667 Z M540,293.933333 L540,300.6 L480,300.6 L480,293.933333 L540,293.933333 Z" id="Shape-Copy-7" fill="#1F242C"></path>
                    <path d="M300,233.930027 L300,240.6 L240,240.6 L240,233.930027 L300,233.930027 Z M300,213.926667 L300,207.256693 L240,207.256693 L240,213.926667 L300,213.926667 Z M300,193.92336 L300,200.593333 L240,200.593333 L240,193.92336 L300,193.92336 Z M300,180.6 L300,187.270027 L240,187.270027 L240,180.6 L300,180.6 Z M300,227.26 L300,220.589973 L240,220.589973 L240,227.26 L300,227.26 Z" id="Shape" fill="#1F242C"></path>
                    <path d="M712.733274,180.6 L719.4,180.6 C719.4,213.736533 692.536655,240.6 659.4,240.6 L659.4,233.933333 C688.856584,233.933333 712.733274,210.056533 712.733274,180.6 Z M699.399822,180.6 L706.066548,180.6 C706.066548,206.373333 685.17331,227.266667 659.4,227.266667 L659.4,220.6 C681.490036,220.6 699.399822,202.690133 699.399822,180.6 Z M692.73363,180.6 L686.066904,180.6 C686.066904,195.3264 674.12669,207.266667 659.4,207.266667 L659.4,213.933333 C677.809964,213.933333 692.73363,199.010133 692.73363,180.6 Z M672.733452,180.6 L679.400178,180.6 C679.400178,191.6464 670.446619,200.6 659.4,200.6 L659.4,193.933333 C666.763345,193.933333 672.733452,187.9632 672.733452,180.6 Z M659.4,180.6 L666.066726,180.6 C666.066726,184.2832 663.083274,187.266667 659.4,187.266667 L659.4,180.6 Z" id="Shape-Copy-8" fill="#1F242C"></path>
                    <path d="M186.666726,420.6 L180,420.6 C180,387.463467 206.863345,360.6 240,360.6 L240,367.266667 C210.543416,367.266667 186.666726,391.143467 186.666726,420.6 Z M200.000178,420.6 L193.333452,420.6 C193.333452,394.826667 214.22669,373.933333 240,373.933333 L240,380.6 C217.909964,380.6 200.000178,398.509867 200.000178,420.6 Z M206.666904,420.6 L213.33363,420.6 C213.33363,405.873067 225.27331,393.933333 240,393.933333 L240,387.266667 C221.590036,387.266667 206.666904,402.189867 206.666904,420.6 Z M226.666548,420.6 L220.000356,420.6 C220.000356,409.553067 228.953381,400.6 240,400.6 L240,407.266667 C232.636655,407.266667 226.666548,413.2368 226.666548,420.6 Z M240,420.6 L233.333274,420.6 C233.333274,416.9168 236.316726,413.933333 240,413.933333 L240,420.6 Z" id="Shape" fill="#FFFFFF" transform="translate(210.000000, 390.600000) rotate(-360.000000) translate(-210.000000, -390.600000) "></path>
                    <path d="M606.666726,180.6 L600,180.6 C600,147.463467 626.863345,120.6 660,120.6 L660,127.266667 C630.543416,127.266667 606.666726,151.143467 606.666726,180.6 Z M620.000178,180.6 L613.333452,180.6 C613.333452,154.826667 634.22669,133.933333 660,133.933333 L660,140.6 C637.909964,140.6 620.000178,158.509867 620.000178,180.6 Z M626.666904,180.6 L633.33363,180.6 C633.33363,165.873067 645.27331,153.933333 660,153.933333 L660,147.266667 C641.590036,147.266667 626.666904,162.189867 626.666904,180.6 Z M646.666548,180.6 L640.000356,180.6 C640.000356,169.553067 648.953381,160.6 660,160.6 L660,167.266667 C652.636655,167.266667 646.666548,173.2368 646.666548,180.6 Z M660,180.6 L653.333274,180.6 C653.333274,176.9168 656.316726,173.933333 660,173.933333 L660,180.6 Z" id="Shape-Copy-11" fill="#1F242C" transform="translate(630.000000, 150.600000) rotate(-270.000000) translate(-630.000000, -150.600000) "></path>
                    <path d="M120,300.6 L120,360.6 L180,360.6 C180,327.463467 153.136655,300.6 120,300.6 Z" id="Path" fill="#4038FF" fill-rule="nonzero" transform="translate(150.000000, 330.600000) rotate(-180.000000) translate(-150.000000, -330.600000) "></path>
                    <path d="M60,300.6 L120,300.6 L120,240.6 C86.8633452,240.6 60,267.463467 60,300.6 Z" id="Path" fill="#1F242C" fill-rule="nonzero"></path>
                    <path d="M420.6,540.6 L480.6,540.6 L480.6,480.6 C447.463345,480.6 420.6,507.463467 420.6,540.6 Z" id="Path-Copy-2" fill="#1F242C" fill-rule="nonzero" transform="translate(450.600000, 510.600000) rotate(-90.000000) translate(-450.600000, -510.600000) "></path>
                    <path d="M186.669929,540.6 L180,540.6 L180,480.6 L186.669929,480.6 L186.669929,540.6 Z M206.67331,540.6 L213.343238,540.6 L213.343238,480.6 L206.67331,480.6 L206.67331,540.6 Z M226.67669,540.6 L220.006762,540.6 L220.006762,480.6 L226.67669,480.6 L226.67669,540.6 Z M240,540.6 L233.330071,540.6 L233.330071,480.6 L240,480.6 L240,540.6 Z M193.339858,540.6 L200.009786,540.6 L200.009786,480.6 L193.339858,480.6 L193.339858,540.6 Z" id="Shape" fill="#4038FF"></path>
                    <path d="M6.66992883,420.6 L0,420.6 L0,360.6 L6.66992883,360.6 L6.66992883,420.6 Z M26.6733096,420.6 L33.3432384,420.6 L33.3432384,360.6 L26.6733096,360.6 L26.6733096,420.6 Z M46.6766904,420.6 L40.0067616,420.6 L40.0067616,360.6 L46.6766904,360.6 L46.6766904,420.6 Z M60,420.6 L53.3300712,420.6 L53.3300712,360.6 L60,360.6 L60,420.6 Z M13.3398577,420.6 L20.0097865,420.6 L20.0097865,360.6 L13.3398577,360.6 L13.3398577,420.6 Z" id="Shape-Copy" fill="#1F242C"></path>
                    <path d="M487.269929,60.6 L480.6,60.6 L480.6,0.6 L487.269929,0.6 L487.269929,60.6 Z M507.27331,60.6 L513.943238,60.6 L513.943238,0.6 L507.27331,0.6 L507.27331,60.6 Z M527.27669,60.6 L520.606762,60.6 L520.606762,0.6 L527.27669,0.6 L527.27669,60.6 Z M540.6,60.6 L533.930071,60.6 L533.930071,0.6 L540.6,0.6 L540.6,60.6 Z M493.939858,60.6 L500.609786,60.6 L500.609786,0.6 L493.939858,0.6 L493.939858,60.6 Z" id="Shape-Copy-9" fill="#4038FF"></path>
                </g>
                <g id="Illustrations/Roles" transform="translate(0.000000, 60.000000)">
                    <g id="Group-36" transform="translate(343.000000, 270.500000) rotate(-4.000000) translate(-343.000000, -270.500000) translate(17.000000, 23.000000)">
                        <g id="Group-35" transform="translate(509.210455, 141.571176) rotate(19.000000) translate(-509.210455, -141.571176) translate(396.710455, 31.071176)">
                            <g id="Group-3" transform="translate(112.468375, 110.347386) scale(-1, -1) rotate(131.000000) translate(-112.468375, -110.347386) translate(45.968375, 19.347386)" fill="#000000" stroke="#000000" stroke-width="4.39500978">
                                <path d="M67.2875069,58.3084038 C77.4473607,58.4382231 99.1932581,73.0935755 104.690459,78.3732774 C112.989281,86.3432511 121.835279,95.9220561 121.739841,108.763728 C121.676216,117.34223 115.847911,125.019472 111.940275,131.659958 C109.748394,135.384147 107.673158,138.91013 106.363543,142.593751 C106.73681,142.700388 107.123862,142.793116 107.358214,142.849912 C120.387556,145.971369 130.792366,158.234651 132.661881,172.671245 C133.318279,177.742309 130.837964,179.876213 129.741493,180.557764 C128.852864,181.112973 127.858193,181.394634 126.788232,181.394634 C125.704486,181.394634 124.757534,181.102541 123.973886,180.816243 C111.513988,176.266774 101.095392,170.164111 92.1253258,162.157046 C82.4172095,153.49509 76.091823,144.018285 73.3251954,133.992068 C70.5267554,123.851099 71.7907723,112.979897 76.3696522,104.894013 C72.833162,104.161462 69.0347489,104.001506 65.0942398,103.834596 C57.9544532,103.53323 50.5707706,103.221432 43.7777402,99.411469 C37.735485,96.0234188 33.3283926,90.4736465 28.9764418,84.6028034 C19.4761672,71.7912676 8.80519241,56.6487811 2.40345587,39.02582 C1.03869938,35.2668577 -0.13094041,31.1845064 0.556209711,26.8031072 C1.34728068,21.7575435 4.40552289,17.9487399 6.6398212,15.1668992 C12.4106097,7.97931813 19.5132818,0.630622154 28.4356292,0.630622154 C29.1344439,0.630622154 29.841742,0.676986167 30.536315,0.769714192 C33.7228676,1.1893085 36.5965973,2.58370618 39.132054,3.81351161 C41.5688919,4.99579393 43.8710569,6.11316663 45.891151,6.11316663 C46.1414094,6.11316663 46.3884865,6.09693923 46.6270803,6.06216622 C48.3666493,5.81997798 50.123079,4.6017433 52.0082444,3.0077216 C57.4880625,11.3780412 62.58115,29.811602 67.2875069,58.3084038 Z" id="Shape"></path>
                            </g>
                            <path d="M75.9546566,24.5565146 C67.8942127,23.4843452 61.1315312,30.7275788 55.7818038,37.4057425 C53.565276,40.1720788 51.268378,43.1413721 50.7021432,46.7708983 C50.1896911,50.0640361 51.1891839,53.4023902 52.3177625,56.5088212 C58.2727949,72.9031638 68.1029998,87.2284722 78.2537713,100.935688 C82.1280556,106.168317 86.2227784,111.483479 91.6952973,114.559521 C103.189391,121.022924 117.748576,116.101089 129.585356,121.7724 C122.268643,129.134709 120.487386,141.555717 123.367508,151.982526 C126.247633,162.411655 133.084711,171.038634 140.793521,177.930758 C149.911354,186.082645 160.186425,191.752787 171.290947,195.821452 C172.04976,196.100445 172.919813,196.367919 173.614522,195.934563 C174.553863,195.349416 174.582441,193.895833 174.430053,192.722859 C172.81347,180.284224 163.625813,169.440855 152.417428,166.743349 C150.594753,166.304626 148.371485,165.729871 147.852978,163.767755 C147.595847,162.790759 147.874775,161.749199 148.194031,160.795836 C151.931045,149.673285 161.563708,140.732656 161.641707,128.87534 C161.71507,117.902017 153.562047,109.219527 146.028848,101.971385 C139.88672,96.0618783 132.992095,89.81886 124.823242,89.7083315 C119.599839,89.6382928 114.68349,92.1288231 109.69343,93.8107091 C98.5979364,97.5518377 84.1938358,95.9308294 78.6315513,84.7572275 C73.6178531,74.6826504 78.4215438,61.821909 85.7577821,53.6521858 C86.7094827,52.5937281 87.8635285,51.5087398 89.2197464,51.5805219 C91.0983214,51.6816977 92.2018145,53.8310281 93.3600091,55.4560346 C96.7041366,60.1476607 81.9043595,25.347519 75.9546566,24.5565146 Z" id="Fill-4" fill="#000000" transform="translate(112.531882, 110.306567) scale(-1, -1) rotate(131.000000) translate(-112.531882, -110.306567) "></path>
                            <path d="M168.159386,95.897042 C168.242444,96.4539518 168.454732,96.970355 168.169071,97.5119073 L168.18383,97.4121498 C167.862281,109.450258 160.880556,118.47408 156.291975,128.546104 C154.789951,131.844301 153.085187,134.642343 153.383823,138.693634 C153.54225,140.857337 155.947457,148.298165 154.929717,148.887893 C154.720026,149.009547 148.414516,144.714786 146.290199,142.933951 C132.222637,131.14098 132.10832,120.813328 132.10832,120.813328 C130.232868,109.31998 136.04981,103.061557 137.596727,102.239891 C144.899882,98.360724 163.666504,103.290014 164.683191,102.707246 C165.44147,102.272777 162.75393,94.5142147 156.843668,89.9395763 C154.950119,88.2362923 152.889025,89.1697882 151.316212,89.9029528 C143.400249,93.5930987 141.430154,92.7956273 133.495707,91.6121827 C128.44555,90.8578153 123.710846,68.5504232 129.408898,64.3644135 C134.354055,60.730047 134.587685,61.5689192 139.188044,64.3937267 C142.144573,66.2098132 150.223923,70.7276883 156.383874,77.1079547 C163.039847,84.0019829 167.702024,92.8251566 168.159386,95.897042 Z" id="Fill-10" fill="#C4C3C6" transform="translate(147.562644, 105.418229) scale(-1, -1) rotate(131.000000) translate(-147.562644, -105.418229) "></path>
                            <path d="M152.949214,92.0360551 C157.872808,92.0397435 160.502149,98.2570024 157.416595,108.41605 C154.331041,118.575097 163.524501,102.318566 163.523323,100.745381 C163.520667,97.1999736 165.866431,80.1608276 157.01543,80.1541856 C148.16443,80.1475665 140.991429,83.0163122 140.994084,86.56172 C140.99674,90.1071277 144.098214,92.0294246 152.949214,92.0360551 Z" id="Oval" fill="#000000" transform="translate(152.398508, 95.944674) scale(-1, -1) rotate(131.000000) translate(-152.398508, -95.944674) "></path>
                            <path d="M145.35404,88.6697967 C136.213171,96.6694235 134.50315,101.703001 128.944632,106.562434 C125.405946,109.654704 120.797129,82.12014 124.498796,80.8081917 C126.878103,79.9653427 136.377034,76.7428976 144.196912,77.2604044 C152.016789,77.7779112 153.697677,80.5282984 158.331962,83.8428412 C151.889633,84.1733131 147.50337,86.7888122 145.35404,88.6697967 Z" id="Path" fill="#FFFFFF"></path>
                            <path d="M202.432171,131.123761 C193.74006,128.365494 189.804938,116.78505 187.712334,109.598988 C186.973018,107.060137 188.457813,106.220177 190.806574,107.424959 C199.517982,111.899027 207.747941,119.737796 209.685414,130.576894 C209.898209,131.770796 204.068433,131.643551 202.432171,131.123761 Z" id="Fill-14" fill="#C4C3C6" transform="translate(198.606167, 119.193093) scale(-1, -1) rotate(131.000000) translate(-198.606167, -119.193093) "></path>
                            <path d="M52.2818391,96.7917675 C52.0612671,97.0025294 51.8406951,97.2132913 51.6201231,97.4240532 C51.4878168,97.5997266 51.3554841,97.7402456 51.2232042,97.9510736 L52.2818391,96.7917675 Z" id="Fill-16" fill="#D796A0" transform="translate(51.752522, 97.371421) scale(-1, -1) rotate(131.000000) translate(-51.752522, -97.371421) "></path>
                            <path d="M83.6053291,87.2233728 C82.9554311,82.4154349 80.2136273,75.596638 75.3822341,72.6892904 C72.6739829,71.0596424 71.5463195,72.0042784 64.6562158,68.9689378 C62.8671851,68.1822104 62.0925158,67.9519304 60.4698612,67.2105715 C53.7534883,64.1382378 48.1997124,65.7396546 43.1743533,71.2173587 C40.0630123,74.6071579 36.5625153,77.5720693 33.9336421,81.4877549 C31.4254741,85.2991221 31.7367466,89.2471728 33.0537192,93.5045634 C36.2308863,103.767492 58.4049325,138.834464 68.3022469,150.955666 C70.7489581,153.952143 73.6674071,154.074229 73.9427152,153.783786 C75.5518898,152.087767 73.5219695,150.790415 72.7909426,149.41631 C67.9390162,140.312857 62.4358269,131.652074 57.8443977,122.360881 C56.0235322,118.678522 55.3004891,115.232486 55.4908694,111.962309 C55.6289479,109.591169 57.4963819,106.134312 61.0680769,99.2077157 C62.914227,95.6255522 64.1236759,93.5382797 65.8606021,91.2437446 C66.3294966,90.6222827 67.812419,88.6976289 70.0951418,86.60652 C70.0951418,86.60652 73.3095866,83.6599559 76.7428797,82.9165841 C77.4918264,82.7535712 78.1847167,82.7204474 78.4668523,83.1313338 C78.5495839,83.2520461 78.7151133,83.5816383 78.4180626,84.4758523 C77.9116977,85.9940428 76.7479025,86.7936394 76.4811969,87.1797526 C74.4131621,90.1631386 73.7900985,92.8912252 74.5270285,95.0739238 C75.3510307,97.5142297 77.7557869,98.5067559 80.7169276,99.6934355 C83.2085665,100.690667 86.6864176,101.440376 87.0576291,100.540418 C87.244819,100.083479 86.5693763,99.3637112 86.2427581,98.9748333 C83.5948216,95.8278207 84.1273776,91.084574 83.6053291,87.2233728 Z" id="Fill-18" fill="#C4C3C6" transform="translate(59.570542, 109.777860) scale(-1, -1) rotate(131.000000) translate(-59.570542, -109.777860) "></path>
                            <path d="M56.4859215,92.9878306 C51.1840275,90.1923584 39.2488456,106.793874 37.3984181,110.374335 C34.8912984,115.222859 15.4936486,110.791951 14.1663816,106.502593 C12.8514647,102.249854 12.5428834,98.3054351 15.0560713,94.4954724 C17.6901468,90.5811907 21.1958849,87.6162121 24.31245,84.2270027 C29.3462488,78.7502538 34.9060144,77.1460589 41.625876,80.2107202 C43.2493742,80.9502262 44.0245389,81.179728 45.8145225,81.9644389 C52.7082925,84.992009 53.8376365,84.0473422 56.5470015,85.6735599 C56.5721675,85.6886658 56.5972766,85.7038776 56.622329,85.7191945 C57.8901367,88.8306649 58.593522,89.4311754 58.6067552,92.9878306 L56.4859215,92.9878306 Z" id="Shape" fill="#FFFFFF" transform="translate(35.887035, 95.580717) scale(-1, -1) rotate(131.000000) translate(-35.887035, -95.580717) "></path>
                        </g>
                        <g id="Group-35-Copy" transform="translate(414.464061, 272.243317) rotate(-42.000000) translate(-414.464061, -272.243317) translate(309.964061, 169.743317)">
                            <g id="Group-3" transform="translate(104.076592, 102.493457) scale(-1, -1) rotate(131.000000) translate(-104.076592, -102.493457) translate(41.076592, 19.493457)" fill="#000000" stroke="#000000" stroke-width="4.39500978">
                                <path d="M50.1039982,44.911355 C61.4040743,85.1146917 95.1995296,66.7144998 100.20939,71.5334277 C107.772501,78.8078401 115.834279,87.5506767 115.747302,99.2716213 C115.689318,107.101453 110.377706,114.108682 106.816492,120.169634 C104.818926,123.568803 102.927665,126.787064 101.734151,130.149206 C102.074327,130.246536 102.427066,130.331172 102.640642,130.383011 C114.5149,133.23205 123.997298,144.425081 125.701076,157.601755 C126.299283,162.230253 124.038854,164.177925 123.039587,164.799995 C122.229737,165.30675 121.323246,165.56383 120.34814,165.56383 C119.360471,165.56383 118.497469,165.297228 117.783293,165.035916 C106.427996,160.883492 96.9330346,155.313425 88.758187,148.005158 C79.9107193,140.099154 74.146094,131.449417 71.6247349,122.298214 C69.0743834,113.042276 70.2263421,103.119833 74.399293,95.7396268 C71.1763214,95.0710072 67.714647,94.9250111 64.1234739,94.7726674 C61.5233563,94.6627518 63.9574259,109.098786 60.9572927,110.710793 C56.4495549,113.132853 46.4446113,102.879001 42.7276382,100.79113 C37.2210439,97.6987647 29.4175826,87.4452491 25.451443,82.0867706 C16.7933914,70.3933325 8.02532131,51.621116 2.1911146,35.5361587 C0.947347164,32.1052513 -0.118601155,28.3791779 0.507631402,24.3801554 C1.22857197,19.7749318 4.01569341,16.2985329 6.05191563,13.759471 C11.3111094,7.19916973 22.5833809,0.575586039 30.7147401,0.575586039 C31.3516031,0.575586039 31.9961975,0.617903738 32.6291949,0.702539135 C35.5332517,1.08551431 38.1522181,2.3582191 40.4629003,3.48069605 C42.6837065,4.55979737 44.7817788,5.57965391 46.6227866,5.57965391 C46.8508589,5.57965391 47.0760321,5.56484271 47.2934739,5.53310444 C48.8788258,5.31205263 50.4795437,4.20013662 52.1975844,2.74522953 C57.1916031,10.3850485 56.493741,24.4404237 50.1039982,44.911355 Z" id="Shape"></path>
                            </g>
                            <path d="M72.4477879,22.5139674 C65.0963202,21.5417183 58.9229042,28.1517428 54.0386769,34.2454914 C52.0150179,36.7697421 49.917912,39.4791328 49.3989508,42.7894348 C48.9292763,45.7929334 49.8386665,48.8366339 50.8659585,51.6687459 C56.2865425,66.6153571 65.2432143,79.672483 74.4927078,92.1657256 C78.0229972,96.9349302 81.7542995,101.779249 86.7438654,104.58068 C97.2235967,110.467072 110.506878,105.968701 121.299726,111.132518 C114.620878,117.851511 112.987648,129.179959 115.607581,138.68663 C118.227514,148.195417 124.457948,156.058045 131.484703,162.337991 C139.795814,169.765806 149.164175,174.929623 159.290201,178.632421 C159.98215,178.886328 160.775571,179.129654 161.409535,178.733984 C162.266739,178.199723 162.293798,176.874121 162.155602,175.804541 C160.68956,164.46234 152.316599,154.580099 142.094899,152.127789 C140.432677,151.728944 138.405152,151.206321 137.933545,149.41734 C137.699674,148.526553 137.954806,147.57652 138.246661,146.706892 C141.662914,136.561223 150.455297,128.401313 150.534542,117.588083 C150.608956,107.581005 143.178243,99.6686535 136.311912,93.0639187 C130.713509,87.6789916 124.428956,81.9904349 116.977948,81.8952201 C112.213555,81.8349174 107.727488,84.1094937 103.174739,85.6466841 C93.0516122,89.0659541 79.9142582,87.59753 74.8483461,77.4116599 C70.282067,68.2276614 74.6724598,56.4961374 81.3696691,49.0408168 C82.2384701,48.0749153 83.2918551,47.0846812 84.5288577,47.1492157 C86.2422995,47.2401987 87.2473641,49.1995082 88.302682,50.6806276 C91.3497672,54.9568311 77.8741704,23.2312524 72.4477879,22.5139674 Z" id="Fill-4" fill="#000000" transform="translate(105.745100, 100.680466) scale(-1, -1) rotate(131.000000) translate(-105.745100, -100.680466) "></path>
                            <path d="M156.557519,87.6996801 C156.632899,88.2074925 156.826181,88.6782769 156.565251,89.172336 L156.57878,89.081353 C156.277261,100.059622 149.902832,108.293588 145.710553,117.481819 C144.338253,120.490607 142.781369,123.043422 143.050997,126.737757 C143.194026,128.71082 145.382813,135.494776 144.454094,136.033268 C144.262746,136.144352 138.514214,132.23209 136.57777,130.609525 C123.754332,119.864636 123.657116,110.446501 123.657116,110.446501 C121.954305,99.966523 127.264408,94.2552342 128.675964,93.5048664 C135.340066,89.9623038 152.454361,94.4447066 153.382113,93.9125615 C154.074061,93.5158331 151.627967,86.4423155 146.240145,82.2745512 C144.514139,80.7225496 142.633509,81.5752512 141.198393,82.2449288 C133.975457,85.6155335 130.449925,84.2944073 123.213459,83.2205957 C118.607558,82.5361069 116.033203,62.7915324 121.233446,58.9702442 C125.746573,55.6525366 125.959101,56.4173793 130.153313,58.9902954 C132.84882,60.64444 140.215179,64.7589578 145.829518,70.5731785 C151.895943,76.855581 156.142443,84.8986132 156.557519,87.6996801 Z" id="Fill-10" fill="#C4C3C6" transform="translate(137.526687, 96.398575) scale(-1, -1) rotate(131.000000) translate(-137.526687, -96.398575) "></path>
                            <path d="M142.589223,84.0045339 C147.080195,84.0045339 149.474257,89.6725134 146.65288,98.9390768 C143.831503,108.20564 152.22827,93.3743564 152.22827,91.9397051 C152.22827,88.7065029 154.37956,73.166198 146.306272,73.166198 C138.232983,73.166198 131.68829,75.7872263 131.68829,79.0204285 C131.68829,82.2536307 134.515935,84.0045339 142.589223,84.0045339 Z" id="Oval" fill="#000000" transform="translate(142.088290, 87.566198) scale(-1, -1) rotate(131.000000) translate(-142.088290, -87.566198) "></path>
                            <path d="M134.737512,81.8279422 C125.597552,89.6588548 123.887701,94.5862731 118.329737,99.3432189 C114.791403,102.370272 110.183044,75.4164194 113.884343,74.1321404 C116.263413,73.3070673 125.761399,70.1525844 133.580498,70.6591768 C141.399598,71.1657692 143.080318,73.8581501 147.714141,77.1027884 C141.272453,77.4262905 136.886627,79.9866281 134.737512,81.8279422 Z" id="Path" fill="#FFFFFF"></path>
                            <path d="M187.681545,119.668165 C179.755065,117.158725 176.17362,106.600727 174.269795,100.048889 C173.597175,97.7341108 174.95208,96.9671025 177.09364,98.0641889 C185.03655,102.138325 192.538015,109.2812 194.297845,119.164499 C194.491126,120.253122 189.17368,120.141065 187.681545,119.668165 Z" id="Fill-14" fill="#C4C3C6" transform="translate(184.199639, 108.791441) scale(-1, -1) rotate(131.000000) translate(-184.199639, -108.791441) "></path>
                            <path d="M50.376129,88.8560951 C50.371297,88.8624427 50.3664649,88.8687904 50.3616329,88.875138 C50.3587337,88.8804278 50.3558344,88.8846595 50.3529352,88.8910072 L50.376129,88.8560951 Z" id="Fill-16" fill="#D796A0" transform="translate(50.364532, 88.873551) scale(-1, -1) rotate(131.000000) translate(-50.364532, -88.873551) "></path>
                            <path d="M84.7074351,79.0982981 C84.1179261,74.7141845 81.6216935,68.4977146 77.2168046,65.8496846 C74.7476315,64.3653913 73.7184067,65.2276144 67.4357865,62.4642687 C65.8044894,61.7480416 65.0980449,61.538569 63.6184739,60.8636017 C57.4943447,58.0664019 43.6288064,59.3770131 39.0412664,64.3757912 C36.2009925,67.469215 33.0060468,70.1754318 30.6054886,73.7481035 C28.315101,77.2255604 28.5963258,80.8257386 29.7946721,84.7073295 C32.6856611,94.064348 48.088124,125.944451 57.1075143,136.991515 C59.3371943,139.722456 61.9991257,139.831796 62.2504419,139.566742 C63.7193824,138.018972 65.445232,124.433232 68.8960593,110.091273 C69.2476824,108.629894 65.836166,102.036643 63.534265,96.3956105 C61.232364,90.7545777 66.9332542,84.8704322 68.5191302,82.7767641 C68.9472491,82.2097069 70.3011871,80.4535224 72.3847633,78.5449942 C72.3847633,78.5449942 75.3187788,75.8557044 78.450908,75.1754474 C79.1341586,75.0262776 79.7661896,74.9955972 80.0232542,75.3701089 C80.0986341,75.4801349 80.2493938,75.7805905 79.977833,76.5962642 C79.5149235,77.9811109 78.4528408,78.7110912 78.2093059,79.063386 C76.3209442,81.785472 75.7507633,84.2737527 76.4214506,86.2637424 C77.1713834,88.4885954 73.7650167,89.2943448 76.4651614,90.3745041 C78.7371872,91.2822187 81.9089392,91.9635337 82.2481485,91.1425703 C82.4192027,90.725741 87.4027478,90.1675501 87.105094,89.8131394 C84.6919726,86.9450574 85.1809751,82.6191306 84.7074351,79.0982981 Z" id="Fill-18" fill="#C4C3C6" transform="translate(58.001044, 99.540741) scale(-1, -1) rotate(131.000000) translate(-58.001044, -99.540741) "></path>
                            <path d="M64.725628,88.6039118 C55.9288037,100.421686 50.9682641,107.4199 49.8440091,109.598557 C49.2183786,110.810297 49.5562019,116.197141 50.8574793,125.759088 C46.6517086,117.590931 42.4045293,111.062589 38.1159413,106.174063 C34.3845274,101.920655 35.6861511,101.683717 38.9722202,101.42762 C41.3512676,101.242211 44.5334959,101.601617 48.7359158,97.7574364 C58.7429454,88.6034645 61.4477609,77.7189877 63.916934,79.203281 C63.939869,79.2170684 68.4847606,81.4621535 68.507592,81.4761337 C68.5304234,81.4901139 80.1900811,82.4863452 80.2021412,85.7326015 L64.725628,88.6039118 Z" id="Shape" fill="#FFFFFF" transform="translate(58.026888, 102.412783) scale(-1, -1) rotate(251.000000) translate(-58.026888, -102.412783) "></path>
                        </g>
                        <g id="Group-99" transform="translate(410.689683, 168.818548) scale(-1, 1) rotate(1.000000) translate(-410.689683, -168.818548) translate(253.189683, 10.818548)">
                            <g id="Group-93">
                                <g id="Group-94" transform="translate(0.344078, 0.561669)">
                                    <g id="Group-22" transform="translate(48.205219, 241.184590)">
                                        <path d="M33.7902861,58.0149643 C51.8968054,56.7147594 66.1316733,44.0687062 65.5847534,29.769214 C65.0378334,15.4697218 49.9162332,4.93171732 31.8097139,6.23192223 C13.7031946,7.53212714 -0.531673263,20.1781803 0.0152466482,34.4776725 C0.56216656,48.7771647 15.6837668,59.3151692 33.7902861,58.0149643 Z" id="Oval" fill="#000000"></path>
                                        <path d="M33.9875245,48.7193932 C50.5463223,47.6337302 63.5136895,35.8654633 62.9509499,22.4342333 C62.3882103,9.00300331 48.5084619,-1.00505618 31.9496641,0.0806067846 C15.3908663,1.16626975 2.42349908,12.9345367 2.98623869,26.3657667 C3.54897829,39.7969967 17.4287267,49.8050562 33.9875245,48.7193932 Z" id="Oval-Copy" fill="#C4C3C6"></path>
                                    </g>
                                    <path d="M191.283977,243.613712 C222.536011,221.407886 231.911628,198.906626 244.218022,181.086217 C278.605171,131.291525 240.939592,163.684692 282.377391,102.889764 C305.120575,69.5223984 259.171705,30.2699469 206.005657,30.2781789 C187.948313,30.2809748 164.206269,19.7869167 143.993346,27.5374759 C104.693572,42.6068067 76.0775189,68.0441131 76.0733122,95.2319365 C76.0727439,98.9046721 50.9615445,111.118779 47.8157562,136.555515 C42.8445935,176.752165 48.3801877,212.569695 33.9798143,232.177371 C22.6583179,247.592821 22.9733745,254.955332 33.252586,265.492583 C67.7401692,251.669098 82.6782075,272.27992 111.38207,286.826682 C140.085932,301.373445 160.031944,265.819537 191.283977,243.613712 Z" id="Oval" fill="#000000" transform="translate(156.927781, 157.452772) rotate(-12.000000) translate(-156.927781, -157.452772) "></path>
                                    <path d="M200.342905,38.153629 C216.550941,36.337933 271.69323,52.1285657 251.284224,92.2968373 C230.875218,132.465109 252.555345,109.564739 231.795847,159.354455 C224.366485,177.173083 220.926058,174.438137 194.003723,211.134716 C167.081389,247.831294 177.866927,282.500081 140.665568,277.932329 C124.784829,275.982419 106.83086,270.340976 90.0421956,270.104545 C73.2535309,269.868113 58.75259,279.432943 56.568946,276.748013 C49.1241335,267.594138 71.7733266,241.132079 67.8125909,229.772011 C58.9156478,204.254056 57.2432831,176.181511 55.7628447,159.083372 C53.7920705,136.322161 73.4270308,121.018091 72.7468711,117.815755 C68.8996253,99.7021055 83.0745998,77.965237 104.02007,59.6064468 C110.893295,53.5820364 128.336651,50.5612834 142.619978,45.3625772 C190.395052,43.2980324 184.13487,39.9693249 200.342905,38.153629 Z" id="Path" fill="#C4C3C6"></path>
                                    <g id="Group-28" transform="translate(68.190215, 81.557387)">
                                        <g id="Group-29" transform="translate(89.691436, 125.351554) scale(1, -1) rotate(-11.000000) translate(-89.691436, -125.351554) translate(7.691436, 77.851554)">
                                            <g id="Group-32" transform="translate(46.525273, 42.027575) rotate(-2.000000) translate(-46.525273, -42.027575) translate(2.025273, 6.027575)">
                                                <path d="M16.2513205,60.9788945 C17.3223433,61.3014608 15.1272096,72.957956 17.5605611,71.7181015 C21.5927963,69.663575 24.7213544,71.123334 26.9187128,71.3940702 C28.1074684,71.5405366 31.0655763,63.9698168 32.3187946,64.0523999 C44.0465656,64.8252227 55.3768476,61.739967 62.3773882,50.3709416 C67.2008913,42.537471 83.678463,9.55356802 88.8244958,7.8131233 C79.5282072,5.26929585 76.926447,1.47115008 44.641274,6.49421789 C27.7843305,9.11689457 39.6811469,15.6280765 35.1319308,20.2278406 C25.3772107,30.0909487 14.8288784,39.2162159 10.1548737,42.1749908 C8.32568389,43.3329189 9.65877051,2.16893433 4.68052238,16.6194376 C-0.297725747,31.0699409 -5.69259838,54.3699158 16.2513205,60.9788945 Z" id="Path-Copy-69" fill="#FFFFFF"></path>
                                                <path d="M20.665915,55.5156129 C41.3792205,59.2841464 50.5310465,59.5397403 61.4677778,47.1726709 C67.8833504,39.9180507 83.1632421,9.64233946 88.4147453,8.83499841 C63.6216579,4.42135709 48.6899781,19.2110118 30.8087728,17.6323419 C12.9275674,16.0536721 10.7108937,6.71007721 3.4228021,0.729247581 C7.73807424,8.7616516 0.894160807,28.0741254 2.90931403,37.978461 C4.92446725,47.8827967 10.8433342,53.728514 20.665915,55.5156129 Z" id="Path-Copy-10" fill="#000000"></path>
                                            </g>
                                            <path d="M104.764879,43.1373457 C113.375847,39.9509615 107.410397,33.7157159 93.6268446,27.1958247 C87.9051164,24.4893349 84.0448513,19.931324 81.2828734,17.0067631 C85.3821127,38.4365667 90.8321873,65.0217709 92.4770964,70.0032831 C92.9412152,57.3676284 96.1539114,46.3237298 104.764879,43.1373457 Z" id="Path-Copy-70" fill="#000000" transform="translate(95.028952, 43.505023) rotate(48.000000) translate(-95.028952, -43.505023) "></path>
                                            <path d="M151.331097,79.5234315 C116.303356,43.8321628 94.1949679,22.6903613 85.0059327,16.0980268 C79.2842045,11.9931839 80.6035143,27.1460453 94.0005627,47.3143147 C102.884046,60.6877444 114.475396,70.4623455 128.774613,76.6381179 L151.331097,79.5234315 Z" id="Path-Copy-94" fill="#000000" transform="translate(116.565055, 47.473444) rotate(42.000000) translate(-116.565055, -47.473444) "></path>
                                        </g>
                                        <path d="M171.535062,15.2814007 C189.308377,17.8105384 200.27818,29.256448 201.781581,36.0645452 C190.939547,30.3454875 187.581424,28.4334602 175.304131,27.6922049 C163.026837,26.9509496 157.616064,29.8775077 148.181581,32.8283851 C151.65293,26.744452 167.827208,14.7537742 171.535062,15.2814007 Z" id="Path-Copy-90" fill="#000000" transform="translate(174.981581, 25.664545) scale(-1, 1) rotate(-138.000000) translate(-174.981581, -25.664545) "></path>
                                    </g>
                                    <path d="M108.170294,163.402966 C115.636009,166.465391 106.368936,176.637687 100.814586,178.942567 C100.028347,173.351326 100.704578,160.34054 108.170294,163.402966 Z" id="Path-Copy-79" fill="#000000" transform="translate(105.760914, 170.942567) scale(-1, 1) rotate(-198.000000) translate(-105.760914, -170.942567) "></path>
                                    <path d="M142.506288,162.726491 C147.490305,183.776325 147.212035,191.570616 140.31429,190.654939 C143.028666,181.563787 140.672376,170.584312 142.506288,162.726491 Z" id="Path-Copy-92" fill="#000000" transform="translate(143.114290, 176.726491) scale(-1, 1) rotate(-151.000000) translate(-143.114290, -176.726491) "></path>
                                    <path d="M62.8938479,193.958219 C70.0938479,193.958219 70.0938479,177.392202 84.2543279,174.163891 C79.8838834,178.626604 73.5036392,187.122307 70.0938479,196.970222 C66.4160983,207.592035 65.9289973,219.681496 67.5652565,226.963891 C67.4723372,225.350956 58.9971339,218.161132 58.0938479,216.548243 C56.5540016,213.798723 53.4919655,202.222968 54.8938479,203.747229 C55.8170887,204.751065 60.3702096,206.636147 61.2938479,206.759232 C61.1605464,203.550277 55.6938479,193.958219 62.8938479,193.958219 Z" id="Path" fill="#000000" transform="translate(69.395057, 200.563891) rotate(4.000000) translate(-69.395057, -200.563891) "></path>
                                    <path d="M121.694309,151.556388 C131.397491,155.732185 118.248148,168.410317 111.853092,170.867615 C110.831219,163.243627 111.991127,147.38059 121.694309,151.556388 Z" id="Path-Copy-81" fill="#000000" transform="translate(118.350243, 160.867615) rotate(-95.000000) translate(-118.350243, -160.867615) "></path>
                                    <g id="Group-24" transform="translate(102.370167, 127.041211) rotate(6.000000) translate(-102.370167, -127.041211) translate(77.870167, 84.541211)" fill="#000000">
                                        <g id="Group-25" transform="translate(24.307767, 42.433032) rotate(5.000000) translate(-24.307767, -42.433032) translate(3.807767, 2.433032)">
                                            <path d="M24.6310569,65.8298033 C32.0967723,68.5859861 22.8296992,77.7410521 17.2753487,79.8154446 C16.4891103,74.7833269 17.1653415,63.0736204 24.6310569,65.8298033 Z" id="Path-Copy-86" transform="translate(22.221677, 72.615445) rotate(-103.000000) translate(-22.221677, -72.615445) "></path>
                                            <path d="M14.2062622,44.5818277 C22.8795211,33.4572354 11.2654632,40.337975 1.29908632,35.3198094 C15.8539432,32.6829225 20.8734624,30.4087893 25.6198258,26.819391 C30.3661891,23.2299926 38.5062813,7.93208111 40.4484236,0.756462633 C41.6254696,15.1971885 37.9180787,21.9040753 29.9539216,35.6997152 C23.2317194,47.3440209 13.6918364,51.1675061 9.6464367,58.4302837 C3.94801284,76.8851478 15.937856,77.4009853 23.1961741,77.1860292 C12.4686081,78.7714511 6.11865213,76.4729091 4.0940038,74.4817144 C2.5634906,72.9764901 -1.2663112,69.7705068 1.24266158,63.094656 C3.56773874,56.908113 12.1039079,47.2783729 14.2062622,44.5818277 Z" id="Path"></path>
                                        </g>
                                    </g>
                                    <path d="M183.095149,118.15815 C193.154127,118.038463 205.135406,118.424141 214.423121,125.460505 C223.710836,132.496868 215.740884,142.689549 210.146438,146.934623 C199.81646,154.773023 193.145061,141.789411 167.729949,144.625015 C143.855156,147.288764 161.363445,118.416727 183.095149,118.15815 Z" id="Path-Copy-74" fill="#FFFFFF" transform="translate(187.477146, 133.814580) scale(-1, 1) rotate(179.000000) translate(-187.477146, -133.814580) "></path>
                                    <g id="Group-33" transform="translate(181.754473, 53.929187) rotate(5.000000) translate(-181.754473, -53.929187) translate(99.754473, 21.429187)" fill="#FFFFFF">
                                        <path d="M71.2427249,27.3949859 C58.4198536,30.3706264 38.2437123,41.9499165 24.2240776,47.9032619 C-21.0346867,67.1220977 9.15981628,37.8342857 28.0736739,29.244944 C42.8362239,22.5408339 65.2569414,18.8086942 83.9847836,17.8678996 C84.5027945,20.7173549 78.5905178,21.4439787 71.2427249,27.3949859 Z" id="Shape"></path>
                                        <path d="M130.773285,75.6127779 C115.472408,79.743608 92.1385165,39.2365723 102.53092,13.4863627 C105.845938,5.27243928 110.731886,-0.371799094 121.597799,-11.2943454 C121.641641,-3.91905262 121.40746,-16.021334 121.899871,13.7403417 C122.392282,43.5020173 141.423187,69.411576 130.773285,75.6127779 Z" id="Path-Copy-88" transform="translate(116.977719, 32.305655) rotate(112.000000) translate(-116.977719, -32.305655) "></path>
                                    </g>
                                    <path d="M81.1086877,119.658668 C87.1291006,119.589575 94.1405688,123.61777 98.0774228,129.458134 C100.386812,132.884137 101.134629,138.577167 76.0700473,135.646134 C74.4964645,135.46212 68.3308659,135.734952 65.5669628,134.080959 C59.6429638,130.642761 71.0348359,119.774279 81.1086877,119.658668 Z" id="Path-Copy-84" fill="#FFFFFF" transform="translate(81.537767, 128.057792) scale(-1, -1) rotate(157.000000) translate(-81.537767, -128.057792) "></path>
                                    <path d="M119.576184,128.663279 C120.791573,130.863452 122.181017,133.096776 115.9655,136.538755 C109.749983,139.980735 107.397144,140.568378 101.766249,138.525923 C100.12471,137.36804 101.810827,133.232133 107.280076,129.565179 C118.187066,122.252396 127.269967,92.9963946 130.547911,93.4983953 C133.764682,93.9910274 136.560351,106.163462 122.531135,121.952654 C122.29854,122.214429 118.360796,126.463107 119.576184,128.663279 Z" id="Path" fill="#FFFFFF" transform="translate(117.164277, 116.597353) rotate(2.000000) translate(-117.164277, -116.597353) "></path>
                                    <path d="M95.4461038,242.228181 C106.334762,242.11455 119.404588,246.642119 132.383583,256.60863 C145.362579,266.575141 118.710117,265.909378 97.3337176,264.13647 C75.9573187,262.363561 76.1610056,273.387484 71.1608981,270.559478 C60.4440199,264.680697 77.2263029,242.418319 95.4461038,242.228181 Z" id="Path-Copy-76" fill="#FFFFFF" transform="translate(101.802625, 256.626096) scale(-1, -1) rotate(186.000000) translate(-101.802625, -256.626096) "></path>
                                    <path d="M91.6379044,234.755351 C96.0878018,234.729625 105.748033,237.487242 116.114957,246.079693 C107.752331,240.611944 85.1823028,241.858073 72.9269731,253.26057 C76.4237535,242.353117 84.1919688,234.798881 91.6379044,234.755351 Z" id="Path-Copy-83" fill="#000000" transform="translate(94.520965, 244.007961) scale(-1, 1) rotate(12.000000) translate(-94.520965, -244.007961) "></path>
                                    <g id="Group-30" transform="translate(176.973464, 106.384798) scale(1, -1) rotate(-17.000000) translate(-176.973464, -106.384798) translate(147.973464, 86.384798)">
                                        <path d="M55.1606177,29.4010921 C43.8603517,29.0959689 35.1871289,29.314596 29.1409492,30.0569735 C18.8451568,31.3211379 14.4632727,36.0999579 6.56518266,38.700753 C1.29978933,40.4346164 -0.232494377,37.3826778 1.96833155,29.5449374 C10.7491775,9.91141 19.831475,0.0946463189 29.2152241,0.0946463189 C37.8894814,0.0946463189 51.259908,9.84104397 57.2246419,27.3861966 C57.5200011,28.2549901 56.831993,28.9266219 55.1606177,29.4010921 Z" id="Path" fill="#FFFFFF"></path>
                                        <path d="M28.5785785,6.42471864 C42.5704769,6.42471864 54.0658131,16.2499016 55.3441885,28.8038176 C47.7180676,25.9958273 38.940516,24.3963933 29.5994804,24.3963933 C19.3831659,24.3963933 9.84088278,26.3096127 1.74335262,29.6250933 C2.59351889,16.6810316 14.282993,6.42471864 28.5785785,6.42471864 Z" id="Combined-Shape-Copy-19" fill="#000000"></path>
                                    </g>
                                    <g id="Group-31" transform="translate(106.633232, 100.953815) rotate(-187.000000) translate(-106.633232, -100.953815) translate(80.633232, 80.953815)">
                                        <path d="M28.0392705,18.9992612 C19.4725644,18.404425 11.3234846,19.8217009 4.25534615,22.7755778 C6.50665663,9.3864868 16.7982162,-0.414358327 28.3916417,0.390640666 C39.7102975,1.17656079 49.3633253,12.7368418 51.2609465,17.1694224 C53.1585678,21.6020031 49.5086208,31.3407619 41.0236943,29.8973668 C35.1705648,29.7895425 28.5625086,30.3597865 21.6701234,31.6901234 C14.044578,33.1619716 4.00002782,44.2098525 1.05337225,37.2794406 C-1.89328333,30.3490286 8.64517872,26.0557094 19.2783335,24.0033462 C24.8659443,22.9248509 33.4518308,19.3750868 28.0392705,18.9992612 Z" id="Path" fill="#FFFFFF"></path>
                                        <path d="M29.2874132,5.14442424 C38.0338113,5.14489489 49.3858829,16.0394337 47.5550586,22.2597146 C46.2313799,26.7569528 33.5465237,25.9263123 29.2682599,25.9260821 C19.0725861,25.9255335 9.52734074,27.9747073 1.35140209,31.5444242 C5.66203527,13.943654 14.974039,5.14365401 29.2874132,5.14442424 Z" id="Path-Copy-73" fill="#000000" transform="translate(24.551402, 18.344424) rotate(4.000000) translate(-24.551402, -18.344424) "></path>
                                    </g>
                                    <path d="M164.912295,114.747764 C171.616543,116.954053 179.841616,118.500863 189.587513,119.388195 C184.79677,120.4449 181.48624,120.994946 179.655922,121.038331 C158.956296,121.528994 149.06961,124.303492 147.621548,132.688241 C146.71665,140.161158 165.361246,153.107609 158.466037,159.216773 C151.570827,165.325936 134.815055,166.051981 133.41876,166.223557 C138.338329,161.027612 140.747594,155.051722 138.266474,149.134974 C135.785353,143.218226 133.95771,139.635787 125.823843,138.339562 C126.268434,138.893683 133.933192,134.969921 138.191858,127.878577 C143.001341,119.870035 142.29086,110.874801 147.655922,108.238331 C153.020985,105.601862 154.855922,111.438331 164.912295,114.747764 Z" id="Path-2" fill="#000000"></path>
                                    <path d="M135.72616,152.476105 C133.642382,140.658412 124.431775,139.590153 121.555742,137.398038 C129.286395,138.989466 136.244817,139.64383 140.129735,145.200906 C144.252133,151.097678 146.059491,160.402156 133.082861,165.12731 C134.241798,162.485934 136.976427,159.566721 135.72616,152.476105 Z" id="Path" fill="#FFFFFF"></path>
                                    <path d="M168.03559,87.3713112 C154.725493,86.2232272 152.542913,79.7262872 154.720065,76.1995686 C156.897216,72.67285 163.407616,80.6852992 171.95231,81.084431 C180.59605,81.4484823 184.164136,79.7060795 190.222226,78.0704433 C188.165599,82.401597 181.827142,88.3126984 168.03559,87.3713112 Z" id="Path-Copy-70" fill="#000000" transform="translate(172.104930, 81.388137) rotate(39.000000) translate(-172.104930, -81.388137) "></path>
                                    <path d="M114.614039,86.5040144 C126.886445,83.8423351 133.929121,73.5115602 130.422648,71.0347472 C126.916174,68.5579341 120.348424,78.2156468 111.919237,79.5825549 C103.490051,80.889445 99.9312138,79.2126602 93.6226476,77.9020431 C96.2528383,82.743605 102.341634,88.8885841 114.614039,86.5040144 Z" id="Path-Copy-93" fill="#000000" transform="translate(112.472770, 78.832609) rotate(-17.000000) translate(-112.472770, -78.832609) "></path>
                                </g>
                            </g>
                        </g>
                        <g id="Group-34" transform="translate(241.283072, 270.644870) rotate(-6.000000) translate(-241.283072, -270.644870) translate(20.283072, 69.144870)">
                            <g id="Group-88" transform="translate(189.058075, 204.693071) rotate(-5.000000) translate(-189.058075, -204.693071) translate(15.558075, 27.693071)">
                                <g id="Group-26" transform="translate(173.323697, 176.811498) scale(1, -1) rotate(142.000000) translate(-173.323697, -176.811498) translate(59.823697, 41.311498)">
                                    <g id="Group-3" transform="translate(3.519640, 14.349257)" fill="#000000" stroke="#000000" stroke-width="4.39500978">
                                        <path d="M208.983293,255.435916 C197.627996,251.283492 188.133035,245.713425 179.958187,238.405158 C171.110719,230.499154 165.346094,221.849417 162.824735,212.698214 C160.274383,203.442276 161.426342,193.519833 165.599293,186.139627 C162.376321,185.471007 158.914647,185.325011 155.323474,185.172667 C148.816647,184.897602 142.087546,184.613016 135.896735,181.135559 C130.390141,178.043193 126.373748,172.977765 122.407608,167.619286 C113.749557,155.925848 104.02459,142.104888 98.1903835,126.01993 C96.9466161,122.589023 95.8806678,118.862949 96.5069003,114.863927 C97.2278409,110.258703 100.014962,106.782304 102.051185,104.243243 C107.310378,97.6829413 113.783381,90.975586 121.91474,90.975586 C122.551603,90.975586 123.196197,91.0179037 123.829195,91.1025391 C126.733252,91.4855143 129.352218,92.7582191 131.6629,93.8806961 C133.883706,94.9597974 135.981779,95.9796539 137.822787,95.9796539 C138.050859,95.9796539 138.276032,95.9648427 138.493474,95.9331044 C140.481376,95.6559235 142.493438,93.9780268 144.730673,91.9795734 L146.31075,90.5661623 C159.968998,78.342695 143.133703,87.9150637 160.620861,83.0432386 C162.474432,82.5259047 141.70533,82.9269543 142.027144,82.6825696 C141.974958,82.5259941 163.434075,81.4637305 163.27945,81.1220151 C162.03085,78.3724226 160.219801,75.7455515 158.301481,72.9652787 C154.971238,68.1378872 185.162263,43.0836825 181.537298,33.8371713 C181.485112,33.9345021 181.43196,34.0318328 181.38074,34.1270476 C181.200988,34.4624153 181.021236,34.7956672 180.835686,35.1215135 C176.345753,43.0529082 168.945965,47.0900166 161.788745,50.9938243 C159.020952,52.5035082 156.406818,53.9296147 153.972435,55.560962 C152.150756,56.7828855 150.402523,58.1476313 148.549918,59.5917228 C145.461278,62.0006578 142.266332,64.4931702 138.616208,66.355149 C132.954988,69.2454478 126.692663,70.5350796 118.311004,70.5350796 C114.715965,70.5350796 111.061009,70.3012744 107.525887,70.0769905 C104.068079,69.8569385 100.492368,69.6284229 97.0558202,69.6284229 C94.1971846,69.6284229 91.6922544,69.7860564 89.3970347,70.1066129 C88.1938564,70.2748258 86.9926109,70.4959358 85.7217841,70.730799 C82.9955464,71.2333217 80.1765334,71.7517135 77.2115929,71.7517135 L76.9284353,71.7506555 C64.7942131,71.6162968 33.0726607,77.1169446 24.2000664,68.633304 C14.0344178,58.9129286 14.7281571,66.342421 6.61226042,54.5347252 C1.00226043,46.3716411 -0.407437,45.2094085 1.43840279,33.3541052 C1.98152424,29.8607791 3.65341054,28.3722541 5.02281105,27.7396045 C4.73429207,26.3220704 39.9976405,15.9726748 44.569718,31.1054839 L58.8577613,41.9016719 C59.4714306,43.9308056 73.1874689,41.1634229 74.2524508,42.4742136 C77.0753293,45.9474388 86.0561613,47.8221128 93.0732518,47.8221128 C93.8782699,47.8221128 94.6320683,47.7956643 95.3114533,47.745941 C95.599443,47.7247821 95.9376859,47.6221617 96.0323939,47.5883075 C96.4373189,47.43279 96.7282078,47.1524352 96.8383784,47.046641 C97.121536,46.7758077 126.556399,20.2288574 150.745598,7.51767866 C159.990259,2.6606648 171.043497,-3.58508958 189.797606,3.70788144 C208.551715,11.0008525 219.455014,19.8479171 222.164823,35.2907033 C223.276192,41.6341263 219.244616,49.5592543 216.936833,54.5622643 C207.505655,75.0080604 191.377267,103.610593 168.098425,123.766513 C164.149681,127.184725 159.324404,130.856843 153.474735,132.162344 C152.163319,132.456452 150.813247,132.604564 149.464141,132.604564 C143.974942,132.604564 139.130337,130.224194 136.172161,126.072827 C135.982745,125.807284 135.795262,125.527987 135.605846,125.246574 C135.484079,125.065666 135.336218,124.845614 135.19029,124.638257 C135.143903,124.686923 135.095582,124.740878 135.043396,124.799065 C129.616048,130.839916 125.459526,140.732736 129.161836,148.177477 C132.610947,155.113348 140.745205,155.861313 144.082213,155.861313 C147.041355,155.861313 150.108735,155.352443 152.953841,154.391831 C153.997562,154.039536 155.036451,153.645982 156.077272,153.253485 C159.72643,151.876044 159.680333,146.4699 163.890974,146.4699 L164.120013,146.470958 C173.37917,146.589447 186.39953,157.1145 191.40939,161.933428 C198.972501,169.20784 207.034279,177.950677 206.947302,189.671621 C206.889318,197.501453 201.577706,204.508682 198.016492,210.569634 C196.018926,213.968803 194.127665,217.187064 192.934151,220.549206 C193.274327,220.646536 193.627066,220.731172 193.840642,220.783011 C205.7149,223.63205 215.197298,234.825081 216.901076,248.001755 C217.499283,252.630253 215.238854,254.577925 214.239587,255.199995 C213.429737,255.70675 212.523246,255.96383 211.54814,255.96383 C210.560471,255.96383 209.697469,255.697228 208.983293,255.435916 Z" id="Fill-1"></path>
                                    </g>
                                    <path d="M100.787393,65.9468495 C100.787393,65.9468495 99.991073,66.250479 99.0913469,66.3171294 C92.5275019,66.802725 79.4877552,65.3025625 74.8837862,59.6372806 C73.3124063,57.7023039 72.5315485,55.1706475 71.7883805,52.7130472 C70.6180601,48.8409778 69.4477397,44.9667924 68.2783857,41.0936651 C64.3731299,28.1698399 41.3010989,56.0656669 51.276365,65.6030182 C59.3033521,73.2783908 69.3472332,81.7451044 80.4879877,81.8678257 C84.5014813,81.9133172 88.444427,80.8162309 92.4250626,80.2586952 C108.493533,78.0073936 125.821233,84.3645699 140.501941,76.8701055 C145.889667,74.1194551 150.40376,69.7004294 155.473538,66.3012602 C164.383822,60.3281171 175.566132,56.96386 181.069827,47.2413688 C181.967621,45.6576289 182.730117,43.8834594 184.127543,42.8191692 C185.524003,41.7548791 187.836618,41.8373986 188.564323,43.522701 C188.890003,44.275956 188.825254,45.1498165 188.818489,45.9824172 C188.751807,55.7355888 197.255233,62.6407793 201.220406,71.3751523 C201.678484,72.3833715 202.086308,73.4836316 201.974205,74.6039927 C201.691047,77.4350468 198.576313,78.5786826 196.054954,79.2811564 C178.737884,84.105374 164.537481,97.2365559 150.694649,109.607077 C148.253502,111.788555 145.629703,114.041972 142.504339,114.47996 C137.082789,115.240621 132.311631,110.369854 126.885249,109.652569 C119.533781,108.68032 113.360365,115.290344 108.476138,121.384093 C106.452479,123.908343 104.355373,126.617734 103.836411,129.928036 C103.366737,132.931535 104.276127,135.975235 105.303419,138.807347 C110.724003,153.753958 119.680675,166.811084 128.930169,179.304327 C132.460458,184.073532 136.19176,188.91785 141.181326,191.719282 C151.661057,197.605674 164.944339,193.107302 175.737187,198.271119 C169.058339,204.990112 167.425109,216.31856 170.045042,225.825231 C172.664975,235.334018 178.895409,243.196646 185.922163,249.476593 C194.233274,256.904407 203.601636,262.068224 213.727662,265.771023 C214.41961,266.024929 215.213031,266.268256 215.846995,265.872585 C216.704199,265.338324 216.731259,264.012722 216.593062,262.943142 C215.127021,251.600941 206.75406,241.718701 196.53236,239.26639 C194.870137,238.867546 192.842613,238.344922 192.371006,236.555941 C192.137135,235.665154 192.392267,234.715122 192.684122,233.845493 C196.100375,223.699825 204.892758,215.539914 204.972003,204.726684 C205.046416,194.719607 197.615703,186.807255 190.749373,180.20252 C185.150969,174.817593 178.866417,169.129036 171.415409,169.033821 C166.651016,168.973519 162.164949,171.248095 157.612199,172.785285 C147.489073,176.204555 134.351719,174.736131 129.285807,164.550261 C124.719528,155.366263 129.10992,143.634739 135.80713,136.179418 C136.675931,135.213517 137.729316,134.223282 138.966318,134.287817 C140.67976,134.3788 141.684825,136.338109 142.740143,137.819229 C145.787228,142.095432 151.368236,143.450657 156.222504,142.366266 C161.075807,141.281875 165.333802,138.160944 169.219729,134.796687 C189.365476,117.353332 205.506427,91.9352062 217.005719,67.003734 C219.094127,62.4767982 221.098458,57.4801359 220.224825,52.496169 C218.04654,40.0790983 205.971269,32.7951644 196.507233,27.7593582 C188.754706,23.6344405 185.492112,20.1728528 181.092055,19.2746596 C177.700928,18.5827653 170.755352,17.8972186 155.93838,25.6826172 C133.155305,37.6532362 104.711011,62.848136 102.929921,64.5556552 C102.732773,64.7450269 101.981874,65.4898184 100.787393,65.9468495 Z" id="Fill-4" fill="#000000"></path>
                                    <g id="Group-5" transform="translate(187.172565, 34.149792) rotate(5.000000) translate(-187.172565, -34.149792) translate(151.672565, 3.649792)">
                                        <path d="M0.916917432,30.9083891 C11.645982,24.3152916 15.0252481,21.5991559 17.9573307,20.1698756 C25.7108243,16.3919631 49.1464848,24.041916 51.5054874,26.3006232 C53.5513737,28.2620485 53.310738,29.8330931 50.9275752,31.1089717 C50.1544486,31.5229799 48.413737,34.1251114 45.7054403,38.9153664 C34.4627339,44.8825131 26.3814025,47.7976483 21.4614464,47.6607719 C9.43977969,47.3263213 -1.85995588,32.6145018 0.916917432,30.9083891 Z" id="Fill-6" fill="#C4C3C6"></path>
                                        <path d="M31.9615889,24.977359 C35.9750874,25.3529201 39.6748137,24.9974549 43.0259258,24.2012714 C56.1764329,21.0768707 63.958449,11.1656208 64.2664253,12.0111563 C65.0781666,22.0996178 60.9881488,30.5278466 51.996372,37.2958427 C38.5087068,47.4478368 22.589415,51.7304539 17.7024492,47.059269 C17.0563369,46.4416854 25.1006875,46.7220649 31.9615889,24.977359 Z" id="Path-Copy-2" fill="#FFFFFF" transform="translate(41.016571, 30.452988) rotate(231.000000) translate(-41.016571, -30.452988) "></path>
                                    </g>
                                    <g id="Group-8" transform="translate(31.856585, 62.761860) rotate(-36.000000) translate(-31.856585, -62.761860) translate(10.856585, 38.261860)">
                                        <path d="M9.85519823,0.526789143 C9.38875055,-0.165143095 24.3423274,7.00839482 30.4513321,13.1162763 C33.254189,15.9182593 35.2909874,19.3741145 36.5895332,23.076599 C38.5540356,28.6798039 40.7354258,34.2662623 41.2338505,40.4083978 C41.7232382,46.4325472 37.1171543,50.4562587 31.8465042,48.3698052 C27.9946613,46.8451184 25.1021296,43.6039221 21.5728378,41.5037669 C20.5217664,40.3482629 19.4706951,39.1942813 18.4196237,38.0395385 C4.39698639,20.9718385 4.16652316,18.168661 1.34784896,11.3755059 C0.0799466569,8.31979377 0.875895587,4.95374074 1.02341958,4.42259305 C1.22014789,3.71391438 1.09154458,2.82559213 1.80824733,2.45184215 C2.65007763,2.01339004 3.10262225,2.8613686 3.44394237,3.41856816 C5.53287718,6.81961683 12.1533059,17.4947078 12.8484589,16.7335062 C14.6718453,18.8937963 22.6537667,29.1440857 24.3276951,31.4345413 C25.0791555,32.1668172 16.4646449,16.0628876 15.629071,15.2111031 C14.6338347,13.7124527 11.6141793,6.942307 10.2899817,3.18769921 C9.51367221,0.986564366 10.2326078,1.08662858 9.85519823,0.526789143 Z" id="Fill-8" fill="#C4C3C6"></path>
                                        <path d="M30.6284533,13.4352254 C33.4002008,16.2710902 35.4143923,19.7687338 36.6985253,23.5159889 C38.2579231,28.0680505 39.9555154,32.6091916 40.8196126,37.439047 C37.6960549,36.3184805 31.1583982,23.4855458 24.2199559,16.325789 C19.6855791,11.6467799 11.6080772,6.22711035 11.1586457,5.54010393 C10.5642394,3.9957678 9.23722977,-0.150134143 10.8297638,0.00768549933 C14.9031666,0.411358484 26.2852634,8.99099826 30.6284533,13.4352254 Z" id="Path" fill="#FFFFFF"></path>
                                        <path d="M17.1615395,16.9947434 C20.8828506,20.3769186 24.8428175,23.2148848 28.0831567,27.6787807 C29.5698529,29.7265839 30.632842,32.2661311 31.2921967,34.9955432 C32.0928708,38.3111626 32.9695107,41.6174261 33.3852828,45.1431897 C31.6847928,44.3540476 28.252444,35.0279728 24.5315719,29.8572618 C22.0999258,26.4781242 17.7329604,22.5919876 17.4946434,22.0937016 C16.4005968,18.0939585 16.9360351,18.9857317 16.602563,18.7282449 C15.7434409,18.0656685 15.5640636,17.0150098 15.785503,15.7982024 C16.1397722,16.3924774 16.7146954,16.588655 17.1615395,16.9947434 Z" id="Path-Copy-66" fill="#FFFFFF" transform="translate(24.542099, 30.470696) rotate(169.000000) translate(-24.542099, -30.470696) "></path>
                                    </g>
                                    <path d="M192.448608,230.079006 C191.076308,233.087794 189.519425,235.64061 189.789053,239.334945 C189.932081,241.308007 192.120868,248.091963 191.19215,248.630456 C191.000801,248.74154 185.252269,244.829278 183.315825,243.206712 C170.492388,232.461824 170.395172,223.043689 170.395172,223.043689 C168.69236,212.563711 171.456498,206.796048 172.908188,201.328636 C175.491728,201.536147 182.922488,202.289258 188.041407,202.515886 C189.652249,202.890192 205.802777,205.731589 198.487893,218.016766 C198.368576,218.217155 194.212491,226.213099 192.448608,230.079006 Z M184.255149,196.263913 C179.279624,197.731632 175.847143,196.692629 169.951515,195.817783 C165.345613,195.133294 162.771259,175.38872 167.971502,171.567432 C172.484628,168.249724 172.697156,169.014567 176.891368,171.587483 C179.586876,173.241628 186.953235,177.356145 192.567573,183.170366 C195.418518,186.12281 197.867519,189.464103 199.705797,192.467424 C199.232558,192.321687 198.712515,192.243887 198.141284,192.243887 C191.667685,192.243887 186.176926,193.929129 184.255149,196.263913 Z" id="Shape" fill="#C4C3C6"></path>
                                    <path d="M192.075038,197.59756 C191.766945,197.555029 181.152758,197.006453 180.876279,196.889095 C175.721452,194.701001 178.036751,172.685371 181.639448,174.616745 C184.011305,175.888739 195.2498,182.958816 200.406794,189.280705 C205.563788,195.602594 204.554308,198.680441 205.196618,204.386077 C202.622143,201.886149 199.944039,200.246871 197.542638,199.195783 C195.414586,198.264339 193.503827,197.794801 192.075038,197.59756 Z" id="Shape" fill="#FFFFFF"></path>
                                    <path d="M175.85084,215.838572 C186.903885,224.945812 191.076978,231.821674 188.370119,236.466157 C184.309831,243.432881 187.152206,249.481011 186.707566,249.683085 C186.632472,249.716974 182.666022,246.102001 180.031059,242.834669 C169.333724,229.570068 176.103555,215.463966 175.85084,215.838572 Z" id="Path" fill="#FFFFFF" transform="translate(181.568862, 232.757178) rotate(-13.000000) translate(-181.568862, -232.757178) "></path>
                                    <path d="M187.279402,61.9711418 L203.01753,55.8300742 C209.19641,53.2846432 214.469719,52.1335705 218.837458,52.3768562 C217.751545,59.4484202 207.044224,84.040684 194.867588,102.759579 C186.186572,116.104727 174.855343,126.90145 174.374554,124.252731 C173.615913,120.073301 181.010729,100.803186 178.52726,77.1745508 C178.344789,75.4384614 181.26217,70.3706584 187.279402,61.9711418 Z" id="Fill-12" fill="#C4C3C6"></path>
                                    <path d="M209.013845,263.227462 C201.087364,260.718022 197.505919,250.160024 195.602095,243.608186 C194.929475,241.293408 196.284379,240.526399 198.42594,241.623486 C206.36885,245.697622 213.870315,252.840497 215.630144,262.723796 C215.823426,263.812419 210.505979,263.700362 209.013845,263.227462 Z" id="Fill-14" fill="#C4C3C6"></path>
                                    <path d="M132.772028,138.259333 C132.767196,138.265681 132.762364,138.272028 132.757532,138.278376 C132.754633,138.283666 132.751733,138.287897 132.748834,138.294245 L132.772028,138.259333 Z" id="Fill-16" fill="#D796A0"></path>
                                    <path d="M150.827047,130.498267 C150.237538,126.114153 147.741305,119.897684 143.336417,117.249654 C140.867243,115.76536 139.838019,116.627583 133.555398,113.864238 C131.924101,113.148011 131.217657,112.938538 129.738086,112.263571 C123.613957,109.466371 118.547078,110.930563 113.959538,115.929341 C111.119264,119.022765 107.924318,121.728982 105.52376,125.301654 C103.233373,128.779111 103.514598,132.379289 104.712944,136.26088 C107.603933,145.617898 127.805665,177.581773 136.825055,188.628837 C139.054735,191.359777 141.716666,191.469118 141.967982,191.204064 C143.436923,189.656294 141.586251,188.474572 140.920396,187.221968 C136.501011,178.923468 131.487285,171.029101 127.305636,162.559214 C125.64728,159.202362 124.990122,156.060273 125.166008,153.077933 C125.293574,150.915499 126.999285,147.761772 130.261879,141.442682 C131.948262,138.174698 133.052866,136.270401 134.638742,134.176733 C135.066861,133.609676 136.420799,131.853491 138.504375,129.944963 C138.504375,129.944963 141.438391,127.255673 144.57052,126.575416 C145.253771,126.426247 145.885802,126.395566 146.142866,126.770078 C146.218246,126.880104 146.369006,127.180559 146.097445,127.996233 C145.634535,129.38108 144.572453,130.11106 144.328918,130.463355 C142.440556,133.185441 141.870375,135.673722 142.541063,137.663711 C143.290995,139.888564 145.483776,140.792047 148.18392,141.872207 C150.455946,142.779921 153.627698,143.461236 153.966908,142.640273 C154.137962,142.223443 153.52236,141.567519 153.224706,141.213108 C150.811585,138.345026 151.300587,134.0191 150.827047,130.498267 Z" id="Fill-18" fill="#C4C3C6"></path>
                                    <path d="M143.280751,123.925588 C138.448883,121.374084 127.571785,136.526741 125.885403,139.794725 C123.600545,144.220105 105.922545,140.175894 104.712944,136.26088 C103.514598,132.379289 103.233373,128.779111 105.52376,125.301654 C107.924318,121.728982 111.119264,119.022765 113.959538,115.929341 C118.547078,110.930563 123.613957,109.466371 129.738086,112.263571 C131.217657,112.938538 131.924101,113.148011 133.555398,113.864238 C139.838019,116.627583 140.867243,115.76536 143.336417,117.249654 C143.359351,117.263441 143.382235,117.277325 143.405066,117.291305 C144.560479,120.131229 145.201508,120.679332 145.213568,123.925588 L143.280751,123.925588 Z" id="Shape" fill="#FFFFFF"></path>
                                    <path d="M97.1830705,63.6915415 C98.2734993,65.1169398 102.38468,74.7343906 101.116582,77.0666875 C99.1659282,80.6543476 90.9320632,76.8229146 89.6184738,75.9319828 C88.1553317,76.8449871 90.5201327,78.7810219 88.8975332,79.4972489 C87.4189286,80.1521153 86.4486547,78.851904 85.7112851,77.7738606 C84.1901585,75.5447759 82.7018898,73.2575042 81.4735849,70.8284683 C80.3322567,68.5708191 79.5456004,66.0984076 78.2399828,62.8092644 C81.8651625,64.035637 94.7901396,60.5635249 97.1830705,63.6915415 Z" id="Fill-22" fill="#C4C3C6"></path>
                                    <path d="M96.5243171,63.1228969 L96.5389921,63.1801652 C97.1556724,65.3332986 97.4557083,67.2858791 96.9715256,68.1763924 C95.0208719,71.7640525 86.787007,67.9326195 85.4734175,67.0416877 C84.0102754,67.954692 86.3750764,69.8907267 84.752477,70.6069538 C83.2738723,71.2618202 82.3035984,69.9616089 81.5662289,68.8835655 C80.7415985,67.6751381 79.9266248,66.4496101 79.1574912,65.1936654 C78.8771823,64.4469613 78.5757431,63.6551198 78.2399828,62.8092644 C81.6087702,63.9489013 93.0084099,61.0311556 96.5243171,63.1228969 Z" id="Combined-Shape" fill="#FFFFFF"></path>
                                    <path d="M66.9926761,76.8321253 C65.813658,74.7638478 62.6766968,73.5387504 64.3911051,69.9840638 C66.582919,70.7267394 65.4570534,73.8857556 68.0499268,74.4792613 C68.3833376,72.5294733 66.8013273,68.4648584 71.324118,69.8042135 C72.4818751,70.145929 72.9873066,68.1326644 72.4886399,66.5235339 C71.9387536,64.7483065 71.5956787,62.8958492 71.6691257,60.8233399 C73.2623433,64.2038016 73.5761256,61.0063717 75.1628361,64.3910754 C76.3951746,67.0198478 78.9081256,76.2265437 80.1020043,78.8760702 C80.4073893,79.5542113 79.4139216,79.8155231 78.7683609,79.8462034 C75.1926503,77.2045211 70.8109552,78.3407513 66.9926761,76.8321253 Z" id="Fill-24" fill="#C4C3C6"></path>
                                </g>
                            </g>
                            <g id="Group-96" transform="translate(40.406834, 0.000000)">
                                <g id="Group-93" transform="translate(200.526246, 201.577365) rotate(20.000000) translate(-200.526246, -201.577365) translate(45.026246, 44.077365)">
                                    <g id="Group-94" transform="translate(0.361102, 0.590398)">
                                        <g id="Group-22" transform="translate(48.950790, 243.716794)">
                                            <path d="M36.2622013,62.326515 C55.2646161,61.0063069 70.2038133,48.1656991 69.6298323,33.6462147 C69.0558512,19.1267303 53.1860468,8.42660268 34.183632,9.74681074 C15.1812172,11.0670188 0.242019987,23.9076266 0.81600104,38.427111 C1.38998209,52.9465954 17.2597865,63.6467231 36.2622013,62.326515 Z" id="Oval" fill="#000000"></path>
                                            <path d="M35.9591898,52.8353256 C53.3373031,51.7674604 66.9462848,40.1921158 66.3557014,26.9810699 C65.7651179,13.770024 51.198611,3.92603109 33.8204977,4.99389631 C16.4423845,6.06176152 2.83340267,17.6371061 3.42398617,30.848152 C4.01456966,44.0591979 18.5810765,53.9031908 35.9591898,52.8353256 Z" id="Oval-Copy" fill="#C4C3C6" transform="translate(34.889844, 28.914611) rotate(8.000000) translate(-34.889844, -28.914611) "></path>
                                        </g>
                                        <path d="M192.891792,244.4447 C225.699958,221.094006 241.888684,204.255785 254.810936,185.52095 C278.882943,150.621065 288.36921,125.152884 283.269737,109.116406 C282.946992,88.1876502 274.986555,71.6330837 259.388428,59.4527067 C249.60763,51.8150082 231.516648,42.6447224 205.115481,31.9418493 C180.626971,23.4152216 161.310338,21.8696807 147.16558,27.3052268 C105.913323,43.1576393 78.377262,66.7619741 78.3636036,95.3385157 C78.3617585,99.1988498 52.0021108,112.045374 48.6917963,138.782453 C43.4606394,181.033983 49.2583531,218.679142 34.1377544,239.293246 C26.6547338,249.494944 24.0121123,256.341211 25.7711366,262.775653 C26.806547,266.563143 27.9322014,265.139805 31.9283151,269.242261 C68.1295071,254.700967 87.7838729,294.631932 130.509493,288.694545 C173.235114,282.757157 160.083626,267.795394 192.891792,244.4447 Z" id="Oval" fill="#000000" transform="translate(154.927133, 156.716323) rotate(-12.000000) translate(-154.927133, -156.716323) "></path>
                                        <path d="M204.858376,40.343319 C253.818517,50.2621628 271.158978,69.2958896 256.879761,97.4444994 C235.460934,139.667414 275.383144,103.915917 253.596483,156.252421 C245.799523,174.982488 241.355332,159.365073 206.555149,199.909915 C171.754967,240.454758 182.79824,281.132424 143.646507,284.35245 C132.873278,285.238492 108.63558,282.655758 89.1552787,277.608715 C69.6749775,272.561673 60.8200359,287.121585 58.5283469,284.299318 C50.7151713,274.677214 74.4850277,246.861598 70.328318,234.920452 C60.9911616,208.09723 59.2360497,178.588749 57.6823604,160.616025 C55.614074,136.690558 76.2205557,120.603671 75.5067424,117.237533 C71.469138,98.1973539 86.3454784,75.348625 108.327313,56.0507663 C115.54062,49.718202 133.847058,46.5429347 148.837113,41.0783101 C182.263076,39.6315447 200.93683,39.3865476 204.858376,40.343319 Z" id="Path" fill="#C4C3C6"></path>
                                        <g id="Group-28" transform="translate(62.328794, 83.329120)">
                                            <path d="M72.003061,127.030765 C85.1517481,126.954036 101.267485,133.529851 103.263728,135.545089 C87.0778885,138.562918 51.9150715,167.203331 41.4775737,169.916935 C67.1811044,152.909804 58.854374,127.107494 72.003061,127.030765 Z" id="Path-Copy-77" fill="#000000" transform="translate(72.370651, 148.473517) scale(-1, -1) rotate(-4.000000) translate(-72.370651, -148.473517) "></path>
                                            <path d="M40.8528633,167.625594 C53.425998,169.040046 66.3116647,165.850792 75.4699086,150.523312 C79.8501574,143.192411 107.392623,111.915636 112.759838,109.747336 C84.7540713,107.809557 91.8044607,128.645305 38.3067127,134.026573 C35.6556105,134.293243 31.7547316,142.830223 24.8183256,147.444305 C22.9670828,148.675748 21.8374298,122.655235 16.4283858,128.907928 C11.0193419,135.160621 16.4940159,164.885272 40.8528633,167.625594 Z" id="Path-Copy-69" fill="#FFFFFF" transform="translate(63.640273, 138.774458) rotate(7.000000) translate(-63.640273, -138.774458) "></path>
                                            <path d="M23.1949705,132.039333 C33.5106086,133.855266 62.3157901,125.532215 75.6039243,122.073223 C83.3988483,120.044152 108.8552,110.375025 114.349916,110.268541 C92.409466,105.859788 97.5861735,113.813768 51.0614347,108.794612 C48.1405588,108.479503 45.2104061,109.158805 39.2938551,111.653239 C38.4951479,111.989977 36.3248605,109.150468 32.6894611,109.175451 C23.7391041,109.236961 14.6557362,114.854151 8.92595151,114.870186 C5.31395613,114.880294 11.1518839,118.717589 13.4900424,120.762885 C17.76665,124.503833 22.834729,127.984802 22.3481964,129.541204 C21.0407699,133.723617 14.8988801,130.578915 23.1949705,132.039333 Z" id="Path-Copy-71" fill="#FFFFFF" transform="translate(61.062723, 120.508991) rotate(7.000000) translate(-61.062723, -120.508991) "></path>
                                            <path d="M37.5961386,157.205624 C49.6513505,159.859537 61.1107197,153.779061 72.0251381,142.954518 C78.4276217,136.604757 108.428313,110.239645 114.145081,108.918557 C86.3923878,108.941297 93.3629999,117.679004 57.9923618,118.742121 C55.374362,118.820809 40.1994321,117.979561 36.8075142,112.707834 C36.8090747,115.576801 37.6576435,117.978173 39.3525787,118.731938 C34.2698204,120.234839 31.9392015,121.439603 22.7265584,120.350231 C13.5139152,119.260858 11.955223,116.191853 3.36267396,112.660132 C8.86694144,118.144418 13.3403734,129.990084 15.2152291,136.504575 C18.4068568,147.594405 20.1244937,153.359303 37.5961386,157.205624 Z" id="Path-Copy-10" fill="#000000" transform="translate(58.753878, 133.371872) rotate(7.000000) translate(-58.753878, -133.371872) "></path>
                                            <path d="M113.556396,109.773281 C120.404923,111.524129 121.394443,117.625425 121.971923,122.345574 C117.795355,118.381939 116.501777,117.056754 111.770735,116.544687 C107.039693,116.032621 104.953759,118.062573 101.317219,120.110003 C103.009726,114.779051 106.70787,108.022432 113.556396,109.773281 Z" id="Path-Copy-70" fill="#000000" transform="translate(111.644571, 115.918337) scale(-1, 1) rotate(-75.000000) translate(-111.644571, -115.918337) "></path>
                                            <path d="M166.940605,34.024517 C179.636322,32.0809606 182.435353,37.3247978 202.22293,3.26456235 C207.937299,-6.57154491 208.47202,9.72479215 205.445261,30.5509782 C202.077045,53.7266178 190.9026,90.3278282 183.09956,100.61979 C177.797247,107.613371 115.687813,151.146528 154.407299,100.340884 C193.126785,49.5352408 171.007314,44.1735136 166.940605,34.024517 Z" id="Path" fill="#000000"></path>
                                        </g>
                                        <path d="M107.022491,176.071142 C114.258359,178.960242 105.26608,188.583095 99.8792832,190.766146 C99.1212143,185.481444 99.7866228,173.182042 107.022491,176.071142 Z" id="Path-Copy-79" fill="#000000" transform="translate(104.680817, 183.201849) scale(-1, 1) rotate(-45.000000) translate(-104.680817, -183.201849) "></path>
                                        <path d="M122.52527,161.10755 C133.128854,165.729827 118.76213,179.757086 111.774445,182.475294 C110.656648,174.038662 111.921686,156.485273 122.52527,161.10755 Z" id="Path-Copy-81" fill="#000000" transform="translate(118.872563, 171.410110) rotate(-95.000000) translate(-118.872563, -171.410110) "></path>
                                        <g id="Group-24" transform="translate(89.075430, 168.473402) rotate(6.000000) translate(-89.075430, -168.473402) translate(70.575430, 152.973402)">
                                            <g id="Group-25" transform="translate(18.357855, 15.584873) rotate(5.000000) translate(-18.357855, -15.584873) translate(1.857855, 1.584873)">
                                                <path d="M26.8654351,6.93345507 C34.7134069,9.82898031 24.9764533,19.4344101 19.1392227,21.6095821 C18.3109901,16.3277657 19.0174633,4.03792983 26.8654351,6.93345507 Z" id="Path-Copy-86" fill="#000000" transform="translate(24.335525, 14.053686) rotate(-103.000000) translate(-24.335525, -14.053686) "></path>
                                                <path d="M9.6418477,7.29092105 C12.6242718,7.26133799 19.0964318,10.1526358 26.0373556,19.1721402 C20.4371388,13.4335797 10.7154181,8.75773641 2.49214732,20.7408153 C-0.327926418,10.6313849 4.65140948,7.34042187 9.6418477,7.29092105 Z" id="Path-Copy-83" fill="#000000" transform="translate(13.855532, 14.015756) scale(-1, 1) rotate(136.000000) translate(-13.855532, -14.015756) "></path>
                                                <path d="M12.0127314,14.1469485 C11.8455797,14.1287787 11.6773468,14.0986503 11.5086483,14.0560524 C9.11229207,13.450951 7.52944045,10.5588727 7.97325027,7.59641473 C8.40613355,4.7068922 10.607226,2.81767708 12.9390289,3.28790407 C12.4012102,4.52492408 11.9914961,5.94827722 11.7592871,7.49828641 C11.4017845,9.88463822 11.5210192,12.1973997 12.0127314,14.1469485 L12.0127314,14.1469485 Z" id="Path" fill="#FFFFFF" transform="translate(10.418856, 8.681580) rotate(-16.000000) translate(-10.418856, -8.681580) "></path>
                                            </g>
                                        </g>
                                        <g id="Group-20" transform="translate(120.316062, 221.332321) rotate(3.000000) translate(-120.316062, -221.332321) translate(64.063979, 188.536413)"></g>
                                        <path d="M174.616737,126.542693 C185.173434,126.41659 197.747531,126.821647 207.494595,134.217652 C217.241658,141.613658 208.877058,152.327931 203.005676,156.790305 C192.164346,165.029943 185.163227,151.382409 158.4905,154.363797 C133.434313,157.164493 151.809749,126.81513 174.616737,126.542693 Z" id="Path-Copy-74" fill="#FFFFFF" transform="translate(179.215035, 142.999628) scale(-1, -1) rotate(179.000000) translate(-179.215035, -142.999628) "></path>
                                        <path d="M137.622409,110.848817 C127.161754,120.69706 108.590279,51.4880533 117.020568,25.2883014 C122.058742,9.63060397 132.29175,-2.14041882 138.740708,5.54251684 C144.92939,12.9153729 124.036896,73.4555799 131.103038,77.6352365 C131.237486,77.714763 132.128349,76.9052588 133.775628,75.2067237 C134.29571,74.6704581 135.245485,73.6666664 136.624951,72.1953486 C142.908018,65.5794176 149.404297,62.035142 156.113786,61.5625217 C154.672607,64.7494303 140.769167,95.4743935 137.622409,110.848817 Z" id="Path-Copy-89" fill="#000000" transform="translate(135.500475, 57.465399) scale(-1, 1) rotate(114.000000) translate(-135.500475, -57.465399) "></path>
                                        <path d="M146.333928,66.1528526 C144.036693,59.8311966 137.078038,57.6904539 131.805277,59.7342291 C125.708402,62.0974384 119.457405,64.9034482 113.220631,68.2591767 C75.6744898,88.4610731 101.405434,57.2434111 117.096148,48.2147169 C129.342987,41.1676856 147.942952,37.2446436 163.47935,36.2557265 C163.909086,39.250934 150.203269,52.2138364 146.333928,66.1528526 Z" id="Shape" fill="#FFFFFF"></path>
                                        <path d="M212.126032,105.310374 C203.895124,115.511243 163.657785,65.8546769 174.596263,35.2381973 C179.311373,22.040744 202.031464,-14.2562615 193.76993,24.2002467 C185.508396,62.6567549 223.322266,97.932539 212.126032,105.310374 Z" id="Path-Copy-88" fill="#FFFFFF" transform="translate(193.470905, 56.850246) scale(-1, 1) rotate(112.000000) translate(-193.470905, -56.850246) "></path>
                                        <path d="M80.9283703,128.42828 C87.2482462,128.352051 94.6060035,132.581048 98.7351429,138.716294 C101.157329,142.315278 101.938914,148.297608 75.6295234,145.232469 C73.97779,145.040036 67.5053851,145.330461 64.6050154,143.593949 C58.3884572,139.984323 70.3534321,128.555833 80.9283703,128.42828 Z" id="Path-Copy-84" fill="#FFFFFF" transform="translate(81.371452, 137.252800) scale(-1, -1) rotate(157.000000) translate(-81.371452, -137.252800) "></path>
                                        <path d="M118.657876,141.223926 C120.19891,143.536639 123.467726,147.590538 119.018486,149.999742 C114.569246,152.408945 107.759795,153.766103 100.620186,151.619176 C93.4805775,149.472248 96.1325567,146.026481 103.067209,142.171959 C108.243297,139.294909 116.166361,128.852929 126.836403,110.846019 C131.280053,98.487417 134.266657,91.1344265 135.796216,88.7870477 C138.690541,84.3451914 140.192696,117.573223 122.404561,134.170046 C122.109646,134.445211 117.116842,138.911213 118.657876,141.223926 Z" id="Path" fill="#FFFFFF"></path>
                                        <path d="M87.2969333,254.732777 C97.234453,254.625653 109.163351,258.961442 121.010214,268.5034 C132.857077,278.045359 108.532591,277.40406 89.0231319,275.703792 C69.5136725,274.003524 69.701312,284.555712 65.1375144,281.847973 C55.3558208,276.219153 70.6686549,254.912024 87.2969333,254.732777 Z" id="Path-Copy-76" fill="#FFFFFF" transform="translate(93.101492, 268.512850) scale(-1, -1) rotate(186.000000) translate(-93.101492, -268.512850) "></path>
                                        <path d="M181.72714,239.191171 C186.511784,239.146284 191.316811,242.811708 194.451778,247.159288 C196.290774,249.709612 199.814013,256.900281 201.801774,257.692199 C195.431912,255.844549 189.130215,251.317228 181.114047,251.267732 C172.897034,251.216995 163.004043,255.686074 159.788824,257.220386 C162.748368,249.327921 173.721078,239.26628 181.72714,239.191171 Z" id="Path-Copy-80" fill="#000000" transform="translate(180.795299, 248.441481) scale(-1, 1) rotate(-135.000000) translate(-180.795299, -248.441481) "></path>
                                        <path d="M47.287574,231.615197 C45.9411887,229.213421 71.7413687,249.291781 74.3196323,252.1927 C75.8320619,253.894402 78.1333357,260.581445 79.7684028,261.110127 C65.8963501,253.115867 54.7560029,255.509054 49.5303536,257.529913 C51.9661218,252.265348 51.890073,239.825456 47.287574,231.615197 Z" id="Path-Copy-78" fill="#000000" transform="translate(63.502549, 246.263176) scale(-1, 1) rotate(38.000000) translate(-63.502549, -246.263176) "></path>
                                        <path d="M180.200851,92.996968 C194.966617,92.996968 207.013091,105.2733 207.660927,120.674237 C199.685357,117.181014 190.429443,115.181889 180.557832,115.181889 C170.384663,115.181889 160.865382,117.305018 152.72841,120.998869 C153.219265,105.446623 165.331216,92.996968 180.200851,92.996968 Z" id="Combined-Shape-Copy-21" fill="#FFFFFF"></path>
                                        <path d="M180.028174,111.030173 C194.770967,111.030173 206.941259,115.666697 208.759348,121.664808 C200.744865,120.368926 191.587096,119.634602 181.861319,119.634602 C170.550048,119.634602 160.007073,120.62786 151.136833,122.34128 C152.210687,116.019064 164.735428,111.030173 180.028174,111.030173 Z" id="Combined-Shape-Copy-24" fill="#FFFFFF"></path>
                                        <path d="M98.7938635,113.716524 C109.29233,113.716524 117.915561,118.072403 118.858362,123.63467 C113.175049,122.418328 106.627635,121.725266 99.6582242,121.725266 C91.9472738,121.725266 84.7528981,122.573657 78.674874,124.04037 C79.2557854,118.285838 88.0412647,113.716524 98.7938635,113.716524 Z" id="Combined-Shape-Copy-26" fill="#FFFFFF" transform="translate(98.766308, 118.878522) rotate(-4.000000) translate(-98.766308, -118.878522) "></path>
                                        <path d="M106.506019,93.3091243 C117.768654,93.3091243 127.097657,103.319853 128.739427,116.384111 C122.402178,113.536122 115.154382,111.920111 107.454724,111.920111 C98.9304283,111.920111 90.9599686,113.900809 84.1669861,117.341281 C85.4623196,103.812079 94.9698145,93.3091243 106.506019,93.3091243 Z" id="Combined-Shape-Copy-23" fill="#FFFFFF" transform="translate(106.452863, 105.325377) rotate(4.000000) translate(-106.452863, -105.325377) "></path>
                                        <path d="M108.781011,98.3888631 C117.52881,98.3902974 128.883889,109.136676 127.05345,115.271443 C125.73005,119.706855 113.043072,118.8862 108.764123,118.885499 C98.5668165,118.883827 89.0202661,120.903838 80.8434078,124.42369 C85.1528101,107.064793 94.4653446,98.3865169 108.781011,98.3888631 Z" id="Path-Copy-73" fill="#000000" transform="translate(104.046539, 111.406277) rotate(4.000000) translate(-104.046539, -111.406277) "></path>
                                        <path d="M179.701532,99.0010111 C194.379664,99.0010111 206.438715,108.39142 207.779173,120.389618 C199.780597,117.705245 190.572133,116.176434 180.772473,116.176434 C170.055652,116.176434 160.045867,118.004803 151.551562,121.173254 C152.442942,108.802808 164.705326,99.0010111 179.701532,99.0010111 Z" id="Combined-Shape-Copy-19" fill="#000000"></path>
                                        <path d="M90.6099511,116.404477 C101.0511,127.892167 105.868208,131.093396 111.705644,133.318511 C117.543079,135.543626 122.870351,138.256798 130.344975,135.987071 C128.672221,141.492138 122.922889,141.527639 106.200769,142.125472 C89.4786485,142.723306 80.3412787,133.6829 69.7847802,137.744555 C70.4123213,136.842604 74.7948804,131.534232 89.530733,133.056123 C104.266586,134.578014 91.678085,128.073223 90.6099511,116.404477 Z" id="Path-Copy-82" fill="#000000" transform="translate(100.064878, 129.279240) rotate(-47.000000) translate(-100.064878, -129.279240) "></path>
                                        <path d="M168.874101,123.262739 C180.97327,125.414507 189.605313,127.040438 194.770229,128.140532 C167.129901,127.478144 152.449099,132.138263 150.727823,142.120888 C150.094708,147.357664 154.209763,151.32203 163.072987,154.013988 C174.456685,162.392509 173.525606,167.206379 160.279751,168.455599 C140.410968,170.329429 137.287675,177.191213 135.822293,177.371566 C140.985277,171.909843 141.038765,164.980621 138.434881,158.761227 C135.830996,152.541832 132.281888,150.528759 123.745563,149.16623 C124.212153,149.748695 136.362178,144.519278 140.831559,137.065205 C145.879011,128.647019 152.730906,113.170147 153.736123,113.568174 C154.589407,113.906042 150.725347,120.035087 168.874101,123.262739 Z" id="Path-2" fill="#000000"></path>
                                        <path d="M138.619464,164.415069 C136.535686,152.597376 127.325079,151.529116 124.449047,149.337001 C132.179699,150.92843 139.138121,151.582793 143.023039,157.139869 C147.145437,163.036641 148.952795,172.341119 135.976165,177.066273 C137.135102,174.424897 139.869731,171.505684 138.619464,164.415069 Z" id="Path" fill="#FFFFFF"></path>
                                        <path d="M185.052512,81.507886 C171.61099,83.1813674 167.597671,89.683352 164.844891,94.7189957 C174.067776,90.5986013 176.958863,89.2179935 185.997423,88.8084903 C195.035983,88.3989871 198.222247,90.6330184 204.305285,92.9311935 C203.024632,87.1752172 198.494034,79.8344046 185.052512,81.507886 Z" id="Path-Copy-70" fill="#000000" transform="translate(184.575088, 87.992308) rotate(2.000000) translate(-184.575088, -87.992308) "></path>
                                        <path d="M115.557253,81.912324 C104.687513,83.5794493 101.445454,90.0778426 99.2220153,95.1108605 C106.678598,90.9956659 109.015953,89.6167132 116.325559,89.2112821 C123.635164,88.805851 126.213281,91.0406468 131.134168,93.3408364 C130.095206,87.5859234 126.426992,80.2451987 115.557253,81.912324 Z" id="Path-Copy-93" fill="#000000" transform="translate(115.178092, 88.391306) rotate(25.000000) translate(-115.178092, -88.391306) "></path>
                                    </g>
                                    <g id="Group-91" transform="translate(103.565806, 108.497558) rotate(4.000000) translate(-103.565806, -108.497558) translate(79.648117, 92.037778)"></g>
                                </g>
                            </g>
                            <path d="M296.430576,220.188392 C307.831641,220.131576 326.245764,222.074431 339.835536,227.057687 C322.426695,229.242239 320.789366,232.02899 298.407019,231.142536 C276.024672,230.256082 272.542945,247.611369 262.79278,243.269218 C268.78429,226.856363 277.353373,220.283461 296.430576,220.188392 Z" id="Path-Copy-91" fill="#FFFFFF" transform="translate(301.314158, 232.077485) scale(-1, -1) rotate(-396.000000) translate(-301.314158, -232.077485) "></path>
                        </g>
                    </g>
                </g>
            </g>
        </g>
    </g>
</svg>