<?xml version="1.0" encoding="UTF-8"?>
<svg width="400px" height="400px" viewBox="0 0 400 400" version="1.1" xmlns="http://www.w3.org/2000/svg" xmlns:xlink="http://www.w3.org/1999/xlink">
    <!-- Generator: Sketch 58 (84663) - https://sketch.com -->
    <title>Roles</title>
    <desc>Created with Sketch.</desc>
    <g id="Roles" stroke="none" stroke-width="1" fill="none" fill-rule="evenodd">
        <g id="Group-36" transform="translate(198.500000, 211.000000) rotate(-4.000000) translate(-198.500000, -211.000000) translate(2.000000, 62.000000)">
            <g id="Group-35" transform="translate(306.661159, 85.131809) rotate(19.000000) translate(-306.661159, -85.131809) translate(239.161159, 18.631809)">
                <g id="Group-3" transform="translate(67.471160, 66.067355) scale(-1, -1) rotate(131.000000) translate(-67.471160, -66.067355) translate(27.471160, 11.567355)" fill="#000000" stroke="#000000" stroke-width="2.63700587">
                    <path d="M40.3725041,34.9850423 C46.4684164,35.0629338 59.5159549,43.8561453 62.8142755,47.0239664 C67.7935688,51.8059507 73.1011673,57.5532337 73.0439048,65.2582371 C73.0057298,70.4053379 69.5087468,75.0116833 67.1641651,78.9959747 C65.8490361,81.2304883 64.6038946,83.3460782 63.8181258,85.5562507 C64.0420858,85.620233 64.2743171,85.6758698 64.4149284,85.7099474 C72.2325335,87.5828216 78.4754196,94.9407904 79.5971285,103.602747 C79.9909674,106.645385 78.5027783,107.925728 77.8448957,108.334658 C77.3117181,108.667784 76.7149155,108.83678 76.0729392,108.83678 C75.4226916,108.83678 74.8545202,108.661524 74.3843314,108.489746 C66.9083926,105.760065 60.6572352,102.098467 55.2751955,97.2942277 C49.4503257,92.0970537 45.6550938,86.4109712 43.9951173,80.3952406 C42.3160532,74.3106594 43.0744634,67.7879383 45.8217913,62.9364081 C43.6998972,62.4968772 41.4208493,62.4009037 39.0565439,62.3007575 C34.7726719,62.1199378 30.3424624,61.932859 26.2666441,59.6468814 C22.641291,57.6140513 19.9970355,54.2841879 17.3858651,50.761682 C11.6857003,43.0747606 5.28311545,33.9892687 1.44207352,23.415492 C0.623219627,21.1601146 -0.0785642463,18.7107038 0.333725826,16.0818643 C0.80836841,13.0545261 2.64331373,10.769244 3.98389272,9.1001395 C7.44636583,4.78759088 11.7079691,0.378373293 17.0613775,0.378373293 C17.4806663,0.378373293 17.9050452,0.4061917 18.321789,0.461828515 C20.2337206,0.713585103 21.9579584,1.55022371 23.4792324,2.28810697 C24.9413352,2.99747636 26.3226342,3.66789998 27.5346906,3.66789998 C27.6848456,3.66789998 27.8330919,3.65816354 27.9762482,3.63729973 C29.0199896,3.49198679 30.0738474,2.76104598 31.2049466,1.80463296 C34.4928375,6.82682473 37.54869,17.8869612 40.3725041,34.9850423 Z" id="Shape"></path>
                </g>
                <path d="M45.572794,14.7339088 C40.7365276,14.0906071 36.6789187,18.4365473 33.4690823,22.4434455 C32.1391656,24.1032473 30.7610268,25.8848233 30.4212859,28.062539 C30.1138147,30.0384216 30.7135104,32.0414341 31.3906575,33.9052927 C34.9636769,43.7418983 40.8617999,52.3370833 46.9522628,60.5614127 C49.2768334,63.7009904 51.7336671,66.8900875 55.0171784,68.7357129 C61.9136346,72.6137544 70.6491457,69.6606533 77.7512134,73.0634402 C73.3611859,77.4808255 72.2924315,84.9334302 74.020505,91.1895156 C75.7485796,97.4469931 79.8508267,102.623181 84.4761126,106.758455 C89.9468125,111.649587 96.111855,115.051672 102.774568,117.492871 C103.229856,117.660267 103.751888,117.820752 104.168713,117.560738 C104.732318,117.20965 104.749464,116.3375 104.658032,115.633715 C103.688082,108.170535 98.175488,101.664513 91.4504566,100.046009 C90.3568521,99.7827754 89.0228912,99.4379227 88.7117869,98.260653 C88.557508,97.6744553 88.7248652,97.0495192 88.9164188,96.4775018 C91.1586268,89.8039707 96.9382251,84.4395933 96.9850242,77.3252041 C97.029042,70.7412101 92.1372281,65.5317163 87.6173088,61.1828307 C83.9320319,57.637127 79.7952568,53.891316 74.8939453,53.8249989 C71.7599034,53.7829757 68.8100942,55.2772939 65.8160583,56.2864254 C59.1587619,58.5311026 50.5163015,57.5584977 47.1789308,50.8543365 C44.1707118,44.8095903 47.0529263,37.0931454 51.4546692,32.1913115 C52.0256896,31.5562369 52.7181171,30.9052439 53.5318478,30.9483131 C54.6589928,31.0090186 55.3210887,32.2986168 56.0160054,33.2736208 C58.0224819,36.0885964 49.1426157,15.2085114 45.572794,14.7339088 Z" id="Fill-4" fill="#000000" transform="translate(67.519129, 66.183940) scale(-1, -1) rotate(131.000000) translate(-67.519129, -66.183940) "></path>
                <path d="M100.895632,57.5382252 C100.945467,57.8723711 101.072839,58.182213 100.901443,58.5071444 L100.910298,58.4472899 C100.717369,65.670155 96.5283338,71.0844481 93.7751851,77.1276626 C92.8739705,79.1065807 91.8511121,80.7854061 92.0302936,83.2161801 C92.1253498,84.5144023 93.5684744,88.9788991 92.9578299,89.3327359 C92.8320156,89.4057279 89.0487097,86.8288718 87.7741197,85.7603708 C79.3335821,78.6845878 79.2649923,72.4879967 79.2649923,72.4879967 C78.1397206,65.5919881 81.6298858,61.8369344 82.5580364,61.3439349 C86.9399293,59.0164344 98.1999024,61.9740084 98.8099144,61.6243474 C99.2648817,61.3636659 97.6523582,56.7085288 94.1062006,53.9637458 C92.9700715,52.9417754 91.7334151,53.5018729 90.7897272,53.9417717 C86.0401493,56.1558592 84.8580922,55.6773764 80.0974244,54.9673096 C77.06733,54.5146892 74.2265076,41.1302539 77.6453385,38.6186481 C80.6124333,36.4380282 80.7526108,36.9413515 83.5128265,38.636236 C85.2867436,39.7258879 90.1343538,42.436613 93.8303245,46.2647728 C97.8239079,50.4011897 100.621215,55.695094 100.895632,57.5382252 Z" id="Fill-10" fill="#C4C3C6" transform="translate(88.537586, 63.250937) scale(-1, -1) rotate(131.000000) translate(-88.537586, -63.250937) "></path>
                <path d="M91.7695287,55.2216331 C94.7236851,55.2238461 96.3012893,58.9542015 94.4499571,65.0496297 C92.5986248,71.145058 98.1147005,61.3911396 98.1139935,60.4472288 C98.1124003,58.3199842 99.5198584,48.0964966 94.2092582,48.0925114 C88.898658,48.0885399 84.5948575,49.8097873 84.5964503,51.937032 C84.598044,54.0642766 86.4589285,55.2176547 91.7695287,55.2216331 Z" id="Oval" fill="#000000" transform="translate(91.439105, 57.566804) scale(-1, -1) rotate(131.000000) translate(-91.439105, -57.566804) "></path>
                <path d="M87.2124243,53.201878 C81.7279024,58.0016541 80.7018897,61.0218007 77.3667793,63.9374602 C75.2435678,65.7928221 72.4782771,49.272084 74.6992778,48.484915 C76.1268616,47.9792056 81.8262206,46.0457386 86.5181471,46.3562426 C91.2100737,46.6667467 92.2186062,48.316979 94.9991771,50.3057047 C91.1337795,50.5039878 88.502022,52.0732873 87.2124243,53.201878 Z" id="Path" fill="#FFFFFF"></path>
                <path d="M121.459303,78.6742566 C116.244036,77.0192965 113.882963,70.0710297 112.6274,65.7593926 C112.183811,64.236082 113.074688,63.7321063 114.483944,64.4549757 C119.710789,67.1394165 124.648765,71.8426776 125.811249,78.3461365 C125.938926,79.0624774 122.44106,78.9861307 121.459303,78.6742566 Z" id="Fill-14" fill="#C4C3C6" transform="translate(119.163700, 71.515856) scale(-1, -1) rotate(131.000000) translate(-119.163700, -71.515856) "></path>
                <path d="M31.3691034,58.0750605 C31.2367603,58.2015176 31.1044171,58.3279748 30.9720739,58.4544319 C30.8926901,58.559836 30.8132905,58.6441474 30.7339225,58.7706442 L31.3691034,58.0750605 Z" id="Fill-16" fill="#D796A0" transform="translate(31.051513, 58.422852) scale(-1, -1) rotate(131.000000) translate(-31.051513, -58.422852) "></path>
                <path d="M50.1631975,52.3340237 C49.7732587,49.4492609 48.1281764,45.3579828 45.2293405,43.6135742 C43.6043897,42.6357854 42.9277917,43.2025671 38.7937295,41.3813627 C37.7203111,40.9093262 37.2555095,40.7711582 36.2819167,40.3263429 C32.252093,38.4829427 28.9198274,39.4437928 25.904612,42.7304152 C24.0378074,44.7642947 21.9375092,46.5432416 20.3601853,48.892653 C18.8552845,51.1794732 19.0420479,53.5483037 19.8322315,56.102738 C21.7385318,62.260495 35.0429595,83.3006783 40.9813481,90.5733995 C42.4493749,92.371286 44.2004443,92.4445372 44.3656291,92.2702718 C45.3311339,91.25266 44.1131817,90.4742491 43.6745656,89.6497861 C40.7634097,84.1877144 37.4614962,78.9912447 34.7066386,73.4165284 C33.6141193,71.2071131 33.1802934,69.1394914 33.2945216,67.1773851 C33.3773687,65.7547016 34.4978292,63.6805875 36.6408461,59.5246294 C37.7485362,57.3753313 38.4742055,56.1229678 39.5163613,54.7462468 C39.7976979,54.3733696 40.6874514,53.2185774 42.0570851,51.963912 C42.0570851,51.963912 43.985752,50.1959735 46.0457278,49.7499505 C46.4950958,49.6521427 46.91083,49.6322684 47.0801114,49.8788003 C47.1297504,49.9512277 47.229068,50.148983 47.0508376,50.6855114 C46.7470186,51.5964257 46.0487415,52.0761836 45.8887181,52.3078516 C44.6478973,54.0978832 44.2740591,55.7347351 44.7162171,57.0443543 C45.2106184,58.5085378 46.6534721,59.1040536 48.4301566,59.8160613 C49.9251399,60.4144003 52.0118505,60.8642259 52.2345775,60.3242505 C52.3468914,60.0500872 51.9416258,59.6182267 51.7456549,59.3849 C50.1568929,57.4966924 50.4764266,54.6507444 50.1631975,52.3340237 Z" id="Fill-18" fill="#C4C3C6" transform="translate(35.742325, 65.866716) scale(-1, -1) rotate(131.000000) translate(-35.742325, -65.866716) "></path>
                <path d="M33.8915529,55.7926984 C30.7104165,54.115415 23.5493073,64.0763247 22.4390509,66.2246012 C20.934779,69.1337156 9.29618916,66.4751706 8.49982893,63.9015555 C7.71087879,61.3499121 7.52573001,58.9832611 9.03364278,56.6972834 C10.6140881,54.3487144 12.7175309,52.5697272 14.58747,50.5362016 C17.6077493,47.2501523 20.9436086,46.2876354 24.9755256,48.1264321 C25.9496245,48.5701357 26.4147233,48.7078368 27.4887135,49.1786634 C31.6249755,50.9952054 32.3025819,50.4284053 33.9282009,51.404136 C33.9433005,51.4131995 33.958366,51.4223265 33.9733974,51.4315167 C34.734082,53.298399 35.1561132,53.6587052 35.1640531,55.7926984 L33.8915529,55.7926984 Z" id="Shape" fill="#FFFFFF" transform="translate(21.532221, 57.348430) scale(-1, -1) rotate(131.000000) translate(-21.532221, -57.348430) "></path>
            </g>
            <g id="Group-35-Copy" transform="translate(249.900641, 162.922308) rotate(-42.000000) translate(-249.900641, -162.922308) translate(186.900641, 100.922308)">
                <g id="Group-3" transform="translate(62.728109, 62.276344) scale(-1, -1) rotate(131.000000) translate(-62.728109, -62.276344) translate(24.728109, 12.276344)" fill="#000000" stroke="#000000" stroke-width="2.63700587">
                    <path d="M30.0623989,26.946813 C36.8424446,51.068815 57.1197178,40.0286999 60.125634,42.9200566 C64.6635007,47.2847041 69.5005673,52.530406 69.4483813,59.5629728 C69.4135906,64.2608721 66.2266238,68.4652091 64.0898951,72.1017806 C62.8913556,74.141282 61.756599,76.0722386 61.0404905,78.0895233 C61.2445959,78.1479218 61.4562393,78.198703 61.5843851,78.2298065 C68.7089401,79.9392299 74.3983788,86.6550487 75.4206455,94.5610528 C75.7795695,97.3381517 74.4233122,98.506755 73.8237525,98.8799971 C73.3378424,99.1840498 72.7939478,99.3382978 72.2088843,99.3382978 C71.6162827,99.3382978 71.0984812,99.1783369 70.6699757,99.0215498 C63.8567975,96.5300953 58.1598207,93.188055 53.2549122,88.8030951 C47.9464316,84.0594927 44.4876564,78.8696501 42.9748409,73.3789287 C41.4446301,67.8253655 42.1358053,61.8719001 44.6395758,57.4437761 C42.7057929,57.0426043 40.6287882,56.9550067 38.4740843,56.8636004 C36.9140138,56.7976511 38.3744556,65.4592714 36.5743756,66.4264756 C33.8697329,67.879712 27.8667668,61.7274007 25.6365829,60.4746783 C22.3326263,58.6192588 17.6505495,52.4671495 15.2708658,49.2520623 C10.0760348,42.2359995 4.81519279,30.9726696 1.31466876,21.3216952 C0.568408298,19.2631508 -0.071160693,17.0275067 0.304578841,14.6280932 C0.737143182,11.8649591 2.40941605,9.77911973 3.63114938,8.25568258 C6.78666565,4.31950184 13.5500286,0.345351624 18.4288441,0.345351624 C18.8109619,0.345351624 19.1977185,0.370742243 19.5775169,0.421523481 C21.319951,0.651308585 22.8913309,1.41493146 24.2777402,2.08841763 C25.6102239,2.73587842 26.8690673,3.34779234 27.9736719,3.34779234 C28.1105154,3.34779234 28.2456192,3.33890563 28.3760843,3.31986266 C29.3272955,3.18723158 30.2877262,2.52008197 31.3185506,1.64713772 C34.3149618,6.23102911 33.8962446,14.6642542 30.0623989,26.946813 Z" id="Shape"></path>
                </g>
                <path d="M43.4686728,14.3083804 C39.0577921,13.725031 35.3537425,17.6910457 32.4232061,21.3472948 C31.2090108,22.8618453 29.9507472,24.4874797 29.6393705,26.4736609 C29.3575658,28.2757601 29.9031999,30.1019803 30.5195751,31.8012475 C33.7719255,40.7692142 39.1459286,48.6034898 44.6956247,56.0994353 C46.8137983,58.9609581 49.0525797,61.8675493 52.0463193,63.5484082 C58.334158,67.0802434 66.304127,64.3812206 72.7798355,67.4795109 C68.772527,71.5109064 67.792589,78.3079752 69.3645487,84.0119778 C70.9365084,89.7172499 74.6747688,94.434827 78.8908215,98.2027949 C83.8774882,102.659483 89.4985052,105.757774 95.5741207,107.979453 C95.9892897,108.131797 96.4653424,108.277793 96.8457207,108.04039 C97.3600432,107.719834 97.3762789,106.924473 97.293361,106.282725 C96.4137362,99.477404 91.3899595,93.5480596 85.2569394,92.0766732 C84.259606,91.8373666 83.0430913,91.5237925 82.760127,90.4504041 C82.6198045,89.9159315 82.7728835,89.3459121 82.9479967,88.8241349 C84.9977487,82.7367339 90.2731781,77.8407878 90.3207254,71.3528498 C90.3653735,65.3486032 85.9069456,60.6011921 81.7871471,56.6383512 C78.4281053,53.4073949 74.6573735,49.994261 70.1867688,49.9371321 C67.3281332,49.9009504 64.6364929,51.2656962 61.9048433,52.1880105 C55.8309673,54.2395725 47.9485549,53.358518 44.9090076,47.246996 C42.1692402,41.7365968 44.8034759,34.6976824 48.8218014,30.2244901 C49.3430821,29.6449492 49.9751131,29.0508087 50.7173146,29.0895294 C51.7453797,29.1441192 52.3484185,30.3197049 52.9816092,31.2083766 C54.8098603,33.7740986 46.7245022,14.7387514 43.4686728,14.3083804 Z" id="Fill-4" fill="#000000" transform="translate(63.447060, 61.208280) scale(-1, -1) rotate(131.000000) translate(-63.447060, -61.208280) "></path>
                <path d="M93.9345115,53.4198081 C93.9797395,53.7244955 94.0957084,54.0069661 93.9391503,54.3034016 L93.9472681,54.2488118 C93.7663565,60.8357732 89.9416991,65.7761529 87.4263317,71.2890911 C86.6029519,73.0943641 85.6688216,74.6260532 85.8305984,76.8426543 C85.9164154,78.0264919 87.2296877,82.0968654 86.6724567,82.419961 C86.5576474,82.4866114 83.1085281,80.1392542 81.9466619,79.1657147 C74.2525995,72.7187816 74.1942697,67.0679007 74.1942697,67.0679007 C73.1725829,60.7799138 76.3586446,57.3531405 77.2055785,56.9029198 C81.2040395,54.7773823 91.4726166,57.466824 92.0292678,57.1475369 C92.4444368,56.9094999 90.9767804,52.6653893 87.7440867,50.1647307 C86.7084837,49.2335297 85.5801054,49.7451507 84.7190356,50.1469573 C80.3852744,52.1693201 78.2699547,51.3766444 73.9280757,50.7323574 C71.1645346,50.3216642 69.619922,38.4749194 72.7400677,36.1821465 C75.4479437,34.191522 75.5754604,34.6504276 78.0919875,36.1941772 C79.7092921,37.186664 84.1291075,39.6553747 87.4977106,43.1439071 C91.1375656,46.9133486 93.6854659,51.7391679 93.9345115,53.4198081 Z" id="Fill-10" fill="#C4C3C6" transform="translate(82.516012, 58.639145) scale(-1, -1) rotate(131.000000) translate(-82.516012, -58.639145) "></path>
                <path d="M85.5535339,51.2027204 C88.2481171,51.2027204 89.6845542,54.603508 87.991728,60.1634461 C86.2989019,65.7233841 91.3369623,56.8246139 91.3369623,55.9638231 C91.3369623,54.0239017 92.6277362,44.6997188 87.7837631,44.6997188 C82.9397899,44.6997188 79.0129738,46.2723358 79.0129738,48.2122571 C79.0129738,50.1521784 80.7095608,51.2027204 85.5535339,51.2027204 Z" id="Oval" fill="#000000" transform="translate(85.252974, 53.339719) scale(-1, -1) rotate(131.000000) translate(-85.252974, -53.339719) "></path>
                <path d="M80.842507,49.8967653 C75.358531,54.5953129 74.3326204,57.5517639 70.9978419,60.4059313 C68.8748417,62.2221632 66.1098262,46.0498516 68.3306059,45.2792842 C69.7580477,44.7842404 75.4568394,42.8915507 80.1482989,43.1955061 C84.8397585,43.4994615 85.8481906,45.1148901 88.6284849,47.061673 C84.763472,47.2557743 82.1319764,48.7919769 80.842507,49.8967653 Z" id="Path" fill="#FFFFFF"></path>
                <path d="M112.608927,72.6008987 C107.853039,71.095235 105.704172,64.760436 104.561877,60.8293334 C104.158305,59.4404665 104.971248,58.9802615 106.256184,59.6385133 C111.02193,62.0829952 115.522809,66.3687202 116.578707,72.2986993 C116.694676,72.951873 113.504208,72.8846389 112.608927,72.6008987 Z" id="Fill-14" fill="#C4C3C6" transform="translate(110.519784, 66.074865) scale(-1, -1) rotate(131.000000) translate(-110.519784, -66.074865) "></path>
                <path d="M30.2256774,54.113657 C30.2227782,54.1174656 30.219879,54.1212742 30.2169797,54.1250828 C30.2152402,54.1282567 30.2135007,54.1307957 30.2117611,54.1346043 L30.2256774,54.113657 Z" id="Fill-16" fill="#D796A0" transform="translate(30.218719, 54.124131) scale(-1, -1) rotate(131.000000) translate(-30.218719, -54.124131) "></path>
                <path d="M50.8244611,48.2589789 C50.4707556,45.6285107 48.9730161,41.8986288 46.3300828,40.3098108 C44.8485789,39.4192348 44.231044,39.9365687 40.4614719,38.2785612 C39.4826936,37.848825 39.058827,37.7231414 38.1710843,37.318161 C34.4966068,35.6398411 26.1772839,36.4262078 23.4247598,39.4254747 C21.7205955,41.281529 19.8036281,42.9052591 18.3632932,45.0488621 C16.9890606,47.1353363 17.1577955,49.2954432 17.8768033,51.6243977 C19.6113966,57.2386088 28.8528744,76.3666706 34.2645086,82.9949092 C35.6023166,84.6334734 37.1994754,84.6990779 37.3502651,84.5400452 C38.2316295,83.6113833 39.2671392,75.4599391 41.3376356,66.8547636 C41.5486094,65.9779367 39.5016996,62.021986 38.120559,58.6373663 C36.7394184,55.2527466 40.1599525,51.7222593 41.1114781,50.4660584 C41.3683494,50.1258241 42.1807122,49.0721134 43.430858,47.9269965 C43.430858,47.9269965 45.1912673,46.3134227 47.0705448,45.9052685 C47.4804952,45.8157665 47.8597138,45.7973583 48.0139525,46.0220653 C48.0591804,46.0880809 48.1496363,46.2683543 47.9866998,46.7577585 C47.7089541,47.5886665 47.0717045,48.0266547 46.9255835,48.2380316 C45.7925665,49.8712832 45.450458,51.3642516 45.8528704,52.5582455 C46.3028301,53.8931573 44.25901,54.3766069 45.8790968,55.0247025 C47.2423123,55.5693312 49.1453635,55.9781202 49.3488891,55.4855422 C49.4515216,55.2354446 52.4416487,54.9005301 52.2630564,54.6878836 C50.8151835,52.9670344 51.1085851,50.3714784 50.8244611,48.2589789 Z" id="Fill-18" fill="#C4C3C6" transform="translate(34.800626, 60.524445) scale(-1, -1) rotate(131.000000) translate(-34.800626, -60.524445) "></path>
                <path d="M38.8353768,53.9623471 C33.5572822,61.0530113 30.5809585,65.2519403 29.9064055,66.559134 C29.5310271,67.286178 29.7337212,70.5182843 30.5144876,76.2554529 C27.9910252,71.3545585 25.4427176,67.4375535 22.8695648,64.5044378 C20.6307164,61.9523931 21.4116906,61.8102301 23.3833321,61.6565721 C24.8107606,61.5453268 26.7200975,61.7609704 29.2415495,59.4544618 C35.2457673,53.9620787 36.8686565,47.4313926 38.3501604,48.3219686 C38.3639214,48.3302411 41.0908563,49.6772921 41.1045552,49.6856802 C41.1182541,49.6940683 48.1140487,50.2918071 48.1212847,52.2395609 L38.8353768,53.9623471 Z" id="Shape" fill="#FFFFFF" transform="translate(34.816133, 62.247670) scale(-1, -1) rotate(251.000000) translate(-34.816133, -62.247670) "></path>
            </g>
            <g id="Group-99" transform="translate(247.617301, 101.491098) scale(-1, 1) rotate(1.000000) translate(-247.617301, -101.491098) translate(153.117301, 6.491098)">
                <g id="Group-93">
                    <g id="Group-94" transform="translate(0.206447, 0.337001)">
                        <g id="Group-22" transform="translate(28.923132, 144.710754)">
                            <path d="M20.2741717,34.8089786 C31.1380832,34.0288556 39.679004,26.4412237 39.350852,17.8615284 C39.0227001,9.28183308 29.9497399,2.95903039 19.0858283,3.73915334 C8.22191676,4.51927628 -0.319003958,12.1069082 0.00914798895,20.6866035 C0.337299936,29.2662988 9.41026008,35.5891015 20.2741717,34.8089786 Z" id="Oval" fill="#000000"></path>
                            <path d="M20.3925147,29.2316359 C30.3277934,28.5802381 38.1082137,21.519278 37.77057,13.46054 C37.4329262,5.40180198 29.1050771,-0.60303371 19.1697985,0.0483640708 C9.2345198,0.699761852 1.45409945,7.76072202 1.79174321,15.81946 C2.12938698,23.878198 10.457236,29.8830337 20.3925147,29.2316359 Z" id="Oval-Copy" fill="#C4C3C6"></path>
                        </g>
                        <path d="M114.770386,146.168227 C133.521607,132.844732 139.146977,119.343976 146.530813,108.65173 C167.163102,78.7749152 144.563755,98.2108153 169.426435,61.7338583 C183.072345,41.713439 155.503023,18.1619681 123.603394,18.1669073 C112.768988,18.1685849 98.5237611,11.87215 86.3960074,16.5224855 C62.8161433,25.564084 45.6465113,40.8264678 45.6439873,57.1391619 C45.6436463,59.3428033 30.5769267,66.6712675 28.6894537,81.9333088 C25.7067561,106.051299 29.0281126,127.541817 20.3878886,139.306423 C13.5949907,148.555692 13.7840247,152.973199 19.9515516,159.29555 C40.6441015,151.001459 49.6069245,163.367952 66.8292417,172.096009 C84.051559,180.824067 96.0191663,159.491722 114.770386,146.168227 Z" id="Oval" fill="#000000" transform="translate(94.156669, 94.471663) rotate(-12.000000) translate(-94.156669, -94.471663) "></path>
                        <path d="M120.205743,22.8921774 C129.930564,21.8027598 163.015938,31.2771394 150.770534,55.3781024 C138.525131,79.4790654 151.533207,65.7388434 139.077508,95.6126728 C134.619891,106.30385 132.555635,104.662882 116.402234,126.680829 C100.248833,148.698777 106.720156,169.500049 84.3993406,166.759397 C74.8708975,165.589452 64.0985162,162.204586 54.0253174,162.062727 C43.9521185,161.920868 35.251554,167.659766 33.9413676,166.048808 C29.4744801,160.556483 43.063996,144.679248 40.6875545,137.863207 C35.3493887,122.552433 34.3459699,105.708906 33.4577068,95.450023 C32.2752423,81.7932968 44.0562185,72.6108544 43.6481227,70.6894529 C41.3397752,59.8212633 49.8447599,46.7791422 62.4120418,35.7638681 C66.5359772,32.1492219 77.0019903,30.33677 85.571987,27.2175463 C114.237031,25.9788195 110.480922,23.9815949 120.205743,22.8921774 Z" id="Path" fill="#C4C3C6"></path>
                        <g id="Group-28" transform="translate(40.914129, 48.934432)">
                            <g id="Group-29" transform="translate(54.109350, 75.268175) scale(1, -1) rotate(-11.000000) translate(-54.109350, -75.268175) translate(4.609350, 46.768175)">
                                <g id="Group-32" transform="translate(28.228941, 25.605832) rotate(-2.000000) translate(-28.228941, -25.605832) translate(1.228941, 3.605832)">
                                    <path d="M9.75079227,36.5873367 C10.393406,36.7808765 9.07632573,43.7747736 10.5363366,43.0308609 C12.9556778,41.798145 14.8328126,42.6740004 16.1512277,42.8364421 C16.8644811,42.9243219 18.6393458,38.3818901 19.3912768,38.4314399 C26.4279393,38.8951336 33.2261085,37.0439802 37.4264329,30.222565 C40.3205348,25.5224826 50.2070778,5.73214081 53.2946975,4.68787398 C47.7169243,3.16157751 46.1558682,0.882690046 26.7847644,3.89653073 C16.6705983,5.47013674 23.8086881,9.37684592 21.0791585,12.1367043 C15.2263264,18.0545692 8.89732702,23.5297295 6.09292423,25.3049945 C4.99541033,25.9997513 5.79526231,1.3013606 2.80831343,9.97166258 C-0.178635448,18.6419646 -3.41555903,32.6219495 9.75079227,36.5873367 Z" id="Path-Copy-69" fill="#FFFFFF"></path>
                                    <path d="M12.399549,33.3093677 C24.8275323,35.5704879 30.3186279,35.7238442 36.8806667,28.3036025 C40.7300102,23.9508304 49.8979453,5.78540368 53.0488472,5.30099905 C38.1729947,2.65281426 29.2139869,11.5266071 18.4852637,10.5794052 C7.75654046,9.63220327 6.42653624,4.02604633 2.05368126,0.437548549 C4.64284455,5.25699096 0.536496484,16.8444752 1.74558842,22.7870766 C2.95468035,28.729678 6.50600054,32.2371084 12.399549,33.3093677 Z" id="Path-Copy-10" fill="#000000"></path>
                                </g>
                                <path d="M62.8589276,25.8824074 C68.0255084,23.9705769 64.4462384,20.2294295 56.1761067,16.3174948 C52.7430698,14.6936009 50.4269108,11.9587944 48.769724,10.2040578 C51.2292676,23.06194 54.4993124,39.0130626 55.4862578,42.0019699 C55.7647291,34.4205771 57.6923468,27.7942379 62.8589276,25.8824074 Z" id="Path-Copy-70" fill="#000000" transform="translate(57.017371, 26.103014) rotate(48.000000) translate(-57.017371, -26.103014) "></path>
                                <path d="M90.7986581,47.7140589 C69.7820135,26.2992977 56.5169807,13.6142168 51.0035596,9.65881609 C47.5705227,7.19591036 48.3621086,16.2876272 56.4003376,28.3885888 C61.7304276,36.4126466 68.6852377,42.2774073 77.2647677,45.9828708 L90.7986581,47.7140589 Z" id="Path-Copy-94" fill="#000000" transform="translate(69.939033, 28.484067) rotate(42.000000) translate(-69.939033, -28.484067) "></path>
                            </g>
                            <path d="M102.921037,9.16884044 C113.585026,10.6863231 120.166908,17.5538688 121.068949,21.6387271 C114.563728,18.2072925 112.548854,17.0600761 105.182478,16.6153229 C97.8161024,16.1705697 94.5696381,17.9265046 88.9089487,19.697031 C90.9917578,16.0466712 100.696325,8.85226452 102.921037,9.16884044 Z" id="Path-Copy-90" fill="#000000" transform="translate(104.988949, 15.398727) scale(-1, 1) rotate(-138.000000) translate(-104.988949, -15.398727) "></path>
                        </g>
                        <path d="M64.9021763,98.0417795 C69.3816056,99.8792348 63.8213617,105.982612 60.4887514,107.36554 C60.0170084,104.010795 60.4227471,96.2043243 64.9021763,98.0417795 Z" id="Path-Copy-79" fill="#000000" transform="translate(63.456548, 102.565540) scale(-1, 1) rotate(-198.000000) translate(-63.456548, -102.565540) "></path>
                        <path d="M85.5037728,97.6358943 C88.4941831,110.265795 88.3272211,114.942369 84.1885741,114.392963 C85.8171996,108.938272 84.4034257,102.350587 85.5037728,97.6358943 Z" id="Path-Copy-92" fill="#000000" transform="translate(85.868574, 106.035894) scale(-1, 1) rotate(-151.000000) translate(-85.868574, -106.035894) "></path>
                        <path d="M37.7363087,116.374932 C42.0563087,116.374932 42.0563087,106.435321 50.5525967,104.498335 C47.9303301,107.175962 44.1021835,112.273384 42.0563087,118.182133 C39.849659,124.555221 39.5573984,131.808898 40.5391539,136.178335 C40.4834023,135.210574 35.3982803,130.896679 34.8563087,129.928946 C33.9324009,128.279234 32.0951793,121.333781 32.9363087,122.248338 C33.4902532,122.850639 36.2221258,123.981688 36.7763087,124.055539 C36.6963279,122.130166 33.4163087,116.374932 37.7363087,116.374932 Z" id="Path" fill="#000000" transform="translate(41.637034, 120.338335) rotate(4.000000) translate(-41.637034, -120.338335) "></path>
                        <path d="M73.0165855,90.9338328 C78.8384949,93.4393113 70.9488889,101.04619 67.1118551,102.520569 C66.4987312,97.9461765 67.1946761,88.4283542 73.0165855,90.9338328 Z" id="Path-Copy-81" fill="#000000" transform="translate(71.010146, 96.520569) rotate(-95.000000) translate(-71.010146, -96.520569) "></path>
                        <g id="Group-24" transform="translate(61.720457, 76.256085) rotate(6.000000) translate(-61.720457, -76.256085) translate(46.720457, 50.756085)" fill="#000000">
                            <g id="Group-25" transform="translate(14.783899, 25.477250) rotate(5.000000) translate(-14.783899, -25.477250) translate(2.283899, 1.477250)">
                                <path d="M14.7786341,39.497882 C19.2580634,41.1515917 13.6978195,46.6446312 10.3652092,47.8892667 C9.89346617,44.8699962 10.2992049,37.8441722 14.7786341,39.497882 Z" id="Path-Copy-86" transform="translate(13.333006, 43.569267) rotate(-103.000000) translate(-13.333006, -43.569267) "></path>
                                <path d="M8.52375734,26.7490966 C13.7277127,20.0743412 6.75927794,24.202785 0.779451792,21.1918856 C9.5123659,19.6097535 12.5240775,18.2452736 15.3718955,16.0916346 C18.2197135,13.9379956 23.1037688,4.75924867 24.2690541,0.45387758 C24.9752818,9.11831308 22.7508472,13.1424452 17.9723529,21.4198291 C13.9390316,28.4064126 8.21510186,30.7005037 5.78786202,35.0581702 C2.36880771,46.1310887 9.56271362,46.4405912 13.9177044,46.3116175 C7.48116487,47.2628707 3.67119128,45.8837455 2.45640228,44.6890286 C1.53809436,43.785894 -0.759786722,41.8623041 0.745596945,37.8567936 C2.14064324,34.1448678 7.26234476,28.3670237 8.52375734,26.7490966 Z" id="Path"></path>
                            </g>
                        </g>
                        <path d="M109.857089,70.8948901 C115.892476,70.8230775 123.081244,71.0544849 128.653873,75.2763029 C134.226502,79.498121 129.444531,85.6137297 126.087863,88.1607738 C119.889876,92.8638138 115.887037,85.0736467 100.637969,86.7750092 C86.3130938,88.3732582 96.8180672,71.050036 109.857089,70.8948901 Z" id="Path-Copy-74" fill="#FFFFFF" transform="translate(112.486288, 80.288748) scale(-1, 1) rotate(179.000000) translate(-112.486288, -80.288748) "></path>
                        <g id="Group-33" transform="translate(109.351542, 32.383659) rotate(5.000000) translate(-109.351542, -32.383659) translate(59.851542, 12.883659)" fill="#FFFFFF">
                            <path d="M42.745635,16.4369915 C35.0519122,18.2223758 22.9462274,25.1699499 14.5344466,28.7419571 C-12.620812,40.2732586 5.49588977,22.7005714 16.8442044,17.5469664 C25.7017343,13.5245004 39.1541648,11.2852165 50.3908702,10.7207398 C50.7016767,12.4304129 47.1543107,12.8663872 42.745635,16.4369915 Z" id="Shape"></path>
                            <path d="M78.4639707,45.3676667 C69.2834451,47.8461648 55.2831099,23.5419434 61.518552,8.09181762 C63.5075628,3.16346357 66.4391318,-0.223079457 72.9586792,-6.77660722 C72.9849845,-2.35143157 72.8444759,-9.61280038 73.1399226,8.24420501 C73.4353692,26.1012104 84.8539119,41.6469456 78.4639707,45.3676667 Z" id="Path-Copy-88" transform="translate(70.186632, 19.383393) rotate(112.000000) translate(-70.186632, -19.383393) "></path>
                        </g>
                        <path d="M48.6652126,71.7952005 C52.2774603,71.7537448 56.4843413,74.1706621 58.8464537,77.6748804 C60.2320874,79.7304824 60.6807773,83.1462999 45.6420284,81.3876802 C44.6978787,81.2772721 40.9985195,81.4409711 39.3401777,80.4485753 C35.7857783,78.3856566 42.6209016,71.8645676 48.6652126,71.7952005 Z" id="Path-Copy-84" fill="#FFFFFF" transform="translate(48.922660, 76.834675) scale(-1, -1) rotate(157.000000) translate(-48.922660, -76.834675) "></path>
                        <path d="M71.7457107,77.1979675 C72.4749439,78.5180709 73.3086101,79.8580656 69.5793001,81.9232532 C65.84999,83.9884409 64.4382865,84.3410267 61.0597496,83.115554 C60.0748258,82.4208242 61.0864961,79.9392799 64.3680455,77.7391076 C70.9122398,73.3514377 76.3619802,55.7978368 78.3287468,56.0990372 C80.258809,56.3946164 81.9362105,63.6980772 73.518681,73.1715926 C73.3791237,73.3286574 71.0164775,75.8778641 71.7457107,77.1979675 Z" id="Path" fill="#FFFFFF" transform="translate(70.298566, 69.958412) rotate(2.000000) translate(-70.298566, -69.958412) "></path>
                        <path d="M57.2676623,145.336909 C63.8008569,145.26873 71.6427526,147.985271 79.43015,153.965178 C87.2175475,159.945084 71.2260699,159.545627 58.4002306,158.481882 C45.5743912,157.418137 45.6966034,164.032491 42.6965389,162.335687 C36.2664119,158.808418 46.3357817,145.450992 57.2676623,145.336909 Z" id="Path-Copy-76" fill="#FFFFFF" transform="translate(61.081575, 153.975658) scale(-1, -1) rotate(186.000000) translate(-61.081575, -153.975658) "></path>
                        <path d="M54.9827426,140.853211 C57.6526811,140.837775 63.44882,142.492345 69.6689742,147.647816 C64.6513989,144.367166 51.1093817,145.114844 43.7561839,151.956342 C45.8542521,145.41187 50.5151813,140.879329 54.9827426,140.853211 Z" id="Path-Copy-83" fill="#000000" transform="translate(56.712579, 146.404776) scale(-1, 1) rotate(12.000000) translate(-56.712579, -146.404776) "></path>
                        <g id="Group-30" transform="translate(106.162760, 64.242638) scale(1, -1) rotate(-17.000000) translate(-106.162760, -64.242638) translate(88.662760, 52.242638)">
                            <path d="M33.0963706,18.0406553 C26.316211,17.8575813 21.1122773,17.9887576 17.4845695,18.4341841 C11.3070941,19.1926827 8.6779636,22.0599747 3.9391096,23.6204518 C0.779873598,24.6607698 -0.139496626,22.8296067 1.18099893,18.1269624 C6.44950648,6.346846 11.898885,0.456787791 17.5291345,0.456787791 C22.7336889,0.456787791 30.7559448,6.30462638 34.3347852,16.831718 C34.5120007,17.352994 34.0991958,17.7559732 33.0963706,18.0406553 Z" id="Path" fill="#FFFFFF"></path>
                            <path d="M17.1471471,4.25483118 C25.5421438,4.25483118 32.439254,10.1497411 33.2064741,17.6819075 C28.6312354,15.9975683 23.3645197,15.037836 17.7596882,15.037836 C11.629615,15.037836 5.90399805,16.1858742 1.04533489,18.175333 C1.55596719,10.4087454 8.56970764,4.25483118 17.1471471,4.25483118 Z" id="Combined-Shape-Copy-19" fill="#000000"></path>
                        </g>
                        <g id="Group-31" transform="translate(63.582921, 60.621037) rotate(-187.000000) translate(-63.582921, -60.621037) translate(47.582921, 48.621037)">
                            <path d="M16.8235623,11.3995567 C11.6835387,11.042655 6.79409075,11.8930206 2.55320769,13.6653467 C3.90399398,5.63189208 10.0789297,-0.248614996 17.034985,0.234384399 C23.8261785,0.705936476 29.6179952,7.64210508 30.7565679,10.3016535 C31.8951407,12.9612018 29.7051725,18.8044571 24.6142166,17.9384201 C21.1023389,17.8737255 17.1375051,18.2158719 13.0020741,19.0140741 C8.42674681,19.897183 2.40001669,26.5259115 0.632023349,22.3676643 C-1.13597,18.2094172 5.18710723,15.6334257 11.5670001,14.4020077 C14.9195666,13.7549105 20.0710985,11.6250521 16.8235623,11.3995567 Z" id="Path" fill="#FFFFFF"></path>
                            <path d="M17.5724479,3.08665454 C22.8202868,3.08693694 29.6315298,9.62366019 28.5330351,13.3558288 C27.7388279,16.0541717 20.1279142,15.5557874 17.560956,15.5556493 C11.4435517,15.5553201 5.71640444,16.7848244 0.810841256,18.9266545 C3.39722116,8.36619241 8.98442339,3.08619241 17.5724479,3.08665454 Z" id="Path-Copy-73" fill="#000000" transform="translate(14.730841, 11.006655) rotate(4.000000) translate(-14.730841, -11.006655) "></path>
                        </g>
                        <path d="M98.9473768,68.8486585 C102.969926,70.1724316 107.904969,71.1005176 113.752508,71.6329168 C110.878062,72.2669401 108.891744,72.5969674 107.793553,72.6229989 C95.3737779,72.9173965 89.4417661,74.5820953 88.5729289,79.6129447 C88.0299902,84.096695 99.2167479,91.8645657 95.0796219,95.5300635 C90.942496,99.1955613 80.8890329,99.6311885 80.0512563,99.7341345 C83.0029972,96.6165673 84.4485566,93.0310333 82.9598842,89.4809845 C81.4712117,85.9309358 80.374626,83.7814722 75.4943056,83.003737 C75.7610604,83.3362096 80.3599152,80.9819528 82.9151146,76.7271461 C85.8008044,71.9220209 85.374516,66.5248809 88.5935535,64.9429989 C91.8125909,63.3611169 92.9135535,66.8629989 98.9473768,68.8486585 Z" id="Path-2" fill="#000000"></path>
                        <path d="M81.435696,91.4856632 C80.1854292,84.3950473 74.6590652,83.7540916 72.9334455,82.4388226 C77.5718372,83.3936798 81.7468901,83.7862978 84.0778411,87.1205435 C86.5512796,90.6586066 87.6356945,96.2412934 79.8497166,99.0763857 C80.5450787,97.4915603 82.1858562,95.7400327 81.435696,91.4856632 Z" id="Path" fill="#FFFFFF"></path>
                        <path d="M100.821354,52.4227867 C92.8352959,51.7339363 91.5257478,47.8357723 92.8320387,45.7197412 C94.1383297,43.60371 98.0445695,48.4111795 103.171386,48.6506586 C108.35763,48.8690894 110.498482,47.8236477 114.133335,46.842266 C112.899359,49.4409582 109.096285,52.987619 100.821354,52.4227867 Z" id="Path-Copy-70" fill="#000000" transform="translate(103.262958, 48.832882) rotate(39.000000) translate(-103.262958, -48.832882) "></path>
                        <path d="M68.7684235,51.9024086 C76.1318668,50.3054011 80.3574725,44.1069361 78.2535886,42.6208483 C76.1497047,41.1347605 72.2090542,46.9293881 67.1515424,47.7495329 C62.0940306,48.533667 59.9587283,47.5275961 56.1735886,46.7412259 C57.751703,49.646163 61.4049802,53.3331505 68.7684235,51.9024086 Z" id="Path-Copy-93" fill="#000000" transform="translate(67.483662, 47.299566) rotate(-17.000000) translate(-67.483662, -47.299566) "></path>
                    </g>
                </g>
            </g>
            <g id="Group-34" transform="translate(145.734204, 163.014994) rotate(-6.000000) translate(-145.734204, -163.014994) translate(12.234204, 41.514994)">
                <g id="Group-88" transform="translate(113.820458, 122.686328) rotate(-5.000000) translate(-113.820458, -122.686328) translate(9.320458, 15.686328)">
                    <g id="Group-26" transform="translate(104.755881, 106.998236) scale(1, -1) rotate(142.000000) translate(-104.755881, -106.998236) translate(36.255881, 25.498236)">
                        <g id="Group-3" transform="translate(2.111784, 8.609554)" fill="#000000" stroke="#000000" stroke-width="2.63700587">
                            <path d="M125.389976,153.26155 C118.576797,150.770095 112.879821,147.428055 107.974912,143.043095 C102.666432,138.299493 99.2076564,133.10965 97.6948409,127.618929 C96.1646301,122.065366 96.8558053,116.1119 99.3595758,111.683776 C97.4257929,111.282604 95.3487882,111.195007 93.1940843,111.1036 C89.2899882,110.938561 85.2525278,110.767809 81.5380409,108.681335 C78.2340844,106.825916 75.8242487,103.786659 73.444565,100.571572 C68.249734,93.5555087 62.4147541,85.2629325 58.9142301,75.6119582 C58.1679697,73.5534137 57.5284007,71.3177697 57.9041402,68.9183562 C58.3367045,66.155222 60.0089774,64.0693827 61.2307107,62.5459455 C64.386227,58.6097648 68.2700286,54.5853516 73.1488441,54.5853516 C73.5309619,54.5853516 73.9177185,54.6107422 74.2975169,54.6615235 C76.039951,54.8913086 77.6113309,55.6549315 78.9977402,56.3284176 C80.3302239,56.9758784 81.5890673,57.5877923 82.6936719,57.5877923 C82.8305154,57.5877923 82.9656192,57.5789056 83.0960843,57.5598627 C84.2888254,57.3935541 85.4960626,56.3868161 86.8384037,55.1877441 L87.7864502,54.3396974 C95.9813991,47.005617 85.8802218,52.7490382 96.3725163,49.8259432 C97.4846589,49.5155428 85.0231979,49.7561726 85.2162863,49.6095418 C85.1849746,49.5155965 98.060445,48.8782383 97.9676698,48.6732091 C97.2185101,47.0234536 96.1318807,45.4473309 94.9808884,43.7791672 C92.9827427,40.8827323 111.097358,25.8502095 108.922379,20.3023028 C108.891067,20.3607012 108.859176,20.4190997 108.828444,20.4762286 C108.720593,20.6774492 108.612742,20.8774003 108.501411,21.0729081 C105.807452,25.8317449 101.367579,28.25401 97.0732471,30.5962946 C95.4125711,31.5021049 93.8440905,32.3577688 92.3834611,33.3365772 C91.2904533,34.0697313 90.2415138,34.8885788 89.129951,35.7550337 C87.2767665,37.2003947 85.3597991,38.6959021 83.1697247,39.8130894 C79.7729929,41.5472687 76.0155975,42.3210478 70.9866022,42.3210478 C68.8295789,42.3210478 66.6366053,42.1807646 64.5155324,42.0461943 C62.4408472,41.9141631 60.2954208,41.7770538 58.2334921,41.7770538 C56.5183107,41.7770538 55.0153526,41.8716338 53.6382208,42.0639678 C52.9163139,42.1648955 52.1955666,42.2975615 51.4330704,42.4384794 C49.7973278,42.739993 48.1059201,43.0510281 46.3269557,43.0510281 L46.1570612,43.0503933 C38.8765278,42.9697781 19.8435964,46.2701668 14.5200398,41.1799824 C8.42065069,35.3477571 8.83689423,39.8054526 3.96735625,32.7208351 C0.60135626,27.8229847 -0.2444622,27.1256451 0.863041674,20.0124631 C1.18891454,17.9164675 2.19204632,17.0233525 3.01368663,16.6437627 C2.84057524,15.7932422 23.9985843,9.58360491 26.7418308,18.6632903 L35.3146568,25.1410032 C35.6828584,26.3584834 43.9124813,24.6980538 44.5514705,25.4845282 C46.2451976,27.5684633 51.6336968,28.6932677 55.8439511,28.6932677 C56.3269619,28.6932677 56.779241,28.6773986 57.186872,28.6475646 C57.3596658,28.6348693 57.5626115,28.573297 57.6194363,28.5529845 C57.8623914,28.459674 58.0369247,28.2914611 58.103027,28.2279846 C58.2729216,28.0654846 75.9338394,12.1373144 90.4473588,4.5106072 C95.9941556,1.59639888 102.626098,-2.15105375 113.878564,2.22472886 C125.131029,6.60051148 131.673008,11.9087503 133.298894,21.174422 C133.965715,24.9804758 131.54677,29.7355526 130.1621,32.7373586 C124.503393,45.0048362 114.82636,62.1663558 100.859055,74.2599077 C98.4898084,76.3108349 95.5946425,78.5141059 92.0848409,79.2974065 C91.2979913,79.4738713 90.4879479,79.5627385 89.6784843,79.5627385 C86.384965,79.5627385 83.4782022,78.1345162 81.7032968,75.6436964 C81.5896471,75.4843703 81.4771572,75.3167922 81.3635076,75.1479446 C81.2904471,75.0393997 81.2017309,74.9073685 81.1141743,74.7829544 C81.0863417,74.8121536 81.0573495,74.8445267 81.0260378,74.8794388 C77.7696285,78.5039497 75.2757154,84.4396417 77.4971014,88.9064864 C79.5665681,93.0680089 84.4471231,93.516788 86.4493278,93.516788 C88.224813,93.516788 90.0652409,93.2114659 91.7723045,92.6350988 C92.398537,92.4237219 93.0218704,92.1875891 93.6463634,91.9520911 C95.835858,91.1256265 95.8081999,87.8819399 98.3345844,87.8819399 L98.4720076,87.8825747 C104.027502,87.9536684 111.839718,94.2686999 114.845634,97.1600566 C119.383501,101.524704 124.220567,106.770406 124.168381,113.802973 C124.133591,118.500872 120.946624,122.705209 118.809895,126.341781 C117.611356,128.381282 116.476599,130.312239 115.76049,132.329523 C115.964596,132.387922 116.176239,132.438703 116.304385,132.469806 C123.42894,134.17923 129.118379,140.895049 130.140646,148.801053 C130.49957,151.578152 129.143312,152.746755 128.543752,153.119997 C128.057842,153.42405 127.513948,153.578298 126.928884,153.578298 C126.336283,153.578298 125.818481,153.418337 125.389976,153.26155 Z" id="Fill-1"></path>
                        </g>
                        <path d="M60.472436,39.5681097 C60.472436,39.5681097 59.9946438,39.7502874 59.4548081,39.7902776 C55.5165012,40.081635 47.6926531,39.1815375 44.9302717,35.7823684 C43.9874438,34.6213823 43.5189291,33.1023885 43.0730283,31.6278283 C42.3708361,29.3045867 41.6686438,26.9800755 40.9670314,24.656199 C38.6238779,16.9019039 24.7806593,33.6394001 30.765819,39.3618109 C35.5820113,43.9670345 41.6083399,49.0470626 48.2927926,49.1206954 C50.7008888,49.1479903 53.0666562,48.4897385 55.4550376,48.1552171 C65.0961197,46.8044362 75.4927399,50.6187419 84.3011647,46.1220633 C87.5338003,44.471673 90.2422561,41.8202576 93.2841228,39.7807561 C98.6302933,36.1968702 105.339679,34.178316 108.641896,28.3448213 C109.180572,27.3945773 109.63807,26.3300756 110.476526,25.6915015 C111.314402,25.0529275 112.701971,25.1024392 113.138594,26.1136206 C113.334002,26.5655736 113.295152,27.0898899 113.291093,27.5894503 C113.251084,33.4413533 118.35314,37.5844676 120.732244,42.8250914 C121.00709,43.4300229 121.251785,44.090179 121.184523,44.7623956 C121.014628,46.4610281 119.145788,47.1472095 117.632972,47.5686938 C107.242731,50.4632244 98.7224887,58.3419335 90.4167895,65.7642463 C88.9521011,67.0731327 87.377822,68.4251832 85.5026034,68.6879761 C82.2496732,69.1443725 79.3869786,66.2219122 76.1311492,65.7915412 C71.7202686,65.2081917 68.016219,69.1742065 65.0856825,72.8304556 C63.8714872,74.3450061 62.6132236,75.9706405 62.3018469,77.9568216 C62.0200422,79.7589208 62.5656763,81.5851411 63.1820515,83.2844083 C66.4344019,92.252375 71.808405,100.086651 77.3581011,107.582596 C79.4762748,110.444119 81.7150561,113.35071 84.7087957,115.031569 C90.9966344,118.563404 98.9666034,115.864381 105.442312,118.962672 C101.435003,122.994067 100.455065,129.791136 102.027025,135.495139 C103.598985,141.200411 107.337245,145.917988 111.553298,149.685956 C116.539965,154.142644 122.160982,157.240934 128.236597,159.462614 C128.651766,159.614957 129.127819,159.760953 129.508197,159.523551 C130.02252,159.202995 130.038755,158.407633 129.955837,157.765885 C129.076213,150.960565 124.052436,145.03122 117.919416,143.559834 C116.922082,143.320527 115.705568,143.006953 115.422603,141.933565 C115.282281,141.399092 115.43536,140.829073 115.610473,140.307296 C117.660225,134.219895 122.935655,129.323949 122.983202,122.836011 C123.02785,116.831764 118.569422,112.084353 114.449624,108.121512 C111.090582,104.890556 107.31985,101.477422 102.849245,101.420293 C99.9906096,101.384111 97.2989693,102.748857 94.5673197,103.671171 C88.4934437,105.722733 80.6110313,104.841679 77.5714841,98.7301567 C74.8317166,93.2197576 77.4659523,86.1808432 81.4842779,81.7076509 C82.0055585,81.12811 82.6375895,80.5339695 83.379791,80.5726902 C84.4078561,80.62728 85.0108949,81.8028657 85.6440856,82.6915374 C87.4723368,85.2572594 90.8209414,86.070394 93.7335026,85.4197594 C96.645484,84.7691248 99.2002809,82.8965666 101.531838,80.8780124 C113.619286,70.4119991 123.303856,55.1611237 130.203431,40.2022404 C131.456476,37.4860789 132.659075,34.4880816 132.134895,31.4977014 C130.827924,24.047459 123.582762,19.6770986 117.90434,16.6556149 C113.252824,14.1806643 111.295267,12.1037117 108.655233,11.5647958 C106.620557,11.1496592 102.453211,10.7383311 93.5630282,15.4095703 C79.8931833,22.5919417 62.8266066,37.7088816 61.7579523,38.7333931 C61.6396639,38.8470161 61.1891244,39.293891 60.472436,39.5681097 Z" id="Fill-4" fill="#000000"></path>
                        <g id="Group-5" transform="translate(112.485347, 20.706546) rotate(5.000000) translate(-112.485347, -20.706546) translate(90.985347, 2.206546)">
                            <path d="M0.550150459,18.5450334 C6.98758921,14.589175 9.01514884,12.9594935 10.7743984,12.1019254 C15.4264946,9.83517783 29.4878909,14.4251496 30.9032924,15.7803739 C32.1308242,16.9572291 31.9864428,17.8998559 30.5565451,18.665383 C30.0926692,18.9137879 29.0482422,20.4750668 27.4232642,23.3492198 C20.6776403,26.9295079 15.8288415,28.678589 12.8768678,28.5964631 C5.66386782,28.3957928 -1.11597353,19.5687011 0.550150459,18.5450334 Z" id="Fill-6" fill="#C4C3C6"></path>
                            <path d="M19.1769533,14.9864154 C21.5850524,15.2117521 23.8048882,14.9984729 25.8155555,14.5207628 C33.7058597,12.6461224 38.3750694,6.69937251 38.5598552,7.20669377 C39.0469,13.2597707 36.5928893,18.316708 31.1978232,22.3775056 C23.1052241,28.4687021 13.553649,31.0382723 10.6214695,28.2355614 C10.2338022,27.8650112 15.0604125,28.0332389 19.1769533,14.9864154 Z" id="Path-Copy-2" fill="#FFFFFF" transform="translate(24.609943, 18.271793) rotate(231.000000) translate(-24.609943, -18.271793) "></path>
                        </g>
                        <g id="Group-8" transform="translate(19.209385, 37.958599) rotate(-36.000000) translate(-19.209385, -37.958599) translate(6.709385, 22.958599)">
                            <path d="M5.91311894,0.316073486 C5.63325033,-0.099085857 14.6053964,4.20503689 18.2707993,7.86976579 C19.9525134,9.5509556 21.1745924,11.6244687 21.9537199,13.8459594 C23.1324214,17.2078823 24.4412555,20.5597574 24.7403103,24.2450387 C25.0339429,27.8595283 22.2702926,30.2737552 19.1079025,29.0218831 C16.7967968,28.107071 15.0612778,26.1623532 12.9437027,24.9022601 C12.3130599,24.2089577 11.6824171,23.5165688 11.0517742,22.8237231 C2.63819183,12.5831031 2.4999139,10.9011966 0.808709376,6.82530355 C0.0479679942,4.99187626 0.525537352,2.97224444 0.61405175,2.65355583 C0.732088731,2.22834863 0.654926747,1.69535528 1.0849484,1.47110529 C1.59004658,1.20803402 1.86157335,1.71682116 2.06636542,2.0511409 C3.31972631,4.0917701 7.29198356,10.4968247 7.70907537,10.0401037 C8.80310718,11.3362778 13.59226,17.4864514 14.5966171,18.8607248 C15.0474933,19.3000903 9.87878695,9.63773258 9.3774426,9.12666184 C8.78030083,8.22747163 6.9685076,4.1653842 6.17398901,1.91261953 C5.70820332,0.59193862 6.13956469,0.651977145 5.91311894,0.316073486 Z" id="Fill-8" fill="#C4C3C6"></path>
                            <path d="M18.377072,8.06113524 C20.0401205,9.7626541 21.2486354,11.8612403 22.0191152,14.1095934 C22.9547538,16.8408303 23.9733093,19.565515 24.4917676,22.4634282 C22.617633,21.7910883 18.6950389,14.0913275 14.5319735,9.7954734 C11.8113475,6.98806796 6.9648463,3.73626621 6.69518745,3.32406236 C6.33854365,2.39746068 5.54233786,-0.0900804858 6.49785828,0.0046112996 C8.94189994,0.24681509 15.771158,5.39459895 18.377072,8.06113524 Z" id="Path" fill="#FFFFFF"></path>
                            <path d="M10.2969237,10.196846 C12.5297104,12.2261511 14.9056905,13.9289309 16.849894,16.6072684 C17.7419118,17.8359503 18.3797052,19.3596787 18.775318,20.9973259 C19.2557225,22.9866975 19.7817064,24.9704557 20.0311697,27.0859138 C19.0108757,26.6124286 16.9514664,21.0167837 14.7189431,17.9143571 C13.2599555,15.8868745 10.6397763,13.5551926 10.4967861,13.256221 C9.84035811,10.8563751 10.1616211,11.391439 9.96153782,11.2369469 C9.44606454,10.8394011 9.33843814,10.2090059 9.47130179,9.47892145 C9.6838633,9.83548647 10.0288172,9.95319299 10.2969237,10.196846 Z" id="Path-Copy-66" fill="#FFFFFF" transform="translate(14.725259, 18.282418) rotate(169.000000) translate(-14.725259, -18.282418) "></path>
                        </g>
                        <path d="M115.469165,138.047404 C114.645785,139.852677 113.711655,141.384366 113.873432,143.600967 C113.959249,144.784804 115.272521,148.855178 114.71529,149.178274 C114.600481,149.244924 111.151361,146.897567 109.989495,145.924027 C102.295433,139.477094 102.237103,133.826213 102.237103,133.826213 C101.215416,127.538226 102.873899,124.077629 103.744913,120.797181 C105.295037,120.921688 109.753493,121.373555 112.824844,121.509532 C113.791349,121.734115 123.481666,123.438953 119.092736,130.810059 C119.021146,130.930293 116.527495,135.727859 115.469165,138.047404 Z M110.553089,117.758348 C107.567775,118.638979 105.508286,118.015578 101.970909,117.49067 C99.2073678,117.079977 97.6627552,105.233232 100.782901,102.940459 C103.490777,100.949834 103.618294,101.40874 106.134821,102.95249 C107.752125,103.944977 112.171941,106.413687 115.540544,109.90222 C117.251111,111.673686 118.720511,113.678462 119.823478,115.480454 C119.539535,115.393012 119.227509,115.346332 118.884771,115.346332 C115.000611,115.346332 111.706156,116.357478 110.553089,117.758348 Z" id="Shape" fill="#C4C3C6"></path>
                        <path d="M115.245023,118.558536 C115.060167,118.533017 108.691655,118.203872 108.525768,118.133457 C105.432871,116.8206 106.822051,103.611223 108.983669,104.770047 C110.406783,105.533243 117.14988,109.775289 120.244077,113.568423 C123.338273,117.361556 122.732585,119.208265 123.117971,122.631646 C121.573286,121.131689 119.966424,120.148122 118.525583,119.51747 C117.248751,118.958604 116.102296,118.67688 115.245023,118.558536 Z" id="Shape" fill="#FFFFFF"></path>
                        <path d="M105.510504,129.503143 C112.142331,134.967487 114.646187,139.093004 113.022071,141.879694 C110.585898,146.059729 112.291324,149.688607 112.024539,149.809851 C111.979483,149.830185 109.599613,147.6612 108.018635,145.700802 C101.600234,137.742041 105.662133,129.278379 105.510504,129.503143 Z" id="Path" fill="#FFFFFF" transform="translate(108.941317, 139.654307) rotate(-13.000000) translate(-108.941317, -139.654307) "></path>
                        <path d="M112.367641,37.1826851 L121.810518,33.4980445 C125.517846,31.9707859 128.681831,31.2801423 131.302475,31.4261137 C130.650927,35.6690521 124.226535,50.4244104 116.920553,61.6557476 C111.711943,69.6628365 104.913206,76.1408698 104.624732,74.5516385 C104.169548,72.0439808 108.606438,60.4819113 107.116356,46.3047305 C107.006874,45.2630768 108.757302,42.222395 112.367641,37.1826851 Z" id="Fill-12" fill="#C4C3C6"></path>
                        <path d="M125.408307,157.936477 C120.652419,156.430813 118.503552,150.096014 117.361257,146.164912 C116.957685,144.776045 117.770628,144.31584 119.055564,144.974091 C123.82131,147.418573 128.322189,151.704298 129.378087,157.634278 C129.494056,158.287451 126.303588,158.220217 125.408307,157.936477 Z" id="Fill-14" fill="#C4C3C6"></path>
                        <path d="M79.6632168,82.9555998 C79.6603175,82.9594084 79.6574183,82.963217 79.6545191,82.9670256 C79.6527796,82.9701994 79.65104,82.9727385 79.6493005,82.9765471 L79.6632168,82.9555998 Z" id="Fill-16" fill="#D796A0"></path>
                        <path d="M90.4962282,78.2989602 C90.1425228,75.6684921 88.6447833,71.9386101 86.0018499,70.3497921 C84.5203461,69.4592162 83.9028112,69.97655 80.1332391,68.3185426 C79.1544608,67.8888064 78.7305941,67.7631228 77.8428515,67.3581424 C74.168374,65.6798225 71.1282469,66.5583379 68.3757228,69.5576048 C66.6715585,71.4136591 64.7545911,73.0373892 63.3142562,75.1809922 C61.9400236,77.2674663 62.1087585,79.4275733 62.8277663,81.7565278 C64.5623596,87.3707389 76.6833988,106.549064 82.0950329,113.177302 C83.4328409,114.815866 85.0299998,114.881471 85.1807895,114.722438 C86.0621538,113.793776 84.9517507,113.084743 84.5522375,112.333181 C81.9006065,107.354081 78.8923709,102.617461 76.3833817,97.5355281 C75.3883678,95.5214172 74.9940732,93.6361638 75.099605,91.8467599 C75.1761445,90.5492992 76.1995709,88.6570633 78.1571275,84.8656091 C79.1689569,82.9048186 79.8317197,81.7622407 80.7832453,80.5060398 C81.0401166,80.1658055 81.8524794,79.1120948 83.1026251,77.9669779 C83.1026251,77.9669779 84.8630344,76.353404 86.742312,75.9452498 C87.1522623,75.8557479 87.5314809,75.8373397 87.6857197,76.0620467 C87.7309476,76.1280623 87.8214034,76.3083357 87.658467,76.7977399 C87.3807213,77.6286479 86.7434716,78.0666361 86.5973507,78.278013 C85.4643337,79.9112646 85.1222251,81.404233 85.5246375,82.5982268 C85.9745972,83.9331386 87.2902654,84.4752284 88.9103523,85.1233239 C90.2735678,85.6679527 92.1766189,86.0767417 92.3801445,85.5841637 C92.4827771,85.3340661 92.1134158,84.9405115 91.9348236,84.727865 C90.4869507,83.0070158 90.7803523,80.4114598 90.4962282,78.2989602 Z" id="Fill-18" fill="#C4C3C6"></path>
                        <path d="M85.9684509,74.3553527 C83.0693301,72.8244505 76.543071,81.9160444 75.5312416,83.8768349 C74.1603272,86.532063 63.5535272,84.1055365 62.8277663,81.7565278 C62.1087585,79.4275733 61.9400236,77.2674663 63.3142562,75.1809922 C64.7545911,73.0373892 66.6715585,71.4136591 68.3757228,69.5576048 C71.1282469,66.5583379 74.168374,65.6798225 77.8428515,67.3581424 C78.7305941,67.7631228 79.1544608,67.8888064 80.1332391,68.3185426 C83.9028112,69.97655 84.5203461,69.4592162 86.0018499,70.3497921 C86.0156109,70.3580646 86.0293408,70.3663952 86.0430397,70.3747833 C86.7362877,72.0787376 87.1209047,72.407599 87.1281408,74.3553527 L85.9684509,74.3553527 Z" id="Shape" fill="#FFFFFF"></path>
                        <path d="M58.3098423,38.2149249 C58.9640996,39.0701639 61.4308077,44.8406344 60.6699491,46.2400125 C59.4995569,48.3926086 54.5592379,46.0937488 53.7710843,45.5591897 C52.893199,46.1069923 54.3120796,47.2686131 53.3385199,47.6983493 C52.4513571,48.0912692 51.8691928,47.3111424 51.4267711,46.6643164 C50.5140951,45.3268655 49.6211339,43.9545025 48.8841509,42.497081 C48.199354,41.1424915 47.7273602,39.6590445 46.9439897,37.6855587 C49.1190975,38.4213822 56.8740838,36.3381149 58.3098423,38.2149249 Z" id="Fill-22" fill="#C4C3C6"></path>
                        <path d="M57.9150677,37.8740223 L57.9616296,38.0436197 C58.3054572,39.2814085 58.4632317,40.3902751 58.1829154,40.9058355 C57.0125232,43.0584315 52.0722042,40.7595717 51.2840505,40.2250126 C50.4061652,40.7728152 51.8250459,41.934436 50.8514862,42.3641723 C49.9643234,42.7570921 49.382159,41.9769653 48.9397373,41.3301393 C48.4449871,40.6051239 47.9560301,39.8698492 47.494573,39.1163271 C47.3264158,38.6684562 47.1455051,38.1932212 46.9439897,37.6855587 C48.9654146,38.3693924 55.8060781,36.6184292 57.9150677,37.8740223 Z" id="Combined-Shape" fill="#FFFFFF"></path>
                        <path d="M40.1956057,46.0992752 C39.4881948,44.8583087 37.6060181,44.1232503 38.634663,41.9904383 C39.9497514,42.4360436 39.274232,44.3314533 40.8299561,44.6875568 C41.0300026,43.517684 40.0807964,41.078915 42.7944708,41.8825281 C43.489125,42.0875574 43.792384,40.8795987 43.493184,39.9141204 C43.1632522,38.8489839 42.9574072,37.7375095 43.0014754,36.494004 C43.957406,38.522281 44.1456753,36.603823 45.0977017,38.6346453 C45.8371048,40.2119087 47.3448754,45.7359262 48.0612026,47.3256421 C48.2444336,47.7325268 47.6483529,47.8893139 47.2610165,47.9077221 C45.1155902,46.3227127 42.4865731,47.0044508 40.1956057,46.0992752 Z" id="Fill-24" fill="#C4C3C6"></path>
                    </g>
                </g>
                <g id="Group-96" transform="translate(24.444100, 0.000000)">
                    <g id="Group-93" transform="translate(121.332676, 121.484670) rotate(20.000000) translate(-121.332676, -121.484670) translate(27.832676, 26.484670)">
                        <g id="Group-94" transform="translate(0.216661, 0.354239)">
                            <g id="Group-22" transform="translate(29.370474, 146.230076)">
                                <path d="M21.7573208,37.395909 C33.1587697,36.6037842 42.122288,28.8994195 41.7778994,20.1877288 C41.4335107,11.4760382 31.9116281,5.05596161 20.5101792,5.84808645 C9.10873035,6.64021128 0.145211992,14.344576 0.489600624,23.0562666 C0.833989256,31.7679573 10.3558719,38.1880338 21.7573208,37.395909 Z" id="Oval" fill="#000000"></path>
                                <path d="M21.5755139,31.7011954 C32.0023818,31.0604762 40.1677709,24.1152695 39.8134208,16.188642 C39.4590707,8.26201442 30.7191666,2.35561866 20.2922986,2.99633779 C9.86543068,3.63705691 1.7000416,10.5822636 2.0543917,18.5088912 C2.4087418,26.4355187 11.1486459,32.3419145 21.5755139,31.7011954 Z" id="Oval-Copy" fill="#C4C3C6" transform="translate(20.933906, 17.348767) rotate(8.000000) translate(-20.933906, -17.348767) "></path>
                            </g>
                            <path d="M115.735075,146.66682 C135.419975,132.656404 145.133211,122.553471 152.886561,111.31257 C167.329766,90.3726392 173.021526,75.0917304 169.961842,65.4698437 C169.768195,52.9125901 164.991933,42.9798502 155.633057,35.671624 C149.764578,31.0890049 138.909989,25.5868334 123.069289,19.1651096 C108.376183,14.0491329 96.7862026,13.1218084 88.2993478,16.3831361 C63.5479937,25.8945836 47.0263572,40.0571844 47.0181622,57.2031094 C47.0170551,59.5193099 31.2012665,67.2272244 29.2150778,83.2694716 C26.0763836,108.62039 29.5550119,131.207485 20.4826526,143.575948 C15.9928403,149.696966 14.4072674,153.804726 15.462682,157.665392 C16.0839282,159.937886 16.7593208,159.083883 19.1569891,161.545357 C40.8777042,152.82058 52.6703238,176.779159 78.3056959,173.216727 C103.941068,169.654294 96.0501757,160.677236 115.735075,146.66682 Z" id="Oval" fill="#000000" transform="translate(92.956280, 94.029794) rotate(-12.000000) translate(-92.956280, -94.029794) "></path>
                            <path d="M122.915026,24.2059914 C152.29111,30.1572977 162.695387,41.5775338 154.127856,58.4666997 C141.27656,83.8004485 165.229887,62.34955 152.15789,93.7514525 C147.479714,104.989493 144.813199,95.6190438 123.93309,119.945949 C103.05298,144.272855 109.678944,168.679455 86.1879042,170.61147 C79.7239671,171.143095 65.181348,169.593455 53.4931672,166.565229 C41.8049865,163.537004 36.4920215,172.272951 35.1170082,170.579591 C30.4291028,164.806329 44.6910166,148.116959 42.1969908,140.952271 C36.594697,124.858338 35.5416298,107.15325 34.6094163,96.3696149 C33.3684444,82.014335 45.7323334,72.3622024 45.3040454,70.3425195 C42.8814828,58.9184123 51.807287,45.209175 64.9963876,33.6304598 C69.3243719,29.8309212 80.3082346,27.9257608 89.3022676,24.646986 C109.357845,23.7789268 120.562098,23.6319286 122.915026,24.2059914 Z" id="Path" fill="#C4C3C6"></path>
                            <g id="Group-28" transform="translate(37.397276, 49.997472)">
                                <path d="M43.2018366,76.218459 C51.0910488,76.1724218 60.7604908,80.1179107 61.9582369,81.3270534 C52.2467331,83.137751 31.1490429,100.321999 24.8865442,101.950161 C40.3086626,91.7458822 35.3126244,76.2644962 43.2018366,76.218459 Z" id="Path-Copy-77" fill="#000000" transform="translate(43.422391, 89.084110) scale(-1, -1) rotate(-4.000000) translate(-43.422391, -89.084110) "></path>
                                <path d="M24.511718,100.575356 C32.0555988,101.424028 39.7869988,99.5104754 45.2819451,90.3139873 C47.9100944,85.9154468 64.4355736,67.1493816 67.6559027,65.8484016 C50.8524428,64.6857345 55.0826764,77.1871827 22.9840276,80.4159435 C21.3933663,80.575946 19.052839,85.6981336 14.8909954,88.4665829 C13.7802497,89.2054485 13.1024579,73.5931411 9.85703151,77.3447568 C6.61160515,81.0963725 9.89640953,98.9311634 24.511718,100.575356 Z" id="Path-Copy-69" fill="#FFFFFF" transform="translate(38.184164, 83.264675) rotate(7.000000) translate(-38.184164, -83.264675) "></path>
                                <path d="M13.9169823,79.2235998 C20.1063652,80.3131595 37.3894741,75.3193287 45.3623546,73.243934 C50.039309,72.0264911 65.3131198,66.2250152 68.6099493,66.1611245 C55.4456796,63.5158727 58.5517041,68.2882608 30.6368608,65.2767669 C28.8843353,65.0877019 27.1262436,65.495283 23.5763131,66.9919437 C23.0970887,67.193986 21.7949163,65.4902806 19.6136767,65.5052708 C14.2434625,65.5421765 8.79344174,68.9124904 5.35557091,68.9221114 C3.18837368,68.9281763 6.69113033,71.2305533 8.09402545,72.4577311 C10.65999,74.7022999 13.7008374,76.7908811 13.4089178,77.7247221 C12.6244619,80.2341704 8.93932806,78.3473491 13.9169823,79.2235998 Z" id="Path-Copy-71" fill="#FFFFFF" transform="translate(36.637634, 72.305394) rotate(7.000000) translate(-36.637634, -72.305394) "></path>
                                <path d="M22.5576831,94.3233746 C29.7908103,95.9157222 36.6664318,92.2674366 43.2150828,85.7727111 C47.056573,81.9628541 65.0569875,66.1437871 68.4870489,65.3511341 C51.8354327,65.364778 56.0177999,70.6074023 34.7954171,71.2452727 C33.2246172,71.2924854 24.1196592,70.7877368 22.0845085,67.6247003 C22.0854448,69.3460808 22.5945861,70.7869036 23.6115472,71.2391627 C20.5618923,72.1409037 19.1635209,72.8637617 13.635935,72.2101383 C8.10834912,71.5565149 7.17313381,69.7151119 2.01760438,67.5960791 C5.32016486,70.8866508 8.00422407,77.9940506 9.12913747,81.9027452 C11.0441141,88.556643 12.0746962,92.0155818 22.5576831,94.3233746 Z" id="Path-Copy-10" fill="#000000" transform="translate(35.252327, 80.023123) rotate(7.000000) translate(-35.252327, -80.023123) "></path>
                                <path d="M68.1338378,65.8639684 C72.2429536,66.9144775 72.836666,70.575255 73.1831536,73.4073442 C70.6772127,71.0291635 69.9010662,70.2340523 67.062441,69.9268124 C64.2238158,69.6195726 62.9722553,70.8375436 60.7903314,72.0660016 C61.8058359,68.8674304 64.024722,64.8134593 68.1338378,65.8639684 Z" id="Path-Copy-70" fill="#000000" transform="translate(66.986742, 69.551002) scale(-1, 1) rotate(-75.000000) translate(-66.986742, -69.551002) "></path>
                                <path d="M100.164363,20.4147102 C107.781793,19.2485764 109.461212,22.3948787 121.333758,1.95873741 C124.762379,-3.94292695 125.083212,5.83487529 123.267156,18.3305869 C121.246227,32.2359707 114.54156,54.1966969 109.859736,60.3718739 C106.678348,64.5680228 69.4126876,90.6879166 92.6443792,60.2045305 C115.876071,29.7211445 102.604388,26.5041082 100.164363,20.4147102 Z" id="Path" fill="#000000"></path>
                            </g>
                            <path d="M64.2134947,105.642685 C68.5550156,107.376145 63.1596479,113.149857 59.9275699,114.459688 C59.4727286,111.288866 59.8719737,103.909225 64.2134947,105.642685 Z" id="Path-Copy-79" fill="#000000" transform="translate(62.808490, 109.921109) scale(-1, 1) rotate(-45.000000) translate(-62.808490, -109.921109) "></path>
                            <path d="M73.5151618,96.6645301 C79.8773121,99.4378965 71.2572781,107.854252 67.0646672,109.485176 C66.3939891,104.423197 67.1530114,93.8911637 73.5151618,96.6645301 Z" id="Path-Copy-81" fill="#000000" transform="translate(71.323538, 102.846066) rotate(-95.000000) translate(-71.323538, -102.846066) "></path>
                            <g id="Group-24" transform="translate(53.324900, 101.272493) rotate(6.000000) translate(-53.324900, -101.272493) translate(42.324900, 91.772493)">
                                <g id="Group-25" transform="translate(11.105617, 9.459259) rotate(5.000000) translate(-11.105617, -9.459259) translate(1.105617, 0.959259)">
                                    <path d="M16.1192611,4.16007304 C20.8280441,5.89738818 14.985872,11.6606461 11.4835336,12.9657492 C10.9865941,9.79665941 11.410478,2.4227579 16.1192611,4.16007304 Z" id="Path-Copy-86" fill="#000000" transform="translate(14.601315, 8.432212) rotate(-103.000000) translate(-14.601315, -8.432212) "></path>
                                    <path d="M5.78510862,4.37455263 C7.57456309,4.35680279 11.4578591,6.09158151 15.6224134,11.5032841 C12.2622833,8.06014782 6.42925086,5.25464185 1.49528839,12.4444892 C-0.196755851,6.37883092 2.79084569,4.40425312 5.78510862,4.37455263 Z" id="Path-Copy-83" fill="#000000" transform="translate(8.313319, 8.409454) scale(-1, 1) rotate(136.000000) translate(-8.313319, -8.409454) "></path>
                                    <path d="M7.20763881,8.48816908 C7.10734782,8.47726719 7.00640809,8.45919019 6.905189,8.43363146 C5.46737524,8.07057059 4.51766427,6.33532361 4.78395016,4.55784884 C5.04368013,2.82413532 6.3643356,1.69060625 7.76341733,1.97274244 C7.4407261,2.71495445 7.19489763,3.56896633 7.05557225,4.49897184 C6.8410707,5.93078293 6.9126115,7.31843982 7.20763881,8.48816908 L7.20763881,8.48816908 Z" id="Path" fill="#FFFFFF" transform="translate(6.251314, 5.208948) rotate(-16.000000) translate(-6.251314, -5.208948) "></path>
                                </g>
                            </g>
                            <g id="Group-20" transform="translate(72.189637, 132.799392) rotate(3.000000) translate(-72.189637, -132.799392) translate(38.438387, 113.121848)"></g>
                            <path d="M104.770042,75.9256159 C111.10406,75.8499541 118.648519,76.0929883 124.496757,80.5305914 C130.344995,84.9681945 125.326235,91.3967584 121.803405,94.0741828 C115.298608,99.0179659 111.097936,90.8294455 95.0943002,92.6182782 C80.0605877,94.2986961 91.0858492,76.0890779 104.770042,75.9256159 Z" id="Path-Copy-74" fill="#FFFFFF" transform="translate(107.529021, 85.799777) scale(-1, -1) rotate(179.000000) translate(-107.529021, -85.799777) "></path>
                            <path d="M82.5734456,66.50929 C76.2970526,72.4182359 65.1541673,30.892832 70.2123408,15.1729808 C73.2352454,5.77836238 79.3750498,-1.28425129 83.244425,3.3255101 C86.9576341,7.74922374 74.4221378,44.0733479 78.6618228,46.5811419 C78.7424915,46.6288578 79.2770094,46.1431553 80.2653766,45.1240342 C80.5774263,44.8022748 81.1472909,44.1999998 81.9749703,43.3172092 C85.7448108,39.3476506 89.642578,37.2210852 93.6682719,36.937513 C92.8035641,38.8496582 84.4615004,57.2846361 82.5734456,66.50929 Z" id="Path-Copy-89" fill="#000000" transform="translate(81.300285, 34.479239) scale(-1, 1) rotate(114.000000) translate(-81.300285, -34.479239) "></path>
                            <path d="M87.800357,39.6917115 C86.4220159,35.898718 82.2468231,34.6142724 79.0831659,35.8405374 C75.4250413,37.258463 71.6744428,38.9420689 67.9323785,40.955506 C45.4046939,53.0766439 60.8432601,34.3460466 70.257689,28.9288302 C77.6057922,24.7006114 88.7657711,22.3467862 98.0876103,21.7534359 C98.3454517,23.5505604 90.1219615,31.3283019 87.800357,39.6917115 Z" id="Shape" fill="#FFFFFF"></path>
                            <path d="M127.275619,63.1862242 C122.337074,69.3067456 98.194671,39.5128061 104.757758,21.1429184 C107.586824,13.2244464 121.218878,-8.55375691 116.261958,14.520148 C111.305037,37.594053 133.993359,58.7595234 127.275619,63.1862242 Z" id="Path-Copy-88" fill="#FFFFFF" transform="translate(116.082543, 34.110147) scale(-1, 1) rotate(112.000000) translate(-116.082543, -34.110147) "></path>
                            <path d="M48.5570222,77.0569682 C52.3489477,77.0112306 56.7636021,79.5486291 59.2410857,83.2297767 C60.6943971,85.3891668 61.1633485,88.9785648 45.377714,87.1394813 C44.386674,87.0240216 40.503231,87.1982765 38.7630093,86.1563692 C35.0330743,83.990594 42.2120592,77.1335 48.5570222,77.0569682 Z" id="Path-Copy-84" fill="#FFFFFF" transform="translate(48.822871, 82.351680) scale(-1, -1) rotate(157.000000) translate(-48.822871, -82.351680) "></path>
                            <path d="M71.1947257,84.7343554 C72.119346,86.1219833 74.0806357,88.5543227 71.4110916,89.9998449 C68.7415475,91.4453671 64.6558771,92.2596621 60.3721118,90.9715054 C56.0883465,89.6833486 57.679534,87.6158884 61.8403255,85.3031753 C64.945978,83.5769452 69.6998168,77.3117573 76.1018419,66.5076115 C78.7680317,59.0924502 80.5599942,54.6806559 81.4777293,53.2722286 C83.2143248,50.6071149 84.1156176,70.5439336 73.4427369,80.5020278 C73.2657874,80.6671266 70.2701054,83.3467276 71.1947257,84.7343554 Z" id="Path" fill="#FFFFFF"></path>
                            <path d="M52.37816,152.839666 C58.3406718,152.775392 65.4980109,155.376865 72.6061286,161.10204 C79.7142463,166.827215 65.1195548,166.442436 53.4138792,165.422275 C41.7082035,164.402114 41.8207872,170.733427 39.0825086,169.108784 C33.2134925,165.731492 42.4011929,152.947215 52.37816,152.839666 Z" id="Path-Copy-76" fill="#FFFFFF" transform="translate(55.860895, 161.107710) scale(-1, -1) rotate(186.000000) translate(-55.860895, -161.107710) "></path>
                            <path d="M109.036284,143.514703 C111.90707,143.48777 114.790087,145.687025 116.671067,148.295573 C117.774465,149.825767 119.888408,154.140168 121.081064,154.61532 C117.259147,153.506729 113.478129,150.790337 108.668428,150.760639 C103.73822,150.730197 97.802426,153.411644 95.8732942,154.332231 C97.6490211,149.596752 104.232647,143.559768 109.036284,143.514703 Z" id="Path-Copy-80" fill="#000000" transform="translate(108.477179, 149.064889) scale(-1, 1) rotate(-135.000000) translate(-108.477179, -149.064889) "></path>
                            <path d="M28.3725444,138.969118 C27.5647132,137.528052 43.0448212,149.575069 44.5917794,151.31562 C45.4992372,152.336641 46.8800014,156.348867 47.8610417,156.666076 C39.5378101,151.86952 32.8536017,153.305433 29.7182122,154.517948 C31.1796731,151.359209 31.1340438,143.895274 28.3725444,138.969118 Z" id="Path-Copy-78" fill="#000000" transform="translate(38.101530, 147.757905) scale(-1, 1) rotate(38.000000) translate(-38.101530, -147.757905) "></path>
                            <path d="M108.120511,55.7981808 C116.979972,55.7981808 124.207857,63.1639831 124.596556,72.4045472 C119.811087,70.308581 114.257598,69.1091336 108.334699,69.1091336 C102.230478,69.1091336 96.518631,70.3831442 91.6362789,72.5996699 C91.9315991,63.2679324 99.1987545,55.7981808 108.120511,55.7981808 Z" id="Combined-Shape-Copy-21" fill="#FFFFFF"></path>
                            <path d="M108.016904,66.6181035 C116.861491,66.6181035 124.162958,69.3993335 125.255206,72.997556 C120.445832,72.2212683 114.951681,71.7807609 109.116791,71.7807609 C102.330359,71.7807609 96.0048597,72.3766577 90.6828767,73.404618 C91.3273164,69.611078 98.8418086,66.6181035 108.016904,66.6181035 Z" id="Combined-Shape-Copy-24" fill="#FFFFFF"></path>
                            <path d="M59.2763309,68.229957 C65.5758254,68.229957 70.750031,70.8438286 71.3151416,74.1815041 C67.905637,73.4511022 63.9769104,73.035202 59.7949473,73.035202 C55.1676539,73.035202 50.8504021,73.5443955 47.2032271,74.424677 C47.5520327,70.9723001 52.8238834,68.229957 59.2763309,68.229957 Z" id="Combined-Shape-Copy-26" fill="#FFFFFF" transform="translate(59.259184, 71.327317) rotate(-4.000000) translate(-59.259184, -71.327317) "></path>
                            <path d="M63.9036249,55.985502 C70.6610801,55.985502 76.2583989,61.9917151 77.243615,69.8300555 C73.4411703,68.1216672 69.0925633,67.1520941 64.4728478,67.1520941 C59.3584437,67.1520941 54.5763186,68.3404326 50.5006192,70.4045862 C51.2774179,62.2872612 56.98191,55.985502 63.9036249,55.985502 Z" id="Combined-Shape-Copy-23" fill="#FFFFFF" transform="translate(63.872117, 63.195044) rotate(4.000000) translate(-63.872117, -63.195044) "></path>
                            <path d="M65.2686067,59.0333178 C70.517286,59.0341784 77.3303332,65.4820056 76.2320701,69.1628656 C75.4380302,71.8241128 67.8258433,71.33172 65.2584739,71.3312992 C59.1400899,71.3302964 53.4121597,72.5423031 48.5060447,74.6542142 C51.0916861,64.2388756 56.6792068,59.0319101 65.2686067,59.0333178 Z" id="Path-Copy-73" fill="#000000" transform="translate(62.427923, 66.843766) rotate(4.000000) translate(-62.427923, -66.843766) "></path>
                            <path d="M107.820919,59.4006066 C116.627981,59.4006066 123.863529,65.0350853 124.667553,72.234218 C119.867178,70.6229511 114.342652,69.7058604 108.463484,69.7058604 C102.033275,69.7058604 96.0273037,70.8029212 90.9306615,72.7040552 C91.4653582,65.2820098 98.8229467,59.4006066 107.820919,59.4006066 Z" id="Combined-Shape-Copy-19" fill="#000000"></path>
                            <path d="M54.3659707,69.8426863 C60.6306598,76.7353002 63.5209249,78.6560373 67.0233862,79.9911065 C70.5258476,81.3261757 73.7222108,82.9540789 78.2069852,81.5922425 C77.2033326,84.8952827 73.7537334,84.9165832 63.7204613,85.2752834 C53.6871891,85.6339836 48.2047672,80.20974 41.8708681,82.646733 C42.2473928,82.1055622 44.8769283,78.920539 53.7184398,79.8336737 C62.5599514,80.7468084 55.006851,76.8439341 54.3659707,69.8426863 Z" id="Path-Copy-82" fill="#000000" transform="translate(60.038927, 77.567544) rotate(-47.000000) translate(-60.038927, -77.567544) "></path>
                            <path d="M101.324461,73.9576436 C108.583962,75.2487045 113.763188,76.224263 116.862137,76.8843191 C100.277941,76.4868864 91.4694594,79.2829576 90.4366936,85.2725327 C90.056825,88.4145981 92.5258579,90.7932181 97.8437923,92.4083926 C104.674011,97.4355051 104.115364,100.323827 96.1678506,101.073359 C84.2465811,102.197657 82.3726049,106.314728 81.4933757,106.422939 C84.5911664,103.145906 84.6232591,98.9883729 83.0609284,95.256736 C81.4985977,91.5250991 79.3691326,90.3172553 74.247338,89.4997382 C74.5272916,89.8492171 81.8173069,86.7115668 84.4989353,82.2391228 C87.5274067,77.1882113 91.6385438,67.902088 92.2416735,68.1409045 C92.753644,68.3436254 90.4352085,72.0210522 101.324461,73.9576436 Z" id="Path-2" fill="#000000"></path>
                            <path d="M83.1716785,98.6490412 C81.9214116,91.5584253 76.3950477,90.9174696 74.6694279,89.6022006 C79.3078197,90.5570578 83.4828726,90.9496758 85.8138236,94.2839215 C88.287262,97.8219846 89.371677,103.404671 81.5856991,106.239764 C82.2810611,104.654938 83.9218387,102.903411 83.1716785,98.6490412 Z" id="Path" fill="#FFFFFF"></path>
                            <path d="M111.031507,48.9047316 C102.966594,49.9088204 100.558603,53.8100112 98.9069348,56.8313974 C104.440666,54.3591608 106.175318,53.5307961 111.598454,53.2850942 C117.02159,53.0393923 118.933348,54.379811 122.583171,55.7587161 C121.814779,52.3051303 119.096421,47.9006427 111.031507,48.9047316 Z" id="Path-Copy-70" fill="#000000" transform="translate(110.745053, 52.795385) rotate(2.000000) translate(-110.745053, -52.795385) "></path>
                            <path d="M69.3343517,49.1473944 C62.812508,50.1476696 60.8672727,54.0467056 59.5332092,57.0665163 C64.0071586,54.5973996 65.4095718,53.7700279 69.7953352,53.5267693 C74.1810985,53.2835106 75.7279688,54.6243881 78.680501,56.0045018 C78.0571235,52.5515541 75.8561954,48.1471192 69.3343517,49.1473944 Z" id="Path-Copy-93" fill="#000000" transform="translate(69.106855, 53.034784) rotate(25.000000) translate(-69.106855, -53.034784) "></path>
                        </g>
                        <g id="Group-91" transform="translate(62.139484, 65.098535) rotate(4.000000) translate(-62.139484, -65.098535) translate(47.788870, 55.222667)"></g>
                    </g>
                </g>
                <path d="M179.058346,132.113035 C185.898985,132.078946 196.947458,133.244659 205.101321,136.234612 C194.656017,137.545344 193.673619,139.217394 180.244211,138.685522 C166.814803,138.153649 164.725767,148.566821 158.875668,145.961531 C162.470574,136.113818 167.612024,132.170077 179.058346,132.113035 Z" id="Path-Copy-91" fill="#FFFFFF" transform="translate(181.988495, 139.246491) scale(-1, -1) rotate(-396.000000) translate(-181.988495, -139.246491) "></path>
            </g>
        </g>
    </g>
</svg>