<?xml version="1.0" encoding="UTF-8"?>
<svg width="400px" height="400px" viewBox="0 0 400 400" version="1.1" xmlns="http://www.w3.org/2000/svg" xmlns:xlink="http://www.w3.org/1999/xlink">
    <!-- Generator: Sketch 58 (84663) - https://sketch.com -->
    <title>Sparta</title>
    <desc>Created with Sketch.</desc>
    <g id="Sparta" stroke="none" stroke-width="1" fill="none" fill-rule="evenodd">
        <g id="Group" transform="translate(131.000000, 109.000000)">
            <path d="M105.219383,124.212371 C105.409231,125.145852 106.193784,129.008388 106.412121,130.208789 C106.875761,132.757851 107.145859,134.892505 107.229225,137.06581 C107.235172,137.227109 107.235172,137.227109 107.236255,137.276741 C107.529252,144.543607 106.016391,159.451359 102.697674,182 L97.9069881,179.605263 L90.5986047,174.815789 L89.8604651,181.256389 C76.346927,182.448361 58.9568062,177.874243 46.3326428,163.250215 C41.2815058,157.408606 38.8938602,151.058048 37.6297484,142.76975 C37.4181637,141.38247 37.2890262,140.378366 37.0307864,138.179753 C27.9734673,138.602243 19.8964797,132.094605 19.8919133,132.088212 L13.2325896,122.765474 L18.1146761,118.13589 L0.0723718903,121.550579 L0.00545131606,109.086803 C-0.199668027,70.8838786 5.34707336,45.8892867 22.8754295,23.4984933 C42.1414855,-1.10246596 73.205928,-6.87732275 100.930687,8.49806956 C121.978969,20.1605899 136.538711,42.7832371 137.447228,65.9061802 L138,79.9749431 L124.232323,76.3075395 C124.965199,76.5027614 115.318976,73.8056123 113.25694,73.3633094 C112.942782,73.2959233 112.637609,73.234137 112.319005,73.1737102 C111.004871,72.9219062 110.074846,72.7119376 107.791872,72.1727059 C107.107516,72.0110628 106.741431,71.9253098 106.342237,71.8338162 C103.068482,71.0834848 101.380613,70.9075804 100.510184,71.0853761 C99.6269481,71.2671873 98.759625,71.4139482 97.9069881,71.5260355 C108.81386,85.5535417 111.700885,107.633475 105.219383,124.212371 Z" id="Path" fill="#000000" fill-rule="nonzero"></path>
            <path d="M127,66.567109 C122.146749,65.2778666 120.754996,65.157377 115.474772,64.1484047 C111.954623,63.4757565 103.172187,63.0604703 89.1274619,62.9025463 C87.0757983,58.9367048 84.285148,55.3515733 80.7555107,52.147152 C78.1962674,49.979061 75.044372,48.3187567 71.9436173,47.003758 C58.0385543,40.4874785 42.735602,43.8656089 35.3774469,57.290546 C29.385603,68.2210794 26.253229,85.5321974 24.8015234,97.8080272 C24.4457132,100.722836 24.4884104,103.693699 24.3033891,107.547413 L11.0058721,109 C10.8493156,79.9219786 13.724262,53.1141448 31.6001669,30.3422003 C47.7112532,9.82643002 73.0022428,5.42618967 95.9591174,18.1224246 C113.635769,27.8898371 126.23145,47.060311 127,66.567109 Z" id="Path" fill="#FFFFFF" fill-rule="nonzero"></path>
            <path d="M115.094583,64.8639075 C111.587244,64.1869927 102.836767,63.7690723 88.8431517,63.6101465 C86.7989543,59.6191494 84.0184593,56.0112772 80.5016666,52.78653 C77.9517365,50.6046866 74.8113111,48.9338508 71.7218401,47.610511 C57.8673784,41.0528983 42.6201144,44.4524564 35.288736,57.9625489 C31.1647242,65.5610885 28.4002389,76.2236506 26.6081243,86.1633398 C24.8574888,93.845108 23.7068785,101.81315 22.9937235,108.358657 C22.981642,108.46608 22.9700562,108.573578 22.9589373,108.681193 L11.0058507,110 C10.9696901,103.216427 11.0958487,96.5556263 11.5328975,90.0397354 C13.5857504,72.1136584 18.4782557,55.4239627 29.2972164,40.4648894 C44.2349196,19.818986 67.6839465,15.3908346 88.9688539,28.1676027 C102.01807,35.993804 112.080828,49.8188303 116,65.0372177 C115.71105,64.9823601 115.409769,64.9247384 115.094583,64.8639075 Z" id="Path" fill="#C4C3C6" fill-rule="nonzero"></path>
            <path d="M44.1730619,102.927725 L50.6549342,119.414634 L50.6549342,102.085366 L54.4138573,106.268293 L54.4138573,98.286909 C66.2785603,92.2823644 76.9977069,84.4646703 86.2205549,74 C95.2532319,82.317627 100.285473,97.5845833 98.715451,110.650407 C98.1725154,115.168749 95.692707,119.365012 93.8825498,123 C94.9134729,128.890831 96.170135,128.607691 96.2990004,132.95935 C95.4935169,134.32156 93.0770663,137.739837 90.5961771,141.723577 C87.0452196,134.32156 85.0750848,134.321547 87.437617,125.772146 C87.7526212,124.610771 84.9605378,122.050149 83.142104,120.986721 C76.1547361,116.970882 69.1244132,118.258189 60.9199834,121.37851 C65.1295861,125.884086 70.2126098,126.807589 74.5797147,128.766535 C78.5315867,130.543579 81.9536787,132.75439 82.0252706,137.315936 C82.2257279,148.845733 82.0968625,160.403515 82.0968625,171.919319 C72.1599091,172.786852 63.7550219,166.616172 54.0042074,155.436187 C45.814096,146.061231 48.2768568,134.279569 45.0838588,124.932598 C37.3519354,122.302013 37.3519354,128.766535 31.1377599,128.110321 C24.9235844,127.454106 23.9593312,124.798734 23,123.469449 C29.7869105,119.691482 33.7723412,115.809506 31.1377599,107.553948 C35.5940414,106.171642 39.9436931,104.640387 44.1730619,102.927725 L44.1730619,102.927725 Z" id="Path" fill="#C4C3C6" fill-rule="nonzero"></path>
            <path d="M80,80.6677172 C82.2374514,78.5721268 84.4029783,76.3526872 86.4925966,74 C87.9697633,75.3497371 89.3411991,76.8817272 90.5957903,78.5571858 C93.5771728,87.0614361 96.6617636,98.6677681 95.8757682,106.399917 C94.503726,119.897242 93.6477993,122.243805 93.5438106,122.756651 C93.3000788,123.958677 94.2954777,125.527235 95.1498379,126.961725 C95.4384365,127.853547 95.7154766,128.513619 95.9535728,129.158943 C95.5060297,131.602943 91.8890516,138.128221 91.5367835,137.998081 C91.2607908,137.89612 89.7316307,134.916141 88.7573656,131.879368 C88.261488,130.333723 88.671328,126.942272 88.7573656,126.690334 C89.1520359,125.534649 90.1831382,123.687974 90.5546029,122.756651 C90.7342531,122.306239 92.9296389,108.256419 89.4020285,97.9999383 C87.4768246,92.4024333 82.7426901,84.9785577 80,80.6677172 L80,80.6677172 Z" id="Path" fill="#FFFFFF" fill-rule="nonzero"></path>
            <path d="M45,125.566379 C37.2974369,122.765456 37.2974369,129.648577 31.1068585,128.94987 C24.91628,128.251163 23.9556884,125.423847 23,124.008487 C23.5622651,123.673962 24.1052292,123.338671 24.6267047,123 C25.3492839,124.287474 26.2905155,124.610934 28.3044918,125.179473 C33.3108717,126.592757 43.8630466,119.691109 45,125.566379 L45,125.566379 Z" id="Path" fill="#FFFFFF" fill-rule="nonzero"></path>
            <path d="M81.9692902,144 C82.0437206,153.31524 81.9594557,162.640141 81.9594557,171.937559 C76.0345624,172.455466 71.4463752,169.699305 66,165.613797 C74.7928699,166.822553 74.0039153,167.928823 76.5583516,164.605452 C79.6915294,160.529127 79.3901763,148.463401 81.9692902,144 Z" id="Path" fill="#FFFFFF" fill-rule="nonzero"></path>
            <path d="M83,72.2032888 C72.0461384,81.7310681 48.2702614,94.5362615 33.1469463,98 C32.3351076,93.0380149 34.9026276,82.9471131 40.4654586,76.3092416 C42.0629436,74.4030359 45.8900756,69.1262763 52.4463556,66.1400807 C56.3189958,64.3762053 62.9887099,63.9970102 65.7236135,64 C73.0886384,64.0081169 79.4293205,67.0620526 83,72.2032888 Z" id="Path" fill="#FFFFFF" fill-rule="nonzero"></path>
            <path d="M78,75.7164643 C65.958787,84.6853152 46.2749215,94.9416703 33.1461757,98 C32.6979775,95.2137589 33.2852036,90.8291651 34.8425479,86.3305009 C35.5934,85.0661622 36.4255018,83.8579331 37.3371986,82.7436855 C38.9519372,80.7702019 42.820404,75.3072037 49.4474949,72.2156129 C53.3619613,70.3894831 60.1037114,69.9969046 62.8681532,70 C68.9075543,70.0068207 74.2655285,72.0889129 78,75.7164671 L78,75.7164643 Z" id="Path" fill="#C4C3C6" fill-rule="nonzero"></path>
            <path d="M92.2769231,148.456522 L97.9640499,138.804348 C99.32135,136.65942 100,138.804348 100,145.23913 C100,151.673913 99.5777602,161.594203 98.7332807,175 L90,164.543478 L92.2769231,148.456522 Z" id="Rectangle" fill="#C4C3C6"></path>
            <path d="M100,145.143303 C100,151.598805 99.5777602,161.551037 98.7332807,175 L90,164.509809 L90.725143,164.025646 L97.1948191,172.095024 C98.0392987,158.646061 98.4615385,148.693829 98.4615385,142.238327 C98.4615385,140.327364 98.5363886,139.407495 98.4174507,138.203638 C99.5620297,137.327016 100,139.21521 100,145.143303 Z" id="Path" fill="#FFFFFF"></path>
        </g>
    </g>
</svg>