<?xml version="1.0" encoding="UTF-8"?>
<svg width="720px" height="600px" viewBox="0 0 720 600" version="1.1" xmlns="http://www.w3.org/2000/svg" xmlns:xlink="http://www.w3.org/1999/xlink">
    <!-- Generator: Sketch 59.1 (86144) - https://sketch.com -->
    <title>Group 2</title>
    <desc>Created with Sketch.</desc>
    <g id="Joystream---Website" stroke="none" stroke-width="1" fill="none" fill-rule="evenodd">
        <g id="Network-Announced" transform="translate(-719.000000, 0.000000)">
            <g id="Group-2" transform="translate(719.000000, -1.000000)">
                <g id="Group">
                    <g id="Group-Copy-11" transform="translate(360.000000, 300.500000) scale(1, -1) translate(-360.000000, -300.500000) ">
                        <path d="M586.660142,320.610133 L580.006762,320.610133 L580.006762,327.263467 L586.660142,327.263467 L586.660142,333.933333 L580.006762,333.933333 L580.006762,340.6032 L586.660142,340.6032 L586.660142,347.256533 L593.330071,347.256533 L593.330071,353.9264 L586.660142,353.9264 L586.660142,347.273067 L580.006762,347.273067 L580.006762,353.9264 L586.660142,353.9264 L586.660142,360.6 L579.990214,360.6 L579.990214,353.930133 L573.336833,353.930133 L573.336833,347.2768 L566.666904,347.2768 L566.666904,353.930133 L559.996975,353.930133 L559.996975,347.2768 L553.343594,347.2768 L553.343594,353.930133 L559.996975,353.930133 L559.996975,360.6 L553.326512,360.6 L553.326512,353.930133 L546.673665,353.930133 L546.673665,360.6 L540,360.6 L540,353.930133 L546.669929,353.930133 L546.669929,347.2768 L540,347.2768 L540,340.6064 L546.669929,340.6064 L546.669929,333.936533 L540,333.936533 L540,327.266667 L546.669929,327.266667 L546.669929,320.613333 L546.669929,320.5968 L553.32331,320.5968 L553.32331,313.943467 L559.993238,313.943467 L559.993238,320.5968 L566.663167,320.5968 L566.663167,313.943467 L573.33363,313.943467 L573.33363,320.5968 L579.987011,320.5968 L579.987011,313.943467 L586.65694,313.943467 L586.65694,320.5968 L593.326868,320.5968 L593.326868,327.266667 L586.65694,327.266667 L586.65694,320.610133 L586.660142,320.610133 Z M546.669929,320.5936 L546.669929,313.939733 L540,313.939733 L540,320.610133 L546.669929,320.610133 L546.669929,320.5936 Z M566.663167,353.930133 L566.663167,360.6 L573.33363,360.6 L573.33363,353.930133 L566.663167,353.930133 Z M586.660142,340.6064 L586.660142,333.936533 L593.330071,333.936533 L593.330071,340.6064 L586.660142,340.6064 Z M553.32331,347.260267 L546.669929,347.260267 L546.669929,340.6064 L553.32331,340.6064 L553.32331,347.260267 Z M553.339858,313.939733 L553.339858,307.269867 L559.993238,307.269867 L559.993238,313.939733 L566.663167,313.939733 L566.663167,307.269867 L573.33363,307.269867 L573.33363,313.939733 L580.003559,313.939733 L580.003559,307.269867 L586.65694,307.269867 L586.65694,313.939733 L593.326868,313.939733 L593.326868,307.269867 L586.65694,307.269867 L586.65694,300.6 L579.987011,300.6 L579.987011,307.269867 L573.33363,307.269867 L573.33363,300.6 L566.663167,300.6 L566.663167,307.269867 L559.993238,307.269867 L559.993238,300.6 L553.32331,300.6 L553.32331,307.269867 L546.669929,307.269867 L546.669929,300.6 L540,300.6 L540,307.269867 L546.669929,307.269867 L546.669929,313.939733 L553.339858,313.939733 Z M579.987011,327.263467 L579.987011,333.933333 L573.33363,333.933333 L573.33363,327.263467 L579.987011,327.263467 Z M566.663167,327.263467 L566.663167,320.610133 L573.33363,320.610133 L573.33363,327.263467 L566.663167,327.263467 Z M559.993238,327.263467 L566.663167,327.263467 L566.663167,333.933333 L559.993238,333.933333 L559.993238,327.263467 Z M559.993238,327.263467 L553.339858,327.263467 L553.339858,320.610133 L559.993238,320.610133 L559.993238,327.263467 Z M559.993238,340.6064 L553.339858,340.6064 L553.339858,333.936533 L559.993238,333.936533 L559.993238,340.6064 Z M566.663167,340.6064 L566.663167,347.260267 L559.993238,347.260267 L559.993238,340.6064 L566.663167,340.6064 Z M573.336833,340.6064 L566.666904,340.6064 L566.666904,333.936533 L573.336833,333.936533 L573.336833,340.6064 Z M573.336833,340.6064 L579.990214,340.6064 L579.990214,347.260267 L573.336833,347.260267 L573.336833,340.6064 Z M553.32331,333.936533 L553.32331,327.266667 L546.669929,327.266667 L546.669929,333.936533 L553.32331,333.936533 Z M600,353.930133 L593.330071,353.930133 L593.330071,360.6 L600,360.6 L600,353.930133 Z M593.330071,340.6064 L600,340.6064 L600,347.2768 L593.330071,347.2768 L593.330071,340.6064 Z M600,327.263467 L593.330071,327.263467 L593.330071,333.933333 L600,333.933333 L600,327.263467 Z M593.330071,313.939733 L600,313.939733 L600,320.610133 L593.330071,320.610133 L593.330071,313.939733 Z M593.330071,300.6 L600,300.6 L600,307.269867 L593.330071,307.269867 L593.330071,300.6 Z" id="Shape-Copy-10" fill="#4038FF"></path>
                        <path d="M166.660142,560.610133 L160.006762,560.610133 L160.006762,567.263467 L166.660142,567.263467 L166.660142,573.933333 L160.006762,573.933333 L160.006762,580.6032 L166.660142,580.6032 L166.660142,587.256533 L173.330071,587.256533 L173.330071,593.9264 L166.660142,593.9264 L166.660142,587.273067 L160.006762,587.273067 L160.006762,593.9264 L166.660142,593.9264 L166.660142,600.6 L159.990214,600.6 L159.990214,593.930133 L153.336833,593.930133 L153.336833,587.2768 L146.666904,587.2768 L146.666904,593.930133 L139.996975,593.930133 L139.996975,587.2768 L133.343594,587.2768 L133.343594,593.930133 L139.996975,593.930133 L139.996975,600.6 L133.326512,600.6 L133.326512,593.930133 L126.673665,593.930133 L126.673665,600.6 L120,600.6 L120,593.930133 L126.669929,593.930133 L126.669929,587.2768 L120,587.2768 L120,580.6064 L126.669929,580.6064 L126.669929,573.936533 L120,573.936533 L120,567.266667 L126.669929,567.266667 L126.669929,560.613333 L126.669929,560.5968 L133.32331,560.5968 L133.32331,553.943467 L139.993238,553.943467 L139.993238,560.5968 L146.663167,560.5968 L146.663167,553.943467 L153.33363,553.943467 L153.33363,560.5968 L159.987011,560.5968 L159.987011,553.943467 L166.65694,553.943467 L166.65694,560.5968 L173.326868,560.5968 L173.326868,567.266667 L166.65694,567.266667 L166.65694,560.610133 L166.660142,560.610133 Z M126.669929,560.5936 L126.669929,553.939733 L120,553.939733 L120,560.610133 L126.669929,560.610133 L126.669929,560.5936 Z M146.663167,593.930133 L146.663167,600.6 L153.33363,600.6 L153.33363,593.930133 L146.663167,593.930133 Z M166.660142,580.6064 L166.660142,573.936533 L173.330071,573.936533 L173.330071,580.6064 L166.660142,580.6064 Z M133.32331,587.260267 L126.669929,587.260267 L126.669929,580.6064 L133.32331,580.6064 L133.32331,587.260267 Z M133.339858,553.939733 L133.339858,547.269867 L139.993238,547.269867 L139.993238,553.939733 L146.663167,553.939733 L146.663167,547.269867 L153.33363,547.269867 L153.33363,553.939733 L160.003559,553.939733 L160.003559,547.269867 L166.65694,547.269867 L166.65694,553.939733 L173.326868,553.939733 L173.326868,547.269867 L166.65694,547.269867 L166.65694,540.6 L159.987011,540.6 L159.987011,547.269867 L153.33363,547.269867 L153.33363,540.6 L146.663167,540.6 L146.663167,547.269867 L139.993238,547.269867 L139.993238,540.6 L133.32331,540.6 L133.32331,547.269867 L126.669929,547.269867 L126.669929,540.6 L120,540.6 L120,547.269867 L126.669929,547.269867 L126.669929,553.939733 L133.339858,553.939733 Z M159.987011,567.263467 L159.987011,573.933333 L153.33363,573.933333 L153.33363,567.263467 L159.987011,567.263467 Z M146.663167,567.263467 L146.663167,560.610133 L153.33363,560.610133 L153.33363,567.263467 L146.663167,567.263467 Z M139.993238,567.263467 L146.663167,567.263467 L146.663167,573.933333 L139.993238,573.933333 L139.993238,567.263467 Z M139.993238,567.263467 L133.339858,567.263467 L133.339858,560.610133 L139.993238,560.610133 L139.993238,567.263467 Z M139.993238,580.6064 L133.339858,580.6064 L133.339858,573.936533 L139.993238,573.936533 L139.993238,580.6064 Z M146.663167,580.6064 L146.663167,587.260267 L139.993238,587.260267 L139.993238,580.6064 L146.663167,580.6064 Z M153.336833,580.6064 L146.666904,580.6064 L146.666904,573.936533 L153.336833,573.936533 L153.336833,580.6064 Z M153.336833,580.6064 L159.990214,580.6064 L159.990214,587.260267 L153.336833,587.260267 L153.336833,580.6064 Z M133.32331,573.936533 L133.32331,567.266667 L126.669929,567.266667 L126.669929,573.936533 L133.32331,573.936533 Z M180,593.930133 L173.330071,593.930133 L173.330071,600.6 L180,600.6 L180,593.930133 Z M173.330071,580.6064 L180,580.6064 L180,587.2768 L173.330071,587.2768 L173.330071,580.6064 Z M180,567.263467 L173.330071,567.263467 L173.330071,573.933333 L180,573.933333 L180,567.263467 Z M173.330071,553.939733 L180,553.939733 L180,560.610133 L173.330071,560.610133 L173.330071,553.939733 Z M173.330071,540.6 L180,540.6 L180,547.269867 L173.330071,547.269867 L173.330071,540.6 Z" id="Shape-Copy-5" fill="#1F242C"></path>
                        <path d="M353.330071,300.6 L360,300.6 L360,240.6 L353.330071,240.6 L353.330071,300.6 Z M346.666548,300.6 L339.999822,300.6 L339.999822,240.6 L346.666548,240.6 L346.666548,300.6 Z M333.33363,300.6 L326.666904,300.6 L326.666904,240.6 L333.33363,240.6 L333.33363,300.6 Z M313.333452,300.6 L320.000178,300.6 L320.000178,240.6 L313.333452,240.6 L313.333452,300.6 Z M306.666726,300.6 L300,300.6 L300,240.6 L306.666726,240.6 L306.666726,300.6 Z" id="Shape" fill="#4038FF"></path>
                        <path d="M364.699429,180.6 L360,180.6 L360,175.9 L415.299429,120.6 L420,120.6 L420,125.3 L364.699429,180.6 Z M405.866286,120.6 L396.433143,120.6 L360,157.033257 L360,166.466629 L405.866286,120.6 Z M387,120.6 L377.566857,120.6 L360,138.166629 L360,147.6 L387,120.6 Z M360,120.6 L360,128.733326 L368.132571,120.6 L360,120.6 Z M420,144.166629 L420,134.733371 L374.132571,180.6 L383.566857,180.6 L420,144.166629 Z M420,163.033257 L420,153.6 L393,180.6 L402.433143,180.6 L420,163.033257 Z M420,172.466629 L411.866286,180.6 L420,180.6 L420,172.466629 Z" id="Shape" fill="#F2F5F9" fill-rule="nonzero"></path>
                        <path d="M360.6,427.269867 L360.6,420.6 L300.6,420.6 L300.6,427.269867 L360.6,427.269867 Z M360.6,433.933333 L360.6,440.6 L300.6,440.6 L300.6,433.933333 L360.6,433.933333 Z M360.6,447.266667 L360.6,453.933333 L300.6,453.933333 L300.6,447.266667 L360.6,447.266667 Z M360.6,467.266667 L360.6,460.6 L300.6,460.6 L300.6,467.266667 L360.6,467.266667 Z M360.6,473.933333 L360.6,480.6 L300.6,480.6 L300.6,473.933333 L360.6,473.933333 Z" id="Shape" fill="#1F242C"></path>
                        <path d="M300,67.2698667 L300,60.6 L240,60.6 L240,67.2698667 L300,67.2698667 Z M300,73.9333333 L300,80.6 L240,80.6 L240,73.9333333 L300,73.9333333 Z M300,87.2666667 L300,93.9333333 L240,93.9333333 L240,87.2666667 L300,87.2666667 Z M300,107.266667 L300,100.6 L240,100.6 L240,107.266667 L300,107.266667 Z M300,113.933333 L300,120.6 L240,120.6 L240,113.933333 L300,113.933333 Z" id="Shape-Copy-12" fill="#4038FF"></path>
                        <path d="M540,247.269867 L540,240.6 L480,240.6 L480,247.269867 L540,247.269867 Z M540,253.933333 L540,260.6 L480,260.6 L480,253.933333 L540,253.933333 Z M540,267.266667 L540,273.933333 L480,273.933333 L480,267.266667 L540,267.266667 Z M540,287.266667 L540,280.6 L480,280.6 L480,287.266667 L540,287.266667 Z M540,293.933333 L540,300.6 L480,300.6 L480,293.933333 L540,293.933333 Z" id="Shape-Copy-7" fill="#1F242C"></path>
                        <path d="M300,233.930027 L300,240.6 L240,240.6 L240,233.930027 L300,233.930027 Z M300,213.926667 L300,207.256693 L240,207.256693 L240,213.926667 L300,213.926667 Z M300,193.92336 L300,200.593333 L240,200.593333 L240,193.92336 L300,193.92336 Z M300,180.6 L300,187.270027 L240,187.270027 L240,180.6 L300,180.6 Z M300,227.26 L300,220.589973 L240,220.589973 L240,227.26 L300,227.26 Z" id="Shape" fill="#1F242C"></path>
                        <path d="M712.733274,180.6 L719.4,180.6 C719.4,213.736533 692.536655,240.6 659.4,240.6 L659.4,233.933333 C688.856584,233.933333 712.733274,210.056533 712.733274,180.6 Z M699.399822,180.6 L706.066548,180.6 C706.066548,206.373333 685.17331,227.266667 659.4,227.266667 L659.4,220.6 C681.490036,220.6 699.399822,202.690133 699.399822,180.6 Z M692.73363,180.6 L686.066904,180.6 C686.066904,195.3264 674.12669,207.266667 659.4,207.266667 L659.4,213.933333 C677.809964,213.933333 692.73363,199.010133 692.73363,180.6 Z M672.733452,180.6 L679.400178,180.6 C679.400178,191.6464 670.446619,200.6 659.4,200.6 L659.4,193.933333 C666.763345,193.933333 672.733452,187.9632 672.733452,180.6 Z M659.4,180.6 L666.066726,180.6 C666.066726,184.2832 663.083274,187.266667 659.4,187.266667 L659.4,180.6 Z" id="Shape-Copy-8" fill="#1F242C"></path>
                        <path d="M186.666726,420.6 L180,420.6 C180,387.463467 206.863345,360.6 240,360.6 L240,367.266667 C210.543416,367.266667 186.666726,391.143467 186.666726,420.6 Z M200.000178,420.6 L193.333452,420.6 C193.333452,394.826667 214.22669,373.933333 240,373.933333 L240,380.6 C217.909964,380.6 200.000178,398.509867 200.000178,420.6 Z M206.666904,420.6 L213.33363,420.6 C213.33363,405.873067 225.27331,393.933333 240,393.933333 L240,387.266667 C221.590036,387.266667 206.666904,402.189867 206.666904,420.6 Z M226.666548,420.6 L220.000356,420.6 C220.000356,409.553067 228.953381,400.6 240,400.6 L240,407.266667 C232.636655,407.266667 226.666548,413.2368 226.666548,420.6 Z M240,420.6 L233.333274,420.6 C233.333274,416.9168 236.316726,413.933333 240,413.933333 L240,420.6 Z" id="Shape" fill="#FFFFFF" transform="translate(210.000000, 390.600000) rotate(-360.000000) translate(-210.000000, -390.600000) "></path>
                        <path d="M606.666726,180.6 L600,180.6 C600,147.463467 626.863345,120.6 660,120.6 L660,127.266667 C630.543416,127.266667 606.666726,151.143467 606.666726,180.6 Z M620.000178,180.6 L613.333452,180.6 C613.333452,154.826667 634.22669,133.933333 660,133.933333 L660,140.6 C637.909964,140.6 620.000178,158.509867 620.000178,180.6 Z M626.666904,180.6 L633.33363,180.6 C633.33363,165.873067 645.27331,153.933333 660,153.933333 L660,147.266667 C641.590036,147.266667 626.666904,162.189867 626.666904,180.6 Z M646.666548,180.6 L640.000356,180.6 C640.000356,169.553067 648.953381,160.6 660,160.6 L660,167.266667 C652.636655,167.266667 646.666548,173.2368 646.666548,180.6 Z M660,180.6 L653.333274,180.6 C653.333274,176.9168 656.316726,173.933333 660,173.933333 L660,180.6 Z" id="Shape-Copy-11" fill="#1F242C" transform="translate(630.000000, 150.600000) rotate(-270.000000) translate(-630.000000, -150.600000) "></path>
                        <path d="M120,300.6 L120,360.6 L180,360.6 C180,327.463467 153.136655,300.6 120,300.6 Z" id="Path" fill="#4038FF" fill-rule="nonzero" transform="translate(150.000000, 330.600000) rotate(-180.000000) translate(-150.000000, -330.600000) "></path>
                        <path d="M60,300.6 L120,300.6 L120,240.6 C86.8633452,240.6 60,267.463467 60,300.6 Z" id="Path" fill="#1F242C" fill-rule="nonzero"></path>
                        <path d="M420.6,540.6 L480.6,540.6 L480.6,480.6 C447.463345,480.6 420.6,507.463467 420.6,540.6 Z" id="Path-Copy-2" fill="#1F242C" fill-rule="nonzero" transform="translate(450.600000, 510.600000) rotate(-90.000000) translate(-450.600000, -510.600000) "></path>
                        <path d="M186.669929,540.6 L180,540.6 L180,480.6 L186.669929,480.6 L186.669929,540.6 Z M206.67331,540.6 L213.343238,540.6 L213.343238,480.6 L206.67331,480.6 L206.67331,540.6 Z M226.67669,540.6 L220.006762,540.6 L220.006762,480.6 L226.67669,480.6 L226.67669,540.6 Z M240,540.6 L233.330071,540.6 L233.330071,480.6 L240,480.6 L240,540.6 Z M193.339858,540.6 L200.009786,540.6 L200.009786,480.6 L193.339858,480.6 L193.339858,540.6 Z" id="Shape" fill="#4038FF"></path>
                        <path d="M6.66992883,420.6 L0,420.6 L0,360.6 L6.66992883,360.6 L6.66992883,420.6 Z M26.6733096,420.6 L33.3432384,420.6 L33.3432384,360.6 L26.6733096,360.6 L26.6733096,420.6 Z M46.6766904,420.6 L40.0067616,420.6 L40.0067616,360.6 L46.6766904,360.6 L46.6766904,420.6 Z M60,420.6 L53.3300712,420.6 L53.3300712,360.6 L60,360.6 L60,420.6 Z M13.3398577,420.6 L20.0097865,420.6 L20.0097865,360.6 L13.3398577,360.6 L13.3398577,420.6 Z" id="Shape-Copy" fill="#1F242C"></path>
                        <path d="M487.269929,60.6 L480.6,60.6 L480.6,0.6 L487.269929,0.6 L487.269929,60.6 Z M507.27331,60.6 L513.943238,60.6 L513.943238,0.6 L507.27331,0.6 L507.27331,60.6 Z M527.27669,60.6 L520.606762,60.6 L520.606762,0.6 L527.27669,0.6 L527.27669,60.6 Z M540.6,60.6 L533.930071,60.6 L533.930071,0.6 L540.6,0.6 L540.6,60.6 Z M493.939858,60.6 L500.609786,60.6 L500.609786,0.6 L493.939858,0.6 L493.939858,60.6 Z" id="Shape-Copy-9" fill="#4038FF"></path>
                    </g>
                </g>
                <g id="Helmet" transform="translate(205.000000, 119.000000)" fill-rule="nonzero">
                    <path d="M256.361996,304.425686 C256.824549,306.713505 258.736077,316.179996 259.268044,319.121997 C260.39768,325.369361 261.055762,330.601074 261.258877,335.927516 C261.273367,336.322835 261.273367,336.322835 261.276007,336.444476 C261.98988,354.25446 258.303867,390.791102 250.217972,446.0544 L238.545694,440.185264 L220.739167,428.446989 L218.940725,444.231923 C186.015637,447.153263 143.645439,435.942794 112.887268,400.101519 C100.580415,385.784621 94.7630303,370.220369 91.6830824,349.907007 C91.1675664,346.506993 90.8529289,344.046087 90.22374,338.65762 C68.1560153,339.693078 48.4768213,323.743844 48.4656955,323.728176 L32.2405716,300.879558 L44.1355421,289.533151 L0.17633065,297.902037 L0.0132818709,267.355211 C-0.486481599,173.725637 13.0278885,112.467683 55.7348901,57.5912435 C102.675714,-2.70197689 178.362742,-16.8552751 245.912791,20.8274797 C297.195924,49.4105485 332.670039,104.855226 334.883598,161.526053 L336.2304,196.006458 L302.686112,187.018208 C304.471731,187.496667 280.96917,180.886363 275.945117,179.802346 C275.179686,179.637192 274.436149,179.485764 273.659882,179.337667 C270.45806,178.720534 268.192097,178.205932 262.629743,176.884357 C260.962339,176.488195 260.070391,176.278028 259.097774,176.053791 C251.121426,174.214842 247.009016,173.783727 244.888257,174.219476 C242.736294,174.665068 240.623103,175.024757 238.545694,175.299467 C265.119766,209.678757 272.153864,263.793325 256.361996,304.425686 Z" id="Path" fill="#000000"></path>
                    <path d="M309.1968,163.072769 C297.391551,159.916451 294.006194,159.621469 281.16236,157.151307 C272.599804,155.504533 251.23704,154.487831 217.074072,154.101202 C212.083521,144.392045 205.295426,135.614941 196.709791,127.76989 C190.484581,122.461978 182.81778,118.397228 175.275377,115.177853 C141.452126,99.2247246 104.228592,107.49505 86.3303105,140.361926 C71.7555014,167.122013 64.1361853,209.503022 60.6049965,239.556658 C59.7395091,246.69268 59.8433676,253.965935 59.3933141,263.400582 L27.0478834,266.9568 C26.667069,195.768106 33.6602077,130.137278 77.1422985,74.3870958 C116.331571,24.1604709 177.850422,13.3878203 233.691673,44.4706907 C276.68909,68.3832301 307.327347,115.316306 309.1968,163.072769 Z" id="Path" fill="#FFFFFF"></path>
                    <path d="M279.963212,158.109428 C271.441061,156.451683 250.179101,155.428209 216.177335,155.039004 C211.210332,145.265169 204.45427,136.429595 195.909147,128.532283 C189.713311,123.189013 182.082689,119.097185 174.575874,115.856364 C140.912224,99.796962 103.864335,108.122381 86.0505096,141.208203 C76.0299622,159.816804 69.3127999,185.929107 64.9583097,210.271115 C60.7046055,229.083541 57.9088459,248.597044 56.1760178,264.626799 C56.1466624,264.889875 56.1185109,265.153135 56.0914942,265.416681 L27.047816,268.6464 C26.9599529,252.033628 27.2664938,235.721521 28.3284375,219.764295 C33.316471,175.863856 45.2043084,134.991279 71.492281,98.3569455 C107.787998,47.7957312 164.764577,36.9513177 216.482768,68.2412495 C248.189827,87.4073881 272.640373,121.264474 282.1632,158.53386 C281.461109,158.399515 280.729054,158.258401 279.963212,158.109428 Z" id="Path" fill="#C4C3C6"></path>
                    <path d="M108.753855,253.297538 L124.461001,293.660722 L124.461001,251.235278 L133.569782,261.475903 L133.569782,241.935911 C162.32083,227.23561 188.295918,208.096364 210.64511,182.4768 C232.533474,202.839981 244.727814,240.216481 240.923269,272.204176 C239.607605,283.265963 233.598429,293.539236 229.211979,302.4384 C231.710156,316.860307 234.755352,316.167127 235.067624,326.820839 C233.115742,330.155796 227.260097,338.52441 221.248303,348.277385 C212.643473,330.155796 207.869359,330.155764 213.594347,309.225158 C214.357678,306.381884 207.591785,300.112978 203.185279,297.509499 C186.253195,287.677936 169.21702,290.829518 149.3357,298.468675 C159.536587,309.499208 171.853984,311.760124 182.436537,316.556008 C192.012879,320.906561 200.305437,326.319058 200.47892,337.486616 C200.964677,365.713817 200.652405,394.009533 200.652405,422.202477 C176.572761,424.326369 156.205685,409.219336 132.577101,381.848541 C112.730478,358.896811 118.698344,330.052996 110.960936,307.169778 C92.2246141,300.729593 92.2246141,316.556008 77.1661624,314.949466 C62.1077107,313.342923 59.7710919,306.842053 57.4464,303.587705 C73.8927273,294.3385 83.5503907,284.834664 77.1661624,264.623439 C87.9648113,261.239281 98.5050705,257.49047 108.753855,253.297538 L108.753855,253.297538 Z" id="Path" fill="#C4C3C6"></path>
                    <path d="M194.304,198.84738 C199.738321,193.702286 204.997953,188.253118 210.073219,182.4768 C213.660962,185.790675 216.991905,189.552017 220.039055,193.665603 C227.280237,214.545237 234.772091,243.041103 232.863066,262.025076 C229.530649,295.163707 227.451774,300.92499 227.199208,302.18413 C226.607231,305.135345 229.024856,308.986467 231.099926,312.508426 C231.800874,314.698029 232.47375,316.318638 233.052038,317.903037 C231.965045,323.903546 223.180129,339.924408 222.324539,339.604889 C221.654209,339.354555 217.940184,332.038109 215.573889,324.582223 C214.369502,320.787356 215.364921,312.460666 215.573889,311.842109 C216.532465,309.004671 219.036806,304.470713 219.93902,302.18413 C220.375354,301.078279 225.707507,266.583158 217.139647,241.401448 C212.463711,227.658454 200.965446,209.431355 194.304,198.84738 L194.304,198.84738 Z" id="Path" fill="#FFFFFF"></path>
                    <path d="M109.824,306.530339 C90.894181,300.220418 90.894181,315.726714 75.6802153,314.152667 C60.4662498,312.578619 58.1054998,306.209243 55.7568,303.020719 C57.1386226,302.267102 58.4730113,301.511759 59.7545894,300.7488 C61.5304001,303.649221 63.843571,304.377912 68.7931192,305.658717 C81.0967982,308.842564 107.029823,293.29453 109.824,306.530339 L109.824,306.530339 Z" id="Path" fill="#FFFFFF"></path>
                    <path d="M199.298213,353.1264 C199.478988,376.172835 199.274327,399.243174 199.274327,422.245516 C184.883944,423.526848 173.740155,416.70795 160.512,406.600169 C181.868122,409.5907 179.951909,412.327676 186.156124,404.105466 C193.765987,394.020406 193.034059,364.169109 199.298213,353.1264 Z" id="Path" fill="#FFFFFF"></path>
                    <path d="M201.0624,177.51556 C174.411391,201.189289 116.564112,233.006429 79.7687238,241.6128 C77.7935008,229.283726 84.0403387,204.210804 97.5748398,187.717645 C101.461559,182.981284 110.773063,169.87009 126.72465,162.450271 C136.146876,158.06756 152.374451,157.125371 159.028537,157.1328 C176.947819,157.152968 192.37485,164.7411 201.0624,177.51556 Z" id="Path" fill="#FFFFFF"></path>
                    <path d="M189.2352,186.482059 C159.848218,208.671509 111.809089,234.046318 79.7679467,241.6128 C78.6741041,234.71948 80.107249,223.871745 83.9079994,212.741792 C85.7404793,209.613746 87.7712514,206.624518 89.9962777,203.867807 C93.9371011,198.985295 103.378223,185.469526 119.551859,177.820752 C129.105245,173.302804 145.558711,172.331543 152.305424,172.3392 C167.044783,172.356074 180.121097,177.507289 189.2352,186.482066 L189.2352,186.482059 Z" id="Path" fill="#C4C3C6"></path>
                    <path d="M225.418634,363.22727 L239.832088,339.866713 C243.272029,334.675478 244.992,339.866713 244.992,355.440417 C244.992,371.014123 243.921875,395.023582 241.781627,427.4688 L219.648,402.16153 L225.418634,363.22727 Z" id="Rectangle" fill="#C4C3C6"></path>
                    <path d="M244.992,355.208492 C244.992,370.832342 243.921875,394.919112 241.781627,427.4688 L219.648,402.080042 L221.485803,400.908254 L237.88255,420.438067 C240.022799,387.888379 241.092924,363.80161 241.092924,348.177759 C241.092924,343.552775 241.282623,341.326474 240.981187,338.412853 C243.882007,336.291219 244.992,340.861099 244.992,355.208492 Z" id="Path" fill="#FFFFFF"></path>
                </g>
            </g>
        </g>
    </g>
</svg>