<?xml version="1.0" encoding="UTF-8"?>
<svg width="472px" height="367px" viewBox="0 0 472 367" version="1.1" xmlns="http://www.w3.org/2000/svg" xmlns:xlink="http://www.w3.org/1999/xlink">
    <!-- Generator: Sketch 59.1 (86144) - https://sketch.com -->
    <title>Tokens Copy 2</title>
    <desc>Created with Sketch.</desc>
    <g id="Joystream---Website" stroke="none" stroke-width="1" fill="none" fill-rule="evenodd">
        <g id="Token-Page" transform="translate(-782.000000, -209.000000)">
            <g id="Group-20" transform="translate(686.000000, 89.000000)">
                <g id="Tokens-Copy-2" transform="translate(328.000000, 300.500000) rotate(-15.000000) translate(-328.000000, -300.500000) translate(85.000000, 142.000000)">
                    <ellipse id="Oval" fill="#000000" cx="327.8" cy="157.52" rx="157.96" ry="157.52"></ellipse>
                    <ellipse id="Oval-Copy-4" fill="#C4C3C6" cx="327.8" cy="157.52" rx="138.6" ry="138.16"></ellipse>
                    <path d="M189.429008,166.32 C189.277029,163.65522 189.2,160.970324 189.2,158.267397 C189.2,81.5509601 251.253334,19.36 327.8,19.36 C404.346666,19.36 466.4,81.5509601 466.4,158.267397 C466.4,160.970324 466.322971,163.65522 466.170992,166.32 C462.009396,93.3510555 401.649721,35.4652055 327.8,35.4652055 C253.950279,35.4652055 193.590604,93.3510555 189.429008,166.32 Z" id="Path" fill="#FFFFFF"></path>
                    <path d="M273.520753,303.6 C271.060232,302.61698 268.613121,301.557777 266.18217,300.421388 C197.185161,268.167587 167.334079,185.948568 199.507913,116.780069 C231.681747,47.6115694 313.69692,17.6862936 382.693929,49.9400946 C385.12488,51.076483 387.507237,52.2748953 389.84,53.5325755 C322.464212,26.6147967 245.032829,56.8196546 213.992566,123.551161 C182.952304,190.282668 209.64334,269.161285 273.520753,303.6 Z" id="Path" fill="#000000"></path>
                    <path d="M244.474757,284.363077 C215.710753,237.812414 230.026144,112.457378 277.540837,80.3788945 C326.197068,47.5297277 391.241861,58.8902839 422.822449,105.753407 C429.196032,115.211307 433.719478,125.392448 436.48,135.889702 C433.944599,129.649175 430.735457,123.586363 426.83255,117.794753 C395.251962,70.9316299 309.799359,95.7769578 312.275351,156.979338 C315.937778,247.508446 263.586597,262.05288 288.606387,295.68 L244.474757,284.363077 Z" id="Path" fill="#000000"></path>
                    <path d="M436.977315,132.88 C437.64697,134.882174 438.26275,136.915039 438.822614,138.977431 C454.720821,197.542258 419.510032,257.739633 360.177117,273.432031 C300.844202,289.12443 239.857327,254.369459 223.959121,195.804632 C223.06659,192.516783 222.335141,189.223788 221.76,185.933812 C240.106229,240.786477 298.889223,272.603563 356.132698,257.463781 C412.134643,242.652359 446.646884,188.192741 436.977315,132.88 L436.977315,132.88 Z" id="Path" fill="#FFFFFF"></path>
                    <path d="M372.24,90.64 L312.4,90.64 L312.4,110.977111 L348.9024,110.977111 L348.9024,194.649677 C348.9024,201.332418 344.7136,207.143044 338.4304,209.7579 L317.3368,219.039324 L323.62,241.12 L352.1936,228.932518 C359.6736,226.027205 365.9568,220.507036 369.248,213.534583 C371.3424,209.466698 372.24,204.818644 372.24,200.460302 L372.24,90.64 Z" id="Path-Copy-4" fill="#000000" fill-rule="nonzero"></path>
                    <path d="M360.8,95.92 L304.48,95.92 L304.48,115.436796 L338.8352,115.436796 L338.8352,195.734355 C338.8352,202.147541 334.8928,207.72379 328.9792,210.233174 L315.1808,215.529967 L321.0944,236.72 L341.9328,228.634367 C348.9728,225.846243 354.8864,220.548735 357.984,213.857522 C359.9552,209.953718 360.8,205.493148 360.8,201.310604 L360.8,95.92 Z" id="Path-Copy-3" fill="#C4C3C6" fill-rule="nonzero"></path>
                    <path d="M315.927131,218.24 L313.95584,211.66039 L328.44416,206.479884 C334.65344,204.025592 338.79296,198.571766 338.79296,192.299377 L338.79296,113.764703 L302.72,113.764703 L302.72,106.48 L344.96,106.48 L344.96,191.886505 C344.96,195.275958 344.19968,198.890718 342.4256,202.054284 C339.63776,207.476714 334.31552,211.769712 327.97952,214.029154 L315.927131,218.24 Z" id="Path" fill="#FFFFFF" fill-rule="nonzero"></path>
                    <path d="M295.477239,94.5629919 C333.931949,151.399681 304.258703,235.436254 232.680551,283.568328 C198.834128,306.328046 160.22158,317.96269 124.206666,316.708225 C108.966501,316.177382 95.5260607,312.295899 83.8449747,305.905637 C75.8828673,301.549882 70.4774212,297.247206 64.6368782,291.624349 C46.4053883,277.343616 33.0770552,264.983891 24.6518791,254.545174 C15.9199636,243.726409 8.84856589,229.51946 3.43768608,211.924328 C-10.7487883,158.331732 19.8049195,92.8861377 79.7194494,52.5971592 C151.297601,4.4650846 240.570332,8.51752107 279.025043,65.3542099 C283.887797,72.5414398 289.917904,86.3462039 295.477239,94.5629919 Z" id="Path" fill="#000000" fill-rule="nonzero"></path>
                    <path d="M75.68,277.013232 C92.1781227,286.520818 144.044111,288.638769 188.340667,266.774635 C229.439302,246.488949 263.354452,203.632437 273.047105,174.747318 C284.457599,140.742855 274.072015,95.0539811 269.019205,82.72 C275.332584,87.710463 278.070411,97.6056167 282.680616,104.395199 C315.023351,152.027279 288.91568,225.701403 224.3675,268.950961 C192.562237,290.261609 157.358546,300.20915 125.958268,299.119334 C98.2044798,298.156077 91.0024142,291.791286 86.015874,287.007775 C80.1386574,281.369853 76.6933661,278.038338 75.68,277.013232 Z" id="Path" fill="#C4C3C6"></path>
                    <path d="M204.897272,240.649328 C268.75719,197.197267 294.586481,123.178185 262.588609,75.3230827 C230.590737,27.46798 152.882645,23.8986099 89.0227279,67.3506715 C25.1628104,110.802733 -0.666480975,184.821815 31.3313908,232.676917 C63.3292627,280.53202 141.037355,284.10139 204.897272,240.649328 Z" id="Oval" fill="#D8D8D8"></path>
                    <path d="M204.897272,240.649328 C268.75719,197.197267 294.586481,123.178185 262.588609,75.3230827 C230.590737,27.46798 152.882645,23.8986099 89.0227279,67.3506715 C25.1628104,110.802733 -0.666480975,184.821815 31.3313908,232.676917 C63.3292627,280.53202 141.037355,284.10139 204.897272,240.649328 Z" id="Oval-Copy" fill="#C4C3C6"></path>
                    <path d="M40.48,243.863291 C77.3358843,276.174546 143.586421,274.268743 199.243633,236.304581 C262.656116,193.050495 288.304435,119.368658 256.530756,71.7315915 C254.775281,69.0996755 252.881255,66.6023252 250.85865,64.24 C255.994149,68.7422495 260.558933,73.9088449 264.444818,79.7348047 C296.218497,127.371871 270.570178,201.053708 207.157695,244.307794 C147.248709,285.172121 75.0660831,284.258508 40.48,243.863298 L40.48,243.863291 Z" id="Path" fill="#FFFFFF"></path>
                    <path d="M236.72,74.4824458 C203.470378,48.0711929 146.412234,52.7486762 100.120276,88.2925637 C47.3779955,128.789137 28.5836836,194.018026 58.1420051,233.985366 C59.7750826,236.193535 61.521589,238.278395 63.3729006,240.24 C58.7398981,236.559856 54.5691532,232.276104 50.9542036,227.388143 C21.395882,187.420803 40.1901939,122.191913 92.932474,81.6953402 C142.760778,43.4361758 205.063004,40.9394519 236.72,74.4824458 L236.72,74.4824458 Z" id="Path" fill="#FFFFFF"></path>
                    <path d="M105.6,248.759 C132.444349,247.819029 161.920486,236.57056 187.531377,215.287863 C238.267781,173.125819 254.621984,107.549843 224.059512,68.8198224 C218.923087,62.310734 212.788384,56.9741673 205.895184,52.8 C220.297118,58.1799475 232.47289,67.3213262 240.907015,80.1533715 C268.046775,121.444988 246.166118,185.315571 192.0352,222.812311 C164.038432,242.205803 132.898,250.745961 105.6,248.758999 L105.6,248.759 Z" id="Path" fill="#000000"></path>
                    <path d="M212.08,116.063073 L208.071111,103.935573 L154.661674,82.72 L142.25675,86.7625 L140.645882,96.3860938 L163.973333,111.0175 C143.093768,132.653953 127.489427,148.823953 117.160311,159.5275 C106.831195,170.231047 106.831195,170.231047 117.160311,159.5275 C110.952696,167.6125 105.176296,171.655 99.8311111,171.655 C94.4859259,171.655 89.1407407,170.749072 83.7955556,168.937216 C78.9332459,173.898138 101.414505,186.270314 94.2822978,183.246444 L78.1829751,175.540616 L67.76,183.7825 L67.76,196.140531 L91.7452699,208.431821 C99.9806405,212.37682 109.229754,213.238396 117.160311,210.446785 C121.954885,208.914231 126.199958,205.960401 129.478107,202.528908 L212.08,116.063073 Z" id="Path-Copy" fill="#000000" fill-rule="nonzero"></path>
                    <path d="M208.56,103.743073 L151.141674,70.4 L137.125882,84.0660938 L171.369731,105.836497 L110.490232,167.950693 C105.627923,172.911615 97.8945048,173.950314 90.7622978,170.926444 L74.6629751,163.220616 L64.24,183.820531 L88.2252699,196.111821 C96.4606405,200.05682 105.709754,200.918396 113.640311,198.126785 C118.434885,196.594231 122.679958,193.640401 125.958107,190.208908 L208.56,103.743073 Z" id="Path-Copy" fill="#C4C3C6" fill-rule="nonzero"></path>
                    <path d="M70.4,187.850159 L71.9397586,184.810398 L93.5326299,195.134093 C103.09855,199.185248 113.470831,197.793676 119.992299,191.147402 L201.645621,107.93143 L155.716793,78.7650657 L158.884352,75.68 L211.2,105.790641 L128.108987,191.997513 C124.811427,195.418729 120.541217,198.363712 115.718252,199.891677 C107.740735,202.674927 98.4368534,201.815931 90.1527177,197.882748 L70.4,187.850159 Z" id="Path" fill="#FFFFFF" fill-rule="nonzero"></path>
                </g>
            </g>
        </g>
    </g>
</svg>