<svg width="268" height="276" viewBox="0 0 268 276" fill="none" xmlns="http://www.w3.org/2000/svg">
<path d="M153 88L119 44H147.108C150.824 44 154.331 45.7219 156.603 48.6626L186 86.7059L184.47 88H153Z" fill="url(#paint0_linear_356_22781)"/>
<path d="M153 88L119 44H147.108C150.824 44 154.331 45.7219 156.603 48.6626L186 86.7059L184.47 88H153Z" fill="url(#paint1_radial_356_22781)"/>
<path d="M153 88H121.53L120.545 90L130.803 103.274C133.864 107.236 133.864 112.764 130.803 116.726L119 132H147.108C150.824 132 154.331 130.278 156.603 127.337L163.858 117.949C167.475 113.267 167.475 106.733 163.858 102.051L153 88Z" fill="url(#paint2_linear_356_22781)"/>
<path d="M115.869 44C112.166 44 108.67 45.7097 106.397 48.6327L86.9115 73.6852C83.7283 77.778 82 82.815 82 88C82 93.185 83.7283 98.222 86.9115 102.315L106.397 127.367C108.67 130.29 112.166 132 115.869 132H147.108C147.572 132 148.033 131.973 148.488 131.92C145.309 131.552 142.385 129.924 140.397 127.367L119.122 100.014C116.451 96.5792 115 92.3517 115 88C115 83.6483 116.451 79.4208 119.122 75.9858L140.397 48.6327C142.385 46.0761 145.309 44.4477 148.488 44.0796C148.033 44.0269 147.572 44 147.108 44H115.869Z" fill="url(#paint3_linear_356_22781)"/>
<path d="M115.869 44C112.166 44 108.67 45.7097 106.397 48.6327L86.9115 73.6852C83.7283 77.778 82 82.815 82 88C82 93.185 83.7283 98.222 86.9115 102.315L106.397 127.367C108.67 130.29 112.166 132 115.869 132H147.108C147.572 132 148.033 131.973 148.488 131.92C145.309 131.552 142.385 129.924 140.397 127.367L119.122 100.014C116.451 96.5792 115 92.3517 115 88C115 83.6483 116.451 79.4208 119.122 75.9858L140.397 48.6327C142.385 46.0761 145.309 44.4477 148.488 44.0796C148.033 44.0269 147.572 44 147.108 44H115.869Z" fill="url(#paint4_radial_356_22781)" fill-opacity="0.5"/>
<path d="M153 88H121.532L120.55 90H152.018L153 88Z" fill="url(#paint5_linear_356_22781)"/>
<path d="M120.714 89.6667H152.182L152.018 90H120.55L120.714 89.6667Z" fill="#2F2BAD"/>
<path d="M147.222 44.0005C150.896 44.0354 154.354 45.7521 156.603 48.6626L186 86.7059L184.472 88L155.02 49.8855C153.15 47.4651 150.276 46.0355 147.222 46.0007C144.178 46.0353 141.313 47.455 139.442 49.861L119.119 75.9932C116.449 79.4262 115 83.6511 115 88C115 92.3489 116.449 96.5738 119.119 100.007L139.442 126.139C141.313 128.545 144.178 129.965 147.222 129.999C150.276 129.965 153.15 128.535 155.02 126.114L162.275 116.726C165.336 112.764 165.336 107.236 162.275 103.274L152.018 90L153 88L163.858 102.051C167.475 106.733 167.475 113.267 163.858 117.949L156.603 127.337C154.354 130.248 150.896 131.965 147.222 131.999C143.561 131.965 140.113 130.26 137.863 127.367L117.54 101.235C114.598 97.4506 113 92.7936 113 88C113 83.2064 114.598 78.5495 117.54 74.7654L137.863 48.6332C140.113 45.74 143.561 44.0353 147.222 44.0005Z" fill="url(#paint6_linear_356_22781)"/>
<path d="M147.388 44.0033C147.333 44.002 147.277 44.0011 147.222 44.0005C143.561 44.0353 140.113 45.74 137.863 48.6332L117.54 74.7654C114.598 78.5495 113 83.2064 113 88C113 92.7936 114.598 97.4506 117.54 101.235L137.863 127.367C140.113 130.26 143.561 131.965 147.222 131.999C147.277 131.999 147.333 131.998 147.389 131.997C143.79 131.913 140.413 130.216 138.197 127.367L117.874 101.235C114.931 97.4506 113.333 92.7936 113.333 88C113.333 83.2064 114.931 78.5495 117.874 74.7654L138.197 48.6332C140.413 45.7839 143.79 44.0874 147.388 44.0033Z" fill="url(#paint7_linear_356_22781)"/>
<path d="M184.674 87.8293L155.354 49.8855C153.484 47.4651 150.61 46.0355 147.555 46.0007C147.5 46.0013 147.444 46.0024 147.388 46.0039C150.381 46.0879 153.184 47.5092 155.02 49.8855L184.472 88L184.674 87.8293Z" fill="url(#paint8_linear_356_22781)"/>
<path d="M147.388 129.996C147.444 129.998 147.5 129.999 147.555 129.999C150.61 129.965 153.484 128.535 155.354 126.114L162.609 116.726C165.67 112.764 165.67 107.236 162.609 103.274L152.351 90L153.204 88.2639L153 88L152.018 90L162.275 103.274C165.336 107.236 165.336 112.764 162.275 116.726L155.02 126.114C153.184 128.491 150.381 129.912 147.388 129.996Z" fill="url(#paint9_linear_356_22781)"/>
<path d="M96.2239 164H88.2249V216H96.2239V164Z" fill="white"/>
<path fill-rule="evenodd" clip-rule="evenodd" d="M43.7752 195.476C43.781 201.49 45.5087 206.379 48.9582 210.146V210.155C50.6213 211.963 52.6513 213.395 54.9125 214.356C57.1737 215.317 59.6139 215.783 62.07 215.725C64.7963 215.693 67.4698 214.969 69.8403 213.622C70.7081 213.087 71.5189 212.465 72.2602 211.765C72.7844 211.295 73.281 210.796 73.7474 210.269C73.9236 210.064 74.0882 209.85 74.2402 209.627H74.6274V223.14H50.6251V230.4H75.9964C79.658 230.4 82.6264 227.432 82.6264 223.77V176.002H74.6274V180.974H74.2402L73.0346 179.496C71.765 178.301 70.293 177.342 68.6875 176.662C66.6154 175.69 64.3499 175.2 62.0612 175.228C59.607 175.172 57.1696 175.646 54.9147 176.616C52.6598 177.586 50.6403 179.031 48.9934 180.851C45.5087 184.588 43.7693 189.463 43.7752 195.476ZM51.0526 195.485C51.0526 191.519 52.1438 188.363 54.3261 186.017C56.5933 183.762 59.6605 182.497 62.8576 182.497C66.0547 182.497 69.1219 183.762 71.389 186.017C73.5714 188.357 74.6655 191.514 74.6714 195.485C74.6772 199.457 73.5831 202.616 71.389 204.963C69.1196 207.213 66.0533 208.475 62.8576 208.475C59.6619 208.475 56.5955 207.213 54.3261 204.963C52.1438 202.61 51.0526 199.451 51.0526 195.485Z" fill="white"/>
<path fill-rule="evenodd" clip-rule="evenodd" d="M146.632 203.296C147.616 205.78 149.09 208.033 150.965 209.918C153.787 212.715 157.359 214.609 161.237 215.363C165.115 216.116 169.126 215.697 172.769 214.157C176.413 212.616 179.528 210.023 181.725 206.701C182.507 205.521 183.16 204.266 183.678 202.96H175.074C174.659 203.68 174.172 204.345 173.612 204.955C171.37 207.205 168.342 208.468 165.186 208.468C162.031 208.468 159.002 207.205 156.761 204.955C155.109 203.151 154.088 200.873 153.699 198.12L184.942 198.12C185.06 197.247 185.121 196.365 185.126 195.478C185.181 192.79 184.707 190.119 183.729 187.62C182.752 185.122 181.292 182.845 179.435 180.925C177.578 179.005 175.361 177.479 172.915 176.438C170.468 175.396 167.841 174.86 165.186 174.86C162.532 174.86 159.905 175.396 157.458 176.438C155.012 177.479 152.795 179.005 150.938 180.925C149.081 182.845 147.621 185.122 146.644 187.62C145.666 190.119 145.192 192.79 145.247 195.478C145.178 198.152 145.649 200.813 146.632 203.296ZM154.101 190.86C154.629 188.975 155.515 187.358 156.761 186.009C159 183.754 162.029 182.489 165.186 182.489C168.344 182.489 171.373 183.754 173.612 186.009C174.852 187.356 175.735 188.973 176.262 190.86H154.101Z" fill="white"/>
<path fill-rule="evenodd" clip-rule="evenodd" d="M107.275 209.918C105.4 208.033 103.926 205.78 102.942 203.296C101.959 200.813 101.488 198.152 101.557 195.478C101.502 192.79 101.976 190.119 102.954 187.62C103.931 185.122 105.391 182.845 107.248 180.925C109.105 179.005 111.322 177.479 113.768 176.438C116.215 175.396 118.842 174.86 121.496 174.86C124.151 174.86 126.778 175.396 129.225 176.438C131.671 177.479 133.888 179.005 135.745 180.925C137.602 182.845 139.062 185.122 140.039 187.62C141.017 190.119 141.491 192.79 141.436 195.478C141.431 196.365 141.37 197.247 141.252 198.12L110.009 198.12C110.398 200.873 111.419 203.151 113.071 204.955C115.312 207.205 118.341 208.468 121.496 208.468C124.652 208.468 127.68 207.205 129.922 204.955C130.482 204.345 130.969 203.68 131.384 202.96H139.988C139.47 204.266 138.817 205.521 138.035 206.701C135.838 210.023 132.723 212.616 129.079 214.157C125.436 215.697 121.425 216.116 117.547 215.363C113.669 214.609 110.097 212.715 107.275 209.918ZM113.071 186.009C111.825 187.358 110.939 188.975 110.411 190.86H132.572C132.045 188.973 131.162 187.356 129.922 186.009C127.683 183.754 124.654 182.489 121.496 182.489C118.339 182.489 115.31 183.754 113.071 186.009Z" fill="white"/>
<path d="M186 175.997H194.386L202.94 208.002H206.75L215.304 175.997H223.69C222.447 180.519 221.204 185.041 219.961 189.564C217.54 198.377 215.118 207.189 212.69 216H197L186 175.997Z" fill="white"/>
<defs>
<linearGradient id="paint0_linear_356_22781" x1="152.5" y1="44" x2="152.5" y2="88" gradientUnits="userSpaceOnUse">
<stop offset="0.0536645" stop-color="#181759"/>
<stop offset="0.1875" stop-color="#242189"/>
<stop offset="1" stop-color="#201D7F"/>
</linearGradient>
<radialGradient id="paint1_radial_356_22781" cx="0" cy="0" r="1" gradientUnits="userSpaceOnUse" gradientTransform="translate(134 44) rotate(67.1955) scale(47.731 42.6059)">
<stop stop-color="#111048"/>
<stop offset="0.636996" stop-color="#111048" stop-opacity="0"/>
</radialGradient>
<linearGradient id="paint2_linear_356_22781" x1="144.5" y1="132" x2="144.5" y2="88" gradientUnits="userSpaceOnUse">
<stop stop-color="#3836A6"/>
<stop offset="0.184295" stop-color="#242291"/>
<stop offset="0.388422" stop-color="#2B29A3"/>
<stop offset="0.478039" stop-color="#3330B7"/>
<stop offset="0.598793" stop-color="#3330B7"/>
<stop offset="0.729654" stop-color="#201E8E"/>
</linearGradient>
<linearGradient id="paint3_linear_356_22781" x1="116" y1="44" x2="116" y2="132" gradientUnits="userSpaceOnUse">
<stop stop-color="#AFADF2"/>
<stop offset="0.0660341" stop-color="#504DC7"/>
<stop offset="0.29271" stop-color="#3834AC"/>
<stop offset="0.38355" stop-color="#2F2BAE"/>
<stop offset="0.480862" stop-color="#332FB6"/>
<stop offset="0.562202" stop-color="#2F2BAF"/>
<stop offset="0.653042" stop-color="#1F1C80"/>
<stop offset="0.937093" stop-color="#1A1871"/>
<stop offset="1" stop-color="#0D0C31"/>
</linearGradient>
<radialGradient id="paint4_radial_356_22781" cx="0" cy="0" r="1" gradientUnits="userSpaceOnUse" gradientTransform="translate(150 44) rotate(147.095) scale(80.9938 62.5861)">
<stop stop-color="#BDBBEF"/>
<stop offset="0.697917" stop-color="#9896DF" stop-opacity="0"/>
</radialGradient>
<linearGradient id="paint5_linear_356_22781" x1="120.5" y1="89" x2="152.5" y2="89" gradientUnits="userSpaceOnUse">
<stop stop-color="white"/>
<stop offset="0.0001" stop-color="#222085"/>
<stop offset="1" stop-color="#3532A9"/>
</linearGradient>
<linearGradient id="paint6_linear_356_22781" x1="113" y1="44" x2="186" y2="132" gradientUnits="userSpaceOnUse">
<stop stop-color="#6159E4"/>
<stop offset="1" stop-color="#4A43D5"/>
</linearGradient>
<linearGradient id="paint7_linear_356_22781" x1="148.837" y1="44.0005" x2="148.837" y2="131.999" gradientUnits="userSpaceOnUse">
<stop stop-color="#958AFF"/>
<stop offset="0.5" stop-color="#958AFF"/>
<stop offset="1" stop-color="#958AFF"/>
</linearGradient>
<linearGradient id="paint8_linear_356_22781" x1="148.837" y1="44.0005" x2="148.837" y2="131.999" gradientUnits="userSpaceOnUse">
<stop stop-color="#958AFF"/>
<stop offset="0.5" stop-color="#958AFF"/>
<stop offset="1" stop-color="#958AFF"/>
</linearGradient>
<linearGradient id="paint9_linear_356_22781" x1="148.837" y1="44.0005" x2="148.837" y2="131.999" gradientUnits="userSpaceOnUse">
<stop stop-color="#958AFF"/>
<stop offset="0.5" stop-color="#958AFF"/>
<stop offset="1" stop-color="#958AFF"/>
</linearGradient>
</defs>
</svg>
