<?xml version="1.0" encoding="UTF-8"?>
<svg width="399px" height="399px" viewBox="0 0 399 399" version="1.1" xmlns="http://www.w3.org/2000/svg" xmlns:xlink="http://www.w3.org/1999/xlink">
    <!-- Generator: Sketch 61 (89581) - https://sketch.com -->
    <title>athens</title>
    <desc>Created with Sketch.</desc>
    <g id="athens" stroke="none" stroke-width="1" fill="none" fill-rule="evenodd">
        <g id="Athens-owl" transform="translate(111.000000, 95.000000)" fill-rule="nonzero">
            <path d="M133.438889,191.75 C133.438889,191.75 128.578889,191.57 126.148889,193.48 C126.148889,193.48 120.448889,189.85 109.398889,192.48 L105.238889,175.74 C105.238889,175.74 101.238889,157.85 106.778889,149.74 C110.518889,144.23 118.138889,137 127.148889,126.6 C131.148889,121.94 136.308889,118.29 140.778889,114.47 C146.588889,109.47 147.568889,100.7 147.328889,93.37 C146.988889,83.16 140.778889,73.67 140.778889,73.67 C140.778889,73.67 81.0688889,66.74 71.9388889,72.24 C71.9388889,72.24 38.4288889,94.98 6.83888889,135.24 C7.59123858,135.482518 8.31018697,135.818475 8.97888889,136.24 C8.97888889,136.24 0.218888889,147.9 0.278888889,156.52 C-0.0113327416,158.117252 0.109102887,159.762058 0.628888889,161.3 C1.02133747,163.256654 1.27861241,165.238005 1.39888889,167.23 C1.36275609,169.018405 1.41949913,170.807479 1.56888889,172.59 C1.56888889,172.59 0.418888889,178 0.128888889,178.87 C-0.161111111,179.74 0.128888889,185.46 0.128888889,185.46 C0.128888889,185.46 26.7188889,172.93 30.4788889,170.75 C30.4788889,170.75 46.2788889,172.05 52.0688889,171.04 C52.0688889,171.04 57.3288889,177.77 57.9088889,179.04 L60.4388889,192.82 C60.4388889,192.82 55.2688889,193.71 53.4388889,195.62 C52.6588889,195.62 44.0588889,194.4 41.0988889,197.75 C41.0988889,197.75 39.6088889,203.85 40.3388889,204.86 C41.0688889,205.87 44.3388889,205.6 45.3388889,204.58 C45.3388889,204.58 50.6388889,210.41 56.0088889,209.83 C61.3788889,209.25 68.7688889,205.7 74.5688889,207.01 C80.3688889,208.32 89.1288889,210.88 94.4988889,209.37 C98.3504305,208.163174 102.06686,206.561323 105.588889,204.59 L107.158889,205.88 C107.158889,205.88 107.748889,205.3 107.608889,204.88 C107.608889,204.88 124.058889,206.53 128.608889,208.81 C134.908889,212 141.988889,204 141.988889,204 C141.988889,204 142.628889,204.18 143.988889,204.43 C143.918889,204.44 146.768889,191.31 133.438889,191.75 Z M91.0388889,191.87 C88.2388889,191.94 87.4088889,192.87 87.4088889,192.87 L79.7788889,191.97 C79.1488889,190.8 76.1588889,176.97 76.1588889,176.97 C76.0588889,174.97 78.1588889,169.52 78.1588889,169.52 C79.3387695,169.479228 80.5040869,169.246165 81.6088889,168.83 C83.0188889,170.57 89.9588889,178.83 89.9588889,178.83 C91.2388889,182.16 91.0688889,191.87 91.0688889,191.87 L91.0388889,191.87 Z" id="Shape" fill="#010101"></path>
            <path d="M95.5388889,192.4 C95.5388889,192.4 101.128889,192.92 103.798889,195.53 L104.608889,195.26 L101.058889,178.86 C101.058889,178.86 96.9788889,179.92 94.9588889,181.65 L95.5388889,192.4 Z" id="Path" fill="#C4C3C6"></path>
            <path d="M107.538889,198.12 C107.538889,198.12 114.708889,193.71 125.138889,196.68 L125.978889,199.68 C125.978889,199.68 140.398889,199.13 139.238889,202.07 C138.078889,205.01 132.238889,206 129.338889,205.13 C126.438889,204.26 118.468889,200.57 109.338889,201.74 C108.826174,200.491866 108.224632,199.282098 107.538889,198.12 L107.538889,198.12 Z" id="Path" fill="#C4C3C6"></path>
            <path d="M65.2788889,182.19 L64.7888889,197.07 C61.7540333,196.931472 58.7226828,197.411181 55.8788889,198.48 C55.8788889,198.48 56.6388889,201.09 55.3388889,201.42 C54.0388889,201.75 48.9788889,202.53 48.9788889,202.53 L49.3388889,202.99 C49.3388889,202.99 55.4088889,206.34 58.7788889,204.73 C61.5088889,203.42 65.0388889,201.73 72.7788889,201.85 C80.5188889,201.97 84.5488889,206.08 89.4388889,205.7 C94.3288889,205.32 100.528889,203.81 101.828889,202.18 C101.828889,202.18 100.418889,200 94.8788889,199.68 C89.3388889,199.36 88.2488889,199.35 87.4888889,196.09 C87.4888889,196.09 80.4888889,195.87 76.6188889,197.09 C76.6188889,197.09 72.6188889,179.09 72.2188889,179.09 C71.8188889,179.09 66.5788889,180.12 65.2788889,182.19 Z" id="Path" fill="#C4C3C6"></path>
            <path d="M34.3588889,165.6 C36.5388889,164.84 61.0788889,146.32 61.0788889,146.32 C59.6588889,148.39 44.2888889,160.32 44.2888889,160.32 C44.2888889,160.32 45.0388889,160.55 47.2888889,159.57 C49.5388889,158.59 63.8788889,149.73 64.2088889,149.4 L58.7888889,155.33 L66.0088889,150.51 C67.6970663,150.897192 69.4275592,151.068561 71.1588889,151.02 C69.6380393,152.554387 68.2403855,154.20616 66.9788889,155.96 C69.9788889,153.68 73.8588889,150.74 73.8588889,150.74 L76.7188889,150.74 C75.929266,152.313034 74.9702499,153.79515 73.8588889,155.16 L79.6988889,153.23 L78.1388889,155.42 C80.7288889,153.49 86.2488889,151.64 86.2488889,151.64 C85.1588889,152.3 78.9588889,158.43 78.9588889,158.43 C80.4888889,156.8 94.0388889,148.73 94.0388889,148.73 L95.2888889,148.53 C94.5288889,149.4 91.3888889,153.81 91.3888889,153.81 L96.7388889,148.59 C98.1096095,148.001375 99.5468258,147.581628 101.018889,147.34 C101.018889,147.34 98.8888889,154.34 98.0188889,159.34 C97.0788889,164.53 99.6388889,172.89 99.6388889,172.89 C97.922863,173.893609 96.0603209,174.622429 94.1188889,175.05 C91.9288889,171.7 85.0388889,164.8 85.0388889,164.8 L87.7288889,158.8 C84.5808791,161.797307 80.7662999,164.004485 76.5988889,165.24 C76.0088889,165.24 75.4388889,160.24 75.4388889,160.24 C73.4388889,162.24 70.6588889,174.37 70.6588889,174.37 C70.2288889,175.37 67.1388889,175.97 65.8388889,175.86 C64.5388889,175.75 63.3788889,173.8 63.3788889,173.8 L66.2288889,172.63 L61.9988889,171.76 C60.6988889,171.22 56.8988889,166.05 56.8988889,166.05 C57.1088889,165.42 67.4088889,159.3 67.4088889,159.3 L55.8088889,164.67 L34.3588889,165.6 Z" id="Path" fill="#C4C3C6"></path>
            <path d="M128.678889,196.12 L129.498889,197.43 C133.605926,196.809274 137.801993,197.602648 141.398889,199.68 C140.278222,196.944707 137.614852,195.15859 134.658889,195.16 C128.328889,194.78 128.678889,196.12 128.678889,196.12 Z" id="Path" fill="#FFFFFF"></path>
            <path d="M79.9688889,111.14 C69.0788889,120.89 38.7988889,138.97 38.7988889,138.97 C38.7988889,138.97 47.5788889,143.46 62.9388889,135.78 C78.2988889,128.1 92.6288889,113.47 94.1188889,111.41 L86.4288889,116.21 L91.4988889,111.08 C91.4988889,111.08 89.3488889,111.38 88.0888889,111.41 L74.8088889,119.41 C78.3588889,117.54 85.7388889,111.41 85.7388889,111.41 L79.9688889,111.14 Z" id="Path" fill="#FFFFFF"></path>
            <path d="M61.0688889,129.83 C61.0688889,129.83 76.3688889,121.6 79.0188889,119.66 C79.0188889,119.66 71.0188889,127.56 64.1588889,130.39 C60.5070042,132.017603 56.6355668,133.09918 52.6688889,133.6 L61.0688889,129.83 Z" id="Path" fill="#010101"></path>
            <path d="M4.12888889,178.12 C4.12888889,178.12 5.84888889,173.91 6.72888889,171.27 C6.94888889,170.62 25.4188889,150.95 34.5488889,146.27 L35.8488889,146.27 C26.4288889,154.34 27.6588889,153.54 25.2388889,155.84 C25.2388889,155.84 41.3988889,144.21 43.5788889,143.45 C43.5788889,143.45 38.7888889,148.77 37.5788889,149.86 C37.5788889,149.86 49.3288889,144.45 50.9588889,143.58 C50.1366854,144.731026 49.2237773,145.814477 48.2288889,146.82 C48.2288889,146.82 64.3988889,139.12 65.8188945,138.58 C65.8388889,138.6 12.4888889,177.6 4.12888889,178.12 Z" id="Path" fill="#C4C3C6"></path>
            <path d="M19.8288889,162.2 C22.2635423,160.679944 24.6013811,159.01006 26.8288889,157.2 C28.2788889,155.75 30.0888889,156.2 26.8288889,159.08 C23.5688889,161.96 22.5988889,162.84 19.8288889,163.08 C17.0588889,163.32 19.8288889,162.2 19.8288889,162.2 Z" id="Path" fill="#010101"></path>
            <path d="M91.4488889,195.71 C91.4488889,195.71 91.3188889,196.96 92.2088889,197.15 C93.5788889,197.44 98.3488889,196.58 104.308889,200.15 C104.308889,200.15 104.908889,199.28 102.308889,197.06 C99.7088889,194.84 93.4088889,194.91 91.4488889,195.71 Z" id="Path" fill="#FFFFFF"></path>
            <path d="M43.0688889,202.74 C43.0688889,202.74 43.6088889,199.74 44.4688889,199.28 C45.3288889,198.82 51.3088889,198.46 52.3088889,198.66 C52.3088889,198.66 53.1088889,199.51 52.7788889,199.82 C52.4488889,200.13 46.8688889,200.65 45.9388889,201.51 C45.1883632,202.291883 44.1526842,202.735746 43.0688889,202.74 L43.0688889,202.74 Z" id="Path" fill="#FFFFFF"></path>
            <path d="M64.7888889,197.07 C66.4348685,197.109951 68.0700167,197.34834 69.6588889,197.78 C69.6588889,197.78 65.8388889,194.78 63.9588889,194.97 L64.7888889,197.07 Z" id="Path" fill="#010101"></path>
            <path d="M32.1888889,143.09 C32.1888889,143.09 30.3988889,142.61 30.4788889,141.09 L25.5488889,144.23 L31.1588889,139.23 L30.1588889,138.69 C29.2888889,139.23 20.5988889,145.86 20.5988889,145.86 L27.9488889,138.61 C27.2833721,138.665375 26.6144057,138.665375 25.9488889,138.61 C24.0988889,139.8 8.84888889,154.18 6.45888889,158.42 C4.06888889,162.66 5.77888889,168.42 5.77888889,168.42 C5.77888889,168.42 19.5788889,153.18 32.1888889,143.09 Z" id="Path" fill="#C4C3C6"></path>
            <path d="M23.6388889,137.85 C23.6388889,137.85 10.6388889,148.09 5.71888889,156.41 C5.71888889,156.41 4.27888889,155.12 5.21888889,151.79 C6.15888889,148.46 14.7488889,139.4 16.4088889,138.25 L14.2888889,142.56 L19.3688889,137.92 C20.7858635,138.139411 22.2298675,138.115739 23.6388889,137.85 L23.6388889,137.85 Z" id="Path" fill="#C4C3C6"></path>
            <path d="M64.5188889,32.18 C64.5188889,32.18 59.9288889,24.78 59.6188889,22.41 C63.783717,20.713051 68.265835,19.9353319 72.7588889,20.13 C72.7588889,20.13 71.8888889,11.89 73.8988889,9.75 C73.8988889,9.75 83.1188889,13.13 85.8988889,15.11 C85.8988889,15.11 85.4288889,5.78 88.8988889,4.29 C88.8988889,4.29 96.8988889,8.66 97.3588889,11.97 C97.3588889,11.97 98.7988889,4.55 102.488889,3.32 C104.406623,5.4819207 106.202726,7.74874931 107.868889,10.11 C107.868889,10.11 111.408889,1.11 114.408889,-6.82121026e-13 C114.408889,-6.82121026e-13 120.128889,5.89 120.648889,8.61 C120.648889,8.61 120.908889,5.47 126.648889,3.32 C126.648889,3.32 132.648889,9.18 132.378889,12.61 C132.378889,12.61 135.378889,5.99 139.258889,5.22 C139.258889,5.22 144.328889,6.68 144.438889,13.22 C144.438889,13.22 148.878889,9.58 151.958889,8.4 C151.958889,8.4 156.818889,13.75 156.078889,16.82 C156.078889,16.82 161.018889,14.58 164.158889,15.27 C164.158889,15.27 166.728889,19.27 164.488889,25.54 C164.488889,25.54 172.998889,24.75 174.678889,26.59 C174.678889,26.59 172.238889,34.59 170.978889,35.07 C170.978889,35.07 177.628889,37.63 178.888889,39.52 C178.888889,39.52 173.378889,45.66 172.118889,46.29 L177.678889,53.59 C177.678889,53.59 174.398889,58.14 171.568889,58.14 C171.568889,58.14 173.198889,64.34 173.028889,68.43 C173.028889,68.43 166.588889,68.94 164.438889,67.2 C164.438889,67.2 165.378889,72.14 164.908889,74.98 C164.908889,74.98 158.008889,74.36 156.908889,72.47 C156.908889,72.47 154.958889,79.82 153.068889,81.39 C153.068889,81.39 147.698889,77.89 147.228889,76 C147.228889,76 146.378889,80.45 144.008889,81.71 C144.008889,81.71 137.488889,76.83 137.798889,75.26 C137.798889,75.26 136.378889,81.08 133.708889,81.39 C133.708889,81.39 129.608889,77.46 129.608889,75.39 C129.608889,75.39 128.358889,79.17 126.308889,79.33 C126.308889,79.33 122.848889,76.18 122.058889,74.33 C122.058889,74.33 118.118889,80.78 116.388889,81.41 C116.388889,81.41 109.778889,74.17 108.988889,72.28 C108.988889,72.28 107.728889,76.92 105.988889,78.07 C104.813222,77.271334 103.843422,76.2055822 103.158889,74.96 C103.158889,74.96 100.638889,80.31 99.0688889,80.63 C99.0688889,80.63 95.9188889,79.63 94.9688889,78.07 C93.6547566,79.5824956 91.974513,80.7324984 90.0888889,81.41 C88.6629461,80.1383976 87.4418944,78.6542463 86.4688889,77.01 C86.4688889,77.01 82.6888889,80.63 80.0188889,80.63 C80.0188889,80.63 77.1788889,76.22 77.6588889,74.02 C77.6588889,74.02 71.5588889,77.65 67.6588889,77.49 C67.6588889,77.49 65.8988889,72.61 66.5288889,70.56 C66.5288889,70.56 61.7288889,70.21 60.3188889,69.43 C60.3188889,69.43 58.3888889,63.37 61.4488889,59.79 C61.4488889,59.79 53.3388889,54.56 52.3788889,52.36 C55.2859428,49.6426131 58.4972368,47.2702151 61.9488889,45.29 L52.9488889,37.47 C56.3465113,34.8388612 60.3061828,33.0284323 64.5188889,32.18 L64.5188889,32.18 Z" id="Path" fill="#010101"></path>
            <path d="M107.848889,64.95 C107.848889,64.95 114.378889,78.49 116.118889,79.79 C116.118889,79.79 121.618889,68.19 122.568889,64.08 C122.568889,64.08 117.928889,57.78 115.938889,54.84 C115.938889,54.84 110.868889,62.6 107.848889,64.95 Z" id="Path" fill="#C4C3C6"></path>
            <path d="M139.758889,64.08 C139.758889,64.08 156.248889,62.74 160.258889,47.14 C164.268889,31.54 146.888889,22.99 139.758889,23.0298603 C132.628889,23.07 117.918889,30.66 118.758889,44.25 C119.598889,57.84 130.848889,63.6 139.758889,64.08 Z" id="Path" fill="#FFFFFF"></path>
            <path d="M139.768889,61.66 C139.768889,61.66 154.308889,60.48 157.848889,46.72 C161.388889,32.96 146.058889,25.42 139.768889,25.4499108 C133.478889,25.48 120.508889,32.19 121.288889,44.17 C122.068889,56.15 131.908889,61.26 139.768889,61.66 Z" id="Path" fill="#C4C3C6"></path>
            <path d="M139.778889,59.24 C139.778889,59.24 152.378889,58.24 155.438889,46.3 C158.498889,34.36 145.218889,27.84 139.778889,27.8698969 C134.338889,27.9 123.088889,33.71 123.778889,44.09 C124.468889,54.47 132.958889,58.9 139.778889,59.24 Z" id="Path" fill="#FFFFFF"></path>
            <path d="M138.278889,56.1 C138.278889,56.1 145.488889,55.28 147.048889,53.5 C147.048889,53.5 155.208889,46.5 152.538889,40.89 C152.538889,40.89 148.308889,32.89 144.388889,31.96 C140.468889,31.03 132.008889,31.49 129.968889,37.76 C127.928889,44.03 126.068889,51.87 138.278889,56.1 Z" id="Path" fill="#010101"></path>
            <path d="M149.358889,51.15 C149.358889,51.15 142.858889,54 138.038889,51.77 C135.063015,50.2964781 132.783291,47.7151834 131.688889,44.58 C131.688889,44.58 130.628889,50.42 135.808889,52.58 C140.988889,54.74 146.808889,54.67 148.498889,52.58 C149.948889,50.79 149.358889,51.15 149.358889,51.15 Z" id="Path" fill="#FFFFFF"></path>
            <path d="M91.4388889,64.79 C91.4388889,64.79 108.088889,63.44 112.138889,47.69 C116.188889,31.94 98.6388889,23.3 91.4388889,23.3497842 C84.2388889,23.4 69.4388889,31.05 70.2988889,44.77 C71.1588889,58.49 82.4388889,64.34 91.4388889,64.79 Z" id="Path" fill="#FFFFFF"></path>
            <path d="M91.4488889,62.34 C91.4488889,62.34 106.128889,61.15 109.698889,47.26 C113.268889,33.37 97.7988889,25.76 91.4488889,25.7899116 C85.0988889,25.82 71.9988889,32.59 72.7988889,44.69 C73.5988889,56.79 83.5088889,61.94 91.4488889,62.34 Z" id="Path" fill="#C4C3C6"></path>
            <path d="M91.4588889,60.02 C91.4588889,60.02 104.268889,59.02 107.388889,46.85 C110.508889,34.68 96.9988889,28.08 91.4588889,28.1198192 C85.9188889,28.16 74.4588889,34.05 75.1688889,44.61 C75.8788889,55.17 84.5288889,59.67 91.4588889,60.02 Z" id="Path" fill="#FFFFFF"></path>
            <path d="M89.9388889,56.73 C89.9388889,56.73 97.2188889,55.91 98.7988889,54.1 C98.7988889,54.1 107.028889,47.1 104.338889,41.38 C104.338889,41.38 100.068889,33.31 96.1088889,32.38 C92.1488889,31.45 83.6088889,31.9 81.5588889,38.23 C79.5088889,44.56 77.5988889,52.45 89.9388889,56.73 Z" id="Path" fill="#010101"></path>
            <path d="M101.128889,51.74 C101.128889,51.74 94.5688889,54.61 89.7088889,52.36 C86.7018404,50.875534 84.3994042,48.2677825 83.2988889,45.1 C83.2988889,45.1 82.2288889,51 87.4488889,53.22 C92.6688889,55.44 98.6088889,55.32 100.268889,53.22 C101.728889,51.37 101.128889,51.74 101.128889,51.74 Z" id="Path" fill="#FFFFFF"></path>
            <path d="M116.818889,24.79 C116.818889,24.79 111.188889,25.03 111.608889,28.79 C111.684717,30.0330954 112.3135,31.1768281 113.322461,31.9069204 C114.331421,32.6370127 115.614412,32.8766558 116.818889,32.56 C116.818889,32.56 119.378889,32.38 119.818889,28.79 C119.978995,27.8576731 119.748102,26.9005581 119.180517,26.1437785 C118.612933,25.386999 117.758753,24.8973492 116.818889,24.79 Z" id="Path" fill="#C4C3C6"></path>
            <path d="M76.7588889,107.99 C76.7588889,107.99 37.1388889,132.88 35.7588889,133.12 C32.6742171,133.474765 29.5541294,133.373682 26.4988889,132.82 C29.8288889,131.15 50.8988889,112.1 50.8988889,112.1 L53.0888889,111.76 C52.6788889,112.59 44.1988889,120.66 44.1988889,120.66 C45.5888889,119.42 55.5988889,111.76 55.5988889,111.76 L57.6788889,111.2 C56.8488889,112.2 51.2888889,117.04 51.2888889,117.04 L58.3688889,111.9 L59.9088889,110.78 C60.7753165,110.586204 61.661086,110.492258 62.5488889,110.5 L57.5488889,114.82 L63.9588889,110.63 L76.7588889,107.99 Z" id="Path" fill="#FFFFFF"></path>
            <path d="M78.4888889,78.4 C79.0888889,79.15 78.1288889,80.19 78.1288889,80.19 C79.4488889,79.13 80.5088889,78.43 80.5088889,78.43 C80.6488889,79.49 82.1488889,85.1 83.2088889,84.7 C84.2688889,84.3 87.2088889,80.88 87.2088889,80.88 L87.0788889,84.46 L88.5488889,80.21 L89.4288889,79.69 C89.4288889,79.69 91.0888889,85.46 92.2788889,85.46 C93.4688889,85.46 96.6288889,81.99 96.6288889,81.99 L96.8888889,85.78 C97.1488889,84.72 98.5688889,80.95 98.5688889,80.95 C98.8388889,82.27 102.148889,83.95 102.148889,83.95 C102.148889,83.95 102.658889,88.95 103.048889,87.77 C103.348889,86.86 105.098889,83.58 105.098889,83.58 C108.928889,90.05 101.988889,100.1 101.988889,100.1 C97.6088889,100.1 98.6388889,91.68 98.6388889,91.68 C98.5088889,92.34 92.5288889,96.62 89.7288889,97 C87.8288889,97.26 88.6188889,89.15 88.6188889,89.15 C87.9588889,90.61 78.9888889,93.72 76.2088889,93.45 C73.4288889,93.18 77.6988889,86.25 77.6988889,86.25 C77.6988889,86.25 59.1188889,90.65 65.1488889,84.25 C68.9088889,80.14 77.7488889,77.47 78.4888889,78.4 Z" id="Path" fill="#FFFFFF"></path>
            <path d="M39.5488889,110.18 C39.8288889,109.98 32.7988889,118.43 32.7988889,118.43 L41.0288889,110.2 L41.7988889,111.71 C42.4277032,112.318836 43.1678346,112.80094 43.9788889,113.13 C42.1988889,115.38 17.2488889,133.56 17.2488889,133.56 C18.0888889,134.12 20.2488889,135.38 20.2488889,135.38 L19.6688889,135.91 C17.893087,135.699869 16.2034997,135.027483 14.7688889,133.96 C14.7688889,133.96 25.9288889,119.66 39.5488889,110.18 Z" id="Path" fill="#FFFFFF"></path>
            <path d="M70.5088889,100.96 C69.1627888,102.563531 67.589485,103.961649 65.8388889,105.11 C65.8388889,105.11 68.6888889,100.3 68.0488889,100.83 C66.8798065,101.191403 65.6769181,101.432651 64.4588889,101.55 C64.4588889,101.55 60.6188889,105.63 56.6488889,106.45 C56.6488889,106.45 56.9788889,106.19 55.4488889,108.15 C55.4488889,108.15 65.6288889,108.44 70.2888889,105.25 C70.1790074,103.816469 70.2529407,102.37477 70.5088889,100.96 L70.5088889,100.96 Z" id="Path" fill="#FFFFFF"></path>
            <path d="M91.1988889,122.74 L93.3288889,119.98 C93.3288889,119.98 91.3288889,120.08 89.9788889,119.98 C89.9788889,119.98 87.3388889,124.24 89.9788889,125.46 C89.9788889,125.46 93.6288889,125.86 95.4588889,124.24 C94.6978596,123.20737 94.1474085,122.035113 93.8388889,120.79 C93.8388889,120.79 92.1088889,122.72 91.7088889,123.22 L91.1988889,122.74 Z" id="Path" fill="#C4C3C6"></path>
            <path d="M70.0688889,143.7 L72.1888889,139.81 C72.1888889,139.81 69.6588889,140.34 67.9888889,140.48 C67.9888889,140.48 65.5288889,146.35 69.0788889,147.35 C69.0788889,147.35 74.8388889,146.76 76.8088889,144.35 C76.8088889,144.35 73.3788889,142.35 72.9888889,140.71 C72.9888889,140.71 71.2088889,143.48 70.7988889,144.19 L70.0688889,143.7 Z" id="Path" fill="#C4C3C6"></path>
            <path d="M82.8788889,142.41 C82.8788889,142.41 81.8788889,147.18 85.2388889,148.13 C85.2388889,148.13 89.6388889,147.92 91.4988889,145.65 C90.4639864,144.157218 89.6049612,142.549902 88.9388889,140.86 L82.8788889,142.41 Z" id="Path" fill="#C4C3C6"></path>
            <path d="M74.8988889,98.4 C74.8988889,98.4 74.8288889,105.4 78.1288889,105.6 C81.4288889,105.8 84.8488889,102.19 84.8488889,102.19 C84.1459614,100.413786 83.5972685,98.5803488 83.2088889,96.71 C83.2088889,96.71 75.8988889,98.4 74.8988889,98.4 Z" id="Path" fill="#FFFFFF"></path>
            <path d="M143.778889,68.95 C145.498889,72.52 142.348889,76.08 142.348889,76.08 C139.688889,75.56 137.548889,69.86 137.548889,69.86 L143.778889,68.95 Z" id="Path" fill="#C4C3C6"></path>
            <path d="M125.268889,67.32 L126.568889,68.14 C126.692522,69.3677071 126.445207,70.6042833 125.858889,71.69 C124.738889,71.39 124.488889,69.83 124.488889,69.83 L125.268889,67.32 Z" id="Path" fill="#C4C3C6"></path>
            <path d="M146.818889,68.51 C146.818889,68.51 149.168889,73.2 151.598889,73.51 C151.598889,73.51 153.688889,68.93 152.048889,66.73 C150.383963,67.5326744 148.627797,68.1303752 146.818889,68.51 Z" id="Path" fill="#C4C3C6"></path>
            <path d="M124.698889,198.6 C124.698889,199.08 119.438889,198.3 116.158889,199.53 C112.878889,200.76 113.378889,196.69 116.568889,196.71 C119.758889,196.73 124.758889,196.6 124.698889,198.6 Z" id="Path" fill="#FFFFFF"></path>
            <path d="M87.4088889,198.53 C87.4688889,199.12 81.8288889,197.89 78.7788889,200.03 C75.7288889,202.17 75.9388889,198.33 79.0888889,197.74 C82.2388889,197.15 87.1588889,196 87.4088889,198.53 Z" id="Path" fill="#FFFFFF"></path>
            <path d="M109.548889,98.37 C109.398889,98.37 110.858889,94.31 110.838889,93.66 C110.818889,93.01 112.518889,94.12 114.138889,94.66 C114.588889,94.81 112.548889,98.83 109.548889,98.37 Z" id="Path" fill="#C4C3C6"></path>
            <path d="M102.508889,134.6 L94.7988889,137.15 C94.7988889,137.15 95.7088889,142.59 97.2788889,144.63 C97.2788889,144.63 100.778889,144.56 106.158889,138.83 C106.158889,138.83 102.588889,135.6 102.508889,134.6" id="Path" fill="#C4C3C6"></path>
            <path d="M84.1388889,125.83 L78.1388889,130.19 C78.1388889,130.19 78.5388889,131.48 82.5388889,130.19 C86.5388889,128.9 84.6788889,128.19 84.1388889,125.83 Z" id="Path" fill="#C4C3C6"></path>
            <path d="M107.368889,102.19 L105.208889,105.5 C105.208889,105.5 106.008889,105.98 107.588889,104.85 C109.168889,103.72 107.928889,103.34 107.368889,102.19 Z" id="Path" fill="#C4C3C6"></path>
            <path d="M96.5088889,170.25 C96.5088889,170.25 93.0888889,171.88 92.1688889,165.09 C91.2488889,158.3 93.1688889,156.09 95.2988889,152.97 C97.4288889,149.85 99.7588889,150.22 97.7288889,154.24 C95.1038447,159.171998 94.6614754,164.97719 96.5088889,170.25 Z" id="Path" fill="#FFFFFF"></path>
            <path d="M69.8288889,173.04 C69.8288889,173.04 66.5388889,173.26 67.2488889,168.25 C67.9588889,163.24 68.8988889,161.4 71.3988889,159.76 C73.8988889,158.12 74.3988889,158.45 73.0688889,161.61 C71.3596581,165.212891 70.2645742,169.076104 69.8288889,173.04 Z" id="Path" fill="#FFFFFF"></path>
            <path d="M66.4088889,36.07 C65.1988889,35.89 61.4088889,39.07 61.4088889,39.07 C62.0988889,40.49 65.1288889,43.07 65.1288889,43.07 L66.4088889,36.07 Z" id="Path" fill="#C4C3C6"></path>
            <path d="M113.218889,19.77 C113.148121,17.7856121 112.675238,15.8362452 111.828889,14.04 C111.828889,14.04 113.208889,10.23 114.898889,9.97 C116.320568,11.8482263 117.440689,13.9366444 118.218889,16.16 C118.118039,17.1164657 118.084623,18.0788428 118.118889,19.04 C116.450927,18.8962862 114.772527,19.1463336 113.218889,19.77 L113.218889,19.77 Z" id="Path" fill="#C4C3C6"></path>
            <path d="M116.118889,70.22 C116.118889,70.22 118.778889,64.08 120.328889,61.02 L115.938889,54.84 L116.118889,70.22 Z" id="Path" fill="#FFFFFF"></path>
            <path d="M129.938889,116.54 C130.938889,116.1 135.558889,111.54 135.558889,111.54 C133.648889,112.07 131.838889,109.7 131.838889,109.7 C131.068889,110.6 128.918889,116.97 129.938889,116.54 Z" id="Path" fill="#C4C3C6"></path>
            <path d="M120.488889,124.42 C122.094271,123.17572 123.626799,121.840184 125.078889,120.42 C123.791075,120.634281 122.476703,120.634281 121.188889,120.42 C120.698889,120.92 119.858889,124.67 120.488889,124.42 Z" id="Path" fill="#C4C3C6"></path>
            <path d="M110.998889,134.17 C111.758889,134.49 115.938889,128.3 115.938889,128.3 C113.985977,129.775072 111.830432,130.960622 109.538889,131.82 C109.40248,132.851356 110.013833,133.835384 110.998889,134.17 Z" id="Path" fill="#C4C3C6"></path>
            <path d="M116.808889,29.01 C116.808889,29.01 116.738889,30.59 117.558889,30.78 C118.378889,30.97 118.798889,28.72 118.708889,27.99 C118.568889,26.99 117.708889,25.24 115.238889,26.09 C112.768889,26.94 112.658889,27.34 113.168889,28.01 C113.678889,28.68 115.968889,26.23 116.808889,29.01 Z" id="Path" fill="#FFFFFF"></path>
            <path d="M58.3188889,142.22 L65.4988889,138.9 C65.4988889,138.9 12.1188889,178 4.49888889,178 L58.3188889,142.22 Z" id="Path" fill="#FFFFFF"></path>
            <path d="M19.0688889,162.73 C20.9124473,162.14545 22.6148959,161.185269 24.0688889,159.91 C25.4988889,158.83 27.5988889,157.74 28.4988889,156.16 C28.5565985,156.053217 28.5466787,155.922578 28.4735072,155.825733 C28.4003356,155.728888 28.2773752,155.683657 28.1588889,155.71 C26.4388889,156.15 24.8788889,157.83 23.4688889,158.89 C22.0588889,159.95 20.3988889,161.07 18.8088889,162.1 C18.6767474,162.194648 18.627156,162.367813 18.6891634,162.518061 C18.7511707,162.66831 18.9084566,162.756097 19.0688889,162.73 L19.0688889,162.73 Z" id="Path" fill="#FFFFFF"></path>
            <path d="M5.72888889,168.27 C5.72888889,168.27 29.5988889,144.02 31.8488889,143.27 C31.4414585,143.099045 31.0554878,142.880888 30.6988889,142.62 C30.6988889,142.62 17.4588889,153.53 5.29888889,165.83 L5.72888889,168.27 Z" id="Path" fill="#FFFFFF"></path>
            <path d="M144.428889,35.13 C144.428889,35.13 140.748889,35.28 141.028889,37.74 C141.079593,38.5501049 141.490748,39.2948275 142.149279,39.7693569 C142.807809,40.2438864 143.644369,40.3982517 144.428889,40.19 C144.428889,40.19 146.098889,40.08 146.368889,37.74 C146.474847,37.1341691 146.327046,36.5114221 145.960151,36.0178165 C145.593257,35.5242109 145.039547,35.2031736 144.428889,35.13 Z" id="Path" fill="#FFFFFF"></path>
            <path d="M96.0688889,35.97 C96.0688889,35.97 92.6088889,36.11 92.8688889,38.43 C92.9187765,39.191786 93.306046,39.8915582 93.9250349,40.3383908 C94.5440238,40.7852234 95.3301361,40.9324862 96.0688889,40.74 C96.0688889,40.74 97.6388889,40.63 97.8988889,38.43 C97.9991297,37.8587049 97.8597748,37.2713381 97.51358,36.8059615 C97.1673852,36.3405849 96.644883,36.0382423 96.0688889,35.97 Z" id="Path" fill="#FFFFFF"></path>
            <path d="M139.188889,40.43 C139.188889,40.43 137.188889,40.52 137.328889,41.86 C137.359344,42.3020082 137.584926,42.7075365 137.944408,42.9665181 C138.30389,43.2254998 138.75998,43.3110686 139.188889,43.2 C139.188889,43.2 140.098889,43.14 140.248889,41.86 C140.306148,41.5286281 140.225236,41.1882621 140.024981,40.9181068 C139.824726,40.6479516 139.522592,40.4715674 139.188889,40.43 L139.188889,40.43 Z" id="Path" fill="#FFFFFF"></path>
            <path d="M90.8288889,40.93 C90.8288889,40.93 88.8288889,41.02 88.9688889,42.36 C88.9993442,42.8020082 89.2249261,43.2075365 89.5844081,43.4665181 C89.9438901,43.7254998 90.3999803,43.8110686 90.8288889,43.7 C90.8288889,43.7 91.7388889,43.64 91.8888889,42.36 C91.9461479,42.0286281 91.8652356,41.6882621 91.6649806,41.4181068 C91.4647257,41.1479516 91.1625924,40.9715674 90.8288889,40.93 Z" id="Path" fill="#FFFFFF"></path>
            <path d="M150.328889,19.77 C148.937772,19.163133 147.465633,18.7622532 145.958889,18.58 C145.958889,18.58 148.248889,15.47 149.668889,14.76 C149.668889,14.76 150.588889,18.7 150.328889,19.77 Z" id="Path" fill="#C4C3C6"></path>
            <path d="M102.868889,69.17 C102.868889,69.17 103.108889,72.99 104.868889,74.88 C104.868889,74.88 107.038889,71.97 106.768889,70.57 L105.598889,67.86 C105.598889,67.86 103.418889,68.95 102.868889,69.17 Z" id="Path" fill="#C4C3C6"></path>
            <path d="M49.3788889,100.11 C49.2588889,102.41 52.8188889,105.27 52.8188889,105.27 C53.3988889,107.76 48.3088889,109.79 46.4488889,109.12 C44.5888889,108.45 45.2388889,103.77 45.2388889,103.77 L49.3788889,100.11 Z" id="Path" fill="#FFFFFF"></path>
            <path d="M53.3888889,97.41 C53.3888889,97.41 54.3888889,100.41 55.8788889,100.48 C57.3688889,100.55 60.1088889,97.85 60.1088889,97.41 C59.3335128,95.9440639 58.9348829,94.3083065 58.9488889,92.65 C58.9488889,92.65 54.9088889,94.7 53.3888889,97.41 Z" id="Path" fill="#FFFFFF"></path>
            <path d="M136.928889,84.67 C136.928889,84.67 139.378889,83.43 139.278889,81.74 C139.278889,81.74 145.078889,85.97 142.088889,87.74 C139.818889,89.16 137.928889,87.15 136.928889,84.67 Z" id="Path" fill="#C4C3C6"></path>
            <path d="M96.3388889,128.3 C96.3388889,128.3 96.6188889,132.23 97.4788889,133.07 C97.4788889,133.07 105.018889,130.97 107.538889,129.5 C107.538889,129.5 105.018889,125.26 105.208889,123.609985 C105.208889,123.6 97.4688889,128.45 96.3388889,128.3 Z" id="Path" fill="#C4C3C6"></path>
            <path d="M79.9888889,130.75 C79.9888889,130.75 79.1688889,136.18 80.7888889,137.91 C80.7888889,137.91 89.7888889,136.52 92.1688889,135.04 C91.1737349,133.282429 90.4966781,131.362973 90.1688889,129.37 C90.1688889,129.37 82.7188889,129.6 79.9888889,130.75 Z" id="Path" fill="#C4C3C6"></path>
            <path d="M108.708889,120.6 C109.425507,122.730597 110.273808,124.814611 111.248889,126.84 C113.513383,125.773259 115.514361,124.219599 117.108889,122.29 C117.108889,122.29 114.768889,117.14 114.758889,115.689984 C114.758889,115.68 109.818889,120.32 108.708889,120.6 Z" id="Path" fill="#C4C3C6"></path>
            <path d="M74.4288889,65.83 C75.7160499,66.7749534 77.0511619,67.6527895 78.4288889,68.46 C78.4288889,68.46 76.2988889,71.46 73.6988889,71.69 C73.6788889,71.69 72.6288889,68.26 74.4288889,65.83 Z" id="Path" fill="#C4C3C6"></path>
            <path d="M63.8888889,91.4 C63.8888889,91.4 63.7988889,97.12 65.4988889,97.8 C67.1458496,97.6681407 68.7569222,97.2484495 70.2588889,96.56 C70.2588889,96.56 68.9988889,93.46 70.2588889,91.03 C70.2588889,91.03 64.6288889,92.06 63.8888889,91.4 Z" id="Path" fill="#FFFFFF"></path>
            <path d="M89.4188889,102.69 C91.3135715,102.056271 93.1642755,101.29795 94.9588889,100.42 C94.9588889,100.42 96.7388889,105.04 97.4288889,105.62 C97.4288889,105.62 90.4288889,107.81 86.5988889,107.16 C86.5988889,107.16 89.3488889,104.22 89.4188889,102.69 Z" id="Path" fill="#FFFFFF"></path>
            <path d="M117.838889,111.69 C117.838889,111.69 119.028889,117.34 122.108889,117.54 C125.188889,117.74 126.608889,111.69 126.608889,111.69 C126.608889,111.69 122.848889,109.25 122.698889,107.8 C122.698889,107.8 119.348889,111.8 117.838889,111.69" id="Path" fill="#C4C3C6"></path>
            <path d="M128.478889,97.8 C128.478889,97.8 126.048889,100.67 124.478889,101.16 C124.478889,101.16 125.758889,106.16 128.358889,106.97 C130.958889,107.78 132.608889,100.11 132.608889,100.11 C132.608889,100.11 129.628889,99.33 128.478889,97.8 Z" id="Path" fill="#C4C3C6"></path>
            <path d="M122.568889,90.48 C122.568889,90.48 124.638889,93.43 126.568889,93.87 C126.568889,93.87 123.828889,98.05 121.188889,97.8 C121.188889,97.8 118.278889,96.01 118.258889,93.18 C118.298889,93.18 121.458889,91.8 122.568889,90.48 Z" id="Path" fill="#C4C3C6"></path>
            <path d="M109.068889,107.6 C109.068889,107.6 111.688889,111.01 113.618889,110.9 C113.618889,110.9 110.668889,114.49 107.838889,114.05 C105.812721,113.436827 104.642526,111.322498 105.198889,109.28 C106.54187,108.850949 107.838374,108.288126 109.068889,107.6 Z" id="Path" fill="#C4C3C6"></path>
            <path d="M101.908889,113.24 C101.908889,113.24 105.168889,117.15 106.278889,117.66 C106.278889,117.66 102.368889,122.24 98.6888889,121.37 C98.6888889,121.37 96.2888889,117.19 98.0888889,113.99 C99.3815669,113.851281 100.659722,113.600334 101.908889,113.24 Z" id="Path" fill="#C4C3C6"></path>
            <path d="M115.938889,99.21 C115.938889,99.15 119.168889,101.53 120.258889,101.66 C120.258889,101.66 118.728889,107.93 115.208889,107.03 C115.208889,107.03 111.888889,106.49 111.948889,101.53 C113.511685,101.253634 114.925637,100.431486 115.938889,99.21 L115.938889,99.21 Z" id="Path" fill="#C4C3C6"></path>
            <path d="M137.068889,90.48 C137.068889,90.48 140.018889,94.35 142.848889,94.15 C142.848889,94.15 140.948889,98.48 137.568889,97.81 C137.568889,97.81 133.748889,97.59 133.058889,94.41 C133.068889,94.41 136.678889,91.68 137.068889,90.48 Z" id="Path" fill="#C4C3C6"></path>
            <path d="M129.068889,81.74 C129.068889,81.74 132.238889,85.19 134.448889,85.62 C134.448889,85.62 131.998889,91.69 129.108889,91.03 C126.218889,90.37 125.598889,86.65 125.598889,86.65 C127.059734,85.2510118 128.237807,83.5840548 129.068889,81.74 Z" id="Path" fill="#C4C3C6"></path>
            <path d="M116.268889,84.28 C116.268889,84.28 119.968889,85.42 121.268889,85.69 C121.268889,85.69 117.958889,90.19 115.218889,89.69 C112.478889,89.19 112.388889,85.69 112.388889,85.69 C113.751431,85.438293 115.062642,84.9617961 116.268889,84.28 Z" id="Path" fill="#C4C3C6"></path>
            <path d="M91.7988889,71.14 C91.7988889,71.14 97.4088889,70.68 98.8888889,69.81 C98.8888889,69.81 98.3588889,76.36 95.3488889,77.93 C93.0881674,76.4173708 91.750931,73.8596707 91.7988889,71.14 Z" id="Path" fill="#C4C3C6"></path>
            <path d="M129.548889,68.46 L134.808889,69.71 C134.808889,69.71 135.808889,74.3 133.038889,76.96 C130.740879,74.7374881 129.475697,71.6560992 129.548889,68.46 Z" id="Path" fill="#C4C3C6"></path>
            <path d="M82.2688889,69.44 C82.2688889,69.44 85.6788889,71.24 88.2688889,71.07 C88.0517543,73.2680396 86.8915614,75.2637174 85.0888889,76.54 C83.578641,74.4416204 82.6099648,72.002755 82.2688889,69.44 L82.2688889,69.44 Z" id="Path" fill="#C4C3C6"></path>
            <path d="M134.998889,106.05 C134.998889,106.05 137.458889,107.76 138.798889,107.8 C138.798889,107.8 142.198889,103.6 142.388889,102.19 C142.388889,102.19 137.928889,103.19 136.928889,102.41 C136.928889,102.41 136.458889,105.21 134.998889,106.05 Z" id="Path" fill="#C4C3C6"></path>
            <path d="M154.538889,65.83 C156.147091,65.0079482 157.653936,64.0011476 159.028889,62.83 C159.028889,62.83 161.728889,66.02 160.758889,68.99 C158.289178,69.0360887 155.958042,67.8517816 154.538889,65.83 L154.538889,65.83 Z" id="Path" fill="#C4C3C6"></path>
            <path d="M71.7988889,63.11 C71.7988889,63.11 69.0288889,60.11 68.3688889,58.41 C67.1811257,60.2190776 66.4912787,62.309314 66.3688889,64.47 C66.3688889,64.47 70.5588889,64.13 71.7988889,63.11 Z" id="Path" fill="#C4C3C6"></path>
            <path d="M48.9788889,168.35 C48.9788889,168.35 99.4888889,119.54 105.608889,103.7 C105.608889,103.7 53.4288889,156.7 30.4788889,166.24 L48.9788889,168.35 Z" id="Path" fill="#010101"></path>
            <path d="M89.7488889,18.32 C91.6339915,18.3840104 93.5089044,18.6250707 95.3488889,19.04 C95.3488889,19.04 93.4788889,13.93 91.4988889,12.69 C91.4988889,12.69 89.4588889,15.65 89.7488889,18.32 Z" id="Path" fill="#C4C3C6"></path>
            <path d="M68.5788889,30.79 C68.5788889,30.79 71.8888889,25.26 73.6788889,24.55 C73.6788889,24.55 68.1988889,24.9 67.2388889,25.08 C67.2388889,25.08 67.5688889,30.34 68.5788889,30.79 Z" id="Path" fill="#C4C3C6"></path>
            <path d="M77.9888889,22.11 C77.9888889,22.11 79.3088889,20.52 84.1788889,19.04 C84.1788889,19.04 80.6788889,16.86 78.9688889,15.96 C78.3948105,17.962846 78.0657416,20.0279213 77.9888889,22.11 Z" id="Path" fill="#C4C3C6"></path>
            <path d="M155.208889,22.18 C155.208889,22.18 159.758889,25.02 160.408889,26.38 C160.724125,24.1894528 160.91111,21.982359 160.968889,19.77 C158.874992,20.0697358 156.892341,20.8992827 155.208889,22.18 L155.208889,22.18 Z" id="Path" fill="#C4C3C6"></path>
            <path d="M163.728889,55.92 C163.728889,55.92 161.928889,59.72 160.728889,60.21 C160.728889,60.21 162.518889,63.68 166.608889,61.66 C166.873425,59.3446068 165.743197,57.0920009 163.728889,55.92 Z" id="Path" fill="#C4C3C6"></path>
            <path d="M164.948889,52.93 C166.907674,52.8334602 168.852972,52.5522124 170.758889,52.09 C170.758889,52.09 168.848889,48.09 166.828889,46.84 C166.381097,48.9209609 165.75203,50.9587364 164.948889,52.93 L164.948889,52.93 Z" id="Path" fill="#C4C3C6"></path>
            <path d="M165.698889,37.7 C165.698889,37.7 167.188889,41.7 166.698889,44.07 C166.698889,44.07 170.498889,42.57 171.958889,40.43 C171.938889,40.43 168.908889,37.82 165.698889,37.7 Z" id="Path" fill="#C4C3C6"></path>
            <path d="M162.648889,29.65 C163.665065,31.0815345 164.539203,32.6087637 165.258889,34.21 C166.541624,32.7533185 167.708513,31.1985815 168.748889,29.56 C166.724688,29.250733 164.663085,29.2811501 162.648889,29.65 L162.648889,29.65 Z" id="Path" fill="#C4C3C6"></path>
            <path d="M123.488889,23.35 C123.488889,23.35 127.598889,20.4 130.398889,18.83 C129.430452,16.247726 127.748531,13.9936055 125.548889,12.33 C125.548889,12.33 122.188889,15.6 123.488889,23.35 Z" id="Path" fill="#C4C3C6"></path>
            <path d="M134.398889,17.91 C136.443067,17.7672519 138.494711,17.7672519 140.538889,17.91 C140.718364,15.6208125 139.972767,13.3552062 138.468889,11.62 C136.52437,13.2718429 135.108913,15.4593667 134.398889,17.91 Z" id="Path" fill="#C4C3C6"></path>
            <path d="M66.8388889,54.18 C66.8388889,54.18 65.0388889,49.18 65.2688889,47.65 C63.6969652,49.1979623 62.2522929,50.8700367 60.9488889,52.65 C60.9488889,52.65 64.3688889,54.51 66.8388889,54.14" id="Path" fill="#C4C3C6"></path>
            <path d="M100.538889,20.13 C103.18858,20.7463924 105.802499,21.5075337 108.368889,22.41 C108.368889,22.41 106.168889,15.3 103.268889,12.33 C103.268889,12.33 100.188889,16.6 100.538889,20.13 Z" id="Path" fill="#C4C3C6"></path>
        </g>
    </g>
</svg>