<?xml version="1.0" encoding="UTF-8"?>
<svg width="129px" height="280px" viewBox="0 0 129 280" version="1.1" xmlns="http://www.w3.org/2000/svg" xmlns:xlink="http://www.w3.org/1999/xlink">
    <!-- Generator: Sketch 61 (89581) - https://sketch.com -->
    <title>block height</title>
    <desc>Created with Sketch.</desc>
    <g id="Illustrations" stroke="none" stroke-width="1" fill="none" fill-rule="evenodd">
        <g id="Other" transform="translate(-693.000000, -1357.000000)">
            <g id="block-height" transform="translate(757.500000, 1496.618204) rotate(-300.000000) translate(-757.500000, -1496.618204) translate(634.000000, 1390.618204)">
                <path d="M239.098399,98.8606552 C243.912693,101.63347 246.877664,106.76635 246.873067,112.319947 L246.82665,168.326006 C246.82206,173.865247 243.863798,178.981823 239.064533,181.751277 L190.421245,209.821273 C185.621979,212.590727 179.709519,212.593072 174.907671,209.827425 L8.64773451,113.939371 C3.83344066,111.166556 0.868470115,106.033677 0.873066959,100.480079 L0.919483798,44.4740201 C0.924074095,38.9347793 3.88233545,33.8182038 8.6816011,31.0487494 L57.3248891,2.9787534 C62.1241548,0.209299 68.0366145,0.20695442 72.8384629,2.9726015 L239.098399,98.8606552 Z" id="Polygon" fill="#000000"></path>
                <path d="M231.186058,171.165986 C234.658038,173.159079 235.027337,176.192806 232.010911,177.942004 L188.044039,203.437994 C185.027613,205.187192 179.76772,204.989476 176.29574,202.996383 L132.918369,178.095565 C129.446389,176.102471 129.07709,173.068745 132.093516,171.319547 L176.060388,145.823557 C179.076814,144.074359 184.336707,144.272074 187.808687,146.265168 L231.186058,171.165986 Z" id="Rectangle" fill="#FFFFFF"></path>
                <path d="M172.296331,137.165986 C175.768311,139.159079 176.13761,142.192806 173.121183,143.942004 L129.154312,169.437994 C126.137885,171.187192 120.877993,170.989476 117.406013,168.996383 L74.0286412,144.095565 C70.5566614,142.102471 70.1873624,139.068745 73.2037888,137.319547 L117.17066,111.823557 C120.187087,110.074359 125.446979,110.272074 128.918959,112.265168 L172.296331,137.165986 Z" id="Rectangle-Copy" fill="#FFFFFF"></path>
                <path d="M113.406604,103.165986 C116.878583,105.159079 117.247882,108.192806 114.231456,109.942004 L70.2645843,135.437994 C67.2481579,137.187192 61.9882654,136.989476 58.5162855,134.996383 L15.1389138,110.095565 C11.6669339,108.102471 11.2976349,105.068745 14.3140613,103.319547 L58.280933,77.823557 C61.2973594,76.0743587 66.5572519,76.2720745 70.0292318,78.2651676 L113.406604,103.165986 Z" id="Rectangle-Copy-2" fill="#FFFFFF"></path>
                <path d="M120.955771,97.8455417 C120.973126,101.838166 118.546808,103.665286 115.536344,101.92653 L71.6563788,76.5827376 C68.6459148,74.843981 66.1913067,70.1977792 66.1738583,66.2051552 L65.9557714,16.3230874 C65.9384164,12.3304634 68.3647349,10.5033429 71.375199,12.2420994 L115.255164,37.5858916 C118.265628,39.3246481 120.720236,43.97085 120.737684,47.9634739 L120.955771,97.8455417 Z" id="Rectangle-Copy-3" fill="#C4C3C6"></path>
                <path d="M182.369201,81.9986946 C182.333703,77.9587967 184.817403,76.1208474 187.917085,77.8935199 L233.691759,104.12313 C236.791442,105.895802 239.333319,110.607822 239.369201,114.64772 L239.266052,165.437884 C239.301934,169.477782 236.818234,171.315731 233.718552,169.543058 L188.654604,143.271073 C185.554922,141.498401 183.013045,136.786381 182.977162,132.746483 L182.369201,81.9986946 Z" id="Rectangle-Copy-7" fill="#C4C3C6"></path>
                <path d="M122.613448,47.4986946 C122.57795,43.4587967 125.06165,41.6208474 128.161332,43.3935199 L173.936007,69.62313 C177.035689,71.3958025 179.577566,76.1078218 179.613448,80.1477197 L179.510299,130.937884 C179.546181,134.977782 177.062481,136.815731 173.962799,135.043058 L128.898851,108.771073 C125.799169,106.998401 123.257292,102.286381 123.22141,98.2464834 L122.613448,47.4986946 Z" id="Rectangle-Copy-8" fill="#C4C3C6"></path>
            </g>
        </g>
    </g>
</svg>