<?xml version="1.0" encoding="UTF-8"?>
<svg width="168px" height="280px" viewBox="0 0 168 280" version="1.1" xmlns="http://www.w3.org/2000/svg" xmlns:xlink="http://www.w3.org/1999/xlink">
    <!-- Generator: Sketch 61 (89581) - https://sketch.com -->
    <title>blocks</title>
    <desc>Created with Sketch.</desc>
    <g id="Illustrations" stroke="none" stroke-width="1" fill="none" fill-rule="evenodd">
        <g id="Other" transform="translate(-171.000000, -188.000000)">
            <g id="blocks" transform="translate(255.500000, 330.403811) rotate(-300.000000) translate(-255.500000, -330.403811) translate(105.500000, 213.403811)">
                <path d="M261.307815,85.4321568 C267.578208,89.052015 271.439943,95.752893 271.433956,103.00301 L271.3735,176.117872 C271.367522,183.349247 267.514525,190.028841 261.263705,193.644312 L197.908097,230.289166 C191.657277,233.904637 183.956575,233.907698 177.702392,230.297197 L34.5600972,147.573689 C28.2897045,143.95383 24.4279689,137.252952 24.4339561,130.002835 L24.4944119,56.8879731 C24.5003905,49.656598 28.3533876,42.9770044 34.6042068,39.3615335 L97.9598157,2.71667914 C104.210635,-0.89879173 111.911337,-0.901852535 118.16552,2.70864796 L261.307815,85.4321568 Z" id="Polygon" fill="#000000"></path>
                <path d="M247.206079,177.523687 C251.712976,180.114708 252.192355,184.058553 248.276801,186.332511 L191.20442,219.477297 C187.288866,221.751255 180.461121,221.494224 175.954224,218.903203 L119.647059,186.532139 C115.140162,183.941118 114.660784,179.997274 118.576337,177.723316 L175.648719,144.57853 C179.564272,142.304572 186.392017,142.561602 190.898914,145.152623 L247.206079,177.523687 Z" id="Rectangle-Copy" fill="#FFFFFF"></path>
                <path d="M171.495844,132.657662 C176.002741,135.248683 176.482119,139.192528 172.566566,141.466485 L115.494184,174.611272 C111.578631,176.88523 104.750886,176.628199 100.243989,174.037178 L43.9368235,141.666114 C39.4299266,139.075093 38.9505481,135.131248 42.8661016,132.857291 L99.9384831,99.7125042 C103.854037,97.4385465 110.681782,97.695577 115.188679,100.286598 L171.495844,132.657662 Z" id="Rectangle-Copy-2" fill="#FFFFFF"></path>
                <path d="M181.399346,126.196139 C181.422066,131.417262 178.245794,133.806574 174.304823,131.532815 L116.86196,98.3909332 C112.920989,96.1171747 109.707684,90.0413722 109.684842,84.8202486 L109.399346,19.5898522 C109.376627,14.3687286 112.552899,11.9794171 116.49387,14.2531756 L173.936733,47.3950577 C177.877704,49.6688162 181.091009,55.7446187 181.113851,60.9657423 L181.399346,126.196139 Z" id="Rectangle-Copy-3" fill="#C4C3C6"></path>
                <path d="M106.109559,125.318523 C106.136429,130.515945 102.975709,132.891787 99.0497194,130.625116 L41.825227,97.5865403 C37.8992376,95.3198693 34.6946717,89.2690267 34.6676288,84.0716051 L34.3295936,19.1373312 C34.3027229,13.9399096 37.4634434,11.5640668 41.3894328,13.8307378 L98.6139252,46.8693139 C102.539915,49.135985 105.74448,55.1868276 105.771523,60.3842492 L106.109559,125.318523 Z" id="Rectangle-Copy-3" fill="#C4C3C6" transform="translate(70.219576, 72.227927) rotate(-120.000000) translate(-70.219576, -72.227927) "></path>
                <path d="M183.377531,60.7466373 C183.331446,55.4904261 186.555899,53.0991157 190.580047,55.405496 L250.006818,89.532193 C254.030966,91.8385734 257.330947,97.9692652 257.377531,103.225476 L257.243618,169.307303 C257.290202,174.563514 254.065749,176.954824 250.0416,174.648444 L191.537528,140.466614 C187.513379,138.160233 184.213399,132.029541 184.166815,126.77333 L183.377531,60.7466373 Z" id="Rectangle-Copy-8" fill="#C4C3C6"></path>
                <path d="M93.3469644,63.0675968 C104.291922,55.8352334 157.900293,54.1125159 254.172077,57.8994443 C253.439976,50.3225245 255.703957,53.5853964 260.96402,67.68806 C266.224082,81.7907236 276.49117,105.291667 291.765283,138.190891 C271.156734,93.3308048 245.225084,76.9710903 213.970334,89.1117475 C167.088208,107.322733 164.206724,70.5388876 93.3469644,63.0675968 Z" id="Rectangle" fill="#000000" transform="translate(192.556123, 96.059092) rotate(-330.000000) translate(-192.556123, -96.059092) "></path>
            </g>
        </g>
    </g>
</svg>