<?xml version="1.0" encoding="UTF-8"?>
<svg width="193px" height="260px" viewBox="0 0 193 260" version="1.1" xmlns="http://www.w3.org/2000/svg" xmlns:xlink="http://www.w3.org/1999/xlink">
    <!-- Generator: Sketch 61 (89581) - https://sketch.com -->
    <title>block carving</title>
    <desc>Created with Sketch.</desc>
    <g id="Illustrations" stroke="none" stroke-width="1" fill="none" fill-rule="evenodd">
        <g id="Other" transform="translate(-166.000000, -661.000000)">
            <g id="block-carving" transform="translate(144.000000, 639.000000)">
                <g id="Group-13">
                    <g id="Group-Copy-2" transform="translate(113.070629, 202.423157) scale(1, -1) rotate(-60.000000) translate(-113.070629, -202.423157) translate(42.070629, 117.923157)">
                        <g id="Group-9" transform="translate(0.781233, 0.333425)">
                            <path d="M78.8569037,14.2082167 L131.896847,44.7225087 C137.142726,47.7405038 140.373189,53.310489 140.373189,59.337471 L140.373189,120.424364 C140.373189,126.451346 137.142726,132.021331 131.896847,135.039326 L78.8569037,165.553618 C73.5974284,168.579435 67.1129422,168.579435 61.8534669,165.553618 L8.81352374,135.039326 C3.56764464,132.021331 0.337181118,126.451346 0.337181118,120.424364 L0.337181118,59.337471 C0.337181118,53.310489 3.56764464,47.7405038 8.81352374,44.7225087 L58.5020246,8.56487459 C63.7614999,5.53905749 73.5974284,11.1823996 78.8569037,14.2082167 Z" id="Polygon" fill="#000000" transform="translate(70.355185, 87.761180) rotate(-360.000000) translate(-70.355185, -87.761180) "></path>
                            <path d="M54.1264486,52.434177 C55.7054627,53.0478532 57.0016819,53.93399 58.2512991,54.9993289 C58.8934982,56.0909997 59.6559533,56.434044 60.6009522,56.3294484 C61.4538835,56.2343615 62.3177265,55.7486868 63.2729551,56.0986798 C62.3622827,57.5403434 61.9972984,57.2259452 61.5367337,59.0878198 C61.3748768,59.7417251 58.8718193,59.8910992 58.4057987,60.1087019 C56.5630851,60.9681412 55.2073494,60.4647754 53.3805487,60.5101245 C52.0622787,60.5430392 47.6321097,65.5660716 46.4543279,67.2593498 C49.0942777,65.769777 56.2212679,61.4341519 58.8537159,62.8524096 C59.0192101,62.9412792 59.2833642,62.944205 59.4047569,62.7898716 C60.1374322,61.8583858 62.4422872,63.1227281 63.1770085,62.1692991 C65.7312559,58.8547893 66.351652,57.6717836 69.8934085,57.6951896 C71.6549663,57.7065268 72.3331307,56.2918371 74.040812,56.9834115 C74.3267895,57.0993443 76.0696163,56.2193394 76.3074005,56.7971751 C76.8111574,58.0208703 77.7086816,56.5251079 78.4979614,56.0105415 C80.2135991,54.8918076 81.696272,57.1064878 83.5319385,57.4915897 C85.1468703,57.8306111 96.7973447,55.8268137 98.3970456,55.2903042 C96.5488762,55.0609985 93.5695861,53.7619148 91.7239172,53.5410206 C89.9366714,53.3267094 79.5411655,53.5774141 77.7323236,54.0400484 C78.6743672,53.6275176 80.6544405,51.9210051 83.6725436,48.9205111 L93.8124915,46.4275752 C99.3880948,45.7100187 102.44687,45.2897998 102.988818,45.1669182 C102.755429,45.0576902 99.4733412,44.3127457 93.1425544,42.9320848 L82.2058012,45.9984984 L77.8619515,51.6662658 C76.6508528,52.088517 75.9176214,52.348527 75.6622572,52.4462959 C73.9593498,53.0983726 74.5101392,52.216755 72.7663129,51.3134295 C69.9570044,49.8582342 69.8161528,53.1740655 66.9275071,52.9012393 C66.5719675,52.8675932 64.2024957,51.8420782 63.9185641,52.2187686 C62.3240917,54.3329892 60.4020409,54.5176772 58.4597581,54.5597349 C57.2640174,52.9864125 55.9712081,51.8892559 54.1264486,52.434177 Z M91.1646968,22.6148805 C91.6501704,23.3184349 92.2387614,22.8684071 92.7773907,22.9802784 C93.6944977,23.0075198 94.6118328,23.0343979 95.5289398,23.0609129 C95.5985213,23.155713 95.6681028,23.250513 95.7376843,23.345313 C96.3486327,23.3609314 96.9623187,22.9933542 97.5700732,23.3812717 C97.7085518,23.7691891 97.8502243,23.7760903 97.9953189,23.3903521 C98.1591206,23.398343 98.3233785,23.4059705 98.4876365,23.4143246 C98.6902213,24.3692262 99.0303722,24.134587 99.3958462,23.6802006 C102.959788,24.14621 107.605267,28.2394831 111.165558,28.9760903 C112.710724,29.2960859 114.358323,29.919369 115.945237,29.2187204 C116.513296,28.9677363 116.668885,29.7105183 116.989644,29.9651345 C117.289871,30.2030427 116.828124,30.5895072 116.71474,30.889889 C114.800222,35.9644156 112.142721,37.2649383 111.037174,42.9681963 C110.386301,46.3250623 108.503266,48.6068013 107.109127,51.3055153 C104.715067,55.9394578 101.168007,58.0915279 98.4032261,61.9118608 C96.9584404,63.90811 93.9285329,61.6822019 93.0775854,64.4484745 L92.8884606,64.8262218 C92.9062552,64.9508058 92.8923389,65.0652197 92.8473961,65.1705531 C92.3044323,65.393206 92.4091467,65.8221672 92.7032141,66.3125122 C92.6801724,66.5351652 92.6575869,66.7581814 92.6345452,66.9811976 C92.4705153,67.0774505 92.4321885,67.1809678 92.6279292,67.2964713 C92.6840507,70.1753417 91.5082374,72.0499128 90.3828422,73.8496608 C89.0808696,75.9319928 87.3947159,77.2519291 85.9195881,78.9986472 C85.2707691,79.7668545 84.4330535,80.2601053 84.2240808,81.7591083 C84.1360203,82.3914719 83.7356415,82.2000557 83.454806,82.2672511 C77.581671,83.6670955 71.81576,82.6740559 66.1055142,80.3247582 C62.2835506,78.7520218 60.1988756,81.3451439 56.4761512,79.2482831 C56.3547828,78.8690829 56.09197,79.0979106 55.9231493,78.922476 L55.8510583,78.9809542 L55.7947087,78.8883335 C55.7497659,78.6867472 55.6877129,78.6533311 55.6037588,78.8400254 C55.4052805,78.9075841 55.2476384,78.8000714 55.1221636,78.5545356 C54.7548645,77.2611143 52.6788263,76.5670036 51.7183734,77.4162086 C51.5545717,77.4140293 51.3909982,77.4114868 51.2274246,77.4089443 C50.7456012,76.5212381 50.3392909,76.2822403 50.1280369,77.7314824 C49.7986084,77.7841491 49.4335907,78.134655 49.1915383,77.449988 C48.6859888,76.1801758 48.0282725,76.6894083 47.3826474,77.0577119 C45.2504877,77.2770959 43.1313318,76.8256152 41.0121758,76.6287508 C38.5311961,76.3988334 30.4995575,83.0355684 28.0516575,82.1387817 C25.6267992,81.2507123 23.565818,79.3060401 21.6195892,76.9462091 C21.2023283,76.4402456 21.1687923,75.9840431 21.3935063,75.2597853 C22.826429,70.6436405 30.1038497,59.5858091 32.1563899,55.6169197 C32.6639926,54.6351399 33.4159291,53.8781924 34.2493102,54.2544869 C35.1039079,54.6398618 35.7791907,54.3089697 36.3210138,53.4031026 C37.6891458,51.1166417 39.2313457,50.4058229 41.195141,51.2041773 C42.8532339,51.878311 47.2662383,52.5964949 48.7837994,50.926416 C47.3011431,50.3409076 45.9973454,51.3096116 44.5030542,51.4527197 C45.0743069,49.8578269 45.5997043,48.3900607 46.1572688,46.8340323 C45.0156759,46.6575081 44.4925599,47.9189662 43.9019156,48.9675782 C43.1000174,50.3906686 39.5596335,50.4915425 38.0578137,49.5311926 C37.7470924,49.332512 37.5086902,49.719703 37.2620751,50.0400618 C36.6727997,50.8057266 36.0114332,51.4101223 35.2521964,51.6236948 C34.6501453,51.7929546 34.2034548,51.4210188 34.4165339,50.3480712 C35.3439071,45.6796229 38.5110603,42.2429496 40.726946,38.4055454 C41.1740927,38.5014351 41.3869436,38.2228465 41.3093773,37.4807909 L41.7291477,36.9595723 C43.9468584,36.5200778 46.040235,35.2575301 48.2061589,34.472978 C48.5996936,34.3302331 48.9802245,34.0963203 49.3279039,33.5932626 C47.3969602,33.9666513 45.4660165,34.3404032 43.203363,34.7780816 C45.6601603,30.4902864 47.8007611,26.2954751 51.5533713,26.0913463 C55.3438521,25.8846749 59.114485,26.4774476 62.8794146,27.1268824 C63.250592,27.1911721 63.6331761,27.0862019 64.0107413,27.0589605 C64.0107413,27.0578709 63.9217683,27.0960088 63.9217683,27.0960088 C64.0187261,27.2336687 64.1156839,27.3716917 64.2124136,27.5093516 C64.9467836,29.2724145 62.5751408,29.6061115 63.132021,31.5093768 C63.8515622,33.9665505 64.0170434,37.5683242 65.7043378,38.6089454 C67.379769,39.6423022 68.8277487,41.3726755 70.3562603,42.8415314 C71.6342786,44.0692101 72.8600537,45.4574315 73.6277316,47.6203981 C74.0933573,48.9323436 74.3714552,50.5860777 75.6264317,50.6104133 C75.7592069,50.6129559 75.947191,50.9674572 76.0101566,51.221347 C76.3870373,52.7337891 76.7912945,52.000814 77.1980611,51.2852735 C77.4006459,50.928956 77.5995805,50.5653742 77.7852833,50.1865373 C79.9407129,45.7792432 81.7568216,39.2557393 81.2868613,33.7184722 C80.9238968,29.4419367 80.2036712,25.2424036 79.6422283,21.0083648 C80.1308958,20.704714 80.6384986,20.7849853 81.14382,20.8202175 C81.1392572,20.9851188 81.1344664,21.1496568 81.1301318,21.314558 C81.1915004,21.6592524 81.3130969,21.7002961 81.484199,21.4932616 C81.8959846,21.4997995 82.3079983,21.5070639 82.7200121,21.5136018 C83.172634,22.5269816 83.4616824,22.5440529 83.8524795,21.5807972 C84.5236558,22.0195653 85.2459346,21.650172 85.9280615,21.9153215 C86.2825849,23.0692669 86.7963473,22.5702046 87.2929996,22.2487562 C87.672618,22.2520251 88.0517801,22.2552941 88.4309423,22.2585631 C88.5062272,22.5040988 88.5817402,22.550954 88.6572533,22.2589263 C88.8135265,22.2698229 88.9695715,22.2814459 89.1258447,22.2923424 C89.1196851,22.539331 89.1568713,22.7801449 89.3320798,22.7932208 C89.5136761,22.8070231 89.5510904,22.5640299 89.5531436,22.3192206 C89.7196829,22.3243056 89.8866785,22.3286643 90.0532179,22.3333861 C90.1248526,22.4285494 90.1960311,22.5233494 90.2676658,22.6181495 C90.566524,22.6166966 90.8658386,22.6156069 91.1646968,22.6148805 Z" id="Fill-3" fill="#C4C3C6" transform="translate(69.172661, 51.846972) rotate(-150.000000) translate(-69.172661, -51.846972) "></path>
                            <path d="M16.5518311,61.9657379 L62.1034542,88.5036738 C65.7494639,90.6278038 68.7051387,95.3267875 68.7051387,98.9991475 L68.7051387,152.526786 C68.7051387,156.199146 65.7494639,157.454234 62.1034542,155.330104 L16.5518311,128.792168 C12.9058215,126.668038 9.95014664,121.969054 9.95014664,118.296694 L9.95014664,64.7690563 C9.95014664,61.0966963 12.9058215,59.8416079 16.5518311,61.9657379 Z" id="Rectangle" fill="#FFFFFF"></path>
                            <path d="M78.3812123,62.0774178 L123.932835,88.5518658 C127.578845,90.6709142 130.53452,95.3586562 130.53452,99.0222307 L130.53452,152.421812 C130.53452,156.085387 127.578845,157.337472 123.932835,155.218424 L78.3812123,128.743976 C74.7352026,126.624928 71.7795278,121.937186 71.7795278,118.273611 L71.7795278,64.8740297 C71.7795278,61.2104552 74.7352026,59.9583694 78.3812123,62.0774178 Z" id="Rectangle-Copy-6" fill="#C4C3C6" transform="translate(101.157024, 108.647921) scale(-1, 1) translate(-101.157024, -108.647921) "></path>
                        </g>
                    </g>
                    <g id="Group-11" transform="translate(74.953319, 257.953319) rotate(-315.000000) translate(-74.953319, -257.953319) translate(13.953319, 212.953319)">
                        <path d="M61.0445407,28.7785069 C53.5155005,28.6745079 46.0897671,29.4281458 38.7728846,30.387771 C30.394435,31.4844631 24.1615431,27.2030557 16.9764675,23.6519905 C24.4598607,18.6626611 52.4085701,21.9174101 61.0445407,28.7785069" id="Fill-107-Copy" fill="#FFFFFF" transform="translate(39.010504, 25.900761) rotate(-9.000000) translate(-39.010504, -25.900761) "></path>
                        <g id="Group-7" transform="translate(60.932936, 45.053111) rotate(-98.000000) translate(-60.932936, -45.053111) translate(23.932936, -10.446889)">
                            <path d="M53.3041471,7.92439971 C54.3268409,8.37946656 57.0480618,11.401885 57.5512427,12.2531505 C58.3585097,13.6202875 60.0465377,14.9607015 59.7486733,16.3410064 C59.4795843,17.5869213 57.6912312,18.5125467 56.5623795,19.5683018 C55.1465513,20.8924495 53.7505549,22.2398347 52.2845642,23.5074379 C51.5900657,24.1077389 51.4897406,24.5182673 52.1947382,25.1890552 C52.8709605,25.8319581 53.3889179,26.6367487 54.0099225,27.3416182 C54.954456,28.4148014 55.4549149,29.560408 55.6901733,31.0572875 C56.4869412,36.1288623 58.4506688,40.903385 59.9893758,45.7801525 C62.8221987,54.7575565 68.579342,69.0034982 70.4213573,78.24426 C71.3783343,82.7589105 72.6055668,87.2367683 73.2246271,91.7967318 C74.0252835,97.7009822 63.9874705,109.983264 63.6425544,110.363196 C62.9488336,111.126159 45.6698205,103.735165 43.4914438,102.426122 C40.8861023,100.859917 19.765624,46.1806113 17.4624243,42.5265213 C16.4175657,40.8681415 15.5974664,39.0691751 14.7003734,37.3813612 C16.0084882,36.0359125 16.1076467,36.0161606 14.6599323,35.6645005 C13.4124792,35.3608644 12.1175855,35.1776758 10.8347464,35.1052524 C7.15732627,34.8988263 4.90390025,32.8481208 3.6424483,29.6076575 C2.90828638,27.7203887 1.61222617,21.9954541 0.300611677,21.9509156 C1.89025889,18.0280457 4.84129428,15.2077931 8.06375182,12.7612762 C11.8535517,9.88447915 15.3053102,6.27677319 19.3004265,3.69625366 C20.4170539,2.97524578 24.4549027,0.142518596 27.6460744,0.241685528 C30.9737952,0.345095779 47.6921636,5.42521128 53.3041471,7.92439971 Z" id="Path" fill="#000000"></path>
                            <path d="M50.450791,10.485838 C46.9278131,14.5312173 43.1231203,18.3768452 38.385539,20.8521853 C33.5413887,23.38288 28.0774324,23.8824187 22.6492091,23.669453 C17.6536,23.4726557 12.9072144,21.9131844 8.14716302,20.5131568 C9.27145819,18.5696403 11.2500717,17.5044206 12.8277415,16.0425717 C15.929315,13.1699794 19.1608645,10.4216045 22.4970835,7.82773309 C25.1575646,5.75938458 28.1580134,4.75990339 31.6811441,5.55884936 C37.9960703,6.99064599 44.2710525,8.54755742 50.450791,10.485838 Z" id="Fill-15-Copy" fill="#C4C3C6"></path>
                            <path d="M4.63866918,24.4814506 C12.6258043,27.317892 20.5924411,27.6537218 28.6290135,27.1914841 C30.3645433,27.0914898 30.8942859,27.6601365 31.2278871,29.1404291 C31.9734655,32.4470323 32.0594784,32.3587354 28.3621326,32.4651444 C21.5639037,32.6613596 14.9786973,31.0320189 8.26607933,30.5177088 C7.52009892,30.4607309 7.30345913,29.976985 7.05185151,29.4453173 C6.32154633,27.9005001 5.55908682,26.3685124 4.63866918,24.4814506" id="Fill-77-Copy" fill="#C4C3C6"></path>
                            <path d="M51.8516341,12.2222048 C52.305804,13.873092 52.7017195,15.4051771 53.1569682,16.9168189 C53.316629,17.4464142 53.1695541,17.7823775 52.8124751,18.0816972 C49.1435151,21.1551246 46.0664505,25.0115662 41.9728074,27.522612 C41.405005,27.8709183 40.8152673,28.1833526 40.2172588,28.4687863 C37.3742913,29.826911 36.5554907,29.4593186 35.3188394,26.4572497 C35.1020029,25.9303544 35.268496,25.7317079 35.5975265,25.562762 C41.8365204,22.3566465 46.4051901,16.7922309 51.8516341,12.2222048" id="Fill-79-Copy" fill="#C4C3C6"></path>
                            <path d="M48.9969401,31.2107353 C49.3183423,37.2879448 51.5234963,42.6562946 53.1799538,48.1631851 C54.4902858,52.5197438 55.8955232,56.847221 57.2437376,61.1924703 C59.5717104,68.6958812 61.9391605,76.1871749 64.1750192,83.7180516 C64.7715672,85.7279011 64.9573903,87.86377 65.3094972,89.9455151 C65.3493734,90.18059 65.3003257,90.4705964 65.1938562,90.684668 C63.7754597,93.5520155 62.4531648,96.4738906 60.6762812,99.142919 C60.3959515,99.5637918 60.1566943,100.329603 59.6375061,100.195101 C59.1314771,100.063831 58.8036947,99.4430231 58.5999273,98.8165608 C57.6580514,95.9156889 56.6615451,93.0329928 55.6558672,90.153932 C49.9392148,73.7899771 42.0401378,58.4277156 34.4999466,42.9006593 C34.2658733,42.4192002 34.0824427,41.8993698 33.7773898,41.4679954 C33.046459,40.4339892 33.1652901,39.8430709 34.3723427,39.2040874 C39.1861979,36.6554238 43.9394413,33.9888189 48.9969401,31.2107353" id="Fill-73-Copy" fill="#FFFFFF"></path>
                            <path d="M59.7317117,100.431389 C54.6569071,97.625182 51.1296438,96.569418 46.3061363,93.9278283 C45.7744568,93.63676 40.6896624,82.3553359 40.5822407,81.8406654 C38.2775208,70.8282587 32.7889293,61.1713439 27.5097519,51.4192053 C25.2267491,47.2027624 23.069007,42.9196244 20.7317117,38.4313892 C24.4658775,38.8801356 27.9894656,39.4908008 31.5351586,39.6665984 C34.0651926,39.7922783 35.0959759,41.0267164 36.0278692,43.1682854 C40.9541448,54.4972048 46.5540362,65.5346702 50.8617642,77.1315267 C52.5704291,81.7311774 54.2725014,86.3323702 56.072688,91.1899345 L59.7317117,100.431389 Z" id="Fill-75-Copy" fill="#B1B2B7"></path>
                        </g>
                    </g>
                    <g id="Group-10" transform="translate(118.069289, 123.520480) scale(1, -1) rotate(-161.000000) translate(-118.069289, -123.520480) translate(42.069289, 19.520480)">
                        <path d="M46.5494056,87.9126605 C41.5464892,85.3541582 36.0271208,84.1766848 30.6563595,82.6275257 C29.5121415,82.2974508 28.4487252,82.8181482 27.3824835,83.1915208 C26.4795402,83.507538 25.4449411,84.4977628 24.6239294,83.3810187 C23.7899217,82.2462807 22.4112097,81.1643998 23.0757037,79.4544205 C23.2610387,78.9764585 23.3220637,78.6289521 23.1502897,78.1701086 C19.7091602,68.9527526 21.7557564,59.9575083 24.6160188,51.1360172 C28.2210117,40.0174972 33.0357678,29.4039299 38.9461479,19.272823 C42.2251093,13.6531149 46.9505882,9.88902379 52.598787,6.87730107 C55.1482741,5.51820215 57.1428861,3.1626931 60.0658686,2.33160157 C60.2399027,2.28211845 60.4246727,2.04594901 60.5501129,2.08193673 C62.6447381,2.68810497 64.2590742,1.58485628 66.0598755,0.799311728 C68.3788239,-0.212843033 69.8242113,0.980937277 71.2662085,3.02717682 C76.208665,10.0380355 82.4332106,15.7297191 90.155693,19.6591288 C91.5406205,20.363701 93.5256267,19.1530514 93.787243,17.4790599 C94.2754426,14.3470032 94.6732349,11.2003265 95.1450483,7.79442574 C96.902341,9.10179231 98.378806,8.51418024 100.054732,7.57062708 C102.642642,6.11199961 105.394981,5.54800448 108.401025,6.83231641 C112.614007,8.63226496 116.928698,10.1639925 120.374913,13.3657754 C122.036713,14.9098737 122.091522,20.453108 120.330839,21.8099576 C115.794086,25.308077 115.596885,25.6308419 112.555808,30.9525267 C111.740446,32.3785403 112.017884,32.890803 113.396596,33.7033384 C124.392389,40.185065 136.322768,44.2977872 148.575224,47.5839163 C150.076551,47.986529 150.725788,48.5876365 151.151268,50.0383916 C151.809477,52.2833088 151.814373,55.6928614 150.986015,61.1967875 C149.971884,67.9350666 147.935468,76.8491238 147.122491,78.6953044 C144.211939,85.3057997 141.060678,91.741417 136.210889,97.1969312 C129.085095,105.212635 115.471049,117.376937 105.726267,122.419154 C104.37194,123.120019 100.329437,121.223032 95.0473452,118.011897 C95.0919509,118.3161 95.1256895,118.665682 95.1450483,119.079675 C94.4966062,118.188713 93.846428,117.463521 93.1950248,116.864568 C92.1164883,116.185062 90.9973139,115.461387 89.8481562,114.702986 C86.1520016,113.103867 82.4446093,113.379142 78.8182164,108.395819 C77.2389132,114.652623 71.7155895,117.748565 70.2170877,123.563394 C69.5978257,125.965849 70.3913304,127.896667 69.7661811,130.297597 C68.4986844,135.165507 65.749345,140.485807 64.0253147,145.224631 C63.4856959,146.708562 63.0641717,148.211049 61.7419642,149.309237 C60.6367345,150.226924 61.7351837,151.596707 61.2017804,152.826475 C58.3935022,159.302016 55.781295,165.861341 53.109193,172.3948 C51.0529909,177.424085 48.9837928,182.428066 45.3511127,186.629633 C44.4391286,187.684523 44.3170787,186.01278 43.064937,186.772459 C39.8961596,188.696115 29.1060431,195.275683 29.1196042,188.302499 C21.8350324,189.014382 18.1164653,187.590617 10.7787792,187.163825 C7.71510035,186.985011 7.07885866,186.345105 4.94129002,183.965979 C3.25519305,182.088994 2.82801834,181.071778 0.627729603,180.889028 C0.670673091,179.027226 1.82167159,177.627078 2.52063337,176.086354 C9.81989633,159.999278 20.7529695,146.354308 31.7979217,132.757695 C34.4794518,129.456481 45.6269801,98.9253751 51.4505664,88.7409242 C49.7433888,88.8378457 48.1900238,88.7517679 46.5494056,87.9126605 Z" id="Path" fill="#000000"></path>
                        <path d="M39.2341222,180.798308 C34.79139,180.737986 30.4089223,181.229987 26.0905193,181.85457 C21.1455841,182.568379 17.4710868,179.816192 13.2341222,177.53527 C17.6540516,174.314961 34.1436839,176.386641 39.2341222,180.798308" id="Fill-107" fill="#FFFFFF"></path>
                        <path d="M58.3068875,99.3076389 L58.3085954,99.3655756 C59.3276238,99.682259 58.9507541,98.9768933 58.9331061,98.5342116 C60.2794759,95.9270585 61.7880933,93.3851546 62.316394,90.4433184 C65.3347674,90.779689 68.2165112,91.6262403 71.0362025,92.7079135 C73.2421996,93.5539023 74.4177826,95.1918807 74.2202391,97.4727881 C73.5109043,105.634555 72.130377,113.667512 66.2291213,119.962366 C56.2420743,130.615976 49.5284423,143.484118 41.2020129,155.258213 C39.5125446,157.647237 36.8126712,167.402549 31.8330751,170.916598 C27.2584618,174.144854 20.3550809,171.243173 19.3492633,171.288689 C17.115371,171.389375 14.8871716,171.623934 12.2416829,171.832619 C15.8344694,167.129056 19.2063716,162.66624 22.6300791,158.243361 C29.0681749,149.925783 34.8014902,141.150899 39.9814561,132.025582 C40.7044539,130.752099 42.4282627,130.255418 42.5136561,128.57469 C42.6702108,128.381193 42.8256268,128.187695 42.9816122,127.994198 L42.9002038,128.069009 C43.7359208,127.525079 44.172566,126.778651 44.0974197,125.77179 L44.0740789,125.799914 C44.9041031,125.799352 45.1306803,125.252609 45.2120887,124.57368 C45.2120887,124.57368 45.1358039,124.669867 45.1358039,124.669304 C46.1515934,123.521794 47.106636,122.340477 48.005304,121.127779 C49.0798902,119.677689 50.0738704,118.182729 50.9947203,116.647047 C53.2696972,112.853114 55.0983253,108.81063 56.5933259,104.582132 C57.2804584,102.860905 59.3287623,101.571672 58.3068875,99.3076389 Z" id="Fill-13" fill="#C4C3C6"></path>
                        <path d="M131.079054,206.79038 C131.468114,207.5773 130.400488,207.872733 128.157672,207.771045 C128.621111,207.271469 129.782569,207.008392 131.079054,206.79038" id="Fill-43" fill="#FDFDFD"></path>
                        <path d="M138.302896,69.0162499 C141.648652,70.9310222 141.715128,70.9438918 139.958028,74.2144483 C135.436554,82.628927 135.053129,88.6616405 128.216272,95.4472758 C126.902532,96.751022 126.19158,97.2070534 124.607993,95.4159411 C114.920568,84.4650325 103.110427,76.087484 90.7481991,68.4037746 C81.1390798,62.4311621 71.5998163,56.3483188 61.9833734,50.3874568 C60.4409117,49.4317493 60.0736053,48.6349533 60.7935709,46.8348883 C64.1596076,38.41985 65.9989566,29.5873891 67.4011432,20.6793893 C67.7284516,18.5956336 67.7154944,16.4620781 68.0709705,14.3318799 C68.5086961,11.7042438 69.3520361,12.6179852 70.6443689,13.483046 C74.6886831,16.1884593 78.8901729,18.6784466 82.8037891,21.5562006 C97.8244814,32.6022323 109.433336,39.1751214 126.84997,45.4006494 C132.041272,47.2555502 137.514549,53.0794695 143.081044,51.5569401 C145.080948,51.010262 146.502852,51.9503021 146.43694,54.2824971 C146.292158,59.4622304 144.983141,62.2697829 143.248012,67.1020371 C142.618183,68.8567788 141.733718,67.5619853 141.103326,67.2547936 C132.781469,63.1969535 124.488343,59.0803609 116.180007,54.9956625 C115.346807,54.585514 114.462343,54.2800009 113.601538,53.9263667 C112.752002,53.2638622 111.940773,52.4569944 110.464223,53.2504331 C111.419671,53.7198936 112.211182,54.1087793 113.00213,54.4971054 C121.434968,59.3377528 129.863862,64.1856743 138.302896,69.0162499 Z" id="Fill-81" fill="#C4C3C6"></path>
                        <path d="M43.6842084,59.0558907 C43.9965339,57.042165 43.983502,54.9802096 44.3227459,52.9216084 C44.7404823,50.3822882 45.5471114,51.2656146 46.7830271,52.1020276 C50.6507855,54.7178477 54.6687614,57.1255187 58.4116057,59.9078568 C72.7768657,70.5876419 83.8785724,76.9433921 100.533243,82.9651664 C105.497429,84.7593592 110.73242,90.3894507 116.054327,88.9196744 C117.966357,88.3919381 119.326184,89.3008527 119.263865,91.5547575 C119.126994,96.5606114 108.304013,104.875405 100.358824,100.925321 C99.5620425,100.52869 99.2884934,108.352221 98.465335,108.010199 C97.6528565,107.369676 86.2800437,89.7802598 84.8684904,90.5466308 C85.7821763,91.00062 86.5390918,91.3766897 87.2954685,91.7522186 C95.3599264,96.4329179 42.3462021,67.6645133 43.6842084,59.0558907 Z" id="Fill-81-Copy-2" fill="#C4C3C6" transform="translate(81.462604, 79.633452) rotate(173.000000) translate(-81.462604, -79.633452) "></path>
                        <path d="M66.5170217,20.5810972 C66.8440976,18.462047 66.8311497,16.2923536 67.1863732,14.1260743 C67.6237879,11.4539315 68.466529,12.3831498 69.7579439,13.2628629 C73.7993856,16.0141002 77.9978912,18.5462627 81.9087278,21.4727598 C96.9187515,32.7058881 108.519361,39.3901082 125.923625,45.7210837 C131.111239,47.6074025 136.580628,53.5299668 142.14317,51.981649 C144.141654,51.4257112 145.562548,52.3816737 145.496683,54.7533712 C145.352004,60.0208383 65.115831,29.6399799 66.5170217,20.5810972 Z" id="Fill-81-Copy" fill="#FFFFFF"></path>
                        <path d="M107.303132,16.8482478 C107.391059,16.8087633 107.499367,16.788735 107.564002,16.7269331 C112.408737,12.0832124 112.996278,12.1123966 118.084414,17.5103285 C115.618956,17.4845778 115.11352,19.3266156 114.295389,20.877956 C113.583818,22.2272959 112.874577,23.5783526 112.15136,24.9213979 C109.793046,29.3018886 109.790717,29.3007441 105.348933,27.1313855 C96.1381133,22.6330135 95.968664,22.2358795 98.4347041,12.3470146 C98.650155,11.4812168 98.8964679,10.9713517 99.8444521,10.8969606 C100.901909,10.8134137 101.961695,10.5026878 103.005176,10.5610562 C108.570216,10.8734988 109.058183,11.6734891 106.752858,16.4270798 C106.556041,16.736089 106.323121,17.0697044 106.779062,17.3197729 C106.843697,17.355824 107.122619,17.0147694 107.303132,16.8482478" id="Fill-85" fill="#C4C3C6"></path>
                        <path d="M74.9089839,48.7126433 C64.3902283,48.5822485 54.0140582,49.653663 43.7895464,51.0135569 C32.0816195,52.5677232 23.3822435,46.5798398 13.3510662,41.6175102 C23.8164185,34.6094478 62.8574729,39.1141024 74.9089839,48.7126433" id="Fill-107" fill="#FFFFFF" transform="translate(44.130025, 44.736587) rotate(-248.000000) translate(-44.130025, -44.736587) "></path>
                        <path d="M67.4194206,122.137338 C67.5072149,121.843602 67.5950092,121.550458 67.6819943,121.257314 C67.7289258,121.313461 67.8098422,121.363106 67.8159109,121.428709 C67.8523233,121.799276 67.796491,122.116061 67.5209707,122.257314 C67.5213752,122.257314 67.4194206,122.137338 67.4194206,122.137338" id="Fill-119" fill="#B1B2B7"></path>
                    </g>
                </g>
            </g>
        </g>
    </g>
</svg>