<?xml version="1.0" encoding="UTF-8"?>
<svg width="271px" height="348px" viewBox="0 0 271 348" version="1.1" xmlns="http://www.w3.org/2000/svg" xmlns:xlink="http://www.w3.org/1999/xlink">
    <!-- Generator: Sketch 61 (89581) - https://sketch.com -->
    <title>bounties</title>
    <desc>Created with Sketch.</desc>
    <g id="Illustrations" stroke="none" stroke-width="1" fill="none" fill-rule="evenodd">
        <g id="Other" transform="translate(-212.000000, -4696.000000)">
            <g id="bounties" transform="translate(212.000000, 4695.000000)">
                <g>
                    <path d="M227.34,182.2 C225.203518,180.191756 223.199325,178.047269 221.34,175.78 C219,172.36 216.96,168.7 214.56,165.28 C206.226984,152.766881 196.121611,141.529706 184.56,131.92 C180.917466,129.051198 177.132666,126.367794 173.22,123.88 C178.44,121.18 178.8,117.22 174.36,113.8 C172.992863,112.909305 171.546786,112.146097 170.04,111.52 C170.53599,111.144622 171.057221,110.803817 171.6,110.5 C173.673771,109.629041 175.192872,107.801968 175.670678,105.60406 C176.148484,103.406153 175.525018,101.113304 174,99.46 C173.46,98.68 174,98.38 174.3,97.9 C179.099593,92.2806052 184.468228,87.1733641 190.32,82.66 C195.52073,78.1585359 202.402874,76.1048167 209.22,77.02 C213.076559,77.5430074 217.002053,77.1525132 220.68,75.88 C227.133325,74.2348434 231.335414,68.0219385 230.46,61.42 C230.112058,56.7749094 228.954631,52.226424 227.04,47.98 C224.595907,42.0470412 219.178259,37.8637935 212.82,37 C208.803596,36.4911786 204.726348,36.7765859 200.82,37.84 C194.142975,39.5536105 187.048759,38.0682589 181.62,33.82 C175.852761,29.6041638 170.961725,24.3055411 167.22,18.22 C163.312557,12.1854668 157.94735,7.23296817 151.62,3.82 C143.510621,-0.823757315 133.331987,0.291045431 126.42,6.58 C120.03432,12.8821525 114.023988,19.553621 108.42,26.56 C104.242467,31.8237384 97.9750416,35.0012794 91.26,35.26 C87.7006289,35.3744991 84.1953492,34.3669936 81.24,32.38 C76.9136148,29.5007884 71.3506825,29.2468786 66.78,31.72 C63.3963271,33.3425558 60.2145992,35.3563077 57.3,37.72 C51.7830459,41.8624588 47.6091955,47.5388952 45.3,54.04 C43.6389237,58.0330619 45.5157535,62.617889 49.5,64.3 C56.28,67.78 63.42,70.3 70.44,73.3 C75.96,75.58 81.36,78.1 86.82,80.68 C94.08,84.1 96.9,91.66 102.42,96.94 C98.474541,97.539704 95.4233496,100.713927 94.98,104.68 C94.38,109.18 97.68,110.68 100.98,112.72 C98.46,114.04 96,115.12 94.98,117.88 C94.4262417,120.49534 95.063812,123.221502 96.72,125.32 C88.5446776,129.840762 80.7757212,135.060216 73.5,140.92 C58.1397249,153.387261 44.4115974,167.74031 32.64,183.64 C22.4438829,197.186845 14.3526043,212.196167 8.64,228.16 C1.87203972,245.814769 -0.934119621,264.740983 0.42,283.6 C1.19734649,295.247141 5.20757171,306.446682 12,315.94 C16.576562,321.600999 22.3564866,326.171648 28.92,329.32 C30.72,330.16 32.58,330.88 34.44,331.54 C69.9467123,349.268312 110.725834,353.346224 149.04,343 C183.880055,350.855089 220.41726,343.643512 249.66,323.14 C250.868775,322.303637 251.907264,321.244785 252.72,320.02 C253.72002,319.078165 254.661763,318.076311 255.54,317.02 L256.98,315.46 C257.083899,315.219005 257.225691,314.996188 257.4,314.8 C263.436885,306.760893 267.542833,297.440392 269.4,287.56 C271.379456,275.235758 270.55918,262.624005 267,250.66 C259.523299,224.963182 245.912606,201.468779 227.34,182.2 Z" id="Path" fill="#000000" fill-rule="nonzero"></path>
                    <path d="M10.08,270.4 C10.2087548,250.281822 16.4898939,230.684668 28.08,214.24 C37.2710366,200.614043 48.2945668,188.318567 60.84,177.7 C60.84,177.7 60.84,177.4 61.38,176.92 C58.3400735,177.266476 55.3793511,178.118191 52.62,179.44 C49.7322581,180.776929 46.9449875,182.320956 44.28,184.06 C46.4183076,180.373382 48.8459347,176.862351 51.54,173.56 C57.8744583,165.402735 78.6210108,139.56461 90,138 C93.1966902,137.560455 75.19442,165.257845 82,168 C86.7280141,169.905047 112.444501,138.555677 114,138 C117.6,136.86 124.86,147.16 124.44,150.16 C123.820201,154.007485 123.559079,157.904219 123.66,161.8 C123.66,166.42 129.6,168.82 130.74,165.34 C132.068162,162.304719 133.591344,159.358563 135.3,156.52 C137.764236,151.684992 141.030538,147.302872 144.96,143.56 C147.374131,140.672385 151.162254,139.317844 154.86,140.02 C157.906993,140.74143 160.69173,142.300051 162.9,144.52 C169.556946,151.387053 174.958683,159.367814 178.86,168.1 C179.314138,169.17169 179.965416,170.148607 180.78,170.98 C180.98757,169.809128 180.98757,168.610872 180.78,167.44 C180.160191,161.911062 180.691329,156.313681 182.34,151 C183.18,147.64 184.38,147.28 186.9,149.74 C190.167124,152.716295 193.215051,155.924639 196.02,159.34 C196.646604,160.359033 197.538389,161.1886 198.6,161.74 L198.6,162.28 C198.52212,162.107194 198.421204,161.945728 198.3,161.8 C198.257258,161.037338 198.03083,160.296302 197.64,159.64 C194.93086,154.162443 191.609667,149.009561 187.74,144.28 C187.86,143.8 186.9,143.5 187.68,142.72 C195.784126,150.521646 203.099495,159.103136 209.52,168.34 C211.291508,170.587161 212.876764,172.975079 214.26,175.48 L213.84,175.84 C210.04593,174.013924 206.497824,171.715719 203.28,169 L201.72,167.92 L201.36,167.62 C201.06,167.62 201.36,168.04 201.36,168.28 C203.281357,171.229425 205.673046,173.844068 208.44,176.02 C218.614724,185.117954 227.605226,195.459048 235.2,206.8 C246.096851,222.788294 254.380402,240.408561 259.74,259 C262.694421,268.743355 263.005032,279.097062 260.64,289 C258.324204,298.432675 252.342389,306.552395 244.02,311.56 C243.974834,310.903319 188.469212,323.389274 189,323 C193.037222,318.870519 164.798013,307.330234 106,310 C90.9807453,310.68196 120.354506,321.184258 119,328 C117.936074,333.353571 88.0297991,334.526007 81,334 C76.0574384,333.630171 7,331 10.08,270.4 Z M103,301 C110.455844,301 82,268 79,236 C76,204 89.4558441,178 82,178 C74.5441559,178 63,198 68,236 C73,274 95.5441559,301 103,301 Z" id="Shape" fill="#FEFEFE" fill-rule="nonzero"></path>
                    <path d="M155.9,194 L117.9,194 L117.9,207.16 L141.122222,207.16 L141.122222,260.74 C141.122222,265.064 138.435354,268.824 134.405051,270.328 L125.00101,273.9 L129.031313,288 L143.041414,282.548 C147.839394,280.668 151.677778,277.096 153.980808,272.584 C155.324242,269.952 155.9,267.132 155.9,264.124 L155.9,194 Z" id="Path" fill="#000000" fill-rule="nonzero"></path>
                    <path d="M116.7,55.78 C122.011087,65.5010631 124.111256,76.6529591 122.7,87.64 C122.727673,87.9193163 122.727673,88.2006837 122.7,88.48 C122.22,89.74 122.04,91.36 120.54,91.9 C119.04,92.44 117.78,91.24 116.76,90.16 C114.157374,87.1719053 111.977041,83.8408415 110.28,80.26 C105,70.66 99.78,61 94.98,51.1 C94.8244751,50.7115289 94.7039955,50.30993 94.62,49.9 C95.76,49.9 96.84,51.04 98.04,49.9 L93.6,47.02 C93.0355659,45.6073756 93.1154303,44.0188109 93.8186984,42.6699197 C94.5219665,41.3210284 95.7786628,40.3460257 97.26,40 C102.393777,38.4532836 106.894898,35.2982925 110.1,31 C112.98,27.88 115.56,24.58 118.32,21.34 C119.16,20.38 123.78,15.04 124.44,14.56 C128.321548,11.2836353 132.999068,9.08975446 138,8.2 C143.924311,7.30328943 149.840965,9.8656199 153.24,14.8 C154.505415,16.26516 156.868373,20.7412479 158,26 C159.106125,31.1402434 158.997531,37.0586223 158.82,39.04 C158.630993,42.461516 154.678245,63.7566305 153.24,68.02 C151.129846,75.4504626 148.565011,82.7442121 145.56,89.86 C144.584926,92.4402139 143.207916,94.8499812 141.48,97 C139.2,99.52 137.22,99.34 135.48,96.52 C133.500355,92.9226992 132.10304,89.034518 131.34,85 C128.932635,74.5664395 124.882098,64.5818636 119.34,55.42 C116.870203,51.6398869 113.926232,48.1918117 110.58,45.16 C110.28,45.16 109.98,44.32 109.38,44.62 C112.82,49.42 115.26,53.14 116.7,55.78 Z" id="Shape" fill="#C4C3C6" fill-rule="nonzero"></path>
                    <path d="M189.06,43 C191.01538,43.8281223 191.948849,46.068449 191.16,48.04 C190.71303,49.5230839 190.023719,50.9219806 189.12,52.18 C188.22,53.32 187.38,54.52 186.48,55.72 C187.02,56.26 187.26,55.72 187.68,55.72 C192.3,53.02 196.38,49.72 200.82,46.66 C201.419275,46.0453805 202.241579,45.6991474 203.1,45.7 C208.397186,45.4033815 213.178091,48.8576477 214.56,53.98 C214.682685,54.2307858 214.897721,54.424318 215.16,54.52 C216.36,55 216.66,56.14 217.08,57.16 C218.780897,60.2858251 217.72394,64.1965633 214.68,66.04 C209.863923,64.6780228 204.721588,65.0605106 200.16,67.12 C199.62,67.12 199.2,67.78 198.6,67.6 C198.443897,67.2322607 198.14204,66.9458981 197.766592,66.8093717 C197.391145,66.6728453 196.975853,66.6984266 196.62,66.88 L196.62,66.88 C195.6,65.92 195.18,66.88 194.94,67.6 C194.7,68.32 194.94,69.04 194.58,69.76 C193.165229,71.3707351 191.454231,72.6947217 189.54,73.66 C188.82,71.98 188.76,71.98 187.2,73.36 L187.98,73.66 C188.331264,73.7342882 188.596479,74.0236141 188.64,74.38 C187.181574,76.2478841 185.510285,77.9393092 183.66,79.42 C178.8,84.58 173.82,89.68 168.84,94.72 C167.597412,96.3600762 165.845993,97.541756 163.86,98.08 C161.58,98.5 161.04,98.08 161.58,95.68 C162.494521,92.4129148 163.846781,89.2845513 165.6,86.38 C166.669132,83.9512672 168.018272,81.6557158 169.62,79.54 L170.22,79.54 C171.06,79.54 172.44,80.5 172.68,79.54 C172.92,78.58 171.06,79.06 170.34,78.4 C172.08,74.74 174.42,71.44 176.34,67.9 C176.7,67.36 177.3,66.88 177.18,65.86 C175.292418,67.6926615 173.584627,69.7018274 172.08,71.86 C168.78,75.88 165.6,80.02 162.3,83.86 C161.776048,84.513833 161.171213,85.0985067 160.5,85.6 C159.36,86.5 158.46,86.44 158.1,84.82 C158.126554,84.4805185 158.126554,84.1394815 158.1,83.8 C160.173935,73.7385082 163.71154,64.0353631 168.6,55 C171.972595,46.8777296 180.32482,41.9790635 189.06,43 Z M202.86,53.68 C200.94,53.68 200.04,55.72 198.48,56.62 C197.94,56.62 197.1,57.34 197.58,58.24 C198.06,59.14 198.72,58.24 199.26,58.24 C201.070134,57.1824968 203.210277,56.8400738 205.26,57.28 C206.1,57.28 206.88,56.14 206.88,55.06 C206.88,53.98 206.22,53.5 205.14,53.98 C204.418444,54.3454743 203.561335,54.3229188 202.86,53.92 L202.86,53.68 Z M180.72,64.66 C181.289397,65.7564981 182.087341,66.7181231 183.06,67.48 C183.24,65.92 183.24,65.92 180.72,64.9 L180.72,64.66 Z" id="Shape" fill="#C4C3C6" fill-rule="nonzero"></path>
                    <path d="M76.2,39.94 C81.0876303,41.2242713 85.348225,44.2279906 88.2,48.4 C96.0210597,59.6426218 101.696417,72.2341858 104.94,85.54 C104.94,85.54 104.94,86.08 104.94,86.38 L98.94,80.38 C99.42,80.38 99.3,79.84 98.94,79.54 C94.3979936,73.7922884 88.9459373,68.826661 82.8,64.84 C81.1305564,63.8340532 69.227044,61.087624 65,56 C64.4601079,55.3501918 65.2990058,53.6911231 65,53 C64.0946063,50.9072695 62.7276531,45.0899285 64,43 C65.9446945,39.8056884 71.2706774,40.6909179 72,40.6 L76.2,39.94 Z M91.44,63.04 C92.0515316,62.9268846 92.6533446,62.7664012 93.24,62.56 C93.84,62.56 94.2,61.78 93.78,61.18 C93.36,60.58 92.94,60.7 92.58,61.18 C92.22,61.66 91.14,62.08 90.6,60.82 C90.06,59.56 88.92,59.38 87.78,59.08 C86.64,58.78 86.64,59.08 86.7,59.92 C88.0375527,61.2883955 89.6542358,62.3525413 91.44,63.04 L91.44,63.04 Z M82.98,59.5 C82.56,59.5 82.08,59.8 82.38,60.1 C82.68,60.4 83.34,62.26 84.54,62.5 C85.74,62.74 85.14,61.9 85.14,61.42 C85.14,60.94 84,59.8 82.98,59.5 L82.98,59.5 Z M82.26,55.42 C83.46,56.62 84.9,56.5 86.1,56.92 C85.14,55.84 84,55 82.26,55.42 L82.26,55.42 Z" id="Shape" fill="#C4C3C6" fill-rule="nonzero"></path>
                    <path d="M189.06,43 C180.32482,41.9790635 171.972595,46.8777296 168.6,55 C163.831972,63.9957106 160.396091,73.6363872 158.4,83.62 C158.426554,83.9594815 158.426554,84.3005185 158.4,84.64 C157.737032,81.433914 157.737032,78.126086 158.4,74.92 C159.191152,66.1541973 160.777683,57.4784832 163.14,49 C163.864221,46.5030959 164.93462,44.1199427 166.32,41.92 C167.920959,38.5552429 171.871859,37.0275616 175.32,38.44 C179.1,39.58 182.88,40.78 186.6,42.04 C187.507704,42.0591244 188.379272,42.3992487 189.06,43 L189.06,43 Z" id="Path" fill="#FEFEFE" fill-rule="nonzero"></path>
                    <path d="M76.2,39.94 L72,40.6 C69.3583532,40.8891756 66.9937321,42.3698262 65.58,44.62 C65.22,45.16 65.04,45.52 65.58,46.06 C67.32,47.5 65.94,47.92 64.74,48.28 L64.74,48.28 C64.74,46.72 63.54,45.7 63.3,44.2 L62.22,45.34 C61.0435225,46.7222691 60.5560386,48.5628259 60.894068,50.3462224 C61.2320974,52.1296189 62.359299,53.6641242 63.96,54.52 C64.32,54.52 64.74,55.12 65.1,54.52 C65.2500388,54.2175872 65.2500388,53.8624128 65.1,53.56 C64.5,52.42 65.1,51.52 65.58,50.44 C66.42,51.82 68.28,52.84 67.14,54.94 C66,57.04 67.56,56.32 68.16,56.68 C72.96,59.38 77.82,61.9 82.5,64.72 C88.6459373,68.706661 94.0979936,73.6722884 98.64,79.42 C98.64,79.72 99,80.02 98.64,80.26 C89.7641961,72.5591994 79.611673,66.4676855 68.64,62.26 C64.68,60.58 60.78,58.84 56.64,57.04 C55.1264562,56.4201031 53.9964263,55.1193483 53.5941775,53.5340147 C53.1919286,51.948681 53.5650986,50.2665173 54.6,49 C57.4538278,44.355894 62.1009703,41.0985511 67.44,40 C70.3067373,39.2305774 73.3229921,39.2099182 76.2,39.94 Z" id="Path" fill="#FEFEFE" fill-rule="nonzero"></path>
                    <path d="M214.68,66.1 C217.72394,64.2565633 218.780897,60.3458251 217.08,57.22 C216.66,56.2 216.36,55.06 215.16,54.58 C214.897721,54.484318 214.682685,54.2907858 214.56,54.04 C213.178091,48.9176477 208.397186,45.4633815 203.1,45.76 C206.461353,43.8745311 210.523755,43.7182849 214.02,45.34 C220.814168,49.1206993 224.527539,56.7390977 223.32,64.42 C222.982137,66.6179511 221.774363,68.5876148 219.96863,69.8854855 C218.162897,71.1833561 215.911002,71.7003296 213.72,71.32 C210.634253,70.9316086 207.529671,70.7112834 204.42,70.66 C207.704268,68.8513317 211.136685,67.3258132 214.68,66.1 L214.68,66.1 Z" id="Path" fill="#FEFEFE" fill-rule="nonzero"></path>
                    <path d="M144,108.04 C146.170946,110.229725 148.518916,112.236537 151.02,114.04 C146.723868,115.822815 141.765677,114.434522 139.02,110.68 C140.64,107.5 140.76,107.44 143.4,108.04 L144,108.04 Z" id="Path" fill="#C4C3C6" fill-rule="nonzero"></path>
                    <path d="M153.06,108.04 L159.06,112.12 C156.595015,113.272386 153.76438,113.35939 151.233274,112.360568 C148.702167,111.361746 146.693755,109.365163 145.68,106.84 C145.68,106.84 145.68,106.84 145.68,106.54 C147.159818,105.987813 148.81568,106.189201 150.12,107.08 C150.980527,107.689636 152.005526,108.024329 153.06,108.04 Z" id="Path" fill="#C4C3C6" fill-rule="nonzero"></path>
                    <path d="M127.14,110.98 C129.095732,113.277259 131.356718,115.295997 133.86,116.98 C134.16,116.98 134.7,117.4 134.58,117.88 C134.46,118.36 133.86,118.42 133.44,118.54 C130.10184,119.38848 126.563931,118.406996 124.14,115.96 C123.6,112.84 123.6,112.9 126.48,111.58 C126.72,111.4 126.9,111.16 127.14,110.98 Z" id="Path" fill="#C4C3C6" fill-rule="nonzero"></path>
                    <path d="M135.48,109.72 C137.576479,111.667215 139.801496,113.471283 142.14,115.12 C142.68,115.48 143.22,116.02 142.14,116.44 C138.440997,117.45169 134.490442,116.236135 132,113.32 C132,110.56 133.02,109.78 135.48,109.72 Z" id="Path" fill="#C4C3C6" fill-rule="nonzero"></path>
                    <path d="M114,117.76 L119.4,120.1 C117.489705,122.792889 113.762691,123.436402 111.06,121.54 C110.1,120.76 109.2,119.86 108.24,119.02 C107.28,118.18 108.24,117.4 109.68,117.34 C111.129102,117.360916 112.574007,117.501393 114,117.76 Z" id="Path" fill="#C4C3C6" fill-rule="nonzero"></path>
                    <path d="M119.4,114.04 C121.521513,115.415398 123.52808,116.960455 125.4,118.66 C125.4,118.66 126.24,119.14 126,119.62 C125.76,120.1 125.34,120.04 124.92,120.16 C124.122187,120.429763 123.257813,120.429763 122.46,120.16 C120.630901,119.72892 118.858762,119.084506 117.18,118.24 C116.28,114.82 116.58,114.28 119.4,114.1 L119.4,114.1 L119.4,114.04 Z" id="Path" fill="#C4C3C6" fill-rule="nonzero"></path>
                    <path d="M102,99.64 C102.581605,99.5798049 103.128203,99.9276398 103.32,100.48 C104.900868,103.053534 105.808741,105.983489 105.96,109 C105.96,110.44 105.96,110.56 104.04,109.96 L103.38,109.48 L103.38,109.48 C103.308308,109.068579 103.144187,108.678791 102.9,108.34 C101.325166,105.716797 100.9955,102.530031 102,99.64 Z" id="Path" fill="#C4C3C6" fill-rule="nonzero"></path>
                    <path d="M170.28,107.56 C166.92513,108.154354 163.572689,106.502426 162,103.48 C161.64,101.74 163.2,100.78 165.84,101.14 C164.58,103.3 166.2,103.9 167.64,104.44 C169.08,104.98 170.34,105.64 170.28,107.56 Z" id="Path" fill="#C4C3C6" fill-rule="nonzero"></path>
                    <path d="M107.64,120.28 C108.54,121.18 110.34,121.96 109.92,123.16 C109.5,124.36 107.64,124.12 106.32,124.24 C104.600689,124.587194 102.813927,124.310671 101.28,123.46 C101.28,120.1 101.58,119.86 104.88,120.16 C105.78,120.28 106.68,121 107.64,120.28 Z" id="Path" fill="#C4C3C6" fill-rule="nonzero"></path>
                    <path d="M153.24,104.74 C153.662002,103.55685 154.6794,102.685946 155.913479,102.451471 C157.147559,102.216995 158.413472,102.654071 159.24,103.6 C161.094687,105.685149 163.21241,107.520508 165.54,109.06 C166.32,109.66 166.26,109.72 165.54,110.14 C162.704539,109.102279 160.020715,107.68974 157.56,105.94 C156.506908,104.684826 154.789587,104.207792 153.24,104.74 Z" id="Path" fill="#FEFEFE" fill-rule="nonzero"></path>
                    <path d="M106.86,102.16 C106.86,100.42 107.52,99.94 109.02,100.54 C111.186299,101.30105 112.915695,102.964773 113.76,105.1 C114.076118,105.855318 114.07634,106.70582 113.760616,107.461302 C113.444892,108.216785 112.839562,108.81422 112.08,109.12 C111.355969,109.529327 110.492441,109.612829 109.703395,109.349814 C108.91435,109.086798 108.273629,108.50188 107.94,107.74 C109.14,107.2 111,107.74 111.3,105.82 C111.353851,104.472372 110.662193,103.204331 109.5,102.52 C108.71512,102.019348 107.750272,101.887778 106.86,102.16 Z" id="Path" fill="#C4C3C6" fill-rule="nonzero"></path>
                    <path d="M155.58,122.26 C153.339924,122.574543 151.058993,122.131029 149.1,121 C147.66,120.22 147.66,119.14 149.1,118.36 C150.464561,117.527153 152.081335,117.208053 153.66,117.46 C154.62,119.08 156,120.28 155.58,122.26 Z" id="Path" fill="#C4C3C6" fill-rule="nonzero"></path>
                    <path d="M153.24,104.74 C154.699213,104.339026 156.259363,104.804743 157.26,105.94 C159.720715,107.68974 162.404539,109.102279 165.24,110.14 C160.441416,111.79572 155.183221,109.429532 153.24,104.74 L153.24,104.74 Z" id="Path" fill="#C4C3C6" fill-rule="nonzero"></path>
                    <path d="M169.2,121.66 C167.105495,120.262858 165.98833,117.795787 166.32,115.3 C166.98,113.92 168.06,113.32 169.5,114.58 C169.5,115.54 170.04,116.26 170.34,117.16 C171.106997,118.737422 170.625513,120.638014 169.2,121.66 Z" id="Path" fill="#C4C3C6" fill-rule="nonzero"></path>
                    <path d="M107.64,120.28 C106.68,121.24 105.78,120.28 104.88,120.28 C101.58,119.98 101.28,120.28 101.28,123.58 C99.4183835,122.757891 98.562906,120.592464 99.36,118.72 C100.507685,117.29416 102.532233,116.93538 104.1,117.88 C105.391122,118.502397 106.583846,119.311024 107.64,120.28 L107.64,120.28 Z" id="Path" fill="#FEFEFE" fill-rule="nonzero"></path>
                    <path d="M162.66,122.08 C161.33639,121.850817 160.141772,121.146846 159.3,120.1 C158.4,119.08 157.26,117.82 158.46,116.44 C158.982994,115.866095 159.72354,115.539032 160.5,115.539032 C161.27646,115.539032 162.017006,115.866095 162.54,116.44 C163.254524,118.244886 163.297108,120.246356 162.66,122.08 Z" id="Path" fill="#C4C3C6" fill-rule="nonzero"></path>
                    <path d="M102,99.64 C100.881409,102.609593 101.191192,105.928697 102.84,108.64 C103.084187,108.978791 103.248308,109.368579 103.32,109.78 C101.342694,109.41831 99.7073338,108.03158 99.0273447,106.139974 C98.3473556,104.248368 98.7255246,102.137821 100.02,100.6 C100.62,100 101.16,99.46 102,99.64 Z" id="Path" fill="#FEFEFE" fill-rule="nonzero"></path>
                    <path d="M106.86,102.16 C107.750272,101.887778 108.71512,102.019348 109.5,102.52 C110.662193,103.204331 111.353851,104.472372 111.3,105.82 C111,107.56 109.14,107.2 107.94,107.74 C106.956514,106.056714 106.575605,104.088682 106.86,102.16 L106.86,102.16 Z" id="Path" fill="#FEFEFE" fill-rule="nonzero"></path>
                    <path d="M169.2,121.66 C170.625513,120.638014 171.106997,118.737422 170.34,117.16 C170.04,116.26 169.44,115.54 169.5,114.58 C170.932946,115.582472 172.224528,116.773149 173.34,118.12 C173.803658,118.632931 173.993737,119.336831 173.851295,120.01343 C173.708853,120.69003 173.251108,121.257546 172.62,121.54 C171.6,122.2 170.4,123.34 169.2,121.66 Z" id="Path" fill="#FEFEFE" fill-rule="nonzero"></path>
                    <path d="M114,117.76 C112.574007,117.501393 111.129102,117.360916 109.68,117.34 C108.42,117.34 108.06,117.94 108.24,119.02 C106.987645,118.324207 105.870006,117.409775 104.94,116.32 C108,113.92 109.56,114.22 114,117.76 Z" id="Path" fill="#FEFEFE" fill-rule="nonzero"></path>
                    <path d="M170.28,107.56 C170.28,105.64 168.96,105.04 167.46,104.44 C165.96,103.84 164.4,103.3 165.66,101.14 C168.256008,100.951031 170.631273,102.601215 171.36,105.1 C171.66,106.18 171.78,107.26 170.28,107.56 Z" id="Path" fill="#FEFEFE" fill-rule="nonzero"></path>
                    <path d="M120.42,104.14 C121.120325,104.062252 121.814551,104.330985 122.28,104.86 C123.12,105.64 123.06,106.36 121.92,106.72 C120.364209,107.11115 118.735791,107.11115 117.18,106.72 C115.92,106.72 115.74,105.46 115.74,104.44 C115.74,103.42 115.74,102.7 117,102.82 C116.890448,103.985217 117.704302,105.035351 118.86,105.22 C120,105.58 120.3,105.04 120.42,104.14 Z" id="Path" fill="#C4C3C6" fill-rule="nonzero"></path>
                    <path d="M119.1,113.92 C116.28,113.92 115.98,114.64 116.88,118.06 C115.622858,117.441486 114.469167,116.631878 113.46,115.66 C112.08,114.52 112.68,113.74 114,113.32 C115.677816,112.546596 117.647488,112.778322 119.1,113.92 L119.1,113.92 Z" id="Path" fill="#FEFEFE" fill-rule="nonzero"></path>
                    <path d="M135.48,109.72 C133.02,109.72 132.24,110.56 131.76,113.32 C131.576498,113.235034 131.412948,113.112372 131.28,112.96 C130.38,111.88 128.46,110.98 130.2,109.18 C131.845594,108.007456 134.10583,108.238617 135.48,109.72 L135.48,109.72 Z" id="Path" fill="#FEFEFE" fill-rule="nonzero"></path>
                    <path d="M127.14,110.98 C127.14,110.98 126.72,111.4 126.48,111.46 C123.6,112.78 123.6,112.72 124.14,115.84 L123.78,115.84 C122.76,114.64 120.9,113.68 121.92,111.64 C122.94,109.6 125.04,110.02 127.14,110.98 Z" id="Path" fill="#FEFEFE" fill-rule="nonzero"></path>
                    <path d="M153.06,108.04 C152.005526,108.024329 150.980527,107.689636 150.12,107.08 C148.81568,106.189201 147.159818,105.987813 145.68,106.54 C146.257915,105.490604 147.30585,104.783755 148.495322,104.641018 C149.684794,104.498281 150.870213,104.937129 151.68,105.82 C152.312964,106.437348 152.786535,107.199179 153.06,108.04 Z" id="Path" fill="#FEFEFE" fill-rule="nonzero"></path>
                    <path d="M144,108.04 L143.16,108.04 C140.52,107.44 140.4,107.5 138.78,110.68 C138,109.66 136.68,108.7 138.24,107.38 C140.02832,106.027043 142.564065,106.317597 144,108.04 L144,108.04 Z" id="Path" fill="#FEFEFE" fill-rule="nonzero"></path>
                    <path d="M162.66,122.08 C163.350598,120.242753 163.350598,118.217247 162.66,116.38 C164.197385,117.474602 165.234124,119.137704 165.54,121 C165.84,122.44 164.94,122.74 162.66,122.08 Z" id="Path" fill="#FEFEFE" fill-rule="nonzero"></path>
                    <path d="M155.58,122.26 C156.06,120.28 154.62,119.08 153.66,117.64 C155.166808,117.448973 156.57109,118.437171 156.9,119.92 C157.32,121 157.08,122.14 155.58,122.26 Z" id="Path" fill="#FEFEFE" fill-rule="nonzero"></path>
                    <path d="M120.42,104.14 C120.42,105.04 119.76,105.58 118.86,105.4 C117.704302,105.215351 116.890448,104.165217 117,103 C118.262607,102.727608 119.57335,103.164522 120.42,104.14 Z" id="Path" fill="#FEFEFE" fill-rule="nonzero"></path>
                    <path d="M106.02,85.96 C106.00914,86.1198157 106.00914,86.2801843 106.02,86.44 L106.02,86.44 L106.02,85.9 L106.02,85.96 Z" id="Path" fill="#BFAF9F" fill-rule="nonzero"></path>
                    <path d="M119.4,114.04 L119.04,114.04 L119.4,114.04 Z" id="Path" fill="#FEFEFE" fill-rule="nonzero"></path>
                    <path d="M103.38,109.72 L104.04,110.2 C103.74,110.2 103.32,110.26 103.38,109.72 Z" id="Path" fill="#FEFEFE" fill-rule="nonzero"></path>
                    <path d="M128.04,133 C129.06,133.42 128.76,134.44 129.06,135.1 C129.161538,135.33307 129.120183,135.60374 128.953682,135.795858 C128.78718,135.987975 128.525136,136.067381 128.28,136 C127.62,136 126.78,135.46 126.84,134.5 C126.9,133.54 127.44,133.42 128.04,133 Z" id="Path" fill="#FEFEFE" fill-rule="nonzero"></path>
                    <path d="M146.488253,49.9232986 C146.461416,61.3295487 145.452626,72.7126422 143.472902,83.9482441 C143.267613,85.6231674 142.630264,87.217079 141.622573,88.5756367 C140.868735,89.5963851 140.046366,89.8005348 139.086936,88.5756367 C137.286204,86.5801786 135.869306,84.2736927 134.906563,81.7706476 C131.205904,73.5366108 128.053491,64.9623245 124.010179,56.9324374 C122.219058,53.2839242 120.181324,49.7599613 117.910945,46.3847042 C114.289784,40.349673 114.922747,32.6980978 119.487152,27.3307347 C121.885727,24.676789 124.558425,22.2269929 127.162592,19.7771968 C128.840164,18.1552585 130.921269,17.0045913 133.193295,16.4427521 C136.96212,16.1684961 140.478544,18.3405312 141.896695,21.8186935 C145.405845,30.7605958 146.970609,40.3384072 146.488253,49.9232986 Z" id="Path" fill="#FEFEFE" fill-rule="nonzero"></path>
                    <path d="M242.52,236.14 C240.368732,232.85446 237.252845,230.197034 234,227.92 C232.98,227.2 232.62,227.44 232.68,228.64 C232.650165,229.05947 232.650165,229.48053 232.68,229.9 C233.470874,236.846837 233.14679,243.875418 231.72,250.72 C229.843823,260.888496 225.746358,270.517539 219.72,278.92 C213.886382,286.700748 206.190609,292.890378 197.34,296.92 C196.077688,297.100626 194.858225,297.507114 193.74,298.12 C191.257172,299.323288 188.665496,300.287632 186,301 C179.78243,302.766616 173.378189,303.793712 166.92,304.06 C158.684901,304.569178 150.419054,304.20717 142.26,302.98 C130.072352,301.295507 118.456052,296.751786 108.36,289.72 C100.470717,284.36537 93.9711644,277.207634 89.4,268.84 C88.5,267.1 87.54,265.48 86.64,263.74 C86.9427418,276.302239 91.1354656,288.461138 98.64,298.54 C74.16,285.76 58.38,266.74 56.28,238.54 L56.28,236.26 C56.3402439,236.105671 56.3402439,235.934329 56.28,235.78 C54.8294806,217.523014 60.9475715,199.472477 73.2,185.86 C73.2,186.82 71,203 76.62,220.36 C77.0278231,222.23657 77.8475839,223.999055 79.02,225.52 C79,214 87.2326996,183.214754 98,166 C104.507925,155.595133 117.010532,147.250655 118.44,146.74 C122.04,145.6 124.86,147.16 124.44,150.16 C123.820201,154.007485 123.559079,157.904219 123.66,161.8 C123.66,166.42 123.66,170.98 123.66,175.6 L126.66,175.6 C126.66,171.82 129.42,169 130.56,165.52 C131.888162,162.484719 133.411344,159.538563 135.12,156.7 C137.584236,151.864992 140.850538,147.482872 144.78,143.74 C147.194131,140.852385 150.982254,139.497844 154.68,140.2 C157.726993,140.92143 160.51173,142.480051 162.72,144.7 C169.376946,151.567053 174.778683,159.547814 178.68,168.28 C179.134138,169.35169 179.785416,170.328607 180.6,171.16 C180.80757,169.989128 180.80757,168.790872 180.6,167.62 C180.012998,162.019278 180.605726,156.3577 182.34,151 C183.18,147.64 184.38,147.28 186.9,149.74 C190.167124,152.716295 193.215051,155.924639 196.02,159.34 C196.646604,160.359033 197.538389,161.1886 198.6,161.74 C198.557258,160.977338 198.33083,160.236302 197.94,159.58 C195.23086,154.102443 191.909667,148.949561 188.04,144.22 C187.74,143.8 186.78,143.5 187.56,142.72 C182.36949,137.358549 176.276738,132.951458 169.56,129.7 C169.02,129.7 168.42,128.8 167.88,129.28 C167.34,129.76 167.88,130.42 168.18,130.96 C171.051798,138.1555 173.515706,145.507162 175.56,152.98 C176.58,156.7 176.7,157.48 176.28,158.98 L175.8,158.2 C173.123096,151.935329 169.91121,145.913041 166.2,140.2 C163.28849,135.05124 159.170573,130.686248 154.2,127.48 C152.056622,126.194399 149.51395,125.745692 147.06,126.22 C143.096596,127.174347 139.656324,129.625541 137.46,133.06 C132.800171,139.952526 129.557299,147.702784 127.92,155.86 C127.44,158.02 126.96,160.18 126.48,162.52 C126.06,161.02 126.78,159.82 126.78,158.56 C126.786765,151.458951 127.55109,144.378886 129.06,137.44 C130.5,130.54 126.36,126.82 119.52,128.44 C116.174632,129.3622 113.051476,130.954397 110.34,133.12 C102.346202,139.50649 95.6287744,147.34349 90.54,156.22 C88.62,159.34 86.88,162.22 84.54,166.12 C87.8436826,152.530818 94.4371268,139.962065 103.74,129.52 C97.3299399,132.485343 91.2888659,136.190536 85.74,140.56 C85.74,140.56 78.3589959,148.356111 71,157 C64.8874617,164.179798 58.657233,172.405173 57.9,173.02 C57.505388,173.254256 57.3718111,173.761849 57.6,174.16 C57.9,174.7 58.44,174.16 58.92,174.16 L72,172.12 C72.4417326,171.936664 72.9382674,171.936664 73.38,172.12 C73.38,173.68 71.82,174.22 70.86,175.12 C68.04,177.76 65.16,180.34 62.52,183.16 C58.02,188.02 53.46,192.82 49.32,197.98 C46.74,201.22 43.98,204.34 41.7,207.82 C23,237 17.873546,255.574864 17.28,265.6 C14.8803228,306.131134 62.8465515,326.270513 94,331 C105.428658,332.735015 118.384307,328.83124 120.36,328.18 C122.04,327.64 121.98,326.98 120.84,325.66 C117.745574,322.257656 114.992389,318.559948 112.62,314.62 C113.30724,314.914125 113.952782,315.297416 114.54,315.76 C115.2,316.3 115.8,316.9 116.46,317.38 C125.627347,323.76085 135.902351,328.379515 146.76,331 C153.739151,332.803472 160.911933,333.750441 168.12,333.82 C190.569496,335.306755 212.960018,330.152552 232.5,319 C233.652391,318.618876 234.743666,318.073239 235.74,317.38 L240,314.2 L241.26,313.12 C241.824384,312.974818 242.341305,312.685342 242.76,312.28 C242.76,311.8 243.36,311.86 243.78,311.74 C243.734834,311.083319 244.029212,310.449274 244.56,310.06 C249.6027,305.00874 266,272 242.52,236.14 Z" id="Path" fill="#C4C3C6" fill-rule="nonzero"></path>
                    <polygon id="Path" fill="#BFAF9F" fill-rule="nonzero" points="85.62 141.04 85.56 141.04 85.62 141.04"></polygon>
                    <path d="M47.9943317,347.192346 C45.5440032,345.806731 51.4308331,302.314498 61.3420103,296.52836 C76.2087761,287.849154 73.9950361,292.947372 92.9171225,286.135464 C111.839209,279.323556 120.542267,278.224251 106.48073,287.065105 C97.1063718,292.959008 67.2426658,310.991495 47.9943317,347.192346 Z" id="Rectangle-Copy-40" fill="#000000" transform="translate(80.430773, 313.961336) rotate(-118.000000) translate(-80.430773, -313.961336) "></path>
                    <path d="M219.459502,333.087417 C218.085462,331.701802 221.386546,288.209569 226.944311,282.423431 C235.28096,273.744225 234.039589,278.842443 244.650288,272.030535 C255.260988,265.218627 260.141292,264.119322 252.256181,272.960176 C246.999441,278.854079 230.253147,296.886566 219.459502,333.087417 Z" id="Rectangle-Copy-41" fill="#000000" transform="translate(237.648476, 299.856407) rotate(-182.000000) translate(-237.648476, -299.856407) "></path>
                </g>
            </g>
        </g>
    </g>
</svg>