<?xml version="1.0" encoding="UTF-8"?>
<svg width="173px" height="329px" viewBox="0 0 173 329" version="1.1" xmlns="http://www.w3.org/2000/svg" xmlns:xlink="http://www.w3.org/1999/xlink">
    <!-- Generator: Sketch 61 (89581) - https://sketch.com -->
    <title>columns</title>
    <desc>Created with Sketch.</desc>
    <g id="Illustrations" stroke="none" stroke-width="1" fill="none" fill-rule="evenodd">
        <g id="Other" transform="translate(-671.000000, -3154.000000)">
            <g id="columns" transform="translate(671.000000, 3150.000000)">
                <g id="Group-20-Copy-5" transform="translate(57.000000, 0.000000)">
                    <g id="Group-20-Copy-6">
                        <g id="Group-21" transform="translate(0.000000, 4.218289)">
                            <path d="M57.9786584,256.479768 C26.6132667,256.479768 0.0555055084,237.412978 0.0555055084,211.855146 C0.0555055084,186.297314 26.6132667,167.230524 57.9786584,167.230524 C89.3440501,167.230524 115.901811,186.297314 115.901811,211.855146 C115.901811,237.412978 89.3440501,256.479768 57.9786584,256.479768 Z" id="Path" fill="#000000" fill-rule="nonzero"></path>
                            <path d="M57.9786584,245.632739 C83.9626357,245.632739 105.026811,230.509996 105.026811,211.855146 C105.026811,193.200297 83.9626357,178.077554 57.9786584,178.077554 C31.994681,178.077554 10.9305055,193.200297 10.9305055,211.855146 C10.9305055,230.509996 31.994681,245.632739 57.9786584,245.632739 Z" id="Path" fill="#FFFFFF" fill-rule="nonzero"></path>
                            <path d="M57.9786584,236.668439 C82.003045,236.668439 101.478658,222.638895 101.478658,205.332577 C101.478658,188.026258 82.003045,173.996714 57.9786584,173.996714 C33.9542718,173.996714 14.4786584,188.026258 14.4786584,205.332577 C14.4786584,222.638895 33.9542718,236.668439 57.9786584,236.668439 Z" id="Oval-Copy-26" fill="#D8D8D8"></path>
                            <path d="M98.8046927,190.889744 C98.8046927,209.678059 79.8457453,223.071839 57.9786584,223.071839 C36.1115714,223.071839 17.1526241,209.678059 17.1526241,190.889744 C17.1526241,190.786609 17.1526241,190.683504 17.1544376,190.580431 L17.1526241,47.3902752 C17.1526241,41.0667679 22.2919773,35.9405189 28.6317907,35.9405189 L87.325526,35.9405189 C93.6652947,35.9405189 98.8046927,41.0666982 98.8046927,47.3901608 L98.8046927,190.656795 C98.8046927,190.687833 98.8046927,190.718843 98.8046927,190.749823 C98.8046927,190.796458 98.8046927,190.843098 98.8046927,190.889744 Z" id="Path" fill="#000000" fill-rule="nonzero"></path>
                            <path d="M87.3237117,190.656795 L87.325526,47.3901608 L28.6317907,47.3901608 L28.633605,190.656795 C28.6323966,190.734343 28.6317907,190.811994 28.6317907,190.889744 C28.6317907,202.339962 41.7708309,211.622197 57.9786584,211.622197 C74.1864858,211.622197 87.325526,202.339962 87.325526,190.889744 C87.325526,190.811994 87.3249202,190.734343 87.3237117,190.656795 Z" id="Path" fill="#D8D8D8" fill-rule="nonzero"></path>
                            <path d="M31.7607907,46.7875481 L37.9482567,183.288249 C37.9470482,183.365797 34.4375,205.332577 60.9994917,208.609134 C64.4835971,209.038916 67.558611,209.196247 70.2719085,209.119365 C66.5324903,210.338777 62.3681148,211.019585 57.9786584,211.019585 C41.7708309,211.019585 28.6317907,201.737349 28.6317907,190.287131 C28.6317907,190.209381 28.6323966,190.13173 28.633605,190.054182 L28.633605,190.054182 L28.6317907,46.7875481 L31.7607907,46.7875481 Z" id="Combined-Shape" fill="#FFFFFF" fill-rule="nonzero"></path>
                            <ellipse id="Oval-Copy-21" fill="#000000" cx="57.9786584" cy="62.0659425" rx="43.3215665" ry="30.9822057"></ellipse>
                            <path d="M58.21157,97.1166804 C33.1265054,97.1166804 25.6187215,88.5749288 15.5821511,80.2963186 C8.23142402,74.2331115 3.78209187,66.049629 3.78209187,55.8924287 C3.78209187,53.0706124 4.12549501,36.4745345 4.7791105,33.8431446 C9.69054931,14.0701879 32.1178653,0.203100887 57.9786584,0.203100887 C84.421104,0.203100887 107.273886,14.700991 111.482863,35.1861978 C111.938089,37.401795 112.175225,50.0824023 112.175225,52.4273079 C112.175225,63.2261889 99.1261226,71.7560857 98.9476712,81.4200236 C97.7693817,145.229669 83.2966347,97.1166804 58.21157,97.1166804 Z" id="Path" fill="#000000" fill-rule="nonzero"></path>
                            <path d="M101.338969,52.4274923 C101.445586,53.2218127 101.5,54.025708 101.5,54.8377589 C101.5,70.1471948 82.1596339,82.5579447 58.3020833,82.5579447 C34.4445327,82.5579447 15.1041667,70.1471948 15.1041667,54.8377589 C15.1041667,54.025708 15.1585809,53.2218127 15.2651973,52.4274923 C17.1685987,66.6079697 35.709997,77.7370428 58.3020833,77.7370428 C80.7281809,77.7370428 99.1628942,66.7709042 101.294326,52.739195 Z" id="Combined-Shape" fill="#D8D8D8" fill-rule="nonzero"></path>
                            <path d="M57.9786584,73.0145415 C81.9044989,73.0145415 101.300225,59.1433355 101.300225,42.0323358 C101.300225,24.9213361 81.9044989,11.0501301 57.9786584,11.0501301 C34.0528179,11.0501301 14.6570919,24.9213361 14.6570919,42.0323358 C14.6570919,59.1433355 34.0528179,73.0145415 57.9786584,73.0145415 Z" id="Path-Copy-4" fill="#D8D8D8" fill-rule="nonzero"></path>
                            <path d="M74.5153854,85.5937829 C76.7021557,85.5937829 78.4748834,87.3665105 78.4748834,89.5532809 L78.4748834,185.299603 C78.4748834,187.486374 76.7021557,189.259101 74.5153854,189.259101 C72.328615,189.259101 70.5558874,187.486374 70.5558874,185.299603 L70.5558874,89.5532809 C70.5558874,87.3665105 72.328615,85.5937829 74.5153854,85.5937829 Z" id="Rectangle" fill="#000000"></path>
                            <path d="M58.21157,91.6504546 C60.3983404,91.6504546 62.171068,93.4231823 62.171068,95.6099527 L62.171068,191.356275 C62.171068,193.543046 60.3983404,195.315773 58.21157,195.315773 C56.0247996,195.315773 54.252072,193.543046 54.252072,191.356275 L54.252072,95.6099527 C54.252072,93.4231823 56.0247996,91.6504546 58.21157,91.6504546 Z" id="Rectangle-Copy-8" fill="#000000"></path>
                            <path d="M41.9077547,85.5937829 C44.094525,85.5937829 45.8672527,87.3665105 45.8672527,89.5532809 L45.8672527,185.299603 C45.8672527,187.486374 44.094525,189.259101 41.9077547,189.259101 C39.7209843,189.259101 37.9482567,187.486374 37.9482567,185.299603 L37.9482567,89.5532809 C37.9482567,87.3665105 39.7209843,85.5937829 41.9077547,85.5937829 Z" id="Rectangle-Copy-9" fill="#000000"></path>
                        </g>
                        <g id="Group-6" transform="translate(50.841812, 28.122326) rotate(-15.000000) translate(-50.841812, -28.122326) translate(8.341812, 10.622326)" fill-rule="nonzero">
                            <path d="M41.7811481,29.5404545 C33.7369649,34.5901763 25.0396074,34.9098766 16.7099029,34.1643229 C12.7812212,33.8126846 9.18318295,32.8085507 6.34615403,31.2068339 C2.69842394,29.1474153 0.311424509,26.1075566 0.311424509,22.487337 C0.311424509,17.6409575 4.61223747,12.1235942 10.8304695,7.71813863 C17.5442541,2.96159702 25.8208774,0.00167735722 34.362601,-9.36850597e-12 C43.6978069,-0.00182807432 52.8190405,1.0273841 60.7355393,3.38346711 C71.4592165,6.57501362 79.4133061,12.0456307 83.2044831,20.103937 C84.7120738,23.3083843 85.1757792,25.9059435 83.7569745,28.6269251 C82.6711907,30.7092396 80.6102744,32.2168177 78.0892887,32.9201021 C76.4104484,33.3884515 68.5609706,34.4814752 65.7975179,33.647108 C64.4778748,33.2486691 59.6471174,31.6930507 59.1574091,31.5392831 C55.9385224,30.5285584 53.4674917,29.8489465 51.1648729,29.3775397 C46.3922197,28.4004519 43.354536,28.552763 41.7811481,29.5404545 Z" id="Path" fill="#000000"></path>
                            <path d="M39.9944369,26.3048636 C53.9312135,21.283956 89.7802676,40.8347857 82.7060069,26.5454667 C75.6317462,12.2561476 51.3332107,6.38868751 35.2969366,6.39167459 C19.2606626,6.39466396 5.66175041,18.3065682 5.66175041,23.5880162 C5.66175041,28.8694642 26.0576603,31.3257712 39.9944369,26.3048636 Z" id="Path" fill="#FFFFFF"></path>
                        </g>
                    </g>
                </g>
                <g id="Group-20-Copy-3" transform="translate(0.000000, 63.000000)">
                    <g id="Group-20-Copy-2">
                        <g id="Group-21" transform="translate(0.000000, 4.361969)">
                            <path d="M59.4781064,265.21575 C27.3015408,265.21575 0.0569409956,245.499524 0.0569409956,219.071164 C0.0569409956,192.642805 27.3015408,172.926579 59.4781064,172.926579 C91.6546721,172.926579 118.899272,192.642805 118.899272,219.071164 C118.899272,245.499524 91.6546721,265.21575 59.4781064,265.21575 Z" id="Path" fill="#000000" fill-rule="nonzero"></path>
                            <path d="M59.4781064,253.999259 C86.1340832,253.999259 107.743022,238.361418 107.743022,219.071164 C107.743022,199.780911 86.1340832,184.14307 59.4781064,184.14307 C32.8221297,184.14307 11.213191,199.780911 11.213191,219.071164 C11.213191,238.361418 32.8221297,253.999259 59.4781064,253.999259 Z" id="Path" fill="#FFFFFF" fill-rule="nonzero"></path>
                            <path d="M59.4781064,244.729625 C84.1238134,244.729625 104.103106,230.22222 104.103106,212.326429 C104.103106,194.430638 84.1238134,179.923233 59.4781064,179.923233 C34.8323995,179.923233 14.8531064,194.430638 14.8531064,212.326429 C14.8531064,230.22222 34.8323995,244.729625 59.4781064,244.729625 Z" id="Oval-Copy-26" fill="#D8D8D8"></path>
                            <path d="M101.359986,197.391658 C101.359986,216.819923 81.9107215,230.66991 59.4781064,230.66991 C37.0454914,230.66991 17.5962264,216.819923 17.5962264,197.391658 C17.5962264,197.28501 17.5962264,197.178393 17.5980869,197.071809 L17.5962264,49.0044398 C17.5962264,42.4655469 22.8684939,37.1646923 29.3722681,37.1646923 L89.5839448,37.1646923 C96.087673,37.1646923 101.359986,42.4654749 101.359986,49.0043216 L101.359986,197.150774 C101.359986,197.18287 101.359986,197.214935 101.359986,197.246971 C101.359986,197.295194 101.359986,197.343423 101.359986,197.391658 Z" id="Path" fill="#000000" fill-rule="nonzero"></path>
                            <path d="M89.5820836,197.150774 L89.5839448,49.0043216 L29.3722681,49.0043216 L29.3741293,197.150774 C29.3728896,197.230964 29.3722681,197.311259 29.3722681,197.391658 C29.3722681,209.231882 42.851111,218.830281 59.4781064,218.830281 C76.1051018,218.830281 89.5839448,209.231882 89.5839448,197.391658 C89.5839448,197.311259 89.5833233,197.230964 89.5820836,197.150774 Z" id="Path" fill="#D8D8D8" fill-rule="nonzero"></path>
                            <path d="M32.5822681,48.3811832 L38.9296771,189.531248 C38.9284374,189.611437 35.328125,212.326429 62.5770648,215.714589 C66.1496077,216.158803 69.302871,216.321548 72.0853869,216.242311 C68.2502521,217.503625 63.9795517,218.207143 59.4781064,218.207143 C42.851111,218.207143 29.3722681,208.608744 29.3722681,196.768519 C29.3722681,196.688121 29.3728896,196.607825 29.3741293,196.527636 L29.3741293,196.527636 L29.3722681,48.3811832 L32.5822681,48.3811832 Z" id="Combined-Shape" fill="#FFFFFF" fill-rule="nonzero"></path>
                            <ellipse id="Oval-Copy-21" fill="#000000" cx="59.4781064" cy="64.1799764" rx="44.4419518" ry="32.0374935"></ellipse>
                            <path d="M59.7170417,100.424581 C33.9832253,100.424581 26.2812746,91.5918878 15.9851378,83.0312991 C8.44430567,76.7615725 3.87990459,68.2993517 3.87990459,57.796186 C3.87990459,54.8782556 4.23218885,37.7168971 4.90270819,34.9958791 C9.94116696,14.5494339 32.9484998,0.210018725 59.4781064,0.210018725 C86.6044085,0.210018725 110.048211,15.2017228 114.36604,36.3846782 C114.833039,38.6757411 115.076308,51.7882637 115.076308,54.2130394 C115.076308,65.3797421 101.689729,74.2001765 101.506663,84.1932788 C100.2979,150.176351 85.450858,100.424581 59.7170417,100.424581 Z" id="Path" fill="#000000" fill-rule="nonzero"></path>
                            <path d="M103.959787,54.2130977 C104.069172,55.0345165 104.125,55.8658377 104.125,56.705593 C104.125,72.536485 84.2844521,85.3699587 59.8098958,85.3699587 C35.3353396,85.3699587 15.4947917,72.536485 15.4947917,56.705593 C15.4947917,55.8658377 15.5506192,55.0345165 15.6600045,54.2130977 C17.6127288,68.8767793 36.6336012,80.3848516 59.8098958,80.3848516 C82.8159787,80.3848516 101.727452,69.0451943 103.914007,54.5355498 Z" id="Combined-Shape" fill="#D8D8D8" fill-rule="nonzero"></path>
                            <path d="M59.4781064,75.5014967 C84.0227187,75.5014967 103.920058,61.1578223 103.920058,43.4640032 C103.920058,25.7701841 84.0227187,11.4265096 59.4781064,11.4265096 C34.9334942,11.4265096 15.0361546,25.7701841 15.0361546,43.4640032 C15.0361546,61.1578223 34.9334942,75.5014967 59.4781064,75.5014967 Z" id="Path-Copy-4" fill="#D8D8D8" fill-rule="nonzero"></path>
                            <path d="M76.4425074,88.5092008 C78.6858322,88.5092008 80.5044062,90.3277749 80.5044062,92.5710996 L80.5044062,191.643575 C80.5044062,193.8869 78.6858322,195.705474 76.4425074,195.705474 C74.1991826,195.705474 72.3806086,193.8869 72.3806086,191.643575 L72.3806086,92.5710996 C72.3806086,90.3277749 74.1991826,88.5092008 76.4425074,88.5092008 Z" id="Rectangle" fill="#000000"></path>
                            <path d="M59.7170417,94.7721695 C61.9603664,94.7721695 63.7789405,96.5907435 63.7789405,98.8340683 L63.7789405,197.906544 C63.7789405,200.149868 61.9603664,201.968442 59.7170417,201.968442 C57.4737169,201.968442 55.6551428,200.149868 55.6551428,197.906544 L55.6551428,98.8340683 C55.6551428,96.5907435 57.4737169,94.7721695 59.7170417,94.7721695 Z" id="Rectangle-Copy-8" fill="#000000"></path>
                            <path d="M42.9915759,88.5092008 C45.2349007,88.5092008 47.0534747,90.3277749 47.0534747,92.5710996 L47.0534747,191.643575 C47.0534747,193.8869 45.2349007,195.705474 42.9915759,195.705474 C40.7482511,195.705474 38.9296771,193.8869 38.9296771,191.643575 L38.9296771,92.5710996 C38.9296771,90.3277749 40.7482511,88.5092008 42.9915759,88.5092008 Z" id="Rectangle-Copy-9" fill="#000000"></path>
                        </g>
                        <g id="Group-6" transform="translate(52.036212, 29.012789) rotate(-15.000000) translate(-52.036212, -29.012789) translate(8.536212, 11.012789)" fill-rule="nonzero">
                            <path d="M42.861695,30.5466348 C34.6094726,35.7683556 25.6871835,36.0989452 17.1420556,35.3279971 C13.1117701,34.9643817 9.42067906,33.9260458 6.5102787,32.2697729 C2.76821076,30.1402081 0.319478591,26.9968086 0.319478591,23.2532803 C0.319478591,18.2418278 4.73151947,12.5365371 11.1105679,7.98102688 C17.9979848,3.06247225 26.4886587,0.00173448984 35.2512889,-9.36850597e-12 C44.8279226,-0.00189034054 54.1850502,1.06237793 62.306286,3.49871171 C73.3072997,6.79896578 81.4670985,12.4559181 85.3563232,20.7886991 C86.9029033,24.1022933 87.3786011,26.7883283 85.9231031,29.6019895 C84.8092387,31.7552299 82.6950229,33.3141578 80.1088392,34.0413968 C78.3865807,34.5256987 70.3340992,35.655952 67.4991778,34.7931653 C66.1454061,34.3811552 61.1897153,32.7725507 60.687342,32.6135456 C57.3852083,31.5683945 54.8502716,30.8656342 52.4881024,30.3781709 C47.5920184,29.3678024 44.475774,29.5253014 42.861695,30.5466348 Z" id="Path" fill="#000000"></path>
                            <path d="M41.0287757,27.200836 C55.3259862,22.0089108 92.1021711,42.2256633 84.8449554,27.4496343 C77.5877397,12.6736054 52.6607937,6.6062932 36.2097885,6.60938203 C19.7587832,6.61247321 5.80817499,18.93011 5.80817499,24.3914499 C5.80817499,29.8527897 26.7315653,32.3927612 41.0287757,27.200836 Z" id="Path" fill="#FFFFFF"></path>
                        </g>
                    </g>
                </g>
            </g>
        </g>
    </g>
</svg>