<?xml version="1.0" encoding="UTF-8"?>
<svg width="393px" height="205px" viewBox="0 0 393 205" version="1.1" xmlns="http://www.w3.org/2000/svg" xmlns:xlink="http://www.w3.org/1999/xlink">
    <!-- Generator: Sketch 61 (89581) - https://sketch.com -->
    <title>content creator</title>
    <desc>Created with Sketch.</desc>
    <g id="Illustrations" stroke="none" stroke-width="1" fill="none" fill-rule="evenodd">
        <g id="Other" transform="translate(-561.000000, -1777.000000)">
            <g id="content-creator" transform="translate(561.000000, 1777.000000)">
                <path d="M0,20.0035193 C51.3295489,-14.4098952 91.3295489,-4.42050687 120,49.9716843 C148.670451,104.363875 188.003784,126.009727 238,114.90924 L238,131.935978 C218.06319,166.584343 179.379575,177.62041 121.949153,165.044181 C64.5187305,152.467952 23.869013,163.786558 0,199 L0,20.0035193 Z" id="Rectangle" fill="#000000" transform="translate(119.000000, 99.500000) scale(1, -1) translate(-119.000000, -99.500000) "></path>
                <path d="M14,52.5038798 C57.4990446,24.1111331 91.7804451,32.3528661 116.844202,77.2290787 C141.907958,122.105291 174.959891,145.630843 216,147.805732 L216,161.853622 C198.571208,171.650405 164.753926,171.360795 114.548154,160.984792 C64.3423827,150.608789 30.8263313,156.280525 14,178 L14,52.5038798 Z" id="Rectangle-Copy-10" fill="#FFFFFF" transform="translate(115.000000, 107.000000) scale(1, -1) translate(-115.000000, -107.000000) "></path>
                <g id="Group-18" transform="translate(93.500000, 100.019960) scale(-1, 1) translate(-93.500000, -100.019960) translate(12.000000, 3.019960)">
                    <path d="M52.5031075,6.21880874 C61.708155,-1.4397681 76.0451339,-1.80590423 88.8550675,3.91801502 C102.172659,9.86877339 112.26107,21.568643 115.498965,36.6930855 C118.464487,50.5452531 123.660908,60.8450707 128.504708,64.9935785 C130.946309,66.2029974 133.014615,67.7073017 134.680223,69.6754947 C137.139742,72.5818249 138.375619,76.1970342 138.105558,79.956945 C148.610158,94.8940407 154.623615,115.354739 154.043423,133.871397 C156.168272,134.994678 158.036382,136.504201 159.566812,138.446829 C162.672304,142.388737 163.564686,147.203404 162.671063,152.06169 C162.031026,155.541324 160.498417,158.994958 158.24523,162.482012 C154.465968,168.330833 148.480702,174.472276 141.22091,180.097244 C133.961118,185.722212 126.504341,189.995815 119.867547,192.21747 C115.910705,193.542016 112.160885,194.181266 108.601559,193.955345 C103.632008,193.639913 99.1372069,191.616441 96.0317155,187.674532 C94.5012855,185.731904 93.4762999,183.569119 92.8913248,181.252726 C73.3496342,177.055533 53.4563284,165.050514 41.5473165,149.93399 C28.9557998,133.951138 24.6848766,113.294705 33.4554327,93.0446528 C33.4292449,92.9902739 33.4001094,92.9333583 33.3680769,92.8744056 C33.1776418,92.5239286 32.9195613,92.1670753 32.6637803,91.8875809 C30.2930061,90.8860865 27.6108556,90.1952622 24.6147315,89.7682923 C22.0364438,89.4008671 19.9046759,89.2733384 16.06573,89.174596 C13.8856822,89.1185225 13.1924331,89.0925282 12.1758328,88.99974 C11.1967722,88.9103781 10.3155026,88.7765406 9.36938485,88.5267418 C6.99719816,87.9004249 4.89919604,86.8409973 2.99417338,84.4228856 C0.689279938,81.497204 -0.217142868,78.0012642 0.0432732979,74.4693885 C0.221830806,72.047715 0.924518564,69.7344812 2.02499428,67.4082697 C3.59545358,64.0885958 6.05551487,60.6158026 9.30379047,56.875383 C14.5660803,50.8158073 22.0350117,43.9746086 29.4533571,38.2267917 C33.2709557,35.2688735 37.1400597,32.6859975 40.9175566,30.5778868 C39.9320929,22.4301121 43.5994493,13.6266304 52.5031075,6.21880874 Z" id="Path" fill="#000000" fill-rule="nonzero"></path>
                    <path d="M12,77.6912049 C17.4077673,76.1533935 26.1995841,70.702876 35.5299949,63.2006378 C48.9829002,52.3836544 58.0012407,41.7673372 55.316679,38.4756008 C54.5727538,37.56342 53.0878953,37.4071283 51.0435988,37.888024 C52.5968262,37.1956295 54.0876818,36.6324624 55.4938278,36.210669 C51.3794362,31.6871152 49.1278644,23.5402756 59.8119515,14.640188 C70.939997,5.37027297 99.456472,13.9189471 104.815753,38.9833851 C108.642275,56.879367 115.700263,69.2021694 122.761321,74.3890044 C126.037262,75.7818693 127.492462,77.5035491 127.126922,79.5540439 C126.953471,80.5270191 126.431937,81.2269669 125.56232,81.6538875 C126.136206,82.3114449 126.684497,82.9737752 127.206849,83.6376326 C139.118939,98.7766949 145.638825,122.976389 142.176876,142.197644 C146.212076,142.19692 149.381401,143.227238 150.914282,145.175375 C154.980494,150.343119 147.212625,161.563698 134.499635,171.426002 C121.786644,181.288307 108.942683,186.057684 104.876471,180.88994 C103.906844,179.657641 105.272245,177.22512 108.972675,173.592377 C111.601514,171.090779 115.74028,167.665393 121.388972,163.316219 C129.862009,156.792458 132.865129,153.130105 135.7377,147.861243 C127.126922,157.150524 109.584669,159.295785 92.4110033,158.520678 C62.0531318,157.150524 51.0125121,143.842279 50.4771658,143.161907 C42.0826328,132.493304 35.694133,115.466131 44.1315127,96.7096793 C46.9076356,90.5383064 41.1812857,83.5975113 38.2400124,82.242624 C26.3590451,76.7696983 13.1357941,78.950477 12,77.6912049 L12,77.6912049 Z M71.9400397,36.4454377 C70.4825478,37.8883332 68.7339097,38.8645681 66.8861449,39.3729999 C67.6839651,42.2095521 68.6791676,47.6541167 70.4119972,56.7966673 C71.0097931,59.9506876 76.3773991,67.1107597 83.0915768,65.8990475 C93.0430506,64.1030984 101.722616,65.6058264 108.972675,68.8479295 C104.63673,61.8140033 100.967106,52.3066016 97.8925289,40.3239575 C95.098348,29.4341106 86.1996432,23.6888937 81.667606,21.8848142 C77.1355688,20.0807346 68.888396,18.5944431 63.433035,21.8848142 C59.8808948,24.0272681 59.410641,29.140208 62.1247648,31.3327742 C64.9914225,33.6485626 71.0225029,31.3327742 70.4119972,28.3560106 C70.3235124,27.9245679 70.0421786,27.0924059 69.5619718,26.8134914 C69.6807204,27.31046 69.4776125,28.0529921 68.952648,29.0410878 C66.6424442,30.0184112 65.0985508,30.1929933 64.320968,29.5648341 C62.7898233,28.3279208 62.7810218,25.805816 64.9158402,24.6250272 C67.6495552,23.1129829 70.8439628,23.3658702 74.2652469,23.6888937 C76.2226655,27.8469487 75.4422739,32.9782777 71.9400397,36.4454377 Z" id="Shape" fill="#C4C3C6"></path>
                    <g id="Group-28" transform="translate(76.500000, 110.980040) rotate(1.000000) translate(-76.500000, -110.980040) translate(45.000000, 77.980040)" fill="#000000" fill-rule="nonzero">
                        <path d="M43.9091365,18.2373996 C39.5424786,13.4310213 43.0418908,7.96853421 49.0669659,4.96264047 C52.216437,3.43680609 55.4419822,2.73492228 57.8611411,4.88634875 C59.5661133,5.9946894 60.2118232,8.18342971 59.3826247,10.043669 C58.3127018,12.837025 55.9785149,14.9511687 53.0988974,15.7350312 C52.3980554,16.0339869 51.622252,16.1085918 50.8775314,15.948648 C52.387606,14.4366334 53.6736701,12.715265 54.6964552,10.8371028 C55.8375679,8.19740936 54.4986624,6.38166645 51.5317693,6.71735001 C48.5937314,7.19137464 46.1329427,9.20521336 45.0806789,11.996737 C44.5608396,13.3149006 44.6154964,14.7911926 45.2313748,16.0670678 C45.8472532,17.342943 46.9680066,18.3016715 48.3214389,18.7104083 C52.2157917,19.7161416 56.3529384,18.6702775 59.3065505,15.9333897 C62.4058206,13.5974722 63.7238316,9.57122064 62.6081699,5.84762441 C61.8980798,3.29128047 59.3826247,-1.53059318 51.7904215,0.476687392 C46.9521037,1.39218802 39.6185528,8.1058593 38.4165807,12.4392289 C37.3971867,16.3148483 38.1883582,19.4122921 41.4595479,21.4721685 C43.5470614,22.513387 45.8533709,23.0366686 48.1845054,22.9980029 C48.9989547,23.0015327 49.8125745,22.9454364 50.6188792,22.8301611 C50.6338501,22.7360317 50.6593698,22.6438982 50.6949534,22.5555109 C48.1039238,21.7177015 45.7685098,20.2315757 43.9091365,18.2373996 Z" id="Path"></path>
                        <path d="M26.672771,40.4444692 C22.4807794,35.8470638 25.8402152,30.6220762 31.6242873,27.7468735 C34.6477795,26.2873797 37.7443029,25.6160126 40.0666955,27.6738988 C41.7034688,28.7340507 42.3233503,30.8276284 41.5273197,32.6069877 C40.5001937,35.2788934 38.2593743,37.3011179 35.4949415,38.0508994 C34.8221332,38.3368571 34.0773619,38.4082182 33.3624301,38.2552285 C34.8121018,36.8089537 36.0467233,35.1624274 37.028597,33.3659245 C38.1240652,30.8410003 36.8387159,29.1042027 33.9904986,29.4252913 C31.1699821,29.8787062 28.807625,31.8049867 27.7974517,34.4751397 C27.298406,35.7359919 27.3508765,37.1480973 27.9421198,38.3684996 C28.5333631,39.588902 29.6092863,40.5059467 30.9085814,40.8969122 C34.6471601,41.858918 38.6188209,40.8585263 41.4542885,38.2406336 C44.4295877,36.0062778 45.6948784,32.1550806 44.6238431,28.5933799 C43.9421566,26.1481813 41.5273197,21.5359544 34.2388047,23.4559619 C29.5940196,24.3316581 22.5538106,30.7534306 21.3999175,34.8983929 C20.4212992,38.605507 21.1808238,41.5682794 24.321166,43.5385959 C26.3251789,44.5345441 28.5392361,45.0350743 30.7771252,44.9980897 C31.5589965,45.0014661 32.3400715,44.9478088 33.114124,44.8375454 C33.1284961,44.7475086 33.152995,44.6593809 33.1871552,44.5748365 C30.6997669,43.7734536 28.4577694,42.351942 26.672771,40.4444692 Z" id="Path-Copy-25" transform="translate(33.000000, 34.000000) rotate(-180.000000) translate(-33.000000, -34.000000) "></path>
                        <path d="M6.28651932,61.6509278 C1.29015883,57.5353449 3.69637479,51.3690653 8.93699308,47.25461 C11.6842003,45.1500327 14.6454337,43.8693073 17.3257334,45.6297829 C19.1447714,46.4560116 20.1371446,48.566435 19.6640584,50.6025653 C19.1210606,53.6292136 17.2536867,56.1881403 14.6370109,57.4913015 C14.0187215,57.9183887 13.2903283,58.1306965 12.5513952,58.0992047 C13.7347174,56.2971162 14.6681093,54.3217121 15.3230708,52.2333089 C15.9604425,49.3502753 14.3697867,47.7408293 11.5928454,48.6039405 C8.86720379,49.6025466 6.86166934,52.081826 6.33522853,55.1035053 C6.06470829,56.5343883 6.3701797,58.0248689 7.17745329,59.212956 C7.98472688,60.401043 9.21994521,61.1780383 10.5831124,61.3552342 C14.4762511,61.6919869 18.2494066,59.9013414 20.6017407,56.6006431 C23.1620194,53.6817529 23.7305377,49.3586782 22.0258798,45.7713357 C20.9089374,43.2987085 17.6785312,38.8416676 10.7693925,42.2171379 C6.30398476,43.9986866 0.449324729,52.1109294 0.0443535279,56.7256578 C-0.264710843,60.8431306 1.02251939,63.8513169 4.5011319,65.3688543 C6.67412975,66.0595716 8.96731181,66.1855038 11.187811,65.7360595 C11.9665296,65.5963467 12.7342271,65.3961922 13.4847838,65.1371915 C13.4829392,65.0389101 13.4915151,64.9408009 13.5103487,64.8447275 C10.891193,64.4492913 8.40503216,63.3501097 6.28651932,61.6509278 Z" id="Path-Copy-26"></path>
                    </g>
                    <path d="M23.669404,57.9071596 C25.1209539,56.6000894 26.6459469,55.2844289 28.2252282,53.9800179 C34.1058934,49.1228689 39.9796391,45.0491339 44.6585308,42.5325016 C46.8798265,41.3377348 48.7468502,40.5422723 50.1150644,40.1963182 C51.2198106,39.9169822 51.7946049,39.968745 51.9357354,40.1465064 C52.076866,40.3242678 52.007,40.9084893 51.5094271,41.9525924 C50.8931894,43.2457009 49.7421648,44.9430024 48.13455,46.9107331 C44.7483032,51.0555205 42.039113,53.0500106 36.1584477,57.9071596 C30.2777825,62.7643085 30.7645717,57.9675622 26.0856801,60.4841945 C23.8643843,61.6789614 17.3904077,64.1904433 23.669404,57.9071596 Z" id="Path" fill="#FFFFFF"></path>
                    <path d="M41.1006019,96.5351591 C43.8302236,90.2079028 38.5654505,88.0909266 35.6734447,86.7018162 C32.3154689,85.0888875 19.2624492,79.4320925 16,78.8457771 C48.562943,76.6618181 59.8941458,64.0955843 63.4876252,69.2164674 C67.0371525,74.2747165 51.2765216,81.7851448 42.9350109,100 C43.2124551,99.2634819 40.7804674,97.2772301 41.1006019,96.5351591 Z" id="Path" fill="#000000"></path>
                    <path d="M143.22236,144 C157.024161,144.652187 143.066157,162.455008 132.872592,169.981667 C120.157051,179.370485 107.310513,183.910886 103.243486,178.991243 C102.273663,177.818107 103.483613,182.353776 120.449389,171.391847 C137.415164,160.429919 144.446337,153.130616 143.22236,144 Z" id="Path" fill="#FFFFFF"></path>
                    <path d="M116.430493,65.5884535 C137.949355,77.4923597 137.158895,108.788105 122.263576,121.784622 C103.683027,137.996589 91.367197,138.554768 75.0833555,143.16773 C74.2671698,143.398942 67.1274349,140.629567 69.8516174,139.052386 C73.8341948,136.746649 90.03666,134.057009 104.758201,122.817259 C129.549643,103.88924 118.220623,81.3564081 116.430493,65.5884535 Z" id="Path-Copy-11" fill="#FFFFFF" transform="translate(101.151692, 104.384898) rotate(-87.000000) translate(-101.151692, -104.384898) "></path>
                    <path d="M54.9516017,46.8800337 C54.9528003,44.4501031 52.611353,44.490207 52.7734771,42.23364 C53.3363403,42.4224971 55.2994903,40.8977582 56.1267753,40.3840454 C60.7800975,37.4945075 61.1243886,34.3080625 61.9325062,31.3785325 C62.7406237,28.4490025 62.3011993,25.7416517 61.0633308,22.4883965 C61.9921133,23.759443 63.7494113,24.2442209 64.1961799,26.3210054 C66.5777987,37.3918572 60.5376248,51.5620222 55.0903849,52.2417837 C54.9983694,50.5038823 54.9506983,48.7117146 54.9516017,46.8800337 Z" id="Path" fill="#000000" fill-rule="nonzero" transform="translate(58.747824, 37.365090) rotate(73.000000) translate(-58.747824, -37.365090) "></path>
                </g>
                <g id="creator" transform="translate(130.000000, 13.019960)" fill-rule="nonzero">
                    <path d="M47.7825465,23.4543392 C48.279089,21.4548231 49.5677116,20.3895261 51.2427177,19.6781323 C52.0482496,19.336014 52.9639129,19.0884345 54.0628201,18.87836 C55.5702747,18.5901849 57.1951228,18.3995759 60.0564392,18.1314459 C60.3080877,18.1078643 60.6102138,18.0797899 61.1552182,18.0291595 C63.9694382,17.7670415 65.3201928,17.6068582 66.2174223,17.4071096 C67.052688,17.221156 71.0504775,16.1774495 70.8867188,16.2188578 C76.2329053,14.8670112 80.3642496,14.2712426 84.8196513,14.5703653 C94.3361705,15.2092767 100.671355,15.3996984 106.571829,15.0281981 C111.13523,14.7408814 114.400386,15.9487089 116.818163,18.3893688 C117.118047,18.6920902 117.355154,18.9564942 117.645371,19.3030789 C119.747936,19.7157659 122.770323,20.8951545 128.574749,23.3176244 C128.803514,23.4131304 128.803514,23.4131304 129.0319,23.508586 C129.423803,23.6724242 130.995444,24.3306728 131.384987,24.4935059 C134.237164,25.6857472 139.797153,29.1464466 149.837217,35.753095 C150.176039,35.9760987 150.176039,35.9760987 150.514633,36.1991329 C151.774212,37.0289839 158.280548,41.3315157 159.925904,42.4126358 C163.122368,44.5129481 165.241185,45.8737925 166.612163,46.6971812 C170.388049,48.9649223 172.790377,52.0803809 174.08201,56.002743 C174.984393,58.7430525 175.240178,60.9416819 175.495892,65.8336895 C175.554977,66.9640445 175.580779,67.427233 175.620335,68.0221348 L175.622678,68.0572517 C175.786968,70.5103053 177.981802,78.1928245 181.474893,88.7682547 C181.787897,89.7158835 182.109921,90.6828882 182.440361,91.6677904 C183.691263,95.3962026 185.0246,99.2688989 186.408237,103.214433 C187.351514,105.904252 188.047392,107.863158 189.055079,110.68238 C189.716592,112.533105 190.210263,114.153059 190.612593,115.724512 C190.763004,116.312 190.891879,116.855642 191.03841,117.506933 C191.078686,117.685954 191.122612,117.883345 191.197322,118.219357 C191.253803,118.472557 191.293677,118.648155 191.331537,118.809273 C191.492447,119.494029 191.60167,119.83891 191.735025,120.117278 C191.773533,120.197661 191.81685,120.278207 191.861887,120.353444 C193.197266,122.570503 211.614229,144.539384 218.745554,152.0049 C220.287542,153.624389 220.86587,155.934734 220.269349,158.089715 C219.76468,159.912873 218.481635,161.398859 216.793248,162.173726 L176.508834,190.874485 L175.740813,191.085905 C171.421549,192.274906 166.80531,190.856472 163.896954,187.447632 L163.822825,187.360747 L138.643807,154.620757 C138.408988,154.516029 138.157973,154.403414 137.891495,154.283123 C136.456411,153.635309 134.859948,152.894865 133.141847,152.073169 C128.228992,149.723554 123.313881,147.188123 118.709068,144.553147 C112.899092,141.228549 107.994718,137.979013 104.253485,134.843156 C103.207657,133.966557 102.254559,133.09988 101.397411,132.241279 C99.6921738,130.533153 97.8427647,128.715591 95.3616424,126.301474 C95.021078,125.970179 95.021078,125.970179 94.6801638,125.63879 C85.7807776,116.989402 85.0341662,116.256904 82.2999167,113.409387 C77.408507,108.315348 75.5575737,105.990931 75.4713854,103.249429 C75.4613401,103.210627 75.4469161,103.159873 75.4278691,103.098771 C75.3339143,102.797369 75.1727977,102.389863 74.9500895,101.903691 C74.4618753,100.837921 73.730639,99.5068485 72.832264,98.0530145 C70.9781979,95.0525921 68.6291584,91.8732404 66.6023174,89.6374467 C66.1875399,89.1799086 65.8437587,88.803843 65.0915693,87.9833467 C58.391094,80.6743957 55.9454193,77.4413373 54.6573185,72.7405832 C52.9316189,66.44287 51.3143679,61.7971286 49.5801098,58.6701411 C49.4675032,58.4671035 49.348088,58.2555819 49.2162656,58.0252838 C49.0233042,57.6881738 48.3195198,56.4797587 48.1798886,56.2369444 C47.7497286,55.4889098 47.4250148,54.8974369 47.1285728,54.3083313 C46.2870611,52.6360338 45.7627013,51.1407674 45.5729387,49.548659 C45.3144428,47.3798781 45.740757,45.2663639 46.8897102,43.2811213 C48.796034,39.9874732 51.9358287,38.231023 55.6327957,37.9341273 C49.5833865,34.0744112 46.6334324,28.0816815 47.7825465,23.4543392 Z" id="Path" fill="#000000"></path>
                    <path d="M213,156.569256 L183.968495,124.335132 L176.197108,102.842384 L165.701987,56.20812 L121.33761,26.4831499 L146.480922,54.3737389 L110.822498,23.2842292 L95.7395092,22.3695379 L79.7469434,21 L54.1488429,25.113612 L56.4327812,29.6870688 L65.573532,33.8006808 L81.5660978,33.8006808 L102.596322,40.198522 L117.67931,58.9721873 L123.626546,78.1757076 L104.425471,78.6305541 L88.4329057,75.4316335 L74.2594943,61.7162614 C74.2594943,61.7162614 72.8901309,54.3987305 69.6916177,50.7199718 C66.4931046,47.0412131 57.8021446,42.9475944 55.5182063,43.8622857 C53.234268,44.7769771 50.0207618,47.0662047 58.7167195,62.1511147 L67.4076794,77.241023 L81.5810908,94.6151605 L90.7268394,107.875686 L111.737073,128.448744 L141.453259,145.363037 L172.768702,184 L213,156.569256 Z" id="Path" fill="#C4C3C7"></path>
                    <path d="M88,75.4049685 C88,75.4049685 103.759126,88 112,88 C104.476799,82.0690063 93.731491,75 93.731491,75 L88,75.4049685 Z" id="Path" fill="#101010"></path>
                    <path d="M59,63.1487645 C59,63.1487645 68.0921925,62.2965204 68.9556387,58 C69.6890478,63.4916793 61.0857947,68 61.0857947,68 L59,63.1487645 Z" id="Path" fill="#101010"></path>
                    <path d="M55.0630183,45 C55.0630183,45 51.9761463,45.8025288 53.354305,50.4678319 C54.1034182,53.0951479 55.1896941,55.6248718 56.5886552,58 C56.5886552,58 64.766069,54.0308665 65,52.483823 C64.9745727,52.483823 61.0180877,47.3979174 55.0630183,45 Z" id="Path" fill="#FFFFFF"></path>
                    <path d="M67.538236,23 L67.538236,23 C67.9594392,23.4241777 68.1058907,24.0275757 67.9219526,24.5809592 C67.7380145,25.1343427 67.2519166,25.5527818 66.6483304,25.677309 L63.1811026,26.3979475 L55.4296844,27 L54,24.7194983 L67.538236,23 Z" id="Path" fill="#FFFFFF"></path>
                    <polygon id="Path" fill="#101010" points="55 27.4989059 66 26 55.956749 31"></polygon>
                    <path d="M0.479874469,0 C0.479874469,0 -3.14827115,18.4433086 9.54775007,27.3234201 C9.54775007,27.3234201 22.8459738,35.5204461 28.8928831,23.2249071 C34.9397925,10.929368 26.4741194,6.14776952 22.2437713,4.78159851 C17.0429315,3.10402088 12.5687163,12.295539 0.479874469,0 Z" id="Path" fill="#000000"></path>
                    <path d="M26.9916511,17.1458584 C26.9916511,17.1458584 27.4188198,11.9937046 22.1621317,11.3445741 C15.7797284,10.5523283 12.4880165,14.0279876 9.84962141,11.7943653 C8.12880793,10.3090992 6.50858112,8.70733306 5,7 C5,7 5.4522963,18.9450232 10.2918667,22.5229078 C15.1314371,26.1007924 18.6442716,26.9952635 20.4032017,26.9952635 C21.3586661,27.0433403 22.2969399,26.7240294 23.0315457,26.1007924 C23.0315457,26.1007924 21.8455243,22.236677 26.9916511,17.1458584 Z" id="Path" fill="#C4C3C7"></path>
                    <path d="M5,7 L6.38483755,12.7031479 C6.65588641,13.8903084 7.19767203,14.9966613 7.966787,15.9335666 C8.00216606,15.9796423 8.04259928,16.0205984 8.08303249,16.0666741 C9.34265379,17.5010375 11.2245457,18.2061224 13.1024554,17.9472919 C14.980365,17.6884614 16.607851,16.4996823 17.4433213,14.7765545 L19,11.576853 C17.0070365,11.520113 15.0200328,11.8234921 13.13213,12.4727694 C10.4180505,13.4045225 6.89025271,9.401056 5,7 Z" id="Path" fill="#FFFFFF"></path>
                    <polygon id="Path" fill="#FFFFFF" points="184 126.140445 174.156688 133 165 56"></polygon>
                    <path d="M36.273726,20 L260.088152,135.655334 C262.811089,137.091798 263.808502,139.964727 262.287447,142.638147 L262.287447,142.638147 C260.841199,145.176898 257.649478,145.590879 255.051218,144.254169 L74.1504739,53.7968148 L69.3529187,49.0036125 C68.6297945,48.2853803 60.2315794,44.42987 59.2341667,44.2104101 L49.5143798,41.217776 L30,31.3969483 L36.273726,20 Z" id="Path" fill="#000000"></path>
                    <path d="M37.6449182,27 L258.656883,138.85514 C258.804339,138.925089 258.916987,139.052172 258.968865,139.207099 C259.020744,139.362027 259.007378,139.531434 258.931848,139.676279 L258.931848,139.676279 C258.782811,139.963277 258.433645,140.08058 258.141948,139.941647 L48.5585338,33.769389 L48.1135902,33.3538126 C48.0303879,33.2792929 47.9283626,33.2290689 47.8186277,33.2086112 L47.0687228,33.0684167 L37,28.2917917 L37,28.2917917 C37.3737331,28.0314212 37.6091503,27.6151325 37.6399188,27.1602222 L37.6449182,27 Z" id="Path" fill="#C4C3C7"></path>
                    <polygon id="Path" fill="#101010" points="184.907876 125 165 139 190 129.96615"></polygon>
                    <circle id="Oval" fill="#000000" cx="30" cy="24" r="8"></circle>
                    <circle id="Oval" fill="#C4C3C7" cx="30.5" cy="23.5" r="3.5"></circle>
                </g>
            </g>
        </g>
    </g>
</svg>