<?xml version="1.0" encoding="UTF-8"?>
<svg width="241px" height="192px" viewBox="0 0 241 192" version="1.1" xmlns="http://www.w3.org/2000/svg" xmlns:xlink="http://www.w3.org/1999/xlink">
    <!-- Generator: Sketch 61 (89581) - https://sketch.com -->
    <title>council members</title>
    <desc>Created with Sketch.</desc>
    <g id="Illustrations" stroke="none" stroke-width="1" fill="none" fill-rule="evenodd">
        <g id="Other" transform="translate(-642.000000, -2833.000000)">
            <g id="council-members" transform="translate(633.000000, 2833.000000)">
                <g id="Group-24-Copy" transform="translate(100.000000, 0.000000)" fill-rule="nonzero">
                    <path d="M0.584304357,174.097545 C0.763035614,166.133695 3.94101099,158.596479 5.94063595,150.899276 C8.42605615,141.446628 9.19394996,131.627657 8.20806783,121.905883 C7.38679329,113.782044 3.19115164,104.716054 9.61851757,97.7121322 C17.7777016,88.8239063 24.7406813,77.3047657 38.7737636,75.4915676 C44.1299019,74.798286 49.2717947,73.2695111 54.5208102,72.1140418 L57.1453179,70.6385963 C60.2875857,67.598823 65.2509405,70.6385963 68.2860856,67.2610705 C70.071465,63.8657682 70.1964415,61.1281946 67.2862731,57.679563 C64.7153267,54.6575662 61.1981292,51.1556053 62.8049707,46.1604223 C62.8049707,40.2586404 58.9485511,34.9257049 60.2697319,28.828382 C56.4019382,23.1055353 57.2551265,15.4375523 62.2872107,10.6964013 C69.5358512,-0.36055166 90.8532815,-4.0225007 99.1910034,5.36346577 C106.953966,13.6681858 110.200394,25.2000421 107.903655,36.3122681 C106.993112,41.0408043 101.494143,43.4228488 102.904593,48.7557843 C101.940488,51.3333698 101.940488,54.7108956 97.8876765,54.728672 L97.5306006,55.1019775 C96.3165426,59.6171962 97.3520626,64.1501914 97.3520626,68.6654101 C106.132833,74.689603 115.380438,80.0096499 125.00759,84.5753344 C134.845031,89.2683176 145.057401,94.5123709 146.664242,106.298158 C148.895967,122.67027 147.896154,140.677816 148.753136,157.334351 L149.270896,167.378046 C149.895779,179.821562 0.388105934,182.505807 0.584304357,174.097545 Z" id="Path" fill="#000000"></path>
                    <path d="M38.8738062,112.166216 C38.0982274,105.156278 37.4826887,98.1223737 37.02719,91.0645043 C36.8425284,87.8471224 37.5442426,83.5692627 40.8127532,83.1918045 C43.1040841,110.489995 47.8468627,137.529014 54.9807763,164 L48.0671155,164 C43.9788387,146.967454 40.831205,129.701271 38.8738062,112.166216 Z M48.9193982,97.7149585 C48.3348328,91.6270774 48.1929056,85.5066019 48.4946765,79.3992481 C54.4223144,76.4514793 63.4707337,71.9579291 67.6810186,75.0315174 C68.2904019,90.2017427 72.3898898,105.300071 72.9438747,120.632064 C72.9102725,123.763448 73.2511105,126.888002 73.9595136,129.9427 C74.3416863,131.255271 74.8167877,132.540506 75.381408,133.789179 C75.672281,143.887261 76.5657409,153.944893 76.8850595,164 C72.5907384,165.333333 69.6290519,166 68,166 C65.8620844,166 63.1733196,165.333333 59.9337058,164 C55.2334905,142.07454 52.0532184,119.979526 48.9193982,97.7149585 Z" id="Shape" fill="#D8D8D8"></path>
                    <path d="M82.6399695,164 C82.4867102,161.004056 82.1855694,158.015731 81.7372856,155.044919 C81.1821956,152.329016 80.9392821,149.5638 81.012825,146.797989 C81.0060333,146.311261 81.1621568,145.835079 81.4586469,145.438217 C82.3131388,144.50227 83.9106673,145.243964 84.9694943,146.003317 C93.6108498,152.328149 103.037685,157.618587 113.037698,161.755483 C114.367821,162.324505 115.88843,162.984072 116.883441,164 C105.379689,165.333333 96.7518757,166 91,166 C89.1422155,166 86.3555386,165.333333 82.6399695,164 Z" id="Path" fill="#D8D8D8"></path>
                    <path d="M32.9936262,170 L29.7031144,170 C26.1805125,147.328181 25.0892259,124.312673 25.009221,101.353312 C24.9160914,98.1442074 25.52933,94.9532944 26.8067666,92 L26.8067666,92.584582 C26.8067666,118.359333 28.2627785,144.222658 32.9184216,169.589973 C32.9433948,169.726663 32.968463,169.863339 32.9936262,170 L32.9936262,170 Z M55.117305,170 L50.9271615,170 C45.8969226,150.269297 42.2055252,130.226743 39.8804659,110.003211 C39.1137538,103.042566 38.5052521,96.0581236 38.0549608,89.0498843 C37.8359002,86.5690389 38.2375113,83.4278247 39.8804659,82 C40.3003321,88.3716675 40.8479836,94.7433351 41.5416755,101.079307 C44.1330566,124.498806 48.8574037,147.446483 55.117305,170 L55.117305,170 Z M17.6002634,170 L15.2541903,170 C15.1949758,168.965389 15.1366419,167.930934 15.0791081,166.896664 C13.7834048,145.149878 12.8836108,123.119284 17.0946466,101.744996 C17.0946466,101.496664 17.0946466,101.248332 17.2386136,101 L17.2386136,103.944508 C15.0791081,121.842148 15.7809474,140.023596 16.878696,158.027665 C17.106634,162.016703 17.3455881,166.007987 17.6002634,170 L17.6002634,170 Z" id="Shape" fill="#FFFFFF"></path>
                    <path d="M61.0261458,90.8422498 C65.2053933,117.542737 68.0974287,133.03137 67,160 C66.1594084,178.152421 65.5990141,165.271758 63.9551906,161.88026 C63.565257,161.220212 63.2159908,160.539618 62.909121,159.841847 C62.909121,159.683694 62.909121,159.543114 62.7783624,159.384962 C57.0623397,135.539041 52.0971954,123.017548 48.5853907,98.7498874 C47.994062,92.7980532 47.8504926,86.814353 48.155755,80.8434813 L49.8929775,80 C49.8742977,83.2684902 60.5591505,87.5386145 61.0261458,90.8422498 Z" id="Path" fill="#FFFFFF"></path>
                    <path d="M103.239193,34.5475079 C103.533423,33.0317468 103.772484,31.8047022 103.809263,31.4798962 C104.119107,28.0000531 104.051299,24.4977553 103.60698,21.0319715 C102.871406,15.618539 100.793409,9.98856923 95.6076105,7.55252461 C94.9327974,7.23747971 94.1492584,7.23747971 93.4744453,7.55252461 C88.4173726,0.334614629 73.08509,3.4248385 66.9246559,9.25330081 C64.8420136,10.9564313 63.6474472,13.4862266 63.66974,16.1464048 C63.3154,16.4764284 63.071691,16.9043674 62.9709445,17.3734495 C62.9040323,17.6756743 62.873176,17.9845111 62.8789977,18.2937331 C62.8789977,18.4741808 62.7686616,18.6726733 62.8789977,18.5824495 C62.7888973,18.7684507 62.6778705,18.9439755 62.5479893,19.1057479 C61.7519002,20.0614325 61.8317166,21.4555429 62.7318829,22.3177179 C63.3895716,22.9035601 64.346545,23.0325887 65.1408884,22.6425238 C67.4763366,21.5237478 72.0185073,24.1763297 74.1516726,24.9883446 C78.5401684,26.608136 85.1663688,24.5221322 89.8517423,24.6950608 C90.7376962,24.6787776 91.6183984,24.8320045 92.4446414,25.1461802 C94.6697534,26.2288667 94.8168682,29.332568 95.2582128,31.8407917 C95.9976495,35.9388245 98.3488673,39.5875083 101.804823,42 C101.804823,42 102.613955,37.6512092 103.239193,34.5475079 Z" id="Path" fill="#FFFFFF"></path>
                    <path d="M69.1772089,41 C68.5120572,40.1628675 69.8977899,38.4288074 70.3966536,37.4870333 C70.6183709,37.0684671 71.1449493,35.2297654 72.364394,35.0055335 C73.084975,34.8709943 72.9741164,37.2329038 72.9464018,37.3973406 C73.0922435,37.9961343 72.9391648,38.605073 72.5029673,39.1612983 C71.7006129,39.9160836 70.5563253,40.5487223 69.1772089,41 L69.1772089,41 Z" id="Path" fill="#C4C3C6"></path>
                    <path d="M139.398861,164 L134.485426,164 C134.508109,145.358534 135.75399,119.695846 120.839619,105.571472 C121.97721,110.105264 122.490446,114.765718 122.36588,119.430743 C122.238692,125.910173 121.639089,132.495534 120.894128,139.010274 C120.836468,139.917381 120.508155,140.788532 119.9493,141.517301 C119.189201,142.321306 118.089097,142.738455 116.969456,142.647229 C114.758263,142.572153 112.609935,141.912949 110.755391,140.740476 C108.938413,139.575238 107.721038,137.0329 106.340135,135.285043 C103.281953,131.47203 100.431448,127.505962 97.800338,123.403145 C93.2215535,116.14689 79.2489928,96.1436362 89.9328233,88.9580013 C91.318142,88.1759194 92.4364659,87.0156009 93.1488744,85.6211832 C94.8204941,81.4722294 88.2793734,77.8352741 87.0256586,72.5563925 C86.8353635,71.9162377 86.8353635,71.2368287 87.0256586,70.5966739 C87.3067907,69.9671877 87.7590481,69.4239821 88.3338827,69.0253679 L93.1125348,65 C91.8769898,73.8275613 97.0008677,80.13044 105.322627,82.6551226 C113.935102,85.2857358 122.910974,88.2517964 128.943341,94.5723303 C133.94003,99.7805915 136.41112,106.754365 137.592156,113.675173 C139.245606,123.38549 138.646003,133.237049 138.355287,143.000332 C138.141963,150.164499 138.760227,157.043478 139.398861,164 L139.398861,164 Z" id="Path" fill="#FFFFFF"></path>
                </g>
                <g id="Discovery-provider-Copy">
                    <g id="Group-51">
                        <path d="M70.9894704,163.03633 C88.9015692,153.194265 131.859043,183.433878 122.161144,166.358596 C112.463245,149.283313 82.1340843,146.95078 63.2931943,145.727556 C44.4523043,144.504332 31.551052,154.397947 32.0640092,160.509137 C32.5769665,166.620328 53.0773716,172.878395 70.9894704,163.03633 Z" id="Oval-Copy-29" fill="#F9F9F9" transform="translate(77.808926, 158.659561) rotate(-19.000000) translate(-77.808926, -158.659561) "></path>
                        <g id="Group-33">
                            <path d="M135.546846,107.579689 C143.80397,111.356675 148.239215,113.767353 152.477909,117.237732 C158.227339,121.945008 161.784497,127.63874 162.894355,134.81957 C164.307969,143.967181 162.227697,169.551599 161.18135,184.51506 C161.086173,185.876155 95.3822351,191.61266 83.370764,191.187512 C45.7148238,189.854674 22.9442906,182.084019 9.44641922,164.477229 L8.83218973,163.676021 L8.74405611,162.675567 C8.66136608,161.736906 8.56405663,160.799412 8.4521486,159.863418 C8.42722062,159.654371 8.17862781,157.633901 8.08846576,156.874216 C7.91282368,155.394296 7.76039563,154.005756 7.61944594,152.562013 C6.85155298,144.696508 6.62636407,137.249738 7.2070794,130.172529 C7.70710394,124.078702 8.79435419,118.644544 10.5840093,113.993581 C13.8242757,105.572763 23.5141393,98.4320513 31.3412126,97.2847128 C32.9098501,97.0544124 39.6877761,96.2983919 46.7186069,94.3640009 C54.4204568,92.2449926 62.3665908,88.9324397 62.6715301,88.6719056 C63.9593621,85.9184592 63.7242717,84.3780317 61.5989861,81.9419222 C61.3962293,81.7113836 60.3730515,80.5659589 60.0776705,80.2292414 C55.7495812,75.2954658 51.123734,71.3135097 52.5055138,66.0558855 C52.4168507,64.2680042 52.0003902,62.5837435 50.9074948,59.0574091 C49.2375524,53.6691763 48.6401404,50.7482983 49.0774081,47.316102 C44.5214554,39.6751416 45.6416152,26.1283822 51.9303437,19.7189718 C61.5291043,5.04289303 94.000275,0.526630129 105.21997,12.6848286 C115.076183,22.9088238 119.379043,40.9882604 116.777799,54.8677846 C116.3444,57.3673238 115.436165,59.0288307 113.348146,61.9592652 C113.124365,62.2730452 113.019871,62.4197779 112.910645,62.5742761 C111.140643,65.0779095 110.759501,66.1663802 111.213906,67.7702989 L111.511867,68.8220135 L111.148399,69.8522367 C111.02068,70.2142473 110.922702,70.5567335 110.705064,71.3778457 C110.079822,73.7367852 106.875082,74.7899564 105.907739,76.0822913 C104.931018,77.3871559 103.626582,78.2926607 102.032184,78.7680011 C101.79113,80.6504444 101.880651,82.773538 102.218438,86.5145581 C102.253107,86.8985256 102.268161,87.0660271 102.287034,87.2790535 C102.37493,88.2711727 102.439315,89.0862586 102.483874,89.8278081 C112.096886,96.0900073 125.092978,102.826724 135.546846,107.579689 Z" id="Path" fill="#000000" fill-rule="nonzero" transform="translate(85.125353, 98.445366) rotate(-4.000000) translate(-85.125353, -98.445366) "></path>
                            <path d="M103.285664,49.8865305 C101.84138,47.6294135 99.7975149,46.2203948 97.5324043,46.2187981 C93.161387,46.215717 89.6217096,51.4547592 89.6263135,57.9205264 C89.6292146,61.9948817 91.0387856,65.584113 93.1747713,67.6825422 C92.4550069,70.4299507 91.0356836,67.1869326 89.1174545,69.608518 C87.5369144,71.6239456 86.85386,74.9442698 85.4067378,77.0749541 C82.4962268,81.3626214 76.5560266,78.0864527 71.7953368,77.0653594 C65.2814385,75.6682303 61.3562762,76.9166534 57.4793432,71.6569577 C56.5572734,70.6069161 54.6261494,65.9984912 53.235389,59.9651853 C52.0161331,54.6758894 52.0403818,52.7526559 51.3559674,48.996032 C51.0060305,47.0752928 51.7002785,42.9937247 51.5175035,42.8664291 C49.6761485,41.4078881 48.7337521,39.0794889 49.0380774,36.7404577 C49.0540897,35.83833 50.5665175,31.6094132 51.321797,30.4819862 C53.6446339,26.6428015 56.5499818,22.3636662 59.9972474,19.273753 C60.6682652,18.5905777 61.4724226,18.0548441 62.3591372,17.7002507 C63.1592427,17.4317626 64.016611,17.4129047 64.8167085,17.125216 C65.9837741,16.4816299 67.0761643,15.7093033 68.0737752,14.82245 C69.1119758,13.9152132 70.6326668,13.8443566 71.7508948,14.6511146 C72.340929,13.3696587 74.5109976,14.4095639 75.7977868,13.849083 C77.2233931,13.7317987 78.6582582,13.8033793 80.065704,14.0619951 C81.5899286,14.0626043 83.0943698,12.3159541 84.4670711,14.4669661 C84.679868,14.9674884 84.9837909,15.4234853 85.3631151,15.8113639 C85.8377,16.0722745 86.3663989,16.2171801 86.9065691,16.2343932 C90.0314544,16.773258 92.0334925,20.3453634 95.1773502,20.6922301 C95.8869582,20.6707398 96.5952676,20.768354 97.2732795,20.9810763 C100.303238,22.326327 101.753299,27.2230507 102.669005,30.0266993 C104.064133,34.4781642 104.453232,43.3573119 103.285664,49.8865305 Z" id="Path" fill="#D8D8D8" fill-rule="nonzero" transform="translate(76.478280, 46.309455) rotate(-4.000000) translate(-76.478280, -46.309455) "></path>
                            <path d="M90.239193,47.5475079 C90.5334227,46.0317468 90.7724843,44.8047022 90.809263,44.4798962 C91.1191069,41.0000531 91.0512987,37.4977553 90.6069801,34.0319715 C89.8714059,28.618539 87.7934087,22.9885692 82.6076105,20.5525246 C81.9327974,20.2374797 81.1492584,20.2374797 80.4744453,20.5525246 C75.4173726,13.3346146 62.08509,13.4248385 55.9246559,19.2533008 C53.8420136,20.9564313 52.6474472,23.4862266 52.66974,26.1464048 C52.3154,26.4764284 52.071691,26.9043674 51.9709445,27.3734495 C51.9040323,27.6756743 51.873176,27.9845111 51.8789977,28.2937331 C51.8789977,28.4741808 51.7686616,28.6726733 51.8789977,28.5824495 C51.7888973,28.7684507 51.6778705,28.9439755 51.5479893,29.1057479 C50.7519002,30.0614325 50.8317166,31.4555429 51.7318829,32.3177179 C52.3895716,32.9035601 53.346545,33.0325887 54.1408884,32.6425238 C56.4763366,31.5237478 61.0185073,34.1763297 63.1516726,34.9883446 C67.5401684,36.608136 72.1663688,37.5221322 76.8517423,37.6950608 C77.7376962,37.6787776 78.6183984,37.8320045 79.4446414,38.1461802 C81.6697534,39.2288667 81.8168682,42.332568 82.2582128,44.8407917 C82.9976495,48.9388245 85.3488673,52.5875083 88.8048233,55 C88.8048233,55 89.6139549,50.6512092 90.239193,47.5475079 Z" id="Path" fill="#FFFFFF" fill-rule="nonzero" transform="translate(71.000000, 35.000000) scale(-1, 1) translate(-71.000000, -35.000000) "></path>
                            <path d="M208.095955,32.9574988 C207.591214,32.7282569 206.37451,28.532671 205.869769,28.7619129 C200.000875,26.4561995 195.909191,20.137006 191.301369,24.3780764 C189.743615,25.6173563 185.056002,30.896616 185.072676,32.83229 C184.80764,33.072431 184.625353,33.3838202 184.549998,33.7251469 C184.49995,33.9450602 184.47687,34.1697848 184.481224,34.3947896 C184.481224,34.5260921 184.398696,34.6705248 184.481224,34.6048736 C184.413832,34.7402171 184.330787,34.8679374 184.23364,34.9856508 C183.638189,35.681053 183.697889,36.695475 184.371187,37.3228351 C184.863119,37.7491222 185.578906,37.8430096 186.173051,37.5591796 C187.919897,36.7451042 194.364313,34.1968311 195.959857,34.7876923 C199.242322,35.9663307 211.974777,34.7300824 208.095955,32.9574988 Z" id="Path-Copy-46" fill="#D8D8D8" fill-rule="nonzero" transform="translate(196.323760, 30.334733) scale(-1, 1) rotate(-40.000000) translate(-196.323760, -30.334733) "></path>
                            <path d="M68.1427759,100.756851 C66.3647584,104.630214 38.5810512,115.880273 38.5571999,118.050179 C38.5378068,119.814494 60.3087399,116.200336 66.4444425,116.890278 C67.8549517,117.048885 74.2183194,118.670527 62.5413112,127.272185 C50.8643031,135.873842 37.8339819,135.246465 33.5859301,139.949532 C29.3378784,144.652599 25.1952827,145.529804 20.3280716,153.896038 C20.7957129,144.253335 17.4965746,131.27272 21.9006704,121.469251 C23.716975,117.426177 27.6622236,110.775512 49.1113155,107.156675 C58.5312092,105.567374 68.1427759,100.756851 68.1427759,100.756851 Z" id="Path-Copy-6" fill="#FFFFFF" fill-rule="nonzero" transform="translate(44.509855, 127.326444) rotate(-4.000000) translate(-44.509855, -127.326444) "></path>
                            <path d="M129.455973,176.749836 C117.988132,179.457787 106.780734,180.317158 97.6047696,180.479257 C97.67092,180.443746 97.7370153,180.408204 97.8030525,180.372633 C111.201686,173.157973 123.336248,165.552425 132.480968,156.361688 C140.745727,148.147184 148.442762,138.863676 151.279528,128.610222 C151.28851,128.654163 140.142831,161.906283 129.455973,176.749836 Z" id="Path" fill="#D8D8D8" transform="translate(124.442149, 154.544739) rotate(-4.000000) translate(-124.442149, -154.544739) "></path>
                            <path d="M85.8627836,181.736981 C75.5420316,181.370536 66.7521344,180.211543 59.2408439,178.477956 C67.6018132,174.217141 75.7378491,169.837143 84.0031376,165.537407 C109.287264,152.51645 136.988854,139.272839 138.301988,117.223275 C143.86099,119.311226 144.131758,122.877795 143.185059,125.23927 C138.76805,136.293083 133.019996,146.949838 123.992828,156.346638 C122.257059,158.142432 120.41131,159.892929 118.455584,161.598129 C116.37183,163.371551 114.151001,165.096207 111.936203,166.801274 C104.401225,172.271882 95.8530454,177.265626 86.3464552,181.753734 C86.1836679,181.748239 86.0224364,181.74265 85.8627836,181.736981 Z" id="Path" fill="#D8D8D8" transform="translate(101.423181, 149.488505) rotate(-4.000000) translate(-101.423181, -149.488505) "></path>
                            <path d="M40.3623942,167.567991 C41.3724592,164.574866 48.2305986,153.042705 60.9008597,142.010703 C73.3147151,131.201954 91.5534124,120.866292 91.7939672,120.186502 C94.9066555,113.702236 101.421948,108.381665 104.54746,102.018482 C108.614268,102.0077 112.60513,103.710102 117.758888,106.744406 C118.439616,107.145188 121.863367,109.569728 122.478066,109.93568 C121.762077,112.691854 120.606012,115.31272 119.018721,117.778211 C110.453934,128.752786 72.3509734,150.734671 60.9128993,160.437344 C60.0650313,161.158045 75.8334895,153.868115 77.8634902,153.613532 C78.4544384,153.504355 78.917131,153.303599 79.2168533,153.026328 C94.1806206,142.299425 121.079847,127.54539 129.332446,114.006756 C132.449287,115.185105 132.422855,117.286407 131.688577,118.613348 C130.112977,121.546816 128.345692,124.42133 126.386724,127.236889 C116.091686,142.161851 83.1620974,164.044295 55.3863583,177.945071 C51.3545321,169.160896 37.8662084,175.018256 40.3623942,167.567991 Z" id="Path" fill="#D8D8D8" transform="translate(86.076685, 139.981777) rotate(-4.000000) translate(-86.076685, -139.981777) "></path>
                        </g>
                    </g>
                </g>
            </g>
        </g>
    </g>
</svg>