<?xml version="1.0" encoding="UTF-8"?>
<svg width="224px" height="226px" viewBox="0 0 224 226" version="1.1" xmlns="http://www.w3.org/2000/svg" xmlns:xlink="http://www.w3.org/1999/xlink">
    <!-- Generator: Sketch 61 (89581) - https://sketch.com -->
    <title>files</title>
    <desc>Created with Sketch.</desc>
    <g id="Illustrations" stroke="none" stroke-width="1" fill="none" fill-rule="evenodd">
        <g id="Other" transform="translate(-1139.000000, -941.000000)">
            <g id="files" transform="translate(1139.000000, 941.000000)">
                <g id="Group-16">
                    <g id="Group-14">
                        <path d="M25.1118758,17.5130143 C27.2037953,10.5396255 27.0415016,7.41428264 34.1298701,5.98555289 L46.1385281,9.26345695 C50.9652293,8.29058829 57.736728,3.40304541 61.9393939,5.98555289 C63.641088,7.03123142 69.1215454,6.09573688 70.7878788,5.98555289 C75.1901154,-1.44516671 92.6641618,5.21751029 97.3333333,2.44061796 C100.446114,0.589356404 105.100374,0.589356404 111.296113,2.44061796 C118.332187,1.25879358 122.295431,0.593101529 123.185845,0.443541815 C124.521466,0.219202244 125.848024,0.136718886 127.150359,0.185179195 C128.018583,0.217486068 134.212935,5.71394325 145.733415,16.6745507 C145.911138,18.1136054 146,19.1956727 146,19.9207525 L146,159.086245 C146,168.872998 138.886725,177.183096 129.280731,178.618564 L22.4668785,190.33233 C11.7629535,191.931867 1.7990615,184.48363 0.211902879,173.696228 C0.0708257921,172.737373 0,171.76935 0,170.800011 L0,60.5429746 C0,54.1184889 3.1013017,48.0956325 8.31381062,44.39721 L19.4084754,36.5252315 L25.1118758,17.5130143 Z" id="Path" fill="#000000" fill-rule="nonzero"></path>
                        <path d="M41.8386757,49.778935 C41.3485383,51.4128024 40.3298494,52.8343179 38.9449528,53.8169412 L26.6035307,62.5735293 C24.5857853,64.0051767 23.3852814,66.336605 23.3852814,68.8235027 C23.3852814,107.341318 23.3852814,136.229679 23.3852814,155.488586 C23.3852814,159.457315 25.4920635,164.553025 29.7056277,170.775715 C29.7056277,171.150943 43.839869,177.705317 47.9833238,177.086142 L127.519367,166.647142 C131.237816,166.091478 125.160056,159.277007 125.160056,155.488586 C131.04758,140.970073 133.991342,129.481578 133.991342,121.023102 C133.991342,110.958301 130.831169,109.800418 130.831169,94.955784 C130.831169,89.5973229 133.991342,72.6306231 133.991342,66.6493545 C133.991342,58.4227719 133.991342,44.7574623 133.991342,25.6534258 C133.991342,25.2324117 133.956827,24.8121173 133.888148,24.3968316 C133.19952,20.2328445 129.291821,17.4198625 125.160056,18.1138604 L112.521608,20.2366957 C111.672138,20.3793781 110.804761,20.3752156 109.956678,20.2243867 L93.5952299,17.314555 C91.2340229,16.8946218 88.8148358,17.6246408 87.0711882,19.2832635 C81.6327145,24.4565423 77.2583358,27.2280827 73.9480519,27.5978845 C69.4475706,28.1006469 65.1615283,27.1010429 61.0899251,24.5990725 C59.4630869,23.5993924 57.5224851,23.253447 55.654085,23.6300412 L53.7557868,24.0126596 C51.011907,24.5657153 48.7930991,26.5964475 47.9833238,29.2958239 L41.8386757,49.778935 Z" id="Path" fill="#C4C3C6" fill-rule="nonzero"></path>
                        <path d="M28.3911423,84.1486524 C27.2511203,84.9713935 26.1419428,85.8796017 25.0800126,86.9177861 C22.2367128,89.6967361 22.4567408,96.0626253 22.4714178,102.751504 C24.0437152,100.70715 25.385403,98.9622231 26.7272548,97.217722 C26.6824795,98.04271 26.4904509,98.5744376 26.2470756,99.0080982 C24.9071052,101.393596 23.8397643,104.290306 22.3034437,106.306373 L22.2104771,107.201439 C22.6062912,108.018787 22.565608,108.489402 22.172519,108.679617 C22.1722379,114.677502 21.246841,120.849441 22.6298308,126.949449 C22.9477287,128.351372 23.4651326,128.48505 23.8596455,127.87919 C24.3571043,127.115007 24.6014946,125.958934 24.7166569,124.662611 C24.7648874,124.120181 24.7765096,123.504969 25.1093033,123.527576 C26.7178333,123.636912 29.4417518,121.122627 29.4263231,118.911767 C29.4147676,117.282844 29.2542593,115.450123 30.2269983,114.884446 C30.4935971,117.085778 30.7454966,119.161879 31.0189403,121.418032 C32.1232218,120.238982 32.705622,118.221085 34.1298701,117.903998 C33.6970177,120.888722 29.9205747,123.033468 28.3190644,123.365398 C26.4223152,123.758607 25.5369545,125.635555 25.4993726,129.241676 C25.4846501,130.670231 25.1058502,131.515119 24.26329,131.641749 C23.4414276,131.764665 23.1950862,133.160855 23.2414175,134.655236 C23.3319415,137.581705 23.2146743,143.287673 23.1792385,149.118949 L13.2727273,149.118949 L13.2727273,84.1486524 L28.3911423,84.1486524 Z" id="Path" fill="#000000"></path>
                        <path d="M110.206122,131.408024 C111.414865,131.875608 112.408137,132.54817 113.366256,133.35592 C113.860086,134.181935 114.443872,134.442994 115.166028,134.366533 C115.817824,134.297007 116.476931,133.932583 117.208107,134.199403 C116.515725,135.285555 116.235872,135.047185 115.888696,136.451831 C115.766687,136.945153 113.853547,137.051274 113.497859,137.214341 C112.091413,137.858381 111.053653,137.474685 109.657223,137.50406 C108.649521,137.525401 105.276015,141.306413 104.380097,142.581843 C106.394349,141.464123 111.831332,138.209348 113.847527,139.287266 C113.974279,139.354811 114.176227,139.357724 114.268621,139.241513 C114.826276,138.540114 116.591627,139.500941 117.150788,138.782979 C119.094703,136.287049 119.565859,135.395432 122.273518,135.422542 C123.620221,135.435796 124.134928,134.369392 125.44224,134.896139 C125.66117,134.98444 126.9912,134.324606 127.174506,134.761554 C127.562849,135.68689 128.245038,134.559854 128.847066,134.173416 C130.155681,133.333248 131.295,135.009469 132.699345,135.305145 C133.934821,135.565437 142.836068,134.083441 144.057589,133.682593 C142.644097,133.504524 140.363063,132.515668 138.951506,132.343957 C137.584629,132.177372 129.638149,132.338978 128.256549,132.683487 C128.975632,132.374501 130.48485,131.091215 132.784202,128.833629 L140.529392,126.978268 C144.789927,126.451307 147.127186,126.142156 147.541169,126.050814 C147.36246,125.967716 144.851407,125.396475 140.00801,124.337092 L131.655193,126.623354 L128.349379,130.891425 C127.424635,131.207034 126.864782,131.40141 126.669819,131.474553 C125.369705,131.962389 125.788444,131.298161 124.45294,130.611427 C122.301442,129.505147 122.202519,132.008505 119.993491,131.794801 C119.7216,131.768449 117.907481,130.987785 117.691416,131.271461 C116.478059,132.863629 115.00918,132.997963 113.524457,133.024545 C112.606185,131.833368 111.614963,131.001477 110.206122,131.408024 Z" id="Path-Copy-7" fill="#000000" transform="translate(125.960633, 133.459467) rotate(-122.000000) translate(-125.960633, -133.459467) "></path>
                        <path d="M23.6127883,169.302878 C24.6074997,169.898947 25.4254957,170.757257 26.2148739,171.788389 C26.6225884,172.843448 27.1030776,173.176357 27.6966178,173.077726 C28.2323291,172.988047 28.7734343,172.521467 29.3751078,172.861551 C28.8081537,174.250572 28.5775824,173.946279 28.2950963,175.741914 C28.1958202,176.372555 26.6232074,176.510594 26.3311289,176.719449 C25.176204,177.544333 24.3222367,177.055262 23.1742616,177.094565 C22.3458517,177.12311 19.5803166,181.959657 18.8464273,183.590842 C20.5000535,182.159808 24.9631185,177.993211 26.6229295,179.368295 C26.7272757,179.45446 26.8933077,179.457929 26.9690246,179.309289 C27.4260198,178.412169 28.8793614,179.63792 29.3375603,178.719629 C30.930482,175.527273 31.3159668,174.387155 33.5420501,174.418388 C34.6492325,174.43363 35.0701564,173.070071 36.1460271,173.741628 C36.3261987,173.854204 37.4182675,173.009231 37.5698809,173.567438 C37.8910793,174.749567 38.449567,173.308307 38.9437009,172.813663 C40.0177866,171.738243 40.9579486,173.879089 42.1131093,174.255204 C43.1293655,174.586311 50.444183,172.681034 51.4475848,172.167193 C50.2851499,171.941395 48.4077952,170.680471 47.2469635,170.462796 C46.1228754,170.251617 39.5902349,170.468176 38.4551111,170.910215 C39.0456396,170.514411 40.2837199,168.872414 42.1693521,165.984224 L48.5329695,163.603228 C52.0345492,162.924378 53.9554159,162.526322 54.2955698,162.409061 C54.1484751,162.303083 52.082889,161.576179 48.0988114,160.228349 L41.236551,163.160822 L38.5276844,168.619767 C37.7680911,169.024294 37.3082294,169.273421 37.1480994,169.367147 C36.0802655,169.992261 36.4231323,169.142821 35.3237506,168.266831 C33.5526443,166.85567 33.476548,170.055193 31.6600103,169.784856 C31.4364273,169.751519 29.9433692,168.756085 29.76633,169.118908 C28.7721283,171.155296 27.5648108,171.328832 26.3442427,171.364678 C25.5868218,169.84346 24.770178,168.781518 23.6127883,169.302878 Z" id="Path-Copy-8" fill="#000000" transform="translate(36.570999, 171.909595) rotate(-135.000000) translate(-36.570999, -171.909595) "></path>
                        <path d="M119.607026,16.0372305 L111.255294,20.660589 L92.2770563,20.660589 C90.7029182,20.3806335 87.9142378,19.0953418 83.9110151,16.8047138 L73.1664263,29.3697745 C65.7230455,26.2049203 60.6441541,23.7885031 57.929752,22.1205228 C56.3029138,21.1208427 54.362312,20.7748973 52.4939118,21.1514915 L50.5956136,21.53411 C47.8517338,22.0871657 45.6329259,24.1178979 44.8231506,26.8172742 L38.6785026,47.3003854 C38.1883651,48.9342527 37.1696762,50.3557682 35.7847796,51.3383915 L23.4433575,60.0949796 C21.4256121,61.526627 20.2251082,63.8580553 20.2251082,66.344953 C19.7699002,90.687145 18.9271873,111.90884 17.6969697,130.010039 C16.4667521,148.111237 14.8006851,162.104702 12.6987688,171.990433 C10.6079539,171.243022 9.5625464,168.058203 9.5625464,162.435977 C9.5625464,162.055479 9.48051948,161.690089 9.48051948,161.314861 L9.48051948,61.8862071 C9.48051948,59.3993094 10.6810234,57.0678811 12.6987688,55.6362337 L25.0401909,46.8796457 C26.4250875,45.8970223 27.4437764,44.4755068 27.9339138,42.8416395 L34.0785619,22.3585283 C34.8883372,19.659152 37.1071451,17.6284198 39.8510249,17.0753641 L41.7493231,16.6927457 C43.6177232,16.3161514 45.558325,16.6620968 47.1851632,17.661777 C51.2567664,20.1637473 55.5428087,21.1633513 60.04329,20.660589 C63.3535739,20.2907872 67.7279526,17.5192468 73.1664263,12.3459679 C74.9100739,10.6873452 77.329261,9.95732629 79.690468,10.3772595 L96.0519158,13.2870912 C96.8999987,13.43792 97.7673766,13.4420825 98.6168463,13.2994001 L111.255294,11.1765648 C114.896538,10.564958 118.363761,12.6770666 119.607026,16.0372305 Z" id="Path" fill="#C4C3C6" fill-rule="nonzero"></path>
                        <path d="M53.1262336,50.3464265 L23.5377616,75.5193641 L23.5377616,66.6733462 C23.5377616,64.2754656 24.7297134,62.0274896 26.7330848,60.6470872 L38.9865896,52.2039365 C40.3616206,51.2564857 41.3730525,49.8858526 41.8596984,48.3104686 L47.9605735,28.5605395 C48.7645801,25.9577859 50.9675817,23.9997426 53.6919148,23.4664833 L55.57669,23.0975605 C56.8134167,22.8554843 59.7411739,22.9784586 64.3599617,23.4664833 L73.7403351,26.923377 L88.8011071,22.4655091 L92.5663002,16.2817403 C101.208744,18.547412 105.810647,19.7287246 106.372008,19.8256779 C107.214049,19.9711079 111.195684,19.9632531 112.039103,19.8256779 L124.587517,17.7788284 C128.202822,17.1891136 131.645345,19.2256205 132.879753,22.4655091 L122.707149,24.1248254 C121.863731,24.2624005 117.254564,23.6119133 116.412523,23.4664833 L102.606815,26.923377 L97.4380322,23.2055208 L84.408382,31.2225244 L69.9751421,31.2225244 L63.0722882,30.4075105 L57.4244987,34.092494 L53.1262336,50.3464265 Z" id="Path" fill="#FFFFFF" fill-rule="nonzero"></path>
                    </g>
                    <g id="Group-15" transform="translate(41.165971, 58.620291)" fill="#000000">
                        <path d="M3.18995269,6.53272424 L74.9935173,1.31867216 C76.484371,1.21041307 77.780708,2.33122742 77.8889671,3.82208109 C77.8893108,3.82681323 77.8896419,3.83154626 77.8899607,3.83628014 C77.9910625,5.3378504 76.8600953,6.638999 75.3590776,6.74799617 L3.5555129,11.9620482 C2.06465923,12.0703073 0.768322212,10.949493 0.66006312,9.45863932 C0.659719494,9.45390718 0.659388311,9.44917415 0.659069576,9.44444027 C0.557967795,7.94287001 1.6889349,6.64172141 3.18995269,6.53272424 Z" id="Rectangle" transform="translate(39.274515, 6.640360) rotate(-1.000000) translate(-39.274515, -6.640360) "></path>
                        <path d="M3.18995269,39.3866412 L74.9935173,34.1725891 C76.484371,34.06433 77.780708,35.1851444 77.8889671,36.6759981 C77.8893108,36.6807302 77.8896419,36.6854632 77.8899607,36.6901971 C77.9910625,38.1917674 76.8600953,39.492916 75.3590776,39.6019131 L3.5555129,44.8159652 C2.06465923,44.9242243 0.768322212,43.80341 0.66006312,42.3125563 C0.659719494,42.3078242 0.659388311,42.3030911 0.659069576,42.2983572 C0.557967794,40.796787 1.6889349,39.4956384 3.18995269,39.3866412 Z" id="Rectangle-Copy-5" transform="translate(39.274515, 39.494277) rotate(-1.000000) translate(-39.274515, -39.494277) "></path>
                        <path d="M3.18995269,22.9596827 L74.9935173,17.7456306 C76.484371,17.6373716 77.780708,18.7581859 77.8889671,20.2490396 C77.8893108,20.2537717 77.8896419,20.2585047 77.8899607,20.2632386 C77.9910625,21.7648089 76.8600953,23.0659575 75.3590776,23.1749547 L3.5555129,28.3890067 C2.06465923,28.4972658 0.768322212,27.3764515 0.66006312,25.8855978 C0.659719494,25.8808657 0.659388311,25.8761326 0.659069576,25.8713988 C0.557967795,24.3698285 1.6889349,23.0686799 3.18995269,22.9596827 Z" id="Rectangle-Copy-4" transform="translate(39.274515, 23.067319) rotate(-1.000000) translate(-39.274515, -23.067319) "></path>
                        <path d="M3.22317316,55.9761069 L52.1010077,52.3714539 C53.5996411,52.2609324 54.904119,53.3862194 55.0146405,54.8848528 C55.0150881,54.8909213 55.0155152,54.8969912 55.015922,54.9030626 C55.1172611,56.415454 53.9789487,57.7261159 52.4672712,57.8375994 L3.58943668,61.4422524 C2.09080326,61.552774 0.786325411,60.4274869 0.675803871,58.9288535 C0.675356333,58.9227851 0.674929153,58.9167151 0.674522338,58.9106438 C0.573183319,57.3982523 1.71149564,56.0875905 3.22317316,55.9761069 Z" id="Rectangle-Copy-7" transform="translate(27.845222, 56.906853) rotate(-1.000000) translate(-27.845222, -56.906853) "></path>
                    </g>
                </g>
                <g id="Group-16-Copy" transform="translate(15.000000, 19.000000)">
                    <g id="Group-14">
                        <path d="M40.857336,15.6021232 C42.9464226,8.62873438 42.7843487,5.50339155 49.8631179,4.0746618 L61.8555133,7.35256586 C66.6756779,6.37969721 73.4380064,1.49215432 77.634981,4.0746618 C79.3343705,5.12034033 84.8074061,4.18484579 86.4714829,4.0746618 C90.8677578,-3.3560578 112.736391,5.21751029 117.39924,2.44061796 C120.507805,0.589356404 125.155762,0.589356404 131.34311,2.44061796 C138.369656,1.25879358 142.327532,0.593101529 143.216741,0.443541815 C144.550553,0.219202244 145.875315,0.136718886 147.175886,0.185179195 C148.042934,0.217486068 154.228897,5.71394325 165.733776,16.6745507 C165.911259,18.1136054 166,19.1956727 166,19.9207525 L166,159.086245 C166,168.872998 158.896358,177.183096 149.303373,178.618564 L42.6341716,190.33233 C31.9447423,191.931867 21.9943438,184.48363 20.4093345,173.696228 C20.2684485,172.737373 20.1977186,171.76935 20.1977186,170.800011 C6.09508596,159.249234 -0.427094014,152.61065 0.631178707,150.884257 C9.88846641,135.782558 14.9378961,105.031834 15.7794677,58.6320835 C15.7794677,52.2075978 18.8765695,46.1847414 24.0820194,42.4863189 L35.1616594,34.6143404 L40.857336,15.6021232 Z" id="Path" fill="#000000" fill-rule="nonzero"></path>
                        <path d="M61.9797349,49.778935 C61.4902612,51.4128024 60.4729518,52.8343179 59.0899307,53.8169412 L46.7652218,62.5735293 C44.7502089,64.0051767 43.5513308,66.336605 43.5513308,68.8235027 C43.5513308,107.341318 43.5513308,136.229679 43.5513308,155.488586 C43.5513308,159.457315 45.6552598,164.553025 49.8631179,170.775715 C49.8631179,171.150943 63.978218,177.705317 68.1160616,177.086142 L147.544394,166.647142 C151.257808,166.091478 145.188278,159.277007 145.188278,155.488586 C151.067829,140.970073 154.007605,129.481578 154.007605,121.023102 C154.007605,110.958301 150.851711,109.800418 150.851711,94.955784 C150.851711,89.5973229 154.007605,72.6306231 154.007605,66.6493545 C154.007605,58.4227719 154.007605,44.7574623 154.007605,25.6534258 C154.007605,25.2324117 153.973136,24.8121173 153.90455,24.3968316 C153.216855,20.2328445 149.314448,17.4198625 145.188278,18.1138604 L132.566946,20.2366957 C131.718627,20.3793781 130.852423,20.3752156 130.005489,20.2243867 L113.666198,17.314555 C111.308189,16.8946218 108.892278,17.6246408 107.150992,19.2832635 C101.719883,24.4565423 97.3514283,27.2280827 94.0456274,27.5978845 C89.5512407,28.1006469 85.2710028,27.1010429 81.2049135,24.5990725 C79.5802785,23.5993924 77.6423047,23.253447 75.7764348,23.6300412 L73.8807073,24.0126596 C71.1405434,24.5657153 68.9247403,26.5964475 68.1160616,29.2958239 L61.9797349,49.778935 Z" id="Path" fill="#C4C3C6" fill-rule="nonzero"></path>
                        <path d="M48.5504126,84.1486524 C47.4119345,84.9713935 46.304259,85.8796017 45.2437669,86.9177861 C42.4043177,89.6967361 42.6240477,96.0626253 42.6387048,102.751504 C44.208873,100.70715 45.5487437,98.9622231 46.8887783,97.217722 C46.8440637,98.04271 46.6522952,98.5744376 46.4092494,99.0080982 C45.0710937,101.393596 44.0051983,104.290306 42.4709582,106.306373 L42.3781175,107.201439 C42.7733955,108.018787 42.7327674,108.489402 42.3402108,108.679617 C42.3399301,114.677502 41.4157864,120.849441 42.7969032,126.949449 C43.1143707,128.351372 43.6310739,128.48505 44.0250525,127.87919 C44.5218376,127.115007 44.765897,125.958934 44.8809033,124.662611 C44.9290685,124.120181 44.940675,123.504969 45.273018,123.527576 C46.8793697,123.636912 49.5995993,121.122627 49.5841915,118.911767 C49.5726516,117.282844 49.4123607,115.450123 50.3837824,114.884446 C50.6500202,117.085778 50.9015785,119.161879 51.1746519,121.418032 C52.277438,120.238982 52.8590494,118.221085 54.2813688,117.903998 C53.8491026,120.888722 50.0777737,123.033468 48.4784323,123.365398 C46.5842518,123.758607 45.70009,125.635555 45.662559,129.241676 C45.6478565,130.670231 45.2695695,131.515119 44.4281503,131.641749 C43.607401,131.764665 43.3613931,133.160855 43.4076618,134.655236 C43.4980631,137.581705 43.3809548,143.287673 43.345567,149.118949 L33.4524715,149.118949 L33.4524715,84.1486524 L48.5504126,84.1486524 Z" id="Path" fill="#000000"></path>
                        <path d="M130.235261,131.403498 C131.443829,131.871363 132.437133,132.543874 133.395378,133.351421 C133.889524,134.176932 134.473247,134.438092 135.195081,134.362145 C135.846587,134.293084 136.505222,133.929416 137.236282,134.19642 C136.544824,135.281093 136.264932,135.042785 135.918744,136.445851 C135.797081,136.938619 133.884734,137.043473 133.52928,137.206164 C132.123761,137.848721 131.086162,137.464767 129.690281,137.493264 C128.682975,137.513971 125.313053,141.289246 124.418252,142.562889 C126.431058,141.447484 131.863992,138.199188 133.880077,139.277283 C134.006821,139.34484 134.208694,139.347873 134.300983,139.231831 C134.857999,138.531455 136.623263,139.49242 137.181774,138.775497 C139.123432,136.283181 139.593865,135.39272 142.300511,135.421451 C143.64671,135.435512 144.160572,134.37046 145.467708,134.897489 C145.686608,134.985838 147.015731,134.327455 147.199234,134.76409 C147.587992,135.68876 148.269235,134.563237 148.870799,134.177542 C150.178405,133.338989 151.318311,135.014271 152.722302,135.310513 C153.957466,135.571304 162.854427,134.096169 164.075239,133.696455 C162.662176,133.517698 160.381408,132.528417 158.970283,132.356014 C157.603824,132.188759 149.660464,132.345372 148.2796,132.688704 C148.998222,132.380457 150.506084,131.09934 152.803188,128.845352 L160.544304,126.996511 C164.802898,126.472657 167.13908,126.165229 167.55285,126.074228 C167.374158,125.991102 164.863712,125.418889 160.021512,124.35759 L151.673263,126.636543 L148.371304,130.898445 C147.447104,131.213183 146.887582,131.407029 146.692738,131.479983 C145.393415,131.966552 145.81159,131.303226 144.476177,130.616348 C142.324823,129.509836 142.227462,132.010696 140.019143,131.795856 C139.74734,131.769363 137.933436,130.988356 137.717626,131.271625 C136.505699,132.861503 135.03746,132.994812 133.553318,133.020465 C132.63467,131.829889 131.643318,130.998205 130.235261,131.403498 Z" id="Path-Copy-7" fill="#000000" transform="translate(145.985551, 133.460240) rotate(-122.000000) translate(-145.985551, -133.460240) "></path>
                        <path d="M43.7652465,169.298928 C44.759688,169.895267 45.5777112,170.75355 46.3672532,171.784518 C46.7754059,172.839139 47.2557953,173.172147 47.8488667,173.073986 C48.3841546,172.98473 48.9245775,172.518832 49.5260738,172.859093 C48.9604441,174.24679 48.729823,173.942546 48.448744,175.736774 C48.3499621,176.366921 46.7785076,176.503802 46.4867683,176.712318 C45.333184,177.535861 44.4794637,177.046543 43.3322926,177.085042 C42.5044629,177.113008 39.7440754,181.944407 39.0117875,183.57399 C40.663325,182.145045 45.1205468,177.984291 46.7801649,179.359568 C46.8844989,179.445746 47.0504207,179.449324 47.1259857,179.300836 C47.582064,178.404633 49.0352516,179.630538 49.4925183,178.713179 C51.0821998,175.524063 51.4666517,174.384978 53.6912488,174.417698 C54.7976918,174.433679 55.2174074,173.071329 56.2930044,173.743159 C56.4731301,173.855781 57.5638874,173.012119 57.7157761,173.570051 C58.0375574,174.751597 58.594691,173.311691 59.0881554,172.817717 C60.1607856,171.743752 61.1017607,173.883785 62.2563939,174.260428 C63.2721861,174.591999 70.5807606,172.692965 71.583135,172.180151 C70.4213343,171.953719 68.544397,170.692377 67.384204,170.474064 C66.260734,170.262267 59.7326635,170.474256 58.5986076,170.915227 C59.1884682,170.520091 60.4245984,168.880044 62.3069982,165.995087 L68.6646945,163.620011 C72.1634434,162.943992 74.08274,162.547506 74.4225841,162.430555 C74.2755173,162.324549 72.2108377,161.596739 68.2285451,160.247124 L61.3729169,163.172965 L58.6695809,168.626379 C57.9107758,169.030118 57.4513942,169.278764 57.2914361,169.372319 C56.2247485,169.996287 56.5668079,169.147654 55.4675776,168.271512 C53.696715,166.860107 53.6228367,170.057412 51.8073459,169.786029 C51.5838918,169.752563 50.0911705,168.756792 49.9144969,169.119249 C48.9223473,171.153585 47.7159648,171.326187 46.4962475,171.361181 C45.7383093,169.840481 44.9214994,168.778705 43.7652465,169.298928 Z" id="Path-Copy-8" fill="#000000" transform="translate(56.717186, 171.910557) rotate(-135.000000) translate(-56.717186, -171.910557) "></path>
                        <path d="M139.642768,16.0372305 L131.302347,20.660589 L112.34981,20.660589 C110.777804,20.3806335 107.9929,19.0953418 103.995098,16.8047138 L93.2650603,29.3697745 C85.8317596,26.2049203 80.7597461,23.7885031 78.04902,22.1205228 C76.4243849,21.1208427 74.4864111,20.7748973 72.6205412,21.1514915 L70.7248138,21.53411 C67.9846499,22.0871657 65.7688468,24.1178979 64.9601681,26.8172742 L58.8238413,47.3003854 C58.3343676,48.9342527 57.3170583,50.3557682 55.9340372,51.3383915 L43.6093283,60.0949796 C41.5943154,61.526627 40.3954373,63.8580553 40.3954373,66.344953 C39.9408457,90.687145 39.0992741,111.90884 37.8707224,130.010039 C36.6421708,148.111237 34.9783601,162.104702 32.8792902,171.990433 C30.7913068,171.243022 29.7473151,168.058203 29.7473151,162.435977 C29.7473151,162.055479 29.6653992,161.690089 29.6653992,161.314861 L29.6653992,61.8862071 C29.6653992,59.3993094 30.8642774,57.0678811 32.8792902,55.6362337 L45.2039991,46.8796457 C46.5870203,45.8970223 47.6043296,44.4755068 48.0938033,42.8416395 L54.2301301,22.3585283 C55.0388087,19.659152 57.2546118,17.6284198 59.9947758,17.0753641 L61.8905032,16.6927457 C63.7563731,16.3161514 65.6943469,16.6620968 67.3189819,17.661777 C71.3850712,20.1637473 75.6653092,21.1633513 80.1596958,20.660589 C83.4654968,20.2907872 87.8339515,17.5192468 93.2650603,12.3459679 C95.0063466,10.6873452 97.4222574,9.95732629 99.7802668,10.3772595 L116.119557,13.2870912 C116.966492,13.43792 117.832695,13.4420825 118.681014,13.2994001 L131.302347,11.1765648 C134.93866,10.564958 138.401187,12.6770666 139.642768,16.0372305 Z" id="Path" fill="#C4C3C6" fill-rule="nonzero"></path>
                        <path d="M73.2520067,50.3464265 L43.7036045,75.5193641 L43.7036045,66.6733462 C43.7036045,64.2754656 44.8939421,62.0274896 46.8946005,60.6470872 L59.1315111,52.2039365 C60.50468,51.2564857 61.5147423,49.8858526 62.000729,48.3104686 L68.0933421,28.5605395 C68.8962599,25.9577859 71.0962782,23.9997426 73.8169218,23.4664833 L75.6991446,23.0975605 C76.9341965,22.8554843 79.8579888,22.9784586 84.4705216,23.4664833 L93.8381918,26.923377 L108.878568,22.4655091 L112.638662,16.2817403 C121.269402,18.547412 125.865073,19.7287246 126.425674,19.8256779 C127.266575,19.9711079 131.242818,19.9632531 132.085094,19.8256779 L144.616515,17.7788284 C148.226924,17.1891136 151.664785,19.2256205 152.897521,22.4655091 L142.738693,24.1248254 C141.896417,24.2624005 137.293492,23.6119133 136.452591,23.4664833 L122.66558,26.923377 L117.503797,23.2055208 L104.491792,31.2225244 L90.0780978,31.2225244 L83.184592,30.4075105 L77.5444509,34.092494 L73.2520067,50.3464265 Z" id="Path" fill="#FFFFFF" fill-rule="nonzero"></path>
                    </g>
                    <g id="Group-15" transform="translate(61.307941, 58.620291)" fill="#000000">
                        <path d="M3.18923937,6.53331377 L74.8884799,1.31809351 C76.378955,1.20968015 77.6751102,2.33006256 77.7835236,3.82053768 C77.7838831,3.82548042 77.784229,3.83042413 77.7845614,3.83536877 C77.8854977,5.3370389 76.7545097,6.63822097 75.2534169,6.74740664 L3.55417637,11.9626269 C2.06370125,12.0710403 0.767546038,10.9506578 0.659132671,9.46018273 C0.658773149,9.45523999 0.658427206,9.45029628 0.658094847,9.44535164 C0.557158509,7.94368151 1.6881465,6.64249944 3.18923937,6.53331377 Z" id="Rectangle" transform="translate(39.221328, 6.640360) rotate(-1.000000) translate(-39.221328, -6.640360) "></path>
                        <path d="M3.18923937,39.3872307 L74.8884799,34.1720105 C76.378955,34.0635971 77.6751102,35.1839795 77.7835236,36.6744547 C77.7838831,36.6793974 77.784229,36.6843411 77.7845614,36.6892857 C77.8854977,38.1909559 76.7545097,39.4921379 75.2534169,39.6013236 L3.55417637,44.8165439 C2.06370125,44.9249572 0.767546038,43.8045748 0.659132671,42.3140997 C0.658773149,42.309157 0.658427206,42.3042132 0.658094847,42.2992686 C0.557158509,40.7975985 1.6881465,39.4964164 3.18923937,39.3872307 Z" id="Rectangle-Copy-5" transform="translate(39.221328, 39.494277) rotate(-1.000000) translate(-39.221328, -39.494277) "></path>
                        <path d="M3.18923937,22.9602723 L74.8884799,17.745052 C76.378955,17.6366386 77.6751102,18.757021 77.7835236,20.2474962 C77.7838831,20.2524389 77.784229,20.2573826 77.7845614,20.2623273 C77.8854977,21.7639974 76.7545097,23.0651795 75.2534169,23.1743651 L3.55417637,28.3895854 C2.06370125,28.4979988 0.767546038,27.3776163 0.659132671,25.8871412 C0.658773149,25.8821985 0.658427206,25.8772548 0.658094847,25.8723101 C0.557158509,24.37064 1.6881465,23.0694579 3.18923937,22.9602723 Z" id="Rectangle-Copy-4" transform="translate(39.221328, 23.067319) rotate(-1.000000) translate(-39.221328, -23.067319) "></path>
                        <path d="M3.22246264,55.9764201 L52.0269252,52.3711517 C53.5251762,52.2604733 54.8294712,53.3853232 54.9401495,54.8835743 C54.9406135,54.8898551 54.9410557,54.8961375 54.941476,54.9024213 C55.042649,56.4149137 53.9043168,57.7256105 52.3925637,57.8372863 L3.58810114,61.4425547 C2.0898501,61.553233 0.78555513,60.4283831 0.674876785,58.9301321 C0.674412812,58.9238513 0.673970653,58.9175689 0.673550316,58.911285 C0.57237728,57.3987927 1.71070949,56.0880959 3.22246264,55.9764201 Z" id="Rectangle-Copy-7" transform="translate(27.807513, 56.906853) rotate(-1.000000) translate(-27.807513, -56.906853) "></path>
                    </g>
                </g>
                <g id="Group-16-Copy-2" transform="translate(58.000000, 35.000000)">
                    <g id="Group-14">
                        <path d="M40.857336,15.6021232 C42.9464226,8.62873438 42.7843487,5.50339155 49.8631179,4.0746618 L61.8555133,7.35256586 C66.6756779,6.37969721 73.4380064,1.49215432 77.634981,4.0746618 C79.3343705,5.12034033 84.8074061,4.18484579 86.4714829,4.0746618 C90.8677578,-3.3560578 112.736391,5.21751029 117.39924,2.44061796 C120.507805,0.589356404 125.155762,0.589356404 131.34311,2.44061796 C138.369656,1.25879358 142.327532,0.593101529 143.216741,0.443541815 C144.550553,0.219202244 145.875315,0.136718886 147.175886,0.185179195 C148.042934,0.217486068 154.228897,5.71394325 165.733776,16.6745507 C165.911259,18.1136054 166,19.1956727 166,19.9207525 L166,159.086245 C166,168.872998 158.896358,177.183096 149.303373,178.618564 L42.6341716,190.33233 C31.9447423,191.931867 21.9943438,184.48363 20.4093345,173.696228 C20.2684485,172.737373 20.1977186,171.76935 20.1977186,170.800011 C6.09508596,159.249234 -0.427094014,152.61065 0.631178707,150.884257 C9.88846641,135.782558 14.9378961,105.031834 15.7794677,58.6320835 C15.7794677,52.2075978 18.8765695,46.1847414 24.0820194,42.4863189 L35.1616594,34.6143404 L40.857336,15.6021232 Z" id="Path" fill="#000000" fill-rule="nonzero"></path>
                        <path d="M61.9797349,49.778935 C61.4902612,51.4128024 60.4729518,52.8343179 59.0899307,53.8169412 L46.7652218,62.5735293 C44.7502089,64.0051767 43.5513308,66.336605 43.5513308,68.8235027 C43.5513308,107.341318 43.5513308,136.229679 43.5513308,155.488586 C43.5513308,159.457315 45.6552598,164.553025 49.8631179,170.775715 C49.8631179,171.150943 63.978218,177.705317 68.1160616,177.086142 L147.544394,166.647142 C151.257808,166.091478 145.188278,159.277007 145.188278,155.488586 C151.067829,140.970073 154.007605,129.481578 154.007605,121.023102 C154.007605,110.958301 150.851711,109.800418 150.851711,94.955784 C150.851711,89.5973229 154.007605,72.6306231 154.007605,66.6493545 C154.007605,58.4227719 154.007605,44.7574623 154.007605,25.6534258 C154.007605,25.2324117 153.973136,24.8121173 153.90455,24.3968316 C153.216855,20.2328445 149.314448,17.4198625 145.188278,18.1138604 L132.566946,20.2366957 C131.718627,20.3793781 130.852423,20.3752156 130.005489,20.2243867 L113.666198,17.314555 C111.308189,16.8946218 108.892278,17.6246408 107.150992,19.2832635 C101.719883,24.4565423 97.3514283,27.2280827 94.0456274,27.5978845 C89.5512407,28.1006469 85.2710028,27.1010429 81.2049135,24.5990725 C79.5802785,23.5993924 77.6423047,23.253447 75.7764348,23.6300412 L73.8807073,24.0126596 C71.1405434,24.5657153 68.9247403,26.5964475 68.1160616,29.2958239 L61.9797349,49.778935 Z" id="Path" fill="#C4C3C6" fill-rule="nonzero"></path>
                        <path d="M48.5504126,84.1486524 C47.4119345,84.9713935 46.304259,85.8796017 45.2437669,86.9177861 C42.4043177,89.6967361 42.6240477,96.0626253 42.6387048,102.751504 C44.208873,100.70715 45.5487437,98.9622231 46.8887783,97.217722 C46.8440637,98.04271 46.6522952,98.5744376 46.4092494,99.0080982 C45.0710937,101.393596 44.0051983,104.290306 42.4709582,106.306373 L42.3781175,107.201439 C42.7733955,108.018787 42.7327674,108.489402 42.3402108,108.679617 C42.3399301,114.677502 41.4157864,120.849441 42.7969032,126.949449 C43.1143707,128.351372 43.6310739,128.48505 44.0250525,127.87919 C44.5218376,127.115007 44.765897,125.958934 44.8809033,124.662611 C44.9290685,124.120181 44.940675,123.504969 45.273018,123.527576 C46.8793697,123.636912 49.5995993,121.122627 49.5841915,118.911767 C49.5726516,117.282844 49.4123607,115.450123 50.3837824,114.884446 C50.6500202,117.085778 50.9015785,119.161879 51.1746519,121.418032 C52.277438,120.238982 52.8590494,118.221085 54.2813688,117.903998 C53.8491026,120.888722 50.0777737,123.033468 48.4784323,123.365398 C46.5842518,123.758607 45.70009,125.635555 45.662559,129.241676 C45.6478565,130.670231 45.2695695,131.515119 44.4281503,131.641749 C43.607401,131.764665 43.3613931,133.160855 43.4076618,134.655236 C43.4980631,137.581705 43.3809548,143.287673 43.345567,149.118949 L33.4524715,149.118949 L33.4524715,84.1486524 L48.5504126,84.1486524 Z" id="Path" fill="#000000"></path>
                        <path d="M130.235261,131.403498 C131.443829,131.871363 132.437133,132.543874 133.395378,133.351421 C133.889524,134.176932 134.473247,134.438092 135.195081,134.362145 C135.846587,134.293084 136.505222,133.929416 137.236282,134.19642 C136.544824,135.281093 136.264932,135.042785 135.918744,136.445851 C135.797081,136.938619 133.884734,137.043473 133.52928,137.206164 C132.123761,137.848721 131.086162,137.464767 129.690281,137.493264 C128.682975,137.513971 125.313053,141.289246 124.418252,142.562889 C126.431058,141.447484 131.863992,138.199188 133.880077,139.277283 C134.006821,139.34484 134.208694,139.347873 134.300983,139.231831 C134.857999,138.531455 136.623263,139.49242 137.181774,138.775497 C139.123432,136.283181 139.593865,135.39272 142.300511,135.421451 C143.64671,135.435512 144.160572,134.37046 145.467708,134.897489 C145.686608,134.985838 147.015731,134.327455 147.199234,134.76409 C147.587992,135.68876 148.269235,134.563237 148.870799,134.177542 C150.178405,133.338989 151.318311,135.014271 152.722302,135.310513 C153.957466,135.571304 162.854427,134.096169 164.075239,133.696455 C162.662176,133.517698 160.381408,132.528417 158.970283,132.356014 C157.603824,132.188759 149.660464,132.345372 148.2796,132.688704 C148.998222,132.380457 150.506084,131.09934 152.803188,128.845352 L160.544304,126.996511 C164.802898,126.472657 167.13908,126.165229 167.55285,126.074228 C167.374158,125.991102 164.863712,125.418889 160.021512,124.35759 L151.673263,126.636543 L148.371304,130.898445 C147.447104,131.213183 146.887582,131.407029 146.692738,131.479983 C145.393415,131.966552 145.81159,131.303226 144.476177,130.616348 C142.324823,129.509836 142.227462,132.010696 140.019143,131.795856 C139.74734,131.769363 137.933436,130.988356 137.717626,131.271625 C136.505699,132.861503 135.03746,132.994812 133.553318,133.020465 C132.63467,131.829889 131.643318,130.998205 130.235261,131.403498 Z" id="Path-Copy-7" fill="#000000" transform="translate(145.985551, 133.460240) rotate(-122.000000) translate(-145.985551, -133.460240) "></path>
                        <path d="M43.7652465,169.298928 C44.759688,169.895267 45.5777112,170.75355 46.3672532,171.784518 C46.7754059,172.839139 47.2557953,173.172147 47.8488667,173.073986 C48.3841546,172.98473 48.9245775,172.518832 49.5260738,172.859093 C48.9604441,174.24679 48.729823,173.942546 48.448744,175.736774 C48.3499621,176.366921 46.7785076,176.503802 46.4867683,176.712318 C45.333184,177.535861 44.4794637,177.046543 43.3322926,177.085042 C42.5044629,177.113008 39.7440754,181.944407 39.0117875,183.57399 C40.663325,182.145045 45.1205468,177.984291 46.7801649,179.359568 C46.8844989,179.445746 47.0504207,179.449324 47.1259857,179.300836 C47.582064,178.404633 49.0352516,179.630538 49.4925183,178.713179 C51.0821998,175.524063 51.4666517,174.384978 53.6912488,174.417698 C54.7976918,174.433679 55.2174074,173.071329 56.2930044,173.743159 C56.4731301,173.855781 57.5638874,173.012119 57.7157761,173.570051 C58.0375574,174.751597 58.594691,173.311691 59.0881554,172.817717 C60.1607856,171.743752 61.1017607,173.883785 62.2563939,174.260428 C63.2721861,174.591999 70.5807606,172.692965 71.583135,172.180151 C70.4213343,171.953719 68.544397,170.692377 67.384204,170.474064 C66.260734,170.262267 59.7326635,170.474256 58.5986076,170.915227 C59.1884682,170.520091 60.4245984,168.880044 62.3069982,165.995087 L68.6646945,163.620011 C72.1634434,162.943992 74.08274,162.547506 74.4225841,162.430555 C74.2755173,162.324549 72.2108377,161.596739 68.2285451,160.247124 L61.3729169,163.172965 L58.6695809,168.626379 C57.9107758,169.030118 57.4513942,169.278764 57.2914361,169.372319 C56.2247485,169.996287 56.5668079,169.147654 55.4675776,168.271512 C53.696715,166.860107 53.6228367,170.057412 51.8073459,169.786029 C51.5838918,169.752563 50.0911705,168.756792 49.9144969,169.119249 C48.9223473,171.153585 47.7159648,171.326187 46.4962475,171.361181 C45.7383093,169.840481 44.9214994,168.778705 43.7652465,169.298928 Z" id="Path-Copy-8" fill="#000000" transform="translate(56.717186, 171.910557) rotate(-135.000000) translate(-56.717186, -171.910557) "></path>
                        <path d="M139.642768,16.0372305 L131.302347,20.660589 L112.34981,20.660589 C110.777804,20.3806335 107.9929,19.0953418 103.995098,16.8047138 L93.2650603,29.3697745 C85.8317596,26.2049203 80.7597461,23.7885031 78.04902,22.1205228 C76.4243849,21.1208427 74.4864111,20.7748973 72.6205412,21.1514915 L70.7248138,21.53411 C67.9846499,22.0871657 65.7688468,24.1178979 64.9601681,26.8172742 L58.8238413,47.3003854 C58.3343676,48.9342527 57.3170583,50.3557682 55.9340372,51.3383915 L43.6093283,60.0949796 C41.5943154,61.526627 40.3954373,63.8580553 40.3954373,66.344953 C39.9408457,90.687145 39.0992741,111.90884 37.8707224,130.010039 C36.6421708,148.111237 34.9783601,162.104702 32.8792902,171.990433 C30.7913068,171.243022 29.7473151,168.058203 29.7473151,162.435977 C29.7473151,162.055479 29.6653992,161.690089 29.6653992,161.314861 L29.6653992,61.8862071 C29.6653992,59.3993094 30.8642774,57.0678811 32.8792902,55.6362337 L45.2039991,46.8796457 C46.5870203,45.8970223 47.6043296,44.4755068 48.0938033,42.8416395 L54.2301301,22.3585283 C55.0388087,19.659152 57.2546118,17.6284198 59.9947758,17.0753641 L61.8905032,16.6927457 C63.7563731,16.3161514 65.6943469,16.6620968 67.3189819,17.661777 C71.3850712,20.1637473 75.6653092,21.1633513 80.1596958,20.660589 C83.4654968,20.2907872 87.8339515,17.5192468 93.2650603,12.3459679 C95.0063466,10.6873452 97.4222574,9.95732629 99.7802668,10.3772595 L116.119557,13.2870912 C116.966492,13.43792 117.832695,13.4420825 118.681014,13.2994001 L131.302347,11.1765648 C134.93866,10.564958 138.401187,12.6770666 139.642768,16.0372305 Z" id="Path" fill="#C4C3C6" fill-rule="nonzero"></path>
                        <path d="M73.2520067,50.3464265 L43.7036045,75.5193641 L43.7036045,66.6733462 C43.7036045,64.2754656 44.8939421,62.0274896 46.8946005,60.6470872 L59.1315111,52.2039365 C60.50468,51.2564857 61.5147423,49.8858526 62.000729,48.3104686 L68.0933421,28.5605395 C68.8962599,25.9577859 71.0962782,23.9997426 73.8169218,23.4664833 L75.6991446,23.0975605 C76.9341965,22.8554843 79.8579888,22.9784586 84.4705216,23.4664833 L93.8381918,26.923377 L108.878568,22.4655091 L112.638662,16.2817403 C121.269402,18.547412 125.865073,19.7287246 126.425674,19.8256779 C127.266575,19.9711079 131.242818,19.9632531 132.085094,19.8256779 L144.616515,17.7788284 C148.226924,17.1891136 151.664785,19.2256205 152.897521,22.4655091 L142.738693,24.1248254 C141.896417,24.2624005 137.293492,23.6119133 136.452591,23.4664833 L122.66558,26.923377 L117.503797,23.2055208 L104.491792,31.2225244 L90.0780978,31.2225244 L83.184592,30.4075105 L77.5444509,34.092494 L73.2520067,50.3464265 Z" id="Path" fill="#FFFFFF" fill-rule="nonzero"></path>
                    </g>
                    <g id="Group-15" transform="translate(61.307941, 58.620291)" fill="#000000">
                        <path d="M3.18923937,6.53331377 L74.8884799,1.31809351 C76.378955,1.20968015 77.6751102,2.33006256 77.7835236,3.82053768 C77.7838831,3.82548042 77.784229,3.83042413 77.7845614,3.83536877 C77.8854977,5.3370389 76.7545097,6.63822097 75.2534169,6.74740664 L3.55417637,11.9626269 C2.06370125,12.0710403 0.767546038,10.9506578 0.659132671,9.46018273 C0.658773149,9.45523999 0.658427206,9.45029628 0.658094847,9.44535164 C0.557158509,7.94368151 1.6881465,6.64249944 3.18923937,6.53331377 Z" id="Rectangle" transform="translate(39.221328, 6.640360) rotate(-1.000000) translate(-39.221328, -6.640360) "></path>
                        <path d="M3.18923937,39.3872307 L74.8884799,34.1720105 C76.378955,34.0635971 77.6751102,35.1839795 77.7835236,36.6744547 C77.7838831,36.6793974 77.784229,36.6843411 77.7845614,36.6892857 C77.8854977,38.1909559 76.7545097,39.4921379 75.2534169,39.6013236 L3.55417637,44.8165439 C2.06370125,44.9249572 0.767546038,43.8045748 0.659132671,42.3140997 C0.658773149,42.309157 0.658427206,42.3042132 0.658094847,42.2992686 C0.557158509,40.7975985 1.6881465,39.4964164 3.18923937,39.3872307 Z" id="Rectangle-Copy-5" transform="translate(39.221328, 39.494277) rotate(-1.000000) translate(-39.221328, -39.494277) "></path>
                        <path d="M3.18923937,22.9602723 L74.8884799,17.745052 C76.378955,17.6366386 77.6751102,18.757021 77.7835236,20.2474962 C77.7838831,20.2524389 77.784229,20.2573826 77.7845614,20.2623273 C77.8854977,21.7639974 76.7545097,23.0651795 75.2534169,23.1743651 L3.55417637,28.3895854 C2.06370125,28.4979988 0.767546038,27.3776163 0.659132671,25.8871412 C0.658773149,25.8821985 0.658427206,25.8772548 0.658094847,25.8723101 C0.557158509,24.37064 1.6881465,23.0694579 3.18923937,22.9602723 Z" id="Rectangle-Copy-4" transform="translate(39.221328, 23.067319) rotate(-1.000000) translate(-39.221328, -23.067319) "></path>
                        <path d="M3.22246264,55.9764201 L52.0269252,52.3711517 C53.5251762,52.2604733 54.8294712,53.3853232 54.9401495,54.8835743 C54.9406135,54.8898551 54.9410557,54.8961375 54.941476,54.9024213 C55.042649,56.4149137 53.9043168,57.7256105 52.3925637,57.8372863 L3.58810114,61.4425547 C2.0898501,61.553233 0.78555513,60.4283831 0.674876785,58.9301321 C0.674412812,58.9238513 0.673970653,58.9175689 0.673550316,58.911285 C0.57237728,57.3987927 1.71070949,56.0880959 3.22246264,55.9764201 Z" id="Rectangle-Copy-7" transform="translate(27.807513, 56.906853) rotate(-1.000000) translate(-27.807513, -56.906853) "></path>
                    </g>
                </g>
                <path d="M32.2837864,179.596147 C33.6700099,179.955464 34.8078896,180.474606 35.9048176,181.098826 C36.4684378,181.738666 37.1377912,181.93956 37.9675046,181.877953 C38.7163825,181.821949 39.4749192,181.536945 40.3135228,181.741855 C39.5136787,182.587358 39.193292,182.403139 38.7885502,183.494871 C38.6463112,183.878296 36.4486406,183.966624 36.0394389,184.094341 C34.421396,184.598773 33.2311848,184.304063 31.6272766,184.331198 C30.4698521,184.350891 26.5792319,187.297162 25.5448199,188.290264 C27.8629489,187.416153 34.1211928,184.872092 36.4321511,185.702809 C36.5774342,185.754862 36.8093563,185.756498 36.915968,185.665978 C37.5594312,185.11964 39.5827996,185.860216 40.2280635,185.301012 C42.4713141,183.35699 43.0162487,182.663222 46.1258442,182.675882 C47.6724589,182.682 48.2681596,181.852382 49.767335,182.257331 C50.0183949,182.325215 51.5487432,181.808756 51.7573974,182.147463 C52.1994413,182.864749 52.9877524,181.987533 53.6808296,181.685612 C55.1873543,181.029197 56.4886702,182.327192 58.1002758,182.552421 C59.5180896,182.750701 69.7474049,181.572403 71.1520221,181.257374 C69.5294078,181.12349 66.9139042,180.362747 65.2934837,180.233794 C63.7243562,180.108682 54.5972335,180.258786 53.009009,180.530566 C53.8361897,180.288422 55.5750023,179.28732 58.2254469,177.527262 L67.1286446,176.062642 C72.024071,175.640275 74.7097069,175.392988 75.1855523,175.320781 C74.9806627,175.256812 72.0991966,174.821046 66.541154,174.013481 L56.9382598,175.814563 L53.123297,179.138808 C52.0598887,179.386732 51.4160721,179.539393 51.1918472,179.59679 C49.6965932,179.979605 50.1803538,179.462559 48.6494863,178.933473 C46.183255,178.081154 46.0589236,180.025226 43.522798,179.866139 C43.2106472,179.846519 41.1304984,179.245983 40.8811358,179.466918 C39.4807921,180.706937 37.7932281,180.815794 36.0879292,180.841035 C35.038406,179.918974 33.9035625,179.276113 32.2837864,179.596147 Z" id="Path-Copy-9" fill="#000000" transform="translate(50.365186, 181.151872) rotate(-83.000000) translate(-50.365186, -181.151872) "></path>
                <path d="M77.4137201,108.034967 C78.2359842,108.457969 78.9108937,109.068952 79.5614888,109.803547 C79.8957119,110.556412 80.2927457,110.792891 80.7849609,110.720578 C81.2292216,110.65484 81.6792579,110.319692 82.1766936,110.56093 C81.7020408,111.55548 81.5120178,111.338689 81.2716985,112.622999 C81.1872429,113.074059 79.8835224,113.177535 79.6407502,113.327709 C78.6807934,113.920836 77.974795,113.573881 77.0233187,113.605485 C76.3367071,113.628423 74.0281234,117.093848 73.4142907,118.261997 C74.7896266,117.234094 78.5026522,114.242328 79.8733935,115.220102 C79.959568,115.281371 80.0971485,115.283342 80.1604108,115.176869 C80.5422355,114.534246 81.7423906,115.405916 82.125286,114.748157 C83.4564163,112.461519 83.7798212,111.64543 85.6244938,111.660944 C86.5419757,111.668451 86.8955233,110.692548 87.7847836,111.169257 C87.9337039,111.249171 88.8416407,110.641877 88.9653509,111.040397 C89.2274369,111.884351 89.6952544,110.852489 90.1064622,110.497427 C91.0002944,109.725474 91.7720019,111.252786 92.727994,111.518083 C93.5690303,111.751636 99.637503,110.367443 100.470813,109.997101 C99.5082724,109.839266 97.9568547,108.943753 96.9956142,108.79172 C96.064801,108.644217 90.6503768,108.818991 89.7081555,109.138415 C90.1989042,108.853704 91.2306033,107.676285 92.8032525,105.606156 L98.0851026,103.884849 C100.989253,103.388922 102.582476,103.098531 102.864772,103.013677 C102.74324,102.938379 101.033983,102.425137 97.7370009,101.473953 L92.0400094,103.590959 L89.7762316,107.501075 C89.1453467,107.792539 88.7633911,107.972011 88.6303649,108.039493 C87.7432734,108.489566 88.0303534,107.881372 87.1223175,107.258614 C85.6594695,106.255393 85.5853249,108.542513 84.0808757,108.354845 C83.8957054,108.331701 82.661839,107.624773 82.5138679,107.884646 C81.6829078,109.343214 80.6817888,109.470945 79.6701659,109.5003 C79.0477518,108.415313 78.3746681,107.65878 77.4137201,108.034967 Z" id="Path-Copy-10" fill="#000000" transform="translate(88.139531, 109.867975) rotate(-83.000000) translate(-88.139531, -109.867975) "></path>
            </g>
        </g>
    </g>
</svg>