<?xml version="1.0" encoding="UTF-8"?>
<svg width="399px" height="399px" viewBox="0 0 399 399" version="1.1" xmlns="http://www.w3.org/2000/svg" xmlns:xlink="http://www.w3.org/1999/xlink">
    <!-- Generator: Sketch 61 (89581) - https://sketch.com -->
    <title>forum</title>
    <desc>Created with Sketch.</desc>
    <g id="forum" stroke="none" stroke-width="1" fill="none" fill-rule="evenodd">
        <g id="Group-41-Copy" transform="translate(29.000000, 88.000000)">
            <g id="Group-25" transform="translate(167.005270, 52.953881) scale(-1, 1) rotate(1.000000) translate(-167.005270, -52.953881) translate(144.505270, 0.453881)">
                <path d="M14.8089606,1.51734518 C15.8310551,0.485691518 18.7429161,-0.305533062 21.1801113,0.217247053 C23.5965418,0.735573125 26.0678528,2.00558762 27.3236317,4.00281836 C28.4963222,5.25092115 28.6160564,6.68306054 27.675791,8.08843098 C27.9399105,9.46368633 28.0724374,10.6025953 28.0266567,11.9410433 C28.3682512,13.075378 27.5160257,13.828255 26.8891821,14.497479 C26.1778202,15.2470099 26.205993,15.862696 26.5792819,16.6389959 C27.2695141,17.4119496 27.9058004,16.7825606 28.6101191,17.4852458 L29.2193547,17.8365884 C30.4307828,18.1310469 32.1832691,17.9665087 33.4263916,18.1572375 C36.7155597,18.67254 37.2040738,22.3979284 39.0564319,24.4557923 C40.5178931,26.0719683 38.9344433,28.6289824 38.677367,30.4425794 C38.36453,32.6119599 38.4611234,34.8169552 38.962616,36.9541291 C39.3816856,38.6974577 40.0754395,40.4140173 40.0578315,42.2008454 C40.0578315,44.0914032 39.2443435,45.9284232 39.3535129,47.8122888 C39.5577653,51.3725605 44.2379628,55.6054024 41.8432793,59.1389052 C41.5263359,59.6107082 41.075572,60.0155887 40.9030139,60.5509679 C40.7821413,61.0782603 40.802728,61.6259652 40.962881,62.1437211 C41.6671997,65.2522666 42.5088605,68.3675044 42.7236777,71.5429724 C42.9420164,74.8020933 41.8480946,78.1068319 42.4714166,81.3324916 C42.4995893,81.4897593 42.5348052,81.650373 42.5664996,81.8076407 C43.1440409,84.5179979 44.1406518,87.1781634 44.3343394,89.9654814 C44.5068975,92.3278422 37.704326,98.8426632 28.3567417,102.387968 C19.0091573,105.933273 8.50191736,103.632494 8.1399667,103.693102 C1.72709968,104.766779 5.4374638,79.9147209 1.72516048,59.9225896 C-1.02856687,45.0927457 -0.20396211,30.4137043 3.04241096,24.4986245 C3.67271739,22.1503828 5.98131687,21.1097356 8.20766048,20.1773061 C10.5057589,19.2287102 11.592647,18.1293286 13.706145,16.8506257 C13.7378393,15.8334052 15.1335779,16.9469687 14.8835448,15.9431327 L14.7990265,15.8594797 C13.8481964,15.8193263 13.8728475,15.0664493 13.6650735,14.4808782 C14.0383624,13.3097362 12.1824091,10.5806107 12.0063294,9.51319842 C11.5487064,7.00107306 12.9196598,3.32765986 14.8089606,1.51734518 Z" id="Path" fill="#000000"></path>
                <path d="M21.3525983,41.3370282 C21.3032632,45.1249019 22.2547251,48.4603914 23.681918,51.937673 C26.8076466,44.1154774 29.2567801,36.0704658 30.4831088,27.7317421 C30.7180376,26.1562747 30.90833,24.5808073 31.0539859,23.0053399 C31.1244646,22.2896276 30.9940791,21.3173392 30.2540531,21.2160591 C29.372941,28.6262505 27.6718914,35.9256848 25.1795896,42.9912689 C25.133709,43.1615593 25.04817,43.3196846 24.9293903,43.4537811 C24.5135662,43.8589013 24.1259336,43.4537811 24.259843,43.0013969 C26.0676207,36.9077142 27.1882314,30.6891194 28.3017942,24.4165086 C28.480231,23.0550862 28.5567783,21.6831787 28.5308499,20.3112907 C27.205851,19.6124584 25.1795896,18.5456419 24.1999362,19.2039622 C23.946213,22.5799638 22.9031288,25.9559653 22.6599774,29.3859828 C22.6453762,30.0880259 22.5448442,30.7860033 22.3604431,31.4655997 C22.2656344,31.7562299 22.1478284,32.0395101 22.0080498,32.3129761 C21.8248053,35.3311215 21.3948855,38.3222588 21.3525983,41.3370282 Z" id="Path" fill="#C4C3C6" fill-rule="nonzero"></path>
                <path d="M12.212597,42.7090586 C14.4630072,41.5536404 15.8788754,39.3462743 17.6406862,37.5562383 C18.2969072,36.8905795 19.3882313,36.9630087 18.4966267,37.9287314 C17.8760698,38.5978392 17.2091495,39.235906 16.5529285,39.8705237 C15.2797171,41.1087182 13.9779743,42.3124225 12.6940636,43.5402699 C12.5443729,43.662877 12.4228858,43.814436 12.3374217,43.9851921 C12.2570404,44.2232126 12.2386647,44.4767429 12.2839254,44.7232802 C12.4794308,46.6873708 12.4985232,48.6641539 12.3409881,50.6314335 C12.2553941,51.6661364 12.127003,52.7732684 12.5264419,53.7355421 C12.4230157,53.4803154 14.010072,51.6316463 14.2169243,51.3212354 C15.2012559,49.8933455 16.1570561,48.4482105 17.0700592,46.9685854 C18.0579572,45.3475509 19.6378806,43.7472105 19.9017956,41.8192141 C20.0373195,40.8017563 19.8055023,39.7498084 19.8411665,38.7426976 C19.8724431,37.6762057 19.9844909,36.613364 20.1764099,35.5627108 C20.3261896,34.9336538 20.4039299,34.2905665 20.4082271,33.6450615 C20.4144667,33.532284 20.3818556,33.4206895 20.3155002,33.3277526 C20.12648,33.100118 19.752006,33.2622215 19.5059232,33.4312229 C17.4742879,34.8367313 15.2715179,35.9951071 12.9472793,36.8802325 C12.4979105,37.0526829 11.9986119,37.2596235 11.8345567,37.6941987 C11.7697425,37.9066864 11.7527178,38.1301305 11.7846268,38.3495105 C11.8725985,39.8187886 12.0152552,41.2719713 12.212597,42.7090586 Z" id="Path" fill="#C4C3C6" fill-rule="nonzero"></path>
                <path d="M35.1668722,25.9860076 C35.3857755,31.4821253 34.3230353,37.292116 33.0484533,42.627958 C31.7279722,48.2309261 29.6801673,53.516682 27.3428452,58.7990989 C24.2499536,65.7911222 20.1472824,72.402491 15.5432521,78.6064926 C14.9430334,79.4145487 13.8096793,80.6967536 12.6163034,80.1124154 C12.7822462,80.1925532 17.1638425,73.5978799 17.5592807,72.9868291 C19.204586,70.5426261 20.7934002,68.0616933 22.2515785,65.5106399 C25.1447398,60.4942554 27.5246453,55.2279935 29.3588738,49.783596 C29.7119436,48.671684 30.0650134,47.5497548 30.386307,46.4244865 C30.6852394,45.3493043 30.95828,44.268557 31.2054289,43.1822445 C32.4870723,37.5058168 33.0025543,31.7058433 33.2143961,25.9092089 C33.2602952,24.670412 32.9743087,23.0409433 31.6785425,22.8539551 C32.8224887,33.3520073 27.8865727,43.4794222 23.4414238,53.159401 C20.1825894,60.315039 17.0861672,67.5675102 13.1670923,74.4293096 C12.6833866,75.2740956 12.1679047,76.138916 11.3629055,76.7299323 C12.6339568,74.2022525 13.9014775,71.6779117 15.1972437,69.160249 C16.5224324,66.5891612 17.8052527,64.0002649 19.0457046,61.3935603 C20.4062003,58.5308599 21.6878437,55.6369947 22.8906349,52.7119649 C22.7065097,52.7355962 22.5190788,52.7089495 22.350438,52.6351662 C22.1491883,52.7954418 21.4677635,52.80212 21.3759654,52.5984364 C20.3317558,50.3387112 19.5870124,47.9655442 19.158687,45.5329534 C18.024156,47.425096 16.8472566,49.293865 15.6279888,51.1392605 C14.9971708,52.09201 14.3534068,53.0347422 13.696697,53.9674572 C13.2694825,54.5751689 12.1537819,55.6369947 12.0090233,56.3448787 C10.6461738,62.4620643 9.40336807,68.6226579 8.95850011,74.9067973 C8.68310565,78.8101761 8.92319312,82.6968596 9.00086848,86.5935603 C9.03382167,88.1339869 9.13621191,89.6688485 9.30803922,91.1981449 C10.9145069,89.4417914 12.4856675,87.6386908 13.9720914,85.8055385 C19.4552656,79.1040148 24.4537166,71.8309418 29.2839454,58.4044839 C28.7988406,60.9867399 25.1946325,72.1686236 21.7473304,77.9932238 C18.1693717,84.0385827 13.8851209,88.8789913 12.0725543,90.9911213 C11.510772,91.5851336 11.0357772,92.247726 10.6602751,92.9611756 C9.70345586,95.0347413 9.92944209,96.3202861 10.7415027,98.4539551 C17.3580309,93.4753941 22.3928064,86.7671922 25.941158,79.5213991 C29.4895096,72.2756061 31.6432355,64.4621703 33.0661068,56.5986484 C34.8937912,46.4916988 35.5978821,36.2315898 35.1668722,25.9860076 Z" id="Path" fill="#C4C3C6" fill-rule="nonzero"></path>
                <path d="M32.1143568,27.2654429 C31.9143213,32.5996993 31.4275682,37.9401012 30.2173532,43.1606666 C29.9950915,44.1603276 29.737268,45.1548673 29.4438825,46.1442859 C29.1471632,47.1797953 28.8204385,48.212232 28.4737102,49.2354506 C26.7417068,54.2455667 24.494438,59.0917567 21.7625183,63.7080011 C20.385607,66.0555656 18.8853406,68.3386027 17.3317313,70.5878399 C16.4649107,71.841513 15.4380617,72.6988043 15.0479924,74.2044411 C14.5979125,75.9497509 14.0878219,77.4738241 13.0176318,79.0009701 C14.1645021,77.3632059 17.4617544,72.7233861 17.6651239,72.4314769 C19.2187331,70.1822397 20.7189996,67.8992026 22.0959108,65.5516381 C24.8278306,60.9353937 27.0750994,56.0892037 28.8071028,51.0790876 C29.1404953,50.055869 29.4738878,49.0234323 29.7772751,47.9879229 C30.0595474,46.9985043 30.317371,46.0039646 30.5507458,45.0043036 C31.7609607,39.7806654 32.2477138,34.4433363 32.4477494,29.1090799 C32.4935587,28.4450086 32.3797183,27.779806 32.1143568,27.1609701 L32.1143568,27.2654429 Z" id="Path" fill="#FFFFFF" fill-rule="nonzero"></path>
                <path d="M25.1923368,23.5509787 C23.9952467,29.5375919 23.4158358,35.6106398 23.4614733,41.6928808 C23.5132513,45.7949037 23.7499506,42.9052196 24.1641743,42.1379586 C24.2618768,41.99119 24.3495675,41.8392297 24.4267626,41.6829164 C24.4267626,41.6497016 24.4489531,41.6164869 24.4637469,41.5832721 C25.9985938,36.2456601 27.0526453,30.8482616 28.0734109,25.4010409 C28.2606833,24.0616067 28.3410209,22.7118567 28.3138086,21.362126 L27.9106802,21.1628375 C27.8884896,21.913491 25.3291786,22.8036466 25.1923368,23.5509787 Z" id="Path" fill="#FFFFFF" fill-rule="nonzero"></path>
                <path d="M35.4075245,27.8526177 C35.4075245,27.797322 35.4075245,27.7420262 35.3803605,27.6899832 C35.3803605,27.9046608 35.3803605,28.1193384 35.3803605,28.3405214 C35.7199104,32.2665196 35.424502,36.2413081 35.0645791,40.1770644 C34.1172349,50.5531491 32.7997813,60.9942876 29.3635363,70.8792159 C25.9272913,80.7641442 20.195689,90.1546635 11.6628001,96.6307715 C11.1857026,97.3467403 10.7963894,97.3273741 11.2140357,98.9699832 C19.7469247,92.4938751 26.2532592,82.7190116 29.7030862,72.8308306 C33.1529132,62.9426495 34.4567848,52.5047637 35.404129,42.118921 C35.8387529,37.3699919 36.2020713,32.5560091 35.4075245,27.8526177 Z" id="Path" fill="#FFFFFF" fill-rule="nonzero"></path>
                <path d="M25.6794287,7.39214945 C25.5863261,7.17247372 25.470015,6.96263525 25.3323373,6.76595661 C24.9088858,6.09623165 24.5722071,5.35618557 23.9439716,4.81705698 C23.821678,4.69786278 23.675141,4.60437351 23.5135782,4.54246975 C23.3677998,4.495589 23.2116087,4.49224038 23.0658303,4.44201101 C22.853173,4.32968669 22.6541097,4.19491493 22.4723039,4.04017603 C22.2831023,3.88187939 22.0060674,3.86941583 21.8024175,4.01003841 C21.6948313,3.78650829 21.5058291,3.60893223 21.2713676,3.51109332 C21.0116511,3.49053928 20.7502623,3.50292308 20.4938828,3.54792819 C20.2162096,3.54792819 19.9420074,3.24320333 19.6921016,3.61824931 C19.6533738,3.70552675 19.5980418,3.78503252 19.5289686,3.85265304 C19.4425317,3.89812341 19.3462279,3.92335844 19.2478246,3.92632279 C18.6785946,4.02008428 18.3141486,4.64292849 17.7414478,4.70320374 C17.6121744,4.69940631 17.4831467,4.71638109 17.3596472,4.75343311 C16.8077718,4.98783685 16.5439823,5.84173617 16.3773784,6.33063539 C16.030287,7.39214945 14.9161235,9.25733345 15.8879795,10.2652695 C16.0337579,10.4159576 16.2350709,10.5432054 16.2767219,10.7407742 C16.3183729,10.9383431 16.2767219,11.0756367 16.3461402,11.2330221 C16.4155585,11.3904074 16.596046,11.4573799 16.6932316,11.5678846 C16.8140708,11.7825773 16.8840139,12.0204686 16.8980156,12.2643985 C17.0264394,12.8035271 17.5262511,13.1718758 17.8837552,13.6038484 C18.1718411,13.955454 18.3731542,14.3673349 18.6369436,14.7390322 C19.8934146,16.5104547 23.2602015,15.9914179 24.4819633,14.4041698 C24.8723104,13.9785561 25.0306681,13.3997374 24.9088858,12.8437106 C24.9754032,12.762626 25.0120395,12.6624802 25.0130132,12.5590775 C25.012948,12.493822 25.0059699,12.4287438 24.9921877,12.3648573 C24.9921877,12.3280224 24.9921877,12.2811416 24.9921877,12.304582 C25.0050667,12.2627326 25.0225193,12.2223221 25.0442514,12.1840315 C25.1823333,11.950513 25.1022537,11.653366 24.8637639,11.5143066 C24.6896647,11.4205479 24.4753538,11.4309509 24.3118885,11.5410956 C23.9335589,11.8022883 22.066207,11.3435267 21.5872208,11.3200863 C20.456774,11.2609236 19.3233454,11.2821892 18.1961375,11.3837102 C17.8798435,10.9201551 17.6090945,10.4291255 17.3874145,9.91701254 C17.3360063,9.81999711 17.3154773,9.71048321 17.328409,9.60224181 C17.3770018,9.40802157 17.6060821,9.3310032 17.7692151,9.21045271 C18.3696832,8.77178286 18.0781264,7.92792941 18.8104894,7.59306693 C19.1575808,7.43233294 19.5706196,7.39884669 19.9315947,7.25820445 C20.3862844,7.06398422 20.8132069,6.66884649 21.2991349,6.76930523 C21.7156446,6.85636948 22.0488524,7.29838795 22.4653621,7.20797508 C22.6180823,7.17448883 22.7673317,7.07068147 22.9131101,7.12091084 C23.0588885,7.17114021 23.1040103,7.43233294 23.2150796,7.58971831 C23.3782126,7.82412204 23.7496004,7.83416792 23.9439716,8.0484799 C24.1383428,8.26279189 24.0862791,8.51059012 24.2042902,8.71820486 C24.318858,8.88782849 24.4996333,9.00556785 24.7055347,9.04466663 C24.9114362,9.0837654 25.1249764,9.04090288 25.2976282,8.9258196 C25.632963,8.67157489 25.8044652,8.26556218 25.748847,7.85760829 C25.7458613,7.70027393 25.7225418,7.54391351 25.6794287,7.39214945 L25.6794287,7.39214945 Z M20.770871,12.6373022 C21.5739426,12.5629779 22.6206813,12.2501964 23.3722739,12.7487886 C23.4506876,12.8021396 23.5241459,12.8611756 23.5919175,12.9253089 C23.6013776,12.9752043 23.6199324,13.0233409 23.6468283,13.0677638 C23.2659732,13.2309131 22.8752616,13.3746267 22.4765402,13.4982254 C21.3171657,13.7958515 20.0782515,13.3763062 19.4221225,12.4638788 C19.8621125,12.5714229 20.3151038,12.629669 20.770871,12.6373022 Z" id="Shape" fill="#FFFFFF" fill-rule="nonzero"></path>
                <path d="M5.13890696,53.9556714 C5.03324235,55.4668563 6.5780406,57.724685 7.24580431,59.0485224 C7.55440607,59.6409844 8.59362787,62.3218527 9.45452654,62.3196737 C9.9497747,62.3184181 8.96846105,58.7058253 8.89509983,58.4325629 C8.65670238,57.5340319 8.52039065,56.5332785 7.92965128,55.8627409 C7.25124143,55.0858269 6.14279429,54.147787 5.13890696,53.9556714 Z" id="Path" fill="#FFFFFF" fill-rule="nonzero" transform="translate(7.363656, 58.137673) rotate(30.000000) translate(-7.363656, -58.137673) "></path>
                <path d="M38.8992424,54.4256977 C38.6986169,53.7973662 38.5828714,53.0977806 38.0890239,52.6281514 C37.5305625,52.0751797 36.8229022,51.6421278 36.0248959,51.3650107 C35.9824559,51.3099507 35.9400159,51.2548907 35.8975759,51.2063084 C35.8530344,51.2356083 35.8128752,51.2693207 35.7779722,51.3067119 L35.7779722,51.3067119 C35.7760295,51.3163599 35.7760295,51.3262133 35.7779722,51.3358613 C35.3419975,51.8281623 35.3921539,53.0589147 35.3342811,53.7034404 C35.2956993,54.0273226 34.9484628,55.3034185 35.4384521,55.7438984 C35.7200995,55.9965265 36.4300052,54.4904742 36.4878779,54.3771154 C36.5881907,54.1633531 36.7193689,53.9593073 36.7965326,53.7293509 C37.0743218,54.1503978 37.352111,54.5422953 37.5450201,54.8564611 C37.8035184,55.2710303 38.6754678,57.1463084 39.3930899,57.1463084 C39.7866246,57.1430696 38.9609734,54.6167882 38.8992424,54.4256977 Z" id="Path" fill="#FFFFFF" fill-rule="nonzero"></path>
                <path d="M19.6606108,18.8728137 C19.709495,18.7265098 19.7178045,18.5696715 19.6846537,18.4190133 C19.6228629,18.2719559 19.5247699,18.1430156 19.3995736,18.0442841 L18.3691633,17.0782393 C18.5855495,19.1409685 17.3834042,20.5642516 15.4874494,21.0936854 C13.5228006,21.6437465 11.4791537,22.269441 10.0640569,23.6927242 C8.87908519,24.8684798 6.98404668,25.9322147 6.64057661,27.5342677 C6.46298692,28.4257732 5.18890518,33.0842683 5.12943761,37.0771954 C5.03938676,43.1236256 6.23257022,49.1165253 6.34427604,49.8515677 C6.50570698,50.9104354 7.31768873,52.0037098 8.14888631,49.899726 C8.80491415,48.2495427 8.39479239,47.9297917 8.32266367,46.2761705 C8.22649205,44.1481216 8.19214504,42.0166348 8.25396966,39.8885859 C8.38448828,35.546541 8.27114316,29.5027446 11.7676685,26.2986387 C11.4766744,27.3442956 11.3265098,28.4241692 11.3211574,29.5096204 C11.3005492,31.0154127 11.3864167,32.5452701 11.510066,34.0682518 C11.5155042,34.2793312 11.583664,34.4840001 11.7058439,34.6561296 C11.8698887,34.8480156 12.1132695,34.9533245 12.3653064,34.9414738 C12.8639475,34.9394927 13.3528206,34.802909 13.7804032,34.5461174 C14.2131754,34.2917141 14.4948209,33.7107121 14.8108134,33.3153557 C15.5283262,32.4491721 16.2001528,31.546071 16.823548,30.6097426 C17.9089134,28.9629972 21.2096609,24.4215551 18.8500215,22.6682353 C18.555991,22.4713671 18.325638,22.1930149 18.1871242,21.8672089 C17.8436541,20.8908504 19.337749,20.0932618 19.6606108,18.8728137 Z" id="Path" fill="#FFFFFF" fill-rule="nonzero"></path>
            </g>
            <g id="Group-24-Copy" transform="translate(248.085779, 30.643081) rotate(3.000000) translate(-248.085779, -30.643081) translate(229.085779, 3.143081)" fill-rule="nonzero">
                <path d="M0.125352231,44.4438769 C0.169514456,42.4696221 -0.120878495,40.6578255 0.373738416,38.749673 C0.988519131,36.4063424 1.17846138,33.9721996 0.934598664,31.5621519 C0.731452433,29.5482358 -0.306359837,27.3007583 1.28348024,25.5644717 C3.30169388,23.3610624 5.02402063,20.5054439 8.49517145,20.0559484 C9.82003818,19.8840825 9.98722172,19.0208933 11.2855911,18.7344501 L11.9347758,18.3686842 C12.712031,17.6151182 13.9397408,18.3686842 14.6904986,17.5313887 C15.1321208,16.6896863 16.2395149,15.9543418 15.5196707,15.099419 C14.8837347,14.3502598 14.0137388,13.4821165 14.4111989,12.2438005 C14.4111989,10.7807367 13.4572948,9.45869114 13.7840953,7.94715236 C12.8273778,6.528447 13.038418,4.62753836 14.2831284,3.45219736 C16.0761147,0.711156181 22.9355971,-0.822587331 24.997973,1.5042129 C26.9181794,3.56296993 28.3158552,7.47518782 27.7477458,10.2299313 C27.5225184,11.4021451 26.1623219,11.9926588 26.5112035,13.3147044 C26.2727275,13.9536931 26.2727275,14.7909886 25.270245,14.7953954 L25.1819205,14.8879386 C24.8816174,16.0072705 25.1377583,17.1310093 25.1377583,18.2503412 C27.3097244,19.7437509 29.5689563,20.5217042 31.9502789,21.6535467 C34.3836174,22.8169468 36.9096967,24.1169583 37.3071567,27.038679 C37.8591845,31.097359 37.668292,36.6432607 37.8802706,40.7724497 L36.4500761,53.7957986 C36.6046439,56.8805716 0.0767737846,46.5283021 0.125352231,44.4438769 Z" id="Path" fill="#000000"></path>
                <path d="M10.1606776,29.1402308 C9.98566946,27.4601315 9.84677412,25.7742882 9.74399158,24.082701 C9.70232298,23.3115785 9.86066366,22.2862871 10.5981979,22.1958203 C11.115233,28.7384845 12.1854335,35.2190318 13.7951897,41.5634367 L12.2351331,41.5634367 C11.31262,37.4811798 10.6023615,33.3429262 10.1606776,29.1402308 Z M12.4274494,25.6766414 C12.2955431,24.2175351 12.2635175,22.7506168 12.3316116,21.2868435 C13.6691736,20.5803401 15.710935,19.5033534 16.660979,20.2400123 C16.7984854,23.8759196 17.7235283,27.494595 17.8485341,31.1692738 C17.8409518,31.9197847 17.9178614,32.6686589 18.0777114,33.4007904 C18.1639481,33.7153795 18.271154,34.0234166 18.3985596,34.322691 C18.4641947,36.7429379 18.6658024,39.1534898 18.7378562,41.5634367 C17.7688495,41.8830019 17.1005496,42.0427845 16.7329567,42.0427845 C16.2505394,42.0427845 15.643824,41.8830019 14.9128103,41.5634367 C13.8522142,36.308476 13.1345909,31.0128775 12.4274494,25.6766414 Z" id="Shape" fill="#D8D8D8"></path>
                <path d="M17.1026168,46.2905538 C17.0666957,45.6123984 21.6968066,43.0934699 21.7155046,42.4673276 C21.7140358,42.3571463 21.7518544,42.249292 21.8234984,42.159342 C22.029906,41.9471494 22.4149325,42.1144608 22.6700315,42.2859692 C24.7519142,43.7145682 27.0235949,44.908714 29.4339124,45.8415128 C29.7545074,45.9698344 30.1210115,46.1185826 30.3606303,46.3481971 C27.585747,46.6542869 25.5047003,46.808396 24.1174903,46.8105244 C23.6694387,46.8112101 21.3311475,46.6378866 17.1026168,46.2905538 Z" id="Path" fill="#D8D8D8" transform="translate(23.731520, 44.435136) scale(1, -1) rotate(-56.000000) translate(-23.731520, -44.435136) "></path>
                <path d="M8.56157241,42.7738569 L7.84132563,42.7738569 C7.07027761,37.4408269 6.83141031,32.0269516 6.81389835,26.6262837 C6.79351359,25.8714148 6.92774289,25.120825 7.20735581,24.4261296 L7.20735581,24.5636393 C7.20735581,30.6265638 7.52605635,36.710323 8.54511117,42.6774075 C8.55057744,42.7095606 8.55606452,42.7417104 8.56157241,42.7738569 L8.56157241,42.7738569 Z M13.4041347,42.7738569 L12.4869712,42.7738569 C11.3859226,38.1326574 10.5779276,33.4181021 10.0690048,28.6609759 C9.90118229,27.0236423 9.76798982,25.380711 9.6694274,23.732182 C9.62147811,23.1486195 9.70938513,22.4097202 10.0690048,22.0738569 C10.1609076,23.5726469 10.2807808,25.0714369 10.4326202,26.5618303 C10.9998371,32.0707352 12.0339303,37.4686547 13.4041347,42.7738569 L13.4041347,42.7738569 Z M5.1921817,42.7738569 L4.67865927,42.7738569 C4.66569806,42.5304882 4.65292959,42.2871562 4.64033625,42.0438676 C4.35672501,36.9284305 4.15977276,31.7462339 5.08150929,26.7184185 C5.08150929,26.660004 5.08150929,26.6015895 5.11302165,26.5431751 L5.11302165,27.2358036 C4.64033625,31.4458167 4.793959,35.7225893 5.03424075,39.9576371 C5.08413317,40.8959676 5.13643686,41.8348266 5.1921817,42.7738569 L5.1921817,42.7738569 Z" id="Shape" fill="#FFFFFF"></path>
                <path d="M15.4105706,24.3418293 C16.486129,30.6527473 17.2304144,34.3136355 16.9479835,40.6879317 C16.7316514,44.9784318 16.5874301,41.9339627 16.1643806,41.1323494 C16.0640285,40.9763407 15.9741424,40.8154756 15.8951674,40.6505507 C15.8951674,40.6131698 15.8951674,40.5799423 15.8615157,40.5425614 C14.3904575,34.9063477 13.1126431,31.946772 12.2088557,26.2108758 C12.0566732,24.8041023 12.0197246,23.389797 12.098286,21.9785238 L12.5453723,21.7791588 C12.5405649,22.551698 15.2903861,23.5609832 15.4105706,24.3418293 Z" id="Path" fill="#FFFFFF"></path>
                <path d="M25.454772,10.5898945 C25.5209737,10.2192782 25.5747625,9.91925553 25.5830378,9.83983776 C25.6527526,8.98898705 25.6374958,8.13264596 25.5375241,7.28523287 C25.3720199,5.9616034 24.9044705,4.58502874 23.7376659,3.98939548 C23.585833,3.91236437 23.4095367,3.91236437 23.2577038,3.98939548 C22.1198624,2.22455618 18.6700988,2.98014173 17.2840012,4.40524947 C16.8154067,4.82167912 16.5466292,5.4402352 16.5516451,6.090671 C16.4719186,6.17136451 16.4170841,6.27599919 16.3944161,6.39069368 C16.3793608,6.46459016 16.3724182,6.54010335 16.3737281,6.61571069 C16.3737281,6.65983168 16.3489024,6.70836476 16.3737281,6.68630427 C16.3534555,6.73178313 16.3284744,6.77470039 16.2992512,6.81425512 C16.1201311,7.04792797 16.1380898,7.38879963 16.3406272,7.5996086 C16.4886072,7.74285193 16.7039262,7.7744005 16.8826535,7.67902637 C17.4081293,7.40547628 18.4301177,8.05405473 18.9100799,8.25259915 C19.8974915,8.6486517 21.3883866,8.13860634 22.4425956,8.18088882 C22.6419352,8.17690744 22.8400932,8.21437269 23.0259979,8.29119127 C23.5266481,8.55591717 23.5597489,9.31479807 23.6590515,9.92807973 C23.8254247,10.930083 24.3544487,11.8222167 25.1320388,12.412091 C25.1320388,12.412091 25.3140934,11.3487754 25.454772,10.5898945 Z" id="Path" fill="#FFFFFF"></path>
                <path d="M16.8477015,12.1576508 C16.6980423,11.906511 17.0098322,11.386293 17.1220765,11.1037608 C17.1719629,10.9781909 17.2904431,10.4265804 17.5648181,10.3593108 C17.7269488,10.3189491 17.7020057,11.0275219 17.6957699,11.0768529 C17.7285843,11.256491 17.6941416,11.4391726 17.5959971,11.6060402 C17.4154674,11.8324758 17.1580027,12.0222674 16.8477015,12.1576508 L16.8477015,12.1576508 Z" id="Path" fill="#C4C3C6"></path>
                <path d="M33.5343365,41.3489498 L32.4163681,41.3489498 C32.4215292,36.942785 32.7050083,30.8770589 29.3114974,27.5385703 C29.570337,28.6101939 29.687115,29.7117557 29.6587722,30.8143981 C29.6298326,32.3458997 29.4934033,33.9024395 29.3239001,35.4422872 C29.3107804,35.6566943 29.2360785,35.8626028 29.1089205,36.0348573 C28.9359731,36.2248949 28.685663,36.3234937 28.4309078,36.3019312 C27.9277887,36.2841859 27.4389732,36.1283742 27.0170034,35.851244 C26.6035811,35.5758241 26.3265881,34.974908 26.0123871,34.5617781 C25.3165501,33.6605204 24.6679664,32.7230863 24.0693021,31.7533296 C23.0274778,30.0382147 19.84826,25.3101729 22.2791834,23.6117501 C22.594389,23.4268944 22.8488445,23.1526373 23.0109409,22.8230476 C23.3912895,21.8423858 21.902969,20.9827418 21.6177076,19.7350062 C21.5744092,19.5836968 21.5744092,19.4231093 21.6177076,19.2717999 C21.6816744,19.1230123 21.7845779,18.9946183 21.9153717,18.9004004 L23.0026725,17.9489498 C22.7215453,20.0354643 23.8873963,21.5252356 25.7808706,22.1219787 C27.7404925,22.7437601 29.7827989,23.4448289 31.1553611,24.9387733 C32.2922725,26.1698168 32.8545269,27.8181633 33.1232514,29.4539906 C33.4994658,31.7491566 33.3630364,34.0777067 33.2968888,36.3853918 C33.2483506,38.0787404 33.3890261,39.7046809 33.5343365,41.3489498 L33.5343365,41.3489498 Z" id="Path" fill="#FFFFFF"></path>
            </g>
            <g id="Group-37" transform="translate(178.669689, 121.673298) scale(-1, 1) rotate(-1.000000) translate(-178.669689, -121.673298) translate(21.169689, 34.673298)">
                <path d="M137.645341,10.8685952 L142.973837,15.0122214 L165.592768,59.9638225 L170.502746,62.2998692 L209.338216,54.876511 L303.527665,99.277106 L301.2623,100.137701 L314.095484,107.303578 C314.072678,129.379332 313.955633,144.679619 313.74435,153.204441 C230.282165,173.802425 143.416408,181.151509 75.0215063,163.88978 C33.3241984,153.366077 11.8151473,137.45139 3.84924488,115.840335 C-1.25109454,102.003394 1.5296354,83.2370316 0.4447914,72.613218 C-2.17808127,46.8941208 30.1926988,18.5830435 136.87105,0.270914581 C136.839693,4.32602048 137.09779,7.85858069 137.645341,10.8685952 Z" id="Path-Copy-13" fill="#000000"></path>
                <g id="Group-39" transform="translate(51.810332, 23.907499)">
                    <path d="M2.34759855,60.0229007 L3.42545378,60.1365013 C5.41431328,64.5480533 8.7306126,69.0824781 12.7365927,72.8652316 L12.7971923,72.9221239 L12.7006976,72.8403449 C7.97935283,68.8160122 4.50482892,64.5180275 2.34759855,60.0229007 Z M1.06538942,45.0269382 L2.52333063,46.0494161 C1.3016807,49.3578745 1.08624915,52.7614063 2.01581954,56.240541 C2.10283644,56.5659542 2.19870966,56.8936081 2.30315497,57.2231128 L1.14080097,57.1005392 C0.931654216,56.4979116 0.745613137,55.8921502 0.582838667,55.2834298 C-0.350175696,51.7914052 -0.144083817,48.3649219 1.06538942,45.0269382 Z M15.4836678,28.7311226 L16.7172631,30.1505392 C10.969602,34.1304369 6.64423398,38.3465145 4.08879011,42.7500016 L2.60760167,41.7134944 C5.18643691,37.1818071 9.59817691,32.8340991 15.4836678,28.7311226 Z M36.8804631,17.3524217 L37.8259224,18.9906415 C30.9963666,21.8584079 24.9055838,24.921853 19.7515085,28.1532076 L18.5088039,26.7247951 C23.7419196,23.4169887 29.9324651,20.2815886 36.8804631,17.3524217 Z M62.340907,8.46567426 L62.6657176,10.308261 C54.9981476,12.5549927 47.785811,14.9989079 41.1899186,17.6173897 L40.2421445,15.9746358 C47.0185004,13.273875 54.4407168,10.7614216 62.340907,8.46567426 Z M89.5034265,1.8 L89.9128484,3.53359221 C81.6829484,5.25688719 73.711472,7.18951515 66.1455216,9.31083849 L65.8220107,7.47664471 C73.3626994,5.38214313 81.3027466,3.48210623 89.5034265,1.8 Z" id="Combined-Shape" fill="#C4C3C6"></path>
                    <path d="M9.33360553,64.8134495 L10.3543889,64.9216179 C12.3119348,68.9820533 15.3781711,73.1044504 19.0366753,76.5771348 L19.0954571,76.6326089 L19.0018622,76.5528685 C14.6872521,72.8558141 11.4454414,68.9218769 9.33360553,64.8134495 Z M7.39141707,50.0905979 L8.80676924,51.0666745 C7.87854529,54.084699 7.78751977,57.189081 8.63356276,60.3667055 C8.79086972,60.9570445 8.97789937,61.5549456 9.19287574,62.1579611 L8.0905881,62.0411073 C7.75956932,61.1785369 7.47713864,60.3091385 7.24379738,59.4334591 C6.39608832,56.2495771 6.47767078,53.1299986 7.39141707,50.0905979 Z M21.0337625,33.6801843 L22.2694988,35.0377572 C16.5328365,39.114034 12.3363807,43.4536798 10.0449859,48.0087817 L8.60860194,47.0180531 C10.9109085,42.3413705 15.177385,37.8750244 21.0337625,33.6801843 Z M41.3091124,22.6824208 L42.2092242,24.2880016 C35.6486146,27.0827797 29.8347116,30.0698459 24.9471672,33.2256083 L23.7014612,31.8590289 C28.6778364,28.6159108 34.6081613,25.5470542 41.3091124,22.6824208 Z M65.2379939,14.2261155 L65.5524716,16.0241803 C58.2329083,18.1946097 51.3837539,20.5493849 45.1452184,23.0700936 L44.2421215,21.4614205 C50.6506718,18.8627933 57.6978643,16.4430871 65.2379939,14.2261155 Z M91.6632123,7.68859032 L92.0611592,9.37899726 C83.9631698,11.0849291 76.1684568,12.9907138 68.8117626,15.0786571 L68.4979373,13.2888309 C75.8313093,11.2271191 83.5953861,9.35345585 91.6632123,7.68859032 Z" id="Combined-Shape" fill="#C4C3C6"></path>
                    <path d="M14.4052707,66.5526752 L15.4887126,66.6678315 C17.2542614,71.4685802 20.7706304,76.5715067 25.1398904,80.7346278 L25.1980751,80.7897474 L25.1054335,80.710517 C19.9724972,76.2954203 16.3730207,71.5402607 14.4052707,66.5526752 Z M14.0942865,53.0004442 L15.5083421,53.9653634 C14.2088843,57.2426395 13.8982479,60.6267945 14.7090387,64.1003381 L13.5401316,63.9766597 C13.5145528,63.8846242 13.4895186,63.792518 13.4650295,63.7003417 C12.4933782,60.0400687 12.7527482,56.4652916 14.0942865,53.0004442 Z M27.1606416,38.0693281 L28.3874857,39.4159925 C23.1480786,43.1463521 19.2015525,47.098984 16.8303102,51.2366405 L15.3939358,50.2553746 C17.7809244,45.9950691 21.8003853,41.9170943 27.1606416,38.0693281 Z M46.2188303,27.5914413 L47.1011365,29.1892207 C40.9575673,31.8655954 35.4991331,34.715964 30.8817567,37.7197609 L29.6466139,36.363816 C34.3551388,33.271988 39.9324979,30.3391162 46.2188303,27.5914413 Z M68.2059558,19.5714232 L68.5185163,21.3642473 C61.8161957,23.4344881 55.5406293,25.6647486 49.8072211,28.0398076 L48.9218549,26.4394341 C54.8216189,23.9870766 61.2898086,21.6911481 68.2059558,19.5714232 Z M94.100047,12.8925675 L94.5493926,14.5721886 C86.5264045,16.3324694 78.8260066,18.2933702 71.5857535,20.436748 L71.2716123,18.6519318 C78.4741826,16.5378844 86.1265772,14.6110517 94.100047,12.8925675 Z" id="Combined-Shape" fill="#C4C3C6"></path>
                    <path d="M28.3853481,73.5730156 L29.3568065,73.6600134 C31.0495305,77.8704679 34.1659339,82.2825904 37.992924,85.9142685 L38.046451,85.9647707 L37.961229,85.8921767 C33.4645798,82.0398364 30.2465935,77.9050591 28.3853481,73.5730156 Z M27.2365805,62.302313 L28.5341719,63.1460267 C27.8176895,65.7500878 27.7858732,68.4237826 28.5153777,71.1570435 L28.582602,71.3988114 L27.5410615,71.3057613 C27.4362705,70.974008 27.3392771,70.641216 27.2501148,70.307422 C26.5230514,67.5833071 26.5429959,64.9109396 27.2365805,62.302313 Z M37.8247604,48.3286532 L38.9677578,49.5399408 C34.5182631,52.9982728 31.2832968,56.6535743 29.5188514,60.4722241 L28.197527,59.6132548 C29.9663434,55.6770977 33.2640055,51.9010827 37.8247604,48.3286532 Z M54.236765,38.6320691 L55.0586996,40.0868558 C49.7711537,42.5419406 45.1118268,45.146135 41.2147885,47.8818309 L40.0642931,46.6619392 C44.0448741,43.841763 48.815079,41.1576121 54.236765,38.6320691 Z M73.176792,31.2708719 L73.4922261,32.9145665 C67.7504567,34.8057808 62.3955555,36.8296344 57.5220259,38.9737157 L56.697467,37.5163174 C61.7185413,35.2994752 67.2446233,33.2122698 73.176792,31.2708719 Z M99.6007386,24.1519838 L100.014605,25.6975089 C91.5920091,27.5842457 83.5748306,29.7120422 76.1550999,32.0556779 L75.841769,30.4170413 C83.2368899,28.097443 91.2167537,25.9992483 99.6007386,24.1519838 Z" id="Combined-Shape" fill="#C4C3C6"></path>
                    <path d="M43.9884301,82.4317611 C45.6093357,85.3151792 47.85529,88.1722306 50.459673,90.6367509 L50.5088172,90.6829875 L50.4305734,90.6165246 C47.3935709,88.0219799 44.9918472,85.2875422 43.2539389,82.4442526 L43.9884301,82.4317611 Z M40.1130376,72.0791115 L41.2934315,72.6617136 C41.2045216,74.1286992 41.3542683,75.617539 41.7580954,77.1262138 C42.0554699,78.2362784 42.4792758,79.3784373 43.0124537,80.5292617 L42.1987559,80.542492 C41.5116895,79.1664462 40.9765563,77.7672773 40.5964371,76.3483363 C40.211106,74.9087618 40.0542913,73.4849831 40.1130376,72.0791115 Z M47.7971566,58.3351367 L48.9564968,59.3310436 C45.1090028,62.7816836 42.582076,66.4297408 41.6597766,70.2380278 L40.4342915,69.6331596 C41.3053768,65.6961184 43.8590265,61.913919 47.7971566,58.3351367 Z M61.9104938,49.0319746 L62.8405587,50.2703203 C58.1335608,52.6442749 54.065951,55.1584895 50.7713435,57.7954721 L49.5988868,56.7895373 C52.9477542,54.0705391 57.0974689,51.477214 61.9104938,49.0319746 Z M78.5091742,42.0543871 L78.953571,43.5132731 C73.917646,45.2928394 69.2535627,47.1888991 65.0459444,49.1903737 L64.1114879,47.9460863 C68.4567824,45.8633055 73.2859563,43.8945259 78.5091742,42.0543871 Z M104.758444,34.6028278 L105.139418,36.0255407 C96.6231554,37.9938041 88.5885596,40.2322055 81.2780855,42.709004 L80.8352059,41.2521721 C88.1682843,38.7761471 96.2203744,36.5470407 104.758444,34.6028278 Z" id="Combined-Shape" fill="#C4C3C6"></path>
                    <path d="M21.8179635,71.3342181 L22.8150616,71.441417 C24.661345,75.484558 27.7096052,79.6315262 31.3859175,83.0964646 L31.4420666,83.1490794 L31.3526511,83.0734496 C27.0179578,79.3859626 23.8185611,75.4499445 21.8179635,71.3342181 Z M20.0898168,58.665925 L21.4389079,59.5876148 C20.7360858,62.2335936 20.7176609,64.9480495 21.4580729,67.7212882 C21.5676695,68.1314476 21.6925166,68.545455 21.8319478,68.9623979 L20.7631726,68.8470848 C20.5213271,68.1808907 20.3101843,67.5104906 20.1300003,66.8361622 C19.3880668,64.0572243 19.3988114,61.3298999 20.0898168,58.665925 Z M31.6774213,43.6441579 L32.8484982,44.9292704 C27.9464664,48.6388026 24.3972817,52.5678078 22.4970297,56.6777269 L21.1294402,55.7423902 C23.041308,51.5164762 26.659106,47.4672337 31.6774213,43.6441579 Z M49.7816523,33.2805023 L50.6241478,34.8061351 C44.7626869,37.4344424 39.5992078,40.2308746 35.2905481,43.1750066 L34.1125039,41.8816995 C38.5075939,38.8536251 43.7841704,35.9778848 49.7816523,33.2805023 Z M70.4692109,25.5302339 L70.7643097,27.2489963 C64.4986014,29.2351388 58.6470733,31.3672726 53.3160811,33.6315471 L52.472463,32.1027308 C57.962697,29.7633069 63.9986746,27.5664684 70.4692109,25.5302339 Z M97.0856897,18.5670152 L97.5170151,20.1744346 C89.1295835,22.0172493 81.1162236,24.0846059 73.6468778,26.354373 L73.3516949,24.6423736 C80.7849453,22.4013257 88.7493201,20.36761 97.0856897,18.5670152 Z" id="Combined-Shape" fill="#C4C3C6"></path>
                    <path d="M35.1133018,78.0099293 L36.0045345,78.0587806 C36.9493918,80.1034089 38.2230021,82.1741896 39.7391288,84.1527204 C40.9679901,85.7563728 38.9779898,82.8649595 40.479576,84.2843575 C40.6049878,85.2986777 40.2339104,85.3053656 39.3663436,84.3044213 C37.601042,82.2677268 36.1798072,80.1656997 35.1133018,78.0099293 Z M33.2294198,66.9632644 L34.4914767,67.7105828 C34.0272094,69.9209808 34.0774214,72.1817033 34.6917875,74.4862565 C34.8211955,74.9712801 34.9735646,75.4621156 35.1476124,75.9570026 L34.1916483,75.9056181 C33.9086998,75.1649638 33.6667459,74.4185864 33.4661995,73.6669349 C32.859875,71.3925465 32.7963373,69.1554864 33.2294198,66.9632644 Z M42.5924345,53.4022309 L43.7362926,54.5328011 C39.6207078,57.9082948 36.7087968,61.4713377 35.2501192,65.1893056 L33.9589512,64.4220387 C35.4064409,60.5832389 38.3711162,56.8958419 42.5924345,53.4022309 Z M58.0942176,43.8655028 L58.9255728,45.2486338 C53.8590819,47.6758051 49.4301503,50.2484437 45.7736286,52.9489209 L44.6219304,51.8089959 C48.357144,49.0215785 52.894387,46.3661863 58.0942176,43.8655028 Z M75.8258843,36.7540957 L76.18548,38.324916 C70.7694902,40.1647771 65.7328562,42.1284192 61.1645193,44.2042152 L60.3329213,42.8169828 C65.0373652,40.6704107 70.2326962,38.6444038 75.8258843,36.7540957 Z M101.993893,29.5203773 L102.39444,31.0167249 C93.9824946,32.9378804 86.0065862,35.1069575 78.6741666,37.4968366 L78.317291,35.929537 C85.6423536,33.555361 93.6000869,31.408314 101.993893,29.5203773 Z" id="Combined-Shape" fill="#C4C3C6"></path>
                    <polyline id="Line" stroke="#FFFFFF" stroke-width="1.35" stroke-linecap="square" transform="translate(99.794839, 20.532674) rotate(-2.000000) translate(-99.794839, -20.532674) " points="89.9589387 0.650729432 89.7151752 4.25027871 91.8032217 6.64391066 91.6379509 8.89578954 94.1513501 11.7701952 93.9865588 14.0142348 96.9091526 17.3762945 96.7522006 19.6208136 99.6438835 23.4239378 99.4869314 25.6684569 101.543108 28.518832 101.354766 31.2122549 103.859846 34.0940203 103.734284 35.8896356 109.874504 40.4146183"></polyline>
                </g>
                <g id="Group-39-Copy" transform="translate(11.326177, 1.841929)">
                    <path d="M41.9398043,81.2003294 L43.0205118,81.3143968 C45.0269766,85.7149465 48.3394186,90.229186 52.3333163,94.0006876 L52.3942779,94.0579221 L52.2972068,93.9756512 C47.5894149,89.9627033 44.1139341,85.6792767 41.9398043,81.2003294 Z M40.5481631,66.1182686 L42.013752,67.147508 C40.8248889,70.436906 40.6249772,73.819353 41.5484958,77.2759816 C41.6458629,77.6401163 41.7542526,78.0070398 41.8732715,78.3762126 L40.7075818,78.2536824 C40.4811093,77.6103227 40.2808355,76.9633958 40.1069541,76.3131123 C39.1798544,72.8430802 39.3707851,69.4373794 40.5481631,66.1182686 Z M55.0042889,49.6656661 L56.2439109,51.0941213 C50.4627938,55.1107025 46.1216421,59.3658248 43.5728327,63.8100498 L42.0845668,62.7662573 C44.6568188,58.1933516 49.0847093,53.8059659 55.0042889,49.6656661 Z M76.5244239,38.1948384 L77.4745552,39.8431615 C70.601961,42.7339692 64.4755211,45.822034 59.2951636,49.0793059 L58.0479853,47.6409179 C63.30745,44.3071775 69.5335629,41.1470998 76.5244239,38.1948384 Z M102.133408,29.2429417 L102.458355,31.0973862 C94.7449992,33.3605735 87.4907939,35.8222376 80.8581682,38.4595896 L79.906035,36.8065874 C86.7203297,34.0863271 94.1858406,31.5555735 102.133408,29.2429417 Z M129.558766,22.5079221 L129.970633,24.2519438 C121.654672,25.9933321 113.601001,27.9471939 105.959587,30.0924886 L105.633834,28.2470803 C113.24997,26.1287657 121.272095,24.2077375 129.558766,22.5079221 Z" id="Combined-Shape" fill="#FFFFFF"></path>
                    <path d="M4.63186631,77.6495152 L6.03558576,77.7973086 C8.60189311,83.5883572 12.9441345,89.5577959 18.2034308,94.5271281 L18.2819834,94.600921 L18.1569016,94.4948484 C11.9598031,89.2093288 7.41984352,83.5598733 4.63186631,77.6495152 Z M3.16952583,58.1612199 L5.062959,59.4828558 C3.39287521,63.8565227 3.07703548,68.3591239 4.30657255,72.9638279 C4.40122228,73.3180063 4.50395542,73.6742312 4.61455428,74.0322037 L3.10177107,73.8738008 C2.85920035,73.1599746 2.64157837,72.4427812 2.44906359,71.7223926 C1.21561792,67.1030507 1.51798087,62.5721303 3.16952583,58.1612199 Z M21.9920956,37.123944 L23.595259,38.9632633 C16.1292425,44.1035943 10.4911722,49.5490766 7.12761284,55.2370206 L5.20331703,53.8955203 C8.59712705,48.040693 14.3472326,42.4241276 21.9920956,37.123944 Z M49.7777124,22.4065029 L51.0066531,24.5304291 C42.1443165,28.2402479 34.234599,32.203641 27.5331445,36.3847207 L25.9186793,34.5330263 C32.7225562,30.2526737 40.7616741,26.1959248 49.7777124,22.4065029 Z M82.8376288,10.8996762 L83.26062,13.2882466 C73.3063554,16.1971779 63.940054,19.3622954 55.3708034,22.754247 L54.1384529,20.6245508 C62.9421682,17.1258874 72.5811517,13.8719757 82.8376288,10.8996762 Z M117.712841,2.35092105 L118.243556,4.59950239 C107.698208,6.80901824 97.4801811,9.28384247 87.7736539,11.9981199 L87.3534589,9.62017465 C97.02735,6.94048909 107.205039,4.50760528 117.712841,2.35092105 Z" id="Combined-Shape-Copy" fill="#C4C3C6" transform="translate(59.968556, 48.475921) rotate(2.000000) translate(-59.968556, -48.475921) "></path>
                    <path d="M48.8489694,85.7845101 L49.8775154,85.8937705 C51.8468234,89.9852757 54.9389155,94.1412182 58.6300915,97.6407519 L58.6892472,97.6965124 L58.595057,97.6163604 C54.2418602,93.8906742 50.9738365,89.9256577 48.8489694,85.7845101 Z M46.9219135,70.9806059 L48.3456282,71.9646056 C47.401703,75.008886 47.3062236,78.1406687 48.1608247,81.3466227 C48.3156885,81.9271025 48.4991769,82.5148563 48.7096167,83.107581 L47.5989116,82.9892683 C47.2724569,82.1355 46.9933998,81.2750882 46.7622217,80.4085576 C45.9056916,77.1953675 45.9918986,74.0473338 46.9219135,70.9806059 Z M60.6832651,54.4912951 L61.9248753,55.8575315 C56.1465983,59.9519826 51.916229,64.3110697 49.6005099,68.8866892 L48.1555943,67.888797 C50.4828864,63.1910648 54.784175,58.7047604 60.6832651,54.4912951 Z M81.086083,43.4498678 L81.9905814,45.0643703 C75.39269,47.8695913 69.544175,50.8677022 64.6252145,54.0350701 L63.374423,52.6593081 C68.3825626,49.4046688 74.347716,46.324854 81.086083,43.4498678 Z M105.12685,34.967311 L105.440981,36.7753506 C98.0920017,38.951934 91.2142317,41.3129553 84.9477925,43.8400354 L84.0416173,42.2219159 C90.4791575,39.6167133 97.5561099,37.1905876 105.12685,34.967311 Z M131.718467,28.3965124 L132.118944,30.0956475 C123.969916,31.8102916 116.126058,33.725798 108.722947,35.824384 L108.40843,34.0249534 C115.787686,31.9528783 123.600271,30.0697816 131.718467,28.3965124 Z" id="Combined-Shape" fill="#FFFFFF"></path>
                    <path d="M54.3597169,88.4957383 L55.4441781,88.6122868 C57.2116544,93.5004159 60.7323114,98.6963409 65.1069772,102.935276 L65.1652297,102.991395 L65.0724803,102.910728 C59.9334422,98.4154463 56.3297251,93.5739174 54.3597169,88.4957383 Z M54.0482444,74.6988161 L55.4642828,75.680354 C54.1631731,79.0173384 53.8521964,82.4631582 54.6641455,86.0000017 L53.4936804,85.8732455 C53.4680847,85.7795861 53.4430338,85.6858547 53.4185281,85.5920521 C52.4458117,81.8656481 52.7053825,78.2262788 54.0482444,74.6988161 Z M67.1300804,59.4961889 L68.3573436,60.8680071 C63.112171,64.6659297 59.16132,68.690139 56.7874952,72.9027152 L55.3492557,71.9040131 C57.7389706,67.5661635 61.7632682,63.4139705 67.1300804,59.4961889 Z M86.2103991,48.8282959 L87.0938914,50.4549823 C80.9431231,53.1799123 75.4782955,56.0819942 70.8555158,59.140289 L69.6189296,57.7597563 C74.3329253,54.6118588 79.9167638,51.6257998 86.2103991,48.8282959 Z M108.223234,40.6627813 L108.536488,42.4880166 C101.826088,44.5958795 95.54297,46.8666773 89.8026858,49.2849108 L88.9181638,47.6547207 C94.8243983,45.1581237 101.299614,42.8207678 108.223234,40.6627813 Z M134.221908,33.8464939 L134.671469,35.5563512 C126.612113,37.3528813 118.877312,39.3550023 111.606073,41.5440691 L111.293914,39.7261801 C118.526856,37.5672742 126.21288,35.6001409 134.221908,33.8464939 Z" id="Combined-Shape" fill="#FFFFFF"></path>
                    <path d="M67.9853481,94.7230156 L68.9568065,94.8100134 C70.6495305,99.0204679 73.7659339,103.43259 77.592924,107.064268 L77.646451,107.114771 L77.561229,107.042177 C73.0645798,103.189836 69.8465935,99.0550591 67.9853481,94.7230156 Z M66.8365805,83.452313 L68.1341719,84.2960267 C67.4176895,86.9000878 67.3858732,89.5737826 68.1153777,92.3070435 L68.182602,92.5488114 L67.1410615,92.4557613 C67.0362705,92.124008 66.9392771,91.791216 66.8501148,91.457422 C66.1230514,88.7333071 66.1429959,86.0609396 66.8365805,83.452313 Z M77.4247604,69.4786532 L78.5677578,70.6899408 C74.1182631,74.1482728 70.8832968,77.8035743 69.1188514,81.6222241 L67.797527,80.7632548 C69.5663434,76.8270977 72.8640055,73.0510827 77.4247604,69.4786532 Z M93.836765,59.7820691 L94.6586996,61.2368558 C89.3711537,63.6919406 84.7118268,66.296135 80.8147885,69.0318309 L79.6642931,67.8119392 C83.6448741,64.991763 88.415079,62.3076121 93.836765,59.7820691 Z M112.776792,52.4208719 L113.092226,54.0645665 C107.350457,55.9557808 101.995556,57.9796344 97.1220259,60.1237157 L96.297467,58.6663174 C101.318541,56.4494752 106.844623,54.3622698 112.776792,52.4208719 Z M139.200739,45.3019838 L139.614605,46.8475089 C131.192009,48.7342457 123.174831,50.8620422 115.7551,53.2056779 L115.441769,51.5670413 C122.83689,49.247443 130.816754,47.1492483 139.200739,45.3019838 Z" id="Combined-Shape" fill="#FFFFFF"></path>
                    <path d="M84.0462152,103.139683 C85.6671208,106.023101 87.9130751,108.880153 90.5174581,111.344673 L90.5666022,111.39091 L90.4883584,111.324447 C87.4513559,108.729902 85.0496323,105.995464 83.3117239,103.152175 L84.0462152,103.139683 Z M80.1708227,92.7870336 L81.3512166,93.3696357 C81.2623067,94.8366213 81.4120533,96.3254611 81.8158805,97.8341359 C82.113255,98.9442006 82.5370608,100.086359 83.0702387,101.237184 L82.256541,101.250414 C81.5694745,99.8743683 81.0343413,98.4751994 80.6542222,97.0562584 C80.2688911,95.6166839 80.1120763,94.1929052 80.1708227,92.7870336 Z M87.8549416,79.0430588 L89.0142818,80.0389657 C85.1667879,83.4896057 82.6398611,87.1376629 81.7175617,90.9459499 L80.4920766,90.3410817 C81.3631618,86.4040406 83.9168115,82.6218411 87.8549416,79.0430588 Z M101.968279,69.7398967 L102.898344,70.9782424 C98.1913459,73.3521971 94.123736,75.8664117 90.8291286,78.5033942 L89.6566719,77.4974594 C93.0055392,74.7784613 97.1552539,72.1851361 101.968279,69.7398967 Z M118.566959,62.7623092 L119.011356,64.2211953 C113.975431,66.0007616 109.311348,67.8968212 105.103729,69.8982958 L104.169273,68.6540084 C108.514567,66.5712276 113.343741,64.6024481 118.566959,62.7623092 Z M144.816229,55.3107499 L145.197203,56.7334628 C136.68094,58.7017263 128.646345,60.9401276 121.335871,63.4169261 L120.892991,61.9600943 C128.226069,59.4840692 136.278159,57.2549628 144.816229,55.3107499 Z" id="Combined-Shape" fill="#FFFFFF"></path>
                    <path d="M61.4179635,92.4842181 L62.4150616,92.591417 C64.261345,96.634558 67.3096052,100.781526 70.9859175,104.246465 L71.0420666,104.299079 L70.9526511,104.22345 C66.6179578,100.535963 63.4185611,96.5999445 61.4179635,92.4842181 Z M59.6898168,79.815925 L61.0389079,80.7376148 C60.3360858,83.3835936 60.3176609,86.0980495 61.0580729,88.8712882 C61.1676695,89.2814476 61.2925166,89.695455 61.4319478,90.1123979 L60.3631726,89.9970848 C60.1213271,89.3308907 59.9101843,88.6604906 59.7300003,87.9861622 C58.9880668,85.2072243 58.9988114,82.4798999 59.6898168,79.815925 Z M71.2774213,64.7941579 L72.4484982,66.0792704 C67.5464664,69.7888026 63.9972817,73.7178078 62.0970297,77.8277269 L60.7294402,76.8923902 C62.641308,72.6664762 66.259106,68.6172337 71.2774213,64.7941579 Z M89.3816523,54.4305023 L90.2241478,55.9561351 C84.3626869,58.5844424 79.1992078,61.3808746 74.8905481,64.3250066 L73.7125039,63.0316995 C78.1075939,60.0036251 83.3841704,57.1278848 89.3816523,54.4305023 Z M110.069211,46.6802339 L110.36431,48.3989963 C104.098601,50.3851388 98.2470733,52.5172726 92.9160811,54.7815471 L92.072463,53.2527308 C97.562697,50.9133069 103.598675,48.7164684 110.069211,46.6802339 Z M136.68569,39.7170152 L137.117015,41.3244346 C128.729583,43.1672493 120.716224,45.2346059 113.246878,47.504373 L112.951695,45.7923736 C120.384945,43.5513257 128.34932,41.51761 136.68569,39.7170152 Z" id="Combined-Shape" fill="#FFFFFF"></path>
                    <path d="M75.1715815,98.7188511 L76.062129,98.7662904 C77.7728021,102.468276 80.561229,106.256022 83.9155447,109.426741 L83.9673683,109.475445 L83.884845,109.405437 C79.9473714,106.045899 77.024322,102.463457 75.1715815,98.7188511 Z M73.2872049,87.6711865 L74.5492618,88.4185049 C74.0849945,90.6289029 74.1352065,92.8896254 74.7495725,95.1941786 C74.8789917,95.6792441 75.031376,96.1701226 75.2054426,96.6650529 L74.249287,96.6131572 C73.9664014,95.8726285 73.7244964,95.126379 73.5239845,94.374857 C72.9176601,92.1004687 72.8541224,89.8634085 73.2872049,87.6711865 Z M82.6502196,74.110153 L83.7940776,75.2407232 C79.6784928,78.6162169 76.7665819,82.1792598 75.3079042,85.8972277 L74.0167363,85.1299608 C75.4642259,81.291161 78.4289012,77.603764 82.6502196,74.110153 Z M98.1520026,64.5734249 L98.9833579,65.9565559 C93.9168669,68.3837273 89.4879353,70.9563658 85.8314137,73.6568431 L84.6797154,72.516918 C88.4149291,69.7295006 92.952172,67.0741084 98.1520026,64.5734249 Z M115.883669,57.4620178 L116.243265,59.0328381 C110.827275,60.8726992 105.790641,62.8363413 101.222304,64.9121374 L100.390706,63.5249049 C105.09515,61.3783328 110.290481,59.3523259 115.883669,57.4620178 Z M142.051678,50.2282994 L142.452225,51.724647 C134.04028,53.6458025 126.064371,55.8148796 118.731952,58.2047588 L118.375076,56.6374591 C125.700139,54.2632831 133.657872,52.1162361 142.051678,50.2282994 Z" id="Combined-Shape" fill="#FFFFFF"></path>
                </g>
                <g id="Group-38" transform="translate(133.701371, 88.820323) rotate(3.000000) translate(-133.701371, -88.820323) translate(103.201371, 62.320323)">
                    <path d="M59.9015662,1.8232866 L60.1425187,10.0733423 C27.8421282,17.5872772 5.94545876,28.3252567 4.17519777,41.610393 C5.67093941,43.5095433 7.52744093,47.346896 13.9492413,50.7248361 C12.8127914,52.565619 10.7140707,52.6389079 7.65307911,50.9447029 C2.84457341,46.8429586 1.52851029,45.5978143 0.545981241,40.8365795 C-3.78995009,19.8251017 23.0330479,10.2780955 59.9015662,1.8232866 Z" id="Path" fill="#C4C3C6"></path>
                    <path d="M58.6010559,-6.71333149e-05 L58.9495429,1.24514006 C24.0509638,9.18542042 -1.73848475,22.053134 2.37914223,37.1809835 C3.45166112,41.1180849 6.38533263,45.5151875 10.1655922,49.0096261 L10.2096277,49.0500966 L10.1395033,48.9919262 C5.51982214,45.1376942 2.54419865,40.9295302 1.3376149,36.5002912 C-2.82307306,21.2142389 23.1801512,7.94454474 58.6010559,-6.71333149e-05 Z" id="Combined-Shape" fill="#FFFFFF"></path>
                </g>
            </g>
            <g id="Group" transform="translate(65.750000, 88.650000)">
                <ellipse id="Oval" fill="#000000" cx="58.275" cy="30.375" rx="58.275" ry="30.375"></ellipse>
                <g id="Group-40" transform="translate(10.800000, 5.400000)">
                    <path d="M93.9593404,21.3325004 L94.0247772,21.3325004 L93.3108498,31.0255237 L93.2580165,31.0255237 C92.14381,41.8432977 71.5183803,48.8285554 46.485402,48.5722821 C22.185628,48.3235148 3.28111573,41.7365045 0.869370461,32.4982509 L0.762991543,32.4982509 L1.13686838e-13,22.3456006 C0.76395698,33.079492 21.5617135,41.8393234 46.4392376,42.0937954 C71.9924938,42.3551794 93.6919021,33.5438969 93.9952686,22.4132506 C94.0051186,22.050944 93.9929603,21.6906458 93.9593404,21.3325004 Z" id="Combined-Shape" fill="#C4C3C6"></path>
                    <path d="M45.9524805,39.7580463 C20.4692001,39.5002645 0.0500540378,30.3924006 0.345041203,19.4150629 C0.640028369,8.43772525 21.5374432,-0.252191752 47.0207235,0.00559006019 C72.5040039,0.263371873 92.92315,9.37123577 92.6281629,20.3485734 C92.3331757,31.3259111 71.4357609,40.0158281 45.9524805,39.7580463 Z" id="Oval-Copy-18" fill="#C4C3C6"></path>
                    <path d="M0.610229345,20.7734443 C0.974776035,31.5077688 21.4446323,40.0053109 46.330933,39.7532358 C71.2172338,39.5011606 91.0960431,30.5949241 90.7314964,19.8605996 C90.7062855,19.1182482 90.5849178,18.3865946 90.3725823,17.667793 C90.356907,28.2661618 70.6187558,37.0076009 45.9670935,37.2572994 C22.8018493,37.4919418 3.46331769,30.1453113 0.605181211,20.4703146 C0.605181211,20.5711915 0.605181211,20.6722367 0.610229345,20.7734443 Z" id="Path" fill="#FFFFFF"></path>
                    <path d="M7.71810348,6.77000184 C8.0288646,15.7152722 25.4785782,22.7965573 46.6931296,22.5864947 C67.907681,22.3764321 84.8535513,14.9545683 84.5427902,6.0092979 C84.5212989,5.39067176 84.4178379,4.78096043 84.2368306,4.18195903 C84.2234681,13.013933 67.3975031,20.2984657 46.3829713,20.5065477 C26.63555,20.702083 10.1502444,14.579891 7.71380015,6.5173937 C7.71380015,6.60145781 7.71380015,6.68566211 7.71810348,6.77000184 Z" id="Path-Copy-18" fill="#FFFFFF" transform="translate(46.130399, 13.386504) scale(-1, -1) translate(-46.130399, -13.386504) "></path>
                    <path d="M46.9179627,2.21267949 C65.8574343,2.21267949 81.7582493,7.9889012 86.0489903,15.7657892 C80.5616384,8.83014726 65.5978645,3.85189804 48.0152179,3.85189804 C25.8073123,3.85189804 7.83115931,11.7937785 7.86435649,21.5905845 C7.86924245,23.0324784 8.26397379,24.434191 9.00449315,25.7763159 C7.56159814,23.9517509 6.77401546,21.9917901 6.76705543,19.951366 C6.73390415,10.1545599 24.7100571,2.21267949 46.9179627,2.21267949 Z" id="Combined-Shape" fill="#000000"></path>
                    <path d="M64.515061,24.2142983 L34.3488381,26.3961938 C32.6553091,26.5186852 31.1514076,25.6813575 30.9897801,24.5259701 C30.9521219,24.256772 30.9909727,23.9845957 31.1042009,23.7243734 L37.6037146,8.78712911 C38.0896859,7.67026534 39.805292,7.02445649 41.4356374,7.34464107 C41.8154864,7.4192835 42.1699212,7.54341453 42.4794876,7.71025767 L66.1461968,20.4656065 C67.4748437,21.1816906 67.6906155,22.5039114 66.6281366,23.4188692 C66.1074362,23.8672724 65.3450269,24.1542676 64.515061,24.2142983 Z" id="Triangle-2" fill="#FFFFFF"></path>
                    <path d="M63.1898542,25.0128032 L34.8649739,27.1448128 C33.2748177,27.2645037 31.865184,26.4614533 31.716469,25.3511496 C31.6818193,25.0924558 31.7190018,24.8308109 31.8259766,24.5805696 L37.9665281,10.2162471 C38.4256596,9.14222092 40.0379073,8.51952253 41.5675929,8.825379 C41.9239894,8.89668148 42.2563986,9.01557889 42.5465751,9.17558059 L64.7309039,21.4078934 C65.9763301,22.0946144 66.1754388,23.3652058 65.1756255,24.2458388 C64.6856363,24.6774201 63.9691592,24.954145 63.1898542,25.0128032 Z" id="Triangle-2-Copy" fill="#000000"></path>
                    <path d="M43.0693227,12.3566849 C43.3858194,12.4251353 43.6810143,12.5392768 43.9387046,12.6928784 L63.3792839,24.279959 L34.9162839,26.224959 L39.8714089,13.6919183 C40.2791391,12.6608532 41.7108904,12.0630627 43.0693227,12.3566849 Z" id="Combined-Shape" fill="#FFFFFF"></path>
                </g>
            </g>
            <path d="M57.3128599,135.29506 C76.531401,137.25949 96.5495713,138.037537 117.367371,137.629202 C138.18517,137.220866 156.471053,135.691494 172.22502,133.041087 L158.736621,154.313031 L56.9249797,155.858913 L57.3128599,135.29506 Z" id="Rectangle" fill="#000000" transform="translate(114.575000, 144.450000) rotate(9.000000) translate(-114.575000, -144.450000) "></path>
            <path d="M163.897388,49.8911528 L170.197388,54.3911528 C97.4507463,68.4674483 66.7579567,93.2297056 68.5727141,112.240816 C70.5302957,132.721449 105.613094,153.045704 161.722714,157.240816 C209.872714,160.840816 265.222714,150.040816 316.522714,137.890816 C318.687933,139.487052 320.040912,140.956415 319.672714,141.040816 C162.622714,177.040816 103.222714,150.040816 78.0227141,137.890816 C52.8227141,125.740816 50.065114,115.104039 49.2227141,114.040816 C47.3436912,94.3963551 74.7973878,68.3411528 163.897388,49.8911528 Z" id="Path-Copy-16" fill="#C4C3C6" transform="translate(184.433212, 104.480618) scale(-1, 1) translate(-184.433212, -104.480618) "></path>
            <path d="M155.251005,39.7101975 L155.252087,41.2005611 C69.8540442,58.0390696 37.7308128,84.1114988 39.9568495,105.940984 C42.4439875,130.299212 90.2648018,152.909488 162.35845,155.890816 C203.959285,157.611157 257.200728,151.099723 322.08278,136.356513 L328.065264,139.145935 C260.602713,154.454873 205.229118,161.213933 161.944479,159.423112 C86.7920923,156.313824 36.9420668,132.740438 34.3490496,107.345364 C32.0220361,84.5257518 65.6935064,57.2593886 155.251005,39.7101975 Z" id="Combined-Shape" fill="#FFFFFF" transform="translate(181.151080, 99.707316) scale(-1, 1) translate(-181.151080, -99.707316) "></path>
            <path d="M207.746056,164.50961 C240.435836,166.43527 261.493938,165.991153 306.079158,160.728373 C276.897608,168.895081 259.604907,174.898909 235.581637,177.621687 C252.06352,176.904894 257.064676,178.681165 285.346438,175.331106 C259.093993,182.365427 238.071312,187.043197 233.313869,187.041685 C243.121688,188.641705 240.450487,188.472756 259.48026,188.478803 C197.161231,199.413164 128.952694,189.516257 119.912974,169.2 C118.449181,165.908431 120.626496,157.28203 122.584347,153.528391 C123.481558,151.808234 133.447228,155.091344 131.868081,152.134202 C131.541355,151.514455 175.056276,162.58395 207.746056,164.50961 Z" id="Path-Copy-17" fill="#C4C3C6" transform="translate(212.756487, 172.551087) scale(-1, 1) translate(-212.756487, -172.551087) "></path>
            <path d="M329.548777,165.541153 C304.048777,167.041153 281.848777,165.991153 262.948777,162.391153 C274.948777,167.191153 285.748777,170.941153 295.348777,173.641153 C280.048777,174.991153 258.898777,172.741153 248.548777,170.941153 C255.748777,174.091153 257.548777,175.891153 270.148777,179.491153 C257.998777,179.491153 244.948777,177.691153 240.448777,176.791153 C246.298777,181.741153 247.648777,181.291153 252.598777,184.441153 C224.248777,176.791153 209.673093,162.665756 208.120302,143.304811 C207.753933,138.730803 206.951557,128.694079 205.870447,119.535289 C205.80107,118.933056 215.698777,154.291153 329.548777,165.541153 Z" id="Path" fill="#FFFFFF" transform="translate(267.708906, 151.984421) scale(-1, 1) translate(-267.708906, -151.984421) "></path>
            <path d="M152.776883,53.2161824 C153.322354,53.5838874 153.895709,53.9337188 154.497787,54.2650614 L148.803957,55.3047285 C82.2092242,67.9755687 56.85329,88.7981238 58.2842213,106.644021 C59.892538,126.670473 97.2017823,145.884998 153.89404,149.322268 C189.543145,151.483685 236.2108,145.811744 293.897005,132.306443 L298.543739,134.472182 L297.981637,134.603824 C238.536552,148.395662 190.383205,154.175348 153.521595,151.942885 C94.3758979,148.360822 55.4512197,128.350798 53.7723342,107.497086 C52.2878017,89.0282819 78.4064972,67.4991916 146.930569,54.288051 C147.228538,54.2306039 152.477309,53.273314 152.776883,53.2161824 Z" id="Combined-Shape" fill="#FFFFFF" transform="translate(176.128239, 102.812799) scale(-1, 1) translate(-176.128239, -102.812799) "></path>
            <g id="Group-45" transform="translate(0.000000, 103.430802)">
                <g id="statue">
                    <g id="Group-25-Copy" transform="translate(43.264767, 60.760562) scale(-1, 1) rotate(1.000000) translate(-43.264767, -60.760562) translate(1.264767, 0.760562)">
                        <path d="M44.7758278,2.50944944 C47.4242293,-0.208230547 58.0262681,-0.895524441 61.3081424,4.41098128 C62.8339515,6.06194974 62.8901747,13.6709182 62.8306086,15.4413937 C63.2750635,16.9418718 61.5217569,19.2855227 60.7061592,20.1707605 C59.7805933,21.1622268 59.8172494,21.9766456 60.3029424,23.0035214 C60.9016583,23.6851545 61.3789017,24.2248668 61.7346726,24.6226582 C63.3108839,25.0121629 63.8210057,25.5400232 65.438455,25.792316 C69.7180519,26.473949 71.7341361,29.9485073 74.1442731,32.6706135 C76.0458071,34.8084628 74.6757862,37.4641761 74.3412996,39.8631705 C73.9342617,42.7327889 74.0599411,45.649518 74.7124423,48.4765341 C75.2577015,50.7825785 76.1603573,53.0532134 76.1374473,55.4167983 C76.1374473,57.917595 75.0790031,60.3475727 75.2210454,62.8395171 C75.4868019,67.5489821 81.5762926,73.148111 78.4605261,77.8221665 C78.0481453,78.4462592 77.461648,78.981828 77.2371296,79.6900183 C77.07986,80.3875113 77.1066457,81.1120058 77.3150237,81.7968842 C78.2314256,85.9088137 76.3350193,85.0763649 76.5870299,88.7633802 C76.6954956,90.2730269 86.1016216,114.207003 82.62376,117.218363 C79.904327,119.573026 75.0529472,119.557084 66.9095789,118.98826 C63.9099893,118.778735 53.5366829,109.038493 50.2626916,110.300911 C47.4064472,111.402251 38.7693239,116.116909 35.3765505,116.545025 C24.3223905,117.939889 15.2504081,110.604675 13.4697974,107.201178 C11.1426766,102.753069 17.1651661,104.144392 20.0455781,97.3612682 C22.92599,90.5781442 19.0153697,77.7569879 16.4586692,63.7589509 C15.962388,61.0417914 33.1246482,57.8298851 32.8046412,55.245093 C32.467052,52.5182844 33.0039874,53.1996213 32.6820479,51.3307384 C32.5204084,50.3924086 28.4210442,53.7671638 26.269005,55.2232543 C24.300939,56.5548667 22.5554895,58.1872417 19.2312255,54.2659346 C16.7191434,51.3026786 9.95253402,47.3624771 6.05644052,42.0740095 C4.06447467,39.3701608 1.3834494,35.6529854 0.506474173,33.5295684 C-0.290016292,31.6010288 6.55737934,28.2649002 6.88181994,27.4773815 C7.54043312,25.8787214 11.3665328,28.290827 12.3186947,29.5428095 C13.2708566,30.7947919 12.4375647,34.993661 12.9622797,35.4724805 C14.3327726,36.7230994 17.9699215,38.8199418 23.8737264,41.7630076 C29.1065355,36.7654275 31.8871304,33.9624919 32.2155111,33.3542009 C33.0356144,30.247988 36.0393754,28.8714381 38.9361119,27.6380367 C41.9262098,26.3832507 42.8004621,24.9384323 45.550373,23.2469866 C45.5916111,21.9014252 43.9619289,21.2456165 43.6366062,19.9177598 L43.526638,19.8071051 C42.2894954,19.7539909 42.3215695,18.7580983 42.0512309,17.9835153 C42.536924,16.4343492 40.8736545,15.6686185 40.644554,14.2566642 C40.0491324,10.9336689 42.3176239,4.90410192 44.7758278,2.50944944 Z" id="Path" fill="#000000"></path>
                        <path d="M60.7576886,17.7707478 C57.8260332,18.0157288 55.2741011,17.8482713 53.1018926,17.2683752 C54.4807175,18.042898 55.7217405,18.6478505 56.8249614,19.0832329 C55.0659046,19.3029461 52.6348486,18.9414505 51.4452816,18.6515929 C52.2725384,19.1599414 52.4792096,19.4506591 53.9271792,20.031189 C52.5304325,20.0324113 51.0304774,19.7428254 50.5132909,19.5978288 C51.1850994,20.3972118 51.3403571,20.3243513 51.9089571,20.8329262 C48.650962,19.5994586 46.9773573,17.3181136 46.801585,14.1893394 C46.7601138,13.4501689 46.6692914,11.8282105 46.5462616,10.3481634 C46.5384117,10.2508432 47.671244,15.9640843 60.7576886,17.7707478 Z" id="Path-Copy-22" fill="#FFFFFF" transform="translate(53.651975, 15.589931) scale(-1, 1) rotate(64.000000) translate(-53.651975, -15.589931) "></path>
                        <path d="M62.4758018,29.9650966 C62.4124355,31.8958859 62.1991084,33.818861 61.837454,35.7192979 C59.7446943,44.4530603 57.6456099,53.1103395 54.5501732,61.5394155 C54.3208077,62.1651979 52.6000607,66.6485648 53.2384801,66.1108059 C53.4222008,65.9313622 55.8171314,61.8314654 55.8968467,61.5955566 C60.0657642,51.8524173 63.0940593,41.7199485 64.9306647,31.3690178 C66.0061142,31.5680405 66.1251159,32.9450063 65.9691271,33.9458685 C65.6396366,36.1497503 65.2448266,38.3502163 64.7846971,40.5472668 C62.3807626,52.1462839 58.2185081,63.2414793 53.0856765,73.9731989 C52.021003,76.4776425 50.9113609,78.9643889 49.7582395,81.4336473 C37.6324471,82.6595567 30.8343217,81.7502897 29.3638631,78.7058461 C28.8310484,77.6027044 35.8722066,91.6105579 35.6812595,91.1041002 C35.0586162,89.452635 28.0923307,92.163305 25.8778268,93.7286883 C23.1713006,95.641871 21.3336498,95.4206182 21.3936679,94.5548924 C21.4636576,93.5487445 19.1679429,69.3617149 19.4366725,68.405252 C19.6672866,67.5844493 22.1544108,65.2332193 23.8684983,64.5875336 C25.8707915,63.8332827 27.2387884,64.8712121 29.1283641,65.2440323 C31.3020386,65.6729062 39.7467536,66.3457827 42.0477078,69.2981341 C44.348662,72.2504854 51.3834442,55.0543734 53.726355,51.1401807 C53.5807462,51.3282905 52.3609653,50.9780582 52.2272742,51.1662893 C50.8013639,53.149096 41.2278304,68.5010273 41.3615095,67.1144492 C41.6075447,64.4781495 40.1048124,63.3509801 39.7994759,60.7189538 C39.7287886,60.3885757 39.7574875,60.0488264 39.8830253,59.7298614 C40.0165015,59.5010357 40.2062376,59.2979354 40.4400216,59.1336328 C42.445208,57.4882268 45.9511584,54.3533086 47.939635,52.6940368 C48.9645081,51.8436022 53.2528492,47.3139072 54.2220226,46.4172533 C55.6145132,45.1231138 53.9101047,45.0260533 52.8852317,45.9180852 C50.1336703,48.3168654 44.6756371,54.9495372 41.1609908,56.4978828 C40.8527863,54.5720798 40.6299878,52.6247079 40.4925954,50.655767 C40.4427604,50.3617816 40.4693494,50.06235 40.5705748,49.7776009 C40.8267931,49.195238 41.6065878,48.9179224 42.3084031,48.6868261 C45.9383531,47.5006929 55.5992674,32.8039121 56.2198628,28.0768397 C57.7020687,27.2262394 60.58845,28.8811825 62.4758018,29.9650966 Z M70.7626427,34.5247746 L70.7614035,34.4878293 C71.3229367,48.0721411 70.4056249,61.6757137 68.0244603,75.0762166 C67.3321853,78.9697407 67.1247238,82.2747635 66.3077482,84.5858469 C65.4907726,86.8969302 59.8035678,79.7524557 60.5680151,77.9937283 C63.6131519,70.9899294 66.2810965,63.9817032 68.0014608,56.552895 C69.6066741,49.7140823 70.9539862,42.2878221 70.7844086,35.2178916 L70.7626427,34.5247746 Z M66.2166978,30.3351343 C67.9048628,30.5830564 68.2774551,32.7435203 68.2176563,34.3860041 C67.941662,42.0715888 67.270076,49.7616007 65.6003106,57.2878069 C65.2783173,58.7281162 64.9225914,60.1610468 64.5331328,61.5865988 C64.1145415,63.0785585 63.654551,64.566091 63.1945606,66.040342 C61.2863066,71.8046254 58.9247243,77.4183035 56.1313216,82.8329413 C55.5647535,82.7558127 52.8954065,83.7554537 52.9038479,80.10735 C52.9081055,78.3194263 54.8730089,71.884043 55.4851206,70.5162211 C61.2764004,57.6818259 67.7070669,44.2541886 66.2166978,30.3351343 Z" id="Shape" fill="#C4C3C6" fill-rule="nonzero"></path>
                        <path d="M66.7788071,36.5226953 C67.1166488,37.3380482 67.2615832,38.2144918 67.2032616,39.0894449 C66.9485889,46.1176427 66.3288854,53.149889 64.7881156,60.0323407 C64.4909975,61.349453 64.1627527,62.6598179 63.8033812,63.9634352 C63.4171276,65.32778 62.9926732,66.6880764 62.5682187,68.0362272 C60.3631406,74.6373511 59.6464785,77.185562 56.1683696,83.2677366 C55.1564782,85.0531564 54.2578251,83.4607499 55.7439151,80.838636 C59.2220241,74.7564614 59.9386861,72.2082505 62.1437642,65.6071266 C62.5851969,64.2589758 63.0011623,62.8986794 63.3789267,61.5343346 C63.7524467,60.2307173 64.0806915,58.9203524 64.3636611,57.6032401 C65.9044309,50.7248369 66.5241344,43.6885421 66.7788071,36.6603443 L66.7788071,36.5226953 Z" id="Path" fill="#FFFFFF" fill-rule="nonzero"></path>
                        <path d="M57.606474,32.255939 C56.0818011,40.2169646 55.3435075,48.2928689 55.4009834,56.3809367 C55.4664809,61.8357397 55.7681286,57.9930581 56.2955699,56.9727253 C56.4199733,56.7775449 56.531631,56.5754618 56.6299268,56.3675911 C56.6299303,56.3234226 56.6581852,56.279252 56.677023,56.235082 C58.6316387,49.1370551 59.9741435,41.9595723 61.2742762,34.71584 C61.5128371,32.9346622 61.6152567,31.1397772 61.5807509,29.3449284 L61.067535,29.0799572 C61.0392061,30.0781671 57.7807689,31.2621345 57.606474,32.255939 Z" id="Path" fill="#FFFFFF" fill-rule="nonzero" transform="translate(58.492572, 44.159930) rotate(2.000000) translate(-58.492572, -44.159930) "></path>
                        <path d="M33.7151809,63.6053156 C32.9617528,67.5702516 33.7435539,76.2097005 33.780658,81.4363957 C33.8218425,84.9614222 34.0030626,82.478285 34.3215955,81.819072 C34.3967386,81.6929772 34.4641751,81.5624181 34.5235328,81.4281152 C34.523522,81.3995726 34.5405889,81.3710365 34.5519631,81.3424982 C35.7314285,76.7561509 36.5408585,72.1182863 37.3246558,67.4375981 C37.4683425,66.2866303 37.5507988,64.7873192 37.5294166,63.6274406 C35.0566386,63.1845782 33.7852267,63.1772032 33.7151809,63.6053156 Z" id="Path-Copy-23" fill="#FFFFFF" fill-rule="nonzero" transform="translate(35.460776, 73.286820) rotate(-80.000000) translate(-35.460776, -73.286820) "></path>
                        <path d="M38.0457678,57.7775512 C36.7598181,63.3156219 36.1395777,68.9341597 36.1929351,74.5617041 C36.2515504,78.3570844 36.5046486,75.6836345 36.9505154,74.9740688 C37.0557049,74.8383515 37.1501016,74.6978226 37.2331846,74.5532577 C37.2331618,74.5225263 37.257053,74.4918125 37.2729728,74.4610929 C38.923356,69.5237719 40.0555627,64.5307492 41.1518644,59.4916026 C41.3527613,58.25246 41.4384116,57.0036872 41.4081593,55.7548461 L40.9735859,55.5701343 C40.9501873,56.2646482 38.1927241,57.0862023 38.0457678,57.7775512 Z" id="Path-Copy-25" fill="#000000" fill-rule="nonzero" transform="translate(38.801924, 66.060587) rotate(-69.000000) translate(-38.801924, -66.060587) "></path>
                        <path d="M25.4761423,85.5080239 C32.4760584,93.63889 42.1827755,90.7295103 42.2075279,94.1619965 C42.240987,97.0089062 42.3856165,95.0034843 42.6403685,94.4711303 C42.7004697,94.3693032 42.7544045,94.2638695 42.8018751,94.1554111 C42.8018624,94.1323593 42.8155128,94.1093151 42.8246089,94.0862684 C43.7675963,90.382376 44.4145238,86.6368259 45.0409372,82.8566868 C45.0913657,80.0147808 43.4964141,82.1247452 39.5505228,83.0314163 C35.6046315,83.9380875 24.8502686,84.7810302 25.4761423,85.5080239 Z" id="Path-Copy-26" fill="#000000" fill-rule="nonzero" transform="translate(35.246015, 88.539088) rotate(-75.000000) translate(-35.246015, -88.539088) "></path>
                        <g id="Group-44" transform="translate(47.706750, 92.550198) rotate(-20.000000) translate(-47.706750, -92.550198) translate(38.206750, 82.550198)" fill-rule="nonzero">
                            <path d="M2.47102579,12.9384145 C7.71383042,14.9562617 9.24594446,12.1103964 11.2164013,12.5118154 C13.1868581,12.9132343 16.445847,15.8141652 16.4563162,15.7874803 C17.5409348,11.4985961 15.7601285,9.48601944 16.4798967,5.10866383 C16.5364391,1.81754252 14.6996402,4.26017965 10.1530396,5.30803285 C5.60643901,6.35588606 1.26630551,12.4747425 2.47102579,12.9384145 Z" id="Path-Copy-27" fill="#C4C3C6" transform="translate(9.541853, 9.618407) rotate(-56.000000) translate(-9.541853, -9.618407) "></path>
                            <path d="M5.49023181,0.960259151 C4.94513572,3.63029836 5.51021026,9.44819527 5.53682117,12.967911 C5.56645652,15.3417037 5.69763292,13.6695294 5.92804384,13.2256053 C5.98239736,13.140691 6.03117719,13.0527704 6.07411413,12.9623288 C6.07410753,12.9431079 6.08645254,12.9238912 6.09468034,12.9046731 C6.94793948,9.81616508 7.53356856,6.6929677 8.10066034,3.5409326 C8.20463293,2.76585664 8.26433488,1.75620282 8.24891996,0.975127509 C6.46047438,0.67691897 5.54091166,0.671962851 5.49023181,0.960259151 Z" id="Path-Copy-28" fill="#FFFFFF" transform="translate(6.752637, 7.479890) scale(-1, 1) rotate(-9.000000) translate(-6.752637, -7.479890) "></path>
                        </g>
                        <path d="M70.3317796,35.6337615 C70.3665779,35.7030599 70.3665779,35.7766895 70.3665779,35.8503191 C71.384428,42.1131625 70.9190008,48.5232651 70.3622281,54.8467447 C69.5897672,63.6492546 68.6322661,72.4798403 66.8985831,81.1318743 C66.5965929,81.0132704 66.2922402,80.8995451 65.9855374,80.7902876 C68.0208152,71.4224281 69.0875303,61.8210019 69.9272494,52.2610479 C70.3883268,47.0203559 70.7667583,41.7276901 70.3317796,36.4999916 L70.3317796,35.6337615 Z" id="Path" fill="#FFFFFF" fill-rule="nonzero"></path>
                        <path d="M55.3161059,94.0961014 C54.7810544,94.6014664 55.7707238,98.8919298 55.8730597,99.5377544 C55.9915937,100.36568 65.1025953,106.062872 65.9901943,105.630595 C66.4752796,105.385493 56.1365962,93.3211345 55.3161059,94.0961014 Z" id="Path-Copy-24" fill="#FFFFFF" fill-rule="nonzero"></path>
                        <path d="M18.4412115,107.131294 C23.1302974,109.203896 26.5175045,110.441686 28.602833,110.844663 C31.7308257,111.449129 31.3727277,111.76875 35.9304678,109.733342 C36.7031395,109.38828 36.880471,111.666622 34.1426223,112.692837 C32.3173899,113.376981 30.4814754,113.411023 28.634879,112.794965 C24.228183,111.696348 20.9516009,110.537024 18.8051329,109.316995 C15.9201136,107.677181 14.973568,107.442403 15.6392709,104.256904 C15.6392709,104.256904 16.5732511,105.215034 18.4412115,107.131294 Z" id="Path" fill="#FFFFFF" fill-rule="nonzero"></path>
                        <path d="M28.8993148,99.2671383 C29.3941157,99.5629248 30.2119415,100.308126 29.764928,103.089319 C29.334851,105.765136 29.3135749,108.288488 29.9858519,108.409741 C32.2201324,108.812718 31.6110491,109.716953 34.8665778,108.360013 C35.4184862,108.129972 35.5451515,109.648867 33.5895453,110.333011 C32.2858079,110.789106 30.9744404,110.811801 29.655443,110.401096 C26.5078029,109.668684 24.1673872,108.895802 22.6341957,108.082449 C21.260377,107.353643 21.1737291,106.867932 22.3742519,106.625315 C23.8022506,107.214419 25.870866,105.201214 25.8520782,105.015478 C25.7418549,103.997561 25.311483,103.103179 26.2120757,101.578826 C26.35003,101.336962 26.585063,100.884594 26.7670561,100.354036 C27.8586946,99.4322464 28.5694475,99.0699473 28.8993148,99.2671383 Z" id="Path" fill="#FFFFFF" fill-rule="nonzero"></path>
                        <path d="M49.5730716,28.0212173 C49.7578161,28.4544681 49.3279548,29.7378315 49.7201216,29.9996232 C52.867321,32.331155 48.4649067,38.3702797 47.0172866,40.560091 C46.1858252,41.805203 45.2897678,43.0061299 44.3327759,44.1579646 C43.9113169,44.6837022 43.5356686,45.4563079 42.958453,45.7946086 C42.3881592,46.1360852 41.7361185,46.3177116 41.0710496,46.3203461 C40.7348921,46.336105 40.4102797,46.1960671 40.1914829,45.9409008 C40.0285239,45.7120062 39.9376149,45.4398413 39.9303616,45.1591518 C39.7654428,43.1339193 40.1359427,40.6781318 40.1634292,38.6757574 C40.1673529,37.8824165 38.8743781,38.6462895 38.1834243,40.0468375 C37.6172495,41.1944612 37.7387718,42.798664 36.9178157,44.0784521 C35.617239,46.1059202 34.8211517,44.3060658 33.59061,44.804805 C31.4831762,45.6589492 25.1625822,49.3039084 25.113775,50.9227608 C25.0841222,51.9403861 26.5220851,55.0836603 22.4518835,53.1295533 C21.5627764,52.7026923 16.3897469,48.8111406 15.8880517,48.3833851 C12.7660956,46.1827935 9.46441212,40.7344736 8.7183321,39.8672169 C6.43710103,37.5781015 4.22742072,35.8968133 3.35821194,34.3945833 C2.57935602,33.0485077 3.23596429,32.0120061 4.26704986,32.3837628 C4.81639192,32.9142562 4.70562705,31.4619717 4.78811902,31.2945029 C5.07084293,30.7101787 5.44849955,31.1756175 6.08755559,31.3867832 C6.45648028,31.5086883 5.84910593,30.1958188 6.38902369,30.1863945 C6.69162384,30.1811126 7.15840985,30.2874791 7.4688592,30.1675459 C7.71233261,30.073487 6.94657093,29.1600603 7.4500106,29.0877104 C7.95345027,29.0153606 8.49733585,29.2067213 9.07918816,29.5993553 C10.1318443,30.3096877 10.4737667,31.2177077 10.7366386,31.7307534 C10.9118866,32.0727839 10.9307352,33.1526194 10.7931844,34.9702599 C10.0670112,34.6228805 12.8914011,37.527301 13.549319,38.162645 C15.7466872,40.2846188 18.2702191,41.5373469 25.0101078,44.9836655 C30.5206898,39.2259294 33.2777091,37.2607202 33.4356175,36.470382 C33.8937251,34.3400019 36.4212571,32.9254671 38.0017284,31.3619692 C39.8891319,29.469314 42.6148723,28.6372771 45.2352479,27.9058161 C46.8212905,27.4642455 49.3713488,27.4495058 49.5730716,28.0212173 Z M59.0292643,11.3981839 C59.1059517,15.7818612 59.7422723,12.2584353 56.8591428,15.9246179 C55.8395695,17.2211057 54.6497716,18.2074163 53.1899407,20.4771605 C52.4011505,18.2465792 52.051426,18.1071857 50.8628199,16.0290521 C51.8088214,19.3923423 50.682435,18.4093761 52.0148037,20.6979948 C50.9413765,19.2660036 50.3397548,19.0708007 48.7912176,16.3591298 C49.6855301,19.3473016 50.5338772,21.625541 50.8725596,22.0138652 C49.9533534,21.4049819 50.1667787,21.6028406 48.8120491,20.0495438 C49.3325922,21.1905086 49.9580203,22.2673237 50.6539693,23.2569846 C46.297629,18.6120453 44.1011804,15.2447259 44.0646235,13.1550263 C43.9743024,7.99200239 46.6033017,4.1335349 51.7777981,4.04341399 C56.9522945,3.95329307 58.9389431,6.23515994 59.0292643,11.3981839 Z" id="Shape" fill="#FFFFFF" fill-rule="nonzero"></path>
                    </g>
                </g>
                <path d="M15.9692696,96.6834372 C17.1468559,97.411898 17.252994,98.8555338 17.2510771,102.30666 C17.250131,104.01004 16.6059973,105.119761 16.6047826,107.306653 C16.6035679,109.493545 17.8892825,109.976467 17.8883371,111.679529 C17.8864197,115.130656 15.8713742,117.929463 13.3876066,117.93084 C10.9038389,117.932216 8.89190126,115.135642 8.89381675,111.684516 C8.89437825,110.676047 9.73469265,102.531643 10.8285035,98.5609315 C11.5818787,95.8260575 14.7916833,95.9549763 15.9692696,96.6834372 Z" id="Path" fill="#FFFFFF" transform="translate(13.391077, 107.083138) rotate(15.000000) translate(-13.391077, -107.083138) "></path>
                <g id="Group-42-Copy" transform="translate(13.663922, 107.919101) rotate(-135.000000) translate(-13.663922, -107.919101) translate(4.663922, 103.419101)" fill="#000000">
                    <g id="Group-43" transform="translate(-0.000000, 0.000000)">
                        <path d="M7.12138447,2.98136387 C9.70534191,2.97495074 12.09824,3.09915262 14.0561151,3.31568537 C12.0330133,3.56824091 9.50077763,3.72166801 6.75321606,3.72848719 C4.1692194,3.73490042 1.77628793,3.61069467 -0.181603776,3.39415583 C1.84162873,3.14160764 4.37384542,2.988183 7.12138447,2.98136387 Z" id="Path" transform="translate(6.937256, 3.354926) rotate(-25.000000) translate(-6.937256, -3.354926) "></path>
                        <path d="M11.1807077,4.62357072 C13.487217,4.61798119 15.6231822,4.72596399 17.3708348,4.91423184 C15.5649613,5.13384233 13.3046209,5.26726205 10.8520742,5.27320548 C8.54552994,5.2787951 6.40953493,5.17080894 4.66186759,4.98253579 C6.46785772,4.76293168 8.72818115,4.6295141 11.1807077,4.62357072 Z" id="Path-Copy-19" transform="translate(11.016351, 4.948388) rotate(-25.000000) translate(-11.016351, -4.948388) "></path>
                        <path d="M14.1415085,6.32167221 C15.6661503,6.31797744 17.0780579,6.38999522 18.2332833,6.51553105 C17.0395673,6.66191333 15.5454423,6.75082887 13.9242674,6.75475758 C12.3996025,6.75845241 10.9876751,6.68643238 9.83244001,6.56089302 C11.026233,6.414515 12.5203469,6.32560089 14.1415085,6.32167221 Z" id="Path-Copy-20" transform="translate(14.032862, 6.538215) rotate(-25.000000) translate(-14.032862, -6.538215) "></path>
                    </g>
                </g>
            </g>
        </g>
    </g>
</svg>