<?xml version="1.0" encoding="UTF-8"?>
<svg width="343px" height="546px" viewBox="0 0 343 546" version="1.1" xmlns="http://www.w3.org/2000/svg" xmlns:xlink="http://www.w3.org/1999/xlink">
    <!-- Generator: Sketch 61 (89581) - https://sketch.com -->
    <title>github lock open</title>
    <desc>Created with Sketch.</desc>
    <g id="Illustrations" stroke="none" stroke-width="1" fill="none" fill-rule="evenodd">
        <g id="Other" transform="translate(-981.000000, -3997.000000)">
            <g id="github-lock-open" transform="translate(981.000000, 3997.000000)">
                <g id="Group-70-Copy">
                    <path d="M343,256.462513 L343,514.043322 L339.704415,517.893119 C328.334975,531.174538 311.756467,536.935397 285.308525,536.935397 C263.893327,536.935397 249.261829,531.999252 236.604411,522.691022 L159.455748,522.691022 C143.993718,537.867205 118.653328,546 83.5570492,546 C44.6582169,546 14.3250364,534.638288 2.29836835,516.575067 L0,513.123077 L0,255.16757 C0,240.611478 11.4711382,229.991921 29.1706385,223.06142 C32.893691,221.603604 36.9087205,220.310271 41.16,219.191512 L41.16,139.888673 C41.16,62.6302925 103.815063,3.29691829e-12 181.104,3.29691829e-12 C258.392937,3.29691829e-12 321.048,62.6302925 321.048,139.888673 C321.048,168.031966 321.048,188.472768 321.048,201.211081 C321.048,205.474054 295.746593,215 283,215 C270.253407,215 245.588,206.414692 245.588,202.622037 C245.588,189.570179 245.588,168.659057 245.588,139.888673 C245.588,104.289223 216.71753,75.4301671 181.104,75.4301671 C145.49047,75.4301671 116.62,104.289223 116.62,139.888673 L116.62,217.465451 C134.489077,221.599824 148.18747,229.567135 159.538526,241.452994 L236.16435,241.452994 C239.002884,239.125958 242.15275,236.990757 245.588,235.091297 C258.862559,230.994402 271.333225,228.630636 283,228 C320,226 343,244.62912 343,256.462513 Z" id="Path" fill="#000000" fill-rule="nonzero"></path>
                    <path d="M117.425134,313.777023 C125.222747,313.777023 132.861022,313.362906 140.283529,312.568927 C122.81281,454.856217 102.180102,526 78.3838583,526 C39.8755624,526 21.7476216,520.002213 14,508.367075 L13.9982195,282.998607 C37.9300611,301.724848 75.3589625,313.777023 117.425134,313.777023 Z M244.137196,292.419751 C258.086008,298.130144 274.800903,301.454399 292.768408,301.454399 C306.407896,301.454399 319.325553,299.538754 330.859304,296.117846 C332.171021,352.275355 324.26833,404.25736 307.152036,452.064253 C279.559891,529.13086 254.502276,518.287752 244.138047,510.652271 L244.137196,292.419751 Z" id="Combined-Shape" fill="#C4C3C6" fill-rule="nonzero"></path>
                    <path d="M234,294 L234,480.956522 L234,482.275771 C234,497.035155 222.035155,509 207.275771,509 L207.275771,509 L207.275771,509 L148.195503,509 C146.925689,428.204349 151.841571,373.89793 162.943151,346.080745 C174.04473,318.26356 197.730347,300.903312 234,294 Z" id="Rectangle" fill="#C4C3C6"></path>
                    <path d="M188.99558,361 C162.493109,361 141,382.345455 141,408.678249 C141,429.742727 154.752172,447.611095 173.826054,453.915511 C176.227601,454.354538 177.102766,452.882336 177.102766,451.617941 C177.102766,450.48818 177.061512,447.488167 177.037939,443.51059 C163.686516,446.390602 160.869486,437.118368 160.869486,437.118368 C158.685994,431.610052 155.538936,430.143704 155.538936,430.143704 C151.180791,427.187595 155.868965,427.246131 155.868965,427.246131 C160.686792,427.582718 163.22094,432.160298 163.22094,432.160298 C167.502471,439.445207 174.456644,437.340808 177.191166,436.120315 C177.627275,433.041278 178.867829,430.939805 180.238037,429.748581 C169.579883,428.545649 158.373646,424.453925 158.373646,406.18458 C158.373646,400.980655 160.24479,396.722101 163.315234,393.391355 C162.820191,392.185497 161.172995,387.33572 163.786703,380.773741 C163.786703,380.773741 167.814819,379.491785 176.984898,385.661567 C180.81264,384.60205 184.920317,384.075219 189.001473,384.054731 C193.079683,384.075219 197.184413,384.60205 201.018048,385.661567 C210.182234,379.491785 214.204457,380.773741 214.204457,380.773741 C216.824058,387.33572 215.176862,392.185497 214.684766,393.391355 C217.761104,396.722101 219.617514,400.980655 219.617514,406.18458 C219.617514,424.500754 208.393597,428.531015 197.70303,429.710532 C199.423893,431.182733 200.959115,434.092014 200.959115,438.540813 C200.959115,444.912547 200.900181,450.055007 200.900181,451.617941 C200.900181,452.894044 201.766506,454.377952 204.200467,453.912585 C223.259615,447.593534 237,429.736873 237,408.678249 C237,382.345455 215.506891,361 188.99558,361" id="Fill-4" fill="#000000"></path>
                    <path d="M26,498 L26,331.408526 L26,315.349746 C26,310.417876 30.034657,307.811419 35.0116586,309.528063 L54.9340746,316.399608 C55.3622678,388.541934 53.7045864,436.361031 49.9610306,459.856899 C46.2174747,483.352768 38.2304645,496.067135 26,498 Z" id="Rectangle-Copy-21" fill="#FFFFFF"></path>
                    <path d="M256,446 L256,325.243217 L256,313.602726 C256,310.027772 258.921648,308.138436 262.525684,309.382776 L276.952261,314.363737 C277.262332,366.657381 276.061942,401.319901 273.351091,418.351297 C270.64024,435.382694 264.856543,444.598928 256,446 Z" id="Rectangle-Copy-22" fill="#FFFFFF"></path>
                    <path d="M329,254.728524 L329,284.316417 C321.230109,291.193366 309.287373,295.123051 284.970615,295.123051 C260.653857,295.123051 248.711121,289.228524 240.94123,284.316417 L152.88246,284.316417 C142.522604,294.14063 121.574169,302 82.9534362,302 C65.5797779,302 35.0474005,298.545657 19.8934473,283.898101 C15.0243294,279.191693 12.7346513,269.141027 13.0244128,253.746102 C13.0244128,242.288346 44.332703,233 82.9534362,233 C121.574169,233 139.93264,241.957047 152.88246,253.746102 L241.063884,253.746102 C247.416139,248.833996 261.767821,241.666163 284.970615,241.666163 C309.287373,241.666163 329,247.514381 329,254.728524 Z" id="Path" fill="#FFFFFF"></path>
                    <g id="Group-71" transform="translate(55.000000, 15.000000)" fill-rule="nonzero">
                        <path d="M204.678947,180.209263 L204.678947,133.051948 C204.678947,89.9199436 177.864949,54.9545455 134.621053,54.9545455 C91.3771567,54.9545455 56.3210526,89.9199436 56.3210526,133.051948 L56.3210526,253.319652 L56.2195484,253.319652 C55.0973222,256.732967 52.2,260.25974 32.2815789,261.62987 C12.3631579,263 1.2237304,251.252447 0.101504191,247.839133 L0,247.839133 L0,130.311688 C0,60.6951197 64.8238873,7 134.621053,7 C204.418218,7 261,63.4353795 261,133.051948 L261,185.689782 L260.898496,185.689782 C259.77627,189.103096 241.245227,194 228.718421,194 C216.191615,194 205.902678,183.622577 204.780452,180.209263 L204.678947,180.209263 Z" id="Path" fill="#000000"></path>
                        <path d="M126,0 C195.587878,0 252,56.5350237 252,126.27451 L252,177.675109 L251.898813,177.675072 C250.780014,181.094414 240.521899,186 228.032609,186 C215.543318,186 205.285203,181.094414 204.166405,177.675072 L204.065217,177.675109 L204.065217,126.27451 C204.065217,83.06635 169.114229,48.0392157 126,48.0392157 C82.8857709,48.0392157 47.9347826,83.06635 47.9347826,126.27451 L47.9347826,246.675109 L47.8335951,246.675072 C46.714797,250.094414 36.4566818,255 23.9673913,255 C11.4781008,255 1.21998556,250.094414 0.101187482,246.675072 L0,246.675109 L0,126.27451 C0,56.5350237 56.4121215,0 126,0 Z" id="Combined-Shape" fill="#C4C3C6"></path>
                        <path d="M12.0987652,234.182912 L12,234.182912 L12,121.817635 C12,59.5101756 62.4668341,9 124.720829,9 C174.867857,9 217.366581,41.7744062 232,87.0888551 C212.886641,52.0060705 175.70508,28.2026151 132.968694,28.2026151 C70.7146996,28.2026151 20.2478655,78.7127908 20.2478655,141.02025 L20.2478655,238 C15.738299,237.092804 12.6754633,235.731273 12.0987652,234.182912 Z" id="Shape" fill="#FFFFFF"></path>
                        <path d="M225.298575,167.118845 L217.734426,164.5143 C217.734426,158.150424 229.636271,147.838279 238.408425,147.838279 C245.474597,147.838279 251.463053,151.185748 253.525035,155.814014 C252.211482,154.066394 240.738997,153.61038 233.981557,158.007538 C230.12552,160.516714 227.231193,163.553816 225.298575,167.118845 Z" id="Shape-Copy-5" fill="#FFFFFF" transform="translate(235.629731, 157.478562) scale(1, -1) rotate(-19.000000) translate(-235.629731, -157.478562) "></path>
                    </g>
                    <path d="M316,160 L316.00052,182.261239 C315.494274,182.233089 314.669563,181.902412 309,181 C291.968603,178.289149 285.401072,168.856543 284,160 L316,160 Z" id="Combined-Shape" fill="#000000"></path>
                </g>
            </g>
        </g>
    </g>
</svg>