<?xml version="1.0" encoding="UTF-8"?>
<svg width="343px" height="498px" viewBox="0 0 343 498" version="1.1" xmlns="http://www.w3.org/2000/svg" xmlns:xlink="http://www.w3.org/1999/xlink">
    <!-- Generator: Sketch 61 (89581) - https://sketch.com -->
    <title>github lock closed</title>
    <desc>Created with Sketch.</desc>
    <g id="Illustrations" stroke="none" stroke-width="1" fill="none" fill-rule="evenodd">
        <g id="Other" transform="translate(-176.000000, -3997.000000)">
            <g id="github-lock-closed" transform="translate(176.000000, 3997.000000)">
                <path d="M245.588,187.091297 L245.588,139.888673 C245.588,104.289223 216.71753,75.4301671 181.104,75.4301671 C145.49047,75.4301671 116.62,104.289223 116.62,139.888673 L116.62,169.465451 C134.489077,173.599824 148.18747,181.567135 159.538526,193.452994 L236.16435,193.452994 C239.002884,191.125958 242.15275,188.990757 245.588,187.091297 L245.588,187.091297 Z M321.048,183.379345 C321.16748,183.425301 321.286552,183.471511 321.405213,183.517974 C334.285283,188.561356 343,196.62912 343,208.462513 L343,466.043322 L339.704415,469.893119 C328.334975,483.174538 311.756467,488.935397 285.308525,488.935397 C263.893327,488.935397 249.261829,483.999252 236.604411,474.691022 L159.455748,474.691022 C143.993718,489.867205 118.653328,498 83.5570492,498 C44.6582169,498 14.3250364,486.638288 2.29836835,468.575067 L0,465.123077 L0,207.16757 C0,192.611478 11.4711382,181.991921 29.1706385,175.06142 C32.893691,173.603604 36.9087205,172.310271 41.16,171.191512 L41.16,139.888673 C41.16,62.6302925 103.815063,0 181.104,0 C258.392937,0 321.048,62.6302925 321.048,139.888673 L321.048,183.37934 L321.048,183.379345 Z" id="Shape" fill="#000000" fill-rule="nonzero"></path>
                <path d="M117.425134,265.777023 C125.222747,265.777023 132.861022,265.362906 140.283529,264.568927 C122.81281,406.856217 102.180102,478 78.3838583,478 C39.8755624,478 21.7476216,472.002213 14,460.367075 L13.9982195,234.998607 C37.9300611,253.724848 75.3589625,265.777023 117.425134,265.777023 Z M244.137196,244.419751 C258.086008,250.130144 274.800903,253.454399 292.768408,253.454399 C306.407896,253.454399 319.325553,251.538754 330.859304,248.117846 C332.171021,304.275355 324.26833,356.25736 307.152036,404.064253 C279.559891,481.13086 254.502276,470.287752 244.138047,462.652271 L244.137196,244.419751 Z" id="Combined-Shape" fill="#C4C3C6" fill-rule="nonzero"></path>
                <path d="M234,246 L234,432.956522 L234,434.275771 C234,449.035155 222.035155,461 207.275771,461 L207.275771,461 L207.275771,461 L148.195503,461 C146.925689,380.204349 151.841571,325.89793 162.943151,298.080745 C174.04473,270.26356 197.730347,252.903312 234,246 Z" id="Rectangle" fill="#C4C3C6"></path>
                <path d="M188.99558,313 C162.493109,313 141,334.345455 141,360.678249 C141,381.742727 154.752172,399.611095 173.826054,405.915511 C176.227601,406.354538 177.102766,404.882336 177.102766,403.617941 C177.102766,402.48818 177.061512,399.488167 177.037939,395.51059 C163.686516,398.390602 160.869486,389.118368 160.869486,389.118368 C158.685994,383.610052 155.538936,382.143704 155.538936,382.143704 C151.180791,379.187595 155.868965,379.246131 155.868965,379.246131 C160.686792,379.582718 163.22094,384.160298 163.22094,384.160298 C167.502471,391.445207 174.456644,389.340808 177.191166,388.120315 C177.627275,385.041278 178.867829,382.939805 180.238037,381.748581 C169.579883,380.545649 158.373646,376.453925 158.373646,358.18458 C158.373646,352.980655 160.24479,348.722101 163.315234,345.391355 C162.820191,344.185497 161.172995,339.33572 163.786703,332.773741 C163.786703,332.773741 167.814819,331.491785 176.984898,337.661567 C180.81264,336.60205 184.920317,336.075219 189.001473,336.054731 C193.079683,336.075219 197.184413,336.60205 201.018048,337.661567 C210.182234,331.491785 214.204457,332.773741 214.204457,332.773741 C216.824058,339.33572 215.176862,344.185497 214.684766,345.391355 C217.761104,348.722101 219.617514,352.980655 219.617514,358.18458 C219.617514,376.500754 208.393597,380.531015 197.70303,381.710532 C199.423893,383.182733 200.959115,386.092014 200.959115,390.540813 C200.959115,396.912547 200.900181,402.055007 200.900181,403.617941 C200.900181,404.894044 201.766506,406.377952 204.200467,405.912585 C223.259615,399.593534 237,381.736873 237,360.678249 C237,334.345455 215.506891,313 188.99558,313" id="Fill-4" fill="#000000"></path>
                <path d="M26,450 L26,283.408526 L26,267.349746 C26,262.417876 30.034657,259.811419 35.0116586,261.528063 L54.9340746,268.399608 C55.3622678,340.541934 53.7045864,388.361031 49.9610306,411.856899 C46.2174747,435.352768 38.2304645,448.067135 26,450 Z" id="Rectangle-Copy-21" fill="#FFFFFF"></path>
                <path d="M256,398 L256,277.243217 L256,265.602726 C256,262.027772 258.921648,260.138436 262.525684,261.382776 L276.952261,266.363737 C277.262332,318.657381 276.061942,353.319901 273.351091,370.351297 C270.64024,387.382694 264.856543,396.598928 256,398 Z" id="Rectangle-Copy-22" fill="#FFFFFF"></path>
                <path d="M329,206.728524 L329,236.316417 C321.230109,243.193366 309.287373,247.123051 284.970615,247.123051 C260.653857,247.123051 248.711121,241.228524 240.94123,236.316417 L152.88246,236.316417 C142.522604,246.14063 121.574169,254 82.9534362,254 C65.5797779,254 35.0474005,250.545657 19.8934473,235.898101 C15.0243294,231.191693 12.7346513,221.141027 13.0244128,205.746102 C13.0244128,194.288346 44.332703,185 82.9534362,185 C121.574169,185 139.93264,193.957047 152.88246,205.746102 L241.063884,205.746102 C247.416139,200.833996 261.767821,193.666163 284.970615,193.666163 C309.287373,193.666163 329,199.514381 329,206.728524 Z" id="Path" fill="#FFFFFF"></path>
                <path d="M259.678947,218.209263 L259.678947,147.051948 C259.678947,103.919944 232.864949,68.9545455 189.621053,68.9545455 C146.377157,68.9545455 111.321053,103.919944 111.321053,147.051948 L111.321053,222.319652 L111.219548,222.319652 C110.097322,225.732967 107.2,229.25974 87.2815789,230.62987 C67.3631579,232 56.2237304,220.252447 55.1015042,216.839133 L55,216.839133 L55,144.311688 C55,74.6951197 119.823887,21 189.621053,21 C259.418218,21 316,77.4353795 316,147.051948 L316,223.689782 L315.898496,223.689782 C314.77627,227.103096 296.245227,232 283.718421,232 C271.191615,232 260.902678,221.622577 259.780452,218.209263 L259.678947,218.209263 Z" id="Path" fill="#000000" fill-rule="nonzero"></path>
                <path d="M181,14 C250.587878,14 307,70.5350237 307,140.27451 L307,215.675109 L306.898813,215.675072 C305.780014,219.094414 295.521899,224 283.032609,224 C270.543318,224 260.285203,219.094414 259.166405,215.675072 L259.065217,215.675109 L259.065217,140.27451 C259.065217,97.06635 224.114229,62.0392157 181,62.0392157 C137.885771,62.0392157 102.934783,97.06635 102.934783,140.27451 L102.934783,215.675109 L102.833595,215.675072 C101.714797,219.094414 91.4566818,224 78.9673913,224 C66.4781008,224 56.2199856,219.094414 55.1011875,215.675072 L55,215.675109 L55,140.27451 C55,70.5350237 111.412122,14 181,14 Z" id="Combined-Shape" fill="#C4C3C6" fill-rule="nonzero"></path>
                <path d="M67.0987652,203.182912 L67,203.182912 L67,135.817635 C67,73.5101756 117.466834,23 179.720829,23 C229.867857,23 272.366581,55.7744062 287,101.088855 C267.886641,66.0060705 230.70508,42.2026151 187.968694,42.2026151 C125.7147,42.2026151 75.2478655,92.7127908 75.2478655,155.02025 L75.2478655,207 C70.738299,206.092804 67.6754633,204.731273 67.0987652,203.182912 Z" id="Shape" fill="#FFFFFF" fill-rule="nonzero"></path>
            </g>
        </g>
    </g>
</svg>