<?xml version="1.0" encoding="UTF-8"?>
<svg width="552px" height="360px" viewBox="0 0 552 360" version="1.1" xmlns="http://www.w3.org/2000/svg" xmlns:xlink="http://www.w3.org/1999/xlink">
    <!-- Generator: Sketch 61 (89581) - https://sketch.com -->
    <title>joy tokens</title>
    <desc>Created with Sketch.</desc>
    <g id="Illustrations" stroke="none" stroke-width="1" fill="none" fill-rule="evenodd">
        <g id="Other" transform="translate(-71.000000, -5254.000000)">
            <g id="joy-tokens" transform="translate(71.000000, 5254.000000)">
                <ellipse id="Oval" fill="#000000" cx="372.5" cy="179" rx="179.5" ry="179"></ellipse>
                <ellipse id="Oval-Copy-4" fill="#C4C3C6" cx="372.5" cy="179" rx="157.5" ry="157"></ellipse>
                <path d="M215.260237,189 C215.087533,185.971841 215,182.920823 215,179.849315 C215,92.6715456 285.515152,22 372.5,22 C459.484848,22 530,92.6715456 530,179.849315 C530,182.920823 529.912467,185.971841 529.739763,189 C525.010678,106.080745 456.420137,40.3013699 372.5,40.3013699 C288.579863,40.3013699 219.989322,106.080745 215.260237,189 Z" id="Path" fill="#FFFFFF"></path>
                <path d="M310.819037,345 C308.02299,343.882931 305.242183,342.679292 302.479739,341.387941 C224.074046,304.735895 190.152363,211.305191 226.713537,132.704624 C263.274712,54.1040561 356.473773,20.098061 434.879465,56.7501075 C437.641909,58.0414579 440.349133,59.4032901 443,60.8324722 C366.436605,30.2440872 278.446397,64.5677893 243.173371,140.399047 C207.900345,216.230304 238.231069,305.865096 310.819037,345 Z" id="Path" fill="#000000"></path>
                <path d="M277.812224,323.139861 C245.125856,270.241379 261.393346,127.792475 315.387315,91.3396528 C370.678487,54.0110542 444.593024,66.9207771 480.480055,120.174326 C487.722764,130.921939 492.863043,142.491418 496,154.420116 C493.118862,147.328607 489.472111,140.439049 485.036988,133.857674 C449.149957,80.6041249 352.044726,108.837452 354.858353,178.385611 C359.020203,281.259597 299.530223,297.787363 327.961803,336 L277.812224,323.139861 Z" id="Path" fill="#000000"></path>
                <path d="M496.565131,151 C497.326102,153.275198 498.025852,155.585271 498.662061,157.928899 C516.728205,224.479839 476.715946,292.885947 409.292178,310.718218 C341.868411,328.550488 272.565145,289.056203 254.499001,222.505263 C253.484761,218.769071 252.65357,215.027032 252,211.288423 C272.847987,273.620997 339.646845,309.776776 404.696247,292.572478 C468.334822,275.741317 507.553277,213.855388 496.565131,151 L496.565131,151 Z" id="Path" fill="#FFFFFF"></path>
                <path d="M423,103 L355,103 L355,126.110354 L396.48,126.110354 L396.48,221.192814 C396.48,228.786838 391.72,235.389822 384.58,238.36125 L360.61,248.908323 L367.75,274 L400.22,260.150589 C408.72,256.849097 415.86,250.576177 419.6,242.652935 C421.98,238.030339 423,232.748459 423,227.795798 L423,103 Z" id="Path-Copy-4" fill="#000000" fill-rule="nonzero"></path>
                <path d="M410,109 L346,109 L346,131.178177 L385.04,131.178177 L385.04,222.425403 C385.04,229.713115 380.56,236.049762 373.84,238.901334 L358.16,244.920418 L364.88,269 L388.56,259.811781 C396.56,256.643458 403.28,250.623562 406.8,243.019911 C409.04,238.583771 410,233.514941 410,228.76205 L410,109 Z" id="Path-Copy-3" fill="#C4C3C6" fill-rule="nonzero"></path>
                <path d="M359.008103,248 L356.768,240.52317 L373.232,234.636232 C380.288,231.847264 384.992,225.649735 384.992,218.52202 L384.992,129.278072 L344,129.278072 L344,121 L392,121 L392,218.052847 C392,221.904498 391.136,226.012179 389.12,229.607141 C385.952,235.768993 379.904,240.6474 372.704,243.214948 L359.008103,248 Z" id="Path" fill="#FFFFFF" fill-rule="nonzero"></path>
                <path d="M335.76959,107.457945 C379.468124,172.045092 345.748526,267.541197 264.409717,322.236737 C225.947872,348.100053 182.069977,361.321239 141.143938,359.89571 C123.82557,359.29248 108.552342,354.881703 95.2783803,347.620042 C86.230531,342.670321 80.0879787,337.780916 73.450998,331.391306 C52.7333958,315.1632 37.5875627,301.118058 28.013499,289.255879 C18.0908677,276.961828 10.0551885,260.817569 3.90646145,240.8231 C-12.2145321,179.922422 22.5055903,105.552429 90.5902834,59.7694991 C171.929092,5.07395977 273.375378,9.67900122 317.073912,74.2661476 C322.599769,82.4334544 329.452163,98.1206863 335.76959,107.457945 Z" id="Path" fill="#000000" fill-rule="nonzero"></path>
                <path d="M86,314.787764 C104.747867,325.591838 163.68649,327.998601 214.023485,303.152995 C260.72648,280.101078 299.266423,231.400497 310.280801,198.576497 C323.247271,159.935063 311.445472,108.015888 305.703642,94 C312.877937,99.6709807 315.989103,110.915473 321.227973,118.630908 C357.981081,172.758271 328.313273,256.478867 254.963068,305.626092 C218.820724,329.842738 178.816529,341.146761 143.134395,339.908334 C111.596,338.813724 103.411834,331.581007 97.7453113,326.145199 C91.0666562,319.738469 87.1515524,315.952657 86,314.787764 Z" id="Path" fill="#C4C3C6"></path>
                <path d="M232.837809,273.465146 C305.405897,224.087803 334.757365,139.975211 298.396147,85.5944121 C262.034929,31.2136136 173.730279,27.1575113 101.162191,76.534854 C28.5941028,125.912197 -0.757364745,210.024789 35.6038532,264.405588 C71.9650712,318.786386 160.269721,322.842489 232.837809,273.465146 Z" id="Oval" fill="#D8D8D8"></path>
                <path d="M232.837809,273.465146 C305.405897,224.087803 334.757365,139.975211 298.396147,85.5944121 C262.034929,31.2136136 173.730279,27.1575113 101.162191,76.534854 C28.5941028,125.912197 -0.757364745,210.024789 35.6038532,264.405588 C71.9650712,318.786386 160.269721,322.842489 232.837809,273.465146 Z" id="Oval-Copy" fill="#C4C3C6"></path>
                <path d="M46,277.117376 C87.8816867,313.834711 163.166388,311.669026 226.413219,268.527933 C298.472859,219.375562 327.618676,135.646202 291.512223,81.5131722 C289.517365,78.5223585 287.365062,75.6844605 285.066647,73 C290.902442,78.1161926 296.089696,83.9873237 300.505475,90.6077327 C336.611928,144.740762 307.466112,228.470123 235.406471,277.622493 C167.328078,324.059228 85.3023671,323.021032 46,277.117384 L46,277.117376 Z" id="Path" fill="#FFFFFF"></path>
                <path d="M269,84.6391429 C231.216339,54.6263555 166.377538,59.9416775 113.77304,100.332459 C53.8386312,146.351292 32.4814586,220.47503 66.0704603,265.892462 C67.9262302,268.401745 69.9108966,270.770903 72.0146598,273 C66.7498842,268.818018 62.0104014,263.950118 57.902504,258.395617 C24.3135023,212.978185 45.6706749,138.854447 105.605084,92.8356139 C162.228157,49.3592906 233.026141,46.5221045 269,84.6391429 L269,84.6391429 Z" id="Path" fill="#FFFFFF"></path>
                <path d="M120,282.680682 C150.504943,281.612533 184.000552,268.830182 213.103837,244.645299 C270.758842,196.733885 289.343164,122.215731 254.613082,78.2043437 C248.776235,70.8076523 241.804981,64.743372 233.9718,60 C250.337635,66.1135767 264.173739,76.501507 273.757971,91.0833768 C304.598608,138.005669 279.734225,210.585876 218.221818,253.195808 C186.407309,275.233867 151.020454,284.938592 120,282.68068 L120,282.680682 Z" id="Path" fill="#000000"></path>
                <path d="M241,131.889855 L236.444444,118.108605 L175.751903,94 L161.655398,98.59375 L159.824866,109.529652 L186.333333,126.15625 C162.606554,150.743128 144.874349,169.118128 133.136717,181.28125 C121.399086,193.444372 121.399086,193.444372 133.136717,181.28125 C126.082609,190.46875 119.518519,195.0625 113.444444,195.0625 C107.37037,195.0625 101.296296,194.033036 95.2222222,191.974109 C89.6968703,197.611521 115.243755,211.670811 107.138975,208.234596 L88.8442899,199.477973 L77,208.84375 L77,222.886967 L104.255989,236.854343 C113.614364,241.337295 124.12472,242.31636 133.136717,239.144074 C138.585097,237.402535 143.409043,234.045911 147.134212,230.146486 L241,131.889855 Z" id="Path-Copy" fill="#000000" fill-rule="nonzero"></path>
                <path d="M237,117.889855 L171.751903,80 L155.824866,95.5296521 L194.738331,120.268746 L125.557082,190.85306 C120.03173,196.490471 111.243755,197.670811 103.138975,194.234596 L84.8442899,185.477973 L73,208.886967 L100.255989,222.854343 C109.614364,227.337295 120.12472,228.31636 129.136717,225.144074 C134.585097,223.402535 139.409043,220.045911 143.134212,216.146486 L237,117.889855 Z" id="Path-Copy" fill="#C4C3C6" fill-rule="nonzero"></path>
                <path d="M80,213.466089 L81.7497257,210.011816 L106.287079,221.743287 C117.157443,226.346873 128.944126,224.765541 136.354885,217.212957 L229.142751,122.649352 L176.950902,89.5057565 L180.5504,86 L240,120.216637 L145.578394,218.178992 C141.831167,222.066738 136.978655,225.413309 131.498014,227.149633 C122.432653,230.312417 111.860061,229.336285 102.44627,224.866759 L80,213.466089 Z" id="Path" fill="#FFFFFF" fill-rule="nonzero"></path>
            </g>
        </g>
    </g>
</svg>