<?xml version="1.0" encoding="UTF-8"?>
<svg width="249px" height="296px" viewBox="0 0 249 296" version="1.1" xmlns="http://www.w3.org/2000/svg" xmlns:xlink="http://www.w3.org/1999/xlink">
    <!-- Generator: Sketch 61 (89581) - https://sketch.com -->
    <title>monero</title>
    <desc>Created with Sketch.</desc>
    <g id="Illustrations" stroke="none" stroke-width="1" fill="none" fill-rule="evenodd">
        <g id="Other" transform="translate(-656.000000, -4015.000000)">
            <g id="monero" transform="translate(662.000000, 4020.000000)">
                <g id="Group-2" transform="translate(55.000000, 0.000000)">
                    <path d="M124.725321,10.92 C156.977244,27.84 164.061538,85.62 142.321795,134.74 C132.038141,158 116.746795,177 99.4782051,188.34 C93.0238058,192.762488 85.5548217,195.454076 77.7782051,196.16 C73.5492878,196.523389 69.289761,196.165012 65.1794872,195.1 C53.0510684,193.7 43.7013889,191.666667 37.1304487,189 C30.321047,186.26 23.4586538,181.183333 16.5432692,173.77 C-3.46762821,150.44 -5.31570513,105.96 12.8471154,64.85 C34.586859,15.77 77.6391026,-11.94 109.88109,5 C113.964744,7.12 120.065385,8.47 124.725321,10.92 Z" id="Path" stroke="#000000" stroke-width="9" fill="#000000" fill-rule="nonzero"></path>
                    <path d="M66.9977564,184.4 C77.1621795,183.86 102.190705,167.58 117.670833,141.26 C132.028205,116.84 137.383654,82.98 134.770513,64.57 C131.690385,42.9 127.765705,29.64 109.930769,17.63 C114.163462,18.13 118.873077,20.48 122.688462,22.49 C149.853205,36.64 155,86 135.2375,130.32 C125.520192,152.17 111.391346,169.19 96.2589744,179.15 C82.9051282,187.95 77.9173077,187.02 74.4,186.15 C70.1971154,185.2 67.7330128,184.6 66.9977564,184.4 Z" id="Path" fill="#C4C3C6"></path>
                    <path d="M118.237179,122 C137.552564,78 131.422115,30.81 104.535577,16.57 C77.6490385,2.33 40.1907051,26.45 20.8653846,70.43 C1.5400641,114.41 7.68044872,161.62 34.5669872,175.86 C61.4535256,190.1 98.911859,166 118.237179,122 Z" id="Oval" fill="#D8D8D8"></path>
                    <path d="M118.237179,122 C137.552564,78 131.422115,30.81 104.535577,16.57 C77.6490385,2.33 40.1907051,26.45 20.8653846,70.43 C1.5400641,114.41 7.68044872,161.62 34.5669872,175.86 C61.4535256,190.1 98.911859,166 118.237179,122 Z" id="Oval-Copy" fill="#C4C3C6"></path>
                    <path d="M92.3342949,24.16 C70.4157051,21.65 44.9003205,43.16 31.8842949,77.07 C17.0599359,115.68 24.0746795,155.7 47.5532051,166.45 C48.838811,167.043989 50.167426,167.538749 51.5275641,167.93 C48.434838,167.586601 45.416229,166.74944 42.5852564,165.45 C19.1067308,154.69 12.0919872,114.68 26.9262821,76.07 C40.9358974,39.6 69.4221154,17.43 92.324359,24.16 L92.3342949,24.16 Z" id="Path" fill="#FFFFFF"></path>
                    <path d="M41.4724359,178.14 C66.3817308,182.4 96.9544872,158.89 114.004487,120.26 C133.449038,76.26 128.014103,29.26 101.852885,15.31 C100.425611,14.5366336 98.9446072,13.8682217 97.4214744,13.31 C100.922605,13.9119206 104.30653,15.0696756 107.446795,16.74 C133.608013,30.74 139.052885,77.68 119.598397,121.74 C101.226923,163.32 67.2163462,187.38 41.4525641,178.15 L41.4724359,178.14 Z" id="Path" fill="#FFFFFF"></path>
                    <path d="M74.4397436,159.72 C86.8099359,150.21 97.8785256,134.43 104.674679,114.72 C118.127885,75.64 109.692308,35.86 85.7964744,25.88 C81.8534713,24.2305805 77.6043837,23.4530349 73.336859,23.6 C81.4147436,21.6 89.3733974,22.27 96.4875,26.15 C119.340064,38.62 124.794872,79.36 108.599359,117.15 C100.213462,136.69 87.7339744,151.61 74.4,159.74 L74.4397436,159.72 Z" id="Path" fill="#000000" fill-rule="nonzero"></path>
                    <path d="M27,126.586544 C30.8268647,125.65257 34.7124536,124.688789 38.6469794,123.744879 C39.0188998,123.655456 39.1265609,123.47661 39.2048599,122.880456 C41.7397908,104.787197 42.238947,85.511566 44.7738778,67.4282423 C44.7738778,67.179845 46.8879514,68.1535625 46.9271009,67.8554857 C47.1032737,67.8554857 47.1522106,68.0641394 47.2305096,68.193306 C54.2186973,79.3811205 61.4287321,90.9365631 68.8606142,102.859634 C69.1738103,103.356428 69.1738103,103.356428 69.6533918,102.641044 C81.5548431,85.0743867 94.356733,64.5865772 101.707054,47.0497276 C101.824502,46.7913944 106.874789,47.6359453 107.031387,47.387548 L107.139048,47.387548 L107.031387,48.1724834 C104.225672,68.1701223 101.419957,88.1710731 98.6142423,108.175336 C98.477219,109.168925 107.628417,103.018608 108.323321,102.849698 C113.21701,101.657391 108.959501,106.506106 114,105.274055 C112.526025,109.526422 110.813701,113.689734 108.871414,117.7436 C108.333108,118.876292 107.755653,119.989112 107.217347,121.121803 C107.099835,121.503373 106.789734,121.791629 106.404995,121.876931 C99.5146811,123.380563 92.7744403,124.870947 86.1842727,126.348083 C85.7438407,126.447441 81.0850489,123.734943 81.1829227,123.079174 C82.8957138,110.927578 89.1596355,101.349378 90.8626392,89.1977819 L90.9996625,88.2041927 C90.7647654,88.5221413 90.6179548,88.730795 90.4711441,88.9493846 C82.3606705,100.792968 74.4394195,112.36497 66.7073912,123.665392 C66.3648329,124.15225 62.9098886,121.111867 62.6945663,120.754175 C57.8008775,112.61668 56.3327708,107.738157 51.6446169,99.9484172 C51.5650616,99.8067761 51.4931806,99.6608326 51.4292946,99.5112379 L51.3216335,99.600661 L51.2237597,100.316045 L46.437732,134.396155 C46.3202835,135.210898 46.3202835,135.210898 45.8113399,135.320193 L29.3293959,138.976601 C29.0357746,139.046153 28.8889639,138.976601 28.7910901,138.549358 C27.8839833,134.701812 27.3011614,130.782858 27.0489369,126.834941 C27.0267308,126.753452 27.0103756,126.670435 27,126.586544 Z" id="Path" fill="#000000" fill-rule="nonzero"></path>
                    <path d="M25.0036869,124.027386 C28.6492919,123.115641 32.3536969,122.173839 36.107102,121.252075 C36.4697025,121.161903 36.5677027,120.991577 36.6461028,120.420484 C39.0895728,102.860217 41.5363094,85.2999506 43.9863128,67.7396837 L44.0941129,66.9682076 C44.2607132,66.9682076 44.3097132,67.1786102 44.3881133,67.2988402 L64.9681414,100.923178 C65.2621418,101.414117 65.2621418,101.414117 65.7227424,100.712775 C77.1038246,83.6401079 88.8638406,65.9763096 101.00279,47.7213803 C101.159591,47.4909394 101.296791,47.2404601 101.443791,47 L101.551591,47 L101.443791,47.761457 L93.32938,106.042974 C93.1921798,107.044891 93.1235797,106.914642 93.7801806,106.744316 L108,103.207549 C106.592488,107.336936 104.956514,111.381186 103.099993,115.320726 C102.590393,116.422835 102.031792,117.504905 101.522191,118.607014 C101.406265,118.971983 101.113003,119.249033 100.74799,119.338414 C94.1754478,120.807892 87.7433724,122.267351 81.4517638,123.716791 C81.0303633,123.806964 80.9421631,123.716791 81.0303633,123.035488 C82.6832988,111.232905 84.3166344,99.4336609 85.9303699,87.6377571 L86.0577701,86.695955 C85.8421698,87.0065493 85.7049696,87.2169519 85.5579694,87.4173353 C77.8028922,98.8859463 70.2144152,110.107418 62.7925384,121.081749 C62.478938,121.56267 62.3417378,121.592727 62.1359375,121.242056 C57.4907312,113.34695 52.9173916,105.625509 48.4159188,98.0777332 C48.3407776,97.9424632 48.2752744,97.8018302 48.2199186,97.656928 L48.1121184,97.7370813 L48.0141183,98.4384233 L43.398312,131.501687 C43.2905118,132.293202 43.2905118,132.293202 42.8005112,132.403413 C37.4562372,133.612393 32.2295634,134.804674 27.1204898,135.980257 C26.8362894,136.040372 26.6990892,135.980257 26.6108891,135.559451 C25.7624039,131.842315 25.2247316,128.058125 25.0036869,124.247807 C24.998771,124.17442 24.998771,124.100774 25.0036869,124.027386 Z" id="Path" fill="#C4C3C6" fill-rule="nonzero"></path>
                    <path d="M27.4195698,125.467786 L27.4195698,125.247646 C30.784116,124.337067 34.1937633,123.39647 37.6485118,122.475885 C37.9822603,122.385828 38.0724626,122.21572 38.1446245,121.635351 C40.3936687,104.104211 42.6457197,86.586414 44.9007775,69.0819583 C44.9007775,68.8418057 44.9639191,68.6116595 45,68.3314814 C44.6121301,67.6610554 44.2242601,66.9706167 43.8454104,66.3302098 C43.7732486,66.2101335 43.7281474,66.0300191 43.5748035,66 L43.475581,66.7704896 C41.2265367,84.3016289 38.9744857,101.839439 36.719428,119.38392 C36.6472661,119.954283 36.5570638,120.124391 36.2233153,120.214448 C32.7685668,121.135033 29.3589195,122.075631 26.0033936,122.986209 C25.9988688,123.059503 25.9988688,123.133055 26.0033936,123.206349 C26.2156457,127.0331 26.7226271,130.832693 27.5187924,134.563565 C27.5999744,134.943807 27.7262577,135.043871 27.9878444,134.983832 L28.5380785,134.843743 C27.9746487,131.750059 27.6009555,128.617556 27.4195698,125.467786 L27.4195698,125.467786 Z" id="Path" fill="#FFFFFF" fill-rule="nonzero"></path>
                    <path d="M67.2158876,99.665607 C67.5077006,100.141466 67.5077006,100.141466 67.9648744,99.4574186 L101.202378,49.7103098 C101.426101,48.0646303 101.659551,46.4189507 101.893002,44.7534437 L102,44 L101.893002,44 C101.747095,44.2379296 101.610916,44.4857729 101.455282,44.7137887 C89.3936774,62.7832182 77.7211564,80.2611282 66.4377195,97.147519 C66.2042691,97.4944996 66.097271,97.6729468 66,97.6927742 L67.2158876,99.665607 Z" id="Path" fill="#FFFFFF" fill-rule="nonzero"></path>
                    <path d="M48.3341032,99.4516822 C48.247883,99.3118758 48.1832179,99.1505607 48.1077752,99 L48,99.0860347 L48,99.1720694 C52.4690788,106.571055 57.0279702,114.099092 61.6766744,121.756181 C61.7952271,121.949759 61.8922248,122.02504 62,121.992777 C57.3584809,114.335687 52.8031819,106.821989 48.3341032,99.4516822 Z" id="Path" fill="#FFFFFF" fill-rule="nonzero"></path>
                    <path d="M87.8849828,88.9770314 L88,88 L87.5487786,88.7587584 C86.9913874,89.7150019 86.4339962,90.6608514 85.8677576,91.606701 C84.5937206,102.160026 83.3137853,112.713351 82.0279517,123.266675 C81.9483244,123.931888 82.0279517,124.06701 82.4083933,123.973464 L83.6735828,123.640858 C85.0773828,112.082784 86.4811828,100.528175 87.8849828,88.9770314 Z" id="Path" fill="#FFFFFF" fill-rule="nonzero"></path>
                    <path d="M92.1107179,109.180406 C91.9468667,110.174726 91.8460351,110.055408 92.7031032,109.886373 L107.62617,106.982959 C108.10512,105.98864 108.571466,104.99432 109,104 L92.4762322,107.181823 C92.3501928,107.867904 92.2367573,108.524155 92.1107179,109.180406 Z" id="Path" fill="#FFFFFF" fill-rule="nonzero"></path>
                </g>
                <path d="M233.134871,169.458826 C228.799147,165.394341 223.16168,163.580956 216.39672,164.0812 L215.535725,164.164574 C210.021258,164.800301 206.20828,167.457849 203.143549,169.594309 L202.436303,170.073709 C200.518369,171.190766 198.478414,172.07569 196.358089,172.710414 C195.240845,173.096019 194.092852,173.502467 192.934609,173.961024 C188.834633,175.565975 184.867907,177.368938 180.99343,179.109372 C174.320719,182.121259 167.935007,184.997664 161.518545,186.800627 C159.321628,184.080644 156.467917,181.987077 153.236594,180.724744 C147.547877,178.39027 141.172415,177.681591 133.761709,178.536175 C129.684581,179.074996 125.637359,179.826352 121.636031,180.787274 L117.884553,181.600171 C115.404067,182.121259 112.841583,182.642347 110.412347,182.934156 C108.634652,183.175133 106.83503,183.199624 105.051629,183.007108 C103.605721,182.790803 102.182015,182.44199 100.797904,181.964933 L100.500656,181.871137 C92.5467026,179.390759 86.3352394,177.31683 83.0040091,176.201702 L80.5747734,175.388805 C75.2021079,173.721631 69.544184,173.224478 63.9698716,173.929759 C52.3156906,175.274166 41.9120021,180.88107 35.2700414,185.39369 C31.5083136,187.780272 23.2776123,193.720673 20.4998788,199.244204 C19.9668819,200.057101 18.6446397,202.005969 17.9373939,203.006457 C15.1084106,205.497257 9.54269356,211.604406 0,222.557671 L36.9612814,284.160669 C37.6773791,285.335337 38.9530187,286.03511 40.3117798,285.998641 C41.6705408,285.962172 42.9080937,285.194944 43.5622423,283.983499 L43.5622423,283.920969 C51.6801943,269.069967 59.2138998,260.534549 66.0096096,258.648211 C66.9246937,258.419395 67.8522005,258.2454 68.7873432,258.127123 C69.8123371,257.960375 70.9808302,257.814471 72.0980736,257.68941 C81.0941279,256.810251 90.1401488,256.580397 99.1681635,257.001574 C101.002903,257.064104 102.868392,257.178744 104.84663,257.314226 C109.869221,257.773353 114.922199,257.773353 119.944791,257.314226 C124.510756,256.85612 128.945714,255.500498 133.003213,253.322694 C136.182424,251.515064 139.262006,249.531968 142.228159,247.382293 C144.811144,245.589751 147.260879,243.880583 149.751614,242.504912 C154.979083,239.607663 160.339802,237.085599 166.028518,234.407207 L167.924757,233.521358 C186.234285,224.724481 203.647508,214.116074 219.912449,201.849643 C227.087407,197.003526 235.851105,191.74054 237.726844,182.371381 C238.762088,177.358517 236.7736,172.86674 233.134871,169.458826 Z" id="Path" stroke="#000000" stroke-width="9" fill="#000000" fill-rule="nonzero"></path>
                <path d="M221.163691,174.093719 C218.36777,171.441789 214.83608,170.783868 211.196477,171.057158 C207.350859,171.34057 204.839435,173.324457 201.788447,175.460172 C198.73746,177.595887 194.636775,178.678927 191.075655,180.106111 C179.185632,184.853269 167.648778,191.634922 155.052417,194.074293 C154.247977,194.236243 153.718223,194.205878 153.394485,193.193691 C152.380362,190.130497 150.063813,187.714262 147.106115,186.634718 C137.629414,182.69731 127.387513,185.905943 117.871571,187.920196 C113.064548,188.932383 107.855305,190.035667 102.93056,189.387867 C100.992952,189.09964 99.0850449,188.628688 97.2308049,187.980927 C87.0085246,184.741928 79.7489398,182.201338 78.110628,181.705367 C56.7635244,174.792129 31.3451672,197.110855 30.1973679,200.936922 C30.1286962,201.159603 26.7735907,206.16993 26.5675755,206.321758 C24.8409715,207.678088 19.6219186,213.467799 13,221.109811 L23.2026598,238.316993 C30.7791619,251.247664 46.8553846,255.771764 59.7458404,248.600814 C61.2645358,247.731364 62.8782588,247.05178 64.5528628,246.57644 C65.7442226,246.261095 66.9531326,246.021097 68.172845,245.857787 C78.267592,244.349628 88.4800621,244.369872 98.6532912,244.693772 C108.169233,244.987306 118.205119,247.001558 126.975482,242.14306 C132.528084,239.106499 137.413588,234.794581 142.98581,231.656801 C148.803288,228.387437 154.836592,225.583679 160.840465,222.688823 C168.688665,218.953853 176.536864,215.137907 183.717967,210.178191 C188.475938,206.898704 192.978843,203.234587 197.638712,199.793151 C202.769472,195.977205 230.277413,182.717554 221.163691,174.093719 Z" id="Path" fill="#C4C3C6" fill-rule="nonzero"></path>
                <path d="M220.899207,176.008764 C218.106838,173.429657 214.579635,172.789803 210.944657,173.055589 C207.103925,173.331218 204.595692,175.260626 201.548581,177.337693 C198.501469,179.41476 194.405995,180.468059 190.849399,181.856052 C178.974483,186.47285 167.452288,193.068275 154.871931,195.44066 C154.068513,195.598162 153.539433,195.568631 153.216106,194.584239 C152.203271,191.605162 149.889665,189.255278 146.935725,188.205379 C137.471065,184.376095 127.242177,187.496617 117.738325,189.455557 C112.93741,190.439949 107.734786,191.512936 102.816298,190.882925 C100.881152,190.602613 98.9756688,190.144594 97.1237847,189.514621 C86.9144924,186.364567 79.6641313,183.893743 78.0279011,183.411391 C56.7079203,176.687995 31.3218585,198.393835 30.1755177,202.114837 C30.1069332,202.331403 26.7560906,207.204143 26.5503371,207.351801 C24.8259269,208.670886 19.6135051,214.301608 13,221.733767 L23.4836303,239 C30.9103516,238.182955 36.3775158,237.877793 34.1828119,234.146948 C26.1388301,220.365462 39.0817045,207.568368 39.2972558,207.440397 C53.8077758,199.2601 56.0122775,184.956886 77.3322584,191.690127 C81.8576196,192.492488 86.3253258,193.59412 90.7062353,194.987839 C92.4796345,195.539099 103.129827,196.021451 105.402913,195.765509 C109.410208,195.312689 114.847978,193.501408 119.658691,192.507172 C129.152745,190.538388 140.851301,186.010186 151.481898,193.786881 C154.078311,195.676914 152.794801,197.084594 153.833366,200.224804 C154.156693,201.209196 154.685773,201.209196 155.489192,201.091069 C168.069548,198.708841 179.591744,192.123259 191.46666,187.496617 C195.023256,186.108625 199.050145,185.104545 202.165841,182.978259 C205.281537,180.851972 207.721185,178.971784 211.561917,178.696154 C215.196896,178.430368 218.724098,179.070223 221.506669,181.64933 C221.751614,181.87574 221.967165,182.092306 222.163121,182.299028 C223.593598,179.778985 223.201686,178.144894 220.899207,176.008764 Z" id="Path" fill="#FFFFFF" fill-rule="nonzero"></path>
                <path d="M154.895231,193.338088 C158.321065,191.032008 163.646859,190.062069 165.369621,192.150407 C167.289269,194.456487 164.247365,199.840637 163.873279,200.523554 C159.23659,208.758137 151.075622,207.916864 137.83497,215.795143 C123.974123,224.049521 123.649259,228.087634 117.161831,227.998558 C110.211719,227.909482 108.213316,223.23794 93.318812,219.229519 C88.3966363,217.903276 84.9609576,217.438101 85,216.844261 C85.0987785,215.557607 103.409272,220.803195 121.965875,212.687379 C130.176064,209.114441 133.552677,205.224788 141.290337,203.096861 C145.050879,202.057641 149.687569,199.711972 151.941925,196.168726 C152.693904,195.007022 153.705154,194.037775 154.895231,193.338088 L154.895231,193.338088 Z" id="Path" fill="#000000" fill-rule="nonzero"></path>
            </g>
        </g>
    </g>
</svg>