<?xml version="1.0" encoding="UTF-8"?>
<svg width="308px" height="284px" viewBox="0 0 308 284" version="1.1" xmlns="http://www.w3.org/2000/svg" xmlns:xlink="http://www.w3.org/1999/xlink">
    <!-- Generator: Sketch 61 (89581) - https://sketch.com -->
    <title>notice</title>
    <desc>Created with Sketch.</desc>
    <g id="Illustrations" stroke="none" stroke-width="1" fill="none" fill-rule="evenodd">
        <g id="Other" transform="translate(-1095.000000, -1986.000000)">
            <g id="notice" transform="translate(1093.000000, 1982.000000)">
                <g id="Group-17-Copy" transform="translate(139.000000, 70.000000)">
                    <g id="Group-16-Copy-2">
                        <g id="Group-15" transform="translate(0.307941, 0.620291)">
                            <g id="Group-19" transform="translate(88.285517, 110.240549) scale(-1, 1) rotate(-4.000000) translate(-88.285517, -110.240549) translate(7.785517, 5.740549)">
                                <path d="M21.7994582,32.8460649 C23.2276029,25.5318631 22.7693072,22.432961 29.7126605,19.8494028 L42.0157376,21.1708709 C46.7436932,19.411642 53.0427775,13.4208948 57.4845236,15.318709 C59.2830232,16.0871496 64.6673921,14.2587856 66.3210255,13.8771246 C70.0130125,5.72919799 92.6942537,10.7351235 97.0939066,7.19753541 C100.027008,4.83914335 104.674965,4.080877 111.037777,4.92273634 C117.952309,2.59460336 121.847091,1.28322441 122.722124,0.9885995 C124.034673,0.546662134 125.351617,0.24805757 126.656781,0.0823992859 C127.526891,-0.0248000398 134.233812,4.46248086 146.777544,13.5461857 C147.091421,14.9562859 147.282721,16.023876 147.351444,16.7489558 L160.541632,155.914448 C161.469226,165.701201 155.15322,175.170186 145.69629,178.17065 L40.1373258,207.2864 C37.2371415,208.206561 32.01871,209.629997 26.5503564,206.336306 C18.7975045,201.66662 10.4020709,197.977082 8.3859694,183.801916 C6.36986789,169.626749 4.35621898,126.504266 0.799994904,79.9672215 C0.191078357,73.5427357 2.71733028,67.014619 7.57224156,62.4669809 L17.9057708,52.7874732 L21.7994582,32.8460649 Z" id="Path" fill="#000000" fill-rule="nonzero"></path>
                                <path d="M46.1611555,63.5769746 C45.8265407,65.2906946 44.9439634,66.8781736 43.6540759,68.0864226 L32.1593216,78.8536602 C30.2800011,80.6140362 29.3020971,83.1410491 29.5378067,85.6279468 C33.1885479,124.145762 35.9266038,153.034123 37.7519744,172.293031 C38.1281329,176.261759 40.7150363,181.014235 45.5126846,186.550456 C45.5482489,186.925684 60.2845765,191.177325 64.3637343,189.883103 L142.802652,166.486188 C146.463399,165.324718 139.747991,159.500429 139.388922,155.712008 C143.8924,140.234306 145.743289,128.266218 144.941589,119.807742 C143.987641,109.74294 140.722003,109.099909 139.31502,94.2552748 C138.807142,88.8968137 140.354922,71.4152623 139.788013,65.4339937 C139.008293,57.2074111 137.713087,43.5421016 135.902395,24.438065 C135.862491,24.0170509 135.788187,23.6023798 135.68024,23.1982831 C134.59788,19.1464864 130.428856,16.9701421 126.368465,18.337282 L113.948336,22.5191578 C113.11354,22.8002348 112.246942,22.9373845 111.385712,22.9247242 L94.7706259,22.6804797 C92.372815,22.6452315 90.0260957,23.7693815 88.4420147,25.7120771 C83.5012324,31.7713855 79.3954659,35.2555944 76.1247149,36.1647036 C71.6779804,37.4006789 67.3029994,37.0993517 62.9997719,35.260722 C61.2803866,34.5260843 59.3096239,34.4962994 57.4794478,35.1772911 L55.6199852,35.869178 C52.9322402,36.8692633 50.9089111,39.2614809 50.3560809,42.0927849 L46.1611555,63.5769746 Z" id="Path" fill="#C4C3C6" fill-rule="nonzero"></path>
                                <path d="M120.62613,17.165345 L112.723913,23.1493575 L93.7713765,26.2412689 C92.1728359,26.2177701 89.2661113,25.3868068 85.0512028,23.748379 L75.5120886,38.0639351 C67.7788212,36.1117474 62.4777783,34.522777 59.6089599,33.2970239 C57.8895746,32.5623862 55.9188119,32.5326013 54.0886359,33.213593 L52.2291732,33.9054799 C49.5414282,34.9055652 47.5180991,37.2977828 46.9652689,40.1290868 L42.7703435,61.6132765 C42.4357288,63.3269965 41.5531515,64.9144755 40.263264,66.1227245 L28.7685096,76.8899621 C26.8891891,78.6503381 25.9112852,81.177351 26.1469948,83.6642488 C27.9995705,108.080603 29.1694037,129.439592 29.6564943,147.741216 C30.1435849,166.042839 29.806083,180.307738 28.6439886,190.53591 C26.4851651,190.129133 25.1393144,187.114631 24.6064365,181.492404 C24.5703727,181.111906 24.4538249,180.75988 24.4182606,180.384652 L14.9943542,80.9559982 C14.7586446,78.4691005 15.7365486,75.9420876 17.6158691,74.1817115 L29.1106234,63.414474 C30.4005109,62.206225 31.2830882,60.6187459 31.6177029,58.905026 L35.8126284,37.4208362 C36.3654586,34.5895323 38.3887877,32.1973146 41.0765327,31.1972293 L42.9359953,30.5053425 C44.7661713,29.8243508 46.736934,29.8541357 48.4563194,30.5887733 C52.7595469,32.4274031 57.1345279,32.7287303 61.5812624,31.492755 C64.8520133,30.5836457 68.9577799,27.0994368 73.8985622,21.0401285 C75.4826432,19.0974328 77.8293625,17.9732829 80.2271734,18.0085311 L96.8422595,18.2527756 C97.7034895,18.2654358 98.5700873,18.1282862 99.4048831,17.8472092 L111.825012,13.6653333 C115.403357,12.4604994 119.066071,14.0077323 120.62613,17.165345 Z" id="Path" fill="#C4C3C6" fill-rule="nonzero"></path>
                                <path d="M57.4872144,62.3055109 L30.3247181,92.2989663 L29.4862873,83.4529484 C29.2590148,81.0550679 30.2362879,78.6129005 32.106111,76.9061113 L43.5427748,66.4666345 C44.8261437,65.2951653 45.7062966,63.7597509 46.0429675,62.1050832 L50.2636706,41.3612069 C50.819898,38.6274655 52.8343317,36.310512 55.5044328,35.3334076 L57.3516888,34.6574195 C58.5637966,34.2138573 61.4992445,33.8598449 66.1580326,33.5953823 L75.8533492,35.524037 L90.471206,28.6124864 L93.6451988,21.815297 C102.490681,22.6729522 107.198317,23.1045284 107.768107,23.1100255 C108.622792,23.1182712 112.59829,22.4617332 113.427527,22.1867493 L125.764946,18.0955273 C129.319462,16.9168115 132.950344,18.3924667 134.490159,21.4312471 L124.488602,24.7478715 C123.659366,25.0228554 118.994787,25.1232881 118.140102,25.1150424 L104.680737,30.8211452 L99.1665733,27.9453808 L86.9144247,38.0851592 L72.5007308,40.4366051 L65.5299776,40.7461957 L60.2391014,45.3513103 L57.4872144,62.3055109 Z" id="Path" fill="#FFFFFF" fill-rule="nonzero"></path>
                                <path d="M50.1990448,79.169221 L121.183519,61.0231074 C122.659136,60.6458882 124.078677,61.5288668 124.354154,62.9952953 C124.355068,63.0001583 124.355968,63.0050248 124.356854,63.0098945 C124.626124,64.4888346 123.643195,65.9903332 122.157067,66.3702397 L51.1725922,84.5163533 C49.6969756,84.8935725 48.2774341,84.0105939 48.0019576,82.5441653 C48.0010441,82.5393023 48.000144,82.5344359 47.9992573,82.5295661 C47.7299881,81.050626 48.7129162,79.5491274 50.1990448,79.169221 Z" id="Rectangle" fill="#000000"></path>
                                <path d="M53.3129584,112.023138 L124.297433,93.8770243 C125.77305,93.4998051 127.192591,94.3827838 127.468068,95.8492123 C127.468981,95.8540753 127.469881,95.8589417 127.470768,95.8638115 C127.740037,97.3427516 126.757109,98.8442502 125.27098,99.2241566 L54.2865058,117.37027 C52.8108892,117.747489 51.3913477,116.864511 51.1158712,115.398082 C51.1149577,115.393219 51.1140576,115.388353 51.1131709,115.383483 C50.8439017,113.904543 51.8268298,112.403044 53.3129584,112.023138 Z" id="Rectangle-Copy-5" fill="#000000"></path>
                                <path d="M51.7560016,95.5961795 L122.740476,77.4500658 C124.216093,77.0728466 125.635634,77.9558253 125.911111,79.4222538 C125.912024,79.4271168 125.912924,79.4319832 125.913811,79.436853 C126.18308,80.9157931 125.200152,82.4172917 123.714024,82.7971982 L52.729549,100.943312 C51.2539324,101.320531 49.8343909,100.437552 49.5589144,98.9711238 C49.5580009,98.9662608 49.5571008,98.9613944 49.5562141,98.9565246 C49.2869449,97.4775845 50.269873,95.9760859 51.7560016,95.5961795 Z" id="Rectangle-Copy-4" fill="#000000"></path>
                                <path d="M75.8166392,125.424208 L124.128361,113.017265 C125.611485,112.636384 127.039653,113.522347 127.318263,114.996119 C127.319431,115.002297 127.320577,115.008481 127.321702,115.01467 C127.592422,116.504357 126.603231,118.016668 125.10674,118.400982 L76.7950189,130.807925 C75.3118946,131.188807 73.8837267,130.302844 73.6051167,128.829071 C73.6039488,128.822893 73.6028024,128.81671 73.6016777,128.81052 C73.3309577,127.320833 74.320149,125.808522 75.8166392,125.424208 Z" id="Rectangle-Copy-7" fill="#000000"></path>
                            </g>
                        </g>
                    </g>
                    <path d="M62.3775288,115.25573 C63.7637523,115.615047 64.901632,116.134189 65.99856,116.758409 C66.5621802,117.398249 67.2315335,117.599143 68.061247,117.537536 C68.8101249,117.481532 69.5686615,117.196528 70.4072652,117.401438 C69.607421,118.246941 69.2870344,118.062722 68.8822925,119.154454 C68.7400536,119.537879 66.542383,119.626207 66.1331813,119.753924 C64.5151383,120.258356 63.3249272,119.963646 61.721019,119.990781 C60.5635945,120.010474 56.6729743,122.956745 55.6385623,123.949846 C57.9566913,123.075736 64.2149352,120.531675 66.5258935,121.362392 C66.6711766,121.414445 66.9030987,121.416081 67.0097104,121.325561 C67.6531736,120.779223 69.676542,121.519799 70.3218059,120.960595 C72.5650565,119.016573 73.1099911,118.322805 76.2195866,118.335465 C77.7662013,118.341583 78.361902,117.511965 79.8610773,117.916914 C80.1121373,117.984798 81.6424856,117.468339 81.8511398,117.807046 C82.2931837,118.524332 83.0814948,117.647116 83.774572,117.345195 C85.2810967,116.68878 86.5824126,117.986775 88.1940182,118.212004 C89.611832,118.410284 99.8411473,117.231986 101.245765,116.916957 C99.6231502,116.783073 97.0076466,116.02233 95.387226,115.893377 C93.8180986,115.768265 84.6909759,115.918369 83.1027514,116.190149 C83.9299321,115.948005 85.6687447,114.946903 88.3191893,113.186845 L97.222387,111.722225 C102.117813,111.299858 104.803449,111.052571 105.279295,110.980364 C105.074405,110.916395 102.192939,110.480629 96.6348964,109.673064 L87.0320022,111.474146 L83.2170394,114.798391 C82.153631,115.046315 81.5098144,115.198976 81.2855896,115.256373 C79.7903356,115.639188 80.2740962,115.122142 78.7432287,114.593056 C76.2769974,113.740737 76.1526659,115.684809 73.6165404,115.525722 C73.3043896,115.506102 71.2242408,114.905566 70.9748782,115.1265 C69.5745345,116.36652 67.8869705,116.475377 66.1816716,116.500618 C65.1321484,115.578557 63.9973049,114.935696 62.3775288,115.25573 Z" id="Path-Copy-9" fill="#000000" transform="translate(80.458928, 116.811455) rotate(-108.000000) translate(-80.458928, -116.811455) "></path>
                    <path d="M129.41372,69.0349673 C130.235984,69.4579694 130.910894,70.0689515 131.561489,70.8035467 C131.895712,71.5564123 132.292746,71.7928914 132.784961,71.7205784 C133.229222,71.6548404 133.679258,71.3196925 134.176694,71.5609301 C133.702041,72.5554798 133.512018,72.3386886 133.271699,73.6229987 C133.187243,74.0740587 131.883522,74.1775351 131.64075,74.3277095 C130.680793,74.9208358 129.974795,74.5738805 129.023319,74.6054853 C128.336707,74.6284229 126.028123,78.0938483 125.414291,79.2619967 C126.789627,78.2340939 130.502652,75.2423276 131.873393,76.2201023 C131.959568,76.2813707 132.097149,76.2833417 132.160411,76.1768686 C132.542235,75.5342458 133.742391,76.4059157 134.125286,75.7481572 C135.456416,73.4615192 135.779821,72.6454305 137.624494,72.6609443 C138.541976,72.6684506 138.895523,71.6925476 139.784784,72.169257 C139.933704,72.2491708 140.841641,71.6418771 140.965351,72.040397 C141.227437,72.8843512 141.695254,71.8524892 142.106462,71.4974265 C143.000294,70.7254743 143.772002,72.2527862 144.727994,72.5180835 C145.56903,72.751636 151.637503,71.3674428 152.470813,70.9971005 C151.508272,70.8392659 149.956855,69.9437532 148.995614,69.79172 C148.064801,69.6442169 142.650377,69.818991 141.708156,70.1384151 C142.198904,69.8537042 143.230603,68.6762847 144.803253,66.6061565 L150.085103,64.8848488 C152.989253,64.3889217 154.582476,64.0985311 154.864772,64.0136771 C154.74324,63.9383786 153.033983,63.4251374 149.737001,62.4739534 L144.040009,64.5909592 L141.776232,68.5010753 C141.145347,68.7925387 140.763391,68.9720111 140.630365,69.0394927 C139.743273,69.4895657 140.030353,68.8813719 139.122318,68.2586135 C137.659469,67.2553926 137.585325,69.5425125 136.080876,69.3548448 C135.895705,69.3317007 134.661839,68.6247735 134.513868,68.8846462 C133.682908,70.3432139 132.681789,70.4709446 131.670166,70.5002996 C131.047752,69.4153132 130.374668,68.6587796 129.41372,69.0349673 Z" id="Path-Copy-10" fill="#000000" transform="translate(140.139531, 70.867975) rotate(-83.000000) translate(-140.139531, -70.867975) "></path>
                </g>
                <g id="Group-20" transform="translate(108.500000, 112.500000) scale(-1, 1) translate(-108.500000, -112.500000) ">
                    <g id="Group-11" transform="translate(54.046665, 160.552075) scale(-1, 1) rotate(-286.000000) translate(-54.046665, -160.552075) translate(-0.453335, 120.052075)">
                        <g id="Group-7" transform="translate(54.454345, 40.573771) rotate(-98.000000) translate(-54.454345, -40.573771) translate(21.454345, -9.426229)">
                            <path d="M47.5899288,7.13195973 C48.5029896,7.5415199 50.9324949,10.2616965 51.3817347,11.0278355 C52.1024625,12.2582588 53.6095335,13.4646313 53.3436002,14.7069057 C53.1033576,15.8282292 51.5067164,16.661292 50.4988779,17.6114716 C49.2348268,18.8032045 47.9884816,20.0158512 46.6796454,21.1566941 C46.0595974,21.696965 45.9700271,22.0664405 46.5994489,22.6701496 C47.2031799,23.2487623 47.6656122,23.9730738 48.2200449,24.6074564 C49.0633242,25.5733213 49.5101337,26.6043672 49.7201724,27.9515587 C50.4315266,32.5159761 52.1847421,36.8130465 53.5584993,41.2021372 C56.0876428,49.2818008 61.2276189,62.1031484 62.8721697,70.419834 C63.7265585,74.4830194 64.8222314,78.5130915 65.3749282,82.6170587 C66.0897541,87.930884 57.1279972,98.9849374 56.8200562,99.3268765 C56.2007024,100.013543 40.774004,93.3616484 38.8291499,92.1835094 C36.5031016,90.7739253 17.646744,41.5625502 15.5904479,38.2738692 C14.6575984,36.7813274 13.925414,35.1622576 13.1244896,33.6432251 C14.2923741,32.4323212 14.3809028,32.4145446 13.0883838,32.0980504 C11.974658,31.8247779 10.8185772,31.6599082 9.67325884,31.5947271 C6.39005906,31.4089437 4.37820088,29.5633087 3.25197691,26.6468917 C2.59651733,24.9483499 1.43939511,19.7959087 0.268386028,19.7558241 C1.68762265,16.2252411 4.32230629,13.6870138 7.19931556,11.4851486 C10.5828479,8.89603123 13.664577,5.64909587 17.2314159,3.3266283 C18.2283405,2.6777212 21.8333309,0.128266736 24.6824081,0.217516976 C27.6533963,0.310586201 42.5795514,4.88269015 47.5899288,7.13195973 Z" id="Path" fill="#000000"></path>
                            <path d="M45.0424532,9.43725417 C41.8971395,13.0780956 38.5003107,16.5391607 34.2705993,18.7669667 C29.9457432,21.044592 25.0675244,21.4941768 20.2212081,21.3025077 C15.7611295,21.1253901 11.5235577,19.721866 7.27378505,18.4618411 C8.27755549,16.7126763 10.0440611,15.7539785 11.4526043,14.4383146 C14.2216883,11.8529815 17.1068149,9.37944401 20.0853904,7.04495978 C22.4606672,5.18344613 25.1394672,4.28391305 28.2849173,5.00296442 C33.9228818,6.29158139 39.5251843,7.69280168 45.0424532,9.43725417 Z" id="Fill-15-Copy" fill="#C4C3C6"></path>
                            <path d="M4.14140265,22.0333055 C11.2723148,24.5861028 18.3849261,24.8883496 25.5599759,24.4723357 C27.1094565,24.3823408 27.5824105,24.8941229 27.8802495,26.2263862 C28.5459018,29.202329 28.622694,29.1228619 25.3217047,29.21863 C19.2522477,29.3952236 13.3729771,27.928817 7.3799535,27.4659379 C6.71394238,27.4146578 6.52052643,26.9792865 6.29589122,26.5007856 C5.64387494,25.1104501 4.96315129,23.7316611 4.14140265,22.0333055" id="Fill-77-Copy" fill="#C4C3C6"></path>
                            <path d="M46.2931256,10.9999844 C46.6986084,12.4857828 47.0520816,13.8646594 47.4585276,15.225137 C47.6010726,15.7017728 47.4697642,16.0041397 47.1509642,16.2735275 C43.8753177,19.0396121 41.1281151,22.5104096 37.4733117,24.7703508 C36.9663778,25.0838265 36.4398601,25.3650173 35.9059583,25.6219077 C33.3677576,26.8442199 32.6367327,26.5133868 31.5326508,23.8115247 C31.3390592,23.337319 31.4877041,23.1585371 31.7814625,23.0064858 C37.3516347,20.1209818 41.4305418,15.1130078 46.2931256,10.9999844" id="Fill-79-Copy" fill="#C4C3C6"></path>
                            <path d="M43.7444555,28.0896617 C44.0314033,33.5591503 46.0001643,38.3906651 47.4790491,43.3468666 C48.6489132,47.2677694 49.9035088,51.1624989 51.1071942,55.0732232 C53.1856077,61.8262931 55.2992666,68.5684574 57.2954407,75.3462465 C57.8280386,77.1551109 57.9939414,79.077393 58.3083023,80.9509636 C58.3439038,81.162531 58.300114,81.4235367 58.2050581,81.6162012 C56.938714,84.1968139 55.7581695,86.8265016 54.1717682,89.2286271 C53.92149,89.6074126 53.7078812,90.2966423 53.2443501,90.1755909 C52.7925675,90.0574476 52.4999235,89.4987208 52.318,88.9349047 C51.4770935,86.32412 50.5874129,83.7296936 49.689544,81.1385388 C44.5857181,66.4109794 37.5334242,52.584944 30.8015434,38.6105934 C30.5925628,38.1772802 30.4287961,37.7094328 30.1564449,37.3211958 C29.5038701,36.3905903 29.6099624,35.8587638 30.6876187,35.2836787 C34.9854274,32.9898815 39.2291219,30.5899371 43.7444555,28.0896617" id="Fill-73-Copy" fill="#FFFFFF"></path>
                            <path d="M53.3284568,90.3882503 C48.7976726,87.8626638 45.6485328,86.9124762 41.3421066,84.5350455 C40.8674233,84.273084 36.3277201,74.1198023 36.231814,73.6565988 C34.1741608,63.7454329 29.2739476,55.0542095 24.5606994,46.2772848 C22.5224351,42.4824862 20.5960036,38.627662 18.5092668,34.5882503 C21.8431291,34.9921221 24.9889877,35.5417208 28.1545815,35.6999386 C30.4133952,35.8130504 31.3336783,36.9240448 32.1656724,38.8514569 C36.56385,49.0474843 41.5634315,58.9812032 45.40937,69.418374 C46.9348656,73.5580597 48.4544753,77.6991332 50.0616815,82.070941 L53.3284568,90.3882503 Z" id="Fill-75-Copy" fill="#B1B2B7"></path>
                        </g>
                    </g>
                    <g id="Group-10" transform="translate(143.661216, 107.835004) scale(1, -1) rotate(-183.000000) translate(-143.661216, -107.835004) translate(67.661216, 3.835004)">
                        <path d="M46.5494056,87.9126605 C41.5464892,85.3541582 36.0271208,84.1766848 30.6563595,82.6275257 C29.5121415,82.2974508 28.4487252,82.8181482 27.3824835,83.1915208 C26.4795402,83.507538 25.4449411,84.4977628 24.6239294,83.3810187 C23.7899217,82.2462807 22.4112097,81.1643998 23.0757037,79.4544205 C23.2610387,78.9764585 23.3220637,78.6289521 23.1502897,78.1701086 C19.7091602,68.9527526 21.7557564,59.9575083 24.6160188,51.1360172 C28.2210117,40.0174972 33.0357678,29.4039299 38.9461479,19.272823 C42.2251093,13.6531149 46.9505882,9.88902379 52.598787,6.87730107 C55.1482741,5.51820215 57.1428861,3.1626931 60.0658686,2.33160157 C60.2399027,2.28211845 60.4246727,2.04594901 60.5501129,2.08193673 C62.6447381,2.68810497 64.2590742,1.58485628 66.0598755,0.799311728 C68.3788239,-0.212843033 69.8242113,0.980937277 71.2662085,3.02717682 C76.208665,10.0380355 82.4332106,15.7297191 90.155693,19.6591288 C91.5406205,20.363701 93.5256267,19.1530514 93.787243,17.4790599 C94.2754426,14.3470032 94.6732349,11.2003265 95.1450483,7.79442574 C96.902341,9.10179231 98.378806,8.51418024 100.054732,7.57062708 C102.642642,6.11199961 105.394981,5.54800448 108.401025,6.83231641 C112.614007,8.63226496 116.928698,10.1639925 120.374913,13.3657754 C122.036713,14.9098737 122.091522,20.453108 120.330839,21.8099576 C115.794086,25.308077 115.596885,25.6308419 112.555808,30.9525267 C111.740446,32.3785403 112.017884,32.890803 113.396596,33.7033384 C124.392389,40.185065 136.322768,44.2977872 148.575224,47.5839163 C150.076551,47.986529 150.725788,48.5876365 151.151268,50.0383916 C151.809477,52.2833088 151.814373,55.6928614 150.986015,61.1967875 C149.971884,67.9350666 147.935468,76.8491238 147.122491,78.6953044 C144.211939,85.3057997 141.060678,91.741417 136.210889,97.1969312 C129.085095,105.212635 115.471049,117.376937 105.726267,122.419154 C104.37194,123.120019 100.329437,121.223032 95.0473452,118.011897 C95.0919509,118.3161 95.1256895,118.665682 95.1450483,119.079675 C94.4966062,118.188713 93.846428,117.463521 93.1950248,116.864568 C92.1164883,116.185062 90.9973139,115.461387 89.8481562,114.702986 C86.1520016,113.103867 82.4446093,113.379142 78.8182164,108.395819 C77.2389132,114.652623 71.7155895,117.748565 70.2170877,123.563394 C69.5978257,125.965849 70.3913304,127.896667 69.7661811,130.297597 C68.4986844,135.165507 65.749345,140.485807 64.0253147,145.224631 C63.4856959,146.708562 63.0641717,148.211049 61.7419642,149.309237 C60.6367345,150.226924 61.7351837,151.596707 61.2017804,152.826475 C58.3935022,159.302016 55.781295,165.861341 53.109193,172.3948 C51.0529909,177.424085 48.9837928,182.428066 45.3511127,186.629633 C44.4391286,187.684523 44.3170787,186.01278 43.064937,186.772459 C39.8961596,188.696115 29.1060431,195.275683 29.1196042,188.302499 C21.8350324,189.014382 18.1164653,187.590617 10.7787792,187.163825 C7.71510035,186.985011 7.07885866,186.345105 4.94129002,183.965979 C3.25519305,182.088994 2.82801834,181.071778 0.627729603,180.889028 C0.670673091,179.027226 1.82167159,177.627078 2.52063337,176.086354 C9.81989633,159.999278 20.7529695,146.354308 31.7979217,132.757695 C34.4794518,129.456481 45.6269801,98.9253751 51.4505664,88.7409242 C49.7433888,88.8378457 48.1900238,88.7517679 46.5494056,87.9126605 Z" id="Path" fill="#000000"></path>
                        <path d="M39.2341222,180.798308 C34.79139,180.737986 30.4089223,181.229987 26.0905193,181.85457 C21.1455841,182.568379 17.4710868,179.816192 13.2341222,177.53527 C17.6540516,174.314961 34.1436839,176.386641 39.2341222,180.798308" id="Fill-107" fill="#FFFFFF"></path>
                        <path d="M58.3068875,99.3076389 L58.3085954,99.3655756 C59.3276238,99.682259 58.9507541,98.9768933 58.9331061,98.5342116 C60.2794759,95.9270585 61.7880933,93.3851546 62.316394,90.4433184 C65.3347674,90.779689 68.2165112,91.6262403 71.0362025,92.7079135 C73.2421996,93.5539023 74.4177826,95.1918807 74.2202391,97.4727881 C73.5109043,105.634555 72.130377,113.667512 66.2291213,119.962366 C56.2420743,130.615976 49.5284423,143.484118 41.2020129,155.258213 C39.5125446,157.647237 36.8126712,167.402549 31.8330751,170.916598 C27.2584618,174.144854 20.3550809,171.243173 19.3492633,171.288689 C17.115371,171.389375 14.8871716,171.623934 12.2416829,171.832619 C15.8344694,167.129056 19.2063716,162.66624 22.6300791,158.243361 C29.0681749,149.925783 34.8014902,141.150899 39.9814561,132.025582 C40.7044539,130.752099 42.4282627,130.255418 42.5136561,128.57469 C42.6702108,128.381193 42.8256268,128.187695 42.9816122,127.994198 L42.9002038,128.069009 C43.7359208,127.525079 44.172566,126.778651 44.0974197,125.77179 L44.0740789,125.799914 C44.9041031,125.799352 45.1306803,125.252609 45.2120887,124.57368 C45.2120887,124.57368 45.1358039,124.669867 45.1358039,124.669304 C46.1515934,123.521794 47.106636,122.340477 48.005304,121.127779 C49.0798902,119.677689 50.0738704,118.182729 50.9947203,116.647047 C53.2696972,112.853114 55.0983253,108.81063 56.5933259,104.582132 C57.2804584,102.860905 59.3287623,101.571672 58.3068875,99.3076389 Z" id="Fill-13" fill="#C4C3C6"></path>
                        <path d="M131.079054,206.79038 C131.468114,207.5773 130.400488,207.872733 128.157672,207.771045 C128.621111,207.271469 129.782569,207.008392 131.079054,206.79038" id="Fill-43" fill="#FDFDFD"></path>
                        <path d="M138.302896,69.0162499 C141.648652,70.9310222 141.715128,70.9438918 139.958028,74.2144483 C135.436554,82.628927 135.053129,88.6616405 128.216272,95.4472758 C126.902532,96.751022 126.19158,97.2070534 124.607993,95.4159411 C114.920568,84.4650325 103.110427,76.087484 90.7481991,68.4037746 C81.1390798,62.4311621 71.5998163,56.3483188 61.9833734,50.3874568 C60.4409117,49.4317493 60.0736053,48.6349533 60.7935709,46.8348883 C64.1596076,38.41985 65.9989566,29.5873891 67.4011432,20.6793893 C67.7284516,18.5956336 67.7154944,16.4620781 68.0709705,14.3318799 C68.5086961,11.7042438 69.3520361,12.6179852 70.6443689,13.483046 C74.6886831,16.1884593 78.8901729,18.6784466 82.8037891,21.5562006 C97.8244814,32.6022323 109.433336,39.1751214 126.84997,45.4006494 C132.041272,47.2555502 137.514549,53.0794695 143.081044,51.5569401 C145.080948,51.010262 146.502852,51.9503021 146.43694,54.2824971 C146.292158,59.4622304 144.983141,62.2697829 143.248012,67.1020371 C142.618183,68.8567788 141.733718,67.5619853 141.103326,67.2547936 C132.781469,63.1969535 124.488343,59.0803609 116.180007,54.9956625 C115.346807,54.585514 114.462343,54.2800009 113.601538,53.9263667 C112.752002,53.2638622 111.940773,52.4569944 110.464223,53.2504331 C111.419671,53.7198936 112.211182,54.1087793 113.00213,54.4971054 C121.434968,59.3377528 129.863862,64.1856743 138.302896,69.0162499 Z" id="Fill-81" fill="#C4C3C6"></path>
                        <path d="M43.6842084,59.0558907 C43.9965339,57.042165 43.983502,54.9802096 44.3227459,52.9216084 C44.7404823,50.3822882 45.5471114,51.2656146 46.7830271,52.1020276 C50.6507855,54.7178477 54.6687614,57.1255187 58.4116057,59.9078568 C72.7768657,70.5876419 83.8785724,76.9433921 100.533243,82.9651664 C105.497429,84.7593592 110.73242,90.3894507 116.054327,88.9196744 C117.966357,88.3919381 119.326184,89.3008527 119.263865,91.5547575 C119.126994,96.5606114 108.304013,104.875405 100.358824,100.925321 C99.5620425,100.52869 99.2884934,108.352221 98.465335,108.010199 C97.6528565,107.369676 86.2800437,89.7802598 84.8684904,90.5466308 C85.7821763,91.00062 86.5390918,91.3766897 87.2954685,91.7522186 C95.3599264,96.4329179 42.3462021,67.6645133 43.6842084,59.0558907 Z" id="Fill-81-Copy-2" fill="#C4C3C6" transform="translate(81.462604, 79.633452) rotate(173.000000) translate(-81.462604, -79.633452) "></path>
                        <path d="M66.5170217,20.5810972 C66.8440976,18.462047 66.8311497,16.2923536 67.1863732,14.1260743 C67.6237879,11.4539315 68.466529,12.3831498 69.7579439,13.2628629 C73.7993856,16.0141002 77.9978912,18.5462627 81.9087278,21.4727598 C96.9187515,32.7058881 108.519361,39.3901082 125.923625,45.7210837 C131.111239,47.6074025 136.580628,53.5299668 142.14317,51.981649 C144.141654,51.4257112 145.562548,52.3816737 145.496683,54.7533712 C145.352004,60.0208383 65.115831,29.6399799 66.5170217,20.5810972 Z" id="Fill-81-Copy" fill="#FFFFFF"></path>
                        <path d="M107.303132,16.8482478 C107.391059,16.8087633 107.499367,16.788735 107.564002,16.7269331 C112.408737,12.0832124 112.996278,12.1123966 118.084414,17.5103285 C115.618956,17.4845778 115.11352,19.3266156 114.295389,20.877956 C113.583818,22.2272959 112.874577,23.5783526 112.15136,24.9213979 C109.793046,29.3018886 109.790717,29.3007441 105.348933,27.1313855 C96.1381133,22.6330135 95.968664,22.2358795 98.4347041,12.3470146 C98.650155,11.4812168 98.8964679,10.9713517 99.8444521,10.8969606 C100.901909,10.8134137 101.961695,10.5026878 103.005176,10.5610562 C108.570216,10.8734988 109.058183,11.6734891 106.752858,16.4270798 C106.556041,16.736089 106.323121,17.0697044 106.779062,17.3197729 C106.843697,17.355824 107.122619,17.0147694 107.303132,16.8482478" id="Fill-85" fill="#C4C3C6"></path>
                        <path d="M74.9089839,48.7126433 C64.3902283,48.5822485 54.0140582,49.653663 43.7895464,51.0135569 C32.0816195,52.5677232 23.3822435,46.5798398 13.3510662,41.6175102 C23.8164185,34.6094478 62.8574729,39.1141024 74.9089839,48.7126433" id="Fill-107" fill="#FFFFFF" transform="translate(44.130025, 44.736587) rotate(-248.000000) translate(-44.130025, -44.736587) "></path>
                        <path d="M67.4194206,122.137338 C67.5072149,121.843602 67.5950092,121.550458 67.6819943,121.257314 C67.7289258,121.313461 67.8098422,121.363106 67.8159109,121.428709 C67.8523233,121.799276 67.796491,122.116061 67.5209707,122.257314 C67.5213752,122.257314 67.4194206,122.137338 67.4194206,122.137338" id="Fill-119" fill="#B1B2B7"></path>
                    </g>
                </g>
            </g>
        </g>
    </g>
</svg>