<?xml version="1.0" encoding="UTF-8"?>
<svg width="187px" height="211px" viewBox="0 0 187 211" version="1.1" xmlns="http://www.w3.org/2000/svg" xmlns:xlink="http://www.w3.org/1999/xlink">
    <!-- Generator: Sketch 61 (89581) - https://sketch.com -->
    <title>notification</title>
    <desc>Created with Sketch.</desc>
    <g id="Illustrations" stroke="none" stroke-width="1" fill="none" fill-rule="evenodd">
        <g id="Other" transform="translate(-146.000000, -1133.000000)">
            <g id="notification" transform="translate(124.000000, 1092.000000)">
                <g id="Group-26" transform="translate(131.411603, 143.187121) rotate(-330.000000) translate(-131.411603, -143.187121) translate(46.411603, 27.687121)">
                    <path d="M89.2391563,57.3773439 C76.6652805,57.3773439 62.3131036,57.850326 58.3655197,46.6859134 C57.3120927,43.7066497 60.39668,32.0261632 60.39668,28.688672 C60.39668,12.8443559 73.3098965,5.00222086e-11 89.2391563,5.00222086e-11 C105.168416,5.00222086e-11 118.081633,12.8443559 118.081633,28.688672 C118.081633,33.139623 117.869155,49.5774539 116.050472,53.3366859 C111.395083,62.9594164 100.693603,57.3773439 89.2391563,57.3773439 Z" id="Path-Copy-16" fill="#000000" fill-rule="nonzero"></path>
                    <path d="M89.0085034,45.58125 C99.1365416,45.58125 107.346939,37.3782672 107.346939,27.259375 C107.346939,17.1404828 99.1365416,8.9375 89.0085034,8.9375 C78.8804652,8.9375 70.670068,17.1404828 70.670068,27.259375 C70.670068,37.3782672 78.8804652,45.58125 89.0085034,45.58125 Z" id="Path-Copy-17" fill="#C4C3C6" fill-rule="nonzero"></path>
                    <path d="M86.3001875,9.91967796 C94.9460737,9.91967796 101.954949,16.839048 101.954949,25.3745235 C101.954949,25.9240588 101.925897,26.4668953 101.869225,27.0016175 C101.045666,19.2304083 94.3894298,13.1733296 86.3001875,13.1733296 C78.2109451,13.1733296 71.5547092,19.2304083 70.7311496,27.0010811 C70.6744781,26.4668953 70.6454256,25.9240588 70.6454256,25.3745235 C70.6454256,16.839048 77.6543012,9.91967796 86.3001875,9.91967796 Z" id="Combined-Shape" fill="#F9F9F9" fill-rule="nonzero" transform="translate(86.300187, 18.460514) rotate(-19.000000) translate(-86.300187, -18.460514) "></path>
                    <path d="M89.0085034,42.9 C95.6781871,42.9 101.085034,37.4980357 101.085034,30.834375 C101.085034,24.1707143 95.6781871,18.76875 89.0085034,18.76875 C82.3388197,18.76875 76.9319728,24.1707143 76.9319728,30.834375 C76.9319728,37.4980357 82.3388197,42.9 89.0085034,42.9 Z" id="Path-Copy-19" fill="#000000" fill-rule="nonzero"></path>
                    <path d="M84.9829932,216.2875 C84.8198701,216.2875 84.6565753,216.2875 84.4931097,216.2875 C83.5688226,216.2875 82.6477404,216.280641 81.7300557,216.267018 L81.7300557,216.264352 C32.8693008,215.489184 2.91038305e-11,196.32574 2.91038305e-11,183.592986 C2.91038305e-11,174.42346 7.36789398,160.48613 15.3657499,133.205174 C18.5333457,122.400398 20.7444157,98.8753042 20.7444157,88.8718518 C20.7444157,54.636438 47.7787602,26.6945889 81.7300557,25.0979222 L81.7300557,25.078446 C82.5999967,25.0435242 83.4744052,25.025 84.3529447,25.025 C84.5627212,25.025 85.4027874,25.025 85.6130417,25.025 C86.4915812,25.025 87.3659897,25.0435242 88.2359307,25.078446 L88.2359307,25.0979222 C122.187226,26.6945889 149.221571,54.636438 149.221571,88.8718518 C149.221571,98.8753042 151.432641,122.400398 154.600237,133.205174 C162.598092,160.48613 169.965986,174.42346 169.965986,183.592986 C169.965986,196.32574 137.096686,215.489184 88.2359307,216.264352 L88.2359307,216.267018 C87.4597095,216.278541 85.9800757,216.268663 84.9829932,216.265344 L84.9829932,216.2875 Z" id="Path" fill="#000000"></path>
                    <path d="M82.219012,206.437056 L82.2190261,206.435731 C43.3727049,205.822035 16.8545234,192.206553 11.6292517,181.262211 C12.5093392,180.289501 19.7863481,181.286476 33.4602784,184.253138 C54.6101515,184.859782 71.8283173,183.767472 85.1147761,180.976207 C105.044464,176.78931 134.592227,171.823594 138.15963,172.568542 C147.914657,174.605593 153.811009,176.153262 158.336735,180.976207 C153.506972,191.967842 127.195967,205.816677 88.0105261,206.435731 L88.0105261,206.437057 C87.8896879,206.438661 87.7687648,206.440166 87.6477714,206.44157 C86.9212997,206.445732 85.8647123,206.439096 85.1147761,206.43661 L85.1147761,206.45625 C85.0527408,206.45625 84.9906777,206.45625 84.9285867,206.45625 C84.0216396,206.4554 83.1183631,206.448998 82.219012,206.437056 Z" id="Path" fill="#C4C3C6"></path>
                    <g id="Group-12" transform="translate(32.238500, 163.038296)" fill-rule="nonzero">
                        <path d="M33.2485421,60.9981866 C17.9243594,60.9975025 5.50110013,48.5717518 5.50041596,33.2444957 C5.49973178,17.9172396 17.9218817,5.4925982 33.2460644,5.49328237 C48.5702472,5.49396655 60.9935064,17.9197172 60.9941906,33.2469733 C60.9948747,48.5742294 48.5727248,60.9988708 33.2485421,60.9981866 Z" id="Path" fill="#000000" transform="translate(33.247303, 33.245735) rotate(12.000000) translate(-33.247303, -33.245735) "></path>
                        <path d="M33.2480733,50.4972588 C42.7739166,50.4976841 50.4957936,42.7742584 50.4953683,33.2465046 C50.494943,23.7187508 42.7723765,15.9946355 33.2465332,15.9942102 C23.7206899,15.9937849 15.9988129,23.7172107 15.9992382,33.2449644 C15.9996635,42.7727182 23.72223,50.4968335 33.2480733,50.4972588 Z" id="Path" fill="#C4C3C6" transform="translate(33.247303, 33.245735) rotate(12.000000) translate(-33.247303, -33.245735) "></path>
                        <path d="M32.6453873,17.4877731 C36.89542,17.4877731 40.7108411,19.3489757 43.3213816,22.300943 C41.5418179,21.5023409 39.5692671,21.0581399 37.4929905,21.0581399 C29.6238902,21.0581399 23.2447241,27.4387065 23.2447241,35.3095343 C23.2447241,38.9293963 24.5940197,42.2340442 26.8169961,44.7477587 C21.8539834,42.5196239 18.3971209,37.533181 18.3971209,31.7391675 C18.3971209,23.8683397 24.776287,17.4877731 32.6453873,17.4877731 Z" id="Combined-Shape" fill="#FFFFFF" transform="translate(30.859410, 31.117586) rotate(12.000000) translate(-30.859410, -31.117586) "></path>
                    </g>
                    <polygon id="Path" fill="#000000" fill-rule="nonzero" transform="translate(73.469732, 159.018198) rotate(12.000000) translate(-73.469732, -159.018198) " points="61.6768414 139.292596 85.2608623 139.293649 85.2626233 178.743801 61.6786024 178.742748"></polygon>
                    <path d="M77.8976107,163.60689 L75.8895912,173.045348 L65.5485688,170.849281 L67.2996775,162.618401 C70.8688048,162.782797 74.4562727,163.120653 77.8976107,163.60689 Z" id="Shape" fill="#D8D8D8" fill-rule="nonzero"></path>
                    <path d="M24.1643254,132.599111 C26.9779919,122.926054 28.9420093,101.865038 28.9420093,92.9093722 C28.9420093,62.2598616 51.7381486,37.2447119 81.8959175,35.8152841 L81.8959175,35.797848 C82.6686562,35.7665839 83.4453633,35.75 84.2257397,35.75 C84.4120769,35.75 85.1582788,35.75 85.3450405,35.75 C86.1254169,35.75 86.902124,35.7665839 87.6748627,35.797848 L87.6748627,35.8152841 C103.954111,36.5868933 127.402993,46.69946 118.876507,58.9873472 C109.112938,73.0580477 112.788807,97.1525074 123.746666,110.356103 C129.640951,117.458381 142.186942,122.926054 145.000608,132.599111 C145.809989,135.381667 136.361495,133.417024 143.35816,138.171158 C154.665895,145.854603 150.296051,163.298217 125.344346,157.964717 C113.238286,155.377012 99.390649,153.979676 84.7853901,153.979676 C53.9777962,153.979676 26.5654102,160.191729 11.6292517,170.706249 C13.7921755,162.585403 18.8199089,150.97259 24.1643254,132.599111 Z" id="Path" fill="#C4C3C6"></path>
                    <path d="M83.7228578,150.068844 C56.7531733,150.068844 32.7557328,153.750196 19.6802721,159.98125 C20.6465878,157.525223 20.6141302,148.908087 29.8756002,143.099203 C38.6271009,137.610178 52.8261477,138.600958 58.3188417,138.600958 C77.2324114,138.600958 100.937244,141.978334 130.605442,154.477253 C117.732712,151.643877 101.363609,150.068844 83.7228578,150.068844 Z" id="Path" fill="#FFFFFF"></path>
                    <path d="M99.1918126,110.217486 C128.861936,110.217826 148.501445,119.615842 151.339714,123.207404 C149.506869,127.394465 159.647975,135.933543 151.339906,139.907638 C140.24663,131.809859 116.738611,124.450005 93.7108689,121.225553 C72.2287287,118.217524 52.5988255,119.212735 39.5844846,123.206121 C50.8947101,115.480314 73.344301,110.217486 99.1918126,110.217486 Z" id="Path" fill="#000000" transform="translate(97.120922, 125.062562) rotate(3.000000) translate(-97.120922, -125.062562) "></path>
                    <path d="M60.9242662,76.3668788 C82.525826,76.3654192 90.3203018,85.1552759 93.9790948,88.6182412 C97.6378879,92.0812064 98.6211396,100.616734 92.5721586,103.501949 C84.4960796,97.6245287 73.6985298,86.6970468 56.9331914,84.3577891 C41.2931281,82.1755404 14.4425949,86.8866965 3.78128035,88.1962244 C14.1632541,84.6108082 42.1057883,76.3681503 60.9242662,76.3668788 Z" id="Path-Copy-13" fill="#FFFFFF" transform="translate(50.349531, 89.934414) rotate(-71.000000) translate(-50.349531, -89.934414) "></path>
                </g>
            </g>
        </g>
    </g>
</svg>