<?xml version="1.0" encoding="UTF-8"?>
<svg width="286px" height="254px" viewBox="0 0 286 254" version="1.1" xmlns="http://www.w3.org/2000/svg" xmlns:xlink="http://www.w3.org/1999/xlink">
    <!-- Generator: Sketch 61 (89581) - https://sketch.com -->
    <title>open book</title>
    <desc>Created with Sketch.</desc>
    <g id="Illustrations" stroke="none" stroke-width="1" fill="none" fill-rule="evenodd">
        <g id="Other" transform="translate(-642.000000, -3566.000000)">
            <g id="open-book" transform="translate(642.000000, 3566.000000)">
                <path d="M254.608152,0 L255.56968,3.1264636 C257.088671,8.06555344 259.486869,20.0681976 264.449492,47.251929 C266.746761,59.8356689 280.677357,137.322219 285.655351,164.805118 L286,166.707885 L284.008201,167.508323 C279.807237,169.196552 235.343217,186.764348 206.599356,199.240879 C185.39406,208.445228 175.889291,215.15706 174.660976,215.984617 C172.747558,217.273749 171.63152,218.147947 169.053011,220.289469 C168.218973,220.98216 167.748111,221.367749 167.21495,221.789173 C164.611734,223.846818 162.225353,225.311132 158.879321,226.754016 C148.602423,231.185646 140.755487,232.880461 122.693417,234.493468 C118.379928,234.878678 10.6865789,252.766192 3.62184188,253.581844 L0,254 L0.379960912,250.804042 C3.5978162,223.737752 6.49981511,199.256221 9.51941674,173.723817 C10.6891107,163.833407 14.6385653,130.405912 15.4162359,123.835817 C17.0398242,110.119047 17.9661837,102.35735 18.5712268,97.4210289 C18.8995594,94.7422859 19.130755,92.9184871 19.2799955,91.8318916 C19.3594343,91.2535102 19.4169402,90.8727125 19.4611197,90.6430814 C19.4797357,90.5463214 19.4981525,90.4625588 19.5229339,90.3722172 C19.552652,90.2641635 19.552652,90.2641635 19.639518,90.0394224 C19.7107118,89.8772666 19.7107118,89.8772666 19.9119955,89.5645286 C20.2366475,89.0720441 20.2366475,89.0720441 21.9140492,88.4268265 C21.9847992,88.4391095 22.0534197,88.4510228 22.1199909,88.4626009 C23.0799921,87.9615633 24.3021904,87.8304542 26.5291348,87.9245634 C26.7251515,87.0569487 26.7624949,86.6182768 26.9676972,83.396417 C27.0045552,82.8177137 27.036998,82.3613466 27.0740796,81.9198812 C27.2505183,79.8193412 27.5190051,78.2949745 28.0374626,76.9983165 C28.8624165,74.9351132 30.3659463,73.5099196 32.7050304,73.2477754 C38.9817652,72.5443336 47.0396191,71.4608266 57.5115894,69.9433707 C58.157696,69.8497457 58.8144509,69.754261 59.4835189,69.6566851 C64.4691313,68.9295906 83.6075483,65.0788606 86.3120248,64.6832846 C94.433698,63.4953507 98.8829987,62.9077319 100.870336,62.7994216 C100.936139,62.7958297 100.936139,62.7958297 101.001932,62.7922162 C102.017849,62.7363358 103.046661,62.6742841 104.438095,62.5863926 C104.822452,62.5621143 106.182167,62.475564 106.144589,62.4779503 C106.8271,62.4346089 107.341006,62.4023846 107.841391,62.3717373 C110.579558,62.2040319 112.579951,62.1069025 114.505388,62.0605974 C120.042143,61.9274432 124.412072,62.2674673 128.168766,63.3108881 C129.477239,60.9629572 132.028771,58.5886051 135.795042,55.9105943 C139.519363,53.2624128 141.069923,52.3288416 153.080351,45.3068081 C154.903552,44.2408527 174.258953,34.5651012 181.61738,30.6163763 C193.230439,24.3845041 205.00533,16.6444469 213.936563,10.3258383 C214.658868,9.81482673 215.370851,9.30377999 216.072398,8.79267587 C217.934527,7.43604341 231.062321,7.83682753 232.216795,7.83783754 C232.914908,7.83844829 233.465653,7.81442123 233.862251,7.76760813 C233.985195,7.75309616 234.083429,7.73751912 234.153584,7.72310896 C235.095818,7.18644596 235.75424,6.70547725 237.169219,5.58002539 C237.564268,5.26580971 237.773049,5.10122199 238.019487,4.9115231 C238.783945,4.32307058 244.3135,2.68589621 254.608152,0 Z" id="Path" fill="#000000" fill-rule="nonzero"></path>
                <path d="M132.130078,217.045516 C132.96377,216.56532 133.829641,216.204793 134.774063,216.047708 C139.632461,215.239614 144.366477,214.516504 147.891626,213.018869 C150.561609,211.884545 153.095926,210.921724 155.617335,210 C155.923574,210.202285 156.223891,210.415179 156.517568,210.638689 C158.630329,212.246656 160.132502,214.200979 161,216.275958 C158.836001,217.454937 156.611394,218.565578 154.1946,219.592335 C148.857513,221.859759 142.583185,223.718109 133.954587,225 C132.328288,222.5091 131.703888,219.705522 132.130078,217.045516 L132.130078,217.045516 Z" id="Path" fill="#C4C3C6"></path>
                <path d="M29.218816,92.0201518 C30.637131,91.8219856 31.659826,91.8411026 32.6006103,91.3613617 C32.495591,88.9690017 29.4309554,141.45822 20.3239332,236.48589 C41.0389948,232.706552 74.2967685,223.941856 109.514,220.232953 C114.877368,219.66811 119.685066,219.11772 124.032768,218.49837 C124.400976,219.880562 124.967448,221.237262 125.728814,222.532376 C122.567597,223.048199 119.159584,223.503226 115.462213,223.892615 C108.290076,224.647949 74.4693379,230.35041 14,241 C23.343721,153.258585 28.4166596,103.598636 29.218816,92.0201518 Z M182.81949,193.14978 C209.787491,179.303753 242.780865,169.002617 264.540804,159.84581 C251.186478,78.7347016 241.994451,26.2643123 236.731417,11.7419689 C238.156179,11.5434244 239.183523,11.5625779 240.128584,11.0819213 C240.023046,8.68405736 253.023353,58.9241432 270,162.036401 C248.24006,171.193207 215.246686,181.494343 188.278685,195.34037 C176.721127,201.274301 169.056655,206.905288 160.65284,211.707547 C160.067807,210.314629 159.272685,208.968019 158.271186,207.707402 C165.542781,203.324222 172.684194,198.353487 182.81949,193.14978 Z" id="Shape" fill="#FDFDFD"></path>
                <path d="M93.731538,216.162848 C79.7881993,218.877653 45.372368,227.10223 28.7122344,229 C28.6039067,228.492755 28.564628,227.854082 28.5943983,227.083981 C46.013525,224.882876 79.7094806,216.832641 93.5676323,214.128962 C99.3563974,212.999593 111.302273,211.927875 115.099371,210.781843 C116.427727,210.380921 110.166986,209.817604 111.369911,209.450556 C105.113801,209.445879 98.1965923,210.001828 91.2513569,211.354084 C77.3080182,214.068889 42.892187,222.293466 26.2320533,224.191236 C26.1237256,223.683991 26.0844469,223.045318 26.1142172,222.275217 C43.5333439,220.074112 77.2292996,212.023877 91.0874512,209.320198 C100.734631,207.438065 118.913671,207.884325 126.821186,208.409275 C129.61428,207.808932 128.16439,207.557603 127.319073,206.653336 C118.799874,204.715544 104.533451,204.099805 90.1467663,206.900931 C76.2034276,209.615735 41.7875963,217.840313 25.1274627,219.738082 C25.0191349,219.230837 24.9798562,218.592164 25.0096265,217.822063 C42.4287532,215.620959 76.1247089,207.570723 89.9828605,204.867044 C107.57597,201.434687 124.990054,203.014473 132.327103,205.924403 C130.888434,208.472033 130.584555,211.405352 131.491706,214.122416 C121.650701,213.713533 110.190267,212.958291 93.731538,216.162848 Z M145.001461,201.831633 L144.252336,200.844807 C147.271158,196.373854 154.323448,190.43487 159.447493,187.060855 C168.687607,180.976542 185.123496,173.003876 194.17807,169.57513 C209.741428,163.681665 226.775711,156.853323 245.280918,149.090106 C245.467532,147.871483 245.252948,146.231648 244.637165,144.170603 C244.026874,142.127936 237.144451,98.2525893 223.53999,19.4960037 C224.021078,19.1435347 225.846416,18.5288232 226.326549,18.1734694 C240.171388,98.3351376 247.267138,142.157813 247.88292,144.218858 C248.498702,146.279904 248.351716,150.977348 248.165102,152.195972 C246.496671,152.895904 244.84724,153.588895 243.215538,154.274825 C226.749406,161.196812 212.088771,167.399814 197.928606,172.761924 C188.874033,176.19067 172.050164,183.740671 162.810049,189.824983 C158.799388,192.465873 151.944307,196.283872 147.87139,201.363585 C146.683346,201.089285 146.231238,201.807723 145.001461,201.831633 Z M166.759292,191.447294 C176.010569,185.363493 192.077865,176.968868 201.143376,173.54041 C216.725536,167.64744 234.082739,160.676221 252.610301,152.913657 C252.79714,151.695135 252.582297,150.055439 251.965771,147.994567 C251.354742,145.952072 244.658909,96.836724 231.038013,18.0867613 C231.519682,17.734322 233.437727,16.3553239 233.91844,16 C247.780004,96.1549271 255.673763,148.014174 256.29029,150.075047 C256.906816,152.135919 257.121659,153.775615 256.93482,154.994136 C238.407258,162.756701 220.092155,170.411336 204.509995,176.304306 C195.444484,179.732764 178.98874,187.70476 169.737463,193.78856 C165.034535,196.881287 159.481915,201.607288 155.726087,206.178571 C155.389588,205.501269 153.420523,203.154369 152.925234,202.528896 C156.423744,198.474467 162.462782,194.272754 166.759292,191.447294 Z" id="Shape" fill="#C4C3C6"></path>
                <path d="M135,204.027169 C131.932916,200.016598 111.210212,196.796105 90.2320728,200.944611 C76.2704734,203.70557 41.8095556,212.069915 25.1276159,214 C24.8918266,212.878606 24.9827791,211.125578 25.4004734,208.740916 C25.8181677,206.356253 32.8001022,169.512324 40.18737,82.0592021 C55.0182201,85.5466724 86.301273,72.8960735 101.888563,72.5468441 C117.475853,72.1976148 128.861049,70.8054442 132.277236,74.5057561 L135,204.027169 Z" id="Rectangle-Copy-14" fill="#C4C3C6"></path>
                <path d="M49.1004812,99.5572424 C86.9567907,94.4067473 109.316602,91.6342189 116.179916,91.2396574 C126.474887,90.647815 127.095498,91.0015676 115.101885,94.0284046 C103.108273,97.0552416 69.2954272,99.7998329 58.6552278,100.718539 C51.5617616,101.331009 48.376846,100.94391 49.1004812,99.5572424 Z" id="Rectangle-Copy" fill="#000000"></path>
                <path d="M45.1004812,165.557242 C82.9567907,160.406747 105.316602,157.634219 112.179916,157.239657 C122.474887,156.647815 123.095498,157.001568 111.101885,160.028405 C99.1082728,163.055242 65.2954272,165.799833 54.6552278,166.718539 C47.5617616,167.331009 44.376846,166.94391 45.1004812,165.557242 Z" id="Rectangle-Copy-18" fill="#000000"></path>
                <path d="M47.1004812,132.557242 C84.9567907,127.406747 107.316602,124.634219 114.179916,124.239657 C124.474887,123.647815 125.095498,124.001568 113.101885,127.028405 C101.108273,130.055242 67.2954272,132.799833 56.6552278,133.718539 C49.5617616,134.331009 46.376846,133.94391 47.1004812,132.557242 Z" id="Rectangle-Copy-16" fill="#000000"></path>
                <path d="M49.1004812,116.412967 C86.9567907,110.747422 109.316602,107.697641 116.179916,107.263623 C126.474887,106.612597 127.095498,107.001724 115.101885,110.331245 C103.108273,113.660766 69.2954272,116.679816 58.6552278,117.690393 C51.5617616,118.36411 48.376846,117.938301 49.1004812,116.412967 Z" id="Rectangle-Copy-15" fill="#000000"></path>
                <path d="M43.1004812,184.557242 C80.9567907,179.406747 103.316602,176.634219 110.179916,176.239657 C120.474887,175.647815 121.095498,176.001568 109.101885,179.028405 C97.1082728,182.055242 63.2954272,184.799833 52.6552278,185.718539 C45.5617616,186.331009 42.376846,185.94391 43.1004812,184.557242 Z" id="Rectangle-Copy-20" fill="#000000"></path>
                <path d="M45.1004812,149.557242 C82.9567907,144.406747 105.316602,141.634219 112.179916,141.239657 C122.474887,140.647815 123.095498,141.001568 111.101885,144.028405 C99.1082728,147.055242 65.2954272,149.799833 54.6552278,150.718539 C47.5617616,151.331009 44.376846,150.94391 45.1004812,149.557242 Z" id="Rectangle-Copy-17" fill="#000000"></path>
                <path d="M142.608435,197 L139,68.2422041 C142.50744,62.6916643 152.822713,55.5820354 169.945819,46.9133174 C187.068926,38.2445993 203.65248,27.9401602 219.696484,16 C233.481807,96.2628613 240.681043,137.426115 241.294192,139.48976 C241.907341,141.553405 242.120999,143.19531 241.935167,144.415475 C223.508456,152.188641 206.546433,159.025738 191.049098,164.926766 C182.032936,168.359913 165.666756,176.342776 156.465817,182.434846 C150.331857,186.496226 145.71273,191.351277 142.608435,197 Z" id="Rectangle" fill="#C4C3C6"></path>
                <path d="M194.103412,133.992274 C188.022305,144.77298 150.354121,166.80555 148.591694,170 L143,65.6111138 C144.833972,62.739335 180.445928,46.8151707 186.767532,43 C195.712189,96.4743791 198.157483,126.805137 194.103412,133.992274 Z" id="Path" fill="#FFFFFF"></path>
                <path d="M204.253483,151.446578 C203.962759,146.545923 201.761621,143.030884 203.979488,143.692869 C205.100768,144.027547 209.245775,146.488035 211.485473,148.224653 C212.612455,149.098492 213.572798,149.96233 214.396725,150.829214 C213.806927,147.761283 213.443125,145.201581 213.30532,143.150108 C212.617318,132.907982 213.199763,132.005936 217.746014,142.229698 C219.516505,146.211235 220.718675,149.696937 221.597711,153.081117 C221.726248,152.455058 221.878981,151.792995 222.057983,151.089822 C222.691186,148.602407 224.091329,144.345471 224.570344,143.3461 C225.517824,141.369367 225.443383,144.645598 226.777628,147.118605 C227.436259,148.33937 227.843717,150.546822 228,153.740963 L207.465975,161 C205.470706,157.098734 204.399875,153.91426 204.253483,151.446578 Z" id="Path" fill="#000000"></path>
                <path d="M218.575407,35.6932929 C218.611691,44.0261407 219.528799,51.094318 218.549644,48.7754779 C218.054616,47.6031493 216.248053,41.2291485 215.279688,37.1060123 C214.792422,35.0313135 214.379484,33.064566 214.027608,31.1674522 C214.232687,36.6073737 214.346422,41.0758601 214.368812,44.5729115 C214.480599,62.0321883 214.202882,63.2176687 212.36536,43.6758318 C211.649756,36.0654681 211.178818,29.5933612 210.850442,23.4675624 C210.780988,24.4413421 210.700025,25.4619199 210.606528,26.5366748 C210.275791,30.3385301 209.568241,36.6716452 209.334915,38.0760982 C208.873403,40.8540756 208.969351,35.4305457 208.419982,30.575137 C208.148794,28.1783333 208.0088,24.2734396 208,18.8604561 L217.321513,18 C218.139172,25.5995949 218.557137,31.4973592 218.575407,35.6932929 Z" id="Path-Copy-44" fill="#000000"></path>
                <g id="Group-17" transform="translate(23.000000, 60.000000)" fill-rule="nonzero">
                    <path d="M25.7283373,111.173242 L23.4921309,110.036471 L24.5567421,108.090712 C27.9378416,101.911173 33.1995613,95.5163832 48.8886223,77.889449 C72.5084336,51.3521782 82.3649897,40.0205624 99.7300221,18.8532722 L100.218429,18.2579236 L101.035455,18.184286 C107.16493,17.6318437 112.341963,20.8024506 117.830707,28.1893852 L118.844114,29.5532632 L44.3400941,125.16097 L42.663105,124.22675 C40.2548528,122.885158 39.1976186,118.740332 38.5705381,110.488958 C32.0254166,112.017508 27.9625887,112.309019 25.7283373,111.173242 Z" id="Path" fill="#000000" transform="translate(71.168123, 71.641988) rotate(-39.000000) translate(-71.168123, -71.641988) "></path>
                    <path d="M110.948245,28.7993931 L41.4991447,117.915169 C41.4865306,117.855119 41.473967,117.794227 41.4614576,117.732497 C40.9897704,115.404887 40.6202115,112.02879 40.3623268,107.63245 L40.1874899,104.651882 L37.3425108,105.385255 C33.6304814,106.342133 30.6495429,106.946104 28.4207662,107.198211 C28.2408059,107.218567 28.066741,107.236387 27.898778,107.251831 C31.3133992,102.00404 37.0870574,95.1842825 49.9715358,80.7080455 C73.3935133,54.3924981 83.314153,42.9931912 100.40501,22.1734403 C103.981027,22.1292598 107.164645,24.0600288 110.948245,28.7993931 Z" id="Path" fill="#FFFFFF" transform="translate(69.423512, 70.044305) rotate(-39.000000) translate(-69.423512, -70.044305) "></path>
                </g>
            </g>
        </g>
    </g>
</svg>