<?xml version="1.0" encoding="UTF-8"?>
<svg width="186px" height="273px" viewBox="0 0 186 273" version="1.1" xmlns="http://www.w3.org/2000/svg" xmlns:xlink="http://www.w3.org/1999/xlink">
    <!-- Generator: Sketch 61 (89581) - https://sketch.com -->
    <title>rosette</title>
    <desc>Created with Sketch.</desc>
    <g id="Illustrations" stroke="none" stroke-width="1" fill="none" fill-rule="evenodd">
        <g id="Other" transform="translate(-1158.000000, -142.000000)" fill-rule="nonzero">
            <g id="rosette" transform="translate(1158.000000, 142.000000)">
                <path d="M52.9137931,186.21031 C52.7516192,186.193044 38.942272,179.899292 32.739975,172.555858 C29.2461628,168.419191 26.8737901,166.376703 23.940843,165.249418 L23.7164435,165.157592 C22.3029819,164.54342 20.977361,163.748202 19.7735574,162.792462 C11.1623951,156.385828 5.56370604,147.57595 2.39930967,136.474396 C1.79149546,134.394069 1.42437728,132.717811 0.743463807,129.20945 C0.422910254,127.557819 0.29983894,126.937736 0.120701972,126.096615 C0.0404514957,125.719806 0,125.335758 0,124.950667 L0,113.826751 C0,113.357577 0.0600442978,112.890293 0.178698927,112.436058 C0.450035284,111.397325 0.671243105,110.574757 1.17109072,108.733686 C2.14308673,105.153568 2.55583285,103.57349 3.00647116,101.62011 C3.34271657,100.159093 3.655672,98.9358977 4.2929846,96.5334869 L4.34300779,96.3449406 C5.38039998,92.43502 5.79851339,90.7110157 6.16883554,88.6057637 C6.8460032,84.7464144 6.67886597,81.4673865 5.71123973,73.8948521 C5.62882604,73.249982 5.59159677,72.9576435 5.54716994,72.6048954 C4.24307055,62.3476875 6.86107712,52.807558 12.9378401,43.9438157 C15.5909868,39.8825274 19.3226388,36.6220373 23.775741,34.4949485 C28.3865943,32.3494019 30.6251861,31.3642609 33.476403,30.3076841 C37.5875187,28.7957877 39.892643,26.4489296 40.825853,22.7791381 C42.0087705,17.3757778 45.0356803,12.5384709 49.4450676,9.04512129 C54.3234358,5.26282476 59.9592918,2.80326744 66.9310823,1.02349732 C67.4416853,0.887123228 67.7952404,0.82260114 68.4581526,0.72022363 C68.562647,0.704089278 68.6234766,0.694642117 68.6702292,0.687190058 C69.4955429,0.238042317 70.4251562,3.69482223e-13 71.3739592,3.69482223e-13 L78.7211761,3.69482223e-13 C79.2696494,3.69482223e-13 79.8151604,0.0795876553 80.340311,0.236224667 C81.1156037,0.467471736 81.8927339,0.617602952 83.5663357,0.878476313 C83.6413338,0.890162186 83.6413338,0.890162186 83.7170051,0.901944177 C85.6717324,1.20629788 86.5813657,1.37122818 87.9063063,1.71645798 C93.7952928,3.38195788 99.8072126,4.5882458 105.759962,5.31032515 C113.062869,6.027974 120.045454,8.6379403 126.068262,12.9238556 C127.922063,14.2829828 129.850641,15.5393778 131.760751,16.6396622 C135.562778,18.7415664 139.142218,21.2152672 142.509464,24.0789951 C146.44059,27.5251379 150.744689,30.5310356 155.250934,32.9925766 C165.111576,38.1406057 171.613553,46.4080166 174.569112,57.246621 C174.71777,57.7904134 174.71777,57.7904134 174.865682,58.3321575 C177.122269,66.596723 178.25659,70.2315424 180.038903,74.351264 C183.02856,80.8426718 184.622354,87.8777695 184.719224,95.0105939 L184.718343,95.2087804 C184.711882,95.4963916 184.799144,95.7785408 184.967418,96.0136831 C185.639201,96.9524158 186,98.074441 186,99.2248391 L186,111.634101 C186,112.504748 185.793399,113.357278 185.4039,114.12564 C184.092609,123.043723 180.320907,130.356627 173.672195,135.951575 C172.231551,137.15646 171.834138,138.574163 172.361923,140.965401 C173.992127,148.109125 172.651998,155.601227 168.700067,161.667958 C164.281902,168.74534 158.596552,172.28113 147.722904,176.528512 C144.486357,177.782529 141.282109,178.921559 138.102617,179.944399 C138.570696,181.401738 139.110273,183.109371 139.83634,185.420222 C140.103964,186.272038 140.226233,186.661037 140.371256,187.121751 C141.291912,190.046524 141.930245,192.039406 142.600053,194.058869 C149.127972,214.048544 155.668629,234.028768 162.222023,253.99954 C163.086787,256.634817 161.855105,259.459825 159.412041,260.676201 C157.372496,261.891002 154.744762,261.706208 152.892265,260.151586 L133.10822,243.548738 C131.731214,249.265889 130.91728,252.711798 130.079831,256.416701 C129.828898,257.537629 129.591766,258.477302 129.117063,260.282675 C129.095671,260.364026 129.095671,260.364026 129.074338,260.445141 C128.070301,264.262739 127.712423,265.911299 127.546631,267.870453 C127.303065,270.748664 124.871994,272.961959 121.954149,272.961959 L121.524208,272.961959 C119.092502,272.961959 116.93745,271.411757 116.18647,269.122344 C114.519079,264.039192 112.778458,258.727069 110.727026,252.461932 C111.096931,253.591633 102.26989,226.624633 99.7966044,219.077122 C97.7541837,212.844445 95.8748148,207.115866 94.0923877,201.691104 C87.7967477,220.803126 77.5383439,251.943078 71.8656128,269.166479 C70.1095328,274.498244 62.3862355,274.188836 61.0711728,268.734035 C58.7433223,259.078252 56.8109625,251.053041 55.0086241,243.552763 C53.5979978,244.78422 51.9249035,246.178476 49.5406967,248.136841 L49.4830284,248.184209 C45.6033978,251.370897 43.9066736,252.814545 41.9482592,254.663259 C41.1251704,255.443056 40.4405391,255.913493 39.2346043,256.642196 C39.167367,256.682805 39.167367,256.682805 39.1032775,256.721493 C38.7007392,256.964542 38.5048268,257.088607 38.3828395,257.17655 L38.3484636,257.231159 C37.773426,258.137638 37.2931519,258.735424 36.2995904,259.401852 C34.5495008,260.575717 32.4060505,260.768543 30.4990033,260.040818 C26.8007061,258.653164 25.775533,255.365641 26.5088345,252.341302 C26.569443,252.091336 26.627689,251.891519 26.7088216,251.633537 C26.7265605,251.577291 26.7265605,251.577291 26.7338855,251.5543 C27.3430062,249.600339 27.9905953,247.601238 28.8366263,245.045315 C29.2316112,243.852036 37.2573334,224.240368 52.9137931,186.21031 Z" id="Path-2" fill="#000000"></path>
                <path d="M100.285047,156.93444 C100.930421,155.894854 102.183207,156.466158 103.027888,155.201796 C98.984807,156.494255 95.1979775,156.306942 91.4301297,156.278845 C82.3251149,156.154373 73.3898092,153.829415 65.4063545,149.507483 C55.5591503,144.462349 47.4258097,136.680464 42.011531,127.123587 C33.8019885,112.606835 31.8279019,97.2097119 36.4309402,81.1663593 C40.0429582,68.1792107 48.1788079,56.8642757 59.4081685,49.210773 C64.28644,45.792312 69.8480491,43.7412354 75.2103515,41.1844138 C81.3319179,38.2436008 87.5483922,37.9345345 93.9736643,38.0094596 C106.628618,38.1552397 118.886554,42.3891064 128.871338,50.0630468 C135.196994,54.7143924 140.51239,60.5711688 144.502687,67.286471 C150.083277,76.8113336 153.224732,86.8700381 152.987462,98.0526201 C152.60783,115.847349 145.888344,130.626339 132.667658,142.501979 C124.130906,150.166868 113.495054,155.180129 102.088299,156.915709 C101.745861,156.967416 101.400196,156.995581 101.053801,157 C100.796359,156.995014 100.539539,156.973112 100.285047,156.93444 Z M67.4468766,141.434295 C67.8880963,142.128484 68.5585518,142.65116 69.3450367,142.914067 C82.6321575,149.0392 96.2134932,149.882109 110.04159,145.040069 C116.108828,143.073662 121.631516,139.746041 126.175951,135.318528 C128.691013,133.773196 130.494265,131.50671 132.316499,129.287052 C145.825558,112.708237 147.406215,89.5691364 136.274163,71.3511616 C134.651236,68.7100493 133.218125,65.8254301 130.351903,64.1396137 C130.351903,63.2030491 129.668565,62.6785728 129.080136,62.116634 C115.346947,48.9953631 99.079715,44.3125398 80.420801,48.3116709 C72.2286268,49.9788252 64.6810387,53.89766 58.6489044,59.6160064 C57.9984932,59.860693 57.4254105,60.271103 56.9880143,60.8054435 C54.0398944,63.4937869 51.4845841,66.5733076 49.3953738,69.9556803 C38.4334992,87.7504089 38.3196096,105.835472 48.579165,123.995461 C49.338429,125.325383 50.0787115,126.805155 51.5877488,127.52631 C51.7513411,128.535764 52.2524806,129.462186 53.0113689,130.158057 C54.3495718,131.628463 55.8586091,132.967751 57.1683395,134.438157 C60.0615758,137.453229 63.5630104,139.836499 67.4468766,141.434295 Z" id="Shape" fill="#C4C3C6"></path>
                <path d="M145.972528,239.501105 C143.545808,238.050751 141.696007,235.907551 139.663057,234.013776 C134.772987,229.459477 129.98365,224.775847 124.809701,219.833555 C123.042316,229.477953 121.348191,238.734357 119.644909,248 L119.260296,248 C118.701693,246.3926 118.124775,244.803677 117.602801,243.187039 C114.416015,233.274741 106.723771,209.718023 103.564457,199.768773 C103.326364,199.002025 102.547982,198.13366 103.362993,197.339198 C104.178005,196.544736 104.681664,197.570146 105.350156,197.708715 C105.743318,197.79908 106.147577,197.83021 106.54978,197.801094 C110.212753,197.450053 114.791469,198.235277 118.509387,197.801094 C121.906795,197.37615 122.17236,191.805679 125.679657,192.008913 C126.560183,191.942758 127.428607,192.247037 128.078904,192.849565 C129.077064,194.032019 129.132009,192.849565 129.452519,192.101292 C130.945181,194.604771 138.142923,214.715742 138.921305,217.200745 C140.413966,222.004468 142.300397,226.669622 143.664855,231.501059 C144.415764,234.161583 145.221618,236.794392 146,239.43644 L145.972528,239.501105 Z" id="Path" fill="#FFFFFF"></path>
                <path d="M83.3138935,204.341697 C84.4061569,203.239964 83.9353537,201.831661 84.424989,200.557482 C85.2159384,201.113139 85.008785,201.831661 84.858128,202.425639 C82.7865939,210.693431 74.0579028,238.457117 71.1954194,246.494982 C70.5927913,248.190693 70.253813,249.972628 69.7453456,251.716241 C69.6041046,252.223996 69.6323528,252.865876 68.7189946,253 C68.2858557,248.286496 66.8357818,243.793339 65.9883361,239.175639 C65.1408904,234.557938 63.9732985,230.055201 62.9657796,225.494982 C62.6832977,224.172901 62.5326407,223.339416 61.0825669,224.814781 C54.3594973,231.520985 47.523435,238.026004 40.7156208,244.607664 C40.4910968,244.745659 40.250755,244.855056 40,244.933394 C43.7664255,232.958029 53.9169423,201.601734 58.1165068,190 C59.1428577,190.33531 58.9922007,190.823905 58.8980401,191.187956 C58.6814706,192.040602 58.8509597,192.375912 59.7925661,192.145985 C61.7743626,191.706221 63.8384696,192.344596 65.2444671,193.832117 C66.5438839,195.096715 68.63425,194.502737 69.952499,195.796077 C72.3630113,198.20073 75.856371,198.957573 78.2009709,201.47719 C78.627814,201.936369 79.1957765,202.233751 79.8111178,202.320255 C81.2238488,202.404205 82.5180927,203.151109 83.3138935,204.341697 L83.3138935,204.341697 Z" id="Path" fill="#C4C3C6"></path>
                <path d="M43.6289787,165.0805 C42.7449268,161.800727 41.5836163,158.602042 40.157592,155.518996 C39.6114272,154.371245 40.5834155,151.02981 41.5646608,150.511471 C43.0809293,149.619474 45.0155599,149.917376 46.1931764,151.224187 C49.6420805,154.590411 52.8266539,158.217162 55.7186614,162.072282 C57.3509457,164.227259 59.251654,166.165092 61.3747075,167.838804 C63.0594872,169.162419 64.3091864,170.985862 66.3549903,171.929979 C67.3825207,172.411294 67.0955528,173.216571 66.1050504,173.697886 C65.5003448,174.02643 64.786618,174.090089 64.1333028,173.873751 C63.1609881,173.570508 62.1337978,173.485181 61.1247677,173.623837 C58.3488529,173.866754 55.563055,173.283891 53.1174357,171.948491 C51.9678944,171.385879 50.6921506,171.130757 49.4146232,171.208007 C47.4058475,171.208007 46.6375139,169.356796 45.4340998,168.125741 C44.7036082,167.177419 44.0825389,166.149658 43.5826936,165.061987 L43.6289787,165.0805 Z" id="Path" fill="#C4C3C6"></path>
                <path d="M41.1432437,159.296837 C40.983022,157.449955 40.6090859,155.630645 40.0297592,153.879404 C39.7876973,153.185646 41.0754664,151.940963 41.966254,152.002177 C43.3010209,152.047141 44.5588772,152.671072 45.4422623,153.726369 C47.4913651,156.188208 49.368238,158.803468 51.0580974,161.55155 C52.028229,163.11888 53.1545656,164.572465 54.417916,165.887537 C55.3838798,167.109577 56.4533603,168.236477 57.6131326,169.254303 C58.3296357,169.784824 57.9810666,170.060286 57.1386913,169.98887 C56.5909114,169.952367 56.0595311,169.777395 55.5894954,169.478754 C54.8695224,169.043076 54.1022898,168.700523 53.3044315,168.458522 C51.1751873,167.7688 49.1741254,166.699022 47.3884397,165.295802 C46.5561549,164.670881 45.6388209,164.182429 44.6676644,163.847072 C43.108786,163.275742 42.8086293,162.143285 42.0921262,161.24548 C41.6898976,160.636028 41.3644306,159.974152 41.1238788,159.276432 L41.1432437,159.296837 Z" id="Path" fill="#FFFFFF"></path>
                <path d="M140.312901,168.647362 C138.684807,168.923102 137.06629,169.284417 135.428618,169.446058 C133.532196,169.695994 131.688849,170.24824 129.969714,171.081483 C127.231367,172.221486 124.394526,173.112576 121.494046,173.743802 C115.431789,175.160537 109.283339,174.437907 103.221081,175.065454 C96.8044743,175.731034 90.3974442,176.577271 83.961683,176.967111 C81.518127,177.144422 79.076193,176.60199 76.9417232,175.407752 C75.4381302,174.552007 75.3232059,173.762819 76.6161044,172.555267 C78.6081257,170.739184 81.1077293,170.32082 83.6169101,170.358853 C88.4054228,170.425411 92.9353559,169.056218 97.5897904,168.390638 C100.673593,167.943749 103.872319,168.219489 107.023161,168.209981 C110.174002,168.200472 112.903454,166.973904 115.55629,165.357495 C117.969701,163.893219 120.622537,162.809275 123.02637,161.316474 C125.430204,159.823674 127.948961,158.682679 129.624941,156.277083 C130.812492,154.584609 133.005631,154.784283 134.719919,154.194769 C136.810604,153.475901 138.369467,151.722592 138.828463,149.573743 C139.786165,146.131743 142.036766,143.383849 143.540359,140.236607 C144.651294,137.926094 146.585853,136.024437 147.20836,133.495233 C147.53069,131.912481 147.998737,130.362461 148.606606,128.864698 C149.326957,127.069556 150.65892,125.582273 152.370377,124.662036 C156.660884,122.408573 158.997678,118.747883 160.568311,114.383581 C161.095047,112.928813 160.328885,111.645195 160.47254,110.28551 C160.871526,105.446006 160.364991,100.574983 158.978524,95.9184915 C157.905897,92.0200947 157.743088,87.9125157 156.105417,84.1472349 C155.425448,82.5973845 155.473333,80.7527772 155.03279,79.0888274 C153.720737,74.0969779 152.514032,69.0861118 151.575484,64.018196 C151.288173,62.4683456 150.052736,61.4414508 149.209958,60.2148821 C147.915466,58.0763565 146.358455,56.1057355 144.574678,54.3482704 C138.732692,49.1377303 133.819678,42.8812789 126.598601,39.2681307 C120.536344,36.2254795 114.828436,32.4316739 108.162827,30.7106744 C106.241382,30.3499242 104.282515,30.2253799 102.330418,30.3398513 C97.3886728,30.2923098 92.4565047,29.9500116 87.5051824,29.997553 C83.1189047,30.0450944 78.713473,29.8073873 74.3176182,29.731321 C70.3268483,29.5604557 66.4105169,30.8418782 63.3040388,33.334961 C62.1027608,34.1443161 60.7941973,34.7843019 59.4157664,35.2366179 C55.7094575,36.7959766 52.6543864,39.2205893 49.541853,41.6452019 C44.7533403,45.3344164 40.549026,49.6321611 35.5593957,53.0551436 C34.1324189,54.0059721 33.7684919,55.9646788 33.1842934,57.5525623 C32.1308205,60.4050478 29.9472587,62.5253953 28.1467779,64.8454168 C25.3502864,68.4395484 22.9177219,72.0241718 23.0134922,76.8543805 C23.0709543,79.7924405 23.5306516,82.7875502 22.3047923,85.6780687 C21.7589018,86.9807038 22.9656071,88.4735045 22.563372,89.7761395 C21.806787,92.1722273 21.4045519,94.6443813 20.3989642,97.0119442 C19.2592982,99.7027888 18.2249794,102.431667 19.7381494,105.74055 C21.2517246,108.832013 22.2819088,112.134438 22.7932206,115.534083 C23.0613773,117.720988 24.8714351,119.337397 24.9384743,121.524302 C25.0438216,125.327616 26.681493,128.902731 26.0685633,132.79162 C25.570558,135.910337 23.0996854,137.697895 21.6439775,140.160541 C21.1555492,140.987761 20.2648858,140.693005 19.6806873,140.027425 C15.6391825,135.425415 11.2337507,130.889963 11.4731764,124.234164 C11.4238866,121.027942 11.5998925,117.82221 11.9999128,114.640304 C12.076529,114.174398 12.2489154,113.527835 11.9999128,113.22357 C9.78761986,110.295018 11.8466804,107.594665 12.469187,104.865787 C13.0190095,103.162363 13.4698716,101.429003 13.8195476,99.674264 C14.0877043,97.2496513 15.3135636,95.1293038 15.7349527,92.7332161 C16.911175,87.1877136 16.8293889,81.4518092 15.4955271,75.9415851 C14.0545025,70.0086505 14.5680839,63.7732661 16.960812,58.1515843 C17.8537729,55.6330883 19.016038,53.2168633 20.4276953,50.9443044 C21.7972099,48.9095315 23.9711947,47.8350953 25.4077486,46 C27.6870807,43.0999695 30.9241153,43.1475109 34.0270716,43.1475109 C37.9728061,43.1475109 40.7309895,40.9225722 43.2305932,38.3933685 C45.7301969,35.8641647 48.5649964,34.1526735 50.7772893,31.5283869 C52.6926945,29.2083654 54.6080996,26.8978522 55.0103346,23.7506099 C55.1922981,22.3148589 56.4277344,21.5066547 57.3567059,20.6699256 C61.2832864,17.1518603 65.1907128,13.5957617 70.0558418,11.3137734 C70.4261047,11.1301536 70.8301799,11.0233894 71.243393,11 C75.710524,11.0089609 80.1072128,12.1059571 84.0478762,14.1947837 C86.5379029,15.4213524 88.9608903,16.8190703 91.5179562,17.8744899 C92.7697159,18.3252187 93.8773771,19.0999404 94.7262597,20.1184451 C96.2777379,22.1722346 98.55707,23.0565051 100.61613,24.3115987 C101.086889,24.621413 101.665558,24.7246194 102.215494,24.5968473 C104.676789,24.0073336 107.004007,24.5968473 109.340801,25.3384935 C110.691161,25.7663663 112.098984,25.6047254 113.478076,25.8519408 C117.061757,26.6772487 120.517893,27.9755892 123.754224,29.7123045 C128.444852,31.8364656 132.899861,34.4399365 137.047136,37.4805731 C139.067888,39.0209153 141.691993,39.5819041 143.645706,41.2838871 C148.194794,45.2393335 152.839651,49.1377303 156.814117,53.6446573 C159.821303,57.0581315 161.315319,61.4985005 163.30734,65.5680464 C165.682442,70.3982551 168.718359,74.8671489 171.285002,79.5832582 C173.240761,83.307256 174.416823,87.3858416 174.742308,91.5732053 C175.364815,98.1624467 174.943426,104.704147 172.54917,110.932073 C171.534005,113.55636 170.403916,116.218679 169.561138,118.82395 C168.316124,122.70333 166.036792,125.536799 163.393533,128.332234 C161.976133,129.825035 160.338462,131.12767 159.687224,133.248018 C159.412972,134.022357 159.257994,134.833354 159.227527,135.653614 C159.227527,139.200204 159.150911,142.746794 159.227527,146.293384 C159.509524,152.033901 156.918173,157.542363 152.303338,161.012209 C149.56414,163.380691 146.647509,165.538955 143.578667,167.468335 C142.578893,168.108272 141.445902,168.514652 140.265016,168.65687 L140.159669,168.571296 L140.312901,168.647362 Z" id="Path" fill="#C4C3C6"></path>
                <path d="M173.729993,88.0689311 C173.408357,83.9587274 172.233621,79.9553885 170.27726,76.3024975 C167.718968,71.6729271 164.689412,67.2969031 162.323472,62.5546454 C160.332621,58.5542458 158.841887,54.197003 155.841183,50.8445554 C151.878716,46.4215784 147.243013,42.5996004 142.703488,38.7212787 C140.77996,37.0497502 138.135109,36.5050949 136.115404,34.965035 C131.968067,31.9898979 127.517137,29.4409124 122.833444,27.3586414 C119.553829,25.8185814 116.254979,24.240959 112.58104,23.6023976 C111.205718,23.3582418 109.801542,23.5272727 108.455073,23.0953047 C106.137222,22.3628372 103.800135,21.79001 101.33802,22.3628372 C100.789288,22.4839078 100.213706,22.3749147 99.7511091,22.0623377 C97.6929342,20.8321678 95.4327889,19.9682318 93.884349,17.9492507 C93.0367483,16.9528379 91.9355212,16.191755 90.6912926,15.7424575 C88.1330005,14.7094905 85.7189729,13.3478521 83.2280043,12.1364635 C79.301336,10.0855578 74.9185643,9.0084736 70.4653966,9 C70.0534903,9.02305237 69.6508341,9.12853198 69.2824269,9.30989011 C64.4736071,11.5448551 60.5207572,15.0381618 56.6063779,18.4939061 C55.6446139,19.3108891 54.4520266,20.0997003 54.2692915,21.5082917 C53.8749683,24.5978022 51.9995285,26.8703297 50.0375301,29.1522478 C47.8158553,31.7158841 44.9305634,33.5000999 42.5069183,35.8665335 C40.0832731,38.232967 37.2364518,40.4961039 33.3316901,40.5618382 C30.2155749,40.5618382 26.9936656,40.5618382 24.6758145,43.379021 C23.2331685,45.182018 21.0691996,46.2431568 19.6938772,48.2433566 C18.2878112,50.4733338 17.1303042,52.8438856 16.2411445,55.3144855 C13.8727027,60.8442049 13.3871822,66.9707652 14.8562044,72.7904096 C16.1841479,78.1823846 16.2728293,83.7945676 15.1158807,89.223976 C14.6446164,91.5716284 13.4231761,93.6563437 13.1923528,96.0321678 C13.1442646,96.389011 13.0769411,96.7458541 13,97.0933067 C14.0290874,95.4781219 15.0485572,93.8441558 16.0776447,92.2101898 C16.6780886,91.2119113 17.3701986,90.2689731 18.1454372,89.393007 C18.9857481,84.678562 18.8253455,79.8458353 17.6741728,75.1944056 C16.2693166,69.6747175 16.721182,63.8601127 18.9629365,58.6105894 C19.8069654,56.274947 20.9031354,54.033625 22.232934,51.9244755 C23.5313154,50.0463536 25.5798726,49.0321678 26.9455774,47.3230769 C29.090311,44.6373626 32.1391028,44.6937063 35.0917181,44.6749251 C38.8137447,44.6749251 41.420125,42.608991 43.7475938,40.2801199 C46.0750626,37.9512488 48.7872369,36.3454545 50.8742647,33.9132867 C52.7304691,31.7628372 54.5001148,29.6123876 54.8752028,26.6825175 C55.0483203,25.3584416 56.2120547,24.6071928 57.0872599,23.8653347 C60.7900511,20.6067932 64.4928424,17.2919081 69.0708388,15.1884116 C69.4215386,15.0156961 69.8041925,14.9135091 70.1961026,14.8879121 C74.4139543,14.8956122 78.565325,15.9145991 82.2854756,17.8553447 C84.6321797,19.000999 86.9211779,20.2875125 89.3448231,21.2735265 C90.5205274,21.6945986 91.5620477,22.4103392 92.3647619,23.3488511 C93.8266431,25.226973 95.9713768,26.0815185 97.9141399,27.245954 C98.3583575,27.5342179 98.905219,27.6294451 99.4241094,27.5088911 C101.61831,27.1177341 103.880901,27.3357241 105.954487,28.1380619 C106.408322,28.1904378 106.858123,28.2720003 107.300956,28.3822178 L107.608721,28.4667333 C108.42622,28.5418581 109.243719,28.5324675 110.061219,28.6827173 C113.442995,29.4436796 116.704003,30.6471673 119.755799,32.2605395 C124.169069,34.2332711 128.359413,36.6503611 132.258731,39.4725275 C134.182259,40.9092907 136.644375,41.4257742 138.490961,43.0033966 C142.887623,46.5567427 147.038685,50.3902231 150.916952,54.4787213 C153.754155,57.6433566 155.167948,61.7658342 157.053006,65.5502498 C159.293916,70.038961 162.159972,74.1802198 164.583618,78.5562438 C166.428441,82.0160252 167.537471,85.8044058 167.843997,89.6935065 C167.988262,91.2335664 168.074821,92.783017 168.084438,94.3136863 C168.205375,94.6335536 168.343418,94.9470048 168.497997,95.2527473 C168.940408,95.9852148 169.411673,96.7552448 169.604025,97.1308691 C170.694025,99.1028971 171.767994,101.059274 172.825935,103 C173.981127,98.1074725 174.286729,93.0602778 173.729993,88.0689311 Z" id="Path" fill="#FFFFFF"></path>
                <path d="M124.474361,53.5347631 C128.841938,55.879551 132.372159,58.0266939 135.13163,62.1592703 C138.771809,63.5833922 141.865503,66.0216311 144,69.1487147 C139.689515,58.7454028 131.020969,51.7379907 121.629251,46.132061 C116.671718,43.1763705 111.561938,40.0499867 106.176211,37.9387792 C100.790485,35.8275717 95.0907489,35.6568783 89.3910132,36.4025388 C83.5009692,37.166167 77.2493392,38.1094725 71.8445815,40.6968247 C66.3933061,43.189969 61.2006929,46.1585622 56.3344493,49.5638962 C52.756652,52.1422645 49.7688106,55.5651158 46.914185,58.996951 L46.8285463,59.0778057 L46.7048458,59.2395152 C46.0292511,60.0570466 45.3631718,60.8655942 44.6875771,61.6651579 C41.3851045,65.5081506 38.4762149,69.6382658 36,74 C37.7331819,72.2318739 39.823076,70.8085201 42.1469604,69.8135204 C43.3459031,68.1065867 44.6209692,66.4445723 45.9531278,64.8184933 L48.7506608,61.4136098 C51.005815,60.3984334 52.2618502,58.6106449 53.7177093,56.7599694 C57.9033583,53.4647545 62.4339169,50.5809996 67.2391189,48.1534299 C76.2098961,44.4742484 85.9005526,42.6192861 95.6807048,42.7092097 C101.140152,42.655986 106.519581,43.9504913 111.285991,46.4644639 C115.701145,48.7823002 120.078238,51.1809913 124.474361,53.5347631 Z M104.073304,40.544099 C103.844934,40.4093411 103.607048,40.2835671 103.369163,40.157793 C103.64511,40.2386477 103.921057,40.3195025 104.187489,40.418325 C104.453921,40.5171475 104.939207,40.6968247 105.310308,40.8405665 C104.901145,40.6968247 104.482467,40.6339377 104.073304,40.544099 Z" id="Shape" fill="#FFFFFF"></path>
                <path d="M122.736857,136.45866 C126.827877,134.113596 130.125257,131.966201 132.704584,127.842123 C136.159996,126.374606 139.056383,123.930782 141,120.842871 C136.975117,131.247407 128.859214,138.255644 120.081946,143.862233 C115.442937,146.818272 110.633863,149.954008 105.62638,152.056479 C100.618896,154.15895 95.2334892,154.347634 89.923667,153.601885 C84.415435,152.829182 78.5859682,151.894751 73.4840037,149.343034 C68.3674998,146.817823 63.5146136,143.836432 58.9906455,140.438979 C55.6460243,137.860308 52.849392,134.428069 50.1755847,130.99583 L50.1,130.914965 L49.986623,130.753237 C49.3536015,129.944594 48.7300281,129.126966 48.0970065,128.336294 C45.0087037,124.467194 42.2984444,120.337945 40,116 C41.6012203,117.746824 43.5545411,119.17055 45.7444341,120.186972 C46.8687558,121.894107 48.0686623,123.556317 49.3158092,125.182587 C50.1755847,126.296717 51.0448082,127.446787 51.932928,128.578886 C54.0398503,129.603167 55.2114125,131.391166 56.5813845,133.242059 C60.4709111,136.519224 64.7074289,139.403846 69.2229186,141.849612 C77.5662785,145.496246 86.6563616,147.337453 95.8381665,147.240563 C100.971134,147.285996 106.018172,145.986617 110.426006,143.484867 C114.535921,141.229652 118.626941,138.821694 122.736857,136.45866 Z M103.651731,149.459838 C103.434425,149.594612 103.217119,149.711415 102.999813,149.837204 C103.254911,149.75634 103.510009,149.675476 103.765108,149.576642 C104.020206,149.477808 104.464266,149.298109 104.813845,149.154351 C104.426473,149.271154 104.039102,149.361004 103.651731,149.459838 L103.651731,149.459838 Z" id="Shape" fill="#FFFFFF"></path>
                <path d="M143.462052,155.406382 C144.009084,153.104558 144.83564,150.876427 145.923756,148.770408 C146.358719,147.938626 144.840977,146.147096 143.693415,146.02827 C141.892518,145.863507 140.100544,146.423806 138.723734,147.582148 C135.553454,150.329324 132.584549,153.295236 129.839388,156.457535 C128.237265,158.269034 126.437101,159.899867 124.471763,161.320261 C122.815202,162.526801 121.695405,163.934432 119.603882,164.976445 C118.548866,165.515732 118.974574,165.936193 120.122135,165.991036 C120.863812,166.036573 121.605875,165.908156 122.287694,165.616277 C123.328334,165.180925 124.419341,164.873928 125.536033,164.702231 C128.517821,164.209479 131.391594,163.213891 134.031689,161.759003 C135.258264,161.121036 136.574672,160.668129 137.9371,160.415355 C140.139677,159.967472 140.713458,158.587263 141.851764,157.590953 C142.493977,156.893164 143.041507,156.11579 143.480561,155.278416 L143.462052,155.406382 Z" id="Path" fill="#FFFFFF"></path>
                <path d="M114.553656,72.5461994 L107.033268,69 L72.1072963,72.5748748 L71,73.7218935 C71.0922747,75.7482931 71.1753219,77.7842513 71.2491417,79.8106509 L71.904292,80.4797451 L87.4987155,81.0532544 C87.784767,93.2976787 89.0766128,102.08193 89.2150248,108.132453 C90.0762553,112.376422 89.2519347,115.059172 86.742063,116.180701 C84.3154444,117.458369 81.7086239,118.329445 79.018671,118.761493 C79.018671,121.62904 95.3328371,121.323168 90.5899178,121.734183 L79.4892719,122.336368 L78.4373404,127.517069 L84.1030067,132 L101.063096,131.388257 C106.756444,131.082385 111.490136,129.476559 113.907733,126.761948 C115.322436,125.330008 116.080944,123.341376 115.993141,121.294492 L114.553656,72.5461994 Z" id="Path" fill="#000000"></path>
                <path d="M107.152584,70 L70,70.1207753 C70.1401279,72.7313791 70.270914,75.3512734 70.3830163,77.9618773 L90.3465746,78.3706551 L90.6641979,112.810187 C90.6641979,115.597309 87.5907254,117.539004 82.9104528,117.957072 L71.9524491,118.59811 L76.5673287,128 L93.2705773,127.3218 C98.8756943,126.996636 103.546625,125.380106 105.9288,122.750921 C107.331514,121.331651 108.079148,119.397162 107.993351,117.408938 L107.152584,70 Z" id="Path" fill="#C4C3C6"></path>
                <path d="M109.23272,67 L70,67.2866541 C70,67.9172932 70.0669827,68.5383772 70.1052585,69.1976817 L105.510396,69.9047619 L105.510396,118.425752 C105.510396,122.305138 101.012987,125.114348 94.2668728,125.668546 L78.4493883,126.62406 L79.1957668,128 L93.9510972,127.398026 C100.008246,127.044486 105.070224,125.324561 107.682549,122.563127 C109.204508,121.094187 110.043803,119.057852 109.998237,116.944706 L109.23272,67 Z" id="Path" fill="#FFFFFF"></path>
            </g>
        </g>
    </g>
</svg>