<?xml version="1.0" encoding="UTF-8"?>
<svg width="186px" height="246px" viewBox="0 0 186 246" version="1.1" xmlns="http://www.w3.org/2000/svg" xmlns:xlink="http://www.w3.org/1999/xlink">
    <!-- Generator: Sketch 61 (89581) - https://sketch.com -->
    <title>scroll</title>
    <desc>Created with Sketch.</desc>
    <g id="Illustrations" stroke="none" stroke-width="1" fill="none" fill-rule="evenodd">
        <g id="Other" transform="translate(-163.000000, -1498.000000)">
            <g id="scroll" transform="translate(163.000000, 1498.000000)">
                <path d="M23.0805954,76.717997 C26.002798,76.717997 42.4038846,74.5569267 50.4552551,71.8555888 C47.7714649,99.9495032 27.3746597,202.600344 35.9627882,225.83185 C41.4746166,241.337427 53.4520604,247.127632 66.021238,245.821751 C84.7426172,243.876685 116.210721,242.769224 143.314395,239.33854 C156.351732,237.688322 169.615538,237.688322 177.666909,232.855329 C191.168952,224.750464 186.101119,201.825772 177.666909,186.392317 C174.591775,180.765241 172.353895,182.070176 164.784716,182.070176 C164.784716,166.942684 169.737611,144.635933 172.353895,122.436441 C175.910876,92.2550258 177.666909,55.1402842 177.666909,43.7616744 C177.666909,24.0136968 168.967872,0 158.34362,0 C123.454348,0 39.9300565,5.40267585 26.8379016,5.40267585 C9.79241328,5.40267585 0,21.8147266 0,41.0603364 C0,60.3059463 6.03510705,76.717997 23.0805954,76.717997 Z" id="Oval" fill="#000000"></path>
                <path d="M43,12.7387853 L155.179487,9 C163.726496,15.5280378 168,33.8658896 168,64.0135552 C168,94.1612209 163.726496,133.329448 155.179487,181.518236 C97.1644837,184.444678 65.469327,186.336762 60.0940171,187.194487 C54.7187072,188.052213 49.8948273,191.987383 45.6223776,199 C50.8671329,159.257474 55.6910127,125.834423 60.0940171,98.7308473 C62.6556316,82.9623162 63.3408972,54.1756041 60.0940171,37.8420581 C57.9294304,26.9530274 52.2314247,18.5852698 43,12.7387853 Z" id="Rectangle" fill="#C4C3C6"></path>
                <path d="M74.578592,55.4392152 C107.608402,54.2345009 129.627975,54.2261221 140.637309,55.4140789 C157.15131,57.1960141 158.021122,58.0112615 138.02792,60.1836558 C118.034717,62.3560501 106.51995,61.4858349 89.3530759,60.2021772 C77.9084931,59.3464055 72.9836652,57.7587514 74.578592,55.4392152 Z" id="Rectangle" fill="#000000" transform="translate(113.658281, 58.018695) rotate(-6.000000) translate(-113.658281, -58.018695) "></path>
                <path d="M66.6670789,37.4054289 C57.0405613,24.9941304 49.151535,16.7983371 43,12.818049 L155.129395,9 C160.344972,13.0698263 163.968507,21.6345368 166,34.6941316 C106.195731,44.7758621 73.0847573,45.6796278 66.6670789,37.4054289 Z" id="Path" fill="#FFFFFF"></path>
                <g id="Group-3" transform="translate(14.000000, 24.000000)">
                    <path d="M25.4928036,-2.27373675e-13 C27.7654016,2.11583504 36.4471058,7.65533013 36.4471058,20.9943912 C36.4471058,27.7010327 34.8677846,36.7899727 33.5281817,42.7962591 C17.7208684,45.7875362 5.67854399,48.4426252 4.33894117,46.2590159 C9.570088,44.9473512 13.4619867,41.9089869 16.0146374,37.143923 C18.0335357,33.3752211 20.8865964,25.4948097 20.3930235,16.9570083 C19.7579974,5.97235652 13.288739,2.87253287 11.9864615,1.58492445 L25.4928036,-2.27373675e-13 Z" id="Path" fill="#FFFFFF"></path>
                    <path d="M33.6011242,42.8479642 C17.7543091,45.8029691 5.68189159,48.4258624 4.33894117,46.2687315 C9.58316038,44.9729721 13.4847848,41.9714511 16.0438144,37.2641683 C17.1605996,35.2098646 19.4961212,29.8461006 25.2967471,26.0965767 C29.1638311,23.5968941 32.8806173,22.9231962 36.4471058,24.0754831 C36.1090962,30.2777062 34.7648787,37.7062375 33.6011242,42.8479642 Z" id="Path" fill="#C4C3C6"></path>
                    <path d="M7.89252983,6.97188755 C10.7302001,10.0680983 12.1490353,14.1712325 12.1490353,19.2812902 C12.1490353,20.4930296 12.1080588,21.6705749 12.0286786,22.8099358 L0.165653001,24.4016064 C0.043023944,23.8717213 -0.135989559,20.9391385 0.165653001,18.5917001 C0.419743503,16.6143207 1.3547818,12.5775887 3.57324567,9.98669779 C5.3718333,7.88617033 7.65157193,6.9768492 7.89252983,6.97188755 Z" id="Path" fill="#C4C3C6"></path>
                    <g id="Group-4" transform="translate(99.916861, 186.391426) rotate(-356.000000) translate(-99.916861, -186.391426) translate(37.916861, 160.891426)">
                        <path d="M112.1568,0.244279484 C114.083046,0.109009329 117.354082,4.0166215 120.038692,10.6820603 C124.315886,21.3016182 118.842925,26.7182376 112.630119,30.2115617 C96.8228052,33.2028389 46.3571082,41.6436854 45.0175054,39.4600761 C24.9490062,46.3333334 16.1910819,47.3874301 18.7437326,42.6223661 C20.7626309,38.8536642 19.9582743,36.8262499 19.4647014,28.2884485 C18.8296754,17.3037967 12.3604169,14.203973 11.0581394,12.9163646 L112.1568,0.244279484 Z" id="Path-Copy-6" fill="#FFFFFF"></path>
                        <path d="M123.663157,30.4550666 C121.289544,41.1395596 65.5386146,43.6204509 50.737085,46.0940902 C35.9355553,48.5677295 12.5564627,53.3028912 15.1154923,48.5956085 C16.2322776,46.5413048 18.5677991,41.1775408 24.368425,37.4280169 C28.1039109,35.0133992 61.6824472,22.1347241 88.3367504,17.6420896 C106.106286,14.6469999 115.675126,10.4805741 117.043272,5.14281226 C126.077781,14.9917342 123.438711,27.2316581 123.663157,30.4550666 Z" id="Path-Copy-5" fill="#C4C3C6"></path>
                        <path d="M6.21838593,20.3498602 C8.44798402,23.1364499 9.56278306,26.8292707 9.56278306,31.4283226 C9.56278306,32.5188881 9.5305873,33.5786789 9.46821713,34.6041036 L0.147268425,36.0366072 C0.050917023,35.5597106 -0.0897364438,32.9203861 0.147268425,30.8076915 C0.346910962,29.02805 1.08158391,25.3949912 2.82466266,23.0631894 C4.23783866,21.1727147 6.02906187,20.3543257 6.21838593,20.3498602 Z" id="Path-Copy-2" fill="#C4C3C6"></path>
                    </g>
                </g>
                <path d="M74.578592,55.4392152 C107.608402,54.2345009 129.627975,54.2261221 140.637309,55.4140789 C157.15131,57.1960141 158.021122,58.0112615 138.02792,60.1836558 C118.034717,62.3560501 106.51995,61.4858349 89.3530759,60.2021772 C77.9084931,59.3464055 72.9836652,57.7587514 74.578592,55.4392152 Z" id="Rectangle-Copy" fill="#000000" transform="translate(113.658281, 58.018695) rotate(-6.000000) translate(-113.658281, -58.018695) "></path>
                <path d="M74.3057958,96.4068746 C102.014329,95.2041852 120.486384,95.1971563 129.721959,96.385788 C143.575321,98.1687356 144.304951,98.9840363 127.53267,101.155205 C110.76039,103.326374 101.100792,102.455453 86.6997084,101.170743 C77.0989862,100.314269 72.967682,98.7263132 74.3057958,96.4068746 Z" id="Rectangle-Copy-4" fill="#000000" transform="translate(107.089363, 98.988875) rotate(-6.000000) translate(-107.089363, -98.988875) "></path>
                <path d="M71.7209388,118.745154 C105.99142,117.542102 128.838156,117.534841 140.261147,118.723371 C157.395633,120.506166 158.298182,121.321468 137.554102,123.492873 C116.810023,125.664279 104.862637,124.793468 87.0507911,123.508924 C75.1762273,122.65256 70.0662766,121.064637 71.7209388,118.745154 Z" id="Rectangle-Copy-5" fill="#000000" transform="translate(112.268769, 121.326752) rotate(-185.000000) translate(-112.268769, -121.326752) "></path>
                <path d="M74.2826216,77.2203333 C91.7829145,76.0215282 103.449475,76.0170889 109.282303,77.2070154 C118.031546,78.9919052 118.49225,79.8073082 107.898929,81.9761258 C97.3056076,84.1449433 91.2049306,83.2726679 82.1096898,81.9859389 C76.0461959,81.1281196 73.4371732,79.5395844 74.2826216,77.2203333 Z" id="Rectangle-Copy-2" fill="#000000" transform="translate(94.987822, 79.807167) rotate(-6.000000) translate(-94.987822, -79.807167) "></path>
                <path d="M44.8877777,161.727501 C47.8505349,161.344199 49.9946177,161.253095 51.320026,161.454188 C54.0051367,161.861578 56.9685775,161.332133 55.4715113,162.175441 C54.7146443,162.60179 51.2842875,164.046244 49.2202479,164.782932 C48.63676,164.991189 48.0822899,165.178097 47.5528508,165.345618 C50.9220792,165.353566 54.4880436,165.533999 58.6893345,165.970706 C69.4773789,167.09208 68.842598,167.564016 59.2815197,168.684761 C57.3664586,168.909244 54.9151181,169.077982 51.9274982,169.190976 C52.983562,169.54054 54.0808212,169.969734 55.240917,170.494163 C57.5464242,171.536384 61.1261715,173.577044 61.7927938,174.178183 C63.1113581,175.367223 59.1966247,174.611325 54.634239,175.169909 C52.336965,175.451169 49.0881523,175.30228 44.8878011,174.723242 Z" id="Combined-Shape" fill="#000000" transform="translate(55.751870, 168.329116) scale(1, -1) rotate(5.000000) translate(-55.751870, -168.329116) "></path>
                <path d="M140.798238,7.93354275 C144.04499,7.51595617 146.399693,7.41885103 147.862345,7.64222735 C150.863351,8.1005412 154.175432,7.50491563 152.50224,8.45363699 C151.65633,8.93327901 147.822402,10.5582905 145.515534,11.3870649 C144.8634,11.6213529 144.243699,11.8316245 143.651973,12.0200856 C147.417581,12.0290273 151.40307,12.2320151 156.098631,12.7233106 C168.155857,13.9848556 167.446396,14.5157842 156.760485,15.776622 C154.620122,16.0291648 151.880389,16.2189955 148.541284,16.3461141 C149.721591,16.7393734 150.947939,17.2222165 152.244517,17.8121994 C154.82126,18.9846973 158.822154,21.2804404 159.567203,21.9567217 C161.040892,23.2943912 156.665602,22.4440068 151.566465,23.0724131 C149.021893,23.3860006 145.432778,23.2242893 140.799122,22.5872792 Z" id="Combined-Shape-Copy" fill="#000000" transform="translate(152.878047, 15.376521) scale(-1, -1) rotate(-7.000000) translate(-152.878047, -15.376521) "></path>
            </g>
        </g>
    </g>
</svg>