<?xml version="1.0" encoding="UTF-8"?>
<svg width="198px" height="284px" viewBox="0 0 198 284" version="1.1" xmlns="http://www.w3.org/2000/svg" xmlns:xlink="http://www.w3.org/1999/xlink">
    <!-- Generator: Sketch 61 (89581) - https://sketch.com -->
    <title>storage</title>
    <desc>Created with Sketch.</desc>
    <g id="Illustrations" stroke="none" stroke-width="1" fill="none" fill-rule="evenodd">
        <g id="Other" transform="translate(-1151.000000, -531.000000)">
            <g id="storage" transform="translate(1143.000000, 516.000000)">
                <g id="Group-32" transform="translate(108.000000, 199.764492) rotate(-94.000000) translate(-108.000000, -199.764492) translate(10.000000, 99.264492)">
                    <g id="Group-30-Copy" transform="translate(59.752036, 0.120794)">
                        <path d="M15.8203938,9.89279596 C17.1070801,5.59397172 17.0072574,3.66731885 21.3671319,2.78656227 L28.7533508,4.80726323 C31.7221314,4.20752737 35.8871073,1.19454639 38.4720598,2.78656227 C39.5187284,3.43118261 42.8896178,2.85448644 43.9145369,2.78656227 C46.6222402,-1.79418869 60.0913185,3.49108413 62.9632067,1.77923751 C64.8777988,0.638006424 67.7405152,0.638006424 71.5513559,1.77923751 C75.8790652,1.05068853 78.3167554,0.640315148 78.8644265,0.548117375 C79.685933,0.409820714 80.5018649,0.358972917 81.3028981,0.388846821 C81.8369202,0.408762757 85.6469079,3.79711583 92.7328612,10.553906 C92.8421742,11.4410275 92.8968307,12.1080801 92.8968307,12.5550638 L92.8968307,98.3452022 C92.8968307,104.378357 88.5216367,109.501211 82.6132354,110.386121 L16.9147621,117.607204 C10.3310511,118.593257 4.20251558,114.001707 3.22629484,107.351691 C3.13952192,106.760594 3.09595879,106.163846 3.09595879,105.566286 L0.374720245,36.4191007 C0.374720245,32.458654 2.28225173,28.7457961 5.48833286,26.4658618 L12.3123779,21.6130919 L15.8203938,9.89279596 Z" id="Path" fill="#000000" fill-rule="nonzero" transform="translate(46.635775, 59.060541) scale(-1, 1) translate(-46.635775, -59.060541) "></path>
                        <path d="M18.8979717,30.9343961 C18.5952286,31.9461524 17.9660154,32.8264118 17.1106067,33.4348917 L9.48768396,38.8573227 C8.24138374,39.7438563 7.49986885,41.1875703 7.49986885,42.7275572 C7.49986885,66.5793352 7.49986885,84.4681686 7.49986885,96.3940576 C7.49986885,98.8516539 8.80116435,102.007122 11.4037554,105.860462 C11.4037554,106.092818 20.1340481,110.15155 22.6933347,109.768131 L71.8203399,103.303884 C74.1171133,102.959794 70.3630651,98.7399999 70.3630651,96.3940576 C73.9996103,87.4036111 75.8178829,80.2894738 75.8178829,75.0516457 C75.8178829,68.8191163 73.8659396,68.1021088 73.8659396,58.9097153 C73.8659396,55.591541 75.8178829,45.0850791 75.8178829,41.3812373 C75.8178829,36.287007 75.8178829,27.8248985 75.8178829,15.9949119 C75.8178829,15.734203 75.7965637,15.4739399 75.754143,15.2167782 C75.3287987,12.6382702 72.9151309,10.8963588 70.3630651,11.3261101 L62.5566785,12.640655 C62.0319868,12.7290097 61.4962338,12.7264321 60.9723986,12.6330328 L50.8664278,10.8311482 C49.4079817,10.5711087 47.9137232,11.0231657 46.8367248,12.0502515 C43.4775443,15.2537535 40.7756231,16.9700027 38.730961,17.1989988 C35.9511499,17.5103294 33.3037914,16.8913345 30.7888854,15.342014 C29.7840368,14.7229719 28.5853858,14.5087486 27.4313316,14.7419509 L26.2588103,14.9788835 C24.5639988,15.3213579 23.1935084,16.5788688 22.6933347,18.250431 L18.8979717,30.9343961 Z" id="Path" fill="#C4C3C6" fill-rule="nonzero" transform="translate(41.658876, 60.276366) scale(-1, 1) translate(-41.658876, -60.276366) "></path>
                        <path d="M78.3400819,52.3272996 C77.6359249,52.8358556 76.9508195,53.3972408 76.2948973,54.0389674 C74.5386772,55.7567029 74.6745818,59.6916114 74.6836473,63.8261677 C75.6548079,62.5625032 76.4835278,61.4839222 77.312349,60.4056043 C77.2846926,60.9155491 77.1660824,61.2442227 77.0157568,61.5122786 C76.1880977,62.9868121 75.5288336,64.7773378 74.5798949,66.0235172 L74.5224722,66.5767787 C74.7669546,67.0820009 74.7418258,67.3728996 74.4990266,67.4904758 C74.498853,71.1979121 73.9272634,75.0129351 74.7814943,78.7834966 C74.9778502,79.6500587 75.2974349,79.7326879 75.5411136,79.3581913 C75.8483788,78.8858315 75.9993313,78.1712356 76.0704636,77.3699468 C76.1002541,77.0346582 76.1074328,76.6543808 76.3129893,76.6683545 C77.3065296,76.7359378 78.9890116,75.1817983 78.9794818,73.8152128 C78.9723443,72.8083366 78.8732031,71.6754879 79.4740346,71.3258291 C79.6387046,72.6865253 79.7942953,73.9698129 79.9631931,75.3643951 C80.6452744,74.6355963 81.0050054,73.3882855 81.8847203,73.1922869 C81.6173605,75.0372161 79.284766,76.362935 78.2955616,76.5681089 C77.1239971,76.8111608 76.5771365,77.9713468 76.5539233,80.2003766 C76.5448297,81.0834008 76.3108565,81.6056462 75.7904325,81.6839194 C75.282793,81.7598966 75.1306354,82.622915 75.1592529,83.5466279 C75.2151668,85.3555482 75.1427344,88.8825434 75.1208468,92.4869952 L69.0018948,92.4869952 L69.0018948,52.3272996 L78.3400819,52.3272996 Z" id="Path" fill="#000000" transform="translate(75.443308, 72.407147) scale(-1, 1) translate(-75.443308, -72.407147) "></path>
                        <path d="M2.92251866,81.4872596 C3.66912613,81.7769466 4.28308305,82.1924872 4.87555401,82.6911954 C5.18154867,83.2004383 5.54219138,83.3620355 5.98770371,83.3160692 C6.38980966,83.2742643 6.79597654,83.0509337 7.24757946,83.2163019 C6.82198046,83.8838725 6.6489244,83.7367066 6.43683284,84.6008668 C6.36229605,84.9043665 5.18189392,84.9667735 4.96265403,85.0666134 C4.09574467,85.4609328 3.45477571,85.2231481 2.59310838,85.2390996 C1.97130591,85.2506988 -0.104652387,87.5731133 -0.655560247,88.3568918 C0.585692314,87.671906 3.93578884,85.6765886 5.18159231,86.3432254 C5.25991144,86.3849991 5.38453432,86.3871006 5.44137196,86.3157028 C5.78442015,85.8847779 6.87525338,86.4789509 7.2192057,86.037832 C8.41495101,84.5043221 8.7043317,83.9561684 10.375221,83.9769904 C11.2062677,83.9872052 11.522256,83.3315202 12.3297789,83.6577776 C12.4650114,83.7124694 13.2847419,83.30831 13.3985243,83.5775722 C13.6395761,84.1477953 14.0588219,83.4550411 14.4297332,83.2180714 C15.2359731,82.7028676 15.9415857,83.736477 16.808633,83.9206365 C17.5714206,84.0827567 23.0619588,83.1840383 23.8151253,82.9391437 C22.9426131,82.8273677 21.5335184,82.2151528 20.6622093,82.1072938 C19.8184796,82.0026587 14.9150957,82.0900119 14.0630614,82.29998 C14.5063228,82.1108682 15.435675,81.3231902 16.8511179,79.9369461 L21.6277042,78.8066216 C24.2559996,78.4887321 25.6978084,78.3019886 25.9531305,78.246391 C25.8427252,78.1949635 24.2923272,77.8394786 21.3019365,77.1799361 L16.1510526,78.5745928 L14.1176092,81.1969411 C13.547448,81.389816 13.2022693,81.5086179 13.0820732,81.5533468 C12.2805406,81.8516706 12.5379228,81.4434154 11.7127593,81.0186284 C10.3834191,80.3343255 10.3261974,81.8752244 8.96271933,81.740298 C8.79489986,81.7236603 7.67424807,81.2403198 7.5413513,81.4146194 C6.79504069,82.3928943 5.88882678,82.4733472 4.97267156,82.4874446 C4.4042036,81.7527622 3.79126822,81.2391431 2.92251866,81.4872596 Z" id="Path-Copy-7" fill="#000000" transform="translate(12.648785, 82.768414) scale(-1, 1) rotate(-122.000000) translate(-12.648785, -82.768414) "></path>
                        <path d="M59.5977072,104.909087 C60.2117976,105.278156 60.717417,105.808554 61.2056918,106.44542 C61.4587734,107.096385 61.7554824,107.302385 62.121136,107.242603 C62.4511627,107.188241 62.7838737,106.901589 63.1552853,107.112217 C62.8082093,107.96736 62.6655827,107.779421 62.4945256,108.885659 C62.4344091,109.274178 61.4653832,109.356586 61.285719,109.484815 C60.5752964,109.99126 60.0481335,109.688377 59.3406601,109.710651 C58.8301284,109.726838 57.1338396,112.703087 56.6842864,113.7072 C57.7010479,112.828009 60.4447261,110.267559 61.4700654,111.117894 C61.5345243,111.171178 61.6368619,111.173598 61.6832766,111.082114 C61.9634163,110.529961 62.8612472,111.287906 63.1420927,110.722707 C64.1184483,108.757843 64.3541007,108.0558 65.7261726,108.078832 C66.4085966,108.090106 66.6657119,107.250409 67.3299521,107.666142 C67.4411898,107.735833 68.1128378,107.216898 68.2072308,107.5612 C68.4072052,108.290336 68.7489743,107.402982 69.0526875,107.098953 C69.7128604,106.437956 70.2959536,107.759036 71.0085613,107.992812 C71.6354806,108.198612 76.1406416,107.036741 76.7582031,106.721746 C76.0413673,106.580604 74.8821415,105.800261 74.1663076,105.664128 C73.4731312,105.532061 69.4471871,105.65444 68.7483184,105.924957 C69.1116111,105.682011 69.8718978,104.67209 71.0291785,102.895192 L74.9472711,101.438502 C77.1042733,101.026049 78.2874996,100.783974 78.4969501,100.71228 C78.4061101,100.646712 77.1317772,100.195185 74.6739513,99.3577006 L70.4494628,101.153439 L68.789158,104.513391 C68.3216791,104.761426 68.0386722,104.914191 67.9401373,104.971686 C67.2830528,105.355154 67.4929318,104.832195 66.8138538,104.290422 C65.7198577,103.417662 65.6783907,105.389519 64.5583311,105.219815 C64.4204719,105.198888 63.4985534,104.582829 63.3900538,104.80615 C62.7807485,106.059564 62.036928,106.164471 61.284707,106.18449 C60.8152963,105.24562 60.3101645,104.589719 59.5977072,104.909087 Z" id="Path-Copy-8" fill="#000000" transform="translate(67.590618, 106.532450) scale(-1, 1) rotate(-135.000000) translate(-67.590618, -106.532450) "></path>
                        <path d="M83.7246118,10.0051965 L78.5731428,12.8585876 L66.8670905,12.8585876 C65.8961394,12.6858079 64.1760409,11.8925664 61.706795,10.478863 L55.0793769,18.2336222 C50.4881918,16.280374 47.3554579,14.7890375 45.6811753,13.7596127 C44.677718,13.1426416 43.4807266,12.929135 42.3282703,13.1615571 L41.1573725,13.3976972 C39.4649077,13.7390257 38.0963148,14.9923296 37.5968336,16.6582995 L33.8067256,29.2998297 C33.5044018,30.3082011 32.8760597,31.1855156 32.0218354,31.7919597 L24.4094673,37.1962497 C23.1648927,38.0798174 22.4244045,39.5187014 22.4244045,41.0535362 C22.1436256,56.0767694 21.6238281,69.1741303 20.865012,80.345619 C20.106196,91.5171078 19.0785417,100.153433 17.7820492,106.254594 C16.4924043,105.793316 15.8475818,103.827746 15.8475818,100.357886 C15.8475818,100.123054 15.7969864,99.8975469 15.7969864,99.665968 L15.7969864,38.3017389 C15.7969864,36.766904 16.5374746,35.32802 17.7820492,34.4444524 L25.3944173,29.0401624 C26.2486416,28.4337183 26.8769837,27.5564038 27.1793076,26.5480324 L30.9694156,13.9065022 C31.4688967,12.2405322 32.8374896,10.9872284 34.5299544,10.6458998 L35.7008522,10.4097598 C36.8533085,10.1773377 38.0502999,10.3908443 39.0537572,11.0078154 C41.5651811,12.5519526 44.2088741,13.1688766 46.9848363,12.8585876 C49.0266673,12.6303576 51.7248475,10.9198502 55.0793769,7.72706568 C56.1548841,6.70341606 57.6470737,6.25287141 59.1035004,6.51204093 L69.1954786,8.30789728 C69.7185884,8.40098409 70.2535997,8.40355305 70.7775649,8.31549396 L78.5731428,7.00534697 C80.819115,6.6278825 82.9577484,7.93140935 83.7246118,10.0051965 Z" id="Path" fill="#C4C3C6" fill-rule="nonzero" transform="translate(49.760799, 56.347400) scale(-1, 1) translate(-49.760799, -56.347400) "></path>
                        <path d="M26.8142128,31.4132923 L8.53830975,46.987907 L8.53830975,41.5148341 C8.53830975,40.0312542 9.27454227,38.6404209 10.5119641,37.7863594 L18.080583,32.5625425 C18.9298979,31.9763502 19.5546289,31.128333 19.8552152,30.1536356 L23.623541,17.9342617 C24.1201516,16.3239258 25.480879,15.1124753 27.163617,14.7825452 L28.3277855,14.5542909 C29.0916742,14.4045172 30.9000612,14.480602 33.7529465,14.7825452 L39.5469191,16.9213415 L48.8495019,14.1632377 L51.1751476,10.337311 C56.5133236,11.7390927 59.3557795,12.4699763 59.7025151,12.5299618 C60.2226186,12.61994 62.681954,12.6150802 63.2029079,12.5299618 L70.9536836,11.2635664 C73.1867479,10.8987071 75.3130903,12.1587035 76.0755465,14.1632377 L69.7922374,15.1898645 C69.2712834,15.2749829 66.4243404,14.8725234 65.904237,14.7825452 L57.3768694,16.9213415 L54.1842689,14.6210864 L46.1362486,19.5812443 L37.2212734,19.5812443 L32.9575896,19.0769913 L29.469121,21.3569079 L26.8142128,31.4132923 Z" id="Path" fill="#FFFFFF" fill-rule="nonzero" transform="translate(42.306928, 28.662609) scale(-1, 1) translate(-42.306928, -28.662609) "></path>
                        <path d="M18.5986678,40.4036716 L62.6710691,37.1612488 C63.5947441,37.0932936 64.3986192,37.7869917 64.4665743,38.7106668 C64.4668653,38.7146218 64.4671422,38.7185779 64.4674052,38.7225349 C64.5293709,39.6551759 63.8271813,40.4630796 62.8950032,40.5316602 L18.822602,43.7740831 C17.8989269,43.8420382 17.0950518,43.1483401 17.0270967,42.2246651 C17.0268057,42.22071 17.0265288,42.216754 17.0262659,42.212797 C16.9643001,41.2801559 17.6664898,40.4722523 18.5986678,40.4036716 Z" id="Rectangle" fill="#000000" transform="translate(40.746836, 40.467666) scale(-1, 1) rotate(-1.000000) translate(-40.746836, -40.467666) "></path>
                        <path d="M18.5986678,60.7990173 L62.6710691,57.5565945 C63.5947441,57.4886393 64.3986192,58.1823374 64.4665743,59.1060125 C64.4668653,59.1099675 64.4671422,59.1139236 64.4674052,59.1178806 C64.5293709,60.0505216 63.8271813,60.8584253 62.8950032,60.9270059 L18.822602,64.1694288 C17.8989269,64.2373839 17.0950518,63.5436858 17.0270967,62.6200108 C17.0268057,62.6160557 17.0265288,62.6120997 17.0262659,62.6081427 C16.9643001,61.6755016 17.6664898,60.867598 18.5986678,60.7990173 Z" id="Rectangle-Copy-5" fill="#000000" transform="translate(40.746836, 60.863012) scale(-1, 1) rotate(-1.000000) translate(-40.746836, -60.863012) "></path>
                        <path d="M18.5986678,50.6013445 L62.6710691,47.3589216 C63.5947441,47.2909665 64.3986192,47.9846646 64.4665743,48.9083396 C64.4668653,48.9122947 64.4671422,48.9162507 64.4674052,48.9202077 C64.5293709,49.8528488 63.8271813,50.6607524 62.8950032,50.7293331 L18.822602,53.9717559 C17.8989269,54.0397111 17.0950518,53.346013 17.0270967,52.4223379 C17.0268057,52.4183829 17.0265288,52.4144268 17.0262659,52.4104699 C16.9643001,51.4778288 17.6664898,50.6699251 18.5986678,50.6013445 Z" id="Rectangle-Copy-4" fill="#000000" transform="translate(40.746836, 50.665339) scale(-1, 1) rotate(-1.000000) translate(-40.746836, -50.665339) "></path>
                        <path d="M18.5333115,69.11429 L41.2630768,67.4373497 C42.1924935,67.3687798 43.0015215,68.0666341 43.0700913,68.9960509 C43.0704067,69.0003255 43.0707058,69.0046012 43.0709886,69.0088781 C43.1330822,69.9479878 42.4260481,70.7613713 41.4874388,70.8306194 L18.7576735,72.5075596 C17.8282568,72.5761295 17.0192288,71.8782752 16.950659,70.9488585 C16.9503436,70.9445839 16.9500445,70.9403081 16.9497618,70.9360312 C16.8876681,69.9969216 17.5947023,69.183538 18.5333115,69.11429 Z" id="Rectangle-Copy-7" fill="#000000" transform="translate(30.010375, 69.972455) scale(-1, 1) rotate(-1.000000) translate(-30.010375, -69.972455) "></path>
                    </g>
                    <g id="Group-30-Copy" transform="translate(40.962721, 17.165700)">
                        <path d="M17.4659937,10.7130745 C18.9209807,5.87154158 18.8081011,3.70165679 23.7382545,2.70970835 L32.0906033,4.98551441 C35.4477054,4.31006439 40.1574672,0.916707069 43.0805359,2.70970835 C44.2641105,3.43570933 48.0759179,2.78620766 49.2348982,2.70970835 C52.2967737,-2.4493434 67.5276301,3.50317316 70.7751661,1.57521301 C72.9401901,0.289906247 76.1773547,0.289906247 80.4866597,1.57521301 C85.3804408,0.75468775 88.136985,0.292506438 88.7562923,0.188669079 C89.6852533,0.0329130387 90.6079104,-0.0243540815 91.5137201,0.00929127918 C92.1175932,0.0317215196 96.4259337,3.84784009 104.438742,11.457647 C104.562353,12.4567639 104.624159,13.2080291 104.624159,13.7114426 L104.624159,110.33223 C104.624159,117.127045 99.6766819,122.896638 92.9954518,123.893264 L18.7035072,132.02598 C11.2586357,133.136517 4.32847742,127.965303 3.22456536,120.475751 C3.1264424,119.81003 3.07718114,119.137944 3.07718114,118.464945 L0,40.5882151 C0,36.1277784 2.15703982,31.9461877 5.78248178,29.3784212 L13.4991234,23.9130091 L17.4659937,10.7130745 Z" id="Path" fill="#000000" fill-rule="nonzero" transform="translate(52.312079, 66.088043) scale(-1, 1) translate(-52.312079, -66.088043) "></path>
                        <path d="M21.0291689,34.4140968 C20.6883667,35.5533185 19.9800523,36.5444768 19.0171065,37.2296155 L10.4358736,43.3351874 C9.03289559,44.3334103 8.19816168,45.9590095 8.19816168,47.6930106 C8.19816168,74.5497369 8.19816168,94.6922817 8.19816168,108.120645 C8.19816168,110.88786 9.66304863,114.440867 12.5928225,118.779667 C12.5928225,119.041296 22.4206378,123.611364 25.3016633,123.179641 L80.6046349,115.901 C83.1901455,115.51356 78.9641597,110.762139 78.9641597,108.120645 C83.0578706,97.9975436 85.1047261,89.9871371 85.1047261,84.0894251 C85.1047261,77.0716952 82.9073957,76.264356 82.9073957,65.9138658 C82.9073957,62.1776537 85.1047261,50.347543 85.1047261,46.1770756 C85.1047261,40.4410524 85.1047261,30.9128515 85.1047261,17.5924729 C85.1047261,17.2989188 85.0807268,17.0058666 85.0329732,16.7163067 C84.554157,13.8129473 81.8370567,11.8515824 78.9641597,12.3354757 L70.1763988,13.8156325 C69.5857459,13.9151185 68.982641,13.9122161 68.3929524,13.80705 L57.0165166,11.7781563 C55.374723,11.4853559 53.6926148,11.994365 52.4802224,13.1508474 C48.6987449,16.7579403 45.6571536,18.6904098 43.3554483,18.9482558 C40.2261752,19.2988092 37.2460059,18.6018306 34.4149404,16.8573201 C33.2837678,16.1602885 31.9344293,15.9190764 30.635294,16.1816585 L29.3153701,16.448441 C27.4074966,16.8340617 25.8647159,18.2499992 25.3016633,20.1321519 L21.0291689,34.4140968 Z" id="Path" fill="#C4C3C6" fill-rule="nonzero" transform="translate(46.651444, 67.452693) scale(-1, 1) translate(-46.651444, -67.452693) "></path>
                        <path d="M87.8744549,58.4849936 C87.1062836,59.0577363 86.3588959,59.6899759 85.6433445,60.4126972 C83.7274679,62.3472343 83.8757275,66.7787816 83.8856172,71.4351752 C84.945065,70.0120191 85.8491231,68.7973064 86.7532917,67.5828902 C86.7231211,68.157197 86.5937281,68.5273536 86.4297366,68.8292419 C85.5268358,70.4898815 84.8076385,72.5063959 83.7724327,73.90986 L83.7097898,74.5329507 C83.9764978,75.1019388 83.9490846,75.4295529 83.6842127,75.5619688 C83.6840234,79.737334 83.060471,84.0338647 83.9923593,88.2803223 C84.2065657,89.2562564 84.5552036,89.3493144 84.8210349,88.9275512 C85.1562333,88.3955733 85.3209088,87.5907856 85.3985076,86.6883634 C85.4310064,86.3107568 85.4388377,85.8824831 85.6630812,85.8982205 C86.7469433,85.9743338 88.5823781,84.2240408 88.571982,82.6849736 C88.5641956,81.5510159 88.4560417,80.2751863 89.1114942,79.8813958 C89.2911342,81.4138303 89.4608695,82.8590863 89.6451217,84.4296837 C90.3892104,83.6089006 90.7816441,82.2041622 91.7413331,81.9834259 C91.4496679,84.0612103 88.9050193,85.554253 87.8258873,85.7853226 C86.5478169,86.0590509 85.9512418,87.3656681 85.9259182,89.8760318 C85.915998,90.8705057 85.6607544,91.4586655 85.0930192,91.5468179 C84.5392307,91.6323844 84.3732405,92.6043275 84.4044596,93.6446255 C84.4654566,95.6818562 84.3864394,99.6540061 84.362562,103.713389 L77.6873417,103.713389 L77.6873417,58.4849936 L87.8744549,58.4849936 Z" id="Path" fill="#000000" transform="translate(84.714337, 81.099191) scale(-1, 1) translate(-84.714337, -81.099191) "></path>
                        <path d="M2.90643204,91.2030462 C3.74646182,91.5279795 4.43673654,91.9953835 5.10257563,92.5567471 C5.4457446,93.1308222 5.85145237,93.3122404 6.35333578,93.2590718 C6.80632145,93.2107254 7.26439878,92.9574201 7.77253848,93.1428363 C7.29130817,93.8977555 7.09682613,93.7320952 6.85549461,94.70836 C6.77068239,95.0512318 5.44109239,95.1250597 5.19389151,95.2384072 C4.21642122,95.6860783 3.49521725,95.4194424 2.52473058,95.4399113 C1.82440089,95.4547816 -0.520247059,98.0827728 -1.14293643,98.9692513 C0.256962346,98.192342 4.03565767,95.9300157 5.43682437,96.6791105 C5.52491101,96.7260506 5.66525984,96.7280676 5.72947623,96.6472954 C6.11705944,96.159791 7.34389982,96.8275145 7.73253039,96.3284981 C9.08359891,94.593713 9.41107439,93.9740073 11.2928313,93.9927472 C12.2287572,94.0019082 12.5865061,93.260721 13.4950367,93.6267695 C13.6471844,93.6881319 14.5715482,93.229486 14.6989256,93.5331653 C14.9687795,94.176274 15.4429266,93.3929401 15.8613366,93.1243365 C16.7708238,92.540357 17.5625605,93.7053151 18.5385352,93.9107614 C19.3971516,94.0916225 25.5833608,93.0612761 26.4323032,92.7826343 C25.4499673,92.6589264 23.8647407,91.9717414 22.8837485,91.8524524 C21.933808,91.7367246 16.411189,91.8493427 15.4509977,92.0888339 C15.9507546,91.8740567 16.9996729,90.9820954 18.5977526,89.41295 L23.980544,88.1231521 C26.9415332,87.7567456 28.5658837,87.5417924 28.8535955,87.4782926 C28.7293998,87.4205447 26.9842997,87.0236177 23.618295,86.2875115 L17.8132016,87.8768157 L15.5155795,90.8433186 C14.8728926,91.0627065 14.4838008,91.1978221 14.348304,91.2486653 C13.4447373,91.5877681 13.7357756,91.1261028 12.8076588,90.6488623 C11.3124604,89.8800604 11.2436175,91.6199386 9.70840395,91.4714945 C9.51944703,91.453189 8.25870759,90.9106834 8.10853696,91.1078515 C7.26522281,92.2144793 6.24438207,92.307899 5.21253445,92.3264299 C4.57440187,91.4985768 3.88555757,90.9204367 2.90643204,91.2030462 Z" id="Path-Copy-7" fill="#000000" transform="translate(13.855330, 92.628381) scale(-1, 1) rotate(-122.000000) translate(-13.855330, -92.628381) "></path>
                        <path d="M66.9786085,117.538096 C67.6699011,117.952318 68.2383667,118.548803 68.7869359,119.265399 C69.0702504,119.998642 69.4041732,120.22999 69.8166836,120.161418 C70.1890031,120.099069 70.5650871,119.774776 70.9832317,120.011108 C70.5891443,120.976492 70.4289116,120.765019 70.2325105,122.012985 C70.1634878,122.45128 69.070527,122.547283 68.8675257,122.692448 C68.0648263,123.265785 67.4713453,122.925919 66.6735089,122.953283 C66.0977685,122.973156 64.175538,126.334639 63.6654216,127.468332 C64.8147404,126.473704 67.9167145,123.577761 69.0702141,124.533365 C69.1427304,124.593245 69.2581213,124.595649 69.3107502,124.492342 C69.6283964,123.86883 70.6384075,124.720658 70.956891,124.082433 C72.0640944,121.8637 72.3320515,121.07131 73.8791627,121.092924 C74.6486463,121.10347 74.9412426,120.155789 75.6889372,120.622471 C75.8141505,120.700703 76.5731662,120.113407 76.6785131,120.501351 C76.9016942,121.322909 77.2898997,120.321219 77.6333401,119.977425 C78.3798673,119.22997 79.0331838,120.717804 79.8359968,120.979153 C80.542274,121.209227 85.6261017,119.884766 86.3234805,119.527608 C85.5156057,119.370729 84.21091,118.494474 83.404149,118.34324 C82.6229244,118.196519 78.0827751,118.3473 77.2938533,118.654562 C77.7042831,118.379456 78.5648093,117.238228 79.8754317,115.230876 L84.2982018,113.575834 C86.731804,113.103891 88.0668099,112.827164 88.3032194,112.745655 C88.200994,112.672007 86.7654564,112.1669 83.9966063,111.230335 L79.2272597,113.268671 L77.3443873,117.062713 C76.8164582,117.343889 76.496847,117.517049 76.3855538,117.582195 C75.6433905,118.01669 75.8817161,117.42632 75.1176901,116.817559 C73.8868425,115.836886 73.8338221,118.060536 72.5713521,117.87273 C72.4159649,117.84957 71.3783415,117.157813 71.2552853,117.40998 C70.5642366,118.825297 69.725152,118.945954 68.8768641,118.970918 C68.3505255,117.913713 67.7830081,117.175705 66.9786085,117.538096 Z" id="Path-Copy-8" fill="#000000" transform="translate(75.984320, 119.349333) scale(-1, 1) rotate(-135.000000) translate(-75.984320, -119.349333) "></path>
                        <path d="M94.4740537,11.0288146 L88.6712496,14.2388795 L75.4851217,14.2388795 C74.3914066,14.0445024 72.4538244,13.1521057 69.672375,11.5616894 L62.2070075,20.2857935 C57.0353277,18.0883893 53.506501,16.4106357 51.6205275,15.2525328 C50.4901963,14.5584404 49.1418612,14.3182455 47.843692,14.5797203 L46.5247496,14.8453778 C44.618295,15.2293724 43.0766617,16.6393393 42.5140277,18.5135555 L38.2447107,32.7352769 C37.9041619,33.8696948 37.1963743,34.8566736 36.2341446,35.5389232 L27.6592932,41.6187495 C26.2573586,42.6127631 25.4232455,44.2315076 25.4232455,45.9581968 C25.1069658,62.8593341 24.5214468,77.5938651 23.6666884,90.16179 C22.8119301,102.729715 21.6543425,112.44558 20.1939257,119.309387 C18.7412222,118.790449 18.0148705,116.579183 18.0148705,112.67559 C18.0148705,112.411405 17.957878,112.157709 17.957878,111.897183 L17.957878,42.8624248 C17.957878,41.1357356 18.7919911,39.5169911 20.1939257,38.5229775 L28.7687771,32.4431512 C29.7310068,31.7609016 30.4387944,30.7739228 30.7793432,29.6395049 L35.0486602,15.4177835 C35.6112942,13.5435673 37.1529275,12.1336005 39.0593821,11.7496058 L40.3783245,11.4839483 C41.6764937,11.2224735 43.0248288,11.4626684 44.15516,12.1567608 C46.9841203,13.8939152 49.9620733,14.5879547 53.0890192,14.2388795 C55.3890128,13.9821208 58.4283422,12.0578 62.2070075,8.46591741 C63.4184983,7.31431159 65.0993556,6.80744886 66.7399282,7.09901457 L78.1079037,9.11935296 C78.6971538,9.22407563 79.2998101,9.2269657 79.8900238,9.12789923 L88.6712496,7.65398386 C91.2011952,7.22933634 93.6102305,8.69580404 94.4740537,11.0288146 Z" id="Path" fill="#C4C3C6" fill-rule="nonzero" transform="translate(56.215966, 63.163793) scale(-1, 1) translate(-56.215966, -63.163793) "></path>
                        <path d="M29.5789454,34.8494183 L8.97893899,52.2465943 L8.97893899,46.1330555 C8.97893899,44.4758651 9.80879645,42.9222747 11.2035783,41.9682699 L19.7346805,36.1331552 C20.6920008,35.478366 21.3961773,34.5311128 21.7349885,33.442355 L25.9825234,19.7930543 C26.5422867,17.9942749 28.0760546,16.6410589 29.9727824,16.27252 L31.2849955,16.0175551 C32.1460261,15.8502547 34.1843813,15.935243 37.4000613,16.27252 L43.9308397,18.661601 L54.4164099,15.5807404 L57.0378024,11.3070988 C63.0548217,12.8729188 66.2587459,13.6893313 66.6495751,13.7563364 C67.2358189,13.856844 70.0079021,13.8514155 70.5951045,13.7563364 L79.3315281,12.3417458 C81.8485658,11.9341902 84.2453102,13.341633 85.1047261,15.5807404 L78.0223834,16.7275043 C77.435181,16.8225834 74.226199,16.3730276 73.6399552,16.27252 L64.0281826,18.661601 L60.4295866,16.0921671 L51.3581186,21.6327689 L41.3094471,21.6327689 L36.5035608,21.0695077 L32.5714719,23.616223 L29.5789454,34.8494183 Z" id="Path" fill="#FFFFFF" fill-rule="nonzero" transform="translate(47.041833, 31.776847) scale(-1, 1) translate(-47.041833, -31.776847) "></path>
                        <path d="M20.5794544,44.9918434 L70.4372239,41.349236 C71.4769482,41.2732738 72.3813909,42.0545573 72.4573532,43.0942817 C72.4576336,43.0981195 72.4579022,43.1019581 72.4581591,43.1057975 C72.5283134,44.1542173 71.7387932,45.0625654 70.6908221,45.1391301 L20.8330526,48.7817375 C19.7933282,48.8576997 18.8888855,48.0764162 18.8129233,47.0366918 C18.8126429,47.032854 18.8123742,47.0290154 18.8121173,47.025176 C18.741963,45.9767562 19.5314833,45.0684081 20.5794544,44.9918434 Z" id="Rectangle" fill="#000000" transform="translate(45.635138, 45.065487) scale(-1, 1) rotate(-1.000000) translate(-45.635138, -45.065487) "></path>
                        <path d="M20.5794544,67.9254116 L70.4372239,64.2828042 C71.4769482,64.206842 72.3813909,64.9881256 72.4573532,66.02785 C72.4576336,66.0316877 72.4579022,66.0355264 72.4581591,66.0393658 C72.5283134,67.0877855 71.7387932,67.9961336 70.6908221,68.0726984 L20.8330526,71.7153058 C19.7933282,71.791268 18.8888855,71.0099844 18.8129233,69.97026 C18.8126429,69.9664223 18.8123742,69.9625837 18.8121173,69.9587442 C18.741963,68.9103245 19.5314833,68.0019764 20.5794544,67.9254116 Z" id="Rectangle-Copy-5" fill="#000000" transform="translate(45.635138, 67.999055) scale(-1, 1) rotate(-1.000000) translate(-45.635138, -67.999055) "></path>
                        <path d="M20.5794544,56.4586275 L70.4372239,52.8160201 C71.4769482,52.7400579 72.3813909,53.5213415 72.4573532,54.5610658 C72.4576336,54.5649036 72.4579022,54.5687422 72.4581591,54.5725816 C72.5283134,55.6210014 71.7387932,56.5293495 70.6908221,56.6059142 L20.8330526,60.2485216 C19.7933282,60.3244839 18.8888855,59.5432003 18.8129233,58.5034759 C18.8126429,58.4996381 18.8123742,58.4957995 18.8121173,58.4919601 C18.741963,57.4435404 19.5314833,56.5351923 20.5794544,56.4586275 Z" id="Rectangle-Copy-4" fill="#000000" transform="translate(45.635138, 56.532271) scale(-1, 1) rotate(-1.000000) translate(-45.635138, -56.532271) "></path>
                        <path d="M20.5053695,77.2767172 L46.2292075,75.3920415 C47.2753941,75.3153919 48.1856327,76.1013569 48.2622823,77.1475436 C48.2625896,77.1517376 48.262883,77.1559327 48.2631624,77.1601288 C48.333462,78.2158204 47.5384934,79.1303286 46.483292,79.2076387 L20.759454,81.0923144 C19.7132674,81.168964 18.8030288,80.382999 18.7263791,79.3368124 C18.7260719,79.3326183 18.7257785,79.3284232 18.7254991,79.3242272 C18.6551995,78.2685355 19.450168,77.3540273 20.5053695,77.2767172 Z" id="Rectangle-Copy-7" fill="#000000" transform="translate(33.494331, 78.242178) scale(-1, 1) rotate(-1.000000) translate(-33.494331, -78.242178) "></path>
                    </g>
                    <g id="Group-30" transform="translate(42.617453, 43.798288)">
                        <path d="M17.7542841,10.7233242 C19.208528,5.87715914 19.095706,3.70519833 24.0233413,2.71230085 L32.3714241,4.99028427 C35.7268116,4.31418801 40.4341678,0.917584123 43.3557435,2.71230085 C44.5387136,3.43899642 48.3485742,2.78887335 49.5069625,2.71230085 C52.5672741,-2.4516868 67.7903513,3.5065248 71.0362286,1.57672009 C73.2001468,0.290183613 76.435658,0.290183613 80.742762,1.57672009 C85.6340435,0.755409793 88.3891798,0.292786292 89.0081708,0.188849586 C89.9366573,0.0329445281 90.8588433,-0.0243773821 91.7641903,0.00930016855 C92.1278744,0.0228286716 118.82037,1.63602934 123.292561,6.19921018 C125.901546,8.86127738 131.79765,9.13201044 140.980872,7.01140935 C147.484698,6.5705556 151.452986,11.9916215 152.885737,23.2746071 L104.867933,110.437789 C104.867933,117.239106 99.9229828,123.014218 93.2451652,124.011798 L18.9911655,132.152295 C11.5500965,133.263895 4.62347783,128.087733 3.5201296,120.591015 C3.42205676,119.924658 3.37282065,119.251929 3.37282065,118.578286 L0.297211201,40.6270476 C0.297211201,36.1623434 2.45314931,31.976752 6.07673956,29.4065288 L13.7894398,23.9358877 L17.7542841,10.7233242 Z" id="Path" fill="#000000" fill-rule="nonzero" transform="translate(76.591474, 66.151272) scale(-1, 1) translate(-76.591474, -66.151272) "></path>
                        <path d="M69.4913812,34.4745413 C69.1506514,35.6099994 68.4424874,36.5978833 67.479746,37.2807586 L58.9003349,43.3661601 C57.4976548,44.3610852 56.6630982,45.9813142 56.6630982,47.7095868 C56.6630982,74.4775893 56.6630982,94.5535911 56.6630982,107.937592 C56.6630982,110.695665 58.1276741,114.236935 61.0568259,118.561401 C61.0568259,118.822166 70.8825547,123.377137 73.7629685,122.94684 L129.054199,115.692244 C131.63916,115.306084 127.414072,110.57036 127.414072,107.937592 C131.506914,97.8479339 133.553334,89.8639905 133.553334,83.9857622 C133.553334,76.991216 131.356471,76.186544 131.356471,65.8702476 C131.356471,62.1463785 133.553334,50.3553497 133.553334,46.1986598 C133.553334,40.4815862 133.553334,30.9848627 133.553334,17.7084892 C133.553334,17.4159049 133.52934,17.1238208 133.481597,16.8352175 C133.002882,13.9414497 130.286359,11.9865644 127.414072,12.468859 L118.628177,13.944126 C118.037649,14.0432833 117.434672,14.0403906 116.845109,13.9355719 L105.471088,11.9133808 C103.829643,11.6215477 102.147892,12.1288752 100.935757,13.2815371 C97.1550827,16.8767136 94.1141371,18.802799 91.8129205,19.0597932 C88.6843118,19.4091885 85.7047753,18.7145125 82.8743107,16.9757651 C81.7433784,16.2810362 80.3943263,16.040621 79.0954669,16.3023356 L77.7758231,16.5682368 C75.8683547,16.9525835 74.3259016,18.3638433 73.7629685,20.2397782 L69.4913812,34.4745413 Z" id="Path" fill="#C4C3C6" fill-rule="nonzero" transform="translate(95.108216, 67.403991) scale(-1, 1) translate(-95.108216, -67.403991) "></path>
                        <path d="M136.593896,58.3598183 C135.801385,58.9315832 135.030316,59.5627436 134.292091,60.2842311 C132.315509,62.2154658 132.468466,66.6394482 132.478669,71.287893 C133.571686,69.8671663 134.50439,68.6545273 135.437208,67.4421841 C135.406082,68.0155105 135.272589,68.3850353 135.103401,68.6864082 C134.171891,70.344213 133.429906,72.357285 132.361898,73.7583534 L132.297271,74.3803804 C132.57243,74.9483972 132.544148,75.275452 132.270883,75.4076419 C132.270688,79.5758794 131.627378,83.8650757 132.588794,88.1042843 C132.809787,89.0785524 133.169472,89.1714516 133.443726,88.7504084 C133.789546,88.2193386 133.959439,87.4159247 134.039497,86.515043 C134.073025,86.138081 134.081105,85.7105384 134.312453,85.7262489 C135.430659,85.8022323 137.32425,84.0549271 137.313525,82.5184872 C137.305492,81.3864653 137.193911,80.1128136 137.870132,79.7196954 C138.055464,81.2495139 138.230577,82.6923027 138.420668,84.2602191 C139.188333,83.4408371 139.593202,82.0384967 140.583299,81.8181372 C140.282392,83.8923746 137.657115,85.3828686 136.54379,85.6135437 C135.225223,85.8868048 134.609745,87.1911915 134.583619,89.6972698 C134.573384,90.6900461 134.310053,91.2772019 133.724329,91.3652038 C133.152993,91.4506242 132.981743,92.4209082 133.013952,93.4594303 C133.076881,95.4931833 132.99536,99.4585525 132.970726,103.511005 L126.083997,103.511005 L126.083997,58.3598183 L136.593896,58.3598183 Z" id="Path" fill="#000000" transform="translate(133.333648, 80.935412) scale(-1, 1) translate(-133.333648, -80.935412) "></path>
                        <path d="M51.2961553,91.2035136 C52.1362013,91.5284164 52.8264716,91.9958223 53.4922966,92.5572027 C53.8354331,93.1313249 54.2411465,93.3127316 54.7430615,93.2595113 C55.1960757,93.2111184 55.6542,92.9577383 56.1623505,93.1431345 C55.6810276,93.8981982 55.4865498,93.7325328 55.2451189,94.7089506 C55.1602717,95.0518762 53.830604,95.1258318 53.5833798,95.2392165 C52.6058176,95.6870346 51.8845986,95.4204266 50.9140582,95.4409842 C50.2136896,95.4559186 47.8686834,98.084472 47.2458822,98.9711253 C48.6459247,98.1939872 52.4250227,95.9310209 53.8261981,96.6800927 C53.9142853,96.7270314 54.0546415,96.7290362 54.1188685,96.6482474 C54.5065156,96.1606429 55.7333626,96.8283478 56.1220581,96.3292297 C57.4733526,94.5940908 57.8009005,93.9742725 59.6827566,93.9928482 C60.6187318,94.0019276 60.9765655,93.2606087 61.8851123,93.6266261 C62.0372627,93.6879834 62.9617167,93.2291936 63.0890739,93.5329027 C63.3588854,94.1760743 63.8331271,93.3925926 64.2515834,93.1239158 C65.161171,92.5397769 65.952847,93.7048221 66.9288557,93.9102097 C67.7875021,94.0910191 73.9741337,93.0599858 74.8231463,92.7812312 C73.8407687,92.6575936 72.2555181,91.9704563 71.2744839,91.8512381 C70.3245028,91.7355788 64.8015781,91.8487012 63.8413142,92.0883098 C64.3411169,91.8734593 65.3901704,90.9812848 66.9884746,89.4117862 L72.3716684,88.1213375 C75.3328487,87.7546192 76.9573052,87.5394932 77.245038,87.4759593 C77.1208408,87.4182146 75.3756823,87.0213886 72.0095626,86.2854813 L66.2040177,87.875514 L63.9060098,90.8426207 C63.2632691,91.0620952 62.8741444,91.1972634 62.7386359,91.2481254 C61.8349907,91.5873541 62.1260856,91.1256008 61.1979613,90.648378 C59.7027509,89.8796048 59.6337503,91.6197239 58.0984676,91.4713958 C57.9095022,91.4531045 56.6487433,90.9106374 56.4985472,91.1078453 C55.6550899,92.2146971 54.6341862,92.3082198 53.6022817,92.3268447 C52.9641883,91.4989364 52.2753583,90.9207793 51.2961553,91.2035136 Z" id="Path-Copy-7" fill="#000000" transform="translate(62.245460, 92.628303) scale(-1, 1) rotate(-122.000000) translate(-62.245460, -92.628303) "></path>
                        <path d="M115.38032,117.538495 C116.07164,117.95269 116.640103,118.549178 117.188655,119.265791 C117.471925,119.999077 117.805858,120.230416 118.218416,120.161796 C118.590778,120.099405 118.966931,119.775043 119.385094,120.011356 C118.990873,120.976874 118.830645,120.765397 118.634102,122.013505 C118.565029,122.45185 117.471951,122.54797 117.268915,122.693169 C116.46608,123.266641 115.872574,122.926801 115.074657,122.954246 C114.498858,122.974178 112.576106,126.336182 112.065828,127.470036 C113.215358,126.475197 116.317923,123.578663 117.471442,124.534248 C117.54396,124.594127 117.659362,124.596519 117.712006,124.493197 C118.029745,123.869592 119.039772,124.721405 119.35835,124.083085 C120.465881,121.864025 120.733942,121.07153 122.281204,121.092994 C123.050762,121.103465 123.343481,120.155662 124.091203,120.622316 C124.216421,120.700544 124.975569,120.113114 125.080888,120.501086 C125.30401,121.322703 125.692353,120.320877 126.035861,119.977015 C126.782536,119.229413 127.43577,120.717329 128.238636,120.978624 C128.94496,121.208652 134.029419,119.88356 134.726902,119.526298 C133.918963,119.369483 132.614225,118.49327 131.8074,118.342101 C131.026112,118.195442 126.485501,118.346685 125.696471,118.654055 C126.106969,118.378882 126.967692,117.237456 128.278641,115.229778 L132.70201,113.574136 C135.135899,113.101907 136.471063,112.825022 136.707504,112.743481 C136.605276,112.669836 135.169647,112.164821 132.400616,111.228436 L127.630599,113.267442 L125.747167,117.062044 C125.219158,117.3433 124.899498,117.516509 124.788188,117.581672 C124.045909,118.016283 124.284316,117.425832 123.520275,116.817086 C122.289402,115.836437 122.236158,118.060311 120.973582,117.872611 C120.818181,117.849464 119.780524,117.157741 119.657431,117.409945 C118.966175,118.82547 118.126995,118.946222 117.278621,118.971271 C116.752335,117.914015 116.184835,117.17599 115.38032,117.538495 Z" id="Path-Copy-8" fill="#000000" transform="translate(124.386666, 119.349236) scale(-1, 1) rotate(-135.000000) translate(-124.386666, -119.349236) "></path>
                        <path d="M143.219536,11.0257025 L137.413646,14.2387112 L124.220506,14.2387112 C123.126209,14.0441558 121.187597,13.1509407 118.404669,11.559066 L110.935331,20.2911703 C105.760901,18.091751 102.230198,16.4124589 100.343222,15.253294 C99.2122896,14.558565 97.8632375,14.3181499 96.5643781,14.5798645 L95.2447343,14.8457656 C93.3372659,15.2301124 91.7948128,16.6413722 91.2318797,18.5173071 L86.9602924,32.7520702 C86.6195626,33.8875283 85.9113986,34.8754122 84.9486572,35.5582875 L76.3692461,41.643689 C74.966566,42.6386141 74.1320094,44.2588431 74.1320094,45.9871157 C73.8155615,62.9037517 73.2297311,77.6517946 72.3745182,90.2312445 C71.5193054,102.810694 70.3611023,112.53547 68.8999089,119.40557 C67.4464329,118.886156 66.7196949,116.672863 66.7196949,112.76569 C66.7196949,112.501262 66.6626721,112.247334 66.6626721,111.986569 L66.6626721,42.8885048 C66.6626721,41.1602322 67.4972288,39.5400033 68.8999089,38.5450781 L77.47932,32.4596766 C78.4420613,31.7768013 79.1502253,30.7889174 79.4909552,29.6534593 L83.7625424,15.4186962 C84.3254756,13.5427613 85.8679287,12.1315015 87.7753971,11.7471548 L89.0950408,11.4812536 C90.3939003,11.219539 91.7429523,11.4599542 92.8738847,12.1546831 C95.7043492,13.8934305 98.6838858,14.5881065 101.812494,14.2387112 C104.113711,13.981717 107.154657,12.0556316 110.935331,8.46045512 C112.147466,7.30779325 113.829217,6.80046571 115.470662,7.0922988 L126.844683,9.11448988 C127.434246,9.21930858 128.037223,9.22220131 128.627751,9.12304399 L137.413646,7.64777701 C139.944937,7.22274007 142.355253,8.69055256 143.219536,11.0257025 Z" id="Path" fill="#C4C3C6" fill-rule="nonzero" transform="translate(104.941104, 63.208490) scale(-1, 1) translate(-104.941104, -63.208490) "></path>
                        <path d="M78.004921,34.8689201 L57.4358437,52.3628838 L57.4358437,46.2153329 C57.4358437,44.5489229 58.2644553,42.9866892 59.657143,42.0273769 L68.1754364,36.159799 C69.1313194,35.5013669 69.8344386,34.5488437 70.1727412,33.4540288 L74.4138987,19.7287914 C74.9728216,17.9200046 76.5042867,16.5592601 78.3981667,16.1886708 L79.7084097,15.9322875 C80.5681475,15.7640563 82.6034423,15.8495175 85.8142942,16.1886708 L92.3352672,18.5910433 L102.805094,15.4930426 L105.422551,11.1956249 C111.430536,12.7701563 114.62965,13.5911109 115.019892,13.6584887 C115.605256,13.7595555 118.373177,13.7540967 118.959498,13.6584887 L127.682804,12.2360281 C130.196063,11.8262051 132.589209,13.2414781 133.447335,15.4930426 L126.375625,16.6461865 C125.789305,16.7417945 122.585141,16.2897376 121.999777,16.1886708 L112.402436,18.5910433 L108.809243,16.0073146 L99.7513946,21.5787411 L89.7178104,21.5787411 L84.9191397,21.0123462 L80.9929546,23.5732299 L78.004921,34.8689201 Z" id="Path" fill="#FFFFFF" fill-rule="nonzero" transform="translate(95.441589, 31.779254) scale(-1, 1) translate(-95.441589, -31.779254) "></path>
                        <polygon id="Rectangle" fill="#000000" transform="translate(94.031706, 45.065487) scale(-1, 1) rotate(-1.000000) translate(-94.031706, -45.065487) " points="67.1990351 45.1278806 120.61187 41.3443898 120.864376 45.0030929 67.4515414 48.7865837"></polygon>
                        <polygon id="Rectangle-Copy-5" fill="#000000" transform="translate(94.031706, 67.999055) scale(-1, 1) rotate(-1.000000) translate(-94.031706, -67.999055) " points="67.1990351 68.0614489 120.61187 64.277958 120.864376 67.9366611 67.4515414 71.720152"></polygon>
                        <polygon id="Rectangle-Copy-4" fill="#000000" transform="translate(94.031706, 56.532271) scale(-1, 1) rotate(-1.000000) translate(-94.031706, -56.532271) " points="67.1990351 56.5946647 120.61187 52.8111739 120.864376 56.469877 67.4515414 60.2533679"></polygon>
                        <polygon id="Rectangle-Copy-7" fill="#000000" transform="translate(81.888505, 78.242178) scale(-1, 1) rotate(-1.000000) translate(-81.888505, -78.242178) " points="67.112407 77.453571 96.4125524 75.3870948 96.6646038 79.0307849 67.3644584 81.0972611"></polygon>
                    </g>
                    <g id="Group-30-Copy" transform="translate(0.752690, 58.105196)">
                        <path d="M20.3067112,11.3135123 C21.843134,6.20062503 21.7239365,3.90912428 26.9300313,2.86157991 L35.7498623,5.26493852 C39.294862,4.55163142 44.2682299,0.968085932 47.3549031,2.86157991 C48.6047225,3.62827121 52.6298774,2.94236679 53.853726,2.86157991 C57.0869751,-2.58662224 73.1703049,3.6995162 76.5996059,1.66349929 C78.8858067,0.306154679 82.3041558,0.306154679 86.8546532,1.66349929 C92.02234,0.796985883 94.9331683,0.308900605 95.5871384,0.199243452 C96.5680935,0.0347577223 97.5423919,-0.0257190595 98.4988999,0.00981202934 C99.1365718,0.0334994219 103.686051,4.06350075 112.147337,12.099816 C112.277867,13.1549306 112.343132,13.9483021 112.343132,14.4799305 L112.343132,116.516042 C112.343132,123.691688 107.118744,129.78465 100.063564,130.837135 L21.6134885,139.425666 C13.7519264,140.598446 6.43388614,135.1374 5.26818796,127.228079 C5.16457304,126.525047 5.11255461,125.815292 5.11255461,125.104573 L4.64901032,113.372424 L-1.08002496e-12,43.1343066 C-1.08002496e-12,38.4238749 4.14091285,33.736682 7.96927134,31.0249993 L16.1178145,25.2532663 L20.3067112,11.3135123 Z" id="Path" fill="#000000" fill-rule="nonzero" transform="translate(56.171566, 69.792092) scale(-1, 1) translate(-56.171566, -69.792092) "></path>
                        <path d="M22.1360097,36.3853529 C21.776178,37.584324 21.028313,38.6274661 20.0115987,39.3485387 L10.9512106,45.7743329 C9.46989375,46.8249101 8.58855034,48.535768 8.58855034,50.3607132 C8.58855034,78.6260091 8.58855034,99.8249811 8.58855034,113.957629 C8.58855034,116.869977 10.135233,120.609331 13.2285983,125.175691 C13.2285983,125.451042 23.6051749,130.260799 26.6470698,129.806433 L85.0380246,122.146045 C87.7679038,121.738285 83.3059493,116.737663 83.3059493,113.957629 C87.628243,103.303596 89.7893899,94.8730631 89.7893899,88.6660306 C89.7893899,81.2802379 87.4693659,80.4305558 87.4693659,69.5372076 C87.4693659,65.6050404 89.7893899,53.1544694 89.7893899,48.7652711 C89.7893899,42.7284076 89.7893899,32.7004759 89.7893899,18.681476 C89.7893899,18.3725257 89.7640506,18.0641036 89.7136305,17.759357 C89.2080784,14.7037235 86.3392618,12.6394899 83.3059493,13.1487621 L74.0275012,14.7065495 C73.4038677,14.8112533 72.7670869,14.8081988 72.1444715,14.697517 L60.1328033,12.5622127 C58.3993359,12.2540557 56.6233029,12.789761 55.3432135,14.0068981 C51.3505875,17.8031742 48.1391611,19.836997 45.7089341,20.1083664 C42.4049301,20.4773055 39.2583554,19.7437721 36.26921,17.9077663 C35.0748756,17.174177 33.6501933,16.920314 32.2785175,17.1966679 L30.8848922,17.4774424 C28.8704877,17.883288 27.2415619,19.3734879 26.6470698,21.354355 L22.1360097,36.3853529 Z" id="Path" fill="#C4C3C6" fill-rule="nonzero" transform="translate(49.188970, 71.156742) scale(-1, 1) translate(-49.188970, -71.156742) "></path>
                        <path d="M93.0176562,61.6041933 C92.1854705,62.2065606 91.3758006,62.8715022 90.6006199,63.6316057 C88.525087,65.666205 88.6857015,70.3269703 88.6964153,75.2242118 C89.8441505,73.7274442 90.8235467,72.4499016 91.8030627,71.1726707 C91.7703779,71.776683 91.6302022,72.1659857 91.4525447,72.4834889 C90.4744021,74.2300237 89.6952718,76.3508405 88.5737988,77.8268976 L88.5059356,78.4822171 C88.7948693,79.0806356 88.7651716,79.4251952 88.4782272,79.5644603 C88.478022,83.9557926 87.802507,88.4745577 88.8120526,92.9406597 C89.0441096,93.9670731 89.4218006,94.0649444 89.7097845,93.621366 C90.0729161,93.0618719 90.2513145,92.2154573 90.3353799,91.266358 C90.3705869,90.86922 90.3790708,90.4187943 90.6220013,90.4353457 C91.7961853,90.5153959 93.784573,88.6745704 93.7733105,87.0558963 C93.7648753,85.8632857 93.6477085,84.5214649 94.357782,84.107306 C94.552392,85.7190043 94.7362719,87.2390149 94.9358785,88.8908501 C95.7419746,88.0276127 96.1671111,86.5502154 97.2067743,86.3180617 C96.8908035,88.5033177 94.134101,90.0735867 92.9650412,90.3166082 C91.580465,90.6044949 90.9341753,91.9786958 90.9067415,94.6189058 C90.8959945,95.6648181 90.6194806,96.2833999 90.0044342,96.376112 C89.4044966,96.4661043 89.2246739,97.4883203 89.2584946,98.5824268 C89.3245746,100.725031 89.2389728,104.902637 89.2131056,109.171988 L81.9816168,109.171988 L81.9816168,61.6041933 L93.0176562,61.6041933 Z" id="Path" fill="#000000" transform="translate(89.594196, 85.388091) scale(-1, 1) translate(-89.594196, -85.388091) "></path>
                        <path d="M3.07474287,96.2421368 C3.96123593,96.5849109 4.68962434,97.0781499 5.39219126,97.6705962 C5.75419512,98.2765697 6.18233507,98.4679699 6.71206036,98.41167 C7.19017544,98.3604776 7.67373239,98.0928954 8.20998174,98.2884825 C7.70182194,99.0856578 7.49661279,98.9108243 7.24157833,99.9416085 C7.15195049,100.303628 5.74862397,100.382013 5.48768077,100.501763 C4.45587145,100.974722 3.69477255,100.693457 2.67047562,100.715389 C1.93131493,100.73132 -0.544190658,103.506634 -1.20169558,104.442751 C0.276070673,103.622055 4.26500557,101.232322 5.74360421,102.022724 C5.83655878,102.072253 5.98468784,102.074336 6.05249114,101.989038 C6.46172343,101.47422 7.75635813,102.178772 8.16669966,101.6518 C9.59324602,99.8198299 9.93908206,99.1654589 11.9251568,99.1846201 C12.9129671,99.1939817 13.2907951,98.4113451 14.2495731,98.7975044 C14.4101354,98.8622381 15.3858977,98.3777103 15.5202362,98.6982815 C15.8048376,99.3771624 16.3055308,98.5499903 16.7472264,98.2662699 C17.7073288,97.6494244 18.5425731,98.8790817 19.5725874,99.0956608 C20.4787453,99.2863226 27.0082574,98.1964705 27.9043574,97.9020093 C26.867602,97.7717287 25.1947188,97.0467496 24.1593802,96.9211339 C23.1568136,96.7992677 17.3279851,96.9199963 16.3144817,97.1731605 C16.8420162,96.946241 17.9493818,96.0041936 19.6365786,94.3470182 L25.3182178,92.9835131 C28.4434848,92.5956931 30.1579601,92.368215 30.4616435,92.3010789 C30.3305816,92.240152 28.4888652,91.8216696 24.9364943,91.0456317 L18.8090416,92.7254844 L16.3830567,95.8581701 C15.7046668,96.0900048 15.2939591,96.2327838 15.1509335,96.2865071 C14.1971609,96.6448188 14.5044874,96.1573132 13.5250742,95.6537679 C11.9472373,94.8425909 11.8740011,96.6795128 10.253725,96.5233 C10.0542984,96.5040363 8.7238438,95.9316969 8.5652824,96.1399094 C7.67484836,97.3085256 6.59738158,97.4074931 5.5083225,97.4273994 C4.83508647,96.5535942 4.10824448,95.9434436 3.07474287,96.2421368 Z" id="Path-Copy-7" fill="#000000" transform="translate(14.629974, 97.744191) scale(-1, 1) rotate(-122.000000) translate(-14.629974, -97.744191) "></path>
                        <path d="M70.7309207,124.031521 C71.4604974,124.468519 72.0603504,125.09796 72.6391566,125.854198 C72.9379534,126.628105 73.2903574,126.872194 73.7258292,126.799656 C74.1188731,126.733704 74.5159875,126.391241 74.9572944,126.640558 C74.5409392,127.659764 74.3718753,127.436593 74.1640937,128.75402 C74.0910718,129.21671 72.9373054,129.318454 72.7229634,129.471765 C71.8754214,130.077276 71.2490674,129.718733 70.4068601,129.747912 C69.7991005,129.769103 67.7687516,133.318198 67.229854,134.515113 C68.4434432,133.464759 71.7189593,130.406653 72.9362426,131.414965 C73.0127689,131.478148 73.1345748,131.480642 73.1901681,131.371572 C73.5257057,130.713275 74.5915606,131.612093 74.9279876,130.938265 C76.0975713,128.595759 76.3807194,127.759212 78.0138442,127.781457 C78.8261081,127.792306 79.1353227,126.791824 79.924418,127.284179 C80.0565645,127.366715 80.8579991,126.746484 80.9690604,127.155959 C81.2043476,128.023115 81.6145073,126.965587 81.9771703,126.60255 C82.7654811,125.813261 83.4545741,127.383579 84.3019282,127.659163 C85.0473905,127.90177 90.4143743,126.501792 91.1506601,126.124519 C90.2979242,125.959214 88.9210088,125.03472 88.0694467,124.875375 C87.244839,124.720784 82.4521956,124.881623 81.6192954,125.206259 C82.0526471,124.915706 82.9614406,123.710707 84.3456757,121.591261 L89.0149682,119.842564 C91.584056,119.343483 92.993392,119.050878 93.2429763,118.964749 C93.1350943,118.887044 91.619925,118.354382 88.6974686,117.366763 L83.6621881,119.520192 L81.6732262,123.525883 C81.1158398,123.822887 80.778394,124.005794 80.6608887,124.074603 C79.8772998,124.53353 80.1290944,123.910247 79.3228121,123.267919 C78.0238894,122.233174 77.9671008,124.580481 76.6345051,124.382698 C76.4704867,124.358308 75.3754251,123.628471 75.2454338,123.894704 C74.5154399,125.38897 73.6296565,125.516645 72.7341935,125.543309 C72.1789797,124.427517 71.5801798,123.648684 70.7309207,124.031521 Z" id="Path-Copy-8" fill="#000000" transform="translate(80.236415, 125.940938) scale(-1, 1) rotate(-135.000000) translate(-80.236415, -125.940938) "></path>
                        <path d="M99.9394948,11.6415265 L93.8110231,15.0299284 L79.8848574,15.0299284 C78.7297604,14.8247525 76.6834363,13.8827782 73.7458852,12.2040055 L65.861543,21.412782 C60.3996158,19.0932998 56.6727428,17.3223377 54.6809238,16.0998957 C53.4871556,15.3672426 52.0631487,15.1137035 50.6921231,15.3897048 L49.2991584,15.670121 C47.2857089,16.0754487 45.6575553,17.563747 45.0633449,19.5420863 L40.5544233,34.5539034 C40.1947622,35.7513445 39.4472518,36.7931555 38.4310194,37.5133079 L29.3749264,43.9309022 C27.8943118,44.9801388 27.0133861,46.6888135 27.0133861,48.5114299 C26.679356,66.3515193 26.0609763,81.9046354 25.1582468,95.1707783 C24.2555173,108.436921 23.0329631,118.692557 21.4905842,125.937686 C19.9563514,125.389918 19.189235,123.055804 19.189235,118.935345 C19.189235,118.656483 19.1290439,118.388693 19.1290439,118.113693 L19.1290439,45.2436706 C19.1290439,43.4210542 20.0099695,41.7123795 21.4905842,40.6631429 L30.5466772,34.2455485 C31.5629096,33.5253961 32.31042,32.4835851 32.6700811,31.2861441 L37.1790027,16.274327 C37.7732131,14.2959877 39.4013666,12.8076894 41.4148162,12.4023617 L42.8077809,12.1219454 C44.1788064,11.8459442 45.6028134,12.0994833 46.7965816,12.8321364 C49.78431,14.6657993 52.9293931,15.3983967 56.2318308,15.0299284 C58.6609057,14.7589053 61.8708097,12.7276778 65.861543,8.93624616 C67.1410256,7.72066223 68.9162167,7.18564046 70.6488623,7.49340427 L82.6548364,9.62598368 C83.2771567,9.73652427 83.9136355,9.73957491 84.5369735,9.63500474 L93.8110231,8.07920519 C96.4829555,7.63096613 99.0271918,9.17890427 99.9394948,11.6415265 Z" id="Path" fill="#C4C3C6" fill-rule="nonzero" transform="translate(59.534269, 66.672893) scale(-1, 1) translate(-59.534269, -66.672893) "></path>
                        <path d="M31.1313856,36.9744936 L9.36932764,55.365794 L9.36932764,48.9029101 C9.36932764,47.1510231 10.2459976,45.5086561 11.7194595,44.5001368 L20.7318033,38.3315869 C21.7431263,37.6393811 22.4870255,36.6379992 22.8449492,35.4870267 L27.3320886,21.057766 C27.9234283,19.1561992 29.5437164,17.7256565 31.5474392,17.3360582 L32.9336745,17.0665239 C33.8432761,16.8896636 35.9966155,16.9795083 39.3936928,17.3360582 L46.292874,19.8616582 L57.3699379,16.6047484 L60.1392039,12.0868987 C66.4956448,13.7421941 69.8803032,14.6052588 70.2931791,14.6760928 C70.912493,14.7823437 73.8409502,14.7766049 74.4612769,14.6760928 L83.6905243,13.1806684 C86.3495488,12.7498239 88.8814941,14.237692 89.7893899,16.6047484 L82.3075305,17.8170417 C81.6872038,17.9175539 78.2972023,17.4423091 77.6778884,17.3360582 L67.5239131,19.8616582 L63.7223194,17.1453995 L54.1391276,23.0026071 L43.523608,23.0026071 L38.4466204,22.4071595 L34.2927214,25.0994015 L31.1313856,36.9744936 Z" id="Path" fill="#FFFFFF" fill-rule="nonzero" transform="translate(49.579359, 33.726346) scale(-1, 1) translate(-49.579359, -33.726346) "></path>
                        <polygon id="Rectangle" fill="#000000" transform="translate(48.189344, 47.554569) scale(-1, 1) rotate(-1.000000) translate(-48.189344, -47.554569) " points="19.8604471 47.6201697 76.2516191 43.6281088 76.5182404 47.488968 20.1270683 51.481029"></polygon>
                        <polygon id="Rectangle-Copy-5" fill="#000000" transform="translate(48.189344, 71.754817) scale(-1, 1) rotate(-1.000000) translate(-48.189344, -71.754817) " points="19.8604471 71.8204176 76.2516191 67.8283567 76.5182404 71.6892159 20.1270683 75.6812769"></polygon>
                        <polygon id="Rectangle-Copy-4" fill="#000000" transform="translate(48.189344, 59.654693) scale(-1, 1) rotate(-1.000000) translate(-48.189344, -59.654693) " points="19.8604471 59.7202937 76.2516191 55.7282327 76.5182404 59.589092 20.1270683 63.5811529"></polygon>
                        <polygon id="Rectangle-Copy-7" fill="#000000" transform="translate(35.369013, 82.563694) scale(-1, 1) rotate(-1.000000) translate(-35.369013, -82.563694) " points="19.7689784 81.7313767 50.7029075 79.5509675 50.9690485 83.3960105 20.0351193 85.5764197"></polygon>
                    </g>
                </g>
                <g id="Group-22" transform="translate(100.618042, 89.500000) scale(-1, 1) rotate(-195.000000) translate(-100.618042, -89.500000) translate(51.618042, 11.000000)">
                    <path d="M32.9447232,17.1764245 C39.5838342,23.2270892 50.2568662,40.0656501 52.4170389,36.7189682 C55.2105209,32.3911215 61.6586491,21.728369 68.1152344,19.1246784 C70.2525308,18.2627896 72.7012207,17.9851155 75.5345905,18.6158958 C79.7248777,19.5487605 82.4032652,23.3877617 83.5697529,30.1328993 C84.0053055,49.4300963 87.1216595,61.9819088 92.918815,67.7883368 C101.614548,76.4979787 84.8493069,77.6274977 84.8902077,81.2869631 C84.9485644,86.5082548 58.9911678,61.7897972 49.6519837,52.4602156 C39.0535415,41.8726707 27.7089623,12.4047263 32.9447232,17.1764245 Z" id="Path-Copy-24" fill="#000000"></path>
                    <path d="M53.9941064,40.8999922 C54.0880045,40.6037843 54.1805028,40.308724 54.2974443,39.9331869 C54.2961112,39.9374679 54.5227987,39.2084671 54.5859258,39.0063911 C54.8243472,38.2431805 54.997616,37.704601 55.1808679,37.1665942 C55.5056801,36.2129819 55.8288594,35.3668643 56.2005829,34.5189556 C57.0893943,32.4915588 58.2292817,30.5267456 59.9479254,28.0474127 C66.0809487,19.1998507 73.9680849,15.1932503 80.1940826,18.0116938 C85.1041387,20.2344244 86.3140988,25.1532901 84.9089043,30.5610677 C84.8230622,30.891424 82.7460584,37.3708516 82.1939251,39.7984482 C82.0410293,40.4706944 81.9033329,41.1466759 81.7807621,41.8325028 C81.7470904,42.0209078 80.9543054,46.2124615 80.7390776,47.5087641 C79.7471041,53.4833552 79.6826259,58.3100316 80.8997876,63.6132668 C81.1465671,64.6884976 81.3885223,65.4395726 81.9217373,66.875994 C81.9955542,67.0746595 82.0413272,67.1978193 82.0724917,67.2818483 C82.1333806,67.4460234 82.1835258,67.5819671 82.2322699,67.7152827 C84.3628285,73.542383 84.7824296,78.9604241 83.5534442,91.4330066 C83.1320682,95.7094176 82.7698743,99.0173709 82.4543752,101.571853 C82.3475489,102.436787 82.2500128,103.183541 82.1573749,103.855047 C82.1623007,103.873852 82.1672055,103.892721 82.1720896,103.911653 C82.7586985,106.185512 87.7381251,118.796743 97.1103693,141.745347 C94.9262895,143.799737 92.9808649,145.093889 91.2740955,145.627804 C90.8142587,145.771651 83.524981,148.218883 82.9457948,148.412365 C80.5133725,149.224937 78.2995212,149.95852 76.1988805,150.646251 C69.9517418,152.691509 62.1077591,154.638783 52.6669323,156.488073 L48.4642125,144.717794 C40.0611202,127.463736 32.3405951,113.065075 25.302637,101.521812 C22.4325713,97.1600303 20.6416356,93.7785261 19.9298301,91.3772989 C17.7187934,83.9185186 14.9799322,76.6848259 14.0181507,75.141832 C11.8788127,71.7096748 11.1815753,60.0179786 11.8705902,58.876759 C11.7228991,58.4064844 9.59241608,54.2135646 9.42988793,53.6943755 C8.65744602,51.2268434 8.08844038,49.3108717 7.57161405,47.3743043 C6.36971007,42.8707255 5.69634286,39.129118 5.67823049,35.8270509 C5.66156622,32.7889892 6.23684147,30.0282264 7.50133278,27.8836552 C7.43085025,27.6524051 7.35554299,27.4122909 7.27532766,27.1629951 C7.06804385,26.5187919 6.85367296,25.885938 6.50099897,24.8675081 C5.38858421,21.6551464 5.09383163,20.7521032 4.72497852,19.2135043 C3.96071393,16.0255234 -0.453074741,7.95960458 0.893695623,5.21378095 C4.35005477,-1.83311647 14.8474435,-0.518934885 21.6101861,4.16765576 C27.5593136,8.29040993 34.728252,19.8274849 41.5773252,33.6683098 C43.1792884,36.9056081 46.5326671,40.5232086 49.832147,42.535808 C51.0952196,43.3062504 52.209365,43.7512438 53.003632,43.8747621 C53.352627,42.8802798 53.6696084,41.9236426 53.9941064,40.8999922 Z" id="Path" fill="#000000" fill-rule="nonzero"></path>
                    <path d="M13.3637483,29.988362 C17.3882529,37.8557216 22.6635058,47.5520899 25.4840213,52.4245162 C28.3045368,57.2969426 28.7786934,59.9471973 32.3964917,63.8110825 C30.8706698,58.4596393 29.2926433,54.6630034 27.6624123,52.4211747 C26.1498775,50.3411971 11.5597734,21.272969 9.63820021,16.8422371 C8.51127103,14.2437822 7.49284706,12.6143677 6.91266845,10.6179263 L5.64120513,7.18472332 C13.5213782,1.7003332 22.7300181,10.0534452 33.2671249,32.2440593 C36.35834,38.7540021 46.4842046,50.022376 51.9346762,50.7290755 C54.0786491,51.0070597 55.934528,50.3977492 57.1365935,48.5492203 C60.4477718,39.7290604 59.6426798,38.644656 64.0141874,32.3636409 C69.3355999,24.7177953 74.8171968,22.9749103 77.7934773,24.3114382 C81.5751295,26.0096261 76.7331803,29.1013335 74.8815935,39.325002 C73.7996608,45.2989708 70.1194073,51.1319853 72.5247403,61.6612396 C73.409765,65.5354015 76.9013629,80.9783625 75.764479,89.7559485 C75.1099944,94.8090545 73.5101132,98.7697013 70.9648353,101.637889 L78.844482,126.299771 C88.697632,142.541922 85.1893514,139.771465 81.0523611,141.83656 C79.5185658,142.602197 71.5352991,145.33818 57.1025612,150.044508 L36.8220281,104.791896 C29.7286421,91.6066899 25.2244751,82.7069042 23.3095271,78.0925391 C18.4255581,66.3238563 18.3355773,60.2904224 18.8227302,59.1033353 C21.0809269,63.3323525 26.5559413,70.9054042 24.4276232,66.7283518 C21.9175412,62.3707878 8.53454048,33.2021638 13.3637483,29.988362 Z" id="Path" fill="#C4C3C6"></path>
                    <g id="Group" transform="translate(77.710243, 31.598900) rotate(5.000000) translate(-77.710243, -31.598900) translate(71.210243, 24.098900)">
                        <path d="M6.08889778,13.970493 C8.57365874,13.8703144 10.6987528,10.880877 10.8354283,7.29339761 C10.9721038,3.70591824 10.0178877,1.45673068 7.53312671,1.55690929 C5.04836575,1.65708789 -0.347411527,7.31195069 2.22794259,10.4301622 C4.8032967,13.5483738 3.60413682,14.0706716 6.08889778,13.970493 Z" id="Oval" fill="#000000" transform="translate(6.198160, 7.767705) rotate(-15.000000) translate(-6.198160, -7.767705) "></path>
                        <path d="M4.39457275,11.0219675 C4.97870356,10.4379405 6.35270464,7.99437392 8.516576,3.69126785 C8.38432121,3.08441513 7.80686749,2.80430972 6.78421486,2.85095162 C5.25023591,2.92091447 1.91936442,6.86170727 3.50941201,9.03439614 C5.0994596,11.207085 3.51837654,11.898008 4.39457275,11.0219675 Z" id="Oval-Copy-3" fill="#FFFFFF" transform="translate(5.803116, 7.118567) rotate(-15.000000) translate(-5.803116, -7.118567) "></path>
                    </g>
                    <path d="M7.86159793,20.2676174 C8.65096995,19.4175583 10.4741839,15.8047589 13.3312398,9.42921939 C13.0055815,7.87209112 12.1364603,7.10185974 10.7238762,7.11852525 C8.60500009,7.14352351 4.1229388,12.9114467 6.38969148,16.27132 C8.65644415,19.6311933 6.6775399,21.5427061 7.86159793,20.2676174 Z" id="Oval-Copy-5" fill="#000000" transform="translate(9.548567, 13.891871) scale(-1, 1) rotate(-4.000000) translate(-9.548567, -13.891871) "></path>
                    <path d="M8.4418579,18.6270997 C8.81219567,18.5366371 10.361725,15.7085795 13.0904459,10.1429269 C12.5948205,9.21972638 11.7346478,8.76535069 10.5099277,8.77979979 C8.67284753,8.80147345 4.79393313,13.1030788 6.7634089,15.6017666 C8.73288466,18.1004545 7.88635125,18.7627935 8.4418579,18.6270997 Z" id="Oval-Copy-4" fill="#FFFFFF" transform="translate(9.655170, 13.711640) scale(-1, 1) rotate(-4.000000) translate(-9.655170, -13.711640) "></path>
                    <path d="M72.5141246,144.400676 C69.3756547,136.358351 66.7503109,119.456234 64.0551676,110.027338 C68.7565628,106.574121 69.495054,103.251009 71.0721022,101.619463 C74.833273,112.434047 82.2768999,132.170145 86.0485216,140.027104 C81.6819111,141.481278 76.92405,143.023238 72.5141246,144.400676 Z" id="Path" fill="#FFFFFF"></path>
                    <path d="M36.0666649,37.2382185 C37.6903962,40.6124014 43.0300218,45.6576601 46.0980867,48.2099598 C45.8348948,48.8036501 29.9102984,37.1247871 25.3607399,29.2291437 C20.5321926,20.8493222 12.3993852,12.2907462 13.0441683,6.64845785 C17.8510116,7.48825639 23.6366148,11.4080443 36.0666649,37.2382185 Z" id="Path" fill="#FFFFFF"></path>
                    <path d="M61.8888952,45.3609968 C57.9611416,51.3157129 55.4307482,50.5877367 54.8635392,50.4070891 C57.4812967,48.8810081 57.9562678,46.7453561 58.1505839,44.9142659 C59.2198082,34.8386906 69.0552484,26.0908289 71.6016725,25.3527437 C74.1480966,24.6146585 72.2497933,26.7084388 71.8466034,27.8865139 C65.2245121,34.8311474 62.5037752,40.7796024 61.8888952,45.3609968 Z" id="Path" fill="#FFFFFF"></path>
                    <path d="M25.2621594,51.3544722 C27.1980533,54.1666085 29.1011766,56.583766 30.2107041,57.5477593 C30.9496148,59.0040335 33.9913143,64.2437168 33.6036505,64.5231041 C30.9879653,66.4082154 22.8725004,53.9216793 19.305357,47.329136 C16.7814315,42.6645944 15.4092439,37.6883731 15.894042,34.6093031 C16.6258943,36.2313369 19.7486001,41.8130599 25.2621594,51.3544722 Z" id="Path-Copy-18" fill="#FFFFFF"></path>
                </g>
            </g>
        </g>
    </g>
</svg>