<?xml version="1.0" encoding="UTF-8"?>
<svg width="192px" height="170px" viewBox="0 0 192 170" version="1.1" xmlns="http://www.w3.org/2000/svg" xmlns:xlink="http://www.w3.org/1999/xlink">
    <!-- Generator: Sketch 61 (89581) - https://sketch.com -->
    <title>thumbs up</title>
    <desc>Created with Sketch.</desc>
    <g id="Illustrations" stroke="none" stroke-width="1" fill="none" fill-rule="evenodd">
        <g id="Other" transform="translate(-1155.000000, -2394.000000)">
            <g id="thumbs-up" transform="translate(1155.000000, 2394.000000)">
                <path d="M41.9275362,165.662125 C27.0264953,165.662125 14.9468599,156.012169 14.9468599,144.10839 C14.9468599,143.39399 14.9905428,142.683652 15.0771927,141.979286 C6.96863158,138.174891 1.75845411,131.169462 1.75845411,123.388161 C1.75845411,119.30545 3.18856695,115.394363 5.80425284,112.030162 C2.10054294,108.398643 0,103.823234 0,98.9804337 C0,94.1096676 2.12471281,89.508407 5.87119666,85.8654258 C3.76913579,82.7599855 2.63768116,79.2588813 2.63768116,75.6262774 C2.63768116,63.7224982 14.7173166,54.0725425 29.6183575,54.0725425 L57,54.0725425 C57.2621972,54.0725425 61.3150404,54.0313892 61.1373708,54.0330846 C61.1671976,54.0328 64.9703194,54.0333662 65,54.0330846 C63.6837146,52.3946852 47.3534286,33.2671539 47.5,21 C47.6582507,7.75536044 60.6191086,1.34877875 61.8362877,0.853337871 C67.4148956,-1.41738018 75.3922625,0.845484197 81.2263043,7.62008145 C88.3265517,15.8650201 97.8547005,21.6985093 103.272034,28.7570457 C104.616193,30.5084234 108.269857,35.3294836 108.444667,35.5584819 C110.038934,37.646948 111.071736,38.9462724 111.97378,39.9818829 C116.014484,44.6208973 121.452284,48.8563449 128.316363,52.684605 C135.135199,56.4876314 141.026444,62.5117809 146.167686,70.2272973 L192,70.2272973 L192,156.179986 L137.859737,156.179986 C127.064328,162.696656 111.651716,168.089461 100.03882,169.481026 C88.7513344,170.833596 71.9210746,169.53603 49.3088359,165.662125 L41.9275362,165.662125 Z" id="Path-Copy-27" fill="#000000" fill-rule="nonzero"></path>
                <path d="M89.3298174,26.986304 C89.3776281,28.4242891 89.197955,29.9361221 88.7629537,31.3708562 C88.5844563,31.9595813 88.3725255,32.5038003 88.1335202,32.9993146 C89.4839007,33.0280156 90.7676073,32.1545318 91.4773965,30.5215725 C91.5638738,30.3226207 91.6392683,30.1182933 91.7038389,29.9098474 C94.2615927,33.0599703 98.7583792,38.4912081 98.9069153,38.685817 C100.5988,40.9024881 101.719083,42.3120782 102.765351,43.5134453 C107.508421,48.9596316 113.793648,53.8558568 121.591849,58.2057421 C132.791057,64.45273 137.184408,73.6354994 138.641866,75.9749345 L138.663799,76.0101408 C141.0078,81.5181597 141.860784,89.1033157 140.644753,97.2457989 C140.298714,99.5628539 139.804857,101.792983 139.186238,103.905986 C143.681943,101.420957 147.600211,96.0809311 149.273693,89.3917173 C150.270469,85.40742 150.324242,81.530488 149.600483,78.1896521 L182,78.1896521 L182,113.175821 C182,114.468954 181.929872,115.745707 181.79321,117.002486 C169.351935,117.066858 157.724195,118.379145 151.79493,120.665259 C149.051161,121.723159 147.846038,122.866833 148.015658,124 C154.678106,122.791014 166.668816,121.235839 171,121.941439 C175.331184,122.647039 179.418826,126.639243 178.263518,128.927726 C172.499311,140.345716 160.664065,148.175821 147,148.175821 L141.170824,148.175821 C141.245453,148.04548 141.318721,147.91405 141.390585,147.781555 C143.511569,143.871149 143.930982,139.916 142.848858,137 C142.156026,138.459856 141.217237,139.855646 140.298377,141.418507 C129,160.635589 105.600122,160.722937 98.5553831,161.567227 C91.8965769,162.365265 82.4936786,162.062377 70.4211416,160.635589 C74.9089862,158.441793 78,153.831869 78,148.5 C78,146.444496 77.5406129,144.496287 76.718907,142.752442 C81.1191395,134.845738 96.6169275,124.186721 102.765351,121.941439 C100.749325,121.190885 98.711716,120.270578 96.6893967,119.179789 C92.3491696,116.83878 84.191688,111.405986 87,103.905986 C89.808312,96.4059859 84.191688,89.2645936 79.944299,86.5 C83.1391771,84.4204778 87.7477804,81.6247701 90,76.0101408 C90.7419643,74.1604746 92.9432506,63 84,55 C78.3716359,49.9652632 71.6519484,46.9616417 64.1989369,37 C55.1989369,27 51,12.1117011 64.1989369,8.0073154 C64.2303054,8.0045445 64.2691779,8.00094715 64.3147489,8.00094715 C64.641746,7.99202403 67.9084517,11.7580717 69.8388348,14 C76.4734124,21.7053344 84.0219791,21.1405947 89.3298174,26.986304 L89.3298174,26.986304 Z" id="Path" fill="#D8D8D8" fill-rule="nonzero"></path>
                <path d="M89.5882245,63.2798689 C88.5978828,60.4694916 86.8746687,57.5714755 84,55 C78.3716359,49.9652632 71.6519484,46.9616417 64.1989369,37 C55.4466613,27.2752493 51.2347883,12.9275964 63.1483178,8.37041777 C62.737663,16.9538724 61.7767103,25.5758859 68,33.4273501 C76.718907,44.4273501 91.9839562,58.3566558 90,63 C89.9371564,63.147082 89.796941,63.2383211 89.5882245,63.2798689 Z" id="Path" fill="#FFFFFF" fill-rule="nonzero"></path>
                <path d="M80.1998992,143.041146 C83.0805782,139.240981 89.3344027,128.939519 100.040325,121.462362 C110.746247,113.985204 124.069198,112.909195 128.122401,119.148923 C129.026178,120.540247 127.935153,127.617979 122.700997,129.857656 C116.716507,132.418398 102.123244,130.757991 96.4466565,134.443431 C90.4510287,138.336003 79.8541223,143.497292 80.1998992,143.041146 Z" id="Path" fill="#FFFFFF" transform="translate(104.299935, 129.076455) rotate(7.000000) translate(-104.299935, -129.076455) "></path>
                <path d="M65.6568542,4.69444663 L75.5563492,17.5278909 C76.7279221,19.0466871 76.7279221,20.946182 75.5563492,21.7705316 L74.1421356,22.7656095 C72.9705627,23.5899591 71.0710678,23.0269989 69.8994949,21.5082027 L65.6568542,16.0081551 C62.5326599,11.958032 62.5326599,6.89271213 65.6568542,4.69444663 Z" id="Rectangle" fill="#000000" transform="translate(69.874369, 13.919807) rotate(-11.000000) translate(-69.874369, -13.919807) "></path>
                <path d="M67.3897515,7.30723395 L75.6887977,18.4360738 C76.6709627,19.7531357 76.6709627,21.4003299 75.6887977,22.1151851 L74.5032197,22.9780916 C73.5210547,23.6929468 71.9286506,23.2047619 70.9464856,21.8877001 L67.3897515,17.1181972 C64.7706448,13.6060324 64.7706448,9.21351447 67.3897515,7.30723395 Z" id="Rectangle-Copy-13" fill="#FFFFFF" transform="translate(70.925421, 15.307234) rotate(-11.000000) translate(-70.925421, -15.307234) "></path>
                <path d="M18,115 C13.581722,115 10,118.581722 10,123 L10,127 C10,131.418278 13.581722,135 18,135 L69,135 C74.5228475,135 79,130.522847 79,125 C79,119.477153 74.5228475,115 69,115 L18,115 Z" id="Path" fill="#D8D8D8" fill-rule="nonzero"></path>
                <path d="M32,140 C27.581722,140 24,143.581722 24,148 L24,149 C24,153.418278 27.581722,157 32,157 L64.5,157 C69.1944204,157 73,153.19442 73,148.5 C73,143.80558 69.1944204,140 64.5,140 L32,140 Z" id="Path" fill="#D8D8D8" fill-rule="nonzero"></path>
                <path d="M17,89 C12.581722,89 9,92.581722 9,97 L9,102 C9,106.418278 12.581722,110 17,110 L71.5,110 C77.2989899,110 82,105.29899 82,99.5 C82,93.7010101 77.2989899,89 71.5,89 L17,89 Z" id="Path" fill="#D8D8D8" fill-rule="nonzero"></path>
                <path d="M20.6521739,63 C16.425995,63 13,66.581722 13,71 L13,76 C13,80.418278 16.425995,84 20.6521739,84 L68.9565217,84 C74.5033816,84 79,79.2989899 79,73.5 C79,67.7010101 74.5033816,63 68.9565217,63 L20.6521739,63 Z" id="Path" fill="#D8D8D8" fill-rule="nonzero"></path>
                <path d="M80,84 L73.5275362,84 C69.3701928,84 66,79.9705627 66,75 C66,70.0294373 69.3701928,66 73.5275362,66 L80,66 L80,84 Z" id="Path" fill="#000000" fill-rule="nonzero"></path>
                <path d="M82,110 L76.4521739,110 C72.8887367,110 70,105.970563 70,101 C70,96.0294373 72.8887367,92 76.4521739,92 L82,92 L82,110 Z" id="Path-Copy-37" fill="#000000" fill-rule="nonzero"></path>
                <path d="M79,136 L73.4521739,136 C69.8887367,136 67,131.970563 67,127 C67,122.029437 69.8887367,118 73.4521739,118 L79,118 L79,136 Z" id="Path-Copy-38" fill="#000000" fill-rule="nonzero"></path>
                <path d="M74,157 L69.3768116,157 C66.4072805,157 64,153.865993 64,150 C64,146.134007 66.4072805,143 69.3768116,143 L74,143 L74,157 Z" id="Path-Copy-42" fill="#000000" fill-rule="nonzero"></path>
                <path d="M77.4839698,106 L75.4806763,106 L75.4806763,106 C73.0060671,106 71,103.089851 71,99.5 C71,95.9101491 73.0060671,93 75.4806763,93 L77.2824655,93 C78.5757286,92.9999873 79.7234316,93.8287584 80.1302121,95.0563817 C80.7100707,96.8063377 81,98.4680994 81,100.041667 C81,101.460873 80.7641627,102.798525 80.292488,104.054623 C79.8530455,105.224879 78.734014,106 77.4839698,106 Z" id="Path-Copy-39" fill="#FFFFFF" fill-rule="nonzero"></path>
                <path d="M74.4839698,132 L72.4806763,132 L72.4806763,132 C70.0060671,132 68,129.089851 68,125.5 C68,121.910149 70.0060671,119 72.4806763,119 L74.2824655,119 C75.5757286,118.999987 76.7234316,119.828758 77.1302121,121.056382 C77.7100707,122.806338 78,124.468099 78,126.041667 C78,127.460873 77.7641627,128.798525 77.292488,130.054623 C76.8530455,131.224879 75.734014,132 74.4839698,132 Z" id="Path-Copy-41" fill="#FFFFFF" fill-rule="nonzero"></path>
                <path d="M69.7805668,154 L68.5845411,154 L68.5845411,154 C66.6048537,154 65,151.761424 65,149 C65,146.238576 66.6048537,144 68.5845411,144 L69.6102985,144 C70.9337991,143.999997 72.1009295,144.867295 72.4827486,146.134524 C72.8275829,147.279002 73,148.37305 73,149.416667 C73,150.265371 72.8859723,151.076159 72.6579168,151.849033 C72.2815552,153.124512 71.1104145,154 69.7805668,154 Z" id="Path-Copy-43" fill="#FFFFFF" fill-rule="nonzero"></path>
                <path d="M75.4304596,81 L73.4806763,81 L73.4806763,81 C71.0060671,81 69,77.8659932 69,74 C69,70.1340068 71.0060671,67 73.4806763,67 L75.2328258,67 C76.5443719,67.0000041 77.7038836,67.8519771 78.095771,69.103607 C78.6985903,71.0289219 79,72.8554973 79,74.5833333 C79,76.1530726 78.7512247,77.630166 78.2536742,79.0146136 C77.8256278,80.2056912 76.6961174,81 75.4304596,81 Z" id="Path-Copy-40" fill="#FFFFFF" fill-rule="nonzero"></path>
                <path d="M56.1335202,81.0283838 C57.4839007,81.0649808 58.7676073,79.9511894 59.4773965,77.8689799 C60.5820429,74.6284331 59.8783106,70.2694332 57.9055664,68.1328814 C57.3010522,67.4781711 56.6475241,67.1081241 56,67.0030029 C57.4043716,69.8989382 57.7758756,74.6919511 56.7629537,78.9519135 C56.5844563,79.7026052 56.3725255,80.3965466 56.1335202,81.0283838 Z" id="Path" fill="#000000"></path>
                <path d="M17.1001402,81.0253809 C18.1129255,81.061978 19.0757055,79.9481865 19.6080474,77.865977 C20.4365322,74.6254302 19.908733,70.2664304 18.4291748,68.1298785 C17.9757892,67.4751682 17.4856431,67.1051212 17,67 C18.0532787,69.8959353 18.3319067,74.6889482 17.5722152,78.9489106 C17.4383422,79.6996023 17.2793941,80.3935437 17.1001402,81.0253809 Z" id="Path-Copy-31" fill="#000000" transform="translate(18.500000, 74.013127) scale(-1, 1) translate(-18.500000, -74.013127) "></path>
                <path d="M12.1001402,107.025381 C13.1129255,107.061978 14.0757055,105.948186 14.6080474,103.865977 C15.4365322,100.62543 14.908733,96.2664304 13.4291748,94.1298785 C12.9757892,93.4751682 12.4856431,93.1051212 12,93 C13.0532787,95.8959353 13.3319067,100.688948 12.5722152,104.948911 C12.4383422,105.699602 12.2793941,106.393544 12.1001402,107.025381 Z" id="Path-Copy-32" fill="#000000" transform="translate(13.500000, 100.013127) scale(-1, 1) translate(-13.500000, -100.013127) "></path>
                <path d="M12.1001402,132.025381 C13.1129255,132.061978 14.0757055,130.948186 14.6080474,128.865977 C15.4365322,125.62543 14.908733,121.26643 13.4291748,119.129878 C12.9757892,118.475168 12.4856431,118.105121 12,118 C13.0532787,120.895935 13.3319067,125.688948 12.5722152,129.948911 C12.4383422,130.699602 12.2793941,131.393544 12.1001402,132.025381 Z" id="Path-Copy-33" fill="#000000" transform="translate(13.500000, 125.013127) scale(-1, 1) translate(-13.500000, -125.013127) "></path>
                <path d="M26.1001402,155.025507 C27.1129255,155.056817 28.0757055,154.103926 28.6080474,152.322516 C29.4365322,149.550103 28.908733,145.820812 27.4291748,143.992909 C26.9757892,143.43278 26.4856431,143.11619 26,143.026255 C27.0532787,145.503839 27.3319067,149.604446 26.5722152,153.249007 C26.4383422,153.891253 26.2793941,154.484946 26.1001402,155.025507 Z" id="Path-Copy-34" fill="#000000" transform="translate(27.500000, 149.026255) scale(-1, 1) translate(-27.500000, -149.026255) "></path>
                <path d="M57.8998598,132 C56.8870745,131.749532 55.9242945,130.36285 55.3919526,128.129753 C54.5634678,124.654379 55.091267,120.444979 56.5708252,118.727795 C57.0242108,118.201593 57.5143569,117.970473 58,118.003003 C56.9467213,120.600396 56.6680933,125.314434 57.4277848,129.789724 C57.5616578,130.578361 57.7206059,131.317355 57.8998598,132 Z" id="Path-Copy-29" fill="#000000" transform="translate(56.500000, 125.000000) scale(-1, 1) translate(-56.500000, -125.000000) "></path>
                <path d="M56.1335202,107.028576 C57.4839007,107.06712 58.7676073,105.95518 59.4773965,103.873993 C60.5820429,100.635039 59.8783106,96.2750248 57.9055664,94.1356287 C57.3010522,93.4800469 56.6475241,93.1090577 56,93.0030029 C57.4043716,95.9009629 57.7758756,100.694511 56.7629537,104.953014 C56.5844563,105.703448 56.3725255,106.397084 56.1335202,107.028576 Z" id="Path-Copy-28" fill="#000000"></path>
                <path d="M57.9332399,155 C57.2580497,154.785313 56.6161964,153.596728 56.2613017,151.682645 C55.7089785,148.703754 56.0608447,145.095697 57.0472168,143.623824 C57.3494739,143.172794 57.676238,142.974691 58,143.002574 C57.2978142,145.228911 57.1120622,149.269515 57.6185232,153.105478 C57.7077719,153.781452 57.8137372,154.414876 57.9332399,155 Z" id="Path-Copy-30" fill="#000000" transform="translate(57.000000, 149.000000) scale(-1, 1) translate(-57.000000, -149.000000) "></path>
            </g>
        </g>
    </g>
</svg>