<?xml version="1.0" encoding="UTF-8"?>
<svg width="400px" height="399px" viewBox="0 0 400 399" version="1.1" xmlns="http://www.w3.org/2000/svg" xmlns:xlink="http://www.w3.org/1999/xlink">
    <!-- Generator: Sketch 61 (89581) - https://sketch.com -->
    <title>wall</title>
    <desc>Created with Sketch.</desc>
    <g id="wall" stroke="none" stroke-width="1" fill="none" fill-rule="evenodd">
        <g id="Group-35" transform="translate(25.000000, 102.000000)">
            <rect id="Rectangle-Copy-8" stroke="#000000" stroke-width="3.564" fill="#C4C3C7" x="0" y="164.674458" width="344.52" height="7.128"></rect>
            <polygon id="Rectangle-Copy-22" stroke="#000000" stroke-width="3.168" fill="#FFFFFF" stroke-linejoin="round" points="33.2181818 148.834458 318.894545 148.834458 344.52 164.278458 0 164.278458"></polygon>
            <path d="M268.952063,47.1342249 L300.96,47.1342249 L300.96,148.834458 C319.283641,153.946314 330.635641,157.378314 335.016,159.130458 C339.396359,160.882601 340.584359,162.466601 338.58,163.882458 L50.292,154.378458 L50.292,59.8177588 L75.9639375,59.8177588 L75.9639375,49.1142249 L99.9075,49.1142249 L99.9075,38.4106909 L123.851063,38.4106909 L123.851062,26.8664579 L181.242188,24.8864579 L181.242188,36.4306909 L193.30575,36.4306909 L193.30575,24.8864579 L226.608937,24.8864579 L226.608937,47.1342249 L250.5525,47.1342249 L250.5525,57.8377588 L268.952062,57.8377588 L268.952063,47.1342249 Z" id="Path" fill="#000000" fill-rule="nonzero"></path>
            <g id="Group-31" transform="translate(234.629382, 35.878557) scale(-1, 1) rotate(7.000000) translate(-234.629382, -35.878557) translate(197.629382, 4.378557)">
                <g id="Group-33-Copy" transform="translate(42.929146, 30.994750) scale(-1, 1) rotate(45.000000) translate(-42.929146, -30.994750) translate(19.429146, 10.994750)" fill-rule="nonzero">
                    <g id="Group-32" transform="translate(23.414819, 19.957985) rotate(-17.000000) translate(-23.414819, -19.957985) translate(3.414819, 5.457985)">
                        <path d="M28.6615605,8.35792712 C33.0289118,3.81508033 35.7569049,1.68095815 36.8455399,1.95556058 C38.4784925,2.36746422 39.6335688,5.2076441 37.3629291,10.5528014 C35.8491694,14.1162395 33.0352314,17.4686076 28.9211153,20.6099056 C28.7018367,22.471298 27.2527333,23.9854776 25.3565084,24.252027 C20.8723823,24.8823257 17.4135725,25.3436045 14.9783392,25.6360409 C13.7617165,25.7821398 8.51631417,26.8220502 7.20505283,26.4627147 C5.74912999,26.0637365 2.84217911,25.4063646 2.00912615,24.0864293 C1.52906259,23.3257899 1.35666911,21.7619816 1.23954219,21.1187211 C3.40241891,19.8981578 4.87598959,19.1170737 5.66025424,18.7754688 C6.73866636,18.305741 4.05188372,16.0806313 5.8676407,16.0236723 C7.07814536,15.9856997 9.0281228,17.1361913 11.717573,19.475147 L24.5980402,15.9602336 L28.6615605,8.35792712 Z" id="Path" fill="#000000" transform="translate(19.935779, 14.234921) rotate(-5.000000) translate(-19.935779, -14.234921) "></path>
                        <path d="M24.4338282,18.2257639 C25.2241267,19.1054335 25.5422007,19.8428534 25.3880501,20.4380236 C25.1568243,21.330779 23.6043469,23.0932003 22.5472856,23.2254957 C19.3888488,23.6207692 23.9404251,21.0511261 20.4257541,20.754034 C18.9313619,20.5443997 20.2561112,19.7212026 24.4000019,18.2844426 L24.4338282,18.2257639 Z" id="Path" fill="#FFFFFF" transform="translate(22.628713, 20.746245) rotate(1.000000) translate(-22.628713, -20.746245) "></path>
                    </g>
                </g>
                <path d="M1.83308251,49.6512447 C1.8734454,47.8729809 1.61136056,46.2411218 2.05888372,44.5222965 C2.61512319,42.4114697 2.78736298,40.218942 2.56747223,38.0482148 C2.38429691,36.2342827 1.44670252,34.2101645 2.88418148,32.6458963 C4.70898099,30.6607844 6.26646894,28.08828 9.40421361,27.6826295 C10.6018261,27.5275283 10.7531408,26.7499976 11.9268276,26.4917002 L12.513721,26.162101 C13.2164671,25.4831731 14.3260495,26.1616503 15.0048629,25.4073114 C15.4042434,24.6490726 16.4054047,23.986483 15.754915,23.2165974 C15.1802479,22.5419565 14.3940362,21.7601966 14.7535867,20.6447293 C14.7539156,19.3269162 13.8919595,18.1363356 14.1877008,16.7747865 C13.3232234,15.497143 13.5144142,13.784906 14.6397974,12.7259712 C16.2611302,10.2566532 22.4619002,8.87363549 24.3256006,10.9689712 C26.0608513,12.8229065 27.3233595,16.3464115 26.8092146,18.8277961 C26.6053636,19.883685 25.3757216,20.4158792 25.6907856,21.6065958 C25.4750787,22.1822003 25.4748905,22.9363705 24.5687252,22.9405651 L24.4888662,23.0239406 C24.2171645,24.0322146 24.4484429,25.0443328 24.4481913,26.0525392 C26.4111398,27.3971974 28.4531305,28.0974089 30.6054018,29.1163486 C32.8046844,30.1637013 35.0877664,31.3340819 35.4463819,33.9656496 C35.9444587,37.6212662 35.7706606,42.6166225 35.9613443,46.3358246 L34.466015,61.3277703 C34.5148528,62.3038296 23.7136631,61.6506726 18.4499945,60.4884062 C8.72990702,58.3421216 1.80429311,50.8691931 1.83308251,49.6512447 Z" id="Path" fill="#000000" fill-rule="nonzero" transform="translate(18.877175, 35.873179) scale(-1, 1) rotate(4.000000) translate(-18.877175, -35.873179) "></path>
                <path d="M36.6084009,29.2591709 C36.088673,31.2095945 36.7353445,34.4731194 35.8898322,35.4418121 C35.04432,36.4105047 34.7422861,37.6174722 33.210971,38.8696139 C32.3842087,38.2281677 32.3082306,36.7606584 32.9830367,34.4670859 C33.6578429,32.1735134 34.8662976,30.4375417 36.6084009,29.2591709 Z" id="Path" fill="#FFFFFF" fill-rule="nonzero" transform="translate(34.568275, 34.064392) scale(-1, 1) rotate(24.000000) translate(-34.568275, -34.064392) "></path>
                <path d="M18.9949596,31.0128457 C18.9572939,30.3182911 19.1004237,29.3948052 19.7671074,29.3133211 C20.2344741,35.2063372 21.3547452,44.2703716 22.8098618,49.9848144 L21.3996705,49.9848144 C19.5678392,43.7477924 19.0878684,32.5364682 18.9949596,31.0128457 Z M21.4206337,32.4485172 C21.3013989,31.1342916 21.2724498,29.8130296 21.3340025,28.4946003 C22.543073,27.8582487 24.3886946,26.8882004 25.2474736,27.5517134 C25.3717706,30.8265964 27.4088853,47.3448208 27.4740172,49.5154742 L24.1775505,51.1271592 C23.2188395,46.3939852 22.0598444,37.2548965 21.4206337,32.4485172 Z" id="Shape" fill="#D8D8D8" fill-rule="nonzero" transform="translate(23.231715, 39.228097) scale(-1, 1) rotate(4.000000) translate(-23.231715, -39.228097) "></path>
                <path d="M13.2360506,48.9650261 C15.9407784,44.5414304 17.6232543,41.0512775 18.2834782,38.4945675 C18.9437021,35.9378574 18.8775335,32.7819565 18.0849723,29.0268648 C19.9154894,35.1039098 20.8084624,39.0876984 20.7638915,40.9782307 C20.7193205,42.868763 20.2849672,45.5426769 19.4608314,48.9999724 L13.2360506,48.9650261 Z" id="Path" fill="#D8D8D8" fill-rule="nonzero" transform="translate(17.000766, 39.013419) rotate(14.000000) translate(-17.000766, -39.013419) "></path>
                <path d="M29.319062,49.5725353 C28.2717142,45.0976118 27.5031271,40.5519606 27.0190257,35.9652636 C26.8593883,34.3865892 26.7326919,32.8025177 26.6389366,31.213049 C26.593326,30.6503933 26.6769455,29.9379659 27.0190257,29.6141353 C27.1064462,31.0592295 27.2204729,32.5043237 27.3649067,33.9413221 C27.9044591,39.2528646 28.888117,44.4573977 30.1914932,49.5725353 L29.319062,49.5725353 Z M24.2319863,49.0367724 C24.2202627,48.8016369 24.6710056,38.5886026 25.5047297,33.7308774 C25.5047297,33.6744391 26.7877181,48.2397269 26.8381401,49.14699 L24.2319863,49.0367724 Z" id="Shape" fill="#FFFFFF" fill-rule="nonzero" transform="translate(27.211628, 39.593335) scale(-1, 1) rotate(4.000000) translate(-27.211628, -39.593335) "></path>
                <polygon id="Path" fill="#FFFFFF" fill-rule="nonzero" transform="translate(23.732688, 38.953245) scale(-1, 1) rotate(4.000000) translate(-23.732688, -38.953245) " points="24.9862168 27.8826817 25.2534059 50.0238089 22.2119705 28.5280872"></polygon>
                <path d="M20.358566,18.3981344 C20.426075,18.0642975 20.4809257,17.7940485 20.4893727,17.7225133 C20.5605808,16.956118 20.5452612,16.1847965 20.4436717,15.4215357 C20.2754692,14.2293513 19.7996988,12.9895458 18.611659,12.4533084 C18.4570626,12.3839589 18.2775351,12.3839985 18.1228997,12.4534162 C16.96465,10.8640431 13.4514653,11.5453908 12.0396013,12.8293276 C11.5623126,13.2045201 11.2884522,13.7617274 11.2933953,14.3475878 C11.2121871,14.4202881 11.156321,14.5145472 11.1332085,14.6178601 C11.1178586,14.6844236 11.1107696,14.7524415 11.1120843,14.8205424 C11.1120731,14.8602831 11.0867802,14.9040035 11.1120664,14.8841276 C11.0914107,14.9250959 11.065961,14.963758 11.0361921,14.9993924 C10.8537298,15.2099068 10.8719313,15.5169333 11.0781276,15.7067679 C11.2287836,15.835757 11.4480412,15.8641251 11.6300684,15.7781794 C12.1652448,15.5316688 13.2058008,16.1156277 13.6945098,16.2943531 C14.6999191,16.6508642 16.2182696,16.1911202 17.2917902,16.228968 C17.4947845,16.2253371 17.696565,16.2590383 17.8858576,16.3281887 C18.3956171,16.5665205 18.4291325,17.2500535 18.5300998,17.8024272 C18.6992687,18.7049158 19.2377632,19.5083609 20.0294561,20.0394988 C20.0294561,20.0394988 20.2151168,19.0817064 20.358566,18.3981344 Z" id="Path" fill="#FFFFFF" fill-rule="nonzero" transform="translate(15.721941, 15.784056) scale(-1, 1) rotate(4.000000) translate(-15.721941, -15.784056) "></path>
                <path d="M19.2926018,19.1532391 C19.2350082,19.7526969 18.6985184,20.2224391 18.0452018,20.2224391 C17.3918853,20.2224391 16.8553954,19.7526969 16.7978018,19.1532391 L19.2926018,19.1532391 Z" id="Path" fill="#FFFFFF" transform="translate(18.045202, 19.687839) rotate(-293.000000) translate(-18.045202, -19.687839) "></path>
            </g>
            <polygon id="Path" fill="#C4C3C6" fill-rule="nonzero" points="59.004 153.190458 295.416 153.190458 295.416 54.2622249 274.496062 54.2622249 274.496063 64.9657588 245.0085 64.9657588 245.0085 54.2622249 221.064938 54.2622249 221.064938 32.0144579 198.84975 32.0144579 198.84975 43.5586909 175.698188 43.5586909 175.698188 32.0144579 133.355063 32.0144579 133.355062 43.5586909 109.4115 43.5586909 109.4115 54.2622249 85.4679375 54.2622249 85.4679375 64.9657588 59.004 64.9657588"></polygon>
            <g id="Group-30" transform="translate(226.116000, 54.190458)" fill-rule="nonzero">
                <polygon id="Path-Copy-29" fill="#FFFFFF" points="46.728 98.0007961 68.508 49.5 67.9203284 98.208"></polygon>
                <polygon id="Path-Copy-31" fill="#000000" transform="translate(24.750000, 62.568000) rotate(-180.000000) translate(-24.750000, -62.568000) " points="49.5 22.910503 0 102.564 35.9190398 22.572"></polygon>
                <polygon id="Path-Copy-32" fill="#000000" points="35.244 15.2909848 0 72.468 25.5743564 15.048"></polygon>
                <path d="M23.8966726,99 L23.8966726,98.9958662 L6.732,98.5653949 L60.7826466,0.00413379805 L60.7843077,2.84217094e-14 L60.7843077,0.00413379805 L66.132,0.438738936 L23.8983337,98.9958662 L23.8966726,99 Z M27.0116187,10.692 L43.164,10.8291657 L22.9502687,43.9513412 L34.4852906,18.1015048 L5.544,58.608 L27.0116187,10.692 Z" id="Path-Copy-35" fill="#FFFFFF"></path>
            </g>
            <polygon id="Rectangle-Copy-23" fill="#FFFFFF" transform="translate(56.413091, 94.582458) scale(-1, -1) translate(-56.413091, -94.582458) " points="55.2250909 65.6744579 57.4055055 65.6744579 57.6010909 119.134458 55.7932845 123.490458"></polygon>
            <polygon id="Rectangle-Copy-24" fill="#FFFFFF" transform="translate(83.341091, 59.932458) scale(-1, -1) translate(-83.341091, -59.932458) " points="81.7570909 54.5864579 84.6643104 54.5864579 84.9250909 60.7549194 82.5146824 65.2784579"></polygon>
            <polygon id="Rectangle-Copy-25" fill="#FFFFFF" transform="translate(107.497091, 49.240458) scale(-1, -1) translate(-107.497091, -49.240458) " points="105.913091 43.8944579 108.82031 43.8944579 109.081091 50.0629194 106.670682 54.5864579"></polygon>
            <polygon id="Rectangle-Copy-26" fill="#FFFFFF" transform="translate(131.257091, 38.152458) scale(-1, -1) translate(-131.257091, -38.152458) " points="129.673091 32.4104579 132.58031 32.4104579 132.841091 39.3709194 130.430682 43.8944579"></polygon>
            <path d="M239.347366,53.9686967 L237.443057,53.9257896 C240.558507,53.9944902 242.88108,54.0667867 245.99478,54.1427302 L245.99478,63.9358888 L245.916,65.6744579 C246.029522,66.6610445 186.306319,65.7523428 185.997868,66.0704579 L176.20429,66.0704579 C176.164719,65.7417794 176.123229,65.4135232 176.081862,65.0851554 C178.597908,65.0331978 181.113231,64.9801351 183.628375,64.9309561 C186.915598,64.8717592 190.201859,64.8267173 193.487771,64.7630686 C194.837191,64.7382669 195.369793,64.2600015 195.37519,63.0879677 C195.38475,61.0286975 195.378816,58.9698134 195.355606,56.9113336 C195.342485,55.7394738 194.806239,55.2826183 193.443042,55.299183 C187.180256,55.386562 178.925103,55.6332927 172.656,55.7744579 C166.386897,55.915623 165.331156,54.3928409 165.316425,54.2981614 C167.427168,54.2514514 178.645804,54.2066345 180.755799,54.1591712 C182.321888,54.1254951 182.837261,53.6614 182.834139,52.2887397 C182.829573,50.3008514 182.817976,48.3130792 182.790283,46.326028 C182.773273,45.0927008 182.226874,44.6173929 180.814455,44.6428364 C178.372757,44.6896958 176.625327,43.8966757 176.616,43.4461701 C176.701964,43.4482582 176.791184,43.4483222 176.884667,43.4463388 C183.433726,43.311887 186.810855,43.1915487 193.352103,43.0856971 C194.788205,43.0653804 197.81063,42.7938959 199.335305,42.7904614 C202.571714,42.7873585 205.807167,42.7749634 209.041408,42.7739387 C212.35888,42.7796538 215.675551,42.8012513 218.990814,42.8049311 C219.57867,38.5336078 219.577732,35.7287834 218.988,34.3904579 C218.521107,33.3309005 216.937107,32.5389005 214.236,32.0144579 L220.968,32.0144579 L220.968,52.6064579 L219.25696,44.5358698 C216.753763,44.5299922 214.25001,44.5268503 211.745659,44.5388408 C210.374576,44.5467995 209.81501,45.030119 209.801933,46.2133045 C209.781286,48.2776382 209.783589,50.342619 209.790438,52.4072787 C209.793245,53.2993882 219.645554,53.8198609 239.347366,53.9686967 Z M199.855049,55.3784579 C198.531558,55.3802869 198.0134,55.8811502 198.006729,57.144438 C197.995759,59.2311665 197.998497,60.5267286 198.012791,62.6142219 C198.021772,63.9446485 198.524011,64.4109684 199.944477,64.4136878 C202.96407,64.4223154 205.982981,64.4218607 209.000732,64.431375 C212.096699,64.446159 215.191437,64.4740798 218.285778,64.4864579 C219.602933,64.493116 220.123945,63.9988814 220.139697,62.7414658 C220.164813,60.6238786 220.18093,59.2984378 220.174634,57.1808625 L218.370452,55.4787516 C212.201843,55.4169569 206.029948,55.3832664 199.855049,55.3784579 Z M224.932517,54.9824448 C223.456799,54.9805267 222.995051,55.4036037 222.981987,56.7300633 C222.963743,58.5806008 222.951879,60.4310308 222.94797,62.2817587 C222.944885,63.5693511 223.426188,63.988767 224.921722,63.9930492 C227.903567,64.0048088 230.885077,64.0097461 233.866137,64.0228896 C236.963571,64.0417584 239.26869,64.0718631 242.365055,64.0904579 L244.256596,62.5177685 C244.295678,60.6092459 244.317864,58.6998397 244.332,56.7909844 C244.340367,55.5770542 243.8448,55.1402997 242.426054,55.1208234 C236.334034,55.0500999 231.030853,55.0030545 224.932517,54.9824448 Z M206.358616,45.0824579 L206.258574,45.0826463 C199.679514,45.1563275 193.096637,45.2570897 186.510007,45.3879342 C185.088102,45.4191149 184.536364,45.9008761 184.535871,47.086856 C184.535227,48.9747616 184.555424,50.8626132 184.574092,52.7506801 L186.912,53.7944579 C190.110916,53.7370143 193.218478,53.8479419 196.416,53.7944579 C199.696755,53.7447053 203.037208,53.8444584 206.316,53.7944579 C207.824566,53.7732566 208.276689,53.8051117 208.284805,52.5447608 C208.297772,50.6238428 208.299381,48.7029622 208.290116,46.782737 C208.284597,45.5821069 207.795128,45.1122515 206.455737,45.0837472 L206.358616,45.0824579 Z" id="Shape-Copy-21" fill="#FFFFFF"></path>
            <path d="M240.931366,52.7806967 L239.027057,52.7377896 C242.142507,52.8064902 245.25708,52.8787867 248.37078,52.9547302 L248.370684,62.7478888 L248.553,62.747856 C248.666521,63.7344426 249.204752,64.0279498 250.640302,64.0403118 C253.604167,64.0690425 256.567227,64.0967507 259.529848,64.1309218 C260.139836,64.138938 260.74979,64.1474801 261.36,64.1563194 L261.36,64.8824579 C212.380212,64.6703811 187.787502,64.6703811 187.581868,64.8824579 L177.78829,64.8824579 C177.748719,64.5537794 177.707229,64.2255232 177.665862,63.8971554 C180.181908,63.8451978 182.697231,63.7921351 185.212375,63.7429561 C188.499598,63.6837592 191.785859,63.6387173 195.071771,63.5750686 C196.421191,63.5502669 196.953793,63.0720015 196.95919,61.8999677 C196.96875,59.8406975 196.962816,57.7818134 196.939606,55.7233336 C196.926485,54.5514738 196.390239,54.0946183 195.027042,54.111183 C188.764256,54.198562 171.797103,54.4452927 165.528,54.5864579 L164.735989,53.3984579 C164.72102,53.3037828 180.229804,53.0186345 182.339799,52.9711712 C183.905888,52.9374951 184.421261,52.4734 184.418139,51.1007397 C184.413573,49.1128514 184.401976,47.1250792 184.374283,45.138028 C184.357273,43.9047008 183.810874,43.4293929 182.398455,43.4548364 C179.956757,43.5016958 179.098548,43.5539566 176.655556,43.6090152 C176.638176,43.1588929 176.625327,42.7086757 176.616,42.2581701 C176.701964,42.2602582 176.791184,42.2603222 176.884667,42.2583388 C183.433726,42.123887 188.394855,42.0035487 194.936103,41.8976971 C196.372205,41.8773804 196.904876,41.4076842 196.910395,40.1717049 C196.918961,38.1850014 196.907888,36.1982728 196.894284,34.2121741 C196.891396,33.7916024 196.843462,33.460014 196.732721,33.2024579 L198.843782,33.2024579 C198.843471,33.2202825 198.843264,33.2382613 198.843161,33.2563951 C198.830725,35.4199607 198.83622,37.5838463 198.84985,39.7476381 C198.858656,41.1242262 199.39463,41.6058959 200.919305,41.6024614 C204.155714,41.5993585 207.391167,41.5869634 210.625408,41.5859387 C213.94288,41.5916538 217.259551,41.6132513 220.574814,41.6169311 L222.206613,40.1597255 L222.206613,43.3512764 L220.84096,43.3478698 C218.337763,43.3419922 215.83401,43.3388503 213.329659,43.3508408 C211.958576,43.3587995 211.39901,43.842119 211.385933,45.0253045 C211.365286,47.0896382 211.367589,49.154619 211.374438,51.2192787 C211.378648,52.5574429 211.893965,53.0213156 213.409394,53.0185004 C219.940667,53.0183359 226.468292,53.0317054 232.992555,53.059876 C233.650599,53.0639883 234.122942,52.9818237 234.449021,52.7810684 L240.931366,52.7806967 Z M201.439049,54.1904579 C200.115558,54.1922869 199.5974,54.6931502 199.590729,55.956438 C199.579759,58.0431665 199.582497,59.3387286 199.596791,61.4262219 C199.605772,62.7566485 200.108011,63.2229684 201.528477,63.2256878 C204.54807,63.2343154 207.566981,63.2338607 210.584732,63.243375 C213.680699,63.258159 216.775437,63.2860798 219.869778,63.2984579 C221.186933,63.305116 221.707945,62.8108814 221.723697,61.5534658 C221.748813,59.4358786 221.76493,58.1104378 221.758634,55.9928625 L219.954452,54.2907516 C213.785843,54.2289569 207.613948,54.1952664 201.439049,54.1904579 Z M226.516517,53.7944579 C225.040799,53.7925267 224.579051,54.2156037 224.565987,55.5420633 C224.547743,57.3926008 224.535879,59.2430308 224.532,61.0937587 C224.528885,62.3813511 225.010188,62.800767 226.505722,62.8050492 C229.487567,62.8168088 232.469077,62.8217461 235.450137,62.8348896 C238.547571,62.8537584 241.64469,62.8838631 244.741055,62.9024579 L246.632596,61.3297685 C246.671678,59.4212459 246.693864,57.5118397 246.708,55.6029844 C246.716367,54.3890542 246.2208,53.9522997 244.802054,53.9328234 C238.710034,53.8620999 232.614853,53.8150545 226.516517,53.7944579 Z M207.942616,43.8944579 L207.842574,43.8946463 C201.263514,43.9683275 194.680637,44.0690897 188.094007,44.1999342 C186.672102,44.2311149 186.120364,44.7128761 186.12,45.898856 C186.119227,47.7867616 186.139424,49.6746132 186.158092,51.5626801 L188.393211,53.3984579 C191.592127,53.3410143 194.790438,53.2792451 197.98796,53.2257611 C201.268714,53.1760084 204.548624,53.1383885 207.827416,53.088388 C209.335982,53.0671867 209.860689,52.6171117 209.868805,51.3567608 C209.881772,49.4358428 209.883381,47.5149622 209.874116,45.594737 C209.868597,44.3941069 209.379128,43.9242515 208.039737,43.8957472 L207.942616,43.8944579 Z" id="Shape" fill="#000000"></path>
            <g id="Group-34" transform="translate(139.788000, 65.674458)">
                <circle id="Oval" stroke="#000000" stroke-width="5.544" fill="#C4C3C7" cx="33.264" cy="29.7" r="29.7"></circle>
                <path d="M49.5,69.696 C65.9028571,69.696 66.924,50.4588571 66.924,34.056 C66.924,17.6531429 53.6268571,5.94 37.224,5.94 C20.8211429,5.94 4.356,20.8211429 4.356,37.224 C4.356,53.6268571 33.0971429,69.696 49.5,69.696 Z" id="Oval-Copy-3" fill="#000000" transform="translate(35.640000, 37.818000) rotate(-8.000000) translate(-35.640000, -37.818000) "></path>
                <g id="Group-26" transform="translate(4.158000, 2.376000)">
                    <path d="M29.3585166,56.2240948 C13.0661264,55.859551 0.0114219055,42.9796072 0.200017955,27.4559351 C0.388614004,11.932263 13.7490932,-0.356638575 30.0414834,0.00790521928 C46.3338736,0.372449014 59.3885781,13.2523928 59.199982,28.7760649 C59.011386,44.299737 45.6509068,56.5886386 29.3585166,56.2240948 Z" id="Oval-Copy-18" fill="#C4C3C6"></path>
                    <path d="M0.201238199,29.2903908 C0.435081971,44.2993618 13.5657687,56.1808139 29.529448,55.8283569 C45.4931272,55.4758999 58.2446783,43.023002 58.0108345,28.014031 C57.9946626,26.9760588 57.9168095,25.9530445 57.7806038,24.948 C57.7705487,39.7668748 45.1092248,51.9893492 29.2960578,52.3384831 C14.4363753,52.6665654 2.03139318,42.3943434 0.198,28.866548 C0.198,29.0075963 0.198,29.1488799 0.201238199,29.2903908 Z" id="Path" fill="#FFFFFF"></path>
                    <path d="M4.55675025,8.48830058 C4.75535729,20.0336629 15.9074474,29.1732415 29.4656407,28.9021207 C43.023834,28.6309999 53.8539185,19.0518477 53.6553115,7.50648536 C53.6415765,6.70804522 53.5754546,5.92111114 53.4597731,5.148 C53.4512331,16.5471344 42.69778,25.9490379 29.2674189,26.2176024 C16.6468667,26.4699734 6.11112845,18.5682642 4.554,8.16226768 C4.554,8.27076642 4.554,8.37944611 4.55675025,8.48830058 Z" id="Path-Copy-18" fill="#FFFFFF" transform="translate(29.106000, 17.028000) scale(-1, -1) translate(-29.106000, -17.028000) "></path>
                    <path d="M29.3591053,2.85102913 C41.4725015,2.85102913 51.6424194,11.0051288 54.3867117,21.9835024 C50.8770854,12.1926878 41.3064846,5.16505932 30.0608929,5.16505932 C15.8570564,5.16505932 4.35978409,16.3763472 4.3810165,30.2061717 C4.38414148,32.2416453 4.6366056,34.2203963 5.11023045,36.1150291 C4.18737689,33.5393516 3.68365106,30.7725403 3.67919953,27.8921415 C3.65799648,14.062317 15.1552688,2.85102913 29.3591053,2.85102913 Z" id="Combined-Shape" fill="#000000"></path>
                    <path d="M40.4893182,29.39631 L22.9972275,39.4125071 C22.0547468,39.9748155 20.875319,39.2296272 20.3556733,37.7480824 C20.2340557,37.4028917 20.1575234,37.0356592 20.1308821,36.6665321 L19.602,15.4779491 C19.6414698,13.8936702 20.7855138,12.6377439 22.1377656,12.6727129 C22.451315,12.6809176 22.7572132,12.7602415 23.0383223,12.9063791 L41.4321264,24.0787651 C42.2834797,24.7059818 42.4146793,26.3941581 41.7604423,27.8494123 C41.447003,28.5626043 40.9894244,29.1207335 40.4893182,29.39631 Z" id="Triangle-2" fill="#FFFFFF"></path>
                    <path d="M39.4323079,31.2032138 L22.8516328,40.6122315 C21.9563441,41.1404529 20.8381318,40.4379534 20.3476458,39.0431549 C20.2328947,38.7181755 20.1608619,38.3724973 20.1360366,38.0250848 L19.602,18.0829595 C19.6324442,16.5918787 20.696446,15.4107164 21.9612365,15.444716 C22.2545925,15.4526915 22.5412304,15.5276 22.8051103,15.6653757 L40.2495878,26.1984834 C41.0691753,26.7898111 41.2216432,28.3791635 40.6213372,29.7484013 C40.3335225,30.4194384 39.9054431,30.9443427 39.4323079,31.2032138 Z" id="Triangle-2-Copy" fill="#000000"></path>
                    <path d="M24.8895666,37.62 L38.4704334,37.62 C39.782662,37.62 40.8464334,36.5562286 40.8464334,35.244 C40.8464334,34.8296089 40.7380551,34.4224234 40.5320563,34.0628619 L33.7416229,22.210469 C33.0892983,21.0718661 31.6374648,20.6776597 30.4988619,21.3299842 C30.1323121,21.5399867 29.8283796,21.8439192 29.6183771,22.210469 L22.8279437,34.0628619 C22.1756191,35.2014648 22.5698256,36.6532983 23.7084285,37.3056229 C24.0679899,37.5116216 24.4751755,37.62 24.8895666,37.62 Z" id="Line-2" fill="#FFFFFF" transform="translate(31.680000, 28.116000) rotate(-270.000000) translate(-31.680000, -28.116000) "></path>
                </g>
            </g>
            <g id="Group-25" transform="translate(335.026582, 120.074296) scale(-1, 1) rotate(1.000000) translate(-335.026582, -120.074296) translate(316.026582, 75.574296)">
                <path d="M12.791403,1.2972633 C13.6598722,0.423957232 16.1340676,-0.245823 18.2049417,0.196716065 C20.258172,0.635484736 22.3580341,1.71056585 23.4250639,3.40124344 C24.4214939,4.45777606 24.5232315,5.67009767 23.7242921,6.85975906 C23.9487133,8.02392771 24.0613208,8.98802655 24.0224212,10.1210374 C24.3126725,11.0812641 23.5885402,11.7185827 23.055914,12.2850881 C22.4514729,12.9195742 22.4754112,13.4407592 22.7925931,14.0979055 C23.3790805,14.7522192 23.9197301,14.2194345 24.5181866,14.8142652 L25.0358514,15.1116806 C26.0651965,15.360943 27.5542765,15.2216595 28.6105521,15.3831136 C31.4053438,15.8193228 31.8204321,18.9729046 33.3943726,20.7149088 C34.6361698,22.0830194 33.2907194,24.2475597 33.0722828,25.7827894 C32.8064666,27.6191936 32.8885416,29.4857462 33.3146577,31.2948872 C33.6707393,32.7706338 34.2602189,34.2237202 34.2452575,35.7362897 C34.2452575,37.3366675 33.5540402,38.8917249 33.646801,40.4864377 C33.8203534,43.5002466 37.7970966,47.0833934 35.7623446,50.074542 C35.4930392,50.4739283 35.1100271,50.8166641 34.9634052,51.2698685 C34.8607003,51.7162272 34.8781927,52.1798654 35.014274,52.6181514 C35.6127305,55.2495691 36.327886,57.8866518 36.5104152,60.5747201 C36.6959367,63.3336015 35.7664361,66.1310987 36.29607,68.8616548 C36.3200083,68.9947836 36.3499311,69.1307449 36.3768617,69.2638737 C36.867596,71.5582206 37.7144119,73.8100797 37.8789874,76.1695748 C38.0256092,78.1693389 32.2454942,83.6842059 24.3028929,86.6853454 C16.3602916,89.6864848 7.43233608,87.7388497 7.12478819,87.7901556 C1.67580331,88.6990344 4.82848338,67.6614964 1.67415558,50.7379393 C-0.665674429,38.1843148 0.0349886076,25.7583463 2.79341752,20.7511667 C3.32898612,18.7633546 5.29059293,17.8824354 7.1823073,17.0931236 C9.13499142,16.2901268 10.0585155,15.3594883 11.8543454,14.2770524 C11.8812759,13.4159642 13.0672289,14.3586078 12.8547768,13.5088497 L12.782962,13.4380365 C11.9750458,13.4040462 11.9959918,12.7667276 11.8194471,12.2710354 C12.1366291,11.2796509 10.5596337,8.96941638 10.4100196,8.06584023 C10.0211794,5.93929873 11.1860723,2.82971442 12.791403,1.2972633 Z" id="Path" fill="#000000"></path>
                <path d="M18.229938,34.9042356 C18.1877291,38.1373824 19.0017577,40.9843959 20.2228005,43.9524362 C22.8970349,37.2757863 24.9924047,30.4089512 26.041597,23.2914176 C26.2425917,21.9466744 26.4053974,20.6019312 26.5300141,19.257188 C26.5903125,18.6462904 26.4787605,17.8163917 25.8456272,17.729944 C25.0917868,24.054927 23.6364443,30.2853731 21.5041417,36.3162159 C21.4648883,36.4615676 21.3917049,36.5965358 21.2900823,36.7109941 C20.9343217,37.0567852 20.6026804,36.7109941 20.7172474,36.3248607 C22.2639016,31.1235862 23.2226463,25.8156927 24.1753612,20.4616937 C24.3280238,19.299649 24.3935142,18.1286548 24.371331,16.9576772 C23.2377209,16.3611875 21.5041417,15.4506043 20.6659938,16.0125148 C20.4489195,18.8941074 19.556503,21.7756999 19.3484735,24.703398 C19.3359814,25.3026282 19.2499706,25.8983881 19.0922053,26.478459 C19.0110912,26.7265269 18.9103016,26.9683213 18.7907132,27.2017387 C18.6339374,29.7778824 18.2661171,32.3309734 18.229938,34.9042356 Z" id="Path" fill="#C4C3C6" fill-rule="nonzero"></path>
                <path d="M10.7965956,36.3211319 C12.6531839,35.3400399 13.8212752,33.465715 15.2747691,31.9457547 C15.8161515,31.3805286 16.7164939,31.4420299 15.98092,32.262047 C15.4689606,32.8302018 14.9187514,33.3719988 14.377369,33.9108672 C13.3269696,34.9622463 12.2530318,35.9843391 11.1938054,37.0269324 C11.0703106,37.1310408 10.9700838,37.2597331 10.8995759,37.404726 C10.8332614,37.6068346 10.8181014,37.822113 10.8554415,38.0314534 C11.0167334,39.6992075 11.0324846,41.3777391 10.9025182,43.0482011 C10.8319031,43.9267909 10.7259805,44.866882 11.0555175,45.6839705 C10.970191,45.4672517 12.2795124,43.8975046 12.4501656,43.6339277 C13.2622391,42.4214737 14.0507742,41.1943766 14.8040019,39.9379932 C15.6190177,38.5615359 16.9224545,37.2026503 17.1401844,35.5655447 C17.2519916,34.701598 17.0607424,33.8083651 17.0901654,32.9532043 C17.1159685,32.0476217 17.208408,31.1451386 17.3667411,30.253005 C17.4903094,29.7188583 17.5544452,29.1727982 17.5579903,28.6246852 C17.5631381,28.5289233 17.5362339,28.4341659 17.4814907,28.355251 C17.325549,28.1619613 17.016608,28.299607 16.8135896,28.44311 C15.1374905,29.6365592 13.3202053,30.6201626 11.4027084,31.3717427 C11.0319792,31.5181743 10.6200578,31.6938923 10.4847122,32.0629 C10.4312406,32.2433281 10.4171951,32.4330596 10.4435201,32.6193402 C10.5160967,33.8669377 10.6337885,35.1008683 10.7965956,36.3211319 Z" id="Path" fill="#C4C3C6" fill-rule="nonzero"></path>
                <path d="M30.3807957,22.1171198 C30.5675336,26.7809682 29.6609512,31.7111603 28.5736547,36.2390034 C27.4472035,40.9935221 25.7003005,45.4788635 23.7064216,49.9613715 C21.0679958,55.8946027 17.568166,61.5048214 13.6406463,66.7693599 C13.128623,67.4550533 12.1618026,68.5430957 11.1437798,68.047243 C11.2853392,68.1152457 15.0231091,62.5191942 15.3604421,62.000674 C16.7639883,59.9265932 18.119344,57.8213445 19.3632594,55.6565935 C21.8313031,51.3998329 23.8615083,46.9310335 25.4262175,42.3110734 C25.7274076,41.3675366 26.0285978,40.4154995 26.3026808,39.460629 C26.5576885,38.5482601 26.7906089,37.6311688 27.001442,36.7093551 C28.0947623,31.8925007 28.5345,26.9708089 28.7152141,22.0519506 C28.7543688,21.0007429 28.5104048,19.6180224 27.4050368,19.4593495 C28.380893,28.3676967 24.1702545,36.9615316 20.3782703,45.175685 C17.5982851,51.247755 14.9568473,57.4019948 11.6136365,63.2247217 C11.2010059,63.941583 10.7612683,64.6754449 10.0745547,65.1769645 C11.1588393,63.0320476 12.240112,60.8899641 13.3454799,58.7535475 C14.475947,56.5717958 15.5702713,54.3749324 16.6284527,52.1629573 C17.7890388,49.7337516 18.8823591,47.2781003 19.9084136,44.7960036 C19.7513436,44.8160564 19.5914535,44.7934448 19.4475927,44.7308344 C19.2759143,44.8668397 18.6946173,44.8725066 18.6163078,44.6996665 C17.7255332,42.7821283 17.0902214,40.7683265 16.7248336,38.7040995 C15.7570092,40.3097176 14.753042,41.8955016 13.7129319,43.4614516 C13.1748055,44.2699275 12.6256354,45.0699031 12.0654217,45.8613784 C11.7009816,46.3770652 10.7492207,47.2781003 10.6257327,47.8787904 C9.46313869,53.0696593 8.4029493,58.2973631 8.02344969,63.6299042 C7.78852137,66.9421999 7.99333068,70.2403285 8.05959251,73.5469573 C8.0877036,74.8541194 8.17504874,76.156559 8.32162796,77.4542763 C9.69204321,75.9638848 11.0323394,74.4338252 12.30035,72.8782646 C16.9778333,67.191543 21.241818,61.0198211 25.3622989,49.6265125 C24.9484749,51.8177412 21.8738647,61.3063682 18.9331049,66.2489575 C15.8808871,71.3788764 12.2261589,75.4863088 10.6799286,77.278602 C10.2006939,77.7826638 9.79549425,78.3449209 9.47516792,78.9503338 C8.65894257,80.7099024 8.85172265,81.800779 9.54446003,83.6113495 C15.1887637,79.3866849 19.4837355,73.6942964 22.5106967,67.5457235 C25.5376578,61.3971505 27.3749178,54.7668921 28.5887142,48.0941321 C30.1478408,39.5176635 30.7484735,30.8112281 30.3807957,22.1171198 Z" id="Path" fill="#C4C3C6" fill-rule="nonzero"></path>
                <path d="M27.701756,23.1025622 C27.5306145,27.6255671 27.1141702,32.1537828 26.0787641,36.5803873 C25.8886069,37.4280165 25.6680245,38.2713033 25.4170169,39.1102478 C25.163157,39.9882735 24.8836259,40.8636938 24.5869806,41.7312979 C23.1051555,45.9794589 21.1824922,50.0886241 18.8451831,54.0028147 C17.667159,55.9933537 16.3835977,57.929179 15.0543987,59.8363446 C14.3127855,60.899355 13.4342591,61.6262665 13.1005332,62.9029211 C12.7154648,64.3827983 12.2790539,65.6750854 11.3634469,66.969978 C12.3446582,65.5812904 15.1656407,61.6471098 15.3396345,61.3995952 C16.6688336,59.4924295 17.9523949,57.5566042 19.1304189,55.5660652 C21.4677281,51.6518747 23.3903914,47.5427094 24.8722165,43.2945484 C25.1574523,42.4269444 25.4426882,41.5515241 25.7022528,40.6734983 C25.9437525,39.8345539 26.1643348,38.991267 26.3639999,38.1436379 C27.399406,33.714428 27.8158504,29.1888176 27.9869919,24.6658127 C28.0261844,24.1027356 27.9287876,23.5386993 27.701756,23.013978 L27.701756,23.1025622 Z" id="Path" fill="#FFFFFF" fill-rule="nonzero"></path>
                <path d="M21.5793038,19.8634412 C20.6038971,24.9853214 20.1317844,30.1811512 20.1689706,35.3848463 C20.21116,38.8943548 20.4040261,36.4220695 20.7415418,35.7656351 C20.8211511,35.6400663 20.8926028,35.5100559 20.9555026,35.3763212 C20.9555026,35.3479041 20.9735838,35.319487 20.9856379,35.29107 C22.2362539,30.7244464 23.0951107,26.1066721 23.9268457,21.4462721 C24.079438,20.3003118 24.1448982,19.1455257 24.1227253,17.9907561 L23.7942502,17.8202537 C23.776169,18.4624795 21.6908045,19.224057 21.5793038,19.8634412 Z" id="Path" fill="#FFFFFF" fill-rule="nonzero"></path>
                <path d="M30.5230575,23.5365237 C30.5230575,23.4895223 30.5230575,23.442521 30.5001059,23.3982844 C30.5001059,23.5807603 30.5001059,23.7632363 30.5001059,23.9512418 C30.7870009,27.2883403 30.5374022,30.6669106 30.2332934,34.0123034 C29.4328562,42.8319754 28.3197034,51.7069431 25.4163254,60.1091322 C22.5129474,68.5113213 17.6701588,76.4932626 10.460486,81.9979545 C10.0573732,82.6065279 9.72843167,82.5900667 10.0813126,83.9862844 C17.2909854,78.4815925 22.7883667,70.1729585 25.7032205,61.7680047 C28.6180743,53.3630508 29.7197513,44.4908478 30.5201885,35.6628815 C30.8874142,31.6262918 31.1943919,27.5344064 30.5230575,23.5365237 Z" id="Path" fill="#FFFFFF" fill-rule="nonzero"></path>
                <path d="M22.1371709,6.25422305 C22.0581153,6.0651109 21.9593529,5.88446735 21.8424476,5.7151527 C21.4828853,5.13860686 21.1970037,4.50152372 20.6635546,4.03740432 C20.5597123,3.93479366 20.4352845,3.85431159 20.2980978,3.80102053 C20.174314,3.76066232 20.0416886,3.75777959 19.9179048,3.71453866 C19.7373326,3.61784207 19.5683034,3.50182117 19.413928,3.36861116 C19.2532726,3.2323384 19.018036,3.22160889 18.8451122,3.34266659 C18.7537583,3.15023632 18.5932722,2.9973665 18.3941856,2.91313995 C18.1736544,2.8954456 17.9517032,2.90610644 17.7340055,2.94484997 C17.4982269,2.94484997 17.2653956,2.68252161 17.0531948,3.00538728 C17.0203102,3.08052178 16.9733266,3.14896588 16.9146749,3.20717832 C16.8412794,3.24632238 16.7595056,3.26804645 16.6759491,3.27059836 C16.1926029,3.35131478 15.8831435,3.88750241 15.3968502,3.93939153 C15.2870812,3.93612244 15.1775209,3.95073551 15.0726546,3.98263247 C14.6040446,4.18442351 14.380055,4.91951945 14.2385878,5.34039791 C13.9438645,6.25422305 12.9978029,7.8599032 13.823028,8.72760468 C13.9468118,8.85732749 14.1177513,8.9668712 14.1531181,9.13695222 C14.1884848,9.30703324 14.1531181,9.42522513 14.2120627,9.5607134 C14.2710074,9.69620167 14.4242634,9.75385626 14.506786,9.84898632 C14.6093933,10.0338088 14.6687835,10.2386022 14.6806727,10.448594 C14.7897203,10.9127134 15.2141217,11.2298136 15.5176867,11.6016857 C15.762307,11.9043722 15.9332465,12.2589479 16.1572361,12.5789308 C17.2241343,14.1038946 20.0829498,13.6570715 21.1203757,12.2906579 C21.4518283,11.9242601 21.5862934,11.4259727 21.4828853,10.9473061 C21.5393667,10.8775028 21.5704755,10.7912904 21.5713022,10.7022742 C21.5712468,10.6460977 21.5653216,10.5900738 21.5536188,10.5350759 C21.5536188,10.5033658 21.5536188,10.4630076 21.5536188,10.4831867 C21.5645547,10.4471598 21.5793741,10.4123717 21.5978273,10.3794085 C21.7150758,10.1783795 21.6470784,9.92257473 21.4445712,9.80286265 C21.2967396,9.72214864 21.1147633,9.73110429 20.9759613,9.82592449 C20.6547129,10.0507774 19.0691018,9.65584347 18.6623838,9.63566436 C17.7024956,9.58473301 16.7400755,9.60303984 15.7829376,9.69043622 C15.5143651,9.29137575 15.284466,8.86866335 15.0962324,8.42780084 C15.0525805,8.34428322 15.0351489,8.25000603 15.0461295,8.1568243 C15.0873908,7.98962601 15.2819081,7.92332324 15.420428,7.81954499 C15.9302992,7.44190747 15.6827317,6.71545972 16.3045978,6.4271868 C16.599321,6.2888158 16.9500417,6.25998851 17.2565539,6.13891388 C17.6426413,5.97171559 18.0051509,5.63155355 18.4177635,5.71803543 C18.7714314,5.79298638 19.0543657,6.17350663 19.4080336,6.09567295 C19.5377118,6.06684566 19.6644428,5.97748105 19.7882266,6.02072199 C19.9120103,6.06396293 19.9503244,6.2888158 20.0446358,6.42430407 C20.1831557,6.62609511 20.4985096,6.6347433 20.6635546,6.81923797 C20.8285996,7.00373263 20.7843912,7.21705459 20.8845971,7.3957838 C20.9818792,7.54180762 21.1353796,7.64316586 21.3102152,7.6768248 C21.4850508,7.71048374 21.6663727,7.6735847 21.8129753,7.57451301 C22.0977157,7.35564148 22.2433422,7.00611749 22.1961155,6.6549224 C22.1935803,6.51947804 22.1737791,6.38487212 22.1371709,6.25422305 L22.1371709,6.25422305 Z M17.9692025,10.7696154 C18.6511089,10.7056319 19.5399186,10.4363679 20.1781131,10.8655907 C20.2446959,10.9115189 20.307071,10.9623412 20.3646174,11.0175516 C20.3726503,11.060505 20.3884056,11.1019444 20.4112435,11.1401867 C20.0878507,11.280637 19.7560886,11.4043557 19.4175252,11.510758 C18.4330738,11.7669753 17.3810835,11.4058015 16.8239494,10.6203205 C17.197555,10.712902 17.5822002,10.7630442 17.9692025,10.7696154 Z" id="Shape" fill="#FFFFFF" fill-rule="nonzero"></path>
                <path d="M4.74358538,45.7452032 C4.65491381,47.0259004 5.96441157,48.9402808 6.53065052,50.0626151 C6.79232298,50.5649029 7.67387942,52.8375437 8.4029679,52.8361608 C8.82238977,52.8353642 7.98937281,49.7731028 7.92709626,49.5414688 C7.7247143,48.7798203 7.60873295,47.9315918 7.10807782,47.3629815 C6.53311773,46.7041681 5.59387485,45.9085658 4.74358538,45.7452032 Z" id="Path" fill="#FFFFFF" fill-rule="nonzero" transform="translate(6.629905, 49.290682) rotate(30.000000) translate(-6.629905, -49.290682) "></path>
                <path d="M33.4595036,46.1782331 C33.2939876,45.6336791 33.1984975,45.0273716 32.7910734,44.6203596 C32.3303426,44.1411175 31.7465229,43.7658059 31.0881678,43.5256377 C31.0531548,43.477919 31.0181417,43.4302004 30.9831287,43.3880957 C30.946382,43.413489 30.9132507,43.4427064 30.8844557,43.4751121 L30.8844557,43.4751121 C30.882853,43.4834737 30.882853,43.4920132 30.8844557,43.5003749 C30.5247766,43.9270357 30.5661556,44.9936879 30.5184106,45.5522767 C30.4865806,45.8329747 30.2001105,46.9389245 30.6043516,47.3206737 C30.8367107,47.5396181 31.4223829,46.2343727 31.4701279,46.1361284 C31.5528859,45.9508678 31.661108,45.7740281 31.724768,45.5747326 C31.9539441,45.9396399 32.1831202,46.2792844 32.3422702,46.5515614 C32.5555313,46.9108547 33.2748896,48.5360957 33.8669278,48.5360957 C34.1915939,48.5332887 33.5104316,46.3438449 33.4595036,46.1782331 Z" id="Path" fill="#FFFFFF" fill-rule="nonzero"></path>
                <path d="M16.9843564,15.977954 C17.0255156,15.8536344 17.032512,15.7203634 17.0045999,15.5923437 C16.9525736,15.4673839 16.8699816,15.3578187 16.7645694,15.2739231 L15.8969895,14.4530406 C16.0791813,16.2058147 15.0670046,17.4152288 13.4706575,17.8651075 C11.8164717,18.3325139 10.0957714,18.8641887 8.90429494,20.0736028 C7.90657798,21.072684 6.31100235,21.9765774 6.02180903,23.3378986 C5.8722829,24.0954424 4.79953753,28.0539308 4.74946731,31.4468625 C4.67364671,36.5847286 5.67827773,41.6771079 5.77233127,42.3016995 C5.90825213,43.2014569 6.59192071,44.1304509 7.29176855,42.3426213 C7.8441278,40.9404021 7.4988154,40.6686983 7.4380848,39.2635578 C7.35711067,37.4552792 7.32819134,35.6440793 7.38024614,33.8358007 C7.4901396,30.1462112 7.3947058,25.0105832 10.3386938,22.2879407 C10.0936839,23.1764725 9.9672491,24.0940794 9.9627425,25.0164257 C9.9453909,26.2959508 10.0176892,27.5959249 10.1217988,28.8900565 C10.1263777,29.0694181 10.1837666,29.2433326 10.286639,29.3895971 C10.4247607,29.5526494 10.6296813,29.6421341 10.8418902,29.6320642 C11.2617337,29.6303807 11.6733527,29.5143207 12.0333667,29.2961158 C12.3977503,29.0799403 12.6348888,28.5862423 12.9009467,28.2502939 C13.5050747,27.514267 14.0707361,26.7468701 14.5956195,25.9512386 C15.5094704,24.5519406 18.2886182,20.6929163 16.3018601,19.2030584 C16.0542938,19.0357724 15.8603422,18.7992467 15.743717,18.5223978 C15.4545237,17.6927513 16.7125146,17.015012 16.9843564,15.977954 Z" id="Path" fill="#FFFFFF" fill-rule="nonzero"></path>
            </g>
            <g id="Group-62" transform="translate(301.519945, 120.813310) scale(-1, 1) rotate(-8.000000) translate(-301.519945, -120.813310) translate(268.519945, 76.313310)">
                <g id="Group-3" transform="translate(0.288408, 0.326989)" fill="#0D0D0D" stroke="#000000" stroke-width="2.376">
                    <path d="M39.9481206,0.107813247 C42.3684963,0.657544459 42.3555075,0.62710079 42.8260122,3.03796787 C43.0669835,4.27122731 43.0892778,5.3633212 42.2477198,6.47538769 C41.4065496,7.58687246 40.6134574,8.77204253 39.9711903,10.1833102 C42.2878494,10.4712646 44.5225046,10.7601886 46.7604555,11.0240984 C49.3896212,11.3339645 52.0230519,11.6073758 54.6502791,11.9333363 C55.1013975,11.9891821 55.3287985,11.9108429 55.5781059,11.5088702 C57.1778608,8.93162941 58.4325401,6.16746065 59.9245073,3.53224119 C60.1912624,3.06123691 60.4597622,2.84115052 60.9734983,2.93461452 C61.5424853,3.03796787 62.1056564,3.20918926 62.6785206,3.24971619 C63.8271571,3.33077003 64.3356589,3.94953275 64.3914913,5.05093426 C64.4091328,5.4034603 64.5037378,5.75152645 64.5520096,6.10327686 C64.7881344,7.81762383 64.7274554,9.38382454 63.7414698,11.0010232 C61.8685623,14.0737008 60.221505,17.2898707 58.5874364,20.5008052 C56.642412,24.3233277 54.3371908,27.9494207 52.5243808,31.8438834 C51.381948,34.2977982 50.1104027,36.6914074 48.9061277,39.1166237 C48.6779513,39.5761874 48.4941695,40.0576627 48.2896443,40.5288609 C47.9496092,41.1805881 47.6031765,41.8290189 47.2710898,42.4846242 C46.4337968,44.1384717 45.6030952,45.7958095 44.7694857,47.4517899 C43.9351007,49.193478 43.1846582,50.9818981 42.2512094,52.66871 C39.0018769,58.540266 36.3118382,64.6714657 33.5240928,70.7667923 C31.2060767,75.8349845 29.0289987,80.9658091 26.6660064,86.0124774 C26.116018,87.1873703 25.8868723,87.2116089 24.6257955,86.8850666 C23.1297571,86.497637 22.2781184,85.635131 22.1604437,84.0799831 C22.1555971,84.0157993 22.1552094,83.9454104 22.1284564,83.8895647 C21.3117129,82.1932513 21.8529775,80.6456658 22.4902041,79.0195473 C23.4104703,76.6718945 24.5589129,74.4415564 25.6608284,72.1852346 C25.9085849,71.6777755 25.8572113,71.4662211 25.2649608,71.338823 C20.8805622,70.3950693 16.6076348,69.0501185 12.3323809,67.7109849 C10.492624,67.1346881 10.4639324,67.1606719 9.58302032,68.9417235 C8.11218412,71.9149258 6.69931286,74.9164389 5.45626531,77.9929946 C4.61916623,80.0645214 3.43989951,80.4341114 1.51930187,79.1737047 C1.25060819,78.9972478 1.14902414,78.7441969 1.05713323,78.4649684 C0.621717636,77.1456135 0.335770173,75.789222 0.0509858866,74.4326366 C-0.087238209,73.7748982 0.0690151164,73.1780472 0.357482794,72.568786 C3.70801161,65.4913118 7.04051119,58.4054994 10.3733985,51.3196871 C10.5228666,51.0018707 10.631042,50.6646635 10.7584098,50.3365699 C10.9257133,49.9446804 11.0930168,49.5527909 11.2603203,49.1607075 C11.7149283,48.6328879 11.9266263,47.9894988 12.1272742,47.3406802 C12.7150659,46.3123823 13.3024698,45.2842783 13.8902615,44.2561743 C14.6294599,42.9550468 15.3236822,41.6329772 15.7792595,40.1996039 C16.1793921,39.6510362 16.4337399,39.0295587 16.6770376,38.4026518 C17.7378542,36.2518163 18.7197687,34.0604539 19.9573881,32.0003677 C21.8845771,28.792148 23.6341878,25.4850348 25.4000831,22.187811 C27.2598078,18.7152937 29.5113291,15.477406 31.4398751,12.0490999 C33.5903938,8.22638341 36.1402698,4.65187012 38.3018387,0.839236927 C38.6963493,0.143298542 39.1364176,-0.0764000345 39.9481206,0.107813247 Z M16.2720585,53.5944303 C15.2682375,55.8625805 14.2506522,58.1247196 13.2082526,60.3752242 C12.9684444,60.8929605 13.1204328,61.0075605 13.6242819,61.1208032 C18.5666172,62.2313184 23.314896,64.0164421 28.1926751,65.3548 C28.6065719,65.4684305 28.791323,65.4622255 28.9894507,65.0346567 C30.0188616,62.8126568 31.0878204,60.6086903 32.1410764,58.3975492 C32.2242435,58.2230313 32.2920954,58.0407571 32.3878636,57.8123327 C32.3777827,57.5377579 32.0848562,57.5699468 31.9082473,57.5055691 C27.0176733,55.7227723 21.90028,54.7669963 16.896684,53.3950921 C16.6549373,53.3287753 16.4325768,53.2316271 16.2720585,53.5944303 Z M22.8600941,40.4534304 C21.7808606,42.5400821 20.5480877,44.5470373 19.6976121,46.7519734 C19.4793227,47.3176051 19.6256891,47.4525656 20.1617194,47.5809331 C21.8537529,47.9863963 23.5432662,48.4110564 25.212424,48.900482 C28.2423039,49.78839 31.2231366,50.8481011 34.3239702,51.4847034 C34.6717599,51.5560618 35.0445579,51.8164812 35.2925082,51.2632597 C36.3161032,48.9794028 37.3581152,46.7036901 38.4088509,44.4320495 C38.647302,43.9166401 38.6418739,43.6630075 37.9726599,43.5257201 C35.5166135,43.0209757 33.0708418,42.4642638 30.6277843,41.8984382 C28.2436609,41.3461862 25.8676799,40.7588367 23.3183855,40.1460851 C23.2065268,40.1100181 23.0136334,40.1565562 22.8600941,40.4534304 Z M29.8025108,27.8726329 C28.6730668,29.7093362 27.5420719,31.5450701 26.3930477,33.3693633 C26.1293945,33.7878183 26.1933692,33.9784306 26.6791891,34.0854682 C27.4965141,34.2654155 28.3146147,34.4505983 29.1170123,34.6860035 C33.1113591,35.8579877 37.2480011,36.3823169 41.2793757,37.3824981 C41.6967621,37.4862392 41.9660373,37.4453245 42.2124368,37.0037944 C43.3872447,34.8979457 44.346865,32.6912645 45.4185379,30.5059133 C45.205289,30.4310645 45.0577595,30.3628086 44.9026693,30.3271294 C40.12977,29.2247584 35.2318292,28.7975775 30.4659089,27.6575881 C30.1939196,27.5924348 29.9736916,27.5943739 29.8025108,27.8726329 Z M36.4574291,16.3953698 C35.5249496,17.9763076 34.5721145,19.5456108 33.6161776,21.1127811 C33.3806344,21.4988534 33.434916,21.6533986 33.9104611,21.7156433 C34.9978369,21.8581662 36.0821109,22.0309389 37.1613445,22.2258171 C40.684605,22.8618377 44.1690929,23.7074736 47.7214328,24.1813865 C48.0777524,24.2287003 48.5240243,24.5503948 48.8212158,23.9834057 C49.852953,22.0162018 50.904852,20.0594689 52.0011455,18.0015157 C51.3718672,17.8830375 50.8110224,17.7653349 50.2461066,17.6726465 C46.0443267,16.9842706 41.7522068,16.9633285 37.5932706,15.9629534 C37.0958189,15.8431178 36.7369791,15.921263 36.4574291,16.3953698 Z" id="Path-2"></path>
                </g>
                <path d="M25.492122,85.481165 L24.6659399,82.4002986 C34.4616687,61.3843541 42.3851492,44.8704099 48.4363816,32.8584659 C54.4876139,20.8465219 59.3255708,11.9874216 62.9502523,6.28116503 L63.4739399,9.5926134 L45.1050552,44.3194736" id="Fill-4" fill="#FFFFFF"></path>
                <path d="M40.2724316,2.24858006 C39.3542932,3.88741871 38.4783458,5.52799957 37.5309834,7.12657382 C34.9857814,11.4211209 32.3972273,15.6903091 29.8487352,19.983114 C24.8334236,28.4312827 20.1693812,37.0691588 15.8345448,45.8872567 C13.7329291,50.1626395 11.9653578,54.5855293 9.96573603,58.9042738 C7.62665073,63.9561013 5.21711806,68.9752141 2.83990602,74.0092324 C2.5602454,74.6013902 1.63301078,74.7709653 1.17219975,74.2980521 C0.919247203,74.0382693 1.19658538,73.8218481 1.2898701,73.6240105 C2.52560232,71.0019848 3.7984936,68.3975748 5.02242008,65.7701289 C7.38782637,60.6929425 9.68820431,55.5845898 12.0940598,50.5265677 C13.5442307,47.4775071 15.1976153,44.5254294 16.6630756,41.483144 C20.8744356,32.7413161 25.6472456,24.3111502 30.6722341,16.0191996 C33.1915021,11.8620935 35.5195558,7.5865172 38.3463538,3.61950556 C38.5129889,3.38546872 38.6341429,3.11697484 38.7605224,2.85680484 C39.1783683,1.99847617 39.1756588,1.99692754 40.2724316,2.24858006" id="Fill-12" fill="#C4C3C7"></path>
                <path d="M61.5668151,4.84402147 C62.311106,4.81524176 62.4957273,4.97613772 62.071137,5.75087207 C58.4003855,12.4528747 54.7768536,19.1797939 51.0271445,25.8396893 C47.8903239,31.4113639 44.9613475,37.1074287 42.4155474,42.971343 C39.9843131,48.571411 36.901292,53.8384843 34.3545243,59.3730737 C32.5820436,63.2249192 30.9924425,67.1584682 29.0943651,70.9552652 C27.3698783,74.4047743 25.7812448,77.9199551 24.492379,81.5570151 C24.2433144,82.2600899 23.8930371,82.0059014 23.4736719,81.9263226 C22.8174341,81.8019324 23.1847415,81.4341702 23.2770522,81.1399991 C24.322272,77.8117898 26.0216008,74.7700255 27.5202459,71.6465577 C31.3005317,63.767098 34.7657615,55.7435466 38.514503,47.8515319 C44.0245008,36.2513772 49.9459293,24.8565435 56.1889937,13.6334222 C57.7038948,10.9101663 59.0784914,8.10752472 60.7269236,5.45785985 C60.9252851,5.13915836 61.0235949,4.70321335 61.5668151,4.84402147" id="Fill-14" fill="#C4C3C7"></path>
                <path d="M21.9449665,36.4917352 C22.6282241,35.1519192 22.6260481,35.1622505 24.0877128,35.4156411 C27.5762035,36.0202983 30.9349267,37.1339117 34.4422099,37.6513866 C36.7768381,37.9957657 39.0430217,38.5969792 41.3489665,38.9855839 C41.1426441,39.9251951 40.6595767,40.1561104 39.6556589,39.981202 C35.2643345,39.2155929 30.9084193,38.3207509 26.5782202,37.305195 C25.0898503,36.9562845 23.5563782,36.7695948 21.9449665,36.4917352" id="Fill-28" fill="#F3F3F3"></path>
                <path d="M10.2034823,61.5971951 C13.8300516,62.4317975 17.5910184,63.3038462 21.2346821,64.5766296 C23.2755975,65.2896785 25.3829257,65.7476609 27.4299322,66.4171857 C27.6898851,66.5022732 28.3457603,66.3481747 28.1268733,67.0580866 C27.9459083,67.646053 27.5867292,67.5019532 27.1495446,67.3988287 C21.519589,66.0686015 16.0263886,64.2219677 10.3722651,62.9848662 C10.1806898,62.9429106 9.97634281,62.9295789 9.80029003,62.8519415 C9.5623437,62.7472486 8.98447403,62.9411461 9.21691872,62.3770984 C9.36074755,62.0273378 9.35858618,61.3785947 10.2034823,61.5971951" id="Fill-30" fill="#F3F3F3"></path>
                <path d="M16.5118442,48.2603447 C19.1477978,48.9246142 21.7979275,49.5394964 24.4161111,50.265746 C27.7369096,51.1869871 30.9796397,52.3760217 34.3671256,53.0749214 C34.5492184,53.112503 35.0988912,52.9641442 34.8942365,53.5121272 C34.7516769,53.8938461 34.6819945,54.3151142 34.0197116,54.1313382 C30.538983,53.165432 27.0287042,52.2998747 23.561353,51.2912711 C21.1352454,50.5856815 18.6142977,50.2974248 16.2105524,49.5286745 C15.9699583,49.4517404 15.3845458,49.6286297 15.5714305,49.0782855 C15.6972183,48.7083724 15.8042378,48.1068701 16.5118442,48.2603447" id="Fill-32" fill="#F3F3F3"></path>
                <path d="M29.3901463,23.7571837 C29.597215,22.9330543 30.0385154,22.7868827 30.8404144,22.9394183 C36.4037123,23.9974222 41.9784265,24.9955654 47.5490072,26.0145903 C47.8346124,26.066695 48.1172651,26.1357039 48.3981463,26.1961613 C48.2576073,27.1085903 47.8631532,27.3724946 46.9248486,27.1857529 C41.2737631,26.0605299 35.6079151,25.0098843 29.9477752,23.9306009 C29.7586183,23.894406 29.5773348,23.816249 29.3901463,23.7571837" id="Fill-34" fill="#F3F3F3"></path>
                <path d="M4.17909794,77.7084063 C3.83001316,76.2354384 3.5627341,74.9329222 4.25984584,73.48272 C5.57649491,70.7442059 6.72212769,67.9054833 7.97001764,65.0364063 C8.57192443,66.1254687 8.8362063,67.0425226 8.2406465,68.3039825 C6.80199406,71.351489 5.54740451,74.5048469 4.17909794,77.7084063" id="Fill-36" fill="#F3F3F3"></path>
                <path d="M53.0794542,14.1993637 C49.9886148,14.1633645 46.8666835,13.5761271 43.7238956,13.1408479 C41.4034004,12.819451 39.0440886,12.7810287 36.7419395,12.3450573 C36.4507189,12.29002 35.9097979,12.4075367 35.9582703,11.9831612 C36.0158192,11.4807297 36.511937,11.4523456 37.0043857,11.5274594 C40.9694662,12.1320042 44.9648662,12.5298995 48.9604593,12.9284871 C50.4304667,13.074907 51.9004742,13.2244423 53.36604,13.4018423 C53.6541707,13.4366301 54.2028164,13.2507494 54.1697934,13.7029897 C54.1387015,14.1304806 53.7460944,14.403244 53.0794542,14.1993637" id="Fill-38" fill="#F3F3F3"></path>
                <path d="M16.5630605,46.8927911 C18.0220571,43.7578464 19.3654478,40.8712513 20.7476088,37.9011853 C21.3029051,38.9652995 21.5741209,39.8225183 20.9811117,40.980045 C20.0596123,42.7790789 19.0841869,44.5623565 18.398129,46.498508 C18.0213522,47.5614968 17.3028682,46.5847926 16.5630605,46.8927911" id="Fill-40" fill="#F3F3F3"></path>
                <path d="M35.2461471,13.4973991 C35.6871072,14.6599555 36.095895,15.6103549 35.2403306,16.8165847 C34.2671647,18.1886938 33.5840946,19.8106232 32.7706995,21.3209649 C32.5040513,21.815998 31.4380039,21.9876869 31.0748389,21.6032399 C30.8794423,21.3962917 31.066296,21.2386263 31.1462723,21.0897759 C32.4964172,18.5797519 33.8531057,16.073935 35.2461471,13.4973991" id="Fill-42" fill="#F3F3F3"></path>
                <path d="M27.8268447,25.4699179 C28.5760845,26.8682191 28.5722868,28.0091428 27.6516062,29.2787552 C26.6625662,30.6425065 25.8778809,32.1904593 25.1062163,33.7174492 C24.7007624,34.5198613 24.1844506,34.0672186 23.8119104,33.935036 C23.367394,33.7770381 23.799613,33.4072763 23.9120984,33.1830901 C25.1919367,30.6316368 26.4920296,28.0918297 27.8268447,25.4699179" id="Fill-44" fill="#F3F3F3"></path>
                <path d="M14.9103889,51.3530968 C15.5508081,52.6838371 15.3297219,53.8570348 14.6624434,55.1295529 C13.7943601,56.7848919 13.1031459,58.5503965 12.4499365,60.314379 C12.1316454,61.1738234 11.6207717,60.7881485 11.2235474,60.6549603 C10.6127281,60.4498505 11.1484511,60.0757819 11.2621004,59.8594462 C12.6914869,57.1399336 13.5343554,54.1500489 14.9103889,51.3530968" id="Fill-46" fill="#F3F3F3"></path>
                <path d="M37.3444263,10.1501443 C38.8830244,7.86840959 39.9414278,5.30035337 41.388595,2.9159121 C41.87647,4.34496655 41.8347775,5.58804951 40.9559443,6.78144842 C40.3559752,7.5956383 39.8137903,8.48798727 39.4012544,9.42432527 C38.9622035,10.4211482 38.4053897,10.7269113 37.3444263,10.1501443" id="Fill-48" fill="#F3F3F3"></path>
                <path d="M1.15060814,75.5094051 C2.74122538,75.8681162 3.11737368,76.6158357 3.13060814,79.0734051 C1.29970266,78.4177425 1.92937368,76.7469294 1.15060814,75.5094051" id="Fill-50" fill="#F3F3F3"></path>
                <path d="M23.2569456,82.9822531 C24.6245213,83.2733149 24.6245213,83.2733149 24.8409456,85.3582531 C23.6553762,85.163753 23.6454592,85.1491225 23.2569456,82.9822531" id="Fill-52" fill="#F3F3F3"></path>
            </g>
            <g id="Group-45" transform="translate(39.632000, 53.794458)">
                <g id="statue">
                    <g id="Group-25-Copy" transform="translate(32.957323, 68.411862) scale(-1, 1) rotate(1.000000) translate(-32.957323, -68.411862) translate(1.957323, 0.911862)">
                        <path d="M13.2815209,0.243326862 C13.355798,0.243326862 13.4161521,15.5404591 13.41737,34.5276709 L13.41737,35.1041585 C13.41737,40.7672005 13.4121079,46.1148577 13.4027701,50.842717 C11.8643764,61.013526 10.2997144,60.5957772 9.39118107,44.2243152 C8.26741819,23.9744905 7.57765589,58.8720427 6.39706359,56.842069 L6.28937,0.243326862 L13.2815209,0.243326862 Z M5.80364293,0.326351167 L6.27972702,56.5583512 C5.55499912,55.6075914 4.81222832,55.9327119 4.04283542,55.8232599 L3.90372702,0.326351167 L5.80364293,0.326351167 Z M3.42333827,0.367878397 L3.89717774,55.8078784 C3.34668216,55.4381556 2.78180456,54.5978886 2.19957156,52.6893137 C2.09568353,52.3487661 1.99442469,51.9786726 1.89577916,51.5806386 C1.92212967,45.483545 1.48415708,0.367878397 1.52370567,0.367878397 L3.42333827,0.367878397 Z" id="Shape" fill="#FFFFFF" fill-rule="nonzero"></path>
                        <path d="M34.2941828,52.0586524 C36.1586574,50.1454057 43.6224927,49.6615508 45.9329322,53.3973308 C47.0071019,54.5596126 47.046683,59.9163264 47.0047485,61.1627412 C47.3176447,62.2190777 46.0833169,63.869008 45.5091361,64.4922154 C44.8575377,65.1902077 44.8833436,65.7635585 45.2252714,66.4864791 C45.6467674,66.9663488 45.9827468,67.3463062 46.2332095,67.6263514 C47.3428622,67.9005627 47.701988,68.2721763 48.8406723,68.4497904 C51.8535086,68.9296601 53.2728318,71.3757492 54.9695683,73.2921119 C56.3082482,74.7971578 55.3437535,76.66678 55.1082749,78.355672 C54.8217202,80.3758834 54.9101985,82.4292607 55.3695594,84.41948 C55.7534218,86.0429353 56.0072281,112.379297 56.896521,114.671366 C59.1525829,120.486153 63.3875416,130.69373 60.939127,132.813728 C59.0246462,134.47141 55.6092749,134.460187 49.8763435,134.059735 C47.7646325,133.912229 40.4618248,127.055099 38.1569349,127.943841 C36.1461388,128.719185 30.065604,132.038304 27.6770916,132.339698 C19.8949629,133.321682 13.5082873,128.157691 12.2547373,125.761629 C11.1006507,123.555683 11.6831404,122.7297 13.4537338,121.766628 C14.1966005,121.362563 16.0080988,122.330831 16.607429,120.919459 C17.5705937,118.651289 15.1520077,121.605933 14.5724413,117.786497 C13.9318109,113.56464 13.8516775,99.1842433 14.3589031,95.1783014 C14.6052453,93.2327523 26.0917523,91.0042391 25.8664674,89.1845455 C25.6288046,87.2648722 26.0068071,87.7445334 25.7801617,86.4288398 C25.6663675,85.7682556 22.7804151,88.1440833 21.2653795,89.169171 C19.8798611,90.1066261 18.6510646,91.2558181 16.3107828,88.495218 C14.542277,86.4090857 9.77858395,83.6351839 7.03573413,79.9121027 C5.63339017,78.0085932 2.17620822,77.1300822 1.55881766,75.6351966 C0.998088375,74.2775048 4.79711252,70.5842538 5.02551871,70.0298406 C5.48918238,68.904384 9.54387956,71.4342381 10.2142016,72.3156338 C10.8845236,73.1970294 11.5280455,74.9275374 11.8974449,75.2646263 C12.8622719,76.145062 15.4228247,77.621239 19.5791034,79.6931573 C23.263001,76.174861 25.2205398,74.2015943 25.4517198,73.7733574 C26.0290725,71.5865836 28.1437203,70.6174924 30.1830228,69.7491779 C32.2880517,68.8658085 32.9035253,67.8486564 34.8394626,66.6578786 C34.8684942,65.7106033 33.721198,65.248914 33.4921708,64.3141029 L33.4147532,64.236202 C32.5438048,64.1988096 32.5663849,63.4977012 32.3760666,62.9523948 C32.7179945,61.8617818 31.5470528,61.3227074 31.385766,60.3286916 C30.9665892,57.9893029 32.5636072,53.7444878 34.2941828,52.0586524 Z" id="Path" fill="#000000"></path>
                        <polygon id="Path" fill="#C4C3C6" fill-rule="nonzero" points="50.8299138 92.6376339 50.3142231 111.645634 46.4739138 108.714936"></polygon>
                        <path d="M45.5454128,62.8026065 C43.4815273,62.9750731 41.6849672,62.857183 40.1557324,62.4489361 C41.1264251,62.9942002 42.0001053,63.4200868 42.7767728,63.7265959 C41.5383968,63.8812741 39.8269334,63.6267811 38.9894782,63.4227214 C39.571867,63.7805988 39.7173636,63.985264 40.7367341,64.3939571 C39.7534245,64.3948176 38.6974561,64.1909491 38.3333568,64.0888715 C38.80631,64.6516371 38.9156114,64.6003433 39.3159058,64.95838 C37.0222773,64.0900188 35.8440595,62.483952 35.7203159,60.2812949 C35.6911201,59.7609189 35.6271811,58.6190602 35.5405681,57.5771071 C35.5350418,57.5085936 36.3325558,61.5307153 45.5454128,62.8026065 Z" id="Path-Copy-22" fill="#FFFFFF" transform="translate(40.542990, 61.267311) scale(-1, 1) rotate(64.000000) translate(-40.542990, -61.267311) "></path>
                        <path d="M46.7549645,71.387428 C46.7103546,72.7467037 44.1247876,86.3779542 38.0661988,102.32612 C45.3126067,86.3572207 47.4809102,74.4375632 47.6705751,71.2017918 C48.2175004,71.2562234 48.4070418,72.2931975 48.4018708,73.0158947 C48.3557234,79.1750171 43.7578297,94.8140014 40.1443163,102.369132 C39.6446295,103.544551 38.863791,105.295269 37.8018006,107.621288 C34.4400358,108.465131 32.7544819,108.883591 32.7451388,108.876668 C30.3982687,107.560544 27.9691263,106.438155 25.5127251,105.323412 C24.6457163,104.936737 23.4648084,105.353411 23.4855419,106.54123 C23.5086671,107.866075 23.6784916,115.29225 23.672143,117.231601 C22.471176,117.683217 21.6169011,115.833847 20.98999,116.276997 C19.0845956,117.623877 17.7908894,117.468115 17.8331422,116.858644 C17.8824149,116.150316 16.3517163,106.269691 16.248049,100.330595 C16.1443817,94.3915001 20.8749245,93.1207472 24.4798486,95.434185 C25.1620569,95.8719879 31.3054971,99.2734318 35.0176095,100.658142 C37.5268757,101.577158 35.3485567,100.063395 35.2745039,99.972317 C35.2543001,99.9645787 35.2401413,99.9411277 35.2239676,99.9229142 C34.9001862,99.65617 34.4097968,99.2651487 33.7527993,98.7498504 C37.4429588,91.9024558 39.7238103,87.7507348 40.5953539,86.2946872 C39.3942448,87.6487071 31.9579481,97.4079332 31.9030218,97.3681864 C31.3524681,93.8145598 31.1320526,91.9991902 31.2417752,91.9220775 C32.182876,91.1498336 35.4170523,88.1657232 40.9443039,82.9697464 L31.7493375,90.0665095 L31.3336847,85.335431 C34.668814,83.6928552 37.3072893,81.6923695 39.2491106,79.3339737 C41.1909319,76.9755779 42.7217052,73.9123956 43.8414304,70.144427 C45.7029712,70.9040544 46.6741492,71.318388 46.7549645,71.387428 Z M49.3885553,71.6479345 C50.5770234,71.8224717 50.8393284,73.3434383 50.79723,74.4997469 C50.6029301,79.9103985 50.1301335,85.3241669 48.9546187,90.622616 C48.7279354,91.6365938 48.4775043,92.6453769 48.2033255,93.6489655 C47.9086372,94.6993052 47.5848039,95.7465281 47.2609706,96.7844008 C46.3653635,99.4897711 44.5297255,103.691916 41.7540567,109.390834 C40.6712279,109.801642 40.1317613,109.150957 40.1356569,107.43878 C40.1387536,106.180082 50.4377751,81.4469488 49.3885553,71.6479345 Z" id="Shape" fill="#C4C3C6" fill-rule="nonzero"></path>
                        <path d="M51.4472183,74.7643914 C51.3277247,90.60889 44.5916739,104.706132 42.1430852,108.987983 C41.4307137,110.244919 40.7980619,109.123865 41.8442693,107.277896 C44.292858,102.996046 51.5577967,81.0994264 50.5139592,72.5236029 C51.1635042,73.6068172 51.4745905,74.3537467 51.4472183,74.7643914 Z" id="Path" fill="#FFFFFF" fill-rule="nonzero"></path>
                        <path d="M43.8871662,70.9356777 L46.3873739,71.8952818 C46.3400054,72.2860931 46.2833466,72.6759355 46.2174242,73.0645173 C45.1247153,78.1290551 41.4649116,92.002603 41.5528498,88.1631518 C41.7111291,82.4712086 42.4289901,76.8073747 43.6973023,71.2436868 C43.718789,71.1421422 43.7867067,71.0393588 43.8871662,70.9356777 Z" id="Path" fill="#FFFFFF" fill-rule="nonzero"></path>
                        <polygon id="Path-Copy-12" fill="#FFFFFF" fill-rule="nonzero" points="31.4644536 92.9742835 31.3499347 91.9349027 40.5129524 83.6685768"></polygon>
                        <path d="M24.615654,93.2870202 C24.2620451,95.1478969 24.2774104,99.332257 24.6617499,105.840101 C26.6306028,99.5287612 27.61181,95.4935197 27.6053714,93.734376 C27.5956501,91.0956606 25.057235,91.0023829 24.615654,93.2870202 Z" id="Path-Copy-23" fill="#FFFFFF" fill-rule="nonzero" transform="translate(25.983431, 98.749486) rotate(-80.000000) translate(-25.983431, -98.749486) "></path>
                        <g id="Group-44" transform="translate(37.419004, 115.439849) rotate(-20.000000) translate(-37.419004, -115.439849) translate(30.919004, 108.439849)" fill="#C4C3C6" fill-rule="nonzero">
                            <path d="M1.31772139,9.93244625 L11.2576832,10.8489559 L11.5898743,6.81920452 L9.16548,2.50004389 C6.3604314,3.25165439 4.38872428,4.05328464 3.25035865,4.90493461 C2.11199301,5.75658459 1.46778059,7.4324218 1.31772139,9.93244625 Z" id="Path-Copy-27" transform="translate(6.453798, 6.674500) rotate(-56.000000) translate(-6.453798, -6.674500) "></path>
                        </g>
                        <polygon id="Path-Copy-24" fill="#FFFFFF" fill-rule="nonzero" points="43.8374224 115.295374 42.106634 120.366579 49.2290968 124.655939"></polygon>
                        <polygon id="Path-Copy-29" fill="#FFFFFF" fill-rule="nonzero" transform="translate(20.001623, 110.477755) scale(-1, 1) rotate(-120.000000) translate(-20.001623, -110.477755) " points="18.3732979 106.517755 16.8336232 110.808516 23.1696232 114.437755"></polygon>
                        <path d="M15.7546129,125.712431 C19.0557293,127.171543 21.4403232,128.042947 22.9083944,128.326643 C25.1105013,128.752187 24.8584003,128.9772 28.0670493,127.544272 C28.6110102,127.301349 28.7358516,128.905302 26.8084061,129.627758 C25.5234425,130.109394 24.2309587,130.133361 22.9309548,129.699656 C19.8286408,128.926229 17.5219271,128.110065 16.0108135,127.251165 C13.97976,126.096736 13.3133919,125.931452 13.7820467,123.688861 C13.7820467,123.688861 14.4395688,124.363384 15.7546129,125.712431 Z" id="Path" fill="#FFFFFF" fill-rule="nonzero"></path>
                        <path d="M23.1171176,120.176065 C23.4654574,120.384299 24.0412068,120.908921 23.7265093,122.86688 C23.4237351,124.750656 23.4087567,126.527096 23.8820398,126.612458 C25.4549732,126.896153 25.0261786,127.532735 27.3180708,126.577449 C27.7066143,126.4155 27.7957867,127.484803 26.4190399,127.966439 C25.5012087,128.287531 24.5780061,128.303508 23.6494318,128.014372 C21.4334933,127.498754 19.7858406,126.954645 18.7064738,126.382044 C17.7393054,125.868965 17.6783053,125.527024 18.5234734,125.356222 C19.5287844,125.770951 20.9850896,124.353654 20.9718631,124.222897 C20.8942658,123.506283 20.591284,122.876638 21.2253013,121.803493 C21.3224211,121.633221 21.4878844,121.314754 21.6160075,120.941241 C22.384521,120.292301 22.8848911,120.037243 23.1171176,120.176065 Z" id="Path" fill="#FFFFFF" fill-rule="nonzero"></path>
                        <path d="M38.2568078,67.865545 C38.6665698,68.6505133 39.4924523,73.5608854 38.0060024,76.1871896 C36.1231992,79.5137826 30.885828,82.1944686 30.8829745,82.0840429 C30.880121,81.9736172 30.9382491,79.7009264 30.9136437,78.2912888 C30.895214,77.2354496 30.3649907,77.1126846 29.3229738,77.9229937 L21.5216697,84.7921915 L19.1805873,86.8133568 C18.2379352,86.0399162 17.0339901,85.1367904 15.5687521,84.1039794 C13.370895,82.5547629 12.3597677,81.7836305 10.3524246,80.2344275 C8.34508157,78.6852245 9.88046225,75.8860021 12.283745,77.4282939 C14.6870277,78.9705858 15.6342343,79.5342922 20.3791159,81.9605005 C24.2585656,77.9070543 27.4430852,74.3000448 30.4071256,71.963165 C33.371166,69.6262852 36.6799602,68.2891293 38.2568078,67.865545 Z M44.328602,58.3163214 C44.38259,61.4024303 44.8305597,58.9219384 42.8008366,61.502931 C42.0830569,62.4156584 41.2454392,63.1100211 40.2177182,64.707921 C39.6624099,63.1375917 39.4162039,63.0394587 38.5794252,61.5764527 C39.2454102,63.944209 38.4524342,63.2522008 39.3904218,64.8633884 C38.6347291,63.8552665 38.2111873,63.7178437 37.1210172,61.8088274 C37.7506132,63.9125003 38.3478496,65.5163809 38.586282,65.7897611 C37.9391608,65.3611073 38.0894122,65.5003998 37.1356826,64.4068789 C37.5021449,65.2101181 37.9424463,65.9681959 38.4323944,66.6649171 C35.3655308,63.3948799 33.819231,61.024287 33.793495,59.5531385 C33.7299089,55.9183697 35.5807244,53.2020086 39.2235698,53.1385634 C42.8664153,53.0751183 44.2650159,54.6815526 44.328602,58.3163214 Z" id="Shape" fill="#FFFFFF" fill-rule="nonzero"></path>
                        <g id="paint-37" transform="translate(0.175120, 54.272092)">
                            <path d="M-4.18367563e-11,9.27684596e-11 L-4.18367563e-11,10.7712 C-4.18367563e-11,12.2583924 1.21867961,13.464 2.7219971,13.464 L5.42272859,13.464 L5.42272859,18.1764 C5.42272859,19.2917943 6.3367383,20.196 7.46422642,20.196 C8.59171453,20.196 9.50572424,19.2917943 9.50572424,18.1764 L9.50572424,13.464 L11.9300029,13.464 C13.4333204,13.464 14.652,12.2583924 14.652,10.7712 L14.652,9.27684596e-11 L-4.18367563e-11,9.27684596e-11 Z" id="Path" stroke="#111111" stroke-width="0.55" fill="#000000" stroke-linecap="round" stroke-linejoin="round"></path>
                            <path d="M1.3244,9.504 L13.3276,9.504 C13.4029316,9.504 13.464,8.97211428 13.464,8.316 C13.464,7.65988572 13.4029316,7.128 13.3276,7.128 L1.3244,7.128 C1.24906836,7.128 1.188,7.65988572 1.188,8.316 C1.188,8.97211428 1.24906836,9.504 1.3244,9.504 Z" id="Path" fill="#C4C3C7" fill-rule="nonzero" transform="translate(7.326000, 8.316000) scale(1, -1) translate(-7.326000, -8.316000) "></path>
                            <path d="M3.72276635,16.236 L11.3967951,16.236 C11.444957,16.236 11.484,15.7041143 11.484,15.048 C11.484,14.3918857 11.444957,13.86 11.3967951,13.86 C7.90444762,14.652 5.50423732,15.048 4.19616423,15.048 C2.2340546,15.048 3.67460443,16.236 3.72276635,16.236 Z" id="Path-Copy-7" fill="#C4C3C7" fill-rule="nonzero" transform="translate(7.326000, 15.048000) scale(1, -1) rotate(-270.000000) translate(-7.326000, -15.048000) "></path>
                            <path d="M4.70799991,17.0210888 L9.50380489,17.0210888 C9.51352833,17.0210888 8.99561905,16.2998249 8.46419778,16.1323967 C7.35063742,15.7815613 5.64900455,15.836166 4.90835687,15.836166 C3.81425197,15.836166 4.67790162,17.0210888 4.70799991,17.0210888 Z" id="Path-Copy-8" fill="#FFFFFF" fill-rule="nonzero" transform="translate(6.929940, 16.427089) scale(1, -1) rotate(-270.000000) translate(-6.929940, -16.427089) "></path>
                            <path d="M3.0976,1.188 L3.0976,4.43936842 L4.0603112,1.188 L5.8256,1.188 L5.8256,2.81368421 L6.307092,1.188 L13.3276,1.188 C13.4029316,1.188 13.464,2.34041905 13.464,3.762 C13.464,5.18358095 13.4029316,6.336 13.3276,6.336 L1.3244,6.336 C1.25067116,6.336 1.19060511,5.23209836 1.188,3.85236516 L1.188,3.762 C1.188,2.34041905 1.24906836,1.188 1.3244,1.188 L3.0976,1.188 Z" id="Path" fill="#C4C3C7" fill-rule="nonzero"></path>
                            <path d="M13.3270943,1.188 C13.3991047,1.188 13.4581299,2.2610155 13.4635881,3.62380906 L13.464,3.83030353 C13.464,4.30535959 13.4575044,4.75113465 13.4461338,5.13634928 C11.9700113,5.79175009 10.5014015,5.70500265 9.63064137,4.52564656 C8.42882025,2.89790201 7.21959445,2.45010803 5.95027633,2.32699125 L6.28055973,1.188 L13.3270943,1.188 Z M5.79728273,1.188 L5.79711446,2.31367831 C5.12177933,2.26151233 4.42897042,2.2909023 3.71084395,2.27452084 L4.02544961,1.188 L5.79728273,1.188 Z M3.05916942,1.188 L3.05929301,2.24411764 C2.61368154,2.21062545 2.15787322,2.14622122 1.69011277,2.02241164 C1.51455038,1.97594276 1.34699944,1.92220438 1.18737269,1.86190872 C1.21234984,1.44238649 1.24433357,1.188 1.27939577,1.188 L3.05916942,1.188 Z" id="Combined-Shape" fill="#FFFFFF" fill-rule="nonzero"></path>
                        </g>
                        <path d="M7.80114873,71.9631046 C8.54221865,72.4631787 8.78293199,73.1024247 8.96799385,73.4636089 C9.09136843,73.7043984 9.10463785,74.4646026 9.00780209,75.7442215 C8.88339143,75.6847072 8.90701404,75.7607698 9.02066328,75.9163931 C8.48998938,76.9834407 7.65368686,77.8334917 6.64440815,78.3185147 C5.38460618,77.1353805 4.26936205,76.1957893 3.77358147,75.3389452 C3.2252669,74.3913079 3.68751912,73.6616108 4.41340336,73.9233275 C4.80014017,74.2967949 4.7221617,73.2743866 4.78023605,73.1564886 C4.97927368,72.7451243 5.24514394,73.0727933 5.69503939,73.2214539 C5.95476238,73.3072751 5.52717083,72.383015 5.90727293,72.3763803 C6.12030345,72.3726618 6.44892079,72.4475438 6.66747713,72.3631109 C6.83888242,72.2968933 6.29978619,71.6538409 6.65420772,71.6029067 C7.00862925,71.5519724 7.3915247,71.6866903 7.80114873,71.9631046 Z" id="Path" fill="#FFFFFF" fill-rule="nonzero" transform="translate(6.302190, 74.955412) rotate(-25.000000) translate(-6.302190, -74.955412) "></path>
                    </g>
                </g>
                <path d="M12.8383658,118.75314 C13.6673866,119.265976 13.7421077,120.282296 13.7407583,122.711889 C13.7400922,123.911068 13.2866221,124.692312 13.2857669,126.231884 C13.2849118,127.771456 14.1900549,128.111433 14.1893893,129.310389 C14.1880395,131.739982 12.7694475,133.710342 11.020875,133.711311 C9.27230257,133.71228 7.85589849,131.743492 7.85724699,129.313899 C7.85764229,128.603937 8.44922363,122.870276 9.2192665,120.074896 C9.74964259,118.149544 12.009345,118.240303 12.8383658,118.75314 Z" id="Path" fill="#FFFFFF" transform="translate(11.023318, 126.074529) rotate(15.000000) translate(-11.023318, -126.074529) "></path>
                <g id="Group-42-Copy" transform="translate(11.334195, 126.312322) rotate(-135.000000) translate(-11.334195, -126.312322) translate(4.834195, 122.812322)" fill="#000000">
                    <g id="Group-43" transform="translate(-0.000000, 0.000000)">
                        <path d="M5.01345466,2.09888017 C6.8325607,2.09436532 8.51716093,2.18180344 9.89550506,2.3342425 C8.47124136,2.5120416 6.68854745,2.62005428 4.75426411,2.62485498 C2.93513046,2.62936989 1.2505067,2.54192905 -0.127849058,2.3894857 C1.29650663,2.21169178 3.07918717,2.10368083 5.01345466,2.09888017 Z" id="Path" transform="translate(4.883828, 2.361868) rotate(-25.000000) translate(-4.883828, -2.361868) "></path>
                        <path d="M7.87121825,3.25499379 C9.49500079,3.25105876 10.9987203,3.32707865 12.2290677,3.45961922 C10.9577328,3.614225 9.36645314,3.70815248 7.63986027,3.71233666 C6.01605308,3.71627175 4.51231259,3.64024949 3.28195478,3.5077052 C4.55337183,3.35310391 6.14463953,3.25917793 7.87121825,3.25499379 Z" id="Path-Copy-19" transform="translate(7.755511, 3.483665) rotate(-25.000000) translate(-7.755511, -3.483665) "></path>
                        <path d="M9.955622,4.45045724 C11.0289698,4.44785612 12.0229528,4.49855663 12.8362314,4.58693386 C11.9958554,4.68998698 10.9439914,4.75258352 9.80268422,4.75534933 C8.72932015,4.75795049 7.73532328,4.7072484 6.92203777,4.61886868 C7.76246805,4.51581856 8.8143242,4.45322303 9.955622,4.45045724 Z" id="Path-Copy-20" transform="translate(9.879135, 4.602903) rotate(-25.000000) translate(-9.879135, -4.602903) "></path>
                    </g>
                </g>
            </g>
            <g id="Group-28" transform="translate(78.408000, 168.238458)" fill-rule="nonzero">
                <path d="M23.584,25.4640638 C23.584,26.4372128 22.9288889,28.3835106 19.8171111,29.5188511 C17.8517778,30.167617 15.5588889,30.492 13.266,30.492 C9.66288889,30.492 5.896,29.6810426 4.09444444,27.8969362 C3.43933333,27.2481702 2.948,26.4372128 2.948,25.4640638 L0,6.64985106 C0,2.10848936 7.04244444,0 13.266,0 C16.5415556,0 19.6533333,0.486574468 21.9462222,1.4597234 C25.8768889,3.0816383 26.532,5.35231915 26.532,6.64985106 L23.584,25.4640638 Z" id="Shape" fill="#000000"></path>
                <path d="M2.77582082,7.52213399 C2.90169717,7.68187622 3.03714029,7.83456397 3.17947826,7.98019723 C5.19965217,10.0471405 9.42365217,10.9866602 13.464,10.9866602 C16.0351304,10.9866602 18.6062609,10.6108523 20.810087,9.85923658 C22.4827044,9.2287427 23.5223547,8.38237509 24.1515374,7.54778469 C24.1544786,7.61133936 24.156,7.67208658 24.156,7.7304828 L21.78,23.5045236 C21.78,24.3204222 21.252,25.9522196 18.744,26.9041013 C17.16,27.4480338 15.312,27.72 13.464,27.72 C10.56,27.72 7.524,27.0400844 6.072,25.5442702 C5.544,25.0003378 5.148,24.3204222 5.148,23.5045236 L2.772,7.7304828 L2.77759101,7.52482075 L2.77759101,7.52482075 Z" id="Combined-Shape" fill="#C4C3C7"></path>
                <path d="M21.7384197,10.692 C21.7804026,11.5440929 21.7924114,12.4537962 21.7660712,13.4218175 C21.7660712,20.2999997 20.3187141,24.426909 19.5950356,25.344 C18.8713571,24.426909 17.424,20.2999997 17.424,13.4218175 C17.424,12.9494513 17.4308263,12.4900611 17.4437757,12.0437956 C18.6623047,11.8594815 19.8371157,11.5509205 20.9097778,11.1189513 C21.1837529,10.9970055 21.4377916,10.8670312 21.6732415,10.7306564 L21.7384197,10.692 Z" id="Path" fill="#FFFFFF"></path>
                <path d="M6.16544779,7.83917957 C6.17350968,8.48417058 6.17510595,9.17277958 6.16844648,9.90554468 C6.16111615,15.1120804 5.84747847,18.2364342 5.69188136,18.9308551 C5.538239,18.2368666 5.23339773,15.1133775 5.24072806,9.90684178 C5.24123148,9.54927757 5.24317957,9.20153375 5.24642192,8.86372297 C5.50696687,8.72383987 5.75830351,8.4899194 5.98794677,8.1626138 C6.04661371,8.07022341 6.10102965,7.97176167 6.15148075,7.86846052 L6.16544779,7.83917957 Z" id="Path-Copy-10" fill="#111111" transform="translate(5.706600, 13.385017) scale(-1, 1) rotate(11.000000) translate(-5.706600, -13.385017) "></path>
                <path d="M7.49590406,7.89035127 C7.50442,8.21284051 7.50650102,8.55714322 7.50035738,8.9235297 C7.49669221,11.5267976 7.18525364,13.0891906 7.03014522,13.4365092 C6.87601417,13.089623 6.5689738,11.5280947 6.57263896,8.9248268 C6.57289067,8.74604469 6.57459396,8.57217177 6.57759851,8.40326444 C6.83804525,8.33314089 7.08921747,8.21600517 7.31863054,8.05219216 C7.37723251,8.00595604 7.43157918,7.95668723 7.48195762,7.90500148 L7.49590406,7.89035127 Z" id="Path-Copy-11" fill="#111111" transform="translate(7.038253, 10.663430) scale(-1, 1) rotate(11.000000) translate(-7.038253, -10.663430) "></path>
                <path d="M2.91321471,9.504 C3.26488651,9.71154234 3.87680467,16.7735642 6.48603452,22.0214634 C9.09526437,27.2693627 13.2232161,27.6329959 12.6108685,28.512 C12.2508872,28.1267733 5.60785737,27.486978 4.95482603,24.3395122 C4.67218293,22.9772353 3.36108248,18.5933296 2.91321471,15.5309268 C2.72492843,14.2434744 2.72492843,12.2344988 2.91321471,9.504 Z" id="Path-Copy-9" fill="#000000"></path>
                <path d="M13.266,4.76339633 C8.51780769,4.61537118 5.73438462,5.94759755 4.752,6.53969817 C5.40692308,7.13179878 8.35407692,8.316 13.266,8.316 C18.1779231,8.316 21.1250769,7.13179878 21.78,6.53969817 C21.1250769,5.94759755 18.1779231,4.76339633 13.266,4.76339633 Z" id="Path" fill="#FFFFFF"></path>
            </g>
            <g id="Group-33" transform="translate(256.429086, 49.708673) rotate(-4.000000) translate(-256.429086, -49.708673) translate(234.429086, 30.708673)">
                <path d="M32.1145962,2.91370453 C31.8184007,6.11081309 29.0593099,8.61610453 25.6993962,8.61610453 C22.3394825,8.61610453 19.5803918,6.11081309 19.2841962,2.91370453 L32.1145962,2.91370453 Z" id="Path-Copy-33" fill="#FFFFFF" transform="translate(25.699396, 5.764905) rotate(-330.000000) translate(-25.699396, -5.764905) "></path>
                <g id="Group-32" transform="translate(21.991658, 20.210079) rotate(-17.000000) translate(-21.991658, -20.210079) translate(2.991658, 7.710079)" fill-rule="nonzero">
                    <path d="M27.5923605,6.57592712 C31.9597118,2.03308033 34.6877049,-0.10104185 35.7763399,0.17356058 C37.4092925,0.585464225 38.5643688,3.4256441 36.2937291,8.77080136 C34.7799694,12.3342395 31.9660314,15.6866076 27.8519153,18.8279056 C27.6326367,20.689298 26.1835333,22.2034776 24.2873084,22.470027 C19.8031823,23.1003257 16.3443725,23.5616045 13.9091392,23.8540409 C12.6925165,24.0001398 7.44711417,25.0400502 6.13585283,24.6807147 C4.67992999,24.2817365 1.77297911,23.6243646 0.939926146,22.3044293 C0.459862588,21.5437899 0.287469108,19.9799816 0.170342186,19.3367211 C2.90080067,18.2307402 4.65816224,17.5069473 5.44242689,17.1653424 C6.52083901,16.6956146 5.92711639,13.4394524 7.74287338,13.3824934 C8.95337803,13.3445208 9.92187791,14.7814053 10.648373,17.693147 L23.5288402,14.1782336 L27.5923605,6.57592712 Z" id="Path" fill="#000000"></path>
                    <path d="M22.629358,17.4006514 L23.5835799,19.6129112 C23.3523541,20.5056666 22.524202,21.2066619 21.4671408,21.3389573 C18.308704,21.7342308 14.9721501,21.7833215 11.4574792,21.4862294 C9.21589086,21.171778 7.91192444,20.6503711 7.54557993,19.9220089 L22.5955317,17.4593301 L22.629358,17.4006514 Z" id="Path" fill="#FFFFFF" transform="translate(15.564580, 19.539051) rotate(1.000000) translate(-15.564580, -19.539051) "></path>
                    <path d="M9.37763837,16.357408 C9.33653156,16.7293894 9.18930452,17.0214708 9.00138252,17.0765939 C8.43988264,17.2412912 7.84671751,17.2617456 7.22188712,17.1379573 C6.82338253,17.0069359 6.59156628,16.789683 6.52643837,16.4861987 L9.07913036,15.4228472 L9.37763837,16.357408 Z" id="Path-Copy-34" fill="#FFFFFF" transform="translate(7.952038, 16.320240) rotate(98.000000) translate(-7.952038, -16.320240) "></path>
                    <path d="M9.32912044,18.8273038 C10.0696438,19.6115597 10.3637608,21.705757 10.1006118,22.6137005 C8.80393365,22.7237355 7.69564574,22.8718601 6.89693264,22.7734966 C6.85581441,22.7890043 6.81186984,22.7985203 6.76643213,22.8008406 C6.17352056,22.831115 5.556113,22.777089 4.91420945,22.6387627 C4.50784828,22.5213705 4.27967481,22.3740737 4.22968903,22.1968724 L5.8046439,22.0418114 C5.79529108,21.9387889 5.82002162,21.8369406 5.87945819,21.7452698 C5.64458714,21.7165014 5.35871171,21.67099 5.01223546,21.6069185 C3.23975734,21.1648148 2.23505285,20.6028482 1.99812199,19.9210188 C4.9867527,18.8901581 6.58757192,18.3479021 6.80057963,18.2942507 C7.52552081,18.111656 8.58859705,18.043048 9.32912044,18.8273038 Z" id="Path" fill="#FFFFFF"></path>
                    <path d="M30.1542589,7.46998348 L33.2991766,7.61003481 C32.7534623,9.63547466 31.9763208,11.3411571 30.9677521,12.727082 C30.7626927,13.0088643 29.6451139,12.8684201 29.371812,13.1780978 C28.4840241,14.1840478 28.1145879,15.7733477 26.506707,17.0736487 C25.65959,17.2544517 25.5903047,16.1539597 26.2988511,13.7721729 C27.0073976,11.3903861 28.2925335,9.28965627 30.1542589,7.46998348 Z" id="Path" fill="#FFFFFF"></path>
                </g>
            </g>
        </g>
    </g>
</svg>