<svg width="2560" height="2560" viewBox="0 0 2560 2560" fill="none" xmlns="http://www.w3.org/2000/svg">
<rect width="2560" height="2560" fill="#0E0C0F"/>
<path d="M602.3 1155.77C538.345 1155.77 486.088 1207.96 486.088 1272.7C486.088 1337.44 537.955 1389.63 602.3 1389.63C666.646 1389.63 718.512 1337.44 718.512 1272.7C718.512 1207.96 666.256 1155.77 602.3 1155.77ZM602.3 1335.48C567.593 1335.48 539.515 1307.23 539.515 1272.31C539.515 1237.39 567.593 1209.13 602.3 1209.13C637.008 1209.13 665.086 1237.39 665.086 1272.31C665.086 1307.23 637.008 1335.48 602.3 1335.48Z" fill="white"/>
<path d="M1745.25 1389.63C1711.74 1389.63 1684.08 1378.23 1663.03 1355.44C1643.16 1333.82 1633.42 1305.91 1633.42 1272.5C1633.42 1239.1 1643.55 1211.58 1663.03 1189.97C1684.08 1167.17 1711.74 1155.77 1745.25 1155.77C1778.77 1155.77 1806.43 1167.17 1827.47 1189.97C1847.35 1211.58 1857.09 1239.49 1857.09 1272.9C1857.09 1306.31 1846.96 1333.82 1827.47 1355.44C1806.43 1377.84 1778.77 1389.63 1745.25 1389.63ZM1745.25 1201.76C1725.38 1201.76 1710.18 1208.44 1698.88 1222.2C1687.58 1235.56 1682.13 1252.07 1682.13 1272.5C1682.13 1293.34 1687.58 1309.45 1698.88 1322.81C1710.18 1336.57 1725.38 1343.25 1745.25 1343.25C1765.13 1343.25 1780.32 1336.57 1791.62 1322.81C1802.93 1309.45 1808.38 1292.94 1808.38 1272.5C1808.38 1252.07 1802.93 1235.56 1791.62 1222.2C1780.32 1208.44 1765.13 1201.76 1745.25 1201.76Z" fill="white"/>
<path d="M750.354 1468.7L792.402 1374.23L704.023 1159.42H757.752L818.488 1315.43L880.392 1159.42H933.731L803.693 1468.7H750.354Z" fill="white"/>
<path d="M1024.51 1389.63C994.934 1389.63 970.808 1381.78 952.908 1366.46C936.175 1352.71 926.836 1334.26 925.669 1311.87L925.28 1302.44H975.089L975.867 1310.3C977.423 1326.01 985.984 1336.22 1002.33 1341.72C1008.55 1343.68 1014.78 1344.47 1021.01 1344.47C1027.62 1344.47 1033.85 1344.07 1039.68 1343.29C1045.13 1342.5 1050.58 1341.32 1055.64 1339.36C1068.09 1334.26 1070.04 1326.79 1070.04 1320.51C1070.04 1314.62 1068.09 1311.08 1063.81 1307.94C1057.97 1304.01 1050.19 1300.48 1040.85 1297.73C1030.73 1294.98 1019.84 1292.23 1008.16 1289.87C995.713 1287.52 984.039 1283.98 973.143 1279.66C961.858 1274.95 952.13 1268.67 944.347 1260.42C936.175 1251.39 931.895 1239.21 931.895 1224.29C931.895 1202.29 940.067 1185.4 956.021 1172.84C971.197 1161.05 993.378 1155.16 1022.17 1155.16C1049.41 1155.16 1071.59 1162.23 1087.94 1175.59C1101.95 1187.37 1110.12 1203.08 1112.06 1222.32L1113.23 1232.14H1064.2L1063.03 1224.29C1061.86 1213.68 1055.64 1199.54 1019.84 1199.54C980.926 1199.54 980.926 1214.86 980.926 1220.75C980.926 1225.86 982.871 1229.78 987.152 1232.14C992.989 1236.07 1000.77 1239.21 1010.11 1241.57C1020.23 1244.32 1031.12 1246.67 1042.8 1249.03C1055.25 1251.39 1067.31 1254.92 1077.82 1259.63C1089.1 1264.35 1098.83 1271.02 1106.62 1279.66C1114.79 1288.7 1119.07 1301.26 1119.07 1316.58C1119.07 1339.75 1110.12 1358.21 1092.61 1370.39C1074.71 1383.74 1052.14 1389.63 1024.51 1389.63Z" fill="white"/>
<path d="M1162.4 1385.98V1204.56H1120.27V1159H1162.4V1084H1211.54V1159H1259.13V1204.56H1211.54V1385.98H1162.4Z" fill="white"/>
<path d="M1275.42 1385.89V1158.91H1324.23V1185.62C1332.43 1176.58 1342.59 1169.12 1355.08 1163.23C1365.23 1158.13 1377.73 1155.77 1392.17 1155.77H1403.11V1204.86H1390.61C1370.7 1204.86 1355.08 1212.71 1342.59 1228.81C1330.48 1244.52 1324.62 1262.98 1324.62 1285.36V1386.29H1275.42V1385.89Z" fill="white"/>
<path d="M1514.72 1389.63C1481.16 1389.63 1453.07 1378.23 1431.61 1355.44C1410.93 1333.43 1400.39 1305.52 1400.39 1272.5C1400.39 1239.49 1410.54 1211.58 1430.05 1189.97C1451.12 1167.17 1478.82 1155.77 1512.38 1155.77C1545.93 1155.77 1573.64 1167.17 1594.71 1189.97C1614.61 1211.58 1624.36 1239.49 1624.36 1272.9V1294.52H1451.9C1455.02 1307.49 1461.26 1318.1 1470.24 1326.75C1481.94 1338.14 1496.38 1343.65 1514.72 1343.65C1539.3 1343.65 1556.47 1333.82 1567 1313.38L1569.35 1308.66H1621.63L1616.95 1320.85C1609.15 1341.29 1596.66 1358.19 1579.49 1370.77C1563.1 1382.95 1541.25 1389.63 1514.72 1389.63ZM1572.47 1246.96C1569.35 1235.17 1563.49 1225.34 1554.91 1217.48C1543.59 1206.87 1529.55 1201.76 1512.77 1201.76C1495.6 1201.76 1481.94 1206.87 1470.63 1217.48C1462.04 1225.34 1456.58 1235.17 1453.07 1246.96H1572.47Z" fill="white"/>
<path d="M2169.3 1385.98V1251.86C2169.3 1236.56 2165.4 1224.79 2156.82 1214.99C2148.64 1206.36 2138.9 1202.05 2126.42 1202.05C2112.78 1202.05 2101.87 1206.36 2093.3 1214.99C2083.94 1224.01 2079.27 1236.17 2079.27 1252.25V1385.98H2030.55V1251.86C2030.55 1236.56 2026.65 1224.79 2018.08 1214.99C2009.89 1206.36 2000.15 1202.05 1987.68 1202.05C1974.04 1202.05 1963.12 1206.36 1954.55 1214.99C1945.2 1224.01 1940.52 1236.17 1940.52 1252.25V1385.98H1891.8V1159.3H1940.52V1174.99C1954.94 1162.44 1972.87 1155.77 1994.69 1155.77C2010.28 1155.77 2024.7 1160.08 2037.95 1168.32C2046.92 1174.2 2054.71 1181.26 2061.34 1190.28C2071.47 1177.34 2085.11 1167.54 2101.87 1160.87C2110.84 1157.34 2120.97 1155.77 2132.27 1155.77C2143.57 1155.77 2154.49 1158.12 2165.01 1162.44C2175.14 1166.75 2184.5 1173.42 2192.68 1181.65C2209.83 1200.09 2218.4 1223.23 2218.4 1250.68V1385.98H2169.3Z" fill="white"/>
<path d="M1258.82 1159.72H1119.67V1203.21H1258.82V1159.72Z" fill="white"/>
<path d="M465.474 1159.42H340.597V1203.36H417.084V1383.81C417.084 1398.33 408.109 1411.27 394.84 1416.37L364.011 1428.53L377.279 1476L423.718 1457.95C439.328 1451.68 452.206 1439.91 459.62 1424.22C463.913 1415.19 465.864 1405.78 465.864 1395.58V1159.42H465.474Z" fill="white"/>
<path d="M1856.79 1159.72H1808.79V1385.68H1856.79V1159.72Z" fill="white"/>
</svg>
