<svg width="181" height="188" viewBox="0 0 181 188" fill="none" xmlns="http://www.w3.org/2000/svg">
<path d="M103 88H103.131C106.834 88 110.33 86.2906 112.603 83.3678L121.848 71.4828C125.21 67.1609 125.22 61.1114 121.872 56.7784L112 44H143L112.603 4.66263C110.331 1.72192 106.824 0 103.108 0H103L90.4593 16.1238L112 44H81L90.8725 56.7784C94.2201 61.1114 94.2101 67.1609 90.8483 71.4828L90.5007 71.9295L103 88Z" fill="black"/>
<path d="M103.125 0H72.869C69.1659 0 65.6703 1.70967 63.3968 4.63271L43.9115 29.6852C40.7283 33.778 39 38.815 39 44C39 49.185 40.7283 54.222 43.9115 58.3148L63.3968 83.3673C65.6703 86.2903 69.1659 88 72.869 88H103.13L103.085 87.9744C99.6765 87.7515 96.5091 86.0831 94.3968 83.3673L74.9115 58.3148C71.7283 54.222 70 49.185 70 44C70 38.815 71.7283 33.778 74.9115 29.6852L94.3968 4.63271C96.4962 1.93348 99.6378 0.268921 103.023 0.0298457C103.059 0.027286 103.125 0.0423311 103.125 0Z" fill="black"/>
<path d="M53.2239 120H45.2249V172H53.2239V120Z" fill="black"/>
<path fill-rule="evenodd" clip-rule="evenodd" d="M0.775161 151.476C0.781028 157.49 2.50869 162.379 5.95822 166.146V166.155C7.62127 167.963 9.65132 169.395 11.9125 170.356C14.1737 171.317 16.6139 171.783 19.07 171.725C21.7963 171.693 24.4698 170.969 26.8403 169.622C27.7081 169.087 28.5189 168.465 29.2602 167.765C29.7844 167.295 30.281 166.796 30.7474 166.269C30.9236 166.064 31.0882 165.85 31.2402 165.627H31.6274V179.14H7.62515V186.4H32.9964C36.658 186.4 39.6264 183.432 39.6264 179.77V132.002H31.6274V136.974H31.2402L30.0346 135.496C28.765 134.301 27.293 133.342 25.6875 132.662C23.6154 131.69 21.3499 131.2 19.0612 131.228C16.607 131.172 14.1696 131.646 11.9147 132.616C9.6598 133.586 7.64029 135.031 5.99344 136.851C2.50871 140.588 0.769294 145.463 0.775161 151.476ZM8.05257 151.485C8.05257 147.519 9.14378 144.363 11.3261 142.017C13.5933 139.762 16.6605 138.497 19.8576 138.497C23.0547 138.497 26.1219 139.762 28.389 142.017C30.5714 144.357 31.6655 147.514 31.6714 151.485C31.6772 155.457 30.5831 158.616 28.389 160.963C26.1196 163.213 23.0533 164.475 19.8576 164.475C16.6619 164.475 13.5955 163.213 11.3261 160.963C9.14378 158.61 8.05257 155.451 8.05257 151.485Z" fill="black"/>
<path fill-rule="evenodd" clip-rule="evenodd" d="M103.632 159.296C104.616 161.78 106.09 164.033 107.965 165.918C110.787 168.715 114.359 170.609 118.237 171.363C122.115 172.116 126.126 171.697 129.769 170.157C133.413 168.616 136.528 166.023 138.725 162.701C139.507 161.521 140.16 160.266 140.678 158.96H132.074C131.659 159.68 131.172 160.345 130.612 160.955C128.37 163.205 125.342 164.468 122.186 164.468C119.031 164.468 116.002 163.205 113.761 160.955C112.109 159.151 111.088 156.873 110.699 154.12L141.942 154.12C142.06 153.247 142.121 152.365 142.126 151.478C142.181 148.79 141.707 146.119 140.729 143.62C139.752 141.122 138.292 138.845 136.435 136.925C134.578 135.005 132.361 133.479 129.915 132.438C127.468 131.396 124.841 130.86 122.186 130.86C119.532 130.86 116.905 131.396 114.458 132.438C112.012 133.479 109.795 135.005 107.938 136.925C106.081 138.845 104.621 141.122 103.644 143.62C102.666 146.119 102.192 148.79 102.247 151.478C102.178 154.152 102.649 156.813 103.632 159.296ZM111.101 146.86C111.629 144.975 112.515 143.358 113.761 142.009C116 139.754 119.029 138.489 122.186 138.489C125.344 138.489 128.373 139.754 130.612 142.009C131.852 143.356 132.735 144.973 133.262 146.86H111.101Z" fill="black"/>
<path fill-rule="evenodd" clip-rule="evenodd" d="M64.2751 165.918C62.4002 164.033 60.9257 161.78 59.9424 159.296C58.9591 156.813 58.4876 154.152 58.557 151.478C58.5016 148.79 58.9764 146.119 59.9535 143.62C60.9307 141.122 62.3906 138.845 64.2476 136.925C66.1047 135.005 68.3215 133.479 70.7682 132.438C73.215 131.396 75.8424 130.86 78.4965 130.86C81.1505 130.86 83.778 131.396 86.2247 132.438C88.6714 133.479 90.8882 135.005 92.7453 136.925C94.6023 138.845 96.0622 141.122 97.0394 143.62C98.0165 146.119 98.4913 148.79 98.4359 151.478C98.4315 152.365 98.3697 153.247 98.2523 154.12L67.0093 154.12C67.398 156.873 68.4187 159.151 70.0714 160.955C72.3125 163.205 75.3406 164.468 78.4965 164.468C81.6523 164.468 84.6805 163.205 86.9215 160.955C87.4819 160.345 87.9693 159.68 88.384 158.96H96.9877C96.4697 160.266 95.8167 161.521 95.0355 162.701C92.838 166.023 89.7229 168.616 86.0792 170.157C82.4355 171.697 78.4245 172.116 74.5468 171.363C70.6692 170.609 67.0966 168.715 64.2751 165.918ZM70.0714 142.009C68.8255 143.358 67.9387 144.975 67.4111 146.86H89.5716C89.0451 144.973 88.1617 143.356 86.9215 142.009C84.6827 139.754 81.6537 138.489 78.4965 138.489C75.3392 138.489 72.3103 139.754 70.0714 142.009Z" fill="black"/>
<path d="M143 131.997H151.386L159.94 164.002H163.75L172.304 131.997H180.69C179.447 136.519 178.204 141.041 176.961 145.564C174.54 154.377 172.118 163.189 169.69 172H154L143 131.997Z" fill="black"/>
</svg>
