<svg width="268" height="276" viewBox="0 0 268 276" fill="none" xmlns="http://www.w3.org/2000/svg">
<path d="M146 132H146.131C149.834 132 153.33 130.291 155.603 127.368L164.848 115.483C168.21 111.161 168.22 105.111 164.872 100.778L155 88H186L155.603 48.6626C153.331 45.7219 149.824 44 146.108 44H146L133.459 60.1238L155 88H124L133.872 100.778C137.22 105.111 137.21 111.161 133.848 115.483L133.501 115.93L146 132Z" fill="black"/>
<path d="M146.125 44H115.869C112.166 44 108.67 45.7097 106.397 48.6327L86.9115 73.6852C83.7283 77.778 82 82.815 82 88C82 93.185 83.7283 98.222 86.9115 102.315L106.397 127.367C108.67 130.29 112.166 132 115.869 132H146.13L146.085 131.974C142.677 131.752 139.509 130.083 137.397 127.367L117.912 102.315C114.728 98.222 113 93.185 113 88C113 82.815 114.728 77.778 117.912 73.6852L137.397 48.6327C139.496 45.9335 142.638 44.2689 146.023 44.0298C146.059 44.0273 146.125 44.0423 146.125 44Z" fill="black"/>
<path d="M96.2239 164H88.2249V216H96.2239V164Z" fill="black"/>
<path fill-rule="evenodd" clip-rule="evenodd" d="M43.7752 195.476C43.781 201.49 45.5087 206.379 48.9582 210.146V210.155C50.6213 211.963 52.6513 213.395 54.9125 214.356C57.1737 215.317 59.6139 215.783 62.07 215.725C64.7963 215.693 67.4698 214.969 69.8403 213.622C70.7081 213.087 71.5189 212.465 72.2602 211.765C72.7844 211.295 73.281 210.796 73.7474 210.269C73.9236 210.064 74.0882 209.85 74.2402 209.627H74.6274V223.14H50.6251V230.4H75.9964C79.658 230.4 82.6264 227.432 82.6264 223.77V176.002H74.6274V180.974H74.2402L73.0346 179.496C71.765 178.301 70.293 177.342 68.6875 176.662C66.6154 175.69 64.3499 175.2 62.0612 175.228C59.607 175.172 57.1696 175.646 54.9147 176.616C52.6598 177.586 50.6403 179.031 48.9934 180.851C45.5087 184.588 43.7693 189.463 43.7752 195.476ZM51.0526 195.485C51.0526 191.519 52.1438 188.363 54.3261 186.017C56.5933 183.762 59.6605 182.497 62.8576 182.497C66.0547 182.497 69.1219 183.762 71.389 186.017C73.5714 188.357 74.6655 191.514 74.6714 195.485C74.6772 199.457 73.5831 202.616 71.389 204.963C69.1196 207.213 66.0533 208.475 62.8576 208.475C59.6619 208.475 56.5955 207.213 54.3261 204.963C52.1438 202.61 51.0526 199.451 51.0526 195.485Z" fill="black"/>
<path fill-rule="evenodd" clip-rule="evenodd" d="M146.632 203.296C147.616 205.78 149.09 208.033 150.965 209.918C153.787 212.715 157.359 214.609 161.237 215.363C165.115 216.116 169.126 215.697 172.769 214.157C176.413 212.616 179.528 210.023 181.725 206.701C182.507 205.521 183.16 204.266 183.678 202.96H175.074C174.659 203.68 174.172 204.345 173.612 204.955C171.37 207.205 168.342 208.468 165.186 208.468C162.031 208.468 159.002 207.205 156.761 204.955C155.109 203.151 154.088 200.873 153.699 198.12L184.942 198.12C185.06 197.247 185.121 196.365 185.126 195.478C185.181 192.79 184.707 190.119 183.729 187.62C182.752 185.122 181.292 182.845 179.435 180.925C177.578 179.005 175.361 177.479 172.915 176.438C170.468 175.396 167.841 174.86 165.186 174.86C162.532 174.86 159.905 175.396 157.458 176.438C155.012 177.479 152.795 179.005 150.938 180.925C149.081 182.845 147.621 185.122 146.644 187.62C145.666 190.119 145.192 192.79 145.247 195.478C145.178 198.152 145.649 200.813 146.632 203.296ZM154.101 190.86C154.629 188.975 155.515 187.358 156.761 186.009C159 183.754 162.029 182.489 165.186 182.489C168.344 182.489 171.373 183.754 173.612 186.009C174.852 187.356 175.735 188.973 176.262 190.86H154.101Z" fill="black"/>
<path fill-rule="evenodd" clip-rule="evenodd" d="M107.275 209.918C105.4 208.033 103.926 205.78 102.942 203.296C101.959 200.813 101.488 198.152 101.557 195.478C101.502 192.79 101.976 190.119 102.954 187.62C103.931 185.122 105.391 182.845 107.248 180.925C109.105 179.005 111.322 177.479 113.768 176.438C116.215 175.396 118.842 174.86 121.496 174.86C124.151 174.86 126.778 175.396 129.225 176.438C131.671 177.479 133.888 179.005 135.745 180.925C137.602 182.845 139.062 185.122 140.039 187.62C141.017 190.119 141.491 192.79 141.436 195.478C141.431 196.365 141.37 197.247 141.252 198.12L110.009 198.12C110.398 200.873 111.419 203.151 113.071 204.955C115.312 207.205 118.341 208.468 121.496 208.468C124.652 208.468 127.68 207.205 129.922 204.955C130.482 204.345 130.969 203.68 131.384 202.96H139.988C139.47 204.266 138.817 205.521 138.035 206.701C135.838 210.023 132.723 212.616 129.079 214.157C125.436 215.697 121.425 216.116 117.547 215.363C113.669 214.609 110.097 212.715 107.275 209.918ZM113.071 186.009C111.825 187.358 110.939 188.975 110.411 190.86H132.572C132.045 188.973 131.162 187.356 129.922 186.009C127.683 183.754 124.654 182.489 121.496 182.489C118.339 182.489 115.31 183.754 113.071 186.009Z" fill="black"/>
<path d="M186 175.997H194.386L202.94 208.002H206.75L215.304 175.997H223.69C222.447 180.519 221.204 185.041 219.961 189.564C217.54 198.377 215.118 207.189 212.69 216H197L186 175.997Z" fill="black"/>
</svg>
