<svg width="882" height="300" viewBox="0 0 882 300" fill="none" xmlns="http://www.w3.org/2000/svg">
<g clip-path="url(#clip0)">
<rect width="882" height="300" fill="white"/>
<rect width="882" height="210" fill="black"/>
<rect x="620" y="105" width="52.5" height="52.5" fill="#1F242C"/>
<path d="M625.837 157.5H620V163.337H625.837V157.5Z" fill="#1F242C"/>
<path d="M631.673 163.337H625.837V169.174H631.673V163.337Z" fill="#1F242C"/>
<path d="M637.494 157.5H631.658V163.337H637.494V157.5Z" fill="#1F242C"/>
<path d="M625.837 169.158H620V174.995H625.837V169.158Z" fill="#1F242C"/>
<path d="M637.494 169.158H631.658V174.995H637.494V169.158Z" fill="#1F242C"/>
<path d="M643.332 163.337H637.495V169.174H643.332V163.337Z" fill="#1F242C"/>
<path d="M631.673 174.995H625.837V180.832H631.673V174.995Z" fill="#1F242C"/>
<path d="M625.837 180.832H620V186.669H625.837V180.832Z" fill="#1F242C"/>
<path d="M637.494 180.832H631.658V186.669H637.494V180.832Z" fill="#1F242C"/>
<path d="M643.332 174.995H637.495V180.832H643.332V174.995Z" fill="#1F242C"/>
<path d="M631.673 186.668H625.837V192.505H631.673V186.668Z" fill="#1F242C"/>
<path d="M625.837 192.489H620V198.326H625.837V192.489Z" fill="#1F242C"/>
<path d="M637.494 192.489H631.658V198.326H637.494V192.489Z" fill="#1F242C"/>
<path d="M643.332 186.668H637.495V192.505H643.332V186.668Z" fill="#1F242C"/>
<path d="M631.673 198.326H625.837V204.163H631.673V198.326Z" fill="#1F242C"/>
<path d="M625.837 204.164H620V210.001H625.837V204.164Z" fill="#1F242C"/>
<path d="M637.494 204.164H631.658V210.001H637.494V204.164Z" fill="#1F242C"/>
<path d="M643.332 198.326H637.495V204.163H643.332V198.326Z" fill="#1F242C"/>
<path d="M649.168 157.5H643.331V163.337H649.168V157.5Z" fill="#1F242C"/>
<path d="M655.006 163.337H649.169V169.174H655.006V163.337Z" fill="#1F242C"/>
<path d="M660.826 157.5H654.99V163.337H660.826V157.5Z" fill="#1F242C"/>
<path d="M649.168 169.158H643.331V174.995H649.168V169.158Z" fill="#1F242C"/>
<path d="M660.826 169.158H654.99V174.995H660.826V169.158Z" fill="#1F242C"/>
<path d="M666.663 163.337H660.826V169.174H666.663V163.337Z" fill="#1F242C"/>
<path d="M655.006 174.995H649.169V180.832H655.006V174.995Z" fill="#1F242C"/>
<path d="M649.168 180.832H643.331V186.669H649.168V180.832Z" fill="#1F242C"/>
<path d="M660.826 180.832H654.99V186.669H660.826V180.832Z" fill="#1F242C"/>
<path d="M666.663 174.995H660.826V180.832H666.663V174.995Z" fill="#1F242C"/>
<path d="M655.006 186.668H649.169V192.505H655.006V186.668Z" fill="#1F242C"/>
<path d="M649.168 192.489H643.331V198.326H649.168V192.489Z" fill="#1F242C"/>
<path d="M660.826 192.489H654.99V198.326H660.826V192.489Z" fill="#1F242C"/>
<path d="M666.663 186.668H660.826V192.505H666.663V186.668Z" fill="#1F242C"/>
<path d="M655.006 198.326H649.169V204.163H655.006V198.326Z" fill="#1F242C"/>
<path d="M649.168 204.164H643.331V210.001H649.168V204.164Z" fill="#1F242C"/>
<path d="M660.826 204.164H654.99V210.001H660.826V204.164Z" fill="#1F242C"/>
<path d="M672.5 157.5H666.663V163.337H672.5V157.5Z" fill="#1F242C"/>
<path d="M672.5 169.158H666.663V174.995H672.5V169.158Z" fill="#1F242C"/>
<path d="M672.5 180.832H666.663V186.669H672.5V180.832Z" fill="#1F242C"/>
<path d="M672.5 192.489H666.663V198.326H672.5V192.489Z" fill="#1F242C"/>
<path d="M672.5 204.164H666.663V210.001H672.5V204.164Z" fill="#1F242C"/>
<path d="M666.663 198.326H660.826V204.163H666.663V198.326Z" fill="#1F242C"/>
<rect x="631.667" y="52.5" width="5.83333" height="52.5" fill="#1F242C"/>
<rect x="643.333" y="52.5" width="5.83333" height="52.5" fill="#1F242C"/>
<rect x="655" y="52.5" width="5.83333" height="52.5" fill="#1F242C"/>
<rect x="666.667" y="52.5" width="5.83333" height="52.5" fill="#1F242C"/>
<rect x="620" y="52.5" width="5.83668" height="52.5" fill="#1F242C"/>
<rect x="555.833" y="157.5" width="5.83333" height="52.5" transform="rotate(-180 555.833 157.5)" fill="#1F242C"/>
<rect x="544.167" y="157.5" width="5.83333" height="52.5" transform="rotate(-180 544.167 157.5)" fill="#1F242C"/>
<rect x="532.5" y="157.5" width="5.83333" height="52.5" transform="rotate(-180 532.5 157.5)" fill="#1F242C"/>
<rect x="520.833" y="157.5" width="5.83333" height="52.5" transform="rotate(-180 520.833 157.5)" fill="#1F242C"/>
<rect x="567.5" y="157.5" width="5.83668" height="52.5" transform="rotate(-180 567.5 157.5)" fill="#1F242C"/>
<rect x="870.505" y="53.4844" width="5.83333" height="52.5" transform="rotate(-180 870.505 53.4844)" fill="#1F242C"/>
<rect x="858.838" y="53.4844" width="5.83333" height="52.5" transform="rotate(-180 858.838 53.4844)" fill="#1F242C"/>
<rect x="847.172" y="53.4844" width="5.83333" height="52.5" transform="rotate(-180 847.172 53.4844)" fill="#1F242C"/>
<rect x="835.505" y="53.4844" width="5.83333" height="52.5" transform="rotate(-180 835.505 53.4844)" fill="#1F242C"/>
<rect x="882.172" y="53.4844" width="5.83668" height="52.5" transform="rotate(-180 882.172 53.4844)" fill="#1F242C"/>
<path fill-rule="evenodd" clip-rule="evenodd" d="M567.5 163.333V157.5C596.495 157.5 620 181.005 620 210H614.167C614.167 184.227 593.273 163.333 567.5 163.333ZM567.5 175V169.166C590.052 169.166 608.333 187.448 608.333 210H602.5C602.5 190.67 586.83 175 567.5 175ZM567.5 180.834V186.667C580.387 186.667 590.833 197.114 590.833 210L596.667 210C596.667 193.892 583.608 180.834 567.5 180.834ZM567.5 198.333V192.5C577.165 192.5 585 200.335 585 210H579.167C579.167 203.557 573.943 198.333 567.5 198.333ZM567.5 210V204.166C570.722 204.166 573.333 206.778 573.333 210H567.5Z" fill="#1F242C"/>
<path fill-rule="evenodd" clip-rule="evenodd" d="M777 110.833V105C805.995 105 829.5 128.505 829.5 157.5L823.667 157.5C823.667 131.727 802.773 110.833 777 110.833ZM777 122.5V116.667C799.552 116.667 817.833 134.949 817.833 157.5H812C812 138.17 796.33 122.5 777 122.5ZM777 128.333V134.167C789.887 134.167 800.333 144.613 800.333 157.5L806.167 157.5C806.167 141.392 793.108 128.333 777 128.333ZM777 145.833V140C786.665 140 794.5 147.835 794.5 157.5H788.667C788.667 151.056 783.443 145.833 777 145.833ZM777 157.5V151.667C780.222 151.667 782.833 154.279 782.833 157.5H777Z" fill="#1F242C"/>
<path d="M729.112 52.5H725V48.3875L773.387 0H777.5V4.1125L729.112 52.5ZM765.133 0H756.879L725 31.8791V40.1333L765.133 0ZM748.625 0H740.371L725 15.3708V23.625L748.625 0ZM725 0V7.11666L732.117 0H725ZM777.5 20.6208V12.3667L737.367 52.5H745.621L777.5 20.6208ZM777.5 37.1291V28.875L753.875 52.5H762.129L777.5 37.1291ZM777.5 45.3833L770.383 52.5H777.5V45.3833Z" fill="#1F242C"/>
<path d="M672.5 105L725 105L725 52.5C696.005 52.5 672.5 76.0051 672.5 105Z" fill="#1F242C"/>
<path d="M777.5 157.5L777.5 105L725 105C725 133.995 748.505 157.5 777.5 157.5Z" fill="#1F242C"/>
<path d="M60.9141 101V96.9219H71.4141V68.3516H75.9844V101H60.9141ZM83.0859 88.7656C83.0859 86.9062 83.3047 85.1875 83.7422 83.6094C84.1953 82.0156 84.875 80.6641 85.7812 79.5547C86.7031 78.4297 87.8516 77.5469 89.2266 76.9062C90.6016 76.2656 92.2188 75.9453 94.0781 75.9453C95.9375 75.9453 97.5547 76.2656 98.9297 76.9062C100.305 77.5469 101.445 78.4297 102.352 79.5547C103.258 80.6641 103.938 82.0156 104.391 83.6094C104.844 85.1875 105.07 86.9062 105.07 88.7656C105.07 90.6562 104.844 92.3828 104.391 93.9453C103.938 95.5078 103.258 96.8516 102.352 97.9766C101.445 99.1016 100.297 99.9844 98.9062 100.625C97.5312 101.266 95.9219 101.586 94.0781 101.586C92.2188 101.586 90.6016 101.266 89.2266 100.625C87.8516 99.9844 86.7031 99.1016 85.7812 97.9766C84.875 96.8516 84.1953 95.5078 83.7422 93.9453C83.3047 92.3828 83.0859 90.6562 83.0859 88.7656ZM87.6328 92.5625C87.6328 93.3906 87.8047 94.1484 88.1484 94.8359C88.5078 95.5234 88.9766 96.1094 89.5547 96.5938C90.1328 97.0625 90.8125 97.4375 91.5938 97.7188C92.375 97.9844 93.2031 98.1172 94.0781 98.1172C94.9375 98.1172 95.7578 97.9844 96.5391 97.7188C97.3203 97.4375 98 97.0625 98.5781 96.5938C99.1562 96.1094 99.6172 95.5234 99.9609 94.8359C100.32 94.1484 100.5 93.3906 100.5 92.5625V84.9688C100.5 84.1406 100.32 83.3828 99.9609 82.6953C99.6172 82.0078 99.1562 81.4219 98.5781 80.9375C98 80.4531 97.3203 80.0781 96.5391 79.8125C95.7578 79.5312 94.9375 79.3906 94.0781 79.3906C93.2188 79.3906 92.3906 79.5312 91.5938 79.8125C90.8125 80.0781 90.1328 80.4531 89.5547 80.9375C88.9766 81.4219 88.5078 82.0078 88.1484 82.6953C87.8047 83.3828 87.6328 84.1406 87.6328 84.9688V92.5625ZM109.195 76.5312H113.859L120.234 95.6797H120.445L127.008 76.5312H131.484L119.484 109.156H111.117V105.453H116.742L118.289 101L109.195 76.5312ZM135.188 93.2656H139.523C139.586 94.8906 140.164 96.1094 141.258 96.9219C142.367 97.7188 143.672 98.1172 145.172 98.1172C146.609 98.1172 147.859 97.7969 148.922 97.1562C149.984 96.5156 150.516 95.5859 150.516 94.3672C150.516 93.3828 150.195 92.5938 149.555 92C148.914 91.4062 147.773 90.9531 146.133 90.6406L142.102 89.8203C140.086 89.3984 138.531 88.625 137.438 87.5C136.359 86.3594 135.82 84.8281 135.82 82.9062C135.82 81.9531 136.031 81.0547 136.453 80.2109C136.891 79.3516 137.508 78.6094 138.305 77.9844C139.117 77.3594 140.062 76.8672 141.141 76.5078C142.234 76.1328 143.453 75.9453 144.797 75.9453C145.953 75.9453 147.078 76.1016 148.172 76.4141C149.281 76.7109 150.266 77.1797 151.125 77.8203C152 78.4609 152.695 79.2812 153.211 80.2812C153.742 81.2656 154.023 82.4453 154.055 83.8203H149.742C149.68 82.1953 149.172 81.0547 148.219 80.3984C147.281 79.7266 146.156 79.3906 144.844 79.3906C143.5 79.3906 142.359 79.7109 141.422 80.3516C140.5 80.9922 140.039 81.8281 140.039 82.8594C140.039 83.8125 140.312 84.5547 140.859 85.0859C141.406 85.6172 142.289 86.0078 143.508 86.2578L147.633 87.125C150.07 87.6406 151.875 88.4766 153.047 89.6328C154.234 90.7734 154.828 92.3359 154.828 94.3203C154.828 95.3516 154.594 96.3125 154.125 97.2031C153.672 98.0781 153.008 98.8359 152.133 99.4766C151.273 100.102 150.25 100.609 149.062 101C147.875 101.391 146.562 101.586 145.125 101.586C143.75 101.586 142.461 101.406 141.258 101.047C140.07 100.703 139.023 100.188 138.117 99.5C137.227 98.7969 136.523 97.9297 136.008 96.8984C135.492 95.8516 135.219 94.6406 135.188 93.2656ZM158.859 80.2109V76.5312H162.984V68.3516H167.25V76.5312H172.875V80.2109H167.25V97.2969H172.875V101H162.984V80.2109H158.859ZM178.875 101V76.5312H190.641V80.2578H183.188V101H178.875ZM194.742 88.7656C194.742 86.9062 194.969 85.1875 195.422 83.6094C195.891 82.0156 196.578 80.6641 197.484 79.5547C198.406 78.4297 199.516 77.5469 200.812 76.9062C202.109 76.2656 203.602 75.9453 205.289 75.9453C207.055 75.9453 208.594 76.25 209.906 76.8594C211.219 77.4688 212.305 78.3047 213.164 79.3672C214.023 80.4141 214.672 81.6484 215.109 83.0703C215.547 84.4922 215.766 86.0234 215.766 87.6641V89.9609H199.289V92.5625C199.289 93.4531 199.453 94.2422 199.781 94.9297C200.125 95.6172 200.586 96.2031 201.164 96.6875C201.742 97.1562 202.391 97.5156 203.109 97.7656C203.828 98 204.57 98.1172 205.336 98.1172C206.867 98.1172 208.195 97.7266 209.32 96.9453C210.445 96.1641 211.086 94.9219 211.242 93.2188H215.578C215.484 94.5312 215.141 95.7031 214.547 96.7344C213.953 97.75 213.18 98.6172 212.227 99.3359C211.289 100.055 210.227 100.609 209.039 101C207.852 101.391 206.602 101.586 205.289 101.586C203.523 101.586 201.977 101.266 200.648 100.625C199.336 99.9844 198.234 99.1016 197.344 97.9766C196.469 96.8516 195.812 95.5078 195.375 93.9453C194.953 92.3828 194.742 90.6562 194.742 88.7656ZM199.289 86.5156H211.289V85.1562C211.289 84.2656 211.125 83.4609 210.797 82.7422C210.484 82.0234 210.047 81.4141 209.484 80.9141C208.938 80.4141 208.297 80.0391 207.562 79.7891C206.844 79.5234 206.086 79.3906 205.289 79.3906C204.492 79.3906 203.734 79.5234 203.016 79.7891C202.297 80.0391 201.656 80.4141 201.094 80.9141C200.531 81.4141 200.086 82.0234 199.758 82.7422C199.445 83.4609 199.289 84.2656 199.289 85.1562V86.5156ZM220.781 94.2734C220.781 92.3516 221.391 90.7031 222.609 89.3281C223.828 87.9531 225.656 87.1562 228.094 86.9375L236.062 86.2109V84.2422C236.062 83.2891 235.938 82.5 235.688 81.875C235.453 81.25 235.109 80.7578 234.656 80.3984C234.219 80.0234 233.688 79.7656 233.062 79.625C232.438 79.4688 231.742 79.3906 230.977 79.3906C229.445 79.3906 228.219 79.7344 227.297 80.4219C226.391 81.1094 225.938 82.2422 225.938 83.8203H221.602C221.602 82.6641 221.852 81.6094 222.352 80.6562C222.852 79.6875 223.523 78.8516 224.367 78.1484C225.211 77.4453 226.203 76.9062 227.344 76.5312C228.484 76.1406 229.711 75.9453 231.023 75.9453C232.336 75.9453 233.555 76.1172 234.68 76.4609C235.82 76.7891 236.805 77.2891 237.633 77.9609C238.477 78.6328 239.125 79.5 239.578 80.5625C240.047 81.6094 240.281 82.8516 240.281 84.2891V97.2969H243.938V101H236.625L236.531 96.4766H236.344C235.672 98.2109 234.68 99.5 233.367 100.344C232.055 101.172 230.484 101.586 228.656 101.586C227.438 101.586 226.336 101.398 225.352 101.023C224.367 100.648 223.516 100.094 222.797 99.3594C222.156 98.7188 221.656 97.9531 221.297 97.0625C220.953 96.1719 220.781 95.2422 220.781 94.2734ZM225.352 94.8594C225.352 95.9844 225.742 96.8125 226.523 97.3438C227.305 97.8594 228.383 98.1172 229.758 98.1172C231.711 98.1172 233.25 97.4219 234.375 96.0312C235.5 94.6406 236.062 92.8438 236.062 90.6406V89.5391L227.367 90.3359C226.477 90.3984 225.914 90.6328 225.68 91.0391C225.461 91.4453 225.352 92 225.352 92.7031V94.8594ZM248.766 101V76.5312H253.078V80.5625C253.625 79.2188 254.469 78.1172 255.609 77.2578C256.75 76.3828 258.18 75.9453 259.898 75.9453C261.523 75.9453 262.961 76.3516 264.211 77.1641C265.461 77.9766 266.359 79.25 266.906 80.9844C267.422 79.5469 268.297 78.3516 269.531 77.3984C270.766 76.4297 272.289 75.9453 274.102 75.9453C275.164 75.9453 276.156 76.1094 277.078 76.4375C278.016 76.75 278.828 77.2578 279.516 77.9609C280.203 78.6641 280.734 79.5703 281.109 80.6797C281.5 81.7734 281.695 83.1094 281.695 84.6875V101H277.383V85.1562C277.383 83.3594 277.039 81.9531 276.352 80.9375C275.664 79.9062 274.516 79.3906 272.906 79.3906C272.141 79.3906 271.43 79.5703 270.773 79.9297C270.117 80.2734 269.531 80.7734 269.016 81.4297C268.5 82.0859 268.102 82.8672 267.82 83.7734C267.539 84.6641 267.398 85.6406 267.398 86.7031V101H263.062V85.1562C263.062 83.3594 262.719 81.9531 262.031 80.9375C261.344 79.9062 260.203 79.3906 258.609 79.3906C257.844 79.3906 257.133 79.5703 256.477 79.9297C255.82 80.2734 255.234 80.7734 254.719 81.4297C254.203 82.0859 253.797 82.8672 253.5 83.7734C253.219 84.6641 253.078 85.6406 253.078 86.7031V101H248.766ZM302.062 101V68.3516H314.367C316.07 68.3516 317.57 68.5469 318.867 68.9375C320.18 69.3281 321.266 69.9219 322.125 70.7188C322.984 71.5156 323.609 72.5 324 73.6719C324.391 74.8281 324.586 76.1797 324.586 77.7266C324.586 79.1641 324.398 80.4688 324.023 81.6406C323.664 82.7969 323.07 83.7969 322.242 84.6406C321.602 85.2812 320.852 85.8125 319.992 86.2344C319.148 86.6406 318.086 86.9219 316.805 87.0781L324.867 101H319.641L312 87.2188H306.633V101H302.062ZM306.633 83.3281H316.031C317.25 83.3281 318.18 82.9609 318.82 82.2266C319.461 81.4922 319.781 80.6172 319.781 79.6016V75.9922C319.781 74.8672 319.445 73.9922 318.773 73.3672C318.102 72.7422 317.188 72.4297 316.031 72.4297H306.633V83.3281ZM331.359 92.8438V76.5312H335.672V92.3516C335.672 94.1172 336.016 95.5234 336.703 96.5703C337.391 97.6016 338.648 98.1172 340.477 98.1172C342.305 98.1172 343.75 97.4375 344.812 96.0781C345.891 94.7188 346.43 92.9688 346.43 90.8281V76.5312H350.742V101H346.43V96.9688C345.758 98.4062 344.859 99.5391 343.734 100.367C342.609 101.18 341.125 101.586 339.281 101.586C338.156 101.586 337.102 101.422 336.117 101.094C335.148 100.781 334.312 100.273 333.609 99.5703C332.906 98.8672 332.352 97.9609 331.945 96.8516C331.555 95.7422 331.359 94.4062 331.359 92.8438ZM358.734 101V76.5312H363.047V80.5625C363.719 79.125 364.641 78 365.812 77.1875C366.984 76.3594 368.5 75.9453 370.359 75.9453C371.547 75.9453 372.625 76.1094 373.594 76.4375C374.562 76.75 375.398 77.2578 376.102 77.9609C376.805 78.6641 377.352 79.5703 377.742 80.6797C378.133 81.7734 378.328 83.1094 378.328 84.6875V101H373.992V85.1562C373.992 83.3594 373.648 81.9531 372.961 80.9375C372.273 79.9062 371 79.3906 369.141 79.3906C368.25 79.3906 367.438 79.5703 366.703 79.9297C365.969 80.2734 365.328 80.7734 364.781 81.4297C364.234 82.0859 363.805 82.8672 363.492 83.7734C363.195 84.6641 363.047 85.6406 363.047 86.7031V101H358.734ZM383.766 80.2109V76.5312H387.891V68.3516H392.156V76.5312H397.781V80.2109H392.156V97.2969H397.781V101H387.891V80.2109H383.766ZM403.688 72.875V68.3516H408.188V72.875H403.688ZM403.781 101V76.5312H408.094V101H403.781ZM416.062 101V76.5312H420.375V80.5625C420.922 79.2188 421.766 78.1172 422.906 77.2578C424.047 76.3828 425.477 75.9453 427.195 75.9453C428.82 75.9453 430.258 76.3516 431.508 77.1641C432.758 77.9766 433.656 79.25 434.203 80.9844C434.719 79.5469 435.594 78.3516 436.828 77.3984C438.062 76.4297 439.586 75.9453 441.398 75.9453C442.461 75.9453 443.453 76.1094 444.375 76.4375C445.312 76.75 446.125 77.2578 446.812 77.9609C447.5 78.6641 448.031 79.5703 448.406 80.6797C448.797 81.7734 448.992 83.1094 448.992 84.6875V101H444.68V85.1562C444.68 83.3594 444.336 81.9531 443.648 80.9375C442.961 79.9062 441.812 79.3906 440.203 79.3906C439.438 79.3906 438.727 79.5703 438.07 79.9297C437.414 80.2734 436.828 80.7734 436.312 81.4297C435.797 82.0859 435.398 82.8672 435.117 83.7734C434.836 84.6641 434.695 85.6406 434.695 86.7031V101H430.359V85.1562C430.359 83.3594 430.016 81.9531 429.328 80.9375C428.641 79.9062 427.5 79.3906 425.906 79.3906C425.141 79.3906 424.43 79.5703 423.773 79.9297C423.117 80.2734 422.531 80.7734 422.016 81.4297C421.5 82.0859 421.094 82.8672 420.797 83.7734C420.516 84.6641 420.375 85.6406 420.375 86.7031V101H416.062ZM455.461 88.7656C455.461 86.9062 455.688 85.1875 456.141 83.6094C456.609 82.0156 457.297 80.6641 458.203 79.5547C459.125 78.4297 460.234 77.5469 461.531 76.9062C462.828 76.2656 464.32 75.9453 466.008 75.9453C467.773 75.9453 469.312 76.25 470.625 76.8594C471.938 77.4688 473.023 78.3047 473.883 79.3672C474.742 80.4141 475.391 81.6484 475.828 83.0703C476.266 84.4922 476.484 86.0234 476.484 87.6641V89.9609H460.008V92.5625C460.008 93.4531 460.172 94.2422 460.5 94.9297C460.844 95.6172 461.305 96.2031 461.883 96.6875C462.461 97.1562 463.109 97.5156 463.828 97.7656C464.547 98 465.289 98.1172 466.055 98.1172C467.586 98.1172 468.914 97.7266 470.039 96.9453C471.164 96.1641 471.805 94.9219 471.961 93.2188H476.297C476.203 94.5312 475.859 95.7031 475.266 96.7344C474.672 97.75 473.898 98.6172 472.945 99.3359C472.008 100.055 470.945 100.609 469.758 101C468.57 101.391 467.32 101.586 466.008 101.586C464.242 101.586 462.695 101.266 461.367 100.625C460.055 99.9844 458.953 99.1016 458.062 97.9766C457.188 96.8516 456.531 95.5078 456.094 93.9453C455.672 92.3828 455.461 90.6562 455.461 88.7656ZM460.008 86.5156H472.008V85.1562C472.008 84.2656 471.844 83.4609 471.516 82.7422C471.203 82.0234 470.766 81.4141 470.203 80.9141C469.656 80.4141 469.016 80.0391 468.281 79.7891C467.562 79.5234 466.805 79.3906 466.008 79.3906C465.211 79.3906 464.453 79.5234 463.734 79.7891C463.016 80.0391 462.375 80.4141 461.812 80.9141C461.25 81.4141 460.805 82.0234 460.477 82.7422C460.164 83.4609 460.008 84.2656 460.008 85.1562V86.5156Z" fill="white"/>
<path d="M60.7727 134.614H64.4318V145H65.8409V134.614H69.5V133.364H60.7727V134.614ZM72.8338 139.75C72.8338 138.227 73.8054 137.364 75.1293 137.364C76.3906 137.364 77.152 138.159 77.152 139.545V145H78.4929V139.455C78.4929 137.21 77.2997 136.159 75.5156 136.159C74.1406 136.159 73.3565 136.733 72.9474 137.636H72.8338V133.364H71.4929V145H72.8338V139.75ZM84.6051 145.182C86.3778 145.182 87.6733 144.295 88.0824 142.977L86.7869 142.614C86.446 143.523 85.6562 143.977 84.6051 143.977C83.0312 143.977 81.946 142.96 81.8835 141.091H88.2188V140.523C88.2188 137.273 86.2869 136.159 84.4688 136.159C82.1051 136.159 80.5369 138.023 80.5369 140.705C80.5369 143.386 82.0824 145.182 84.6051 145.182ZM81.8835 139.932C81.9744 138.574 82.9347 137.364 84.4688 137.364C85.9233 137.364 86.8551 138.455 86.8551 139.932H81.8835ZM98.304 145.182C100.236 145.182 101.509 144 101.736 142.455H100.395C100.145 143.409 99.3494 143.977 98.304 143.977C96.7131 143.977 95.6903 142.659 95.6903 140.636C95.6903 138.659 96.7358 137.364 98.304 137.364C99.4858 137.364 100.19 138.091 100.395 138.886H101.736C101.509 137.25 100.122 136.159 98.2812 136.159C95.9176 136.159 94.3494 138.023 94.3494 140.682C94.3494 143.295 95.8494 145.182 98.304 145.182ZM107.241 145.182C109.605 145.182 111.196 143.386 111.196 140.682C111.196 137.955 109.605 136.159 107.241 136.159C104.878 136.159 103.287 137.955 103.287 140.682C103.287 143.386 104.878 145.182 107.241 145.182ZM107.241 143.977C105.446 143.977 104.628 142.432 104.628 140.682C104.628 138.932 105.446 137.364 107.241 137.364C109.037 137.364 109.855 138.932 109.855 140.682C109.855 142.432 109.037 143.977 107.241 143.977ZM114.584 139.75C114.584 138.227 115.527 137.364 116.811 137.364C118.055 137.364 118.811 138.176 118.811 139.545V145H120.152V139.455C120.152 137.227 118.964 136.159 117.197 136.159C115.879 136.159 115.061 136.75 114.652 137.636H114.538V136.273H113.243V145H114.584V139.75ZM128.784 138.227C128.364 136.989 127.42 136.159 125.693 136.159C123.852 136.159 122.489 137.205 122.489 138.682C122.489 139.886 123.205 140.693 124.807 141.068L126.261 141.409C127.142 141.614 127.557 142.034 127.557 142.636C127.557 143.386 126.761 144 125.511 144C124.415 144 123.727 143.528 123.489 142.591L122.216 142.909C122.528 144.392 123.75 145.182 125.534 145.182C127.562 145.182 128.943 144.074 128.943 142.568C128.943 141.352 128.182 140.585 126.625 140.205L125.33 139.886C124.295 139.631 123.83 139.284 123.83 138.614C123.83 137.864 124.625 137.318 125.693 137.318C126.864 137.318 127.347 137.966 127.58 138.568L128.784 138.227ZM134.621 145.182C136.393 145.182 137.689 144.295 138.098 142.977L136.803 142.614C136.462 143.523 135.672 143.977 134.621 143.977C133.047 143.977 131.962 142.96 131.899 141.091H138.234V140.523C138.234 137.273 136.303 136.159 134.484 136.159C132.121 136.159 130.553 138.023 130.553 140.705C130.553 143.386 132.098 145.182 134.621 145.182ZM131.899 139.932C131.99 138.574 132.95 137.364 134.484 137.364C135.939 137.364 136.871 138.455 136.871 139.932H131.899ZM141.615 139.75C141.615 138.227 142.558 137.364 143.842 137.364C145.087 137.364 145.842 138.176 145.842 139.545V145H147.183V139.455C147.183 137.227 145.996 136.159 144.229 136.159C142.911 136.159 142.092 136.75 141.683 137.636H141.57V136.273H140.274V145H141.615V139.75ZM155.815 138.227C155.395 136.989 154.452 136.159 152.724 136.159C150.884 136.159 149.52 137.205 149.52 138.682C149.52 139.886 150.236 140.693 151.838 141.068L153.293 141.409C154.173 141.614 154.588 142.034 154.588 142.636C154.588 143.386 153.793 144 152.543 144C151.446 144 150.759 143.528 150.52 142.591L149.247 142.909C149.56 144.392 150.781 145.182 152.565 145.182C154.594 145.182 155.974 144.074 155.974 142.568C155.974 141.352 155.213 140.585 153.656 140.205L152.361 139.886C151.327 139.631 150.861 139.284 150.861 138.614C150.861 137.864 151.656 137.318 152.724 137.318C153.895 137.318 154.378 137.966 154.611 138.568L155.815 138.227ZM163.493 141.432C163.493 143.068 162.243 143.818 161.243 143.818C160.129 143.818 159.334 143 159.334 141.727V136.273H157.993V141.818C157.993 144.045 159.175 145.114 160.811 145.114C162.129 145.114 162.993 144.409 163.402 143.523H163.493V145H164.834V136.273H163.493V141.432ZM173.472 138.227C173.051 136.989 172.108 136.159 170.381 136.159C168.54 136.159 167.176 137.205 167.176 138.682C167.176 139.886 167.892 140.693 169.494 141.068L170.949 141.409C171.83 141.614 172.244 142.034 172.244 142.636C172.244 143.386 171.449 144 170.199 144C169.102 144 168.415 143.528 168.176 142.591L166.903 142.909C167.216 144.392 168.438 145.182 170.222 145.182C172.25 145.182 173.631 144.074 173.631 142.568C173.631 141.352 172.869 140.585 171.312 140.205L170.017 139.886C168.983 139.631 168.517 139.284 168.517 138.614C168.517 137.864 169.312 137.318 170.381 137.318C171.551 137.318 172.034 137.966 172.267 138.568L173.472 138.227ZM180.149 145H181.49V139.477C181.49 138.295 182.422 137.432 183.695 137.432C184.053 137.432 184.422 137.5 184.513 137.523V136.159C184.359 136.148 184.007 136.136 183.808 136.136C182.763 136.136 181.854 136.727 181.536 137.591H181.445V136.273H180.149V145ZM191.602 141.432C191.602 143.068 190.352 143.818 189.352 143.818C188.239 143.818 187.443 143 187.443 141.727V136.273H186.102V141.818C186.102 144.045 187.284 145.114 188.92 145.114C190.239 145.114 191.102 144.409 191.511 143.523H191.602V145H192.943V136.273H191.602V141.432ZM196.74 133.364H195.399V145H196.74V133.364ZM202.855 145.182C204.628 145.182 205.923 144.295 206.332 142.977L205.037 142.614C204.696 143.523 203.906 143.977 202.855 143.977C201.281 143.977 200.196 142.96 200.134 141.091H206.469V140.523C206.469 137.273 204.537 136.159 202.719 136.159C200.355 136.159 198.787 138.023 198.787 140.705C198.787 143.386 200.332 145.182 202.855 145.182ZM200.134 139.932C200.224 138.574 201.185 137.364 202.719 137.364C204.173 137.364 205.105 138.455 205.105 139.932H200.134ZM214.69 138.227C214.27 136.989 213.327 136.159 211.599 136.159C209.759 136.159 208.395 137.205 208.395 138.682C208.395 139.886 209.111 140.693 210.713 141.068L212.168 141.409C213.048 141.614 213.463 142.034 213.463 142.636C213.463 143.386 212.668 144 211.418 144C210.321 144 209.634 143.528 209.395 142.591L208.122 142.909C208.435 144.392 209.656 145.182 211.44 145.182C213.469 145.182 214.849 144.074 214.849 142.568C214.849 141.352 214.088 140.585 212.531 140.205L211.236 139.886C210.202 139.631 209.736 139.284 209.736 138.614C209.736 137.864 210.531 137.318 211.599 137.318C212.77 137.318 213.253 137.966 213.486 138.568L214.69 138.227ZM224.913 145.182C227.277 145.182 228.868 143.386 228.868 140.682C228.868 137.955 227.277 136.159 224.913 136.159C222.55 136.159 220.959 137.955 220.959 140.682C220.959 143.386 222.55 145.182 224.913 145.182ZM224.913 143.977C223.118 143.977 222.3 142.432 222.3 140.682C222.3 138.932 223.118 137.364 224.913 137.364C226.709 137.364 227.527 138.932 227.527 140.682C227.527 142.432 226.709 143.977 224.913 143.977ZM234.801 136.273H232.847V135.386C232.847 134.523 233.21 134.068 234.097 134.068C234.483 134.068 234.71 134.159 234.847 134.205L235.233 133.045C235.028 132.955 234.619 132.818 233.96 132.818C232.71 132.818 231.506 133.568 231.506 135.068V136.273H230.097V137.409H231.506V145H232.847V137.409H234.801V136.273ZM244.976 136.273H243.112V134.182H241.771V136.273H240.453V137.409H241.771V142.864C241.771 144.386 242.999 145.114 244.135 145.114C244.635 145.114 244.953 145.023 245.135 144.955L244.862 143.75C244.749 143.773 244.567 143.818 244.271 143.818C243.68 143.818 243.112 143.636 243.112 142.5V137.409H244.976V136.273ZM248.521 139.75C248.521 138.227 249.493 137.364 250.817 137.364C252.078 137.364 252.839 138.159 252.839 139.545V145H254.18V139.455C254.18 137.21 252.987 136.159 251.203 136.159C249.828 136.159 249.044 136.733 248.635 137.636H248.521V133.364H247.18V145H248.521V139.75ZM260.293 145.182C262.065 145.182 263.361 144.295 263.77 142.977L262.474 142.614C262.134 143.523 261.344 143.977 260.293 143.977C258.719 143.977 257.634 142.96 257.571 141.091H263.906V140.523C263.906 137.273 261.974 136.159 260.156 136.159C257.793 136.159 256.224 138.023 256.224 140.705C256.224 143.386 257.77 145.182 260.293 145.182ZM257.571 139.932C257.662 138.574 258.622 137.364 260.156 137.364C261.611 137.364 262.543 138.455 262.543 139.932H257.571ZM275.082 133.364V141.682C275.082 143.131 274.389 143.909 273.173 143.909C272.065 143.909 271.264 143.261 271.264 142.273H269.878C269.878 144.062 271.264 145.159 273.173 145.159C275.196 145.159 276.491 143.915 276.491 141.682V133.364H275.082ZM282.679 145.182C285.043 145.182 286.634 143.386 286.634 140.682C286.634 137.955 285.043 136.159 282.679 136.159C280.315 136.159 278.724 137.955 278.724 140.682C278.724 143.386 280.315 145.182 282.679 145.182ZM282.679 143.977C280.884 143.977 280.065 142.432 280.065 140.682C280.065 138.932 280.884 137.364 282.679 137.364C284.474 137.364 285.293 138.932 285.293 140.682C285.293 142.432 284.474 143.977 282.679 143.977ZM289.232 148.25C290.442 148.25 291.3 147.608 291.8 146.273L295.516 136.295L294.05 136.273L291.641 143.227H291.55L289.141 136.273H287.686L290.913 145.045L290.663 145.727C290.186 147.034 289.572 147.159 288.595 146.909L288.254 148.091C288.391 148.159 288.777 148.25 289.232 148.25ZM303.472 138.227C303.051 136.989 302.108 136.159 300.381 136.159C298.54 136.159 297.176 137.205 297.176 138.682C297.176 139.886 297.892 140.693 299.494 141.068L300.949 141.409C301.83 141.614 302.244 142.034 302.244 142.636C302.244 143.386 301.449 144 300.199 144C299.102 144 298.415 143.528 298.176 142.591L296.903 142.909C297.216 144.392 298.438 145.182 300.222 145.182C302.25 145.182 303.631 144.074 303.631 142.568C303.631 141.352 302.869 140.585 301.312 140.205L300.017 139.886C298.983 139.631 298.517 139.284 298.517 138.614C298.517 137.864 299.312 137.318 300.381 137.318C301.551 137.318 302.034 137.966 302.267 138.568L303.472 138.227ZM309.445 136.273H307.581V134.182H306.24V136.273H304.922V137.409H306.24V142.864C306.24 144.386 307.467 145.114 308.604 145.114C309.104 145.114 309.422 145.023 309.604 144.955L309.331 143.75C309.217 143.773 309.036 143.818 308.74 143.818C308.149 143.818 307.581 143.636 307.581 142.5V137.409H309.445V136.273ZM311.462 145H312.803V139.477C312.803 138.295 313.734 137.432 315.007 137.432C315.365 137.432 315.734 137.5 315.825 137.523V136.159C315.672 136.148 315.32 136.136 315.121 136.136C314.075 136.136 313.166 136.727 312.848 137.591H312.757V136.273H311.462V145ZM320.808 145.182C322.581 145.182 323.876 144.295 324.286 142.977L322.99 142.614C322.649 143.523 321.859 143.977 320.808 143.977C319.234 143.977 318.149 142.96 318.087 141.091H324.422V140.523C324.422 137.273 322.49 136.159 320.672 136.159C318.308 136.159 316.74 138.023 316.74 140.705C316.74 143.386 318.286 145.182 320.808 145.182ZM318.087 139.932C318.178 138.574 319.138 137.364 320.672 137.364C322.126 137.364 323.058 138.455 323.058 139.932H318.087ZM329.03 145.205C330.553 145.205 331.348 144.386 331.621 143.818H331.689V145H333.03V139.25C333.03 136.477 330.916 136.159 329.803 136.159C328.484 136.159 326.984 136.614 326.303 138.205L327.575 138.659C327.871 138.023 328.57 137.341 329.848 137.341C331.081 137.341 331.689 137.994 331.689 139.114V139.159C331.689 139.807 331.03 139.75 329.439 139.955C327.82 140.165 326.053 140.523 326.053 142.523C326.053 144.227 327.371 145.205 329.03 145.205ZM329.234 144C328.166 144 327.393 143.523 327.393 142.591C327.393 141.568 328.325 141.25 329.371 141.114C329.939 141.045 331.462 140.886 331.689 140.614V141.841C331.689 142.932 330.825 144 329.234 144ZM335.477 145H336.818V139.545C336.818 138.267 337.75 137.364 338.795 137.364C339.812 137.364 340.523 138.028 340.523 139.023V145H341.886V139.318C341.886 138.193 342.591 137.364 343.818 137.364C344.773 137.364 345.591 137.869 345.591 139.159V145H346.932V139.159C346.932 137.108 345.83 136.159 344.273 136.159C343.023 136.159 342.108 136.733 341.659 137.636H341.568C341.136 136.705 340.375 136.159 339.227 136.159C338.091 136.159 337.25 136.705 336.886 137.636H336.773V136.273H335.477V145ZM353.884 148.273H355.224V143.659H355.338C355.634 144.136 356.202 145.182 357.884 145.182C360.065 145.182 361.588 143.432 361.588 140.659C361.588 137.909 360.065 136.159 357.861 136.159C356.156 136.159 355.634 137.205 355.338 137.659H355.179V136.273H353.884V148.273ZM355.202 140.636C355.202 138.682 356.065 137.364 357.702 137.364C359.406 137.364 360.247 138.795 360.247 140.636C360.247 142.5 359.384 143.977 357.702 143.977C356.088 143.977 355.202 142.614 355.202 140.636ZM363.634 145H364.974V139.477C364.974 138.295 365.906 137.432 367.179 137.432C367.537 137.432 367.906 137.5 367.997 137.523V136.159C367.844 136.148 367.491 136.136 367.293 136.136C366.247 136.136 365.338 136.727 365.02 137.591H364.929V136.273H363.634V145ZM372.866 145.182C375.23 145.182 376.821 143.386 376.821 140.682C376.821 137.955 375.23 136.159 372.866 136.159C370.503 136.159 368.912 137.955 368.912 140.682C368.912 143.386 370.503 145.182 372.866 145.182ZM372.866 143.977C371.071 143.977 370.253 142.432 370.253 140.682C370.253 138.932 371.071 137.364 372.866 137.364C374.662 137.364 375.48 138.932 375.48 140.682C375.48 142.432 374.662 143.977 372.866 143.977ZM382.663 136.273H380.8V134.182H379.459V136.273H378.141V137.409H379.459V142.864C379.459 144.386 380.686 145.114 381.822 145.114C382.322 145.114 382.641 145.023 382.822 144.955L382.55 143.75C382.436 143.773 382.254 143.818 381.959 143.818C381.368 143.818 380.8 143.636 380.8 142.5V137.409H382.663V136.273ZM388.132 145.182C390.496 145.182 392.087 143.386 392.087 140.682C392.087 137.955 390.496 136.159 388.132 136.159C385.768 136.159 384.178 137.955 384.178 140.682C384.178 143.386 385.768 145.182 388.132 145.182ZM388.132 143.977C386.337 143.977 385.518 142.432 385.518 140.682C385.518 138.932 386.337 137.364 388.132 137.364C389.928 137.364 390.746 138.932 390.746 140.682C390.746 142.432 389.928 143.977 388.132 143.977ZM397.679 145.182C399.611 145.182 400.884 144 401.111 142.455H399.77C399.52 143.409 398.724 143.977 397.679 143.977C396.088 143.977 395.065 142.659 395.065 140.636C395.065 138.659 396.111 137.364 397.679 137.364C398.861 137.364 399.565 138.091 399.77 138.886H401.111C400.884 137.25 399.497 136.159 397.656 136.159C395.293 136.159 393.724 138.023 393.724 140.682C393.724 143.295 395.224 145.182 397.679 145.182ZM406.616 145.182C408.98 145.182 410.571 143.386 410.571 140.682C410.571 137.955 408.98 136.159 406.616 136.159C404.253 136.159 402.662 137.955 402.662 140.682C402.662 143.386 404.253 145.182 406.616 145.182ZM406.616 143.977C404.821 143.977 404.003 142.432 404.003 140.682C404.003 138.932 404.821 137.364 406.616 137.364C408.412 137.364 409.23 138.932 409.23 140.682C409.23 142.432 408.412 143.977 406.616 143.977ZM413.959 133.364H412.618V145H413.959V133.364Z" fill="#C4C3C6"/>
<path d="M657.5 133.3C672.2 126.5 685.5 117.1 698.7 107.8C699.4 100.1 699.4 91.3 699.4 82.8C679.5 92.4 660.1 105.6 641.5 117.5C640.1 118.4 638.5 119.4 636.9 119.2C635.9 119.1 634.9 118.6 634 118.1C617.3 108.9 605.9 102.7 594.3 96.3C603.5 90.3 613 84.9 622.8 80C619.7 77 616.4 74.2 612.9 71.7C612 71 610.9 70.3 609.8 70.3C608.8 70.2 607.8 70.7 606.8 71.2C595.4 76.9 584.1 82.7 572.8 88.4C573.2 97 566.8 107.2 567.3 115.7C581.6 121.5 597.9 129.3 612.3 135.1C601.7 141.8 596.5 145.1 585.8 151.9C582.4 154.1 576.5 156.7 574.6 160.2C572.5 164.1 572.6 168.8 572.8 173.3C573 177.2 572 179.2 574.6 182.1C576.5 184.3 581.5 185.1 584.2 186.1C595.3 190.4 593.8 191.6 604.9 195.9C591.8 203.3 591.7 203.2 578.6 210.6C576.6 211.7 569.8 215.7 569.2 217C568.5 218.4 569.7 228.5 569.7 230.1C569.6 233.8 569.7 241.8 570.4 245.7C570.7 247.3 576.1 249 577.6 248.4C596.1 240.3 612.8 232.3 631.1 222.7C632.4 222 634.8 222.2 636.2 222.3C637.1 222.4 638 222.8 638.9 223.1C651.5 228.9 653.5 229.7 664.9 235.4C665.3 235.6 665.3 236.1 665 236.4C654.6 243.7 650.7 247.1 640.1 254C639.4 254.5 639.5 255.5 640.2 255.9C646.6 259.5 657.2 266.7 663.4 269.4C664.5 269.9 665.7 269.8 666.7 269.2C677 263.2 689 255.8 698.8 248.9C699.5 248.4 699.9 247.5 699.9 246.6C699.5 240.2 700 229.9 699.8 224.8C699.8 224.2 699.4 223.6 698.9 223.3C685.8 215.6 673.2 210.1 660.1 202.3C673.6 192.9 684.2 185 698.8 177.3C698.5 170.5 698.7 163.7 699.5 157C685.8 148.2 671.9 140.3 657.5 133.3ZM677.6 168.7C664 176.9 650.4 185.1 636.8 193.2C636.4 193.5 635.9 193.8 635.3 193.7C634.8 193.7 634.3 193.4 633.9 193.1C615.5 181.5 603.9 174.2 597.1 169.9C595.9 169.2 596 167.5 597.1 166.8C603.5 163 609.8 159.2 616.2 155.5C619.8 153.4 623.4 151.2 627 149.1C629.6 147.6 633.7 143.9 636.7 143.8C639.5 143.7 643.8 147.3 646.3 148.7C650 150.7 653.7 152.7 657.4 154.7C661.1 156.7 664.8 158.7 668.5 160.7C670.8 161.9 677.7 164.3 678.8 166.4C679.4 167.3 678.4 168.2 677.6 168.7Z" fill="black"/>
<path d="M617.8 195.6C618.2 195.8 618.2 196.3 617.8 196.5C606 203.2 594.1 209.9 582.3 216.5C580.5 217.5 576.2 218.8 575.2 220.7C574.5 222 575.2 223.9 575.2 225.3C575.1 228.9 575.4 234.6 575.9 238.2C576 239.2 578.6 240.1 579.4 239.8C596.5 232.3 613.8 220.9 630 211.7C631.2 211 632.5 210.3 633.8 210.4C634.7 210.5 635.5 210.8 636.2 211.2C647.7 216.5 665.9 227.7 677.9 233.2C678.4 233.4 678.5 234.1 678.1 234.4C669.9 240.8 659.9 247.9 649.9 254.5C649.2 254.9 653.7 257.2 653.7 257.2C653.7 257.2 657.1 256.5 661.1 258.3C662.4 258.9 663.9 258.8 665.1 258.1C674.6 252.6 683 246.8 692.2 240.4C692.4 235.7 693 232 693 232L689.4 226.6C689.4 226.6 654.6 210.6 642.2 203.2C654.7 194.5 678.8 181 692.2 173.9C692.8 169.3 694.3 158 694.3 158C694.3 158 688.2 157.7 685.4 154.8C673.1 146.8 658.6 144 651.3 134C665.1 125.4 680.4 116 692.5 108.5C693.1 101.4 694.4 89.6998 694.4 89.6998L690.1 87.8998C690.1 87.8998 653.8 109.7 637.6 120C636.3 120.8 634.9 121.7 633.3 121.6C632.3 121.5 630.4 122.6 629.5 122.2C617.7 115.7 605.9 110.7 594.1 104.2C593.7 104 595.6 100.1 596.1 99.7998C603.7 94.8998 610.2 88.4998 618.5 86.0998C619.2 85.8998 614.5 77.6998 614 76.4998L609.3 74.2998C608.1 74.7998 599.5 79.5998 598.6 79.9998C588.1 85.2998 585.8 86.6998 575.3 91.9998C575.7 99.8998 574.7 104.1 575.1 111.9C575.5 112.1 577 112.7 577.5 112.9C589.8 119.1 604.9 126.7 617.7 131.8C607.9 138 598.1 144.2 588.3 150.4C585.1 152.4 574.8 158 574.7 159.2C574.7 160.1 574.6 163.5 574.8 167.5C575 171.1 574.6 170.5 574.9 174L577.7 175.3L617.8 195.6ZM672.9 166C660.4 173.5 646.8 181.1 634.3 188.6C633.9 188.8 632.2 189.7 631.7 189.7C631.2 189.7 630.8 189.4 630.4 189.2C619.1 182.1 610.1 176.3 598.8 169.2C597.7 168.5 597.8 167 598.8 166.3C604.7 162.8 610.5 159.3 616.4 155.9C619.7 153.9 623 152 626.4 150C628.8 148.6 633.8 145.1 635.3 145.1C636.3 145.1 641.9 146.4 644.2 147.6C647.6 149.4 651 151.3 654.4 153.2C657.8 155.1 661.2 156.9 664.6 158.8C666.7 159.9 673.1 162 674.1 164C674.5 164.7 673.7 165.5 672.9 166Z" fill="white"/>
<path d="M617.2 199.3C617.6 199.5 617.6 200 617.2 200.2C605.4 206.9 595.5 212.6 583.7 219.2C581.9 220.2 579.1 221.1 578.1 222.9C577.4 224.2 578.2 226 578.2 227.5C578.1 231.1 578.3 235 578.7 238.6C578.8 239.6 579.8 240.1 580.7 239.8C597.8 232.3 615.2 223.6 631.5 214.4C632.7 213.7 634 213 635.3 213.1C636.2 213.2 637 213.5 637.7 213.9C649.2 219.2 667.4 230.4 679.4 235.9C679.9 236.1 680 236.8 679.6 237.1C670.9 244.2 663.8 249.4 654 255.5C653.3 255.9 653.4 256.9 654.1 257.3C658.1 259.1 658.7 259.2 662.6 261C663.9 261.6 665.4 261.5 666.6 260.8C676.1 255.3 684.5 249.5 693.7 243.1C694 236.9 693.5 235.5 693.6 228.4C681.2 221.1 660.8 210.6 648.4 203.3C660.9 194.6 680.2 183.8 693.6 176.6C694.5 170.2 694.5 164.3 694.3 157.9C681.4 150 668 141.7 655.2 134.9C669 126.3 681.9 118.8 694 111.3C694.6 104.2 694.5 97.5004 694.5 89.7004C676.2 98.5004 658.4 110.7 641.2 121.6C639.9 122.4 638.5 123.3 636.9 123.2C635.9 123.1 635.1 122.6 634.2 122.2C622.4 115.7 610.5 109.2 598.7 102.6C598.3 102.4 598.2 101.7 598.7 101.4C606.9 96.1004 615.3 91.3004 624 87.0004L614 76.4004C613 76.4004 610 78.4004 609.1 78.8004C598.6 84.1004 588.2 89.4004 577.8 94.7004C578.2 102.6 577.1 105 577.5 112.9C590 119 605.8 129.2 619 134.6C609.2 140.8 599.4 147 589.6 153.2C586.4 155.2 577.7 160.8 577.7 162C577.7 162.9 577.4 166.6 577.6 170.7C577.8 174.3 577.4 171.9 577.7 175.4L617.2 199.3ZM673.5 169.2C661 176.7 649.2 182.8 636.7 190.3C636.3 190.5 635.8 190.8 635.4 190.8C634.9 190.8 634.5 190.5 634.1 190.3C622.8 183.2 612.5 176.1 601.2 169C600.1 168.3 600.2 166.8 601.2 166.1C607.1 162.6 611.9 160.1 617.8 156.7C621.1 154.7 624.4 152.8 627.8 150.8C630.2 149.4 635.2 145.9 636.7 145.9C637.7 145.9 643.3 149.2 645.6 150.4C649 152.2 652.4 154.1 655.8 156C659.2 157.9 662.6 159.7 666 161.6C668.1 162.7 674.1 165.1 675.2 167.1C675.6 167.7 674.3 168.7 673.5 169.2Z" fill="#D3D8E0"/>
<path d="M693.3 114.3L684.3 104.8L687.4 117.1L678.8 109.7L682.8 119.3" fill="black"/>
<path d="M618.3 223.8L614 215L620.3 222.5L619 215L623 222L618.3 223.8Z" fill="black"/>
<path d="M602.7 129.8L606.6 117.3L605.9 130.4L611.4 121.9L608.9 132.4L602.7 129.8Z" fill="black"/>
<path d="M659.8 202.3L651.3 183.3L661.3 198.1L659.2 185.5L665.4 199.1L659.8 202.3Z" fill="black"/>
<path d="M610.6 164.5L605.9 154.8L612.6 162.7L610.6 164.5Z" fill="black"/>
<path d="M684 184.5L679.3 174.7L686.1 182.6L684 184.5Z" fill="black"/>
<path d="M590.8 155.3C591 155.2 591.3 155 591.5 155C591.9 155 592.2 155.4 592.3 155.7C593.1 157.4 592 159.5 590.7 160.8C589.3 162.1 587.6 163.2 586.7 164.8C586.2 165.7 585.9 166.8 585.7 167.8C585.4 169.3 585.1 170.8 584.7 172.3C582.7 172.5 581.4 170.3 581.2 168.3C580.9 161.4 585.1 158.7 590.8 155.3Z" fill="white"/>
<path d="M580.6 226.3C580.5 224.8 581.4 223.5 582.6 222.6C583.8 221.7 585.2 221.2 586.5 220.8C587.2 220.6 588 220.3 588.7 220.4C589.4 220.5 590.2 221 590.3 221.8C590.4 222.9 589.2 223.6 588.2 224.2C584.6 226.4 583 231.3 584.5 235.2C583.8 236 582.5 235.9 581.7 235.3C580.9 234.7 580.4 233.7 580.1 232.7C579.3 230 579.6 227 580.8 224.4" fill="white"/>
<path d="M583.4 95.5C582.5 96.1 581.5 96.7 581 97.7C580.8 98.2 580.7 98.8 580.6 99.3C580.3 101.6 580.1 104 581.3 106C582.1 106 583.1 106.3 583.6 105.7C583.8 105.4 583.9 105 583.9 104.7C584 103.7 584.2 102.7 584.5 101.8C585.3 99.8 587.1 98.4 588.9 97.1C589.6 96.6 590.4 96 590.8 95.1C591.1 94.4 591 93.1 590.5 92.5C589.7 91.4 589.7 91.8 588.6 92.4C586.7 93.2 585.1 94.5 583.4 95.5Z" fill="white"/>
</g>
<defs>
<clipPath id="clip0">
<rect width="882" height="300" fill="white"/>
</clipPath>
</defs>
</svg>
