<svg width="882" height="300" viewBox="0 0 882 300" fill="none" xmlns="http://www.w3.org/2000/svg">
<g clip-path="url(#clip0)">
<rect width="882" height="300" fill="white"/>
<rect width="882" height="210" fill="#E9ECF0"/>
<path d="M64.4062 101V68.3516H76.7578C78.7109 68.3516 80.2969 68.5391 81.5156 68.9141C82.75 69.2734 83.8047 69.9062 84.6797 70.8125C85.5078 71.6719 86.0938 72.75 86.4375 74.0469C86.7969 75.3438 86.9766 76.7578 86.9766 78.2891C86.9766 79.7891 86.7578 81.2109 86.3203 82.5547C85.8984 83.8828 85.2188 85.0078 84.2812 85.9297C82.4844 87.6953 79.9922 88.5781 76.8047 88.5781H68.9766V101H64.4062ZM68.9766 84.4766H78.5391C79.6328 84.4766 80.5078 84.125 81.1641 83.4219C81.8359 82.7188 82.1719 81.8281 82.1719 80.75V75.9922C82.1719 74.8984 81.8516 74.0312 81.2109 73.3906C80.5703 72.75 79.6797 72.4297 78.5391 72.4297H68.9766V84.4766ZM92.9062 101V76.5312H104.672V80.2578H97.2188V101H92.9062ZM108.773 88.7656C108.773 86.9062 108.992 85.1875 109.43 83.6094C109.883 82.0156 110.562 80.6641 111.469 79.5547C112.391 78.4297 113.539 77.5469 114.914 76.9062C116.289 76.2656 117.906 75.9453 119.766 75.9453C121.625 75.9453 123.242 76.2656 124.617 76.9062C125.992 77.5469 127.133 78.4297 128.039 79.5547C128.945 80.6641 129.625 82.0156 130.078 83.6094C130.531 85.1875 130.758 86.9062 130.758 88.7656C130.758 90.6562 130.531 92.3828 130.078 93.9453C129.625 95.5078 128.945 96.8516 128.039 97.9766C127.133 99.1016 125.984 99.9844 124.594 100.625C123.219 101.266 121.609 101.586 119.766 101.586C117.906 101.586 116.289 101.266 114.914 100.625C113.539 99.9844 112.391 99.1016 111.469 97.9766C110.562 96.8516 109.883 95.5078 109.43 93.9453C108.992 92.3828 108.773 90.6562 108.773 88.7656ZM113.32 92.5625C113.32 93.3906 113.492 94.1484 113.836 94.8359C114.195 95.5234 114.664 96.1094 115.242 96.5938C115.82 97.0625 116.5 97.4375 117.281 97.7188C118.062 97.9844 118.891 98.1172 119.766 98.1172C120.625 98.1172 121.445 97.9844 122.227 97.7188C123.008 97.4375 123.688 97.0625 124.266 96.5938C124.844 96.1094 125.305 95.5234 125.648 94.8359C126.008 94.1484 126.188 93.3906 126.188 92.5625V84.9688C126.188 84.1406 126.008 83.3828 125.648 82.6953C125.305 82.0078 124.844 81.4219 124.266 80.9375C123.688 80.4531 123.008 80.0781 122.227 79.8125C121.445 79.5312 120.625 79.3906 119.766 79.3906C118.906 79.3906 118.078 79.5312 117.281 79.8125C116.5 80.0781 115.82 80.4531 115.242 80.9375C114.664 81.4219 114.195 82.0078 113.836 82.6953C113.492 83.3828 113.32 84.1406 113.32 84.9688V92.5625ZM132.352 105.453H138.023V76.5312H142.336V109.156H132.352V105.453ZM137.906 72.875V68.3516H142.43V72.875H137.906ZM148.992 88.7656C148.992 86.9062 149.219 85.1875 149.672 83.6094C150.141 82.0156 150.828 80.6641 151.734 79.5547C152.656 78.4297 153.766 77.5469 155.062 76.9062C156.359 76.2656 157.852 75.9453 159.539 75.9453C161.305 75.9453 162.844 76.25 164.156 76.8594C165.469 77.4688 166.555 78.3047 167.414 79.3672C168.273 80.4141 168.922 81.6484 169.359 83.0703C169.797 84.4922 170.016 86.0234 170.016 87.6641V89.9609H153.539V92.5625C153.539 93.4531 153.703 94.2422 154.031 94.9297C154.375 95.6172 154.836 96.2031 155.414 96.6875C155.992 97.1562 156.641 97.5156 157.359 97.7656C158.078 98 158.82 98.1172 159.586 98.1172C161.117 98.1172 162.445 97.7266 163.57 96.9453C164.695 96.1641 165.336 94.9219 165.492 93.2188H169.828C169.734 94.5312 169.391 95.7031 168.797 96.7344C168.203 97.75 167.43 98.6172 166.477 99.3359C165.539 100.055 164.477 100.609 163.289 101C162.102 101.391 160.852 101.586 159.539 101.586C157.773 101.586 156.227 101.266 154.898 100.625C153.586 99.9844 152.484 99.1016 151.594 97.9766C150.719 96.8516 150.062 95.5078 149.625 93.9453C149.203 92.3828 148.992 90.6562 148.992 88.7656ZM153.539 86.5156H165.539V85.1562C165.539 84.2656 165.375 83.4609 165.047 82.7422C164.734 82.0234 164.297 81.4141 163.734 80.9141C163.188 80.4141 162.547 80.0391 161.812 79.7891C161.094 79.5234 160.336 79.3906 159.539 79.3906C158.742 79.3906 157.984 79.5234 157.266 79.7891C156.547 80.0391 155.906 80.4141 155.344 80.9141C154.781 81.4141 154.336 82.0234 154.008 82.7422C153.695 83.4609 153.539 84.2656 153.539 85.1562V86.5156ZM175.336 88.9531C175.336 87 175.562 85.2188 176.016 83.6094C176.484 81.9844 177.164 80.6172 178.055 79.5078C178.961 78.3828 180.07 77.5078 181.383 76.8828C182.695 76.2578 184.18 75.9453 185.836 75.9453C187.117 75.9453 188.328 76.1172 189.469 76.4609C190.609 76.7891 191.609 77.3047 192.469 78.0078C193.328 78.7109 194.031 79.6094 194.578 80.7031C195.125 81.7812 195.461 83.0625 195.586 84.5469H191.273C191.18 83.5625 190.969 82.7422 190.641 82.0859C190.328 81.4141 189.914 80.8828 189.398 80.4922C188.883 80.0859 188.297 79.8047 187.641 79.6484C186.984 79.4766 186.305 79.3906 185.602 79.3906C184.867 79.3906 184.164 79.5156 183.492 79.7656C182.82 80 182.211 80.3594 181.664 80.8438C181.117 81.3281 180.68 81.9297 180.352 82.6484C180.039 83.3672 179.883 84.2031 179.883 85.1562V92.3516C179.883 93.2109 180.031 94.0078 180.328 94.7422C180.641 95.4609 181.062 96.0703 181.594 96.5703C182.125 97.0547 182.734 97.4375 183.422 97.7188C184.109 97.9844 184.852 98.1172 185.648 98.1172C187.242 98.1172 188.57 97.6875 189.633 96.8281C190.695 95.9688 191.305 94.625 191.461 92.7969H195.773C195.617 94.2969 195.234 95.6016 194.625 96.7109C194.016 97.8047 193.258 98.7188 192.352 99.4531C191.461 100.172 190.445 100.703 189.305 101.047C188.18 101.406 186.992 101.586 185.742 101.586C183.945 101.586 182.398 101.273 181.102 100.648C179.82 100.023 178.742 99.1406 177.867 98C177.008 96.8594 176.367 95.5234 175.945 93.9922C175.539 92.4609 175.336 90.7812 175.336 88.9531ZM199.875 80.2109V76.5312H204V68.3516H208.266V76.5312H213.891V80.2109H208.266V97.2969H213.891V101H204V80.2109H199.875ZM232.5 101V68.3516H239.719L248.062 93.5703H248.25L256.547 68.3516H263.672V101H259.383V73.2031H259.195L249.938 101H246.281L236.977 73.2031H236.789V101H232.5ZM270.516 94.2734C270.516 92.3516 271.125 90.7031 272.344 89.3281C273.562 87.9531 275.391 87.1562 277.828 86.9375L285.797 86.2109V84.2422C285.797 83.2891 285.672 82.5 285.422 81.875C285.188 81.25 284.844 80.7578 284.391 80.3984C283.953 80.0234 283.422 79.7656 282.797 79.625C282.172 79.4688 281.477 79.3906 280.711 79.3906C279.18 79.3906 277.953 79.7344 277.031 80.4219C276.125 81.1094 275.672 82.2422 275.672 83.8203H271.336C271.336 82.6641 271.586 81.6094 272.086 80.6562C272.586 79.6875 273.258 78.8516 274.102 78.1484C274.945 77.4453 275.938 76.9062 277.078 76.5312C278.219 76.1406 279.445 75.9453 280.758 75.9453C282.07 75.9453 283.289 76.1172 284.414 76.4609C285.555 76.7891 286.539 77.2891 287.367 77.9609C288.211 78.6328 288.859 79.5 289.312 80.5625C289.781 81.6094 290.016 82.8516 290.016 84.2891V97.2969H293.672V101H286.359L286.266 96.4766H286.078C285.406 98.2109 284.414 99.5 283.102 100.344C281.789 101.172 280.219 101.586 278.391 101.586C277.172 101.586 276.07 101.398 275.086 101.023C274.102 100.648 273.25 100.094 272.531 99.3594C271.891 98.7188 271.391 97.9531 271.031 97.0625C270.688 96.1719 270.516 95.2422 270.516 94.2734ZM275.086 94.8594C275.086 95.9844 275.477 96.8125 276.258 97.3438C277.039 97.8594 278.117 98.1172 279.492 98.1172C281.445 98.1172 282.984 97.4219 284.109 96.0312C285.234 94.6406 285.797 92.8438 285.797 90.6406V89.5391L277.102 90.3359C276.211 90.3984 275.648 90.6328 275.414 91.0391C275.195 91.4453 275.086 92 275.086 92.7031V94.8594ZM298.5 101V76.5312H302.812V80.5625C303.484 79.125 304.406 78 305.578 77.1875C306.75 76.3594 308.266 75.9453 310.125 75.9453C311.312 75.9453 312.391 76.1094 313.359 76.4375C314.328 76.75 315.164 77.2578 315.867 77.9609C316.57 78.6641 317.117 79.5703 317.508 80.6797C317.898 81.7734 318.094 83.1094 318.094 84.6875V101H313.758V85.1562C313.758 83.3594 313.414 81.9531 312.727 80.9375C312.039 79.9062 310.766 79.3906 308.906 79.3906C308.016 79.3906 307.203 79.5703 306.469 79.9297C305.734 80.2734 305.094 80.7734 304.547 81.4297C304 82.0859 303.57 82.8672 303.258 83.7734C302.961 84.6641 302.812 85.6406 302.812 86.7031V101H298.5ZM324.328 94.2734C324.328 92.3516 324.938 90.7031 326.156 89.3281C327.375 87.9531 329.203 87.1562 331.641 86.9375L339.609 86.2109V84.2422C339.609 83.2891 339.484 82.5 339.234 81.875C339 81.25 338.656 80.7578 338.203 80.3984C337.766 80.0234 337.234 79.7656 336.609 79.625C335.984 79.4688 335.289 79.3906 334.523 79.3906C332.992 79.3906 331.766 79.7344 330.844 80.4219C329.938 81.1094 329.484 82.2422 329.484 83.8203H325.148C325.148 82.6641 325.398 81.6094 325.898 80.6562C326.398 79.6875 327.07 78.8516 327.914 78.1484C328.758 77.4453 329.75 76.9062 330.891 76.5312C332.031 76.1406 333.258 75.9453 334.57 75.9453C335.883 75.9453 337.102 76.1172 338.227 76.4609C339.367 76.7891 340.352 77.2891 341.18 77.9609C342.023 78.6328 342.672 79.5 343.125 80.5625C343.594 81.6094 343.828 82.8516 343.828 84.2891V97.2969H347.484V101H340.172L340.078 96.4766H339.891C339.219 98.2109 338.227 99.5 336.914 100.344C335.602 101.172 334.031 101.586 332.203 101.586C330.984 101.586 329.883 101.398 328.898 101.023C327.914 100.648 327.062 100.094 326.344 99.3594C325.703 98.7188 325.203 97.9531 324.844 97.0625C324.5 96.1719 324.328 95.2422 324.328 94.2734ZM328.898 94.8594C328.898 95.9844 329.289 96.8125 330.07 97.3438C330.852 97.8594 331.93 98.1172 333.305 98.1172C335.258 98.1172 336.797 97.4219 337.922 96.0312C339.047 94.6406 339.609 92.8438 339.609 90.6406V89.5391L330.914 90.3359C330.023 90.3984 329.461 90.6328 329.227 91.0391C329.008 91.4453 328.898 92 328.898 92.7031V94.8594ZM351.07 88.7656C351.07 87 351.266 85.3359 351.656 83.7734C352.062 82.1953 352.664 80.8359 353.461 79.6953C354.258 78.5391 355.266 77.625 356.484 76.9531C357.703 76.2812 359.125 75.9453 360.75 75.9453C362.578 75.9453 364.148 76.3359 365.461 77.1172C366.773 77.8984 367.812 79.0312 368.578 80.5156V76.5312H372.914V100.531C372.914 102.234 372.609 103.695 372 104.914C371.391 106.148 370.586 107.172 369.586 107.984C368.602 108.797 367.477 109.391 366.211 109.766C364.945 110.156 363.656 110.352 362.344 110.352C361.062 110.352 359.836 110.227 358.664 109.977C357.508 109.727 356.453 109.305 355.5 108.711C354.562 108.117 353.781 107.328 353.156 106.344C352.531 105.375 352.125 104.156 351.938 102.688H356.25C356.406 104.094 357 105.148 358.031 105.852C359.078 106.555 360.453 106.906 362.156 106.906C362.984 106.906 363.789 106.781 364.57 106.531C365.352 106.297 366.039 105.914 366.633 105.383C367.227 104.867 367.695 104.188 368.039 103.344C368.398 102.516 368.578 101.508 368.578 100.32V97.0156C367.812 98.4844 366.789 99.6172 365.508 100.414C364.227 101.195 362.68 101.586 360.867 101.586C359.211 101.586 357.766 101.25 356.531 100.578C355.312 99.9062 354.297 98.9922 353.484 97.8359C352.672 96.6797 352.062 95.3281 351.656 93.7812C351.266 92.2188 351.07 90.5469 351.07 88.7656ZM355.617 92.5625C355.617 93.3906 355.773 94.1484 356.086 94.8359C356.414 95.5234 356.859 96.1094 357.422 96.5938C357.984 97.0625 358.641 97.4375 359.391 97.7188C360.141 97.9844 360.969 98.1172 361.875 98.1172C364.047 98.1172 365.703 97.4297 366.844 96.0547C368 94.6797 368.578 92.9375 368.578 90.8281V86.7031C368.578 84.5938 368 82.8516 366.844 81.4766C365.703 80.0859 364.047 79.3906 361.875 79.3906C360.984 79.3906 360.156 79.5312 359.391 79.8125C358.641 80.0781 357.984 80.4531 357.422 80.9375C356.859 81.4219 356.414 82.0078 356.086 82.6953C355.773 83.3828 355.617 84.1406 355.617 84.9688V92.5625ZM379.57 88.7656C379.57 86.9062 379.797 85.1875 380.25 83.6094C380.719 82.0156 381.406 80.6641 382.312 79.5547C383.234 78.4297 384.344 77.5469 385.641 76.9062C386.938 76.2656 388.43 75.9453 390.117 75.9453C391.883 75.9453 393.422 76.25 394.734 76.8594C396.047 77.4688 397.133 78.3047 397.992 79.3672C398.852 80.4141 399.5 81.6484 399.938 83.0703C400.375 84.4922 400.594 86.0234 400.594 87.6641V89.9609H384.117V92.5625C384.117 93.4531 384.281 94.2422 384.609 94.9297C384.953 95.6172 385.414 96.2031 385.992 96.6875C386.57 97.1562 387.219 97.5156 387.938 97.7656C388.656 98 389.398 98.1172 390.164 98.1172C391.695 98.1172 393.023 97.7266 394.148 96.9453C395.273 96.1641 395.914 94.9219 396.07 93.2188H400.406C400.312 94.5312 399.969 95.7031 399.375 96.7344C398.781 97.75 398.008 98.6172 397.055 99.3359C396.117 100.055 395.055 100.609 393.867 101C392.68 101.391 391.43 101.586 390.117 101.586C388.352 101.586 386.805 101.266 385.477 100.625C384.164 99.9844 383.062 99.1016 382.172 97.9766C381.297 96.8516 380.641 95.5078 380.203 93.9453C379.781 92.3828 379.57 90.6562 379.57 88.7656ZM384.117 86.5156H396.117V85.1562C396.117 84.2656 395.953 83.4609 395.625 82.7422C395.312 82.0234 394.875 81.4141 394.312 80.9141C393.766 80.4141 393.125 80.0391 392.391 79.7891C391.672 79.5234 390.914 79.3906 390.117 79.3906C389.32 79.3906 388.562 79.5234 387.844 79.7891C387.125 80.0391 386.484 80.4141 385.922 80.9141C385.359 81.4141 384.914 82.0234 384.586 82.7422C384.273 83.4609 384.117 84.2656 384.117 85.1562V86.5156ZM407.156 101V76.5312H411.469V80.5625C412.016 79.2188 412.859 78.1172 414 77.2578C415.141 76.3828 416.57 75.9453 418.289 75.9453C419.914 75.9453 421.352 76.3516 422.602 77.1641C423.852 77.9766 424.75 79.25 425.297 80.9844C425.812 79.5469 426.688 78.3516 427.922 77.3984C429.156 76.4297 430.68 75.9453 432.492 75.9453C433.555 75.9453 434.547 76.1094 435.469 76.4375C436.406 76.75 437.219 77.2578 437.906 77.9609C438.594 78.6641 439.125 79.5703 439.5 80.6797C439.891 81.7734 440.086 83.1094 440.086 84.6875V101H435.773V85.1562C435.773 83.3594 435.43 81.9531 434.742 80.9375C434.055 79.9062 432.906 79.3906 431.297 79.3906C430.531 79.3906 429.82 79.5703 429.164 79.9297C428.508 80.2734 427.922 80.7734 427.406 81.4297C426.891 82.0859 426.492 82.8672 426.211 83.7734C425.93 84.6641 425.789 85.6406 425.789 86.7031V101H421.453V85.1562C421.453 83.3594 421.109 81.9531 420.422 80.9375C419.734 79.9062 418.594 79.3906 417 79.3906C416.234 79.3906 415.523 79.5703 414.867 79.9297C414.211 80.2734 413.625 80.7734 413.109 81.4297C412.594 82.0859 412.188 82.8672 411.891 83.7734C411.609 84.6641 411.469 85.6406 411.469 86.7031V101H407.156ZM446.555 88.7656C446.555 86.9062 446.781 85.1875 447.234 83.6094C447.703 82.0156 448.391 80.6641 449.297 79.5547C450.219 78.4297 451.328 77.5469 452.625 76.9062C453.922 76.2656 455.414 75.9453 457.102 75.9453C458.867 75.9453 460.406 76.25 461.719 76.8594C463.031 77.4688 464.117 78.3047 464.977 79.3672C465.836 80.4141 466.484 81.6484 466.922 83.0703C467.359 84.4922 467.578 86.0234 467.578 87.6641V89.9609H451.102V92.5625C451.102 93.4531 451.266 94.2422 451.594 94.9297C451.938 95.6172 452.398 96.2031 452.977 96.6875C453.555 97.1562 454.203 97.5156 454.922 97.7656C455.641 98 456.383 98.1172 457.148 98.1172C458.68 98.1172 460.008 97.7266 461.133 96.9453C462.258 96.1641 462.898 94.9219 463.055 93.2188H467.391C467.297 94.5312 466.953 95.7031 466.359 96.7344C465.766 97.75 464.992 98.6172 464.039 99.3359C463.102 100.055 462.039 100.609 460.852 101C459.664 101.391 458.414 101.586 457.102 101.586C455.336 101.586 453.789 101.266 452.461 100.625C451.148 99.9844 450.047 99.1016 449.156 97.9766C448.281 96.8516 447.625 95.5078 447.188 93.9453C446.766 92.3828 446.555 90.6562 446.555 88.7656ZM451.102 86.5156H463.102V85.1562C463.102 84.2656 462.938 83.4609 462.609 82.7422C462.297 82.0234 461.859 81.4141 461.297 80.9141C460.75 80.4141 460.109 80.0391 459.375 79.7891C458.656 79.5234 457.898 79.3906 457.102 79.3906C456.305 79.3906 455.547 79.5234 454.828 79.7891C454.109 80.0391 453.469 80.4141 452.906 80.9141C452.344 81.4141 451.898 82.0234 451.57 82.7422C451.258 83.4609 451.102 84.2656 451.102 85.1562V86.5156ZM474.141 101V76.5312H478.453V80.5625C479.125 79.125 480.047 78 481.219 77.1875C482.391 76.3594 483.906 75.9453 485.766 75.9453C486.953 75.9453 488.031 76.1094 489 76.4375C489.969 76.75 490.805 77.2578 491.508 77.9609C492.211 78.6641 492.758 79.5703 493.148 80.6797C493.539 81.7734 493.734 83.1094 493.734 84.6875V101H489.398V85.1562C489.398 83.3594 489.055 81.9531 488.367 80.9375C487.68 79.9062 486.406 79.3906 484.547 79.3906C483.656 79.3906 482.844 79.5703 482.109 79.9297C481.375 80.2734 480.734 80.7734 480.188 81.4297C479.641 82.0859 479.211 82.8672 478.898 83.7734C478.602 84.6641 478.453 85.6406 478.453 86.7031V101H474.141ZM499.172 80.2109V76.5312H503.297V68.3516H507.562V76.5312H513.188V80.2109H507.562V97.2969H513.188V101H503.297V80.2109H499.172Z" fill="black"/>
<path d="M61.4091 145H68.2273V143.75H62.8182V133.364H61.4091V145ZM73.8864 145.182C75.6591 145.182 76.9545 144.295 77.3636 142.977L76.0682 142.614C75.7273 143.523 74.9375 143.977 73.8864 143.977C72.3125 143.977 71.2273 142.96 71.1648 141.091H77.5V140.523C77.5 137.273 75.5682 136.159 73.75 136.159C71.3864 136.159 69.8182 138.023 69.8182 140.705C69.8182 143.386 71.3636 145.182 73.8864 145.182ZM71.1648 139.932C71.2557 138.574 72.2159 137.364 73.75 137.364C75.2045 137.364 76.1364 138.455 76.1364 139.932H71.1648ZM82.108 145.205C83.6307 145.205 84.4261 144.386 84.6989 143.818H84.767V145H86.108V139.25C86.108 136.477 83.9943 136.159 82.8807 136.159C81.5625 136.159 80.0625 136.614 79.3807 138.205L80.6534 138.659C80.9489 138.023 81.6477 137.341 82.9261 137.341C84.1591 137.341 84.767 137.994 84.767 139.114V139.159C84.767 139.807 84.108 139.75 82.517 139.955C80.8977 140.165 79.1307 140.523 79.1307 142.523C79.1307 144.227 80.4489 145.205 82.108 145.205ZM82.3125 144C81.2443 144 80.4716 143.523 80.4716 142.591C80.4716 141.568 81.4034 141.25 82.4489 141.114C83.017 141.045 84.5398 140.886 84.767 140.614V141.841C84.767 142.932 83.9034 144 82.3125 144ZM88.5554 145H89.8963V139.477C89.8963 138.295 90.8281 137.432 92.1009 137.432C92.4588 137.432 92.8281 137.5 92.919 137.523V136.159C92.7656 136.148 92.4134 136.136 92.2145 136.136C91.169 136.136 90.2599 136.727 89.9418 137.591H89.8509V136.273H88.5554V145ZM95.8494 139.75C95.8494 138.227 96.7926 137.364 98.0767 137.364C99.321 137.364 100.077 138.176 100.077 139.545V145H101.418V139.455C101.418 137.227 100.23 136.159 98.4631 136.159C97.1449 136.159 96.3267 136.75 95.9176 137.636H95.804V136.273H94.5085V145H95.8494V139.75ZM109.709 139.75C109.709 138.227 110.68 137.364 112.004 137.364C113.266 137.364 114.027 138.159 114.027 139.545V145H115.368V139.455C115.368 137.21 114.175 136.159 112.391 136.159C111.016 136.159 110.232 136.733 109.822 137.636H109.709V133.364H108.368V145H109.709V139.75ZM121.366 145.182C123.73 145.182 125.321 143.386 125.321 140.682C125.321 137.955 123.73 136.159 121.366 136.159C119.003 136.159 117.412 137.955 117.412 140.682C117.412 143.386 119.003 145.182 121.366 145.182ZM121.366 143.977C119.571 143.977 118.753 142.432 118.753 140.682C118.753 138.932 119.571 137.364 121.366 137.364C123.162 137.364 123.98 138.932 123.98 140.682C123.98 142.432 123.162 143.977 121.366 143.977ZM129.048 145H130.366L132.276 138.295H132.412L134.321 145H135.639L138.298 136.273H136.889L135.003 142.932H134.912L133.071 136.273H131.639L129.776 142.955H129.685L127.798 136.273H126.389L129.048 145ZM146.548 145H147.866L149.776 138.295H149.912L151.821 145H153.139L155.798 136.273H154.389L152.503 142.932H152.412L150.571 136.273H149.139L147.276 142.955H147.185L145.298 136.273H143.889L146.548 145ZM160.933 145.182C162.706 145.182 164.001 144.295 164.411 142.977L163.115 142.614C162.774 143.523 161.984 143.977 160.933 143.977C159.359 143.977 158.274 142.96 158.212 141.091H164.547V140.523C164.547 137.273 162.615 136.159 160.797 136.159C158.433 136.159 156.865 138.023 156.865 140.705C156.865 143.386 158.411 145.182 160.933 145.182ZM158.212 139.932C158.303 138.574 159.263 137.364 160.797 137.364C162.251 137.364 163.183 138.455 163.183 139.932H158.212ZM171.087 145H172.428V139.545C172.428 138.267 173.359 137.364 174.405 137.364C175.422 137.364 176.132 138.028 176.132 139.023V145H177.496V139.318C177.496 138.193 178.2 137.364 179.428 137.364C180.382 137.364 181.2 137.869 181.2 139.159V145H182.541V139.159C182.541 137.108 181.439 136.159 179.882 136.159C178.632 136.159 177.717 136.733 177.268 137.636H177.178C176.746 136.705 175.984 136.159 174.837 136.159C173.7 136.159 172.859 136.705 172.496 137.636H172.382V136.273H171.087V145ZM187.561 145.205C189.084 145.205 189.879 144.386 190.152 143.818H190.22V145H191.561V139.25C191.561 136.477 189.447 136.159 188.334 136.159C187.016 136.159 185.516 136.614 184.834 138.205L186.107 138.659C186.402 138.023 187.101 137.341 188.379 137.341C189.612 137.341 190.22 137.994 190.22 139.114V139.159C190.22 139.807 189.561 139.75 187.97 139.955C186.351 140.165 184.584 140.523 184.584 142.523C184.584 144.227 185.902 145.205 187.561 145.205ZM187.766 144C186.697 144 185.925 143.523 185.925 142.591C185.925 141.568 186.857 141.25 187.902 141.114C188.47 141.045 189.993 140.886 190.22 140.614V141.841C190.22 142.932 189.357 144 187.766 144ZM194.009 145H195.349V141.733L196.287 140.864L199.554 145H201.259L197.298 140L200.986 136.273H199.327L195.509 140.159H195.349V133.364H194.009V145ZM206.011 145.182C207.784 145.182 209.08 144.295 209.489 142.977L208.193 142.614C207.852 143.523 207.062 143.977 206.011 143.977C204.438 143.977 203.352 142.96 203.29 141.091H209.625V140.523C209.625 137.273 207.693 136.159 205.875 136.159C203.511 136.159 201.943 138.023 201.943 140.705C201.943 143.386 203.489 145.182 206.011 145.182ZM203.29 139.932C203.381 138.574 204.341 137.364 205.875 137.364C207.33 137.364 208.261 138.455 208.261 139.932H203.29ZM216.165 148.273H217.506V143.659H217.619C217.915 144.136 218.483 145.182 220.165 145.182C222.347 145.182 223.869 143.432 223.869 140.659C223.869 137.909 222.347 136.159 220.142 136.159C218.438 136.159 217.915 137.205 217.619 137.659H217.46V136.273H216.165V148.273ZM217.483 140.636C217.483 138.682 218.347 137.364 219.983 137.364C221.688 137.364 222.528 138.795 222.528 140.636C222.528 142.5 221.665 143.977 219.983 143.977C218.369 143.977 217.483 142.614 217.483 140.636ZM225.915 145H227.256V139.477C227.256 138.295 228.188 137.432 229.46 137.432C229.818 137.432 230.188 137.5 230.278 137.523V136.159C230.125 136.148 229.773 136.136 229.574 136.136C228.528 136.136 227.619 136.727 227.301 137.591H227.21V136.273H225.915V145ZM235.148 145.182C237.511 145.182 239.102 143.386 239.102 140.682C239.102 137.955 237.511 136.159 235.148 136.159C232.784 136.159 231.193 137.955 231.193 140.682C231.193 143.386 232.784 145.182 235.148 145.182ZM235.148 143.977C233.352 143.977 232.534 142.432 232.534 140.682C232.534 138.932 233.352 137.364 235.148 137.364C236.943 137.364 237.761 138.932 237.761 140.682C237.761 142.432 236.943 143.977 235.148 143.977ZM244.672 148.455C246.763 148.455 248.445 147.5 248.445 145.25V136.273H247.149V137.659H247.013C246.717 137.205 246.172 136.159 244.467 136.159C242.263 136.159 240.74 137.909 240.74 140.591C240.74 143.318 242.331 144.864 244.445 144.864C246.149 144.864 246.695 143.864 246.99 143.386H247.104V145.159C247.104 146.614 246.081 147.273 244.672 147.273C243.087 147.273 242.53 146.438 242.172 145.955L241.104 146.705C241.649 147.619 242.723 148.455 244.672 148.455ZM244.626 143.659C242.945 143.659 242.081 142.386 242.081 140.568C242.081 138.795 242.922 137.364 244.626 137.364C246.263 137.364 247.126 138.682 247.126 140.568C247.126 142.5 246.24 143.659 244.626 143.659ZM250.899 145H252.24V139.477C252.24 138.295 253.172 137.432 254.445 137.432C254.803 137.432 255.172 137.5 255.263 137.523V136.159C255.109 136.148 254.757 136.136 254.558 136.136C253.513 136.136 252.604 136.727 252.286 137.591H252.195V136.273H250.899V145ZM260.246 145.182C262.018 145.182 263.314 144.295 263.723 142.977L262.428 142.614C262.087 143.523 261.297 143.977 260.246 143.977C258.672 143.977 257.587 142.96 257.524 141.091H263.859V140.523C263.859 137.273 261.928 136.159 260.109 136.159C257.746 136.159 256.178 138.023 256.178 140.705C256.178 143.386 257.723 145.182 260.246 145.182ZM257.524 139.932C257.615 138.574 258.575 137.364 260.109 137.364C261.564 137.364 262.496 138.455 262.496 139.932H257.524ZM272.081 138.227C271.661 136.989 270.717 136.159 268.99 136.159C267.149 136.159 265.786 137.205 265.786 138.682C265.786 139.886 266.501 140.693 268.104 141.068L269.558 141.409C270.439 141.614 270.854 142.034 270.854 142.636C270.854 143.386 270.058 144 268.808 144C267.712 144 267.024 143.528 266.786 142.591L265.513 142.909C265.825 144.392 267.047 145.182 268.831 145.182C270.859 145.182 272.24 144.074 272.24 142.568C272.24 141.352 271.479 140.585 269.922 140.205L268.626 139.886C267.592 139.631 267.126 139.284 267.126 138.614C267.126 137.864 267.922 137.318 268.99 137.318C270.161 137.318 270.643 137.966 270.876 138.568L272.081 138.227ZM280.44 138.227C280.02 136.989 279.077 136.159 277.349 136.159C275.509 136.159 274.145 137.205 274.145 138.682C274.145 139.886 274.861 140.693 276.463 141.068L277.918 141.409C278.798 141.614 279.213 142.034 279.213 142.636C279.213 143.386 278.418 144 277.168 144C276.071 144 275.384 143.528 275.145 142.591L273.872 142.909C274.185 144.392 275.406 145.182 277.19 145.182C279.219 145.182 280.599 144.074 280.599 142.568C280.599 141.352 279.838 140.585 278.281 140.205L276.986 139.886C275.952 139.631 275.486 139.284 275.486 138.614C275.486 137.864 276.281 137.318 277.349 137.318C278.52 137.318 279.003 137.966 279.236 138.568L280.44 138.227Z" fill="black"/>
<rect x="620" y="105" width="52.5" height="52.5" fill="#D8DDE5"/>
<path d="M625.837 157.5H620V163.337H625.837V157.5Z" fill="#D8DDE5"/>
<path d="M631.673 163.337H625.837V169.174H631.673V163.337Z" fill="#D8DDE5"/>
<path d="M637.494 157.5H631.658V163.337H637.494V157.5Z" fill="#D8DDE5"/>
<path d="M625.837 169.158H620V174.995H625.837V169.158Z" fill="#D8DDE5"/>
<path d="M637.494 169.158H631.658V174.995H637.494V169.158Z" fill="#D8DDE5"/>
<path d="M643.332 163.337H637.495V169.174H643.332V163.337Z" fill="#D8DDE5"/>
<path d="M631.673 174.995H625.837V180.832H631.673V174.995Z" fill="#D8DDE5"/>
<path d="M625.837 180.832H620V186.669H625.837V180.832Z" fill="#D8DDE5"/>
<path d="M637.494 180.832H631.658V186.669H637.494V180.832Z" fill="#D8DDE5"/>
<path d="M643.332 174.995H637.495V180.832H643.332V174.995Z" fill="#D8DDE5"/>
<path d="M631.673 186.668H625.837V192.505H631.673V186.668Z" fill="#D8DDE5"/>
<path d="M625.837 192.489H620V198.326H625.837V192.489Z" fill="#D8DDE5"/>
<path d="M637.494 192.489H631.658V198.326H637.494V192.489Z" fill="#D8DDE5"/>
<path d="M643.332 186.668H637.495V192.505H643.332V186.668Z" fill="#D8DDE5"/>
<path d="M631.673 198.326H625.837V204.163H631.673V198.326Z" fill="#D8DDE5"/>
<path d="M625.837 204.164H620V210.001H625.837V204.164Z" fill="#D8DDE5"/>
<path d="M637.494 204.164H631.658V210.001H637.494V204.164Z" fill="#D8DDE5"/>
<path d="M643.332 198.326H637.495V204.163H643.332V198.326Z" fill="#D8DDE5"/>
<path d="M649.168 157.5H643.331V163.337H649.168V157.5Z" fill="#D8DDE5"/>
<path d="M655.006 163.337H649.169V169.174H655.006V163.337Z" fill="#D8DDE5"/>
<path d="M660.826 157.5H654.99V163.337H660.826V157.5Z" fill="#D8DDE5"/>
<path d="M649.168 169.158H643.331V174.995H649.168V169.158Z" fill="#D8DDE5"/>
<path d="M660.826 169.158H654.99V174.995H660.826V169.158Z" fill="#D8DDE5"/>
<path d="M666.663 163.337H660.826V169.174H666.663V163.337Z" fill="#D8DDE5"/>
<path d="M655.006 174.995H649.169V180.832H655.006V174.995Z" fill="#D8DDE5"/>
<path d="M649.168 180.832H643.331V186.669H649.168V180.832Z" fill="#D8DDE5"/>
<path d="M660.826 180.832H654.99V186.669H660.826V180.832Z" fill="#D8DDE5"/>
<path d="M666.663 174.995H660.826V180.832H666.663V174.995Z" fill="#D8DDE5"/>
<path d="M655.006 186.668H649.169V192.505H655.006V186.668Z" fill="#D8DDE5"/>
<path d="M649.168 192.489H643.331V198.326H649.168V192.489Z" fill="#D8DDE5"/>
<path d="M660.826 192.489H654.99V198.326H660.826V192.489Z" fill="#D8DDE5"/>
<path d="M666.663 186.668H660.826V192.505H666.663V186.668Z" fill="#D8DDE5"/>
<path d="M655.006 198.326H649.169V204.163H655.006V198.326Z" fill="#D8DDE5"/>
<path d="M649.168 204.164H643.331V210.001H649.168V204.164Z" fill="#D8DDE5"/>
<path d="M660.826 204.164H654.99V210.001H660.826V204.164Z" fill="#D8DDE5"/>
<path d="M672.5 157.5H666.663V163.337H672.5V157.5Z" fill="#D8DDE5"/>
<path d="M672.5 169.158H666.663V174.995H672.5V169.158Z" fill="#D8DDE5"/>
<path d="M672.5 180.832H666.663V186.669H672.5V180.832Z" fill="#D8DDE5"/>
<path d="M672.5 192.489H666.663V198.326H672.5V192.489Z" fill="#D8DDE5"/>
<path d="M672.5 204.164H666.663V210.001H672.5V204.164Z" fill="#D8DDE5"/>
<path d="M666.663 198.326H660.826V204.163H666.663V198.326Z" fill="#D8DDE5"/>
<rect x="631.667" y="52.5" width="5.83333" height="52.5" fill="#D8DDE5"/>
<rect x="643.333" y="52.5" width="5.83333" height="52.5" fill="#D8DDE5"/>
<rect x="655" y="52.5" width="5.83333" height="52.5" fill="#D8DDE5"/>
<rect x="666.667" y="52.5" width="5.83333" height="52.5" fill="#D8DDE5"/>
<rect x="620" y="52.5" width="5.83668" height="52.5" fill="#D8DDE5"/>
<rect x="503.833" y="209.5" width="5.83333" height="52.5" transform="rotate(-180 503.833 209.5)" fill="#D8DDE5"/>
<rect x="492.167" y="209.5" width="5.83333" height="52.5" transform="rotate(-180 492.167 209.5)" fill="#D8DDE5"/>
<rect x="480.5" y="209.5" width="5.83333" height="52.5" transform="rotate(-180 480.5 209.5)" fill="#D8DDE5"/>
<rect x="468.833" y="209.5" width="5.83333" height="52.5" transform="rotate(-180 468.833 209.5)" fill="#D8DDE5"/>
<rect x="515.5" y="209.5" width="5.83668" height="52.5" transform="rotate(-180 515.5 209.5)" fill="#D8DDE5"/>
<rect x="870.505" y="53.4844" width="5.83333" height="52.5" transform="rotate(-180 870.505 53.4844)" fill="#D8DDE5"/>
<rect x="858.838" y="53.4844" width="5.83333" height="52.5" transform="rotate(-180 858.838 53.4844)" fill="#D8DDE5"/>
<rect x="847.172" y="53.4844" width="5.83333" height="52.5" transform="rotate(-180 847.172 53.4844)" fill="#D8DDE5"/>
<rect x="835.505" y="53.4844" width="5.83333" height="52.5" transform="rotate(-180 835.505 53.4844)" fill="#D8DDE5"/>
<rect x="882.172" y="53.4844" width="5.83668" height="52.5" transform="rotate(-180 882.172 53.4844)" fill="#D8DDE5"/>
<path fill-rule="evenodd" clip-rule="evenodd" d="M567.5 163.333V157.5C596.495 157.5 620 181.005 620 210H614.167C614.167 184.227 593.273 163.333 567.5 163.333ZM567.5 175V169.166C590.052 169.166 608.333 187.448 608.333 210H602.5C602.5 190.67 586.83 175 567.5 175ZM567.5 180.834V186.667C580.387 186.667 590.833 197.114 590.833 210L596.667 210C596.667 193.892 583.608 180.834 567.5 180.834ZM567.5 198.333V192.5C577.165 192.5 585 200.335 585 210H579.167C579.167 203.557 573.943 198.333 567.5 198.333ZM567.5 210V204.166C570.722 204.166 573.333 206.778 573.333 210H567.5Z" fill="#D8DDE5"/>
<path fill-rule="evenodd" clip-rule="evenodd" d="M777 110.833V105C805.995 105 829.5 128.505 829.5 157.5L823.667 157.5C823.667 131.727 802.773 110.833 777 110.833ZM777 122.5V116.667C799.552 116.667 817.833 134.949 817.833 157.5H812C812 138.17 796.33 122.5 777 122.5ZM777 128.333V134.167C789.887 134.167 800.333 144.613 800.333 157.5L806.167 157.5C806.167 141.392 793.108 128.333 777 128.333ZM777 145.833V140C786.665 140 794.5 147.835 794.5 157.5H788.667C788.667 151.056 783.443 145.833 777 145.833ZM777 157.5V151.667C780.222 151.667 782.833 154.279 782.833 157.5H777Z" fill="#D8DDE5"/>
<path d="M729.112 52.5H725V48.3875L773.387 0H777.5V4.1125L729.112 52.5ZM765.133 0H756.879L725 31.8791V40.1333L765.133 0ZM748.625 0H740.371L725 15.3708V23.625L748.625 0ZM725 0V7.11666L732.116 0H725ZM777.5 20.6208V12.3667L737.366 52.5H745.621L777.5 20.6208ZM777.5 37.1291V28.875L753.875 52.5H762.129L777.5 37.1291ZM777.5 45.3833L770.383 52.5H777.5V45.3833Z" fill="#D8DDE5"/>
<path d="M672.5 105L725 105L725 52.5C696.005 52.5 672.5 76.0051 672.5 105Z" fill="#D8DDE5"/>
<path d="M777.5 157.5L777.5 105L725 105C725 133.995 748.505 157.5 777.5 157.5Z" fill="#D8DDE5"/>
<path fill-rule="evenodd" clip-rule="evenodd" d="M764.21 233.33C764.488 231.239 764.72 229.343 764.938 227.956C768.67 230.46 776.735 233.758 778.271 234.216C786.973 236.533 792.296 229.038 794.957 219.287C797.619 209.536 794.847 199.761 786.145 197.444C779.467 195.697 737.509 181.392 719.716 176.669C714.304 175.214 706.523 186.246 703.891 196.312C703.322 198.336 705.21 203.493 708.994 210.217L764.21 233.33Z" fill="black"/>
<path fill-rule="evenodd" clip-rule="evenodd" d="M719.518 208.644C728.017 213.172 741.366 218.922 759.444 225.969C760.959 219.853 762.983 213.752 765.067 209.615C767.616 204.354 771.701 200.884 777.225 199.183L720.562 181.893C717.047 183.34 713.891 185.895 710.967 193.225C709.85 195.841 714.129 205.758 719.518 208.644Z" fill="#D3D8E0"/>
<path fill-rule="evenodd" clip-rule="evenodd" d="M761.334 208.446C767.961 203.304 773.095 200.179 776.858 198.995L720.315 181.631C717.114 183.047 714.056 186.96 711.215 193.488C740.153 206.84 756.859 211.826 761.334 208.446Z" fill="white"/>
<path fill-rule="evenodd" clip-rule="evenodd" d="M776.349 204.953C774.932 205.755 769.746 207.328 767.856 214.179C766.971 217.567 766.454 222.476 766.319 225.729C773.978 229.447 779.757 232.423 780.784 231.532C778.333 230.145 776.767 228.038 776.062 225.31C775.538 223.136 775.119 218.729 776.618 214.457C778.41 208.918 782.158 208.244 782.997 207.719L776.349 204.953Z" fill="white"/>
<path fill-rule="evenodd" clip-rule="evenodd" d="M766.318 225.729C773.978 229.448 779.854 232.446 780.784 231.532C778.333 230.145 776.647 228.114 776.062 225.31C775.725 224.104 775.306 221.031 772.855 218.309C771.221 216.495 769.363 215.656 767.399 215.716C766.754 218.954 766.461 222.889 766.318 225.729Z" fill="#D3D8E0"/>
<path fill-rule="evenodd" clip-rule="evenodd" d="M784.414 210.921C782.495 212.12 781.243 213.986 780.538 216.594C780.403 217.179 780.246 217.861 780.111 218.446L785.904 220.912C786.069 220.642 786.504 219.203 786.699 217.914C786.827 216.917 786.932 214.684 786.175 213.072C785.545 211.798 784.511 210.943 784.414 210.921Z" fill="#D3D8E0"/>
<path fill-rule="evenodd" clip-rule="evenodd" d="M715.878 179.067L712.977 186.3C714.521 187.169 715.645 187.634 716.424 187.814C717.983 188.174 719.505 189.141 718.86 188.376C718.538 187.994 716.957 186.397 716.02 185.565C715.773 185.303 715.503 185.138 715.255 184.876C717.137 185.618 719.138 186.285 721.431 187.02C727.6 188.752 727.375 188.392 722.353 185.693C721.349 185.154 720.052 184.546 718.486 183.774C719.093 183.812 719.82 183.774 720.645 183.759C722.099 183.685 724.542 183.325 725.097 183.145C726.109 182.763 723.748 182.321 721.372 181.054C720.098 180.349 718.291 179.727 715.878 179.067Z" fill="black"/>
<path fill-rule="evenodd" clip-rule="evenodd" d="M718.143 245.273C718.42 243.182 718.653 241.286 718.87 239.899C722.603 242.403 730.667 245.702 732.204 246.159C740.906 248.476 746.228 240.981 748.89 231.23C751.552 221.479 748.779 211.705 740.078 209.388C733.399 207.641 691.442 193.336 673.648 188.612C668.237 187.157 660.456 198.19 657.824 208.256C657.254 210.28 659.143 215.436 662.927 222.16L718.143 245.273Z" fill="black"/>
<path fill-rule="evenodd" clip-rule="evenodd" d="M673.451 220.587C681.95 225.115 695.299 230.865 713.377 237.913C714.891 231.797 716.915 225.696 719 221.558C721.548 216.297 725.634 212.827 731.158 211.126L674.495 193.837C670.98 195.283 667.824 197.839 664.9 205.169C663.805 207.687 668.062 217.701 673.451 220.587Z" fill="#D3D8E0"/>
<path fill-rule="evenodd" clip-rule="evenodd" d="M715.267 220.389C721.893 215.248 727.028 212.123 730.791 210.939L674.248 193.574C671.047 194.991 667.989 198.903 665.147 205.431C694.085 218.783 710.889 223.791 715.267 220.389Z" fill="white"/>
<path fill-rule="evenodd" clip-rule="evenodd" d="M730.282 216.896C728.865 217.698 723.678 219.272 721.789 226.122C720.904 229.51 720.386 234.419 720.251 237.672C727.911 241.391 733.69 244.367 734.717 243.475C732.266 242.088 730.699 239.982 729.995 237.253C729.471 235.08 729.051 230.672 730.551 226.4C732.343 220.861 736.09 220.187 736.93 219.663L730.282 216.896Z" fill="white"/>
<path fill-rule="evenodd" clip-rule="evenodd" d="M720.251 237.673C727.911 241.391 733.787 244.39 734.716 243.475C732.266 242.088 730.579 240.057 729.995 237.254C729.658 236.047 729.238 232.974 726.788 230.253C725.154 228.439 723.295 227.599 721.331 227.659C720.686 230.897 720.394 234.832 720.251 237.673Z" fill="#D3D8E0"/>
<path fill-rule="evenodd" clip-rule="evenodd" d="M738.346 222.864C736.427 224.063 735.175 225.929 734.471 228.538C734.336 229.122 734.178 229.804 734.043 230.389L739.837 232.856C740.002 232.586 740.437 231.147 740.632 229.857C740.759 228.861 740.864 226.627 740.107 225.015C739.5 223.644 738.444 222.887 738.346 222.864Z" fill="#D3D8E0"/>
<path fill-rule="evenodd" clip-rule="evenodd" d="M669.908 191.033L667.007 198.265C668.551 199.135 669.675 199.6 670.454 199.78C672.013 200.14 673.535 201.107 672.89 200.342C672.568 199.96 670.987 198.363 670.05 197.531C669.803 197.269 669.533 197.104 669.285 196.841C671.167 197.584 673.168 198.251 675.461 198.986C681.63 200.718 681.405 200.358 676.383 197.659C675.379 197.119 674.083 196.512 672.516 195.74C673.123 195.777 673.85 195.74 674.675 195.725C676.129 195.65 678.572 195.291 679.127 195.111C680.139 194.729 677.778 194.286 675.402 193.019C674.03 192.292 672.224 191.67 669.908 191.033Z" fill="black"/>
<path fill-rule="evenodd" clip-rule="evenodd" d="M743.72 216.284C743.997 214.193 744.23 212.297 744.447 210.91C748.18 213.414 756.244 216.713 757.781 217.17C766.483 219.487 771.805 211.992 774.467 202.241C777.128 192.49 774.356 182.715 765.654 180.399C758.976 178.652 717.019 164.347 699.225 159.623C693.814 158.168 686.033 169.201 683.401 179.267C682.831 181.29 684.719 186.447 688.504 193.171L743.72 216.284Z" fill="black"/>
<path fill-rule="evenodd" clip-rule="evenodd" d="M698.93 191.576C707.429 196.103 720.778 201.854 738.856 208.901C740.37 202.785 742.395 196.684 744.479 192.547C747.028 187.285 751.113 183.815 756.637 182.114L699.974 164.825C696.459 166.271 693.303 168.827 690.379 176.157C689.262 178.773 693.639 188.712 698.93 191.576Z" fill="#D3D8E0"/>
<path fill-rule="evenodd" clip-rule="evenodd" d="M740.844 191.4C747.47 186.259 752.605 183.133 756.367 181.95L699.824 164.585C696.624 166.001 693.565 169.914 690.724 176.442C719.662 189.794 736.369 194.78 740.844 191.4Z" fill="white"/>
<path fill-rule="evenodd" clip-rule="evenodd" d="M755.859 187.907C754.442 188.709 749.255 190.282 747.365 197.133C746.481 200.521 745.963 205.43 745.828 208.683C753.488 212.401 759.266 215.378 760.293 214.486C757.842 213.099 756.276 210.993 755.572 208.264C755.047 206.09 754.628 201.683 756.127 197.411C757.919 191.872 761.667 191.198 762.507 190.673L755.859 187.907Z" fill="white"/>
<path fill-rule="evenodd" clip-rule="evenodd" d="M745.828 208.683C753.488 212.402 759.364 215.4 760.293 214.486C757.842 213.099 756.156 211.068 755.572 208.265C755.235 207.058 754.815 203.985 752.364 201.264C750.731 199.45 748.872 198.61 746.908 198.67C746.263 201.908 745.948 205.94 745.828 208.683Z" fill="#D3D8E0"/>
<path fill-rule="evenodd" clip-rule="evenodd" d="M763.923 193.875C762.004 195.074 760.752 196.94 760.047 199.548C759.912 200.133 759.755 200.815 759.62 201.4L765.414 203.866C765.578 203.596 766.013 202.157 766.208 200.868C766.336 199.871 766.441 197.638 765.684 196.026C765.055 194.752 764.02 193.897 763.923 193.875Z" fill="#D3D8E0"/>
<path fill-rule="evenodd" clip-rule="evenodd" d="M695.387 162.021L692.486 169.254C694.03 170.123 695.154 170.588 695.934 170.768C697.493 171.128 699.014 172.095 698.37 171.33C698.047 170.948 696.466 169.351 695.529 168.519C695.282 168.257 695.012 168.092 694.765 167.83C696.646 168.572 698.647 169.239 700.941 169.974C707.109 171.706 706.884 171.346 701.863 168.647C700.858 168.108 699.562 167.5 697.995 166.728C698.602 166.766 699.33 166.728 700.154 166.713C701.608 166.639 704.052 166.279 704.606 166.099C705.618 165.717 703.257 165.275 700.881 164.008C699.607 163.303 697.801 162.681 695.387 162.021Z" fill="black"/>
<path fill-rule="evenodd" clip-rule="evenodd" d="M578.4 137.2C580.4 137.2 591.6 135.7 597.1 133.9C595.3 153.1 581.3 223.1 587.2 239C591 249.6 599.1 253.5 607.7 252.6C620.5 251.3 642 250.5 660.5 248.2C669.4 247.1 678.5 247.1 683.9 243.8C693.1 238.3 689.7 222.6 683.9 212.1C681.8 208.3 680.3 209.1 675.1 209.1C675.1 198.8 678.5 183.5 680.3 168.4C682.7 147.8 683.9 122.5 683.9 114.7C683.9 101.2 678 84.7998 670.7 84.7998C646.9 84.7998 589.9 88.4998 580.9 88.4998C569.3 88.4998 562.6 99.6998 562.6 112.8C562.6 125.9 566.8 137.2 578.4 137.2Z" fill="black"/>
<path fill-rule="evenodd" clip-rule="evenodd" d="M592 93.6L668.6 91C674.4 95.5 677.4 108 677.4 128.5C677.4 149 674.5 175.8 668.6 208.7C629 210.7 607.4 212 603.7 212.6C600 213.2 596.7 215.9 593.8 220.7C597.4 193.6 600.7 170.8 603.7 152.3C605.4 141.5 605.9 121.9 603.7 110.7C602.2 103.3 598.3 97.6 592 93.6Z" fill="#D3D8E0"/>
<path fill-rule="evenodd" clip-rule="evenodd" d="M608.2 110.4C601.6 101.9 596.2 96.3 592 93.6L668.5 91C672.1 93.8 674.5 99.6 675.9 108.5C635.2 115.4 612.6 116.1 608.2 110.4Z" fill="white"/>
<path fill-rule="evenodd" clip-rule="evenodd" d="M589.6 101.3C591.2 102.7 597.1 106.5 597.1 115.6C597.1 120.2 596 126.4 595.1 130.5C584.3 132.5 576.1 134.4 575.2 132.9C578.8 132 581.4 129.9 583.2 126.7C584.6 124.1 586.5 118.7 586.2 112.9C585.8 105.4 581.4 103.3 580.5 102.4L589.6 101.3Z" fill="white"/>
<path fill-rule="evenodd" clip-rule="evenodd" d="M595.2 130.499C584.4 132.499 576.1 134.299 575.2 132.799C578.8 131.899 581.4 129.899 583.2 126.699C584 125.299 585.6 121.599 589.5 119.099C592.1 117.399 594.7 116.899 597.1 117.699C596.9 121.899 596 126.999 595.2 130.499Z" fill="#D3D8E0"/>
<path fill-rule="evenodd" clip-rule="evenodd" d="M577.6 106C579.5 108.1 580.5 110.9 580.5 114.4C580.5 115.2 580.5 116 580.4 116.8L572.3 117.9C572.2 117.5 572.1 115.5 572.3 113.9C572.5 112.6 573.1 109.8 574.6 108C575.9 106.6 577.5 106 577.6 106Z" fill="#D3D8E0"/>
<path fill-rule="evenodd" clip-rule="evenodd" d="M675.745 213.705C677.049 213.696 679.055 216.543 680.637 221.165C683.027 228.55 679.078 231.982 674.621 234.077C663.708 235.318 628.987 238.705 628.194 237.145C614.2 240.878 608.165 241.158 610.184 238.091C611.762 235.595 611.261 234.157 611.367 228.35C611.491 220.841 607.248 218.439 606.413 217.478L675.745 213.705Z" fill="white"/>
<path fill-rule="evenodd" clip-rule="evenodd" d="M682.189 234.807C680.084 241.977 641.958 241.015 631.764 242.007C621.57 242.998 605.386 245.074 607.404 242.007C608.3 240.667 610.154 237.087 614.219 234.865C616.825 233.444 640.383 226.269 658.754 224.447C670.964 223.296 677.751 220.863 678.9 217.335C684.524 224.344 682.143 232.598 682.189 234.807Z" fill="#D3D8E0"/>
<path fill-rule="evenodd" clip-rule="evenodd" d="M602.665 222.328C604.029 224.328 604.653 226.878 604.43 230.07C604.381 230.769 604.325 231.567 604.177 232.258L597.722 232.809C597.644 232.503 597.669 230.7 597.973 229.218C598.157 228.028 598.83 225.569 600.139 224.056C601.327 222.836 602.566 222.321 602.665 222.328Z" fill="#D3D8E0"/>
<path fill-rule="evenodd" clip-rule="evenodd" d="M593 196.099L593.8 204.899C595.8 204.999 597.3 204.899 598.2 204.699C600 204.299 602 204.399 601 203.999C600.5 203.799 598 202.999 596.6 202.599C596.2 202.499 595.8 202.399 595.4 202.299C597.7 202.099 600.1 201.799 602.9 201.199C610.2 199.799 609.7 199.499 603.1 199.299C601.8 199.299 600.1 199.299 598.1 199.399C598.8 199.099 599.5 198.699 600.3 198.299C601.8 197.499 604.1 195.899 604.5 195.399C605.3 194.499 602.7 195.299 599.6 195.199C598 195.099 595.8 195.399 593 196.099Z" fill="black"/>
<path fill-rule="evenodd" clip-rule="evenodd" d="M674.6 89.5001L675.8 99.4001C673.6 100 672 100.2 671 100.2C668.9 100.1 666.7 100.8 667.8 100C668.3 99.6001 670.8 98.2001 672.3 97.4001C672.7 97.2001 673.1 97.0001 673.5 96.8001C670.9 97.1001 668.2 97.3001 665 97.4001C656.7 97.5001 657.2 97.1001 664.3 95.4001C665.7 95.1001 667.6 94.7001 669.8 94.3001C669 94.1001 668.1 93.9001 667.2 93.6001C665.4 93.0001 662.5 91.8001 661.9 91.4001C660.8 90.6001 663.8 90.8001 667.2 90.0001C669 89.6001 671.4 89.4001 674.6 89.5001Z" fill="black"/>
<path d="M612.7 161C612.3 163.6 613.4 166.4 614.3 168.8C614.8 170.1 616.4 170.1 617 168.8C618.1 166.1 619.7 163.7 621.6 161.6C623.1 160 625.6 158.8 626.4 156.8C626.7 156.1 626 155.4 625.3 155.4C622.7 155.3 620.2 158.6 618.7 160.4C616.8 162.7 615.3 165.3 614.2 168.1C615.1 168.1 616 168.1 616.9 168.1C616 165.8 615.4 162.9 614 160.9C613.8 160.4 612.8 160.3 612.7 161Z" fill="black"/>
<path d="M613.2 144.7C610.9 146 613.2 150.6 614.2 152.1C614.6 152.8 615.4 152.8 616 152.3C617.9 150.7 619.8 149.1 621.7 147.4C623.3 146 625.6 144.6 626.6 142.6C627 141.9 626.4 140.8 625.4 141.1C623.3 141.8 621.8 143.7 620.2 145.2C618.2 147 616.3 148.8 614.4 150.6C615 150.7 615.6 150.8 616.2 150.8C615.2 149.4 614.7 147.9 614.3 146.2C614.1 145.3 614.2 145.1 613.5 144.6C613.4 144.7 613.3 144.7 613.2 144.7Z" fill="black"/>
<path d="M613.6 131.299C613.3 133.899 615 139.199 618.3 136.299C619.9 134.899 621 132.499 622.3 130.699C623.8 128.599 625.8 126.699 627.2 124.499C628.2 122.899 626.1 121.599 624.8 122.599C622.6 124.499 620.8 127.399 619.2 129.899C618.5 130.899 617.8 133.099 616.8 133.799C616.7 133.999 616.6 134.099 616.5 134.299C616.2 133.699 615.9 133.099 615.7 132.499C615.5 131.899 615.3 131.499 614.9 130.899C614.6 130.299 613.7 130.599 613.6 131.299Z" fill="black"/>
<path d="M633.5 128.5C638.9 129.7 645.1 128.7 650.6 128.6C653.5 128.6 656.4 128.5 659.4 128.5C662.2 128.5 665.2 128.8 668 128.3C669.4 128 669.4 125.8 668 125.4C665.4 124.8 662.6 125 659.9 125C656.8 125 653.7 125.1 650.6 125.3C645.2 125.6 638.6 125.4 633.5 127.6C633.1 127.8 633 128.4 633.5 128.5Z" fill="black"/>
<path d="M631.7 145.399C637.7 145.299 643.7 145.199 649.7 144.999C652.6 144.899 655.5 144.899 658.5 144.899C661.2 144.899 664.5 145.599 667.1 144.599C668 144.199 668.5 142.799 667.4 142.299C665.1 141.199 662.2 141.499 659.6 141.399C656.3 141.399 653 141.399 649.7 141.499C643.5 141.699 637.5 142.399 631.4 143.499C630.5 143.799 630.7 145.399 631.7 145.399Z" fill="black"/>
<path d="M631.1 163C633.7 163.6 636.6 163.5 639.3 163.5C642 163.5 644.9 163.8 647.6 163.1C648.9 162.8 648.9 160.8 647.6 160.5C644.9 159.9 642 160.3 639.3 160.4C636.6 160.5 633.7 160.5 631.1 161.2C630.2 161.4 630.2 162.8 631.1 163Z" fill="black"/>
<path d="M700.619 122.562C699.337 122.93 698.049 123.197 696.767 123.565C696.567 123.575 696.472 123.681 696.273 123.691C696.173 123.696 696.068 123.602 696.068 123.602C696.062 123.502 696.162 123.496 696.262 123.491C696.357 123.386 696.457 123.381 696.651 123.271C698.896 122.152 701.035 120.938 703.28 119.819C704.935 118.931 706.707 118.338 708.147 117.161C710.26 115.448 712.363 113.535 714.471 111.722C716.674 109.804 713.998 112.248 716.3 110.324C713.783 110.056 711.402 110.481 708.995 110.407C711.959 109.651 714.924 108.895 717.925 108.837C718.125 108.827 718.319 108.717 718.514 108.606C721.768 105.732 721.631 105.038 725.101 102.453C726.452 101.481 727.697 100.414 729.143 99.3373C726.936 99.2527 725.149 99.5466 723.262 99.8458C723.067 99.9561 722.867 99.9666 722.662 99.8772C722.463 99.8877 722.368 99.9928 722.168 100.003L721.874 100.119C721.774 100.124 721.674 100.129 721.569 100.035C721.559 99.8349 721.664 99.9296 721.764 99.9243C721.858 99.8192 721.853 99.7194 722.058 99.8088C722.147 99.6038 722.347 99.5933 722.452 99.688C722.652 99.6775 722.846 99.5672 723.046 99.5567C724.613 98.8738 726.2 98.5903 727.793 98.4067C729.59 98.3125 731.372 97.9187 732.702 96.5472C734.127 95.0706 735.557 93.6939 737.086 92.312C736.776 92.1279 736.571 92.0385 736.372 92.049C734.285 92.3586 732.298 92.663 730.211 92.9727C729.712 92.9988 729.717 93.0987 729.202 92.8253C732.251 91.7643 735.594 90.5877 738.774 90.1206C739.173 90.0997 740.225 89.1434 740.414 88.9332C741.544 87.5722 741.718 87.0624 742.743 85.6067C744.515 83.1106 746.182 80.5198 746.619 77.3926C746.913 75.3744 746.052 74.218 744.123 73.7182C743.208 73.4657 742.204 73.4182 741.206 73.4705C737.511 73.6642 733.958 74.6515 730.399 75.5389C728.029 76.1639 725.874 77.0779 724.281 79.1641C723.997 79.4794 723.718 79.8946 723.119 79.926C723.771 78.9906 724.638 78.3443 725.285 77.309C724.991 77.4246 724.791 77.4351 724.691 77.4403C718.588 79.4625 720.954 78.7377 715.639 82.4209C713.51 83.8342 710.75 86.5824 709.672 88.9421C708.952 90.4819 706.681 93.0042 705.861 94.5492L698.385 102.852L706.719 87.9954C705.468 88.9622 704.311 89.8239 703.255 90.6803C697.009 95.7141 695.958 96.6704 690.139 102.183C686.227 105.892 687.226 103.937 684.571 108.683C683.567 110.538 682.457 112.298 680.954 114.18C681.564 112.445 682.085 110.916 682.605 109.387C678.931 111.882 678.247 116.024 676.123 119.44C676.359 118.226 676.691 116.907 676.928 115.692C675.024 117.595 673.421 119.481 672.033 121.657C669.798 124.878 668.074 128.273 667.479 132.21C667.484 132.309 667.489 132.409 667.39 132.415C667.29 132.42 667.285 132.32 667.279 132.22C665.382 130.417 665.267 128.22 665.94 125.781C664.757 128.046 664.573 130.259 666.091 132.483C666.743 133.45 667.2 134.527 667.457 135.615C667.72 136.803 667.572 137.812 666.821 138.753C664.933 140.955 663.051 143.256 661.269 145.553C658.64 148.895 655.912 152.242 653.493 155.774C652.562 157.124 651.837 158.564 652.336 160.441C652.53 160.33 652.625 160.225 652.62 160.126C657.089 153.683 661.668 147.435 666.657 141.365C670.332 136.967 673.208 132.61 676.967 127.907C678.944 125.5 683.16 119.972 691.676 112.416C703.446 101.986 715.179 94.6617 717.135 93.7581C717.623 93.5322 720.11 93.2017 720.11 93.2017C718.953 94.0634 717.797 94.9251 716.74 95.7816C713.949 97.9306 685.456 121.754 677.145 131.302C674.874 133.825 672.708 136.442 670.542 139.059C672.465 139.459 673.169 141.424 674.804 142.04C674.252 141.067 673.316 140.415 672.954 139.233C675.634 140.694 688.028 138.343 687.208 137.985C686.388 137.627 676.496 139.948 674.415 138.455C680.134 136.754 684.975 133.596 689.806 130.238C688.587 129.902 687.399 130.164 686.169 129.628C687.862 129.439 689.349 129.161 690.942 128.977C691.541 128.946 692.03 128.72 692.514 128.394C697.145 125.047 696.545 126.981 700.861 123.35C701.056 123.24 701.35 123.124 701.234 122.83C701.108 122.336 700.814 122.452 700.619 122.562ZM706.195 127.677C705.911 127.992 705.527 128.313 705.238 128.528C705.143 128.634 705.044 128.639 705.044 128.639C702.83 130.357 701.38 131.334 699.514 132.033C699.414 132.038 699.319 132.143 699.319 132.143C698.83 132.369 698.536 132.485 698.242 132.6L693.989 135.527C694.215 136.016 694.246 136.615 694.377 137.209C694.466 138.906 694.046 140.43 693.21 141.676C692.742 142.301 692.269 142.827 691.69 143.258C690.923 143.899 690.234 144.135 689.451 144.476C688.862 144.708 688.268 144.839 687.475 144.981C686.681 145.122 685.793 145.369 684.899 145.516L689.459 154.189L672.826 148.252C672.111 147.989 671.396 147.726 670.876 147.353C666.739 152.476 662.717 157.894 658.621 163.817C658.532 164.021 658.532 164.021 658.337 164.132C657.869 164.757 656.818 165.713 657.291 165.188L648.79 173.044L645.897 161.78C645.382 159.604 645.472 157.496 646.067 155.462C646.493 154.038 647.134 152.903 647.97 151.657C649.826 148.856 651.419 146.77 654.989 142.277C655.083 142.172 655.083 142.172 655.173 141.967C655.551 141.547 655.735 141.237 656.019 140.921C657.523 139.04 658.932 137.264 660.346 135.588C657.719 131.319 657.773 126.61 660.044 122.185L663.113 123.426C664.007 121.376 665.201 119.311 666.694 117.23C668.46 114.634 670.348 112.432 672.44 110.32L673.77 108.948C673.959 108.738 674.044 108.433 674.233 108.223C675.532 106.253 677.046 104.571 678.98 103.268L680.142 102.506C680.236 102.401 680.231 102.301 680.326 102.196C680.972 101.161 681.53 100.331 682.392 99.5844C682.581 99.3742 684.6 97.7664 685.551 96.8153C691.655 90.9879 692.901 89.9212 699.051 84.9925C699.146 84.8874 699.34 84.7771 699.435 84.672C700.108 84.1361 702.804 82.0921 702.61 82.2025L729.551 61.2638L724.603 70.0347C725.875 69.4674 727.253 68.9947 728.73 68.5167C728.929 68.5062 729.124 68.3959 729.423 68.3802C729.523 68.375 729.523 68.375 729.623 68.3697C734.958 66.9886 737.534 66.4531 741.029 66.2699C742.726 66.181 744.34 66.3968 745.859 66.7178C751.135 68.0434 754.172 72.4906 753.456 77.9355C752.872 82.0718 751.337 85.2565 748.345 89.3186C748.066 89.7338 747.972 89.8389 747.604 90.459L748.534 91.0111L746.042 93.1444L747.551 93.2656L737.542 101C736.59 101.951 735.628 102.703 734.556 103.259L733.016 104.442C732.916 104.447 732.726 104.657 732.343 104.978L724.873 111.477C724.21 112.213 723.537 112.749 722.581 113.6C722.486 113.705 722.291 113.816 722.197 113.921C722.008 114.131 721.713 114.247 721.524 114.457L720.473 115.413C719.805 116.049 719.416 116.27 719.127 116.485C719.032 116.59 719.032 116.59 718.838 116.7C718.738 116.706 718.743 116.806 718.643 116.811C718.165 117.236 717.686 117.662 716.724 118.413C714.522 120.331 713.47 121.288 712.125 122.36C710.779 123.431 709.707 123.988 707.557 125.002C707.415 126.111 706.857 126.941 706.195 127.677ZM671.9 126.771C670.545 125.74 668.915 125.225 667.318 125.309L671.716 127.081C671.811 126.976 671.906 126.871 671.9 126.771ZM721.154 99.756C721.054 99.7612 721.154 99.756 721.154 99.756V99.756Z" fill="black"/>
<path fill-rule="evenodd" clip-rule="evenodd" d="M700.619 122.562C700.819 122.552 701.108 122.336 701.324 122.626C701.439 122.92 701.145 123.035 700.95 123.146C696.535 126.782 697.134 124.848 692.603 128.19C692.119 128.515 691.631 128.741 691.031 128.773C689.539 128.951 687.946 129.135 686.259 129.423C687.489 129.96 688.676 129.697 689.896 130.034C685.065 133.391 680.224 136.549 674.505 138.251C676.591 139.844 686.478 137.423 687.298 137.78C688.117 138.138 675.724 140.49 673.043 139.028C673.401 140.111 674.436 140.758 674.893 141.835C673.258 141.22 672.455 139.259 670.631 138.854C672.692 136.143 674.963 133.62 677.234 131.098C685.646 121.545 714.038 97.726 716.829 95.577C717.986 94.7152 719.142 93.8535 720.199 92.9971C720.199 92.9971 717.613 93.3329 717.224 93.5535C715.374 94.5517 703.541 101.881 691.766 112.211C683.249 119.768 679.033 125.296 677.056 127.703C673.302 132.506 670.421 136.762 666.746 141.161C661.757 147.23 657.178 153.478 652.709 159.921C652.614 160.026 652.514 160.031 652.425 160.236C651.926 158.36 652.752 156.915 653.582 155.569C655.901 152.043 658.63 148.696 661.358 145.348C663.14 143.052 665.023 140.75 666.91 138.548C667.762 137.603 667.909 136.593 667.547 135.411C667.284 134.223 666.832 133.245 666.181 132.278C664.762 130.049 664.847 127.842 666.03 125.577C665.357 128.015 665.472 130.212 667.369 132.015C667.374 132.115 667.379 132.215 667.479 132.21L667.568 132.005C668.163 128.068 669.988 124.668 672.122 121.452C673.615 119.371 675.214 117.385 677.017 115.488C676.78 116.702 676.449 118.021 676.212 119.235C678.236 115.825 679.02 111.678 682.695 109.182C682.174 110.711 681.653 112.241 681.043 113.975C682.452 112.199 683.656 110.333 684.66 108.478C687.311 103.633 686.311 105.588 690.228 101.978C696.047 96.4658 697.099 95.5095 703.344 90.4757C704.5 89.614 705.557 88.7576 706.808 87.7908L698.474 102.647L705.95 94.3446C706.77 92.7996 709.041 90.2773 709.762 88.7375C710.74 86.383 713.6 83.6296 715.729 82.2162C721.043 78.5331 718.678 79.2578 724.78 77.2357C724.98 77.2252 725.075 77.1201 725.374 77.1044C724.827 78.1345 723.96 78.7807 723.208 79.7214C723.807 79.69 724.186 79.2696 724.37 78.9595C725.863 76.8785 728.018 75.9645 730.489 75.3343C734.042 74.347 737.595 73.3597 741.295 73.2659C742.294 73.2136 743.298 73.2611 744.212 73.5136C746.141 74.0133 747.003 75.1698 746.708 77.188C746.271 80.3152 744.604 82.906 742.832 85.4021C741.807 86.8578 741.634 87.3675 740.503 88.7286C740.314 88.9388 739.163 89.9003 738.863 89.916C735.584 90.3883 732.34 91.5597 729.292 92.6207C729.807 92.8941 729.802 92.7942 730.301 92.7681C732.387 92.4584 734.374 92.154 736.461 91.8444C736.661 91.8339 736.866 91.9233 737.176 92.1074C735.646 93.4893 734.216 94.866 732.791 96.3426C731.461 97.7141 729.679 98.1079 727.882 98.2021C726.284 98.2858 724.602 98.6744 723.136 99.3521C722.936 99.3626 722.741 99.4729 722.542 99.4833C722.342 99.4938 722.242 99.499 722.147 99.6041C722.048 99.6094 721.948 99.6146 721.853 99.7197C721.753 99.7249 721.648 99.6303 721.659 99.83C721.659 99.83 721.858 99.8196 721.963 99.9142L722.258 99.7986C722.457 99.7882 722.552 99.6831 722.752 99.6726C722.957 99.762 723.151 99.6517 723.351 99.6412C725.238 99.342 727.025 99.0481 729.232 99.1327C727.792 100.31 726.441 101.282 725.19 102.249C721.721 104.834 721.857 105.527 718.603 108.402C718.409 108.512 718.319 108.717 718.014 108.633C714.913 108.695 712.049 109.446 709.084 110.202C711.491 110.276 713.773 109.857 716.39 110.12C714.093 112.143 716.768 109.7 714.561 111.518C712.453 113.33 710.45 115.238 708.236 116.956C706.796 118.133 705.025 118.726 703.369 119.614C701.23 120.828 698.985 121.947 696.741 123.066C696.646 123.171 696.546 123.176 696.352 123.287C696.252 123.292 696.147 123.197 696.157 123.397C696.157 123.397 696.262 123.492 696.362 123.486C696.562 123.476 696.656 123.371 696.856 123.36C698.049 123.198 699.332 122.83 700.619 122.562Z" fill="#D3D8E0"/>
<path fill-rule="evenodd" clip-rule="evenodd" d="M671.041 139.033C672.066 137.577 673.196 136.216 674.322 134.755C675.362 133.599 676.403 132.443 677.339 131.193C680.551 127.519 686.66 121.792 693.163 115.943C692.931 117.257 671.75 139.196 671.041 139.033ZM696.57 108.355L701.423 99.6889C703.6 97.2716 706.155 94.434 706.155 94.434C706.975 92.889 709.246 90.3667 709.967 88.8269C711.045 86.4672 713.805 83.719 715.934 82.3056C721.248 78.6224 718.883 79.3472 724.985 77.3251C725.185 77.3146 725.28 77.2095 725.579 77.1938C725.032 78.2238 724.165 78.8701 723.413 79.8108C724.012 79.7794 724.391 79.359 724.575 79.0489C726.068 76.9679 728.223 76.0539 730.594 75.429C734.147 74.4416 737.7 73.4543 741.4 73.3606C742.399 73.3082 743.403 73.3557 744.317 73.6082C746.246 74.108 747.108 75.2645 746.813 77.2826C746.539 79.7003 745.445 81.7604 744.241 83.6259C744.442 81.7128 743.68 80.5511 741.751 80.0514C740.836 79.7989 739.833 79.7514 738.834 79.8037C735.139 79.9973 731.586 80.9846 728.027 81.8721C725.657 82.497 723.502 83.4111 722.009 85.4921C721.725 85.8073 721.446 86.2225 720.847 86.2539C721.499 85.3185 722.366 84.6722 723.013 83.637C722.719 83.7525 722.519 83.763 722.419 83.7682C716.316 85.7904 718.682 85.0656 713.367 88.7488C711.238 90.1621 708.478 92.9103 707.4 95.27C706.68 96.8098 704.409 99.3321 703.589 100.877C703.589 100.877 699.993 104.871 697.722 107.393C697.338 107.714 696.954 108.034 696.57 108.355ZM665.064 143.452C663.744 145.023 653.734 158.465 652.52 160.131C652.126 158.349 661.747 145.128 662.583 143.882C665.002 140.351 667.956 139.395 665.064 143.452ZM666.386 132.367C664.967 130.139 665.052 127.931 666.235 125.666C665.556 128.005 665.666 130.102 667.363 131.916C667.185 132.326 667.006 132.735 666.727 133.151C666.711 132.851 666.596 132.557 666.386 132.367ZM672.422 121.436C673.915 119.355 675.513 117.369 677.316 115.472C677.085 116.786 676.748 118.005 676.517 119.319C678.541 115.909 679.325 111.762 682.999 109.266C682.479 110.796 681.958 112.325 681.348 114.059C682.757 112.283 683.961 110.417 684.965 108.562C687.615 103.717 686.616 105.672 690.533 102.062C696.352 96.55 697.404 95.5936 703.649 90.5599C704.805 89.6982 705.862 88.8417 707.113 87.8749L702.623 95.8208C702.044 96.2517 701.566 96.6773 700.988 97.1081C694.743 102.142 693.691 103.098 687.872 108.61C683.961 112.32 684.96 110.365 682.304 115.111C681.3 116.966 680.191 118.726 678.687 120.607C679.297 118.873 679.818 117.344 680.338 115.814C676.664 118.31 675.98 122.452 673.856 125.868C674.087 124.554 674.424 123.334 674.656 122.02C672.752 123.923 671.154 125.909 669.761 127.985C669.109 128.92 668.552 129.75 668.005 130.78C668.826 127.333 670.471 124.343 672.422 121.436Z" fill="white"/>
</g>
<defs>
<clipPath id="clip0">
<rect width="882" height="300" fill="white"/>
</clipPath>
</defs>
</svg>
