<svg width="882" height="300" viewBox="0 0 882 300" fill="none" xmlns="http://www.w3.org/2000/svg">
<g clip-path="url(#clip0)">
<rect width="882" height="300" fill="white"/>
<rect width="882" height="210" fill="black"/>
<path d="M64.4062 101V68.3516H77.1328C78.7578 68.3516 80.1641 68.4688 81.3516 68.7031C82.5391 68.9219 83.6016 69.3672 84.5391 70.0391C86.4141 71.3672 87.3516 73.4219 87.3516 76.2031C87.3516 78.1094 86.9062 79.7422 86.0156 81.1016C85.1406 82.4609 83.9375 83.4297 82.4062 84.0078C84.1406 84.4922 85.5156 85.3672 86.5312 86.6328C87.5625 87.8984 88.0781 89.5156 88.0781 91.4844C88.0781 94.6562 87.25 97.0156 85.5938 98.5625C84.6719 99.3906 83.5234 100.008 82.1484 100.414C80.7891 100.805 79.1953 101 77.3672 101H64.4062ZM68.9766 96.9219H79.2422C80.4609 96.9219 81.4375 96.6328 82.1719 96.0547C82.9062 95.4766 83.2734 94.5781 83.2734 93.3594V89.4219C83.2734 88.3281 82.9375 87.5156 82.2656 86.9844C81.5938 86.4375 80.6875 86.1641 79.5469 86.1641H68.9766V96.9219ZM68.9766 82.0859H79.0078C80.2266 82.0859 81.125 81.7656 81.7031 81.125C82.2812 80.4844 82.5703 79.6562 82.5703 78.6406V75.7109C82.5703 73.5391 81.3828 72.4453 79.0078 72.4297H68.9766V82.0859ZM93.8203 88.7656C93.8203 86.9062 94.0391 85.1875 94.4766 83.6094C94.9297 82.0156 95.6094 80.6641 96.5156 79.5547C97.4375 78.4297 98.5859 77.5469 99.9609 76.9062C101.336 76.2656 102.953 75.9453 104.812 75.9453C106.672 75.9453 108.289 76.2656 109.664 76.9062C111.039 77.5469 112.18 78.4297 113.086 79.5547C113.992 80.6641 114.672 82.0156 115.125 83.6094C115.578 85.1875 115.805 86.9062 115.805 88.7656C115.805 90.6562 115.578 92.3828 115.125 93.9453C114.672 95.5078 113.992 96.8516 113.086 97.9766C112.18 99.1016 111.031 99.9844 109.641 100.625C108.266 101.266 106.656 101.586 104.812 101.586C102.953 101.586 101.336 101.266 99.9609 100.625C98.5859 99.9844 97.4375 99.1016 96.5156 97.9766C95.6094 96.8516 94.9297 95.5078 94.4766 93.9453C94.0391 92.3828 93.8203 90.6562 93.8203 88.7656ZM98.3672 92.5625C98.3672 93.3906 98.5391 94.1484 98.8828 94.8359C99.2422 95.5234 99.7109 96.1094 100.289 96.5938C100.867 97.0625 101.547 97.4375 102.328 97.7188C103.109 97.9844 103.938 98.1172 104.812 98.1172C105.672 98.1172 106.492 97.9844 107.273 97.7188C108.055 97.4375 108.734 97.0625 109.312 96.5938C109.891 96.1094 110.352 95.5234 110.695 94.8359C111.055 94.1484 111.234 93.3906 111.234 92.5625V84.9688C111.234 84.1406 111.055 83.3828 110.695 82.6953C110.352 82.0078 109.891 81.4219 109.312 80.9375C108.734 80.4531 108.055 80.0781 107.273 79.8125C106.492 79.5312 105.672 79.3906 104.812 79.3906C103.953 79.3906 103.125 79.5312 102.328 79.8125C101.547 80.0781 100.867 80.4531 100.289 80.9375C99.7109 81.4219 99.2422 82.0078 98.8828 82.6953C98.5391 83.3828 98.3672 84.1406 98.3672 84.9688V92.5625ZM122.297 92.8438V76.5312H126.609V92.3516C126.609 94.1172 126.953 95.5234 127.641 96.5703C128.328 97.6016 129.586 98.1172 131.414 98.1172C133.242 98.1172 134.688 97.4375 135.75 96.0781C136.828 94.7188 137.367 92.9688 137.367 90.8281V76.5312H141.68V101H137.367V96.9688C136.695 98.4062 135.797 99.5391 134.672 100.367C133.547 101.18 132.062 101.586 130.219 101.586C129.094 101.586 128.039 101.422 127.055 101.094C126.086 100.781 125.25 100.273 124.547 99.5703C123.844 98.8672 123.289 97.9609 122.883 96.8516C122.492 95.7422 122.297 94.4062 122.297 92.8438ZM149.672 101V76.5312H153.984V80.5625C154.656 79.125 155.578 78 156.75 77.1875C157.922 76.3594 159.438 75.9453 161.297 75.9453C162.484 75.9453 163.562 76.1094 164.531 76.4375C165.5 76.75 166.336 77.2578 167.039 77.9609C167.742 78.6641 168.289 79.5703 168.68 80.6797C169.07 81.7734 169.266 83.1094 169.266 84.6875V101H164.93V85.1562C164.93 83.3594 164.586 81.9531 163.898 80.9375C163.211 79.9062 161.938 79.3906 160.078 79.3906C159.188 79.3906 158.375 79.5703 157.641 79.9297C156.906 80.2734 156.266 80.7734 155.719 81.4297C155.172 82.0859 154.742 82.8672 154.43 83.7734C154.133 84.6641 153.984 85.6406 153.984 86.7031V101H149.672ZM174.703 80.2109V76.5312H178.828V68.3516H183.094V76.5312H188.719V80.2109H183.094V97.2969H188.719V101H178.828V80.2109H174.703ZM194.625 72.875V68.3516H199.125V72.875H194.625ZM194.719 101V76.5312H199.031V101H194.719ZM205.711 88.7656C205.711 86.9062 205.938 85.1875 206.391 83.6094C206.859 82.0156 207.547 80.6641 208.453 79.5547C209.375 78.4297 210.484 77.5469 211.781 76.9062C213.078 76.2656 214.57 75.9453 216.258 75.9453C218.023 75.9453 219.562 76.25 220.875 76.8594C222.188 77.4688 223.273 78.3047 224.133 79.3672C224.992 80.4141 225.641 81.6484 226.078 83.0703C226.516 84.4922 226.734 86.0234 226.734 87.6641V89.9609H210.258V92.5625C210.258 93.4531 210.422 94.2422 210.75 94.9297C211.094 95.6172 211.555 96.2031 212.133 96.6875C212.711 97.1562 213.359 97.5156 214.078 97.7656C214.797 98 215.539 98.1172 216.305 98.1172C217.836 98.1172 219.164 97.7266 220.289 96.9453C221.414 96.1641 222.055 94.9219 222.211 93.2188H226.547C226.453 94.5312 226.109 95.7031 225.516 96.7344C224.922 97.75 224.148 98.6172 223.195 99.3359C222.258 100.055 221.195 100.609 220.008 101C218.82 101.391 217.57 101.586 216.258 101.586C214.492 101.586 212.945 101.266 211.617 100.625C210.305 99.9844 209.203 99.1016 208.312 97.9766C207.438 96.8516 206.781 95.5078 206.344 93.9453C205.922 92.3828 205.711 90.6562 205.711 88.7656ZM210.258 86.5156H222.258V85.1562C222.258 84.2656 222.094 83.4609 221.766 82.7422C221.453 82.0234 221.016 81.4141 220.453 80.9141C219.906 80.4141 219.266 80.0391 218.531 79.7891C217.812 79.5234 217.055 79.3906 216.258 79.3906C215.461 79.3906 214.703 79.5234 213.984 79.7891C213.266 80.0391 212.625 80.4141 212.062 80.9141C211.5 81.4141 211.055 82.0234 210.727 82.7422C210.414 83.4609 210.258 84.2656 210.258 85.1562V86.5156ZM231.703 93.2656H236.039C236.102 94.8906 236.68 96.1094 237.773 96.9219C238.883 97.7188 240.188 98.1172 241.688 98.1172C243.125 98.1172 244.375 97.7969 245.438 97.1562C246.5 96.5156 247.031 95.5859 247.031 94.3672C247.031 93.3828 246.711 92.5938 246.07 92C245.43 91.4062 244.289 90.9531 242.648 90.6406L238.617 89.8203C236.602 89.3984 235.047 88.625 233.953 87.5C232.875 86.3594 232.336 84.8281 232.336 82.9062C232.336 81.9531 232.547 81.0547 232.969 80.2109C233.406 79.3516 234.023 78.6094 234.82 77.9844C235.633 77.3594 236.578 76.8672 237.656 76.5078C238.75 76.1328 239.969 75.9453 241.312 75.9453C242.469 75.9453 243.594 76.1016 244.688 76.4141C245.797 76.7109 246.781 77.1797 247.641 77.8203C248.516 78.4609 249.211 79.2812 249.727 80.2812C250.258 81.2656 250.539 82.4453 250.57 83.8203H246.258C246.195 82.1953 245.688 81.0547 244.734 80.3984C243.797 79.7266 242.672 79.3906 241.359 79.3906C240.016 79.3906 238.875 79.7109 237.938 80.3516C237.016 80.9922 236.555 81.8281 236.555 82.8594C236.555 83.8125 236.828 84.5547 237.375 85.0859C237.922 85.6172 238.805 86.0078 240.023 86.2578L244.148 87.125C246.586 87.6406 248.391 88.4766 249.562 89.6328C250.75 90.7734 251.344 92.3359 251.344 94.3203C251.344 95.3516 251.109 96.3125 250.641 97.2031C250.188 98.0781 249.523 98.8359 248.648 99.4766C247.789 100.102 246.766 100.609 245.578 101C244.391 101.391 243.078 101.586 241.641 101.586C240.266 101.586 238.977 101.406 237.773 101.047C236.586 100.703 235.539 100.188 234.633 99.5C233.742 98.7969 233.039 97.9297 232.523 96.8984C232.008 95.8516 231.734 94.6406 231.703 93.2656Z" fill="white"/>
<path d="M70.7727 137C70.3409 134.614 68.4318 133.205 66.0909 133.205C63.1136 133.205 60.9545 135.5 60.9545 139.182C60.9545 142.864 63.1136 145.159 66.0909 145.159C68.4318 145.159 70.3409 143.75 70.7727 141.364H69.3636C69.0227 142.977 67.6364 143.841 66.0909 143.841C63.9773 143.841 62.3182 142.205 62.3182 139.182C62.3182 136.159 63.9773 134.523 66.0909 134.523C67.6364 134.523 69.0227 135.386 69.3636 137H70.7727ZM76.4134 145.182C78.777 145.182 80.3679 143.386 80.3679 140.682C80.3679 137.955 78.777 136.159 76.4134 136.159C74.0497 136.159 72.4588 137.955 72.4588 140.682C72.4588 143.386 74.0497 145.182 76.4134 145.182ZM76.4134 143.977C74.6179 143.977 73.7997 142.432 73.7997 140.682C73.7997 138.932 74.6179 137.364 76.4134 137.364C78.2088 137.364 79.027 138.932 79.027 140.682C79.027 142.432 78.2088 143.977 76.4134 143.977ZM83.7557 139.75C83.7557 138.227 84.6989 137.364 85.983 137.364C87.2273 137.364 87.983 138.176 87.983 139.545V145H89.3239V139.455C89.3239 137.227 88.1364 136.159 86.3693 136.159C85.0511 136.159 84.233 136.75 83.8239 137.636H83.7102V136.273H82.4148V145H83.7557V139.75ZM95.5696 136.273H93.706V134.182H92.3651V136.273H91.0469V137.409H92.3651V142.864C92.3651 144.386 93.5923 145.114 94.7287 145.114C95.2287 145.114 95.5469 145.023 95.7287 144.955L95.456 143.75C95.3423 143.773 95.1605 143.818 94.8651 143.818C94.2741 143.818 93.706 143.636 93.706 142.5V137.409H95.5696V136.273ZM97.5866 145H98.9276V139.477C98.9276 138.295 99.8594 137.432 101.132 137.432C101.49 137.432 101.859 137.5 101.95 137.523V136.159C101.797 136.148 101.445 136.136 101.246 136.136C100.2 136.136 99.2912 136.727 98.973 137.591H98.8821V136.273H97.5866V145ZM103.54 145H104.881V136.273H103.54V145ZM104.222 134.818C104.744 134.818 105.176 134.409 105.176 133.909C105.176 133.409 104.744 133 104.222 133C103.699 133 103.267 133.409 103.267 133.909C103.267 134.409 103.699 134.818 104.222 134.818ZM107.518 145H108.814V143.659H108.973C109.268 144.136 109.837 145.182 111.518 145.182C113.7 145.182 115.223 143.432 115.223 140.659C115.223 137.909 113.7 136.159 111.496 136.159C109.791 136.159 109.268 137.205 108.973 137.659H108.859V133.364H107.518V145ZM108.837 140.636C108.837 138.682 109.7 137.364 111.337 137.364C113.041 137.364 113.882 138.795 113.882 140.636C113.882 142.5 113.018 143.977 111.337 143.977C109.723 143.977 108.837 142.614 108.837 140.636ZM122.774 141.432C122.774 143.068 121.524 143.818 120.524 143.818C119.411 143.818 118.615 143 118.615 141.727V136.273H117.274V141.818C117.274 144.045 118.456 145.114 120.092 145.114C121.411 145.114 122.274 144.409 122.683 143.523H122.774V145H124.115V136.273H122.774V141.432ZM130.366 136.273H128.503V134.182H127.162V136.273H125.844V137.409H127.162V142.864C127.162 144.386 128.389 145.114 129.526 145.114C130.026 145.114 130.344 145.023 130.526 144.955L130.253 143.75C130.139 143.773 129.957 143.818 129.662 143.818C129.071 143.818 128.503 143.636 128.503 142.5V137.409H130.366V136.273ZM135.949 145.182C137.722 145.182 139.017 144.295 139.426 142.977L138.131 142.614C137.79 143.523 137 143.977 135.949 143.977C134.375 143.977 133.29 142.96 133.227 141.091H139.562V140.523C139.562 137.273 137.631 136.159 135.812 136.159C133.449 136.159 131.881 138.023 131.881 140.705C131.881 143.386 133.426 145.182 135.949 145.182ZM133.227 139.932C133.318 138.574 134.278 137.364 135.812 137.364C137.267 137.364 138.199 138.455 138.199 139.932H133.227ZM149.898 136.273H148.034V134.182H146.693V136.273H145.375V137.409H146.693V142.864C146.693 144.386 147.92 145.114 149.057 145.114C149.557 145.114 149.875 145.023 150.057 144.955L149.784 143.75C149.67 143.773 149.489 143.818 149.193 143.818C148.602 143.818 148.034 143.636 148.034 142.5V137.409H149.898V136.273ZM155.366 145.182C157.73 145.182 159.321 143.386 159.321 140.682C159.321 137.955 157.73 136.159 155.366 136.159C153.003 136.159 151.412 137.955 151.412 140.682C151.412 143.386 153.003 145.182 155.366 145.182ZM155.366 143.977C153.571 143.977 152.753 142.432 152.753 140.682C152.753 138.932 153.571 137.364 155.366 137.364C157.162 137.364 157.98 138.932 157.98 140.682C157.98 142.432 157.162 143.977 155.366 143.977ZM170.504 133.364V141.682C170.504 143.131 169.811 143.909 168.595 143.909C167.487 143.909 166.686 143.261 166.686 142.273H165.3C165.3 144.062 166.686 145.159 168.595 145.159C170.618 145.159 171.913 143.915 171.913 141.682V133.364H170.504ZM178.101 145.182C180.464 145.182 182.055 143.386 182.055 140.682C182.055 137.955 180.464 136.159 178.101 136.159C175.737 136.159 174.146 137.955 174.146 140.682C174.146 143.386 175.737 145.182 178.101 145.182ZM178.101 143.977C176.305 143.977 175.487 142.432 175.487 140.682C175.487 138.932 176.305 137.364 178.101 137.364C179.896 137.364 180.714 138.932 180.714 140.682C180.714 142.432 179.896 143.977 178.101 143.977ZM184.653 148.25C185.864 148.25 186.722 147.608 187.222 146.273L190.938 136.295L189.472 136.273L187.062 143.227H186.972L184.562 136.273H183.108L186.335 145.045L186.085 145.727C185.608 147.034 184.994 147.159 184.017 146.909L183.676 148.091C183.812 148.159 184.199 148.25 184.653 148.25ZM198.893 138.227C198.473 136.989 197.53 136.159 195.803 136.159C193.962 136.159 192.598 137.205 192.598 138.682C192.598 139.886 193.314 140.693 194.916 141.068L196.371 141.409C197.251 141.614 197.666 142.034 197.666 142.636C197.666 143.386 196.871 144 195.621 144C194.524 144 193.837 143.528 193.598 142.591L192.325 142.909C192.638 144.392 193.859 145.182 195.643 145.182C197.672 145.182 199.053 144.074 199.053 142.568C199.053 141.352 198.291 140.585 196.734 140.205L195.439 139.886C194.405 139.631 193.939 139.284 193.939 138.614C193.939 137.864 194.734 137.318 195.803 137.318C196.973 137.318 197.456 137.966 197.689 138.568L198.893 138.227ZM204.866 136.273H203.003V134.182H201.662V136.273H200.344V137.409H201.662V142.864C201.662 144.386 202.889 145.114 204.026 145.114C204.526 145.114 204.844 145.023 205.026 144.955L204.753 143.75C204.639 143.773 204.457 143.818 204.162 143.818C203.571 143.818 203.003 143.636 203.003 142.5V137.409H204.866V136.273ZM206.884 145H208.224V139.477C208.224 138.295 209.156 137.432 210.429 137.432C210.787 137.432 211.156 137.5 211.247 137.523V136.159C211.094 136.148 210.741 136.136 210.543 136.136C209.497 136.136 208.588 136.727 208.27 137.591H208.179V136.273H206.884V145ZM216.23 145.182C218.003 145.182 219.298 144.295 219.707 142.977L218.412 142.614C218.071 143.523 217.281 143.977 216.23 143.977C214.656 143.977 213.571 142.96 213.509 141.091H219.844V140.523C219.844 137.273 217.912 136.159 216.094 136.159C213.73 136.159 212.162 138.023 212.162 140.705C212.162 143.386 213.707 145.182 216.23 145.182ZM213.509 139.932C213.599 138.574 214.56 137.364 216.094 137.364C217.548 137.364 218.48 138.455 218.48 139.932H213.509ZM224.452 145.205C225.974 145.205 226.77 144.386 227.043 143.818H227.111V145H228.452V139.25C228.452 136.477 226.338 136.159 225.224 136.159C223.906 136.159 222.406 136.614 221.724 138.205L222.997 138.659C223.293 138.023 223.991 137.341 225.27 137.341C226.503 137.341 227.111 137.994 227.111 139.114V139.159C227.111 139.807 226.452 139.75 224.861 139.955C223.241 140.165 221.474 140.523 221.474 142.523C221.474 144.227 222.793 145.205 224.452 145.205ZM224.656 144C223.588 144 222.815 143.523 222.815 142.591C222.815 141.568 223.747 141.25 224.793 141.114C225.361 141.045 226.884 140.886 227.111 140.614V141.841C227.111 142.932 226.247 144 224.656 144ZM230.899 145H232.24V139.545C232.24 138.267 233.172 137.364 234.217 137.364C235.234 137.364 235.945 138.028 235.945 139.023V145H237.308V139.318C237.308 138.193 238.013 137.364 239.24 137.364C240.195 137.364 241.013 137.869 241.013 139.159V145H242.354V139.159C242.354 137.108 241.251 136.159 239.695 136.159C238.445 136.159 237.53 136.733 237.081 137.636H236.99C236.558 136.705 235.797 136.159 234.649 136.159C233.513 136.159 232.672 136.705 232.308 137.636H232.195V136.273H230.899V145ZM246.805 143.409H245.351L245.283 144.045C245.118 145.585 244.794 147.119 244.646 147.841H245.669C245.942 147.068 246.521 145.318 246.714 144.023L246.805 143.409ZM256.358 145.205C257.881 145.205 258.676 144.386 258.949 143.818H259.017V145H260.358V139.25C260.358 136.477 258.244 136.159 257.131 136.159C255.812 136.159 254.312 136.614 253.631 138.205L254.903 138.659C255.199 138.023 255.898 137.341 257.176 137.341C258.409 137.341 259.017 137.994 259.017 139.114V139.159C259.017 139.807 258.358 139.75 256.767 139.955C255.148 140.165 253.381 140.523 253.381 142.523C253.381 144.227 254.699 145.205 256.358 145.205ZM256.562 144C255.494 144 254.722 143.523 254.722 142.591C254.722 141.568 255.653 141.25 256.699 141.114C257.267 141.045 258.79 140.886 259.017 140.614V141.841C259.017 142.932 258.153 144 256.562 144ZM264.146 139.75C264.146 138.227 265.089 137.364 266.374 137.364C267.618 137.364 268.374 138.176 268.374 139.545V145H269.714V139.455C269.714 137.227 268.527 136.159 266.76 136.159C265.442 136.159 264.624 136.75 264.214 137.636H264.101V136.273H262.805V145H264.146V139.75ZM275.46 145.182C277.142 145.182 277.71 144.136 278.006 143.659H278.165V145H279.46V133.364H278.119V137.659H278.006C277.71 137.205 277.188 136.159 275.483 136.159C273.278 136.159 271.756 137.909 271.756 140.659C271.756 143.432 273.278 145.182 275.46 145.182ZM275.642 143.977C273.96 143.977 273.097 142.5 273.097 140.636C273.097 138.795 273.938 137.364 275.642 137.364C277.278 137.364 278.142 138.682 278.142 140.636C278.142 142.614 277.256 143.977 275.642 143.977ZM290.261 145.182C292.034 145.182 293.33 144.295 293.739 142.977L292.443 142.614C292.102 143.523 291.312 143.977 290.261 143.977C288.688 143.977 287.602 142.96 287.54 141.091H293.875V140.523C293.875 137.273 291.943 136.159 290.125 136.159C287.761 136.159 286.193 138.023 286.193 140.705C286.193 143.386 287.739 145.182 290.261 145.182ZM287.54 139.932C287.631 138.574 288.591 137.364 290.125 137.364C291.58 137.364 292.511 138.455 292.511 139.932H287.54ZM298.483 145.205C300.006 145.205 300.801 144.386 301.074 143.818H301.142V145H302.483V139.25C302.483 136.477 300.369 136.159 299.256 136.159C297.938 136.159 296.438 136.614 295.756 138.205L297.028 138.659C297.324 138.023 298.023 137.341 299.301 137.341C300.534 137.341 301.142 137.994 301.142 139.114V139.159C301.142 139.807 300.483 139.75 298.892 139.955C297.273 140.165 295.506 140.523 295.506 142.523C295.506 144.227 296.824 145.205 298.483 145.205ZM298.688 144C297.619 144 296.847 143.523 296.847 142.591C296.847 141.568 297.778 141.25 298.824 141.114C299.392 141.045 300.915 140.886 301.142 140.614V141.841C301.142 142.932 300.278 144 298.688 144ZM304.93 145H306.271V139.477C306.271 138.295 307.203 137.432 308.476 137.432C308.834 137.432 309.203 137.5 309.294 137.523V136.159C309.141 136.148 308.788 136.136 308.589 136.136C307.544 136.136 306.635 136.727 306.317 137.591H306.226V136.273H304.93V145ZM312.224 139.75C312.224 138.227 313.168 137.364 314.452 137.364C315.696 137.364 316.452 138.176 316.452 139.545V145H317.793V139.455C317.793 137.227 316.605 136.159 314.838 136.159C313.52 136.159 312.702 136.75 312.293 137.636H312.179V136.273H310.884V145H312.224V139.75ZM324.925 145H326.22V143.659H326.379C326.675 144.136 327.243 145.182 328.925 145.182C331.107 145.182 332.629 143.432 332.629 140.659C332.629 137.909 331.107 136.159 328.902 136.159C327.197 136.159 326.675 137.205 326.379 137.659H326.266V133.364H324.925V145ZM326.243 140.636C326.243 138.682 327.107 137.364 328.743 137.364C330.447 137.364 331.288 138.795 331.288 140.636C331.288 142.5 330.425 143.977 328.743 143.977C327.129 143.977 326.243 142.614 326.243 140.636ZM338.226 145.182C340.589 145.182 342.18 143.386 342.18 140.682C342.18 137.955 340.589 136.159 338.226 136.159C335.862 136.159 334.271 137.955 334.271 140.682C334.271 143.386 335.862 145.182 338.226 145.182ZM338.226 143.977C336.43 143.977 335.612 142.432 335.612 140.682C335.612 138.932 336.43 137.364 338.226 137.364C340.021 137.364 340.839 138.932 340.839 140.682C340.839 142.432 340.021 143.977 338.226 143.977ZM349.727 141.432C349.727 143.068 348.477 143.818 347.477 143.818C346.364 143.818 345.568 143 345.568 141.727V136.273H344.227V141.818C344.227 144.045 345.409 145.114 347.045 145.114C348.364 145.114 349.227 144.409 349.636 143.523H349.727V145H351.068V136.273H349.727V141.432ZM354.865 139.75C354.865 138.227 355.808 137.364 357.092 137.364C358.337 137.364 359.092 138.176 359.092 139.545V145H360.433V139.455C360.433 137.227 359.246 136.159 357.479 136.159C356.161 136.159 355.342 136.75 354.933 137.636H354.82V136.273H353.524V145H354.865V139.75ZM366.679 136.273H364.815V134.182H363.474V136.273H362.156V137.409H363.474V142.864C363.474 144.386 364.702 145.114 365.838 145.114C366.338 145.114 366.656 145.023 366.838 144.955L366.565 143.75C366.452 143.773 366.27 143.818 365.974 143.818C365.384 143.818 364.815 143.636 364.815 142.5V137.409H366.679V136.273ZM368.696 145H370.037V136.273H368.696V145ZM369.378 134.818C369.901 134.818 370.332 134.409 370.332 133.909C370.332 133.409 369.901 133 369.378 133C368.855 133 368.423 133.409 368.423 133.909C368.423 134.409 368.855 134.818 369.378 134.818ZM376.152 145.182C377.925 145.182 379.22 144.295 379.629 142.977L378.334 142.614C377.993 143.523 377.203 143.977 376.152 143.977C374.578 143.977 373.493 142.96 373.43 141.091H379.766V140.523C379.766 137.273 377.834 136.159 376.016 136.159C373.652 136.159 372.084 138.023 372.084 140.705C372.084 143.386 373.629 145.182 376.152 145.182ZM373.43 139.932C373.521 138.574 374.482 137.364 376.016 137.364C377.47 137.364 378.402 138.455 378.402 139.932H373.43ZM387.987 138.227C387.567 136.989 386.624 136.159 384.896 136.159C383.055 136.159 381.692 137.205 381.692 138.682C381.692 139.886 382.408 140.693 384.01 141.068L385.464 141.409C386.345 141.614 386.76 142.034 386.76 142.636C386.76 143.386 385.964 144 384.714 144C383.618 144 382.93 143.528 382.692 142.591L381.419 142.909C381.732 144.392 382.953 145.182 384.737 145.182C386.766 145.182 388.146 144.074 388.146 142.568C388.146 141.352 387.385 140.585 385.828 140.205L384.533 139.886C383.499 139.631 383.033 139.284 383.033 138.614C383.033 137.864 383.828 137.318 384.896 137.318C386.067 137.318 386.55 137.966 386.783 138.568L387.987 138.227ZM398.551 136.273H396.597V135.386C396.597 134.523 396.96 134.068 397.847 134.068C398.233 134.068 398.46 134.159 398.597 134.205L398.983 133.045C398.778 132.955 398.369 132.818 397.71 132.818C396.46 132.818 395.256 133.568 395.256 135.068V136.273H393.847V137.409H395.256V145H396.597V137.409H398.551V136.273ZM403.616 145.182C405.98 145.182 407.571 143.386 407.571 140.682C407.571 137.955 405.98 136.159 403.616 136.159C401.253 136.159 399.662 137.955 399.662 140.682C399.662 143.386 401.253 145.182 403.616 145.182ZM403.616 143.977C401.821 143.977 401.003 142.432 401.003 140.682C401.003 138.932 401.821 137.364 403.616 137.364C405.412 137.364 406.23 138.932 406.23 140.682C406.23 142.432 405.412 143.977 403.616 143.977ZM409.618 145H410.959V139.477C410.959 138.295 411.891 137.432 413.163 137.432C413.521 137.432 413.891 137.5 413.982 137.523V136.159C413.828 136.148 413.476 136.136 413.277 136.136C412.232 136.136 411.322 136.727 411.004 137.591H410.913V136.273H409.618V145ZM420.935 148.25C422.145 148.25 423.003 147.608 423.503 146.273L427.219 136.295L425.753 136.273L423.344 143.227H423.253L420.844 136.273H419.389L422.616 145.045L422.366 145.727C421.889 147.034 421.276 147.159 420.298 146.909L419.957 148.091C420.094 148.159 420.48 148.25 420.935 148.25ZM432.226 145.182C434.589 145.182 436.18 143.386 436.18 140.682C436.18 137.955 434.589 136.159 432.226 136.159C429.862 136.159 428.271 137.955 428.271 140.682C428.271 143.386 429.862 145.182 432.226 145.182ZM432.226 143.977C430.43 143.977 429.612 142.432 429.612 140.682C429.612 138.932 430.43 137.364 432.226 137.364C434.021 137.364 434.839 138.932 434.839 140.682C434.839 142.432 434.021 143.977 432.226 143.977ZM443.727 141.432C443.727 143.068 442.477 143.818 441.477 143.818C440.364 143.818 439.568 143 439.568 141.727V136.273H438.227V141.818C438.227 144.045 439.409 145.114 441.045 145.114C442.364 145.114 443.227 144.409 443.636 143.523H443.727V145H445.068V136.273H443.727V141.432ZM447.524 145H448.865V139.477C448.865 138.295 449.797 137.432 451.07 137.432C451.428 137.432 451.797 137.5 451.888 137.523V136.159C451.734 136.148 451.382 136.136 451.183 136.136C450.138 136.136 449.229 136.727 448.911 137.591H448.82V136.273H447.524V145ZM459.955 145H461.273L463.182 138.295H463.318L465.227 145H466.545L469.205 136.273H467.795L465.909 142.932H465.818L463.977 136.273H462.545L460.682 142.955H460.591L458.705 136.273H457.295L459.955 145ZM474.226 145.182C476.589 145.182 478.18 143.386 478.18 140.682C478.18 137.955 476.589 136.159 474.226 136.159C471.862 136.159 470.271 137.955 470.271 140.682C470.271 143.386 471.862 145.182 474.226 145.182ZM474.226 143.977C472.43 143.977 471.612 142.432 471.612 140.682C471.612 138.932 472.43 137.364 474.226 137.364C476.021 137.364 476.839 138.932 476.839 140.682C476.839 142.432 476.021 143.977 474.226 143.977ZM480.227 145H481.568V139.477C481.568 138.295 482.5 137.432 483.773 137.432C484.131 137.432 484.5 137.5 484.591 137.523V136.159C484.438 136.148 484.085 136.136 483.886 136.136C482.841 136.136 481.932 136.727 481.614 137.591H481.523V136.273H480.227V145ZM486.18 145H487.521V141.733L488.459 140.864L491.726 145H493.43L489.47 140L493.158 136.273H491.499L487.68 140.159H487.521V133.364H486.18V145Z" fill="#C4C3C6"/>
<rect x="620" y="105" width="52.5" height="52.5" fill="#1F242C"/>
<path d="M625.837 157.5H620V163.337H625.837V157.5Z" fill="#1F242C"/>
<path d="M631.674 163.337H625.837V169.174H631.674V163.337Z" fill="#1F242C"/>
<path d="M637.494 157.5H631.658V163.337H637.494V157.5Z" fill="#1F242C"/>
<path d="M625.837 169.158H620V174.995H625.837V169.158Z" fill="#1F242C"/>
<path d="M637.494 169.158H631.658V174.995H637.494V169.158Z" fill="#1F242C"/>
<path d="M643.332 163.337H637.496V169.174H643.332V163.337Z" fill="#1F242C"/>
<path d="M631.674 174.995H625.837V180.832H631.674V174.995Z" fill="#1F242C"/>
<path d="M625.837 180.832H620V186.669H625.837V180.832Z" fill="#1F242C"/>
<path d="M637.494 180.832H631.658V186.669H637.494V180.832Z" fill="#1F242C"/>
<path d="M643.332 174.995H637.496V180.832H643.332V174.995Z" fill="#1F242C"/>
<path d="M631.674 186.668H625.837V192.505H631.674V186.668Z" fill="#1F242C"/>
<path d="M625.837 192.489H620V198.326H625.837V192.489Z" fill="#1F242C"/>
<path d="M637.494 192.489H631.658V198.326H637.494V192.489Z" fill="#1F242C"/>
<path d="M643.332 186.668H637.496V192.505H643.332V186.668Z" fill="#1F242C"/>
<path d="M631.674 198.326H625.837V204.163H631.674V198.326Z" fill="#1F242C"/>
<path d="M625.837 204.164H620V210.001H625.837V204.164Z" fill="#1F242C"/>
<path d="M637.494 204.164H631.658V210.001H637.494V204.164Z" fill="#1F242C"/>
<path d="M643.332 198.326H637.496V204.163H643.332V198.326Z" fill="#1F242C"/>
<path d="M649.168 157.5H643.331V163.337H649.168V157.5Z" fill="#1F242C"/>
<path d="M655.006 163.337H649.169V169.174H655.006V163.337Z" fill="#1F242C"/>
<path d="M660.826 157.5H654.99V163.337H660.826V157.5Z" fill="#1F242C"/>
<path d="M649.168 169.158H643.331V174.995H649.168V169.158Z" fill="#1F242C"/>
<path d="M660.826 169.158H654.99V174.995H660.826V169.158Z" fill="#1F242C"/>
<path d="M666.663 163.337H660.827V169.174H666.663V163.337Z" fill="#1F242C"/>
<path d="M655.006 174.995H649.169V180.832H655.006V174.995Z" fill="#1F242C"/>
<path d="M649.168 180.832H643.331V186.669H649.168V180.832Z" fill="#1F242C"/>
<path d="M660.826 180.832H654.99V186.669H660.826V180.832Z" fill="#1F242C"/>
<path d="M666.663 174.995H660.827V180.832H666.663V174.995Z" fill="#1F242C"/>
<path d="M655.006 186.668H649.169V192.505H655.006V186.668Z" fill="#1F242C"/>
<path d="M649.168 192.489H643.331V198.326H649.168V192.489Z" fill="#1F242C"/>
<path d="M660.826 192.489H654.99V198.326H660.826V192.489Z" fill="#1F242C"/>
<path d="M666.663 186.668H660.827V192.505H666.663V186.668Z" fill="#1F242C"/>
<path d="M655.006 198.326H649.169V204.163H655.006V198.326Z" fill="#1F242C"/>
<path d="M649.168 204.164H643.331V210.001H649.168V204.164Z" fill="#1F242C"/>
<path d="M660.826 204.164H654.99V210.001H660.826V204.164Z" fill="#1F242C"/>
<path d="M672.5 157.5H666.663V163.337H672.5V157.5Z" fill="#1F242C"/>
<path d="M672.5 169.158H666.663V174.995H672.5V169.158Z" fill="#1F242C"/>
<path d="M672.5 180.832H666.663V186.669H672.5V180.832Z" fill="#1F242C"/>
<path d="M672.5 192.489H666.663V198.326H672.5V192.489Z" fill="#1F242C"/>
<path d="M672.5 204.164H666.663V210.001H672.5V204.164Z" fill="#1F242C"/>
<path d="M666.663 198.326H660.827V204.163H666.663V198.326Z" fill="#1F242C"/>
<rect x="631.667" y="52.5" width="5.83333" height="52.5" fill="#1F242C"/>
<rect x="643.333" y="52.5" width="5.83333" height="52.5" fill="#1F242C"/>
<rect x="655" y="52.5" width="5.83333" height="52.5" fill="#1F242C"/>
<rect x="666.667" y="52.5" width="5.83333" height="52.5" fill="#1F242C"/>
<rect x="620" y="52.5" width="5.83668" height="52.5" fill="#1F242C"/>
<rect x="555.833" y="157.5" width="5.83333" height="52.5" transform="rotate(-180 555.833 157.5)" fill="#1F242C"/>
<rect x="544.167" y="157.5" width="5.83333" height="52.5" transform="rotate(-180 544.167 157.5)" fill="#1F242C"/>
<rect x="532.5" y="157.5" width="5.83333" height="52.5" transform="rotate(-180 532.5 157.5)" fill="#1F242C"/>
<rect x="520.833" y="157.5" width="5.83333" height="52.5" transform="rotate(-180 520.833 157.5)" fill="#1F242C"/>
<rect x="567.5" y="157.5" width="5.83668" height="52.5" transform="rotate(-180 567.5 157.5)" fill="#1F242C"/>
<rect x="870.505" y="53.4844" width="5.83333" height="52.5" transform="rotate(-180 870.505 53.4844)" fill="#1F242C"/>
<rect x="858.838" y="53.4844" width="5.83333" height="52.5" transform="rotate(-180 858.838 53.4844)" fill="#1F242C"/>
<rect x="847.172" y="53.4844" width="5.83333" height="52.5" transform="rotate(-180 847.172 53.4844)" fill="#1F242C"/>
<rect x="835.505" y="53.4844" width="5.83333" height="52.5" transform="rotate(-180 835.505 53.4844)" fill="#1F242C"/>
<rect x="882.172" y="53.4844" width="5.83668" height="52.5" transform="rotate(-180 882.172 53.4844)" fill="#1F242C"/>
<path fill-rule="evenodd" clip-rule="evenodd" d="M567.5 163.333V157.5C596.495 157.5 620 181.005 620 210H614.167C614.167 184.227 593.273 163.333 567.5 163.333ZM567.5 175V169.166C590.052 169.166 608.333 187.448 608.333 210H602.5C602.5 190.67 586.83 175 567.5 175ZM567.5 180.834V186.667C580.387 186.667 590.833 197.114 590.833 210L596.667 210C596.667 193.892 583.608 180.834 567.5 180.834ZM567.5 198.333V192.5C577.165 192.5 585 200.335 585 210H579.167C579.167 203.557 573.943 198.333 567.5 198.333ZM567.5 210V204.166C570.722 204.166 573.333 206.778 573.333 210H567.5Z" fill="#1F242C"/>
<path fill-rule="evenodd" clip-rule="evenodd" d="M777 110.833V105C805.995 105 829.5 128.505 829.5 157.5L823.667 157.5C823.667 131.727 802.773 110.833 777 110.833ZM777 122.5V116.667C799.552 116.667 817.833 134.949 817.833 157.5H812C812 138.17 796.33 122.5 777 122.5ZM777 128.333V134.167C789.887 134.167 800.333 144.613 800.333 157.5L806.167 157.5C806.167 141.392 793.108 128.333 777 128.333ZM777 145.833V140C786.665 140 794.5 147.835 794.5 157.5H788.667C788.667 151.056 783.443 145.833 777 145.833ZM777 157.5V151.667C780.222 151.667 782.833 154.279 782.833 157.5H777Z" fill="#1F242C"/>
<path d="M729.112 52.5H725V48.3875L773.387 0H777.5V4.1125L729.112 52.5ZM765.133 0H756.879L725 31.8791V40.1333L765.133 0ZM748.625 0H740.371L725 15.3708V23.625L748.625 0ZM725 0V7.11666L732.117 0H725ZM777.5 20.6208V12.3667L737.367 52.5H745.621L777.5 20.6208ZM777.5 37.1291V28.875L753.875 52.5H762.129L777.5 37.1291ZM777.5 45.3833L770.383 52.5H777.5V45.3833Z" fill="#1F242C"/>
<path d="M672.5 105L725 105L725 52.5C696.005 52.5 672.5 76.0051 672.5 105Z" fill="#1F242C"/>
<path d="M777.5 157.5L777.5 105L725 105C725 133.995 748.505 157.5 777.5 157.5Z" fill="#1F242C"/>
<path d="M686.13 157.78C684.702 156.463 683.366 155.049 682.13 153.55C680.59 151.3 679.25 148.89 677.67 146.64C672.181 138.39 665.525 130.98 657.91 124.64C655.511 122.752 653.018 120.987 650.44 119.35C653.88 117.57 654.12 114.96 651.19 112.71C650.293 112.122 649.342 111.62 648.35 111.21C648.668 110.964 649.002 110.74 649.35 110.54C650.022 110.262 650.618 109.827 651.087 109.271C651.556 108.716 651.885 108.056 652.047 107.347C652.209 106.638 652.198 105.9 652.016 105.196C651.834 104.492 651.485 103.842 651 103.3C650.64 102.78 651 102.59 651.19 102.3C654.355 98.6146 657.891 95.2637 661.74 92.3001C663.433 90.8334 665.419 89.7432 667.565 89.1019C669.712 88.4606 671.97 88.2827 674.19 88.5801C676.731 88.9282 679.318 88.6712 681.74 87.8301C683.793 87.3072 685.583 86.0491 686.77 84.2943C687.957 82.5396 688.459 80.4102 688.18 78.3101C687.948 75.2509 687.184 72.2558 685.92 69.4601C685.131 67.5402 683.85 65.8616 682.208 64.5926C680.565 63.3237 678.617 62.5089 676.56 62.2301C673.916 61.8917 671.232 62.0786 668.66 62.7801C666.484 63.3331 664.209 63.3763 662.013 62.9062C659.817 62.4362 657.76 61.4656 656 60.0701C652.199 57.2962 648.976 53.8078 646.51 49.8001C643.938 45.8272 640.406 42.5668 636.24 40.3201C633.638 38.8303 630.63 38.2039 627.649 38.5309C624.668 38.8579 621.868 40.1215 619.65 42.1401C615.443 46.2871 611.482 50.6781 607.79 55.2901C606.434 56.9973 604.724 58.3913 602.779 59.3768C600.834 60.3623 598.699 60.916 596.52 61.0001C594.18 61.0764 591.874 60.4153 589.93 59.1101C588.532 58.1778 586.905 57.6442 585.226 57.5667C583.547 57.4892 581.879 57.8706 580.4 58.6701C578.173 59.7589 576.079 61.1011 574.16 62.6701C570.529 65.4006 567.782 69.1392 566.26 73.4201C565.743 74.677 565.74 76.0871 566.252 77.3461C566.765 78.6051 567.752 79.6122 569 80.1501C573.46 82.4401 578.16 84.1001 582.78 86.0701C586.42 87.5701 589.97 89.2301 593.57 90.9301C598.35 93.1801 600.21 98.1601 603.84 101.64C602.576 101.832 601.411 102.437 600.525 103.359C599.639 104.281 599.082 105.469 598.94 106.74C598.55 109.74 600.72 110.74 602.89 112.03C601.24 112.9 599.62 113.61 598.94 115.43C598.766 116.281 598.778 117.16 598.977 118.006C599.175 118.853 599.555 119.645 600.09 120.33C594.706 123.304 589.59 126.74 584.8 130.6C574.683 138.808 565.641 148.259 557.89 158.73C551.176 167.652 545.85 177.537 542.09 188.05C537.633 199.673 535.786 212.134 536.68 224.55C537.19 232.22 539.829 239.597 544.3 245.85C547.314 249.577 551.119 252.587 555.44 254.66C556.63 255.21 557.85 255.66 559.08 256.12C582.46 267.792 609.311 270.479 634.54 263.67C645.886 266.226 657.642 266.383 669.052 264.131C680.463 261.879 691.277 257.266 700.8 250.59C701.592 250.037 702.271 249.338 702.8 248.53C703.459 247.901 704.08 247.233 704.66 246.53L705.61 245.53C705.678 245.372 705.773 245.227 705.89 245.1C709.86 239.802 712.562 233.665 713.79 227.16C715.09 219.044 714.55 210.739 712.21 202.86C707.294 185.944 698.344 170.475 686.13 157.78Z" fill="black"/>
<path d="M543.07 215.86C543.149 202.606 547.284 189.693 554.92 178.86C560.972 169.887 568.23 161.791 576.49 154.8C576.49 154.8 576.49 154.6 576.85 154.28C574.848 154.51 572.899 155.071 571.08 155.94C569.179 156.804 567.345 157.806 565.59 158.94C566.998 156.51 568.596 154.196 570.37 152.02C574.54 146.65 588.2 129.64 595.69 128.61C597.8 128.32 585.94 146.55 590.43 148.36C593.54 149.62 610.43 128.97 611.5 128.61C613.87 127.86 618.65 134.61 618.37 136.61C617.961 139.145 617.79 141.713 617.86 144.28C617.86 147.28 621.77 148.9 622.52 146.61C623.398 144.612 624.4 142.672 625.52 140.8C627.148 137.62 629.298 134.737 631.88 132.27C632.668 131.346 633.687 130.649 634.833 130.25C635.978 129.851 637.21 129.765 638.4 130C640.413 130.484 642.249 131.523 643.7 133C648.083 137.524 651.64 142.78 654.21 148.53C654.51 149.232 654.937 149.873 655.47 150.42C655.61 149.649 655.61 148.86 655.47 148.09C655.05 144.453 655.391 140.768 656.47 137.27C657.02 135.05 657.81 134.82 659.47 136.44C661.619 138.4 663.624 140.512 665.47 142.76C665.882 143.432 666.47 143.978 667.17 144.34V144.69C667.116 144.579 667.048 144.475 666.97 144.38C666.941 143.878 666.79 143.39 666.53 142.96C664.748 139.352 662.564 135.958 660.02 132.84C660.09 132.53 659.46 132.33 660.02 131.84C665.353 136.98 670.169 142.63 674.4 148.71C675.565 150.194 676.608 151.769 677.52 153.42L677.24 153.65C674.725 152.454 672.373 150.942 670.24 149.15L669.24 148.44L669 148.24C668.81 148.24 669 148.52 669 148.67C670.265 150.616 671.843 152.339 673.67 153.77C680.375 159.747 686.302 166.543 691.31 174C698.483 184.528 703.937 196.13 707.47 208.37C709.414 214.788 709.617 221.607 708.06 228.13C707.308 231.209 705.952 234.108 704.073 236.66C702.193 239.212 699.827 241.367 697.11 243C697.11 242.57 660.54 250.79 660.88 250.54C663.54 247.82 644.95 240.22 606.23 241.98C596.34 242.43 615.68 249.34 614.79 253.83C614.09 257.35 594.4 258.13 589.79 257.83C586.51 257.5 541 255.76 543.07 215.86ZM604.25 236C609.16 236 590.43 214.27 588.45 193.2C586.47 172.13 595.34 155.01 590.45 155.01C585.56 155.01 577.94 168.18 581.23 193.2C584.52 218.22 599.35 236 604.25 236Z" fill="#FEFEFE"/>
<path d="M639.09 165.55H614.09V174.22H629.38V209.5C629.38 210.879 628.955 212.225 628.162 213.355C627.369 214.484 626.248 215.341 624.95 215.81L618.76 218.16L621.42 227.45L630.64 223.86C633.764 222.631 636.326 220.296 637.84 217.3C638.706 215.572 639.142 213.662 639.11 211.73L639.09 165.55Z" fill="black"/>
<path d="M613.28 74.5302C616.794 80.9334 618.194 88.2835 617.28 95.5302C617.3 95.7163 617.3 95.904 617.28 96.0902C616.96 96.9202 616.84 97.9802 615.85 98.3402C614.86 98.7002 614.04 97.9002 613.37 97.1902C611.652 95.2249 610.215 93.0306 609.1 90.6702C605.57 84.3302 602.13 78.0002 599 71.4502C598.898 71.1949 598.821 70.9304 598.77 70.6602C599.52 70.6602 600.23 71.4102 601.02 70.6602L598.09 68.7702C597.907 68.3099 597.826 67.8157 597.851 67.3212C597.876 66.8266 598.008 66.3433 598.236 65.904C598.465 65.4648 598.786 65.0799 599.176 64.7756C599.567 64.4712 600.018 64.2545 600.5 64.1402C603.884 63.1299 606.852 61.0535 608.96 58.2202C610.86 56.1602 612.56 53.9902 614.37 51.8602C614.93 51.2202 617.97 47.7102 618.37 47.3902C620.928 45.2341 624.007 43.789 627.3 43.2002C629.207 42.9191 631.154 43.1776 632.922 43.9464C634.689 44.7152 636.206 45.9636 637.3 47.5502C638.844 49.7663 639.91 52.2796 640.43 54.9302C640.98 57.7548 641.162 60.6388 640.97 63.5102C640.092 69.9318 638.867 76.3011 637.3 82.5902C635.924 87.492 634.248 92.3044 632.28 97.0002C631.638 98.6993 630.73 100.286 629.59 101.7C628.09 103.36 626.79 103.24 625.59 101.38C624.29 99.0123 623.372 96.4542 622.87 93.8002C621.295 86.9247 618.639 80.3428 615 74.3002C613.377 71.8099 611.441 69.538 609.24 67.5402C609.04 67.5402 608.84 66.9902 608.45 67.1902C610.192 69.5473 611.805 71.9976 613.28 74.5302Z" fill="#D3D8E0"/>
<path d="M660.92 66.12C661.54 66.3812 662.033 66.8752 662.293 67.496C662.553 68.1168 662.559 68.8148 662.31 69.44C662.026 70.4124 661.583 71.3314 661 72.16C660.41 72.92 659.86 73.71 659.27 74.5C659.62 74.85 659.78 74.5 660.06 74.5C663.06 72.72 665.78 70.5 668.71 68.5C668.904 68.2982 669.137 68.1382 669.395 68.0298C669.653 67.9215 669.93 67.8671 670.21 67.87C671.903 67.7746 673.577 68.264 674.951 69.2563C676.326 70.2486 677.318 71.6834 677.76 73.32C677.843 73.483 677.981 73.6108 678.15 73.68C678.94 73.99 679.15 74.74 679.42 75.41C679.958 76.4025 680.093 77.5641 679.797 78.6535C679.501 79.7429 678.797 80.6764 677.83 81.26C674.659 80.3643 671.274 80.6157 668.27 81.97C667.92 81.97 667.64 82.41 667.27 82.29C667.162 82.0513 666.964 81.8646 666.72 81.77C666.477 81.67 666.204 81.67 665.96 81.77C665.29 81.14 665.01 81.77 664.86 82.25C664.71 82.73 664.86 83.25 664.62 83.67C663.687 84.7301 662.56 85.6023 661.3 86.24C660.83 85.13 660.79 85.13 659.76 86.04L660.27 86.24C660.383 86.2635 660.486 86.3213 660.564 86.4054C660.643 86.4895 660.694 86.5959 660.71 86.71C659.751 87.942 658.65 89.0564 657.43 90.03C654.23 93.43 650.95 96.79 647.67 100.11C646.85 101.188 645.697 101.965 644.39 102.32C642.89 102.6 642.53 102.32 642.89 100.74C643.492 98.586 644.383 96.5238 645.54 94.61C646.243 93.013 647.129 91.5029 648.18 90.11H648.58C649.13 90.11 650.04 90.74 650.2 90.11C650.36 89.48 649.13 89.79 648.66 89.36C649.8 86.95 651.34 84.78 652.61 82.45C652.85 82.09 653.24 81.77 653.16 81.1C651.916 82.3238 650.791 83.6631 649.8 85.1C647.63 87.75 645.54 90.48 643.36 93.01C643.018 93.4393 642.621 93.8224 642.18 94.15C641.43 94.74 640.83 94.7 640.6 93.64C640.6 93.41 640.6 93.19 640.6 92.97C641.958 86.3317 644.286 79.9297 647.51 73.97C648.602 71.392 650.497 69.2353 652.913 67.821C655.329 66.4066 658.138 65.81 660.92 66.12ZM670.01 73.12C668.75 73.12 668.15 74.47 667.13 75.06C667.01 75.0683 666.893 75.1063 666.791 75.1707C666.689 75.235 666.605 75.3236 666.545 75.4287C666.486 75.5337 666.453 75.6518 666.451 75.7724C666.448 75.8931 666.475 76.0125 666.53 76.12C666.85 76.72 667.29 76.12 667.64 76.12C668.847 75.4147 670.275 75.1897 671.64 75.49C672.19 75.49 672.71 74.74 672.71 74.03C672.71 73.32 672.27 73.03 671.56 73.32C671.33 73.4451 671.072 73.5107 670.81 73.5107C670.548 73.5107 670.29 73.4451 670.06 73.32L670.01 73.12ZM655.43 80.35C655.812 81.0854 656.347 81.73 657 82.24C657.12 81.24 657.12 81.24 655.46 80.54L655.43 80.35Z" fill="#D3D8E0"/>
<path d="M586.61 64.0996C589.828 64.9498 592.633 66.9307 594.51 69.6796C599.655 77.0806 603.384 85.3704 605.51 94.1296V94.6796L601.56 90.6796C601.88 90.6796 601.8 90.3296 601.56 90.1296C598.584 86.3698 595.018 83.1176 591 80.4996C589.9 79.8396 582.07 78.0296 579.28 74.6796C578.93 74.2496 579.48 73.1596 579.28 72.6796C578.69 71.3096 577.79 67.4796 578.62 66.0996C579.9 63.9996 583.41 64.5796 583.89 64.5196L586.61 64.0996ZM596.61 79.3196C597.014 79.2437 597.412 79.1367 597.8 78.9996C597.9 78.9882 597.995 78.9496 598.074 78.8881C598.154 78.8265 598.215 78.7444 598.251 78.6506C598.287 78.5568 598.296 78.455 598.279 78.3561C598.261 78.2572 598.216 78.165 598.15 78.0896C597.88 77.6996 597.6 77.7696 597.36 78.0896C597.279 78.2024 597.168 78.2899 597.04 78.3419C596.911 78.3938 596.77 78.408 596.634 78.3828C596.497 78.3576 596.371 78.2941 596.269 78.1997C596.168 78.1052 596.095 77.9838 596.06 77.8496C595.7 77.0196 594.95 76.9096 594.2 76.7096C593.45 76.5096 593.45 76.7096 593.49 77.2596C594.373 78.1585 595.436 78.8605 596.61 79.3196ZM591.07 76.9996C590.8 76.9996 590.48 77.1996 590.68 77.3996C590.88 77.5996 591.31 78.8196 592.1 78.9796C592.89 79.1396 592.49 78.5796 592.49 78.2696C592.49 77.9596 591.74 77.1996 591.07 76.9996ZM590.6 74.3196C591.39 75.1096 592.34 75.0296 593.13 75.3196C592.857 74.9186 592.47 74.6088 592.019 74.4305C591.568 74.2521 591.073 74.2135 590.6 74.3196Z" fill="#FEFEFE"/>
<path d="M660.92 66.1197C658.125 65.7983 655.301 66.3927 652.872 67.8136C650.443 69.2346 648.54 71.4053 647.451 73.9997C644.311 79.9249 642.047 86.2744 640.73 92.8497C640.75 93.0725 640.75 93.2968 640.73 93.5196C640.299 91.4081 640.299 89.2312 640.73 87.1197C641.256 81.3468 642.304 75.6335 643.86 70.0497C644.352 68.4102 645.073 66.8482 646.001 65.4097C646.508 64.3415 647.406 63.5087 648.509 63.0827C649.612 62.6566 650.837 62.6699 651.931 63.1197C654.421 63.8697 656.93 64.6597 659.35 65.4897C659.949 65.4964 660.525 65.7203 660.97 66.1197H660.92Z" fill="#FEFEFE"/>
<path d="M586.61 64.0997L583.84 64.5397C582.98 64.6323 582.153 64.9189 581.42 65.378C580.687 65.837 580.068 66.4565 579.61 67.1897C579.38 67.5397 579.26 67.7797 579.61 68.1297C580.76 69.1297 579.85 69.3597 579.06 69.5997C579.06 68.5997 578.27 67.8997 578.11 66.9097L577.4 67.6597C577.035 68.1121 576.772 68.6387 576.631 69.2029C576.49 69.7671 576.473 70.3553 576.583 70.9265C576.692 71.4977 576.925 72.0381 577.265 72.5102C577.605 72.9822 578.043 73.3745 578.55 73.6597C578.78 73.6597 579.06 74.0497 579.3 73.6597C579.349 73.5602 579.375 73.4507 579.375 73.3397C579.375 73.2286 579.349 73.1191 579.3 73.0197C578.9 72.2697 579.3 71.6797 579.61 71.0197C580.17 71.9297 581.39 72.5997 580.61 74.0197C579.83 75.4397 580.89 74.9297 581.28 75.1697C584.44 76.9497 587.64 78.5997 590.73 80.4597C594.771 83.0896 598.358 86.3589 601.35 90.1397C601.35 90.3397 601.59 90.5397 601.35 90.6897C595.519 85.6086 588.845 81.5848 581.63 78.7997C579.02 77.6997 576.45 76.5497 573.73 75.3597C573.238 75.1602 572.799 74.8478 572.45 74.4476C572.1 74.0474 571.849 73.5707 571.718 73.0559C571.587 72.5411 571.578 72.0026 571.693 71.4839C571.808 70.9651 572.043 70.4807 572.38 70.0697C573.31 68.5555 574.541 67.2481 575.996 66.2282C577.451 65.2082 579.1 64.4974 580.84 64.1397C582.729 63.6366 584.715 63.6229 586.61 64.0997Z" fill="#D3D8E0"/>
<path d="M677.79 81.3298C678.757 80.7462 679.461 79.8127 679.757 78.7233C680.053 77.6339 679.918 76.4723 679.38 75.4798C679.1 74.8098 678.9 74.0598 678.11 73.7398C677.941 73.6772 677.801 73.552 677.72 73.3898C677.278 71.7532 676.286 70.3184 674.912 69.3261C673.537 68.3339 671.863 67.8444 670.17 67.9398C671.261 67.3272 672.482 66.9824 673.732 66.9337C674.982 66.885 676.225 67.1339 677.36 67.6598C679.544 68.8747 681.302 70.7307 682.396 72.977C683.491 75.2233 683.869 77.7515 683.48 80.2198C683.371 80.9369 683.12 81.6249 682.742 82.2436C682.363 82.8624 681.865 83.3993 681.277 83.8231C680.688 84.2469 680.021 84.5489 679.314 84.7114C678.607 84.874 677.875 84.8939 677.16 84.7698C675.13 84.5131 673.087 84.3662 671.04 84.3298C673.202 83.1414 675.46 82.1378 677.79 81.3298Z" fill="#FEFEFE"/>
<path d="M631.25 109C632.681 110.458 634.23 111.796 635.88 113C634.504 113.569 632.978 113.66 631.544 113.259C630.11 112.859 628.852 111.989 627.97 110.79C629.04 108.69 629.12 108.65 630.86 109.05L631.25 109Z" fill="#C4C3C6"/>
<path d="M637.22 109L641.17 111.68C640.368 112.056 639.497 112.264 638.611 112.291C637.725 112.319 636.843 112.165 636.019 111.841C635.194 111.516 634.445 111.027 633.816 110.402C633.187 109.778 632.691 109.032 632.36 108.21V108C632.84 107.822 633.356 107.762 633.864 107.825C634.372 107.887 634.858 108.071 635.28 108.36C635.848 108.765 636.524 108.988 637.22 109Z" fill="#C4C3C6"/>
<path d="M620.15 110.88C621.432 112.414 622.924 113.761 624.58 114.88C624.721 114.9 624.849 114.973 624.936 115.085C625.024 115.197 625.065 115.339 625.05 115.48C624.97 115.79 624.58 115.83 624.3 115.91C623.221 116.185 622.088 116.172 621.014 115.874C619.941 115.576 618.964 115.002 618.18 114.21C617.82 112.21 617.82 112.21 619.72 111.33C619.87 111.16 620 111 620.15 110.88Z" fill="#C4C3C6"/>
<path d="M625.64 110.05C627.021 111.335 628.488 112.524 630.03 113.61C630.38 113.85 630.74 114.2 630.03 114.48C628.836 114.806 627.574 114.785 626.391 114.421C625.208 114.056 624.153 113.362 623.35 112.42C623.35 110.61 624 110.09 625.64 110.05Z" fill="#C4C3C6"/>
<path d="M611.5 115.35L615.05 116.89C614.446 117.739 613.534 118.319 612.508 118.506C611.483 118.692 610.425 118.472 609.56 117.89C608.93 117.37 608.34 116.78 607.71 116.23C607.08 115.68 607.71 115.16 608.65 115.12C609.605 115.122 610.558 115.198 611.5 115.35Z" fill="#C4C3C6"/>
<path d="M615.05 112.9C616.465 113.787 617.803 114.79 619.05 115.9C619.05 115.9 619.61 116.22 619.45 116.53C619.29 116.84 619.02 116.81 618.74 116.89C618.215 117.07 617.645 117.07 617.12 116.89C615.915 116.604 614.747 116.178 613.64 115.62C613.05 113.37 613.25 113.02 615.1 112.9H615.05Z" fill="#C4C3C6"/>
<path d="M603.6 103.42C603.786 103.402 603.972 103.446 604.129 103.546C604.287 103.646 604.407 103.795 604.47 103.97C605.509 105.665 606.104 107.594 606.2 109.58C606.2 110.58 606.2 110.58 604.94 110.21L604.5 109.9C604.46 109.628 604.354 109.371 604.19 109.15C603.676 108.297 603.356 107.341 603.254 106.351C603.152 105.36 603.27 104.359 603.6 103.42Z" fill="#C4C3C6"/>
<path d="M648.56 108.631C647.484 108.823 646.374 108.666 645.393 108.182C644.412 107.698 643.612 106.912 643.11 105.941C642.87 104.801 643.9 104.171 645.63 104.401C644.8 105.831 645.87 106.221 646.82 106.581C647.77 106.941 648.6 107.371 648.56 108.631Z" fill="#C4C3C6"/>
<path d="M607.31 117C607.9 117.59 609.09 118.1 608.81 118.89C608.53 119.68 607.31 119.53 606.44 119.61C605.307 119.832 604.131 119.647 603.12 119.09C603.12 116.88 603.32 116.72 605.49 116.92C606.09 117 606.68 117.48 607.31 117Z" fill="#C4C3C6"/>
<path d="M637.34 106.77C637.479 106.389 637.715 106.051 638.023 105.788C638.332 105.526 638.704 105.348 639.102 105.273C639.5 105.197 639.911 105.226 640.295 105.357C640.679 105.488 641.022 105.716 641.29 106.02C642.507 107.399 643.903 108.61 645.44 109.62C645.95 110.01 645.91 110.05 645.44 110.33C643.569 109.65 641.799 108.718 640.18 107.56C639.842 107.157 639.389 106.866 638.883 106.725C638.376 106.585 637.838 106.6 637.34 106.77Z" fill="#FEFEFE"/>
<path d="M606.8 105.08C606.8 103.93 607.23 103.61 608.22 104.01C608.925 104.258 609.568 104.654 610.106 105.171C610.644 105.689 611.065 106.316 611.34 107.01C611.445 107.257 611.499 107.522 611.499 107.79C611.499 108.058 611.445 108.323 611.34 108.57C611.238 108.817 611.086 109.04 610.896 109.227C610.705 109.415 610.479 109.562 610.23 109.66C609.995 109.793 609.734 109.875 609.465 109.901C609.196 109.927 608.924 109.896 608.668 109.81C608.411 109.725 608.176 109.586 607.976 109.403C607.777 109.221 607.618 108.998 607.51 108.75C608.3 108.39 609.51 108.75 609.72 107.49C609.74 107.053 609.639 106.618 609.429 106.234C609.219 105.85 608.909 105.53 608.53 105.31C608.276 105.148 607.99 105.044 607.691 105.004C607.392 104.964 607.088 104.99 606.8 105.08Z" fill="#C4C3C6"/>
<path d="M638.88 118.31C637.404 118.521 635.9 118.229 634.61 117.48C633.61 116.97 633.61 116.26 634.61 115.74C635.507 115.19 636.572 114.981 637.61 115.15C638.25 116.22 639.15 117 638.88 118.31Z" fill="#C4C3C6"/>
<path d="M637.34 106.77C637.81 106.642 638.307 106.649 638.773 106.788C639.24 106.928 639.658 107.195 639.98 107.56C641.599 108.719 643.369 109.65 645.24 110.33C643.718 110.855 642.052 110.779 640.584 110.117C639.116 109.455 637.956 108.258 637.34 106.77Z" fill="#C4C3C6"/>
<path d="M647.85 117.92C647.173 117.469 646.637 116.837 646.301 116.096C645.965 115.356 645.844 114.536 645.95 113.73C646.38 112.82 647.1 112.42 648.04 113.25C648.128 113.844 648.317 114.419 648.6 114.95C648.843 115.454 648.901 116.028 648.764 116.571C648.626 117.113 648.303 117.591 647.85 117.92Z" fill="#C4C3C6"/>
<path d="M607.31 117.001C606.68 117.631 606.09 117.001 605.49 117.001C603.32 116.801 603.12 117.001 603.12 119.171C602.532 118.909 602.07 118.428 601.834 117.829C601.599 117.23 601.608 116.563 601.86 115.971C602.226 115.517 602.744 115.212 603.317 115.111C603.891 115.01 604.482 115.12 604.98 115.421C605.83 115.831 606.615 116.363 607.31 117.001Z" fill="#FEFEFE"/>
<path d="M643.54 118.19C642.669 118.041 641.883 117.579 641.33 116.89C640.73 116.22 639.98 115.39 640.77 114.48C640.942 114.293 641.151 114.144 641.383 114.043C641.616 113.941 641.867 113.889 642.12 113.89C642.373 113.888 642.622 113.94 642.853 114.041C643.084 114.143 643.291 114.292 643.46 114.48C643.931 115.667 643.96 116.984 643.54 118.19Z" fill="#C4C3C6"/>
<path d="M603.6 103.42C603.235 104.384 603.094 105.418 603.19 106.444C603.285 107.47 603.614 108.461 604.15 109.34C604.31 109.565 604.419 109.82 604.47 110.09C603.837 109.971 603.246 109.689 602.755 109.272C602.265 108.855 601.891 108.317 601.671 107.711C601.451 107.106 601.392 106.454 601.501 105.819C601.61 105.184 601.882 104.588 602.29 104.09C602.69 103.65 603 103.3 603.6 103.42Z" fill="#FEFEFE"/>
<path d="M606.8 105.08C607.088 104.99 607.392 104.964 607.691 105.003C607.989 105.043 608.276 105.148 608.53 105.31C608.908 105.53 609.219 105.849 609.429 106.234C609.639 106.618 609.739 107.052 609.72 107.49C609.52 108.63 608.3 108.39 607.51 108.75C606.861 107.643 606.61 106.348 606.8 105.08Z" fill="#FEFEFE"/>
<path d="M647.85 117.92C648.31 117.59 648.638 117.107 648.776 116.557C648.913 116.008 648.851 115.428 648.6 114.92C648.4 114.33 648 113.86 648.04 113.22C648.987 113.879 649.839 114.667 650.57 115.56C650.721 115.725 650.831 115.923 650.89 116.139C650.949 116.354 650.956 116.581 650.91 116.8C650.863 117.018 650.765 117.222 650.624 117.396C650.483 117.57 650.304 117.708 650.1 117.8C649.43 118.27 648.64 119 647.85 117.92Z" fill="#FEFEFE"/>
<path d="M611.5 115.35C610.559 115.182 609.606 115.088 608.65 115.07C607.82 115.07 607.59 115.47 607.71 116.18C606.882 115.724 606.143 115.121 605.53 114.4C607.55 112.82 608.57 113 611.5 115.35Z" fill="#FEFEFE"/>
<path d="M648.56 108.63C648.56 107.37 647.69 106.97 646.7 106.63C645.71 106.29 644.7 105.88 645.52 104.45C646.349 104.392 647.173 104.619 647.856 105.094C648.538 105.569 649.037 106.263 649.27 107.06C649.47 107.72 649.55 108.43 648.56 108.63Z" fill="#FEFEFE"/>
<path d="M615.73 106.38C615.956 106.356 616.185 106.387 616.397 106.468C616.609 106.55 616.798 106.681 616.95 106.85C617.5 107.37 617.46 107.85 616.71 108.08C615.687 108.34 614.614 108.34 613.59 108.08C612.76 108.08 612.59 107.25 612.59 106.58C612.59 105.91 612.59 105.43 613.42 105.51C613.388 105.88 613.496 106.248 613.725 106.541C613.953 106.835 614.284 107.03 614.65 107.09C615.45 107.33 615.65 107 615.73 106.38Z" fill="#C4C3C6"/>
<path d="M614.86 112.82C613 112.82 612.8 113.29 613.39 115.55C612.565 115.139 611.807 114.606 611.14 113.97C610.23 113.21 610.63 112.7 611.5 112.42C612.043 112.174 612.644 112.081 613.236 112.152C613.828 112.222 614.39 112.453 614.86 112.82Z" fill="#FEFEFE"/>
<path d="M625.64 110.05C624.02 110.05 623.51 110.61 623.19 112.42C623.069 112.37 622.963 112.291 622.88 112.19C622.28 111.48 621.02 110.88 622.17 109.7C622.693 109.328 623.333 109.159 623.971 109.223C624.609 109.288 625.202 109.581 625.64 110.05Z" fill="#FEFEFE"/>
<path d="M620.15 110.88C620.026 111.01 619.88 111.119 619.72 111.2C617.82 112.07 617.82 112.03 618.18 114.08H617.94C617.27 113.29 616.04 112.66 616.71 111.32C617.38 109.98 618.77 110.25 620.15 110.88Z" fill="#FEFEFE"/>
<path d="M637.22 109.001C636.525 108.991 635.849 108.771 635.28 108.371C634.858 108.081 634.372 107.898 633.864 107.835C633.356 107.772 632.84 107.833 632.36 108.011C632.548 107.67 632.815 107.38 633.137 107.163C633.46 106.946 633.829 106.809 634.215 106.763C634.601 106.717 634.992 106.764 635.356 106.899C635.721 107.034 636.048 107.254 636.31 107.541C636.731 107.943 637.044 108.445 637.22 109.001Z" fill="#FEFEFE"/>
<path d="M631.25 109H630.7C628.96 108.6 628.88 108.64 627.82 110.74C627.3 110.06 626.43 109.43 627.46 108.56C628.027 108.131 628.737 107.937 629.443 108.019C630.149 108.101 630.797 108.453 631.25 109Z" fill="#FEFEFE"/>
<path d="M643.54 118.19C643.99 116.981 643.99 115.65 643.54 114.44C644.543 115.152 645.225 116.23 645.44 117.44C645.63 118.43 645 118.63 643.54 118.19Z" fill="#FEFEFE"/>
<path d="M638.88 118.31C639.19 117.01 638.25 116.22 637.61 115.31C638.09 115.246 638.577 115.365 638.973 115.643C639.369 115.92 639.647 116.337 639.75 116.81C640 117.48 639.87 118.23 638.88 118.31Z" fill="#FEFEFE"/>
<path d="M615.73 106.38C615.739 106.506 615.718 106.633 615.668 106.75C615.618 106.867 615.541 106.97 615.443 107.051C615.345 107.132 615.23 107.189 615.106 107.217C614.982 107.244 614.853 107.242 614.73 107.21C614.364 107.151 614.033 106.955 613.805 106.662C613.576 106.368 613.468 106 613.5 105.63C613.905 105.548 614.324 105.574 614.716 105.706C615.107 105.837 615.457 106.07 615.73 106.38Z" fill="#FEFEFE"/>
<path d="M604.5 110.05L604.94 110.37C604.74 110.37 604.47 110.41 604.5 110.05Z" fill="#FEFEFE"/>
<path d="M620.74 125.38C621.41 125.66 621.22 126.38 621.41 126.77C621.444 126.843 621.456 126.925 621.443 127.006C621.431 127.086 621.395 127.16 621.34 127.22C621.288 127.283 621.218 127.329 621.141 127.354C621.063 127.379 620.979 127.381 620.9 127.36C620.644 127.347 620.402 127.236 620.225 127.05C620.048 126.864 619.95 126.617 619.95 126.36C620 125.74 620.35 125.66 620.74 125.38Z" fill="#FEFEFE"/>
<path d="M632.891 70.6797C632.865 78.1898 632.196 85.6839 630.891 93.0797C630.744 94.1669 630.325 95.1991 629.67 96.0797C629.17 96.7497 628.67 96.8897 628.001 96.0797C626.813 94.7687 625.877 93.25 625.24 91.5997C622.81 86.1797 620.731 80.5297 618.071 75.2397C616.897 72.8377 615.561 70.5189 614.071 68.2997C612.904 66.3659 612.373 64.1151 612.553 61.8639C612.732 59.6127 613.613 57.4744 615.071 55.7497C616.651 53.9997 618.411 52.3897 620.131 50.7497C621.243 49.6722 622.625 48.9125 624.131 48.5497C625.337 48.4608 626.54 48.7552 627.569 49.3909C628.598 50.0267 629.4 50.9712 629.86 52.0897C632.185 57.9994 633.218 64.3379 632.891 70.6797Z" fill="#FEFEFE"/>
<path d="M696.13 193.3C694.614 191.162 692.711 189.327 690.52 187.89C689.85 187.41 689.61 187.57 689.65 188.36C689.63 188.636 689.63 188.914 689.65 189.19C690.16 193.765 689.941 198.393 689 202.9C687.762 209.596 685.061 215.937 681.09 221.47C677.25 226.591 672.185 230.665 666.36 233.32C665.529 233.44 664.727 233.708 663.99 234.11C662.355 234.905 660.647 235.541 658.89 236.01C654.797 237.169 650.581 237.84 646.33 238.01C640.907 238.349 635.463 238.111 630.09 237.3C622.063 236.191 614.411 233.2 607.76 228.57C602.566 225.044 598.288 220.33 595.28 214.82C594.69 213.68 594.05 212.61 593.46 211.46C593.659 219.733 596.419 227.741 601.36 234.38C585.24 225.96 574.85 213.44 573.47 194.87V193.37C573.51 193.267 573.51 193.153 573.47 193.05C572.995 187.101 573.739 181.119 575.654 175.467C577.569 169.816 580.617 164.614 584.61 160.18C583.852 167.827 584.617 175.549 586.86 182.9C587.131 184.135 587.67 185.296 588.44 186.3C588.44 178.71 593.85 158.44 600.94 147.1C605.23 140.25 613.46 134.76 614.4 134.42C616.77 133.67 618.63 134.7 618.4 136.67C617.99 139.205 617.82 141.773 617.89 144.34V153.43H619.89C619.89 150.94 621.71 149.08 622.46 146.79C623.334 144.791 624.336 142.85 625.46 140.98C627.081 137.796 629.231 134.912 631.82 132.45C632.599 131.513 633.614 130.802 634.761 130.39C635.908 129.979 637.143 129.882 638.34 130.11C640.348 130.599 642.179 131.638 643.63 133.11C648.013 137.63 651.57 142.883 654.14 148.63C654.44 149.335 654.867 149.979 655.4 150.53C655.54 149.759 655.54 148.97 655.4 148.2C655.019 144.513 655.41 140.787 656.55 137.26C657.1 135.04 657.89 134.81 659.55 136.43C661.699 138.39 663.704 140.502 665.55 142.75C665.962 143.422 666.55 143.969 667.25 144.33C667.22 143.828 667.069 143.341 666.81 142.91C665.027 139.3 662.84 135.905 660.29 132.79C660.1 132.52 659.46 132.32 659.98 131.79C656.561 128.259 652.546 125.358 648.12 123.22C647.77 123.22 647.37 122.63 647.02 122.94C646.67 123.25 647.02 123.69 647.22 124.05C649.11 128.787 650.729 133.629 652.07 138.55C652.75 141 652.83 141.55 652.55 142.55L652.23 142.04C650.467 137.913 648.352 133.945 645.91 130.18C643.992 126.792 641.281 123.92 638.01 121.81C636.599 120.963 634.926 120.667 633.31 120.98C630.701 121.607 628.436 123.219 626.99 125.48C623.922 130.015 621.784 135.113 620.7 140.48C620.39 141.9 620.07 143.32 619.76 144.86C619.48 143.86 619.95 143.08 619.95 142.25C619.959 137.577 620.462 132.917 621.45 128.35C622.45 123.8 619.68 121.35 615.17 122.42C612.984 123.035 610.944 124.083 609.17 125.5C603.921 129.709 599.51 134.869 596.17 140.71C594.91 142.77 593.76 144.71 592.22 147.23C594.395 138.282 598.736 130.006 604.86 123.13C600.639 125.08 596.661 127.52 593.01 130.4C593.01 130.4 588.15 135.54 583.3 141.23C579.3 145.96 575.18 151.37 574.68 151.78C574.554 151.853 574.463 151.973 574.425 152.114C574.388 152.254 574.407 152.404 574.48 152.53C574.68 152.88 575.03 152.53 575.35 152.53L583.96 151.18C584.252 151.06 584.579 151.06 584.87 151.18C584.87 152.18 583.87 152.57 583.21 153.18C581.35 154.92 579.46 156.62 577.72 158.47C574.72 161.67 571.72 164.83 569.03 168.23C567.33 170.37 565.51 172.42 564.03 174.71C551.72 193.93 548.34 206.16 547.95 212.71C546.37 239.4 577.95 252.71 598.47 255.77C605.99 256.92 614.53 254.35 615.83 253.92C616.93 253.56 616.89 253.13 616.14 252.26C614.103 250.02 612.291 247.585 610.73 244.99C611.183 245.179 611.608 245.431 611.99 245.74C612.43 246.09 612.82 246.49 613.26 246.81C619.307 251.031 626.09 254.084 633.26 255.81C637.857 257.002 642.582 257.627 647.33 257.67C662.112 258.652 676.856 255.257 689.72 247.91C690.477 247.66 691.195 247.303 691.85 246.85L694.66 244.75L695.49 244.04C695.865 243.945 696.209 243.756 696.49 243.49C696.49 243.17 696.88 243.21 697.16 243.13C697.144 242.918 697.182 242.706 697.271 242.513C697.361 242.321 697.498 242.154 697.67 242.03C700.79 238.65 711.59 216.91 696.13 193.3Z" fill="#D3D8E0"/>
<path fill-rule="evenodd" clip-rule="evenodd" d="M618.74 253.13C618.74 254.98 591.59 265.01 585.16 261.03C575.52 255.03 579.16 254.78 569.35 245.89C559.54 237 556.21 232.27 565.7 237.71C572 241.34 591.74 253.13 618.74 253.13Z" fill="black"/>
<path fill-rule="evenodd" clip-rule="evenodd" d="M704.13 213C705.06 213.88 703.89 242.58 700.36 246.51C695.08 252.42 695.78 249.03 688.95 253.76C682.12 258.49 678.95 259.32 683.95 253.32C687.25 249.29 697.85 237 704.13 213Z" fill="black"/>
</g>
<defs>
<clipPath id="clip0">
<rect width="882" height="300" fill="white"/>
</clipPath>
</defs>
</svg>
