<svg width="882" height="300" viewBox="0 0 882 300" fill="none" xmlns="http://www.w3.org/2000/svg">
<g clip-path="url(#clip0)">
<rect width="882" height="300" fill="white"/>
<rect width="882" height="210" fill="black"/>
<rect x="620" y="105" width="52.5" height="52.5" fill="#1F242C"/>
<path d="M625.837 157.5H620V163.337H625.837V157.5Z" fill="#1F242C"/>
<path d="M631.673 163.337H625.837V169.174H631.673V163.337Z" fill="#1F242C"/>
<path d="M637.494 157.5H631.658V163.337H637.494V157.5Z" fill="#1F242C"/>
<path d="M625.837 169.158H620V174.995H625.837V169.158Z" fill="#1F242C"/>
<path d="M637.494 169.158H631.658V174.995H637.494V169.158Z" fill="#1F242C"/>
<path d="M643.332 163.337H637.495V169.174H643.332V163.337Z" fill="#1F242C"/>
<path d="M631.673 174.995H625.837V180.832H631.673V174.995Z" fill="#1F242C"/>
<path d="M625.837 180.832H620V186.669H625.837V180.832Z" fill="#1F242C"/>
<path d="M637.494 180.832H631.658V186.669H637.494V180.832Z" fill="#1F242C"/>
<path d="M643.332 174.995H637.495V180.832H643.332V174.995Z" fill="#1F242C"/>
<path d="M631.673 186.668H625.837V192.505H631.673V186.668Z" fill="#1F242C"/>
<path d="M625.837 192.489H620V198.326H625.837V192.489Z" fill="#1F242C"/>
<path d="M637.494 192.489H631.658V198.326H637.494V192.489Z" fill="#1F242C"/>
<path d="M643.332 186.668H637.495V192.505H643.332V186.668Z" fill="#1F242C"/>
<path d="M631.673 198.326H625.837V204.163H631.673V198.326Z" fill="#1F242C"/>
<path d="M625.837 204.164H620V210.001H625.837V204.164Z" fill="#1F242C"/>
<path d="M637.494 204.164H631.658V210.001H637.494V204.164Z" fill="#1F242C"/>
<path d="M643.332 198.326H637.495V204.163H643.332V198.326Z" fill="#1F242C"/>
<path d="M649.168 157.5H643.331V163.337H649.168V157.5Z" fill="#1F242C"/>
<path d="M655.006 163.337H649.169V169.174H655.006V163.337Z" fill="#1F242C"/>
<path d="M660.826 157.5H654.99V163.337H660.826V157.5Z" fill="#1F242C"/>
<path d="M649.168 169.158H643.331V174.995H649.168V169.158Z" fill="#1F242C"/>
<path d="M660.826 169.158H654.99V174.995H660.826V169.158Z" fill="#1F242C"/>
<path d="M666.663 163.337H660.826V169.174H666.663V163.337Z" fill="#1F242C"/>
<path d="M655.006 174.995H649.169V180.832H655.006V174.995Z" fill="#1F242C"/>
<path d="M649.168 180.832H643.331V186.669H649.168V180.832Z" fill="#1F242C"/>
<path d="M660.826 180.832H654.99V186.669H660.826V180.832Z" fill="#1F242C"/>
<path d="M666.663 174.995H660.826V180.832H666.663V174.995Z" fill="#1F242C"/>
<path d="M655.006 186.668H649.169V192.505H655.006V186.668Z" fill="#1F242C"/>
<path d="M649.168 192.489H643.331V198.326H649.168V192.489Z" fill="#1F242C"/>
<path d="M660.826 192.489H654.99V198.326H660.826V192.489Z" fill="#1F242C"/>
<path d="M666.663 186.668H660.826V192.505H666.663V186.668Z" fill="#1F242C"/>
<path d="M655.006 198.326H649.169V204.163H655.006V198.326Z" fill="#1F242C"/>
<path d="M649.168 204.164H643.331V210.001H649.168V204.164Z" fill="#1F242C"/>
<path d="M660.826 204.164H654.99V210.001H660.826V204.164Z" fill="#1F242C"/>
<path d="M672.5 157.5H666.663V163.337H672.5V157.5Z" fill="#1F242C"/>
<path d="M672.5 169.158H666.663V174.995H672.5V169.158Z" fill="#1F242C"/>
<path d="M672.5 180.832H666.663V186.669H672.5V180.832Z" fill="#1F242C"/>
<path d="M672.5 192.489H666.663V198.326H672.5V192.489Z" fill="#1F242C"/>
<path d="M672.5 204.164H666.663V210.001H672.5V204.164Z" fill="#1F242C"/>
<path d="M666.663 198.326H660.826V204.163H666.663V198.326Z" fill="#1F242C"/>
<rect x="631.667" y="52.5" width="5.83333" height="52.5" fill="#1F242C"/>
<rect x="643.333" y="52.5" width="5.83333" height="52.5" fill="#1F242C"/>
<rect x="655" y="52.5" width="5.83333" height="52.5" fill="#1F242C"/>
<rect x="666.667" y="52.5" width="5.83333" height="52.5" fill="#1F242C"/>
<rect x="620" y="52.5" width="5.83668" height="52.5" fill="#1F242C"/>
<rect x="555.833" y="157.5" width="5.83333" height="52.5" transform="rotate(-180 555.833 157.5)" fill="#1F242C"/>
<rect x="544.167" y="157.5" width="5.83333" height="52.5" transform="rotate(-180 544.167 157.5)" fill="#1F242C"/>
<rect x="532.5" y="157.5" width="5.83333" height="52.5" transform="rotate(-180 532.5 157.5)" fill="#1F242C"/>
<rect x="520.833" y="157.5" width="5.83333" height="52.5" transform="rotate(-180 520.833 157.5)" fill="#1F242C"/>
<rect x="567.5" y="157.5" width="5.83668" height="52.5" transform="rotate(-180 567.5 157.5)" fill="#1F242C"/>
<rect x="870.505" y="53.4844" width="5.83333" height="52.5" transform="rotate(-180 870.505 53.4844)" fill="#1F242C"/>
<rect x="858.838" y="53.4844" width="5.83333" height="52.5" transform="rotate(-180 858.838 53.4844)" fill="#1F242C"/>
<rect x="847.172" y="53.4844" width="5.83333" height="52.5" transform="rotate(-180 847.172 53.4844)" fill="#1F242C"/>
<rect x="835.505" y="53.4844" width="5.83333" height="52.5" transform="rotate(-180 835.505 53.4844)" fill="#1F242C"/>
<rect x="882.172" y="53.4844" width="5.83668" height="52.5" transform="rotate(-180 882.172 53.4844)" fill="#1F242C"/>
<path fill-rule="evenodd" clip-rule="evenodd" d="M567.5 163.333V157.5C596.495 157.5 620 181.005 620 210H614.167C614.167 184.227 593.273 163.333 567.5 163.333ZM567.5 175V169.166C590.052 169.166 608.333 187.448 608.333 210H602.5C602.5 190.67 586.83 175 567.5 175ZM567.5 180.834V186.667C580.387 186.667 590.833 197.114 590.833 210L596.667 210C596.667 193.892 583.608 180.834 567.5 180.834ZM567.5 198.333V192.5C577.165 192.5 585 200.335 585 210H579.167C579.167 203.557 573.943 198.333 567.5 198.333ZM567.5 210V204.166C570.722 204.166 573.333 206.778 573.333 210H567.5Z" fill="#1F242C"/>
<path fill-rule="evenodd" clip-rule="evenodd" d="M777 110.833V105C805.995 105 829.5 128.505 829.5 157.5L823.667 157.5C823.667 131.727 802.773 110.833 777 110.833ZM777 122.5V116.667C799.552 116.667 817.833 134.949 817.833 157.5H812C812 138.17 796.33 122.5 777 122.5ZM777 128.333V134.167C789.887 134.167 800.333 144.613 800.333 157.5L806.167 157.5C806.167 141.392 793.108 128.333 777 128.333ZM777 145.833V140C786.665 140 794.5 147.835 794.5 157.5H788.667C788.667 151.056 783.443 145.833 777 145.833ZM777 157.5V151.667C780.222 151.667 782.833 154.279 782.833 157.5H777Z" fill="#1F242C"/>
<path d="M729.112 52.5H725V48.3875L773.387 0H777.5V4.1125L729.112 52.5ZM765.133 0H756.879L725 31.8791V40.1333L765.133 0ZM748.625 0H740.371L725 15.3708V23.625L748.625 0ZM725 0V7.11666L732.117 0H725ZM777.5 20.6208V12.3667L737.367 52.5H745.621L777.5 20.6208ZM777.5 37.1291V28.875L753.875 52.5H762.129L777.5 37.1291ZM777.5 45.3833L770.383 52.5H777.5V45.3833Z" fill="#1F242C"/>
<path d="M672.5 105L725 105L725 52.5C696.005 52.5 672.5 76.0051 672.5 105Z" fill="#1F242C"/>
<path d="M777.5 157.5L777.5 105L725 105C725 133.995 748.505 157.5 777.5 157.5Z" fill="#1F242C"/>
<path d="M64.4062 101V68.3516H74.9766C79.8984 68.3516 83.4609 69.7031 85.6641 72.4062C87.8828 75.1094 88.9922 79.2031 88.9922 84.6875C88.9922 90.1562 87.8828 94.2422 85.6641 96.9453C83.4609 99.6484 79.8984 101 74.9766 101H64.4062ZM68.9766 96.9219H74.9766C78.0547 96.9219 80.3203 96.2812 81.7734 95C83.2266 93.7188 83.9531 91.875 83.9531 89.4688V79.8828C83.9531 77.4766 83.2266 75.6328 81.7734 74.3516C80.3203 73.0703 78.0547 72.4297 74.9766 72.4297H68.9766V96.9219ZM94.7109 88.7656C94.7109 86.9062 94.9375 85.1875 95.3906 83.6094C95.8594 82.0156 96.5469 80.6641 97.4531 79.5547C98.375 78.4297 99.4844 77.5469 100.781 76.9062C102.078 76.2656 103.57 75.9453 105.258 75.9453C107.023 75.9453 108.562 76.25 109.875 76.8594C111.188 77.4688 112.273 78.3047 113.133 79.3672C113.992 80.4141 114.641 81.6484 115.078 83.0703C115.516 84.4922 115.734 86.0234 115.734 87.6641V89.9609H99.2578V92.5625C99.2578 93.4531 99.4219 94.2422 99.75 94.9297C100.094 95.6172 100.555 96.2031 101.133 96.6875C101.711 97.1562 102.359 97.5156 103.078 97.7656C103.797 98 104.539 98.1172 105.305 98.1172C106.836 98.1172 108.164 97.7266 109.289 96.9453C110.414 96.1641 111.055 94.9219 111.211 93.2188H115.547C115.453 94.5312 115.109 95.7031 114.516 96.7344C113.922 97.75 113.148 98.6172 112.195 99.3359C111.258 100.055 110.195 100.609 109.008 101C107.82 101.391 106.57 101.586 105.258 101.586C103.492 101.586 101.945 101.266 100.617 100.625C99.3047 99.9844 98.2031 99.1016 97.3125 97.9766C96.4375 96.8516 95.7812 95.5078 95.3438 93.9453C94.9219 92.3828 94.7109 90.6562 94.7109 88.7656ZM99.2578 86.5156H111.258V85.1562C111.258 84.2656 111.094 83.4609 110.766 82.7422C110.453 82.0234 110.016 81.4141 109.453 80.9141C108.906 80.4141 108.266 80.0391 107.531 79.7891C106.812 79.5234 106.055 79.3906 105.258 79.3906C104.461 79.3906 103.703 79.5234 102.984 79.7891C102.266 80.0391 101.625 80.4141 101.062 80.9141C100.5 81.4141 100.055 82.0234 99.7266 82.7422C99.4141 83.4609 99.2578 84.2656 99.2578 85.1562V86.5156ZM120.703 93.2656H125.039C125.102 94.8906 125.68 96.1094 126.773 96.9219C127.883 97.7188 129.188 98.1172 130.688 98.1172C132.125 98.1172 133.375 97.7969 134.438 97.1562C135.5 96.5156 136.031 95.5859 136.031 94.3672C136.031 93.3828 135.711 92.5938 135.07 92C134.43 91.4062 133.289 90.9531 131.648 90.6406L127.617 89.8203C125.602 89.3984 124.047 88.625 122.953 87.5C121.875 86.3594 121.336 84.8281 121.336 82.9062C121.336 81.9531 121.547 81.0547 121.969 80.2109C122.406 79.3516 123.023 78.6094 123.82 77.9844C124.633 77.3594 125.578 76.8672 126.656 76.5078C127.75 76.1328 128.969 75.9453 130.312 75.9453C131.469 75.9453 132.594 76.1016 133.688 76.4141C134.797 76.7109 135.781 77.1797 136.641 77.8203C137.516 78.4609 138.211 79.2812 138.727 80.2812C139.258 81.2656 139.539 82.4453 139.57 83.8203H135.258C135.195 82.1953 134.688 81.0547 133.734 80.3984C132.797 79.7266 131.672 79.3906 130.359 79.3906C129.016 79.3906 127.875 79.7109 126.938 80.3516C126.016 80.9922 125.555 81.8281 125.555 82.8594C125.555 83.8125 125.828 84.5547 126.375 85.0859C126.922 85.6172 127.805 86.0078 129.023 86.2578L133.148 87.125C135.586 87.6406 137.391 88.4766 138.562 89.6328C139.75 90.7734 140.344 92.3359 140.344 94.3203C140.344 95.3516 140.109 96.3125 139.641 97.2031C139.188 98.0781 138.523 98.8359 137.648 99.4766C136.789 100.102 135.766 100.609 134.578 101C133.391 101.391 132.078 101.586 130.641 101.586C129.266 101.586 127.977 101.406 126.773 101.047C125.586 100.703 124.539 100.188 123.633 99.5C122.742 98.7969 122.039 97.9297 121.523 96.8984C121.008 95.8516 120.734 94.6406 120.703 93.2656ZM146.625 72.875V68.3516H151.125V72.875H146.625ZM146.719 101V76.5312H151.031V101H146.719ZM157.758 88.7656C157.758 87 157.953 85.3359 158.344 83.7734C158.75 82.1953 159.352 80.8359 160.148 79.6953C160.945 78.5391 161.953 77.625 163.172 76.9531C164.391 76.2812 165.812 75.9453 167.438 75.9453C169.266 75.9453 170.836 76.3359 172.148 77.1172C173.461 77.8984 174.5 79.0312 175.266 80.5156V76.5312H179.602V100.531C179.602 102.234 179.297 103.695 178.688 104.914C178.078 106.148 177.273 107.172 176.273 107.984C175.289 108.797 174.164 109.391 172.898 109.766C171.633 110.156 170.344 110.352 169.031 110.352C167.75 110.352 166.523 110.227 165.352 109.977C164.195 109.727 163.141 109.305 162.188 108.711C161.25 108.117 160.469 107.328 159.844 106.344C159.219 105.375 158.812 104.156 158.625 102.688H162.938C163.094 104.094 163.688 105.148 164.719 105.852C165.766 106.555 167.141 106.906 168.844 106.906C169.672 106.906 170.477 106.781 171.258 106.531C172.039 106.297 172.727 105.914 173.32 105.383C173.914 104.867 174.383 104.188 174.727 103.344C175.086 102.516 175.266 101.508 175.266 100.32V97.0156C174.5 98.4844 173.477 99.6172 172.195 100.414C170.914 101.195 169.367 101.586 167.555 101.586C165.898 101.586 164.453 101.25 163.219 100.578C162 99.9062 160.984 98.9922 160.172 97.8359C159.359 96.6797 158.75 95.3281 158.344 93.7812C157.953 92.2188 157.758 90.5469 157.758 88.7656ZM162.305 92.5625C162.305 93.3906 162.461 94.1484 162.773 94.8359C163.102 95.5234 163.547 96.1094 164.109 96.5938C164.672 97.0625 165.328 97.4375 166.078 97.7188C166.828 97.9844 167.656 98.1172 168.562 98.1172C170.734 98.1172 172.391 97.4297 173.531 96.0547C174.688 94.6797 175.266 92.9375 175.266 90.8281V86.7031C175.266 84.5938 174.688 82.8516 173.531 81.4766C172.391 80.0859 170.734 79.3906 168.562 79.3906C167.672 79.3906 166.844 79.5312 166.078 79.8125C165.328 80.0781 164.672 80.4531 164.109 80.9375C163.547 81.4219 163.102 82.0078 162.773 82.6953C162.461 83.3828 162.305 84.1406 162.305 84.9688V92.5625ZM187.547 101V76.5312H191.859V80.5625C192.531 79.125 193.453 78 194.625 77.1875C195.797 76.3594 197.312 75.9453 199.172 75.9453C200.359 75.9453 201.438 76.1094 202.406 76.4375C203.375 76.75 204.211 77.2578 204.914 77.9609C205.617 78.6641 206.164 79.5703 206.555 80.6797C206.945 81.7734 207.141 83.1094 207.141 84.6875V101H202.805V85.1562C202.805 83.3594 202.461 81.9531 201.773 80.9375C201.086 79.9062 199.812 79.3906 197.953 79.3906C197.062 79.3906 196.25 79.5703 195.516 79.9297C194.781 80.2734 194.141 80.7734 193.594 81.4297C193.047 82.0859 192.617 82.8672 192.305 83.7734C192.008 84.6641 191.859 85.6406 191.859 86.7031V101H187.547Z" fill="white"/>
<path d="M71.2273 139.182C71.2273 135.5 69.0682 133.205 66.0909 133.205C63.1136 133.205 60.9545 135.5 60.9545 139.182C60.9545 142.864 63.1136 145.159 66.0909 145.159C69.0682 145.159 71.2273 142.864 71.2273 139.182ZM69.8636 139.182C69.8636 142.205 68.2045 143.841 66.0909 143.841C63.9773 143.841 62.3182 142.205 62.3182 139.182C62.3182 136.159 63.9773 134.523 66.0909 134.523C68.2045 134.523 69.8636 136.159 69.8636 139.182ZM78.9148 141.432C78.9148 143.068 77.6648 143.818 76.6648 143.818C75.5511 143.818 74.7557 143 74.7557 141.727V136.273H73.4148V141.818C73.4148 144.045 74.5966 145.114 76.233 145.114C77.5511 145.114 78.4148 144.409 78.8239 143.523H78.9148V145H80.2557V136.273H78.9148V141.432ZM82.7116 145H84.0526V139.477C84.0526 138.295 84.9844 137.432 86.2571 137.432C86.6151 137.432 86.9844 137.5 87.0753 137.523V136.159C86.9219 136.148 86.5696 136.136 86.3707 136.136C85.3253 136.136 84.4162 136.727 84.098 137.591H84.0071V136.273H82.7116V145ZM99.3466 138.227C98.9261 136.989 97.983 136.159 96.2557 136.159C94.4148 136.159 93.0511 137.205 93.0511 138.682C93.0511 139.886 93.767 140.693 95.3693 141.068L96.8239 141.409C97.7045 141.614 98.1193 142.034 98.1193 142.636C98.1193 143.386 97.3239 144 96.0739 144C94.9773 144 94.2898 143.528 94.0511 142.591L92.7784 142.909C93.0909 144.392 94.3125 145.182 96.0966 145.182C98.125 145.182 99.5057 144.074 99.5057 142.568C99.5057 141.352 98.7443 140.585 97.1875 140.205L95.892 139.886C94.858 139.631 94.392 139.284 94.392 138.614C94.392 137.864 95.1875 137.318 96.2557 137.318C97.4261 137.318 97.9091 137.966 98.142 138.568L99.3466 138.227ZM102.388 148.25C103.598 148.25 104.456 147.608 104.956 146.273L108.672 136.295L107.206 136.273L104.797 143.227H104.706L102.297 136.273H100.842L104.07 145.045L103.82 145.727C103.342 147.034 102.729 147.159 101.751 146.909L101.411 148.091C101.547 148.159 101.933 148.25 102.388 148.25ZM116.628 138.227C116.207 136.989 115.264 136.159 113.537 136.159C111.696 136.159 110.332 137.205 110.332 138.682C110.332 139.886 111.048 140.693 112.651 141.068L114.105 141.409C114.986 141.614 115.401 142.034 115.401 142.636C115.401 143.386 114.605 144 113.355 144C112.259 144 111.571 143.528 111.332 142.591L110.06 142.909C110.372 144.392 111.594 145.182 113.378 145.182C115.406 145.182 116.787 144.074 116.787 142.568C116.787 141.352 116.026 140.585 114.469 140.205L113.173 139.886C112.139 139.631 111.673 139.284 111.673 138.614C111.673 137.864 112.469 137.318 113.537 137.318C114.707 137.318 115.19 137.966 115.423 138.568L116.628 138.227ZM122.601 136.273H120.737V134.182H119.396V136.273H118.078V137.409H119.396V142.864C119.396 144.386 120.624 145.114 121.76 145.114C122.26 145.114 122.578 145.023 122.76 144.955L122.487 143.75C122.374 143.773 122.192 143.818 121.896 143.818C121.305 143.818 120.737 143.636 120.737 142.5V137.409H122.601V136.273ZM128.183 145.182C129.956 145.182 131.251 144.295 131.661 142.977L130.365 142.614C130.024 143.523 129.234 143.977 128.183 143.977C126.609 143.977 125.524 142.96 125.462 141.091H131.797V140.523C131.797 137.273 129.865 136.159 128.047 136.159C125.683 136.159 124.115 138.023 124.115 140.705C124.115 143.386 125.661 145.182 128.183 145.182ZM125.462 139.932C125.553 138.574 126.513 137.364 128.047 137.364C129.501 137.364 130.433 138.455 130.433 139.932H125.462ZM133.837 145H135.178V139.545C135.178 138.267 136.109 137.364 137.155 137.364C138.172 137.364 138.882 138.028 138.882 139.023V145H140.246V139.318C140.246 138.193 140.95 137.364 142.178 137.364C143.132 137.364 143.95 137.869 143.95 139.159V145H145.291V139.159C145.291 137.108 144.189 136.159 142.632 136.159C141.382 136.159 140.467 136.733 140.018 137.636H139.928C139.496 136.705 138.734 136.159 137.587 136.159C136.45 136.159 135.609 136.705 135.246 137.636H135.132V136.273H133.837V145ZM153.925 138.227C153.504 136.989 152.561 136.159 150.834 136.159C148.993 136.159 147.629 137.205 147.629 138.682C147.629 139.886 148.345 140.693 149.947 141.068L151.402 141.409C152.283 141.614 152.697 142.034 152.697 142.636C152.697 143.386 151.902 144 150.652 144C149.555 144 148.868 143.528 148.629 142.591L147.357 142.909C147.669 144.392 148.891 145.182 150.675 145.182C152.703 145.182 154.084 144.074 154.084 142.568C154.084 141.352 153.322 140.585 151.766 140.205L150.47 139.886C149.436 139.631 148.97 139.284 148.97 138.614C148.97 137.864 149.766 137.318 150.834 137.318C152.004 137.318 152.487 137.966 152.72 138.568L153.925 138.227ZM164.489 136.273H162.534V135.386C162.534 134.523 162.898 134.068 163.784 134.068C164.17 134.068 164.398 134.159 164.534 134.205L164.92 133.045C164.716 132.955 164.307 132.818 163.648 132.818C162.398 132.818 161.193 133.568 161.193 135.068V136.273H159.784V137.409H161.193V145H162.534V137.409H164.489V136.273ZM169.554 145.182C171.918 145.182 173.509 143.386 173.509 140.682C173.509 137.955 171.918 136.159 169.554 136.159C167.19 136.159 165.599 137.955 165.599 140.682C165.599 143.386 167.19 145.182 169.554 145.182ZM169.554 143.977C167.759 143.977 166.94 142.432 166.94 140.682C166.94 138.932 167.759 137.364 169.554 137.364C171.349 137.364 172.168 138.932 172.168 140.682C172.168 142.432 171.349 143.977 169.554 143.977ZM175.555 145H176.896V139.477C176.896 138.295 177.828 137.432 179.101 137.432C179.459 137.432 179.828 137.5 179.919 137.523V136.159C179.766 136.148 179.413 136.136 179.214 136.136C178.169 136.136 177.26 136.727 176.942 137.591H176.851V136.273H175.555V145ZM186.19 145H187.486V143.659H187.645C187.94 144.136 188.509 145.182 190.19 145.182C192.372 145.182 193.895 143.432 193.895 140.659C193.895 137.909 192.372 136.159 190.168 136.159C188.463 136.159 187.94 137.205 187.645 137.659H187.531V133.364H186.19V145ZM187.509 140.636C187.509 138.682 188.372 137.364 190.009 137.364C191.713 137.364 192.554 138.795 192.554 140.636C192.554 142.5 191.69 143.977 190.009 143.977C188.395 143.977 187.509 142.614 187.509 140.636ZM201.446 141.432C201.446 143.068 200.196 143.818 199.196 143.818C198.082 143.818 197.287 143 197.287 141.727V136.273H195.946V141.818C195.946 144.045 197.128 145.114 198.764 145.114C200.082 145.114 200.946 144.409 201.355 143.523H201.446V145H202.787V136.273H201.446V141.432ZM205.243 145H206.584V136.273H205.243V145ZM205.925 134.818C206.447 134.818 206.879 134.409 206.879 133.909C206.879 133.409 206.447 133 205.925 133C205.402 133 204.97 133.409 204.97 133.909C204.97 134.409 205.402 134.818 205.925 134.818ZM210.381 133.364H209.04V145H210.381V133.364ZM216.132 145.182C217.814 145.182 218.382 144.136 218.678 143.659H218.837V145H220.132V133.364H218.791V137.659H218.678C218.382 137.205 217.859 136.159 216.155 136.159C213.95 136.159 212.428 137.909 212.428 140.659C212.428 143.432 213.95 145.182 216.132 145.182ZM216.314 143.977C214.632 143.977 213.768 142.5 213.768 140.636C213.768 138.795 214.609 137.364 216.314 137.364C217.95 137.364 218.814 138.682 218.814 140.636C218.814 142.614 217.928 143.977 216.314 143.977ZM222.774 145H224.115V136.273H222.774V145ZM223.456 134.818C223.979 134.818 224.411 134.409 224.411 133.909C224.411 133.409 223.979 133 223.456 133C222.933 133 222.501 133.409 222.501 133.909C222.501 134.409 222.933 134.818 223.456 134.818ZM227.912 139.75C227.912 138.227 228.855 137.364 230.139 137.364C231.384 137.364 232.139 138.176 232.139 139.545V145H233.48V139.455C233.48 137.227 232.293 136.159 230.526 136.159C229.207 136.159 228.389 136.75 227.98 137.636H227.866V136.273H226.571V145H227.912V139.75ZM239.453 148.455C241.544 148.455 243.226 147.5 243.226 145.25V136.273H241.93V137.659H241.794C241.499 137.205 240.953 136.159 239.249 136.159C237.044 136.159 235.521 137.909 235.521 140.591C235.521 143.318 237.112 144.864 239.226 144.864C240.93 144.864 241.476 143.864 241.771 143.386H241.885V145.159C241.885 146.614 240.862 147.273 239.453 147.273C237.868 147.273 237.311 146.438 236.953 145.955L235.885 146.705C236.43 147.619 237.504 148.455 239.453 148.455ZM239.408 143.659C237.726 143.659 236.862 142.386 236.862 140.568C236.862 138.795 237.703 137.364 239.408 137.364C241.044 137.364 241.908 138.682 241.908 140.568C241.908 142.5 241.021 143.659 239.408 143.659ZM247.68 143.409H246.226L246.158 144.045C245.993 145.585 245.669 147.119 245.521 147.841H246.544C246.817 147.068 247.396 145.318 247.589 144.023L247.68 143.409ZM256.642 145H257.96L259.869 138.295H260.006L261.915 145H263.233L265.892 136.273H264.483L262.597 142.932H262.506L260.665 136.273H259.233L257.369 142.955H257.278L255.392 136.273H253.983L256.642 145ZM267.665 145H269.006V139.477C269.006 138.295 269.938 137.432 271.21 137.432C271.568 137.432 271.938 137.5 272.028 137.523V136.159C271.875 136.148 271.523 136.136 271.324 136.136C270.278 136.136 269.369 136.727 269.051 137.591H268.96V136.273H267.665V145ZM273.618 145H274.959V136.273H273.618V145ZM274.3 134.818C274.822 134.818 275.254 134.409 275.254 133.909C275.254 133.409 274.822 133 274.3 133C273.777 133 273.345 133.409 273.345 133.909C273.345 134.409 273.777 134.818 274.3 134.818ZM281.21 136.273H279.347V134.182H278.006V136.273H276.688V137.409H278.006V142.864C278.006 144.386 279.233 145.114 280.369 145.114C280.869 145.114 281.188 145.023 281.369 144.955L281.097 143.75C280.983 143.773 280.801 143.818 280.506 143.818C279.915 143.818 279.347 143.636 279.347 142.5V137.409H281.21V136.273ZM283.227 145H284.568V136.273H283.227V145ZM283.909 134.818C284.432 134.818 284.864 134.409 284.864 133.909C284.864 133.409 284.432 133 283.909 133C283.386 133 282.955 133.409 282.955 133.909C282.955 134.409 283.386 134.818 283.909 134.818ZM288.365 139.75C288.365 138.227 289.308 137.364 290.592 137.364C291.837 137.364 292.592 138.176 292.592 139.545V145H293.933V139.455C293.933 137.227 292.746 136.159 290.979 136.159C289.661 136.159 288.842 136.75 288.433 137.636H288.32V136.273H287.024V145H288.365V139.75ZM299.906 148.455C301.997 148.455 303.679 147.5 303.679 145.25V136.273H302.384V137.659H302.247C301.952 137.205 301.406 136.159 299.702 136.159C297.497 136.159 295.974 137.909 295.974 140.591C295.974 143.318 297.565 144.864 299.679 144.864C301.384 144.864 301.929 143.864 302.224 143.386H302.338V145.159C302.338 146.614 301.315 147.273 299.906 147.273C298.321 147.273 297.764 146.438 297.406 145.955L296.338 146.705C296.884 147.619 297.957 148.455 299.906 148.455ZM299.861 143.659C298.179 143.659 297.315 142.386 297.315 140.568C297.315 138.795 298.156 137.364 299.861 137.364C301.497 137.364 302.361 138.682 302.361 140.568C302.361 142.5 301.474 143.659 299.861 143.659ZM313.202 145.205C314.724 145.205 315.52 144.386 315.793 143.818H315.861V145H317.202V139.25C317.202 136.477 315.088 136.159 313.974 136.159C312.656 136.159 311.156 136.614 310.474 138.205L311.747 138.659C312.043 138.023 312.741 137.341 314.02 137.341C315.253 137.341 315.861 137.994 315.861 139.114V139.159C315.861 139.807 315.202 139.75 313.611 139.955C311.991 140.165 310.224 140.523 310.224 142.523C310.224 144.227 311.543 145.205 313.202 145.205ZM313.406 144C312.338 144 311.565 143.523 311.565 142.591C311.565 141.568 312.497 141.25 313.543 141.114C314.111 141.045 315.634 140.886 315.861 140.614V141.841C315.861 142.932 314.997 144 313.406 144ZM320.99 139.75C320.99 138.227 321.933 137.364 323.217 137.364C324.462 137.364 325.217 138.176 325.217 139.545V145H326.558V139.455C326.558 137.227 325.371 136.159 323.604 136.159C322.286 136.159 321.467 136.75 321.058 137.636H320.945V136.273H319.649V145H320.99V139.75ZM332.304 145.182C333.986 145.182 334.554 144.136 334.849 143.659H335.009V145H336.304V133.364H334.963V137.659H334.849C334.554 137.205 334.031 136.159 332.327 136.159C330.122 136.159 328.599 137.909 328.599 140.659C328.599 143.432 330.122 145.182 332.304 145.182ZM332.486 143.977C330.804 143.977 329.94 142.5 329.94 140.636C329.94 138.795 330.781 137.364 332.486 137.364C334.122 137.364 334.986 138.682 334.986 140.636C334.986 142.614 334.099 143.977 332.486 143.977ZM346.991 145.182C348.923 145.182 350.196 144 350.423 142.455H349.082C348.832 143.409 348.037 143.977 346.991 143.977C345.401 143.977 344.378 142.659 344.378 140.636C344.378 138.659 345.423 137.364 346.991 137.364C348.173 137.364 348.878 138.091 349.082 138.886H350.423C350.196 137.25 348.81 136.159 346.969 136.159C344.605 136.159 343.037 138.023 343.037 140.682C343.037 143.295 344.537 145.182 346.991 145.182ZM355.929 145.182C358.293 145.182 359.884 143.386 359.884 140.682C359.884 137.955 358.293 136.159 355.929 136.159C353.565 136.159 351.974 137.955 351.974 140.682C351.974 143.386 353.565 145.182 355.929 145.182ZM355.929 143.977C354.134 143.977 353.315 142.432 353.315 140.682C353.315 138.932 354.134 137.364 355.929 137.364C357.724 137.364 358.543 138.932 358.543 140.682C358.543 142.432 357.724 143.977 355.929 143.977ZM361.93 145H363.271V139.545C363.271 138.267 364.203 137.364 365.249 137.364C366.266 137.364 366.976 138.028 366.976 139.023V145H368.339V139.318C368.339 138.193 369.044 137.364 370.271 137.364C371.226 137.364 372.044 137.869 372.044 139.159V145H373.385V139.159C373.385 137.108 372.283 136.159 370.726 136.159C369.476 136.159 368.561 136.733 368.112 137.636H368.021C367.589 136.705 366.828 136.159 365.68 136.159C364.544 136.159 363.703 136.705 363.339 137.636H363.226V136.273H361.93V145ZM375.837 145H377.178V139.545C377.178 138.267 378.109 137.364 379.155 137.364C380.172 137.364 380.882 138.028 380.882 139.023V145H382.246V139.318C382.246 138.193 382.95 137.364 384.178 137.364C385.132 137.364 385.95 137.869 385.95 139.159V145H387.291V139.159C387.291 137.108 386.189 136.159 384.632 136.159C383.382 136.159 382.467 136.733 382.018 137.636H381.928C381.496 136.705 380.734 136.159 379.587 136.159C378.45 136.159 377.609 136.705 377.246 137.636H377.132V136.273H375.837V145ZM395.243 141.432C395.243 143.068 393.993 143.818 392.993 143.818C391.879 143.818 391.084 143 391.084 141.727V136.273H389.743V141.818C389.743 144.045 390.925 145.114 392.561 145.114C393.879 145.114 394.743 144.409 395.152 143.523H395.243V145H396.584V136.273H395.243V141.432ZM400.381 139.75C400.381 138.227 401.324 137.364 402.608 137.364C403.852 137.364 404.608 138.176 404.608 139.545V145H405.949V139.455C405.949 137.227 404.761 136.159 402.994 136.159C401.676 136.159 400.858 136.75 400.449 137.636H400.335V136.273H399.04V145H400.381V139.75ZM408.399 145H409.74V136.273H408.399V145ZM409.081 134.818C409.604 134.818 410.036 134.409 410.036 133.909C410.036 133.409 409.604 133 409.081 133C408.558 133 408.126 133.409 408.126 133.909C408.126 134.409 408.558 134.818 409.081 134.818ZM415.741 145.182C417.673 145.182 418.946 144 419.173 142.455H417.832C417.582 143.409 416.787 143.977 415.741 143.977C414.151 143.977 413.128 142.659 413.128 140.636C413.128 138.659 414.173 137.364 415.741 137.364C416.923 137.364 417.628 138.091 417.832 138.886H419.173C418.946 137.25 417.56 136.159 415.719 136.159C413.355 136.159 411.787 138.023 411.787 140.682C411.787 143.295 413.287 145.182 415.741 145.182ZM423.702 145.205C425.224 145.205 426.02 144.386 426.293 143.818H426.361V145H427.702V139.25C427.702 136.477 425.588 136.159 424.474 136.159C423.156 136.159 421.656 136.614 420.974 138.205L422.247 138.659C422.543 138.023 423.241 137.341 424.52 137.341C425.753 137.341 426.361 137.994 426.361 139.114V139.159C426.361 139.807 425.702 139.75 424.111 139.955C422.491 140.165 420.724 140.523 420.724 142.523C420.724 144.227 422.043 145.205 423.702 145.205ZM423.906 144C422.838 144 422.065 143.523 422.065 142.591C422.065 141.568 422.997 141.25 424.043 141.114C424.611 141.045 426.134 140.886 426.361 140.614V141.841C426.361 142.932 425.497 144 423.906 144ZM433.945 136.273H432.081V134.182H430.74V136.273H429.422V137.409H430.74V142.864C430.74 144.386 431.967 145.114 433.104 145.114C433.604 145.114 433.922 145.023 434.104 144.955L433.831 143.75C433.717 143.773 433.536 143.818 433.24 143.818C432.649 143.818 432.081 143.636 432.081 142.5V137.409H433.945V136.273ZM435.962 145H437.303V136.273H435.962V145ZM436.643 134.818C437.166 134.818 437.598 134.409 437.598 133.909C437.598 133.409 437.166 133 436.643 133C436.121 133 435.689 133.409 435.689 133.909C435.689 134.409 436.121 134.818 436.643 134.818ZM441.099 139.75C441.099 138.227 442.043 137.364 443.327 137.364C444.571 137.364 445.327 138.176 445.327 139.545V145H446.668V139.455C446.668 137.227 445.48 136.159 443.713 136.159C442.395 136.159 441.577 136.75 441.168 137.636H441.054V136.273H439.759V145H441.099V139.75ZM452.641 148.455C454.732 148.455 456.413 147.5 456.413 145.25V136.273H455.118V137.659H454.982C454.686 137.205 454.141 136.159 452.436 136.159C450.232 136.159 448.709 137.909 448.709 140.591C448.709 143.318 450.3 144.864 452.413 144.864C454.118 144.864 454.663 143.864 454.959 143.386H455.072V145.159C455.072 146.614 454.05 147.273 452.641 147.273C451.055 147.273 450.499 146.438 450.141 145.955L449.072 146.705C449.618 147.619 450.692 148.455 452.641 148.455ZM452.595 143.659C450.913 143.659 450.05 142.386 450.05 140.568C450.05 138.795 450.891 137.364 452.595 137.364C454.232 137.364 455.095 138.682 455.095 140.568C455.095 142.5 454.209 143.659 452.595 143.659Z" fill="#C4C3C6"/>
<path d="M590.658 70.645C578.802 70.6724 567.591 79.5578 561.526 92.0877C555.206 105.092 555.067 120.483 562.257 134.03C568.906 146.466 571.479 157.622 570.502 163.925C569.435 166.387 568.79 168.886 568.85 171.446C568.876 175.21 570.194 178.804 572.802 181.445C574.412 199.544 582.865 218.952 595.152 232.661C594.25 234.854 593.759 237.224 593.895 239.72C594.027 244.701 596.423 248.956 600.198 252.055C602.908 254.35 606.319 255.926 610.254 257.193C616.893 259.194 625.334 260.074 634.449 259.736C643.564 259.398 651.932 257.859 658.467 255.378C662.29 253.867 665.574 252.025 668.139 249.481C671.7 246.102 673.861 241.677 673.729 236.697C673.657 234.277 673.009 231.949 671.99 229.801C684.152 214.114 691.594 192.335 691.003 173.119C690.359 152.904 680.335 134.423 660.75 124.618C660.686 124.542 660.762 124.477 660.698 124.401C660.658 124.042 660.555 123.607 660.592 123.185C661.787 120.876 663.329 118.669 665.37 116.434C667.105 114.456 668.649 113.03 671.496 110.51C673.117 109.02 673.653 108.57 674.355 107.85C675.057 107.131 675.605 106.54 676.178 105.668C677.631 103.665 678.456 101.537 678.369 98.4772C678.267 94.7772 676.706 91.5176 674.227 89.0293C672.531 87.3193 670.516 86.0074 668.195 84.9525C664.848 83.453 660.76 82.3146 655.93 81.5371C648.09 80.2834 638.051 79.8309 628.654 80.1445C623.879 80.3655 619.296 80.8164 615.036 81.6503C610.583 74.9434 602.233 70.5929 590.658 70.645Z" fill="black"/>
<path fill-rule="evenodd" clip-rule="evenodd" d="M667.232 99.2067C662.131 101.529 651.931 102.908 640.051 103.217C622.844 103.557 609.276 101.234 609.224 96.9708C609.181 95.8314 610.202 94.714 612.055 93.8115C610.456 94.2394 608.986 94.8206 607.592 95.3375C607.84 89.2549 604.319 81.6358 590.478 81.6315C576.138 81.6546 559.922 106.357 571.791 128.902C580.322 144.981 582.866 158.902 580.782 167.309C579.154 170.502 579.174 172.705 580.766 173.98C581.562 174.617 582.395 174.832 583.342 174.56C583.332 175.482 583.335 176.263 583.401 177.12C584.068 196.273 594.516 218.836 609.462 231.358C606.398 233.929 604.589 236.752 604.726 239.249C604.94 245.727 618.037 249.357 633.989 248.765C649.94 248.173 662.831 243.622 662.553 237.068C662.548 235.506 659.932 234.567 654.72 234.111C651.121 233.867 645.795 233.898 638.741 234.204C628.128 234.624 623.516 233.795 617.964 231.534C630.389 233.118 645.209 223.555 657.718 212.015C679.876 191.594 679.817 174.412 679.75 173.554C679.295 160.099 673.27 142.962 654.88 134.113C648.814 131.24 648.745 122.291 650.067 119.354C655.699 107.709 667.149 100.974 667.232 99.2067ZM595.298 106.045C597.271 106.217 599.292 105.826 600.993 105.052C602.18 107.711 604.885 112.491 609.432 120.555C610.965 123.315 611.533 132.237 605.629 135.625C596.888 140.61 591.264 147.287 587.806 154.366C586.6 146.24 583.251 136.648 577.977 125.54C573.18 115.467 576.193 105.367 578.547 101.172C580.902 96.9773 586.155 90.4808 592.413 89.5377C596.444 88.8966 600.105 92.482 599.451 95.9029C598.784 99.4646 592.709 101.559 591.241 98.8756C591.06 98.5049 590.712 97.6226 590.889 97.2123C591.134 97.6596 591.737 98.0673 592.763 98.5119C595.168 97.7995 596.381 96.912 596.608 95.9381C596.986 94.0547 595.379 92.1396 592.999 92.5702C589.967 93.1566 587.644 95.3668 585.296 97.8587C586.476 102.221 590.367 105.613 595.298 106.045Z" fill="#D3D8E0"/>
<path d="M620.484 162.734C620.58 156.291 614.471 154.446 607.975 156.118C604.651 157.02 601.777 158.591 601.343 161.75C600.782 163.696 601.772 165.75 603.557 166.583C606.224 167.975 609.338 168.051 611.976 166.818C612.701 166.585 613.37 166.136 613.767 165.525C611.651 165.377 609.555 164.947 607.554 164.169C605.018 162.929 604.818 160.717 607.203 159.041C609.72 157.516 612.919 157.385 615.511 158.842C616.741 159.496 617.725 160.628 618.059 161.927C618.459 163.302 618.22 164.703 617.426 165.923C615.138 169.236 611.388 171.171 607.362 170.961C603.514 171.259 599.908 169.093 598.311 165.579C597.199 163.233 595.937 157.97 602.909 154.559C607.122 152.089 617.027 152.356 620.754 154.814C624.067 157.102 625.432 159.891 624.395 163.575C623.466 165.707 622.123 167.669 620.322 169.103C619.718 169.627 619.049 170.077 618.38 170.526C618.314 170.451 618.248 170.375 618.107 170.365C619.61 168.131 620.437 165.425 620.484 162.734Z" fill="black"/>
<path d="M630.057 166.735C629.905 172.962 635.882 174.656 642.021 173.03C645.269 172.194 648.003 170.613 648.426 167.594C648.912 165.714 648.053 163.811 646.268 162.978C643.742 161.596 640.77 161.53 638.197 162.839C637.472 163.072 636.878 163.455 636.481 164.065C638.456 164.204 640.553 164.634 642.413 165.402C644.883 166.567 645.017 168.703 642.707 170.313C640.266 171.773 637.284 171.848 634.823 170.542C633.593 169.889 632.75 168.766 632.34 167.533C632.006 166.233 632.245 164.833 632.889 163.743C635.025 160.561 638.7 158.692 642.519 158.817C646.226 158.509 649.691 160.665 651.157 164.028C652.203 166.299 653.409 171.345 646.729 174.635C642.667 176.974 633.185 176.736 629.665 174.363C626.483 172.227 625.184 169.513 626.212 165.97C627.065 163.903 628.397 162.083 630.058 160.639C630.662 160.114 631.331 159.665 631.925 159.281C631.99 159.357 632.056 159.432 632.197 159.442C630.911 161.62 630.093 164.186 630.057 166.735Z" fill="black"/>
<path d="M676.976 170.867C678.06 164.492 672.247 161.463 665.632 161.78C662.217 161.967 659.1 162.954 658.319 166.018C657.485 167.802 658.108 170.043 659.797 171.225C662.143 173.161 665.283 173.877 668.098 173.152C668.813 173.06 669.473 172.752 670.076 172.227C667.99 171.656 665.998 170.737 664.158 169.687C661.803 167.892 661.885 165.7 664.589 164.542C667.282 163.526 670.432 164.1 672.777 166.036C673.922 166.896 674.68 168.225 674.864 169.656C675.047 171.086 674.666 172.477 673.675 173.471C670.929 176.256 667.021 177.401 663.12 176.419C659.331 175.87 656.057 173.019 654.978 169.187C654.168 166.578 653.697 161.158 661.135 159.197C665.636 157.669 675.262 159.902 678.582 163.111C681.498 166.008 682.485 169.125 680.903 172.488C679.702 174.46 678.107 175.978 676.185 177.12C675.515 177.569 674.856 177.878 674.055 178.176C673.989 178.101 673.924 178.025 673.858 177.95C675.417 175.932 676.507 173.527 676.976 170.867Z" fill="black"/>
<path fill-rule="evenodd" clip-rule="evenodd" d="M645.683 91.5715C643.775 91.4755 641.714 91.5081 639.729 91.4764C632.201 91.5276 625.046 92.1792 619.915 93.2209C617.458 93.7158 615.488 94.3243 614.3 94.9301C613.264 95.4074 612.869 95.8696 612.921 96.0871C612.973 96.3046 613.358 96.7642 614.384 97.2089C615.68 97.8191 617.692 98.35 620.062 98.8413C625.302 99.7966 628.579 99.6574 636.184 99.542C643.713 99.4909 640.385 96.1475 645.516 95.1058C647.973 94.611 654.482 92.4122 645.683 91.5715Z" fill="white"/>
<path fill-rule="evenodd" clip-rule="evenodd" d="M657.178 132.185C651.06 129.094 653.694 124.143 655.015 121.206C656.515 117.86 662.874 105.213 664.939 102.697C638.782 121.774 622.091 119.462 622.688 125.618C623.221 131.698 639.992 127.416 657.984 135.946C657.305 135.603 657.858 132.528 657.178 132.185Z" fill="black"/>
<path fill-rule="evenodd" clip-rule="evenodd" d="M609.841 233.52C599.731 242.786 621.821 247.487 634.379 246.74C650.009 245.765 662.771 241.061 662.686 234.736C662.68 233.174 664.654 237.393 644.701 239.906C624.749 242.419 614.771 241.263 609.841 233.52Z" fill="white"/>
<path fill-rule="evenodd" clip-rule="evenodd" d="M634.283 139.125C611.031 131.484 588.89 153.325 589.52 172.9C590.359 197.391 598.342 206.749 606.049 221.69C606.41 222.432 613.284 225.801 612.633 222.692C611.607 218.202 602.572 204.635 600.769 186.306C597.578 155.434 621.613 148.451 634.283 139.125Z" fill="white"/>
<path d="M613.07 91.132C610.859 92.0741 609.981 89.9389 607.974 90.97C608.36 91.4296 607.728 93.7877 607.641 94.7739C606.814 100.167 604.054 101.7 601.692 103.552C599.329 105.404 596.643 106.091 593.225 106.218C594.75 106.635 595.907 108.014 597.928 107.623C608.971 105.537 619.586 94.5413 618.058 89.2969C616.382 89.7891 614.758 90.4988 613.07 91.132Z" fill="black"/>
</g>
<defs>
<clipPath id="clip0">
<rect width="882" height="300" fill="white"/>
</clipPath>
</defs>
</svg>
