<svg width="320" height="320" viewBox="0 0 320 320" fill="none" xmlns="http://www.w3.org/2000/svg">
<rect width="320" height="320" fill="white"/>
<path d="M77.1461 144.745C69.3532 144.745 62.9859 151.104 62.9859 158.993C62.9859 166.882 69.3057 173.24 77.1461 173.24C84.9864 173.24 91.3062 166.882 91.3062 158.993C91.3062 151.104 84.9389 144.745 77.1461 144.745ZM77.1461 166.642C72.917 166.642 69.4958 163.2 69.4958 158.945C69.4958 154.69 72.917 151.247 77.1461 151.247C81.3751 151.247 84.7964 154.69 84.7964 158.945C84.7964 163.2 81.3751 166.642 77.1461 166.642Z" fill="black"/>
<path d="M216.412 173.24C212.329 173.24 208.958 171.852 206.394 169.074C203.973 166.44 202.786 163.039 202.786 158.969C202.786 154.898 204.02 151.545 206.394 148.911C208.958 146.134 212.329 144.745 216.412 144.745C220.496 144.745 223.867 146.134 226.431 148.911C228.852 151.545 230.039 154.946 230.039 159.017C230.039 163.087 228.805 166.44 226.431 169.074C223.867 171.804 220.496 173.24 216.412 173.24ZM216.412 150.348C213.991 150.348 212.139 151.162 210.762 152.839C209.385 154.467 208.721 156.478 208.721 158.969C208.721 161.507 209.385 163.471 210.762 165.099C212.139 166.775 213.991 167.589 216.412 167.589C218.834 167.589 220.686 166.775 222.063 165.099C223.439 163.471 224.104 161.459 224.104 158.969C224.104 156.478 223.439 154.467 222.063 152.839C220.686 151.162 218.834 150.348 216.412 150.348Z" fill="black"/>
<path d="M95.1861 182.875L100.31 171.364L89.5408 145.19H96.0875L103.488 164.2L111.031 145.19H117.53L101.685 182.875H95.1861Z" fill="black"/>
<path d="M128.591 173.241C124.988 173.241 122.048 172.284 119.867 170.417C117.828 168.742 116.69 166.493 116.548 163.765L116.5 162.617H122.57L122.664 163.574C122.854 165.488 123.897 166.732 125.889 167.402C126.647 167.642 127.406 167.737 128.164 167.737C128.971 167.737 129.729 167.69 130.44 167.594C131.104 167.498 131.768 167.355 132.384 167.115C133.902 166.493 134.139 165.584 134.139 164.818C134.139 164.1 133.902 163.67 133.38 163.287C132.669 162.808 131.721 162.378 130.583 162.043C129.35 161.708 128.022 161.373 126.6 161.086C125.083 160.798 123.66 160.368 122.332 159.841C120.957 159.267 119.772 158.501 118.824 157.496C117.828 156.396 117.306 154.912 117.306 153.094C117.306 150.414 118.302 148.356 120.246 146.825C122.095 145.389 124.798 144.671 128.307 144.671C131.626 144.671 134.328 145.533 136.32 147.16C138.027 148.595 139.022 150.509 139.26 152.854L139.402 154.051H133.427L133.285 153.094C133.143 151.802 132.384 150.079 128.022 150.079C123.281 150.079 123.281 151.945 123.281 152.663C123.281 153.285 123.518 153.764 124.039 154.051C124.751 154.529 125.699 154.912 126.837 155.199C128.07 155.534 129.397 155.821 130.82 156.109C132.337 156.396 133.807 156.826 135.087 157.401C136.462 157.975 137.647 158.788 138.596 159.841C139.591 160.942 140.113 162.473 140.113 164.34C140.113 167.163 139.022 169.412 136.889 170.896C134.708 172.523 131.958 173.241 128.591 173.241Z" fill="black"/>
<path d="M145.393 172.796V150.69H140.26V145.139H145.393V136H151.381V145.139H157.179V150.69H151.381V172.796H145.393Z" fill="black"/>
<path d="M159.165 172.785V145.128H165.112V148.381C166.111 147.281 167.348 146.372 168.871 145.654C170.108 145.032 171.63 144.745 173.39 144.745H174.723V150.726H173.2C170.774 150.726 168.871 151.683 167.348 153.645C165.873 155.559 165.16 157.808 165.16 160.535V172.833H159.165V172.785Z" fill="black"/>
<path d="M188.322 173.24C184.233 173.24 180.81 171.852 178.195 169.074C175.675 166.392 174.392 162.992 174.392 158.969C174.392 154.946 175.628 151.545 178.005 148.911C180.572 146.134 183.948 144.745 188.037 144.745C192.126 144.745 195.501 146.134 198.069 148.911C200.494 151.545 201.682 154.946 201.682 159.017V161.651H180.667C181.048 163.231 181.809 164.524 182.902 165.578C184.328 166.967 186.088 167.637 188.322 167.637C191.317 167.637 193.409 166.44 194.693 163.949L194.978 163.375H201.349L200.779 164.859C199.828 167.35 198.306 169.409 196.215 170.942C194.218 172.426 191.555 173.24 188.322 173.24ZM195.359 155.856C194.978 154.419 194.265 153.222 193.219 152.264C191.84 150.971 190.129 150.348 188.084 150.348C185.992 150.348 184.328 150.971 182.95 152.264C181.904 153.222 181.238 154.419 180.81 155.856H195.359Z" fill="black"/>
<path d="M268.081 172.796V156.453C268.081 154.589 267.606 153.155 266.561 151.961C265.564 150.909 264.377 150.384 262.857 150.384C261.195 150.384 259.865 150.909 258.821 151.961C257.681 153.06 257.111 154.541 257.111 156.5V172.796H251.175V156.453C251.175 154.589 250.7 153.155 249.655 151.961C248.658 150.909 247.471 150.384 245.951 150.384C244.289 150.384 242.959 150.909 241.915 151.961C240.775 153.06 240.205 154.541 240.205 156.5V172.796H234.269V145.175H240.205V147.086C241.962 145.557 244.147 144.745 246.806 144.745C248.706 144.745 250.463 145.271 252.077 146.274C253.169 146.991 254.119 147.851 254.927 148.95C256.161 147.373 257.823 146.178 259.865 145.366C260.958 144.936 262.192 144.745 263.57 144.745C264.947 144.745 266.276 145.032 267.559 145.557C268.793 146.083 269.933 146.895 270.93 147.899C273.02 150.145 274.065 152.964 274.065 156.309V172.796H268.081Z" fill="black"/>
<path d="M157.142 145.227H140.186V150.526H157.142V145.227Z" fill="black"/>
<path d="M60.4741 145.19H45.2581V150.544H54.5779V172.532C54.5779 174.3 53.4843 175.878 51.8676 176.499L48.1111 177.981L49.7278 183.765L55.3863 181.566C57.2883 180.801 58.8574 179.367 59.7609 177.455C60.2839 176.356 60.5217 175.208 60.5217 173.966V145.19H60.4741Z" fill="black"/>
<path d="M230.002 145.227H224.154V172.759H230.002V145.227Z" fill="black"/>
</svg>
