<svg xmlns="http://www.w3.org/2000/svg" viewBox="0 0 1000 257.61"><defs><style>.cls-1{fill:#6b3eff;}.cls-2{fill:#562ed9;}</style></defs><title>Staked-logo-vertical</title><g id="Layer_2" data-name="Layer 2"><g id="Warstwa_6" data-name="Warstwa 6"><g id="Staked-logo-vertical"><g id="Group"><g id="Group_2" data-name="Group 2"><path id="Shape" class="cls-1" d="M0,257.61V137.82A81.24,81.24,0,0,1,22.67,81,77.47,77.47,0,0,1,78.5,57.25h17a83,83,0,0,1,20-33.54C134.15,4.91,157,.87,168.93.14H169A29.81,29.81,0,0,1,172.28,0h89.78a80.64,80.64,0,0,1,80.61,80.62V200.37L276,161.86c-6.84-.1-26.66-.1-28.89-.1a83,83,0,0,1-19.82,33.05c-18.69,18.84-41.49,22.86-53.41,23.57a32.52,32.52,0,0,1-3.28.12H69a4.91,4.91,0,0,0-2.42.66ZM78.94,84.19a51,51,0,0,0-36.37,15A54,54,0,0,0,27,137.82v73l26.2-15.15a31.77,31.77,0,0,1,15.89-4.26H171.91c8.5-.56,15.68-4.65,18.72-10.66a18.93,18.93,0,0,0,1.4-11.84,17.84,17.84,0,0,0-6.65-9.53c-2.2-1.6-3.2-1.77-9.16-2.2a115.44,115.44,0,0,1-19.13-2.75,120.55,120.55,0,0,1-16.25-4.66,74.87,74.87,0,0,1-48.79-65.6Zm45.79-27.61a54.89,54.89,0,0,0-6,23.87,48.52,48.52,0,0,0,19,37.21c8.57,6.63,17.5,8.67,25.37,10.48a90,90,0,0,0,15.06,2.12l.43,0c7,.57,14.22,1.16,22.62,7.28a44.63,44.63,0,0,1,16.84,24.3,55.13,55.13,0,0,0,6-23.81,48.73,48.73,0,0,0-4.09-18.34,49.65,49.65,0,0,0-14.86-19c-8.47-6.56-17.38-8.62-25.24-10.43l-.11,0a90.24,90.24,0,0,0-15.07-2.12l-.51,0c-7-.58-14.18-1.17-22.56-7.28a44.61,44.61,0,0,1-16.84-24.28ZM171,27c-8.53.58-15.72,4.67-18.75,10.68a19.25,19.25,0,0,0-1.4,11.9,17.73,17.73,0,0,0,6.63,9.49c2.22,1.62,3.22,1.79,9.18,2.24a116.47,116.47,0,0,1,19.13,2.73A122.93,122.93,0,0,1,202,68.72a74.8,74.8,0,0,1,48.8,66.07h16.08l10.49.1a21.19,21.19,0,0,1,6.92,1.23l.76.27a31,31,0,0,1,4.45,2.17l26.21,15.15v-73A53.82,53.82,0,0,0,262,27Z"/><path id="Path" class="cls-2" d="M266.87,134.84H250.81c0,.87.1,1.8.12,2.66a2.28,2.28,0,0,1,0,.37,80.62,80.62,0,0,1-3.87,24h8.65C261.71,155.4,266.87,143.12,266.87,134.84Z"/><path id="Path-2" class="cls-2" d="M78.93,57.25a75.52,75.52,0,0,0,4.8,26.94H92c0-1-.1-2.22-.13-3.13v-.37a80.21,80.21,0,0,1,3.7-23.57.29.29,0,0,0,0,.13Z"/><path id="Path-3" class="cls-2" d="M218.43,161.19v-.14c-.13.27-.25.54-.38.83a43.74,43.74,0,0,0-11.54-19.8c-1.28,7.67-5,16.41-10.45,21.89a35.09,35.09,0,0,1-4.57,3.48c.17.46.34.91.48,1.41a19.15,19.15,0,0,1-1.4,11.91c-3,6-10.1,10-18.41,10.64,7.93-.49,23.37-3.13,35.78-15.66A58.17,58.17,0,0,0,218.43,161.19Z"/><path id="Path-4" class="cls-2" d="M124.78,56.58h0c.26.92.54,1.83.85,2.72A43.66,43.66,0,0,0,136,76.14a43,43,0,0,1,10.7-21.72c.84-.84,2.69-2.42,4.39-3.82-.1-.3-.22-.61-.3-.93a19.18,19.18,0,0,1,1.4-11.92c3-5.89,9.93-9.9,18.1-10.6-8.34.67-23.76,3.53-35.55,15.42A54.48,54.48,0,0,0,124.78,56.58Z"/></g><g id="Layer_4" data-name="Layer 4"><path id="Shape-2" d="M636.53,200.24h-1c-15.37,0-28.1-5.24-37.83-15.56-9.12-9.93-13.75-22.64-13.75-37.78s4.63-27.86,13.75-37.79c9.73-10.32,22.46-15.56,37.83-15.56h1.13a52,52,0,0,1,28.2,8.3V95.16h22.06V198.61H664.85v-6.67A52.45,52.45,0,0,1,636.53,200.24Zm-1-85.88c-9,0-16,3-21.44,9.29-5.18,6-7.69,13.5-7.69,23a34.29,34.29,0,0,0,7.69,23c5.32,6.34,12.14,9.29,21.44,9.29s16.12-2.95,21.44-9.29c5.17-6,7.69-13.5,7.69-23a34.31,34.31,0,0,0-7.69-23c-5.32-6.34-12.13-9.29-21.44-9.29Z"/><path id="Path-5" d="M538.59,198.35v-83H519.17V94.7h19.42V60.55H561V94.7H583.1v20.61H561v83Z"/><path id="Shape-3" d="M842.14,199.76a55.92,55.92,0,0,1-21.24-3.91,49.62,49.62,0,0,1-17-11.65,53,53,0,0,1-14.36-37.78c0-15.14,4.63-27.85,13.76-37.78,9.73-10.33,22.45-15.56,37.83-15.56s28.09,5.23,37.82,15.56c9.13,9.93,13.76,22.64,13.76,37.78v9.7H813.4a29.31,29.31,0,0,0,8.5,14.75,27.84,27.84,0,0,0,19.26,7.7c.39,0,.78,0,1.17,0,11.4,0,19.27-4.56,24.07-13.94l1.22-2.23H891.7l-2,5.46a50.82,50.82,0,0,1-17.2,22.83,39.56,39.56,0,0,1-13.58,6.89A59.33,59.33,0,0,1,842.14,199.76Zm-1.82-85.48a28,28,0,0,0-18.62,7.09,30.07,30.07,0,0,0-8.09,13.33h55a29,29,0,0,0-8.1-13.33,27,27,0,0,0-18.28-7.1c-.38,0-.76,0-1.13,0Z"/><path id="Shape-4" d="M949.54,200h0c-.38,0-.75,0-1.12,0-15.37,0-28.1-5.23-37.83-15.55-9.13-9.93-13.76-22.64-13.76-37.79s4.63-27.85,13.76-37.78c9.73-10.32,22.45-15.56,37.83-15.56h1.23a52,52,0,0,1,27.9,8.09V60.55H1000v137.8H977.55v-6.47A52.52,52.52,0,0,1,949.54,200Zm-1.12-85.89c-9,0-16,3-21.44,9.3-5.18,6-7.69,13.49-7.69,23a34.31,34.31,0,0,0,7.68,23c5.33,6.35,12.14,9.3,21.45,9.3s16.11-2.95,21.44-9.3h-.08c5.22-6,7.76-13.55,7.76-23a34.26,34.26,0,0,0-7.68-23C964.54,117.05,957.72,114.09,948.42,114.09Z"/><path id="Path-6" d="M795.59,198.61h0l-31.21-34-20.26-22.06,41.7-42.89H754.47l-29.3,30V60.81H702.72v137.8h22.46V155.05l40,43.56Z"/><path id="Path-7" d="M475.07,199.76c-13.76,0-24.88-3.64-33-10.51a33.58,33.58,0,0,1-12.55-24.85l-.2-4.24h22.86l.4,3.64c.81,7.27,4.66,11.72,12.14,14.34a32.25,32.25,0,0,0,8.5,1.42,56.11,56.11,0,0,0,8.49-.61,42.48,42.48,0,0,0,7.29-1.82c5.86-2.22,6.47-5.86,6.47-8.69a5.91,5.91,0,0,0-2.84-5.65,39,39,0,0,0-10.52-4.65c-4.65-1.21-9.71-2.43-15-3.64A100.26,100.26,0,0,1,451,149.86,36.11,36.11,0,0,1,437.84,141,23.34,23.34,0,0,1,432,124.4,27.73,27.73,0,0,1,443.11,101c7.08-5.25,17.19-8.08,30.54-8.08,12.75,0,22.86,3.23,30.35,9.29a31.37,31.37,0,0,1,11.12,21.42l.61,4.44H493.07l-.4-3.63c-.61-4.85-3.44-11.32-20-11.32-18,0-18,7.07-18,9.7a5.45,5.45,0,0,0,2.83,5.25,38,38,0,0,0,10.72,4.45c4.65,1.21,9.71,2.42,15.17,3.43a90.32,90.32,0,0,1,16.19,4.85,36.35,36.35,0,0,1,13.14,9.1,24.06,24.06,0,0,1,5.67,16.77c0,10.7-4,19-12.34,24.65C498.13,197.13,487.81,199.76,475.07,199.76Z"/></g></g></g></g></g></svg>