<svg xmlns="http://www.w3.org/2000/svg" viewBox="0 0 2024 2024"><defs><style>.cls-1,.cls-3{fill:#562ed9;}.cls-2{fill:#fff;}.cls-3{opacity:0.2;}</style></defs><title>Warstwa 25</title><g id="Warstwa_2" data-name="Warstwa 2"><g id="Warstwa_25" data-name="Warstwa 25"><rect class="cls-1" width="2024" height="2024"/><path class="cls-2" d="M976,1261H948.49v8.34c-10.36-6.82-22.49-10.36-36.64-10.36-19.21,0-35.12,6.57-47.25,19.46-11.37,12.38-17.19,28.3-17.19,47.25s5.82,34.87,17.19,47.25c12.13,12.89,28,19.46,47.25,19.46,13.9,0,26.28-3.54,36.64-10.36v8.34H976Zm-37.4,93.24c-6.57,7.84-15.16,11.63-26.78,11.63-11.37,0-20.22-3.79-26.79-11.63-6.31-7.58-9.6-16.93-9.6-28.8s3-21.23,9.6-28.81c6.57-7.83,15.17-11.62,26.79-11.62,11.37,0,20.21,3.79,26.78,11.62,6.32,7.58,9.61,16.93,9.61,28.81S945.2,1346.62,938.63,1354.2Z"/><path class="cls-2" d="M790.76,1390V1286.15H766.5v-25.78h24.26v-42.7h28v42.7h27.54v25.78H818.81V1390Z"/><path class="cls-2" d="M1169.94,1391.77c-19.46,0-35.38-6.57-47.76-19.46-11.88-12.63-17.94-28.3-17.94-47.25s5.81-34.87,17.18-47.25c12.13-12.89,28-19.46,47.25-19.46s35.13,6.57,47.25,19.46c11.38,12.38,17.19,28.3,17.19,47.25v12.13h-99.06a36.75,36.75,0,0,0,10.62,18.45c6.82,6.57,15.16,9.6,25.52,9.6,14.15,0,24-5.56,30.07-17.44l1.51-2.78h30.07l-2.52,6.83a63.72,63.72,0,0,1-21.48,28.55C1198,1388.23,1185.1,1391.77,1169.94,1391.77Zm33.1-81.36a36.28,36.28,0,0,0-10.11-16.68c-6.57-6.07-14.4-8.84-24.26-8.84s-17.69,3-24.26,8.84a37.65,37.65,0,0,0-10.1,16.68Z"/><path class="cls-2" d="M1339,1217.67v51.14c-10.3-6.71-22.35-10.2-36.38-10.2-19.21,0-35.13,6.57-47.26,19.45-11.37,12.38-17.18,28.3-17.18,47.26s5.81,34.87,17.18,47.25c12.13,12.88,28.05,19.45,47.26,19.45,13.78,0,26.07-3.49,36.38-10.2V1390h28V1217.67Zm-9.6,136.2c-6.57,7.83-15.16,11.62-26.78,11.62-11.37,0-20.22-3.79-26.79-11.62-6.32-7.58-9.6-16.93-9.6-28.81s3-21.22,9.6-28.8c6.57-7.84,15.16-11.63,26.79-11.63,11.37,0,20.21,3.79,26.78,11.63,6.32,7.58,9.6,16.93,9.6,28.8S1336,1346.29,1329.38,1353.87Z"/><polygon class="cls-2" points="1111.79 1390.34 1111.82 1390.34 1072.82 1347.81 1047.53 1320.21 1099.63 1266.56 1064.38 1266.56 1060.44 1266.56 1023.82 1304.08 1023.82 1218.01 997.85 1218.01 995.78 1218.01 995.78 1390.34 997.85 1390.34 1023.82 1390.34 1023.82 1335.86 1073.75 1390.34 1111.79 1390.34"/><path class="cls-2" d="M711.41,1391.77c-17.18,0-31.08-4.55-41.18-13.14-9.61-7.83-14.91-18.44-15.67-31.08l-.25-5.3h28.55l.51,4.54c1,9.1,5.81,14.66,15.16,17.94a40.46,40.46,0,0,0,10.61,1.77,69.21,69.21,0,0,0,10.61-.76,52.9,52.9,0,0,0,9.1-2.27c7.33-2.78,8.08-7.33,8.08-10.86,0-3.29-1-5.56-3.53-7.08a49,49,0,0,0-13.14-5.81c-5.81-1.52-12.13-3-18.7-4.55a126.18,126.18,0,0,1-20.22-5.81c-6.57-2.78-12.12-6.32-16.42-11.12-4.8-5-7.33-12.13-7.33-20.72,0-12.38,4.55-22.24,13.9-29.31,8.84-6.57,21.48-10.11,38.15-10.11,15.92,0,28.56,4,37.91,11.62,8.08,6.83,12.63,15.67,13.9,26.79l.75,5.56H733.9l-.5-4.55c-.76-6.06-4.3-14.15-25-14.15-22.49,0-22.49,8.84-22.49,12.13,0,3,1,5,3.54,6.57a47.71,47.71,0,0,0,13.39,5.56c5.81,1.51,12.13,3,18.95,4.29A111.87,111.87,0,0,1,742,1318a45.46,45.46,0,0,1,16.42,11.37c4.8,5.3,7.08,12.38,7.08,21,0,13.39-5.06,23.75-15.42,30.83C740.22,1388.49,727.33,1391.77,711.41,1391.77Z"/><path class="cls-2" d="M1146.81,760.81H1012.09c-1.43,0-3.08.08-4.91.19h-.13c-17.64,1.08-52.06,7.06-80.15,35.38a124.48,124.48,0,0,0-30,50.23H872a116.41,116.41,0,0,0-84.46,35.78,121.93,121.93,0,0,0-34,85.22v179.69l100-57.72a7.33,7.33,0,0,1,3.63-1h152.34c1.44,0,3.1-.08,4.93-.19h.1c17.63-1.08,52.07-7,80.16-35.39a124.31,124.31,0,0,0,29.72-49.48c1.83,0,32.87,0,43.35.17l.11.06,100,57.72V881.81A121.14,121.14,0,0,0,1146.81,760.81Zm-107.19,271.28c-4.59,9.07-15.44,15.18-28.09,16l-.35,0c-.78.05-1.58.08-2.38.08H857.13a47.77,47.77,0,0,0-23.85,6.39L794,1077.3V967.63c0-45.18,34.28-80.57,78-80.57h19.68a113.46,113.46,0,0,0,44,82.4c19.87,15.26,40.17,19.95,53.6,23a174.5,174.5,0,0,0,28.71,4.1c8.94.66,10.44.92,13.75,3.33a26.62,26.62,0,0,1,10,14.28C1041.74,1014.32,1043.94,1023.55,1039.62,1032.09Zm41.13-28.35a66.85,66.85,0,0,0-25.17-36.46c-12.86-9.38-23.91-10.2-34.6-11a135.54,135.54,0,0,1-22.59-3.17c-11.79-2.73-25.17-5.82-38.07-15.73A74.15,74.15,0,0,1,938,908.94a73.13,73.13,0,0,1-6.17-27.4,81.84,81.84,0,0,1,8.95-35.83A66.78,66.78,0,0,0,966,882.16c12.86,9.39,23.92,10.2,34.61,11a135.58,135.58,0,0,1,22.58,3.17c11.8,2.73,25.18,5.83,38.07,15.73a74.16,74.16,0,0,1,22.29,28.46,73,73,0,0,1,6.17,27.39A81.91,81.91,0,0,1,1080.75,1003.74Zm146.63-12.26L1188,968.76a48.23,48.23,0,0,0-6.73-3.21l-1.12-.39a32.51,32.51,0,0,0-10.39-1.84c-5.29-.07-10.58-.12-15.74-.15v0c-10.87-.07-15.57-.07-24.13,0A113.29,113.29,0,0,0,1085.87,880c-19.86-15.26-40.16-20-53.6-23.06a174.55,174.55,0,0,0-28.7-4.1c-8.94-.66-10.44-.91-13.76-3.34a26.55,26.55,0,0,1-10-14.27c0-.09-2.22-9.32,2.1-17.87,4.6-9.08,15.48-15.2,28.16-16h.19c.81-.05,1.64-.08,2.47-.09h134a80.66,80.66,0,0,1,80.57,80.57Z"/><path class="cls-3" d="M1154.05,963.15h0c-10.87-.07-15.57-.07-24.12,0,.08,1.3.16,2.69.19,4,0,.18,0,.36,0,.54a120.23,120.23,0,0,1-5.79,36s0-.07,0-.11l13,0C1146.29,994,1154.05,975.65,1154.05,963.15Z"/><path class="cls-3" d="M872,846.63c0,11.72,1.86,27,7.29,40.43h12.34c-.09-1.49-.16-3.34-.2-4.71v-.54A121,121,0,0,1,897,846.47l-.06.16Z"/><path class="cls-3" d="M1081.4,1002.7a1.52,1.52,0,0,1-.06-.2c-.2.41-.38.83-.59,1.24a65.53,65.53,0,0,0-17.3-29.71c-1.91,11.52-7.62,24.63-15.68,32.75a50.6,50.6,0,0,1-6.75,5.32c.25.69.51,1.38.7,2.12,0,.1,2.22,9.33-2.1,17.87-4.53,9-15.17,15-27.62,16,11.91-.72,35.07-4.69,53.71-23.49A88.08,88.08,0,0,0,1081.4,1002.7Z"/><path class="cls-1" d="M1010.89,801.31l.14,0-.35,0Z"/><path class="cls-3" d="M940.81,845.71h0c.38,1.4.81,2.75,1.25,4.1a65.86,65.86,0,0,0,15.58,25.12c2-11.5,8-24.47,16.06-32.58,1.26-1.27,4-3.65,6.6-5.73-.15-.47-.33-.91-.46-1.41,0-.09-2.22-9.32,2.1-17.87,4.48-8.84,14.91-14.86,27.16-15.92-12.5,1-35.65,5.29-53.34,23.13A81.57,81.57,0,0,0,940.81,845.71Z"/></g></g></svg>