<svg xmlns="http://www.w3.org/2000/svg" viewBox="0 0 341.56 302.66"><title>Layer 26</title><g id="Layer_2" data-name="Layer 2"><g id="Layer_26" data-name="Layer 26"><path d="M228,99.11v-.26c0-.62-.06-1.29-.1-1.91h0a54.35,54.35,0,0,0-21.11-39.83c-9.52-7.31-19.25-9.56-25.69-11a84,84,0,0,0-13.75-2c-4.29-.32-5-.44-6.6-1.6a12.94,12.94,0,0,1-4.55-6.17c-1.23,1-2.56,2.14-3.17,2.75a30.85,30.85,0,0,0-7.69,15.61h0a33.3,33.3,0,0,0,4,3.46c6.17,4.5,11.47,4.89,16.59,5.27a65.23,65.23,0,0,1,10.82,1.52c5.66,1.31,12.07,2.79,18.25,7.54A35.6,35.6,0,0,1,205.7,86.11a35.2,35.2,0,0,1,3,13.13,39.22,39.22,0,0,1-4,16.58h0l0,.1a42.38,42.38,0,0,1-7.52,10.48c-8.93,9-20,10.91-25.74,11.26h0l-.23,0H171q-.57,0-1.14,0H97.2a22.82,22.82,0,0,0-11.43,3.07L66.92,151.67V99.11c0-21.65,16.43-38.61,37.41-38.61h3.5a54,54,0,0,1-3.5-19.37h0A55.81,55.81,0,0,0,63.85,58.27a58.43,58.43,0,0,0-16.3,40.84v86.12l47.91-27.67a3.54,3.54,0,0,1,1.74-.46h73c.69,0,1.48,0,2.36-.09h.05c8.44-.51,24.95-3.38,38.41-17a59.44,59.44,0,0,0,14.23-23.66A57.85,57.85,0,0,0,228,99.11Z"/><path d="M116.27,41.13a.14.14,0,0,0,0-.06.14.14,0,0,1,0,.06Z"/><path d="M236,0H171.46c-.69,0-1.47,0-2.35.09h-.06c-8.46.51-25,3.38-38.42,17a59.67,59.67,0,0,0-14.33,24A58.16,58.16,0,0,0,113.64,58v.25c0,.66,0,1.55.1,2.26h0A54.36,54.36,0,0,0,134.85,100c9.52,7.31,19.25,9.56,25.68,11.05a84.13,84.13,0,0,0,13.76,2c4.29.32,5,.44,6.59,1.6a13.07,13.07,0,0,1,4.45,5.82h0a24.54,24.54,0,0,0,3.23-2.54c3.86-3.9,6.6-10.18,7.51-15.7A31.17,31.17,0,0,0,192.3,99c-6.16-4.5-11.46-4.89-16.58-5.27a65.37,65.37,0,0,1-10.82-1.52c-5.66-1.31-12.07-2.79-18.25-7.54A35.6,35.6,0,0,1,136,71a35,35,0,0,1-3-13.13,39.39,39.39,0,0,1,4.29-17.18h0a39.27,39.27,0,0,1,7.17-10.13c8.17-8.24,18.76-10.44,24.87-11,.39-.05.77-.08,1.17-.11h.09c.39,0,.78,0,1.18,0H236A38.66,38.66,0,0,1,274.64,58v52.55L255.78,99.66a21.71,21.71,0,0,0-3.23-1.54l-.53-.19a15.66,15.66,0,0,0-5-.88C244.5,97,242,97,239.49,97h0c0,6-3.72,14.79-8,19.37,5,0,11.53,0,14.55.07l0,0L294,144.1V58A58.05,58.05,0,0,0,236,0ZM170.89,19.4h0Z"/><path d="M154.18,239.69H141v4a31.12,31.12,0,0,0-17.56-5c-9.2,0-16.83,3.15-22.64,9.32-5.45,5.94-8.24,13.57-8.24,22.65s2.79,16.71,8.24,22.64c5.81,6.18,13.44,9.33,22.64,9.33a31.41,31.41,0,0,0,17.56-5v4h13.2Zm-17.92,44.68c-3.15,3.76-7.27,5.57-12.84,5.57s-9.69-1.81-12.83-5.57-4.61-8.11-4.61-13.8,1.46-10.18,4.61-13.81,7.26-5.57,12.83-5.57,9.69,1.82,12.84,5.57,4.6,8.12,4.6,13.81S139.41,280.74,136.26,284.37Z"/><path d="M65.39,301.53V251.76H53.77V239.41H65.39V218.94H78.83v20.47H92v12.35H78.83v49.77Z"/><path d="M247.11,302.38c-9.33,0-17-3.15-22.89-9.33-5.69-6.05-8.6-13.56-8.6-22.64s2.79-16.72,8.24-22.65c5.81-6.17,13.44-9.32,22.64-9.32s16.83,3.15,22.65,9.32c5.45,5.93,8.23,13.56,8.23,22.65v5.81H229.91a17.57,17.57,0,0,0,5.09,8.84,16.7,16.7,0,0,0,12.23,4.6c6.78,0,11.5-2.66,14.41-8.36l.72-1.33h14.41l-1.21,3.27a30.58,30.58,0,0,1-10.29,13.69C260.55,300.68,254.37,302.38,247.11,302.38Zm15.86-39a17.4,17.4,0,0,0-4.84-8,16.21,16.21,0,0,0-11.63-4.24,16.7,16.7,0,0,0-11.62,4.24,18,18,0,0,0-4.85,8Z"/><path d="M328.12,218.94v24.51a31.15,31.15,0,0,0-17.44-4.89c-9.2,0-16.83,3.15-22.64,9.32-5.45,5.94-8.24,13.56-8.24,22.65s2.79,16.71,8.24,22.64c5.81,6.18,13.44,9.33,22.64,9.33a31.44,31.44,0,0,0,17.44-4.9v3.93h13.44V218.94Zm-4.6,65.27c-3.15,3.75-7.27,5.57-12.84,5.57S301,288,297.85,284.21s-4.61-8.11-4.61-13.8,1.46-10.18,4.61-13.81,7.26-5.57,12.83-5.57,9.69,1.82,12.84,5.57,4.6,8.11,4.6,13.81S326.67,280.58,323.52,284.21Z"/><polygon points="219.24 301.69 219.25 301.69 200.57 281.31 188.44 268.08 213.41 242.37 196.52 242.37 194.63 242.37 177.09 260.35 177.09 219.1 164.64 219.1 163.64 219.1 163.64 301.69 164.64 301.69 177.09 301.69 177.09 275.58 201.01 301.69 219.24 301.69"/><path d="M27.37,302.38c-8.24,0-14.9-2.18-19.74-6.3a20.15,20.15,0,0,1-7.51-14.9L0,278.64H13.68l.25,2.18c.48,4.36,2.78,7,7.26,8.6a19.64,19.64,0,0,0,5.09.85,33.69,33.69,0,0,0,5.08-.37,24.61,24.61,0,0,0,4.36-1.09c3.51-1.33,3.88-3.51,3.88-5.2a3.56,3.56,0,0,0-1.7-3.4,23.44,23.44,0,0,0-6.29-2.78c-2.79-.73-5.82-1.45-9-2.18A59.1,59.1,0,0,1,13,272.46a21.44,21.44,0,0,1-7.87-5.32,14,14,0,0,1-3.52-9.93c0-5.94,2.18-10.66,6.66-14,4.24-3.15,10.3-4.84,18.29-4.84,7.63,0,13.68,1.93,18.16,5.57a18.76,18.76,0,0,1,6.66,12.83l.37,2.67H38.15l-.25-2.18c-.36-2.91-2.06-6.78-12-6.78-10.77,0-10.77,4.23-10.77,5.81a3.29,3.29,0,0,0,1.69,3.15,23,23,0,0,0,6.42,2.66c2.79.73,5.81,1.45,9.08,2.06A53.23,53.23,0,0,1,42,267a21.77,21.77,0,0,1,7.87,5.44c2.3,2.55,3.39,5.94,3.39,10.06,0,6.41-2.42,11.38-7.38,14.77C41.17,300.8,35,302.38,27.37,302.38Z"/></g></g></svg>