<svg xmlns="http://www.w3.org/2000/svg" xmlns:xlink="http://www.w3.org/1999/xlink" viewBox="0 0 586.37 501.36"><defs><style>.cls-1,.cls-2,.cls-3,.cls-5{fill:none;}.cls-2,.cls-3,.cls-4,.cls-5{stroke:#4038ff;}.cls-2,.cls-3{stroke-linecap:square;}.cls-2,.cls-3,.cls-5{stroke-miterlimit:10;}.cls-2{stroke-width:2px;}.cls-3,.cls-4,.cls-5{stroke-width:12px;}.cls-4{stroke-linejoin:bevel;fill:url(#lines);}</style><pattern id="lines" data-name="lines" width="16" height="16" patternTransform="translate(-256 480)" patternUnits="userSpaceOnUse" viewBox="0 0 16 16"><rect class="cls-1" width="16" height="16"/><line class="cls-2" x1="1.98" y1="78.02" x2="67.98" y2="12.02"/><line class="cls-2" x1="-14.02" y1="78.02" x2="51.98" y2="12.02"/><line class="cls-2" x1="-30.02" y1="78.02" x2="35.98" y2="12.02"/><line class="cls-2" x1="-46.02" y1="78.02" x2="19.98" y2="12.02"/><line class="cls-2" x1="-62.02" y1="78.02" x2="3.98" y2="12.02"/><line class="cls-2" x1="1.98" y1="62.02" x2="67.98" y2="-3.98"/><line class="cls-2" x1="-14.02" y1="62.02" x2="51.98" y2="-3.98"/><line class="cls-2" x1="-30.02" y1="62.02" x2="35.98" y2="-3.98"/><line class="cls-2" x1="-46.02" y1="62.02" x2="19.98" y2="-3.98"/><line class="cls-2" x1="-62.02" y1="62.02" x2="3.98" y2="-3.98"/><line class="cls-2" x1="1.98" y1="46.02" x2="67.98" y2="-19.98"/><line class="cls-2" x1="-14.02" y1="46.02" x2="51.98" y2="-19.98"/><line class="cls-2" x1="-30.02" y1="46.02" x2="35.98" y2="-19.98"/><line class="cls-2" x1="-46.02" y1="46.02" x2="19.98" y2="-19.98"/><line class="cls-2" x1="-62.02" y1="46.02" x2="3.98" y2="-19.98"/><line class="cls-2" x1="1.98" y1="30.02" x2="67.98" y2="-35.98"/><line class="cls-2" x1="-14.02" y1="30.02" x2="51.98" y2="-35.98"/><line class="cls-2" x1="-30.02" y1="30.02" x2="35.98" y2="-35.98"/><line class="cls-2" x1="-46.02" y1="30.02" x2="19.98" y2="-35.98"/><line class="cls-2" x1="-62.02" y1="30.02" x2="3.98" y2="-35.98"/><line class="cls-2" x1="1.98" y1="14.02" x2="67.98" y2="-51.98"/><line class="cls-2" x1="-14.02" y1="14.02" x2="51.98" y2="-51.98"/><line class="cls-2" x1="-30.02" y1="14.02" x2="35.98" y2="-51.98"/><line class="cls-2" x1="-46.02" y1="14.02" x2="19.98" y2="-51.98"/><line class="cls-2" x1="-62.02" y1="14.02" x2="3.98" y2="-51.98"/></pattern></defs><title>Blockchain</title><g id="Layer_2" data-name="Layer 2"><g id="Blockchain"><polyline class="cls-3" points="400.94 495.36 580.37 495.36 580.37 250.68 400.94 250.68"/><line class="cls-4" x1="400.94" y1="495.36" x2="400.94" y2="250.68"/><polyline class="cls-3" points="221.51 495.36 400.94 495.36 400.94 250.68 221.51 250.68"/><polygon class="cls-3" points="400.94 6 364.97 50.84 364.86 250.68 400.94 250.68 580.37 250.68 580.37 6 400.94 6"/><polygon class="cls-4" points="400.94 250.68 400.94 6 364.97 50.84 364.86 250.68 400.94 250.68"/><circle class="cls-5" cx="315.21" cy="374.99" r="17.79"/><circle class="cls-5" cx="490.4" cy="374.99" r="17.79"/><circle class="cls-5" cx="490.4" cy="128.34" r="17.79"/><line class="cls-5" x1="332.99" y1="374.99" x2="472.62" y2="374.99"/><polygon class="cls-3" points="42.08 250.68 6.11 295.52 6 453.87 42.08 495.36 221.51 495.36 221.51 250.68 42.08 250.68"/><polygon class="cls-4" points="42.08 495.36 42.08 250.68 6.11 295.52 6 453.87 42.08 495.36"/><circle class="cls-5" cx="135.78" cy="374.99" r="17.79"/><line class="cls-5" x1="153.56" y1="374.99" x2="293.19" y2="374.99"/><line class="cls-5" x1="490.4" y1="357.2" x2="490.4" y2="146.12"/></g></g></svg>