<svg xmlns="http://www.w3.org/2000/svg" xmlns:xlink="http://www.w3.org/1999/xlink" viewBox="0 0 346.03 607.24"><defs><style>.cls-1,.cls-2,.cls-3,.cls-4{fill:none;}.cls-2,.cls-3,.cls-4,.cls-5{stroke:#4038ff;stroke-miterlimit:10;}.cls-2,.cls-4{stroke-linecap:square;}.cls-2{stroke-width:2px;}.cls-3,.cls-4,.cls-5{stroke-width:12px;}.cls-5{fill:url(#lines);}.cls-6{fill:url(#lines-3);}</style><pattern id="lines" data-name="lines" width="16" height="16" patternTransform="translate(-143.76 -298.28) scale(2.22)" patternUnits="userSpaceOnUse" viewBox="0 0 16 16"><rect class="cls-1" width="16" height="16"/><line class="cls-2" x1="1.98" y1="78.02" x2="67.98" y2="12.02"/><line class="cls-2" x1="-14.02" y1="78.02" x2="51.98" y2="12.02"/><line class="cls-2" x1="-30.02" y1="78.02" x2="35.98" y2="12.02"/><line class="cls-2" x1="-46.02" y1="78.02" x2="19.98" y2="12.02"/><line class="cls-2" x1="-62.02" y1="78.02" x2="3.98" y2="12.02"/><line class="cls-2" x1="1.98" y1="62.02" x2="67.98" y2="-3.98"/><line class="cls-2" x1="-14.02" y1="62.02" x2="51.98" y2="-3.98"/><line class="cls-2" x1="-30.02" y1="62.02" x2="35.98" y2="-3.98"/><line class="cls-2" x1="-46.02" y1="62.02" x2="19.98" y2="-3.98"/><line class="cls-2" x1="-62.02" y1="62.02" x2="3.98" y2="-3.98"/><line class="cls-2" x1="1.98" y1="46.02" x2="67.98" y2="-19.98"/><line class="cls-2" x1="-14.02" y1="46.02" x2="51.98" y2="-19.98"/><line class="cls-2" x1="-30.02" y1="46.02" x2="35.98" y2="-19.98"/><line class="cls-2" x1="-46.02" y1="46.02" x2="19.98" y2="-19.98"/><line class="cls-2" x1="-62.02" y1="46.02" x2="3.98" y2="-19.98"/><line class="cls-2" x1="1.98" y1="30.02" x2="67.98" y2="-35.98"/><line class="cls-2" x1="-14.02" y1="30.02" x2="51.98" y2="-35.98"/><line class="cls-2" x1="-30.02" y1="30.02" x2="35.98" y2="-35.98"/><line class="cls-2" x1="-46.02" y1="30.02" x2="19.98" y2="-35.98"/><line class="cls-2" x1="-62.02" y1="30.02" x2="3.98" y2="-35.98"/><line class="cls-2" x1="1.98" y1="14.02" x2="67.98" y2="-51.98"/><line class="cls-2" x1="-14.02" y1="14.02" x2="51.98" y2="-51.98"/><line class="cls-2" x1="-30.02" y1="14.02" x2="35.98" y2="-51.98"/><line class="cls-2" x1="-46.02" y1="14.02" x2="19.98" y2="-51.98"/><line class="cls-2" x1="-62.02" y1="14.02" x2="3.98" y2="-51.98"/></pattern><pattern id="lines-3" data-name="lines" width="16" height="16" patternTransform="matrix(1, 0, 0, -1.18, 0, -171.9)" patternUnits="userSpaceOnUse" viewBox="0 0 16 16"><rect class="cls-1" width="16" height="16"/><line class="cls-2" x1="1.98" y1="78.02" x2="67.98" y2="12.02"/><line class="cls-2" x1="-14.02" y1="78.02" x2="51.98" y2="12.02"/><line class="cls-2" x1="-30.02" y1="78.02" x2="35.98" y2="12.02"/><line class="cls-2" x1="-46.02" y1="78.02" x2="19.98" y2="12.02"/><line class="cls-2" x1="-62.02" y1="78.02" x2="3.98" y2="12.02"/><line class="cls-2" x1="1.98" y1="62.02" x2="67.98" y2="-3.98"/><line class="cls-2" x1="-14.02" y1="62.02" x2="51.98" y2="-3.98"/><line class="cls-2" x1="-30.02" y1="62.02" x2="35.98" y2="-3.98"/><line class="cls-2" x1="-46.02" y1="62.02" x2="19.98" y2="-3.98"/><line class="cls-2" x1="-62.02" y1="62.02" x2="3.98" y2="-3.98"/><line class="cls-2" x1="1.98" y1="46.02" x2="67.98" y2="-19.98"/><line class="cls-2" x1="-14.02" y1="46.02" x2="51.98" y2="-19.98"/><line class="cls-2" x1="-30.02" y1="46.02" x2="35.98" y2="-19.98"/><line class="cls-2" x1="-46.02" y1="46.02" x2="19.98" y2="-19.98"/><line class="cls-2" x1="-62.02" y1="46.02" x2="3.98" y2="-19.98"/><line class="cls-2" x1="1.98" y1="30.02" x2="67.98" y2="-35.98"/><line class="cls-2" x1="-14.02" y1="30.02" x2="51.98" y2="-35.98"/><line class="cls-2" x1="-30.02" y1="30.02" x2="35.98" y2="-35.98"/><line class="cls-2" x1="-46.02" y1="30.02" x2="19.98" y2="-35.98"/><line class="cls-2" x1="-62.02" y1="30.02" x2="3.98" y2="-35.98"/><line class="cls-2" x1="1.98" y1="14.02" x2="67.98" y2="-51.98"/><line class="cls-2" x1="-14.02" y1="14.02" x2="51.98" y2="-51.98"/><line class="cls-2" x1="-30.02" y1="14.02" x2="35.98" y2="-51.98"/><line class="cls-2" x1="-46.02" y1="14.02" x2="19.98" y2="-51.98"/><line class="cls-2" x1="-62.02" y1="14.02" x2="3.98" y2="-51.98"/></pattern></defs><title>Break-cofee</title><g id="Layer_2" data-name="Layer 2"><g id="Break"><ellipse class="cls-3" cx="161.96" cy="241.81" rx="155.96" ry="41.16"/><path class="cls-3" d="M312.2,353.26l5.72-111.45c0,22.73-69.83,41.16-156,41.16S6,264.54,6,241.81l11.07,307a36.65,36.65,0,0,0,10.36,25.55c7.37,15.1,64.5,26.86,133.91,26.86s126.53-11.75,133.91-26.86a36.64,36.64,0,0,0,10.35-25.55l.6-38"/><path class="cls-3" d="M305.6,530.18c0,21.58-64.59,39.07-144.26,39.07S17.07,551.76,17.07,530.18"/><path class="cls-4" d="M141.52,159.81c-5.35-56.75,32.23-48.49,34.81-86.16,1.9-27.66-16.47-38.6-15.42-67.44"/><path class="cls-4" d="M110.1,193.53c1.9-27.66-16.48-38.6-15.42-67.44"/><path class="cls-4" d="M234.73,97.78c5.26,55.83-31.71,47.7-34.25,84.76-1.87,27.21,16.21,38,15.17,66.34"/><path class="cls-4" d="M269.94,529.49c-9.63.49-17.89-11.83-18.45-27.51s6.79-28.78,16.42-29.26c12.25-.61,22.86-23.74,22.14-44S278.72,391.8,264.85,387c-9.63.48-17.88-11.84-18.44-27.52s6.79-28.77,16.42-29.26c40.62-2,75.15,40.92,77.11,95.94S310.56,527.46,269.94,529.49Z"/><path class="cls-5" d="M17.63,257.42c23.3-15,79.14-25.54,144.33-25.54s121,10.56,144.33,25.54c7.49-4.81,11.63-10.08,11.63-15.61,0-22.73-69.83-41.16-156-41.16S6,219.08,6,241.81C6,247.34,10.14,252.61,17.63,257.42Z"/><path class="cls-6" d="M315.78,427.05c1.38,38.9-24.79,73.25-62.27,86.71a43.5,43.5,0,0,1-2-11.78c-.56-15.68,6.79-28.78,16.42-29.26,12.25-.61,22.86-23.74,22.14-44S278.72,391.8,264.85,387c-9.63.48-17.88-11.84-18.44-27.52a43.84,43.84,0,0,1,1.33-12.58C286,356.64,314.39,388.22,315.78,427.05Z"/></g></g></svg>