<svg xmlns="http://www.w3.org/2000/svg" xmlns:xlink="http://www.w3.org/1999/xlink" viewBox="0 0 681.18 385.71"><defs><style>.cls-1,.cls-2,.cls-3{fill:none;}.cls-2,.cls-3,.cls-4{stroke:#4038ff;stroke-miterlimit:10;}.cls-2{stroke-linecap:square;stroke-width:2px;}.cls-3,.cls-4{stroke-width:12px;}.cls-4{fill:url(#lines);}</style><pattern id="lines" data-name="lines" width="16" height="16" patternTransform="translate(16)" patternUnits="userSpaceOnUse" viewBox="0 0 16 16"><rect class="cls-1" width="16" height="16"/><line class="cls-2" x1="1.98" y1="78.02" x2="67.98" y2="12.02"/><line class="cls-2" x1="-14.02" y1="78.02" x2="51.98" y2="12.02"/><line class="cls-2" x1="-30.02" y1="78.02" x2="35.98" y2="12.02"/><line class="cls-2" x1="-46.02" y1="78.02" x2="19.98" y2="12.02"/><line class="cls-2" x1="-62.02" y1="78.02" x2="3.98" y2="12.02"/><line class="cls-2" x1="1.98" y1="62.02" x2="67.98" y2="-3.98"/><line class="cls-2" x1="-14.02" y1="62.02" x2="51.98" y2="-3.98"/><line class="cls-2" x1="-30.02" y1="62.02" x2="35.98" y2="-3.98"/><line class="cls-2" x1="-46.02" y1="62.02" x2="19.98" y2="-3.98"/><line class="cls-2" x1="-62.02" y1="62.02" x2="3.98" y2="-3.98"/><line class="cls-2" x1="1.98" y1="46.02" x2="67.98" y2="-19.98"/><line class="cls-2" x1="-14.02" y1="46.02" x2="51.98" y2="-19.98"/><line class="cls-2" x1="-30.02" y1="46.02" x2="35.98" y2="-19.98"/><line class="cls-2" x1="-46.02" y1="46.02" x2="19.98" y2="-19.98"/><line class="cls-2" x1="-62.02" y1="46.02" x2="3.98" y2="-19.98"/><line class="cls-2" x1="1.98" y1="30.02" x2="67.98" y2="-35.98"/><line class="cls-2" x1="-14.02" y1="30.02" x2="51.98" y2="-35.98"/><line class="cls-2" x1="-30.02" y1="30.02" x2="35.98" y2="-35.98"/><line class="cls-2" x1="-46.02" y1="30.02" x2="19.98" y2="-35.98"/><line class="cls-2" x1="-62.02" y1="30.02" x2="3.98" y2="-35.98"/><line class="cls-2" x1="1.98" y1="14.02" x2="67.98" y2="-51.98"/><line class="cls-2" x1="-14.02" y1="14.02" x2="51.98" y2="-51.98"/><line class="cls-2" x1="-30.02" y1="14.02" x2="35.98" y2="-51.98"/><line class="cls-2" x1="-46.02" y1="14.02" x2="19.98" y2="-51.98"/><line class="cls-2" x1="-62.02" y1="14.02" x2="3.98" y2="-51.98"/></pattern></defs><title>Computer</title><g id="Layer_2" data-name="Layer 2"><g id="Computer"><path class="cls-3" d="M339.52,297.83V306a10.42,10.42,0,0,1-10.42,10.42H183.19A10.43,10.43,0,0,1,172.76,306v-8.18H6c0,46.05,37.33,65.28,83.38,65.28H422.91c46,0,83.38-19.23,83.38-65.28Z"/><path class="cls-3" d="M172.76,297.83V306a10.43,10.43,0,0,0,10.43,10.42H329.1A10.42,10.42,0,0,0,339.52,306v-8.18H464.6V47.69A41.7,41.7,0,0,0,422.91,6H89.38A41.7,41.7,0,0,0,47.69,47.69V297.83Z"/><path class="cls-4" d="M74,50v222.6H438.27V50ZM300.91,166.57a10.37,10.37,0,0,1-3.75,3.75L234.62,206.8a10.39,10.39,0,0,1-15.63-9v-73a10.42,10.42,0,0,1,10.44-10.4,10.31,10.31,0,0,1,5.19,1.4l62.54,36.47A10.43,10.43,0,0,1,300.91,166.57Z"/><path class="cls-3" d="M611.53,288.05h0c-35.16,0-63.66,24.8-63.66,55.4h0c0,10.72,28.5,19.41,63.66,19.41h0c35.15,0,63.65-8.69,63.65-19.41h0C675.18,312.85,646.68,288.05,611.53,288.05Z"/><line class="cls-3" x1="611.53" y1="311.41" x2="611.53" y2="288.05"/><path class="cls-3" d="M547.87,345.3v15h0c0,10.72,28.5,19.41,63.66,19.41h0c35.15,0,63.65-8.69,63.65-19.41v0"/></g></g></svg>