<svg xmlns="http://www.w3.org/2000/svg" xmlns:xlink="http://www.w3.org/1999/xlink" viewBox="0 0 617.35 449.52"><defs><style>.cls-1,.cls-2,.cls-4,.cls-7,.cls-8{fill:none;}.cls-2,.cls-3,.cls-4,.cls-5,.cls-6,.cls-7,.cls-8{stroke:#4038ff;}.cls-2,.cls-6,.cls-7,.cls-8{stroke-linecap:square;}.cls-2,.cls-6,.cls-7{stroke-miterlimit:10;}.cls-2{stroke-width:2px;}.cls-3{fill:#fff;}.cls-3,.cls-4,.cls-5{stroke-linecap:round;stroke-linejoin:round;}.cls-3,.cls-4,.cls-5,.cls-6,.cls-7,.cls-8{stroke-width:12px;}.cls-5,.cls-6{fill:url(#lines);}</style><pattern id="lines" data-name="lines" width="16" height="16" patternUnits="userSpaceOnUse" viewBox="0 0 16 16"><rect class="cls-1" width="16" height="16"/><line class="cls-2" x1="1.98" y1="78.02" x2="67.98" y2="12.02"/><line class="cls-2" x1="-14.02" y1="78.02" x2="51.98" y2="12.02"/><line class="cls-2" x1="-30.02" y1="78.02" x2="35.98" y2="12.02"/><line class="cls-2" x1="-46.02" y1="78.02" x2="19.98" y2="12.02"/><line class="cls-2" x1="-62.02" y1="78.02" x2="3.98" y2="12.02"/><line class="cls-2" x1="1.98" y1="62.02" x2="67.98" y2="-3.98"/><line class="cls-2" x1="-14.02" y1="62.02" x2="51.98" y2="-3.98"/><line class="cls-2" x1="-30.02" y1="62.02" x2="35.98" y2="-3.98"/><line class="cls-2" x1="-46.02" y1="62.02" x2="19.98" y2="-3.98"/><line class="cls-2" x1="-62.02" y1="62.02" x2="3.98" y2="-3.98"/><line class="cls-2" x1="1.98" y1="46.02" x2="67.98" y2="-19.98"/><line class="cls-2" x1="-14.02" y1="46.02" x2="51.98" y2="-19.98"/><line class="cls-2" x1="-30.02" y1="46.02" x2="35.98" y2="-19.98"/><line class="cls-2" x1="-46.02" y1="46.02" x2="19.98" y2="-19.98"/><line class="cls-2" x1="-62.02" y1="46.02" x2="3.98" y2="-19.98"/><line class="cls-2" x1="1.98" y1="30.02" x2="67.98" y2="-35.98"/><line class="cls-2" x1="-14.02" y1="30.02" x2="51.98" y2="-35.98"/><line class="cls-2" x1="-30.02" y1="30.02" x2="35.98" y2="-35.98"/><line class="cls-2" x1="-46.02" y1="30.02" x2="19.98" y2="-35.98"/><line class="cls-2" x1="-62.02" y1="30.02" x2="3.98" y2="-35.98"/><line class="cls-2" x1="1.98" y1="14.02" x2="67.98" y2="-51.98"/><line class="cls-2" x1="-14.02" y1="14.02" x2="51.98" y2="-51.98"/><line class="cls-2" x1="-30.02" y1="14.02" x2="35.98" y2="-51.98"/><line class="cls-2" x1="-46.02" y1="14.02" x2="19.98" y2="-51.98"/><line class="cls-2" x1="-62.02" y1="14.02" x2="3.98" y2="-51.98"/></pattern></defs><title>Data-distribution</title><g id="Layer_2" data-name="Layer 2"><g id="Data-distribution"><line class="cls-3" x1="200.53" y1="282.61" x2="253.78" y2="249.34"/><line class="cls-3" x1="200.53" y1="330.93" x2="269.11" y2="373.78"/><line class="cls-3" x1="124.6" y1="333.15" x2="56.02" y2="375.99"/><circle class="cls-4" cx="31.95" cy="390.91" r="25.95"/><line class="cls-3" x1="124.6" y1="278.58" x2="56.02" y2="235.73"/><circle class="cls-4" cx="31.95" cy="220.81" r="25.95"/><circle class="cls-4" cx="307.74" cy="397.94" r="45.58"/><line class="cls-3" x1="255.67" y1="205.71" x2="202.43" y2="173.28"/><path class="cls-5" d="M177.7,186.58a29.65,29.65,0,0,1-29.65-29.64c0-16.38,13.28-30.49,29.65-30.49s29.64,14.11,29.64,30.49A29.64,29.64,0,0,1,177.7,186.58Z"/><line class="cls-3" x1="494.06" y1="183.87" x2="544.31" y2="215.29"/><path class="cls-5" d="M569,202a29.65,29.65,0,0,1,29.64,29.65c0,16.37-13.27,30.49-29.64,30.49S539.39,248,539.39,231.64A29.65,29.65,0,0,1,569,202Z"/><circle class="cls-4" cx="161.88" cy="306.77" r="45.58"/><line class="cls-3" x1="492.75" y1="132.04" x2="561.33" y2="89.19"/><circle class="cls-4" cx="585.4" cy="74.27" r="25.95"/><path class="cls-4" d="M455.47,112.83c19.82.64,45.58,17.66,45.58,45.58A45.58,45.58,0,0,1,455.47,204"/><path class="cls-6" d="M190.17,43.5A37.38,37.38,0,0,1,227.44,6c14.9,0,28.75,13,28.75,37.5Z"/><path class="cls-7" d="M256.19,284.15v0ZM227.44,6H420.17v.24m0,0A37.49,37.49,0,0,1,424.43,6c14.91,0,28.75,13,28.75,37.5V284.15"/><path class="cls-7" d="M322.21,284.15a37.38,37.38,0,0,1-37.27,37.49c-14.91,0-28.75-13-28.75-37.49"/><path class="cls-6" d="M293.54,320.72c-.5.2-8.6.92.17.92H458.5a37.37,37.37,0,0,0,37.27-37.49H322.21C320.38,302.08,310.9,313.7,293.54,320.72Z"/><path class="cls-8" d="M300,59.54H412.24"/><path class="cls-8" d="M300,112.64H412.24"/><path class="cls-8" d="M300,165.74H412.24"/><path class="cls-8" d="M300,216.46h70.14"/></g></g></svg>