<svg xmlns="http://www.w3.org/2000/svg" xmlns:xlink="http://www.w3.org/1999/xlink" viewBox="0 0 441.97 574.15"><defs><style>.cls-1,.cls-2,.cls-3,.cls-5{fill:none;}.cls-2,.cls-3,.cls-4,.cls-5,.cls-6{stroke:#4038ff;stroke-miterlimit:10;}.cls-2,.cls-3{stroke-linecap:square;}.cls-2{stroke-width:2px;}.cls-3,.cls-4,.cls-5,.cls-6{stroke-width:12px;}.cls-4{fill:url(#lines);}.cls-6{fill:#fff;}.cls-7{fill:url(#lines-7);}</style><pattern id="lines" data-name="lines" width="16" height="16" patternTransform="translate(-142 -320.97)" patternUnits="userSpaceOnUse" viewBox="0 0 16 16"><rect class="cls-1" width="16" height="16"/><line class="cls-2" x1="1.98" y1="78.02" x2="67.98" y2="12.02"/><line class="cls-2" x1="-14.02" y1="78.02" x2="51.98" y2="12.02"/><line class="cls-2" x1="-30.02" y1="78.02" x2="35.98" y2="12.02"/><line class="cls-2" x1="-46.02" y1="78.02" x2="19.98" y2="12.02"/><line class="cls-2" x1="-62.02" y1="78.02" x2="3.98" y2="12.02"/><line class="cls-2" x1="1.98" y1="62.02" x2="67.98" y2="-3.98"/><line class="cls-2" x1="-14.02" y1="62.02" x2="51.98" y2="-3.98"/><line class="cls-2" x1="-30.02" y1="62.02" x2="35.98" y2="-3.98"/><line class="cls-2" x1="-46.02" y1="62.02" x2="19.98" y2="-3.98"/><line class="cls-2" x1="-62.02" y1="62.02" x2="3.98" y2="-3.98"/><line class="cls-2" x1="1.98" y1="46.02" x2="67.98" y2="-19.98"/><line class="cls-2" x1="-14.02" y1="46.02" x2="51.98" y2="-19.98"/><line class="cls-2" x1="-30.02" y1="46.02" x2="35.98" y2="-19.98"/><line class="cls-2" x1="-46.02" y1="46.02" x2="19.98" y2="-19.98"/><line class="cls-2" x1="-62.02" y1="46.02" x2="3.98" y2="-19.98"/><line class="cls-2" x1="1.98" y1="30.02" x2="67.98" y2="-35.98"/><line class="cls-2" x1="-14.02" y1="30.02" x2="51.98" y2="-35.98"/><line class="cls-2" x1="-30.02" y1="30.02" x2="35.98" y2="-35.98"/><line class="cls-2" x1="-46.02" y1="30.02" x2="19.98" y2="-35.98"/><line class="cls-2" x1="-62.02" y1="30.02" x2="3.98" y2="-35.98"/><line class="cls-2" x1="1.98" y1="14.02" x2="67.98" y2="-51.98"/><line class="cls-2" x1="-14.02" y1="14.02" x2="51.98" y2="-51.98"/><line class="cls-2" x1="-30.02" y1="14.02" x2="35.98" y2="-51.98"/><line class="cls-2" x1="-46.02" y1="14.02" x2="19.98" y2="-51.98"/><line class="cls-2" x1="-62.02" y1="14.02" x2="3.98" y2="-51.98"/></pattern><pattern id="lines-7" data-name="lines" width="16" height="16" patternTransform="translate(-142 -464.97)" patternUnits="userSpaceOnUse" viewBox="0 0 16 16"><rect class="cls-1" width="16" height="16"/><line class="cls-2" x1="1.98" y1="78.02" x2="67.98" y2="12.02"/><line class="cls-2" x1="-14.02" y1="78.02" x2="51.98" y2="12.02"/><line class="cls-2" x1="-30.02" y1="78.02" x2="35.98" y2="12.02"/><line class="cls-2" x1="-46.02" y1="78.02" x2="19.98" y2="12.02"/><line class="cls-2" x1="-62.02" y1="78.02" x2="3.98" y2="12.02"/><line class="cls-2" x1="1.98" y1="62.02" x2="67.98" y2="-3.98"/><line class="cls-2" x1="-14.02" y1="62.02" x2="51.98" y2="-3.98"/><line class="cls-2" x1="-30.02" y1="62.02" x2="35.98" y2="-3.98"/><line class="cls-2" x1="-46.02" y1="62.02" x2="19.98" y2="-3.98"/><line class="cls-2" x1="-62.02" y1="62.02" x2="3.98" y2="-3.98"/><line class="cls-2" x1="1.98" y1="46.02" x2="67.98" y2="-19.98"/><line class="cls-2" x1="-14.02" y1="46.02" x2="51.98" y2="-19.98"/><line class="cls-2" x1="-30.02" y1="46.02" x2="35.98" y2="-19.98"/><line class="cls-2" x1="-46.02" y1="46.02" x2="19.98" y2="-19.98"/><line class="cls-2" x1="-62.02" y1="46.02" x2="3.98" y2="-19.98"/><line class="cls-2" x1="1.98" y1="30.02" x2="67.98" y2="-35.98"/><line class="cls-2" x1="-14.02" y1="30.02" x2="51.98" y2="-35.98"/><line class="cls-2" x1="-30.02" y1="30.02" x2="35.98" y2="-35.98"/><line class="cls-2" x1="-46.02" y1="30.02" x2="19.98" y2="-35.98"/><line class="cls-2" x1="-62.02" y1="30.02" x2="3.98" y2="-35.98"/><line class="cls-2" x1="1.98" y1="14.02" x2="67.98" y2="-51.98"/><line class="cls-2" x1="-14.02" y1="14.02" x2="51.98" y2="-51.98"/><line class="cls-2" x1="-30.02" y1="14.02" x2="35.98" y2="-51.98"/><line class="cls-2" x1="-46.02" y1="14.02" x2="19.98" y2="-51.98"/><line class="cls-2" x1="-62.02" y1="14.02" x2="3.98" y2="-51.98"/></pattern></defs><title>Discovery-provider</title><g id="Layer_2" data-name="Layer 2"><g id="Discovery-provider"><path class="cls-3" d="M377.74,473.33c32.16,0,58.23,24,58.23,53.53,0,21.41-20.24,41.29-58.23,41.29"/><path class="cls-3" d="M377.62,568.15H73.36M277.11,346.61H377.62m-304.26,0h96.72"/><path class="cls-3" d="M436,526.86V346.05c0-32.46-25.74-68.3-58.23-68.3v194.1Q428.86,474.22,436,526.86Z"/><path class="cls-3" d="M6,526.86V346.05c0-32.46,25.73-68.3,58.22-68.3v194.1Q13.11,474.22,6,526.86Z"/><path class="cls-4" d="M64.22,568.15C26.23,568.15,6,547.83,6,526c0-30.84,22.91-51,58.22-54.11V346.61h52c12.82,7.24,22.67,25.65,22.67,25.65s11.08,5.87,14.55,13.37.19,17.68.19,17.68,9.82,22,5.2,28.19-24.27,10.14-24.27,10.14-8.09,11.47-24.84,13.67c-11,.88-22-15.38-22-3.47s15.6,31.31,15.6,31.31,16.17,6,18.48,10.45,3.1,14.69,3.1,14.69,15.39,20.73,6.73,32.64c-2.77,3.8-15.6,6.61-15.6,6.61l-18,20.61Z"/><path class="cls-4" d="M377.74,395.46c-14,6.64-39.83,11.28-39.83,11.28s-20.17,19.7-32,18.07-23.75-14.67-23.75-14.67.82-24.05-2.89-25.27-13.63,5.3-19.83.41-2.62-18.68-2.62-18.68-12.08-1.23-7.61-2.93c13.58-5.16,22.6-13.23,23.85-17.06H377.62Z"/><path class="cls-4" d="M345.54,479.45c3.09,5.44-5.82,19.35-13.17,22.06-9.74,3.59-16.38,8.1-19.08,11.25S307,528.92,298.1,531.49s-30,17.28-41.25,15-11.24-22.05-3.49-30.93c4.63-5.3-.77-16.9-1.16-20.92s-16.66-11.45-16.66-15.46c0-6.3,18.59-22.92,18.59-22.92s15.24-3.72,19.89-2.86,13.42,4.87,13.42,4.87,17.43,1.15,24,3.72l8.91,6S342.44,474,345.54,479.45Z"/><path class="cls-3" d="M286.83,307.11a61.34,61.34,0,1,1-19.08-44.47"/><line class="cls-3" x1="225.49" y1="368.45" x2="225.49" y2="429.27"/><path class="cls-5" d="M206.67,207.69c5.87,8,17.33,9.59,25.61,3.53h0c8.27-6.05,10.23-17.45,4.36-25.46L212.7,153.09"/><path class="cls-5" d="M178.1,233.49a19.61,19.61,0,0,0,30.52-20.05l-13-61.11"/><path class="cls-5" d="M137.11,239.26a19.6,19.6,0,0,0,20.14,14.41h0a19.59,19.59,0,0,0,18.34-20.77l-4.32-69"/><path class="cls-5" d="M362.26,5.58,206,67.5C189,76,189,76,172,95.09L116.79,152,98.48,238.31a19.6,19.6,0,0,0,38.88,5l15.11-63.73,46-28.76L247,164.25c24.26,9.84,36.84,26.1,32,52.21l-10.14,49c-4.86,28,14.54,37.19,30.81,37.18a42.23,42.23,0,0,0,6.86-.79s7.44-27.73,9.18-33.67l34.2-61.3s43.38-27.53,36.63-84.38"/><line class="cls-6" x1="387.03" y1="141.81" x2="416.44" y2="127.88"/><path class="cls-3" d="M262.84,145.38C282,153,286.4,173.23,283.58,191.89l-6.46,32.74"/><path class="cls-7" d="M385.82,123c4.82,12.84.92,13.76-2.33,21.9l33.22-14L386.09,62.17"/></g></g></svg>