<svg xmlns="http://www.w3.org/2000/svg" xmlns:xlink="http://www.w3.org/1999/xlink" viewBox="0 0 442.04 607.69"><defs><style>.cls-1,.cls-2,.cls-3,.cls-5,.cls-7{fill:none;}.cls-2,.cls-3,.cls-4,.cls-5,.cls-6,.cls-7{stroke:#4038ff;}.cls-2,.cls-5,.cls-7{stroke-linecap:square;}.cls-2,.cls-3,.cls-6,.cls-7{stroke-miterlimit:10;}.cls-2{stroke-width:2px;}.cls-3,.cls-4,.cls-5,.cls-6,.cls-7{stroke-width:12px;}.cls-4{stroke-linejoin:bevel;fill:url(#lines);}.cls-6{fill:#fff;}.cls-8{fill:url(#lines-3);}</style><pattern id="lines" data-name="lines" width="16" height="16" patternTransform="translate(96 496)" patternUnits="userSpaceOnUse" viewBox="0 0 16 16"><rect class="cls-1" width="16" height="16"/><line class="cls-2" x1="1.98" y1="78.02" x2="67.98" y2="12.02"/><line class="cls-2" x1="-14.02" y1="78.02" x2="51.98" y2="12.02"/><line class="cls-2" x1="-30.02" y1="78.02" x2="35.98" y2="12.02"/><line class="cls-2" x1="-46.02" y1="78.02" x2="19.98" y2="12.02"/><line class="cls-2" x1="-62.02" y1="78.02" x2="3.98" y2="12.02"/><line class="cls-2" x1="1.98" y1="62.02" x2="67.98" y2="-3.98"/><line class="cls-2" x1="-14.02" y1="62.02" x2="51.98" y2="-3.98"/><line class="cls-2" x1="-30.02" y1="62.02" x2="35.98" y2="-3.98"/><line class="cls-2" x1="-46.02" y1="62.02" x2="19.98" y2="-3.98"/><line class="cls-2" x1="-62.02" y1="62.02" x2="3.98" y2="-3.98"/><line class="cls-2" x1="1.98" y1="46.02" x2="67.98" y2="-19.98"/><line class="cls-2" x1="-14.02" y1="46.02" x2="51.98" y2="-19.98"/><line class="cls-2" x1="-30.02" y1="46.02" x2="35.98" y2="-19.98"/><line class="cls-2" x1="-46.02" y1="46.02" x2="19.98" y2="-19.98"/><line class="cls-2" x1="-62.02" y1="46.02" x2="3.98" y2="-19.98"/><line class="cls-2" x1="1.98" y1="30.02" x2="67.98" y2="-35.98"/><line class="cls-2" x1="-14.02" y1="30.02" x2="51.98" y2="-35.98"/><line class="cls-2" x1="-30.02" y1="30.02" x2="35.98" y2="-35.98"/><line class="cls-2" x1="-46.02" y1="30.02" x2="19.98" y2="-35.98"/><line class="cls-2" x1="-62.02" y1="30.02" x2="3.98" y2="-35.98"/><line class="cls-2" x1="1.98" y1="14.02" x2="67.98" y2="-51.98"/><line class="cls-2" x1="-14.02" y1="14.02" x2="51.98" y2="-51.98"/><line class="cls-2" x1="-30.02" y1="14.02" x2="35.98" y2="-51.98"/><line class="cls-2" x1="-46.02" y1="14.02" x2="19.98" y2="-51.98"/><line class="cls-2" x1="-62.02" y1="14.02" x2="3.98" y2="-51.98"/></pattern><pattern id="lines-3" data-name="lines" width="16" height="16" patternTransform="translate(-46 -192.97)" patternUnits="userSpaceOnUse" viewBox="0 0 16 16"><rect class="cls-1" width="16" height="16"/><line class="cls-2" x1="1.98" y1="78.02" x2="67.98" y2="12.02"/><line class="cls-2" x1="-14.02" y1="78.02" x2="51.98" y2="12.02"/><line class="cls-2" x1="-30.02" y1="78.02" x2="35.98" y2="12.02"/><line class="cls-2" x1="-46.02" y1="78.02" x2="19.98" y2="12.02"/><line class="cls-2" x1="-62.02" y1="78.02" x2="3.98" y2="12.02"/><line class="cls-2" x1="1.98" y1="62.02" x2="67.98" y2="-3.98"/><line class="cls-2" x1="-14.02" y1="62.02" x2="51.98" y2="-3.98"/><line class="cls-2" x1="-30.02" y1="62.02" x2="35.98" y2="-3.98"/><line class="cls-2" x1="-46.02" y1="62.02" x2="19.98" y2="-3.98"/><line class="cls-2" x1="-62.02" y1="62.02" x2="3.98" y2="-3.98"/><line class="cls-2" x1="1.98" y1="46.02" x2="67.98" y2="-19.98"/><line class="cls-2" x1="-14.02" y1="46.02" x2="51.98" y2="-19.98"/><line class="cls-2" x1="-30.02" y1="46.02" x2="35.98" y2="-19.98"/><line class="cls-2" x1="-46.02" y1="46.02" x2="19.98" y2="-19.98"/><line class="cls-2" x1="-62.02" y1="46.02" x2="3.98" y2="-19.98"/><line class="cls-2" x1="1.98" y1="30.02" x2="67.98" y2="-35.98"/><line class="cls-2" x1="-14.02" y1="30.02" x2="51.98" y2="-35.98"/><line class="cls-2" x1="-30.02" y1="30.02" x2="35.98" y2="-35.98"/><line class="cls-2" x1="-46.02" y1="30.02" x2="19.98" y2="-35.98"/><line class="cls-2" x1="-62.02" y1="30.02" x2="3.98" y2="-35.98"/><line class="cls-2" x1="1.98" y1="14.02" x2="67.98" y2="-51.98"/><line class="cls-2" x1="-14.02" y1="14.02" x2="51.98" y2="-51.98"/><line class="cls-2" x1="-30.02" y1="14.02" x2="35.98" y2="-51.98"/><line class="cls-2" x1="-46.02" y1="14.02" x2="19.98" y2="-51.98"/><line class="cls-2" x1="-62.02" y1="14.02" x2="3.98" y2="-51.98"/></pattern></defs><title>Election</title><g id="Layer_2" data-name="Layer 2"><g id="Election"><polyline class="cls-3" points="78.91 339.23 6 402.64 6 572.29"/><polyline class="cls-3" points="436.04 572.29 436.04 402.64 357.23 339.42"/><polygon class="cls-4" points="357.23 339.42 290.68 339.37 259.11 370.93 186.1 370.93 154.45 339.28 78.91 339.22 6 402.64 436.04 402.64 357.23 339.42"/><line class="cls-3" x1="128.96" y1="370.93" x2="311.94" y2="370.93"/><path class="cls-3" d="M179.68,534.14a4,4,0,0,1-1.16-2.81V510.47L162.8,494.76a4,4,0,0,1,0-5.63l15.72-15.71V452.56a4,4,0,0,1,4-4h20.86l15.71-15.72a4,4,0,0,1,5.63,0l15.71,15.72h20.86a4,4,0,0,1,4,4v20.86L281,489.13a4,4,0,0,1,0,5.63l-15.72,15.71v20.86a4,4,0,0,1-4,4H240.4L224.69,551a4,4,0,0,1-5.63,0L203.35,535.3H182.49A4,4,0,0,1,179.68,534.14ZM205,452.56l0,0Z"/><path class="cls-3" d="M239.43,535.7l-14.74,14.75a4,4,0,0,1-5.63,0L204.32,535.7H190.05v61.17L221.87,577l31.83,19.89V535.7Z"/><polyline class="cls-5" points="336.81 212.32 377.26 252.78 259.11 370.93 186.1 370.93 122.94 307.76 257.59 173.11"/><line class="cls-3" x1="242.25" y1="185.46" x2="205.44" y2="157.09"/><path class="cls-3" d="M171.26,180.32l17,43.26a17.11,17.11,0,0,0,6.59,7.74"/><line class="cls-3" x1="219.83" y1="210.04" x2="196.87" y2="156.78"/><path class="cls-3" d="M316.74,5l-124,79.85c-13.21,10.22-13.21,10.22-24.54,29.51l-37.87,58.36-1.1,77.4a17.19,17.19,0,0,0,34.31-2.33l2.17-57.42,34.7-32.56,44.08,3.33c22.55,4.34,36.14,16.21,36.37,39.5l-.4,43.9c.57,24.93,18.83,29.53,32.82,26.76a38.36,38.36,0,0,0,5.78-1.84s1.68-25.13,2.18-30.54l19-58.57s32.64-31.06,17.18-78.84"/><line class="cls-6" x1="361.21" y1="118.08" x2="384.15" y2="101.09"/><path class="cls-7" d="M254.93,142.26c17.82,3.33,25,20,25.75,36.49V208"/><path class="cls-8" d="M357,102.13c6.32,10.23,3.13,11.69,1.71,19.24l26.22-17.65-38.05-54"/></g></g></svg>