<svg xmlns="http://www.w3.org/2000/svg" xmlns:xlink="http://www.w3.org/1999/xlink" viewBox="0 0 681.46 509.47"><defs><style>.cls-1,.cls-2,.cls-4{fill:none;}.cls-2,.cls-3,.cls-4{stroke:#4038ff;stroke-linecap:square;stroke-miterlimit:10;}.cls-2{stroke-width:2px;}.cls-3,.cls-4{stroke-width:12px;}.cls-3{fill:url(#lines);}</style><pattern id="lines" data-name="lines" width="16" height="16" patternTransform="translate(46 474.67)" patternUnits="userSpaceOnUse" viewBox="0 0 16 16"><rect class="cls-1" width="16" height="16"/><line class="cls-2" x1="1.98" y1="78.02" x2="67.98" y2="12.02"/><line class="cls-2" x1="-14.02" y1="78.02" x2="51.98" y2="12.02"/><line class="cls-2" x1="-30.02" y1="78.02" x2="35.98" y2="12.02"/><line class="cls-2" x1="-46.02" y1="78.02" x2="19.98" y2="12.02"/><line class="cls-2" x1="-62.02" y1="78.02" x2="3.98" y2="12.02"/><line class="cls-2" x1="1.98" y1="62.02" x2="67.98" y2="-3.98"/><line class="cls-2" x1="-14.02" y1="62.02" x2="51.98" y2="-3.98"/><line class="cls-2" x1="-30.02" y1="62.02" x2="35.98" y2="-3.98"/><line class="cls-2" x1="-46.02" y1="62.02" x2="19.98" y2="-3.98"/><line class="cls-2" x1="-62.02" y1="62.02" x2="3.98" y2="-3.98"/><line class="cls-2" x1="1.98" y1="46.02" x2="67.98" y2="-19.98"/><line class="cls-2" x1="-14.02" y1="46.02" x2="51.98" y2="-19.98"/><line class="cls-2" x1="-30.02" y1="46.02" x2="35.98" y2="-19.98"/><line class="cls-2" x1="-46.02" y1="46.02" x2="19.98" y2="-19.98"/><line class="cls-2" x1="-62.02" y1="46.02" x2="3.98" y2="-19.98"/><line class="cls-2" x1="1.98" y1="30.02" x2="67.98" y2="-35.98"/><line class="cls-2" x1="-14.02" y1="30.02" x2="51.98" y2="-35.98"/><line class="cls-2" x1="-30.02" y1="30.02" x2="35.98" y2="-35.98"/><line class="cls-2" x1="-46.02" y1="30.02" x2="19.98" y2="-35.98"/><line class="cls-2" x1="-62.02" y1="30.02" x2="3.98" y2="-35.98"/><line class="cls-2" x1="1.98" y1="14.02" x2="67.98" y2="-51.98"/><line class="cls-2" x1="-14.02" y1="14.02" x2="51.98" y2="-51.98"/><line class="cls-2" x1="-30.02" y1="14.02" x2="35.98" y2="-51.98"/><line class="cls-2" x1="-46.02" y1="14.02" x2="19.98" y2="-51.98"/><line class="cls-2" x1="-62.02" y1="14.02" x2="3.98" y2="-51.98"/></pattern></defs><title>Forum-posts</title><g id="Layer_2" data-name="Layer 2"><g id="Forum-posts"><path class="cls-3" d="M110,85.68c0-23.4,17.44-42.37,38.95-42.37C164.53,43.31,179,58,179,85.68Z"/><path class="cls-4" d="M179,190.68V95.85M152,43.31H410v.34m47,259c0,19.73-.5,45.88-.5,94.89M410,43.65a51.7,51.7,0,0,1,6-.34c21,0,40.5,18.26,40.5,52.54v53.83"/><path class="cls-4" d="M405.41,346.65c14.48-28.72,20-37.84,58.1-97.22C493.84,202.19,540.91,123.8,600.35,63"/><path class="cls-4" d="M418.82,301.39s-22-36.38,5.63-85.73l20.83,15.68-5.46-43.1L511.6,59.67A116.66,116.66,0,0,1,672.78,24.49h0L502.07,251.18A175.69,175.69,0,0,1,438,303.75h0"/><path class="cls-3" d="M265,449.68H457c29,0,61-23,61-52H265"/><path class="cls-4" d="M190.45,288.59q23.73,5.28,52.5,14.48a34.53,34.53,0,0,1,23.93,35l-8,130.29a34.51,34.51,0,0,1-31.14,32.25c-39.73,3.82-142.82,3.82-182.55,0a34.52,34.52,0,0,1-31.15-32.25l-8-130.29a34.52,34.52,0,0,1,23.93-35q28-8.94,51.17-14.18"/><path class="cls-4" d="M96,259a45,45,0,0,1-45-45c0,13.26,38.28,24,85.5,24s85.5-10.76,85.5-24a45,45,0,0,1-31.32,42.91"/><path class="cls-4" d="M33.5,337.68C38.92,341,51.9,346,82.6,346H205.9c14.7,0,27.6-3.92,33.1-8.36"/><path class="cls-4" d="M10.5,405.2c0-10.78,22.56-19.52,50.4-19.52H212.1c27.84,0,50.4,8.74,50.4,19.52"/><ellipse class="cls-4" cx="137" cy="202.68" rx="54" ry="11.57"/><ellipse class="cls-4" cx="136.5" cy="213.94" rx="85.5" ry="24.02"/><path class="cls-4" d="M130,298.68s-21.34.72-31-1c-19-3.37-18-8.34-18-9.79V260.47a3,3,0,0,1,3-3,2.59,2.59,0,0,1,.48,0M139,264.59c15.81,0,26.12,0,49.8-7.12,1.53-.46,1.31.95,1.64,2.57a3.05,3.05,0,0,1,.06.6V288c0,4.64-9.59,9.93-23.38,9.93"/><path class="cls-3" d="M10.5,403.2c0,10.78,22.56,19.51,50.4,19.51H212.1c27.84,0,50.4-8.73,50.4-19.51l-3,48.92c0,14.92-22,27-49.2,27H62.7c-27.17,0-49.2-12.1-49.2-27Z"/><line class="cls-4" x1="246" y1="117.68" x2="394" y2="117.68"/><line class="cls-4" x1="246" y1="167.02" x2="394" y2="167.02"/><line class="cls-4" x1="246" y1="216.35" x2="394" y2="216.35"/><line class="cls-4" x1="246" y1="265.68" x2="333.82" y2="265.68"/></g></g></svg>