<svg xmlns="http://www.w3.org/2000/svg" xmlns:xlink="http://www.w3.org/1999/xlink" viewBox="0 0 650.26 527.06"><defs><style>.cls-1,.cls-2,.cls-3,.cls-4{fill:none;}.cls-2,.cls-3,.cls-4,.cls-5,.cls-6{stroke:#4038ff;stroke-miterlimit:10;}.cls-2,.cls-4{stroke-linecap:square;}.cls-2{stroke-width:2px;}.cls-3,.cls-4,.cls-5,.cls-6{stroke-width:12px;}.cls-5{fill:#fff;}.cls-6{fill:url(#lines);}</style><pattern id="lines" data-name="lines" width="16" height="16" patternUnits="userSpaceOnUse" viewBox="0 0 16 16"><rect class="cls-1" width="16" height="16"/><line class="cls-2" x1="1.98" y1="78.02" x2="67.98" y2="12.02"/><line class="cls-2" x1="-14.02" y1="78.02" x2="51.98" y2="12.02"/><line class="cls-2" x1="-30.02" y1="78.02" x2="35.98" y2="12.02"/><line class="cls-2" x1="-46.02" y1="78.02" x2="19.98" y2="12.02"/><line class="cls-2" x1="-62.02" y1="78.02" x2="3.98" y2="12.02"/><line class="cls-2" x1="1.98" y1="62.02" x2="67.98" y2="-3.98"/><line class="cls-2" x1="-14.02" y1="62.02" x2="51.98" y2="-3.98"/><line class="cls-2" x1="-30.02" y1="62.02" x2="35.98" y2="-3.98"/><line class="cls-2" x1="-46.02" y1="62.02" x2="19.98" y2="-3.98"/><line class="cls-2" x1="-62.02" y1="62.02" x2="3.98" y2="-3.98"/><line class="cls-2" x1="1.98" y1="46.02" x2="67.98" y2="-19.98"/><line class="cls-2" x1="-14.02" y1="46.02" x2="51.98" y2="-19.98"/><line class="cls-2" x1="-30.02" y1="46.02" x2="35.98" y2="-19.98"/><line class="cls-2" x1="-46.02" y1="46.02" x2="19.98" y2="-19.98"/><line class="cls-2" x1="-62.02" y1="46.02" x2="3.98" y2="-19.98"/><line class="cls-2" x1="1.98" y1="30.02" x2="67.98" y2="-35.98"/><line class="cls-2" x1="-14.02" y1="30.02" x2="51.98" y2="-35.98"/><line class="cls-2" x1="-30.02" y1="30.02" x2="35.98" y2="-35.98"/><line class="cls-2" x1="-46.02" y1="30.02" x2="19.98" y2="-35.98"/><line class="cls-2" x1="-62.02" y1="30.02" x2="3.98" y2="-35.98"/><line class="cls-2" x1="1.98" y1="14.02" x2="67.98" y2="-51.98"/><line class="cls-2" x1="-14.02" y1="14.02" x2="51.98" y2="-51.98"/><line class="cls-2" x1="-30.02" y1="14.02" x2="35.98" y2="-51.98"/><line class="cls-2" x1="-46.02" y1="14.02" x2="19.98" y2="-51.98"/><line class="cls-2" x1="-62.02" y1="14.02" x2="3.98" y2="-51.98"/></pattern></defs><title>Incentive</title><g id="Layer_2" data-name="Layer 2"><g id="Incentive"><polyline class="cls-3" points="449.44 310.34 449.44 329.96 472.37 329.96"/><polyline class="cls-3" points="316.46 329.96 346.33 329.96 346.33 266.13 396.49 316.29 421.62 291.16"/><path class="cls-3" d="M622.67,334.56c-32.25-52.13-86.95-46.27-86.95-46.27l-69.54-28.56c-5.42-3.81-30.14-22.09-30.14-22.09a45.93,45.93,0,0,0-6.28,3.92c-13.64,10.84-23.77,31.47-1,51.69l41.17,34.3c21.51,18.61,28.2,48.62,14.43,73l-40.55,34.85-55.38,5.4L291,380.28a23.17,23.17,0,0,0-32.14,6.35h0a23.16,23.16,0,0,0,6.35,32.13l40.1,26.88,69.39,53.43,99.89,7.81c14.25.84,20.46-1.08,31.09-4.18L646.43,455"/><line class="cls-3" x1="615.32" y1="322.61" x2="650.16" y2="322.07"/><path class="cls-4" d="M503.8,397.86c11-19.21,1.17-39-13.64-52.79l-27.25-23.13"/><path class="cls-3" d="M298.36,132.07c1.43,11.58-7.12,22.18-19.09,23.66h0c-12,1.48-22.83-6.71-24.25-18.3l-4.63-48.54"/><path class="cls-3" d="M263.37,76l38,62.61A23,23,0,0,0,333,146.3h0A23.05,23.05,0,0,0,344,129"/><path class="cls-3" d="M385.06,107a23.08,23.08,0,0,1-7.31,24.59h0a23,23,0,0,1-32.45-3L294.94,67.88"/><path class="cls-3" d="M2.21,84.31,186,11.44C207.42,5,207.42,5,237.3,7.7l93.17,4.23,85.25,59.18a23.06,23.06,0,0,1-29.31,35.6L322.12,64.28,259.54,76.71,228.8,127.38c-12.86,28-10.53,52,14.69,70.46l48.18,33.81c26.73,20.07,17.51,43.57,3.57,56.67a50.83,50.83,0,0,1-6.52,4.86s-28.71-17.77-35-21.45l-78.7-25S115.69,258.15,75.67,204"/><line class="cls-5" x1="90.77" y1="220.97" x2="54.35" y2="232.74"/><path class="cls-4" d="M200,124c-10.27,22,2.25,42.83,19.71,56.55l31.91,22.84"/><path class="cls-6" d="M374.7,499.07l-54.06-41.63,25.07,48.49c4.4,10,11.53,16.45,25,14.9l70.47-16.56Z"/><path class="cls-6" d="M398.7,200.32a91.82,91.82,0,0,1,86.21,67.11l50.81,20.86s1.54-.16,4.24-.19a143.54,143.54,0,0,0-266.82-69.45l18.53,13c26.73,20.07,17.51,43.57,3.57,56.67a50.83,50.83,0,0,1-6.52,4.86s-16.42-9.55-27.14-15.83a5.47,5.47,0,0,0-8.21,4.26c-.28,3.37-.42,6.75-.42,10.47a142.86,142.86,0,0,0,27.43,84.39A23.11,23.11,0,0,1,291,380.28l87.13,54.17a146.28,146.28,0,0,0,18.35,1.16,143,143,0,0,0,65.43-15.74l22.43-19.28c11.4-20.2,8.78-44.23-4.64-62.46a2.37,2.37,0,0,0-3.95.23,91.79,91.79,0,0,1-171-47.59C305.42,240,347.92,199.12,398.7,200.32Z"/></g></g></svg>