<svg xmlns="http://www.w3.org/2000/svg" xmlns:xlink="http://www.w3.org/1999/xlink" viewBox="0 0 569.43 442.16"><defs><style>.cls-1,.cls-2,.cls-4,.cls-5{fill:none;}.cls-2,.cls-3,.cls-4,.cls-5,.cls-6{stroke:#4038ff;stroke-miterlimit:10;}.cls-2,.cls-5,.cls-6{stroke-linecap:square;}.cls-2{stroke-width:2px;}.cls-3,.cls-4,.cls-5,.cls-6{stroke-width:12px;}.cls-3{fill:url(#lines);}.cls-6{fill:#fff;}</style><pattern id="lines" data-name="lines" width="16" height="16" patternTransform="translate(224 304)" patternUnits="userSpaceOnUse" viewBox="0 0 16 16"><rect class="cls-1" width="16" height="16"/><line class="cls-2" x1="1.98" y1="78.02" x2="67.98" y2="12.02"/><line class="cls-2" x1="-14.02" y1="78.02" x2="51.98" y2="12.02"/><line class="cls-2" x1="-30.02" y1="78.02" x2="35.98" y2="12.02"/><line class="cls-2" x1="-46.02" y1="78.02" x2="19.98" y2="12.02"/><line class="cls-2" x1="-62.02" y1="78.02" x2="3.98" y2="12.02"/><line class="cls-2" x1="1.98" y1="62.02" x2="67.98" y2="-3.98"/><line class="cls-2" x1="-14.02" y1="62.02" x2="51.98" y2="-3.98"/><line class="cls-2" x1="-30.02" y1="62.02" x2="35.98" y2="-3.98"/><line class="cls-2" x1="-46.02" y1="62.02" x2="19.98" y2="-3.98"/><line class="cls-2" x1="-62.02" y1="62.02" x2="3.98" y2="-3.98"/><line class="cls-2" x1="1.98" y1="46.02" x2="67.98" y2="-19.98"/><line class="cls-2" x1="-14.02" y1="46.02" x2="51.98" y2="-19.98"/><line class="cls-2" x1="-30.02" y1="46.02" x2="35.98" y2="-19.98"/><line class="cls-2" x1="-46.02" y1="46.02" x2="19.98" y2="-19.98"/><line class="cls-2" x1="-62.02" y1="46.02" x2="3.98" y2="-19.98"/><line class="cls-2" x1="1.98" y1="30.02" x2="67.98" y2="-35.98"/><line class="cls-2" x1="-14.02" y1="30.02" x2="51.98" y2="-35.98"/><line class="cls-2" x1="-30.02" y1="30.02" x2="35.98" y2="-35.98"/><line class="cls-2" x1="-46.02" y1="30.02" x2="19.98" y2="-35.98"/><line class="cls-2" x1="-62.02" y1="30.02" x2="3.98" y2="-35.98"/><line class="cls-2" x1="1.98" y1="14.02" x2="67.98" y2="-51.98"/><line class="cls-2" x1="-14.02" y1="14.02" x2="51.98" y2="-51.98"/><line class="cls-2" x1="-30.02" y1="14.02" x2="35.98" y2="-51.98"/><line class="cls-2" x1="-46.02" y1="14.02" x2="19.98" y2="-51.98"/><line class="cls-2" x1="-62.02" y1="14.02" x2="3.98" y2="-51.98"/></pattern></defs><title>Live-streaming-provider</title><g id="Layer_2" data-name="Layer 2"><g id="Live-streaming-provider"><path class="cls-3" d="M446.72,253.19l78.93,36.53h4V94.86h-4.83l-78.11,36.53"/><path class="cls-4" d="M83.41,59.73V37.38h362.4V324.92H134.41"/><path class="cls-4" d="M362.57,92.86A19.17,19.17,0,1,0,381.73,112,19.19,19.19,0,0,0,362.57,92.86Z"/><path class="cls-4" d="M554.58,94.86H529.66V289.72h24.92a8.86,8.86,0,0,0,8.85-8.86V103.71A8.85,8.85,0,0,0,554.58,94.86Z"/><rect class="cls-4" x="160.02" y="6" width="91.08" height="31.24"/><polygon class="cls-3" points="252.44 435.99 252.44 358.74 283.2 358.74 283.2 435.99 252.44 435.99"/><line class="cls-4" x1="11.06" y1="436.16" x2="371.67" y2="436.16"/><path class="cls-4" d="M209.49,325.05H319.73a0,0,0,0,1,0,0v10.29a23.23,23.23,0,0,1-23.23,23.23H232.72a23.23,23.23,0,0,1-23.23-23.23V325.05a0,0,0,0,1,0,0Z"/><path class="cls-3" d="M132.24,83.93a57.56,57.56,0,0,1-29.33,90.46v2.68h32.22c17.83,0,32.29,17.19,32.29,38.38v63.13H280.63V83.93Z"/><path class="cls-5" d="M86.71,176.71h0a57.56,57.56,0,0,1-57.57-57.57h0A57.56,57.56,0,0,1,86.71,61.58h0a57.56,57.56,0,0,1,57.57,57.56h0A57.56,57.56,0,0,1,86.71,176.71Z"/><path class="cls-5" d="M127.06,436.13H46.35L38.28,321,6,311.4V215.45c0-21.19,14.46-38.38,32.28-38.38h96.86c17.82,0,32.28,17.19,32.28,38.38V311.4L135.14,321Z"/><path class="cls-6" d="M105.55,135.17A26.56,26.56,0,0,1,86.71,143h0a26.56,26.56,0,0,1-18.84-7.8"/></g></g></svg>