<svg xmlns="http://www.w3.org/2000/svg" xmlns:xlink="http://www.w3.org/1999/xlink" viewBox="0 0 595.23 449.3"><defs><style>.cls-1,.cls-2,.cls-3{fill:none;}.cls-2,.cls-3,.cls-4{stroke:#4038ff;stroke-miterlimit:10;}.cls-2,.cls-3{stroke-linecap:square;}.cls-2{stroke-width:2px;}.cls-3,.cls-4{stroke-width:12px;}.cls-4{fill:url(#lines);}</style><pattern id="lines" data-name="lines" width="16" height="16" patternTransform="translate(-142 -54.31)" patternUnits="userSpaceOnUse" viewBox="0 0 16 16"><rect class="cls-1" width="16" height="16"/><line class="cls-2" x1="1.98" y1="78.02" x2="67.98" y2="12.02"/><line class="cls-2" x1="-14.02" y1="78.02" x2="51.98" y2="12.02"/><line class="cls-2" x1="-30.02" y1="78.02" x2="35.98" y2="12.02"/><line class="cls-2" x1="-46.02" y1="78.02" x2="19.98" y2="12.02"/><line class="cls-2" x1="-62.02" y1="78.02" x2="3.98" y2="12.02"/><line class="cls-2" x1="1.98" y1="62.02" x2="67.98" y2="-3.98"/><line class="cls-2" x1="-14.02" y1="62.02" x2="51.98" y2="-3.98"/><line class="cls-2" x1="-30.02" y1="62.02" x2="35.98" y2="-3.98"/><line class="cls-2" x1="-46.02" y1="62.02" x2="19.98" y2="-3.98"/><line class="cls-2" x1="-62.02" y1="62.02" x2="3.98" y2="-3.98"/><line class="cls-2" x1="1.98" y1="46.02" x2="67.98" y2="-19.98"/><line class="cls-2" x1="-14.02" y1="46.02" x2="51.98" y2="-19.98"/><line class="cls-2" x1="-30.02" y1="46.02" x2="35.98" y2="-19.98"/><line class="cls-2" x1="-46.02" y1="46.02" x2="19.98" y2="-19.98"/><line class="cls-2" x1="-62.02" y1="46.02" x2="3.98" y2="-19.98"/><line class="cls-2" x1="1.98" y1="30.02" x2="67.98" y2="-35.98"/><line class="cls-2" x1="-14.02" y1="30.02" x2="51.98" y2="-35.98"/><line class="cls-2" x1="-30.02" y1="30.02" x2="35.98" y2="-35.98"/><line class="cls-2" x1="-46.02" y1="30.02" x2="19.98" y2="-35.98"/><line class="cls-2" x1="-62.02" y1="30.02" x2="3.98" y2="-35.98"/><line class="cls-2" x1="1.98" y1="14.02" x2="67.98" y2="-51.98"/><line class="cls-2" x1="-14.02" y1="14.02" x2="51.98" y2="-51.98"/><line class="cls-2" x1="-30.02" y1="14.02" x2="35.98" y2="-51.98"/><line class="cls-2" x1="-46.02" y1="14.02" x2="19.98" y2="-51.98"/><line class="cls-2" x1="-62.02" y1="14.02" x2="3.98" y2="-51.98"/></pattern></defs><title>Map-of-navigation</title><g id="Layer_2" data-name="Layer 2"><g id="Map-of-navigation"><path class="cls-3" d="M510.25,314.69c43.62,0,79,32.5,79,72.6,0,29-27.45,56-79,56"/><path class="cls-3" d="M510.08,443.3H97.38m0-300.5h139.7"/><path class="cls-3" d="M589.23,387.29V142c0-44-34.91-92.65-79-92.65V312.68Q579.6,315.89,589.23,387.29Z"/><path class="cls-3" d="M6,387.29V142C6,98,40.91,49.39,85,49.39V312.68Q15.64,315.89,6,387.29Z"/><path class="cls-4" d="M85,443.3c-51.53,0-79-27.55-79-57.23,0-41.83,31.08-69.18,79-73.39V142.8h70.5c17.4,9.82,30.76,34.79,30.76,34.79s15,8,19.73,18.14.26,24,.26,24,13.32,29.85,7.05,38.23-32.92,13.76-32.92,13.76-11,15.56-33.7,18.55c-14.89,1.19-29.79-20.87-29.79-4.71S138,328,138,328s21.94,8.19,25.08,14.18,4.2,19.92,4.2,19.92,20.88,28.12,9.12,44.27c-3.75,5.15-21.15,9-21.15,9L130.87,443.3Z"/><path class="cls-4" d="M466.57,323c4.2,7.38-7.89,26.24-17.87,29.92-13.2,4.87-22.21,11-25.88,15.27s-8.51,21.91-20.6,25.4-40.72,23.44-56,20.33S331,384,341.54,372c6.27-7.19-1.05-22.92-1.58-28.36s-22.59-15.55-22.59-21c0-8.55,25.21-31.09,25.21-31.09s20.67-5,27-3.88,18.22,6.6,18.22,6.6,23.64,1.56,32.57,5.06l12.08,8.16S462.36,315.61,466.57,323Z"/><path class="cls-4" d="M510.08,142.8H367.37A83.5,83.5,0,0,1,336,165.94a94,94,0,0,0,10.32,4s-4.84,18.69,3.56,25.33,21.85-2.22,26.89-.56S380.67,229,380.67,229s16.25,17.68,32.22,19.9,43.33-24.51,43.33-24.51,35-6.3,54-15.3Z"/><circle class="cls-3" cx="303.73" cy="89.21" r="83.21"/><line class="cls-3" x1="303.73" y1="172.42" x2="303.73" y2="254.92"/></g></g></svg>