<svg xmlns="http://www.w3.org/2000/svg" xmlns:xlink="http://www.w3.org/1999/xlink" viewBox="0 0 763.43 463.49"><defs><style>.cls-1,.cls-2,.cls-3,.cls-6,.cls-8{fill:none;}.cls-2,.cls-3,.cls-4,.cls-5,.cls-6,.cls-7,.cls-8{stroke:#4038ff;}.cls-2,.cls-3,.cls-4,.cls-8{stroke-linecap:square;}.cls-2,.cls-5,.cls-6,.cls-7,.cls-8{stroke-miterlimit:10;}.cls-2{stroke-width:2px;}.cls-3,.cls-4,.cls-5,.cls-6,.cls-7,.cls-8{stroke-width:12px;}.cls-4{fill:url(#lines);}.cls-5,.cls-9{fill:url(#lines-3);}.cls-7{fill:#fff;}</style><pattern id="lines" data-name="lines" width="16" height="16" patternTransform="translate(0 254)" patternUnits="userSpaceOnUse" viewBox="0 0 16 16"><rect class="cls-1" width="16" height="16"/><line class="cls-2" x1="1.98" y1="78.02" x2="67.98" y2="12.02"/><line class="cls-2" x1="-14.02" y1="78.02" x2="51.98" y2="12.02"/><line class="cls-2" x1="-30.02" y1="78.02" x2="35.98" y2="12.02"/><line class="cls-2" x1="-46.02" y1="78.02" x2="19.98" y2="12.02"/><line class="cls-2" x1="-62.02" y1="78.02" x2="3.98" y2="12.02"/><line class="cls-2" x1="1.98" y1="62.02" x2="67.98" y2="-3.98"/><line class="cls-2" x1="-14.02" y1="62.02" x2="51.98" y2="-3.98"/><line class="cls-2" x1="-30.02" y1="62.02" x2="35.98" y2="-3.98"/><line class="cls-2" x1="-46.02" y1="62.02" x2="19.98" y2="-3.98"/><line class="cls-2" x1="-62.02" y1="62.02" x2="3.98" y2="-3.98"/><line class="cls-2" x1="1.98" y1="46.02" x2="67.98" y2="-19.98"/><line class="cls-2" x1="-14.02" y1="46.02" x2="51.98" y2="-19.98"/><line class="cls-2" x1="-30.02" y1="46.02" x2="35.98" y2="-19.98"/><line class="cls-2" x1="-46.02" y1="46.02" x2="19.98" y2="-19.98"/><line class="cls-2" x1="-62.02" y1="46.02" x2="3.98" y2="-19.98"/><line class="cls-2" x1="1.98" y1="30.02" x2="67.98" y2="-35.98"/><line class="cls-2" x1="-14.02" y1="30.02" x2="51.98" y2="-35.98"/><line class="cls-2" x1="-30.02" y1="30.02" x2="35.98" y2="-35.98"/><line class="cls-2" x1="-46.02" y1="30.02" x2="19.98" y2="-35.98"/><line class="cls-2" x1="-62.02" y1="30.02" x2="3.98" y2="-35.98"/><line class="cls-2" x1="1.98" y1="14.02" x2="67.98" y2="-51.98"/><line class="cls-2" x1="-14.02" y1="14.02" x2="51.98" y2="-51.98"/><line class="cls-2" x1="-30.02" y1="14.02" x2="35.98" y2="-51.98"/><line class="cls-2" x1="-46.02" y1="14.02" x2="19.98" y2="-51.98"/><line class="cls-2" x1="-62.02" y1="14.02" x2="3.98" y2="-51.98"/></pattern><pattern id="lines-3" data-name="lines" width="16" height="16" patternUnits="userSpaceOnUse" viewBox="0 0 16 16"><rect class="cls-1" width="16" height="16"/><line class="cls-2" x1="1.98" y1="78.02" x2="67.98" y2="12.02"/><line class="cls-2" x1="-14.02" y1="78.02" x2="51.98" y2="12.02"/><line class="cls-2" x1="-30.02" y1="78.02" x2="35.98" y2="12.02"/><line class="cls-2" x1="-46.02" y1="78.02" x2="19.98" y2="12.02"/><line class="cls-2" x1="-62.02" y1="78.02" x2="3.98" y2="12.02"/><line class="cls-2" x1="1.98" y1="62.02" x2="67.98" y2="-3.98"/><line class="cls-2" x1="-14.02" y1="62.02" x2="51.98" y2="-3.98"/><line class="cls-2" x1="-30.02" y1="62.02" x2="35.98" y2="-3.98"/><line class="cls-2" x1="-46.02" y1="62.02" x2="19.98" y2="-3.98"/><line class="cls-2" x1="-62.02" y1="62.02" x2="3.98" y2="-3.98"/><line class="cls-2" x1="1.98" y1="46.02" x2="67.98" y2="-19.98"/><line class="cls-2" x1="-14.02" y1="46.02" x2="51.98" y2="-19.98"/><line class="cls-2" x1="-30.02" y1="46.02" x2="35.98" y2="-19.98"/><line class="cls-2" x1="-46.02" y1="46.02" x2="19.98" y2="-19.98"/><line class="cls-2" x1="-62.02" y1="46.02" x2="3.98" y2="-19.98"/><line class="cls-2" x1="1.98" y1="30.02" x2="67.98" y2="-35.98"/><line class="cls-2" x1="-14.02" y1="30.02" x2="51.98" y2="-35.98"/><line class="cls-2" x1="-30.02" y1="30.02" x2="35.98" y2="-35.98"/><line class="cls-2" x1="-46.02" y1="30.02" x2="19.98" y2="-35.98"/><line class="cls-2" x1="-62.02" y1="30.02" x2="3.98" y2="-35.98"/><line class="cls-2" x1="1.98" y1="14.02" x2="67.98" y2="-51.98"/><line class="cls-2" x1="-14.02" y1="14.02" x2="51.98" y2="-51.98"/><line class="cls-2" x1="-30.02" y1="14.02" x2="35.98" y2="-51.98"/><line class="cls-2" x1="-46.02" y1="14.02" x2="19.98" y2="-51.98"/><line class="cls-2" x1="-62.02" y1="14.02" x2="3.98" y2="-51.98"/></pattern></defs><title>Membership-curator</title><g id="Layer_2" data-name="Layer 2"><g id="Membership-curator"><polyline class="cls-3" points="105.5 192.44 105.5 72.3 229.46 72.3"/><line class="cls-3" x1="312.1" y1="343.98" x2="208.86" y2="343.98"/><line class="cls-3" x1="429.14" y1="72.3" x2="537.1" y2="72.3"/><path class="cls-3" d="M429.14,94V57h-56V49.64c0-24-19.63-44.09-43.63-43.63a42.79,42.79,0,0,0-41.95,42.78V57h-56v43A14,14,0,0,0,245.47,114H378.18"/><circle class="cls-3" cx="330.33" cy="50.32" r="13.15"/><line class="cls-3" x1="308.91" y1="167.44" x2="481.74" y2="167.44"/><line class="cls-3" x1="381.54" y1="225.03" x2="481.74" y2="225.03"/><line class="cls-3" x1="308.91" y1="225.03" x2="340.22" y2="225.03"/><line class="cls-3" x1="381.54" y1="280.13" x2="440.41" y2="280.13"/><line class="cls-3" x1="308.91" y1="280.13" x2="340.22" y2="280.13"/><polygon class="cls-4" points="176.86 168.69 176.86 215.91 208.54 223.84 208.54 281.38 248.23 281.38 248.23 168.69 176.86 168.69"/><path class="cls-5" d="M410.46,405.74l59.63,35.43c11.4,7.77,23.38,9.94,36.8-.73l58.65-59c-1.19.2-2.37.34-3.56.45l-65.36,32.51-86.16-8.68"/><path class="cls-6" d="M652.69,72c-69.49-34.38-124.27,8.51-124.27,8.51L434.68,96.35c-8.37-.46-47.13-3.54-47.13-3.54a57.08,57.08,0,0,0-4.11,8.41c-7.39,20.75-4.46,49.67,33.48,56.15l67.14,9.26c35.53,5.59,62.79,33.32,64.35,68.74L528.19,299.9l-55.82,42.85-145.06.17a29.3,29.3,0,0,0-30.24,28.31h0a29.29,29.29,0,0,0,28.31,30.24l61,2,110.22,10.93L609.05,356c15.85-8.64,21.23-14.85,30.56-25.29L758.79,185.38"/><line class="cls-7" x1="636.81" y1="64.06" x2="673.85" y2="40.17"/><path class="cls-8" d="M567.46,219.43c-1.08-28-24.86-42.68-50-47.54l-44.72-6.59"/><path class="cls-8" d="M6,342C6,426.75,107.27,457.2,107.27,457.2S208.54,424.42,208.54,342V223.84L107.27,198.52,6,223.84Z"/><path class="cls-9" d="M6,342V223.84l101.27-25.32V457.2C51.34,457.2,6,397.92,6,342Z"/></g></g></svg>