<svg xmlns="http://www.w3.org/2000/svg" xmlns:xlink="http://www.w3.org/1999/xlink" viewBox="0 0 582.17 415.41"><defs><style>.cls-1,.cls-2,.cls-4,.cls-5{fill:none;}.cls-2,.cls-3,.cls-4,.cls-5{stroke:#4038ff;stroke-linecap:square;}.cls-2,.cls-3,.cls-4{stroke-miterlimit:10;}.cls-2{stroke-width:2px;}.cls-3,.cls-4,.cls-5{stroke-width:12px;}.cls-3{fill:url(#lines);}</style><pattern id="lines" data-name="lines" width="16" height="16" patternUnits="userSpaceOnUse" viewBox="0 0 16 16"><rect class="cls-1" width="16" height="16"/><line class="cls-2" x1="1.98" y1="78.02" x2="67.98" y2="12.02"/><line class="cls-2" x1="-14.02" y1="78.02" x2="51.98" y2="12.02"/><line class="cls-2" x1="-30.02" y1="78.02" x2="35.98" y2="12.02"/><line class="cls-2" x1="-46.02" y1="78.02" x2="19.98" y2="12.02"/><line class="cls-2" x1="-62.02" y1="78.02" x2="3.98" y2="12.02"/><line class="cls-2" x1="1.98" y1="62.02" x2="67.98" y2="-3.98"/><line class="cls-2" x1="-14.02" y1="62.02" x2="51.98" y2="-3.98"/><line class="cls-2" x1="-30.02" y1="62.02" x2="35.98" y2="-3.98"/><line class="cls-2" x1="-46.02" y1="62.02" x2="19.98" y2="-3.98"/><line class="cls-2" x1="-62.02" y1="62.02" x2="3.98" y2="-3.98"/><line class="cls-2" x1="1.98" y1="46.02" x2="67.98" y2="-19.98"/><line class="cls-2" x1="-14.02" y1="46.02" x2="51.98" y2="-19.98"/><line class="cls-2" x1="-30.02" y1="46.02" x2="35.98" y2="-19.98"/><line class="cls-2" x1="-46.02" y1="46.02" x2="19.98" y2="-19.98"/><line class="cls-2" x1="-62.02" y1="46.02" x2="3.98" y2="-19.98"/><line class="cls-2" x1="1.98" y1="30.02" x2="67.98" y2="-35.98"/><line class="cls-2" x1="-14.02" y1="30.02" x2="51.98" y2="-35.98"/><line class="cls-2" x1="-30.02" y1="30.02" x2="35.98" y2="-35.98"/><line class="cls-2" x1="-46.02" y1="30.02" x2="19.98" y2="-35.98"/><line class="cls-2" x1="-62.02" y1="30.02" x2="3.98" y2="-35.98"/><line class="cls-2" x1="1.98" y1="14.02" x2="67.98" y2="-51.98"/><line class="cls-2" x1="-14.02" y1="14.02" x2="51.98" y2="-51.98"/><line class="cls-2" x1="-30.02" y1="14.02" x2="35.98" y2="-51.98"/><line class="cls-2" x1="-46.02" y1="14.02" x2="19.98" y2="-51.98"/><line class="cls-2" x1="-62.02" y1="14.02" x2="3.98" y2="-51.98"/></pattern></defs><title>Platform-content-files</title><g id="Layer_2" data-name="Layer 2"><g id="Platform-content-files"><path class="cls-3" d="M6,91.37a37.39,37.39,0,0,1,37.27-37.5c14.91,0,28.75,13,28.75,37.5Z"/><path class="cls-4" d="M43.27,53.87H182.13v.25"/><path class="cls-4" d="M138,332a37.39,37.39,0,0,1-37.27,37.5c-14.91,0-28.75-13-28.75-37.5V91.37"/><path class="cls-3" d="M182.13,369.52H109.55c-8.78,0-.67-.73-.18-.93,17.36-7,26.85-18.64,28.67-36.57h44.09"/><path class="cls-5" d="M115.78,107.42h66.35"/><path class="cls-5" d="M115.78,160.52h66.35"/><path class="cls-5" d="M115.78,213.62h66.35"/><path class="cls-5" d="M115.78,264.34h61.09"/><path class="cls-3" d="M97.75,53.92A47.78,47.78,0,0,1,145.38,6c19.06,0,36.75,16.65,36.75,47.92Z"/><path class="cls-4" d="M182.13,361.49v0ZM145.38,6H391.71v.31m0,0A48.9,48.9,0,0,1,397.15,6c19.06,0,36.75,16.65,36.75,47.92V361.49"/><path class="cls-4" d="M266.51,361.49a47.78,47.78,0,0,1-47.64,47.92c-19.05,0-36.74-16.65-36.74-47.92"/><path class="cls-3" d="M229.86,408.23c-.63.25-11,1.18.23,1.18H440.7a47.78,47.78,0,0,0,47.64-47.92H266.5C264.18,384.4,252.05,399.26,229.86,408.23Z"/><path class="cls-5" d="M238.06,74.43H381.57"/><path class="cls-5" d="M238.06,142.3H381.57"/><path class="cls-5" d="M238.06,210.16H381.57"/><path class="cls-5" d="M238.06,275h89.65"/><path class="cls-4" d="M433.9,53.87h68.59v.24m0,0a35.58,35.58,0,0,1,4.15-.24c14.53,0,28,12.7,28,36.55V325"/><path class="cls-3" d="M433.9,325H576.17a36.43,36.43,0,0,1-36.32,36.54h-106"/><path class="cls-5" d="M433.9,106.06h60.86"/><path class="cls-5" d="M433.9,157.81h60.86"/><path class="cls-5" d="M433.9,209.56h60.86"/><path class="cls-5" d="M433.9,259h38"/><line class="cls-4" x1="182.13" y1="53.92" x2="182.13" y2="369.52"/></g></g></svg>