<svg xmlns="http://www.w3.org/2000/svg" xmlns:xlink="http://www.w3.org/1999/xlink" viewBox="0 0 556.74 461.03"><defs><style>.cls-1,.cls-2,.cls-3{fill:none;}.cls-2,.cls-3{stroke:#4038ff;stroke-miterlimit:10;}.cls-2{stroke-linecap:square;stroke-width:2px;}.cls-3{stroke-width:12px;}.cls-4{fill:url(#lines);}</style><pattern id="lines" data-name="lines" width="16" height="16" patternUnits="userSpaceOnUse" viewBox="0 0 16 16"><rect class="cls-1" width="16" height="16"/><line class="cls-2" x1="1.98" y1="78.02" x2="67.98" y2="12.02"/><line class="cls-2" x1="-14.02" y1="78.02" x2="51.98" y2="12.02"/><line class="cls-2" x1="-30.02" y1="78.02" x2="35.98" y2="12.02"/><line class="cls-2" x1="-46.02" y1="78.02" x2="19.98" y2="12.02"/><line class="cls-2" x1="-62.02" y1="78.02" x2="3.98" y2="12.02"/><line class="cls-2" x1="1.98" y1="62.02" x2="67.98" y2="-3.98"/><line class="cls-2" x1="-14.02" y1="62.02" x2="51.98" y2="-3.98"/><line class="cls-2" x1="-30.02" y1="62.02" x2="35.98" y2="-3.98"/><line class="cls-2" x1="-46.02" y1="62.02" x2="19.98" y2="-3.98"/><line class="cls-2" x1="-62.02" y1="62.02" x2="3.98" y2="-3.98"/><line class="cls-2" x1="1.98" y1="46.02" x2="67.98" y2="-19.98"/><line class="cls-2" x1="-14.02" y1="46.02" x2="51.98" y2="-19.98"/><line class="cls-2" x1="-30.02" y1="46.02" x2="35.98" y2="-19.98"/><line class="cls-2" x1="-46.02" y1="46.02" x2="19.98" y2="-19.98"/><line class="cls-2" x1="-62.02" y1="46.02" x2="3.98" y2="-19.98"/><line class="cls-2" x1="1.98" y1="30.02" x2="67.98" y2="-35.98"/><line class="cls-2" x1="-14.02" y1="30.02" x2="51.98" y2="-35.98"/><line class="cls-2" x1="-30.02" y1="30.02" x2="35.98" y2="-35.98"/><line class="cls-2" x1="-46.02" y1="30.02" x2="19.98" y2="-35.98"/><line class="cls-2" x1="-62.02" y1="30.02" x2="3.98" y2="-35.98"/><line class="cls-2" x1="1.98" y1="14.02" x2="67.98" y2="-51.98"/><line class="cls-2" x1="-14.02" y1="14.02" x2="51.98" y2="-51.98"/><line class="cls-2" x1="-30.02" y1="14.02" x2="35.98" y2="-51.98"/><line class="cls-2" x1="-46.02" y1="14.02" x2="19.98" y2="-51.98"/><line class="cls-2" x1="-62.02" y1="14.02" x2="3.98" y2="-51.98"/></pattern></defs><title>Telegram</title><g id="Layer_2" data-name="Layer 2"><g id="Telegram"><g id="Symbols"><path id="Path" class="cls-3" d="M549.63,15.4a11.51,11.51,0,0,0-7.9-8.62,40.66,40.66,0,0,0-21.45,1.54S43,179.83,15.75,198.83c-5.86,4.12-7.83,6.47-8.82,9.26-4.7,13.61,10,19.5,10,19.5l123,40.07a13.14,13.14,0,0,0,6.23-.37c28-17.67,281.55-177.78,296.19-183.16,2.31-.68,4,0,3.4,1.67-5.85,20.43-224.89,215.13-226.08,216.32a4.67,4.67,0,0,0-1.67,4L206.5,426.24s-4.84,37.45,32.54,0c26.52-26.52,52-48.51,64.69-59.17,42.28,29.21,87.8,61.49,107.44,78.31A34.05,34.05,0,0,0,436.09,455a28.09,28.09,0,0,0,23.83-21.18S547.11,84,550,37c.27-4.6.72-7.39.72-10.8A40.54,40.54,0,0,0,549.63,15.4Z"/></g><path class="cls-4" d="M448.1,80.61c1.94-5.64-9.24-6.91-11.55-6.23C421.91,79.76,174.12,207.29,146.13,225a13.14,13.14,0,0,1-6.23.37L29.05,189.22c-6.69,3-11.26,5.27-13.3,6.69-5.86,4.12-7.83,6.47-8.82,9.26-4.7,13.62,10,19.51,10,19.51l123,40.07a13.14,13.14,0,0,0,6.23-.37c18.59-11.74,136.71-86.33,218.23-136.66C418.77,102.38,445.77,88.75,448.1,80.61Z"/><path class="cls-4" d="M548.18,8.91c-13,80.51-88.26,382.59-88.26,382.59a28.09,28.09,0,0,1-23.83,21.18A34,34,0,0,1,411.17,403C391.53,386.23,346,354,303.73,324.74c-30.29-19.69-62.25-42.21-62.25-42.21s-20,28.09-23.51,23.6L206.5,423.33s-4.84,37.45,32.54,0c26.52-26.52,52-48.51,64.69-59.17,42.28,29.21,87.8,61.48,107.44,78.3a34,34,0,0,0,24.92,9.64,28.09,28.09,0,0,0,23.83-21.18S547.11,81.12,550,34c.27-4.59.72-7.38.72-10.79a40.58,40.58,0,0,0-1.09-10.76A11.52,11.52,0,0,0,548.18,8.91Z"/></g></g></svg>