<svg xmlns="http://www.w3.org/2000/svg" xmlns:xlink="http://www.w3.org/1999/xlink" viewBox="0 0 483 418.35"><defs><style>.cls-1,.cls-2,.cls-3{fill:none;}.cls-2,.cls-3{stroke:#4038ff;stroke-miterlimit:10;}.cls-2{stroke-linecap:square;stroke-width:2px;}.cls-3{stroke-width:12px;}.cls-4{fill:url(#lines);}.cls-5{fill:url(#lines-11);}</style><pattern id="lines" data-name="lines" width="16" height="16" patternTransform="translate(-73 -128)" patternUnits="userSpaceOnUse" viewBox="0 0 16 16"><rect class="cls-1" width="16" height="16"/><line class="cls-2" x1="1.98" y1="78.02" x2="67.98" y2="12.02"/><line class="cls-2" x1="-14.02" y1="78.02" x2="51.98" y2="12.02"/><line class="cls-2" x1="-30.02" y1="78.02" x2="35.98" y2="12.02"/><line class="cls-2" x1="-46.02" y1="78.02" x2="19.98" y2="12.02"/><line class="cls-2" x1="-62.02" y1="78.02" x2="3.98" y2="12.02"/><line class="cls-2" x1="1.98" y1="62.02" x2="67.98" y2="-3.98"/><line class="cls-2" x1="-14.02" y1="62.02" x2="51.98" y2="-3.98"/><line class="cls-2" x1="-30.02" y1="62.02" x2="35.98" y2="-3.98"/><line class="cls-2" x1="-46.02" y1="62.02" x2="19.98" y2="-3.98"/><line class="cls-2" x1="-62.02" y1="62.02" x2="3.98" y2="-3.98"/><line class="cls-2" x1="1.98" y1="46.02" x2="67.98" y2="-19.98"/><line class="cls-2" x1="-14.02" y1="46.02" x2="51.98" y2="-19.98"/><line class="cls-2" x1="-30.02" y1="46.02" x2="35.98" y2="-19.98"/><line class="cls-2" x1="-46.02" y1="46.02" x2="19.98" y2="-19.98"/><line class="cls-2" x1="-62.02" y1="46.02" x2="3.98" y2="-19.98"/><line class="cls-2" x1="1.98" y1="30.02" x2="67.98" y2="-35.98"/><line class="cls-2" x1="-14.02" y1="30.02" x2="51.98" y2="-35.98"/><line class="cls-2" x1="-30.02" y1="30.02" x2="35.98" y2="-35.98"/><line class="cls-2" x1="-46.02" y1="30.02" x2="19.98" y2="-35.98"/><line class="cls-2" x1="-62.02" y1="30.02" x2="3.98" y2="-35.98"/><line class="cls-2" x1="1.98" y1="14.02" x2="67.98" y2="-51.98"/><line class="cls-2" x1="-14.02" y1="14.02" x2="51.98" y2="-51.98"/><line class="cls-2" x1="-30.02" y1="14.02" x2="35.98" y2="-51.98"/><line class="cls-2" x1="-46.02" y1="14.02" x2="19.98" y2="-51.98"/><line class="cls-2" x1="-62.02" y1="14.02" x2="3.98" y2="-51.98"/></pattern><pattern id="lines-11" data-name="lines" width="16" height="16" patternTransform="translate(208 -16)" patternUnits="userSpaceOnUse" viewBox="0 0 16 16"><rect class="cls-1" width="16" height="16"/><line class="cls-2" x1="1.98" y1="78.02" x2="67.98" y2="12.02"/><line class="cls-2" x1="-14.02" y1="78.02" x2="51.98" y2="12.02"/><line class="cls-2" x1="-30.02" y1="78.02" x2="35.98" y2="12.02"/><line class="cls-2" x1="-46.02" y1="78.02" x2="19.98" y2="12.02"/><line class="cls-2" x1="-62.02" y1="78.02" x2="3.98" y2="12.02"/><line class="cls-2" x1="1.98" y1="62.02" x2="67.98" y2="-3.98"/><line class="cls-2" x1="-14.02" y1="62.02" x2="51.98" y2="-3.98"/><line class="cls-2" x1="-30.02" y1="62.02" x2="35.98" y2="-3.98"/><line class="cls-2" x1="-46.02" y1="62.02" x2="19.98" y2="-3.98"/><line class="cls-2" x1="-62.02" y1="62.02" x2="3.98" y2="-3.98"/><line class="cls-2" x1="1.98" y1="46.02" x2="67.98" y2="-19.98"/><line class="cls-2" x1="-14.02" y1="46.02" x2="51.98" y2="-19.98"/><line class="cls-2" x1="-30.02" y1="46.02" x2="35.98" y2="-19.98"/><line class="cls-2" x1="-46.02" y1="46.02" x2="19.98" y2="-19.98"/><line class="cls-2" x1="-62.02" y1="46.02" x2="3.98" y2="-19.98"/><line class="cls-2" x1="1.98" y1="30.02" x2="67.98" y2="-35.98"/><line class="cls-2" x1="-14.02" y1="30.02" x2="51.98" y2="-35.98"/><line class="cls-2" x1="-30.02" y1="30.02" x2="35.98" y2="-35.98"/><line class="cls-2" x1="-46.02" y1="30.02" x2="19.98" y2="-35.98"/><line class="cls-2" x1="-62.02" y1="30.02" x2="3.98" y2="-35.98"/><line class="cls-2" x1="1.98" y1="14.02" x2="67.98" y2="-51.98"/><line class="cls-2" x1="-14.02" y1="14.02" x2="51.98" y2="-51.98"/><line class="cls-2" x1="-30.02" y1="14.02" x2="35.98" y2="-51.98"/><line class="cls-2" x1="-46.02" y1="14.02" x2="19.98" y2="-51.98"/><line class="cls-2" x1="-62.02" y1="14.02" x2="3.98" y2="-51.98"/></pattern></defs><title>Twitter</title><g id="Layer_2" data-name="Layer 2"><g id="Twitter"><g id="layer1"><path id="path3611" class="cls-3" d="M145,412.35c188.69,0,291.87-156.32,291.87-291.87q0-6.66-.29-13.26a209,209,0,0,0,39.13-36.85,5.79,5.79,0,0,0-6.28-9.17,205.89,205.89,0,0,1-36.21,8.48,1,1,0,0,1-.67-1.76,103.25,103.25,0,0,0,35-38.9,5.79,5.79,0,0,0-7.66-7.88,205.35,205.35,0,0,1-51.06,17.27A102.67,102.67,0,0,0,234,132,291.26,291.26,0,0,1,22.51,24.78a102.67,102.67,0,0,0,31.76,137A101.83,101.83,0,0,1,7.81,148.9c0,.43,0,.85,0,1.31a102.61,102.61,0,0,0,82.3,100.56,102.41,102.41,0,0,1-46.33,1.76,102.69,102.69,0,0,0,95.84,71.25A205.84,205.84,0,0,1,12.18,367.69H11.9c-6.11,0-8.19,8.21-2.79,11.06A290.1,290.1,0,0,0,145,412.35"/></g><path class="cls-4" d="M76.6,167.74C55.74,153.82,28.54,55,22.27,30c-2,8-27.11,48.22-2.36,90.42,4.28,7.29,12.08,20.86,14,28.73C46.81,155.6,61.28,167.26,76.6,167.74Z"/><path class="cls-4" d="M79.62,253.71a102.24,102.24,0,0,1-35.86-.51,102.88,102.88,0,0,0,39,52.8c27.31,12.89,53.72,24.62,70.73,11.29C131,316.88,96.35,266.38,79.62,253.71Z"/><path class="cls-4" d="M466.56,31.43a208.63,208.63,0,0,1-30,26.46c.12,2.57.19,5.14.23,7.72A103.32,103.32,0,0,0,466.56,31.43Z"/><path class="cls-4" d="M24.52,157a102.62,102.62,0,0,1-16.71-7.43c0,.43,0,.85,0,1.31,0,42.12,31,97.75,95,97.75-11.7-11.51-51.33-39.45-64.67-92"/><path class="cls-4" d="M469.39,61.87a205.61,205.61,0,0,1-32.57,7.93c0,.45,0,.9,0,1.35C436.83,206.7,333.65,363,145,363h0a291.27,291.27,0,0,1-62.8-6.81,206.44,206.44,0,0,1-70,12.15H11.9c-6.11,0-8.19,8.21-2.79,11.06A290.1,290.1,0,0,0,145,413h0c188.69,0,291.87-156.32,291.87-291.87q0-6.66-.29-13.26A209,209,0,0,0,475.67,71,5.79,5.79,0,0,0,469.39,61.87Z"/><circle class="cls-5" cx="359.33" cy="74.36" r="18.75"/></g></g></svg>