<svg width="1500" height="500" viewBox="0 0 1500 500" fill="none" xmlns="http://www.w3.org/2000/svg">
<g clip-path="url(#clip0)">
<rect width="1500" height="500" fill="black"/>
<path d="M1221.83 125.081C1221.83 125.344 1198.91 102.566 1191.8 71.6254C1193.78 69.1237 1199.7 63.5938 1201.68 61.0922C1197.86 58.9856 1191.8 59.6439 1189.17 58.8539C1188.25 51.8757 1189.3 38.051 1191.14 25.8062L1107.26 37.7876C1107.26 37.7876 1118.05 17.5113 1133.2 0H1008.88V496.374L1250.27 496.111V63.5938C1241.71 84.3968 1232.1 104.936 1221.83 125.081Z" fill="#00DAB0"/>
<path d="M1125.32 -7.93945L336.183 -0.000123501C336.183 0.826221 336.183 0.688497 336.045 0.1376C331.638 2.89208 313.597 11.2933 306.297 14.1855C308.363 15.0118 339.626 9.91602 339.902 11.5687C340.452 14.4609 341.417 17.2154 341.141 20.2453C341.003 21.7603 326.267 28.2333 321.171 30.5746C326.543 30.2992 337.56 29.1974 338.111 30.5746C340.866 38.8381 326.405 85.2512 310.429 99.5745C308.501 101.227 222.011 98.335 217.742 97.7841C218.155 99.0236 287.292 118.718 287.567 119.958C287.843 121.197 235.921 155.766 234.269 157.419C232.616 159.071 169.402 135.658 169.264 135.934C186.204 147.916 198.874 154.251 217.467 165.544C214.85 166.646 178.629 178.904 160.45 184.55V220.359C168.3 201.49 177.389 187.442 177.665 187.167C178.078 187.58 196.808 256.855 183.036 282.197C164.03 314.562 186.755 332.191 184.551 348.718C184.276 356.292 182.21 363.592 176.288 369.376C156.731 386.867 156.456 405.46 168.438 419.232C168.438 419.37 168.575 419.508 168.575 419.646C182.623 417.442 206.449 415.789 230.275 422.262L235.784 449.256L254.652 431.077C266.083 437.274 283.022 450.083 294.729 460.136L289.358 486.579L313.734 477.076L365.656 519.22L1125.32 530.513V-7.93945Z" fill="#00DAB0"/>
<path d="M1317.01 211.395C1305.55 199.308 1279.76 187.062 1260.34 179.11C1243.63 172.271 1228.19 162.728 1214.82 150.641C1180.43 120.265 1134.59 80.8227 1114.53 71.7574C1104.18 66.9862 1081.74 77.0057 1062.48 85.4349C1053.88 79.0733 1045.76 73.5069 1045.13 73.1888C1042.26 71.9165 990.846 65.2368 988.14 64.7596C933.699 53.6268 920.009 77.8009 909.344 108.178C909.026 109.291 897.565 128.217 881.169 156.208C874.801 161.138 873.369 208.373 873.846 212.508C873.687 214.258 858.883 236.046 854.426 264.514C852.198 278.51 839.622 288.529 825.614 287.098C814.153 285.985 781.998 273.102 778.177 271.671C775.79 270.717 773.243 271.83 772.128 274.375C771.173 276.601 771.492 279.464 773.084 281.532C773.243 281.691 773.402 281.85 773.561 282.168C794.096 316.52 828.32 329.88 863.34 327.335C864.773 342.762 859.679 358.984 852.834 372.98C843.602 391.746 816.222 389.043 810.81 368.845C810.81 368.686 810.81 368.686 810.651 368.527C807.149 355.008 791.23 335.605 789.161 334.174C788.206 333.538 768.945 333.379 767.353 333.538C748.251 335.605 769.741 324.631 769.263 320.974C770.218 322.405 772.288 325.745 781.361 324.791C788.524 323.995 786.137 314.771 785.341 312.544C783.908 308.727 765.284 307.773 762.737 307.137C760.031 306.66 747.933 319.224 746.341 320.496C740.61 325.109 754.937 337.673 757.643 339.104L757.961 339.263C771.333 346.738 781.043 359.461 784.704 374.252C795.21 417.67 825.455 431.507 853.471 431.507C923.671 431.507 935.291 372.662 952.005 338.786C969.197 347.056 985.115 346.261 999.283 336.082C1014.88 385.544 998.805 514.526 998.646 518.343C998.487 522 1007.4 572.893 1008.04 575.756C1008.52 577.665 1008.52 579.891 1008.04 581.641C1007.4 583.867 1001.51 594.046 1001.19 595C1030 595 1107.53 594.841 1108.64 594.682C1108.8 593.251 1089.54 549.514 1089.38 546.493C1089.22 542.358 1096.7 412.899 1096.7 412.899C1097.98 413.853 1142.23 452.5 1144.14 453.136C1144.62 456.794 1109.44 546.175 1109.76 548.719C1110.07 551.264 1139.68 562.715 1139.68 595H1257.48C1257.8 591.342 1330.86 330.198 1331.98 327.335C1347.26 289.643 1335.48 230.798 1317.01 211.395Z" fill="black"/>
<path d="M1181.71 290.915C1181.71 290.915 1116.28 341.808 1132.2 373.139C1132.2 373.139 1198.58 445.98 1173.43 487.807L1142.23 538.859L1165.15 563.033C1173.11 571.462 1176.61 578.301 1174.7 588.957L1203.83 577.983V574.484C1203.83 560.171 1195.24 546.811 1180.75 539.018L1216.57 449.956C1216.57 449.956 1160.38 353.1 1188.07 300.299L1181.71 290.915Z" fill="#C3C2C6"/>
<path d="M1206.22 184.04C1194.6 176.406 1148.28 134.897 1122.01 111.2C1111.67 101.816 1097.34 98.6356 1084.13 102.771C1084.45 103.089 1098.77 123.764 1098.61 129.648C1099.09 129.648 1089.86 136.964 1089.86 136.964C1078.71 129.489 1065.34 124.4 1049.11 122.651C1048.95 122.651 1044.81 143.485 1040.35 151.437L1030.64 151.596C1022.36 144.121 1016 113.585 1014.56 110.086C1013.93 108.496 980.817 92.7511 958.691 106.11C935.132 120.265 930.516 147.62 930.356 154.777V154.936C915.552 176.883 924.785 169.09 919.373 185.153C919.373 185.153 889.128 317.316 893.267 335.447C894.381 340.695 889.128 368.209 885.467 372.185L852.516 393.019C895.814 393.019 910.618 377.274 910.618 348.647C910.618 312.068 928.446 292.665 938.316 284.713C944.205 279.941 949.936 274.852 955.189 269.445L976.838 247.338L984.956 195.809C986.707 184.835 996.099 176.883 1007.08 176.883C1019.5 176.883 1029.53 186.903 1029.53 199.308V204.556H1005.17L1006.29 250.201C1031.44 256.085 1030.96 269.127 1030.96 269.127L1033.03 194.696L1060.57 152.232C1060.89 152.232 1061.05 152.073 1061.05 152.073C1063.59 158.912 1070.44 167.659 1068.53 175.611C1066.94 182.609 1048.79 205.511 1047.83 205.829C1052.61 240.818 1056.11 273.262 1061.05 309.841C1111.35 311.431 1152.42 274.693 1177.09 241.931C1180.11 237.796 1161.01 215.53 1165.47 210.441C1168.81 206.624 1189.35 224.755 1192.37 218.711C1199.38 204.874 1207.33 184.835 1206.22 184.04Z" fill="#C3C2C6"/>
<path d="M1027.62 393.019C1023.32 412.104 1018.54 529.158 1027.62 558.421C1034.3 544.107 1056.11 518.343 1056.11 493.214C1056.11 451.228 1047.2 420.056 1027.62 393.019Z" fill="#C3C2C6"/>
<path d="M976.997 100.862C938.793 100.862 930.993 147.938 928.764 154.777C926.854 160.82 904.728 181.814 906.797 189.288C908.071 194.219 911.732 199.785 911.732 203.125C911.891 206.942 902.022 211.236 897.087 214.417C893.585 221.415 882.601 243.68 886.263 254.177C887.854 258.789 894.063 260.379 894.222 264.037C894.54 267.695 887.695 270.399 884.989 275.647C881.646 282.327 885.785 318.747 887.695 335.446C890.561 360.098 852.357 392.86 852.357 392.86C856.018 392.86 859.361 392.701 862.544 392.542C884.83 385.862 900.589 365.346 900.589 341.49V293.142C900.589 276.602 908.23 261.016 921.442 250.837L933.699 241.295C945.479 232.229 952.324 218.393 952.324 203.602V165.432C952.324 139.191 973.654 117.879 999.919 117.879L976.997 100.862Z" fill="white"/>
<path d="M1014.09 278.351C1013.93 278.033 1013.77 277.874 1013.45 277.556C1000.08 261.97 988.617 261.334 979.544 275.965C977.315 279.623 974.45 282.645 971.585 285.826L970.63 286.939C956.781 301.889 941.181 292.506 923.193 281.691C920.805 280.259 918.418 278.828 915.871 277.397C914.279 276.443 913.165 277.556 913.005 279.941C912.846 282.009 913.642 284.713 914.916 286.621C915.075 286.78 915.234 287.098 915.393 287.257C946.752 326.381 975.405 336.242 998.327 315.566C1005.81 308.728 1011.7 299.026 1015.84 286.621C1016.16 285.508 1016.16 283.917 1015.68 282.168C1015.36 280.578 1014.72 279.305 1014.09 278.351Z" fill="white"/>
<path d="M1177.25 241.772C1178.84 239.545 1107.85 294.573 1080.47 281.691C1061.05 272.626 1058.66 233.661 1065.34 219.029C1068.21 212.826 1076.8 206.465 1078.4 199.785C1080.63 190.561 1069.96 169.727 1069.32 172.589C1067.73 179.587 1048.95 205.352 1047.99 205.67C1052.77 240.658 1056.27 273.103 1061.2 309.682C1111.51 311.272 1152.58 274.534 1177.25 241.772Z" fill="white"/>
<path d="M359.624 193L372.094 152.4H378.242L390.712 193H388.624L384.854 180.53H365.482L361.712 193H359.624ZM373.544 154.372L366.12 178.558H384.216L376.792 154.372H373.544ZM411.68 193H409.65V164H411.68V166.32C415.122 164.425 418.64 163.478 422.236 163.478C425.832 163.478 428.249 164.464 429.486 166.436C430.724 168.369 431.342 172.197 431.342 177.92V193H429.312V178.036C429.312 172.932 428.848 169.549 427.92 167.886C426.992 166.185 424.962 165.334 421.83 165.334C420.284 165.334 418.66 165.585 416.958 166.088C415.296 166.552 414 167.016 413.072 167.48L411.68 168.234V193ZM458.796 191.26L460.536 191.144L460.652 193C456.322 193.348 452.745 193.522 449.922 193.522C445.824 193.483 442.982 192.246 441.396 189.81C439.811 187.335 439.018 183.565 439.018 178.5C439.018 168.485 442.924 163.478 450.734 163.478C454.408 163.478 457.153 164.58 458.97 166.784C460.826 168.988 461.754 172.526 461.754 177.398V179.312H441.164C441.164 183.488 441.822 186.601 443.136 188.65C444.451 190.661 446.636 191.666 449.69 191.666C452.745 191.666 455.78 191.531 458.796 191.26ZM441.164 177.456H459.608C459.608 173.087 458.893 169.974 457.462 168.118C456.07 166.262 453.828 165.334 450.734 165.334C444.354 165.334 441.164 169.375 441.164 177.456ZM466.402 164H468.548L475.914 191.144H476.552L485.136 164.58H487.34L495.924 191.144H496.562L503.928 164H506.074L498.244 193H494.3L486.238 167.016L478.176 193H474.232L466.402 164ZM362.582 321V292H364.612V321H362.582ZM362.582 283.59V280.4H364.612V283.59H362.582ZM382.091 293.334C376.91 293.334 374.319 295.267 374.319 299.134C374.319 300.951 374.86 302.247 375.943 303.02C377.026 303.755 379.423 304.412 383.135 304.992C386.847 305.572 389.438 306.345 390.907 307.312C392.376 308.279 393.111 310.231 393.111 313.17C393.111 316.07 392.183 318.197 390.327 319.55C388.471 320.865 385.726 321.522 382.091 321.522C380.119 321.522 377.49 321.29 374.203 320.826L372.521 320.594L372.753 318.68C376.929 319.337 380.254 319.666 382.729 319.666C385.204 319.666 387.195 319.183 388.703 318.216C390.211 317.249 390.965 315.606 390.965 313.286C390.965 310.966 390.366 309.439 389.167 308.704C388.007 307.969 385.59 307.331 381.917 306.79C378.282 306.21 375.75 305.456 374.319 304.528C372.888 303.561 372.173 301.957 372.173 299.714C372.173 297.471 372.695 295.751 373.739 294.552C374.783 293.315 376.001 292.503 377.393 292.116C378.785 291.691 380.235 291.478 381.743 291.478C384.875 291.478 387.814 291.691 390.559 292.116L392.067 292.348L391.951 294.262C388.007 293.643 384.72 293.334 382.091 293.334ZM424.063 293.334C420.39 293.334 417.838 294.262 416.407 296.118C415.015 297.974 414.319 301.377 414.319 306.326C414.319 311.237 414.957 314.697 416.233 316.708C417.509 318.68 420.119 319.666 424.063 319.666L431.023 319.144L431.139 321C427.891 321.348 425.533 321.522 424.063 321.522C419.346 321.522 416.175 320.42 414.551 318.216C412.966 315.973 412.173 312.029 412.173 306.384C412.173 300.7 413.063 296.795 414.841 294.668C416.62 292.541 419.694 291.478 424.063 291.478L431.023 292.058L430.907 293.914C427.814 293.527 425.533 293.334 424.063 293.334ZM439.253 294.726C441.032 292.561 444.067 291.478 448.359 291.478C452.651 291.478 455.687 292.561 457.465 294.726C459.244 296.891 460.133 300.797 460.133 306.442C460.133 312.087 459.341 316.012 457.755 318.216C456.17 320.42 453.038 321.522 448.359 321.522C443.681 321.522 440.549 320.42 438.963 318.216C437.378 316.012 436.585 312.087 436.585 306.442C436.585 300.797 437.475 296.891 439.253 294.726ZM443.197 319.028C444.473 319.453 446.194 319.666 448.359 319.666C450.525 319.666 452.226 319.453 453.463 319.028C454.739 318.564 455.706 317.733 456.363 316.534C457.059 315.297 457.504 313.924 457.697 312.416C457.891 310.869 457.987 308.723 457.987 305.978C457.987 301.106 457.311 297.781 455.957 296.002C454.604 294.223 452.071 293.334 448.359 293.334C444.647 293.334 442.115 294.223 440.761 296.002C439.408 297.781 438.731 301.106 438.731 305.978C438.731 308.723 438.828 310.869 439.021 312.416C439.215 313.924 439.64 315.297 440.297 316.534C440.993 317.733 441.96 318.564 443.197 319.028ZM470.247 321H468.217V292H470.247V294.32C470.595 294.127 471.059 293.875 471.639 293.566C472.219 293.218 473.34 292.793 475.003 292.29C476.704 291.749 478.444 291.478 480.223 291.478C483.78 291.478 486.216 292.522 487.531 294.61C488.923 293.798 490.624 293.083 492.635 292.464C494.645 291.807 496.501 291.478 498.203 291.478C502.069 291.478 504.621 292.464 505.859 294.436C507.096 296.369 507.715 300.197 507.715 305.92V321H505.685V306.036C505.685 300.932 505.221 297.549 504.293 295.886C503.365 294.185 501.335 293.334 498.203 293.334C496.54 293.334 494.877 293.585 493.215 294.088C491.552 294.552 490.315 295.016 489.503 295.48L488.227 296.176C488.923 298.071 489.271 301.319 489.271 305.92V321H487.241V306.036C487.241 300.932 486.777 297.549 485.849 295.886C484.921 294.185 482.891 293.334 479.759 293.334C478.212 293.334 476.646 293.585 475.061 294.088C473.475 294.552 472.277 295.016 471.465 295.48L470.247 296.234V321ZM516.588 321V292H518.618V321H516.588ZM516.588 283.59V280.4H518.618V283.59H516.588ZM529.833 321H527.803V292H529.833V294.32C533.274 292.425 536.793 291.478 540.389 291.478C543.985 291.478 546.401 292.464 547.639 294.436C548.876 296.369 549.495 300.197 549.495 305.92V321H547.465V306.036C547.465 300.932 547.001 297.549 546.073 295.886C545.145 294.185 543.115 293.334 539.983 293.334C538.436 293.334 536.812 293.585 535.111 294.088C533.448 294.552 532.153 295.016 531.225 295.48L529.833 296.234V321ZM581.009 325.698C581.009 328.985 580.023 331.324 578.051 332.716C576.117 334.147 572.889 334.862 568.365 334.862C563.879 334.862 560.883 334.205 559.375 332.89C557.905 331.614 557.171 329.197 557.171 325.64C557.171 323.436 557.905 321.677 559.375 320.362C559.916 319.859 560.825 319.144 562.101 318.216C561.25 317.675 560.825 316.418 560.825 314.446C560.825 313.905 561.269 312.706 562.159 310.85L562.565 309.922C559.239 308.839 557.577 305.901 557.577 301.106C557.577 294.649 560.883 291.42 567.495 291.42C569.505 291.42 571.284 291.613 572.831 292L573.643 292.174L581.763 292V294.03H575.499C577.045 295.461 577.819 297.877 577.819 301.28C577.819 304.644 576.968 307.041 575.267 308.472C573.604 309.903 570.936 310.618 567.263 310.618C566.103 310.618 565.059 310.541 564.131 310.386C563.241 312.59 562.797 313.982 562.797 314.562C562.797 315.142 562.835 315.587 562.913 315.896C562.99 316.205 563.145 316.495 563.377 316.766C563.609 317.037 564.053 317.211 564.711 317.288C565.909 317.481 568.171 317.578 571.497 317.578C574.822 317.578 577.239 318.119 578.747 319.202C580.255 320.246 581.009 322.411 581.009 325.698ZM559.259 325.582C559.259 328.443 559.858 330.396 561.057 331.44C562.294 332.484 564.769 333.006 568.481 333.006C572.231 333.006 574.899 332.445 576.485 331.324C578.07 330.241 578.863 328.366 578.863 325.698C578.863 323.069 578.283 321.367 577.123 320.594C575.963 319.821 573.797 319.434 570.627 319.434L563.609 319.26C561.869 320.459 560.709 321.464 560.129 322.276C559.549 323.127 559.259 324.229 559.259 325.582ZM559.665 301.106C559.665 303.967 560.264 305.959 561.463 307.08C562.661 308.201 564.711 308.762 567.611 308.762C570.549 308.762 572.618 308.221 573.817 307.138C575.054 306.017 575.673 304.006 575.673 301.106C575.673 298.206 575.054 296.176 573.817 295.016C572.618 293.856 570.549 293.276 567.611 293.276C564.711 293.276 562.661 293.875 561.463 295.074C560.264 296.234 559.665 298.245 559.665 301.106Z" fill="black"/>
<path d="M397.949 220.352C387.698 220.352 379.321 228.606 379.321 238.846C379.321 249.086 387.635 257.34 397.949 257.34C408.264 257.34 416.577 249.086 416.577 238.846C416.577 228.606 408.201 220.352 397.949 220.352ZM397.949 248.775C392.386 248.775 387.885 244.307 387.885 238.784C387.885 233.26 392.386 228.792 397.949 228.792C403.513 228.792 408.013 233.26 408.013 238.784C408.013 244.307 403.513 248.775 397.949 248.775Z" fill="black"/>
<path d="M581.157 257.34C575.786 257.34 571.351 255.537 567.978 251.931C564.792 248.512 563.231 244.099 563.231 238.815C563.231 233.531 564.855 229.179 567.978 225.76C571.351 222.154 575.786 220.352 581.157 220.352C586.529 220.352 590.964 222.154 594.337 225.76C597.522 229.179 599.084 233.593 599.084 238.877C599.084 244.161 597.46 248.512 594.337 251.931C590.964 255.475 586.529 257.34 581.157 257.34ZM581.157 227.625C577.972 227.625 575.536 228.682 573.724 230.857C571.913 232.971 571.039 235.582 571.039 238.815C571.039 242.109 571.913 244.658 573.724 246.772C575.536 248.948 577.972 250.004 581.157 250.004C584.343 250.004 586.779 248.948 588.59 246.772C590.402 244.658 591.276 242.047 591.276 238.815C591.276 235.582 590.402 232.971 588.59 230.857C586.779 228.682 584.343 227.625 581.157 227.625Z" fill="black"/>
<path d="M421.681 269.845L428.421 254.904L414.255 220.928H422.867L432.603 245.604L442.526 220.928H451.075L430.231 269.845H421.681Z" fill="black"/>
<path d="M465.627 257.339C460.886 257.339 457.019 256.097 454.149 253.674C451.467 251.5 449.97 248.581 449.783 245.04L449.721 243.549H457.705L457.83 244.792C458.079 247.276 459.451 248.891 462.071 249.761C463.069 250.072 464.067 250.196 465.065 250.196C466.126 250.196 467.124 250.134 468.059 250.009C468.932 249.885 469.806 249.699 470.617 249.388C472.613 248.581 472.924 247.4 472.924 246.407C472.924 245.475 472.613 244.916 471.926 244.419C470.991 243.798 469.743 243.239 468.246 242.804C466.625 242.369 464.878 241.934 463.007 241.561C461.011 241.189 459.139 240.63 457.393 239.946C455.584 239.201 454.025 238.207 452.777 236.903C451.467 235.474 450.781 233.548 450.781 231.188C450.781 227.709 452.091 225.038 454.648 223.05C457.081 221.187 460.636 220.255 465.252 220.255C469.619 220.255 473.174 221.373 475.794 223.485C478.039 225.349 479.349 227.833 479.661 230.877L479.848 232.43H471.989L471.802 231.188C471.615 229.51 470.617 227.274 464.878 227.274C458.64 227.274 458.64 229.697 458.64 230.629C458.64 231.436 458.952 232.057 459.638 232.43C460.574 233.051 461.822 233.548 463.319 233.921C464.94 234.356 466.687 234.728 468.558 235.101C470.554 235.474 472.488 236.033 474.172 236.778C475.981 237.524 477.54 238.58 478.788 239.946C480.098 241.375 480.784 243.363 480.784 245.785C480.784 249.45 479.349 252.37 476.542 254.296C473.673 256.408 470.055 257.339 465.627 257.339Z" fill="black"/>
<path d="M487.729 256.763V228.068H480.977V220.863H487.729V209H495.607V220.863H503.234V228.068H495.607V256.763H487.729Z" fill="black"/>
<path d="M505.847 256.749V220.848H513.67V225.072C514.985 223.643 516.612 222.463 518.615 221.532C520.242 220.724 522.245 220.352 524.561 220.352H526.313V228.115H524.311C521.119 228.115 518.615 229.358 516.612 231.904C514.672 234.389 513.733 237.308 513.733 240.848V256.811H505.847V256.749Z" fill="black"/>
<path d="M544.204 257.34C538.825 257.34 534.322 255.537 530.882 251.931C527.567 248.45 525.878 244.037 525.878 238.815C525.878 233.593 527.504 229.179 530.631 225.76C534.009 222.154 538.45 220.352 543.829 220.352C549.208 220.352 553.648 222.154 557.026 225.76C560.216 229.179 561.779 233.593 561.779 238.877V242.296H534.134C534.634 244.347 535.635 246.026 537.074 247.393C538.95 249.196 541.264 250.067 544.204 250.067C548.144 250.067 550.896 248.512 552.585 245.28L552.96 244.534H561.341L560.591 246.461C559.34 249.694 557.339 252.367 554.587 254.356C551.96 256.283 548.457 257.34 544.204 257.34ZM553.461 234.774C552.96 232.909 552.022 231.355 550.646 230.112C548.832 228.433 546.581 227.625 543.891 227.625C541.139 227.625 538.95 228.433 537.136 230.112C535.76 231.355 534.885 232.909 534.322 234.774H553.461Z" fill="black"/>
<path d="M649.128 256.763V235.549C649.128 233.13 648.504 231.269 647.129 229.718C645.817 228.353 644.256 227.671 642.256 227.671C640.07 227.671 638.321 228.353 636.946 229.718C635.447 231.145 634.697 233.068 634.697 235.611V256.763H626.888V235.549C626.888 233.13 626.263 231.269 624.889 229.718C623.577 228.353 622.015 227.671 620.016 227.671C617.83 227.671 616.08 228.353 614.706 229.718C613.207 231.145 612.457 233.068 612.457 235.611V256.763H604.648V220.91H612.457V223.391C614.769 221.406 617.642 220.352 621.141 220.352C623.64 220.352 625.951 221.034 628.075 222.336C629.512 223.267 630.762 224.383 631.824 225.81C633.448 223.763 635.634 222.212 638.321 221.158C639.758 220.6 641.382 220.352 643.194 220.352C645.005 220.352 646.755 220.724 648.441 221.406C650.066 222.088 651.565 223.143 652.877 224.445C655.626 227.361 657 231.021 657 235.363V256.763H649.128Z" fill="black"/>
<path d="M503.186 220.977H480.88V227.855H503.186V220.977Z" fill="black"/>
<path d="M376.017 220.928H356V227.878H368.26V256.419C368.26 258.715 366.822 260.762 364.695 261.569L359.753 263.492L361.88 271L369.324 268.146C371.826 267.153 373.89 265.292 375.079 262.81C375.767 261.383 376.08 259.894 376.08 258.28V220.928H376.017Z" fill="black"/>
<path d="M599.035 220.977H591.342V256.715H599.035V220.977Z" fill="black"/>
</g>
<defs>
<clipPath id="clip0">
<rect width="1500" height="500" fill="white"/>
</clipPath>
</defs>
</svg>
