<svg width="975" height="144" viewBox="0 0 975 144" fill="none" xmlns="http://www.w3.org/2000/svg">
<g clip-path="url(#clip0)">
<path d="M391.608 28.7546C368.559 28.7546 349.617 47.696 349.617 70.9734C349.617 94.2508 368.33 113.192 391.608 113.192C414.885 113.192 433.598 94.2508 433.598 70.9734C433.598 47.696 414.657 28.7546 391.608 28.7546ZM391.608 93.7944C379.056 93.7944 369.015 83.525 369.015 70.9734C369.015 58.4219 379.056 48.1525 391.608 48.1525C404.159 48.1525 414.201 58.4219 414.201 70.9734C414.201 83.525 404.159 93.7944 391.608 93.7944Z" fill="white"/>
<path d="M804.211 113.192C792.116 113.192 782.075 109.084 774.544 100.869C767.469 93.1098 763.818 83.0685 763.818 70.9734C763.818 58.8783 767.469 49.0653 774.544 41.078C782.075 32.8624 792.116 28.7546 804.211 28.7546C816.306 28.7546 826.347 32.8624 833.878 41.078C840.953 48.8371 844.604 58.8783 844.604 70.9734C844.604 83.0685 840.953 92.8816 833.878 100.869C826.347 109.084 816.306 113.192 804.211 113.192ZM804.211 45.4139C797.136 45.4139 791.659 47.9243 787.552 52.7167C783.444 57.5091 781.618 63.4425 781.618 70.9734C781.618 78.5043 783.672 84.2096 787.552 89.2302C791.659 94.2508 797.136 96.5329 804.211 96.5329C811.285 96.5329 816.763 94.0226 820.87 89.2302C824.978 84.4378 826.804 78.5043 826.804 70.9734C826.804 63.6707 824.75 57.7373 820.87 52.7167C816.763 47.9243 811.285 45.4139 804.211 45.4139Z" fill="white"/>
<path d="M445.009 141.718L460.071 107.715L428.121 30.1233H447.519L469.427 86.4911L491.792 30.1233H510.961L463.95 141.718H445.009Z" fill="white"/>
<path d="M544.052 113.192C533.326 113.192 524.654 110.454 518.264 104.748C512.331 99.7279 508.908 93.1098 508.451 85.1224L508.223 81.6993H526.252L526.48 84.4378C526.936 90.143 530.131 93.7944 536.065 95.8483C538.347 96.5329 540.629 96.7611 542.911 96.7611C545.193 96.7611 547.475 96.5329 549.757 96.3047C551.811 96.0765 553.637 95.6201 555.462 94.9354C560.027 93.1098 560.711 90.3713 560.711 88.0892C560.711 86.0353 560.027 84.666 558.429 83.525C556.375 82.1557 553.409 80.7864 550.214 79.8736C546.562 78.9608 542.683 77.8197 538.347 77.1351C533.783 76.2223 529.675 75.0812 525.795 73.4837C521.687 71.8863 518.264 69.6042 515.298 66.6374C512.331 63.4425 510.733 58.8783 510.733 53.6295C510.733 45.6422 513.7 39.4805 519.405 35.1445C524.882 30.8085 532.87 28.7546 543.367 28.7546C553.18 28.7546 561.168 31.2649 567.101 36.0573C572.122 40.3933 575.088 45.8704 575.773 52.9449L576.23 56.5962H558.429L557.973 53.8577C557.516 49.9781 555.234 44.9575 542.454 44.9575C528.305 44.9575 528.305 50.4346 528.305 52.7167C528.305 54.5423 528.99 55.9116 530.588 56.8244C532.641 58.1937 535.608 59.3347 538.803 60.2476C542.454 61.1604 546.334 62.0733 550.67 62.9861C555.234 63.8989 559.57 65.04 563.222 66.8657C567.329 68.4631 570.752 70.9734 573.719 74.1684C576.686 77.3633 578.283 81.9275 578.283 87.4045C578.283 95.8483 575.088 102.466 568.699 106.802C562.081 111.138 554.093 113.192 544.052 113.192Z" fill="white"/>
<path d="M593.802 112.051V46.5549H578.512V30.1238H593.802V2.9668H611.602V30.1238H628.718V46.5549H611.602V112.051H593.802Z" fill="white"/>
<path d="M634.651 111.823V29.8957H652.223V39.4805C655.19 36.2856 658.841 33.547 663.406 31.4932C667.057 29.6675 671.621 28.7546 676.87 28.7546H680.749V46.555H676.185C668.883 46.555 663.406 49.2935 658.841 55.227C654.505 60.9322 652.451 67.5503 652.451 75.5376V112.051L634.651 111.823Z" fill="white"/>
<path d="M720.914 113.192C708.819 113.192 698.55 109.084 691.019 100.869C683.488 92.8816 679.837 82.8403 679.837 70.9734C679.837 59.1065 683.488 49.0653 690.563 41.078C698.093 32.8624 708.135 28.7546 720.23 28.7546C732.325 28.7546 742.366 32.8624 749.897 41.078C756.972 48.8371 760.623 58.8783 760.623 70.9734V78.7326H698.322C699.463 83.525 701.745 87.1763 704.94 90.3713C709.276 94.479 714.296 96.5329 720.914 96.5329C729.815 96.5329 735.976 92.8816 739.856 85.5788L740.769 83.9814H759.71L758.113 88.3174C755.374 95.6201 750.81 101.782 744.648 106.346C738.487 110.91 730.499 113.192 720.914 113.192ZM741.91 61.845C740.769 57.5091 738.715 54.0859 735.52 51.1192C731.412 47.2396 726.391 45.4139 720.23 45.4139C714.068 45.4139 709.048 47.2396 704.94 51.1192C701.745 53.8577 699.919 57.5091 698.55 61.845H741.91Z" fill="white"/>
<path d="M957.111 112.051V63.4421C957.111 57.965 955.742 53.6291 952.547 50.2059C949.581 47.011 946.157 45.6417 941.593 45.6417C936.573 45.6417 932.693 47.2392 929.726 50.2059C926.303 53.4009 924.706 57.7368 924.706 63.6703V112.051H907.134V63.4421C907.134 57.965 905.764 53.6291 902.569 50.2059C899.603 47.011 896.18 45.6417 891.615 45.6417C886.595 45.6417 882.715 47.2392 879.748 50.2059C876.325 53.4009 874.728 57.7368 874.728 63.6703V112.051H857.156V30.1235H874.728V35.8287C879.977 31.2645 886.366 28.9824 894.354 28.9824C900.059 28.9824 905.08 30.5799 909.872 33.5466C913.067 35.6005 915.806 38.1108 918.316 41.534C921.967 36.9698 926.988 33.3184 932.921 30.8081C936.116 29.4388 939.768 28.9824 943.875 28.9824C947.983 28.9824 951.863 29.8953 955.742 31.4927C959.394 33.0902 962.817 35.3723 965.783 38.339C971.945 44.9571 975.14 53.4009 975.14 63.2139V112.051H957.111Z" fill="white"/>
<path d="M628.489 30.3521H578.283V46.0985H628.489V30.3521Z" fill="white"/>
<path d="M342.315 30.1233H297.129V45.8698H324.742V110.91C324.742 116.158 321.547 120.723 316.755 122.548L305.573 126.884L310.365 144L327.024 137.382C332.73 135.1 337.294 130.764 340.032 125.287C341.63 122.092 342.315 118.669 342.315 115.017V30.1233Z" fill="white"/>
<path d="M844.376 30.3521H827.032V111.823H844.376V30.3521Z" fill="white"/>
<path d="M148.108 26.0156C125.059 26.0156 106.118 44.957 106.118 68.2344C106.118 91.5118 124.831 110.453 148.108 110.453C171.386 110.453 190.099 91.5118 190.099 68.2344C190.099 44.7288 171.157 26.0156 148.108 26.0156ZM148.108 90.8272C135.557 90.8272 125.515 80.5577 125.515 68.0062C125.515 55.4547 135.557 45.1852 148.108 45.1852C160.66 45.1852 170.701 55.4547 170.701 68.0062C170.701 80.5577 160.66 90.8272 148.108 90.8272Z" fill="#979797"/>
<path d="M84.4376 109.084V0H102.238V109.084H84.4376Z" fill="#979797"/>
<path d="M69.8322 38.3392C62.3012 30.1237 52.26 26.0159 40.1649 26.0159C31.2647 26.0159 23.7338 28.298 17.3439 32.634V0H0V108.856H17.3439V103.607C23.7338 107.943 31.4929 110.225 40.1649 110.225C52.26 110.225 62.3012 106.118 69.8322 97.902C76.9067 90.1428 80.558 80.1016 80.558 68.0065C80.558 55.9114 76.9067 46.0984 69.8322 38.3392ZM57.0524 86.2633C52.9446 91.2839 47.4676 93.566 40.3931 93.566C33.3186 93.566 27.8416 91.0557 23.7338 86.2633C19.626 81.4709 17.5721 75.5374 17.5721 68.0065C17.5721 60.7038 19.626 54.7703 23.7338 49.7497C27.8416 44.7291 33.3186 42.447 40.3931 42.447C47.4676 42.447 52.9446 44.9573 57.0524 49.7497C61.1602 54.5421 63.2141 60.4756 63.2141 68.0065C62.9859 75.5374 61.1602 81.4709 57.0524 86.2633Z" fill="#979797"/>
<path d="M259.474 25.7878V34.2316C252.628 29.211 243.956 26.0161 234.828 26.0161C211.779 26.0161 192.837 44.9575 192.837 68.2348C192.837 91.5122 211.55 110.454 234.828 110.454C244.184 110.454 252.628 107.487 259.474 102.238C259.474 114.561 249.433 124.374 237.338 124.374H213.604V142.175H238.251C259.703 142.175 277.275 124.603 277.275 103.151V25.7878H259.474ZM234.828 90.8276C222.276 90.8276 212.235 80.5582 212.235 68.0066C212.235 55.4551 222.276 45.1857 234.828 45.1857C247.379 45.1857 257.421 55.4551 257.421 68.0066C257.421 80.5582 247.379 90.8276 234.828 90.8276Z" fill="#979797"/>
</g>
<defs>
<clipPath id="clip0">
<rect width="975" height="144" fill="white"/>
</clipPath>
</defs>
</svg>
