<svg xmlns="http://www.w3.org/2000/svg" xmlns:xlink="http://www.w3.org/1999/xlink" viewBox="0 0 568.79 488.82"><defs><style>.cls-1,.cls-2,.cls-3,.cls-4,.cls-7,.cls-8{fill:none;}.cls-10,.cls-2,.cls-3,.cls-4,.cls-5,.cls-6,.cls-7,.cls-8,.cls-9{stroke:#4038ff;}.cls-10,.cls-2,.cls-3,.cls-4{stroke-linecap:square;}.cls-2,.cls-4,.cls-5,.cls-6,.cls-7,.cls-8,.cls-9{stroke-miterlimit:10;}.cls-2{stroke-width:2px;}.cls-10,.cls-3{stroke-linejoin:bevel;}.cls-10,.cls-3,.cls-4,.cls-5,.cls-6,.cls-7,.cls-8,.cls-9{stroke-width:12px;}.cls-5,.cls-6{fill:#fff;}.cls-5,.cls-7,.cls-9{fill-rule:evenodd;}.cls-10,.cls-9{fill:url(#lines);}</style><pattern id="lines" data-name="lines" width="16" height="16" patternTransform="translate(176)" patternUnits="userSpaceOnUse" viewBox="0 0 16 16"><rect class="cls-1" width="16" height="16"/><line class="cls-2" x1="1.98" y1="78.02" x2="67.98" y2="12.02"/><line class="cls-2" x1="-14.02" y1="78.02" x2="51.98" y2="12.02"/><line class="cls-2" x1="-30.02" y1="78.02" x2="35.98" y2="12.02"/><line class="cls-2" x1="-46.02" y1="78.02" x2="19.98" y2="12.02"/><line class="cls-2" x1="-62.02" y1="78.02" x2="3.98" y2="12.02"/><line class="cls-2" x1="1.98" y1="62.02" x2="67.98" y2="-3.98"/><line class="cls-2" x1="-14.02" y1="62.02" x2="51.98" y2="-3.98"/><line class="cls-2" x1="-30.02" y1="62.02" x2="35.98" y2="-3.98"/><line class="cls-2" x1="-46.02" y1="62.02" x2="19.98" y2="-3.98"/><line class="cls-2" x1="-62.02" y1="62.02" x2="3.98" y2="-3.98"/><line class="cls-2" x1="1.98" y1="46.02" x2="67.98" y2="-19.98"/><line class="cls-2" x1="-14.02" y1="46.02" x2="51.98" y2="-19.98"/><line class="cls-2" x1="-30.02" y1="46.02" x2="35.98" y2="-19.98"/><line class="cls-2" x1="-46.02" y1="46.02" x2="19.98" y2="-19.98"/><line class="cls-2" x1="-62.02" y1="46.02" x2="3.98" y2="-19.98"/><line class="cls-2" x1="1.98" y1="30.02" x2="67.98" y2="-35.98"/><line class="cls-2" x1="-14.02" y1="30.02" x2="51.98" y2="-35.98"/><line class="cls-2" x1="-30.02" y1="30.02" x2="35.98" y2="-35.98"/><line class="cls-2" x1="-46.02" y1="30.02" x2="19.98" y2="-35.98"/><line class="cls-2" x1="-62.02" y1="30.02" x2="3.98" y2="-35.98"/><line class="cls-2" x1="1.98" y1="14.02" x2="67.98" y2="-51.98"/><line class="cls-2" x1="-14.02" y1="14.02" x2="51.98" y2="-51.98"/><line class="cls-2" x1="-30.02" y1="14.02" x2="35.98" y2="-51.98"/><line class="cls-2" x1="-46.02" y1="14.02" x2="19.98" y2="-51.98"/><line class="cls-2" x1="-62.02" y1="14.02" x2="3.98" y2="-51.98"/></pattern></defs><title>Announcing</title><g id="Layer_2" data-name="Layer 2"><g id="Announcing"><path class="cls-3" d="M341.38,102.25c-7.85,5.68-16,10.85-32.61,18.39-40.47,18.37-89.33,23.8-84.83,22.82"/><ellipse class="cls-4" cx="404.96" cy="170.06" rx="22.64" ry="165.07" transform="translate(-16.47 46.34) rotate(-6.42)"/><path class="cls-4" d="M74.27,283A62.81,62.81,0,0,1,10,225.36L6.22,180.08a62.81,62.81,0,0,1,57.44-67.77L229.9,94.58l1,3c-6.87,9.09-8.17,44.57-2.57,86.13a412.24,412.24,0,0,0,8.51,45.25"/><path class="cls-4" d="M56.73,156.54c4.18,3.71,8.2,20.66,9.49,41.19,1.21,19.38-.41,35.9-3.69,41.23"/><polygon class="cls-5" points="189.42 455.76 189.42 455.75 189.42 455.75 189.42 455.76"/><line class="cls-6" x1="264.13" y1="474.89" x2="229.62" y2="482.09"/><path id="Rectangle-Copy-21" class="cls-7" d="M261.26,275.41a22.46,22.46,0,0,0,.67,44.92l32.6-.49a22.46,22.46,0,0,0-.67-44.91Z"/><path id="Rectangle-Copy-23" class="cls-7" d="M256,365.3a22.11,22.11,0,0,0,.66,44.21l44.6-.67a22.1,22.1,0,0,0-.66-44.2Z"/><path id="Rectangle-Copy-22" class="cls-7" d="M253,321a22.41,22.41,0,0,0,.66,44.82l49.23-.73a22.42,22.42,0,0,0-.67-44.83Z"/><path id="Rectangle-Copy-24" class="cls-7" d="M267.88,409.17a22.1,22.1,0,0,0,.66,44.19l28.12-.42a22.09,22.09,0,0,0-.65-44.18Z"/><path id="Line-2" class="cls-8" d="M102.8,436.91,33.41,452.65"/><path id="Line-2-Copy-3" class="cls-8" d="M73.47,296.74l-59.41,6.17"/><path id="Line-2-Copy-3-2" data-name="Line-2-Copy-3" class="cls-8" d="M88.29,360.46l-36.2,5"/><path id="Path-8" class="cls-8" d="M189.43,455.78,163.15,327.7c-2.72-6.86-1-14.64,4.06-16.1l64.37-17.23q25.83-18.51,23.51-42.18c-.88-9-5.72-14.08-11.25-19.24l-48,12.3-78.34.14s-53.16,12.08-43,71.49q5.35,26.4,20.72,41.72-13.6,23.44-9.46,53A48.92,48.92,0,0,0,99,439a56.1,56.1,0,0,0,41.4,17.24l49.07-.45"/><path class="cls-4" d="M133.6,358c14.93-5.28,28.72-18,28.36-31.78"/><path class="cls-9" d="M268.54,453.36a21.76,21.76,0,0,1-18.69-10.19l-60.42,12.61a34,34,0,0,0,40.19,26.31l34.51-7.2a33.93,33.93,0,0,0,25.06-21.84Z"/><path class="cls-8" d="M378.14,133.53c23.82-2.79,45.44,14.68,48.29,39s-14.15,46.33-38,49.11"/><path id="Line-2-Copy-3-3" data-name="Line-2-Copy-3" class="cls-8" d="M223.94,143.46l-88.29,10.25"/><path class="cls-10" d="M379.68,14.49c-8.68,9.17-17.84,17.69-37.1,30.87-48.17,33-112.68,49.22-112.68,49.22-11.2,39.27-6.53,84,4.25,131.27.69,3,1.4,6,2.13,9l7.56-1.94c5.53,5.16,10.37,10.25,11.25,19.24.92,9.37-1.5,18.12-7.19,26.27.14.48.28,1,.41,1.43a22,22,0,0,1,12.95-4.48l32.6-.48a22.28,22.28,0,0,1,22.42,20.64q4.19.65,8.49,1.41a304.24,304.24,0,0,1,42.39,10.58,238.93,238.93,0,0,1,48.07,21.89C379.68,229.46,369.8,90.48,379.68,14.49Z"/><path class="cls-8" d="M451.6,87.6a97.47,97.47,0,0,1,23.33,153.73"/><path class="cls-8" d="M483.61,39.16a151.26,151.26,0,0,1,36.21,238.57"/></g></g></svg>