<svg xmlns="http://www.w3.org/2000/svg" xmlns:xlink="http://www.w3.org/1999/xlink" viewBox="0 0 770.99 432.7"><defs><style>.cls-1,.cls-2,.cls-4,.cls-7{fill:none;}.cls-2,.cls-3,.cls-4,.cls-5,.cls-6,.cls-7{stroke:#4038ff;}.cls-2{stroke-linecap:square;stroke-width:2px;}.cls-2,.cls-4,.cls-5{stroke-miterlimit:10;}.cls-3,.cls-6,.cls-7{stroke-linecap:round;stroke-linejoin:round;}.cls-3,.cls-4,.cls-5,.cls-6,.cls-7{stroke-width:12px;}.cls-3,.cls-5{fill:url(#lines);}.cls-6{fill:#fff;}</style><pattern id="lines" data-name="lines" width="16" height="16" patternUnits="userSpaceOnUse" viewBox="0 0 16 16"><rect class="cls-1" width="16" height="16"/><line class="cls-2" x1="1.98" y1="78.02" x2="67.98" y2="12.02"/><line class="cls-2" x1="-14.02" y1="78.02" x2="51.98" y2="12.02"/><line class="cls-2" x1="-30.02" y1="78.02" x2="35.98" y2="12.02"/><line class="cls-2" x1="-46.02" y1="78.02" x2="19.98" y2="12.02"/><line class="cls-2" x1="-62.02" y1="78.02" x2="3.98" y2="12.02"/><line class="cls-2" x1="1.98" y1="62.02" x2="67.98" y2="-3.98"/><line class="cls-2" x1="-14.02" y1="62.02" x2="51.98" y2="-3.98"/><line class="cls-2" x1="-30.02" y1="62.02" x2="35.98" y2="-3.98"/><line class="cls-2" x1="-46.02" y1="62.02" x2="19.98" y2="-3.98"/><line class="cls-2" x1="-62.02" y1="62.02" x2="3.98" y2="-3.98"/><line class="cls-2" x1="1.98" y1="46.02" x2="67.98" y2="-19.98"/><line class="cls-2" x1="-14.02" y1="46.02" x2="51.98" y2="-19.98"/><line class="cls-2" x1="-30.02" y1="46.02" x2="35.98" y2="-19.98"/><line class="cls-2" x1="-46.02" y1="46.02" x2="19.98" y2="-19.98"/><line class="cls-2" x1="-62.02" y1="46.02" x2="3.98" y2="-19.98"/><line class="cls-2" x1="1.98" y1="30.02" x2="67.98" y2="-35.98"/><line class="cls-2" x1="-14.02" y1="30.02" x2="51.98" y2="-35.98"/><line class="cls-2" x1="-30.02" y1="30.02" x2="35.98" y2="-35.98"/><line class="cls-2" x1="-46.02" y1="30.02" x2="19.98" y2="-35.98"/><line class="cls-2" x1="-62.02" y1="30.02" x2="3.98" y2="-35.98"/><line class="cls-2" x1="1.98" y1="14.02" x2="67.98" y2="-51.98"/><line class="cls-2" x1="-14.02" y1="14.02" x2="51.98" y2="-51.98"/><line class="cls-2" x1="-30.02" y1="14.02" x2="35.98" y2="-51.98"/><line class="cls-2" x1="-46.02" y1="14.02" x2="19.98" y2="-51.98"/><line class="cls-2" x1="-62.02" y1="14.02" x2="3.98" y2="-51.98"/></pattern></defs><title>Node-network</title><g id="Layer_2" data-name="Layer 2"><g id="Node-network"><path class="cls-3" d="M363.53,227a75.4,75.4,0,0,1,0-150.79"/><path class="cls-4" d="M738.92,18.19H391.25a26.08,26.08,0,0,0-26.07,26.08V287.63H765V44.27A26.08,26.08,0,0,0,738.92,18.19Z"/><path class="cls-4" d="M415.25,349.56H738.92A26.07,26.07,0,0,0,765,323.49V287.63H365.18v26.86"/><rect class="cls-4" x="404.93" y="54.26" width="320.31" height="197.31"/><path class="cls-4" d="M660.69,426.7H469.48a34.77,34.77,0,0,1,34.76-34.77H625.93a34.77,34.77,0,0,1,34.76,34.77Z"/><polygon class="cls-5" points="615.99 391.93 611.03 349.56 519.14 349.56 514.18 391.93 615.99 391.93"/><line class="cls-6" x1="236.5" y1="231.04" x2="299.6" y2="191.62"/><line class="cls-6" x1="236.5" y1="288.29" x2="317.75" y2="339.06"/><line class="cls-6" x1="146.52" y1="290.92" x2="65.27" y2="341.69"/><circle class="cls-7" cx="36.75" cy="359.36" r="30.75"/><line class="cls-6" x1="146.52" y1="226.26" x2="65.27" y2="175.49"/><circle class="cls-7" cx="36.75" cy="157.81" r="30.75"/><circle class="cls-7" cx="363.53" cy="367.69" r="54.01"/><line class="cls-6" x1="303.83" y1="99.91" x2="240.74" y2="60.5"/><circle class="cls-3" cx="211.44" cy="41.13" r="35.13"/><circle class="cls-7" cx="190.7" cy="259.67" r="54.01"/></g></g></svg>