<svg xmlns="http://www.w3.org/2000/svg" xmlns:xlink="http://www.w3.org/1999/xlink" viewBox="0 0 815.42 599.37"><defs><style>.cls-1,.cls-2,.cls-3,.cls-7{fill:none;}.cls-2,.cls-3,.cls-4,.cls-6,.cls-7{stroke:#4038ff;stroke-miterlimit:10;}.cls-2,.cls-7{stroke-linecap:square;}.cls-2{stroke-width:2px;}.cls-3,.cls-4,.cls-6,.cls-7{stroke-width:12px;}.cls-4,.cls-5{fill:url(#lines);}.cls-6{fill:#fff;}</style><pattern id="lines" data-name="lines" width="16" height="16" patternTransform="translate(160)" patternUnits="userSpaceOnUse" viewBox="0 0 16 16"><rect class="cls-1" width="16" height="16"/><line class="cls-2" x1="1.98" y1="78.02" x2="67.98" y2="12.02"/><line class="cls-2" x1="-14.02" y1="78.02" x2="51.98" y2="12.02"/><line class="cls-2" x1="-30.02" y1="78.02" x2="35.98" y2="12.02"/><line class="cls-2" x1="-46.02" y1="78.02" x2="19.98" y2="12.02"/><line class="cls-2" x1="-62.02" y1="78.02" x2="3.98" y2="12.02"/><line class="cls-2" x1="1.98" y1="62.02" x2="67.98" y2="-3.98"/><line class="cls-2" x1="-14.02" y1="62.02" x2="51.98" y2="-3.98"/><line class="cls-2" x1="-30.02" y1="62.02" x2="35.98" y2="-3.98"/><line class="cls-2" x1="-46.02" y1="62.02" x2="19.98" y2="-3.98"/><line class="cls-2" x1="-62.02" y1="62.02" x2="3.98" y2="-3.98"/><line class="cls-2" x1="1.98" y1="46.02" x2="67.98" y2="-19.98"/><line class="cls-2" x1="-14.02" y1="46.02" x2="51.98" y2="-19.98"/><line class="cls-2" x1="-30.02" y1="46.02" x2="35.98" y2="-19.98"/><line class="cls-2" x1="-46.02" y1="46.02" x2="19.98" y2="-19.98"/><line class="cls-2" x1="-62.02" y1="46.02" x2="3.98" y2="-19.98"/><line class="cls-2" x1="1.98" y1="30.02" x2="67.98" y2="-35.98"/><line class="cls-2" x1="-14.02" y1="30.02" x2="51.98" y2="-35.98"/><line class="cls-2" x1="-30.02" y1="30.02" x2="35.98" y2="-35.98"/><line class="cls-2" x1="-46.02" y1="30.02" x2="19.98" y2="-35.98"/><line class="cls-2" x1="-62.02" y1="30.02" x2="3.98" y2="-35.98"/><line class="cls-2" x1="1.98" y1="14.02" x2="67.98" y2="-51.98"/><line class="cls-2" x1="-14.02" y1="14.02" x2="51.98" y2="-51.98"/><line class="cls-2" x1="-30.02" y1="14.02" x2="35.98" y2="-51.98"/><line class="cls-2" x1="-46.02" y1="14.02" x2="19.98" y2="-51.98"/><line class="cls-2" x1="-62.02" y1="14.02" x2="3.98" y2="-51.98"/></pattern></defs><title>Staking</title><g id="Layer_2" data-name="Layer 2"><g id="Staking"><path class="cls-3" d="M326.4,293.1a89.47,89.47,0,1,0,89.46,89.46A89.56,89.56,0,0,0,326.4,293.1ZM360.29,405a40.39,40.39,0,0,0,0-44.77l23.25-23.24a72.83,72.83,0,0,1,0,91.26ZM302,382.56A24.4,24.4,0,1,1,326.4,407,24.43,24.43,0,0,1,302,382.56Zm70-57.13-23.25,23.25a40.38,40.38,0,0,0-44.78,0l-23.25-23.24a72.85,72.85,0,0,1,91.28,0Zm-102.78,11.5,23.25,23.24a40.38,40.38,0,0,0,0,44.79l-23.24,23.25a72.86,72.86,0,0,1,0-91.28Zm11.51,102.78L304,416.46a40.41,40.41,0,0,0,44.78,0L372,439.7a72.87,72.87,0,0,1-91.26,0Z"/><path class="cls-3" d="M190.77,341.78H158.14a8.16,8.16,0,0,1-8.16-8.16V292.84a8.16,8.16,0,0,1,8.16-8.16h32.63a8.15,8.15,0,0,1,8.15,8.16v40.78A8.15,8.15,0,0,1,190.77,341.78Z"/><path class="cls-4" d="M96.71,502.52H71c-3.55,0-6.42-3.65-6.42-8.16V272.09c0-4.51,2.87-8.16,6.42-8.16H96.71c3.55,0,6.43,3.65,6.43,8.16V494.36C103.14,498.87,100.26,502.52,96.71,502.52Z"/><path class="cls-3" d="M190.77,480.45H158.14a8.17,8.17,0,0,1-8.16-8.16V431.5a8.16,8.16,0,0,1,8.16-8.15h32.63a8.15,8.15,0,0,1,8.15,8.15v40.79A8.16,8.16,0,0,1,190.77,480.45Z"/><path class="cls-5" d="M468.45,235.74H174.81a8.16,8.16,0,0,0-8.16,8.16v40.78H183V252.06H447v261H183V480.45H166.65v40.78a8.16,8.16,0,0,0,8.16,8.16H468.45a8.17,8.17,0,0,0,8.16-8.16V243.9A8.16,8.16,0,0,0,468.45,235.74Z"/><rect class="cls-5" x="166.65" y="341.78" width="16.31" height="81.57"/><path class="cls-4" d="M159.43,560.74v24.47a8.16,8.16,0,0,0,8.16,8.16h48.94a8.16,8.16,0,0,0,8.16-8.16V560.74Z"/><path class="cls-4" d="M368.11,560.74v24.47a8.16,8.16,0,0,0,8.16,8.16h48.94a8.16,8.16,0,0,0,8.16-8.16V560.74Z"/><path class="cls-3" d="M488.67,205.67H102.27c-10.16,0-18.4,7.57-18.4,16.91v41.35H96.71c3.55,0,6.43,3.65,6.43,8.16V494.36c0,4.51-2.88,8.16-6.43,8.16H83.87v41.35c0,9.33,8.24,16.91,18.4,16.91h386.4c10.17,0,18.4-7.58,18.4-16.91V222.58C507.07,213.24,498.84,205.67,488.67,205.67Z"/><path class="cls-3" d="M166.65,480.44v40.79a8.16,8.16,0,0,0,8.16,8.16H468.45a8.17,8.17,0,0,0,8.16-8.16V243.9a8.16,8.16,0,0,0-8.16-8.16H174.81a8.16,8.16,0,0,0-8.16,8.16v40.78"/><line class="cls-3" x1="166.65" y1="341.78" x2="166.65" y2="423.35"/><line class="cls-3" y1="593.37" x2="815.42" y2="593.37"/><rect class="cls-3" x="562.6" y="548.98" width="206.12" height="44.39"/><rect class="cls-3" x="589.92" y="504.59" width="206.12" height="44.39"/><rect class="cls-3" x="569.11" y="460.49" width="206.12" height="44.39"/><rect class="cls-5" x="689.14" y="474.7" width="86.09" height="30.18"/><rect class="cls-5" x="709.95" y="518.8" width="86.09" height="30.18"/><rect class="cls-5" x="682.63" y="561.97" width="86.09" height="30.18"/><path class="cls-3" d="M628.64,123.83a16.72,16.72,0,0,1-20.19,12.28h0c-9.15-2.07-14.94-10.92-12.93-19.77l9.4-36.72"/><path class="cls-3" d="M617.82,73.57l11.28,55.79a17.91,17.91,0,0,0,21.11,14h0a17.94,17.94,0,0,0,12.59-9.77"/><path class="cls-3" d="M698.64,128.35a17.94,17.94,0,0,1-11.82,16.07h0a17.92,17.92,0,0,1-22.94-10.75L643,76"/><path class="cls-3" d="M424.6,10.93,578.19,6c17.39.94,17.39.94,38.53,10.78l67,27.62,46.77,65.74a17.92,17.92,0,0,1-30.81,18.32l-35.86-48-49-7.39-35.83,29c-16.77,17.08-21.4,35.3-7.8,55.42l26.33,37.41c14.27,21.72,1.34,36.47-12.31,42.38a38.85,38.85,0,0,1-6,1.84s-16.33-20.55-19.95-24.9l-51-39s-46.4-7.31-61.42-57.44"/><line class="cls-6" x1="453.39" y1="134.2" x2="423.65" y2="133.22"/><path class="cls-7" d="M558.86,92c-13.31,13.41-9.63,31.93-.48,46.55l17.33,25.11"/><path class="cls-3" d="M621,281.67h20.08a26.26,26.26,0,0,0,26.26-26.25v-44"/><path class="cls-3" d="M620.77,262.93H638a10,10,0,0,0,10-10V211.12"/><path class="cls-5" d="M577.19,316.85a102.5,102.5,0,1,0,145-145m-21.22,21.23a72.48,72.48,0,1,1-102.51,102.5"/><path class="cls-3" d="M647.27,145.54a102.13,102.13,0,0,0-67,24.9l17.22,24.47c.07.09.12.19.18.28A72.68,72.68,0,1,1,576,235.11c-5-6.21-14.14-17.75-16.75-20.88l-6.77-5.17a102.52,102.52,0,1,0,94.82-63.52Z"/></g></g></svg>