<svg xmlns="http://www.w3.org/2000/svg" viewBox="0 0 400 400"><defs><style>.cls-1{fill:#6b3eff;}.cls-2{fill:#fff;}.cls-3,.cls-4{fill:#562ed9;}.cls-3{opacity:0.2;}</style></defs><title>Staked-icon-purple-bg</title><g id="Layer_2" data-name="Layer 2"><g id="Staked-icon-purple-bg"><rect class="cls-1" width="400" height="400"/><path class="cls-2" d="M264.75,108H200.63q-1,0-2.34.09h-.06c-8.4.52-24.78,3.36-38.15,16.84a59.28,59.28,0,0,0-14.27,23.91H134a55.4,55.4,0,0,0-40.2,17,58,58,0,0,0-16.19,40.56V292l47.58-27.47a3.5,3.5,0,0,1,1.73-.46h72.51c.69,0,1.47,0,2.35-.1h0c8.39-.51,24.78-3.35,38.16-16.84a59.28,59.28,0,0,0,14.14-23.55c.87,0,15.65,0,20.64.08l.05,0,47.58,27.48V165.61A57.65,57.65,0,0,0,264.75,108Zm-51,129.12c-2.18,4.31-7.35,7.22-13.37,7.62h-.17c-.37,0-.75,0-1.13,0H126.87a22.72,22.72,0,0,0-11.35,3L96.8,258.65v-52.2c0-21.5,16.32-38.34,37.15-38.34h9.36a54,54,0,0,0,20.95,39.21c9.46,7.27,19.12,9.5,25.51,11a83.9,83.9,0,0,0,13.67,1.95c4.25.31,5,.44,6.54,1.59a12.63,12.63,0,0,1,4.75,6.79A13.7,13.7,0,0,1,213.73,237.14Zm19.58-13.5a31.85,31.85,0,0,0-12-17.35c-6.13-4.47-11.39-4.86-16.47-5.23a65.31,65.31,0,0,1-10.75-1.51c-5.62-1.3-12-2.77-18.13-7.49a35.21,35.21,0,0,1-10.6-13.54,34.73,34.73,0,0,1-2.94-13,38.85,38.85,0,0,1,4.26-17.06,31.72,31.72,0,0,0,12,17.35c6.12,4.47,11.38,4.86,16.47,5.24a64.06,64.06,0,0,1,10.75,1.5c5.62,1.3,12,2.78,18.12,7.49a35.3,35.3,0,0,1,10.61,13.55,34.83,34.83,0,0,1,2.94,13A39.12,39.12,0,0,1,233.31,223.64Zm69.79-5.83L284.37,207a22.82,22.82,0,0,0-3.2-1.52l-.54-.19a15.7,15.7,0,0,0-4.95-.88l-7.48-.07h0c-5.18,0-7.42,0-11.49,0a54,54,0,0,0-21-39.56c-9.45-7.26-19.11-9.5-25.51-11a83,83,0,0,0-13.66-2c-4.26-.31-5-.43-6.55-1.58a12.61,12.61,0,0,1-4.74-6.8,13.7,13.7,0,0,1,1-8.5c2.19-4.33,7.37-7.24,13.41-7.63h.09c.39,0,.78,0,1.17,0h63.81a38.4,38.4,0,0,1,38.35,38.35Z"/><path class="cls-3" d="M268.2,204.32h0c-5.18,0-7.42,0-11.49,0,0,.62.08,1.28.1,1.9v.25a57.43,57.43,0,0,1-2.75,17.16.43.43,0,0,1,0-.05h6.19C264.5,219,268.2,210.27,268.2,204.32Z"/><path class="cls-3" d="M134,148.86a54,54,0,0,0,3.47,19.25h5.87c0-.71-.07-1.59-.09-2.25v-.25a57.68,57.68,0,0,1,2.64-16.82l0,.07Z"/><path class="cls-3" d="M233.61,223.15a.29.29,0,0,0,0-.1c-.09.2-.17.4-.27.59a31.18,31.18,0,0,0-8.24-14.14c-.91,5.48-3.63,11.72-7.46,15.59a25,25,0,0,1-3.21,2.53c.12.33.24.66.33,1a13.7,13.7,0,0,1-1,8.51c-2.16,4.26-7.22,7.14-13.15,7.6,5.67-.35,16.7-2.23,25.57-11.18A41.79,41.79,0,0,0,233.61,223.15Z"/><path class="cls-4" d="M200.06,127.29h0Z"/><path class="cls-3" d="M166.7,148.42h0c.18.66.38,1.31.59,1.95a31.33,31.33,0,0,0,7.42,12,30.66,30.66,0,0,1,7.64-15.51c.6-.61,1.93-1.74,3.15-2.73a6.57,6.57,0,0,1-.22-.67,13.7,13.7,0,0,1,1-8.5c2.14-4.21,7.1-7.08,12.93-7.58-5.94.48-17,2.52-25.39,11A38.94,38.94,0,0,0,166.7,148.42Z"/></g></g></svg>