<svg width="104" height="88" viewBox="0 0 104 88" fill="none" xmlns="http://www.w3.org/2000/svg">
<path d="M71 44L37 0H65.1075C68.8239 0 72.3306 1.72191 74.6029 4.66263L104 42.7059L102.47 44H71Z" fill="url(#paint0_linear_356_22395)"/>
<path d="M71 44L37 0H65.1075C68.8239 0 72.3306 1.72191 74.6029 4.66263L104 42.7059L102.47 44H71Z" fill="url(#paint1_radial_356_22395)"/>
<path d="M71 44H39.53L38.5455 46L48.8027 59.2741C51.8638 63.2356 51.8638 68.7644 48.8027 72.7259L37 88H65.1075C68.8239 88 72.3306 86.2781 74.6029 83.3374L81.8577 73.9488C85.4755 69.2671 85.4755 62.7329 81.8577 58.0512L71 44Z" fill="url(#paint2_linear_356_22395)"/>
<path d="M33.869 0C30.1659 0 26.6703 1.70967 24.3968 4.63271L4.91153 29.6852C1.72826 33.778 0 38.815 0 44C0 49.185 1.72826 54.222 4.91153 58.3148L24.3968 83.3673C26.6703 86.2903 30.1659 88 33.869 88H65.1075C65.5717 88 66.0326 87.9731 66.4883 87.9204C63.3088 87.5523 60.3853 85.9239 58.3968 83.3673L37.1222 56.0142C34.4505 52.5792 33 48.3517 33 44C33 39.6483 34.4505 35.4208 37.1222 31.9858L58.3968 4.63271C60.3853 2.07607 63.3088 0.447669 66.4883 0.0796094C66.0326 0.0268632 65.5717 0 65.1075 0H33.869Z" fill="url(#paint3_linear_356_22395)"/>
<path d="M33.869 0C30.1659 0 26.6703 1.70967 24.3968 4.63271L4.91153 29.6852C1.72826 33.778 0 38.815 0 44C0 49.185 1.72826 54.222 4.91153 58.3148L24.3968 83.3673C26.6703 86.2903 30.1659 88 33.869 88H65.1075C65.5717 88 66.0326 87.9731 66.4883 87.9204C63.3088 87.5523 60.3853 85.9239 58.3968 83.3673L37.1222 56.0142C34.4505 52.5792 33 48.3517 33 44C33 39.6483 34.4505 35.4208 37.1222 31.9858L58.3968 4.63271C60.3853 2.07607 63.3088 0.447669 66.4883 0.0796094C66.0326 0.0268632 65.5717 0 65.1075 0H33.869Z" fill="url(#paint4_radial_356_22395)" fill-opacity="0.5"/>
<path d="M71 44H39.532L38.55 46H70.018L71 44Z" fill="url(#paint5_linear_356_22395)"/>
<path d="M38.7137 45.6667H70.1817L70.018 46H38.55L38.7137 45.6667Z" fill="#2F2BAD"/>
<path d="M65.2217 0.000549316C68.8957 0.035436 72.3539 1.75207 74.6029 4.66264L104 42.7059L102.472 44L73.0204 5.88554C71.15 3.46508 68.2762 2.03545 65.2217 2.00066C62.1781 2.03533 59.3133 3.45498 57.4421 5.86102L37.1193 31.9932C34.4495 35.4262 33 39.6511 33 44C33 48.3489 34.4495 52.5738 37.1193 56.0068L57.4421 82.139C59.3133 84.5451 62.1781 85.9647 65.2217 85.9994C68.2762 85.9646 71.15 84.5349 73.0204 82.1145L80.2752 72.7259C83.3363 68.7644 83.3363 63.2356 80.2752 59.2741L70.0179 46L71 44L81.8577 58.0512C85.4755 62.7329 85.4755 69.2671 81.8577 73.9488L74.6029 83.3374C72.3539 86.2479 68.8957 87.9646 65.2217 87.9995C61.5609 87.9647 58.1134 86.2601 55.8633 83.3668L35.5405 57.2346C32.5977 53.4506 31 48.7936 31 44C31 39.2064 32.5977 34.5495 35.5405 30.7654L55.8633 4.63322C58.1134 1.73996 61.5609 0.0353127 65.2217 0.000549316Z" fill="url(#paint6_linear_356_22395)"/>
<path d="M65.3885 0.00328938C65.333 0.00199152 65.2774 0.0010776 65.2217 0.000549316C61.5609 0.0353127 58.1134 1.73996 55.8633 4.63322L35.5405 30.7654C32.5977 34.5495 31 39.2064 31 44C31 48.7936 32.5977 53.4506 35.5405 57.2346L55.8633 83.3668C58.1134 86.2601 61.5609 87.9647 65.2217 87.9995C65.2774 87.9989 65.333 87.998 65.3885 87.9967C61.7899 87.9126 58.4127 86.2161 56.1968 83.3668L35.874 57.2346C32.9312 53.4506 31.3335 48.7936 31.3335 44C31.3335 39.2064 32.9312 34.5495 35.874 30.7654L56.1968 4.63322C58.4127 1.78392 61.7898 0.0873966 65.3885 0.00328938Z" fill="url(#paint7_linear_356_22395)"/>
<path d="M102.674 43.8293L73.3539 5.88554C71.4835 3.46508 68.6097 2.03545 65.5552 2.00066C65.4996 2.00129 65.444 2.00239 65.3885 2.00395C68.3806 2.08787 71.1841 3.50917 73.0204 5.88554L102.472 44L102.674 43.8293Z" fill="url(#paint8_linear_356_22395)"/>
<path d="M65.3885 85.9961C65.444 85.9976 65.4996 85.9987 65.5552 85.9994C68.6097 85.9646 71.4835 84.5349 73.3539 82.1145L80.6087 72.7259C83.6698 68.7644 83.6698 63.2356 80.6087 59.2741L70.3514 46L71.2039 44.2639L71 44L70.0179 46L80.2752 59.2741C83.3363 63.2356 83.3363 68.7644 80.2752 72.7259L73.0204 82.1145C71.1841 84.4908 68.3806 85.9121 65.3885 85.9961Z" fill="url(#paint9_linear_356_22395)"/>
<defs>
<linearGradient id="paint0_linear_356_22395" x1="70.5" y1="0" x2="70.5" y2="44" gradientUnits="userSpaceOnUse">
<stop offset="0.0536645" stop-color="#181759"/>
<stop offset="0.1875" stop-color="#242189"/>
<stop offset="1" stop-color="#201D7F"/>
</linearGradient>
<radialGradient id="paint1_radial_356_22395" cx="0" cy="0" r="1" gradientUnits="userSpaceOnUse" gradientTransform="translate(52 -3.69958e-06) rotate(67.1955) scale(47.731 42.6059)">
<stop stop-color="#111048"/>
<stop offset="0.636996" stop-color="#111048" stop-opacity="0"/>
</radialGradient>
<linearGradient id="paint2_linear_356_22395" x1="62.5" y1="88" x2="62.5" y2="44" gradientUnits="userSpaceOnUse">
<stop stop-color="#3836A6"/>
<stop offset="0.184295" stop-color="#242291"/>
<stop offset="0.388422" stop-color="#2B29A3"/>
<stop offset="0.478039" stop-color="#3330B7"/>
<stop offset="0.598793" stop-color="#3330B7"/>
<stop offset="0.729654" stop-color="#201E8E"/>
</linearGradient>
<linearGradient id="paint3_linear_356_22395" x1="34" y1="0" x2="34" y2="88" gradientUnits="userSpaceOnUse">
<stop stop-color="#AFADF2"/>
<stop offset="0.0660341" stop-color="#504DC7"/>
<stop offset="0.29271" stop-color="#3834AC"/>
<stop offset="0.38355" stop-color="#2F2BAE"/>
<stop offset="0.480862" stop-color="#332FB6"/>
<stop offset="0.562202" stop-color="#2F2BAF"/>
<stop offset="0.653042" stop-color="#1F1C80"/>
<stop offset="0.937093" stop-color="#1A1871"/>
<stop offset="1" stop-color="#0D0C31"/>
</linearGradient>
<radialGradient id="paint4_radial_356_22395" cx="0" cy="0" r="1" gradientUnits="userSpaceOnUse" gradientTransform="translate(68 -2.11352e-06) rotate(147.095) scale(80.9938 62.5861)">
<stop stop-color="#BDBBEF"/>
<stop offset="0.697917" stop-color="#9896DF" stop-opacity="0"/>
</radialGradient>
<linearGradient id="paint5_linear_356_22395" x1="38.5" y1="45" x2="70.5" y2="45" gradientUnits="userSpaceOnUse">
<stop stop-color="white"/>
<stop offset="0.0001" stop-color="#222085"/>
<stop offset="1" stop-color="#3532A9"/>
</linearGradient>
<linearGradient id="paint6_linear_356_22395" x1="31" y1="4.75208e-07" x2="104" y2="88" gradientUnits="userSpaceOnUse">
<stop stop-color="#6159E4"/>
<stop offset="1" stop-color="#4A43D5"/>
</linearGradient>
<linearGradient id="paint7_linear_356_22395" x1="66.8368" y1="0.000549316" x2="66.8368" y2="87.9995" gradientUnits="userSpaceOnUse">
<stop stop-color="#958AFF"/>
<stop offset="0.5" stop-color="#958AFF"/>
<stop offset="1" stop-color="#958AFF"/>
</linearGradient>
<linearGradient id="paint8_linear_356_22395" x1="66.8368" y1="0.000549316" x2="66.8368" y2="87.9995" gradientUnits="userSpaceOnUse">
<stop stop-color="#958AFF"/>
<stop offset="0.5" stop-color="#958AFF"/>
<stop offset="1" stop-color="#958AFF"/>
</linearGradient>
<linearGradient id="paint9_linear_356_22395" x1="66.8368" y1="0.000549316" x2="66.8368" y2="87.9995" gradientUnits="userSpaceOnUse">
<stop stop-color="#958AFF"/>
<stop offset="0.5" stop-color="#958AFF"/>
<stop offset="1" stop-color="#958AFF"/>
</linearGradient>
</defs>
</svg>
