<svg width="1800" height="144" viewBox="0 0 1800 144" fill="none" xmlns="http://www.w3.org/2000/svg">
<rect width="1800" height="144" fill="white"/>
<rect width="1800" height="144" fill="#4038FF"/>
<path d="M671.859 81L679.391 59.2344H682.781L690.328 81H687.125L685.344 75.625H676.797L675 81H671.859ZM677.594 73.125H684.531L681.141 62.625H681.016L677.594 73.125ZM701.844 75.5625V64.6875H704.719V75.2344C704.719 76.4115 704.948 77.349 705.406 78.0469C705.865 78.7344 706.703 79.0781 707.922 79.0781C709.141 79.0781 710.104 78.625 710.812 77.7188C711.531 76.8125 711.891 75.6458 711.891 74.2188V64.6875H714.766V81H711.891V78.3125C711.443 79.2708 710.844 80.026 710.094 80.5781C709.344 81.1198 708.354 81.3906 707.125 81.3906C706.375 81.3906 705.672 81.2812 705.016 81.0625C704.37 80.8542 703.812 80.5156 703.344 80.0469C702.875 79.5781 702.505 78.974 702.234 78.2344C701.974 77.4948 701.844 76.6042 701.844 75.5625ZM719.031 75.8438H721.922C721.964 76.9271 722.349 77.7396 723.078 78.2812C723.818 78.8125 724.688 79.0781 725.688 79.0781C726.646 79.0781 727.479 78.8646 728.188 78.4375C728.896 78.0104 729.25 77.3906 729.25 76.5781C729.25 75.9219 729.036 75.3958 728.609 75C728.182 74.6042 727.422 74.3021 726.328 74.0938L723.641 73.5469C722.297 73.2656 721.26 72.75 720.531 72C719.812 71.2396 719.453 70.2188 719.453 68.9375C719.453 68.3021 719.594 67.7031 719.875 67.1406C720.167 66.5677 720.578 66.0729 721.109 65.6562C721.651 65.2396 722.281 64.9115 723 64.6719C723.729 64.4219 724.542 64.2969 725.438 64.2969C726.208 64.2969 726.958 64.401 727.688 64.6094C728.427 64.8073 729.083 65.1198 729.656 65.5469C730.24 65.974 730.703 66.5208 731.047 67.1875C731.401 67.8438 731.589 68.6302 731.609 69.5469H728.734C728.693 68.4635 728.354 67.7031 727.719 67.2656C727.094 66.8177 726.344 66.5938 725.469 66.5938C724.573 66.5938 723.812 66.8073 723.188 67.2344C722.573 67.6615 722.266 68.2188 722.266 68.9062C722.266 69.5417 722.448 70.0365 722.812 70.3906C723.177 70.7448 723.766 71.0052 724.578 71.1719L727.328 71.75C728.953 72.0938 730.156 72.651 730.938 73.4219C731.729 74.1823 732.125 75.224 732.125 76.5469C732.125 77.2344 731.969 77.875 731.656 78.4688C731.354 79.0521 730.911 79.5573 730.328 79.9844C729.755 80.401 729.073 80.7396 728.281 81C727.49 81.2604 726.615 81.3906 725.656 81.3906C724.74 81.3906 723.88 81.2708 723.078 81.0312C722.286 80.8021 721.589 80.4583 720.984 80C720.391 79.5312 719.922 78.9531 719.578 78.2656C719.234 77.5677 719.052 76.7604 719.031 75.8438ZM735.516 72.8438C735.516 71.6042 735.667 70.4583 735.969 69.4062C736.281 68.3438 736.74 67.4427 737.344 66.7031C737.958 65.9531 738.698 65.3646 739.562 64.9375C740.427 64.5104 741.422 64.2969 742.547 64.2969C743.724 64.2969 744.75 64.5 745.625 64.9062C746.5 65.3125 747.224 65.8698 747.797 66.5781C748.37 67.276 748.802 68.099 749.094 69.0469C749.385 69.9948 749.531 71.0156 749.531 72.1094V73.6406H738.547V75.375C738.547 75.9688 738.656 76.4948 738.875 76.9531C739.104 77.4115 739.411 77.8021 739.797 78.125C740.182 78.4375 740.615 78.6771 741.094 78.8438C741.573 79 742.068 79.0781 742.578 79.0781C743.599 79.0781 744.484 78.8177 745.234 78.2969C745.984 77.776 746.411 76.9479 746.516 75.8125H749.406C749.344 76.6875 749.115 77.4688 748.719 78.1562C748.323 78.8333 747.807 79.4115 747.172 79.8906C746.547 80.3698 745.839 80.7396 745.047 81C744.255 81.2604 743.422 81.3906 742.547 81.3906C741.37 81.3906 740.339 81.1771 739.453 80.75C738.578 80.3229 737.844 79.7344 737.25 78.9844C736.667 78.2344 736.229 77.3385 735.938 76.2969C735.656 75.2552 735.516 74.1042 735.516 72.8438ZM738.547 71.3438H746.547V70.4375C746.547 69.8438 746.438 69.3073 746.219 68.8281C746.01 68.349 745.719 67.9427 745.344 67.6094C744.979 67.276 744.552 67.026 744.062 66.8594C743.583 66.6823 743.078 66.5938 742.547 66.5938C742.016 66.5938 741.51 66.6823 741.031 66.8594C740.552 67.026 740.125 67.276 739.75 67.6094C739.375 67.9427 739.078 68.349 738.859 68.8281C738.651 69.3073 738.547 69.8438 738.547 70.4375V71.3438ZM753.906 81V64.6875H761.75V67.1719H756.781V81H753.906ZM772.641 72.8438C772.641 71.6667 772.771 70.5573 773.031 69.5156C773.302 68.4635 773.703 67.5573 774.234 66.7969C774.766 66.026 775.438 65.4167 776.25 64.9688C777.062 64.5208 778.01 64.2969 779.094 64.2969C780.312 64.2969 781.359 64.5573 782.234 65.0781C783.109 65.599 783.802 66.3542 784.312 67.3438V64.6875H787.203V80.6875C787.203 81.8229 787 82.7969 786.594 83.6094C786.188 84.4323 785.651 85.1146 784.984 85.6562C784.328 86.1979 783.578 86.5938 782.734 86.8438C781.891 87.1042 781.031 87.2344 780.156 87.2344C779.302 87.2344 778.484 87.151 777.703 86.9844C776.932 86.8177 776.229 86.5365 775.594 86.1406C774.969 85.7448 774.448 85.2188 774.031 84.5625C773.615 83.9167 773.344 83.1042 773.219 82.125H776.094C776.198 83.0625 776.594 83.7656 777.281 84.2344C777.979 84.7031 778.896 84.9375 780.031 84.9375C780.583 84.9375 781.12 84.8542 781.641 84.6875C782.161 84.5312 782.62 84.276 783.016 83.9219C783.411 83.5781 783.724 83.125 783.953 82.5625C784.193 82.0104 784.312 81.3385 784.312 80.5469V78.3438C783.802 79.3229 783.12 80.0781 782.266 80.6094C781.411 81.1302 780.38 81.3906 779.172 81.3906C778.068 81.3906 777.104 81.1667 776.281 80.7188C775.469 80.2708 774.792 79.6615 774.25 78.8906C773.708 78.1198 773.302 77.2188 773.031 76.1875C772.771 75.1458 772.641 74.0312 772.641 72.8438ZM775.672 75.375C775.672 75.9271 775.776 76.4323 775.984 76.8906C776.203 77.349 776.5 77.7396 776.875 78.0625C777.25 78.375 777.688 78.625 778.188 78.8125C778.688 78.9896 779.24 79.0781 779.844 79.0781C781.292 79.0781 782.396 78.6198 783.156 77.7031C783.927 76.7865 784.312 75.625 784.312 74.2188V71.4688C784.312 70.0625 783.927 68.901 783.156 67.9844C782.396 67.0573 781.292 66.5938 779.844 66.5938C779.25 66.5938 778.698 66.6875 778.188 66.875C777.688 67.0521 777.25 67.3021 776.875 67.625C776.5 67.9479 776.203 68.3385 775.984 68.7969C775.776 69.2552 775.672 69.7604 775.672 70.3125V75.375ZM791.641 72.8438C791.641 71.6042 791.786 70.4583 792.078 69.4062C792.38 68.3438 792.833 67.4427 793.438 66.7031C794.052 65.9531 794.818 65.3646 795.734 64.9375C796.651 64.5104 797.729 64.2969 798.969 64.2969C800.208 64.2969 801.286 64.5104 802.203 64.9375C803.12 65.3646 803.88 65.9531 804.484 66.7031C805.089 67.4427 805.542 68.3438 805.844 69.4062C806.146 70.4583 806.297 71.6042 806.297 72.8438C806.297 74.1042 806.146 75.2552 805.844 76.2969C805.542 77.3385 805.089 78.2344 804.484 78.9844C803.88 79.7344 803.115 80.3229 802.188 80.75C801.271 81.1771 800.198 81.3906 798.969 81.3906C797.729 81.3906 796.651 81.1771 795.734 80.75C794.818 80.3229 794.052 79.7344 793.438 78.9844C792.833 78.2344 792.38 77.3385 792.078 76.2969C791.786 75.2552 791.641 74.1042 791.641 72.8438ZM794.672 75.375C794.672 75.9271 794.786 76.4323 795.016 76.8906C795.255 77.349 795.568 77.7396 795.953 78.0625C796.339 78.375 796.792 78.625 797.312 78.8125C797.833 78.9896 798.385 79.0781 798.969 79.0781C799.542 79.0781 800.089 78.9896 800.609 78.8125C801.13 78.625 801.583 78.375 801.969 78.0625C802.354 77.7396 802.661 77.349 802.891 76.8906C803.13 76.4323 803.25 75.9271 803.25 75.375V70.3125C803.25 69.7604 803.13 69.2552 802.891 68.7969C802.661 68.3385 802.354 67.9479 801.969 67.625C801.583 67.3021 801.13 67.0521 800.609 66.875C800.089 66.6875 799.542 66.5938 798.969 66.5938C798.396 66.5938 797.844 66.6875 797.312 66.875C796.792 67.0521 796.339 67.3021 795.953 67.625C795.568 67.9479 795.255 68.3385 795.016 68.7969C794.786 69.2552 794.672 69.7604 794.672 70.3125V75.375ZM808.984 64.6875H812.094L816.188 77.5781H816.312L820.484 64.6875H823.453L817.594 81H814.844L808.984 64.6875ZM826.141 72.8438C826.141 71.6042 826.292 70.4583 826.594 69.4062C826.906 68.3438 827.365 67.4427 827.969 66.7031C828.583 65.9531 829.323 65.3646 830.188 64.9375C831.052 64.5104 832.047 64.2969 833.172 64.2969C834.349 64.2969 835.375 64.5 836.25 64.9062C837.125 65.3125 837.849 65.8698 838.422 66.5781C838.995 67.276 839.427 68.099 839.719 69.0469C840.01 69.9948 840.156 71.0156 840.156 72.1094V73.6406H829.172V75.375C829.172 75.9688 829.281 76.4948 829.5 76.9531C829.729 77.4115 830.036 77.8021 830.422 78.125C830.807 78.4375 831.24 78.6771 831.719 78.8438C832.198 79 832.693 79.0781 833.203 79.0781C834.224 79.0781 835.109 78.8177 835.859 78.2969C836.609 77.776 837.036 76.9479 837.141 75.8125H840.031C839.969 76.6875 839.74 77.4688 839.344 78.1562C838.948 78.8333 838.432 79.4115 837.797 79.8906C837.172 80.3698 836.464 80.7396 835.672 81C834.88 81.2604 834.047 81.3906 833.172 81.3906C831.995 81.3906 830.964 81.1771 830.078 80.75C829.203 80.3229 828.469 79.7344 827.875 78.9844C827.292 78.2344 826.854 77.3385 826.562 76.2969C826.281 75.2552 826.141 74.1042 826.141 72.8438ZM829.172 71.3438H837.172V70.4375C837.172 69.8438 837.062 69.3073 836.844 68.8281C836.635 68.349 836.344 67.9427 835.969 67.6094C835.604 67.276 835.177 67.026 834.688 66.8594C834.208 66.6823 833.703 66.5938 833.172 66.5938C832.641 66.5938 832.135 66.6823 831.656 66.8594C831.177 67.026 830.75 67.276 830.375 67.6094C830 67.9427 829.703 68.349 829.484 68.8281C829.276 69.3073 829.172 69.8438 829.172 70.4375V71.3438ZM844.531 81V64.6875H852.375V67.1719H847.406V81H844.531ZM855.969 81V64.6875H858.844V67.375C859.292 66.4167 859.906 65.6667 860.688 65.125C861.469 64.5729 862.479 64.2969 863.719 64.2969C864.51 64.2969 865.229 64.4062 865.875 64.625C866.521 64.8333 867.078 65.1719 867.547 65.6406C868.016 66.1094 868.38 66.7135 868.641 67.4531C868.901 68.1823 869.031 69.0729 869.031 70.125V81H866.141V70.4375C866.141 69.2396 865.911 68.3021 865.453 67.625C864.995 66.9375 864.146 66.5938 862.906 66.5938C862.312 66.5938 861.771 66.7135 861.281 66.9531C860.792 67.1823 860.365 67.5156 860 67.9531C859.635 68.3906 859.349 68.9115 859.141 69.5156C858.943 70.1094 858.844 70.7604 858.844 71.4688V81H855.969ZM873.359 72.8438C873.359 71.6042 873.51 70.4583 873.812 69.4062C874.125 68.3438 874.583 67.4427 875.188 66.7031C875.802 65.9531 876.542 65.3646 877.406 64.9375C878.271 64.5104 879.266 64.2969 880.391 64.2969C881.568 64.2969 882.594 64.5 883.469 64.9062C884.344 65.3125 885.068 65.8698 885.641 66.5781C886.214 67.276 886.646 68.099 886.938 69.0469C887.229 69.9948 887.375 71.0156 887.375 72.1094V73.6406H876.391V75.375C876.391 75.9688 876.5 76.4948 876.719 76.9531C876.948 77.4115 877.255 77.8021 877.641 78.125C878.026 78.4375 878.458 78.6771 878.938 78.8438C879.417 79 879.911 79.0781 880.422 79.0781C881.443 79.0781 882.328 78.8177 883.078 78.2969C883.828 77.776 884.255 76.9479 884.359 75.8125H887.25C887.188 76.6875 886.958 77.4688 886.562 78.1562C886.167 78.8333 885.651 79.4115 885.016 79.8906C884.391 80.3698 883.682 80.7396 882.891 81C882.099 81.2604 881.266 81.3906 880.391 81.3906C879.214 81.3906 878.182 81.1771 877.297 80.75C876.422 80.3229 875.688 79.7344 875.094 78.9844C874.51 78.2344 874.073 77.3385 873.781 76.2969C873.5 75.2552 873.359 74.1042 873.359 72.8438ZM876.391 71.3438H884.391V70.4375C884.391 69.8438 884.281 69.3073 884.062 68.8281C883.854 68.349 883.562 67.9427 883.188 67.6094C882.823 67.276 882.396 67.026 881.906 66.8594C881.427 66.6823 880.922 66.5938 880.391 66.5938C879.859 66.5938 879.354 66.6823 878.875 66.8594C878.396 67.026 877.969 67.276 877.594 67.6094C877.219 67.9427 876.922 68.349 876.703 68.8281C876.495 69.3073 876.391 69.8438 876.391 70.4375V71.3438ZM890.922 72.8438C890.922 71.6667 891.052 70.5573 891.312 69.5156C891.583 68.4635 891.984 67.5573 892.516 66.7969C893.047 66.026 893.719 65.4167 894.531 64.9688C895.344 64.5208 896.292 64.2969 897.375 64.2969C898.594 64.2969 899.641 64.5573 900.516 65.0781C901.391 65.599 902.083 66.3542 902.594 67.3438V59.2344H905.484V81H902.594V78.3438C902.083 79.3229 901.401 80.0781 900.547 80.6094C899.693 81.1302 898.661 81.3906 897.453 81.3906C896.349 81.3906 895.385 81.1667 894.562 80.7188C893.75 80.2708 893.073 79.6615 892.531 78.8906C891.99 78.1198 891.583 77.2188 891.312 76.1875C891.052 75.1458 890.922 74.0312 890.922 72.8438ZM893.953 75.375C893.953 75.9271 894.057 76.4323 894.266 76.8906C894.484 77.349 894.781 77.7396 895.156 78.0625C895.531 78.375 895.969 78.625 896.469 78.8125C896.969 78.9896 897.521 79.0781 898.125 79.0781C899.573 79.0781 900.677 78.6198 901.438 77.7031C902.208 76.7865 902.594 75.625 902.594 74.2188V71.4688C902.594 70.0625 902.208 68.901 901.438 67.9844C900.677 67.0573 899.573 66.5938 898.125 66.5938C897.531 66.5938 896.979 66.6875 896.469 66.875C895.969 67.0521 895.531 67.3021 895.156 67.625C894.781 67.9479 894.484 68.3385 894.266 68.7969C894.057 69.2552 893.953 69.7604 893.953 70.3125V75.375ZM917.141 64.6875H920.25L924.344 77.5781H924.469L928.641 64.6875H931.609L925.75 81H923L917.141 64.6875ZM935.094 62.25V59.2344H938.094V62.25H935.094ZM935.156 81V64.6875H938.031V81H935.156ZM942.516 72.8438C942.516 71.6667 942.646 70.5573 942.906 69.5156C943.177 68.4635 943.578 67.5573 944.109 66.7969C944.641 66.026 945.312 65.4167 946.125 64.9688C946.938 64.5208 947.885 64.2969 948.969 64.2969C950.188 64.2969 951.234 64.5573 952.109 65.0781C952.984 65.599 953.677 66.3542 954.188 67.3438V59.2344H957.078V81H954.188V78.3438C953.677 79.3229 952.995 80.0781 952.141 80.6094C951.286 81.1302 950.255 81.3906 949.047 81.3906C947.943 81.3906 946.979 81.1667 946.156 80.7188C945.344 80.2708 944.667 79.6615 944.125 78.8906C943.583 78.1198 943.177 77.2188 942.906 76.1875C942.646 75.1458 942.516 74.0312 942.516 72.8438ZM945.547 75.375C945.547 75.9271 945.651 76.4323 945.859 76.8906C946.078 77.349 946.375 77.7396 946.75 78.0625C947.125 78.375 947.562 78.625 948.062 78.8125C948.562 78.9896 949.115 79.0781 949.719 79.0781C951.167 79.0781 952.271 78.6198 953.031 77.7031C953.802 76.7865 954.188 75.625 954.188 74.2188V71.4688C954.188 70.0625 953.802 68.901 953.031 67.9844C952.271 67.0573 951.167 66.5938 949.719 66.5938C949.125 66.5938 948.573 66.6875 948.062 66.875C947.562 67.0521 947.125 67.3021 946.75 67.625C946.375 67.9479 946.078 68.3385 945.859 68.7969C945.651 69.2552 945.547 69.7604 945.547 70.3125V75.375ZM961.516 72.8438C961.516 71.6042 961.667 70.4583 961.969 69.4062C962.281 68.3438 962.74 67.4427 963.344 66.7031C963.958 65.9531 964.698 65.3646 965.562 64.9375C966.427 64.5104 967.422 64.2969 968.547 64.2969C969.724 64.2969 970.75 64.5 971.625 64.9062C972.5 65.3125 973.224 65.8698 973.797 66.5781C974.37 67.276 974.802 68.099 975.094 69.0469C975.385 69.9948 975.531 71.0156 975.531 72.1094V73.6406H964.547V75.375C964.547 75.9688 964.656 76.4948 964.875 76.9531C965.104 77.4115 965.411 77.8021 965.797 78.125C966.182 78.4375 966.615 78.6771 967.094 78.8438C967.573 79 968.068 79.0781 968.578 79.0781C969.599 79.0781 970.484 78.8177 971.234 78.2969C971.984 77.776 972.411 76.9479 972.516 75.8125H975.406C975.344 76.6875 975.115 77.4688 974.719 78.1562C974.323 78.8333 973.807 79.4115 973.172 79.8906C972.547 80.3698 971.839 80.7396 971.047 81C970.255 81.2604 969.422 81.3906 968.547 81.3906C967.37 81.3906 966.339 81.1771 965.453 80.75C964.578 80.3229 963.844 79.7344 963.25 78.9844C962.667 78.2344 962.229 77.3385 961.938 76.2969C961.656 75.2552 961.516 74.1042 961.516 72.8438ZM964.547 71.3438H972.547V70.4375C972.547 69.8438 972.438 69.3073 972.219 68.8281C972.01 68.349 971.719 67.9427 971.344 67.6094C970.979 67.276 970.552 67.026 970.062 66.8594C969.583 66.6823 969.078 66.5938 968.547 66.5938C968.016 66.5938 967.51 66.6823 967.031 66.8594C966.552 67.026 966.125 67.276 965.75 67.6094C965.375 67.9427 965.078 68.349 964.859 68.8281C964.651 69.3073 964.547 69.8438 964.547 70.4375V71.3438ZM979.047 72.8438C979.047 71.6042 979.193 70.4583 979.484 69.4062C979.786 68.3438 980.24 67.4427 980.844 66.7031C981.458 65.9531 982.224 65.3646 983.141 64.9375C984.057 64.5104 985.135 64.2969 986.375 64.2969C987.615 64.2969 988.693 64.5104 989.609 64.9375C990.526 65.3646 991.286 65.9531 991.891 66.7031C992.495 67.4427 992.948 68.3438 993.25 69.4062C993.552 70.4583 993.703 71.6042 993.703 72.8438C993.703 74.1042 993.552 75.2552 993.25 76.2969C992.948 77.3385 992.495 78.2344 991.891 78.9844C991.286 79.7344 990.521 80.3229 989.594 80.75C988.677 81.1771 987.604 81.3906 986.375 81.3906C985.135 81.3906 984.057 81.1771 983.141 80.75C982.224 80.3229 981.458 79.7344 980.844 78.9844C980.24 78.2344 979.786 77.3385 979.484 76.2969C979.193 75.2552 979.047 74.1042 979.047 72.8438ZM982.078 75.375C982.078 75.9271 982.193 76.4323 982.422 76.8906C982.661 77.349 982.974 77.7396 983.359 78.0625C983.745 78.375 984.198 78.625 984.719 78.8125C985.24 78.9896 985.792 79.0781 986.375 79.0781C986.948 79.0781 987.495 78.9896 988.016 78.8125C988.536 78.625 988.99 78.375 989.375 78.0625C989.76 77.7396 990.068 77.349 990.297 76.8906C990.536 76.4323 990.656 75.9271 990.656 75.375V70.3125C990.656 69.7604 990.536 69.2552 990.297 68.7969C990.068 68.3385 989.76 67.9479 989.375 67.625C988.99 67.3021 988.536 67.0521 988.016 66.875C987.495 66.6875 986.948 66.5938 986.375 66.5938C985.802 66.5938 985.25 66.6875 984.719 66.875C984.198 67.0521 983.745 67.3021 983.359 67.625C982.974 67.9479 982.661 68.3385 982.422 68.7969C982.193 69.2552 982.078 69.7604 982.078 70.3125V75.375ZM1006.28 86.4375V64.6875H1009.16V67.3438C1009.67 66.3646 1010.35 65.6146 1011.22 65.0938C1012.08 64.5625 1013.14 64.2969 1014.38 64.2969C1015.46 64.2969 1016.41 64.5208 1017.22 64.9688C1018.03 65.4167 1018.7 66.026 1019.23 66.7969C1019.78 67.5573 1020.18 68.4635 1020.44 69.5156C1020.71 70.5573 1020.84 71.6667 1020.84 72.8438C1020.84 74.0417 1020.71 75.1562 1020.44 76.1875C1020.18 77.2188 1019.78 78.1198 1019.23 78.8906C1018.7 79.6615 1018.03 80.2708 1017.22 80.7188C1016.42 81.1667 1015.47 81.3906 1014.38 81.3906C1013.14 81.3906 1012.08 81.1302 1011.22 80.6094C1010.35 80.0781 1009.67 79.3229 1009.16 78.3438V86.4375H1006.28ZM1009.16 74.2188C1009.16 75.625 1009.54 76.7865 1010.31 77.7031C1011.08 78.6198 1012.19 79.0781 1013.64 79.0781C1014.86 79.0781 1015.85 78.7396 1016.62 78.0625C1017.41 77.375 1017.8 76.4792 1017.8 75.375V70.3125C1017.8 69.2083 1017.41 68.3125 1016.62 67.625C1015.85 66.9375 1014.86 66.5938 1013.64 66.5938C1012.19 66.5938 1011.08 67.0573 1010.31 67.9844C1009.54 68.901 1009.16 70.0625 1009.16 71.4688V74.2188ZM1025.38 81V59.2344H1028.25V81H1025.38ZM1032.59 76.5156C1032.59 75.2344 1033 74.1354 1033.81 73.2188C1034.62 72.3021 1035.84 71.7708 1037.47 71.625L1042.78 71.1406V69.8281C1042.78 69.1927 1042.7 68.6667 1042.53 68.25C1042.38 67.8333 1042.15 67.5052 1041.84 67.2656C1041.55 67.0156 1041.2 66.8438 1040.78 66.75C1040.36 66.6458 1039.9 66.5938 1039.39 66.5938C1038.37 66.5938 1037.55 66.8229 1036.94 67.2812C1036.33 67.7396 1036.03 68.4948 1036.03 69.5469H1033.14C1033.14 68.776 1033.31 68.0729 1033.64 67.4375C1033.97 66.7917 1034.42 66.2344 1034.98 65.7656C1035.55 65.2969 1036.21 64.9375 1036.97 64.6875C1037.73 64.4271 1038.55 64.2969 1039.42 64.2969C1040.3 64.2969 1041.11 64.4115 1041.86 64.6406C1042.62 64.8594 1043.28 65.1927 1043.83 65.6406C1044.39 66.0885 1044.82 66.6667 1045.12 67.375C1045.44 68.0729 1045.59 68.901 1045.59 69.8594V78.5312H1048.03V81H1043.16L1043.09 77.9844H1042.97C1042.52 79.1406 1041.86 80 1040.98 80.5625C1040.11 81.1146 1039.06 81.3906 1037.84 81.3906C1037.03 81.3906 1036.3 81.2656 1035.64 81.0156C1034.98 80.7656 1034.42 80.3958 1033.94 79.9062C1033.51 79.4792 1033.18 78.9688 1032.94 78.375C1032.71 77.7812 1032.59 77.1615 1032.59 76.5156ZM1035.64 76.9062C1035.64 77.6562 1035.9 78.2083 1036.42 78.5625C1036.94 78.9062 1037.66 79.0781 1038.58 79.0781C1039.88 79.0781 1040.91 78.6146 1041.66 77.6875C1042.41 76.7604 1042.78 75.5625 1042.78 74.0938V73.3594L1036.98 73.8906C1036.39 73.9323 1036.02 74.0885 1035.86 74.3594C1035.71 74.6302 1035.64 75 1035.64 75.4688V76.9062ZM1049.69 67.1406V64.6875H1052.44V59.2344H1055.28V64.6875H1059.03V67.1406H1055.28V78.5312H1059.03V81H1052.44V67.1406H1049.69ZM1061.47 67.1406V64.6875H1064.22V59.2344H1070.81V61.7031H1067.06V64.6875H1070.48V67.1406H1067.06V81H1064.22V67.1406H1061.47ZM1073.27 72.8438C1073.27 71.6042 1073.41 70.4583 1073.7 69.4062C1074.01 68.3438 1074.46 67.4427 1075.06 66.7031C1075.68 65.9531 1076.44 65.3646 1077.36 64.9375C1078.28 64.5104 1079.35 64.2969 1080.59 64.2969C1081.83 64.2969 1082.91 64.5104 1083.83 64.9375C1084.74 65.3646 1085.51 65.9531 1086.11 66.7031C1086.71 67.4427 1087.17 68.3438 1087.47 69.4062C1087.77 70.4583 1087.92 71.6042 1087.92 72.8438C1087.92 74.1042 1087.77 75.2552 1087.47 76.2969C1087.17 77.3385 1086.71 78.2344 1086.11 78.9844C1085.51 79.7344 1084.74 80.3229 1083.81 80.75C1082.9 81.1771 1081.82 81.3906 1080.59 81.3906C1079.35 81.3906 1078.28 81.1771 1077.36 80.75C1076.44 80.3229 1075.68 79.7344 1075.06 78.9844C1074.46 78.2344 1074.01 77.3385 1073.7 76.2969C1073.41 75.2552 1073.27 74.1042 1073.27 72.8438ZM1076.3 75.375C1076.3 75.9271 1076.41 76.4323 1076.64 76.8906C1076.88 77.349 1077.19 77.7396 1077.58 78.0625C1077.96 78.375 1078.42 78.625 1078.94 78.8125C1079.46 78.9896 1080.01 79.0781 1080.59 79.0781C1081.17 79.0781 1081.71 78.9896 1082.23 78.8125C1082.76 78.625 1083.21 78.375 1083.59 78.0625C1083.98 77.7396 1084.29 77.349 1084.52 76.8906C1084.76 76.4323 1084.88 75.9271 1084.88 75.375V70.3125C1084.88 69.7604 1084.76 69.2552 1084.52 68.7969C1084.29 68.3385 1083.98 67.9479 1083.59 67.625C1083.21 67.3021 1082.76 67.0521 1082.23 66.875C1081.71 66.6875 1081.17 66.5938 1080.59 66.5938C1080.02 66.5938 1079.47 66.6875 1078.94 66.875C1078.42 67.0521 1077.96 67.3021 1077.58 67.625C1077.19 67.9479 1076.88 68.3385 1076.64 68.7969C1076.41 69.2552 1076.3 69.7604 1076.3 70.3125V75.375ZM1092.38 81V64.6875H1100.22V67.1719H1095.25V81H1092.38ZM1103.81 81V64.6875H1106.69V67.375C1107.05 66.4792 1107.61 65.7448 1108.38 65.1719C1109.14 64.5885 1110.09 64.2969 1111.23 64.2969C1112.32 64.2969 1113.28 64.5677 1114.11 65.1094C1114.94 65.651 1115.54 66.5 1115.91 67.6562C1116.25 66.6979 1116.83 65.901 1117.66 65.2656C1118.48 64.6198 1119.49 64.2969 1120.7 64.2969C1121.41 64.2969 1122.07 64.4062 1122.69 64.625C1123.31 64.8333 1123.85 65.1719 1124.31 65.6406C1124.77 66.1094 1125.12 66.7135 1125.38 67.4531C1125.64 68.1823 1125.77 69.0729 1125.77 70.125V81H1122.89V70.4375C1122.89 69.2396 1122.66 68.3021 1122.2 67.625C1121.74 66.9375 1120.98 66.5938 1119.91 66.5938C1119.4 66.5938 1118.92 66.7135 1118.48 66.9531C1118.05 67.1823 1117.66 67.5156 1117.31 67.9531C1116.97 68.3906 1116.7 68.9115 1116.52 69.5156C1116.33 70.1094 1116.23 70.7604 1116.23 71.4688V81H1113.34V70.4375C1113.34 69.2396 1113.11 68.3021 1112.66 67.625C1112.2 66.9375 1111.44 66.5938 1110.38 66.5938C1109.86 66.5938 1109.39 66.7135 1108.95 66.9531C1108.52 67.1823 1108.12 67.5156 1107.78 67.9531C1107.44 68.3906 1107.17 68.9115 1106.97 69.5156C1106.78 70.1094 1106.69 70.7604 1106.69 71.4688V81H1103.81Z" fill="white"/>
<rect x="1406.47" y="47.8667" width="47.8667" height="47.8667" fill="#261EE4"/>
<rect x="384" width="47.8667" height="47.8667" fill="#261EE4"/>
<path d="M1411.79 95.7334H1406.47V101.055H1411.79V95.7334Z" fill="white"/>
<path d="M1417.11 101.055H1411.79V106.376H1417.11V101.055Z" fill="white"/>
<path d="M1422.42 95.7329H1417.1V101.054H1422.42V95.7329Z" fill="white"/>
<path d="M1411.79 106.362H1406.47V111.683H1411.79V106.362Z" fill="white"/>
<path d="M1422.42 106.362H1417.1V111.683H1422.42V106.362Z" fill="white"/>
<path d="M1427.74 101.055H1422.42V106.376H1427.74V101.055Z" fill="white"/>
<path d="M1417.11 111.684H1411.79V117.006H1417.11V111.684Z" fill="white"/>
<path d="M1411.79 117.005H1406.47V122.327H1411.79V117.005Z" fill="white"/>
<path d="M1422.42 117.005H1417.1V122.327H1422.42V117.005Z" fill="white"/>
<path d="M1427.74 111.684H1422.42V117.006H1427.74V111.684Z" fill="white"/>
<path d="M1417.11 122.327H1411.79V127.648H1417.11V122.327Z" fill="white"/>
<path d="M1411.79 127.635H1406.47V132.956H1411.79V127.635Z" fill="white"/>
<path d="M1422.42 127.635H1417.1V132.956H1422.42V127.635Z" fill="white"/>
<path d="M1427.74 122.327H1422.42V127.648H1427.74V122.327Z" fill="white"/>
<path d="M1417.11 132.956H1411.79V138.278H1417.11V132.956Z" fill="white"/>
<path d="M1411.79 138.278H1406.47V143.599H1411.79V138.278Z" fill="white"/>
<path d="M1422.42 138.278H1417.1V143.599H1422.42V138.278Z" fill="white"/>
<path d="M1427.74 132.956H1422.42V138.278H1427.74V132.956Z" fill="white"/>
<path d="M1433.06 95.7329H1427.74V101.054H1433.06V95.7329Z" fill="white"/>
<path d="M1438.38 101.055H1433.06V106.376H1438.38V101.055Z" fill="white"/>
<path d="M1443.69 95.7329H1438.37V101.054H1443.69V95.7329Z" fill="white"/>
<path d="M1433.06 106.362H1427.74V111.683H1433.06V106.362Z" fill="white"/>
<path d="M1443.69 106.362H1438.37V111.683H1443.69V106.362Z" fill="white"/>
<path d="M1449.01 101.055H1443.69V106.376H1449.01V101.055Z" fill="white"/>
<path d="M1438.38 111.684H1433.06V117.006H1438.38V111.684Z" fill="white"/>
<path d="M1433.06 117.005H1427.74V122.327H1433.06V117.005Z" fill="white"/>
<path d="M1443.69 117.005H1438.37V122.327H1443.69V117.005Z" fill="white"/>
<path d="M1449.01 111.684H1443.69V117.006H1449.01V111.684Z" fill="white"/>
<path d="M1438.38 122.327H1433.06V127.648H1438.38V122.327Z" fill="white"/>
<path d="M1433.06 127.635H1427.74V132.956H1433.06V127.635Z" fill="white"/>
<path d="M1443.69 127.635H1438.37V132.956H1443.69V127.635Z" fill="white"/>
<path d="M1449.01 122.327H1443.69V127.648H1449.01V122.327Z" fill="white"/>
<path d="M1438.38 132.956H1433.06V138.278H1438.38V132.956Z" fill="white"/>
<path d="M1433.06 138.278H1427.74V143.599H1433.06V138.278Z" fill="white"/>
<path d="M1443.69 138.278H1438.37V143.599H1443.69V138.278Z" fill="white"/>
<path d="M1454.33 95.7329H1449.01V101.054H1454.33V95.7329Z" fill="white"/>
<path d="M1454.33 106.362H1449.01V111.683H1454.33V106.362Z" fill="white"/>
<path d="M1454.33 117.005H1449.01V122.327H1454.33V117.005Z" fill="white"/>
<path d="M1454.33 127.635H1449.01V132.956H1454.33V127.635Z" fill="white"/>
<path d="M1454.33 138.278H1449.01V143.599H1454.33V138.278Z" fill="white"/>
<path d="M1449.01 132.956H1443.69V138.278H1449.01V132.956Z" fill="white"/>
<path d="M1363.92 0H1358.6V5.32158H1363.92V0Z" fill="black"/>
<path d="M1369.24 5.32178H1363.92V10.6434H1369.24V5.32178Z" fill="black"/>
<path d="M1374.55 0H1369.23V5.32158H1374.55V0Z" fill="black"/>
<path d="M1363.92 10.6289H1358.6V15.9505H1363.92V10.6289Z" fill="black"/>
<path d="M1374.55 10.6289H1369.23V15.9505H1374.55V10.6289Z" fill="black"/>
<path d="M1379.87 5.32178H1374.55V10.6434H1379.87V5.32178Z" fill="black"/>
<path d="M1369.24 15.9512H1363.92V21.2728H1369.24V15.9512Z" fill="black"/>
<path d="M1363.92 21.2725H1358.6V26.594H1363.92V21.2725Z" fill="black"/>
<path d="M1374.55 21.2725H1369.23V26.594H1374.55V21.2725Z" fill="black"/>
<path d="M1379.87 15.9512H1374.55V21.2728H1379.87V15.9512Z" fill="black"/>
<path d="M1369.24 26.5938H1363.92V31.9153H1369.24V26.5938Z" fill="black"/>
<path d="M1363.92 31.9019H1358.6V37.2234H1363.92V31.9019Z" fill="black"/>
<path d="M1374.55 31.9019H1369.23V37.2234H1374.55V31.9019Z" fill="black"/>
<path d="M1379.87 26.5938H1374.55V31.9153H1379.87V26.5938Z" fill="black"/>
<path d="M1369.24 37.2236H1363.92V42.5452H1369.24V37.2236Z" fill="black"/>
<path d="M1363.92 42.5449H1358.6V47.8665H1363.92V42.5449Z" fill="black"/>
<path d="M1374.55 42.5449H1369.23V47.8665H1374.55V42.5449Z" fill="black"/>
<path d="M1379.87 37.2236H1374.55V42.5452H1379.87V37.2236Z" fill="black"/>
<path d="M1385.19 0H1379.87V5.32158H1385.19V0Z" fill="black"/>
<path d="M1390.52 5.32178H1385.19V10.6434H1390.52V5.32178Z" fill="black"/>
<path d="M1395.82 0H1390.5V5.32158H1395.82V0Z" fill="black"/>
<path d="M1385.19 10.6289H1379.87V15.9505H1385.19V10.6289Z" fill="black"/>
<path d="M1395.82 10.6289H1390.5V15.9505H1395.82V10.6289Z" fill="black"/>
<path d="M1401.15 5.32178H1395.82V10.6434H1401.15V5.32178Z" fill="black"/>
<path d="M1390.52 15.9512H1385.19V21.2728H1390.52V15.9512Z" fill="black"/>
<path d="M1385.19 21.2725H1379.87V26.594H1385.19V21.2725Z" fill="black"/>
<path d="M1395.82 21.2725H1390.5V26.594H1395.82V21.2725Z" fill="black"/>
<path d="M1401.15 15.9512H1395.82V21.2728H1401.15V15.9512Z" fill="black"/>
<path d="M1390.52 26.5938H1385.19V31.9153H1390.52V26.5938Z" fill="black"/>
<path d="M1385.19 31.9019H1379.87V37.2234H1385.19V31.9019Z" fill="black"/>
<path d="M1395.82 31.9019H1390.5V37.2234H1395.82V31.9019Z" fill="black"/>
<path d="M1401.15 26.5938H1395.82V31.9153H1401.15V26.5938Z" fill="black"/>
<path d="M1390.52 37.2236H1385.19V42.5452H1390.52V37.2236Z" fill="black"/>
<path d="M1385.19 42.5449H1379.87V47.8665H1385.19V42.5449Z" fill="black"/>
<path d="M1395.82 42.5449H1390.5V47.8665H1395.82V42.5449Z" fill="black"/>
<path d="M1406.47 0H1401.15V5.32158H1406.47V0Z" fill="black"/>
<path d="M1406.47 10.6289H1401.15V15.9505H1406.47V10.6289Z" fill="black"/>
<path d="M1406.47 21.2725H1401.15V26.594H1406.47V21.2725Z" fill="black"/>
<path d="M1406.47 31.9019H1401.15V37.2234H1406.47V31.9019Z" fill="black"/>
<path d="M1406.47 42.5449H1401.15V47.8665H1406.47V42.5449Z" fill="black"/>
<path d="M1401.15 37.2236H1395.82V42.5452H1401.15V37.2236Z" fill="black"/>
<path d="M341.322 48H336V53.3216H341.322V48Z" fill="white"/>
<path d="M346.643 53.3218H341.322V58.6434H346.643V53.3218Z" fill="white"/>
<path d="M351.951 48H346.629V53.3216H351.951V48Z" fill="white"/>
<path d="M341.322 58.6289H336V63.9505H341.322V58.6289Z" fill="white"/>
<path d="M351.951 58.6289H346.629V63.9505H351.951V58.6289Z" fill="white"/>
<path d="M357.273 53.3218H351.951V58.6434H357.273V53.3218Z" fill="white"/>
<path d="M346.643 63.9512H341.322V69.2728H346.643V63.9512Z" fill="white"/>
<path d="M341.322 69.2725H336V74.594H341.322V69.2725Z" fill="white"/>
<path d="M351.951 69.2725H346.629V74.594H351.951V69.2725Z" fill="white"/>
<path d="M357.273 63.9512H351.951V69.2728H357.273V63.9512Z" fill="white"/>
<path d="M346.643 74.5938H341.322V79.9153H346.643V74.5938Z" fill="white"/>
<path d="M341.322 79.9019H336V85.2234H341.322V79.9019Z" fill="white"/>
<path d="M351.951 79.9019H346.629V85.2234H351.951V79.9019Z" fill="white"/>
<path d="M357.273 74.5938H351.951V79.9153H357.273V74.5938Z" fill="white"/>
<path d="M346.643 85.2236H341.322V90.5452H346.643V85.2236Z" fill="white"/>
<path d="M341.322 90.5449H336V95.8665H341.322V90.5449Z" fill="white"/>
<path d="M351.951 90.5449H346.629V95.8665H351.951V90.5449Z" fill="white"/>
<path d="M357.273 85.2236H351.951V90.5452H357.273V85.2236Z" fill="white"/>
<path d="M362.594 48H357.273V53.3216H362.594V48Z" fill="white"/>
<path d="M367.916 53.3218H362.594V58.6434H367.916V53.3218Z" fill="white"/>
<path d="M373.224 48H367.902V53.3216H373.224V48Z" fill="white"/>
<path d="M362.594 58.6289H357.273V63.9505H362.594V58.6289Z" fill="white"/>
<path d="M373.224 58.6289H367.902V63.9505H373.224V58.6289Z" fill="white"/>
<path d="M378.545 53.3218H373.224V58.6434H378.545V53.3218Z" fill="white"/>
<path d="M367.916 63.9512H362.594V69.2728H367.916V63.9512Z" fill="white"/>
<path d="M362.594 69.2725H357.273V74.594H362.594V69.2725Z" fill="white"/>
<path d="M373.224 69.2725H367.902V74.594H373.224V69.2725Z" fill="white"/>
<path d="M378.545 63.9512H373.224V69.2728H378.545V63.9512Z" fill="white"/>
<path d="M367.916 74.5938H362.594V79.9153H367.916V74.5938Z" fill="white"/>
<path d="M362.594 79.9019H357.273V85.2234H362.594V79.9019Z" fill="white"/>
<path d="M373.224 79.9019H367.902V85.2234H373.224V79.9019Z" fill="white"/>
<path d="M378.545 74.5938H373.224V79.9153H378.545V74.5938Z" fill="white"/>
<path d="M367.916 85.2236H362.594V90.5452H367.916V85.2236Z" fill="white"/>
<path d="M362.594 90.5449H357.273V95.8665H362.594V90.5449Z" fill="white"/>
<path d="M373.224 90.5449H367.902V95.8665H373.224V90.5449Z" fill="white"/>
<path d="M383.867 48H378.545V53.3216H383.867V48Z" fill="white"/>
<path d="M383.867 58.6289H378.545V63.9505H383.867V58.6289Z" fill="white"/>
<path d="M383.867 69.2725H378.545V74.594H383.867V69.2725Z" fill="white"/>
<path d="M383.867 79.9019H378.545V85.2234H383.867V79.9019Z" fill="white"/>
<path d="M383.867 90.5449H378.545V95.8665H383.867V90.5449Z" fill="white"/>
<path d="M378.545 85.2236H373.224V90.5452H378.545V85.2236Z" fill="white"/>
<rect x="1417.1" width="5.31852" height="47.8667" fill="#4038FF"/>
<rect x="1427.74" width="5.31852" height="47.8667" fill="#4038FF"/>
<rect x="1438.38" width="5.31852" height="47.8667" fill="#4038FF"/>
<rect x="1449.01" width="5.31852" height="47.8667" fill="#4038FF"/>
<rect x="1406.47" width="5.32158" height="47.8667" fill="#4038FF"/>
<path fill-rule="evenodd" clip-rule="evenodd" d="M1358.6 101.052V95.7334C1385.04 95.7334 1406.47 117.164 1406.47 143.6H1401.15C1401.15 120.101 1382.1 101.052 1358.6 101.052ZM1358.6 111.689V106.371C1379.16 106.371 1395.83 123.039 1395.83 143.6H1390.51C1390.51 125.976 1376.22 111.689 1358.6 111.689ZM1358.6 117.007V122.326C1370.35 122.326 1379.87 131.85 1379.87 143.6L1385.19 143.6C1385.19 128.913 1373.29 117.007 1358.6 117.007ZM1358.6 132.963V127.644C1367.41 127.644 1374.56 134.788 1374.56 143.6H1369.24C1369.24 137.725 1364.47 132.963 1358.6 132.963ZM1358.6 143.6V138.281C1361.54 138.281 1363.92 140.663 1363.92 143.6H1358.6Z" fill="#261EE4"/>
<path fill-rule="evenodd" clip-rule="evenodd" d="M1603.32 143.6L1598 143.6C1598 117.164 1619.43 95.7334 1645.87 95.7334L1645.87 101.052C1622.37 101.052 1603.32 120.101 1603.32 143.6ZM1613.96 143.6L1608.64 143.6C1608.64 123.039 1625.31 106.37 1645.87 106.37L1645.87 111.689C1628.24 111.689 1613.96 125.976 1613.96 143.6ZM1619.27 143.6L1624.59 143.6C1624.59 131.851 1634.12 122.326 1645.87 122.326L1645.87 117.007C1631.18 117.007 1619.27 128.913 1619.27 143.6ZM1635.23 143.6L1629.91 143.6C1629.91 134.788 1637.05 127.644 1645.87 127.644L1645.87 132.963C1639.99 132.963 1635.23 137.725 1635.23 143.6ZM1645.87 143.6L1640.55 143.6C1640.55 140.663 1642.93 138.281 1645.87 138.281L1645.87 143.6Z" fill="#261EE4"/>
<path d="M1310.73 143.6L1358.6 143.6L1358.6 95.7334C1332.16 95.7334 1310.73 117.164 1310.73 143.6Z" fill="#4038FF"/>
<path d="M1314.48 95.7334H1310.73V91.9838L1354.85 47.8667H1358.6V51.6163L1314.48 95.7334ZM1347.32 47.8667H1339.8L1310.73 76.9324V84.4581L1347.32 47.8667ZM1332.27 47.8667H1324.75L1310.73 61.881V69.4067L1332.27 47.8667ZM1310.73 47.8667V54.3553L1317.22 47.8667H1310.73ZM1358.6 66.6677V59.142L1322.01 95.7334H1329.53L1358.6 66.6677ZM1358.6 81.7191V74.1934L1337.06 95.7334H1344.59L1358.6 81.7191ZM1358.6 89.2448L1352.11 95.7334H1358.6V89.2448Z" fill="#261EE4"/>
<path d="M435.75 95.7334H432V91.9838L476.117 47.8667H479.867V51.6163L435.75 95.7334ZM468.591 47.8667H461.066L432 76.9324V84.4581L468.591 47.8667ZM453.54 47.8667H446.014L432 61.881V69.4067L453.54 47.8667ZM432 47.8667V54.3553L438.489 47.8667H432ZM479.867 66.6677V59.142L443.275 95.7334H450.801L479.867 66.6677ZM479.867 81.7191V74.1934L458.327 95.7334H465.852L479.867 81.7191ZM479.867 89.2448L473.378 95.7334H479.867V89.2448Z" fill="#261EE4"/>
<path d="M1215 99.483L1215 95.7334L1218.75 95.7334L1262.87 139.851L1262.87 143.6L1259.12 143.6L1215 99.483ZM1262.87 132.325L1262.87 124.799L1233.8 95.7334L1226.28 95.7334L1262.87 132.325ZM1262.87 117.273L1262.87 109.748L1248.85 95.7334L1241.33 95.7334L1262.87 117.273ZM1262.87 95.7334L1256.38 95.7334L1262.87 102.222L1262.87 95.7334ZM1244.07 143.6L1251.59 143.6L1215 107.009L1215 114.534L1244.07 143.6ZM1229.01 143.6L1236.54 143.6L1215 122.06L1215 129.586L1229.01 143.6ZM1221.49 143.6L1215 137.111L1215 143.6L1221.49 143.6Z" fill="white"/>
</svg>
