<svg xmlns="http://www.w3.org/2000/svg" width="1200" height="490" viewBox="0 0 1200 490">
  <g fill="none" fill-rule="evenodd">
    <path fill="#FFF" fill-rule="nonzero" d="M0 0H1200V490H0z"/>
    <path fill="#4038FF" fill-rule="nonzero" d="M0 0H1200V490H0z"/>
    <path fill="#261EE4" fill-rule="nonzero" d="M1102 294H1200V392H1102zM1004 98H1102V196H1004z"/>
    <path fill="#FFF" fill-rule="nonzero" d="M1112.9 392L1102 392 1102 402.896 1112.9 402.896zM1123.79 402.896L1112.9 402.896 1112.9 413.791 1123.79 413.791zM1134.66 392L1123.76 392 1123.76 402.895 1134.66 402.895zM1112.9 413.762L1102 413.762 1102 424.657 1112.9 424.657z"/>
    <path fill="#FFF" fill-rule="nonzero" d="M1134.66 413.762L1123.76 413.762 1123.76 424.657 1134.66 424.657zM1145.55 402.896L1134.66 402.896 1134.66 413.791 1145.55 413.791zM1123.79 424.657L1112.9 424.657 1112.9 435.552 1123.79 435.552zM1112.9 435.553L1102 435.553 1102 446.448 1112.9 446.448zM1134.66 435.553L1123.76 435.553 1123.76 446.448 1134.66 446.448zM1145.55 424.657L1134.66 424.657 1134.66 435.552 1145.55 435.552z"/>
    <path fill="#FFF" fill-rule="nonzero" d="M1123.79 446.447L1112.9 446.447 1112.9 457.342 1123.79 457.342zM1112.9 457.314L1102 457.314 1102 468.21 1112.9 468.21z"/>
    <path fill="#FFF" fill-rule="nonzero" d="M1134.66 457.314L1123.76 457.314 1123.76 468.21 1134.66 468.21zM1145.55 446.447L1134.66 446.447 1134.66 457.342 1145.55 457.342z"/>
    <path fill="#FFF" fill-rule="nonzero" d="M1123.79 468.209L1112.9 468.209 1112.9 479.105 1123.79 479.105zM1112.9 479.104L1102 479.104 1102 490 1112.9 490z"/>
    <path fill="#FFF" fill-rule="nonzero" d="M1134.66 479.104L1123.76 479.104 1123.76 490 1134.66 490zM1145.55 468.209L1134.66 468.209 1134.66 479.105 1145.55 479.105zM1156.45 392L1145.55 392 1145.55 402.895 1156.45 402.895zM1167.34 402.896L1156.45 402.896 1156.45 413.791 1167.34 413.791zM1178.21 392L1167.31 392 1167.31 402.895 1178.21 402.895zM1156.45 413.762L1145.55 413.762 1145.55 424.657 1156.45 424.657z"/>
    <path fill="#FFF" fill-rule="nonzero" d="M1178.21 413.762L1167.31 413.762 1167.31 424.657 1178.21 424.657zM1189.1 402.896L1178.21 402.896 1178.21 413.791 1189.1 413.791zM1167.34 424.657L1156.45 424.657 1156.45 435.552 1167.34 435.552zM1156.45 435.553L1145.55 435.553 1145.55 446.448 1156.45 446.448zM1178.21 435.553L1167.31 435.553 1167.31 446.448 1178.21 446.448zM1189.1 424.657L1178.21 424.657 1178.21 435.552 1189.1 435.552z"/>
    <path fill="#FFF" fill-rule="nonzero" d="M1167.34 446.447L1156.45 446.447 1156.45 457.342 1167.34 457.342zM1156.45 457.314L1145.55 457.314 1145.55 468.21 1156.45 468.21z"/>
    <path fill="#FFF" fill-rule="nonzero" d="M1178.21 457.314L1167.31 457.314 1167.31 468.21 1178.21 468.21zM1189.1 446.447L1178.21 446.447 1178.21 457.342 1189.1 457.342z"/>
    <path fill="#FFF" fill-rule="nonzero" d="M1167.34 468.209L1156.45 468.209 1156.45 479.105 1167.34 479.105zM1156.45 479.104L1145.55 479.104 1145.55 490 1156.45 490z"/>
    <path fill="#FFF" fill-rule="nonzero" d="M1178.21 479.104L1167.31 479.104 1167.31 490 1178.21 490zM1200 392L1189.1 392 1189.1 402.895 1200 402.895zM1200 413.762L1189.1 413.762 1189.1 424.657 1200 424.657zM1200 435.553L1189.1 435.553 1189.1 446.448 1200 446.448zM1200 457.314L1189.1 457.314 1189.1 468.21 1200 468.21zM1200 479.104L1189.1 479.104 1189.1 490 1200 490zM1189.1 468.209L1178.21 468.209 1178.21 479.105 1189.1 479.105z"/>
    <path fill="#000" fill-rule="nonzero" d="M1014.9 196L1004 196 1004 206.896 1014.9 206.896zM1025.79 206.896L1014.9 206.896 1014.9 217.791 1025.79 217.791zM1036.66 196L1025.76 196 1025.76 206.895 1036.66 206.895zM1014.9 217.762L1004 217.762 1004 228.657 1014.9 228.657z"/>
    <path fill="#000" fill-rule="nonzero" d="M1036.66 217.762L1025.76 217.762 1025.76 228.657 1036.66 228.657zM1047.55 206.896L1036.66 206.896 1036.66 217.791 1047.55 217.791zM1025.79 228.657L1014.9 228.657 1014.9 239.552 1025.79 239.552zM1014.9 239.553L1004 239.553 1004 250.448 1014.9 250.448zM1036.66 239.553L1025.76 239.553 1025.76 250.448 1036.66 250.448zM1047.55 228.657L1036.66 228.657 1036.66 239.552 1047.55 239.552z"/>
    <path fill="#000" fill-rule="nonzero" d="M1025.79 250.447L1014.9 250.447 1014.9 261.342 1025.79 261.342zM1014.9 261.314L1004 261.314 1004 272.21 1014.9 272.21z"/>
    <path fill="#000" fill-rule="nonzero" d="M1036.66 261.314L1025.76 261.314 1025.76 272.21 1036.66 272.21zM1047.55 250.447L1036.66 250.447 1036.66 261.342 1047.55 261.342zM1025.79 272.21L1014.9 272.21 1014.9 283.105 1025.79 283.105zM1014.9 283.104L1004 283.104 1004 294 1014.9 294z"/>
    <path fill="#000" fill-rule="nonzero" d="M1036.66 283.104L1025.76 283.104 1025.76 294 1036.66 294zM1047.55 272.21L1036.66 272.21 1036.66 283.105 1047.55 283.105zM1058.45 196L1047.55 196 1047.55 206.895 1058.45 206.895zM1069.34 206.896L1058.45 206.896 1058.45 217.791 1069.34 217.791zM1080.21 196L1069.31 196 1069.31 206.895 1080.21 206.895zM1058.45 217.762L1047.55 217.762 1047.55 228.657 1058.45 228.657z"/>
    <path fill="#000" fill-rule="nonzero" d="M1080.21 217.762L1069.31 217.762 1069.31 228.657 1080.21 228.657zM1091.1 206.896L1080.21 206.896 1080.21 217.791 1091.1 217.791zM1069.34 228.657L1058.45 228.657 1058.45 239.552 1069.34 239.552zM1058.45 239.553L1047.55 239.553 1047.55 250.448 1058.45 250.448zM1080.21 239.553L1069.31 239.553 1069.31 250.448 1080.21 250.448zM1091.1 228.657L1080.21 228.657 1080.21 239.552 1091.1 239.552z"/>
    <path fill="#000" fill-rule="nonzero" d="M1069.34 250.447L1058.45 250.447 1058.45 261.342 1069.34 261.342zM1058.45 261.314L1047.55 261.314 1047.55 272.21 1058.45 272.21z"/>
    <path fill="#000" fill-rule="nonzero" d="M1080.21 261.314L1069.31 261.314 1069.31 272.21 1080.21 272.21zM1091.1 250.447L1080.21 250.447 1080.21 261.342 1091.1 261.342zM1069.34 272.21L1058.45 272.21 1058.45 283.105 1069.34 283.105zM1058.45 283.104L1047.55 283.104 1047.55 294 1058.45 294z"/>
    <path fill="#000" fill-rule="nonzero" d="M1080.21 283.104L1069.31 283.104 1069.31 294 1080.21 294zM1102 196L1091.11 196 1091.11 206.895 1102 206.895zM1102 217.762L1091.11 217.762 1091.11 228.657 1102 228.657zM1102 239.553L1091.11 239.553 1091.11 250.448 1102 250.448zM1102 261.314L1091.11 261.314 1091.11 272.21 1102 272.21zM1102 283.104L1091.11 283.104 1091.11 294 1102 294zM1091.1 272.21L1080.21 272.21 1080.21 283.105 1091.1 283.105z"/>
    <path fill="#4038FF" fill-rule="nonzero" d="M1123.78 196H1134.6689999999999V294H1123.78zM1145.56 196H1156.4489999999998V294H1145.56zM1167.33 196H1178.2189999999998V294H1167.33zM1189.11 196H1199.9989999999998V294H1189.11zM1102 196H1112.895V294H1102z"/>
    <path fill="#000" fill-rule="nonzero" d="M1145.556 -21.778H1156.445V76.22200000000001H1145.556z" transform="rotate(90 1151 27.222)"/>
    <path fill="#000" fill-rule="nonzero" d="M1145.556 0H1156.445V98H1145.556z" transform="rotate(90 1151 49)"/>
    <path fill="#000" fill-rule="nonzero" d="M1145.556 21.777H1156.445V119.777H1145.556z" transform="rotate(90 1151 70.777)"/>
    <path fill="#000" fill-rule="nonzero" d="M1145.556 43.555H1156.445V141.555H1145.556z" transform="rotate(90 1151 92.555)"/>
    <path fill="#000" fill-rule="nonzero" d="M1145.552 -43.552H1156.447V54.448H1145.552z" transform="rotate(90 1151 5.448)"/>
    <path fill="#261EE4" d="M1004 402.889L1004 392C1058.12 392 1102 435.876 1102 490L1091.11 490C1091.11 441.89 1052.11 402.889 1004 402.889zM1004 424.667L1004 413.778C1046.1 413.778 1080.22 447.904 1080.22 490L1069.33 490C1069.33 453.917 1040.08 424.667 1004 424.667zM1004 435.555L1004 446.444C1028.06 446.444 1047.56 465.945 1047.56 490L1058.44 490C1058.44 459.931 1034.07 435.555 1004 435.555zM1004 468.222L1004 457.333C1022.04 457.333 1036.67 471.958 1036.67 490L1025.78 490C1025.78 477.972 1016.03 468.222 1004 468.222zM1004 490L1004 479.111C1010.01 479.111 1014.89 483.986 1014.89 490L1004 490zM1004 185.111L1004 196C949.876 196 906 152.124 906 98L916.889 98C916.889 146.11 955.89 185.111 1004 185.111zM1004 163.333L1004 174.222C961.904 174.222 927.778 140.096 927.778 98L938.667 98C938.667 134.083 967.917 163.333 1004 163.333zM1004 152.445L1004 141.556C979.945 141.556 960.444 122.055 960.444 98.0001L949.556 98.0001C949.556 128.069 973.931 152.445 1004 152.445zM1004 119.778L1004 130.667C985.959 130.667 971.333 116.041 971.333 98.0001L982.222 98.0001C982.222 110.028 991.972 119.778 1004 119.778zM1004 98.0002L1004 108.889C997.986 108.889 993.111 104.014 993.111 98.0002L1004 98.0002z"/>
    <path fill="#FFF" fill-rule="nonzero" d="M906,0 L906,98 L1004,98 C1004,43.8761 960.124,0 906,0 Z"/>
    <path fill="#4038FF" fill-rule="nonzero" d="M906,490 L1004,490 L1004,392 C949.876,392 906,435.876 906,490 Z"/>
    <path fill="#261EE4" fill-rule="nonzero" d="M913.677,392 L906,392 L906,384.323 L996.323,294 L1004,294 L1004,301.677 L913.677,392 Z M980.916,294 L965.508,294 L906,353.508 L906,368.916 L980.916,294 Z M950.1,294 L934.692,294 L906,322.692 L906,338.1 L950.1,294 Z M906,294 L906,307.284 L919.284,294 L906,294 Z M1004,332.492 L1004,317.084 L929.084,392 L944.492,392 L1004,332.492 Z M1004,363.308 L1004,347.9 L959.9,392 L975.308,392 L1004,363.308 Z M1004,378.716 L990.716,392 L1004,392 L1004,378.716 Z"/>
    <path fill="#FFF" fill-rule="nonzero" d="M710,399.677 L710,392 L717.677,392 L808,482.323 L808,490 L800.323,490 L710,399.677 Z M808,466.916 L808,451.508 L748.492,392 L733.084,392 L808,466.916 Z M808,436.1 L808,420.692 L779.308,392 L763.9,392 L808,436.1 Z M808,392 L794.716,392 L808,405.284 L808,392 Z M769.508,490 L784.916,490 L710,415.084 L710,430.492 L769.508,490 Z M738.692,490 L754.1,490 L710,445.9 L710,461.308 L738.692,490 Z M723.284,490 L710,476.716 L710,490 L723.284,490 Z"/>
    <path fill="#FFF" d="M445.273438,272.242188 C447.981784,272.242188 450.351552,272.802078 452.382812,273.921875 C454.414073,275.041672 456.100254,276.558584 457.441406,278.472656 C458.782559,280.386728 459.785153,282.652331 460.449219,285.269531 C461.113285,287.886732 461.445312,290.666652 461.445312,293.609375 C461.445312,296.604182 461.113285,299.390612 460.449219,301.96875 C459.785153,304.546888 458.782559,306.79947 457.441406,308.726562 C456.100254,310.653655 454.420583,312.177078 452.402344,313.296875 C450.384104,314.416672 448.007826,314.976562 445.273438,314.976562 C442.174464,314.976562 439.544282,314.319017 437.382812,313.003906 C435.221343,311.688796 433.502611,309.807304 432.226562,307.359375 L432.226562,327.59375 L425.039062,327.59375 L425.039062,273.21875 L432.226562,273.21875 L432.226562,279.859375 C433.502611,277.411446 435.221343,275.529954 437.382812,274.214844 C439.544282,272.899733 442.174464,272.242188 445.273438,272.242188 Z M610.78125,272.242188 C613.880224,272.242188 616.575509,272.776036 618.867188,273.84375 C621.158866,274.911464 623.059888,276.376293 624.570312,278.238281 C626.080737,280.10027 627.213538,282.352851 627.96875,284.996094 C628.723962,287.639336 629.101562,290.510401 629.101562,293.609375 C629.101562,296.760432 628.723962,299.638008 627.96875,302.242188 C627.213538,304.846367 626.080737,307.085928 624.570312,308.960938 C623.059888,310.835947 621.152355,312.307286 618.847656,313.375 C616.542957,314.442714 613.854182,314.976562 610.78125,314.976562 C607.682276,314.976562 604.986991,314.442714 602.695312,313.375 C600.403634,312.307286 598.496101,310.835947 596.972656,308.960938 C595.449211,307.085928 594.31641,304.846367 593.574219,302.242188 C592.832028,299.638008 592.460938,296.760432 592.460938,293.609375 C592.460938,290.510401 592.832028,287.639336 593.574219,284.996094 C594.31641,282.352851 595.449211,280.10027 596.972656,278.238281 C598.496101,276.376293 600.403634,274.911464 602.695312,273.84375 C604.986991,272.776036 607.682276,272.242188 610.78125,272.242188 Z M507.890625,272.242188 C510.078136,272.242188 512.115876,272.522133 514.003906,273.082031 C515.891937,273.64193 517.532545,274.481765 518.925781,275.601562 C520.319017,276.72136 521.399736,278.160147 522.167969,279.917969 C522.936202,281.67579 523.320312,283.752592 523.320312,286.148438 L523.320312,307.828125 L529.414062,307.828125 L529.414062,314 L517.226562,314 L517.070312,306.460938 L516.757812,306.460938 C515.638015,309.351577 513.984386,311.493483 511.796875,312.886719 C509.609364,314.279955 506.992203,314.976562 503.945312,314.976562 C501.914052,314.976562 500.078133,314.664066 498.4375,314.039062 C496.796867,313.414059 495.37761,312.489589 494.179688,311.265625 C493.111974,310.197911 492.285159,308.921882 491.699219,307.4375 C491.113278,305.953118 490.820312,304.403654 490.820312,302.789062 C490.820312,299.585921 491.835927,296.838553 493.867188,294.546875 C495.898448,292.255197 498.945292,290.927085 503.007812,290.5625 L516.289062,289.351562 L516.289062,286.070312 C516.289062,284.481763 516.087242,283.166672 515.683594,282.125 C515.279946,281.083328 514.707035,280.256513 513.964844,279.644531 C513.222653,279.032549 512.330734,278.602866 511.289062,278.355469 C510.247391,278.108072 509.088548,277.984375 507.8125,277.984375 C505.260404,277.984375 503.222664,278.557286 501.699219,279.703125 C500.175774,280.848964 499.414062,282.736966 499.414062,285.367188 L492.1875,285.367188 C492.1875,283.440095 492.604163,281.675789 493.4375,280.074219 C494.270837,278.472648 495.390618,277.085943 496.796875,275.914062 C498.203132,274.742182 499.856761,273.837243 501.757812,273.199219 C503.658864,272.561195 505.703114,272.242188 507.890625,272.242188 Z M302.070312,259.585938 L302.070312,314 L294.84375,314 L294.84375,307.359375 C293.567702,309.807304 291.86199,311.688796 289.726562,313.003906 C287.591135,314.319017 285.013036,314.976562 281.992188,314.976562 C279.231757,314.976562 276.829437,314.416672 274.785156,313.296875 C272.740875,312.177078 271.041673,310.653655 269.6875,308.726562 C268.333327,306.79947 267.324222,304.540378 266.660156,301.949219 C265.99609,299.35806 265.664062,296.57814 265.664062,293.609375 C265.664062,290.666652 265.99609,287.886732 266.660156,285.269531 C267.324222,282.652331 268.320306,280.386728 269.648438,278.472656 C270.976569,276.558584 272.65624,275.041672 274.6875,273.921875 C276.71876,272.802078 279.088528,272.242188 281.796875,272.242188 C284.843765,272.242188 287.460927,272.893223 289.648438,274.195312 C291.835948,275.497402 293.567702,277.385404 294.84375,279.859375 L294.84375,259.585938 L302.070312,259.585938 Z M375.3125,272.242188 C378.411474,272.242188 381.106759,272.776036 383.398438,273.84375 C385.690116,274.911464 387.591138,276.376293 389.101562,278.238281 C390.611987,280.10027 391.744788,282.352851 392.5,284.996094 C393.255212,287.639336 393.632812,290.510401 393.632812,293.609375 C393.632812,296.760432 393.255212,299.638008 392.5,302.242188 C391.744788,304.846367 390.611987,307.085928 389.101562,308.960938 C387.591138,310.835947 385.683605,312.307286 383.378906,313.375 C381.074207,314.442714 378.385432,314.976562 375.3125,314.976562 C372.213526,314.976562 369.518241,314.442714 367.226562,313.375 C364.934884,312.307286 363.027351,310.835947 361.503906,308.960938 C359.980461,307.085928 358.84766,304.846367 358.105469,302.242188 C357.363278,299.638008 356.992188,296.760432 356.992188,293.609375 C356.992188,290.510401 357.363278,287.639336 358.105469,284.996094 C358.84766,282.352851 359.980461,280.10027 361.503906,278.238281 C363.027351,276.376293 364.934884,274.911464 367.226562,273.84375 C369.518241,272.776036 372.213526,272.242188 375.3125,272.242188 Z M330.742188,272.242188 C333.684911,272.242188 336.249989,272.749995 338.4375,273.765625 C340.625011,274.781255 342.434889,276.16796 343.867188,277.925781 C345.299486,279.683603 346.380205,281.747384 347.109375,284.117188 C347.838545,286.486991 348.203125,289.039049 348.203125,291.773438 L348.203125,295.601562 L320.742188,295.601562 L320.742188,299.9375 C320.742188,301.421882 321.022133,302.736973 321.582031,303.882812 C322.14193,305.028652 322.903641,305.998694 323.867188,306.792969 C324.830734,307.587244 325.911452,308.186196 327.109375,308.589844 C328.307298,308.993492 329.544264,309.195312 330.820312,309.195312 C333.372409,309.195312 335.585928,308.544277 337.460938,307.242188 C339.335947,305.940098 340.403645,303.869806 340.664062,301.03125 L347.890625,301.03125 C347.734374,303.218761 347.161463,305.165356 346.171875,306.871094 C345.182287,308.576831 343.899747,310.02864 342.324219,311.226562 C340.74869,312.424485 338.971364,313.348955 336.992188,314 C335.013011,314.651045 332.929698,314.976562 330.742188,314.976562 C327.799464,314.976562 325.227876,314.442714 323.027344,313.375 C320.826812,312.307286 318.990893,310.835947 317.519531,308.960938 C316.04817,307.085928 314.954431,304.846367 314.238281,302.242188 C313.522132,299.638008 313.164062,296.760432 313.164062,293.609375 C313.164062,290.510401 313.548173,287.639336 314.316406,284.996094 C315.084639,282.352851 316.230461,280.10027 317.753906,278.238281 C319.277351,276.376293 321.119781,274.911464 323.28125,273.84375 C325.442719,272.776036 327.929673,272.242188 330.742188,272.242188 Z M586.328125,259.585938 L586.328125,265.757812 L576.953125,265.757812 L576.953125,273.21875 L585.507812,273.21875 L585.507812,279.351562 L576.953125,279.351562 L576.953125,314 L569.84375,314 L569.84375,279.351562 L562.96875,279.351562 L562.96875,273.21875 L569.84375,273.21875 L569.84375,259.585938 L586.328125,259.585938 Z M479.960938,259.585938 L479.960938,314 L472.773438,314 L472.773438,259.585938 L479.960938,259.585938 Z M659.804688,273.21875 L659.804688,279.429688 L647.382812,279.429688 L647.382812,314 L640.195312,314 L640.195312,273.21875 L659.804688,273.21875 Z M254.453125,273.21875 L254.453125,314 L247.265625,314 L247.265625,273.21875 L254.453125,273.21875 Z M547.539062,259.585938 L547.539062,273.21875 L556.914062,273.21875 L556.914062,279.351562 L547.539062,279.351562 L547.539062,307.828125 L556.914062,307.828125 L556.914062,314 L540.429688,314 L540.429688,279.351562 L533.554688,279.351562 L533.554688,273.21875 L540.429688,273.21875 L540.429688,259.585938 L547.539062,259.585938 Z M210,273.21875 L220.234375,305.445312 L220.546875,305.445312 L230.976562,273.21875 L238.398438,273.21875 L223.75,314 L216.875,314 L202.226562,273.21875 L210,273.21875 Z M710.976562,272.242188 C712.747405,272.242188 714.407544,272.509112 715.957031,273.042969 C717.506518,273.576826 718.854161,274.429682 720,275.601562 C721.145839,276.773443 722.037757,278.277335 722.675781,280.113281 C723.313805,281.949228 723.632812,284.182279 723.632812,286.8125 L723.632812,314 L716.445312,314 L716.445312,287.59375 C716.445312,284.598943 715.872402,282.248706 714.726562,280.542969 C713.580723,278.837231 711.66668,277.984375 708.984375,277.984375 C707.708327,277.984375 706.523443,278.277341 705.429688,278.863281 C704.335932,279.449222 703.359379,280.289057 702.5,281.382812 C701.640621,282.476568 700.976565,283.772128 700.507812,285.269531 C700.03906,286.766935 699.804688,288.401033 699.804688,290.171875 L699.804688,314 L692.578125,314 L692.578125,287.59375 C692.578125,284.598943 692.005214,282.248706 690.859375,280.542969 C689.713536,278.837231 687.812513,277.984375 685.15625,277.984375 C683.880202,277.984375 682.695318,278.277341 681.601562,278.863281 C680.507807,279.449222 679.531254,280.289057 678.671875,281.382812 C677.812496,282.476568 677.141929,283.772128 676.660156,285.269531 C676.178383,286.766935 675.9375,288.401033 675.9375,290.171875 L675.9375,314 L668.75,314 L668.75,273.21875 L675.9375,273.21875 L675.9375,279.9375 C676.848963,277.697905 678.255199,275.855476 680.15625,274.410156 C682.057301,272.964837 684.44009,272.242188 687.304688,272.242188 C690.013034,272.242188 692.408844,272.919264 694.492188,274.273438 C696.575531,275.627611 698.072912,277.749986 698.984375,280.640625 C699.843754,278.24478 701.302073,276.246102 703.359375,274.644531 C705.416677,273.042961 707.955714,272.242188 710.976562,272.242188 Z M516.289062,294.898438 L501.796875,296.226562 C500.312493,296.33073 499.381512,296.721351 499.003906,297.398438 C498.6263,298.075524 498.4375,298.999994 498.4375,300.171875 L498.4375,303.765625 C498.4375,305.640634 499.088535,307.014319 500.390625,307.886719 C501.692715,308.759119 503.489572,309.195312 505.78125,309.195312 C509.036475,309.195312 511.601553,308.03647 513.476562,305.71875 C515.351572,303.40103 516.289062,300.406268 516.289062,296.734375 L516.289062,294.898438 Z M283.671875,277.984375 C282.187493,277.984375 280.813808,278.212237 279.550781,278.667969 C278.287754,279.1237 277.187505,279.755204 276.25,280.5625 C275.312495,281.369796 274.576826,282.346348 274.042969,283.492188 C273.509112,284.638027 273.242188,285.901035 273.242188,287.28125 L273.242188,299.9375 C273.242188,301.317715 273.509112,302.580723 274.042969,303.726562 C274.576826,304.872402 275.312495,305.842444 276.25,306.636719 C277.187505,307.430994 278.281244,308.055987 279.53125,308.511719 C280.781256,308.96745 282.161451,309.195312 283.671875,309.195312 C287.291685,309.195312 290.058584,308.049491 291.972656,305.757812 C293.886728,303.466134 294.84375,300.562518 294.84375,297.046875 L294.84375,290.171875 C294.84375,286.656232 293.886728,283.746105 291.972656,281.441406 C290.058584,279.136707 287.291685,277.984375 283.671875,277.984375 Z M610.78125,277.984375 C609.348951,277.984375 607.975267,278.212237 606.660156,278.667969 C605.345046,279.1237 604.205734,279.755204 603.242188,280.5625 C602.278641,281.369796 601.503909,282.346348 600.917969,283.492188 C600.332028,284.638027 600.039062,285.901035 600.039062,287.28125 L600.039062,299.9375 C600.039062,301.317715 600.332028,302.580723 600.917969,303.726562 C601.503909,304.872402 602.278641,305.842444 603.242188,306.636719 C604.205734,307.430994 605.338535,308.055987 606.640625,308.511719 C607.942715,308.96745 609.322909,309.195312 610.78125,309.195312 C612.213549,309.195312 613.580723,308.96745 614.882812,308.511719 C616.184902,308.055987 617.317704,307.430994 618.28125,306.636719 C619.244796,305.842444 620.019528,304.872402 620.605469,303.726562 C621.191409,302.580723 621.484375,301.317715 621.484375,299.9375 L621.484375,287.28125 C621.484375,285.901035 621.191409,284.638027 620.605469,283.492188 C620.019528,282.346348 619.244796,281.369796 618.28125,280.5625 C617.317704,279.755204 616.184902,279.1237 614.882812,278.667969 C613.580723,278.212237 612.213549,277.984375 610.78125,277.984375 Z M443.4375,277.984375 C439.81769,277.984375 437.04428,279.136707 435.117188,281.441406 C433.190095,283.746105 432.226562,286.656232 432.226562,290.171875 L432.226562,297.046875 C432.226562,300.562518 433.190095,303.466134 435.117188,305.757812 C437.04428,308.049491 439.81769,309.195312 443.4375,309.195312 C446.48439,309.195312 448.977855,308.342456 450.917969,306.636719 C452.858083,304.930981 453.828125,302.69793 453.828125,299.9375 L453.828125,287.28125 C453.828125,284.52082 452.858083,282.281259 450.917969,280.5625 C448.977855,278.843741 446.48439,277.984375 443.4375,277.984375 Z M375.3125,277.984375 C373.880201,277.984375 372.506517,278.212237 371.191406,278.667969 C369.876296,279.1237 368.736984,279.755204 367.773438,280.5625 C366.809891,281.369796 366.035159,282.346348 365.449219,283.492188 C364.863278,284.638027 364.570312,285.901035 364.570312,287.28125 L364.570312,299.9375 C364.570312,301.317715 364.863278,302.580723 365.449219,303.726562 C366.035159,304.872402 366.809891,305.842444 367.773438,306.636719 C368.736984,307.430994 369.869785,308.055987 371.171875,308.511719 C372.473965,308.96745 373.854159,309.195312 375.3125,309.195312 C376.744799,309.195312 378.111973,308.96745 379.414062,308.511719 C380.716152,308.055987 381.848954,307.430994 382.8125,306.636719 C383.776046,305.842444 384.550778,304.872402 385.136719,303.726562 C385.722659,302.580723 386.015625,301.317715 386.015625,299.9375 L386.015625,287.28125 C386.015625,285.901035 385.722659,284.638027 385.136719,283.492188 C384.550778,282.346348 383.776046,281.369796 382.8125,280.5625 C381.848954,279.755204 380.716152,279.1237 379.414062,278.667969 C378.111973,278.212237 376.744799,277.984375 375.3125,277.984375 Z M330.742188,277.984375 C329.414056,277.984375 328.151048,278.199217 326.953125,278.628906 C325.755202,279.058596 324.687505,279.6901 323.75,280.523438 C322.812495,281.356775 322.076826,282.37239 321.542969,283.570312 C321.009112,284.768235 320.742188,286.109368 320.742188,287.59375 L320.742188,289.859375 L340.742188,289.859375 L340.742188,287.59375 C340.742188,286.109368 340.475263,284.768235 339.941406,283.570312 C339.407549,282.37239 338.67839,281.356775 337.753906,280.523438 C336.829422,279.6901 335.761725,279.058596 334.550781,278.628906 C333.339838,278.199217 332.070319,277.984375 330.742188,277.984375 Z M254.609375,259.585938 L254.609375,267.125 L247.109375,267.125 L247.109375,259.585938 L254.609375,259.585938 Z M484.375,182.242188 C487.42189,182.242188 490.039052,182.893223 492.226562,184.195312 C494.414073,185.497402 496.145827,187.385404 497.421875,189.859375 L497.421875,183.21875 L504.648438,183.21875 L504.648438,223.21875 C504.648438,226.057306 504.14063,228.498688 503.125,230.542969 C502.10937,232.58725 500.774748,234.286452 499.121094,235.640625 C497.46744,236.994798 495.585948,237.990882 493.476562,238.628906 C491.367177,239.26693 489.218761,239.585938 487.03125,239.585938 C484.895823,239.585938 482.858083,239.377606 480.917969,238.960938 C478.977855,238.544269 477.22006,237.841151 475.644531,236.851562 C474.069003,235.861974 472.760422,234.553394 471.71875,232.925781 C470.677078,231.298169 470.000002,229.260429 469.6875,226.8125 L476.875,226.8125 C477.135418,229.156262 478.131502,230.914057 479.863281,232.085938 C481.595061,233.257818 483.880194,233.84375 486.71875,233.84375 C488.098965,233.84375 489.440098,233.641929 490.742188,233.238281 C492.044277,232.834633 493.190099,232.196619 494.179688,231.324219 C495.169276,230.451819 495.957028,229.319017 496.542969,227.925781 C497.128909,226.532545 497.421875,224.846364 497.421875,222.867188 L497.421875,217.359375 C496.145827,219.807304 494.440115,221.688796 492.304688,223.003906 C490.16926,224.319017 487.591161,224.976562 484.570312,224.976562 C481.809882,224.976562 479.407562,224.416672 477.363281,223.296875 C475.319,222.177078 473.619798,220.653655 472.265625,218.726562 C470.911452,216.79947 469.902347,214.540378 469.238281,211.949219 C468.574215,209.35806 468.242188,206.57814 468.242188,203.609375 C468.242188,200.666652 468.574215,197.886732 469.238281,195.269531 C469.902347,192.652331 470.898431,190.386728 472.226562,188.472656 C473.554694,186.558584 475.234365,185.041672 477.265625,183.921875 C479.296885,182.802078 481.666653,182.242188 484.375,182.242188 Z M737.5,182.242188 C740.442723,182.242188 743.007802,182.749995 745.195312,183.765625 C747.382823,184.781255 749.192701,186.16796 750.625,187.925781 C752.057299,189.683603 753.138017,191.747384 753.867188,194.117188 C754.596358,196.486991 754.960938,199.039049 754.960938,201.773438 L754.960938,205.601562 L727.5,205.601562 L727.5,209.9375 C727.5,211.421882 727.779945,212.736973 728.339844,213.882812 C728.899742,215.028652 729.661454,215.998694 730.625,216.792969 C731.588546,217.587244 732.669265,218.186196 733.867188,218.589844 C735.06511,218.993492 736.302077,219.195312 737.578125,219.195312 C740.130221,219.195312 742.343741,218.544277 744.21875,217.242188 C746.093759,215.940098 747.161457,213.869806 747.421875,211.03125 L754.648438,211.03125 C754.492187,213.218761 753.919276,215.165356 752.929688,216.871094 C751.940099,218.576831 750.65756,220.02864 749.082031,221.226562 C747.506503,222.424485 745.729177,223.348955 743.75,224 C741.770823,224.651045 739.687511,224.976562 737.5,224.976562 C734.557277,224.976562 731.985688,224.442714 729.785156,223.375 C727.584624,222.307286 725.748705,220.835947 724.277344,218.960938 C722.805982,217.085928 721.712243,214.846367 720.996094,212.242188 C720.279944,209.638008 719.921875,206.760432 719.921875,203.609375 C719.921875,200.510401 720.305986,197.639336 721.074219,194.996094 C721.842452,192.352851 722.988274,190.10027 724.511719,188.238281 C726.035164,186.376293 727.877593,184.911464 730.039062,183.84375 C732.200532,182.776036 734.687486,182.242188 737.5,182.242188 Z M619.53125,182.242188 C622.473973,182.242188 625.039052,182.749995 627.226562,183.765625 C629.414073,184.781255 631.223951,186.16796 632.65625,187.925781 C634.088549,189.683603 635.169267,191.747384 635.898438,194.117188 C636.627608,196.486991 636.992188,199.039049 636.992188,201.773438 L636.992188,205.601562 L609.53125,205.601562 L609.53125,209.9375 C609.53125,211.421882 609.811195,212.736973 610.371094,213.882812 C610.930992,215.028652 611.692704,215.998694 612.65625,216.792969 C613.619796,217.587244 614.700515,218.186196 615.898438,218.589844 C617.09636,218.993492 618.333327,219.195312 619.609375,219.195312 C622.161471,219.195312 624.374991,218.544277 626.25,217.242188 C628.125009,215.940098 629.192707,213.869806 629.453125,211.03125 L636.679688,211.03125 C636.523437,213.218761 635.950526,215.165356 634.960938,216.871094 C633.971349,218.576831 632.68881,220.02864 631.113281,221.226562 C629.537753,222.424485 627.760427,223.348955 625.78125,224 C623.802073,224.651045 621.718761,224.976562 619.53125,224.976562 C616.588527,224.976562 614.016938,224.442714 611.816406,223.375 C609.615874,222.307286 607.779955,220.835947 606.308594,218.960938 C604.837232,217.085928 603.743493,214.846367 603.027344,212.242188 C602.311194,209.638008 601.953125,206.760432 601.953125,203.609375 C601.953125,200.510401 602.337236,197.639336 603.105469,194.996094 C603.873702,192.352851 605.019524,190.10027 606.542969,188.238281 C608.066414,186.376293 609.908843,184.911464 612.070312,183.84375 C614.231782,182.776036 616.718736,182.242188 619.53125,182.242188 Z M534.0625,182.242188 C537.161474,182.242188 539.856759,182.776036 542.148438,183.84375 C544.440116,184.911464 546.341138,186.376293 547.851562,188.238281 C549.361987,190.10027 550.494788,192.352851 551.25,194.996094 C552.005212,197.639336 552.382812,200.510401 552.382812,203.609375 C552.382812,206.760432 552.005212,209.638008 551.25,212.242188 C550.494788,214.846367 549.361987,217.085928 547.851562,218.960938 C546.341138,220.835947 544.433605,222.307286 542.128906,223.375 C539.824207,224.442714 537.135432,224.976562 534.0625,224.976562 C530.963526,224.976562 528.268241,224.442714 525.976562,223.375 C523.684884,222.307286 521.777351,220.835947 520.253906,218.960938 C518.730461,217.085928 517.59766,214.846367 516.855469,212.242188 C516.113278,209.638008 515.742188,206.760432 515.742188,203.609375 C515.742188,200.510401 516.113278,197.639336 516.855469,194.996094 C517.59766,192.352851 518.730461,190.10027 520.253906,188.238281 C521.777351,186.376293 523.684884,184.911464 525.976562,183.84375 C528.268241,182.776036 530.963526,182.242188 534.0625,182.242188 Z M800.234375,169.585938 L800.234375,224 L793.007812,224 L793.007812,217.359375 C791.731764,219.807304 790.026052,221.688796 787.890625,223.003906 C785.755198,224.319017 783.177098,224.976562 780.15625,224.976562 C777.39582,224.976562 774.9935,224.416672 772.949219,223.296875 C770.904938,222.177078 769.205736,220.653655 767.851562,218.726562 C766.497389,216.79947 765.488285,214.540378 764.824219,211.949219 C764.160153,209.35806 763.828125,206.57814 763.828125,203.609375 C763.828125,200.666652 764.160153,197.886732 764.824219,195.269531 C765.488285,192.652331 766.484368,190.386728 767.8125,188.472656 C769.140632,186.558584 770.820302,185.041672 772.851562,183.921875 C774.882823,182.802078 777.252591,182.242188 779.960938,182.242188 C783.007828,182.242188 785.624989,182.893223 787.8125,184.195312 C790.000011,185.497402 791.731764,187.385404 793.007812,189.859375 L793.007812,169.585938 L800.234375,169.585938 Z M284.296875,183.21875 L284.296875,209.585938 C284.296875,212.528661 284.869786,214.865877 286.015625,216.597656 C287.161464,218.329436 289.257797,219.195312 292.304688,219.195312 C295.351578,219.195312 297.766918,218.062511 299.550781,215.796875 C301.334644,213.531239 302.226562,210.614601 302.226562,207.046875 L302.226562,183.21875 L309.414062,183.21875 L309.414062,224 L302.226562,224 L302.226562,217.28125 C301.106765,219.677095 299.609384,221.558587 297.734375,222.925781 C295.859366,224.292976 293.385432,224.976562 290.3125,224.976562 C288.437491,224.976562 286.686206,224.709638 285.058594,224.175781 C283.430981,223.641924 282.031256,222.789068 280.859375,221.617188 C279.687494,220.445307 278.769535,218.934905 278.105469,217.085938 C277.441403,215.23697 277.109375,213.01043 277.109375,210.40625 L277.109375,183.21875 L284.296875,183.21875 Z M378.828125,182.242188 C381.770848,182.242188 384.335927,182.749995 386.523438,183.765625 C388.710948,184.781255 390.520826,186.16796 391.953125,187.925781 C393.385424,189.683603 394.466142,191.747384 395.195312,194.117188 C395.924483,196.486991 396.289062,199.039049 396.289062,201.773438 L396.289062,205.601562 L368.828125,205.601562 L368.828125,209.9375 C368.828125,211.421882 369.10807,212.736973 369.667969,213.882812 C370.227867,215.028652 370.989579,215.998694 371.953125,216.792969 C372.916671,217.587244 373.99739,218.186196 375.195312,218.589844 C376.393235,218.993492 377.630202,219.195312 378.90625,219.195312 C381.458346,219.195312 383.671866,218.544277 385.546875,217.242188 C387.421884,215.940098 388.489582,213.869806 388.75,211.03125 L395.976562,211.03125 C395.820312,213.218761 395.247401,215.165356 394.257812,216.871094 C393.268224,218.576831 391.985685,220.02864 390.410156,221.226562 C388.834628,222.424485 387.057302,223.348955 385.078125,224 C383.098948,224.651045 381.015636,224.976562 378.828125,224.976562 C375.885402,224.976562 373.313813,224.442714 371.113281,223.375 C368.912749,222.307286 367.07683,220.835947 365.605469,218.960938 C364.134107,217.085928 363.040368,214.846367 362.324219,212.242188 C361.608069,209.638008 361.25,206.760432 361.25,203.609375 C361.25,200.510401 361.634111,197.639336 362.402344,194.996094 C363.170577,192.352851 364.316399,190.10027 365.839844,188.238281 C367.363289,186.376293 369.205718,184.911464 371.367188,183.84375 C373.528657,182.776036 376.015611,182.242188 378.828125,182.242188 Z M336.054688,182.242188 C337.98178,182.242188 339.863272,182.496091 341.699219,183.003906 C343.535165,183.511721 345.175774,184.299474 346.621094,185.367188 C348.066413,186.434901 349.225256,187.795565 350.097656,189.449219 C350.970056,191.102873 351.432291,193.075509 351.484375,195.367188 L344.296875,195.367188 C344.192708,192.658841 343.352872,190.751308 341.777344,189.644531 C340.201815,188.537755 338.320323,187.984375 336.132812,187.984375 C333.893218,187.984375 331.998706,188.518224 330.449219,189.585938 C328.899732,190.653651 328.125,192.046866 328.125,193.765625 C328.125,195.354175 328.580725,196.591141 329.492188,197.476562 C330.40365,198.361984 331.87499,199.013019 333.90625,199.429688 L340.78125,200.875 C344.84377,201.734379 347.858063,203.121084 349.824219,205.035156 C351.790374,206.949228 352.773438,209.559879 352.773438,212.867188 C352.773438,214.585946 352.389327,216.180982 351.621094,217.652344 C350.852861,219.123705 349.746101,220.386713 348.300781,221.441406 C346.855462,222.496099 345.143239,223.348955 343.164062,224 C341.184886,224.651045 338.997408,224.976562 336.601562,224.976562 C334.309884,224.976562 332.167979,224.683597 330.175781,224.097656 C328.183584,223.511716 326.43881,222.639329 324.941406,221.480469 C323.444003,220.321609 322.265629,218.876311 321.40625,217.144531 C320.546871,215.412752 320.091146,213.401053 320.039062,211.109375 L327.265625,211.109375 C327.369792,213.817722 328.339835,215.842441 330.175781,217.183594 C332.011728,218.524746 334.179675,219.195312 336.679688,219.195312 C339.075533,219.195312 341.158845,218.661464 342.929688,217.59375 C344.70053,216.526036 345.585938,214.976573 345.585938,212.945312 C345.585938,211.304679 345.052089,209.989588 343.984375,209 C342.916661,208.010412 341.015639,207.255211 338.28125,206.734375 L331.5625,205.367188 C328.203108,204.664059 325.618499,203.368499 323.808594,201.480469 C321.998689,199.592438 321.09375,197.046891 321.09375,193.84375 C321.09375,192.2552 321.451819,190.751309 322.167969,189.332031 C322.884118,187.912753 323.912754,186.682297 325.253906,185.640625 C326.595059,184.598953 328.170564,183.772138 329.980469,183.160156 C331.790374,182.548174 333.815093,182.242188 336.054688,182.242188 Z M229.453125,169.585938 L248.320312,224 L240.3125,224 L235.859375,210.5625 L214.492188,210.5625 L210,224 L202.148438,224 L220.976562,169.585938 L229.453125,169.585938 Z M695.859375,182.242188 C697.838552,182.242188 699.635409,182.509112 701.25,183.042969 C702.864591,183.576826 704.257807,184.429682 705.429688,185.601562 C706.601568,186.773443 707.513018,188.277335 708.164062,190.113281 C708.815107,191.949228 709.140625,194.182279 709.140625,196.8125 L709.140625,224 L701.914062,224 L701.914062,197.59375 C701.914062,194.598943 701.341152,192.248706 700.195312,190.542969 C699.049473,188.837231 696.927099,187.984375 693.828125,187.984375 C692.343743,187.984375 690.989589,188.277341 689.765625,188.863281 C688.541661,189.449222 687.473963,190.289057 686.5625,191.382812 C685.651037,192.476568 684.941409,193.772128 684.433594,195.269531 C683.925779,196.766935 683.671875,198.401033 683.671875,200.171875 L683.671875,224 L676.484375,224 L676.484375,183.21875 L683.671875,183.21875 L683.671875,189.9375 C684.791672,187.541655 686.328115,185.660163 688.28125,184.292969 C690.234385,182.925774 692.760401,182.242188 695.859375,182.242188 Z M667.539062,183.21875 L667.539062,189.429688 L655.117188,189.429688 L655.117188,224 L647.929688,224 L647.929688,183.21875 L667.539062,183.21875 Z M566.835938,183.21875 L577.070312,215.445312 L577.382812,215.445312 L587.8125,183.21875 L595.234375,183.21875 L580.585938,224 L573.710938,224 L559.0625,183.21875 L566.835938,183.21875 Z M426.835938,183.21875 L426.835938,189.429688 L414.414062,189.429688 L414.414062,224 L407.226562,224 L407.226562,183.21875 L426.835938,183.21875 Z M486.25,187.984375 C484.765618,187.984375 483.391933,188.212237 482.128906,188.667969 C480.865879,189.1237 479.76563,189.755204 478.828125,190.5625 C477.89062,191.369796 477.154951,192.346348 476.621094,193.492188 C476.087237,194.638027 475.820312,195.901035 475.820312,197.28125 L475.820312,209.9375 C475.820312,211.317715 476.087237,212.580723 476.621094,213.726562 C477.154951,214.872402 477.89062,215.842444 478.828125,216.636719 C479.76563,217.430994 480.859369,218.055987 482.109375,218.511719 C483.359381,218.96745 484.739576,219.195312 486.25,219.195312 C489.86981,219.195312 492.636709,218.049491 494.550781,215.757812 C496.464853,213.466134 497.421875,210.562518 497.421875,207.046875 L497.421875,200.171875 C497.421875,196.656232 496.464853,193.746105 494.550781,191.441406 C492.636709,189.136707 489.86981,187.984375 486.25,187.984375 Z M534.0625,187.984375 C532.630201,187.984375 531.256517,188.212237 529.941406,188.667969 C528.626296,189.1237 527.486984,189.755204 526.523438,190.5625 C525.559891,191.369796 524.785159,192.346348 524.199219,193.492188 C523.613278,194.638027 523.320312,195.901035 523.320312,197.28125 L523.320312,209.9375 C523.320312,211.317715 523.613278,212.580723 524.199219,213.726562 C524.785159,214.872402 525.559891,215.842444 526.523438,216.636719 C527.486984,217.430994 528.619785,218.055987 529.921875,218.511719 C531.223965,218.96745 532.604159,219.195312 534.0625,219.195312 C535.494799,219.195312 536.861973,218.96745 538.164062,218.511719 C539.466152,218.055987 540.598954,217.430994 541.5625,216.636719 C542.526046,215.842444 543.300778,214.872402 543.886719,213.726562 C544.472659,212.580723 544.765625,211.317715 544.765625,209.9375 L544.765625,197.28125 C544.765625,195.901035 544.472659,194.638027 543.886719,193.492188 C543.300778,192.346348 542.526046,191.369796 541.5625,190.5625 C540.598954,189.755204 539.466152,189.1237 538.164062,188.667969 C536.861973,188.212237 535.494799,187.984375 534.0625,187.984375 Z M781.835938,187.984375 C780.351555,187.984375 778.977871,188.212237 777.714844,188.667969 C776.451817,189.1237 775.351567,189.755204 774.414062,190.5625 C773.476558,191.369796 772.740888,192.346348 772.207031,193.492188 C771.673174,194.638027 771.40625,195.901035 771.40625,197.28125 L771.40625,209.9375 C771.40625,211.317715 771.673174,212.580723 772.207031,213.726562 C772.740888,214.872402 773.476558,215.842444 774.414062,216.636719 C775.351567,217.430994 776.445306,218.055987 777.695312,218.511719 C778.945319,218.96745 780.325513,219.195312 781.835938,219.195312 C785.455747,219.195312 788.222647,218.049491 790.136719,215.757812 C792.050791,213.466134 793.007812,210.562518 793.007812,207.046875 L793.007812,200.171875 C793.007812,196.656232 792.050791,193.746105 790.136719,191.441406 C788.222647,189.136707 785.455747,187.984375 781.835938,187.984375 Z M457.617188,199.039062 L457.617188,205.601562 L435.234375,205.601562 L435.234375,199.039062 L457.617188,199.039062 Z M225.351562,178.0625 L225.039062,178.0625 L216.484375,204.3125 L233.828125,204.3125 L225.351562,178.0625 Z M378.828125,187.984375 C377.499993,187.984375 376.236985,188.199217 375.039062,188.628906 C373.84114,189.058596 372.773442,189.6901 371.835938,190.523438 C370.898433,191.356775 370.162763,192.37239 369.628906,193.570312 C369.095049,194.768235 368.828125,196.109368 368.828125,197.59375 L368.828125,199.859375 L388.828125,199.859375 L388.828125,197.59375 C388.828125,196.109368 388.561201,194.768235 388.027344,193.570312 C387.493487,192.37239 386.764328,191.356775 385.839844,190.523438 C384.91536,189.6901 383.847662,189.058596 382.636719,188.628906 C381.425775,188.199217 380.156257,187.984375 378.828125,187.984375 Z M737.5,187.984375 C736.171868,187.984375 734.90886,188.199217 733.710938,188.628906 C732.513015,189.058596 731.445317,189.6901 730.507812,190.523438 C729.570308,191.356775 728.834638,192.37239 728.300781,193.570312 C727.766924,194.768235 727.5,196.109368 727.5,197.59375 L727.5,199.859375 L747.5,199.859375 L747.5,197.59375 C747.5,196.109368 747.233076,194.768235 746.699219,193.570312 C746.165362,192.37239 745.436203,191.356775 744.511719,190.523438 C743.587235,189.6901 742.519537,189.058596 741.308594,188.628906 C740.09765,188.199217 738.828132,187.984375 737.5,187.984375 Z M619.53125,187.984375 C618.203118,187.984375 616.94011,188.199217 615.742188,188.628906 C614.544265,189.058596 613.476567,189.6901 612.539062,190.523438 C611.601558,191.356775 610.865888,192.37239 610.332031,193.570312 C609.798174,194.768235 609.53125,196.109368 609.53125,197.59375 L609.53125,199.859375 L629.53125,199.859375 L629.53125,197.59375 C629.53125,196.109368 629.264326,194.768235 628.730469,193.570312 C628.196612,192.37239 627.467453,191.356775 626.542969,190.523438 C625.618485,189.6901 624.550787,189.058596 623.339844,188.628906 C622.1289,188.199217 620.859382,187.984375 619.53125,187.984375 Z"/>
  </g>
</svg>
