<svg width="1200" height="490" viewBox="0 0 1200 490" fill="none" xmlns="http://www.w3.org/2000/svg">
<rect width="1200" height="490" fill="white"/>
<rect width="1200" height="490" fill="#4038FF"/>
<path d="M202.148 222L220.977 167.586H229.453L248.32 222H240.312L235.859 208.562H214.492L210 222H202.148ZM216.484 202.312H233.828L225.352 176.062H225.039L216.484 202.312ZM277.109 208.406V181.219H284.297V207.586C284.297 210.529 284.87 212.872 286.016 214.617C287.161 216.336 289.258 217.195 292.305 217.195C295.352 217.195 297.76 216.062 299.531 213.797C301.328 211.531 302.227 208.615 302.227 205.047V181.219H309.414V222H302.227V215.281C301.107 217.677 299.609 219.565 297.734 220.945C295.859 222.299 293.385 222.977 290.312 222.977C288.438 222.977 286.68 222.703 285.039 222.156C283.424 221.635 282.031 220.789 280.859 219.617C279.688 218.445 278.763 216.935 278.086 215.086C277.435 213.237 277.109 211.01 277.109 208.406ZM320.078 209.109H327.305C327.409 211.818 328.372 213.849 330.195 215.203C332.044 216.531 334.219 217.195 336.719 217.195C339.115 217.195 341.198 216.661 342.969 215.594C344.74 214.526 345.625 212.977 345.625 210.945C345.625 209.305 345.091 207.99 344.023 207C342.956 206.01 341.055 205.255 338.32 204.734L331.602 203.367C328.242 202.664 325.651 201.375 323.828 199.5C322.031 197.599 321.133 195.047 321.133 191.844C321.133 190.255 321.484 188.758 322.188 187.352C322.917 185.919 323.945 184.682 325.273 183.641C326.628 182.599 328.203 181.779 330 181.18C331.823 180.555 333.854 180.242 336.094 180.242C338.021 180.242 339.896 180.503 341.719 181.023C343.568 181.518 345.208 182.299 346.641 183.367C348.099 184.435 349.258 185.802 350.117 187.469C351.003 189.109 351.471 191.076 351.523 193.367H344.336C344.232 190.659 343.385 188.758 341.797 187.664C340.234 186.544 338.359 185.984 336.172 185.984C333.932 185.984 332.031 186.518 330.469 187.586C328.932 188.654 328.164 190.047 328.164 191.766C328.164 193.354 328.62 194.591 329.531 195.477C330.443 196.362 331.914 197.013 333.945 197.43L340.82 198.875C344.883 199.734 347.891 201.128 349.844 203.055C351.823 204.956 352.812 207.56 352.812 210.867C352.812 212.586 352.422 214.188 351.641 215.672C350.885 217.13 349.779 218.393 348.32 219.461C346.888 220.503 345.182 221.349 343.203 222C341.224 222.651 339.036 222.977 336.641 222.977C334.349 222.977 332.201 222.677 330.195 222.078C328.216 221.505 326.471 220.646 324.961 219.5C323.477 218.328 322.305 216.883 321.445 215.164C320.586 213.419 320.13 211.401 320.078 209.109ZM361.289 201.609C361.289 198.51 361.667 195.646 362.422 193.016C363.203 190.359 364.349 188.107 365.859 186.258C367.396 184.383 369.245 182.911 371.406 181.844C373.568 180.776 376.055 180.242 378.867 180.242C381.81 180.242 384.375 180.75 386.562 181.766C388.75 182.781 390.56 184.174 391.992 185.945C393.424 187.69 394.505 189.747 395.234 192.117C395.964 194.487 396.328 197.039 396.328 199.773V203.602H368.867V207.938C368.867 209.422 369.141 210.737 369.688 211.883C370.26 213.029 371.029 214.005 371.992 214.812C372.956 215.594 374.036 216.193 375.234 216.609C376.432 217 377.669 217.195 378.945 217.195C381.497 217.195 383.711 216.544 385.586 215.242C387.461 213.94 388.529 211.87 388.789 209.031H396.016C395.859 211.219 395.286 213.172 394.297 214.891C393.307 216.583 392.018 218.029 390.43 219.227C388.867 220.424 387.096 221.349 385.117 222C383.138 222.651 381.055 222.977 378.867 222.977C375.924 222.977 373.346 222.443 371.133 221.375C368.945 220.307 367.109 218.836 365.625 216.961C364.167 215.086 363.073 212.846 362.344 210.242C361.641 207.638 361.289 204.76 361.289 201.609ZM368.867 197.859H388.867V195.594C388.867 194.109 388.594 192.768 388.047 191.57C387.526 190.372 386.797 189.357 385.859 188.523C384.948 187.69 383.88 187.065 382.656 186.648C381.458 186.206 380.195 185.984 378.867 185.984C377.539 185.984 376.276 186.206 375.078 186.648C373.88 187.065 372.812 187.69 371.875 188.523C370.938 189.357 370.195 190.372 369.648 191.57C369.128 192.768 368.867 194.109 368.867 195.594V197.859ZM407.266 222V181.219H426.875V187.43H414.453V222H407.266ZM454.102 201.609C454.102 198.667 454.427 195.893 455.078 193.289C455.755 190.659 456.758 188.393 458.086 186.492C459.414 184.565 461.094 183.042 463.125 181.922C465.156 180.802 467.526 180.242 470.234 180.242C473.281 180.242 475.898 180.893 478.086 182.195C480.273 183.497 482.005 185.385 483.281 187.859V181.219H490.508V221.219C490.508 224.057 490 226.492 488.984 228.523C487.969 230.581 486.628 232.286 484.961 233.641C483.32 234.995 481.445 235.984 479.336 236.609C477.227 237.26 475.078 237.586 472.891 237.586C470.755 237.586 468.711 237.378 466.758 236.961C464.831 236.544 463.073 235.841 461.484 234.852C459.922 233.862 458.62 232.547 457.578 230.906C456.536 229.292 455.859 227.26 455.547 224.812H462.734C462.995 227.156 463.984 228.914 465.703 230.086C467.448 231.258 469.74 231.844 472.578 231.844C473.958 231.844 475.299 231.635 476.602 231.219C477.904 230.828 479.049 230.19 480.039 229.305C481.029 228.445 481.81 227.312 482.383 225.906C482.982 224.526 483.281 222.846 483.281 220.867V215.359C482.005 217.807 480.299 219.695 478.164 221.023C476.029 222.326 473.451 222.977 470.43 222.977C467.669 222.977 465.26 222.417 463.203 221.297C461.172 220.177 459.479 218.654 458.125 216.727C456.771 214.799 455.755 212.547 455.078 209.969C454.427 207.365 454.102 204.578 454.102 201.609ZM461.68 207.938C461.68 209.318 461.94 210.581 462.461 211.727C463.008 212.872 463.75 213.849 464.688 214.656C465.625 215.438 466.719 216.062 467.969 216.531C469.219 216.974 470.599 217.195 472.109 217.195C475.729 217.195 478.49 216.049 480.391 213.758C482.318 211.466 483.281 208.562 483.281 205.047V198.172C483.281 194.656 482.318 191.753 480.391 189.461C478.49 187.143 475.729 185.984 472.109 185.984C470.625 185.984 469.245 186.219 467.969 186.688C466.719 187.13 465.625 187.755 464.688 188.562C463.75 189.37 463.008 190.346 462.461 191.492C461.94 192.638 461.68 193.901 461.68 195.281V207.938ZM501.602 201.609C501.602 198.51 501.966 195.646 502.695 193.016C503.451 190.359 504.583 188.107 506.094 186.258C507.63 184.383 509.544 182.911 511.836 181.844C514.128 180.776 516.823 180.242 519.922 180.242C523.021 180.242 525.716 180.776 528.008 181.844C530.299 182.911 532.201 184.383 533.711 186.258C535.221 188.107 536.354 190.359 537.109 193.016C537.865 195.646 538.242 198.51 538.242 201.609C538.242 204.76 537.865 207.638 537.109 210.242C536.354 212.846 535.221 215.086 533.711 216.961C532.201 218.836 530.286 220.307 527.969 221.375C525.677 222.443 522.995 222.977 519.922 222.977C516.823 222.977 514.128 222.443 511.836 221.375C509.544 220.307 507.63 218.836 506.094 216.961C504.583 215.086 503.451 212.846 502.695 210.242C501.966 207.638 501.602 204.76 501.602 201.609ZM509.18 207.938C509.18 209.318 509.466 210.581 510.039 211.727C510.638 212.872 511.419 213.849 512.383 214.656C513.346 215.438 514.479 216.062 515.781 216.531C517.083 216.974 518.464 217.195 519.922 217.195C521.354 217.195 522.721 216.974 524.023 216.531C525.326 216.062 526.458 215.438 527.422 214.656C528.385 213.849 529.154 212.872 529.727 211.727C530.326 210.581 530.625 209.318 530.625 207.938V195.281C530.625 193.901 530.326 192.638 529.727 191.492C529.154 190.346 528.385 189.37 527.422 188.562C526.458 187.755 525.326 187.13 524.023 186.688C522.721 186.219 521.354 185.984 519.922 185.984C518.49 185.984 517.109 186.219 515.781 186.688C514.479 187.13 513.346 187.755 512.383 188.562C511.419 189.37 510.638 190.346 510.039 191.492C509.466 192.638 509.18 193.901 509.18 195.281V207.938ZM544.961 181.219H552.734L562.969 213.445H563.281L573.711 181.219H581.133L566.484 222H559.609L544.961 181.219ZM587.852 201.609C587.852 198.51 588.229 195.646 588.984 193.016C589.766 190.359 590.911 188.107 592.422 186.258C593.958 184.383 595.807 182.911 597.969 181.844C600.13 180.776 602.617 180.242 605.43 180.242C608.372 180.242 610.938 180.75 613.125 181.766C615.312 182.781 617.122 184.174 618.555 185.945C619.987 187.69 621.068 189.747 621.797 192.117C622.526 194.487 622.891 197.039 622.891 199.773V203.602H595.43V207.938C595.43 209.422 595.703 210.737 596.25 211.883C596.823 213.029 597.591 214.005 598.555 214.812C599.518 215.594 600.599 216.193 601.797 216.609C602.995 217 604.232 217.195 605.508 217.195C608.06 217.195 610.273 216.544 612.148 215.242C614.023 213.94 615.091 211.87 615.352 209.031H622.578C622.422 211.219 621.849 213.172 620.859 214.891C619.87 216.583 618.581 218.029 616.992 219.227C615.43 220.424 613.659 221.349 611.68 222C609.701 222.651 607.617 222.977 605.43 222.977C602.487 222.977 599.909 222.443 597.695 221.375C595.508 220.307 593.672 218.836 592.188 216.961C590.729 215.086 589.635 212.846 588.906 210.242C588.203 207.638 587.852 204.76 587.852 201.609ZM595.43 197.859H615.43V195.594C615.43 194.109 615.156 192.768 614.609 191.57C614.089 190.372 613.359 189.357 612.422 188.523C611.51 187.69 610.443 187.065 609.219 186.648C608.021 186.206 606.758 185.984 605.43 185.984C604.102 185.984 602.839 186.206 601.641 186.648C600.443 187.065 599.375 187.69 598.438 188.523C597.5 189.357 596.758 190.372 596.211 191.57C595.69 192.768 595.43 194.109 595.43 195.594V197.859ZM633.828 222V181.219H653.438V187.43H641.016V222H633.828ZM662.422 222V181.219H669.609V187.938C670.729 185.542 672.266 183.667 674.219 182.312C676.172 180.932 678.698 180.242 681.797 180.242C683.776 180.242 685.573 180.516 687.188 181.062C688.802 181.583 690.195 182.43 691.367 183.602C692.539 184.773 693.451 186.284 694.102 188.133C694.753 189.956 695.078 192.182 695.078 194.812V222H687.852V195.594C687.852 192.599 687.279 190.255 686.133 188.562C684.987 186.844 682.865 185.984 679.766 185.984C678.281 185.984 676.927 186.284 675.703 186.883C674.479 187.456 673.411 188.289 672.5 189.383C671.589 190.477 670.872 191.779 670.352 193.289C669.857 194.773 669.609 196.401 669.609 198.172V222H662.422ZM705.898 201.609C705.898 198.51 706.276 195.646 707.031 193.016C707.812 190.359 708.958 188.107 710.469 186.258C712.005 184.383 713.854 182.911 716.016 181.844C718.177 180.776 720.664 180.242 723.477 180.242C726.419 180.242 728.984 180.75 731.172 181.766C733.359 182.781 735.169 184.174 736.602 185.945C738.034 187.69 739.115 189.747 739.844 192.117C740.573 194.487 740.938 197.039 740.938 199.773V203.602H713.477V207.938C713.477 209.422 713.75 210.737 714.297 211.883C714.87 213.029 715.638 214.005 716.602 214.812C717.565 215.594 718.646 216.193 719.844 216.609C721.042 217 722.279 217.195 723.555 217.195C726.107 217.195 728.32 216.544 730.195 215.242C732.07 213.94 733.138 211.87 733.398 209.031H740.625C740.469 211.219 739.896 213.172 738.906 214.891C737.917 216.583 736.628 218.029 735.039 219.227C733.477 220.424 731.706 221.349 729.727 222C727.747 222.651 725.664 222.977 723.477 222.977C720.534 222.977 717.956 222.443 715.742 221.375C713.555 220.307 711.719 218.836 710.234 216.961C708.776 215.086 707.682 212.846 706.953 210.242C706.25 207.638 705.898 204.76 705.898 201.609ZM713.477 197.859H733.477V195.594C733.477 194.109 733.203 192.768 732.656 191.57C732.135 190.372 731.406 189.357 730.469 188.523C729.557 187.69 728.49 187.065 727.266 186.648C726.068 186.206 724.805 185.984 723.477 185.984C722.148 185.984 720.885 186.206 719.688 186.648C718.49 187.065 717.422 187.69 716.484 188.523C715.547 189.357 714.805 190.372 714.258 191.57C713.737 192.768 713.477 194.109 713.477 195.594V197.859ZM749.805 201.609C749.805 198.667 750.13 195.893 750.781 193.289C751.458 190.659 752.461 188.393 753.789 186.492C755.117 184.565 756.797 183.042 758.828 181.922C760.859 180.802 763.229 180.242 765.938 180.242C768.984 180.242 771.602 180.893 773.789 182.195C775.977 183.497 777.708 185.385 778.984 187.859V167.586H786.211V222H778.984V215.359C777.708 217.807 776.003 219.695 773.867 221.023C771.732 222.326 769.154 222.977 766.133 222.977C763.372 222.977 760.964 222.417 758.906 221.297C756.875 220.177 755.182 218.654 753.828 216.727C752.474 214.799 751.458 212.547 750.781 209.969C750.13 207.365 749.805 204.578 749.805 201.609ZM757.383 207.938C757.383 209.318 757.643 210.581 758.164 211.727C758.711 212.872 759.453 213.849 760.391 214.656C761.328 215.438 762.422 216.062 763.672 216.531C764.922 216.974 766.302 217.195 767.812 217.195C771.432 217.195 774.193 216.049 776.094 213.758C778.021 211.466 778.984 208.562 778.984 205.047V198.172C778.984 194.656 778.021 191.753 776.094 189.461C774.193 187.143 771.432 185.984 767.812 185.984C766.328 185.984 764.948 186.219 763.672 186.688C762.422 187.13 761.328 187.755 760.391 188.562C759.453 189.37 758.711 190.346 758.164 191.492C757.643 192.638 757.383 193.901 757.383 195.281V207.938ZM202.227 275.219H210L220.234 307.445H220.547L230.977 275.219H238.398L223.75 316H216.875L202.227 275.219ZM247.109 269.125V261.586H254.609V269.125H247.109ZM247.266 316V275.219H254.453V316H247.266ZM265.664 295.609C265.664 292.667 265.99 289.893 266.641 287.289C267.318 284.659 268.32 282.393 269.648 280.492C270.977 278.565 272.656 277.042 274.688 275.922C276.719 274.802 279.089 274.242 281.797 274.242C284.844 274.242 287.461 274.893 289.648 276.195C291.836 277.497 293.568 279.385 294.844 281.859V261.586H302.07V316H294.844V309.359C293.568 311.807 291.862 313.695 289.727 315.023C287.591 316.326 285.013 316.977 281.992 316.977C279.232 316.977 276.823 316.417 274.766 315.297C272.734 314.177 271.042 312.654 269.688 310.727C268.333 308.799 267.318 306.547 266.641 303.969C265.99 301.365 265.664 298.578 265.664 295.609ZM273.242 301.938C273.242 303.318 273.503 304.581 274.023 305.727C274.57 306.872 275.312 307.849 276.25 308.656C277.188 309.438 278.281 310.062 279.531 310.531C280.781 310.974 282.161 311.195 283.672 311.195C287.292 311.195 290.052 310.049 291.953 307.758C293.88 305.466 294.844 302.562 294.844 299.047V292.172C294.844 288.656 293.88 285.753 291.953 283.461C290.052 281.143 287.292 279.984 283.672 279.984C282.188 279.984 280.807 280.219 279.531 280.688C278.281 281.13 277.188 281.755 276.25 282.562C275.312 283.37 274.57 284.346 274.023 285.492C273.503 286.638 273.242 287.901 273.242 289.281V301.938ZM313.164 295.609C313.164 292.51 313.542 289.646 314.297 287.016C315.078 284.359 316.224 282.107 317.734 280.258C319.271 278.383 321.12 276.911 323.281 275.844C325.443 274.776 327.93 274.242 330.742 274.242C333.685 274.242 336.25 274.75 338.438 275.766C340.625 276.781 342.435 278.174 343.867 279.945C345.299 281.69 346.38 283.747 347.109 286.117C347.839 288.487 348.203 291.039 348.203 293.773V297.602H320.742V301.938C320.742 303.422 321.016 304.737 321.562 305.883C322.135 307.029 322.904 308.005 323.867 308.812C324.831 309.594 325.911 310.193 327.109 310.609C328.307 311 329.544 311.195 330.82 311.195C333.372 311.195 335.586 310.544 337.461 309.242C339.336 307.94 340.404 305.87 340.664 303.031H347.891C347.734 305.219 347.161 307.172 346.172 308.891C345.182 310.583 343.893 312.029 342.305 313.227C340.742 314.424 338.971 315.349 336.992 316C335.013 316.651 332.93 316.977 330.742 316.977C327.799 316.977 325.221 316.443 323.008 315.375C320.82 314.307 318.984 312.836 317.5 310.961C316.042 309.086 314.948 306.846 314.219 304.242C313.516 301.638 313.164 298.76 313.164 295.609ZM320.742 291.859H340.742V289.594C340.742 288.109 340.469 286.768 339.922 285.57C339.401 284.372 338.672 283.357 337.734 282.523C336.823 281.69 335.755 281.065 334.531 280.648C333.333 280.206 332.07 279.984 330.742 279.984C329.414 279.984 328.151 280.206 326.953 280.648C325.755 281.065 324.688 281.69 323.75 282.523C322.812 283.357 322.07 284.372 321.523 285.57C321.003 286.768 320.742 288.109 320.742 289.594V291.859ZM356.992 295.609C356.992 292.51 357.357 289.646 358.086 287.016C358.841 284.359 359.974 282.107 361.484 280.258C363.021 278.383 364.935 276.911 367.227 275.844C369.518 274.776 372.214 274.242 375.312 274.242C378.411 274.242 381.107 274.776 383.398 275.844C385.69 276.911 387.591 278.383 389.102 280.258C390.612 282.107 391.745 284.359 392.5 287.016C393.255 289.646 393.633 292.51 393.633 295.609C393.633 298.76 393.255 301.638 392.5 304.242C391.745 306.846 390.612 309.086 389.102 310.961C387.591 312.836 385.677 314.307 383.359 315.375C381.068 316.443 378.385 316.977 375.312 316.977C372.214 316.977 369.518 316.443 367.227 315.375C364.935 314.307 363.021 312.836 361.484 310.961C359.974 309.086 358.841 306.846 358.086 304.242C357.357 301.638 356.992 298.76 356.992 295.609ZM364.57 301.938C364.57 303.318 364.857 304.581 365.43 305.727C366.029 306.872 366.81 307.849 367.773 308.656C368.737 309.438 369.87 310.062 371.172 310.531C372.474 310.974 373.854 311.195 375.312 311.195C376.745 311.195 378.112 310.974 379.414 310.531C380.716 310.062 381.849 309.438 382.812 308.656C383.776 307.849 384.544 306.872 385.117 305.727C385.716 304.581 386.016 303.318 386.016 301.938V289.281C386.016 287.901 385.716 286.638 385.117 285.492C384.544 284.346 383.776 283.37 382.812 282.562C381.849 281.755 380.716 281.13 379.414 280.688C378.112 280.219 376.745 279.984 375.312 279.984C373.88 279.984 372.5 280.219 371.172 280.688C369.87 281.13 368.737 281.755 367.773 282.562C366.81 283.37 366.029 284.346 365.43 285.492C364.857 286.638 364.57 287.901 364.57 289.281V301.938ZM425.078 329.594V275.219H432.266V281.859C433.542 279.411 435.26 277.536 437.422 276.234C439.583 274.906 442.214 274.242 445.312 274.242C448.021 274.242 450.391 274.802 452.422 275.922C454.453 277.042 456.133 278.565 457.461 280.492C458.815 282.393 459.818 284.659 460.469 287.289C461.146 289.893 461.484 292.667 461.484 295.609C461.484 298.604 461.146 301.391 460.469 303.969C459.818 306.547 458.815 308.799 457.461 310.727C456.133 312.654 454.453 314.177 452.422 315.297C450.417 316.417 448.047 316.977 445.312 316.977C442.214 316.977 439.583 316.326 437.422 315.023C435.26 313.695 433.542 311.807 432.266 309.359V329.594H425.078ZM432.266 299.047C432.266 302.562 433.229 305.466 435.156 307.758C437.083 310.049 439.857 311.195 443.477 311.195C446.523 311.195 449.01 310.349 450.938 308.656C452.891 306.938 453.867 304.698 453.867 301.938V289.281C453.867 286.521 452.891 284.281 450.938 282.562C449.01 280.844 446.523 279.984 443.477 279.984C439.857 279.984 437.083 281.143 435.156 283.461C433.229 285.753 432.266 288.656 432.266 292.172V299.047ZM472.812 316V261.586H480V316H472.812ZM490.859 304.789C490.859 301.586 491.875 298.839 493.906 296.547C495.938 294.255 498.984 292.927 503.047 292.562L516.328 291.352V288.07C516.328 286.482 516.12 285.167 515.703 284.125C515.312 283.083 514.74 282.263 513.984 281.664C513.255 281.039 512.37 280.609 511.328 280.375C510.286 280.115 509.128 279.984 507.852 279.984C505.299 279.984 503.255 280.557 501.719 281.703C500.208 282.849 499.453 284.737 499.453 287.367H492.227C492.227 285.44 492.643 283.682 493.477 282.094C494.31 280.479 495.43 279.086 496.836 277.914C498.242 276.742 499.896 275.844 501.797 275.219C503.698 274.568 505.742 274.242 507.93 274.242C510.117 274.242 512.148 274.529 514.023 275.102C515.924 275.648 517.565 276.482 518.945 277.602C520.352 278.721 521.432 280.167 522.188 281.938C522.969 283.682 523.359 285.753 523.359 288.148V309.828H529.453V316H517.266L517.109 308.461H516.797C515.677 311.352 514.023 313.5 511.836 314.906C509.648 316.286 507.031 316.977 503.984 316.977C501.953 316.977 500.117 316.664 498.477 316.039C496.836 315.414 495.417 314.49 494.219 313.266C493.151 312.198 492.318 310.922 491.719 309.438C491.146 307.953 490.859 306.404 490.859 304.789ZM498.477 305.766C498.477 307.641 499.128 309.021 500.43 309.906C501.732 310.766 503.529 311.195 505.82 311.195C509.076 311.195 511.641 310.036 513.516 307.719C515.391 305.401 516.328 302.406 516.328 298.734V296.898L501.836 298.227C500.352 298.331 499.414 298.721 499.023 299.398C498.659 300.076 498.477 301 498.477 302.172V305.766ZM533.594 281.352V275.219H540.469V261.586H547.578V275.219H556.953V281.352H547.578V309.828H556.953V316H540.469V281.352H533.594ZM563.047 281.352V275.219H569.922V261.586H586.406V267.758H577.031V275.219H585.586V281.352H577.031V316H569.922V281.352H563.047ZM592.539 295.609C592.539 292.51 592.904 289.646 593.633 287.016C594.388 284.359 595.521 282.107 597.031 280.258C598.568 278.383 600.482 276.911 602.773 275.844C605.065 274.776 607.76 274.242 610.859 274.242C613.958 274.242 616.654 274.776 618.945 275.844C621.237 276.911 623.138 278.383 624.648 280.258C626.159 282.107 627.292 284.359 628.047 287.016C628.802 289.646 629.18 292.51 629.18 295.609C629.18 298.76 628.802 301.638 628.047 304.242C627.292 306.846 626.159 309.086 624.648 310.961C623.138 312.836 621.224 314.307 618.906 315.375C616.615 316.443 613.932 316.977 610.859 316.977C607.76 316.977 605.065 316.443 602.773 315.375C600.482 314.307 598.568 312.836 597.031 310.961C595.521 309.086 594.388 306.846 593.633 304.242C592.904 301.638 592.539 298.76 592.539 295.609ZM600.117 301.938C600.117 303.318 600.404 304.581 600.977 305.727C601.576 306.872 602.357 307.849 603.32 308.656C604.284 309.438 605.417 310.062 606.719 310.531C608.021 310.974 609.401 311.195 610.859 311.195C612.292 311.195 613.659 310.974 614.961 310.531C616.263 310.062 617.396 309.438 618.359 308.656C619.323 307.849 620.091 306.872 620.664 305.727C621.263 304.581 621.562 303.318 621.562 301.938V289.281C621.562 287.901 621.263 286.638 620.664 285.492C620.091 284.346 619.323 283.37 618.359 282.562C617.396 281.755 616.263 281.13 614.961 280.688C613.659 280.219 612.292 279.984 610.859 279.984C609.427 279.984 608.047 280.219 606.719 280.688C605.417 281.13 604.284 281.755 603.32 282.562C602.357 283.37 601.576 284.346 600.977 285.492C600.404 286.638 600.117 287.901 600.117 289.281V301.938ZM640.312 316V275.219H659.922V281.43H647.5V316H640.312ZM668.906 316V275.219H676.094V281.938C677.005 279.698 678.411 277.862 680.312 276.43C682.214 274.971 684.596 274.242 687.461 274.242C690.169 274.242 692.565 274.919 694.648 276.273C696.732 277.628 698.229 279.75 699.141 282.641C700 280.245 701.458 278.253 703.516 276.664C705.573 275.049 708.112 274.242 711.133 274.242C712.904 274.242 714.557 274.516 716.094 275.062C717.656 275.583 719.01 276.43 720.156 277.602C721.302 278.773 722.188 280.284 722.812 282.133C723.464 283.956 723.789 286.182 723.789 288.812V316H716.602V289.594C716.602 286.599 716.029 284.255 714.883 282.562C713.737 280.844 711.823 279.984 709.141 279.984C707.865 279.984 706.68 280.284 705.586 280.883C704.492 281.456 703.516 282.289 702.656 283.383C701.797 284.477 701.133 285.779 700.664 287.289C700.195 288.773 699.961 290.401 699.961 292.172V316H692.734V289.594C692.734 286.599 692.161 284.255 691.016 282.562C689.87 280.844 687.969 279.984 685.312 279.984C684.036 279.984 682.852 280.284 681.758 280.883C680.664 281.456 679.688 282.289 678.828 283.383C677.969 284.477 677.292 285.779 676.797 287.289C676.328 288.773 676.094 290.401 676.094 292.172V316H668.906Z" fill="white"/>
<rect x="1102" y="294" width="98" height="98" fill="#261EE4"/>
<rect x="1004" y="98" width="98" height="98" fill="#261EE4"/>
<path d="M1112.9 392H1102V402.896H1112.9V392Z" fill="white"/>
<path d="M1123.79 402.896H1112.9V413.791H1123.79V402.896Z" fill="white"/>
<path d="M1134.66 392H1123.76V402.895H1134.66V392Z" fill="white"/>
<path d="M1112.9 413.762H1102V424.657H1112.9V413.762Z" fill="white"/>
<path d="M1134.66 413.762H1123.76V424.657H1134.66V413.762Z" fill="white"/>
<path d="M1145.55 402.896H1134.66V413.791H1145.55V402.896Z" fill="white"/>
<path d="M1123.79 424.657H1112.9V435.552H1123.79V424.657Z" fill="white"/>
<path d="M1112.9 435.553H1102V446.448H1112.9V435.553Z" fill="white"/>
<path d="M1134.66 435.553H1123.76V446.448H1134.66V435.553Z" fill="white"/>
<path d="M1145.55 424.657H1134.66V435.552H1145.55V424.657Z" fill="white"/>
<path d="M1123.79 446.447H1112.9V457.342H1123.79V446.447Z" fill="white"/>
<path d="M1112.9 457.314H1102V468.21H1112.9V457.314Z" fill="white"/>
<path d="M1134.66 457.314H1123.76V468.21H1134.66V457.314Z" fill="white"/>
<path d="M1145.55 446.447H1134.66V457.342H1145.55V446.447Z" fill="white"/>
<path d="M1123.79 468.209H1112.9V479.105H1123.79V468.209Z" fill="white"/>
<path d="M1112.9 479.104H1102V490H1112.9V479.104Z" fill="white"/>
<path d="M1134.66 479.104H1123.76V490H1134.66V479.104Z" fill="white"/>
<path d="M1145.55 468.209H1134.66V479.105H1145.55V468.209Z" fill="white"/>
<path d="M1156.45 392H1145.55V402.895H1156.45V392Z" fill="white"/>
<path d="M1167.34 402.896H1156.45V413.791H1167.34V402.896Z" fill="white"/>
<path d="M1178.21 392H1167.31V402.895H1178.21V392Z" fill="white"/>
<path d="M1156.45 413.762H1145.55V424.657H1156.45V413.762Z" fill="white"/>
<path d="M1178.21 413.762H1167.31V424.657H1178.21V413.762Z" fill="white"/>
<path d="M1189.1 402.896H1178.21V413.791H1189.1V402.896Z" fill="white"/>
<path d="M1167.34 424.657H1156.45V435.552H1167.34V424.657Z" fill="white"/>
<path d="M1156.45 435.553H1145.55V446.448H1156.45V435.553Z" fill="white"/>
<path d="M1178.21 435.553H1167.31V446.448H1178.21V435.553Z" fill="white"/>
<path d="M1189.1 424.657H1178.21V435.552H1189.1V424.657Z" fill="white"/>
<path d="M1167.34 446.447H1156.45V457.342H1167.34V446.447Z" fill="white"/>
<path d="M1156.45 457.314H1145.55V468.21H1156.45V457.314Z" fill="white"/>
<path d="M1178.21 457.314H1167.31V468.21H1178.21V457.314Z" fill="white"/>
<path d="M1189.1 446.447H1178.21V457.342H1189.1V446.447Z" fill="white"/>
<path d="M1167.34 468.209H1156.45V479.105H1167.34V468.209Z" fill="white"/>
<path d="M1156.45 479.104H1145.55V490H1156.45V479.104Z" fill="white"/>
<path d="M1178.21 479.104H1167.31V490H1178.21V479.104Z" fill="white"/>
<path d="M1200 392H1189.1V402.895H1200V392Z" fill="white"/>
<path d="M1200 413.762H1189.1V424.657H1200V413.762Z" fill="white"/>
<path d="M1200 435.553H1189.1V446.448H1200V435.553Z" fill="white"/>
<path d="M1200 457.314H1189.1V468.21H1200V457.314Z" fill="white"/>
<path d="M1200 479.104H1189.1V490H1200V479.104Z" fill="white"/>
<path d="M1189.1 468.209H1178.21V479.105H1189.1V468.209Z" fill="white"/>
<path d="M1014.9 196H1004V206.896H1014.9V196Z" fill="black"/>
<path d="M1025.79 206.896H1014.9V217.791H1025.79V206.896Z" fill="black"/>
<path d="M1036.66 196H1025.76V206.895H1036.66V196Z" fill="black"/>
<path d="M1014.9 217.762H1004V228.657H1014.9V217.762Z" fill="black"/>
<path d="M1036.66 217.762H1025.76V228.657H1036.66V217.762Z" fill="black"/>
<path d="M1047.55 206.896H1036.66V217.791H1047.55V206.896Z" fill="black"/>
<path d="M1025.79 228.657H1014.9V239.552H1025.79V228.657Z" fill="black"/>
<path d="M1014.9 239.553H1004V250.448H1014.9V239.553Z" fill="black"/>
<path d="M1036.66 239.553H1025.76V250.448H1036.66V239.553Z" fill="black"/>
<path d="M1047.55 228.657H1036.66V239.552H1047.55V228.657Z" fill="black"/>
<path d="M1025.79 250.447H1014.9V261.342H1025.79V250.447Z" fill="black"/>
<path d="M1014.9 261.314H1004V272.21H1014.9V261.314Z" fill="black"/>
<path d="M1036.66 261.314H1025.76V272.21H1036.66V261.314Z" fill="black"/>
<path d="M1047.55 250.447H1036.66V261.342H1047.55V250.447Z" fill="black"/>
<path d="M1025.79 272.21H1014.9V283.105H1025.79V272.21Z" fill="black"/>
<path d="M1014.9 283.104H1004V294H1014.9V283.104Z" fill="black"/>
<path d="M1036.66 283.104H1025.76V294H1036.66V283.104Z" fill="black"/>
<path d="M1047.55 272.21H1036.66V283.105H1047.55V272.21Z" fill="black"/>
<path d="M1058.45 196H1047.55V206.895H1058.45V196Z" fill="black"/>
<path d="M1069.34 206.896H1058.45V217.791H1069.34V206.896Z" fill="black"/>
<path d="M1080.21 196H1069.31V206.895H1080.21V196Z" fill="black"/>
<path d="M1058.45 217.762H1047.55V228.657H1058.45V217.762Z" fill="black"/>
<path d="M1080.21 217.762H1069.31V228.657H1080.21V217.762Z" fill="black"/>
<path d="M1091.1 206.896H1080.21V217.791H1091.1V206.896Z" fill="black"/>
<path d="M1069.34 228.657H1058.45V239.552H1069.34V228.657Z" fill="black"/>
<path d="M1058.45 239.553H1047.55V250.448H1058.45V239.553Z" fill="black"/>
<path d="M1080.21 239.553H1069.31V250.448H1080.21V239.553Z" fill="black"/>
<path d="M1091.1 228.657H1080.21V239.552H1091.1V228.657Z" fill="black"/>
<path d="M1069.34 250.447H1058.45V261.342H1069.34V250.447Z" fill="black"/>
<path d="M1058.45 261.314H1047.55V272.21H1058.45V261.314Z" fill="black"/>
<path d="M1080.21 261.314H1069.31V272.21H1080.21V261.314Z" fill="black"/>
<path d="M1091.1 250.447H1080.21V261.342H1091.1V250.447Z" fill="black"/>
<path d="M1069.34 272.21H1058.45V283.105H1069.34V272.21Z" fill="black"/>
<path d="M1058.45 283.104H1047.55V294H1058.45V283.104Z" fill="black"/>
<path d="M1080.21 283.104H1069.31V294H1080.21V283.104Z" fill="black"/>
<path d="M1102 196H1091.11V206.895H1102V196Z" fill="black"/>
<path d="M1102 217.762H1091.11V228.657H1102V217.762Z" fill="black"/>
<path d="M1102 239.553H1091.11V250.448H1102V239.553Z" fill="black"/>
<path d="M1102 261.314H1091.11V272.21H1102V261.314Z" fill="black"/>
<path d="M1102 283.104H1091.11V294H1102V283.104Z" fill="black"/>
<path d="M1091.1 272.21H1080.21V283.105H1091.1V272.21Z" fill="black"/>
<rect x="1123.78" y="196" width="10.8889" height="98" fill="#4038FF"/>
<rect x="1145.56" y="196" width="10.8889" height="98" fill="#4038FF"/>
<rect x="1167.33" y="196" width="10.8889" height="98" fill="#4038FF"/>
<rect x="1189.11" y="196" width="10.8889" height="98" fill="#4038FF"/>
<rect x="1102" y="196" width="10.8951" height="98" fill="#4038FF"/>
<rect x="1200" y="21.7778" width="10.8889" height="98" transform="rotate(90 1200 21.7778)" fill="black"/>
<rect x="1200" y="43.5557" width="10.8889" height="98" transform="rotate(90 1200 43.5557)" fill="black"/>
<rect x="1200" y="65.333" width="10.8889" height="98" transform="rotate(90 1200 65.333)" fill="black"/>
<rect x="1200" y="87.1108" width="10.8889" height="98" transform="rotate(90 1200 87.1108)" fill="black"/>
<rect x="1200" width="10.8951" height="98" transform="rotate(90 1200 0)" fill="black"/>
<path fill-rule="evenodd" clip-rule="evenodd" d="M1004 402.889V392C1058.12 392 1102 435.876 1102 490H1091.11C1091.11 441.89 1052.11 402.889 1004 402.889ZM1004 424.667V413.778C1046.1 413.778 1080.22 447.904 1080.22 490H1069.33C1069.33 453.917 1040.08 424.667 1004 424.667ZM1004 435.555V446.444C1028.06 446.444 1047.56 465.945 1047.56 490H1058.44C1058.44 459.931 1034.07 435.555 1004 435.555ZM1004 468.222V457.333C1022.04 457.333 1036.67 471.958 1036.67 490H1025.78C1025.78 477.972 1016.03 468.222 1004 468.222ZM1004 490V479.111C1010.01 479.111 1014.89 483.986 1014.89 490H1004Z" fill="#261EE4"/>
<path fill-rule="evenodd" clip-rule="evenodd" d="M1004 185.111L1004 196C949.876 196 906 152.124 906 98L916.889 98C916.889 146.11 955.89 185.111 1004 185.111ZM1004 163.333L1004 174.222C961.904 174.222 927.778 140.096 927.778 98L938.667 98C938.667 134.083 967.917 163.333 1004 163.333ZM1004 152.445L1004 141.556C979.945 141.556 960.444 122.055 960.444 98.0001L949.556 98.0001C949.556 128.069 973.931 152.445 1004 152.445ZM1004 119.778L1004 130.667C985.959 130.667 971.333 116.041 971.333 98.0001L982.222 98.0002C982.222 110.028 991.972 119.778 1004 119.778ZM1004 98.0002L1004 108.889C997.986 108.889 993.111 104.014 993.111 98.0002L1004 98.0002Z" fill="#261EE4"/>
<path d="M906 0V98H1004C1004 43.8761 960.124 0 906 0Z" fill="white"/>
<path d="M906 490L1004 490L1004 392C949.876 392 906 435.876 906 490Z" fill="#4038FF"/>
<path d="M913.677 392H906V384.323L996.323 294H1004V301.677L913.677 392ZM980.916 294H965.508L906 353.508V368.916L980.916 294ZM950.1 294H934.692L906 322.692V338.1L950.1 294ZM906 294V307.284L919.284 294H906ZM1004 332.492V317.084L929.084 392H944.492L1004 332.492ZM1004 363.308V347.9L959.9 392H975.308L1004 363.308ZM1004 378.716L990.716 392H1004V378.716Z" fill="#261EE4"/>
<path d="M710 399.677L710 392L717.677 392L808 482.323L808 490L800.323 490L710 399.677ZM808 466.916L808 451.508L748.492 392L733.084 392L808 466.916ZM808 436.1L808 420.692L779.308 392L763.9 392L808 436.1ZM808 392L794.716 392L808 405.284L808 392ZM769.508 490L784.916 490L710 415.084L710 430.492L769.508 490ZM738.692 490L754.1 490L710 445.9L710 461.308L738.692 490ZM723.284 490L710 476.716L710 490L723.284 490Z" fill="white"/>
</svg>
