<svg width="1800" height="144" viewBox="0 0 1800 144" fill="none" xmlns="http://www.w3.org/2000/svg">
<rect width="1800" height="144" fill="white"/>
<rect width="1800" height="144" fill="#4038FF"/>
<path d="M669.875 81L677.406 59.2344H680.797L688.344 81H685.141L683.359 75.625H674.812L673.016 81H669.875ZM675.609 73.125H682.547L679.156 62.625H679.031L675.609 73.125ZM699.859 75.5625V64.6875H702.734V75.2344C702.734 76.4115 702.964 77.349 703.422 78.0469C703.88 78.7344 704.719 79.0781 705.938 79.0781C707.156 79.0781 708.12 78.625 708.828 77.7188C709.547 76.8125 709.906 75.6458 709.906 74.2188V64.6875H712.781V81H709.906V78.3125C709.458 79.2708 708.859 80.026 708.109 80.5781C707.359 81.1198 706.37 81.3906 705.141 81.3906C704.391 81.3906 703.688 81.2812 703.031 81.0625C702.385 80.8542 701.828 80.5156 701.359 80.0469C700.891 79.5781 700.521 78.974 700.25 78.2344C699.99 77.4948 699.859 76.6042 699.859 75.5625ZM717.047 75.8438H719.938C719.979 76.9271 720.365 77.7396 721.094 78.2812C721.833 78.8125 722.703 79.0781 723.703 79.0781C724.661 79.0781 725.495 78.8646 726.203 78.4375C726.911 78.0104 727.266 77.3906 727.266 76.5781C727.266 75.9219 727.052 75.3958 726.625 75C726.198 74.6042 725.438 74.3021 724.344 74.0938L721.656 73.5469C720.312 73.2656 719.276 72.75 718.547 72C717.828 71.2396 717.469 70.2188 717.469 68.9375C717.469 68.3021 717.609 67.7031 717.891 67.1406C718.182 66.5677 718.594 66.0729 719.125 65.6562C719.667 65.2396 720.297 64.9115 721.016 64.6719C721.745 64.4219 722.557 64.2969 723.453 64.2969C724.224 64.2969 724.974 64.401 725.703 64.6094C726.443 64.8073 727.099 65.1198 727.672 65.5469C728.255 65.974 728.719 66.5208 729.062 67.1875C729.417 67.8438 729.604 68.6302 729.625 69.5469H726.75C726.708 68.4635 726.37 67.7031 725.734 67.2656C725.109 66.8177 724.359 66.5938 723.484 66.5938C722.589 66.5938 721.828 66.8073 721.203 67.2344C720.589 67.6615 720.281 68.2188 720.281 68.9062C720.281 69.5417 720.464 70.0365 720.828 70.3906C721.193 70.7448 721.781 71.0052 722.594 71.1719L725.344 71.75C726.969 72.0938 728.172 72.651 728.953 73.4219C729.745 74.1823 730.141 75.224 730.141 76.5469C730.141 77.2344 729.984 77.875 729.672 78.4688C729.37 79.0521 728.927 79.5573 728.344 79.9844C727.771 80.401 727.089 80.7396 726.297 81C725.505 81.2604 724.63 81.3906 723.672 81.3906C722.755 81.3906 721.896 81.2708 721.094 81.0312C720.302 80.8021 719.604 80.4583 719 80C718.406 79.5312 717.938 78.9531 717.594 78.2656C717.25 77.5677 717.068 76.7604 717.047 75.8438ZM733.531 72.8438C733.531 71.6042 733.682 70.4583 733.984 69.4062C734.297 68.3438 734.755 67.4427 735.359 66.7031C735.974 65.9531 736.714 65.3646 737.578 64.9375C738.443 64.5104 739.438 64.2969 740.562 64.2969C741.74 64.2969 742.766 64.5 743.641 64.9062C744.516 65.3125 745.24 65.8698 745.812 66.5781C746.385 67.276 746.818 68.099 747.109 69.0469C747.401 69.9948 747.547 71.0156 747.547 72.1094V73.6406H736.562V75.375C736.562 75.9688 736.672 76.4948 736.891 76.9531C737.12 77.4115 737.427 77.8021 737.812 78.125C738.198 78.4375 738.63 78.6771 739.109 78.8438C739.589 79 740.083 79.0781 740.594 79.0781C741.615 79.0781 742.5 78.8177 743.25 78.2969C744 77.776 744.427 76.9479 744.531 75.8125H747.422C747.359 76.6875 747.13 77.4688 746.734 78.1562C746.339 78.8333 745.823 79.4115 745.188 79.8906C744.562 80.3698 743.854 80.7396 743.062 81C742.271 81.2604 741.438 81.3906 740.562 81.3906C739.385 81.3906 738.354 81.1771 737.469 80.75C736.594 80.3229 735.859 79.7344 735.266 78.9844C734.682 78.2344 734.245 77.3385 733.953 76.2969C733.672 75.2552 733.531 74.1042 733.531 72.8438ZM736.562 71.3438H744.562V70.4375C744.562 69.8438 744.453 69.3073 744.234 68.8281C744.026 68.349 743.734 67.9427 743.359 67.6094C742.995 67.276 742.568 67.026 742.078 66.8594C741.599 66.6823 741.094 66.5938 740.562 66.5938C740.031 66.5938 739.526 66.6823 739.047 66.8594C738.568 67.026 738.141 67.276 737.766 67.6094C737.391 67.9427 737.094 68.349 736.875 68.8281C736.667 69.3073 736.562 69.8438 736.562 70.4375V71.3438ZM751.922 81V64.6875H759.766V67.1719H754.797V81H751.922ZM763.141 73.6406V71.0156H772.094V73.6406H763.141ZM776.344 72.8438C776.344 71.6667 776.474 70.5573 776.734 69.5156C777.005 68.4635 777.406 67.5573 777.938 66.7969C778.469 66.026 779.141 65.4167 779.953 64.9688C780.766 64.5208 781.714 64.2969 782.797 64.2969C784.016 64.2969 785.062 64.5573 785.938 65.0781C786.812 65.599 787.505 66.3542 788.016 67.3438V64.6875H790.906V80.6875C790.906 81.8229 790.703 82.7969 790.297 83.6094C789.891 84.4323 789.354 85.1146 788.688 85.6562C788.031 86.1979 787.281 86.5938 786.438 86.8438C785.594 87.1042 784.734 87.2344 783.859 87.2344C783.005 87.2344 782.188 87.151 781.406 86.9844C780.635 86.8177 779.932 86.5365 779.297 86.1406C778.672 85.7448 778.151 85.2188 777.734 84.5625C777.318 83.9167 777.047 83.1042 776.922 82.125H779.797C779.901 83.0625 780.297 83.7656 780.984 84.2344C781.682 84.7031 782.599 84.9375 783.734 84.9375C784.286 84.9375 784.823 84.8542 785.344 84.6875C785.865 84.5312 786.323 84.276 786.719 83.9219C787.115 83.5781 787.427 83.125 787.656 82.5625C787.896 82.0104 788.016 81.3385 788.016 80.5469V78.3438C787.505 79.3229 786.823 80.0781 785.969 80.6094C785.115 81.1302 784.083 81.3906 782.875 81.3906C781.771 81.3906 780.807 81.1667 779.984 80.7188C779.172 80.2708 778.495 79.6615 777.953 78.8906C777.411 78.1198 777.005 77.2188 776.734 76.1875C776.474 75.1458 776.344 74.0312 776.344 72.8438ZM779.375 75.375C779.375 75.9271 779.479 76.4323 779.688 76.8906C779.906 77.349 780.203 77.7396 780.578 78.0625C780.953 78.375 781.391 78.625 781.891 78.8125C782.391 78.9896 782.943 79.0781 783.547 79.0781C784.995 79.0781 786.099 78.6198 786.859 77.7031C787.63 76.7865 788.016 75.625 788.016 74.2188V71.4688C788.016 70.0625 787.63 68.901 786.859 67.9844C786.099 67.0573 784.995 66.5938 783.547 66.5938C782.953 66.5938 782.401 66.6875 781.891 66.875C781.391 67.0521 780.953 67.3021 780.578 67.625C780.203 67.9479 779.906 68.3385 779.688 68.7969C779.479 69.2552 779.375 69.7604 779.375 70.3125V75.375ZM795.344 72.8438C795.344 71.6042 795.49 70.4583 795.781 69.4062C796.083 68.3438 796.536 67.4427 797.141 66.7031C797.755 65.9531 798.521 65.3646 799.438 64.9375C800.354 64.5104 801.432 64.2969 802.672 64.2969C803.911 64.2969 804.99 64.5104 805.906 64.9375C806.823 65.3646 807.583 65.9531 808.188 66.7031C808.792 67.4427 809.245 68.3438 809.547 69.4062C809.849 70.4583 810 71.6042 810 72.8438C810 74.1042 809.849 75.2552 809.547 76.2969C809.245 77.3385 808.792 78.2344 808.188 78.9844C807.583 79.7344 806.818 80.3229 805.891 80.75C804.974 81.1771 803.901 81.3906 802.672 81.3906C801.432 81.3906 800.354 81.1771 799.438 80.75C798.521 80.3229 797.755 79.7344 797.141 78.9844C796.536 78.2344 796.083 77.3385 795.781 76.2969C795.49 75.2552 795.344 74.1042 795.344 72.8438ZM798.375 75.375C798.375 75.9271 798.49 76.4323 798.719 76.8906C798.958 77.349 799.271 77.7396 799.656 78.0625C800.042 78.375 800.495 78.625 801.016 78.8125C801.536 78.9896 802.089 79.0781 802.672 79.0781C803.245 79.0781 803.792 78.9896 804.312 78.8125C804.833 78.625 805.286 78.375 805.672 78.0625C806.057 77.7396 806.365 77.349 806.594 76.8906C806.833 76.4323 806.953 75.9271 806.953 75.375V70.3125C806.953 69.7604 806.833 69.2552 806.594 68.7969C806.365 68.3385 806.057 67.9479 805.672 67.625C805.286 67.3021 804.833 67.0521 804.312 66.875C803.792 66.6875 803.245 66.5938 802.672 66.5938C802.099 66.5938 801.547 66.6875 801.016 66.875C800.495 67.0521 800.042 67.3021 799.656 67.625C799.271 67.9479 798.958 68.3385 798.719 68.7969C798.49 69.2552 798.375 69.7604 798.375 70.3125V75.375ZM812.688 64.6875H815.797L819.891 77.5781H820.016L824.188 64.6875H827.156L821.297 81H818.547L812.688 64.6875ZM829.844 72.8438C829.844 71.6042 829.995 70.4583 830.297 69.4062C830.609 68.3438 831.068 67.4427 831.672 66.7031C832.286 65.9531 833.026 65.3646 833.891 64.9375C834.755 64.5104 835.75 64.2969 836.875 64.2969C838.052 64.2969 839.078 64.5 839.953 64.9062C840.828 65.3125 841.552 65.8698 842.125 66.5781C842.698 67.276 843.13 68.099 843.422 69.0469C843.714 69.9948 843.859 71.0156 843.859 72.1094V73.6406H832.875V75.375C832.875 75.9688 832.984 76.4948 833.203 76.9531C833.432 77.4115 833.74 77.8021 834.125 78.125C834.51 78.4375 834.943 78.6771 835.422 78.8438C835.901 79 836.396 79.0781 836.906 79.0781C837.927 79.0781 838.812 78.8177 839.562 78.2969C840.312 77.776 840.74 76.9479 840.844 75.8125H843.734C843.672 76.6875 843.443 77.4688 843.047 78.1562C842.651 78.8333 842.135 79.4115 841.5 79.8906C840.875 80.3698 840.167 80.7396 839.375 81C838.583 81.2604 837.75 81.3906 836.875 81.3906C835.698 81.3906 834.667 81.1771 833.781 80.75C832.906 80.3229 832.172 79.7344 831.578 78.9844C830.995 78.2344 830.557 77.3385 830.266 76.2969C829.984 75.2552 829.844 74.1042 829.844 72.8438ZM832.875 71.3438H840.875V70.4375C840.875 69.8438 840.766 69.3073 840.547 68.8281C840.339 68.349 840.047 67.9427 839.672 67.6094C839.307 67.276 838.88 67.026 838.391 66.8594C837.911 66.6823 837.406 66.5938 836.875 66.5938C836.344 66.5938 835.839 66.6823 835.359 66.8594C834.88 67.026 834.453 67.276 834.078 67.6094C833.703 67.9427 833.406 68.349 833.188 68.8281C832.979 69.3073 832.875 69.8438 832.875 70.4375V71.3438ZM848.234 81V64.6875H856.078V67.1719H851.109V81H848.234ZM859.672 81V64.6875H862.547V67.375C862.995 66.4167 863.609 65.6667 864.391 65.125C865.172 64.5729 866.182 64.2969 867.422 64.2969C868.214 64.2969 868.932 64.4062 869.578 64.625C870.224 64.8333 870.781 65.1719 871.25 65.6406C871.719 66.1094 872.083 66.7135 872.344 67.4531C872.604 68.1823 872.734 69.0729 872.734 70.125V81H869.844V70.4375C869.844 69.2396 869.615 68.3021 869.156 67.625C868.698 66.9375 867.849 66.5938 866.609 66.5938C866.016 66.5938 865.474 66.7135 864.984 66.9531C864.495 67.1823 864.068 67.5156 863.703 67.9531C863.339 68.3906 863.052 68.9115 862.844 69.5156C862.646 70.1094 862.547 70.7604 862.547 71.4688V81H859.672ZM877.062 72.8438C877.062 71.6042 877.214 70.4583 877.516 69.4062C877.828 68.3438 878.286 67.4427 878.891 66.7031C879.505 65.9531 880.245 65.3646 881.109 64.9375C881.974 64.5104 882.969 64.2969 884.094 64.2969C885.271 64.2969 886.297 64.5 887.172 64.9062C888.047 65.3125 888.771 65.8698 889.344 66.5781C889.917 67.276 890.349 68.099 890.641 69.0469C890.932 69.9948 891.078 71.0156 891.078 72.1094V73.6406H880.094V75.375C880.094 75.9688 880.203 76.4948 880.422 76.9531C880.651 77.4115 880.958 77.8021 881.344 78.125C881.729 78.4375 882.161 78.6771 882.641 78.8438C883.12 79 883.615 79.0781 884.125 79.0781C885.146 79.0781 886.031 78.8177 886.781 78.2969C887.531 77.776 887.958 76.9479 888.062 75.8125H890.953C890.891 76.6875 890.661 77.4688 890.266 78.1562C889.87 78.8333 889.354 79.4115 888.719 79.8906C888.094 80.3698 887.385 80.7396 886.594 81C885.802 81.2604 884.969 81.3906 884.094 81.3906C882.917 81.3906 881.885 81.1771 881 80.75C880.125 80.3229 879.391 79.7344 878.797 78.9844C878.214 78.2344 877.776 77.3385 877.484 76.2969C877.203 75.2552 877.062 74.1042 877.062 72.8438ZM880.094 71.3438H888.094V70.4375C888.094 69.8438 887.984 69.3073 887.766 68.8281C887.557 68.349 887.266 67.9427 886.891 67.6094C886.526 67.276 886.099 67.026 885.609 66.8594C885.13 66.6823 884.625 66.5938 884.094 66.5938C883.562 66.5938 883.057 66.6823 882.578 66.8594C882.099 67.026 881.672 67.276 881.297 67.6094C880.922 67.9427 880.625 68.349 880.406 68.8281C880.198 69.3073 880.094 69.8438 880.094 70.4375V71.3438ZM894.625 72.8438C894.625 71.6667 894.755 70.5573 895.016 69.5156C895.286 68.4635 895.688 67.5573 896.219 66.7969C896.75 66.026 897.422 65.4167 898.234 64.9688C899.047 64.5208 899.995 64.2969 901.078 64.2969C902.297 64.2969 903.344 64.5573 904.219 65.0781C905.094 65.599 905.786 66.3542 906.297 67.3438V59.2344H909.188V81H906.297V78.3438C905.786 79.3229 905.104 80.0781 904.25 80.6094C903.396 81.1302 902.365 81.3906 901.156 81.3906C900.052 81.3906 899.089 81.1667 898.266 80.7188C897.453 80.2708 896.776 79.6615 896.234 78.8906C895.693 78.1198 895.286 77.2188 895.016 76.1875C894.755 75.1458 894.625 74.0312 894.625 72.8438ZM897.656 75.375C897.656 75.9271 897.76 76.4323 897.969 76.8906C898.188 77.349 898.484 77.7396 898.859 78.0625C899.234 78.375 899.672 78.625 900.172 78.8125C900.672 78.9896 901.224 79.0781 901.828 79.0781C903.276 79.0781 904.38 78.6198 905.141 77.7031C905.911 76.7865 906.297 75.625 906.297 74.2188V71.4688C906.297 70.0625 905.911 68.901 905.141 67.9844C904.38 67.0573 903.276 66.5938 901.828 66.5938C901.234 66.5938 900.682 66.6875 900.172 66.875C899.672 67.0521 899.234 67.3021 898.859 67.625C898.484 67.9479 898.188 68.3385 897.969 68.7969C897.76 69.2552 897.656 69.7604 897.656 70.3125V75.375ZM920.844 64.6875H923.953L928.047 77.5781H928.172L932.344 64.6875H935.312L929.453 81H926.703L920.844 64.6875ZM938.797 62.25V59.2344H941.797V62.25H938.797ZM938.859 81V64.6875H941.734V81H938.859ZM946.219 72.8438C946.219 71.6667 946.349 70.5573 946.609 69.5156C946.88 68.4635 947.281 67.5573 947.812 66.7969C948.344 66.026 949.016 65.4167 949.828 64.9688C950.641 64.5208 951.589 64.2969 952.672 64.2969C953.891 64.2969 954.938 64.5573 955.812 65.0781C956.688 65.599 957.38 66.3542 957.891 67.3438V59.2344H960.781V81H957.891V78.3438C957.38 79.3229 956.698 80.0781 955.844 80.6094C954.99 81.1302 953.958 81.3906 952.75 81.3906C951.646 81.3906 950.682 81.1667 949.859 80.7188C949.047 80.2708 948.37 79.6615 947.828 78.8906C947.286 78.1198 946.88 77.2188 946.609 76.1875C946.349 75.1458 946.219 74.0312 946.219 72.8438ZM949.25 75.375C949.25 75.9271 949.354 76.4323 949.562 76.8906C949.781 77.349 950.078 77.7396 950.453 78.0625C950.828 78.375 951.266 78.625 951.766 78.8125C952.266 78.9896 952.818 79.0781 953.422 79.0781C954.87 79.0781 955.974 78.6198 956.734 77.7031C957.505 76.7865 957.891 75.625 957.891 74.2188V71.4688C957.891 70.0625 957.505 68.901 956.734 67.9844C955.974 67.0573 954.87 66.5938 953.422 66.5938C952.828 66.5938 952.276 66.6875 951.766 66.875C951.266 67.0521 950.828 67.3021 950.453 67.625C950.078 67.9479 949.781 68.3385 949.562 68.7969C949.354 69.2552 949.25 69.7604 949.25 70.3125V75.375ZM965.219 72.8438C965.219 71.6042 965.37 70.4583 965.672 69.4062C965.984 68.3438 966.443 67.4427 967.047 66.7031C967.661 65.9531 968.401 65.3646 969.266 64.9375C970.13 64.5104 971.125 64.2969 972.25 64.2969C973.427 64.2969 974.453 64.5 975.328 64.9062C976.203 65.3125 976.927 65.8698 977.5 66.5781C978.073 67.276 978.505 68.099 978.797 69.0469C979.089 69.9948 979.234 71.0156 979.234 72.1094V73.6406H968.25V75.375C968.25 75.9688 968.359 76.4948 968.578 76.9531C968.807 77.4115 969.115 77.8021 969.5 78.125C969.885 78.4375 970.318 78.6771 970.797 78.8438C971.276 79 971.771 79.0781 972.281 79.0781C973.302 79.0781 974.188 78.8177 974.938 78.2969C975.688 77.776 976.115 76.9479 976.219 75.8125H979.109C979.047 76.6875 978.818 77.4688 978.422 78.1562C978.026 78.8333 977.51 79.4115 976.875 79.8906C976.25 80.3698 975.542 80.7396 974.75 81C973.958 81.2604 973.125 81.3906 972.25 81.3906C971.073 81.3906 970.042 81.1771 969.156 80.75C968.281 80.3229 967.547 79.7344 966.953 78.9844C966.37 78.2344 965.932 77.3385 965.641 76.2969C965.359 75.2552 965.219 74.1042 965.219 72.8438ZM968.25 71.3438H976.25V70.4375C976.25 69.8438 976.141 69.3073 975.922 68.8281C975.714 68.349 975.422 67.9427 975.047 67.6094C974.682 67.276 974.255 67.026 973.766 66.8594C973.286 66.6823 972.781 66.5938 972.25 66.5938C971.719 66.5938 971.214 66.6823 970.734 66.8594C970.255 67.026 969.828 67.276 969.453 67.6094C969.078 67.9427 968.781 68.349 968.562 68.8281C968.354 69.3073 968.25 69.8438 968.25 70.4375V71.3438ZM982.75 72.8438C982.75 71.6042 982.896 70.4583 983.188 69.4062C983.49 68.3438 983.943 67.4427 984.547 66.7031C985.161 65.9531 985.927 65.3646 986.844 64.9375C987.76 64.5104 988.839 64.2969 990.078 64.2969C991.318 64.2969 992.396 64.5104 993.312 64.9375C994.229 65.3646 994.99 65.9531 995.594 66.7031C996.198 67.4427 996.651 68.3438 996.953 69.4062C997.255 70.4583 997.406 71.6042 997.406 72.8438C997.406 74.1042 997.255 75.2552 996.953 76.2969C996.651 77.3385 996.198 78.2344 995.594 78.9844C994.99 79.7344 994.224 80.3229 993.297 80.75C992.38 81.1771 991.307 81.3906 990.078 81.3906C988.839 81.3906 987.76 81.1771 986.844 80.75C985.927 80.3229 985.161 79.7344 984.547 78.9844C983.943 78.2344 983.49 77.3385 983.188 76.2969C982.896 75.2552 982.75 74.1042 982.75 72.8438ZM985.781 75.375C985.781 75.9271 985.896 76.4323 986.125 76.8906C986.365 77.349 986.677 77.7396 987.062 78.0625C987.448 78.375 987.901 78.625 988.422 78.8125C988.943 78.9896 989.495 79.0781 990.078 79.0781C990.651 79.0781 991.198 78.9896 991.719 78.8125C992.24 78.625 992.693 78.375 993.078 78.0625C993.464 77.7396 993.771 77.349 994 76.8906C994.24 76.4323 994.359 75.9271 994.359 75.375V70.3125C994.359 69.7604 994.24 69.2552 994 68.7969C993.771 68.3385 993.464 67.9479 993.078 67.625C992.693 67.3021 992.24 67.0521 991.719 66.875C991.198 66.6875 990.651 66.5938 990.078 66.5938C989.505 66.5938 988.953 66.6875 988.422 66.875C987.901 67.0521 987.448 67.3021 987.062 67.625C986.677 67.9479 986.365 68.3385 986.125 68.7969C985.896 69.2552 985.781 69.7604 985.781 70.3125V75.375ZM1009.98 86.4375V64.6875H1012.86V67.3438C1013.37 66.3646 1014.06 65.6146 1014.92 65.0938C1015.79 64.5625 1016.84 64.2969 1018.08 64.2969C1019.16 64.2969 1020.11 64.5208 1020.92 64.9688C1021.73 65.4167 1022.41 66.026 1022.94 66.7969C1023.48 67.5573 1023.88 68.4635 1024.14 69.5156C1024.41 70.5573 1024.55 71.6667 1024.55 72.8438C1024.55 74.0417 1024.41 75.1562 1024.14 76.1875C1023.88 77.2188 1023.48 78.1198 1022.94 78.8906C1022.41 79.6615 1021.73 80.2708 1020.92 80.7188C1020.12 81.1667 1019.17 81.3906 1018.08 81.3906C1016.84 81.3906 1015.79 81.1302 1014.92 80.6094C1014.06 80.0781 1013.37 79.3229 1012.86 78.3438V86.4375H1009.98ZM1012.86 74.2188C1012.86 75.625 1013.24 76.7865 1014.02 77.7031C1014.79 78.6198 1015.9 79.0781 1017.34 79.0781C1018.56 79.0781 1019.56 78.7396 1020.33 78.0625C1021.11 77.375 1021.5 76.4792 1021.5 75.375V70.3125C1021.5 69.2083 1021.11 68.3125 1020.33 67.625C1019.56 66.9375 1018.56 66.5938 1017.34 66.5938C1015.9 66.5938 1014.79 67.0573 1014.02 67.9844C1013.24 68.901 1012.86 70.0625 1012.86 71.4688V74.2188ZM1029.08 81V59.2344H1031.95V81H1029.08ZM1036.3 76.5156C1036.3 75.2344 1036.7 74.1354 1037.52 73.2188C1038.33 72.3021 1039.55 71.7708 1041.17 71.625L1046.48 71.1406V69.8281C1046.48 69.1927 1046.4 68.6667 1046.23 68.25C1046.08 67.8333 1045.85 67.5052 1045.55 67.2656C1045.26 67.0156 1044.9 66.8438 1044.48 66.75C1044.07 66.6458 1043.6 66.5938 1043.09 66.5938C1042.07 66.5938 1041.26 66.8229 1040.64 67.2812C1040.04 67.7396 1039.73 68.4948 1039.73 69.5469H1036.84C1036.84 68.776 1037.01 68.0729 1037.34 67.4375C1037.68 66.7917 1038.12 66.2344 1038.69 65.7656C1039.25 65.2969 1039.91 64.9375 1040.67 64.6875C1041.43 64.4271 1042.25 64.2969 1043.12 64.2969C1044 64.2969 1044.81 64.4115 1045.56 64.6406C1046.32 64.8594 1046.98 65.1927 1047.53 65.6406C1048.09 66.0885 1048.53 66.6667 1048.83 67.375C1049.14 68.0729 1049.3 68.901 1049.3 69.8594V78.5312H1051.73V81H1046.86L1046.8 77.9844H1046.67C1046.22 79.1406 1045.56 80 1044.69 80.5625C1043.81 81.1146 1042.77 81.3906 1041.55 81.3906C1040.73 81.3906 1040 81.2656 1039.34 81.0156C1038.69 80.7656 1038.12 80.3958 1037.64 79.9062C1037.21 79.4792 1036.88 78.9688 1036.64 78.375C1036.41 77.7812 1036.3 77.1615 1036.3 76.5156ZM1039.34 76.9062C1039.34 77.6562 1039.6 78.2083 1040.12 78.5625C1040.65 78.9062 1041.36 79.0781 1042.28 79.0781C1043.58 79.0781 1044.61 78.6146 1045.36 77.6875C1046.11 76.7604 1046.48 75.5625 1046.48 74.0938V73.3594L1040.69 73.8906C1040.09 73.9323 1039.72 74.0885 1039.56 74.3594C1039.42 74.6302 1039.34 75 1039.34 75.4688V76.9062ZM1053.39 67.1406V64.6875H1056.14V59.2344H1058.98V64.6875H1062.73V67.1406H1058.98V78.5312H1062.73V81H1056.14V67.1406H1053.39ZM1065.17 67.1406V64.6875H1067.92V59.2344H1074.52V61.7031H1070.77V64.6875H1074.19V67.1406H1070.77V81H1067.92V67.1406H1065.17ZM1076.97 72.8438C1076.97 71.6042 1077.11 70.4583 1077.41 69.4062C1077.71 68.3438 1078.16 67.4427 1078.77 66.7031C1079.38 65.9531 1080.15 65.3646 1081.06 64.9375C1081.98 64.5104 1083.06 64.2969 1084.3 64.2969C1085.54 64.2969 1086.61 64.5104 1087.53 64.9375C1088.45 65.3646 1089.21 65.9531 1089.81 66.7031C1090.42 67.4427 1090.87 68.3438 1091.17 69.4062C1091.47 70.4583 1091.62 71.6042 1091.62 72.8438C1091.62 74.1042 1091.47 75.2552 1091.17 76.2969C1090.87 77.3385 1090.42 78.2344 1089.81 78.9844C1089.21 79.7344 1088.44 80.3229 1087.52 80.75C1086.6 81.1771 1085.53 81.3906 1084.3 81.3906C1083.06 81.3906 1081.98 81.1771 1081.06 80.75C1080.15 80.3229 1079.38 79.7344 1078.77 78.9844C1078.16 78.2344 1077.71 77.3385 1077.41 76.2969C1077.11 75.2552 1076.97 74.1042 1076.97 72.8438ZM1080 75.375C1080 75.9271 1080.11 76.4323 1080.34 76.8906C1080.58 77.349 1080.9 77.7396 1081.28 78.0625C1081.67 78.375 1082.12 78.625 1082.64 78.8125C1083.16 78.9896 1083.71 79.0781 1084.3 79.0781C1084.87 79.0781 1085.42 78.9896 1085.94 78.8125C1086.46 78.625 1086.91 78.375 1087.3 78.0625C1087.68 77.7396 1087.99 77.349 1088.22 76.8906C1088.46 76.4323 1088.58 75.9271 1088.58 75.375V70.3125C1088.58 69.7604 1088.46 69.2552 1088.22 68.7969C1087.99 68.3385 1087.68 67.9479 1087.3 67.625C1086.91 67.3021 1086.46 67.0521 1085.94 66.875C1085.42 66.6875 1084.87 66.5938 1084.3 66.5938C1083.72 66.5938 1083.17 66.6875 1082.64 66.875C1082.12 67.0521 1081.67 67.3021 1081.28 67.625C1080.9 67.9479 1080.58 68.3385 1080.34 68.7969C1080.11 69.2552 1080 69.7604 1080 70.3125V75.375ZM1096.08 81V64.6875H1103.92V67.1719H1098.95V81H1096.08ZM1107.52 81V64.6875H1110.39V67.375C1110.76 66.4792 1111.32 65.7448 1112.08 65.1719C1112.84 64.5885 1113.79 64.2969 1114.94 64.2969C1116.02 64.2969 1116.98 64.5677 1117.81 65.1094C1118.65 65.651 1119.24 66.5 1119.61 67.6562C1119.95 66.6979 1120.54 65.901 1121.36 65.2656C1122.18 64.6198 1123.2 64.2969 1124.41 64.2969C1125.11 64.2969 1125.78 64.4062 1126.39 64.625C1127.02 64.8333 1127.56 65.1719 1128.02 65.6406C1128.47 66.1094 1128.83 66.7135 1129.08 67.4531C1129.34 68.1823 1129.47 69.0729 1129.47 70.125V81H1126.59V70.4375C1126.59 69.2396 1126.36 68.3021 1125.91 67.625C1125.45 66.9375 1124.68 66.5938 1123.61 66.5938C1123.1 66.5938 1122.62 66.7135 1122.19 66.9531C1121.75 67.1823 1121.36 67.5156 1121.02 67.9531C1120.67 68.3906 1120.41 68.9115 1120.22 69.5156C1120.03 70.1094 1119.94 70.7604 1119.94 71.4688V81H1117.05V70.4375C1117.05 69.2396 1116.82 68.3021 1116.36 67.625C1115.9 66.9375 1115.14 66.5938 1114.08 66.5938C1113.57 66.5938 1113.09 66.7135 1112.66 66.9531C1112.22 67.1823 1111.83 67.5156 1111.48 67.9531C1111.14 68.3906 1110.87 68.9115 1110.67 69.5156C1110.48 70.1094 1110.39 70.7604 1110.39 71.4688V81H1107.52Z" fill="white"/>
<rect x="1406.47" y="47.8667" width="47.8667" height="47.8667" fill="#261EE4"/>
<rect x="384" width="47.8667" height="47.8667" fill="#261EE4"/>
<path d="M1411.79 95.7334H1406.47V101.055H1411.79V95.7334Z" fill="white"/>
<path d="M1417.11 101.055H1411.79V106.376H1417.11V101.055Z" fill="white"/>
<path d="M1422.42 95.7329H1417.1V101.054H1422.42V95.7329Z" fill="white"/>
<path d="M1411.79 106.362H1406.47V111.683H1411.79V106.362Z" fill="white"/>
<path d="M1422.42 106.362H1417.1V111.683H1422.42V106.362Z" fill="white"/>
<path d="M1427.74 101.055H1422.42V106.376H1427.74V101.055Z" fill="white"/>
<path d="M1417.11 111.684H1411.79V117.006H1417.11V111.684Z" fill="white"/>
<path d="M1411.79 117.005H1406.47V122.327H1411.79V117.005Z" fill="white"/>
<path d="M1422.42 117.005H1417.1V122.327H1422.42V117.005Z" fill="white"/>
<path d="M1427.74 111.684H1422.42V117.006H1427.74V111.684Z" fill="white"/>
<path d="M1417.11 122.327H1411.79V127.648H1417.11V122.327Z" fill="white"/>
<path d="M1411.79 127.635H1406.47V132.956H1411.79V127.635Z" fill="white"/>
<path d="M1422.42 127.635H1417.1V132.956H1422.42V127.635Z" fill="white"/>
<path d="M1427.74 122.327H1422.42V127.648H1427.74V122.327Z" fill="white"/>
<path d="M1417.11 132.956H1411.79V138.278H1417.11V132.956Z" fill="white"/>
<path d="M1411.79 138.278H1406.47V143.599H1411.79V138.278Z" fill="white"/>
<path d="M1422.42 138.278H1417.1V143.599H1422.42V138.278Z" fill="white"/>
<path d="M1427.74 132.956H1422.42V138.278H1427.74V132.956Z" fill="white"/>
<path d="M1433.06 95.7329H1427.74V101.054H1433.06V95.7329Z" fill="white"/>
<path d="M1438.38 101.055H1433.06V106.376H1438.38V101.055Z" fill="white"/>
<path d="M1443.69 95.7329H1438.37V101.054H1443.69V95.7329Z" fill="white"/>
<path d="M1433.06 106.362H1427.74V111.683H1433.06V106.362Z" fill="white"/>
<path d="M1443.69 106.362H1438.37V111.683H1443.69V106.362Z" fill="white"/>
<path d="M1449.01 101.055H1443.69V106.376H1449.01V101.055Z" fill="white"/>
<path d="M1438.38 111.684H1433.06V117.006H1438.38V111.684Z" fill="white"/>
<path d="M1433.06 117.005H1427.74V122.327H1433.06V117.005Z" fill="white"/>
<path d="M1443.69 117.005H1438.37V122.327H1443.69V117.005Z" fill="white"/>
<path d="M1449.01 111.684H1443.69V117.006H1449.01V111.684Z" fill="white"/>
<path d="M1438.38 122.327H1433.06V127.648H1438.38V122.327Z" fill="white"/>
<path d="M1433.06 127.635H1427.74V132.956H1433.06V127.635Z" fill="white"/>
<path d="M1443.69 127.635H1438.37V132.956H1443.69V127.635Z" fill="white"/>
<path d="M1449.01 122.327H1443.69V127.648H1449.01V122.327Z" fill="white"/>
<path d="M1438.38 132.956H1433.06V138.278H1438.38V132.956Z" fill="white"/>
<path d="M1433.06 138.278H1427.74V143.599H1433.06V138.278Z" fill="white"/>
<path d="M1443.69 138.278H1438.37V143.599H1443.69V138.278Z" fill="white"/>
<path d="M1454.33 95.7329H1449.01V101.054H1454.33V95.7329Z" fill="white"/>
<path d="M1454.33 106.362H1449.01V111.683H1454.33V106.362Z" fill="white"/>
<path d="M1454.33 117.005H1449.01V122.327H1454.33V117.005Z" fill="white"/>
<path d="M1454.33 127.635H1449.01V132.956H1454.33V127.635Z" fill="white"/>
<path d="M1454.33 138.278H1449.01V143.599H1454.33V138.278Z" fill="white"/>
<path d="M1449.01 132.956H1443.69V138.278H1449.01V132.956Z" fill="white"/>
<path d="M1363.92 0H1358.6V5.32158H1363.92V0Z" fill="black"/>
<path d="M1369.24 5.32178H1363.92V10.6434H1369.24V5.32178Z" fill="black"/>
<path d="M1374.55 0H1369.23V5.32158H1374.55V0Z" fill="black"/>
<path d="M1363.92 10.6289H1358.6V15.9505H1363.92V10.6289Z" fill="black"/>
<path d="M1374.55 10.6289H1369.23V15.9505H1374.55V10.6289Z" fill="black"/>
<path d="M1379.87 5.32178H1374.55V10.6434H1379.87V5.32178Z" fill="black"/>
<path d="M1369.24 15.9512H1363.92V21.2728H1369.24V15.9512Z" fill="black"/>
<path d="M1363.92 21.2725H1358.6V26.594H1363.92V21.2725Z" fill="black"/>
<path d="M1374.55 21.2725H1369.23V26.594H1374.55V21.2725Z" fill="black"/>
<path d="M1379.87 15.9512H1374.55V21.2728H1379.87V15.9512Z" fill="black"/>
<path d="M1369.24 26.5938H1363.92V31.9153H1369.24V26.5938Z" fill="black"/>
<path d="M1363.92 31.9019H1358.6V37.2234H1363.92V31.9019Z" fill="black"/>
<path d="M1374.55 31.9019H1369.23V37.2234H1374.55V31.9019Z" fill="black"/>
<path d="M1379.87 26.5938H1374.55V31.9153H1379.87V26.5938Z" fill="black"/>
<path d="M1369.24 37.2236H1363.92V42.5452H1369.24V37.2236Z" fill="black"/>
<path d="M1363.92 42.5449H1358.6V47.8665H1363.92V42.5449Z" fill="black"/>
<path d="M1374.55 42.5449H1369.23V47.8665H1374.55V42.5449Z" fill="black"/>
<path d="M1379.87 37.2236H1374.55V42.5452H1379.87V37.2236Z" fill="black"/>
<path d="M1385.19 0H1379.87V5.32158H1385.19V0Z" fill="black"/>
<path d="M1390.52 5.32178H1385.19V10.6434H1390.52V5.32178Z" fill="black"/>
<path d="M1395.82 0H1390.5V5.32158H1395.82V0Z" fill="black"/>
<path d="M1385.19 10.6289H1379.87V15.9505H1385.19V10.6289Z" fill="black"/>
<path d="M1395.82 10.6289H1390.5V15.9505H1395.82V10.6289Z" fill="black"/>
<path d="M1401.15 5.32178H1395.82V10.6434H1401.15V5.32178Z" fill="black"/>
<path d="M1390.52 15.9512H1385.19V21.2728H1390.52V15.9512Z" fill="black"/>
<path d="M1385.19 21.2725H1379.87V26.594H1385.19V21.2725Z" fill="black"/>
<path d="M1395.82 21.2725H1390.5V26.594H1395.82V21.2725Z" fill="black"/>
<path d="M1401.15 15.9512H1395.82V21.2728H1401.15V15.9512Z" fill="black"/>
<path d="M1390.52 26.5938H1385.19V31.9153H1390.52V26.5938Z" fill="black"/>
<path d="M1385.19 31.9019H1379.87V37.2234H1385.19V31.9019Z" fill="black"/>
<path d="M1395.82 31.9019H1390.5V37.2234H1395.82V31.9019Z" fill="black"/>
<path d="M1401.15 26.5938H1395.82V31.9153H1401.15V26.5938Z" fill="black"/>
<path d="M1390.52 37.2236H1385.19V42.5452H1390.52V37.2236Z" fill="black"/>
<path d="M1385.19 42.5449H1379.87V47.8665H1385.19V42.5449Z" fill="black"/>
<path d="M1395.82 42.5449H1390.5V47.8665H1395.82V42.5449Z" fill="black"/>
<path d="M1406.47 0H1401.15V5.32158H1406.47V0Z" fill="black"/>
<path d="M1406.47 10.6289H1401.15V15.9505H1406.47V10.6289Z" fill="black"/>
<path d="M1406.47 21.2725H1401.15V26.594H1406.47V21.2725Z" fill="black"/>
<path d="M1406.47 31.9019H1401.15V37.2234H1406.47V31.9019Z" fill="black"/>
<path d="M1406.47 42.5449H1401.15V47.8665H1406.47V42.5449Z" fill="black"/>
<path d="M1401.15 37.2236H1395.82V42.5452H1401.15V37.2236Z" fill="black"/>
<path d="M341.322 48H336V53.3216H341.322V48Z" fill="white"/>
<path d="M346.643 53.3218H341.322V58.6434H346.643V53.3218Z" fill="white"/>
<path d="M351.951 48H346.629V53.3216H351.951V48Z" fill="white"/>
<path d="M341.322 58.6289H336V63.9505H341.322V58.6289Z" fill="white"/>
<path d="M351.951 58.6289H346.629V63.9505H351.951V58.6289Z" fill="white"/>
<path d="M357.273 53.3218H351.951V58.6434H357.273V53.3218Z" fill="white"/>
<path d="M346.643 63.9512H341.322V69.2728H346.643V63.9512Z" fill="white"/>
<path d="M341.322 69.2725H336V74.594H341.322V69.2725Z" fill="white"/>
<path d="M351.951 69.2725H346.629V74.594H351.951V69.2725Z" fill="white"/>
<path d="M357.273 63.9512H351.951V69.2728H357.273V63.9512Z" fill="white"/>
<path d="M346.643 74.5938H341.322V79.9153H346.643V74.5938Z" fill="white"/>
<path d="M341.322 79.9019H336V85.2234H341.322V79.9019Z" fill="white"/>
<path d="M351.951 79.9019H346.629V85.2234H351.951V79.9019Z" fill="white"/>
<path d="M357.273 74.5938H351.951V79.9153H357.273V74.5938Z" fill="white"/>
<path d="M346.643 85.2236H341.322V90.5452H346.643V85.2236Z" fill="white"/>
<path d="M341.322 90.5449H336V95.8665H341.322V90.5449Z" fill="white"/>
<path d="M351.951 90.5449H346.629V95.8665H351.951V90.5449Z" fill="white"/>
<path d="M357.273 85.2236H351.951V90.5452H357.273V85.2236Z" fill="white"/>
<path d="M362.594 48H357.273V53.3216H362.594V48Z" fill="white"/>
<path d="M367.916 53.3218H362.594V58.6434H367.916V53.3218Z" fill="white"/>
<path d="M373.224 48H367.902V53.3216H373.224V48Z" fill="white"/>
<path d="M362.594 58.6289H357.273V63.9505H362.594V58.6289Z" fill="white"/>
<path d="M373.224 58.6289H367.902V63.9505H373.224V58.6289Z" fill="white"/>
<path d="M378.545 53.3218H373.224V58.6434H378.545V53.3218Z" fill="white"/>
<path d="M367.916 63.9512H362.594V69.2728H367.916V63.9512Z" fill="white"/>
<path d="M362.594 69.2725H357.273V74.594H362.594V69.2725Z" fill="white"/>
<path d="M373.224 69.2725H367.902V74.594H373.224V69.2725Z" fill="white"/>
<path d="M378.545 63.9512H373.224V69.2728H378.545V63.9512Z" fill="white"/>
<path d="M367.916 74.5938H362.594V79.9153H367.916V74.5938Z" fill="white"/>
<path d="M362.594 79.9019H357.273V85.2234H362.594V79.9019Z" fill="white"/>
<path d="M373.224 79.9019H367.902V85.2234H373.224V79.9019Z" fill="white"/>
<path d="M378.545 74.5938H373.224V79.9153H378.545V74.5938Z" fill="white"/>
<path d="M367.916 85.2236H362.594V90.5452H367.916V85.2236Z" fill="white"/>
<path d="M362.594 90.5449H357.273V95.8665H362.594V90.5449Z" fill="white"/>
<path d="M373.224 90.5449H367.902V95.8665H373.224V90.5449Z" fill="white"/>
<path d="M383.867 48H378.545V53.3216H383.867V48Z" fill="white"/>
<path d="M383.867 58.6289H378.545V63.9505H383.867V58.6289Z" fill="white"/>
<path d="M383.867 69.2725H378.545V74.594H383.867V69.2725Z" fill="white"/>
<path d="M383.867 79.9019H378.545V85.2234H383.867V79.9019Z" fill="white"/>
<path d="M383.867 90.5449H378.545V95.8665H383.867V90.5449Z" fill="white"/>
<path d="M378.545 85.2236H373.224V90.5452H378.545V85.2236Z" fill="white"/>
<rect x="1417.1" width="5.31852" height="47.8667" fill="#4038FF"/>
<rect x="1427.74" width="5.31852" height="47.8667" fill="#4038FF"/>
<rect x="1438.38" width="5.31852" height="47.8667" fill="#4038FF"/>
<rect x="1449.01" width="5.31852" height="47.8667" fill="#4038FF"/>
<rect x="1406.47" width="5.32158" height="47.8667" fill="#4038FF"/>
<path fill-rule="evenodd" clip-rule="evenodd" d="M1358.6 101.052V95.7334C1385.04 95.7334 1406.47 117.164 1406.47 143.6H1401.15C1401.15 120.101 1382.1 101.052 1358.6 101.052ZM1358.6 111.689V106.371C1379.16 106.371 1395.83 123.039 1395.83 143.6H1390.51C1390.51 125.976 1376.22 111.689 1358.6 111.689ZM1358.6 117.007V122.326C1370.35 122.326 1379.87 131.85 1379.87 143.6L1385.19 143.6C1385.19 128.913 1373.29 117.007 1358.6 117.007ZM1358.6 132.963V127.644C1367.41 127.644 1374.56 134.788 1374.56 143.6H1369.24C1369.24 137.725 1364.47 132.963 1358.6 132.963ZM1358.6 143.6V138.281C1361.54 138.281 1363.92 140.663 1363.92 143.6H1358.6Z" fill="#261EE4"/>
<path fill-rule="evenodd" clip-rule="evenodd" d="M1603.32 143.6L1598 143.6C1598 117.164 1619.43 95.7334 1645.87 95.7334L1645.87 101.052C1622.37 101.052 1603.32 120.101 1603.32 143.6ZM1613.96 143.6L1608.64 143.6C1608.64 123.039 1625.31 106.37 1645.87 106.37L1645.87 111.689C1628.24 111.689 1613.96 125.976 1613.96 143.6ZM1619.27 143.6L1624.59 143.6C1624.59 131.851 1634.12 122.326 1645.87 122.326L1645.87 117.007C1631.18 117.007 1619.27 128.913 1619.27 143.6ZM1635.23 143.6L1629.91 143.6C1629.91 134.788 1637.05 127.644 1645.87 127.644L1645.87 132.963C1639.99 132.963 1635.23 137.725 1635.23 143.6ZM1645.87 143.6L1640.55 143.6C1640.55 140.663 1642.93 138.281 1645.87 138.281L1645.87 143.6Z" fill="#261EE4"/>
<path d="M1310.73 143.6L1358.6 143.6L1358.6 95.7334C1332.16 95.7334 1310.73 117.164 1310.73 143.6Z" fill="#4038FF"/>
<path d="M1314.48 95.7334H1310.73V91.9838L1354.85 47.8667H1358.6V51.6163L1314.48 95.7334ZM1347.32 47.8667H1339.8L1310.73 76.9324V84.4581L1347.32 47.8667ZM1332.27 47.8667H1324.75L1310.73 61.881V69.4067L1332.27 47.8667ZM1310.73 47.8667V54.3553L1317.22 47.8667H1310.73ZM1358.6 66.6677V59.142L1322.01 95.7334H1329.53L1358.6 66.6677ZM1358.6 81.7191V74.1934L1337.06 95.7334H1344.59L1358.6 81.7191ZM1358.6 89.2448L1352.11 95.7334H1358.6V89.2448Z" fill="#261EE4"/>
<path d="M435.75 95.7334H432V91.9838L476.117 47.8667H479.867V51.6163L435.75 95.7334ZM468.591 47.8667H461.066L432 76.9324V84.4581L468.591 47.8667ZM453.54 47.8667H446.014L432 61.881V69.4067L453.54 47.8667ZM432 47.8667V54.3553L438.489 47.8667H432ZM479.867 66.6677V59.142L443.275 95.7334H450.801L479.867 66.6677ZM479.867 81.7191V74.1934L458.327 95.7334H465.852L479.867 81.7191ZM479.867 89.2448L473.378 95.7334H479.867V89.2448Z" fill="#261EE4"/>
<path d="M1215 99.483L1215 95.7334L1218.75 95.7334L1262.87 139.851L1262.87 143.6L1259.12 143.6L1215 99.483ZM1262.87 132.325L1262.87 124.799L1233.8 95.7334L1226.28 95.7334L1262.87 132.325ZM1262.87 117.273L1262.87 109.748L1248.85 95.7334L1241.33 95.7334L1262.87 117.273ZM1262.87 95.7334L1256.38 95.7334L1262.87 102.222L1262.87 95.7334ZM1244.07 143.6L1251.59 143.6L1215 107.009L1215 114.534L1244.07 143.6ZM1229.01 143.6L1236.54 143.6L1215 122.06L1215 129.586L1229.01 143.6ZM1221.49 143.6L1215 137.111L1215 143.6L1221.49 143.6Z" fill="white"/>
</svg>
