<svg width="721" height="340" viewBox="0 0 721 340" fill="none" xmlns="http://www.w3.org/2000/svg">
<rect width="721" height="340" fill="black"/>
<path d="M188.035 139.309C171.653 139.309 158.268 152.622 158.268 169.138C158.268 185.655 171.553 198.968 188.035 198.968C204.517 198.968 217.803 185.655 217.803 169.138C217.803 152.622 204.418 139.309 188.035 139.309ZM188.035 185.154C179.145 185.154 171.953 177.947 171.953 169.038C171.953 160.129 179.145 152.922 188.035 152.922C196.926 152.922 204.118 160.129 204.118 169.038C204.118 177.947 196.926 185.154 188.035 185.154Z" fill="white"/>
<path d="M480.803 198.968C472.219 198.968 465.132 196.06 459.742 190.245C454.652 184.73 452.156 177.611 452.156 169.088C452.156 160.565 454.751 153.547 459.742 148.032C465.132 142.216 472.219 139.309 480.803 139.309C489.387 139.309 496.474 142.216 501.864 148.032C506.954 153.547 509.449 160.666 509.449 169.188C509.449 177.711 506.854 184.73 501.864 190.245C496.474 195.96 489.387 198.968 480.803 198.968ZM480.803 151.04C475.712 151.04 471.82 152.744 468.925 156.254C466.03 159.663 464.633 163.874 464.633 169.088C464.633 174.402 466.03 178.513 468.925 181.922C471.82 185.432 475.712 187.136 480.803 187.136C485.893 187.136 489.786 185.432 492.681 181.922C495.575 178.513 496.973 174.302 496.973 169.088C496.973 163.874 495.575 159.663 492.681 156.254C489.786 152.744 485.893 151.04 480.803 151.04Z" fill="white"/>
<path d="M225.959 219.138L236.73 195.038L214.092 140.238H227.854L243.412 180.038L259.269 140.238H272.931L239.622 219.138H225.959Z" fill="white"/>
<path d="M296.184 198.971C288.609 198.971 282.429 196.967 277.844 193.06C273.558 189.553 271.165 184.844 270.866 179.133L270.767 176.728H283.525L283.724 178.732C284.123 182.74 286.316 185.345 290.502 186.747C292.097 187.248 293.692 187.449 295.287 187.449C296.981 187.449 298.576 187.349 300.071 187.148C301.467 186.948 302.862 186.647 304.158 186.146C307.348 184.844 307.846 182.94 307.846 181.337C307.846 179.834 307.348 178.932 306.251 178.131C304.756 177.129 302.763 176.227 300.37 175.526C297.779 174.825 294.988 174.123 291.998 173.522C288.808 172.921 285.818 172.019 283.027 170.917C280.136 169.715 277.644 168.112 275.651 166.008C273.558 163.703 272.461 160.597 272.461 156.79C272.461 151.179 274.554 146.871 278.641 143.665C282.528 140.659 288.21 139.156 295.586 139.156C302.563 139.156 308.245 140.96 312.431 144.366C316.02 147.372 318.113 151.38 318.611 156.289L318.91 158.794H306.351L306.052 156.79C305.753 154.085 304.158 150.478 294.988 150.478C285.02 150.478 285.02 154.385 285.02 155.888C285.02 157.191 285.519 158.193 286.615 158.794C288.11 159.796 290.104 160.597 292.496 161.198C295.088 161.9 297.878 162.501 300.869 163.102C304.058 163.703 307.148 164.605 309.84 165.807C312.73 167.01 315.222 168.713 317.216 170.917C319.309 173.222 320.405 176.428 320.405 180.335C320.405 186.246 318.113 190.955 313.627 194.061C309.042 197.468 303.261 198.971 296.184 198.971Z" fill="white"/>
<path d="M331.504 198.037V151.755H320.714V140.134H331.504V121H344.092V140.134H356.28V151.755H344.092V198.037H331.504Z" fill="white"/>
<path d="M360.456 198.014V140.11H372.958V146.922C375.059 144.618 377.659 142.715 380.86 141.212C383.46 139.91 386.661 139.309 390.361 139.309H393.162V151.831H389.961C384.86 151.831 380.86 153.835 377.659 157.942C374.559 161.949 373.058 166.658 373.058 172.368V198.115H360.456V198.014Z" fill="white"/>
<path d="M421.751 198.968C413.155 198.968 405.959 196.06 400.462 190.245C395.164 184.63 392.466 177.511 392.466 169.088C392.466 160.666 395.064 153.547 400.062 148.032C405.459 142.216 412.556 139.309 421.151 139.309C429.747 139.309 436.843 142.216 442.24 148.032C447.338 153.547 449.836 160.666 449.836 169.188V174.703H405.659C406.459 178.012 408.058 180.719 410.357 182.925C413.355 185.833 417.053 187.237 421.751 187.237C428.048 187.237 432.445 184.73 435.144 179.516L435.744 178.313H449.137L447.937 181.421C445.938 186.635 442.74 190.947 438.342 194.155C434.144 197.263 428.547 198.968 421.751 198.968ZM436.543 162.571C435.744 159.563 434.244 157.056 432.045 155.051C429.147 152.343 425.549 151.04 421.251 151.04C416.853 151.04 413.355 152.343 410.457 155.051C408.258 157.056 406.858 159.563 405.959 162.571H436.543Z" fill="white"/>
<path d="M589.421 198.037V163.82C589.421 159.919 588.423 156.917 586.226 154.416C584.13 152.215 581.634 151.114 578.439 151.114C574.945 151.114 572.15 152.215 569.954 154.416C567.558 156.717 566.36 159.819 566.36 163.921V198.037H553.881V163.82C553.881 159.919 552.883 156.917 550.686 154.416C548.59 152.215 546.094 151.114 542.899 151.114C539.405 151.114 536.61 152.215 534.414 154.416C532.018 156.717 530.82 159.819 530.82 163.921V198.037H518.341V140.209H530.82V144.211C534.514 141.009 539.106 139.309 544.696 139.309C548.69 139.309 552.383 140.409 555.778 142.51C558.074 144.011 560.07 145.812 561.768 148.113C564.363 144.811 567.857 142.31 572.15 140.609C574.446 139.709 577.042 139.309 579.937 139.309C582.832 139.309 585.627 139.909 588.323 141.009C590.918 142.11 593.314 143.811 595.411 145.912C599.803 150.614 602 156.517 602 163.52V198.037H589.421Z" fill="white"/>
<path d="M356.204 140.316H320.561V151.41H356.204V140.316Z" fill="white"/>
<path d="M152.987 140.238H121V151.447H140.592V197.482C140.592 201.185 138.293 204.487 134.894 205.788L126.998 208.89L130.396 221L142.292 216.396C146.29 214.795 149.589 211.793 151.488 207.79C152.587 205.488 153.087 203.086 153.087 200.484V140.238H152.987Z" fill="white"/>
<path d="M509.373 140.316H497.079V197.959H509.373V140.316Z" fill="white"/>
</svg>
