<svg width="181" height="188" viewBox="0 0 181 188" fill="none" xmlns="http://www.w3.org/2000/svg">
<path d="M110 44L76 0H104.108C107.824 0 111.331 1.72191 113.603 4.66263L143 42.7059L141.47 44H110Z" fill="url(#paint0_linear_356_22769)"/>
<path d="M110 44L76 0H104.108C107.824 0 111.331 1.72191 113.603 4.66263L143 42.7059L141.47 44H110Z" fill="url(#paint1_radial_356_22769)"/>
<path d="M110 44H78.53L77.5455 46L87.8027 59.2741C90.8638 63.2356 90.8638 68.7644 87.8027 72.7259L76 88H104.108C107.824 88 111.331 86.2781 113.603 83.3374L120.858 73.9488C124.475 69.2671 124.475 62.7329 120.858 58.0512L110 44Z" fill="url(#paint2_linear_356_22769)"/>
<path d="M110 44H78.53L77.5455 46L87.8027 59.2741C90.8638 63.2356 90.8638 68.7644 87.8027 72.7259L76 88H104.108C107.824 88 111.331 86.2781 113.603 83.3374L120.858 73.9488C124.475 69.2671 124.475 62.7329 120.858 58.0512L110 44Z" fill="url(#paint3_radial_356_22769)"/>
<path d="M110 44H78.53L77.5455 46L87.8027 59.2741C90.8638 63.2356 90.8638 68.7644 87.8027 72.7259L76 88H104.108C107.824 88 111.331 86.2781 113.603 83.3374L120.858 73.9488C124.475 69.2671 124.475 62.7329 120.858 58.0512L110 44Z" fill="url(#paint4_radial_356_22769)"/>
<path d="M72.869 0C69.1659 0 65.6703 1.70967 63.3968 4.63271L43.9115 29.6852C40.7283 33.778 39 38.815 39 44C39 49.185 40.7283 54.222 43.9115 58.3148L63.3968 83.3673C65.6703 86.2903 69.1659 88 72.869 88H104.108C104.572 88 105.033 87.9731 105.488 87.9204C102.309 87.5523 99.3853 85.9239 97.3968 83.3673L76.1222 56.0142C73.4505 52.5792 72 48.3517 72 44C72 39.6483 73.4505 35.4208 76.1222 31.9858L97.3968 4.63271C99.3853 2.07607 102.309 0.447669 105.488 0.0796094C105.033 0.0268632 104.572 0 104.108 0H72.869Z" fill="url(#paint5_linear_356_22769)"/>
<path d="M72.869 0C69.1659 0 65.6703 1.70967 63.3968 4.63271L43.9115 29.6852C40.7283 33.778 39 38.815 39 44C39 49.185 40.7283 54.222 43.9115 58.3148L63.3968 83.3673C65.6703 86.2903 69.1659 88 72.869 88H104.108C104.572 88 105.033 87.9731 105.488 87.9204C102.309 87.5523 99.3853 85.9239 97.3968 83.3673L76.1222 56.0142C73.4505 52.5792 72 48.3517 72 44C72 39.6483 73.4505 35.4208 76.1222 31.9858L97.3968 4.63271C99.3853 2.07607 102.309 0.447669 105.488 0.0796094C105.033 0.0268632 104.572 0 104.108 0H72.869Z" fill="url(#paint6_radial_356_22769)" fill-opacity="0.5"/>
<path d="M110 44H78.532L77.55 46H109.018L110 44Z" fill="url(#paint7_linear_356_22769)"/>
<path d="M77.7137 45.6667H109.182L109.018 46H77.55L77.7137 45.6667Z" fill="#2825A2"/>
<path d="M104.222 0.000549316C107.896 0.035436 111.354 1.75207 113.603 4.66264L143 42.7059L141.472 44L112.02 5.88554C110.15 3.46508 107.276 2.03545 104.222 2.00066C101.178 2.03533 98.3133 3.45498 96.4421 5.86102L76.1193 31.9932C73.4495 35.4262 72 39.6511 72 44C72 48.3489 73.4495 52.5738 76.1193 56.0068L96.4421 82.139C98.3133 84.5451 101.178 85.9647 104.222 85.9994C107.276 85.9646 110.15 84.5349 112.02 82.1145L119.275 72.7259C122.336 68.7644 122.336 63.2356 119.275 59.2741L109.018 46L110 44L120.858 58.0512C124.475 62.7329 124.475 69.2671 120.858 73.9488L113.603 83.3374C111.354 86.2479 107.896 87.9646 104.222 87.9995C100.561 87.9647 97.1134 86.2601 94.8633 83.3668L74.5405 57.2346C71.5977 53.4506 70 48.7936 70 44C70 39.2064 71.5977 34.5495 74.5405 30.7654L94.8633 4.63322C97.1134 1.73996 100.561 0.0353127 104.222 0.000549316Z" fill="url(#paint8_linear_356_22769)"/>
<path d="M104.388 0.00328938C104.333 0.00199152 104.277 0.0010776 104.222 0.000549316C100.561 0.0353127 97.1134 1.73996 94.8633 4.63322L74.5405 30.7654C71.5977 34.5495 70 39.2064 70 44C70 48.7936 71.5977 53.4506 74.5405 57.2346L94.8633 83.3668C97.1134 86.2601 100.561 87.9647 104.222 87.9995C104.277 87.9989 104.333 87.998 104.389 87.9967C100.79 87.9126 97.4127 86.2161 95.1968 83.3668L74.874 57.2346C71.9312 53.4506 70.3335 48.7936 70.3335 44C70.3335 39.2064 71.9312 34.5495 74.874 30.7654L95.1968 4.63322C97.4127 1.78392 100.79 0.0873966 104.388 0.00328938Z" fill="url(#paint9_linear_356_22769)"/>
<path d="M141.674 43.8293L112.354 5.88554C110.484 3.46508 107.61 2.03545 104.555 2.00066C104.5 2.00129 104.444 2.00239 104.388 2.00395C107.381 2.08787 110.184 3.50917 112.02 5.88554L141.472 44L141.674 43.8293Z" fill="url(#paint10_linear_356_22769)"/>
<path d="M104.388 85.9961C104.444 85.9976 104.5 85.9987 104.555 85.9994C107.61 85.9646 110.484 84.5349 112.354 82.1145L119.609 72.7259C122.67 68.7644 122.67 63.2356 119.609 59.2741L109.351 46L110.204 44.2639L110 44L109.018 46L119.275 59.2741C122.336 63.2356 122.336 68.7644 119.275 72.7259L112.02 82.1145C110.184 84.4908 107.381 85.9121 104.388 85.9961Z" fill="url(#paint11_linear_356_22769)"/>
<path d="M53.2239 120H45.2249V172H53.2239V120Z" fill="white"/>
<path fill-rule="evenodd" clip-rule="evenodd" d="M0.775161 151.476C0.781028 157.49 2.50869 162.379 5.95822 166.146V166.155C7.62127 167.963 9.65132 169.395 11.9125 170.356C14.1737 171.317 16.6139 171.783 19.07 171.725C21.7963 171.693 24.4698 170.969 26.8403 169.622C27.7081 169.087 28.5189 168.465 29.2602 167.765C29.7844 167.295 30.281 166.796 30.7474 166.269C30.9236 166.064 31.0882 165.85 31.2402 165.627H31.6274V179.14H7.62515V186.4H32.9964C36.658 186.4 39.6264 183.432 39.6264 179.77V132.002H31.6274V136.974H31.2402L30.0346 135.496C28.765 134.301 27.293 133.342 25.6875 132.662C23.6154 131.69 21.3499 131.2 19.0612 131.228C16.607 131.172 14.1696 131.646 11.9147 132.616C9.6598 133.586 7.64029 135.031 5.99344 136.851C2.50871 140.588 0.769294 145.463 0.775161 151.476ZM8.05257 151.485C8.05257 147.519 9.14378 144.363 11.3261 142.017C13.5933 139.762 16.6605 138.497 19.8576 138.497C23.0547 138.497 26.1219 139.762 28.389 142.017C30.5714 144.357 31.6655 147.514 31.6714 151.485C31.6772 155.457 30.5831 158.616 28.389 160.963C26.1196 163.213 23.0533 164.475 19.8576 164.475C16.6619 164.475 13.5955 163.213 11.3261 160.963C9.14378 158.61 8.05257 155.451 8.05257 151.485Z" fill="white"/>
<path fill-rule="evenodd" clip-rule="evenodd" d="M103.632 159.296C104.616 161.78 106.09 164.033 107.965 165.918C110.787 168.715 114.359 170.609 118.237 171.363C122.115 172.116 126.126 171.697 129.769 170.157C133.413 168.616 136.528 166.023 138.725 162.701C139.507 161.521 140.16 160.266 140.678 158.96H132.074C131.659 159.68 131.172 160.345 130.612 160.955C128.37 163.205 125.342 164.468 122.186 164.468C119.031 164.468 116.002 163.205 113.761 160.955C112.109 159.151 111.088 156.873 110.699 154.12L141.942 154.12C142.06 153.247 142.121 152.365 142.126 151.478C142.181 148.79 141.707 146.119 140.729 143.62C139.752 141.122 138.292 138.845 136.435 136.925C134.578 135.005 132.361 133.479 129.915 132.438C127.468 131.396 124.841 130.86 122.186 130.86C119.532 130.86 116.905 131.396 114.458 132.438C112.012 133.479 109.795 135.005 107.938 136.925C106.081 138.845 104.621 141.122 103.644 143.62C102.666 146.119 102.192 148.79 102.247 151.478C102.178 154.152 102.649 156.813 103.632 159.296ZM111.101 146.86C111.629 144.975 112.515 143.358 113.761 142.009C116 139.754 119.029 138.489 122.186 138.489C125.344 138.489 128.373 139.754 130.612 142.009C131.852 143.356 132.735 144.973 133.262 146.86H111.101Z" fill="white"/>
<path fill-rule="evenodd" clip-rule="evenodd" d="M64.2751 165.918C62.4002 164.033 60.9257 161.78 59.9424 159.296C58.9591 156.813 58.4876 154.152 58.557 151.478C58.5016 148.79 58.9764 146.119 59.9535 143.62C60.9307 141.122 62.3906 138.845 64.2476 136.925C66.1047 135.005 68.3215 133.479 70.7682 132.438C73.215 131.396 75.8424 130.86 78.4965 130.86C81.1505 130.86 83.778 131.396 86.2247 132.438C88.6714 133.479 90.8882 135.005 92.7453 136.925C94.6023 138.845 96.0622 141.122 97.0394 143.62C98.0165 146.119 98.4913 148.79 98.4359 151.478C98.4315 152.365 98.3697 153.247 98.2523 154.12L67.0093 154.12C67.398 156.873 68.4187 159.151 70.0714 160.955C72.3125 163.205 75.3406 164.468 78.4965 164.468C81.6523 164.468 84.6805 163.205 86.9215 160.955C87.4819 160.345 87.9693 159.68 88.384 158.96H96.9877C96.4697 160.266 95.8167 161.521 95.0355 162.701C92.838 166.023 89.7229 168.616 86.0792 170.157C82.4355 171.697 78.4245 172.116 74.5468 171.363C70.6692 170.609 67.0966 168.715 64.2751 165.918ZM70.0714 142.009C68.8255 143.358 67.9387 144.975 67.4111 146.86H89.5716C89.0451 144.973 88.1617 143.356 86.9215 142.009C84.6827 139.754 81.6537 138.489 78.4965 138.489C75.3392 138.489 72.3103 139.754 70.0714 142.009Z" fill="white"/>
<path d="M143 131.997H151.386L159.94 164.002H163.75L172.304 131.997H180.69C179.447 136.519 178.204 141.041 176.961 145.564C174.54 154.377 172.118 163.189 169.69 172H154L143 131.997Z" fill="white"/>
<defs>
<linearGradient id="paint0_linear_356_22769" x1="110" y1="1.07366e-06" x2="143" y2="44" gradientUnits="userSpaceOnUse">
<stop stop-color="#1C1974"/>
<stop offset="1" stop-color="#07072A"/>
</linearGradient>
<radialGradient id="paint1_radial_356_22769" cx="0" cy="0" r="1" gradientUnits="userSpaceOnUse" gradientTransform="translate(110 1.01328e-06) rotate(90) scale(17 42.4068)">
<stop offset="0.223958" stop-color="#04041F"/>
<stop offset="0.401042" stop-color="#04041F" stop-opacity="0.92"/>
<stop offset="1" stop-color="#111048" stop-opacity="0"/>
<stop offset="1" stop-color="#04041F" stop-opacity="0"/>
</radialGradient>
<linearGradient id="paint2_linear_356_22769" x1="101.5" y1="88" x2="101.5" y2="44" gradientUnits="userSpaceOnUse">
<stop offset="0.184295" stop-color="#201E81"/>
<stop offset="0.68007" stop-color="#0A0939"/>
<stop offset="0.93513" stop-color="#100F53"/>
</linearGradient>
<radialGradient id="paint3_radial_356_22769" cx="0" cy="0" r="1" gradientUnits="userSpaceOnUse" gradientTransform="translate(90 66) rotate(90) scale(10 94.8599)">
<stop stop-color="#6863E8"/>
<stop offset="0.21875" stop-color="#544FD7"/>
<stop offset="1" stop-color="#232191" stop-opacity="0"/>
</radialGradient>
<radialGradient id="paint4_radial_356_22769" cx="0" cy="0" r="1" gradientUnits="userSpaceOnUse" gradientTransform="translate(116.5 53.5) rotate(90) scale(8.5 27.2)">
<stop stop-color="#0A0993"/>
<stop offset="1" stop-color="#0B0A7D" stop-opacity="0"/>
</radialGradient>
<linearGradient id="paint5_linear_356_22769" x1="72.2441" y1="0" x2="72.2441" y2="88" gradientUnits="userSpaceOnUse">
<stop offset="0.00233483" stop-color="#8986D8"/>
<stop offset="0.0618216" stop-color="#514DC8"/>
<stop offset="0.18767" stop-color="#4541BC"/>
<stop offset="0.335199" stop-color="#3936AE"/>
<stop offset="0.41907" stop-color="#18167B"/>
<stop offset="0.55688" stop-color="#151373"/>
<stop offset="0.648064" stop-color="#090835"/>
<stop offset="0.893955" stop-color="#05051F"/>
<stop offset="1" stop-color="#010105"/>
</linearGradient>
<radialGradient id="paint6_radial_356_22769" cx="0" cy="0" r="1" gradientUnits="userSpaceOnUse" gradientTransform="translate(107 -2.11352e-06) rotate(147.095) scale(80.9938 62.5861)">
<stop stop-color="#BDBBEF"/>
<stop offset="0.697917" stop-color="#9896DF" stop-opacity="0"/>
</radialGradient>
<linearGradient id="paint7_linear_356_22769" x1="77.5" y1="45" x2="109.5" y2="45" gradientUnits="userSpaceOnUse">
<stop offset="0.0001" stop-color="#232188"/>
<stop offset="0.463542" stop-color="#12115A"/>
<stop offset="1" stop-color="#3734AC"/>
</linearGradient>
<linearGradient id="paint8_linear_356_22769" x1="70" y1="44" x2="143" y2="44" gradientUnits="userSpaceOnUse">
<stop stop-color="#A49CF9"/>
<stop offset="1" stop-color="#5149DA"/>
</linearGradient>
<linearGradient id="paint9_linear_356_22769" x1="105.837" y1="0.000549316" x2="105.837" y2="87.9995" gradientUnits="userSpaceOnUse">
<stop stop-color="#534BDA"/>
<stop offset="1" stop-color="#0E0C66"/>
</linearGradient>
<linearGradient id="paint10_linear_356_22769" x1="105.837" y1="0.000549316" x2="105.837" y2="87.9995" gradientUnits="userSpaceOnUse">
<stop stop-color="#534BDA"/>
<stop offset="1" stop-color="#0E0C66"/>
</linearGradient>
<linearGradient id="paint11_linear_356_22769" x1="105.837" y1="0.000549316" x2="105.837" y2="87.9995" gradientUnits="userSpaceOnUse">
<stop stop-color="#534BDA"/>
<stop offset="1" stop-color="#0E0C66"/>
</linearGradient>
</defs>
</svg>
