<?xml version="1.0" encoding="UTF-8"?>
<svg width="882px" height="300px" viewBox="0 0 882 300" version="1.1" xmlns="http://www.w3.org/2000/svg" xmlns:xlink="http://www.w3.org/1999/xlink">
    <!-- Generator: Sketch 61 (89581) - https://sketch.com -->
    <title>Communications</title>
    <desc>Created with Sketch.</desc>
    <g id="Communications" stroke="none" stroke-width="1" fill="none" fill-rule="evenodd">
        <g id="Group">
            <rect id="Rectangle" fill="#FFFFFF" fill-rule="nonzero" x="0" y="0" width="882" height="300"></rect>
            <rect id="Rectangle" fill="#000000" fill-rule="nonzero" x="0" y="0" width="882" height="210"></rect>
            <rect id="Rectangle" fill="#1F242C" fill-rule="nonzero" x="620" y="105" width="52.5" height="52.5"></rect>
            <polygon id="Path" fill="#1F242C" fill-rule="nonzero" points="625.837 157.5 620 157.5 620 163.337 625.837 163.337"></polygon>
            <polygon id="Path" fill="#1F242C" fill-rule="nonzero" points="631.674 163.337 625.837 163.337 625.837 169.174 631.674 169.174"></polygon>
            <polygon id="Path" fill="#1F242C" fill-rule="nonzero" points="637.494 157.5 631.658 157.5 631.658 163.337 637.494 163.337"></polygon>
            <polygon id="Path" fill="#1F242C" fill-rule="nonzero" points="625.837 169.158 620 169.158 620 174.995 625.837 174.995"></polygon>
            <polygon id="Path" fill="#1F242C" fill-rule="nonzero" points="637.494 169.158 631.658 169.158 631.658 174.995 637.494 174.995"></polygon>
            <polygon id="Path" fill="#1F242C" fill-rule="nonzero" points="643.332 163.337 637.496 163.337 637.496 169.174 643.332 169.174"></polygon>
            <polygon id="Path" fill="#1F242C" fill-rule="nonzero" points="631.674 174.995 625.837 174.995 625.837 180.832 631.674 180.832"></polygon>
            <polygon id="Path" fill="#1F242C" fill-rule="nonzero" points="625.837 180.832 620 180.832 620 186.669 625.837 186.669"></polygon>
            <polygon id="Path" fill="#1F242C" fill-rule="nonzero" points="637.494 180.832 631.658 180.832 631.658 186.669 637.494 186.669"></polygon>
            <polygon id="Path" fill="#1F242C" fill-rule="nonzero" points="643.332 174.995 637.496 174.995 637.496 180.832 643.332 180.832"></polygon>
            <polygon id="Path" fill="#1F242C" fill-rule="nonzero" points="631.674 186.668 625.837 186.668 625.837 192.505 631.674 192.505"></polygon>
            <polygon id="Path" fill="#1F242C" fill-rule="nonzero" points="625.837 192.489 620 192.489 620 198.326 625.837 198.326"></polygon>
            <polygon id="Path" fill="#1F242C" fill-rule="nonzero" points="637.494 192.489 631.658 192.489 631.658 198.326 637.494 198.326"></polygon>
            <polygon id="Path" fill="#1F242C" fill-rule="nonzero" points="643.332 186.668 637.496 186.668 637.496 192.505 643.332 192.505"></polygon>
            <polygon id="Path" fill="#1F242C" fill-rule="nonzero" points="631.674 198.326 625.837 198.326 625.837 204.163 631.674 204.163"></polygon>
            <polygon id="Path" fill="#1F242C" fill-rule="nonzero" points="625.837 204.164 620 204.164 620 210.001 625.837 210.001"></polygon>
            <polygon id="Path" fill="#1F242C" fill-rule="nonzero" points="637.494 204.164 631.658 204.164 631.658 210.001 637.494 210.001"></polygon>
            <polygon id="Path" fill="#1F242C" fill-rule="nonzero" points="643.332 198.326 637.496 198.326 637.496 204.163 643.332 204.163"></polygon>
            <polygon id="Path" fill="#1F242C" fill-rule="nonzero" points="649.168 157.5 643.331 157.5 643.331 163.337 649.168 163.337"></polygon>
            <polygon id="Path" fill="#1F242C" fill-rule="nonzero" points="655.006 163.337 649.169 163.337 649.169 169.174 655.006 169.174"></polygon>
            <polygon id="Path" fill="#1F242C" fill-rule="nonzero" points="660.826 157.5 654.99 157.5 654.99 163.337 660.826 163.337"></polygon>
            <polygon id="Path" fill="#1F242C" fill-rule="nonzero" points="649.168 169.158 643.331 169.158 643.331 174.995 649.168 174.995"></polygon>
            <polygon id="Path" fill="#1F242C" fill-rule="nonzero" points="660.826 169.158 654.99 169.158 654.99 174.995 660.826 174.995"></polygon>
            <polygon id="Path" fill="#1F242C" fill-rule="nonzero" points="666.663 163.337 660.826 163.337 660.826 169.174 666.663 169.174"></polygon>
            <polygon id="Path" fill="#1F242C" fill-rule="nonzero" points="655.006 174.995 649.169 174.995 649.169 180.832 655.006 180.832"></polygon>
            <polygon id="Path" fill="#1F242C" fill-rule="nonzero" points="649.168 180.832 643.331 180.832 643.331 186.669 649.168 186.669"></polygon>
            <polygon id="Path" fill="#1F242C" fill-rule="nonzero" points="660.826 180.832 654.99 180.832 654.99 186.669 660.826 186.669"></polygon>
            <polygon id="Path" fill="#1F242C" fill-rule="nonzero" points="666.663 174.995 660.826 174.995 660.826 180.832 666.663 180.832"></polygon>
            <polygon id="Path" fill="#1F242C" fill-rule="nonzero" points="655.006 186.668 649.169 186.668 649.169 192.505 655.006 192.505"></polygon>
            <polygon id="Path" fill="#1F242C" fill-rule="nonzero" points="649.168 192.489 643.331 192.489 643.331 198.326 649.168 198.326"></polygon>
            <polygon id="Path" fill="#1F242C" fill-rule="nonzero" points="660.826 192.489 654.99 192.489 654.99 198.326 660.826 198.326"></polygon>
            <polygon id="Path" fill="#1F242C" fill-rule="nonzero" points="666.663 186.668 660.826 186.668 660.826 192.505 666.663 192.505"></polygon>
            <polygon id="Path" fill="#1F242C" fill-rule="nonzero" points="655.006 198.326 649.169 198.326 649.169 204.163 655.006 204.163"></polygon>
            <polygon id="Path" fill="#1F242C" fill-rule="nonzero" points="649.168 204.164 643.331 204.164 643.331 210.001 649.168 210.001"></polygon>
            <polygon id="Path" fill="#1F242C" fill-rule="nonzero" points="660.826 204.164 654.99 204.164 654.99 210.001 660.826 210.001"></polygon>
            <polygon id="Path" fill="#1F242C" fill-rule="nonzero" points="672.5 157.5 666.663 157.5 666.663 163.337 672.5 163.337"></polygon>
            <polygon id="Path" fill="#1F242C" fill-rule="nonzero" points="672.5 169.158 666.663 169.158 666.663 174.995 672.5 174.995"></polygon>
            <polygon id="Path" fill="#1F242C" fill-rule="nonzero" points="672.5 180.832 666.663 180.832 666.663 186.669 672.5 186.669"></polygon>
            <polygon id="Path" fill="#1F242C" fill-rule="nonzero" points="672.5 192.489 666.663 192.489 666.663 198.326 672.5 198.326"></polygon>
            <polygon id="Path" fill="#1F242C" fill-rule="nonzero" points="672.5 204.164 666.663 204.164 666.663 210.001 672.5 210.001"></polygon>
            <polygon id="Path" fill="#1F242C" fill-rule="nonzero" points="666.663 198.326 660.826 198.326 660.826 204.163 666.663 204.163"></polygon>
            <rect id="Rectangle" fill="#1F242C" fill-rule="nonzero" x="631.667" y="52.5" width="5.83333" height="52.5"></rect>
            <rect id="Rectangle" fill="#1F242C" fill-rule="nonzero" x="643.333" y="52.5" width="5.83333" height="52.5"></rect>
            <rect id="Rectangle" fill="#1F242C" fill-rule="nonzero" x="655" y="52.5" width="5.83333" height="52.5"></rect>
            <rect id="Rectangle" fill="#1F242C" fill-rule="nonzero" x="666.667" y="52.5" width="5.83333" height="52.5"></rect>
            <rect id="Rectangle" fill="#1F242C" fill-rule="nonzero" x="620" y="52.5" width="5.83668" height="52.5"></rect>
            <rect id="Rectangle" fill="#1F242C" fill-rule="nonzero" transform="translate(552.916335, 131.250000) rotate(-180.000000) translate(-552.916335, -131.250000) " x="549.99967" y="105" width="5.83333" height="52.5"></rect>
            <rect id="Rectangle" fill="#1F242C" fill-rule="nonzero" transform="translate(541.250335, 131.250000) rotate(-180.000000) translate(-541.250335, -131.250000) " x="538.33367" y="105" width="5.83333" height="52.5"></rect>
            <rect id="Rectangle" fill="#1F242C" fill-rule="nonzero" transform="translate(529.583335, 131.250000) rotate(-180.000000) translate(-529.583335, -131.250000) " x="526.66667" y="105" width="5.83333" height="52.5"></rect>
            <rect id="Rectangle" fill="#1F242C" fill-rule="nonzero" transform="translate(517.916335, 131.250000) rotate(-180.000000) translate(-517.916335, -131.250000) " x="514.99967" y="105" width="5.83333" height="52.5"></rect>
            <rect id="Rectangle" fill="#1F242C" fill-rule="nonzero" transform="translate(564.581660, 131.250000) rotate(-180.000000) translate(-564.581660, -131.250000) " x="561.66332" y="105" width="5.83668" height="52.5"></rect>
            <rect id="Rectangle" fill="#1F242C" fill-rule="nonzero" transform="translate(867.588335, 27.234400) rotate(-180.000000) translate(-867.588335, -27.234400) " x="864.67167" y="0.9844" width="5.83333" height="52.5"></rect>
            <rect id="Rectangle" fill="#1F242C" fill-rule="nonzero" transform="translate(855.921335, 27.234400) rotate(-180.000000) translate(-855.921335, -27.234400) " x="853.00467" y="0.9844" width="5.83333" height="52.5"></rect>
            <rect id="Rectangle" fill="#1F242C" fill-rule="nonzero" transform="translate(844.255335, 27.234400) rotate(-180.000000) translate(-844.255335, -27.234400) " x="841.33867" y="0.9844" width="5.83333" height="52.5"></rect>
            <rect id="Rectangle" fill="#1F242C" fill-rule="nonzero" transform="translate(832.588335, 27.234400) rotate(-180.000000) translate(-832.588335, -27.234400) " x="829.67167" y="0.9844" width="5.83333" height="52.5"></rect>
            <rect id="Rectangle" fill="#1F242C" fill-rule="nonzero" transform="translate(879.253660, 27.234400) rotate(-180.000000) translate(-879.253660, -27.234400) " x="876.33532" y="0.9844" width="5.83668" height="52.5"></rect>
            <path d="M567.5,163.333 L567.5,157.5 C596.495,157.5 620,181.005 620,210 L614.167,210 C614.167,184.227 593.273,163.333 567.5,163.333 Z M567.5,175 L567.5,169.166 C590.052,169.166 608.333,187.448 608.333,210 L602.5,210 C602.5,190.67 586.83,175 567.5,175 Z M567.5,180.834 L567.5,186.667 C580.387,186.667 590.833,197.114 590.833,210 L596.667,210 C596.667,193.892 583.608,180.834 567.5,180.834 Z M567.5,198.333 L567.5,192.5 C577.165,192.5 585,200.335 585,210 L579.167,210 C579.167,203.557 573.943,198.333 567.5,198.333 Z M567.5,210 L567.5,204.166 C570.722,204.166 573.333,206.778 573.333,210 L567.5,210 Z" id="Shape" fill="#1F242C"></path>
            <path d="M777,110.833 L777,105 C805.995,105 829.5,128.505 829.5,157.5 L823.667,157.5 C823.667,131.727 802.773,110.833 777,110.833 Z M777,122.5 L777,116.667 C799.552,116.667 817.833,134.949 817.833,157.5 L812,157.5 C812,138.17 796.33,122.5 777,122.5 Z M777,128.333 L777,134.167 C789.887,134.167 800.333,144.613 800.333,157.5 L806.167,157.5 C806.167,141.392 793.108,128.333 777,128.333 Z M777,145.833 L777,140 C786.665,140 794.5,147.835 794.5,157.5 L788.667,157.5 C788.667,151.056 783.443,145.833 777,145.833 Z M777,157.5 L777,151.667 C780.222,151.667 782.833,154.279 782.833,157.5 L777,157.5 Z" id="Shape" fill="#1F242C"></path>
            <path d="M729.112,52.5 L725,52.5 L725,48.3875 L773.387,0 L777.5,0 L777.5,4.1125 L729.112,52.5 Z M765.133,0 L756.879,0 L725,31.8791 L725,40.1333 L765.133,0 Z M748.625,0 L740.371,0 L725,15.3708 L725,23.625 L748.625,0 Z M725,0 L725,7.11666 L732.116,0 L725,0 Z M777.5,20.6208 L777.5,12.3667 L737.366,52.5 L745.621,52.5 L777.5,20.6208 Z M777.5,37.1291 L777.5,28.875 L753.875,52.5 L762.129,52.5 L777.5,37.1291 Z M777.5,45.3833 L770.383,52.5 L777.5,52.5 L777.5,45.3833 Z" id="Shape" fill="#1F242C" fill-rule="nonzero"></path>
            <path d="M672.5,105 L725,105 L725,52.5 C696.005,52.5 672.5,76.0051 672.5,105 Z" id="Path" fill="#1F242C" fill-rule="nonzero"></path>
            <path d="M777.5,157.5 L777.5,105 L725,105 C725,133.995 748.505,157.5 777.5,157.5 Z" id="Path" fill="#1F242C" fill-rule="nonzero"></path>
            <path d="M62.9297,84.9688 C62.9297,82.3125 63.2031,79.9141 63.75,77.7734 C64.2969,75.6328 65.125,73.8125 66.2344,72.3125 C67.3594,70.7969 68.7656,69.6406 70.4531,68.8438 C72.1562,68.0469 74.1406,67.6484 76.4062,67.6484 C77.9688,67.6484 79.4297,67.8828 80.7891,68.3516 C82.1641,68.8047 83.3594,69.4688 84.375,70.3438 C85.4062,71.2031 86.2344,72.25 86.8594,73.4844 C87.4844,74.7031 87.8438,76.0859 87.9375,77.6328 L83.3672,77.6328 C83.1484,75.7109 82.3984,74.2344 81.1172,73.2031 C79.8359,72.1562 78.125,71.6328 75.9844,71.6328 C74.8281,71.6328 73.7578,71.8359 72.7734,72.2422 C71.8047,72.6328 70.9609,73.1797 70.2422,73.8828 C69.5234,74.5859 68.9609,75.4297 68.5547,76.4141 C68.1641,77.3828 67.9688,78.4609 67.9688,79.6484 L67.9688,89.7266 C67.9688,90.8828 68.1797,91.9453 68.6016,92.9141 C69.0391,93.8828 69.6328,94.7344 70.3828,95.4688 C71.1484,96.1875 72.0312,96.75 73.0312,97.1562 C74.0469,97.5469 75.125,97.7422 76.2656,97.7422 C78.4375,97.7422 80.1953,97.2578 81.5391,96.2891 C82.8984,95.3047 83.6875,93.7031 83.9062,91.4844 L88.4531,91.4844 C88.3594,93.0156 87.9844,94.4219 87.3281,95.7031 C86.6719,96.9688 85.8047,98.0391 84.7266,98.9141 C83.6641,99.7891 82.4062,100.477 80.9531,100.977 C79.5156,101.477 77.9688,101.727 76.3125,101.727 C74.1406,101.727 72.2188,101.336 70.5469,100.555 C68.8906,99.7578 67.5,98.625 66.375,97.1562 C65.2656,95.6875 64.4141,93.9297 63.8203,91.8828 C63.2266,89.8359 62.9297,87.5312 62.9297,84.9688 Z M93.4922,88.7656 C93.4922,86.9062 93.7109,85.1875 94.1484,83.6094 C94.6016,82.0156 95.2812,80.6641 96.1875,79.5547 C97.1094,78.4297 98.2578,77.5469 99.6328,76.9062 C101.008,76.2656 102.625,75.9453 104.484,75.9453 C106.344,75.9453 107.961,76.2656 109.336,76.9062 C110.711,77.5469 111.852,78.4297 112.758,79.5547 C113.664,80.6641 114.344,82.0156 114.797,83.6094 C115.25,85.1875 115.477,86.9062 115.477,88.7656 C115.477,90.6562 115.25,92.3828 114.797,93.9453 C114.344,95.5078 113.664,96.8516 112.758,97.9766 C111.852,99.1016 110.703,99.9844 109.312,100.625 C107.938,101.266 106.328,101.586 104.484,101.586 C102.625,101.586 101.008,101.266 99.6328,100.625 C98.2578,99.9844 97.1094,99.1016 96.1875,97.9766 C95.2812,96.8516 94.6016,95.5078 94.1484,93.9453 C93.7109,92.3828 93.4922,90.6562 93.4922,88.7656 Z M98.0391,92.5625 C98.0391,93.3906 98.2109,94.1484 98.5547,94.8359 C98.9141,95.5234 99.3828,96.1094 99.9609,96.5938 C100.539,97.0625 101.219,97.4375 102,97.7188 C102.781,97.9844 103.609,98.1172 104.484,98.1172 C105.344,98.1172 106.164,97.9844 106.945,97.7188 C107.727,97.4375 108.406,97.0625 108.984,96.5938 C109.562,96.1094 110.023,95.5234 110.367,94.8359 C110.727,94.1484 110.906,93.3906 110.906,92.5625 L110.906,84.9688 C110.906,84.1406 110.727,83.3828 110.367,82.6953 C110.023,82.0078 109.562,81.4219 108.984,80.9375 C108.406,80.4531 107.727,80.0781 106.945,79.8125 C106.164,79.5312 105.344,79.3906 104.484,79.3906 C103.625,79.3906 102.797,79.5312 102,79.8125 C101.219,80.0781 100.539,80.4531 99.9609,80.9375 C99.3828,81.4219 98.9141,82.0078 98.5547,82.6953 C98.2109,83.3828 98.0391,84.1406 98.0391,84.9688 L98.0391,92.5625 Z M122.156,101 L122.156,76.5312 L126.469,76.5312 L126.469,80.5625 C127.016,79.2188 127.859,78.1172 129,77.2578 C130.141,76.3828 131.57,75.9453 133.289,75.9453 C134.914,75.9453 136.352,76.3516 137.602,77.1641 C138.852,77.9766 139.75,79.25 140.297,80.9844 C140.812,79.5469 141.688,78.3516 142.922,77.3984 C144.156,76.4297 145.68,75.9453 147.492,75.9453 C148.555,75.9453 149.547,76.1094 150.469,76.4375 C151.406,76.75 152.219,77.2578 152.906,77.9609 C153.594,78.6641 154.125,79.5703 154.5,80.6797 C154.891,81.7734 155.086,83.1094 155.086,84.6875 L155.086,101 L150.773,101 L150.773,85.1562 C150.773,83.3594 150.43,81.9531 149.742,80.9375 C149.055,79.9062 147.906,79.3906 146.297,79.3906 C145.531,79.3906 144.82,79.5703 144.164,79.9297 C143.508,80.2734 142.922,80.7734 142.406,81.4297 C141.891,82.0859 141.492,82.8672 141.211,83.7734 C140.93,84.6641 140.789,85.6406 140.789,86.7031 L140.789,101 L136.453,101 L136.453,85.1562 C136.453,83.3594 136.109,81.9531 135.422,80.9375 C134.734,79.9062 133.594,79.3906 132,79.3906 C131.234,79.3906 130.523,79.5703 129.867,79.9297 C129.211,80.2734 128.625,80.7734 128.109,81.4297 C127.594,82.0859 127.188,82.8672 126.891,83.7734 C126.609,84.6641 126.469,85.6406 126.469,86.7031 L126.469,101 L122.156,101 Z M162.844,101 L162.844,76.5312 L167.156,76.5312 L167.156,80.5625 C167.703,79.2188 168.547,78.1172 169.688,77.2578 C170.828,76.3828 172.258,75.9453 173.977,75.9453 C175.602,75.9453 177.039,76.3516 178.289,77.1641 C179.539,77.9766 180.438,79.25 180.984,80.9844 C181.5,79.5469 182.375,78.3516 183.609,77.3984 C184.844,76.4297 186.367,75.9453 188.18,75.9453 C189.242,75.9453 190.234,76.1094 191.156,76.4375 C192.094,76.75 192.906,77.2578 193.594,77.9609 C194.281,78.6641 194.812,79.5703 195.188,80.6797 C195.578,81.7734 195.773,83.1094 195.773,84.6875 L195.773,101 L191.461,101 L191.461,85.1562 C191.461,83.3594 191.117,81.9531 190.43,80.9375 C189.742,79.9062 188.594,79.3906 186.984,79.3906 C186.219,79.3906 185.508,79.5703 184.852,79.9297 C184.195,80.2734 183.609,80.7734 183.094,81.4297 C182.578,82.0859 182.18,82.8672 181.898,83.7734 C181.617,84.6641 181.477,85.6406 181.477,86.7031 L181.477,101 L177.141,101 L177.141,85.1562 C177.141,83.3594 176.797,81.9531 176.109,80.9375 C175.422,79.9062 174.281,79.3906 172.688,79.3906 C171.922,79.3906 171.211,79.5703 170.555,79.9297 C169.898,80.2734 169.312,80.7734 168.797,81.4297 C168.281,82.0859 167.875,82.8672 167.578,83.7734 C167.297,84.6641 167.156,85.6406 167.156,86.7031 L167.156,101 L162.844,101 Z M203.344,92.8438 L203.344,76.5312 L207.656,76.5312 L207.656,92.3516 C207.656,94.1172 208,95.5234 208.688,96.5703 C209.375,97.6016 210.633,98.1172 212.461,98.1172 C214.289,98.1172 215.734,97.4375 216.797,96.0781 C217.875,94.7188 218.414,92.9688 218.414,90.8281 L218.414,76.5312 L222.727,76.5312 L222.727,101 L218.414,101 L218.414,96.9688 C217.742,98.4062 216.844,99.5391 215.719,100.367 C214.594,101.18 213.109,101.586 211.266,101.586 C210.141,101.586 209.086,101.422 208.102,101.094 C207.133,100.781 206.297,100.273 205.594,99.5703 C204.891,98.8672 204.336,97.9609 203.93,96.8516 C203.539,95.7422 203.344,94.4062 203.344,92.8438 Z M230.719,101 L230.719,76.5312 L235.031,76.5312 L235.031,80.5625 C235.703,79.125 236.625,78 237.797,77.1875 C238.969,76.3594 240.484,75.9453 242.344,75.9453 C243.531,75.9453 244.609,76.1094 245.578,76.4375 C246.547,76.75 247.383,77.2578 248.086,77.9609 C248.789,78.6641 249.336,79.5703 249.727,80.6797 C250.117,81.7734 250.312,83.1094 250.312,84.6875 L250.312,101 L245.977,101 L245.977,85.1562 C245.977,83.3594 245.633,81.9531 244.945,80.9375 C244.258,79.9062 242.984,79.3906 241.125,79.3906 C240.234,79.3906 239.422,79.5703 238.688,79.9297 C237.953,80.2734 237.312,80.7734 236.766,81.4297 C236.219,82.0859 235.789,82.8672 235.477,83.7734 C235.18,84.6641 235.031,85.6406 235.031,86.7031 L235.031,101 L230.719,101 Z M258,72.875 L258,68.3516 L262.5,68.3516 L262.5,72.875 L258,72.875 Z M258.094,101 L258.094,76.5312 L262.406,76.5312 L262.406,101 L258.094,101 Z M269.133,88.9531 C269.133,87 269.359,85.2188 269.812,83.6094 C270.281,81.9844 270.961,80.6172 271.852,79.5078 C272.758,78.3828 273.867,77.5078 275.18,76.8828 C276.492,76.2578 277.977,75.9453 279.633,75.9453 C280.914,75.9453 282.125,76.1172 283.266,76.4609 C284.406,76.7891 285.406,77.3047 286.266,78.0078 C287.125,78.7109 287.828,79.6094 288.375,80.7031 C288.922,81.7812 289.258,83.0625 289.383,84.5469 L285.07,84.5469 C284.977,83.5625 284.766,82.7422 284.438,82.0859 C284.125,81.4141 283.711,80.8828 283.195,80.4922 C282.68,80.0859 282.094,79.8047 281.438,79.6484 C280.781,79.4766 280.102,79.3906 279.398,79.3906 C278.664,79.3906 277.961,79.5156 277.289,79.7656 C276.617,80 276.008,80.3594 275.461,80.8438 C274.914,81.3281 274.477,81.9297 274.148,82.6484 C273.836,83.3672 273.68,84.2031 273.68,85.1562 L273.68,92.3516 C273.68,93.2109 273.828,94.0078 274.125,94.7422 C274.438,95.4609 274.859,96.0703 275.391,96.5703 C275.922,97.0547 276.531,97.4375 277.219,97.7188 C277.906,97.9844 278.648,98.1172 279.445,98.1172 C281.039,98.1172 282.367,97.6875 283.43,96.8281 C284.492,95.9688 285.102,94.625 285.258,92.7969 L289.57,92.7969 C289.414,94.2969 289.031,95.6016 288.422,96.7109 C287.812,97.8047 287.055,98.7188 286.148,99.4531 C285.258,100.172 284.242,100.703 283.102,101.047 C281.977,101.406 280.789,101.586 279.539,101.586 C277.742,101.586 276.195,101.273 274.898,100.648 C273.617,100.023 272.539,99.1406 271.664,98 C270.805,96.8594 270.164,95.5234 269.742,93.9922 C269.336,92.4609 269.133,90.7812 269.133,88.9531 Z M294.469,94.2734 C294.469,92.3516 295.078,90.7031 296.297,89.3281 C297.516,87.9531 299.344,87.1562 301.781,86.9375 L309.75,86.2109 L309.75,84.2422 C309.75,83.2891 309.625,82.5 309.375,81.875 C309.141,81.25 308.797,80.7578 308.344,80.3984 C307.906,80.0234 307.375,79.7656 306.75,79.625 C306.125,79.4688 305.43,79.3906 304.664,79.3906 C303.133,79.3906 301.906,79.7344 300.984,80.4219 C300.078,81.1094 299.625,82.2422 299.625,83.8203 L295.289,83.8203 C295.289,82.6641 295.539,81.6094 296.039,80.6562 C296.539,79.6875 297.211,78.8516 298.055,78.1484 C298.898,77.4453 299.891,76.9062 301.031,76.5312 C302.172,76.1406 303.398,75.9453 304.711,75.9453 C306.023,75.9453 307.242,76.1172 308.367,76.4609 C309.508,76.7891 310.492,77.2891 311.32,77.9609 C312.164,78.6328 312.812,79.5 313.266,80.5625 C313.734,81.6094 313.969,82.8516 313.969,84.2891 L313.969,97.2969 L317.625,97.2969 L317.625,101 L310.312,101 L310.219,96.4766 L310.031,96.4766 C309.359,98.2109 308.367,99.5 307.055,100.344 C305.742,101.172 304.172,101.586 302.344,101.586 C301.125,101.586 300.023,101.398 299.039,101.023 C298.055,100.648 297.203,100.094 296.484,99.3594 C295.844,98.7188 295.344,97.9531 294.984,97.0625 C294.641,96.1719 294.469,95.2422 294.469,94.2734 Z M299.039,94.8594 C299.039,95.9844 299.43,96.8125 300.211,97.3438 C300.992,97.8594 302.07,98.1172 303.445,98.1172 C305.398,98.1172 306.938,97.4219 308.062,96.0312 C309.188,94.6406 309.75,92.8438 309.75,90.6406 L309.75,89.5391 L301.055,90.3359 C300.164,90.3984 299.602,90.6328 299.367,91.0391 C299.148,91.4453 299.039,92 299.039,92.7031 L299.039,94.8594 Z M320.109,80.2109 L320.109,76.5312 L324.234,76.5312 L324.234,68.3516 L328.5,68.3516 L328.5,76.5312 L334.125,76.5312 L334.125,80.2109 L328.5,80.2109 L328.5,97.2969 L334.125,97.2969 L334.125,101 L324.234,101 L324.234,80.2109 L320.109,80.2109 Z M340.031,72.875 L340.031,68.3516 L344.531,68.3516 L344.531,72.875 L340.031,72.875 Z M340.125,101 L340.125,76.5312 L344.438,76.5312 L344.438,101 L340.125,101 Z M351.117,88.7656 C351.117,86.9062 351.336,85.1875 351.773,83.6094 C352.227,82.0156 352.906,80.6641 353.812,79.5547 C354.734,78.4297 355.883,77.5469 357.258,76.9062 C358.633,76.2656 360.25,75.9453 362.109,75.9453 C363.969,75.9453 365.586,76.2656 366.961,76.9062 C368.336,77.5469 369.477,78.4297 370.383,79.5547 C371.289,80.6641 371.969,82.0156 372.422,83.6094 C372.875,85.1875 373.102,86.9062 373.102,88.7656 C373.102,90.6562 372.875,92.3828 372.422,93.9453 C371.969,95.5078 371.289,96.8516 370.383,97.9766 C369.477,99.1016 368.328,99.9844 366.938,100.625 C365.562,101.266 363.953,101.586 362.109,101.586 C360.25,101.586 358.633,101.266 357.258,100.625 C355.883,99.9844 354.734,99.1016 353.812,97.9766 C352.906,96.8516 352.227,95.5078 351.773,93.9453 C351.336,92.3828 351.117,90.6562 351.117,88.7656 Z M355.664,92.5625 C355.664,93.3906 355.836,94.1484 356.18,94.8359 C356.539,95.5234 357.008,96.1094 357.586,96.5938 C358.164,97.0625 358.844,97.4375 359.625,97.7188 C360.406,97.9844 361.234,98.1172 362.109,98.1172 C362.969,98.1172 363.789,97.9844 364.57,97.7188 C365.352,97.4375 366.031,97.0625 366.609,96.5938 C367.188,96.1094 367.648,95.5234 367.992,94.8359 C368.352,94.1484 368.531,93.3906 368.531,92.5625 L368.531,84.9688 C368.531,84.1406 368.352,83.3828 367.992,82.6953 C367.648,82.0078 367.188,81.4219 366.609,80.9375 C366.031,80.4531 365.352,80.0781 364.57,79.8125 C363.789,79.5312 362.969,79.3906 362.109,79.3906 C361.25,79.3906 360.422,79.5312 359.625,79.8125 C358.844,80.0781 358.164,80.4531 357.586,80.9375 C357.008,81.4219 356.539,82.0078 356.18,82.6953 C355.836,83.3828 355.664,84.1406 355.664,84.9688 L355.664,92.5625 Z M379.781,101 L379.781,76.5312 L384.094,76.5312 L384.094,80.5625 C384.766,79.125 385.688,78 386.859,77.1875 C388.031,76.3594 389.547,75.9453 391.406,75.9453 C392.594,75.9453 393.672,76.1094 394.641,76.4375 C395.609,76.75 396.445,77.2578 397.148,77.9609 C397.852,78.6641 398.398,79.5703 398.789,80.6797 C399.18,81.7734 399.375,83.1094 399.375,84.6875 L399.375,101 L395.039,101 L395.039,85.1562 C395.039,83.3594 394.695,81.9531 394.008,80.9375 C393.32,79.9062 392.047,79.3906 390.188,79.3906 C389.297,79.3906 388.484,79.5703 387.75,79.9297 C387.016,80.2734 386.375,80.7734 385.828,81.4297 C385.281,82.0859 384.852,82.8672 384.539,83.7734 C384.242,84.6641 384.094,85.6406 384.094,86.7031 L384.094,101 L379.781,101 Z M405.562,93.2656 L409.898,93.2656 C409.961,94.8906 410.539,96.1094 411.633,96.9219 C412.742,97.7188 414.047,98.1172 415.547,98.1172 C416.984,98.1172 418.234,97.7969 419.297,97.1562 C420.359,96.5156 420.891,95.5859 420.891,94.3672 C420.891,93.3828 420.57,92.5938 419.93,92 C419.289,91.4062 418.148,90.9531 416.508,90.6406 L412.477,89.8203 C410.461,89.3984 408.906,88.625 407.812,87.5 C406.734,86.3594 406.195,84.8281 406.195,82.9062 C406.195,81.9531 406.406,81.0547 406.828,80.2109 C407.266,79.3516 407.883,78.6094 408.68,77.9844 C409.492,77.3594 410.438,76.8672 411.516,76.5078 C412.609,76.1328 413.828,75.9453 415.172,75.9453 C416.328,75.9453 417.453,76.1016 418.547,76.4141 C419.656,76.7109 420.641,77.1797 421.5,77.8203 C422.375,78.4609 423.07,79.2812 423.586,80.2812 C424.117,81.2656 424.398,82.4453 424.43,83.8203 L420.117,83.8203 C420.055,82.1953 419.547,81.0547 418.594,80.3984 C417.656,79.7266 416.531,79.3906 415.219,79.3906 C413.875,79.3906 412.734,79.7109 411.797,80.3516 C410.875,80.9922 410.414,81.8281 410.414,82.8594 C410.414,83.8125 410.688,84.5547 411.234,85.0859 C411.781,85.6172 412.664,86.0078 413.883,86.2578 L418.008,87.125 C420.445,87.6406 422.25,88.4766 423.422,89.6328 C424.609,90.7734 425.203,92.3359 425.203,94.3203 C425.203,95.3516 424.969,96.3125 424.5,97.2031 C424.047,98.0781 423.383,98.8359 422.508,99.4766 C421.648,100.102 420.625,100.609 419.438,101 C418.25,101.391 416.938,101.586 415.5,101.586 C414.125,101.586 412.836,101.406 411.633,101.047 C410.445,100.703 409.398,100.188 408.492,99.5 C407.602,98.7969 406.898,97.9297 406.383,96.8984 C405.867,95.8516 405.594,94.6406 405.562,93.2656 Z" id="Shape" fill="#FFFFFF" fill-rule="nonzero"></path>
            <path d="M61.4091,145 L68.2273,145 L68.2273,143.75 L62.8182,143.75 L62.8182,133.364 L61.4091,133.364 L61.4091,145 Z M73.8864,145.182 C75.6591,145.182 76.9545,144.295 77.3636,142.977 L76.0682,142.614 C75.7273,143.523 74.9375,143.977 73.8864,143.977 C72.3125,143.977 71.2273,142.96 71.1648,141.091 L77.5,141.091 L77.5,140.523 C77.5,137.273 75.5682,136.159 73.75,136.159 C71.3864,136.159 69.8182,138.023 69.8182,140.705 C69.8182,143.386 71.3636,145.182 73.8864,145.182 Z M71.1648,139.932 C71.2557,138.574 72.2159,137.364 73.75,137.364 C75.2045,137.364 76.1364,138.455 76.1364,139.932 L71.1648,139.932 Z M82.108,145.205 C83.6307,145.205 84.4261,144.386 84.6989,143.818 L84.767,143.818 L84.767,145 L86.108,145 L86.108,139.25 C86.108,136.477 83.9943,136.159 82.8807,136.159 C81.5625,136.159 80.0625,136.614 79.3807,138.205 L80.6534,138.659 C80.9489,138.023 81.6477,137.341 82.9261,137.341 C84.1591,137.341 84.767,137.994 84.767,139.114 L84.767,139.159 C84.767,139.807 84.108,139.75 82.517,139.955 C80.8977,140.165 79.1307,140.523 79.1307,142.523 C79.1307,144.227 80.4489,145.205 82.108,145.205 Z M82.3125,144 C81.2443,144 80.4716,143.523 80.4716,142.591 C80.4716,141.568 81.4034,141.25 82.4489,141.114 C83.017,141.045 84.5398,140.886 84.767,140.614 L84.767,141.841 C84.767,142.932 83.9034,144 82.3125,144 Z M88.5554,145 L89.8963,145 L89.8963,139.477 C89.8963,138.295 90.8281,137.432 92.1009,137.432 C92.4588,137.432 92.8281,137.5 92.919,137.523 L92.919,136.159 C92.7656,136.148 92.4134,136.136 92.2145,136.136 C91.169,136.136 90.2599,136.727 89.9418,137.591 L89.8509,137.591 L89.8509,136.273 L88.5554,136.273 L88.5554,145 Z M95.8494,139.75 C95.8494,138.227 96.7926,137.364 98.0767,137.364 C99.321,137.364 100.077,138.176 100.077,139.545 L100.077,145 L101.418,145 L101.418,139.455 C101.418,137.227 100.23,136.159 98.4631,136.159 C97.1449,136.159 96.3267,136.75 95.9176,137.636 L95.804,137.636 L95.804,136.273 L94.5085,136.273 L94.5085,145 L95.8494,145 L95.8494,139.75 Z M109.709,139.75 C109.709,138.227 110.68,137.364 112.004,137.364 C113.266,137.364 114.027,138.159 114.027,139.545 L114.027,145 L115.368,145 L115.368,139.455 C115.368,137.21 114.175,136.159 112.391,136.159 C111.016,136.159 110.232,136.733 109.822,137.636 L109.709,137.636 L109.709,133.364 L108.368,133.364 L108.368,145 L109.709,145 L109.709,139.75 Z M121.366,145.182 C123.73,145.182 125.321,143.386 125.321,140.682 C125.321,137.955 123.73,136.159 121.366,136.159 C119.003,136.159 117.412,137.955 117.412,140.682 C117.412,143.386 119.003,145.182 121.366,145.182 Z M121.366,143.977 C119.571,143.977 118.753,142.432 118.753,140.682 C118.753,138.932 119.571,137.364 121.366,137.364 C123.162,137.364 123.98,138.932 123.98,140.682 C123.98,142.432 123.162,143.977 121.366,143.977 Z M129.048,145 L130.366,145 L132.276,138.295 L132.412,138.295 L134.321,145 L135.639,145 L138.298,136.273 L136.889,136.273 L135.003,142.932 L134.912,142.932 L133.071,136.273 L131.639,136.273 L129.776,142.955 L129.685,142.955 L127.798,136.273 L126.389,136.273 L129.048,145 Z M148.366,136.273 L146.503,136.273 L146.503,134.182 L145.162,134.182 L145.162,136.273 L143.844,136.273 L143.844,137.409 L145.162,137.409 L145.162,142.864 C145.162,144.386 146.389,145.114 147.526,145.114 C148.026,145.114 148.344,145.023 148.526,144.955 L148.253,143.75 C148.139,143.773 147.957,143.818 147.662,143.818 C147.071,143.818 146.503,143.636 146.503,142.5 L146.503,137.409 L148.366,137.409 L148.366,136.273 Z M153.835,145.182 C156.199,145.182 157.79,143.386 157.79,140.682 C157.79,137.955 156.199,136.159 153.835,136.159 C151.472,136.159 149.881,137.955 149.881,140.682 C149.881,143.386 151.472,145.182 153.835,145.182 Z M153.835,143.977 C152.04,143.977 151.222,142.432 151.222,140.682 C151.222,138.932 152.04,137.364 153.835,137.364 C155.631,137.364 156.449,138.932 156.449,140.682 C156.449,142.432 155.631,143.977 153.835,143.977 Z M164.337,145 L165.678,145 L165.678,136.273 L164.337,136.273 L164.337,145 Z M165.018,134.818 C165.541,134.818 165.973,134.409 165.973,133.909 C165.973,133.409 165.541,133 165.018,133 C164.496,133 164.064,133.409 164.064,133.909 C164.064,134.409 164.496,134.818 165.018,134.818 Z M169.474,139.75 C169.474,138.227 170.418,137.364 171.702,137.364 C172.946,137.364 173.702,138.176 173.702,139.545 L173.702,145 L175.043,145 L175.043,139.455 C175.043,137.227 173.855,136.159 172.088,136.159 C170.77,136.159 169.952,136.75 169.543,137.636 L169.429,137.636 L169.429,136.273 L168.134,136.273 L168.134,145 L169.474,145 L169.474,139.75 Z M181.288,136.273 L179.425,136.273 L179.425,134.182 L178.084,134.182 L178.084,136.273 L176.766,136.273 L176.766,137.409 L178.084,137.409 L178.084,142.864 C178.084,144.386 179.311,145.114 180.447,145.114 C180.947,145.114 181.266,145.023 181.447,144.955 L181.175,143.75 C181.061,143.773 180.879,143.818 180.584,143.818 C179.993,143.818 179.425,143.636 179.425,142.5 L179.425,137.409 L181.288,137.409 L181.288,136.273 Z M186.871,145.182 C188.643,145.182 189.939,144.295 190.348,142.977 L189.053,142.614 C188.712,143.523 187.922,143.977 186.871,143.977 C185.297,143.977 184.212,142.96 184.149,141.091 L190.484,141.091 L190.484,140.523 C190.484,137.273 188.553,136.159 186.734,136.159 C184.371,136.159 182.803,138.023 182.803,140.705 C182.803,143.386 184.348,145.182 186.871,145.182 Z M184.149,139.932 C184.24,138.574 185.2,137.364 186.734,137.364 C188.189,137.364 189.121,138.455 189.121,139.932 L184.149,139.932 Z M192.524,145 L193.865,145 L193.865,139.477 C193.865,138.295 194.797,137.432 196.07,137.432 C196.428,137.432 196.797,137.5 196.888,137.523 L196.888,136.159 C196.734,136.148 196.382,136.136 196.183,136.136 C195.138,136.136 194.229,136.727 193.911,137.591 L193.82,137.591 L193.82,136.273 L192.524,136.273 L192.524,145 Z M201.045,145.205 C202.568,145.205 203.364,144.386 203.636,143.818 L203.705,143.818 L203.705,145 L205.045,145 L205.045,139.25 C205.045,136.477 202.932,136.159 201.818,136.159 C200.5,136.159 199,136.614 198.318,138.205 L199.591,138.659 C199.886,138.023 200.585,137.341 201.864,137.341 C203.097,137.341 203.705,137.994 203.705,139.114 L203.705,139.159 C203.705,139.807 203.045,139.75 201.455,139.955 C199.835,140.165 198.068,140.523 198.068,142.523 C198.068,144.227 199.386,145.205 201.045,145.205 Z M201.25,144 C200.182,144 199.409,143.523 199.409,142.591 C199.409,141.568 200.341,141.25 201.386,141.114 C201.955,141.045 203.477,140.886 203.705,140.614 L203.705,141.841 C203.705,142.932 202.841,144 201.25,144 Z M211.038,145.182 C212.97,145.182 214.243,144 214.47,142.455 L213.129,142.455 C212.879,143.409 212.084,143.977 211.038,143.977 C209.447,143.977 208.425,142.659 208.425,140.636 C208.425,138.659 209.47,137.364 211.038,137.364 C212.22,137.364 212.925,138.091 213.129,138.886 L214.47,138.886 C214.243,137.25 212.857,136.159 211.016,136.159 C208.652,136.159 207.084,138.023 207.084,140.682 C207.084,143.295 208.584,145.182 211.038,145.182 Z M220.226,136.273 L218.362,136.273 L218.362,134.182 L217.021,134.182 L217.021,136.273 L215.703,136.273 L215.703,137.409 L217.021,137.409 L217.021,142.864 C217.021,144.386 218.249,145.114 219.385,145.114 C219.885,145.114 220.203,145.023 220.385,144.955 L220.112,143.75 C219.999,143.773 219.817,143.818 219.521,143.818 C218.93,143.818 218.362,143.636 218.362,142.5 L218.362,137.409 L220.226,137.409 L220.226,136.273 Z M228.72,145 L230.038,145 L231.947,138.295 L232.084,138.295 L233.993,145 L235.311,145 L237.97,136.273 L236.561,136.273 L234.675,142.932 L234.584,142.932 L232.743,136.273 L231.311,136.273 L229.447,142.955 L229.357,142.955 L227.47,136.273 L226.061,136.273 L228.72,145 Z M239.743,145 L241.084,145 L241.084,136.273 L239.743,136.273 L239.743,145 Z M240.425,134.818 C240.947,134.818 241.379,134.409 241.379,133.909 C241.379,133.409 240.947,133 240.425,133 C239.902,133 239.47,133.409 239.47,133.909 C239.47,134.409 239.902,134.818 240.425,134.818 Z M247.335,136.273 L245.472,136.273 L245.472,134.182 L244.131,134.182 L244.131,136.273 L242.812,136.273 L242.812,137.409 L244.131,137.409 L244.131,142.864 C244.131,144.386 245.358,145.114 246.494,145.114 C246.994,145.114 247.312,145.023 247.494,144.955 L247.222,143.75 C247.108,143.773 246.926,143.818 246.631,143.818 C246.04,143.818 245.472,143.636 245.472,142.5 L245.472,137.409 L247.335,137.409 L247.335,136.273 Z M250.881,139.75 C250.881,138.227 251.852,137.364 253.176,137.364 C254.438,137.364 255.199,138.159 255.199,139.545 L255.199,145 L256.54,145 L256.54,139.455 C256.54,137.21 255.347,136.159 253.562,136.159 C252.188,136.159 251.403,136.733 250.994,137.636 L250.881,137.636 L250.881,133.364 L249.54,133.364 L249.54,145 L250.881,145 L250.881,139.75 Z M270.629,136.273 L269.175,136.273 L266.766,143.227 L266.675,143.227 L264.266,136.273 L262.811,136.273 L266.038,145 L267.402,145 L270.629,136.273 Z M274.702,145.205 C276.224,145.205 277.02,144.386 277.293,143.818 L277.361,143.818 L277.361,145 L278.702,145 L278.702,139.25 C278.702,136.477 276.588,136.159 275.474,136.159 C274.156,136.159 272.656,136.614 271.974,138.205 L273.247,138.659 C273.543,138.023 274.241,137.341 275.52,137.341 C276.753,137.341 277.361,137.994 277.361,139.114 L277.361,139.159 C277.361,139.807 276.702,139.75 275.111,139.955 C273.491,140.165 271.724,140.523 271.724,142.523 C271.724,144.227 273.043,145.205 274.702,145.205 Z M274.906,144 C273.838,144 273.065,143.523 273.065,142.591 C273.065,141.568 273.997,141.25 275.043,141.114 C275.611,141.045 277.134,140.886 277.361,140.614 L277.361,141.841 C277.361,142.932 276.497,144 274.906,144 Z M281.149,145 L282.49,145 L282.49,139.477 C282.49,138.295 283.422,137.432 284.695,137.432 C285.053,137.432 285.422,137.5 285.513,137.523 L285.513,136.159 C285.359,136.148 285.007,136.136 284.808,136.136 C283.763,136.136 282.854,136.727 282.536,137.591 L282.445,137.591 L282.445,136.273 L281.149,136.273 L281.149,145 Z M287.102,145 L288.443,145 L288.443,136.273 L287.102,136.273 L287.102,145 Z M287.784,134.818 C288.307,134.818 288.739,134.409 288.739,133.909 C288.739,133.409 288.307,133 287.784,133 C287.261,133 286.83,133.409 286.83,133.909 C286.83,134.409 287.261,134.818 287.784,134.818 Z M294.445,145.182 C296.808,145.182 298.399,143.386 298.399,140.682 C298.399,137.955 296.808,136.159 294.445,136.159 C292.081,136.159 290.49,137.955 290.49,140.682 C290.49,143.386 292.081,145.182 294.445,145.182 Z M294.445,143.977 C292.649,143.977 291.831,142.432 291.831,140.682 C291.831,138.932 292.649,137.364 294.445,137.364 C296.24,137.364 297.058,138.932 297.058,140.682 C297.058,142.432 296.24,143.977 294.445,143.977 Z M305.946,141.432 C305.946,143.068 304.696,143.818 303.696,143.818 C302.582,143.818 301.787,143 301.787,141.727 L301.787,136.273 L300.446,136.273 L300.446,141.818 C300.446,144.045 301.628,145.114 303.264,145.114 C304.582,145.114 305.446,144.409 305.855,143.523 L305.946,143.523 L305.946,145 L307.287,145 L307.287,136.273 L305.946,136.273 L305.946,141.432 Z M315.925,138.227 C315.504,136.989 314.561,136.159 312.834,136.159 C310.993,136.159 309.629,137.205 309.629,138.682 C309.629,139.886 310.345,140.693 311.947,141.068 L313.402,141.409 C314.283,141.614 314.697,142.034 314.697,142.636 C314.697,143.386 313.902,144 312.652,144 C311.555,144 310.868,143.528 310.629,142.591 L309.357,142.909 C309.669,144.392 310.891,145.182 312.675,145.182 C314.703,145.182 316.084,144.074 316.084,142.568 C316.084,141.352 315.322,140.585 313.766,140.205 L312.47,139.886 C311.436,139.631 310.97,139.284 310.97,138.614 C310.97,137.864 311.766,137.318 312.834,137.318 C314.004,137.318 314.487,137.966 314.72,138.568 L315.925,138.227 Z M322.602,145 L323.943,145 L323.943,139.477 C323.943,138.295 324.875,137.432 326.148,137.432 C326.506,137.432 326.875,137.5 326.966,137.523 L326.966,136.159 C326.812,136.148 326.46,136.136 326.261,136.136 C325.216,136.136 324.307,136.727 323.989,137.591 L323.898,137.591 L323.898,136.273 L322.602,136.273 L322.602,145 Z M331.835,145.182 C334.199,145.182 335.79,143.386 335.79,140.682 C335.79,137.955 334.199,136.159 331.835,136.159 C329.472,136.159 327.881,137.955 327.881,140.682 C327.881,143.386 329.472,145.182 331.835,145.182 Z M331.835,143.977 C330.04,143.977 329.222,142.432 329.222,140.682 C329.222,138.932 330.04,137.364 331.835,137.364 C333.631,137.364 334.449,138.932 334.449,140.682 C334.449,142.432 333.631,143.977 331.835,143.977 Z M339.178,133.364 L337.837,133.364 L337.837,145 L339.178,145 L339.178,133.364 Z M345.293,145.182 C347.065,145.182 348.361,144.295 348.77,142.977 L347.474,142.614 C347.134,143.523 346.344,143.977 345.293,143.977 C343.719,143.977 342.634,142.96 342.571,141.091 L348.906,141.091 L348.906,140.523 C348.906,137.273 346.974,136.159 345.156,136.159 C342.793,136.159 341.224,138.023 341.224,140.705 C341.224,143.386 342.77,145.182 345.293,145.182 Z M342.571,139.932 C342.662,138.574 343.622,137.364 345.156,137.364 C346.611,137.364 347.543,138.455 347.543,139.932 L342.571,139.932 Z M357.128,138.227 C356.707,136.989 355.764,136.159 354.037,136.159 C352.196,136.159 350.832,137.205 350.832,138.682 C350.832,139.886 351.548,140.693 353.151,141.068 L354.605,141.409 C355.486,141.614 355.901,142.034 355.901,142.636 C355.901,143.386 355.105,144 353.855,144 C352.759,144 352.071,143.528 351.832,142.591 L350.56,142.909 C350.872,144.392 352.094,145.182 353.878,145.182 C355.906,145.182 357.287,144.074 357.287,142.568 C357.287,141.352 356.526,140.585 354.969,140.205 L353.673,139.886 C352.639,139.631 352.173,139.284 352.173,138.614 C352.173,137.864 352.969,137.318 354.037,137.318 C355.207,137.318 355.69,137.966 355.923,138.568 L357.128,138.227 Z M367.351,145.182 C369.714,145.182 371.305,143.386 371.305,140.682 C371.305,137.955 369.714,136.159 367.351,136.159 C364.987,136.159 363.396,137.955 363.396,140.682 C363.396,143.386 364.987,145.182 367.351,145.182 Z M367.351,143.977 C365.555,143.977 364.737,142.432 364.737,140.682 C364.737,138.932 365.555,137.364 367.351,137.364 C369.146,137.364 369.964,138.932 369.964,140.682 C369.964,142.432 369.146,143.977 367.351,143.977 Z M374.693,139.75 C374.693,138.227 375.636,137.364 376.92,137.364 C378.165,137.364 378.92,138.176 378.92,139.545 L378.92,145 L380.261,145 L380.261,139.455 C380.261,137.227 379.074,136.159 377.307,136.159 C375.989,136.159 375.17,136.75 374.761,137.636 L374.648,137.636 L374.648,136.273 L373.352,136.273 L373.352,145 L374.693,145 L374.693,139.75 Z M391.007,136.273 L389.143,136.273 L389.143,134.182 L387.803,134.182 L387.803,136.273 L386.484,136.273 L386.484,137.409 L387.803,137.409 L387.803,142.864 C387.803,144.386 389.03,145.114 390.166,145.114 C390.666,145.114 390.984,145.023 391.166,144.955 L390.893,143.75 C390.78,143.773 390.598,143.818 390.303,143.818 C389.712,143.818 389.143,143.636 389.143,142.5 L389.143,137.409 L391.007,137.409 L391.007,136.273 Z M394.553,139.75 C394.553,138.227 395.524,137.364 396.848,137.364 C398.109,137.364 398.871,138.159 398.871,139.545 L398.871,145 L400.212,145 L400.212,139.455 C400.212,137.21 399.018,136.159 397.234,136.159 C395.859,136.159 395.075,136.733 394.666,137.636 L394.553,137.636 L394.553,133.364 L393.212,133.364 L393.212,145 L394.553,145 L394.553,139.75 Z M406.324,145.182 C408.097,145.182 409.392,144.295 409.801,142.977 L408.506,142.614 C408.165,143.523 407.375,143.977 406.324,143.977 C404.75,143.977 403.665,142.96 403.602,141.091 L409.938,141.091 L409.938,140.523 C409.938,137.273 408.006,136.159 406.188,136.159 C403.824,136.159 402.256,138.023 402.256,140.705 C402.256,143.386 403.801,145.182 406.324,145.182 Z M403.602,139.932 C403.693,138.574 404.653,137.364 406.188,137.364 C407.642,137.364 408.574,138.455 408.574,139.932 L403.602,139.932 Z M420.273,136.273 L418.409,136.273 L418.409,134.182 L417.068,134.182 L417.068,136.273 L415.75,136.273 L415.75,137.409 L417.068,137.409 L417.068,142.864 C417.068,144.386 418.295,145.114 419.432,145.114 C419.932,145.114 420.25,145.023 420.432,144.955 L420.159,143.75 C420.045,143.773 419.864,143.818 419.568,143.818 C418.977,143.818 418.409,143.636 418.409,142.5 L418.409,137.409 L420.273,137.409 L420.273,136.273 Z M425.855,145.182 C427.628,145.182 428.923,144.295 429.332,142.977 L428.037,142.614 C427.696,143.523 426.906,143.977 425.855,143.977 C424.281,143.977 423.196,142.96 423.134,141.091 L429.469,141.091 L429.469,140.523 C429.469,137.273 427.537,136.159 425.719,136.159 C423.355,136.159 421.787,138.023 421.787,140.705 C421.787,143.386 423.332,145.182 425.855,145.182 Z M423.134,139.932 C423.224,138.574 424.185,137.364 425.719,137.364 C427.173,137.364 428.105,138.455 428.105,139.932 L423.134,139.932 Z M437.69,138.227 C437.27,136.989 436.327,136.159 434.599,136.159 C432.759,136.159 431.395,137.205 431.395,138.682 C431.395,139.886 432.111,140.693 433.713,141.068 L435.168,141.409 C436.048,141.614 436.463,142.034 436.463,142.636 C436.463,143.386 435.668,144 434.418,144 C433.321,144 432.634,143.528 432.395,142.591 L431.122,142.909 C431.435,144.392 432.656,145.182 434.44,145.182 C436.469,145.182 437.849,144.074 437.849,142.568 C437.849,141.352 437.088,140.585 435.531,140.205 L434.236,139.886 C433.202,139.631 432.736,139.284 432.736,138.614 C432.736,137.864 433.531,137.318 434.599,137.318 C435.77,137.318 436.253,137.966 436.486,138.568 L437.69,138.227 Z M443.663,136.273 L441.8,136.273 L441.8,134.182 L440.459,134.182 L440.459,136.273 L439.141,136.273 L439.141,137.409 L440.459,137.409 L440.459,142.864 C440.459,144.386 441.686,145.114 442.822,145.114 C443.322,145.114 443.641,145.023 443.822,144.955 L443.55,143.75 C443.436,143.773 443.254,143.818 442.959,143.818 C442.368,143.818 441.8,143.636 441.8,142.5 L441.8,137.409 L443.663,137.409 L443.663,136.273 Z M447.021,139.75 C447.021,138.227 447.964,137.364 449.249,137.364 C450.493,137.364 451.249,138.176 451.249,139.545 L451.249,145 L452.589,145 L452.589,139.455 C452.589,137.227 451.402,136.159 449.635,136.159 C448.317,136.159 447.499,136.75 447.089,137.636 L446.976,137.636 L446.976,136.273 L445.68,136.273 L445.68,145 L447.021,145 L447.021,139.75 Z M458.699,145.182 C460.472,145.182 461.767,144.295 462.176,142.977 L460.881,142.614 C460.54,143.523 459.75,143.977 458.699,143.977 C457.125,143.977 456.04,142.96 455.977,141.091 L462.312,141.091 L462.312,140.523 C462.312,137.273 460.381,136.159 458.562,136.159 C456.199,136.159 454.631,138.023 454.631,140.705 C454.631,143.386 456.176,145.182 458.699,145.182 Z M455.977,139.932 C456.068,138.574 457.028,137.364 458.562,137.364 C460.017,137.364 460.949,138.455 460.949,139.932 L455.977,139.932 Z M468.148,136.273 L466.284,136.273 L466.284,134.182 L464.943,134.182 L464.943,136.273 L463.625,136.273 L463.625,137.409 L464.943,137.409 L464.943,142.864 C464.943,144.386 466.17,145.114 467.307,145.114 C467.807,145.114 468.125,145.023 468.307,144.955 L468.034,143.75 C467.92,143.773 467.739,143.818 467.443,143.818 C466.852,143.818 466.284,143.636 466.284,142.5 L466.284,137.409 L468.148,137.409 L468.148,136.273 Z" id="Shape" fill="#C4C3C6" fill-rule="nonzero"></path>
            <path d="M631.359819,244.51 C631.54,236.51 634.72,229.01 636.72,221.31 C639.202,211.857 639.971,202.035 638.99,192.31 C638.17,184.19 633.99,175.12 640.4,168.12 C648.56,159.23 655.52,147.71 669.55,145.9 C674.91,145.2 680.05,143.67 685.3,142.52 L687.92,141.04 C691.07,138.04 696.03,141.04 699.06,137.67 C700.85,134.27 700.98,131.53 698.06,128.08 C695.49,125.08 691.98,121.56 693.58,116.57 C693.58,110.66 689.73,105.33 691.05,99.2304 C689.174,96.464 688.345,93.1196 688.711,89.7971 C689.078,86.4746 690.616,83.3914 693.05,81.1004 C700.29,70.0404 721.61,66.3804 729.95,75.7704 C733.777,79.863 736.566,84.8148 738.082,90.2093 C739.597,95.6038 739.796,101.283 738.66,106.77 C737.75,111.5 732.25,113.88 733.66,119.21 C732.66,121.79 732.66,125.21 728.66,125.21 L728.3,125.59 C727.09,130.1 728.12,134.59 728.12,139.15 C736.907,145.161 746.16,150.461 755.79,155 C765.62,159.69 775.84,164.94 777.44,176.72 C779.67,193.1 778.67,211.1 779.53,227.72 L780.05,237.72 C780.67,250.24 631.17,252.92 631.359819,244.51 Z" id="Path" fill="#000000" fill-rule="nonzero"></path>
            <path d="M669.65,182.58 C668.883,175.567 668.27,168.534 667.81,161.48 C667.62,158.26 668.32,153.98 671.59,153.61 C673.886,180.917 678.629,207.962 685.76,234.42 L678.85,234.42 C674.711,217.348 671.638,200.034 669.65,182.58 Z M679.7,168.13 C679.112,162.042 678.968,155.919 679.27,149.81 C685.2,146.87 694.27,142.37 698.46,145.45 C699.07,160.62 703.17,175.72 703.72,191.05 C703.683,194.182 704.019,197.308 704.72,200.36 C705.102,201.672 705.577,202.955 706.14,204.2 C706.43,214.3 707.32,224.36 707.64,234.42 C703.353,235.754 700.393,236.42 698.76,236.42 C695.969,236.265 693.231,235.587 690.69,234.42 C686,212.49 682.83,190.39 679.7,168.13 Z" id="Shape" fill="#D3D8E0" fill-rule="nonzero"></path>
            <path d="M713.42,234.42 C713.27,231.42 712.96,228.42 712.52,225.42 C711.963,222.707 711.718,219.939 711.79,217.17 C711.784,216.68 711.943,216.201 712.24,215.81 C713.09,214.88 714.69,215.62 715.75,216.38 C724.445,222.731 733.869,228.019 743.82,232.13 C745.23,232.632 746.533,233.395 747.66,234.38 C739.074,235.5 730.436,236.167 721.78,236.38 C719.927,236.407 717.14,235.754 713.42,234.42 Z" id="Path" fill="#D3D8E0" fill-rule="nonzero"></path>
            <path d="M663.77,240.42 L660.48,240.42 C656.96,217.74 655.87,194.73 655.79,171.77 C655.693,168.559 656.308,165.366 657.59,162.42 L657.59,163 C657.59,188.77 659.04,214.64 663.7,240 C663.7,240.13 663.7,240.27 663.77,240.41 L663.77,240.42 Z M685.9,240.42 L681.71,240.42 C676.678,220.692 672.986,200.646 670.66,180.42 C669.893,173.46 669.283,166.477 668.83,159.47 C668.61,156.98 669.02,153.84 670.66,152.42 C671.08,158.79 671.66,165.16 672.32,171.49 C674.991,194.794 679.533,217.844 685.9,240.42 Z M648.38,240.42 L646,240.42 C645.94,239.42 645.89,238.35 645.83,237.31 C644.53,215.57 643.63,193.53 647.83,172.16 C647.806,171.904 647.858,171.646 647.98,171.42 L647.98,174.36 C645.82,192.26 646.52,210.44 647.62,228.44 C647.85,232.44 648.08,236.44 648.34,240.44 L648.38,240.42 Z" id="Shape" fill="#FFFFFF" fill-rule="nonzero"></path>
            <path d="M691.8,161.26 C695.98,187.96 698.88,203.45 697.8,230.42 C696.96,248.57 696.4,235.69 694.8,232.3 C694.425,231.655 694.091,230.987 693.8,230.3 C693.819,230.135 693.772,229.97 693.67,229.84 C687.95,205.99 682.99,193.47 679.47,169.21 C678.882,163.259 678.738,157.272 679.04,151.3 L680.78,150.46 C680.65,153.68 691.34,158 691.8,161.26 Z" id="Path" fill="#FFFFFF" fill-rule="nonzero"></path>
            <path d="M734,105.001 C734.29,103.491 734.53,102.261 734.57,101.941 C734.879,98.4604 734.812,94.9568 734.37,91.4908 C733.63,86.0708 731.55,80.4908 726.37,78.0108 C726.035,77.8531 725.67,77.7713 725.3,77.7713 C724.93,77.7713 724.565,77.8531 724.23,78.0108 C719.23,70.7908 703.84,73.8808 697.68,79.7108 C696.657,80.5428 695.834,81.5938 695.272,82.7863 C694.709,83.9788 694.422,85.2823 694.43,86.6008 C694.074,86.9279 693.83,87.3579 693.73,87.8308 C693.66,88.1322 693.63,88.4415 693.64,88.7508 C693.64,88.9308 693.53,89.1308 693.64,89.0408 C693.549,89.2255 693.439,89.3999 693.31,89.5608 C692.924,90.0175 692.728,90.6046 692.761,91.2016 C692.795,91.7985 693.056,92.36 693.49,92.7708 C693.814,93.059 694.216,93.2444 694.645,93.3032 C695.074,93.3619 695.511,93.2915 695.9,93.1008 C698.24,91.9808 702.78,94.6308 704.9,95.4408 C709.29,97.0608 715.9,94.9808 720.6,95.1508 C721.484,95.1334 722.364,95.2862 723.19,95.6008 C725.42,96.6808 725.57,99.7908 726.01,102.301 C726.767,106.416 729.117,110.067 732.55,112.461 C732.55,112.461 733.39,108.071 734,105.001 Z" id="Path" fill="#FFFFFF" fill-rule="nonzero"></path>
            <path d="M700,111.42 C699.33,110.58 700.72,108.84 701.22,107.9 C701.44,107.48 701.96,105.65 703.22,105.42 C703.94,105.29 703.83,107.65 703.81,107.81 C703.881,108.12 703.877,108.442 703.799,108.75 C703.721,109.057 703.57,109.342 703.36,109.58 C702.397,110.423 701.265,111.05 700.04,111.42 L700,111.42 Z" id="Path" fill="#C4C3C6" fill-rule="nonzero"></path>
            <path d="M770.18,234.42 L765.26,234.42 C765.26,215.77 766.53,190.11 751.62,175.99 C752.759,180.519 753.27,185.183 753.14,189.85 C753.02,196.33 752.42,202.91 751.67,209.43 C751.615,210.339 751.288,211.21 750.73,211.93 C750.348,212.333 749.879,212.644 749.36,212.839 C748.84,213.035 748.283,213.111 747.73,213.06 C745.525,212.99 743.378,212.335 741.51,211.16 C739.7,209.99 738.51,207.45 737.1,205.7 C734.045,201.894 731.194,197.929 728.56,193.82 C723.98,186.56 710.01,166.56 720.69,159.37 C722.068,158.602 723.189,157.444 723.91,156.04 C725.58,151.89 719.04,148.25 717.78,142.97 C717.582,142.318 717.582,141.622 717.78,140.97 C718.07,140.34 718.522,139.798 719.09,139.4 L723.87,135.4 C722.64,144.22 727.76,150.53 736.08,153.05 C744.69,155.68 753.67,158.65 759.7,164.97 C764.7,170.18 767.17,177.15 768.35,184.07 C770,193.78 769.35,203.63 769.11,213.4 C769.014,220.414 769.348,227.427 770.11,234.4 L770.18,234.42 Z" id="Path" fill="#FFFFFF" fill-rule="nonzero"></path>
            <path d="M603.56,235.43 C617.3,220.3 667.76,234.9 653.03,221.91 C638.3,208.92 608.87,216.6 590.65,221.57 C572.43,226.54 563.46,240.11 565.94,245.72 C568.42,251.33 589.83,250.57 603.56,235.43 Z" id="Path" fill="#F9F9F9"></path>
            <path d="M666.84,174.461 C675.34,177.651 679.93,179.741 684.4,182.911 C690.47,187.201 694.4,192.641 696.02,199.721 C698.07,208.721 697.78,234.421 697.78,249.421 C697.78,250.781 632.63,261.091 620.62,261.501 C583,262.801 559.71,256.631 545,240.001 L544.33,239.241 L544.17,238.241 C544.02,237.311 543.86,236.381 543.68,235.461 C543.68,235.251 543.25,233.251 543.11,232.461 C542.83,231.001 542.58,229.621 542.34,228.191 C541.01,220.832 540.341,213.369 540.339023,205.891 C540.308,200.352 541.062,194.837 542.58,189.511 C545.22,180.881 554.39,173.091 562.12,171.391 C567.253,170.407 572.311,169.071 577.26,167.391 C582.59,165.511 587.774,163.241 592.77,160.601 C593.87,157.761 593.52,156.241 591.23,153.961 C591.02,153.741 589.91,152.671 589.6,152.361 C584.94,147.741 580.04,144.091 581.05,138.751 C580.658,136.422 579.97,134.154 579,132.001 C577,126.741 576.16,123.861 576.36,120.411 C571.28,113.111 571.45,99.5107 577.28,92.6807 C585.83,77.3707 617.91,70.6007 629.95,81.9507 C640.49,91.4607 646.05,109.191 644.42,123.221 C644.16,125.751 643.37,127.471 641.49,130.531 L641.1,131.181 C639.51,133.801 639.2,134.911 639.77,136.481 L640.14,137.481 L639.85,138.531 C639.75,138.901 639.67,139.251 639.51,140.081 C639.05,142.481 635.93,143.761 635.06,145.081 C634.196,146.458 632.903,147.512 631.38,148.081 C631.347,150.672 631.589,153.26 632.1,155.801 C632.16,156.181 632.19,156.341 632.23,156.551 C632.38,157.551 632.5,158.351 632.6,159.081 C643.647,164.987 655.087,170.126 666.84,174.461 Z" id="Path" fill="#000000" fill-rule="nonzero"></path>
            <path d="M634.25,118.421 C632.65,116.271 630.51,115.011 628.25,115.171 C623.89,115.471 620.73,120.941 621.18,127.391 C621.47,131.451 623.18,134.941 625.4,136.881 C624.88,139.671 623.24,136.541 621.49,139.091 C620.05,141.211 619.6,144.571 618.31,146.791 C615.71,151.271 609.55,148.421 604.73,147.731 C598.14,146.791 594.31,148.311 590.07,143.341 C589.07,142.341 586.83,137.891 585.02,131.971 C583.44,126.781 583.33,124.861 582.38,121.161 C581.9,119.271 582.31,115.161 582.12,115.031 C581.165,114.375 580.396,113.484 579.888,112.443 C579.38,111.402 579.149,110.247 579.22,109.091 C579.529,106.882 580.149,104.727 581.06,102.691 C583.113,98.4086 585.763,94.4391 588.93,90.9007 C589.555,90.1777 590.321,89.5891 591.18,89.1707 C591.96,88.8507 592.81,88.7707 593.59,88.4307 C594.709,87.7029 595.746,86.8545 596.68,85.9007 C597.155,85.4345 597.771,85.1392 598.431,85.0614 C599.092,84.9835 599.76,85.1275 600.33,85.4707 C600.83,84.1507 603.07,85.0407 604.33,84.3907 C605.747,84.1741 607.186,84.1472 608.61,84.3107 C610.13,84.2007 611.51,82.3107 613.03,84.4007 C613.278,84.8878 613.617,85.3225 614.03,85.6807 C614.52,85.9109 615.059,86.0206 615.6,86.0007 C618.76,86.3207 621,89.7407 624.16,89.8707 C624.866,89.7921 625.58,89.8395 626.27,90.0107 C629.39,91.1407 631.18,95.9207 632.27,98.6507 C634,103.001 635,111.831 634.25,118.421 Z" id="Path" fill="#D3D8E0" fill-rule="nonzero"></path>
            <path d="M582.54,118 C582.25,116.49 582.01,115.26 581.97,114.94 C581.661,111.46 581.728,107.956 582.17,104.49 C582.91,99.0703 584.99,93.4903 590.17,91.0103 C590.503,90.8521 590.867,90.77 591.235,90.77 C591.603,90.77 591.967,90.8521 592.3,91.0103 C597.36,83.7903 610.69,83.8803 616.85,89.7103 C617.876,90.5405 618.701,91.5908 619.266,92.7836 C619.83,93.9763 620.119,95.2808 620.11,96.6003 C620.463,96.9299 620.707,97.3588 620.81,97.8303 C620.875,98.1325 620.906,98.4412 620.9,98.7503 C620.9,98.9303 621.01,99.1303 620.9,99.0403 C620.991,99.2251 621.102,99.3994 621.23,99.5603 C621.616,100.017 621.812,100.604 621.779,101.201 C621.745,101.798 621.484,102.36 621.05,102.77 C620.727,103.059 620.325,103.244 619.895,103.303 C619.466,103.362 619.029,103.291 618.64,103.1 C616.3,101.98 611.76,104.63 609.64,105.44 C605.246,107.063 600.621,107.978 595.94,108.15 C595.053,108.134 594.17,108.287 593.34,108.6 C591.12,109.68 590.97,112.79 590.53,115.3 C589.769,119.401 587.423,123.037 584,125.42 C584,125.42 583.16,121.07 582.54,118 Z" id="Path" fill="#FFFFFF" fill-rule="nonzero"></path>
            <path d="M716.4,95.1907 C716.93,95.3407 720.56,92.9107 720.8,93.4107 C726.8,95.4107 733.98,93.2007 734.8,99.4107 C735.2,101.411 735.39,108.411 734.14,109.891 C734.178,110.234 734.115,110.582 733.96,110.891 C733.858,111.09 733.73,111.275 733.58,111.441 C733.5,111.541 733.47,111.711 733.45,111.601 C733.415,111.748 733.395,111.899 733.39,112.051 C733.407,112.433 733.289,112.809 733.057,113.113 C732.826,113.418 732.495,113.632 732.123,113.718 C731.75,113.805 731.359,113.759 731.017,113.588 C730.675,113.416 730.404,113.131 730.25,112.781 C729.44,111.031 726.14,104.941 724.54,104.371 C721.25,103.191 712.29,94.0607 716.4,95.1907 Z" id="Path" fill="#D3D8E0" fill-rule="nonzero"></path>
            <path d="M597,169.591 C595.5,173.591 568.57,186.741 568.69,188.901 C568.8,190.661 590.26,185.541 596.43,185.801 C597.85,185.861 604.31,187.031 593.26,196.431 C582.21,205.831 569.17,206.111 565.26,211.101 C561.35,216.091 557.26,217.251 553.01,225.931 C552.8,216.281 548.61,203.561 552.32,193.481 C553.85,189.321 557.32,182.411 578.46,177.301 C587.76,175.061 597,169.591 597,169.591 Z" id="Path" fill="#FFFFFF" fill-rule="nonzero"></path>
            <path d="M661.77,246.761 C651.507,249.851 640.944,251.842 630.26,252.701 L630.45,252.581 C643.31,244.451 654.89,236.021 663.37,226.211 C671.04,217.441 678.07,207.641 680.180034,197.211 C680.2,197.261 671.4,231.211 661.77,246.761 Z" id="Path" fill="#D3D8E0"></path>
            <path d="M618.93,253.161 C609.976,253.546 601.006,253.08 592.14,251.771 C600.19,246.931 608,241.991 615.94,237.131 C640.26,222.381 666.94,207.231 666.74,185.131 C672.43,186.831 672.95,190.371 672.17,192.791 C668.54,204.131 663.54,215.161 655.17,225.161 C653.57,227.074 651.853,228.951 650.02,230.791 C648.02,232.701 646.02,234.581 643.88,236.431 C636.253,242.745 628.054,248.336 619.39,253.131 L618.93,253.161 Z" id="Path" fill="#D3D8E0"></path>
            <path d="M573.18,241.11 C573.98,238.05 580.01,226.11 591.88,214.18 C603.51,202.53 620.99,190.951 621.18,190.25 C623.83,183.57 629.96,177.8 632.63,171.25 C636.69,170.95 640.79,172.37 646.14,175.04 C646.85,175.39 650.43,177.57 651.07,177.9 C650.539,180.724 649.559,183.445 648.17,185.961 C640.39,197.511 603.91,222.091 593.17,232.571 C592.37,233.351 607.6,224.971 609.6,224.571 C610.092,224.472 610.546,224.236 610.91,223.89 C625.09,212.14 650.91,195.551 658.18,181.471 C661.38,182.471 661.5,184.52 660.86,185.9 C659.473,188.989 657.907,191.994 656.17,194.9 C646.94,210.51 615.62,234.63 588.88,250.44 C584.25,241.93 571.21,248.71 573.18,241.11 Z" id="Path" fill="#D3D8E0"></path>
        </g>
    </g>
</svg>