<?xml version="1.0" encoding="UTF-8"?>
<svg width="882px" height="300px" viewBox="0 0 882 300" version="1.1" xmlns="http://www.w3.org/2000/svg" xmlns:xlink="http://www.w3.org/1999/xlink">
    <!-- Generator: Sketch 61 (89581) - https://sketch.com -->
    <title>Substrate Node</title>
    <desc>Created with Sketch.</desc>
    <g id="Substrate-Node" stroke="none" stroke-width="1" fill="none" fill-rule="evenodd">
        <rect id="Rectangle" fill="#000000" fill-rule="nonzero" x="0" y="0" width="882" height="210"></rect>
        <g id="Group-2" transform="translate(514.999670, 0.000000)" fill="#1F232C">
            <rect id="Rectangle" fill-rule="nonzero" x="105.00033" y="105" width="52.5" height="52.5"></rect>
            <path d="M122.50066,52.5 L122.50066,105 L116.66733,105 L116.66733,52.5 L122.50066,52.5 Z M134.16666,52.5 L134.16666,105 L128.33333,105 L128.33333,52.5 L134.16666,52.5 Z M145.83366,52.5 L145.83366,105 L140.00033,105 L140.00033,52.5 L145.83366,52.5 Z M157.50066,52.5 L157.50066,105 L151.66733,105 L151.66733,52.5 L157.50066,52.5 Z M110.83701,52.5 L110.83701,105 L105.00033,105 L105.00033,52.5 L110.83701,52.5 Z" id="Shape" fill-rule="nonzero"></path>
            <path d="M40.83333,105 L40.83333,157.5 L35,157.5 L35,105 L40.83333,105 Z M29.16733,105 L29.16733,157.5 L23.334,157.5 L23.334,105 L29.16733,105 Z M17.50033,105 L17.50033,157.5 L11.667,157.5 L11.667,105 L17.50033,105 Z M5.83333,105 L5.83333,157.5 L-6.92779167e-14,157.5 L-6.92779167e-14,105 L5.83333,105 Z M52.50033,105 L52.50033,157.5 L46.66365,157.5 L46.66365,105 L52.50033,105 Z" id="Shape" fill-rule="nonzero"></path>
            <path d="M355.50533,0.9844 L355.50533,53.4844 L349.672,53.4844 L349.672,0.9844 L355.50533,0.9844 Z M343.83833,0.9844 L343.83833,53.4844 L338.005,53.4844 L338.005,0.9844 L343.83833,0.9844 Z M332.17233,0.9844 L332.17233,53.4844 L326.339,53.4844 L326.339,0.9844 L332.17233,0.9844 Z M320.50533,0.9844 L320.50533,53.4844 L314.672,53.4844 L314.672,0.9844 L320.50533,0.9844 Z M367.17233,0.9844 L367.17233,53.4844 L361.33565,53.4844 L361.33565,0.9844 L367.17233,0.9844 Z" id="Shape" fill-rule="nonzero"></path>
            <path d="M52.50033,163.333 L52.50033,157.5 C81.49533,157.5 105.00033,181.005 105.00033,210 L99.16733,210 C99.16733,184.227 78.27333,163.333 52.50033,163.333 Z M52.50033,175 L52.50033,169.166 C75.05233,169.166 93.33333,187.448 93.33333,210 L87.50033,210 C87.50033,190.67 71.83033,175 52.50033,175 Z M52.50033,180.834 L52.50033,186.667 C65.38733,186.667 75.83333,197.114 75.83333,210 L81.66733,210 C81.66733,193.892 68.60833,180.834 52.50033,180.834 Z M52.50033,198.333 L52.50033,192.5 C62.16533,192.5 70.00033,200.335 70.00033,210 L64.16733,210 C64.16733,203.557 58.94333,198.333 52.50033,198.333 Z M52.50033,210 L52.50033,204.166 C55.72233,204.166 58.33333,206.778 58.33333,210 L52.50033,210 Z" id="Shape"></path>
            <path d="M262.00033,110.833 L262.00033,105 C290.99533,105 314.50033,128.505 314.50033,157.5 L308.66733,157.5 C308.66733,131.727 287.77333,110.833 262.00033,110.833 Z M262.00033,122.5 L262.00033,116.667 C284.55233,116.667 302.83333,134.949 302.83333,157.5 L297.00033,157.5 C297.00033,138.17 281.33033,122.5 262.00033,122.5 Z M262.00033,128.333 L262.00033,134.167 C274.88733,134.167 285.33333,144.613 285.33333,157.5 L291.16733,157.5 C291.16733,141.392 278.10833,128.333 262.00033,128.333 Z M262.00033,145.833 L262.00033,140 C271.66533,140 279.50033,147.835 279.50033,157.5 L273.66733,157.5 C273.66733,151.056 268.44333,145.833 262.00033,145.833 Z M262.00033,157.5 L262.00033,151.667 C265.22233,151.667 267.83333,154.279 267.83333,157.5 L262.00033,157.5 Z" id="Shape"></path>
            <path d="M214.11233,52.5 L210.00033,52.5 L210.00033,48.3875 L258.38733,0 L262.50033,0 L262.50033,4.1125 L214.11233,52.5 Z M250.13333,0 L241.87933,0 L210.00033,31.8791 L210.00033,40.1333 L250.13333,0 Z M233.62533,0 L225.37133,0 L210.00033,15.3708 L210.00033,23.625 L233.62533,0 Z M210.00033,0 L210.00033,7.11666 L217.11633,0 L210.00033,0 Z M262.50033,20.6208 L262.50033,12.3667 L222.36633,52.5 L230.62133,52.5 L262.50033,20.6208 Z M262.50033,37.1291 L262.50033,28.875 L238.87533,52.5 L247.12933,52.5 L262.50033,37.1291 Z M262.50033,45.3833 L255.38333,52.5 L262.50033,52.5 L262.50033,45.3833 Z" id="Shape" fill-rule="nonzero"></path>
            <path d="M157.50033,105 L210.00033,105 L210.00033,52.5 C181.00533,52.5 157.50033,76.0051 157.50033,105 Z" id="Path" fill-rule="nonzero"></path>
            <path d="M262.50033,157.5 L262.50033,105 L210.00033,105 C210.00033,133.995 233.50533,157.5 262.50033,157.5 Z" id="Path" fill-rule="nonzero"></path>
            <path d="M110.83733,204.164 L110.83733,210.001 L105.00033,210.001 L105.00033,204.164 L110.83733,204.164 Z M122.49433,204.164 L122.49433,210.001 L116.65833,210.001 L116.65833,204.164 L122.49433,204.164 Z M134.16833,204.164 L134.16833,210.001 L128.33133,210.001 L128.33133,204.164 L134.16833,204.164 Z M145.82633,204.164 L145.82633,210.001 L139.99033,210.001 L139.99033,204.164 L145.82633,204.164 Z M157.50033,204.164 L157.50033,210.001 L151.66333,210.001 L151.66333,204.164 L157.50033,204.164 Z M151.66333,198.326 L151.66333,204.163 L145.82633,204.163 L145.82633,198.326 L140.00533,198.326 L140.00633,204.163 L134.16933,204.163 L134.16833,198.326 L128.33133,198.326 L128.33233,204.163 L122.49533,204.163 L122.49533,198.326 L128.33233,198.326 L128.33233,192.505 L122.49533,192.505 L122.49533,186.668 L128.33233,186.668 L128.33133,180.832 L134.16833,180.832 L134.16933,186.668 L139.99033,186.668 L139.99033,180.832 L145.82633,180.832 L145.82633,186.668 L151.66333,186.668 L151.66333,180.832 L157.50033,180.832 L157.50033,186.669 L151.66333,186.669 L151.66333,192.489 L157.50033,192.489 L157.50033,198.326 L151.66333,198.326 Z M110.83733,180.832 L110.83733,186.668 L116.65833,186.668 L116.65833,180.832 L122.49433,180.832 L122.49433,186.669 L116.67333,186.669 L116.67333,192.489 L122.49433,192.489 L122.49433,198.326 L116.67333,198.326 L116.67333,204.163 L110.83733,204.163 L110.83733,198.326 L105.00033,198.326 L105.00033,192.489 L110.83733,192.489 L110.83733,186.669 L105.00033,186.669 L105.00033,180.832 L110.83733,180.832 Z M139.99033,192.505 L134.16933,192.505 L134.16933,198.326 L139.99033,198.325 L139.99033,192.505 Z M116.65833,192.505 L110.83733,192.505 L110.83733,198.326 L116.65833,198.325 L116.65833,192.505 Z M134.16833,186.669 L128.33133,186.669 L128.33133,192.489 L134.16833,192.489 L134.16833,186.669 Z M145.82633,186.669 L140.00533,186.669 L140.00533,192.489 L145.82633,192.489 L145.82633,186.669 Z M116.67333,163.337 L116.67333,169.158 L122.49433,169.158 L122.49433,174.995 L116.67333,174.995 L116.67333,180.832 L110.83733,180.832 L110.83733,174.995 L105.00033,174.995 L105.00033,169.158 L110.83733,169.158 L110.83733,163.337 L116.67333,163.337 Z M128.33233,163.337 L128.33133,169.158 L134.16833,169.158 L134.16933,163.337 L140.00633,163.337 L140.00533,169.158 L145.82633,169.158 L145.82633,163.337 L151.66333,163.337 L151.66333,169.158 L157.50033,169.158 L157.50033,174.995 L151.66333,174.995 L151.66333,180.832 L145.82633,180.832 L145.82633,174.995 L140.00533,174.995 L140.00633,180.832 L134.16933,180.832 L134.16833,174.995 L128.33133,174.995 L128.33233,180.832 L122.49533,180.832 L122.49533,174.995 L128.33233,174.995 L128.33233,169.174 L122.49533,169.174 L122.49533,163.337 L128.33233,163.337 Z M139.99033,169.174 L134.16933,169.174 L134.16933,174.995 L139.99033,174.994 L139.99033,169.174 Z M116.65833,169.174 L110.83733,169.174 L110.83733,174.995 L116.65833,174.994 L116.65833,169.174 Z M151.66333,169.174 L145.82633,169.174 L145.82633,174.995 L151.66333,174.995 L151.66333,169.174 Z M110.83733,157.5 L110.83733,163.337 L105.00033,163.337 L105.00033,157.5 L110.83733,157.5 Z M122.49433,157.5 L122.49433,163.337 L116.65833,163.337 L116.65833,157.5 L122.49433,157.5 Z M134.16833,157.5 L134.16833,163.337 L128.33133,163.337 L128.33133,157.5 L134.16833,157.5 Z M145.82633,157.5 L145.82633,163.337 L139.99033,163.337 L139.99033,157.5 L145.82633,157.5 Z M157.50033,157.5 L157.50033,163.337 L151.66333,163.337 L151.66333,157.5 L157.50033,157.5 Z M151.66333,192.505 L145.82633,192.505 L145.82633,198.326 L151.66333,198.326 L151.66333,192.505 Z" id="Combined-Shape" fill-rule="nonzero"></path>
        </g>
        <path d="M61.75,91.484375 L66.3203125,91.484375 C66.5703137,93.687511 67.4335864,95.2812451 68.9101562,96.265625 C70.3867261,97.2500049 72.2109266,97.7421875 74.3828125,97.7421875 C75.476568,97.7421875 76.4843704,97.6289074 77.40625,97.4023438 C78.3281296,97.1757801 79.1328091,96.839846 79.8203125,96.3945312 C80.5078159,95.9492165 81.0546855,95.3984408 81.4609375,94.7421875 C81.8671895,94.0859342 82.0703125,93.3203169 82.0703125,92.4453125 C82.0703125,91.0390555 81.6757852,89.937504 80.8867188,89.140625 C80.0976523,88.343746 78.8437586,87.7031274 77.125,87.21875 L70.7265625,85.4375 C68.0390491,84.7031213 66.0546939,83.5937574 64.7734375,82.109375 C63.4921811,80.6249926 62.8515625,78.6796995 62.8515625,76.2734375 C62.8515625,75.0546814 63.1171848,73.917974 63.6484375,72.8632812 C64.1796902,71.8085885 64.9414013,70.8984413 65.9335938,70.1328125 C66.9257862,69.3671837 68.1015557,68.761721 69.4609375,68.3164062 C70.8203193,67.8710915 72.351554,67.6484375 74.0546875,67.6484375 C75.6171953,67.6484375 77.0781182,67.8320294 78.4375,68.1992188 C79.7968818,68.5664081 80.9960886,69.1406211 82.0351562,69.921875 C83.0742239,70.7031289 83.9218717,71.7031189 84.578125,72.921875 C85.2343783,74.1406311 85.6406242,75.5781167 85.796875,77.234375 L81.25,77.234375 C81.1562495,76.1406195 80.8906272,75.2343786 80.453125,74.515625 C80.0156228,73.7968714 79.4687533,73.2226584 78.8125,72.7929688 C78.1562467,72.3632791 77.4218791,72.0625009 76.609375,71.890625 C75.7968709,71.7187491 74.945317,71.6328125 74.0546875,71.6328125 C71.9765521,71.6328125 70.3359435,72.0468709 69.1328125,72.875 C67.9296815,73.7031291 67.328125,74.8359303 67.328125,76.2734375 C67.328125,77.8046952 67.7421834,78.9414025 68.5703125,79.6835938 C69.3984416,80.425785 70.7265534,81.0546849 72.5546875,81.5703125 L77.78125,83 C79.187507,83.390627 80.445307,83.8398412 81.5546875,84.3476562 C82.664068,84.8554713 83.5937463,85.4843713 84.34375,86.234375 C85.0937537,86.9843787 85.6601543,87.8554638 86.0429688,88.8476562 C86.4257832,89.8398487 86.6171875,91.0078058 86.6171875,92.3515625 C86.6171875,93.7890697 86.2890658,95.0859317 85.6328125,96.2421875 C84.9765592,97.3984433 84.0976618,98.3828084 82.9960938,99.1953125 C81.8945257,100.007817 80.6054761,100.63281 79.1289062,101.070312 C77.6523364,101.507815 76.1015706,101.726562 74.4765625,101.726562 C72.8515544,101.726562 71.3007886,101.527346 69.8242188,101.128906 C68.3476489,100.730467 67.035162,100.113285 65.8867188,99.2773438 C64.7382755,98.4414021 63.7929725,97.3828189 63.0507812,96.1015625 C62.30859,94.8203061 61.8750006,93.281259 61.75,91.484375 Z M92.8515625,92.84375 L92.8515625,76.53125 L97.1640625,76.53125 L97.1640625,92.3515625 C97.1640625,94.1171963 97.5078091,95.5195261 98.1953125,96.5585938 C98.8828159,97.5976614 100.140616,98.1171875 101.96875,98.1171875 C103.796884,98.1171875 105.246088,97.4375068 106.316406,96.078125 C107.386724,94.7187432 107.921875,92.9687607 107.921875,90.828125 L107.921875,76.53125 L112.234375,76.53125 L112.234375,101 L107.921875,101 L107.921875,96.96875 C107.249997,98.4062572 106.351562,99.5351521 105.226562,100.355469 C104.101557,101.175785 102.617197,101.585938 100.773438,101.585938 C99.6484319,101.585938 98.5976611,101.425783 97.6210938,101.105469 C96.6445264,100.785155 95.804691,100.273441 95.1015625,99.5703125 C94.398434,98.867184 93.8476582,97.960943 93.4492188,96.8515625 C93.0507793,95.742182 92.8515625,94.4062578 92.8515625,92.84375 Z M120.203125,101 L120.203125,68.3515625 L124.515625,68.3515625 L124.515625,80.515625 C125.281254,79.0468677 126.312494,77.9179727 127.609375,77.1289062 C128.906256,76.3398398 130.484366,75.9453125 132.34375,75.9453125 C133.968758,75.9453125 135.390619,76.2812466 136.609375,76.953125 C137.828131,77.6250034 138.83984,78.5351505 139.644531,79.6835938 C140.449223,80.832037 141.050779,82.1913984 141.449219,83.7617188 C141.847658,85.3320391 142.046875,86.9999912 142.046875,88.765625 C142.046875,90.562509 141.847658,92.2343673 141.449219,93.78125 C141.050779,95.3281327 140.449223,96.6796817 139.644531,97.8359375 C138.83984,98.9921933 137.832037,99.9062466 136.621094,100.578125 C135.41015,101.250003 133.984383,101.585938 132.34375,101.585938 C130.484366,101.585938 128.906256,101.19141 127.609375,100.402344 C126.312494,99.6132773 125.281254,98.4843823 124.515625,97.015625 L124.515625,101 L120.203125,101 Z M124.515625,90.828125 C124.515625,92.9375105 125.093744,94.6796806 126.25,96.0546875 C127.406256,97.4296944 129.070302,98.1171875 131.242188,98.1171875 C133.070322,98.1171875 134.5664,97.6054739 135.730469,96.5820312 C136.894537,95.5585886 137.476562,94.2187583 137.476562,92.5625 L137.476562,84.96875 C137.476562,83.3124917 136.894537,81.9687552 135.730469,80.9375 C134.5664,79.9062448 133.070322,79.390625 131.242188,79.390625 C129.070302,79.390625 127.406256,80.0820243 126.25,81.4648438 C125.093744,82.8476632 124.515625,84.5937395 124.515625,86.703125 L124.515625,90.828125 Z M147.15625,93.265625 L151.492188,93.265625 C151.554688,94.8906331 152.136713,96.1054647 153.238281,96.9101562 C154.339849,97.7148478 155.640617,98.1171875 157.140625,98.1171875 C158.578132,98.1171875 159.82812,97.7968782 160.890625,97.15625 C161.95313,96.5156218 162.484375,95.5859436 162.484375,94.3671875 C162.484375,93.3828076 162.164066,92.593753 161.523438,92 C160.925518,91.4458306 159.892055,91.0141677 158.423022,90.7050002 L154.070312,89.8203125 C152.054677,89.3984354 150.503912,88.6210994 149.417969,87.4882812 C148.332026,86.3554631 147.789062,84.8281346 147.789062,82.90625 C147.789062,81.9531202 148.003904,81.0507855 148.433594,80.1992188 C148.863283,79.347652 149.480465,78.6093781 150.285156,77.984375 C151.089848,77.3593719 152.035151,76.8632831 153.121094,76.4960938 C154.207037,76.1289044 155.421868,75.9453125 156.765625,75.9453125 C157.921881,75.9453125 159.050776,76.0976547 160.152344,76.4023438 C161.253912,76.7070328 162.238277,77.1796843 163.105469,77.8203125 C163.972661,78.4609407 164.667966,79.2773388 165.191406,80.2695312 C165.714846,81.2617237 165.992187,82.4453125 166.023438,83.8203125 L161.710938,83.8203125 C161.648437,82.1953044 161.144536,81.0507846 160.199219,80.3867188 C159.253902,79.7226529 158.125007,79.390625 156.8125,79.390625 C155.468743,79.390625 154.332036,79.7109343 153.402344,80.3515625 C152.472652,80.9921907 152.007812,81.8281198 152.007812,82.859375 C152.007812,83.8125048 152.281247,84.5546848 152.828125,85.0859375 C153.375003,85.6171902 154.257806,86.0078113 155.476562,86.2578125 L159.601562,87.125 C162.039075,87.6406276 163.84765,88.4726505 165.027344,89.6210938 C166.207037,90.769537 166.796875,92.3359276 166.796875,94.3203125 C166.796875,95.3515677 166.566409,96.3085893 166.105469,97.1914062 C165.644529,98.0742232 164.980473,98.8320281 164.113281,99.4648438 C163.246089,100.097659 162.218756,100.609373 161.03125,101 C159.843744,101.390627 158.531257,101.585938 157.09375,101.585938 C155.718743,101.585938 154.4336,101.410158 153.238281,101.058594 C152.042963,100.707029 150.996098,100.183597 150.097656,99.4882812 C149.199214,98.7929653 148.49219,97.9257864 147.976562,96.8867188 C147.460935,95.8476511 147.1875,94.6406319 147.15625,93.265625 Z M170.828125,80.2109375 L170.828125,76.53125 L174.953125,76.53125 L174.953125,68.3515625 L179.21875,68.3515625 L179.21875,76.53125 L184.84375,76.53125 L184.84375,80.2109375 L179.21875,80.2109375 L179.21875,97.296875 L184.84375,97.296875 L184.84375,101 L174.953125,101 L174.953125,80.2109375 L170.828125,80.2109375 Z M190.820312,101 L190.820312,76.53125 L202.585938,76.53125 L202.585938,80.2578125 L195.132812,80.2578125 L195.132812,101 L190.820312,101 Z M206.40625,94.2734375 C206.40625,92.3515529 207.015619,90.7031319 208.234375,89.328125 C209.453131,87.9531181 211.281238,87.1562511 213.71875,86.9375 L221.6875,86.2109375 L221.6875,84.2421875 C221.6875,83.2890577 221.566407,82.5000031 221.324219,81.875 C221.08203,81.2499969 220.738283,80.7539081 220.292969,80.3867188 C219.847654,80.0195294 219.312503,79.7617195 218.6875,79.6132812 C218.062497,79.464843 217.367191,79.390625 216.601562,79.390625 C215.070305,79.390625 213.847661,79.7343716 212.933594,80.421875 C212.019527,81.1093784 211.5625,82.2421796 211.5625,83.8203125 L207.226562,83.8203125 C207.226562,82.6640567 207.47656,81.6054736 207.976562,80.6445312 C208.476565,79.6835889 209.148433,78.851566 209.992188,78.1484375 C210.835942,77.4453125 211.828119,76.9023457 212.96875,76.5195312 C214.109381,76.1367168 215.335931,75.9453125 216.648438,75.9453125 C217.960944,75.9453125 219.183588,76.1132796 220.316406,76.4492188 C221.449224,76.7851579 222.43359,77.2890591 223.269531,77.9609375 C224.105473,78.6328159 224.753904,79.4960885 225.214844,80.5507812 C225.675784,81.605474 225.90625,82.8515553 225.90625,84.2890625 L225.90625,97.296875 L229.5625,97.296875 L229.5625,101 L222.25,101 L222.15625,96.4765625 L221.96875,96.4765625 C221.296872,98.2109462 220.304694,99.4960896 218.992188,100.332031 C217.679681,101.167973 216.109384,101.585938 214.28125,101.585938 C213.062494,101.585938 211.960942,101.398439 210.976562,101.023438 C209.992183,100.648436 209.140629,100.093754 208.421875,99.359375 C207.781247,98.7187468 207.285158,97.9531295 206.933594,97.0625 C206.582029,96.1718705 206.40625,95.2421923 206.40625,94.2734375 Z M210.976562,94.859375 C210.976562,95.9843806 211.367184,96.8085911 212.148438,97.3320312 C212.929691,97.8554714 214.007806,98.1171875 215.382812,98.1171875 C217.335947,98.1171875 218.874994,97.421882 220,96.03125 C221.125006,94.640618 221.6875,92.843761 221.6875,90.640625 L221.6875,89.5390625 L212.992188,90.3359375 C212.101558,90.3984378 211.54297,90.6328105 211.316406,91.0390625 C211.089843,91.4453145 210.976562,91.9999965 210.976562,92.703125 L210.976562,94.859375 Z M232.046875,80.2109375 L232.046875,76.53125 L236.171875,76.53125 L236.171875,68.3515625 L240.4375,68.3515625 L240.4375,76.53125 L246.0625,76.53125 L246.0625,80.2109375 L240.4375,80.2109375 L240.4375,97.296875 L246.0625,97.296875 L246.0625,101 L236.171875,101 L236.171875,80.2109375 L232.046875,80.2109375 Z M250.75,88.765625 C250.75,86.9062407 250.980466,85.1836017 251.441406,83.5976562 C251.902346,82.0117108 252.589839,80.6601618 253.503906,79.5429688 C254.417973,78.4257757 255.523431,77.5468782 256.820312,76.90625 C258.117194,76.2656218 259.609367,75.9453125 261.296875,75.9453125 C263.062509,75.9453125 264.601556,76.249997 265.914062,76.859375 C267.226569,77.468753 268.312496,78.300776 269.171875,79.3554688 C270.031254,80.4101615 270.679685,81.6484304 271.117188,83.0703125 C271.55469,84.4921946 271.773438,86.0234293 271.773438,87.6640625 L271.773438,89.9609375 L255.296875,89.9609375 L255.296875,92.5625 C255.296875,93.4531295 255.464842,94.2421841 255.800781,94.9296875 C256.13672,95.6171909 256.593747,96.1992164 257.171875,96.6757812 C257.75,97.1523461 258.398434,97.5117175 259.117188,97.7539062 C259.835941,97.996095 260.578121,98.1171875 261.34375,98.1171875 C262.875008,98.1171875 264.203119,97.7265664 265.328125,96.9453125 C266.453131,96.1640586 267.093749,94.9218835 267.25,93.21875 L271.585938,93.21875 C271.492187,94.5312566 271.14844,95.6992136 270.554688,96.7226562 C269.960935,97.7460989 269.191411,98.6171839 268.246094,99.3359375 C267.300777,100.054691 266.234381,100.609373 265.046875,101 C263.859369,101.390627 262.609382,101.585938 261.296875,101.585938 C259.531241,101.585938 257.988288,101.265628 256.667969,100.625 C255.34765,99.9843718 254.246098,99.1015681 253.363281,97.9765625 C252.480464,96.8515569 251.824221,95.5078203 251.394531,93.9453125 C250.964842,92.3828047 250.75,90.6562595 250.75,88.765625 Z M255.296875,86.515625 L267.296875,86.515625 L267.296875,85.15625 C267.296875,84.2656205 267.13672,83.4609411 266.816406,82.7421875 C266.496092,82.0234339 266.058597,81.414065 265.503906,80.9140625 C264.949216,80.41406 264.308597,80.0351575 263.582031,79.7773438 C262.855465,79.51953 262.093754,79.390625 261.296875,79.390625 C260.499996,79.390625 259.742191,79.51953 259.023438,79.7773438 C258.304684,80.0351575 257.664065,80.41406 257.101562,80.9140625 C256.53906,81.414065 256.097658,82.0234339 255.777344,82.7421875 C255.45703,83.4609411 255.296875,84.2656205 255.296875,85.15625 L255.296875,86.515625 Z M290.945312,101 L290.945312,68.3515625 L297.390625,68.3515625 L310.867188,95.46875 L311.078125,95.46875 L311.078125,68.3515625 L315.484375,68.3515625 L315.484375,101 L309.0625,101 L295.5625,73.7421875 L295.375,73.7421875 L295.375,101 L290.945312,101 Z M322.585938,88.765625 C322.585938,86.9062407 322.808592,85.1836017 323.253906,83.5976562 C323.699221,82.0117108 324.378902,80.6601618 325.292969,79.5429688 C326.207036,78.4257757 327.351556,77.5468782 328.726562,76.90625 C330.101569,76.2656218 331.718741,75.9453125 333.578125,75.9453125 C335.437509,75.9453125 337.054681,76.2656218 338.429688,76.90625 C339.804694,77.5468782 340.945308,78.4257757 341.851562,79.5429688 C342.757817,80.6601618 343.437498,82.0117108 343.890625,83.5976562 C344.343752,85.1836017 344.570312,86.9062407 344.570312,88.765625 C344.570312,90.6562595 344.343752,92.3828047 343.890625,93.9453125 C343.437498,95.5078203 342.757817,96.8515569 341.851562,97.9765625 C340.945308,99.1015681 339.800788,99.9843718 338.417969,100.625 C337.035149,101.265628 335.421884,101.585938 333.578125,101.585938 C331.718741,101.585938 330.101569,101.265628 328.726562,100.625 C327.351556,99.9843718 326.207036,99.1015681 325.292969,97.9765625 C324.378902,96.8515569 323.699221,95.5078203 323.253906,93.9453125 C322.808592,92.3828047 322.585938,90.6562595 322.585938,88.765625 Z M327.132812,92.5625 C327.132812,93.390625 327.308592,94.1484341 327.660156,94.8359375 C328.011721,95.5234409 328.47656,96.1054664 329.054688,96.5820312 C329.632812,97.0585961 330.312496,97.4335924 331.09375,97.7070312 C331.875004,97.9804701 332.703121,98.1171875 333.578125,98.1171875 C334.437504,98.1171875 335.257809,97.9804701 336.039062,97.7070312 C336.820316,97.4335924 337.499997,97.0585961 338.078125,96.5820312 C338.656253,96.1054664 339.121092,95.5234409 339.472656,94.8359375 C339.824221,94.1484341 340,93.390625 340,92.5625 L340,84.96875 C340,84.1406209 339.824221,83.3828159 339.472656,82.6953125 C339.121092,82.0078091 338.656253,81.4218774 338.078125,80.9375 C337.499997,80.4531226 336.820316,80.0742201 336.039062,79.8007812 C335.257809,79.5273424 334.437504,79.390625 333.578125,79.390625 C332.718746,79.390625 331.894535,79.5273424 331.105469,79.8007812 C330.316402,80.0742201 329.632812,80.4531226 329.054688,80.9375 C328.47656,81.4218774 328.011721,82.0078091 327.660156,82.6953125 C327.308592,83.3828159 327.132812,84.1406209 327.132812,84.96875 L327.132812,92.5625 Z M349.984375,88.765625 C349.984375,86.9999912 350.183592,85.3320391 350.582031,83.7617188 C350.980471,82.1913984 351.578121,80.832037 352.375,79.6835938 C353.171879,78.5351505 354.179681,77.6250034 355.398438,76.953125 C356.617194,76.2812466 358.039054,75.9453125 359.664062,75.9453125 C361.492197,75.9453125 363.062493,76.3359336 364.375,77.1171875 C365.687507,77.8984414 366.726559,79.0312426 367.492188,80.515625 L367.492188,68.3515625 L371.828125,68.3515625 L371.828125,101 L367.492188,101 L367.492188,97.015625 C366.726559,98.4843823 365.703131,99.6132773 364.421875,100.402344 C363.140619,101.19141 361.593759,101.585938 359.78125,101.585938 C358.124992,101.585938 356.6836,101.250003 355.457031,100.578125 C354.230463,99.9062466 353.210942,98.9921933 352.398438,97.8359375 C351.585933,96.6796817 350.980471,95.3242265 350.582031,93.7695312 C350.183592,92.214836 349.984375,90.5468839 349.984375,88.765625 Z M354.53125,92.5625 C354.53125,93.390625 354.691405,94.1484341 355.011719,94.8359375 C355.332033,95.5234409 355.773435,96.1054664 356.335938,96.5820312 C356.89844,97.0585961 357.554684,97.4335924 358.304688,97.7070312 C359.054691,97.9804701 359.882808,98.1171875 360.789062,98.1171875 C362.960948,98.1171875 364.621088,97.4296944 365.769531,96.0546875 C366.917974,94.6796806 367.492188,92.9375105 367.492188,90.828125 L367.492188,86.703125 C367.492188,84.5937395 366.917974,82.8476632 365.769531,81.4648438 C364.621088,80.0820243 362.960948,79.390625 360.789062,79.390625 C359.898433,79.390625 359.074223,79.5273424 358.316406,79.8007812 C357.55859,80.0742201 356.89844,80.4531226 356.335938,80.9375 C355.773435,81.4218774 355.332033,82.0078091 355.011719,82.6953125 C354.691405,83.3828159 354.53125,84.1406209 354.53125,84.96875 L354.53125,92.5625 Z M389.03125,75.9453125 C390.796884,75.9453125 392.335931,76.249997 393.648438,76.859375 C394.960944,77.468753 396.046871,78.300776 396.90625,79.3554688 C397.765629,80.4101615 398.41406,81.6484304 398.851562,83.0703125 C399.289065,84.4921946 399.507812,86.0234293 399.507812,87.6640625 L399.507812,89.9609375 L383.03125,89.9609375 L383.03125,92.5625 C383.03125,93.4531295 383.199217,94.2421841 383.535156,94.9296875 C383.871095,95.6171909 384.328122,96.1992164 384.90625,96.6757812 C385.484375,97.1523461 386.132809,97.5117175 386.851562,97.7539062 C387.570316,97.996095 388.312496,98.1171875 389.078125,98.1171875 C390.609383,98.1171875 391.937494,97.7265664 393.0625,96.9453125 C394.187506,96.1640586 394.828124,94.9218835 394.984375,93.21875 L399.320312,93.21875 C399.226562,94.5312566 398.882815,95.6992136 398.289062,96.7226562 C397.69531,97.7460989 396.925786,98.6171839 395.980469,99.3359375 C395.035152,100.054691 393.968756,100.609373 392.78125,101 C391.593744,101.390627 390.343757,101.585938 389.03125,101.585938 C387.265616,101.585938 385.722663,101.265628 384.402344,100.625 C383.082025,99.9843718 381.980473,99.1015681 381.097656,97.9765625 C380.214839,96.8515569 379.558596,95.5078203 379.128906,93.9453125 C378.699217,92.3828047 378.484375,90.6562595 378.484375,88.765625 C378.484375,86.9062407 378.714841,85.1836017 379.175781,83.5976562 C379.636721,82.0117108 380.324214,80.6601618 381.238281,79.5429688 C382.152348,78.4257757 383.257806,77.5468782 384.554688,76.90625 C385.851569,76.2656218 387.343742,75.9453125 389.03125,75.9453125 Z M389.03125,79.390625 C388.234371,79.390625 387.476566,79.51953 386.757812,79.7773438 C386.039059,80.0351575 385.39844,80.41406 384.835938,80.9140625 C384.273435,81.414065 383.832033,82.0234339 383.511719,82.7421875 C383.191405,83.4609411 383.03125,84.2656205 383.03125,85.15625 L383.03125,85.15625 L383.03125,86.515625 L395.03125,86.515625 L395.03125,85.15625 C395.03125,84.2656205 394.871095,83.4609411 394.550781,82.7421875 C394.230467,82.0234339 393.792972,81.414065 393.238281,80.9140625 C392.683591,80.41406 392.042972,80.0351575 391.316406,79.7773438 C390.58984,79.51953 389.828129,79.390625 389.03125,79.390625 Z" id="SubstrateNode" fill="#FFFFFF" fill-rule="nonzero"></path>
        <g id="Group-120" transform="translate(661.500000, 148.500000) rotate(-19.000000) translate(-661.500000, -148.500000) translate(517.000000, 84.000000)">
            <g id="Group-3" fill="#000000" fill-rule="nonzero">
                <path d="M104.934239,0.415426354 C108.209596,0.307119661 111.158722,0.704386115 114.010584,1.77057345 L114.207985,1.84437299 L114.8123,2.14589656 C120.000537,4.74824579 122.443383,6.38978172 124.715229,9.49924297 L124.899109,9.75462618 C125.021918,9.92748755 125.153168,10.0075729 125.924589,10.1729365 L127.203084,10.4294113 C135.489901,12.1554885 141.469362,16.8780948 144.772612,24.4191245 C148.718894,21.1965409 153.107241,19.5397358 158.111547,19.6442107 L158.378652,19.6498071 L158.819366,19.6545148 C163.605013,12.4136775 170.842982,9.15911319 180.020992,9.34610678 C185.175717,3.91545293 191.823134,1.66763302 200.516915,1.49027358 L202.030042,1.470866 L202.094342,1.50447024 L202.749975,1.48725402 L204.068598,1.47126285 L204.957912,1.92562065 C205.892737,2.40323128 206.783623,2.68250655 207.711701,2.79974336 C208.332176,2.73274211 208.976918,2.61389607 209.661365,2.4381774 L210.659975,2.16646278 C213.571564,1.39847852 216.427253,1.06747839 219.199683,1.18975286 C226.720038,0.919276104 233.447552,3.85936004 238.777079,9.8257471 L239.285133,10.4018967 C240.311985,11.5418755 241.160688,12.1485616 242.284644,12.5337233 L242.878389,12.722978 C252.817278,15.9315572 259.436791,24.3275758 260.240186,34.7519726 L260.283154,35.3545436 C260.481615,37.6961137 261.480089,39.079948 264.661186,41.385061 C267.443972,40.1334933 270.224336,39.3669698 272.988882,39.1275698 L275.049602,38.9491185 L275.193033,39.1150486 L277.106222,38.9510616 L278.457292,40.5104303 C279.289278,41.4706867 280.087033,42.4024422 280.858751,43.3160282 L282.287577,45.0111265 L283.066281,46.1367922 C284.642332,48.4394222 286.186205,50.8460045 287.727027,53.3906937 L288.642913,54.903293 L288.156157,56.6032559 C287.486421,58.9422666 286.951823,61.3623085 286.549669,63.8744104 L286.405064,64.8207854 L286.117373,67.0046518 L285.920955,68.9672539 L285.855027,69.6907975 C285.842453,69.8385828 285.830913,69.9817232 285.819708,70.1282655 L285.773356,70.7953212 L285.734087,71.4976339 C285.722033,71.7395825 285.710943,71.9903597 285.700601,72.2529177 L285.671597,73.0788867 L285.635518,74.7144097 C285.623087,75.5925464 285.621296,76.4881866 285.629733,77.405514 L285.653889,80.031866 L285.454988,80.1229271 L285.303161,85.0608455 L282.657681,81.3932583 C279.63533,82.6744624 276.509715,83.2413995 273.354234,83.0837495 C271.040099,83.2069115 268.740853,82.9376101 266.487116,82.2831359 C265.411825,86.3588661 263.33777,89.928079 260.295186,92.7932212 L259.915956,93.1453096 C259.841298,93.228221 259.80157,93.3515887 259.729786,93.8593761 L259.550132,95.2225397 L259.474642,95.7132971 C257.694464,106.711134 250.393483,114.798926 239.733049,117.486446 L239.122343,117.636385 C238.190257,117.874609 237.741317,118.110146 237.211642,118.634259 L236.761269,119.097599 C231.191719,124.772821 224.609592,127.585836 217.357015,127.300173 C213.976847,127.447827 210.499646,126.906404 206.952546,125.691017 L206.024206,125.365291 C205.909359,125.326988 205.801885,125.293008 205.700747,125.263001 C202.620953,126.077751 199.638356,126.439501 196.768227,126.326601 C189.245849,126.616844 182.659266,123.772879 177.411383,117.812473 L177.023488,117.365091 C176.906,117.230893 176.810526,117.128392 176.734883,117.05246 L176.63602,116.957847 C169.348562,116.807009 163.509084,113.292929 158.719081,107.090189 C155.052544,107.838834 151.77191,109.23727 146.706148,112.004005 L145.734868,112.538978 L142.772658,114.191177 L141.210925,115.049761 L140.275863,115.552298 L139.728307,115.838878 C138.278853,116.584705 136.878808,117.200448 134.660572,118.094275 L131.211739,119.469467 L130.359909,119.819379 C126.781746,121.30841 124.641552,122.46294 122.680094,124.055697 L122.223963,124.428845 C120.197718,126.031914 117.448448,127.08327 114.987491,126.91303 L114.47581,126.866164 C113.857976,126.941857 113.246106,126.952922 112.639953,126.887197 C111.222909,126.734474 109.756565,126.647706 108.209282,126.620373 L107.248607,126.640938 C104.924033,126.704479 102.70634,126.869453 99.1165861,127.226504 L93.0267599,127.854135 C91.9551182,127.961744 91.0905288,128.043301 90.2507118,128.115261 L88.9004912,128.224704 C88.46335,128.257544 88.0270144,128.260193 87.5925024,128.224457 L87.2669762,128.19033 L86.8463261,128.224407 C85.5969737,128.319486 84.3932126,128.182883 83.2395811,127.615998 L81.9732401,126.999506 L75.450438,123.885777 C65.6522675,119.18399 60.6607544,116.401929 55.3829923,112.320948 L54.4830934,111.614883 C51.4206069,109.177048 49.2312238,105.844492 48.7912225,102.252373 L48.7304196,101.669402 C48.4433969,99.0687651 47.394881,97.0102431 44.6931354,93.1889745 L43.3310344,91.2596519 L42.8318376,90.5332738 C40.0747106,91.4726119 37.3273513,91.8897431 34.6124864,91.7524562 C30.9343273,91.9431621 27.370256,91.1390133 24.0022495,89.3431809 C21.655833,90.5071842 19.2235263,91.223539 16.7400159,91.4862715 L14.5338269,91.7196659 L14.3736102,91.5190593 L12.4733695,91.7211354 L11.0881201,89.9822298 C10.4297399,89.1557641 9.73054169,88.3359287 8.98549225,87.5157768 L8.38729761,86.858368 L7.96806477,86.4052863 C7.88434543,86.3160164 7.80542962,86.2327835 7.72833301,86.1524412 L7.27442133,85.6892856 L7.0732133,85.4317794 L5.7549923,83.8175294 L5.1887649,81.91449 C3.31489003,75.5675675 1.79203674,69.8046104 0.54792622,64.235065 L0.36462412,63.4144712 L1.44128733,57.7733386 C1.70062194,56.3424884 1.92456483,54.8797761 2.11245278,53.3924171 L2.40211466,51.0993951 L4.52366353,50.1823975 C4.66824464,50.1199052 4.78301078,50.0602794 4.89915649,49.9867826 C7.71962426,48.2042748 10.5614461,47.2009888 13.400062,47.5069155 C14.6951107,47.3606652 15.9685125,47.4572087 17.1974817,47.8469327 C19.8410123,48.6875029 22.6260543,49.1010804 25.7881014,49.1739376 L26.6040306,49.1520788 C28.4000883,49.0924898 30.1434349,48.95553 33.0622801,48.6623052 L36.669465,48.2899364 L39.3068204,48.0341576 L39.6086631,47.4280719 C42.1260342,42.3221652 43.4687768,38.3002443 43.9846071,33.8135649 L44.0812156,32.9232954 C45.1086611,24.2464847 51.1017824,17.4402313 59.9107284,14.2174308 C61.4555318,13.6510862 62.5005157,12.9215268 63.5752992,11.663453 L64.0663394,11.0715352 C69.3935607,4.71725085 76.2660051,1.53986379 84.11199,1.82788395 C86.2560846,1.7370584 88.4570681,1.91383179 90.7078004,2.35499556 L91.5866572,2.5354456 C91.7630158,2.56872453 91.9408322,2.5972212 92.1228921,2.62153446 L92.3546248,2.57258193 C92.8919861,2.44465406 93.4085828,2.21944194 93.9605799,1.86865847 L94.6433613,1.4347641 L95.9407537,1.21055869 C99.7207094,0.568596193 102.237995,0.310195642 104.934239,0.415426354 Z" id="Path"></path>
            </g>
            <g id="Group" transform="translate(180.039334, 41.925759)">
                <path d="M0.177053222,16.6037835 C1.33422134,20.0232848 3.63106656,21.3258176 7.06758889,20.5123223 C6.87979072,21.0380377 6.37255155,21.458422 5.68948175,21.8242597 C8.00842088,23.5048562 10.1331178,25.3857699 12.383934,27.1669953 C13.9102544,28.3745419 15.5139035,29.4485437 16.8505845,30.8131466 C17.2427513,30.9899525 17.6026978,31.2325904 17.8963626,31.5551671 C18.1734569,31.8608156 18.4155693,32.1871541 18.6245408,32.5313613 C24.2419153,36.3505567 30.7292373,39.7202137 33.6235384,32.3583173 C38.4851174,19.9950711 -3.03116545,13.0074764 0.177053222,16.6037835" id="Fill-4" fill="#C4C3C7"></path>
                <path d="M40.8785985,19.7764466 C45.3976343,21.9301669 49.0520539,25.0795538 51.84,29.2236792 C36.4886515,42.7231725 29.2308905,12.2490965 17.82,11.6580065 C30.4261225,-2.8575677 42.5548952,19.4117709 40.8785985,19.7764466" id="Fill-22" fill="#C4C3C7"></path>
                <path d="M84.933317,22.1609349 C74.8287259,18.3386186 76.1047132,-5.39850634 58.32,5.56992019 C65.5794465,9.68575911 72.1529684,35.197065 86.67,29.3825223 C86.0911057,26.9756371 85.5122114,24.5678201 84.933317,22.1609349" id="Fill-24" fill="#C4C3C7"></path>
                <path d="M100.876442,20.1951028 C90.7718507,16.3727864 92.0478381,-7.36433848 74.2631248,3.60408805 C81.5225713,7.71992697 88.0960932,33.2312328 102.613125,27.4166902 C102.034231,25.009805 101.455336,22.601988 100.876442,20.1951028" id="Fill-24-Copy" fill="#C4C3C7"></path>
                <path d="M49.4092637,16.5651162 C42.4435435,15.5973719 42.0135264,8.33791889 38.07,7.8755217 C45.7954481,-7.96843554 66.8876487,24.1480645 69.6470027,27.644372 C70.3640075,28.5536313 41.1432757,25.8368194 49.4092637,16.5651162" id="Fill-42" fill="#C4C3C7"></path>
                <path d="M27.052271,18.09 C30.9761926,17.0784333 34.9193805,16.1344896 38.88,15.2896646 C35.2047066,9.52781022 26.6311627,1.39637 17.82,11.6500624 C21.1512507,11.8242149 24.1256145,14.6069497 27.052271,18.09" id="Fill-84" fill="#FFFFFF"></path>
                <path d="M62.8054461,11.61 C66.96649,11.216281 71.1407137,10.9619648 75.33,10.874367 C71.8665429,4.50516081 67.9097855,-0.808162511 57.51,5.60154591 C59.2751487,6.60091412 60.9998167,8.85208284 62.8054461,11.61" id="Fill-86" fill="#FFFFFF"></path>
                <path d="M78.748571,9.64416786 C82.9096149,9.25044881 87.0838385,8.99613268 91.2731248,8.9085349 C87.8096677,2.53932867 83.8529103,-2.77399465 73.4531248,3.63571377 C75.2182735,4.63508198 76.9429415,6.8862507 78.748571,9.64416786" id="Fill-86-Copy" fill="#FFFFFF"></path>
                <path d="M50.468421,5.93206433 C49.9404675,5.76134212 49.4068574,5.5267132 48.8694762,5.21904803 C47.268646,4.30153026 45.4934025,3.79118953 43.6446227,3.51 C41.4545587,3.6305098 39.5275286,4.91503468 38.07,7.85839518 C40.7672764,8.17062511 41.8505238,11.5622455 44.431839,14.04 C48.7723705,13.243905 53.1317575,12.5610161 57.51,12.0205479 C55.2200019,9.64869603 52.8159282,7.48682331 50.468421,5.93206433" id="Fill-104" fill="#FFFFFF"></path>
            </g>
            <g id="Group-4" transform="translate(33.580464, 68.488768) rotate(11.000000) translate(-33.580464, -68.488768) translate(23.580464, 53.488768)">
                <path d="M19.3437424,25.834829 C19.3311701,25.7360199 19.3293741,25.6381609 19.328476,25.5393518 C18.8803648,24.6633711 18.4933189,23.7493869 18.2652222,22.7831479 C18.1359075,22.2349474 18.1314174,21.6810464 18.2203213,21.1489974 C18.1826045,21.0986427 18.1439897,21.0482881 18.1062729,20.9969834 C20.2920498,16.9458102 -3.5970373,-15.7780542 0.633527676,12.0823122 C1.79107347,19.7001139 10.668884,32.4436378 19.9301484,29.2465933 C19.6894795,28.1264401 19.4838332,26.9939358 19.3437424,25.834829" id="Fill-6" fill="#C4C3C7"></path>
                <path d="M11.1193198,6.82670651 C5.75425428,0.616815143 -0.483819523,-3.16209677 0.404394887,8.07428987 C3.93310168,7.42880109 7.54052234,6.90445446 11.1193198,6.82670651" id="Fill-68" fill="#FFFFFF"></path>
            </g>
            <g id="Group-4-Copy" transform="translate(17.102416, 68.724700) rotate(11.000000) translate(-17.102416, -68.724700) translate(7.102416, 53.724700)">
                <path d="M19.3437424,25.834829 C19.3311701,25.7360199 19.3293741,25.6381609 19.328476,25.5393518 C18.8803648,24.6633711 18.4933189,23.7493869 18.2652222,22.7831479 C18.1359075,22.2349474 18.1314174,21.6810464 18.2203213,21.1489974 C18.1826045,21.0986427 18.1439897,21.0482881 18.1062729,20.9969834 C20.2920498,16.9458102 -3.5970373,-15.7780542 0.633527676,12.0823122 C1.79107347,19.7001139 10.668884,32.4436378 19.9301484,29.2465933 C19.6894795,28.1264401 19.4838332,26.9939358 19.3437424,25.834829" id="Fill-6" fill="#C4C3C7"></path>
                <path d="M11.1193198,6.82670651 C5.75425428,0.616815143 -0.483819523,-3.16209677 0.404394887,8.07428987 C3.93310168,7.42880109 7.54052234,6.90445446 11.1193198,6.82670651" id="Fill-68" fill="#FFFFFF"></path>
            </g>
            <path d="M113.741478,44.1 C109.733921,41.1787506 99.6936378,14.5330447 97.2,8.87898075 C123.719159,-4.05783539 121.234912,35.4411642 113.741478,44.1" id="Fill-8" fill="#C4C3C7"></path>
            <path d="M74.5254202,23.3657811 C73.5334699,24.2064054 75.4385467,23.9562684 74.5254202,23.3657811 M52.2439041,38.7 C50.6428616,5.87361782 93.3786169,26.2700358 90.7866479,35.1242709 C88.550921,42.7565252 56.9313553,26.0516785 52.2439041,38.7" id="Fill-10" fill="#C4C3C7"></path>
            <path d="M56.1232536,64.7201807 C57.6381223,62.4705987 73.5202145,53.9500211 73.617375,52.2 C80.2326498,67.2761462 54.4704796,76.1010301 52.0017661,89.1 C42.6043566,81.7924935 50.7522606,58.5374652 56.1232536,64.7201807" id="Fill-12" fill="#C4C3C7"></path>
            <path d="M213.734737,11.484054 C202.625428,11.9961911 224.084054,7.07963962 232.010169,13.5279612 C235.658558,16.4964037 233.471218,18.5249731 234.320877,21.5535844 C234.700999,22.9114209 235.517879,37.1669925 230.851079,36.225392 C227.283574,35.5049956 212.817775,12.6238065 213.734737,11.484054" id="Fill-14" fill="#C4C3C7" transform="translate(222.617861, 23.220021) rotate(12.000000) translate(-222.617861, -23.220021) "></path>
            <path d="M176.382231,108.9 C160.923014,106.868513 160.896523,73.6566893 169.881881,66.6 C176.924266,70.1803153 182.710392,101.202168 176.382231,108.9" id="Fill-16" fill="#C4C3C7"></path>
            <path d="M113.801806,44.1 C125.975761,44.0989576 166.560384,65.8526678 134.832801,64.760187 C126.06784,64.4589209 110.723276,52.0580134 113.801806,44.1" id="Fill-18" fill="#C4C3C7"></path>
            <path d="M71.9753112,88.3160199 C73.5169792,95.3492442 67.7101664,104.201705 70.7485198,111.6 C31.1691612,95.0402596 78.4670826,74.463719 76.2435231,72 C80.8092319,77.0610254 70.2659819,89.6947236 71.9753112,88.3160199" id="Fill-20" fill="#C4C3C7"></path>
            <path d="M229.5,114.142146 C211.434154,130.900584 188.417203,97.6354983 195.824221,89.9087865 C200.584103,84.9446122 218.303682,104.361187 213.847688,106.662107 C219.814854,107.621165 225.031602,110.113488 229.5,114.142146" id="Fill-26" fill="#C4C3C7"></path>
            <path d="M196.711631,118.8 C172.13523,117.573623 185.789927,81.474199 183.938147,81 C194.537356,83.7102928 200.867096,118.417779 196.711631,118.8" id="Fill-28" fill="#C4C3C7"></path>
            <path d="M111.867241,118.371604 C113.507639,118.727037 115.401424,117.327194 116.715167,116.49646 C118.331142,115.47498 119.869778,114.333634 121.5,113.336128 C109.662066,111.67883 92.4969094,78.5974911 90.9511498,97.7460597 C90.0973694,108.321498 100.091382,117.144787 109.000615,118.8 C109.790286,118.340334 110.752951,118.130827 111.867241,118.371604" id="Fill-30" fill="#C4C3C7"></path>
            <path d="M145.319082,37.3022764 C147.614962,37.554027 171.02712,47.4115064 170.071543,50.7781545 C165.657588,66.3423242 129.565058,47.1948358 130.518555,39.3296939 C131.599948,30.4111203 147.431957,38.5682516 145.319082,37.3022764" id="Fill-32" fill="#C4C3C7"></path>
            <path d="M160.901779,39.059438 C156.946529,35.6225674 152.512945,33.3705708 147.6,32.3023968 C158.246772,15.1264545 177.46754,38.9227622 189,40.3315743 C179.634955,50.6274672 162.84803,44.5022888 160.901779,39.059438" id="Fill-34" fill="#C4C3C7"></path>
            <path d="M81.2174601,18.2277638 C79.7347545,17.6707141 71.5051718,16.8683964 72.023449,13.3140871 C74.6581107,-4.75676946 111.368211,22.0294197 104.428655,31.8869119 C97.8940341,41.1696869 83.5811339,19.6068773 81.2174601,18.2277638" id="Fill-36" fill="#C4C3C7"></path>
            <path d="M230.622965,94.7724297 C231.411829,94.6597922 248.688044,95.4889293 248.658372,95.424267 C246.750161,97.3860366 250.029419,94.1174636 251.057704,94.2207146 C252.650779,121.952481 208.68826,104.23085 212.653041,91.1784595 C214.50907,85.063704 231.037349,94.3458674 230.622965,94.7724297" id="Fill-38" fill="#C4C3C7"></path>
            <path d="M90.9,53.6416969 C94.4519264,50.7420505 131.139587,60.0408464 130.491516,68.2782009 C128.979351,87.4898834 93.5577134,57.8803455 90.9,53.6416969" id="Fill-40" fill="#C4C3C7"></path>
            <path d="M193.239456,24.7317136 C194.294237,24.9721804 206.720756,34.095531 203.878591,36.3255007 C195.180747,43.1490023 160.619203,24.4912468 171.190619,17.0655505 C179.398011,11.3005137 191.222237,21.1976741 193.239456,24.7317136" id="Fill-44" fill="#C4C3C7"></path>
            <path d="M47.6873503,63 C42.339507,48.7225085 62.4132807,31.0128296 74.484651,38.8053739 C87.3661461,47.1242209 53.7454539,55.4185888 47.6873503,63" id="Fill-46" fill="#C4C3C7"></path>
            <path d="M98.1,118.872822 C76.7208987,130.244565 70.6228224,101.546031 77.2381602,92.8246579 C86.2912742,80.8897119 87.6135108,110.089332 98.1,118.872822" id="Fill-48" fill="#C4C3C7"></path>
            <path d="M109.8,76.0759322 C92.8393118,96.5568579 71.5569148,56.7146429 78.8864253,53.2257851 C83.0217643,51.2557656 106.643102,73.0330577 109.8,76.0759322" id="Fill-50" fill="#C4C3C7"></path>
            <path d="M211.057214,17.9230283 C217.812937,19.6568298 216.741026,30.6675955 218.7,36.5097084 C206.859414,40.3365584 197.285536,14.8023902 186.3,13.09827 C192.704615,9.41777982 218.466617,13.6970149 211.057214,17.9230283" id="Fill-52" fill="#C4C3C7"></path>
            <path d="M132.193541,109.547451 C129.420692,109.083603 104.487606,102.848555 106.293445,94.6413916 C110.114317,77.2780554 141.727262,106.35025 142.2,105.4256 C140.622839,108.510137 135.224807,110.536046 132.193541,109.547451" id="Fill-54" fill="#C4C3C7"></path>
            <path d="M119.7,85.4314965 C128.880798,65.5579835 151.175546,93.0804845 159.3,97.3306221 C148.492866,107.715065 128.725909,92.1147827 119.7,85.4314965" id="Fill-56" fill="#C4C3C7"></path>
            <path d="M157.816311,93.6 C140.137835,89.1363713 152.871151,65.6474059 153.840093,66.5125707 C156.471722,55.5006287 170.662636,64.7086762 163.694837,66.6762785 C163.970033,67.4544088 164.374979,67.3020983 164.90863,66.2214194 C166.176834,71.8786647 164.549723,75.9910469 160.025205,78.559602 C159.687227,80.3034013 160.17379,90.1528104 157.816311,93.6" id="Fill-58" fill="#C4C3C7"></path>
            <path d="M243.602826,90.6859733 C245.105177,89.525989 243.124711,88.6963734 243.602826,90.6859733 M258.3,79.230733 C258.418195,96.4552853 223.786832,92.9120031 224.10214,86.5927804 C224.676084,75.1248742 253.201182,78.7251529 258.3,79.230733" id="Fill-60" fill="#C4C3C7"></path>
            <path d="M239.926614,36.7433995 C241.238814,35.874078 239.509014,35.2523431 239.926614,36.7433995 M248.806973,29.482044 C248.875402,40.9650789 228.825665,38.6028908 229.008212,34.3900756 C229.340495,26.7448048 245.855026,29.1449906 248.806973,29.482044" id="Fill-60-Copy" fill="#C4C3C7" transform="translate(238.907061, 33.361555) rotate(-54.000000) translate(-238.907061, -33.361555) "></path>
            <path d="M124.703839,41.4 C119.480514,33.4519307 131.045056,25.557363 123.898751,17.1 C151.365053,19.9530739 130.30253,34.2019815 124.703839,41.4" id="Fill-62" fill="#C4C3C7"></path>
            <path d="M135.9,69.4199022 C139.417943,67.9927804 142.773678,68.0635214 145.966172,69.6310999 C149.7889,77.892413 137.510711,71.7153949 135.9,69.4199022" id="Fill-64" fill="#C4C3C7"></path>
            <path d="M189.715835,64.7203074 C189.505504,65.2968063 188.937405,65.7577992 188.172377,66.1589765 C189.184853,66.8777953 190.161242,67.6337411 191.129383,68.4 C196.087627,66.890171 201.078863,65.4350011 206.1,64.0685233 C194.437972,59.7411718 179.93029,58.1653393 181.998544,60.4342081 C183.293523,64.182998 185.866985,65.6123853 189.715835,64.7203074" id="Fill-66" fill="#FFFFFF"></path>
            <path d="M102.465922,15.9030455 C106.151161,15.8442315 109.373982,16.8750247 112.676391,18.4444305 C113.82488,18.9902659 114.933071,19.6217429 116.076522,20.180992 C114.615725,19.4669691 118.733158,20.758814 117.233071,20.6091994 C117.457731,20.6308677 117.680377,20.6638861 117.9,20.7 C116.941919,9.7420183 111.345554,0.773395227 97.2,8.01267956 C97.838721,9.52946234 98.9952694,12.5558051 100.412746,16.2187839 C101.071616,16.0289281 101.758695,15.9143956 102.465922,15.9030455" id="Fill-70" fill="#FFFFFF"></path>
            <path d="M61.8780417,33.801935 C62.3791784,32.8811767 62.9043278,31.9747732 63.5015157,31.1124595 C65.1396061,28.739815 67.0282648,26.7260408 69.1351267,25.0916435 C69.5412562,23.7433171 70.2167467,22.4370297 71.1,21.2271246 C60.8298309,19.2359079 50.5356491,22.4308776 51.3447759,38.7 C52.8147768,34.8108728 56.8854679,33.7014513 61.8780417,33.801935" id="Fill-72" fill="#FFFFFF"></path>
            <path d="M53.1281591,87.8008986 C53.7982617,85.6573871 55.0772704,83.6230927 56.7,81.6500414 C54.5081422,80.4445714 52.985367,78.1714286 53.2077146,74.8153021 C53.4137432,71.7031276 53.2597317,68.6225954 53.2077146,65.5053173 C53.2046548,65.2715725 53.2250537,65.0347655 53.2444326,64.8 C49.1503808,68.0326194 45.9345,81.9981069 51.8246717,88.2 C52.2479481,88.0346434 52.6834639,87.9039913 53.1281591,87.8008986" id="Fill-74" fill="#FFFFFF"></path>
            <path d="M215.326399,11.5391162 C214.928682,12.005732 217.400336,16.3084227 220.619498,21.0906198 C225.631984,20.6033243 230.698283,20.3610007 235.729468,20.3738554 C235.32157,17.8490621 236.952248,16.0136145 233.583077,13.4286142 C225.684207,7.36789322 204.222461,12.0439665 215.326399,11.5391162" id="Fill-76" fill="#FFFFFF" transform="translate(223.989282, 15.690620) rotate(12.000000) translate(-223.989282, -15.690620) "></path>
            <path d="M179.1,90.9 C177.957287,80.1488265 174.195335,68.7005771 169.991786,66.6 C166.312503,69.4402462 164.118118,76.4754136 163.8,84.0404002 C168.92337,86.2708349 174.006976,88.5978838 179.1,90.9" id="Fill-78" fill="#FFFFFF"></path>
            <path d="M119.667821,56.7 C124.283817,54.8056196 128.790057,52.4268221 133.2,50.065546 C127.21308,47.1446135 120.5583,44.7544785 116.012714,44.1 C115.220602,44.6637791 114.352902,45.0925399 113.443785,45.3605153 C113.016148,48.9441718 115.767315,53.1534479 119.667821,56.7" id="Fill-80" fill="#FFFFFF"></path>
            <path d="M71.8530854,88.1158814 C71.4561827,87.8921866 71.0522992,87.6796259 70.6524047,87.4609921 C69.3809197,86.7666272 68.2520405,85.9416894 67.134131,85.0033858 C66.0950036,84.1308749 65.3011981,83.0650349 64.7038495,81.9 C64.6370342,81.931378 64.5742079,81.9708536 64.5063953,82.0002072 C62.310466,83.8707411 60.1813519,85.939665 58.5,88.1371374 C60.4885028,88.9276607 62.1838161,90.5623535 62.9865968,93.2193619 C63.0743542,93.5098615 63.1890372,93.8003611 63.2967394,94.0898485 C64.1543685,94.4157748 65.0000307,94.897579 65.8077976,95.5818219 C67.3634969,96.8976737 69.0528267,98.0141234 70.8269222,99 C71.6237195,95.3682491 72.4265002,91.8043151 71.7403969,88.6148929 C71.4392295,88.8618681 71.5319731,88.6503196 71.8530854,88.1158814" id="Fill-82" fill="#FFFFFF"></path>
            <path d="M201.670694,100.78967 C204.190959,100.824937 206.696888,100.768296 209.194624,100.644328 C210.268886,100.424178 211.337003,100.180516 212.4,99.9165498 C207.9944,93.7373818 199.723914,86.6252469 196.703897,89.9456681 C195.063317,91.7485489 194.940428,94.88943 195.921498,98.4748864 C197.825266,99.2764043 199.743372,100.044793 201.670694,100.78967" id="Fill-88" fill="#FFFFFF"></path>
            <path d="M182.7,92.5721137 C186.87222,94.4835181 191.062959,96.347792 195.3,98.1 C192.818275,89.9045262 188.956786,82.2316776 184.250563,81 C184.925527,81.1770013 183.544733,86.2021621 182.7,92.5721137" id="Fill-90" fill="#FFFFFF"></path>
            <path d="M93.9269469,104.4 C98.351299,103.89176 102.738808,103.194929 107.1,102.354256 C98.9744769,93.9326076 91.9310936,85.8870783 90.9521149,97.8781241 C90.7700038,100.103937 91.0731714,102.248772 91.7363505,104.274272 C92.4658476,104.307302 93.1974499,104.35738 93.9269469,104.4" id="Fill-92" fill="#FFFFFF"></path>
            <path d="M137.182318,47.7 C138.920525,46.787074 140.64639,45.9027728 142.357855,45.0869665 C145.851753,43.4216177 149.405306,41.8002284 153,40.2330217 C149.144061,38.5625613 145.933007,37.3674768 145.157499,37.2826248 C147.247461,38.5359812 131.587144,30.4545925 130.518507,39.2904486 C130.245948,41.5323823 133.008565,44.6964427 137.182318,47.7" id="Fill-94" fill="#FFFFFF"></path>
            <path d="M172.8,32.3874433 C163.69103,26.6799817 154.04856,21.7245274 147.6,32.313717 C151.80523,33.2437205 155.653107,35.0742368 159.144643,37.8 C163.649524,35.8694266 168.211095,34.0631346 172.8,32.3874433" id="Fill-96" fill="#FFFFFF"></path>
            <path d="M75.769,17.1 C82.4406556,12.420378 90.0485231,13.3552389 97.2,16.7373293 C87.9886532,8.0821557 73.6266131,2.07522273 72.0231338,13.4562761 C71.7694703,15.2600577 73.6398566,16.3693408 75.769,17.1" id="Fill-98" fill="#FFFFFF"></path>
            <path d="M228.885638,94.3770894 C229.088749,94.3048896 229.295883,94.2433074 229.5,94.1753546 C226.246193,91.9998048 214.203287,85.9063542 212.647774,91.2162247 C211.901691,93.7570205 212.8901,96.46876 214.946353,99 C219.578704,97.6961566 224.157764,96.0557347 228.885638,94.3770894" id="Fill-100" fill="#FFFFFF"></path>
            <path d="M91.8,53.4243639 C91.9161043,53.7699301 92.007329,54.1246167 92.0819675,54.483357 C93.5083913,56.102755 96.6774156,58.9969983 100.624961,62.1 C102.048274,61.054181 103.828194,60.4035843 105.724218,60.2292811 C109.247775,59.9049962 112.702914,59.0517214 116.1,57.8883491 C106.252907,54.3941786 94.6435178,52.2478175 91.8,53.4243639" id="Fill-102" fill="#FFFFFF"></path>
            <path d="M176.936312,30.6 C177.299857,30.4131248 177.655069,30.2130465 178.024864,30.0373432 C183.006157,27.6699192 188.165578,26.2500741 193.5,25.3573389 C191.194771,21.7366325 179.429043,12.332952 171.220637,17.9453009 C166.63518,21.0805381 170.415421,26.2419491 176.936312,30.6" id="Fill-106" fill="#FFFFFF"></path>
            <path d="M51.3883237,54.1400537 C52.2566366,49.0877731 55.1009998,43.8750862 59.1595114,40.1474511 C59.2382554,39.9653124 59.3201918,39.7842085 59.4,39.6 C50.4593565,44.0810272 43.275557,54.6885397 46.8264885,63.9 C47.885277,62.6126102 49.7527882,61.3045228 52.0619046,59.9809122 C51.2318996,58.225757 51.0361036,56.1880797 51.3883237,54.1400537" id="Fill-108" fill="#FFFFFF"></path>
            <path d="M86.9907331,103.940745 C87.6938221,103.947051 88.3958861,103.961764 89.1,103.981731 C85.3754733,94.1250895 82.7732242,85.2563189 77.1608114,92.8671302 C75.6951886,94.8554835 74.8691103,97.8705923 74.7,101.214641 C77.7081139,102.518841 80.8904626,103.529833 84.1220071,104.4 C84.9726833,104.100486 85.9248256,103.930236 86.9907331,103.940745" id="Fill-110" fill="#FFFFFF"></path>
            <path d="M199.852676,24.3 C200.078298,24.2773709 200.300843,24.2485703 200.526464,24.2279985 C205.601923,23.7548456 210.797372,23.6643294 216,23.9348494 C215.124178,21.0239306 213.6802,18.6797667 210.886595,17.9535799 C218.244934,13.7065185 192.659451,9.4069989 186.3,13.1047915 C190.979596,13.839207 195.399727,18.9749729 199.852676,24.3" id="Fill-112" fill="#FFFFFF"></path>
            <path d="M110.981246,100.8 C117.533482,99.4367766 124.030744,97.7927393 130.5,96.0190172 C120.852645,89.5306864 108.59456,83.3772899 106.293965,93.7755701 C105.725559,96.3498669 107.791738,98.7291258 110.981246,100.8" id="Fill-114" fill="#FFFFFF"></path>
            <path d="M148.689004,77.5920226 C152.20528,78.9320253 155.676074,80.3834322 159.12059,81.9 C159.185276,80.0166393 159.20549,78.5000715 159.315658,77.9083683 C163.684978,75.3019316 165.25765,71.1316329 164.032664,65.3932683 C163.516188,66.489443 163.125042,66.6428865 162.860235,65.8535986 C169.589573,63.8577828 155.88226,54.5198029 153.341323,65.6885944 C152.86932,65.2461307 149.526886,71.065421 148.5,77.5300146 C148.563675,77.5531362 148.625329,77.56785 148.689004,77.5920226" id="Fill-116" fill="#FFFFFF"></path>
            <path d="M126.411234,25.0640203 C130.285909,26.4450761 131.881128,30.2730689 131.538006,34.2 C138.150638,27.2182225 143.775038,19.1624038 124.2,17.1 C126.455378,19.8060125 126.800507,22.4528661 126.411234,25.0640203" id="Fill-118" fill="#FFFFFF"></path>
        </g>
    </g>
</svg>