<?xml version="1.0" encoding="UTF-8"?>
<svg width="1310px" height="800px" viewBox="0 0 1310 800" version="1.1" xmlns="http://www.w3.org/2000/svg" xmlns:xlink="http://www.w3.org/1999/xlink">
    <!-- Generator: Sketch 58 (84663) - https://sketch.com -->
    <title>Blog-te2plate-01</title>
    <desc>Created with Sketch.</desc>
    <g id="Blog-te2plate-01" stroke="none" stroke-width="1" fill="none" fill-rule="evenodd">
        <rect fill="#4038FF" x="0" y="0" width="1310" height="800"></rect>
        <g id="Group" transform="translate(910.000000, 0.000000)">
            <path d="M142.213523,346.680178 L133.342349,346.680178 L133.342349,355.551289 L142.213523,355.551289 L142.213523,364.444444 L133.342349,364.444444 L133.342349,373.3376 L142.213523,373.3376 L142.213523,382.208711 L151.106762,382.208711 L151.106762,391.101867 L142.213523,391.101867 L142.213523,382.230756 L133.342349,382.230756 L133.342349,391.101867 L142.213523,391.101867 L142.213523,400 L133.320285,400 L133.320285,391.106844 L124.44911,391.106844 L124.44911,382.235733 L115.555872,382.235733 L115.555872,391.106844 L106.662633,391.106844 L106.662633,382.235733 L97.7914591,382.235733 L97.7914591,391.106844 L106.662633,391.106844 L106.662633,400 L97.7686833,400 L97.7686833,391.106844 L88.8982206,391.106844 L88.8982206,400 L80,400 L80,391.106844 L88.8932384,391.106844 L88.8932384,382.235733 L80,382.235733 L80,373.341867 L88.8932384,373.341867 L88.8932384,364.448711 L80,364.448711 L80,355.555556 L88.8932384,355.555556 L88.8932384,346.684444 L88.8932384,346.6624 L97.7644128,346.6624 L97.7644128,337.791289 L106.657651,337.791289 L106.657651,346.6624 L115.55089,346.6624 L115.55089,337.791289 L124.44484,337.791289 L124.44484,346.6624 L133.316014,346.6624 L133.316014,337.791289 L142.209253,337.791289 L142.209253,346.6624 L151.102491,346.6624 L151.102491,355.555556 L142.209253,355.555556 L142.209253,346.680178 L142.213523,346.680178 Z M88.8932384,346.658133 L88.8932384,337.786311 L80,337.786311 L80,346.680178 L88.8932384,346.680178 L88.8932384,346.658133 Z M115.55089,391.106844 L115.55089,400 L124.44484,400 L124.44484,391.106844 L115.55089,391.106844 Z M142.213523,373.341867 L142.213523,364.448711 L151.106762,364.448711 L151.106762,373.341867 L142.213523,373.341867 Z M97.7644128,382.213689 L88.8932384,382.213689 L88.8932384,373.341867 L97.7644128,373.341867 L97.7644128,382.213689 Z M97.7864769,337.786311 L97.7864769,328.893156 L106.657651,328.893156 L106.657651,337.786311 L115.55089,337.786311 L115.55089,328.893156 L124.44484,328.893156 L124.44484,337.786311 L133.338078,337.786311 L133.338078,328.893156 L142.209253,328.893156 L142.209253,337.786311 L151.102491,337.786311 L151.102491,328.893156 L142.209253,328.893156 L142.209253,320 L133.316014,320 L133.316014,328.893156 L124.44484,328.893156 L124.44484,320 L115.55089,320 L115.55089,328.893156 L106.657651,328.893156 L106.657651,320 L97.7644128,320 L97.7644128,328.893156 L88.8932384,328.893156 L88.8932384,320 L80,320 L80,328.893156 L88.8932384,328.893156 L88.8932384,337.786311 L97.7864769,337.786311 Z M133.316014,355.551289 L133.316014,364.444444 L124.44484,364.444444 L124.44484,355.551289 L133.316014,355.551289 Z M115.55089,355.551289 L115.55089,346.680178 L124.44484,346.680178 L124.44484,355.551289 L115.55089,355.551289 Z M106.657651,355.551289 L115.55089,355.551289 L115.55089,364.444444 L106.657651,364.444444 L106.657651,355.551289 Z M106.657651,355.551289 L97.7864769,355.551289 L97.7864769,346.680178 L106.657651,346.680178 L106.657651,355.551289 Z M106.657651,373.341867 L97.7864769,373.341867 L97.7864769,364.448711 L106.657651,364.448711 L106.657651,373.341867 Z M115.55089,373.341867 L115.55089,382.213689 L106.657651,382.213689 L106.657651,373.341867 L115.55089,373.341867 Z M124.44911,373.341867 L115.555872,373.341867 L115.555872,364.448711 L124.44911,364.448711 L124.44911,373.341867 Z M124.44911,373.341867 L133.320285,373.341867 L133.320285,382.213689 L124.44911,382.213689 L124.44911,373.341867 Z M97.7644128,364.448711 L97.7644128,355.555556 L88.8932384,355.555556 L88.8932384,364.448711 L97.7644128,364.448711 Z M160,391.106844 L151.106762,391.106844 L151.106762,400 L160,400 L160,391.106844 Z M151.106762,373.341867 L160,373.341867 L160,382.235733 L151.106762,382.235733 L151.106762,373.341867 Z M160,355.551289 L151.106762,355.551289 L151.106762,364.444444 L160,364.444444 L160,355.551289 Z M151.106762,337.786311 L160,337.786311 L160,346.680178 L151.106762,346.680178 L151.106762,337.786311 Z M151.106762,320 L160,320 L160,328.893156 L151.106762,328.893156 L151.106762,320 Z" id="Shape" fill="#261EE4"></path>
            <path d="M382.213523,106.680178 L373.342349,106.680178 L373.342349,115.551289 L382.213523,115.551289 L382.213523,124.444444 L373.342349,124.444444 L373.342349,133.3376 L382.213523,133.3376 L382.213523,142.208711 L391.106762,142.208711 L391.106762,151.101867 L382.213523,151.101867 L382.213523,142.230756 L373.342349,142.230756 L373.342349,151.101867 L382.213523,151.101867 L382.213523,160 L373.320285,160 L373.320285,151.106844 L364.44911,151.106844 L364.44911,142.235733 L355.555872,142.235733 L355.555872,151.106844 L346.662633,151.106844 L346.662633,142.235733 L337.791459,142.235733 L337.791459,151.106844 L346.662633,151.106844 L346.662633,160 L337.768683,160 L337.768683,151.106844 L328.898221,151.106844 L328.898221,160 L320,160 L320,151.106844 L328.893238,151.106844 L328.893238,142.235733 L320,142.235733 L320,133.341867 L328.893238,133.341867 L328.893238,124.448711 L320,124.448711 L320,115.555556 L328.893238,115.555556 L328.893238,106.684444 L328.893238,106.6624 L337.764413,106.6624 L337.764413,97.7912889 L346.657651,97.7912889 L346.657651,106.6624 L355.55089,106.6624 L355.55089,97.7912889 L364.44484,97.7912889 L364.44484,106.6624 L373.316014,106.6624 L373.316014,97.7912889 L382.209253,97.7912889 L382.209253,106.6624 L391.102491,106.6624 L391.102491,115.555556 L382.209253,115.555556 L382.209253,106.680178 L382.213523,106.680178 Z M328.893238,106.658133 L328.893238,97.7863111 L320,97.7863111 L320,106.680178 L328.893238,106.680178 L328.893238,106.658133 Z M355.55089,151.106844 L355.55089,160 L364.44484,160 L364.44484,151.106844 L355.55089,151.106844 Z M382.213523,133.341867 L382.213523,124.448711 L391.106762,124.448711 L391.106762,133.341867 L382.213523,133.341867 Z M337.764413,142.213689 L328.893238,142.213689 L328.893238,133.341867 L337.764413,133.341867 L337.764413,142.213689 Z M337.786477,97.7863111 L337.786477,88.8931556 L346.657651,88.8931556 L346.657651,97.7863111 L355.55089,97.7863111 L355.55089,88.8931556 L364.44484,88.8931556 L364.44484,97.7863111 L373.338078,97.7863111 L373.338078,88.8931556 L382.209253,88.8931556 L382.209253,97.7863111 L391.102491,97.7863111 L391.102491,88.8931556 L382.209253,88.8931556 L382.209253,80 L373.316014,80 L373.316014,88.8931556 L364.44484,88.8931556 L364.44484,80 L355.55089,80 L355.55089,88.8931556 L346.657651,88.8931556 L346.657651,80 L337.764413,80 L337.764413,88.8931556 L328.893238,88.8931556 L328.893238,80 L320,80 L320,88.8931556 L328.893238,88.8931556 L328.893238,97.7863111 L337.786477,97.7863111 Z M373.316014,115.551289 L373.316014,124.444444 L364.44484,124.444444 L364.44484,115.551289 L373.316014,115.551289 Z M355.55089,115.551289 L355.55089,106.680178 L364.44484,106.680178 L364.44484,115.551289 L355.55089,115.551289 Z M346.657651,115.551289 L355.55089,115.551289 L355.55089,124.444444 L346.657651,124.444444 L346.657651,115.551289 Z M346.657651,115.551289 L337.786477,115.551289 L337.786477,106.680178 L346.657651,106.680178 L346.657651,115.551289 Z M346.657651,133.341867 L337.786477,133.341867 L337.786477,124.448711 L346.657651,124.448711 L346.657651,133.341867 Z M355.55089,133.341867 L355.55089,142.213689 L346.657651,142.213689 L346.657651,133.341867 L355.55089,133.341867 Z M364.44911,133.341867 L355.555872,133.341867 L355.555872,124.448711 L364.44911,124.448711 L364.44911,133.341867 Z M364.44911,133.341867 L373.320285,133.341867 L373.320285,142.213689 L364.44911,142.213689 L364.44911,133.341867 Z M337.764413,124.448711 L337.764413,115.555556 L328.893238,115.555556 L328.893238,124.448711 L337.764413,124.448711 Z M400,151.106844 L391.106762,151.106844 L391.106762,160 L400,160 L400,151.106844 Z M391.106762,133.341867 L400,133.341867 L400,142.235733 L391.106762,142.235733 L391.106762,133.341867 Z M400,115.551289 L391.106762,115.551289 L391.106762,124.444444 L400,124.444444 L400,115.551289 Z M391.106762,97.7863111 L400,97.7863111 L400,106.680178 L391.106762,106.680178 L391.106762,97.7863111 Z M391.106762,80 L400,80 L400,88.8931556 L391.106762,88.8931556 L391.106762,80 Z" id="Shape-Copy-5" fill="#261EE4"></path>
            <path d="M391.106762,480 L400,480 L400,400 L391.106762,400 L391.106762,480 Z M382.222064,480 L373.333096,480 L373.333096,400 L382.222064,400 L382.222064,480 Z M364.44484,480 L355.555872,480 L355.555872,400 L364.44484,400 L364.44484,480 Z M337.777936,480 L346.666904,480 L346.666904,400 L337.777936,400 L337.777936,480 Z M328.888968,480 L320,480 L320,400 L328.888968,400 L328.888968,480 Z" id="Shape" fill="#261EE4"></path>
            <path d="M311.106762,80 L320,80 L320,0 L311.106762,0 L311.106762,80 Z M302.222064,80 L293.333096,80 L293.333096,0 L302.222064,0 L302.222064,80 Z M284.44484,80 L275.555872,80 L275.555872,0 L284.44484,0 L284.44484,80 Z M257.777936,80 L266.666904,80 L266.666904,0 L257.777936,0 L257.777936,80 Z M248.888968,80 L240,80 L240,0 L248.888968,0 L248.888968,80 Z" id="Shape-Copy-6" fill="#261EE4"></path>
            <path d="M240,248.893156 L240,240 L160,240 L160,248.893156 L240,248.893156 Z M240,257.777778 L240,266.666667 L160,266.666667 L160,257.777778 L240,257.777778 Z M240,275.555556 L240,284.444444 L160,284.444444 L160,275.555556 L240,275.555556 Z M240,302.222222 L240,293.333333 L160,293.333333 L160,302.222222 L240,302.222222 Z M240,311.111111 L240,320 L160,320 L160,311.111111 L240,311.111111 Z" id="Shape" fill="#261EE4"></path>
            <path d="M320,471.106702 L320,480 L240,480 L240,471.106702 L320,471.106702 Z M320,444.435556 L320,435.542258 L240,435.542258 L240,444.435556 L320,444.435556 Z M320,417.76448 L320,426.657778 L240,426.657778 L240,417.76448 L320,417.76448 Z M320,400 L320,408.893369 L240,408.893369 L240,400 L320,400 Z M320,462.213333 L320,453.319964 L240,453.319964 L240,462.213333 L320,462.213333 Z" id="Shape" fill="#261EE4"></path>
            <path d="M391.111032,480 L400,480 C400,524.182044 364.182206,560 320,560 L320,551.111111 C359.275445,551.111111 391.111032,519.275378 391.111032,480 Z M373.333096,480 L382.222064,480 C382.222064,514.364444 354.364413,542.222222 320,542.222222 L320,533.333333 C349.453381,533.333333 373.333096,509.453511 373.333096,480 Z M364.44484,480 L355.555872,480 C355.555872,499.6352 339.635587,515.555556 320,515.555556 L320,524.444444 C344.546619,524.444444 364.44484,504.546844 364.44484,480 Z M337.777936,480 L346.666904,480 C346.666904,494.728533 334.728826,506.666667 320,506.666667 L320,497.777778 C329.817794,497.777778 337.777936,489.8176 337.777936,480 Z M320,480 L328.888968,480 C328.888968,484.910933 324.911032,488.888889 320,488.888889 L320,480 Z" id="Shape" fill="#FFFFFF"></path>
            <path d="M8.88896797,560 L0,560 C0,515.817956 35.8177936,480 80,480 L80,488.888889 C40.7245552,488.888889 8.88896797,520.724622 8.88896797,560 Z M26.6669039,560 L17.7779359,560 C17.7779359,525.635556 45.6355872,497.777778 80,497.777778 L80,506.666667 C50.5466192,506.666667 26.6669039,530.546489 26.6669039,560 Z M35.5558719,560 L44.4448399,560 C44.4448399,540.364089 60.3644128,524.444444 80,524.444444 L80,515.555556 C55.4533808,515.555556 35.5558719,535.453156 35.5558719,560 Z M62.2220641,560 L53.3338078,560 C53.3338078,545.270756 65.2711744,533.333333 80,533.333333 L80,542.222222 C70.1822064,542.222222 62.2220641,550.1824 62.2220641,560 Z M80,560 L71.111032,560 C71.111032,555.089067 75.088968,551.111111 80,551.111111 L80,560 Z" id="Shape" fill="#261EE4"></path>
            <path d="M8.88896797,240 L0,240 C0,195.817956 35.8177936,160 80,160 L80,168.888889 C40.7245552,168.888889 8.88896797,200.724622 8.88896797,240 Z M26.6669039,240 L17.7779359,240 C17.7779359,205.635556 45.6355872,177.777778 80,177.777778 L80,186.666667 C50.5466192,186.666667 26.6669039,210.546489 26.6669039,240 Z M35.5558719,240 L44.4448399,240 C44.4448399,220.364089 60.3644128,204.444444 80,204.444444 L80,195.555556 C55.4533808,195.555556 35.5558719,215.453156 35.5558719,240 Z M62.2220641,240 L53.3338078,240 C53.3338078,225.270756 65.2711744,213.333333 80,213.333333 L80,222.222222 C70.1822064,222.222222 62.2220641,230.1824 62.2220641,240 Z M80,240 L71.111032,240 C71.111032,235.089067 75.088968,231.111111 80,231.111111 L80,240 Z" id="Shape-Copy-3" fill="#FFFFFF"></path>
            <path d="M248.888968,240 L240,240 C240,195.817956 275.817794,160 320,160 L320,168.888889 C280.724555,168.888889 248.888968,200.724622 248.888968,240 Z M266.666904,240 L257.777936,240 C257.777936,205.635556 285.635587,177.777778 320,177.777778 L320,186.666667 C290.546619,186.666667 266.666904,210.546489 266.666904,240 Z M275.555872,240 L284.44484,240 C284.44484,220.364089 300.364413,204.444444 320,204.444444 L320,195.555556 C295.453381,195.555556 275.555872,215.453156 275.555872,240 Z M302.222064,240 L293.333808,240 C293.333808,225.270756 305.271174,213.333333 320,213.333333 L320,222.222222 C310.182206,222.222222 302.222064,230.1824 302.222064,240 Z M320,240 L311.111032,240 C311.111032,235.089067 315.088968,231.111111 320,231.111111 L320,240 Z" id="Shape-Copy-7" fill="#FFFFFF" transform="translate(280.000000, 200.000000) rotate(-90.000000) translate(-280.000000, -200.000000) "></path>
            <path d="M88.888968,160 L80,160 C80,115.817956 115.817794,80 160,80 L160,88.8888889 C120.724555,88.8888889 88.888968,120.724622 88.888968,160 Z M106.666904,160 L97.7779359,160 C97.7779359,125.635556 125.635587,97.7777778 160,97.7777778 L160,106.666667 C130.546619,106.666667 106.666904,130.546489 106.666904,160 Z M115.555872,160 L124.44484,160 C124.44484,140.364089 140.364413,124.444444 160,124.444444 L160,115.555556 C135.453381,115.555556 115.555872,135.453156 115.555872,160 Z M142.222064,160 L133.333808,160 C133.333808,145.270756 145.271174,133.333333 160,133.333333 L160,142.222222 C150.182206,142.222222 142.222064,150.1824 142.222064,160 Z M160,160 L151.111032,160 C151.111032,155.089067 155.088968,151.111111 160,151.111111 L160,160 Z" id="Shape-Copy-4" fill="#261EE4" transform="translate(120.000000, 120.000000) rotate(-180.000000) translate(-120.000000, -120.000000) "></path>
            <path d="M168.888968,720 L160,720 C160,675.817956 195.817794,640 240,640 L240,648.888889 C200.724555,648.888889 168.888968,680.724622 168.888968,720 Z M186.666904,720 L177.777936,720 C177.777936,685.635556 205.635587,657.777778 240,657.777778 L240,666.666667 C210.546619,666.666667 186.666904,690.546489 186.666904,720 Z M195.555872,720 L204.44484,720 C204.44484,700.364089 220.364413,684.444444 240,684.444444 L240,675.555556 C215.453381,675.555556 195.555872,695.453156 195.555872,720 Z M222.222064,720 L213.333808,720 C213.333808,705.270756 225.271174,693.333333 240,693.333333 L240,702.222222 C230.182206,702.222222 222.222064,710.1824 222.222064,720 Z M240,720 L231.111032,720 C231.111032,715.089067 235.088968,711.111111 240,711.111111 L240,720 Z" id="Shape-Copy-2" fill="#FFFFFF" transform="translate(200.000000, 680.000000) scale(-1, 1) translate(-200.000000, -680.000000) "></path>
            <path d="M80,640 L160,640 L160,560 C115.817794,560 80,595.817956 80,640 Z" id="Path" fill="#261EE4" fill-rule="nonzero"></path>
            <path d="M320,720 L400,720 L400,640 C355.817794,640 320,675.817956 320,720 Z" id="Path" fill="#261EE4" fill-rule="nonzero"></path>
            <path d="M400,793.733689 L400,800 L393.733096,800 L320,726.267022 L320,720 L326.266192,720 L400,793.733689 Z M320,738.844444 L320,751.422578 L368.577936,800 L381.15516,800 L320,738.844444 Z M320,776.577422 L320,764 L356,800 L343.422064,800 L320,776.577422 Z M320,800 L330.844128,800 L320,789.155556 L320,800 Z M338.844128,720 L351.422064,720 L400,768.577422 L400,781.155556 L338.844128,720 Z M376.577936,720 L364,720 L400,756 L400,743.422578 L376.577936,720 Z M400,730.844444 L389.15516,720 L400,720 L400,730.844444 Z" id="Shape" fill="#261EE4"></path>
            <path d="M400,313.733689 L400,320 L393.733096,320 L320,246.267022 L320,240 L326.266192,240 L400,313.733689 Z M320,258.844444 L320,271.422578 L368.577936,320 L381.15516,320 L320,258.844444 Z M320,296.577422 L320,284 L356,320 L343.422064,320 L320,296.577422 Z M320,320 L330.844128,320 L320,309.155556 L320,320 Z M338.844128,240 L351.422064,240 L400,288.577422 L400,301.155556 L338.844128,240 Z M376.577936,240 L364,240 L400,276 L400,263.422578 L376.577936,240 Z M400,250.844444 L389.15516,240 L400,240 L400,250.844444 Z" id="Shape-Copy" fill="#261EE4" transform="translate(360.000000, 280.000000) rotate(-270.000000) translate(-360.000000, -280.000000) "></path>
        </g>
        <g id="Group-29" transform="translate(120.000000, 120.000000)" fill="#FFFFFF" fill-rule="nonzero">
            <path d="M41.36675,36.3 L41.36675,33.1 L46.4,33.1 L46.4,12.7 L49.93325,12.7 L49.93325,33.36675 C49.93325,34.96675 48.63325,36.3 47,36.3 L41.36675,36.3 Z M54.53325,27.66675 C52.83325,25.96675 51.96675,23.83325 51.96675,21.3 C51.96675,18.76675 52.83325,16.63325 54.53325,14.93325 C56.23325,13.23325 58.36675,12.36675 60.9,12.36675 C63.43325,12.36675 65.53325,13.23325 67.26675,14.93325 C68.96675,16.63325 69.83325,18.76675 69.83325,21.3 C69.83325,23.83325 68.96675,25.96675 67.26675,27.66675 C65.56675,29.36675 63.43325,30.23325 60.9,30.23325 C58.33325,30.23325 56.23325,29.36675 54.53325,27.66675 Z M57.1,17.1 C56.13325,18.13325 55.66675,19.53325 55.66675,21.26675 C55.66675,23 56.13325,24.4 57.1,25.43325 C58.06675,26.46675 59.33325,27 60.86675,27 C62.4,27 63.66675,26.46675 64.63325,25.43325 C65.6,24.4 66.06675,23 66.06675,21.26675 C66.06675,19.53325 65.6,18.13325 64.63325,17.1 C63.66675,16.06675 62.4,15.53325 60.86675,15.53325 C59.33325,15.56675 58.06675,16.06675 57.1,17.1 Z M70.1,12.7 L73.8,12.7 L77.5,26.53325 L79.33325,26.53325 L83.36675,12.7 L87.06675,12.7 L80,36.3 L76.3,36.3 L78.3,29.9 L77,29.9 C75.7,29.9 74.53325,29.03325 74.2,27.76675 L70.1,12.7 Z M86.73325,24.5 L90.6,24.5 C90.63325,24.56675 90.66675,24.66675 90.73325,24.76675 C90.8,24.86675 90.93325,25.06675 91.13325,25.36675 C91.33325,25.66675 91.6,25.93325 91.86675,26.13325 C92.13325,26.36675 92.56675,26.56675 93.06675,26.73325 C93.6,26.9 94.16675,27 94.8,27 C96.03325,27 96.93325,26.8 97.5,26.43325 C98.06675,26.06675 98.33325,25.56675 98.33325,25 C98.33325,24.46675 97.96675,24.03325 97.23325,23.73325 C96.5,23.43325 95.6,23.16675 94.53325,22.96675 C93.46675,22.76675 92.43325,22.5 91.36675,22.16675 C90.3,21.83325 89.43325,21.3 88.66675,20.5 C87.93325,19.7 87.56675,18.7 87.56675,17.43325 C87.56675,16.1 88.16675,14.9 89.4,13.9 C90.63325,12.9 92.26675,12.4 94.26675,12.4 C95.53325,12.4 96.63325,12.6 97.63325,12.96675 C98.63325,13.33325 99.36675,13.8 99.86675,14.3 C100.36675,14.83325 100.76675,15.36675 101.1,15.9 C101.43325,16.43325 101.63325,16.86675 101.73325,17.26675 L101.86675,17.8 L98.16675,17.8 C98.13325,17.73325 98.1,17.66675 98.06675,17.56675 C98.03325,17.46675 97.9,17.3 97.7,17.03325 C97.5,16.76675 97.3,16.56675 97.03325,16.36675 C96.76675,16.16675 96.4,16 95.93325,15.83325 C95.46675,15.66675 94.9,15.6 94.3,15.6 C93.3,15.6 92.56675,15.76675 92.03325,16.13325 C91.53325,16.5 91.26675,16.93325 91.26675,17.46675 C91.26675,17.9 91.53325,18.3 92.06675,18.6 C92.6,18.9 93.26675,19.13325 94.06675,19.26675 C94.86675,19.4 95.73325,19.6 96.66675,19.86675 C97.6,20.13325 98.43325,20.43325 99.26675,20.76675 C100.06675,21.1 100.73325,21.63325 101.26675,22.36675 C101.8,23.1 102.06675,24 102.06675,25.03325 C102.06675,26.46675 101.43325,27.7 100.13325,28.73325 C98.83325,29.76675 97.06675,30.26675 94.83325,30.26675 C93.5,30.26675 92.33325,30.06675 91.3,29.66675 C90.26675,29.26675 89.46675,28.8 88.93325,28.23325 C88.4,27.66675 87.96675,27.1 87.6,26.53325 C87.26675,25.96675 87.03325,25.5 86.93325,25.13325 L86.73325,24.5 Z M102.7,15.9 L102.7,12.7 L104.7,12.7 L104.7,9 L108.23325,9 L108.23325,12.7 L113.46675,12.7 L113.46675,15.9 L108.26675,15.9 L108.26675,26.7 L113.63325,26.7 L113.63325,29.9 L107.63325,29.9 C106.03325,29.9 104.7,28.6 104.7,26.96675 L104.7,15.9 L102.7,15.9 Z M119.16675,15.9 L119.16675,29.9 L115.63325,29.9 L115.63325,15.26675 C115.63325,13.86675 116.76675,12.7 118.2,12.7 L119.16675,12.7 L126.06675,12.7 L126.06675,15.9 L119.16675,15.9 Z M128.46675,27.66675 C126.8,25.93325 125.93325,23.8 125.93325,21.3 C125.93325,18.8 126.8,16.66675 128.46675,14.93325 C130.16675,13.2 132.23325,12.36675 134.66675,12.36675 C137.1,12.36675 139.16675,13.23325 140.86675,14.93325 C142.56675,16.66675 143.4,18.76675 143.4,21.3 L143.4,22.46675 L129.46675,22.46675 C129.7,23.86675 130.33325,24.96675 131.26675,25.8 C132.23325,26.63325 133.36675,27.03325 134.66675,27.03325 C135.73325,27.03325 136.63325,26.83325 137.46675,26.43325 C138.26675,26.03325 138.83325,25.63325 139.1,25.23325 L139.53325,24.66675 L143.23325,24.66675 C143.2,24.83325 143.1,25.03325 143,25.26675 C142.9,25.5 142.6,25.96675 142.13325,26.6 C141.66675,27.23325 141.16675,27.8 140.56675,28.3 C140,28.76675 139.16675,29.23325 138.1,29.63325 C137.03325,30.03325 135.9,30.23325 134.63325,30.23325 C132.23325,30.23325 130.16675,29.36675 128.46675,27.66675 Z M130.1,19.6 L140.16675,19.6 C140,18.5 139.46675,17.53325 138.56675,16.76675 C137.66675,15.96675 136.53325,15.56675 135.13325,15.56675 C133.93325,15.56675 132.83325,15.93325 131.9,16.66675 C130.96675,17.4 130.36675,18.36675 130.1,19.6 Z M146.7,27.76675 C145.16675,26.1 144.4,23.93325 144.4,21.3 C144.4,18.66675 145.16675,16.5 146.7,14.83325 C148.23325,13.16675 150.16675,12.36675 152.46675,12.36675 C153.53325,12.36675 154.5,12.56675 155.4,13 C156.3,13.43325 156.93325,13.83325 157.3,14.23325 L157.83325,14.86675 L158,14.86675 L158,12.66675 L161.53325,12.66675 L161.53325,29.86675 L158,29.86675 L158,27.5 L157.83325,27.5 C157.8,27.56675 157.7,27.66675 157.6,27.8 C157.5,27.93325 157.26675,28.13325 156.93325,28.46675 C156.6,28.76675 156.23325,29.06675 155.86675,29.3 C155.5,29.53325 154.96675,29.73325 154.36675,29.93325 C153.73325,30.13325 153.1,30.23325 152.46675,30.23325 C150.2,30.23325 148.26675,29.4 146.7,27.76675 Z M164.6,29.9 L164.6,12.7 L168.13325,12.7 L168.13325,15.06675 L168.3,15.06675 C168.33325,15 168.4,14.9 168.46675,14.76675 C168.53325,14.63325 168.7,14.43325 169,14.1 C169.3,13.8 169.6,13.5 169.96675,13.26675 C170.3,13.03325 170.8,12.83325 171.4,12.63325 C172,12.43325 172.66675,12.33325 173.33325,12.33325 C174.13325,12.33325 174.9,12.43325 175.56675,12.66675 C176.26675,12.9 176.8,13.16675 177.16675,13.46675 C177.56675,13.76675 177.9,14.1 178.16675,14.4 C178.43325,14.7 178.6,14.96675 178.7,15.2 L178.86675,15.53325 L179.03325,15.53325 C179.06675,15.43325 179.13325,15.33325 179.23325,15.16675 C179.3,15.03325 179.53325,14.76675 179.86675,14.4 C180.2,14.03325 180.56675,13.73325 180.96675,13.43325 C181.36675,13.16675 181.93325,12.9 182.63325,12.66675 C183.36675,12.43325 184.1,12.3 184.93325,12.3 C186.9,12.3 188.46675,12.93325 189.6,14.2 C190.73325,15.46675 191.3,17.23325 191.3,19.56675 L191.3,29.83325 L187.76675,29.83325 L187.76675,19.76675 C187.76675,16.96675 186.53325,15.56675 184.06675,15.56675 C182.86675,15.56675 181.83325,16.03325 180.96675,16.93325 C180.1,17.86675 179.7,19.03325 179.7,20.43325 L179.7,29.86675 L176.16675,29.86675 L176.16675,19.76675 C176.16675,16.96675 174.93325,15.56675 172.46675,15.56675 C171.26675,15.56675 170.23325,16.03325 169.36675,16.93325 C168.5,17.86675 168.1,19.03325 168.1,20.43325 L168.1,29.86675 L164.6,29.86675 L164.6,29.9 Z M46.43325,6.13325 L46.43325,9.66675 L49.96675,9.66675 L49.96675,6.13325 L46.43325,6.13325 Z M149.06675,17.1 C148.1,18.13325 147.63325,19.53325 147.63325,21.26675 C147.63325,23 148.1,24.4 149.06675,25.43325 C150.03325,26.46675 151.3,27 152.83325,27 C154.36675,27 155.63325,26.46675 156.6,25.43325 C157.56675,24.4 158.03325,23 158.03325,21.26675 C158.03325,19.53325 157.56675,18.13325 156.6,17.1 C155.63325,16.06675 154.36675,15.53325 152.83325,15.53325 C151.3,15.56675 150.03325,16.06675 149.06675,17.1 Z" id="Shape"></path>
            <g id="Group">
                <path d="M28.06675,2.7000624e-13 L31.7,2.7000624e-13 L31.7,10.43325 C31.7,14.6 30.13325,18.43325 27.56675,21.33325 C27.9,19.93325 28.06675,18.5 28.06675,17 L28.06675,2.7000624e-13 Z" id="Path"></path>
                <path d="M9.8,29.7665 C9.7,29.8665 9.63325,29.9665 9.53325,30.0665 C9.5,30.1 9.46675,30.13325 9.43325,30.1665 C9.33325,30.2665 9.26675,30.3665 9.16675,30.43325 C9.13325,30.4665 9.06675,30.53325 9.03325,30.5665 C8.93325,30.6665 8.83325,30.7665 8.7,30.8665 C8.56675,31 8.43325,31.1 8.3,31.23325 C8.16675,31.3665 8.03325,31.4665 7.86675,31.5665 C7.73325,31.6665 7.6,31.7665 7.46675,31.8665 C7.13325,32.0665 6.8,32.2665 6.46675,32.43325 C6.4,32.4665 6.33325,32.5 6.23325,32.53325 C6.13325,32.5665 6.06675,32.6 6,32.63325 C5.9,32.6665 5.83325,32.7 5.73325,32.73325 C5.56675,32.8 5.4,32.8665 5.2,32.93325 C5.2,32.93325 5.2,32.93325 5.16675,32.93325 C5,33 4.83325,33.03325 4.66675,33.0665 L4.63325,33.0665 C4.46675,33.1 4.3,33.1665 4.13325,33.2 C3.93325,33.23325 3.7,33.3 3.5,33.3 C3.43325,33.3 3.36675,33.33325 3.3,33.33325 L3.26675,33.33325 C3.06675,33.3665 2.9,33.3665 2.7,33.3665 C2.6,33.3665 2.5,33.3665 2.4,33.3665 C2.3,33.3665 2.2,33.3665 2.1,33.3665 L1.96675,33.3665 L3.06675,29.73325 L9.8,29.73325 L9.8,29.7665 Z" id="Path"></path>
                <path d="M25.13325,-7.10542736e-15 L25.13325,17 C25.13325,17.26675 25.13325,17.56675 25.1,17.83325 C25.1,17.96675 25.1,18.1 25.06675,18.23325 C25.06675,18.36675 25.03325,18.5 25.03325,18.63325 C25.03325,18.76675 25,18.9 25,19.03325 C25,19.13325 24.96675,19.26675 24.96675,19.36675 L24.96675,19.4 C24.96675,19.43325 24.96675,19.46675 24.96675,19.46675 C24.93325,19.6 24.93325,19.73325 24.9,19.83325 C24.86675,19.96675 24.86675,20.1 24.83325,20.2 L24.83325,20.23325 C24.8,20.33325 24.8,20.43325 24.76675,20.53325 C24.76675,20.56675 24.76675,20.56675 24.76675,20.6 C24.66675,21 24.56675,21.43325 24.43325,21.83325 C24.4,21.93325 24.36675,22.06675 24.33325,22.16675 C24.3,22.3 24.26675,22.4 24.2,22.53325 C24.16675,22.66675 24.1,22.76675 24.06675,22.86675 C24.03325,23 23.96675,23.1 23.93325,23.2 C23.9,23.33325 23.83325,23.43325 23.8,23.53325 C23.76675,23.63325 23.7,23.76675 23.63325,23.86675 C23.6,23.96675 23.53325,24.1 23.46675,24.2 C23.4,24.3 23.36675,24.43325 23.3,24.53325 C23.26675,24.63325 23.2,24.7 23.16675,24.8 C23.06675,25 22.96675,25.16675 22.83325,25.36675 C22.73325,25.53325 22.63325,25.7 22.53325,25.83325 C22.46675,25.96675 22.4,26.06675 22.3,26.16675 C22.26675,26.23325 22.2,26.3 22.16675,26.33325 C22.06675,26.46675 22,26.56675 21.9,26.66675 C21.8,26.8 21.7,26.9 21.63325,27.03325 C21.43325,27.26675 21.23325,27.5 21.03325,27.73325 C21.06675,27.6 21.1,27.46675 21.13325,27.33325 C21.16675,27.23325 21.16675,27.13325 21.2,27.03325 C21.2,27.03325 21.2,27.03325 21.2,27 C21.2,26.96675 21.2,26.96675 21.2,26.93325 C21.23325,26.8 21.23325,26.66675 21.26675,26.53325 C21.3,26.36675 21.33325,26.2 21.33325,26.06675 C21.33325,25.96675 21.36675,25.86675 21.36675,25.8 C21.36675,25.7 21.4,25.63325 21.4,25.53325 C21.43325,25.36675 21.43325,25.2 21.46675,25 C21.46675,24.96675 21.46675,24.96675 21.46675,24.93325 C21.46675,24.9 21.46675,24.9 21.46675,24.86675 C21.46675,24.73325 21.5,24.63325 21.5,24.5 C21.5,24.4 21.5,24.3 21.5,24.2 L21.5,24.33325 C21.5,24.23325 21.5,24.13325 21.5,24.03325 C21.5,23.86675 21.5,23.73325 21.5,23.56675 L21.5,-7.10542736e-15 L25.13325,-7.10542736e-15 Z" id="Path"></path>
                <path d="M18.56675,0 L18.56675,23.56675 C18.56675,24.13325 18.53325,24.66675 18.5,25.2 C18.46675,25.66675 18.4,26.1 18.3,26.56675 C18.1,27.63325 17.8,28.66675 17.4,29.63325 C17.16675,30.23325 16.86675,30.83325 16.56675,31.4 C15.63325,33.06675 14.43325,34.56675 13.03325,35.83325 C10.13325,38.43325 6.3,40 2.13325,40 L-9.23705556e-14,40 L1.1,36.36675 L2.16675,36.36675 C5.3,36.36675 8.16675,35.23325 10.36675,33.36675 C11.56675,32.36675 12.56675,31.16675 13.3,29.8 C13.5,29.46675 13.66675,29.1 13.83325,28.73325 C14.1,28.13325 14.3,27.53325 14.46675,26.9 C14.66675,26.2 14.8,25.46675 14.83325,24.73325 C14.86675,24.36675 14.86675,24 14.86675,23.63325 L14.86675,0 L18.56675,0 Z" id="Path"></path>
                <path d="M12,23.2 L12,23.56675 C12,23.86675 12,24.16675 11.96675,24.4335 C11.9,25 11.83325,25.56675 11.66675,26.1 C11.6,26.36675 11.53325,26.6335 11.43325,26.86675 L3.93325,26.86675 L5.03325,23.2335 L12,23.2335 L12,23.2 Z" id="Path"></path>
            </g>
        </g>
        <text id="Announcing-New-Brand" font-family="PxGrotesk-Bold, Px Grotesk" font-size="100" font-weight="bold" line-spacing="90" fill="#FFFFFF">
            <tspan x="120" y="590">Announcing</tspan>
            <tspan x="685.429688" y="609.189453" font-family="PxGroteskRegular, Px Grotesk" font-size="81" font-weight="normal"></tspan>
            <tspan x="123.276367" y="699.189453" font-family="PxGroteskRegular, Px Grotesk" font-size="70" font-weight="normal">New Branding</tspan>
        </text>
    </g>
</svg>