<?xml version="1.0" encoding="UTF-8"?>
<svg width="1310px" height="800px" viewBox="0 0 1310 800" version="1.1" xmlns="http://www.w3.org/2000/svg" xmlns:xlink="http://www.w3.org/1999/xlink">
    <!-- Generator: Sketch 58 (84663) - https://sketch.com -->
    <title>Blog-template-01</title>
    <desc>Created with Sketch.</desc>
    <g id="Blog-template-01" stroke="none" stroke-width="1" fill="none" fill-rule="evenodd">
        <rect fill="#4038FF" x="0" y="0" width="1310" height="800"></rect>
        <g id="Group" transform="translate(910.000000, 400.000000) scale(-1, 1) rotate(-90.000000) translate(-910.000000, -400.000000) translate(510.000000, 0.000000)">
            <g id="Group-2">
                <path d="M477.868875,233.145277 L466.765367,233.145277 L466.765367,244.268264 L477.868875,244.268264 L477.868875,255.418891 L466.765367,255.418891 L466.765367,266.569518 L477.868875,266.569518 L477.868875,277.692505 L489,277.692505 L489,288.843132 L477.868875,288.843132 L477.868875,277.720145 L466.765367,277.720145 L466.765367,288.843132 L477.868875,288.843132 L477.868875,300 L466.737751,300 L466.737751,288.849373 L455.634243,288.849373 L455.634243,277.726386 L444.503118,277.726386 L444.503118,288.849373 L433.371993,288.849373 L433.371993,277.726386 L422.268485,277.726386 L422.268485,288.849373 L433.371993,288.849373 L433.371993,300 L422.239978,300 L422.239978,288.849373 L411.13736,288.849373 L411.13736,300 L400,300 L400,288.849373 L411.131125,288.849373 L411.131125,277.726386 L400,277.726386 L400,266.574868 L411.131125,266.574868 L411.131125,255.424241 L400,255.424241 L400,244.273614 L411.131125,244.273614 L411.131125,233.150627 L411.131125,233.122987 L422.234633,233.122987 L422.234633,222 L433.365757,222 L433.365757,233.122987 L444.496882,233.122987 L444.496882,222 L455.628897,222 L455.628897,233.122987 L466.732406,233.122987 L466.732406,222 L477.86353,222 L477.86353,233.122987 L488.994655,233.122987 L488.994655,244.273614 L477.86353,244.273614 L477.86353,233.145277 L477.868875,233.145277 Z M411,233.972735 L411,223 L400,223 L400,234 L411,234 L411,233.972735 Z M445,289 L445,300 L456,300 L456,289 L445,289 Z M478,266 L478,255 L489,255 L489,266 L478,266 Z M422,277 L411,277 L411,266 L422,266 L422,277 Z M422.263586,222 L422.263586,211 L433.367761,211 L433.367761,222 L444.499555,222 L444.499555,211 L455.632239,211 L455.632239,222 L466.764032,222 L466.764032,211 L477.868207,211 L477.868207,222 L489,222 L489,211 L477.868207,211 L477.868207,200 L466.736414,200 L466.736414,211 L455.632239,211 L455.632239,200 L444.499555,200 L444.499555,211 L433.367761,211 L433.367761,200 L422.235968,200 L422.235968,211 L411.131793,211 L411.131793,200 L400,200 L400,211 L411.131793,211 L411.131793,222 L422.263586,222 Z M466,244 L466,255 L455,255 L455,244 L466,244 Z M445,245 L445,234 L456,234 L456,245 L445,245 Z M434,244 L445,244 L445,255 L434,255 L434,244 Z M434,245 L423,245 L423,234 L434,234 L434,245 Z M434,266 L423,266 L423,255 L434,255 L434,266 Z M445,266 L445,277 L434,277 L434,266 L445,266 Z M456,266 L445,266 L445,255 L456,255 L456,266 Z M455,266 L466,266 L466,277 L455,277 L455,266 Z M422,255 L422,244 L411,244 L411,255 L422,255 Z M500,289 L489,289 L489,300 L500,300 L500,289 Z M489,266 L500,266 L500,277 L489,277 L489,266 Z M500,244 L489,244 L489,255 L500,255 L500,244 Z M489,223 L500,223 L500,234 L489,234 L489,223 Z M489,200 L500,200 L500,211 L489,211 L489,200 Z" id="Shape" fill="#261EE4"></path>
                <path d="M777.868875,33.1452773 L766.765367,33.1452773 L766.765367,44.268264 L777.868875,44.268264 L777.868875,55.418891 L766.765367,55.418891 L766.765367,66.569518 L777.868875,66.569518 L777.868875,77.6925047 L789,77.6925047 L789,88.8431317 L777.868875,88.8431317 L777.868875,77.7201449 L766.765367,77.7201449 L766.765367,88.8431317 L777.868875,88.8431317 L777.868875,100 L766.737751,100 L766.737751,88.849373 L755.634243,88.849373 L755.634243,77.7263863 L744.503118,77.7263863 L744.503118,88.849373 L733.371993,88.849373 L733.371993,77.7263863 L722.268485,77.7263863 L722.268485,88.849373 L733.371993,88.849373 L733.371993,100 L722.239978,100 L722.239978,88.849373 L711.13736,88.849373 L711.13736,100 L700,100 L700,88.849373 L711.131125,88.849373 L711.131125,77.7263863 L700,77.7263863 L700,66.5748677 L711.131125,66.5748677 L711.131125,55.4242407 L700,55.4242407 L700,44.2736137 L711.131125,44.2736137 L711.131125,33.150627 L711.131125,33.1229867 L722.234633,33.1229867 L722.234633,22 L733.365757,22 L733.365757,33.1229867 L744.496882,33.1229867 L744.496882,22 L755.628897,22 L755.628897,33.1229867 L766.732406,33.1229867 L766.732406,22 L777.86353,22 L777.86353,33.1229867 L788.994655,33.1229867 L788.994655,44.2736137 L777.86353,44.2736137 L777.86353,33.1452773 L777.868875,33.1452773 Z M711,33.9727353 L711,23 L700,23 L700,34 L711,34 L711,33.9727353 Z M745,89 L745,100 L756,100 L756,89 L745,89 Z M778,66 L778,55 L789,55 L789,66 L778,66 Z M722,77 L711,77 L711,66 L722,66 L722,77 Z M722.263586,22 L722.263586,11 L733.367761,11 L733.367761,22 L744.499555,22 L744.499555,11 L755.632239,11 L755.632239,22 L766.764032,22 L766.764032,11 L777.868207,11 L777.868207,22 L789,22 L789,11 L777.868207,11 L777.868207,0 L766.736414,0 L766.736414,11 L755.632239,11 L755.632239,0 L744.499555,0 L744.499555,11 L733.367761,11 L733.367761,0 L722.235968,0 L722.235968,11 L711.131793,11 L711.131793,0 L700,0 L700,11 L711.131793,11 L711.131793,22 L722.263586,22 Z M766,44 L766,55 L755,55 L755,44 L766,44 Z M745,45 L745,34 L756,34 L756,45 L745,45 Z M734,44 L745,44 L745,55 L734,55 L734,44 Z M734,45 L723,45 L723,34 L734,34 L734,45 Z M734,66 L723,66 L723,55 L734,55 L734,66 Z M745,66 L745,77 L734,77 L734,66 L745,66 Z M756,66 L745,66 L745,55 L756,55 L756,66 Z M755,66 L766,66 L766,77 L755,77 L755,66 Z M722,55 L722,44 L711,44 L711,55 L722,55 Z M800,89 L789,89 L789,100 L800,100 L800,89 Z M789,66 L800,66 L800,77 L789,77 L789,66 Z M800,44 L789,44 L789,55 L800,55 L800,44 Z M789,23 L800,23 L800,34 L789,34 L789,23 Z M789,0 L800,0 L800,11 L789,11 L789,0 Z" id="Shape-Copy-5" fill="#261EE4"></path>
                <path d="M177.868875,33.1452773 L166.765367,33.1452773 L166.765367,44.268264 L177.868875,44.268264 L177.868875,55.418891 L166.765367,55.418891 L166.765367,66.569518 L177.868875,66.569518 L177.868875,77.6925047 L189,77.6925047 L189,88.8431317 L177.868875,88.8431317 L177.868875,77.7201449 L166.765367,77.7201449 L166.765367,88.8431317 L177.868875,88.8431317 L177.868875,100 L166.737751,100 L166.737751,88.849373 L155.634243,88.849373 L155.634243,77.7263863 L144.503118,77.7263863 L144.503118,88.849373 L133.371993,88.849373 L133.371993,77.7263863 L122.268485,77.7263863 L122.268485,88.849373 L133.371993,88.849373 L133.371993,100 L122.239978,100 L122.239978,88.849373 L111.13736,88.849373 L111.13736,100 L100,100 L100,88.849373 L111.131125,88.849373 L111.131125,77.7263863 L100,77.7263863 L100,66.5748677 L111.131125,66.5748677 L111.131125,55.4242407 L100,55.4242407 L100,44.2736137 L111.131125,44.2736137 L111.131125,33.150627 L111.131125,33.1229867 L122.234633,33.1229867 L122.234633,22 L133.365757,22 L133.365757,33.1229867 L144.496882,33.1229867 L144.496882,22 L155.628897,22 L155.628897,33.1229867 L166.732406,33.1229867 L166.732406,22 L177.86353,22 L177.86353,33.1229867 L188.994655,33.1229867 L188.994655,44.2736137 L177.86353,44.2736137 L177.86353,33.1452773 L177.868875,33.1452773 Z M111,33.9727353 L111,23 L100,23 L100,34 L111,34 L111,33.9727353 Z M145,89 L145,100 L156,100 L156,89 L145,89 Z M178,66 L178,55 L189,55 L189,66 L178,66 Z M122,77 L111,77 L111,66 L122,66 L122,77 Z M122.263586,22 L122.263586,11 L133.367761,11 L133.367761,22 L144.499555,22 L144.499555,11 L155.632239,11 L155.632239,22 L166.764032,22 L166.764032,11 L177.868207,11 L177.868207,22 L189,22 L189,11 L177.868207,11 L177.868207,0 L166.736414,0 L166.736414,11 L155.632239,11 L155.632239,0 L144.499555,0 L144.499555,11 L133.367761,11 L133.367761,0 L122.235968,0 L122.235968,11 L111.131793,11 L111.131793,0 L100,0 L100,11 L111.131793,11 L111.131793,22 L122.263586,22 Z M166,44 L166,55 L155,55 L155,44 L166,44 Z M145,45 L145,34 L156,34 L156,45 L145,45 Z M134,44 L145,44 L145,55 L134,55 L134,44 Z M134,45 L123,45 L123,34 L134,34 L134,45 Z M134,66 L123,66 L123,55 L134,55 L134,66 Z M145,66 L145,77 L134,77 L134,66 L145,66 Z M156,66 L145,66 L145,55 L156,55 L156,66 Z M155,66 L166,66 L166,77 L155,77 L155,66 Z M122,55 L122,44 L111,44 L111,55 L122,55 Z M200,89 L189,89 L189,100 L200,100 L200,89 Z M189,66 L200,66 L200,77 L189,77 L189,66 Z M200,44 L189,44 L189,55 L200,55 L200,44 Z M189,23 L200,23 L200,34 L189,34 L189,23 Z M189,0 L200,0 L200,11 L189,11 L189,0 Z" id="Shape-Copy-8" fill="#261EE4"></path>
                <path d="M789,400 L800,400 L800,300 L789,300 L789,400 Z M777,400 L766,400 L766,300 L777,300 L777,400 Z M756,400 L745,400 L745,300 L756,300 L756,400 Z M723,400 L734,400 L734,300 L723,300 L723,400 Z M711,400 L700,400 L700,300 L711,300 L711,400 Z" id="Shape" fill="#261EE4"></path>
                <path d="M689,300 L700,300 L700,200 L689,200 L689,300 Z M677,300 L666,300 L666,200 L677,200 L677,300 Z M656,300 L645,300 L645,200 L656,200 L656,300 Z M623,300 L634,300 L634,200 L623,200 L623,300 Z M611,300 L600,300 L600,200 L611,200 L611,300 Z" id="Shape-Copy-6" fill="#261EE4"></path>
                <path d="M189,300 L200,300 L200,200 L189,200 L189,300 Z M177,300 L166,300 L166,200 L177,200 L177,300 Z M156,300 L145,300 L145,200 L156,200 L156,300 Z M123,300 L134,300 L134,200 L123,200 L123,300 Z M111,300 L100,300 L100,200 L111,200 L111,300 Z" id="Shape-Copy-9" fill="#261EE4"></path>
                <path d="M600,111 L600,100 L500,100 L500,111 L600,111 Z M600,123 L600,134 L500,134 L500,123 L600,123 Z M600,144 L600,155 L500,155 L500,144 L600,144 Z M600,177 L600,166 L500,166 L500,177 L600,177 Z M600,189 L600,200 L500,200 L500,189 L600,189 Z" id="Shape" fill="#261EE4"></path>
                <path d="M100,111 L100,100 L0,100 L0,111 L100,111 Z M100,123 L100,134 L0,134 L0,123 L100,123 Z M100,144 L100,155 L0,155 L0,144 L100,144 Z M100,177 L100,166 L0,166 L0,177 L100,177 Z M100,189 L100,200 L0,200 L0,189 L100,189 Z" id="Shape-Copy-10" fill="#261EE4"></path>
                <path d="M700,389 L700,400 L600,400 L600,389 L700,389 Z M700,355 L700,344 L600,344 L600,355 L700,355 Z M700,323 L700,334 L600,334 L600,323 L700,323 Z M700,300 L700,311 L600,311 L600,300 L700,300 Z M700,377 L700,366 L600,366 L600,377 L700,377 Z" id="Shape" fill="#261EE4"></path>
                <path d="M788.88879,400 L800,400 C800,455.227556 755.227758,500 700,500 L700,488.888889 C749.094306,488.888889 788.88879,449.094222 788.88879,400 Z M766.857015,400 L778,400 C778,443.078286 743.078356,478 700,478 L700,466.857143 C736.92201,466.857143 766.857015,436.92208 766.857015,400 Z M755,400 L744,400 C744,424.29856 724.298823,444 700,444 L700,455 C730.376171,455 755,430.37672 755,400 Z M722.666667,400 L734,400 C734,418.77888 718.779086,434 700,434 L700,422.666667 C712.517575,422.666667 722.666667,412.51744 722.666667,400 Z M700,400 L711,400 C711,406.07728 706.077348,411 700,411 L700,400 Z" id="Shape" fill="#FFFFFF"></path>
                <path d="M288.88879,200 L300,200 C300,255.227556 255.227758,300 200,300 L200,288.888889 C249.094306,288.888889 288.88879,249.094222 288.88879,200 Z M266.857015,200 L278,200 C278,243.078286 243.078356,278 200,278 L200,266.857143 C236.92201,266.857143 266.857015,236.92208 266.857015,200 Z M255,200 L244,200 C244,224.29856 224.298823,244 200,244 L200,255 C230.376171,255 255,230.37672 255,200 Z M222.666667,200 L234,200 C234,218.77888 218.779086,234 200,234 L200,222.666667 C212.517575,222.666667 222.666667,212.51744 222.666667,200 Z M200,200 L211,200 C211,206.07728 206.077348,211 200,211 L200,200 Z" id="Shape-Copy-11" fill="#FFFFFF"></path>
                <path d="M411.11121,500 L400,500 C400,444.772444 444.772242,400 500,400 L500,411.111111 C450.905694,411.111111 411.11121,450.905778 411.11121,500 Z M433.142985,500 L422,500 C422,456.921714 456.921644,422 500,422 L500,433.142857 C463.07799,433.142857 433.142985,463.07792 433.142985,500 Z M445,500 L456.000176,500 C456.000176,475.70056 475.700788,456 500,456 L500,445 C469.623343,445 445,469.62328 445,500 Z M477.332728,500 L466,500 C466,481.220213 481.220413,466 500,466 L500,477.333333 C487.48209,477.333333 477.332728,487.48256 477.332728,500 Z M500,500 L489,500 C489,493.92272 493.922652,489 500,489 L500,500 Z" id="Shape" fill="#261EE4"></path>
                <path d="M311.11121,100 L300,100 C300,44.7724444 344.772242,0 400,0 L400,11.1111111 C350.905694,11.1111111 311.11121,50.9057778 311.11121,100 Z M333.142985,100 L322,100 C322,56.9217143 356.921644,22 400,22 L400,33.1428571 C363.07799,33.1428571 333.142985,63.07792 333.142985,100 Z M345,100 L356.000176,100 C356.000176,75.70056 375.700788,56 400,56 L400,45 C369.623343,45 345,69.62328 345,100 Z M377.332728,100 L366,100 C366,81.2202133 381.220413,66 400,66 L400,77.3333333 C387.48209,77.3333333 377.332728,87.48256 377.332728,100 Z M400,100 L389,100 C389,93.92272 393.922652,89 400,89 L400,100 Z" id="Shape-Copy-3" fill="#FFFFFF"></path>
                <path d="M611.11121,100 L600,100 C600,44.7724444 644.772242,0 700,0 L700,11.1111111 C650.905694,11.1111111 611.11121,50.9057778 611.11121,100 Z M633.142985,100 L622,100 C622,56.9217143 656.921644,22 700,22 L700,33.1428571 C663.07799,33.1428571 633.142985,63.07792 633.142985,100 Z M645,100 L656.000176,100 C656.000176,75.70056 675.700788,56 700,56 L700,45 C669.623343,45 645,69.62328 645,100 Z M677.332728,100 L666,100 C666,81.2202133 681.220413,66 700,66 L700,77.3333333 C687.48209,77.3333333 677.332728,87.48256 677.332728,100 Z M700,100 L689,100 C689,93.92272 693.922652,89 700,89 L700,100 Z" id="Shape-Copy-7" fill="#FFFFFF" transform="translate(650.000000, 50.000000) rotate(-90.000000) translate(-650.000000, -50.000000) "></path>
                <path d="M411.11121,100 L400,100 C400,44.7724444 444.772242,0 500,0 L500,11.1111111 C450.905694,11.1111111 411.11121,50.9057778 411.11121,100 Z M433.142985,100 L422,100 C422,56.9217143 456.921644,22 500,22 L500,33.1428571 C463.07799,33.1428571 433.142985,63.07792 433.142985,100 Z M445,100 L456.000176,100 C456.000176,75.70056 475.700788,56 500,56 L500,45 C469.623343,45 445,69.62328 445,100 Z M477.332728,100 L466,100 C466,81.2202133 481.220413,66 500,66 L500,77.3333333 C487.48209,77.3333333 477.332728,87.48256 477.332728,100 Z M500,100 L489,100 C489,93.92272 493.922652,89 500,89 L500,100 Z" id="Shape-Copy-4" fill="#261EE4" transform="translate(450.000000, 50.000000) rotate(-180.000000) translate(-450.000000, -50.000000) "></path>
                <path d="M611.11121,700 L600,700 C600,644.772444 644.772242,600 700,600 L700,611.111111 C650.905694,611.111111 611.11121,650.905778 611.11121,700 Z M633.142985,700 L622,700 C622,656.921714 656.921644,622 700,622 L700,633.142857 C663.07799,633.142857 633.142985,663.07792 633.142985,700 Z M645,700 L656.000176,700 C656.000176,675.70056 675.700788,656 700,656 L700,645 C669.623343,645 645,669.62328 645,700 Z M677.332728,700 L666,700 C666,681.220213 681.220413,666 700,666 L700,677.333333 C687.48209,677.333333 677.332728,687.48256 677.332728,700 Z M700,700 L689,700 C689,693.92272 693.922652,689 700,689 L700,700 Z" id="Shape-Copy-2" fill="#FFFFFF" transform="translate(650.000000, 650.000000) scale(-1, 1) translate(-650.000000, -650.000000) "></path>
                <path d="M500,600 L600,600 L600,500 C544.772242,500 500,544.772444 500,600 Z" id="Path" fill="#261EE4" fill-rule="nonzero"></path>
                <path d="M700,700 L800,700 L800,600 C744.772242,600 700,644.772444 700,700 Z" id="Path" fill="#261EE4" fill-rule="nonzero"></path>
                <path d="M800,792.167111 L800,800 L792.16637,800 L700,707.833778 L700,700 L707.83274,700 L800,792.167111 Z M700,724 L700,739.631256 L760.369773,800 L776,800 L700,724 Z M700,770.721778 L700,755 L745,800 L729.27758,800 L700,770.721778 Z M700,800 L714,800 L700,786 L700,800 Z M724,700 L739.63093,700 L800,760.368744 L800,776 L724,700 Z M770.72242,700 L755,700 L800,745 L800,729.278222 L770.72242,700 Z M800,714 L786,700 L800,700 L800,714 Z" id="Shape" fill="#261EE4"></path>
                <path d="M800,192.167111 L800,200 L792.16637,200 L700,107.833778 L700,100 L707.83274,100 L800,192.167111 Z M700,124 L700,139.631256 L760.369773,200 L776,200 L700,124 Z M700,170.721778 L700,155 L745,200 L729.27758,200 L700,170.721778 Z M700,200 L714,200 L700,186 L700,200 Z M724,100 L739.63093,100 L800,160.368744 L800,176 L724,100 Z M770.72242,100 L755,100 L800,145 L800,129.278222 L770.72242,100 Z M800,114 L786,100 L800,100 L800,114 Z" id="Shape-Copy" fill="#261EE4" transform="translate(750.000000, 150.000000) rotate(-270.000000) translate(-750.000000, -150.000000) "></path>
                <path d="M300,192.167111 L300,200 L292.16637,200 L200,107.833778 L200,100 L207.83274,100 L300,192.167111 Z M200,124 L200,139.631256 L260.369773,200 L276,200 L200,124 Z M200,170.721778 L200,155 L245,200 L229.27758,200 L200,170.721778 Z M200,200 L214,200 L200,186 L200,200 Z M224,100 L239.63093,100 L300,160.368744 L300,176 L224,100 Z M270.72242,100 L255,100 L300,145 L300,129.278222 L270.72242,100 Z M300,114 L286,100 L300,100 L300,114 Z" id="Shape-Copy-12" fill="#261EE4" transform="translate(250.000000, 150.000000) rotate(-270.000000) translate(-250.000000, -150.000000) "></path>
            </g>
        </g>
        <text id="Acropolis-Network-An" font-family="PxGrotesk-Bold, Px Grotesk" font-size="120" font-weight="bold" line-spacing="80.666667" fill="#FFFFFF">
            <tspan x="120" y="507">Acropolis</tspan>
            <tspan x="654.726562" y="544.360677" font-family="PxGroteskRegular, Px Grotesk" font-size="96" font-weight="normal"></tspan>
            <tspan x="125.859375" y="625.027344" font-family="PxGroteskRegular, Px Grotesk" font-size="60" font-weight="normal">Network Announced</tspan>
        </text>
    </g>
</svg>