<?xml version="1.0" encoding="UTF-8"?>
<svg width="1310px" height="800px" viewBox="0 0 1310 800" version="1.1" xmlns="http://www.w3.org/2000/svg" xmlns:xlink="http://www.w3.org/1999/xlink">
    <!-- Generator: Sketch 58 (84663) - https://sketch.com -->
    <title>Blog1 Copy 7</title>
    <desc>Created with Sketch.</desc>
    <g id="Blog1-Copy-7" stroke="none" stroke-width="1" fill="none" fill-rule="evenodd">
        <rect fill="#000000" x="0" y="0" width="1310" height="800"></rect>
        <g id="Group" transform="translate(655.500000, 397.000000) rotate(-90.000000) translate(-655.500000, -397.000000) translate(503.500000, 77.500000)" fill="#4038FF">
            <path d="M34.0872642,269.023585 L34.0872642,302.5 L0.5,302.5 L0.5,269.023585 L34.0872642,269.023585 Z M101.261792,269.023585 L101.261792,302.5 L67.6745283,302.5 L67.6745283,269.023585 L101.261792,269.023585 Z M169.150943,269.023585 L169.150943,302.5 L135.563679,302.5 L135.563679,269.023585 L169.150943,269.023585 Z M236.325472,269.023585 L236.325472,302.5 L202.738208,302.5 L202.738208,269.023585 L236.325472,269.023585 Z M303.5,269.023585 L303.5,302.5 L269.912736,302.5 L269.912736,269.023585 L303.5,269.023585 Z M67.6745283,235.54717 L67.6745283,269.023585 L34.0872642,269.023585 L34.0872642,235.54717 L67.6745283,235.54717 Z M134.849057,235.54717 L134.849057,269.023585 L101.261792,269.023585 L101.261792,235.54717 L134.849057,235.54717 Z M202.738208,235.54717 L202.738208,269.023585 L169.150943,269.023585 L169.150943,235.54717 L202.738208,235.54717 Z M269.912736,235.54717 L269.912736,269.023585 L236.325472,269.023585 L236.325472,235.54717 L269.912736,235.54717 Z M34.0872642,202.070755 L34.0872642,235.54717 L0.5,235.54717 L0.5,202.070755 L34.0872642,202.070755 Z M101.261792,202.070755 L101.261792,235.54717 L67.6745283,235.54717 L67.6745283,202.070755 L101.261792,202.070755 Z M169.150943,202.070755 L169.150943,235.54717 L135.563679,235.54717 L135.563679,202.070755 L169.150943,202.070755 Z M236.325472,202.070755 L236.325472,235.54717 L202.738208,235.54717 L202.738208,202.070755 L236.325472,202.070755 Z M303.5,202.070755 L303.5,235.54717 L269.912736,235.54717 L269.912736,202.070755 L303.5,202.070755 Z M67.6745283,168.59434 L67.6745283,202.070755 L34.0872642,202.070755 L34.0872642,168.59434 L67.6745283,168.59434 Z M134.849057,168.59434 L134.849057,202.070755 L101.261792,202.070755 L101.261792,168.59434 L134.849057,168.59434 Z M202.738208,168.59434 L202.738208,202.070755 L169.150943,202.070755 L169.150943,168.59434 L202.738208,168.59434 Z M269.912736,168.59434 L269.912736,202.070755 L236.325472,202.070755 L236.325472,168.59434 L269.912736,168.59434 Z M169.150943,134.40566 L169.150943,167.882075 L135.563679,167.882075 L135.563679,134.40566 L169.150943,134.40566 Z M236.325472,134.40566 L236.325472,167.882075 L202.738208,167.882075 L202.738208,134.40566 L236.325472,134.40566 Z M303.5,134.40566 L303.5,167.882075 L269.912736,167.882075 L269.912736,134.40566 L303.5,134.40566 Z M34.0872642,134.40566 L34.0872642,167.882075 L0.5,167.882075 L0.5,134.40566 L34.0872642,134.40566 Z M101.261792,134.40566 L101.261792,167.882075 L67.6745283,167.882075 L67.6745283,134.40566 L101.261792,134.40566 Z M67.6745283,100.929245 L67.6745283,134.40566 L34.0872642,134.40566 L34.0872642,100.929245 L67.6745283,100.929245 Z M134.849057,100.929245 L134.849057,134.40566 L101.261792,134.40566 L101.261792,100.929245 L134.849057,100.929245 Z M202.738208,100.929245 L202.738208,134.40566 L169.150943,134.40566 L169.150943,100.929245 L202.738208,100.929245 Z M269.912736,100.929245 L269.912736,134.40566 L236.325472,134.40566 L236.325472,100.929245 L269.912736,100.929245 Z M34.0872642,67.4528302 L34.0872642,100.929245 L0.5,100.929245 L0.5,67.4528302 L34.0872642,67.4528302 Z M101.261792,67.4528302 L101.261792,100.929245 L67.6745283,100.929245 L67.6745283,67.4528302 L101.261792,67.4528302 Z M169.150943,67.4528302 L169.150943,100.929245 L135.563679,100.929245 L135.563679,67.4528302 L169.150943,67.4528302 Z M236.325472,67.4528302 L236.325472,100.929245 L202.738208,100.929245 L202.738208,67.4528302 L236.325472,67.4528302 Z M303.5,67.4528302 L303.5,100.929245 L269.912736,100.929245 L269.912736,67.4528302 L303.5,67.4528302 Z M67.6745283,33.9764151 L67.6745283,67.4528302 L34.0872642,67.4528302 L34.0872642,33.9764151 L67.6745283,33.9764151 Z M134.849057,33.9764151 L134.849057,67.4528302 L101.261792,67.4528302 L101.261792,33.9764151 L134.849057,33.9764151 Z M202.738208,33.9764151 L202.738208,67.4528302 L169.150943,67.4528302 L169.150943,33.9764151 L202.738208,33.9764151 Z M269.912736,33.9764151 L269.912736,67.4528302 L236.325472,67.4528302 L236.325472,33.9764151 L269.912736,33.9764151 Z M34.0872642,0.5 L34.0872642,33.9764151 L0.5,33.9764151 L0.5,0.5 L34.0872642,0.5 Z M101.261792,0.5 L101.261792,33.9764151 L67.6745283,33.9764151 L67.6745283,0.5 L101.261792,0.5 Z M169.150943,0.5 L169.150943,33.9764151 L135.563679,33.9764151 L135.563679,0.5 L169.150943,0.5 Z M236.325472,0.5 L236.325472,33.9764151 L202.738208,33.9764151 L202.738208,0.5 L236.325472,0.5 Z M303.5,0.5 L303.5,33.9764151 L269.912736,33.9764151 L269.912736,0.5 L303.5,0.5 Z" id="Shape-Copy-5"></path>
            <path d="M34.0872642,537.023585 L34.0872642,570.5 L0.5,570.5 L0.5,537.023585 L34.0872642,537.023585 Z M101.261792,537.023585 L101.261792,570.5 L67.6745283,570.5 L67.6745283,537.023585 L101.261792,537.023585 Z M169.150943,537.023585 L169.150943,570.5 L135.563679,570.5 L135.563679,537.023585 L169.150943,537.023585 Z M236.325472,537.023585 L236.325472,570.5 L202.738208,570.5 L202.738208,537.023585 L236.325472,537.023585 Z M303.5,537.023585 L303.5,570.5 L269.912736,570.5 L269.912736,537.023585 L303.5,537.023585 Z M67.6745283,503.54717 L67.6745283,537.023585 L34.0872642,537.023585 L34.0872642,503.54717 L67.6745283,503.54717 Z M134.849057,503.54717 L134.849057,537.023585 L101.261792,537.023585 L101.261792,503.54717 L134.849057,503.54717 Z M202.738208,503.54717 L202.738208,537.023585 L169.150943,537.023585 L169.150943,503.54717 L202.738208,503.54717 Z M269.912736,503.54717 L269.912736,537.023585 L236.325472,537.023585 L236.325472,503.54717 L269.912736,503.54717 Z M34.0872642,470.070755 L34.0872642,503.54717 L0.5,503.54717 L0.5,470.070755 L34.0872642,470.070755 Z M101.261792,470.070755 L101.261792,503.54717 L67.6745283,503.54717 L67.6745283,470.070755 L101.261792,470.070755 Z M169.150943,470.070755 L169.150943,503.54717 L135.563679,503.54717 L135.563679,470.070755 L169.150943,470.070755 Z M236.325472,470.070755 L236.325472,503.54717 L202.738208,503.54717 L202.738208,470.070755 L236.325472,470.070755 Z M303.5,470.070755 L303.5,503.54717 L269.912736,503.54717 L269.912736,470.070755 L303.5,470.070755 Z M67.6745283,436.59434 L67.6745283,470.070755 L34.0872642,470.070755 L34.0872642,436.59434 L67.6745283,436.59434 Z M134.849057,436.59434 L134.849057,470.070755 L101.261792,470.070755 L101.261792,436.59434 L134.849057,436.59434 Z M202.738208,436.59434 L202.738208,470.070755 L169.150943,470.070755 L169.150943,436.59434 L202.738208,436.59434 Z M269.912736,436.59434 L269.912736,470.070755 L236.325472,470.070755 L236.325472,436.59434 L269.912736,436.59434 Z M169.150943,402.40566 L169.150943,435.882075 L135.563679,435.882075 L135.563679,402.40566 L169.150943,402.40566 Z M236.325472,402.40566 L236.325472,435.882075 L202.738208,435.882075 L202.738208,402.40566 L236.325472,402.40566 Z M303.5,402.40566 L303.5,435.882075 L269.912736,435.882075 L269.912736,402.40566 L303.5,402.40566 Z M34.0872642,402.40566 L34.0872642,435.882075 L0.5,435.882075 L0.5,402.40566 L34.0872642,402.40566 Z M101.261792,402.40566 L101.261792,435.882075 L67.6745283,435.882075 L67.6745283,402.40566 L101.261792,402.40566 Z M67.6745283,368.929245 L67.6745283,402.40566 L34.0872642,402.40566 L34.0872642,368.929245 L67.6745283,368.929245 Z M134.849057,368.929245 L134.849057,402.40566 L101.261792,402.40566 L101.261792,368.929245 L134.849057,368.929245 Z M202.738208,368.929245 L202.738208,402.40566 L169.150943,402.40566 L169.150943,368.929245 L202.738208,368.929245 Z M269.912736,368.929245 L269.912736,402.40566 L236.325472,402.40566 L236.325472,368.929245 L269.912736,368.929245 Z M34.0872642,335.45283 L34.0872642,368.929245 L0.5,368.929245 L0.5,335.45283 L34.0872642,335.45283 Z M101.261792,335.45283 L101.261792,368.929245 L67.6745283,368.929245 L67.6745283,335.45283 L101.261792,335.45283 Z M169.150943,335.45283 L169.150943,368.929245 L135.563679,368.929245 L135.563679,335.45283 L169.150943,335.45283 Z M236.325472,335.45283 L236.325472,368.929245 L202.738208,368.929245 L202.738208,335.45283 L236.325472,335.45283 Z M303.5,335.45283 L303.5,368.929245 L269.912736,368.929245 L269.912736,335.45283 L303.5,335.45283 Z M67.6745283,301.976415 L67.6745283,335.45283 L34.0872642,335.45283 L34.0872642,301.976415 L67.6745283,301.976415 Z M134.849057,301.976415 L134.849057,335.45283 L101.261792,335.45283 L101.261792,301.976415 L134.849057,301.976415 Z M202.738208,301.976415 L202.738208,335.45283 L169.150943,335.45283 L169.150943,301.976415 L202.738208,301.976415 Z M269.912736,301.976415 L269.912736,335.45283 L236.325472,335.45283 L236.325472,301.976415 L269.912736,301.976415 Z M34.0872642,268.5 L34.0872642,301.976415 L0.5,301.976415 L0.5,268.5 L34.0872642,268.5 Z M101.261792,268.5 L101.261792,301.976415 L67.6745283,301.976415 L67.6745283,268.5 L101.261792,268.5 Z M169.150943,268.5 L169.150943,301.976415 L135.563679,301.976415 L135.563679,268.5 L169.150943,268.5 Z M236.325472,268.5 L236.325472,301.976415 L202.738208,301.976415 L202.738208,268.5 L236.325472,268.5 Z M303.5,268.5 L303.5,301.976415 L269.912736,301.976415 L269.912736,268.5 L303.5,268.5 Z" id="Shape-Copy-6"></path>
            <path d="M34.0872642,604.887879 L34.0872642,638.5 L0.5,638.5 L0.5,604.887879 L34.0872642,604.887879 Z M101.261792,604.887879 L101.261792,638.5 L67.6745283,638.5 L67.6745283,604.887879 L101.261792,604.887879 Z M169.150943,604.887879 L169.150943,638.5 L135.563679,638.5 L135.563679,604.887879 L169.150943,604.887879 Z M236.325472,604.887879 L236.325472,638.5 L202.738208,638.5 L202.738208,604.887879 L236.325472,604.887879 Z M303.5,604.887879 L303.5,638.5 L269.912736,638.5 L269.912736,604.887879 L303.5,604.887879 Z M67.6745283,571.275758 L67.6745283,604.887879 L34.0872642,604.887879 L34.0872642,571.275758 L67.6745283,571.275758 Z M134.849057,571.275758 L134.849057,604.887879 L101.261792,604.887879 L101.261792,571.275758 L134.849057,571.275758 Z M202.738208,571.275758 L202.738208,604.887879 L169.150943,604.887879 L169.150943,571.275758 L202.738208,571.275758 Z M269.912736,571.275758 L269.912736,604.887879 L236.325472,604.887879 L236.325472,571.275758 L269.912736,571.275758 Z M169.150943,536.948485 L169.150943,570.560606 L135.563679,570.560606 L135.563679,536.948485 L169.150943,536.948485 Z M236.325472,536.948485 L236.325472,570.560606 L202.738208,570.560606 L202.738208,536.948485 L236.325472,536.948485 Z M303.5,536.948485 L303.5,570.560606 L269.912736,570.560606 L269.912736,536.948485 L303.5,536.948485 Z M34.0872642,536.948485 L34.0872642,570.560606 L0.5,570.560606 L0.5,536.948485 L34.0872642,536.948485 Z M101.261792,536.948485 L101.261792,570.560606 L67.6745283,570.560606 L67.6745283,536.948485 L101.261792,536.948485 Z M67.6745283,503.336364 L67.6745283,536.948485 L34.0872642,536.948485 L34.0872642,503.336364 L67.6745283,503.336364 Z M134.849057,503.336364 L134.849057,536.948485 L101.261792,536.948485 L101.261792,503.336364 L134.849057,503.336364 Z M202.738208,503.336364 L202.738208,536.948485 L169.150943,536.948485 L169.150943,503.336364 L202.738208,503.336364 Z M269.912736,503.336364 L269.912736,536.948485 L236.325472,536.948485 L236.325472,503.336364 L269.912736,503.336364 Z M34.0872642,469.724242 L34.0872642,503.336364 L0.5,503.336364 L0.5,469.724242 L34.0872642,469.724242 Z M101.261792,469.724242 L101.261792,503.336364 L67.6745283,503.336364 L67.6745283,469.724242 L101.261792,469.724242 Z M169.150943,469.724242 L169.150943,503.336364 L135.563679,503.336364 L135.563679,469.724242 L169.150943,469.724242 Z M236.325472,469.724242 L236.325472,503.336364 L202.738208,503.336364 L202.738208,469.724242 L236.325472,469.724242 Z M303.5,469.724242 L303.5,503.336364 L269.912736,503.336364 L269.912736,469.724242 L303.5,469.724242 Z M67.6745283,436.112121 L67.6745283,469.724242 L34.0872642,469.724242 L34.0872642,436.112121 L67.6745283,436.112121 Z M134.849057,436.112121 L134.849057,469.724242 L101.261792,469.724242 L101.261792,436.112121 L134.849057,436.112121 Z M202.738208,436.112121 L202.738208,469.724242 L169.150943,469.724242 L169.150943,436.112121 L202.738208,436.112121 Z M269.912736,436.112121 L269.912736,469.724242 L236.325472,469.724242 L236.325472,436.112121 L269.912736,436.112121 Z M34.0872642,402.5 L34.0872642,436.112121 L0.5,436.112121 L0.5,402.5 L34.0872642,402.5 Z M101.261792,402.5 L101.261792,436.112121 L67.6745283,436.112121 L67.6745283,402.5 L101.261792,402.5 Z M169.150943,402.5 L169.150943,436.112121 L135.563679,436.112121 L135.563679,402.5 L169.150943,402.5 Z M236.325472,402.5 L236.325472,436.112121 L202.738208,436.112121 L202.738208,402.5 L236.325472,402.5 Z M303.5,402.5 L303.5,436.112121 L269.912736,436.112121 L269.912736,402.5 L303.5,402.5 Z" id="Shape-Copy-7"></path>
        </g>
        <g id="Group" transform="translate(433.000000, 155.000000)" fill-rule="nonzero">
            <path d="M436,14.8506158 L293.950014,14.8506158 C252.5372,14.8506158 212.330371,29.0975513 180.125075,55.2505378 L111.291871,110.745201 L98.8276942,70.9504672 C98.8276942,70.9504672 99.3101881,8.95806891 97.4204451,6.33469305 C96.978184,5.68893807 25.0085198,-9.56701594 25.0085198,9.7249017 C25.0085198,10.5724061 27.5012552,35.6761589 27.5817209,37.0079946 C22.837347,37.0079946 19.0177282,40.8421586 19.0177282,45.6045991 L18.0929732,81.5246825 C18.0929732,81.5246825 18.0929732,81.4843969 18.0527403,81.4843969 C17.2485837,95.1259433 17.650712,116.758906 17.650712,117.445067 C17.6908448,120.956243 18.2538045,124.265489 20.7465398,126.969948 C22.9177126,129.310732 20.4248772,147.108727 21.6311621,147.956634 C22.5156844,148.562425 26.0940061,148.68298 26.0538733,149.571071 C25.9331748,151.629555 30.6775486,185.975788 30.6775486,185.975788 L26.2548374,280.134576 C25.4105481,297.852201 27.9837491,315.57083 33.7332437,332.360179 C39.7240352,349.755318 42.2571035,368.199289 41.1312843,386.603075 C40.8900873,390.518112 40.6487903,394.311588 40.4075934,397.580649 C39.8447338,404.966676 36.5075089,411.908658 31.0394441,416.873531 L9.44853486,436.528079 C3.45776331,442.017368 0,449.766066 0,457.87844 C0,457.918625 0,457.95881 0,458 C8.28255282,457.95881 417.584964,457.95881 434.834048,457.95881 C434.834048,457.95881 434.391687,456.586488 433.58703,454.205519 C412.679959,391.648319 401.381734,326.266103 400.095684,260.318283 C400.095684,234.568654 388.877524,212.168457 371.588407,196.831801 C360.53238,187.064805 361.296003,169.54911 373.03659,160.58883 C400.538045,139.682515 435.959967,99.8479978 435.959967,33.4563321 L435.959967,14.8506158 L436,14.8506158 Z M389.39995,364.808669 C389.481017,364.849858 389.521049,364.890043 389.601115,364.970414 C389.561082,365.010599 389.521049,365.010599 389.481017,365.050784 C389.440984,365.010599 389.359918,365.010599 389.359918,364.970414 C389.359918,364.890043 389.39995,364.849858 389.39995,364.808669 Z M364.873925,253.578231 C365.919779,252.932255 379.58994,279.69053 379.629973,283.443822 C379.711039,288.085204 382.645435,364.244067 381.760713,368.279659 C380.635794,366.907337 369.658832,340.795038 366.563304,333.610941 C365.638549,331.472087 363.789039,254.264392 364.873925,253.578231 Z M116.800369,415.299278 C116.358008,419.658361 103.089174,435.841918 100.234843,436.245779 C97.9833047,436.568264 78.5635482,416.550041 78.8852109,411.182311 C79.4883033,408.559227 95.9328305,372.720117 98.9885255,375.101086 C99.4710195,375.545131 117.161664,411.504797 116.800369,415.299278 Z M239.068202,399.154901 C235.972675,408.195551 211.405616,444.720823 209.677204,444.720823 C197.334126,444.680638 189.051363,444.680638 176.707284,444.762013 C174.898807,444.762013 151.658832,397.863954 150.372781,389.993696 C150.251683,389.185975 147.477417,352.782263 149.970453,351.00608 C154.75536,347.575275 233.318508,341.198899 235.369182,341.360644 C237.379824,341.521384 240.113056,396.127956 239.068202,399.154901 Z M357.718082,396.087771 C358.722902,399.195086 362.38189,421.555099 360.974741,425.752436 C359.808789,429.263612 331.462644,444.680638 331.26148,444.680638 C319.079533,444.680638 306.896585,444.680638 294.713638,444.680638 C293.105325,444.680638 277.384488,413.20061 277.504891,412.474263 C278.309243,407.63095 297.770133,360.369216 299.257348,359.360569 C302.675138,357.019785 356.149801,391.325833 357.718082,396.087771 Z" id="Shape" fill="#000000"></path>
            <path d="M459.48,437.508889 L459.52,437.508889 C459.52,437.508889 459.52,437.468889 459.48,437.508889 Z" id="Path" fill="#4B4B4B"></path>
            <path d="M58.4799,218.54 C58.4799,218.54 58.4799,218.5 58.5201,218.5 L58.5201,218.46 C58.5201,218.5 58.4799,218.54 58.4799,218.54 Z" id="Path" fill="#787878"></path>
            <path d="M58.4799,217.52 C58.4799,217.52 58.5201,217.52 58.4799,217.52 C58.5201,217.48 58.5201,217.48 58.5201,217.48 L58.4799,217.52 Z" id="Path" fill="#787878"></path>
            <path d="M464.7066,423.6205 C464.5856,423.6605 464.4646,423.6605 464.3446,423.6605 C464.3446,423.6605 464.2646,423.4195 464.3046,423.4195 C464.4246,423.3795 464.5456,423.3395 464.6656,423.3395 C464.7066,423.4195 464.7066,423.5405 464.7066,423.6205 Z" id="Path" fill="#4B4B4B"></path>
            <path d="M429.4195,411.509111 C429.4595,411.509111 429.5395,411.509111 429.5805,411.509111 C429.5395,411.509111 429.4995,411.509111 429.4195,411.509111 C429.4595,411.468111 429.4195,411.509111 429.4195,411.509111 Z" id="Path" fill="#A0A0A0"></path>
            <path d="M422.6005,415.5605 C422.5195,415.5205 422.4395,415.4795 422.3995,415.4395 C422.4395,415.4395 422.4795,415.4395 422.5195,415.4795 C422.5595,415.4795 422.5595,415.5605 422.6005,415.5605 Z" id="Path" fill="#A0A0A0"></path>
            <path d="M429.3995,416.721 C429.3595,416.561 429.2785,416.4 429.2385,416.279 C429.3995,416.32 429.6005,416.32 429.7615,416.36 C429.6405,416.48 429.5205,416.601 429.3995,416.721 Z" id="Path" fill="#A0A0A0"></path>
            <path d="M426.4795,459.5205 L426.5205,459.4795 L426.4795,459.5205 Z" id="Path" fill="#4B4B4B"></path>
            <path d="M422.490889,415.508889 C422.490889,415.508889 422.531889,415.468889 422.490889,415.508889 C422.531889,415.468889 422.490889,415.508889 422.490889,415.508889 Z" id="Path" fill="#A0A0A0"></path>
            <path d="M430.5805,418.511111 C430.5405,418.511111 430.4605,418.511111 430.4195,418.471111 C430.4605,418.511111 430.5405,418.511111 430.5805,418.511111 C430.5805,418.551111 430.5805,418.511111 430.5805,418.511111 Z" id="Path" fill="#787878"></path>
            <path d="M429.4595,422.5805 C429.4195,422.5405 429.4195,422.5005 429.3795,422.4605 C429.4595,422.4605 429.5405,422.4195 429.6205,422.4195 C429.5805,422.4605 429.5005,422.5405 429.4595,422.5805 Z" id="Path" fill="#787878"></path>
            <path d="M46.2817896,121.55793 C42.1728538,114.446893 35.5830601,109.337934 27.8302708,107.539319 C26.8224314,107.294146 26.2409818,107.172068 26.2409818,107.172068 C25.388202,106.681722 24.3803626,107.294146 24.3415736,108.316549 L20,115.386893 C21.2792662,115.958624 33.9937711,118.206892 28.0629086,124.746197 L28.0629086,124.78689 C28.0629086,124.827583 28.0629086,124.868275 28.0241195,124.908968 L28.0241195,124.949661 C28.0241195,124.99137 28.0241195,125.032063 28.0241195,125.072756 L28.0241195,125.113448 C28.0241195,125.154141 28.0241195,125.194834 28.0241195,125.236544 L28.0241195,125.277236 C28.0241195,125.317929 28.0241195,125.317929 28.0629086,125.358621 C28.0629086,125.358621 28.0629086,125.399314 28.1016011,125.399314 C28.1016011,125.441024 28.1403901,125.441024 28.1403901,125.481717 L28.1791792,125.522409 L28.2179682,125.563102 C28.2179682,125.563102 28.2566607,125.563102 28.2566607,125.603795 C28.2954498,125.603795 28.2954498,125.644487 28.3342388,125.644487 C28.3730278,125.644487 28.3730278,125.644487 28.4117204,125.686197 C28.4505094,125.686197 28.4505094,125.686197 28.4892985,125.72689 C28.5280875,125.72689 28.56678,125.72689 28.6055691,125.72689 C28.6443581,125.72689 28.6831471,125.72689 28.7218397,125.72689 C28.7606287,125.72689 28.7994177,125.72689 28.8381103,125.72689 C28.8768993,125.72689 28.9156884,125.72689 28.9544774,125.72689 C28.9931699,125.72689 29.070748,125.72689 29.1482296,125.686197 C29.1870186,125.686197 29.2258076,125.686197 29.2258076,125.686197 C29.3420783,125.686197 29.4196563,125.644487 29.5359269,125.603795 C29.6521975,125.563102 29.7684682,125.563102 29.8460462,125.563102 C29.8847388,125.563102 29.9623168,125.563102 30.0011059,125.563102 C30.2724361,125.563102 30.5825554,125.603795 30.8538857,125.644487 C30.9313672,125.644487 31.0477343,125.686197 31.1252159,125.686197 C31.5516058,125.767582 31.9392067,125.93137 32.0555738,126.421716 C32.1718444,126.952755 31.7454545,127.279314 31.4353352,127.606889 C31.3965462,127.647582 31.3577571,127.688274 31.2802756,127.728967 C31.2414865,127.76966 31.164005,127.81137 31.1252159,127.852062 C28.2954498,130.548966 27.8302708,130.99862 28.6443581,133.614138 C28.7218397,133.818619 29.070748,134.922406 29.2258076,135.331367 C29.7684682,136.924484 28.4117204,139.908271 28.3730278,139.989656 C28.2179682,140.276539 37.7537986,148 37.7537986,148 C37.8312802,148 38.0639179,148 38.102707,148 C38.1413995,148 38.2189776,148 38.2577666,148 C38.2964591,148 38.2964591,148 38.3352482,147.959307 C38.3740372,147.959307 38.4128263,147.918615 38.4515188,147.918615 C38.4903078,147.918615 38.4903078,147.877922 38.5290969,147.877922 C38.5678859,147.877922 38.6065784,147.837229 38.6453675,147.837229 C38.6841565,147.837229 38.8004271,147.754827 38.8392162,147.714134 C38.8779087,147.673442 38.8779087,147.673442 38.9166977,147.632749 C38.9166977,147.632749 40.854895,146.283788 43.8397208,144.199308 C50.3907255,139.540003 51.9413219,130.141023 47.4059962,123.314834 C47.0182988,122.783795 46.630698,122.171371 46.2817896,121.55793 Z" id="Path" fill="#C4C3C6"></path>
            <path d="M239.511228,422.4395 C239.552228,422.4795 239.592228,422.5205 239.552228,422.5605 L239.431228,422.5605 C239.471228,422.5205 239.511228,422.4795 239.511228,422.4395 Z" id="Path" fill="#A0A0A0"></path>
            <path d="M339.886951,33 C261.506352,33 190.361594,64.3334247 138.187904,115.260014 C121.949285,131.130078 100.243866,140.076324 77.6140555,140.076324 C77.6140555,141.169664 77.6943982,142.221689 77.7748409,143.274722 C80.1865208,171.04557 76.8503502,198.938348 67.404437,225.13015 C56.1498639,256.301942 50,289.942567 50,325 L65.8369051,325 C104.222878,325 138.509074,300.872949 151.734093,264.600245 C171.790738,209.584562 223.843363,172.988391 282.046253,172.988391 L282.166317,172.988391 C358.85902,172.988391 421,110.361647 421,33.1619353 L421,33 L339.886951,33 Z" id="Path" fill="#C4C3C6"></path>
            <path d="M365.85491,375.845807 C365.85491,375.845807 368.232199,412.009752 368.232199,413.858158 C368.232199,426.555948 355.699777,438.168499 346.673103,445 L391,445 C388.219475,431.015928 380.241015,396.419327 376.291908,379.261557 C374.760212,372.67111 372.181306,366.362724 368.675558,360.576452 L366.943247,357.723826 C358.803292,344.302877 355.901395,328.390381 358.762166,313 L315,339.600844 L365.85491,375.845807 Z" id="Path" fill="#C4C3C6"></path>
            <path d="M378,444 C376.656041,433.484923 373.77135,413.923242 373.336482,414 C372.901614,414.077211 364.324282,438.703488 358,444 L378,444 Z" id="Path" fill="#FFFFFF"></path>
            <path d="M266.170064,445 C266.899357,443.297052 264.629771,433.7668 264.832521,432.550408 C265.035271,431.333007 272.775063,409.921485 276.421531,399.822911 C277.597681,396.619915 276.949083,393.050486 274.760194,390.414803 C270.384432,385.183814 262.076739,386.116549 258.956815,392.159139 C251.824264,406.028023 241.166288,426.426053 239.627005,428.048245 C239.504952,428.170389 239.383907,428.251145 239.261854,428.331901 C239.261854,428.331901 225.807749,438.55161 219,444.959622 L266.170064,444.959622 L266.170064,445 Z" id="Path" fill="#C4C3C6"></path>
            <path d="M239.658558,428.031318 C239.537322,428.153876 239.415076,428.234906 239.293841,428.316949 C239.293841,428.316949 225.818496,438.570274 219,445 L254.55438,445 C258.004545,436.984113 240.308179,427.381053 239.658558,428.031318 Z" id="Path" fill="#FFFFFF"></path>
            <path d="M123.409709,399.167907 C123.613231,402.228526 126.09498,417.694026 124.833348,422.204253 C123.776251,426.030779 112.83367,437.428151 106,445 L147.491081,445 C147.979128,438.676258 147.368563,430.582109 148.548179,429.977604 C149.606289,429.454301 154.040226,427.681889 154,426.27238 C153.959222,425.104473 142.406077,409.115671 141.633505,404.28264 C141.104956,401.060619 131.505011,351 131.505011,351 L131.422995,351.121302 C120.237404,363.807883 116.983082,381.527995 122.840658,397.355395 C123.165686,398.321801 123.409709,399.006506 123.409709,399.167907 Z" id="Path" fill="#C4C3C6"></path>
            <path d="M125.519748,422.820371 C124.480252,426.543474 113.719881,437.632801 107,445 L143,445 C137.680053,432.225181 126.720544,418.471061 125.519748,422.820371 Z" id="Path" fill="#FFFFFF"></path>
            <path d="M11,445 L49.1589013,445 C50.4885878,441.245858 51.898916,437.531911 52.2616033,437.612299 C55.2030218,438.540786 59.071319,433.252229 57.7819535,432.849282 C57.0565788,432.607112 67.4123255,395.790194 74.6653704,370.116125 C78.9767961,354.856382 90.4205046,342.664465 105.329602,337.376913 L106.094897,337.094548 C123.945413,330.755917 138.33054,317.232566 145.784888,299.753096 L145.825009,299.671703 C145.825009,299.671703 290.966145,299.228562 290.482696,299.671703 C289.192829,300.883559 258.287173,349.689413 258.287173,349.689413 C276.259053,349.729607 293.504756,342.422295 305.956086,329.464677 C318.608016,316.304079 334.645096,299.833485 345.081384,289.741717 C353.180666,281.909869 357.774438,271.171979 357.774438,259.868354 C357.774438,252.480653 356.082365,245.174345 352.858701,238.513155 L343.71228,219.661053 L349.836641,221.07388 C360.474533,223.496588 370.024163,229.430262 376.874701,237.908232 C383.925841,246.627367 387.794439,257.486845 387.794439,268.709077 L387.794439,276.702706 L387.632955,276.7429 C387.713195,276.7429 387.753316,276.7429 387.834559,276.7429 L387.834559,356.188821 L387.87468,356.188821 C387.309987,383.073742 390.89674,410.12145 398.632933,436.27986 C404.435329,434.262109 410.237725,432.243354 416,430.184404 C406.208645,406.165332 400.164525,380.530452 398.270848,354.21026 C397.303949,354.250454 396.295927,354.250454 395.329028,354.291653 L395.329028,264.470594 C395.329028,173.64066 234.917109,158.058359 158.114854,248.524535 C158.114854,248.524535 48.8365349,324.660461 48.9170763,325.024219 C48.9170763,325.104607 51.4556871,342.261518 54.3165641,359.458622 C57.9431367,380.974598 51.1333207,402.895531 35.9019567,418.477832 C25.989539,428.650994 15.9561587,439.307491 11,445 Z" id="Path" fill="#C4C3C6"></path>
            <path d="M173.209018,182.579063 L265.837059,127.684659 C300.602623,107.079097 324.906466,73.3938258 334,35 C257.990519,36.6097563 189.143485,67.437557 138.282196,116.697163 C122.026215,132.474158 100.297588,141.367939 77.6435811,141.367939 C77.6435811,142.454867 77.7240096,143.500723 77.8045383,144.547581 C80.2187969,172.155568 76.8790592,199.883769 67.4230462,225.922973 C56.2771324,256.549316 50.1609572,289.550874 50,324 L50.5231361,323.839716 C77.8849669,315.950717 99.1306225,294.500657 107.258613,267.174169 C117.640205,232.161041 140.938441,201.735054 173.209018,182.579063 Z" id="Path" fill="#FFFFFF"></path>
            <path d="M346.445074,198.10763 L315.934092,189.75609 C264.221634,181.932323 198.925664,200.012863 157.733681,248.782992 C157.733681,248.782992 157.128699,249.229026 156,250 L165.995755,250 C194.048683,250 221.376233,241.283156 244.310386,225.067484 C267.24454,208.850803 294.571087,200.134967 322.624014,200.134967 L351,200.134967 C349.508111,199.405368 347.977094,198.716134 346.445074,198.10763 Z" id="Path" fill="#FFFFFF"></path>
            <path d="M12,444.500074 C13.2839904,442.915361 29.374772,432.636467 30.5384039,432.108566 C33.4275071,430.686673 48.3546568,443.686986 50,444.500074 C50.0800282,444.703347 22.9545205,445.515424 12,444.500074 Z" id="Path" fill="#FFFFFF"></path>
            <path d="M69.4858765,71 C65.3064282,71 62.8783989,75.8712519 65.3860877,79.3216167 L65.7840879,79.8493719 L22,79.8493719 C22,85.6541734 26.6172783,90.3630469 32.3091671,90.3630469 L67.6947268,90.3630469 C74.1827152,90.3630469 74.8991552,100.267828 68.4509966,100.998581 C67.7742872,101.079417 67.0578472,101.038999 66.3015774,100.917746 L42.4989441,96.1678484 C42.4989441,110.984804 54.280821,123 68.8091671,123 L69.5257062,123 C83.6162223,123 95,111.349575 95,97.0203605 C95,82.650324 83.5763926,71 69.4858765,71 Z" id="Path" fill="#C4C3C6"></path>
            <path d="M173,183 L247.529771,155.222249 C301.46045,135.12005 342.580668,90.0018013 358,34 L333.424627,34 C314.550789,79.1994213 281.903906,117.129561 240.261914,142.30836 L173,183 Z" id="Path" fill="#000000"></path>
        </g>
    </g>
</svg>