<svg xmlns="http://www.w3.org/2000/svg" width="1200" height="675" viewBox="0 0 1200 675">
  <g fill="none" fill-rule="evenodd">
    <path fill="#000" d="M0 0H1200V675H0z"/>
    <g transform="rotate(-90 403 -121)">
      <path fill="#1F242C" d="M212.49375 131.259375L206.25625 131.259375 206.25625 137.496875 212.49375 137.496875 212.49375 143.75 206.25625 143.75 206.25625 150.003125 212.49375 150.003125 212.49375 156.240625 218.746875 156.240625 218.746875 162.49375 212.49375 162.49375 212.49375 156.25625 206.25625 156.25625 206.25625 162.49375 212.49375 162.49375 212.49375 168.75 206.240625 168.75 206.240625 162.496875 200.003125 162.496875 200.003125 156.259375 193.75 156.259375 193.75 162.496875 187.496875 162.496875 187.496875 156.259375 181.259375 156.259375 181.259375 162.496875 187.496875 162.496875 187.496875 168.75 181.24375 168.75 181.24375 162.496875 175.00625 162.496875 175.00625 168.75 168.75 168.75 168.75 162.496875 175.003125 162.496875 175.003125 156.259375 168.75 156.259375 168.75 150.00625 175.003125 150.00625 175.003125 143.753125 168.75 143.753125 168.75 137.5 175.003125 137.5 175.003125 131.2625 175.003125 131.246875 181.240625 131.246875 181.240625 125.009375 187.49375 125.009375 187.49375 131.246875 193.746875 131.246875 193.746875 125.009375 200 125.009375 200 131.246875 206.2375 131.246875 206.2375 125.009375 212.490625 125.009375 212.490625 131.246875 218.74375 131.246875 218.74375 137.5 212.490625 137.5 212.490625 131.259375 212.49375 131.259375zM175.003125 131.24375L175.003125 125.00625 168.75 125.00625 168.75 131.259375 175.003125 131.259375 175.003125 131.24375zM193.746875 162.496875L193.746875 168.75 200 168.75 200 162.496875 193.746875 162.496875zM212.49375 150.00625L212.49375 143.753125 218.746875 143.753125 218.746875 150.00625 212.49375 150.00625zM181.240625 156.24375L175.003125 156.24375 175.003125 150.00625 181.240625 150.00625 181.240625 156.24375zM181.25625 125.00625L181.25625 118.753125 187.49375 118.753125 187.49375 125.00625 193.746875 125.00625 193.746875 118.753125 200 118.753125 200 125.00625 206.253125 125.00625 206.253125 118.753125 212.490625 118.753125 212.490625 125.00625 218.74375 125.00625 218.74375 118.753125 212.490625 118.753125 212.490625 112.5 206.2375 112.5 206.2375 118.753125 200 118.753125 200 112.5 193.746875 112.5 193.746875 118.753125 187.49375 118.753125 187.49375 112.5 181.240625 112.5 181.240625 118.753125 175.003125 118.753125 175.003125 112.5 168.75 112.5 168.75 118.753125 175.003125 118.753125 175.003125 125.00625 181.25625 125.00625zM206.2375 137.496875L206.2375 143.75 200 143.75 200 137.496875 206.2375 137.496875zM193.746875 137.496875L193.746875 131.259375 200 131.259375 200 137.496875 193.746875 137.496875zM187.49375 137.496875L193.746875 137.496875 193.746875 143.75 187.49375 143.75 187.49375 137.496875zM187.49375 137.496875L181.25625 137.496875 181.25625 131.259375 187.49375 131.259375 187.49375 137.496875zM187.49375 150.00625L181.25625 150.00625 181.25625 143.753125 187.49375 143.753125 187.49375 150.00625zM193.746875 150.00625L193.746875 156.24375 187.49375 156.24375 187.49375 150.00625 193.746875 150.00625zM200.003125 150.00625L193.75 150.00625 193.75 143.753125 200.003125 143.753125 200.003125 150.00625zM200.003125 150.00625L206.240625 150.00625 206.240625 156.24375 200.003125 156.24375 200.003125 150.00625zM181.240625 143.753125L181.240625 137.5 175.003125 137.5 175.003125 143.753125 181.240625 143.753125zM225 162.496875L218.746875 162.496875 218.746875 168.75 225 168.75 225 162.496875zM218.746875 150.00625L225 150.00625 225 156.259375 218.746875 156.259375 218.746875 150.00625zM225 137.496875L218.746875 137.496875 218.746875 143.75 225 143.75 225 137.496875zM218.746875 125.00625L225 125.00625 225 131.259375 218.746875 131.259375 218.746875 125.00625zM218.746875 112.5L225 112.5 225 118.753125 218.746875 118.753125 218.746875 112.5zM268.74375 243.759375L262.50625 243.759375 262.50625 249.996875 268.74375 249.996875 268.74375 256.25 262.50625 256.25 262.50625 262.503125 268.74375 262.503125 268.74375 268.740625 274.996875 268.740625 274.996875 274.99375 268.74375 274.99375 268.74375 268.75625 262.50625 268.75625 262.50625 274.99375 268.74375 274.99375 268.74375 281.25 262.490625 281.25 262.490625 274.996875 256.253125 274.996875 256.253125 268.759375 250 268.759375 250 274.996875 243.746875 274.996875 243.746875 268.759375 237.509375 268.759375 237.509375 274.996875 243.746875 274.996875 243.746875 281.25 237.49375 281.25 237.49375 274.996875 231.25625 274.996875 231.25625 281.25 225 281.25 225 274.996875 231.253125 274.996875 231.253125 268.759375 225 268.759375 225 262.50625 231.253125 262.50625 231.253125 256.253125 225 256.253125 225 250 231.253125 250 231.253125 243.7625 231.253125 243.746875 237.490625 243.746875 237.490625 237.509375 243.74375 237.509375 243.74375 243.746875 249.996875 243.746875 249.996875 237.509375 256.25 237.509375 256.25 243.746875 262.4875 243.746875 262.4875 237.509375 268.740625 237.509375 268.740625 243.746875 274.99375 243.746875 274.99375 250 268.740625 250 268.740625 243.759375 268.74375 243.759375zM231.253125 243.74375L231.253125 237.50625 225 237.50625 225 243.759375 231.253125 243.759375 231.253125 243.74375zM249.996875 274.996875L249.996875 281.25 256.25 281.25 256.25 274.996875 249.996875 274.996875zM268.74375 262.50625L268.74375 256.253125 274.996875 256.253125 274.996875 262.50625 268.74375 262.50625zM237.490625 268.74375L231.253125 268.74375 231.253125 262.50625 237.490625 262.50625 237.490625 268.74375zM237.50625 237.50625L237.50625 231.253125 243.74375 231.253125 243.74375 237.50625 249.996875 237.50625 249.996875 231.253125 256.25 231.253125 256.25 237.50625 262.503125 237.50625 262.503125 231.253125 268.740625 231.253125 268.740625 237.50625 274.99375 237.50625 274.99375 231.253125 268.740625 231.253125 268.740625 225 262.4875 225 262.4875 231.253125 256.25 231.253125 256.25 225 249.996875 225 249.996875 231.253125 243.74375 231.253125 243.74375 225 237.490625 225 237.490625 231.253125 231.253125 231.253125 231.253125 225 225 225 225 231.253125 231.253125 231.253125 231.253125 237.50625 237.50625 237.50625zM262.4875 249.996875L262.4875 256.25 256.25 256.25 256.25 249.996875 262.4875 249.996875zM249.996875 249.996875L249.996875 243.759375 256.25 243.759375 256.25 249.996875 249.996875 249.996875zM243.74375 249.996875L249.996875 249.996875 249.996875 256.25 243.74375 256.25 243.74375 249.996875zM243.74375 249.996875L237.50625 249.996875 237.50625 243.759375 243.74375 243.759375 243.74375 249.996875zM243.74375 262.50625L237.50625 262.50625 237.50625 256.253125 243.74375 256.253125 243.74375 262.50625zM249.996875 262.50625L249.996875 268.74375 243.74375 268.74375 243.74375 262.50625 249.996875 262.50625zM256.253125 262.50625L250 262.50625 250 256.253125 256.253125 256.253125 256.253125 262.50625zM256.253125 262.50625L262.490625 262.50625 262.490625 268.74375 256.253125 268.74375 256.253125 262.50625zM237.490625 256.253125L237.490625 250 231.253125 250 231.253125 256.253125 237.490625 256.253125zM281.25 274.996875L274.996875 274.996875 274.996875 281.25 281.25 281.25 281.25 274.996875zM274.996875 262.50625L281.25 262.50625 281.25 268.759375 274.996875 268.759375 274.996875 262.50625zM281.25 249.996875L274.996875 249.996875 274.996875 256.25 281.25 256.25 281.25 249.996875zM274.996875 237.50625L281.25 237.50625 281.25 243.759375 274.996875 243.759375 274.996875 237.50625zM274.996875 225L281.25 225 281.25 231.253125 274.996875 231.253125 274.996875 225z"/>
      <path fill="#4038FF" d="M274.996875,112.5 L281.25,112.5 L281.25,56.25 L274.996875,56.25 L274.996875,112.5 Z M268.75,112.5 L262.5,112.5 L262.5,56.25 L268.75,56.25 L268.75,112.5 Z M256.25,112.5 L250,112.5 L250,56.25 L256.25,56.25 L256.25,112.5 Z M237.5,112.5 L243.75,112.5 L243.75,56.25 L237.5,56.25 L237.5,112.5 Z M231.25,112.5 L225,112.5 L225,56.25 L231.25,56.25 L231.25,112.5 Z"/>
      <path fill="#1F242C" d="M225.25 49.996875L225.25 56.25 169 56.25 169 49.996875 225.25 49.996875zM225.25 31.24375L225.25 24.990625 169 24.990625 169 31.24375 225.25 31.24375zM225.25 12.490625L225.25 18.74375 169 18.74375 169 12.490625 225.25 12.490625zM225.25 0L225.25 6.253125 169 6.253125 169 0 225.25 0zM225.25 43.74375L225.25 37.490625 169 37.490625 169 43.74375 225.25 43.74375zM275 168.75L281.25 168.75C281.25 199.815625 256.065625 225 225 225L225 218.75C252.615625 218.75 275 196.365625 275 168.75zM262.5 168.75L268.75 168.75C268.75 192.9125 249.1625 212.5 225 212.5L225 206.25C245.709375 206.25 262.5 189.459375 262.5 168.75zM256.25 168.75L250 168.75C250 182.55625 238.80625 193.75 225 193.75L225 200C242.259375 200 256.25 186.009375 256.25 168.75zM237.5 168.75L243.75 168.75C243.75 179.10625 235.35625 187.5 225 187.5L225 181.25C231.903125 181.25 237.5 175.653125 237.5 168.75zM225 168.75L231.25 168.75C231.25 172.203125 228.453125 175 225 175L225 168.75z"/>
      <path fill="#4038FF" d="M175,225 L168.75,225 C168.75,193.934375 193.934375,168.75 225,168.75 L225,175 C197.384375,175 175,197.384375 175,225 Z M187.5,225 L181.25,225 C181.25,200.8375 200.8375,181.25 225,181.25 L225,187.5 C204.290625,187.5 187.5,204.290625 187.5,225 Z M193.75,225 L200,225 C200,211.19375 211.19375,200 225,200 L225,193.75 C207.740625,193.75 193.75,207.740625 193.75,225 Z M212.5,225 L206.25,225 C206.25,214.64375 214.64375,206.25 225,206.25 L225,212.5 C218.096875,212.5 212.5,218.096875 212.5,225 Z M225,225 L218.75,225 C218.75,221.546875 221.546875,218.75 225,218.75 L225,225 Z"/>
      <path fill="#FFF" d="M168.75 164.34375L168.75 168.75 164.34375 168.75 112.5 116.90625 112.5 112.5 116.90625 112.5 168.75 164.34375zM112.5 125.75L112.5 134.59375 146.65625 168.75 155.5 168.75 112.5 125.75zM112.5 152.28125L112.5 143.4375 137.8125 168.75 128.96875 168.75 112.5 152.28125zM112.5 168.75L120.125 168.75 112.5 161.125 112.5 168.75zM125.75 112.5L134.59375 112.5 168.75 146.65625 168.75 155.5 125.75 112.5zM152.28125 112.5L143.4375 112.5 168.75 137.8125 168.75 128.96875 152.28125 112.5zM168.75 120.125L161.125 112.5 168.75 112.5 168.75 120.125zM225 231.253125L225 225 168.75 225 168.75 231.253125 225 231.253125zM225 237.5L225 243.75 168.75 243.75 168.75 237.5 225 237.5zM225 250L225 256.25 168.75 256.25 168.75 250 225 250zM225 268.75L225 262.5 168.75 262.5 168.75 268.75 225 268.75zM225 275L225 281.25 168.75 281.25 168.75 275 225 275z"/>
      <path fill="#4038FF" fill-rule="nonzero" d="M225,281.25 L225,337.5 L281.25,337.5 C281.25,306.434375 256.065625,281.25 225,281.25 Z"/>
      <path fill="#1F242C" fill-rule="nonzero" d="M0,337.5 L56.25,337.5 L56.25,281.25 C25.184375,281.25 0,306.434375 0,337.5 Z" transform="rotate(90 28.125 309.375)"/>
      <path fill="#1F242C" fill-rule="nonzero" d="M112.5,281.25 L168.75,281.25 L168.75,225 C137.684375,225 112.5,250.184375 112.5,281.25 Z"/>
      <path fill="#4038FF" d="M118.753125,337.5 L112.5,337.5 L112.5,281.25 L118.753125,281.25 L118.753125,337.5 Z M137.50625,337.5 L143.759375,337.5 L143.759375,281.25 L137.50625,281.25 L137.50625,337.5 Z M156.259375,337.5 L150.00625,337.5 L150.00625,281.25 L156.259375,281.25 L156.259375,337.5 Z M168.75,337.5 L162.496875,337.5 L162.496875,281.25 L168.75,281.25 L168.75,337.5 Z M125.00625,337.5 L131.259375,337.5 L131.259375,281.25 L125.00625,281.25 L125.00625,337.5 Z"/>
    </g>
    <g transform="rotate(-90 740.5 -121.5)">
      <path fill="#1F242C" d="M212.49375 131.259375L206.25625 131.259375 206.25625 137.496875 212.49375 137.496875 212.49375 143.75 206.25625 143.75 206.25625 150.003125 212.49375 150.003125 212.49375 156.240625 218.746875 156.240625 218.746875 162.49375 212.49375 162.49375 212.49375 156.25625 206.25625 156.25625 206.25625 162.49375 212.49375 162.49375 212.49375 168.75 206.240625 168.75 206.240625 162.496875 200.003125 162.496875 200.003125 156.259375 193.75 156.259375 193.75 162.496875 187.496875 162.496875 187.496875 156.259375 181.259375 156.259375 181.259375 162.496875 187.496875 162.496875 187.496875 168.75 181.24375 168.75 181.24375 162.496875 175.00625 162.496875 175.00625 168.75 168.75 168.75 168.75 162.496875 175.003125 162.496875 175.003125 156.259375 168.75 156.259375 168.75 150.00625 175.003125 150.00625 175.003125 143.753125 168.75 143.753125 168.75 137.5 175.003125 137.5 175.003125 131.2625 175.003125 131.246875 181.240625 131.246875 181.240625 125.009375 187.49375 125.009375 187.49375 131.246875 193.746875 131.246875 193.746875 125.009375 200 125.009375 200 131.246875 206.2375 131.246875 206.2375 125.009375 212.490625 125.009375 212.490625 131.246875 218.74375 131.246875 218.74375 137.5 212.490625 137.5 212.490625 131.259375 212.49375 131.259375zM175.003125 131.24375L175.003125 125.00625 168.75 125.00625 168.75 131.259375 175.003125 131.259375 175.003125 131.24375zM193.746875 162.496875L193.746875 168.75 200 168.75 200 162.496875 193.746875 162.496875zM212.49375 150.00625L212.49375 143.753125 218.746875 143.753125 218.746875 150.00625 212.49375 150.00625zM181.240625 156.24375L175.003125 156.24375 175.003125 150.00625 181.240625 150.00625 181.240625 156.24375zM181.25625 125.00625L181.25625 118.753125 187.49375 118.753125 187.49375 125.00625 193.746875 125.00625 193.746875 118.753125 200 118.753125 200 125.00625 206.253125 125.00625 206.253125 118.753125 212.490625 118.753125 212.490625 125.00625 218.74375 125.00625 218.74375 118.753125 212.490625 118.753125 212.490625 112.5 206.2375 112.5 206.2375 118.753125 200 118.753125 200 112.5 193.746875 112.5 193.746875 118.753125 187.49375 118.753125 187.49375 112.5 181.240625 112.5 181.240625 118.753125 175.003125 118.753125 175.003125 112.5 168.75 112.5 168.75 118.753125 175.003125 118.753125 175.003125 125.00625 181.25625 125.00625zM206.2375 137.496875L206.2375 143.75 200 143.75 200 137.496875 206.2375 137.496875zM193.746875 137.496875L193.746875 131.259375 200 131.259375 200 137.496875 193.746875 137.496875zM187.49375 137.496875L193.746875 137.496875 193.746875 143.75 187.49375 143.75 187.49375 137.496875zM187.49375 137.496875L181.25625 137.496875 181.25625 131.259375 187.49375 131.259375 187.49375 137.496875zM187.49375 150.00625L181.25625 150.00625 181.25625 143.753125 187.49375 143.753125 187.49375 150.00625zM193.746875 150.00625L193.746875 156.24375 187.49375 156.24375 187.49375 150.00625 193.746875 150.00625zM200.003125 150.00625L193.75 150.00625 193.75 143.753125 200.003125 143.753125 200.003125 150.00625zM200.003125 150.00625L206.240625 150.00625 206.240625 156.24375 200.003125 156.24375 200.003125 150.00625zM181.240625 143.753125L181.240625 137.5 175.003125 137.5 175.003125 143.753125 181.240625 143.753125zM225 162.496875L218.746875 162.496875 218.746875 168.75 225 168.75 225 162.496875zM218.746875 150.00625L225 150.00625 225 156.259375 218.746875 156.259375 218.746875 150.00625zM225 137.496875L218.746875 137.496875 218.746875 143.75 225 143.75 225 137.496875zM218.746875 125.00625L225 125.00625 225 131.259375 218.746875 131.259375 218.746875 125.00625zM218.746875 112.5L225 112.5 225 118.753125 218.746875 118.753125 218.746875 112.5zM268.74375 243.759375L262.50625 243.759375 262.50625 249.996875 268.74375 249.996875 268.74375 256.25 262.50625 256.25 262.50625 262.503125 268.74375 262.503125 268.74375 268.740625 274.996875 268.740625 274.996875 274.99375 268.74375 274.99375 268.74375 268.75625 262.50625 268.75625 262.50625 274.99375 268.74375 274.99375 268.74375 281.25 262.490625 281.25 262.490625 274.996875 256.253125 274.996875 256.253125 268.759375 250 268.759375 250 274.996875 243.746875 274.996875 243.746875 268.759375 237.509375 268.759375 237.509375 274.996875 243.746875 274.996875 243.746875 281.25 237.49375 281.25 237.49375 274.996875 231.25625 274.996875 231.25625 281.25 225 281.25 225 274.996875 231.253125 274.996875 231.253125 268.759375 225 268.759375 225 262.50625 231.253125 262.50625 231.253125 256.253125 225 256.253125 225 250 231.253125 250 231.253125 243.7625 231.253125 243.746875 237.490625 243.746875 237.490625 237.509375 243.74375 237.509375 243.74375 243.746875 249.996875 243.746875 249.996875 237.509375 256.25 237.509375 256.25 243.746875 262.4875 243.746875 262.4875 237.509375 268.740625 237.509375 268.740625 243.746875 274.99375 243.746875 274.99375 250 268.740625 250 268.740625 243.759375 268.74375 243.759375zM231.253125 243.74375L231.253125 237.50625 225 237.50625 225 243.759375 231.253125 243.759375 231.253125 243.74375zM249.996875 274.996875L249.996875 281.25 256.25 281.25 256.25 274.996875 249.996875 274.996875zM268.74375 262.50625L268.74375 256.253125 274.996875 256.253125 274.996875 262.50625 268.74375 262.50625zM237.490625 268.74375L231.253125 268.74375 231.253125 262.50625 237.490625 262.50625 237.490625 268.74375zM237.50625 237.50625L237.50625 231.253125 243.74375 231.253125 243.74375 237.50625 249.996875 237.50625 249.996875 231.253125 256.25 231.253125 256.25 237.50625 262.503125 237.50625 262.503125 231.253125 268.740625 231.253125 268.740625 237.50625 274.99375 237.50625 274.99375 231.253125 268.740625 231.253125 268.740625 225 262.4875 225 262.4875 231.253125 256.25 231.253125 256.25 225 249.996875 225 249.996875 231.253125 243.74375 231.253125 243.74375 225 237.490625 225 237.490625 231.253125 231.253125 231.253125 231.253125 225 225 225 225 231.253125 231.253125 231.253125 231.253125 237.50625 237.50625 237.50625zM262.4875 249.996875L262.4875 256.25 256.25 256.25 256.25 249.996875 262.4875 249.996875zM249.996875 249.996875L249.996875 243.759375 256.25 243.759375 256.25 249.996875 249.996875 249.996875zM243.74375 249.996875L249.996875 249.996875 249.996875 256.25 243.74375 256.25 243.74375 249.996875zM243.74375 249.996875L237.50625 249.996875 237.50625 243.759375 243.74375 243.759375 243.74375 249.996875zM243.74375 262.50625L237.50625 262.50625 237.50625 256.253125 243.74375 256.253125 243.74375 262.50625zM249.996875 262.50625L249.996875 268.74375 243.74375 268.74375 243.74375 262.50625 249.996875 262.50625zM256.253125 262.50625L250 262.50625 250 256.253125 256.253125 256.253125 256.253125 262.50625zM256.253125 262.50625L262.490625 262.50625 262.490625 268.74375 256.253125 268.74375 256.253125 262.50625zM237.490625 256.253125L237.490625 250 231.253125 250 231.253125 256.253125 237.490625 256.253125zM281.25 274.996875L274.996875 274.996875 274.996875 281.25 281.25 281.25 281.25 274.996875zM274.996875 262.50625L281.25 262.50625 281.25 268.759375 274.996875 268.759375 274.996875 262.50625zM281.25 249.996875L274.996875 249.996875 274.996875 256.25 281.25 256.25 281.25 249.996875zM274.996875 237.50625L281.25 237.50625 281.25 243.759375 274.996875 243.759375 274.996875 237.50625zM274.996875 225L281.25 225 281.25 231.253125 274.996875 231.253125 274.996875 225z"/>
      <path fill="#4038FF" d="M274.996875,112.5 L281.25,112.5 L281.25,56.25 L274.996875,56.25 L274.996875,112.5 Z M268.75,112.5 L262.5,112.5 L262.5,56.25 L268.75,56.25 L268.75,112.5 Z M256.25,112.5 L250,112.5 L250,56.25 L256.25,56.25 L256.25,112.5 Z M237.5,112.5 L243.75,112.5 L243.75,56.25 L237.5,56.25 L237.5,112.5 Z M231.25,112.5 L225,112.5 L225,56.25 L231.25,56.25 L231.25,112.5 Z"/>
      <path fill="#1F242C" d="M225.25 49.996875L225.25 56.25 169 56.25 169 49.996875 225.25 49.996875zM225.25 31.24375L225.25 24.990625 169 24.990625 169 31.24375 225.25 31.24375zM225.25 12.490625L225.25 18.74375 169 18.74375 169 12.490625 225.25 12.490625zM225.25 0L225.25 6.253125 169 6.253125 169 0 225.25 0zM225.25 43.74375L225.25 37.490625 169 37.490625 169 43.74375 225.25 43.74375zM275 168.75L281.25 168.75C281.25 199.815625 256.065625 225 225 225L225 218.75C252.615625 218.75 275 196.365625 275 168.75zM262.5 168.75L268.75 168.75C268.75 192.9125 249.1625 212.5 225 212.5L225 206.25C245.709375 206.25 262.5 189.459375 262.5 168.75zM256.25 168.75L250 168.75C250 182.55625 238.80625 193.75 225 193.75L225 200C242.259375 200 256.25 186.009375 256.25 168.75zM237.5 168.75L243.75 168.75C243.75 179.10625 235.35625 187.5 225 187.5L225 181.25C231.903125 181.25 237.5 175.653125 237.5 168.75zM225 168.75L231.25 168.75C231.25 172.203125 228.453125 175 225 175L225 168.75z"/>
      <path fill="#4038FF" d="M175,225 L168.75,225 C168.75,193.934375 193.934375,168.75 225,168.75 L225,175 C197.384375,175 175,197.384375 175,225 Z M187.5,225 L181.25,225 C181.25,200.8375 200.8375,181.25 225,181.25 L225,187.5 C204.290625,187.5 187.5,204.290625 187.5,225 Z M193.75,225 L200,225 C200,211.19375 211.19375,200 225,200 L225,193.75 C207.740625,193.75 193.75,207.740625 193.75,225 Z M212.5,225 L206.25,225 C206.25,214.64375 214.64375,206.25 225,206.25 L225,212.5 C218.096875,212.5 212.5,218.096875 212.5,225 Z M225,225 L218.75,225 C218.75,221.546875 221.546875,218.75 225,218.75 L225,225 Z"/>
      <path fill="#FFF" d="M168.75 164.34375L168.75 168.75 164.34375 168.75 112.5 116.90625 112.5 112.5 116.90625 112.5 168.75 164.34375zM112.5 125.75L112.5 134.59375 146.65625 168.75 155.5 168.75 112.5 125.75zM112.5 152.28125L112.5 143.4375 137.8125 168.75 128.96875 168.75 112.5 152.28125zM112.5 168.75L120.125 168.75 112.5 161.125 112.5 168.75zM125.75 112.5L134.59375 112.5 168.75 146.65625 168.75 155.5 125.75 112.5zM152.28125 112.5L143.4375 112.5 168.75 137.8125 168.75 128.96875 152.28125 112.5zM168.75 120.125L161.125 112.5 168.75 112.5 168.75 120.125zM225 231.253125L225 225 168.75 225 168.75 231.253125 225 231.253125zM225 237.5L225 243.75 168.75 243.75 168.75 237.5 225 237.5zM225 250L225 256.25 168.75 256.25 168.75 250 225 250zM225 268.75L225 262.5 168.75 262.5 168.75 268.75 225 268.75zM225 275L225 281.25 168.75 281.25 168.75 275 225 275z"/>
      <path fill="#4038FF" fill-rule="nonzero" d="M225,281.25 L225,337.5 L281.25,337.5 C281.25,306.434375 256.065625,281.25 225,281.25 Z"/>
      <path fill="#1F242C" fill-rule="nonzero" d="M0,337.5 L56.25,337.5 L56.25,281.25 C25.184375,281.25 0,306.434375 0,337.5 Z" transform="rotate(90 28.125 309.375)"/>
      <path fill="#1F242C" fill-rule="nonzero" d="M112.5,281.25 L168.75,281.25 L168.75,225 C137.684375,225 112.5,250.184375 112.5,281.25 Z"/>
      <path fill="#4038FF" d="M118.753125,337.5 L112.5,337.5 L112.5,281.25 L118.753125,281.25 L118.753125,337.5 Z M137.50625,337.5 L143.759375,337.5 L143.759375,281.25 L137.50625,281.25 L137.50625,337.5 Z M156.259375,337.5 L150.00625,337.5 L150.00625,281.25 L156.259375,281.25 L156.259375,337.5 Z M168.75,337.5 L162.496875,337.5 L162.496875,281.25 L168.75,281.25 L168.75,337.5 Z M125.00625,337.5 L131.259375,337.5 L131.259375,281.25 L125.00625,281.25 L125.00625,337.5 Z"/>
    </g>
    <g transform="rotate(-180 141 169)">
      <path fill="#1F242C" d="M212.49375 131.259375L206.25625 131.259375 206.25625 137.496875 212.49375 137.496875 212.49375 143.75 206.25625 143.75 206.25625 150.003125 212.49375 150.003125 212.49375 156.240625 218.746875 156.240625 218.746875 162.49375 212.49375 162.49375 212.49375 156.25625 206.25625 156.25625 206.25625 162.49375 212.49375 162.49375 212.49375 168.75 206.240625 168.75 206.240625 162.496875 200.003125 162.496875 200.003125 156.259375 193.75 156.259375 193.75 162.496875 187.496875 162.496875 187.496875 156.259375 181.259375 156.259375 181.259375 162.496875 187.496875 162.496875 187.496875 168.75 181.24375 168.75 181.24375 162.496875 175.00625 162.496875 175.00625 168.75 168.75 168.75 168.75 162.496875 175.003125 162.496875 175.003125 156.259375 168.75 156.259375 168.75 150.00625 175.003125 150.00625 175.003125 143.753125 168.75 143.753125 168.75 137.5 175.003125 137.5 175.003125 131.2625 175.003125 131.246875 181.240625 131.246875 181.240625 125.009375 187.49375 125.009375 187.49375 131.246875 193.746875 131.246875 193.746875 125.009375 200 125.009375 200 131.246875 206.2375 131.246875 206.2375 125.009375 212.490625 125.009375 212.490625 131.246875 218.74375 131.246875 218.74375 137.5 212.490625 137.5 212.490625 131.259375 212.49375 131.259375zM175.003125 131.24375L175.003125 125.00625 168.75 125.00625 168.75 131.259375 175.003125 131.259375 175.003125 131.24375zM193.746875 162.496875L193.746875 168.75 200 168.75 200 162.496875 193.746875 162.496875zM212.49375 150.00625L212.49375 143.753125 218.746875 143.753125 218.746875 150.00625 212.49375 150.00625zM181.240625 156.24375L175.003125 156.24375 175.003125 150.00625 181.240625 150.00625 181.240625 156.24375zM181.25625 125.00625L181.25625 118.753125 187.49375 118.753125 187.49375 125.00625 193.746875 125.00625 193.746875 118.753125 200 118.753125 200 125.00625 206.253125 125.00625 206.253125 118.753125 212.490625 118.753125 212.490625 125.00625 218.74375 125.00625 218.74375 118.753125 212.490625 118.753125 212.490625 112.5 206.2375 112.5 206.2375 118.753125 200 118.753125 200 112.5 193.746875 112.5 193.746875 118.753125 187.49375 118.753125 187.49375 112.5 181.240625 112.5 181.240625 118.753125 175.003125 118.753125 175.003125 112.5 168.75 112.5 168.75 118.753125 175.003125 118.753125 175.003125 125.00625 181.25625 125.00625zM206.2375 137.496875L206.2375 143.75 200 143.75 200 137.496875 206.2375 137.496875zM193.746875 137.496875L193.746875 131.259375 200 131.259375 200 137.496875 193.746875 137.496875zM187.49375 137.496875L193.746875 137.496875 193.746875 143.75 187.49375 143.75 187.49375 137.496875zM187.49375 137.496875L181.25625 137.496875 181.25625 131.259375 187.49375 131.259375 187.49375 137.496875zM187.49375 150.00625L181.25625 150.00625 181.25625 143.753125 187.49375 143.753125 187.49375 150.00625zM193.746875 150.00625L193.746875 156.24375 187.49375 156.24375 187.49375 150.00625 193.746875 150.00625zM200.003125 150.00625L193.75 150.00625 193.75 143.753125 200.003125 143.753125 200.003125 150.00625zM200.003125 150.00625L206.240625 150.00625 206.240625 156.24375 200.003125 156.24375 200.003125 150.00625zM181.240625 143.753125L181.240625 137.5 175.003125 137.5 175.003125 143.753125 181.240625 143.753125zM225 162.496875L218.746875 162.496875 218.746875 168.75 225 168.75 225 162.496875zM218.746875 150.00625L225 150.00625 225 156.259375 218.746875 156.259375 218.746875 150.00625zM225 137.496875L218.746875 137.496875 218.746875 143.75 225 143.75 225 137.496875zM218.746875 125.00625L225 125.00625 225 131.259375 218.746875 131.259375 218.746875 125.00625zM218.746875 112.5L225 112.5 225 118.753125 218.746875 118.753125 218.746875 112.5zM212.99375 243.759375L206.75625 243.759375 206.75625 249.996875 212.99375 249.996875 212.99375 256.25 206.75625 256.25 206.75625 262.503125 212.99375 262.503125 212.99375 268.740625 219.246875 268.740625 219.246875 274.99375 212.99375 274.99375 212.99375 268.75625 206.75625 268.75625 206.75625 274.99375 212.99375 274.99375 212.99375 281.25 206.740625 281.25 206.740625 274.996875 200.503125 274.996875 200.503125 268.759375 194.25 268.759375 194.25 274.996875 187.996875 274.996875 187.996875 268.759375 181.759375 268.759375 181.759375 274.996875 187.996875 274.996875 187.996875 281.25 181.74375 281.25 181.74375 274.996875 175.50625 274.996875 175.50625 281.25 169.25 281.25 169.25 274.996875 175.503125 274.996875 175.503125 268.759375 169.25 268.759375 169.25 262.50625 175.503125 262.50625 175.503125 256.253125 169.25 256.253125 169.25 250 175.503125 250 175.503125 243.7625 175.503125 243.746875 181.740625 243.746875 181.740625 237.509375 187.99375 237.509375 187.99375 243.746875 194.246875 243.746875 194.246875 237.509375 200.5 237.509375 200.5 243.746875 206.7375 243.746875 206.7375 237.509375 212.990625 237.509375 212.990625 243.746875 219.24375 243.746875 219.24375 250 212.990625 250 212.990625 243.759375 212.99375 243.759375zM175.503125 243.74375L175.503125 237.50625 169.25 237.50625 169.25 243.759375 175.503125 243.759375 175.503125 243.74375zM194.246875 274.996875L194.246875 281.25 200.5 281.25 200.5 274.996875 194.246875 274.996875zM212.99375 262.50625L212.99375 256.253125 219.246875 256.253125 219.246875 262.50625 212.99375 262.50625zM181.740625 268.74375L175.503125 268.74375 175.503125 262.50625 181.740625 262.50625 181.740625 268.74375zM181.75625 237.50625L181.75625 231.253125 187.99375 231.253125 187.99375 237.50625 194.246875 237.50625 194.246875 231.253125 200.5 231.253125 200.5 237.50625 206.753125 237.50625 206.753125 231.253125 212.990625 231.253125 212.990625 237.50625 219.24375 237.50625 219.24375 231.253125 212.990625 231.253125 212.990625 225 206.7375 225 206.7375 231.253125 200.5 231.253125 200.5 225 194.246875 225 194.246875 231.253125 187.99375 231.253125 187.99375 225 181.740625 225 181.740625 231.253125 175.503125 231.253125 175.503125 225 169.25 225 169.25 231.253125 175.503125 231.253125 175.503125 237.50625 181.75625 237.50625zM206.7375 249.996875L206.7375 256.25 200.5 256.25 200.5 249.996875 206.7375 249.996875zM194.246875 249.996875L194.246875 243.759375 200.5 243.759375 200.5 249.996875 194.246875 249.996875zM187.99375 249.996875L194.246875 249.996875 194.246875 256.25 187.99375 256.25 187.99375 249.996875zM187.99375 249.996875L181.75625 249.996875 181.75625 243.759375 187.99375 243.759375 187.99375 249.996875zM187.99375 262.50625L181.75625 262.50625 181.75625 256.253125 187.99375 256.253125 187.99375 262.50625zM194.246875 262.50625L194.246875 268.74375 187.99375 268.74375 187.99375 262.50625 194.246875 262.50625zM200.503125 262.50625L194.25 262.50625 194.25 256.253125 200.503125 256.253125 200.503125 262.50625zM200.503125 262.50625L206.740625 262.50625 206.740625 268.74375 200.503125 268.74375 200.503125 262.50625zM181.740625 256.253125L181.740625 250 175.503125 250 175.503125 256.253125 181.740625 256.253125zM225.5 274.996875L219.246875 274.996875 219.246875 281.25 225.5 281.25 225.5 274.996875zM219.246875 262.50625L225.5 262.50625 225.5 268.759375 219.246875 268.759375 219.246875 262.50625zM225.5 249.996875L219.246875 249.996875 219.246875 256.25 225.5 256.25 225.5 249.996875zM219.246875 237.50625L225.5 237.50625 225.5 243.759375 219.246875 243.759375 219.246875 237.50625zM219.246875 225L225.5 225 225.5 231.253125 219.246875 231.253125 219.246875 225z"/>
      <path fill="#4038FF" d="M274.996875,112.5 L281.25,112.5 L281.25,56.25 L274.996875,56.25 L274.996875,112.5 Z M268.75,112.5 L262.5,112.5 L262.5,56.25 L268.75,56.25 L268.75,112.5 Z M256.25,112.5 L250,112.5 L250,56.25 L256.25,56.25 L256.25,112.5 Z M237.5,112.5 L243.75,112.5 L243.75,56.25 L237.5,56.25 L237.5,112.5 Z M231.25,112.5 L225,112.5 L225,56.25 L231.25,56.25 L231.25,112.5 Z"/>
      <path fill="#1F242C" d="M225 49.996875L225 56.25 168.75 56.25 168.75 49.996875 225 49.996875zM225 31.24375L225 24.990625 168.75 24.990625 168.75 31.24375 225 31.24375zM225 12.490625L225 18.74375 168.75 18.74375 168.75 12.490625 225 12.490625zM225 0L225 6.253125 168.75 6.253125 168.75 0 225 0zM225 43.74375L225 37.490625 168.75 37.490625 168.75 43.74375 225 43.74375zM275 168.75L281.25 168.75C281.25 199.815625 256.065625 225 225 225L225 218.75C252.615625 218.75 275 196.365625 275 168.75zM262.5 168.75L268.75 168.75C268.75 192.9125 249.1625 212.5 225 212.5L225 206.25C245.709375 206.25 262.5 189.459375 262.5 168.75zM256.25 168.75L250 168.75C250 182.55625 238.80625 193.75 225 193.75L225 200C242.259375 200 256.25 186.009375 256.25 168.75zM237.5 168.75L243.75 168.75C243.75 179.10625 235.35625 187.5 225 187.5L225 181.25C231.903125 181.25 237.5 175.653125 237.5 168.75zM225 168.75L231.25 168.75C231.25 172.203125 228.453125 175 225 175L225 168.75z"/>
      <path fill="#FFF" d="M168.75 164.34375L168.75 168.75 164.34375 168.75 112.5 116.90625 112.5 112.5 116.90625 112.5 168.75 164.34375zM112.5 125.75L112.5 134.59375 146.65625 168.75 155.5 168.75 112.5 125.75zM112.5 152.28125L112.5 143.4375 137.8125 168.75 128.96875 168.75 112.5 152.28125zM112.5 168.75L120.125 168.75 112.5 161.125 112.5 168.75zM125.75 112.5L134.59375 112.5 168.75 146.65625 168.75 155.5 125.75 112.5zM152.28125 112.5L143.4375 112.5 168.75 137.8125 168.75 128.96875 152.28125 112.5zM168.75 120.125L161.125 112.5 168.75 112.5 168.75 120.125zM56.5 6.253125L56.5 0 .25 0 .25 6.253125 56.5 6.253125zM56.5 12.5L56.5 18.75.25 18.75.25 12.5 56.5 12.5zM56.5 25L56.5 31.25.25 31.25.25 25 56.5 25zM56.5 43.75L56.5 37.5.25 37.5.25 43.75 56.5 43.75zM56.5 50L56.5 56.25.25 56.25.25 50 56.5 50z"/>
      <path fill="#4038FF" fill-rule="nonzero" d="M225,281.25 L225,337.5 L281.25,337.5 C281.25,306.434375 256.065625,281.25 225,281.25 Z" transform="rotate(-90 253.125 309.375)"/>
      <path fill="#1F242C" fill-rule="nonzero" d="M56.5,56.25 L112.75,56.25 L112.75,0 C81.684375,0 56.5,25.184375 56.5,56.25 Z" transform="rotate(-90 84.625 28.125)"/>
      <path fill="#4038FF" d="M62.753125,112.5 L56.5,112.5 L56.5,56.25 L62.753125,56.25 L62.753125,112.5 Z M81.50625,112.5 L87.759375,112.5 L87.759375,56.25 L81.50625,56.25 L81.50625,112.5 Z M100.259375,112.5 L94.00625,112.5 L94.00625,56.25 L100.259375,56.25 L100.259375,112.5 Z M112.75,112.5 L106.496875,112.5 L106.496875,56.25 L112.75,56.25 L112.75,112.5 Z M69.00625,112.5 L75.259375,112.5 L75.259375,56.25 L69.00625,56.25 L69.00625,112.5 Z"/>
    </g>
    <g transform="rotate(-180 141 337.5)">
      <path fill="#1F242C" d="M212.49375 131.259375L206.25625 131.259375 206.25625 137.496875 212.49375 137.496875 212.49375 143.75 206.25625 143.75 206.25625 150.003125 212.49375 150.003125 212.49375 156.240625 218.746875 156.240625 218.746875 162.49375 212.49375 162.49375 212.49375 156.25625 206.25625 156.25625 206.25625 162.49375 212.49375 162.49375 212.49375 168.75 206.240625 168.75 206.240625 162.496875 200.003125 162.496875 200.003125 156.259375 193.75 156.259375 193.75 162.496875 187.496875 162.496875 187.496875 156.259375 181.259375 156.259375 181.259375 162.496875 187.496875 162.496875 187.496875 168.75 181.24375 168.75 181.24375 162.496875 175.00625 162.496875 175.00625 168.75 168.75 168.75 168.75 162.496875 175.003125 162.496875 175.003125 156.259375 168.75 156.259375 168.75 150.00625 175.003125 150.00625 175.003125 143.753125 168.75 143.753125 168.75 137.5 175.003125 137.5 175.003125 131.2625 175.003125 131.246875 181.240625 131.246875 181.240625 125.009375 187.49375 125.009375 187.49375 131.246875 193.746875 131.246875 193.746875 125.009375 200 125.009375 200 131.246875 206.2375 131.246875 206.2375 125.009375 212.490625 125.009375 212.490625 131.246875 218.74375 131.246875 218.74375 137.5 212.490625 137.5 212.490625 131.259375 212.49375 131.259375zM175.003125 131.24375L175.003125 125.00625 168.75 125.00625 168.75 131.259375 175.003125 131.259375 175.003125 131.24375zM193.746875 162.496875L193.746875 168.75 200 168.75 200 162.496875 193.746875 162.496875zM212.49375 150.00625L212.49375 143.753125 218.746875 143.753125 218.746875 150.00625 212.49375 150.00625zM181.240625 156.24375L175.003125 156.24375 175.003125 150.00625 181.240625 150.00625 181.240625 156.24375zM181.25625 125.00625L181.25625 118.753125 187.49375 118.753125 187.49375 125.00625 193.746875 125.00625 193.746875 118.753125 200 118.753125 200 125.00625 206.253125 125.00625 206.253125 118.753125 212.490625 118.753125 212.490625 125.00625 218.74375 125.00625 218.74375 118.753125 212.490625 118.753125 212.490625 112.5 206.2375 112.5 206.2375 118.753125 200 118.753125 200 112.5 193.746875 112.5 193.746875 118.753125 187.49375 118.753125 187.49375 112.5 181.240625 112.5 181.240625 118.753125 175.003125 118.753125 175.003125 112.5 168.75 112.5 168.75 118.753125 175.003125 118.753125 175.003125 125.00625 181.25625 125.00625zM206.2375 137.496875L206.2375 143.75 200 143.75 200 137.496875 206.2375 137.496875zM193.746875 137.496875L193.746875 131.259375 200 131.259375 200 137.496875 193.746875 137.496875zM187.49375 137.496875L193.746875 137.496875 193.746875 143.75 187.49375 143.75 187.49375 137.496875zM187.49375 137.496875L181.25625 137.496875 181.25625 131.259375 187.49375 131.259375 187.49375 137.496875zM187.49375 150.00625L181.25625 150.00625 181.25625 143.753125 187.49375 143.753125 187.49375 150.00625zM193.746875 150.00625L193.746875 156.24375 187.49375 156.24375 187.49375 150.00625 193.746875 150.00625zM200.003125 150.00625L193.75 150.00625 193.75 143.753125 200.003125 143.753125 200.003125 150.00625zM200.003125 150.00625L206.240625 150.00625 206.240625 156.24375 200.003125 156.24375 200.003125 150.00625zM181.240625 143.753125L181.240625 137.5 175.003125 137.5 175.003125 143.753125 181.240625 143.753125zM225 162.496875L218.746875 162.496875 218.746875 168.75 225 168.75 225 162.496875zM218.746875 150.00625L225 150.00625 225 156.259375 218.746875 156.259375 218.746875 150.00625zM225 137.496875L218.746875 137.496875 218.746875 143.75 225 143.75 225 137.496875zM218.746875 125.00625L225 125.00625 225 131.259375 218.746875 131.259375 218.746875 125.00625zM218.746875 112.5L225 112.5 225 118.753125 218.746875 118.753125 218.746875 112.5zM212.99375 243.759375L206.75625 243.759375 206.75625 249.996875 212.99375 249.996875 212.99375 256.25 206.75625 256.25 206.75625 262.503125 212.99375 262.503125 212.99375 268.740625 219.246875 268.740625 219.246875 274.99375 212.99375 274.99375 212.99375 268.75625 206.75625 268.75625 206.75625 274.99375 212.99375 274.99375 212.99375 281.25 206.740625 281.25 206.740625 274.996875 200.503125 274.996875 200.503125 268.759375 194.25 268.759375 194.25 274.996875 187.996875 274.996875 187.996875 268.759375 181.759375 268.759375 181.759375 274.996875 187.996875 274.996875 187.996875 281.25 181.74375 281.25 181.74375 274.996875 175.50625 274.996875 175.50625 281.25 169.25 281.25 169.25 274.996875 175.503125 274.996875 175.503125 268.759375 169.25 268.759375 169.25 262.50625 175.503125 262.50625 175.503125 256.253125 169.25 256.253125 169.25 250 175.503125 250 175.503125 243.7625 175.503125 243.746875 181.740625 243.746875 181.740625 237.509375 187.99375 237.509375 187.99375 243.746875 194.246875 243.746875 194.246875 237.509375 200.5 237.509375 200.5 243.746875 206.7375 243.746875 206.7375 237.509375 212.990625 237.509375 212.990625 243.746875 219.24375 243.746875 219.24375 250 212.990625 250 212.990625 243.759375 212.99375 243.759375zM175.503125 243.74375L175.503125 237.50625 169.25 237.50625 169.25 243.759375 175.503125 243.759375 175.503125 243.74375zM194.246875 274.996875L194.246875 281.25 200.5 281.25 200.5 274.996875 194.246875 274.996875zM212.99375 262.50625L212.99375 256.253125 219.246875 256.253125 219.246875 262.50625 212.99375 262.50625zM181.740625 268.74375L175.503125 268.74375 175.503125 262.50625 181.740625 262.50625 181.740625 268.74375zM181.75625 237.50625L181.75625 231.253125 187.99375 231.253125 187.99375 237.50625 194.246875 237.50625 194.246875 231.253125 200.5 231.253125 200.5 237.50625 206.753125 237.50625 206.753125 231.253125 212.990625 231.253125 212.990625 237.50625 219.24375 237.50625 219.24375 231.253125 212.990625 231.253125 212.990625 225 206.7375 225 206.7375 231.253125 200.5 231.253125 200.5 225 194.246875 225 194.246875 231.253125 187.99375 231.253125 187.99375 225 181.740625 225 181.740625 231.253125 175.503125 231.253125 175.503125 225 169.25 225 169.25 231.253125 175.503125 231.253125 175.503125 237.50625 181.75625 237.50625zM206.7375 249.996875L206.7375 256.25 200.5 256.25 200.5 249.996875 206.7375 249.996875zM194.246875 249.996875L194.246875 243.759375 200.5 243.759375 200.5 249.996875 194.246875 249.996875zM187.99375 249.996875L194.246875 249.996875 194.246875 256.25 187.99375 256.25 187.99375 249.996875zM187.99375 249.996875L181.75625 249.996875 181.75625 243.759375 187.99375 243.759375 187.99375 249.996875zM187.99375 262.50625L181.75625 262.50625 181.75625 256.253125 187.99375 256.253125 187.99375 262.50625zM194.246875 262.50625L194.246875 268.74375 187.99375 268.74375 187.99375 262.50625 194.246875 262.50625zM200.503125 262.50625L194.25 262.50625 194.25 256.253125 200.503125 256.253125 200.503125 262.50625zM200.503125 262.50625L206.740625 262.50625 206.740625 268.74375 200.503125 268.74375 200.503125 262.50625zM181.740625 256.253125L181.740625 250 175.503125 250 175.503125 256.253125 181.740625 256.253125zM225.5 274.996875L219.246875 274.996875 219.246875 281.25 225.5 281.25 225.5 274.996875zM219.246875 262.50625L225.5 262.50625 225.5 268.759375 219.246875 268.759375 219.246875 262.50625zM225.5 249.996875L219.246875 249.996875 219.246875 256.25 225.5 256.25 225.5 249.996875zM219.246875 237.50625L225.5 237.50625 225.5 243.759375 219.246875 243.759375 219.246875 237.50625zM219.246875 225L225.5 225 225.5 231.253125 219.246875 231.253125 219.246875 225z"/>
      <path fill="#4038FF" d="M274.996875,112.5 L281.25,112.5 L281.25,56.25 L274.996875,56.25 L274.996875,112.5 Z M268.75,112.5 L262.5,112.5 L262.5,56.25 L268.75,56.25 L268.75,112.5 Z M256.25,112.5 L250,112.5 L250,56.25 L256.25,56.25 L256.25,112.5 Z M237.5,112.5 L243.75,112.5 L243.75,56.25 L237.5,56.25 L237.5,112.5 Z M231.25,112.5 L225,112.5 L225,56.25 L231.25,56.25 L231.25,112.5 Z"/>
      <path fill="#1F242C" d="M225 49.996875L225 56.25 168.75 56.25 168.75 49.996875 225 49.996875zM225 31.24375L225 24.990625 168.75 24.990625 168.75 31.24375 225 31.24375zM225 12.490625L225 18.74375 168.75 18.74375 168.75 12.490625 225 12.490625zM225 0L225 6.253125 168.75 6.253125 168.75 0 225 0zM225 43.74375L225 37.490625 168.75 37.490625 168.75 43.74375 225 43.74375zM275 168.75L281.25 168.75C281.25 199.815625 256.065625 225 225 225L225 218.75C252.615625 218.75 275 196.365625 275 168.75zM262.5 168.75L268.75 168.75C268.75 192.9125 249.1625 212.5 225 212.5L225 206.25C245.709375 206.25 262.5 189.459375 262.5 168.75zM256.25 168.75L250 168.75C250 182.55625 238.80625 193.75 225 193.75L225 200C242.259375 200 256.25 186.009375 256.25 168.75zM237.5 168.75L243.75 168.75C243.75 179.10625 235.35625 187.5 225 187.5L225 181.25C231.903125 181.25 237.5 175.653125 237.5 168.75zM225 168.75L231.25 168.75C231.25 172.203125 228.453125 175 225 175L225 168.75z"/>
      <path fill="#FFF" d="M168.75 164.34375L168.75 168.75 164.34375 168.75 112.5 116.90625 112.5 112.5 116.90625 112.5 168.75 164.34375zM112.5 125.75L112.5 134.59375 146.65625 168.75 155.5 168.75 112.5 125.75zM112.5 152.28125L112.5 143.4375 137.8125 168.75 128.96875 168.75 112.5 152.28125zM112.5 168.75L120.125 168.75 112.5 161.125 112.5 168.75zM125.75 112.5L134.59375 112.5 168.75 146.65625 168.75 155.5 125.75 112.5zM152.28125 112.5L143.4375 112.5 168.75 137.8125 168.75 128.96875 152.28125 112.5zM168.75 120.125L161.125 112.5 168.75 112.5 168.75 120.125zM56.5 6.253125L56.5 0 .25 0 .25 6.253125 56.5 6.253125zM56.5 12.5L56.5 18.75.25 18.75.25 12.5 56.5 12.5zM56.5 25L56.5 31.25.25 31.25.25 25 56.5 25zM56.5 43.75L56.5 37.5.25 37.5.25 43.75 56.5 43.75zM56.5 50L56.5 56.25.25 56.25.25 50 56.5 50z"/>
      <path fill="#4038FF" fill-rule="nonzero" d="M225,281.25 L225,337.5 L281.25,337.5 C281.25,306.434375 256.065625,281.25 225,281.25 Z" transform="rotate(-90 253.125 309.375)"/>
      <path fill="#1F242C" fill-rule="nonzero" d="M56.5,56.25 L112.75,56.25 L112.75,0 C81.684375,0 56.5,25.184375 56.5,56.25 Z" transform="rotate(-90 84.625 28.125)"/>
      <path fill="#4038FF" d="M62.753125,112.5 L56.5,112.5 L56.5,56.25 L62.753125,56.25 L62.753125,112.5 Z M81.50625,112.5 L87.759375,112.5 L87.759375,56.25 L81.50625,56.25 L81.50625,112.5 Z M100.259375,112.5 L94.00625,112.5 L94.00625,56.25 L100.259375,56.25 L100.259375,112.5 Z M112.75,112.5 L106.496875,112.5 L106.496875,56.25 L112.75,56.25 L112.75,112.5 Z M69.00625,112.5 L75.259375,112.5 L75.259375,56.25 L69.00625,56.25 L69.00625,112.5 Z"/>
    </g>
  </g>
</svg>
