<?xml version="1.0" encoding="UTF-8"?>
<svg width="1200px" height="675px" viewBox="0 0 1200 675" version="1.1" xmlns="http://www.w3.org/2000/svg" xmlns:xlink="http://www.w3.org/1999/xlink">
    <!-- Generator: Sketch 59.1 (86144) - https://sketch.com -->
    <title>Twitter-template-01</title>
    <desc>Created with Sketch.</desc>
    <g id="Twitter-template-01" stroke="none" stroke-width="1" fill="none" fill-rule="evenodd">
        <rect fill="#000000" x="0" y="0" width="1200" height="675"></rect>
        <path d="M898.55589,338 L861,338 C861,151.330862 1012.33018,0 1199,0 L1199,37.5555556 C1033.06125,37.5555556 898.55589,172.061529 898.55589,338 Z M973.667096,338 L936.111111,338 C936.111111,192.810222 1053.80999,75.1111111 1199,75.1111111 L1199,112.666667 C1074.55915,112.666667 973.667096,213.558916 973.667096,338 Z M1010.72148,338 L1048.17749,338 C1048.17749,255.259507 1115.2588,188.17837 1197.99852,188.17837 L1197.99852,150.722963 C1094.56487,150.722963 1010.72148,234.566143 1010.72148,338 Z M1123.21924,338 L1085.83259,338 C1085.83259,276.045525 1136.0447,225.834074 1197.99852,225.834074 L1197.99852,263.222716 C1156.70196,263.222716 1123.21924,296.704993 1123.21924,338 Z M1197.99852,338 L1161.44444,338 C1161.44444,317.804605 1177.8029,301.445926 1197.99852,301.445926 L1197.99852,338 Z" id="Shape" fill="#4038FF" transform="translate(1030.000000, 169.000000) rotate(-180.000000) translate(-1030.000000, -169.000000) "></path>
        <path d="M898.55589,676 L861,676 C861,489.330862 1012.33018,338 1199,338 L1199,375.555556 C1033.06125,375.555556 898.55589,510.061529 898.55589,676 Z M973.667096,676 L936.111111,676 C936.111111,530.810222 1053.80999,413.111111 1199,413.111111 L1199,450.666667 C1074.55915,450.666667 973.667096,551.558916 973.667096,676 Z M1010.72148,676 L1048.17749,676 C1048.17749,593.259507 1115.2588,526.17837 1197.99852,526.17837 L1197.99852,488.722963 C1094.56487,488.722963 1010.72148,572.566143 1010.72148,676 Z M1123.21924,676 L1085.83259,676 C1085.83259,614.045525 1136.0447,563.834074 1197.99852,563.834074 L1197.99852,601.222716 C1156.70196,601.222716 1123.21924,634.704993 1123.21924,676 Z M1197.99852,676 L1161.44444,676 C1161.44444,655.804605 1177.8029,639.445926 1197.99852,639.445926 L1197.99852,676 Z" id="Shape-Copy" fill="#4038FF" transform="translate(1030.000000, 507.000000) rotate(-90.000000) translate(-1030.000000, -507.000000) "></path>
        <text id="Acropolis-Network-An" font-family="Inter-Bold, Inter" font-size="100" font-weight="bold" line-spacing="90">
            <tspan x="120" y="471" fill="#4038FF">Acropolis</tspan>
            <tspan x="672.272727" y="499.268188" font-family="Inter-Regular, Inter" font-size="81" font-weight="normal" fill="#FFFFFF"></tspan>
            <tspan x="147.627841" y="589.268188" font-family="Inter-Regular, Inter" font-size="70" font-weight="normal" fill="#FFFFFF">Network Announced</tspan>
        </text>
        <g id="Group-29" transform="translate(120.000000, 120.000000)" fill-rule="nonzero">
            <path d="M41.36675,36.3 L41.36675,33.1 L46.4,33.1 L46.4,12.7 L49.93325,12.7 L49.93325,33.36675 C49.93325,34.96675 48.63325,36.3 47,36.3 L41.36675,36.3 Z M54.53325,27.66675 C52.83325,25.96675 51.96675,23.83325 51.96675,21.3 C51.96675,18.76675 52.83325,16.63325 54.53325,14.93325 C56.23325,13.23325 58.36675,12.36675 60.9,12.36675 C63.43325,12.36675 65.53325,13.23325 67.26675,14.93325 C68.96675,16.63325 69.83325,18.76675 69.83325,21.3 C69.83325,23.83325 68.96675,25.96675 67.26675,27.66675 C65.56675,29.36675 63.43325,30.23325 60.9,30.23325 C58.33325,30.23325 56.23325,29.36675 54.53325,27.66675 Z M57.1,17.1 C56.13325,18.13325 55.66675,19.53325 55.66675,21.26675 C55.66675,23 56.13325,24.4 57.1,25.43325 C58.06675,26.46675 59.33325,27 60.86675,27 C62.4,27 63.66675,26.46675 64.63325,25.43325 C65.6,24.4 66.06675,23 66.06675,21.26675 C66.06675,19.53325 65.6,18.13325 64.63325,17.1 C63.66675,16.06675 62.4,15.53325 60.86675,15.53325 C59.33325,15.56675 58.06675,16.06675 57.1,17.1 Z M70.1,12.7 L73.8,12.7 L77.5,26.53325 L79.33325,26.53325 L83.36675,12.7 L87.06675,12.7 L80,36.3 L76.3,36.3 L78.3,29.9 L77,29.9 C75.7,29.9 74.53325,29.03325 74.2,27.76675 L70.1,12.7 Z M86.73325,24.5 L90.6,24.5 C90.63325,24.56675 90.66675,24.66675 90.73325,24.76675 C90.8,24.86675 90.93325,25.06675 91.13325,25.36675 C91.33325,25.66675 91.6,25.93325 91.86675,26.13325 C92.13325,26.36675 92.56675,26.56675 93.06675,26.73325 C93.6,26.9 94.16675,27 94.8,27 C96.03325,27 96.93325,26.8 97.5,26.43325 C98.06675,26.06675 98.33325,25.56675 98.33325,25 C98.33325,24.46675 97.96675,24.03325 97.23325,23.73325 C96.5,23.43325 95.6,23.16675 94.53325,22.96675 C93.46675,22.76675 92.43325,22.5 91.36675,22.16675 C90.3,21.83325 89.43325,21.3 88.66675,20.5 C87.93325,19.7 87.56675,18.7 87.56675,17.43325 C87.56675,16.1 88.16675,14.9 89.4,13.9 C90.63325,12.9 92.26675,12.4 94.26675,12.4 C95.53325,12.4 96.63325,12.6 97.63325,12.96675 C98.63325,13.33325 99.36675,13.8 99.86675,14.3 C100.36675,14.83325 100.76675,15.36675 101.1,15.9 C101.43325,16.43325 101.63325,16.86675 101.73325,17.26675 L101.86675,17.8 L98.16675,17.8 C98.13325,17.73325 98.1,17.66675 98.06675,17.56675 C98.03325,17.46675 97.9,17.3 97.7,17.03325 C97.5,16.76675 97.3,16.56675 97.03325,16.36675 C96.76675,16.16675 96.4,16 95.93325,15.83325 C95.46675,15.66675 94.9,15.6 94.3,15.6 C93.3,15.6 92.56675,15.76675 92.03325,16.13325 C91.53325,16.5 91.26675,16.93325 91.26675,17.46675 C91.26675,17.9 91.53325,18.3 92.06675,18.6 C92.6,18.9 93.26675,19.13325 94.06675,19.26675 C94.86675,19.4 95.73325,19.6 96.66675,19.86675 C97.6,20.13325 98.43325,20.43325 99.26675,20.76675 C100.06675,21.1 100.73325,21.63325 101.26675,22.36675 C101.8,23.1 102.06675,24 102.06675,25.03325 C102.06675,26.46675 101.43325,27.7 100.13325,28.73325 C98.83325,29.76675 97.06675,30.26675 94.83325,30.26675 C93.5,30.26675 92.33325,30.06675 91.3,29.66675 C90.26675,29.26675 89.46675,28.8 88.93325,28.23325 C88.4,27.66675 87.96675,27.1 87.6,26.53325 C87.26675,25.96675 87.03325,25.5 86.93325,25.13325 L86.73325,24.5 Z M102.7,15.9 L102.7,12.7 L104.7,12.7 L104.7,9 L108.23325,9 L108.23325,12.7 L113.46675,12.7 L113.46675,15.9 L108.26675,15.9 L108.26675,26.7 L113.63325,26.7 L113.63325,29.9 L107.63325,29.9 C106.03325,29.9 104.7,28.6 104.7,26.96675 L104.7,15.9 L102.7,15.9 Z M119.16675,15.9 L119.16675,29.9 L115.63325,29.9 L115.63325,15.26675 C115.63325,13.86675 116.76675,12.7 118.2,12.7 L119.16675,12.7 L126.06675,12.7 L126.06675,15.9 L119.16675,15.9 Z M128.46675,27.66675 C126.8,25.93325 125.93325,23.8 125.93325,21.3 C125.93325,18.8 126.8,16.66675 128.46675,14.93325 C130.16675,13.2 132.23325,12.36675 134.66675,12.36675 C137.1,12.36675 139.16675,13.23325 140.86675,14.93325 C142.56675,16.66675 143.4,18.76675 143.4,21.3 L143.4,22.46675 L129.46675,22.46675 C129.7,23.86675 130.33325,24.96675 131.26675,25.8 C132.23325,26.63325 133.36675,27.03325 134.66675,27.03325 C135.73325,27.03325 136.63325,26.83325 137.46675,26.43325 C138.26675,26.03325 138.83325,25.63325 139.1,25.23325 L139.53325,24.66675 L143.23325,24.66675 C143.2,24.83325 143.1,25.03325 143,25.26675 C142.9,25.5 142.6,25.96675 142.13325,26.6 C141.66675,27.23325 141.16675,27.8 140.56675,28.3 C140,28.76675 139.16675,29.23325 138.1,29.63325 C137.03325,30.03325 135.9,30.23325 134.63325,30.23325 C132.23325,30.23325 130.16675,29.36675 128.46675,27.66675 Z M130.1,19.6 L140.16675,19.6 C140,18.5 139.46675,17.53325 138.56675,16.76675 C137.66675,15.96675 136.53325,15.56675 135.13325,15.56675 C133.93325,15.56675 132.83325,15.93325 131.9,16.66675 C130.96675,17.4 130.36675,18.36675 130.1,19.6 Z M146.7,27.76675 C145.16675,26.1 144.4,23.93325 144.4,21.3 C144.4,18.66675 145.16675,16.5 146.7,14.83325 C148.23325,13.16675 150.16675,12.36675 152.46675,12.36675 C153.53325,12.36675 154.5,12.56675 155.4,13 C156.3,13.43325 156.93325,13.83325 157.3,14.23325 L157.83325,14.86675 L158,14.86675 L158,12.66675 L161.53325,12.66675 L161.53325,29.86675 L158,29.86675 L158,27.5 L157.83325,27.5 C157.8,27.56675 157.7,27.66675 157.6,27.8 C157.5,27.93325 157.26675,28.13325 156.93325,28.46675 C156.6,28.76675 156.23325,29.06675 155.86675,29.3 C155.5,29.53325 154.96675,29.73325 154.36675,29.93325 C153.73325,30.13325 153.1,30.23325 152.46675,30.23325 C150.2,30.23325 148.26675,29.4 146.7,27.76675 Z M164.6,29.9 L164.6,12.7 L168.13325,12.7 L168.13325,15.06675 L168.3,15.06675 C168.33325,15 168.4,14.9 168.46675,14.76675 C168.53325,14.63325 168.7,14.43325 169,14.1 C169.3,13.8 169.6,13.5 169.96675,13.26675 C170.3,13.03325 170.8,12.83325 171.4,12.63325 C172,12.43325 172.66675,12.33325 173.33325,12.33325 C174.13325,12.33325 174.9,12.43325 175.56675,12.66675 C176.26675,12.9 176.8,13.16675 177.16675,13.46675 C177.56675,13.76675 177.9,14.1 178.16675,14.4 C178.43325,14.7 178.6,14.96675 178.7,15.2 L178.86675,15.53325 L179.03325,15.53325 C179.06675,15.43325 179.13325,15.33325 179.23325,15.16675 C179.3,15.03325 179.53325,14.76675 179.86675,14.4 C180.2,14.03325 180.56675,13.73325 180.96675,13.43325 C181.36675,13.16675 181.93325,12.9 182.63325,12.66675 C183.36675,12.43325 184.1,12.3 184.93325,12.3 C186.9,12.3 188.46675,12.93325 189.6,14.2 C190.73325,15.46675 191.3,17.23325 191.3,19.56675 L191.3,29.83325 L187.76675,29.83325 L187.76675,19.76675 C187.76675,16.96675 186.53325,15.56675 184.06675,15.56675 C182.86675,15.56675 181.83325,16.03325 180.96675,16.93325 C180.1,17.86675 179.7,19.03325 179.7,20.43325 L179.7,29.86675 L176.16675,29.86675 L176.16675,19.76675 C176.16675,16.96675 174.93325,15.56675 172.46675,15.56675 C171.26675,15.56675 170.23325,16.03325 169.36675,16.93325 C168.5,17.86675 168.1,19.03325 168.1,20.43325 L168.1,29.86675 L164.6,29.86675 L164.6,29.9 Z M46.43325,6.13325 L46.43325,9.66675 L49.96675,9.66675 L49.96675,6.13325 L46.43325,6.13325 Z M149.06675,17.1 C148.1,18.13325 147.63325,19.53325 147.63325,21.26675 C147.63325,23 148.1,24.4 149.06675,25.43325 C150.03325,26.46675 151.3,27 152.83325,27 C154.36675,27 155.63325,26.46675 156.6,25.43325 C157.56675,24.4 158.03325,23 158.03325,21.26675 C158.03325,19.53325 157.56675,18.13325 156.6,17.1 C155.63325,16.06675 154.36675,15.53325 152.83325,15.53325 C151.3,15.56675 150.03325,16.06675 149.06675,17.1 Z" id="Shape" fill="#FFFFFF"></path>
            <g id="Group" fill="#4038FF">
                <path d="M28.06675,2.7000624e-13 L31.7,2.7000624e-13 L31.7,10.43325 C31.7,14.6 30.13325,18.43325 27.56675,21.33325 C27.9,19.93325 28.06675,18.5 28.06675,17 L28.06675,2.7000624e-13 Z" id="Path"></path>
                <path d="M9.8,29.7665 C9.7,29.8665 9.63325,29.9665 9.53325,30.0665 C9.5,30.1 9.46675,30.13325 9.43325,30.1665 C9.33325,30.2665 9.26675,30.3665 9.16675,30.43325 C9.13325,30.4665 9.06675,30.53325 9.03325,30.5665 C8.93325,30.6665 8.83325,30.7665 8.7,30.8665 C8.56675,31 8.43325,31.1 8.3,31.23325 C8.16675,31.3665 8.03325,31.4665 7.86675,31.5665 C7.73325,31.6665 7.6,31.7665 7.46675,31.8665 C7.13325,32.0665 6.8,32.2665 6.46675,32.43325 C6.4,32.4665 6.33325,32.5 6.23325,32.53325 C6.13325,32.5665 6.06675,32.6 6,32.63325 C5.9,32.6665 5.83325,32.7 5.73325,32.73325 C5.56675,32.8 5.4,32.8665 5.2,32.93325 C5.2,32.93325 5.2,32.93325 5.16675,32.93325 C5,33 4.83325,33.03325 4.66675,33.0665 L4.63325,33.0665 C4.46675,33.1 4.3,33.1665 4.13325,33.2 C3.93325,33.23325 3.7,33.3 3.5,33.3 C3.43325,33.3 3.36675,33.33325 3.3,33.33325 L3.26675,33.33325 C3.06675,33.3665 2.9,33.3665 2.7,33.3665 C2.6,33.3665 2.5,33.3665 2.4,33.3665 C2.3,33.3665 2.2,33.3665 2.1,33.3665 L1.96675,33.3665 L3.06675,29.73325 L9.8,29.73325 L9.8,29.7665 Z" id="Path"></path>
                <path d="M25.13325,-7.10542736e-15 L25.13325,17 C25.13325,17.26675 25.13325,17.56675 25.1,17.83325 C25.1,17.96675 25.1,18.1 25.06675,18.23325 C25.06675,18.36675 25.03325,18.5 25.03325,18.63325 C25.03325,18.76675 25,18.9 25,19.03325 C25,19.13325 24.96675,19.26675 24.96675,19.36675 L24.96675,19.4 C24.96675,19.43325 24.96675,19.46675 24.96675,19.46675 C24.93325,19.6 24.93325,19.73325 24.9,19.83325 C24.86675,19.96675 24.86675,20.1 24.83325,20.2 L24.83325,20.23325 C24.8,20.33325 24.8,20.43325 24.76675,20.53325 C24.76675,20.56675 24.76675,20.56675 24.76675,20.6 C24.66675,21 24.56675,21.43325 24.43325,21.83325 C24.4,21.93325 24.36675,22.06675 24.33325,22.16675 C24.3,22.3 24.26675,22.4 24.2,22.53325 C24.16675,22.66675 24.1,22.76675 24.06675,22.86675 C24.03325,23 23.96675,23.1 23.93325,23.2 C23.9,23.33325 23.83325,23.43325 23.8,23.53325 C23.76675,23.63325 23.7,23.76675 23.63325,23.86675 C23.6,23.96675 23.53325,24.1 23.46675,24.2 C23.4,24.3 23.36675,24.43325 23.3,24.53325 C23.26675,24.63325 23.2,24.7 23.16675,24.8 C23.06675,25 22.96675,25.16675 22.83325,25.36675 C22.73325,25.53325 22.63325,25.7 22.53325,25.83325 C22.46675,25.96675 22.4,26.06675 22.3,26.16675 C22.26675,26.23325 22.2,26.3 22.16675,26.33325 C22.06675,26.46675 22,26.56675 21.9,26.66675 C21.8,26.8 21.7,26.9 21.63325,27.03325 C21.43325,27.26675 21.23325,27.5 21.03325,27.73325 C21.06675,27.6 21.1,27.46675 21.13325,27.33325 C21.16675,27.23325 21.16675,27.13325 21.2,27.03325 C21.2,27.03325 21.2,27.03325 21.2,27 C21.2,26.96675 21.2,26.96675 21.2,26.93325 C21.23325,26.8 21.23325,26.66675 21.26675,26.53325 C21.3,26.36675 21.33325,26.2 21.33325,26.06675 C21.33325,25.96675 21.36675,25.86675 21.36675,25.8 C21.36675,25.7 21.4,25.63325 21.4,25.53325 C21.43325,25.36675 21.43325,25.2 21.46675,25 C21.46675,24.96675 21.46675,24.96675 21.46675,24.93325 C21.46675,24.9 21.46675,24.9 21.46675,24.86675 C21.46675,24.73325 21.5,24.63325 21.5,24.5 C21.5,24.4 21.5,24.3 21.5,24.2 L21.5,24.33325 C21.5,24.23325 21.5,24.13325 21.5,24.03325 C21.5,23.86675 21.5,23.73325 21.5,23.56675 L21.5,-7.10542736e-15 L25.13325,-7.10542736e-15 Z" id="Path"></path>
                <path d="M18.56675,0 L18.56675,23.56675 C18.56675,24.13325 18.53325,24.66675 18.5,25.2 C18.46675,25.66675 18.4,26.1 18.3,26.56675 C18.1,27.63325 17.8,28.66675 17.4,29.63325 C17.16675,30.23325 16.86675,30.83325 16.56675,31.4 C15.63325,33.06675 14.43325,34.56675 13.03325,35.83325 C10.13325,38.43325 6.3,40 2.13325,40 L-9.23705556e-14,40 L1.1,36.36675 L2.16675,36.36675 C5.3,36.36675 8.16675,35.23325 10.36675,33.36675 C11.56675,32.36675 12.56675,31.16675 13.3,29.8 C13.5,29.46675 13.66675,29.1 13.83325,28.73325 C14.1,28.13325 14.3,27.53325 14.46675,26.9 C14.66675,26.2 14.8,25.46675 14.83325,24.73325 C14.86675,24.36675 14.86675,24 14.86675,23.63325 L14.86675,0 L18.56675,0 Z" id="Path"></path>
                <path d="M12,23.2 L12,23.56675 C12,23.86675 12,24.16675 11.96675,24.4335 C11.9,25 11.83325,25.56675 11.66675,26.1 C11.6,26.36675 11.53325,26.6335 11.43325,26.86675 L3.93325,26.86675 L5.03325,23.2335 L12,23.2335 L12,23.2 Z" id="Path"></path>
            </g>
        </g>
    </g>
</svg>