<svg xmlns="http://www.w3.org/2000/svg" width="1200" height="675" viewBox="0 0 1200 675">
  <g fill="none" fill-rule="evenodd">
    <path fill="#000" d="M0 0H1200V675H0z"/>
    <g transform="rotate(-90 192 192)">
      <path fill="#4038FF" d="M199.111111,184.888889 L199.111111,192 L192,192 L192,184.888889 L199.111111,184.888889 Z M213.333333,184.888889 L213.333333,192 L206.222222,192 L206.222222,184.888889 L213.333333,184.888889 Z M227.555556,184.888889 L227.555556,192 L220.444444,192 L220.444444,184.888889 L227.555556,184.888889 Z M241.777778,184.888889 L241.777778,192 L234.666667,192 L234.666667,184.888889 L241.777778,184.888889 Z M256,184.888889 L256,192 L248.888889,192 L248.888889,184.888889 L256,184.888889 Z M206.222222,177.777778 L206.222222,184.888889 L199.111111,184.888889 L199.111111,177.777778 L206.222222,177.777778 Z M220.444444,177.777778 L220.444444,184.888889 L213.333333,184.888889 L213.333333,177.777778 L220.444444,177.777778 Z M234.666667,177.777778 L234.666667,184.888889 L227.555556,184.888889 L227.555556,177.777778 L234.666667,177.777778 Z M248.888889,177.777778 L248.888889,184.888889 L241.777778,184.888889 L241.777778,177.777778 L248.888889,177.777778 Z M199.111111,170.666667 L199.111111,177.777778 L192,177.777778 L192,170.666667 L199.111111,170.666667 Z M213.333333,170.666667 L213.333333,177.777778 L206.222222,177.777778 L206.222222,170.666667 L213.333333,170.666667 Z M227.555556,170.666667 L227.555556,177.777778 L220.444444,177.777778 L220.444444,170.666667 L227.555556,170.666667 Z M241.777778,170.666667 L241.777778,177.777778 L234.666667,177.777778 L234.666667,170.666667 L241.777778,170.666667 Z M256,170.666667 L256,177.777778 L248.888889,177.777778 L248.888889,170.666667 L256,170.666667 Z M206.222222,163.555556 L206.222222,170.666667 L199.111111,170.666667 L199.111111,163.555556 L206.222222,163.555556 Z M220.444444,163.555556 L220.444444,170.666667 L213.333333,170.666667 L213.333333,163.555556 L220.444444,163.555556 Z M234.666667,163.555556 L234.666667,170.666667 L227.555556,170.666667 L227.555556,163.555556 L234.666667,163.555556 Z M248.888889,163.555556 L248.888889,170.666667 L241.777778,170.666667 L241.777778,163.555556 L248.888889,163.555556 Z M227.555556,156.444444 L227.555556,163.555556 L220.444444,163.555556 L220.444444,156.444444 L227.555556,156.444444 Z M241.777778,156.444444 L241.777778,163.555556 L234.666667,163.555556 L234.666667,156.444444 L241.777778,156.444444 Z M256,156.444444 L256,163.555556 L248.888889,163.555556 L248.888889,156.444444 L256,156.444444 Z M199.111111,156.444444 L199.111111,163.555556 L192,163.555556 L192,156.444444 L199.111111,156.444444 Z M213.333333,156.444444 L213.333333,163.555556 L206.222222,163.555556 L206.222222,156.444444 L213.333333,156.444444 Z M206.222222,149.333333 L206.222222,156.444444 L199.111111,156.444444 L199.111111,149.333333 L206.222222,149.333333 Z M220.444444,149.333333 L220.444444,156.444444 L213.333333,156.444444 L213.333333,149.333333 L220.444444,149.333333 Z M234.666667,149.333333 L234.666667,156.444444 L227.555556,156.444444 L227.555556,149.333333 L234.666667,149.333333 Z M248.888889,149.333333 L248.888889,156.444444 L241.777778,156.444444 L241.777778,149.333333 L248.888889,149.333333 Z M199.111111,142.222222 L199.111111,149.333333 L192,149.333333 L192,142.222222 L199.111111,142.222222 Z M213.333333,142.222222 L213.333333,149.333333 L206.222222,149.333333 L206.222222,142.222222 L213.333333,142.222222 Z M227.555556,142.222222 L227.555556,149.333333 L220.444444,149.333333 L220.444444,142.222222 L227.555556,142.222222 Z M241.777778,142.222222 L241.777778,149.333333 L234.666667,149.333333 L234.666667,142.222222 L241.777778,142.222222 Z M256,142.222222 L256,149.333333 L248.888889,149.333333 L248.888889,142.222222 L256,142.222222 Z M206.222222,135.111111 L206.222222,142.222222 L199.111111,142.222222 L199.111111,135.111111 L206.222222,135.111111 Z M220.444444,135.111111 L220.444444,142.222222 L213.333333,142.222222 L213.333333,135.111111 L220.444444,135.111111 Z M234.666667,135.111111 L234.666667,142.222222 L227.555556,142.222222 L227.555556,135.111111 L234.666667,135.111111 Z M248.888889,135.111111 L248.888889,142.222222 L241.777778,142.222222 L241.777778,135.111111 L248.888889,135.111111 Z M199.111111,128 L199.111111,135.111111 L192,135.111111 L192,128 L199.111111,128 Z M213.333333,128 L213.333333,135.111111 L206.222222,135.111111 L206.222222,128 L213.333333,128 Z M227.555556,128 L227.555556,135.111111 L220.444444,135.111111 L220.444444,128 L227.555556,128 Z M241.777778,128 L241.777778,135.111111 L234.666667,135.111111 L234.666667,128 L241.777778,128 Z M256,128 L256,135.111111 L248.888889,135.111111 L248.888889,128 L256,128 Z"/>
      <path fill="#FFF" d="M263.111111,504.888889 L263.111111,512 L256,512 L256,504.888889 L263.111111,504.888889 Z M277.333333,504.888889 L277.333333,512 L270.222222,512 L270.222222,504.888889 L277.333333,504.888889 Z M291.555556,504.888889 L291.555556,512 L284.444444,512 L284.444444,504.888889 L291.555556,504.888889 Z M305.777778,504.888889 L305.777778,512 L298.666667,512 L298.666667,504.888889 L305.777778,504.888889 Z M320,504.888889 L320,512 L312.888889,512 L312.888889,504.888889 L320,504.888889 Z M270.222222,497.777778 L270.222222,504.888889 L263.111111,504.888889 L263.111111,497.777778 L270.222222,497.777778 Z M284.444444,497.777778 L284.444444,504.888889 L277.333333,504.888889 L277.333333,497.777778 L284.444444,497.777778 Z M298.666667,497.777778 L298.666667,504.888889 L291.555556,504.888889 L291.555556,497.777778 L298.666667,497.777778 Z M312.888889,497.777778 L312.888889,504.888889 L305.777778,504.888889 L305.777778,497.777778 L312.888889,497.777778 Z M263.111111,490.666667 L263.111111,497.777778 L256,497.777778 L256,490.666667 L263.111111,490.666667 Z M277.333333,490.666667 L277.333333,497.777778 L270.222222,497.777778 L270.222222,490.666667 L277.333333,490.666667 Z M291.555556,490.666667 L291.555556,497.777778 L284.444444,497.777778 L284.444444,490.666667 L291.555556,490.666667 Z M305.777778,490.666667 L305.777778,497.777778 L298.666667,497.777778 L298.666667,490.666667 L305.777778,490.666667 Z M320,490.666667 L320,497.777778 L312.888889,497.777778 L312.888889,490.666667 L320,490.666667 Z M270.222222,483.555556 L270.222222,490.666667 L263.111111,490.666667 L263.111111,483.555556 L270.222222,483.555556 Z M284.444444,483.555556 L284.444444,490.666667 L277.333333,490.666667 L277.333333,483.555556 L284.444444,483.555556 Z M298.666667,483.555556 L298.666667,490.666667 L291.555556,490.666667 L291.555556,483.555556 L298.666667,483.555556 Z M312.888889,483.555556 L312.888889,490.666667 L305.777778,490.666667 L305.777778,483.555556 L312.888889,483.555556 Z M291.555556,476.444444 L291.555556,483.555556 L284.444444,483.555556 L284.444444,476.444444 L291.555556,476.444444 Z M305.777778,476.444444 L305.777778,483.555556 L298.666667,483.555556 L298.666667,476.444444 L305.777778,476.444444 Z M320,476.444444 L320,483.555556 L312.888889,483.555556 L312.888889,476.444444 L320,476.444444 Z M263.111111,476.444444 L263.111111,483.555556 L256,483.555556 L256,476.444444 L263.111111,476.444444 Z M277.333333,476.444444 L277.333333,483.555556 L270.222222,483.555556 L270.222222,476.444444 L277.333333,476.444444 Z M270.222222,469.333333 L270.222222,476.444444 L263.111111,476.444444 L263.111111,469.333333 L270.222222,469.333333 Z M284.444444,469.333333 L284.444444,476.444444 L277.333333,476.444444 L277.333333,469.333333 L284.444444,469.333333 Z M298.666667,469.333333 L298.666667,476.444444 L291.555556,476.444444 L291.555556,469.333333 L298.666667,469.333333 Z M312.888889,469.333333 L312.888889,476.444444 L305.777778,476.444444 L305.777778,469.333333 L312.888889,469.333333 Z M263.111111,462.222222 L263.111111,469.333333 L256,469.333333 L256,462.222222 L263.111111,462.222222 Z M277.333333,462.222222 L277.333333,469.333333 L270.222222,469.333333 L270.222222,462.222222 L277.333333,462.222222 Z M291.555556,462.222222 L291.555556,469.333333 L284.444444,469.333333 L284.444444,462.222222 L291.555556,462.222222 Z M305.777778,462.222222 L305.777778,469.333333 L298.666667,469.333333 L298.666667,462.222222 L305.777778,462.222222 Z M320,462.222222 L320,469.333333 L312.888889,469.333333 L312.888889,462.222222 L320,462.222222 Z M270.222222,455.111111 L270.222222,462.222222 L263.111111,462.222222 L263.111111,455.111111 L270.222222,455.111111 Z M284.444444,455.111111 L284.444444,462.222222 L277.333333,462.222222 L277.333333,455.111111 L284.444444,455.111111 Z M298.666667,455.111111 L298.666667,462.222222 L291.555556,462.222222 L291.555556,455.111111 L298.666667,455.111111 Z M312.888889,455.111111 L312.888889,462.222222 L305.777778,462.222222 L305.777778,455.111111 L312.888889,455.111111 Z M263.111111,448 L263.111111,455.111111 L256,455.111111 L256,448 L263.111111,448 Z M277.333333,448 L277.333333,455.111111 L270.222222,455.111111 L270.222222,448 L277.333333,448 Z M291.555556,448 L291.555556,455.111111 L284.444444,455.111111 L284.444444,448 L291.555556,448 Z M305.777778,448 L305.777778,455.111111 L298.666667,455.111111 L298.666667,448 L305.777778,448 Z M320,448 L320,455.111111 L312.888889,455.111111 L312.888889,448 L320,448 Z"/>
      <path fill="#4038FF" d="M192,71.04 L192,64 L128,64 L128,71.04 L192,71.04 Z M192,78.72 L192,85.76 L128,85.76 L128,78.72 L192,78.72 Z M192,92.16 L192,99.2 L128,99.2 L128,92.16 L192,92.16 Z M192,113.28 L192,106.24 L128,106.24 L128,113.28 L192,113.28 Z M192,120.96 L192,128 L128,128 L128,120.96 L192,120.96 Z"/>
      <path fill="#4038FF" d="M384,391.04 L384,384 L320,384 L320,391.04 L384,391.04 Z M384,398.72 L384,405.76 L320,405.76 L320,398.72 L384,398.72 Z M384,412.16 L384,419.2 L320,419.2 L320,412.16 L384,412.16 Z M384,433.28 L384,426.24 L320,426.24 L320,433.28 L384,433.28 Z M384,440.96 L384,448 L320,448 L320,440.96 L384,440.96 Z" transform="rotate(-90 352 416)"/>
      <path fill="#FFF" d="M256,248.96 L256,256 L192,256 L192,248.96 L256,248.96 Z M256,227.2 L256,220.16 L192,220.16 L192,227.2 L256,227.2 Z M256,206.72 L256,213.76 L192,213.76 L192,206.72 L256,206.72 Z M256,192 L256,199.04 L192,199.04 L192,192 L256,192 Z M256,241.28 L256,234.24 L192,234.24 L192,241.28 L256,241.28 Z"/>
      <path fill="#4038FF" d="M184.888826,256 L192,256 C192,291.345636 163.345765,320 128,320 L128,312.888889 C159.420356,312.888889 184.888826,287.420302 184.888826,256 Z M170.78849,256 L177.92,256 C177.92,283.570103 155.570148,305.92 128,305.92 L128,298.788571 C151.630087,298.788571 170.78849,279.630131 170.78849,256 Z M163.2,256 L156.16,256 C156.16,271.551078 143.551247,284.16 128,284.16 L128,291.2 C147.440749,291.2 163.2,275.441101 163.2,256 Z M142.506667,256 L149.76,256 C149.76,268.018483 140.018615,277.76 128,277.76 L128,270.506667 C136.011248,270.506667 142.506667,264.011162 142.506667,256 Z M128,256 L135.04,256 C135.04,259.889459 131.889503,263.04 128,263.04 L128,256 Z" transform="rotate(-90 160 288)"/>
      <path fill="#4038FF" fill-rule="nonzero" d="M320,576 L384,576 L384,512 C348.654235,512 320,540.654364 320,576 Z" transform="rotate(-90 352 544)"/>
      <path fill="#4038FF" d="M199.111174,320 L192,320 C192,284.654364 220.654235,256 256,256 L256,263.111111 C224.579644,263.111111 199.111174,288.579698 199.111174,320 Z M213.21151,320 L206.08,320 C206.08,292.429897 228.429852,270.08 256,270.08 L256,277.211429 C232.369913,277.211429 213.21151,296.369869 213.21151,320 Z M220.8,320 L227.840113,320 C227.840113,304.448358 240.448504,291.84 256,291.84 L256,284.8 C236.558939,284.8 220.8,300.558899 220.8,320 Z M241.492946,320 L234.24,320 C234.24,307.980937 243.981064,298.24 256,298.24 L256,305.493333 C247.988538,305.493333 241.492946,311.988838 241.492946,320 Z M256,320 L248.96,320 C248.96,316.110541 252.110497,312.96 256,312.96 L256,320 Z"/>
      <path fill="#1F252E" d="M7.11117438,64 L-2.84217094e-14,64 C-2.84217094e-14,28.6543644 28.6542349,0 64,0 L64,7.11111111 C32.5796441,7.11111111 7.11117438,32.5796978 7.11117438,64 Z M21.2115101,64 L14.08,64 C14.08,36.4298971 36.4298524,14.08 64,14.08 L64,21.2114286 C40.3699133,21.2114286 21.2115101,40.3698688 21.2115101,64 Z M28.8,64 L35.8401127,64 C35.8401127,48.4483584 48.4485043,35.84 64,35.84 L64,28.8 C44.5589392,28.8 28.8,44.5588992 28.8,64 Z M49.4929461,64 L42.24,64 C42.24,51.9809365 51.9810644,42.24 64,42.24 L64,49.4933333 C55.9885379,49.4933333 49.4929461,55.9888384 49.4929461,64 Z M64,64 L56.96,64 C56.96,60.1105408 60.1104972,56.96 64,56.96 L64,64 Z"/>
      <path fill="#1F252E" d="M199.111174,64 L192,64 C192,28.6543644 220.654235,0 256,0 L256,7.11111111 C224.579644,7.11111111 199.111174,32.5796978 199.111174,64 Z M213.21151,64 L206.08,64 C206.08,36.4298971 228.429852,14.08 256,14.08 L256,21.2114286 C232.369913,21.2114286 213.21151,40.3698688 213.21151,64 Z M220.8,64 L227.840113,64 C227.840113,48.4483584 240.448504,35.84 256,35.84 L256,28.8 C236.558939,28.8 220.8,44.5588992 220.8,64 Z M241.492946,64 L234.24,64 C234.24,51.9809365 243.981064,42.24 256,42.24 L256,49.4933333 C247.988538,49.4933333 241.492946,55.9888384 241.492946,64 Z M256,64 L248.96,64 C248.96,60.1105408 252.110497,56.96 256,56.96 L256,64 Z" transform="rotate(-90 224 32)"/>
      <path fill="#1F252E" d="M199.111174,448 L192,448 C192,412.654364 220.654235,384 256,384 L256,391.111111 C224.579644,391.111111 199.111174,416.579698 199.111174,448 Z M213.21151,448 L206.08,448 C206.08,420.429897 228.429852,398.08 256,398.08 L256,405.211429 C232.369913,405.211429 213.21151,424.369869 213.21151,448 Z M220.8,448 L227.840113,448 C227.840113,432.448358 240.448504,419.84 256,419.84 L256,412.8 C236.558939,412.8 220.8,428.558899 220.8,448 Z M241.492946,448 L234.24,448 C234.24,435.980937 243.981064,426.24 256,426.24 L256,433.493333 C247.988538,433.493333 241.492946,439.988838 241.492946,448 Z M256,448 L248.96,448 C248.96,444.110541 252.110497,440.96 256,440.96 L256,448 Z" transform="matrix(-1 0 0 1 448 0)"/>
      <path fill="#1F252E" d="M320,122.986951 L320,128 L314.986477,128 L256,69.0136178 L256,64 L261.012954,64 L320,122.986951 Z M256,79.36 L256,89.3640037 L294.636655,128 L304.64,128 L256,79.36 Z M256,109.261938 L256,99.2 L284.8,128 L274.737651,128 L256,109.261938 Z M256,128 L264.96,128 L256,119.04 L256,128 Z M271.36,64 L281.363795,64 L320,102.635996 L320,112.64 L271.36,64 Z M301.262349,64 L291.2,64 L320,92.8 L320,82.7380622 L301.262349,64 Z M320,72.96 L311.04,64 L320,64 L320,72.96 Z" transform="rotate(90 288 96)"/>
      <path fill="#4038FF" d="M384,186.986951 L384,192 L378.986477,192 L320,133.013618 L320,128 L325.012954,128 L384,186.986951 Z M320,143.36 L320,153.364004 L358.636655,192 L368.64,192 L320,143.36 Z M320,173.261938 L320,163.2 L348.8,192 L338.737651,192 L320,173.261938 Z M320,192 L328.96,192 L320,183.04 L320,192 Z M335.36,128 L345.363795,128 L384,166.635996 L384,176.64 L335.36,128 Z M365.262349,128 L355.2,128 L384,156.8 L384,146.738062 L365.262349,128 Z M384,136.96 L375.04,128 L384,128 L384,136.96 Z" transform="rotate(90 352 160)"/>
    </g>
    <g transform="rotate(90 550.5 841.5)">
      <path fill="#FFF" d="M263.111111,504.888889 L263.111111,512 L256,512 L256,504.888889 L263.111111,504.888889 Z M277.333333,504.888889 L277.333333,512 L270.222222,512 L270.222222,504.888889 L277.333333,504.888889 Z M291.555556,504.888889 L291.555556,512 L284.444444,512 L284.444444,504.888889 L291.555556,504.888889 Z M305.777778,504.888889 L305.777778,512 L298.666667,512 L298.666667,504.888889 L305.777778,504.888889 Z M320,504.888889 L320,512 L312.888889,512 L312.888889,504.888889 L320,504.888889 Z M270.222222,497.777778 L270.222222,504.888889 L263.111111,504.888889 L263.111111,497.777778 L270.222222,497.777778 Z M284.444444,497.777778 L284.444444,504.888889 L277.333333,504.888889 L277.333333,497.777778 L284.444444,497.777778 Z M298.666667,497.777778 L298.666667,504.888889 L291.555556,504.888889 L291.555556,497.777778 L298.666667,497.777778 Z M312.888889,497.777778 L312.888889,504.888889 L305.777778,504.888889 L305.777778,497.777778 L312.888889,497.777778 Z M263.111111,490.666667 L263.111111,497.777778 L256,497.777778 L256,490.666667 L263.111111,490.666667 Z M277.333333,490.666667 L277.333333,497.777778 L270.222222,497.777778 L270.222222,490.666667 L277.333333,490.666667 Z M291.555556,490.666667 L291.555556,497.777778 L284.444444,497.777778 L284.444444,490.666667 L291.555556,490.666667 Z M305.777778,490.666667 L305.777778,497.777778 L298.666667,497.777778 L298.666667,490.666667 L305.777778,490.666667 Z M320,490.666667 L320,497.777778 L312.888889,497.777778 L312.888889,490.666667 L320,490.666667 Z M270.222222,483.555556 L270.222222,490.666667 L263.111111,490.666667 L263.111111,483.555556 L270.222222,483.555556 Z M284.444444,483.555556 L284.444444,490.666667 L277.333333,490.666667 L277.333333,483.555556 L284.444444,483.555556 Z M298.666667,483.555556 L298.666667,490.666667 L291.555556,490.666667 L291.555556,483.555556 L298.666667,483.555556 Z M312.888889,483.555556 L312.888889,490.666667 L305.777778,490.666667 L305.777778,483.555556 L312.888889,483.555556 Z M291.555556,476.444444 L291.555556,483.555556 L284.444444,483.555556 L284.444444,476.444444 L291.555556,476.444444 Z M305.777778,476.444444 L305.777778,483.555556 L298.666667,483.555556 L298.666667,476.444444 L305.777778,476.444444 Z M320,476.444444 L320,483.555556 L312.888889,483.555556 L312.888889,476.444444 L320,476.444444 Z M263.111111,476.444444 L263.111111,483.555556 L256,483.555556 L256,476.444444 L263.111111,476.444444 Z M277.333333,476.444444 L277.333333,483.555556 L270.222222,483.555556 L270.222222,476.444444 L277.333333,476.444444 Z M270.222222,469.333333 L270.222222,476.444444 L263.111111,476.444444 L263.111111,469.333333 L270.222222,469.333333 Z M284.444444,469.333333 L284.444444,476.444444 L277.333333,476.444444 L277.333333,469.333333 L284.444444,469.333333 Z M298.666667,469.333333 L298.666667,476.444444 L291.555556,476.444444 L291.555556,469.333333 L298.666667,469.333333 Z M312.888889,469.333333 L312.888889,476.444444 L305.777778,476.444444 L305.777778,469.333333 L312.888889,469.333333 Z M263.111111,462.222222 L263.111111,469.333333 L256,469.333333 L256,462.222222 L263.111111,462.222222 Z M277.333333,462.222222 L277.333333,469.333333 L270.222222,469.333333 L270.222222,462.222222 L277.333333,462.222222 Z M291.555556,462.222222 L291.555556,469.333333 L284.444444,469.333333 L284.444444,462.222222 L291.555556,462.222222 Z M305.777778,462.222222 L305.777778,469.333333 L298.666667,469.333333 L298.666667,462.222222 L305.777778,462.222222 Z M320,462.222222 L320,469.333333 L312.888889,469.333333 L312.888889,462.222222 L320,462.222222 Z M270.222222,455.111111 L270.222222,462.222222 L263.111111,462.222222 L263.111111,455.111111 L270.222222,455.111111 Z M284.444444,455.111111 L284.444444,462.222222 L277.333333,462.222222 L277.333333,455.111111 L284.444444,455.111111 Z M298.666667,455.111111 L298.666667,462.222222 L291.555556,462.222222 L291.555556,455.111111 L298.666667,455.111111 Z M312.888889,455.111111 L312.888889,462.222222 L305.777778,462.222222 L305.777778,455.111111 L312.888889,455.111111 Z M263.111111,448 L263.111111,455.111111 L256,455.111111 L256,448 L263.111111,448 Z M277.333333,448 L277.333333,455.111111 L270.222222,455.111111 L270.222222,448 L277.333333,448 Z M291.555556,448 L291.555556,455.111111 L284.444444,455.111111 L284.444444,448 L291.555556,448 Z M305.777778,448 L305.777778,455.111111 L298.666667,455.111111 L298.666667,448 L305.777778,448 Z M320,448 L320,455.111111 L312.888889,455.111111 L312.888889,448 L320,448 Z"/>
      <path fill="#4038FF" d="M384,391.04 L384,384 L320,384 L320,391.04 L384,391.04 Z M384,398.72 L384,405.76 L320,405.76 L320,398.72 L384,398.72 Z M384,412.16 L384,419.2 L320,419.2 L320,412.16 L384,412.16 Z M384,433.28 L384,426.24 L320,426.24 L320,433.28 L384,433.28 Z M384,440.96 L384,448 L320,448 L320,440.96 L384,440.96 Z" transform="rotate(-90 352 416)"/>
      <path fill="#FFF" d="M256,248.96 L256,256 L192,256 L192,248.96 L256,248.96 Z M256,227.2 L256,220.16 L192,220.16 L192,227.2 L256,227.2 Z M256,206.72 L256,213.76 L192,213.76 L192,206.72 L256,206.72 Z M256,192 L256,199.04 L192,199.04 L192,192 L256,192 Z M256,241.28 L256,234.24 L192,234.24 L192,241.28 L256,241.28 Z"/>
      <path fill="#4038FF" d="M184.888826,256 L192,256 C192,291.345636 163.345765,320 128,320 L128,312.888889 C159.420356,312.888889 184.888826,287.420302 184.888826,256 Z M170.78849,256 L177.92,256 C177.92,283.570103 155.570148,305.92 128,305.92 L128,298.788571 C151.630087,298.788571 170.78849,279.630131 170.78849,256 Z M163.2,256 L156.16,256 C156.16,271.551078 143.551247,284.16 128,284.16 L128,291.2 C147.440749,291.2 163.2,275.441101 163.2,256 Z M142.506667,256 L149.76,256 C149.76,268.018483 140.018615,277.76 128,277.76 L128,270.506667 C136.011248,270.506667 142.506667,264.011162 142.506667,256 Z M128,256 L135.04,256 C135.04,259.889459 131.889503,263.04 128,263.04 L128,256 Z" transform="rotate(-90 160 288)"/>
      <path fill="#4038FF" fill-rule="nonzero" d="M320,576 L384,576 L384,512 C348.654235,512 320,540.654364 320,576 Z" transform="rotate(-90 352 544)"/>
      <path fill="#4038FF" d="M199.111174,320 L192,320 C192,284.654364 220.654235,256 256,256 L256,263.111111 C224.579644,263.111111 199.111174,288.579698 199.111174,320 Z M213.21151,320 L206.08,320 C206.08,292.429897 228.429852,270.08 256,270.08 L256,277.211429 C232.369913,277.211429 213.21151,296.369869 213.21151,320 Z M220.8,320 L227.840113,320 C227.840113,304.448358 240.448504,291.84 256,291.84 L256,284.8 C236.558939,284.8 220.8,300.558899 220.8,320 Z M241.492946,320 L234.24,320 C234.24,307.980937 243.981064,298.24 256,298.24 L256,305.493333 C247.988538,305.493333 241.492946,311.988838 241.492946,320 Z M256,320 L248.96,320 C248.96,316.110541 252.110497,312.96 256,312.96 L256,320 Z"/>
      <path fill="#1F252E" d="M199.111174,448 L192,448 C192,412.654364 220.654235,384 256,384 L256,391.111111 C224.579644,391.111111 199.111174,416.579698 199.111174,448 Z M213.21151,448 L206.08,448 C206.08,420.429897 228.429852,398.08 256,398.08 L256,405.211429 C232.369913,405.211429 213.21151,424.369869 213.21151,448 Z M220.8,448 L227.840113,448 C227.840113,432.448358 240.448504,419.84 256,419.84 L256,412.8 C236.558939,412.8 220.8,428.558899 220.8,448 Z M241.492946,448 L234.24,448 C234.24,435.980937 243.981064,426.24 256,426.24 L256,433.493333 C247.988538,433.493333 241.492946,439.988838 241.492946,448 Z M256,448 L248.96,448 C248.96,444.110541 252.110497,440.96 256,440.96 L256,448 Z" transform="matrix(-1 0 0 1 448 0)"/>
    </g>
    <g transform="translate(576 81)">
      <g transform="translate(113.6)">
        <path fill="#000" fill-rule="nonzero" d="M241.777862,192.458491 C239.505697,190.328358 237.374222,188.053713 235.396815,185.648834 C232.908207,182.02126 230.738651,178.139119 228.186232,174.511545 C219.324005,161.238951 208.576862,149.319745 196.280999,139.126785 C192.407136,136.083863 188.381971,133.237592 184.22082,130.598803 C189.772331,127.734928 190.155194,123.534579 185.433219,119.907005 C183.979258,118.96225 182.441344,118.15272 180.838865,117.488622 C181.366354,117.090461 181.920688,116.728971 182.497937,116.406714 C184.703409,115.482893 186.318985,113.544927 186.827136,111.213619 C187.335286,108.882311 186.672225,106.4503 185.050356,104.696649 C184.476062,103.869308 185.050356,103.5511 185.369409,103.041966 C190.473813,97.0815068 196.183398,91.6642855 202.406803,86.8769862 C207.93782,82.1023091 215.257034,79.923941 222.507101,80.8946706 C226.608581,81.4494215 230.783375,81.0352266 234.6949,79.6854792 C241.558061,77.940471 246.027016,71.3504786 245.096006,64.3478404 C244.725968,59.4208196 243.495035,54.5962673 241.45881,50.0921098 C238.859498,43.7990545 233.097786,39.3619077 226.335729,38.445687 C222.064251,37.9059831 217.728067,38.208713 213.573635,39.3366702 C206.472567,41.154287 198.927813,39.5787831 193.154286,35.0726793 C187.020782,30.6009661 181.819127,24.9807475 177.839773,18.5258491 C173.684177,12.1250544 167.978237,6.8719677 161.249052,3.25185201 C152.624664,-1.67375464 141.799607,-0.491289787 134.448655,6.17936812 C127.657435,12.864025 121.2654,19.9404132 115.305515,27.3720391 C110.862677,32.9552561 104.19722,36.3256556 97.0557213,36.600079 C93.2703024,36.7215276 89.5424102,35.6528723 86.3993732,33.5452796 C81.7982288,30.4913164 75.882007,30.2219958 71.0210505,32.8452214 C67.422488,34.566257 64.0386955,36.7022321 60.9389966,39.2093869 C55.0716729,43.603269 50.6327505,49.6242325 48.1769031,56.5199169 C46.4103354,60.7553347 48.4063586,65.6184344 52.6436358,67.4026398 C59.8542187,71.0938558 67.4476643,73.7668053 74.913489,76.948888 C80.7840521,79.3672709 86.5269941,82.0402204 92.3337467,84.7768116 C100.054813,88.4043859 103.053905,96.4232343 108.924468,102.0237 C104.728442,102.659803 101.483476,106.026683 101.01197,110.233473 C100.373866,115.006597 103.883441,116.597639 107.393017,118.761455 C104.712977,120.161572 102.096748,121.307121 101.01197,124.234637 C100.423044,127.008713 101.101105,129.900338 102.862474,132.126203 C94.1679548,136.921349 85.9056091,142.457594 78.1678229,148.673033 C61.8320506,161.896984 47.23208,177.121181 34.7128944,193.985891 C23.8692444,208.354951 15.2641066,224.275253 9.18870734,241.207999 C1.99092883,259.934311 -0.993443498,280.009236 0.446673274,300.012887 C1.27338732,312.366943 5.53829311,324.246232 12.7620935,334.315739 C17.6293029,340.320328 23.7762977,345.16839 30.7566454,348.507828 C32.6709594,349.398811 34.6490839,350.162511 36.6272084,350.862569 C74.3888737,369.666888 117.757788,373.992306 158.505202,363.018125 C195.557871,371.349973 234.415474,363.700695 265.515356,341.952738 C266.800897,341.065612 267.905338,339.942494 268.76969,338.643372 C269.833219,337.644373 270.83477,336.581712 271.768782,335.461289 L273.300233,333.806606 C273.41073,333.550984 273.561528,333.314644 273.746906,333.106548 C280.16718,324.579514 284.533888,314.693311 286.509,304.213237 C288.614167,291.140984 287.741796,277.763771 283.956581,265.073619 C276.005051,237.817152 261.529973,212.896774 241.777862,192.458491 Z"/>
        <path fill="#FEFEFE" fill-rule="nonzero" d="M10.7201586,286.011723 C10.8570903,264.672488 17.5371306,243.885899 29.8632989,226.443135 C39.6380379,211.99016 51.3616482,198.94842 64.7038142,187.685367 C64.7038142,187.685367 64.7038142,187.367159 65.2781084,186.858026 C62.0451229,187.225531 58.8963716,188.128939 55.9617801,189.530975 C52.8906441,190.949048 49.9263602,192.586789 47.0921251,194.431382 C49.366232,190.521008 51.9480323,186.796878 54.8131917,183.294093 C61.5499375,174.641729 83.6140577,147.235378 95.7157015,145.575806 C99.1154064,145.109583 79.9698517,174.488044 87.2076391,177.396633 C92.235919,179.417305 119.585603,146.165209 121.239889,145.575806 C125.068517,144.366614 132.789583,155.291765 132.34291,158.473848 C131.683749,162.554853 131.406044,166.688097 131.513374,170.820329 C131.513374,175.720736 137.83061,178.266402 139.043009,174.575186 C140.455519,171.355681 142.075436,168.230711 143.892605,165.219863 C146.513338,160.091398 149.987077,155.443308 154.16609,151.473266 C156.733537,148.410389 160.762235,146.973635 164.694817,147.718408 C167.935318,148.483624 170.896908,150.136845 173.24542,152.491532 C180.325134,159.775375 186.069923,168.240523 190.219004,177.502702 C190.701983,178.639438 191.394622,179.675648 192.260939,180.557502 C192.481691,179.315565 192.481691,178.044581 192.260939,176.802644 C191.601767,170.938131 192.166637,165.001021 193.920011,159.364831 C194.813358,155.800898 196.089567,155.419048 198.769607,158.028356 C202.244219,161.185295 205.485713,164.588367 208.468798,168.211021 C209.135196,169.291903 210.083616,170.17182 211.212648,170.756687 L211.212648,171.329462 C211.129822,171.146168 211.022497,170.974901 210.893596,170.820329 C210.848139,170.011377 210.607331,169.225365 210.19168,168.529229 C207.310489,162.719216 203.778374,157.253584 199.662953,152.236965 C199.790574,151.727832 198.769607,151.409624 199.599143,150.582282 C208.217944,158.857443 215.997896,167.95978 222.826153,177.757269 C224.710165,180.14082 226.396098,182.67367 227.86718,185.330626 L227.420507,185.712476 C223.385483,183.775568 219.612045,181.337875 216.189864,178.457327 L214.530792,177.311777 L214.147929,176.993569 C213.828877,176.993569 214.147929,177.439061 214.147929,177.693627 C216.191307,180.822065 218.734887,183.595402 221.677565,185.903401 C232.498463,195.553549 242.059932,206.522287 250.137033,218.55157 C261.725919,235.510261 270.53554,254.199976 276.235514,273.919809 C279.377564,284.254529 279.707901,295.236647 277.192671,305.740636 C274.729804,315.74582 268.368098,324.358361 259.517172,329.669898 C259.469138,328.973361 200.438476,342.217141 201.002973,341.804241 C205.29659,337.424124 175.263971,325.18341 112.731826,328.015215 C96.7587317,328.738567 127.997955,339.878294 126.557428,347.107712 C125.425934,352.786214 93.6203775,354.029809 86.1441313,353.471877 C80.8876785,353.079602 7.44455456,350.289795 10.7201586,286.011723 Z M109.541303,318.468967 C117.470651,318.468967 87.2076391,283.466057 84.0171157,249.523841 C80.8265924,215.581626 95.1369875,188.003575 87.2076391,188.003575 C79.2782908,188.003575 67.000991,209.21746 72.31853,249.523841 C77.636069,289.830223 101.611954,318.468967 109.541303,318.468967 Z"/>
        <path fill="#C4C3C6" fill-rule="nonzero" d="M124.11136 58.3655249C129.759742 68.6766005 131.993288 80.5053524 130.492406 92.1592435 130.521837 92.4555126 130.521837 92.7539575 130.492406 93.0502267 129.981923 94.3867014 129.790491 96.1050261 128.19523 96.677801 126.599968 97.2505759 125.259948 95.9777428 124.17517 94.832193 121.407257 91.6627381 119.088456 88.1294979 117.28364 84.33132 111.668318 74.1486552 106.116808 63.9023488 101.01197 53.4014758 100.846568 52.9894267 100.718437 52.5634531 100.629107 52.1286427 101.841506 52.1286427 102.990095 53.3378342 104.266304 52.1286427L99.5443295 49.0738433C98.9440495 47.5754807 99.0289859 45.8904994 99.776917 44.4597382 100.524848 43.028977 101.861354 41.9947972 103.436768 41.6277697 108.89658 39.9871766 113.683557 36.6406956 117.092208 32.0815215 120.155111 28.7721555 122.898961 25.2718645 125.834242 21.8352152 126.727589 20.8169487 131.640995 15.1528414 132.34291 14.6437082 136.470967 11.168487 141.445545 8.84145023 146.764076 7.8976928 153.064626 6.94655705 159.357034 9.66440623 162.971934 14.8982748 164.317713 16.4523616 166.830737 21.2001223 168.034231 26.7780503 169.210604 32.2302769 169.095114 38.5078674 168.906308 40.6095033 168.705297 44.2386856 164.501519 66.826291 162.971934 71.3484224 160.727769 79.2298714 158.000047 86.9663094 154.804195 94.5139847 153.767195 97.2508027 152.302735 99.8068291 150.465083 102.087342 148.040285 104.760291 145.93454 104.569366 144.084036 101.578208 141.978668 97.7625721 140.492613 93.6384007 139.681114 89.3590107 137.120863 78.2921931 132.813084 67.7016109 126.91902 57.983675 124.292372 53.9741308 121.161436 50.3167772 117.602692 47.100952 117.28364 47.100952 116.964587 46.2099689 116.326483 46.5281771 119.984949 51.6195095 122.579908 55.5652921 124.11136 58.3655249zM201.066784 44.8098525C203.146345 45.688237 204.139097 48.0645387 203.30015 50.1557514 202.824794 51.7288501 202.091706 53.2126517 201.130594 54.5470256 200.173437 55.7562171 199.28009 57.0290501 198.322933 58.3018832 198.897228 58.8746581 199.15247 58.3018832 199.599143 58.3018832 204.512549 55.4380088 208.851661 51.9377178 213.573635 48.6919934 214.210969 48.04007 215.085495 47.6728225 215.998433 47.6737269 221.632032 47.3591054 226.716561 51.0230256 228.186232 56.4562753 228.316709 56.7222823 228.545401 56.9275607 228.824337 57.0290501 230.100546 57.5381834 230.419599 58.7473748 230.866272 59.8292829 232.675189 63.1448277 231.551108 67.2929251 228.313853 69.2482478 223.191918 67.8036064 217.723004 68.209309 212.87172 70.3937976 212.297426 70.3937976 211.850753 71.0938558 211.212648 70.9029308 211.046631 70.5128719 210.725604 70.2091287 210.326312 70.064316 209.927021 69.9195032 209.485355 69.9466371 209.106903 70.139231L209.106903 70.139231C208.022125 69.1209645 207.575451 70.139231 207.320209 70.9029308 207.064968 71.6666307 207.320209 72.4303306 206.937347 73.1940304 205.432727 74.9025278 203.613067 76.3068728 201.577267 77.330738 200.811542 75.5487716 200.747731 75.5487716 199.088659 77.0125297L199.918195 77.330738C200.291767 77.4095351 200.573826 77.7164214 200.62011 78.0944378 199.069063 80.0756918 197.291634 81.8697766 195.323841 83.4403368 190.155194 88.9135191 184.858925 94.3230597 179.562656 99.6689587 178.241153 101.408578 176.378507 102.661979 174.266387 103.232891 171.841589 103.678383 171.267295 103.232891 171.841589 100.687225 172.81419 97.2218467 174.252329 93.9036096 176.116891 90.8227687 177.253921 88.2466259 178.688742 85.8117477 180.392192 83.5676201L181.030297 83.5676201C181.923643 83.5676201 183.391284 84.5858866 183.646526 83.5676201 183.901768 82.5493536 181.923643 83.0584869 181.157918 82.3584287 183.008421 78.4762877 185.497029 74.9759967 187.538964 71.2211391 187.921827 70.6483642 188.559932 70.139231 188.432311 69.0573229 186.424853 71.0012164 184.608604 73.132327 183.008421 75.4214883 179.498846 79.6854792 176.116891 84.0767534 172.607315 88.1498192 172.050088 88.8433361 171.406842 89.4634962 170.693001 89.9954272 169.480602 90.950052 168.523445 90.8864104 168.140582 89.1680857 168.168823 88.8079996 168.168823 88.4462637 168.140582 88.0861776 170.346229 77.4140112 174.108499 67.121941 179.307414 57.5381834 182.894195 48.9229379 191.776852 43.726951 201.066784 44.8098525zM215.743191 56.138067C213.701256 56.138067 212.744099 58.3018832 211.085027 59.2565081 210.510733 59.2565081 209.617386 60.0202079 210.12787 60.9748327 210.638354 61.9294576 211.340269 60.9748327 211.914563 60.9748327 213.839655 59.8531451 216.115714 59.4899391 218.29561 59.9565663 219.188956 59.9565663 220.018492 58.7473748 220.018492 57.601825 220.018492 56.4562753 219.316577 55.947142 218.167989 56.4562753 217.400609 56.8439318 216.489066 56.8200072 215.743191 56.3926336L215.743191 56.138067zM192.197129 67.7844898C192.802687 68.947539 193.651307 69.9675291 194.685737 70.7756475 194.877168 69.1209645 194.877168 69.1209645 192.197129 68.0390564L192.197129 67.7844898zM81.0392939 41.5641281C86.2373268 42.9263473 90.7685025 46.112375 93.8013875 50.5376014 102.119145 62.4625856 108.154932 75.818385 111.604508 89.9317856 111.604508 89.9317856 111.604508 90.5045605 111.604508 90.8227687L105.223461 84.4586033C105.733945 84.4586033 105.606324 83.8858284 105.223461 83.5676201 100.393002 77.4710555 94.5946976 72.2040431 88.0584454 67.9754147 86.2829791 66.9084128 73.6235009 63.9952911 69.1280066 58.5988776 68.5538272 57.9096298 69.4460016 56.1498652 69.1280066 55.4167949 68.1651133 53.1970477 66.711348 47.0266276 68.0644988 44.8098525 70.1326966 41.4216645 75.796921 42.3606223 76.5725612 42.2641863L81.0392939 41.5641281zM97.2471527 66.0661651C97.8975214 65.9461843 98.5375541 65.7759604 99.1614667 65.5570319 99.7995714 65.5570319 100.182434 64.7296904 99.7357609 64.0932738 99.2890877 63.4568573 98.8424144 63.5841406 98.4595516 64.0932738 98.0766888 64.602407 96.9281004 65.0478986 96.3538062 63.7114239 95.779512 62.3749491 94.5671131 62.1840242 93.3547142 61.8658159 92.1423153 61.5476076 92.1423153 61.8658159 92.2061258 62.7567991 93.6286234 64.2082482 95.3479786 65.3369816 97.2471527 66.0661651L97.2471527 66.0661651zM88.2498768 62.3113075C87.8032035 62.3113075 87.2927198 62.6295158 87.6117721 62.947724 87.9308244 63.2659323 88.6327396 65.2388236 89.9089489 65.4933902 91.1851583 65.7479568 90.5470536 64.8569737 90.5470536 64.3478404 90.5470536 63.8387072 89.3346547 62.6295158 88.2498768 62.3113075L88.2498768 62.3113075zM87.4841512 57.983675C88.7603605 59.2565081 90.2918117 59.1292247 91.5680211 59.5747163 90.5470536 58.4291665 89.3346547 57.5381834 87.4841512 57.983675L87.4841512 57.983675z"/>
        <path fill="#FEFEFE" fill-rule="nonzero" d="M201.066784 44.8098525C191.776852 43.726951 182.894195 48.9229379 179.307414 57.5381834 174.236579 67.0798819 170.582493 77.305692 168.459635 87.8952526 168.487875 88.2553387 168.487875 88.6170747 168.459635 88.9771608 167.754563 85.5764838 167.754563 82.0678896 168.459635 78.6672127 169.301031 69.3693763 170.988319 60.1670962 173.500662 51.1740179 174.270876 48.5255661 175.409254 45.9977693 176.882616 43.6643027 178.585249 40.0953241 182.787061 38.4749214 186.454186 39.9730867 190.474246 41.1822782 194.494305 42.4551112 198.450554 43.791586 199.415905 43.8118711 200.342825 44.1726391 201.066784 44.8098525L201.066784 44.8098525zM81.0392939 41.5641281L76.5725612 42.2641863C73.7631492 42.5709132 71.2483562 44.1414308 69.7448411 46.5281771 69.3619783 47.100952 69.1705469 47.482802 69.7448411 48.0555768 71.5953447 49.5829766 70.127704 50.0284681 68.8514946 50.4103181L68.8514946 50.4103181C68.8514946 48.755635 67.5752852 47.6737269 67.3200434 46.0826856L66.171455 47.291877C64.920262 48.7580419 64.401819 50.7103099 64.7613159 52.6019483 65.1208128 54.4935867 66.3196005 56.1212276 68.0219585 57.0290501 68.4048213 57.0290501 68.8514946 57.6654667 69.2343574 57.0290501 69.3939248 56.7082826 69.3939248 56.3315512 69.2343574 56.0107837 68.5962527 54.8015922 69.2343574 53.8469674 69.7448411 52.7014176 70.6381877 54.1651757 72.6163122 55.2470838 71.4039133 57.4745417 70.1915144 59.7019996 71.8505866 58.9382998 72.4886913 59.3201497 77.5935287 62.1840242 82.7621765 64.8569737 87.739393 67.8481314 94.2756453 72.0767598 100.07395 77.3437722 104.904409 83.4403368 104.904409 83.7585451 105.287272 84.0767534 104.904409 84.33132 95.4649222 76.1631251 84.6676347 69.7018914 72.999175 65.2388236 68.7876841 63.4568573 64.6400037 61.6112493 60.2370815 59.7019996 58.6274158 59.0444786 57.4256202 57.6647755 56.9978254 55.9832212 56.5700307 54.3016669 56.9668999 52.5174055 58.0675256 51.1740179 61.1025936 46.2480414 66.0448659 42.7929966 71.7229656 41.6277697 74.7717631 40.8116477 77.9795736 40.7897345 81.0392939 41.5641281zM228.313853 69.3118895C231.551108 67.3565668 232.675189 63.2084693 230.866272 59.8929246 230.419599 58.8110165 230.100546 57.601825 228.824337 57.0926918 228.545401 56.9912024 228.316709 56.785924 228.186232 56.5199169 226.716561 51.0866673 221.632032 47.4227471 215.998433 47.7373686 219.573258 45.7374626 223.893654 45.5717331 227.611938 47.291877 234.837589 51.302043 238.786787 59.3828343 237.502561 67.5299232 237.143241 69.8612772 235.858764 71.9504882 233.938353 73.3271321 232.017941 74.703776 229.623033 75.2521269 227.292886 74.8487134 224.01117 74.4367489 220.709422 74.2030512 217.402263 74.1486552 220.895108 72.2302112 224.54551 70.6121025 228.313853 69.3118895L228.313853 69.3118895z"/>
        <path fill="#C4C3C6" fill-rule="nonzero" d="M153.145122 113.797406C155.45394 116.120034 157.951025 118.248648 160.610947 120.161572 156.041977 122.052593 150.768903 120.580039 147.848854 116.597639 149.571736 113.224631 149.699357 113.16099 152.507018 113.797406L153.145122 113.797406zM162.780503 113.797406L169.16155 118.125039C166.540019 119.347368 163.529617 119.439653 160.837765 118.380208 158.145914 117.320763 156.009952 115.202998 154.931815 112.524573 154.931815 112.524573 154.931815 112.524573 154.931815 112.206365 156.505613 111.620663 158.266636 111.834274 159.65379 112.77914 160.568967 113.425777 161.659061 113.780784 162.780503 113.797406zM135.214381 116.915847C137.294317 119.352536 139.698894 121.4938 142.361153 123.280013 142.680206 123.280013 143.2545 123.725504 143.126879 124.234637 142.999258 124.743771 142.361153 124.807412 141.91448 124.934696 138.364321 125.834674 134.601727 124.793619 132.023858 122.198104 131.449563 118.888738 131.449563 118.95238 134.512466 117.552264 134.767708 117.361339 134.959139 117.106772 135.214381 116.915847zM144.084036 115.579372C146.313658 117.644772 148.679981 119.558336 151.166998 121.307121 151.741292 121.688971 152.315586 122.261746 151.166998 122.707238 147.233079 123.780332 143.031633 122.490999 140.383029 119.397872 140.383029 116.470356 141.467807 115.643014 144.084036 115.579372zM121.239889 124.107354L126.982831 126.589379C124.951217 129.44571 120.987508 130.128281 118.113176 128.116778 117.092208 127.289437 116.135051 126.334812 115.114084 125.443829 114.093116 124.552846 115.114084 123.725504 116.645535 123.661863 118.186666 123.684048 119.723333 123.833051 121.239889 124.107354zM126.982831 120.161572C129.239076 121.620448 131.373076 123.259281 133.363877 125.061979 133.363877 125.061979 134.257224 125.571112 134.001982 126.080245 133.74674 126.589379 133.300067 126.525737 132.853394 126.65302 132.004913 126.939156 131.085645 126.939156 130.237164 126.65302 128.291904 126.195777 126.40722 125.51225 124.621843 124.616487 123.664686 120.988913 123.983739 120.416138 126.982831 120.225213L126.982831 120.225213 126.982831 120.161572zM108.477795 104.887574C109.096337 104.823726 109.677647 105.192672 109.881625 105.778558 111.562891 108.50829 112.528421 111.616077 112.689286 114.815673 112.689286 116.343072 112.689286 116.470356 110.647351 115.833939L109.945436 115.324806 109.945436 115.324806C109.869191 114.888414 109.694647 114.474968 109.434952 114.115614 107.760103 111.333198 107.409502 107.953014 108.477795 104.887574zM181.094107 113.288273C177.526177 113.918701 173.960829 112.166511 172.288263 108.96064 171.9054 107.115032 173.564472 106.096766 176.372133 106.478616 175.032113 108.769715 176.754995 109.406132 178.286447 109.978907 179.817898 110.551682 181.157918 111.25174 181.094107 113.288273zM114.475979 126.780304C115.433136 127.734928 117.34745 128.56227 116.900777 129.835103 116.454103 131.107936 114.475979 130.853369 113.072149 130.980653 111.243648 131.348919 109.343413 131.055613 107.712069 130.153311 107.712069 126.589379 108.031122 126.334812 111.540697 126.65302 112.497854 126.780304 113.455011 127.544003 114.475979 126.780304z"/>
        <path fill="#FEFEFE" fill-rule="nonzero" d="M162.971934,110.297115 C163.420737,109.042154 164.502748,108.118391 165.815201,107.869685 C167.127654,107.620979 168.473963,108.084582 169.352981,109.087924 C171.325455,111.299629 173.57767,113.246384 176.05308,114.879314 C176.882616,115.515731 176.818806,115.579372 176.05308,116.024864 C173.037545,114.924159 170.183277,113.425887 167.566288,111.569948 C166.446316,110.238592 164.619932,109.732605 162.971934,110.297115 Z"/>
        <path fill="#C4C3C6" fill-rule="nonzero" d="M113.646443 107.560524C113.646443 105.714916 114.348358 105.205783 115.94362 105.842199 118.247495 106.649441 120.086721 108.414142 120.984647 110.678965 121.320841 111.480126 121.321077 112.382249 120.985302 113.183585 120.649527 113.984921 120.005754 114.618617 119.197954 114.942956 118.427941 115.377126 117.509572 115.465696 116.670416 115.186718 115.831261 114.907739 115.149848 114.287319 114.795031 113.479198 116.071241 112.906423 118.049365 113.479198 118.368418 111.442665 118.425689 110.013244 117.690104 108.66824 116.454103 107.942374 115.619378 107.411336 114.593254 107.27178 113.646443 107.560524zM165.460543 128.880478C163.078204 129.214112 160.652417 128.743679 158.569012 127.544003 157.037561 126.716662 157.037561 125.571112 158.569012 124.743771 160.020233 123.860375 161.739685 123.521907 163.418608 123.789146 164.439575 125.50747 165.907216 126.780304 165.460543 128.880478zM162.971934 110.297115C164.523819 109.871805 166.183051 110.365787 167.247236 111.569948 169.864225 113.425887 172.718493 114.924159 175.734028 116.024864 170.630696 117.781076 165.038565 115.271275 162.971934 110.297115L162.971934 110.297115zM179.945519 128.244062C177.717996 126.762121 176.529883 124.145313 176.882616 121.498046 177.584531 120.034288 178.73312 119.397872 180.264571 120.734346 180.264571 121.752613 180.838865 122.516313 181.157918 123.470938 181.973625 125.1441 181.461563 127.160047 179.945519 128.244062z"/>
        <path fill="#FEFEFE" fill-rule="nonzero" d="M114.475979,126.780304 C113.455011,127.79857 112.497854,126.780304 111.540697,126.780304 C108.031122,126.462095 107.712069,126.780304 107.712069,130.280595 C105.732226,129.408588 104.822419,127.111732 105.670134,125.125621 C106.890707,123.61324 109.043829,123.232684 110.711161,124.234637 C112.08428,124.894811 113.352751,125.752516 114.475979,126.780304 L114.475979,126.780304 Z"/>
        <path fill="#C4C3C6" fill-rule="nonzero" d="M172.990178,128.689553 C171.582508,128.446461 170.312023,127.699763 169.416792,126.589379 C168.459635,125.50747 167.247236,124.170996 168.523445,122.707238 C169.079654,122.0985 169.86723,121.751586 170.693001,121.751586 C171.518772,121.751586 172.306348,122.0985 172.862557,122.707238 C173.622459,124.62167 173.667748,126.744618 172.990178,128.689553 Z"/>
        <path fill="#FEFEFE" fill-rule="nonzero" d="M108.477795,104.887574 C107.288165,108.037405 107.617622,111.557959 109.371142,114.433823 C109.630836,114.793177 109.805381,115.206622 109.881625,115.643014 C107.778745,115.259372 106.039527,113.788475 105.316353,111.78206 C104.593179,109.775644 104.995365,107.536998 106.37205,105.905841 C107.010154,105.269424 107.584448,104.696649 108.477795,104.887574 Z"/>
        <path fill="#C4C3C6" d="M142.809085,250.950183 C152.561415,226.191157 162.284418,214.564749 171.978095,216.070958 C177.397309,216.912998 185.708175,225.095301 186.560228,221.96147 C187.994353,216.686788 177.930441,198.260245 167.64102,196.718238 C151.238374,194.260084 141.691089,210.882284 141.691089,228.353798 C141.691089,240.001474 142.063754,247.533602 142.809085,250.950183 Z" transform="rotate(-9 164.194 223.713)"/>
        <path fill="#000" fill-rule="nonzero" d="M163.031493,230.716934 C155.815915,242.685239 150.61631,257.457927 147.595574,274.572187 C147.63576,275.263927 147.63576,275.927821 147.595574,276.557814 C146.592289,269.545745 146.592289,263.106419 147.595574,257.635958 C148.792845,241.491469 151.193783,226.447108 154.768737,212.688668 C155.864718,208.669983 157.484581,205.275222 159.581111,202.603331 C162.003883,197.914547 167.98288,199.534162 173.20104,206.292752 C178.92141,212.906826 184.64178,219.637701 190.27135,226.415618 C191.645001,227.508196 192.963968,229.183649 193.994131,231.14458 C180.774962,219.001112 168.135327,218.826538 163.031493,230.716934 Z"/>
        <path fill="#FEFEFE" fill-rule="nonzero" d="M113.646443 107.560524C114.593254 107.27178 115.619378 107.411336 116.454103 107.942374 117.690104 108.66824 118.425689 110.013244 118.368418 111.442665 118.049365 113.288273 116.071241 112.906423 114.795031 113.479198 113.749087 111.693746 113.343986 109.606266 113.646443 107.560524L113.646443 107.560524zM179.945519 128.244062C181.461563 127.160047 181.973625 125.1441 181.157918 123.470938 180.838865 122.516313 180.200761 121.752613 180.264571 120.734346 181.78852 121.797663 183.162128 123.060607 184.348441 124.489204 184.841545 125.033267 185.043695 125.779889 184.892207 126.497555 184.740719 127.21522 184.253903 127.817181 183.582715 128.116778 182.497937 128.816837 181.221728 130.026028 179.945519 128.244062zM121.239889 124.107354C119.723333 123.833051 118.186666 123.684048 116.645535 123.661863 115.305515 123.661863 114.922652 124.298279 115.114084 125.443829 113.782194 124.705805 112.593577 123.735873 111.604508 122.579954 114.858842 120.034288 116.517914 120.352496 121.239889 124.107354zM181.094107 113.288273C181.094107 111.25174 179.690277 110.615323 178.095015 109.978907 176.499754 109.34249 174.840681 108.769715 176.180701 106.478616 178.941576 106.278178 181.467689 108.028518 182.242696 110.678965 182.561748 111.824515 182.689369 112.970065 181.094107 113.288273z"/>
        <path fill="#C4C3C6" fill-rule="nonzero" d="M128.067609,109.660699 C128.81241,109.578232 129.550724,109.863275 130.045733,110.424398 C130.93908,111.25174 130.875269,112.01544 129.66287,112.39729 C128.008274,112.81218 126.27644,112.81218 124.621843,112.39729 C123.281824,112.39729 123.090392,111.060815 123.090392,109.978907 C123.090392,108.896999 123.090392,108.133299 124.430412,108.260582 C124.313903,109.496521 125.179443,110.610392 126.408536,110.806248 C127.620935,111.188098 127.939988,110.615323 128.067609,109.660699 Z"/>
        <path fill="#FEFEFE" fill-rule="nonzero" d="M126.663778 120.034288C123.664686 120.034288 123.345634 120.797988 124.302791 124.425562 122.965811 123.769508 121.738851 122.910762 120.665594 121.879896 119.197954 120.670705 119.836058 119.843363 121.239889 119.397872 123.024259 118.577527 125.11902 118.823317 126.663778 120.034288L126.663778 120.034288zM144.084036 115.579372C141.467807 115.579372 140.638271 116.470356 140.127787 119.397872 139.932631 119.307749 139.758694 119.177642 139.617303 119.016022 138.660146 117.870472 136.618211 116.915847 138.468715 115.006597 140.218817 113.762887 142.622596 114.008078 144.084036 115.579372L144.084036 115.579372zM135.214381 116.915847C135.214381 116.915847 134.767708 117.361339 134.512466 117.42498 131.449563 118.825097 131.449563 118.761455 132.023858 122.070821L131.640995 122.070821C130.556217 120.797988 128.578092 119.779722 129.66287 117.615905 130.747648 115.452089 132.981015 115.897581 135.214381 116.915847zM162.780503 113.797406C161.659061 113.780784 160.568967 113.425777 159.65379 112.77914 158.266636 111.834274 156.505613 111.620663 154.931815 112.206365 155.546433 111.093277 156.66092 110.343525 157.925933 110.192125 159.190945 110.040726 160.451647 110.506208 161.312862 111.442665 161.986025 112.097483 162.489671 112.905552 162.780503 113.797406zM153.145122 113.797406L152.251776 113.797406C149.444115 113.16099 149.316494 113.224631 147.593612 116.597639 146.764076 115.515731 145.360245 114.497464 147.019317 113.097348 148.92121 111.662274 151.617994 111.970463 153.145122 113.797406L153.145122 113.797406zM172.990178 128.689553C173.724635 126.740796 173.724635 124.592353 172.990178 122.643596 174.625199 123.804634 175.727779 125.568677 176.05308 127.544003 176.372133 129.071403 175.414976 129.389611 172.990178 128.689553zM165.460543 128.880478C165.971026 126.780304 164.439575 125.50747 163.418608 123.980071 165.02111 123.77745 166.514575 124.825626 166.864373 126.398454 167.311046 127.544003 167.055804 128.753195 165.460543 128.880478zM128.067609 109.660699C128.067609 110.615323 127.365693 111.188098 126.408536 110.997173 125.179443 110.801317 124.313903 109.687446 124.430412 108.451507 125.773204 108.162582 127.16719 108.626015 128.067609 109.660699z"/>
        <path fill="#BFAF9F" fill-rule="nonzero" d="M112.753096,90.3772772 C112.741547,90.5467928 112.741547,90.7168948 112.753096,90.8864104 L112.753096,90.8864104 L112.753096,90.3136355 L112.753096,90.3772772 Z"/>
        <path fill="#FEFEFE" fill-rule="nonzero" d="M126.982831 120.161572L126.599968 120.161572 126.982831 120.161572zM109.945436 115.579372L110.647351 116.088506C110.328299 116.088506 109.881625 116.152147 109.945436 115.579372zM136.171538 140.272334C137.256316 140.717826 136.937264 141.799734 137.256316 142.499792 137.364303 142.747009 137.320321 143.034107 137.143246 143.237884 136.96617 143.441662 136.687484 143.525888 136.42678 143.454417 135.724865 143.454417 134.831518 142.881642 134.895329 141.863376 134.959139 140.845109 135.533433 140.717826 136.171538 140.272334zM155.791399 52.1533554C155.762857 64.2518993 154.690001 76.325881 152.584549 88.2434193 152.366223 90.0200007 151.688398 91.7106536 150.61671 93.151668 149.814997 94.2343699 148.940402 94.4509103 147.920041 93.151668 146.004948 91.035097 144.498066 88.5886207 143.474181 85.9336552 139.538501 77.1998598 136.185886 68.1051637 131.885792 59.5879086 129.980921 55.7179516 127.813775 51.9801045 125.399209 48.3999888 121.548076 41.9986659 122.221237 33.8826841 127.075517 28.189553 129.62642 25.374528 132.468855 22.7760434 135.238407 20.1775588 137.022518 18.4571782 139.235791 17.2366721 141.652107 16.6407325 145.660282 16.3498308 149.400027 18.6536958 150.908242 22.3429626 154.640249 31.8275869 156.304388 41.9867163 155.791399 52.1533554z"/>
        <path fill="#C4C3C6" fill-rule="nonzero" d="M257.92191,249.672339 C255.63402,246.187385 252.32025,243.368669 248.860824,240.953432 C247.776046,240.189732 247.393183,240.444299 247.456994,241.717132 C247.425264,242.162061 247.425264,242.608677 247.456994,243.053607 C248.298094,250.422077 247.953428,257.877252 246.436026,265.137261 C244.440697,275.922926 240.083012,286.136396 233.673933,295.048838 C227.469835,303.301833 219.28532,309.867138 209.872628,314.141335 C208.53015,314.332923 207.233241,314.764083 206.044,315.414168 C203.403493,316.690488 200.647225,317.713363 197.81245,318.468967 C191.200015,320.342807 184.389055,321.432241 177.520721,321.714692 C168.762629,322.254774 159.971837,321.870794 151.294619,320.569142 C138.33296,318.78241 125.978934,313.962911 115.241705,306.504336 C106.851391,300.824711 99.9390658,293.232542 95.0775968,284.35704 C94.1204398,282.511432 93.0994723,280.793108 92.1423153,278.9475 C92.4642836,292.272194 96.923278,305.169068 104.904409,315.859659 C78.869738,302.303987 62.087585,282.129582 59.8542187,252.218005 L59.8542187,249.799622 C59.9182886,249.635926 59.9182886,249.454185 59.8542187,249.290489 C58.31158,229.925409 64.8182174,210.779308 77.8487705,196.340632 C77.8487705,197.358899 75.5090534,214.520931 81.4859672,232.934583 C81.9196903,234.92505 82.7915122,236.794508 84.0383859,238.407766 C84.0171157,226.188568 92.7726559,193.534835 104.223764,175.275244 C111.144993,164.238862 124.441613,155.387922 125.961863,154.846273 C129.790491,153.637082 132.789583,155.291765 132.34291,158.473848 C131.683749,162.554853 131.406044,166.688097 131.513374,170.820329 C131.513374,175.720736 131.513374,180.557502 131.513374,185.457909 L134.703897,185.457909 C134.703897,181.448485 137.639179,178.457327 138.851578,174.766111 C140.264088,171.546606 141.884004,168.421636 143.701173,165.410788 C146.321907,160.282323 149.795645,155.634233 153.974658,151.664191 C156.542105,148.601314 160.570804,147.16456 164.503386,147.909333 C167.743887,148.674549 170.705476,150.32777 173.053988,152.682457 C180.133702,159.9663 185.878491,168.431448 190.027573,177.693627 C190.510552,178.830363 191.203191,179.866573 192.069508,180.748427 C192.29026,179.50649 192.29026,178.235506 192.069508,176.993569 C191.445226,171.052915 192.075597,165.047713 193.920011,159.364831 C194.813358,155.800898 196.089567,155.419048 198.769607,158.028356 C202.244219,161.185295 205.485713,164.588367 208.468798,168.211021 C209.135196,169.291903 210.083616,170.17182 211.212648,170.756687 C211.167191,169.947735 210.926384,169.161723 210.510733,168.465587 C207.629541,162.655574 204.097426,157.189942 199.982006,152.173324 C199.662953,151.727832 198.641986,151.409624 199.471522,150.582282 C193.951374,144.895422 187.471685,140.220846 180.328382,136.772043 C179.754087,136.772043 179.115983,135.817419 178.541689,136.326552 C177.967394,136.835685 178.541689,137.535743 178.860741,138.108518 C181.91492,145.740744 184.535306,153.538609 186.709428,161.465005 C187.794206,165.410788 187.921827,166.238129 187.475154,167.829171 L186.96467,167.001829 C184.117762,160.356928 180.701896,153.969123 176.754995,147.909333 C173.658582,142.448073 169.279145,137.818151 163.992902,134.417302 C161.713403,133.053672 159.009251,132.577731 156.399456,133.080827 C152.184345,134.093098 148.525589,136.693065 146.189781,140.335976 C141.234017,147.646839 137.785198,155.867493 136.043917,164.519805 C135.533433,166.810904 135.02295,169.102004 134.512466,171.584028 C134.065793,169.992987 134.831518,168.720154 134.831518,167.383679 C134.838712,159.851637 135.651578,152.341853 137.256316,144.981817 C138.787767,137.663027 134.384845,133.717244 127.110452,135.435569 C123.552627,136.413741 120.231126,138.102575 117.34745,140.399618 C108.845984,147.173731 101.701947,155.486391 96.2899957,164.901655 C94.2480607,168.211021 92.3975572,171.26582 89.9089489,175.402528 C93.4224412,160.988561 100.43462,147.656957 110.328299,136.581118 C103.51115,139.726441 97.0864204,143.656517 91.1851583,148.291183 C91.1851583,148.291183 83.3354029,156.560473 75.5090534,165.728996 C69.0083213,173.344566 62.3824245,182.069174 61.5771013,182.721318 C61.1574284,182.969792 61.0153683,183.508193 61.2580489,183.930509 C61.5771013,184.503284 62.1513955,183.930509 62.6618792,183.930509 L76.5725612,181.766693 C77.0423472,181.57223 77.5704159,181.57223 78.0402019,181.766693 C78.0402019,183.421376 76.3811298,183.994151 75.3601623,184.948776 C72.3610703,187.749009 69.2981679,190.4856 66.4905073,193.476758 C61.7047222,198.631732 56.8551267,203.723064 52.4522044,209.196246 C49.7083543,212.632896 46.7730728,215.942262 44.348275,219.633478 C24.4606793,250.584536 19.0086554,270.286787 18.3774147,280.920391 C15.8253392,323.911532 66.8377973,345.273255 99.9697327,350.289795 C112.124199,352.130115 125.902633,347.989403 128.003798,347.298637 C129.790491,346.725862 129.726681,346.025804 128.514282,344.625687 C125.223335,341.016841 122.295301,337.094703 119.772248,332.915623 C120.503133,333.2276 121.189672,333.634154 121.814183,334.124814 C122.516098,334.697589 123.154203,335.334006 123.856118,335.843139 C133.605662,342.611269 144.533209,347.510261 156.080404,350.289795 C163.502786,352.202727 171.131095,353.207171 178.79693,353.280952 C202.672144,354.857944 226.484639,349.390912 247.265562,337.561464 C248.491139,337.157208 249.651719,336.578453 250.711327,335.843139 L255.241871,332.470131 L256.58189,331.324581 C257.182118,331.170588 257.731867,330.863542 258.177152,330.433598 C258.177152,329.924465 258.815257,329.988107 259.26193,329.860823 C259.213896,329.164286 259.526969,328.491758 260.091466,328.078857 C265.454417,322.721015 282.893073,287.708834 257.92191,249.672339 Z"/>
        <path fill="#BFAF9F" fill-rule="nonzero" d="M91.058 148.8L90.994 148.8 91.058 148.8z"/>
        <path fill="#000" d="M51.0728103,367.573609 C48.4738574,366.103713 54.7723582,319.869489 65.2979811,313.707915 C81.0864154,304.465555 78.7309955,309.88697 98.8212219,302.624609 C118.911448,295.362248 128.149411,294.18366 113.215389,303.596894 C103.259374,309.872384 71.5435636,329.073721 51.0728103,367.573609 Z" transform="rotate(-118 85.538 332.215)"/>
        <path fill="#000" d="M233.400482,352.502272 C231.939048,351.032418 235.445497,304.900631 241.355637,298.763834 C250.220848,289.558639 248.901145,294.966185 260.185001,287.741851 C271.468858,280.517517 276.658975,279.351966 268.273993,288.728666 C262.684005,294.979799 244.876018,314.105172 233.400482,352.502272 Z" transform="rotate(178 252.741 317.256)"/>
      </g>
      <g transform="rotate(14 -553.42 280.498)">
        <path fill="#000" fill-rule="nonzero" d="M137.926396,13.1246342 C155.036212,22.1616458 168.439861,41.3875002 171.858408,65.5478369 C175.347021,90.2033631 167.03504,108.490761 174.744608,133.710762 C182.454177,158.930762 198.162971,167.839675 208.169898,180.092725 C146.407033,180.912156 99.7197298,209.648542 91.3841001,210.410341 C86.851192,210.802493 74.1493969,211.87104 69.7436608,210.721731 C56.7434046,209.210919 46.7216342,207.016644 39.6783495,204.138906 C32.3794619,201.182031 25.0237735,195.703538 17.6112844,187.703427 C-3.8380733,162.52682 -5.8189971,114.526156 13.6494368,70.1622327 C36.9519168,17.1974713 83.0989212,-12.70582 117.658586,5.57500843 C122.035789,7.86280986 132.931486,10.4807128 137.926396,13.1246342 Z"/>
        <path fill="#C4C3C6" d="M71.08857,198.165858 C82.320776,197.566518 109.978574,179.497518 127.084905,150.285227 C142.950533,123.181727 148.868577,85.6008697 145.980923,65.1678048 C142.577224,41.1165003 138.240253,26.3993662 118.531739,13.0695938 C123.20908,13.6245385 128.413445,16.2327787 132.62964,18.4636565 C162.648067,34.1685923 168.335538,88.9527359 146.496968,138.143037 C135.758847,162.394121 120.145751,181.28444 103.423709,192.338939 C88.6670273,202.105966 83.1552312,201.073769 79.2684268,200.108165 C74.6240249,199.05377 71.9010659,198.387836 71.08857,198.165858 Z"/>
        <path fill="#D8D8D8" d="M127.710746,128.908756 C149.055232,80.0736202 142.280773,27.6979368 112.569777,11.893111 C82.85878,-3.91171487 41.4654109,22.8588188 20.1099459,71.671757 C-1.24551903,120.484695 5.5399192,172.882576 35.2509157,188.687402 C64.9619122,204.492228 106.355281,177.743892 127.710746,128.908756 Z"/>
        <path fill="#C4C3C6" d="M127.710746,128.908756 C149.055232,80.0736202 142.280773,27.6979368 112.569777,11.893111 C82.85878,-3.91171487 41.4654109,22.8588188 20.1099459,71.671757 C-1.24551903,120.484695 5.5399192,172.882576 35.2509157,188.687402 C64.9619122,204.492228 106.355281,177.743892 127.710746,128.908756 Z"/>
        <path fill="#FFF" d="M99.0867375,20.3171719 C74.8655777,17.5313494 46.6697762,41.4050716 32.2864039,79.041423 C15.904731,121.894255 23.6563805,166.312031 49.601349,178.243343 C51.0220091,178.902605 52.4901964,179.451733 53.9932184,179.885979 C50.5755982,179.504844 47.2398813,178.575688 44.1115122,177.133453 C18.1665437,165.191043 10.4148942,120.784365 26.8075468,77.9315336 C42.2888864,37.4538651 73.7676104,12.8476159 99.0757578,20.3171719 L99.0867375,20.3171719 Z"/>
        <path fill="#FFF" d="M42.8817888,191.21795 C70.4078303,195.946079 104.192286,169.852578 123.033405,126.977549 C144.520626,78.1424126 138.514745,25.9776082 109.605265,10.4946503 C108.028054,9.63629903 106.39147,8.89443571 104.70833,8.27487135 C108.577258,8.94293668 112.316668,10.2279167 115.786821,12.0817922 C144.696301,27.6202446 150.713162,79.7184556 129.214962,128.620185 C108.913545,174.769389 71.3301229,201.473329 42.8598295,191.229049 L42.8817888,191.21795 Z"/>
        <path fill="#000" fill-rule="nonzero" d="M79.3123455,170.773787 C92.982039,160.218738 105.213395,142.704682 112.723492,120.828761 C127.58997,77.4542811 118.268227,33.3028786 91.8621123,22.2261818 C87.5048928,20.3955085 82.8094342,19.5325188 78.0936017,19.6956338 C87.0200763,17.4758549 95.8147948,18.2194809 103.676241,22.525852 C128.92949,36.3661735 134.957331,81.5830699 117.060463,123.525792 C107.793619,145.213032 94.0031486,161.772583 79.2684268,170.795984 L79.3123455,170.773787 Z"/>
        <g fill-rule="nonzero" transform="translate(21.303 34.172)">
          <path fill="#000" d="M1.16441832,96.6435611 C5.58999111,95.550616 10.0834755,94.4227897 14.6335529,93.3182175 C15.0636597,93.2135738 15.1881643,93.0042864 15.2787131,92.3066619 C18.2102307,71.1337571 18.7874793,48.5772303 21.7189968,27.4159526 C21.7189968,27.1252757 24.1638145,28.2647291 24.2090889,27.9159168 C24.4128237,27.9159168 24.4694167,28.1600854 24.5599655,28.3112374 C32.6414463,41.4033246 40.979482,54.9256136 49.5740726,68.8781044 C49.9362678,69.4594582 49.9362678,69.4594582 50.4908792,68.6223087 C64.2542974,48.065639 79.0590269,24.0906089 87.5592958,3.56882036 C87.695119,3.26651639 93.5355169,4.25481782 93.7166145,3.96414093 L93.8411191,3.96414093 L93.7166145,4.88267991 C90.471949,28.2841075 87.2272836,51.6894109 83.9826181,75.0985899 C83.8241577,76.2612975 94.4070491,69.0641376 95.2106698,68.8664773 C100.86997,67.4712283 95.9463788,73.1452412 101.775458,71.7034838 C100.070882,76.6796442 98.0906669,81.5515918 95.8445114,86.2954638 C95.2219884,87.6209504 94.5541909,88.9231829 93.9316679,90.2486695 C93.7957709,90.6951862 93.4371553,91.0325065 92.9922241,91.1323272 C85.0239293,92.8918914 77.2291865,94.6359527 69.6079955,96.3645113 C69.0986584,96.4807821 63.7110046,93.3065904 63.8241906,92.5392034 C65.8049457,78.3192899 73.04885,67.1107889 75.0182865,52.8908754 L75.1767469,51.7281678 C74.9051005,52.1002342 74.7353215,52.3444028 74.5655425,52.6001985 C65.1861955,66.4596727 56.0256749,80.0013401 47.0839805,93.2252009 C46.6878295,93.7949276 42.6923635,90.2370424 42.4433543,89.8184677 C36.7840541,80.2958927 35.086264,74.5869986 29.6646543,65.4713712 C29.5726527,65.3056215 29.489526,65.134837 29.4156451,64.9597799 L29.2911405,65.0644236 L29.1779545,65.901573 L23.6431589,105.782443 C23.5073357,106.735863 23.5073357,106.735863 22.9187685,106.863761 L3.85824524,111.142524 C3.51868722,111.223914 3.34890822,111.142524 3.23572221,110.64256 C2.18669973,106.140126 1.51269606,101.554128 1.22101133,96.934238 C1.19533117,96.8388785 1.17641722,96.7417314 1.16441832,96.6435611 Z"/>
          <path fill="#C4C3C6" d="M1.40768247,93.3597698 C5.62363772,92.2928376 7.35569436,91.4797719 11.6963149,90.4011152 C12.1156438,90.2955944 12.228976,90.0962774 12.3196417,89.4279793 C15.1453894,68.8787876 17.974915,48.3295959 20.8082182,27.7804042 L20.9328836,26.8776155 C21.1255482,26.8776155 21.1822142,27.1238306 21.2728799,27.264525 L45.0726273,66.6120453 C45.4126237,67.1865472 45.4126237,67.1865472 45.9452847,66.3658301 C59.1069227,46.3872322 72.7067784,25.7168871 86.7448516,4.35479471 C86.926183,4.08513054 87.0848479,3.79201731 87.2548461,3.5106286 L87.3795115,3.5106286 L87.2548461,4.40169283 L77.8709458,72.6032797 C77.7122808,73.7757327 77.6329483,73.6233138 78.3922736,73.4239968 L94.8367657,69.2852379 C93.2090503,74.1174865 91.3171297,78.8501058 89.1701591,83.4601939 C88.5808321,84.7498921 87.9348389,86.0161412 87.3455118,87.3058395 C87.2114497,87.7329296 86.8723065,88.0571357 86.450188,88.1617301 C78.8493798,89.8813277 71.4110143,91.5892008 64.1350916,93.2853494 C63.6477634,93.3908702 63.5457645,93.2853494 63.6477634,92.4880814 C65.5592987,78.6765859 67.4481675,64.8689986 69.3143699,51.0653194 L69.4617017,49.9632137 C69.212371,50.3266741 69.053706,50.5728892 68.8837078,50.8073798 C59.9153586,64.2280576 51.139674,77.3595304 42.556654,90.2017982 C42.1939912,90.7645756 42.0353262,90.7997492 41.7973287,90.3893907 C36.4253858,81.1504616 31.136553,72.1147577 25.9308305,63.2822789 C25.8439335,63.1239848 25.7681824,62.9594147 25.7041662,62.7898487 L25.5795009,62.8836449 L25.4661688,63.704362 L20.1282254,102.395309 C20.0035601,103.321546 20.0035601,103.321546 19.4368994,103.450516 C13.2565206,104.865276 9.76403821,105.971455 3.85565649,107.347133 C3.52699331,107.41748 3.36832833,107.347133 3.26632941,106.854703 C2.2850998,102.504874 1.66330936,98.0765796 1.40768247,93.6177094 C1.40199749,93.5318301 1.40199749,93.4456491 1.40768247,93.3597698 Z"/>
          <path fill="#FFF" d="M1.64962931 95.3343798L1.64962931 95.07677C5.54055445 94.0112023 9.48363676 92.910506 13.4788762 91.8332287 13.8648393 91.7278429 13.9691537 91.5287808 14.0526051 90.8496277 16.6535095 70.3345213 19.2578911 49.8350277 21.8657497 29.3511467 21.8657497 29.0701179 21.9387698 28.8007986 21.9804955 28.4729316 21.5319438 27.6883927 21.0833921 26.8804347 20.6452719 26.1310244 20.5618204 25.99051 20.5096632 25.7797384 20.3323288 25.7446098L20.217583 26.646244C17.6166787 47.1613504 15.0122971 67.6842631 12.4044385 88.2149822 12.320987 88.8824257 12.2166726 89.0814878 11.8307096 89.1868736 7.83547008 90.2641509 3.89238777 91.3648473.0118940634 92.430415.00666143377 92.5161845.00666143377 92.6022553.0118940634 92.6880248.257352763 97.1661252.84365084 101.612445 1.76437509 105.978348 1.858258 106.42331 2.00429809 106.540405 2.30680969 106.470148L2.94312721 106.306215C2.29154958 102.685956 1.85939253 99.0202709 1.64962931 95.3343798L1.64962931 95.3343798zM47.6720306 65.140424C48.0094974 65.6972789 48.0094974 65.6972789 48.5381954 64.8968L86.975664 6.68225899C87.2343886 4.75646907 87.504362 2.83067916 87.7743354.88168695L87.8980733 9.09494702e-13 87.7743354 9.09494702e-13C87.605602.278427458 87.4481175.56845606 87.2681352.835282374 73.3195074 21.980301 59.8208354 42.433118 46.7721191 62.1937334 46.5021457 62.5997735 46.3784078 62.8085941 46.2659189 62.8317964L47.6720306 65.140424zM76.4616255 76.2747328C76.27214 77.4382953 76.1555335 77.2986678 77.1466887 77.1008622L94.4044508 73.7032596C94.9583317 72.5396971 95.4976368 71.3761346 95.9932144 70.2125721L76.8843241 73.9359721C76.738566 74.7388303 76.6073836 75.5067815 76.4616255 76.2747328zM71.5747795 52.632551L71.707791 51.4892195 71.1859766 52.3771259C70.5413822 53.4961311 69.8967879 54.6029732 69.2419619 55.7098154 67.7686035 68.0594167 66.2884239 80.409018 64.8014233 92.7586194 64.7093384 93.5370578 64.8014233 93.6951781 65.2413845 93.5857102L66.7045113 93.196491C68.327934 79.6711233 69.9513567 66.1498099 71.5747795 52.632551zM25.8362149 64.8900873C25.7365057 64.7264845 25.6617238 64.537712 25.5744782 64.3615244L25.4498417 64.462203 25.4498417 64.5628817C30.6181022 73.2212447 35.8902264 82.0306257 41.2662144 90.9910247 41.4033146 91.2175516 41.5154875 91.3056454 41.640124 91.2678909 36.2724451 82.307492 31.0044754 73.5148908 25.8362149 64.8900873z"/>
        </g>
      </g>
    </g>
    <path fill="#FFF" d="M347.34375,518.715105 C348.906258,518.715105 350.367181,518.898697 351.726562,519.265886 C353.085944,519.633075 354.285151,520.207288 355.324219,520.988542 C356.363286,521.769796 357.210934,522.769786 357.867188,523.988542 C358.523441,525.207298 358.929687,526.644784 359.085938,528.301042 L354.539062,528.301042 C354.445312,527.207287 354.17969,526.301046 353.742188,525.582292 C353.304685,524.863539 352.757816,524.289326 352.101562,523.859636 C351.445309,523.429946 350.710942,523.129168 349.898438,522.957292 C349.085933,522.785416 348.234379,522.69948 347.34375,522.69948 C345.265615,522.69948 343.625006,523.113538 342.421875,523.941667 C341.218744,524.769796 340.617188,525.902598 340.617188,527.340105 C340.617188,528.871362 341.031246,530.00807 341.859375,530.750261 C342.687504,531.492452 344.015616,532.121352 345.84375,532.63698 L351.070312,534.066667 C352.47657,534.457294 353.734369,534.906508 354.84375,535.414323 C355.953131,535.922138 356.882809,536.551038 357.632812,537.301042 C358.382816,538.051046 358.949217,538.922131 359.332031,539.914323 C359.714846,540.906516 359.90625,542.074473 359.90625,543.41823 C359.90625,544.855737 359.578128,546.152599 358.921875,547.308855 C358.265622,548.46511 357.386724,549.449476 356.285156,550.26198 C355.183588,551.074484 353.894539,551.699478 352.417969,552.13698 C350.941399,552.574482 349.390633,552.79323 347.765625,552.79323 C346.140617,552.79323 344.589851,552.594013 343.113281,552.195573 C341.636711,551.797134 340.324224,551.179953 339.175781,550.344011 C338.027338,549.508069 337.082035,548.449486 336.339844,547.16823 C335.597653,545.886973 335.164063,544.347926 335.039062,542.551042 L339.609375,542.551042 C339.859376,544.754178 340.722649,546.347912 342.199219,547.332292 C343.675789,548.316672 345.499989,548.808855 347.671875,548.808855 C348.76563,548.808855 349.773433,548.695575 350.695312,548.469011 C351.617192,548.242447 352.421872,547.906513 353.109375,547.461198 C353.796878,547.015884 354.343748,546.465108 354.75,545.808855 C355.156252,545.152601 355.359375,544.386984 355.359375,543.51198 C355.359375,542.105723 354.964848,541.004171 354.175781,540.207292 C353.386715,539.410413 352.132821,538.769795 350.414062,538.285417 L344.015625,536.504167 C341.328112,535.769789 339.343756,534.660425 338.0625,533.176042 C336.781244,531.69166 336.140625,529.746367 336.140625,527.340105 C336.140625,526.121349 336.406247,524.984641 336.9375,523.929948 C337.468753,522.875256 338.230464,521.965109 339.222656,521.19948 C340.214849,520.433851 341.390618,519.828388 342.75,519.383073 C344.109382,518.937759 345.640616,518.715105 347.34375,518.715105 Z M405.234375,527.597917 L405.234375,543.41823 C405.234375,545.183864 405.578122,546.586193 406.265625,547.625261 C406.953128,548.664329 408.210928,549.183855 410.039062,549.183855 C411.867197,549.183855 413.316401,548.504174 414.386719,547.144792 C415.457037,545.78541 415.992188,544.035428 415.992188,541.894792 L415.992188,527.597917 L420.304688,527.597917 L420.304688,552.066667 L415.992188,552.066667 L415.992188,548.035417 C415.320309,549.472924 414.421881,550.601819 413.296875,551.422136 C412.171869,552.242453 410.687509,552.652605 408.84375,552.652605 C407.718744,552.652605 406.667974,552.49245 405.691406,552.172136 C404.714839,551.851822 403.875004,551.340108 403.171875,550.63698 C402.468746,549.933851 401.917971,549.02761 401.519531,547.91823 C401.121092,546.808849 400.921875,545.472925 400.921875,543.910417 L400.921875,527.597917 L405.234375,527.597917 Z M307.546875,527.01198 C309.312509,527.01198 310.851556,527.316664 312.164062,527.926042 C313.476569,528.53542 314.562496,529.367443 315.421875,530.422136 C316.281254,531.476829 316.929685,532.715098 317.367188,534.13698 C317.80469,535.558862 318.023438,537.090096 318.023438,538.73073 L318.023438,541.027605 L301.546875,541.027605 L301.546875,543.629167 C301.546875,544.519797 301.714842,545.308851 302.050781,545.996355 C302.38672,546.683858 302.843747,547.265884 303.421875,547.742448 C304.000003,548.219013 304.648434,548.578385 305.367188,548.820573 C306.085941,549.062762 306.828121,549.183855 307.59375,549.183855 C309.125008,549.183855 310.453119,548.793234 311.578125,548.01198 C312.703131,547.230726 313.343749,545.988551 313.5,544.285417 L317.835938,544.285417 C317.742187,545.597924 317.39844,546.765881 316.804688,547.789323 C316.210935,548.812766 315.441411,549.683851 314.496094,550.402605 C313.550777,551.121358 312.484381,551.67604 311.296875,552.066667 C310.109369,552.457294 308.859382,552.652605 307.546875,552.652605 C305.781241,552.652605 304.238288,552.332295 302.917969,551.691667 C301.59765,551.051039 300.496098,550.168235 299.613281,549.04323 C298.730464,547.918224 298.074221,546.574488 297.644531,545.01198 C297.214842,543.449472 297,541.722927 297,539.832292 C297,537.972908 297.230466,536.250269 297.691406,534.664323 C298.152346,533.078378 298.839839,531.726829 299.753906,530.609636 C300.667973,529.492443 301.773431,528.613545 303.070312,527.972917 C304.367194,527.332289 305.859367,527.01198 307.546875,527.01198 Z M525.09375,527.01198 C526.859384,527.01198 528.398431,527.316664 529.710938,527.926042 C531.023444,528.53542 532.109371,529.367443 532.96875,530.422136 C533.828129,531.476829 534.47656,532.715098 534.914062,534.13698 C535.351565,535.558862 535.570312,537.090096 535.570312,538.73073 L535.570312,541.027605 L519.09375,541.027605 L519.09375,543.629167 C519.09375,544.519797 519.261717,545.308851 519.597656,545.996355 C519.933595,546.683858 520.390622,547.265884 520.96875,547.742448 C521.546878,548.219013 522.195309,548.578385 522.914062,548.820573 C523.632816,549.062762 524.374996,549.183855 525.140625,549.183855 C526.671883,549.183855 527.999994,548.793234 529.125,548.01198 C530.250006,547.230726 530.890624,545.988551 531.046875,544.285417 L535.382812,544.285417 C535.289062,545.597924 534.945315,546.765881 534.351562,547.789323 C533.75781,548.812766 532.988286,549.683851 532.042969,550.402605 C531.097652,551.121358 530.031256,551.67604 528.84375,552.066667 C527.656244,552.457294 526.406257,552.652605 525.09375,552.652605 C523.328116,552.652605 521.785163,552.332295 520.464844,551.691667 C519.144525,551.051039 518.042973,550.168235 517.160156,549.04323 C516.277339,547.918224 515.621096,546.574488 515.191406,545.01198 C514.761717,543.449472 514.546875,541.722927 514.546875,539.832292 C514.546875,537.972908 514.777341,536.250269 515.238281,534.664323 C515.699221,533.078378 516.386714,531.726829 517.300781,530.609636 C518.214848,529.492443 519.320306,528.613545 520.617188,527.972917 C521.914069,527.332289 523.406242,527.01198 525.09375,527.01198 Z M199.59375,527.01198 C201.359384,527.01198 202.898431,527.316664 204.210938,527.926042 C205.523444,528.53542 206.609371,529.367443 207.46875,530.422136 C208.328129,531.476829 208.97656,532.715098 209.414062,534.13698 C209.851565,535.558862 210.070312,537.090096 210.070312,538.73073 L210.070312,541.027605 L193.59375,541.027605 L193.59375,543.629167 C193.59375,544.519797 193.761717,545.308851 194.097656,545.996355 C194.433595,546.683858 194.890622,547.265884 195.46875,547.742448 C196.046878,548.219013 196.695309,548.578385 197.414062,548.820573 C198.132816,549.062762 198.874996,549.183855 199.640625,549.183855 C201.171883,549.183855 202.499994,548.793234 203.625,548.01198 C204.750006,547.230726 205.390624,545.988551 205.546875,544.285417 L209.882812,544.285417 C209.789062,545.597924 209.445315,546.765881 208.851562,547.789323 C208.25781,548.812766 207.488286,549.683851 206.542969,550.402605 C205.597652,551.121358 204.531256,551.67604 203.34375,552.066667 C202.156244,552.457294 200.906257,552.652605 199.59375,552.652605 C197.828116,552.652605 196.285163,552.332295 194.964844,551.691667 C193.644525,551.051039 192.542973,550.168235 191.660156,549.04323 C190.777339,547.918224 190.121096,546.574488 189.691406,545.01198 C189.261717,543.449472 189.046875,541.722927 189.046875,539.832292 C189.046875,537.972908 189.277341,536.250269 189.738281,534.664323 C190.199221,533.078378 190.886714,531.726829 191.800781,530.609636 C192.714848,529.492443 193.820306,528.613545 195.117188,527.972917 C196.414069,527.332289 197.906242,527.01198 199.59375,527.01198 Z M475.664062,527.597917 L475.664062,543.41823 C475.664062,545.183864 476.007809,546.586193 476.695312,547.625261 C477.382816,548.664329 478.640616,549.183855 480.46875,549.183855 C482.296884,549.183855 483.746088,548.504174 484.816406,547.144792 C485.886724,545.78541 486.421875,544.035428 486.421875,541.894792 L486.421875,527.597917 L490.734375,527.597917 L490.734375,552.066667 L486.421875,552.066667 L486.421875,548.035417 C485.749997,549.472924 484.851568,550.601819 483.726562,551.422136 C482.601557,552.242453 481.117197,552.652605 479.273438,552.652605 C478.148432,552.652605 477.097661,552.49245 476.121094,552.172136 C475.144526,551.851822 474.304691,551.340108 473.601562,550.63698 C472.898434,549.933851 472.347658,549.02761 471.949219,547.91823 C471.550779,546.808849 471.351562,545.472925 471.351562,543.910417 L471.351562,527.597917 L475.664062,527.597917 Z M173.976562,527.01198 C175.257819,527.01198 176.468744,527.179947 177.609375,527.515886 C178.750006,527.851825 179.749996,528.371351 180.609375,529.07448 C181.468754,529.777608 182.171872,530.672131 182.71875,531.758073 C183.265628,532.844016 183.601562,534.12916 183.726562,535.613542 L179.414062,535.613542 C179.320312,534.629162 179.113283,533.804952 178.792969,533.140886 C178.472655,532.47682 178.05469,531.945575 177.539062,531.547136 C177.023435,531.148696 176.437503,530.867449 175.78125,530.703386 C175.124997,530.539323 174.445316,530.457292 173.742188,530.457292 C173.007809,530.457292 172.304691,530.578385 171.632812,530.820573 C170.960934,531.062762 170.351565,531.42604 169.804688,531.910417 C169.25781,532.394795 168.82422,532.996351 168.503906,533.715105 C168.183592,534.433858 168.023438,535.269787 168.023438,536.222917 L168.023438,543.41823 C168.023438,544.277609 168.17578,545.07057 168.480469,545.797136 C168.785158,546.523702 169.203122,547.133071 169.734375,547.625261 C170.265628,548.117451 170.874997,548.50026 171.5625,548.773698 C172.250003,549.047137 172.992184,549.183855 173.789062,549.183855 C175.38282,549.183855 176.710932,548.754171 177.773438,547.894792 C178.835943,547.035413 179.445312,545.691676 179.601562,543.863542 L183.914062,543.863542 C183.757812,545.36355 183.375003,546.664318 182.765625,547.765886 C182.156247,548.867454 181.402348,549.781507 180.503906,550.508073 C179.605464,551.23464 178.589849,551.773697 177.457031,552.125261 C176.324213,552.476825 175.132819,552.652605 173.882812,552.652605 C172.085929,552.652605 170.542975,552.340108 169.253906,551.715105 C167.964837,551.090102 166.886723,550.207298 166.019531,549.066667 C165.152339,547.926036 164.511721,546.590112 164.097656,545.058855 C163.683592,543.527597 163.476562,541.847926 163.476562,540.019792 C163.476562,538.066657 163.707029,536.281519 164.167969,534.664323 C164.628909,533.047128 165.308589,531.679954 166.207031,530.562761 C167.105473,529.445568 168.210931,528.574483 169.523438,527.94948 C170.835944,527.324477 172.320304,527.01198 173.976562,527.01198 Z M437.53125,527.01198 C438.812506,527.01198 440.023432,527.179947 441.164062,527.515886 C442.304693,527.851825 443.304683,528.371351 444.164062,529.07448 C445.023442,529.777608 445.72656,530.672131 446.273438,531.758073 C446.820315,532.844016 447.156249,534.12916 447.28125,535.613542 L442.96875,535.613542 C442.875,534.629162 442.66797,533.804952 442.347656,533.140886 C442.027342,532.47682 441.609378,531.945575 441.09375,531.547136 C440.578122,531.148696 439.992191,530.867449 439.335938,530.703386 C438.679684,530.539323 438.000004,530.457292 437.296875,530.457292 C436.562496,530.457292 435.859378,530.578385 435.1875,530.820573 C434.515622,531.062762 433.906253,531.42604 433.359375,531.910417 C432.812497,532.394795 432.378908,532.996351 432.058594,533.715105 C431.73828,534.433858 431.578125,535.269787 431.578125,536.222917 L431.578125,543.41823 C431.578125,544.277609 431.730467,545.07057 432.035156,545.797136 C432.339845,546.523702 432.75781,547.133071 433.289062,547.625261 C433.820315,548.117451 434.429684,548.50026 435.117188,548.773698 C435.804691,549.047137 436.546871,549.183855 437.34375,549.183855 C438.937508,549.183855 440.26562,548.754171 441.328125,547.894792 C442.39063,547.035413 442.999999,545.691676 443.15625,543.863542 L447.46875,543.863542 C447.312499,545.36355 446.929691,546.664318 446.320312,547.765886 C445.710934,548.867454 444.957036,549.781507 444.058594,550.508073 C443.160152,551.23464 442.144537,551.773697 441.011719,552.125261 C439.878901,552.476825 438.687506,552.652605 437.4375,552.652605 C435.640616,552.652605 434.097663,552.340108 432.808594,551.715105 C431.519525,551.090102 430.441411,550.207298 429.574219,549.066667 C428.707027,547.926036 428.066408,546.590112 427.652344,545.058855 C427.238279,543.527597 427.03125,541.847926 427.03125,540.019792 C427.03125,538.066657 427.261716,536.281519 427.722656,534.664323 C428.183596,533.047128 428.863277,531.679954 429.761719,530.562761 C430.660161,529.445568 431.765618,528.574483 433.078125,527.94948 C434.390632,527.324477 435.874992,527.01198 437.53125,527.01198 Z M275.929688,527.597917 L282.070312,546.933855 L282.257812,546.933855 L288.515625,527.597917 L292.96875,527.597917 L284.179688,552.066667 L280.054688,552.066667 L271.265625,527.597917 L275.929688,527.597917 Z M265.945312,527.597917 L265.945312,552.066667 L261.632812,552.066667 L261.632812,527.597917 L265.945312,527.597917 Z M250.03125,519.41823 L250.03125,527.597917 L255.65625,527.597917 L255.65625,531.277605 L250.03125,531.277605 L250.03125,548.363542 L255.65625,548.363542 L255.65625,552.066667 L245.765625,552.066667 L245.765625,531.277605 L241.640625,531.277605 L241.640625,527.597917 L245.765625,527.597917 L245.765625,519.41823 L250.03125,519.41823 Z M228.257812,527.01198 C229.445318,527.01198 230.523433,527.172134 231.492188,527.492448 C232.460942,527.812763 233.296871,528.324476 234,529.027605 C234.703129,529.730733 235.249998,530.633068 235.640625,531.734636 C236.031252,532.836204 236.226562,534.176034 236.226562,535.754167 L236.226562,552.066667 L231.890625,552.066667 L231.890625,536.222917 C231.890625,534.426033 231.546878,533.015891 230.859375,531.992448 C230.171872,530.969006 228.898447,530.457292 227.039062,530.457292 C226.148433,530.457292 225.335941,530.633072 224.601562,530.984636 C223.867184,531.3362 223.226565,531.840101 222.679688,532.496355 C222.13281,533.152608 221.707033,533.929944 221.402344,534.828386 C221.097655,535.726828 220.945312,536.707287 220.945312,537.769792 L220.945312,552.066667 L216.632812,552.066667 L216.632812,527.597917 L220.945312,527.597917 L220.945312,531.629167 C221.617191,530.19166 222.539057,529.062765 223.710938,528.242448 C224.882818,527.422132 226.398428,527.01198 228.257812,527.01198 Z M510.46875,527.597917 L510.46875,531.32448 L503.015625,531.32448 L503.015625,552.066667 L498.703125,552.066667 L498.703125,527.597917 L510.46875,527.597917 Z M372.375,519.41823 L372.375,527.597917 L378,527.597917 L378,531.277605 L372.375,531.277605 L372.375,548.363542 L378,548.363542 L378,552.066667 L368.109375,552.066667 L368.109375,531.277605 L363.984375,531.277605 L363.984375,527.597917 L368.109375,527.597917 L368.109375,519.41823 L372.375,519.41823 Z M148.992188,527.01198 C150.179693,527.01198 151.257808,527.172134 152.226562,527.492448 C153.195317,527.812763 154.031246,528.324476 154.734375,529.027605 C155.437504,529.730733 155.984373,530.633068 156.375,531.734636 C156.765627,532.836204 156.960938,534.176034 156.960938,535.754167 L156.960938,552.066667 L152.625,552.066667 L152.625,536.222917 C152.625,534.426033 152.281253,533.015891 151.59375,531.992448 C150.906247,530.969006 149.632822,530.457292 147.773438,530.457292 C146.882808,530.457292 146.070316,530.633072 145.335938,530.984636 C144.601559,531.3362 143.96094,531.840101 143.414062,532.496355 C142.867185,533.152608 142.441408,533.929944 142.136719,534.828386 C141.83203,535.726828 141.679688,536.707287 141.679688,537.769792 L141.679688,552.066667 L137.367188,552.066667 L137.367188,527.597917 L141.679688,527.597917 L141.679688,531.629167 C142.351566,530.19166 143.273432,529.062765 144.445312,528.242448 C145.617193,527.422132 147.132803,527.01198 148.992188,527.01198 Z M395.742188,527.597917 L395.742188,531.32448 L388.289062,531.32448 L388.289062,552.066667 L383.976562,552.066667 L383.976562,527.597917 L395.742188,527.597917 Z M128.976562,519.41823 L128.976562,552.066667 L124.40625,552.066667 L124.40625,519.41823 L128.976562,519.41823 Z M459.9375,519.41823 L459.9375,527.597917 L465.5625,527.597917 L465.5625,531.277605 L459.9375,531.277605 L459.9375,548.363542 L465.5625,548.363542 L465.5625,552.066667 L455.671875,552.066667 L455.671875,531.277605 L451.546875,531.277605 L451.546875,527.597917 L455.671875,527.597917 L455.671875,519.41823 L459.9375,519.41823 Z M199.59375,530.457292 C198.796871,530.457292 198.039066,530.586197 197.320312,530.844011 C196.601559,531.101825 195.96094,531.480727 195.398438,531.98073 C194.835935,532.480732 194.394533,533.090101 194.074219,533.808855 C193.753905,534.527608 193.59375,535.332288 193.59375,536.222917 L193.59375,537.582292 L205.59375,537.582292 L205.59375,536.222917 C205.59375,535.332288 205.433595,534.527608 205.113281,533.808855 C204.792967,533.090101 204.355472,532.480732 203.800781,531.98073 C203.246091,531.480727 202.605472,531.101825 201.878906,530.844011 C201.15234,530.586197 200.390629,530.457292 199.59375,530.457292 Z M307.546875,530.457292 C306.749996,530.457292 305.992191,530.586197 305.273438,530.844011 C304.554684,531.101825 303.914065,531.480727 303.351562,531.98073 C302.78906,532.480732 302.347658,533.090101 302.027344,533.808855 C301.70703,534.527608 301.546875,535.332288 301.546875,536.222917 L301.546875,537.582292 L313.546875,537.582292 L313.546875,536.222917 C313.546875,535.332288 313.38672,534.527608 313.066406,533.808855 C312.746092,533.090101 312.308597,532.480732 311.753906,531.98073 C311.199216,531.480727 310.558597,531.101825 309.832031,530.844011 C309.105465,530.586197 308.343754,530.457292 307.546875,530.457292 Z M525.09375,530.457292 C524.296871,530.457292 523.539066,530.586197 522.820312,530.844011 C522.101559,531.101825 521.46094,531.480727 520.898438,531.98073 C520.335935,532.480732 519.894533,533.090101 519.574219,533.808855 C519.253905,534.527608 519.09375,535.332288 519.09375,536.222917 L519.09375,537.582292 L531.09375,537.582292 L531.09375,536.222917 C531.09375,535.332288 530.933595,534.527608 530.613281,533.808855 C530.292967,533.090101 529.855472,532.480732 529.300781,531.98073 C528.746091,531.480727 528.105472,531.101825 527.378906,530.844011 C526.65234,530.586197 525.890629,530.457292 525.09375,530.457292 Z M266.039062,519.41823 L266.039062,523.941667 L261.539062,523.941667 L261.539062,519.41823 L266.039062,519.41823 Z M347.015625,437.423959 C350.328142,437.423959 353.335924,438.017703 356.039062,439.205209 C358.742201,440.392715 361.054678,442.025511 362.976562,444.103646 C364.898447,446.181781 366.367182,448.658319 367.382812,451.533334 C368.398443,454.408348 368.90625,457.517692 368.90625,460.861459 L368.90625,466.908334 L337.453125,466.908334 L337.453125,470.142709 C337.453125,473.080223 338.414053,475.353638 340.335938,476.963021 C342.257822,478.572404 344.531237,479.377084 347.15625,479.377084 C349.781263,479.377084 351.921867,478.68959 353.578125,477.314584 C355.234383,475.939577 356.218748,474.002096 356.53125,471.502084 L368.53125,471.502084 C367.749996,476.939611 365.460956,481.166131 361.664062,484.181771 C357.867169,487.197411 352.984405,488.705209 347.015625,488.705209 C343.546858,488.705209 340.445326,488.080215 337.710938,486.830209 C334.976549,485.580202 332.664072,483.83022 330.773438,481.580209 C328.882803,479.330197 327.437505,476.627099 326.4375,473.470834 C325.437495,470.314568 324.9375,466.814603 324.9375,462.970834 C324.9375,459.127064 325.468745,455.634912 326.53125,452.494271 C327.593755,449.35363 329.085928,446.666157 331.007812,444.431771 C332.929697,442.197385 335.249986,440.47084 337.96875,439.252084 C340.687514,438.033328 343.703108,437.423959 347.015625,437.423959 Z M208.6875,437.423959 C212.343768,437.423959 215.593736,438.033328 218.4375,439.252084 C221.281264,440.47084 223.679678,442.21301 225.632812,444.478646 C227.585947,446.744282 229.070307,449.44738 230.085938,452.588021 C231.101568,455.728662 231.609375,459.220814 231.609375,463.064584 C231.609375,466.908353 231.101568,470.392693 230.085938,473.517709 C229.070307,476.642724 227.585947,479.345822 225.632812,481.627084 C223.679678,483.908345 221.281264,485.658328 218.4375,486.877084 C215.593736,488.09584 212.343768,488.705209 208.6875,488.705209 C205.031232,488.705209 201.781264,488.09584 198.9375,486.877084 C196.093736,485.658328 193.695322,483.908345 191.742188,481.627084 C189.789053,479.345822 188.29688,476.642724 187.265625,473.517709 C186.23437,470.392693 185.71875,466.908353 185.71875,463.064584 C185.71875,459.220814 186.23437,455.728662 187.265625,452.588021 C188.29688,449.44738 189.789053,446.744282 191.742188,444.478646 C193.695322,442.21301 196.093736,440.47084 198.9375,439.252084 C201.781264,438.033328 205.031232,437.423959 208.6875,437.423959 Z M298.03125,437.423959 C303.031275,437.423959 306.78905,439.025505 309.304688,442.228646 C311.820325,445.431787 313.078125,449.845805 313.078125,455.470834 L313.078125,487.533334 L301.078125,487.533334 L301.078125,456.314584 C301.078125,450.252053 298.781273,447.220834 294.1875,447.220834 L294.09375,447.220834 L294.09375,447.220834 C291.218736,447.220834 288.898446,448.322385 287.132812,450.525521 C285.367179,452.728657 284.484375,455.627066 284.484375,459.220834 L284.484375,487.533334 L272.484375,487.533334 L272.484375,456.314584 C272.484375,450.252053 270.171898,447.220834 265.546875,447.220834 L265.453125,447.220834 L265.453125,447.220834 C262.578111,447.220834 260.265634,448.322385 258.515625,450.525521 C256.765616,452.728657 255.890625,455.627066 255.890625,459.220834 L255.890625,487.533334 L243.890625,487.533334 L243.890625,438.595834 L255.890625,438.595834 L255.890625,445.673959 C257.296882,443.048945 259.085927,441.017716 261.257812,439.580209 C263.429698,438.142701 266.140609,437.423959 269.390625,437.423959 C272.921893,437.423959 275.820301,438.213013 278.085938,439.791146 C280.351574,441.369279 282.031245,443.627069 283.125,446.564584 C286.312516,440.470803 291.281216,437.423959 298.03125,437.423959 Z M154.640625,422.236459 C161.60941,422.236459 166.765608,423.88488 170.109375,427.181771 C173.453142,430.478663 175.125,435.548924 175.125,442.392709 C175.125,447.580235 173.890637,451.744255 171.421875,454.884896 C168.953113,458.025537 165.515647,460.205203 161.109375,461.423959 L176.0625,487.533334 L162.234375,487.533334 L148.5,462.455209 L140.53125,462.455209 L140.53125,487.533334 L128.0625,487.533334 L128.0625,422.236459 L154.640625,422.236459 Z M208.6875,446.752084 C205.687485,446.752084 203.195322,447.548951 201.210938,449.142709 C199.226553,450.736467 198.234375,453.002069 198.234375,455.939584 L198.234375,470.142709 C198.234375,473.080223 199.226553,475.353638 201.210938,476.963021 C203.195322,478.572404 205.687485,479.377084 208.6875,479.377084 C211.687515,479.377084 214.179678,478.595841 216.164062,477.033334 C218.148447,475.470826 219.140625,473.173974 219.140625,470.142709 L219.140625,455.939584 C219.140625,452.939569 218.148447,450.658341 216.164062,449.095834 C214.179678,447.533326 211.687515,446.752084 208.6875,446.752084 Z M347.015625,446.752084 C344.265611,446.752084 341.984384,447.595825 340.171875,449.283334 C338.359366,450.970842 337.453125,453.15832 337.453125,455.845834 L337.453125,457.580209 L356.625,457.580209 L356.625,455.845834 C356.625,453.15832 355.718759,450.970842 353.90625,449.283334 C352.093741,447.595825 349.796889,446.752084 347.015625,446.752084 Z M156.28125,432.830209 L140.53125,432.830209 L140.53125,452.189584 L156.28125,452.189584 C160.18752,452.189584 162.140625,450.01773 162.140625,445.673959 L162.140625,438.970834 C162.140625,436.783323 161.710942,435.213026 160.851562,434.259896 C159.992183,433.306766 158.468761,432.830209 156.28125,432.830209 Z"/>
  </g>
</svg>
