<svg xmlns="http://www.w3.org/2000/svg" width="1200" height="675" viewBox="0 0 1200 675">
  <g fill="none" fill-rule="evenodd">
    <path fill="#4038FF" d="M0 0H1200V675H0z"/>
    <g transform="matrix(1 0 0 -1 638 675)">
      <path fill="#FFF" fill-rule="nonzero" d="M462.095 450L449.6 450 449.6 462.506 462.095 462.506zM474.59 462.506L462.095 462.506 462.095 475.013 474.59 475.013zM487.054 450L474.559 450 474.559 462.506 487.054 462.506zM462.095 474.981L449.6 474.981 449.6 487.487 462.095 487.487z"/>
      <path fill="#FFF" fill-rule="nonzero" d="M487.054 474.981L474.559 474.981 474.559 487.487 487.054 487.487zM499.549 462.506L487.054 462.506 487.054 475.013 499.549 475.013zM474.59 487.487L462.095 487.487 462.095 499.994 474.59 499.994zM462.095 499.994L449.6 499.994 449.6 512.5 462.095 512.5zM487.054 499.994L474.559 499.994 474.559 512.5 487.054 512.5zM499.549 487.487L487.054 487.487 487.054 499.994 499.549 499.994zM474.59 512.506L462.095 512.506 462.095 525.013 474.59 525.013zM462.095 524.981L449.6 524.981 449.6 537.487 462.095 537.487z"/>
      <path fill="#FFF" fill-rule="nonzero" d="M487.054 524.981L474.559 524.981 474.559 537.487 487.054 537.487zM499.549 512.506L487.054 512.506 487.054 525.013 499.549 525.013zM474.59 537.487L462.095 537.487 462.095 549.994 474.59 549.994zM462.095 549.994L449.6 549.994 449.6 562.5 462.095 562.5zM487.054 549.994L474.559 549.994 474.559 562.5 487.054 562.5zM499.549 537.487L487.054 537.487 487.054 549.994 499.549 549.994zM512.051 450L499.556 450 499.556 462.506 512.051 462.506zM524.546 462.506L512.051 462.506 512.051 475.013 524.546 475.013zM537.01 450L524.515 450 524.515 462.506 537.01 462.506zM512.051 474.981L499.556 474.981 499.556 487.487 512.051 487.487z"/>
      <path fill="#FFF" fill-rule="nonzero" d="M537.01 474.981L524.515 474.981 524.515 487.487 537.01 487.487zM549.505 462.506L537.01 462.506 537.01 475.013 549.505 475.013zM524.546 487.487L512.051 487.487 512.051 499.994 524.546 499.994zM512.051 499.994L499.556 499.994 499.556 512.5 512.051 512.5zM537.01 499.994L524.515 499.994 524.515 512.5 537.01 512.5zM549.505 487.487L537.01 487.487 537.01 499.994 549.505 499.994zM524.546 512.506L512.051 512.506 512.051 525.013 524.546 525.013zM512.051 524.981L499.556 524.981 499.556 537.487 512.051 537.487z"/>
      <path fill="#FFF" fill-rule="nonzero" d="M537.01 524.981L524.515 524.981 524.515 537.487 537.01 537.487zM549.505 512.506L537.01 512.506 537.01 525.013 549.505 525.013zM524.546 537.487L512.051 537.487 512.051 549.994 524.546 549.994zM512.051 549.994L499.556 549.994 499.556 562.5 512.051 562.5zM537.01 549.994L524.515 549.994 524.515 562.5 537.01 562.5zM562 450L549.505 450 549.505 462.506 562 462.506zM562 474.981L549.505 474.981 549.505 487.487 562 487.487zM562 499.994L549.505 499.994 549.505 512.5 562 512.5zM562 524.981L549.505 524.981 549.505 537.487 562 537.487zM562 549.994L549.505 549.994 549.505 562.5 562 562.5zM549.505 537.487L537.01 537.487 537.01 549.994 549.505 549.994z"/>
      <path fill="#FFF" d="M311.41,375.019 L298.946,375.019 L298.946,387.494 L311.41,387.494 L311.41,400 L298.946,400 L298.946,412.506 L311.41,412.506 L311.41,424.981 L323.905,424.981 L323.905,437.487 L311.41,437.487 L311.41,425.012 L298.946,425.012 L298.946,437.487 L311.41,437.487 L311.41,450 L298.915,450 L298.915,437.494 L286.451,437.494 L286.451,425.019 L273.956,425.019 L273.956,437.494 L261.461,437.494 L261.461,425.019 L248.997,425.019 L248.997,437.494 L261.461,437.494 L261.461,450 L248.965,450 L248.965,437.494 L236.502,437.494 L236.502,450 L224,450 L224,437.494 L236.495,437.494 L236.495,425.019 L224,425.019 L224,412.512 L236.495,412.512 L236.495,400.006 L224,400.006 L224,387.5 L236.495,387.5 L236.495,375.025 L236.495,374.994 L248.959,374.994 L248.959,362.519 L261.454,362.519 L261.454,374.994 L273.949,374.994 L273.949,362.519 L286.445,362.519 L286.445,374.994 L298.909,374.994 L298.909,362.519 L311.404,362.519 L311.404,374.994 L323.899,374.994 L323.899,387.5 L311.404,387.5 L311.404,375.019 L311.41,375.019 Z M236.495,374.988 L236.495,362.512 L224,362.512 L224,375.019 L236.495,375.019 L236.495,374.988 Z M273.949,437.494 L273.949,450 L286.445,450 L286.445,437.494 L273.949,437.494 Z M311.41,412.512 L311.41,400.006 L323.905,400.006 L323.905,412.512 L311.41,412.512 Z M248.959,424.988 L236.495,424.988 L236.495,412.512 L248.959,412.512 L248.959,424.988 Z M248.99,362.512 L248.99,350.006 L261.454,350.006 L261.454,362.512 L273.949,362.512 L273.949,350.006 L286.445,350.006 L286.445,362.512 L298.94,362.512 L298.94,350.006 L311.404,350.006 L311.404,362.512 L323.899,362.512 L323.899,350.006 L311.404,350.006 L311.404,337.5 L298.909,337.5 L298.909,350.006 L286.445,350.006 L286.445,337.5 L273.949,337.5 L273.949,350.006 L261.454,350.006 L261.454,337.5 L248.959,337.5 L248.959,350.006 L236.495,350.006 L236.495,337.5 L224,337.5 L224,350.006 L236.495,350.006 L236.495,362.512 L248.99,362.512 Z M298.909,387.494 L298.909,400 L286.445,400 L286.445,387.494 L298.909,387.494 Z M273.949,387.494 L273.949,375.019 L286.445,375.019 L286.445,387.494 L273.949,387.494 Z M261.454,387.494 L273.949,387.494 L273.949,400 L261.454,400 L261.454,387.494 Z M261.454,387.494 L248.99,387.494 L248.99,375.019 L261.454,375.019 L261.454,387.494 Z M261.454,412.512 L248.99,412.512 L248.99,400.006 L261.454,400.006 L261.454,412.512 Z M273.949,412.512 L273.949,424.988 L261.454,424.988 L261.454,412.512 L273.949,412.512 Z M286.451,412.512 L273.956,412.512 L273.956,400.006 L286.451,400.006 L286.451,412.512 Z M286.451,412.512 L298.915,412.512 L298.915,424.988 L286.451,424.988 L286.451,412.512 Z M248.959,400.006 L248.959,387.5 L236.495,387.5 L236.495,400.006 L248.959,400.006 Z M336.4,437.494 L323.905,437.494 L323.905,450 L336.4,450 L336.4,437.494 Z M323.905,412.512 L336.4,412.512 L336.4,425.019 L323.905,425.019 L323.905,412.512 Z M336.4,387.494 L323.905,387.494 L323.905,400 L336.4,400 L336.4,387.494 Z M323.905,362.512 L336.4,362.512 L336.4,375.019 L323.905,375.019 L323.905,362.512 Z M323.905,337.5 L336.4,337.5 L336.4,350.006 L323.905,350.006 L323.905,337.5 Z"/>
      <path fill="#261EE4" d="M549.505 225L562 225 562 112.5 549.505 112.5 549.505 225zM537.022 225L524.533 225 524.533 112.5 537.022 112.5 537.022 225zM512.045 225L499.556 225 499.556 112.5 512.045 112.5 512.045 225zM474.578 225L487.067 225 487.067 112.5 474.578 112.5 474.578 225zM462.089 225L449.6 225 449.6 112.5 462.089 112.5 462.089 225zM449.6 462.506L449.6 450 337.2 450 337.2 462.506 449.6 462.506zM449.6 475L449.6 487.5 337.2 487.5 337.2 475 449.6 475zM449.6 500L449.6 512.5 337.2 512.5 337.2 500 449.6 500zM449.6 537.5L449.6 525 337.2 525 337.2 537.5 449.6 537.5zM449.6 550L449.6 562.5 337.2 562.5 337.2 550 449.6 550zM449.6 99.9938L449.6 112.5 337.2 112.5 337.2 99.9938 449.6 99.9938zM449.6 62.4875L449.6 49.9813 337.2 49.9813 337.2 62.4875 449.6 62.4875zM449.6 24.9813L449.6 37.4875 337.2 37.4875 337.2 24.9813 449.6 24.9813zM449.6 0L449.6 12.5063 337.2 12.5063 337.2 0 449.6 0zM449.6 87.4875L449.6 74.9812 337.2 74.9812 337.2 87.4875 449.6 87.4875zM549.511 337.5L562 337.5C562 399.631 511.676 450 449.6 450L449.6 437.5C504.782 437.5 549.511 392.731 549.511 337.5zM524.533 337.5L537.022 337.5C537.022 385.825 497.882 425 449.6 425L449.6 412.5C490.982 412.5 524.533 378.919 524.533 337.5zM512.045 337.5L499.556 337.5C499.556 365.112 477.188 387.5 449.6 387.5L449.6 400C484.088 400 512.045 372.019 512.045 337.5zM474.578 337.5L487.067 337.5C487.067 358.212 470.294 375 449.6 375L449.6 362.5C463.394 362.5 474.578 351.306 474.578 337.5zM449.6 337.5L462.089 337.5C462.089 344.406 456.5 350 449.6 350L449.6 337.5zM349.689 450L337.2 450C337.2 387.869 387.524 337.5 449.6 337.5L449.6 350C394.418 350 349.689 394.769 349.689 450zM374.667 450L362.178 450C362.178 401.675 401.318 362.5 449.6 362.5L449.6 375C408.218 375 374.667 408.581 374.667 450zM387.156 450L399.645 450C399.645 422.387 422.012 400 449.6 400L449.6 387.5C415.112 387.5 387.156 415.481 387.156 450zM424.622 450L412.134 450C412.134 429.287 428.906 412.5 449.6 412.5L449.6 425C435.806 425 424.622 436.194 424.622 450zM449.6 450L437.111 450C437.111 443.094 442.7 437.5 449.6 437.5L449.6 450z"/>
      <path fill="#261EE4" fill-rule="nonzero" d="M449.6 562.5L449.6 675 562 675C562 612.869 511.676 562.5 449.6 562.5zM0 675L112.4 675 112.4 562.5C50.324 562.5 0 612.869 0 675z"/>
      <path fill="#FFF" d="M200.41,600.019 L187.946,600.019 L187.946,612.494 L200.41,612.494 L200.41,625 L187.946,625 L187.946,637.506 L200.41,637.506 L200.41,649.981 L212.905,649.981 L212.905,662.487 L200.41,662.487 L200.41,650.012 L187.946,650.012 L187.946,662.487 L200.41,662.487 L200.41,675 L187.915,675 L187.915,662.494 L175.451,662.494 L175.451,650.019 L162.956,650.019 L162.956,662.494 L150.461,662.494 L150.461,650.019 L137.997,650.019 L137.997,662.494 L150.461,662.494 L150.461,675 L137.965,675 L137.965,662.494 L125.502,662.494 L125.502,675 L113,675 L113,662.494 L125.495,662.494 L125.495,650.019 L113,650.019 L113,637.512 L125.495,637.512 L125.495,625.006 L113,625.006 L113,612.5 L125.495,612.5 L125.495,600.025 L125.495,599.994 L137.959,599.994 L137.959,587.519 L150.454,587.519 L150.454,599.994 L162.949,599.994 L162.949,587.519 L175.445,587.519 L175.445,599.994 L187.909,599.994 L187.909,587.519 L200.404,587.519 L200.404,599.994 L212.899,599.994 L212.899,612.5 L200.404,612.5 L200.404,600.019 L200.41,600.019 Z M125.495,599.988 L125.495,587.512 L113,587.512 L113,600.019 L125.495,600.019 L125.495,599.988 Z M162.949,662.494 L162.949,675 L175.445,675 L175.445,662.494 L162.949,662.494 Z M200.41,637.512 L200.41,625.006 L212.905,625.006 L212.905,637.512 L200.41,637.512 Z M137.959,649.988 L125.495,649.988 L125.495,637.512 L137.959,637.512 L137.959,649.988 Z M137.99,587.512 L137.99,575.006 L150.454,575.006 L150.454,587.512 L162.949,587.512 L162.949,575.006 L175.445,575.006 L175.445,587.512 L187.94,587.512 L187.94,575.006 L200.404,575.006 L200.404,587.512 L212.899,587.512 L212.899,575.006 L200.404,575.006 L200.404,562.5 L187.909,562.5 L187.909,575.006 L175.445,575.006 L175.445,562.5 L162.949,562.5 L162.949,575.006 L150.454,575.006 L150.454,562.5 L137.959,562.5 L137.959,575.006 L125.495,575.006 L125.495,562.5 L113,562.5 L113,575.006 L125.495,575.006 L125.495,587.512 L137.99,587.512 Z M187.909,612.494 L187.909,625 L175.445,625 L175.445,612.494 L187.909,612.494 Z M162.949,612.494 L162.949,600.019 L175.445,600.019 L175.445,612.494 L162.949,612.494 Z M150.454,612.494 L162.949,612.494 L162.949,625 L150.454,625 L150.454,612.494 Z M150.454,612.494 L137.99,612.494 L137.99,600.019 L150.454,600.019 L150.454,612.494 Z M150.454,637.512 L137.99,637.512 L137.99,625.006 L150.454,625.006 L150.454,637.512 Z M162.949,637.512 L162.949,649.988 L150.454,649.988 L150.454,637.512 L162.949,637.512 Z M175.451,637.512 L162.956,637.512 L162.956,625.006 L175.451,625.006 L175.451,637.512 Z M175.451,637.512 L187.915,637.512 L187.915,649.988 L175.451,649.988 L175.451,637.512 Z M137.959,625.006 L137.959,612.5 L125.495,612.5 L125.495,625.006 L137.959,625.006 Z M225.4,662.494 L212.905,662.494 L212.905,675 L225.4,675 L225.4,662.494 Z M212.905,637.512 L225.4,637.512 L225.4,650.019 L212.905,650.019 L212.905,637.512 Z M225.4,612.494 L212.905,612.494 L212.905,625 L225.4,625 L225.4,612.494 Z M212.905,587.512 L225.4,587.512 L225.4,600.019 L212.905,600.019 L212.905,587.512 Z M212.905,562.5 L225.4,562.5 L225.4,575.006 L212.905,575.006 L212.905,562.5 Z"/>
      <path fill="#261EE4" d="M237.295 675L224.8 675 224.8 562.5 237.295 562.5 237.295 675zM274.768 675L287.263 675 287.263 562.5 274.768 562.5 274.768 675zM312.241 675L299.746 675 299.746 562.5 312.241 562.5 312.241 675zM337.2 675L324.705 675 324.705 562.5 337.2 562.5 337.2 675zM249.79 675L262.285 675 262.285 562.5 249.79 562.5 249.79 675zM337.2 328.688L337.2 337.5 328.395 337.5 224.8 233.813 224.8 225 233.604 225 337.2 328.688zM224.8 251.5L224.8 269.188 293.052 337.5 310.723 337.5 224.8 251.5zM224.8 304.562L224.8 286.875 275.38 337.5 257.708 337.5 224.8 304.562zM224.8 337.5L240.036 337.5 224.8 322.25 224.8 337.5zM251.276 225L268.948 225 337.2 293.312 337.2 311 251.276 225zM304.292 225L286.62 225 337.2 275.625 337.2 257.938 304.292 225zM337.2 240.25L321.963 225 337.2 225 337.2 240.25z"/>
    </g>
    <g fill="#FFF" fill-rule="nonzero" transform="translate(120 120)">
      <path d="M41.36675 36.3L41.36675 33.1 46.4 33.1 46.4 12.7 49.93325 12.7 49.93325 33.36675C49.93325 34.96675 48.63325 36.3 47 36.3L41.36675 36.3zM54.53325 27.66675C52.83325 25.96675 51.96675 23.83325 51.96675 21.3 51.96675 18.76675 52.83325 16.63325 54.53325 14.93325 56.23325 13.23325 58.36675 12.36675 60.9 12.36675 63.43325 12.36675 65.53325 13.23325 67.26675 14.93325 68.96675 16.63325 69.83325 18.76675 69.83325 21.3 69.83325 23.83325 68.96675 25.96675 67.26675 27.66675 65.56675 29.36675 63.43325 30.23325 60.9 30.23325 58.33325 30.23325 56.23325 29.36675 54.53325 27.66675zM57.1 17.1C56.13325 18.13325 55.66675 19.53325 55.66675 21.26675 55.66675 23 56.13325 24.4 57.1 25.43325 58.06675 26.46675 59.33325 27 60.86675 27 62.4 27 63.66675 26.46675 64.63325 25.43325 65.6 24.4 66.06675 23 66.06675 21.26675 66.06675 19.53325 65.6 18.13325 64.63325 17.1 63.66675 16.06675 62.4 15.53325 60.86675 15.53325 59.33325 15.56675 58.06675 16.06675 57.1 17.1zM70.1 12.7L73.8 12.7 77.5 26.53325 79.33325 26.53325 83.36675 12.7 87.06675 12.7 80 36.3 76.3 36.3 78.3 29.9 77 29.9C75.7 29.9 74.53325 29.03325 74.2 27.76675L70.1 12.7zM86.73325 24.5L90.6 24.5C90.63325 24.56675 90.66675 24.66675 90.73325 24.76675 90.8 24.86675 90.93325 25.06675 91.13325 25.36675 91.33325 25.66675 91.6 25.93325 91.86675 26.13325 92.13325 26.36675 92.56675 26.56675 93.06675 26.73325 93.6 26.9 94.16675 27 94.8 27 96.03325 27 96.93325 26.8 97.5 26.43325 98.06675 26.06675 98.33325 25.56675 98.33325 25 98.33325 24.46675 97.96675 24.03325 97.23325 23.73325 96.5 23.43325 95.6 23.16675 94.53325 22.96675 93.46675 22.76675 92.43325 22.5 91.36675 22.16675 90.3 21.83325 89.43325 21.3 88.66675 20.5 87.93325 19.7 87.56675 18.7 87.56675 17.43325 87.56675 16.1 88.16675 14.9 89.4 13.9 90.63325 12.9 92.26675 12.4 94.26675 12.4 95.53325 12.4 96.63325 12.6 97.63325 12.96675 98.63325 13.33325 99.36675 13.8 99.86675 14.3 100.36675 14.83325 100.76675 15.36675 101.1 15.9 101.43325 16.43325 101.63325 16.86675 101.73325 17.26675L101.86675 17.8 98.16675 17.8C98.13325 17.73325 98.1 17.66675 98.06675 17.56675 98.03325 17.46675 97.9 17.3 97.7 17.03325 97.5 16.76675 97.3 16.56675 97.03325 16.36675 96.76675 16.16675 96.4 16 95.93325 15.83325 95.46675 15.66675 94.9 15.6 94.3 15.6 93.3 15.6 92.56675 15.76675 92.03325 16.13325 91.53325 16.5 91.26675 16.93325 91.26675 17.46675 91.26675 17.9 91.53325 18.3 92.06675 18.6 92.6 18.9 93.26675 19.13325 94.06675 19.26675 94.86675 19.4 95.73325 19.6 96.66675 19.86675 97.6 20.13325 98.43325 20.43325 99.26675 20.76675 100.06675 21.1 100.73325 21.63325 101.26675 22.36675 101.8 23.1 102.06675 24 102.06675 25.03325 102.06675 26.46675 101.43325 27.7 100.13325 28.73325 98.83325 29.76675 97.06675 30.26675 94.83325 30.26675 93.5 30.26675 92.33325 30.06675 91.3 29.66675 90.26675 29.26675 89.46675 28.8 88.93325 28.23325 88.4 27.66675 87.96675 27.1 87.6 26.53325 87.26675 25.96675 87.03325 25.5 86.93325 25.13325L86.73325 24.5zM102.7 15.9L102.7 12.7 104.7 12.7 104.7 9 108.23325 9 108.23325 12.7 113.46675 12.7 113.46675 15.9 108.26675 15.9 108.26675 26.7 113.63325 26.7 113.63325 29.9 107.63325 29.9C106.03325 29.9 104.7 28.6 104.7 26.96675L104.7 15.9 102.7 15.9zM119.16675 15.9L119.16675 29.9 115.63325 29.9 115.63325 15.26675C115.63325 13.86675 116.76675 12.7 118.2 12.7L119.16675 12.7 126.06675 12.7 126.06675 15.9 119.16675 15.9zM128.46675 27.66675C126.8 25.93325 125.93325 23.8 125.93325 21.3 125.93325 18.8 126.8 16.66675 128.46675 14.93325 130.16675 13.2 132.23325 12.36675 134.66675 12.36675 137.1 12.36675 139.16675 13.23325 140.86675 14.93325 142.56675 16.66675 143.4 18.76675 143.4 21.3L143.4 22.46675 129.46675 22.46675C129.7 23.86675 130.33325 24.96675 131.26675 25.8 132.23325 26.63325 133.36675 27.03325 134.66675 27.03325 135.73325 27.03325 136.63325 26.83325 137.46675 26.43325 138.26675 26.03325 138.83325 25.63325 139.1 25.23325L139.53325 24.66675 143.23325 24.66675C143.2 24.83325 143.1 25.03325 143 25.26675 142.9 25.5 142.6 25.96675 142.13325 26.6 141.66675 27.23325 141.16675 27.8 140.56675 28.3 140 28.76675 139.16675 29.23325 138.1 29.63325 137.03325 30.03325 135.9 30.23325 134.63325 30.23325 132.23325 30.23325 130.16675 29.36675 128.46675 27.66675zM130.1 19.6L140.16675 19.6C140 18.5 139.46675 17.53325 138.56675 16.76675 137.66675 15.96675 136.53325 15.56675 135.13325 15.56675 133.93325 15.56675 132.83325 15.93325 131.9 16.66675 130.96675 17.4 130.36675 18.36675 130.1 19.6zM146.7 27.76675C145.16675 26.1 144.4 23.93325 144.4 21.3 144.4 18.66675 145.16675 16.5 146.7 14.83325 148.23325 13.16675 150.16675 12.36675 152.46675 12.36675 153.53325 12.36675 154.5 12.56675 155.4 13 156.3 13.43325 156.93325 13.83325 157.3 14.23325L157.83325 14.86675 158 14.86675 158 12.66675 161.53325 12.66675 161.53325 29.86675 158 29.86675 158 27.5 157.83325 27.5C157.8 27.56675 157.7 27.66675 157.6 27.8 157.5 27.93325 157.26675 28.13325 156.93325 28.46675 156.6 28.76675 156.23325 29.06675 155.86675 29.3 155.5 29.53325 154.96675 29.73325 154.36675 29.93325 153.73325 30.13325 153.1 30.23325 152.46675 30.23325 150.2 30.23325 148.26675 29.4 146.7 27.76675zM164.6 29.9L164.6 12.7 168.13325 12.7 168.13325 15.06675 168.3 15.06675C168.33325 15 168.4 14.9 168.46675 14.76675 168.53325 14.63325 168.7 14.43325 169 14.1 169.3 13.8 169.6 13.5 169.96675 13.26675 170.3 13.03325 170.8 12.83325 171.4 12.63325 172 12.43325 172.66675 12.33325 173.33325 12.33325 174.13325 12.33325 174.9 12.43325 175.56675 12.66675 176.26675 12.9 176.8 13.16675 177.16675 13.46675 177.56675 13.76675 177.9 14.1 178.16675 14.4 178.43325 14.7 178.6 14.96675 178.7 15.2L178.86675 15.53325 179.03325 15.53325C179.06675 15.43325 179.13325 15.33325 179.23325 15.16675 179.3 15.03325 179.53325 14.76675 179.86675 14.4 180.2 14.03325 180.56675 13.73325 180.96675 13.43325 181.36675 13.16675 181.93325 12.9 182.63325 12.66675 183.36675 12.43325 184.1 12.3 184.93325 12.3 186.9 12.3 188.46675 12.93325 189.6 14.2 190.73325 15.46675 191.3 17.23325 191.3 19.56675L191.3 29.83325 187.76675 29.83325 187.76675 19.76675C187.76675 16.96675 186.53325 15.56675 184.06675 15.56675 182.86675 15.56675 181.83325 16.03325 180.96675 16.93325 180.1 17.86675 179.7 19.03325 179.7 20.43325L179.7 29.86675 176.16675 29.86675 176.16675 19.76675C176.16675 16.96675 174.93325 15.56675 172.46675 15.56675 171.26675 15.56675 170.23325 16.03325 169.36675 16.93325 168.5 17.86675 168.1 19.03325 168.1 20.43325L168.1 29.86675 164.6 29.86675 164.6 29.9zM46.43325 6.13325L46.43325 9.66675 49.96675 9.66675 49.96675 6.13325 46.43325 6.13325zM149.06675 17.1C148.1 18.13325 147.63325 19.53325 147.63325 21.26675 147.63325 23 148.1 24.4 149.06675 25.43325 150.03325 26.46675 151.3 27 152.83325 27 154.36675 27 155.63325 26.46675 156.6 25.43325 157.56675 24.4 158.03325 23 158.03325 21.26675 158.03325 19.53325 157.56675 18.13325 156.6 17.1 155.63325 16.06675 154.36675 15.53325 152.83325 15.53325 151.3 15.56675 150.03325 16.06675 149.06675 17.1zM28.06675 2.7000624e-13L31.7 2.7000624e-13 31.7 10.43325C31.7 14.6 30.13325 18.43325 27.56675 21.33325 27.9 19.93325 28.06675 18.5 28.06675 17L28.06675 2.7000624e-13zM9.8 29.7665C9.7 29.8665 9.63325 29.9665 9.53325 30.0665 9.5 30.1 9.46675 30.13325 9.43325 30.1665 9.33325 30.2665 9.26675 30.3665 9.16675 30.43325 9.13325 30.4665 9.06675 30.53325 9.03325 30.5665 8.93325 30.6665 8.83325 30.7665 8.7 30.8665 8.56675 31 8.43325 31.1 8.3 31.23325 8.16675 31.3665 8.03325 31.4665 7.86675 31.5665 7.73325 31.6665 7.6 31.7665 7.46675 31.8665 7.13325 32.0665 6.8 32.2665 6.46675 32.43325 6.4 32.4665 6.33325 32.5 6.23325 32.53325 6.13325 32.5665 6.06675 32.6 6 32.63325 5.9 32.6665 5.83325 32.7 5.73325 32.73325 5.56675 32.8 5.4 32.8665 5.2 32.93325 5.2 32.93325 5.2 32.93325 5.16675 32.93325 5 33 4.83325 33.03325 4.66675 33.0665L4.63325 33.0665C4.46675 33.1 4.3 33.1665 4.13325 33.2 3.93325 33.23325 3.7 33.3 3.5 33.3 3.43325 33.3 3.36675 33.33325 3.3 33.33325L3.26675 33.33325C3.06675 33.3665 2.9 33.3665 2.7 33.3665 2.6 33.3665 2.5 33.3665 2.4 33.3665 2.3 33.3665 2.2 33.3665 2.1 33.3665L1.96675 33.3665 3.06675 29.73325 9.8 29.73325 9.8 29.7665zM25.13325-7.10542736e-15L25.13325 17C25.13325 17.26675 25.13325 17.56675 25.1 17.83325 25.1 17.96675 25.1 18.1 25.06675 18.23325 25.06675 18.36675 25.03325 18.5 25.03325 18.63325 25.03325 18.76675 25 18.9 25 19.03325 25 19.13325 24.96675 19.26675 24.96675 19.36675L24.96675 19.4C24.96675 19.43325 24.96675 19.46675 24.96675 19.46675 24.93325 19.6 24.93325 19.73325 24.9 19.83325 24.86675 19.96675 24.86675 20.1 24.83325 20.2L24.83325 20.23325C24.8 20.33325 24.8 20.43325 24.76675 20.53325 24.76675 20.56675 24.76675 20.56675 24.76675 20.6 24.66675 21 24.56675 21.43325 24.43325 21.83325 24.4 21.93325 24.36675 22.06675 24.33325 22.16675 24.3 22.3 24.26675 22.4 24.2 22.53325 24.16675 22.66675 24.1 22.76675 24.06675 22.86675 24.03325 23 23.96675 23.1 23.93325 23.2 23.9 23.33325 23.83325 23.43325 23.8 23.53325 23.76675 23.63325 23.7 23.76675 23.63325 23.86675 23.6 23.96675 23.53325 24.1 23.46675 24.2 23.4 24.3 23.36675 24.43325 23.3 24.53325 23.26675 24.63325 23.2 24.7 23.16675 24.8 23.06675 25 22.96675 25.16675 22.83325 25.36675 22.73325 25.53325 22.63325 25.7 22.53325 25.83325 22.46675 25.96675 22.4 26.06675 22.3 26.16675 22.26675 26.23325 22.2 26.3 22.16675 26.33325 22.06675 26.46675 22 26.56675 21.9 26.66675 21.8 26.8 21.7 26.9 21.63325 27.03325 21.43325 27.26675 21.23325 27.5 21.03325 27.73325 21.06675 27.6 21.1 27.46675 21.13325 27.33325 21.16675 27.23325 21.16675 27.13325 21.2 27.03325 21.2 27.03325 21.2 27.03325 21.2 27 21.2 26.96675 21.2 26.96675 21.2 26.93325 21.23325 26.8 21.23325 26.66675 21.26675 26.53325 21.3 26.36675 21.33325 26.2 21.33325 26.06675 21.33325 25.96675 21.36675 25.86675 21.36675 25.8 21.36675 25.7 21.4 25.63325 21.4 25.53325 21.43325 25.36675 21.43325 25.2 21.46675 25 21.46675 24.96675 21.46675 24.96675 21.46675 24.93325 21.46675 24.9 21.46675 24.9 21.46675 24.86675 21.46675 24.73325 21.5 24.63325 21.5 24.5 21.5 24.4 21.5 24.3 21.5 24.2L21.5 24.33325C21.5 24.23325 21.5 24.13325 21.5 24.03325 21.5 23.86675 21.5 23.73325 21.5 23.56675L21.5-7.10542736e-15 25.13325-7.10542736e-15z"/>
      <path d="M18.56675,0 L18.56675,23.56675 C18.56675,24.13325 18.53325,24.66675 18.5,25.2 C18.46675,25.66675 18.4,26.1 18.3,26.56675 C18.1,27.63325 17.8,28.66675 17.4,29.63325 C17.16675,30.23325 16.86675,30.83325 16.56675,31.4 C15.63325,33.06675 14.43325,34.56675 13.03325,35.83325 C10.13325,38.43325 6.3,40 2.13325,40 L-9.23705556e-14,40 L1.1,36.36675 L2.16675,36.36675 C5.3,36.36675 8.16675,35.23325 10.36675,33.36675 C11.56675,32.36675 12.56675,31.16675 13.3,29.8 C13.5,29.46675 13.66675,29.1 13.83325,28.73325 C14.1,28.13325 14.3,27.53325 14.46675,26.9 C14.66675,26.2 14.8,25.46675 14.83325,24.73325 C14.86675,24.36675 14.86675,24 14.86675,23.63325 L14.86675,0 L18.56675,0 Z"/>
      <path d="M12,23.2 L12,23.56675 C12,23.86675 12,24.16675 11.96675,24.4335 C11.9,25 11.83325,25.56675 11.66675,26.1 C11.6,26.36675 11.53325,26.6335 11.43325,26.86675 L3.93325,26.86675 L5.03325,23.2335 L12,23.2335 L12,23.2 Z"/>
    </g>
    <path fill="#FFF" d="M187.949219,509.461914 C190.524101,509.461914 192.768545,509.906246 194.682617,510.794922 C196.596689,511.683598 198.180332,512.896965 199.433594,514.435059 C200.686855,515.973152 201.632484,517.778961 202.270508,519.852539 C202.908532,521.926117 203.227539,524.159168 203.227539,526.551758 L203.227539,529.901367 L179.199219,529.901367 L179.199219,533.695312 C179.199219,534.994147 179.444171,536.144852 179.934082,537.147461 C180.423993,538.15007 181.090491,538.998857 181.933594,539.693848 C182.776697,540.388838 183.722325,540.912921 184.770508,541.266113 C185.81869,541.619305 186.901036,541.795898 188.017578,541.795898 C190.250662,541.795898 192.187492,541.226243 193.828125,540.086914 C195.468758,538.947585 196.402994,537.13608 196.630859,534.652344 L202.954102,534.652344 C202.817382,536.566416 202.316085,538.269687 201.450195,539.762207 C200.584306,541.254728 199.462084,542.52506 198.083496,543.573242 C196.704908,544.621425 195.149748,545.430336 193.417969,546 C191.686189,546.569664 189.863291,546.854492 187.949219,546.854492 C185.374336,546.854492 183.124196,546.387374 181.19873,545.453125 C179.273265,544.518876 177.666836,543.231454 176.379395,541.59082 C175.091953,539.950187 174.134932,537.990571 173.508301,535.711914 C172.88167,533.433257 172.568359,530.915378 172.568359,528.158203 C172.568359,525.446601 172.904456,522.934419 173.57666,520.621582 C174.248864,518.308745 175.251458,516.337736 176.584473,514.708496 C177.917487,513.079256 179.529613,511.797531 181.420898,510.863281 C183.312184,509.929032 185.488269,509.461914 187.949219,509.461914 Z M691.142578,498.387695 L691.142578,546 L684.819336,546 L684.819336,540.189453 C683.702794,542.331391 682.210296,543.977696 680.341797,545.128418 C678.473298,546.27914 676.217461,546.854492 673.574219,546.854492 C671.158842,546.854492 669.056812,546.364588 667.268066,545.384766 C665.47932,544.404943 663.992519,543.071949 662.807617,541.385742 C661.622715,539.699536 660.739749,537.72283 660.158691,535.455566 C659.577634,533.188302 659.287109,530.755872 659.287109,528.158203 C659.287109,525.58332 659.577634,523.15089 660.158691,520.86084 C660.739749,518.570789 661.611322,516.588387 662.773438,514.913574 C663.935553,513.238761 665.405265,511.911463 667.182617,510.931641 C668.95997,509.951818 671.033517,509.461914 673.40332,509.461914 C676.069349,509.461914 678.359365,510.03157 680.273438,511.170898 C682.18751,512.310227 683.702794,513.962229 684.819336,516.126953 L684.819336,498.387695 L691.142578,498.387695 Z M305.083008,509.461914 C307.79461,509.461914 310.152985,509.929032 312.158203,510.863281 C314.163421,511.797531 315.826816,513.079256 317.148438,514.708496 C318.470059,516.337736 319.46126,518.308745 320.12207,520.621582 C320.782881,522.934419 321.113281,525.446601 321.113281,528.158203 C321.113281,530.915378 320.782881,533.433257 320.12207,535.711914 C319.46126,537.990571 318.470059,539.950187 317.148438,541.59082 C315.826816,543.231454 314.157725,544.518876 312.141113,545.453125 C310.124502,546.387374 307.771823,546.854492 305.083008,546.854492 C302.371406,546.854492 300.013031,546.387374 298.007812,545.453125 C296.002594,544.518876 294.333503,543.231454 293.000488,541.59082 C291.667474,539.950187 290.676273,537.990571 290.026855,535.711914 C289.377438,533.433257 289.052734,530.915378 289.052734,528.158203 C289.052734,525.446601 289.377438,522.934419 290.026855,520.621582 C290.676273,518.308745 291.667474,516.337736 293.000488,514.708496 C294.333503,513.079256 296.002594,511.797531 298.007812,510.863281 C300.013031,509.929032 302.371406,509.461914 305.083008,509.461914 Z M467.197266,509.461914 C469.772148,509.461914 472.016592,509.906246 473.930664,510.794922 C475.844736,511.683598 477.428379,512.896965 478.681641,514.435059 C479.934902,515.973152 480.880531,517.778961 481.518555,519.852539 C482.156579,521.926117 482.475586,524.159168 482.475586,526.551758 L482.475586,529.901367 L458.447266,529.901367 L458.447266,533.695312 C458.447266,534.994147 458.692218,536.144852 459.182129,537.147461 C459.67204,538.15007 460.338537,538.998857 461.181641,539.693848 C462.024744,540.388838 462.970372,540.912921 464.018555,541.266113 C465.066737,541.619305 466.149083,541.795898 467.265625,541.795898 C469.498709,541.795898 471.435539,541.226243 473.076172,540.086914 C474.716805,538.947585 475.651041,537.13608 475.878906,534.652344 L482.202148,534.652344 C482.065429,536.566416 481.564132,538.269687 480.698242,539.762207 C479.832352,541.254728 478.710131,542.52506 477.331543,543.573242 C475.952955,544.621425 474.397795,545.430336 472.666016,546 C470.934236,546.569664 469.111338,546.854492 467.197266,546.854492 C464.622383,546.854492 462.372243,546.387374 460.446777,545.453125 C458.521312,544.518876 456.914883,543.231454 455.627441,541.59082 C454.34,539.950187 453.382978,537.990571 452.756348,535.711914 C452.129717,533.433257 451.816406,530.915378 451.816406,528.158203 C451.816406,525.446601 452.152503,522.934419 452.824707,520.621582 C453.496911,518.308745 454.499505,516.337736 455.83252,514.708496 C457.165534,513.079256 458.77766,511.797531 460.668945,510.863281 C462.560231,509.929032 464.736316,509.461914 467.197266,509.461914 Z M636.25,509.461914 C638.824883,509.461914 641.069326,509.906246 642.983398,510.794922 C644.897471,511.683598 646.481114,512.896965 647.734375,514.435059 C648.987636,515.973152 649.933265,517.778961 650.571289,519.852539 C651.209313,521.926117 651.52832,524.159168 651.52832,526.551758 L651.52832,529.901367 L627.5,529.901367 L627.5,533.695312 C627.5,534.994147 627.744952,536.144852 628.234863,537.147461 C628.724775,538.15007 629.391272,538.998857 630.234375,539.693848 C631.077478,540.388838 632.023107,540.912921 633.071289,541.266113 C634.119471,541.619305 635.201817,541.795898 636.318359,541.795898 C638.551443,541.795898 640.488273,541.226243 642.128906,540.086914 C643.769539,538.947585 644.703775,537.13608 644.931641,534.652344 L651.254883,534.652344 C651.118163,536.566416 650.616866,538.269687 649.750977,539.762207 C648.885087,541.254728 647.762865,542.52506 646.384277,543.573242 C645.00569,544.621425 643.450529,545.430336 641.71875,546 C639.986971,546.569664 638.164072,546.854492 636.25,546.854492 C633.675117,546.854492 631.424977,546.387374 629.499512,545.453125 C627.574046,544.518876 625.967617,543.231454 624.680176,541.59082 C623.392734,539.950187 622.435713,537.990571 621.809082,535.711914 C621.182451,533.433257 620.869141,530.915378 620.869141,528.158203 C620.869141,525.446601 621.205238,522.934419 621.877441,520.621582 C622.549645,518.308745 623.552239,516.337736 624.885254,514.708496 C626.218268,513.079256 627.830394,511.797531 629.72168,510.863281 C631.612965,509.929032 633.78905,509.461914 636.25,509.461914 Z M523.730469,509.461914 C526.305351,509.461914 528.549795,509.906246 530.463867,510.794922 C532.377939,511.683598 533.961582,512.896965 535.214844,514.435059 C536.468105,515.973152 537.413734,517.778961 538.051758,519.852539 C538.689782,521.926117 539.008789,524.159168 539.008789,526.551758 L539.008789,529.901367 L514.980469,529.901367 L514.980469,533.695312 C514.980469,534.994147 515.225421,536.144852 515.715332,537.147461 C516.205243,538.15007 516.871741,538.998857 517.714844,539.693848 C518.557947,540.388838 519.503575,540.912921 520.551758,541.266113 C521.59994,541.619305 522.682286,541.795898 523.798828,541.795898 C526.031912,541.795898 527.968742,541.226243 529.609375,540.086914 C531.250008,538.947585 532.184244,537.13608 532.412109,534.652344 L538.735352,534.652344 C538.598632,536.566416 538.097335,538.269687 537.231445,539.762207 C536.365556,541.254728 535.243334,542.52506 533.864746,543.573242 C532.486158,544.621425 530.930998,545.430336 529.199219,546 C527.467439,546.569664 525.644541,546.854492 523.730469,546.854492 C521.155586,546.854492 518.905446,546.387374 516.97998,545.453125 C515.054515,544.518876 513.448086,543.231454 512.160645,541.59082 C510.873203,539.950187 509.916182,537.990571 509.289551,535.711914 C508.66292,533.433257 508.349609,530.915378 508.349609,528.158203 C508.349609,525.446601 508.685706,522.934419 509.35791,520.621582 C510.030114,518.308745 511.032708,516.337736 512.365723,514.708496 C513.698737,513.079256 515.310863,511.797531 517.202148,510.863281 C519.093434,509.929032 521.269519,509.461914 523.730469,509.461914 Z M598.823242,509.461914 C600.509449,509.461914 602.155754,509.68408 603.762207,510.128418 C605.36866,510.572756 606.804193,511.26204 608.068848,512.196289 C609.333502,513.130539 610.34749,514.321119 611.11084,515.768066 C611.87419,517.215014 612.278646,518.941071 612.324219,520.946289 L606.035156,520.946289 C605.94401,518.576486 605.209154,516.907394 603.830566,515.938965 C602.451979,514.970536 600.805674,514.486328 598.891602,514.486328 C596.931956,514.486328 595.274258,514.953446 593.918457,515.887695 C592.562656,516.821945 591.884766,518.041008 591.884766,519.544922 C591.884766,520.934903 592.283525,522.017249 593.081055,522.791992 C593.878585,523.566736 595.166007,524.136391 596.943359,524.500977 L602.958984,525.765625 C606.51369,526.517582 609.151196,527.730949 610.871582,529.405762 C612.591968,531.080575 613.452148,533.364894 613.452148,536.258789 C613.452148,537.762703 613.116052,539.158359 612.443848,540.445801 C611.771644,541.733242 610.803229,542.838374 609.538574,543.76123 C608.273919,544.684087 606.775725,545.430336 605.043945,546 C603.312166,546.569664 601.398122,546.854492 599.301758,546.854492 C597.296539,546.854492 595.422372,546.598147 593.679199,546.085449 C591.936026,545.572751 590.409349,544.809413 589.099121,543.79541 C587.788893,542.781408 586.757816,541.516772 586.005859,540.001465 C585.253902,538.486158 584.855143,536.725921 584.80957,534.720703 L591.132812,534.720703 C591.223959,537.090507 592.072746,538.862136 593.679199,540.035645 C595.285653,541.209153 597.182606,541.795898 599.370117,541.795898 C601.466482,541.795898 603.28938,541.328781 604.838867,540.394531 C606.388354,539.460282 607.163086,538.104501 607.163086,536.327148 C607.163086,534.891594 606.695968,533.74089 605.761719,532.875 C604.827469,532.00911 603.164074,531.34831 600.771484,530.892578 L594.892578,529.696289 C591.95311,529.081052 589.691577,527.947437 588.10791,526.29541 C586.524243,524.643384 585.732422,522.41603 585.732422,519.613281 C585.732422,518.2233 586.045733,516.907396 586.672363,515.665527 C587.298994,514.423659 588.19905,513.34701 589.372559,512.435547 C590.546067,511.524084 591.924634,510.800621 593.508301,510.265137 C595.091968,509.729652 596.863597,509.461914 598.823242,509.461914 Z M561.259766,509.461914 C563.173838,509.461914 564.95686,509.706866 566.608887,510.196777 C568.260913,510.686689 569.696446,511.421545 570.915527,512.401367 C572.134609,513.38119 573.080238,514.640129 573.752441,516.178223 C574.424645,517.716316 574.760742,519.533518 574.760742,521.629883 L574.760742,540.599609 L580.092773,540.599609 L580.092773,546 L569.428711,546 L569.291992,539.40332 L569.018555,539.40332 C568.038732,541.93263 566.591806,543.806797 564.677734,545.025879 C562.763662,546.244961 560.473646,546.854492 557.807617,546.854492 C556.030265,546.854492 554.423835,546.581057 552.988281,546.03418 C551.552727,545.487302 550.310878,544.678391 549.262695,543.607422 C548.328446,542.673172 547.604983,541.556647 547.092285,540.257812 C546.579587,538.958978 546.323242,537.603197 546.323242,536.19043 C546.323242,533.387681 547.211905,530.983734 548.989258,528.978516 C550.76661,526.973297 553.432599,525.8112 556.987305,525.492188 L568.608398,524.432617 L568.608398,521.561523 C568.608398,520.171543 568.431805,519.020838 568.078613,518.109375 C567.725421,517.197912 567.224124,516.474449 566.574707,515.938965 C565.92529,515.40348 565.144861,515.027508 564.233398,514.811035 C563.321936,514.594563 562.307948,514.486328 561.191406,514.486328 C558.958322,514.486328 557.1753,514.987625 555.842285,515.990234 C554.509271,516.992844 553.842773,518.644845 553.842773,520.946289 L547.519531,520.946289 C547.519531,519.260083 547.884111,517.716316 548.613281,516.314941 C549.342452,514.913567 550.322259,513.7002 551.552734,512.674805 C552.783209,511.649409 554.230135,510.857587 555.893555,510.299316 C557.556974,509.741045 559.345694,509.461914 561.259766,509.461914 Z M241.40625,510.316406 L248.481445,538.241211 L248.754883,538.241211 L255.043945,510.316406 L262.700195,510.316406 L269.262695,538.241211 L269.536133,538.241211 L276.679688,510.316406 L282.832031,510.316406 L272.407227,546 L265.776367,546 L259.042969,517.083984 L258.769531,517.083984 L251.967773,546 L245.473633,546 L235.048828,510.316406 L241.40625,510.316406 Z M498.47168,498.387695 L498.47168,546 L492.182617,546 L492.182617,498.387695 L498.47168,498.387695 Z M428.676758,498.387695 C431.160494,498.387695 433.353669,498.672523 435.256348,499.242188 C437.159026,499.811852 438.736973,500.677729 439.990234,501.839844 C441.243496,503.001959 442.154945,504.431795 442.724609,506.129395 C443.294274,507.826994 443.579102,509.8037 443.579102,512.05957 C443.579102,514.155935 443.311363,516.052889 442.775879,517.750488 C442.240394,519.448088 441.368821,520.912103 440.161133,522.142578 C439.226883,523.076828 438.138841,523.845863 436.896973,524.449707 C435.655104,525.053551 434.099944,525.4694 432.231445,525.697266 L443.989258,546 L436.367188,546 L425.224609,525.902344 L417.397461,525.902344 L417.397461,546 L410.732422,546 L410.732422,498.387695 L428.676758,498.387695 Z M383.798828,510.316406 L369.443359,526.039062 L384.790039,546 L377.578125,546 L362.163086,526.039062 L376.176758,510.316406 L383.798828,510.316406 Z M362.094727,498.387695 L362.094727,546 L355.805664,546 L355.805664,498.387695 L362.094727,498.387695 Z M347.978516,510.316406 L347.978516,515.750977 L337.109375,515.750977 L337.109375,546 L330.820312,546 L330.820312,510.316406 L347.978516,510.316406 Z M221.616211,498.387695 L221.616211,510.316406 L229.819336,510.316406 L229.819336,515.682617 L221.616211,515.682617 L221.616211,540.599609 L229.819336,540.599609 L229.819336,546 L215.395508,546 L215.395508,515.682617 L209.379883,515.682617 L209.379883,510.316406 L215.395508,510.316406 L215.395508,498.387695 L221.616211,498.387695 Z M135.825195,498.387695 L155.478516,537.933594 L155.786133,537.933594 L155.786133,498.387695 L162.211914,498.387695 L162.211914,546 L152.84668,546 L133.15918,506.249023 L132.885742,506.249023 L132.885742,546 L126.425781,546 L126.425781,498.387695 L135.825195,498.387695 Z M568.608398,529.286133 L555.927734,530.448242 C554.6289,530.539388 553.814292,530.881182 553.483887,531.473633 C553.153481,532.066084 552.988281,532.874995 552.988281,533.900391 L552.988281,537.044922 C552.988281,538.685555 553.557937,539.887529 554.697266,540.650879 C555.836594,541.414229 557.408844,541.795898 559.414062,541.795898 C562.262384,541.795898 564.506828,540.781911 566.147461,538.753906 C567.788094,536.725901 568.608398,534.105485 568.608398,530.892578 L568.608398,529.286133 Z M305.083008,514.486328 C303.829746,514.486328 302.627773,514.685708 301.477051,515.084473 C300.326329,515.483238 299.329431,516.035804 298.486328,516.742188 C297.643225,517.448571 296.965335,518.303055 296.452637,519.305664 C295.939939,520.308273 295.683594,521.413405 295.683594,522.621094 L295.683594,533.695312 C295.683594,534.903001 295.939939,536.008133 296.452637,537.010742 C296.965335,538.013351 297.643225,538.862138 298.486328,539.557129 C299.329431,540.252119 300.320632,540.798989 301.459961,541.197754 C302.59929,541.596519 303.80696,541.795898 305.083008,541.795898 C306.336269,541.795898 307.532546,541.596519 308.671875,541.197754 C309.811204,540.798989 310.802405,540.252119 311.645508,539.557129 C312.488611,538.862138 313.166501,538.013351 313.679199,537.010742 C314.191897,536.008133 314.448242,534.903001 314.448242,533.695312 L314.448242,522.621094 C314.448242,521.413405 314.191897,520.308273 313.679199,519.305664 C313.166501,518.303055 312.488611,517.448571 311.645508,516.742188 C310.802405,516.035804 309.811204,515.483238 308.671875,515.084473 C307.532546,514.685708 306.336269,514.486328 305.083008,514.486328 Z M675.043945,514.486328 C673.745111,514.486328 672.543137,514.685708 671.437988,515.084473 C670.33284,515.483238 669.370121,516.035804 668.549805,516.742188 C667.729488,517.448571 667.085777,518.303055 666.618652,519.305664 C666.151528,520.308273 665.917969,521.413405 665.917969,522.621094 L665.917969,533.695312 C665.917969,534.903001 666.151528,536.008133 666.618652,537.010742 C667.085777,538.013351 667.729488,538.862138 668.549805,539.557129 C669.370121,540.252119 670.327143,540.798989 671.420898,541.197754 C672.514654,541.596519 673.722324,541.795898 675.043945,541.795898 C678.211279,541.795898 680.632316,540.793304 682.307129,538.788086 C683.981942,536.782868 684.819336,534.242203 684.819336,531.166016 L684.819336,525.150391 C684.819336,522.074203 683.981942,519.527842 682.307129,517.51123 C680.632316,515.494619 678.211279,514.486328 675.043945,514.486328 Z M636.25,514.486328 C635.087885,514.486328 633.982753,514.674315 632.93457,515.050293 C631.886388,515.426271 630.952153,515.978838 630.131836,516.708008 C629.311519,517.437178 628.667808,518.325841 628.200684,519.374023 C627.733559,520.422206 627.5,521.595697 627.5,522.894531 L627.5,524.876953 L645,524.876953 L645,522.894531 C645,521.595697 644.766441,520.422206 644.299316,519.374023 C643.832192,518.325841 643.194177,517.437178 642.385254,516.708008 C641.576331,515.978838 640.642095,515.426271 639.58252,515.050293 C638.522944,514.674315 637.412115,514.486328 636.25,514.486328 Z M187.949219,514.486328 C186.787104,514.486328 185.681971,514.674315 184.633789,515.050293 C183.585607,515.426271 182.651371,515.978838 181.831055,516.708008 C181.010738,517.437178 180.367027,518.325841 179.899902,519.374023 C179.432778,520.422206 179.199219,521.595697 179.199219,522.894531 L179.199219,524.876953 L196.699219,524.876953 L196.699219,522.894531 C196.699219,521.595697 196.46566,520.422206 195.998535,519.374023 C195.53141,518.325841 194.893396,517.437178 194.084473,516.708008 C193.275549,515.978838 192.341314,515.426271 191.281738,515.050293 C190.222163,514.674315 189.111334,514.486328 187.949219,514.486328 Z M467.197266,514.486328 C466.03515,514.486328 464.930018,514.674315 463.881836,515.050293 C462.833654,515.426271 461.899418,515.978838 461.079102,516.708008 C460.258785,517.437178 459.615074,518.325841 459.147949,519.374023 C458.680824,520.422206 458.447266,521.595697 458.447266,522.894531 L458.447266,524.876953 L475.947266,524.876953 L475.947266,522.894531 C475.947266,521.595697 475.713707,520.422206 475.246582,519.374023 C474.779457,518.325841 474.141443,517.437178 473.33252,516.708008 C472.523596,515.978838 471.589361,515.426271 470.529785,515.050293 C469.47021,514.674315 468.359381,514.486328 467.197266,514.486328 Z M523.730469,514.486328 C522.568354,514.486328 521.463221,514.674315 520.415039,515.050293 C519.366857,515.426271 518.432621,515.978838 517.612305,516.708008 C516.791988,517.437178 516.148277,518.325841 515.681152,519.374023 C515.214028,520.422206 514.980469,521.595697 514.980469,522.894531 L514.980469,524.876953 L532.480469,524.876953 L532.480469,522.894531 C532.480469,521.595697 532.24691,520.422206 531.779785,519.374023 C531.31266,518.325841 530.674646,517.437178 529.865723,516.708008 C529.056799,515.978838 528.122564,515.426271 527.062988,515.050293 C526.003413,514.674315 524.892584,514.486328 523.730469,514.486328 Z M431.103516,504.334961 L417.397461,504.334961 L417.397461,520.228516 L431.103516,520.228516 C432.880868,520.228516 434.236649,519.693039 435.170898,518.62207 C436.105148,517.551101 436.572266,516.275073 436.572266,514.793945 L436.572266,509.530273 C436.572266,507.88964 436.082362,506.613611 435.102539,505.702148 C434.122716,504.790686 432.789722,504.334961 431.103516,504.334961 Z M370.195312,403.802734 C373.580746,403.802734 376.542956,404.502597 379.082031,405.902344 C381.621106,407.30209 383.720695,409.19823 385.380859,411.59082 C387.041024,413.98341 388.269853,416.815413 389.067383,420.086914 C389.864913,423.358415 390.263672,426.833315 390.263672,430.511719 C390.263672,434.255227 389.864913,437.738265 389.067383,440.960938 C388.269853,444.18361 387.041024,446.999337 385.380859,449.408203 C383.720695,451.817069 381.621106,453.721347 379.082031,455.121094 C376.542956,456.52084 373.580746,457.220703 370.195312,457.220703 C366.809879,457.220703 363.880221,456.504564 361.40625,455.072266 C358.932279,453.639967 356.897794,451.65431 355.302734,449.115234 L355.302734,472.992188 L342.802734,472.992188 L342.802734,405.023438 L355.302734,405.023438 L355.302734,411.908203 C356.897794,409.369128 358.924141,407.383471 361.381836,405.951172 C363.839531,404.518873 366.777327,403.802734 370.195312,403.802734 Z M534.550781,403.802734 C540.345081,403.802734 545.097638,405.20246 548.808594,408.001953 C552.51955,410.801446 554.505207,415.033175 554.765625,420.697266 L542.265625,420.697266 C542.135416,418.288399 541.37045,416.489915 539.970703,415.301758 C538.570957,414.113601 536.764334,413.519531 534.550781,413.519531 C532.402333,413.519531 530.652676,413.983394 529.301758,414.911133 C527.95084,415.838872 527.275391,417.132804 527.275391,418.792969 C527.275391,420.453133 527.788081,421.681962 528.813477,422.479492 C529.838872,423.277022 531.181632,423.854816 532.841797,424.212891 L542.949219,426.410156 C544.804697,426.800783 546.57063,427.378577 548.24707,428.143555 C549.923511,428.908532 551.363926,429.893223 552.568359,431.097656 C553.772792,432.302089 554.724931,433.734367 555.424805,435.394531 C556.124678,437.054696 556.474609,439.024077 556.474609,441.302734 C556.474609,443.516287 556.002609,445.583324 555.058594,447.503906 C554.114579,449.424489 552.747405,451.100904 550.957031,452.533203 C549.166658,453.965502 546.953138,455.104813 544.316406,455.951172 C541.679674,456.79753 538.668637,457.220703 535.283203,457.220703 C528.479784,457.220703 523.222675,455.715184 519.511719,452.704102 C515.800763,449.693019 513.815105,445.388049 513.554688,439.789062 L526.054688,439.789062 C526.575523,444.932317 529.651665,447.503906 535.283203,447.503906 C537.692069,447.503906 539.74283,447.05632 541.435547,446.161133 C543.128264,445.265946 543.974609,443.841807 543.974609,441.888672 C543.974609,440.033194 543.274747,438.690434 541.875,437.860352 C540.475253,437.030269 538.636079,436.371096 536.357422,435.882812 L527.568359,433.978516 C519.039671,432.123038 514.775391,427.25655 514.775391,419.378906 C514.775391,417.165354 515.222977,415.114593 516.118164,413.226562 C517.013351,411.338532 518.307283,409.694668 520,408.294922 C521.692717,406.895175 523.759753,405.796553 526.201172,404.999023 C528.64259,404.201493 531.425766,403.802734 534.550781,403.802734 Z M424.443359,403.802734 C428.251972,403.802734 431.637355,404.437494 434.599609,405.707031 C437.561864,406.976569 440.060211,408.791329 442.094727,411.151367 C444.129242,413.511405 445.67545,416.327132 446.733398,419.598633 C447.791346,422.870134 448.320312,426.507792 448.320312,430.511719 C448.320312,434.515645 447.791346,438.145166 446.733398,441.400391 C445.67545,444.655615 444.129242,447.471342 442.094727,449.847656 C440.060211,452.22397 437.561864,454.046869 434.599609,455.316406 C431.637355,456.585944 428.251972,457.220703 424.443359,457.220703 C420.634747,457.220703 417.249364,456.585944 414.287109,455.316406 C411.324855,454.046869 408.826508,452.22397 406.791992,449.847656 C404.757477,447.471342 403.20313,444.655615 402.128906,441.400391 C401.054682,438.145166 400.517578,434.515645 400.517578,430.511719 C400.517578,426.507792 401.054682,422.870134 402.128906,419.598633 C403.20313,416.327132 404.757477,413.511405 406.791992,411.151367 C408.826508,408.791329 411.324855,406.976569 414.287109,405.707031 C417.249364,404.437494 420.634747,403.802734 424.443359,403.802734 Z M212.138672,403.802734 C214.807956,403.802734 217.363269,404.152666 219.804688,404.852539 C222.246106,405.552412 224.451488,406.651034 226.420898,408.148438 C228.390309,409.645841 229.985345,411.558257 231.206055,413.885742 C232.426764,416.213228 233.183592,418.988265 233.476562,422.210938 L220.976562,422.210938 C220.65104,418.955713 219.650073,416.693366 217.973633,415.423828 C216.297192,414.154291 214.189466,413.519531 211.650391,413.519531 C209.111315,413.519531 206.914072,414.333325 205.058594,415.960938 C203.203116,417.58855 202.275391,420.095035 202.275391,423.480469 L202.275391,437.494141 C202.275391,440.619156 203.154288,443.068676 204.912109,444.842773 C206.669931,446.616871 208.948554,447.503906 211.748047,447.503906 C214.54754,447.503906 216.752922,446.836595 218.364258,445.501953 C219.975594,444.167311 220.976561,441.807309 221.367188,438.421875 L233.867188,438.421875 C233.541665,441.611995 232.776699,444.370757 231.572266,446.698242 C230.367833,449.025728 228.79721,450.970695 226.860352,452.533203 C224.923493,454.095711 222.726249,455.267574 220.268555,456.048828 C217.81086,456.830082 215.182306,457.220703 212.382812,457.220703 C208.5742,457.220703 205.237645,456.569668 202.373047,455.267578 C199.508449,453.965488 197.091481,452.158866 195.12207,449.847656 C193.152659,447.536447 191.679692,444.769547 190.703125,441.546875 C189.726558,438.324203 189.238281,434.743509 189.238281,430.804688 C189.238281,426.605448 189.775385,422.837582 190.849609,419.500977 C191.923833,416.164371 193.461904,413.332368 195.463867,411.004883 C197.46583,408.677397 199.866522,406.895188 202.666016,405.658203 C205.465509,404.421218 208.623029,403.802734 212.138672,403.802734 Z M306.132812,403.802734 C309.941425,403.802734 313.326808,404.437494 316.289062,405.707031 C319.251317,406.976569 321.749664,408.791329 323.78418,411.151367 C325.818695,413.511405 327.364904,416.327132 328.422852,419.598633 C329.4808,422.870134 330.009766,426.507792 330.009766,430.511719 C330.009766,434.515645 329.4808,438.145166 328.422852,441.400391 C327.364904,444.655615 325.818695,447.471342 323.78418,449.847656 C321.749664,452.22397 319.251317,454.046869 316.289062,455.316406 C313.326808,456.585944 309.941425,457.220703 306.132812,457.220703 C302.3242,457.220703 298.938817,456.585944 295.976562,455.316406 C293.014308,454.046869 290.515961,452.22397 288.481445,449.847656 C286.44693,447.471342 284.892583,444.655615 283.818359,441.400391 C282.744135,438.145166 282.207031,434.515645 282.207031,430.511719 C282.207031,426.507792 282.744135,422.870134 283.818359,419.598633 C284.892583,416.327132 286.44693,413.511405 288.481445,411.151367 C290.515961,408.791329 293.014308,406.976569 295.976562,405.707031 C298.938817,404.437494 302.3242,403.802734 306.132812,403.802734 Z M159.013672,387.982422 L182.109375,456 L168.095703,456 L163.603516,441.498047 L140.410156,441.498047 L136.015625,456 L122.001953,456 L145.195312,387.982422 L159.013672,387.982422 Z M274.638672,405.023438 L274.638672,414.789062 L258.671875,414.789062 L258.671875,456 L246.171875,456 L246.171875,405.023438 L274.638672,405.023438 Z M473.613281,387.982422 L473.613281,456 L461.113281,456 L461.113281,387.982422 L473.613281,387.982422 Z M501.494141,405.023438 L501.494141,456 L488.994141,456 L488.994141,405.023438 L501.494141,405.023438 Z M306.132812,413.519531 C303.007797,413.519531 300.411794,414.349601 298.344727,416.009766 C296.277659,417.66993 295.244141,420.029933 295.244141,423.089844 L295.244141,437.884766 C295.244141,440.944677 296.277659,443.312817 298.344727,444.989258 C300.411794,446.665698 303.007797,447.503906 306.132812,447.503906 C309.257828,447.503906 311.853831,446.690112 313.920898,445.0625 C315.987966,443.434888 317.021484,441.042333 317.021484,437.884766 L317.021484,423.089844 C317.021484,419.964828 315.987966,417.58855 313.920898,415.960938 C311.853831,414.333325 309.257828,413.519531 306.132812,413.519531 Z M366.777344,413.519531 C362.773417,413.519531 359.860035,414.715808 358.037109,417.108398 C356.214184,419.500989 355.302734,422.699199 355.302734,426.703125 L355.302734,434.320312 C355.302734,438.324239 356.214184,441.522449 358.037109,443.915039 C359.860035,446.307629 362.773417,447.503906 366.777344,447.503906 C370.032568,447.503906 372.596019,446.616871 374.467773,444.842773 C376.339528,443.068676 377.275391,440.68426 377.275391,437.689453 L377.275391,423.285156 C377.275391,420.29035 376.347666,417.914071 374.492188,416.15625 C372.636709,414.398429 370.065121,413.519531 366.777344,413.519531 Z M424.443359,413.519531 C421.318344,413.519531 418.722341,414.349601 416.655273,416.009766 C414.588206,417.66993 413.554688,420.029933 413.554688,423.089844 L413.554688,437.884766 C413.554688,440.944677 414.588206,443.312817 416.655273,444.989258 C418.722341,446.665698 421.318344,447.503906 424.443359,447.503906 C427.568375,447.503906 430.164378,446.690112 432.231445,445.0625 C434.298513,443.434888 435.332031,441.042333 435.332031,437.884766 L435.332031,423.089844 C435.332031,419.964828 434.298513,417.58855 432.231445,415.960938 C430.164378,414.333325 427.568375,413.519531 424.443359,413.519531 Z M152.421875,403.705078 L151.982422,403.705078 L143.779297,430.511719 L160.283203,430.511719 L152.421875,403.705078 Z M501.689453,387.982422 L501.689453,399.115234 L488.798828,399.115234 L488.798828,387.982422 L501.689453,387.982422 Z"/>
  </g>
</svg>
