<?xml version="1.0" encoding="UTF-8"?>
<svg width="1200px" height="675px" viewBox="0 0 1200 675" version="1.1" xmlns="http://www.w3.org/2000/svg" xmlns:xlink="http://www.w3.org/1999/xlink">
    <!-- Generator: Sketch 59.1 (86144) - https://sketch.com -->
    <title>Twitter-template-09</title>
    <desc>Created with Sketch.</desc>
    <g id="Twitter-template-09" stroke="none" stroke-width="1" fill="none" fill-rule="evenodd">
        <rect fill="#000000" x="0" y="0" width="1200" height="675"></rect>
        <g id="Group" transform="translate(911.000000, 337.500000) scale(1, -1) translate(-911.000000, -337.500000) translate(622.000000, 0.000000)">
            <polygon id="Path" fill="#4038FF" fill-rule="nonzero" points="491.769194 482.265228 481.06599 482.265228 481.06599 492.977855 491.769194 492.977855"></polygon>
            <polygon id="Path" fill="#4038FF" fill-rule="nonzero" points="502.472398 492.977855 491.769194 492.977855 491.769194 503.691339 502.472398 503.691339"></polygon>
            <polygon id="Path" fill="#4038FF" fill-rule="nonzero" points="513.149048 482.265228 502.445844 482.265228 502.445844 492.977855 513.149048 492.977855"></polygon>
            <polygon id="Path" fill="#4038FF" fill-rule="nonzero" points="491.769194 503.663928 481.06599 503.663928 481.06599 514.376555 491.769194 514.376555"></polygon>
            <polygon id="Path" fill="#4038FF" fill-rule="nonzero" points="513.149048 503.663928 502.445844 503.663928 502.445844 514.376555 513.149048 514.376555"></polygon>
            <polygon id="Path" fill="#4038FF" fill-rule="nonzero" points="523.852253 492.977855 513.149048 492.977855 513.149048 503.691339 523.852253 503.691339"></polygon>
            <polygon id="Path" fill="#4038FF" fill-rule="nonzero" points="502.472398 514.376555 491.769194 514.376555 491.769194 525.090038 502.472398 525.090038"></polygon>
            <polygon id="Path" fill="#4038FF" fill-rule="nonzero" points="491.769194 525.090038 481.06599 525.090038 481.06599 535.802665 491.769194 535.802665"></polygon>
            <polygon id="Path" fill="#4038FF" fill-rule="nonzero" points="513.149048 525.090038 502.445844 525.090038 502.445844 535.802665 513.149048 535.802665"></polygon>
            <polygon id="Path" fill="#4038FF" fill-rule="nonzero" points="523.852253 514.376555 513.149048 514.376555 513.149048 525.090038 523.852253 525.090038"></polygon>
            <polygon id="Path" fill="#4038FF" fill-rule="nonzero" points="502.472398 535.807805 491.769194 535.807805 491.769194 546.521288 502.472398 546.521288"></polygon>
            <polygon id="Path" fill="#4038FF" fill-rule="nonzero" points="491.769194 546.493877 481.06599 546.493877 481.06599 557.206504 491.769194 557.206504"></polygon>
            <polygon id="Path" fill="#4038FF" fill-rule="nonzero" points="513.149048 546.493877 502.445844 546.493877 502.445844 557.206504 513.149048 557.206504"></polygon>
            <polygon id="Path" fill="#4038FF" fill-rule="nonzero" points="523.852253 535.807805 513.149048 535.807805 513.149048 546.521288 523.852253 546.521288"></polygon>
            <polygon id="Path" fill="#4038FF" fill-rule="nonzero" points="502.472398 557.206504 491.769194 557.206504 491.769194 567.919987 502.472398 567.919987"></polygon>
            <polygon id="Path" fill="#4038FF" fill-rule="nonzero" points="491.769194 567.919987 481.06599 567.919987 481.06599 578.632614 491.769194 578.632614"></polygon>
            <polygon id="Path" fill="#4038FF" fill-rule="nonzero" points="513.149048 567.919987 502.445844 567.919987 502.445844 578.632614 513.149048 578.632614"></polygon>
            <polygon id="Path" fill="#4038FF" fill-rule="nonzero" points="523.852253 557.206504 513.149048 557.206504 513.149048 567.919987 523.852253 567.919987"></polygon>
            <polygon id="Path" fill="#4038FF" fill-rule="nonzero" points="534.561453 482.265228 523.858249 482.265228 523.858249 492.977855 534.561453 492.977855"></polygon>
            <polygon id="Path" fill="#4038FF" fill-rule="nonzero" points="545.264657 492.977855 534.561453 492.977855 534.561453 503.691339 545.264657 503.691339"></polygon>
            <polygon id="Path" fill="#4038FF" fill-rule="nonzero" points="555.941307 482.265228 545.238103 482.265228 545.238103 492.977855 555.941307 492.977855"></polygon>
            <polygon id="Path" fill="#4038FF" fill-rule="nonzero" points="534.561453 503.663928 523.858249 503.663928 523.858249 514.376555 534.561453 514.376555"></polygon>
            <polygon id="Path" fill="#4038FF" fill-rule="nonzero" points="555.941307 503.663928 545.238103 503.663928 545.238103 514.376555 555.941307 514.376555"></polygon>
            <polygon id="Path" fill="#4038FF" fill-rule="nonzero" points="566.644511 492.977855 555.941307 492.977855 555.941307 503.691339 566.644511 503.691339"></polygon>
            <polygon id="Path" fill="#4038FF" fill-rule="nonzero" points="545.264657 514.376555 534.561453 514.376555 534.561453 525.090038 545.264657 525.090038"></polygon>
            <polygon id="Path" fill="#4038FF" fill-rule="nonzero" points="534.561453 525.090038 523.858249 525.090038 523.858249 535.802665 534.561453 535.802665"></polygon>
            <polygon id="Path" fill="#4038FF" fill-rule="nonzero" points="555.941307 525.090038 545.238103 525.090038 545.238103 535.802665 555.941307 535.802665"></polygon>
            <polygon id="Path" fill="#4038FF" fill-rule="nonzero" points="566.644511 514.376555 555.941307 514.376555 555.941307 525.090038 566.644511 525.090038"></polygon>
            <polygon id="Path" fill="#4038FF" fill-rule="nonzero" points="545.264657 535.807805 534.561453 535.807805 534.561453 546.521288 545.264657 546.521288"></polygon>
            <polygon id="Path" fill="#4038FF" fill-rule="nonzero" points="534.561453 546.493877 523.858249 546.493877 523.858249 557.206504 534.561453 557.206504"></polygon>
            <polygon id="Path" fill="#4038FF" fill-rule="nonzero" points="555.941307 546.493877 545.238103 546.493877 545.238103 557.206504 555.941307 557.206504"></polygon>
            <polygon id="Path" fill="#4038FF" fill-rule="nonzero" points="566.644511 535.807805 555.941307 535.807805 555.941307 546.521288 566.644511 546.521288"></polygon>
            <polygon id="Path" fill="#4038FF" fill-rule="nonzero" points="545.264657 557.206504 534.561453 557.206504 534.561453 567.919987 545.264657 567.919987"></polygon>
            <polygon id="Path" fill="#4038FF" fill-rule="nonzero" points="534.561453 567.919987 523.858249 567.919987 523.858249 578.632614 534.561453 578.632614"></polygon>
            <polygon id="Path" fill="#4038FF" fill-rule="nonzero" points="555.941307 567.919987 545.238103 567.919987 545.238103 578.632614 555.941307 578.632614"></polygon>
            <polygon id="Path" fill="#4038FF" fill-rule="nonzero" points="577.347716 482.265228 566.644511 482.265228 566.644511 492.977855 577.347716 492.977855"></polygon>
            <polygon id="Path" fill="#4038FF" fill-rule="nonzero" points="577.347716 503.663928 566.644511 503.663928 566.644511 514.376555 577.347716 514.376555"></polygon>
            <polygon id="Path" fill="#4038FF" fill-rule="nonzero" points="577.347716 525.090038 566.644511 525.090038 566.644511 535.802665 577.347716 535.802665"></polygon>
            <polygon id="Path" fill="#4038FF" fill-rule="nonzero" points="577.347716 546.493877 566.644511 546.493877 566.644511 557.206504 577.347716 557.206504"></polygon>
            <polygon id="Path" fill="#4038FF" fill-rule="nonzero" points="577.347716 567.919987 566.644511 567.919987 566.644511 578.632614 577.347716 578.632614"></polygon>
            <polygon id="Path" fill="#4038FF" fill-rule="nonzero" points="566.644511 557.206504 555.941307 557.206504 555.941307 567.919987 566.644511 567.919987"></polygon>
            <path d="M459.659581,321.669194 L448.982931,321.669194 L448.982931,332.355266 L459.659581,332.355266 L459.659581,343.067893 L448.982931,343.067893 L448.982931,353.78052 L459.659581,353.78052 L459.659581,364.466593 L470.362786,364.466593 L470.362786,375.17922 L459.659581,375.17922 L459.659581,364.493147 L448.982931,364.493147 L448.982931,375.17922 L459.659581,375.17922 L459.659581,385.897843 L448.956377,385.897843 L448.956377,375.185216 L438.279727,375.185216 L438.279727,364.499143 L427.576523,364.499143 L427.576523,375.185216 L416.873319,375.185216 L416.873319,364.499143 L406.196669,364.499143 L406.196669,375.185216 L416.873319,375.185216 L416.873319,385.897843 L406.169258,385.897843 L406.169258,375.185216 L395.493464,375.185216 L395.493464,385.897843 L384.784264,385.897843 L384.784264,375.185216 L395.487468,375.185216 L395.487468,364.499143 L384.784264,364.499143 L384.784264,353.78566 L395.487468,353.78566 L395.487468,343.073033 L384.784264,343.073033 L384.784264,332.360406 L395.487468,332.360406 L395.487468,321.674334 L395.487468,321.647779 L406.164118,321.647779 L406.164118,310.961707 L416.867322,310.961707 L416.867322,321.647779 L427.570527,321.647779 L427.570527,310.961707 L438.274588,310.961707 L438.274588,321.647779 L448.951237,321.647779 L448.951237,310.961707 L459.654442,310.961707 L459.654442,321.647779 L470.357646,321.647779 L470.357646,332.360406 L459.654442,332.360406 L459.654442,321.669194 L459.659581,321.669194 Z M395.487468,321.64264 L395.487468,310.955711 L384.784264,310.955711 L384.784264,321.669194 L395.487468,321.669194 L395.487468,321.64264 Z M427.570527,375.185216 L427.570527,385.897843 L438.274588,385.897843 L438.274588,375.185216 L427.570527,375.185216 Z M459.659581,353.78566 L459.659581,343.073033 L470.362786,343.073033 L470.362786,353.78566 L459.659581,353.78566 Z M406.164118,364.472589 L395.487468,364.472589 L395.487468,353.78566 L406.164118,353.78566 L406.164118,364.472589 Z M406.190673,310.955711 L406.190673,300.243084 L416.867322,300.243084 L416.867322,310.955711 L427.570527,310.955711 L427.570527,300.243084 L438.274588,300.243084 L438.274588,310.955711 L448.977792,310.955711 L448.977792,300.243084 L459.654442,300.243084 L459.654442,310.955711 L470.357646,310.955711 L470.357646,300.243084 L459.654442,300.243084 L459.654442,289.530457 L448.951237,289.530457 L448.951237,300.243084 L438.274588,300.243084 L438.274588,289.530457 L427.570527,289.530457 L427.570527,300.243084 L416.867322,300.243084 L416.867322,289.530457 L406.164118,289.530457 L406.164118,300.243084 L395.487468,300.243084 L395.487468,289.530457 L384.784264,289.530457 L384.784264,300.243084 L395.487468,300.243084 L395.487468,310.955711 L406.190673,310.955711 Z M448.951237,332.355266 L448.951237,343.067893 L438.274588,343.067893 L438.274588,332.355266 L448.951237,332.355266 Z M427.570527,332.355266 L427.570527,321.669194 L438.274588,321.669194 L438.274588,332.355266 L427.570527,332.355266 Z M416.867322,332.355266 L427.570527,332.355266 L427.570527,343.067893 L416.867322,343.067893 L416.867322,332.355266 Z M416.867322,332.355266 L406.190673,332.355266 L406.190673,321.669194 L416.867322,321.669194 L416.867322,332.355266 Z M416.867322,353.78566 L406.190673,353.78566 L406.190673,343.073033 L416.867322,343.073033 L416.867322,353.78566 Z M427.570527,353.78566 L427.570527,364.472589 L416.867322,364.472589 L416.867322,353.78566 L427.570527,353.78566 Z M438.279727,353.78566 L427.576523,353.78566 L427.576523,343.073033 L438.279727,343.073033 L438.279727,353.78566 Z M438.279727,353.78566 L448.956377,353.78566 L448.956377,364.472589 L438.279727,364.472589 L438.279727,353.78566 Z M406.164118,343.073033 L406.164118,332.360406 L395.487468,332.360406 L395.487468,343.073033 L406.164118,343.073033 Z M481.06599,375.185216 L470.362786,375.185216 L470.362786,385.897843 L481.06599,385.897843 L481.06599,375.185216 Z M470.362786,353.78566 L481.06599,353.78566 L481.06599,364.499143 L470.362786,364.499143 L470.362786,353.78566 Z M481.06599,332.355266 L470.362786,332.355266 L470.362786,343.067893 L481.06599,343.067893 L481.06599,332.355266 Z M470.362786,310.955711 L481.06599,310.955711 L481.06599,321.669194 L470.362786,321.669194 L470.362786,310.955711 Z M470.362786,289.530457 L481.06599,289.530457 L481.06599,300.243084 L470.362786,300.243084 L470.362786,289.530457 Z" id="Shape" fill="#4038FF"></path>
            <path d="M566.644511,289.530457 L577.347716,289.530457 L577.347716,193.163071 L566.644511,193.163071 L566.644511,289.530457 Z M555.951586,289.530457 L545.253522,289.530457 L545.253522,193.163071 L555.951586,193.163071 L555.951586,289.530457 Z M534.556313,289.530457 L523.858249,289.530457 L523.858249,193.163071 L534.556313,193.163071 L534.556313,289.530457 Z M502.462119,289.530457 L513.160184,289.530457 L513.160184,193.163071 L502.462119,193.163071 L502.462119,289.530457 Z M491.764055,289.530457 L481.06599,289.530457 L481.06599,193.163071 L491.764055,193.163071 L491.764055,289.530457 Z" id="Shape" fill="#4038FF"></path>
            <path d="M481.06599,492.977855 L481.06599,482.265228 L384.784264,482.265228 L384.784264,492.977855 L481.06599,492.977855 Z M481.06599,503.680203 L481.06599,514.38769 L384.784264,514.38769 L384.784264,503.680203 L481.06599,503.680203 Z M481.06599,525.095178 L481.06599,535.802665 L384.784264,535.802665 L384.784264,525.095178 L481.06599,525.095178 Z M481.06599,557.21764 L481.06599,546.510152 L384.784264,546.510152 L384.784264,557.21764 L481.06599,557.21764 Z M481.06599,567.925127 L481.06599,578.632614 L384.784264,578.632614 L384.784264,567.925127 L481.06599,567.925127 Z" id="Shape" fill="#1F242C"></path>
            <path d="M481.06599,182.450273 L481.06599,193.163071 L384.784264,193.163071 L384.784264,182.450273 L481.06599,182.450273 Z M481.06599,150.322414 L481.06599,139.609616 L384.784264,139.609616 L384.784264,150.322414 L481.06599,150.322414 Z M481.06599,118.194641 L481.06599,128.90744 L384.784264,128.90744 L384.784264,118.194641 L481.06599,118.194641 Z M481.06599,96.7956853 L481.06599,107.508569 L384.784264,107.508569 L384.784264,96.7956853 L481.06599,96.7956853 Z M481.06599,171.737389 L481.06599,161.024505 L384.784264,161.024505 L384.784264,171.737389 L481.06599,171.737389 Z" id="Shape" fill="#1F242C"></path>
            <path d="M566.649651,385.897843 L577.347716,385.897843 C577.347716,439.119194 534.240228,482.265228 481.06599,482.265228 L481.06599,471.557741 C528.334835,471.557741 566.649651,433.208661 566.649651,385.897843 Z M545.253522,385.897843 L555.951586,385.897843 C555.951586,427.292989 522.424302,460.850254 481.06599,460.850254 L481.06599,450.142766 C516.513769,450.142766 545.253522,421.377316 545.253522,385.897843 Z M534.556313,385.897843 L523.858249,385.897843 C523.858249,409.550254 504.697843,428.727792 481.06599,428.727792 L481.06599,439.435279 C510.608376,439.435279 534.556313,415.466783 534.556313,385.897843 Z M502.462119,385.897843 L513.160184,385.897843 C513.160184,403.639721 498.792449,418.020305 481.06599,418.020305 L481.06599,407.312817 C492.881916,407.312817 502.462119,397.724048 502.462119,385.897843 Z M481.06599,385.897843 L491.764055,385.897843 C491.764055,391.813515 486.976523,396.60533 481.06599,396.60533 L481.06599,385.897843 Z" id="Shape" fill="#FFFFFF"></path>
            <path d="M277.461834,481.836929 L288.159898,481.836929 C288.159898,535.05828 245.052411,578.204315 191.878173,578.204315 L191.878173,567.496827 C239.147018,567.496827 277.461834,529.147747 277.461834,481.836929 Z M256.065704,481.836929 L266.763769,481.836929 C266.763769,523.232075 233.236485,556.78934 191.878173,556.78934 L191.878173,546.081853 C227.325952,546.081853 256.065704,517.316402 256.065704,481.836929 Z M245.368496,481.836929 L234.670431,481.836929 C234.670431,505.48934 215.510025,524.666878 191.878173,524.666878 L191.878173,535.374365 C221.420558,535.374365 245.368496,511.405869 245.368496,481.836929 Z M213.274302,481.836929 L223.972367,481.836929 C223.972367,499.578807 209.604632,513.959391 191.878173,513.959391 L191.878173,503.251904 C203.694099,503.251904 213.274302,493.663135 213.274302,481.836929 Z M191.878173,481.836929 L202.576237,481.836929 C202.576237,487.752602 197.788706,492.544416 191.878173,492.544416 L191.878173,481.836929 Z" id="Shape-Copy-2" fill="#FFFFFF" transform="translate(240.019036, 530.020622) rotate(-180.000000) translate(-240.019036, -530.020622) "></path>
            <path d="M298.515324,482.265228 L287.817259,482.265228 C287.817259,429.043877 330.924746,385.897843 384.098985,385.897843 L384.098985,396.60533 C336.83014,396.60533 298.515324,434.95441 298.515324,482.265228 Z M319.911453,482.265228 L309.213388,482.265228 C309.213388,440.870082 342.740673,407.312817 384.098985,407.312817 L384.098985,418.020305 C348.651206,418.020305 319.911453,446.785755 319.911453,482.265228 Z M330.609518,482.265228 L341.307582,482.265228 C341.307582,458.611961 360.467132,439.435279 384.098985,439.435279 L384.098985,428.727792 C354.556599,428.727792 330.609518,452.696288 330.609518,482.265228 Z M362.702855,482.265228 L352.005647,482.265228 C352.005647,464.522494 366.372525,450.142766 384.098985,450.142766 L384.098985,460.850254 C372.283058,460.850254 362.702855,470.439023 362.702855,482.265228 Z M384.098985,482.265228 L373.40092,482.265228 C373.40092,476.349556 378.188452,471.557741 384.098985,471.557741 L384.098985,482.265228 Z" id="Shape" fill="#1F242C" transform="translate(335.958122, 434.081536) rotate(-270.000000) translate(-335.958122, -434.081536) "></path>
            <path d="M481.06599,578.632614 L481.06599,675 L577.347716,675 C577.347716,621.778648 534.240228,578.632614 481.06599,578.632614 Z" id="Path" fill="#FFFFFF" fill-rule="nonzero" transform="translate(529.206853, 626.816307) rotate(-270.000000) translate(-529.206853, -626.816307) "></path>
            <path d="M95.9390863,675 L192.220812,675 L192.220812,578.632614 C139.046574,578.632614 95.9390863,621.778648 95.9390863,675 Z" id="Path" fill="#1F242C" fill-rule="nonzero"></path>
            <path d="M288.502538,578.632614 L384.784264,578.632614 L384.784264,482.265228 C331.610025,482.265228 288.502538,525.411263 288.502538,578.632614 Z" id="Path" fill="#1F242C" fill-rule="nonzero"></path>
            <path d="M299.205742,675 L288.502538,675 L288.502538,578.632614 L299.205742,578.632614 L299.205742,675 Z M331.305076,675 L342.00828,675 L342.00828,578.632614 L331.305076,578.632614 L331.305076,675 Z M363.40441,675 L352.701206,675 L352.701206,578.632614 L363.40441,578.632614 L363.40441,675 Z M384.784264,675 L374.08106,675 L374.08106,578.632614 L384.784264,578.632614 L384.784264,675 Z M309.908947,675 L320.612151,675 L320.612151,578.632614 L309.908947,578.632614 L309.908947,675 Z" id="Shape" fill="#4038FF"></path>
            <path d="M491.703204,97 L481,97 L481,0.632614213 L491.703204,0.632614213 L491.703204,97 Z M523.802538,97 L534.505742,97 L534.505742,0.632614213 L523.802538,0.632614213 L523.802538,97 Z M555.901872,97 L545.198668,97 L545.198668,0.632614213 L555.901872,0.632614213 L555.901872,97 Z M577.281726,97 L566.578522,97 L566.578522,0.632614213 L577.281726,0.632614213 L577.281726,97 Z M502.406409,97 L513.109613,97 L513.109613,0.632614213 L502.406409,0.632614213 L502.406409,97 Z" id="Shape-Copy-4" fill="#4038FF" transform="translate(529.140863, 48.816307) rotate(-270.000000) translate(-529.140863, -48.816307) "></path>
            <path d="M10.7032043,578.204315 L0,578.204315 L0,481.836929 L10.7032043,481.836929 L10.7032043,578.204315 Z M42.8025381,578.204315 L53.5057424,578.204315 L53.5057424,481.836929 L42.8025381,481.836929 L42.8025381,578.204315 Z M74.9018718,578.204315 L64.1986675,578.204315 L64.1986675,481.836929 L74.9018718,481.836929 L74.9018718,578.204315 Z M96.2817259,578.204315 L85.5785216,578.204315 L85.5785216,481.836929 L96.2817259,481.836929 L96.2817259,578.204315 Z M21.4064086,578.204315 L32.1096129,578.204315 L32.1096129,481.836929 L21.4064086,481.836929 L21.4064086,578.204315 Z" id="Shape-Copy" fill="#1F242C"></path>
            <path d="M384.784264,378.349492 L384.784264,385.897843 L377.24191,385.897843 L288.502538,297.079664 L288.502538,289.530457 L296.044036,289.530457 L384.784264,378.349492 Z M288.502538,312.23033 L288.502538,327.381853 L346.967132,385.897843 L362.104093,385.897843 L288.502538,312.23033 Z M288.502538,357.683185 L288.502538,342.532519 L331.829315,385.897843 L316.691497,385.897843 L288.502538,357.683185 Z M288.502538,385.897843 L301.55368,385.897843 L288.502538,372.834708 L288.502538,385.897843 Z M311.181853,289.530457 L326.31967,289.530457 L384.784264,348.046447 L384.784264,363.19797 L311.181853,289.530457 Z M356.595305,289.530457 L341.457487,289.530457 L384.784264,332.89578 L384.784264,317.745114 L356.595305,289.530457 Z M384.784264,302.593591 L371.732265,289.530457 L384.784264,289.530457 L384.784264,302.593591 Z" id="Shape" fill="#1F242C"></path>
            <path d="M385.098985,89.247335 L385.098985,96.7956853 L377.556631,96.7956853 L288.817259,7.97750635 L288.817259,0.428299492 L296.358756,0.428299492 L385.098985,89.247335 Z M288.817259,23.1281726 L288.817259,38.2796954 L347.281853,96.7956853 L362.418813,96.7956853 L288.817259,23.1281726 Z M288.817259,68.5810279 L288.817259,53.4303617 L332.144036,96.7956853 L317.006218,96.7956853 L288.817259,68.5810279 Z M288.817259,96.7956853 L301.868401,96.7956853 L288.817259,83.7325508 L288.817259,96.7956853 Z M311.496574,0.428299492 L326.634391,0.428299492 L385.098985,58.9442893 L385.098985,74.0958122 L311.496574,0.428299492 Z M356.910025,0.428299492 L341.772208,0.428299492 L385.098985,43.7936231 L385.098985,28.6429569 L356.910025,0.428299492 Z M385.098985,13.491434 L372.046986,0.428299492 L385.098985,0.428299492 L385.098985,13.491434 Z" id="Shape-Copy-3" fill="#1F242C"></path>
        </g>
        <text id="Acropolis-Network-An" font-family="Inter-Bold, Inter" font-size="100" font-weight="bold" line-spacing="90" fill="#FFFFFF">
            <tspan x="120" y="471">Acropolis</tspan>
            <tspan x="672.272727" y="499.268188" font-family="Inter-Regular, Inter" font-size="81" font-weight="normal"></tspan>
            <tspan x="147.627841" y="589.268188" font-family="Inter-Regular, Inter" font-size="70" font-weight="normal">Network Announced</tspan>
        </text>
        <g id="Group-29" transform="translate(120.000000, 120.000000)" fill-rule="nonzero">
            <path d="M41.36675,36.3 L41.36675,33.1 L46.4,33.1 L46.4,12.7 L49.93325,12.7 L49.93325,33.36675 C49.93325,34.96675 48.63325,36.3 47,36.3 L41.36675,36.3 Z M54.53325,27.66675 C52.83325,25.96675 51.96675,23.83325 51.96675,21.3 C51.96675,18.76675 52.83325,16.63325 54.53325,14.93325 C56.23325,13.23325 58.36675,12.36675 60.9,12.36675 C63.43325,12.36675 65.53325,13.23325 67.26675,14.93325 C68.96675,16.63325 69.83325,18.76675 69.83325,21.3 C69.83325,23.83325 68.96675,25.96675 67.26675,27.66675 C65.56675,29.36675 63.43325,30.23325 60.9,30.23325 C58.33325,30.23325 56.23325,29.36675 54.53325,27.66675 Z M57.1,17.1 C56.13325,18.13325 55.66675,19.53325 55.66675,21.26675 C55.66675,23 56.13325,24.4 57.1,25.43325 C58.06675,26.46675 59.33325,27 60.86675,27 C62.4,27 63.66675,26.46675 64.63325,25.43325 C65.6,24.4 66.06675,23 66.06675,21.26675 C66.06675,19.53325 65.6,18.13325 64.63325,17.1 C63.66675,16.06675 62.4,15.53325 60.86675,15.53325 C59.33325,15.56675 58.06675,16.06675 57.1,17.1 Z M70.1,12.7 L73.8,12.7 L77.5,26.53325 L79.33325,26.53325 L83.36675,12.7 L87.06675,12.7 L80,36.3 L76.3,36.3 L78.3,29.9 L77,29.9 C75.7,29.9 74.53325,29.03325 74.2,27.76675 L70.1,12.7 Z M86.73325,24.5 L90.6,24.5 C90.63325,24.56675 90.66675,24.66675 90.73325,24.76675 C90.8,24.86675 90.93325,25.06675 91.13325,25.36675 C91.33325,25.66675 91.6,25.93325 91.86675,26.13325 C92.13325,26.36675 92.56675,26.56675 93.06675,26.73325 C93.6,26.9 94.16675,27 94.8,27 C96.03325,27 96.93325,26.8 97.5,26.43325 C98.06675,26.06675 98.33325,25.56675 98.33325,25 C98.33325,24.46675 97.96675,24.03325 97.23325,23.73325 C96.5,23.43325 95.6,23.16675 94.53325,22.96675 C93.46675,22.76675 92.43325,22.5 91.36675,22.16675 C90.3,21.83325 89.43325,21.3 88.66675,20.5 C87.93325,19.7 87.56675,18.7 87.56675,17.43325 C87.56675,16.1 88.16675,14.9 89.4,13.9 C90.63325,12.9 92.26675,12.4 94.26675,12.4 C95.53325,12.4 96.63325,12.6 97.63325,12.96675 C98.63325,13.33325 99.36675,13.8 99.86675,14.3 C100.36675,14.83325 100.76675,15.36675 101.1,15.9 C101.43325,16.43325 101.63325,16.86675 101.73325,17.26675 L101.86675,17.8 L98.16675,17.8 C98.13325,17.73325 98.1,17.66675 98.06675,17.56675 C98.03325,17.46675 97.9,17.3 97.7,17.03325 C97.5,16.76675 97.3,16.56675 97.03325,16.36675 C96.76675,16.16675 96.4,16 95.93325,15.83325 C95.46675,15.66675 94.9,15.6 94.3,15.6 C93.3,15.6 92.56675,15.76675 92.03325,16.13325 C91.53325,16.5 91.26675,16.93325 91.26675,17.46675 C91.26675,17.9 91.53325,18.3 92.06675,18.6 C92.6,18.9 93.26675,19.13325 94.06675,19.26675 C94.86675,19.4 95.73325,19.6 96.66675,19.86675 C97.6,20.13325 98.43325,20.43325 99.26675,20.76675 C100.06675,21.1 100.73325,21.63325 101.26675,22.36675 C101.8,23.1 102.06675,24 102.06675,25.03325 C102.06675,26.46675 101.43325,27.7 100.13325,28.73325 C98.83325,29.76675 97.06675,30.26675 94.83325,30.26675 C93.5,30.26675 92.33325,30.06675 91.3,29.66675 C90.26675,29.26675 89.46675,28.8 88.93325,28.23325 C88.4,27.66675 87.96675,27.1 87.6,26.53325 C87.26675,25.96675 87.03325,25.5 86.93325,25.13325 L86.73325,24.5 Z M102.7,15.9 L102.7,12.7 L104.7,12.7 L104.7,9 L108.23325,9 L108.23325,12.7 L113.46675,12.7 L113.46675,15.9 L108.26675,15.9 L108.26675,26.7 L113.63325,26.7 L113.63325,29.9 L107.63325,29.9 C106.03325,29.9 104.7,28.6 104.7,26.96675 L104.7,15.9 L102.7,15.9 Z M119.16675,15.9 L119.16675,29.9 L115.63325,29.9 L115.63325,15.26675 C115.63325,13.86675 116.76675,12.7 118.2,12.7 L119.16675,12.7 L126.06675,12.7 L126.06675,15.9 L119.16675,15.9 Z M128.46675,27.66675 C126.8,25.93325 125.93325,23.8 125.93325,21.3 C125.93325,18.8 126.8,16.66675 128.46675,14.93325 C130.16675,13.2 132.23325,12.36675 134.66675,12.36675 C137.1,12.36675 139.16675,13.23325 140.86675,14.93325 C142.56675,16.66675 143.4,18.76675 143.4,21.3 L143.4,22.46675 L129.46675,22.46675 C129.7,23.86675 130.33325,24.96675 131.26675,25.8 C132.23325,26.63325 133.36675,27.03325 134.66675,27.03325 C135.73325,27.03325 136.63325,26.83325 137.46675,26.43325 C138.26675,26.03325 138.83325,25.63325 139.1,25.23325 L139.53325,24.66675 L143.23325,24.66675 C143.2,24.83325 143.1,25.03325 143,25.26675 C142.9,25.5 142.6,25.96675 142.13325,26.6 C141.66675,27.23325 141.16675,27.8 140.56675,28.3 C140,28.76675 139.16675,29.23325 138.1,29.63325 C137.03325,30.03325 135.9,30.23325 134.63325,30.23325 C132.23325,30.23325 130.16675,29.36675 128.46675,27.66675 Z M130.1,19.6 L140.16675,19.6 C140,18.5 139.46675,17.53325 138.56675,16.76675 C137.66675,15.96675 136.53325,15.56675 135.13325,15.56675 C133.93325,15.56675 132.83325,15.93325 131.9,16.66675 C130.96675,17.4 130.36675,18.36675 130.1,19.6 Z M146.7,27.76675 C145.16675,26.1 144.4,23.93325 144.4,21.3 C144.4,18.66675 145.16675,16.5 146.7,14.83325 C148.23325,13.16675 150.16675,12.36675 152.46675,12.36675 C153.53325,12.36675 154.5,12.56675 155.4,13 C156.3,13.43325 156.93325,13.83325 157.3,14.23325 L157.83325,14.86675 L158,14.86675 L158,12.66675 L161.53325,12.66675 L161.53325,29.86675 L158,29.86675 L158,27.5 L157.83325,27.5 C157.8,27.56675 157.7,27.66675 157.6,27.8 C157.5,27.93325 157.26675,28.13325 156.93325,28.46675 C156.6,28.76675 156.23325,29.06675 155.86675,29.3 C155.5,29.53325 154.96675,29.73325 154.36675,29.93325 C153.73325,30.13325 153.1,30.23325 152.46675,30.23325 C150.2,30.23325 148.26675,29.4 146.7,27.76675 Z M164.6,29.9 L164.6,12.7 L168.13325,12.7 L168.13325,15.06675 L168.3,15.06675 C168.33325,15 168.4,14.9 168.46675,14.76675 C168.53325,14.63325 168.7,14.43325 169,14.1 C169.3,13.8 169.6,13.5 169.96675,13.26675 C170.3,13.03325 170.8,12.83325 171.4,12.63325 C172,12.43325 172.66675,12.33325 173.33325,12.33325 C174.13325,12.33325 174.9,12.43325 175.56675,12.66675 C176.26675,12.9 176.8,13.16675 177.16675,13.46675 C177.56675,13.76675 177.9,14.1 178.16675,14.4 C178.43325,14.7 178.6,14.96675 178.7,15.2 L178.86675,15.53325 L179.03325,15.53325 C179.06675,15.43325 179.13325,15.33325 179.23325,15.16675 C179.3,15.03325 179.53325,14.76675 179.86675,14.4 C180.2,14.03325 180.56675,13.73325 180.96675,13.43325 C181.36675,13.16675 181.93325,12.9 182.63325,12.66675 C183.36675,12.43325 184.1,12.3 184.93325,12.3 C186.9,12.3 188.46675,12.93325 189.6,14.2 C190.73325,15.46675 191.3,17.23325 191.3,19.56675 L191.3,29.83325 L187.76675,29.83325 L187.76675,19.76675 C187.76675,16.96675 186.53325,15.56675 184.06675,15.56675 C182.86675,15.56675 181.83325,16.03325 180.96675,16.93325 C180.1,17.86675 179.7,19.03325 179.7,20.43325 L179.7,29.86675 L176.16675,29.86675 L176.16675,19.76675 C176.16675,16.96675 174.93325,15.56675 172.46675,15.56675 C171.26675,15.56675 170.23325,16.03325 169.36675,16.93325 C168.5,17.86675 168.1,19.03325 168.1,20.43325 L168.1,29.86675 L164.6,29.86675 L164.6,29.9 Z M46.43325,6.13325 L46.43325,9.66675 L49.96675,9.66675 L49.96675,6.13325 L46.43325,6.13325 Z M149.06675,17.1 C148.1,18.13325 147.63325,19.53325 147.63325,21.26675 C147.63325,23 148.1,24.4 149.06675,25.43325 C150.03325,26.46675 151.3,27 152.83325,27 C154.36675,27 155.63325,26.46675 156.6,25.43325 C157.56675,24.4 158.03325,23 158.03325,21.26675 C158.03325,19.53325 157.56675,18.13325 156.6,17.1 C155.63325,16.06675 154.36675,15.53325 152.83325,15.53325 C151.3,15.56675 150.03325,16.06675 149.06675,17.1 Z" id="Shape" fill="#FFFFFF"></path>
            <g id="Group" fill="#4038FF">
                <path d="M28.06675,2.7000624e-13 L31.7,2.7000624e-13 L31.7,10.43325 C31.7,14.6 30.13325,18.43325 27.56675,21.33325 C27.9,19.93325 28.06675,18.5 28.06675,17 L28.06675,2.7000624e-13 Z" id="Path"></path>
                <path d="M9.8,29.7665 C9.7,29.8665 9.63325,29.9665 9.53325,30.0665 C9.5,30.1 9.46675,30.13325 9.43325,30.1665 C9.33325,30.2665 9.26675,30.3665 9.16675,30.43325 C9.13325,30.4665 9.06675,30.53325 9.03325,30.5665 C8.93325,30.6665 8.83325,30.7665 8.7,30.8665 C8.56675,31 8.43325,31.1 8.3,31.23325 C8.16675,31.3665 8.03325,31.4665 7.86675,31.5665 C7.73325,31.6665 7.6,31.7665 7.46675,31.8665 C7.13325,32.0665 6.8,32.2665 6.46675,32.43325 C6.4,32.4665 6.33325,32.5 6.23325,32.53325 C6.13325,32.5665 6.06675,32.6 6,32.63325 C5.9,32.6665 5.83325,32.7 5.73325,32.73325 C5.56675,32.8 5.4,32.8665 5.2,32.93325 C5.2,32.93325 5.2,32.93325 5.16675,32.93325 C5,33 4.83325,33.03325 4.66675,33.0665 L4.63325,33.0665 C4.46675,33.1 4.3,33.1665 4.13325,33.2 C3.93325,33.23325 3.7,33.3 3.5,33.3 C3.43325,33.3 3.36675,33.33325 3.3,33.33325 L3.26675,33.33325 C3.06675,33.3665 2.9,33.3665 2.7,33.3665 C2.6,33.3665 2.5,33.3665 2.4,33.3665 C2.3,33.3665 2.2,33.3665 2.1,33.3665 L1.96675,33.3665 L3.06675,29.73325 L9.8,29.73325 L9.8,29.7665 Z" id="Path"></path>
                <path d="M25.13325,-7.10542736e-15 L25.13325,17 C25.13325,17.26675 25.13325,17.56675 25.1,17.83325 C25.1,17.96675 25.1,18.1 25.06675,18.23325 C25.06675,18.36675 25.03325,18.5 25.03325,18.63325 C25.03325,18.76675 25,18.9 25,19.03325 C25,19.13325 24.96675,19.26675 24.96675,19.36675 L24.96675,19.4 C24.96675,19.43325 24.96675,19.46675 24.96675,19.46675 C24.93325,19.6 24.93325,19.73325 24.9,19.83325 C24.86675,19.96675 24.86675,20.1 24.83325,20.2 L24.83325,20.23325 C24.8,20.33325 24.8,20.43325 24.76675,20.53325 C24.76675,20.56675 24.76675,20.56675 24.76675,20.6 C24.66675,21 24.56675,21.43325 24.43325,21.83325 C24.4,21.93325 24.36675,22.06675 24.33325,22.16675 C24.3,22.3 24.26675,22.4 24.2,22.53325 C24.16675,22.66675 24.1,22.76675 24.06675,22.86675 C24.03325,23 23.96675,23.1 23.93325,23.2 C23.9,23.33325 23.83325,23.43325 23.8,23.53325 C23.76675,23.63325 23.7,23.76675 23.63325,23.86675 C23.6,23.96675 23.53325,24.1 23.46675,24.2 C23.4,24.3 23.36675,24.43325 23.3,24.53325 C23.26675,24.63325 23.2,24.7 23.16675,24.8 C23.06675,25 22.96675,25.16675 22.83325,25.36675 C22.73325,25.53325 22.63325,25.7 22.53325,25.83325 C22.46675,25.96675 22.4,26.06675 22.3,26.16675 C22.26675,26.23325 22.2,26.3 22.16675,26.33325 C22.06675,26.46675 22,26.56675 21.9,26.66675 C21.8,26.8 21.7,26.9 21.63325,27.03325 C21.43325,27.26675 21.23325,27.5 21.03325,27.73325 C21.06675,27.6 21.1,27.46675 21.13325,27.33325 C21.16675,27.23325 21.16675,27.13325 21.2,27.03325 C21.2,27.03325 21.2,27.03325 21.2,27 C21.2,26.96675 21.2,26.96675 21.2,26.93325 C21.23325,26.8 21.23325,26.66675 21.26675,26.53325 C21.3,26.36675 21.33325,26.2 21.33325,26.06675 C21.33325,25.96675 21.36675,25.86675 21.36675,25.8 C21.36675,25.7 21.4,25.63325 21.4,25.53325 C21.43325,25.36675 21.43325,25.2 21.46675,25 C21.46675,24.96675 21.46675,24.96675 21.46675,24.93325 C21.46675,24.9 21.46675,24.9 21.46675,24.86675 C21.46675,24.73325 21.5,24.63325 21.5,24.5 C21.5,24.4 21.5,24.3 21.5,24.2 L21.5,24.33325 C21.5,24.23325 21.5,24.13325 21.5,24.03325 C21.5,23.86675 21.5,23.73325 21.5,23.56675 L21.5,-7.10542736e-15 L25.13325,-7.10542736e-15 Z" id="Path"></path>
                <path d="M18.56675,0 L18.56675,23.56675 C18.56675,24.13325 18.53325,24.66675 18.5,25.2 C18.46675,25.66675 18.4,26.1 18.3,26.56675 C18.1,27.63325 17.8,28.66675 17.4,29.63325 C17.16675,30.23325 16.86675,30.83325 16.56675,31.4 C15.63325,33.06675 14.43325,34.56675 13.03325,35.83325 C10.13325,38.43325 6.3,40 2.13325,40 L-9.23705556e-14,40 L1.1,36.36675 L2.16675,36.36675 C5.3,36.36675 8.16675,35.23325 10.36675,33.36675 C11.56675,32.36675 12.56675,31.16675 13.3,29.8 C13.5,29.46675 13.66675,29.1 13.83325,28.73325 C14.1,28.13325 14.3,27.53325 14.46675,26.9 C14.66675,26.2 14.8,25.46675 14.83325,24.73325 C14.86675,24.36675 14.86675,24 14.86675,23.63325 L14.86675,0 L18.56675,0 Z" id="Path"></path>
                <path d="M12,23.2 L12,23.56675 C12,23.86675 12,24.16675 11.96675,24.4335 C11.9,25 11.83325,25.56675 11.66675,26.1 C11.6,26.36675 11.53325,26.6335 11.43325,26.86675 L3.93325,26.86675 L5.03325,23.2335 L12,23.2335 L12,23.2 Z" id="Path"></path>
            </g>
        </g>
    </g>
</svg>