<svg xmlns="http://www.w3.org/2000/svg" width="1200" height="675" viewBox="0 0 1200 675">
  <g fill="none" fill-rule="evenodd">
    <path fill="#4038FF" d="M0 0H1200V675H0z"/>
    <g transform="matrix(1 0 0 -1 918 338)">
      <path fill="#261EE4" fill-rule="nonzero" d="M231.048 225L224.8 225 224.8 231.253 231.048 231.253zM237.295 231.253L231.048 231.253 231.048 237.506 237.295 237.506zM243.527 225L237.28 225 237.28 231.253 243.527 231.253zM231.048 237.49L224.8 237.49 224.8 243.744 231.048 243.744z"/>
      <path fill="#261EE4" fill-rule="nonzero" d="M243.527 237.49L237.28 237.49 237.28 243.744 243.527 243.744zM249.774 231.253L243.527 231.253 243.527 237.506 249.774 237.506zM237.295 243.744L231.048 243.744 231.048 249.997 237.295 249.997zM231.048 249.997L224.8 249.997 224.8 256.25 231.048 256.25zM243.527 249.997L237.28 249.997 237.28 256.25 243.527 256.25zM249.774 243.744L243.527 243.744 243.527 249.997 249.774 249.997zM237.295 256.253L231.048 256.253 231.048 262.507 237.295 262.507zM231.048 262.49L224.8 262.49 224.8 268.743 231.048 268.743z"/>
      <path fill="#261EE4" fill-rule="nonzero" d="M243.527 262.49L237.28 262.49 237.28 268.743 243.527 268.743zM249.774 256.253L243.527 256.253 243.527 262.507 249.774 262.507zM237.295 268.743L231.048 268.743 231.048 274.997 237.295 274.997zM231.048 274.997L224.8 274.997 224.8 281.25 231.048 281.25zM243.527 274.997L237.28 274.997 237.28 281.25 243.527 281.25zM249.774 268.743L243.527 268.743 243.527 274.997 249.774 274.997zM256.026 225L249.778 225 249.778 231.253 256.026 231.253zM262.273 231.253L256.026 231.253 256.026 237.506 262.273 237.506zM268.505 225L262.257 225 262.257 231.253 268.505 231.253zM256.026 237.49L249.778 237.49 249.778 243.744 256.026 243.744z"/>
      <path fill="#261EE4" fill-rule="nonzero" d="M268.505 237.49L262.257 237.49 262.257 243.744 268.505 243.744zM274.752 231.253L268.505 231.253 268.505 237.506 274.752 237.506zM262.273 243.744L256.026 243.744 256.026 249.997 262.273 249.997zM256.026 249.997L249.778 249.997 249.778 256.25 256.026 256.25zM268.505 249.997L262.257 249.997 262.257 256.25 268.505 256.25zM274.752 243.744L268.505 243.744 268.505 249.997 274.752 249.997zM262.273 256.253L256.026 256.253 256.026 262.507 262.273 262.507zM256.026 262.49L249.778 262.49 249.778 268.743 256.026 268.743z"/>
      <path fill="#261EE4" fill-rule="nonzero" d="M268.505 262.49L262.257 262.49 262.257 268.743 268.505 268.743zM274.752 256.253L268.505 256.253 268.505 262.507 274.752 262.507zM262.273 268.743L256.026 268.743 256.026 274.997 262.273 274.997zM256.026 274.997L249.778 274.997 249.778 281.25 256.026 281.25zM268.505 274.997L262.257 274.997 262.257 281.25 268.505 281.25zM281 225L274.752 225 274.752 231.253 281 231.253zM281 237.49L274.752 237.49 274.752 243.744 281 243.744zM281 249.997L274.752 249.997 274.752 256.25 281 256.25zM281 262.49L274.752 262.49 274.752 268.743 281 268.743zM281 274.997L274.752 274.997 274.752 281.25 281 281.25zM274.752 268.743L268.505 268.743 268.505 274.997 274.752 274.997z"/>
      <path fill="#261EE4" d="M212.305 131.2595L206.073 131.2595 206.073 137.497 212.305 137.497 212.305 143.75 206.073 143.75 206.073 150.003 212.305 150.003 212.305 156.2405 218.5525 156.2405 218.5525 162.4935 212.305 162.4935 212.305 156.256 206.073 156.256 206.073 162.4935 212.305 162.4935 212.305 168.75 206.0575 168.75 206.0575 162.497 199.8255 162.497 199.8255 156.2595 193.578 156.2595 193.578 162.497 187.3305 162.497 187.3305 156.2595 181.0985 156.2595 181.0985 162.497 187.3305 162.497 187.3305 168.75 181.0825 168.75 181.0825 162.497 174.851 162.497 174.851 168.75 168.6 168.75 168.6 162.497 174.8475 162.497 174.8475 156.2595 168.6 156.2595 168.6 150.006 174.8475 150.006 174.8475 143.753 168.6 143.753 168.6 137.5 174.8475 137.5 174.8475 131.2625 174.8475 131.247 181.0795 131.247 181.0795 125.0095 187.327 125.0095 187.327 131.247 193.5745 131.247 193.5745 125.0095 199.8225 125.0095 199.8225 131.247 206.0545 131.247 206.0545 125.0095 212.302 125.0095 212.302 131.247 218.5495 131.247 218.5495 137.5 212.302 137.5 212.302 131.2595 212.305 131.2595zM174.8475 131.244L174.8475 125.006 168.6 125.006 168.6 131.2595 174.8475 131.2595 174.8475 131.244zM193.5745 162.497L193.5745 168.75 199.8225 168.75 199.8225 162.497 193.5745 162.497zM212.305 150.006L212.305 143.753 218.5525 143.753 218.5525 150.006 212.305 150.006zM181.0795 156.244L174.8475 156.244 174.8475 150.006 181.0795 150.006 181.0795 156.244zM181.095 125.006L181.095 118.753 187.327 118.753 187.327 125.006 193.5745 125.006 193.5745 118.753 199.8225 118.753 199.8225 125.006 206.07 125.006 206.07 118.753 212.302 118.753 212.302 125.006 218.5495 125.006 218.5495 118.753 212.302 118.753 212.302 112.5 206.0545 112.5 206.0545 118.753 199.8225 118.753 199.8225 112.5 193.5745 112.5 193.5745 118.753 187.327 118.753 187.327 112.5 181.0795 112.5 181.0795 118.753 174.8475 118.753 174.8475 112.5 168.6 112.5 168.6 118.753 174.8475 118.753 174.8475 125.006 181.095 125.006zM206.0545 137.497L206.0545 143.75 199.8225 143.75 199.8225 137.497 206.0545 137.497zM193.5745 137.497L193.5745 131.2595 199.8225 131.2595 199.8225 137.497 193.5745 137.497zM187.327 137.497L193.5745 137.497 193.5745 143.75 187.327 143.75 187.327 137.497zM187.327 137.497L181.095 137.497 181.095 131.2595 187.327 131.2595 187.327 137.497zM187.327 150.006L181.095 150.006 181.095 143.753 187.327 143.753 187.327 150.006zM193.5745 150.006L193.5745 156.244 187.327 156.244 187.327 150.006 193.5745 150.006zM199.8255 150.006L193.578 150.006 193.578 143.753 199.8255 143.753 199.8255 150.006zM199.8255 150.006L206.0575 150.006 206.0575 156.244 199.8255 156.244 199.8255 150.006zM181.0795 143.753L181.0795 137.5 174.8475 137.5 174.8475 143.753 181.0795 143.753zM224.8 162.497L218.5525 162.497 218.5525 168.75 224.8 168.75 224.8 162.497zM218.5525 150.006L224.8 150.006 224.8 156.2595 218.5525 156.2595 218.5525 150.006zM224.8 137.497L218.5525 137.497 218.5525 143.75 224.8 143.75 224.8 137.497zM218.5525 125.006L224.8 125.006 224.8 131.2595 218.5525 131.2595 218.5525 125.006zM218.5525 112.5L224.8 112.5 224.8 118.753 218.5525 118.753 218.5525 112.5zM274.7525 112.5L281 112.5 281 56.25 274.7525 56.25 274.7525 112.5zM268.511 112.5L262.2665 112.5 262.2665 56.25 268.511 56.25 268.511 112.5zM256.0225 112.5L249.778 112.5 249.778 56.25 256.0225 56.25 256.0225 112.5zM237.289 112.5L243.5335 112.5 243.5335 56.25 237.289 56.25 237.289 112.5zM231.0445 112.5L224.8 112.5 224.8 56.25 231.0445 56.25 231.0445 112.5zM224.8 231.253L224.8 225 168.6 225 168.6 231.253 224.8 231.253zM224.8 237.5L224.8 243.75 168.6 243.75 168.6 237.5 224.8 237.5zM224.8 250L224.8 256.25 168.6 256.25 168.6 250 224.8 250zM224.8 268.75L224.8 262.5 168.6 262.5 168.6 268.75 224.8 268.75zM224.8 275L224.8 281.25 168.6 281.25 168.6 275 224.8 275zM224.8 49.9969L224.8 56.25 168.6 56.25 168.6 49.9969 224.8 49.9969zM224.8 31.24375L224.8 24.99065 168.6 24.99065 168.6 31.24375 224.8 31.24375zM224.8 12.49065L224.8 18.74375 168.6 18.74375 168.6 12.49065 224.8 12.49065zM224.8 0L224.8 6.25315 168.6 6.25315 168.6 0 224.8 0zM224.8 43.74375L224.8 37.4906 168.6 37.4906 168.6 43.74375 224.8 43.74375z"/>
      <path fill="#FFF" d="M274.7555,168.75 L281,168.75 C281,199.8155 255.838,225 224.8,225 L224.8,218.75 C252.391,218.75 274.7555,196.3655 274.7555,168.75 Z M262.2665,168.75 L268.511,168.75 C268.511,192.9125 248.941,212.5 224.8,212.5 L224.8,206.25 C245.491,206.25 262.2665,189.4595 262.2665,168.75 Z M256.0225,168.75 L249.778,168.75 C249.778,182.556 238.594,193.75 224.8,193.75 L224.8,200 C242.044,200 256.0225,186.0095 256.0225,168.75 Z M237.289,168.75 L243.5335,168.75 C243.5335,179.106 235.147,187.5 224.8,187.5 L224.8,181.25 C231.697,181.25 237.289,175.653 237.289,168.75 Z M224.8,168.75 L231.0445,168.75 C231.0445,172.203 228.25,175 224.8,175 L224.8,168.75 Z"/>
      <path fill="#261EE4" d="M174.8445,225 L168.6,225 C168.6,193.9345 193.762,168.75 224.8,168.75 L224.8,175 C197.209,175 174.8445,197.3845 174.8445,225 Z M187.3335,225 L181.089,225 C181.089,200.8375 200.659,181.25 224.8,181.25 L224.8,187.5 C204.109,187.5 187.3335,204.2905 187.3335,225 Z M193.578,225 L199.8225,225 C199.8225,211.1935 211.006,200 224.8,200 L224.8,193.75 C207.556,193.75 193.578,207.7405 193.578,225 Z M212.311,225 L206.067,225 C206.067,214.6435 214.453,206.25 224.8,206.25 L224.8,212.5 C217.903,212.5 212.311,218.097 212.311,225 Z M224.8,225 L218.5555,225 C218.5555,221.547 221.35,218.75 224.8,218.75 L224.8,225 Z"/>
      <path fill="#FFF" d="M118.7445,337.5 L112.5,337.5 C112.5,306.4345 137.662,281.25 168.7,281.25 L168.7,287.5 C141.109,287.5 118.7445,309.8845 118.7445,337.5 Z M131.2335,337.5 L124.989,337.5 C124.989,313.3375 144.559,293.75 168.7,293.75 L168.7,300 C148.009,300 131.2335,316.7905 131.2335,337.5 Z M137.478,337.5 L143.7225,337.5 C143.7225,323.6935 154.906,312.5 168.7,312.5 L168.7,306.25 C151.456,306.25 137.478,320.2405 137.478,337.5 Z M156.211,337.5 L149.967,337.5 C149.967,327.1435 158.353,318.75 168.7,318.75 L168.7,325 C161.803,325 156.211,330.597 156.211,337.5 Z M168.7,337.5 L162.4555,337.5 C162.4555,334.047 165.25,331.25 168.7,331.25 L168.7,337.5 Z" transform="matrix(-1 0 0 1 281.2 0)"/>
      <path fill="#261EE4" fill-rule="nonzero" d="M224.8,281.25 L224.8,337.5 L281,337.5 C281,306.4345 255.838,281.25 224.8,281.25 Z" transform="rotate(90 252.9 309.375)"/>
      <path fill="#261EE4" fill-rule="nonzero" d="M0 337.5L56.2 337.5 56.2 281.25C25.162 281.25 0 306.4345 0 337.5zM112.4 281.25L168.6 281.25 168.6 225C137.562 225 112.4 250.1845 112.4 281.25z"/>
      <path fill="#261EE4" d="M168.6,164.344 L168.6,168.75 L164.1975,168.75 L112.4,116.9065 L112.4,112.5 L116.802,112.5 L168.6,164.344 Z M112.4,125.75 L112.4,134.594 L146.526,168.75 L155.3615,168.75 L112.4,125.75 Z M112.4,152.281 L112.4,143.4375 L137.69,168.75 L128.854,168.75 L112.4,152.281 Z M112.4,168.75 L120.018,168.75 L112.4,161.125 L112.4,168.75 Z M125.638,112.5 L134.474,112.5 L168.6,146.656 L168.6,155.5 L125.638,112.5 Z M152.146,112.5 L143.31,112.5 L168.6,137.8125 L168.6,128.969 L152.146,112.5 Z M168.6,120.125 L160.9815,112.5 L168.6,112.5 L168.6,120.125 Z"/>
    </g>
    <g transform="matrix(1 0 0 -1 -111 338)">
      <path fill="#261EE4" fill-rule="nonzero" d="M231.048 225L224.8 225 224.8 231.253 231.048 231.253zM237.295 231.253L231.048 231.253 231.048 237.506 237.295 237.506zM243.527 225L237.28 225 237.28 231.253 243.527 231.253zM231.048 237.49L224.8 237.49 224.8 243.744 231.048 243.744z"/>
      <path fill="#261EE4" fill-rule="nonzero" d="M243.527 237.49L237.28 237.49 237.28 243.744 243.527 243.744zM249.774 231.253L243.527 231.253 243.527 237.506 249.774 237.506zM237.295 243.744L231.048 243.744 231.048 249.997 237.295 249.997zM231.048 249.997L224.8 249.997 224.8 256.25 231.048 256.25zM243.527 249.997L237.28 249.997 237.28 256.25 243.527 256.25zM249.774 243.744L243.527 243.744 243.527 249.997 249.774 249.997zM237.295 256.253L231.048 256.253 231.048 262.507 237.295 262.507zM231.048 262.49L224.8 262.49 224.8 268.743 231.048 268.743z"/>
      <path fill="#261EE4" fill-rule="nonzero" d="M243.527 262.49L237.28 262.49 237.28 268.743 243.527 268.743zM249.774 256.253L243.527 256.253 243.527 262.507 249.774 262.507zM237.295 268.743L231.048 268.743 231.048 274.997 237.295 274.997zM231.048 274.997L224.8 274.997 224.8 281.25 231.048 281.25zM243.527 274.997L237.28 274.997 237.28 281.25 243.527 281.25zM249.774 268.743L243.527 268.743 243.527 274.997 249.774 274.997zM256.026 225L249.778 225 249.778 231.253 256.026 231.253zM262.273 231.253L256.026 231.253 256.026 237.506 262.273 237.506zM268.505 225L262.257 225 262.257 231.253 268.505 231.253zM256.026 237.49L249.778 237.49 249.778 243.744 256.026 243.744z"/>
      <path fill="#261EE4" fill-rule="nonzero" d="M268.505 237.49L262.257 237.49 262.257 243.744 268.505 243.744zM274.752 231.253L268.505 231.253 268.505 237.506 274.752 237.506zM262.273 243.744L256.026 243.744 256.026 249.997 262.273 249.997zM256.026 249.997L249.778 249.997 249.778 256.25 256.026 256.25zM268.505 249.997L262.257 249.997 262.257 256.25 268.505 256.25zM274.752 243.744L268.505 243.744 268.505 249.997 274.752 249.997zM262.273 256.253L256.026 256.253 256.026 262.507 262.273 262.507zM256.026 262.49L249.778 262.49 249.778 268.743 256.026 268.743z"/>
      <path fill="#261EE4" fill-rule="nonzero" d="M268.505 262.49L262.257 262.49 262.257 268.743 268.505 268.743zM274.752 256.253L268.505 256.253 268.505 262.507 274.752 262.507zM262.273 268.743L256.026 268.743 256.026 274.997 262.273 274.997zM256.026 274.997L249.778 274.997 249.778 281.25 256.026 281.25zM268.505 274.997L262.257 274.997 262.257 281.25 268.505 281.25zM281 225L274.752 225 274.752 231.253 281 231.253zM281 237.49L274.752 237.49 274.752 243.744 281 243.744zM281 249.997L274.752 249.997 274.752 256.25 281 256.25zM281 262.49L274.752 262.49 274.752 268.743 281 268.743zM281 274.997L274.752 274.997 274.752 281.25 281 281.25zM274.752 268.743L268.505 268.743 268.505 274.997 274.752 274.997z"/>
      <path fill="#261EE4" d="M212.305 131.2595L206.073 131.2595 206.073 137.497 212.305 137.497 212.305 143.75 206.073 143.75 206.073 150.003 212.305 150.003 212.305 156.2405 218.5525 156.2405 218.5525 162.4935 212.305 162.4935 212.305 156.256 206.073 156.256 206.073 162.4935 212.305 162.4935 212.305 168.75 206.0575 168.75 206.0575 162.497 199.8255 162.497 199.8255 156.2595 193.578 156.2595 193.578 162.497 187.3305 162.497 187.3305 156.2595 181.0985 156.2595 181.0985 162.497 187.3305 162.497 187.3305 168.75 181.0825 168.75 181.0825 162.497 174.851 162.497 174.851 168.75 168.6 168.75 168.6 162.497 174.8475 162.497 174.8475 156.2595 168.6 156.2595 168.6 150.006 174.8475 150.006 174.8475 143.753 168.6 143.753 168.6 137.5 174.8475 137.5 174.8475 131.2625 174.8475 131.247 181.0795 131.247 181.0795 125.0095 187.327 125.0095 187.327 131.247 193.5745 131.247 193.5745 125.0095 199.8225 125.0095 199.8225 131.247 206.0545 131.247 206.0545 125.0095 212.302 125.0095 212.302 131.247 218.5495 131.247 218.5495 137.5 212.302 137.5 212.302 131.2595 212.305 131.2595zM174.8475 131.244L174.8475 125.006 168.6 125.006 168.6 131.2595 174.8475 131.2595 174.8475 131.244zM193.5745 162.497L193.5745 168.75 199.8225 168.75 199.8225 162.497 193.5745 162.497zM212.305 150.006L212.305 143.753 218.5525 143.753 218.5525 150.006 212.305 150.006zM181.0795 156.244L174.8475 156.244 174.8475 150.006 181.0795 150.006 181.0795 156.244zM181.095 125.006L181.095 118.753 187.327 118.753 187.327 125.006 193.5745 125.006 193.5745 118.753 199.8225 118.753 199.8225 125.006 206.07 125.006 206.07 118.753 212.302 118.753 212.302 125.006 218.5495 125.006 218.5495 118.753 212.302 118.753 212.302 112.5 206.0545 112.5 206.0545 118.753 199.8225 118.753 199.8225 112.5 193.5745 112.5 193.5745 118.753 187.327 118.753 187.327 112.5 181.0795 112.5 181.0795 118.753 174.8475 118.753 174.8475 112.5 168.6 112.5 168.6 118.753 174.8475 118.753 174.8475 125.006 181.095 125.006zM206.0545 137.497L206.0545 143.75 199.8225 143.75 199.8225 137.497 206.0545 137.497zM193.5745 137.497L193.5745 131.2595 199.8225 131.2595 199.8225 137.497 193.5745 137.497zM187.327 137.497L193.5745 137.497 193.5745 143.75 187.327 143.75 187.327 137.497zM187.327 137.497L181.095 137.497 181.095 131.2595 187.327 131.2595 187.327 137.497zM187.327 150.006L181.095 150.006 181.095 143.753 187.327 143.753 187.327 150.006zM193.5745 150.006L193.5745 156.244 187.327 156.244 187.327 150.006 193.5745 150.006zM199.8255 150.006L193.578 150.006 193.578 143.753 199.8255 143.753 199.8255 150.006zM199.8255 150.006L206.0575 150.006 206.0575 156.244 199.8255 156.244 199.8255 150.006zM181.0795 143.753L181.0795 137.5 174.8475 137.5 174.8475 143.753 181.0795 143.753zM224.8 162.497L218.5525 162.497 218.5525 168.75 224.8 168.75 224.8 162.497zM218.5525 150.006L224.8 150.006 224.8 156.2595 218.5525 156.2595 218.5525 150.006zM224.8 137.497L218.5525 137.497 218.5525 143.75 224.8 143.75 224.8 137.497zM218.5525 125.006L224.8 125.006 224.8 131.2595 218.5525 131.2595 218.5525 125.006zM218.5525 112.5L224.8 112.5 224.8 118.753 218.5525 118.753 218.5525 112.5zM274.7525 112.5L281 112.5 281 56.25 274.7525 56.25 274.7525 112.5zM268.511 112.5L262.2665 112.5 262.2665 56.25 268.511 56.25 268.511 112.5zM256.0225 112.5L249.778 112.5 249.778 56.25 256.0225 56.25 256.0225 112.5zM237.289 112.5L243.5335 112.5 243.5335 56.25 237.289 56.25 237.289 112.5zM231.0445 112.5L224.8 112.5 224.8 56.25 231.0445 56.25 231.0445 112.5zM224.8 231.253L224.8 225 168.6 225 168.6 231.253 224.8 231.253zM224.8 237.5L224.8 243.75 168.6 243.75 168.6 237.5 224.8 237.5zM224.8 250L224.8 256.25 168.6 256.25 168.6 250 224.8 250zM224.8 268.75L224.8 262.5 168.6 262.5 168.6 268.75 224.8 268.75zM224.8 275L224.8 281.25 168.6 281.25 168.6 275 224.8 275zM224.8 49.9969L224.8 56.25 168.6 56.25 168.6 49.9969 224.8 49.9969zM224.8 31.24375L224.8 24.99065 168.6 24.99065 168.6 31.24375 224.8 31.24375zM224.8 12.49065L224.8 18.74375 168.6 18.74375 168.6 12.49065 224.8 12.49065zM224.8 0L224.8 6.25315 168.6 6.25315 168.6 0 224.8 0zM224.8 43.74375L224.8 37.4906 168.6 37.4906 168.6 43.74375 224.8 43.74375zM174.8445 225L168.6 225C168.6 193.9345 193.762 168.75 224.8 168.75L224.8 175C197.209 175 174.8445 197.3845 174.8445 225zM187.3335 225L181.089 225C181.089 200.8375 200.659 181.25 224.8 181.25L224.8 187.5C204.109 187.5 187.3335 204.2905 187.3335 225zM193.578 225L199.8225 225C199.8225 211.1935 211.006 200 224.8 200L224.8 193.75C207.556 193.75 193.578 207.7405 193.578 225zM212.311 225L206.067 225C206.067 214.6435 214.453 206.25 224.8 206.25L224.8 212.5C217.903 212.5 212.311 218.097 212.311 225zM224.8 225L218.5555 225C218.5555 221.547 221.35 218.75 224.8 218.75L224.8 225z"/>
      <path fill="#FFF" d="M118.7445,337.5 L112.5,337.5 C112.5,306.4345 137.662,281.25 168.7,281.25 L168.7,287.5 C141.109,287.5 118.7445,309.8845 118.7445,337.5 Z M131.2335,337.5 L124.989,337.5 C124.989,313.3375 144.559,293.75 168.7,293.75 L168.7,300 C148.009,300 131.2335,316.7905 131.2335,337.5 Z M137.478,337.5 L143.7225,337.5 C143.7225,323.6935 154.906,312.5 168.7,312.5 L168.7,306.25 C151.456,306.25 137.478,320.2405 137.478,337.5 Z M156.211,337.5 L149.967,337.5 C149.967,327.1435 158.353,318.75 168.7,318.75 L168.7,325 C161.803,325 156.211,330.597 156.211,337.5 Z M168.7,337.5 L162.4555,337.5 C162.4555,334.047 165.25,331.25 168.7,331.25 L168.7,337.5 Z" transform="matrix(-1 0 0 1 281.2 0)"/>
      <path fill="#261EE4" fill-rule="nonzero" d="M112.4,281.25 L168.6,281.25 L168.6,225 C137.562,225 112.4,250.1845 112.4,281.25 Z"/>
      <path fill="#261EE4" d="M168.6,164.344 L168.6,168.75 L164.1975,168.75 L112.4,116.9065 L112.4,112.5 L116.802,112.5 L168.6,164.344 Z M112.4,125.75 L112.4,134.594 L146.526,168.75 L155.3615,168.75 L112.4,125.75 Z M112.4,152.281 L112.4,143.4375 L137.69,168.75 L128.854,168.75 L112.4,152.281 Z M112.4,168.75 L120.018,168.75 L112.4,161.125 L112.4,168.75 Z M125.638,112.5 L134.474,112.5 L168.6,146.656 L168.6,155.5 L125.638,112.5 Z M152.146,112.5 L143.31,112.5 L168.6,137.8125 L168.6,128.969 L152.146,112.5 Z M168.6,120.125 L160.9815,112.5 L168.6,112.5 L168.6,120.125 Z"/>
    </g>
    <g transform="translate(1030 394)">
      <path fill="#261EE4" d="M50.3525 56.5L56.6 56.5 56.6.25 50.3525.25 50.3525 56.5zM44.111 56.5L37.8665 56.5 37.8665.25 44.111.25 44.111 56.5zM31.6225 56.5L25.378 56.5 25.378.25 31.6225.25 31.6225 56.5zM12.889 56.5L19.1335 56.5 19.1335.25 12.889.25 12.889 56.5zM6.6445 56.5L.4 56.5.4.25 6.6445.25 6.6445 56.5zM112.8 119.003L112.8 112.75 56.6 112.75 56.6 119.003 112.8 119.003zM112.8 125.25L112.8 131.5 56.6 131.5 56.6 125.25 112.8 125.25zM112.8 137.75L112.8 144 56.6 144 56.6 137.75 112.8 137.75zM112.8 156.5L112.8 150.25 56.6 150.25 56.6 156.5 112.8 156.5zM112.8 162.75L112.8 169 56.6 169 56.6 162.75 112.8 162.75z"/>
      <path fill="#261EE4" d="M112.8,162.7469 L112.8,169 L56.6,169 L56.6,162.7469 L112.8,162.7469 Z M112.8,143.99375 L112.8,137.74065 L56.6,137.74065 L56.6,143.99375 L112.8,143.99375 Z M112.8,125.24065 L112.8,131.49375 L56.6,131.49375 L56.6,125.24065 L112.8,125.24065 Z M112.8,112.75 L112.8,119.00315 L56.6,119.00315 L56.6,112.75 L112.8,112.75 Z M112.8,156.49375 L112.8,150.2406 L56.6,150.2406 L56.6,156.49375 L112.8,156.49375 Z"/>
      <path fill="#FFF" d="M106.9555,56.5 L113.2,56.5 C113.2,87.5655 88.038,112.75 57,112.75 L57,106.5 C84.591,106.5 106.9555,84.1155 106.9555,56.5 Z M94.4665,56.5 L100.711,56.5 C100.711,80.6625 81.141,100.25 57,100.25 L57,94 C77.691,94 94.4665,77.2095 94.4665,56.5 Z M88.2225,56.5 L81.978,56.5 C81.978,70.306 70.794,81.5 57,81.5 L57,87.75 C74.244,87.75 88.2225,73.7595 88.2225,56.5 Z M69.489,56.5 L75.7335,56.5 C75.7335,66.856 67.347,75.25 57,75.25 L57,69 C63.897,69 69.489,63.403 69.489,56.5 Z M57,56.5 L63.2445,56.5 C63.2445,59.953 60.45,62.75 57,62.75 L57,56.5 Z" transform="rotate(-180 85.1 84.625)"/>
      <path fill="#261EE4" d="M62.8445,225.25 L56.6,225.25 C56.6,194.1845 81.762,169 112.8,169 L112.8,175.25 C85.209,175.25 62.8445,197.6345 62.8445,225.25 Z M75.3335,225.25 L69.089,225.25 C69.089,201.0875 88.659,181.5 112.8,181.5 L112.8,187.75 C92.109,187.75 75.3335,204.5405 75.3335,225.25 Z M81.578,225.25 L87.8225,225.25 C87.8225,211.4435 99.006,200.25 112.8,200.25 L112.8,194 C95.556,194 81.578,207.9905 81.578,225.25 Z M100.311,225.25 L94.067,225.25 C94.067,214.8935 102.453,206.5 112.8,206.5 L112.8,212.75 C105.903,212.75 100.311,218.347 100.311,225.25 Z M112.8,225.25 L106.5555,225.25 C106.5555,221.797 109.35,219 112.8,219 L112.8,225.25 Z"/>
      <path fill="#FFF" d="M6.7445,281.5 L0.5,281.5 C0.5,250.4345 25.662,225.25 56.7,225.25 L56.7,231.5 C29.109,231.5 6.7445,253.8845 6.7445,281.5 Z M19.2335,281.5 L12.989,281.5 C12.989,257.3375 32.559,237.75 56.7,237.75 L56.7,244 C36.009,244 19.2335,260.7905 19.2335,281.5 Z M25.478,281.5 L31.7225,281.5 C31.7225,267.6935 42.906,256.5 56.7,256.5 L56.7,250.25 C39.456,250.25 25.478,264.2405 25.478,281.5 Z M44.211,281.5 L37.967,281.5 C37.967,271.1435 46.353,262.75 56.7,262.75 L56.7,269 C49.803,269 44.211,274.597 44.211,281.5 Z M56.7,281.5 L50.4555,281.5 C50.4555,278.047 53.25,275.25 56.7,275.25 L56.7,281.5 Z" transform="matrix(-1 0 0 1 57.2 0)"/>
      <path fill="#261EE4" fill-rule="nonzero" d="M112.8,225.25 L112.8,281.5 L169,281.5 C169,250.4345 143.838,225.25 112.8,225.25 Z" transform="rotate(-90 140.9 253.375)"/>
      <path fill="#261EE4" d="M169,164.844 L169,169.25 L164.5975,169.25 L112.8,117.4065 L112.8,113 L117.202,113 L169,164.844 Z M112.8,126.25 L112.8,135.094 L146.926,169.25 L155.7615,169.25 L112.8,126.25 Z M112.8,152.781 L112.8,143.9375 L138.09,169.25 L129.254,169.25 L112.8,152.781 Z M112.8,169.25 L120.418,169.25 L112.8,161.625 L112.8,169.25 Z M126.038,113 L134.874,113 L169,147.156 L169,156 L126.038,113 Z M152.546,113 L143.71,113 L169,138.3125 L169,129.469 L152.546,113 Z M169,120.625 L161.3815,113 L169,113 L169,120.625 Z"/>
    </g>
    <g transform="translate(1 394)">
      <path fill="#261EE4" d="M50.3525 56.5L56.6 56.5 56.6.25 50.3525.25 50.3525 56.5zM44.111 56.5L37.8665 56.5 37.8665.25 44.111.25 44.111 56.5zM31.6225 56.5L25.378 56.5 25.378.25 31.6225.25 31.6225 56.5zM12.889 56.5L19.1335 56.5 19.1335.25 12.889.25 12.889 56.5zM6.6445 56.5L.4 56.5.4.25 6.6445.25 6.6445 56.5zM112.8 119.003L112.8 112.75 56.6 112.75 56.6 119.003 112.8 119.003zM112.8 125.25L112.8 131.5 56.6 131.5 56.6 125.25 112.8 125.25zM112.8 137.75L112.8 144 56.6 144 56.6 137.75 112.8 137.75zM112.8 156.5L112.8 150.25 56.6 150.25 56.6 156.5 112.8 156.5zM112.8 162.75L112.8 169 56.6 169 56.6 162.75 112.8 162.75z"/>
      <path fill="#261EE4" d="M112.8,162.7469 L112.8,169 L56.6,169 L56.6,162.7469 L112.8,162.7469 Z M112.8,143.99375 L112.8,137.74065 L56.6,137.74065 L56.6,143.99375 L112.8,143.99375 Z M112.8,125.24065 L112.8,131.49375 L56.6,131.49375 L56.6,125.24065 L112.8,125.24065 Z M112.8,112.75 L112.8,119.00315 L56.6,119.00315 L56.6,112.75 L112.8,112.75 Z M112.8,156.49375 L112.8,150.2406 L56.6,150.2406 L56.6,156.49375 L112.8,156.49375 Z"/>
      <path fill="#FFF" d="M106.9555,56.5 L113.2,56.5 C113.2,87.5655 88.038,112.75 57,112.75 L57,106.5 C84.591,106.5 106.9555,84.1155 106.9555,56.5 Z M94.4665,56.5 L100.711,56.5 C100.711,80.6625 81.141,100.25 57,100.25 L57,94 C77.691,94 94.4665,77.2095 94.4665,56.5 Z M88.2225,56.5 L81.978,56.5 C81.978,70.306 70.794,81.5 57,81.5 L57,87.75 C74.244,87.75 88.2225,73.7595 88.2225,56.5 Z M69.489,56.5 L75.7335,56.5 C75.7335,66.856 67.347,75.25 57,75.25 L57,69 C63.897,69 69.489,63.403 69.489,56.5 Z M57,56.5 L63.2445,56.5 C63.2445,59.953 60.45,62.75 57,62.75 L57,56.5 Z" transform="rotate(-180 85.1 84.625)"/>
      <path fill="#261EE4" d="M62.8445,225.25 L56.6,225.25 C56.6,194.1845 81.762,169 112.8,169 L112.8,175.25 C85.209,175.25 62.8445,197.6345 62.8445,225.25 Z M75.3335,225.25 L69.089,225.25 C69.089,201.0875 88.659,181.5 112.8,181.5 L112.8,187.75 C92.109,187.75 75.3335,204.5405 75.3335,225.25 Z M81.578,225.25 L87.8225,225.25 C87.8225,211.4435 99.006,200.25 112.8,200.25 L112.8,194 C95.556,194 81.578,207.9905 81.578,225.25 Z M100.311,225.25 L94.067,225.25 C94.067,214.8935 102.453,206.5 112.8,206.5 L112.8,212.75 C105.903,212.75 100.311,218.347 100.311,225.25 Z M112.8,225.25 L106.5555,225.25 C106.5555,221.797 109.35,219 112.8,219 L112.8,225.25 Z"/>
      <path fill="#FFF" d="M6.7445,281.5 L0.5,281.5 C0.5,250.4345 25.662,225.25 56.7,225.25 L56.7,231.5 C29.109,231.5 6.7445,253.8845 6.7445,281.5 Z M19.2335,281.5 L12.989,281.5 C12.989,257.3375 32.559,237.75 56.7,237.75 L56.7,244 C36.009,244 19.2335,260.7905 19.2335,281.5 Z M25.478,281.5 L31.7225,281.5 C31.7225,267.6935 42.906,256.5 56.7,256.5 L56.7,250.25 C39.456,250.25 25.478,264.2405 25.478,281.5 Z M44.211,281.5 L37.967,281.5 C37.967,271.1435 46.353,262.75 56.7,262.75 L56.7,269 C49.803,269 44.211,274.597 44.211,281.5 Z M56.7,281.5 L50.4555,281.5 C50.4555,278.047 53.25,275.25 56.7,275.25 L56.7,281.5 Z" transform="matrix(-1 0 0 1 57.2 0)"/>
      <path fill="#261EE4" fill-rule="nonzero" d="M112.8,225.25 L112.8,281.5 L169,281.5 C169,250.4345 143.838,225.25 112.8,225.25 Z" transform="rotate(-90 140.9 253.375)"/>
      <path fill="#261EE4" d="M169,164.844 L169,169.25 L164.5975,169.25 L112.8,117.4065 L112.8,113 L117.202,113 L169,164.844 Z M112.8,126.25 L112.8,135.094 L146.926,169.25 L155.7615,169.25 L112.8,126.25 Z M112.8,152.781 L112.8,143.9375 L138.09,169.25 L129.254,169.25 L112.8,152.781 Z M112.8,169.25 L120.418,169.25 L112.8,161.625 L112.8,169.25 Z M126.038,113 L134.874,113 L169,147.156 L169,156 L126.038,113 Z M152.546,113 L143.71,113 L169,138.3125 L169,129.469 L152.546,113 Z M169,120.625 L161.3815,113 L169,113 L169,120.625 Z"/>
    </g>
    <path fill="#FFF" d="M276.148872 18.0030382C279.910464 18.0030382 283.201809 18.7806635 286.023003 20.3359375 288.844198 21.8912115 291.177074 23.9980336 293.021701 26.656467 294.866329 29.3149004 296.231694 32.4615704 297.117839 36.0965712 298.003983 39.731572 298.447049 43.5925722 298.447049 47.6796875 298.447049 51.8391412 298.003983 55.7091835 297.117839 59.2899306 296.231694 62.8706776 294.866329 65.9992632 293.021701 68.6757812 291.177074 71.3522993 288.844198 73.4681635 286.023003 75.0234375 283.201809 76.5787115 279.910464 77.3563368 276.148872 77.3563368 272.387279 77.3563368 269.132103 76.5606272 266.383247 74.969184 263.63439 73.3777409 261.373851 71.1714551 259.601562 68.3502604L259.601562 94.8802083 245.712674 94.8802083 245.712674 19.359375 259.601562 19.359375 259.601562 27.0091146C261.373851 24.1879199 263.625348 21.9816341 266.35612 20.390191 269.086892 18.7987478 272.351109 18.0030382 276.148872 18.0030382zM100.530382 18.0030382C103.496253 18.0030382 106.33549 18.3918509 109.048177 19.1694878 111.760864 19.9471248 114.211288 21.1678158 116.399523 22.8315972 118.587757 24.4953787 120.360019 26.6202851 121.716363 29.2063802 123.072706 31.7924753 123.913627 34.8758502 124.239149 38.4565972L110.35026 38.4565972C109.988569 34.839681 108.876384 32.3259619 107.013672 30.9153646 105.15096 29.5047673 102.809042 28.7994792 99.9878472 28.7994792 97.1666526 28.7994792 94.7252707 29.7036947 92.6636285 31.5121528 90.6019862 33.3206109 89.5711806 36.1055946 89.5711806 39.8671875L89.5711806 55.437934C89.5711806 58.9101736 90.5477333 61.6318623 92.5008681 63.6030816 94.4540028 65.5743009 96.9858062 66.5598958 100.096354 66.5598958 103.206902 66.5598958 105.657326 65.8184391 107.4477 64.3355035 109.238073 62.8525678 110.350258 60.2303429 110.784288 56.46875L124.673177 56.46875C124.311485 60.0133279 123.461523 63.0786184 122.123264 65.6647135 120.785005 68.2508086 119.039869 70.4118837 116.887804 72.1480035 114.735739 73.8841233 112.294357 75.1861936 109.563585 76.0542535 106.832813 76.9223134 103.912197 77.3563368 100.801649 77.3563368 96.5698573 77.3563368 92.8625738 76.6329644 89.6796875 75.1861979 86.4968012 73.7394314 83.8112812 71.732073 81.6230469 69.1640625 79.4348126 66.596052 77.7981825 63.5217193 76.7131076 59.9409722 75.6280328 56.3602252 75.0855035 52.381677 75.0855035 48.0052083 75.0855035 43.3393864 75.6822857 39.1528687 76.8758681 35.4455295 78.0694504 31.7381904 79.7784177 28.5915205 82.0028212 26.0054253 84.2272247 23.4193302 86.8946604 21.4390983 90.0052083 20.0646701 93.1157563 18.690242 96.6241124 18.0030382 100.530382 18.0030382zM204.968316 18.0030382C209.200108 18.0030382 212.961644 18.7083263 216.253038 20.1189236 219.544432 21.5295209 222.320374 23.5459215 224.580946 26.1681858 226.841519 28.79045 228.559528 31.9190356 229.735026 35.5540365 230.910524 39.1890373 231.498264 43.2308805 231.498264 47.6796875 231.498264 52.1284945 230.910524 56.1612956 229.735026 59.7782118 228.559528 63.395128 226.841519 66.5237137 224.580946 69.1640625 222.320374 71.8044113 219.544432 73.8298541 216.253038 75.2404514 212.961644 76.6510487 209.200108 77.3563368 204.968316 77.3563368 200.736524 77.3563368 196.974988 76.6510487 193.683594 75.2404514 190.3922 73.8298541 187.616258 71.8044113 185.355686 69.1640625 183.095113 66.5237137 181.368062 63.395128 180.174479 59.7782118 178.980897 56.1612956 178.384115 52.1284945 178.384115 47.6796875 178.384115 43.2308805 178.980897 39.1890373 180.174479 35.5540365 181.368062 31.9190356 183.095113 28.79045 185.355686 26.1681858 187.616258 23.5459215 190.3922 21.5295209 193.683594 20.1189236 196.974988 18.7083263 200.736524 18.0030382 204.968316 18.0030382zM336.424479 18.0030382C340.656271 18.0030382 344.417808 18.7083263 347.709201 20.1189236 351.000595 21.5295209 353.776537 23.5459215 356.037109 26.1681858 358.297682 28.79045 360.015691 31.9190356 361.191189 35.5540365 362.366687 39.1890373 362.954427 43.2308805 362.954427 47.6796875 362.954427 52.1284945 362.366687 56.1612956 361.191189 59.7782118 360.015691 63.395128 358.297682 66.5237137 356.037109 69.1640625 353.776537 71.8044113 351.000595 73.8298541 347.709201 75.2404514 344.417808 76.6510487 340.656271 77.3563368 336.424479 77.3563368 332.192687 77.3563368 328.431151 76.6510487 325.139757 75.2404514 321.848363 73.8298541 319.072422 71.8044113 316.811849 69.1640625 314.551276 66.5237137 312.824225 63.395128 311.630642 59.7782118 310.43706 56.1612956 309.840278 52.1284945 309.840278 47.6796875 309.840278 43.2308805 310.43706 39.1890373 311.630642 35.5540365 312.824225 31.9190356 314.551276 28.79045 316.811849 26.1681858 319.072422 23.5459215 321.848363 21.5295209 325.139757 20.1189236 328.431151 18.7083263 332.192687 18.0030382 336.424479 18.0030382zM458.766059 18.0030382C465.20417 18.0030382 470.484788 19.5582888 474.608073 22.6688368 478.731357 25.7793848 480.937643 30.4813053 481.226997 36.7747396L467.338108 36.7747396C467.193431 34.0982216 466.343468 32.0999053 464.788194 30.7797309 463.23292 29.4595565 461.225562 28.7994792 458.766059 28.7994792 456.378894 28.7994792 454.434831 29.314882 452.933811 30.3457031 451.432791 31.3765243 450.682292 32.8142269 450.682292 34.6588542 450.682292 36.5034814 451.251947 37.8688468 452.391276 38.7549913 453.530605 39.6411358 455.02256 40.2831288 456.867187 40.6809896L468.097656 43.1223958C470.159299 43.5564258 472.121446 44.1984188 473.984158 45.0483941 475.84687 45.8983694 477.447331 46.9924702 478.78559 48.3307292 480.123849 49.6689882 481.181781 51.2604074 481.959418 53.1050347 482.737055 54.949662 483.125868 57.1378635 483.125868 59.6697049 483.125868 62.1292079 482.601423 64.4259153 481.552517 66.5598958 480.503612 68.6938764 478.98453 70.5565603 476.995226 72.1480035 475.005922 73.7394466 472.546456 75.0053483 469.616753 75.9457465 466.687051 76.8861447 463.341454 77.3563368 459.579861 77.3563368 452.020506 77.3563368 446.179274 75.6835381 442.05599 72.3378906 437.932705 68.9922431 435.726419 64.2089431 435.437066 57.9878472L449.325955 57.9878472C449.904661 63.7025749 453.322596 66.5598958 459.579861 66.5598958 462.256379 66.5598958 464.535002 66.0625773 466.415799 65.0679253 468.296595 64.0732734 469.236979 62.4908963 469.236979 60.3207465 469.236979 58.2591043 468.459354 56.7671487 466.90408 55.8448351 465.348806 54.9225214 463.305279 54.1901069 460.773437 53.6475694L451.007812 51.531684C441.531492 49.4700418 436.793403 44.0628331 436.793403 35.3098958 436.793403 32.8503928 437.290721 30.5717697 438.285373 28.4739583 439.280025 26.3761469 440.717728 24.5496316 442.598524 22.9943576 444.479321 21.4390837 446.776028 20.2183927 449.488715 19.3322483 452.201402 18.4461038 455.293819 18.0030382 458.766059 18.0030382zM41.5026042.424913194L67.1644965 76 51.59375 76 46.6024306 59.8867188 20.8320312 59.8867188 15.9492188 76 .378472222 76 26.1488715.424913194 41.5026042.424913194zM169.974826 19.359375L169.974826 30.2100694 152.233941 30.2100694 152.233941 76 138.345052 76 138.345052 19.359375 169.974826 19.359375zM391.057726.424913194L391.057726 76 377.168837 76 377.168837.424913194 391.057726.424913194zM422.036458 19.359375L422.036458 76 408.147569 76 408.147569 19.359375 422.036458 19.359375zM204.968316 28.7994792C201.496076 28.7994792 198.611629 29.721779 196.314887 31.5664063 194.018145 33.4110335 192.869792 36.0332585 192.869792 39.4331597L192.869792 55.8719618C192.869792 59.2718631 194.018145 61.9031302 196.314887 63.765842 198.611629 65.6285539 201.496076 66.5598958 204.968316 66.5598958 208.440556 66.5598958 211.325003 65.6556803 213.621745 63.8472222 215.918487 62.0387641 217.06684 59.3803706 217.06684 55.8719618L217.06684 39.4331597C217.06684 35.9609201 215.918487 33.3206109 213.621745 31.5121528 211.325003 29.7036947 208.440556 28.7994792 204.968316 28.7994792zM272.351128 28.7994792C267.902322 28.7994792 264.66523 30.1286759 262.639757 32.7871094 260.614284 35.4455428 259.601562 38.9991097 259.601562 43.4479167L259.601562 51.9114583C259.601562 56.3602653 260.614284 59.9138322 262.639757 62.5722656 264.66523 65.2306991 267.902322 66.5598958 272.351128 66.5598958 275.968045 66.5598958 278.816324 65.5743009 280.89605 63.6030816 282.975777 61.6318623 284.015625 58.9825109 284.015625 55.6549479L284.015625 39.6501736C284.015625 36.3226107 282.984819 33.6823014 280.923177 31.7291667 278.861535 29.7760319 276.004214 28.7994792 272.351128 28.7994792zM336.424479 28.7994792C332.95224 28.7994792 330.067792 29.721779 327.77105 31.5664063 325.474309 33.4110335 324.325955 36.0332585 324.325955 39.4331597L324.325955 55.8719618C324.325955 59.2718631 325.474309 61.9031302 327.77105 63.765842 330.067792 65.6285539 332.95224 66.5598958 336.424479 66.5598958 339.896719 66.5598958 342.781166 65.6556803 345.077908 63.8472222 347.37465 62.0387641 348.523003 59.3803706 348.523003 55.8719618L348.523003 39.4331597C348.523003 35.9609201 347.37465 33.3206109 345.077908 31.5121528 342.781166 29.7036947 339.896719 28.7994792 336.424479 28.7994792zM34.1783854 17.8945312L33.6901042 17.8945312 24.5755208 47.6796875 42.9131944 47.6796875 34.1783854 17.8945312zM422.253472.424913194L422.253472 12.7947049 407.930556 12.7947049 407.930556.424913194 422.253472.424913194zM136.867188 125.118924C139.153079 125.118924 141.109801 125.495077 142.737413 126.247396 144.365025 126.999714 145.703264 128.066689 146.75217 129.448351 147.801076 130.830013 148.578701 132.490152 149.085069 134.428819 149.591438 136.367487 149.844618 138.523136 149.844618 140.895833 149.844618 143.26853 149.591438 145.42418 149.085069 147.362847 148.578701 149.301514 147.801076 150.958037 146.75217 152.332465 145.703264 153.706893 144.365025 154.773868 142.737413 155.53342 141.109801 156.292973 139.153079 156.672743 136.867188 156.672743 134.581296 156.672743 132.624574 156.292973 130.996962 155.53342 129.36935 154.773868 128.031111 153.706893 126.982205 152.332465 125.933299 150.958037 125.155674 149.301514 124.649306 147.362847 124.142937 145.42418 123.889757 143.26853 123.889757 140.895833 123.889757 138.523136 124.142937 136.367487 124.649306 134.428819 125.155674 132.490152 125.933299 130.830013 126.982205 129.448351 128.031111 128.066689 129.36935 126.999714 130.996962 126.247396 132.624574 125.495077 134.581296 125.118924 136.867188 125.118924zM348.651042 125.769965L348.651042 145.561632C348.651042 147.876458 349.265908 149.692123 350.49566 151.008681 351.725411 152.325238 353.49044 152.983507 355.790799 152.983507 358.105625 152.983507 359.885121 152.321621 361.12934 150.99783 362.373559 149.674039 362.99566 147.861991 362.99566 145.561632L362.99566 125.769965 367.184028 125.769965 367.184028 145.236111C367.184028 147.015634 366.91638 148.61067 366.381076 150.021267 365.845773 151.431865 365.082615 152.625429 364.09158 153.601997 363.100545 154.578564 361.899747 155.334488 360.489149 155.869792 359.078552 156.405095 357.512451 156.672743 355.790799 156.672743 354.069146 156.672743 352.506662 156.405095 351.103299 155.869792 349.699935 155.334488 348.502754 154.578564 347.511719 153.601997 346.520684 152.625429 345.757526 151.431865 345.222222 150.021267 344.686919 148.61067 344.419271 147.015634 344.419271 145.236111L344.419271 125.769965 348.651042 125.769965zM324.931424 125.118924C327.217315 125.118924 329.174037 125.495077 330.801649 126.247396 332.429262 126.999714 333.767501 128.066689 334.816406 129.448351 335.865312 130.830013 336.642937 132.490152 337.149306 134.428819 337.655674 136.367487 337.908854 138.523136 337.908854 140.895833 337.908854 143.26853 337.655674 145.42418 337.149306 147.362847 336.642937 149.301514 335.865312 150.958037 334.816406 152.332465 333.767501 153.706893 332.429262 154.773868 330.801649 155.53342 329.174037 156.292973 327.217315 156.672743 324.931424 156.672743 322.645533 156.672743 320.68881 156.292973 319.061198 155.53342 317.433586 154.773868 316.095347 153.706893 315.046441 152.332465 313.997535 150.958037 313.21991 149.301514 312.713542 147.362847 312.207173 145.42418 311.953993 143.26853 311.953993 140.895833 311.953993 138.523136 312.207173 136.367487 312.713542 134.428819 313.21991 132.490152 313.997535 130.830013 315.046441 129.448351 316.095347 128.066689 317.433586 126.999714 319.061198 126.247396 320.68881 125.495077 322.645533 125.118924 324.931424 125.118924zM417.053819 125.118924C418.500586 125.118924 419.856909 125.332318 421.12283 125.759115 422.388751 126.185911 423.49551 126.800777 424.443142 127.603733 425.390774 128.406688 426.153932 129.376007 426.732639 130.511719 427.311345 131.64743 427.644097 132.931416 427.730903 134.363715L423.499132 134.363715C423.296585 132.584192 422.602147 131.213402 421.415799 130.251302 420.22945 129.289202 418.645265 128.80816 416.663194 128.80816 415.592587 128.80816 414.605184 128.99262 413.700955 129.361545 412.796726 129.730471 412.011867 130.240448 411.346354 130.891493 410.680842 131.542538 410.16363 132.320163 409.794705 133.224392 409.425779 134.128621 409.241319 135.130492 409.241319 136.230035L409.241319 145.561632C409.241319 146.632239 409.440247 147.616026 409.838108 148.513021 410.235968 149.410016 410.785731 150.194875 411.487413 150.867622 412.189095 151.540368 413.006506 152.061196 413.93967 152.430122 414.872835 152.799047 415.867472 152.983507 416.923611 152.983507 418.934617 152.983507 420.565821 152.531399 421.817274 151.62717 423.068727 150.722941 423.795717 149.243645 423.998264 147.189236L428.208333 147.189236C428.121527 148.607067 427.774309 149.905521 427.166667 151.084635 426.559025 152.26375 425.759698 153.258387 424.768663 154.068576 423.777628 154.878766 422.612999 155.515333 421.27474 155.978299 419.936481 156.441264 418.500586 156.672743 416.967014 156.672743 414.956008 156.672743 413.180129 156.30744 411.639323 155.576823 410.098517 154.846206 408.810914 153.800933 407.776476 152.440972 406.742038 151.081012 405.949945 149.453424 405.400174 147.55816 404.850402 145.662896 404.575521 143.528947 404.575521 141.15625 404.575521 138.696747 404.828701 136.475994 405.335069 134.493924 405.841438 132.511854 406.611829 130.822779 407.646267 129.426649 408.680705 128.03052 409.982776 126.963545 411.552517 126.225694 413.122259 125.487844 414.956008 125.118924 417.053819 125.118924zM381.029514 125.769965L393.507813 150.878472 393.703125 150.878472 393.703125 125.769965 397.782986 125.769965 397.782986 156 391.836806 156 379.336806 130.761285 379.163194 130.761285 379.163194 156 375.061632 156 375.061632 125.769965 381.029514 125.769965zM235.803819 125.769965L246.28559 156 241.836806 156 239.362847 148.534722 227.492188 148.534722 224.996528 156 220.634549 156 231.094618 125.769965 235.803819 125.769965zM206.289931 125.769965L193.529514 139.875868 207.396701 156 202.253472 156 188.603299 139.875868 201.146701 125.769965 206.289931 125.769965zM78.9027778 125.769965L78.9027778 129.546007 69.875 129.546007 69.875 156 65.6649306 156 65.6649306 129.546007 56.6371528 129.546007 56.6371528 125.769965 78.9027778 125.769965zM288.407986 125.769965L300.886285 150.878472 301.081597 150.878472 301.081597 125.769965 305.161458 125.769965 305.161458 156 299.215278 156 286.715278 130.761285 286.541667 130.761285 286.541667 156 282.440104 156 282.440104 125.769965 288.407986 125.769965zM86.1293403 125.769965L92.0321181 151.247396 92.2057292 151.247396 98.1302083 125.769965 102.83941 125.769965 108.742188 151.247396 108.915799 151.247396 114.840278 125.769965 119.332465 125.769965 111.498264 156 106.224826 156 100.560764 131.694444 100.387153 131.694444 94.7447917 156 89.4496528 156 81.6371528 125.769965 86.1293403 125.769965zM53.1432292 125.769965L53.1432292 129.546007 37.3229167 129.546007 37.3229167 138.703993 51.1032986 138.703993 51.1032986 142.480035 37.3229167 142.480035 37.3229167 152.223958 53.1432292 152.223958 53.1432292 156 33.0911458 156 33.0911458 125.769965 53.1432292 125.769965zM168.008681 125.769965C169.585656 125.769965 170.978148 125.950808 172.186198 126.3125 173.394248 126.674192 174.396119 127.223955 175.19184 127.961806 175.987562 128.699656 176.56626 129.607489 176.927951 130.68533 177.289643 131.763171 177.470486 133.018222 177.470486 134.450521 177.470486 135.781546 177.300494 136.985961 176.960503 138.063802 176.620513 139.141643 176.067133 140.071177 175.300347 140.852431 174.707173 141.445605 174.016352 141.933881 173.227865 142.317274 172.439377 142.700667 171.451974 142.964698 170.265625 143.109375L177.730903 156 172.891493 156 165.81684 143.239583 160.847222 143.239583 160.847222 156 156.615451 156 156.615451 125.769965 168.008681 125.769965zM470.981771 125.769965C475.539085 125.769965 478.84128 127.0214 480.888455 129.524306 482.935629 132.027212 483.959201 135.817683 483.959201 140.895833 483.959201 145.959516 482.935629 149.742754 480.888455 152.24566 478.84128 154.748566 475.539085 156 470.981771 156L461.194444 156 461.194444 125.769965 470.981771 125.769965zM188.516493 125.769965L188.516493 156 184.284722 156 184.284722 125.769965 188.516493 125.769965zM257.52691 125.769965L270.005208 150.878472 270.200521 150.878472 270.200521 125.769965 274.280382 125.769965 274.280382 156 268.334201 156 255.834201 130.761285 255.66059 130.761285 255.66059 156 251.559028 156 251.559028 125.769965 257.52691 125.769965zM8.17795139 125.769965L20.65625 150.878472 20.8515625 150.878472 20.8515625 125.769965 24.9314236 125.769965 24.9314236 156 18.9852431 156 6.48524306 130.761285 6.31163194 130.761285 6.31163194 156 2.21006944 156 2.21006944 125.769965 8.17795139 125.769965zM454.510417 125.769965L454.510417 129.546007 438.690104 129.546007 438.690104 138.703993 452.470486 138.703993 452.470486 142.480035 438.690104 142.480035 438.690104 152.223958 454.510417 152.223958 454.510417 156 434.458333 156 434.458333 125.769965 454.510417 125.769965zM136.867188 128.80816C135.709774 128.80816 134.628333 128.978152 133.62283 129.318142 132.617327 129.658132 131.734813 130.153643 130.97526 130.804688 130.215708 131.455732 129.622543 132.233358 129.195747 133.137587 128.76895 134.041816 128.555556 135.072622 128.555556 136.230035L128.555556 145.561632C128.555556 146.719045 128.76895 147.749851 129.195747 148.65408 129.622543 149.558309 130.215708 150.335934 130.97526 150.986979 131.734813 151.638024 132.617327 152.133534 133.62283 152.473524 134.628333 152.813514 135.709774 152.983507 136.867188 152.983507 138.024601 152.983507 139.106042 152.813514 140.111545 152.473524 141.117048 152.133534 141.999562 151.638024 142.759115 150.986979 143.518667 150.335934 144.111832 149.558309 144.538628 148.65408 144.965425 147.749851 145.178819 146.719045 145.178819 145.561632L145.178819 136.230035C145.178819 135.072622 144.965425 134.041816 144.538628 133.137587 144.111832 132.233358 143.518667 131.455732 142.759115 130.804688 141.999562 130.153643 141.117048 129.658132 140.111545 129.318142 139.106042 128.978152 138.024601 128.80816 136.867188 128.80816zM324.931424 128.80816C323.77401 128.80816 322.692569 128.978152 321.687066 129.318142 320.681563 129.658132 319.799049 130.153643 319.039497 130.804688 318.279944 131.455732 317.686779 132.233358 317.259983 133.137587 316.833187 134.041816 316.619792 135.072622 316.619792 136.230035L316.619792 145.561632C316.619792 146.719045 316.833187 147.749851 317.259983 148.65408 317.686779 149.558309 318.279944 150.335934 319.039497 150.986979 319.799049 151.638024 320.681563 152.133534 321.687066 152.473524 322.692569 152.813514 323.77401 152.983507 324.931424 152.983507 326.088837 152.983507 327.170279 152.813514 328.175781 152.473524 329.181284 152.133534 330.063798 151.638024 330.823351 150.986979 331.582903 150.335934 332.176068 149.558309 332.602865 148.65408 333.029661 147.749851 333.243056 146.719045 333.243056 145.561632L333.243056 136.230035C333.243056 135.072622 333.029661 134.041816 332.602865 133.137587 332.176068 132.233358 331.582903 131.455732 330.823351 130.804688 330.063798 130.153643 329.181284 129.658132 328.175781 129.318142 327.170279 128.978152 326.088837 128.80816 324.931424 128.80816zM470.981771 129.546007L465.426215 129.546007 465.426215 152.223958 470.981771 152.223958C473.831901 152.223958 475.929681 151.630793 477.275174 150.444444 478.620666 149.258096 479.293403 147.550937 479.293403 145.322917L479.293403 136.447049C479.293403 134.219028 478.620666 132.511869 477.275174 131.325521 475.929681 130.139172 473.831901 129.546007 470.981771 129.546007zM233.525174 130.479167L233.351563 130.479167 228.598958 145.0625 238.234375 145.0625 233.525174 130.479167zM169.549479 129.546007L160.847222 129.546007 160.847222 139.637153 169.549479 139.637153C170.677957 139.637153 171.53877 139.297168 172.131944 138.617188 172.725119 137.937207 173.021701 137.12703 173.021701 136.186632L173.021701 132.844618C173.021701 131.802946 172.710651 130.992769 172.088542 130.414062 171.466432 129.835356 170.620086 129.546007 169.549479 129.546007z" transform="translate(357 250)"/>
  </g>
</svg>
