<svg xmlns="http://www.w3.org/2000/svg" width="1200" height="675" viewBox="0 0 1200 675">
  <g fill="none" fill-rule="evenodd">
    <path fill="#000" d="M0 0H1200V675H0z"/>
    <path fill="#4038FF" d="M1124.86821,113.104014 L1087.38521,113.104014 L1087.38521,150.521192 L1124.86821,150.521192 L1124.86821,188.031351 L1087.38521,188.031351 L1087.38521,225.541509 L1124.86821,225.541509 L1124.86821,262.958687 L1162.44444,262.958687 L1162.44444,300.468846 L1124.86821,300.468846 L1124.86821,263.051668 L1087.38521,263.051668 L1087.38521,300.468846 L1124.86821,300.468846 L1124.86821,338 L1087.29198,338 L1087.29198,300.489841 L1049.80898,300.489841 L1049.80898,263.072663 L1012.23275,263.072663 L1012.23275,300.489841 L974.656517,300.489841 L974.656517,263.072663 L937.173513,263.072663 L937.173513,300.489841 L974.656517,300.489841 L974.656517,338 L937.077279,338 L937.077279,300.489841 L899.597282,300.489841 L899.597282,338 L862,338 L862,300.489841 L899.576231,300.489841 L899.576231,263.072663 L862,263.072663 L862,225.559506 L899.576231,225.559506 L899.576231,188.049347 L862,188.049347 L862,150.539188 L899.576231,150.539188 L899.576231,113.12201 L899.576231,113.02903 L937.059235,113.02903 L937.059235,75.6118519 L974.635466,75.6118519 L974.635466,113.02903 L1012.2117,113.02903 L1012.2117,75.6118519 L1049.79093,75.6118519 L1049.79093,113.02903 L1087.27394,113.02903 L1087.27394,75.6118519 L1124.85017,75.6118519 L1124.85017,113.02903 L1162.4264,113.02903 L1162.4264,150.539188 L1124.85017,150.539188 L1124.85017,113.104014 L1124.86821,113.104014 Z M900.056296,113.074322 L900.056296,75.6118519 L862.500741,75.6118519 L862.500741,113.167407 L900.056296,113.167407 L900.056296,113.074322 Z M1012.72296,300.444444 L1012.72296,338 L1050.27852,338 L1050.27852,300.444444 L1012.72296,300.444444 Z M1124.88889,225.333333 L1124.88889,187.777778 L1162.44444,187.777778 L1162.44444,225.333333 L1124.88889,225.333333 Z M937.611852,262.388148 L900.056296,262.388148 L900.056296,224.832593 L937.611852,224.832593 L937.611852,262.388148 Z M937.156975,74.6103704 L937.156975,37.3051852 L974.642231,37.3051852 L974.642231,74.6103704 L1012.22072,74.6103704 L1012.22072,37.3051852 L1049.80221,37.3051852 L1049.80221,74.6103704 L1087.3807,74.6103704 L1087.3807,37.3051852 L1124.86596,37.3051852 L1124.86596,74.6103704 L1162.44444,74.6103704 L1162.44444,37.3051852 L1124.86596,37.3051852 L1124.86596,0 L1087.28747,0 L1087.28747,37.3051852 L1049.80221,37.3051852 L1049.80221,0 L1012.22072,0 L1012.22072,37.3051852 L974.642231,37.3051852 L974.642231,0 L937.063743,0 L937.063743,37.3051852 L899.578488,37.3051852 L899.578488,0 L862,0 L862,37.3051852 L899.578488,37.3051852 L899.578488,74.6103704 L937.156975,74.6103704 Z M1087.83407,150.222222 L1087.83407,187.777778 L1050.27852,187.777778 L1050.27852,150.222222 L1087.83407,150.222222 Z M1012.72296,150.222222 L1012.72296,112.666667 L1050.27852,112.666667 L1050.27852,150.222222 L1012.72296,150.222222 Z M974.666667,150.222222 L1012.22222,150.222222 L1012.22222,187.777778 L974.666667,187.777778 L974.666667,150.222222 Z M975.167407,150.222222 L937.611852,150.222222 L937.611852,112.666667 L975.167407,112.666667 L975.167407,150.222222 Z M975.167407,225.333333 L937.611852,225.333333 L937.611852,187.777778 L975.167407,187.777778 L975.167407,225.333333 Z M1012.22222,224.832593 L1012.22222,262.388148 L974.666667,262.388148 L974.666667,224.832593 L1012.22222,224.832593 Z M1050.27852,225.333333 L1012.72296,225.333333 L1012.72296,187.777778 L1050.27852,187.777778 L1050.27852,225.333333 Z M1050.27852,224.832593 L1087.83407,224.832593 L1087.83407,262.388148 L1050.27852,262.388148 L1050.27852,224.832593 Z M937.611852,187.777778 L937.611852,150.222222 L900.056296,150.222222 L900.056296,187.777778 L937.611852,187.777778 Z M1200,300.444444 L1162.44444,300.444444 L1162.44444,338 L1200,338 L1200,300.444444 Z M1162.44444,225.834074 L1200,225.834074 L1200,263.38963 L1162.44444,263.38963 L1162.44444,225.834074 Z M1200,150.222222 L1162.44444,150.222222 L1162.44444,187.777778 L1200,187.777778 L1200,150.222222 Z M1162.44444,75.6118519 L1200,75.6118519 L1200,113.167407 L1162.44444,113.167407 L1162.44444,75.6118519 Z M1162.44444,0 L1200,0 L1200,37.5555556 L1162.44444,37.5555556 L1162.44444,0 Z"/>
    <path fill="#4038FF" d="M1124.86821,414.104014 L1087.38521,414.104014 L1087.38521,451.521192 L1124.86821,451.521192 L1124.86821,489.031351 L1087.38521,489.031351 L1087.38521,526.541509 L1124.86821,526.541509 L1124.86821,563.958687 L1162.44444,563.958687 L1162.44444,601.468846 L1124.86821,601.468846 L1124.86821,564.051668 L1087.38521,564.051668 L1087.38521,601.468846 L1124.86821,601.468846 L1124.86821,639 L1087.29198,639 L1087.29198,601.489841 L1049.80898,601.489841 L1049.80898,564.072663 L1012.23275,564.072663 L1012.23275,601.489841 L974.656517,601.489841 L974.656517,564.072663 L937.173513,564.072663 L937.173513,601.489841 L974.656517,601.489841 L974.656517,639 L937.077279,639 L937.077279,601.489841 L899.597282,601.489841 L899.597282,639 L862,639 L862,601.489841 L899.576231,601.489841 L899.576231,564.072663 L862,564.072663 L862,526.559506 L899.576231,526.559506 L899.576231,489.049347 L862,489.049347 L862,451.539188 L899.576231,451.539188 L899.576231,414.12201 L899.576231,414.02903 L937.059235,414.02903 L937.059235,376.611852 L974.635466,376.611852 L974.635466,414.02903 L1012.2117,414.02903 L1012.2117,376.611852 L1049.79093,376.611852 L1049.79093,414.02903 L1087.27394,414.02903 L1087.27394,376.611852 L1124.85017,376.611852 L1124.85017,414.02903 L1162.4264,414.02903 L1162.4264,451.539188 L1124.85017,451.539188 L1124.85017,414.104014 L1124.86821,414.104014 Z M900.056296,414.074322 L900.056296,376.611852 L862.500741,376.611852 L862.500741,414.167407 L900.056296,414.167407 L900.056296,414.074322 Z M1012.72296,601.444444 L1012.72296,639 L1050.27852,639 L1050.27852,601.444444 L1012.72296,601.444444 Z M1124.88889,526.333333 L1124.88889,488.777778 L1162.44444,488.777778 L1162.44444,526.333333 L1124.88889,526.333333 Z M937.611852,563.388148 L900.056296,563.388148 L900.056296,525.832593 L937.611852,525.832593 L937.611852,563.388148 Z M937.156975,375.61037 L937.156975,338.305185 L974.642231,338.305185 L974.642231,375.61037 L1012.22072,375.61037 L1012.22072,338.305185 L1049.80221,338.305185 L1049.80221,375.61037 L1087.3807,375.61037 L1087.3807,338.305185 L1124.86596,338.305185 L1124.86596,375.61037 L1162.44444,375.61037 L1162.44444,338.305185 L1124.86596,338.305185 L1124.86596,301 L1087.28747,301 L1087.28747,338.305185 L1049.80221,338.305185 L1049.80221,301 L1012.22072,301 L1012.22072,338.305185 L974.642231,338.305185 L974.642231,301 L937.063743,301 L937.063743,338.305185 L899.578488,338.305185 L899.578488,301 L862,301 L862,338.305185 L899.578488,338.305185 L899.578488,375.61037 L937.156975,375.61037 Z M1087.83407,451.222222 L1087.83407,488.777778 L1050.27852,488.777778 L1050.27852,451.222222 L1087.83407,451.222222 Z M1012.72296,451.222222 L1012.72296,413.666667 L1050.27852,413.666667 L1050.27852,451.222222 L1012.72296,451.222222 Z M974.666667,451.222222 L1012.22222,451.222222 L1012.22222,488.777778 L974.666667,488.777778 L974.666667,451.222222 Z M975.167407,451.222222 L937.611852,451.222222 L937.611852,413.666667 L975.167407,413.666667 L975.167407,451.222222 Z M975.167407,526.333333 L937.611852,526.333333 L937.611852,488.777778 L975.167407,488.777778 L975.167407,526.333333 Z M1012.22222,525.832593 L1012.22222,563.388148 L974.666667,563.388148 L974.666667,525.832593 L1012.22222,525.832593 Z M1050.27852,526.333333 L1012.72296,526.333333 L1012.72296,488.777778 L1050.27852,488.777778 L1050.27852,526.333333 Z M1050.27852,525.832593 L1087.83407,525.832593 L1087.83407,563.388148 L1050.27852,563.388148 L1050.27852,525.832593 Z M937.611852,488.777778 L937.611852,451.222222 L900.056296,451.222222 L900.056296,488.777778 L937.611852,488.777778 Z M1200,601.444444 L1162.44444,601.444444 L1162.44444,639 L1200,639 L1200,601.444444 Z M1162.44444,526.834074 L1200,526.834074 L1200,564.38963 L1162.44444,564.38963 L1162.44444,526.834074 Z M1200,451.222222 L1162.44444,451.222222 L1162.44444,488.777778 L1200,488.777778 L1200,451.222222 Z M1162.44444,376.611852 L1200,376.611852 L1200,414.167407 L1162.44444,414.167407 L1162.44444,376.611852 Z M1162.44444,301 L1200,301 L1200,338.555556 L1162.44444,338.555556 L1162.44444,301 Z"/>
    <path fill="#4038FF" d="M1124.86821,714.104014 L1087.38521,714.104014 L1087.38521,751.521192 L1124.86821,751.521192 L1124.86821,789.031351 L1087.38521,789.031351 L1087.38521,826.541509 L1124.86821,826.541509 L1124.86821,863.958687 L1162.44444,863.958687 L1162.44444,901.468846 L1124.86821,901.468846 L1124.86821,864.051668 L1087.38521,864.051668 L1087.38521,901.468846 L1124.86821,901.468846 L1124.86821,939 L1087.29198,939 L1087.29198,901.489841 L1049.80898,901.489841 L1049.80898,864.072663 L1012.23275,864.072663 L1012.23275,901.489841 L974.656517,901.489841 L974.656517,864.072663 L937.173513,864.072663 L937.173513,901.489841 L974.656517,901.489841 L974.656517,939 L937.077279,939 L937.077279,901.489841 L899.597282,901.489841 L899.597282,939 L862,939 L862,901.489841 L899.576231,901.489841 L899.576231,864.072663 L862,864.072663 L862,826.559506 L899.576231,826.559506 L899.576231,789.049347 L862,789.049347 L862,751.539188 L899.576231,751.539188 L899.576231,714.12201 L899.576231,714.02903 L937.059235,714.02903 L937.059235,676.611852 L974.635466,676.611852 L974.635466,714.02903 L1012.2117,714.02903 L1012.2117,676.611852 L1049.79093,676.611852 L1049.79093,714.02903 L1087.27394,714.02903 L1087.27394,676.611852 L1124.85017,676.611852 L1124.85017,714.02903 L1162.4264,714.02903 L1162.4264,751.539188 L1124.85017,751.539188 L1124.85017,714.104014 L1124.86821,714.104014 Z M900.056296,714.074322 L900.056296,676.611852 L862.500741,676.611852 L862.500741,714.167407 L900.056296,714.167407 L900.056296,714.074322 Z M1012.72296,901.444444 L1012.72296,939 L1050.27852,939 L1050.27852,901.444444 L1012.72296,901.444444 Z M1124.88889,826.333333 L1124.88889,788.777778 L1162.44444,788.777778 L1162.44444,826.333333 L1124.88889,826.333333 Z M937.611852,863.388148 L900.056296,863.388148 L900.056296,825.832593 L937.611852,825.832593 L937.611852,863.388148 Z M937.156975,675.61037 L937.156975,638.305185 L974.642231,638.305185 L974.642231,675.61037 L1012.22072,675.61037 L1012.22072,638.305185 L1049.80221,638.305185 L1049.80221,675.61037 L1087.3807,675.61037 L1087.3807,638.305185 L1124.86596,638.305185 L1124.86596,675.61037 L1162.44444,675.61037 L1162.44444,638.305185 L1124.86596,638.305185 L1124.86596,601 L1087.28747,601 L1087.28747,638.305185 L1049.80221,638.305185 L1049.80221,601 L1012.22072,601 L1012.22072,638.305185 L974.642231,638.305185 L974.642231,601 L937.063743,601 L937.063743,638.305185 L899.578488,638.305185 L899.578488,601 L862,601 L862,638.305185 L899.578488,638.305185 L899.578488,675.61037 L937.156975,675.61037 Z M1087.83407,751.222222 L1087.83407,788.777778 L1050.27852,788.777778 L1050.27852,751.222222 L1087.83407,751.222222 Z M1012.72296,751.222222 L1012.72296,713.666667 L1050.27852,713.666667 L1050.27852,751.222222 L1012.72296,751.222222 Z M974.666667,751.222222 L1012.22222,751.222222 L1012.22222,788.777778 L974.666667,788.777778 L974.666667,751.222222 Z M975.167407,751.222222 L937.611852,751.222222 L937.611852,713.666667 L975.167407,713.666667 L975.167407,751.222222 Z M975.167407,826.333333 L937.611852,826.333333 L937.611852,788.777778 L975.167407,788.777778 L975.167407,826.333333 Z M1012.22222,825.832593 L1012.22222,863.388148 L974.666667,863.388148 L974.666667,825.832593 L1012.22222,825.832593 Z M1050.27852,826.333333 L1012.72296,826.333333 L1012.72296,788.777778 L1050.27852,788.777778 L1050.27852,826.333333 Z M1050.27852,825.832593 L1087.83407,825.832593 L1087.83407,863.388148 L1050.27852,863.388148 L1050.27852,825.832593 Z M937.611852,788.777778 L937.611852,751.222222 L900.056296,751.222222 L900.056296,788.777778 L937.611852,788.777778 Z M1200,901.444444 L1162.44444,901.444444 L1162.44444,939 L1200,939 L1200,901.444444 Z M1162.44444,826.834074 L1200,826.834074 L1200,864.38963 L1162.44444,864.38963 L1162.44444,826.834074 Z M1200,751.222222 L1162.44444,751.222222 L1162.44444,788.777778 L1200,788.777778 L1200,751.222222 Z M1162.44444,676.611852 L1200,676.611852 L1200,714.167407 L1162.44444,714.167407 L1162.44444,676.611852 Z M1162.44444,601 L1200,601 L1200,638.555556 L1162.44444,638.555556 L1162.44444,601 Z"/>
    <g fill-rule="nonzero" transform="translate(120 120)">
      <path fill="#FFF" d="M41.36675,36.3 L41.36675,33.1 L46.4,33.1 L46.4,12.7 L49.93325,12.7 L49.93325,33.36675 C49.93325,34.96675 48.63325,36.3 47,36.3 L41.36675,36.3 Z M54.53325,27.66675 C52.83325,25.96675 51.96675,23.83325 51.96675,21.3 C51.96675,18.76675 52.83325,16.63325 54.53325,14.93325 C56.23325,13.23325 58.36675,12.36675 60.9,12.36675 C63.43325,12.36675 65.53325,13.23325 67.26675,14.93325 C68.96675,16.63325 69.83325,18.76675 69.83325,21.3 C69.83325,23.83325 68.96675,25.96675 67.26675,27.66675 C65.56675,29.36675 63.43325,30.23325 60.9,30.23325 C58.33325,30.23325 56.23325,29.36675 54.53325,27.66675 Z M57.1,17.1 C56.13325,18.13325 55.66675,19.53325 55.66675,21.26675 C55.66675,23 56.13325,24.4 57.1,25.43325 C58.06675,26.46675 59.33325,27 60.86675,27 C62.4,27 63.66675,26.46675 64.63325,25.43325 C65.6,24.4 66.06675,23 66.06675,21.26675 C66.06675,19.53325 65.6,18.13325 64.63325,17.1 C63.66675,16.06675 62.4,15.53325 60.86675,15.53325 C59.33325,15.56675 58.06675,16.06675 57.1,17.1 Z M70.1,12.7 L73.8,12.7 L77.5,26.53325 L79.33325,26.53325 L83.36675,12.7 L87.06675,12.7 L80,36.3 L76.3,36.3 L78.3,29.9 L77,29.9 C75.7,29.9 74.53325,29.03325 74.2,27.76675 L70.1,12.7 Z M86.73325,24.5 L90.6,24.5 C90.63325,24.56675 90.66675,24.66675 90.73325,24.76675 C90.8,24.86675 90.93325,25.06675 91.13325,25.36675 C91.33325,25.66675 91.6,25.93325 91.86675,26.13325 C92.13325,26.36675 92.56675,26.56675 93.06675,26.73325 C93.6,26.9 94.16675,27 94.8,27 C96.03325,27 96.93325,26.8 97.5,26.43325 C98.06675,26.06675 98.33325,25.56675 98.33325,25 C98.33325,24.46675 97.96675,24.03325 97.23325,23.73325 C96.5,23.43325 95.6,23.16675 94.53325,22.96675 C93.46675,22.76675 92.43325,22.5 91.36675,22.16675 C90.3,21.83325 89.43325,21.3 88.66675,20.5 C87.93325,19.7 87.56675,18.7 87.56675,17.43325 C87.56675,16.1 88.16675,14.9 89.4,13.9 C90.63325,12.9 92.26675,12.4 94.26675,12.4 C95.53325,12.4 96.63325,12.6 97.63325,12.96675 C98.63325,13.33325 99.36675,13.8 99.86675,14.3 C100.36675,14.83325 100.76675,15.36675 101.1,15.9 C101.43325,16.43325 101.63325,16.86675 101.73325,17.26675 L101.86675,17.8 L98.16675,17.8 C98.13325,17.73325 98.1,17.66675 98.06675,17.56675 C98.03325,17.46675 97.9,17.3 97.7,17.03325 C97.5,16.76675 97.3,16.56675 97.03325,16.36675 C96.76675,16.16675 96.4,16 95.93325,15.83325 C95.46675,15.66675 94.9,15.6 94.3,15.6 C93.3,15.6 92.56675,15.76675 92.03325,16.13325 C91.53325,16.5 91.26675,16.93325 91.26675,17.46675 C91.26675,17.9 91.53325,18.3 92.06675,18.6 C92.6,18.9 93.26675,19.13325 94.06675,19.26675 C94.86675,19.4 95.73325,19.6 96.66675,19.86675 C97.6,20.13325 98.43325,20.43325 99.26675,20.76675 C100.06675,21.1 100.73325,21.63325 101.26675,22.36675 C101.8,23.1 102.06675,24 102.06675,25.03325 C102.06675,26.46675 101.43325,27.7 100.13325,28.73325 C98.83325,29.76675 97.06675,30.26675 94.83325,30.26675 C93.5,30.26675 92.33325,30.06675 91.3,29.66675 C90.26675,29.26675 89.46675,28.8 88.93325,28.23325 C88.4,27.66675 87.96675,27.1 87.6,26.53325 C87.26675,25.96675 87.03325,25.5 86.93325,25.13325 L86.73325,24.5 Z M102.7,15.9 L102.7,12.7 L104.7,12.7 L104.7,9 L108.23325,9 L108.23325,12.7 L113.46675,12.7 L113.46675,15.9 L108.26675,15.9 L108.26675,26.7 L113.63325,26.7 L113.63325,29.9 L107.63325,29.9 C106.03325,29.9 104.7,28.6 104.7,26.96675 L104.7,15.9 L102.7,15.9 Z M119.16675,15.9 L119.16675,29.9 L115.63325,29.9 L115.63325,15.26675 C115.63325,13.86675 116.76675,12.7 118.2,12.7 L119.16675,12.7 L126.06675,12.7 L126.06675,15.9 L119.16675,15.9 Z M128.46675,27.66675 C126.8,25.93325 125.93325,23.8 125.93325,21.3 C125.93325,18.8 126.8,16.66675 128.46675,14.93325 C130.16675,13.2 132.23325,12.36675 134.66675,12.36675 C137.1,12.36675 139.16675,13.23325 140.86675,14.93325 C142.56675,16.66675 143.4,18.76675 143.4,21.3 L143.4,22.46675 L129.46675,22.46675 C129.7,23.86675 130.33325,24.96675 131.26675,25.8 C132.23325,26.63325 133.36675,27.03325 134.66675,27.03325 C135.73325,27.03325 136.63325,26.83325 137.46675,26.43325 C138.26675,26.03325 138.83325,25.63325 139.1,25.23325 L139.53325,24.66675 L143.23325,24.66675 C143.2,24.83325 143.1,25.03325 143,25.26675 C142.9,25.5 142.6,25.96675 142.13325,26.6 C141.66675,27.23325 141.16675,27.8 140.56675,28.3 C140,28.76675 139.16675,29.23325 138.1,29.63325 C137.03325,30.03325 135.9,30.23325 134.63325,30.23325 C132.23325,30.23325 130.16675,29.36675 128.46675,27.66675 Z M130.1,19.6 L140.16675,19.6 C140,18.5 139.46675,17.53325 138.56675,16.76675 C137.66675,15.96675 136.53325,15.56675 135.13325,15.56675 C133.93325,15.56675 132.83325,15.93325 131.9,16.66675 C130.96675,17.4 130.36675,18.36675 130.1,19.6 Z M146.7,27.76675 C145.16675,26.1 144.4,23.93325 144.4,21.3 C144.4,18.66675 145.16675,16.5 146.7,14.83325 C148.23325,13.16675 150.16675,12.36675 152.46675,12.36675 C153.53325,12.36675 154.5,12.56675 155.4,13 C156.3,13.43325 156.93325,13.83325 157.3,14.23325 L157.83325,14.86675 L158,14.86675 L158,12.66675 L161.53325,12.66675 L161.53325,29.86675 L158,29.86675 L158,27.5 L157.83325,27.5 C157.8,27.56675 157.7,27.66675 157.6,27.8 C157.5,27.93325 157.26675,28.13325 156.93325,28.46675 C156.6,28.76675 156.23325,29.06675 155.86675,29.3 C155.5,29.53325 154.96675,29.73325 154.36675,29.93325 C153.73325,30.13325 153.1,30.23325 152.46675,30.23325 C150.2,30.23325 148.26675,29.4 146.7,27.76675 Z M164.6,29.9 L164.6,12.7 L168.13325,12.7 L168.13325,15.06675 L168.3,15.06675 C168.33325,15 168.4,14.9 168.46675,14.76675 C168.53325,14.63325 168.7,14.43325 169,14.1 C169.3,13.8 169.6,13.5 169.96675,13.26675 C170.3,13.03325 170.8,12.83325 171.4,12.63325 C172,12.43325 172.66675,12.33325 173.33325,12.33325 C174.13325,12.33325 174.9,12.43325 175.56675,12.66675 C176.26675,12.9 176.8,13.16675 177.16675,13.46675 C177.56675,13.76675 177.9,14.1 178.16675,14.4 C178.43325,14.7 178.6,14.96675 178.7,15.2 L178.86675,15.53325 L179.03325,15.53325 C179.06675,15.43325 179.13325,15.33325 179.23325,15.16675 C179.3,15.03325 179.53325,14.76675 179.86675,14.4 C180.2,14.03325 180.56675,13.73325 180.96675,13.43325 C181.36675,13.16675 181.93325,12.9 182.63325,12.66675 C183.36675,12.43325 184.1,12.3 184.93325,12.3 C186.9,12.3 188.46675,12.93325 189.6,14.2 C190.73325,15.46675 191.3,17.23325 191.3,19.56675 L191.3,29.83325 L187.76675,29.83325 L187.76675,19.76675 C187.76675,16.96675 186.53325,15.56675 184.06675,15.56675 C182.86675,15.56675 181.83325,16.03325 180.96675,16.93325 C180.1,17.86675 179.7,19.03325 179.7,20.43325 L179.7,29.86675 L176.16675,29.86675 L176.16675,19.76675 C176.16675,16.96675 174.93325,15.56675 172.46675,15.56675 C171.26675,15.56675 170.23325,16.03325 169.36675,16.93325 C168.5,17.86675 168.1,19.03325 168.1,20.43325 L168.1,29.86675 L164.6,29.86675 L164.6,29.9 Z M46.43325,6.13325 L46.43325,9.66675 L49.96675,9.66675 L49.96675,6.13325 L46.43325,6.13325 Z M149.06675,17.1 C148.1,18.13325 147.63325,19.53325 147.63325,21.26675 C147.63325,23 148.1,24.4 149.06675,25.43325 C150.03325,26.46675 151.3,27 152.83325,27 C154.36675,27 155.63325,26.46675 156.6,25.43325 C157.56675,24.4 158.03325,23 158.03325,21.26675 C158.03325,19.53325 157.56675,18.13325 156.6,17.1 C155.63325,16.06675 154.36675,15.53325 152.83325,15.53325 C151.3,15.56675 150.03325,16.06675 149.06675,17.1 Z"/>
      <g fill="#4038FF">
        <path d="M28.06675 2.7000624e-13L31.7 2.7000624e-13 31.7 10.43325C31.7 14.6 30.13325 18.43325 27.56675 21.33325 27.9 19.93325 28.06675 18.5 28.06675 17L28.06675 2.7000624e-13zM9.8 29.7665C9.7 29.8665 9.63325 29.9665 9.53325 30.0665 9.5 30.1 9.46675 30.13325 9.43325 30.1665 9.33325 30.2665 9.26675 30.3665 9.16675 30.43325 9.13325 30.4665 9.06675 30.53325 9.03325 30.5665 8.93325 30.6665 8.83325 30.7665 8.7 30.8665 8.56675 31 8.43325 31.1 8.3 31.23325 8.16675 31.3665 8.03325 31.4665 7.86675 31.5665 7.73325 31.6665 7.6 31.7665 7.46675 31.8665 7.13325 32.0665 6.8 32.2665 6.46675 32.43325 6.4 32.4665 6.33325 32.5 6.23325 32.53325 6.13325 32.5665 6.06675 32.6 6 32.63325 5.9 32.6665 5.83325 32.7 5.73325 32.73325 5.56675 32.8 5.4 32.8665 5.2 32.93325 5.2 32.93325 5.2 32.93325 5.16675 32.93325 5 33 4.83325 33.03325 4.66675 33.0665L4.63325 33.0665C4.46675 33.1 4.3 33.1665 4.13325 33.2 3.93325 33.23325 3.7 33.3 3.5 33.3 3.43325 33.3 3.36675 33.33325 3.3 33.33325L3.26675 33.33325C3.06675 33.3665 2.9 33.3665 2.7 33.3665 2.6 33.3665 2.5 33.3665 2.4 33.3665 2.3 33.3665 2.2 33.3665 2.1 33.3665L1.96675 33.3665 3.06675 29.73325 9.8 29.73325 9.8 29.7665zM25.13325-7.10542736e-15L25.13325 17C25.13325 17.26675 25.13325 17.56675 25.1 17.83325 25.1 17.96675 25.1 18.1 25.06675 18.23325 25.06675 18.36675 25.03325 18.5 25.03325 18.63325 25.03325 18.76675 25 18.9 25 19.03325 25 19.13325 24.96675 19.26675 24.96675 19.36675L24.96675 19.4C24.96675 19.43325 24.96675 19.46675 24.96675 19.46675 24.93325 19.6 24.93325 19.73325 24.9 19.83325 24.86675 19.96675 24.86675 20.1 24.83325 20.2L24.83325 20.23325C24.8 20.33325 24.8 20.43325 24.76675 20.53325 24.76675 20.56675 24.76675 20.56675 24.76675 20.6 24.66675 21 24.56675 21.43325 24.43325 21.83325 24.4 21.93325 24.36675 22.06675 24.33325 22.16675 24.3 22.3 24.26675 22.4 24.2 22.53325 24.16675 22.66675 24.1 22.76675 24.06675 22.86675 24.03325 23 23.96675 23.1 23.93325 23.2 23.9 23.33325 23.83325 23.43325 23.8 23.53325 23.76675 23.63325 23.7 23.76675 23.63325 23.86675 23.6 23.96675 23.53325 24.1 23.46675 24.2 23.4 24.3 23.36675 24.43325 23.3 24.53325 23.26675 24.63325 23.2 24.7 23.16675 24.8 23.06675 25 22.96675 25.16675 22.83325 25.36675 22.73325 25.53325 22.63325 25.7 22.53325 25.83325 22.46675 25.96675 22.4 26.06675 22.3 26.16675 22.26675 26.23325 22.2 26.3 22.16675 26.33325 22.06675 26.46675 22 26.56675 21.9 26.66675 21.8 26.8 21.7 26.9 21.63325 27.03325 21.43325 27.26675 21.23325 27.5 21.03325 27.73325 21.06675 27.6 21.1 27.46675 21.13325 27.33325 21.16675 27.23325 21.16675 27.13325 21.2 27.03325 21.2 27.03325 21.2 27.03325 21.2 27 21.2 26.96675 21.2 26.96675 21.2 26.93325 21.23325 26.8 21.23325 26.66675 21.26675 26.53325 21.3 26.36675 21.33325 26.2 21.33325 26.06675 21.33325 25.96675 21.36675 25.86675 21.36675 25.8 21.36675 25.7 21.4 25.63325 21.4 25.53325 21.43325 25.36675 21.43325 25.2 21.46675 25 21.46675 24.96675 21.46675 24.96675 21.46675 24.93325 21.46675 24.9 21.46675 24.9 21.46675 24.86675 21.46675 24.73325 21.5 24.63325 21.5 24.5 21.5 24.4 21.5 24.3 21.5 24.2L21.5 24.33325C21.5 24.23325 21.5 24.13325 21.5 24.03325 21.5 23.86675 21.5 23.73325 21.5 23.56675L21.5-7.10542736e-15 25.13325-7.10542736e-15z"/>
        <path d="M18.56675,0 L18.56675,23.56675 C18.56675,24.13325 18.53325,24.66675 18.5,25.2 C18.46675,25.66675 18.4,26.1 18.3,26.56675 C18.1,27.63325 17.8,28.66675 17.4,29.63325 C17.16675,30.23325 16.86675,30.83325 16.56675,31.4 C15.63325,33.06675 14.43325,34.56675 13.03325,35.83325 C10.13325,38.43325 6.3,40 2.13325,40 L-9.23705556e-14,40 L1.1,36.36675 L2.16675,36.36675 C5.3,36.36675 8.16675,35.23325 10.36675,33.36675 C11.56675,32.36675 12.56675,31.16675 13.3,29.8 C13.5,29.46675 13.66675,29.1 13.83325,28.73325 C14.1,28.13325 14.3,27.53325 14.46675,26.9 C14.66675,26.2 14.8,25.46675 14.83325,24.73325 C14.86675,24.36675 14.86675,24 14.86675,23.63325 L14.86675,0 L18.56675,0 Z"/>
        <path d="M12,23.2 L12,23.56675 C12,23.86675 12,24.16675 11.96675,24.4335 C11.9,25 11.83325,25.56675 11.66675,26.1 C11.6,26.36675 11.53325,26.6335 11.43325,26.86675 L3.93325,26.86675 L5.03325,23.2335 L12,23.2335 L12,23.2 Z"/>
      </g>
    </g>
    <path fill="#FFF" d="M187.949219,503.461914 C190.524101,503.461914 192.768545,503.906246 194.682617,504.794922 C196.596689,505.683598 198.180332,506.896965 199.433594,508.435059 C200.686855,509.973152 201.632484,511.778961 202.270508,513.852539 C202.908532,515.926117 203.227539,518.159168 203.227539,520.551758 L203.227539,523.901367 L179.199219,523.901367 L179.199219,527.695312 C179.199219,528.994147 179.444171,530.144852 179.934082,531.147461 C180.423993,532.15007 181.090491,532.998857 181.933594,533.693848 C182.776697,534.388838 183.722325,534.912921 184.770508,535.266113 C185.81869,535.619305 186.901036,535.795898 188.017578,535.795898 C190.250662,535.795898 192.187492,535.226243 193.828125,534.086914 C195.468758,532.947585 196.402994,531.13608 196.630859,528.652344 L202.954102,528.652344 C202.817382,530.566416 202.316085,532.269687 201.450195,533.762207 C200.584306,535.254728 199.462084,536.52506 198.083496,537.573242 C196.704908,538.621425 195.149748,539.430336 193.417969,540 C191.686189,540.569664 189.863291,540.854492 187.949219,540.854492 C185.374336,540.854492 183.124196,540.387374 181.19873,539.453125 C179.273265,538.518876 177.666836,537.231454 176.379395,535.59082 C175.091953,533.950187 174.134932,531.990571 173.508301,529.711914 C172.88167,527.433257 172.568359,524.915378 172.568359,522.158203 C172.568359,519.446601 172.904456,516.934419 173.57666,514.621582 C174.248864,512.308745 175.251458,510.337736 176.584473,508.708496 C177.917487,507.079256 179.529613,505.797531 181.420898,504.863281 C183.312184,503.929032 185.488269,503.461914 187.949219,503.461914 Z M691.142578,492.387695 L691.142578,540 L684.819336,540 L684.819336,534.189453 C683.702794,536.331391 682.210296,537.977696 680.341797,539.128418 C678.473298,540.27914 676.217461,540.854492 673.574219,540.854492 C671.158842,540.854492 669.056812,540.364588 667.268066,539.384766 C665.47932,538.404943 663.992519,537.071949 662.807617,535.385742 C661.622715,533.699536 660.739749,531.72283 660.158691,529.455566 C659.577634,527.188302 659.287109,524.755872 659.287109,522.158203 C659.287109,519.58332 659.577634,517.15089 660.158691,514.86084 C660.739749,512.570789 661.611322,510.588387 662.773438,508.913574 C663.935553,507.238761 665.405265,505.911463 667.182617,504.931641 C668.95997,503.951818 671.033517,503.461914 673.40332,503.461914 C676.069349,503.461914 678.359365,504.03157 680.273438,505.170898 C682.18751,506.310227 683.702794,507.962229 684.819336,510.126953 L684.819336,492.387695 L691.142578,492.387695 Z M305.083008,503.461914 C307.79461,503.461914 310.152985,503.929032 312.158203,504.863281 C314.163421,505.797531 315.826816,507.079256 317.148438,508.708496 C318.470059,510.337736 319.46126,512.308745 320.12207,514.621582 C320.782881,516.934419 321.113281,519.446601 321.113281,522.158203 C321.113281,524.915378 320.782881,527.433257 320.12207,529.711914 C319.46126,531.990571 318.470059,533.950187 317.148438,535.59082 C315.826816,537.231454 314.157725,538.518876 312.141113,539.453125 C310.124502,540.387374 307.771823,540.854492 305.083008,540.854492 C302.371406,540.854492 300.013031,540.387374 298.007812,539.453125 C296.002594,538.518876 294.333503,537.231454 293.000488,535.59082 C291.667474,533.950187 290.676273,531.990571 290.026855,529.711914 C289.377438,527.433257 289.052734,524.915378 289.052734,522.158203 C289.052734,519.446601 289.377438,516.934419 290.026855,514.621582 C290.676273,512.308745 291.667474,510.337736 293.000488,508.708496 C294.333503,507.079256 296.002594,505.797531 298.007812,504.863281 C300.013031,503.929032 302.371406,503.461914 305.083008,503.461914 Z M467.197266,503.461914 C469.772148,503.461914 472.016592,503.906246 473.930664,504.794922 C475.844736,505.683598 477.428379,506.896965 478.681641,508.435059 C479.934902,509.973152 480.880531,511.778961 481.518555,513.852539 C482.156579,515.926117 482.475586,518.159168 482.475586,520.551758 L482.475586,523.901367 L458.447266,523.901367 L458.447266,527.695312 C458.447266,528.994147 458.692218,530.144852 459.182129,531.147461 C459.67204,532.15007 460.338537,532.998857 461.181641,533.693848 C462.024744,534.388838 462.970372,534.912921 464.018555,535.266113 C465.066737,535.619305 466.149083,535.795898 467.265625,535.795898 C469.498709,535.795898 471.435539,535.226243 473.076172,534.086914 C474.716805,532.947585 475.651041,531.13608 475.878906,528.652344 L482.202148,528.652344 C482.065429,530.566416 481.564132,532.269687 480.698242,533.762207 C479.832352,535.254728 478.710131,536.52506 477.331543,537.573242 C475.952955,538.621425 474.397795,539.430336 472.666016,540 C470.934236,540.569664 469.111338,540.854492 467.197266,540.854492 C464.622383,540.854492 462.372243,540.387374 460.446777,539.453125 C458.521312,538.518876 456.914883,537.231454 455.627441,535.59082 C454.34,533.950187 453.382978,531.990571 452.756348,529.711914 C452.129717,527.433257 451.816406,524.915378 451.816406,522.158203 C451.816406,519.446601 452.152503,516.934419 452.824707,514.621582 C453.496911,512.308745 454.499505,510.337736 455.83252,508.708496 C457.165534,507.079256 458.77766,505.797531 460.668945,504.863281 C462.560231,503.929032 464.736316,503.461914 467.197266,503.461914 Z M636.25,503.461914 C638.824883,503.461914 641.069326,503.906246 642.983398,504.794922 C644.897471,505.683598 646.481114,506.896965 647.734375,508.435059 C648.987636,509.973152 649.933265,511.778961 650.571289,513.852539 C651.209313,515.926117 651.52832,518.159168 651.52832,520.551758 L651.52832,523.901367 L627.5,523.901367 L627.5,527.695312 C627.5,528.994147 627.744952,530.144852 628.234863,531.147461 C628.724775,532.15007 629.391272,532.998857 630.234375,533.693848 C631.077478,534.388838 632.023107,534.912921 633.071289,535.266113 C634.119471,535.619305 635.201817,535.795898 636.318359,535.795898 C638.551443,535.795898 640.488273,535.226243 642.128906,534.086914 C643.769539,532.947585 644.703775,531.13608 644.931641,528.652344 L651.254883,528.652344 C651.118163,530.566416 650.616866,532.269687 649.750977,533.762207 C648.885087,535.254728 647.762865,536.52506 646.384277,537.573242 C645.00569,538.621425 643.450529,539.430336 641.71875,540 C639.986971,540.569664 638.164072,540.854492 636.25,540.854492 C633.675117,540.854492 631.424977,540.387374 629.499512,539.453125 C627.574046,538.518876 625.967617,537.231454 624.680176,535.59082 C623.392734,533.950187 622.435713,531.990571 621.809082,529.711914 C621.182451,527.433257 620.869141,524.915378 620.869141,522.158203 C620.869141,519.446601 621.205238,516.934419 621.877441,514.621582 C622.549645,512.308745 623.552239,510.337736 624.885254,508.708496 C626.218268,507.079256 627.830394,505.797531 629.72168,504.863281 C631.612965,503.929032 633.78905,503.461914 636.25,503.461914 Z M523.730469,503.461914 C526.305351,503.461914 528.549795,503.906246 530.463867,504.794922 C532.377939,505.683598 533.961582,506.896965 535.214844,508.435059 C536.468105,509.973152 537.413734,511.778961 538.051758,513.852539 C538.689782,515.926117 539.008789,518.159168 539.008789,520.551758 L539.008789,523.901367 L514.980469,523.901367 L514.980469,527.695312 C514.980469,528.994147 515.225421,530.144852 515.715332,531.147461 C516.205243,532.15007 516.871741,532.998857 517.714844,533.693848 C518.557947,534.388838 519.503575,534.912921 520.551758,535.266113 C521.59994,535.619305 522.682286,535.795898 523.798828,535.795898 C526.031912,535.795898 527.968742,535.226243 529.609375,534.086914 C531.250008,532.947585 532.184244,531.13608 532.412109,528.652344 L538.735352,528.652344 C538.598632,530.566416 538.097335,532.269687 537.231445,533.762207 C536.365556,535.254728 535.243334,536.52506 533.864746,537.573242 C532.486158,538.621425 530.930998,539.430336 529.199219,540 C527.467439,540.569664 525.644541,540.854492 523.730469,540.854492 C521.155586,540.854492 518.905446,540.387374 516.97998,539.453125 C515.054515,538.518876 513.448086,537.231454 512.160645,535.59082 C510.873203,533.950187 509.916182,531.990571 509.289551,529.711914 C508.66292,527.433257 508.349609,524.915378 508.349609,522.158203 C508.349609,519.446601 508.685706,516.934419 509.35791,514.621582 C510.030114,512.308745 511.032708,510.337736 512.365723,508.708496 C513.698737,507.079256 515.310863,505.797531 517.202148,504.863281 C519.093434,503.929032 521.269519,503.461914 523.730469,503.461914 Z M598.823242,503.461914 C600.509449,503.461914 602.155754,503.68408 603.762207,504.128418 C605.36866,504.572756 606.804193,505.26204 608.068848,506.196289 C609.333502,507.130539 610.34749,508.321119 611.11084,509.768066 C611.87419,511.215014 612.278646,512.941071 612.324219,514.946289 L606.035156,514.946289 C605.94401,512.576486 605.209154,510.907394 603.830566,509.938965 C602.451979,508.970536 600.805674,508.486328 598.891602,508.486328 C596.931956,508.486328 595.274258,508.953446 593.918457,509.887695 C592.562656,510.821945 591.884766,512.041008 591.884766,513.544922 C591.884766,514.934903 592.283525,516.017249 593.081055,516.791992 C593.878585,517.566736 595.166007,518.136391 596.943359,518.500977 L602.958984,519.765625 C606.51369,520.517582 609.151196,521.730949 610.871582,523.405762 C612.591968,525.080575 613.452148,527.364894 613.452148,530.258789 C613.452148,531.762703 613.116052,533.158359 612.443848,534.445801 C611.771644,535.733242 610.803229,536.838374 609.538574,537.76123 C608.273919,538.684087 606.775725,539.430336 605.043945,540 C603.312166,540.569664 601.398122,540.854492 599.301758,540.854492 C597.296539,540.854492 595.422372,540.598147 593.679199,540.085449 C591.936026,539.572751 590.409349,538.809413 589.099121,537.79541 C587.788893,536.781408 586.757816,535.516772 586.005859,534.001465 C585.253902,532.486158 584.855143,530.725921 584.80957,528.720703 L591.132812,528.720703 C591.223959,531.090507 592.072746,532.862136 593.679199,534.035645 C595.285653,535.209153 597.182606,535.795898 599.370117,535.795898 C601.466482,535.795898 603.28938,535.328781 604.838867,534.394531 C606.388354,533.460282 607.163086,532.104501 607.163086,530.327148 C607.163086,528.891594 606.695968,527.74089 605.761719,526.875 C604.827469,526.00911 603.164074,525.34831 600.771484,524.892578 L594.892578,523.696289 C591.95311,523.081052 589.691577,521.947437 588.10791,520.29541 C586.524243,518.643384 585.732422,516.41603 585.732422,513.613281 C585.732422,512.2233 586.045733,510.907396 586.672363,509.665527 C587.298994,508.423659 588.19905,507.34701 589.372559,506.435547 C590.546067,505.524084 591.924634,504.800621 593.508301,504.265137 C595.091968,503.729652 596.863597,503.461914 598.823242,503.461914 Z M561.259766,503.461914 C563.173838,503.461914 564.95686,503.706866 566.608887,504.196777 C568.260913,504.686689 569.696446,505.421545 570.915527,506.401367 C572.134609,507.38119 573.080238,508.640129 573.752441,510.178223 C574.424645,511.716316 574.760742,513.533518 574.760742,515.629883 L574.760742,534.599609 L580.092773,534.599609 L580.092773,540 L569.428711,540 L569.291992,533.40332 L569.018555,533.40332 C568.038732,535.93263 566.591806,537.806797 564.677734,539.025879 C562.763662,540.244961 560.473646,540.854492 557.807617,540.854492 C556.030265,540.854492 554.423835,540.581057 552.988281,540.03418 C551.552727,539.487302 550.310878,538.678391 549.262695,537.607422 C548.328446,536.673172 547.604983,535.556647 547.092285,534.257812 C546.579587,532.958978 546.323242,531.603197 546.323242,530.19043 C546.323242,527.387681 547.211905,524.983734 548.989258,522.978516 C550.76661,520.973297 553.432599,519.8112 556.987305,519.492188 L568.608398,518.432617 L568.608398,515.561523 C568.608398,514.171543 568.431805,513.020838 568.078613,512.109375 C567.725421,511.197912 567.224124,510.474449 566.574707,509.938965 C565.92529,509.40348 565.144861,509.027508 564.233398,508.811035 C563.321936,508.594563 562.307948,508.486328 561.191406,508.486328 C558.958322,508.486328 557.1753,508.987625 555.842285,509.990234 C554.509271,510.992844 553.842773,512.644845 553.842773,514.946289 L547.519531,514.946289 C547.519531,513.260083 547.884111,511.716316 548.613281,510.314941 C549.342452,508.913567 550.322259,507.7002 551.552734,506.674805 C552.783209,505.649409 554.230135,504.857587 555.893555,504.299316 C557.556974,503.741045 559.345694,503.461914 561.259766,503.461914 Z M241.40625,504.316406 L248.481445,532.241211 L248.754883,532.241211 L255.043945,504.316406 L262.700195,504.316406 L269.262695,532.241211 L269.536133,532.241211 L276.679688,504.316406 L282.832031,504.316406 L272.407227,540 L265.776367,540 L259.042969,511.083984 L258.769531,511.083984 L251.967773,540 L245.473633,540 L235.048828,504.316406 L241.40625,504.316406 Z M498.47168,492.387695 L498.47168,540 L492.182617,540 L492.182617,492.387695 L498.47168,492.387695 Z M428.676758,492.387695 C431.160494,492.387695 433.353669,492.672523 435.256348,493.242188 C437.159026,493.811852 438.736973,494.677729 439.990234,495.839844 C441.243496,497.001959 442.154945,498.431795 442.724609,500.129395 C443.294274,501.826994 443.579102,503.8037 443.579102,506.05957 C443.579102,508.155935 443.311363,510.052889 442.775879,511.750488 C442.240394,513.448088 441.368821,514.912103 440.161133,516.142578 C439.226883,517.076828 438.138841,517.845863 436.896973,518.449707 C435.655104,519.053551 434.099944,519.4694 432.231445,519.697266 L443.989258,540 L436.367188,540 L425.224609,519.902344 L417.397461,519.902344 L417.397461,540 L410.732422,540 L410.732422,492.387695 L428.676758,492.387695 Z M383.798828,504.316406 L369.443359,520.039062 L384.790039,540 L377.578125,540 L362.163086,520.039062 L376.176758,504.316406 L383.798828,504.316406 Z M362.094727,492.387695 L362.094727,540 L355.805664,540 L355.805664,492.387695 L362.094727,492.387695 Z M347.978516,504.316406 L347.978516,509.750977 L337.109375,509.750977 L337.109375,540 L330.820312,540 L330.820312,504.316406 L347.978516,504.316406 Z M221.616211,492.387695 L221.616211,504.316406 L229.819336,504.316406 L229.819336,509.682617 L221.616211,509.682617 L221.616211,534.599609 L229.819336,534.599609 L229.819336,540 L215.395508,540 L215.395508,509.682617 L209.379883,509.682617 L209.379883,504.316406 L215.395508,504.316406 L215.395508,492.387695 L221.616211,492.387695 Z M135.825195,492.387695 L155.478516,531.933594 L155.786133,531.933594 L155.786133,492.387695 L162.211914,492.387695 L162.211914,540 L152.84668,540 L133.15918,500.249023 L132.885742,500.249023 L132.885742,540 L126.425781,540 L126.425781,492.387695 L135.825195,492.387695 Z M568.608398,523.286133 L555.927734,524.448242 C554.6289,524.539388 553.814292,524.881182 553.483887,525.473633 C553.153481,526.066084 552.988281,526.874995 552.988281,527.900391 L552.988281,531.044922 C552.988281,532.685555 553.557937,533.887529 554.697266,534.650879 C555.836594,535.414229 557.408844,535.795898 559.414062,535.795898 C562.262384,535.795898 564.506828,534.781911 566.147461,532.753906 C567.788094,530.725901 568.608398,528.105485 568.608398,524.892578 L568.608398,523.286133 Z M305.083008,508.486328 C303.829746,508.486328 302.627773,508.685708 301.477051,509.084473 C300.326329,509.483238 299.329431,510.035804 298.486328,510.742188 C297.643225,511.448571 296.965335,512.303055 296.452637,513.305664 C295.939939,514.308273 295.683594,515.413405 295.683594,516.621094 L295.683594,527.695312 C295.683594,528.903001 295.939939,530.008133 296.452637,531.010742 C296.965335,532.013351 297.643225,532.862138 298.486328,533.557129 C299.329431,534.252119 300.320632,534.798989 301.459961,535.197754 C302.59929,535.596519 303.80696,535.795898 305.083008,535.795898 C306.336269,535.795898 307.532546,535.596519 308.671875,535.197754 C309.811204,534.798989 310.802405,534.252119 311.645508,533.557129 C312.488611,532.862138 313.166501,532.013351 313.679199,531.010742 C314.191897,530.008133 314.448242,528.903001 314.448242,527.695312 L314.448242,516.621094 C314.448242,515.413405 314.191897,514.308273 313.679199,513.305664 C313.166501,512.303055 312.488611,511.448571 311.645508,510.742188 C310.802405,510.035804 309.811204,509.483238 308.671875,509.084473 C307.532546,508.685708 306.336269,508.486328 305.083008,508.486328 Z M675.043945,508.486328 C673.745111,508.486328 672.543137,508.685708 671.437988,509.084473 C670.33284,509.483238 669.370121,510.035804 668.549805,510.742188 C667.729488,511.448571 667.085777,512.303055 666.618652,513.305664 C666.151528,514.308273 665.917969,515.413405 665.917969,516.621094 L665.917969,527.695312 C665.917969,528.903001 666.151528,530.008133 666.618652,531.010742 C667.085777,532.013351 667.729488,532.862138 668.549805,533.557129 C669.370121,534.252119 670.327143,534.798989 671.420898,535.197754 C672.514654,535.596519 673.722324,535.795898 675.043945,535.795898 C678.211279,535.795898 680.632316,534.793304 682.307129,532.788086 C683.981942,530.782868 684.819336,528.242203 684.819336,525.166016 L684.819336,519.150391 C684.819336,516.074203 683.981942,513.527842 682.307129,511.51123 C680.632316,509.494619 678.211279,508.486328 675.043945,508.486328 Z M636.25,508.486328 C635.087885,508.486328 633.982753,508.674315 632.93457,509.050293 C631.886388,509.426271 630.952153,509.978837 630.131836,510.708008 C629.311519,511.437178 628.667808,512.325841 628.200684,513.374023 C627.733559,514.422206 627.5,515.595697 627.5,516.894531 L627.5,518.876953 L645,518.876953 L645,516.894531 C645,515.595697 644.766441,514.422206 644.299316,513.374023 C643.832192,512.325841 643.194177,511.437178 642.385254,510.708008 C641.576331,509.978837 640.642095,509.426271 639.58252,509.050293 C638.522944,508.674315 637.412115,508.486328 636.25,508.486328 Z M187.949219,508.486328 C186.787104,508.486328 185.681971,508.674315 184.633789,509.050293 C183.585607,509.426271 182.651371,509.978837 181.831055,510.708008 C181.010738,511.437178 180.367027,512.325841 179.899902,513.374023 C179.432778,514.422206 179.199219,515.595697 179.199219,516.894531 L179.199219,518.876953 L196.699219,518.876953 L196.699219,516.894531 C196.699219,515.595697 196.46566,514.422206 195.998535,513.374023 C195.53141,512.325841 194.893396,511.437178 194.084473,510.708008 C193.275549,509.978837 192.341314,509.426271 191.281738,509.050293 C190.222163,508.674315 189.111334,508.486328 187.949219,508.486328 Z M467.197266,508.486328 C466.03515,508.486328 464.930018,508.674315 463.881836,509.050293 C462.833654,509.426271 461.899418,509.978837 461.079102,510.708008 C460.258785,511.437178 459.615074,512.325841 459.147949,513.374023 C458.680824,514.422206 458.447266,515.595697 458.447266,516.894531 L458.447266,518.876953 L475.947266,518.876953 L475.947266,516.894531 C475.947266,515.595697 475.713707,514.422206 475.246582,513.374023 C474.779457,512.325841 474.141443,511.437178 473.33252,510.708008 C472.523596,509.978837 471.589361,509.426271 470.529785,509.050293 C469.47021,508.674315 468.359381,508.486328 467.197266,508.486328 Z M523.730469,508.486328 C522.568354,508.486328 521.463221,508.674315 520.415039,509.050293 C519.366857,509.426271 518.432621,509.978837 517.612305,510.708008 C516.791988,511.437178 516.148277,512.325841 515.681152,513.374023 C515.214028,514.422206 514.980469,515.595697 514.980469,516.894531 L514.980469,518.876953 L532.480469,518.876953 L532.480469,516.894531 C532.480469,515.595697 532.24691,514.422206 531.779785,513.374023 C531.31266,512.325841 530.674646,511.437178 529.865723,510.708008 C529.056799,509.978837 528.122564,509.426271 527.062988,509.050293 C526.003413,508.674315 524.892584,508.486328 523.730469,508.486328 Z M431.103516,498.334961 L417.397461,498.334961 L417.397461,514.228516 L431.103516,514.228516 C432.880868,514.228516 434.236649,513.693039 435.170898,512.62207 C436.105148,511.551101 436.572266,510.275073 436.572266,508.793945 L436.572266,503.530273 C436.572266,501.88964 436.082362,500.613611 435.102539,499.702148 C434.122716,498.790686 432.789722,498.334961 431.103516,498.334961 Z M370.195312,397.802734 C373.580746,397.802734 376.542956,398.502597 379.082031,399.902344 C381.621106,401.30209 383.720695,403.19823 385.380859,405.59082 C387.041024,407.98341 388.269853,410.815413 389.067383,414.086914 C389.864913,417.358415 390.263672,420.833315 390.263672,424.511719 C390.263672,428.255227 389.864913,431.738265 389.067383,434.960938 C388.269853,438.18361 387.041024,440.999337 385.380859,443.408203 C383.720695,445.817069 381.621106,447.721347 379.082031,449.121094 C376.542956,450.52084 373.580746,451.220703 370.195312,451.220703 C366.809879,451.220703 363.880221,450.504564 361.40625,449.072266 C358.932279,447.639967 356.897794,445.65431 355.302734,443.115234 L355.302734,466.992188 L342.802734,466.992188 L342.802734,399.023438 L355.302734,399.023438 L355.302734,405.908203 C356.897794,403.369128 358.924141,401.383471 361.381836,399.951172 C363.839531,398.518873 366.777327,397.802734 370.195312,397.802734 Z M534.550781,397.802734 C540.345081,397.802734 545.097638,399.20246 548.808594,402.001953 C552.51955,404.801446 554.505207,409.033175 554.765625,414.697266 L542.265625,414.697266 C542.135416,412.288399 541.37045,410.489915 539.970703,409.301758 C538.570957,408.113601 536.764334,407.519531 534.550781,407.519531 C532.402333,407.519531 530.652676,407.983394 529.301758,408.911133 C527.95084,409.838872 527.275391,411.132804 527.275391,412.792969 C527.275391,414.453133 527.788081,415.681962 528.813477,416.479492 C529.838872,417.277022 531.181632,417.854816 532.841797,418.212891 L542.949219,420.410156 C544.804697,420.800783 546.57063,421.378577 548.24707,422.143555 C549.923511,422.908532 551.363926,423.893223 552.568359,425.097656 C553.772792,426.302089 554.724931,427.734367 555.424805,429.394531 C556.124678,431.054696 556.474609,433.024077 556.474609,435.302734 C556.474609,437.516287 556.002609,439.583324 555.058594,441.503906 C554.114579,443.424489 552.747405,445.100904 550.957031,446.533203 C549.166658,447.965502 546.953138,449.104813 544.316406,449.951172 C541.679674,450.79753 538.668637,451.220703 535.283203,451.220703 C528.479784,451.220703 523.222675,449.715184 519.511719,446.704102 C515.800763,443.693019 513.815105,439.388049 513.554688,433.789062 L526.054688,433.789062 C526.575523,438.932317 529.651665,441.503906 535.283203,441.503906 C537.692069,441.503906 539.74283,441.05632 541.435547,440.161133 C543.128264,439.265946 543.974609,437.841807 543.974609,435.888672 C543.974609,434.033194 543.274747,432.690434 541.875,431.860352 C540.475253,431.030269 538.636079,430.371096 536.357422,429.882812 L527.568359,427.978516 C519.039671,426.123038 514.775391,421.25655 514.775391,413.378906 C514.775391,411.165354 515.222977,409.114593 516.118164,407.226562 C517.013351,405.338532 518.307283,403.694668 520,402.294922 C521.692717,400.895175 523.759753,399.796553 526.201172,398.999023 C528.64259,398.201493 531.425766,397.802734 534.550781,397.802734 Z M424.443359,397.802734 C428.251972,397.802734 431.637355,398.437494 434.599609,399.707031 C437.561864,400.976569 440.060211,402.791329 442.094727,405.151367 C444.129242,407.511405 445.67545,410.327132 446.733398,413.598633 C447.791346,416.870134 448.320312,420.507792 448.320312,424.511719 C448.320312,428.515645 447.791346,432.145166 446.733398,435.400391 C445.67545,438.655615 444.129242,441.471342 442.094727,443.847656 C440.060211,446.22397 437.561864,448.046869 434.599609,449.316406 C431.637355,450.585944 428.251972,451.220703 424.443359,451.220703 C420.634747,451.220703 417.249364,450.585944 414.287109,449.316406 C411.324855,448.046869 408.826508,446.22397 406.791992,443.847656 C404.757477,441.471342 403.20313,438.655615 402.128906,435.400391 C401.054682,432.145166 400.517578,428.515645 400.517578,424.511719 C400.517578,420.507792 401.054682,416.870134 402.128906,413.598633 C403.20313,410.327132 404.757477,407.511405 406.791992,405.151367 C408.826508,402.791329 411.324855,400.976569 414.287109,399.707031 C417.249364,398.437494 420.634747,397.802734 424.443359,397.802734 Z M212.138672,397.802734 C214.807956,397.802734 217.363269,398.152666 219.804688,398.852539 C222.246106,399.552412 224.451488,400.651034 226.420898,402.148438 C228.390309,403.645841 229.985345,405.558257 231.206055,407.885742 C232.426764,410.213228 233.183592,412.988265 233.476562,416.210938 L220.976562,416.210938 C220.65104,412.955713 219.650073,410.693366 217.973633,409.423828 C216.297192,408.154291 214.189466,407.519531 211.650391,407.519531 C209.111315,407.519531 206.914072,408.333325 205.058594,409.960938 C203.203116,411.58855 202.275391,414.095035 202.275391,417.480469 L202.275391,431.494141 C202.275391,434.619156 203.154288,437.068676 204.912109,438.842773 C206.669931,440.616871 208.948554,441.503906 211.748047,441.503906 C214.54754,441.503906 216.752922,440.836595 218.364258,439.501953 C219.975594,438.167311 220.976561,435.807309 221.367188,432.421875 L233.867188,432.421875 C233.541665,435.611995 232.776699,438.370757 231.572266,440.698242 C230.367833,443.025728 228.79721,444.970695 226.860352,446.533203 C224.923493,448.095711 222.726249,449.267574 220.268555,450.048828 C217.81086,450.830082 215.182306,451.220703 212.382812,451.220703 C208.5742,451.220703 205.237645,450.569668 202.373047,449.267578 C199.508449,447.965488 197.091481,446.158866 195.12207,443.847656 C193.152659,441.536447 191.679692,438.769547 190.703125,435.546875 C189.726558,432.324203 189.238281,428.743509 189.238281,424.804688 C189.238281,420.605448 189.775385,416.837582 190.849609,413.500977 C191.923833,410.164371 193.461904,407.332368 195.463867,405.004883 C197.46583,402.677397 199.866522,400.895188 202.666016,399.658203 C205.465509,398.421218 208.623029,397.802734 212.138672,397.802734 Z M306.132812,397.802734 C309.941425,397.802734 313.326808,398.437494 316.289062,399.707031 C319.251317,400.976569 321.749664,402.791329 323.78418,405.151367 C325.818695,407.511405 327.364904,410.327132 328.422852,413.598633 C329.4808,416.870134 330.009766,420.507792 330.009766,424.511719 C330.009766,428.515645 329.4808,432.145166 328.422852,435.400391 C327.364904,438.655615 325.818695,441.471342 323.78418,443.847656 C321.749664,446.22397 319.251317,448.046869 316.289062,449.316406 C313.326808,450.585944 309.941425,451.220703 306.132812,451.220703 C302.3242,451.220703 298.938817,450.585944 295.976562,449.316406 C293.014308,448.046869 290.515961,446.22397 288.481445,443.847656 C286.44693,441.471342 284.892583,438.655615 283.818359,435.400391 C282.744135,432.145166 282.207031,428.515645 282.207031,424.511719 C282.207031,420.507792 282.744135,416.870134 283.818359,413.598633 C284.892583,410.327132 286.44693,407.511405 288.481445,405.151367 C290.515961,402.791329 293.014308,400.976569 295.976562,399.707031 C298.938817,398.437494 302.3242,397.802734 306.132812,397.802734 Z M159.013672,381.982422 L182.109375,450 L168.095703,450 L163.603516,435.498047 L140.410156,435.498047 L136.015625,450 L122.001953,450 L145.195312,381.982422 L159.013672,381.982422 Z M274.638672,399.023438 L274.638672,408.789062 L258.671875,408.789062 L258.671875,450 L246.171875,450 L246.171875,399.023438 L274.638672,399.023438 Z M473.613281,381.982422 L473.613281,450 L461.113281,450 L461.113281,381.982422 L473.613281,381.982422 Z M501.494141,399.023438 L501.494141,450 L488.994141,450 L488.994141,399.023438 L501.494141,399.023438 Z M306.132812,407.519531 C303.007797,407.519531 300.411794,408.349601 298.344727,410.009766 C296.277659,411.66993 295.244141,414.029933 295.244141,417.089844 L295.244141,431.884766 C295.244141,434.944677 296.277659,437.312817 298.344727,438.989258 C300.411794,440.665698 303.007797,441.503906 306.132812,441.503906 C309.257828,441.503906 311.853831,440.690112 313.920898,439.0625 C315.987966,437.434888 317.021484,435.042333 317.021484,431.884766 L317.021484,417.089844 C317.021484,413.964828 315.987966,411.58855 313.920898,409.960938 C311.853831,408.333325 309.257828,407.519531 306.132812,407.519531 Z M366.777344,407.519531 C362.773417,407.519531 359.860035,408.715808 358.037109,411.108398 C356.214184,413.500989 355.302734,416.699199 355.302734,420.703125 L355.302734,428.320312 C355.302734,432.324239 356.214184,435.522449 358.037109,437.915039 C359.860035,440.307629 362.773417,441.503906 366.777344,441.503906 C370.032568,441.503906 372.596019,440.616871 374.467773,438.842773 C376.339528,437.068676 377.275391,434.68426 377.275391,431.689453 L377.275391,417.285156 C377.275391,414.29035 376.347666,411.914071 374.492188,410.15625 C372.636709,408.398429 370.065121,407.519531 366.777344,407.519531 Z M424.443359,407.519531 C421.318344,407.519531 418.722341,408.349601 416.655273,410.009766 C414.588206,411.66993 413.554688,414.029933 413.554688,417.089844 L413.554688,431.884766 C413.554688,434.944677 414.588206,437.312817 416.655273,438.989258 C418.722341,440.665698 421.318344,441.503906 424.443359,441.503906 C427.568375,441.503906 430.164378,440.690112 432.231445,439.0625 C434.298513,437.434888 435.332031,435.042333 435.332031,431.884766 L435.332031,417.089844 C435.332031,413.964828 434.298513,411.58855 432.231445,409.960938 C430.164378,408.333325 427.568375,407.519531 424.443359,407.519531 Z M152.421875,397.705078 L151.982422,397.705078 L143.779297,424.511719 L160.283203,424.511719 L152.421875,397.705078 Z M501.689453,381.982422 L501.689453,393.115234 L488.798828,393.115234 L488.798828,381.982422 L501.689453,381.982422 Z"/>
  </g>
</svg>
