<svg xmlns="http://www.w3.org/2000/svg" width="1200" height="675" viewBox="0 0 1200 675">
  <g fill="none" fill-rule="evenodd">
    <path fill="#000" fill-rule="nonzero" d="M0 0H1200V675H0z"/>
    <g transform="translate(638)">
      <path fill="#1F242C" fill-rule="nonzero" d="M462.1 450L449.6 450 449.6 462.506 462.1 462.506zM474.59 462.506L462.1 462.506 462.1 475.013 474.59 475.013zM487.05 450L474.56 450 474.56 462.506 487.05 462.506zM462.1 474.981L449.6 474.981 449.6 487.487 462.1 487.487z"/>
      <path fill="#1F242C" fill-rule="nonzero" d="M487.05 474.981L474.56 474.981 474.56 487.487 487.05 487.487zM499.55 462.506L487.05 462.506 487.05 475.013 499.55 475.013zM474.59 487.487L462.1 487.487 462.1 499.994 474.59 499.994zM462.1 499.994L449.6 499.994 449.6 512.5 462.1 512.5zM487.05 499.994L474.56 499.994 474.56 512.5 487.05 512.5zM499.55 487.487L487.05 487.487 487.05 499.994 499.55 499.994zM474.59 512.506L462.1 512.506 462.1 525.013 474.59 525.013zM462.1 524.981L449.6 524.981 449.6 537.487 462.1 537.487z"/>
      <path fill="#1F242C" fill-rule="nonzero" d="M487.05 524.981L474.56 524.981 474.56 537.487 487.05 537.487zM499.55 512.506L487.05 512.506 487.05 525.013 499.55 525.013zM474.59 537.487L462.1 537.487 462.1 549.994 474.59 549.994zM462.1 549.994L449.6 549.994 449.6 562.5 462.1 562.5zM487.05 549.994L474.56 549.994 474.56 562.5 487.05 562.5zM499.55 537.487L487.05 537.487 487.05 549.994 499.55 549.994zM512.05 450L499.56 450 499.56 462.506 512.05 462.506zM524.55 462.506L512.05 462.506 512.05 475.013 524.55 475.013zM537.01 450L524.51 450 524.51 462.506 537.01 462.506zM512.05 474.981L499.56 474.981 499.56 487.487 512.05 487.487z"/>
      <path fill="#1F242C" fill-rule="nonzero" d="M537.01 474.981L524.51 474.981 524.51 487.487 537.01 487.487zM549.5 462.506L537.01 462.506 537.01 475.013 549.5 475.013zM524.55 487.487L512.05 487.487 512.05 499.994 524.55 499.994zM512.05 499.994L499.56 499.994 499.56 512.5 512.05 512.5zM537.01 499.994L524.51 499.994 524.51 512.5 537.01 512.5zM549.5 487.487L537.01 487.487 537.01 499.994 549.5 499.994zM524.55 512.506L512.05 512.506 512.05 525.013 524.55 525.013zM512.05 524.981L499.56 524.981 499.56 537.487 512.05 537.487z"/>
      <path fill="#1F242C" fill-rule="nonzero" d="M537.01 524.981L524.51 524.981 524.51 537.487 537.01 537.487zM549.5 512.506L537.01 512.506 537.01 525.013 549.5 525.013zM524.55 537.487L512.05 537.487 512.05 549.994 524.55 549.994zM512.05 549.994L499.56 549.994 499.56 562.5 512.05 562.5zM537.01 549.994L524.51 549.994 524.51 562.5 537.01 562.5zM562 450L549.5 450 549.5 462.506 562 462.506zM562 474.981L549.5 474.981 549.5 487.487 562 487.487zM562 499.994L549.5 499.994 549.5 512.5 562 512.5zM562 524.981L549.5 524.981 549.5 537.487 562 537.487zM562 549.994L549.5 549.994 549.5 562.5 562 562.5zM549.5 537.487L537.01 537.487 537.01 549.994 549.5 549.994z"/>
      <path fill="#1F242C" d="M424.61,262.519 L412.15,262.519 L412.15,274.994 L424.61,274.994 L424.61,287.5 L412.15,287.5 L412.15,300.006 L424.61,300.006 L424.61,312.481 L437.11,312.481 L437.11,324.987 L424.61,324.987 L424.61,312.512 L412.15,312.512 L412.15,324.987 L424.61,324.987 L424.61,337.5 L412.11,337.5 L412.11,324.994 L399.65,324.994 L399.65,312.519 L387.16,312.519 L387.16,324.994 L374.66,324.994 L374.66,312.519 L362.2,312.519 L362.2,324.994 L374.66,324.994 L374.66,337.5 L362.17,337.5 L362.17,324.994 L349.702,324.994 L349.702,337.5 L337.2,337.5 L337.2,324.994 L349.695,324.994 L349.695,312.519 L337.2,312.519 L337.2,300.012 L349.695,300.012 L349.695,287.506 L337.2,287.506 L337.2,275 L349.695,275 L349.695,262.525 L349.695,262.494 L362.16,262.494 L362.16,250.019 L374.65,250.019 L374.65,262.494 L387.15,262.494 L387.15,250.019 L399.64,250.019 L399.64,262.494 L412.11,262.494 L412.11,250.019 L424.6,250.019 L424.6,262.494 L437.1,262.494 L437.1,275 L424.6,275 L424.6,262.519 L424.61,262.519 Z M349.695,262.488 L349.695,250.012 L337.2,250.012 L337.2,262.519 L349.695,262.519 L349.695,262.488 Z M387.15,324.994 L387.15,337.5 L399.64,337.5 L399.64,324.994 L387.15,324.994 Z M424.61,300.012 L424.61,287.506 L437.11,287.506 L437.11,300.012 L424.61,300.012 Z M362.16,312.488 L349.695,312.488 L349.695,300.012 L362.16,300.012 L362.16,312.488 Z M362.19,250.012 L362.19,237.506 L374.65,237.506 L374.65,250.012 L387.15,250.012 L387.15,237.506 L399.64,237.506 L399.64,250.012 L412.14,250.012 L412.14,237.506 L424.6,237.506 L424.6,250.012 L437.1,250.012 L437.1,237.506 L424.6,237.506 L424.6,225 L412.11,225 L412.11,237.506 L399.64,237.506 L399.64,225 L387.15,225 L387.15,237.506 L374.65,237.506 L374.65,225 L362.16,225 L362.16,237.506 L349.695,237.506 L349.695,225 L337.2,225 L337.2,237.506 L349.695,237.506 L349.695,250.012 L362.19,250.012 Z M412.11,274.994 L412.11,287.5 L399.64,287.5 L399.64,274.994 L412.11,274.994 Z M387.15,274.994 L387.15,262.519 L399.64,262.519 L399.64,274.994 L387.15,274.994 Z M374.65,274.994 L387.15,274.994 L387.15,287.5 L374.65,287.5 L374.65,274.994 Z M374.65,274.994 L362.19,274.994 L362.19,262.519 L374.65,262.519 L374.65,274.994 Z M374.65,300.012 L362.19,300.012 L362.19,287.506 L374.65,287.506 L374.65,300.012 Z M387.15,300.012 L387.15,312.488 L374.65,312.488 L374.65,300.012 L387.15,300.012 Z M399.65,300.012 L387.16,300.012 L387.16,287.506 L399.65,287.506 L399.65,300.012 Z M399.65,300.012 L412.11,300.012 L412.11,312.488 L399.65,312.488 L399.65,300.012 Z M362.16,287.506 L362.16,275 L349.695,275 L349.695,287.506 L362.16,287.506 Z M449.6,324.994 L437.11,324.994 L437.11,337.5 L449.6,337.5 L449.6,324.994 Z M437.11,300.012 L449.6,300.012 L449.6,312.519 L437.11,312.519 L437.11,300.012 Z M449.6,274.994 L437.11,274.994 L437.11,287.5 L449.6,287.5 L449.6,274.994 Z M437.11,250.012 L449.6,250.012 L449.6,262.519 L437.11,262.519 L437.11,250.012 Z M437.11,225 L449.6,225 L449.6,237.506 L437.11,237.506 L437.11,225 Z"/>
      <path fill="#4038FF" d="M549.51,225 L562,225 L562,112.5 L549.51,112.5 L549.51,225 Z M537.02,225 L524.53,225 L524.53,112.5 L537.02,112.5 L537.02,225 Z M512.04,225 L499.56,225 L499.56,112.5 L512.04,112.5 L512.04,225 Z M474.58,225 L487.07,225 L487.07,112.5 L474.58,112.5 L474.58,225 Z M462.09,225 L449.6,225 L449.6,112.5 L462.09,112.5 L462.09,225 Z"/>
      <path fill="#FFF" d="M449.6,462.506 L449.6,450 L337.2,450 L337.2,462.506 L449.6,462.506 Z M449.6,475 L449.6,487.5 L337.2,487.5 L337.2,475 L449.6,475 Z M449.6,500 L449.6,512.5 L337.2,512.5 L337.2,500 L449.6,500 Z M449.6,537.5 L449.6,525 L337.2,525 L337.2,537.5 L449.6,537.5 Z M449.6,550 L449.6,562.5 L337.2,562.5 L337.2,550 L449.6,550 Z"/>
      <path fill="#1F242C" d="M449.6 99.9938L449.6 112.5 337.2 112.5 337.2 99.9938 449.6 99.9938zM449.6 62.4875L449.6 49.9813 337.2 49.9813 337.2 62.4875 449.6 62.4875zM449.6 24.9813L449.6 37.4875 337.2 37.4875 337.2 24.9813 449.6 24.9813zM449.6 0L449.6 12.5063 337.2 12.5063 337.2 0 449.6 0zM449.6 87.4875L449.6 74.9812 337.2 74.9812 337.2 87.4875 449.6 87.4875zM549.51 337.5L562 337.5C562 399.631 511.68 450 449.6 450L449.6 437.5C504.78 437.5 549.51 392.731 549.51 337.5zM524.53 337.5L537.02 337.5C537.02 385.825 497.88 425 449.6 425L449.6 412.5C490.98 412.5 524.53 378.919 524.53 337.5zM512.04 337.5L499.56 337.5C499.56 365.112 477.19 387.5 449.6 387.5L449.6 400C484.09 400 512.04 372.019 512.04 337.5zM474.58 337.5L487.07 337.5C487.07 358.212 470.29 375 449.6 375L449.6 362.5C463.39 362.5 474.58 351.306 474.58 337.5zM449.6 337.5L462.09 337.5C462.09 344.406 456.5 350 449.6 350L449.6 337.5z"/>
      <path fill="#4038FF" d="M349.689,450 L337.2,450 C337.2,387.869 387.52,337.5 449.6,337.5 L449.6,350 C394.42,350 349.689,394.769 349.689,450 Z M374.67,450 L362.18,450 C362.18,401.675 401.32,362.5 449.6,362.5 L449.6,375 C408.22,375 374.67,408.581 374.67,450 Z M387.16,450 L399.64,450 C399.64,422.387 422.01,400 449.6,400 L449.6,387.5 C415.11,387.5 387.16,415.481 387.16,450 Z M424.62,450 L412.13,450 C412.13,429.287 428.91,412.5 449.6,412.5 L449.6,425 C435.81,425 424.62,436.194 424.62,450 Z M449.6,450 L437.11,450 C437.11,443.094 442.7,437.5 449.6,437.5 L449.6,450 Z"/>
      <path fill="#4038FF" fill-rule="nonzero" d="M449.6,562.5 L449.6,675 L562,675 C562,612.869 511.68,562.5 449.6,562.5 Z"/>
      <path fill="#1F242C" fill-rule="nonzero" d="M0 675L112.4 675 112.4 562.5C50.324 562.5 0 612.869 0 675zM224.8 562.5L337.2 562.5 337.2 450C275.124 450 224.8 500.369 224.8 562.5z"/>
      <path fill="#4038FF" d="M237.295,675 L224.8,675 L224.8,562.5 L237.295,562.5 L237.295,675 Z M274.768,675 L287.263,675 L287.263,562.5 L274.768,562.5 L274.768,675 Z M312.241,675 L299.746,675 L299.746,562.5 L312.241,562.5 L312.241,675 Z M337.2,675 L324.705,675 L324.705,562.5 L337.2,562.5 L337.2,675 Z M249.79,675 L262.285,675 L262.285,562.5 L249.79,562.5 L249.79,675 Z"/>
      <path fill="#FFF" d="M337.2,328.688 L337.2,337.5 L328.395,337.5 L224.8,233.813 L224.8,225 L233.604,225 L337.2,328.688 Z M224.8,251.5 L224.8,269.188 L293.052,337.5 L310.723,337.5 L224.8,251.5 Z M224.8,304.562 L224.8,286.875 L275.38,337.5 L257.708,337.5 L224.8,304.562 Z M224.8,337.5 L240.036,337.5 L224.8,322.25 L224.8,337.5 Z M251.276,225 L268.948,225 L337.2,293.312 L337.2,311 L251.276,225 Z M304.292,225 L286.62,225 L337.2,275.625 L337.2,257.938 L304.292,225 Z M337.2,240.25 L321.963,225 L337.2,225 L337.2,240.25 Z"/>
    </g>
    <path fill="#1F242C" fill-rule="nonzero" d="M0 100.905L0 113.4 12.506 113.4 12.506 100.905zM12.506 88.409L12.506 100.904 25.012 100.904 25.012 88.409zM0 75.945L0 88.44 12.506 88.44 12.506 75.945zM24.981 100.905L24.981 113.4 37.488 113.4 37.488 100.905z"/>
    <path fill="#1F242C" fill-rule="nonzero" d="M24.981 75.945L24.981 88.44 37.488 88.44 37.488 75.945z"/>
    <path fill="#1F242C" fill-rule="nonzero" d="M12.506 63.451L12.506 75.946 25.012 75.946 25.012 63.451zM37.487 88.409L37.487 100.904 49.994 100.904 49.994 88.409zM49.994 100.905L49.994 113.4 62.5 113.4 62.5 100.905zM49.994 75.945L49.994 88.44 62.5 88.44 62.5 75.945zM37.487 63.451L37.487 75.946 49.994 75.946 49.994 63.451zM62.506 88.409L62.506 100.904 75.012 100.904 75.012 88.409zM74.981 100.905L74.981 113.4 87.488 113.4 87.488 100.905z"/>
    <path fill="#1F242C" fill-rule="nonzero" d="M74.981 75.945L74.981 88.44 87.488 88.44 87.488 75.945z"/>
    <path fill="#1F242C" fill-rule="nonzero" d="M62.506 63.451L62.506 75.946 75.012 75.946 75.012 63.451zM87.487 88.409L87.487 100.904 99.994 100.904 99.994 88.409zM99.994 100.905L99.994 113.4 112.5 113.4 112.5 100.905zM99.994 75.945L99.994 88.44 112.5 88.44 112.5 75.945zM87.487 63.451L87.487 75.946 99.994 75.946 99.994 63.451zM0 50.949L0 63.444 12.506 63.444 12.506 50.949zM12.506 38.454L12.506 50.949 25.012 50.949 25.012 38.454zM0 25.99L0 38.485 12.506 38.485 12.506 25.99zM24.981 50.949L24.981 63.444 37.488 63.444 37.488 50.949z"/>
    <path fill="#1F242C" fill-rule="nonzero" d="M24.981 25.99L24.981 38.485 37.488 38.485 37.488 25.99zM12.506 13.495L12.506 25.99 25.012 25.99 25.012 13.495z"/>
    <path fill="#1F242C" fill-rule="nonzero" d="M37.487 38.454L37.487 50.949 49.994 50.949 49.994 38.454zM49.994 50.949L49.994 63.444 62.5 63.444 62.5 50.949zM49.994 25.99L49.994 38.485 62.5 38.485 62.5 25.99zM37.487 13.495L37.487 25.99 49.994 25.99 49.994 13.495zM62.506 38.454L62.506 50.949 75.012 50.949 75.012 38.454zM74.981 50.949L74.981 63.444 87.488 63.444 87.488 50.949z"/>
    <path fill="#1F242C" fill-rule="nonzero" d="M74.981 25.99L74.981 38.485 87.488 38.485 87.488 25.99zM62.506 13.495L62.506 25.99 75.012 25.99 75.012 13.495z"/>
    <path fill="#1F242C" fill-rule="nonzero" d="M87.487 38.454L87.487 50.949 99.994 50.949 99.994 38.454zM99.994 50.949L99.994 63.444 112.5 63.444 112.5 50.949zM99.994 25.99L99.994 38.485 112.5 38.485 112.5 25.99zM0 1L0 13.495 12.506 13.495 12.506 1zM24.981 1L24.981 13.495 37.488 13.495 37.488 1zM49.994 1L49.994 13.495 62.5 13.495 62.5 1zM74.981 1L74.981 13.495 87.488 13.495 87.488 1zM99.994 1L99.994 13.495 112.5 13.495 112.5 1zM87.487 13.495L87.487 25.99 99.994 25.99 99.994 13.495z"/>
    <path fill="#FFF" d="M12.5063,113.4 L-4.91316e-06,113.4 L-4.91316e-06,225.8 L12.5063,225.8 L12.5063,113.4 Z M25,113.4 L37.5,113.4 L37.5,225.8 L25,225.8 L25,113.4 Z M50,113.4 L62.5,113.4 L62.5,225.8 L50,225.8 L50,113.4 Z M87.5,113.4 L75,113.4 L75,225.8 L87.5,225.8 L87.5,113.4 Z M100,113.4 L112.5,113.4 L112.5,225.8 L100,225.8 L100,113.4 Z"/>
    <path fill="#4038FF" fill-rule="nonzero" d="M112.5,113.4 L225,113.4 L225,1.00034 C162.869,1.00034 112.5,51.3243 112.5,113.4 Z"/>
    <path fill="#1F242C" fill-rule="nonzero" d="M225 563L225 450.6 112.5 450.6C112.5 512.676 162.869 563 225 563zM112.45 225.75L.0499017 225.75.0499017 338.25C62.126 338.25 112.45 287.881 112.45 225.75z"/>
    <path fill="#4038FF" d="M337.5,212.905 L337.5,225.4 L225,225.4 L225,212.905 L337.5,212.905 Z M337.5,175.432 L337.5,162.937 L225,162.937 L225,175.432 L337.5,175.432 Z M337.5,137.959 L337.5,150.454 L225,150.454 L225,137.959 L337.5,137.959 Z M337.5,113 L337.5,125.495 L225,125.495 L225,113 L337.5,113 Z M337.5,200.41 L337.5,187.915 L225,187.915 L225,200.41 L337.5,200.41 Z"/>
  </g>
</svg>
