<?xml version="1.0" encoding="UTF-8"?>
<svg width="1200px" height="675px" viewBox="0 0 1200 675" version="1.1" xmlns="http://www.w3.org/2000/svg" xmlns:xlink="http://www.w3.org/1999/xlink">
    <!-- Generator: Sketch 59.1 (86144) - https://sketch.com -->
    <title>Twitter-template-20</title>
    <desc>Created with Sketch.</desc>
    <g id="Twitter-template-20" stroke="none" stroke-width="1" fill="none" fill-rule="evenodd">
        <rect fill="#000000" x="0" y="0" width="1200" height="675"></rect>
        <g id="Group" transform="translate(693.000000, 141.000000) rotate(-90.000000) translate(-693.000000, -141.000000) translate(552.000000, -28.000000)">
            <path d="M212.49375,131.259375 L206.25625,131.259375 L206.25625,137.496875 L212.49375,137.496875 L212.49375,143.75 L206.25625,143.75 L206.25625,150.003125 L212.49375,150.003125 L212.49375,156.240625 L218.746875,156.240625 L218.746875,162.49375 L212.49375,162.49375 L212.49375,156.25625 L206.25625,156.25625 L206.25625,162.49375 L212.49375,162.49375 L212.49375,168.75 L206.240625,168.75 L206.240625,162.496875 L200.003125,162.496875 L200.003125,156.259375 L193.75,156.259375 L193.75,162.496875 L187.496875,162.496875 L187.496875,156.259375 L181.259375,156.259375 L181.259375,162.496875 L187.496875,162.496875 L187.496875,168.75 L181.24375,168.75 L181.24375,162.496875 L175.00625,162.496875 L175.00625,168.75 L168.75,168.75 L168.75,162.496875 L175.003125,162.496875 L175.003125,156.259375 L168.75,156.259375 L168.75,150.00625 L175.003125,150.00625 L175.003125,143.753125 L168.75,143.753125 L168.75,137.5 L175.003125,137.5 L175.003125,131.2625 L175.003125,131.246875 L181.240625,131.246875 L181.240625,125.009375 L187.49375,125.009375 L187.49375,131.246875 L193.746875,131.246875 L193.746875,125.009375 L200,125.009375 L200,131.246875 L206.2375,131.246875 L206.2375,125.009375 L212.490625,125.009375 L212.490625,131.246875 L218.74375,131.246875 L218.74375,137.5 L212.490625,137.5 L212.490625,131.259375 L212.49375,131.259375 Z M175.003125,131.24375 L175.003125,125.00625 L168.75,125.00625 L168.75,131.259375 L175.003125,131.259375 L175.003125,131.24375 Z M193.746875,162.496875 L193.746875,168.75 L200,168.75 L200,162.496875 L193.746875,162.496875 Z M212.49375,150.00625 L212.49375,143.753125 L218.746875,143.753125 L218.746875,150.00625 L212.49375,150.00625 Z M181.240625,156.24375 L175.003125,156.24375 L175.003125,150.00625 L181.240625,150.00625 L181.240625,156.24375 Z M181.25625,125.00625 L181.25625,118.753125 L187.49375,118.753125 L187.49375,125.00625 L193.746875,125.00625 L193.746875,118.753125 L200,118.753125 L200,125.00625 L206.253125,125.00625 L206.253125,118.753125 L212.490625,118.753125 L212.490625,125.00625 L218.74375,125.00625 L218.74375,118.753125 L212.490625,118.753125 L212.490625,112.5 L206.2375,112.5 L206.2375,118.753125 L200,118.753125 L200,112.5 L193.746875,112.5 L193.746875,118.753125 L187.49375,118.753125 L187.49375,112.5 L181.240625,112.5 L181.240625,118.753125 L175.003125,118.753125 L175.003125,112.5 L168.75,112.5 L168.75,118.753125 L175.003125,118.753125 L175.003125,125.00625 L181.25625,125.00625 Z M206.2375,137.496875 L206.2375,143.75 L200,143.75 L200,137.496875 L206.2375,137.496875 Z M193.746875,137.496875 L193.746875,131.259375 L200,131.259375 L200,137.496875 L193.746875,137.496875 Z M187.49375,137.496875 L193.746875,137.496875 L193.746875,143.75 L187.49375,143.75 L187.49375,137.496875 Z M187.49375,137.496875 L181.25625,137.496875 L181.25625,131.259375 L187.49375,131.259375 L187.49375,137.496875 Z M187.49375,150.00625 L181.25625,150.00625 L181.25625,143.753125 L187.49375,143.753125 L187.49375,150.00625 Z M193.746875,150.00625 L193.746875,156.24375 L187.49375,156.24375 L187.49375,150.00625 L193.746875,150.00625 Z M200.003125,150.00625 L193.75,150.00625 L193.75,143.753125 L200.003125,143.753125 L200.003125,150.00625 Z M200.003125,150.00625 L206.240625,150.00625 L206.240625,156.24375 L200.003125,156.24375 L200.003125,150.00625 Z M181.240625,143.753125 L181.240625,137.5 L175.003125,137.5 L175.003125,143.753125 L181.240625,143.753125 Z M225,162.496875 L218.746875,162.496875 L218.746875,168.75 L225,168.75 L225,162.496875 Z M218.746875,150.00625 L225,150.00625 L225,156.259375 L218.746875,156.259375 L218.746875,150.00625 Z M225,137.496875 L218.746875,137.496875 L218.746875,143.75 L225,143.75 L225,137.496875 Z M218.746875,125.00625 L225,125.00625 L225,131.259375 L218.746875,131.259375 L218.746875,125.00625 Z M218.746875,112.5 L225,112.5 L225,118.753125 L218.746875,118.753125 L218.746875,112.5 Z" id="Shape" fill="#1F242C"></path>
            <path d="M268.74375,243.759375 L262.50625,243.759375 L262.50625,249.996875 L268.74375,249.996875 L268.74375,256.25 L262.50625,256.25 L262.50625,262.503125 L268.74375,262.503125 L268.74375,268.740625 L274.996875,268.740625 L274.996875,274.99375 L268.74375,274.99375 L268.74375,268.75625 L262.50625,268.75625 L262.50625,274.99375 L268.74375,274.99375 L268.74375,281.25 L262.490625,281.25 L262.490625,274.996875 L256.253125,274.996875 L256.253125,268.759375 L250,268.759375 L250,274.996875 L243.746875,274.996875 L243.746875,268.759375 L237.509375,268.759375 L237.509375,274.996875 L243.746875,274.996875 L243.746875,281.25 L237.49375,281.25 L237.49375,274.996875 L231.25625,274.996875 L231.25625,281.25 L225,281.25 L225,274.996875 L231.253125,274.996875 L231.253125,268.759375 L225,268.759375 L225,262.50625 L231.253125,262.50625 L231.253125,256.253125 L225,256.253125 L225,250 L231.253125,250 L231.253125,243.7625 L231.253125,243.746875 L237.490625,243.746875 L237.490625,237.509375 L243.74375,237.509375 L243.74375,243.746875 L249.996875,243.746875 L249.996875,237.509375 L256.25,237.509375 L256.25,243.746875 L262.4875,243.746875 L262.4875,237.509375 L268.740625,237.509375 L268.740625,243.746875 L274.99375,243.746875 L274.99375,250 L268.740625,250 L268.740625,243.759375 L268.74375,243.759375 Z M231.253125,243.74375 L231.253125,237.50625 L225,237.50625 L225,243.759375 L231.253125,243.759375 L231.253125,243.74375 Z M249.996875,274.996875 L249.996875,281.25 L256.25,281.25 L256.25,274.996875 L249.996875,274.996875 Z M268.74375,262.50625 L268.74375,256.253125 L274.996875,256.253125 L274.996875,262.50625 L268.74375,262.50625 Z M237.490625,268.74375 L231.253125,268.74375 L231.253125,262.50625 L237.490625,262.50625 L237.490625,268.74375 Z M237.50625,237.50625 L237.50625,231.253125 L243.74375,231.253125 L243.74375,237.50625 L249.996875,237.50625 L249.996875,231.253125 L256.25,231.253125 L256.25,237.50625 L262.503125,237.50625 L262.503125,231.253125 L268.740625,231.253125 L268.740625,237.50625 L274.99375,237.50625 L274.99375,231.253125 L268.740625,231.253125 L268.740625,225 L262.4875,225 L262.4875,231.253125 L256.25,231.253125 L256.25,225 L249.996875,225 L249.996875,231.253125 L243.74375,231.253125 L243.74375,225 L237.490625,225 L237.490625,231.253125 L231.253125,231.253125 L231.253125,225 L225,225 L225,231.253125 L231.253125,231.253125 L231.253125,237.50625 L237.50625,237.50625 Z M262.4875,249.996875 L262.4875,256.25 L256.25,256.25 L256.25,249.996875 L262.4875,249.996875 Z M249.996875,249.996875 L249.996875,243.759375 L256.25,243.759375 L256.25,249.996875 L249.996875,249.996875 Z M243.74375,249.996875 L249.996875,249.996875 L249.996875,256.25 L243.74375,256.25 L243.74375,249.996875 Z M243.74375,249.996875 L237.50625,249.996875 L237.50625,243.759375 L243.74375,243.759375 L243.74375,249.996875 Z M243.74375,262.50625 L237.50625,262.50625 L237.50625,256.253125 L243.74375,256.253125 L243.74375,262.50625 Z M249.996875,262.50625 L249.996875,268.74375 L243.74375,268.74375 L243.74375,262.50625 L249.996875,262.50625 Z M256.253125,262.50625 L250,262.50625 L250,256.253125 L256.253125,256.253125 L256.253125,262.50625 Z M256.253125,262.50625 L262.490625,262.50625 L262.490625,268.74375 L256.253125,268.74375 L256.253125,262.50625 Z M237.490625,256.253125 L237.490625,250 L231.253125,250 L231.253125,256.253125 L237.490625,256.253125 Z M281.25,274.996875 L274.996875,274.996875 L274.996875,281.25 L281.25,281.25 L281.25,274.996875 Z M274.996875,262.50625 L281.25,262.50625 L281.25,268.759375 L274.996875,268.759375 L274.996875,262.50625 Z M281.25,249.996875 L274.996875,249.996875 L274.996875,256.25 L281.25,256.25 L281.25,249.996875 Z M274.996875,237.50625 L281.25,237.50625 L281.25,243.759375 L274.996875,243.759375 L274.996875,237.50625 Z M274.996875,225 L281.25,225 L281.25,231.253125 L274.996875,231.253125 L274.996875,225 Z" id="Shape-Copy" fill="#1F242C"></path>
            <path d="M274.996875,112.5 L281.25,112.5 L281.25,56.25 L274.996875,56.25 L274.996875,112.5 Z M268.75,112.5 L262.5,112.5 L262.5,56.25 L268.75,56.25 L268.75,112.5 Z M256.25,112.5 L250,112.5 L250,56.25 L256.25,56.25 L256.25,112.5 Z M237.5,112.5 L243.75,112.5 L243.75,56.25 L237.5,56.25 L237.5,112.5 Z M231.25,112.5 L225,112.5 L225,56.25 L231.25,56.25 L231.25,112.5 Z" id="Shape" fill="#4038FF"></path>
            <path d="M225.25,49.996875 L225.25,56.25 L169,56.25 L169,49.996875 L225.25,49.996875 Z M225.25,31.24375 L225.25,24.990625 L169,24.990625 L169,31.24375 L225.25,31.24375 Z M225.25,12.490625 L225.25,18.74375 L169,18.74375 L169,12.490625 L225.25,12.490625 Z M225.25,0 L225.25,6.253125 L169,6.253125 L169,0 L225.25,0 Z M225.25,43.74375 L225.25,37.490625 L169,37.490625 L169,43.74375 L225.25,43.74375 Z" id="Shape" fill="#1F242C"></path>
            <path d="M275,168.75 L281.25,168.75 C281.25,199.815625 256.065625,225 225,225 L225,218.75 C252.615625,218.75 275,196.365625 275,168.75 Z M262.5,168.75 L268.75,168.75 C268.75,192.9125 249.1625,212.5 225,212.5 L225,206.25 C245.709375,206.25 262.5,189.459375 262.5,168.75 Z M256.25,168.75 L250,168.75 C250,182.55625 238.80625,193.75 225,193.75 L225,200 C242.259375,200 256.25,186.009375 256.25,168.75 Z M237.5,168.75 L243.75,168.75 C243.75,179.10625 235.35625,187.5 225,187.5 L225,181.25 C231.903125,181.25 237.5,175.653125 237.5,168.75 Z M225,168.75 L231.25,168.75 C231.25,172.203125 228.453125,175 225,175 L225,168.75 Z" id="Shape" fill="#1F242C"></path>
            <path d="M175,225 L168.75,225 C168.75,193.934375 193.934375,168.75 225,168.75 L225,175 C197.384375,175 175,197.384375 175,225 Z M187.5,225 L181.25,225 C181.25,200.8375 200.8375,181.25 225,181.25 L225,187.5 C204.290625,187.5 187.5,204.290625 187.5,225 Z M193.75,225 L200,225 C200,211.19375 211.19375,200 225,200 L225,193.75 C207.740625,193.75 193.75,207.740625 193.75,225 Z M212.5,225 L206.25,225 C206.25,214.64375 214.64375,206.25 225,206.25 L225,212.5 C218.096875,212.5 212.5,218.096875 212.5,225 Z M225,225 L218.75,225 C218.75,221.546875 221.546875,218.75 225,218.75 L225,225 Z" id="Shape" fill="#4038FF"></path>
            <path d="M168.75,164.34375 L168.75,168.75 L164.34375,168.75 L112.5,116.90625 L112.5,112.5 L116.90625,112.5 L168.75,164.34375 Z M112.5,125.75 L112.5,134.59375 L146.65625,168.75 L155.5,168.75 L112.5,125.75 Z M112.5,152.28125 L112.5,143.4375 L137.8125,168.75 L128.96875,168.75 L112.5,152.28125 Z M112.5,168.75 L120.125,168.75 L112.5,161.125 L112.5,168.75 Z M125.75,112.5 L134.59375,112.5 L168.75,146.65625 L168.75,155.5 L125.75,112.5 Z M152.28125,112.5 L143.4375,112.5 L168.75,137.8125 L168.75,128.96875 L152.28125,112.5 Z M168.75,120.125 L161.125,112.5 L168.75,112.5 L168.75,120.125 Z" id="Shape" fill="#FFFFFF"></path>
            <path d="M225,231.253125 L225,225 L168.75,225 L168.75,231.253125 L225,231.253125 Z M225,237.5 L225,243.75 L168.75,243.75 L168.75,237.5 L225,237.5 Z M225,250 L225,256.25 L168.75,256.25 L168.75,250 L225,250 Z M225,268.75 L225,262.5 L168.75,262.5 L168.75,268.75 L225,268.75 Z M225,275 L225,281.25 L168.75,281.25 L168.75,275 L225,275 Z" id="Shape" fill="#FFFFFF"></path>
            <path d="M225,281.25 L225,337.5 L281.25,337.5 C281.25,306.434375 256.065625,281.25 225,281.25 Z" id="Path" fill="#4038FF" fill-rule="nonzero"></path>
            <path d="M0,337.5 L56.25,337.5 L56.25,281.25 C25.184375,281.25 0,306.434375 0,337.5 Z" id="Path" fill="#1F242C" fill-rule="nonzero" transform="translate(28.125000, 309.375000) rotate(-270.000000) translate(-28.125000, -309.375000) "></path>
            <path d="M112.5,281.25 L168.75,281.25 L168.75,225 C137.684375,225 112.5,250.184375 112.5,281.25 Z" id="Path" fill="#1F242C" fill-rule="nonzero"></path>
            <path d="M118.753125,337.5 L112.5,337.5 L112.5,281.25 L118.753125,281.25 L118.753125,337.5 Z M137.50625,337.5 L143.759375,337.5 L143.759375,281.25 L137.50625,281.25 L137.50625,337.5 Z M156.259375,337.5 L150.00625,337.5 L150.00625,281.25 L156.259375,281.25 L156.259375,337.5 Z M168.75,337.5 L162.496875,337.5 L162.496875,281.25 L168.75,281.25 L168.75,337.5 Z M125.00625,337.5 L131.259375,337.5 L131.259375,281.25 L125.00625,281.25 L125.00625,337.5 Z" id="Shape" fill="#4038FF"></path>
        </g>
        <g id="Group-Copy-2" transform="translate(1031.000000, 478.000000) rotate(-90.000000) translate(-1031.000000, -478.000000) translate(890.000000, 309.000000)">
            <path d="M212.49375,131.259375 L206.25625,131.259375 L206.25625,137.496875 L212.49375,137.496875 L212.49375,143.75 L206.25625,143.75 L206.25625,150.003125 L212.49375,150.003125 L212.49375,156.240625 L218.746875,156.240625 L218.746875,162.49375 L212.49375,162.49375 L212.49375,156.25625 L206.25625,156.25625 L206.25625,162.49375 L212.49375,162.49375 L212.49375,168.75 L206.240625,168.75 L206.240625,162.496875 L200.003125,162.496875 L200.003125,156.259375 L193.75,156.259375 L193.75,162.496875 L187.496875,162.496875 L187.496875,156.259375 L181.259375,156.259375 L181.259375,162.496875 L187.496875,162.496875 L187.496875,168.75 L181.24375,168.75 L181.24375,162.496875 L175.00625,162.496875 L175.00625,168.75 L168.75,168.75 L168.75,162.496875 L175.003125,162.496875 L175.003125,156.259375 L168.75,156.259375 L168.75,150.00625 L175.003125,150.00625 L175.003125,143.753125 L168.75,143.753125 L168.75,137.5 L175.003125,137.5 L175.003125,131.2625 L175.003125,131.246875 L181.240625,131.246875 L181.240625,125.009375 L187.49375,125.009375 L187.49375,131.246875 L193.746875,131.246875 L193.746875,125.009375 L200,125.009375 L200,131.246875 L206.2375,131.246875 L206.2375,125.009375 L212.490625,125.009375 L212.490625,131.246875 L218.74375,131.246875 L218.74375,137.5 L212.490625,137.5 L212.490625,131.259375 L212.49375,131.259375 Z M175.003125,131.24375 L175.003125,125.00625 L168.75,125.00625 L168.75,131.259375 L175.003125,131.259375 L175.003125,131.24375 Z M193.746875,162.496875 L193.746875,168.75 L200,168.75 L200,162.496875 L193.746875,162.496875 Z M212.49375,150.00625 L212.49375,143.753125 L218.746875,143.753125 L218.746875,150.00625 L212.49375,150.00625 Z M181.240625,156.24375 L175.003125,156.24375 L175.003125,150.00625 L181.240625,150.00625 L181.240625,156.24375 Z M181.25625,125.00625 L181.25625,118.753125 L187.49375,118.753125 L187.49375,125.00625 L193.746875,125.00625 L193.746875,118.753125 L200,118.753125 L200,125.00625 L206.253125,125.00625 L206.253125,118.753125 L212.490625,118.753125 L212.490625,125.00625 L218.74375,125.00625 L218.74375,118.753125 L212.490625,118.753125 L212.490625,112.5 L206.2375,112.5 L206.2375,118.753125 L200,118.753125 L200,112.5 L193.746875,112.5 L193.746875,118.753125 L187.49375,118.753125 L187.49375,112.5 L181.240625,112.5 L181.240625,118.753125 L175.003125,118.753125 L175.003125,112.5 L168.75,112.5 L168.75,118.753125 L175.003125,118.753125 L175.003125,125.00625 L181.25625,125.00625 Z M206.2375,137.496875 L206.2375,143.75 L200,143.75 L200,137.496875 L206.2375,137.496875 Z M193.746875,137.496875 L193.746875,131.259375 L200,131.259375 L200,137.496875 L193.746875,137.496875 Z M187.49375,137.496875 L193.746875,137.496875 L193.746875,143.75 L187.49375,143.75 L187.49375,137.496875 Z M187.49375,137.496875 L181.25625,137.496875 L181.25625,131.259375 L187.49375,131.259375 L187.49375,137.496875 Z M187.49375,150.00625 L181.25625,150.00625 L181.25625,143.753125 L187.49375,143.753125 L187.49375,150.00625 Z M193.746875,150.00625 L193.746875,156.24375 L187.49375,156.24375 L187.49375,150.00625 L193.746875,150.00625 Z M200.003125,150.00625 L193.75,150.00625 L193.75,143.753125 L200.003125,143.753125 L200.003125,150.00625 Z M200.003125,150.00625 L206.240625,150.00625 L206.240625,156.24375 L200.003125,156.24375 L200.003125,150.00625 Z M181.240625,143.753125 L181.240625,137.5 L175.003125,137.5 L175.003125,143.753125 L181.240625,143.753125 Z M225,162.496875 L218.746875,162.496875 L218.746875,168.75 L225,168.75 L225,162.496875 Z M218.746875,150.00625 L225,150.00625 L225,156.259375 L218.746875,156.259375 L218.746875,150.00625 Z M225,137.496875 L218.746875,137.496875 L218.746875,143.75 L225,143.75 L225,137.496875 Z M218.746875,125.00625 L225,125.00625 L225,131.259375 L218.746875,131.259375 L218.746875,125.00625 Z M218.746875,112.5 L225,112.5 L225,118.753125 L218.746875,118.753125 L218.746875,112.5 Z" id="Shape" fill="#1F242C"></path>
            <path d="M268.74375,243.759375 L262.50625,243.759375 L262.50625,249.996875 L268.74375,249.996875 L268.74375,256.25 L262.50625,256.25 L262.50625,262.503125 L268.74375,262.503125 L268.74375,268.740625 L274.996875,268.740625 L274.996875,274.99375 L268.74375,274.99375 L268.74375,268.75625 L262.50625,268.75625 L262.50625,274.99375 L268.74375,274.99375 L268.74375,281.25 L262.490625,281.25 L262.490625,274.996875 L256.253125,274.996875 L256.253125,268.759375 L250,268.759375 L250,274.996875 L243.746875,274.996875 L243.746875,268.759375 L237.509375,268.759375 L237.509375,274.996875 L243.746875,274.996875 L243.746875,281.25 L237.49375,281.25 L237.49375,274.996875 L231.25625,274.996875 L231.25625,281.25 L225,281.25 L225,274.996875 L231.253125,274.996875 L231.253125,268.759375 L225,268.759375 L225,262.50625 L231.253125,262.50625 L231.253125,256.253125 L225,256.253125 L225,250 L231.253125,250 L231.253125,243.7625 L231.253125,243.746875 L237.490625,243.746875 L237.490625,237.509375 L243.74375,237.509375 L243.74375,243.746875 L249.996875,243.746875 L249.996875,237.509375 L256.25,237.509375 L256.25,243.746875 L262.4875,243.746875 L262.4875,237.509375 L268.740625,237.509375 L268.740625,243.746875 L274.99375,243.746875 L274.99375,250 L268.740625,250 L268.740625,243.759375 L268.74375,243.759375 Z M231.253125,243.74375 L231.253125,237.50625 L225,237.50625 L225,243.759375 L231.253125,243.759375 L231.253125,243.74375 Z M249.996875,274.996875 L249.996875,281.25 L256.25,281.25 L256.25,274.996875 L249.996875,274.996875 Z M268.74375,262.50625 L268.74375,256.253125 L274.996875,256.253125 L274.996875,262.50625 L268.74375,262.50625 Z M237.490625,268.74375 L231.253125,268.74375 L231.253125,262.50625 L237.490625,262.50625 L237.490625,268.74375 Z M237.50625,237.50625 L237.50625,231.253125 L243.74375,231.253125 L243.74375,237.50625 L249.996875,237.50625 L249.996875,231.253125 L256.25,231.253125 L256.25,237.50625 L262.503125,237.50625 L262.503125,231.253125 L268.740625,231.253125 L268.740625,237.50625 L274.99375,237.50625 L274.99375,231.253125 L268.740625,231.253125 L268.740625,225 L262.4875,225 L262.4875,231.253125 L256.25,231.253125 L256.25,225 L249.996875,225 L249.996875,231.253125 L243.74375,231.253125 L243.74375,225 L237.490625,225 L237.490625,231.253125 L231.253125,231.253125 L231.253125,225 L225,225 L225,231.253125 L231.253125,231.253125 L231.253125,237.50625 L237.50625,237.50625 Z M262.4875,249.996875 L262.4875,256.25 L256.25,256.25 L256.25,249.996875 L262.4875,249.996875 Z M249.996875,249.996875 L249.996875,243.759375 L256.25,243.759375 L256.25,249.996875 L249.996875,249.996875 Z M243.74375,249.996875 L249.996875,249.996875 L249.996875,256.25 L243.74375,256.25 L243.74375,249.996875 Z M243.74375,249.996875 L237.50625,249.996875 L237.50625,243.759375 L243.74375,243.759375 L243.74375,249.996875 Z M243.74375,262.50625 L237.50625,262.50625 L237.50625,256.253125 L243.74375,256.253125 L243.74375,262.50625 Z M249.996875,262.50625 L249.996875,268.74375 L243.74375,268.74375 L243.74375,262.50625 L249.996875,262.50625 Z M256.253125,262.50625 L250,262.50625 L250,256.253125 L256.253125,256.253125 L256.253125,262.50625 Z M256.253125,262.50625 L262.490625,262.50625 L262.490625,268.74375 L256.253125,268.74375 L256.253125,262.50625 Z M237.490625,256.253125 L237.490625,250 L231.253125,250 L231.253125,256.253125 L237.490625,256.253125 Z M281.25,274.996875 L274.996875,274.996875 L274.996875,281.25 L281.25,281.25 L281.25,274.996875 Z M274.996875,262.50625 L281.25,262.50625 L281.25,268.759375 L274.996875,268.759375 L274.996875,262.50625 Z M281.25,249.996875 L274.996875,249.996875 L274.996875,256.25 L281.25,256.25 L281.25,249.996875 Z M274.996875,237.50625 L281.25,237.50625 L281.25,243.759375 L274.996875,243.759375 L274.996875,237.50625 Z M274.996875,225 L281.25,225 L281.25,231.253125 L274.996875,231.253125 L274.996875,225 Z" id="Shape-Copy" fill="#1F242C"></path>
            <path d="M274.996875,112.5 L281.25,112.5 L281.25,56.25 L274.996875,56.25 L274.996875,112.5 Z M268.75,112.5 L262.5,112.5 L262.5,56.25 L268.75,56.25 L268.75,112.5 Z M256.25,112.5 L250,112.5 L250,56.25 L256.25,56.25 L256.25,112.5 Z M237.5,112.5 L243.75,112.5 L243.75,56.25 L237.5,56.25 L237.5,112.5 Z M231.25,112.5 L225,112.5 L225,56.25 L231.25,56.25 L231.25,112.5 Z" id="Shape" fill="#4038FF"></path>
            <path d="M225.25,49.996875 L225.25,56.25 L169,56.25 L169,49.996875 L225.25,49.996875 Z M225.25,31.24375 L225.25,24.990625 L169,24.990625 L169,31.24375 L225.25,31.24375 Z M225.25,12.490625 L225.25,18.74375 L169,18.74375 L169,12.490625 L225.25,12.490625 Z M225.25,0 L225.25,6.253125 L169,6.253125 L169,0 L225.25,0 Z M225.25,43.74375 L225.25,37.490625 L169,37.490625 L169,43.74375 L225.25,43.74375 Z" id="Shape" fill="#1F242C"></path>
            <path d="M275,168.75 L281.25,168.75 C281.25,199.815625 256.065625,225 225,225 L225,218.75 C252.615625,218.75 275,196.365625 275,168.75 Z M262.5,168.75 L268.75,168.75 C268.75,192.9125 249.1625,212.5 225,212.5 L225,206.25 C245.709375,206.25 262.5,189.459375 262.5,168.75 Z M256.25,168.75 L250,168.75 C250,182.55625 238.80625,193.75 225,193.75 L225,200 C242.259375,200 256.25,186.009375 256.25,168.75 Z M237.5,168.75 L243.75,168.75 C243.75,179.10625 235.35625,187.5 225,187.5 L225,181.25 C231.903125,181.25 237.5,175.653125 237.5,168.75 Z M225,168.75 L231.25,168.75 C231.25,172.203125 228.453125,175 225,175 L225,168.75 Z" id="Shape" fill="#1F242C"></path>
            <path d="M175,225 L168.75,225 C168.75,193.934375 193.934375,168.75 225,168.75 L225,175 C197.384375,175 175,197.384375 175,225 Z M187.5,225 L181.25,225 C181.25,200.8375 200.8375,181.25 225,181.25 L225,187.5 C204.290625,187.5 187.5,204.290625 187.5,225 Z M193.75,225 L200,225 C200,211.19375 211.19375,200 225,200 L225,193.75 C207.740625,193.75 193.75,207.740625 193.75,225 Z M212.5,225 L206.25,225 C206.25,214.64375 214.64375,206.25 225,206.25 L225,212.5 C218.096875,212.5 212.5,218.096875 212.5,225 Z M225,225 L218.75,225 C218.75,221.546875 221.546875,218.75 225,218.75 L225,225 Z" id="Shape" fill="#4038FF"></path>
            <path d="M168.75,164.34375 L168.75,168.75 L164.34375,168.75 L112.5,116.90625 L112.5,112.5 L116.90625,112.5 L168.75,164.34375 Z M112.5,125.75 L112.5,134.59375 L146.65625,168.75 L155.5,168.75 L112.5,125.75 Z M112.5,152.28125 L112.5,143.4375 L137.8125,168.75 L128.96875,168.75 L112.5,152.28125 Z M112.5,168.75 L120.125,168.75 L112.5,161.125 L112.5,168.75 Z M125.75,112.5 L134.59375,112.5 L168.75,146.65625 L168.75,155.5 L125.75,112.5 Z M152.28125,112.5 L143.4375,112.5 L168.75,137.8125 L168.75,128.96875 L152.28125,112.5 Z M168.75,120.125 L161.125,112.5 L168.75,112.5 L168.75,120.125 Z" id="Shape" fill="#FFFFFF"></path>
            <path d="M225,231.253125 L225,225 L168.75,225 L168.75,231.253125 L225,231.253125 Z M225,237.5 L225,243.75 L168.75,243.75 L168.75,237.5 L225,237.5 Z M225,250 L225,256.25 L168.75,256.25 L168.75,250 L225,250 Z M225,268.75 L225,262.5 L168.75,262.5 L168.75,268.75 L225,268.75 Z M225,275 L225,281.25 L168.75,281.25 L168.75,275 L225,275 Z" id="Shape" fill="#FFFFFF"></path>
            <path d="M225,281.25 L225,337.5 L281.25,337.5 C281.25,306.434375 256.065625,281.25 225,281.25 Z" id="Path" fill="#4038FF" fill-rule="nonzero"></path>
            <path d="M0,337.5 L56.25,337.5 L56.25,281.25 C25.184375,281.25 0,306.434375 0,337.5 Z" id="Path" fill="#1F242C" fill-rule="nonzero" transform="translate(28.125000, 309.375000) rotate(-270.000000) translate(-28.125000, -309.375000) "></path>
            <path d="M112.5,281.25 L168.75,281.25 L168.75,225 C137.684375,225 112.5,250.184375 112.5,281.25 Z" id="Path" fill="#1F242C" fill-rule="nonzero"></path>
            <path d="M118.753125,337.5 L112.5,337.5 L112.5,281.25 L118.753125,281.25 L118.753125,337.5 Z M137.50625,337.5 L143.759375,337.5 L143.759375,281.25 L137.50625,281.25 L137.50625,337.5 Z M156.259375,337.5 L150.00625,337.5 L150.00625,281.25 L156.259375,281.25 L156.259375,337.5 Z M168.75,337.5 L162.496875,337.5 L162.496875,281.25 L168.75,281.25 L168.75,337.5 Z M125.00625,337.5 L131.259375,337.5 L131.259375,281.25 L125.00625,281.25 L125.00625,337.5 Z" id="Shape" fill="#4038FF"></path>
        </g>
        <g id="Group-Copy" transform="translate(141.000000, 169.000000) rotate(-180.000000) translate(-141.000000, -169.000000) ">
            <path d="M212.49375,131.259375 L206.25625,131.259375 L206.25625,137.496875 L212.49375,137.496875 L212.49375,143.75 L206.25625,143.75 L206.25625,150.003125 L212.49375,150.003125 L212.49375,156.240625 L218.746875,156.240625 L218.746875,162.49375 L212.49375,162.49375 L212.49375,156.25625 L206.25625,156.25625 L206.25625,162.49375 L212.49375,162.49375 L212.49375,168.75 L206.240625,168.75 L206.240625,162.496875 L200.003125,162.496875 L200.003125,156.259375 L193.75,156.259375 L193.75,162.496875 L187.496875,162.496875 L187.496875,156.259375 L181.259375,156.259375 L181.259375,162.496875 L187.496875,162.496875 L187.496875,168.75 L181.24375,168.75 L181.24375,162.496875 L175.00625,162.496875 L175.00625,168.75 L168.75,168.75 L168.75,162.496875 L175.003125,162.496875 L175.003125,156.259375 L168.75,156.259375 L168.75,150.00625 L175.003125,150.00625 L175.003125,143.753125 L168.75,143.753125 L168.75,137.5 L175.003125,137.5 L175.003125,131.2625 L175.003125,131.246875 L181.240625,131.246875 L181.240625,125.009375 L187.49375,125.009375 L187.49375,131.246875 L193.746875,131.246875 L193.746875,125.009375 L200,125.009375 L200,131.246875 L206.2375,131.246875 L206.2375,125.009375 L212.490625,125.009375 L212.490625,131.246875 L218.74375,131.246875 L218.74375,137.5 L212.490625,137.5 L212.490625,131.259375 L212.49375,131.259375 Z M175.003125,131.24375 L175.003125,125.00625 L168.75,125.00625 L168.75,131.259375 L175.003125,131.259375 L175.003125,131.24375 Z M193.746875,162.496875 L193.746875,168.75 L200,168.75 L200,162.496875 L193.746875,162.496875 Z M212.49375,150.00625 L212.49375,143.753125 L218.746875,143.753125 L218.746875,150.00625 L212.49375,150.00625 Z M181.240625,156.24375 L175.003125,156.24375 L175.003125,150.00625 L181.240625,150.00625 L181.240625,156.24375 Z M181.25625,125.00625 L181.25625,118.753125 L187.49375,118.753125 L187.49375,125.00625 L193.746875,125.00625 L193.746875,118.753125 L200,118.753125 L200,125.00625 L206.253125,125.00625 L206.253125,118.753125 L212.490625,118.753125 L212.490625,125.00625 L218.74375,125.00625 L218.74375,118.753125 L212.490625,118.753125 L212.490625,112.5 L206.2375,112.5 L206.2375,118.753125 L200,118.753125 L200,112.5 L193.746875,112.5 L193.746875,118.753125 L187.49375,118.753125 L187.49375,112.5 L181.240625,112.5 L181.240625,118.753125 L175.003125,118.753125 L175.003125,112.5 L168.75,112.5 L168.75,118.753125 L175.003125,118.753125 L175.003125,125.00625 L181.25625,125.00625 Z M206.2375,137.496875 L206.2375,143.75 L200,143.75 L200,137.496875 L206.2375,137.496875 Z M193.746875,137.496875 L193.746875,131.259375 L200,131.259375 L200,137.496875 L193.746875,137.496875 Z M187.49375,137.496875 L193.746875,137.496875 L193.746875,143.75 L187.49375,143.75 L187.49375,137.496875 Z M187.49375,137.496875 L181.25625,137.496875 L181.25625,131.259375 L187.49375,131.259375 L187.49375,137.496875 Z M187.49375,150.00625 L181.25625,150.00625 L181.25625,143.753125 L187.49375,143.753125 L187.49375,150.00625 Z M193.746875,150.00625 L193.746875,156.24375 L187.49375,156.24375 L187.49375,150.00625 L193.746875,150.00625 Z M200.003125,150.00625 L193.75,150.00625 L193.75,143.753125 L200.003125,143.753125 L200.003125,150.00625 Z M200.003125,150.00625 L206.240625,150.00625 L206.240625,156.24375 L200.003125,156.24375 L200.003125,150.00625 Z M181.240625,143.753125 L181.240625,137.5 L175.003125,137.5 L175.003125,143.753125 L181.240625,143.753125 Z M225,162.496875 L218.746875,162.496875 L218.746875,168.75 L225,168.75 L225,162.496875 Z M218.746875,150.00625 L225,150.00625 L225,156.259375 L218.746875,156.259375 L218.746875,150.00625 Z M225,137.496875 L218.746875,137.496875 L218.746875,143.75 L225,143.75 L225,137.496875 Z M218.746875,125.00625 L225,125.00625 L225,131.259375 L218.746875,131.259375 L218.746875,125.00625 Z M218.746875,112.5 L225,112.5 L225,118.753125 L218.746875,118.753125 L218.746875,112.5 Z" id="Shape" fill="#1F242C"></path>
            <path d="M212.99375,243.759375 L206.75625,243.759375 L206.75625,249.996875 L212.99375,249.996875 L212.99375,256.25 L206.75625,256.25 L206.75625,262.503125 L212.99375,262.503125 L212.99375,268.740625 L219.246875,268.740625 L219.246875,274.99375 L212.99375,274.99375 L212.99375,268.75625 L206.75625,268.75625 L206.75625,274.99375 L212.99375,274.99375 L212.99375,281.25 L206.740625,281.25 L206.740625,274.996875 L200.503125,274.996875 L200.503125,268.759375 L194.25,268.759375 L194.25,274.996875 L187.996875,274.996875 L187.996875,268.759375 L181.759375,268.759375 L181.759375,274.996875 L187.996875,274.996875 L187.996875,281.25 L181.74375,281.25 L181.74375,274.996875 L175.50625,274.996875 L175.50625,281.25 L169.25,281.25 L169.25,274.996875 L175.503125,274.996875 L175.503125,268.759375 L169.25,268.759375 L169.25,262.50625 L175.503125,262.50625 L175.503125,256.253125 L169.25,256.253125 L169.25,250 L175.503125,250 L175.503125,243.7625 L175.503125,243.746875 L181.740625,243.746875 L181.740625,237.509375 L187.99375,237.509375 L187.99375,243.746875 L194.246875,243.746875 L194.246875,237.509375 L200.5,237.509375 L200.5,243.746875 L206.7375,243.746875 L206.7375,237.509375 L212.990625,237.509375 L212.990625,243.746875 L219.24375,243.746875 L219.24375,250 L212.990625,250 L212.990625,243.759375 L212.99375,243.759375 Z M175.503125,243.74375 L175.503125,237.50625 L169.25,237.50625 L169.25,243.759375 L175.503125,243.759375 L175.503125,243.74375 Z M194.246875,274.996875 L194.246875,281.25 L200.5,281.25 L200.5,274.996875 L194.246875,274.996875 Z M212.99375,262.50625 L212.99375,256.253125 L219.246875,256.253125 L219.246875,262.50625 L212.99375,262.50625 Z M181.740625,268.74375 L175.503125,268.74375 L175.503125,262.50625 L181.740625,262.50625 L181.740625,268.74375 Z M181.75625,237.50625 L181.75625,231.253125 L187.99375,231.253125 L187.99375,237.50625 L194.246875,237.50625 L194.246875,231.253125 L200.5,231.253125 L200.5,237.50625 L206.753125,237.50625 L206.753125,231.253125 L212.990625,231.253125 L212.990625,237.50625 L219.24375,237.50625 L219.24375,231.253125 L212.990625,231.253125 L212.990625,225 L206.7375,225 L206.7375,231.253125 L200.5,231.253125 L200.5,225 L194.246875,225 L194.246875,231.253125 L187.99375,231.253125 L187.99375,225 L181.740625,225 L181.740625,231.253125 L175.503125,231.253125 L175.503125,225 L169.25,225 L169.25,231.253125 L175.503125,231.253125 L175.503125,237.50625 L181.75625,237.50625 Z M206.7375,249.996875 L206.7375,256.25 L200.5,256.25 L200.5,249.996875 L206.7375,249.996875 Z M194.246875,249.996875 L194.246875,243.759375 L200.5,243.759375 L200.5,249.996875 L194.246875,249.996875 Z M187.99375,249.996875 L194.246875,249.996875 L194.246875,256.25 L187.99375,256.25 L187.99375,249.996875 Z M187.99375,249.996875 L181.75625,249.996875 L181.75625,243.759375 L187.99375,243.759375 L187.99375,249.996875 Z M187.99375,262.50625 L181.75625,262.50625 L181.75625,256.253125 L187.99375,256.253125 L187.99375,262.50625 Z M194.246875,262.50625 L194.246875,268.74375 L187.99375,268.74375 L187.99375,262.50625 L194.246875,262.50625 Z M200.503125,262.50625 L194.25,262.50625 L194.25,256.253125 L200.503125,256.253125 L200.503125,262.50625 Z M200.503125,262.50625 L206.740625,262.50625 L206.740625,268.74375 L200.503125,268.74375 L200.503125,262.50625 Z M181.740625,256.253125 L181.740625,250 L175.503125,250 L175.503125,256.253125 L181.740625,256.253125 Z M225.5,274.996875 L219.246875,274.996875 L219.246875,281.25 L225.5,281.25 L225.5,274.996875 Z M219.246875,262.50625 L225.5,262.50625 L225.5,268.759375 L219.246875,268.759375 L219.246875,262.50625 Z M225.5,249.996875 L219.246875,249.996875 L219.246875,256.25 L225.5,256.25 L225.5,249.996875 Z M219.246875,237.50625 L225.5,237.50625 L225.5,243.759375 L219.246875,243.759375 L219.246875,237.50625 Z M219.246875,225 L225.5,225 L225.5,231.253125 L219.246875,231.253125 L219.246875,225 Z" id="Shape-Copy" fill="#1F242C"></path>
            <path d="M274.996875,112.5 L281.25,112.5 L281.25,56.25 L274.996875,56.25 L274.996875,112.5 Z M268.75,112.5 L262.5,112.5 L262.5,56.25 L268.75,56.25 L268.75,112.5 Z M256.25,112.5 L250,112.5 L250,56.25 L256.25,56.25 L256.25,112.5 Z M237.5,112.5 L243.75,112.5 L243.75,56.25 L237.5,56.25 L237.5,112.5 Z M231.25,112.5 L225,112.5 L225,56.25 L231.25,56.25 L231.25,112.5 Z" id="Shape" fill="#4038FF"></path>
            <path d="M225,49.996875 L225,56.25 L168.75,56.25 L168.75,49.996875 L225,49.996875 Z M225,31.24375 L225,24.990625 L168.75,24.990625 L168.75,31.24375 L225,31.24375 Z M225,12.490625 L225,18.74375 L168.75,18.74375 L168.75,12.490625 L225,12.490625 Z M225,0 L225,6.253125 L168.75,6.253125 L168.75,0 L225,0 Z M225,43.74375 L225,37.490625 L168.75,37.490625 L168.75,43.74375 L225,43.74375 Z" id="Shape" fill="#1F242C"></path>
            <path d="M275,168.75 L281.25,168.75 C281.25,199.815625 256.065625,225 225,225 L225,218.75 C252.615625,218.75 275,196.365625 275,168.75 Z M262.5,168.75 L268.75,168.75 C268.75,192.9125 249.1625,212.5 225,212.5 L225,206.25 C245.709375,206.25 262.5,189.459375 262.5,168.75 Z M256.25,168.75 L250,168.75 C250,182.55625 238.80625,193.75 225,193.75 L225,200 C242.259375,200 256.25,186.009375 256.25,168.75 Z M237.5,168.75 L243.75,168.75 C243.75,179.10625 235.35625,187.5 225,187.5 L225,181.25 C231.903125,181.25 237.5,175.653125 237.5,168.75 Z M225,168.75 L231.25,168.75 C231.25,172.203125 228.453125,175 225,175 L225,168.75 Z" id="Shape" fill="#1F242C"></path>
            <path d="M168.75,164.34375 L168.75,168.75 L164.34375,168.75 L112.5,116.90625 L112.5,112.5 L116.90625,112.5 L168.75,164.34375 Z M112.5,125.75 L112.5,134.59375 L146.65625,168.75 L155.5,168.75 L112.5,125.75 Z M112.5,152.28125 L112.5,143.4375 L137.8125,168.75 L128.96875,168.75 L112.5,152.28125 Z M112.5,168.75 L120.125,168.75 L112.5,161.125 L112.5,168.75 Z M125.75,112.5 L134.59375,112.5 L168.75,146.65625 L168.75,155.5 L125.75,112.5 Z M152.28125,112.5 L143.4375,112.5 L168.75,137.8125 L168.75,128.96875 L152.28125,112.5 Z M168.75,120.125 L161.125,112.5 L168.75,112.5 L168.75,120.125 Z" id="Shape" fill="#FFFFFF"></path>
            <path d="M56.5,6.253125 L56.5,0 L0.25,0 L0.25,6.253125 L56.5,6.253125 Z M56.5,12.5 L56.5,18.75 L0.25,18.75 L0.25,12.5 L56.5,12.5 Z M56.5,25 L56.5,31.25 L0.25,31.25 L0.25,25 L56.5,25 Z M56.5,43.75 L56.5,37.5 L0.25,37.5 L0.25,43.75 L56.5,43.75 Z M56.5,50 L56.5,56.25 L0.25,56.25 L0.25,50 L56.5,50 Z" id="Shape" fill="#FFFFFF"></path>
            <path d="M225,281.25 L225,337.5 L281.25,337.5 C281.25,306.434375 256.065625,281.25 225,281.25 Z" id="Path" fill="#4038FF" fill-rule="nonzero" transform="translate(253.125000, 309.375000) rotate(-90.000000) translate(-253.125000, -309.375000) "></path>
            <path d="M56.5,56.25 L112.75,56.25 L112.75,0 C81.684375,0 56.5,25.184375 56.5,56.25 Z" id="Path" fill="#1F242C" fill-rule="nonzero" transform="translate(84.625000, 28.125000) rotate(-90.000000) translate(-84.625000, -28.125000) "></path>
            <path d="M62.753125,112.5 L56.5,112.5 L56.5,56.25 L62.753125,56.25 L62.753125,112.5 Z M81.50625,112.5 L87.759375,112.5 L87.759375,56.25 L81.50625,56.25 L81.50625,112.5 Z M100.259375,112.5 L94.00625,112.5 L94.00625,56.25 L100.259375,56.25 L100.259375,112.5 Z M112.75,112.5 L106.496875,112.5 L106.496875,56.25 L112.75,56.25 L112.75,112.5 Z M69.00625,112.5 L75.259375,112.5 L75.259375,56.25 L69.00625,56.25 L69.00625,112.5 Z" id="Shape" fill="#4038FF"></path>
        </g>
        <g id="Group-Copy-3" transform="translate(141.000000, 506.000000) rotate(-180.000000) translate(-141.000000, -506.000000) translate(0.000000, 337.000000)">
            <path d="M212.49375,131.259375 L206.25625,131.259375 L206.25625,137.496875 L212.49375,137.496875 L212.49375,143.75 L206.25625,143.75 L206.25625,150.003125 L212.49375,150.003125 L212.49375,156.240625 L218.746875,156.240625 L218.746875,162.49375 L212.49375,162.49375 L212.49375,156.25625 L206.25625,156.25625 L206.25625,162.49375 L212.49375,162.49375 L212.49375,168.75 L206.240625,168.75 L206.240625,162.496875 L200.003125,162.496875 L200.003125,156.259375 L193.75,156.259375 L193.75,162.496875 L187.496875,162.496875 L187.496875,156.259375 L181.259375,156.259375 L181.259375,162.496875 L187.496875,162.496875 L187.496875,168.75 L181.24375,168.75 L181.24375,162.496875 L175.00625,162.496875 L175.00625,168.75 L168.75,168.75 L168.75,162.496875 L175.003125,162.496875 L175.003125,156.259375 L168.75,156.259375 L168.75,150.00625 L175.003125,150.00625 L175.003125,143.753125 L168.75,143.753125 L168.75,137.5 L175.003125,137.5 L175.003125,131.2625 L175.003125,131.246875 L181.240625,131.246875 L181.240625,125.009375 L187.49375,125.009375 L187.49375,131.246875 L193.746875,131.246875 L193.746875,125.009375 L200,125.009375 L200,131.246875 L206.2375,131.246875 L206.2375,125.009375 L212.490625,125.009375 L212.490625,131.246875 L218.74375,131.246875 L218.74375,137.5 L212.490625,137.5 L212.490625,131.259375 L212.49375,131.259375 Z M175.003125,131.24375 L175.003125,125.00625 L168.75,125.00625 L168.75,131.259375 L175.003125,131.259375 L175.003125,131.24375 Z M193.746875,162.496875 L193.746875,168.75 L200,168.75 L200,162.496875 L193.746875,162.496875 Z M212.49375,150.00625 L212.49375,143.753125 L218.746875,143.753125 L218.746875,150.00625 L212.49375,150.00625 Z M181.240625,156.24375 L175.003125,156.24375 L175.003125,150.00625 L181.240625,150.00625 L181.240625,156.24375 Z M181.25625,125.00625 L181.25625,118.753125 L187.49375,118.753125 L187.49375,125.00625 L193.746875,125.00625 L193.746875,118.753125 L200,118.753125 L200,125.00625 L206.253125,125.00625 L206.253125,118.753125 L212.490625,118.753125 L212.490625,125.00625 L218.74375,125.00625 L218.74375,118.753125 L212.490625,118.753125 L212.490625,112.5 L206.2375,112.5 L206.2375,118.753125 L200,118.753125 L200,112.5 L193.746875,112.5 L193.746875,118.753125 L187.49375,118.753125 L187.49375,112.5 L181.240625,112.5 L181.240625,118.753125 L175.003125,118.753125 L175.003125,112.5 L168.75,112.5 L168.75,118.753125 L175.003125,118.753125 L175.003125,125.00625 L181.25625,125.00625 Z M206.2375,137.496875 L206.2375,143.75 L200,143.75 L200,137.496875 L206.2375,137.496875 Z M193.746875,137.496875 L193.746875,131.259375 L200,131.259375 L200,137.496875 L193.746875,137.496875 Z M187.49375,137.496875 L193.746875,137.496875 L193.746875,143.75 L187.49375,143.75 L187.49375,137.496875 Z M187.49375,137.496875 L181.25625,137.496875 L181.25625,131.259375 L187.49375,131.259375 L187.49375,137.496875 Z M187.49375,150.00625 L181.25625,150.00625 L181.25625,143.753125 L187.49375,143.753125 L187.49375,150.00625 Z M193.746875,150.00625 L193.746875,156.24375 L187.49375,156.24375 L187.49375,150.00625 L193.746875,150.00625 Z M200.003125,150.00625 L193.75,150.00625 L193.75,143.753125 L200.003125,143.753125 L200.003125,150.00625 Z M200.003125,150.00625 L206.240625,150.00625 L206.240625,156.24375 L200.003125,156.24375 L200.003125,150.00625 Z M181.240625,143.753125 L181.240625,137.5 L175.003125,137.5 L175.003125,143.753125 L181.240625,143.753125 Z M225,162.496875 L218.746875,162.496875 L218.746875,168.75 L225,168.75 L225,162.496875 Z M218.746875,150.00625 L225,150.00625 L225,156.259375 L218.746875,156.259375 L218.746875,150.00625 Z M225,137.496875 L218.746875,137.496875 L218.746875,143.75 L225,143.75 L225,137.496875 Z M218.746875,125.00625 L225,125.00625 L225,131.259375 L218.746875,131.259375 L218.746875,125.00625 Z M218.746875,112.5 L225,112.5 L225,118.753125 L218.746875,118.753125 L218.746875,112.5 Z" id="Shape" fill="#1F242C"></path>
            <path d="M212.99375,243.759375 L206.75625,243.759375 L206.75625,249.996875 L212.99375,249.996875 L212.99375,256.25 L206.75625,256.25 L206.75625,262.503125 L212.99375,262.503125 L212.99375,268.740625 L219.246875,268.740625 L219.246875,274.99375 L212.99375,274.99375 L212.99375,268.75625 L206.75625,268.75625 L206.75625,274.99375 L212.99375,274.99375 L212.99375,281.25 L206.740625,281.25 L206.740625,274.996875 L200.503125,274.996875 L200.503125,268.759375 L194.25,268.759375 L194.25,274.996875 L187.996875,274.996875 L187.996875,268.759375 L181.759375,268.759375 L181.759375,274.996875 L187.996875,274.996875 L187.996875,281.25 L181.74375,281.25 L181.74375,274.996875 L175.50625,274.996875 L175.50625,281.25 L169.25,281.25 L169.25,274.996875 L175.503125,274.996875 L175.503125,268.759375 L169.25,268.759375 L169.25,262.50625 L175.503125,262.50625 L175.503125,256.253125 L169.25,256.253125 L169.25,250 L175.503125,250 L175.503125,243.7625 L175.503125,243.746875 L181.740625,243.746875 L181.740625,237.509375 L187.99375,237.509375 L187.99375,243.746875 L194.246875,243.746875 L194.246875,237.509375 L200.5,237.509375 L200.5,243.746875 L206.7375,243.746875 L206.7375,237.509375 L212.990625,237.509375 L212.990625,243.746875 L219.24375,243.746875 L219.24375,250 L212.990625,250 L212.990625,243.759375 L212.99375,243.759375 Z M175.503125,243.74375 L175.503125,237.50625 L169.25,237.50625 L169.25,243.759375 L175.503125,243.759375 L175.503125,243.74375 Z M194.246875,274.996875 L194.246875,281.25 L200.5,281.25 L200.5,274.996875 L194.246875,274.996875 Z M212.99375,262.50625 L212.99375,256.253125 L219.246875,256.253125 L219.246875,262.50625 L212.99375,262.50625 Z M181.740625,268.74375 L175.503125,268.74375 L175.503125,262.50625 L181.740625,262.50625 L181.740625,268.74375 Z M181.75625,237.50625 L181.75625,231.253125 L187.99375,231.253125 L187.99375,237.50625 L194.246875,237.50625 L194.246875,231.253125 L200.5,231.253125 L200.5,237.50625 L206.753125,237.50625 L206.753125,231.253125 L212.990625,231.253125 L212.990625,237.50625 L219.24375,237.50625 L219.24375,231.253125 L212.990625,231.253125 L212.990625,225 L206.7375,225 L206.7375,231.253125 L200.5,231.253125 L200.5,225 L194.246875,225 L194.246875,231.253125 L187.99375,231.253125 L187.99375,225 L181.740625,225 L181.740625,231.253125 L175.503125,231.253125 L175.503125,225 L169.25,225 L169.25,231.253125 L175.503125,231.253125 L175.503125,237.50625 L181.75625,237.50625 Z M206.7375,249.996875 L206.7375,256.25 L200.5,256.25 L200.5,249.996875 L206.7375,249.996875 Z M194.246875,249.996875 L194.246875,243.759375 L200.5,243.759375 L200.5,249.996875 L194.246875,249.996875 Z M187.99375,249.996875 L194.246875,249.996875 L194.246875,256.25 L187.99375,256.25 L187.99375,249.996875 Z M187.99375,249.996875 L181.75625,249.996875 L181.75625,243.759375 L187.99375,243.759375 L187.99375,249.996875 Z M187.99375,262.50625 L181.75625,262.50625 L181.75625,256.253125 L187.99375,256.253125 L187.99375,262.50625 Z M194.246875,262.50625 L194.246875,268.74375 L187.99375,268.74375 L187.99375,262.50625 L194.246875,262.50625 Z M200.503125,262.50625 L194.25,262.50625 L194.25,256.253125 L200.503125,256.253125 L200.503125,262.50625 Z M200.503125,262.50625 L206.740625,262.50625 L206.740625,268.74375 L200.503125,268.74375 L200.503125,262.50625 Z M181.740625,256.253125 L181.740625,250 L175.503125,250 L175.503125,256.253125 L181.740625,256.253125 Z M225.5,274.996875 L219.246875,274.996875 L219.246875,281.25 L225.5,281.25 L225.5,274.996875 Z M219.246875,262.50625 L225.5,262.50625 L225.5,268.759375 L219.246875,268.759375 L219.246875,262.50625 Z M225.5,249.996875 L219.246875,249.996875 L219.246875,256.25 L225.5,256.25 L225.5,249.996875 Z M219.246875,237.50625 L225.5,237.50625 L225.5,243.759375 L219.246875,243.759375 L219.246875,237.50625 Z M219.246875,225 L225.5,225 L225.5,231.253125 L219.246875,231.253125 L219.246875,225 Z" id="Shape-Copy" fill="#1F242C"></path>
            <path d="M274.996875,112.5 L281.25,112.5 L281.25,56.25 L274.996875,56.25 L274.996875,112.5 Z M268.75,112.5 L262.5,112.5 L262.5,56.25 L268.75,56.25 L268.75,112.5 Z M256.25,112.5 L250,112.5 L250,56.25 L256.25,56.25 L256.25,112.5 Z M237.5,112.5 L243.75,112.5 L243.75,56.25 L237.5,56.25 L237.5,112.5 Z M231.25,112.5 L225,112.5 L225,56.25 L231.25,56.25 L231.25,112.5 Z" id="Shape" fill="#4038FF"></path>
            <path d="M225,49.996875 L225,56.25 L168.75,56.25 L168.75,49.996875 L225,49.996875 Z M225,31.24375 L225,24.990625 L168.75,24.990625 L168.75,31.24375 L225,31.24375 Z M225,12.490625 L225,18.74375 L168.75,18.74375 L168.75,12.490625 L225,12.490625 Z M225,0 L225,6.253125 L168.75,6.253125 L168.75,0 L225,0 Z M225,43.74375 L225,37.490625 L168.75,37.490625 L168.75,43.74375 L225,43.74375 Z" id="Shape" fill="#1F242C"></path>
            <path d="M275,168.75 L281.25,168.75 C281.25,199.815625 256.065625,225 225,225 L225,218.75 C252.615625,218.75 275,196.365625 275,168.75 Z M262.5,168.75 L268.75,168.75 C268.75,192.9125 249.1625,212.5 225,212.5 L225,206.25 C245.709375,206.25 262.5,189.459375 262.5,168.75 Z M256.25,168.75 L250,168.75 C250,182.55625 238.80625,193.75 225,193.75 L225,200 C242.259375,200 256.25,186.009375 256.25,168.75 Z M237.5,168.75 L243.75,168.75 C243.75,179.10625 235.35625,187.5 225,187.5 L225,181.25 C231.903125,181.25 237.5,175.653125 237.5,168.75 Z M225,168.75 L231.25,168.75 C231.25,172.203125 228.453125,175 225,175 L225,168.75 Z" id="Shape" fill="#1F242C"></path>
            <path d="M168.75,164.34375 L168.75,168.75 L164.34375,168.75 L112.5,116.90625 L112.5,112.5 L116.90625,112.5 L168.75,164.34375 Z M112.5,125.75 L112.5,134.59375 L146.65625,168.75 L155.5,168.75 L112.5,125.75 Z M112.5,152.28125 L112.5,143.4375 L137.8125,168.75 L128.96875,168.75 L112.5,152.28125 Z M112.5,168.75 L120.125,168.75 L112.5,161.125 L112.5,168.75 Z M125.75,112.5 L134.59375,112.5 L168.75,146.65625 L168.75,155.5 L125.75,112.5 Z M152.28125,112.5 L143.4375,112.5 L168.75,137.8125 L168.75,128.96875 L152.28125,112.5 Z M168.75,120.125 L161.125,112.5 L168.75,112.5 L168.75,120.125 Z" id="Shape" fill="#FFFFFF"></path>
            <path d="M56.5,6.253125 L56.5,0 L0.25,0 L0.25,6.253125 L56.5,6.253125 Z M56.5,12.5 L56.5,18.75 L0.25,18.75 L0.25,12.5 L56.5,12.5 Z M56.5,25 L56.5,31.25 L0.25,31.25 L0.25,25 L56.5,25 Z M56.5,43.75 L56.5,37.5 L0.25,37.5 L0.25,43.75 L56.5,43.75 Z M56.5,50 L56.5,56.25 L0.25,56.25 L0.25,50 L56.5,50 Z" id="Shape" fill="#FFFFFF"></path>
            <path d="M225,281.25 L225,337.5 L281.25,337.5 C281.25,306.434375 256.065625,281.25 225,281.25 Z" id="Path" fill="#4038FF" fill-rule="nonzero" transform="translate(253.125000, 309.375000) rotate(-90.000000) translate(-253.125000, -309.375000) "></path>
            <path d="M56.5,56.25 L112.75,56.25 L112.75,0 C81.684375,0 56.5,25.184375 56.5,56.25 Z" id="Path" fill="#1F242C" fill-rule="nonzero" transform="translate(84.625000, 28.125000) rotate(-90.000000) translate(-84.625000, -28.125000) "></path>
            <path d="M62.753125,112.5 L56.5,112.5 L56.5,56.25 L62.753125,56.25 L62.753125,112.5 Z M81.50625,112.5 L87.759375,112.5 L87.759375,56.25 L81.50625,56.25 L81.50625,112.5 Z M100.259375,112.5 L94.00625,112.5 L94.00625,56.25 L100.259375,56.25 L100.259375,112.5 Z M112.75,112.5 L106.496875,112.5 L106.496875,56.25 L112.75,56.25 L112.75,112.5 Z M69.00625,112.5 L75.259375,112.5 L75.259375,56.25 L69.00625,56.25 L69.00625,112.5 Z" id="Shape" fill="#4038FF"></path>
        </g>
    </g>
</svg>