<svg xmlns="http://www.w3.org/2000/svg" width="1200" height="675" viewBox="0 0 1200 675">
  <g fill="none" fill-rule="evenodd">
    <path fill="#000" d="M0 0H1200V675H0z"/>
    <g transform="matrix(-1 0 0 1 1682 0)">
      <path fill="#4038FF" d="M556.659581,321.669194 L545.982931,321.669194 L545.982931,332.355266 L556.659581,332.355266 L556.659581,343.067893 L545.982931,343.067893 L545.982931,353.78052 L556.659581,353.78052 L556.659581,364.466593 L567.362786,364.466593 L567.362786,375.17922 L556.659581,375.17922 L556.659581,364.493147 L545.982931,364.493147 L545.982931,375.17922 L556.659581,375.17922 L556.659581,385.897843 L545.956377,385.897843 L545.956377,375.185216 L535.279727,375.185216 L535.279727,364.499143 L524.576523,364.499143 L524.576523,375.185216 L513.873319,375.185216 L513.873319,364.499143 L503.196669,364.499143 L503.196669,375.185216 L513.873319,375.185216 L513.873319,385.897843 L503.169258,385.897843 L503.169258,375.185216 L492.493464,375.185216 L492.493464,385.897843 L481.784264,385.897843 L481.784264,375.185216 L492.487468,375.185216 L492.487468,364.499143 L481.784264,364.499143 L481.784264,353.78566 L492.487468,353.78566 L492.487468,343.073033 L481.784264,343.073033 L481.784264,332.360406 L492.487468,332.360406 L492.487468,321.674334 L492.487468,321.647779 L503.164118,321.647779 L503.164118,310.961707 L513.867322,310.961707 L513.867322,321.647779 L524.570527,321.647779 L524.570527,310.961707 L535.274588,310.961707 L535.274588,321.647779 L545.951237,321.647779 L545.951237,310.961707 L556.654442,310.961707 L556.654442,321.647779 L567.357646,321.647779 L567.357646,332.360406 L556.654442,332.360406 L556.654442,321.669194 L556.659581,321.669194 Z M492.487468,321.64264 L492.487468,310.955711 L481.784264,310.955711 L481.784264,321.669194 L492.487468,321.669194 L492.487468,321.64264 Z M524.570527,375.185216 L524.570527,385.897843 L535.274588,385.897843 L535.274588,375.185216 L524.570527,375.185216 Z M556.659581,353.78566 L556.659581,343.073033 L567.362786,343.073033 L567.362786,353.78566 L556.659581,353.78566 Z M503.164118,364.472589 L492.487468,364.472589 L492.487468,353.78566 L503.164118,353.78566 L503.164118,364.472589 Z M503.190673,310.955711 L503.190673,300.243084 L513.867322,300.243084 L513.867322,310.955711 L524.570527,310.955711 L524.570527,300.243084 L535.274588,300.243084 L535.274588,310.955711 L545.977792,310.955711 L545.977792,300.243084 L556.654442,300.243084 L556.654442,310.955711 L567.357646,310.955711 L567.357646,300.243084 L556.654442,300.243084 L556.654442,289.530457 L545.951237,289.530457 L545.951237,300.243084 L535.274588,300.243084 L535.274588,289.530457 L524.570527,289.530457 L524.570527,300.243084 L513.867322,300.243084 L513.867322,289.530457 L503.164118,289.530457 L503.164118,300.243084 L492.487468,300.243084 L492.487468,289.530457 L481.784264,289.530457 L481.784264,300.243084 L492.487468,300.243084 L492.487468,310.955711 L503.190673,310.955711 Z M545.951237,332.355266 L545.951237,343.067893 L535.274588,343.067893 L535.274588,332.355266 L545.951237,332.355266 Z M524.570527,332.355266 L524.570527,321.669194 L535.274588,321.669194 L535.274588,332.355266 L524.570527,332.355266 Z M513.867322,332.355266 L524.570527,332.355266 L524.570527,343.067893 L513.867322,343.067893 L513.867322,332.355266 Z M513.867322,332.355266 L503.190673,332.355266 L503.190673,321.669194 L513.867322,321.669194 L513.867322,332.355266 Z M513.867322,353.78566 L503.190673,353.78566 L503.190673,343.073033 L513.867322,343.073033 L513.867322,353.78566 Z M524.570527,353.78566 L524.570527,364.472589 L513.867322,364.472589 L513.867322,353.78566 L524.570527,353.78566 Z M535.279727,353.78566 L524.576523,353.78566 L524.576523,343.073033 L535.279727,343.073033 L535.279727,353.78566 Z M535.279727,353.78566 L545.956377,353.78566 L545.956377,364.472589 L535.279727,364.472589 L535.279727,353.78566 Z M503.164118,343.073033 L503.164118,332.360406 L492.487468,332.360406 L492.487468,343.073033 L503.164118,343.073033 Z M578.06599,375.185216 L567.362786,375.185216 L567.362786,385.897843 L578.06599,385.897843 L578.06599,375.185216 Z M567.362786,353.78566 L578.06599,353.78566 L578.06599,364.499143 L567.362786,364.499143 L567.362786,353.78566 Z M578.06599,332.355266 L567.362786,332.355266 L567.362786,343.067893 L578.06599,343.067893 L578.06599,332.355266 Z M567.362786,310.955711 L578.06599,310.955711 L578.06599,321.669194 L567.362786,321.669194 L567.362786,310.955711 Z M567.362786,289.530457 L578.06599,289.530457 L578.06599,300.243084 L567.362786,300.243084 L567.362786,289.530457 Z"/>
      <path fill="#FFF" d="M663.644511,97.0428299 L674.347716,97.0428299 L674.347716,0.675444162 L663.644511,0.675444162 L663.644511,97.0428299 Z M652.951586,97.0428299 L642.253522,97.0428299 L642.253522,0.675444162 L652.951586,0.675444162 L652.951586,97.0428299 Z M631.556313,97.0428299 L620.858249,97.0428299 L620.858249,0.675444162 L631.556313,0.675444162 L631.556313,97.0428299 Z M599.462119,97.0428299 L610.160184,97.0428299 L610.160184,0.675444162 L599.462119,0.675444162 L599.462119,97.0428299 Z M588.764055,97.0428299 L578.06599,97.0428299 L578.06599,0.675444162 L588.764055,0.675444162 L588.764055,97.0428299 Z"/>
      <path fill="#1F242C" d="M578.06599,182.450273 L578.06599,193.163071 L481.784264,193.163071 L481.784264,182.450273 L578.06599,182.450273 Z M578.06599,150.322414 L578.06599,139.609616 L481.784264,139.609616 L481.784264,150.322414 L578.06599,150.322414 Z M578.06599,118.194641 L578.06599,128.90744 L481.784264,128.90744 L481.784264,118.194641 L578.06599,118.194641 Z M578.06599,96.7956853 L578.06599,107.508569 L481.784264,107.508569 L481.784264,96.7956853 L578.06599,96.7956853 Z M578.06599,171.737389 L578.06599,161.024505 L481.784264,161.024505 L481.784264,171.737389 L578.06599,171.737389 Z"/>
      <path fill="#FFF" d="M663.649651,385.897843 L674.347716,385.897843 C674.347716,439.119194 631.240228,482.265228 578.06599,482.265228 L578.06599,471.557741 C625.334835,471.557741 663.649651,433.208661 663.649651,385.897843 Z M642.253522,385.897843 L652.951586,385.897843 C652.951586,427.292989 619.424302,460.850254 578.06599,460.850254 L578.06599,450.142766 C613.513769,450.142766 642.253522,421.377316 642.253522,385.897843 Z M631.556313,385.897843 L620.858249,385.897843 C620.858249,409.550254 601.697843,428.727792 578.06599,428.727792 L578.06599,439.435279 C607.608376,439.435279 631.556313,415.466783 631.556313,385.897843 Z M599.462119,385.897843 L610.160184,385.897843 C610.160184,403.639721 595.792449,418.020305 578.06599,418.020305 L578.06599,407.312817 C589.881916,407.312817 599.462119,397.724048 599.462119,385.897843 Z M578.06599,385.897843 L588.764055,385.897843 C588.764055,391.813515 583.976523,396.60533 578.06599,396.60533 L578.06599,385.897843 Z"/>
      <path fill="#1F242C" fill-rule="nonzero" d="M481.718274,578.632614 L481.718274,675 L578,675 C578,621.778648 534.892513,578.632614 481.718274,578.632614 Z" transform="rotate(-180 529.86 626.816)"/>
      <path fill="#4038FF" d="M588.703204,289.573287 L578,289.573287 L578,193.205901 L588.703204,193.205901 L588.703204,289.573287 Z M620.802538,289.573287 L631.505742,289.573287 L631.505742,193.205901 L620.802538,193.205901 L620.802538,289.573287 Z M652.901872,289.573287 L642.198668,289.573287 L642.198668,193.205901 L652.901872,193.205901 L652.901872,289.573287 Z M674.281726,289.573287 L663.578522,289.573287 L663.578522,193.205901 L674.281726,193.205901 L674.281726,289.573287 Z M599.406409,289.573287 L610.109613,289.573287 L610.109613,193.205901 L599.406409,193.205901 L599.406409,289.573287 Z" transform="rotate(90 626.14 241.39)"/>
      <path fill="#1F242C" d="M482.098985,89.247335 L482.098985,96.7956853 L474.556631,96.7956853 L385.817259,7.97750635 L385.817259,0.428299492 L393.358756,0.428299492 L482.098985,89.247335 Z M385.817259,23.1281726 L385.817259,38.2796954 L444.281853,96.7956853 L459.418813,96.7956853 L385.817259,23.1281726 Z M385.817259,68.5810279 L385.817259,53.4303617 L429.144036,96.7956853 L414.006218,96.7956853 L385.817259,68.5810279 Z M385.817259,96.7956853 L398.868401,96.7956853 L385.817259,83.7325508 L385.817259,96.7956853 Z M408.496574,0.428299492 L423.634391,0.428299492 L482.098985,58.9442893 L482.098985,74.0958122 L408.496574,0.428299492 Z M453.910025,0.428299492 L438.772208,0.428299492 L482.098985,43.7936231 L482.098985,28.6429569 L453.910025,0.428299492 Z M482.098985,13.491434 L469.046986,0.428299492 L482.098985,0.428299492 L482.098985,13.491434 Z"/>
    </g>
    <g transform="translate(-482)">
      <path fill="#4038FF" fill-rule="nonzero" d="M588.769 482.265L578.066 482.265 578.066 492.978 588.769 492.978zM599.472 492.978L588.769 492.978 588.769 503.691 599.472 503.691zM610.149 482.265L599.446 482.265 599.446 492.978 610.149 492.978zM588.769 503.664L578.066 503.664 578.066 514.377 588.769 514.377z"/>
      <path fill="#4038FF" fill-rule="nonzero" d="M610.149 503.664L599.446 503.664 599.446 514.377 610.149 514.377zM620.852 492.978L610.149 492.978 610.149 503.691 620.852 503.691zM599.472 514.377L588.769 514.377 588.769 525.09 599.472 525.09zM588.769 525.09L578.066 525.09 578.066 535.803 588.769 535.803zM610.149 525.09L599.446 525.09 599.446 535.803 610.149 535.803zM620.852 514.377L610.149 514.377 610.149 525.09 620.852 525.09zM599.472 535.808L588.769 535.808 588.769 546.521 599.472 546.521zM588.769 546.494L578.066 546.494 578.066 557.207 588.769 557.207z"/>
      <path fill="#4038FF" fill-rule="nonzero" d="M610.149 546.494L599.446 546.494 599.446 557.207 610.149 557.207zM620.852 535.808L610.149 535.808 610.149 546.521 620.852 546.521zM599.472 557.207L588.769 557.207 588.769 567.92 599.472 567.92zM588.769 567.92L578.066 567.92 578.066 578.633 588.769 578.633zM610.149 567.92L599.446 567.92 599.446 578.633 610.149 578.633zM620.852 557.207L610.149 557.207 610.149 567.92 620.852 567.92zM631.561 482.265L620.858 482.265 620.858 492.978 631.561 492.978zM642.265 492.978L631.561 492.978 631.561 503.691 642.265 503.691zM652.941 482.265L642.238 482.265 642.238 492.978 652.941 492.978zM631.561 503.664L620.858 503.664 620.858 514.377 631.561 514.377z"/>
      <path fill="#4038FF" fill-rule="nonzero" d="M652.941 503.664L642.238 503.664 642.238 514.377 652.941 514.377zM663.645 492.978L652.941 492.978 652.941 503.691 663.645 503.691zM642.265 514.377L631.561 514.377 631.561 525.09 642.265 525.09zM631.561 525.09L620.858 525.09 620.858 535.803 631.561 535.803zM652.941 525.09L642.238 525.09 642.238 535.803 652.941 535.803zM663.645 514.377L652.941 514.377 652.941 525.09 663.645 525.09zM642.265 535.808L631.561 535.808 631.561 546.521 642.265 546.521zM631.561 546.494L620.858 546.494 620.858 557.207 631.561 557.207z"/>
      <path fill="#4038FF" fill-rule="nonzero" d="M652.941 546.494L642.238 546.494 642.238 557.207 652.941 557.207zM663.645 535.808L652.941 535.808 652.941 546.521 663.645 546.521zM642.265 557.207L631.561 557.207 631.561 567.92 642.265 567.92zM631.561 567.92L620.858 567.92 620.858 578.633 631.561 578.633zM652.941 567.92L642.238 567.92 642.238 578.633 652.941 578.633zM674.348 482.265L663.645 482.265 663.645 492.978 674.348 492.978zM674.348 503.664L663.645 503.664 663.645 514.377 674.348 514.377zM674.348 525.09L663.645 525.09 663.645 535.803 674.348 535.803zM674.348 546.494L663.645 546.494 663.645 557.207 674.348 557.207zM674.348 567.92L663.645 567.92 663.645 578.633 674.348 578.633zM663.645 557.207L652.941 557.207 652.941 567.92 663.645 567.92z"/>
      <path fill="#4038FF" d="M556.659581,321.669194 L545.982931,321.669194 L545.982931,332.355266 L556.659581,332.355266 L556.659581,343.067893 L545.982931,343.067893 L545.982931,353.78052 L556.659581,353.78052 L556.659581,364.466593 L567.362786,364.466593 L567.362786,375.17922 L556.659581,375.17922 L556.659581,364.493147 L545.982931,364.493147 L545.982931,375.17922 L556.659581,375.17922 L556.659581,385.897843 L545.956377,385.897843 L545.956377,375.185216 L535.279727,375.185216 L535.279727,364.499143 L524.576523,364.499143 L524.576523,375.185216 L513.873319,375.185216 L513.873319,364.499143 L503.196669,364.499143 L503.196669,375.185216 L513.873319,375.185216 L513.873319,385.897843 L503.169258,385.897843 L503.169258,375.185216 L492.493464,375.185216 L492.493464,385.897843 L481.784264,385.897843 L481.784264,375.185216 L492.487468,375.185216 L492.487468,364.499143 L481.784264,364.499143 L481.784264,353.78566 L492.487468,353.78566 L492.487468,343.073033 L481.784264,343.073033 L481.784264,332.360406 L492.487468,332.360406 L492.487468,321.674334 L492.487468,321.647779 L503.164118,321.647779 L503.164118,310.961707 L513.867322,310.961707 L513.867322,321.647779 L524.570527,321.647779 L524.570527,310.961707 L535.274588,310.961707 L535.274588,321.647779 L545.951237,321.647779 L545.951237,310.961707 L556.654442,310.961707 L556.654442,321.647779 L567.357646,321.647779 L567.357646,332.360406 L556.654442,332.360406 L556.654442,321.669194 L556.659581,321.669194 Z M492.487468,321.64264 L492.487468,310.955711 L481.784264,310.955711 L481.784264,321.669194 L492.487468,321.669194 L492.487468,321.64264 Z M524.570527,375.185216 L524.570527,385.897843 L535.274588,385.897843 L535.274588,375.185216 L524.570527,375.185216 Z M556.659581,353.78566 L556.659581,343.073033 L567.362786,343.073033 L567.362786,353.78566 L556.659581,353.78566 Z M503.164118,364.472589 L492.487468,364.472589 L492.487468,353.78566 L503.164118,353.78566 L503.164118,364.472589 Z M503.190673,310.955711 L503.190673,300.243084 L513.867322,300.243084 L513.867322,310.955711 L524.570527,310.955711 L524.570527,300.243084 L535.274588,300.243084 L535.274588,310.955711 L545.977792,310.955711 L545.977792,300.243084 L556.654442,300.243084 L556.654442,310.955711 L567.357646,310.955711 L567.357646,300.243084 L556.654442,300.243084 L556.654442,289.530457 L545.951237,289.530457 L545.951237,300.243084 L535.274588,300.243084 L535.274588,289.530457 L524.570527,289.530457 L524.570527,300.243084 L513.867322,300.243084 L513.867322,289.530457 L503.164118,289.530457 L503.164118,300.243084 L492.487468,300.243084 L492.487468,289.530457 L481.784264,289.530457 L481.784264,300.243084 L492.487468,300.243084 L492.487468,310.955711 L503.190673,310.955711 Z M545.951237,332.355266 L545.951237,343.067893 L535.274588,343.067893 L535.274588,332.355266 L545.951237,332.355266 Z M524.570527,332.355266 L524.570527,321.669194 L535.274588,321.669194 L535.274588,332.355266 L524.570527,332.355266 Z M513.867322,332.355266 L524.570527,332.355266 L524.570527,343.067893 L513.867322,343.067893 L513.867322,332.355266 Z M513.867322,332.355266 L503.190673,332.355266 L503.190673,321.669194 L513.867322,321.669194 L513.867322,332.355266 Z M513.867322,353.78566 L503.190673,353.78566 L503.190673,343.073033 L513.867322,343.073033 L513.867322,353.78566 Z M524.570527,353.78566 L524.570527,364.472589 L513.867322,364.472589 L513.867322,353.78566 L524.570527,353.78566 Z M535.279727,353.78566 L524.576523,353.78566 L524.576523,343.073033 L535.279727,343.073033 L535.279727,353.78566 Z M535.279727,353.78566 L545.956377,353.78566 L545.956377,364.472589 L535.279727,364.472589 L535.279727,353.78566 Z M503.164118,343.073033 L503.164118,332.360406 L492.487468,332.360406 L492.487468,343.073033 L503.164118,343.073033 Z M578.06599,375.185216 L567.362786,375.185216 L567.362786,385.897843 L578.06599,385.897843 L578.06599,375.185216 Z M567.362786,353.78566 L578.06599,353.78566 L578.06599,364.499143 L567.362786,364.499143 L567.362786,353.78566 Z M578.06599,332.355266 L567.362786,332.355266 L567.362786,343.067893 L578.06599,343.067893 L578.06599,332.355266 Z M567.362786,310.955711 L578.06599,310.955711 L578.06599,321.669194 L567.362786,321.669194 L567.362786,310.955711 Z M567.362786,289.530457 L578.06599,289.530457 L578.06599,300.243084 L567.362786,300.243084 L567.362786,289.530457 Z"/>
      <path fill="#1F242C" d="M663.644511 289.530457L674.347716 289.530457 674.347716 193.163071 663.644511 193.163071 663.644511 289.530457zM652.951586 289.530457L642.253522 289.530457 642.253522 193.163071 652.951586 193.163071 652.951586 289.530457zM631.556313 289.530457L620.858249 289.530457 620.858249 193.163071 631.556313 193.163071 631.556313 289.530457zM599.462119 289.530457L610.160184 289.530457 610.160184 193.163071 599.462119 193.163071 599.462119 289.530457zM588.764055 289.530457L578.06599 289.530457 578.06599 193.163071 588.764055 193.163071 588.764055 289.530457zM578.06599 492.977855L578.06599 482.265228 481.784264 482.265228 481.784264 492.977855 578.06599 492.977855zM578.06599 503.680203L578.06599 514.38769 481.784264 514.38769 481.784264 503.680203 578.06599 503.680203zM578.06599 525.095178L578.06599 535.802665 481.784264 535.802665 481.784264 525.095178 578.06599 525.095178zM578.06599 557.21764L578.06599 546.510152 481.784264 546.510152 481.784264 557.21764 578.06599 557.21764zM578.06599 567.925127L578.06599 578.632614 481.784264 578.632614 481.784264 567.925127 578.06599 567.925127z"/>
      <path fill="#4038FF" d="M577.281726,185.819036 L577.281726,193.367386 L569.739372,193.367386 L481,104.549207 L481,97 L488.541497,97 L577.281726,185.819036 Z M481,119.699873 L481,134.851396 L539.464594,193.367386 L554.601555,193.367386 L481,119.699873 Z M481,165.152728 L481,150.002062 L524.326777,193.367386 L509.188959,193.367386 L481,165.152728 Z M481,193.367386 L494.051142,193.367386 L481,180.304251 L481,193.367386 Z M503.679315,97 L518.817132,97 L577.281726,155.51599 L577.281726,170.667513 L503.679315,97 Z M549.092766,97 L533.954949,97 L577.281726,140.365324 L577.281726,125.214657 L549.092766,97 Z M577.281726,110.063135 L564.229727,97 L577.281726,97 L577.281726,110.063135 Z"/>
      <path fill="#FFF" d="M663.649651,385.897843 L674.347716,385.897843 C674.347716,439.119194 631.240228,482.265228 578.06599,482.265228 L578.06599,471.557741 C625.334835,471.557741 663.649651,433.208661 663.649651,385.897843 Z M642.253522,385.897843 L652.951586,385.897843 C652.951586,427.292989 619.424302,460.850254 578.06599,460.850254 L578.06599,450.142766 C613.513769,450.142766 642.253522,421.377316 642.253522,385.897843 Z M631.556313,385.897843 L620.858249,385.897843 C620.858249,409.550254 601.697843,428.727792 578.06599,428.727792 L578.06599,439.435279 C607.608376,439.435279 631.556313,415.466783 631.556313,385.897843 Z M599.462119,385.897843 L610.160184,385.897843 C610.160184,403.639721 595.792449,418.020305 578.06599,418.020305 L578.06599,407.312817 C589.881916,407.312817 599.462119,397.724048 599.462119,385.897843 Z M578.06599,385.897843 L588.764055,385.897843 C588.764055,391.813515 583.976523,396.60533 578.06599,396.60533 L578.06599,385.897843 Z"/>
      <path fill="#FFF" fill-rule="nonzero" d="M578.06599,578.632614 L578.06599,675 L674.347716,675 C674.347716,621.778648 631.240228,578.632614 578.06599,578.632614 Z" transform="rotate(90 626.207 626.816)"/>
      <path fill="#1F242C" d="M588.703204,97 L578,97 L578,0.632614213 L588.703204,0.632614213 L588.703204,97 Z M620.802538,97 L631.505742,97 L631.505742,0.632614213 L620.802538,0.632614213 L620.802538,97 Z M652.901872,97 L642.198668,97 L642.198668,0.632614213 L652.901872,0.632614213 L652.901872,97 Z M674.281726,97 L663.578522,97 L663.578522,0.632614213 L674.281726,0.632614213 L674.281726,97 Z M599.406409,97 L610.109613,97 L610.109613,0.632614213 L599.406409,0.632614213 L599.406409,97 Z" transform="rotate(90 626.14 48.816)"/>
      <path fill="#1F242C" d="M482.098985,89.247335 L482.098985,96.7956853 L474.556631,96.7956853 L385.817259,7.97750635 L385.817259,0.428299492 L393.358756,0.428299492 L482.098985,89.247335 Z M385.817259,23.1281726 L385.817259,38.2796954 L444.281853,96.7956853 L459.418813,96.7956853 L385.817259,23.1281726 Z M385.817259,68.5810279 L385.817259,53.4303617 L429.144036,96.7956853 L414.006218,96.7956853 L385.817259,68.5810279 Z M385.817259,96.7956853 L398.868401,96.7956853 L385.817259,83.7325508 L385.817259,96.7956853 Z M408.496574,0.428299492 L423.634391,0.428299492 L482.098985,58.9442893 L482.098985,74.0958122 L408.496574,0.428299492 Z M453.910025,0.428299492 L438.772208,0.428299492 L482.098985,43.7936231 L482.098985,28.6429569 L453.910025,0.428299492 Z M482.098985,13.491434 L469.046986,0.428299492 L482.098985,0.428299492 L482.098985,13.491434 Z"/>
    </g>
    <path fill="#FFF" d="M490.578125,373.769531 C492.747407,373.769531 494.634107,374.143225 496.238281,374.890625 C497.842456,375.638025 499.173172,376.663405 500.230469,377.966797 C501.287766,379.270189 502.080727,380.846996 502.609375,382.697266 C503.138023,384.547535 503.402344,386.557281 503.402344,388.726562 C503.402344,390.932303 503.138023,392.946605 502.609375,394.769531 C502.080727,396.592457 501.287766,398.16015 500.230469,399.472656 C499.173172,400.785163 497.837899,401.8151 496.224609,402.5625 C494.61132,403.3099 492.729177,403.683594 490.578125,403.683594 C488.408843,403.683594 486.522143,403.3099 484.917969,402.5625 C483.313794,401.8151 481.978521,400.785163 480.912109,399.472656 C479.845698,398.16015 479.052737,396.592457 478.533203,394.769531 C478.013669,392.946605 477.753906,390.932303 477.753906,388.726562 C477.753906,386.557281 478.013669,384.547535 478.533203,382.697266 C479.052737,380.846996 479.845698,379.270189 480.912109,377.966797 C481.978521,376.663405 483.313794,375.638025 484.917969,374.890625 C486.522143,374.143225 488.408843,373.769531 490.578125,373.769531 Z M396.871094,373.769531 C398.931,373.769531 400.726555,374.124996 402.257812,374.835938 C403.78907,375.546879 405.055985,376.517572 406.058594,377.748047 C407.061203,378.978522 407.817706,380.423169 408.328125,382.082031 C408.838544,383.740894 409.09375,385.527334 409.09375,387.441406 L409.09375,390.121094 L389.871094,390.121094 L389.871094,393.15625 C389.871094,394.195318 390.067055,395.115881 390.458984,395.917969 C390.850913,396.720056 391.384111,397.399086 392.058594,397.955078 C392.733076,398.51107 393.489579,398.930337 394.328125,399.212891 C395.166671,399.495444 396.032548,399.636719 396.925781,399.636719 C398.712249,399.636719 400.261712,399.180994 401.574219,398.269531 C402.886725,397.358068 403.634114,395.908864 403.816406,393.921875 L408.875,393.921875 C408.765624,395.453133 408.364587,396.815749 407.671875,398.009766 C406.979163,399.203782 406.081386,400.220048 404.978516,401.058594 C403.875646,401.89714 402.631517,402.544269 401.246094,403 C399.86067,403.455731 398.402351,403.683594 396.871094,403.683594 C394.811188,403.683594 393.011075,403.3099 391.470703,402.5625 C389.930331,401.8151 388.645187,400.785163 387.615234,399.472656 C386.585281,398.16015 385.819664,396.592457 385.318359,394.769531 C384.817055,392.946605 384.566406,390.932303 384.566406,388.726562 C384.566406,386.557281 384.835284,384.547535 385.373047,382.697266 C385.91081,380.846996 386.712885,379.270189 387.779297,377.966797 C388.845708,376.663405 390.135409,375.638025 391.648438,374.890625 C393.161466,374.143225 394.902334,373.769531 396.871094,373.769531 Z M853.867188,364.910156 L853.867188,403 L848.808594,403 L848.808594,398.351562 C847.91536,400.065113 846.721362,401.382157 845.226562,402.302734 C843.731763,403.223312 841.927094,403.683594 839.8125,403.683594 C837.880199,403.683594 836.198575,403.291671 834.767578,402.507812 C833.336581,401.723954 832.14714,400.657559 831.199219,399.308594 C830.251297,397.959629 829.544924,396.378264 829.080078,394.564453 C828.615232,392.750642 828.382812,390.804698 828.382812,388.726562 C828.382812,386.666656 828.615232,384.720712 829.080078,382.888672 C829.544924,381.056631 830.242183,379.47071 831.171875,378.130859 C832.101567,376.791009 833.277337,375.729171 834.699219,374.945312 C836.121101,374.161454 837.779938,373.769531 839.675781,373.769531 C841.808604,373.769531 843.640617,374.225256 845.171875,375.136719 C846.703133,376.048182 847.91536,377.369783 848.808594,379.101562 L848.808594,364.910156 L853.867188,364.910156 Z M685.074219,373.769531 C687.2435,373.769531 689.1302,374.143225 690.734375,374.890625 C692.33855,375.638025 693.669266,376.663405 694.726562,377.966797 C695.783859,379.270189 696.57682,380.846996 697.105469,382.697266 C697.634117,384.547535 697.898438,386.557281 697.898438,388.726562 C697.898438,390.932303 697.634117,392.946605 697.105469,394.769531 C696.57682,396.592457 695.783859,398.16015 694.726562,399.472656 C693.669266,400.785163 692.333992,401.8151 690.720703,402.5625 C689.107414,403.3099 687.225271,403.683594 685.074219,403.683594 C682.904937,403.683594 681.018237,403.3099 679.414062,402.5625 C677.809888,401.8151 676.474615,400.785163 675.408203,399.472656 C674.341792,398.16015 673.548831,396.592457 673.029297,394.769531 C672.509763,392.946605 672.25,390.932303 672.25,388.726562 C672.25,386.557281 672.509763,384.547535 673.029297,382.697266 C673.548831,380.846996 674.341792,379.270189 675.408203,377.966797 C676.474615,376.663405 677.809888,375.638025 679.414062,374.890625 C681.018237,374.143225 682.904937,373.769531 685.074219,373.769531 Z M710.476562,374.453125 L710.476562,392.910156 C710.476562,394.970062 710.8776,396.606114 711.679688,397.818359 C712.481775,399.030605 713.949208,399.636719 716.082031,399.636719 C718.214854,399.636719 719.905593,398.843758 721.154297,397.257812 C722.403001,395.671867 723.027344,393.630221 723.027344,391.132812 L723.027344,374.453125 L728.058594,374.453125 L728.058594,403 L723.027344,403 L723.027344,398.296875 C722.243486,399.973967 721.195319,401.291011 719.882812,402.248047 C718.570306,403.205083 716.838552,403.683594 714.6875,403.683594 C713.374993,403.683594 712.149094,403.496747 711.009766,403.123047 C709.870437,402.749347 708.890629,402.152348 708.070312,401.332031 C707.249996,400.511715 706.607424,399.454434 706.142578,398.160156 C705.677732,396.865879 705.445312,395.307301 705.445312,393.484375 L705.445312,374.453125 L710.476562,374.453125 Z M809.953125,373.769531 C812.013031,373.769531 813.808586,374.124996 815.339844,374.835938 C816.871101,375.546879 818.138016,376.517572 819.140625,377.748047 C820.143234,378.978522 820.899737,380.423169 821.410156,382.082031 C821.920575,383.740894 822.175781,385.527334 822.175781,387.441406 L822.175781,390.121094 L802.953125,390.121094 L802.953125,393.15625 C802.953125,394.195318 803.149087,395.115881 803.541016,395.917969 C803.932945,396.720056 804.466142,397.399086 805.140625,397.955078 C805.815108,398.51107 806.57161,398.930337 807.410156,399.212891 C808.248702,399.495444 809.114579,399.636719 810.007812,399.636719 C811.79428,399.636719 813.343743,399.180994 814.65625,398.269531 C815.968757,397.358068 816.716145,395.908864 816.898438,393.921875 L821.957031,393.921875 C821.847656,395.453133 821.446618,396.815749 820.753906,398.009766 C820.061194,399.203782 819.163417,400.220048 818.060547,401.058594 C816.957677,401.89714 815.713549,402.544269 814.328125,403 C812.942701,403.455731 811.484383,403.683594 809.953125,403.683594 C807.893219,403.683594 806.093107,403.3099 804.552734,402.5625 C803.012362,401.8151 801.727219,400.785163 800.697266,399.472656 C799.667313,398.16015 798.901695,396.592457 798.400391,394.769531 C797.899086,392.946605 797.648438,390.932303 797.648438,388.726562 C797.648438,386.557281 797.917315,384.547535 798.455078,382.697266 C798.992841,380.846996 799.794917,379.270189 800.861328,377.966797 C801.92774,376.663405 803.21744,375.638025 804.730469,374.890625 C806.243497,374.143225 807.984365,373.769531 809.953125,373.769531 Z M780.066406,373.769531 C781.561205,373.769531 782.973952,373.965493 784.304688,374.357422 C785.635423,374.749351 786.802078,375.355465 787.804688,376.175781 C788.807297,376.996098 789.627601,378.039707 790.265625,379.306641 C790.903649,380.573574 791.295572,382.072908 791.441406,383.804688 L786.410156,383.804688 C786.300781,382.656244 786.059247,381.694665 785.685547,380.919922 C785.311847,380.145178 784.824222,379.525393 784.222656,379.060547 C783.621091,378.595701 782.937504,378.267579 782.171875,378.076172 C781.406246,377.884765 780.613285,377.789062 779.792969,377.789062 C778.936194,377.789062 778.115889,377.930337 777.332031,378.212891 C776.548173,378.495444 775.837243,378.919268 775.199219,379.484375 C774.561195,380.049482 774.05534,380.751298 773.681641,381.589844 C773.307941,382.42839 773.121094,383.40364 773.121094,384.515625 L773.121094,392.910156 C773.121094,393.912765 773.298826,394.837886 773.654297,395.685547 C774.009767,396.533207 774.497393,397.244138 775.117188,397.818359 C775.736982,398.392581 776.447913,398.839191 777.25,399.158203 C778.052087,399.477215 778.917964,399.636719 779.847656,399.636719 C781.707041,399.636719 783.256504,399.135422 784.496094,398.132812 C785.735683,397.130203 786.446614,395.562511 786.628906,393.429688 L791.660156,393.429688 C791.477864,395.179696 791.031254,396.697259 790.320312,397.982422 C789.609371,399.267585 788.729823,400.33398 787.681641,401.181641 C786.633458,402.029301 785.448574,402.658201 784.126953,403.068359 C782.805332,403.478518 781.415372,403.683594 779.957031,403.683594 C777.860667,403.683594 776.060554,403.319014 774.556641,402.589844 C773.052727,401.860673 771.794927,400.830736 770.783203,399.5 C769.771479,398.169264 769.024091,396.610686 768.541016,394.824219 C768.05794,393.037751 767.816406,391.078136 767.816406,388.945312 C767.816406,386.666655 768.085284,384.583994 768.623047,382.697266 C769.16081,380.810537 769.953771,379.215501 771.001953,377.912109 C772.050135,376.608717 773.339836,375.592452 774.871094,374.863281 C776.402351,374.134111 778.134105,373.769531 780.066406,373.769531 Z M553.550781,374.453125 L542.066406,387.03125 L554.34375,403 L548.574219,403 L536.242188,387.03125 L547.453125,374.453125 L553.550781,374.453125 Z M750.917969,373.769531 C752.303392,373.769531 753.561192,373.956378 754.691406,374.330078 C755.82162,374.703778 756.796871,375.300777 757.617188,376.121094 C758.437504,376.94141 759.075519,377.994134 759.53125,379.279297 C759.986981,380.56446 760.214844,382.127595 760.214844,383.96875 L760.214844,403 L755.15625,403 L755.15625,384.515625 C755.15625,382.41926 754.755212,380.774095 753.953125,379.580078 C753.151038,378.386062 751.665375,377.789062 749.496094,377.789062 C748.457026,377.789062 747.509119,377.994139 746.652344,378.404297 C745.795569,378.814455 745.04818,379.40234 744.410156,380.167969 C743.772132,380.933598 743.275392,381.84049 742.919922,382.888672 C742.564451,383.936854 742.386719,385.080723 742.386719,386.320312 L742.386719,403 L737.355469,403 L737.355469,374.453125 L742.386719,374.453125 L742.386344,379.154938 L742.559152,378.802384 C743.325709,377.292846 744.343744,376.093754 745.613281,375.205078 C746.980476,374.248042 748.748687,373.769531 750.917969,373.769531 Z M590.574219,364.910156 L603.78125,403 L598.175781,403 L595.058594,393.59375 L580.101562,393.59375 L576.957031,403 L571.460938,403 L584.640625,364.910156 L590.574219,364.910156 Z M536.1875,364.910156 L536.1875,403 L531.15625,403 L531.15625,364.910156 L536.1875,364.910156 Z M524.894531,374.453125 L524.894531,378.800781 L516.199219,378.800781 L516.199219,403 L511.167969,403 L511.167969,374.453125 L524.894531,374.453125 Z M439.636719,374.453125 L445.296875,396.792969 L445.515625,396.792969 L450.546875,374.453125 L456.671875,374.453125 L461.921875,396.792969 L462.140625,396.792969 L467.855469,374.453125 L472.777344,374.453125 L464.4375,403 L459.132812,403 L453.746094,379.867188 L453.527344,379.867188 L448.085938,403 L442.890625,403 L434.550781,374.453125 L439.636719,374.453125 Z M423.804688,364.910156 L423.804688,374.453125 L430.367188,374.453125 L430.367188,378.746094 L423.804688,378.746094 L423.804688,398.679688 L430.367188,398.679688 L430.367188,403 L418.828125,403 L418.828125,378.746094 L414.015625,378.746094 L414.015625,374.453125 L418.828125,374.453125 L418.828125,364.910156 L423.804688,364.910156 Z M355.171875,364.910156 L370.894531,396.546875 L371.140625,396.546875 L371.140625,364.910156 L376.28125,364.910156 L376.28125,403 L368.789062,403 L353.039062,371.199219 L352.820312,371.199219 L352.820312,403 L347.652344,403 L347.652344,364.910156 L355.171875,364.910156 Z M655.40625,373.769531 C656.791674,373.769531 658.049474,373.956378 659.179688,374.330078 C660.309901,374.703778 661.285152,375.300777 662.105469,376.121094 C662.925785,376.94141 663.5638,377.994134 664.019531,379.279297 C664.475263,380.56446 664.703125,382.127595 664.703125,383.96875 L664.703125,403 L659.644531,403 L659.644531,384.515625 C659.644531,382.41926 659.243494,380.774095 658.441406,379.580078 C657.639319,378.386062 656.153657,377.789062 653.984375,377.789062 C652.945307,377.789062 651.9974,377.994139 651.140625,378.404297 C650.28385,378.814455 649.536462,379.40234 648.898438,380.167969 C648.260413,380.933598 647.763674,381.84049 647.408203,382.888672 C647.052733,383.936854 646.875,385.080723 646.875,386.320312 L646.875,403 L641.84375,403 L641.84375,374.453125 L646.875,374.453125 L646.874344,379.154938 L647.047434,378.802384 C647.813991,377.292846 648.832025,376.093754 650.101562,375.205078 C651.468757,374.248042 653.236968,373.769531 655.40625,373.769531 Z M623.496094,373.769531 C624.881517,373.769531 626.139317,373.956378 627.269531,374.330078 C628.399745,374.703778 629.374996,375.300777 630.195312,376.121094 C631.015629,376.94141 631.653644,377.994134 632.109375,379.279297 C632.565106,380.56446 632.792969,382.127595 632.792969,383.96875 L632.792969,403 L627.734375,403 L627.734375,384.515625 C627.734375,382.41926 627.333337,380.774095 626.53125,379.580078 C625.729163,378.386062 624.2435,377.789062 622.074219,377.789062 C621.035151,377.789062 620.087244,377.994139 619.230469,378.404297 C618.373694,378.814455 617.626305,379.40234 616.988281,380.167969 C616.350257,380.933598 615.853517,381.84049 615.498047,382.888672 C615.142576,383.936854 614.964844,385.080723 614.964844,386.320312 L614.964844,403 L609.933594,403 L609.933594,374.453125 L614.964844,374.453125 L614.964344,379.154938 L615.137277,378.802384 C615.903834,377.292846 616.921869,376.093754 618.191406,375.205078 C619.558601,374.248042 621.326812,373.769531 623.496094,373.769531 Z M840.988281,377.789062 C839.949214,377.789062 838.987635,377.948566 838.103516,378.267578 C837.219397,378.58659 836.449222,379.028643 835.792969,379.59375 C835.136715,380.158857 834.621747,380.842444 834.248047,381.644531 C833.874347,382.446619 833.6875,383.330724 833.6875,384.296875 L833.6875,393.15625 C833.6875,394.122401 833.874347,395.006506 834.248047,395.808594 C834.621747,396.610681 835.136715,397.289711 835.792969,397.845703 C836.449222,398.401695 837.214839,398.839191 838.089844,399.158203 C838.964848,399.477215 839.930984,399.636719 840.988281,399.636719 C843.522148,399.636719 845.458978,398.834643 846.798828,397.230469 C848.138679,395.626294 848.808594,393.593762 848.808594,391.132812 L848.808594,386.320312 C848.808594,383.859363 848.138679,381.822274 846.798828,380.208984 C845.458978,378.595695 843.522148,377.789062 840.988281,377.789062 Z M490.578125,377.789062 C489.575516,377.789062 488.613937,377.948566 487.693359,378.267578 C486.772782,378.58659 485.975264,379.028643 485.300781,379.59375 C484.626299,380.158857 484.083986,380.842444 483.673828,381.644531 C483.26367,382.446619 483.058594,383.330724 483.058594,384.296875 L483.058594,393.15625 C483.058594,394.122401 483.26367,395.006506 483.673828,395.808594 C484.083986,396.610681 484.626299,397.289711 485.300781,397.845703 C485.975264,398.401695 486.768225,398.839191 487.679688,399.158203 C488.59115,399.477215 489.557287,399.636719 490.578125,399.636719 C491.580734,399.636719 492.537756,399.477215 493.449219,399.158203 C494.360682,398.839191 495.153642,398.401695 495.828125,397.845703 C496.502608,397.289711 497.04492,396.610681 497.455078,395.808594 C497.865236,395.006506 498.070312,394.122401 498.070312,393.15625 L498.070312,384.296875 C498.070312,383.330724 497.865236,382.446619 497.455078,381.644531 C497.04492,380.842444 496.502608,380.158857 495.828125,379.59375 C495.153642,379.028643 494.360682,378.58659 493.449219,378.267578 C492.537756,377.948566 491.580734,377.789062 490.578125,377.789062 Z M685.074219,377.789062 C684.07161,377.789062 683.110031,377.948566 682.189453,378.267578 C681.268876,378.58659 680.471358,379.028643 679.796875,379.59375 C679.122392,380.158857 678.58008,380.842444 678.169922,381.644531 C677.759764,382.446619 677.554688,383.330724 677.554688,384.296875 L677.554688,393.15625 C677.554688,394.122401 677.759764,395.006506 678.169922,395.808594 C678.58008,396.610681 679.122392,397.289711 679.796875,397.845703 C680.471358,398.401695 681.264318,398.839191 682.175781,399.158203 C683.087244,399.477215 684.05338,399.636719 685.074219,399.636719 C686.076828,399.636719 687.03385,399.477215 687.945312,399.158203 C688.856775,398.839191 689.649736,398.401695 690.324219,397.845703 C690.998701,397.289711 691.541014,396.610681 691.951172,395.808594 C692.36133,395.006506 692.566406,394.122401 692.566406,393.15625 L692.566406,384.296875 C692.566406,383.330724 692.36133,382.446619 691.951172,381.644531 C691.541014,380.842444 690.998701,380.158857 690.324219,379.59375 C689.649736,379.028643 688.856775,378.58659 687.945312,378.267578 C687.03385,377.948566 686.076828,377.789062 685.074219,377.789062 Z M587.703125,370.84375 L587.484375,370.84375 L581.496094,389.21875 L593.636719,389.21875 L587.703125,370.84375 Z M809.953125,377.789062 C809.023433,377.789062 808.139327,377.939452 807.300781,378.240234 C806.462235,378.541017 805.714847,378.98307 805.058594,379.566406 C804.40234,380.149743 803.887372,380.860673 803.513672,381.699219 C803.139972,382.537765 802.953125,383.476557 802.953125,384.515625 L802.953125,386.101562 L816.953125,386.101562 L816.953125,384.515625 C816.953125,383.476557 816.766278,382.537765 816.392578,381.699219 C816.018878,380.860673 815.508467,380.149743 814.861328,379.566406 C814.214189,378.98307 813.466801,378.541017 812.619141,378.240234 C811.77148,377.939452 810.882817,377.789062 809.953125,377.789062 Z M396.871094,377.789062 C395.941402,377.789062 395.057296,377.939452 394.21875,378.240234 C393.380204,378.541017 392.632816,378.98307 391.976562,379.566406 C391.320309,380.149743 390.80534,380.860673 390.431641,381.699219 C390.057941,382.537765 389.871094,383.476557 389.871094,384.515625 L389.871094,386.101562 L403.871094,386.101562 L403.871094,384.515625 C403.871094,383.476557 403.684247,382.537765 403.310547,381.699219 C402.936847,380.860673 402.426436,380.149743 401.779297,379.566406 C401.132158,378.98307 400.38477,378.541017 399.537109,378.240234 C398.689449,377.939452 397.800786,377.789062 396.871094,377.789062 Z M624.367188,289.242188 C627.075534,289.242188 629.445302,289.802078 631.476562,290.921875 C633.507823,292.041672 635.187493,293.558584 636.515625,295.472656 C637.843757,297.386728 638.82682,299.652331 639.464844,302.269531 C640.102868,304.886732 640.421875,307.666652 640.421875,310.609375 C640.421875,313.604182 640.102868,316.390612 639.464844,318.96875 C638.82682,321.546888 637.843757,323.79947 636.515625,325.726562 C635.187493,327.653655 633.507823,329.177078 631.476562,330.296875 C629.445302,331.416672 627.075534,331.976562 624.367188,331.976562 C621.658841,331.976562 619.315114,331.403652 617.335938,330.257812 C615.356761,329.111973 613.729173,327.523448 612.453125,325.492188 L612.453125,344.59375 L602.453125,344.59375 L602.453125,290.21875 L612.453125,290.21875 L612.453125,295.726562 C613.729173,293.695302 615.350251,292.106777 617.316406,290.960938 C619.282562,289.815098 621.632799,289.242188 624.367188,289.242188 Z M667.765625,289.242188 C670.812515,289.242188 673.520821,289.749995 675.890625,290.765625 C678.260429,291.781255 680.259106,293.233063 681.886719,295.121094 C683.514331,297.009124 684.751298,299.261706 685.597656,301.878906 C686.444015,304.496107 686.867188,307.406234 686.867188,310.609375 C686.867188,313.812516 686.444015,316.716133 685.597656,319.320312 C684.751298,321.924492 683.514331,324.177074 681.886719,326.078125 C680.259106,327.979176 678.260429,329.437495 675.890625,330.453125 C673.520821,331.468755 670.812515,331.976562 667.765625,331.976562 C664.718735,331.976562 662.010429,331.468755 659.640625,330.453125 C657.270821,329.437495 655.272144,327.979176 653.644531,326.078125 C652.016919,324.177074 650.773442,321.924492 649.914062,319.320312 C649.054683,316.716133 648.625,313.812516 648.625,310.609375 C648.625,307.406234 649.054683,304.496107 649.914062,301.878906 C650.773442,299.261706 652.016919,297.009124 653.644531,295.121094 C655.272144,293.233063 657.270821,291.781255 659.640625,290.765625 C662.010429,289.749995 664.718735,289.242188 667.765625,289.242188 Z M573.117188,289.242188 C576.164078,289.242188 578.872384,289.749995 581.242188,290.765625 C583.611991,291.781255 585.610669,293.233063 587.238281,295.121094 C588.865894,297.009124 590.10286,299.261706 590.949219,301.878906 C591.795577,304.496107 592.21875,307.406234 592.21875,310.609375 C592.21875,313.812516 591.795577,316.716133 590.949219,319.320312 C590.10286,321.924492 588.865894,324.177074 587.238281,326.078125 C585.610669,327.979176 583.611991,329.437495 581.242188,330.453125 C578.872384,331.468755 576.164078,331.976562 573.117188,331.976562 C570.070297,331.976562 567.361991,331.468755 564.992188,330.453125 C562.622384,329.437495 560.623706,327.979176 558.996094,326.078125 C557.368481,324.177074 556.125004,321.924492 555.265625,319.320312 C554.406246,316.716133 553.976562,313.812516 553.976562,310.609375 C553.976562,307.406234 554.406246,304.496107 555.265625,301.878906 C556.125004,299.261706 557.368481,297.009124 558.996094,295.121094 C560.623706,293.233063 562.622384,291.781255 564.992188,290.765625 C567.361991,289.749995 570.070297,289.242188 573.117188,289.242188 Z M497.921875,289.242188 C500.057302,289.242188 502.101553,289.522133 504.054688,290.082031 C506.007822,290.64193 507.772128,291.520827 509.347656,292.71875 C510.923185,293.916673 512.199214,295.446605 513.175781,297.308594 C514.152349,299.170582 514.757811,301.390612 514.992188,303.96875 L504.992188,303.96875 C504.73177,301.36457 503.930996,299.554693 502.589844,298.539062 C501.248691,297.523432 499.56251,297.015625 497.53125,297.015625 C495.49999,297.015625 493.742195,297.66666 492.257812,298.96875 C490.77343,300.27084 490.03125,302.276028 490.03125,304.984375 L490.03125,316.195312 C490.03125,318.695325 490.734368,320.654941 492.140625,322.074219 C493.546882,323.493497 495.36978,324.203125 497.609375,324.203125 C499.84897,324.203125 501.613275,323.669276 502.902344,322.601562 C504.191413,321.533849 504.992186,319.645847 505.304688,316.9375 L515.304688,316.9375 C515.04427,319.489596 514.432296,321.696605 513.46875,323.558594 C512.505204,325.420582 511.248706,326.976556 509.699219,328.226562 C508.149732,329.476569 506.391937,330.414059 504.425781,331.039062 C502.459626,331.664066 500.356782,331.976562 498.117188,331.976562 C495.070297,331.976562 492.401053,331.455734 490.109375,330.414062 C487.817697,329.372391 485.884122,327.927093 484.308594,326.078125 C482.733065,324.229157 481.554691,322.015638 480.773438,319.4375 C479.992184,316.859362 479.601562,313.994807 479.601562,310.84375 C479.601562,307.484358 480.031246,304.470065 480.890625,301.800781 C481.750004,299.131497 482.980461,296.865895 484.582031,295.003906 C486.183602,293.141918 488.104155,291.716151 490.34375,290.726562 C492.583345,289.736974 495.109361,289.242188 497.921875,289.242188 Z M755.851562,289.242188 C760.487002,289.242188 764.289048,290.361968 767.257812,292.601562 C770.226577,294.841157 771.815103,298.22654 772.023438,302.757812 L762.023438,302.757812 C761.91927,300.83072 761.307297,299.391932 760.1875,298.441406 C759.067703,297.490881 757.622405,297.015625 755.851562,297.015625 C754.132804,297.015625 752.733078,297.386715 751.652344,298.128906 C750.571609,298.871097 750.03125,299.906243 750.03125,301.234375 C750.03125,302.562507 750.441402,303.54557 751.261719,304.183594 C752.082035,304.821618 753.156243,305.283853 754.484375,305.570312 L762.570312,307.328125 C764.054695,307.640627 765.467441,308.102862 766.808594,308.714844 C768.149746,309.326826 769.302079,310.114579 770.265625,311.078125 C771.229171,312.041671 771.990883,313.187493 772.550781,314.515625 C773.11068,315.843757 773.390625,317.419262 773.390625,319.242188 C773.390625,321.01303 773.013025,322.666659 772.257812,324.203125 C771.5026,325.739591 770.408861,327.080723 768.976562,328.226562 C767.544264,329.372402 765.773448,330.283851 763.664062,330.960938 C761.554677,331.638024 759.145847,331.976562 756.4375,331.976562 C750.994764,331.976562 746.789077,330.772147 743.820312,328.363281 C740.851548,325.954415 739.263022,322.510439 739.054688,318.03125 L749.054688,318.03125 C749.471356,322.145854 751.932269,324.203125 756.4375,324.203125 C758.364593,324.203125 760.005202,323.845056 761.359375,323.128906 C762.713548,322.412757 763.390625,321.273445 763.390625,319.710938 C763.390625,318.226555 762.830735,317.152347 761.710938,316.488281 C760.59114,315.824215 759.119801,315.296877 757.296875,314.90625 L750.265625,313.382812 C743.442674,311.89843 740.03125,308.00524 740.03125,301.703125 C740.03125,299.932283 740.389319,298.291674 741.105469,296.78125 C741.821618,295.270826 742.856764,293.955735 744.210938,292.835938 C745.565111,291.71614 747.21874,290.837243 749.171875,290.199219 C751.12501,289.561195 753.35155,289.242188 755.851562,289.242188 Z M707.101562,276.585938 L707.101562,331 L697.101562,331 L697.101562,276.585938 L707.101562,276.585938 Z M547.921875,290.21875 L547.921875,298.03125 L535.148438,298.03125 L535.148438,331 L525.148438,331 L525.148438,290.21875 L547.921875,290.21875 Z M729.40625,290.21875 L729.40625,331 L719.40625,331 L719.40625,290.21875 L729.40625,290.21875 Z M455.421875,276.585938 L473.898438,331 L462.6875,331 L459.09375,319.398438 L440.539062,319.398438 L437.023438,331 L425.8125,331 L444.367188,276.585938 L455.421875,276.585938 Z M621.632812,297.015625 C618.429671,297.015625 616.098966,297.972647 614.640625,299.886719 C613.182284,301.800791 612.453125,304.359359 612.453125,307.5625 L612.453125,313.65625 C612.453125,316.859391 613.182284,319.417959 614.640625,321.332031 C616.098966,323.246103 618.429671,324.203125 621.632812,324.203125 C624.236992,324.203125 626.287753,323.493497 627.785156,322.074219 C629.28256,320.654941 630.03125,318.747408 630.03125,316.351562 L630.03125,304.828125 C630.03125,302.43228 629.28907,300.531257 627.804688,299.125 C626.320305,297.718743 624.263034,297.015625 621.632812,297.015625 Z M667.765625,297.015625 C665.265612,297.015625 663.18881,297.679681 661.535156,299.007812 C659.881502,300.335944 659.054688,302.223946 659.054688,304.671875 L659.054688,316.507812 C659.054688,318.955741 659.881502,320.850254 661.535156,322.191406 C663.18881,323.532559 665.265612,324.203125 667.765625,324.203125 C670.265638,324.203125 672.34244,323.55209 673.996094,322.25 C675.649748,320.94791 676.476562,319.033867 676.476562,316.507812 L676.476562,304.671875 C676.476562,302.171862 675.649748,300.27084 673.996094,298.96875 C672.34244,297.66666 670.265638,297.015625 667.765625,297.015625 Z M573.117188,297.015625 C570.617175,297.015625 568.540373,297.679681 566.886719,299.007812 C565.233065,300.335944 564.40625,302.223946 564.40625,304.671875 L564.40625,316.507812 C564.40625,318.955741 565.233065,320.850254 566.886719,322.191406 C568.540373,323.532559 570.617175,324.203125 573.117188,324.203125 C575.6172,324.203125 577.694002,323.55209 579.347656,322.25 C581.00131,320.94791 581.828125,319.033867 581.828125,316.507812 L581.828125,304.671875 C581.828125,302.171862 581.00131,300.27084 579.347656,298.96875 C577.694002,297.66666 575.6172,297.015625 573.117188,297.015625 Z M450.148438,289.164062 L449.796875,289.164062 L443.234375,310.609375 L456.4375,310.609375 L450.148438,289.164062 Z M729.5625,276.585938 L729.5625,285.492188 L719.25,285.492188 L719.25,276.585938 L729.5625,276.585938 Z"/>
  </g>
</svg>
