<?xml version="1.0" encoding="UTF-8"?>
<svg width="1200px" height="675px" viewBox="0 0 1200 675" version="1.1" xmlns="http://www.w3.org/2000/svg" xmlns:xlink="http://www.w3.org/1999/xlink">
    <!-- Generator: Sketch 59.1 (86144) - https://sketch.com -->
    <title>Twitter-template-16</title>
    <desc>Created with Sketch.</desc>
    <g id="Twitter-template-16" stroke="none" stroke-width="1" fill="none" fill-rule="evenodd">
        <rect fill="#000000" x="0" y="0" width="1200" height="675"></rect>
        <g id="Group" transform="translate(1344.500000, 338.000000) scale(-1, 1) translate(-1344.500000, -338.000000) translate(1007.000000, 0.000000)">
            <path d="M556.659581,321.669194 L545.982931,321.669194 L545.982931,332.355266 L556.659581,332.355266 L556.659581,343.067893 L545.982931,343.067893 L545.982931,353.78052 L556.659581,353.78052 L556.659581,364.466593 L567.362786,364.466593 L567.362786,375.17922 L556.659581,375.17922 L556.659581,364.493147 L545.982931,364.493147 L545.982931,375.17922 L556.659581,375.17922 L556.659581,385.897843 L545.956377,385.897843 L545.956377,375.185216 L535.279727,375.185216 L535.279727,364.499143 L524.576523,364.499143 L524.576523,375.185216 L513.873319,375.185216 L513.873319,364.499143 L503.196669,364.499143 L503.196669,375.185216 L513.873319,375.185216 L513.873319,385.897843 L503.169258,385.897843 L503.169258,375.185216 L492.493464,375.185216 L492.493464,385.897843 L481.784264,385.897843 L481.784264,375.185216 L492.487468,375.185216 L492.487468,364.499143 L481.784264,364.499143 L481.784264,353.78566 L492.487468,353.78566 L492.487468,343.073033 L481.784264,343.073033 L481.784264,332.360406 L492.487468,332.360406 L492.487468,321.674334 L492.487468,321.647779 L503.164118,321.647779 L503.164118,310.961707 L513.867322,310.961707 L513.867322,321.647779 L524.570527,321.647779 L524.570527,310.961707 L535.274588,310.961707 L535.274588,321.647779 L545.951237,321.647779 L545.951237,310.961707 L556.654442,310.961707 L556.654442,321.647779 L567.357646,321.647779 L567.357646,332.360406 L556.654442,332.360406 L556.654442,321.669194 L556.659581,321.669194 Z M492.487468,321.64264 L492.487468,310.955711 L481.784264,310.955711 L481.784264,321.669194 L492.487468,321.669194 L492.487468,321.64264 Z M524.570527,375.185216 L524.570527,385.897843 L535.274588,385.897843 L535.274588,375.185216 L524.570527,375.185216 Z M556.659581,353.78566 L556.659581,343.073033 L567.362786,343.073033 L567.362786,353.78566 L556.659581,353.78566 Z M503.164118,364.472589 L492.487468,364.472589 L492.487468,353.78566 L503.164118,353.78566 L503.164118,364.472589 Z M503.190673,310.955711 L503.190673,300.243084 L513.867322,300.243084 L513.867322,310.955711 L524.570527,310.955711 L524.570527,300.243084 L535.274588,300.243084 L535.274588,310.955711 L545.977792,310.955711 L545.977792,300.243084 L556.654442,300.243084 L556.654442,310.955711 L567.357646,310.955711 L567.357646,300.243084 L556.654442,300.243084 L556.654442,289.530457 L545.951237,289.530457 L545.951237,300.243084 L535.274588,300.243084 L535.274588,289.530457 L524.570527,289.530457 L524.570527,300.243084 L513.867322,300.243084 L513.867322,289.530457 L503.164118,289.530457 L503.164118,300.243084 L492.487468,300.243084 L492.487468,289.530457 L481.784264,289.530457 L481.784264,300.243084 L492.487468,300.243084 L492.487468,310.955711 L503.190673,310.955711 Z M545.951237,332.355266 L545.951237,343.067893 L535.274588,343.067893 L535.274588,332.355266 L545.951237,332.355266 Z M524.570527,332.355266 L524.570527,321.669194 L535.274588,321.669194 L535.274588,332.355266 L524.570527,332.355266 Z M513.867322,332.355266 L524.570527,332.355266 L524.570527,343.067893 L513.867322,343.067893 L513.867322,332.355266 Z M513.867322,332.355266 L503.190673,332.355266 L503.190673,321.669194 L513.867322,321.669194 L513.867322,332.355266 Z M513.867322,353.78566 L503.190673,353.78566 L503.190673,343.073033 L513.867322,343.073033 L513.867322,353.78566 Z M524.570527,353.78566 L524.570527,364.472589 L513.867322,364.472589 L513.867322,353.78566 L524.570527,353.78566 Z M535.279727,353.78566 L524.576523,353.78566 L524.576523,343.073033 L535.279727,343.073033 L535.279727,353.78566 Z M535.279727,353.78566 L545.956377,353.78566 L545.956377,364.472589 L535.279727,364.472589 L535.279727,353.78566 Z M503.164118,343.073033 L503.164118,332.360406 L492.487468,332.360406 L492.487468,343.073033 L503.164118,343.073033 Z M578.06599,375.185216 L567.362786,375.185216 L567.362786,385.897843 L578.06599,385.897843 L578.06599,375.185216 Z M567.362786,353.78566 L578.06599,353.78566 L578.06599,364.499143 L567.362786,364.499143 L567.362786,353.78566 Z M578.06599,332.355266 L567.362786,332.355266 L567.362786,343.067893 L578.06599,343.067893 L578.06599,332.355266 Z M567.362786,310.955711 L578.06599,310.955711 L578.06599,321.669194 L567.362786,321.669194 L567.362786,310.955711 Z M567.362786,289.530457 L578.06599,289.530457 L578.06599,300.243084 L567.362786,300.243084 L567.362786,289.530457 Z" id="Shape" fill="#4038FF"></path>
            <path d="M663.644511,97.0428299 L674.347716,97.0428299 L674.347716,0.675444162 L663.644511,0.675444162 L663.644511,97.0428299 Z M652.951586,97.0428299 L642.253522,97.0428299 L642.253522,0.675444162 L652.951586,0.675444162 L652.951586,97.0428299 Z M631.556313,97.0428299 L620.858249,97.0428299 L620.858249,0.675444162 L631.556313,0.675444162 L631.556313,97.0428299 Z M599.462119,97.0428299 L610.160184,97.0428299 L610.160184,0.675444162 L599.462119,0.675444162 L599.462119,97.0428299 Z M588.764055,97.0428299 L578.06599,97.0428299 L578.06599,0.675444162 L588.764055,0.675444162 L588.764055,97.0428299 Z" id="Shape" fill="#FFFFFF"></path>
            <path d="M578.06599,182.450273 L578.06599,193.163071 L481.784264,193.163071 L481.784264,182.450273 L578.06599,182.450273 Z M578.06599,150.322414 L578.06599,139.609616 L481.784264,139.609616 L481.784264,150.322414 L578.06599,150.322414 Z M578.06599,118.194641 L578.06599,128.90744 L481.784264,128.90744 L481.784264,118.194641 L578.06599,118.194641 Z M578.06599,96.7956853 L578.06599,107.508569 L481.784264,107.508569 L481.784264,96.7956853 L578.06599,96.7956853 Z M578.06599,171.737389 L578.06599,161.024505 L481.784264,161.024505 L481.784264,171.737389 L578.06599,171.737389 Z" id="Shape" fill="#1F242C"></path>
            <path d="M663.649651,385.897843 L674.347716,385.897843 C674.347716,439.119194 631.240228,482.265228 578.06599,482.265228 L578.06599,471.557741 C625.334835,471.557741 663.649651,433.208661 663.649651,385.897843 Z M642.253522,385.897843 L652.951586,385.897843 C652.951586,427.292989 619.424302,460.850254 578.06599,460.850254 L578.06599,450.142766 C613.513769,450.142766 642.253522,421.377316 642.253522,385.897843 Z M631.556313,385.897843 L620.858249,385.897843 C620.858249,409.550254 601.697843,428.727792 578.06599,428.727792 L578.06599,439.435279 C607.608376,439.435279 631.556313,415.466783 631.556313,385.897843 Z M599.462119,385.897843 L610.160184,385.897843 C610.160184,403.639721 595.792449,418.020305 578.06599,418.020305 L578.06599,407.312817 C589.881916,407.312817 599.462119,397.724048 599.462119,385.897843 Z M578.06599,385.897843 L588.764055,385.897843 C588.764055,391.813515 583.976523,396.60533 578.06599,396.60533 L578.06599,385.897843 Z" id="Shape" fill="#FFFFFF"></path>
            <path d="M481.718274,578.632614 L481.718274,675 L578,675 C578,621.778648 534.892513,578.632614 481.718274,578.632614 Z" id="Path" fill="#1F242C" fill-rule="nonzero" transform="translate(529.859137, 626.816307) rotate(-180.000000) translate(-529.859137, -626.816307) "></path>
            <path d="M588.703204,289.573287 L578,289.573287 L578,193.205901 L588.703204,193.205901 L588.703204,289.573287 Z M620.802538,289.573287 L631.505742,289.573287 L631.505742,193.205901 L620.802538,193.205901 L620.802538,289.573287 Z M652.901872,289.573287 L642.198668,289.573287 L642.198668,193.205901 L652.901872,193.205901 L652.901872,289.573287 Z M674.281726,289.573287 L663.578522,289.573287 L663.578522,193.205901 L674.281726,193.205901 L674.281726,289.573287 Z M599.406409,289.573287 L610.109613,289.573287 L610.109613,193.205901 L599.406409,193.205901 L599.406409,289.573287 Z" id="Shape-Copy-4" fill="#4038FF" transform="translate(626.140863, 241.389594) rotate(-270.000000) translate(-626.140863, -241.389594) "></path>
            <path d="M482.098985,89.247335 L482.098985,96.7956853 L474.556631,96.7956853 L385.817259,7.97750635 L385.817259,0.428299492 L393.358756,0.428299492 L482.098985,89.247335 Z M385.817259,23.1281726 L385.817259,38.2796954 L444.281853,96.7956853 L459.418813,96.7956853 L385.817259,23.1281726 Z M385.817259,68.5810279 L385.817259,53.4303617 L429.144036,96.7956853 L414.006218,96.7956853 L385.817259,68.5810279 Z M385.817259,96.7956853 L398.868401,96.7956853 L385.817259,83.7325508 L385.817259,96.7956853 Z M408.496574,0.428299492 L423.634391,0.428299492 L482.098985,58.9442893 L482.098985,74.0958122 L408.496574,0.428299492 Z M453.910025,0.428299492 L438.772208,0.428299492 L482.098985,43.7936231 L482.098985,28.6429569 L453.910025,0.428299492 Z M482.098985,13.491434 L469.046986,0.428299492 L482.098985,0.428299492 L482.098985,13.491434 Z" id="Shape-Copy-3" fill="#1F242C"></path>
        </g>
        <g id="Group-Copy" transform="translate(-482.000000, 0.000000)">
            <polygon id="Path" fill="#4038FF" fill-rule="nonzero" points="588.769194 482.265228 578.06599 482.265228 578.06599 492.977855 588.769194 492.977855"></polygon>
            <polygon id="Path" fill="#4038FF" fill-rule="nonzero" points="599.472398 492.977855 588.769194 492.977855 588.769194 503.691339 599.472398 503.691339"></polygon>
            <polygon id="Path" fill="#4038FF" fill-rule="nonzero" points="610.149048 482.265228 599.445844 482.265228 599.445844 492.977855 610.149048 492.977855"></polygon>
            <polygon id="Path" fill="#4038FF" fill-rule="nonzero" points="588.769194 503.663928 578.06599 503.663928 578.06599 514.376555 588.769194 514.376555"></polygon>
            <polygon id="Path" fill="#4038FF" fill-rule="nonzero" points="610.149048 503.663928 599.445844 503.663928 599.445844 514.376555 610.149048 514.376555"></polygon>
            <polygon id="Path" fill="#4038FF" fill-rule="nonzero" points="620.852253 492.977855 610.149048 492.977855 610.149048 503.691339 620.852253 503.691339"></polygon>
            <polygon id="Path" fill="#4038FF" fill-rule="nonzero" points="599.472398 514.376555 588.769194 514.376555 588.769194 525.090038 599.472398 525.090038"></polygon>
            <polygon id="Path" fill="#4038FF" fill-rule="nonzero" points="588.769194 525.090038 578.06599 525.090038 578.06599 535.802665 588.769194 535.802665"></polygon>
            <polygon id="Path" fill="#4038FF" fill-rule="nonzero" points="610.149048 525.090038 599.445844 525.090038 599.445844 535.802665 610.149048 535.802665"></polygon>
            <polygon id="Path" fill="#4038FF" fill-rule="nonzero" points="620.852253 514.376555 610.149048 514.376555 610.149048 525.090038 620.852253 525.090038"></polygon>
            <polygon id="Path" fill="#4038FF" fill-rule="nonzero" points="599.472398 535.807805 588.769194 535.807805 588.769194 546.521288 599.472398 546.521288"></polygon>
            <polygon id="Path" fill="#4038FF" fill-rule="nonzero" points="588.769194 546.493877 578.06599 546.493877 578.06599 557.206504 588.769194 557.206504"></polygon>
            <polygon id="Path" fill="#4038FF" fill-rule="nonzero" points="610.149048 546.493877 599.445844 546.493877 599.445844 557.206504 610.149048 557.206504"></polygon>
            <polygon id="Path" fill="#4038FF" fill-rule="nonzero" points="620.852253 535.807805 610.149048 535.807805 610.149048 546.521288 620.852253 546.521288"></polygon>
            <polygon id="Path" fill="#4038FF" fill-rule="nonzero" points="599.472398 557.206504 588.769194 557.206504 588.769194 567.919987 599.472398 567.919987"></polygon>
            <polygon id="Path" fill="#4038FF" fill-rule="nonzero" points="588.769194 567.919987 578.06599 567.919987 578.06599 578.632614 588.769194 578.632614"></polygon>
            <polygon id="Path" fill="#4038FF" fill-rule="nonzero" points="610.149048 567.919987 599.445844 567.919987 599.445844 578.632614 610.149048 578.632614"></polygon>
            <polygon id="Path" fill="#4038FF" fill-rule="nonzero" points="620.852253 557.206504 610.149048 557.206504 610.149048 567.919987 620.852253 567.919987"></polygon>
            <polygon id="Path" fill="#4038FF" fill-rule="nonzero" points="631.561453 482.265228 620.858249 482.265228 620.858249 492.977855 631.561453 492.977855"></polygon>
            <polygon id="Path" fill="#4038FF" fill-rule="nonzero" points="642.264657 492.977855 631.561453 492.977855 631.561453 503.691339 642.264657 503.691339"></polygon>
            <polygon id="Path" fill="#4038FF" fill-rule="nonzero" points="652.941307 482.265228 642.238103 482.265228 642.238103 492.977855 652.941307 492.977855"></polygon>
            <polygon id="Path" fill="#4038FF" fill-rule="nonzero" points="631.561453 503.663928 620.858249 503.663928 620.858249 514.376555 631.561453 514.376555"></polygon>
            <polygon id="Path" fill="#4038FF" fill-rule="nonzero" points="652.941307 503.663928 642.238103 503.663928 642.238103 514.376555 652.941307 514.376555"></polygon>
            <polygon id="Path" fill="#4038FF" fill-rule="nonzero" points="663.644511 492.977855 652.941307 492.977855 652.941307 503.691339 663.644511 503.691339"></polygon>
            <polygon id="Path" fill="#4038FF" fill-rule="nonzero" points="642.264657 514.376555 631.561453 514.376555 631.561453 525.090038 642.264657 525.090038"></polygon>
            <polygon id="Path" fill="#4038FF" fill-rule="nonzero" points="631.561453 525.090038 620.858249 525.090038 620.858249 535.802665 631.561453 535.802665"></polygon>
            <polygon id="Path" fill="#4038FF" fill-rule="nonzero" points="652.941307 525.090038 642.238103 525.090038 642.238103 535.802665 652.941307 535.802665"></polygon>
            <polygon id="Path" fill="#4038FF" fill-rule="nonzero" points="663.644511 514.376555 652.941307 514.376555 652.941307 525.090038 663.644511 525.090038"></polygon>
            <polygon id="Path" fill="#4038FF" fill-rule="nonzero" points="642.264657 535.807805 631.561453 535.807805 631.561453 546.521288 642.264657 546.521288"></polygon>
            <polygon id="Path" fill="#4038FF" fill-rule="nonzero" points="631.561453 546.493877 620.858249 546.493877 620.858249 557.206504 631.561453 557.206504"></polygon>
            <polygon id="Path" fill="#4038FF" fill-rule="nonzero" points="652.941307 546.493877 642.238103 546.493877 642.238103 557.206504 652.941307 557.206504"></polygon>
            <polygon id="Path" fill="#4038FF" fill-rule="nonzero" points="663.644511 535.807805 652.941307 535.807805 652.941307 546.521288 663.644511 546.521288"></polygon>
            <polygon id="Path" fill="#4038FF" fill-rule="nonzero" points="642.264657 557.206504 631.561453 557.206504 631.561453 567.919987 642.264657 567.919987"></polygon>
            <polygon id="Path" fill="#4038FF" fill-rule="nonzero" points="631.561453 567.919987 620.858249 567.919987 620.858249 578.632614 631.561453 578.632614"></polygon>
            <polygon id="Path" fill="#4038FF" fill-rule="nonzero" points="652.941307 567.919987 642.238103 567.919987 642.238103 578.632614 652.941307 578.632614"></polygon>
            <polygon id="Path" fill="#4038FF" fill-rule="nonzero" points="674.347716 482.265228 663.644511 482.265228 663.644511 492.977855 674.347716 492.977855"></polygon>
            <polygon id="Path" fill="#4038FF" fill-rule="nonzero" points="674.347716 503.663928 663.644511 503.663928 663.644511 514.376555 674.347716 514.376555"></polygon>
            <polygon id="Path" fill="#4038FF" fill-rule="nonzero" points="674.347716 525.090038 663.644511 525.090038 663.644511 535.802665 674.347716 535.802665"></polygon>
            <polygon id="Path" fill="#4038FF" fill-rule="nonzero" points="674.347716 546.493877 663.644511 546.493877 663.644511 557.206504 674.347716 557.206504"></polygon>
            <polygon id="Path" fill="#4038FF" fill-rule="nonzero" points="674.347716 567.919987 663.644511 567.919987 663.644511 578.632614 674.347716 578.632614"></polygon>
            <polygon id="Path" fill="#4038FF" fill-rule="nonzero" points="663.644511 557.206504 652.941307 557.206504 652.941307 567.919987 663.644511 567.919987"></polygon>
            <path d="M556.659581,321.669194 L545.982931,321.669194 L545.982931,332.355266 L556.659581,332.355266 L556.659581,343.067893 L545.982931,343.067893 L545.982931,353.78052 L556.659581,353.78052 L556.659581,364.466593 L567.362786,364.466593 L567.362786,375.17922 L556.659581,375.17922 L556.659581,364.493147 L545.982931,364.493147 L545.982931,375.17922 L556.659581,375.17922 L556.659581,385.897843 L545.956377,385.897843 L545.956377,375.185216 L535.279727,375.185216 L535.279727,364.499143 L524.576523,364.499143 L524.576523,375.185216 L513.873319,375.185216 L513.873319,364.499143 L503.196669,364.499143 L503.196669,375.185216 L513.873319,375.185216 L513.873319,385.897843 L503.169258,385.897843 L503.169258,375.185216 L492.493464,375.185216 L492.493464,385.897843 L481.784264,385.897843 L481.784264,375.185216 L492.487468,375.185216 L492.487468,364.499143 L481.784264,364.499143 L481.784264,353.78566 L492.487468,353.78566 L492.487468,343.073033 L481.784264,343.073033 L481.784264,332.360406 L492.487468,332.360406 L492.487468,321.674334 L492.487468,321.647779 L503.164118,321.647779 L503.164118,310.961707 L513.867322,310.961707 L513.867322,321.647779 L524.570527,321.647779 L524.570527,310.961707 L535.274588,310.961707 L535.274588,321.647779 L545.951237,321.647779 L545.951237,310.961707 L556.654442,310.961707 L556.654442,321.647779 L567.357646,321.647779 L567.357646,332.360406 L556.654442,332.360406 L556.654442,321.669194 L556.659581,321.669194 Z M492.487468,321.64264 L492.487468,310.955711 L481.784264,310.955711 L481.784264,321.669194 L492.487468,321.669194 L492.487468,321.64264 Z M524.570527,375.185216 L524.570527,385.897843 L535.274588,385.897843 L535.274588,375.185216 L524.570527,375.185216 Z M556.659581,353.78566 L556.659581,343.073033 L567.362786,343.073033 L567.362786,353.78566 L556.659581,353.78566 Z M503.164118,364.472589 L492.487468,364.472589 L492.487468,353.78566 L503.164118,353.78566 L503.164118,364.472589 Z M503.190673,310.955711 L503.190673,300.243084 L513.867322,300.243084 L513.867322,310.955711 L524.570527,310.955711 L524.570527,300.243084 L535.274588,300.243084 L535.274588,310.955711 L545.977792,310.955711 L545.977792,300.243084 L556.654442,300.243084 L556.654442,310.955711 L567.357646,310.955711 L567.357646,300.243084 L556.654442,300.243084 L556.654442,289.530457 L545.951237,289.530457 L545.951237,300.243084 L535.274588,300.243084 L535.274588,289.530457 L524.570527,289.530457 L524.570527,300.243084 L513.867322,300.243084 L513.867322,289.530457 L503.164118,289.530457 L503.164118,300.243084 L492.487468,300.243084 L492.487468,289.530457 L481.784264,289.530457 L481.784264,300.243084 L492.487468,300.243084 L492.487468,310.955711 L503.190673,310.955711 Z M545.951237,332.355266 L545.951237,343.067893 L535.274588,343.067893 L535.274588,332.355266 L545.951237,332.355266 Z M524.570527,332.355266 L524.570527,321.669194 L535.274588,321.669194 L535.274588,332.355266 L524.570527,332.355266 Z M513.867322,332.355266 L524.570527,332.355266 L524.570527,343.067893 L513.867322,343.067893 L513.867322,332.355266 Z M513.867322,332.355266 L503.190673,332.355266 L503.190673,321.669194 L513.867322,321.669194 L513.867322,332.355266 Z M513.867322,353.78566 L503.190673,353.78566 L503.190673,343.073033 L513.867322,343.073033 L513.867322,353.78566 Z M524.570527,353.78566 L524.570527,364.472589 L513.867322,364.472589 L513.867322,353.78566 L524.570527,353.78566 Z M535.279727,353.78566 L524.576523,353.78566 L524.576523,343.073033 L535.279727,343.073033 L535.279727,353.78566 Z M535.279727,353.78566 L545.956377,353.78566 L545.956377,364.472589 L535.279727,364.472589 L535.279727,353.78566 Z M503.164118,343.073033 L503.164118,332.360406 L492.487468,332.360406 L492.487468,343.073033 L503.164118,343.073033 Z M578.06599,375.185216 L567.362786,375.185216 L567.362786,385.897843 L578.06599,385.897843 L578.06599,375.185216 Z M567.362786,353.78566 L578.06599,353.78566 L578.06599,364.499143 L567.362786,364.499143 L567.362786,353.78566 Z M578.06599,332.355266 L567.362786,332.355266 L567.362786,343.067893 L578.06599,343.067893 L578.06599,332.355266 Z M567.362786,310.955711 L578.06599,310.955711 L578.06599,321.669194 L567.362786,321.669194 L567.362786,310.955711 Z M567.362786,289.530457 L578.06599,289.530457 L578.06599,300.243084 L567.362786,300.243084 L567.362786,289.530457 Z" id="Shape" fill="#4038FF"></path>
            <path d="M663.644511,289.530457 L674.347716,289.530457 L674.347716,193.163071 L663.644511,193.163071 L663.644511,289.530457 Z M652.951586,289.530457 L642.253522,289.530457 L642.253522,193.163071 L652.951586,193.163071 L652.951586,289.530457 Z M631.556313,289.530457 L620.858249,289.530457 L620.858249,193.163071 L631.556313,193.163071 L631.556313,289.530457 Z M599.462119,289.530457 L610.160184,289.530457 L610.160184,193.163071 L599.462119,193.163071 L599.462119,289.530457 Z M588.764055,289.530457 L578.06599,289.530457 L578.06599,193.163071 L588.764055,193.163071 L588.764055,289.530457 Z" id="Shape" fill="#1F242C"></path>
            <path d="M578.06599,492.977855 L578.06599,482.265228 L481.784264,482.265228 L481.784264,492.977855 L578.06599,492.977855 Z M578.06599,503.680203 L578.06599,514.38769 L481.784264,514.38769 L481.784264,503.680203 L578.06599,503.680203 Z M578.06599,525.095178 L578.06599,535.802665 L481.784264,535.802665 L481.784264,525.095178 L578.06599,525.095178 Z M578.06599,557.21764 L578.06599,546.510152 L481.784264,546.510152 L481.784264,557.21764 L578.06599,557.21764 Z M578.06599,567.925127 L578.06599,578.632614 L481.784264,578.632614 L481.784264,567.925127 L578.06599,567.925127 Z" id="Shape" fill="#1F242C"></path>
            <path d="M577.281726,185.819036 L577.281726,193.367386 L569.739372,193.367386 L481,104.549207 L481,97 L488.541497,97 L577.281726,185.819036 Z M481,119.699873 L481,134.851396 L539.464594,193.367386 L554.601555,193.367386 L481,119.699873 Z M481,165.152728 L481,150.002062 L524.326777,193.367386 L509.188959,193.367386 L481,165.152728 Z M481,193.367386 L494.051142,193.367386 L481,180.304251 L481,193.367386 Z M503.679315,97 L518.817132,97 L577.281726,155.51599 L577.281726,170.667513 L503.679315,97 Z M549.092766,97 L533.954949,97 L577.281726,140.365324 L577.281726,125.214657 L549.092766,97 Z M577.281726,110.063135 L564.229727,97 L577.281726,97 L577.281726,110.063135 Z" id="Shape" fill="#4038FF"></path>
            <path d="M663.649651,385.897843 L674.347716,385.897843 C674.347716,439.119194 631.240228,482.265228 578.06599,482.265228 L578.06599,471.557741 C625.334835,471.557741 663.649651,433.208661 663.649651,385.897843 Z M642.253522,385.897843 L652.951586,385.897843 C652.951586,427.292989 619.424302,460.850254 578.06599,460.850254 L578.06599,450.142766 C613.513769,450.142766 642.253522,421.377316 642.253522,385.897843 Z M631.556313,385.897843 L620.858249,385.897843 C620.858249,409.550254 601.697843,428.727792 578.06599,428.727792 L578.06599,439.435279 C607.608376,439.435279 631.556313,415.466783 631.556313,385.897843 Z M599.462119,385.897843 L610.160184,385.897843 C610.160184,403.639721 595.792449,418.020305 578.06599,418.020305 L578.06599,407.312817 C589.881916,407.312817 599.462119,397.724048 599.462119,385.897843 Z M578.06599,385.897843 L588.764055,385.897843 C588.764055,391.813515 583.976523,396.60533 578.06599,396.60533 L578.06599,385.897843 Z" id="Shape" fill="#FFFFFF"></path>
            <path d="M578.06599,578.632614 L578.06599,675 L674.347716,675 C674.347716,621.778648 631.240228,578.632614 578.06599,578.632614 Z" id="Path" fill="#FFFFFF" fill-rule="nonzero" transform="translate(626.206853, 626.816307) rotate(-270.000000) translate(-626.206853, -626.816307) "></path>
            <path d="M588.703204,97 L578,97 L578,0.632614213 L588.703204,0.632614213 L588.703204,97 Z M620.802538,97 L631.505742,97 L631.505742,0.632614213 L620.802538,0.632614213 L620.802538,97 Z M652.901872,97 L642.198668,97 L642.198668,0.632614213 L652.901872,0.632614213 L652.901872,97 Z M674.281726,97 L663.578522,97 L663.578522,0.632614213 L674.281726,0.632614213 L674.281726,97 Z M599.406409,97 L610.109613,97 L610.109613,0.632614213 L599.406409,0.632614213 L599.406409,97 Z" id="Shape-Copy-4" fill="#1F242C" transform="translate(626.140863, 48.816307) rotate(-270.000000) translate(-626.140863, -48.816307) "></path>
            <path d="M482.098985,89.247335 L482.098985,96.7956853 L474.556631,96.7956853 L385.817259,7.97750635 L385.817259,0.428299492 L393.358756,0.428299492 L482.098985,89.247335 Z M385.817259,23.1281726 L385.817259,38.2796954 L444.281853,96.7956853 L459.418813,96.7956853 L385.817259,23.1281726 Z M385.817259,68.5810279 L385.817259,53.4303617 L429.144036,96.7956853 L414.006218,96.7956853 L385.817259,68.5810279 Z M385.817259,96.7956853 L398.868401,96.7956853 L385.817259,83.7325508 L385.817259,96.7956853 Z M408.496574,0.428299492 L423.634391,0.428299492 L482.098985,58.9442893 L482.098985,74.0958122 L408.496574,0.428299492 Z M453.910025,0.428299492 L438.772208,0.428299492 L482.098985,43.7936231 L482.098985,28.6429569 L453.910025,0.428299492 Z M482.098985,13.491434 L469.046986,0.428299492 L482.098985,0.428299492 L482.098985,13.491434 Z" id="Shape-Copy-3" fill="#1F242C"></path>
        </g>
        <g id="Group-2" transform="translate(340.000000, 231.000000)" fill="#FFFFFF" line-spacing="100">
            <text id="Acropolis" font-family="Inter-Bold, Inter" font-size="110" font-weight="bold">
                <tspan x="0.5" y="106">Acropolis</tspan>
            </text>
            <text id="Network-Announced" font-family="Inter-Regular, Inter" font-size="40" font-weight="normal">
                <tspan x="25.302399" y="152">NETWORK ANNOUNCED</tspan>
            </text>
        </g>
    </g>
</svg>