<svg xmlns="http://www.w3.org/2000/svg" width="1200" height="675" viewBox="0 0 1200 675">
  <g fill="none" fill-rule="evenodd">
    <path fill="#000" d="M0 0H1200V675H0z"/>
    <g transform="matrix(1 0 0 -1 622 675)">
      <path fill="#4038FF" fill-rule="nonzero" d="M491.769 482.265L481.066 482.265 481.066 492.978 491.769 492.978zM502.472 492.978L491.769 492.978 491.769 503.691 502.472 503.691zM513.149 482.265L502.446 482.265 502.446 492.978 513.149 492.978zM491.769 503.664L481.066 503.664 481.066 514.377 491.769 514.377z"/>
      <path fill="#4038FF" fill-rule="nonzero" d="M513.149 503.664L502.446 503.664 502.446 514.377 513.149 514.377zM523.852 492.978L513.149 492.978 513.149 503.691 523.852 503.691zM502.472 514.377L491.769 514.377 491.769 525.09 502.472 525.09zM491.769 525.09L481.066 525.09 481.066 535.803 491.769 535.803zM513.149 525.09L502.446 525.09 502.446 535.803 513.149 535.803zM523.852 514.377L513.149 514.377 513.149 525.09 523.852 525.09zM502.472 535.808L491.769 535.808 491.769 546.521 502.472 546.521zM491.769 546.494L481.066 546.494 481.066 557.207 491.769 557.207z"/>
      <path fill="#4038FF" fill-rule="nonzero" d="M513.149 546.494L502.446 546.494 502.446 557.207 513.149 557.207zM523.852 535.808L513.149 535.808 513.149 546.521 523.852 546.521zM502.472 557.207L491.769 557.207 491.769 567.92 502.472 567.92zM491.769 567.92L481.066 567.92 481.066 578.633 491.769 578.633zM513.149 567.92L502.446 567.92 502.446 578.633 513.149 578.633zM523.852 557.207L513.149 557.207 513.149 567.92 523.852 567.92zM534.561 482.265L523.858 482.265 523.858 492.978 534.561 492.978zM545.265 492.978L534.561 492.978 534.561 503.691 545.265 503.691zM555.941 482.265L545.238 482.265 545.238 492.978 555.941 492.978zM534.561 503.664L523.858 503.664 523.858 514.377 534.561 514.377z"/>
      <path fill="#4038FF" fill-rule="nonzero" d="M555.941 503.664L545.238 503.664 545.238 514.377 555.941 514.377zM566.645 492.978L555.941 492.978 555.941 503.691 566.645 503.691zM545.265 514.377L534.561 514.377 534.561 525.09 545.265 525.09zM534.561 525.09L523.858 525.09 523.858 535.803 534.561 535.803zM555.941 525.09L545.238 525.09 545.238 535.803 555.941 535.803zM566.645 514.377L555.941 514.377 555.941 525.09 566.645 525.09zM545.265 535.808L534.561 535.808 534.561 546.521 545.265 546.521zM534.561 546.494L523.858 546.494 523.858 557.207 534.561 557.207z"/>
      <path fill="#4038FF" fill-rule="nonzero" d="M555.941 546.494L545.238 546.494 545.238 557.207 555.941 557.207zM566.645 535.808L555.941 535.808 555.941 546.521 566.645 546.521zM545.265 557.207L534.561 557.207 534.561 567.92 545.265 567.92zM534.561 567.92L523.858 567.92 523.858 578.633 534.561 578.633zM555.941 567.92L545.238 567.92 545.238 578.633 555.941 578.633zM577.348 482.265L566.645 482.265 566.645 492.978 577.348 492.978zM577.348 503.664L566.645 503.664 566.645 514.377 577.348 514.377zM577.348 525.09L566.645 525.09 566.645 535.803 577.348 535.803zM577.348 546.494L566.645 546.494 566.645 557.207 577.348 557.207zM577.348 567.92L566.645 567.92 566.645 578.633 577.348 578.633zM566.645 557.207L555.941 557.207 555.941 567.92 566.645 567.92z"/>
      <path fill="#4038FF" d="M459.659581 321.669194L448.982931 321.669194 448.982931 332.355266 459.659581 332.355266 459.659581 343.067893 448.982931 343.067893 448.982931 353.78052 459.659581 353.78052 459.659581 364.466593 470.362786 364.466593 470.362786 375.17922 459.659581 375.17922 459.659581 364.493147 448.982931 364.493147 448.982931 375.17922 459.659581 375.17922 459.659581 385.897843 448.956377 385.897843 448.956377 375.185216 438.279727 375.185216 438.279727 364.499143 427.576523 364.499143 427.576523 375.185216 416.873319 375.185216 416.873319 364.499143 406.196669 364.499143 406.196669 375.185216 416.873319 375.185216 416.873319 385.897843 406.169258 385.897843 406.169258 375.185216 395.493464 375.185216 395.493464 385.897843 384.784264 385.897843 384.784264 375.185216 395.487468 375.185216 395.487468 364.499143 384.784264 364.499143 384.784264 353.78566 395.487468 353.78566 395.487468 343.073033 384.784264 343.073033 384.784264 332.360406 395.487468 332.360406 395.487468 321.674334 395.487468 321.647779 406.164118 321.647779 406.164118 310.961707 416.867322 310.961707 416.867322 321.647779 427.570527 321.647779 427.570527 310.961707 438.274588 310.961707 438.274588 321.647779 448.951237 321.647779 448.951237 310.961707 459.654442 310.961707 459.654442 321.647779 470.357646 321.647779 470.357646 332.360406 459.654442 332.360406 459.654442 321.669194 459.659581 321.669194zM395.487468 321.64264L395.487468 310.955711 384.784264 310.955711 384.784264 321.669194 395.487468 321.669194 395.487468 321.64264zM427.570527 375.185216L427.570527 385.897843 438.274588 385.897843 438.274588 375.185216 427.570527 375.185216zM459.659581 353.78566L459.659581 343.073033 470.362786 343.073033 470.362786 353.78566 459.659581 353.78566zM406.164118 364.472589L395.487468 364.472589 395.487468 353.78566 406.164118 353.78566 406.164118 364.472589zM406.190673 310.955711L406.190673 300.243084 416.867322 300.243084 416.867322 310.955711 427.570527 310.955711 427.570527 300.243084 438.274588 300.243084 438.274588 310.955711 448.977792 310.955711 448.977792 300.243084 459.654442 300.243084 459.654442 310.955711 470.357646 310.955711 470.357646 300.243084 459.654442 300.243084 459.654442 289.530457 448.951237 289.530457 448.951237 300.243084 438.274588 300.243084 438.274588 289.530457 427.570527 289.530457 427.570527 300.243084 416.867322 300.243084 416.867322 289.530457 406.164118 289.530457 406.164118 300.243084 395.487468 300.243084 395.487468 289.530457 384.784264 289.530457 384.784264 300.243084 395.487468 300.243084 395.487468 310.955711 406.190673 310.955711zM448.951237 332.355266L448.951237 343.067893 438.274588 343.067893 438.274588 332.355266 448.951237 332.355266zM427.570527 332.355266L427.570527 321.669194 438.274588 321.669194 438.274588 332.355266 427.570527 332.355266zM416.867322 332.355266L427.570527 332.355266 427.570527 343.067893 416.867322 343.067893 416.867322 332.355266zM416.867322 332.355266L406.190673 332.355266 406.190673 321.669194 416.867322 321.669194 416.867322 332.355266zM416.867322 353.78566L406.190673 353.78566 406.190673 343.073033 416.867322 343.073033 416.867322 353.78566zM427.570527 353.78566L427.570527 364.472589 416.867322 364.472589 416.867322 353.78566 427.570527 353.78566zM438.279727 353.78566L427.576523 353.78566 427.576523 343.073033 438.279727 343.073033 438.279727 353.78566zM438.279727 353.78566L448.956377 353.78566 448.956377 364.472589 438.279727 364.472589 438.279727 353.78566zM406.164118 343.073033L406.164118 332.360406 395.487468 332.360406 395.487468 343.073033 406.164118 343.073033zM481.06599 375.185216L470.362786 375.185216 470.362786 385.897843 481.06599 385.897843 481.06599 375.185216zM470.362786 353.78566L481.06599 353.78566 481.06599 364.499143 470.362786 364.499143 470.362786 353.78566zM481.06599 332.355266L470.362786 332.355266 470.362786 343.067893 481.06599 343.067893 481.06599 332.355266zM470.362786 310.955711L481.06599 310.955711 481.06599 321.669194 470.362786 321.669194 470.362786 310.955711zM470.362786 289.530457L481.06599 289.530457 481.06599 300.243084 470.362786 300.243084 470.362786 289.530457zM566.644511 289.530457L577.347716 289.530457 577.347716 193.163071 566.644511 193.163071 566.644511 289.530457zM555.951586 289.530457L545.253522 289.530457 545.253522 193.163071 555.951586 193.163071 555.951586 289.530457zM534.556313 289.530457L523.858249 289.530457 523.858249 193.163071 534.556313 193.163071 534.556313 289.530457zM502.462119 289.530457L513.160184 289.530457 513.160184 193.163071 502.462119 193.163071 502.462119 289.530457zM491.764055 289.530457L481.06599 289.530457 481.06599 193.163071 491.764055 193.163071 491.764055 289.530457z"/>
      <path fill="#1F242C" d="M481.06599 492.977855L481.06599 482.265228 384.784264 482.265228 384.784264 492.977855 481.06599 492.977855zM481.06599 503.680203L481.06599 514.38769 384.784264 514.38769 384.784264 503.680203 481.06599 503.680203zM481.06599 525.095178L481.06599 535.802665 384.784264 535.802665 384.784264 525.095178 481.06599 525.095178zM481.06599 557.21764L481.06599 546.510152 384.784264 546.510152 384.784264 557.21764 481.06599 557.21764zM481.06599 567.925127L481.06599 578.632614 384.784264 578.632614 384.784264 567.925127 481.06599 567.925127zM481.06599 182.450273L481.06599 193.163071 384.784264 193.163071 384.784264 182.450273 481.06599 182.450273zM481.06599 150.322414L481.06599 139.609616 384.784264 139.609616 384.784264 150.322414 481.06599 150.322414zM481.06599 118.194641L481.06599 128.90744 384.784264 128.90744 384.784264 118.194641 481.06599 118.194641zM481.06599 96.7956853L481.06599 107.508569 384.784264 107.508569 384.784264 96.7956853 481.06599 96.7956853zM481.06599 171.737389L481.06599 161.024505 384.784264 161.024505 384.784264 171.737389 481.06599 171.737389z"/>
      <path fill="#FFF" d="M566.649651,385.897843 L577.347716,385.897843 C577.347716,439.119194 534.240228,482.265228 481.06599,482.265228 L481.06599,471.557741 C528.334835,471.557741 566.649651,433.208661 566.649651,385.897843 Z M545.253522,385.897843 L555.951586,385.897843 C555.951586,427.292989 522.424302,460.850254 481.06599,460.850254 L481.06599,450.142766 C516.513769,450.142766 545.253522,421.377316 545.253522,385.897843 Z M534.556313,385.897843 L523.858249,385.897843 C523.858249,409.550254 504.697843,428.727792 481.06599,428.727792 L481.06599,439.435279 C510.608376,439.435279 534.556313,415.466783 534.556313,385.897843 Z M502.462119,385.897843 L513.160184,385.897843 C513.160184,403.639721 498.792449,418.020305 481.06599,418.020305 L481.06599,407.312817 C492.881916,407.312817 502.462119,397.724048 502.462119,385.897843 Z M481.06599,385.897843 L491.764055,385.897843 C491.764055,391.813515 486.976523,396.60533 481.06599,396.60533 L481.06599,385.897843 Z"/>
      <path fill="#FFF" d="M277.461834,481.836929 L288.159898,481.836929 C288.159898,535.05828 245.052411,578.204315 191.878173,578.204315 L191.878173,567.496827 C239.147018,567.496827 277.461834,529.147747 277.461834,481.836929 Z M256.065704,481.836929 L266.763769,481.836929 C266.763769,523.232075 233.236485,556.78934 191.878173,556.78934 L191.878173,546.081853 C227.325952,546.081853 256.065704,517.316402 256.065704,481.836929 Z M245.368496,481.836929 L234.670431,481.836929 C234.670431,505.48934 215.510025,524.666878 191.878173,524.666878 L191.878173,535.374365 C221.420558,535.374365 245.368496,511.405869 245.368496,481.836929 Z M213.274302,481.836929 L223.972367,481.836929 C223.972367,499.578807 209.604632,513.959391 191.878173,513.959391 L191.878173,503.251904 C203.694099,503.251904 213.274302,493.663135 213.274302,481.836929 Z M191.878173,481.836929 L202.576237,481.836929 C202.576237,487.752602 197.788706,492.544416 191.878173,492.544416 L191.878173,481.836929 Z" transform="rotate(-180 240.019 530.02)"/>
      <path fill="#1F242C" d="M298.515324,482.265228 L287.817259,482.265228 C287.817259,429.043877 330.924746,385.897843 384.098985,385.897843 L384.098985,396.60533 C336.83014,396.60533 298.515324,434.95441 298.515324,482.265228 Z M319.911453,482.265228 L309.213388,482.265228 C309.213388,440.870082 342.740673,407.312817 384.098985,407.312817 L384.098985,418.020305 C348.651206,418.020305 319.911453,446.785755 319.911453,482.265228 Z M330.609518,482.265228 L341.307582,482.265228 C341.307582,458.611961 360.467132,439.435279 384.098985,439.435279 L384.098985,428.727792 C354.556599,428.727792 330.609518,452.696288 330.609518,482.265228 Z M362.702855,482.265228 L352.005647,482.265228 C352.005647,464.522494 366.372525,450.142766 384.098985,450.142766 L384.098985,460.850254 C372.283058,460.850254 362.702855,470.439023 362.702855,482.265228 Z M384.098985,482.265228 L373.40092,482.265228 C373.40092,476.349556 378.188452,471.557741 384.098985,471.557741 L384.098985,482.265228 Z" transform="rotate(90 335.958 434.082)"/>
      <path fill="#FFF" fill-rule="nonzero" d="M481.06599,578.632614 L481.06599,675 L577.347716,675 C577.347716,621.778648 534.240228,578.632614 481.06599,578.632614 Z" transform="rotate(90 529.207 626.816)"/>
      <path fill="#1F242C" fill-rule="nonzero" d="M95.9390863 675L192.220812 675 192.220812 578.632614C139.046574 578.632614 95.9390863 621.778648 95.9390863 675zM288.502538 578.632614L384.784264 578.632614 384.784264 482.265228C331.610025 482.265228 288.502538 525.411263 288.502538 578.632614z"/>
      <path fill="#4038FF" d="M299.205742,675 L288.502538,675 L288.502538,578.632614 L299.205742,578.632614 L299.205742,675 Z M331.305076,675 L342.00828,675 L342.00828,578.632614 L331.305076,578.632614 L331.305076,675 Z M363.40441,675 L352.701206,675 L352.701206,578.632614 L363.40441,578.632614 L363.40441,675 Z M384.784264,675 L374.08106,675 L374.08106,578.632614 L384.784264,578.632614 L384.784264,675 Z M309.908947,675 L320.612151,675 L320.612151,578.632614 L309.908947,578.632614 L309.908947,675 Z"/>
      <path fill="#4038FF" d="M491.703204,97 L481,97 L481,0.632614213 L491.703204,0.632614213 L491.703204,97 Z M523.802538,97 L534.505742,97 L534.505742,0.632614213 L523.802538,0.632614213 L523.802538,97 Z M555.901872,97 L545.198668,97 L545.198668,0.632614213 L555.901872,0.632614213 L555.901872,97 Z M577.281726,97 L566.578522,97 L566.578522,0.632614213 L577.281726,0.632614213 L577.281726,97 Z M502.406409,97 L513.109613,97 L513.109613,0.632614213 L502.406409,0.632614213 L502.406409,97 Z" transform="rotate(90 529.14 48.816)"/>
      <path fill="#1F242C" d="M10.7032043 578.204315L0 578.204315 0 481.836929 10.7032043 481.836929 10.7032043 578.204315zM42.8025381 578.204315L53.5057424 578.204315 53.5057424 481.836929 42.8025381 481.836929 42.8025381 578.204315zM74.9018718 578.204315L64.1986675 578.204315 64.1986675 481.836929 74.9018718 481.836929 74.9018718 578.204315zM96.2817259 578.204315L85.5785216 578.204315 85.5785216 481.836929 96.2817259 481.836929 96.2817259 578.204315zM21.4064086 578.204315L32.1096129 578.204315 32.1096129 481.836929 21.4064086 481.836929 21.4064086 578.204315zM384.784264 378.349492L384.784264 385.897843 377.24191 385.897843 288.502538 297.079664 288.502538 289.530457 296.044036 289.530457 384.784264 378.349492zM288.502538 312.23033L288.502538 327.381853 346.967132 385.897843 362.104093 385.897843 288.502538 312.23033zM288.502538 357.683185L288.502538 342.532519 331.829315 385.897843 316.691497 385.897843 288.502538 357.683185zM288.502538 385.897843L301.55368 385.897843 288.502538 372.834708 288.502538 385.897843zM311.181853 289.530457L326.31967 289.530457 384.784264 348.046447 384.784264 363.19797 311.181853 289.530457zM356.595305 289.530457L341.457487 289.530457 384.784264 332.89578 384.784264 317.745114 356.595305 289.530457zM384.784264 302.593591L371.732265 289.530457 384.784264 289.530457 384.784264 302.593591zM385.098985 89.247335L385.098985 96.7956853 377.556631 96.7956853 288.817259 7.97750635 288.817259.428299492 296.358756.428299492 385.098985 89.247335zM288.817259 23.1281726L288.817259 38.2796954 347.281853 96.7956853 362.418813 96.7956853 288.817259 23.1281726zM288.817259 68.5810279L288.817259 53.4303617 332.144036 96.7956853 317.006218 96.7956853 288.817259 68.5810279zM288.817259 96.7956853L301.868401 96.7956853 288.817259 83.7325508 288.817259 96.7956853zM311.496574.428299492L326.634391.428299492 385.098985 58.9442893 385.098985 74.0958122 311.496574.428299492zM356.910025.428299492L341.772208.428299492 385.098985 43.7936231 385.098985 28.6429569 356.910025.428299492zM385.098985 13.491434L372.046986.428299492 385.098985.428299492 385.098985 13.491434z"/>
    </g>
    <path fill="#FFF" d="M305.083008,509.461914 C307.79461,509.461914 310.152985,509.929032 312.158203,510.863281 C314.163421,511.797531 315.826816,513.079256 317.148438,514.708496 C318.470059,516.337736 319.46126,518.308745 320.12207,520.621582 C320.782881,522.934419 321.113281,525.446601 321.113281,528.158203 C321.113281,530.915378 320.782881,533.433257 320.12207,535.711914 C319.46126,537.990571 318.470059,539.950187 317.148438,541.59082 C315.826816,543.231454 314.157725,544.518876 312.141113,545.453125 C310.124502,546.387374 307.771823,546.854492 305.083008,546.854492 C302.371406,546.854492 300.013031,546.387374 298.007812,545.453125 C296.002594,544.518876 294.333503,543.231454 293.000488,541.59082 C291.667474,539.950187 290.676273,537.990571 290.026855,535.711914 C289.377438,533.433257 289.052734,530.915378 289.052734,528.158203 C289.052734,525.446601 289.377438,522.934419 290.026855,520.621582 C290.676273,518.308745 291.667474,516.337736 293.000488,514.708496 C294.333503,513.079256 296.002594,511.797531 298.007812,510.863281 C300.013031,509.929032 302.371406,509.461914 305.083008,509.461914 Z M187.949219,509.461914 C190.524101,509.461914 192.768545,509.906246 194.682617,510.794922 C196.596689,511.683598 198.180332,512.896965 199.433594,514.435059 C200.686855,515.973152 201.632484,517.778961 202.270508,519.852539 C202.908532,521.926117 203.227539,524.159168 203.227539,526.551758 L203.227539,529.901367 L179.199219,529.901367 L179.199219,533.695312 C179.199219,534.994147 179.444171,536.144852 179.934082,537.147461 C180.423993,538.15007 181.090491,538.998857 181.933594,539.693848 C182.776697,540.388838 183.722325,540.912921 184.770508,541.266113 C185.81869,541.619305 186.901036,541.795898 188.017578,541.795898 C190.250662,541.795898 192.187492,541.226243 193.828125,540.086914 C195.468758,538.947585 196.402994,537.13608 196.630859,534.652344 L202.954102,534.652344 C202.817382,536.566416 202.316085,538.269687 201.450195,539.762207 C200.584306,541.254728 199.462084,542.52506 198.083496,543.573242 C196.704908,544.621425 195.149748,545.430336 193.417969,546 C191.686189,546.569664 189.863291,546.854492 187.949219,546.854492 C185.374336,546.854492 183.124196,546.387374 181.19873,545.453125 C179.273265,544.518876 177.666836,543.231454 176.379395,541.59082 C175.091953,539.950187 174.134932,537.990571 173.508301,535.711914 C172.88167,533.433257 172.568359,530.915378 172.568359,528.158203 C172.568359,525.446601 172.904456,522.934419 173.57666,520.621582 C174.248864,518.308745 175.251458,516.337736 176.584473,514.708496 C177.917487,513.079256 179.529613,511.797531 181.420898,510.863281 C183.312184,509.929032 185.488269,509.461914 187.949219,509.461914 Z M759.194336,498.387695 L759.194336,546 L752.871094,546 L752.871094,540.189453 C751.754552,542.331391 750.262054,543.977696 748.393555,545.128418 C746.525056,546.27914 744.269219,546.854492 741.625977,546.854492 C739.2106,546.854492 737.10857,546.364588 735.319824,545.384766 C733.531078,544.404943 732.044277,543.071949 730.859375,541.385742 C729.674473,539.699536 728.791507,537.72283 728.210449,535.455566 C727.629392,533.188302 727.338867,530.755872 727.338867,528.158203 C727.338867,525.58332 727.629392,523.15089 728.210449,520.86084 C728.791507,518.570789 729.66308,516.588387 730.825195,514.913574 C731.98731,513.238761 733.457022,511.911463 735.234375,510.931641 C737.011728,509.951818 739.085275,509.461914 741.455078,509.461914 C744.121107,509.461914 746.411123,510.03157 748.325195,511.170898 C750.239267,512.310227 751.754552,513.962229 752.871094,516.126953 L752.871094,498.387695 L759.194336,498.387695 Z M548.203125,509.461914 C550.914727,509.461914 553.273102,509.929032 555.27832,510.863281 C557.283539,511.797531 558.946933,513.079256 560.268555,514.708496 C561.590176,516.337736 562.581377,518.308745 563.242188,520.621582 C563.902998,522.934419 564.233398,525.446601 564.233398,528.158203 C564.233398,530.915378 563.902998,533.433257 563.242188,535.711914 C562.581377,537.990571 561.590176,539.950187 560.268555,541.59082 C558.946933,543.231454 557.277842,544.518876 555.26123,545.453125 C553.244619,546.387374 550.891941,546.854492 548.203125,546.854492 C545.491523,546.854492 543.133148,546.387374 541.12793,545.453125 C539.122711,544.518876 537.45362,543.231454 536.120605,541.59082 C534.787591,539.950187 533.79639,537.990571 533.146973,535.711914 C532.497555,533.433257 532.172852,530.915378 532.172852,528.158203 C532.172852,525.446601 532.497555,522.934419 533.146973,520.621582 C533.79639,518.308745 534.787591,516.337736 536.120605,514.708496 C537.45362,513.079256 539.122711,511.797531 541.12793,510.863281 C543.133148,509.929032 545.491523,509.461914 548.203125,509.461914 Z M579.956055,510.316406 L579.956055,533.387695 C579.956055,535.962578 580.457352,538.007642 581.459961,539.522949 C582.46257,541.038256 584.296862,541.795898 586.962891,541.795898 C589.62892,541.795898 591.742342,540.804697 593.303223,538.822266 C594.864103,536.839834 595.644531,534.287776 595.644531,531.166016 L595.644531,510.316406 L601.933594,510.316406 L601.933594,546 L595.644531,546 L595.644531,540.121094 C594.664709,542.217458 593.3545,543.863764 591.713867,545.060059 C590.073234,546.256354 587.908542,546.854492 585.219727,546.854492 C583.579093,546.854492 582.046719,546.620933 580.622559,546.153809 C579.198398,545.686684 577.973638,544.940435 576.948242,543.915039 C575.922846,542.889643 575.119632,541.568042 574.538574,539.950195 C573.957517,538.332349 573.666992,536.384126 573.666992,534.105469 L573.666992,510.316406 L579.956055,510.316406 Z M704.301758,509.461914 C706.87664,509.461914 709.121084,509.906246 711.035156,510.794922 C712.949228,511.683598 714.532871,512.896965 715.786133,514.435059 C717.039394,515.973152 717.985023,517.778961 718.623047,519.852539 C719.261071,521.926117 719.580078,524.159168 719.580078,526.551758 L719.580078,529.901367 L695.551758,529.901367 L695.551758,533.695312 C695.551758,534.994147 695.79671,536.144852 696.286621,537.147461 C696.776532,538.15007 697.44303,538.998857 698.286133,539.693848 C699.129236,540.388838 700.074865,540.912921 701.123047,541.266113 C702.171229,541.619305 703.253575,541.795898 704.370117,541.795898 C706.603201,541.795898 708.540031,541.226243 710.180664,540.086914 C711.821297,538.947585 712.755533,537.13608 712.983398,534.652344 L719.306641,534.652344 C719.169921,536.566416 718.668624,538.269687 717.802734,539.762207 C716.936845,541.254728 715.814623,542.52506 714.436035,543.573242 C713.057448,544.621425 711.502287,545.430336 709.770508,546 C708.038728,546.569664 706.21583,546.854492 704.301758,546.854492 C701.726875,546.854492 699.476735,546.387374 697.55127,545.453125 C695.625804,544.518876 694.019375,543.231454 692.731934,541.59082 C691.444492,539.950187 690.487471,537.990571 689.86084,535.711914 C689.234209,533.433257 688.920898,530.915378 688.920898,528.158203 C688.920898,525.446601 689.256995,522.934419 689.929199,520.621582 C690.601403,518.308745 691.603997,516.337736 692.937012,514.708496 C694.270026,513.079256 695.882152,511.797531 697.773438,510.863281 C699.664723,509.929032 701.840808,509.461914 704.301758,509.461914 Z M666.943359,509.461914 C668.811858,509.461914 670.577791,509.706866 672.241211,510.196777 C673.904631,510.686689 675.362949,511.444331 676.616211,512.469727 C677.869472,513.495122 678.894853,514.799634 679.692383,516.383301 C680.489913,517.966968 680.979817,519.841135 681.162109,522.005859 L674.873047,522.005859 C674.736327,520.570305 674.43441,519.368332 673.967285,518.399902 C673.50016,517.431473 672.890629,516.656741 672.138672,516.075684 C671.386715,515.494626 670.532231,515.084474 669.575195,514.845215 C668.618159,514.605956 667.626958,514.486328 666.601562,514.486328 C665.530594,514.486328 664.505213,514.662921 663.525391,515.016113 C662.545568,515.369305 661.656905,515.899085 660.859375,516.605469 C660.061845,517.311852 659.429527,518.189122 658.962402,519.237305 C658.495278,520.285487 658.261719,521.50455 658.261719,522.894531 L658.261719,533.387695 C658.261719,534.640957 658.483884,535.797358 658.928223,536.856934 C659.372561,537.916509 659.982092,538.805172 660.756836,539.522949 C661.531579,540.240726 662.420242,540.798989 663.422852,541.197754 C664.425461,541.596519 665.507807,541.795898 666.669922,541.795898 C668.994152,541.795898 670.930982,541.169277 672.480469,539.916016 C674.029956,538.662754 674.918619,536.703138 675.146484,534.037109 L681.435547,534.037109 C681.207681,536.22462 680.649419,538.121574 679.760742,539.728027 C678.872066,541.334481 677.77263,542.667475 676.462402,543.727051 C675.152174,544.786626 673.671069,545.572751 672.019043,546.085449 C670.367016,546.598147 668.629566,546.854492 666.806641,546.854492 C664.186185,546.854492 661.936045,546.398768 660.056152,545.487305 C658.17626,544.575842 656.60401,543.28842 655.339355,541.625 C654.074701,539.96158 653.140465,538.013358 652.536621,535.780273 C651.932777,533.547189 651.630859,531.09767 651.630859,528.431641 C651.630859,525.583319 651.966956,522.979992 652.63916,520.621582 C653.311364,518.263172 654.302565,516.269377 655.612793,514.640137 C656.923021,513.010897 658.535147,511.740564 660.449219,510.829102 C662.363291,509.917639 664.527983,509.461914 666.943359,509.461914 Z M241.40625,510.316406 L248.481445,538.241211 L248.754883,538.241211 L255.043945,510.316406 L262.700195,510.316406 L269.262695,538.241211 L269.536133,538.241211 L276.679688,510.316406 L282.832031,510.316406 L272.407227,546 L265.776367,546 L259.042969,517.083984 L258.769531,517.083984 L251.967773,546 L245.473633,546 L235.048828,510.316406 L241.40625,510.316406 Z M135.825195,498.387695 L155.478516,537.933594 L155.786133,537.933594 L155.786133,498.387695 L162.211914,498.387695 L162.211914,546 L152.84668,546 L133.15918,506.249023 L132.885742,506.249023 L132.885742,546 L126.425781,546 L126.425781,498.387695 L135.825195,498.387695 Z M630.507812,509.461914 C632.239592,509.461914 633.811842,509.695473 635.224609,510.162598 C636.637377,510.629722 637.85644,511.375971 638.881836,512.401367 C639.907232,513.426763 640.70475,514.742668 641.274414,516.349121 C641.844078,517.955574 642.128906,519.909494 642.128906,522.210938 L642.128906,546 L635.805664,546 L635.805664,522.894531 C635.805664,520.274075 635.304367,518.217618 634.301758,516.725098 C633.299149,515.232577 631.442071,514.486328 628.730469,514.486328 C627.431634,514.486328 626.24675,514.742673 625.175781,515.255371 C624.104812,515.768069 623.170577,516.502925 622.373047,517.459961 C621.575517,518.416997 620.954592,519.550612 620.510254,520.86084 C620.065916,522.171068 619.84375,523.600904 619.84375,525.150391 L619.84375,546 L613.554688,546 L613.554688,510.316406 L619.84375,510.316406 L619.84375,516.195312 C620.823573,514.098948 622.16796,512.452643 623.876953,511.256348 C625.585946,510.060053 627.79621,509.461914 630.507812,509.461914 Z M511.118164,509.461914 C512.849944,509.461914 514.422193,509.695473 515.834961,510.162598 C517.247728,510.629722 518.466792,511.375971 519.492188,512.401367 C520.517583,513.426763 521.315101,514.742668 521.884766,516.349121 C522.45443,517.955574 522.739258,519.909494 522.739258,522.210938 L522.739258,546 L516.416016,546 L516.416016,522.894531 C516.416016,520.274075 515.914719,518.217618 514.912109,516.725098 C513.9095,515.232577 512.052422,514.486328 509.34082,514.486328 C508.041986,514.486328 506.857102,514.742673 505.786133,515.255371 C504.715164,515.768069 503.780928,516.502925 502.983398,517.459961 C502.185868,518.416997 501.564944,519.550612 501.120605,520.86084 C500.676267,522.171068 500.454102,523.600904 500.454102,525.150391 L500.454102,546 L494.165039,546 L494.165039,510.316406 L500.454102,510.316406 L500.454102,516.195312 C501.433924,514.098948 502.778312,512.452643 504.487305,511.256348 C506.196298,510.060053 508.406562,509.461914 511.118164,509.461914 Z M471.230469,509.461914 C472.962248,509.461914 474.534498,509.695473 475.947266,510.162598 C477.360033,510.629722 478.579096,511.375971 479.604492,512.401367 C480.629888,513.426763 481.427406,514.742668 481.99707,516.349121 C482.566735,517.955574 482.851562,519.909494 482.851562,522.210938 L482.851562,546 L476.52832,546 L476.52832,522.894531 C476.52832,520.274075 476.027023,518.217618 475.024414,516.725098 C474.021805,515.232577 472.164727,514.486328 469.453125,514.486328 C468.15429,514.486328 466.969406,514.742673 465.898438,515.255371 C464.827469,515.768069 463.893233,516.502925 463.095703,517.459961 C462.298173,518.416997 461.677248,519.550612 461.23291,520.86084 C460.788572,522.171068 460.566406,523.600904 460.566406,525.150391 L460.566406,546 L454.277344,546 L454.277344,510.316406 L460.566406,510.316406 L460.566406,516.195312 C461.546229,514.098948 462.890616,512.452643 464.599609,511.256348 C466.308602,510.060053 468.518867,509.461914 471.230469,509.461914 Z M430.078125,498.387695 L446.586914,546 L439.580078,546 L435.683594,534.242188 L416.987305,534.242188 L413.056641,546 L406.186523,546 L422.661133,498.387695 L430.078125,498.387695 Z M383.798828,510.316406 L369.443359,526.039062 L384.790039,546 L377.578125,546 L362.163086,526.039062 L376.176758,510.316406 L383.798828,510.316406 Z M362.094727,498.387695 L362.094727,546 L355.805664,546 L355.805664,498.387695 L362.094727,498.387695 Z M347.978516,510.316406 L347.978516,515.750977 L337.109375,515.750977 L337.109375,546 L330.820312,546 L330.820312,510.316406 L347.978516,510.316406 Z M221.616211,498.387695 L221.616211,510.316406 L229.819336,510.316406 L229.819336,515.682617 L221.616211,515.682617 L221.616211,540.599609 L229.819336,540.599609 L229.819336,546 L215.395508,546 L215.395508,515.682617 L209.379883,515.682617 L209.379883,510.316406 L215.395508,510.316406 L215.395508,498.387695 L221.616211,498.387695 Z M548.203125,514.486328 C546.949864,514.486328 545.74789,514.685708 544.597168,515.084473 C543.446446,515.483238 542.449548,516.035804 541.606445,516.742188 C540.763342,517.448571 540.085452,518.303055 539.572754,519.305664 C539.060056,520.308273 538.803711,521.413405 538.803711,522.621094 L538.803711,533.695312 C538.803711,534.903001 539.060056,536.008133 539.572754,537.010742 C540.085452,538.013351 540.763342,538.862138 541.606445,539.557129 C542.449548,540.252119 543.44075,540.798989 544.580078,541.197754 C545.719407,541.596519 546.927077,541.795898 548.203125,541.795898 C549.456386,541.795898 550.652664,541.596519 551.791992,541.197754 C552.931321,540.798989 553.922522,540.252119 554.765625,539.557129 C555.608728,538.862138 556.286619,538.013351 556.799316,537.010742 C557.312014,536.008133 557.568359,534.903001 557.568359,533.695312 L557.568359,522.621094 C557.568359,521.413405 557.312014,520.308273 556.799316,519.305664 C556.286619,518.303055 555.608728,517.448571 554.765625,516.742188 C553.922522,516.035804 552.931321,515.483238 551.791992,515.084473 C550.652664,514.685708 549.456386,514.486328 548.203125,514.486328 Z M305.083008,514.486328 C303.829746,514.486328 302.627773,514.685708 301.477051,515.084473 C300.326329,515.483238 299.329431,516.035804 298.486328,516.742188 C297.643225,517.448571 296.965335,518.303055 296.452637,519.305664 C295.939939,520.308273 295.683594,521.413405 295.683594,522.621094 L295.683594,533.695312 C295.683594,534.903001 295.939939,536.008133 296.452637,537.010742 C296.965335,538.013351 297.643225,538.862138 298.486328,539.557129 C299.329431,540.252119 300.320632,540.798989 301.459961,541.197754 C302.59929,541.596519 303.80696,541.795898 305.083008,541.795898 C306.336269,541.795898 307.532546,541.596519 308.671875,541.197754 C309.811204,540.798989 310.802405,540.252119 311.645508,539.557129 C312.488611,538.862138 313.166501,538.013351 313.679199,537.010742 C314.191897,536.008133 314.448242,534.903001 314.448242,533.695312 L314.448242,522.621094 C314.448242,521.413405 314.191897,520.308273 313.679199,519.305664 C313.166501,518.303055 312.488611,517.448571 311.645508,516.742188 C310.802405,516.035804 309.811204,515.483238 308.671875,515.084473 C307.532546,514.685708 306.336269,514.486328 305.083008,514.486328 Z M743.095703,514.486328 C741.796869,514.486328 740.594895,514.685708 739.489746,515.084473 C738.384597,515.483238 737.421879,516.035804 736.601562,516.742188 C735.781246,517.448571 735.137535,518.303055 734.67041,519.305664 C734.203285,520.308273 733.969727,521.413405 733.969727,522.621094 L733.969727,533.695312 C733.969727,534.903001 734.203285,536.008133 734.67041,537.010742 C735.137535,538.013351 735.781246,538.862138 736.601562,539.557129 C737.421879,540.252119 738.378901,540.798989 739.472656,541.197754 C740.566412,541.596519 741.774082,541.795898 743.095703,541.795898 C746.263037,541.795898 748.684074,540.793304 750.358887,538.788086 C752.0337,536.782868 752.871094,534.242203 752.871094,531.166016 L752.871094,525.150391 C752.871094,522.074203 752.0337,519.527842 750.358887,517.51123 C748.684074,515.494619 746.263037,514.486328 743.095703,514.486328 Z M426.489258,505.804688 L426.21582,505.804688 L418.730469,528.773438 L433.90625,528.773438 L426.489258,505.804688 Z M704.301758,514.486328 C703.139643,514.486328 702.03451,514.674315 700.986328,515.050293 C699.938146,515.426271 699.00391,515.978838 698.183594,516.708008 C697.363277,517.437178 696.719566,518.325841 696.252441,519.374023 C695.785317,520.422206 695.551758,521.595697 695.551758,522.894531 L695.551758,524.876953 L713.051758,524.876953 L713.051758,522.894531 C713.051758,521.595697 712.818199,520.422206 712.351074,519.374023 C711.883949,518.325841 711.245935,517.437178 710.437012,516.708008 C709.628088,515.978838 708.693853,515.426271 707.634277,515.050293 C706.574702,514.674315 705.463873,514.486328 704.301758,514.486328 Z M187.949219,514.486328 C186.787104,514.486328 185.681971,514.674315 184.633789,515.050293 C183.585607,515.426271 182.651371,515.978838 181.831055,516.708008 C181.010738,517.437178 180.367027,518.325841 179.899902,519.374023 C179.432778,520.422206 179.199219,521.595697 179.199219,522.894531 L179.199219,524.876953 L196.699219,524.876953 L196.699219,522.894531 C196.699219,521.595697 196.46566,520.422206 195.998535,519.374023 C195.53141,518.325841 194.893396,517.437178 194.084473,516.708008 C193.275549,515.978838 192.341314,515.426271 191.281738,515.050293 C190.222163,514.674315 189.111334,514.486328 187.949219,514.486328 Z M370.195312,403.802734 C373.580746,403.802734 376.542956,404.502597 379.082031,405.902344 C381.621106,407.30209 383.720695,409.19823 385.380859,411.59082 C387.041024,413.98341 388.269853,416.815413 389.067383,420.086914 C389.864913,423.358415 390.263672,426.833315 390.263672,430.511719 C390.263672,434.255227 389.864913,437.738265 389.067383,440.960938 C388.269853,444.18361 387.041024,446.999337 385.380859,449.408203 C383.720695,451.817069 381.621106,453.721347 379.082031,455.121094 C376.542956,456.52084 373.580746,457.220703 370.195312,457.220703 C366.809879,457.220703 363.880221,456.504564 361.40625,455.072266 C358.932279,453.639967 356.897794,451.65431 355.302734,449.115234 L355.302734,472.992188 L342.802734,472.992188 L342.802734,405.023438 L355.302734,405.023438 L355.302734,411.908203 C356.897794,409.369128 358.924141,407.383471 361.381836,405.951172 C363.839531,404.518873 366.777327,403.802734 370.195312,403.802734 Z M424.443359,403.802734 C428.251972,403.802734 431.637355,404.437494 434.599609,405.707031 C437.561864,406.976569 440.060211,408.791329 442.094727,411.151367 C444.129242,413.511405 445.67545,416.327132 446.733398,419.598633 C447.791346,422.870134 448.320312,426.507792 448.320312,430.511719 C448.320312,434.515645 447.791346,438.145166 446.733398,441.400391 C445.67545,444.655615 444.129242,447.471342 442.094727,449.847656 C440.060211,452.22397 437.561864,454.046869 434.599609,455.316406 C431.637355,456.585944 428.251972,457.220703 424.443359,457.220703 C420.634747,457.220703 417.249364,456.585944 414.287109,455.316406 C411.324855,454.046869 408.826508,452.22397 406.791992,449.847656 C404.757477,447.471342 403.20313,444.655615 402.128906,441.400391 C401.054682,438.145166 400.517578,434.515645 400.517578,430.511719 C400.517578,426.507792 401.054682,422.870134 402.128906,419.598633 C403.20313,416.327132 404.757477,413.511405 406.791992,411.151367 C408.826508,408.791329 411.324855,406.976569 414.287109,405.707031 C417.249364,404.437494 420.634747,403.802734 424.443359,403.802734 Z M306.132812,403.802734 C309.941425,403.802734 313.326808,404.437494 316.289062,405.707031 C319.251317,406.976569 321.749664,408.791329 323.78418,411.151367 C325.818695,413.511405 327.364904,416.327132 328.422852,419.598633 C329.4808,422.870134 330.009766,426.507792 330.009766,430.511719 C330.009766,434.515645 329.4808,438.145166 328.422852,441.400391 C327.364904,444.655615 325.818695,447.471342 323.78418,449.847656 C321.749664,452.22397 319.251317,454.046869 316.289062,455.316406 C313.326808,456.585944 309.941425,457.220703 306.132812,457.220703 C302.3242,457.220703 298.938817,456.585944 295.976562,455.316406 C293.014308,454.046869 290.515961,452.22397 288.481445,449.847656 C286.44693,447.471342 284.892583,444.655615 283.818359,441.400391 C282.744135,438.145166 282.207031,434.515645 282.207031,430.511719 C282.207031,426.507792 282.744135,422.870134 283.818359,419.598633 C284.892583,416.327132 286.44693,413.511405 288.481445,411.151367 C290.515961,408.791329 293.014308,406.976569 295.976562,405.707031 C298.938817,404.437494 302.3242,403.802734 306.132812,403.802734 Z M212.138672,403.802734 C214.807956,403.802734 217.363269,404.152666 219.804688,404.852539 C222.246106,405.552412 224.451488,406.651034 226.420898,408.148438 C228.390309,409.645841 229.985345,411.558257 231.206055,413.885742 C232.426764,416.213228 233.183592,418.988265 233.476562,422.210938 L220.976562,422.210938 C220.65104,418.955713 219.650073,416.693366 217.973633,415.423828 C216.297192,414.154291 214.189466,413.519531 211.650391,413.519531 C209.111315,413.519531 206.914072,414.333325 205.058594,415.960938 C203.203116,417.58855 202.275391,420.095035 202.275391,423.480469 L202.275391,437.494141 C202.275391,440.619156 203.154288,443.068676 204.912109,444.842773 C206.669931,446.616871 208.948554,447.503906 211.748047,447.503906 C214.54754,447.503906 216.752922,446.836595 218.364258,445.501953 C219.975594,444.167311 220.976561,441.807309 221.367188,438.421875 L233.867188,438.421875 C233.541665,441.611995 232.776699,444.370757 231.572266,446.698242 C230.367833,449.025728 228.79721,450.970695 226.860352,452.533203 C224.923493,454.095711 222.726249,455.267574 220.268555,456.048828 C217.81086,456.830082 215.182306,457.220703 212.382812,457.220703 C208.5742,457.220703 205.237645,456.569668 202.373047,455.267578 C199.508449,453.965488 197.091481,452.158866 195.12207,449.847656 C193.152659,447.536447 191.679692,444.769547 190.703125,441.546875 C189.726558,438.324203 189.238281,434.743509 189.238281,430.804688 C189.238281,426.605448 189.775385,422.837582 190.849609,419.500977 C191.923833,416.164371 193.461904,413.332368 195.463867,411.004883 C197.46583,408.677397 199.866522,406.895188 202.666016,405.658203 C205.465509,404.421218 208.623029,403.802734 212.138672,403.802734 Z M534.550781,403.802734 C540.345081,403.802734 545.097638,405.20246 548.808594,408.001953 C552.51955,410.801446 554.505207,415.033175 554.765625,420.697266 L542.265625,420.697266 C542.135416,418.288399 541.37045,416.489915 539.970703,415.301758 C538.570957,414.113601 536.764334,413.519531 534.550781,413.519531 C532.402333,413.519531 530.652676,413.983394 529.301758,414.911133 C527.95084,415.838872 527.275391,417.132804 527.275391,418.792969 C527.275391,420.453133 527.788081,421.681962 528.813477,422.479492 C529.838872,423.277022 531.181632,423.854816 532.841797,424.212891 L542.949219,426.410156 C544.804697,426.800783 546.57063,427.378577 548.24707,428.143555 C549.923511,428.908532 551.363926,429.893223 552.568359,431.097656 C553.772792,432.302089 554.724931,433.734367 555.424805,435.394531 C556.124678,437.054696 556.474609,439.024077 556.474609,441.302734 C556.474609,443.516287 556.002609,445.583324 555.058594,447.503906 C554.114579,449.424489 552.747405,451.100904 550.957031,452.533203 C549.166658,453.965502 546.953138,455.104813 544.316406,455.951172 C541.679674,456.79753 538.668637,457.220703 535.283203,457.220703 C528.479784,457.220703 523.222675,455.715184 519.511719,452.704102 C515.800763,449.693019 513.815105,445.388049 513.554688,439.789062 L526.054688,439.789062 C526.575523,444.932317 529.651665,447.503906 535.283203,447.503906 C537.692069,447.503906 539.74283,447.05632 541.435547,446.161133 C543.128264,445.265946 543.974609,443.841807 543.974609,441.888672 C543.974609,440.033194 543.274747,438.690434 541.875,437.860352 C540.475253,437.030269 538.636079,436.371096 536.357422,435.882812 L527.568359,433.978516 C519.039671,432.123038 514.775391,427.25655 514.775391,419.378906 C514.775391,417.165354 515.222977,415.114593 516.118164,413.226562 C517.013351,411.338532 518.307283,409.694668 520,408.294922 C521.692717,406.895175 523.759753,405.796553 526.201172,404.999023 C528.64259,404.201493 531.425766,403.802734 534.550781,403.802734 Z M473.613281,387.982422 L473.613281,456 L461.113281,456 L461.113281,387.982422 L473.613281,387.982422 Z M274.638672,405.023438 L274.638672,414.789062 L258.671875,414.789062 L258.671875,456 L246.171875,456 L246.171875,405.023438 L274.638672,405.023438 Z M501.494141,405.023438 L501.494141,456 L488.994141,456 L488.994141,405.023438 L501.494141,405.023438 Z M159.013672,387.982422 L182.109375,456 L168.095703,456 L163.603516,441.498047 L140.410156,441.498047 L136.015625,456 L122.001953,456 L145.195312,387.982422 L159.013672,387.982422 Z M366.777344,413.519531 C362.773417,413.519531 359.860035,414.715808 358.037109,417.108398 C356.214184,419.500989 355.302734,422.699199 355.302734,426.703125 L355.302734,434.320312 C355.302734,438.324239 356.214184,441.522449 358.037109,443.915039 C359.860035,446.307629 362.773417,447.503906 366.777344,447.503906 C370.032568,447.503906 372.596019,446.616871 374.467773,444.842773 C376.339528,443.068676 377.275391,440.68426 377.275391,437.689453 L377.275391,423.285156 C377.275391,420.29035 376.347666,417.914071 374.492188,416.15625 C372.636709,414.398429 370.065121,413.519531 366.777344,413.519531 Z M424.443359,413.519531 C421.318344,413.519531 418.722341,414.349601 416.655273,416.009766 C414.588206,417.66993 413.554688,420.029933 413.554688,423.089844 L413.554688,437.884766 C413.554688,440.944677 414.588206,443.312817 416.655273,444.989258 C418.722341,446.665698 421.318344,447.503906 424.443359,447.503906 C427.568375,447.503906 430.164378,446.690112 432.231445,445.0625 C434.298513,443.434888 435.332031,441.042333 435.332031,437.884766 L435.332031,423.089844 C435.332031,419.964828 434.298513,417.58855 432.231445,415.960938 C430.164378,414.333325 427.568375,413.519531 424.443359,413.519531 Z M306.132812,413.519531 C303.007797,413.519531 300.411794,414.349601 298.344727,416.009766 C296.277659,417.66993 295.244141,420.029933 295.244141,423.089844 L295.244141,437.884766 C295.244141,440.944677 296.277659,443.312817 298.344727,444.989258 C300.411794,446.665698 303.007797,447.503906 306.132812,447.503906 C309.257828,447.503906 311.853831,446.690112 313.920898,445.0625 C315.987966,443.434888 317.021484,441.042333 317.021484,437.884766 L317.021484,423.089844 C317.021484,419.964828 315.987966,417.58855 313.920898,415.960938 C311.853831,414.333325 309.257828,413.519531 306.132812,413.519531 Z M152.421875,403.705078 L151.982422,403.705078 L143.779297,430.511719 L160.283203,430.511719 L152.421875,403.705078 Z M501.689453,387.982422 L501.689453,399.115234 L488.798828,399.115234 L488.798828,387.982422 L501.689453,387.982422 Z"/>
    <g fill-rule="nonzero" transform="translate(120 120)">
      <path fill="#FFF" d="M41.36675,36.3 L41.36675,33.1 L46.4,33.1 L46.4,12.7 L49.93325,12.7 L49.93325,33.36675 C49.93325,34.96675 48.63325,36.3 47,36.3 L41.36675,36.3 Z M54.53325,27.66675 C52.83325,25.96675 51.96675,23.83325 51.96675,21.3 C51.96675,18.76675 52.83325,16.63325 54.53325,14.93325 C56.23325,13.23325 58.36675,12.36675 60.9,12.36675 C63.43325,12.36675 65.53325,13.23325 67.26675,14.93325 C68.96675,16.63325 69.83325,18.76675 69.83325,21.3 C69.83325,23.83325 68.96675,25.96675 67.26675,27.66675 C65.56675,29.36675 63.43325,30.23325 60.9,30.23325 C58.33325,30.23325 56.23325,29.36675 54.53325,27.66675 Z M57.1,17.1 C56.13325,18.13325 55.66675,19.53325 55.66675,21.26675 C55.66675,23 56.13325,24.4 57.1,25.43325 C58.06675,26.46675 59.33325,27 60.86675,27 C62.4,27 63.66675,26.46675 64.63325,25.43325 C65.6,24.4 66.06675,23 66.06675,21.26675 C66.06675,19.53325 65.6,18.13325 64.63325,17.1 C63.66675,16.06675 62.4,15.53325 60.86675,15.53325 C59.33325,15.56675 58.06675,16.06675 57.1,17.1 Z M70.1,12.7 L73.8,12.7 L77.5,26.53325 L79.33325,26.53325 L83.36675,12.7 L87.06675,12.7 L80,36.3 L76.3,36.3 L78.3,29.9 L77,29.9 C75.7,29.9 74.53325,29.03325 74.2,27.76675 L70.1,12.7 Z M86.73325,24.5 L90.6,24.5 C90.63325,24.56675 90.66675,24.66675 90.73325,24.76675 C90.8,24.86675 90.93325,25.06675 91.13325,25.36675 C91.33325,25.66675 91.6,25.93325 91.86675,26.13325 C92.13325,26.36675 92.56675,26.56675 93.06675,26.73325 C93.6,26.9 94.16675,27 94.8,27 C96.03325,27 96.93325,26.8 97.5,26.43325 C98.06675,26.06675 98.33325,25.56675 98.33325,25 C98.33325,24.46675 97.96675,24.03325 97.23325,23.73325 C96.5,23.43325 95.6,23.16675 94.53325,22.96675 C93.46675,22.76675 92.43325,22.5 91.36675,22.16675 C90.3,21.83325 89.43325,21.3 88.66675,20.5 C87.93325,19.7 87.56675,18.7 87.56675,17.43325 C87.56675,16.1 88.16675,14.9 89.4,13.9 C90.63325,12.9 92.26675,12.4 94.26675,12.4 C95.53325,12.4 96.63325,12.6 97.63325,12.96675 C98.63325,13.33325 99.36675,13.8 99.86675,14.3 C100.36675,14.83325 100.76675,15.36675 101.1,15.9 C101.43325,16.43325 101.63325,16.86675 101.73325,17.26675 L101.86675,17.8 L98.16675,17.8 C98.13325,17.73325 98.1,17.66675 98.06675,17.56675 C98.03325,17.46675 97.9,17.3 97.7,17.03325 C97.5,16.76675 97.3,16.56675 97.03325,16.36675 C96.76675,16.16675 96.4,16 95.93325,15.83325 C95.46675,15.66675 94.9,15.6 94.3,15.6 C93.3,15.6 92.56675,15.76675 92.03325,16.13325 C91.53325,16.5 91.26675,16.93325 91.26675,17.46675 C91.26675,17.9 91.53325,18.3 92.06675,18.6 C92.6,18.9 93.26675,19.13325 94.06675,19.26675 C94.86675,19.4 95.73325,19.6 96.66675,19.86675 C97.6,20.13325 98.43325,20.43325 99.26675,20.76675 C100.06675,21.1 100.73325,21.63325 101.26675,22.36675 C101.8,23.1 102.06675,24 102.06675,25.03325 C102.06675,26.46675 101.43325,27.7 100.13325,28.73325 C98.83325,29.76675 97.06675,30.26675 94.83325,30.26675 C93.5,30.26675 92.33325,30.06675 91.3,29.66675 C90.26675,29.26675 89.46675,28.8 88.93325,28.23325 C88.4,27.66675 87.96675,27.1 87.6,26.53325 C87.26675,25.96675 87.03325,25.5 86.93325,25.13325 L86.73325,24.5 Z M102.7,15.9 L102.7,12.7 L104.7,12.7 L104.7,9 L108.23325,9 L108.23325,12.7 L113.46675,12.7 L113.46675,15.9 L108.26675,15.9 L108.26675,26.7 L113.63325,26.7 L113.63325,29.9 L107.63325,29.9 C106.03325,29.9 104.7,28.6 104.7,26.96675 L104.7,15.9 L102.7,15.9 Z M119.16675,15.9 L119.16675,29.9 L115.63325,29.9 L115.63325,15.26675 C115.63325,13.86675 116.76675,12.7 118.2,12.7 L119.16675,12.7 L126.06675,12.7 L126.06675,15.9 L119.16675,15.9 Z M128.46675,27.66675 C126.8,25.93325 125.93325,23.8 125.93325,21.3 C125.93325,18.8 126.8,16.66675 128.46675,14.93325 C130.16675,13.2 132.23325,12.36675 134.66675,12.36675 C137.1,12.36675 139.16675,13.23325 140.86675,14.93325 C142.56675,16.66675 143.4,18.76675 143.4,21.3 L143.4,22.46675 L129.46675,22.46675 C129.7,23.86675 130.33325,24.96675 131.26675,25.8 C132.23325,26.63325 133.36675,27.03325 134.66675,27.03325 C135.73325,27.03325 136.63325,26.83325 137.46675,26.43325 C138.26675,26.03325 138.83325,25.63325 139.1,25.23325 L139.53325,24.66675 L143.23325,24.66675 C143.2,24.83325 143.1,25.03325 143,25.26675 C142.9,25.5 142.6,25.96675 142.13325,26.6 C141.66675,27.23325 141.16675,27.8 140.56675,28.3 C140,28.76675 139.16675,29.23325 138.1,29.63325 C137.03325,30.03325 135.9,30.23325 134.63325,30.23325 C132.23325,30.23325 130.16675,29.36675 128.46675,27.66675 Z M130.1,19.6 L140.16675,19.6 C140,18.5 139.46675,17.53325 138.56675,16.76675 C137.66675,15.96675 136.53325,15.56675 135.13325,15.56675 C133.93325,15.56675 132.83325,15.93325 131.9,16.66675 C130.96675,17.4 130.36675,18.36675 130.1,19.6 Z M146.7,27.76675 C145.16675,26.1 144.4,23.93325 144.4,21.3 C144.4,18.66675 145.16675,16.5 146.7,14.83325 C148.23325,13.16675 150.16675,12.36675 152.46675,12.36675 C153.53325,12.36675 154.5,12.56675 155.4,13 C156.3,13.43325 156.93325,13.83325 157.3,14.23325 L157.83325,14.86675 L158,14.86675 L158,12.66675 L161.53325,12.66675 L161.53325,29.86675 L158,29.86675 L158,27.5 L157.83325,27.5 C157.8,27.56675 157.7,27.66675 157.6,27.8 C157.5,27.93325 157.26675,28.13325 156.93325,28.46675 C156.6,28.76675 156.23325,29.06675 155.86675,29.3 C155.5,29.53325 154.96675,29.73325 154.36675,29.93325 C153.73325,30.13325 153.1,30.23325 152.46675,30.23325 C150.2,30.23325 148.26675,29.4 146.7,27.76675 Z M164.6,29.9 L164.6,12.7 L168.13325,12.7 L168.13325,15.06675 L168.3,15.06675 C168.33325,15 168.4,14.9 168.46675,14.76675 C168.53325,14.63325 168.7,14.43325 169,14.1 C169.3,13.8 169.6,13.5 169.96675,13.26675 C170.3,13.03325 170.8,12.83325 171.4,12.63325 C172,12.43325 172.66675,12.33325 173.33325,12.33325 C174.13325,12.33325 174.9,12.43325 175.56675,12.66675 C176.26675,12.9 176.8,13.16675 177.16675,13.46675 C177.56675,13.76675 177.9,14.1 178.16675,14.4 C178.43325,14.7 178.6,14.96675 178.7,15.2 L178.86675,15.53325 L179.03325,15.53325 C179.06675,15.43325 179.13325,15.33325 179.23325,15.16675 C179.3,15.03325 179.53325,14.76675 179.86675,14.4 C180.2,14.03325 180.56675,13.73325 180.96675,13.43325 C181.36675,13.16675 181.93325,12.9 182.63325,12.66675 C183.36675,12.43325 184.1,12.3 184.93325,12.3 C186.9,12.3 188.46675,12.93325 189.6,14.2 C190.73325,15.46675 191.3,17.23325 191.3,19.56675 L191.3,29.83325 L187.76675,29.83325 L187.76675,19.76675 C187.76675,16.96675 186.53325,15.56675 184.06675,15.56675 C182.86675,15.56675 181.83325,16.03325 180.96675,16.93325 C180.1,17.86675 179.7,19.03325 179.7,20.43325 L179.7,29.86675 L176.16675,29.86675 L176.16675,19.76675 C176.16675,16.96675 174.93325,15.56675 172.46675,15.56675 C171.26675,15.56675 170.23325,16.03325 169.36675,16.93325 C168.5,17.86675 168.1,19.03325 168.1,20.43325 L168.1,29.86675 L164.6,29.86675 L164.6,29.9 Z M46.43325,6.13325 L46.43325,9.66675 L49.96675,9.66675 L49.96675,6.13325 L46.43325,6.13325 Z M149.06675,17.1 C148.1,18.13325 147.63325,19.53325 147.63325,21.26675 C147.63325,23 148.1,24.4 149.06675,25.43325 C150.03325,26.46675 151.3,27 152.83325,27 C154.36675,27 155.63325,26.46675 156.6,25.43325 C157.56675,24.4 158.03325,23 158.03325,21.26675 C158.03325,19.53325 157.56675,18.13325 156.6,17.1 C155.63325,16.06675 154.36675,15.53325 152.83325,15.53325 C151.3,15.56675 150.03325,16.06675 149.06675,17.1 Z"/>
      <g fill="#4038FF">
        <path d="M28.06675 2.7000624e-13L31.7 2.7000624e-13 31.7 10.43325C31.7 14.6 30.13325 18.43325 27.56675 21.33325 27.9 19.93325 28.06675 18.5 28.06675 17L28.06675 2.7000624e-13zM9.8 29.7665C9.7 29.8665 9.63325 29.9665 9.53325 30.0665 9.5 30.1 9.46675 30.13325 9.43325 30.1665 9.33325 30.2665 9.26675 30.3665 9.16675 30.43325 9.13325 30.4665 9.06675 30.53325 9.03325 30.5665 8.93325 30.6665 8.83325 30.7665 8.7 30.8665 8.56675 31 8.43325 31.1 8.3 31.23325 8.16675 31.3665 8.03325 31.4665 7.86675 31.5665 7.73325 31.6665 7.6 31.7665 7.46675 31.8665 7.13325 32.0665 6.8 32.2665 6.46675 32.43325 6.4 32.4665 6.33325 32.5 6.23325 32.53325 6.13325 32.5665 6.06675 32.6 6 32.63325 5.9 32.6665 5.83325 32.7 5.73325 32.73325 5.56675 32.8 5.4 32.8665 5.2 32.93325 5.2 32.93325 5.2 32.93325 5.16675 32.93325 5 33 4.83325 33.03325 4.66675 33.0665L4.63325 33.0665C4.46675 33.1 4.3 33.1665 4.13325 33.2 3.93325 33.23325 3.7 33.3 3.5 33.3 3.43325 33.3 3.36675 33.33325 3.3 33.33325L3.26675 33.33325C3.06675 33.3665 2.9 33.3665 2.7 33.3665 2.6 33.3665 2.5 33.3665 2.4 33.3665 2.3 33.3665 2.2 33.3665 2.1 33.3665L1.96675 33.3665 3.06675 29.73325 9.8 29.73325 9.8 29.7665zM25.13325-7.10542736e-15L25.13325 17C25.13325 17.26675 25.13325 17.56675 25.1 17.83325 25.1 17.96675 25.1 18.1 25.06675 18.23325 25.06675 18.36675 25.03325 18.5 25.03325 18.63325 25.03325 18.76675 25 18.9 25 19.03325 25 19.13325 24.96675 19.26675 24.96675 19.36675L24.96675 19.4C24.96675 19.43325 24.96675 19.46675 24.96675 19.46675 24.93325 19.6 24.93325 19.73325 24.9 19.83325 24.86675 19.96675 24.86675 20.1 24.83325 20.2L24.83325 20.23325C24.8 20.33325 24.8 20.43325 24.76675 20.53325 24.76675 20.56675 24.76675 20.56675 24.76675 20.6 24.66675 21 24.56675 21.43325 24.43325 21.83325 24.4 21.93325 24.36675 22.06675 24.33325 22.16675 24.3 22.3 24.26675 22.4 24.2 22.53325 24.16675 22.66675 24.1 22.76675 24.06675 22.86675 24.03325 23 23.96675 23.1 23.93325 23.2 23.9 23.33325 23.83325 23.43325 23.8 23.53325 23.76675 23.63325 23.7 23.76675 23.63325 23.86675 23.6 23.96675 23.53325 24.1 23.46675 24.2 23.4 24.3 23.36675 24.43325 23.3 24.53325 23.26675 24.63325 23.2 24.7 23.16675 24.8 23.06675 25 22.96675 25.16675 22.83325 25.36675 22.73325 25.53325 22.63325 25.7 22.53325 25.83325 22.46675 25.96675 22.4 26.06675 22.3 26.16675 22.26675 26.23325 22.2 26.3 22.16675 26.33325 22.06675 26.46675 22 26.56675 21.9 26.66675 21.8 26.8 21.7 26.9 21.63325 27.03325 21.43325 27.26675 21.23325 27.5 21.03325 27.73325 21.06675 27.6 21.1 27.46675 21.13325 27.33325 21.16675 27.23325 21.16675 27.13325 21.2 27.03325 21.2 27.03325 21.2 27.03325 21.2 27 21.2 26.96675 21.2 26.96675 21.2 26.93325 21.23325 26.8 21.23325 26.66675 21.26675 26.53325 21.3 26.36675 21.33325 26.2 21.33325 26.06675 21.33325 25.96675 21.36675 25.86675 21.36675 25.8 21.36675 25.7 21.4 25.63325 21.4 25.53325 21.43325 25.36675 21.43325 25.2 21.46675 25 21.46675 24.96675 21.46675 24.96675 21.46675 24.93325 21.46675 24.9 21.46675 24.9 21.46675 24.86675 21.46675 24.73325 21.5 24.63325 21.5 24.5 21.5 24.4 21.5 24.3 21.5 24.2L21.5 24.33325C21.5 24.23325 21.5 24.13325 21.5 24.03325 21.5 23.86675 21.5 23.73325 21.5 23.56675L21.5-7.10542736e-15 25.13325-7.10542736e-15z"/>
        <path d="M18.56675,0 L18.56675,23.56675 C18.56675,24.13325 18.53325,24.66675 18.5,25.2 C18.46675,25.66675 18.4,26.1 18.3,26.56675 C18.1,27.63325 17.8,28.66675 17.4,29.63325 C17.16675,30.23325 16.86675,30.83325 16.56675,31.4 C15.63325,33.06675 14.43325,34.56675 13.03325,35.83325 C10.13325,38.43325 6.3,40 2.13325,40 L-9.23705556e-14,40 L1.1,36.36675 L2.16675,36.36675 C5.3,36.36675 8.16675,35.23325 10.36675,33.36675 C11.56675,32.36675 12.56675,31.16675 13.3,29.8 C13.5,29.46675 13.66675,29.1 13.83325,28.73325 C14.1,28.13325 14.3,27.53325 14.46675,26.9 C14.66675,26.2 14.8,25.46675 14.83325,24.73325 C14.86675,24.36675 14.86675,24 14.86675,23.63325 L14.86675,0 L18.56675,0 Z"/>
        <path d="M12,23.2 L12,23.56675 C12,23.86675 12,24.16675 11.96675,24.4335 C11.9,25 11.83325,25.56675 11.66675,26.1 C11.6,26.36675 11.53325,26.6335 11.43325,26.86675 L3.93325,26.86675 L5.03325,23.2335 L12,23.2335 L12,23.2 Z"/>
      </g>
    </g>
  </g>
</svg>
