<?xml version="1.0" encoding="UTF-8"?>
<svg width="1200px" height="675px" viewBox="0 0 1200 675" version="1.1" xmlns="http://www.w3.org/2000/svg" xmlns:xlink="http://www.w3.org/1999/xlink">
    <!-- Generator: Sketch 59.1 (86144) - https://sketch.com -->
    <title>Twitter-template-15</title>
    <desc>Created with Sketch.</desc>
    <g id="Twitter-template-15" stroke="none" stroke-width="1" fill="none" fill-rule="evenodd">
        <rect fill="#4038FF" x="0" y="0" width="1200" height="675"></rect>
        <g id="Group" transform="translate(1059.000000, 169.000000) scale(1, -1) translate(-1059.000000, -169.000000) translate(918.000000, 0.000000)">
            <polygon id="Path" fill="#261EE4" fill-rule="nonzero" points="231.0475 225 224.8 225 224.8 231.253 231.0475 231.253"></polygon>
            <polygon id="Path" fill="#261EE4" fill-rule="nonzero" points="237.295 231.253 231.0475 231.253 231.0475 237.5065 237.295 237.5065"></polygon>
            <polygon id="Path" fill="#261EE4" fill-rule="nonzero" points="243.527 225 237.2795 225 237.2795 231.253 243.527 231.253"></polygon>
            <polygon id="Path" fill="#261EE4" fill-rule="nonzero" points="231.0475 237.4905 224.8 237.4905 224.8 243.7435 231.0475 243.7435"></polygon>
            <polygon id="Path" fill="#261EE4" fill-rule="nonzero" points="243.527 237.4905 237.2795 237.4905 237.2795 243.7435 243.527 243.7435"></polygon>
            <polygon id="Path" fill="#261EE4" fill-rule="nonzero" points="249.7745 231.253 243.527 231.253 243.527 237.5065 249.7745 237.5065"></polygon>
            <polygon id="Path" fill="#261EE4" fill-rule="nonzero" points="237.295 243.7435 231.0475 243.7435 231.0475 249.997 237.295 249.997"></polygon>
            <polygon id="Path" fill="#261EE4" fill-rule="nonzero" points="231.0475 249.997 224.8 249.997 224.8 256.25 231.0475 256.25"></polygon>
            <polygon id="Path" fill="#261EE4" fill-rule="nonzero" points="243.527 249.997 237.2795 249.997 237.2795 256.25 243.527 256.25"></polygon>
            <polygon id="Path" fill="#261EE4" fill-rule="nonzero" points="249.7745 243.7435 243.527 243.7435 243.527 249.997 249.7745 249.997"></polygon>
            <polygon id="Path" fill="#261EE4" fill-rule="nonzero" points="237.295 256.253 231.0475 256.253 231.0475 262.5065 237.295 262.5065"></polygon>
            <polygon id="Path" fill="#261EE4" fill-rule="nonzero" points="231.0475 262.4905 224.8 262.4905 224.8 268.7435 231.0475 268.7435"></polygon>
            <polygon id="Path" fill="#261EE4" fill-rule="nonzero" points="243.527 262.4905 237.2795 262.4905 237.2795 268.7435 243.527 268.7435"></polygon>
            <polygon id="Path" fill="#261EE4" fill-rule="nonzero" points="249.7745 256.253 243.527 256.253 243.527 262.5065 249.7745 262.5065"></polygon>
            <polygon id="Path" fill="#261EE4" fill-rule="nonzero" points="237.295 268.7435 231.0475 268.7435 231.0475 274.997 237.295 274.997"></polygon>
            <polygon id="Path" fill="#261EE4" fill-rule="nonzero" points="231.0475 274.997 224.8 274.997 224.8 281.25 231.0475 281.25"></polygon>
            <polygon id="Path" fill="#261EE4" fill-rule="nonzero" points="243.527 274.997 237.2795 274.997 237.2795 281.25 243.527 281.25"></polygon>
            <polygon id="Path" fill="#261EE4" fill-rule="nonzero" points="249.7745 268.7435 243.527 268.7435 243.527 274.997 249.7745 274.997"></polygon>
            <polygon id="Path" fill="#261EE4" fill-rule="nonzero" points="256.0255 225 249.778 225 249.778 231.253 256.0255 231.253"></polygon>
            <polygon id="Path" fill="#261EE4" fill-rule="nonzero" points="262.273 231.253 256.0255 231.253 256.0255 237.5065 262.273 237.5065"></polygon>
            <polygon id="Path" fill="#261EE4" fill-rule="nonzero" points="268.505 225 262.2575 225 262.2575 231.253 268.505 231.253"></polygon>
            <polygon id="Path" fill="#261EE4" fill-rule="nonzero" points="256.0255 237.4905 249.778 237.4905 249.778 243.7435 256.0255 243.7435"></polygon>
            <polygon id="Path" fill="#261EE4" fill-rule="nonzero" points="268.505 237.4905 262.2575 237.4905 262.2575 243.7435 268.505 243.7435"></polygon>
            <polygon id="Path" fill="#261EE4" fill-rule="nonzero" points="274.7525 231.253 268.505 231.253 268.505 237.5065 274.7525 237.5065"></polygon>
            <polygon id="Path" fill="#261EE4" fill-rule="nonzero" points="262.273 243.7435 256.0255 243.7435 256.0255 249.997 262.273 249.997"></polygon>
            <polygon id="Path" fill="#261EE4" fill-rule="nonzero" points="256.0255 249.997 249.778 249.997 249.778 256.25 256.0255 256.25"></polygon>
            <polygon id="Path" fill="#261EE4" fill-rule="nonzero" points="268.505 249.997 262.2575 249.997 262.2575 256.25 268.505 256.25"></polygon>
            <polygon id="Path" fill="#261EE4" fill-rule="nonzero" points="274.7525 243.7435 268.505 243.7435 268.505 249.997 274.7525 249.997"></polygon>
            <polygon id="Path" fill="#261EE4" fill-rule="nonzero" points="262.273 256.253 256.0255 256.253 256.0255 262.5065 262.273 262.5065"></polygon>
            <polygon id="Path" fill="#261EE4" fill-rule="nonzero" points="256.0255 262.4905 249.778 262.4905 249.778 268.7435 256.0255 268.7435"></polygon>
            <polygon id="Path" fill="#261EE4" fill-rule="nonzero" points="268.505 262.4905 262.2575 262.4905 262.2575 268.7435 268.505 268.7435"></polygon>
            <polygon id="Path" fill="#261EE4" fill-rule="nonzero" points="274.7525 256.253 268.505 256.253 268.505 262.5065 274.7525 262.5065"></polygon>
            <polygon id="Path" fill="#261EE4" fill-rule="nonzero" points="262.273 268.7435 256.0255 268.7435 256.0255 274.997 262.273 274.997"></polygon>
            <polygon id="Path" fill="#261EE4" fill-rule="nonzero" points="256.0255 274.997 249.778 274.997 249.778 281.25 256.0255 281.25"></polygon>
            <polygon id="Path" fill="#261EE4" fill-rule="nonzero" points="268.505 274.997 262.2575 274.997 262.2575 281.25 268.505 281.25"></polygon>
            <polygon id="Path" fill="#261EE4" fill-rule="nonzero" points="281 225 274.7525 225 274.7525 231.253 281 231.253"></polygon>
            <polygon id="Path" fill="#261EE4" fill-rule="nonzero" points="281 237.4905 274.7525 237.4905 274.7525 243.7435 281 243.7435"></polygon>
            <polygon id="Path" fill="#261EE4" fill-rule="nonzero" points="281 249.997 274.7525 249.997 274.7525 256.25 281 256.25"></polygon>
            <polygon id="Path" fill="#261EE4" fill-rule="nonzero" points="281 262.4905 274.7525 262.4905 274.7525 268.7435 281 268.7435"></polygon>
            <polygon id="Path" fill="#261EE4" fill-rule="nonzero" points="281 274.997 274.7525 274.997 274.7525 281.25 281 281.25"></polygon>
            <polygon id="Path" fill="#261EE4" fill-rule="nonzero" points="274.7525 268.7435 268.505 268.7435 268.505 274.997 274.7525 274.997"></polygon>
            <path d="M212.305,131.2595 L206.073,131.2595 L206.073,137.497 L212.305,137.497 L212.305,143.75 L206.073,143.75 L206.073,150.003 L212.305,150.003 L212.305,156.2405 L218.5525,156.2405 L218.5525,162.4935 L212.305,162.4935 L212.305,156.256 L206.073,156.256 L206.073,162.4935 L212.305,162.4935 L212.305,168.75 L206.0575,168.75 L206.0575,162.497 L199.8255,162.497 L199.8255,156.2595 L193.578,156.2595 L193.578,162.497 L187.3305,162.497 L187.3305,156.2595 L181.0985,156.2595 L181.0985,162.497 L187.3305,162.497 L187.3305,168.75 L181.0825,168.75 L181.0825,162.497 L174.851,162.497 L174.851,168.75 L168.6,168.75 L168.6,162.497 L174.8475,162.497 L174.8475,156.2595 L168.6,156.2595 L168.6,150.006 L174.8475,150.006 L174.8475,143.753 L168.6,143.753 L168.6,137.5 L174.8475,137.5 L174.8475,131.2625 L174.8475,131.247 L181.0795,131.247 L181.0795,125.0095 L187.327,125.0095 L187.327,131.247 L193.5745,131.247 L193.5745,125.0095 L199.8225,125.0095 L199.8225,131.247 L206.0545,131.247 L206.0545,125.0095 L212.302,125.0095 L212.302,131.247 L218.5495,131.247 L218.5495,137.5 L212.302,137.5 L212.302,131.2595 L212.305,131.2595 Z M174.8475,131.244 L174.8475,125.006 L168.6,125.006 L168.6,131.2595 L174.8475,131.2595 L174.8475,131.244 Z M193.5745,162.497 L193.5745,168.75 L199.8225,168.75 L199.8225,162.497 L193.5745,162.497 Z M212.305,150.006 L212.305,143.753 L218.5525,143.753 L218.5525,150.006 L212.305,150.006 Z M181.0795,156.244 L174.8475,156.244 L174.8475,150.006 L181.0795,150.006 L181.0795,156.244 Z M181.095,125.006 L181.095,118.753 L187.327,118.753 L187.327,125.006 L193.5745,125.006 L193.5745,118.753 L199.8225,118.753 L199.8225,125.006 L206.07,125.006 L206.07,118.753 L212.302,118.753 L212.302,125.006 L218.5495,125.006 L218.5495,118.753 L212.302,118.753 L212.302,112.5 L206.0545,112.5 L206.0545,118.753 L199.8225,118.753 L199.8225,112.5 L193.5745,112.5 L193.5745,118.753 L187.327,118.753 L187.327,112.5 L181.0795,112.5 L181.0795,118.753 L174.8475,118.753 L174.8475,112.5 L168.6,112.5 L168.6,118.753 L174.8475,118.753 L174.8475,125.006 L181.095,125.006 Z M206.0545,137.497 L206.0545,143.75 L199.8225,143.75 L199.8225,137.497 L206.0545,137.497 Z M193.5745,137.497 L193.5745,131.2595 L199.8225,131.2595 L199.8225,137.497 L193.5745,137.497 Z M187.327,137.497 L193.5745,137.497 L193.5745,143.75 L187.327,143.75 L187.327,137.497 Z M187.327,137.497 L181.095,137.497 L181.095,131.2595 L187.327,131.2595 L187.327,137.497 Z M187.327,150.006 L181.095,150.006 L181.095,143.753 L187.327,143.753 L187.327,150.006 Z M193.5745,150.006 L193.5745,156.244 L187.327,156.244 L187.327,150.006 L193.5745,150.006 Z M199.8255,150.006 L193.578,150.006 L193.578,143.753 L199.8255,143.753 L199.8255,150.006 Z M199.8255,150.006 L206.0575,150.006 L206.0575,156.244 L199.8255,156.244 L199.8255,150.006 Z M181.0795,143.753 L181.0795,137.5 L174.8475,137.5 L174.8475,143.753 L181.0795,143.753 Z M224.8,162.497 L218.5525,162.497 L218.5525,168.75 L224.8,168.75 L224.8,162.497 Z M218.5525,150.006 L224.8,150.006 L224.8,156.2595 L218.5525,156.2595 L218.5525,150.006 Z M224.8,137.497 L218.5525,137.497 L218.5525,143.75 L224.8,143.75 L224.8,137.497 Z M218.5525,125.006 L224.8,125.006 L224.8,131.2595 L218.5525,131.2595 L218.5525,125.006 Z M218.5525,112.5 L224.8,112.5 L224.8,118.753 L218.5525,118.753 L218.5525,112.5 Z" id="Shape" fill="#261EE4"></path>
            <path d="M274.7525,112.5 L281,112.5 L281,56.25 L274.7525,56.25 L274.7525,112.5 Z M268.511,112.5 L262.2665,112.5 L262.2665,56.25 L268.511,56.25 L268.511,112.5 Z M256.0225,112.5 L249.778,112.5 L249.778,56.25 L256.0225,56.25 L256.0225,112.5 Z M237.289,112.5 L243.5335,112.5 L243.5335,56.25 L237.289,56.25 L237.289,112.5 Z M231.0445,112.5 L224.8,112.5 L224.8,56.25 L231.0445,56.25 L231.0445,112.5 Z" id="Shape" fill="#261EE4"></path>
            <path d="M224.8,231.253 L224.8,225 L168.6,225 L168.6,231.253 L224.8,231.253 Z M224.8,237.5 L224.8,243.75 L168.6,243.75 L168.6,237.5 L224.8,237.5 Z M224.8,250 L224.8,256.25 L168.6,256.25 L168.6,250 L224.8,250 Z M224.8,268.75 L224.8,262.5 L168.6,262.5 L168.6,268.75 L224.8,268.75 Z M224.8,275 L224.8,281.25 L168.6,281.25 L168.6,275 L224.8,275 Z" id="Shape" fill="#261EE4"></path>
            <path d="M224.8,49.9969 L224.8,56.25 L168.6,56.25 L168.6,49.9969 L224.8,49.9969 Z M224.8,31.24375 L224.8,24.99065 L168.6,24.99065 L168.6,31.24375 L224.8,31.24375 Z M224.8,12.49065 L224.8,18.74375 L168.6,18.74375 L168.6,12.49065 L224.8,12.49065 Z M224.8,0 L224.8,6.25315 L168.6,6.25315 L168.6,0 L224.8,0 Z M224.8,43.74375 L224.8,37.4906 L168.6,37.4906 L168.6,43.74375 L224.8,43.74375 Z" id="Shape" fill="#261EE4"></path>
            <path d="M274.7555,168.75 L281,168.75 C281,199.8155 255.838,225 224.8,225 L224.8,218.75 C252.391,218.75 274.7555,196.3655 274.7555,168.75 Z M262.2665,168.75 L268.511,168.75 C268.511,192.9125 248.941,212.5 224.8,212.5 L224.8,206.25 C245.491,206.25 262.2665,189.4595 262.2665,168.75 Z M256.0225,168.75 L249.778,168.75 C249.778,182.556 238.594,193.75 224.8,193.75 L224.8,200 C242.044,200 256.0225,186.0095 256.0225,168.75 Z M237.289,168.75 L243.5335,168.75 C243.5335,179.106 235.147,187.5 224.8,187.5 L224.8,181.25 C231.697,181.25 237.289,175.653 237.289,168.75 Z M224.8,168.75 L231.0445,168.75 C231.0445,172.203 228.25,175 224.8,175 L224.8,168.75 Z" id="Shape" fill="#FFFFFF"></path>
            <path d="M174.8445,225 L168.6,225 C168.6,193.9345 193.762,168.75 224.8,168.75 L224.8,175 C197.209,175 174.8445,197.3845 174.8445,225 Z M187.3335,225 L181.089,225 C181.089,200.8375 200.659,181.25 224.8,181.25 L224.8,187.5 C204.109,187.5 187.3335,204.2905 187.3335,225 Z M193.578,225 L199.8225,225 C199.8225,211.1935 211.006,200 224.8,200 L224.8,193.75 C207.556,193.75 193.578,207.7405 193.578,225 Z M212.311,225 L206.067,225 C206.067,214.6435 214.453,206.25 224.8,206.25 L224.8,212.5 C217.903,212.5 212.311,218.097 212.311,225 Z M224.8,225 L218.5555,225 C218.5555,221.547 221.35,218.75 224.8,218.75 L224.8,225 Z" id="Shape" fill="#261EE4"></path>
            <path d="M118.7445,337.5 L112.5,337.5 C112.5,306.4345 137.662,281.25 168.7,281.25 L168.7,287.5 C141.109,287.5 118.7445,309.8845 118.7445,337.5 Z M131.2335,337.5 L124.989,337.5 C124.989,313.3375 144.559,293.75 168.7,293.75 L168.7,300 C148.009,300 131.2335,316.7905 131.2335,337.5 Z M137.478,337.5 L143.7225,337.5 C143.7225,323.6935 154.906,312.5 168.7,312.5 L168.7,306.25 C151.456,306.25 137.478,320.2405 137.478,337.5 Z M156.211,337.5 L149.967,337.5 C149.967,327.1435 158.353,318.75 168.7,318.75 L168.7,325 C161.803,325 156.211,330.597 156.211,337.5 Z M168.7,337.5 L162.4555,337.5 C162.4555,334.047 165.25,331.25 168.7,331.25 L168.7,337.5 Z" id="Shape-Copy-2" fill="#FFFFFF" transform="translate(140.600000, 309.375000) scale(-1, 1) translate(-140.600000, -309.375000) "></path>
            <path d="M224.8,281.25 L224.8,337.5 L281,337.5 C281,306.4345 255.838,281.25 224.8,281.25 Z" id="Path" fill="#261EE4" fill-rule="nonzero" transform="translate(252.900000, 309.375000) rotate(-270.000000) translate(-252.900000, -309.375000) "></path>
            <path d="M0,337.5 L56.2,337.5 L56.2,281.25 C25.162,281.25 0,306.4345 0,337.5 Z" id="Path" fill="#261EE4" fill-rule="nonzero"></path>
            <path d="M112.4,281.25 L168.6,281.25 L168.6,225 C137.562,225 112.4,250.1845 112.4,281.25 Z" id="Path" fill="#261EE4" fill-rule="nonzero"></path>
            <path d="M168.6,164.344 L168.6,168.75 L164.1975,168.75 L112.4,116.9065 L112.4,112.5 L116.802,112.5 L168.6,164.344 Z M112.4,125.75 L112.4,134.594 L146.526,168.75 L155.3615,168.75 L112.4,125.75 Z M112.4,152.281 L112.4,143.4375 L137.69,168.75 L128.854,168.75 L112.4,152.281 Z M112.4,168.75 L120.018,168.75 L112.4,161.125 L112.4,168.75 Z M125.638,112.5 L134.474,112.5 L168.6,146.656 L168.6,155.5 L125.638,112.5 Z M152.146,112.5 L143.31,112.5 L168.6,137.8125 L168.6,128.969 L152.146,112.5 Z M168.6,120.125 L160.9815,112.5 L168.6,112.5 L168.6,120.125 Z" id="Shape" fill="#261EE4"></path>
        </g>
        <g id="Group-Copy-2" transform="translate(29.500000, 169.000000) scale(1, -1) translate(-29.500000, -169.000000) translate(-111.000000, 0.000000)">
            <polygon id="Path" fill="#261EE4" fill-rule="nonzero" points="231.0475 225 224.8 225 224.8 231.253 231.0475 231.253"></polygon>
            <polygon id="Path" fill="#261EE4" fill-rule="nonzero" points="237.295 231.253 231.0475 231.253 231.0475 237.5065 237.295 237.5065"></polygon>
            <polygon id="Path" fill="#261EE4" fill-rule="nonzero" points="243.527 225 237.2795 225 237.2795 231.253 243.527 231.253"></polygon>
            <polygon id="Path" fill="#261EE4" fill-rule="nonzero" points="231.0475 237.4905 224.8 237.4905 224.8 243.7435 231.0475 243.7435"></polygon>
            <polygon id="Path" fill="#261EE4" fill-rule="nonzero" points="243.527 237.4905 237.2795 237.4905 237.2795 243.7435 243.527 243.7435"></polygon>
            <polygon id="Path" fill="#261EE4" fill-rule="nonzero" points="249.7745 231.253 243.527 231.253 243.527 237.5065 249.7745 237.5065"></polygon>
            <polygon id="Path" fill="#261EE4" fill-rule="nonzero" points="237.295 243.7435 231.0475 243.7435 231.0475 249.997 237.295 249.997"></polygon>
            <polygon id="Path" fill="#261EE4" fill-rule="nonzero" points="231.0475 249.997 224.8 249.997 224.8 256.25 231.0475 256.25"></polygon>
            <polygon id="Path" fill="#261EE4" fill-rule="nonzero" points="243.527 249.997 237.2795 249.997 237.2795 256.25 243.527 256.25"></polygon>
            <polygon id="Path" fill="#261EE4" fill-rule="nonzero" points="249.7745 243.7435 243.527 243.7435 243.527 249.997 249.7745 249.997"></polygon>
            <polygon id="Path" fill="#261EE4" fill-rule="nonzero" points="237.295 256.253 231.0475 256.253 231.0475 262.5065 237.295 262.5065"></polygon>
            <polygon id="Path" fill="#261EE4" fill-rule="nonzero" points="231.0475 262.4905 224.8 262.4905 224.8 268.7435 231.0475 268.7435"></polygon>
            <polygon id="Path" fill="#261EE4" fill-rule="nonzero" points="243.527 262.4905 237.2795 262.4905 237.2795 268.7435 243.527 268.7435"></polygon>
            <polygon id="Path" fill="#261EE4" fill-rule="nonzero" points="249.7745 256.253 243.527 256.253 243.527 262.5065 249.7745 262.5065"></polygon>
            <polygon id="Path" fill="#261EE4" fill-rule="nonzero" points="237.295 268.7435 231.0475 268.7435 231.0475 274.997 237.295 274.997"></polygon>
            <polygon id="Path" fill="#261EE4" fill-rule="nonzero" points="231.0475 274.997 224.8 274.997 224.8 281.25 231.0475 281.25"></polygon>
            <polygon id="Path" fill="#261EE4" fill-rule="nonzero" points="243.527 274.997 237.2795 274.997 237.2795 281.25 243.527 281.25"></polygon>
            <polygon id="Path" fill="#261EE4" fill-rule="nonzero" points="249.7745 268.7435 243.527 268.7435 243.527 274.997 249.7745 274.997"></polygon>
            <polygon id="Path" fill="#261EE4" fill-rule="nonzero" points="256.0255 225 249.778 225 249.778 231.253 256.0255 231.253"></polygon>
            <polygon id="Path" fill="#261EE4" fill-rule="nonzero" points="262.273 231.253 256.0255 231.253 256.0255 237.5065 262.273 237.5065"></polygon>
            <polygon id="Path" fill="#261EE4" fill-rule="nonzero" points="268.505 225 262.2575 225 262.2575 231.253 268.505 231.253"></polygon>
            <polygon id="Path" fill="#261EE4" fill-rule="nonzero" points="256.0255 237.4905 249.778 237.4905 249.778 243.7435 256.0255 243.7435"></polygon>
            <polygon id="Path" fill="#261EE4" fill-rule="nonzero" points="268.505 237.4905 262.2575 237.4905 262.2575 243.7435 268.505 243.7435"></polygon>
            <polygon id="Path" fill="#261EE4" fill-rule="nonzero" points="274.7525 231.253 268.505 231.253 268.505 237.5065 274.7525 237.5065"></polygon>
            <polygon id="Path" fill="#261EE4" fill-rule="nonzero" points="262.273 243.7435 256.0255 243.7435 256.0255 249.997 262.273 249.997"></polygon>
            <polygon id="Path" fill="#261EE4" fill-rule="nonzero" points="256.0255 249.997 249.778 249.997 249.778 256.25 256.0255 256.25"></polygon>
            <polygon id="Path" fill="#261EE4" fill-rule="nonzero" points="268.505 249.997 262.2575 249.997 262.2575 256.25 268.505 256.25"></polygon>
            <polygon id="Path" fill="#261EE4" fill-rule="nonzero" points="274.7525 243.7435 268.505 243.7435 268.505 249.997 274.7525 249.997"></polygon>
            <polygon id="Path" fill="#261EE4" fill-rule="nonzero" points="262.273 256.253 256.0255 256.253 256.0255 262.5065 262.273 262.5065"></polygon>
            <polygon id="Path" fill="#261EE4" fill-rule="nonzero" points="256.0255 262.4905 249.778 262.4905 249.778 268.7435 256.0255 268.7435"></polygon>
            <polygon id="Path" fill="#261EE4" fill-rule="nonzero" points="268.505 262.4905 262.2575 262.4905 262.2575 268.7435 268.505 268.7435"></polygon>
            <polygon id="Path" fill="#261EE4" fill-rule="nonzero" points="274.7525 256.253 268.505 256.253 268.505 262.5065 274.7525 262.5065"></polygon>
            <polygon id="Path" fill="#261EE4" fill-rule="nonzero" points="262.273 268.7435 256.0255 268.7435 256.0255 274.997 262.273 274.997"></polygon>
            <polygon id="Path" fill="#261EE4" fill-rule="nonzero" points="256.0255 274.997 249.778 274.997 249.778 281.25 256.0255 281.25"></polygon>
            <polygon id="Path" fill="#261EE4" fill-rule="nonzero" points="268.505 274.997 262.2575 274.997 262.2575 281.25 268.505 281.25"></polygon>
            <polygon id="Path" fill="#261EE4" fill-rule="nonzero" points="281 225 274.7525 225 274.7525 231.253 281 231.253"></polygon>
            <polygon id="Path" fill="#261EE4" fill-rule="nonzero" points="281 237.4905 274.7525 237.4905 274.7525 243.7435 281 243.7435"></polygon>
            <polygon id="Path" fill="#261EE4" fill-rule="nonzero" points="281 249.997 274.7525 249.997 274.7525 256.25 281 256.25"></polygon>
            <polygon id="Path" fill="#261EE4" fill-rule="nonzero" points="281 262.4905 274.7525 262.4905 274.7525 268.7435 281 268.7435"></polygon>
            <polygon id="Path" fill="#261EE4" fill-rule="nonzero" points="281 274.997 274.7525 274.997 274.7525 281.25 281 281.25"></polygon>
            <polygon id="Path" fill="#261EE4" fill-rule="nonzero" points="274.7525 268.7435 268.505 268.7435 268.505 274.997 274.7525 274.997"></polygon>
            <path d="M212.305,131.2595 L206.073,131.2595 L206.073,137.497 L212.305,137.497 L212.305,143.75 L206.073,143.75 L206.073,150.003 L212.305,150.003 L212.305,156.2405 L218.5525,156.2405 L218.5525,162.4935 L212.305,162.4935 L212.305,156.256 L206.073,156.256 L206.073,162.4935 L212.305,162.4935 L212.305,168.75 L206.0575,168.75 L206.0575,162.497 L199.8255,162.497 L199.8255,156.2595 L193.578,156.2595 L193.578,162.497 L187.3305,162.497 L187.3305,156.2595 L181.0985,156.2595 L181.0985,162.497 L187.3305,162.497 L187.3305,168.75 L181.0825,168.75 L181.0825,162.497 L174.851,162.497 L174.851,168.75 L168.6,168.75 L168.6,162.497 L174.8475,162.497 L174.8475,156.2595 L168.6,156.2595 L168.6,150.006 L174.8475,150.006 L174.8475,143.753 L168.6,143.753 L168.6,137.5 L174.8475,137.5 L174.8475,131.2625 L174.8475,131.247 L181.0795,131.247 L181.0795,125.0095 L187.327,125.0095 L187.327,131.247 L193.5745,131.247 L193.5745,125.0095 L199.8225,125.0095 L199.8225,131.247 L206.0545,131.247 L206.0545,125.0095 L212.302,125.0095 L212.302,131.247 L218.5495,131.247 L218.5495,137.5 L212.302,137.5 L212.302,131.2595 L212.305,131.2595 Z M174.8475,131.244 L174.8475,125.006 L168.6,125.006 L168.6,131.2595 L174.8475,131.2595 L174.8475,131.244 Z M193.5745,162.497 L193.5745,168.75 L199.8225,168.75 L199.8225,162.497 L193.5745,162.497 Z M212.305,150.006 L212.305,143.753 L218.5525,143.753 L218.5525,150.006 L212.305,150.006 Z M181.0795,156.244 L174.8475,156.244 L174.8475,150.006 L181.0795,150.006 L181.0795,156.244 Z M181.095,125.006 L181.095,118.753 L187.327,118.753 L187.327,125.006 L193.5745,125.006 L193.5745,118.753 L199.8225,118.753 L199.8225,125.006 L206.07,125.006 L206.07,118.753 L212.302,118.753 L212.302,125.006 L218.5495,125.006 L218.5495,118.753 L212.302,118.753 L212.302,112.5 L206.0545,112.5 L206.0545,118.753 L199.8225,118.753 L199.8225,112.5 L193.5745,112.5 L193.5745,118.753 L187.327,118.753 L187.327,112.5 L181.0795,112.5 L181.0795,118.753 L174.8475,118.753 L174.8475,112.5 L168.6,112.5 L168.6,118.753 L174.8475,118.753 L174.8475,125.006 L181.095,125.006 Z M206.0545,137.497 L206.0545,143.75 L199.8225,143.75 L199.8225,137.497 L206.0545,137.497 Z M193.5745,137.497 L193.5745,131.2595 L199.8225,131.2595 L199.8225,137.497 L193.5745,137.497 Z M187.327,137.497 L193.5745,137.497 L193.5745,143.75 L187.327,143.75 L187.327,137.497 Z M187.327,137.497 L181.095,137.497 L181.095,131.2595 L187.327,131.2595 L187.327,137.497 Z M187.327,150.006 L181.095,150.006 L181.095,143.753 L187.327,143.753 L187.327,150.006 Z M193.5745,150.006 L193.5745,156.244 L187.327,156.244 L187.327,150.006 L193.5745,150.006 Z M199.8255,150.006 L193.578,150.006 L193.578,143.753 L199.8255,143.753 L199.8255,150.006 Z M199.8255,150.006 L206.0575,150.006 L206.0575,156.244 L199.8255,156.244 L199.8255,150.006 Z M181.0795,143.753 L181.0795,137.5 L174.8475,137.5 L174.8475,143.753 L181.0795,143.753 Z M224.8,162.497 L218.5525,162.497 L218.5525,168.75 L224.8,168.75 L224.8,162.497 Z M218.5525,150.006 L224.8,150.006 L224.8,156.2595 L218.5525,156.2595 L218.5525,150.006 Z M224.8,137.497 L218.5525,137.497 L218.5525,143.75 L224.8,143.75 L224.8,137.497 Z M218.5525,125.006 L224.8,125.006 L224.8,131.2595 L218.5525,131.2595 L218.5525,125.006 Z M218.5525,112.5 L224.8,112.5 L224.8,118.753 L218.5525,118.753 L218.5525,112.5 Z" id="Shape" fill="#261EE4"></path>
            <path d="M274.7525,112.5 L281,112.5 L281,56.25 L274.7525,56.25 L274.7525,112.5 Z M268.511,112.5 L262.2665,112.5 L262.2665,56.25 L268.511,56.25 L268.511,112.5 Z M256.0225,112.5 L249.778,112.5 L249.778,56.25 L256.0225,56.25 L256.0225,112.5 Z M237.289,112.5 L243.5335,112.5 L243.5335,56.25 L237.289,56.25 L237.289,112.5 Z M231.0445,112.5 L224.8,112.5 L224.8,56.25 L231.0445,56.25 L231.0445,112.5 Z" id="Shape" fill="#261EE4"></path>
            <path d="M224.8,231.253 L224.8,225 L168.6,225 L168.6,231.253 L224.8,231.253 Z M224.8,237.5 L224.8,243.75 L168.6,243.75 L168.6,237.5 L224.8,237.5 Z M224.8,250 L224.8,256.25 L168.6,256.25 L168.6,250 L224.8,250 Z M224.8,268.75 L224.8,262.5 L168.6,262.5 L168.6,268.75 L224.8,268.75 Z M224.8,275 L224.8,281.25 L168.6,281.25 L168.6,275 L224.8,275 Z" id="Shape" fill="#261EE4"></path>
            <path d="M224.8,49.9969 L224.8,56.25 L168.6,56.25 L168.6,49.9969 L224.8,49.9969 Z M224.8,31.24375 L224.8,24.99065 L168.6,24.99065 L168.6,31.24375 L224.8,31.24375 Z M224.8,12.49065 L224.8,18.74375 L168.6,18.74375 L168.6,12.49065 L224.8,12.49065 Z M224.8,0 L224.8,6.25315 L168.6,6.25315 L168.6,0 L224.8,0 Z M224.8,43.74375 L224.8,37.4906 L168.6,37.4906 L168.6,43.74375 L224.8,43.74375 Z" id="Shape" fill="#261EE4"></path>
            <path d="M174.8445,225 L168.6,225 C168.6,193.9345 193.762,168.75 224.8,168.75 L224.8,175 C197.209,175 174.8445,197.3845 174.8445,225 Z M187.3335,225 L181.089,225 C181.089,200.8375 200.659,181.25 224.8,181.25 L224.8,187.5 C204.109,187.5 187.3335,204.2905 187.3335,225 Z M193.578,225 L199.8225,225 C199.8225,211.1935 211.006,200 224.8,200 L224.8,193.75 C207.556,193.75 193.578,207.7405 193.578,225 Z M212.311,225 L206.067,225 C206.067,214.6435 214.453,206.25 224.8,206.25 L224.8,212.5 C217.903,212.5 212.311,218.097 212.311,225 Z M224.8,225 L218.5555,225 C218.5555,221.547 221.35,218.75 224.8,218.75 L224.8,225 Z" id="Shape" fill="#261EE4"></path>
            <path d="M118.7445,337.5 L112.5,337.5 C112.5,306.4345 137.662,281.25 168.7,281.25 L168.7,287.5 C141.109,287.5 118.7445,309.8845 118.7445,337.5 Z M131.2335,337.5 L124.989,337.5 C124.989,313.3375 144.559,293.75 168.7,293.75 L168.7,300 C148.009,300 131.2335,316.7905 131.2335,337.5 Z M137.478,337.5 L143.7225,337.5 C143.7225,323.6935 154.906,312.5 168.7,312.5 L168.7,306.25 C151.456,306.25 137.478,320.2405 137.478,337.5 Z M156.211,337.5 L149.967,337.5 C149.967,327.1435 158.353,318.75 168.7,318.75 L168.7,325 C161.803,325 156.211,330.597 156.211,337.5 Z M168.7,337.5 L162.4555,337.5 C162.4555,334.047 165.25,331.25 168.7,331.25 L168.7,337.5 Z" id="Shape-Copy-2" fill="#FFFFFF" transform="translate(140.600000, 309.375000) scale(-1, 1) translate(-140.600000, -309.375000) "></path>
            <path d="M112.4,281.25 L168.6,281.25 L168.6,225 C137.562,225 112.4,250.1845 112.4,281.25 Z" id="Path" fill="#261EE4" fill-rule="nonzero"></path>
            <path d="M168.6,164.344 L168.6,168.75 L164.1975,168.75 L112.4,116.9065 L112.4,112.5 L116.802,112.5 L168.6,164.344 Z M112.4,125.75 L112.4,134.594 L146.526,168.75 L155.3615,168.75 L112.4,125.75 Z M112.4,152.281 L112.4,143.4375 L137.69,168.75 L128.854,168.75 L112.4,152.281 Z M112.4,168.75 L120.018,168.75 L112.4,161.125 L112.4,168.75 Z M125.638,112.5 L134.474,112.5 L168.6,146.656 L168.6,155.5 L125.638,112.5 Z M152.146,112.5 L143.31,112.5 L168.6,137.8125 L168.6,128.969 L152.146,112.5 Z M168.6,120.125 L160.9815,112.5 L168.6,112.5 L168.6,120.125 Z" id="Shape" fill="#261EE4"></path>
        </g>
        <g id="Group-Copy" transform="translate(1030.000000, 394.000000)">
            <path d="M50.3525,56.5 L56.6,56.5 L56.6,0.25 L50.3525,0.25 L50.3525,56.5 Z M44.111,56.5 L37.8665,56.5 L37.8665,0.25 L44.111,0.25 L44.111,56.5 Z M31.6225,56.5 L25.378,56.5 L25.378,0.25 L31.6225,0.25 L31.6225,56.5 Z M12.889,56.5 L19.1335,56.5 L19.1335,0.25 L12.889,0.25 L12.889,56.5 Z M6.6445,56.5 L0.4,56.5 L0.4,0.25 L6.6445,0.25 L6.6445,56.5 Z" id="Shape" fill="#261EE4"></path>
            <path d="M112.8,119.003 L112.8,112.75 L56.6,112.75 L56.6,119.003 L112.8,119.003 Z M112.8,125.25 L112.8,131.5 L56.6,131.5 L56.6,125.25 L112.8,125.25 Z M112.8,137.75 L112.8,144 L56.6,144 L56.6,137.75 L112.8,137.75 Z M112.8,156.5 L112.8,150.25 L56.6,150.25 L56.6,156.5 L112.8,156.5 Z M112.8,162.75 L112.8,169 L56.6,169 L56.6,162.75 L112.8,162.75 Z" id="Shape" fill="#261EE4"></path>
            <path d="M112.8,162.7469 L112.8,169 L56.6,169 L56.6,162.7469 L112.8,162.7469 Z M112.8,143.99375 L112.8,137.74065 L56.6,137.74065 L56.6,143.99375 L112.8,143.99375 Z M112.8,125.24065 L112.8,131.49375 L56.6,131.49375 L56.6,125.24065 L112.8,125.24065 Z M112.8,112.75 L112.8,119.00315 L56.6,119.00315 L56.6,112.75 L112.8,112.75 Z M112.8,156.49375 L112.8,150.2406 L56.6,150.2406 L56.6,156.49375 L112.8,156.49375 Z" id="Shape" fill="#261EE4"></path>
            <path d="M106.9555,56.5 L113.2,56.5 C113.2,87.5655 88.038,112.75 57,112.75 L57,106.5 C84.591,106.5 106.9555,84.1155 106.9555,56.5 Z M94.4665,56.5 L100.711,56.5 C100.711,80.6625 81.141,100.25 57,100.25 L57,94 C77.691,94 94.4665,77.2095 94.4665,56.5 Z M88.2225,56.5 L81.978,56.5 C81.978,70.306 70.794,81.5 57,81.5 L57,87.75 C74.244,87.75 88.2225,73.7595 88.2225,56.5 Z M69.489,56.5 L75.7335,56.5 C75.7335,66.856 67.347,75.25 57,75.25 L57,69 C63.897,69 69.489,63.403 69.489,56.5 Z M57,56.5 L63.2445,56.5 C63.2445,59.953 60.45,62.75 57,62.75 L57,56.5 Z" id="Shape" fill="#FFFFFF" transform="translate(85.100000, 84.625000) rotate(-180.000000) translate(-85.100000, -84.625000) "></path>
            <path d="M62.8445,225.25 L56.6,225.25 C56.6,194.1845 81.762,169 112.8,169 L112.8,175.25 C85.209,175.25 62.8445,197.6345 62.8445,225.25 Z M75.3335,225.25 L69.089,225.25 C69.089,201.0875 88.659,181.5 112.8,181.5 L112.8,187.75 C92.109,187.75 75.3335,204.5405 75.3335,225.25 Z M81.578,225.25 L87.8225,225.25 C87.8225,211.4435 99.006,200.25 112.8,200.25 L112.8,194 C95.556,194 81.578,207.9905 81.578,225.25 Z M100.311,225.25 L94.067,225.25 C94.067,214.8935 102.453,206.5 112.8,206.5 L112.8,212.75 C105.903,212.75 100.311,218.347 100.311,225.25 Z M112.8,225.25 L106.5555,225.25 C106.5555,221.797 109.35,219 112.8,219 L112.8,225.25 Z" id="Shape" fill="#261EE4"></path>
            <path d="M6.7445,281.5 L0.5,281.5 C0.5,250.4345 25.662,225.25 56.7,225.25 L56.7,231.5 C29.109,231.5 6.7445,253.8845 6.7445,281.5 Z M19.2335,281.5 L12.989,281.5 C12.989,257.3375 32.559,237.75 56.7,237.75 L56.7,244 C36.009,244 19.2335,260.7905 19.2335,281.5 Z M25.478,281.5 L31.7225,281.5 C31.7225,267.6935 42.906,256.5 56.7,256.5 L56.7,250.25 C39.456,250.25 25.478,264.2405 25.478,281.5 Z M44.211,281.5 L37.967,281.5 C37.967,271.1435 46.353,262.75 56.7,262.75 L56.7,269 C49.803,269 44.211,274.597 44.211,281.5 Z M56.7,281.5 L50.4555,281.5 C50.4555,278.047 53.25,275.25 56.7,275.25 L56.7,281.5 Z" id="Shape-Copy-2" fill="#FFFFFF" transform="translate(28.600000, 253.375000) scale(-1, 1) translate(-28.600000, -253.375000) "></path>
            <path d="M112.8,225.25 L112.8,281.5 L169,281.5 C169,250.4345 143.838,225.25 112.8,225.25 Z" id="Path" fill="#261EE4" fill-rule="nonzero" transform="translate(140.900000, 253.375000) rotate(-90.000000) translate(-140.900000, -253.375000) "></path>
            <path d="M169,164.844 L169,169.25 L164.5975,169.25 L112.8,117.4065 L112.8,113 L117.202,113 L169,164.844 Z M112.8,126.25 L112.8,135.094 L146.926,169.25 L155.7615,169.25 L112.8,126.25 Z M112.8,152.781 L112.8,143.9375 L138.09,169.25 L129.254,169.25 L112.8,152.781 Z M112.8,169.25 L120.418,169.25 L112.8,161.625 L112.8,169.25 Z M126.038,113 L134.874,113 L169,147.156 L169,156 L126.038,113 Z M152.546,113 L143.71,113 L169,138.3125 L169,129.469 L152.546,113 Z M169,120.625 L161.3815,113 L169,113 L169,120.625 Z" id="Shape" fill="#261EE4"></path>
        </g>
        <g id="Group-Copy-3" transform="translate(1.000000, 394.000000)">
            <path d="M50.3525,56.5 L56.6,56.5 L56.6,0.25 L50.3525,0.25 L50.3525,56.5 Z M44.111,56.5 L37.8665,56.5 L37.8665,0.25 L44.111,0.25 L44.111,56.5 Z M31.6225,56.5 L25.378,56.5 L25.378,0.25 L31.6225,0.25 L31.6225,56.5 Z M12.889,56.5 L19.1335,56.5 L19.1335,0.25 L12.889,0.25 L12.889,56.5 Z M6.6445,56.5 L0.4,56.5 L0.4,0.25 L6.6445,0.25 L6.6445,56.5 Z" id="Shape" fill="#261EE4"></path>
            <path d="M112.8,119.003 L112.8,112.75 L56.6,112.75 L56.6,119.003 L112.8,119.003 Z M112.8,125.25 L112.8,131.5 L56.6,131.5 L56.6,125.25 L112.8,125.25 Z M112.8,137.75 L112.8,144 L56.6,144 L56.6,137.75 L112.8,137.75 Z M112.8,156.5 L112.8,150.25 L56.6,150.25 L56.6,156.5 L112.8,156.5 Z M112.8,162.75 L112.8,169 L56.6,169 L56.6,162.75 L112.8,162.75 Z" id="Shape" fill="#261EE4"></path>
            <path d="M112.8,162.7469 L112.8,169 L56.6,169 L56.6,162.7469 L112.8,162.7469 Z M112.8,143.99375 L112.8,137.74065 L56.6,137.74065 L56.6,143.99375 L112.8,143.99375 Z M112.8,125.24065 L112.8,131.49375 L56.6,131.49375 L56.6,125.24065 L112.8,125.24065 Z M112.8,112.75 L112.8,119.00315 L56.6,119.00315 L56.6,112.75 L112.8,112.75 Z M112.8,156.49375 L112.8,150.2406 L56.6,150.2406 L56.6,156.49375 L112.8,156.49375 Z" id="Shape" fill="#261EE4"></path>
            <path d="M106.9555,56.5 L113.2,56.5 C113.2,87.5655 88.038,112.75 57,112.75 L57,106.5 C84.591,106.5 106.9555,84.1155 106.9555,56.5 Z M94.4665,56.5 L100.711,56.5 C100.711,80.6625 81.141,100.25 57,100.25 L57,94 C77.691,94 94.4665,77.2095 94.4665,56.5 Z M88.2225,56.5 L81.978,56.5 C81.978,70.306 70.794,81.5 57,81.5 L57,87.75 C74.244,87.75 88.2225,73.7595 88.2225,56.5 Z M69.489,56.5 L75.7335,56.5 C75.7335,66.856 67.347,75.25 57,75.25 L57,69 C63.897,69 69.489,63.403 69.489,56.5 Z M57,56.5 L63.2445,56.5 C63.2445,59.953 60.45,62.75 57,62.75 L57,56.5 Z" id="Shape" fill="#FFFFFF" transform="translate(85.100000, 84.625000) rotate(-180.000000) translate(-85.100000, -84.625000) "></path>
            <path d="M62.8445,225.25 L56.6,225.25 C56.6,194.1845 81.762,169 112.8,169 L112.8,175.25 C85.209,175.25 62.8445,197.6345 62.8445,225.25 Z M75.3335,225.25 L69.089,225.25 C69.089,201.0875 88.659,181.5 112.8,181.5 L112.8,187.75 C92.109,187.75 75.3335,204.5405 75.3335,225.25 Z M81.578,225.25 L87.8225,225.25 C87.8225,211.4435 99.006,200.25 112.8,200.25 L112.8,194 C95.556,194 81.578,207.9905 81.578,225.25 Z M100.311,225.25 L94.067,225.25 C94.067,214.8935 102.453,206.5 112.8,206.5 L112.8,212.75 C105.903,212.75 100.311,218.347 100.311,225.25 Z M112.8,225.25 L106.5555,225.25 C106.5555,221.797 109.35,219 112.8,219 L112.8,225.25 Z" id="Shape" fill="#261EE4"></path>
            <path d="M6.7445,281.5 L0.5,281.5 C0.5,250.4345 25.662,225.25 56.7,225.25 L56.7,231.5 C29.109,231.5 6.7445,253.8845 6.7445,281.5 Z M19.2335,281.5 L12.989,281.5 C12.989,257.3375 32.559,237.75 56.7,237.75 L56.7,244 C36.009,244 19.2335,260.7905 19.2335,281.5 Z M25.478,281.5 L31.7225,281.5 C31.7225,267.6935 42.906,256.5 56.7,256.5 L56.7,250.25 C39.456,250.25 25.478,264.2405 25.478,281.5 Z M44.211,281.5 L37.967,281.5 C37.967,271.1435 46.353,262.75 56.7,262.75 L56.7,269 C49.803,269 44.211,274.597 44.211,281.5 Z M56.7,281.5 L50.4555,281.5 C50.4555,278.047 53.25,275.25 56.7,275.25 L56.7,281.5 Z" id="Shape-Copy-2" fill="#FFFFFF" transform="translate(28.600000, 253.375000) scale(-1, 1) translate(-28.600000, -253.375000) "></path>
            <path d="M112.8,225.25 L112.8,281.5 L169,281.5 C169,250.4345 143.838,225.25 112.8,225.25 Z" id="Path" fill="#261EE4" fill-rule="nonzero" transform="translate(140.900000, 253.375000) rotate(-90.000000) translate(-140.900000, -253.375000) "></path>
            <path d="M169,164.844 L169,169.25 L164.5975,169.25 L112.8,117.4065 L112.8,113 L117.202,113 L169,164.844 Z M112.8,126.25 L112.8,135.094 L146.926,169.25 L155.7615,169.25 L112.8,126.25 Z M112.8,152.781 L112.8,143.9375 L138.09,169.25 L129.254,169.25 L112.8,152.781 Z M112.8,169.25 L120.418,169.25 L112.8,161.625 L112.8,169.25 Z M126.038,113 L134.874,113 L169,147.156 L169,156 L126.038,113 Z M152.546,113 L143.71,113 L169,138.3125 L169,129.469 L152.546,113 Z M169,120.625 L161.3815,113 L169,113 L169,120.625 Z" id="Shape" fill="#261EE4"></path>
        </g>
        <g id="Group-2" transform="translate(337.000000, 236.000000)" fill="#FFFFFF" line-spacing="100">
            <text id="Acropolis" font-family="Inter-Bold, Inter" font-size="111.111111" font-weight="bold">
                <tspan x="0" y="107">Acropolis</tspan>
            </text>
            <text id="Network-Announced" font-family="Inter-Regular, Inter" font-size="44.4444444" font-weight="normal">
                <tspan x="1.17550505" y="158">NETWORK ANNOUNCED</tspan>
            </text>
        </g>
    </g>
</svg>