<svg xmlns="http://www.w3.org/2000/svg" width="1200" height="675" viewBox="0 0 1200 675">
  <g fill="none" fill-rule="evenodd">
    <path fill="#4038FF" d="M0 0H1200V675H0z"/>
    <g transform="matrix(1 0 0 -1 918 338)">
      <path fill="#261EE4" fill-rule="nonzero" d="M231.048 225L224.8 225 224.8 231.253 231.048 231.253zM237.295 231.253L231.048 231.253 231.048 237.506 237.295 237.506zM243.527 225L237.28 225 237.28 231.253 243.527 231.253zM231.048 237.49L224.8 237.49 224.8 243.744 231.048 243.744z"/>
      <path fill="#261EE4" fill-rule="nonzero" d="M243.527 237.49L237.28 237.49 237.28 243.744 243.527 243.744zM249.774 231.253L243.527 231.253 243.527 237.506 249.774 237.506zM237.295 243.744L231.048 243.744 231.048 249.997 237.295 249.997zM231.048 249.997L224.8 249.997 224.8 256.25 231.048 256.25zM243.527 249.997L237.28 249.997 237.28 256.25 243.527 256.25zM249.774 243.744L243.527 243.744 243.527 249.997 249.774 249.997zM237.295 256.253L231.048 256.253 231.048 262.507 237.295 262.507zM231.048 262.49L224.8 262.49 224.8 268.743 231.048 268.743z"/>
      <path fill="#261EE4" fill-rule="nonzero" d="M243.527 262.49L237.28 262.49 237.28 268.743 243.527 268.743zM249.774 256.253L243.527 256.253 243.527 262.507 249.774 262.507zM237.295 268.743L231.048 268.743 231.048 274.997 237.295 274.997zM231.048 274.997L224.8 274.997 224.8 281.25 231.048 281.25zM243.527 274.997L237.28 274.997 237.28 281.25 243.527 281.25zM249.774 268.743L243.527 268.743 243.527 274.997 249.774 274.997zM256.026 225L249.778 225 249.778 231.253 256.026 231.253zM262.273 231.253L256.026 231.253 256.026 237.506 262.273 237.506zM268.505 225L262.257 225 262.257 231.253 268.505 231.253zM256.026 237.49L249.778 237.49 249.778 243.744 256.026 243.744z"/>
      <path fill="#261EE4" fill-rule="nonzero" d="M268.505 237.49L262.257 237.49 262.257 243.744 268.505 243.744zM274.752 231.253L268.505 231.253 268.505 237.506 274.752 237.506zM262.273 243.744L256.026 243.744 256.026 249.997 262.273 249.997zM256.026 249.997L249.778 249.997 249.778 256.25 256.026 256.25zM268.505 249.997L262.257 249.997 262.257 256.25 268.505 256.25zM274.752 243.744L268.505 243.744 268.505 249.997 274.752 249.997zM262.273 256.253L256.026 256.253 256.026 262.507 262.273 262.507zM256.026 262.49L249.778 262.49 249.778 268.743 256.026 268.743z"/>
      <path fill="#261EE4" fill-rule="nonzero" d="M268.505 262.49L262.257 262.49 262.257 268.743 268.505 268.743zM274.752 256.253L268.505 256.253 268.505 262.507 274.752 262.507zM262.273 268.743L256.026 268.743 256.026 274.997 262.273 274.997zM256.026 274.997L249.778 274.997 249.778 281.25 256.026 281.25zM268.505 274.997L262.257 274.997 262.257 281.25 268.505 281.25zM281 225L274.752 225 274.752 231.253 281 231.253zM281 237.49L274.752 237.49 274.752 243.744 281 243.744zM281 249.997L274.752 249.997 274.752 256.25 281 256.25zM281 262.49L274.752 262.49 274.752 268.743 281 268.743zM281 274.997L274.752 274.997 274.752 281.25 281 281.25zM274.752 268.743L268.505 268.743 268.505 274.997 274.752 274.997z"/>
      <path fill="#261EE4" d="M212.305 131.2595L206.073 131.2595 206.073 137.497 212.305 137.497 212.305 143.75 206.073 143.75 206.073 150.003 212.305 150.003 212.305 156.2405 218.5525 156.2405 218.5525 162.4935 212.305 162.4935 212.305 156.256 206.073 156.256 206.073 162.4935 212.305 162.4935 212.305 168.75 206.0575 168.75 206.0575 162.497 199.8255 162.497 199.8255 156.2595 193.578 156.2595 193.578 162.497 187.3305 162.497 187.3305 156.2595 181.0985 156.2595 181.0985 162.497 187.3305 162.497 187.3305 168.75 181.0825 168.75 181.0825 162.497 174.851 162.497 174.851 168.75 168.6 168.75 168.6 162.497 174.8475 162.497 174.8475 156.2595 168.6 156.2595 168.6 150.006 174.8475 150.006 174.8475 143.753 168.6 143.753 168.6 137.5 174.8475 137.5 174.8475 131.2625 174.8475 131.247 181.0795 131.247 181.0795 125.0095 187.327 125.0095 187.327 131.247 193.5745 131.247 193.5745 125.0095 199.8225 125.0095 199.8225 131.247 206.0545 131.247 206.0545 125.0095 212.302 125.0095 212.302 131.247 218.5495 131.247 218.5495 137.5 212.302 137.5 212.302 131.2595 212.305 131.2595zM174.8475 131.244L174.8475 125.006 168.6 125.006 168.6 131.2595 174.8475 131.2595 174.8475 131.244zM193.5745 162.497L193.5745 168.75 199.8225 168.75 199.8225 162.497 193.5745 162.497zM212.305 150.006L212.305 143.753 218.5525 143.753 218.5525 150.006 212.305 150.006zM181.0795 156.244L174.8475 156.244 174.8475 150.006 181.0795 150.006 181.0795 156.244zM181.095 125.006L181.095 118.753 187.327 118.753 187.327 125.006 193.5745 125.006 193.5745 118.753 199.8225 118.753 199.8225 125.006 206.07 125.006 206.07 118.753 212.302 118.753 212.302 125.006 218.5495 125.006 218.5495 118.753 212.302 118.753 212.302 112.5 206.0545 112.5 206.0545 118.753 199.8225 118.753 199.8225 112.5 193.5745 112.5 193.5745 118.753 187.327 118.753 187.327 112.5 181.0795 112.5 181.0795 118.753 174.8475 118.753 174.8475 112.5 168.6 112.5 168.6 118.753 174.8475 118.753 174.8475 125.006 181.095 125.006zM206.0545 137.497L206.0545 143.75 199.8225 143.75 199.8225 137.497 206.0545 137.497zM193.5745 137.497L193.5745 131.2595 199.8225 131.2595 199.8225 137.497 193.5745 137.497zM187.327 137.497L193.5745 137.497 193.5745 143.75 187.327 143.75 187.327 137.497zM187.327 137.497L181.095 137.497 181.095 131.2595 187.327 131.2595 187.327 137.497zM187.327 150.006L181.095 150.006 181.095 143.753 187.327 143.753 187.327 150.006zM193.5745 150.006L193.5745 156.244 187.327 156.244 187.327 150.006 193.5745 150.006zM199.8255 150.006L193.578 150.006 193.578 143.753 199.8255 143.753 199.8255 150.006zM199.8255 150.006L206.0575 150.006 206.0575 156.244 199.8255 156.244 199.8255 150.006zM181.0795 143.753L181.0795 137.5 174.8475 137.5 174.8475 143.753 181.0795 143.753zM224.8 162.497L218.5525 162.497 218.5525 168.75 224.8 168.75 224.8 162.497zM218.5525 150.006L224.8 150.006 224.8 156.2595 218.5525 156.2595 218.5525 150.006zM224.8 137.497L218.5525 137.497 218.5525 143.75 224.8 143.75 224.8 137.497zM218.5525 125.006L224.8 125.006 224.8 131.2595 218.5525 131.2595 218.5525 125.006zM218.5525 112.5L224.8 112.5 224.8 118.753 218.5525 118.753 218.5525 112.5zM274.7525 112.5L281 112.5 281 56.25 274.7525 56.25 274.7525 112.5zM268.511 112.5L262.2665 112.5 262.2665 56.25 268.511 56.25 268.511 112.5zM256.0225 112.5L249.778 112.5 249.778 56.25 256.0225 56.25 256.0225 112.5zM237.289 112.5L243.5335 112.5 243.5335 56.25 237.289 56.25 237.289 112.5zM231.0445 112.5L224.8 112.5 224.8 56.25 231.0445 56.25 231.0445 112.5zM224.8 231.253L224.8 225 168.6 225 168.6 231.253 224.8 231.253zM224.8 237.5L224.8 243.75 168.6 243.75 168.6 237.5 224.8 237.5zM224.8 250L224.8 256.25 168.6 256.25 168.6 250 224.8 250zM224.8 268.75L224.8 262.5 168.6 262.5 168.6 268.75 224.8 268.75zM224.8 275L224.8 281.25 168.6 281.25 168.6 275 224.8 275zM224.8 49.9969L224.8 56.25 168.6 56.25 168.6 49.9969 224.8 49.9969zM224.8 31.24375L224.8 24.99065 168.6 24.99065 168.6 31.24375 224.8 31.24375zM224.8 12.49065L224.8 18.74375 168.6 18.74375 168.6 12.49065 224.8 12.49065zM224.8 0L224.8 6.25315 168.6 6.25315 168.6 0 224.8 0zM224.8 43.74375L224.8 37.4906 168.6 37.4906 168.6 43.74375 224.8 43.74375z"/>
      <path fill="#FFF" d="M274.7555,168.75 L281,168.75 C281,199.8155 255.838,225 224.8,225 L224.8,218.75 C252.391,218.75 274.7555,196.3655 274.7555,168.75 Z M262.2665,168.75 L268.511,168.75 C268.511,192.9125 248.941,212.5 224.8,212.5 L224.8,206.25 C245.491,206.25 262.2665,189.4595 262.2665,168.75 Z M256.0225,168.75 L249.778,168.75 C249.778,182.556 238.594,193.75 224.8,193.75 L224.8,200 C242.044,200 256.0225,186.0095 256.0225,168.75 Z M237.289,168.75 L243.5335,168.75 C243.5335,179.106 235.147,187.5 224.8,187.5 L224.8,181.25 C231.697,181.25 237.289,175.653 237.289,168.75 Z M224.8,168.75 L231.0445,168.75 C231.0445,172.203 228.25,175 224.8,175 L224.8,168.75 Z"/>
      <path fill="#261EE4" d="M174.8445,225 L168.6,225 C168.6,193.9345 193.762,168.75 224.8,168.75 L224.8,175 C197.209,175 174.8445,197.3845 174.8445,225 Z M187.3335,225 L181.089,225 C181.089,200.8375 200.659,181.25 224.8,181.25 L224.8,187.5 C204.109,187.5 187.3335,204.2905 187.3335,225 Z M193.578,225 L199.8225,225 C199.8225,211.1935 211.006,200 224.8,200 L224.8,193.75 C207.556,193.75 193.578,207.7405 193.578,225 Z M212.311,225 L206.067,225 C206.067,214.6435 214.453,206.25 224.8,206.25 L224.8,212.5 C217.903,212.5 212.311,218.097 212.311,225 Z M224.8,225 L218.5555,225 C218.5555,221.547 221.35,218.75 224.8,218.75 L224.8,225 Z"/>
      <path fill="#FFF" d="M118.7445,337.5 L112.5,337.5 C112.5,306.4345 137.662,281.25 168.7,281.25 L168.7,287.5 C141.109,287.5 118.7445,309.8845 118.7445,337.5 Z M131.2335,337.5 L124.989,337.5 C124.989,313.3375 144.559,293.75 168.7,293.75 L168.7,300 C148.009,300 131.2335,316.7905 131.2335,337.5 Z M137.478,337.5 L143.7225,337.5 C143.7225,323.6935 154.906,312.5 168.7,312.5 L168.7,306.25 C151.456,306.25 137.478,320.2405 137.478,337.5 Z M156.211,337.5 L149.967,337.5 C149.967,327.1435 158.353,318.75 168.7,318.75 L168.7,325 C161.803,325 156.211,330.597 156.211,337.5 Z M168.7,337.5 L162.4555,337.5 C162.4555,334.047 165.25,331.25 168.7,331.25 L168.7,337.5 Z" transform="matrix(-1 0 0 1 281.2 0)"/>
      <path fill="#261EE4" fill-rule="nonzero" d="M224.8,281.25 L224.8,337.5 L281,337.5 C281,306.4345 255.838,281.25 224.8,281.25 Z" transform="rotate(90 252.9 309.375)"/>
      <path fill="#261EE4" fill-rule="nonzero" d="M0 337.5L56.2 337.5 56.2 281.25C25.162 281.25 0 306.4345 0 337.5zM112.4 281.25L168.6 281.25 168.6 225C137.562 225 112.4 250.1845 112.4 281.25z"/>
      <path fill="#261EE4" d="M168.6,164.344 L168.6,168.75 L164.1975,168.75 L112.4,116.9065 L112.4,112.5 L116.802,112.5 L168.6,164.344 Z M112.4,125.75 L112.4,134.594 L146.526,168.75 L155.3615,168.75 L112.4,125.75 Z M112.4,152.281 L112.4,143.4375 L137.69,168.75 L128.854,168.75 L112.4,152.281 Z M112.4,168.75 L120.018,168.75 L112.4,161.125 L112.4,168.75 Z M125.638,112.5 L134.474,112.5 L168.6,146.656 L168.6,155.5 L125.638,112.5 Z M152.146,112.5 L143.31,112.5 L168.6,137.8125 L168.6,128.969 L152.146,112.5 Z M168.6,120.125 L160.9815,112.5 L168.6,112.5 L168.6,120.125 Z"/>
    </g>
    <g transform="matrix(1 0 0 -1 -111 338)">
      <path fill="#261EE4" fill-rule="nonzero" d="M231.048 225L224.8 225 224.8 231.253 231.048 231.253zM237.295 231.253L231.048 231.253 231.048 237.506 237.295 237.506zM243.527 225L237.28 225 237.28 231.253 243.527 231.253zM231.048 237.49L224.8 237.49 224.8 243.744 231.048 243.744z"/>
      <path fill="#261EE4" fill-rule="nonzero" d="M243.527 237.49L237.28 237.49 237.28 243.744 243.527 243.744zM249.774 231.253L243.527 231.253 243.527 237.506 249.774 237.506zM237.295 243.744L231.048 243.744 231.048 249.997 237.295 249.997zM231.048 249.997L224.8 249.997 224.8 256.25 231.048 256.25zM243.527 249.997L237.28 249.997 237.28 256.25 243.527 256.25zM249.774 243.744L243.527 243.744 243.527 249.997 249.774 249.997zM237.295 256.253L231.048 256.253 231.048 262.507 237.295 262.507zM231.048 262.49L224.8 262.49 224.8 268.743 231.048 268.743z"/>
      <path fill="#261EE4" fill-rule="nonzero" d="M243.527 262.49L237.28 262.49 237.28 268.743 243.527 268.743zM249.774 256.253L243.527 256.253 243.527 262.507 249.774 262.507zM237.295 268.743L231.048 268.743 231.048 274.997 237.295 274.997zM231.048 274.997L224.8 274.997 224.8 281.25 231.048 281.25zM243.527 274.997L237.28 274.997 237.28 281.25 243.527 281.25zM249.774 268.743L243.527 268.743 243.527 274.997 249.774 274.997zM256.026 225L249.778 225 249.778 231.253 256.026 231.253zM262.273 231.253L256.026 231.253 256.026 237.506 262.273 237.506zM268.505 225L262.257 225 262.257 231.253 268.505 231.253zM256.026 237.49L249.778 237.49 249.778 243.744 256.026 243.744z"/>
      <path fill="#261EE4" fill-rule="nonzero" d="M268.505 237.49L262.257 237.49 262.257 243.744 268.505 243.744zM274.752 231.253L268.505 231.253 268.505 237.506 274.752 237.506zM262.273 243.744L256.026 243.744 256.026 249.997 262.273 249.997zM256.026 249.997L249.778 249.997 249.778 256.25 256.026 256.25zM268.505 249.997L262.257 249.997 262.257 256.25 268.505 256.25zM274.752 243.744L268.505 243.744 268.505 249.997 274.752 249.997zM262.273 256.253L256.026 256.253 256.026 262.507 262.273 262.507zM256.026 262.49L249.778 262.49 249.778 268.743 256.026 268.743z"/>
      <path fill="#261EE4" fill-rule="nonzero" d="M268.505 262.49L262.257 262.49 262.257 268.743 268.505 268.743zM274.752 256.253L268.505 256.253 268.505 262.507 274.752 262.507zM262.273 268.743L256.026 268.743 256.026 274.997 262.273 274.997zM256.026 274.997L249.778 274.997 249.778 281.25 256.026 281.25zM268.505 274.997L262.257 274.997 262.257 281.25 268.505 281.25zM281 225L274.752 225 274.752 231.253 281 231.253zM281 237.49L274.752 237.49 274.752 243.744 281 243.744zM281 249.997L274.752 249.997 274.752 256.25 281 256.25zM281 262.49L274.752 262.49 274.752 268.743 281 268.743zM281 274.997L274.752 274.997 274.752 281.25 281 281.25zM274.752 268.743L268.505 268.743 268.505 274.997 274.752 274.997z"/>
      <path fill="#261EE4" d="M212.305 131.2595L206.073 131.2595 206.073 137.497 212.305 137.497 212.305 143.75 206.073 143.75 206.073 150.003 212.305 150.003 212.305 156.2405 218.5525 156.2405 218.5525 162.4935 212.305 162.4935 212.305 156.256 206.073 156.256 206.073 162.4935 212.305 162.4935 212.305 168.75 206.0575 168.75 206.0575 162.497 199.8255 162.497 199.8255 156.2595 193.578 156.2595 193.578 162.497 187.3305 162.497 187.3305 156.2595 181.0985 156.2595 181.0985 162.497 187.3305 162.497 187.3305 168.75 181.0825 168.75 181.0825 162.497 174.851 162.497 174.851 168.75 168.6 168.75 168.6 162.497 174.8475 162.497 174.8475 156.2595 168.6 156.2595 168.6 150.006 174.8475 150.006 174.8475 143.753 168.6 143.753 168.6 137.5 174.8475 137.5 174.8475 131.2625 174.8475 131.247 181.0795 131.247 181.0795 125.0095 187.327 125.0095 187.327 131.247 193.5745 131.247 193.5745 125.0095 199.8225 125.0095 199.8225 131.247 206.0545 131.247 206.0545 125.0095 212.302 125.0095 212.302 131.247 218.5495 131.247 218.5495 137.5 212.302 137.5 212.302 131.2595 212.305 131.2595zM174.8475 131.244L174.8475 125.006 168.6 125.006 168.6 131.2595 174.8475 131.2595 174.8475 131.244zM193.5745 162.497L193.5745 168.75 199.8225 168.75 199.8225 162.497 193.5745 162.497zM212.305 150.006L212.305 143.753 218.5525 143.753 218.5525 150.006 212.305 150.006zM181.0795 156.244L174.8475 156.244 174.8475 150.006 181.0795 150.006 181.0795 156.244zM181.095 125.006L181.095 118.753 187.327 118.753 187.327 125.006 193.5745 125.006 193.5745 118.753 199.8225 118.753 199.8225 125.006 206.07 125.006 206.07 118.753 212.302 118.753 212.302 125.006 218.5495 125.006 218.5495 118.753 212.302 118.753 212.302 112.5 206.0545 112.5 206.0545 118.753 199.8225 118.753 199.8225 112.5 193.5745 112.5 193.5745 118.753 187.327 118.753 187.327 112.5 181.0795 112.5 181.0795 118.753 174.8475 118.753 174.8475 112.5 168.6 112.5 168.6 118.753 174.8475 118.753 174.8475 125.006 181.095 125.006zM206.0545 137.497L206.0545 143.75 199.8225 143.75 199.8225 137.497 206.0545 137.497zM193.5745 137.497L193.5745 131.2595 199.8225 131.2595 199.8225 137.497 193.5745 137.497zM187.327 137.497L193.5745 137.497 193.5745 143.75 187.327 143.75 187.327 137.497zM187.327 137.497L181.095 137.497 181.095 131.2595 187.327 131.2595 187.327 137.497zM187.327 150.006L181.095 150.006 181.095 143.753 187.327 143.753 187.327 150.006zM193.5745 150.006L193.5745 156.244 187.327 156.244 187.327 150.006 193.5745 150.006zM199.8255 150.006L193.578 150.006 193.578 143.753 199.8255 143.753 199.8255 150.006zM199.8255 150.006L206.0575 150.006 206.0575 156.244 199.8255 156.244 199.8255 150.006zM181.0795 143.753L181.0795 137.5 174.8475 137.5 174.8475 143.753 181.0795 143.753zM224.8 162.497L218.5525 162.497 218.5525 168.75 224.8 168.75 224.8 162.497zM218.5525 150.006L224.8 150.006 224.8 156.2595 218.5525 156.2595 218.5525 150.006zM224.8 137.497L218.5525 137.497 218.5525 143.75 224.8 143.75 224.8 137.497zM218.5525 125.006L224.8 125.006 224.8 131.2595 218.5525 131.2595 218.5525 125.006zM218.5525 112.5L224.8 112.5 224.8 118.753 218.5525 118.753 218.5525 112.5zM274.7525 112.5L281 112.5 281 56.25 274.7525 56.25 274.7525 112.5zM268.511 112.5L262.2665 112.5 262.2665 56.25 268.511 56.25 268.511 112.5zM256.0225 112.5L249.778 112.5 249.778 56.25 256.0225 56.25 256.0225 112.5zM237.289 112.5L243.5335 112.5 243.5335 56.25 237.289 56.25 237.289 112.5zM231.0445 112.5L224.8 112.5 224.8 56.25 231.0445 56.25 231.0445 112.5zM224.8 231.253L224.8 225 168.6 225 168.6 231.253 224.8 231.253zM224.8 237.5L224.8 243.75 168.6 243.75 168.6 237.5 224.8 237.5zM224.8 250L224.8 256.25 168.6 256.25 168.6 250 224.8 250zM224.8 268.75L224.8 262.5 168.6 262.5 168.6 268.75 224.8 268.75zM224.8 275L224.8 281.25 168.6 281.25 168.6 275 224.8 275zM224.8 49.9969L224.8 56.25 168.6 56.25 168.6 49.9969 224.8 49.9969zM224.8 31.24375L224.8 24.99065 168.6 24.99065 168.6 31.24375 224.8 31.24375zM224.8 12.49065L224.8 18.74375 168.6 18.74375 168.6 12.49065 224.8 12.49065zM224.8 0L224.8 6.25315 168.6 6.25315 168.6 0 224.8 0zM224.8 43.74375L224.8 37.4906 168.6 37.4906 168.6 43.74375 224.8 43.74375zM174.8445 225L168.6 225C168.6 193.9345 193.762 168.75 224.8 168.75L224.8 175C197.209 175 174.8445 197.3845 174.8445 225zM187.3335 225L181.089 225C181.089 200.8375 200.659 181.25 224.8 181.25L224.8 187.5C204.109 187.5 187.3335 204.2905 187.3335 225zM193.578 225L199.8225 225C199.8225 211.1935 211.006 200 224.8 200L224.8 193.75C207.556 193.75 193.578 207.7405 193.578 225zM212.311 225L206.067 225C206.067 214.6435 214.453 206.25 224.8 206.25L224.8 212.5C217.903 212.5 212.311 218.097 212.311 225zM224.8 225L218.5555 225C218.5555 221.547 221.35 218.75 224.8 218.75L224.8 225z"/>
      <path fill="#FFF" d="M118.7445,337.5 L112.5,337.5 C112.5,306.4345 137.662,281.25 168.7,281.25 L168.7,287.5 C141.109,287.5 118.7445,309.8845 118.7445,337.5 Z M131.2335,337.5 L124.989,337.5 C124.989,313.3375 144.559,293.75 168.7,293.75 L168.7,300 C148.009,300 131.2335,316.7905 131.2335,337.5 Z M137.478,337.5 L143.7225,337.5 C143.7225,323.6935 154.906,312.5 168.7,312.5 L168.7,306.25 C151.456,306.25 137.478,320.2405 137.478,337.5 Z M156.211,337.5 L149.967,337.5 C149.967,327.1435 158.353,318.75 168.7,318.75 L168.7,325 C161.803,325 156.211,330.597 156.211,337.5 Z M168.7,337.5 L162.4555,337.5 C162.4555,334.047 165.25,331.25 168.7,331.25 L168.7,337.5 Z" transform="matrix(-1 0 0 1 281.2 0)"/>
      <path fill="#261EE4" fill-rule="nonzero" d="M112.4,281.25 L168.6,281.25 L168.6,225 C137.562,225 112.4,250.1845 112.4,281.25 Z"/>
      <path fill="#261EE4" d="M168.6,164.344 L168.6,168.75 L164.1975,168.75 L112.4,116.9065 L112.4,112.5 L116.802,112.5 L168.6,164.344 Z M112.4,125.75 L112.4,134.594 L146.526,168.75 L155.3615,168.75 L112.4,125.75 Z M112.4,152.281 L112.4,143.4375 L137.69,168.75 L128.854,168.75 L112.4,152.281 Z M112.4,168.75 L120.018,168.75 L112.4,161.125 L112.4,168.75 Z M125.638,112.5 L134.474,112.5 L168.6,146.656 L168.6,155.5 L125.638,112.5 Z M152.146,112.5 L143.31,112.5 L168.6,137.8125 L168.6,128.969 L152.146,112.5 Z M168.6,120.125 L160.9815,112.5 L168.6,112.5 L168.6,120.125 Z"/>
    </g>
    <g transform="translate(1030 394)">
      <path fill="#261EE4" d="M50.3525 56.5L56.6 56.5 56.6.25 50.3525.25 50.3525 56.5zM44.111 56.5L37.8665 56.5 37.8665.25 44.111.25 44.111 56.5zM31.6225 56.5L25.378 56.5 25.378.25 31.6225.25 31.6225 56.5zM12.889 56.5L19.1335 56.5 19.1335.25 12.889.25 12.889 56.5zM6.6445 56.5L.4 56.5.4.25 6.6445.25 6.6445 56.5zM112.8 119.003L112.8 112.75 56.6 112.75 56.6 119.003 112.8 119.003zM112.8 125.25L112.8 131.5 56.6 131.5 56.6 125.25 112.8 125.25zM112.8 137.75L112.8 144 56.6 144 56.6 137.75 112.8 137.75zM112.8 156.5L112.8 150.25 56.6 150.25 56.6 156.5 112.8 156.5zM112.8 162.75L112.8 169 56.6 169 56.6 162.75 112.8 162.75z"/>
      <path fill="#261EE4" d="M112.8,162.7469 L112.8,169 L56.6,169 L56.6,162.7469 L112.8,162.7469 Z M112.8,143.99375 L112.8,137.74065 L56.6,137.74065 L56.6,143.99375 L112.8,143.99375 Z M112.8,125.24065 L112.8,131.49375 L56.6,131.49375 L56.6,125.24065 L112.8,125.24065 Z M112.8,112.75 L112.8,119.00315 L56.6,119.00315 L56.6,112.75 L112.8,112.75 Z M112.8,156.49375 L112.8,150.2406 L56.6,150.2406 L56.6,156.49375 L112.8,156.49375 Z"/>
      <path fill="#FFF" d="M106.9555,56.5 L113.2,56.5 C113.2,87.5655 88.038,112.75 57,112.75 L57,106.5 C84.591,106.5 106.9555,84.1155 106.9555,56.5 Z M94.4665,56.5 L100.711,56.5 C100.711,80.6625 81.141,100.25 57,100.25 L57,94 C77.691,94 94.4665,77.2095 94.4665,56.5 Z M88.2225,56.5 L81.978,56.5 C81.978,70.306 70.794,81.5 57,81.5 L57,87.75 C74.244,87.75 88.2225,73.7595 88.2225,56.5 Z M69.489,56.5 L75.7335,56.5 C75.7335,66.856 67.347,75.25 57,75.25 L57,69 C63.897,69 69.489,63.403 69.489,56.5 Z M57,56.5 L63.2445,56.5 C63.2445,59.953 60.45,62.75 57,62.75 L57,56.5 Z" transform="rotate(-180 85.1 84.625)"/>
      <path fill="#261EE4" d="M62.8445,225.25 L56.6,225.25 C56.6,194.1845 81.762,169 112.8,169 L112.8,175.25 C85.209,175.25 62.8445,197.6345 62.8445,225.25 Z M75.3335,225.25 L69.089,225.25 C69.089,201.0875 88.659,181.5 112.8,181.5 L112.8,187.75 C92.109,187.75 75.3335,204.5405 75.3335,225.25 Z M81.578,225.25 L87.8225,225.25 C87.8225,211.4435 99.006,200.25 112.8,200.25 L112.8,194 C95.556,194 81.578,207.9905 81.578,225.25 Z M100.311,225.25 L94.067,225.25 C94.067,214.8935 102.453,206.5 112.8,206.5 L112.8,212.75 C105.903,212.75 100.311,218.347 100.311,225.25 Z M112.8,225.25 L106.5555,225.25 C106.5555,221.797 109.35,219 112.8,219 L112.8,225.25 Z"/>
      <path fill="#FFF" d="M6.7445,281.5 L0.5,281.5 C0.5,250.4345 25.662,225.25 56.7,225.25 L56.7,231.5 C29.109,231.5 6.7445,253.8845 6.7445,281.5 Z M19.2335,281.5 L12.989,281.5 C12.989,257.3375 32.559,237.75 56.7,237.75 L56.7,244 C36.009,244 19.2335,260.7905 19.2335,281.5 Z M25.478,281.5 L31.7225,281.5 C31.7225,267.6935 42.906,256.5 56.7,256.5 L56.7,250.25 C39.456,250.25 25.478,264.2405 25.478,281.5 Z M44.211,281.5 L37.967,281.5 C37.967,271.1435 46.353,262.75 56.7,262.75 L56.7,269 C49.803,269 44.211,274.597 44.211,281.5 Z M56.7,281.5 L50.4555,281.5 C50.4555,278.047 53.25,275.25 56.7,275.25 L56.7,281.5 Z" transform="matrix(-1 0 0 1 57.2 0)"/>
      <path fill="#261EE4" fill-rule="nonzero" d="M112.8,225.25 L112.8,281.5 L169,281.5 C169,250.4345 143.838,225.25 112.8,225.25 Z" transform="rotate(-90 140.9 253.375)"/>
      <path fill="#261EE4" d="M169,164.844 L169,169.25 L164.5975,169.25 L112.8,117.4065 L112.8,113 L117.202,113 L169,164.844 Z M112.8,126.25 L112.8,135.094 L146.926,169.25 L155.7615,169.25 L112.8,126.25 Z M112.8,152.781 L112.8,143.9375 L138.09,169.25 L129.254,169.25 L112.8,152.781 Z M112.8,169.25 L120.418,169.25 L112.8,161.625 L112.8,169.25 Z M126.038,113 L134.874,113 L169,147.156 L169,156 L126.038,113 Z M152.546,113 L143.71,113 L169,138.3125 L169,129.469 L152.546,113 Z M169,120.625 L161.3815,113 L169,113 L169,120.625 Z"/>
    </g>
    <g transform="translate(1 394)">
      <path fill="#261EE4" d="M50.3525 56.5L56.6 56.5 56.6.25 50.3525.25 50.3525 56.5zM44.111 56.5L37.8665 56.5 37.8665.25 44.111.25 44.111 56.5zM31.6225 56.5L25.378 56.5 25.378.25 31.6225.25 31.6225 56.5zM12.889 56.5L19.1335 56.5 19.1335.25 12.889.25 12.889 56.5zM6.6445 56.5L.4 56.5.4.25 6.6445.25 6.6445 56.5zM112.8 119.003L112.8 112.75 56.6 112.75 56.6 119.003 112.8 119.003zM112.8 125.25L112.8 131.5 56.6 131.5 56.6 125.25 112.8 125.25zM112.8 137.75L112.8 144 56.6 144 56.6 137.75 112.8 137.75zM112.8 156.5L112.8 150.25 56.6 150.25 56.6 156.5 112.8 156.5zM112.8 162.75L112.8 169 56.6 169 56.6 162.75 112.8 162.75z"/>
      <path fill="#261EE4" d="M112.8,162.7469 L112.8,169 L56.6,169 L56.6,162.7469 L112.8,162.7469 Z M112.8,143.99375 L112.8,137.74065 L56.6,137.74065 L56.6,143.99375 L112.8,143.99375 Z M112.8,125.24065 L112.8,131.49375 L56.6,131.49375 L56.6,125.24065 L112.8,125.24065 Z M112.8,112.75 L112.8,119.00315 L56.6,119.00315 L56.6,112.75 L112.8,112.75 Z M112.8,156.49375 L112.8,150.2406 L56.6,150.2406 L56.6,156.49375 L112.8,156.49375 Z"/>
      <path fill="#FFF" d="M106.9555,56.5 L113.2,56.5 C113.2,87.5655 88.038,112.75 57,112.75 L57,106.5 C84.591,106.5 106.9555,84.1155 106.9555,56.5 Z M94.4665,56.5 L100.711,56.5 C100.711,80.6625 81.141,100.25 57,100.25 L57,94 C77.691,94 94.4665,77.2095 94.4665,56.5 Z M88.2225,56.5 L81.978,56.5 C81.978,70.306 70.794,81.5 57,81.5 L57,87.75 C74.244,87.75 88.2225,73.7595 88.2225,56.5 Z M69.489,56.5 L75.7335,56.5 C75.7335,66.856 67.347,75.25 57,75.25 L57,69 C63.897,69 69.489,63.403 69.489,56.5 Z M57,56.5 L63.2445,56.5 C63.2445,59.953 60.45,62.75 57,62.75 L57,56.5 Z" transform="rotate(-180 85.1 84.625)"/>
      <path fill="#261EE4" d="M62.8445,225.25 L56.6,225.25 C56.6,194.1845 81.762,169 112.8,169 L112.8,175.25 C85.209,175.25 62.8445,197.6345 62.8445,225.25 Z M75.3335,225.25 L69.089,225.25 C69.089,201.0875 88.659,181.5 112.8,181.5 L112.8,187.75 C92.109,187.75 75.3335,204.5405 75.3335,225.25 Z M81.578,225.25 L87.8225,225.25 C87.8225,211.4435 99.006,200.25 112.8,200.25 L112.8,194 C95.556,194 81.578,207.9905 81.578,225.25 Z M100.311,225.25 L94.067,225.25 C94.067,214.8935 102.453,206.5 112.8,206.5 L112.8,212.75 C105.903,212.75 100.311,218.347 100.311,225.25 Z M112.8,225.25 L106.5555,225.25 C106.5555,221.797 109.35,219 112.8,219 L112.8,225.25 Z"/>
      <path fill="#FFF" d="M6.7445,281.5 L0.5,281.5 C0.5,250.4345 25.662,225.25 56.7,225.25 L56.7,231.5 C29.109,231.5 6.7445,253.8845 6.7445,281.5 Z M19.2335,281.5 L12.989,281.5 C12.989,257.3375 32.559,237.75 56.7,237.75 L56.7,244 C36.009,244 19.2335,260.7905 19.2335,281.5 Z M25.478,281.5 L31.7225,281.5 C31.7225,267.6935 42.906,256.5 56.7,256.5 L56.7,250.25 C39.456,250.25 25.478,264.2405 25.478,281.5 Z M44.211,281.5 L37.967,281.5 C37.967,271.1435 46.353,262.75 56.7,262.75 L56.7,269 C49.803,269 44.211,274.597 44.211,281.5 Z M56.7,281.5 L50.4555,281.5 C50.4555,278.047 53.25,275.25 56.7,275.25 L56.7,281.5 Z" transform="matrix(-1 0 0 1 57.2 0)"/>
      <path fill="#261EE4" fill-rule="nonzero" d="M112.8,225.25 L112.8,281.5 L169,281.5 C169,250.4345 143.838,225.25 112.8,225.25 Z" transform="rotate(-90 140.9 253.375)"/>
      <path fill="#261EE4" d="M169,164.844 L169,169.25 L164.5975,169.25 L112.8,117.4065 L112.8,113 L117.202,113 L169,164.844 Z M112.8,126.25 L112.8,135.094 L146.926,169.25 L155.7615,169.25 L112.8,126.25 Z M112.8,152.781 L112.8,143.9375 L138.09,169.25 L129.254,169.25 L112.8,152.781 Z M112.8,169.25 L120.418,169.25 L112.8,161.625 L112.8,169.25 Z M126.038,113 L134.874,113 L169,147.156 L169,156 L126.038,113 Z M152.546,113 L143.71,113 L169,138.3125 L169,129.469 L152.546,113 Z M169,120.625 L161.3815,113 L169,113 L169,120.625 Z"/>
    </g>
    <path fill="#FFF" d="M463.097656,376.461914 C465.809258,376.461914 468.167633,376.929032 470.172852,377.863281 C472.17807,378.797531 473.841465,380.079256 475.163086,381.708496 C476.484707,383.337736 477.475908,385.308745 478.136719,387.621582 C478.797529,389.934419 479.12793,392.446601 479.12793,395.158203 C479.12793,397.915378 478.797529,400.433257 478.136719,402.711914 C477.475908,404.990571 476.484707,406.950187 475.163086,408.59082 C473.841465,410.231454 472.172373,411.518876 470.155762,412.453125 C468.13915,413.387374 465.786472,413.854492 463.097656,413.854492 C460.386054,413.854492 458.027679,413.387374 456.022461,412.453125 C454.017243,411.518876 452.348151,410.231454 451.015137,408.59082 C449.682122,406.950187 448.690921,404.990571 448.041504,402.711914 C447.392087,400.433257 447.067383,397.915378 447.067383,395.158203 C447.067383,392.446601 447.392087,389.934419 448.041504,387.621582 C448.690921,385.308745 449.682122,383.337736 451.015137,381.708496 C452.348151,380.079256 454.017243,378.797531 456.022461,377.863281 C458.027679,376.929032 460.386054,376.461914 463.097656,376.461914 Z M345.963867,376.461914 C348.53875,376.461914 350.783194,376.906246 352.697266,377.794922 C354.611338,378.683598 356.194981,379.896965 357.448242,381.435059 C358.701504,382.973152 359.647132,384.778961 360.285156,386.852539 C360.92318,388.926117 361.242188,391.159168 361.242188,393.551758 L361.242188,396.901367 L337.213867,396.901367 L337.213867,400.695312 C337.213867,401.994147 337.458819,403.144852 337.94873,404.147461 C338.438642,405.15007 339.105139,405.998857 339.948242,406.693848 C340.791345,407.388838 341.736974,407.912921 342.785156,408.266113 C343.833339,408.619305 344.915685,408.795898 346.032227,408.795898 C348.265311,408.795898 350.20214,408.226243 351.842773,407.086914 C353.483407,405.947585 354.417642,404.13608 354.645508,401.652344 L360.96875,401.652344 C360.832031,403.566416 360.330733,405.269687 359.464844,406.762207 C358.598954,408.254728 357.476732,409.52506 356.098145,410.573242 C354.719557,411.621425 353.164397,412.430336 351.432617,413 C349.700838,413.569664 347.877939,413.854492 345.963867,413.854492 C343.388985,413.854492 341.138844,413.387374 339.213379,412.453125 C337.287914,411.518876 335.681484,410.231454 334.394043,408.59082 C333.106602,406.950187 332.14958,404.990571 331.522949,402.711914 C330.896318,400.433257 330.583008,397.915378 330.583008,395.158203 C330.583008,392.446601 330.919105,389.934419 331.591309,387.621582 C332.263512,385.308745 333.266107,383.337736 334.599121,381.708496 C335.932136,380.079256 337.544261,378.797531 339.435547,377.863281 C341.326832,376.929032 343.502917,376.461914 345.963867,376.461914 Z M917.208984,365.387695 L917.208984,413 L910.885742,413 L910.885742,407.189453 C909.7692,409.331391 908.276702,410.977696 906.408203,412.128418 C904.539704,413.27914 902.283867,413.854492 899.640625,413.854492 C897.225248,413.854492 895.123219,413.364588 893.334473,412.384766 C891.545727,411.404943 890.058925,410.071949 888.874023,408.385742 C887.689122,406.699536 886.806155,404.72283 886.225098,402.455566 C885.64404,400.188302 885.353516,397.755872 885.353516,395.158203 C885.353516,392.58332 885.64404,390.15089 886.225098,387.86084 C886.806155,385.570789 887.677729,383.588387 888.839844,381.913574 C890.001959,380.238761 891.471671,378.911463 893.249023,377.931641 C895.026376,376.951818 897.099923,376.461914 899.469727,376.461914 C902.135756,376.461914 904.425772,377.03157 906.339844,378.170898 C908.253916,379.310227 909.7692,380.962229 910.885742,383.126953 L910.885742,365.387695 L917.208984,365.387695 Z M706.217773,376.461914 C708.929376,376.461914 711.28775,376.929032 713.292969,377.863281 C715.298187,378.797531 716.961582,380.079256 718.283203,381.708496 C719.604824,383.337736 720.596025,385.308745 721.256836,387.621582 C721.917647,389.934419 722.248047,392.446601 722.248047,395.158203 C722.248047,397.915378 721.917647,400.433257 721.256836,402.711914 C720.596025,404.990571 719.604824,406.950187 718.283203,408.59082 C716.961582,410.231454 715.292491,411.518876 713.275879,412.453125 C711.259267,413.387374 708.906589,413.854492 706.217773,413.854492 C703.506171,413.854492 701.147796,413.387374 699.142578,412.453125 C697.13736,411.518876 695.468268,410.231454 694.135254,408.59082 C692.802239,406.950187 691.811038,404.990571 691.161621,402.711914 C690.512204,400.433257 690.1875,397.915378 690.1875,395.158203 C690.1875,392.446601 690.512204,389.934419 691.161621,387.621582 C691.811038,385.308745 692.802239,383.337736 694.135254,381.708496 C695.468268,380.079256 697.13736,378.797531 699.142578,377.863281 C701.147796,376.929032 703.506171,376.461914 706.217773,376.461914 Z M737.970703,377.316406 L737.970703,400.387695 C737.970703,402.962578 738.472,405.007642 739.474609,406.522949 C740.477219,408.038256 742.31151,408.795898 744.977539,408.795898 C747.643568,408.795898 749.756991,407.804697 751.317871,405.822266 C752.878751,403.839834 753.65918,401.287776 753.65918,398.166016 L753.65918,377.316406 L759.948242,377.316406 L759.948242,413 L753.65918,413 L753.65918,407.121094 C752.679357,409.217458 751.369149,410.863764 749.728516,412.060059 C748.087882,413.256354 745.923191,413.854492 743.234375,413.854492 C741.593742,413.854492 740.061368,413.620933 738.637207,413.153809 C737.213046,412.686684 735.988286,411.940435 734.962891,410.915039 C733.937495,409.889643 733.13428,408.568042 732.553223,406.950195 C731.972165,405.332349 731.681641,403.384126 731.681641,401.105469 L731.681641,377.316406 L737.970703,377.316406 Z M862.316406,376.461914 C864.891289,376.461914 867.135733,376.906246 869.049805,377.794922 C870.963877,378.683598 872.54752,379.896965 873.800781,381.435059 C875.054043,382.973152 875.999671,384.778961 876.637695,386.852539 C877.275719,388.926117 877.594727,391.159168 877.594727,393.551758 L877.594727,396.901367 L853.566406,396.901367 L853.566406,400.695312 C853.566406,401.994147 853.811358,403.144852 854.30127,404.147461 C854.791181,405.15007 855.457678,405.998857 856.300781,406.693848 C857.143884,407.388838 858.089513,407.912921 859.137695,408.266113 C860.185878,408.619305 861.268224,408.795898 862.384766,408.795898 C864.61785,408.795898 866.554679,408.226243 868.195312,407.086914 C869.835946,405.947585 870.770181,404.13608 870.998047,401.652344 L877.321289,401.652344 C877.18457,403.566416 876.683273,405.269687 875.817383,406.762207 C874.951493,408.254728 873.829271,409.52506 872.450684,410.573242 C871.072096,411.621425 869.516936,412.430336 867.785156,413 C866.053377,413.569664 864.230478,413.854492 862.316406,413.854492 C859.741524,413.854492 857.491383,413.387374 855.565918,412.453125 C853.640453,411.518876 852.034023,410.231454 850.746582,408.59082 C849.459141,406.950187 848.502119,404.990571 847.875488,402.711914 C847.248858,400.433257 846.935547,397.915378 846.935547,395.158203 C846.935547,392.446601 847.271644,389.934419 847.943848,387.621582 C848.616052,385.308745 849.618646,383.337736 850.95166,381.708496 C852.284675,380.079256 853.8968,378.797531 855.788086,377.863281 C857.679371,376.929032 859.855456,376.461914 862.316406,376.461914 Z M824.958008,376.461914 C826.826507,376.461914 828.59244,376.706866 830.255859,377.196777 C831.919279,377.686689 833.377598,378.444331 834.630859,379.469727 C835.884121,380.495122 836.909501,381.799634 837.707031,383.383301 C838.504561,384.966968 838.994465,386.841135 839.176758,389.005859 L832.887695,389.005859 C832.750976,387.570305 832.449058,386.368332 831.981934,385.399902 C831.514809,384.431473 830.905277,383.656741 830.15332,383.075684 C829.401363,382.494626 828.54688,382.084474 827.589844,381.845215 C826.632808,381.605956 825.641607,381.486328 824.616211,381.486328 C823.545242,381.486328 822.519862,381.662921 821.540039,382.016113 C820.560216,382.369305 819.671553,382.899085 818.874023,383.605469 C818.076493,384.311852 817.444176,385.189122 816.977051,386.237305 C816.509926,387.285487 816.276367,388.50455 816.276367,389.894531 L816.276367,400.387695 C816.276367,401.640957 816.498533,402.797358 816.942871,403.856934 C817.387209,404.916509 817.996741,405.805172 818.771484,406.522949 C819.546228,407.240726 820.434891,407.798989 821.4375,408.197754 C822.440109,408.596519 823.522455,408.795898 824.68457,408.795898 C827.008801,408.795898 828.94563,408.169277 830.495117,406.916016 C832.044604,405.662754 832.933267,403.703138 833.161133,401.037109 L839.450195,401.037109 C839.22233,403.22462 838.664067,405.121574 837.775391,406.728027 C836.886714,408.334481 835.787279,409.667475 834.477051,410.727051 C833.166823,411.786626 831.685718,412.572751 830.033691,413.085449 C828.381665,413.598147 826.644215,413.854492 824.821289,413.854492 C822.200833,413.854492 819.950693,413.398768 818.070801,412.487305 C816.190909,411.575842 814.618659,410.28842 813.354004,408.625 C812.089349,406.96158 811.155114,405.013358 810.55127,402.780273 C809.947425,400.547189 809.645508,398.09767 809.645508,395.431641 C809.645508,392.583319 809.981605,389.979992 810.653809,387.621582 C811.326012,385.263172 812.317214,383.269377 813.627441,381.640137 C814.937669,380.010897 816.549795,378.740564 818.463867,377.829102 C820.377939,376.917639 822.542631,376.461914 824.958008,376.461914 Z M399.420898,377.316406 L406.496094,405.241211 L406.769531,405.241211 L413.058594,377.316406 L420.714844,377.316406 L427.277344,405.241211 L427.550781,405.241211 L434.694336,377.316406 L440.84668,377.316406 L430.421875,413 L423.791016,413 L417.057617,384.083984 L416.78418,384.083984 L409.982422,413 L403.488281,413 L393.063477,377.316406 L399.420898,377.316406 Z M293.839844,365.387695 L313.493164,404.933594 L313.800781,404.933594 L313.800781,365.387695 L320.226562,365.387695 L320.226562,413 L310.861328,413 L291.173828,373.249023 L290.900391,373.249023 L290.900391,413 L284.44043,413 L284.44043,365.387695 L293.839844,365.387695 Z M788.522461,376.461914 C790.25424,376.461914 791.82649,376.695473 793.239258,377.162598 C794.652025,377.629722 795.871089,378.375971 796.896484,379.401367 C797.92188,380.426763 798.719398,381.742668 799.289062,383.349121 C799.858727,384.955574 800.143555,386.909494 800.143555,389.210938 L800.143555,413 L793.820312,413 L793.820312,389.894531 C793.820312,387.274075 793.319015,385.217618 792.316406,383.725098 C791.313797,382.232577 789.456719,381.486328 786.745117,381.486328 C785.446283,381.486328 784.261399,381.742673 783.19043,382.255371 C782.119461,382.768069 781.185225,383.502925 780.387695,384.459961 C779.590165,385.416997 778.969241,386.550612 778.524902,387.86084 C778.080564,389.171068 777.858398,390.600904 777.858398,392.150391 L777.858398,413 L771.569336,413 L771.569336,377.316406 L777.858398,377.316406 L777.858398,383.195312 C778.838221,381.098948 780.182609,379.452643 781.891602,378.256348 C783.600594,377.060053 785.810859,376.461914 788.522461,376.461914 Z M669.132812,376.461914 C670.864592,376.461914 672.436842,376.695473 673.849609,377.162598 C675.262377,377.629722 676.48144,378.375971 677.506836,379.401367 C678.532232,380.426763 679.32975,381.742668 679.899414,383.349121 C680.469078,384.955574 680.753906,386.909494 680.753906,389.210938 L680.753906,413 L674.430664,413 L674.430664,389.894531 C674.430664,387.274075 673.929367,385.217618 672.926758,383.725098 C671.924149,382.232577 670.067071,381.486328 667.355469,381.486328 C666.056634,381.486328 664.87175,381.742673 663.800781,382.255371 C662.729812,382.768069 661.795577,383.502925 660.998047,384.459961 C660.200517,385.416997 659.579592,386.550612 659.135254,387.86084 C658.690916,389.171068 658.46875,390.600904 658.46875,392.150391 L658.46875,413 L652.179688,413 L652.179688,377.316406 L658.46875,377.316406 L658.46875,383.195312 C659.448573,381.098948 660.79296,379.452643 662.501953,378.256348 C664.210946,377.060053 666.42121,376.461914 669.132812,376.461914 Z M629.245117,376.461914 C630.976897,376.461914 632.549147,376.695473 633.961914,377.162598 C635.374682,377.629722 636.593745,378.375971 637.619141,379.401367 C638.644536,380.426763 639.442054,381.742668 640.011719,383.349121 C640.581383,384.955574 640.866211,386.909494 640.866211,389.210938 L640.866211,413 L634.542969,413 L634.542969,389.894531 C634.542969,387.274075 634.041672,385.217618 633.039062,383.725098 C632.036453,382.232577 630.179376,381.486328 627.467773,381.486328 C626.168939,381.486328 624.984055,381.742673 623.913086,382.255371 C622.842117,382.768069 621.907882,383.502925 621.110352,384.459961 C620.312822,385.416997 619.691897,386.550612 619.247559,387.86084 C618.80322,389.171068 618.581055,390.600904 618.581055,392.150391 L618.581055,413 L612.291992,413 L612.291992,377.316406 L618.581055,377.316406 L618.581055,383.195312 C619.560877,381.098948 620.905265,379.452643 622.614258,378.256348 C624.323251,377.060053 626.533515,376.461914 629.245117,376.461914 Z M588.092773,365.387695 L604.601562,413 L597.594727,413 L593.698242,401.242188 L575.001953,401.242188 L571.071289,413 L564.201172,413 L580.675781,365.387695 L588.092773,365.387695 Z M541.813477,377.316406 L527.458008,393.039062 L542.804688,413 L535.592773,413 L520.177734,393.039062 L534.191406,377.316406 L541.813477,377.316406 Z M520.109375,365.387695 L520.109375,413 L513.820312,413 L513.820312,365.387695 L520.109375,365.387695 Z M505.993164,377.316406 L505.993164,382.750977 L495.124023,382.750977 L495.124023,413 L488.834961,413 L488.834961,377.316406 L505.993164,377.316406 Z M379.630859,365.387695 L379.630859,377.316406 L387.833984,377.316406 L387.833984,382.682617 L379.630859,382.682617 L379.630859,407.599609 L387.833984,407.599609 L387.833984,413 L373.410156,413 L373.410156,382.682617 L367.394531,382.682617 L367.394531,377.316406 L373.410156,377.316406 L373.410156,365.387695 L379.630859,365.387695 Z M706.217773,381.486328 C704.964512,381.486328 703.762538,381.685708 702.611816,382.084473 C701.461095,382.483238 700.464197,383.035804 699.621094,383.742188 C698.777991,384.448571 698.1001,385.303055 697.587402,386.305664 C697.074704,387.308273 696.818359,388.413405 696.818359,389.621094 L696.818359,400.695312 C696.818359,401.903001 697.074704,403.008133 697.587402,404.010742 C698.1001,405.013351 698.777991,405.862138 699.621094,406.557129 C700.464197,407.252119 701.455398,407.798989 702.594727,408.197754 C703.734055,408.596519 704.941725,408.795898 706.217773,408.795898 C707.471035,408.795898 708.667312,408.596519 709.806641,408.197754 C710.945969,407.798989 711.93717,407.252119 712.780273,406.557129 C713.623377,405.862138 714.301267,405.013351 714.813965,404.010742 C715.326663,403.008133 715.583008,401.903001 715.583008,400.695312 L715.583008,389.621094 C715.583008,388.413405 715.326663,387.308273 714.813965,386.305664 C714.301267,385.303055 713.623377,384.448571 712.780273,383.742188 C711.93717,383.035804 710.945969,382.483238 709.806641,382.084473 C708.667312,381.685708 707.471035,381.486328 706.217773,381.486328 Z M463.097656,381.486328 C461.844395,381.486328 460.642421,381.685708 459.491699,382.084473 C458.340977,382.483238 457.34408,383.035804 456.500977,383.742188 C455.657873,384.448571 454.979983,385.303055 454.467285,386.305664 C453.954587,387.308273 453.698242,388.413405 453.698242,389.621094 L453.698242,400.695312 C453.698242,401.903001 453.954587,403.008133 454.467285,404.010742 C454.979983,405.013351 455.657873,405.862138 456.500977,406.557129 C457.34408,407.252119 458.335281,407.798989 459.474609,408.197754 C460.613938,408.596519 461.821608,408.795898 463.097656,408.795898 C464.350918,408.795898 465.547195,408.596519 466.686523,408.197754 C467.825852,407.798989 468.817053,407.252119 469.660156,406.557129 C470.503259,405.862138 471.18115,405.013351 471.693848,404.010742 C472.206546,403.008133 472.462891,401.903001 472.462891,400.695312 L472.462891,389.621094 C472.462891,388.413405 472.206546,387.308273 471.693848,386.305664 C471.18115,385.303055 470.503259,384.448571 469.660156,383.742188 C468.817053,383.035804 467.825852,382.483238 466.686523,382.084473 C465.547195,381.685708 464.350918,381.486328 463.097656,381.486328 Z M901.110352,381.486328 C899.811517,381.486328 898.609543,381.685708 897.504395,382.084473 C896.399246,382.483238 895.436528,383.035804 894.616211,383.742188 C893.795894,384.448571 893.152183,385.303055 892.685059,386.305664 C892.217934,387.308273 891.984375,388.413405 891.984375,389.621094 L891.984375,400.695312 C891.984375,401.903001 892.217934,403.008133 892.685059,404.010742 C893.152183,405.013351 893.795894,405.862138 894.616211,406.557129 C895.436528,407.252119 896.393549,407.798989 897.487305,408.197754 C898.58106,408.596519 899.78873,408.795898 901.110352,408.795898 C904.277685,408.795898 906.698722,407.793304 908.373535,405.788086 C910.048348,403.782868 910.885742,401.242203 910.885742,398.166016 L910.885742,392.150391 C910.885742,389.074203 910.048348,386.527842 908.373535,384.51123 C906.698722,382.494619 904.277685,381.486328 901.110352,381.486328 Z M584.503906,372.804688 L584.230469,372.804688 L576.745117,395.773438 L591.920898,395.773438 L584.503906,372.804688 Z M862.316406,381.486328 C861.154291,381.486328 860.049159,381.674315 859.000977,382.050293 C857.952794,382.426271 857.018559,382.978837 856.198242,383.708008 C855.377926,384.437178 854.734215,385.325841 854.26709,386.374023 C853.799965,387.422206 853.566406,388.595697 853.566406,389.894531 L853.566406,391.876953 L871.066406,391.876953 L871.066406,389.894531 C871.066406,388.595697 870.832847,387.422206 870.365723,386.374023 C869.898598,385.325841 869.260583,384.437178 868.45166,383.708008 C867.642737,382.978837 866.708501,382.426271 865.648926,382.050293 C864.58935,381.674315 863.478521,381.486328 862.316406,381.486328 Z M345.963867,381.486328 C344.801752,381.486328 343.69662,381.674315 342.648438,382.050293 C341.600255,382.426271 340.66602,382.978837 339.845703,383.708008 C339.025387,384.437178 338.381676,385.325841 337.914551,386.374023 C337.447426,387.422206 337.213867,388.595697 337.213867,389.894531 L337.213867,391.876953 L354.713867,391.876953 L354.713867,389.894531 C354.713867,388.595697 354.480308,387.422206 354.013184,386.374023 C353.546059,385.325841 352.908044,384.437178 352.099121,383.708008 C351.290198,382.978837 350.355962,382.426271 349.296387,382.050293 C348.236811,381.674315 347.125982,381.486328 345.963867,381.486328 Z M630.333984,270.802734 C633.719418,270.802734 636.681628,271.502597 639.220703,272.902344 C641.759778,274.30209 643.859367,276.19823 645.519531,278.59082 C647.179696,280.98341 648.408525,283.815413 649.206055,287.086914 C650.003585,290.358415 650.402344,293.833315 650.402344,297.511719 C650.402344,301.255227 650.003585,304.738265 649.206055,307.960938 C648.408525,311.18361 647.179696,313.999337 645.519531,316.408203 C643.859367,318.817069 641.759778,320.721347 639.220703,322.121094 C636.681628,323.52084 633.719418,324.220703 630.333984,324.220703 C626.948551,324.220703 624.018893,323.504564 621.544922,322.072266 C619.070951,320.639967 617.036466,318.65431 615.441406,316.115234 L615.441406,339.992188 L602.941406,339.992188 L602.941406,272.023438 L615.441406,272.023438 L615.441406,278.908203 C617.036466,276.369128 619.062813,274.383471 621.520508,272.951172 C623.978202,271.518873 626.915999,270.802734 630.333984,270.802734 Z M684.582031,270.802734 C688.390644,270.802734 691.776027,271.437494 694.738281,272.707031 C697.700536,273.976569 700.198883,275.791329 702.233398,278.151367 C704.267914,280.511405 705.814122,283.327132 706.87207,286.598633 C707.930018,289.870134 708.458984,293.507792 708.458984,297.511719 C708.458984,301.515645 707.930018,305.145166 706.87207,308.400391 C705.814122,311.655615 704.267914,314.471342 702.233398,316.847656 C700.198883,319.22397 697.700536,321.046869 694.738281,322.316406 C691.776027,323.585944 688.390644,324.220703 684.582031,324.220703 C680.773418,324.220703 677.388036,323.585944 674.425781,322.316406 C671.463527,321.046869 668.965179,319.22397 666.930664,316.847656 C664.896149,314.471342 663.341802,311.655615 662.267578,308.400391 C661.193354,305.145166 660.65625,301.515645 660.65625,297.511719 C660.65625,293.507792 661.193354,289.870134 662.267578,286.598633 C663.341802,283.327132 664.896149,280.511405 666.930664,278.151367 C668.965179,275.791329 671.463527,273.976569 674.425781,272.707031 C677.388036,271.437494 680.773418,270.802734 684.582031,270.802734 Z M566.271484,270.802734 C570.080097,270.802734 573.46548,271.437494 576.427734,272.707031 C579.389989,273.976569 581.888336,275.791329 583.922852,278.151367 C585.957367,280.511405 587.503575,283.327132 588.561523,286.598633 C589.619471,289.870134 590.148438,293.507792 590.148438,297.511719 C590.148438,301.515645 589.619471,305.145166 588.561523,308.400391 C587.503575,311.655615 585.957367,314.471342 583.922852,316.847656 C581.888336,319.22397 579.389989,321.046869 576.427734,322.316406 C573.46548,323.585944 570.080097,324.220703 566.271484,324.220703 C562.462872,324.220703 559.077489,323.585944 556.115234,322.316406 C553.15298,321.046869 550.654633,319.22397 548.620117,316.847656 C546.585602,314.471342 545.031255,311.655615 543.957031,308.400391 C542.882807,305.145166 542.345703,301.515645 542.345703,297.511719 C542.345703,293.507792 542.882807,289.870134 543.957031,286.598633 C545.031255,283.327132 546.585602,280.511405 548.620117,278.151367 C550.654633,275.791329 553.15298,273.976569 556.115234,272.707031 C559.077489,271.437494 562.462872,270.802734 566.271484,270.802734 Z M472.277344,270.802734 C474.946628,270.802734 477.501941,271.152666 479.943359,271.852539 C482.384778,272.552412 484.590159,273.651034 486.55957,275.148438 C488.528981,276.645841 490.124017,278.558257 491.344727,280.885742 C492.565436,283.213228 493.322264,285.988265 493.615234,289.210938 L481.115234,289.210938 C480.789712,285.955713 479.788745,283.693366 478.112305,282.423828 C476.435864,281.154291 474.328138,280.519531 471.789062,280.519531 C469.249987,280.519531 467.052744,281.333325 465.197266,282.960938 C463.341788,284.58855 462.414062,287.095035 462.414062,290.480469 L462.414062,304.494141 C462.414062,307.619156 463.29296,310.068676 465.050781,311.842773 C466.808603,313.616871 469.087226,314.503906 471.886719,314.503906 C474.686212,314.503906 476.891594,313.836595 478.50293,312.501953 C480.114266,311.167311 481.115232,308.807309 481.505859,305.421875 L494.005859,305.421875 C493.680337,308.611995 492.915371,311.370757 491.710938,313.698242 C490.506504,316.025728 488.935882,317.970695 486.999023,319.533203 C485.062165,321.095711 482.864921,322.267574 480.407227,323.048828 C477.949532,323.830082 475.320978,324.220703 472.521484,324.220703 C468.712872,324.220703 465.376316,323.569668 462.511719,322.267578 C459.647121,320.965488 457.230153,319.158866 455.260742,316.847656 C453.291331,314.536447 451.818364,311.769547 450.841797,308.546875 C449.865229,305.324203 449.376953,301.743509 449.376953,297.804688 C449.376953,293.605448 449.914057,289.837582 450.988281,286.500977 C452.062505,283.164371 453.600576,280.332368 455.602539,278.004883 C457.604502,275.677397 460.005194,273.895188 462.804688,272.658203 C465.604181,271.421218 468.761701,270.802734 472.277344,270.802734 Z M794.689453,270.802734 C800.483753,270.802734 805.23631,272.20246 808.947266,275.001953 C812.658222,277.801446 814.643879,282.033175 814.904297,287.697266 L802.404297,287.697266 C802.274088,285.288399 801.509122,283.489915 800.109375,282.301758 C798.709628,281.113601 796.903006,280.519531 794.689453,280.519531 C792.541005,280.519531 790.791348,280.983394 789.44043,281.911133 C788.089511,282.838872 787.414062,284.132804 787.414062,285.792969 C787.414062,287.453133 787.926753,288.681962 788.952148,289.479492 C789.977544,290.277022 791.320304,290.854816 792.980469,291.212891 L803.087891,293.410156 C804.943369,293.800783 806.709302,294.378577 808.385742,295.143555 C810.062183,295.908532 811.502598,296.893223 812.707031,298.097656 C813.911464,299.302089 814.863603,300.734367 815.563477,302.394531 C816.26335,304.054696 816.613281,306.024077 816.613281,308.302734 C816.613281,310.516287 816.141281,312.583324 815.197266,314.503906 C814.25325,316.424489 812.886077,318.100904 811.095703,319.533203 C809.30533,320.965502 807.09181,322.104813 804.455078,322.951172 C801.818346,323.79753 798.807309,324.220703 795.421875,324.220703 C788.618456,324.220703 783.361347,322.715184 779.650391,319.704102 C775.939435,316.693019 773.953777,312.388049 773.693359,306.789062 L786.193359,306.789062 C786.714195,311.932317 789.790336,314.503906 795.421875,314.503906 C797.830741,314.503906 799.881502,314.05632 801.574219,313.161133 C803.266936,312.265946 804.113281,310.841807 804.113281,308.888672 C804.113281,307.033194 803.413418,305.690434 802.013672,304.860352 C800.613925,304.030269 798.774751,303.371096 796.496094,302.882812 L787.707031,300.978516 C779.178343,299.123038 774.914062,294.25655 774.914062,286.378906 C774.914062,284.165354 775.361649,282.114593 776.256836,280.226562 C777.152023,278.338532 778.445955,276.694668 780.138672,275.294922 C781.831389,273.895175 783.898425,272.796553 786.339844,271.999023 C788.781262,271.201493 791.564438,270.802734 794.689453,270.802734 Z M733.751953,254.982422 L733.751953,323 L721.251953,323 L721.251953,254.982422 L733.751953,254.982422 Z M534.777344,272.023438 L534.777344,281.789062 L518.810547,281.789062 L518.810547,323 L506.310547,323 L506.310547,272.023438 L534.777344,272.023438 Z M761.632812,272.023438 L761.632812,323 L749.132812,323 L749.132812,272.023438 L761.632812,272.023438 Z M419.152344,254.982422 L442.248047,323 L428.234375,323 L423.742188,308.498047 L400.548828,308.498047 L396.154297,323 L382.140625,323 L405.333984,254.982422 L419.152344,254.982422 Z M626.916016,280.519531 C622.912089,280.519531 619.998707,281.715808 618.175781,284.108398 C616.352855,286.500989 615.441406,289.699199 615.441406,293.703125 L615.441406,301.320312 C615.441406,305.324239 616.352855,308.522449 618.175781,310.915039 C619.998707,313.307629 622.912089,314.503906 626.916016,314.503906 C630.17124,314.503906 632.734691,313.616871 634.606445,311.842773 C636.478199,310.068676 637.414062,307.68426 637.414062,304.689453 L637.414062,290.285156 C637.414062,287.29035 636.486337,284.914071 634.630859,283.15625 C632.775381,281.398429 630.203792,280.519531 626.916016,280.519531 Z M684.582031,280.519531 C681.457016,280.519531 678.861013,281.349601 676.793945,283.009766 C674.726878,284.66993 673.693359,287.029933 673.693359,290.089844 L673.693359,304.884766 C673.693359,307.944677 674.726878,310.312817 676.793945,311.989258 C678.861013,313.665698 681.457016,314.503906 684.582031,314.503906 C687.707047,314.503906 690.30305,313.690112 692.370117,312.0625 C694.437185,310.434888 695.470703,308.042333 695.470703,304.884766 L695.470703,290.089844 C695.470703,286.964828 694.437185,284.58855 692.370117,282.960938 C690.30305,281.333325 687.707047,280.519531 684.582031,280.519531 Z M566.271484,280.519531 C563.146469,280.519531 560.550466,281.349601 558.483398,283.009766 C556.416331,284.66993 555.382812,287.029933 555.382812,290.089844 L555.382812,304.884766 C555.382812,307.944677 556.416331,310.312817 558.483398,311.989258 C560.550466,313.665698 563.146469,314.503906 566.271484,314.503906 C569.3965,314.503906 571.992503,313.690112 574.05957,312.0625 C576.126638,310.434888 577.160156,308.042333 577.160156,304.884766 L577.160156,290.089844 C577.160156,286.964828 576.126638,284.58855 574.05957,282.960938 C571.992503,281.333325 569.3965,280.519531 566.271484,280.519531 Z M412.560547,270.705078 L412.121094,270.705078 L403.917969,297.511719 L420.421875,297.511719 L412.560547,270.705078 Z M761.828125,254.982422 L761.828125,266.115234 L748.9375,266.115234 L748.9375,254.982422 L761.828125,254.982422 Z"/>
  </g>
</svg>
