<svg width="400" height="400" viewBox="0 0 400 400" fill="none" xmlns="http://www.w3.org/2000/svg">
<rect width="400" height="400" fill="#0E0C0F"/>
<path d="M93.3919 180.352C83.2765 180.352 75.0114 188.606 75.0114 198.846C75.0114 209.086 83.2148 217.34 93.3919 217.34C103.569 217.34 111.772 209.086 111.772 198.846C111.772 188.606 103.507 180.352 93.3919 180.352ZM93.3919 208.776C87.9024 208.776 83.4615 204.307 83.4615 198.784C83.4615 193.26 87.9024 188.792 93.3919 188.792C98.8814 188.792 103.322 193.26 103.322 198.784C103.322 204.307 98.8814 208.776 93.3919 208.776Z" fill="white"/>
<path d="M274.165 217.34C268.865 217.34 264.489 215.537 261.161 211.932C258.018 208.512 256.477 204.099 256.477 198.815C256.477 193.531 258.079 189.179 261.161 185.76C264.489 182.154 268.865 180.352 274.165 180.352C279.465 180.352 283.841 182.154 287.169 185.76C290.313 189.179 291.853 193.593 291.853 198.877C291.853 204.161 290.251 208.512 287.169 211.932C283.841 215.475 279.465 217.34 274.165 217.34ZM274.165 187.625C271.022 187.625 268.618 188.682 266.831 190.858C265.044 192.971 264.181 195.582 264.181 198.815C264.181 202.109 265.044 204.658 266.831 206.772C268.618 208.948 271.022 210.004 274.165 210.004C277.308 210.004 279.712 208.948 281.499 206.772C283.287 204.658 284.149 202.047 284.149 198.815C284.149 195.582 283.287 192.971 281.499 190.858C279.712 188.682 277.308 187.625 274.165 187.625Z" fill="white"/>
<path d="M116.809 229.846L123.459 214.904L109.481 180.929H117.979L127.585 205.604L137.376 180.929H145.812L125.245 229.846H116.809Z" fill="white"/>
<path d="M160.17 217.34C155.492 217.34 151.676 216.097 148.845 213.675C146.199 211.501 144.722 208.581 144.537 205.04L144.475 203.549H152.353L152.476 204.792C152.723 207.277 154.077 208.892 156.662 209.761C157.646 210.072 158.631 210.196 159.616 210.196C160.662 210.196 161.647 210.134 162.57 210.01C163.432 209.886 164.293 209.699 165.093 209.389C167.063 208.581 167.371 207.401 167.371 206.407C167.371 205.475 167.063 204.916 166.386 204.419C165.463 203.798 164.232 203.239 162.755 202.804C161.154 202.369 159.431 201.934 157.585 201.562C155.615 201.189 153.769 200.63 152.046 199.947C150.261 199.201 148.722 198.207 147.491 196.903C146.199 195.474 145.522 193.548 145.522 191.188C145.522 187.709 146.814 185.038 149.337 183.05C151.738 181.187 155.246 180.255 159.8 180.255C164.109 180.255 167.617 181.373 170.202 183.485C172.417 185.349 173.71 187.834 174.018 190.877L174.202 192.43H166.447L166.263 191.188C166.078 189.511 165.093 187.274 159.431 187.274C153.276 187.274 153.276 189.697 153.276 190.629C153.276 191.436 153.584 192.058 154.261 192.43C155.184 193.051 156.415 193.548 157.892 193.921C159.493 194.356 161.216 194.729 163.062 195.101C165.032 195.474 166.94 196.033 168.601 196.779C170.386 197.524 171.925 198.58 173.156 199.947C174.448 201.375 175.125 203.363 175.125 205.786C175.125 209.451 173.71 212.37 170.94 214.296C168.109 216.408 164.539 217.34 160.17 217.34Z" fill="white"/>
<path d="M181.979 216.763V188.068H175.316V180.863H181.979V169H189.751V180.863H197.277V188.068H189.751V216.763H181.979Z" fill="white"/>
<path d="M199.855 216.749V180.848H207.575V185.072C208.872 183.643 210.478 182.463 212.454 181.532C214.06 180.724 216.036 180.352 218.321 180.352H220.05V188.115H218.074C214.924 188.115 212.454 189.358 210.478 191.904C208.563 194.389 207.637 197.308 207.637 200.848V216.811H199.855V216.749Z" fill="white"/>
<path d="M237.703 217.34C232.395 217.34 227.952 215.537 224.558 211.932C221.287 208.45 219.62 204.037 219.62 198.815C219.62 193.593 221.225 189.179 224.311 185.76C227.643 182.154 232.025 180.352 237.333 180.352C242.64 180.352 247.022 182.154 250.354 185.76C253.502 189.179 255.045 193.593 255.045 198.877V202.296H227.767C228.261 204.347 229.248 206.026 230.667 207.393C232.519 209.196 234.802 210.067 237.703 210.067C241.591 210.067 244.306 208.512 245.973 205.28L246.343 204.534H254.613L253.872 206.461C252.638 209.694 250.663 212.367 247.948 214.356C245.355 216.283 241.899 217.34 237.703 217.34ZM246.837 194.774C246.343 192.909 245.417 191.355 244.059 190.112C242.27 188.433 240.048 187.625 237.394 187.625C234.679 187.625 232.519 188.433 230.729 190.112C229.371 191.355 228.507 192.909 227.952 194.774H246.837Z" fill="white"/>
<path d="M341.233 216.763V195.549C341.233 193.13 340.617 191.269 339.261 189.718C337.966 188.353 336.425 187.671 334.452 187.671C332.295 187.671 330.569 188.353 329.213 189.718C327.733 191.145 326.994 193.068 326.994 195.611V216.763H319.288V195.549C319.288 193.13 318.672 191.269 317.316 189.718C316.021 188.353 314.48 187.671 312.508 187.671C310.35 187.671 308.624 188.353 307.268 189.718C305.789 191.145 305.049 193.068 305.049 195.611V216.763H297.344V180.91H305.049V183.391C307.33 181.406 310.165 180.352 313.617 180.352C316.083 180.352 318.364 181.034 320.46 182.336C321.877 183.267 323.11 184.383 324.158 185.81C325.761 183.763 327.918 182.212 330.569 181.158C331.987 180.6 333.589 180.352 335.377 180.352C337.165 180.352 338.891 180.724 340.555 181.406C342.158 182.088 343.637 183.143 344.932 184.445C347.644 187.361 349 191.021 349 195.363V216.763H341.233Z" fill="white"/>
<path d="M197.23 180.977H175.221V187.855H197.23V180.977Z" fill="white"/>
<path d="M71.751 180.929H52V187.878H64.0975V216.419C64.0975 218.715 62.6779 220.762 60.5793 221.569L55.7033 223.492L57.8019 231L65.1468 228.146C67.6156 227.153 69.6525 225.292 70.8252 222.81C71.5041 221.383 71.8127 219.894 71.8127 218.281V180.929H71.751Z" fill="white"/>
<path d="M291.806 180.977H284.215V216.715H291.806V180.977Z" fill="white"/>
</svg>
