<svg width="176" height="176" viewBox="0 0 176 176" fill="none" xmlns="http://www.w3.org/2000/svg">
<path d="M93 52C85.8203 52 80 57.8203 80 65V132H72V65C72 53.402 81.402 44 93 44C114.539 44 132 61.4609 132 83C132 104.206 115.075 121.458 93.9972 121.987L92.2222 114H93C110.121 114 124 100.121 124 83C124 65.8792 110.121 52 93 52Z" fill="white"/>
<path d="M90.8889 108H93C106.807 108 118 96.8071 118 83C118 69.1929 106.807 58 93 58C89.134 58 86 61.134 86 65V66H93C102.389 66 110 73.6112 110 83C110 92.3888 102.389 100 93 100H89.1111L90.8889 108Z" fill="white"/>
<path d="M87.7778 94H93C99.0751 94 104 89.0751 104 83C104 76.9249 99.0751 72 93 72H86V80H93C94.6569 80 96 81.3431 96 83C96 84.6569 94.6569 86 93 86H86L87.7778 94Z" fill="white"/>
<path d="M66.1226 62.4105C66.0415 63.2627 66 64.1265 66 65V132H58V79C58 72.2549 61.18 66.2526 66.1226 62.4105Z" fill="white"/>
<path d="M44 93C44 86.2549 47.18 80.2526 52.1226 76.4105C52.0415 77.2627 52 78.1265 52 79V132H44V93Z" fill="white"/>
</svg>
