<svg xmlns="http://www.w3.org/2000/svg" xmlns:xlink="http://www.w3.org/1999/xlink" viewBox="0 0 735.09 497.12"><defs><style>.cls-1,.cls-2,.cls-4,.cls-6{fill:none;}.cls-2,.cls-3,.cls-4,.cls-5,.cls-6,.cls-7{stroke:#4038ff;}.cls-2,.cls-3,.cls-4{stroke-linecap:square;}.cls-2,.cls-3,.cls-4,.cls-5,.cls-6{stroke-miterlimit:10;}.cls-2{stroke-width:2px;}.cls-3,.cls-4,.cls-5,.cls-6,.cls-7{stroke-width:12px;}.cls-3,.cls-8{fill:url(#lines);}.cls-5{fill:#fff;}.cls-7{stroke-linejoin:bevel;fill:url(#lines-3);}</style><pattern id="lines" data-name="lines" width="16" height="16" patternTransform="translate(0 240)" patternUnits="userSpaceOnUse" viewBox="0 0 16 16"><rect class="cls-1" width="16" height="16"/><line class="cls-2" x1="1.98" y1="78.02" x2="67.98" y2="12.02"/><line class="cls-2" x1="-14.02" y1="78.02" x2="51.98" y2="12.02"/><line class="cls-2" x1="-30.02" y1="78.02" x2="35.98" y2="12.02"/><line class="cls-2" x1="-46.02" y1="78.02" x2="19.98" y2="12.02"/><line class="cls-2" x1="-62.02" y1="78.02" x2="3.98" y2="12.02"/><line class="cls-2" x1="1.98" y1="62.02" x2="67.98" y2="-3.98"/><line class="cls-2" x1="-14.02" y1="62.02" x2="51.98" y2="-3.98"/><line class="cls-2" x1="-30.02" y1="62.02" x2="35.98" y2="-3.98"/><line class="cls-2" x1="-46.02" y1="62.02" x2="19.98" y2="-3.98"/><line class="cls-2" x1="-62.02" y1="62.02" x2="3.98" y2="-3.98"/><line class="cls-2" x1="1.98" y1="46.02" x2="67.98" y2="-19.98"/><line class="cls-2" x1="-14.02" y1="46.02" x2="51.98" y2="-19.98"/><line class="cls-2" x1="-30.02" y1="46.02" x2="35.98" y2="-19.98"/><line class="cls-2" x1="-46.02" y1="46.02" x2="19.98" y2="-19.98"/><line class="cls-2" x1="-62.02" y1="46.02" x2="3.98" y2="-19.98"/><line class="cls-2" x1="1.98" y1="30.02" x2="67.98" y2="-35.98"/><line class="cls-2" x1="-14.02" y1="30.02" x2="51.98" y2="-35.98"/><line class="cls-2" x1="-30.02" y1="30.02" x2="35.98" y2="-35.98"/><line class="cls-2" x1="-46.02" y1="30.02" x2="19.98" y2="-35.98"/><line class="cls-2" x1="-62.02" y1="30.02" x2="3.98" y2="-35.98"/><line class="cls-2" x1="1.98" y1="14.02" x2="67.98" y2="-51.98"/><line class="cls-2" x1="-14.02" y1="14.02" x2="51.98" y2="-51.98"/><line class="cls-2" x1="-30.02" y1="14.02" x2="35.98" y2="-51.98"/><line class="cls-2" x1="-46.02" y1="14.02" x2="19.98" y2="-51.98"/><line class="cls-2" x1="-62.02" y1="14.02" x2="3.98" y2="-51.98"/></pattern><pattern id="lines-3" data-name="lines" width="16" height="16" patternUnits="userSpaceOnUse" viewBox="0 0 16 16"><rect class="cls-1" width="16" height="16"/><line class="cls-2" x1="1.98" y1="78.02" x2="67.98" y2="12.02"/><line class="cls-2" x1="-14.02" y1="78.02" x2="51.98" y2="12.02"/><line class="cls-2" x1="-30.02" y1="78.02" x2="35.98" y2="12.02"/><line class="cls-2" x1="-46.02" y1="78.02" x2="19.98" y2="12.02"/><line class="cls-2" x1="-62.02" y1="78.02" x2="3.98" y2="12.02"/><line class="cls-2" x1="1.98" y1="62.02" x2="67.98" y2="-3.98"/><line class="cls-2" x1="-14.02" y1="62.02" x2="51.98" y2="-3.98"/><line class="cls-2" x1="-30.02" y1="62.02" x2="35.98" y2="-3.98"/><line class="cls-2" x1="-46.02" y1="62.02" x2="19.98" y2="-3.98"/><line class="cls-2" x1="-62.02" y1="62.02" x2="3.98" y2="-3.98"/><line class="cls-2" x1="1.98" y1="46.02" x2="67.98" y2="-19.98"/><line class="cls-2" x1="-14.02" y1="46.02" x2="51.98" y2="-19.98"/><line class="cls-2" x1="-30.02" y1="46.02" x2="35.98" y2="-19.98"/><line class="cls-2" x1="-46.02" y1="46.02" x2="19.98" y2="-19.98"/><line class="cls-2" x1="-62.02" y1="46.02" x2="3.98" y2="-19.98"/><line class="cls-2" x1="1.98" y1="30.02" x2="67.98" y2="-35.98"/><line class="cls-2" x1="-14.02" y1="30.02" x2="51.98" y2="-35.98"/><line class="cls-2" x1="-30.02" y1="30.02" x2="35.98" y2="-35.98"/><line class="cls-2" x1="-46.02" y1="30.02" x2="19.98" y2="-35.98"/><line class="cls-2" x1="-62.02" y1="30.02" x2="3.98" y2="-35.98"/><line class="cls-2" x1="1.98" y1="14.02" x2="67.98" y2="-51.98"/><line class="cls-2" x1="-14.02" y1="14.02" x2="51.98" y2="-51.98"/><line class="cls-2" x1="-30.02" y1="14.02" x2="35.98" y2="-51.98"/><line class="cls-2" x1="-46.02" y1="14.02" x2="19.98" y2="-51.98"/><line class="cls-2" x1="-62.02" y1="14.02" x2="3.98" y2="-51.98"/></pattern></defs><title>Bandwidth-provider</title><g id="Layer_2" data-name="Layer 2"><g id="Bandwidth-provider"><path class="cls-3" d="M101.19,106.87a95.21,95.21,0,0,0-39.6,181.78,93,93,0,0,1-19-12v-9c0-15.39,10.49-27.86,23.43-27.86h70.3c12.95,0,23.44,12.47,23.44,27.86v9a92.33,92.33,0,0,1-19,12,95.21,95.21,0,0,0-39.58-181.79Zm0,132.7A41.79,41.79,0,1,1,143,197.78,41.79,41.79,0,0,1,101.19,239.57Z"/><path class="cls-4" d="M607.4,249.39h0a121.69,121.69,0,0,0,121.69-121.7h0A121.69,121.69,0,0,0,607.4,6h0A121.56,121.56,0,0,0,506.31,59.92q-2.9,4.3-5.43,8.87l-2.56,5"/><path class="cls-4" d="M607.4,175.64h0A53.43,53.43,0,0,1,554,122.22h0A53.43,53.43,0,0,1,607.4,68.79h0a53.43,53.43,0,0,1,53.42,53.43h0A53.42,53.42,0,0,1,607.4,175.64Z"/><path class="cls-4" d="M534.19,199.77c4.1-13.86,15.21-23.8,28.27-23.8h89.88c16.54,0,29.95,15.95,29.95,35.62v11.5c-7.33,6-34.45,26.8-74.89,26.8a118.35,118.35,0,0,1-56.74-14.61"/><polyline class="cls-4" points="343.74 265.85 487.06 298.35 527.61 121.49 491.54 75.9 335.47 40.01 286.43 66.2 245.88 243.06 268.75 249.06"/><line class="cls-5" x1="380.73" y1="274.63" x2="416.29" y2="322.45"/><line class="cls-5" x1="425.6" y1="283.16" x2="439.72" y2="327.52"/><path class="cls-6" d="M248.86,491.54l177.72-70.42c19.36-9.68,19.36-9.68,38.62-31.37L528,325l20.82-98.17a22.29,22.29,0,0,0-44.22-5.65L487.45,293.7l-52.3,32.7-55.23-15.31c-27.59-11.18-41.9-29.68-36.34-59.37L355.12,196c5.53-31.85-16.53-42.29-35-42.28a49.32,49.32,0,0,0-7.82.9s-8.45,31.54-10.43,38.29l-38.9,69.72s-49.32,31.3-41.65,95.95"/><line class="cls-5" x1="220.7" y1="336.62" x2="187.25" y2="352.46"/><path class="cls-4" d="M361.93,332.55c-21.82-8.71-26.79-31.66-23.58-52.88l7.34-37.24"/><polygon class="cls-7" points="286.43 66.2 527.61 121.49 491.54 75.9 335.47 40.01 286.43 66.2"/><path class="cls-8" d="M223.12,363.1c-5.82-15.51-1.11-16.63,2.82-26.46L185.8,353.5l37,83.14"/></g></g></svg>