<svg width="452" height="176" viewBox="0 0 452 176" fill="none" xmlns="http://www.w3.org/2000/svg">
<g clip-path="url(#clip0_138_9464)">
<path d="M93 52C85.8203 52 80 57.8203 80 65V132H72V65C72 53.402 81.402 44 93 44C114.539 44 132 61.4609 132 83C132 104.206 115.075 121.458 93.9972 121.987L92.2222 114H93C110.121 114 124 100.121 124 83C124 65.8792 110.121 52 93 52Z" fill="#4038FF"/>
<path d="M90.8889 108H93C106.807 108 118 96.8071 118 83C118 69.1929 106.807 58 93 58C89.134 58 86 61.134 86 65V66H93C102.389 66 110 73.6112 110 83C110 92.3888 102.389 100 93 100H89.1111L90.8889 108Z" fill="#4038FF"/>
<path d="M87.7778 94H93C99.0751 94 104 89.0751 104 83C104 76.9249 99.0751 72 93 72H86V80H93C94.6569 80 96 81.3431 96 83C96 84.6569 94.6569 86 93 86H86L87.7778 94Z" fill="#4038FF"/>
<path d="M66.1226 62.4105C66.0415 63.2627 66 64.1265 66 65V132H58V79C58 72.2549 61.18 66.2526 66.1226 62.4105Z" fill="#4038FF"/>
<path d="M44 93C44 86.2549 47.18 80.2526 52.1226 76.4105C52.0415 77.2627 52 78.1265 52 79V132H44V93Z" fill="#4038FF"/>
<path d="M199.202 109.75L199.202 69.7468H207.21V109.75H199.202Z" fill="white"/>
<path d="M199.202 55.35V63.3668H207.21V55.35H199.202Z" fill="white"/>
<path fill-rule="evenodd" clip-rule="evenodd" d="M189.668 103.896C193.118 100.129 194.845 95.2397 194.851 89.2265C194.857 83.2132 193.118 78.3381 189.633 74.6011C187.986 72.7807 185.967 71.3363 183.712 70.366C181.457 69.3957 179.019 68.9223 176.565 68.978C174.276 68.9496 172.011 69.44 169.939 70.4124C168.333 71.0918 166.861 72.0512 165.592 73.246L164.386 74.7243H163.999V69.7524H156V121.75H163.999V103.377H164.386C164.538 103.6 164.703 103.814 164.879 104.019C165.345 104.546 165.842 105.045 166.366 105.515C167.107 106.215 167.918 106.837 168.786 107.372C171.157 108.719 173.83 109.443 176.556 109.475C179.012 109.533 181.453 109.067 183.714 108.106C185.975 107.145 188.005 105.713 189.668 103.905V103.896ZM184.3 79.7666C186.483 82.1133 187.574 85.2695 187.574 89.2353C187.574 93.201 186.483 96.3602 184.3 98.7127C182.031 100.963 178.965 102.225 175.769 102.225C172.573 102.225 169.507 100.963 167.237 98.7127C165.043 96.3661 163.949 93.2069 163.955 89.2353C163.961 85.2636 165.055 82.1074 167.237 79.7666C169.504 77.5124 172.572 76.247 175.769 76.247C178.966 76.247 182.033 77.5124 184.3 79.7666Z" fill="white"/>
<path fill-rule="evenodd" clip-rule="evenodd" d="M213.42 97.0487C214.416 99.5321 215.909 101.786 217.807 103.671C220.665 106.468 224.282 108.361 228.209 109.115C232.136 109.869 236.197 109.449 239.887 107.909C243.577 106.369 246.731 103.776 248.957 100.454C251.182 97.132 252.38 93.2283 252.4 89.23C252.456 86.5429 251.975 83.8717 250.986 81.3728C249.996 78.8739 248.518 76.5977 246.637 74.6775C244.757 72.7573 242.512 71.2318 240.034 70.1903C237.557 69.1489 234.896 68.6124 232.208 68.6124C229.521 68.6124 226.86 69.1489 224.383 70.1903C221.905 71.2318 219.66 72.7573 217.779 74.6775C215.899 76.5977 214.421 78.8739 213.431 81.3728C212.442 83.8717 211.961 86.5429 212.017 89.23C211.947 91.9046 212.424 94.5654 213.42 97.0487ZM220.395 89.23C220.389 85.2641 221.483 82.1078 223.677 79.7612C225.944 77.5069 229.011 76.2415 232.208 76.2415C235.406 76.2415 238.473 77.5069 240.74 79.7612C242.923 82.102 244.014 85.2582 244.014 89.23C244.014 93.2017 242.923 96.3609 240.74 98.7076C238.471 100.958 235.404 102.22 232.208 102.22C229.013 102.22 225.946 100.958 223.677 98.7076C221.494 96.355 220.4 93.1958 220.395 89.23Z" fill="white"/>
<path fill-rule="evenodd" clip-rule="evenodd" d="M301.725 103.668C299.85 101.783 298.375 99.5297 297.392 97.0463C296.409 94.563 295.937 91.9022 296.007 89.2276C295.951 86.5405 296.426 83.8693 297.403 81.3704C298.38 78.8715 299.84 76.5953 301.697 74.6751C303.554 72.7549 305.771 71.2294 308.218 70.1879C310.665 69.1465 313.292 68.61 315.946 68.61C318.6 68.61 321.228 69.1465 323.674 70.1879C326.121 71.2294 328.338 72.7549 330.195 74.6751C332.052 76.5953 333.512 78.8715 334.489 81.3704C335.466 83.8693 335.941 86.5405 335.886 89.2276C335.881 90.1148 335.819 90.9974 335.702 91.87L304.459 91.87C304.848 94.6227 305.868 96.9011 307.521 98.7052C309.762 100.955 312.79 102.218 315.946 102.218C319.102 102.218 322.13 100.955 324.371 98.7052C324.932 98.095 325.419 97.43 325.834 96.71H334.437C333.919 98.0161 333.266 99.2706 332.485 100.452C330.288 103.773 327.173 106.366 323.529 107.907C319.885 109.447 315.874 109.866 311.997 109.113C308.119 108.359 304.546 106.465 301.725 103.668ZM307.521 79.7588C306.275 81.1081 305.388 82.7252 304.861 84.61H327.021C326.495 82.7229 325.611 81.1058 324.371 79.7588C322.132 77.5045 319.103 76.2391 315.946 76.2391C312.789 76.2391 309.76 77.5045 307.521 79.7588Z" fill="white"/>
<path fill-rule="evenodd" clip-rule="evenodd" d="M341.082 97.0463C342.065 99.5297 343.54 101.783 345.415 103.668C348.236 106.465 351.809 108.359 355.687 109.113C359.564 109.866 363.575 109.447 367.219 107.907C370.863 106.366 373.978 103.773 376.175 100.452C376.956 99.2706 377.609 98.0161 378.127 96.71H369.524C369.109 97.43 368.622 98.095 368.061 98.7052C365.82 100.955 362.792 102.218 359.636 102.218C356.48 102.218 353.452 100.955 351.211 98.7052C349.558 96.9011 348.538 94.6227 348.149 91.87L379.392 91.87C379.509 90.9974 379.571 90.1148 379.576 89.2276C379.631 86.5405 379.156 83.8692 378.179 81.3704C377.202 78.8715 375.742 76.5953 373.885 74.6751C372.028 72.7549 369.811 71.2294 367.364 70.1879C364.918 69.1465 362.29 68.61 359.636 68.61C356.982 68.61 354.355 69.1465 351.908 70.1879C349.461 71.2294 347.244 72.7549 345.387 74.6751C343.53 76.5953 342.07 78.8715 341.093 81.3704C340.116 83.8692 339.641 86.5405 339.697 89.2276C339.627 91.9022 340.099 94.563 341.082 97.0463ZM348.551 84.61C349.078 82.7252 349.965 81.1081 351.211 79.7588C353.45 77.5044 356.479 76.2391 359.636 76.2391C362.793 76.2391 365.822 77.5044 368.061 79.7588C369.301 81.1058 370.185 82.7229 370.711 84.61H348.551Z" fill="white"/>
<path d="M392.191 77.0068L392.103 109.752H384.104L384.183 75.5372C384.186 74.0007 384.798 72.5279 385.885 71.4423C386.972 70.3566 388.446 69.7468 389.983 69.7468H407.803V77.0068H392.191Z" fill="white"/>
<path d="M257.204 69.7467V109.752H265.116V87.2939C265.021 84.3789 266.058 81.5404 268.011 79.3739C268.889 78.375 269.973 77.5778 271.188 77.037C272.403 76.4963 273.721 76.2248 275.051 76.2411C280.636 76.2411 283.428 79.4267 283.428 85.7979V109.752H291.428L291.428 85.3667C291.41 80.1904 290.147 76.1767 287.638 73.3257L287.638 73.3237C287.043 72.6998 286.403 72.1191 285.725 71.5859C284.622 70.7627 283.383 70.1401 282.064 69.7467C280.427 69.2227 278.715 68.9642 276.996 68.9811C275.504 68.9737 274.021 69.1933 272.596 69.6323C271.453 69.9599 270.362 70.4488 269.357 71.0843C268.568 71.6264 267.842 72.2551 267.192 72.9587C266.736 73.4123 266.326 73.9106 265.969 74.4459C265.82 74.7275 265.688 74.9475 265.591 75.0971H265.204V69.7467H257.204Z" fill="white"/>
</g>
<defs>
<clipPath id="clip0_138_9464">
<rect width="364" height="88" fill="white" transform="translate(44 44)"/>
</clipPath>
</defs>
</svg>
