<svg width="512" height="512" viewBox="0 0 512 512" fill="none" xmlns="http://www.w3.org/2000/svg">
<rect width="512" height="512" fill="white"/>
<rect width="512" height="512" rx="48" fill="#4038FF"/>
<path d="M297.265 86.0259H328.174V231.19C328.174 266.55 314.912 298.821 293.152 323.385C295.838 311.603 297.265 299.366 297.265 286.818V86.0259Z" fill="white"/>
<path d="M198.179 339.449V339.475C183.14 358.018 160.276 369.982 134.648 370.332L143.9 339.449H198.179Z" fill="white"/>
<path d="M216.891 283.833V286.921C216.891 296.679 215.23 306.022 212.129 314.716H151.284L160.51 283.82H216.891V283.833Z" fill="white"/>
<path d="M352.894 86.0127H383.803V175.652C383.803 211.012 370.541 243.283 348.78 267.847C351.466 256.065 352.894 243.828 352.894 231.28V86.0127Z" fill="white"/>
<path d="M272.532 86V286.935C272.532 363.65 210.091 426 133.442 426H118L127.226 395.117H133.442C192.833 395.117 241.61 346.885 241.61 286.948V86H272.532Z" fill="white"/>
</svg>
