<svg width="198" height="354" viewBox="0 0 198 354" fill="none" xmlns="http://www.w3.org/2000/svg">
<path d="M48.4466 353.621L47.6912 353.443L52.0615 328.803C54.582 314.855 60.2474 301.73 68.5027 290.984L104.502 243.937C116.225 228.674 122.471 209.026 122.238 188.72L123.028 188.801C123.256 209.274 116.94 229.116 105.119 244.503L69.1194 291.55C60.9283 302.269 55.268 315.227 52.8465 329.051L48.4466 353.621Z" fill="black"/>
<path d="M125.443 176.447C125.464 177.919 125.864 178.402 127.59 180H121.402C122.307 179.075 122.981 178.003 123.381 176.952C123.675 176.153 123.149 175.27 122.286 175.186C120.897 175.059 119.55 174.933 118.203 174.702C110.753 173.441 104.207 170.119 98.2091 165.662C92.5476 161.457 87.6227 156.475 83.1819 150.987C75.942 142.073 70.1332 132.297 65.2925 121.933C62.1987 115.331 59.5889 108.562 57.4843 101.603C55.6953 95.611 54.2642 89.5142 53.5065 83.2701C52.833 77.7409 52.8961 72.2327 53.3171 66.6825C53.9695 58.1889 55.8426 49.9687 59.0838 42.1058C62.2408 34.4322 66.6395 27.5364 72.3641 21.4816C76.9311 16.6461 82.1296 12.6306 87.9174 9.35094C95.0311 5.33542 102.65 2.70746 110.647 1.23581C116.898 0.0795036 123.212 -0.193804 129.547 0.121551C136.303 0.478953 142.933 1.69833 149.394 3.77967C157.034 6.23944 164.063 9.85551 170.419 14.712C176.67 19.5054 181.932 25.2448 186.162 31.9093C190.645 38.9733 193.76 46.6049 195.654 54.741C197.148 61.1743 197.885 67.6916 197.99 74.3141C198.137 82.7235 196.622 90.8597 194.391 98.9117C191.971 107.637 188.624 115.983 184.626 124.077C181.237 130.952 177.323 137.532 172.84 143.776C168.399 149.957 163.453 155.739 157.728 160.784C151.33 166.461 144.301 171.128 136.008 173.504C132.915 174.387 129.716 174.618 126.538 175.144C125.906 175.249 125.422 175.795 125.443 176.447Z" fill="#215CFF"/>
<path d="M152.536 69.9067C151.647 69.8369 150.771 69.7673 149.922 69.5881C147.665 69.0997 145.671 69.5233 144.521 71.7579C146.203 72.4928 148.007 72.9149 149.871 72.9766C155.231 73.1442 159.561 70.6835 162.006 65.3055L162.004 65.2584C159.26 67.6845 157.031 70.2871 152.536 69.9067Z" fill="white"/>
<path d="M120.825 99.8758L121.011 105.604L125.304 105.638C125.304 105.638 123.989 103.682 124.491 98.9475C124.592 98.0383 121.962 98.5982 120.825 99.8758Z" fill="white"/>
<path d="M141.262 105.936L142.994 105.965C142.994 105.965 141.999 103.525 141.905 100.622C141.845 98.7857 140.701 98.4943 140.769 100.613C140.882 104.081 141.201 105.857 141.262 105.936Z" fill="white"/>
<path d="M111.703 70.2452L117.234 70.2886C117.234 70.2886 125.019 59.5083 128.021 57.4138C129.331 56.5141 133.749 58.6041 135.351 58.648C140.541 48.1611 152.46 47.7682 151.572 47.7456C110.225 47.0603 108.672 65.6088 106.715 73.9245C107.374 71.3723 109.214 70.2257 111.703 70.2452Z" fill="white"/>
<path d="M137.794 99.068C138.912 86.8389 131.033 88.8952 125.575 81.2116L124.783 80.1071L120.149 73.591L114.624 73.7516C112.08 73.8258 109.958 75.6919 109.389 78.3389C107.696 86.2645 104.36 105.489 104.36 105.489L110.021 105.518C110.021 105.518 109.424 104.133 110.338 99.1193C110.351 99.0723 111.675 91.8812 111.675 91.8812L116.178 86.2213L114.152 96.9056C114.152 96.9056 132.414 89.2983 132.431 91.6048C132.466 96.2805 132.654 104.362 132.784 105.681L138.578 105.742C138.607 105.758 137.366 103.819 137.794 99.068Z" fill="white"/>
<path d="M160.576 57.0891C160.143 57.2113 158.547 60.0542 157.959 60.7713C157.61 61.2079 158.094 63.1415 157.907 63.2028C157.705 63.264 155.98 62.1051 154.651 63.3185C154.355 63.5985 153.875 64.9441 153.467 64.9252C153.102 64.8909 152.726 63.6328 152.414 63.4107C148.133 60.1922 147.835 60.8802 146.557 60.5093C144.707 59.977 140.858 57.4993 140.587 57.6854C139.533 58.3675 137.258 60.4677 135.689 61.4595C135.631 61.4434 132.69 60.5103 131.589 60.1879C130.237 59.785 128.826 60.2603 127.961 61.4146C127.194 62.4441 121.591 69.6016 121.548 69.6326C121.464 69.7104 122.499 71.5856 123.325 72.8158C123.692 73.3678 125.24 71.309 125.601 71.657C126.081 72.1 124.719 74.5212 125.065 74.8848C128.891 78.8999 132.337 80.6057 136.552 80.0112C136.405 76.3701 136.214 73.168 136.072 69.6838C135.984 69.6674 133.984 67.6592 133.73 66.9982C133.429 66.2428 133.908 65.3051 134.03 64.6001C134.03 64.6001 134.045 64.6002 134.075 64.6161L137.526 68.7381L139.086 76.9246L144.58 75.8538C143.054 74.5396 142.189 72.5402 142.268 70.4855L143.498 71.1855L145.677 67.9235C145.677 67.9235 143.779 65.916 143.147 65.2835C143.072 65.2045 141.385 66.5876 141.385 66.5876L140.724 65.4998C139.863 64.081 140.932 62.0498 142.977 62.7405C148.548 69.4208 161.48 71.0756 160.576 57.0891Z" fill="white"/>
<path d="M152.997 46.8002C152.997 46.8002 164.218 49.5868 162.673 61.1692C162.673 61.1692 163.253 50.3323 151.74 50.242C151.74 50.242 152.113 48.7388 152.298 48.599C152.298 48.599 153.212 48.0727 153.2 47.6961L152.997 46.8002Z" fill="white"/>
<path d="M104.016 89.8915C104.379 87.6194 104.648 83.3383 105.015 81.1917C103.618 87.0486 99.9698 92.119 99.9698 92.119L100.266 93.1726L104.016 89.8915Z" fill="white"/>
</svg>
