<svg width="87" height="99" viewBox="0 0 87 99" fill="none" xmlns="http://www.w3.org/2000/svg">
<path d="M84.2715 62.0185L17.0608 55.9991L16.6137 34.7077C16.2353 15.7896 31.7825 0.173645 51.1821 0.00166306C71.648 -0.170319 87.9176 16.7871 86.3009 36.7027L84.2715 62.0185Z" fill="#2B1410"/>
<path d="M26.726 98.8228C12.0731 98.8228 0.240723 87.2656 0.240723 72.991L86.3351 36.7028L83.1018 88.3319C82.7234 94.2137 77.736 98.8228 71.6822 98.8228H26.726Z" fill="#69140E"/>
<path d="M84.2715 62.0185L17.0608 55.9991L16.6137 34.7077C16.2353 15.7896 31.7825 0.173645 51.1821 0.00166306C71.648 -0.170319 87.9176 16.7871 86.3009 36.7027L84.2715 62.0185Z" fill="#69140E"/>
<path d="M38.0425 78.5288C47.7767 79.1136 63.0831 78.2193 63.0831 78.2193L60.7442 21.6371L27.0356 24.2856L27.9299 44.9235C27.9643 45.4738 27.5172 45.9554 26.9324 45.9898C26.4853 45.9898 17.5766 61.6058 17.0606 62.0529L0 73.0942C2.85491 98.1348 23.8024 98.8915 30.6817 98.4788H61.7761C65.6629 98.4788 34.6028 77.8065 38.0425 78.5288Z" fill="#69140E"/>
<path d="M24.8342 70.0674C28.2739 84.2731 39.9687 95.1424 54.6904 97.7565L60.1938 98.754H23.9399L24.8342 70.0674Z" fill="#2B1410"/>
<path d="M83.7557 77.6001L86.1978 38.4569L72.68 37.7346C72.336 49.6014 78.6994 59.3356 78.6306 62.2593C78.5618 64.6327 77.4267 66.9028 73.3679 67.0404H64.4937C64.4937 73.0598 69.4811 77.5657 75.6725 77.5657H83.7557V77.6001Z" fill="#3C1518"/>
<path d="M20.7756 42.5502C26.0038 42.5502 30.2346 38.3194 30.2346 33.0911V14.8954C30.2346 9.66713 34.4654 5.43636 39.6936 5.43636H70.4097C64.9063 1.92792 58.3021 -0.0670706 51.1821 0.00172238C32.8487 0.173705 17.9551 14.1387 16.7168 31.6465L16.9576 42.5502H20.7756Z" fill="#2B1410"/>
<path d="M19.4339 62.8785L17.5077 64.0824L10.9036 53.8666C8.66779 50.427 9.73408 45.8523 13.2425 43.6853C16.6822 41.5871 22.9423 42.791 25.1093 46.1274C28.8241 51.906 25.3501 59.2669 19.4339 62.8785Z" fill="#69140E"/>
<path d="M86.0256 42.5845L79.6623 43.1693C76.3602 43.5132 73.4365 40.9679 73.4365 37.7346L86.1976 38.4569L86.0256 42.5845Z" fill="black"/>
<path d="M80.1438 50.4614C81.8724 50.4614 83.2738 48.9368 83.2738 47.0561C83.2738 45.1755 81.8724 43.6509 80.1438 43.6509C78.4151 43.6509 77.0137 45.1755 77.0137 47.0561C77.0137 48.9368 78.4151 50.4614 80.1438 50.4614Z" fill="black"/>
<path d="M49.4279 42.1374L59.4029 43.1693C62.705 43.5132 65.6287 40.9679 65.6287 37.7346L46.2979 38.7321C46.2979 40.4863 47.6393 41.9654 49.4279 42.1374Z" fill="black"/>
<path d="M58.2331 50.4614C59.9618 50.4614 61.3632 48.9368 61.3632 47.0561C61.3632 45.1755 59.9618 43.6509 58.2331 43.6509C56.5044 43.6509 55.103 45.1755 55.103 47.0561C55.103 48.9368 56.5044 50.4614 58.2331 50.4614Z" fill="black"/>
</svg>
