<svg width="133" height="17" viewBox="0 0 133 17" fill="none" xmlns="http://www.w3.org/2000/svg">
<path d="M18.4332 5.6524V3.30422C18.4332 1.42568 16.8566 0 13.7201 0H0V7.69868V7.84963V16.5882H13.7201C16.8566 16.5882 18.4332 15.498 18.4332 13.6362V9.8959C18.4332 8.87277 17.7623 8.01736 16.8398 7.76577C17.7623 7.53095 18.4332 6.67554 18.4332 5.6524ZM15.3974 12.4621C15.3974 13.284 14.7432 13.9381 13.9214 13.9381H3.05263V9.14113H13.9214C14.7432 9.14113 15.3974 9.79527 15.3974 10.6171V12.4621ZM15.3974 5.4679C15.3974 6.28977 14.7432 6.9439 13.9214 6.9439H3.05263V2.63332H13.9214C14.7432 2.63332 15.3974 3.28745 15.3974 4.10931V5.4679Z" fill="black"/>
<path d="M132.639 0H130.106V12.3112L114.189 0H111.136V16.5882H113.669V3.62291L131.331 16.5882H132.639V0Z" fill="black"/>
<path d="M107.362 0H104.31V16.5882H107.362V0Z" fill="black"/>
<path d="M25.4608 0H22.4082V16.5882H25.4608V0Z" fill="black"/>
<path d="M48.2381 0H39.8349H36.7823H28.2114V2.583H36.7823V16.5882H39.8349V2.583H48.2381V0Z" fill="black"/>
<path d="M73.0787 0L63.4679 13.4182L53.8739 0H51.1567V16.5882H53.6726V4.96472L62.277 16.5882H64.6588L73.2632 4.96472V16.5882H75.7959V0H73.0787Z" fill="black"/>
<path d="M102.112 16.5882L91.2769 0H88.7274L77.8755 16.5882H81.2636L90.0022 3.23713L98.724 16.5882H102.112Z" fill="black"/>
</svg>
