<svg width="115" height="24" viewBox="0 0 115 24" fill="none" xmlns="http://www.w3.org/2000/svg">
<path d="M57.9469 15.8379C58.655 16.2861 59.3003 16.7432 59.9905 17.1107C60.5462 17.4064 61.1646 17.4602 61.7741 17.263C62.778 16.9404 63.011 15.9992 62.2312 15.3001C61.8548 14.9685 61.3977 14.7265 60.9675 14.4665C60.0532 13.9287 59.0942 13.4627 58.2247 12.8711C57.3015 12.2437 56.6472 11.3653 56.45 10.227C56.1094 8.25509 57.2478 6.40869 59.2286 5.72749C61.4604 4.95666 64.1494 5.74542 65.6103 7.61871C65.6552 7.67249 65.691 7.74419 65.7269 7.79797C64.9919 8.52398 64.2748 9.23207 63.5399 9.94912C63.1724 9.68023 62.7959 9.36652 62.3926 9.09762C61.8458 8.74806 61.2543 8.57776 60.6 8.73014C60.1787 8.82873 59.8381 9.03488 59.7574 9.492C59.6857 9.92223 59.9277 10.2091 60.2773 10.4062C60.9943 10.8006 61.7383 11.1502 62.4553 11.5535C63.1007 11.921 63.7729 12.2706 64.3555 12.7187C66.8742 14.6637 66.5246 18.4372 63.7102 19.9251C61.2543 21.2247 57.9738 20.5525 56.2349 18.3924C56.1543 18.2938 56.0825 18.0607 56.1363 17.989C56.7458 17.2361 57.3822 16.5012 57.9469 15.8379Z" fill="black"/>
<path d="M93.5212 0.788818H89.5864L84.6656 14.7354L79.7449 0.788818H75.8101L82.7386 20.194L82.7117 20.2747H82.7744H86.5568H86.6196L86.5927 20.194L93.5212 0.788818Z" fill="black"/>
<path d="M74.6091 5.91563H72.5655V0.510864H68.9713V5.91563H66.9277V9.00791H68.9713V20.2746H72.5655V9.00791H74.6091V5.91563Z" fill="black"/>
<path d="M8.12955 5.67376C6.34589 5.67376 4.7146 6.38185 3.47769 7.53809V0.286926H0V20.3195H3.47769V18.4641C4.7146 19.6204 6.33693 20.3285 8.12955 20.3285C11.9837 20.3285 15.1118 17.048 15.1118 13.0056C15.1118 8.95427 11.9837 5.67376 8.12955 5.67376ZM7.32287 17.272C5.40476 17.272 3.81829 15.7662 3.47769 13.7764V12.2258C3.80933 10.236 5.40476 8.73019 7.32287 8.73019C9.48299 8.73019 11.2308 10.6393 11.2308 12.9966C11.2308 15.3539 9.48299 17.272 7.32287 17.272Z" fill="black"/>
<path d="M47.6029 5.50336C43.3991 5.50336 39.9932 8.90934 39.9932 13.1131C39.9932 17.3168 43.3991 20.7227 47.6029 20.7227C51.8066 20.7227 55.2125 17.3168 55.2125 13.1131C55.2125 8.90934 51.8066 5.50336 47.6029 5.50336ZM47.6029 17.3616C45.3979 17.3616 43.6053 15.4614 43.6053 13.1131C43.6053 10.7647 45.3979 8.86453 47.6029 8.86453C49.8078 8.86453 51.6004 10.7647 51.6004 13.1131C51.6004 15.4614 49.8078 17.3616 47.6029 17.3616Z" fill="black"/>
<path d="M27.4361 23.806C21.2785 23.806 16.2681 18.7956 16.2681 12.6379C16.2681 8.86446 18.1503 5.3778 21.3053 3.30732C22.2106 2.70679 23.4386 2.95776 24.0391 3.872C24.6396 4.77727 24.3887 6.00522 23.4744 6.60575C21.4308 7.95022 20.2118 10.2089 20.2118 12.6469C20.2118 16.6265 23.4475 19.8712 27.4361 19.8712C31.4157 19.8712 34.6604 16.6355 34.6604 12.6469C34.6604 10.2269 33.4593 7.98607 31.4426 6.6416C30.5374 6.03211 30.2954 4.81313 30.8959 3.90785C31.4964 3.00258 32.7244 2.76057 33.6296 3.3611C36.7398 5.44055 38.5952 8.90928 38.5952 12.6469C38.5952 18.7956 33.5938 23.806 27.4361 23.806Z" fill="black"/>
<path d="M27.4181 14.0542C26.4322 14.0542 25.6255 13.2475 25.6255 12.2616V1.79263C25.6255 0.806681 26.4322 0 27.4181 0C28.4041 0 29.2107 0.806681 29.2107 1.79263V12.2616C29.2107 13.2475 28.4041 14.0542 27.4181 14.0542Z" fill="black"/>
<path d="M111.761 14.4037C110.489 16.0619 108.427 17.1375 106.097 17.1375C102.234 17.1375 99.1055 14.1707 99.1055 10.5137C99.1055 6.85675 102.234 3.88995 106.097 3.88995C108.454 3.88995 110.542 5.00138 111.806 6.69541L114.495 4.17677C112.541 1.75673 109.503 0.197144 106.088 0.197144C100.199 0.197144 95.4307 4.82212 95.4307 10.5137C95.4307 16.2053 100.199 20.8303 106.088 20.8303C109.422 20.8303 112.398 19.3424 114.352 17.0209L111.761 14.4037Z" fill="black"/>
</svg>
