<svg width="67" height="47" viewBox="0 0 67 47" fill="none" xmlns="http://www.w3.org/2000/svg">
<path d="M11.9244 15.0914V11.6055H12.7108C13.763 11.6055 14.39 12.4451 14.39 13.3485C14.39 14.2518 13.763 15.0914 12.7108 15.0914H11.9244ZM16.5262 13.3485C16.5262 11.5311 15.1871 9.84132 12.8596 9.84132H9.84131V16.845H12.8596C15.2083 16.8556 16.5262 15.1658 16.5262 13.3485ZM17.4083 9.85194H19.5126V16.8556H17.4083V9.85194ZM24.1782 17.0363C26.1549 17.0363 27.4196 15.9417 27.6747 14.3369H28.2699V12.9659H24.4014V14.3369H25.5598C25.4641 14.8789 25.039 15.3252 24.2313 15.3252C23.0941 15.3252 22.5309 14.4431 22.5309 13.4016C22.5309 12.3814 23.0623 11.4355 24.1357 11.4355C24.8584 11.4355 25.2516 11.8712 25.3153 12.2751H27.6216C27.494 10.8297 26.1337 9.65002 24.1675 9.65002C21.7869 9.65002 20.4159 11.3823 20.4159 13.3804C20.4053 15.3571 21.7232 17.0363 24.1782 17.0363ZM28.9926 9.85194H31.0969V16.8556H28.9926V9.85194ZM33.6794 16.8556H35.7624V11.6374H37.346V9.85194H32.0959V11.6374H33.6794V16.8556ZM40.8213 11.9456L41.5652 14.5282H40.0879L40.8213 11.9456ZM39.3971 16.8556L39.6416 16.0479H41.9903L42.2348 16.8556H44.5516L41.9053 9.85194H39.7266L37.1441 16.8556H39.3971ZM45.3274 9.85194V16.8556H49.2385V15.0702H47.3999V9.85194H45.3274ZM13.2953 26.8883C15.4634 26.8883 16.7494 25.5066 16.9725 23.9337H14.7726C14.6344 24.5395 14.1031 24.9965 13.306 24.9965C12.2644 24.9965 11.5949 24.2101 11.5949 23.1898C11.5949 22.2439 12.1794 21.3831 13.2847 21.3831C14.1562 21.3831 14.6557 21.9038 14.7726 22.5628H16.9513C16.7706 20.8836 15.4634 19.4913 13.2741 19.4913C10.8297 19.4913 9.44809 21.2449 9.44809 23.1792C9.44809 25.1453 10.8616 26.8883 13.2953 26.8883ZM20.7985 26.8883C22.6159 26.8883 23.7212 25.783 23.7212 24.2632V19.6933H21.6381V24.2419C21.6381 24.7202 21.2874 25.124 20.7985 25.124C20.3097 25.124 19.9483 24.7202 19.9483 24.2419V19.6933H17.8653V24.2632C17.8653 25.7936 18.9812 26.8883 20.7985 26.8883ZM27.8979 23.2961H27.037V21.3193H27.9085C28.4718 21.3193 28.8331 21.7657 28.8331 22.3077C28.8225 22.8497 28.4505 23.2961 27.8979 23.2961ZM30.9481 22.3077C30.9481 20.8942 29.9172 19.6933 28.3124 19.6933H24.954V26.697H27.037V24.9009H27.4303L28.6206 26.697H31.0756L29.6727 24.5608C30.4698 24.1144 30.9481 23.2536 30.9481 22.3077ZM34.0195 21.3193H34.891C35.4542 21.3193 35.8156 21.7657 35.8156 22.3077C35.8156 22.8497 35.4436 23.2961 34.8803 23.2961H34.0195V21.3193ZM34.0195 24.9115H34.4127L35.603 26.7076H38.0474L36.6446 24.5714C37.4416 24.125 37.9305 23.2642 37.9305 22.3077C37.9305 20.8942 36.8996 19.6933 35.2948 19.6933H31.9364V26.697H34.0195V24.9115ZM43.4251 21.2555V19.6933H38.9083V26.697H43.4251V25.1347H40.9913V23.9656H43.4251V22.4777H40.9913V21.2555H43.4251ZM49.0259 23.8487L46.7409 19.6933H44.6154V26.697H46.6984V22.6797L48.994 26.697H51.1196V19.6933H49.0259V23.8487ZM55.8489 24.9965C54.8074 24.9965 54.1379 24.2101 54.1379 23.1898C54.1379 22.2439 54.7224 21.3831 55.8277 21.3831C56.6992 21.3831 57.1987 21.9038 57.3156 22.5628H59.4943C59.3136 20.8836 58.0064 19.4913 55.8277 19.4913C53.3833 19.4913 52.0017 21.2449 52.0017 23.1792C52.0017 25.1347 53.4152 26.867 55.8489 26.867C58.017 26.867 59.303 25.4854 59.5155 23.9125H57.3156C57.1774 24.5395 56.646 24.9965 55.8489 24.9965ZM64.0323 19.6933L62.9695 22.1802L61.843 19.6933H59.3986L61.7473 24.2313L60.5358 26.7076H62.8739L66.3492 19.7039H64.0323V19.6933ZM13.4441 34.0301H14.6026C14.5069 34.5721 14.0818 35.0185 13.2741 35.0185C12.1369 35.0185 11.5736 34.1364 11.5736 33.0949C11.5736 32.0746 12.105 31.1287 13.1784 31.1287C13.9011 31.1287 14.2944 31.5645 14.3581 31.9683H16.6643C16.5368 30.523 15.1765 29.3433 13.2103 29.3433C10.8297 29.3433 9.45872 31.0756 9.45872 33.0736C9.45872 35.0398 10.7766 36.7296 13.2316 36.7296C15.2083 36.7296 16.473 35.6349 16.7281 34.0301H17.3233V32.6591H13.4548V34.0301H13.4441ZM20.9792 33.148H20.1184V31.1712H20.9898C21.5531 31.1712 21.9145 31.6176 21.9145 32.1596C21.9145 32.691 21.5425 33.148 20.9792 33.148ZM24.0294 32.149C24.0294 30.7355 22.9985 29.5346 21.3937 29.5346H18.0353V36.5383H20.1184V34.7528H20.5116L21.7019 36.5489H24.1569L22.7541 34.4127C23.5511 33.9664 24.0294 33.1055 24.0294 32.149ZM28.4612 34.8378C27.3984 34.8378 26.7714 33.977 26.7714 33.0417C26.7714 32.1065 27.3984 31.2563 28.4612 31.2563C29.5346 31.2563 30.151 32.1171 30.151 33.0417C30.1616 33.977 29.5346 34.8378 28.4612 34.8378ZM28.4612 29.3539C26.0593 29.3539 24.6671 31.1181 24.6671 33.0417C24.6671 34.976 26.0593 36.7402 28.4612 36.7402C30.8737 36.7402 32.2659 34.976 32.2659 33.0417C32.2659 31.1075 30.8737 29.3539 28.4612 29.3539ZM39.0677 34.1151V29.5452H36.9846V34.0939C36.9846 34.5721 36.6339 34.976 36.145 34.976C35.6562 34.976 35.2948 34.5721 35.2948 34.0939V29.5452H33.2118V34.1151C33.2118 35.6349 34.3277 36.7402 36.145 36.7402C37.973 36.7402 39.0783 35.6349 39.0677 34.1151ZM43.2444 33.148H42.3835V31.1712H43.255C43.8183 31.1712 44.1796 31.6176 44.1796 32.1596C44.169 32.691 43.8077 33.148 43.2444 33.148ZM43.6589 29.5452H40.3005V36.5489H42.3835V34.7528H43.6695C45.2743 34.7528 46.3052 33.5519 46.3052 32.149C46.2946 30.7461 45.2637 29.5452 43.6589 29.5452ZM0 9.85194H7.0037V16.8556H0V9.85194ZM35.3798 39.3865H42.3835V46.3902H35.3798V39.3865ZM40.3962 0H47.3999V7.0037H40.3962V0Z" fill="black"/>
</svg>
