<svg width="359" height="422" viewBox="0 0 359 422" fill="none" xmlns="http://www.w3.org/2000/svg">
<rect y="397.569" width="235.011" height="12.9194" fill="url(#paint0_linear)"/>
<path d="M217.071 387.91L232.02 383.419C235.342 382.435 237.865 379.728 238.665 376.344L256.075 302.826L214.302 287.261L221.316 332.049C222.977 342.138 222.792 352.412 220.885 362.44L217.071 387.91Z" fill="#BF141A"/>
<path d="M208.95 390.309L229.252 384.219L248.016 302.826L206.243 287.261L213.257 332.049C214.918 342.138 214.733 352.412 212.826 362.44L208.95 390.309Z" fill="#FF6A49"/>
<path d="M239.526 420.578C239.157 420.885 238.788 421.193 238.357 421.5C238.788 421.193 239.157 420.885 239.526 420.578Z" fill="#F2CE96"/>
<path d="M263.704 396.031C266.411 396.031 268.625 398.246 268.625 400.952C268.625 406.243 264.319 410.55 259.028 410.55H210.611C206.551 410.55 203.229 407.228 203.229 403.167V398.615H226.299L235.466 389.387C237.619 387.233 240.941 386.68 243.648 388.033L238.603 393.508C236.265 396.031 238.049 400.214 241.556 400.214H243.402C245.863 400.214 247.524 398.061 247.401 395.908C247.278 394.431 248.508 393.078 249.923 393.324C249.985 393.324 250.108 393.324 250.169 393.385L255.583 394.923C258.228 395.6 260.935 396.031 263.704 396.031Z" fill="black"/>
<path d="M215.964 89.5942C240.359 89.5942 260.136 69.8177 260.136 45.4221C260.136 21.0265 240.359 1.24995 215.964 1.24995C191.568 1.24995 171.792 21.0265 171.792 45.4221C171.792 69.8177 191.568 89.5942 215.964 89.5942Z" fill="black"/>
<path d="M266.595 149.577C253.061 94.3313 214.179 85.3492 211.534 89.6557C204.767 100.976 194.124 113.71 193.385 126.876C193.385 126.876 186.372 199.778 186.064 200.148C185.572 200.701 153.766 275.819 153.581 276.434C150.136 287.384 170.253 290.399 177.082 290.399C198.43 290.399 204.09 305.595 225.745 305.595C234.912 305.595 271.456 307.194 283.083 296.551C301.785 279.448 330.085 284.739 335.499 273.358C338.637 266.775 277.115 192.396 266.595 149.577Z" fill="#FFDFCA"/>
<path d="M322.272 35.9478C322.457 38.2241 322.518 40.3158 322.703 42.4075C322.949 44.8068 322.272 46.9601 321.288 49.0518C319.996 51.7587 319.073 54.5272 319.073 57.6032C319.073 58.7106 318.396 60.0025 317.658 60.8638C315.32 63.6323 312.798 66.3392 310.275 68.9846C306.646 72.6144 282.037 94.3313 280.438 96.1154C279.269 97.4689 274.409 126.261 274.224 126.63C274.532 126.63 279.269 124.661 280.93 123.431C284.437 120.908 288.066 118.509 291.081 115.495C294.465 112.172 297.602 108.481 300.371 104.605C305.784 96.9767 323.318 70.6457 328.055 66.2162C330.454 63.9399 333.53 62.5249 336.853 62.2173C342.02 61.7251 353.894 60.6793 353.955 60.5562C353.463 60.1871 353.033 59.6334 352.479 59.5104C351.125 59.2028 347.004 58.8336 346.388 58.7106C346.327 58.5876 355.37 51.5742 356.416 50.5283C357.216 49.667 358.077 48.8672 359 48.0059C358.139 47.2062 356.97 47.2062 355.863 47.3292C348.726 47.8829 330.331 48.7442 328.363 48.4981C327.871 48.4366 327.255 48.0059 326.886 47.5753C325.779 46.0988 325.779 44.3762 325.902 42.6536C325.963 41.6077 326.025 40.5004 325.84 39.4545C325.656 37.855 324.856 36.6861 323.133 36.3784C322.887 36.3169 322.764 36.1939 322.272 35.9478Z" fill="#BF141A"/>
<path d="M185.695 205.931L186.556 197.379C186.31 199.04 186.187 200.086 186.126 200.148C185.633 200.701 153.827 275.819 153.642 276.434C151.981 281.663 155.734 285.108 160.84 287.262L164.655 278.033C169.699 265.668 173.452 252.81 175.729 239.644L177.39 230.17L185.695 205.931Z" fill="#FEC9B9"/>
<path d="M304.308 264.806C303.077 259.946 298.709 256.501 293.665 256.501L299.94 286.769C303.016 285.662 306.092 284.801 309.106 284.001L304.308 264.806Z" fill="#FEC9B9"/>
<path d="M276.008 229.678L260.751 259.577C253.368 274.096 247.647 289.107 247.647 305.41C254.599 305.103 262.104 304.364 268.626 302.888L274.839 280.31C275.578 277.664 275.393 274.834 274.409 272.25C273.363 269.605 273.24 266.652 274.04 263.884L280.13 243.889C281.299 240.013 280.561 235.768 278.1 232.569L276.008 229.678Z" fill="#FEC9B9"/>
<path d="M277.115 177.631H256.69L310.829 247.826H322.272L277.115 177.631Z" fill="#FEC9B9"/>
<path d="M194.123 266.406C198.86 261.607 201.075 251.456 207.166 246.35C207.473 247.396 208.765 247.457 208.888 248.565C209.011 249.857 209.134 251.21 209.504 252.502C210.057 254.409 211.165 255.701 213.318 255.763C213.502 255.763 213.749 255.886 214.364 256.132C213.749 253.363 213.256 250.841 212.641 248.319C212.087 246.042 209.565 224.325 209.504 222.91C209.442 218.419 209.565 213.867 209.873 209.376C210.303 203.039 213.379 182.43 213.441 179.415C213.502 177.2 193.693 132.351 193.077 134.874C191.909 140.042 189.632 162.312 190.186 168.157C191.355 179.6 196.338 218.358 195.538 226.356C195.108 230.416 189.202 266.837 189.079 268.313C190.555 268.313 193.077 267.452 194.123 266.406Z" fill="#FF6A49"/>
<path d="M269.979 28.2577L265.365 21.3058C261.858 16.015 257.367 11.5855 252.261 8.14033H257.244C261.674 8.14033 265.242 4.57211 265.242 0.142593H214.672V0.204114C190.494 1.06541 171.238 21.3058 172.099 45.8528C172.899 69.1077 191.909 87.9332 215.164 88.4869C240.08 89.1021 260.443 69.1077 260.443 44.3147C260.443 42.5921 260.32 40.8695 260.136 39.2085C259.459 33.364 264.073 28.2577 269.979 28.2577Z" fill="black"/>
<path d="M263.704 46.591C256.875 43.3919 251.153 37.4859 248.939 30.2879L246.17 21.2443C243.34 11.8931 235.035 5.31035 225.315 4.5721C225.315 9.98595 223.407 15.2152 219.901 19.3372L213.441 26.9043C207.904 33.364 206.489 42.4076 209.688 50.2823L212.764 57.7878C212.887 58.0954 212.887 58.5261 212.641 58.7722C212.272 59.3259 211.472 59.4489 210.98 58.9567C209.258 57.2957 206.92 56.3728 204.274 56.5574C200.029 56.865 196.584 60.3102 196.277 64.4936C195.907 69.1692 199.23 73.1066 203.659 73.7833C203.659 73.8448 207.966 74.214 211.226 74.5831C211.288 77.3515 211.288 82.2732 211.288 84.3649C211.288 98.0841 218.732 110.081 232.512 107.989V93.0394C232.512 90.8247 233.435 88.7329 235.035 87.2564C238.295 84.2419 242.54 82.5193 246.97 82.5193C256.629 82.5193 264.503 74.6446 264.503 64.9858V61.7252V46.9601V46.591H263.704Z" fill="#FF6A49"/>
<defs>
<linearGradient id="paint0_linear" x1="-14.7651" y1="410.488" x2="206.711" y2="410.488" gradientUnits="userSpaceOnUse">
<stop stop-color="#C4C4C4" stop-opacity="0"/>
<stop offset="1" stop-color="#ECE9E4"/>
</linearGradient>
</defs>
</svg>
