<svg width="17" height="17" viewBox="0 0 17 17" fill="none" xmlns="http://www.w3.org/2000/svg">
<path d="M13.7483 3.14554C12.382 4.43001 10.5395 5.21898 8.51418 5.21898C6.47922 5.21898 4.63189 4.4252 3.26562 3.1311" stroke="#1E70FA" stroke-miterlimit="10"/>
<path d="M3.21289 13.8159C4.58877 12.493 6.45535 11.6799 8.51437 11.6799C10.5638 11.6799 12.4303 12.4881 13.8014 13.8015" stroke="#1E70FA" stroke-miterlimit="10"/>
<path d="M6.62861 15.7643C5.42592 13.9073 4.68506 11.4057 4.68506 8.65395C4.68987 5.70976 5.53657 3.05421 6.8932 1.16357" stroke="#1E70FA" stroke-miterlimit="10"/>
<path d="M10.0635 1.16357C11.4201 3.05421 12.2668 5.70976 12.2668 8.65395C12.2668 11.4105 11.526 13.9169 10.3184 15.7787" stroke="#1E70FA" stroke-miterlimit="10"/>
<path d="M8.5 16C12.6421 16 16 12.6421 16 8.5C16 4.35786 12.6421 1 8.5 1C4.35786 1 1 4.35786 1 8.5C1 12.6421 4.35786 16 8.5 16Z" stroke="#1E70FA" stroke-width="2" stroke-miterlimit="10"/>
<path d="M1 8.5H16" stroke="#1E70FA" stroke-miterlimit="10"/>
<path d="M8.5 1V16" stroke="#1E70FA" stroke-miterlimit="10"/>
</svg>
