<svg width="207" height="185" viewBox="0 0 207 185" fill="none" xmlns="http://www.w3.org/2000/svg">
<path d="M84.7152 72.2429H115.735L109.211 50.5395L105.276 45.0058L89.6905 39.1421L88.0152 36.2737H84.7152H79.2323H75.9323L74.257 39.1421L58.6711 45.0058L54.762 50.5395L48.2129 72.2429H79.2323H81.9737H84.7152Z" fill="#010101"/>
<path d="M86.8477 45.9196H77.024C74.6125 45.9196 72.8611 43.6097 73.5464 41.2997L74.7395 37.1875H89.1323L90.3253 41.2997C91.0107 43.6097 89.2592 45.9196 86.8477 45.9196Z" fill="#FF6A49"/>
<path d="M81.9735 40.8683C80.019 40.8683 78.1152 40.2083 76.5921 38.9899L75.9321 38.4822L76.4398 40.6144L81.9735 43.4575L87.5073 40.6144L88.015 38.4822L87.355 38.9899C85.8319 40.2083 83.9281 40.8683 81.9735 40.8683Z" fill="#010101"/>
<path d="M92.0259 21.881C92.1274 20.8148 92.2036 19.901 92.2036 19.241C92.2036 13.6058 87.6344 9.01123 81.9738 9.01123C76.3385 9.01123 71.744 13.5804 71.744 19.241C71.744 19.901 71.8201 20.8148 71.9217 21.881C71.1855 21.8048 70.6271 22.3379 70.7032 23.0233L71.4902 29.2424C71.5155 29.4454 71.5917 29.6231 71.7186 29.7754C71.7186 29.7754 73.064 31.8061 73.064 31.9838C73.064 36.883 77.0493 40.8683 81.9484 40.8683C86.8475 40.8683 90.8328 36.883 90.8328 31.9838C90.8328 31.8061 92.1782 29.7754 92.1782 29.7754C92.3051 29.6231 92.3813 29.4454 92.4066 29.2424L93.1936 23.0233C93.3205 22.3125 92.6859 21.8302 92.0259 21.881Z" fill="#FF6A49"/>
<path d="M86.0099 27.2115C87.7343 27.2115 89.1322 25.8137 89.1322 24.0893C89.1322 22.3649 87.7343 20.967 86.0099 20.967C84.2856 20.967 82.8877 22.3649 82.8877 24.0893C82.8877 25.8137 84.2856 27.2115 86.0099 27.2115Z" fill="#E9E8E3"/>
<path d="M77.8615 27.2115C79.5859 27.2115 80.9837 25.8137 80.9837 24.0893C80.9837 22.3649 79.5859 20.967 77.8615 20.967C76.1371 20.967 74.7393 22.3649 74.7393 24.0893C74.7393 25.8137 76.1371 27.2115 77.8615 27.2115Z" fill="#E9E8E3"/>
<path d="M92.4067 19.1902C92.4067 17.8194 92.1275 16.4995 91.6452 15.3064L91.6198 13.5295C90.9852 9.7219 86.8984 6.77734 81.9485 6.77734C76.8717 6.77734 72.7087 9.8742 72.2518 13.8087V15.3826C71.7948 16.5756 71.5156 17.8448 71.5156 19.2155C71.5156 19.9009 71.5918 20.8147 71.6933 21.8809H72.2771C72.4802 19.6217 73.6225 17.5402 75.4502 16.2202C77.1763 14.9764 79.4608 14.2403 81.9485 14.2403C84.0554 14.2403 86.0099 14.7733 87.6091 15.6872C89.8683 16.9817 91.366 19.2917 91.6706 21.8809H92.2037C92.3306 20.8147 92.4067 19.8755 92.4067 19.1902Z" fill="#010101"/>
<path d="M61.9963 49.8546C61.9963 46.2755 59.9402 43.0009 56.7164 41.4271L44.7351 35.6141C43.136 34.8526 42.1714 33.1773 42.3237 31.4004L43.2883 28.4812L45.4967 28.9381L46.2582 20.6883L44.4559 20.5868L44.9382 17.6676C44.9382 17.6676 45.0144 16.7791 45.0144 16.3476C45.0144 10.5093 40.1152 5.76245 34.0992 5.76245C28.0832 5.76245 23.1841 10.4839 23.1841 16.3476C23.1841 16.8045 23.2348 17.2361 23.2856 17.6676L23.641 19.8506C23.7171 20.2568 23.4125 20.6121 23.0064 20.6375L21.9656 20.7137L22.7271 28.9635L24.9356 28.5066L25.9002 31.4258C26.0525 33.2027 25.0625 34.878 23.4887 35.6395L14.4012 40.0564C9.27357 42.544 16.635 63.6128 16.635 63.6128L61.971 52.1138V49.8546H61.9963Z" fill="#69140E"/>
<path d="M23.641 19.8504C23.6664 20.0281 25.291 20.3327 25.291 20.3327V14.2151C25.291 11.4229 26.4586 9.69674 29.1747 8.98599C32.4239 8.14831 35.8254 8.14831 39.0491 8.98599C41.7652 9.69674 42.9329 11.4229 42.9329 14.2151V20.3327C42.9329 20.3327 44.5575 20.0281 44.5829 19.8504L44.9382 17.6673C44.9382 17.6673 45.0144 16.7789 45.0144 16.3474C45.0144 10.509 40.1153 5.76221 34.0992 5.76221C28.0832 5.76221 23.1841 10.4836 23.1841 16.3474C23.1841 16.8043 23.2348 17.2358 23.2856 17.6673L23.641 19.8504Z" fill="#010101"/>
<path d="M34.1248 36.1214C32.0687 36.1214 30.038 35.4361 28.4134 34.1415L27.728 33.6084L28.2611 37.2891L34.0994 40.7413L39.9378 37.2891L40.4708 33.6084L39.7855 34.1415C38.1863 35.4107 36.1809 36.1214 34.1248 36.1214Z" fill="#010101"/>
<path d="M36.7648 25.8154L34.1248 25.9424L31.4849 25.8154L31.8402 27.4146L34.1248 27.6939L36.384 27.4146L36.7648 25.8154Z" fill="#010101"/>
<path d="M152.922 44.7012L137.26 37.2891L137.032 31.6792H122.842L122.614 37.2891L106.952 44.7012L105.048 47.7981L104.972 69.0446L155.943 68.6892L154.826 47.7981L152.922 44.7012Z" fill="white"/>
<path d="M137.057 30.8669H122.614V37.2891L129.772 45.0059L137.057 37.2891V30.8669Z" fill="#FF6A49"/>
<path d="M128.122 0C125.888 0 123.756 0.304609 121.852 0.863059L122.208 2.33534L117.029 6.47294L121.802 27.5164C122.005 28.4302 122.182 29.3694 122.335 30.3086C122.791 32.9739 125.965 35.0301 129.772 35.0301C133.529 35.0301 136.626 33.0501 137.184 30.4355C137.489 29.014 137.768 27.5671 138.123 26.1456L142.515 8.50367C142.439 3.80761 136.017 0 128.122 0Z" fill="#010101"/>
<path d="M118.374 17.439C119.212 17.6674 119.568 18.4289 119.771 19.0889C120.354 20.942 120.481 22.8965 120.684 24.8257C119.288 24.5973 118.451 23.785 118.197 22.4142C118.019 21.5004 117.841 20.5612 117.714 19.622C117.613 18.8097 117.791 18.0482 118.374 17.439Z" fill="#FF6A49"/>
<path d="M133.148 27.0341H126.523C125 27.0341 123.68 25.9425 123.4 24.4195L121.243 12.4636L132.361 9.49365C135.712 8.60521 138.859 11.5498 138.174 14.9512L136.245 24.4956C135.965 25.9679 134.671 27.0341 133.148 27.0341Z" fill="#FF6A49"/>
<path d="M139.849 18.6826C139.849 18.0226 140.382 17.4895 141.042 17.4895C141.702 17.4895 142.235 18.0226 142.235 18.6826C142.235 18.8095 141.702 21.9317 141.702 21.9317C141.449 23.3786 140.205 24.4701 138.732 24.4701L139.849 18.6826Z" fill="#FF6A49"/>
<path d="M205.645 63.6885L202.015 46.9858C201.355 44.3713 199.68 42.1375 197.345 40.7667L186.861 34.5476L183.866 36.6799L178.434 37.6952L173.001 36.6799L170.133 34.5476L159.446 40.6652C157.035 42.0359 155.283 44.3459 154.623 47.062L151.45 59.8048L156.857 57.8502L160.817 58.561L161.756 61.1248L160.055 93.5402H190.973L196.05 63.6885H205.645Z" fill="#010101"/>
<path d="M189.501 19.2413L188.79 19.6475C189.145 17.5913 189.399 15.6622 189.399 14.393C189.399 8.37692 184.525 3.50317 178.509 3.50317C172.493 3.50317 167.619 8.37692 167.619 14.393C167.619 15.6622 167.899 17.5913 168.229 19.6475L167.518 19.2413C166.731 18.7844 165.792 19.4952 166.02 20.3836L166.959 24.1658V26.4504C166.959 27.1358 167.619 27.5927 168.254 27.3896L169.523 26.9581C169.676 27.8973 169.777 28.6588 169.777 29.1411C169.777 33.9641 173.686 37.8732 178.509 37.8732C183.332 37.8732 187.241 33.9641 187.241 29.1411C187.241 28.6588 187.343 27.8973 187.495 26.9581L188.764 27.3896C189.399 27.6181 190.059 27.1358 190.059 26.4504V24.1658L190.998 20.3836C191.227 19.4952 190.287 18.7844 189.501 19.2413Z" fill="#D9ACA7"/>
<path d="M189.501 19.2413L188.79 19.6475C189.145 17.5913 189.399 15.6622 189.399 14.393C189.399 8.37692 184.525 3.50317 178.509 3.50317C172.493 3.50317 167.619 8.37692 167.619 14.393C167.619 15.6622 167.899 17.5913 168.229 19.6475L167.518 19.2413C166.731 18.7844 165.792 19.4952 166.02 20.3836L166.959 24.1658V26.4504C166.959 27.1358 167.619 27.5927 168.254 27.3896L169.523 26.9581C169.676 27.8973 169.777 28.6588 169.777 29.1411C169.777 33.9641 173.686 37.8732 178.509 37.8732C183.332 37.8732 187.241 33.9641 187.241 29.1411C187.241 28.6588 187.343 27.8973 187.495 26.9581L188.764 27.3896C189.399 27.6181 190.059 27.1358 190.059 26.4504V24.1658L190.998 20.3836C191.227 19.4952 190.287 18.7844 189.501 19.2413Z" fill="#FF6A49"/>
<path d="M186.886 34.5478L186.784 31.6033H170.285L170.183 34.5478L170.462 37.9747C170.691 40.6654 172.239 43.0515 174.6 44.3461L174.651 44.3715C177.088 45.7168 180.083 45.7168 182.52 44.3461C184.855 43.0261 186.404 40.64 186.632 37.9747L186.886 34.5478Z" fill="#FF6A49"/>
<path d="M184.576 26.8567L184.322 25.4352L178.611 23.9629L172.722 25.4352L172.468 26.8567L178.509 26.6028L184.576 26.8567Z" fill="#2F1D20"/>
<path d="M171.021 22.6938L173.509 22.9476C174.803 23.0999 176.047 22.313 176.504 21.0946L177.418 18.607C177.773 17.617 177.063 16.5509 175.996 16.5255L169.574 16.3985C168.635 16.3732 167.874 17.1601 167.924 18.0993L167.975 19.4193C168.026 21.12 169.32 22.4907 171.021 22.6938Z" fill="white"/>
<path d="M186.023 22.6936L183.535 22.9474C182.241 23.0997 180.997 22.3128 180.54 21.0944L179.626 18.6067C179.271 17.6167 179.982 16.5506 181.048 16.5252L187.47 16.3983C188.409 16.3729 189.171 17.1598 189.12 18.099L189.069 19.419C189.018 21.1197 187.724 22.4905 186.023 22.6936Z" fill="white"/>
<path d="M184.881 33.4055L178.509 34.9539L172.163 33.4055L175.361 37.4162L178.484 38.3554L181.657 37.4162L184.881 33.4055Z" fill="#2F1D20"/>
<path d="M169.244 8.6814C168.229 10.3314 167.645 12.2859 167.645 14.3674C167.645 14.7228 167.67 15.1543 167.696 15.5859C168.559 15.5859 169.244 14.9005 169.244 14.0374V8.6814Z" fill="#3A322D"/>
<path d="M189.348 15.6115C189.399 15.1546 189.399 14.7484 189.399 14.3931C189.399 12.3116 188.815 10.357 187.8 8.70703V14.0885C187.8 14.9261 188.485 15.6115 189.348 15.6115Z" fill="#3A322D"/>
<path d="M164.65 183.476H179.982L190.77 93.2612H164.041L164.65 183.476Z" fill="white"/>
<path d="M13.5125 54.2458L15.7971 84.4783V98.6934L27.5245 102.526V47.5444H12.8525L13.5125 54.2458Z" fill="#AD5B33"/>
<path d="M13.2591 98.6934C11.9646 113.619 20.5698 184.111 20.5698 184.111L31.2565 183.781L32.5764 98.6934H13.2591Z" fill="#010101"/>
<path d="M3.51172 90.1895L10.8477 104.785L16.0261 111.334C18.7168 111.055 21.1537 109.634 22.7529 107.451L23.6921 106.156L27.3728 107.4C28.3881 107.755 29.4797 107.07 29.6066 106.004L21.6106 102.196C20.4937 101.562 19.1737 101.384 17.9299 101.739C17.5237 102.095 16.8891 101.968 16.6607 101.485L12.8531 93.1848L11.4569 87.575L3.51172 90.1895Z" fill="#69140E"/>
<path d="M23.4887 35.6138L34.1247 44.7774L44.7606 35.6138L57.0465 41.579C60.0672 43.0513 61.9964 46.1228 61.9964 49.4735L62.0218 75.4414L31.4847 98.6932H13.259L12.269 67.9785L9.73057 80.1121L11.4567 87.575L3.53685 90.1896L0.135382 77.3706C-0.0676909 76.1014 -0.0423068 74.8068 0.211534 73.5376L5.36451 48.2551C5.92296 45.5643 7.67446 43.3051 10.1367 42.1121L23.4887 35.6138Z" fill="white"/>
<path d="M171.047 49.4736H31.3325V183.781H171.047V49.4736Z" fill="#215CFF"/>
<path d="M97.1753 129.13C91.9721 129.13 86.3507 127.225 82.123 124.066L85.0499 120.186C88.4645 122.742 92.9942 124.275 97.1753 124.275C102.216 124.275 106.304 121.557 106.304 118.189C106.304 116.121 105.143 113.659 96.4785 111.104C89.9047 109.222 83.1916 106.389 83.1916 99.7915C83.1916 93.7985 89.1149 89.083 96.6643 89.083C100.915 89.083 105.654 90.4767 109.672 92.8925L107.164 97.0505C103.888 95.0761 100.056 93.9378 96.6643 93.9378C91.8327 93.9378 88.0464 96.5162 88.0464 99.7915C88.0464 101.696 89.2078 103.949 97.849 106.435C104.074 108.27 111.182 111.243 111.182 118.189C111.159 124.321 105.027 129.13 97.1753 129.13Z" fill="white"/>
<path d="M58.8942 141.836L57.1288 137.306L64.7711 134.333C67.2101 133.381 69.1613 131.569 70.2763 129.199C70.9035 127.852 71.2519 126.342 71.2519 124.856V94.5187H51.2983V89.6638H75.8977L76.1068 93.7521V124.879C76.1068 127.086 75.6189 129.315 74.6666 131.313C73.0173 134.797 70.1369 137.492 66.5365 138.886L58.8942 141.836Z" fill="white"/>
<path d="M143.145 90.8485V94.7742C139.893 91.3131 135.294 89.1528 130.184 89.1528C120.358 89.1528 112.367 97.1436 112.367 106.969C112.367 116.795 120.358 124.786 130.184 124.786C135.294 124.786 139.893 122.602 143.145 119.165V121.302C143.145 128.038 137.663 133.52 130.927 133.52H121.008V138.375H130.927C140.335 138.375 148 130.709 148 121.302V90.8485H143.145ZM130.184 119.931C123.029 119.931 117.222 114.124 117.222 106.969C117.222 99.8149 123.029 94.0077 130.184 94.0077C137.338 94.0077 143.145 99.8149 143.145 106.969C143.145 114.124 137.315 119.931 130.184 119.931Z" fill="white"/>
<path d="M59.3821 54.8041C58.5444 54.8041 57.7067 54.4995 57.0721 53.9411L55.2445 52.3673C54.7622 51.9357 54.3814 51.4027 54.2037 50.7681L54.0007 50.1335C53.493 48.5596 54.6606 46.9351 56.336 46.9351H63.5705C64.9158 46.9351 66.0073 48.0266 66.0073 49.3719L65.6774 49.4481C64.6112 49.6765 63.7228 50.3619 63.2405 51.3519L62.5297 52.8242C61.9459 54.0426 60.7021 54.8041 59.3821 54.8041Z" fill="#AD5B33"/>
<path d="M206.838 69.8062L205.721 63.5364L196.075 63.6887L195.999 65.6686L187.013 67.674C183.256 68.4863 179.372 68.7147 175.539 68.334C175.235 68.3086 174.854 68.1309 174.524 67.9278C173.839 67.4963 173.28 66.8617 172.874 66.1509C172.189 64.8817 171.046 62.8256 170.996 63.4856L170.742 66.6586L159.75 67.5471L159.776 68.4609L166.477 69.4001L159.497 71.177L159.903 72.2685L160.41 73.5885L167.949 73.9692L168.305 74.8831L164.218 76.0253L164.827 77.1676L170.97 75.1877L202.853 74.68C205.366 74.6546 207.269 72.3193 206.838 69.8062Z" fill="#FF6A49"/>
<path d="M111.241 49.3975H110.125L109.947 49.8798C109.566 50.9205 108.5 51.5297 107.408 51.3267L102.509 50.4382C102.103 50.3621 101.748 50.1844 101.443 49.9305C101.037 49.5752 100.504 49.3975 99.971 49.3975H99.0571L99.2856 46.8083L104.083 44.7014L109.693 45.8183L111.241 49.3975Z" fill="#FF6A49"/>
</svg>
