<svg width="398" height="73" viewBox="0 0 398 73" fill="none" xmlns="http://www.w3.org/2000/svg">
<path d="M62.9755 55.7882C55.7707 55.7882 48.0322 53.1197 42.295 48.8502L46.2977 43.5133C50.9675 46.9823 57.2383 49.117 62.9755 49.117C69.9135 49.117 75.5172 45.3812 75.5172 40.7114C75.5172 37.9095 73.9162 34.4405 62.0415 30.9715C52.9688 28.4365 43.7626 24.5672 43.7626 15.4945C43.7626 7.22228 51.9014 0.817993 62.3084 0.817993C68.179 0.817993 74.7167 2.68591 80.187 6.02148L76.718 11.7587C72.1817 9.0902 66.9782 7.48913 62.3084 7.48913C55.6373 7.48913 50.4338 10.9581 50.4338 15.4945C50.4338 18.1629 52.0348 21.2317 63.9095 24.5672C72.4485 27.1023 82.1884 31.2384 82.1884 40.7114C82.1884 49.2504 73.7827 55.7882 62.9755 55.7882Z" fill="black"/>
<path d="M316.612 55.7882C309.407 55.7882 301.669 53.1197 295.932 48.8502L299.934 43.5133C304.604 46.9823 310.875 49.117 316.612 49.117C323.55 49.117 329.154 45.3812 329.154 40.7114C329.154 37.9095 327.553 34.4405 315.678 30.9715C306.605 28.4365 297.399 24.5672 297.399 15.4945C297.399 7.22228 305.538 0.817993 315.945 0.817993C321.816 0.817993 328.353 2.68591 333.824 6.02148L330.355 11.7587C325.818 9.0902 320.615 7.48913 315.945 7.48913C309.274 7.48913 304.07 10.9581 304.07 15.4945C304.07 18.1629 305.671 21.2317 317.546 24.5672C326.085 27.1023 335.825 31.2384 335.825 40.7114C335.825 49.2504 327.419 55.7882 316.612 55.7882Z" fill="black"/>
<path d="M378.787 55.7882C371.582 55.7882 363.844 53.1197 358.107 48.8502L362.109 43.5133C366.779 46.9823 373.05 49.117 378.787 49.117C385.725 49.117 391.329 45.3812 391.329 40.7114C391.329 37.9095 389.728 34.4405 377.853 30.9715C368.781 28.4365 359.574 24.5672 359.574 15.4945C359.574 7.22228 367.713 0.817993 378.12 0.817993C383.991 0.817993 390.528 2.68591 395.999 6.02148L392.53 11.7587C387.993 9.0902 382.79 7.48913 378.12 7.48913C371.449 7.48913 366.245 10.9581 366.245 15.4945C366.245 18.1629 367.847 21.2317 379.721 24.5672C388.26 27.1023 398 31.2384 398 40.7114C398 49.2504 389.461 55.7882 378.787 55.7882Z" fill="black"/>
<path d="M10.407 72.648L8.00536 66.3772L18.5458 62.2411C21.8813 60.9068 24.5498 58.3718 26.1509 55.1697C27.0848 53.3017 27.4851 51.3004 27.4851 49.1656V7.67117H0V1.00003H33.756L34.0228 6.60379V49.2991C34.0228 52.3678 33.3557 55.4365 32.0215 58.105C29.7533 62.9082 25.7506 66.644 20.8139 68.5119L10.407 72.648Z" fill="black"/>
<path d="M216.278 0.817993C210.808 0.817993 205.738 2.95276 202.002 6.42175V2.81933H195.331V21.7654V53.1197H202.002V21.7654C202.002 13.8934 208.406 7.48913 216.278 7.48913C224.15 7.48913 230.554 13.8934 230.554 21.7654V53.1197H237.226V21.7654C237.226 10.291 227.753 0.817993 216.278 0.817993Z" fill="black"/>
<path d="M350.902 4.15356H344.231V53.1197H350.902V4.15356Z" fill="black"/>
<path d="M126.084 3.2196V8.55651C121.682 3.75329 115.277 0.817993 108.339 0.817993C94.8636 0.817993 83.9229 11.7587 83.9229 25.2344C83.9229 38.71 94.8636 49.6507 108.339 49.6507C115.411 49.6507 121.682 46.7154 126.084 41.9122V44.8475C126.084 54.0537 118.613 61.6588 109.273 61.6588H95.7975V68.3299H109.407C122.349 68.3299 132.889 57.7895 132.889 44.8475V3.2196H126.084ZM108.339 43.113C98.466 43.113 90.594 35.1076 90.594 25.3678C90.594 15.4945 98.5994 7.62255 108.339 7.62255C118.079 7.62255 126.084 15.6279 126.084 25.3678C126.084 35.2411 118.213 43.113 108.339 43.113Z" fill="black"/>
<path d="M269.781 55.2545C255.371 55.2545 243.23 42.9796 243.23 28.3031C243.23 13.4932 254.571 1.35168 268.447 1.35168C282.322 1.35168 293.663 13.3597 293.663 28.3031V31.6386H250.301C251.902 40.9782 260.441 48.5833 269.781 48.5833C275.251 48.5833 281.122 46.0483 284.724 42.0456L289.661 46.4486C284.858 51.7855 277.119 55.2545 269.781 55.2545ZM250.168 24.9675H286.725C285.258 15.3611 277.653 8.02282 268.447 8.02282C259.24 8.02282 251.635 15.3611 250.168 24.9675Z" fill="black"/>
<path d="M165.578 55.2545C151.168 55.2545 139.026 42.9796 139.026 28.3031C139.026 13.4932 150.367 1.35168 164.243 1.35168C178.119 1.35168 189.46 13.3597 189.46 28.3031V31.6386H146.098C147.699 40.9782 156.238 48.5833 165.578 48.5833C171.048 48.5833 176.919 46.0483 180.521 42.0456L185.458 46.4486C180.654 51.7855 172.916 55.2545 165.578 55.2545ZM145.964 24.9675H182.522C181.055 15.3611 173.45 8.02282 164.243 8.02282C155.037 8.02282 147.432 15.3611 145.964 24.9675Z" fill="black"/>
</svg>
