<svg width="543" height="216" viewBox="0 0 543 216" fill="none" xmlns="http://www.w3.org/2000/svg">
<g clip-path="url(#clip0)">
<g filter="url(#filter0_d)">
<path d="M135.182 101.492L135.182 101.492L135.176 101.49C130.649 100.225 126.149 98.642 122.788 96.2758C119.446 93.9234 117.263 90.8252 117.263 86.4945C117.263 78.6019 125.061 72.318 135.308 72.318C140.93 72.318 147.192 74.0623 152.5 77.1922L149.544 82.0803C145.048 79.5239 139.936 77.9891 135.308 77.9891C131.892 77.9891 128.822 78.8767 126.591 80.3756C124.358 81.8754 122.934 84.016 122.934 86.4945C122.934 87.2146 123.042 87.9834 123.417 88.7813C123.791 89.5777 124.415 90.3732 125.405 91.1701C127.37 92.7525 130.818 94.3751 136.771 96.0476C141.029 97.312 145.529 98.9605 148.958 101.443C152.372 103.914 154.688 107.18 154.688 111.711C154.688 119.867 146.628 126.288 135.976 126.288C129.05 126.288 121.609 123.78 115.999 119.745L119.402 115.208C124.108 118.565 130.29 120.617 135.976 120.617C139.529 120.617 142.764 119.661 145.126 118.081C147.485 116.502 149.017 114.263 149.017 111.711C149.017 110.178 148.564 108.469 146.562 106.716C144.595 104.993 141.143 103.233 135.182 101.492Z" fill="#010101" stroke="black"/>
<path d="M388.818 101.492L388.818 101.492L388.813 101.49C384.285 100.225 379.786 98.642 376.424 96.2758C373.082 93.9234 370.899 90.8252 370.899 86.4945C370.899 78.6019 378.698 72.318 388.945 72.318C394.567 72.318 400.828 74.0623 406.136 77.1922L403.181 82.0803C398.684 79.5239 393.573 77.9891 388.945 77.9891C385.528 77.9891 382.458 78.8767 380.227 80.3756C377.995 81.8754 376.57 84.016 376.57 86.4945C376.57 87.2146 376.679 87.9834 377.054 88.7813C377.427 89.5777 378.052 90.3732 379.042 91.1701C381.007 92.7525 384.454 94.3751 390.407 96.0476C394.666 97.312 399.165 98.9605 402.595 101.443C406.009 103.914 408.325 107.18 408.325 111.711C408.325 119.867 400.264 126.288 389.612 126.288C382.687 126.288 375.246 123.78 369.635 119.745L373.039 115.208C377.745 118.565 383.927 120.617 389.612 120.617C393.166 120.617 396.401 119.661 398.763 118.081C401.122 116.502 402.654 114.263 402.654 111.711C402.654 110.178 402.2 108.469 400.199 106.716C398.232 104.993 394.779 103.233 388.818 101.492Z" fill="#010101" stroke="black"/>
<path d="M450.993 101.492L450.993 101.492L450.988 101.49C446.46 100.225 441.961 98.642 438.599 96.2758C435.257 93.9234 433.074 90.8252 433.074 86.4945C433.074 78.6019 440.873 72.318 451.12 72.318C456.742 72.318 463.003 74.0623 468.311 77.1922L465.356 82.0803C460.859 79.5239 455.748 77.9891 451.12 77.9891C447.703 77.9891 444.633 78.8767 442.402 80.3756C440.17 81.8754 438.745 84.016 438.745 86.4945C438.745 87.2146 438.854 87.9834 439.229 88.7813C439.602 89.5777 440.227 90.3732 441.217 91.1701C443.182 92.7525 446.629 94.3751 452.582 96.0476C456.841 97.312 461.34 98.9605 464.77 101.443C468.183 103.914 470.5 107.18 470.5 111.711C470.5 119.865 462.308 126.288 451.787 126.288C444.862 126.288 437.421 123.78 431.81 119.745L435.214 115.208C439.92 118.565 446.102 120.617 451.787 120.617C455.341 120.617 458.576 119.661 460.938 118.081C463.297 116.502 464.829 114.263 464.829 111.711C464.829 110.178 464.375 108.469 462.374 106.716C460.407 104.993 456.954 103.233 450.993 101.492Z" fill="#010101" stroke="black"/>
<path d="M100.485 78.1712H73.5V72.5H106.279L106.523 77.6157V120.299C106.523 123.298 105.871 126.289 104.574 128.881L104.574 128.881L104.569 128.891C102.355 133.58 98.4502 137.223 93.637 139.044L93.637 139.044L93.6293 139.047L83.6928 142.996L81.6497 137.661L91.7284 133.707L91.7315 133.705C95.186 132.323 97.9448 129.7 99.5981 126.393C100.572 124.445 100.985 122.365 100.985 120.166V78.6712V78.1712H100.485Z" fill="#010101" stroke="black"/>
<path d="M274.502 77.4217V78.5684L275.342 77.7881C278.989 74.4019 283.939 72.318 289.278 72.318C300.476 72.318 309.726 81.5671 309.726 92.7654V123.62H304.054V92.7654C304.054 84.6173 297.426 77.9891 289.278 77.9891C281.13 77.9891 274.502 84.6173 274.502 92.7654V123.62H268.831V92.7654V74.3193H274.502V77.4217Z" fill="#010101" stroke="black"/>
<path d="M417.731 123.62V75.6536H423.402V123.62H417.731Z" fill="#010101" stroke="black"/>
<path d="M199.584 79.5565V74.7196H205.389V115.847C205.389 128.513 195.073 138.83 182.407 138.83H169.298V133.159H182.273C191.892 133.159 199.584 125.327 199.584 115.847V112.912V111.627L198.716 112.574C194.406 117.276 188.268 120.151 181.339 120.151C168.14 120.151 157.423 109.434 157.423 96.2344C157.423 83.0348 168.14 72.318 181.339 72.318C188.136 72.318 194.407 75.1935 198.716 79.8944L199.584 80.8419V79.5565ZM163.094 96.3678C163.094 106.381 171.187 114.613 181.339 114.613C191.489 114.613 199.584 106.517 199.584 96.3678C199.584 86.3518 191.355 78.1226 181.339 78.1226C171.326 78.1226 163.094 86.2159 163.094 96.3678Z" fill="#010101" stroke="black"/>
<path d="M357.757 113.745L361.949 117.484C357.22 122.505 349.807 125.754 342.781 125.754C328.654 125.754 316.73 113.71 316.73 99.3031C316.73 84.7372 327.878 72.8517 341.447 72.8517C355.017 72.8517 366.163 84.6054 366.163 99.3031V102.139H323.301H322.708L322.808 102.723C324.448 112.286 333.181 120.083 342.781 120.083C348.219 120.083 354.035 117.645 357.757 113.745ZM322.673 95.892L322.585 96.4675H323.168H359.725H360.308L360.22 95.892C358.721 86.0805 350.937 78.5228 341.447 78.5228C331.956 78.5228 324.172 86.0805 322.673 95.892Z" fill="#010101" stroke="black"/>
<path d="M253.554 113.745L257.746 117.484C253.017 122.505 245.604 125.754 238.578 125.754C224.451 125.754 212.526 113.71 212.526 99.3031C212.526 84.7372 223.675 72.8517 237.243 72.8517C250.814 72.8517 261.96 84.6054 261.96 99.3031V102.139H219.098H218.505L218.605 102.723C220.244 112.286 228.978 120.083 238.578 120.083C244.016 120.083 249.832 117.645 253.554 113.745ZM218.47 95.892L218.382 96.4675H218.964H255.522H256.104L256.017 95.892C254.518 86.0805 246.734 78.5228 237.243 78.5228C227.753 78.5228 219.969 86.0805 218.47 95.892Z" fill="#010101" stroke="black"/>
</g>
</g>
<defs>
<filter id="filter0_d" x="69" y="71.818" width="406" height="79.83" filterUnits="userSpaceOnUse" color-interpolation-filters="sRGB">
<feFlood flood-opacity="0" result="BackgroundImageFix"/>
<feColorMatrix in="SourceAlpha" type="matrix" values="0 0 0 0 0 0 0 0 0 0 0 0 0 0 0 0 0 0 127 0"/>
<feOffset dy="4"/>
<feGaussianBlur stdDeviation="2"/>
<feColorMatrix type="matrix" values="0 0 0 0 0 0 0 0 0 0 0 0 0 0 0 0 0 0 0.25 0"/>
<feBlend mode="normal" in2="BackgroundImageFix" result="effect1_dropShadow"/>
<feBlend mode="normal" in="SourceGraphic" in2="effect1_dropShadow" result="shape"/>
</filter>
<clipPath id="clip0">
<rect width="543" height="216" fill="white"/>
</clipPath>
</defs>
</svg>
