<svg width="543" height="216" viewBox="0 0 543 216" fill="none" xmlns="http://www.w3.org/2000/svg">
<g clip-path="url(#clip0)">
<rect width="543" height="216" fill="black"/>
<path d="M135.976 126.788C128.771 126.788 121.032 124.12 115.295 119.85L119.298 114.513C123.967 117.982 130.238 120.117 135.976 120.117C142.913 120.117 148.517 116.381 148.517 111.711C148.517 108.91 146.916 105.441 135.042 101.972C125.969 99.4365 116.763 95.5672 116.763 86.4945C116.763 78.2223 124.901 71.818 135.308 71.818C141.179 71.818 147.717 73.6859 153.187 77.0215L149.718 82.7587C145.182 80.0902 139.978 78.4891 135.308 78.4891C128.637 78.4891 123.434 81.9581 123.434 86.4945C123.434 89.1629 125.035 92.2317 136.909 95.5672C145.449 98.1023 155.188 102.238 155.188 111.711C155.188 120.25 146.783 126.788 135.976 126.788Z" fill="white"/>
<path d="M389.612 126.788C382.407 126.788 374.669 124.12 368.932 119.85L372.934 114.513C377.604 117.982 383.875 120.117 389.612 120.117C396.55 120.117 402.154 116.381 402.154 111.711C402.154 108.91 400.553 105.441 388.678 101.972C379.605 99.4365 370.399 95.5672 370.399 86.4945C370.399 78.2223 378.538 71.818 388.945 71.818C394.816 71.818 401.353 73.6859 406.824 77.0215L403.355 82.7587C398.818 80.0902 393.615 78.4891 388.945 78.4891C382.274 78.4891 377.07 81.9581 377.07 86.4945C377.07 89.1629 378.671 92.2317 390.546 95.5672C399.085 98.1023 408.825 102.238 408.825 111.711C408.825 120.25 400.419 126.788 389.612 126.788Z" fill="white"/>
<path d="M451.787 126.788C444.582 126.788 436.844 124.12 431.107 119.85L435.109 114.513C439.779 117.982 446.05 120.117 451.787 120.117C458.725 120.117 464.329 116.381 464.329 111.711C464.329 108.91 462.728 105.441 450.853 101.972C441.78 99.4365 432.574 95.5672 432.574 86.4945C432.574 78.2223 440.713 71.818 451.12 71.818C456.991 71.818 463.528 73.6859 468.999 77.0215L465.53 82.7587C460.993 80.0902 455.79 78.4891 451.12 78.4891C444.449 78.4891 439.245 81.9581 439.245 86.4945C439.245 89.1629 440.847 92.2317 452.721 95.5672C461.26 98.1023 471 102.238 471 111.711C471 120.25 462.461 126.788 451.787 126.788Z" fill="white"/>
<path d="M83.407 143.648L81.0054 137.377L91.5458 133.241C94.8813 131.907 97.5498 129.372 99.1509 126.17C100.085 124.302 100.485 122.3 100.485 120.166V78.6712H73V72H106.756L107.023 77.6038V120.299C107.023 123.368 106.356 126.437 105.021 129.105C102.753 133.908 98.7506 137.644 93.8139 139.512L83.407 143.648Z" fill="white"/>
<path d="M289.278 71.818C283.808 71.818 278.738 73.9528 275.002 77.4217V73.8193H268.331V92.7654V124.12H275.002V92.7654C275.002 84.8934 281.406 78.4891 289.278 78.4891C297.15 78.4891 303.554 84.8934 303.554 92.7654V124.12H310.226V92.7654C310.226 81.291 300.753 71.818 289.278 71.818Z" fill="white"/>
<path d="M423.902 75.1536H417.231V124.12H423.902V75.1536Z" fill="white"/>
<path d="M199.084 74.2196V79.5565C194.682 74.7533 188.277 71.818 181.339 71.818C167.864 71.818 156.923 82.7587 156.923 96.2344C156.923 109.71 167.864 120.651 181.339 120.651C188.411 120.651 194.682 117.715 199.084 112.912V115.847C199.084 125.054 191.613 132.659 182.273 132.659H168.798V139.33H182.407C195.349 139.33 205.889 128.789 205.889 115.847V74.2196H199.084ZM181.339 114.113C171.466 114.113 163.594 106.108 163.594 96.3678C163.594 86.4945 171.599 78.6226 181.339 78.6226C191.079 78.6226 199.084 86.6279 199.084 96.3678C199.084 106.241 191.213 114.113 181.339 114.113Z" fill="white"/>
<path d="M342.781 126.254C328.371 126.254 316.23 113.98 316.23 99.3031C316.23 84.4932 327.571 72.3517 341.447 72.3517C355.323 72.3517 366.663 84.3597 366.663 99.3031V102.639H323.301C324.902 111.978 333.441 119.583 342.781 119.583C348.251 119.583 354.122 117.048 357.724 113.046L362.661 117.449C357.858 122.785 350.119 126.254 342.781 126.254ZM323.168 95.9675H359.725C358.258 86.3611 350.653 79.0228 341.447 79.0228C332.24 79.0228 324.635 86.3611 323.168 95.9675Z" fill="white"/>
<path d="M238.578 126.254C224.168 126.254 212.027 113.98 212.027 99.3031C212.027 84.4932 223.367 72.3517 237.243 72.3517C251.119 72.3517 262.46 84.3597 262.46 99.3031V102.639H219.098C220.699 111.978 229.238 119.583 238.578 119.583C244.048 119.583 249.919 117.048 253.521 113.046L258.458 117.449C253.654 122.785 245.916 126.254 238.578 126.254ZM218.964 95.9675H255.522C254.055 86.3611 246.45 79.0228 237.243 79.0228C228.037 79.0228 220.432 86.3611 218.964 95.9675Z" fill="white"/>
</g>
<defs>
<clipPath id="clip0">
<rect width="543" height="216" fill="white"/>
</clipPath>
</defs>
</svg>
