<svg width="279" height="216" viewBox="0 0 279 216" fill="none" xmlns="http://www.w3.org/2000/svg">
<g clip-path="url(#clip0)">
<path d="M134.976 126.97C127.771 126.97 120.032 124.302 114.295 120.032L118.298 114.695C122.967 118.164 129.238 120.299 134.976 120.299C141.913 120.299 147.517 116.563 147.517 111.893C147.517 109.092 145.916 105.623 134.042 102.154C124.969 99.6185 115.763 95.7492 115.763 86.6765C115.763 78.4043 123.901 72 134.308 72C140.179 72 146.717 73.8679 152.187 77.2035L148.718 82.9407C144.182 80.2722 138.978 78.6711 134.308 78.6711C127.637 78.6711 122.434 82.1401 122.434 86.6765C122.434 89.345 124.035 92.4137 135.909 95.7492C144.449 98.2843 154.188 102.42 154.188 111.893C154.188 120.432 145.783 126.97 134.976 126.97Z" fill="#010101"/>
<path d="M82.407 143.83L80.0054 137.559L90.5458 133.423C93.8813 132.089 96.5498 129.554 98.1509 126.352C99.0848 124.484 99.4851 122.482 99.4851 120.348V78.8532H72V72.182H105.756L106.023 77.7858V120.481C106.023 123.55 105.356 126.619 104.021 129.287C101.753 134.09 97.7506 137.826 92.8139 139.694L82.407 143.83Z" fill="#010101"/>
<path d="M198.084 74.4016V79.7385C193.682 74.9353 187.277 72 180.339 72C166.864 72 155.923 82.9407 155.923 96.4164C155.923 109.892 166.864 120.833 180.339 120.833C187.411 120.833 193.682 117.897 198.084 113.094V116.029C198.084 125.236 190.613 132.841 181.273 132.841H167.798V139.512H181.407C194.349 139.512 204.889 128.972 204.889 116.029V74.4016H198.084ZM180.339 114.295C170.466 114.295 162.594 106.29 162.594 96.5498C162.594 86.6765 170.599 78.8046 180.339 78.8046C190.079 78.8046 198.084 86.8099 198.084 96.5498C198.084 106.423 190.213 114.295 180.339 114.295Z" fill="#010101"/>
</g>
<defs>
<clipPath id="clip0">
<rect width="279" height="216" fill="white"/>
</clipPath>
</defs>
</svg>
