<svg width="422" height="421" viewBox="0 0 422 421" fill="none" xmlns="http://www.w3.org/2000/svg">
<path d="M309.55 281.88L62.7945 259.138L61.152 178.908C59.7621 107.648 116.745 48.7701 188.131 48.1384C263.307 47.3803 323.07 111.438 317.131 186.362L309.55 281.88Z" fill="#2B1410"/>
<path d="M98.1718 420.483C44.3479 420.483 0.884491 376.894 0.884491 323.196L317.131 186.489L305.255 380.937C303.865 403.174 285.544 420.483 263.307 420.483H98.1718Z" fill="#FF6A49"/>
<path d="M309.55 281.88L62.7945 259.138L61.152 178.908C59.7621 107.648 116.745 48.7701 188.131 48.1384C263.307 47.3803 323.07 111.438 317.131 186.362L309.55 281.88Z" fill="#FF6A49"/>
<path d="M139.74 344.043C175.496 346.191 231.721 342.78 231.721 342.78L223.129 129.632L99.3088 139.614L102.594 217.317C102.72 219.465 101.078 221.234 98.9298 221.234C97.2873 221.36 64.5634 279.985 62.6682 281.754L0 323.575C10.4868 417.956 87.4322 420.862 112.702 419.093H226.919C241.197 419.22 127.105 341.39 139.74 344.043Z" fill="#FF6A49"/>
<path d="M257.495 162.23C326.86 138.603 382.453 149.342 413.66 160.082C419.346 162.103 423.768 155.028 419.599 150.732C391.044 121.672 308.413 68.9857 101.709 103.352C107.521 146.31 162.482 150.732 240.944 163.746C246.377 164.63 252.189 164.125 257.495 162.23Z" fill="#010101"/>
<path d="M91.2227 312.204C103.857 365.649 146.815 406.712 200.892 416.567L221.108 420.231H87.9377L91.2227 312.204Z" fill="#BF141A"/>
<path d="M307.655 340.506L314.604 227.046L270.635 210.873C269.372 255.6 289.208 271.646 288.956 282.765C288.703 291.736 284.534 300.201 269.625 300.833H237.027C237.027 323.449 255.347 340.506 278.09 340.506H307.655Z" fill="#D07F29"/>
<path d="M181.561 206.957L218.202 210.873C230.331 212.137 241.071 202.661 241.071 190.405L170.063 194.196C170.063 200.766 174.991 206.198 181.561 206.957Z" fill="#2B1410"/>
<path d="M315.994 208.599L292.62 210.873C280.491 212.137 269.751 202.661 269.751 190.405L316.626 193.058L315.994 208.599Z" fill="#010101"/>
<path d="M307.655 340.506L314.604 227.046L270.635 210.873C269.372 255.6 289.208 271.646 288.956 282.765C288.703 291.736 284.534 300.201 269.625 300.833H237.027C237.027 323.449 255.347 340.506 278.09 340.506H307.655Z" fill="#BF141A"/>
<path d="M292.367 204.177C285.797 203.671 279.606 205.44 274.426 208.473C273.036 209.357 271.267 209.483 269.751 208.852C264.065 206.451 250.167 202.029 239.301 216.685C237.785 218.707 234.879 218.707 233.363 216.685C227.804 209.104 218.833 204.05 208.725 204.05C197.101 204.05 187.12 210.494 181.94 219.97C181.561 220.728 180.676 221.234 179.792 221.234H87.0529V227.551H176.001C177.391 227.551 178.528 228.688 178.528 230.078C178.402 249.409 192.679 263.686 206.072 264.823C224.013 266.339 237.532 254.336 240.059 231.594C242.965 204.682 269.751 214.158 269.877 217.696C271.393 238.922 274.805 251.304 280.869 263.433C283.775 264.318 286.934 264.823 290.219 264.823C307.655 264.823 321.679 250.167 320.669 232.478C319.784 217.569 307.529 205.187 292.367 204.177Z" fill="white"/>
<path d="M260.022 95.2657C282.007 95.2657 303.233 98.298 323.322 104.11C308.16 44.3478 253.831 0 189.268 0C112.954 0 51.0441 61.9101 51.0441 138.224V214.537H58.625C97.6662 143.404 173.222 95.2657 260.022 95.2657Z" fill="black"/>
<path d="M71.3861 285.165L64.3107 289.714L40.052 251.304C31.8395 238.291 35.7562 221.108 48.6436 212.895C61.2783 204.935 84.2735 209.61 92.2334 222.118C105.879 243.724 93.1178 271.394 71.3861 285.165Z" fill="#FF6A49"/>
</svg>
