<svg width="287" height="287" viewBox="0 0 287 287" fill="none" xmlns="http://www.w3.org/2000/svg">
<path d="M210.903 192.051L42.7831 176.556L41.664 121.893C40.7171 73.3425 79.5404 33.228 128.177 32.7976C179.396 32.2811 220.113 75.925 216.068 126.972L210.903 192.051Z" fill="#2B1410"/>
<path d="M66.8863 286.483C30.2151 286.483 0.602615 256.785 0.602615 220.2L216.068 127.058L207.976 259.539C207.029 274.69 194.547 286.483 179.396 286.483H66.8863Z" fill="#FF6A49"/>
<path d="M210.903 192.051L42.7831 176.556L41.664 121.893C40.7171 73.3425 79.5404 33.228 128.177 32.7976C179.396 32.2811 220.113 75.925 216.068 126.972L210.903 192.051Z" fill="#FF6A49"/>
<path d="M95.2075 234.403C119.569 235.867 157.876 233.542 157.876 233.542L152.022 88.3209L67.661 95.1215L69.8991 148.062C69.9852 149.526 68.8661 150.731 67.4027 150.731C66.2837 150.817 43.9883 190.759 42.697 191.964L0 220.458C7.14486 284.762 59.5692 286.742 76.7858 285.536H154.605C164.332 285.622 86.5992 232.596 95.2075 234.403Z" fill="#FF6A49"/>
<path d="M175.437 110.53C222.696 94.4328 260.572 101.75 281.835 109.067C285.708 110.444 288.721 105.624 285.881 102.697C266.426 82.8977 210.128 47.0012 69.2965 70.4157C73.2563 99.6839 110.702 102.697 164.16 111.563C167.861 112.166 171.821 111.822 175.437 110.53Z" fill="#010101"/>
<path d="M62.1518 212.711C70.7601 249.123 100.028 277.1 136.872 283.815L150.645 286.311H59.9137L62.1518 212.711Z" fill="#BF141A"/>
<path d="M209.611 231.993L214.346 154.691L184.389 143.672C183.528 174.145 197.043 185.078 196.871 192.653C196.699 198.765 193.858 204.533 183.7 204.963H161.491C161.491 220.372 173.973 231.993 189.468 231.993H209.611Z" fill="#D07F29"/>
<path d="M123.701 141.003L148.665 143.672C156.929 144.533 164.246 138.077 164.246 129.727L115.867 132.309C115.867 136.785 119.225 140.487 123.701 141.003Z" fill="#2B1410"/>
<path d="M215.293 142.123L199.368 143.672C191.104 144.533 183.787 138.077 183.787 129.727L215.723 131.534L215.293 142.123Z" fill="#010101"/>
<path d="M209.611 231.993L214.346 154.691L184.389 143.672C183.528 174.145 197.043 185.078 196.871 192.653C196.699 198.765 193.858 204.533 183.7 204.963H161.491C161.491 220.372 173.973 231.993 189.468 231.993H209.611Z" fill="#BF141A"/>
<path d="M199.195 139.11C194.719 138.765 190.501 139.97 186.971 142.036C186.025 142.639 184.819 142.725 183.786 142.295C179.913 140.659 170.444 137.646 163.04 147.632C162.007 149.009 160.028 149.009 158.995 147.632C155.207 142.467 149.095 139.023 142.208 139.023C134.289 139.023 127.488 143.414 123.959 149.87C123.701 150.386 123.098 150.731 122.495 150.731H59.3108V155.035H119.913C120.86 155.035 121.635 155.81 121.635 156.757C121.549 169.927 131.276 179.654 140.401 180.429C152.624 181.462 161.835 173.284 163.557 157.789C165.537 139.454 183.786 145.91 183.872 148.32C184.905 162.782 187.23 171.218 191.362 179.482C193.342 180.085 195.494 180.429 197.732 180.429C209.611 180.429 219.166 170.444 218.478 158.392C217.875 148.234 209.525 139.798 199.195 139.11Z" fill="white"/>
<path d="M177.158 64.9063C192.137 64.9063 206.598 66.9723 220.286 70.9321C209.956 30.215 172.94 0 128.952 0C76.9579 0 34.7773 42.1805 34.7773 94.1745V146.168H39.9423C66.5419 97.7039 118.019 64.9063 177.158 64.9063Z" fill="black"/>
<path d="M48.6367 194.289L43.8161 197.388L27.2882 171.219C21.6928 162.352 24.3614 150.645 33.1418 145.049C41.7501 139.626 57.4171 142.811 62.8404 151.333C72.1373 166.054 63.4429 184.906 48.6367 194.289Z" fill="#FF6A49"/>
</svg>
