<svg width="90" height="102" viewBox="0 0 90 102" fill="none" xmlns="http://www.w3.org/2000/svg">
<path d="M84.2715 63.6353L17.0608 57.4439L16.6137 35.6022C16.2353 16.1682 31.7825 0.173796 51.1821 0.00181329C71.648 -0.204566 87.9176 17.2344 86.3009 37.6315L84.2715 63.6353Z" fill="#2B1410"/>
<path d="M26.726 101.334C12.0731 101.334 0.240723 89.4671 0.240723 74.8486L86.3351 37.6316L79.6622 90.5678C79.2838 96.6215 74.2963 101.334 68.2425 101.334H26.726Z" fill="#FBB040"/>
<path d="M26.726 101.334C12.0731 101.334 0.240723 89.4671 0.240723 74.8486L86.3351 37.6316L83.1018 90.5678C82.7234 96.6215 77.736 101.334 71.6822 101.334H26.726Z" fill="#FF6A49"/>
<path d="M84.2715 63.6353L17.0608 57.4439L16.6137 35.6022C16.2353 16.1682 31.7825 0.173796 51.1821 0.00181329C71.648 -0.204566 87.9176 17.2344 86.3009 37.6315L84.2715 63.6353Z" fill="#FBB040"/>
<path d="M84.2715 63.6353L17.0608 57.4439L16.6137 35.6022C16.2353 16.1682 31.7825 0.173796 51.1821 0.00181329C71.648 -0.204566 87.9176 17.2344 86.3009 37.6315L84.2715 63.6353Z" fill="#FF6A49"/>
<path d="M38.0425 80.524C47.7767 81.1087 63.0831 80.18 63.0831 80.18L60.7442 22.1532L27.0356 24.8705L27.9299 46.0243C27.9643 46.6091 27.5172 47.0906 26.9324 47.0906C26.4853 47.125 17.5766 63.085 17.0606 63.5665L0 74.9862C2.85491 100.68 23.8024 101.471 30.6817 100.99H61.7761C65.6629 100.99 34.6028 79.8361 38.0425 80.524Z" fill="#FF6A49"/>
<path d="M24.8342 71.8561C28.2739 86.4058 39.9687 97.5846 54.6904 100.268L60.1938 101.265H23.9399L24.8342 71.8561Z" fill="#BF141A"/>
<path d="M84.0993 74.1262L85.6471 48.7072L73.6771 44.3044C73.3332 56.4808 78.7334 60.8491 78.6646 63.876C78.5958 66.3182 77.4607 68.6227 73.402 68.7947C73.402 68.7947 68.9304 72.4751 75.0874 72.4751L84.0993 74.1262Z" fill="#BF141A"/>
<path d="M52.1794 41.8624L62.1544 42.9287C65.4564 43.2726 68.3801 40.6929 68.3801 37.3564L49.0493 38.3883C49.0493 40.1426 50.3908 41.656 52.1794 41.8624Z" fill="#2B1410"/>
<path d="M86.0256 42.3095L79.6623 42.9287C76.3602 43.2726 73.4365 40.6929 73.4365 37.3564L86.1976 38.0788L86.0256 42.3095Z" fill="#2B1410"/>
<path d="M28.1017 48.8104L33.6396 35.0174C35.153 30.5803 34.3275 24.1138 32.5733 19.9518C18.5051 22.8755 12.3138 26.5215 13.6208 33.0912L16.8885 48.8104H28.1017Z" fill="#2B1410"/>
<path d="M76.6699 82.0374L77.5298 86.5089H66.4541L67.1076 82.0374H76.6699Z" fill="#2B1410"/>
<path d="M78.6649 91.462L72.6799 94.8329L64.9751 91.462L54.5186 101.368H71.648C76.0163 101.368 79.8344 98.9261 81.7606 95.28L78.6649 91.462Z" fill="#2B1410"/>
<path d="M56.5479 74.4359L58.0957 44.2702L73.4709 42.4471C73.4709 55.9306 78.8024 60.8493 78.6992 63.8761C78.6304 66.3183 77.4953 68.6229 73.4365 68.7948C73.4365 68.7948 68.965 72.4753 75.1219 72.4753L56.5479 74.4359Z" fill="#FBB040"/>
<path d="M56.5479 74.4359L58.0957 44.2702L73.4709 42.4471C73.4709 55.9306 78.8024 60.8493 78.6992 63.8761C78.6304 66.3183 77.4953 68.6229 73.4365 68.7948C73.4365 68.7948 68.965 72.4753 75.1219 72.4753L56.5479 74.4359Z" fill="#FF6A49"/>
<path d="M82.9298 42.5159H75.1906C74.2275 42.5159 73.4364 43.3414 73.4708 44.3045C73.746 51.6997 75.6378 56.2745 77.0824 59.4045H81.726C85.8191 59.4045 89.1556 56.0681 89.1556 51.9749V48.776C89.19 45.302 86.4039 42.5159 82.9298 42.5159Z" fill="white"/>
<path d="M84.3404 69.861H82.8269C80.5224 69.861 78.2178 69.4139 76.0852 68.554L67.4517 68.5883C66.3166 68.5883 65.1815 68.7947 64.1153 69.2075C63.049 69.6202 61.8795 69.8266 60.7444 69.8266H53.5555L51.251 75.4332L57.1328 74.2982L68.6556 75.4332L71.0977 71.6496L73.6087 75.4332H84.134L84.3404 69.861Z" fill="#2B1410"/>
<path d="M70.0313 44.5797C69.4465 44.5797 68.9306 44.3045 68.5522 43.8917C67.8299 43.0318 66.7292 42.5159 65.4909 42.5159H52.1795C49.8405 42.5159 47.7767 43.8229 46.7105 45.7491C46.3321 46.4371 45.6098 46.8842 44.8186 46.8842H23.6992V48.8448H43.7868C44.9906 48.8448 45.9537 49.8079 45.9537 51.0118V52.0093C45.9537 56.1025 49.2902 59.4389 53.3834 59.4389H60.8474C63.7023 59.4389 66.2132 57.6159 67.0732 54.8986L68.8274 49.464C69.0682 48.6728 69.8249 48.1569 70.6504 48.1569H75.6035V44.6141L70.0313 44.5797Z" fill="white"/>
<path d="M19.4339 64.4953L17.5077 65.7336L10.9036 55.277C8.66779 51.7342 9.73408 47.0563 13.2425 44.8205C16.6822 42.6535 22.9423 43.9262 25.1093 47.3315C28.8241 53.2133 25.3501 60.7805 19.4339 64.4953Z" fill="#FF6A49"/>
</svg>
