<svg width="22" height="18" viewBox="0 0 22 18" fill="none" xmlns="http://www.w3.org/2000/svg">
<path d="M21.4092 2.13409C20.6536 2.47555 19.7301 2.73164 18.8905 2.817C19.7301 2.21946 20.4857 1.36582 20.8215 0.341455C19.982 0.853637 19.0584 1.19509 18.0509 1.45118C17.2113 0.597546 16.1199 0 14.8605 0C12.4258 0 10.4947 2.04873 10.4947 4.43891C10.4947 4.78037 10.4947 5.12182 10.5787 5.46328C6.88454 5.29255 3.69414 3.49991 1.51124 0.853637C1.09145 1.45118 0.923536 2.21946 0.923536 3.07309C0.923536 4.60964 1.67916 5.97546 2.85457 6.8291C2.09895 6.8291 1.42728 6.57301 0.839578 6.23155C0.839578 6.23155 0.839578 6.23155 0.839578 6.31692C0.839578 8.53637 2.35082 10.329 4.36581 10.7558C4.02997 10.8412 3.61019 10.9266 3.1904 10.9266C2.93852 10.9266 2.60269 10.9266 2.35082 10.8412C2.93852 12.6338 4.53372 13.9143 6.46475 13.9997C4.95351 15.1947 3.10644 15.8777 1.00749 15.8777C0.671662 15.8777 0.335831 15.8777 0 15.7923C1.93103 17.0727 4.28185 17.841 6.71662 17.841C14.7766 17.841 19.2263 11.0119 19.2263 5.12182C19.2263 4.9511 19.2263 4.695 19.2263 4.52428C20.0659 3.756 20.8215 2.98773 21.4092 2.13409Z" fill="#B0BEDE"/>
</svg>
