<svg width="17" height="15" viewBox="0 0 17 15" fill="none" xmlns="http://www.w3.org/2000/svg">
<path d="M16.9043 2.45079C16.3077 2.7204 15.5785 2.9226 14.9156 2.99C15.5785 2.51819 16.1751 1.84417 16.4403 1.03535C15.7774 1.43976 15.0482 1.70937 14.2527 1.91158C13.5898 1.23756 12.728 0.765747 11.7336 0.765747C9.81115 0.765747 8.28644 2.38339 8.28644 4.27064C8.28644 4.54024 8.28645 4.80985 8.35274 5.07946C5.43591 4.94465 2.91683 3.52922 1.19325 1.43976C0.86179 1.91158 0.729207 2.51819 0.729207 3.19221C0.729207 4.40544 1.32583 5.48387 2.25391 6.15788C1.65729 6.15788 1.12696 5.95568 0.662916 5.68607C0.662916 5.68607 0.662916 5.68607 0.662916 5.75347C0.662916 7.50592 1.85616 8.92135 3.44716 9.25836C3.18199 9.32576 2.85054 9.39317 2.51908 9.39317C2.3202 9.39317 2.05504 9.39317 1.85616 9.32576C2.3202 10.7412 3.57974 11.7522 5.10445 11.8196C3.9112 12.7633 2.45279 13.3025 0.795499 13.3025C0.530333 13.3025 0.265166 13.3025 0 13.2351C1.52471 14.2461 3.38087 14.8527 5.30332 14.8527C11.6673 14.8527 15.1808 9.46057 15.1808 4.80985C15.1808 4.67505 15.1808 4.47284 15.1808 4.33804C15.8437 3.73142 16.4403 3.12481 16.9043 2.45079Z" fill="#9CAFC3"/>
</svg>
