<svg width="13" height="11" viewBox="0 0 13 11" fill="none" xmlns="http://www.w3.org/2000/svg">
<path d="M1.53817 2.24447C1.55802 2.07507 1.48855 1.90568 1.36947 1.78922L0.168702 0.232916V0H3.93969L6.85725 6.81809L9.40763 0H13V0.232916L11.958 1.29163C11.8687 1.36574 11.829 1.48219 11.8389 1.59865V9.40135C11.8191 9.51781 11.8687 9.63426 11.958 9.70837L12.9702 10.7671V11H7.86947V10.7671L8.92137 9.67661C9.02061 9.57074 9.02061 9.53898 9.02061 9.36959V3.07026L6.10305 10.9788H5.70611L2.32214 3.07026V8.3744C2.29237 8.59673 2.36183 8.81906 2.51069 8.97786L3.87023 10.7565V10.9894H0V10.7565L1.36947 8.98845C1.51832 8.82964 1.57786 8.59673 1.54809 8.38499V2.24447H1.53817Z" fill="black"/>
</svg>
