<svg width="83" height="32" viewBox="0 0 83 32" fill="none" xmlns="http://www.w3.org/2000/svg">
<path fill-rule="evenodd" clip-rule="evenodd" d="M77.7767 0.13913H77.0612V2.29565H77.6336C79.494 2.29565 80.5672 3.2 80.5672 4.86957C80.5672 6.4 79.494 7.51304 77.6336 7.51304H77.0612V9.6H77.6336C80.6388 9.53044 83 7.93044 83 4.8C83 1.87826 80.925 0.13913 77.7767 0.13913ZM75.4871 0.13913H73.0543V14.1913H75.4871V0.13913ZM63.681 12.1739C62.25 11.8957 61.4629 10.713 61.4629 8.83478V0.13913H59.0302V8.83478C59.0302 12.2435 60.8905 14.1217 63.681 14.4V12.1739ZM67.4733 0.13913V8.90435C67.4733 10.8522 66.6147 11.8957 65.1836 12.1739V14.3304C68.0457 14.0522 69.8345 12.1739 69.8345 8.69565V0.13913H67.4733ZM9.65948 29.8435H3.43448V17.9478H1.07328V32H8.87241L9.65948 29.8435ZM0 12.313C1.21638 13.4261 2.79052 14.1217 4.50776 14.3304V12.1739C3.36293 11.9652 2.28965 11.4087 1.50259 10.5739L0 12.313ZM9.80259 1.6C8.72931 0.695652 7.36983 0.13913 5.93879 0V2.15652C6.86897 2.36522 7.65603 2.78261 8.37155 3.4087L9.80259 1.6ZM6.01034 6.12174C3.57759 5.21739 3.00517 4.66087 3.00517 3.68696C3.00517 2.92174 3.64914 2.22609 4.43621 2.15652V0C2.14655 0.278261 0.572414 1.8087 0.572414 3.89565V3.96522C0.572414 6.1913 2.00345 7.16522 4.79397 8.2087C7.08362 9.04348 7.58448 9.6 7.58448 10.5043C7.58448 11.4087 6.86897 12.1043 6.01034 12.2435V14.4C8.37155 14.1217 10.0172 12.6609 10.0172 10.3652V10.2957C10.0172 8.2087 8.72931 7.16522 6.01034 6.12174ZM14.8828 3.75652V14.1913H17.3155V3.75652H14.8828ZM11.019 0.13913V2.29565H21.1078V0.13913H11.019ZM50.7302 3.75652V14.1913H53.1629V3.75652H50.7302ZM46.9379 0.13913V2.29565H57.0267V0.13913H46.9379ZM40.4983 2.29565C42.2871 2.29565 43.3603 3.13043 43.3603 4.73043V4.8C43.3603 6.26087 42.2871 7.23478 40.4267 7.23478H39.5681V9.32174H40.1405C43.5034 9.32174 45.7931 7.58261 45.7931 4.73043V4.52174C45.8647 3.4087 45.4353 2.29565 44.5767 1.46087C43.5034 0.556522 42.144 0.0695652 40.7129 0.13913H35.4181V2.29565H40.4983ZM43.6465 10.087L41.1422 10.5739L43.4319 14.1913H46.2224L43.6465 10.087ZM37.8509 11.8957V3.68696H35.4181V14.1217H37.8509V11.8957ZM29.3362 20.0348H30.481C32.0552 20.0348 32.9138 20.7304 32.9138 21.913V21.9826C32.9138 23.3043 31.9121 24 30.3379 24H29.3362V25.9478H30.1948C33.2716 25.9478 35.4181 24.8348 35.4181 21.6348V21.5652C35.4181 20.6609 35.0603 19.8261 34.4164 19.2C33.4147 18.3652 32.0552 17.9478 30.6957 18.0174H29.3362V20.0348ZM27.9052 17.9478H25.544V32H27.9052V17.9478ZM27.4043 8.83478H24.9716L26.1879 5.49565L25.0431 2.36522L20.5353 14.1913H22.9681L24.1845 10.8522H28.1198L27.4043 8.83478ZM28.2629 0.0695652H25.9017L31.0534 14.1913H33.6293L28.2629 0.0695652ZM17.3155 26.6435H14.8828L16.0991 23.3043L14.9543 20.1739L10.4466 32H12.8793L14.0957 28.6609H18.031L17.3155 26.6435ZM18.1026 17.8783H15.7414L20.9647 32H23.469L18.1026 17.8783ZM35.2034 25.8783L33.1284 26.6435C33.4147 26.9913 33.6293 27.4087 33.5578 27.8261V27.8957C33.5578 29.1478 32.4845 29.913 30.8388 29.913H29.3362V32H30.8388C33.9155 32 35.9905 30.6087 35.9905 28.1739V28.1043C36.0621 27.2696 35.7759 26.5043 35.2034 25.8783Z" fill="black"/>
</svg>
