<svg width="24" height="24" viewBox="0 0 24 24" fill="none" xmlns="http://www.w3.org/2000/svg">
<path d="M17.8638 14.3377L14.3164 12.3441C13.9404 12.1313 13.8695 11.6133 14.1745 11.3083C14.2455 11.2373 14.3377 11.1806 14.4299 11.1522L15.5296 10.7904L13.8269 9.96027C13.5786 9.83966 13.2735 9.88932 13.0749 10.088L12.9188 10.2441C12.6137 10.5491 12.0958 10.4782 11.8829 10.1022L9.66939 6.13622C9.25789 5.40546 8.61937 4.83079 7.85314 4.50443L2 2L2.68109 3.68854C3.02873 4.5541 3.68145 5.25647 4.51153 5.67506C5.24938 6.04399 5.84534 6.63994 6.21426 7.37779L8.7116 12.3796C8.86059 12.6846 8.67613 13.0465 8.34268 13.1032L6.41291 13.4154L6.44839 13.6495C6.77474 15.7496 8.47038 17.3672 10.5846 17.5871L10.8968 15.6573C10.9535 15.3239 11.3154 15.1323 11.6204 15.2884L16.6222 17.7857C17.3601 18.1547 17.956 18.7506 18.3249 19.4885C18.7364 20.3186 19.4459 20.9713 20.3115 21.3189L22 22L19.4956 16.154C19.1692 15.3877 18.5945 14.7492 17.8638 14.3377Z" stroke="#1E70FA" stroke-width="2" stroke-miterlimit="10"/>
</svg>
