<svg width="15" height="15" viewBox="0 0 15 15" fill="none" xmlns="http://www.w3.org/2000/svg">
<path d="M13.969 0.765747H1.95205C1.3802 0.765747 0.913055 1.21653 0.913055 1.78001V13.8384C0.913055 14.4019 1.3802 14.8527 1.95205 14.8527H13.9609C14.5328 14.8527 14.9999 14.3939 14.9999 13.8384V1.78001C15.008 1.21653 14.5408 0.765747 13.969 0.765747ZM5.0932 12.7678H2.9991V6.04634H5.0932V12.7678ZM4.04615 5.12868C3.37765 5.12868 2.82996 4.58935 2.82996 3.91318C2.82996 3.24505 3.3696 2.70572 4.04615 2.70572C4.71465 2.70572 5.25429 3.24505 5.25429 3.91318C5.26234 4.58935 4.71465 5.12868 4.04615 5.12868ZM12.9219 12.7678H10.8278V9.49966C10.8278 8.71884 10.8117 7.72068 9.7405 7.72068C8.65317 7.72068 8.48404 8.57395 8.48404 9.45136V12.7759H6.40604V6.04634H8.41155V6.96401H8.44376C8.72566 6.43273 9.40222 5.8773 10.4251 5.8773C12.5434 5.8773 12.93 7.2699 12.93 9.08108V12.7678H12.9219Z" fill="#9CAFC3"/>
</svg>
