<svg width="18" height="18" viewBox="0 0 18 18" fill="none" xmlns="http://www.w3.org/2000/svg">
<path d="M16.6788 0H1.45944C0.735192 0 0.143555 0.570913 0.143555 1.28455V16.5565C0.143555 17.2701 0.735192 17.841 1.45944 17.841H16.6686C17.3928 17.841 17.9845 17.2599 17.9845 16.5565V1.28455C17.9947 0.570913 17.403 0 16.6788 0ZM5.43768 15.2005H2.78552V6.68783H5.43768V15.2005ZM4.1116 5.52562C3.26495 5.52562 2.57131 4.84256 2.57131 3.98619C2.57131 3.14002 3.25475 2.45696 4.1116 2.45696C4.95825 2.45696 5.6417 3.14002 5.6417 3.98619C5.6519 4.84256 4.95825 5.52562 4.1116 5.52562ZM15.3527 15.2005H12.7005V11.0614C12.7005 10.0725 12.6801 8.80837 11.3235 8.80837C9.94637 8.80837 9.73215 9.88902 9.73215 11.0003V15.2107H7.10039V6.68783H9.64035V7.85005H9.68115C10.0382 7.17719 10.895 6.47374 12.1905 6.47374C14.8733 6.47374 15.3629 8.23745 15.3629 10.5313V15.2005H15.3527Z" fill="#B0BEDE"/>
</svg>
