<?xml version="1.0" encoding="UTF-8"?>
<svg width="1310px" height="800px" viewBox="0 0 1310 800" version="1.1" xmlns="http://www.w3.org/2000/svg" xmlns:xlink="http://www.w3.org/1999/xlink">
    <!-- Generator: Sketch 61 (89581) - https://sketch.com -->
    <title>Announcing New Brand Identity</title>
    <desc>Created with Sketch.</desc>
    <g id="Announcing-New-Brand-Identity" stroke="none" stroke-width="1" fill="none" fill-rule="evenodd">
        <rect fill="#4038FF" x="0" y="0" width="1310" height="800"></rect>
        <g id="Group" transform="translate(990.000000, 0.000000)">
            <path d="M142.213523,346.680178 L133.342349,346.680178 L133.342349,355.551289 L142.213523,355.551289 L142.213523,364.444444 L133.342349,364.444444 L133.342349,373.3376 L142.213523,373.3376 L142.213523,382.208711 L151.106762,382.208711 L151.106762,391.101867 L142.213523,391.101867 L142.213523,382.230756 L133.342349,382.230756 L133.342349,391.101867 L142.213523,391.101867 L142.213523,400 L133.320285,400 L133.320285,391.106844 L124.44911,391.106844 L124.44911,382.235733 L115.555872,382.235733 L115.555872,391.106844 L106.662633,391.106844 L106.662633,382.235733 L97.7914591,382.235733 L97.7914591,391.106844 L106.662633,391.106844 L106.662633,400 L97.7686833,400 L97.7686833,391.106844 L88.8982206,391.106844 L88.8982206,400 L80,400 L80,391.106844 L88.8932384,391.106844 L88.8932384,382.235733 L80,382.235733 L80,373.341867 L88.8932384,373.341867 L88.8932384,364.448711 L80,364.448711 L80,355.555556 L88.8932384,355.555556 L88.8932384,346.684444 L88.8932384,346.6624 L97.7644128,346.6624 L97.7644128,337.791289 L106.657651,337.791289 L106.657651,346.6624 L115.55089,346.6624 L115.55089,337.791289 L124.44484,337.791289 L124.44484,346.6624 L133.316014,346.6624 L133.316014,337.791289 L142.209253,337.791289 L142.209253,346.6624 L151.102491,346.6624 L151.102491,355.555556 L142.209253,355.555556 L142.209253,346.680178 L142.213523,346.680178 Z M88.8932384,346.658133 L88.8932384,337.786311 L80,337.786311 L80,346.680178 L88.8932384,346.680178 L88.8932384,346.658133 Z M115.55089,391.106844 L115.55089,400 L124.44484,400 L124.44484,391.106844 L115.55089,391.106844 Z M142.213523,373.341867 L142.213523,364.448711 L151.106762,364.448711 L151.106762,373.341867 L142.213523,373.341867 Z M97.7644128,382.213689 L88.8932384,382.213689 L88.8932384,373.341867 L97.7644128,373.341867 L97.7644128,382.213689 Z M97.7864769,337.786311 L97.7864769,328.893156 L106.657651,328.893156 L106.657651,337.786311 L115.55089,337.786311 L115.55089,328.893156 L124.44484,328.893156 L124.44484,337.786311 L133.338078,337.786311 L133.338078,328.893156 L142.209253,328.893156 L142.209253,337.786311 L151.102491,337.786311 L151.102491,328.893156 L142.209253,328.893156 L142.209253,320 L133.316014,320 L133.316014,328.893156 L124.44484,328.893156 L124.44484,320 L115.55089,320 L115.55089,328.893156 L106.657651,328.893156 L106.657651,320 L97.7644128,320 L97.7644128,328.893156 L88.8932384,328.893156 L88.8932384,320 L80,320 L80,328.893156 L88.8932384,328.893156 L88.8932384,337.786311 L97.7864769,337.786311 Z M133.316014,355.551289 L133.316014,364.444444 L124.44484,364.444444 L124.44484,355.551289 L133.316014,355.551289 Z M115.55089,355.551289 L115.55089,346.680178 L124.44484,346.680178 L124.44484,355.551289 L115.55089,355.551289 Z M106.657651,355.551289 L115.55089,355.551289 L115.55089,364.444444 L106.657651,364.444444 L106.657651,355.551289 Z M106.657651,355.551289 L97.7864769,355.551289 L97.7864769,346.680178 L106.657651,346.680178 L106.657651,355.551289 Z M106.657651,373.341867 L97.7864769,373.341867 L97.7864769,364.448711 L106.657651,364.448711 L106.657651,373.341867 Z M115.55089,373.341867 L115.55089,382.213689 L106.657651,382.213689 L106.657651,373.341867 L115.55089,373.341867 Z M124.44911,373.341867 L115.555872,373.341867 L115.555872,364.448711 L124.44911,364.448711 L124.44911,373.341867 Z M124.44911,373.341867 L133.320285,373.341867 L133.320285,382.213689 L124.44911,382.213689 L124.44911,373.341867 Z M97.7644128,364.448711 L97.7644128,355.555556 L88.8932384,355.555556 L88.8932384,364.448711 L97.7644128,364.448711 Z M160,391.106844 L151.106762,391.106844 L151.106762,400 L160,400 L160,391.106844 Z M151.106762,373.341867 L160,373.341867 L160,382.235733 L151.106762,382.235733 L151.106762,373.341867 Z M160,355.551289 L151.106762,355.551289 L151.106762,364.444444 L160,364.444444 L160,355.551289 Z M151.106762,337.786311 L160,337.786311 L160,346.680178 L151.106762,346.680178 L151.106762,337.786311 Z M151.106762,320 L160,320 L160,328.893156 L151.106762,328.893156 L151.106762,320 Z" id="Shape" fill="#261EE4"></path>
            <path d="M311.106762,80 L320,80 L320,0 L311.106762,0 L311.106762,80 Z M302.222064,80 L293.333096,80 L293.333096,0 L302.222064,0 L302.222064,80 Z M284.44484,80 L275.555872,80 L275.555872,0 L284.44484,0 L284.44484,80 Z M257.777936,80 L266.666904,80 L266.666904,0 L257.777936,0 L257.777936,80 Z M248.888968,80 L240,80 L240,0 L248.888968,0 L248.888968,80 Z" id="Shape-Copy-6" fill="#261EE4"></path>
            <path d="M240,248.893156 L240,240 L160,240 L160,248.893156 L240,248.893156 Z M240,257.777778 L240,266.666667 L160,266.666667 L160,257.777778 L240,257.777778 Z M240,275.555556 L240,284.444444 L160,284.444444 L160,275.555556 L240,275.555556 Z M240,302.222222 L240,293.333333 L160,293.333333 L160,302.222222 L240,302.222222 Z M240,311.111111 L240,320 L160,320 L160,311.111111 L240,311.111111 Z" id="Shape" fill="#261EE4"></path>
            <path d="M320,471.106702 L320,480 L240,480 L240,471.106702 L320,471.106702 Z M320,444.435556 L320,435.542258 L240,435.542258 L240,444.435556 L320,444.435556 Z M320,417.76448 L320,426.657778 L240,426.657778 L240,417.76448 L320,417.76448 Z M320,400 L320,408.893369 L240,408.893369 L240,400 L320,400 Z M320,462.213333 L320,453.319964 L240,453.319964 L240,462.213333 L320,462.213333 Z" id="Shape" fill="#261EE4"></path>
            <path d="M88.888968,560 L80,560 C80,515.817956 115.817794,480 160,480 L160,488.888889 C120.724555,488.888889 88.888968,520.724622 88.888968,560 Z M106.666904,560 L97.7779359,560 C97.7779359,525.635556 125.635587,497.777778 160,497.777778 L160,506.666667 C130.546619,506.666667 106.666904,530.546489 106.666904,560 Z M115.555872,560 L124.44484,560 C124.44484,540.364089 140.364413,524.444444 160,524.444444 L160,515.555556 C135.453381,515.555556 115.555872,535.453156 115.555872,560 Z M142.222064,560 L133.333808,560 C133.333808,545.270756 145.271174,533.333333 160,533.333333 L160,542.222222 C150.182206,542.222222 142.222064,550.1824 142.222064,560 Z M160,560 L151.111032,560 C151.111032,555.089067 155.088968,551.111111 160,551.111111 L160,560 Z" id="Shape" fill="#261EE4"></path>
            <path d="M8.88896797,240 L0,240 C0,195.817956 35.8177936,160 80,160 L80,168.888889 C40.7245552,168.888889 8.88896797,200.724622 8.88896797,240 Z M26.6669039,240 L17.7779359,240 C17.7779359,205.635556 45.6355872,177.777778 80,177.777778 L80,186.666667 C50.5466192,186.666667 26.6669039,210.546489 26.6669039,240 Z M35.5558719,240 L44.4448399,240 C44.4448399,220.364089 60.3644128,204.444444 80,204.444444 L80,195.555556 C55.4533808,195.555556 35.5558719,215.453156 35.5558719,240 Z M62.2220641,240 L53.3338078,240 C53.3338078,225.270756 65.2711744,213.333333 80,213.333333 L80,222.222222 C70.1822064,222.222222 62.2220641,230.1824 62.2220641,240 Z M80,240 L71.111032,240 C71.111032,235.089067 75.088968,231.111111 80,231.111111 L80,240 Z" id="Shape-Copy-3" fill="#FFFFFF"></path>
            <path d="M248.888968,240 L240,240 C240,195.817956 275.817794,160 320,160 L320,168.888889 C280.724555,168.888889 248.888968,200.724622 248.888968,240 Z M266.666904,240 L257.777936,240 C257.777936,205.635556 285.635587,177.777778 320,177.777778 L320,186.666667 C290.546619,186.666667 266.666904,210.546489 266.666904,240 Z M275.555872,240 L284.44484,240 C284.44484,220.364089 300.364413,204.444444 320,204.444444 L320,195.555556 C295.453381,195.555556 275.555872,215.453156 275.555872,240 Z M302.222064,240 L293.333808,240 C293.333808,225.270756 305.271174,213.333333 320,213.333333 L320,222.222222 C310.182206,222.222222 302.222064,230.1824 302.222064,240 Z M320,240 L311.111032,240 C311.111032,235.089067 315.088968,231.111111 320,231.111111 L320,240 Z" id="Shape-Copy-7" fill="#FFFFFF" transform="translate(280.000000, 200.000000) rotate(-90.000000) translate(-280.000000, -200.000000) "></path>
            <path d="M88.888968,160 L80,160 C80,115.817956 115.817794,80 160,80 L160,88.8888889 C120.724555,88.8888889 88.888968,120.724622 88.888968,160 Z M106.666904,160 L97.7779359,160 C97.7779359,125.635556 125.635587,97.7777778 160,97.7777778 L160,106.666667 C130.546619,106.666667 106.666904,130.546489 106.666904,160 Z M115.555872,160 L124.44484,160 C124.44484,140.364089 140.364413,124.444444 160,124.444444 L160,115.555556 C135.453381,115.555556 115.555872,135.453156 115.555872,160 Z M142.222064,160 L133.333808,160 C133.333808,145.270756 145.271174,133.333333 160,133.333333 L160,142.222222 C150.182206,142.222222 142.222064,150.1824 142.222064,160 Z M160,160 L151.111032,160 C151.111032,155.089067 155.088968,151.111111 160,151.111111 L160,160 Z" id="Shape-Copy-4" fill="#261EE4" transform="translate(120.000000, 120.000000) rotate(-180.000000) translate(-120.000000, -120.000000) "></path>
            <path d="M248.888968,720 L240,720 C240,675.817956 275.817794,640 320,640 L320,648.888889 C280.724555,648.888889 248.888968,680.724622 248.888968,720 Z M266.666904,720 L257.777936,720 C257.777936,685.635556 285.635587,657.777778 320,657.777778 L320,666.666667 C290.546619,666.666667 266.666904,690.546489 266.666904,720 Z M275.555872,720 L284.44484,720 C284.44484,700.364089 300.364413,684.444444 320,684.444444 L320,675.555556 C295.453381,675.555556 275.555872,695.453156 275.555872,720 Z M302.222064,720 L293.333808,720 C293.333808,705.270756 305.271174,693.333333 320,693.333333 L320,702.222222 C310.182206,702.222222 302.222064,710.1824 302.222064,720 Z M320,720 L311.111032,720 C311.111032,715.089067 315.088968,711.111111 320,711.111111 L320,720 Z" id="Shape-Copy-2" fill="#FFFFFF" transform="translate(280.000000, 680.000000) scale(-1, 1) translate(-280.000000, -680.000000) "></path>
            <path d="M160,640 L240,640 L240,560 C195.817794,560 160,595.817956 160,640 Z" id="Path" fill="#261EE4" fill-rule="nonzero"></path>
        </g>
        <g id="Group-Copy" transform="translate(40.000000, 400.000000) rotate(-180.000000) translate(-40.000000, -400.000000) translate(-160.000000, 0.000000)">
            <path d="M142.213523,346.680178 L133.342349,346.680178 L133.342349,355.551289 L142.213523,355.551289 L142.213523,364.444444 L133.342349,364.444444 L133.342349,373.3376 L142.213523,373.3376 L142.213523,382.208711 L151.106762,382.208711 L151.106762,391.101867 L142.213523,391.101867 L142.213523,382.230756 L133.342349,382.230756 L133.342349,391.101867 L142.213523,391.101867 L142.213523,400 L133.320285,400 L133.320285,391.106844 L124.44911,391.106844 L124.44911,382.235733 L115.555872,382.235733 L115.555872,391.106844 L106.662633,391.106844 L106.662633,382.235733 L97.7914591,382.235733 L97.7914591,391.106844 L106.662633,391.106844 L106.662633,400 L97.7686833,400 L97.7686833,391.106844 L88.8982206,391.106844 L88.8982206,400 L80,400 L80,391.106844 L88.8932384,391.106844 L88.8932384,382.235733 L80,382.235733 L80,373.341867 L88.8932384,373.341867 L88.8932384,364.448711 L80,364.448711 L80,355.555556 L88.8932384,355.555556 L88.8932384,346.684444 L88.8932384,346.6624 L97.7644128,346.6624 L97.7644128,337.791289 L106.657651,337.791289 L106.657651,346.6624 L115.55089,346.6624 L115.55089,337.791289 L124.44484,337.791289 L124.44484,346.6624 L133.316014,346.6624 L133.316014,337.791289 L142.209253,337.791289 L142.209253,346.6624 L151.102491,346.6624 L151.102491,355.555556 L142.209253,355.555556 L142.209253,346.680178 L142.213523,346.680178 Z M88.8932384,346.658133 L88.8932384,337.786311 L80,337.786311 L80,346.680178 L88.8932384,346.680178 L88.8932384,346.658133 Z M115.55089,391.106844 L115.55089,400 L124.44484,400 L124.44484,391.106844 L115.55089,391.106844 Z M142.213523,373.341867 L142.213523,364.448711 L151.106762,364.448711 L151.106762,373.341867 L142.213523,373.341867 Z M97.7644128,382.213689 L88.8932384,382.213689 L88.8932384,373.341867 L97.7644128,373.341867 L97.7644128,382.213689 Z M97.7864769,337.786311 L97.7864769,328.893156 L106.657651,328.893156 L106.657651,337.786311 L115.55089,337.786311 L115.55089,328.893156 L124.44484,328.893156 L124.44484,337.786311 L133.338078,337.786311 L133.338078,328.893156 L142.209253,328.893156 L142.209253,337.786311 L151.102491,337.786311 L151.102491,328.893156 L142.209253,328.893156 L142.209253,320 L133.316014,320 L133.316014,328.893156 L124.44484,328.893156 L124.44484,320 L115.55089,320 L115.55089,328.893156 L106.657651,328.893156 L106.657651,320 L97.7644128,320 L97.7644128,328.893156 L88.8932384,328.893156 L88.8932384,320 L80,320 L80,328.893156 L88.8932384,328.893156 L88.8932384,337.786311 L97.7864769,337.786311 Z M133.316014,355.551289 L133.316014,364.444444 L124.44484,364.444444 L124.44484,355.551289 L133.316014,355.551289 Z M115.55089,355.551289 L115.55089,346.680178 L124.44484,346.680178 L124.44484,355.551289 L115.55089,355.551289 Z M106.657651,355.551289 L115.55089,355.551289 L115.55089,364.444444 L106.657651,364.444444 L106.657651,355.551289 Z M106.657651,355.551289 L97.7864769,355.551289 L97.7864769,346.680178 L106.657651,346.680178 L106.657651,355.551289 Z M106.657651,373.341867 L97.7864769,373.341867 L97.7864769,364.448711 L106.657651,364.448711 L106.657651,373.341867 Z M115.55089,373.341867 L115.55089,382.213689 L106.657651,382.213689 L106.657651,373.341867 L115.55089,373.341867 Z M124.44911,373.341867 L115.555872,373.341867 L115.555872,364.448711 L124.44911,364.448711 L124.44911,373.341867 Z M124.44911,373.341867 L133.320285,373.341867 L133.320285,382.213689 L124.44911,382.213689 L124.44911,373.341867 Z M97.7644128,364.448711 L97.7644128,355.555556 L88.8932384,355.555556 L88.8932384,364.448711 L97.7644128,364.448711 Z M160,391.106844 L151.106762,391.106844 L151.106762,400 L160,400 L160,391.106844 Z M151.106762,373.341867 L160,373.341867 L160,382.235733 L151.106762,382.235733 L151.106762,373.341867 Z M160,355.551289 L151.106762,355.551289 L151.106762,364.444444 L160,364.444444 L160,355.551289 Z M151.106762,337.786311 L160,337.786311 L160,346.680178 L151.106762,346.680178 L151.106762,337.786311 Z M151.106762,320 L160,320 L160,328.893156 L151.106762,328.893156 L151.106762,320 Z" id="Shape" fill="#261EE4"></path>
            <path d="M240,248.893156 L240,240 L160,240 L160,248.893156 L240,248.893156 Z M240,257.777778 L240,266.666667 L160,266.666667 L160,257.777778 L240,257.777778 Z M240,275.555556 L240,284.444444 L160,284.444444 L160,275.555556 L240,275.555556 Z M240,302.222222 L240,293.333333 L160,293.333333 L160,302.222222 L240,302.222222 Z M240,311.111111 L240,320 L160,320 L160,311.111111 L240,311.111111 Z" id="Shape" fill="#261EE4"></path>
            <path d="M88.888968,560 L80,560 C80,515.817956 115.817794,480 160,480 L160,488.888889 C120.724555,488.888889 88.888968,520.724622 88.888968,560 Z M106.666904,560 L97.7779359,560 C97.7779359,525.635556 125.635587,497.777778 160,497.777778 L160,506.666667 C130.546619,506.666667 106.666904,530.546489 106.666904,560 Z M115.555872,560 L124.44484,560 C124.44484,540.364089 140.364413,524.444444 160,524.444444 L160,515.555556 C135.453381,515.555556 115.555872,535.453156 115.555872,560 Z M142.222064,560 L133.333808,560 C133.333808,545.270756 145.271174,533.333333 160,533.333333 L160,542.222222 C150.182206,542.222222 142.222064,550.1824 142.222064,560 Z M160,560 L151.111032,560 C151.111032,555.089067 155.088968,551.111111 160,551.111111 L160,560 Z" id="Shape" fill="#261EE4"></path>
            <path d="M8.88896797,240 L0,240 C0,195.817956 35.8177936,160 80,160 L80,168.888889 C40.7245552,168.888889 8.88896797,200.724622 8.88896797,240 Z M26.6669039,240 L17.7779359,240 C17.7779359,205.635556 45.6355872,177.777778 80,177.777778 L80,186.666667 C50.5466192,186.666667 26.6669039,210.546489 26.6669039,240 Z M35.5558719,240 L44.4448399,240 C44.4448399,220.364089 60.3644128,204.444444 80,204.444444 L80,195.555556 C55.4533808,195.555556 35.5558719,215.453156 35.5558719,240 Z M62.2220641,240 L53.3338078,240 C53.3338078,225.270756 65.2711744,213.333333 80,213.333333 L80,222.222222 C70.1822064,222.222222 62.2220641,230.1824 62.2220641,240 Z M80,240 L71.111032,240 C71.111032,235.089067 75.088968,231.111111 80,231.111111 L80,240 Z" id="Shape-Copy-3" fill="#FFFFFF"></path>
            <path d="M88.888968,160 L80,160 C80,115.817956 115.817794,80 160,80 L160,88.8888889 C120.724555,88.8888889 88.888968,120.724622 88.888968,160 Z M106.666904,160 L97.7779359,160 C97.7779359,125.635556 125.635587,97.7777778 160,97.7777778 L160,106.666667 C130.546619,106.666667 106.666904,130.546489 106.666904,160 Z M115.555872,160 L124.44484,160 C124.44484,140.364089 140.364413,124.444444 160,124.444444 L160,115.555556 C135.453381,115.555556 115.555872,135.453156 115.555872,160 Z M142.222064,160 L133.333808,160 C133.333808,145.270756 145.271174,133.333333 160,133.333333 L160,142.222222 C150.182206,142.222222 142.222064,150.1824 142.222064,160 Z M160,160 L151.111032,160 C151.111032,155.089067 155.088968,151.111111 160,151.111111 L160,160 Z" id="Shape-Copy-4" fill="#261EE4" transform="translate(120.000000, 120.000000) rotate(-180.000000) translate(-120.000000, -120.000000) "></path>
            <path d="M160,640 L240,640 L240,560 C195.817794,560 160,595.817956 160,640 Z" id="Path" fill="#261EE4" fill-rule="nonzero"></path>
        </g>
        <g id="Group" transform="translate(554.000000, 272.000000)" fill="#FFFFFF" fill-rule="nonzero">
            <path d="M179.6272,2.7000624e-13 L202.88,2.7000624e-13 L202.88,66.7728 C202.88,93.44 192.8528,117.9728 176.4272,136.5328 C178.56,127.5728 179.6272,118.4 179.6272,108.8 L179.6272,2.7000624e-13 Z" id="Path"></path>
            <path d="M62.72,190.5056 C62.08,191.1456 61.6528,191.7856 61.0128,192.4256 C60.8,192.64 60.5872,192.8528 60.3728,193.0656 C59.7328,193.7056 59.3072,194.3456 58.6672,194.7728 C58.4528,194.9856 58.0272,195.4128 57.8128,195.6256 C57.1728,196.2656 56.5328,196.9056 55.68,197.5456 C54.8272,198.4 53.9728,199.04 53.12,199.8928 C52.2672,200.7456 51.4128,201.3856 50.3472,202.0256 C49.4928,202.6656 48.64,203.3056 47.7872,203.9456 C45.6528,205.2256 43.52,206.5056 41.3872,207.5728 C40.96,207.7856 40.5328,208 39.8928,208.2128 C39.2528,208.4256 38.8272,208.64 38.4,208.8528 C37.76,209.0656 37.3328,209.28 36.6928,209.4928 C35.6272,209.92 34.56,210.3456 33.28,210.7728 C33.28,210.7728 33.28,210.7728 33.0672,210.7728 C32,211.2 30.9328,211.4128 29.8672,211.6256 L29.6528,211.6256 C28.5872,211.84 27.52,212.2656 26.4528,212.48 C25.1728,212.6928 23.68,213.12 22.4,213.12 C21.9728,213.12 21.5472,213.3328 21.12,213.3328 L20.9072,213.3328 C19.6272,213.5456 18.56,213.5456 17.28,213.5456 C16.64,213.5456 16,213.5456 15.36,213.5456 C14.72,213.5456 14.08,213.5456 13.44,213.5456 L12.5872,213.5456 L19.6272,190.2928 L62.72,190.2928 L62.72,190.5056 Z" id="Path"></path>
            <path d="M160.8528,-7.10542736e-15 L160.8528,108.8 C160.8528,110.5072 160.8528,112.4272 160.64,114.1328 C160.64,114.9872 160.64,115.84 160.4272,116.6928 C160.4272,117.5472 160.2128,118.4 160.2128,119.2528 C160.2128,120.1072 160,120.96 160,121.8128 C160,122.4528 159.7872,123.3072 159.7872,123.9472 L159.7872,124.16 C159.7872,124.3728 159.7872,124.5872 159.7872,124.5872 C159.5728,125.44 159.5728,126.2928 159.36,126.9328 C159.1472,127.7872 159.1472,128.64 158.9328,129.28 L158.9328,129.4928 C158.72,130.1328 158.72,130.7728 158.5072,131.4128 C158.5072,131.6272 158.5072,131.6272 158.5072,131.84 C157.8672,134.4 157.2272,137.1728 156.3728,139.7328 C156.16,140.3728 155.9472,141.2272 155.7328,141.8672 C155.52,142.72 155.3072,143.36 154.88,144.2128 C154.6672,145.0672 154.24,145.7072 154.0272,146.3472 C153.8128,147.2 153.3872,147.84 153.1728,148.48 C152.96,149.3328 152.5328,149.9728 152.32,150.6128 C152.1072,151.2528 151.68,152.1072 151.2528,152.7472 C151.04,153.3872 150.6128,154.24 150.1872,154.88 C149.76,155.52 149.5472,156.3728 149.12,157.0128 C148.9072,157.6528 148.48,158.08 148.2672,158.72 C147.6272,160 146.9872,161.0672 146.1328,162.3472 C145.4928,163.4128 144.8528,164.48 144.2128,165.3328 C143.7872,166.1872 143.36,166.8272 142.72,167.4672 C142.5072,167.8928 142.08,168.32 141.8672,168.5328 C141.2272,169.3872 140.8,170.0272 140.16,170.6672 C139.52,171.52 138.88,172.16 138.4528,173.0128 C137.1728,174.5072 135.8928,176 134.6128,177.4928 C134.8272,176.64 135.04,175.7872 135.2528,174.9328 C135.4672,174.2928 135.4672,173.6528 135.68,173.0128 C135.68,173.0128 135.68,173.0128 135.68,172.8 C135.68,172.5872 135.68,172.5872 135.68,172.3728 C135.8928,171.52 135.8928,170.6672 136.1072,169.8128 C136.32,168.7472 136.5328,167.68 136.5328,166.8272 C136.5328,166.1872 136.7472,165.5472 136.7472,165.12 C136.7472,164.48 136.96,164.0528 136.96,163.4128 C137.1728,162.3472 137.1728,161.28 137.3872,160 C137.3872,159.7872 137.3872,159.7872 137.3872,159.5728 C137.3872,159.36 137.3872,159.36 137.3872,159.1472 C137.3872,158.2928 137.6,157.6528 137.6,156.8 C137.6,156.16 137.6,155.52 137.6,154.88 L137.6,155.7328 C137.6,155.0928 137.6,154.4528 137.6,153.8128 C137.6,152.7472 137.6,151.8928 137.6,150.8272 L137.6,-7.10542736e-15 L160.8528,-7.10542736e-15 Z" id="Path"></path>
            <path d="M118.8272,0 L118.8272,150.8272 C118.8272,154.4528 118.6128,157.8672 118.4,161.28 C118.1872,164.2672 117.76,167.04 117.12,170.0272 C115.84,176.8528 113.92,183.4672 111.36,189.6528 C109.8672,193.4928 107.9472,197.3328 106.0272,200.96 C100.0528,211.6272 92.3728,221.2272 83.4128,229.3328 C64.8528,245.9728 40.32,256 13.6528,256 L-9.23705556e-14,256 L7.04,232.7472 L13.8672,232.7472 C33.92,232.7472 52.2672,225.4928 66.3472,213.5472 C74.0272,207.1472 80.4272,199.4672 85.12,190.72 C86.4,188.5872 87.4672,186.24 88.5328,183.8928 C90.24,180.0528 91.52,176.2128 92.5872,172.16 C93.8672,167.68 94.72,162.9872 94.9328,158.2928 C95.1472,155.9472 95.1472,153.6 95.1472,151.2528 L95.1472,0 L118.8272,0 Z" id="Path"></path>
            <path d="M76.8,148.48 L76.8,150.8272 C76.8,152.7472 76.8,154.6672 76.5872,156.3744 C76.16,160 75.7328,163.6272 74.6672,167.04 C74.24,168.7472 73.8128,170.4544 73.1728,171.9472 L25.1728,171.9472 L32.2128,148.6944 L76.8,148.6944 L76.8,148.48 Z" id="Path"></path>
        </g>
    </g>
</svg>