<?xml version="1.0" encoding="UTF-8"?>
<svg width="1310px" height="800px" viewBox="0 0 1310 800" version="1.1" xmlns="http://www.w3.org/2000/svg" xmlns:xlink="http://www.w3.org/1999/xlink">
    <!-- Generator: Sketch 61 (89581) - https://sketch.com -->
    <title>Athens Released</title>
    <desc>Created with Sketch.</desc>
    <g id="Athens-Released" stroke="none" stroke-width="1" fill="none" fill-rule="evenodd">
        <rect fill="#000000" x="0" y="0" width="1310" height="800"></rect>
        <g id="Group" transform="translate(655.000000, 400.000000) rotate(-90.000000) translate(-655.000000, -400.000000) translate(443.000000, -47.000000)" fill="#4038FF">
            <path d="M47,377 L47,424 L0,424 L0,377 L47,377 Z M141,377 L141,424 L94,424 L94,377 L141,377 Z M236,377 L236,424 L189,424 L189,377 L236,377 Z M330,377 L330,424 L283,424 L283,377 L330,377 Z M424,377 L424,424 L377,424 L377,377 L424,377 Z M94,330 L94,377 L47,377 L47,330 L94,330 Z M188,330 L188,377 L141,377 L141,330 L188,330 Z M283,330 L283,377 L236,377 L236,330 L283,330 Z M377,330 L377,377 L330,377 L330,330 L377,330 Z M47,283 L47,330 L0,330 L0,283 L47,283 Z M141,283 L141,330 L94,330 L94,283 L141,283 Z M236,283 L236,330 L189,330 L189,283 L236,283 Z M330,283 L330,330 L283,330 L283,283 L330,283 Z M424,283 L424,330 L377,330 L377,283 L424,283 Z M94,236 L94,283 L47,283 L47,236 L94,236 Z M188,236 L188,283 L141,283 L141,236 L188,236 Z M283,236 L283,283 L236,283 L236,236 L283,236 Z M377,236 L377,283 L330,283 L330,236 L377,236 Z M236,188 L236,235 L189,235 L189,188 L236,188 Z M330,188 L330,235 L283,235 L283,188 L330,188 Z M424,188 L424,235 L377,235 L377,188 L424,188 Z M47,188 L47,235 L0,235 L0,188 L47,188 Z M141,188 L141,235 L94,235 L94,188 L141,188 Z M94,141 L94,188 L47,188 L47,141 L94,141 Z M188,141 L188,188 L141,188 L141,141 L188,141 Z M283,141 L283,188 L236,188 L236,141 L283,141 Z M377,141 L377,188 L330,188 L330,141 L377,141 Z M47,94 L47,141 L0,141 L0,94 L47,94 Z M141,94 L141,141 L94,141 L94,94 L141,94 Z M236,94 L236,141 L189,141 L189,94 L236,94 Z M330,94 L330,141 L283,141 L283,94 L330,94 Z M424,94 L424,141 L377,141 L377,94 L424,94 Z M94,47 L94,94 L47,94 L47,47 L94,47 Z M188,47 L188,94 L141,94 L141,47 L188,47 Z M283,47 L283,94 L236,94 L236,47 L283,47 Z M377,47 L377,94 L330,94 L330,47 L377,47 Z M47,0 L47,47 L0,47 L0,0 L47,0 Z M141,0 L141,47 L94,47 L94,0 L141,0 Z M236,0 L236,47 L189,47 L189,0 L236,0 Z M330,0 L330,47 L283,47 L283,0 L330,0 Z M424,0 L424,47 L377,47 L377,0 L424,0 Z" id="Shape-Copy-5"></path>
            <path d="M47,753 L47,800 L1.13686838e-13,800 L1.13686838e-13,753 L47,753 Z M141,753 L141,800 L94,800 L94,753 L141,753 Z M236,753 L236,800 L189,800 L189,753 L236,753 Z M330,753 L330,800 L283,800 L283,753 L330,753 Z M424,753 L424,800 L377,800 L377,753 L424,753 Z M94,706 L94,753 L47,753 L47,706 L94,706 Z M188,706 L188,753 L141,753 L141,706 L188,706 Z M283,706 L283,753 L236,753 L236,706 L283,706 Z M377,706 L377,753 L330,753 L330,706 L377,706 Z M47,659 L47,706 L1.13686838e-13,706 L1.13686838e-13,659 L47,659 Z M141,659 L141,706 L94,706 L94,659 L141,659 Z M236,659 L236,706 L189,706 L189,659 L236,659 Z M330,659 L330,706 L283,706 L283,659 L330,659 Z M424,659 L424,706 L377,706 L377,659 L424,659 Z M94,612 L94,659 L47,659 L47,612 L94,612 Z M188,612 L188,659 L141,659 L141,612 L188,612 Z M283,612 L283,659 L236,659 L236,612 L283,612 Z M377,612 L377,659 L330,659 L330,612 L377,612 Z M236,564 L236,611 L189,611 L189,564 L236,564 Z M330,564 L330,611 L283,611 L283,564 L330,564 Z M424,564 L424,611 L377,611 L377,564 L424,564 Z M47,564 L47,611 L1.13686838e-13,611 L1.13686838e-13,564 L47,564 Z M141,564 L141,611 L94,611 L94,564 L141,564 Z M94,517 L94,564 L47,564 L47,517 L94,517 Z M188,517 L188,564 L141,564 L141,517 L188,517 Z M283,517 L283,564 L236,564 L236,517 L283,517 Z M377,517 L377,564 L330,564 L330,517 L377,517 Z M47,470 L47,517 L1.13686838e-13,517 L1.13686838e-13,470 L47,470 Z M141,470 L141,517 L94,517 L94,470 L141,470 Z M236,470 L236,517 L189,517 L189,470 L236,470 Z M330,470 L330,517 L283,517 L283,470 L330,470 Z M424,470 L424,517 L377,517 L377,470 L424,470 Z M94,423 L94,470 L47,470 L47,423 L94,423 Z M188,423 L188,470 L141,470 L141,423 L188,423 Z M283,423 L283,470 L236,470 L236,423 L283,423 Z M377,423 L377,470 L330,470 L330,423 L377,423 Z M47,376 L47,423 L1.13686838e-13,423 L1.13686838e-13,376 L47,376 Z M141,376 L141,423 L94,423 L94,376 L141,376 Z M236,376 L236,423 L189,423 L189,376 L236,376 Z M330,376 L330,423 L283,423 L283,376 L330,376 Z M424,376 L424,423 L377,423 L377,376 L424,376 Z" id="Shape-Copy-6"></path>
            <path d="M47,847 L47,894 L1.13686838e-13,894 L1.13686838e-13,847 L47,847 Z M141,847 L141,894 L94,894 L94,847 L141,847 Z M236,847 L236,894 L189,894 L189,847 L236,847 Z M330,847 L330,894 L283,894 L283,847 L330,847 Z M424,847 L424,894 L377,894 L377,847 L424,847 Z M94,800 L94,847 L47,847 L47,800 L94,800 Z M188,800 L188,847 L141,847 L141,800 L188,800 Z M283,800 L283,847 L236,847 L236,800 L283,800 Z M377,800 L377,847 L330,847 L330,800 L377,800 Z M236,752 L236,799 L189,799 L189,752 L236,752 Z M330,752 L330,799 L283,799 L283,752 L330,752 Z M424,752 L424,799 L377,799 L377,752 L424,752 Z M47,752 L47,799 L1.13686838e-13,799 L1.13686838e-13,752 L47,752 Z M141,752 L141,799 L94,799 L94,752 L141,752 Z M94,705 L94,752 L47,752 L47,705 L94,705 Z M188,705 L188,752 L141,752 L141,705 L188,705 Z M283,705 L283,752 L236,752 L236,705 L283,705 Z M377,705 L377,752 L330,752 L330,705 L377,705 Z M47,658 L47,705 L1.13686838e-13,705 L1.13686838e-13,658 L47,658 Z M141,658 L141,705 L94,705 L94,658 L141,658 Z M236,658 L236,705 L189,705 L189,658 L236,658 Z M330,658 L330,705 L283,705 L283,658 L330,658 Z M424,658 L424,705 L377,705 L377,658 L424,658 Z M94,611 L94,658 L47,658 L47,611 L94,611 Z M188,611 L188,658 L141,658 L141,611 L188,611 Z M283,611 L283,658 L236,658 L236,611 L283,611 Z M377,611 L377,658 L330,658 L330,611 L377,611 Z M47,564 L47,611 L1.13686838e-13,611 L1.13686838e-13,564 L47,564 Z M141,564 L141,611 L94,611 L94,564 L141,564 Z M236,564 L236,611 L189,611 L189,564 L236,564 Z M330,564 L330,611 L283,611 L283,564 L330,564 Z M424,564 L424,611 L377,611 L377,564 L424,564 Z" id="Shape-Copy-7"></path>
        </g>
        <g id="Athens_Owl" transform="translate(480.000000, 195.000000)" fill-rule="nonzero">
            <path d="M260.260812,374.272633 C260.260812,374.272633 250.781809,373.921177 246.042308,377.650521 C246.042308,377.650521 234.92496,370.562814 213.372907,375.697985 L205.259193,343.012524 C205.259193,343.012524 197.457545,308.081645 208.262827,292.246574 C215.557368,281.488098 230.419508,267.371259 247.99272,247.064879 C255.794368,237.966059 265.858494,230.839301 274.576836,223.380611 C285.90873,213.617929 287.820133,196.494184 287.352034,182.182091 C286.688894,162.246693 274.576836,143.717122 274.576836,143.717122 C274.576836,143.717122 158.117735,130.186044 140.310473,140.924994 C140.310473,140.924994 74.9521664,185.325675 13.338651,263.934795 C14.8060429,264.40832 16.2082885,265.064288 17.5125327,265.887331 C17.5125327,265.887331 0.426923518,288.653907 0.543948238,305.484772 C-0.0221035155,308.603465 0.212795581,311.815008 1.22659244,314.817896 C1.99202887,318.638335 2.493821,322.506995 2.72840969,326.396438 C2.65793584,329.888364 2.76860815,333.381596 3.05997973,336.862034 C3.05997973,336.862034 0.81700592,347.425256 0.251386437,349.123963 C-0.314233046,350.82267 0.251386437,361.991179 0.251386437,361.991179 C0.251386437,361.991179 52.1128418,337.525896 59.4463909,333.269366 C59.4463909,333.269366 90.2629007,335.807664 101.555786,333.835602 C101.555786,333.835602 111.814953,346.976173 112.946192,349.455894 L117.880735,376.361847 C117.880735,376.361847 107.797105,378.099605 104.227851,381.828949 C102.706529,381.828949 85.932986,379.446855 80.1597665,385.987852 C80.1597665,385.987852 77.2536526,397.898325 78.6774534,399.870387 C80.1012541,401.842449 86.4791014,401.315264 88.4295134,399.323677 C88.4295134,399.323677 98.7666971,410.706965 109.24041,409.574493 C119.714122,408.442022 134.127667,401.510518 145.440056,404.06834 C156.752446,406.626163 173.838055,411.624657 184.311768,408.676327 C191.823861,406.319955 199.07243,403.192282 205.941837,399.343202 L209.003984,401.861974 C209.003984,401.861974 210.154727,400.729503 209.881669,399.909438 C209.881669,399.909438 241.965947,403.131123 250.840322,407.582906 C263.127917,413.811498 276.936834,398.191205 276.936834,398.191205 C276.936834,398.191205 278.185098,398.542662 280.837658,399.030796 C280.70113,399.050322 286.259804,373.413517 260.260812,374.272633 Z M177.563342,374.506938 C172.102189,374.643615 170.483347,376.459474 170.483347,376.459474 L155.601703,374.702191 C154.372943,372.417723 148.541212,345.414143 148.541212,345.414143 C148.34617,341.50907 152.442036,330.867746 152.442036,330.867746 C154.743289,330.788138 157.016138,330.333074 159.170957,329.520496 C161.921038,332.91791 175.456897,349.045861 175.456897,349.045861 C177.953425,355.547808 177.621855,374.506938 177.621855,374.506938 L177.563342,374.506938 Z" id="Shape" fill="#010101"></path>
            <path d="M186.039438,375.146651 C186.039438,375.146651 196.871482,376.162029 202.045284,381.258446 L203.614865,380.73123 L196.735839,348.70777 C196.735839,348.70777 188.829803,350.777579 184.915541,354.155664 L186.039438,375.146651 Z" id="Path" fill="#C4C3C6"></path>
            <path d="M209.847973,386.151018 C209.847973,386.151018 223.916727,377.408678 244.382153,383.296377 L246.030375,389.243547 C246.030375,389.243547 274.324857,388.153232 272.048741,393.981459 C269.772624,399.809685 258.313555,401.772252 252.623264,400.047572 C246.932973,398.322893 231.294484,391.007874 213.379878,393.32727 C212.373844,390.852982 211.193517,388.45475 209.847973,386.151018 L209.847973,386.151018 Z" id="Path" fill="#C4C3C6"></path>
            <path d="M127.400982,355.445885 L126.44423,384.464509 C120.518505,384.194355 114.599624,385.129873 109.046958,387.214258 C109.046958,387.214258 110.530901,392.304219 107.992578,392.947777 C105.454256,393.591335 95.5743243,395.112473 95.5743243,395.112473 L96.2772444,396.009554 C96.2772444,396.009554 108.129257,402.542645 114.70937,399.402861 C120.039847,396.84813 126.932368,393.552331 142.045149,393.786353 C157.15793,394.020374 165.02673,402.035599 174.574727,401.294532 C184.122724,400.553465 196.22857,397.608698 198.766892,394.429911 C198.766892,394.429911 196.013788,390.178526 185.19663,389.55447 C174.379471,388.930413 172.251186,388.910912 170.767243,382.553337 C170.767243,382.553337 157.099354,382.124298 149.542963,384.503513 C149.542963,384.503513 141.73274,349.400338 140.951718,349.400338 C140.170696,349.400338 129.939304,351.40902 127.400982,355.445885 Z" id="Path" fill="#C4C3C6"></path>
            <path d="M67.1790541,323.185457 C71.4371082,321.707189 119.369516,285.684122 119.369516,285.684122 C116.595921,289.710458 86.5746862,312.915382 86.5746862,312.915382 C86.5746862,312.915382 88.0396131,313.362752 92.4343937,311.456564 C96.8291744,309.550376 124.838577,292.316879 125.483145,291.674999 L114.896606,303.209383 L128.998969,293.834049 C132.296378,294.587172 135.676438,294.9205 139.058134,294.826045 C136.087556,297.810565 133.357608,301.023413 130.893608,304.434789 C136.753315,299.999984 144.331871,294.281419 144.331871,294.281419 L149.918125,294.281419 C148.375805,297.341112 146.502621,300.223961 144.331871,302.878717 L155.738768,299.124694 L152.69172,303.384441 C157.750601,299.630417 168.532463,296.032 168.532463,296.032 C166.403436,297.31576 154.293373,309.239162 154.293373,309.239162 C157.281824,306.068665 183.74817,290.371789 183.74817,290.371789 L186.189715,289.982771 C184.705256,291.674999 178.572095,300.252846 178.572095,300.252846 L189.021907,290.099476 C191.699248,288.954547 194.50647,288.138102 197.381757,287.668113 C197.381757,287.668113 193.221364,301.283744 191.522049,311.009194 C189.686007,321.104211 194.686291,337.365163 194.686291,337.365163 C191.334488,339.317273 187.696504,340.734894 183.904429,341.566558 C179.626843,335.050506 166.169047,321.629385 166.169047,321.629385 L171.423252,309.958845 C165.274446,315.788877 157.823673,320.082037 149.683737,322.485225 C148.531328,322.485225 147.417983,312.759775 147.417983,312.759775 C143.511512,316.649955 138.081516,340.243896 138.081516,340.243896 C137.241624,342.188986 131.206126,343.35604 128.666919,343.142081 C126.127712,342.928121 123.861959,339.135195 123.861959,339.135195 L129.428681,336.85944 L121.166493,335.167211 C118.627287,334.116863 111.20499,324.060748 111.20499,324.060748 C111.61517,322.835341 131.733499,310.93139 131.733499,310.93139 L109.075963,321.376523 L67.1790541,323.185457 Z" id="Path" fill="#C4C3C6"></path>
            <path d="M250.71626,382.582978 L252.323101,385.153772 C260.371095,383.935636 268.59355,385.492583 275.641892,389.569257 C273.445875,384.201415 268.226836,380.696271 262.434442,380.699038 C250.030413,379.953312 250.71626,382.582978 250.71626,382.582978 Z" id="Path" fill="#FFFFFF"></path>
            <path d="M155.895307,217.236647 C134.627023,236.202805 75.4898649,271.372869 75.4898649,271.372869 C75.4898649,271.372869 92.637297,280.107028 122.635538,265.167532 C152.633779,250.228035 180.62042,221.769073 183.530405,217.761864 L168.511755,227.099049 L178.413518,217.119932 C178.413518,217.119932 174.214545,217.703507 171.753752,217.761864 L145.817773,233.323839 C152.75096,229.686228 167.164177,217.761864 167.164177,217.761864 L155.895307,217.236647 Z" id="Path" fill="#FFFFFF"></path>
            <path d="M118.837761,253.44694 C118.837761,253.44694 148.595825,237.500497 153.75,233.741554 C153.75,233.741554 138.190228,249.048589 124.847723,254.531995 C117.744911,257.685638 110.215076,259.781301 102.5,260.751689 L118.837761,253.44694 Z" id="Path" fill="#010101"></path>
            <path d="M7.61824324,347.322635 C7.61824324,347.322635 10.9781328,339.137411 12.697146,334.004634 C13.1268993,332.740882 49.2066431,294.497806 67.0414054,285.398792 L69.5808568,285.398792 C51.1796014,301.088758 53.5823131,299.533371 48.8550267,304.005109 C48.8550267,304.005109 80.4223607,281.393671 84.6808253,279.916053 C84.6808253,279.916053 75.3239237,290.259376 72.9602805,292.378591 C72.9602805,292.378591 95.9130141,281.860287 99.0970955,280.168804 C97.4909833,282.406667 95.7076866,284.513149 93.7642476,286.468121 C93.7642476,286.468121 125.351116,271.497521 128.125,270.447635 C128.164047,270.48652 23.948869,346.311634 7.61824324,347.322635 Z" id="Path" fill="#C4C3C6"></path>
            <path d="M38.3870064,316.444627 C43.0808416,313.4665 47.5880252,310.194826 51.8824986,306.648516 C54.6779935,303.807644 58.1675422,304.689294 51.8824986,310.331854 C45.5974551,315.974414 43.7273655,317.698529 38.3870064,318.168742 C33.0466474,318.638956 38.3870064,316.444627 38.3870064,316.444627 Z" id="Path" fill="#010101"></path>
            <path d="M178.695249,381.565537 C178.695249,381.565537 178.444507,384.013816 180.161128,384.385954 C182.803567,384.953955 192.003884,383.269539 203.499458,390.261824 C203.499458,390.261824 204.656731,388.557822 199.641883,384.209678 C194.627035,379.861535 182.475673,379.998638 178.695249,381.565537 Z" id="Path" fill="#FFFFFF"></path>
            <path d="M83.8006757,395.802365 C83.8006757,395.802365 84.8703203,389.774986 86.5738285,388.850788 C88.2773367,387.92659 100.122661,387.203305 102.103484,387.60513 C102.103484,387.60513 103.688143,389.312887 103.034471,389.935717 C102.3808,390.558546 91.3278047,391.603291 89.4856389,393.33114 C87.99898,394.902041 85.9474828,395.793818 83.8006757,395.802365 L83.8006757,395.802365 Z" id="Path" fill="#FFFFFF"></path>
            <path d="M126.275723,384.710796 C129.475589,384.789327 132.654397,385.25792 135.743243,386.106419 C135.743243,386.106419 128.316975,380.209422 124.662162,380.582898 L126.275723,384.710796 Z" id="Path" fill="#010101"></path>
            <path d="M62.3310811,279.190575 C62.3310811,279.190575 58.841891,278.253831 58.9978325,275.287477 L49.3879402,281.415341 L60.3233348,271.657596 L58.3740666,270.603759 C56.6782033,271.657596 39.7390626,284.596365 39.7390626,284.596365 L54.0661839,270.447635 C52.7689132,270.555702 51.4649182,270.555702 50.1676475,270.447635 C46.5615013,272.769978 16.8351612,300.833253 12.1764102,309.107821 C7.51765922,317.382389 10.8509078,328.623311 10.8509078,328.623311 C10.8509078,328.623311 37.7508091,298.881704 62.3310811,279.190575 Z" id="Path" fill="#C4C3C6"></path>
            <path d="M45.7094595,269.0625 C45.7094595,269.0625 20.2442966,288.932025 10.6067118,305.076014 C10.6067118,305.076014 7.7859553,302.572919 9.62728247,296.111443 C11.4686096,289.649967 28.2952058,272.070094 31.5469112,269.838653 L27.3941308,278.201705 L37.3451329,269.198327 C40.1207859,269.624068 42.9493857,269.578136 45.7094595,269.0625 L45.7094595,269.0625 Z" id="Path" fill="#C4C3C6"></path>
            <path d="M125.533414,63.0799711 C125.533414,63.0799711 116.562883,48.6539523 115.95703,44.0337273 C124.096621,40.7255897 132.856312,39.2094559 141.637376,39.588954 C141.637376,39.588954 139.937079,23.525387 143.865351,19.3535383 C143.865351,19.3535383 161.88459,25.9427199 167.317722,29.8026547 C167.317722,29.8026547 166.399171,11.6141742 173.180815,8.70947579 C173.180815,8.70947579 188.815729,17.2286248 189.714736,23.681344 C189.714736,23.681344 192.529021,9.21633591 199.740625,6.81849764 C203.488576,11.0330799 206.998816,15.4521762 210.255105,20.0553447 C210.255105,20.0553447 217.173554,2.51018661 223.036647,0.346283784 C223.036647,0.346283784 234.215611,11.828615 235.23188,17.1311517 C235.23188,17.1311517 235.740015,11.009841 246.958066,6.81849764 C246.958066,6.81849764 258.684251,18.242345 258.156573,24.9289997 C258.156573,24.9289997 264.019665,12.0235612 271.602599,10.5224755 C271.602599,10.5224755 281.511226,13.36869 281.726206,26.1181715 C281.726206,26.1181715 290.403583,19.0221298 296.423025,16.7217646 C296.423025,16.7217646 305.921235,27.1513864 304.475005,33.1362347 C304.475005,33.1362347 314.129565,28.7694398 320.266269,30.1145686 C320.266269,30.1145686 325.288985,37.9124166 320.911209,50.1355434 C320.911209,50.1355434 337.542849,48.5954684 340.826181,52.1824785 C340.826181,52.1824785 336.057532,67.7781746 333.595033,68.7139163 C333.595033,68.7139163 346.591555,73.7045391 349.054054,77.3890223 C349.054054,77.3890223 338.285507,89.358719 335.823008,90.5868801 L346.689273,104.817953 C346.689273,104.817953 340.278959,113.688005 334.748108,113.688005 C334.748108,113.688005 337.933721,125.774669 337.60148,133.747969 C337.60148,133.747969 325.015374,134.742195 320.813491,131.350131 C320.813491,131.350131 322.650593,140.980473 321.732042,146.516945 C321.732042,146.516945 308.246928,145.308279 306.097128,141.623795 C306.097128,141.623795 302.286118,155.952341 298.592369,159.012996 C298.592369,159.012996 288.097433,152.189879 287.178882,148.505396 C287.178882,148.505396 285.517672,157.180502 280.885829,159.636824 C280.885829,159.636824 268.143374,150.12345 268.749227,147.062794 C268.749227,147.062794 265.97403,158.408663 260.755877,159.012996 C260.755877,159.012996 252.742984,151.351611 252.742984,147.316224 C252.742984,147.316224 250.300028,154.685191 246.293582,154.997105 C246.293582,154.997105 239.531481,148.856299 237.987534,145.249795 C237.987534,145.249795 230.287339,157.823825 226.906288,159.051986 C226.906288,159.051986 213.987941,144.937881 212.443993,141.253398 C212.443993,141.253398 209.981494,150.298901 206.5809,152.540783 C204.283219,150.983814 202.387876,148.906171 201.050049,146.477956 C201.050049,146.477956 196.125051,156.907578 193.056699,157.531405 C193.056699,157.531405 186.900452,155.581943 185.043806,152.540783 C182.475513,155.489335 179.191705,157.731222 175.506508,159.051986 C172.719697,156.573045 170.333317,153.679749 168.43171,150.474353 C168.43171,150.474353 161.044213,157.531405 155.82606,157.531405 C155.82606,157.531405 150.275666,148.934278 151.213761,144.645461 C151.213761,144.645461 139.292139,151.722009 131.670118,151.410095 C131.670118,151.410095 128.230437,141.89672 129.461687,137.900323 C129.461687,137.900323 120.080738,137.218011 117.325085,135.697431 C117.325085,135.697431 113.553162,123.883691 119.533516,116.904617 C119.533516,116.904617 103.683622,106.708931 101.807432,102.420114 C107.488875,97.1226719 113.764913,92.4977722 120.510698,88.6374181 L102.92142,73.3926252 C109.561612,68.26332 117.300252,64.7339577 125.533414,63.0799711 L125.533414,63.0799711 Z" id="Path" fill="#010101"></path>
            <path d="M210.540541,126.646181 C210.540541,126.646181 223.137084,152.955421 226.49359,155.481419 C226.49359,155.481419 237.103236,132.941745 238.935811,124.955705 C238.935811,124.955705 229.985128,112.714331 226.146365,107.001689 C226.146365,107.001689 216.366201,122.079954 210.540541,126.646181 Z" id="Path" fill="#C4C3C6"></path>
            <path d="M272.468082,125.008446 C272.468082,125.008446 304.728031,122.385977 312.572931,91.8557458 C320.41783,61.3255143 286.416744,44.5925989 272.468082,44.6706081 C258.519419,44.7491642 229.741745,59.6032961 231.385065,86.1998247 C233.028386,112.796353 255.037145,124.069054 272.468082,125.008446 Z" id="Path" fill="#FFFFFF"></path>
            <path d="M272.436942,120.160473 C272.436942,120.160473 300.923259,117.858423 307.858717,91.0141801 C314.794175,64.1699371 284.760115,49.4602284 272.436942,49.5185811 C260.113769,49.5772818 234.703348,62.667752 236.2315,86.0394112 C237.759652,109.41107 257.037874,119.380117 272.436942,120.160473 Z" id="Path" fill="#C4C3C6"></path>
            <path d="M272.445247,115.3125 C272.445247,115.3125 297.150877,113.369697 303.150815,90.1726227 C309.150754,66.975549 283.111805,54.3084702 272.445247,54.3665541 C261.77869,54.4250384 239.720092,65.7127267 241.07302,85.879027 C242.425947,106.045327 259.072835,114.651947 272.445247,115.3125 Z" id="Path" fill="#FFFFFF"></path>
            <path d="M269.745551,109.771959 C269.745551,109.771959 283.755096,108.173096 286.786287,104.702392 C286.786287,104.702392 302.64175,91.0535555 297.453749,80.1149881 C297.453749,80.1149881 289.234557,64.5163182 281.617717,62.7029728 C274.000877,60.8896274 257.562493,61.7865509 253.598627,74.0120085 C249.634762,86.2374661 246.020649,101.524163 269.745551,109.771959 Z" id="Path" fill="#010101"></path>
            <path d="M291.3409,99.7227726 C291.3409,99.7227726 278.750994,105.277688 269.415095,100.93121 C263.651099,98.0591788 259.235482,93.0279946 257.115725,86.9172297 C257.115725,86.9172297 255.062602,98.2999345 265.095789,102.509976 C275.128975,106.720017 286.401783,106.583581 289.675159,102.509976 C292.483677,99.021099 291.3409,99.7227726 291.3409,99.7227726 Z" id="Path" fill="#FFFFFF"></path>
            <path d="M178.56197,126.393581 C178.56197,126.393581 211.139982,123.753849 219.064363,92.9569808 C226.988744,62.1601121 192.649759,45.2658298 178.56197,45.3631757 C164.474182,45.4613655 135.51595,60.4198446 137.198658,87.2473391 C138.881366,114.074834 160.952235,125.513671 178.56197,126.393581 Z" id="Path" fill="#FFFFFF"></path>
            <path d="M178.591305,121.545608 C178.591305,121.545608 207.358034,119.223096 214.353758,92.1141157 C221.349482,65.0051349 191.034679,50.1527704 178.591305,50.2111486 C166.147931,50.2698718 140.477348,63.4828164 142.045017,87.0982712 C143.612686,110.713726 163.032188,120.764932 178.591305,121.545608 Z" id="Path" fill="#C4C3C6"></path>
            <path d="M178.614015,117.390203 C178.614015,117.390203 203.564245,115.436261 209.641115,91.6567956 C215.717986,67.8773298 189.404356,54.9813171 178.614015,55.0591216 C167.823673,55.1376325 145.502859,66.6463468 146.885737,87.2799671 C148.268614,107.913587 165.116349,116.706323 178.614015,117.390203 Z" id="Path" fill="#FFFFFF"></path>
            <path d="M175.12954,111.157095 C175.12954,111.157095 189.34717,109.54888 192.432865,105.99904 C192.432865,105.99904 208.505819,92.2703778 203.252326,81.0520996 C203.252326,81.0520996 194.913139,65.2249133 187.179372,63.4009624 C179.445606,61.5770116 162.767232,62.4595684 158.763641,74.8742016 C154.76005,87.2888347 151.029874,102.762998 175.12954,111.157095 Z" id="Path" fill="#010101"></path>
            <path d="M197.142709,101.04975 C197.142709,101.04975 184.300558,106.559538 174.786403,102.240018 C168.89967,99.3901595 164.392317,94.3838323 162.237899,88.3023649 C162.237899,88.3023649 160.143219,99.6291077 170.362126,103.891035 C180.581032,108.152962 192.209444,107.922587 195.459134,103.891035 C198.317296,100.339429 197.142709,101.04975 197.142709,101.04975 Z" id="Path" fill="#FFFFFF"></path>
            <path d="M227.529802,48.8260135 C227.529802,48.8260135 216.701468,49.2884994 217.509265,56.5341114 C217.655107,58.9295866 218.864463,61.1335875 220.805025,62.5404932 C222.745586,63.947399 225.213198,64.4091971 227.529802,63.7989936 C227.529802,63.7989936 232.45352,63.4521292 233.299784,56.5341114 C233.60772,54.7374946 233.163637,52.8931106 232.071986,51.4347778 C230.980336,49.9764452 229.337468,49.032878 227.529802,48.8260135 Z" id="Path" fill="#C4C3C6"></path>
            <path d="M149.594595,210.886824 C149.594595,210.886824 72.0694685,259.191111 69.3691991,259.656881 C63.3333694,260.345377 57.2282409,260.149205 51.25,259.074668 C57.7658675,255.833681 98.9938939,218.863145 98.9938939,218.863145 L103.279104,218.203303 C102.47685,219.814093 85.8838903,235.475627 85.8838903,235.475627 C88.6037268,233.069146 108.190464,218.203303 108.190464,218.203303 L112.260435,217.116505 C110.63636,219.057216 99.7570135,228.450255 99.7570135,228.450255 L113.61057,218.475003 L116.623914,216.301407 C118.319267,215.925305 120.052468,215.742983 121.789647,215.758008 L112.006062,224.141878 L124.548617,216.0103 L149.594595,210.886824 Z" id="Path" fill="#FFFFFF"></path>
            <path d="M152.994552,153.07439 C154.163376,154.545909 152.293258,156.586415 152.293258,156.586415 C154.86467,154.506669 156.929592,153.133251 156.929592,153.133251 C157.202317,155.212998 160.124377,166.219959 162.189298,165.435149 C164.25422,164.650339 169.981456,157.940213 169.981456,157.940213 L169.728211,164.964263 L172.591829,156.625656 L174.306104,155.605403 C174.306104,155.605403 177.539849,166.926288 179.858016,166.926288 C182.176183,166.926288 188.331988,160.118061 188.331988,160.118061 L188.838478,167.554136 C189.344968,165.47439 192.111184,158.077554 192.111184,158.077554 C192.637155,160.667428 199.085166,163.96363 199.085166,163.96363 C199.085166,163.96363 200.078666,173.773756 200.838401,171.458567 C201.422813,169.673124 204.831882,163.237681 204.831882,163.237681 C212.292873,175.931984 198.773479,195.650338 198.773479,195.650338 C190.241066,195.650338 192.247547,179.130085 192.247547,179.130085 C191.994302,180.425022 180.345026,188.82249 174.890516,189.56806 C171.189241,190.078186 172.728192,174.166161 172.728192,174.166161 C171.442486,177.030718 153.968572,183.132617 148.553022,182.60287 C143.137473,182.073123 151.455601,168.476288 151.455601,168.476288 C151.455601,168.476288 115.261028,177.109199 127.007706,164.552238 C134.332334,156.488314 151.553003,151.249707 152.994552,153.07439 Z" id="Path" fill="#FFFFFF"></path>
            <path d="M77.2655028,215.049002 C77.8098832,214.661454 64.1420469,231.035371 64.1420469,231.035371 L80.1429421,215.087757 L81.6399882,218.013747 C82.8625388,219.193514 84.3015139,220.127707 85.8783784,220.76534 C82.4176744,225.125259 33.9094928,260.353402 33.9094928,260.353402 C35.542634,261.438537 39.7421399,263.880092 39.7421399,263.880092 L38.6144948,264.907095 C35.1619528,264.499915 31.8770307,263.197005 29.0878378,261.128498 C29.0878378,261.128498 50.785285,233.418793 77.2655028,215.049002 Z" id="Path" fill="#FFFFFF"></path>
            <path d="M137.128378,196.680048 C134.528435,199.845456 131.489657,202.605373 128.108445,204.872244 C128.108445,204.872244 133.613115,195.377193 132.376979,196.423425 C130.118939,197.136843 127.795604,197.613072 125.443025,197.844722 C125.443025,197.844722 118.026206,205.898736 110.358297,207.517435 C110.358297,207.517435 110.995679,207.004189 108.040541,210.873275 C108.040541,210.873275 127.702837,211.445742 136.703456,205.148608 C136.491224,202.318784 136.634024,199.472837 137.128378,196.680048 L137.128378,196.680048 Z" id="Path" fill="#FFFFFF"></path>
            <path d="M177.875362,239.27837 L182.088019,233.741554 C182.088019,233.741554 178.132473,233.942163 175.462479,233.741554 C175.462479,233.741554 170.241158,242.28751 175.462479,244.734943 C175.462479,244.734943 182.681351,245.53738 186.300676,242.28751 C184.795532,240.215958 183.706865,237.864302 183.096683,235.366489 C183.096683,235.366489 179.675136,239.238249 178.884026,240.241295 L177.875362,239.27837 Z" id="Path" fill="#C4C3C6"></path>
            <path d="M136.534187,280.721333 L140.642208,273.217905 C140.642208,273.217905 135.739711,274.240223 132.503675,274.51027 C132.503675,274.51027 127.73682,285.832923 134.615818,287.761824 C134.615818,287.761824 145.777235,286.623772 149.594595,281.975119 C149.594595,281.975119 142.948126,278.117316 142.192405,274.953917 C142.192405,274.953917 138.743217,280.296975 137.948741,281.666495 L136.534187,280.721333 Z" id="Path" fill="#C4C3C6"></path>
            <path d="M161.643455,278.248785 C161.643455,278.248785 159.666775,287.336948 166.308419,289.146959 C166.308419,289.146959 175.005808,288.746852 178.682432,284.421877 C176.636762,281.577716 174.938744,278.515337 173.622133,275.295608 L161.643455,278.248785 Z" id="Path" fill="#C4C3C6"></path>
            <path d="M146.131983,192.013147 C146.131983,192.013147 145.995559,205.634088 152.426966,206.023258 C158.858373,206.412428 165.523649,199.387914 165.523649,199.387914 C164.153705,195.93167 163.084352,192.364078 162.327434,188.724662 C162.327434,188.724662 148.080894,192.013147 146.131983,192.013147 Z" id="Path" fill="#FFFFFF"></path>
            <path d="M280.179954,134.704392 C283.536109,141.639781 277.389663,148.555743 277.389663,148.555743 C272.19933,147.545547 268.023649,136.472236 268.023649,136.472236 L280.179954,134.704392 Z" id="Path" fill="#C4C3C6"></path>
            <path d="M244.626571,131.241554 L247.185496,132.80102 C247.428855,135.135858 246.942039,137.487563 245.787929,139.552365 C243.583317,138.981829 243.091216,136.01504 243.091216,136.01504 L244.626571,131.241554 Z" id="Path" fill="#C4C3C6"></path>
            <path d="M286.030405,134.003652 C286.030405,134.003652 290.753463,143.106115 295.637307,143.70777 C295.637307,143.70777 299.837814,134.818798 296.541722,130.548986 C293.195534,132.106836 289.66597,133.266868 286.030405,134.003652 Z" id="Path" fill="#C4C3C6"></path>
            <path d="M243.090184,387.196612 C243.090184,388.177009 232.946336,386.583864 226.620894,389.096132 C220.295452,391.608399 221.259696,383.295449 227.411574,383.336299 C233.563452,383.377149 243.205894,383.111624 243.090184,387.196612 Z" id="Path" fill="#FFFFFF"></path>
            <path d="M170.370708,387.648623 C170.486088,388.749549 159.640442,386.454398 153.775333,390.447587 C147.910223,394.440775 148.31405,387.275428 154.371459,386.174502 C160.428867,385.073576 169.889962,382.927704 170.370708,387.648623 Z" id="Path" fill="#FFFFFF"></path>
            <path d="M214.024264,192.11565 C213.734641,192.11565 216.553634,184.154947 216.515017,182.88045 C216.476401,181.605953 219.75879,183.782402 222.886713,184.841214 C223.75558,185.135329 219.816714,193.017602 214.024264,192.11565 Z" id="Path" fill="#C4C3C6"></path>
            <path d="M199.956938,262.829392 L184.915541,267.759534 C184.915541,267.759534 186.690855,278.27717 189.753759,282.221284 C189.753759,282.221284 196.58189,282.085947 207.077703,271.007627 C207.077703,271.007627 200.113009,264.762781 199.956938,262.829392" id="Path" fill="#C4C3C6"></path>
            <path d="M163.800862,245.515203 L152.364865,254.084322 C152.364865,254.084322 153.127265,256.619681 160.751263,254.084322 C168.375261,251.548964 164.830102,250.153534 163.800862,245.515203 Z" id="Path" fill="#C4C3C6"></path>
            <path d="M209.269679,199.113176 L205,205.833245 C205,205.833245 206.581362,206.807756 209.704553,204.513594 C212.827744,202.219431 210.376632,201.447943 209.269679,199.113176 Z" id="Path" fill="#C4C3C6"></path>
            <path d="M188.531083,332.444192 C188.531083,332.444192 181.688306,335.623441 179.847559,322.379821 C178.006812,309.136202 181.848371,304.825687 186.110101,298.740253 C190.37183,292.65482 195.033723,293.37649 190.972074,301.217337 C185.719854,310.836999 184.834756,322.15979 188.531083,332.444192 Z" id="Path" fill="#FFFFFF"></path>
            <path d="M136.209167,337.623902 C136.209167,337.623902 129.686633,338.051576 131.094231,328.312267 C132.50183,318.572958 134.365411,314.996046 139.321744,311.807929 C144.278078,308.619812 145.269344,309.261323 142.632575,315.40428 C139.243968,322.408206 137.072928,329.918191 136.209167,337.623902 Z" id="Path" fill="#FFFFFF"></path>
            <path d="M129.510135,70.3101625 C127.163716,69.9543591 119.814189,76.2402183 119.814189,76.2402183 C121.15223,79.0471114 127.027973,84.1469595 127.027973,84.1469595 L129.510135,70.3101625 Z" id="Path" fill="#C4C3C6"></path>
            <path d="M220.870527,39.1300676 C220.732466,35.2034313 219.809921,31.3460933 218.158784,27.7917471 C218.158784,27.7917471 220.851018,20.2526544 224.14803,19.7381757 C226.921576,23.4547432 229.106814,27.5872307 230.625,31.9867278 C230.428252,33.8793482 230.363061,35.7836658 230.429911,37.6855695 C227.175893,37.4011937 223.901511,37.8959786 220.870527,39.1300676 L220.870527,39.1300676 Z" id="Path" fill="#C4C3C6"></path>
            <path d="M226.810357,136.782095 C226.810357,136.782095 231.846064,124.893168 234.780405,118.968068 L226.469595,107.001689 L226.810357,136.782095 Z" id="Path" fill="#FFFFFF"></path>
            <path d="M253.325787,227.468555 C255.324902,226.624649 264.560811,217.878721 264.560811,217.878721 C260.742502,218.895243 257.124105,214.349662 257.124105,214.349662 C255.584786,216.075832 251.28669,228.29328 253.325787,227.468555 Z" id="Path" fill="#C4C3C6"></path>
            <path d="M235.234196,242.722241 C238.466699,240.359493 241.552508,237.823459 244.476351,235.126689 C241.883284,235.533585 239.236742,235.533585 236.643675,235.126689 C235.657039,236.076133 233.965665,243.196963 235.234196,242.722241 Z" id="Path" fill="#C4C3C6"></path>
            <path d="M216.183084,262.112819 C217.659075,262.753344 225.777027,250.363176 225.777027,250.363176 C221.984289,253.315743 217.798019,255.68879 213.347627,257.408958 C213.082708,259.473365 214.270013,261.443037 216.183084,262.112819 Z" id="Path" fill="#C4C3C6"></path>
            <path d="M227.662661,56.4018042 C227.662661,56.4018042 227.52885,59.5108979 229.096341,59.8847763 C230.663831,60.2586547 231.466692,55.8311477 231.294651,54.3946677 C231.02703,52.4268868 229.383077,48.9832703 224.66149,50.6558841 C219.939902,52.3284978 219.729629,53.1156101 220.704532,54.4340233 C221.679434,55.7524365 226.056939,50.9313734 227.662661,56.4018042 Z" id="Path" fill="#FFFFFF"></path>
            <path d="M113.411232,277.60889 L127.432432,271.140203 C127.432432,271.140203 23.1912495,347.322635 8.31081081,347.322635 L113.411232,277.60889 Z" id="Path" fill="#FFFFFF"></path>
            <path d="M36.8113521,317.533236 C40.4321618,316.381808 43.7758273,314.490473 46.6315177,311.978487 C49.4400851,309.851137 53.5645547,307.704088 55.3321845,304.591853 C55.4455281,304.381515 55.4260453,304.124187 55.282334,303.933424 C55.1386226,303.742662 54.8971243,303.653567 54.6644133,303.705457 C51.2862763,304.572155 48.2223846,307.881368 45.4530979,309.969323 C42.6838111,312.057278 39.4235161,314.26342 36.3007034,316.292282 C36.0411732,316.478717 35.943774,316.819812 36.0655586,317.115765 C36.187343,317.411721 36.4962577,317.584641 36.8113521,317.533236 L36.8113521,317.533236 Z" id="Path" fill="#FFFFFF"></path>
            <path d="M11.2297679,327.930743 C11.2297679,327.930743 57.9291686,280.787547 62.3310811,279.32951 C61.533982,278.997165 60.7788668,278.573058 60.0812147,278.065878 C60.0812147,278.065878 34.1784051,299.275456 10.3885135,323.187263 L11.2297679,327.930743 Z" id="Path" fill="#FFFFFF"></path>
            <path d="M281.533257,68.2179054 C281.533257,68.2179054 274.438844,68.5204405 274.978636,73.4820166 C275.076385,75.1159178 275.869022,76.6179495 277.138557,77.5750282 C278.408091,78.5321071 280.020836,78.8434466 281.533257,78.4234236 C281.533257,78.4234236 284.752732,78.2015645 285.273246,73.4820166 C285.477515,72.2601157 285.19258,71.0040968 284.485269,70.0085432 C283.77796,69.0129897 282.710501,68.3654893 281.533257,68.2179054 Z" id="Path" fill="#FFFFFF"></path>
            <path d="M187.592197,70.2956081 C187.592197,70.2956081 180.982686,70.5753338 181.479355,75.2107877 C181.574653,76.732867 182.31444,78.1310401 183.496872,79.0238298 C184.679303,79.9166194 186.180985,80.2108564 187.592197,79.8262612 C187.592197,79.8262612 190.59131,79.6064767 191.087978,75.2107877 C191.279465,74.069317 191.01326,72.8957343 190.351937,71.965893 C189.690614,71.0360517 188.692497,70.431959 187.592197,70.2956081 Z" id="Path" fill="#FFFFFF"></path>
            <path d="M271.53616,79.2989865 C271.53616,79.2989865 267.77347,79.4759636 268.036858,82.1109558 C268.094155,82.9801261 268.518552,83.7775619 269.194862,84.2868265 C269.871172,84.7960912 270.729234,84.9643547 271.53616,84.7459481 C271.53616,84.7459481 273.248184,84.6279634 273.530386,82.1109558 C273.63811,81.4593421 273.485887,80.7900423 273.109138,80.2588056 C272.732389,79.7275692 272.163971,79.3807251 271.53616,79.2989865 L271.53616,79.2989865 Z" id="Path" fill="#FFFFFF"></path>
            <path d="M177.346971,79.9915541 C177.346971,79.9915541 173.584281,80.1685311 173.847669,82.8035234 C173.904966,83.6726937 174.329363,84.4701295 175.005673,84.979394 C175.681983,85.4886588 176.540046,85.6569223 177.346971,85.4385157 C177.346971,85.4385157 179.058995,85.3205309 179.341197,82.8035234 C179.448921,82.1519097 179.296697,81.4826099 178.919948,80.9513732 C178.5432,80.4201367 177.974783,80.0732927 177.346971,79.9915541 Z" id="Path" fill="#FFFFFF"></path>
            <path d="M292.868965,38.4375 C290.251088,37.263019 287.48074,36.4871889 284.64527,36.1344709 C284.64527,36.1344709 288.954712,30.1156302 291.626942,28.7415541 C291.626942,28.7415541 293.358246,36.3667091 292.868965,38.4375 Z" id="Path" fill="#C4C3C6"></path>
            <path d="M200.844595,135.211486 C200.844595,135.211486 201.31063,142.748831 204.728227,146.478041 C204.728227,146.478041 208.941967,140.736241 208.417677,137.973863 L206.145752,132.626689 C206.145752,132.626689 201.912593,134.777398 200.844595,135.211486 Z" id="Path" fill="#C4C3C6"></path>
            <path d="M96.3269552,194.95777 C96.0906016,199.489337 103.102426,205.124242 103.102426,205.124242 C104.244802,210.030156 94.2194687,214.029757 90.5559875,212.709691 C86.8925063,211.389626 88.1727551,202.168873 88.1727551,202.168873 L96.3269552,194.95777 Z" id="Path" fill="#FFFFFF"></path>
            <path d="M103.885135,190.367376 C103.885135,190.367376 105.843287,196.204114 108.760934,196.340304 C111.678581,196.476495 117.043919,191.223431 117.043919,190.367376 C115.525614,187.515281 114.745036,184.332786 114.772462,181.106419 C114.772462,181.106419 106.861527,185.094856 103.885135,190.367376 Z" id="Path" fill="#FFFFFF"></path>
            <path d="M267.331081,165.280981 C267.331081,165.280981 272.125593,162.892328 271.929898,159.636824 C271.929898,159.636824 283.280171,167.785215 277.42891,171.194825 C272.986648,173.930218 269.288025,170.058288 267.331081,165.280981 Z" id="Path" fill="#C4C3C6"></path>
            <path d="M187.685811,250.630408 C187.685811,250.630408 188.239865,258.398719 189.941602,260.059122 C189.941602,260.059122 204.861487,255.908116 209.847973,253.002411 C209.847973,253.002411 204.861487,244.621333 205.237452,241.359797 C205.237452,241.340061 189.921815,250.926908 187.685811,250.630408 Z" id="Path" fill="#C4C3C6"></path>
            <path d="M156.233783,255.126808 C156.233783,255.126808 154.62921,265.695357 157.799221,269.0625 C157.799221,269.0625 175.410391,266.357107 180.067568,263.476545 C178.120253,260.05574 176.795391,256.319853 176.153974,252.440878 C176.153974,252.440878 161.575838,252.888533 156.233783,255.126808 Z" id="Path" fill="#C4C3C6"></path>
            <path d="M211.925676,235.577652 C213.343694,239.680162 215.022282,243.692976 216.951737,247.592905 C221.432638,245.538873 225.392102,242.547267 228.547297,238.831783 C228.547297,238.831783 223.916988,228.915348 223.897201,226.123311 C223.897201,226.104087 214.122104,235.038506 211.925676,235.577652 Z" id="Path" fill="#C4C3C6"></path>
            <path d="M145.381252,128.471284 C147.851372,130.369842 150.413512,132.133551 153.057432,133.755362 C153.057432,133.755362 148.969866,139.782827 143.980349,140.244932 C143.941968,140.244932 141.92697,133.353531 145.381252,128.471284 Z" id="Path" fill="#C4C3C6"></path>
            <path d="M124.663777,178.362747 C124.663777,178.362747 124.487668,189.480655 127.81417,190.802365 C131.036888,190.546071 134.18938,189.730321 137.128378,188.392189 C137.128378,188.392189 134.662853,182.366749 137.128378,177.643581 C137.128378,177.643581 126.111784,179.645582 124.663777,178.362747 Z" id="Path" fill="#FFFFFF"></path>
            <path d="M174.576907,200.696837 C178.332961,199.481325 182.001832,198.026841 185.559507,196.342905 C185.559507,196.342905 189.088212,205.204211 190.456081,206.31667 C190.456081,206.31667 176.57915,210.517159 168.986486,209.270438 C168.986486,209.270438 174.438138,203.631425 174.576907,200.696837 Z" id="Path" fill="#FFFFFF"></path>
            <path d="M229.932432,217.658749 C229.932432,217.658749 232.281792,228.500493 238.362488,228.884271 C244.443184,229.26805 247.246622,217.658749 247.246622,217.658749 C247.246622,217.658749 239.823434,212.976651 239.527297,210.194257 C239.527297,210.194257 232.913553,217.869827 229.932432,217.658749" id="Path" fill="#C4C3C6"></path>
            <path d="M250.928389,190.802365 C250.928389,190.802365 246.167307,196.401481 243.091216,197.357428 C243.091216,197.357428 245.599112,207.111986 250.693274,208.692224 C255.787436,210.272463 259.02027,195.308971 259.02027,195.308971 C259.02027,195.308971 253.181576,193.78726 250.928389,190.802365 Z" id="Path" fill="#C4C3C6"></path>
            <path d="M238.886639,176.258446 C238.886639,176.258446 242.854526,182.111103 246.554054,182.984042 C246.554054,182.984042 241.301875,191.27696 236.241381,190.780972 C236.241381,190.780972 230.663337,187.229698 230.625,181.615115 C230.701674,181.615115 236.758932,178.877262 238.886639,176.258446 Z" id="Path" fill="#C4C3C6"></path>
            <path d="M212.784821,210.194257 C212.784821,210.194257 217.873265,216.746951 221.621622,216.535574 C221.621622,216.535574 215.892268,223.434158 210.395972,222.588649 C206.460842,221.410369 204.188143,217.347451 205.268686,213.422564 C207.876961,212.598094 210.394972,211.516567 212.784821,210.194257 Z" id="Path" fill="#C4C3C6"></path>
            <path d="M198.537302,221.275338 C198.537302,221.275338 204.908402,228.833977 207.077703,229.819886 C207.077703,229.819886 199.436292,238.67374 192.244376,236.991894 C192.244376,236.991894 187.553996,228.911303 191.071781,222.725205 C193.598094,222.457039 196.096024,221.97192 198.537302,221.275338 Z" id="Path" fill="#C4C3C6"></path>
            <path d="M225.807831,193.574784 C225.807831,193.459203 231.998669,198.043922 234.087838,198.294348 C234.087838,198.294348 231.155335,210.372581 224.408663,208.638863 C224.408663,208.638863 218.045324,207.598633 218.160324,198.043922 C221.155686,197.511544 223.865763,195.927797 225.807831,193.574784 L225.807831,193.574784 Z" id="Path" fill="#C4C3C6"></path>
            <path d="M267.655788,176.258446 C267.655788,176.258446 273.499106,183.864067 279.10473,183.471012 C279.10473,183.471012 275.341237,191.980661 268.646181,190.663925 C268.646181,190.663925 261.07958,190.231564 259.712838,183.981984 C259.732646,183.981984 266.883282,178.616778 267.655788,176.258446 Z" id="Path" fill="#C4C3C6"></path>
            <path d="M251.957646,159.636824 C251.957646,159.636824 258.159452,166.288022 262.483108,167.117012 C262.483108,167.117012 257.689914,178.819263 252.035902,177.54686 C246.38189,176.274457 245.168919,169.102731 245.168919,169.102731 C248.026924,166.405645 250.331713,163.191947 251.957646,159.636824 Z" id="Path" fill="#C4C3C6"></path>
            <path d="M227.109128,164.484797 C227.109128,164.484797 234.323373,166.658294 236.858108,167.173069 C236.858108,167.173069 230.404283,175.752659 225.061842,174.799372 C219.719401,173.846084 219.543919,167.173069 219.543919,167.173069 C222.200598,166.693171 224.757192,165.784693 227.109128,164.484797 Z" id="Path" fill="#C4C3C6"></path>
            <path d="M178.68487,138.698596 C178.68487,138.698596 189.642896,137.796211 192.533784,136.089527 C192.533784,136.089527 191.498533,148.938702 185.619093,152.018581 C181.20322,149.051247 178.591193,144.033791 178.68487,138.698596 Z" id="Path" fill="#C4C3C6"></path>
            <path d="M252.792908,133.319257 L262.839882,135.763613 C262.839882,135.763613 264.749953,144.739289 259.459056,149.940878 C255.069694,145.59479 252.653106,139.56918 252.792908,133.319257 Z" id="Path" fill="#C4C3C6"></path>
            <path d="M160.675676,135.396959 C160.675676,135.396959 167.367033,138.90857 172.449324,138.576918 C172.023247,142.865061 169.746629,146.758418 166.209291,149.248311 C163.245769,145.154593 161.34496,140.396624 160.675676,135.396959 L160.675676,135.396959 Z" id="Path" fill="#C4C3C6"></path>
            <path d="M263.175676,206.737592 C263.175676,206.737592 268.017088,210.115247 270.654281,210.194257 C270.654281,210.194257 277.345664,201.89826 277.719595,199.113176 C277.719595,199.113176 268.942074,201.088413 266.97402,199.547728 C266.97402,199.547728 266.049034,205.078392 263.175676,206.737592 Z" id="Path" fill="#C4C3C6"></path>
            <path d="M301.266892,128.663456 C304.384654,127.092593 307.305919,125.168694 309.971489,122.930743 C309.971489,122.930743 315.20588,129.026527 313.325377,134.701913 C308.537439,134.789984 304.018152,132.526886 301.266892,128.663456 L301.266892,128.663456 Z" id="Path" fill="#C4C3C6"></path>
            <path d="M139.898649,123.058743 C139.898649,123.058743 134.599168,117.230204 133.336475,113.927365 C131.064082,117.442125 129.744288,121.503133 129.510135,125.701014 C129.510135,125.701014 137.526318,125.040446 139.898649,123.058743 Z" id="Path" fill="#C4C3C6"></path>
            <path d="M95.7148105,328.623311 C95.7148105,328.623311 194.425001,233.459064 206.385135,202.576014 C206.385135,202.576014 104.411313,305.909451 59.5608108,324.50947 L95.7148105,328.623311 Z" id="Path" fill="#010101"></path>
            <path d="M175.275172,35.6388726 C178.986638,35.7645368 182.678041,36.2377824 186.300676,37.0523649 C186.300676,37.0523649 182.618945,27.0204964 178.720642,24.5861486 C178.720642,24.5861486 174.704209,30.3971723 175.275172,35.6388726 Z" id="Path" fill="#C4C3C6"></path>
            <path d="M133.489172,60.5996622 C133.489172,60.5996622 139.896498,49.5518776 143.361486,48.1334459 C143.361486,48.1334459 132.753588,48.8326728 130.89527,49.1922752 C130.89527,49.1922752 131.534067,59.7006562 133.489172,60.5996622 Z" id="Path" fill="#C4C3C6"></path>
            <path d="M152.364865,43.285473 C152.364865,43.285473 154.875562,40.2415541 164.138514,37.4082207 C164.138514,37.4082207 157.481362,33.2347973 154.228867,31.5118243 C153.136945,35.3461016 152.511042,39.2995115 152.364865,43.285473 Z" id="Path" fill="#C4C3C6"></path>
            <path d="M302.652027,43.2351806 C302.652027,43.2351806 311.405312,48.888879 312.655781,51.5962838 C313.262231,47.2354764 313.621953,42.841729 313.733108,38.4375 C309.704872,39.0341957 305.89065,40.6856069 302.652027,43.2351806 L302.652027,43.2351806 Z" id="Path" fill="#C4C3C6"></path>
            <path d="M319.701423,109.079392 C319.701423,109.079392 316.120434,116.514003 313.733108,117.472677 C313.733108,117.472677 317.294203,124.261651 325.431005,120.309568 C325.957283,115.779555 323.708764,111.372384 319.701423,109.079392 Z" id="Path" fill="#C4C3C6"></path>
            <path d="M322.043919,103.538851 C325.779798,103.352213 329.489953,102.808484 333.125,101.9149 C333.125,101.9149 329.482166,94.1817973 325.629536,91.7652027 C324.775487,95.7882737 323.575704,99.7278555 322.043919,103.538851 L322.043919,103.538851 Z" id="Path" fill="#C4C3C6"></path>
            <path d="M323.429054,73.7584459 C323.429054,73.7584459 326.396252,81.5865252 325.420462,86.2246622 C325.420462,86.2246622 332.987814,83.2891324 335.89527,79.10111 C335.855442,79.10111 329.821475,73.9932883 323.429054,73.7584459 Z" id="Path" fill="#C4C3C6"></path>
            <path d="M317.195946,57.7377693 C319.157274,60.5929903 320.844453,63.639076 322.233523,66.8327703 C324.709338,63.9273932 326.961558,60.8264426 328.969595,57.5582627 C325.062671,56.9414242 321.083558,57.0020917 317.195946,57.7377693 L317.195946,57.7377693 Z" id="Path" fill="#C4C3C6"></path>
            <path d="M240.895455,45.3631757 C240.895455,45.3631757 248.79239,39.6158704 254.172297,36.5571351 C252.311547,31.526248 249.079912,27.1346823 244.85353,23.8935811 C244.85353,23.8935811 238.397641,30.2643229 240.895455,45.3631757 Z" id="Path" fill="#C4C3C6"></path>
            <path d="M262.483108,34.9746622 C266.386187,34.6917482 270.30352,34.6917482 274.206599,34.9746622 C274.549282,30.4376977 273.125666,25.9474691 270.254217,22.5084459 C266.541424,25.7822505 263.838802,30.1177266 262.483108,34.9746622 Z" id="Path" fill="#C4C3C6"></path>
            <path d="M130.202703,105.599979 C130.202703,105.599979 126.604644,96.0673288 127.064396,93.1503378 C123.922243,96.1015745 121.034457,99.2894346 118.429054,102.682988 C118.429054,102.682988 125.265366,106.229134 130.202703,105.523718" id="Path" fill="#C4C3C6"></path>
            <path d="M196.050372,39.5917793 C201.188247,40.7775942 206.256758,42.241877 211.233108,43.9780405 C211.233108,43.9780405 206.967205,30.2998311 201.34397,24.5861486 C201.34397,24.5861486 195.371706,32.8007695 196.050372,39.5917793 Z" id="Path" fill="#C4C3C6"></path>
        </g>
    </g>
</svg>