<?xml version="1.0" encoding="UTF-8"?>
<svg width="1310px" height="800px" viewBox="0 0 1310 800" version="1.1" xmlns="http://www.w3.org/2000/svg" xmlns:xlink="http://www.w3.org/1999/xlink">
    <!-- Generator: Sketch 61 (89581) - https://sketch.com -->
    <title>Claim Your Role on the Platform</title>
    <desc>Created with Sketch.</desc>
    <g id="Claim-Your-Role-on-the-Platform" stroke="none" stroke-width="1" fill="none" fill-rule="evenodd">
        <rect fill="#000000" x="0" y="0" width="1310" height="800"></rect>
        <g id="Group-4" transform="translate(0.000000, -255.000000)" fill="#4038FF">
            <path d="M1237.22157,0 L1310,0 C1310,361.740489 1016.74181,655 655,655 L655,582.222222 C976.567705,582.222222 1237.22157,321.567156 1237.22157,0 Z M1092.14202,0 L1165,0 C1165,281.665714 936.666171,510 655,510 L655,437.142857 C896.413145,437.142857 1092.14202,241.4136 1092.14202,0 Z M1015,0 L943,0 C943,159.04512 814.046841,288 655,288 L655,360 C853.825847,360 1015,198.82944 1015,0 Z M803,0 L877,0 C877,122.61504 777.616382,222 655,222 L655,148 C736.732405,148 803,81.73152 803,0 Z M655,0 L727,0 C727,39.77856 694.779006,72 655,72 L655,0 Z" id="Shape" transform="translate(982.500000, 327.500000) rotate(-90.000000) translate(-982.500000, -327.500000) "></path>
            <path d="M582.221575,0 L655,0 C655,361.740489 361.741815,655 0,655 L0,582.222222 C321.567705,582.222222 582.221575,321.567156 582.221575,0 Z M437.142024,0 L510,0 C510,281.665714 281.666171,510 0,510 L0,437.142857 C241.413145,437.142857 437.142024,241.4136 437.142024,0 Z M360,0 L288,0 C288,159.04512 159.046841,288 0,288 L0,360 C198.825847,360 360,198.82944 360,0 Z M148,0 L222,0 C222,122.61504 122.616382,222 0,222 L0,148 C81.7324045,148 148,81.73152 148,0 Z M0,0 L72,0 C72,39.77856 39.7790055,72 0,72 L0,0 Z" id="Shape-Copy" transform="translate(327.500000, 327.500000) scale(-1, 1) rotate(-90.000000) translate(-327.500000, -327.500000) "></path>
            <path d="M727.778425,1310 L655,1310 C655,948.259511 948.258185,655 1310,655 L1310,727.777778 C988.432295,727.777778 727.778425,988.432844 727.778425,1310 Z M872.857976,1310 L800,1310 C800,1028.33429 1028.33383,800 1310,800 L1310,872.857143 C1068.58685,872.857143 872.857976,1068.5864 872.857976,1310 Z M950,1310 L1022.00115,1310 C1022.00115,1150.94912 1150.95061,1022 1310,1022 L1310,950 C1111.17097,950 950,1111.17056 950,1310 Z M1161.99605,1310 L1088,1310 C1088,1187.37904 1187.38034,1088 1310,1088 L1310,1162 C1228.26541,1162 1161.99605,1228.26848 1161.99605,1310 Z M1310,1310 L1238,1310 C1238,1270.22144 1270.22099,1238 1310,1238 L1310,1310 Z" id="Shape" transform="translate(982.500000, 982.500000) rotate(-180.000000) translate(-982.500000, -982.500000) "></path>
            <path d="M72.7784253,1310 L0,1310 C0,948.259511 293.258185,655 655,655 L655,727.777778 C333.432295,727.777778 72.7784253,988.432844 72.7784253,1310 Z M217.857976,1310 L145,1310 C145,1028.33429 373.333829,800 655,800 L655,872.857143 C413.586855,872.857143 217.857976,1068.5864 217.857976,1310 Z M295,1310 L367.001153,1310 C367.001153,1150.94912 495.950612,1022 655,1022 L655,950 C456.170969,950 295,1111.17056 295,1310 Z M506.99605,1310 L433,1310 C433,1187.37904 532.380345,1088 655,1088 L655,1162 C573.265414,1162 506.99605,1228.26848 506.99605,1310 Z M655,1310 L583,1310 C583,1270.22144 615.220994,1238 655,1238 L655,1310 Z" id="Shape-Copy-2" transform="translate(327.500000, 982.500000) scale(-1, 1) rotate(-180.000000) translate(-327.500000, -982.500000) "></path>
        </g>
        <g id="Group-2" transform="translate(422.000000, 195.000000)">
            <g id="Group-3" transform="translate(233.331160, 205.073454) scale(-1, -1) rotate(-210.000000) translate(-233.331160, -205.073454) translate(34.745763, 83.196009)">
                <g id="Group" transform="translate(0.000000, -0.000000)">
                    <path d="M335.755994,108.987036 C342.544684,109.07378 357.075026,118.866307 360.748188,122.394139 C366.293359,127.719578 372.204147,134.120018 372.140376,142.700666 C372.097863,148.432716 368.203461,153.562555 365.592426,157.999646 C364.127838,160.488104 362.741191,162.844122 361.866122,165.305473 C362.115534,165.376726 362.374158,165.438686 362.530749,165.476636 C371.236796,167.562356 378.189162,175.75653 379.438349,185.402885 C379.876946,188.791308 378.21963,190.217156 377.486982,190.67256 C376.893211,191.043544 376.228584,191.231747 375.513649,191.231747 C374.789503,191.231747 374.156761,191.036574 373.633137,190.845273 C365.307586,187.805374 358.346008,183.727649 352.35232,178.377427 C345.865476,172.589613 341.63893,166.257329 339.790303,159.557933 C337.92042,152.781862 338.765021,145.517858 341.824572,140.11497 C339.461533,139.625488 336.92348,139.518607 334.29048,139.40708 C329.519762,139.205711 324.586076,138.997371 320.047056,136.451601 C316.009695,134.187747 313.06493,130.479457 310.15701,126.556632 C303.809043,117.996121 296.678828,107.878097 292.401266,96.1026503 C291.489353,93.5909577 290.707814,90.8631806 291.166959,87.9355834 C291.695543,84.5641996 293.739023,82.0192037 295.231954,80.1604118 C299.087924,75.3577582 303.833842,70.4474496 309.795645,70.4474496 C310.262585,70.4474496 310.735193,70.4784295 311.199298,70.5403892 C313.328513,70.820757 315.248704,71.7524764 316.942865,72.5742173 C318.571131,73.3642039 320.109409,74.1108186 321.459211,74.1108186 C321.626431,74.1108186 321.791525,74.0999757 321.95095,74.0767408 C323.113309,73.9149136 324.286934,73.1009041 325.546578,72.0357983 C329.208125,77.6287433 332.611264,89.9458227 335.755994,108.987036 Z" id="Path" stroke="#000000" stroke-width="5.49376223" fill="#000000"></path>
                    <path d="M276.622013,115.422307 C279.629082,112.768698 303.666152,120.560712 299.834256,120.190443 C298.507066,120.062152 296.939447,119.676426 296.064913,120.579416 C295.434188,121.231873 295.475434,122.289471 295.592004,123.233399 C296.495904,130.51434 300.87562,138.574553 308.153964,140.462605 C316.227016,142.555792 323.358804,136.002584 326.336138,128.767262 C327.675479,125.513547 328.574718,121.942517 330.899824,119.339122 C334.536547,115.268123 340.707225,114.528004 346.379845,114.021158 C353.337327,113.399631 361.289845,113.09431 366.791397,117.941689 C372.736703,123.178921 373.022675,131.955864 376.993445,138.716193 C377.334261,139.295116 377.737233,139.892366 378.342639,140.190984 C379.559408,140.789641 380.823865,139.92043 381.844114,139.193601 C388.117861,134.723858 397.613637,134.84405 404.59495,139.481559 C405.253268,139.918909 405.973765,140.570528 405.857068,141.300737 C405.771064,141.841042 405.254774,142.162545 404.78144,142.422904 C397.861766,146.239194 390.498095,148.935162 382.390208,149.959625 C375.53528,150.825779 368.187626,150.491819 361.665783,147.372407 C355.14511,144.254011 349.6622,137.91074 349.15691,130.993592 C341.108041,134.476598 337.207743,143.976204 328.909656,146.939168 C324.959454,148.350446 320.484077,148.085353 316.146954,147.745276 C304.784774,146.855345 293.251425,145.532802 282.373449,141.349054 C280.312178,140.556414 278.190539,139.59701 276.754494,137.894972 C275.172389,136.018349 274.681904,133.558401 274.258535,131.227952 C273.235982,125.60264 272.54787,119.017082 276.622013,115.422307 Z" id="Fill-4" fill="#000000" transform="translate(339.672104, 132.025037) scale(-1, -1) rotate(-131.000000) translate(-339.672104, -132.025037) "></path>
                    <path d="M357.681834,130.367059 C357.999087,130.569307 358.352563,130.688629 358.500436,131.070084 L358.456599,131.018911 C364.386312,136.458217 365.876331,143.934793 368.94403,150.664038 C369.948827,152.867322 370.612527,154.953593 372.786455,156.578962 C373.947034,157.447573 378.753725,159.496496 378.60497,160.26825 C378.574396,160.427324 373.644451,161.724418 371.81516,162.015019 C359.701303,163.939426 354.443083,159.469735 354.443083,159.469735 C347.824986,155.377157 347.218916,149.700236 347.482684,148.559951 C348.727956,143.176546 359.440471,135.873626 359.592274,135.105455 C359.705584,134.532606 354.614898,132.486773 349.717079,133.461859 C348.028058,133.670082 347.595285,135.118684 347.275536,136.233232 C345.666306,141.842806 344.400519,142.486713 340.325494,145.969169 C337.731236,148.185209 324.406337,140.793957 324.793242,136.085476 C325.128288,131.998495 325.653737,132.248415 329.094915,131.166823 C331.3068,130.472001 337.126859,128.378188 343.04469,128.068721 C349.439046,127.734336 355.932226,129.251077 357.681834,130.367059 Z" id="Fill-10" fill="#C4C3C6" transform="translate(351.696666, 145.258883) scale(-1, -1) rotate(-131.000000) translate(-351.696666, -145.258883) "></path>
                    <path d="M360.552726,143.522337 C356.669364,147.982881 354.340378,148.704238 352.551308,147.151375 C350.762239,145.598511 352.459998,140.723681 356.34336,136.263137 C360.226722,131.802594 367.79104,140.454994 369.58011,142.007857 C370.373964,142.696901 374.54179,154.459435 370.771324,148.45 C367.000857,142.440566 362.712944,141.041046 360.552726,143.522337 Z" id="Oval" fill="#000000" transform="translate(362.083032, 142.576296) scale(-1, -1) rotate(-131.000000) translate(-362.083032, -142.576296) "></path>
                    <path d="M359.958237,134.814955 C353.85042,140.160208 352.707804,143.523583 348.993671,146.770596 C346.629165,148.836813 343.549609,130.438555 346.023018,129.561927 C347.612842,128.998746 353.959911,126.845547 359.185058,127.191339 C364.410204,127.537131 365.533352,129.374906 368.629925,131.589643 C364.325239,131.81046 361.394392,133.558104 359.958237,134.814955 Z" id="Path" fill="#FFFFFF" transform="translate(356.869821, 137.043147) scale(-1, -1) rotate(-131.000000) translate(-356.869821, -137.043147) "></path>
                    <path d="M375.684431,181.205632 C370.483105,184.379814 362.918187,181.287721 358.377009,179.192837 C356.772603,178.452707 356.999912,177.33573 358.637097,176.67942 C364.712139,174.247664 372.272906,173.533683 378.588261,177.30818 C379.283614,177.724242 376.663844,180.608346 375.684431,181.205632 Z" id="Fill-14" fill="#C4C3C6" transform="translate(367.994388, 178.616908) scale(-1, -1) rotate(-131.000000) translate(-367.994388, -178.616908) "></path>
                    <path d="M315.097091,94.0035901 L315.217641,95.0456524 C315.16931,94.8865244 315.156459,94.7581913 315.125868,94.6144607 C315.116276,94.4108372 315.106684,94.2072136 315.097091,94.0035901 Z" id="Fill-16" fill="#D796A0" transform="translate(315.157366, 94.524621) scale(-1, -1) rotate(-131.000000) translate(-315.157366, -94.524621) "></path>
                    <path d="M315.330408,84.4471041 C317.506415,85.8764785 319.664919,88.2243399 322.412696,88.2685759 C322.751982,88.274339 323.411046,88.2492465 323.559416,88.5439526 C323.850526,89.1256655 321.947869,90.5508525 320.352717,91.3701983 C318.456212,92.3432597 316.901518,93.1208543 315.309684,92.4666301 C313.885927,91.8814239 312.78332,90.3713077 312.185401,88.0205945 C312.107604,87.7168374 312.214551,86.7794302 311.670922,85.8585465 C311.350199,85.3167504 311.111427,85.2557413 311.014286,85.2445451 C310.683401,85.2067021 310.396362,85.5706386 310.150251,86.0197833 C309.02007,88.0770231 309.096868,90.9897152 309.096868,90.9897152 C309.150709,93.0575448 309.471219,94.649076 309.579065,95.1579643 C309.974754,97.0397316 310.497153,98.5646407 311.494296,101.065947 C313.421567,105.903525 314.346189,108.360633 315.481396,109.469702 C317.047049,110.999258 319.101803,112.145277 321.756985,112.841275 C328.455168,114.59886 335.23513,115.620302 341.952831,117.164221 C342.966236,117.397941 344.510332,116.942998 344.660564,118.49797 C344.685979,118.764126 343.34505,120.182345 340.761397,120.102624 C330.310133,119.780139 302.90584,115.589908 296.337595,112.693148 C293.613323,111.490966 291.485917,109.917228 290.663399,106.981598 C289.841188,103.939368 289.880534,100.874381 289.535021,97.8193815 C288.975652,92.8838903 290.602689,89.3811755 295.096289,87.3410121 C296.181472,86.8477172 296.637191,86.558009 297.818187,86.000701 C302.36929,83.8567106 302.387257,82.8739432 304.396286,82.2225952 C307.980366,81.0606788 312.620928,82.667181 315.330408,84.4471041 Z" id="Fill-18" fill="#C4C3C6" transform="translate(317.044818, 100.967138) scale(-1, -1) rotate(-131.000000) translate(-317.044818, -100.967138) "></path>
                    <path d="M316.804656,73.1776356 C313.070739,74.6258626 316.210647,87.9222446 317.205056,90.4249612 C318.551059,93.8147212 307.813247,101.654337 305.068342,100.443333 C302.347317,99.2421537 300.222922,97.6686504 299.403313,94.731105 C298.58409,91.6868671 298.6257,88.6192071 298.282774,85.5618319 C297.727587,80.6225034 299.355849,77.1155502 303.847109,75.0702641 C304.931727,74.5757316 305.387271,74.2854324 306.567668,73.7267599 C311.11646,71.5775142 311.135147,70.5938859 313.142935,69.9404725 C313.161585,69.9344035 313.180263,69.9284097 313.198969,69.9224906 C315.323815,70.6471279 315.934989,70.5556655 317.734367,72.1081253 L316.804656,73.1776356 Z" id="Path" fill="#FFFFFF" transform="translate(307.956311, 85.245865) scale(-1, -1) rotate(-131.000000) translate(-307.956311, -85.245865) "></path>
                    <path d="M229.9461,149.457079 C237.496672,176.320456 257.940506,163.988357 261.288033,167.208305 C266.341611,172.068979 271.728393,177.910835 271.670276,185.742626 C271.631531,190.974424 268.082378,195.656568 265.702818,199.706422 C264.368069,201.977706 263.104351,204.128108 262.30686,206.37465 C262.534161,206.439685 262.769857,206.496237 262.912566,206.530876 C270.8468,208.434569 277.182822,215.913615 278.321265,224.718107 C278.72098,227.810812 277.210589,229.112223 276.542891,229.527883 C276.001759,229.86649 275.396053,230.038267 274.744499,230.038267 C274.084551,230.038267 273.507903,229.860128 273.0307,229.685522 C265.443229,226.910923 259.098813,223.189073 253.63648,218.305779 C247.72471,213.023084 243.872858,207.243435 242.188117,201.128714 C240.484003,194.944009 243.391603,188.351271 246.179918,183.419908 C244.026368,182.973144 241.713319,182.875591 239.313741,182.773797 C237.576375,182.700353 237.064915,192.309017 235.060263,193.38614 C232.048248,195.004532 225.363067,188.153033 222.879431,186.757944 C219.199992,184.691663 213.985815,177.840389 211.335689,174.25992 C205.550485,166.446508 199.691768,153.903143 195.793423,143.155371 C194.962353,140.862881 194.250099,138.373164 194.66854,135.701067 C195.150264,132.623913 197.012584,130.301026 198.373163,128.604455 C201.887292,124.220943 209.419285,119.795145 214.85256,119.795145 C215.278104,119.795145 215.708814,119.823421 216.131775,119.879974 C218.07223,120.135873 219.822192,120.986279 221.366161,121.736304 C222.850077,122.457346 226.389858,123.176119 227.619997,123.176119 C227.772392,123.176119 227.92285,123.166222 228.068142,123.145015 C229.127454,122.997311 230.197035,122.254342 231.345008,121.282191 C234.68195,126.387025 234.215647,135.778654 229.9461,149.457079 Z" id="Path" stroke="#000000" stroke-width="5.49376223" fill="#000000" transform="translate(236.466301, 174.916706) rotate(-61.000000) translate(-236.466301, -174.916706) "></path>
                    <path d="M182.671509,155.37322 C185.411993,152.951199 207.318117,160.063182 203.825928,159.725228 C202.616397,159.608133 201.187751,159.256071 200.390747,160.080254 C199.815937,160.675769 199.853527,161.641068 199.959763,162.502616 C200.783529,169.14813 204.774973,176.504906 211.408073,178.228183 C218.765429,180.138692 225.264967,174.1574 227.978353,167.553524 C229.198958,164.58377 230.018477,161.324394 232.137457,158.948204 C235.451775,155.232492 241.075407,154.556965 246.245135,154.094353 C252.585819,153.527069 259.833327,153.248394 264.847153,157.672728 C270.265392,162.452893 270.526013,170.463848 274.144763,176.634185 C274.455366,177.162584 274.822613,177.70771 275.374348,177.980267 C276.483248,178.526678 277.635608,177.733325 278.565409,177.069928 C284.282972,172.990272 292.936925,173.099974 299.299327,177.332755 C299.899284,177.731937 300.555906,178.326687 300.449555,178.993169 C300.371175,179.48632 299.900656,179.779765 299.469284,180.017401 C293.163057,183.500633 286.452193,185.961317 279.063091,186.896372 C272.815868,187.686934 266.119603,187.38212 260.175937,184.534948 C254.233338,181.688702 249.236501,175.899026 248.776006,169.585557 C241.44069,172.764591 237.886163,181.43514 230.323722,184.139519 C226.723715,185.42763 222.645092,185.185673 218.692466,184.875275 C208.337571,184.063011 197.826682,182.85589 187.913065,179.037269 C186.034531,178.313805 184.100981,177.43813 182.792245,175.884634 C181.350397,174.171789 180.903395,171.926527 180.517559,169.799464 C179.585658,164.665088 178.958548,158.654269 182.671509,155.37322 Z" id="Fill-4" fill="#000000" transform="translate(240.132052, 170.526984) scale(-1, -1) rotate(-192.000000) translate(-240.132052, -170.526984) "></path>
                    <path d="M261.447794,153.196896 C261.736922,153.381493 262.059062,153.490402 262.193826,153.838566 L262.153875,153.791859 C267.557904,158.756462 268.915829,165.580537 271.711569,171.722502 C272.627288,173.7335 273.232149,175.637696 275.213354,177.121214 C276.271045,177.914019 280.65161,179.784128 280.516042,180.488528 C280.488179,180.633719 275.995286,181.817613 274.328166,182.082852 C263.288233,183.839311 258.496167,179.759702 258.496167,179.759702 C252.46478,176.024295 251.912441,170.842814 252.152824,169.802044 C253.2877,164.888464 263.050524,158.22289 263.188869,157.521759 C263.292134,156.998904 258.65275,155.131617 254.189135,156.021604 C252.64985,156.211655 252.255443,157.533834 251.964041,158.551112 C250.497473,163.671123 248.285755,164.869863 244.571992,168.048396 C242.20772,170.071036 231.122253,162.71381 231.474858,158.416251 C231.780201,154.685952 232.259068,154.914061 235.395177,153.926862 C237.410973,153.292679 242.715069,151.381599 248.10827,151.09914 C253.935751,150.793938 259.853294,152.178309 261.447794,153.196896 Z" id="Fill-10" fill="#C4C3C6" transform="translate(255.992876, 166.789070) scale(-1, -1) rotate(-192.000000) translate(-255.992876, -166.789070) "></path>
                    <path d="M257.04659,158.175483 C253.507498,162.246743 251.384983,162.905145 249.754519,161.487804 C248.124055,160.070463 249.671303,155.621073 253.210396,151.549813 C256.749488,147.478553 263.64321,155.375835 265.273675,156.793176 C265.997152,157.422084 269.795489,168.15807 266.359284,162.673095 C262.923079,157.18812 259.015301,155.910741 257.04659,158.175483 Z" id="Oval" fill="#000000" transform="translate(258.441231, 157.312005) scale(-1, -1) rotate(-192.000000) translate(-258.441231, -157.312005) "></path>
                    <path d="M254.095222,157.75825 C247.988013,162.99077 246.845512,166.28321 243.131748,169.461743 C240.767477,171.484383 237.688228,153.474149 240.161391,152.616009 C241.751056,152.064706 248.097494,149.956919 253.32212,150.295418 C258.546747,150.633916 259.669783,152.432932 262.766047,154.60096 C258.46179,154.81712 255.531235,156.527906 254.095222,157.75825 Z" id="Path" fill="#FFFFFF" transform="translate(251.007114, 159.939449) scale(-1, -1) rotate(-192.000000) translate(-251.007114, -159.939449) "></path>
                    <path d="M296.794192,170.91268 C292.053976,173.809842 285.159707,170.987605 281.021116,169.075547 C279.558945,168.40001 279.766102,167.380515 281.258146,166.781483 C286.794621,164.561953 293.685107,163.910283 299.440591,167.35537 C300.074299,167.73512 297.686777,170.367521 296.794192,170.91268 Z" id="Fill-14" fill="#C4C3C6" transform="translate(289.785891, 168.549881) scale(-1, -1) rotate(-192.000000) translate(-289.785891, -168.549881) "></path>
                    <path d="M199.40431,173.476708 L199.411748,173.503709 C199.409818,173.499465 199.408955,173.496147 199.407559,173.492366 C199.406476,173.487147 199.405393,173.481928 199.40431,173.476708 Z" id="Fill-16" fill="#D796A0" transform="translate(199.408029, 173.490209) scale(-1, -1) rotate(-192.000000) translate(-199.408029, -173.490209) "></path>
                    <path d="M206.4034,158.484514 C208.386499,159.789143 210.353646,161.9321 212.857826,161.972476 C213.167034,161.977736 211.263883,164.735571 211.399099,165.004557 C211.664402,165.535502 209.93042,166.836309 208.476682,167.584149 C206.748307,168.472288 207.835228,166.401283 206.384514,165.804154 C205.086977,165.270021 204.082118,163.891696 203.537206,161.746136 C203.466306,161.468889 203.563772,160.613292 203.068337,159.772776 C202.776047,159.278264 202.558442,159.22258 202.469913,159.21236 C202.168362,159.17782 201.90677,159.509995 201.682477,159.919942 C200.652489,161.79764 200.722479,164.456134 200.722479,164.456134 C200.771547,166.343498 201.063643,167.796132 201.161928,168.260609 C201.522538,169.978149 201.990737,175.432474 205.844527,176.744517 C209.698316,178.056559 214.51872,179.226461 215.101533,180.044405 C220.821266,188.071708 214.791489,192.998082 214.92807,194.417348 C214.951564,194.660275 213.729512,195.954723 211.374906,195.881959 C201.850172,195.587618 191.145779,191.279131 185.159825,188.635179 C182.677066,187.537915 180.73826,186.101521 179.98866,183.422092 C179.23934,180.645366 179.275198,177.847868 178.960315,175.059487 C178.450536,170.55473 183.867855,162.987976 187.963087,161.125863 C188.952065,160.675619 189.367384,160.411195 190.443681,159.902525 C194.591318,157.945646 194.607692,157.048647 196.438615,156.454144 C199.704958,155.393632 203.934122,156.85993 206.4034,158.484514 Z" id="Fill-18" fill="#C4C3C6" transform="translate(198.248538, 175.989640) scale(-1, -1) rotate(-192.000000) translate(-198.248538, -175.989640) "></path>
                    <path d="M216.102551,182.542295 C206.722605,179.55545 201.222126,177.943857 199.601115,177.707517 C198.699457,177.575856 195.369626,178.961145 189.611622,181.863383 C193.857206,177.429339 197.057773,173.325859 199.213323,169.552945 C201.088824,166.270209 201.521674,167.04101 202.398325,169.061384 C203.033003,170.524094 203.4982,172.61276 206.841089,174.431516 C214.801357,178.762436 222.266402,178.103478 221.865795,179.986356 C221.862073,180.003846 221.432363,183.363632 221.428498,183.381098 C221.424632,183.398564 223.331678,190.981669 221.28337,191.695481 L216.102551,182.542295 Z" id="Path" fill="#FFFFFF" transform="translate(205.921820, 179.506304) scale(-1, -1) rotate(-192.000000) translate(-205.921820, -179.506304) "></path>
                    <path d="M276.682404,223.450375 C264.58385,224.319156 254.479782,217.277791 254.114337,207.723046 C253.748892,198.1683 263.260456,189.718362 275.35901,188.849581 C287.457565,187.9808 297.561633,195.022166 297.927078,204.576911 C298.292523,214.131657 288.780959,222.581594 276.682404,223.450375 Z" id="Oval" fill="#000000" transform="translate(276.020707, 206.149978) scale(1, -1) rotate(151.000000) translate(-276.020707, -206.149978) "></path>
                    <path d="M279.104978,217.831625 C268.040592,218.557052 258.766314,211.869789 258.390298,202.895206 C258.014283,193.920622 266.678919,186.057211 277.743304,185.331784 C288.80769,184.606357 298.081968,191.29362 298.457984,200.268203 C298.833999,209.242787 290.169363,217.106198 279.104978,217.831625 Z" id="Oval-Copy" fill="#C4C3C6" transform="translate(278.424141, 201.581705) scale(1, -1) rotate(151.000000) translate(-278.424141, -201.581705) "></path>
                    <path d="M300.438495,164.569882 C283.097519,183.424963 275.000373,209.433488 254.219028,203.913581 C233.437684,198.393673 220.811049,186.997976 200.190854,200.823971 C192.008625,195.364998 190.779878,190.596731 196.037876,178.948577 C202.725784,164.132712 194.13188,141.491894 191.796682,114.529303 C190.318952,97.4671768 205.034453,85.9956551 204.524594,83.5951268 C200.750301,65.8249551 216.292219,49.4841524 239.884518,34.1753617 C252.018667,26.3016419 268.994017,29.862073 280.79566,27.3516464 C315.543114,19.9602237 351.027772,39.231683 340.79867,64.199709 C322.161372,109.691144 341.906173,79.026633 326.348886,116.34896 C320.78128,129.705788 317.779471,145.714801 300.438495,164.569882 Z" id="Oval" fill="#000000" transform="translate(267.139511, 115.210293) scale(1, -1) rotate(151.000000) translate(-267.139511, -115.210293) "></path>
                    <path d="M299.862745,34.566497 C310.692756,33.3532712 347.538158,43.9043784 333.90111,70.7443252 C320.264062,97.584272 334.750458,82.2825254 320.879215,115.551403 C315.915007,127.457592 313.616156,125.630135 295.626982,150.150339 C277.637808,174.670543 284.844572,197.835802 259.98708,194.783686 C249.375765,193.48078 237.379143,189.711237 226.161163,189.553256 C214.943183,189.395276 205.253832,195.786378 203.794748,193.99234 C198.820215,187.875833 213.954128,170.19421 211.307613,162.603552 C205.362785,145.552766 204.245331,126.795036 203.256121,115.370269 C201.939273,100.161507 215.059113,89.9355147 214.604639,87.7957531 C212.033956,75.6924347 221.505501,61.1681255 235.501007,48.9010069 C240.093612,44.8755697 251.749048,42.8571396 261.292993,39.3834278 C293.215711,38.0039243 289.032735,35.7797227 299.862745,34.566497 Z" id="Path" fill="#C4C3C6" transform="translate(269.836373, 114.764280) scale(1, -1) rotate(151.000000) translate(-269.836373, -114.764280) "></path>
                    <path d="M255.458016,167.414332 C256.17366,167.629866 254.706898,175.418594 256.332834,174.590138 C259.027124,173.217329 261.117588,174.192722 262.585836,174.373624 C263.380148,174.471491 265.35672,169.412829 266.194105,169.46801 C274.030458,169.984401 281.601213,167.922871 286.278889,160.326227 C289.501894,155.091998 300.512006,133.052559 303.950522,131.889615 C297.738856,130.18986 296.000391,127.651986 274.427835,131.008338 C263.164231,132.760779 271.113538,137.111471 268.073808,140.184977 C261.555824,146.775385 254.507557,152.872776 251.384445,154.849794 C250.162202,155.623507 251.052954,128.118237 247.72655,137.773886 C244.400146,147.429535 240.795358,162.998293 255.458016,167.414332 Z" id="Path-Copy-69" fill="#FFFFFF" transform="translate(274.352153, 152.006403) rotate(-164.000000) translate(-274.352153, -152.006403) "></path>
                    <path d="M255.576843,174.935526 C269.41722,177.453614 275.532358,177.624398 282.840148,169.360874 C287.126955,164.513426 297.336791,144.283567 300.845782,143.744111 C284.279344,140.79497 274.302179,150.677236 262.354177,149.622388 C250.406174,148.567541 248.92502,142.324265 244.055207,138.327948 C246.938619,143.695102 242.3656,156.59946 243.7121,163.217416 C245.058601,169.835372 249.013515,173.741408 255.576843,174.935526 Z" id="Path-Copy-10" fill="#000000" transform="translate(272.151639, 157.393317) rotate(-164.000000) translate(-272.151639, -157.393317) "></path>
                    <path d="M251.69287,155.633053 C246.260632,152.781836 239.340259,156.124319 232.858385,161.543319 C234.596559,158.499264 245.36096,143.9066 254.16936,132.289711 C253.952033,134.968785 253.414649,138.923548 254.628926,142.974815 C257.554101,152.734255 257.125107,158.484269 251.69287,155.633053 Z" id="Path-Copy-70" fill="#000000" transform="translate(244.641035, 146.916515) rotate(-162.000000) translate(-244.641035, -146.916515) "></path>
                    <path d="M242.249859,167.664068 L232.339243,156.146222 C228.000038,146.686329 226.614506,136.650101 228.182646,126.037539 C230.547536,110.032892 236.667337,101.918714 237.673225,106.515228 C239.28867,113.897182 240.814214,134.280128 242.249859,167.664068 Z" id="Path-Copy-94" fill="#000000" transform="translate(234.904048, 136.451282) rotate(-162.000000) translate(-234.904048, -136.451282) "></path>
                    <path d="M246.134465,65.3597793 C244.529197,67.2795772 231.136603,68.5570816 226.692713,67.0880991 C232.696854,64.3351845 236.692107,63.3692137 242.457104,57.5118982 C248.222101,51.6545826 249.034735,49.2037124 251.86144,41.5163295 C254.158844,45.5691378 253.829198,56.1573743 246.134465,65.3597793 Z" id="Path-Copy-90" fill="#000000" transform="translate(239.900230, 54.620907) scale(1, -1) rotate(151.000000) translate(-239.900230, -54.620907) "></path>
                    <path d="M295.560598,143.821506 C290.183919,144.226098 292.44067,135.818319 294.094799,132.427516 C297.148587,135.039101 300.937277,143.416913 295.560598,143.821506 Z" id="Path-Copy-79" fill="#000000" transform="translate(295.224648, 138.131563) scale(1, -1) rotate(151.000000) translate(-295.224648, -138.131563) "></path>
                    <path d="M276.946912,138.419851 C273.329662,134.421745 271.149969,127.241923 266.618637,122.808266 C270.353122,120.038654 273.040658,124.503573 276.946912,138.419851 Z" id="Path-Copy-92" fill="#000000" transform="translate(271.782775, 130.223898) scale(1, -1) rotate(151.000000) translate(-271.782775, -130.223898) "></path>
                    <path d="M301.202391,162.396933 C306.001624,162.732528 306.773773,151.690283 316.363056,150.198446 C313.241883,152.969403 308.593079,158.334914 305.861233,164.740209 C302.914705,171.648865 302.026528,179.684512 302.777757,184.614933 C302.791001,183.535484 297.476889,178.348001 296.949972,177.230811 C296.051728,175.326318 294.550248,167.46766 295.413641,168.549013 C295.982247,169.261163 298.929311,170.729906 299.539234,170.855001 C299.599952,168.709826 296.403159,162.061338 301.202391,162.396933 Z" id="Path" fill="#000000" transform="translate(305.759072, 167.406689) scale(1, -1) rotate(151.000000) translate(-305.759072, -167.406689) "></path>
                    <path d="M283.889096,126.569723 C286.103617,119.867664 295.308523,127.882131 297.316637,131.995865 C292.301277,133.120063 281.674575,133.271782 283.889096,126.569723 Z" id="Path-Copy-81" fill="#000000" transform="translate(290.453108, 128.289225) scale(1, -1) rotate(151.000000) translate(-290.453108, -128.289225) "></path>
                    <path d="M297.796024,133.477859 C298.468302,128.202934 305.821748,132.86028 308.007179,136.164707 C304.849137,137.432972 297.123746,138.752784 297.796024,133.477859 Z" id="Path-Copy-86" fill="#000000" transform="translate(302.880983, 134.198734) scale(1, -1) rotate(162.000000) translate(-302.880983, -134.198734) "></path>
                    <path d="M306.956868,116.836978 C312.752233,109.403662 304.991862,114.001288 298.332451,110.648211 C308.057828,108.886276 311.41181,107.366728 314.583271,104.968336 C317.754733,102.569944 323.193843,92.3480669 324.491559,87.5534065 C325.278047,97.2025226 322.800813,101.683982 317.479261,110.90206 C312.987568,118.682642 306.613135,121.237448 303.910049,126.090347 C300.102432,138.421661 308.113898,138.766337 312.963817,138.622706 C305.795789,139.682066 301.552826,138.146208 300.199981,136.815716 C299.177311,135.809944 296.618284,133.667745 298.294749,129.207023 C299.848337,125.073251 305.552101,118.638777 306.956868,116.836978 Z" id="Path" fill="#000000" transform="translate(311.187046, 113.264678) scale(1, -1) rotate(162.000000) translate(-311.187046, -113.264678) "></path>
                    <path d="M255.786404,100.523398 C241.270773,100.097223 229.910422,80.6040474 245.829773,82.6620758 C262.776185,84.8528811 267.384662,76.2565105 274.194567,81.6136985 C277.882635,84.5150122 283.088386,91.417541 276.80134,96.0101281 C270.514293,100.602715 262.505271,100.720663 255.786404,100.523398 Z" id="Path-Copy-74" fill="#FFFFFF" transform="translate(258.921659, 90.200964) scale(1, -1) rotate(151.000000) translate(-258.921659, -90.200964) "></path>
                    <path d="M280.788462,44.6822488 C272.602211,47.7854075 262.322717,53.4693162 254.739155,56.6896258 C224.497804,69.5314164 244.673401,49.9616593 257.311408,44.2223665 C265.73694,40.3960835 311.141873,25.1928214 329.858195,39.9937673 C334.692756,43.8169585 337.428963,44.9835403 342.010406,55.5744347 C336.787093,54.1071492 332.704532,51.2686586 325.970858,50.8034889 C309.017113,49.6323055 310.712525,53.8392004 295.841058,52.31661 C285.926747,51.3015498 280.909215,48.7567627 280.788462,44.6822488 Z" id="Path" fill="#FFFFFF" transform="translate(290.466342, 47.309658) scale(1, -1) rotate(156.000000) translate(-290.466342, -47.309658) "></path>
                    <path d="M318.040861,115.452011 C321.725798,113.837694 327.090031,114.48475 331.036284,117.049142 C333.351188,118.553435 335.297493,121.859805 319.11578,126.600919 C318.099874,126.898572 314.37883,128.676108 312.247009,128.380391 C307.705684,127.812306 311.874921,118.153219 318.040861,115.452011 Z" id="Path-Copy-84" fill="#FFFFFF" transform="translate(321.450660, 121.492418) scale(1, -1) rotate(151.000000) translate(-321.450660, -121.492418) "></path>
                    <path d="M307.038965,110.981088 C307.799272,112.478663 308.675036,114.002435 304.444169,116.15598 C300.213301,118.309525 298.628417,118.647075 294.915843,117.151854 C293.846656,116.340363 295.069059,113.617803 298.80683,111.296622 C306.260837,106.667631 313.008456,87.3428455 315.185697,87.7545116 C317.322307,88.158495 318.905347,96.3522052 309.168712,106.56877 C309.007285,106.738154 306.278659,109.483513 307.038965,110.981088 Z" id="Path" fill="#FFFFFF" transform="translate(305.669756, 102.907954) scale(1, -1) rotate(151.000000) translate(-305.669756, -102.907954) "></path>
                    <path d="M267.513246,180.02981 C274.756994,180.714813 283.126024,184.636364 291.054814,192.165897 C298.983605,199.695429 281.318814,197.39148 267.237441,194.720307 C253.156068,192.049134 252.521461,199.389059 249.396274,197.16054 C242.685217,192.505413 255.39241,178.883607 267.513246,180.02981 Z" id="Path-Copy-76" fill="#FFFFFF" transform="translate(270.279837, 188.774871) scale(1, -1) rotate(151.000000) translate(-270.279837, -188.774871) "></path>
                    <path d="M277.28385,177.960426 C282.156433,176.954339 288.283097,180.812492 292.083852,187.455666 C282.489856,181.705711 267.565279,184.026778 262.859183,188.762193 C268.441164,181.706071 274.371859,178.561692 277.28385,177.960426 Z" id="Path-Copy-83" fill="#000000" transform="translate(277.471518, 183.282085) scale(1, -1) rotate(151.000000) translate(-277.471518, -183.282085) "></path>
                    <path d="M291.249623,84.256565 C283.698924,84.0526854 277.903582,84.1987693 273.863599,84.6948169 C266.984077,85.539516 264.056156,88.732665 258.778749,90.4704844 C255.260477,91.6290307 254.236624,89.5897627 255.707189,84.3526806 C261.574443,71.2337982 267.643123,64.674357 273.913229,64.674357 C279.709261,64.674357 288.643216,71.1867805 292.628779,82.9102365 C292.826134,83.4907536 292.366415,83.9395298 291.249623,84.256565 Z" id="Path" fill="#FFFFFF" transform="translate(273.865103, 77.729821) rotate(-168.000000) translate(-273.865103, -77.729821) "></path>
                    <path d="M256.125659,86.6153265 C256.693244,77.9664031 264.503958,71.1133708 274.056017,71.1133708 C283.405424,71.1133708 291.086591,77.6787086 291.940522,86.0673298 C286.845428,84.1906623 280.980077,83.1218236 274.738171,83.1218236 C267.912012,83.1218236 261.536198,84.400117 256.125659,86.6153265 L256.125659,86.6153265 Z" id="Path" fill="#000000" transform="translate(274.033090, 78.864349) rotate(-168.000000) translate(-274.033090, -78.864349) "></path>
                    <path d="M318.197992,96.5803433 C312.473824,96.182881 307.028709,97.1298874 302.305865,99.1036318 C303.810163,90.1572052 310.686857,83.6084006 318.433442,84.1462911 C325.996429,84.6714333 332.446464,92.3958714 333.714431,95.3576675 C334.982399,98.3194635 332.543549,104.826783 326.874025,103.862324 C322.963035,103.790277 318.547613,104.171307 313.942206,105.060222 C308.84691,106.043693 302.135265,113.425751 300.166345,108.794935 C298.197426,104.164119 305.239098,101.295376 312.344041,99.9240115 C316.077614,99.2033742 321.814598,96.8314654 318.197992,96.5803433 Z" id="Path" fill="#FFFFFF" transform="translate(316.936541, 97.211890) scale(1, -1) rotate(-36.000000) translate(-316.936541, -97.211890) "></path>
                    <path d="M319.015194,89.4864671 C324.845172,89.8944542 331.90421,97.6854436 330.393926,101.746299 C329.301996,104.682281 320.885494,103.537363 318.033785,103.337798 C311.237782,102.862207 304.779789,103.783197 299.163649,105.781544 C302.857324,94.2504936 309.474506,88.8188013 319.015194,89.4864671 Z" id="Path-Copy-73" fill="#000000" transform="translate(314.882239, 97.606598) scale(1, -1) rotate(-36.000000) translate(-314.882239, -97.606598) "></path>
                    <path d="M280.200543,86.7833585 C284.68024,88.2575734 290.176133,89.291133 296.688222,89.8840372 C293.487106,90.5901149 291.275051,90.9576487 290.052055,90.9866385 C276.220818,91.3144933 269.614656,93.1683788 268.647079,98.7709654 C268.042437,103.764277 280.500528,112.414937 275.893233,116.497005 C271.285938,120.579073 260.089937,121.064207 259.15695,121.178853 C262.444145,117.706986 264.053987,113.713969 262.396132,109.760471 C260.738278,105.806972 259.517069,103.41323 254.082119,102.547108 C254.379189,102.917365 259.500687,100.295556 262.346275,95.5572066 C265.559913,90.205997 265.085178,84.1954923 268.670047,82.4338353 C272.254916,80.6721784 273.480999,84.5720361 280.200543,86.7833585 Z" id="Path" fill="#000000" transform="translate(275.385170, 101.584287) scale(1, -1) rotate(151.000000) translate(-275.385170, -101.584287) "></path>
                    <path d="M287.78674,118.99841 C286.394385,111.101973 280.239971,110.388175 278.318241,108.92343 C283.483768,109.986804 288.1333,110.424041 290.729155,114.137211 C293.483691,118.077362 294.691345,124.2945 286.02052,127.45179 C286.794908,125.686855 288.622153,123.736273 287.78674,118.99841 Z" id="Path" fill="#FFFFFF" transform="translate(285.541131, 118.187610) scale(1, -1) rotate(151.000000) translate(-285.541131, -118.187610) "></path>
                    <path d="M279.567848,65.6792387 C273.138963,59.4861112 274.737584,55.1946 277.351134,54.278749 C279.964684,53.362898 279.976132,60.2612481 284.245379,64.0615884 C288.58081,67.8853616 291.166331,68.4809628 294.999964,70.1790625 C292.110733,71.5633214 286.333659,71.9674869 279.567848,65.6792387 Z" id="Path-Copy-70" fill="#000000" transform="translate(285.032273, 62.611668) scale(1, -1) rotate(151.000000) translate(-285.032273, -62.611668) "></path>
                    <path d="M325.138768,87.2111288 C317.762657,91.1323749 312.671493,88.3952899 310.044981,85.8154068 C314.33214,85.4204431 316.933781,85.7966421 322.064643,83.314832 C327.18378,80.7946708 329.493791,73.3404077 332.218265,74.2380475 C334.942738,75.1356872 332.460743,83.1128122 325.138768,87.2111288 Z" id="Path-Copy-93" fill="#000000" transform="translate(321.669581, 81.669402) scale(1, -1) rotate(151.000000) translate(-321.669581, -81.669402) "></path>
                    <path d="M177.203285,195.935148 C169.615815,193.16055 163.271398,189.438699 157.809065,184.555405 C151.897296,179.27271 148.045444,173.493061 146.360703,167.37834 C144.656589,161.193635 145.426314,154.563581 148.214628,149.632217 C146.061078,149.185454 143.74803,149.087901 141.348452,148.986107 C137.00067,148.802312 132.504367,148.612154 128.367743,146.28856 C124.688304,144.222279 122.0046,140.837622 119.354474,137.257152 C113.56927,129.44374 107.071167,120.208744 103.172821,109.460973 C102.341751,107.168482 101.629497,104.678766 102.047938,102.006668 C102.529662,98.929514 104.391982,96.6066268 105.752561,94.9100568 C109.26669,90.5265439 113.591871,86.0447713 119.025145,86.0447713 C119.45069,86.0447713 119.8814,86.0730475 120.304361,86.1295998 C122.244816,86.3854991 123.994777,87.2359049 125.538747,87.9859302 C127.022662,88.7069725 128.424568,89.3884281 129.654707,89.3884281 C129.807102,89.3884281 129.95756,89.3785315 130.102852,89.3573243 C131.431144,89.1721154 132.775579,88.0509654 134.270472,86.7156234 L135.326261,85.7711994 C144.452534,77.6036284 133.203396,83.9997678 144.888101,80.744474 C146.126634,80.3987978 132.248975,80.6667742 132.464007,80.5034794 C132.429137,80.3988575 146.767856,79.689066 146.664537,79.460736 C145.830239,77.623492 144.620118,75.8682489 143.33832,74.0105047 C141.113092,70.7849008 161.286365,54.0439883 158.864208,47.8655829 C158.829338,47.9306181 158.793822,47.9956532 158.759598,48.0592746 C158.63949,48.2833632 158.519382,48.5060381 158.395399,48.7237646 C155.395281,54.0234253 150.450833,56.7209717 145.668467,59.3294481 C143.819061,60.3382004 142.072329,61.2911073 140.445704,62.3811535 C139.22848,63.1976279 138.060333,64.1095343 136.822445,65.0744585 C134.758653,66.6840793 132.62383,68.3495456 130.184861,69.593697 C126.402104,71.5249592 122.217695,72.3866754 116.617173,72.3866754 C114.215012,72.3866754 111.772815,72.2304496 109.41069,72.0805859 C107.100225,71.9335499 104.710979,71.7808585 102.41472,71.7808585 C100.504615,71.7808585 98.8308509,71.8861873 97.2972132,72.1003792 C96.4932643,72.212777 95.6906067,72.36052 94.8414558,72.5174527 C93.0198172,72.8532322 91.1361873,73.1996153 89.1550503,73.1996153 L88.9658479,73.1989084 C80.8579093,73.1091315 59.6619568,76.7845969 53.733398,71.1159322 C46.9408362,64.6208965 47.4043843,69.5851923 41.9814416,61.6954347 C38.2329084,56.2409619 37.2909658,55.4643723 38.5243334,47.542804 C38.8872405,45.2086063 40.0043744,44.2139921 40.919391,43.7912634 C40.7266062,42.8440845 64.2891435,35.9287452 67.3441496,46.0403028 L76.891245,53.2541833 C77.3012913,54.6100256 86.46618,52.7608944 87.1777878,53.6367487 C89.0640007,55.9575151 95.0648826,57.2101494 99.7536164,57.2101494 C100.29152,57.2101494 100.795199,57.1924768 101.249155,57.1592523 C101.441586,57.1451142 101.667596,57.0765445 101.730879,57.0539235 C102.001445,56.9500086 102.195813,56.762679 102.269428,56.6919886 C102.45863,56.5110211 122.126645,38.7726743 138.289571,30.2792204 C144.466741,27.0338233 151.852379,22.8604867 164.383644,27.7335606 C176.91491,32.6066345 184.200361,38.5181346 186.011022,48.8368151 C186.753626,53.0754126 184.059776,58.3708861 182.517743,61.713836 C176.215946,75.3754664 165.439155,94.4873281 149.884518,107.955267 C147.246015,110.239274 144.021824,112.692939 140.113147,113.565258 C139.236875,113.761778 138.334773,113.860744 137.433317,113.860744 C133.765502,113.860744 130.528396,112.27021 128.55178,109.496318 C128.425214,109.318885 128.29994,109.132262 128.173375,108.944226 C128.092011,108.823345 127.993213,108.676309 127.895706,108.537756 C127.86471,108.570273 127.832423,108.606325 127.797553,108.645205 C124.171065,112.681628 121.393728,119.291889 123.867566,124.266374 C126.17222,128.900838 131.607431,129.400619 133.837179,129.400619 C135.814442,129.400619 137.864027,129.060598 139.765092,128.418729 C140.462494,128.18333 141.156667,127.920362 141.852131,127.6581 C144.290453,126.737711 144.259652,123.125392 147.07315,123.125392 L147.226191,123.126099 C153.413047,123.205272 162.113091,130.237983 165.460619,133.457931 C170.514197,138.318605 175.900978,144.160461 175.842861,151.992252 C175.804117,157.22405 172.254963,161.906195 169.875403,165.956049 C168.540654,168.227332 167.276937,170.377734 166.479445,172.624276 C166.706747,172.689311 166.942442,172.745863 167.085151,172.780502 C175.019385,174.684195 181.355407,182.163241 182.493851,190.967733 C182.893565,194.060439 181.383174,195.361849 180.715477,195.777509 C180.174345,196.116116 179.568639,196.287894 178.917085,196.287894 C178.257137,196.287894 177.680489,196.109754 177.203285,195.935148 Z" id="Fill-1" stroke="#000000" stroke-width="5.49376223" fill="#000000" transform="translate(112.075660, 110.897054) scale(-1, 1) rotate(303.000000) translate(-112.075660, -110.897054) "></path>
                    <path d="M82.3672163,48.7710834 C82.3672163,48.7710834 81.8351247,48.9739649 81.2339388,49.0184999 C76.848058,49.3429689 68.1350591,48.3405787 65.0587434,44.5551068 C64.0087667,43.262179 63.487007,41.5705573 62.9904313,39.9284189 C62.2084375,37.3411495 61.4264438,34.7524664 60.6450958,32.1644901 C58.0356517,23.5289485 42.6192034,42.1685982 49.2845539,48.5413395 C54.6480883,53.6699294 61.3592866,59.3272837 68.8034022,59.4092846 C71.4851694,59.4396814 74.1197974,58.7066218 76.7796094,58.3340833 C87.5163643,56.8297912 99.0945212,61.0775784 108.90399,56.0698692 C112.504003,54.2319183 115.520265,51.2791795 118.907828,49.0078963 C124.861571,45.0167152 132.333453,42.7687599 136.010955,36.2723104 C136.610849,35.2140748 137.12034,34.0285965 138.054083,33.3174509 C138.98718,32.6063053 140.532441,32.6614438 141.018685,33.7875422 C141.2363,34.2908579 141.193036,34.8747608 141.188515,35.4310944 C141.143959,41.9480441 146.825844,46.5620078 149.475325,52.3982088 C149.781406,53.0718885 150.05391,53.8070688 149.979003,54.5556804 C149.789801,56.447356 147.708574,57.2115194 146.023833,57.6809038 C134.452779,60.9043869 124.964244,69.6784817 115.714633,77.9443124 C114.083488,79.4019489 112.330298,80.9076548 110.241968,81.2003131 C106.619355,81.7085772 103.431326,78.4539904 99.8054833,77.9747093 C94.8933227,77.3250644 90.7683218,81.7418017 87.5047409,85.8135699 C86.1525568,87.5002433 84.7512963,89.3106249 84.4045328,91.5225281 C84.0907021,93.5294291 84.6983455,95.5631925 85.3847694,97.455575 C89.0067372,107.442717 94.9914755,116.167329 101.171874,124.515161 C103.53077,127.701885 106.02398,130.938799 109.357947,132.810681 C116.360375,136.743896 125.236101,133.738139 132.44775,137.188539 C127.985025,141.678087 126.893721,149.247617 128.644328,155.599858 C130.394935,161.953513 134.558035,167.207225 139.253226,171.403409 C144.806609,176.366583 151.066433,179.816982 157.83252,182.291147 C158.294871,182.460804 158.825025,182.623392 159.248632,182.35901 C159.821405,182.002023 159.839486,181.116272 159.747145,180.401592 C158.767554,172.822872 153.172844,166.21968 146.342829,164.581076 C145.232153,164.314573 143.877386,163.965363 143.562264,162.769988 C143.405994,162.174774 143.57647,161.539974 143.771484,160.958899 C146.054183,154.179688 151.929145,148.727336 151.982096,141.502068 C152.031818,134.815461 147.066706,129.528525 142.478708,125.115322 C138.737924,121.51718 134.538663,117.716156 129.559991,117.652535 C126.376482,117.612241 123.378947,119.132085 120.336855,120.159217 C113.572706,122.443931 104.794487,121.462748 101.409507,114.656675 C98.3583751,108.520039 101.291982,100.681179 105.766975,95.699625 C106.347497,95.0542215 107.051356,94.3925591 107.877906,94.4356803 C109.022807,94.4964741 109.694379,95.8056606 110.399529,96.7953265 C112.435554,99.6526332 116.164715,100.558177 119.408278,99.8336007 C122.651195,99.1090239 125.496335,97.0236565 128.092864,94.7757012 C141.554005,83.1202649 152.339191,66.1361848 160.022877,49.4772807 C161.418326,46.4524376 162.757595,43.1137291 162.173844,39.7835035 C160.718341,31.486569 152.649793,26.6195337 146.32604,23.2546697 C141.145896,20.4984503 138.965871,18.1854598 136.025807,17.5852981 C133.759898,17.1229828 129.118949,16.6649089 119.21843,21.8670168 C103.995058,29.8656377 84.9889295,46.700561 83.7988267,47.8415044 C83.6670953,47.9680402 83.1653536,48.4657008 82.3672163,48.7710834 Z" id="Fill-4" fill="#000000" transform="translate(104.970575, 99.910233) scale(-1, 1) rotate(303.000000) translate(-104.970575, -99.910233) "></path>
                    <path d="M131.424382,35.1990899 C138.593411,30.793663 140.851395,28.9787744 142.810577,28.0237468 C147.991366,25.4993919 163.650787,30.6109968 165.227044,32.1202372 C166.59408,33.4308376 166.43329,34.4805903 164.84089,35.3331167 C164.324296,35.6097519 163.161174,37.3484643 161.351524,40.549254 C153.839285,44.5364283 148.439438,46.4842859 145.151984,46.3928268 C137.119254,46.169351 129.568909,36.3390935 131.424382,35.1990899 Z" id="Fill-6" fill="#C4C3C6" transform="translate(148.646929, 36.865274) scale(-1, 1) rotate(308.000000) translate(-148.646929, -36.865274) "></path>
                    <path d="M146.940186,35.9282868 C145.447514,33.6862347 143.707178,31.9145176 141.884579,30.5091526 C134.732299,24.9941886 126.313221,25.1208698 126.622785,24.6053928 C131.520175,19.9416321 137.61665,18.5213888 144.912211,20.3446627 C155.855552,23.0795736 164.773555,29.5452756 164.402894,34.0472291 C164.353889,34.6424384 161.116801,30.347272 146.940186,35.9282868 Z" id="Path-Copy-2" fill="#FFFFFF" transform="translate(145.514270, 27.752132) scale(-1, 1) rotate(308.000000) translate(-145.514270, -27.752132) "></path>
                    <path d="M179.485939,112.351645 C179.174265,111.889304 189.166061,116.682574 193.248023,120.763786 C195.120858,122.636036 196.481822,124.945196 197.349494,127.419151 C198.662151,131.163144 200.119729,134.895947 200.45277,139.000047 C200.779773,143.02531 197.702044,145.713904 194.18026,144.319762 C191.606506,143.300985 189.673752,141.135257 187.315522,139.731959 C186.613209,138.959865 185.910896,138.188789 185.208583,137.417204 C175.838829,126.012776 175.684836,124.139727 173.801433,119.600624 C172.954236,117.558835 173.486079,115.309679 173.584653,114.954773 C173.716104,114.481243 173.630173,113.887677 174.109065,113.637941 C174.671566,113.344973 174.973951,113.911582 175.202017,114.283896 C176.597817,116.556435 181.021507,123.6894 181.485999,123.180774 C182.704364,124.624254 188.037786,131.473371 189.156284,133.003826 C189.658401,133.493124 183.90229,122.732675 183.34397,122.163523 C182.678966,121.162143 180.661269,116.638415 179.776456,114.129632 C179.257736,112.658861 179.73812,112.725722 179.485939,112.351645 Z" id="Fill-8" fill="#C4C3C6" transform="translate(186.903029, 128.506211) scale(-1, 1) rotate(267.000000) translate(-186.903029, -128.506211) "></path>
                    <path d="M194.514244,122.186507 C196.366292,124.081397 197.71215,126.41848 198.570192,128.92235 C199.612163,131.963981 200.746473,134.998316 201.323852,138.225566 C199.236729,137.476818 194.868347,128.902008 190.232165,124.117946 C187.20235,120.99149 181.805062,117.370133 181.504758,116.911084 C181.107583,115.879177 180.220891,113.108936 181.285003,113.214389 C184.006801,113.484119 191.612178,119.216929 194.514244,122.186507 Z" id="Path" fill="#FFFFFF" transform="translate(191.051912, 125.718513) scale(-1, 1) rotate(267.000000) translate(-191.051912, -125.718513) "></path>
                    <path d="M189.760672,133.831882 C186.888608,132.087928 183.929391,130.731355 181.234886,128.216567 C179.998658,127.062938 178.977649,125.532747 178.197181,123.82656 C177.249281,121.753891 176.252747,119.697044 175.530515,117.437465 C176.746499,117.738266 180.186854,123.417732 183.286662,126.334863 C185.312434,128.241251 188.672243,130.23344 188.892088,130.529887 C190.119637,133.013877 189.654739,132.497219 189.906296,132.623591 C190.55428,132.948648 190.805891,133.614917 190.815784,134.441267 C190.507647,134.096643 190.105537,134.041269 189.760672,133.831882 Z" id="Path-Copy-66" fill="#FFFFFF" transform="translate(183.173150, 125.939366) scale(-1, 1) rotate(267.000000) translate(-183.173150, -125.939366) "></path>
                    <path d="M45.2570261,105.038636 C44.3400722,107.049071 43.2997816,108.754831 43.4799437,111.223341 C43.5755135,112.541717 45.0380342,117.074673 44.417476,117.434487 C44.289619,117.508712 40.4485204,114.894587 39.1546124,113.810408 C30.5861487,106.630805 30.52119,100.337723 30.52119,100.337723 C29.3833923,93.3351302 31.2303551,89.4812486 32.2003569,85.8279908 C33.9266466,85.9666474 38.8917891,86.4698672 42.3121881,86.6212971 C43.3885331,86.8714035 54.1801182,88.7699903 49.292402,96.9787947 C49.2126762,97.1126922 46.435631,102.455484 45.2570261,105.038636 Z" id="Path" fill="#C4C3C6" transform="translate(40.359301, 101.632013) scale(-1, 1) rotate(303.000000) translate(-40.359301, -101.632013) "></path>
                    <path d="M66.0136362,96.6862823 C62.689052,97.6669938 60.3955099,96.9727452 56.4561234,96.3881837 C53.3785163,95.9308167 51.6583643,82.737734 55.1331028,80.184396 C58.1487187,77.9675445 58.2907273,78.478603 61.0932482,80.197794 C62.8943534,81.3030732 67.8164642,84.0523435 71.5678964,87.9373345 C73.4728628,89.9101217 75.1092552,92.1427325 76.3375698,94.1495144 C76.0213575,94.0521352 75.6738713,94.0001499 75.292182,94.0001499 C70.9666021,94.0001499 67.2977444,95.1262083 66.0136362,96.6862823 Z" id="Path" fill="#C4C3C6" transform="translate(64.774008, 87.943050) scale(-1, 1) rotate(303.000000) translate(-64.774008, -87.943050) "></path>
                    <path d="M58.2994941,90.5519442 C58.0936306,90.5235253 51.0013603,90.1569737 50.816621,90.0785565 C47.3722287,88.6164987 48.9192831,73.9059247 51.3265609,75.1964452 C52.911407,76.0463757 60.4208316,80.7705145 63.8666717,84.9947234 C67.3125118,89.2189323 66.6379896,91.2755122 67.0671734,95.0879477 C65.3469405,93.4175265 63.5574646,92.322181 61.9528775,91.6198569 C60.5309392,90.9974778 59.2541938,90.683738 58.2994941,90.5519442 Z" id="Path" fill="#FFFFFF" transform="translate(57.939585, 85.102149) scale(-1, 1) rotate(303.000000) translate(-57.939585, -85.102149) "></path>
                    <path d="M31.4114835,96.5042435 C39.9766076,100.772244 43.727058,104.621602 42.6628347,108.052315 C41.0664998,113.198386 43.8261546,116.708858 43.5670035,116.907099 C43.5232426,116.940606 40.3974724,115.183229 38.1908365,113.452053 C29.2324107,106.423885 31.5197097,96.2223657 31.4114835,96.5042435 Z" id="Path" fill="#FFFFFF" transform="translate(37.405250, 106.703048) scale(-1, 1) rotate(303.000000) translate(-37.405250, -106.703048) "></path>
                    <path d="M106.457546,27.8155617 L116.97357,23.7121756 C121.102222,22.0113498 124.625783,21.2422171 127.544253,21.4047777 C126.818659,26.1299101 119.664159,42.5621594 111.527879,55.0698958 C105.727331,63.9869602 98.1559426,71.2011977 97.8346849,69.4313562 C97.3277705,66.6387127 102.268896,53.7626574 100.609472,37.9742933 C100.487548,36.8142597 102.436906,33.4280158 106.457546,27.8155617 Z" id="Fill-12" fill="#C4C3C6" transform="translate(112.671123, 45.541882) scale(-1, 1) rotate(303.000000) translate(-112.671123, -45.541882) "></path>
                    <path d="M19.9191979,107.420902 C14.6228207,105.744125 12.229743,98.6894001 10.9576309,94.3115425 C10.5081944,92.7648361 11.4135249,92.2523306 12.8444895,92.9853902 C18.1518443,95.7076783 23.1642316,100.48046 24.340128,107.084359 C24.4692765,107.811763 20.9162238,107.736888 19.9191979,107.420902 Z" id="Fill-14" fill="#C4C3C6" transform="translate(17.592631, 100.153209) scale(-1, 1) rotate(303.000000) translate(-17.592631, -100.153209) "></path>
                    <path d="M108.009301,99.4080059 C108.006072,99.4122473 108.002843,99.4164888 107.999614,99.4207302 C107.997677,99.4242647 107.99574,99.4270923 107.993803,99.4313338 L108.009301,99.4080059 Z" id="Fill-16" fill="#D796A0" transform="translate(108.001552, 99.419670) scale(-1, 1) rotate(303.000000) translate(-108.001552, -99.419670) "></path>
                    <path d="M116.88351,92.4901646 C116.489608,89.5607537 114.821656,85.4069847 111.878363,83.6376035 C110.228492,82.6458169 109.540776,83.2219438 105.342806,81.3755101 C104.252794,80.8969359 103.780756,80.7569689 102.792125,80.305964 C98.7000568,78.4369093 95.3144307,79.4152647 92.2490927,82.755387 C90.3512564,84.8223749 88.2164329,86.6306358 86.6124093,89.0178513 C85.0820004,91.3414453 85.2699114,93.7470403 86.0706317,96.3406718 C88.0023551,102.592917 101.500905,123.950786 107.527551,131.332299 C109.017396,133.15708 110.796066,133.23014 110.963992,133.053034 C111.94552,132.018833 110.708924,131.229221 110.264007,130.392247 C107.311029,124.84729 103.960918,119.572371 101.166792,113.912896 C100.058698,111.669889 99.6195937,109.570384 99.7371187,107.577621 C99.8223567,106.132709 100.962092,104.025427 103.142117,99.8030885 C104.268937,97.6194615 105.007021,96.3470339 106.066683,94.9480705 C106.352747,94.5691699 107.257432,93.3957089 108.649652,92.1204538 C108.649652,92.1204538 110.610125,90.3235033 112.702976,89.8689639 C113.159515,89.7692904 113.581831,89.7487902 113.753598,89.9990343 C113.803966,90.0725523 113.904702,90.2733131 113.723248,90.8183362 C113.413938,91.7436738 112.704267,92.2314377 112.54154,92.4668368 C111.27976,94.2857013 110.898772,95.9483399 111.346917,97.2780267 C111.848013,98.7646462 113.313202,99.3683424 115.117406,100.090092 C116.635545,100.696615 118.754871,101.151862 118.981527,100.603304 C119.095823,100.324784 118.684485,99.8865032 118.485597,99.6496903 C116.873178,97.733273 117.199924,94.8427418 116.88351,92.4901646 Z" id="Fill-18" fill="#C4C3C6" transform="translate(102.231746, 106.242770) scale(-1, 1) rotate(303.000000) translate(-102.231746, -106.242770) "></path>
                    <path d="M130.264545,98.1014583 C127.03595,96.3965748 119.768006,106.521394 118.641186,108.705021 C117.114472,111.662006 105.302249,108.959714 104.494008,106.343749 C103.693288,103.750118 103.505377,101.344523 105.035786,99.0209286 C106.63981,96.6337132 108.774633,94.8254522 110.672469,92.7584644 C113.737807,89.4183421 117.123433,88.4399867 121.215502,90.3090414 C122.204133,90.7600462 122.67617,90.9000133 123.766183,91.3785874 C127.964153,93.2250212 128.651868,92.6488942 130.301739,93.6406808 C130.317064,93.6498935 130.332355,93.6591707 130.34761,93.6685121 C131.119643,95.5661145 131.547971,95.9323497 131.556029,98.1014583 L130.264545,98.1014583 Z" id="Path" fill="#FFFFFF" transform="translate(117.720827, 99.682790) scale(-1, 1) rotate(303.000000) translate(-117.720827, -99.682790) "></path>
                    <path d="M166.266586,94.1253902 C166.995197,95.0778238 169.742237,101.504087 168.89491,103.062499 C167.591507,105.459729 162.089739,102.899613 161.212015,102.304303 C160.234361,102.914361 161.814492,104.207996 160.730291,104.68657 C159.742306,105.124144 159.09398,104.255359 158.601279,103.535023 C157.584881,102.045576 156.590438,100.517249 155.7697,98.8941972 C155.007078,97.3856637 154.481444,95.7336286 153.609047,93.5358634 C156.031347,94.3553106 164.667658,92.0352878 166.266586,94.1253902 Z" id="Fill-22" fill="#C4C3C6" transform="translate(161.332263, 99.015091) scale(-1, 1) rotate(303.000000) translate(-161.332263, -99.015091) "></path>
                    <path d="M158.854208,97.6462985 C158.665539,97.1457543 158.46384,96.615878 158.239135,96.0497962 C160.489657,96.8111319 168.104101,94.8624831 170.455061,96.2585044 C170.874692,97.7126337 171.081777,99.0356261 170.755322,99.6360454 C169.451919,102.033276 163.950152,99.4731593 163.072427,98.8778496 C162.094774,99.4879079 163.674905,100.781543 162.590704,101.260117 C161.602718,101.69769 160.954393,100.828905 160.461692,100.10857 C159.9114,99.3021637 159.367545,98.4843609 158.854208,97.6462985 L158.854208,97.6462985 Z" id="Path" fill="#FFFFFF" transform="translate(164.577513, 98.558831) scale(-1, 1) rotate(303.000000) translate(-164.577513, -98.558831) "></path>
                    <path d="M164.816644,113.071478 C164.028838,111.68948 161.932759,110.870885 163.078306,108.495687 C164.542849,108.991934 163.790559,111.102749 165.523085,111.499323 C165.745867,110.196498 164.688787,107.480572 167.71086,108.375513 C168.484459,108.603843 168.822182,107.258604 168.488979,106.183403 C168.121552,104.997218 167.892313,103.759429 167.94139,102.374603 C169.005958,104.633386 169.215624,102.496903 170.275844,104.758521 C171.099278,106.515034 172.778401,112.666835 173.576136,114.437217 C173.78019,114.890342 173.116368,115.064947 172.685012,115.085448 C170.295766,113.320308 167.367971,114.079523 164.816644,113.071478 Z" id="Fill-24" fill="#C4C3C6" transform="translate(168.178704, 108.730026) scale(-1, 1) rotate(303.000000) translate(-168.178704, -108.730026) "></path>
                    <path d="M58.7148571,165.229033 C46.0176764,166.11118 35.4136676,158.961485 35.0301405,149.259744 C34.6466134,139.558002 44.6288019,130.978066 57.3259826,130.095919 C70.0231632,129.213772 80.6271721,136.363466 81.0106992,146.065208 C81.3942263,155.766949 71.4120377,164.346886 58.7148571,165.229033 Z" id="Oval" fill="#000000" transform="translate(58.020420, 147.662476) scale(-1, -1) rotate(-136.000000) translate(-58.020420, -147.662476) "></path>
                    <path d="M59.6492073,160.012053 C48.0510659,159.102587 39.3280569,151.234371 40.1658215,142.437899 C41.0035861,133.641428 51.0848799,127.247747 62.6830213,128.157213 C74.2811628,129.066678 83.0041718,136.934895 82.1664072,145.731366 C81.3286426,154.527838 71.2473488,160.921519 59.6492073,160.012053 Z" id="Oval-Copy" fill="#C4C3C6" transform="translate(61.166114, 144.084633) scale(-1, -1) rotate(-136.000000) translate(-61.166114, -144.084633) "></path>
                    <path d="M184.070165,175.848255 C165.871172,195.66779 176.545352,203.619535 149.44532,213.435746 C122.345288,223.251956 103.952094,199.884091 82.3116288,214.417297 C79.1298939,212.291144 78.5919177,213.377799 77.3890142,211.046191 C75.3454414,207.085098 76.1215113,202.243349 79.5950496,194.536089 C86.61387,178.962379 77.5947465,155.163463 75.1440052,126.82171 C73.5931581,108.886841 89.03677,96.8285412 88.5016827,94.3052237 C84.5406409,75.6260918 99.2586218,56.3732025 124.018248,40.2813535 C132.507939,34.7637084 145.347738,33.0903078 162.537644,35.2611516 C181.27997,38.5886452 194.37796,42.0689454 201.831615,45.7020522 C213.718484,51.496024 221.221143,61.2099648 224.339592,74.8438746 C229.90039,84.6166565 227.238439,102.58018 216.353739,128.734445 C210.510653,142.774487 202.269158,156.028719 184.070165,175.848255 Z" id="Oval" fill="#000000" transform="translate(151.097272, 125.134214) scale(-1, -1) rotate(-136.000000) translate(-151.097272, -125.134214) "></path>
                    <path d="M179.121536,44.617029 C211.836102,51.2446789 223.422786,63.9627819 213.881587,82.771338 C199.56979,110.984172 226.245322,87.0954596 211.687742,122.06607 C206.477909,134.581272 203.508355,124.145906 180.255299,151.237473 C157.002243,178.32904 164.381223,205.509358 138.220515,207.66094 C131.021976,208.252982 114.826643,206.527231 101.810144,203.154859 C88.7936456,199.782487 82.8768822,209.511242 81.3456037,207.625438 C76.1249355,201.196066 92.0076623,182.610012 89.2301998,174.631085 C82.9912263,156.708136 81.8184821,136.990931 80.7803259,124.981777 C79.3983223,108.995074 93.1673208,98.2460124 92.6903595,95.9968001 C89.9924818,83.2743861 99.9326701,68.0071455 114.620662,55.1125529 C119.440506,50.881211 131.672643,48.7595363 141.688814,45.1081411 C164.023633,44.1414302 176.501207,43.9777261 179.121536,44.617029 Z" id="Path" fill="#C4C3C6" transform="translate(148.698715, 126.052845) scale(-1, -1) rotate(-136.000000) translate(-148.698715, -126.052845) "></path>
                    <path d="M106.341272,162.398012 C97.5804585,163.062022 86.5318504,159.430008 85.1073032,158.179777 C95.7554753,155.413783 117.858664,134.684274 124.689401,132.388998 C108.349163,144.923325 115.102085,161.734002 106.341272,162.398012 Z" id="Path-Copy-77" fill="#000000" transform="translate(104.898352, 147.433691) scale(-1, -1) rotate(-136.000000) translate(-104.898352, -147.433691) "></path>
                    <path d="M86.2725431,157.15593 C70.3407295,153.354949 69.1304124,133.195535 73.2268959,129.489172 C77.3233795,125.782808 75.9536814,143.131788 77.2817173,142.465836 C82.2577236,139.970586 85.5399944,134.626455 87.3199399,134.665481 C123.238235,135.452992 120.259055,121.060451 138.674884,124.626154 C134.93874,125.627125 114.125461,144.12728 110.623482,148.632495 C103.301528,158.05202 94.4959551,159.117855 86.2725431,157.15593 Z" id="Path-Copy-69" fill="#FFFFFF" transform="translate(104.950794, 141.017979) scale(-1, -1) rotate(-136.000000) translate(-104.950794, -141.017979) "></path>
                    <path d="M87.5109651,135.032672 C82.1278626,133.388548 85.9451298,135.974281 87.1528051,133.30694 C87.6022173,132.314343 84.5244919,129.593038 81.9928464,126.763763 C80.6087146,125.216908 77.0494361,122.196595 79.4457605,122.484021 C83.2471006,122.939972 89.7286721,119.954285 95.6696219,120.642333 C98.0826793,120.9218 99.2908037,122.981713 99.8479332,122.823426 C103.974958,121.650894 105.973573,121.438983 107.885059,121.885817 C138.331882,129.003141 135.546357,123.306457 149.738409,128.01702 C146.085603,127.640197 128.415396,131.97988 123.080516,132.690822 C113.986058,133.902775 94.204496,137.077031 87.5109651,135.032672 Z" id="Path-Copy-71" fill="#FFFFFF" transform="translate(114.187769, 128.120719) scale(-1, -1) rotate(-136.000000) translate(-114.187769, -128.120719) "></path>
                    <path d="M89.6362422,150.29254 C78.3621341,146.318888 77.6924299,142.355696 76.4787821,134.740942 C75.7658498,130.267812 73.7636491,122.047403 70.5597737,117.961964 C75.9708201,121.003932 76.754642,123.166244 82.7758237,124.638924 C88.7970054,126.111604 90.4407944,125.502382 93.9340998,124.919544 C92.8713869,124.281621 92.5041575,122.619914 92.7367472,120.717067 C94.5570063,124.489524 104.552625,126.283164 106.295308,126.444166 C129.839941,128.619386 125.928506,122.256848 144.336144,124.501713 C140.437163,124.912343 118.393536,139.95487 113.630292,143.644713 C105.510312,149.934848 97.4152329,153.034309 89.6362422,150.29254 Z" id="Path-Copy-10" fill="#000000" transform="translate(107.447959, 134.628520) scale(-1, -1) rotate(-136.000000) translate(-107.447959, -134.628520) "></path>
                    <path d="M141.863769,147.584342 C144.178184,151.701726 140.456885,155.257068 137.308884,157.27138 C138.001434,154.570203 138.950864,152.87284 137.802181,149.907889 C136.653498,146.942937 135.574487,146.337214 132.293984,144.327044 C135.44033,143.883459 139.549355,143.466959 141.863769,147.584342 Z" id="Path-Copy-70" fill="#000000" transform="translate(137.439665, 150.663970) scale(-1, -1) rotate(-136.000000) translate(-137.439665, -150.663970) "></path>
                    <path d="M188.51167,135.132491 C196.994793,133.83383 198.865071,137.337698 212.086887,114.579066 C215.905158,108.0067 216.262452,118.895712 214.240009,132.811515 C211.989409,148.297193 204.522781,172.753673 199.308886,179.630636 C195.765945,184.303661 154.265182,213.391983 180.137068,179.444274 C206.008954,145.496566 191.228995,141.913926 188.51167,135.132491 Z" id="Path" fill="#000000" transform="translate(193.574316, 154.146954) scale(-1, -1) rotate(-136.000000) translate(-193.574316, -154.146954) "></path>
                    <path d="M114.302346,106.85426 C119.086192,108.908021 113.589361,115.033636 110.734272,117.17238 C109.220566,113.595778 109.5185,104.800498 114.302346,106.85426 Z" id="Path-Copy-79" fill="#000000" transform="translate(113.055042, 111.859877) scale(-1, -1) rotate(-136.000000) translate(-113.055042, -111.859877) "></path>
                    <path d="M117.836297,109.980077 C120.295579,102.652668 130.469421,111.39891 132.685721,115.89193 C127.135014,117.127305 115.377016,117.307485 117.836297,109.980077 Z" id="Path-Copy-81" fill="#000000" transform="translate(125.094171, 111.851831) scale(-1, -1) rotate(-136.000000) translate(-125.094171, -111.851831) "></path>
                    <path d="M109.596752,100.332074 C110.302294,94.7873317 118.019583,99.6829058 120.313146,103.156357 C116.998847,104.489495 108.891211,105.876816 109.596752,100.332074 Z" id="Path-Copy-86" fill="#000000" transform="translate(114.933311, 101.089823) scale(-1, -1) rotate(-125.000000) translate(-114.933311, -101.089823) "></path>
                    <path d="M107.508572,97.8404769 C105.132874,95.5003113 104.267077,91.6072771 110.314972,88.0571102 C108.705428,97.633757 115.548562,99.8987494 120.903952,99.7398961 C113.381256,100.853443 108.928355,99.2390247 107.508572,97.8404769 Z" id="Path-Copy-83" fill="#000000" transform="translate(113.306935, 94.084160) scale(-1, -1) rotate(-125.000000) translate(-113.306935, -94.084160) "></path>
                    <path d="M114.764147,94.4993355 C114.653438,94.5184505 114.539833,94.5300837 114.423632,94.5337934 C112.772998,94.5864897 111.223671,93.0204239 110.963114,91.0358877 C110.708971,89.1002105 111.774789,87.4813697 113.359119,87.3539324 C113.241507,88.2475286 113.240496,89.2372131 113.376825,90.2755567 C113.586712,91.8741623 114.089255,93.3376962 114.764147,94.4993355 L114.764147,94.4993355 Z" id="Path" fill="#FFFFFF" transform="translate(112.844906, 90.944509) scale(-1, -1) rotate(-125.000000) translate(-112.844906, -90.944509) "></path>
                    <path d="M163.969921,115.148537 C171.021232,114.941183 179.426534,115.065163 186.024658,119.892665 C192.622783,124.720167 187.159455,131.975766 183.288905,135.025485 C176.142051,140.656698 171.305551,131.620615 153.520644,133.923482 C136.813617,136.086781 148.736069,115.596511 163.969921,115.148537 Z" id="Path-Copy-74" fill="#FFFFFF" transform="translate(167.260306, 125.998973) scale(-1, -1) rotate(-136.000000) translate(-167.260306, -125.998973) "></path>
                    <path d="M219.48101,51.3738243 C210.951372,57.4730739 195.97487,74.3103309 194.421197,76.0561822 C192.886212,71.8321292 193.284173,66.903421 195.615079,61.2700575 C196.138295,60.0281347 196.492903,59.1755667 196.678904,58.7123534 C197.268032,57.2451999 197.520054,56.4813951 197.434969,56.420939 C192.963213,53.2435578 161.686355,82.4501533 155.503879,80.6762275 C149.061387,78.8276959 153.465563,69.3821781 161.654076,62.051383 C175.355771,49.7848916 222.649614,42.311912 219.48101,51.3738243 Z" id="Path-Copy-89" fill="#000000" transform="translate(186.024157, 64.058607) scale(-1, -1) rotate(-136.000000) translate(-186.024157, -64.058607) "></path>
                    <path d="M195.25971,67.6173169 C193.724725,63.3932639 189.075038,61.9628458 185.551843,63.3284713 C181.477986,64.9075388 177.301146,66.7824802 173.13381,69.0247369 C148.045939,82.5233965 165.23904,61.6641373 175.723384,55.6312745 C183.906571,50.9225345 196.33484,48.301206 206.716071,47.6404237 C207.003215,49.6417846 197.845156,58.3034371 195.25971,67.6173169 Z" id="Path" fill="#FFFFFF" transform="translate(183.442120, 60.563961) scale(-1, -1) rotate(-136.000000) translate(-183.442120, -60.563961) "></path>
                    <path d="M248.045712,92.063703 C246.277403,100.846865 214.957798,86.2497238 193.20065,100.99397 C171.443503,115.738216 188.243682,92.576958 195.239711,86.3523705 C211.469643,71.912088 252.305228,84.41103 248.045712,92.063703 Z" id="Path-Copy-88" fill="#FFFFFF" transform="translate(215.395217, 92.767520) scale(-1, -1) rotate(-136.000000) translate(-215.395217, -92.767520) "></path>
                    <path d="M119.238625,72.9611878 C123.105889,71.2642971 128.735539,71.9444507 132.87705,74.6400139 C135.306493,76.2212524 137.3491,79.6967467 120.366729,84.6803733 C119.300557,84.993251 115.395399,86.8617094 113.158097,86.5508663 C108.392071,85.9537238 112.767598,75.8005652 119.238625,72.9611878 Z" id="Path-Copy-84" fill="#FFFFFF" transform="translate(122.817137, 79.310568) scale(-1, -1) rotate(-136.000000) translate(-122.817137, -79.310568) "></path>
                    <path d="M148.812473,100.184759 C149.842173,101.730085 152.026356,104.438851 149.053428,106.048651 C146.0805,107.658452 141.530509,108.565288 136.759909,107.130737 C131.98931,105.696186 133.76133,103.393767 138.39498,100.818223 C141.853578,98.8958131 147.147673,91.9186101 154.277264,79.8866137 C157.246457,71.6287472 159.242069,66.7155691 160.264101,65.1470793 C162.198054,62.1790854 163.201775,84.3816486 151.315962,95.4714429 C151.118903,95.6553045 147.782773,98.639432 148.812473,100.184759 Z" id="Path" fill="#FFFFFF" transform="translate(147.691402, 86.361727) scale(-1, -1) rotate(-136.000000) translate(-147.691402, -86.361727) "></path>
                    <path d="M65.5578773,136.864066 C72.1691129,137.486962 79.7933605,141.201382 86.9994702,148.369714 C94.2055798,155.538046 78.0860852,153.41295 65.2402706,150.920445 C52.3944559,148.427939 51.7821337,155.453262 48.9384865,153.335139 C42.8314266,148.911436 54.4954122,135.821785 65.5578773,136.864066 Z" id="Path-Copy-76" fill="#FFFFFF" transform="translate(68.019525, 145.272101) scale(-1, -1) rotate(-136.000000) translate(-68.019525, -145.272101) "></path>
                    <path d="M127.221285,180.021637 C123.403093,183.768854 113.464782,184.199316 108.337423,181.868609 C110.581482,181.074414 117.367274,178.511723 121.225677,174.605376 C124.989771,170.794511 125.828128,165.678015 127.964783,161.795404 C127.399772,163.108747 129.132559,168.170855 129.468647,170.244722 C130.041582,173.780076 129.503143,177.782196 127.221285,180.021637 Z" id="Path-Copy-80" fill="#000000" transform="translate(119.008903, 172.550107) scale(-1, -1) rotate(-136.000000) translate(-119.008903, -172.550107) "></path>
                    <path d="M64.9111368,110.617691 C65.8652566,116.834078 70.9427051,123.415453 74.3909555,125.185432 C70.808111,126.271085 63.9577788,129.593866 59.9422586,139.509807 C60.5856977,138.558805 59.0465095,134.091123 59.1428211,132.572931 C59.3070051,129.984844 64.6320248,108.79919 64.9111368,110.617691 Z" id="Path-Copy-78" fill="#000000" transform="translate(66.764710, 125.008482) scale(-1, -1) rotate(-136.000000) translate(-66.764710, -125.008482) "></path>
                    <path d="M166.007542,118.551389 C166.335601,108.159328 174.42852,99.8409895 184.364008,99.8409895 C194.230464,99.8409895 202.279866,108.044136 202.712514,118.335075 C197.383796,116.000576 191.198884,114.664682 184.602538,114.664682 C177.805069,114.664682 171.444505,116.083281 166.007542,118.551389 L166.007542,118.551389 Z" id="Path" fill="#FFFFFF" transform="translate(184.360028, 109.196189) scale(-1, -1) rotate(-136.000000) translate(-184.360028, -109.196189) "></path>
                    <path d="M160.49358,117.517115 C161.211177,113.292609 169.579931,109.959221 179.798161,109.959221 C189.648602,109.959221 197.780308,113.056968 198.995789,117.064529 C193.64048,116.199236 187.521521,115.708595 181.023046,115.708595 C173.465103,115.708595 166.420512,116.372259 160.49358,117.517115 L160.49358,117.517115 Z" id="Path" fill="#FFFFFF" transform="translate(179.744684, 113.738168) scale(-1, -1) rotate(-136.000000) translate(-179.744684, -113.738168) "></path>
                    <path d="M126.186194,81.5258195 C126.305571,77.6628375 131.94859,74.2077019 139.115752,73.7065251 C146.113641,73.217185 152.064593,75.7187312 152.952246,79.3823981 C149.107661,78.8365008 144.710929,78.6796827 140.065192,79.0045442 C134.925276,79.3639622 130.169247,80.2648275 126.186194,81.5258195 L126.186194,81.5258195 Z" id="Path" fill="#FFFFFF" transform="translate(139.569220, 77.585629) scale(-1, -1) rotate(-136.000000) translate(-139.569220, -77.585629) "></path>
                    <path d="M134.298223,80.7089638 C135.792455,71.7512322 142.619324,65.1935168 150.308905,65.7312247 C157.816239,66.2561886 163.568034,73.3639712 164.053294,82.1487868 C159.962353,79.9548068 155.206358,78.5396878 150.073808,78.1807849 C144.391762,77.7834576 138.986568,78.7322423 134.298223,80.7089638 Z" id="Path" fill="#FFFFFF" transform="translate(149.175759, 73.924595) scale(-1, -1) rotate(-136.000000) translate(-149.175759, -73.924595) "></path>
                    <path d="M149.893611,67.3950226 C155.724478,67.8037169 162.792427,75.4960888 161.286385,79.4999619 C160.197523,82.3947461 151.779141,81.2563852 148.926997,81.0564741 C142.129958,80.5800592 135.672455,81.4815493 130.058026,83.4466152 C133.739607,72.0767302 140.351469,66.7261993 149.893611,67.3950226 Z" id="Path-Copy-73" fill="#000000" transform="translate(145.775010, 75.392951) scale(-1, -1) rotate(-136.000000) translate(-145.775010, -75.392951) "></path>
                    <path d="M163.88652,117.842901 C164.481925,109.577177 172.675481,103.027774 182.695733,103.027774 C192.503402,103.027774 200.561061,109.302229 201.456847,117.319184 C196.112017,115.525664 189.959176,114.504181 183.411323,114.504181 C176.25058,114.504181 169.562256,115.725839 163.88652,117.842901 L163.88652,117.842901 Z" id="Path" fill="#000000" transform="translate(182.671683, 110.435338) scale(-1, -1) rotate(-136.000000) translate(-182.671683, -110.435338) "></path>
                    <path d="M121.506211,82.9581132 C131.878095,83.0906903 135.637647,82.1954674 139.385157,80.3568117 C143.132666,78.5181561 146.886197,77.1512168 149.183231,72.4641843 C151.111177,75.7903038 148.508538,78.6160743 141.180369,87.0603011 C133.8522,95.5045278 125.270394,95.8500525 122.444622,102.859727 C122.289827,102.142037 121.692869,97.5813206 129.151761,91.0737111 C136.610652,84.5661017 127.695264,87.7536179 121.506211,82.9581132 Z" id="Path-Copy-82" fill="#000000" transform="translate(135.651445, 87.661956) scale(-1, -1) rotate(-136.000000) translate(-135.651445, -87.661956) "></path>
                    <path d="M162.866483,103.131944 C170.951,104.569729 176.718825,105.656156 180.169958,106.391225 C161.70103,105.948626 151.891498,109.06246 150.741362,115.732728 C150.318323,119.231877 153.067952,121.880818 158.99025,123.679551 C166.596697,129.277976 165.974562,132.494546 157.123844,133.329259 C143.847767,134.581329 141.76082,139.166289 140.78167,139.286799 C144.231513,135.637343 144.267253,131.007322 142.527369,126.851598 C140.787485,122.695875 138.416015,121.350764 132.712147,120.440339 C133.023917,120.829535 141.142415,117.335303 144.1288,112.354582 C147.501446,106.729654 152.079798,96.3881974 152.751471,96.6541545 C153.321625,96.8799139 150.739708,100.975266 162.866483,103.131944 Z" id="Path" fill="#000000" transform="translate(156.441053, 117.967961) scale(-1, -1) rotate(-136.000000) translate(-156.441053, -117.967961) "></path>
                    <path d="M138.919197,116.163905 C137.526842,108.267467 131.372427,107.553669 129.450697,106.088925 C134.616225,107.152298 139.265757,107.589535 141.861611,111.302705 C144.616147,115.242856 145.823801,121.459994 137.152976,124.617284 C137.927364,122.852349 139.75461,120.901767 138.919197,116.163905 Z" id="Path" fill="#FFFFFF" transform="translate(136.673587, 115.353104) scale(-1, -1) rotate(-136.000000) translate(-136.673587, -115.353104) "></path>
                    <path d="M195.924809,97.7330612 C204.939822,96.9289911 207.794084,101.936695 208.515054,105.810289 C204.506511,104.133759 202.430881,102.567614 196.385556,102.630299 C190.34023,102.692983 188.377424,103.547508 182.122474,106.083955 C184.078156,102.785443 186.909795,98.5371314 195.924809,97.7330612 Z" id="Path-Copy-70" fill="#000000" transform="translate(195.318764, 101.865564) scale(-1, -1) rotate(-136.000000) translate(-195.318764, -101.865564) "></path>
                    <path d="M163.162484,64.8462743 C170.215798,66.9061781 170.364273,72.3874625 169.368332,76.1659352 C167.037869,73.3833766 166.107684,71.3019904 161.566616,69.4833654 C157.025549,67.6647405 155.220684,67.8397699 149.543016,68.226213 C152.31076,65.8061724 156.109169,62.7863706 163.162484,64.8462743 Z" id="Path-Copy-93" fill="#000000" transform="translate(159.677443, 70.163906) scale(-1, -1) rotate(-136.000000) translate(-159.677443, -70.163906) "></path>
                    <path d="M185.750702,161.027822 C179.609883,165.536314 168.892606,171.718218 159.589134,174.361789 C168.141937,166.343536 167.932538,164.194024 180.380036,155.882533 C192.827534,147.571041 187.893365,136.821751 194.869447,135.339624 C198.076748,146.565178 196.026027,153.483841 185.750702,161.027822 Z" id="Path-Copy-91" fill="#FFFFFF" transform="translate(177.925508, 154.850706) scale(-1, -1) rotate(-156.000000) translate(-177.925508, -154.850706) "></path>
                </g>
            </g>
            <g id="Group-35-Copy" transform="translate(294.457409, 227.708466) rotate(-46.000000) translate(-294.457409, -227.708466) translate(224.698608, 159.286040)">
                <g id="Group-3" transform="translate(69.529520, 68.296340) scale(-1, -1) rotate(131.000000) translate(-69.529520, -68.296340) translate(27.300055, 12.970395)"></g>
            </g>
            <g id="Group-99" transform="translate(286.409896, 162.770535) scale(-1, 1) rotate(-3.000000) translate(-286.409896, -162.770535) translate(210.503768, 71.095176)">
                <g id="Group-93" transform="translate(0.000000, -0.000000)">
                    <g id="Group-94" transform="translate(0.229908, 0.375300)">
                        <g id="Group-22" transform="translate(1.740776, 143.516431)"></g>
                        <g id="Group-28" transform="translate(15.094505, 36.855490)">
                            <g id="Group-29" transform="translate(46.089148, 80.727496) scale(1, -1) rotate(-11.000000) translate(-46.089148, -80.727496) translate(5.463333, 49.189035)">
                                <g id="Group-32" transform="translate(31.287951, 27.540765) rotate(-2.000000) translate(-31.287951, -27.540765) translate(1.353140, 3.486006)"></g>
                            </g>
                        </g>
                        <g id="Group-24" transform="translate(37.929538, 66.642165) rotate(6.000000) translate(-37.929538, -66.642165) translate(21.625757, 38.845555)">
                            <g id="Group-25" transform="translate(16.222177, 27.814892) rotate(5.000000) translate(-16.222177, -27.814892) translate(2.591147, 1.621932)"></g>
                        </g>
                        <g id="Group-33" transform="translate(87.983852, 18.870635) rotate(5.000000) translate(-87.983852, -18.870635) translate(36.132483, 4.972330)"></g>
                        <g id="Group-30" transform="translate(87.831793, 53.739530) scale(1, -1) rotate(-17.000000) translate(-87.831793, -53.739530) translate(68.855261, 40.375775)"></g>
                        <g id="Group-31" transform="translate(40.781658, 49.815945) rotate(-187.000000) translate(-40.781658, -49.815945) translate(23.408776, 36.452190)"></g>
                    </g>
                </g>
            </g>
            <g id="Group-3" transform="translate(155.708624, 244.323934) scale(1, -1) rotate(157.000000) translate(-155.708624, -244.323934) translate(81.406147, 158.795902)"></g>
            <g id="Group-5" transform="translate(139.783215, 160.037901) scale(1, -1) rotate(162.000000) translate(-139.783215, -160.037901) translate(116.797557, 149.346897)"></g>
            <g id="Group-8" transform="translate(227.351029, 217.223932) scale(1, -1) rotate(121.000000) translate(-227.351029, -217.223932) translate(213.452724, 200.652876)"></g>
            <g id="Group-94" transform="translate(194.977216, 238.300502) rotate(10.000000) translate(-194.977216, -238.300502) translate(118.536538, 143.150567)">
                <g id="Group-22" transform="translate(2.238957, 151.088471)"></g>
                <g id="Group-28" transform="translate(14.385276, 40.712092)"></g>
                <g id="Group-24" transform="translate(30.022257, 95.411316) rotate(6.000000) translate(-30.022257, -95.411316) translate(19.063978, 87.927614)">
                    <g id="Group-25" transform="translate(11.068119, 7.593398) rotate(5.000000) translate(-11.068119, -7.593398) translate(0.911666, 1.178795)"></g>
                </g>
                <g id="Group-20" transform="translate(49.389807, 132.924139) rotate(3.000000) translate(-49.389807, -132.924139) translate(11.802854, 111.010315)"></g>
            </g>
            <g id="Group-91" transform="translate(163.678663, 194.180180) rotate(14.000000) translate(-163.678663, -194.180180) translate(147.697156, 183.181956)"></g>
        </g>
    </g>
</svg>