<?xml version="1.0" encoding="UTF-8"?>
<svg width="1310px" height="800px" viewBox="0 0 1310 800" version="1.1" xmlns="http://www.w3.org/2000/svg" xmlns:xlink="http://www.w3.org/1999/xlink">
    <!-- Generator: Sketch 61 (89581) - https://sketch.com -->
    <title>Earn Monero on Sparta Testnet</title>
    <desc>Created with Sketch.</desc>
    <g id="Earn-Monero-on-Sparta-Testnet" stroke="none" stroke-width="1" fill="none" fill-rule="evenodd">
        <rect fill="#000000" x="0" y="0" width="1310" height="800"></rect>
        <g id="Group" transform="translate(230.000000, -80.000000)">
            <g id="Group-Copy-2" transform="translate(360.000000, 240.000000) rotate(-270.000000) translate(-360.000000, -240.000000) translate(120.000000, -120.000000)">
                <g id="Group-2" transform="translate(-0.000000, 0.000000)">
                    <path d="M328.888889,631.111111 L328.888889,640 L320,640 L320,631.111111 L328.888889,631.111111 Z M346.666667,631.111111 L346.666667,640 L337.777778,640 L337.777778,631.111111 L346.666667,631.111111 Z M364.444444,631.111111 L364.444444,640 L355.555556,640 L355.555556,631.111111 L364.444444,631.111111 Z M382.222222,631.111111 L382.222222,640 L373.333333,640 L373.333333,631.111111 L382.222222,631.111111 Z M400,631.111111 L400,640 L391.111111,640 L391.111111,631.111111 L400,631.111111 Z M337.777778,622.222222 L337.777778,631.111111 L328.888889,631.111111 L328.888889,622.222222 L337.777778,622.222222 Z M355.555556,622.222222 L355.555556,631.111111 L346.666667,631.111111 L346.666667,622.222222 L355.555556,622.222222 Z M373.333333,622.222222 L373.333333,631.111111 L364.444444,631.111111 L364.444444,622.222222 L373.333333,622.222222 Z M391.111111,622.222222 L391.111111,631.111111 L382.222222,631.111111 L382.222222,622.222222 L391.111111,622.222222 Z M328.888889,613.333333 L328.888889,622.222222 L320,622.222222 L320,613.333333 L328.888889,613.333333 Z M346.666667,613.333333 L346.666667,622.222222 L337.777778,622.222222 L337.777778,613.333333 L346.666667,613.333333 Z M364.444444,613.333333 L364.444444,622.222222 L355.555556,622.222222 L355.555556,613.333333 L364.444444,613.333333 Z M382.222222,613.333333 L382.222222,622.222222 L373.333333,622.222222 L373.333333,613.333333 L382.222222,613.333333 Z M400,613.333333 L400,622.222222 L391.111111,622.222222 L391.111111,613.333333 L400,613.333333 Z M337.777778,604.444444 L337.777778,613.333333 L328.888889,613.333333 L328.888889,604.444444 L337.777778,604.444444 Z M355.555556,604.444444 L355.555556,613.333333 L346.666667,613.333333 L346.666667,604.444444 L355.555556,604.444444 Z M373.333333,604.444444 L373.333333,613.333333 L364.444444,613.333333 L364.444444,604.444444 L373.333333,604.444444 Z M391.111111,604.444444 L391.111111,613.333333 L382.222222,613.333333 L382.222222,604.444444 L391.111111,604.444444 Z M364.444444,595.555556 L364.444444,604.444444 L355.555556,604.444444 L355.555556,595.555556 L364.444444,595.555556 Z M382.222222,595.555556 L382.222222,604.444444 L373.333333,604.444444 L373.333333,595.555556 L382.222222,595.555556 Z M400,595.555556 L400,604.444444 L391.111111,604.444444 L391.111111,595.555556 L400,595.555556 Z M328.888889,595.555556 L328.888889,604.444444 L320,604.444444 L320,595.555556 L328.888889,595.555556 Z M346.666667,595.555556 L346.666667,604.444444 L337.777778,604.444444 L337.777778,595.555556 L346.666667,595.555556 Z M337.777778,586.666667 L337.777778,595.555556 L328.888889,595.555556 L328.888889,586.666667 L337.777778,586.666667 Z M355.555556,586.666667 L355.555556,595.555556 L346.666667,595.555556 L346.666667,586.666667 L355.555556,586.666667 Z M373.333333,586.666667 L373.333333,595.555556 L364.444444,595.555556 L364.444444,586.666667 L373.333333,586.666667 Z M391.111111,586.666667 L391.111111,595.555556 L382.222222,595.555556 L382.222222,586.666667 L391.111111,586.666667 Z M328.888889,577.777778 L328.888889,586.666667 L320,586.666667 L320,577.777778 L328.888889,577.777778 Z M346.666667,577.777778 L346.666667,586.666667 L337.777778,586.666667 L337.777778,577.777778 L346.666667,577.777778 Z M364.444444,577.777778 L364.444444,586.666667 L355.555556,586.666667 L355.555556,577.777778 L364.444444,577.777778 Z M382.222222,577.777778 L382.222222,586.666667 L373.333333,586.666667 L373.333333,577.777778 L382.222222,577.777778 Z M400,577.777778 L400,586.666667 L391.111111,586.666667 L391.111111,577.777778 L400,577.777778 Z M337.777778,568.888889 L337.777778,577.777778 L328.888889,577.777778 L328.888889,568.888889 L337.777778,568.888889 Z M355.555556,568.888889 L355.555556,577.777778 L346.666667,577.777778 L346.666667,568.888889 L355.555556,568.888889 Z M373.333333,568.888889 L373.333333,577.777778 L364.444444,577.777778 L364.444444,568.888889 L373.333333,568.888889 Z M391.111111,568.888889 L391.111111,577.777778 L382.222222,577.777778 L382.222222,568.888889 L391.111111,568.888889 Z M328.888889,560 L328.888889,568.888889 L320,568.888889 L320,560 L328.888889,560 Z M346.666667,560 L346.666667,568.888889 L337.777778,568.888889 L337.777778,560 L346.666667,560 Z M364.444444,560 L364.444444,568.888889 L355.555556,568.888889 L355.555556,560 L364.444444,560 Z M382.222222,560 L382.222222,568.888889 L373.333333,568.888889 L373.333333,560 L382.222222,560 Z M400,560 L400,568.888889 L391.111111,568.888889 L391.111111,560 L400,560 Z" id="Shape-Copy-5" fill="#FFFFFF"></path>
                    <path d="M480,488.8 L480,480 L400,480 L400,488.8 L480,488.8 Z M480,498.4 L480,507.2 L400,507.2 L400,498.4 L480,498.4 Z M480,515.2 L480,524 L400,524 L400,515.2 L480,515.2 Z M480,541.6 L480,532.8 L400,532.8 L400,541.6 L480,541.6 Z M480,551.2 L480,560 L400,560 L400,551.2 L480,551.2 Z" id="Shape-Copy-6" fill="#4038FF" transform="translate(440.000000, 520.000000) rotate(-90.000000) translate(-440.000000, -520.000000) "></path>
                    <path d="M231.111032,320 L240,320 C240,364.182044 204.182206,400 160,400 L160,391.111111 C199.275445,391.111111 231.111032,359.275378 231.111032,320 Z M213.485612,320 L222.4,320 C222.4,354.462629 194.462684,382.4 160,382.4 L160,373.485714 C189.537608,373.485714 213.485612,349.537664 213.485612,320 Z M204,320 L195.2,320 C195.2,339.438848 179.439058,355.2 160,355.2 L160,364 C184.300937,364 204,344.301376 204,320 Z M178.133333,320 L187.2,320 C187.2,335.023104 175.023268,347.2 160,347.2 L160,338.133333 C170.01406,338.133333 178.133333,330.013952 178.133333,320 Z M160,320 L168.8,320 C168.8,324.861824 164.861878,328.8 160,328.8 L160,320 Z" id="Shape" fill="#4038FF" transform="translate(200.000000, 360.000000) rotate(-90.000000) translate(-200.000000, -360.000000) "></path>
                    <path d="M400,720 L480,720 L480,640 C435.817794,640 400,675.817956 400,720 Z" id="Path-Copy-4" fill="#4038FF" fill-rule="nonzero" transform="translate(440.000000, 680.000000) rotate(-90.000000) translate(-440.000000, -680.000000) "></path>
                    <path d="M248.888968,80 L240,80 C240,35.8179556 275.817794,0 320,0 L320,8.88888889 C280.724555,8.88888889 248.888968,40.7246222 248.888968,80 Z M266.514388,80 L257.6,80 C257.6,45.5373714 285.537316,17.6 320,17.6 L320,26.5142857 C290.462392,26.5142857 266.514388,50.462336 266.514388,80 Z M276,80 L284.800141,80 C284.800141,60.560448 300.56063,44.8 320,44.8 L320,36 C295.698674,36 276,55.698624 276,80 Z M301.866183,80 L292.8,80 C292.8,64.9761707 304.976331,52.8 320,52.8 L320,61.8666667 C309.985672,61.8666667 301.866183,69.986048 301.866183,80 Z M320,80 L311.2,80 C311.2,75.138176 315.138122,71.2 320,71.2 L320,80 Z" id="Shape-Copy-7" fill="#1F252E" transform="translate(280.000000, 40.000000) rotate(-90.000000) translate(-280.000000, -40.000000) "></path>
                    <path d="M248.888968,560 L240,560 C240,515.817956 275.817794,480 320,480 L320,488.888889 C280.724555,488.888889 248.888968,520.724622 248.888968,560 Z M266.514388,560 L257.6,560 C257.6,525.537371 285.537316,497.6 320,497.6 L320,506.514286 C290.462392,506.514286 266.514388,530.462336 266.514388,560 Z M276,560 L284.800141,560 C284.800141,540.560448 300.56063,524.8 320,524.8 L320,516 C295.698674,516 276,535.698624 276,560 Z M301.866183,560 L292.8,560 C292.8,544.976171 304.976331,532.8 320,532.8 L320,541.866667 C309.985672,541.866667 301.866183,549.986048 301.866183,560 Z M320,560 L311.2,560 C311.2,555.138176 315.138122,551.2 320,551.2 L320,560 Z" id="Shape-Copy-2" fill="#1F252E" transform="translate(280.000000, 520.000000) scale(-1, 1) translate(-280.000000, -520.000000) "></path>
                    <path d="M400,153.733689 L400,160 L393.733096,160 L320,86.2670222 L320,80 L326.266192,80 L400,153.733689 Z M320,99.2 L320,111.705005 L368.295818,160 L380.8,160 L320,99.2 Z M320,136.577422 L320,124 L356,160 L343.422064,160 L320,136.577422 Z M320,160 L331.2,160 L320,148.8 L320,160 Z M339.2,80 L351.704744,80 L400,128.294995 L400,140.8 L339.2,80 Z M376.577936,80 L364,80 L400,116 L400,103.422578 L376.577936,80 Z M400,91.2 L388.8,80 L400,80 L400,91.2 Z" id="Shape-Copy" fill="#1F252E" transform="translate(360.000000, 120.000000) rotate(-270.000000) translate(-360.000000, -120.000000) "></path>
                </g>
            </g>
            <g id="Group-Copy-3" transform="translate(440.000000, 560.000000) scale(-1, -1) rotate(-90.000000) translate(-440.000000, -560.000000) translate(200.000000, 200.000000)">
                <g id="Group-2" transform="translate(-0.000000, 0.000000)">
                    <path d="M248.888889,231.111111 L248.888889,240 L240,240 L240,231.111111 L248.888889,231.111111 Z M266.666667,231.111111 L266.666667,240 L257.777778,240 L257.777778,231.111111 L266.666667,231.111111 Z M284.444444,231.111111 L284.444444,240 L275.555556,240 L275.555556,231.111111 L284.444444,231.111111 Z M302.222222,231.111111 L302.222222,240 L293.333333,240 L293.333333,231.111111 L302.222222,231.111111 Z M320,231.111111 L320,240 L311.111111,240 L311.111111,231.111111 L320,231.111111 Z M257.777778,222.222222 L257.777778,231.111111 L248.888889,231.111111 L248.888889,222.222222 L257.777778,222.222222 Z M275.555556,222.222222 L275.555556,231.111111 L266.666667,231.111111 L266.666667,222.222222 L275.555556,222.222222 Z M293.333333,222.222222 L293.333333,231.111111 L284.444444,231.111111 L284.444444,222.222222 L293.333333,222.222222 Z M311.111111,222.222222 L311.111111,231.111111 L302.222222,231.111111 L302.222222,222.222222 L311.111111,222.222222 Z M248.888889,213.333333 L248.888889,222.222222 L240,222.222222 L240,213.333333 L248.888889,213.333333 Z M266.666667,213.333333 L266.666667,222.222222 L257.777778,222.222222 L257.777778,213.333333 L266.666667,213.333333 Z M284.444444,213.333333 L284.444444,222.222222 L275.555556,222.222222 L275.555556,213.333333 L284.444444,213.333333 Z M302.222222,213.333333 L302.222222,222.222222 L293.333333,222.222222 L293.333333,213.333333 L302.222222,213.333333 Z M320,213.333333 L320,222.222222 L311.111111,222.222222 L311.111111,213.333333 L320,213.333333 Z M257.777778,204.444444 L257.777778,213.333333 L248.888889,213.333333 L248.888889,204.444444 L257.777778,204.444444 Z M275.555556,204.444444 L275.555556,213.333333 L266.666667,213.333333 L266.666667,204.444444 L275.555556,204.444444 Z M293.333333,204.444444 L293.333333,213.333333 L284.444444,213.333333 L284.444444,204.444444 L293.333333,204.444444 Z M311.111111,204.444444 L311.111111,213.333333 L302.222222,213.333333 L302.222222,204.444444 L311.111111,204.444444 Z M284.444444,195.555556 L284.444444,204.444444 L275.555556,204.444444 L275.555556,195.555556 L284.444444,195.555556 Z M302.222222,195.555556 L302.222222,204.444444 L293.333333,204.444444 L293.333333,195.555556 L302.222222,195.555556 Z M320,195.555556 L320,204.444444 L311.111111,204.444444 L311.111111,195.555556 L320,195.555556 Z M248.888889,195.555556 L248.888889,204.444444 L240,204.444444 L240,195.555556 L248.888889,195.555556 Z M266.666667,195.555556 L266.666667,204.444444 L257.777778,204.444444 L257.777778,195.555556 L266.666667,195.555556 Z M257.777778,186.666667 L257.777778,195.555556 L248.888889,195.555556 L248.888889,186.666667 L257.777778,186.666667 Z M275.555556,186.666667 L275.555556,195.555556 L266.666667,195.555556 L266.666667,186.666667 L275.555556,186.666667 Z M293.333333,186.666667 L293.333333,195.555556 L284.444444,195.555556 L284.444444,186.666667 L293.333333,186.666667 Z M311.111111,186.666667 L311.111111,195.555556 L302.222222,195.555556 L302.222222,186.666667 L311.111111,186.666667 Z M248.888889,177.777778 L248.888889,186.666667 L240,186.666667 L240,177.777778 L248.888889,177.777778 Z M266.666667,177.777778 L266.666667,186.666667 L257.777778,186.666667 L257.777778,177.777778 L266.666667,177.777778 Z M284.444444,177.777778 L284.444444,186.666667 L275.555556,186.666667 L275.555556,177.777778 L284.444444,177.777778 Z M302.222222,177.777778 L302.222222,186.666667 L293.333333,186.666667 L293.333333,177.777778 L302.222222,177.777778 Z M320,177.777778 L320,186.666667 L311.111111,186.666667 L311.111111,177.777778 L320,177.777778 Z M257.777778,168.888889 L257.777778,177.777778 L248.888889,177.777778 L248.888889,168.888889 L257.777778,168.888889 Z M275.555556,168.888889 L275.555556,177.777778 L266.666667,177.777778 L266.666667,168.888889 L275.555556,168.888889 Z M293.333333,168.888889 L293.333333,177.777778 L284.444444,177.777778 L284.444444,168.888889 L293.333333,168.888889 Z M311.111111,168.888889 L311.111111,177.777778 L302.222222,177.777778 L302.222222,168.888889 L311.111111,168.888889 Z M248.888889,160 L248.888889,168.888889 L240,168.888889 L240,160 L248.888889,160 Z M266.666667,160 L266.666667,168.888889 L257.777778,168.888889 L257.777778,160 L266.666667,160 Z M284.444444,160 L284.444444,168.888889 L275.555556,168.888889 L275.555556,160 L284.444444,160 Z M302.222222,160 L302.222222,168.888889 L293.333333,168.888889 L293.333333,160 L302.222222,160 Z M320,160 L320,168.888889 L311.111111,168.888889 L311.111111,160 L320,160 Z" id="Shape-Copy-4" fill="#FFFFFF" transform="translate(280.000000, 200.000000) scale(-1, -1) translate(-280.000000, -200.000000) "></path>
                    <path d="M328.888889,631.111111 L328.888889,640 L320,640 L320,631.111111 L328.888889,631.111111 Z M346.666667,631.111111 L346.666667,640 L337.777778,640 L337.777778,631.111111 L346.666667,631.111111 Z M364.444444,631.111111 L364.444444,640 L355.555556,640 L355.555556,631.111111 L364.444444,631.111111 Z M382.222222,631.111111 L382.222222,640 L373.333333,640 L373.333333,631.111111 L382.222222,631.111111 Z M400,631.111111 L400,640 L391.111111,640 L391.111111,631.111111 L400,631.111111 Z M337.777778,622.222222 L337.777778,631.111111 L328.888889,631.111111 L328.888889,622.222222 L337.777778,622.222222 Z M355.555556,622.222222 L355.555556,631.111111 L346.666667,631.111111 L346.666667,622.222222 L355.555556,622.222222 Z M373.333333,622.222222 L373.333333,631.111111 L364.444444,631.111111 L364.444444,622.222222 L373.333333,622.222222 Z M391.111111,622.222222 L391.111111,631.111111 L382.222222,631.111111 L382.222222,622.222222 L391.111111,622.222222 Z M328.888889,613.333333 L328.888889,622.222222 L320,622.222222 L320,613.333333 L328.888889,613.333333 Z M346.666667,613.333333 L346.666667,622.222222 L337.777778,622.222222 L337.777778,613.333333 L346.666667,613.333333 Z M364.444444,613.333333 L364.444444,622.222222 L355.555556,622.222222 L355.555556,613.333333 L364.444444,613.333333 Z M382.222222,613.333333 L382.222222,622.222222 L373.333333,622.222222 L373.333333,613.333333 L382.222222,613.333333 Z M400,613.333333 L400,622.222222 L391.111111,622.222222 L391.111111,613.333333 L400,613.333333 Z M337.777778,604.444444 L337.777778,613.333333 L328.888889,613.333333 L328.888889,604.444444 L337.777778,604.444444 Z M355.555556,604.444444 L355.555556,613.333333 L346.666667,613.333333 L346.666667,604.444444 L355.555556,604.444444 Z M373.333333,604.444444 L373.333333,613.333333 L364.444444,613.333333 L364.444444,604.444444 L373.333333,604.444444 Z M391.111111,604.444444 L391.111111,613.333333 L382.222222,613.333333 L382.222222,604.444444 L391.111111,604.444444 Z M364.444444,595.555556 L364.444444,604.444444 L355.555556,604.444444 L355.555556,595.555556 L364.444444,595.555556 Z M382.222222,595.555556 L382.222222,604.444444 L373.333333,604.444444 L373.333333,595.555556 L382.222222,595.555556 Z M400,595.555556 L400,604.444444 L391.111111,604.444444 L391.111111,595.555556 L400,595.555556 Z M328.888889,595.555556 L328.888889,604.444444 L320,604.444444 L320,595.555556 L328.888889,595.555556 Z M346.666667,595.555556 L346.666667,604.444444 L337.777778,604.444444 L337.777778,595.555556 L346.666667,595.555556 Z M337.777778,586.666667 L337.777778,595.555556 L328.888889,595.555556 L328.888889,586.666667 L337.777778,586.666667 Z M355.555556,586.666667 L355.555556,595.555556 L346.666667,595.555556 L346.666667,586.666667 L355.555556,586.666667 Z M373.333333,586.666667 L373.333333,595.555556 L364.444444,595.555556 L364.444444,586.666667 L373.333333,586.666667 Z M391.111111,586.666667 L391.111111,595.555556 L382.222222,595.555556 L382.222222,586.666667 L391.111111,586.666667 Z M328.888889,577.777778 L328.888889,586.666667 L320,586.666667 L320,577.777778 L328.888889,577.777778 Z M346.666667,577.777778 L346.666667,586.666667 L337.777778,586.666667 L337.777778,577.777778 L346.666667,577.777778 Z M364.444444,577.777778 L364.444444,586.666667 L355.555556,586.666667 L355.555556,577.777778 L364.444444,577.777778 Z M382.222222,577.777778 L382.222222,586.666667 L373.333333,586.666667 L373.333333,577.777778 L382.222222,577.777778 Z M400,577.777778 L400,586.666667 L391.111111,586.666667 L391.111111,577.777778 L400,577.777778 Z M337.777778,568.888889 L337.777778,577.777778 L328.888889,577.777778 L328.888889,568.888889 L337.777778,568.888889 Z M355.555556,568.888889 L355.555556,577.777778 L346.666667,577.777778 L346.666667,568.888889 L355.555556,568.888889 Z M373.333333,568.888889 L373.333333,577.777778 L364.444444,577.777778 L364.444444,568.888889 L373.333333,568.888889 Z M391.111111,568.888889 L391.111111,577.777778 L382.222222,577.777778 L382.222222,568.888889 L391.111111,568.888889 Z M328.888889,560 L328.888889,568.888889 L320,568.888889 L320,560 L328.888889,560 Z M346.666667,560 L346.666667,568.888889 L337.777778,568.888889 L337.777778,560 L346.666667,560 Z M364.444444,560 L364.444444,568.888889 L355.555556,568.888889 L355.555556,560 L364.444444,560 Z M382.222222,560 L382.222222,568.888889 L373.333333,568.888889 L373.333333,560 L382.222222,560 Z M400,560 L400,568.888889 L391.111111,568.888889 L391.111111,560 L400,560 Z" id="Shape-Copy-5" fill="#FFFFFF" transform="translate(360.000000, 600.000000) scale(-1, -1) translate(-360.000000, -600.000000) "></path>
                    <path d="M240,88.8 L240,80 L160,80 L160,88.8 L240,88.8 Z M240,98.4 L240,107.2 L160,107.2 L160,98.4 L240,98.4 Z M240,115.2 L240,124 L160,124 L160,115.2 L240,115.2 Z M240,141.6 L240,132.8 L160,132.8 L160,141.6 L240,141.6 Z M240,151.2 L240,160 L160,160 L160,151.2 L240,151.2 Z" id="Shape" fill="#4038FF" transform="translate(200.000000, 120.000000) scale(-1, -1) translate(-200.000000, -120.000000) "></path>
                    <path d="M480,488.8 L480,480 L400,480 L400,488.8 L480,488.8 Z M480,498.4 L480,507.2 L400,507.2 L400,498.4 L480,498.4 Z M480,515.2 L480,524 L400,524 L400,515.2 L480,515.2 Z M480,541.6 L480,532.8 L400,532.8 L400,541.6 L480,541.6 Z M480,551.2 L480,560 L400,560 L400,551.2 L480,551.2 Z" id="Shape-Copy-6" fill="#4038FF" transform="translate(440.000000, 520.000000) scale(-1, -1) rotate(-90.000000) translate(-440.000000, -520.000000) "></path>
                    <path d="M400,720 L480,720 L480,640 C435.817794,640 400,675.817956 400,720 Z" id="Path-Copy-4" fill="#1F252E" fill-rule="nonzero" transform="translate(440.000000, 680.000000) scale(-1, -1) rotate(-90.000000) translate(-440.000000, -680.000000) "></path>
                    <path d="M248.888968,400 L240,400 C240,355.817956 275.817794,320 320,320 L320,328.888889 C280.724555,328.888889 248.888968,360.724622 248.888968,400 Z M266.514388,400 L257.6,400 C257.6,365.537371 285.537316,337.6 320,337.6 L320,346.514286 C290.462392,346.514286 266.514388,370.462336 266.514388,400 Z M276,400 L284.800141,400 C284.800141,380.560448 300.56063,364.8 320,364.8 L320,356 C295.698674,356 276,375.698624 276,400 Z M301.866183,400 L292.8,400 C292.8,384.976171 304.976331,372.8 320,372.8 L320,381.866667 C309.985672,381.866667 301.866183,389.986048 301.866183,400 Z M320,400 L311.2,400 C311.2,395.138176 315.138122,391.2 320,391.2 L320,400 Z" id="Shape" fill="#4038FF" transform="translate(280.000000, 360.000000) scale(-1, -1) translate(-280.000000, -360.000000) "></path>
                    <path d="M8.88896797,80 L-2.84217094e-14,80 C-2.84217094e-14,35.8179556 35.8177936,0 80,0 L80,8.88888889 C40.7245552,8.88888889 8.88896797,40.7246222 8.88896797,80 Z M26.5143877,80 L17.6,80 C17.6,45.5373714 45.5373155,17.6 80,17.6 L80,26.5142857 C50.4623916,26.5142857 26.5143877,50.462336 26.5143877,80 Z M36,80 L44.8001409,80 C44.8001409,60.560448 60.5606303,44.8 80,44.8 L80,36 C55.698674,36 36,55.698624 36,80 Z M61.8661827,80 L52.8,80 C52.8,64.9761707 64.9763305,52.8 80,52.8 L80,61.8666667 C69.9856723,61.8666667 61.8661827,69.986048 61.8661827,80 Z M80,80 L71.2,80 C71.2,75.138176 75.1381215,71.2 80,71.2 L80,80 Z" id="Shape-Copy-3" fill="#1F252E" transform="translate(40.000000, 40.000000) scale(-1, -1) translate(-40.000000, -40.000000) "></path>
                    <path d="M248.888968,80 L240,80 C240,35.8179556 275.817794,0 320,0 L320,8.88888889 C280.724555,8.88888889 248.888968,40.7246222 248.888968,80 Z M266.514388,80 L257.6,80 C257.6,45.5373714 285.537316,17.6 320,17.6 L320,26.5142857 C290.462392,26.5142857 266.514388,50.462336 266.514388,80 Z M276,80 L284.800141,80 C284.800141,60.560448 300.56063,44.8 320,44.8 L320,36 C295.698674,36 276,55.698624 276,80 Z M301.866183,80 L292.8,80 C292.8,64.9761707 304.976331,52.8 320,52.8 L320,61.8666667 C309.985672,61.8666667 301.866183,69.986048 301.866183,80 Z M320,80 L311.2,80 C311.2,75.138176 315.138122,71.2 320,71.2 L320,80 Z" id="Shape-Copy-7" fill="#1F252E" transform="translate(280.000000, 40.000000) scale(-1, -1) rotate(-90.000000) translate(-280.000000, -40.000000) "></path>
                    <path d="M248.888968,560 L240,560 C240,515.817956 275.817794,480 320,480 L320,488.888889 C280.724555,488.888889 248.888968,520.724622 248.888968,560 Z M266.514388,560 L257.6,560 C257.6,525.537371 285.537316,497.6 320,497.6 L320,506.514286 C290.462392,506.514286 266.514388,530.462336 266.514388,560 Z M276,560 L284.800141,560 C284.800141,540.560448 300.56063,524.8 320,524.8 L320,516 C295.698674,516 276,535.698624 276,560 Z M301.866183,560 L292.8,560 C292.8,544.976171 304.976331,532.8 320,532.8 L320,541.866667 C309.985672,541.866667 301.866183,549.986048 301.866183,560 Z M320,560 L311.2,560 C311.2,555.138176 315.138122,551.2 320,551.2 L320,560 Z" id="Shape-Copy-2" fill="#1F252E" transform="translate(280.000000, 520.000000) scale(-1, -1) translate(-280.000000, -520.000000) "></path>
                    <path d="M400,153.733689 L400,160 L393.733096,160 L320,86.2670222 L320,80 L326.266192,80 L400,153.733689 Z M320,99.2 L320,111.705005 L368.295818,160 L380.8,160 L320,99.2 Z M320,136.577422 L320,124 L356,160 L343.422064,160 L320,136.577422 Z M320,160 L331.2,160 L320,148.8 L320,160 Z M339.2,80 L351.704744,80 L400,128.294995 L400,140.8 L339.2,80 Z M376.577936,80 L364,80 L400,116 L400,103.422578 L376.577936,80 Z M400,91.2 L388.8,80 L400,80 L400,91.2 Z" id="Shape-Copy" fill="#1F252E" transform="translate(360.000000, 120.000000) scale(-1, -1) rotate(-270.000000) translate(-360.000000, -120.000000) "></path>
                    <path d="M480,233.733689 L480,240 L473.733096,240 L400,166.267022 L400,160 L406.266192,160 L480,233.733689 Z M400,179.2 L400,191.705005 L448.295818,240 L460.8,240 L400,179.2 Z M400,216.577422 L400,204 L436,240 L423.422064,240 L400,216.577422 Z M400,240 L411.2,240 L400,228.8 L400,240 Z M419.2,160 L431.704744,160 L480,208.294995 L480,220.8 L419.2,160 Z M456.577936,160 L444,160 L480,196 L480,183.422578 L456.577936,160 Z M480,171.2 L468.8,160 L480,160 L480,171.2 Z" id="Shape-Copy-8" fill="#4038FF" transform="translate(440.000000, 200.000000) scale(-1, -1) rotate(-270.000000) translate(-440.000000, -200.000000) "></path>
                </g>
            </g>
        </g>
        <g id="Helmet" transform="translate(464.000000, 147.000000)" fill-rule="nonzero">
            <path d="M291.32045,345.938279 C291.846079,348.538074 294.018269,359.29545 294.622777,362.638633 C295.906454,369.73791 296.654275,375.683038 296.885088,381.735813 C296.901554,382.185039 296.901554,382.185039 296.904553,382.323268 C297.715772,402.561886 293.527121,444.080797 284.338604,506.88 L271.074653,500.210527 L250.839963,486.871578 L248.796278,504.809004 C211.381405,508.128708 163.233453,495.389539 128.280987,454.660817 C114.295926,438.391615 107.685262,420.704964 104.185321,397.621599 C103.599507,393.757947 103.241965,390.961463 102.526977,384.838205 C77.4500173,386.014861 55.087297,367.890732 55.074654,367.872927 L36.6370132,341.908589 L50.1540252,329.014944 L0.200375739,338.525042 L0.0150930351,303.81274 C-0.552819999,197.415496 14.8044188,127.804185 63.3351024,65.4445949 C116.676948,-3.07042829 202.684934,-19.1537217 279.446354,23.6675906 C337.722641,56.1483506 378.034136,119.153666 380.549543,183.552333 L382.08,222.734611 L343.961491,212.520691 C345.990603,213.064395 319.283148,205.552685 313.573997,204.320847 C312.704189,204.133173 311.85926,203.961095 310.977139,203.792803 C307.338705,203.091516 304.763747,202.506741 298.44289,201.004952 C296.548113,200.554767 295.534535,200.31594 294.429289,200.061126 C285.365257,197.971411 280.692063,197.481508 278.28211,197.976678 C275.836698,198.483032 273.435345,198.891769 271.074653,199.20394 C301.272461,238.271315 309.265755,299.765142 291.32045,345.938279 Z" id="Path" fill="#000000"></path>
            <path d="M351.36,185.309965 C337.944945,181.72324 334.097948,181.388033 319.502682,178.581031 C309.772504,176.709696 285.496637,175.554353 246.675082,175.115002 C241.004001,164.081869 233.290257,154.107887 223.533853,145.193056 C216.459752,139.161339 207.747477,134.542304 199.176564,130.883924 C160.741052,112.755369 118.441581,122.153465 98.1026256,159.502188 C81.5403425,189.911378 72.8820288,238.071615 68.8693142,272.223475 C67.8858058,280.332591 68.0038268,288.597654 67.4924024,299.318844 L30.7362311,303.36 C30.3034875,222.463757 38.250236,147.88327 87.6617028,84.5307907 C132.194967,27.4550805 202.102752,15.2134322 265.558719,50.5348758 C314.419421,77.7082161 349.235622,131.041257 351.36,185.309965 Z" id="Path" fill="#FFFFFF"></path>
            <path d="M318.140014,179.669805 C308.455751,177.786004 284.294433,176.622964 245.656063,176.180686 C240.011741,165.074055 232.334398,155.033631 222.624031,146.059413 C215.583308,139.987514 206.912147,135.33771 198.381675,131.654959 C160.127527,113.405639 118.027653,122.866342 97.78467,160.463867 C86.3976843,181.610004 78.7645453,211.283076 73.8162611,238.944449 C68.9825063,260.322205 65.8055067,282.496641 63.8363839,300.712272 C63.8030254,301.011222 63.7710351,301.310381 63.7403343,301.609864 L30.7361545,305.28 C30.6363101,286.40185 30.984652,267.865365 32.1914062,249.732154 C37.8596262,199.845291 51.3685323,153.399181 81.2412284,111.769256 C122.486361,54.3133309 187.232474,41.9901337 246.003145,77.5468744 C282.033894,99.3265774 309.818605,137.800538 320.64,180.152113 C319.842169,179.999449 319.010289,179.839092 318.140014,179.669805 Z" id="Path" fill="#C4C3C6"></path>
            <path d="M123.583926,287.838111 L141.432956,333.705366 L141.432956,285.494634 L151.783843,297.131708 L151.783843,274.927171 C184.455488,258.222284 213.972634,236.47314 239.369443,207.36 C264.242584,230.499978 278.099789,272.973274 273.776442,309.322927 C272.281369,321.89314 265.45276,333.567314 260.468158,343.68 C263.306995,360.068531 266.767446,359.280826 267.1223,371.387316 C264.904253,375.177041 258.250111,384.68683 251.418526,395.769756 C241.64031,375.177041 236.215181,375.177005 242.720849,351.392225 C243.588271,348.161232 235.899756,341.037475 230.892363,338.078976 C211.651357,326.906746 192.292068,330.488089 169.699659,339.168948 C181.291576,351.703645 195.288618,354.272868 207.314246,359.722737 C218.196453,364.666547 227.619815,370.817111 227.816955,383.507518 C228.368951,415.583883 228.014097,447.738106 228.014097,479.775542 C200.650865,482.189055 177.50646,465.021972 150.655797,433.918796 C128.102816,407.837286 134.884481,375.060223 126.091973,349.056566 C104.800698,341.738173 104.800698,359.722737 87.6888209,357.89712 C70.576944,356.071503 67.9216954,348.684152 65.28,344.986028 C83.9690083,334.475568 94.9436258,323.675754 87.6888209,300.708453 C99.9600129,296.86282 111.93758,292.602806 123.583926,287.838111 L123.583926,287.838111 Z" id="Path" fill="#C4C3C6"></path>
            <path d="M220.8,225.962932 C226.975365,220.116234 232.95222,213.923998 238.719567,207.36 C242.796547,211.125767 246.58171,215.400019 250.04438,220.074549 C258.272997,243.801406 266.786467,276.183072 264.617121,297.755768 C260.830284,335.413304 258.467925,341.960216 258.180918,343.391057 C257.508217,346.74471 260.255518,351.120985 262.613553,355.123212 C263.410084,357.611397 264.174716,359.452998 264.831861,361.253451 C263.596643,368.072212 253.613783,386.277736 252.641522,385.914647 C251.879783,385.630176 247.6593,377.316033 244.970329,368.843436 C243.601707,364.531087 244.732865,355.068939 244.970329,354.366033 C246.05962,351.141671 248.905461,345.989447 249.930705,343.391057 C250.426539,342.134408 256.485804,302.935407 246.749599,274.319827 C241.436035,258.702789 228.369825,237.990177 220.8,225.962932 L220.8,225.962932 Z" id="Path" fill="#FFFFFF"></path>
            <path d="M124.8,348.329931 C103.288842,341.159566 103.288842,358.780356 86.0002447,356.991667 C68.7116475,355.202976 66.028977,347.965048 63.36,344.341726 C64.930253,343.485343 66.4466037,342.626999 67.9029425,341.76 C69.9209092,345.055933 72.5495124,345.883991 78.173999,347.339451 C92.1554525,350.957459 121.624799,333.289238 124.8,348.329931 L124.8,348.329931 Z" id="Path" fill="#FFFFFF"></path>
            <path d="M226.475242,401.28 C226.680668,427.46913 226.448099,453.685425 226.448099,479.824451 C210.095391,481.280509 197.431995,473.531762 182.4,462.045646 C206.66832,465.443977 204.490806,468.554177 211.54105,459.210756 C220.188622,447.750461 219.356886,413.828532 226.475242,401.28 Z" id="Path" fill="#FFFFFF"></path>
            <path d="M228.48,201.722227 C198.194763,228.624192 132.459219,264.780033 90.646277,274.56 C88.4017054,260.549689 95.5003849,232.057732 110.8805,213.315506 C115.297226,207.933277 125.878481,193.034193 144.005284,184.602581 C154.712359,179.622227 173.152785,178.551558 180.714247,178.56 C201.077067,178.582918 218.607784,187.205796 228.48,201.722227 Z" id="Path" fill="#FFFFFF"></path>
            <path d="M215.04,211.911431 C181.645703,237.126714 127.055782,265.961725 90.645394,274.56 C89.402391,266.726682 91.0309647,254.39971 95.3499994,241.752036 C97.4323628,238.197439 99.7400584,234.800588 102.268497,231.667962 C106.746706,226.119654 117.475254,210.760825 135.854386,202.069037 C146.710506,196.935005 165.407626,195.831299 173.074345,195.84 C189.823617,195.859175 204.683065,201.712829 215.04,211.911439 L215.04,211.911431 Z" id="Path" fill="#C4C3C6"></path>
            <path d="M256.157539,412.758261 L272.536464,386.212174 C276.445488,380.313043 278.4,386.212174 278.4,403.909565 C278.4,421.606957 277.183949,448.890434 274.751848,485.76 L249.6,457.001739 L256.157539,412.758261 Z" id="Rectangle" fill="#C4C3C6"></path>
            <path d="M278.4,403.646014 C278.4,421.400388 277.183949,448.771718 274.751848,485.76 L249.6,456.909139 L251.688413,455.577562 L270.32108,477.770531 C272.75318,440.782249 273.969231,413.410921 273.969231,395.656545 C273.969231,390.400881 274.184799,387.870993 273.842258,384.56006 C277.138644,382.149112 278.4,387.342157 278.4,403.646014 Z" id="Path" fill="#FFFFFF"></path>
        </g>
    </g>
</svg>