<?xml version="1.0" encoding="UTF-8"?>
<svg width="1310px" height="800px" viewBox="0 0 1310 800" version="1.1" xmlns="http://www.w3.org/2000/svg" xmlns:xlink="http://www.w3.org/1999/xlink">
    <!-- Generator: Sketch 61 (89581) - https://sketch.com -->
    <title>Sparta Released</title>
    <desc>Created with Sketch.</desc>
    <g id="Sparta-Released" stroke="none" stroke-width="1" fill="none" fill-rule="evenodd">
        <rect fill="#000000" x="0" y="0" width="1310" height="800"></rect>
        <g id="Group" transform="translate(655.000000, 400.000000) rotate(-90.000000) translate(-655.000000, -400.000000) translate(443.000000, -47.000000)" fill="#4038FF">
            <path d="M47,377 L47,424 L0,424 L0,377 L47,377 Z M141,377 L141,424 L94,424 L94,377 L141,377 Z M236,377 L236,424 L189,424 L189,377 L236,377 Z M330,377 L330,424 L283,424 L283,377 L330,377 Z M424,377 L424,424 L377,424 L377,377 L424,377 Z M94,330 L94,377 L47,377 L47,330 L94,330 Z M188,330 L188,377 L141,377 L141,330 L188,330 Z M283,330 L283,377 L236,377 L236,330 L283,330 Z M377,330 L377,377 L330,377 L330,330 L377,330 Z M47,283 L47,330 L0,330 L0,283 L47,283 Z M141,283 L141,330 L94,330 L94,283 L141,283 Z M236,283 L236,330 L189,330 L189,283 L236,283 Z M330,283 L330,330 L283,330 L283,283 L330,283 Z M424,283 L424,330 L377,330 L377,283 L424,283 Z M94,236 L94,283 L47,283 L47,236 L94,236 Z M188,236 L188,283 L141,283 L141,236 L188,236 Z M283,236 L283,283 L236,283 L236,236 L283,236 Z M377,236 L377,283 L330,283 L330,236 L377,236 Z M236,188 L236,235 L189,235 L189,188 L236,188 Z M330,188 L330,235 L283,235 L283,188 L330,188 Z M424,188 L424,235 L377,235 L377,188 L424,188 Z M47,188 L47,235 L0,235 L0,188 L47,188 Z M141,188 L141,235 L94,235 L94,188 L141,188 Z M94,141 L94,188 L47,188 L47,141 L94,141 Z M188,141 L188,188 L141,188 L141,141 L188,141 Z M283,141 L283,188 L236,188 L236,141 L283,141 Z M377,141 L377,188 L330,188 L330,141 L377,141 Z M47,94 L47,141 L0,141 L0,94 L47,94 Z M141,94 L141,141 L94,141 L94,94 L141,94 Z M236,94 L236,141 L189,141 L189,94 L236,94 Z M330,94 L330,141 L283,141 L283,94 L330,94 Z M424,94 L424,141 L377,141 L377,94 L424,94 Z M94,47 L94,94 L47,94 L47,47 L94,47 Z M188,47 L188,94 L141,94 L141,47 L188,47 Z M283,47 L283,94 L236,94 L236,47 L283,47 Z M377,47 L377,94 L330,94 L330,47 L377,47 Z M47,0 L47,47 L0,47 L0,0 L47,0 Z M141,0 L141,47 L94,47 L94,0 L141,0 Z M236,0 L236,47 L189,47 L189,0 L236,0 Z M330,0 L330,47 L283,47 L283,0 L330,0 Z M424,0 L424,47 L377,47 L377,0 L424,0 Z" id="Shape-Copy-5"></path>
            <path d="M47,753 L47,800 L1.13686838e-13,800 L1.13686838e-13,753 L47,753 Z M141,753 L141,800 L94,800 L94,753 L141,753 Z M236,753 L236,800 L189,800 L189,753 L236,753 Z M330,753 L330,800 L283,800 L283,753 L330,753 Z M424,753 L424,800 L377,800 L377,753 L424,753 Z M94,706 L94,753 L47,753 L47,706 L94,706 Z M188,706 L188,753 L141,753 L141,706 L188,706 Z M283,706 L283,753 L236,753 L236,706 L283,706 Z M377,706 L377,753 L330,753 L330,706 L377,706 Z M47,659 L47,706 L1.13686838e-13,706 L1.13686838e-13,659 L47,659 Z M141,659 L141,706 L94,706 L94,659 L141,659 Z M236,659 L236,706 L189,706 L189,659 L236,659 Z M330,659 L330,706 L283,706 L283,659 L330,659 Z M424,659 L424,706 L377,706 L377,659 L424,659 Z M94,612 L94,659 L47,659 L47,612 L94,612 Z M188,612 L188,659 L141,659 L141,612 L188,612 Z M283,612 L283,659 L236,659 L236,612 L283,612 Z M377,612 L377,659 L330,659 L330,612 L377,612 Z M236,564 L236,611 L189,611 L189,564 L236,564 Z M330,564 L330,611 L283,611 L283,564 L330,564 Z M424,564 L424,611 L377,611 L377,564 L424,564 Z M47,564 L47,611 L1.13686838e-13,611 L1.13686838e-13,564 L47,564 Z M141,564 L141,611 L94,611 L94,564 L141,564 Z M94,517 L94,564 L47,564 L47,517 L94,517 Z M188,517 L188,564 L141,564 L141,517 L188,517 Z M283,517 L283,564 L236,564 L236,517 L283,517 Z M377,517 L377,564 L330,564 L330,517 L377,517 Z M47,470 L47,517 L1.13686838e-13,517 L1.13686838e-13,470 L47,470 Z M141,470 L141,517 L94,517 L94,470 L141,470 Z M236,470 L236,517 L189,517 L189,470 L236,470 Z M330,470 L330,517 L283,517 L283,470 L330,470 Z M424,470 L424,517 L377,517 L377,470 L424,470 Z M94,423 L94,470 L47,470 L47,423 L94,423 Z M188,423 L188,470 L141,470 L141,423 L188,423 Z M283,423 L283,470 L236,470 L236,423 L283,423 Z M377,423 L377,470 L330,470 L330,423 L377,423 Z M47,376 L47,423 L1.13686838e-13,423 L1.13686838e-13,376 L47,376 Z M141,376 L141,423 L94,423 L94,376 L141,376 Z M236,376 L236,423 L189,423 L189,376 L236,376 Z M330,376 L330,423 L283,423 L283,376 L330,376 Z M424,376 L424,423 L377,423 L377,376 L424,376 Z" id="Shape-Copy-6"></path>
            <path d="M47,847 L47,894 L1.13686838e-13,894 L1.13686838e-13,847 L47,847 Z M141,847 L141,894 L94,894 L94,847 L141,847 Z M236,847 L236,894 L189,894 L189,847 L236,847 Z M330,847 L330,894 L283,894 L283,847 L330,847 Z M424,847 L424,894 L377,894 L377,847 L424,847 Z M94,800 L94,847 L47,847 L47,800 L94,800 Z M188,800 L188,847 L141,847 L141,800 L188,800 Z M283,800 L283,847 L236,847 L236,800 L283,800 Z M377,800 L377,847 L330,847 L330,800 L377,800 Z M236,752 L236,799 L189,799 L189,752 L236,752 Z M330,752 L330,799 L283,799 L283,752 L330,752 Z M424,752 L424,799 L377,799 L377,752 L424,752 Z M47,752 L47,799 L1.13686838e-13,799 L1.13686838e-13,752 L47,752 Z M141,752 L141,799 L94,799 L94,752 L141,752 Z M94,705 L94,752 L47,752 L47,705 L94,705 Z M188,705 L188,752 L141,752 L141,705 L188,705 Z M283,705 L283,752 L236,752 L236,705 L283,705 Z M377,705 L377,752 L330,752 L330,705 L377,705 Z M47,658 L47,705 L1.13686838e-13,705 L1.13686838e-13,658 L47,658 Z M141,658 L141,705 L94,705 L94,658 L141,658 Z M236,658 L236,705 L189,705 L189,658 L236,658 Z M330,658 L330,705 L283,705 L283,658 L330,658 Z M424,658 L424,705 L377,705 L377,658 L424,658 Z M94,611 L94,658 L47,658 L47,611 L94,611 Z M188,611 L188,658 L141,658 L141,611 L188,611 Z M283,611 L283,658 L236,658 L236,611 L283,611 Z M377,611 L377,658 L330,658 L330,611 L377,611 Z M47,564 L47,611 L1.13686838e-13,611 L1.13686838e-13,564 L47,564 Z M141,564 L141,611 L94,611 L94,564 L141,564 Z M236,564 L236,611 L189,611 L189,564 L236,564 Z M330,564 L330,611 L283,611 L283,564 L330,564 Z M424,564 L424,611 L377,611 L377,564 L424,564 Z" id="Shape-Copy-7"></path>
        </g>
        <g id="Helmet" transform="translate(506.000000, 202.000000)" fill-rule="nonzero">
            <path d="M227.975331,270.946766 C228.386667,272.982985 230.086533,281.408408 230.559596,284.026865 C231.564149,289.587181 232.149362,294.243541 232.329987,298.984213 C232.342872,299.336057 232.342872,299.336057 232.345219,299.444321 C232.980046,315.295669 229.702181,347.814229 222.511628,397 L212.131808,391.776316 L196.296977,381.328947 L194.697674,395.377948 C165.418342,397.978017 127.739747,388.000409 100.387393,356.100743 C89.4432627,343.358331 84.2700305,329.505743 81.5311217,311.426324 C81.0726881,308.400223 80.7928901,306.209953 80.2333705,301.414077 C60.6091792,302.335661 43.1090394,288.140429 43.0991455,288.126484 L28.6706107,267.790621 L39.248465,257.692023 L0.156805763,265.140549 L0.0118111848,237.953081 C-0.432614059,154.620328 11.5853256,100.099158 49.5634307,51.2577024 C91.3065519,-2.40482959 158.612844,-15.0016326 218.683155,18.5369979 C264.287766,43.9766714 295.833874,93.3238744 297.802328,143.762382 L299,174.450838 L269.170032,166.451062 C270.757931,166.876903 249.857781,160.99356 245.390036,160.028757 C244.70936,159.881766 244.048154,159.746991 243.357843,159.615181 C240.510555,159.065916 238.495499,158.607908 233.549058,157.431672 C232.066284,157.079077 231.2731,156.892023 230.40818,156.692446 C223.315044,155.055734 219.657996,154.67203 217.772066,155.059858 C215.858388,155.456446 213.979188,155.776579 212.131808,156.021078 C235.763363,186.619539 242.018584,234.78291 227.975331,270.946766 Z" id="Path" fill="#000000"></path>
            <path d="M276,146.340422 C265.498569,143.525137 262.487104,143.262027 251.061793,141.058761 C243.444918,139.589917 224.441541,138.683068 194.051664,138.338213 C189.612288,129.67811 183.573897,121.849354 175.936493,114.851944 C170.39882,110.117541 163.57877,106.491979 156.869379,103.620451 C126.781699,89.3910245 93.6692768,96.7677583 77.7477515,126.083437 C64.7826409,149.952153 58.0048317,187.753982 54.8636411,214.560386 C54.0937414,220.925376 54.1861294,227.412771 53.7857816,235.828024 L25.0127059,239 C24.6739501,175.503095 30.8947394,116.963541 69.5744992,67.2370496 C104.435556,22.4373065 159.160026,12.8286183 208.833953,40.5530495 C247.082568,61.8818891 274.337017,103.743944 276,146.340422 Z" id="Path" fill="#FFFFFF"></path>
            <path d="M250.042574,140.613461 C242.460042,139.137939 223.542343,138.226967 193.289481,137.880544 C188.87012,129.181067 182.858955,121.316717 175.255984,114.287492 C169.743277,109.531564 162.953978,105.889518 156.274835,103.004934 C126.322809,88.7108119 93.359676,96.1210847 77.5099341,125.570051 C68.5942134,142.133159 62.6176594,165.375149 58.7432784,187.041437 C54.9585711,203.785965 52.4710611,221.154507 50.9292879,235.422241 C50.9031691,235.656399 50.8781215,235.890721 50.8540836,236.125297 L25.0126486,239 C24.934473,224.213335 25.2072159,209.694286 26.1520737,195.491109 C30.5901461,156.416289 41.1672766,120.036503 64.5568393,87.4290848 C96.8507309,42.4256549 147.545294,32.7732798 193.561237,60.6237631 C221.772399,77.6831235 243.527123,107.818574 252,140.991239 C251.375319,140.871661 250.723977,140.746059 250.042574,140.613461 Z" id="Path" fill="#C4C3C6"></path>
            <path d="M95.6892388,225.168705 L109.676437,261.170732 L109.676437,223.329268 L117.787797,232.463415 L117.787797,215.034678 C143.390577,201.922714 166.521368,184.851423 186.423302,162 C205.914869,180.162982 216.773917,213.501029 213.385973,242.03252 C212.214375,251.899105 206.86321,261.062372 202.957081,269 C205.181705,281.86365 207.893449,281.245366 208.171527,290.747967 C206.433378,293.72259 201.218932,301.186993 195.865435,309.886179 C188.202842,293.72259 183.951498,293.722561 189.049595,275.053463 C189.72934,272.517399 183.704319,266.925835 179.78033,264.603656 C164.702325,255.834373 149.531628,258.645434 131.827332,265.459195 C140.911212,275.297903 151.879842,277.314532 161.303595,281.59223 C169.831318,285.472715 177.215833,290.300403 177.37032,300.26133 C177.802886,325.438641 177.524808,350.677064 177.524808,375.823819 C156.081909,377.718229 137.945047,364.243479 116.903816,339.830041 C99.2304175,319.358198 104.544796,293.630897 97.6546425,273.220163 C80.9699657,267.475826 80.9699657,281.59223 67.5604292,280.159271 C54.1508926,278.726312 52.0701359,272.927848 50,270.025125 C64.6454384,261.775277 73.2455783,253.298311 67.5604292,235.270866 C77.1766155,232.25236 86.5627061,228.9086 95.6892388,225.168705 L95.6892388,225.168705 Z" id="Path" fill="#C4C3C6"></path>
            <path d="M173,177.481449 C177.754584,172.930088 182.356328,168.109743 186.796768,163 C189.935747,165.931461 192.850048,169.258751 195.516053,172.897638 C201.851492,191.367806 208.406247,216.575308 206.736008,233.368569 C203.820417,262.683071 202.001573,267.779514 201.780598,268.893352 C201.262667,271.504002 203.37789,274.910713 205.193405,278.026245 C205.806677,279.963173 206.395388,281.396767 206.901342,282.798329 C205.950313,288.106392 198.264235,302.27848 197.515664,301.995833 C196.929181,301.774386 193.679715,295.302243 191.609402,288.706751 C190.555662,285.349804 191.426572,277.983997 191.609402,277.43682 C192.448077,274.926816 194.639168,270.916068 195.428532,268.893352 C195.810288,267.915113 200.475483,237.400659 192.979311,215.124865 C188.888252,202.967785 178.828216,186.844055 173,177.481449 L173,177.481449 Z" id="Path" fill="#FFFFFF"></path>
            <path d="M97,272.132758 C80.1944079,266.530911 80.1944079,280.297153 66.6876911,278.89974 C53.1809746,277.502325 51.0851383,271.847694 49,269.016973 C50.2267601,268.347924 51.4114091,267.677343 52.5491738,267 C54.1257103,269.574948 56.1793066,270.221868 60.5734367,271.358946 C71.4964472,274.185514 94.5193744,260.382218 97,272.132758 L97,272.132758 Z" id="Path" fill="#FFFFFF"></path>
            <path d="M176.934742,315 C177.092906,335.626601 176.913844,356.274597 176.913844,376.861737 C164.323444,378.008531 154.573547,371.905605 143,362.859121 C161.684848,365.535652 160.00832,367.985251 165.436496,360.626358 C172.094501,351.60021 171.454124,324.883245 176.934742,315 Z" id="Path" fill="#FFFFFF"></path>
            <path d="M179,157.09549 C155.339659,178.11265 103.983765,206.359401 71.3174039,214 C69.5638324,203.054445 75.1096757,180.795103 87.1253905,166.152739 C90.5759581,161.947873 98.8425632,150.307963 113.004128,143.720766 C121.369031,139.829865 135.775613,138.993405 141.683005,139 C157.591459,139.017905 171.287332,145.754528 179,157.09549 Z" id="Path" fill="#FFFFFF"></path>
            <path d="M168,165.657885 C141.776914,185.517483 98.9098292,208.227985 70.3183382,215 C69.3422621,208.830466 70.6211101,199.121723 74.0126597,189.160394 C75.647849,186.360787 77.4599818,183.685422 79.4454547,181.218161 C82.9619965,176.848304 91.3866576,164.751666 105.818989,157.905999 C114.343827,153.862427 129.02586,152.993146 135.0462,153 C148.198674,153.015102 159.86715,157.625449 168,165.657891 L168,165.657885 Z" id="Path" fill="#C4C3C6"></path>
            <path d="M201.236924,323.326087 L214.317315,302.717391 C217.439105,298.137681 219,302.717391 219,316.456521 C219,330.195653 218.028848,351.376811 216.086546,380 L196,357.673913 L201.236924,323.326087 Z" id="Rectangle" fill="#C4C3C6"></path>
            <path d="M219,316.251917 C219,330.035286 218.028848,351.284648 216.086546,380 L196,357.602024 L197.66783,356.568272 L212.548084,373.797483 C214.490387,345.082131 215.461539,323.832771 215.461539,310.049401 C215.461539,305.969237 215.633694,304.005193 215.360137,301.434795 C217.992667,299.563088 219,303.594639 219,316.251917 Z" id="Path" fill="#FFFFFF"></path>
        </g>
    </g>
</svg>