<?xml version="1.0" encoding="UTF-8"?>
<svg width="1310px" height="800px" viewBox="0 0 1310 800" version="1.1" xmlns="http://www.w3.org/2000/svg" xmlns:xlink="http://www.w3.org/1999/xlink">
    <!-- Generator: Sketch 61 (89581) - https://sketch.com -->
    <title>The Sparta Incentives Structure</title>
    <desc>Created with Sketch.</desc>
    <g id="The-Sparta-Incentives-Structure" stroke="none" stroke-width="1" fill="none" fill-rule="evenodd">
        <rect fill="#4038FF" x="0" y="0" width="1310" height="800"></rect>
        <g id="Group" transform="translate(910.000000, 400.000000) scale(-1, 1) rotate(-90.000000) translate(-910.000000, -400.000000) translate(510.000000, 0.000000)">
            <g id="Group-2">
                <path d="M477.868875,233.145277 L466.765367,233.145277 L466.765367,244.268264 L477.868875,244.268264 L477.868875,255.418891 L466.765367,255.418891 L466.765367,266.569518 L477.868875,266.569518 L477.868875,277.692505 L489,277.692505 L489,288.843132 L477.868875,288.843132 L477.868875,277.720145 L466.765367,277.720145 L466.765367,288.843132 L477.868875,288.843132 L477.868875,300 L466.737751,300 L466.737751,288.849373 L455.634243,288.849373 L455.634243,277.726386 L444.503118,277.726386 L444.503118,288.849373 L433.371993,288.849373 L433.371993,277.726386 L422.268485,277.726386 L422.268485,288.849373 L433.371993,288.849373 L433.371993,300 L422.239978,300 L422.239978,288.849373 L411.13736,288.849373 L411.13736,300 L400,300 L400,288.849373 L411.131125,288.849373 L411.131125,277.726386 L400,277.726386 L400,266.574868 L411.131125,266.574868 L411.131125,255.424241 L400,255.424241 L400,244.273614 L411.131125,244.273614 L411.131125,233.150627 L411.131125,233.122987 L422.234633,233.122987 L422.234633,222 L433.365757,222 L433.365757,233.122987 L444.496882,233.122987 L444.496882,222 L455.628897,222 L455.628897,233.122987 L466.732406,233.122987 L466.732406,222 L477.86353,222 L477.86353,233.122987 L488.994655,233.122987 L488.994655,244.273614 L477.86353,244.273614 L477.86353,233.145277 L477.868875,233.145277 Z M411,233.972735 L411,223 L400,223 L400,234 L411,234 L411,233.972735 Z M445,289 L445,300 L456,300 L456,289 L445,289 Z M478,266 L478,255 L489,255 L489,266 L478,266 Z M422,277 L411,277 L411,266 L422,266 L422,277 Z M422.263586,222 L422.263586,211 L433.367761,211 L433.367761,222 L444.499555,222 L444.499555,211 L455.632239,211 L455.632239,222 L466.764032,222 L466.764032,211 L477.868207,211 L477.868207,222 L489,222 L489,211 L477.868207,211 L477.868207,200 L466.736414,200 L466.736414,211 L455.632239,211 L455.632239,200 L444.499555,200 L444.499555,211 L433.367761,211 L433.367761,200 L422.235968,200 L422.235968,211 L411.131793,211 L411.131793,200 L400,200 L400,211 L411.131793,211 L411.131793,222 L422.263586,222 Z M466,244 L466,255 L455,255 L455,244 L466,244 Z M445,245 L445,234 L456,234 L456,245 L445,245 Z M434,244 L445,244 L445,255 L434,255 L434,244 Z M434,245 L423,245 L423,234 L434,234 L434,245 Z M434,266 L423,266 L423,255 L434,255 L434,266 Z M445,266 L445,277 L434,277 L434,266 L445,266 Z M456,266 L445,266 L445,255 L456,255 L456,266 Z M455,266 L466,266 L466,277 L455,277 L455,266 Z M422,255 L422,244 L411,244 L411,255 L422,255 Z M500,289 L489,289 L489,300 L500,300 L500,289 Z M489,266 L500,266 L500,277 L489,277 L489,266 Z M500,244 L489,244 L489,255 L500,255 L500,244 Z M489,223 L500,223 L500,234 L489,234 L489,223 Z M489,200 L500,200 L500,211 L489,211 L489,200 Z" id="Shape" fill="#261EE4"></path>
                <path d="M777.868875,33.1452773 L766.765367,33.1452773 L766.765367,44.268264 L777.868875,44.268264 L777.868875,55.418891 L766.765367,55.418891 L766.765367,66.569518 L777.868875,66.569518 L777.868875,77.6925047 L789,77.6925047 L789,88.8431317 L777.868875,88.8431317 L777.868875,77.7201449 L766.765367,77.7201449 L766.765367,88.8431317 L777.868875,88.8431317 L777.868875,100 L766.737751,100 L766.737751,88.849373 L755.634243,88.849373 L755.634243,77.7263863 L744.503118,77.7263863 L744.503118,88.849373 L733.371993,88.849373 L733.371993,77.7263863 L722.268485,77.7263863 L722.268485,88.849373 L733.371993,88.849373 L733.371993,100 L722.239978,100 L722.239978,88.849373 L711.13736,88.849373 L711.13736,100 L700,100 L700,88.849373 L711.131125,88.849373 L711.131125,77.7263863 L700,77.7263863 L700,66.5748677 L711.131125,66.5748677 L711.131125,55.4242407 L700,55.4242407 L700,44.2736137 L711.131125,44.2736137 L711.131125,33.150627 L711.131125,33.1229867 L722.234633,33.1229867 L722.234633,22 L733.365757,22 L733.365757,33.1229867 L744.496882,33.1229867 L744.496882,22 L755.628897,22 L755.628897,33.1229867 L766.732406,33.1229867 L766.732406,22 L777.86353,22 L777.86353,33.1229867 L788.994655,33.1229867 L788.994655,44.2736137 L777.86353,44.2736137 L777.86353,33.1452773 L777.868875,33.1452773 Z M711,33.9727353 L711,23 L700,23 L700,34 L711,34 L711,33.9727353 Z M745,89 L745,100 L756,100 L756,89 L745,89 Z M778,66 L778,55 L789,55 L789,66 L778,66 Z M722,77 L711,77 L711,66 L722,66 L722,77 Z M722.263586,22 L722.263586,11 L733.367761,11 L733.367761,22 L744.499555,22 L744.499555,11 L755.632239,11 L755.632239,22 L766.764032,22 L766.764032,11 L777.868207,11 L777.868207,22 L789,22 L789,11 L777.868207,11 L777.868207,0 L766.736414,0 L766.736414,11 L755.632239,11 L755.632239,0 L744.499555,0 L744.499555,11 L733.367761,11 L733.367761,0 L722.235968,0 L722.235968,11 L711.131793,11 L711.131793,0 L700,0 L700,11 L711.131793,11 L711.131793,22 L722.263586,22 Z M766,44 L766,55 L755,55 L755,44 L766,44 Z M745,45 L745,34 L756,34 L756,45 L745,45 Z M734,44 L745,44 L745,55 L734,55 L734,44 Z M734,45 L723,45 L723,34 L734,34 L734,45 Z M734,66 L723,66 L723,55 L734,55 L734,66 Z M745,66 L745,77 L734,77 L734,66 L745,66 Z M756,66 L745,66 L745,55 L756,55 L756,66 Z M755,66 L766,66 L766,77 L755,77 L755,66 Z M722,55 L722,44 L711,44 L711,55 L722,55 Z M800,89 L789,89 L789,100 L800,100 L800,89 Z M789,66 L800,66 L800,77 L789,77 L789,66 Z M800,44 L789,44 L789,55 L800,55 L800,44 Z M789,23 L800,23 L800,34 L789,34 L789,23 Z M789,0 L800,0 L800,11 L789,11 L789,0 Z" id="Shape-Copy-5" fill="#261EE4"></path>
                <path d="M177.868875,33.1452773 L166.765367,33.1452773 L166.765367,44.268264 L177.868875,44.268264 L177.868875,55.418891 L166.765367,55.418891 L166.765367,66.569518 L177.868875,66.569518 L177.868875,77.6925047 L189,77.6925047 L189,88.8431317 L177.868875,88.8431317 L177.868875,77.7201449 L166.765367,77.7201449 L166.765367,88.8431317 L177.868875,88.8431317 L177.868875,100 L166.737751,100 L166.737751,88.849373 L155.634243,88.849373 L155.634243,77.7263863 L144.503118,77.7263863 L144.503118,88.849373 L133.371993,88.849373 L133.371993,77.7263863 L122.268485,77.7263863 L122.268485,88.849373 L133.371993,88.849373 L133.371993,100 L122.239978,100 L122.239978,88.849373 L111.13736,88.849373 L111.13736,100 L100,100 L100,88.849373 L111.131125,88.849373 L111.131125,77.7263863 L100,77.7263863 L100,66.5748677 L111.131125,66.5748677 L111.131125,55.4242407 L100,55.4242407 L100,44.2736137 L111.131125,44.2736137 L111.131125,33.150627 L111.131125,33.1229867 L122.234633,33.1229867 L122.234633,22 L133.365757,22 L133.365757,33.1229867 L144.496882,33.1229867 L144.496882,22 L155.628897,22 L155.628897,33.1229867 L166.732406,33.1229867 L166.732406,22 L177.86353,22 L177.86353,33.1229867 L188.994655,33.1229867 L188.994655,44.2736137 L177.86353,44.2736137 L177.86353,33.1452773 L177.868875,33.1452773 Z M111,33.9727353 L111,23 L100,23 L100,34 L111,34 L111,33.9727353 Z M145,89 L145,100 L156,100 L156,89 L145,89 Z M178,66 L178,55 L189,55 L189,66 L178,66 Z M122,77 L111,77 L111,66 L122,66 L122,77 Z M122.263586,22 L122.263586,11 L133.367761,11 L133.367761,22 L144.499555,22 L144.499555,11 L155.632239,11 L155.632239,22 L166.764032,22 L166.764032,11 L177.868207,11 L177.868207,22 L189,22 L189,11 L177.868207,11 L177.868207,0 L166.736414,0 L166.736414,11 L155.632239,11 L155.632239,0 L144.499555,0 L144.499555,11 L133.367761,11 L133.367761,0 L122.235968,0 L122.235968,11 L111.131793,11 L111.131793,0 L100,0 L100,11 L111.131793,11 L111.131793,22 L122.263586,22 Z M166,44 L166,55 L155,55 L155,44 L166,44 Z M145,45 L145,34 L156,34 L156,45 L145,45 Z M134,44 L145,44 L145,55 L134,55 L134,44 Z M134,45 L123,45 L123,34 L134,34 L134,45 Z M134,66 L123,66 L123,55 L134,55 L134,66 Z M145,66 L145,77 L134,77 L134,66 L145,66 Z M156,66 L145,66 L145,55 L156,55 L156,66 Z M155,66 L166,66 L166,77 L155,77 L155,66 Z M122,55 L122,44 L111,44 L111,55 L122,55 Z M200,89 L189,89 L189,100 L200,100 L200,89 Z M189,66 L200,66 L200,77 L189,77 L189,66 Z M200,44 L189,44 L189,55 L200,55 L200,44 Z M189,23 L200,23 L200,34 L189,34 L189,23 Z M189,0 L200,0 L200,11 L189,11 L189,0 Z" id="Shape-Copy-8" fill="#261EE4"></path>
                <path d="M789,400 L800,400 L800,300 L789,300 L789,400 Z M777,400 L766,400 L766,300 L777,300 L777,400 Z M756,400 L745,400 L745,300 L756,300 L756,400 Z M723,400 L734,400 L734,300 L723,300 L723,400 Z M711,400 L700,400 L700,300 L711,300 L711,400 Z" id="Shape" fill="#261EE4"></path>
                <path d="M689,300 L700,300 L700,200 L689,200 L689,300 Z M677,300 L666,300 L666,200 L677,200 L677,300 Z M656,300 L645,300 L645,200 L656,200 L656,300 Z M623,300 L634,300 L634,200 L623,200 L623,300 Z M611,300 L600,300 L600,200 L611,200 L611,300 Z" id="Shape-Copy-6" fill="#261EE4"></path>
                <path d="M189,300 L200,300 L200,200 L189,200 L189,300 Z M177,300 L166,300 L166,200 L177,200 L177,300 Z M156,300 L145,300 L145,200 L156,200 L156,300 Z M123,300 L134,300 L134,200 L123,200 L123,300 Z M111,300 L100,300 L100,200 L111,200 L111,300 Z" id="Shape-Copy-9" fill="#261EE4"></path>
                <path d="M600,111 L600,100 L500,100 L500,111 L600,111 Z M600,123 L600,134 L500,134 L500,123 L600,123 Z M600,144 L600,155 L500,155 L500,144 L600,144 Z M600,177 L600,166 L500,166 L500,177 L600,177 Z M600,189 L600,200 L500,200 L500,189 L600,189 Z" id="Shape" fill="#261EE4"></path>
                <path d="M100,111 L100,100 L0,100 L0,111 L100,111 Z M100,123 L100,134 L0,134 L0,123 L100,123 Z M100,144 L100,155 L0,155 L0,144 L100,144 Z M100,177 L100,166 L0,166 L0,177 L100,177 Z M100,189 L100,200 L0,200 L0,189 L100,189 Z" id="Shape-Copy-10" fill="#261EE4"></path>
                <path d="M700,389 L700,400 L600,400 L600,389 L700,389 Z M700,355 L700,344 L600,344 L600,355 L700,355 Z M700,323 L700,334 L600,334 L600,323 L700,323 Z M700,300 L700,311 L600,311 L600,300 L700,300 Z M700,377 L700,366 L600,366 L600,377 L700,377 Z" id="Shape" fill="#261EE4"></path>
                <path d="M788.88879,400 L800,400 C800,455.227556 755.227758,500 700,500 L700,488.888889 C749.094306,488.888889 788.88879,449.094222 788.88879,400 Z M766.857015,400 L778,400 C778,443.078286 743.078356,478 700,478 L700,466.857143 C736.92201,466.857143 766.857015,436.92208 766.857015,400 Z M755,400 L744,400 C744,424.29856 724.298823,444 700,444 L700,455 C730.376171,455 755,430.37672 755,400 Z M722.666667,400 L734,400 C734,418.77888 718.779086,434 700,434 L700,422.666667 C712.517575,422.666667 722.666667,412.51744 722.666667,400 Z M700,400 L711,400 C711,406.07728 706.077348,411 700,411 L700,400 Z" id="Shape" fill="#FFFFFF"></path>
                <path d="M288.88879,200 L300,200 C300,255.227556 255.227758,300 200,300 L200,288.888889 C249.094306,288.888889 288.88879,249.094222 288.88879,200 Z M266.857015,200 L278,200 C278,243.078286 243.078356,278 200,278 L200,266.857143 C236.92201,266.857143 266.857015,236.92208 266.857015,200 Z M255,200 L244,200 C244,224.29856 224.298823,244 200,244 L200,255 C230.376171,255 255,230.37672 255,200 Z M222.666667,200 L234,200 C234,218.77888 218.779086,234 200,234 L200,222.666667 C212.517575,222.666667 222.666667,212.51744 222.666667,200 Z M200,200 L211,200 C211,206.07728 206.077348,211 200,211 L200,200 Z" id="Shape-Copy-11" fill="#FFFFFF"></path>
                <path d="M411.11121,500 L400,500 C400,444.772444 444.772242,400 500,400 L500,411.111111 C450.905694,411.111111 411.11121,450.905778 411.11121,500 Z M433.142985,500 L422,500 C422,456.921714 456.921644,422 500,422 L500,433.142857 C463.07799,433.142857 433.142985,463.07792 433.142985,500 Z M445,500 L456.000176,500 C456.000176,475.70056 475.700788,456 500,456 L500,445 C469.623343,445 445,469.62328 445,500 Z M477.332728,500 L466,500 C466,481.220213 481.220413,466 500,466 L500,477.333333 C487.48209,477.333333 477.332728,487.48256 477.332728,500 Z M500,500 L489,500 C489,493.92272 493.922652,489 500,489 L500,500 Z" id="Shape" fill="#261EE4"></path>
                <path d="M311.11121,100 L300,100 C300,44.7724444 344.772242,0 400,0 L400,11.1111111 C350.905694,11.1111111 311.11121,50.9057778 311.11121,100 Z M333.142985,100 L322,100 C322,56.9217143 356.921644,22 400,22 L400,33.1428571 C363.07799,33.1428571 333.142985,63.07792 333.142985,100 Z M345,100 L356.000176,100 C356.000176,75.70056 375.700788,56 400,56 L400,45 C369.623343,45 345,69.62328 345,100 Z M377.332728,100 L366,100 C366,81.2202133 381.220413,66 400,66 L400,77.3333333 C387.48209,77.3333333 377.332728,87.48256 377.332728,100 Z M400,100 L389,100 C389,93.92272 393.922652,89 400,89 L400,100 Z" id="Shape-Copy-3" fill="#FFFFFF"></path>
                <path d="M611.11121,100 L600,100 C600,44.7724444 644.772242,0 700,0 L700,11.1111111 C650.905694,11.1111111 611.11121,50.9057778 611.11121,100 Z M633.142985,100 L622,100 C622,56.9217143 656.921644,22 700,22 L700,33.1428571 C663.07799,33.1428571 633.142985,63.07792 633.142985,100 Z M645,100 L656.000176,100 C656.000176,75.70056 675.700788,56 700,56 L700,45 C669.623343,45 645,69.62328 645,100 Z M677.332728,100 L666,100 C666,81.2202133 681.220413,66 700,66 L700,77.3333333 C687.48209,77.3333333 677.332728,87.48256 677.332728,100 Z M700,100 L689,100 C689,93.92272 693.922652,89 700,89 L700,100 Z" id="Shape-Copy-7" fill="#FFFFFF" transform="translate(650.000000, 50.000000) rotate(-90.000000) translate(-650.000000, -50.000000) "></path>
                <path d="M411.11121,100 L400,100 C400,44.7724444 444.772242,0 500,0 L500,11.1111111 C450.905694,11.1111111 411.11121,50.9057778 411.11121,100 Z M433.142985,100 L422,100 C422,56.9217143 456.921644,22 500,22 L500,33.1428571 C463.07799,33.1428571 433.142985,63.07792 433.142985,100 Z M445,100 L456.000176,100 C456.000176,75.70056 475.700788,56 500,56 L500,45 C469.623343,45 445,69.62328 445,100 Z M477.332728,100 L466,100 C466,81.2202133 481.220413,66 500,66 L500,77.3333333 C487.48209,77.3333333 477.332728,87.48256 477.332728,100 Z M500,100 L489,100 C489,93.92272 493.922652,89 500,89 L500,100 Z" id="Shape-Copy-4" fill="#261EE4" transform="translate(450.000000, 50.000000) rotate(-180.000000) translate(-450.000000, -50.000000) "></path>
                <path d="M611.11121,700 L600,700 C600,644.772444 644.772242,600 700,600 L700,611.111111 C650.905694,611.111111 611.11121,650.905778 611.11121,700 Z M633.142985,700 L622,700 C622,656.921714 656.921644,622 700,622 L700,633.142857 C663.07799,633.142857 633.142985,663.07792 633.142985,700 Z M645,700 L656.000176,700 C656.000176,675.70056 675.700788,656 700,656 L700,645 C669.623343,645 645,669.62328 645,700 Z M677.332728,700 L666,700 C666,681.220213 681.220413,666 700,666 L700,677.333333 C687.48209,677.333333 677.332728,687.48256 677.332728,700 Z M700,700 L689,700 C689,693.92272 693.922652,689 700,689 L700,700 Z" id="Shape-Copy-2" fill="#FFFFFF" transform="translate(650.000000, 650.000000) scale(-1, 1) translate(-650.000000, -650.000000) "></path>
                <path d="M500,600 L600,600 L600,500 C544.772242,500 500,544.772444 500,600 Z" id="Path" fill="#261EE4" fill-rule="nonzero"></path>
                <path d="M700,700 L800,700 L800,600 C744.772242,600 700,644.772444 700,700 Z" id="Path" fill="#261EE4" fill-rule="nonzero"></path>
                <path d="M800,792.167111 L800,800 L792.16637,800 L700,707.833778 L700,700 L707.83274,700 L800,792.167111 Z M700,724 L700,739.631256 L760.369773,800 L776,800 L700,724 Z M700,770.721778 L700,755 L745,800 L729.27758,800 L700,770.721778 Z M700,800 L714,800 L700,786 L700,800 Z M724,700 L739.63093,700 L800,760.368744 L800,776 L724,700 Z M770.72242,700 L755,700 L800,745 L800,729.278222 L770.72242,700 Z M800,714 L786,700 L800,700 L800,714 Z" id="Shape" fill="#261EE4"></path>
                <path d="M800,192.167111 L800,200 L792.16637,200 L700,107.833778 L700,100 L707.83274,100 L800,192.167111 Z M700,124 L700,139.631256 L760.369773,200 L776,200 L700,124 Z M700,170.721778 L700,155 L745,200 L729.27758,200 L700,170.721778 Z M700,200 L714,200 L700,186 L700,200 Z M724,100 L739.63093,100 L800,160.368744 L800,176 L724,100 Z M770.72242,100 L755,100 L800,145 L800,129.278222 L770.72242,100 Z M800,114 L786,100 L800,100 L800,114 Z" id="Shape-Copy" fill="#261EE4" transform="translate(750.000000, 150.000000) rotate(-270.000000) translate(-750.000000, -150.000000) "></path>
                <path d="M300,192.167111 L300,200 L292.16637,200 L200,107.833778 L200,100 L207.83274,100 L300,192.167111 Z M200,124 L200,139.631256 L260.369773,200 L276,200 L200,124 Z M200,170.721778 L200,155 L245,200 L229.27758,200 L200,170.721778 Z M200,200 L214,200 L200,186 L200,200 Z M224,100 L239.63093,100 L300,160.368744 L300,176 L224,100 Z M270.72242,100 L255,100 L300,145 L300,129.278222 L270.72242,100 Z M300,114 L286,100 L300,100 L300,114 Z" id="Shape-Copy-12" fill="#261EE4" transform="translate(250.000000, 150.000000) rotate(-270.000000) translate(-250.000000, -150.000000) "></path>
            </g>
        </g>
        <g id="Group" transform="translate(437.000000, 184.000000)">
            <g id="bounties-2" transform="translate(124.000000, 0.000000)">
                <g id="bounties">
                    <path d="M262.765524,209.171992 C260.296122,206.856874 257.979623,204.384694 255.830566,201.77097 C253.125933,197.828369 250.768048,193.609095 247.994065,189.666494 C238.362547,175.241281 226.682493,162.286986 213.31928,151.208847 C209.109144,147.901672 204.734573,144.808225 200.212211,141.940278 C206.245623,138.827699 206.661721,134.262582 201.529853,130.319982 C199.94968,129.293182 198.278266,128.413351 196.536684,127.691581 C197.109961,127.258843 197.712414,126.865961 198.339772,126.515718 C200.736692,125.51167 202.492508,123.405408 203.044769,120.871644 C203.59703,118.33788 202.876411,115.694668 201.113755,113.788727 C200.489609,112.889537 201.113755,112.543695 201.460503,111.990348 C207.007998,105.512269 213.213207,99.624605 219.976838,94.4215665 C225.987978,89.2322465 233.94254,86.8647043 241.821953,87.9197341 C246.279465,88.5226607 250.816654,88.0724963 255.067721,86.605534 C262.526643,84.7089856 267.383528,77.5467043 266.371701,69.9359424 C265.969541,64.5810487 264.631757,59.3375221 262.418776,54.4422141 C259.593829,47.6026566 253.331969,42.7801787 245.982927,41.7843914 C241.340662,41.1978184 236.628073,41.5268381 232.113013,42.7527494 C224.395533,44.7282119 216.195852,43.015888 209.921151,38.1184646 C203.255225,33.2584184 197.602037,27.1501282 193.277254,20.1346729 C188.760928,13.1780197 182.559682,7.46874384 175.246365,3.53424968 C165.873332,-1.81910702 154.108601,-0.533954426 146.119546,6.71599746 C138.73881,13.981164 131.791911,21.6720806 125.314674,29.7490846 C120.486173,35.8171599 113.242118,39.480252 105.480697,39.7785069 C101.366683,39.9105024 97.3151888,38.7490428 93.8993188,36.4584223 C88.8987695,33.1392466 82.4689868,32.8465375 77.1860722,35.6975696 C73.2751346,37.5680636 69.5976101,39.8895312 66.2288401,42.6144126 C59.8522001,47.3898687 55.0279546,53.9337053 52.3589259,61.4282255 C50.4390104,66.0314558 52.6082994,71.3168774 57.2133959,73.256027 C65.0498974,77.2677959 73.3024963,80.17287 81.4163961,83.6312915 C87.7965566,86.2596918 94.0380179,89.1647659 100.348829,92.1390083 C108.740127,96.0816088 111.999557,104.796831 118.379717,110.883653 C113.819453,111.574996 110.292806,115.234263 109.78037,119.80638 C109.086875,124.994013 112.901101,126.723223 116.715328,129.07495 C113.802646,130.596655 110.959313,131.841687 109.78037,135.023435 C109.140322,138.038417 109.877243,141.181157 111.791508,143.60032 C102.342256,148.811887 93.3626932,154.828911 84.9532242,161.584112 C67.1994161,175.956459 51.332087,192.502758 37.7261665,210.832034 C25.9412275,226.448934 16.5891158,243.751788 9.98633819,262.155009 C2.16375251,282.507554 -1.07967991,304.325828 0.485446995,326.066638 C1.38392442,339.493546 6.01904772,352.404457 13.8699142,363.348422 C19.1596243,369.874462 25.8402124,375.143539 33.4264931,378.772982 C35.5069802,379.74134 37.6568169,380.571361 39.8066536,381.332214 C80.8462412,401.769539 127.979818,406.470585 172.264334,394.543384 C212.533381,403.598787 254.76404,395.285229 288.563564,371.648633 C289.960697,370.684468 291.16101,369.463816 292.100392,368.051875 C293.256242,366.966121 294.344732,365.811177 295.359822,364.593454 L297.024212,362.795074 C297.1443,362.517254 297.308188,362.260389 297.509659,362.034222 C304.487248,352.766682 309.23301,342.021941 311.379573,330.631755 C313.66748,316.42428 312.719383,301.885361 308.60559,288.09317 C299.963823,258.469694 284.232228,231.385178 262.765524,209.171992 Z" id="Path" fill="#000000" fill-rule="nonzero"></path>
                    <path d="M11.6507279,310.849584 C11.799546,287.657204 19.059451,265.065464 32.4555991,246.107933 C43.0788398,230.399832 55.8201246,216.22552 70.3204647,203.984359 C70.3204647,203.984359 70.3204647,203.638517 70.9446109,203.08517 C67.4309843,203.48459 64.0089038,204.466453 60.8195735,205.990244 C57.4818458,207.531465 54.2602456,209.311431 51.1799832,211.316213 C53.6514952,207.066254 56.4574101,203.018712 59.5712813,199.211738 C66.892814,189.807985 90.8722225,160.021608 104.024356,158.217915 C107.719174,157.711205 86.9116791,189.640954 94.7777467,192.80213 C100.242509,194.998282 129.966298,158.858504 131.764184,158.217915 C135.925159,156.903715 144.316457,168.777629 143.83101,172.23605 C143.11463,176.671458 142.812819,181.163642 142.929465,185.654726 C142.929465,190.980695 149.795073,193.747432 151.112715,189.735663 C152.647839,186.236569 154.408373,182.84022 156.383282,179.567904 C159.23151,173.994072 163.006788,168.942332 167.548563,164.627523 C170.338878,161.298659 174.717291,159.737135 178.991242,160.546585 C182.513037,161.378255 185.731709,163.175045 188.284085,165.734218 C195.978357,173.650605 202.221826,182.850884 206.73107,192.917411 C207.255975,194.152863 208.008739,195.27906 208.950257,196.237495 C209.190171,194.887706 209.190171,193.506347 208.950257,192.156558 C208.233865,185.782759 208.847769,179.330057 210.753346,173.204408 C211.72424,169.330976 213.111231,168.915965 216.023913,171.751871 C219.800141,175.182965 223.323014,178.881567 226.565048,182.81882 C227.289293,183.993568 228.320041,184.949899 229.547079,185.585557 L229.547079,186.208073 C229.457064,186.008861 229.340422,185.822722 229.200331,185.654726 C229.150929,184.775523 228.889218,183.921252 228.437486,183.164662 C225.306191,176.850095 221.467469,170.909816 216.994807,165.457544 C217.133506,164.904197 216.023913,164.558354 216.925457,163.659165 C226.292419,172.652958 234.747713,182.545761 242.168701,193.194084 C244.216256,195.784628 246.048537,198.537436 247.647317,201.425128 L247.16187,201.840138 C242.776584,199.735025 238.675591,197.085638 234.956346,193.954937 L233.153257,192.709905 L232.737159,192.364063 C232.390412,192.364063 232.737159,192.848242 232.737159,193.124916 C234.957914,196.525034 237.722291,199.539213 240.920409,202.047643 C252.680621,212.53583 263.072079,224.457117 271.850317,237.531048 C284.445183,255.962467 294.019528,276.275238 300.214292,297.707582 C303.629089,308.939791 303.988101,320.875619 301.254535,332.291797 C298.577878,343.165852 291.663939,352.526324 282.044704,358.299126 C281.992501,357.5421 217.83765,371.935998 218.451148,371.48724 C223.117475,366.726745 190.477858,353.423022 122.517575,356.500747 C105.157927,357.286916 139.108889,369.39404 137.543315,377.251276 C136.313602,383.422912 101.747146,384.774503 93.6219205,384.168119 C87.9091784,383.741778 8.09078325,380.709698 11.6507279,310.849584 Z M119.050096,346.125483 C127.667756,346.125483 94.7777467,308.082846 91.3102682,271.193017 C87.8427896,234.303188 103.395407,204.330202 94.7777467,204.330202 C86.1600869,204.330202 72.8170493,227.386345 78.5961802,271.193017 C84.3753111,314.999689 110.432437,346.125483 119.050096,346.125483 Z" id="Shape" fill="#FEFEFE" fill-rule="nonzero"></path>
                    <path d="M134.884915,63.4341099 C141.023608,74.6406211 143.451038,87.4966067 141.819872,100.162546 C141.851857,100.484544 141.851857,100.808906 141.819872,101.130904 C141.265076,102.583441 141.057027,104.450989 139.323288,105.073505 C137.589548,105.696021 136.133207,104.312652 134.954265,103.06762 C131.946081,99.6229233 129.425995,95.7828491 127.464511,91.6548293 C121.361749,80.5878806 115.328336,69.4517633 109.78037,58.0389724 C109.600611,57.5911401 109.461357,57.128174 109.364273,56.6556038 C110.681915,56.6556038 111.930207,57.969804 113.317199,56.6556038 L108.18533,53.3355192 C107.532943,51.7070356 107.625252,49.8757269 108.438108,48.3207154 C109.250963,46.7657039 110.703486,45.6417139 112.415654,45.2428129 C118.349408,43.4597471 123.551921,39.8226508 127.256462,34.8675484 C130.585242,31.2707901 133.567273,27.4665264 136.757354,23.7314312 C137.728248,22.6247363 143.068164,16.4687461 143.83101,15.9153986 C148.317405,12.138382 153.723805,9.60926038 159.504013,8.58354506 C166.351486,7.54981069 173.19011,10.5036836 177.118804,16.1920723 C178.581404,17.8811193 181.312572,23.0411855 182.620536,29.1035126 C183.899025,35.029222 183.773509,41.8519716 183.568314,44.136118 C183.349854,48.0804662 178.781165,72.6296267 177.118804,77.5444696 C174.679832,86.1103602 171.715329,94.5186468 168.242059,102.721778 C167.115042,105.696267 165.523458,108.474264 163.526288,110.952821 C160.891004,113.857895 158.602468,113.65039 156.591331,110.399474 C154.303206,106.25248 152.688152,101.770157 151.80621,97.1191353 C149.023715,85.091252 144.341998,73.5809613 137.936296,63.0190994 C135.08164,58.661358 131.678922,54.6863921 127.811259,51.1912979 C127.464511,51.1912979 127.117763,50.2229398 126.424267,50.568782 C130.40031,56.1022564 133.220525,60.390699 134.884915,63.4341099 Z" id="Shape" fill="#C4C3C6" fill-rule="nonzero"></path>
                    <path d="M218.520497,48.7012344 C220.780576,49.6558997 221.859505,52.2385644 220.947732,54.5113825 C220.431113,56.2210923 219.634389,57.8337504 218.589847,59.2840042 C217.549603,60.5982043 216.578709,61.9815729 215.538466,63.3649415 C216.162612,63.9874574 216.44001,63.3649415 216.925457,63.3649415 C222.265374,60.2523622 226.981145,56.4480985 232.113013,52.9205086 C232.805671,52.2119708 233.756111,51.8128308 234.748297,51.8138137 C240.870924,51.4718698 246.396818,55.4539726 247.994065,61.3590571 C248.135868,61.6481647 248.384412,61.87127 248.687561,61.9815729 C250.074552,62.5349204 250.4213,63.8491205 250.906747,65.0249838 C252.872688,68.6284574 251.65103,73.1367844 248.132764,75.2619115 C242.566216,73.6918144 236.62257,74.132749 231.350168,76.5069432 C230.726022,76.5069432 230.240575,77.2677959 229.547079,77.0602906 C229.366651,76.6363581 229.017757,76.3062373 228.583805,76.1488487 C228.149852,75.9914601 227.669848,76.0209504 227.258543,76.2302695 L227.258543,76.2302695 C226.079601,75.1235746 225.594154,76.2302695 225.316755,77.0602906 C225.039357,77.8903118 225.316755,78.720333 224.900658,79.5503541 C223.265429,81.407221 221.287813,82.9335223 219.075294,84.0463021 C218.243099,82.109586 218.17375,82.109586 216.370661,83.7004599 L217.272205,84.0463021 C217.678205,84.1319421 217.984748,84.465479 218.03505,84.8763232 C216.349363,87.0296334 214.417643,88.9795204 212.279036,90.6864713 C206.661721,96.6349563 200.905706,102.514273 195.149692,108.324421 C193.713476,110.215113 191.689141,111.577361 189.393678,112.197853 C186.758394,112.682032 186.134248,112.197853 186.758394,109.431116 C187.815421,105.664797 189.378399,102.058397 191.404815,98.7100092 C192.640546,95.9101487 194.199917,93.2638205 196.051237,90.8248082 L196.744732,90.8248082 C197.715626,90.8248082 199.310666,91.9315031 199.588065,90.8248082 C199.865463,89.7181133 197.715626,90.2714607 196.883431,89.510608 C198.894569,85.2913338 201.599202,81.4870701 203.818388,77.4061328 C204.234486,76.7836169 204.927982,76.2302695 204.789282,75.0544062 C202.607566,77.1671115 200.633657,79.4832923 198.894569,81.9712492 C195.080343,86.605534 191.404815,91.3781556 187.590589,95.8049351 C186.984992,96.5586785 186.285908,97.2326945 185.510102,97.8108196 C184.19246,98.848346 183.152216,98.7791776 182.736119,96.91163 C182.766811,96.5202733 182.766811,96.1271234 182.736119,95.7357667 C185.133228,84.1368069 189.222084,72.9509516 194.872294,62.5349204 C198.770427,53.1715089 208.424148,47.5242915 218.520497,48.7012344 Z M234.470899,61.0132149 C232.251712,61.0132149 231.211469,63.3649415 229.40838,64.402468 C228.784234,64.402468 227.81334,65.2324891 228.368136,66.2700156 C228.922933,67.307542 229.685778,66.2700156 230.309924,66.2700156 C232.402125,65.0509183 234.875758,64.6561706 237.244882,65.1633207 C238.215776,65.1633207 239.11732,63.8491205 239.11732,62.6040888 C239.11732,61.3590571 238.354475,60.8057096 237.106182,61.3590571 C236.27219,61.7803785 235.28152,61.7543763 234.470899,61.2898886 L234.470899,61.0132149 Z M208.880907,73.6710376 C209.539031,74.9350885 210.461316,76.0436567 211.58554,76.9219538 C211.793589,75.1235746 211.793589,75.1235746 208.880907,73.9477113 L208.880907,73.6710376 Z" id="Shape" fill="#C4C3C6" fill-rule="nonzero"></path>
                    <path d="M88.0739549,45.1736445 C93.7232059,46.6541617 98.6477128,50.1168708 101.943869,54.9263931 C110.983655,67.8869681 117.543381,82.4026132 121.292399,97.7416512 C121.292399,97.7416512 121.292399,98.364167 121.292399,98.7100092 L114.357442,91.7931662 C114.912239,91.7931662 114.77354,91.1706503 114.357442,90.8248082 C109.107672,84.198805 102.806043,78.4743942 95.7024076,73.8785429 C93.772821,72.7188802 80.0144298,69.5527769 75.1287016,63.6877275 C74.5046803,62.938624 75.4743004,61.0260377 75.1287016,60.229306 C74.0822238,57.8167914 72.5022636,51.110519 73.9728755,48.7012344 C76.2206042,45.0188091 82.3765148,46.039308 83.2194849,45.9344972 L88.0739549,45.1736445 Z M105.688746,71.80349 C106.39557,71.6730897 107.091161,71.4880833 107.769233,71.2501425 C108.462729,71.2501425 108.878826,70.3509529 108.393379,69.6592686 C107.907932,68.9675843 107.422485,69.1059212 107.006388,69.6592686 C106.59029,70.2126161 105.341998,70.6967951 104.717852,69.2442581 C104.093706,67.791721 102.776064,67.5842157 101.458422,67.2383736 C100.14078,66.8925314 100.14078,67.2383736 100.21013,68.2067316 C101.756108,69.7842277 103.624713,71.0109827 105.688746,71.80349 L105.688746,71.80349 Z M95.9104563,67.7225526 C95.4250094,67.7225526 94.8702128,68.0683948 95.2169606,68.4142369 C95.5637085,68.760079 96.3265538,70.9043004 97.7135452,71.1809741 C99.1005366,71.4576478 98.4070409,70.4892898 98.4070409,69.9359424 C98.4070409,69.3825949 97.0893991,68.0683948 95.9104563,67.7225526 L95.9104563,67.7225526 Z M95.0782615,63.0190994 C96.4652529,64.402468 98.1296426,64.2641311 99.516634,64.7483101 C98.4070409,63.5032784 97.0893991,62.5349204 95.0782615,63.0190994 L95.0782615,63.0190994 Z" id="Shape" fill="#C4C3C6" fill-rule="nonzero"></path>
                    <path d="M218.520497,48.7012344 C208.424148,47.5242915 198.770427,53.1715089 194.872294,62.5349204 C189.361282,72.90524 185.390001,84.0190811 183.082867,95.5282614 C183.113559,95.9196181 183.113559,96.312768 183.082867,96.7041247 C182.316591,93.0081259 182.316591,89.1948379 183.082867,85.4988391 C183.997301,75.3935589 185.831055,65.3921335 188.561483,55.6180774 C189.398556,52.7396284 190.635752,49.9923124 192.23701,47.4562027 C194.08744,43.5772865 198.653994,41.8161646 202.639446,43.4444337 C207.008469,44.7586339 211.377492,46.1420025 215.677165,47.5945395 C216.726313,47.6165863 217.733695,48.008684 218.520497,48.7012344 L218.520497,48.7012344 Z" id="Path" fill="#FEFEFE" fill-rule="nonzero"></path>
                    <path d="M88.0739549,45.1736445 L83.2194849,45.9344972 C80.1662004,46.2678609 77.4331094,47.9747656 75.7990808,50.568782 C75.3829834,51.1912979 75.1749347,51.6063084 75.7990808,52.2288243 C77.8102184,53.8888666 76.2151783,54.3730456 74.8281868,54.7880562 L74.8281868,54.7880562 C74.8281868,52.989677 73.4411954,51.8138137 73.1637971,50.084603 L71.9155049,51.3988032 C70.5557014,52.9922929 69.9922547,55.1140999 70.3829579,57.1700122 C70.7736612,59.2259245 72.0765103,60.9949132 73.9266424,61.9815729 C74.3427398,61.9815729 74.8281868,62.6732572 75.2442843,61.9815729 C75.417703,61.6329493 75.417703,61.2235017 75.2442843,60.874878 C74.5507886,59.5606779 75.2442843,58.5231514 75.7990808,57.2781197 C76.7699748,58.8689936 78.9198115,60.0448569 77.6021697,62.4657519 C76.2845278,64.886647 78.0876167,64.0566258 78.7811124,64.4716364 C84.329078,67.5842157 89.9463933,70.4892898 95.3556598,73.740206 C102.459295,78.3360573 108.760924,84.0604682 114.010694,90.6864713 C114.010694,91.0323135 114.426792,91.3781556 114.010694,91.6548293 C103.751808,82.7772912 92.0172558,75.7549503 79.3359089,70.9043004 C74.7588373,68.9675843 70.2511152,66.9616999 65.4659948,64.886647 C63.7166012,64.1720254 62.4104831,62.672506 61.9455534,60.844922 C61.4806236,59.017338 61.9119433,57.0781276 63.1081094,55.6180774 C66.4066382,50.2643187 71.7779272,46.5092305 77.9489175,45.2428129 C81.2623675,44.3558171 84.7486338,44.3320009 88.0739549,45.1736445 Z" id="Path" fill="#FEFEFE" fill-rule="nonzero"></path>
                    <path d="M248.132764,75.3310799 C251.65103,73.2059528 252.872688,68.6976259 250.906747,65.0941523 C250.4213,63.918289 250.074552,62.6040888 248.687561,62.0507414 C248.384412,61.9404384 248.135868,61.7173331 247.994065,61.4282255 C246.396818,55.523141 240.870924,51.5410382 234.748297,51.8829822 C238.633437,49.7094001 243.328867,49.5292784 247.369919,51.3988032 C255.222796,55.7572204 259.514807,64.5397647 258.119102,73.3943639 C257.728592,75.9281776 256.332615,78.1988201 254.245501,79.6950146 C252.158388,81.1912092 249.555588,81.78718 247.023171,81.3487333 C243.456584,80.9009929 239.868226,80.6470004 236.273988,80.5878806 C240.070031,78.5028348 244.037308,76.7442062 248.132764,75.3310799 L248.132764,75.3310799 Z" id="Path" fill="#FEFEFE" fill-rule="nonzero"></path>
                    <path d="M166.43897,123.679812 C168.948206,126.204143 171.662051,128.51761 174.55287,130.596655 C169.587288,132.651898 163.856481,131.051463 160.682955,126.723223 C162.555394,123.057296 162.694093,122.988128 165.745474,123.679812 L166.43897,123.679812 Z" id="Path" fill="#C4C3C6" fill-rule="nonzero"></path>
                    <path d="M176.910755,123.679812 L183.845712,128.383266 C180.996617,129.711744 177.724896,129.812044 174.799377,128.660594 C171.873858,127.509145 169.552483,125.207469 168.380758,122.296444 C168.380758,122.296444 168.380758,122.296444 168.380758,121.950602 C170.09117,121.314036 172.005059,121.546198 173.512626,122.573117 C174.507245,123.27591 175.691966,123.661747 176.910755,123.679812 Z" id="Path" fill="#C4C3C6" fill-rule="nonzero"></path>
                    <path d="M146.95174,127.069065 C149.212226,129.717362 151.825534,132.044578 154.718892,133.985908 C155.06564,133.985908 155.689786,134.470087 155.551087,135.023435 C155.412388,135.576782 154.718892,135.645951 154.233445,135.784288 C150.375113,136.762422 146.285905,135.630959 143.484262,132.810045 C142.860116,129.213287 142.860116,129.282455 146.188895,127.76075 C146.466293,127.553244 146.674342,127.276571 146.95174,127.069065 Z" id="Path" fill="#C4C3C6" fill-rule="nonzero"></path>
                    <path d="M156.591331,125.616528 C159.014496,127.861291 161.586229,129.941034 164.289133,131.841687 C164.913279,132.256698 165.537425,132.879214 164.289133,133.363393 C160.013728,134.529676 155.447573,133.128375 152.569056,129.766634 C152.569056,126.584886 153.747998,125.685697 156.591331,125.616528 Z" id="Path" fill="#C4C3C6" fill-rule="nonzero"></path>
                    <path d="M131.764184,134.885098 L138.005646,137.582667 C135.797676,140.687048 131.489896,141.428895 128.366055,139.242709 C127.256462,138.343519 126.216219,137.305993 125.106626,136.337635 C123.997033,135.369277 125.106626,134.470087 126.771015,134.400919 C128.445926,134.425031 130.115984,134.586974 131.764184,134.885098 Z" id="Path" fill="#C4C3C6" fill-rule="nonzero"></path>
                    <path d="M138.005646,130.596655 C140.457746,132.182224 142.776989,133.963377 144.940603,135.922624 C144.940603,135.922624 145.911497,136.475972 145.634099,137.029319 C145.3567,137.582667 144.871253,137.513498 144.385806,137.651835 C143.463673,137.96282 142.464608,137.96282 141.542474,137.651835 C139.428354,137.154883 137.380069,136.411998 135.439712,135.438445 C134.399468,131.495845 134.746216,130.873329 138.005646,130.665824 L138.005646,130.665824 L138.005646,130.596655 Z" id="Path" fill="#C4C3C6" fill-rule="nonzero"></path>
                    <path d="M117.89427,113.996232 C118.566505,113.926839 119.198277,114.327825 119.419961,114.96459 C121.247169,117.931378 122.296513,121.309052 122.471342,124.786507 C122.471342,126.44655 122.471342,126.584886 120.252156,125.893202 L119.48931,125.339855 L119.48931,125.339855 C119.406447,124.865566 119.216752,124.416216 118.934514,124.025655 C117.114279,121.001607 116.733243,117.327881 117.89427,113.996232 Z" id="Path" fill="#C4C3C6" fill-rule="nonzero"></path>
                    <path d="M196.814082,123.126465 C192.936435,123.81164 189.061596,121.907286 187.243841,118.423012 C186.827744,116.417127 188.630832,115.310432 191.682214,115.725443 C190.225873,118.215506 192.098311,118.907191 193.762701,119.529707 C195.42709,120.152222 196.883431,120.913075 196.814082,123.126465 Z" id="Path" fill="#C4C3C6" fill-rule="nonzero"></path>
                    <path d="M124.41313,137.790172 C125.453373,138.827699 127.533861,139.726888 127.048414,141.110257 C126.562967,142.493625 124.41313,142.216952 122.887439,142.355288 C120.900215,142.755536 118.835029,142.436759 117.062075,141.456099 C117.062075,137.582667 117.408823,137.305993 121.22305,137.651835 C122.263293,137.790172 123.303537,138.620193 124.41313,137.790172 Z" id="Path" fill="#C4C3C6" fill-rule="nonzero"></path>
                    <path d="M177.118804,119.875549 C177.606565,118.511605 178.7825,117.50762 180.208881,117.237316 C181.635262,116.967011 183.098439,117.470874 184.053761,118.561349 C186.197457,120.965123 188.645176,123.080939 191.335466,124.855676 C192.23701,125.54736 192.167661,125.616528 191.335466,126.100707 C188.058165,124.904415 184.956131,123.27603 182.111973,121.258917 C180.894781,119.811943 178.909857,119.262016 177.118804,119.875549 Z" id="Path" fill="#FEFEFE" fill-rule="nonzero"></path>
                    <path d="M123.511586,116.901306 C123.511586,114.895422 124.274431,114.342074 126.00817,115.033759 C128.512035,115.911102 130.510916,117.829054 131.486786,120.290559 C131.852164,121.161295 131.85242,122.14176 131.487498,123.012685 C131.122576,123.883611 130.42292,124.572339 129.544998,124.924844 C128.708144,125.396719 127.710055,125.49298 126.798056,125.189775 C125.886057,124.886569 125.145494,124.212271 124.759878,123.33397 C126.146869,122.711454 128.296706,123.33397 128.643454,121.12058 C128.705697,119.567026 127.906259,118.105219 126.562967,117.316317 C125.655782,116.739162 124.540585,116.587487 123.511586,116.901306 Z" id="Path" fill="#C4C3C6" fill-rule="nonzero"></path>
                    <path d="M179.823437,140.07273 C177.234298,140.435338 174.597939,139.924051 172.333683,138.620193 C170.669294,137.721004 170.669294,136.475972 172.333683,135.576782 C173.910878,134.616671 175.779589,134.24881 177.604251,134.539256 C178.713844,136.406803 180.308884,137.790172 179.823437,140.07273 Z" id="Path" fill="#C4C3C6" fill-rule="nonzero"></path>
                    <path d="M177.118804,119.875549 C178.805401,119.413303 180.608663,119.950185 181.765225,121.258917 C184.609383,123.27603 187.711417,124.904415 190.988718,126.100707 C185.442388,128.009433 179.36483,125.281675 177.118804,119.875549 L177.118804,119.875549 Z" id="Path" fill="#C4C3C6" fill-rule="nonzero"></path>
                    <path d="M195.56579,139.381046 C193.144905,137.770411 191.853658,134.926354 192.23701,132.049192 C192.999855,130.458318 194.248148,129.766634 195.912537,131.219171 C195.912537,132.325866 196.536684,133.155887 196.883431,134.193414 C197.769946,136.011877 197.213435,138.202893 195.56579,139.381046 Z" id="Path" fill="#C4C3C6" fill-rule="nonzero"></path>
                    <path d="M124.41313,137.790172 C123.303537,138.896867 122.263293,137.790172 121.22305,137.790172 C117.408823,137.44433 117.062075,137.790172 117.062075,141.594436 C114.91037,140.646703 113.921587,138.150382 114.842889,135.991793 C116.169414,134.348074 118.509439,133.93447 120.321505,135.023435 C121.813818,135.740939 123.1924,136.673129 124.41313,137.790172 L124.41313,137.790172 Z" id="Path" fill="#FEFEFE" fill-rule="nonzero"></path>
                    <path d="M188.006686,139.865225 C186.476823,139.601022 185.096053,138.789479 184.12311,137.582667 C183.082867,136.406803 181.765225,134.954266 183.152216,133.363393 C183.756707,132.70179 184.612649,132.32475 185.510102,132.32475 C186.407555,132.32475 187.263497,132.70179 187.867987,133.363393 C188.693853,135.444078 188.743073,137.751387 188.006686,139.865225 Z" id="Path" fill="#C4C3C6" fill-rule="nonzero"></path>
                    <path d="M117.89427,113.996232 C116.601374,117.419601 116.959429,121.245887 118.865164,124.371497 C119.147402,124.762058 119.337098,125.211408 119.419961,125.685697 C117.134539,125.268738 115.244347,123.670106 114.458397,121.489449 C113.672448,119.308792 114.109546,116.875738 115.605734,115.102927 C116.29923,114.411243 116.923376,113.788727 117.89427,113.996232 Z" id="Path" fill="#FEFEFE" fill-rule="nonzero"></path>
                    <path d="M155.205544,272.743322 C165.804578,245.834137 176.371667,233.198022 186.906809,234.834977 C192.79644,235.750111 201.828698,244.642928 202.754732,241.236946 C204.313378,235.504197 193.375958,215.477527 182.193357,213.801669 C164.366869,211.130139 153.991152,229.195884 153.990626,248.184645 C153.990275,260.84382 154.395248,269.030045 155.205544,272.743322 Z" id="Oval" fill="#C4C3C6" transform="translate(178.447141, 243.140655) rotate(-9.000000) translate(-178.447141, -243.140655) "></path>
                    <path d="M177.183533,250.752878 C169.341602,263.760537 163.690642,279.816115 160.40769,298.416614 C160.451364,299.168426 160.451364,299.889974 160.40769,300.574677 C159.317314,292.953665 159.317314,285.955134 160.40769,280.009607 C161.70889,262.463096 164.318243,246.112252 168.203523,231.159 C169.394642,226.791323 171.155117,223.101755 173.433638,220.19783 C176.06672,215.101863 182.564727,216.862129 188.235852,224.207649 C194.452782,231.396103 200.669712,238.711501 206.78796,246.078027 C208.280852,247.265487 209.714313,249.08644 210.833899,251.217662 C196.467233,238.01963 182.730407,237.829895 177.183533,250.752878 Z" id="Path" fill="#000000" fill-rule="nonzero"></path>
                    <path d="M123.511586,116.901306 C124.540585,116.587487 125.655782,116.739162 126.562967,117.316317 C127.906259,118.105219 128.705697,119.567026 128.643454,121.12058 C128.296706,123.126465 126.146869,122.711454 124.759878,123.33397 C123.623139,121.393466 123.182874,119.124705 123.511586,116.901306 L123.511586,116.901306 Z" id="Path" fill="#FEFEFE" fill-rule="nonzero"></path>
                    <path d="M195.56579,139.381046 C197.213435,138.202893 197.769946,136.011877 196.883431,134.193414 C196.536684,133.155887 195.843188,132.325866 195.912537,131.219171 C197.568774,132.374829 199.061618,133.747449 200.35091,135.300109 C200.886818,135.891419 201.106516,136.70288 200.941878,137.482869 C200.777239,138.262858 200.248166,138.917094 199.518715,139.242709 C198.339772,140.003562 196.952781,141.317762 195.56579,139.381046 Z" id="Path" fill="#FEFEFE" fill-rule="nonzero"></path>
                    <path d="M131.764184,134.885098 C130.115984,134.586974 128.445926,134.425031 126.771015,134.400919 C125.314674,134.400919 124.898577,135.092603 125.106626,136.337635 C123.659121,135.53552 122.367325,134.481356 121.292399,133.225056 C124.829227,130.458318 126.632316,130.804161 131.764184,134.885098 Z" id="Path" fill="#FEFEFE" fill-rule="nonzero"></path>
                    <path d="M196.814082,123.126465 C196.814082,120.913075 195.288391,120.221391 193.554652,119.529707 C191.820913,118.838022 190.017824,118.215506 191.474165,115.725443 C194.474699,115.507599 197.220092,117.409942 198.062374,120.290559 C198.409122,121.535591 198.547821,122.780623 196.814082,123.126465 Z" id="Path" fill="#FEFEFE" fill-rule="nonzero"></path>
                    <path d="M139.184588,119.183864 C139.994042,119.094237 140.796447,119.404033 141.334425,120.013886 C142.305319,120.913075 142.23597,121.743096 140.918328,122.158107 C139.120103,122.609027 137.237936,122.609027 135.439712,122.158107 C133.983371,122.158107 133.775322,120.70557 133.775322,119.529707 C133.775322,118.353843 133.775322,117.523822 135.231663,117.662159 C135.10504,119.00543 136.045714,120.216032 137.3815,120.428896 C138.699142,120.843907 139.045889,120.221391 139.184588,119.183864 Z" id="Path" fill="#C4C3C6" fill-rule="nonzero"></path>
                    <path d="M137.658898,130.458318 C134.399468,130.458318 134.05272,131.28834 135.092964,135.23094 C133.639927,134.517913 132.30646,133.584591 131.140038,132.464203 C129.544998,131.150003 130.238494,130.250813 131.764184,129.766634 C133.703448,128.875049 135.980046,129.142184 137.658898,130.458318 L137.658898,130.458318 Z" id="Path" fill="#FEFEFE" fill-rule="nonzero"></path>
                    <path d="M156.591331,125.616528 C153.747998,125.616528 152.846454,126.584886 152.291657,129.766634 C152.07956,129.668685 151.890525,129.527279 151.736861,129.351624 C150.696617,128.106592 148.477431,127.069065 150.488569,124.994013 C152.390589,123.642296 155.00303,123.908779 156.591331,125.616528 L156.591331,125.616528 Z" id="Path" fill="#FEFEFE" fill-rule="nonzero"></path>
                    <path d="M146.95174,127.069065 C146.95174,127.069065 146.466293,127.553244 146.188895,127.622413 C142.860116,129.144118 142.860116,129.07495 143.484262,132.671708 L143.068164,132.671708 C141.889222,131.28834 139.739385,130.181645 140.918328,127.829918 C142.09727,125.478192 144.524505,125.962371 146.95174,127.069065 Z" id="Path" fill="#FEFEFE" fill-rule="nonzero"></path>
                    <path d="M176.910755,123.679812 C175.691966,123.661747 174.507245,123.27591 173.512626,122.573117 C172.005059,121.546198 170.09117,121.314036 168.380758,121.950602 C169.048727,120.740851 170.259958,119.925989 171.634781,119.761442 C173.009604,119.596894 174.379741,120.1028 175.315715,121.12058 C176.047311,121.832264 176.594677,122.710508 176.910755,123.679812 Z" id="Path" fill="#FEFEFE" fill-rule="nonzero"></path>
                    <path d="M166.43897,123.679812 L165.468076,123.679812 C162.416695,122.988128 162.277996,123.057296 160.405557,126.723223 C159.504013,125.54736 157.978322,124.440665 159.781411,122.91896 C161.848398,121.359261 164.779278,121.694214 166.43897,123.679812 L166.43897,123.679812 Z" id="Path" fill="#FEFEFE" fill-rule="nonzero"></path>
                    <path d="M188.006686,139.865225 C188.804898,137.747234 188.804898,135.412215 188.006686,133.294224 C189.783637,134.556089 190.981927,136.473325 191.335466,138.620193 C191.682214,140.280236 190.64197,140.626078 188.006686,139.865225 Z" id="Path" fill="#FEFEFE" fill-rule="nonzero"></path>
                    <path d="M179.823437,140.07273 C180.378234,137.790172 178.713844,136.406803 177.604251,134.746761 C179.345859,134.526544 180.968965,135.665746 181.349128,137.375161 C181.834575,138.620193 181.557176,139.934393 179.823437,140.07273 Z" id="Path" fill="#FEFEFE" fill-rule="nonzero"></path>
                    <path d="M139.184588,119.183864 C139.184588,120.221391 138.421743,120.843907 137.3815,120.636401 C136.045714,120.423537 135.10504,119.212935 135.231663,117.869664 C136.691017,117.555648 138.206008,118.059327 139.184588,119.183864 Z" id="Path" fill="#FEFEFE" fill-rule="nonzero"></path>
                    <path d="M122.540692,98.2258302 C122.528139,98.4100669 122.528139,98.5949409 122.540692,98.7791776 L122.540692,98.7791776 L122.540692,98.1566617 L122.540692,98.2258302 Z" id="Path" fill="#BFAF9F" fill-rule="nonzero"></path>
                    <path d="M138.005646,130.596655 L137.589548,130.596655 L138.005646,130.596655 Z" id="Path" fill="#FEFEFE" fill-rule="nonzero"></path>
                    <path d="M119.48931,125.616528 L120.252156,126.169876 C119.905408,126.169876 119.419961,126.239044 119.48931,125.616528 Z" id="Path" fill="#FEFEFE" fill-rule="nonzero"></path>
                    <path d="M147.991984,152.453879 C149.170927,152.938058 148.824179,154.113922 149.170927,154.874774 C149.288287,155.143459 149.240488,155.45549 149.048041,155.676964 C148.855595,155.898438 148.552717,155.989978 148.269382,155.912301 C147.506537,155.912301 146.535643,155.289785 146.604993,154.18309 C146.674342,153.076395 147.298488,152.938058 147.991984,152.453879 Z" id="Path" fill="#FEFEFE" fill-rule="nonzero"></path>
                    <path d="M169.314958,56.6824626 C169.283939,69.8316695 168.117953,82.9541812 165.829736,95.9066636 C165.592457,97.8375271 164.855793,99.6749998 163.691077,101.241155 C162.819771,102.417881 161.869256,102.653226 160.760322,101.241155 C158.678988,98.9407765 157.041301,96.2818431 155.928537,93.3963147 C151.651219,83.9040581 148.007577,74.0195594 143.334211,64.762648 C141.263987,60.5566158 138.908721,56.4941662 136.284557,52.6031457 C132.099124,45.6459184 132.83072,36.8251277 138.106378,30.6375931 C140.878714,27.5781054 143.967888,24.753963 146.977853,21.9298205 C148.916834,20.0600384 151.322231,18.733541 153.948297,18.0858488 C158.304404,17.7696845 162.368779,20.2736221 164.007915,24.2832725 C168.063882,34.5915616 169.872477,45.6329312 169.314958,56.6824626 Z" id="Path" fill="#FEFEFE" fill-rule="nonzero"></path>
                    <path d="M280.310965,271.35441 C277.824473,267.566816 274.22305,264.503316 270.463326,261.878335 C269.284383,261.048314 268.868286,261.324988 268.937635,262.708356 C268.903151,263.191925 268.903151,263.677325 268.937635,264.160893 C269.851748,272.169257 269.477163,280.271856 267.828042,288.162339 C265.659508,299.884654 260.923551,310.985083 253.958128,320.671501 C247.21548,329.641203 238.320504,336.776652 228.090738,341.42203 C226.631725,341.630256 225.222237,342.098858 223.929764,342.805398 C221.060047,344.192557 218.064519,345.30426 214.983669,346.125483 C207.797239,348.162051 200.39505,349.346093 192.930506,349.653073 C183.412163,350.240057 173.858281,349.822732 164.427832,348.408041 C150.34103,346.466146 136.914606,341.228111 125.245325,333.121818 C116.126685,326.948962 108.614332,318.697473 103.33086,309.051204 C102.290617,307.04532 101.181024,305.177772 100.14078,303.171888 C100.490697,317.653727 105.336757,331.670593 114.010694,343.289577 C85.7160694,328.556702 67.4771323,306.630309 65.0498974,274.121147 L65.0498974,271.492747 C65.1195289,271.314835 65.1195289,271.117311 65.0498974,270.9394 C63.3733491,249.892616 70.4447987,229.083827 84.6064763,213.391266 C84.6064763,214.497961 82.0636587,233.150381 88.5594018,253.163113 C89.0307745,255.326436 89.9782754,257.358242 91.3333847,259.111598 C91.3102682,245.83126 100.825838,210.341807 113.270966,190.496516 C120.792995,178.501711 135.243836,168.882136 136.896053,168.29345 C141.057027,166.979249 144.316457,168.777629 143.83101,172.23605 C143.11463,176.671458 142.812819,181.163642 142.929465,185.654726 C142.929465,190.980695 142.929465,196.237495 142.929465,201.563464 L146.396944,201.563464 C146.396944,197.205853 149.587024,193.954937 150.904666,189.943168 C152.43979,186.444074 154.200324,183.047725 156.175233,179.775409 C159.023461,174.201577 162.79874,169.149837 167.340514,164.835028 C170.13083,161.506165 174.509242,159.94464 178.783193,160.754091 C182.304988,161.58576 185.52366,163.38255 188.076036,165.941723 C195.770308,173.858111 202.013777,183.05839 206.523022,193.124916 C207.047926,194.360368 207.80069,195.486565 208.742208,196.445001 C208.982122,195.095211 208.982122,193.713853 208.742208,192.364063 C208.063735,185.907511 208.748826,179.380803 210.753346,173.204408 C211.72424,169.330976 213.111231,168.915965 216.023913,171.751871 C219.800141,175.182965 223.323014,178.881567 226.565048,182.81882 C227.289293,183.993568 228.320041,184.949899 229.547079,185.585557 C229.497676,184.706355 229.235966,183.852083 228.784234,183.095494 C225.652939,176.780927 221.814217,170.840648 217.341555,165.388376 C216.994807,164.904197 215.885214,164.558354 216.786758,163.659165 C210.787431,157.478445 203.745269,152.39792 195.981887,148.649616 C195.357741,148.649616 194.664245,147.612089 194.040099,148.165437 C193.415953,148.718784 194.040099,149.479637 194.386847,150.102153 C197.706146,158.397177 200.553995,166.872225 202.916844,175.486966 C204.095787,179.775409 204.234486,180.674599 203.749039,182.403809 L203.194242,181.50462 C200.100207,174.282662 196.387824,167.340126 192.098311,160.754091 C188.733111,154.818564 183.973515,149.786569 178.228397,146.090384 C175.751025,144.608333 172.812138,144.091061 169.975798,144.637847 C165.394792,145.738025 161.418436,148.563779 158.879867,152.523048 C153.493914,160.468801 149.745718,169.403354 147.853285,178.807051 C147.298488,181.297114 146.743692,183.787178 146.188895,186.484747 C145.703448,184.755536 146.535643,183.372167 146.535643,181.91963 C146.543462,173.73349 147.426889,165.57154 149.170927,157.572343 C150.835316,149.617974 146.050196,145.329531 138.144345,147.197079 C134.277681,148.260198 130.667856,150.095694 127.533861,152.592216 C118.29442,159.954608 110.530241,168.989157 104.648502,179.222062 C102.429316,182.81882 100.418178,186.138905 97.7135452,190.634852 C101.532028,174.969146 109.152903,160.479798 119.905408,148.44211 C112.496493,151.860579 105.514061,156.131951 99.1005366,161.169101 C99.1005366,161.169101 90.5693788,170.156514 82.0636587,180.121251 C74.998627,188.398173 67.7975655,197.880445 66.9223358,198.589222 C66.466233,198.859274 66.3118412,199.44443 66.5755879,199.903422 C66.9223358,200.525938 67.5464819,199.903422 68.1012785,199.903422 L83.2194849,197.551695 C83.730051,197.340345 84.3039589,197.340345 84.814525,197.551695 C84.814525,199.350075 83.0114362,199.972591 81.9018431,201.010117 C78.6424132,204.053528 75.3136338,207.02777 72.2622527,210.278687 C67.0610349,215.881329 61.7904675,221.414804 57.0053472,227.363289 C54.0233156,231.098384 50.8332354,234.695142 48.1979517,238.706911 C26.5840021,272.345824 20.6587123,293.759061 19.9726764,305.316109 C17.1990666,352.040691 72.6396894,375.257511 108.647661,380.709698 C121.857202,382.709835 136.831681,378.209536 139.115239,377.458782 C141.057027,376.836266 140.987677,376.075413 139.670035,374.553707 C136.093417,370.631461 132.911213,366.368717 130.169144,361.826716 C130.963474,362.165786 131.709609,362.607647 132.388331,363.140917 C133.151176,363.763432 133.844672,364.455117 134.607517,365.008464 C145.203376,372.364353 157.079495,377.688784 169.62905,380.709698 C177.695736,382.788754 185.986225,383.880426 194.317497,383.960614 C220.265212,385.674555 246.144764,379.732754 268.729587,366.876012 C270.061551,366.436649 271.322875,365.807635 272.474463,365.008464 L277.398283,361.342537 L278.854624,360.097506 C279.506954,359.930139 280.104425,359.596429 280.588363,359.129148 C280.588363,358.5758 281.281859,358.644969 281.767306,358.506632 C281.715102,357.749605 282.055352,357.018674 282.66885,356.569916 C288.497335,350.746787 307.449764,312.694075 280.310965,271.35441 Z" id="Path" fill="#C4C3C6" fill-rule="nonzero"></path>
                    <polygon id="Path" fill="#BFAF9F" fill-rule="nonzero" points="98.9618375 161.722449 98.8924879 161.722449 98.9618375 161.722449"></polygon>
                    <path d="M55.505794,399.492973 C52.6811412,397.895431 59.5258659,347.647542 70.9653779,340.95122 C88.1246459,330.906737 85.5647774,336.798768 107.39941,328.906239 C129.234042,321.013711 139.274156,319.732945 123.043495,329.963151 C112.223055,336.783287 77.7535224,357.651082 55.505794,399.492973 Z" id="Rectangle-Copy-40" fill="#000000" transform="translate(92.963615, 361.065692) rotate(-118.000000) translate(-92.963615, -361.065692) "></path>
                    <path d="M253.660891,383.114334 C252.072599,381.516836 255.883485,331.378866 262.306667,324.709129 C271.941439,314.704524 270.507171,320.581674 282.770539,312.72995 C295.033907,304.878226 300.674557,303.611449 291.561699,313.802452 C285.486461,320.596453 266.132617,341.382736 253.660891,383.114334 Z" id="Rectangle-Copy-41" fill="#000000" transform="translate(274.680474, 344.807158) rotate(-182.000000) translate(-274.680474, -344.807158) "></path>
                </g>
            </g>
            <g id="Group-2" transform="translate(138.235760, 293.603171) rotate(14.000000) translate(-138.235760, -293.603171) translate(24.735760, 178.603171)">
                <path d="M150.109384,14.2669034 C168.730504,24.0904282 183.318092,44.9895558 187.038598,71.252626 C190.835359,98.053983 181.789184,117.932978 190.179736,145.347937 C198.570288,172.762896 215.666634,182.447174 226.557469,195.766636 C159.339112,196.657384 108.527937,227.894768 99.4560242,228.722869 C94.5227259,229.149151 80.6989859,230.310696 75.9040928,229.06136 C61.7555287,227.419058 50.848539,225.03381 43.1831236,221.905616 C35.2395278,218.691396 27.2341142,212.736096 19.1668827,204.039716 C-4.1770889,176.671927 -6.33298698,124.493648 14.8550866,76.2686239 C40.2158661,18.6942095 90.4390185,-13.8116386 128.051326,6.06021509 C132.815166,8.54712949 144.673275,11.3928749 150.109384,14.2669034 Z" id="Path" fill="#000000" fill-rule="nonzero"></path>
                <path d="M77.3677974,215.412719 C89.59214,214.761217 119.692941,195.119627 138.310268,163.364919 C155.577301,133.902534 162.018084,93.0509234 158.875364,70.8395187 C155.171018,44.6949702 150.450964,28.6969677 129.001604,14.2070726 C134.092093,14.8103155 139.756158,17.6455573 144.344768,20.0705939 C177.014712,37.1423687 183.204555,96.6945106 159.436991,150.165964 C147.750376,176.52768 130.758181,197.062069 112.559087,209.078668 C96.4989533,219.695744 90.5003023,218.573712 86.2701779,217.524069 C81.2155377,216.377908 78.2520607,215.654016 77.3677974,215.412719 Z" id="Path" fill="#C4C3C6"></path>
                <path d="M138.99139,140.128001 C162.221226,87.0426238 154.848382,30.1085562 122.513024,12.9281976 C90.1776657,-4.25216101 45.1280355,24.8482779 21.8862501,77.9095258 C-1.35553527,130.970774 6.02925823,187.928971 38.3646162,205.10933 C70.6999741,222.289688 115.749604,193.213379 138.99139,140.128001 Z" id="Oval" fill="#D8D8D8"></path>
                <path d="M138.99139,140.128001 C162.221226,87.0426238 154.848382,30.1085562 122.513024,12.9281976 C90.1776657,-4.25216101 45.1280355,24.8482779 21.8862501,77.9095258 C-1.35553527,130.970774 6.02925823,187.928971 38.3646162,205.10933 C70.6999741,222.289688 115.749604,193.213379 138.99139,140.128001 Z" id="Oval-Copy" fill="#C4C3C6"></path>
                <path d="M107.839033,22.0854252 C81.4784268,19.0571457 50.7921004,45.0086565 35.1382501,85.9205919 C17.30959,132.503011 25.7459399,180.786575 53.982618,193.756298 C55.5287644,194.472938 57.1266362,195.069858 58.7624196,195.541897 C55.0429223,195.127591 51.4125627,194.117568 48.0078659,192.549812 C19.7711879,179.568024 11.334838,131.296525 29.1754476,84.7141061 C46.0242483,40.7135669 80.2834764,13.9657754 107.827083,22.0854252 L107.839033,22.0854252 Z" id="Path" fill="#FFFFFF"></path>
                <path d="M46.6695215,207.860117 C76.6269281,212.999747 113.395552,184.635265 133.900901,138.028716 C157.28608,84.9433384 150.749702,28.2385031 119.286658,11.4080254 C117.570133,10.4749698 115.788989,9.66854027 113.957179,8.9950537 C118.167847,9.72126239 122.237558,11.1180774 126.014228,13.1333002 C157.477272,30.0241022 164.025601,86.6565483 140.628472,139.814315 C118.533839,189.979997 77.6306865,219.008047 46.6456225,207.872182 L46.6695215,207.860117 Z" id="Path" fill="#FFFFFF"></path>
                <path d="M86.3179759,185.636648 C101.195108,174.162968 114.506856,155.124621 122.680317,131.344784 C138.859945,84.1953172 128.714816,36.2013098 99.976259,24.1605809 C95.2341679,22.1705797 90.1239612,21.2324818 84.9915809,21.4097932 C94.7065277,18.9968215 104.27808,19.805167 112.833925,24.4863321 C140.317785,39.5312107 146.878062,88.6834445 127.400371,134.276545 C117.314989,157.851279 102.306412,175.852048 86.2701779,185.660778 L86.3179759,185.636648 Z" id="Path" fill="#000000" fill-rule="nonzero"></path>
                <g id="Group-5" transform="translate(23.185029, 37.146011)" fill-rule="nonzero">
                    <path d="M1.26727097,105.054687 C6.08375298,103.86662 10.9741452,102.640637 15.9261293,101.439931 C16.3942273,101.32618 16.5297293,101.098678 16.6282763,100.340337 C19.8187337,77.3247024 20.4469704,52.8050258 23.6374278,29.8020302 C23.6374278,29.4860549 26.2981954,30.7246778 26.3474689,30.3455075 C26.5691995,30.3455075 26.6307913,30.6109267 26.7293383,30.7752338 C35.5246533,45.0067575 44.5991846,59.7059245 53.9529323,74.8727348 C54.3471201,75.5046852 54.3471201,75.5046852 54.9507201,74.5946766 C69.929856,52.2489094 86.0422817,26.1872737 95.2933763,3.87942355 C95.4411968,3.55080932 101.797475,4.62512505 101.994569,4.30914984 L102.130071,4.30914984 L101.994569,5.30763152 C98.4633031,30.7457428 94.9320375,56.1880671 91.400772,81.6346044 C91.2283148,82.8985052 102.745989,75.0749589 103.620593,74.8600958 C109.779777,73.3434147 104.421287,79.5112509 110.765247,77.9440139 C108.910106,83.3532617 106.75498,88.6492268 104.310422,93.8059696 C103.632912,95.2468166 102.906128,96.6623856 102.228618,98.1032326 C102.080717,98.5886107 101.690425,98.9552888 101.206193,99.0637972 C92.5340618,100.976501 84.0508122,102.872352 75.7564442,104.751351 C75.2021176,104.877741 69.3385743,101.427292 69.461758,100.593117 C71.6174724,85.1356097 79.5012282,72.9516055 81.6446242,57.494098 L81.8170814,56.2301971 C81.5214406,56.6346454 81.336665,56.9000646 81.1518895,57.1781228 C70.9440683,72.243821 60.9744022,86.964053 51.2428912,101.338819 C50.8117483,101.95813 46.4633643,98.0905935 46.1923602,97.6355892 C40.0331761,87.2842412 38.1854208,81.078488 32.2849224,71.1695053 C32.1847942,70.9893299 32.094325,70.8036817 32.0139183,70.6133889 L31.8784162,70.72714 L31.7552326,71.6371486 L25.7315504,114.988948 C25.58373,116.025347 25.58373,116.025347 24.9431749,116.164376 L4.19904263,120.815531 C3.82949158,120.904004 3.64471605,120.815531 3.52153237,120.272054 C2.37985012,115.377761 1.64631194,110.392633 1.32886281,105.370662 C1.30091433,105.267004 1.28032972,105.161402 1.26727097,105.054687 Z" id="Path" fill="#000000"></path>
                    <path d="M1.53202255,101.4851 C6.12037157,100.32531 8.00542015,99.4414808 12.7294462,98.268946 C13.1858142,98.1542415 13.3091569,97.9375774 13.4078311,97.2111156 C16.4831761,74.8734774 19.5626326,52.5358392 22.6462005,30.198201 L22.7818775,29.2168403 C22.9915601,29.2168403 23.0532315,29.4844841 23.1519056,29.6374234 L49.0538759,72.4094549 C49.4239041,73.0339572 49.4239041,73.0339572 50.0036148,72.1418111 C64.3278156,50.4244268 79.1289414,27.9550908 94.4069925,4.73380318 C94.6043408,4.44066947 94.7770206,4.12204587 94.9620347,3.81616722 L95.0977117,3.81616722 L94.9620347,4.78478295 L84.7492579,78.9221212 C84.5765781,80.1966156 84.4902382,80.0309314 85.3166344,79.8142673 L103.213662,75.3153021 C101.442172,80.5681131 99.3831383,85.712624 97.0465266,90.7239392 C96.4051445,92.125883 95.702091,93.502337 95.0607089,94.9042808 C94.9148051,95.3685417 94.5457055,95.7209642 94.0863014,95.8346617 C85.8141166,97.7039201 77.7187231,99.5604336 69.8001207,101.404202 C69.269747,101.518907 69.1587386,101.404202 69.269747,100.537546 C71.3501275,85.5240021 73.4058394,70.5147066 75.4368828,55.5096594 L75.5972284,54.3116347 C75.3258744,54.706728 75.1531946,54.9743718 74.9681805,55.2292706 C65.2076603,69.817983 55.6568226,84.0923201 46.3156676,98.0522819 C45.920971,98.6640392 45.7482912,98.7022741 45.4892714,98.256201 C39.6428267,88.2131853 33.8868333,78.3910819 28.2212912,68.7898909 C28.1267187,68.61782 28.0442765,68.438927 27.9746058,68.2546032 L27.8389288,68.3565628 L27.7155861,69.2487089 L21.9061442,111.307024 C21.7704672,112.313874 21.7704672,112.313874 21.1537536,112.454068 C14.4274642,113.991958 10.6264921,115.194411 4.19622521,116.689818 C3.83853133,116.766287 3.66585153,116.689818 3.55484309,116.15453 C2.48694183,111.426125 1.81022886,106.612425 1.53202255,101.765488 C1.52583542,101.672135 1.52583542,101.578453 1.53202255,101.4851 Z" id="Path" fill="#C4C3C6"></path>
                    <path d="M1.79534046,103.631565 L1.79534046,103.351535 C6.02994959,102.193228 10.3213229,100.996735 14.6694604,99.8256998 C15.0895155,99.711142 15.2030439,99.494755 15.2938666,98.7564936 C18.1245079,76.4559072 20.9589335,54.1722924 23.7971434,31.905649 C23.7971434,31.6001615 23.8766133,31.3074027 23.9220246,30.9510006 C23.4338525,30.0981814 22.9456804,29.2199049 22.4688612,28.4052716 C22.3780384,28.2525278 22.3212743,28.0234122 22.128276,27.9852263 L22.0033947,28.965332 C19.1727534,51.2659184 16.3383278,73.5749905 13.500118,95.8925484 C13.4092953,96.6180812 13.2957669,96.8344682 12.8757118,96.949026 C8.52757428,98.1200614 4.23620095,99.316554 0.0129446616,100.474861 C0.00724983577,100.568095 0.00724983577,100.661657 0.0129446616,100.754891 C0.280084638,105.622731 0.91817021,110.456025 1.9202217,115.201903 C2.02239725,115.685592 2.181337,115.812878 2.51056935,115.736506 L3.20309256,115.558305 C2.49396132,111.622966 2.02363199,107.638248 1.79534046,103.631565 L1.79534046,103.631565 Z" id="Path" fill="#FFFFFF"></path>
                    <path d="M51.8828835,70.8097549 C52.2501587,71.4150743 52.2501587,71.4150743 52.8255564,70.5449277 L94.6581925,7.26383238 C94.9397701,5.17043624 95.2335902,3.07704011 95.5274103,0.958422328 L95.6620778,9.09494702e-13 L95.5274103,9.09494702e-13 C95.3437727,0.302659683 95.1723777,0.617930185 94.9764976,0.907979048 C79.7957927,23.8933005 65.1047879,46.1261763 50.9034832,67.6066066 C50.6096631,68.0479853 50.4749956,68.2749801 50.3525705,68.3002017 L51.8828835,70.8097549 Z" id="Path" fill="#FFFFFF"></path>
                    <path d="M83.2154529,82.9131099 C83.0092301,84.1779401 82.8823238,84.0261604 83.9610274,83.8111393 L102.743161,80.1178351 C103.345966,78.8530049 103.932908,77.5881746 104.47226,76.3233444 L83.6754883,80.3708011 C83.5168554,81.243534 83.3740858,82.0783219 83.2154529,82.9131099 Z" id="Path" fill="#FFFFFF"></path>
                    <path d="M77.8969535,57.213291 L78.0417139,55.9704526 L77.4738078,56.9356356 C76.7722767,58.1520306 76.0707456,59.3552039 75.3580791,60.5583772 C73.7545794,73.9827947 72.1436561,87.4072121 70.5253093,100.83163 C70.4250905,101.677817 70.5253093,101.849699 71.0041321,101.730704 L72.5964963,101.30761 C74.3633154,86.6050965 76.1301344,71.9069901 77.8969535,57.213291 Z" id="Path" fill="#FFFFFF"></path>
                    <path d="M28.1183183,70.5376307 C28.0098018,70.3597892 27.9284144,70.1545874 27.8334625,69.9630657 L27.6978169,70.0725067 L27.6978169,70.1819476 C33.3225879,79.5938692 39.060397,89.1699523 44.911244,98.9101967 C45.0604542,99.1564389 45.1825352,99.2521997 45.3181808,99.2111593 C39.4763768,89.4709149 33.7430893,79.913072 28.1183183,70.5376307 Z" id="Path" fill="#FFFFFF"></path>
                </g>
            </g>
        </g>
    </g>
</svg>