<?xml version="1.0" encoding="UTF-8"?>
<svg width="222px" height="36px" viewBox="0 0 222 36" version="1.1" xmlns="http://www.w3.org/2000/svg" xmlns:xlink="http://www.w3.org/1999/xlink">
    <!-- Generator: Sketch 59.1 (86144) - https://sketch.com -->
    <title>Group 5</title>
    <desc>Created with Sketch.</desc>
    <g id="Blog-Covers" stroke="none" stroke-width="1" fill="none" fill-rule="evenodd">
        <g id="Blog-Logo" transform="translate(-544.000000, -382.000000)">
            <g id="Group-5" transform="translate(544.000000, 382.000000)">
                <g id="Group-4">
                    <g id="Logo">
                        <g id="Group-29">
                            <path d="M36.6217315,32.1361686 L36.6217315,29.3032281 L41.077637,29.3032281 L41.077637,11.2432325 L44.2056017,11.2432325 L44.2056017,29.5393803 C44.2056017,30.9558505 43.0547196,32.1361686 41.6088134,32.1361686 L36.6217315,32.1361686 Z M48.2779536,24.493205 C46.772954,22.9882054 46.0058468,21.0994309 46.0058468,18.8567601 C46.0058468,16.6140893 46.772954,14.7253148 48.2779536,13.2203152 C49.7829533,11.7153155 51.6717278,10.9482084 53.9143986,10.9482084 C56.1570694,10.9482084 58.0161866,11.7153155 59.5508435,13.2203152 C61.0558432,14.7253148 61.8229503,16.6140893 61.8229503,18.8567601 C61.8229503,21.0994309 61.0558432,22.9882054 59.5508435,24.493205 C58.0458439,25.9982047 56.1570694,26.7653118 53.9143986,26.7653118 C51.6420705,26.7653118 49.7829533,25.9982047 48.2779536,24.493205 Z M50.5502818,15.1385257 C49.6944239,16.0532556 49.2814343,17.2926671 49.2814343,18.8273241 C49.2814343,20.3617597 49.6944239,21.6011712 50.5502818,22.5159011 C51.4061396,23.4308524 52.5273644,23.9029353 53.8849626,23.9029353 C55.2423394,23.9029353 56.3637855,23.4308524 57.219422,22.5159011 C58.0752799,21.6011712 58.4884909,20.3617597 58.4884909,18.8273241 C58.4884909,17.2926671 58.0752799,16.0532556 57.219422,15.1385257 C56.3637855,14.2237958 55.2423394,13.7514915 53.8849626,13.7514915 C52.5273644,13.7811488 51.4061396,14.2237958 50.5502818,15.1385257 Z M62.0591025,11.2432325 L65.3346899,11.2432325 L68.6102774,23.4897244 L70.2332424,23.4897244 L73.8040753,11.2432325 L77.0796628,11.2432325 L70.8235121,32.1361686 L67.5479247,32.1361686 L69.3185125,26.4702876 L68.1676304,26.4702876 C67.0167483,26.4702876 65.9838317,25.7029592 65.6888075,24.5817344 L62.0591025,11.2432325 Z M76.7844173,21.6897006 L80.2076275,21.6897006 C80.2370635,21.7487939 80.2667208,21.8373233 80.3255929,21.9258527 C80.3846862,22.0143821 80.5026517,22.1914409 80.6797104,22.4570291 C80.8567692,22.7226172 81.0929214,22.9585481 81.3290735,23.1356068 C81.5650043,23.342323 81.9487792,23.5193818 82.3914262,23.6667832 C82.8635092,23.8144059 83.3652495,23.9029353 83.9258618,23.9029353 C85.0176505,23.9029353 85.8144151,23.7258766 86.3161554,23.401195 C86.8178957,23.0767348 87.0538265,22.6340879 87.0538265,22.1323475 C87.0538265,21.6602646 86.7293663,21.2764897 86.0800032,21.0109015 C85.4308615,20.7453133 84.634097,20.5093825 83.6897097,20.3323237 C82.7455437,20.1552649 81.8305925,19.9191128 80.8864266,19.6240886 C79.9420393,19.3288431 79.1747108,18.8567601 78.496133,18.148525 C77.8467699,17.4402899 77.5223097,16.554996 77.5223097,15.4335499 C77.5223097,14.2532318 78.0534861,13.1908791 79.1452748,12.3055852 C80.2370635,11.4202913 81.6831911,10.9776444 83.4537789,10.9776444 C84.5750036,10.9776444 85.5488269,11.1547032 86.4341208,11.4793847 C87.3194147,11.8038449 87.9687778,12.2170558 88.4114247,12.6597028 C88.8540717,13.1317858 89.2081892,13.6040901 89.5032134,14.076173 C89.7982376,14.548256 89.9752964,14.9320309 90.0638258,15.2861485 L90.1820125,15.7582314 L86.9064251,15.7582314 C86.8767677,15.6991381 86.8473317,15.640266 86.8178957,15.5517366 C86.7882383,15.4632073 86.6702729,15.3155845 86.4932142,15.0794323 C86.3161554,14.8435015 86.1390966,14.6664427 85.9029444,14.489384 C85.6670136,14.3123252 85.3423321,14.1647024 84.9291212,14.0170797 C84.5161316,13.8696782 84.0143912,13.8105849 83.4832149,13.8105849 C82.597921,13.8105849 81.9487792,13.9582076 81.4764749,14.2826678 C81.033828,14.6073494 80.7978972,14.990903 80.7978972,15.4632073 C80.7978972,15.8467608 81.033828,16.2008784 81.5061323,16.4664666 C81.9782153,16.7320547 82.568485,16.9385495 83.2767201,17.0567363 C83.9849552,17.1747017 84.7520624,17.3517605 85.5784842,17.5879126 C86.4046848,17.8238434 87.1423559,18.0894316 87.8802484,18.3846771 C88.5884835,18.6797013 89.1785319,19.1517843 89.6508362,19.8011474 C90.1229192,20.4502891 90.3590713,21.2470536 90.3590713,22.1617836 C90.3590713,23.4308524 89.7982376,24.5226411 88.6473555,25.437371 C87.4964735,26.3523222 85.9326018,26.7949692 83.9552979,26.7949692 C82.7749798,26.7949692 81.7420631,26.6179104 80.8273332,26.2637928 C79.9126033,25.9096753 79.2043681,25.4964644 78.7320638,24.994724 C78.2599809,24.493205 77.8764273,23.9914647 77.5517458,23.4897244 C77.2567216,22.9882054 77.0500054,22.5749945 76.961476,22.2503129 L76.7844173,21.6897006 Z M90.9196837,14.076173 L90.9196837,11.2432325 L92.6902715,11.2432325 L92.6902715,7.96764511 L95.8182361,7.96764511 L95.8182361,11.2432325 L100.451422,11.2432325 L100.451422,14.076173 L95.8478935,14.076173 L95.8478935,23.6373472 L100.598823,23.6373472 L100.598823,26.4702876 L95.2870598,26.4702876 C93.8705896,26.4702876 92.6902715,25.3194056 92.6902715,23.8734993 L92.6902715,14.076173 L90.9196837,14.076173 Z M105.497597,14.076173 L105.497597,26.4702876 L102.369411,26.4702876 L102.369411,13.5155607 C102.369411,12.2761492 103.372892,11.2432325 104.641739,11.2432325 L105.497597,11.2432325 L111.606125,11.2432325 L111.606125,14.076173 L105.497597,14.076173 Z M113.73083,24.493205 C112.255267,22.9585481 111.487938,21.0699949 111.487938,18.8567601 C111.487938,16.6435253 112.255267,14.7549721 113.73083,13.2203152 C115.23583,11.6858795 117.06529,10.9482084 119.219652,10.9482084 C121.373794,10.9482084 123.203475,11.7153155 124.708475,13.2203152 C126.213474,14.7549721 126.951145,16.6140893 126.951145,18.8567601 L126.951145,19.8896768 L114.616124,19.8896768 C114.822619,21.1290882 115.383231,22.1029115 116.209653,22.8405827 C117.06529,23.5782538 118.06877,23.9323714 119.219652,23.9323714 C120.163818,23.9323714 120.960583,23.7553126 121.698475,23.401195 C122.406711,23.0470775 122.90823,22.6929599 123.144382,22.3388423 L123.527935,21.8373233 L126.803523,21.8373233 C126.774087,21.9847248 126.685557,22.1617836 126.597028,22.3684997 C126.508498,22.5749945 126.24291,22.9882054 125.829699,23.5488178 C125.41671,24.1094301 124.974063,24.6111705 124.442887,25.0538174 C123.941146,25.4670283 123.203475,25.8800179 122.259088,26.2341355 C121.314701,26.5882531 120.311441,26.7653118 119.189995,26.7653118 C117.06529,26.7653118 115.23583,25.9982047 113.73083,24.493205 Z M115.176737,17.3517605 L124.088769,17.3517605 C123.941146,16.3779372 123.469063,15.5220793 122.672299,14.8435015 C121.875534,14.1352664 120.872054,13.7811488 119.632642,13.7811488 C118.570289,13.7811488 117.596466,14.1056091 116.770266,14.7549721 C115.944065,15.4041139 115.412889,16.2599718 115.176737,17.3517605 Z M129.872615,24.5817344 C128.515238,23.1061708 127.836439,21.1879603 127.836439,18.8567601 C127.836439,16.5255599 128.515238,14.6073494 129.872615,13.1317858 C131.229992,11.6564435 132.941708,10.9482084 134.977884,10.9482084 C135.92205,10.9482084 136.777908,11.1252671 137.574672,11.5088207 C138.371437,11.8923743 138.932049,12.2464919 139.256731,12.6006094 L139.728814,13.1614431 L139.876436,13.1614431 L139.876436,11.2137965 L143.004401,11.2137965 L143.004401,26.4408516 L139.876436,26.4408516 L139.876436,24.3455823 L139.728814,24.3455823 C139.699378,24.4046757 139.610848,24.493205 139.522319,24.6111705 C139.433789,24.7291359 139.227295,24.9061946 138.932049,25.2014402 C138.637025,25.4670283 138.312343,25.7326165 137.987883,25.9391113 C137.663202,26.1456061 137.191119,26.3226649 136.659942,26.4997237 C136.099109,26.6767825 135.538496,26.7653118 134.977884,26.7653118 C132.971144,26.7653118 131.25965,26.0276407 129.872615,24.5817344 Z M145.719376,26.4702876 L145.719376,11.2432325 L148.847341,11.2432325 L148.847341,13.3385019 L148.994964,13.3385019 C149.0244,13.2794085 149.083493,13.1908791 149.142586,13.0729137 C149.201458,12.954727 149.349081,12.7776682 149.614669,12.482644 C149.880257,12.2170558 150.145846,11.9514677 150.470527,11.7449729 C150.765551,11.5382567 151.208198,11.361198 151.739375,11.1841392 C152.270551,11.0070804 152.860821,10.918551 153.450869,10.918551 C154.159104,10.918551 154.837903,11.0070804 155.428173,11.2137965 C156.047879,11.4202913 156.519962,11.6564435 156.844643,11.9220316 C157.198761,12.1876198 157.493785,12.482644 157.729937,12.7482322 C157.965868,13.0138203 158.113491,13.2499725 158.20202,13.4564673 L158.349643,13.7514915 L158.497044,13.7514915 C158.526702,13.6629621 158.585574,13.5744327 158.674103,13.4270313 C158.733197,13.3088445 158.939691,13.0729137 159.234937,12.7482322 C159.529961,12.4235506 159.854643,12.1579625 160.20876,11.8923743 C160.562878,11.6564435 161.064397,11.4202913 161.684102,11.2137965 C162.333465,11.0070804 162.982607,10.889115 163.720278,10.889115 C165.46143,10.889115 166.848464,11.4497273 167.851724,12.5711734 C168.854983,13.6926194 169.356723,15.2564911 169.356723,17.3223244 L169.356723,26.4111943 L166.228759,26.4111943 L166.228759,17.4993832 C166.228759,15.0205603 165.136749,13.7811488 162.953171,13.7811488 C161.890819,13.7811488 160.975867,14.1941384 160.20876,14.990903 C159.441432,15.8173248 159.087314,16.8500201 159.087314,18.0894316 L159.087314,26.4408516 L155.959349,26.4408516 L155.959349,17.4993832 C155.959349,15.0205603 154.867339,13.7811488 152.683762,13.7811488 C151.621409,13.7811488 150.706458,14.1941384 149.939351,14.990903 C149.172022,15.8173248 148.817905,16.8500201 148.817905,18.0894316 L148.817905,26.4408516 L145.719376,26.4408516 L145.719376,26.4702876 Z M41.107073,5.42972882 L41.107073,8.55791482 L44.235259,8.55791482 L44.235259,5.42972882 L41.107073,5.42972882 Z M131.967885,15.1385257 C131.112027,16.0532556 130.698816,17.2926671 130.698816,18.8273241 C130.698816,20.3617597 131.112027,21.6011712 131.967885,22.5159011 C132.823521,23.4308524 133.944967,23.9029353 135.302344,23.9029353 C136.659942,23.9029353 137.781167,23.4308524 138.637025,22.5159011 C139.492883,21.6011712 139.905872,20.3617597 139.905872,18.8273241 C139.905872,17.2926671 139.492883,16.0532556 138.637025,15.1385257 C137.781167,14.2237958 136.659942,13.7514915 135.302344,13.7514915 C133.944967,13.7811488 132.823521,14.2237958 131.967885,15.1385257 Z" id="Shape" fill="#FFFFFF" fill-rule="nonzero"></path>
                            <g id="Group" fill="#4038FF" fill-rule="nonzero">
                                <path d="M24.8473226,2.7000624e-13 L28.0638167,2.7000624e-13 L28.0638167,9.2364926 C28.0638167,12.925291 26.6767825,16.3188438 24.4046757,18.8861961 C24.6996998,17.6467847 24.8473226,16.3779372 24.8473226,15.0499963 L24.8473226,2.7000624e-13 Z" id="Path"></path>
                                <path d="M8.67588023,26.3521009 C8.58735084,26.4406303 8.52825747,26.5291597 8.43972808,26.6176891 C8.41029206,26.6473464 8.38085604,26.6767825 8.35119869,26.7062185 C8.2626693,26.7947479 8.20379726,26.8832773 8.11526787,26.9423706 C8.08561052,26.9718066 8.02673848,27.0309 7.99708113,27.060336 C7.90855174,27.1488654 7.82002235,27.2373948 7.70205694,27.3259242 C7.58409153,27.4441109 7.46590479,27.5326403 7.34793938,27.6506057 C7.22997397,27.7685712 7.11178723,27.8571005 6.9643858,27.9456299 C6.84619906,28.0341593 6.72823365,28.1226887 6.61026824,28.2112181 C6.31502272,28.3882769 6.01999853,28.5653357 5.72497434,28.7129584 C5.66588097,28.7423944 5.6067876,28.7720518 5.51825821,28.8014878 C5.42972882,28.8309238 5.37085678,28.8605812 5.31176341,28.8900172 C5.22323402,28.9194532 5.16414065,28.9491106 5.07561126,28.9785466 C4.92820983,29.03764 4.78058707,29.096512 4.60352829,29.1556054 C4.60352829,29.1556054 4.60352829,29.1556054 4.57409226,29.1556054 C4.42646951,29.2146987 4.27884675,29.2441348 4.13144531,29.2735708 L4.10178797,29.2735708 C3.95438653,29.3032281 3.80676378,29.3621002 3.65914102,29.3917575 C3.48208224,29.4211935 3.27558743,29.4802869 3.09852865,29.4802869 C3.03943529,29.4802869 2.98056324,29.5097229 2.92146987,29.5097229 L2.89203385,29.5097229 C2.71497507,29.539159 2.56735231,29.539159 2.39029353,29.539159 C2.30176414,29.539159 2.21323475,29.539159 2.12470536,29.539159 C2.03617597,29.539159 1.94764658,29.539159 1.85911719,29.539159 L1.74115178,29.539159 L2.71497507,26.3226649 L8.67588023,26.3226649 L8.67588023,26.3521009 Z" id="Path"></path>
                                <path d="M22.2503129,-7.10542736e-15 L22.2503129,15.0499963 C22.2503129,15.2861485 22.2503129,15.5517366 22.2208769,15.7876675 C22.2208769,15.9058542 22.2208769,16.0238196 22.1914409,16.141785 C22.1914409,16.2599718 22.1617836,16.3779372 22.1617836,16.4959026 C22.1617836,16.6140893 22.1323475,16.7320547 22.1323475,16.8500201 C22.1323475,16.9385495 22.1029115,17.0567363 22.1029115,17.1452657 L22.1029115,17.1747017 C22.1029115,17.2041377 22.1029115,17.2337951 22.1029115,17.2337951 C22.0732542,17.3517605 22.0732542,17.4697259 22.0438181,17.5582553 C22.0143821,17.676442 22.0143821,17.7944074 21.9847248,17.8829368 L21.9847248,17.9123728 C21.9552888,18.0009022 21.9552888,18.0894316 21.9258527,18.177961 C21.9258527,18.2076183 21.9258527,18.2076183 21.9258527,18.2370544 C21.8373233,18.5911719 21.7487939,18.9747255 21.6306072,19.3288431 C21.6011712,19.4173725 21.5717352,19.5355592 21.5420778,19.6240886 C21.5126418,19.742054 21.4832058,19.8305834 21.4241124,19.9485488 C21.3946764,20.0667355 21.335583,20.1552649 21.306147,20.2437943 C21.2764897,20.3617597 21.2176176,20.4502891 21.1879603,20.5388185 C21.1585242,20.6567839 21.0994309,20.7453133 21.0699949,20.8338427 C21.0405588,20.9223721 20.9814655,21.0405588 20.9223721,21.1290882 C20.8929361,21.2176176 20.8338427,21.335583 20.7749707,21.4241124 C20.7158773,21.5126418 20.6864413,21.6306072 20.6273479,21.7191366 C20.5979119,21.807666 20.5388185,21.8667594 20.5093825,21.9552888 C20.4208531,22.1323475 20.3323237,22.2799703 20.214137,22.4570291 C20.1256076,22.6044305 20.0370782,22.7520533 19.9485488,22.8700187 C19.8896768,22.9882054 19.8305834,23.0767348 19.742054,23.1652642 C19.712618,23.2241362 19.6535246,23.2832296 19.6240886,23.3126656 C19.5355592,23.4308524 19.4764658,23.5193818 19.3879364,23.6079111 C19.299407,23.7258766 19.2108777,23.8144059 19.1517843,23.9323714 C18.9747255,24.1390875 18.7976667,24.3455823 18.6206079,24.5520771 C18.6502653,24.4341117 18.6797013,24.3161463 18.7091373,24.1979595 C18.7387947,24.1094301 18.7387947,24.0209007 18.7682307,23.9323714 C18.7682307,23.9323714 18.7682307,23.9323714 18.7682307,23.9029353 C18.7682307,23.8734993 18.7682307,23.8734993 18.7682307,23.843842 C18.7976667,23.7258766 18.7976667,23.6079111 18.8273241,23.4897244 C18.8567601,23.342323 18.8861961,23.1947002 18.8861961,23.0767348 C18.8861961,22.9882054 18.9158535,22.899676 18.9158535,22.8405827 C18.9158535,22.7520533 18.9452895,22.6929599 18.9452895,22.6044305 C18.9747255,22.4570291 18.9747255,22.3094063 19.0043829,22.1323475 C19.0043829,22.1029115 19.0043829,22.1029115 19.0043829,22.0732542 C19.0043829,22.0438181 19.0043829,22.0438181 19.0043829,22.0143821 C19.0043829,21.8961954 19.0338189,21.807666 19.0338189,21.6897006 C19.0338189,21.6011712 19.0338189,21.5126418 19.0338189,21.4241124 L19.0338189,21.5420778 C19.0338189,21.4535484 19.0338189,21.365019 19.0338189,21.2764897 C19.0338189,21.1290882 19.0338189,21.0109015 19.0338189,20.8635 L19.0338189,-7.10542736e-15 L22.2503129,-7.10542736e-15 Z" id="Path"></path>
                                <path d="M16.4370305,0 L16.4370305,20.8635 C16.4370305,21.365019 16.4073732,21.8373233 16.3779372,22.3094063 C16.3485012,22.7226172 16.2894078,23.1061708 16.2008784,23.5193818 C16.0238196,24.4635477 15.7582314,25.3784989 15.4041139,26.2341355 C15.1976191,26.7653118 14.9320309,27.2964882 14.6664427,27.7982285 C13.8400209,29.2737921 12.7776682,30.601733 11.5382567,31.7229577 C8.97090443,34.0247218 5.57735158,35.4117561 1.88855321,35.4117561 L-9.23705556e-14,35.4117561 L0.973823291,32.195262 L1.91821056,32.195262 C4.69205768,32.195262 7.22997397,31.1917813 9.17762055,29.5393803 C10.2399732,28.6540864 11.1252671,27.5917337 11.7744089,26.3817583 C11.9514677,26.0867341 12.0990904,25.7620525 12.2464919,25.437371 C12.482644,24.9061946 12.6597028,24.3750183 12.8073255,23.8144059 C12.9843843,23.1947002 13.1023497,22.5455585 13.1317858,21.8961954 C13.1614431,21.5717352 13.1614431,21.2470536 13.1614431,20.9223721 L13.1614431,0 L16.4370305,0 Z" id="Path"></path>
                                <path d="M10.6235268,20.5388185 L10.6235268,20.8635 C10.6235268,21.1290882 10.6235268,21.3946764 10.5940908,21.6308285 C10.5349974,22.1323475 10.4759041,22.6340879 10.3285026,23.1061708 C10.2694093,23.342323 10.2103159,23.5784751 10.1217865,23.7849699 L3.48208224,23.7849699 L4.45590553,20.5684759 L10.6235268,20.5684759 L10.6235268,20.5388185 Z" id="Path"></path>
                            </g>
                        </g>
                    </g>
                    <g id="Group-2-Copy" transform="translate(183.000000, 11.000000)" fill="#FFFFFF" fill-rule="nonzero">
                        <g id="Group">
                            <path d="M37.5628743,4.2 L37.5628743,6.5245283 C36.4850299,5.11572327 34.7964072,4.23522013 32.8922156,4.23522013 C29.6586826,4.23522013 27,6.84150943 27,10.0465409 C27,13.2515723 29.6586826,15.8578616 32.8922156,15.8578616 C34.7964072,15.8578616 36.4850299,14.9421384 37.5628743,13.5685535 L37.5628743,14.8716981 C37.5628743,17.5132075 35.3712575,19.6264151 32.7125749,19.6264151 L29.2994012,19.6264151 L29.2994012,21 L33.1796407,21 C36.3772455,21 39,18.4641509 39,15.2943396 L39,4.2 L37.5628743,4.2 Z M32.8922156,14.4490566 C30.4131737,14.4490566 28.4011976,12.4767296 28.4011976,10.0113208 C28.4011976,7.58113208 30.4131737,5.57358491 32.8922156,5.57358491 C35.3712575,5.57358491 37.3832335,7.54591195 37.3832335,10.0113208 C37.3832335,12.4767296 35.3712575,14.4490566 32.8922156,14.4490566 Z" id="Shape"></path>
                            <path d="M20.1,4.2 C16.9719512,4.2 14.4,6.75636364 14.4,9.9 C14.4,13.0436364 16.9719512,15.6 20.1,15.6 C23.2280488,15.6 25.8,13.0436364 25.8,9.9 C25.8,6.75636364 23.2280488,4.2 20.1,4.2 Z M20.1,14.2527273 C17.7018293,14.2527273 15.7554878,12.3181818 15.7554878,9.9 C15.7554878,7.51636364 17.7018293,5.54727273 20.1,5.54727273 C22.4981707,5.54727273 24.4445122,7.48181818 24.4445122,9.9 C24.4445122,12.3181818 22.4981707,14.2527273 20.1,14.2527273 Z" id="Shape"></path>
                            <polygon id="Path" points="13.8 0 12.6 0 12.6 15.6 13.8 15.6"></polygon>
                            <path d="M6.3,3.97923251 C4.59695122,3.97923251 3.06768293,4.75395034 2.025,5.98645598 L2.025,0 L0.669512195,0 L0.669512195,9.05011287 C0.634756098,9.296614 0.6,9.54311512 0.6,9.78961625 C0.6,10.0361174 0.634756098,10.2826185 0.669512195,10.5291196 L0.669512195,15.4239278 L2.025,15.4239278 L2.025,13.5927765 C3.06768293,14.8252822 4.59695122,15.6 6.3,15.6 C9.42804878,15.6 12,12.9941309 12,9.78961625 C12,6.58510158 9.42804878,3.97923251 6.3,3.97923251 Z M6.3,14.2266366 C4.11036585,14.2266366 2.33780488,12.5715576 2.025,10.4586907 L2.025,9.15575621 C2.33780488,7.04288939 4.14512195,5.38781038 6.3,5.38781038 C8.69817073,5.38781038 10.6445122,7.35981941 10.6445122,9.8248307 C10.6445122,12.2194131 8.69817073,14.2266366 6.3,14.2266366 Z" id="Shape"></path>
                        </g>
                    </g>
                </g>
            </g>
        </g>
    </g>
</svg>