<svg width="192" height="176" viewBox="0 0 192 176" fill="none" xmlns="http://www.w3.org/2000/svg">
<path d="M115 88L81 44H109.108C112.824 44 116.331 45.7219 118.603 48.6626L148 86.7059L146.47 88H115Z" fill="url(#paint0_linear_356_22403)"/>
<path d="M115 88L81 44H109.108C112.824 44 116.331 45.7219 118.603 48.6626L148 86.7059L146.47 88H115Z" fill="url(#paint1_radial_356_22403)"/>
<path d="M115 88H83.53L82.5455 90L92.8027 103.274C95.8638 107.236 95.8638 112.764 92.8027 116.726L81 132H109.108C112.824 132 116.331 130.278 118.603 127.337L125.858 117.949C129.475 113.267 129.475 106.733 125.858 102.051L115 88Z" fill="url(#paint2_linear_356_22403)"/>
<path d="M77.869 44C74.1659 44 70.6703 45.7097 68.3968 48.6327L48.9115 73.6852C45.7283 77.778 44 82.815 44 88C44 93.185 45.7283 98.222 48.9115 102.315L68.3968 127.367C70.6703 130.29 74.1659 132 77.869 132H109.108C109.572 132 110.033 131.973 110.488 131.92C107.309 131.552 104.385 129.924 102.397 127.367L81.1222 100.014C78.4505 96.5792 77 92.3517 77 88C77 83.6483 78.4505 79.4208 81.1222 75.9858L102.397 48.6327C104.385 46.0761 107.309 44.4477 110.488 44.0796C110.033 44.0269 109.572 44 109.108 44H77.869Z" fill="url(#paint3_linear_356_22403)"/>
<path d="M77.869 44C74.1659 44 70.6703 45.7097 68.3968 48.6327L48.9115 73.6852C45.7283 77.778 44 82.815 44 88C44 93.185 45.7283 98.222 48.9115 102.315L68.3968 127.367C70.6703 130.29 74.1659 132 77.869 132H109.108C109.572 132 110.033 131.973 110.488 131.92C107.309 131.552 104.385 129.924 102.397 127.367L81.1222 100.014C78.4505 96.5792 77 92.3517 77 88C77 83.6483 78.4505 79.4208 81.1222 75.9858L102.397 48.6327C104.385 46.0761 107.309 44.4477 110.488 44.0796C110.033 44.0269 109.572 44 109.108 44H77.869Z" fill="url(#paint4_radial_356_22403)" fill-opacity="0.5"/>
<path d="M115 88H83.532L82.55 90H114.018L115 88Z" fill="url(#paint5_linear_356_22403)"/>
<path d="M82.7137 89.6667H114.182L114.018 90H82.55L82.7137 89.6667Z" fill="#2F2BAD"/>
<path d="M109.222 44.0005C112.896 44.0354 116.354 45.7521 118.603 48.6626L148 86.7059L146.472 88L117.02 49.8855C115.15 47.4651 112.276 46.0355 109.222 46.0007C106.178 46.0353 103.313 47.455 101.442 49.861L81.1193 75.9932C78.4495 79.4262 77 83.6511 77 88C77 92.3489 78.4495 96.5738 81.1193 100.007L101.442 126.139C103.313 128.545 106.178 129.965 109.222 129.999C112.276 129.965 115.15 128.535 117.02 126.114L124.275 116.726C127.336 112.764 127.336 107.236 124.275 103.274L114.018 90L115 88L125.858 102.051C129.475 106.733 129.475 113.267 125.858 117.949L118.603 127.337C116.354 130.248 112.896 131.965 109.222 131.999C105.561 131.965 102.113 130.26 99.8633 127.367L79.5405 101.235C76.5977 97.4506 75 92.7936 75 88C75 83.2064 76.5977 78.5495 79.5405 74.7654L99.8633 48.6332C102.113 45.74 105.561 44.0353 109.222 44.0005Z" fill="url(#paint6_linear_356_22403)"/>
<path d="M109.388 44.0033C109.333 44.002 109.277 44.0011 109.222 44.0005C105.561 44.0353 102.113 45.74 99.8633 48.6332L79.5405 74.7654C76.5977 78.5495 75 83.2064 75 88C75 92.7936 76.5977 97.4506 79.5405 101.235L99.8633 127.367C102.113 130.26 105.561 131.965 109.222 131.999C109.277 131.999 109.333 131.998 109.389 131.997C105.79 131.913 102.413 130.216 100.197 127.367L79.874 101.235C76.9312 97.4506 75.3335 92.7936 75.3335 88C75.3335 83.2064 76.9312 78.5495 79.874 74.7654L100.197 48.6332C102.413 45.7839 105.79 44.0874 109.388 44.0033Z" fill="url(#paint7_linear_356_22403)"/>
<path d="M146.674 87.8293L117.354 49.8855C115.484 47.4651 112.61 46.0355 109.555 46.0007C109.5 46.0013 109.444 46.0024 109.388 46.0039C112.381 46.0879 115.184 47.5092 117.02 49.8855L146.472 88L146.674 87.8293Z" fill="url(#paint8_linear_356_22403)"/>
<path d="M109.388 129.996C109.444 129.998 109.5 129.999 109.555 129.999C112.61 129.965 115.484 128.535 117.354 126.114L124.609 116.726C127.67 112.764 127.67 107.236 124.609 103.274L114.351 90L115.204 88.2639L115 88L114.018 90L124.275 103.274C127.336 107.236 127.336 112.764 124.275 116.726L117.02 126.114C115.184 128.491 112.381 129.912 109.388 129.996Z" fill="url(#paint9_linear_356_22403)"/>
<defs>
<linearGradient id="paint0_linear_356_22403" x1="114.5" y1="44" x2="114.5" y2="88" gradientUnits="userSpaceOnUse">
<stop offset="0.0536645" stop-color="#181759"/>
<stop offset="0.1875" stop-color="#242189"/>
<stop offset="1" stop-color="#201D7F"/>
</linearGradient>
<radialGradient id="paint1_radial_356_22403" cx="0" cy="0" r="1" gradientUnits="userSpaceOnUse" gradientTransform="translate(96 44) rotate(67.1955) scale(47.731 42.6059)">
<stop stop-color="#111048"/>
<stop offset="0.636996" stop-color="#111048" stop-opacity="0"/>
</radialGradient>
<linearGradient id="paint2_linear_356_22403" x1="106.5" y1="132" x2="106.5" y2="88" gradientUnits="userSpaceOnUse">
<stop stop-color="#3836A6"/>
<stop offset="0.184295" stop-color="#242291"/>
<stop offset="0.388422" stop-color="#2B29A3"/>
<stop offset="0.478039" stop-color="#3330B7"/>
<stop offset="0.598793" stop-color="#3330B7"/>
<stop offset="0.729654" stop-color="#201E8E"/>
</linearGradient>
<linearGradient id="paint3_linear_356_22403" x1="78" y1="44" x2="78" y2="132" gradientUnits="userSpaceOnUse">
<stop stop-color="#AFADF2"/>
<stop offset="0.0660341" stop-color="#504DC7"/>
<stop offset="0.29271" stop-color="#3834AC"/>
<stop offset="0.38355" stop-color="#2F2BAE"/>
<stop offset="0.480862" stop-color="#332FB6"/>
<stop offset="0.562202" stop-color="#2F2BAF"/>
<stop offset="0.653042" stop-color="#1F1C80"/>
<stop offset="0.937093" stop-color="#1A1871"/>
<stop offset="1" stop-color="#0D0C31"/>
</linearGradient>
<radialGradient id="paint4_radial_356_22403" cx="0" cy="0" r="1" gradientUnits="userSpaceOnUse" gradientTransform="translate(112 44) rotate(147.095) scale(80.9938 62.5861)">
<stop stop-color="#BDBBEF"/>
<stop offset="0.697917" stop-color="#9896DF" stop-opacity="0"/>
</radialGradient>
<linearGradient id="paint5_linear_356_22403" x1="82.5001" y1="89" x2="114.5" y2="89" gradientUnits="userSpaceOnUse">
<stop stop-color="white"/>
<stop offset="0.0001" stop-color="#222085"/>
<stop offset="1" stop-color="#3532A9"/>
</linearGradient>
<linearGradient id="paint6_linear_356_22403" x1="75" y1="44" x2="148" y2="132" gradientUnits="userSpaceOnUse">
<stop stop-color="#6159E4"/>
<stop offset="1" stop-color="#4A43D5"/>
</linearGradient>
<linearGradient id="paint7_linear_356_22403" x1="110.837" y1="44.0005" x2="110.837" y2="131.999" gradientUnits="userSpaceOnUse">
<stop stop-color="#958AFF"/>
<stop offset="0.5" stop-color="#958AFF"/>
<stop offset="1" stop-color="#958AFF"/>
</linearGradient>
<linearGradient id="paint8_linear_356_22403" x1="110.837" y1="44.0005" x2="110.837" y2="131.999" gradientUnits="userSpaceOnUse">
<stop stop-color="#958AFF"/>
<stop offset="0.5" stop-color="#958AFF"/>
<stop offset="1" stop-color="#958AFF"/>
</linearGradient>
<linearGradient id="paint9_linear_356_22403" x1="110.837" y1="44.0005" x2="110.837" y2="131.999" gradientUnits="userSpaceOnUse">
<stop stop-color="#958AFF"/>
<stop offset="0.5" stop-color="#958AFF"/>
<stop offset="1" stop-color="#958AFF"/>
</linearGradient>
</defs>
</svg>
